g chelun
v -0.1510219 -0.4045925 0.1071353
v 0.1381297 -0.4020582 -0.1089995
v -0.1510219 -0.4039566 -0.1095142
v 0.1381297 -0.402691 0.1066322
v 0.1381297 -0.2936945 -0.2954254
v -0.1510219 -0.2950812 -0.2968199
v 0.1381297 -0.106635 -0.4026918
v -0.1510219 -0.1071374 -0.4045933
v 0.1381297 0.1089967 -0.4020598
v -0.1510219 0.1095114 -0.4039574
v 0.1381297 0.2954241 -0.2936945
v -0.1510219 0.2968186 -0.295082
v 0.1381297 0.4026905 -0.1066358
v -0.1510219 0.404592 -0.1071389
v 0.1381297 0.4020562 0.1089951
v -0.1510219 0.4039553 0.1095099
v 0.1381297 0.2936924 0.2954234
v -0.1510219 0.2950799 0.2968186
v 0.1381297 0.106633 0.402689
v -0.1510227 0.1071369 0.4045928
v 0.1381297 -0.1089979 0.4020577
v -0.1510227 -0.1095119 0.4039553
v -0.1510219 -0.2968183 0.2950792
v 0.1381297 -0.2954246 0.2936924
v 0.1381297 -0.402691 0.1066322
v -0.1510219 -0.4045925 0.1071353
v 0.1909356 0.2888724 -0.07649547
v 0.1909356 0.2884194 0.07815951
v 0.1909356 0.2106976 0.2118675
v 0.1909364 0.07653585 0.288803
v 0.1909364 -0.0781199 0.2883484
v 0.1909356 -0.2118286 0.2106273
v 0.1909356 -0.2887641 0.07646331
v 0.1909356 0.2119385 -0.2106602
v 0.1909356 0.07823128 -0.2883798
v 0.1909364 -0.07642525 -0.2888351
v 0.1909364 -0.2105877 -0.2119004
v 0.1909364 -0.2883088 -0.07819167
v 0.1909356 -0.2887641 0.07646331
v -0.1510219 -0.4045925 0.1071353
v -0.1909737 5.415082E-05 -1.528859E-05
v -0.1510219 -0.2968183 0.2950792
v -0.1909737 5.415082E-05 -1.528859E-05
v -0.1510219 -0.4039566 -0.1095142
v -0.1510219 -0.2950812 -0.2968199
v -0.1909737 5.415082E-05 -1.528859E-05
v -0.1909737 5.415082E-05 -1.528859E-05
v -0.1510219 -0.1071374 -0.4045933
v -0.1510219 0.1095114 -0.4039574
v -0.1909737 5.415082E-05 -1.528859E-05
v -0.1909737 5.415082E-05 -1.528859E-05
v -0.1510219 0.2968186 -0.295082
v -0.1510219 0.404592 -0.1071389
v -0.1909737 5.415082E-05 -1.528859E-05
v -0.1909737 5.415082E-05 -1.528859E-05
v -0.1510219 0.4039553 0.1095099
v -0.1510219 0.2950799 0.2968186
v -0.1909737 5.415082E-05 -1.528859E-05
v -0.1909737 5.415082E-05 -1.528859E-05
v -0.1510227 0.1071369 0.4045928
v -0.1510227 -0.1095119 0.4039553
v -0.1909737 5.415082E-05 -1.528859E-05
v -0.1909737 5.415082E-05 -1.528859E-05
v -0.1510219 -0.2968183 0.2950792
v 0.1909356 0.2884194 0.07815951
v 0.1909757 -0.0006936193 0.0001822412
v 0.1909356 0.2106976 0.2118675
v 0.1909356 0.2888724 -0.07649547
v 0.1909356 0.2119385 -0.2106602
v 0.1909356 0.07823128 -0.2883798
v 0.1909364 0.07653585 0.288803
v 0.1909364 -0.0781199 0.2883484
v 0.1909356 -0.2118286 0.2106273
v 0.1909356 -0.2887641 0.07646331
v 0.1909364 -0.2883088 -0.07819167
v 0.1909364 -0.2105877 -0.2119004
v 0.1909364 -0.07642525 -0.2888351
vt 0.4055 0.1085297
vt 0.3734871 0.0563779
vt 0.3734871 0.1085297
vt 0.4055 0.0563779
vt 0.3402832 0.0563779
vt 0.3402832 0.1085297
vt 0.3073921 0.0563779
vt 0.3073921 0.1085297
vt 0.2746814 0.0563779
vt 0.2746814 0.1085297
vt 0.2419949 0.0563779
vt 0.2419949 0.1085297
vt 0.2092842 0.0563779
vt 0.2092842 0.1085297
vt 0.1764773 0.0563779
vt 0.1764773 0.1085297
vt 0.1437787 0.0563779
vt 0.1437787 0.1085297
vt 0.1110801 0.0563779
vt 0.1110801 0.1085297
vt 0.07828525 0.0563779
vt 0.07828525 0.1085297
vt 0.04559866 0.1085297
vt 0.04559866 0.0563779
vt 0.01399481 0.0563779
vt 0.01399481 0.1085297
vt 0.2092842 0.01459633
vt 0.1764773 0.01459633
vt 0.1437787 0.01459633
vt 0.1110801 0.01459633
vt 0.07828525 0.01459633
vt 0.04559866 0.01459633
vt 0.01399481 0.01459633
vt 0.2419949 0.01459633
vt 0.2746814 0.01459633
vt 0.3073921 0.01459633
vt 0.3402832 0.01459633
vt 0.3734871 0.01459633
vt 0.4055 0.01459633
vt 0.4055 0.1085297
vt 0.2256456 0.1399892
vt 0.3893793 0.1215225
vt 0.2256456 0.1399892
vt 0.3734871 0.1085297
vt 0.3402832 0.1085297
vt 0.2256456 0.1399892
vt 0.2256456 0.1399892
vt 0.3073921 0.1085297
vt 0.2746814 0.1085297
vt 0.2256456 0.1399892
vt 0.2256456 0.1399892
vt 0.2419949 0.1085297
vt 0.2092842 0.1085297
vt 0.2256456 0.1399892
vt 0.2256456 0.1399892
vt 0.1764773 0.1085297
vt 0.1437787 0.1085297
vt 0.2256456 0.1399892
vt 0.2256456 0.1399892
vt 0.1110801 0.1085297
vt 0.07828525 0.1085297
vt 0.2256456 0.1399892
vt 0.2256456 0.1399892
vt 0.04559866 0.1085297
vt 0.04869047 0.3814994
vt 0.08629749 0.3165833
vt 0.02128523 0.3540941
vt 0.08629749 0.3915929
vt 0.1237 0.3814994
vt 0.1511894 0.3540941
vt 0.0113 0.3165833
vt 0.02128523 0.2791929
vt 0.04869047 0.2516794
vt 0.08629749 0.2415859
vt 0.1237 0.2516794
vt 0.1511894 0.2791929
vt 0.1611867 0.3165833
vn 0.01960772 -0.9764631 0.2147913
vn 0.5215647 -0.8431308 -0.1307696
vn 0.01960772 -0.9764631 -0.2147913
vn 0.5215647 -0.8431308 0.1307696
vn 0.5215647 -0.6156816 -0.590683
vn 0.01960772 -0.7176416 -0.6961365
vn 0.5215647 -0.2313708 -0.8212417
vn 0.01960772 -0.2705862 -0.962496
vn 0.5215647 0.2235277 -0.823411
vn 0.01960772 0.2549 -0.9667686
vn 0.5215647 0.6078384 -0.598751
vn 0.01960772 0.7019553 -0.7119511
vn 0.5215647 0.8274446 -0.2081005
vn 0.01960772 0.9607769 -0.2766283
vn 0.5215647 0.8274446 0.2081005
vn 0.01960772 0.9607769 0.2766283
vn 0.5215647 0.5999954 0.6066101
vn 0.01960772 0.7019553 0.7119511
vn 0.5215647 0.2156845 0.8255001
vn 0.01960772 0.2549 0.9667686
vn 0.5215647 -0.2392139 0.8189915
vn 0.01960772 -0.2705862 0.962496
vn 0.01960772 -0.7176416 0.6961365
vn 0.5215647 -0.6235247 0.5823979
vn 0.5215647 -0.8431308 0.1307696
vn 0.01960772 -0.9764631 0.2147913
vn 0.9747855 0.2231436 0
vn 0.9747855 0.2231436 0
vn 0.9843062 0.1686261 0.05202432
vn 0.9843062 0.05882299 0.1663765
vn 0.9843062 -0.07450926 0.1599677
vn 0.9829164 -0.1840521 0
vn 0.9712788 -0.2379438 0
vn 0.9843062 0.1686261 -0.05202432
vn 0.9843062 0.05882299 -0.1663765
vn 0.9843062 -0.07450926 -0.1599677
vn 0.9829164 -0.1840521 0
vn 0.9712788 -0.2379438 0
vn 0.9712788 -0.2379438 0
vn -0.9921492 -0.1058816 0.06655069
vn -0.9999923 -0.003921568 -0.0003442513
vn -0.9921492 -0.08235234 0.09411691
vn -0.9999923 -0.003921568 -0.0003442513
vn -0.9921492 -0.1058816 -0.06655069
vn -0.9921492 -0.08235234 -0.09411691
vn -0.9999923 -0.003921568 -0.0003442513
vn -0.9999923 -0.003921568 -0.0003442513
vn -0.9921492 -0.03529388 -0.119976
vn -0.9921492 0.01960766 -0.1235129
vn -0.9999923 -0.003921568 -0.0003442513
vn -0.9999923 -0.003921568 -0.0003442513
vn -0.9921492 0.06666613 -0.1058089
vn -0.9921492 0.0901953 -0.08662973
vn -0.9999923 -0.003921568 -0.0003442513
vn -0.9999923 -0.003921568 -0.0003442513
vn -0.9921492 0.0901953 0.08662973
vn -0.9921492 0.06666613 0.1058089
vn -0.9999923 -0.003921568 -0.0003442513
vn -0.9999923 -0.003921568 -0.0003442513
vn -0.9921492 0.01960766 0.1235129
vn -0.9921492 -0.03529388 0.119976
vn -0.9999923 -0.003921568 -0.0003442513
vn -0.9999923 -0.003921568 -0.0003442513
vn -0.9921492 -0.08235234 0.09411691
vn 0.9747855 0.2231436 0
vn 0.9999924 -0.003921568 0
vn 0.9843062 0.1686261 0.05202432
vn 0.9747855 0.2231436 0
vn 0.9843062 0.1686261 -0.05202432
vn 0.9843062 0.05882299 -0.1663765
vn 0.9843062 0.05882299 0.1663765
vn 0.9843062 -0.07450926 0.1599677
vn 0.9829164 -0.1840521 0
vn 0.9712788 -0.2379438 0
vn 0.9712788 -0.2379438 0
vn 0.9829164 -0.1840521 0
vn 0.9843062 -0.07450926 -0.1599677
g chelun_0
f 3/3/3 2/2/2 1/1/1
f 4/4/4 1/1/1 2/2/2
f 2/2/2 3/3/3 5/5/5
f 6/6/6 5/5/5 3/3/3
f 5/5/5 6/6/6 7/7/7
f 8/8/8 7/7/7 6/6/6
f 7/7/7 8/8/8 9/9/9
f 10/10/10 9/9/9 8/8/8
f 9/9/9 10/10/10 11/11/11
f 12/12/12 11/11/11 10/10/10
f 11/11/11 12/12/12 13/13/13
f 14/14/14 13/13/13 12/12/12
f 13/13/13 14/14/14 15/15/15
f 16/16/16 15/15/15 14/14/14
f 15/15/15 16/16/16 17/17/17
f 18/18/18 17/17/17 16/16/16
f 17/17/17 18/18/18 19/19/19
f 20/20/20 19/19/19 18/18/18
f 19/19/19 20/20/20 21/21/21
f 22/22/22 21/21/21 20/20/20
f 22/22/22 23/23/23 21/21/21
f 24/24/24 21/21/21 23/23/23
f 24/24/24 23/23/23 25/25/25
f 26/26/26 25/25/25 23/23/23
f 13/13/13 27/27/27 11/11/11
f 15/15/15 28/28/28 13/13/13
f 27/27/27 13/13/13 28/28/28
f 28/28/28 15/15/15 29/29/29
f 17/17/17 29/29/29 15/15/15
f 19/19/19 30/30/30 17/17/17
f 29/29/29 17/17/17 30/30/30
f 21/21/21 31/31/31 19/19/19
f 30/30/30 19/19/19 31/31/31
f 31/31/31 21/21/21 32/32/32
f 24/24/24 32/32/32 21/21/21
f 32/32/32 24/24/24 33/33/33
f 25/25/25 33/33/33 24/24/24
f 34/34/34 11/11/11 27/27/27
f 11/11/11 34/34/34 9/9/9
f 35/35/35 9/9/9 34/34/34
f 9/9/9 35/35/35 7/7/7
f 36/36/36 7/7/7 35/35/35
f 36/36/36 37/37/37 7/7/7
f 5/5/5 7/7/7 37/37/37
f 37/37/37 38/38/38 5/5/5
f 2/2/2 5/5/5 38/38/38
f 2/2/2 38/38/38 4/4/4
f 39/39/39 4/4/4 38/38/38
f 42/42/42 41/41/41 40/40/40
f 44/44/44 40/40/40 43/43/43
f 44/44/44 46/46/46 45/45/45
f 48/48/48 45/45/45 47/47/47
f 48/48/48 50/50/50 49/49/49
f 52/52/52 49/49/49 51/51/51
f 52/52/52 54/54/54 53/53/53
f 56/56/56 53/53/53 55/55/55
f 56/56/56 58/58/58 57/57/57
f 60/60/60 57/57/57 59/59/59
f 60/60/60 62/62/62 61/61/61
f 64/64/64 61/61/61 63/63/63
f 67/67/67 66/66/66 65/65/65
f 68/68/68 65/65/65 66/66/66
f 68/68/68 66/66/66 69/69/69
f 70/70/70 69/69/69 66/66/66
f 67/67/67 71/71/71 66/66/66
f 72/72/72 66/66/66 71/71/71
f 72/72/72 73/73/73 66/66/66
f 74/74/74 66/66/66 73/73/73
f 66/66/66 74/74/74 75/75/75
f 75/75/75 76/76/76 66/66/66
f 77/77/77 66/66/66 76/76/76
f 66/66/66 77/77/77 70/70/70
