g chemen
v -0.3162081 0.6040308 -1.51079
v -0.1735146 0.332316 -1.484078
v -0.155305 0.3162552 -0.9470207
v -0.2891387 0.5905168 -0.7280564
v -0.2669595 0.5525291 -0.5913604
v -0.155305 0.3162552 -0.9470207
v -0.1428263 0.2996265 -0.2546417
v -0.1729302 0.3508517 -0.2338198
v -0.1459922 0.2842342 -0.0960145
v -0.007438421 0.009013057 -0.2572682
v -0.09396732 0.2576343 -0.2550538
v -0.1230317 0.2543004 -1.532432
v -0.04480696 0.05344117 -1.545967
v -0.09107208 0.2570438 -0.04705918
v -0.0001000166 0.0001205206 -0.00349021
v -0.03735983 -0.3508424 -0.2607129
v -0.03158593 -0.3690007 -0.02930069
v -0.02470887 -0.3794003 -0.0310415
v -0.02415943 -0.3717523 -0.2613444
v -0.04581976 -0.4596796 -0.03814816
v -0.04532158 -0.4537191 -0.2619596
v -0.04211271 -0.4224095 -1.314169
v -0.02147949 -0.3344392 -1.384959
v -0.06512642 -0.2651089 -1.426013
v -0.155305 0.3162552 -0.9470207
v -0.1428263 0.2996265 -0.2546417
v -0.1735146 0.332316 -1.484078
v -0.1459922 0.2842342 -0.0960145
v 0.09327316 0.3442883 -0.4435675
v 0.07280815 0.3101205 -0.4388824
v 0.0916779 0.3390844 -0.3837163
v 0.06180573 0.306399 -0.378414
v -0.006411076 0.2968626 -0.2979953
v 0.008468628 0.3372637 -0.2837389
v -0.07608366 0.2717718 -0.2274268
v -0.05941606 0.2993476 -0.2103755
v -0.1022407 0.3774494 -0.2740672
v -0.09500682 0.4081563 -0.3407749
v -0.1238396 0.3379854 -0.3404551
v -0.1152997 0.3425947 -0.3926582
v -0.0886116 0.4122694 -0.3985387
v 0.07718158 0.3977013 -0.3769112
v 0.06554151 0.4012833 -0.4362743
v -0.142082 0.3004671 -0.3112307
v -0.1430191 0.2986157 -0.2659988
v -0.1132964 0.3296382 -0.2021329
v -0.1430601 0.2930427 -0.1954446
v -0.108031 0.2563672 -0.1981081
v -0.1092058 0.2555593 -0.1617975
v -0.1333555 0.2692027 -0.1135864
v -0.09300566 0.2956221 -0.3985305
v -0.1059437 0.288499 -0.3437603
v 0.06180573 0.306399 -0.378414
v 0.07280815 0.3101205 -0.4388824
v -0.05721188 0.278208 -0.3205149
v -0.006411076 0.2968626 -0.2979953
v -0.07608366 0.2717718 -0.2274268
v -0.106442 0.2571976 -0.2398522
v -0.1044859 0.2664654 -0.3159835
v -0.108031 0.2563672 -0.1981081
v -0.1044859 0.2664654 -0.3159835
v -0.1059437 0.288499 -0.3437603
v -0.142082 0.3004671 -0.3112307
v -0.1238396 0.3379854 -0.3404551
v -0.1152997 0.3425947 -0.3926582
v -0.09300566 0.2956221 -0.3985305
v -0.1152997 0.3425947 -0.3926582
v 0.07280815 0.3101205 -0.4388824
v 0.09327316 0.3442883 -0.4435675
v -0.09300566 0.2956221 -0.3985305
v 0.06554151 0.4012833 -0.4362743
v -0.0886116 0.4122694 -0.3985387
v -0.2016358 0.009013057 -0.2572682
v -0.1874123 -0.4224095 -1.314169
v -0.2016358 0.05343699 -1.545967
v -0.1874123 -0.4537191 -0.2619596
v -0.2253652 0.195212 -1.532432
v -0.2253652 0.1985439 -0.2550538
v -0.1230317 0.2543004 -1.532432
v -0.0001000166 0.0001205206 -0.00349021
v -0.09107208 0.2570438 -0.04705918
v -0.03158593 -0.3690007 -0.02930069
v -0.02470887 -0.3794003 -0.0310415
v -0.04581976 -0.4596796 -0.03814816
v -0.155305 0.3162552 -0.9470207
v -0.1428263 0.2996265 -0.2546417
v -0.04532158 -0.4537191 -0.2619596
v -0.04211271 -0.4224095 -1.314169
v -0.04581976 -0.4596796 -0.03814816
v -0.06512642 -0.2651089 -1.426013
v -0.02147949 -0.3344392 -1.384959
v -0.04211271 -0.4224095 -1.314169
v -0.2016358 0.05343699 -1.545967
v -0.04480696 0.05344117 -1.545967
v -0.2253652 0.195212 -1.532432
v -0.1735146 0.332316 -1.484078
v -0.1230317 0.2543004 -1.532432
v -0.3290784 0.6040308 -1.510571
v -0.3020111 0.5905168 -0.7278391
v -0.1681753 0.3162552 -0.9468013
v -0.1863871 0.332316 -1.483863
v -0.279832 0.5525291 -0.591141
v -0.1556966 0.2996265 -0.2544243
v -0.1858007 0.3508517 -0.2336025
v -0.1588625 0.2842342 -0.09579921
vt 0.55068 0.1430855
vt 0.6280765 0.2292953
vt 0.6289808 0.2811848
vt 0.5541824 0.3330887
vt 0.5644885 0.3665908
vt 0.6289808 0.2811848
vt 0.6318803 0.4491833
vt 0.6173828 0.4540924
vt 0.6299282 0.4709296
vt 0.2517879 0.2067883
vt 0.2517879 0.1655925
vt 0.5183837 0.1655925
vt 0.5204794 0.2067883
vt 0.2078936 0.1655925
vt 0.1979893 0.2067883
vt 0.2517879 0.2701897
vt 0.2029845 0.2730892
vt 0.2032859 0.2750844
vt 0.2517879 0.2743954
vt 0.2045921 0.2875867
vt 0.2517879 0.2875867
vt 0.470786 0.2875867
vt 0.4864892 0.270893
vt 0.4951877 0.2570845
vt 0.3514904 0.1525878
vt 0.2517879 0.1525878
vt 0.473542 0.1525878
vt 0.2190896 0.1525878
vt 0.8909833 0.6993295
vt 0.89328 0.7076835
vt 0.8998828 0.7012816
vt 0.9029832 0.7069802
vt 0.919275 0.710784
vt 0.919275 0.7025878
vt 0.9348777 0.7149753
vt 0.9350787 0.7078844
vt 0.9303849 0.687588
vt 0.921385 0.678588
vt 0.9311744 0.672789
vt 0.9245285 0.6643346
vt 0.9144233 0.6705355
vt 0.9010742 0.6929851
vt 0.8939833 0.6870856
vt 0.9390116 0.6751431
vt 0.9430738 0.6835832
vt 0.9408777 0.6983821
vt 0.9479828 0.6967888
vt 0.9416815 0.7180758
vt 0.9465762 0.7151762
vt 0.9545713 0.7115878
vt 0.9117822 0.733377
vt 0.9209831 0.7317837
vt 0.9029832 0.7069802
vt 0.89328 0.7076835
vt 0.9208826 0.7213771
vt 0.919275 0.710784
vt 0.9348777 0.7149753
vt 0.9360834 0.721779
vt 0.9256768 0.7283819
vt 0.9416815 0.7180758
vt 0.9256768 0.7283819
vt 0.9209831 0.7317837
vt 0.9280739 0.7366785
vt 0.9222749 0.7418746
vt 0.9140358 0.7428363
vt 0.9117822 0.733377
vt 0.7124777 0.7016835
vt 0.6459903 0.6462773
vt 0.6468802 0.6290813
vt 0.6921812 0.7052864
vt 0.6743823 0.6266842
vt 0.7216786 0.6719852
vt 0.6112824 0.05169393
vt 0.4794845 0.1091958
vt 0.45148 0.05169393
vt 0.6111819 0.1091958
vt 0.4519824 0.03019173
vt 0.6108805 0.03019173
vt 0.4371834 0.02668936
vt 0.6520763 0.05169393
vt 0.63933 0.01809135
vt 0.6466792 0.1004973
vt 0.6466792 0.1018897
vt 0.6444831 0.1118944
vt 0.4982882 0.0139
vt 0.6111819 0.0139
vt 0.6103781 0.1276981
vt 0.4794845 0.1276981
vt 0.6385836 0.1276981
vt 0.4526857 0.09359309
vt 0.4532886 0.1058944
vt 0.4634799 0.11699
vt 0.45148 0.05169393
vt 0.4335806 0.05169393
vt 0.4519824 0.03019173
vt 0.4668674 0.0139
vt 0.4519824 0.0139
vt 0.55068 0.1430855
vt 0.5541824 0.3330887
vt 0.6289808 0.2811848
vt 0.6280765 0.2292953
vt 0.5644885 0.3665908
vt 0.6318803 0.4491833
vt 0.6173828 0.4540924
vt 0.6299282 0.4709296
vn 0.8906442 0.4479896 -0.07783426
vn 0.8672959 0.4946862 -0.05552804
vn 0.8439476 0.5335999 -0.05498668
vn 0.8979991 0.4399972 0
vn 0.8984269 0.4324241 -0.07640929
vn 0.9025139 0.4306606 0
vn 0.7816856 0.6192102 0.0744741
vn 0.8750787 0.4791207 -0.06841559
vn 0.5559857 0.8293446 0.0553855
vn 0.99182 0.121114 -0.04030531
vn 0.8283821 0.5569481 -0.05993192
vn 0.8984269 0.4324241 -0.07640929
vn 0.9840372 0.1755932 -0.02894441
vn 0.8361649 0.5413826 -0.08793826
vn 0.9944715 0.1050066 0
vn 0.9750434 0.222014 0
vn 0.9733358 0.2293846 0
vn 0.9840372 0.1755932 -0.02894441
vn 0.9895583 0.1441327 0
vn 0.9657412 -0.2595073 0
vn 0.9676628 -0.2522474 0
vn 0.9717988 -0.2358116 0
vn 0.9451234 0.3234655 -0.04595343
vn 0.9916607 0.128876 0
vn 0.8439476 0.5335999 -0.05498668
vn 0.7816856 0.6192102 0.0744741
vn 0.8672959 0.4946862 -0.05552804
vn 0.5559857 0.8293446 0.0553855
vn 0.9996027 -0.02675843 0.008850841
vn 0.8169269 -0.5767413 0
vn 0.9451234 -0.1824135 0.2710479
vn 0.7272063 -0.6026822 0.3285499
vn 0.7116408 -0.4703754 0.5218374
vn 0.641596 0.1989414 0.7407948
vn 0.6960753 -0.6182477 0.3650327
vn 0.734989 0.01215535 0.6779701
vn -0.3468139 0.8293446 0.4380728
vn -0.4557723 0.8604756 0.2277132
vn -0.9694342 0.152245 -0.1924028
vn -0.9849997 0.01215535 -0.1721273
vn -0.4246413 0.8993893 0.1038201
vn 0.6882926 0.6736895 0.2690646
vn 0.610465 0.7904308 -0.05051292
vn -0.9383032 0.09776562 -0.3317063
vn -0.8604756 0.4946862 0.1219316
vn -0.1755932 0.8059964 0.565276
vn -0.7437343 0.6347757 0.2095689
vn 0.6793889 -0.7337784 0
vn 0.8984269 0.04328638 0.4369843
vn 0.5715512 0.6114275 0.5472528
vn -0.09776562 -0.703858 -0.7035807
vn 0.08902043 -0.9217752 -0.3773669
vn 0.1117097 -0.9937408 0
vn -0.1678105 -0.4548099 -0.8746357
vn 0.197979 -0.9606889 -0.1946305
vn 0.3136122 -0.9495511 0
vn 0.4141702 -0.9101994 0
vn 0.3983569 -0.9172305 0
vn 0.197979 -0.9217752 -0.3333687
vn 0.436169 -0.8998647 0
vn -0.6192102 -0.6338133 -0.4635294
vn -0.7904308 -0.4236789 -0.4423972
vn -0.9383032 0.09776562 -0.3317063
vn -0.9694342 0.152245 -0.1924028
vn -0.9849997 0.01215535 -0.1721273
vn -0.8838238 -0.4003307 -0.2420554
vn -0.2300724 0.004372656 -0.9731637
vn -0.1678105 -0.4548099 -0.8746357
vn -0.2300724 0.004372656 -0.9731637
vn -0.09776562 -0.703858 -0.7035807
vn -0.2300724 0.004372656 -0.9731637
vn -0.2300724 0.004372656 -0.9731637
vn -0.9383032 -0.07345492 0.3379224
vn -0.6114275 -0.703858 -0.3615803
vn -0.6347757 -0.1746308 -0.7527044
vn -0.720386 -0.672727 0.1687672
vn -0.7592998 0.1600277 -0.6307574
vn -0.9383032 0.2145069 0.2712452
vn -0.1288967 0.245638 -0.9607537
vn -0.782648 -0.05788946 0.6197668
vn -0.8371274 0.004372656 0.5469905
vn -0.751517 -0.2368928 0.6157143
vn -0.751517 -0.2524583 0.6094974
vn -0.8371274 -0.1590652 0.5233698
vn -0.8604756 0.4946862 0.1219316
vn -0.7592998 0.6192102 0.2001063
vn 0.003410161 -0.9996027 -0.02797728
vn 0.003410161 -0.8984269 -0.4391098
vn -0.8371274 -0.1590652 0.5233698
vn -0.1600277 -0.4703754 -0.8678353
vn -0.04328638 -0.5715512 -0.8194239
vn 0.003410161 -0.8984269 -0.4391098
vn -0.6347757 -0.1746308 -0.7527044
vn 0.003410161 -0.1746308 -0.9846281
vn -0.7592998 0.1600277 -0.6307574
vn -0.8449101 0.4246413 -0.3252794
vn -0.1288967 0.245638 -0.9607537
vn -0.8827662 -0.4698125 0
vn -0.8838238 -0.4548099 -0.10956
vn -0.8838238 -0.4548099 -0.10956
vn -0.8760411 -0.4703754 -0.1062965
vn -0.8916066 -0.4470271 0.07214097
vn -0.8744743 -0.4850718 0
vn -0.8682584 -0.4937237 -0.04862323
vn -0.8682584 -0.4937237 -0.04862323
g chemen_0
f 3/3/3 2/2/2 1/1/1
f 1/1/1 4/4/4 3/3/3
f 6/6/6 4/4/4 5/5/5
f 5/5/5 7/7/7 6/6/6
f 8/8/8 7/7/7 5/5/5
f 8/8/8 9/9/9 7/7/7
f 12/12/12 11/11/11 10/10/10
f 10/10/10 13/13/13 12/12/12
f 10/10/10 11/11/11 14/14/14
f 14/14/14 15/15/15 10/10/10
f 15/15/15 16/16/16 10/10/10
f 17/17/17 16/16/16 15/15/15
f 16/16/16 17/17/17 18/18/18
f 18/18/18 19/19/19 16/16/16
f 19/19/19 18/18/18 20/20/20
f 20/20/20 21/21/21 19/19/19
f 22/22/22 19/19/19 21/21/21
f 19/19/19 22/22/22 23/23/23
f 16/16/16 19/19/19 23/23/23
f 23/23/23 24/24/24 16/16/16
f 24/24/24 13/13/13 10/10/10
f 10/10/10 16/16/16 24/24/24
f 12/12/12 25/25/25 11/11/11
f 26/26/26 11/11/11 25/25/25
f 12/12/12 27/27/27 25/25/25
f 11/11/11 26/26/26 28/28/28
f 28/28/28 14/14/14 11/11/11
f 31/31/31 30/30/30 29/29/29
f 32/32/32 30/30/30 31/31/31
f 33/33/33 32/32/32 31/31/31
f 34/34/34 33/33/33 31/31/31
f 35/35/35 33/33/33 34/34/34
f 34/34/34 36/36/36 35/35/35
f 37/37/37 36/36/36 34/34/34
f 37/37/37 34/34/34 38/38/38
f 37/37/37 38/38/38 39/39/39
f 40/40/40 39/39/39 38/38/38
f 41/41/41 40/40/40 38/38/38
f 41/41/41 38/38/38 42/42/42
f 38/38/38 34/34/34 42/42/42
f 42/42/42 34/34/34 31/31/31
f 42/42/42 43/43/43 41/41/41
f 42/42/42 31/31/31 43/43/43
f 31/31/31 29/29/29 43/43/43
f 37/37/37 39/39/39 44/44/44
f 44/44/44 45/45/45 37/37/37
f 37/37/37 46/46/46 36/36/36
f 46/46/46 37/37/37 45/45/45
f 45/45/45 47/47/47 46/46/46
f 48/48/48 35/35/35 36/36/36
f 36/36/36 49/49/49 48/48/48
f 49/49/49 36/36/36 46/46/46
f 46/46/46 47/47/47 50/50/50
f 46/46/46 50/50/50 49/49/49
f 53/53/53 52/52/52 51/51/51
f 51/51/51 54/54/54 53/53/53
f 53/53/53 55/55/55 52/52/52
f 55/55/55 53/53/53 56/56/56
f 57/57/57 55/55/55 56/56/56
f 55/55/55 57/57/57 58/58/58
f 58/58/58 59/59/59 55/55/55
f 52/52/52 55/55/55 59/59/59
f 58/58/58 57/57/57 60/60/60
f 63/63/63 62/62/62 61/61/61
f 63/63/63 64/64/64 62/62/62
f 62/62/62 64/64/64 65/65/65
f 65/65/65 66/66/66 62/62/62
f 69/69/69 68/68/68 67/67/67
f 68/68/68 70/70/70 67/67/67
f 71/71/71 69/69/69 67/67/67
f 67/67/67 72/72/72 71/71/71
f 75/75/75 74/74/74 73/73/73
f 74/74/74 76/76/76 73/73/73
f 73/73/73 77/77/77 75/75/75
f 77/77/77 73/73/73 78/78/78
f 75/75/75 77/77/77 79/79/79
f 78/78/78 73/73/73 80/80/80
f 80/80/80 81/81/81 78/78/78
f 82/82/82 73/73/73 76/76/76
f 82/82/82 80/80/80 73/73/73
f 82/82/82 76/76/76 83/83/83
f 84/84/84 83/83/83 76/76/76
f 78/78/78 85/85/85 77/77/77
f 78/78/78 86/86/86 85/85/85
f 81/81/81 86/86/86 78/78/78
f 74/74/74 87/87/87 76/76/76
f 74/74/74 88/88/88 87/87/87
f 87/87/87 89/89/89 76/76/76
f 74/74/74 75/75/75 90/90/90
f 91/91/91 74/74/74 90/90/90
f 91/91/91 92/92/92 74/74/74
f 79/79/79 94/94/94 93/93/93
f 93/93/93 94/94/94 90/90/90
f 96/96/96 95/95/95 85/85/85
f 97/97/97 77/77/77 96/96/96
f 100/100/100 99/99/99 98/98/98
f 98/98/98 101/101/101 100/100/100
f 102/102/102 99/99/99 100/100/100
f 103/103/103 102/102/102 100/100/100
f 103/103/103 104/104/104 102/102/102
f 105/105/105 104/104/104 103/103/103
