g CrosswalkTex
v -174.3297 0 -11.713
v -180.6161 0 5.418197
v -177.2777 0 -12.2694
v -177.6682 0 5.974597
v -281.5339 0 -31.947
v -287.8203 0 -14.8157
v -284.4819 0 -32.5034
v -284.8723 0 -14.2593
v 159.1685 0 -91.0943
v 141.0885 0 -93.5669
v 159.0765 0 -94.0929
v 141.1762 0 -90.5681
v 157.6925 0 -139.2045
v 139.6817 0 -141.6791
v 157.6004 0 -142.2031
v 139.7693 0 -138.6804
v 181.5975 0 -252.868
v 164.6297 0 -259.5935
v 182.2149 0 -255.7686
v 163.9943 0 -256.6264
v 137.9055 0 151.1023
v 155.643 0 155.3897
v 137.6897 0 154.0945
v 155.8589 0 152.3975
v 129.3526 0 269.6513
v 147.0901 0 273.9388
v 129.1367 0 272.6436
v 147.3059 0 270.9466
v 126.571 0 291.0727
v 143.8065 0 297.0667
v 126.0648 0 294.0297
v 144.3128 0 294.1098
v 109.6102 0 390.1523
v 126.8434 0 396.1459
v 109.104 0 393.1093
v 127.3497 0 393.189
v 391.7533 0 -31.9815
v 392.1717 0 -50.2214
v 394.7231 0 -32.4067
v 389.202 0 -49.796
v 453.9554 0 -40.8864
v 454.3734 0 -59.1298
v 456.9253 0 -41.3116
v 451.4037 0 -58.7045
v 225.7756 0 -393.5531
v 210.6181 0 -403.6977
v 227.0023 0 -396.2439
v 209.3602 0 -400.9272
v 106.0221 0 408.239
v 122.9464 0 415.0563
v 105.3739 0 411.1681
v 123.5944 0 412.1271
v 88.91125 0 485.5701
v 105.838 0 492.388
v 88.26305 0 488.4993
v 106.4861 0 489.4588
v 159.0697 0 -254.1148
v 153.265 0 -236.8175
v 156.1078 0 -254.5916
v 156.2268 0 -236.3407
v 105.8359 0 -262.6839
v 100.0432 0 -245.4412
v 102.8683 0 -263.104
v 102.993 0 -244.9098
v 239.3354 0 -421.6356
v 225.2068 0 -433.1845
v 240.8264 0 -424.2389
v 223.7158 0 -430.5813
v 289.6443 0 -509.4774
v 275.5193 0 -521.0243
v 291.1353 0 -512.0807
v 274.0283 0 -518.421
v 501.7883 0 -55.127
v 497.9099 0 -72.99731
v 504.5646 0 -56.2726
v 495.14 0 -71.8543
v 565.139 0 -81.2663
v 561.1141 0 -99.07771
v 567.9153 0 -82.4119
v 558.3442 0 -97.9347
v 302.4337 0 -533.1464
v 287.6316 0 -543.8127
v 303.7635 0 -535.8356
v 286.3022 0 -541.1233
v 312.082 0 -552.6583
v 297.2765 0 -563.3263
v 313.4117 0 -555.3475
v 295.9471 0 -560.6368
v -613.4891 0 170.7538
v -608.0734 0 188.1856
v -616.2111 0 172.1301
v -605.4437 0 186.8493
v 329.6999 0 126.0707
v 345.0793 0 116.2485
v 331.7083 0 128.2992
v 343.0708 0 114.02
v 368.8369 0 169.4954
v 384.2162 0 159.6732
v 370.8455 0 171.7238
v 382.2079 0 157.4447
v -307.9576 0 -19.4566
v -292.2581 0 -10.1546
v -309.0417 0 -16.6593
v -291.174 0 -12.9519
v -340.9919 0 65.7794
v -325.2924 0 75.0813
v -342.076 0 68.5766
v -324.2083 0 72.2841
v 598.0328 0 -99.4468
v 584.0441 0 -111.0808
v 599.5491 0 -102.0354
v 582.5323 0 -108.4895
v 612.3793 0 -123.9409
v 598.3478 0 -135.5998
v 613.8956 0 -126.5295
v 596.8362 0 -133.0085
v -345.8069 0 97.3601
v -327.8102 0 100.3797
v -345.8102 0 100.3601
v -327.8069 0 97.3797
v -345.9093 0 191.6524
v -327.9128 0 194.672
v -345.9127 0 194.6524
v -327.9095 0 191.672
v 383.407 0 187.7435
v 400.5257 0 181.4337
v 384.8932 0 190.3495
v 399.0427 0 178.8259
v 406.6133 0 228.4322
v 423.6803 0 222.1518
v 408.0995 0 231.0381
v 422.1973 0 219.544
v -633.0701 0 205.1968
v -615.335 0 209.4561
v -633.2889 0 208.2314
v -615.1174 0 206.5066
v 413.7034 0 247.1605
v 431.7494 0 245.0698
v 414.5181 0 250.0531
v 430.9366 0 242.1872
v 428.7513 0 300.5861
v 446.7595 0 298.3099
v 429.5661 0 303.4787
v 445.9467 0 295.4274
v -171.4843 0 140.3175
v -153.2678 0 141.3663
v -171.162 0 143.3001
v -153.5885 0 138.3835
v -166.287 0 188.4095
v -148.0976 0 189.4612
v -165.9647 0 191.3922
v -148.4182 0 186.4784
v -161.7431 0 214.6583
v -143.6181 0 212.7909
v -160.9485 0 217.5512
v -144.4139 0 209.8984
v -144.519 0 277.3653
v -126.3672 0 275.4906
v -143.7243 0 280.2582
v -127.1631 0 272.5981
v 440.3993 0 340.6134
v 458.5482 0 342.0086
v 440.6633 0 343.6018
v 458.282 0 339.0205
v 445.7775 0 401.4883
v 463.9704 0 402.8796
v 446.0414 0 404.4767
v 463.7042 0 399.8914
v 385.791 0 -52.4718
v 367.5837 0 -53.694
v 385.4972 0 -55.4574
v 367.8777 0 -50.7084
v 380.2013 0 -109.2554
v 361.9939 0 -110.4776
v 379.9073 0 -112.241
v 362.2878 0 -107.492
v 444.2 0 420.82
v 459.8658 0 430.189
v 443.1349 0 423.5675
v 460.9756 0 427.3445
v -114.5476 0 -281.722
v -120.0302 0 -264.3168
v -117.5183 0 -282.1407
v -117.0596 0 -263.8981
v -187.9152 0 -292.062
v -193.3978 0 -274.6568
v -190.8858 0 -292.4806
v -190.4271 0 -274.2381
v -141.4988 0 295.8289
v -123.3891 0 298.0733
v -141.3734 0 298.8263
v -123.5146 0 295.0759
v -137.5736 0 389.5788
v -119.4639 0 391.8232
v -137.4482 0 392.5762
v -119.5894 0 388.8258
v 55.87115 0 625.6479
v 53.62305 0 643.7306
v 52.87376 0 625.7729
v 56.62045 0 643.6055
v -11.91444 0 628.4764
v -14.16254 0 646.5581
v -14.91184 0 628.6014
v -11.16514 0 646.4331
v 161.2677 0 -70.16811
v 166.0305 0 -87.78391
v 164.2531 0 -69.8719
v 163.0451 0 -88.0801
v 216.6244 0 -64.6752
v 221.3871 0 -82.291
v 219.6096 0 -64.379
v 218.4017 0 -82.5873
v 322.9778 0 -571.6581
v 323.7089 0 -589.8892
v 325.9545 0 -572.0323
v 320.732 0 -589.5172
v 397.8297 0 -581.0714
v 398.5685 0 -599.24
v 400.8062 0 -581.4458
v 395.5916 0 -598.8682
v -406.6172 0 -306.3236
v -411.0656 0 -288.6259
v -409.6072 0 -306.5666
v -408.0755 0 -288.3828
v -524.9866 0 -315.9457
v -529.4351 0 -298.248
v -527.9769 0 -316.1888
v -526.4451 0 -298.0049
v 634.1481 0 -394.1579
v 616.1882 0 -396.938
v 634.1072 0 -397.1703
v 616.2272 0 -393.9509
v 416.848 0 -580.9681
v 421.9146 0 -598.4338
v 419.8275 0 -580.619
v 418.9347 0 -598.7805
v -518.3159 0 489.4327
v -507.5321 0 474.7117
v -515.6373 0 490.7836
v -510.2108 0 473.3608
v -634.1481 0 305.4661
v -615.8906 0 305.7546
v -633.6749 0 308.5335
v -616.3436 0 302.894
v -630.9821 0 325.7664
v -612.7349 0 325.9516
v -630.5189 0 328.7304
v -613.1981 0 322.9875
v -413.3673 0 399.2736
v -420.0277 0 406.0291
v -416.0601 0 397.951
v -417.3351 0 407.3517
v -525.8054 0 344.0478
v -532.4644 0 350.8005
v -528.498 0 342.7252
v -529.7717 0 352.1231
v -542.8929 0 336.5405
v -549.0201 0 343.7794
v -545.6783 0 335.4262
v -546.2346 0 344.8936
v -602.9915 0 312.4973
v -609.1199 0 319.739
v -605.7769 0 311.383
v -606.3345 0 320.8532
v -609.9924 0 204.6155
v -601.4835 0 200.4201
v -607.8829 0 206.7486
v -603.593 0 198.287
v -539.0081 0 276.394
v -530.4993 0 272.1986
v -536.8986 0 278.5271
v -532.6088 0 270.0655
v -494.2278 0 262.319
v -491.9099 0 271.0268
v -494.6517 0 262.4547
v -491.4857 0 270.8911
v -494.3432 0 271.8051
v -497.0851 0 263.233
v -524.1296 0 271.8837
v -524.2451 0 281.3698
v -526.9871 0 272.7977
v -521.3878 0 280.4559
v -416.9236 0 412.4925
v -408.9669 0 428.9149
v -419.3716 0 414.2266
v -406.5187 0 427.1807
v -476.8591 0 454.8966
v -468.8872 0 471.3036
v -479.3102 0 456.6281
v -466.4377 0 469.5732
v -382.6516 0 -309.1234
v -400.656 0 -312.0968
v -382.656 0 -312.1234
v -400.6516 0 -309.0968
v -382.7488 0 -374.9738
v -400.7532 0 -377.9472
v -382.7534 0 -377.9738
v -400.7488 0 -374.9472
v -196.4518 0 -268.3859
v -214.6742 0 -269.2465
v -196.7961 0 -271.3376
v -214.3216 0 -266.2389
v 137.8475 0 -86.35741
v 133.7797 0 -77.787
v 134.8697 0 -86.7208
v 136.7576 0 -77.42371
v -31.94855 0 -107.0748
v -36.01654 0 -98.5044
v -34.92654 0 -107.4382
v -33.03864 0 -98.14111
v -40.07724 0 -111.673
v -48.64764 0 -115.741
v -39.71394 0 -114.6509
v -49.01104 0 -112.763
v -35.54414 0 -148.8259
v -44.84124 0 -146.938
v -44.47784 0 -149.916
v -35.90744 0 -145.848
v -147.7305 0 9.273497
v -144.7305 0 -8.726503
v -144.7305 0 9.273497
v -147.7305 0 -8.726503
v -39.84964 0 9.273497
v -36.84964 0 -8.726503
v -36.84964 0 9.273497
v -39.84964 0 -8.726503
v -17.28444 0 9.273497
v -14.28444 0 -8.726503
v -14.28444 0 9.273497
v -17.28444 0 -8.726503
v 126.2059 0 9.273497
v 129.2059 0 -8.726503
v 129.2059 0 9.273497
v 126.2059 0 -8.726503
v -26.59564 0 -154.2389
v -29.05984 0 -163.4002
v -26.06504 0 -163.2233
v -29.59044 0 -154.4158
v 133.865 0 -144.7631
v 137.3903 0 -153.5706
v 136.8598 0 -144.5862
v 134.3955 0 -153.7474
v -72.00725 0 -237.7937
v -88.36534 0 -229.7438
v -73.75674 0 -240.2307
v -86.61485 0 -227.3074
v -95.31654 0 -270.2642
v -111.6884 0 -262.2045
v -97.06605 0 -272.7013
v -109.9379 0 -259.7681
v 222.0753 0 -60.2224
v 229.1898 0 -53.9467
v 220.9041 0 -57.4605
v 230.3612 0 -56.7086
v 210.6972 0 -33.3916
v 217.8117 0 -27.1159
v 209.5258 0 -30.6297
v 218.983 0 -29.8778
v 158.4692 0 6.052297
v 158.0599 0 -12.1914
v 161.4165 0 5.492497
v 155.1125 0 -11.632
v 204.3598 0 -2.664003
v 203.9515 0 -20.9023
v 207.3071 0 -3.223803
v 201.0041 0 -20.3428
v -30.42534 0 628.172
v -35.47334 0 645.6812
v -33.40534 0 627.8269
v -32.49314 0 646.025
v -91.41495 0 621.1079
v -96.46604 0 638.6433
v -94.39504 0 620.7628
v -93.48575 0 638.9872
v 80.00716 0 497.4983
v 77.43085 0 506.6286
v 77.01045 0 497.6384
v 80.42756 0 506.4885
v 2.058855 0 501.1431
v -0.5174446 0 510.2734
v -0.9378443 0 501.2832
v 2.479256 0 510.1333
v -111.7599 0 517.7003
v -109.3819 0 508.5166
v -108.7669 0 517.4952
v -112.3749 0 508.7216
v -21.25324 0 511.5012
v -18.87524 0 502.3173
v -18.26024 0 511.2962
v -21.86824 0 502.5223
v -550.0217 0 -300.4676
v -533.3287 0 -293.0959
v -550.7659 0 -297.5613
v -532.5845 0 -296.0021
v 632.5098 0 -420.5115
v 614.457 0 -418.4545
v 631.6863 0 -423.3963
v 615.2841 0 -415.5708
v 248.6757 0 -404.5571
v 232.1915 0 -396.7209
v 246.9422 0 -407.0367
v 233.8965 0 -394.2836
v 348.4995 0 -225.1102
v 330.4016 0 -222.8322
v 347.6404 0 -227.9845
v 331.2536 0 -219.9557
v 341.1129 0 -249.8246
v 323.0757 0 -247.5649
v 340.2538 0 -252.699
v 323.9276 0 -244.6884
v 334.7901 0 -265.9426
v 317.8792 0 -259.2651
v 333.243 0 -268.5129
v 319.4292 0 -256.6966
v 354.9231 0 -121.4669
v 355.1662 0 -111.9832
v 352.1023 0 -120.4456
v 357.987 0 -113.0045
v 241.9102 0 -80.5499
v 247.7949 0 -73.1088
v 244.9741 0 -72.0875
v 244.731 0 -81.57121
v -382.0783 0 -399.3934
v -399.9342 0 -403.1573
v -381.9523 0 -402.3908
v -400.062 0 -400.16
v -378.5999 0 -482.1368
v -396.4071 0 -485.8986
v -378.4738 0 -485.1342
v -396.5349 0 -482.9013
v 623.1846 0 -149.921
v 605.5361 0 -154.5608
v 623.46 0 -152.9084
v 605.2607 0 -151.5735
v 385.1042 0 -128.1693
v 381.9745 0 -137.125
v 387.4781 0 -130.0037
v 379.6008 0 -135.2905
v 491.4502 0 -210.3559
v 488.3203 0 -219.3116
v 493.8239 0 -212.1903
v 485.9467 0 -217.4771
v 596.2643 0 -149.1007
v 592.8862 0 -140.2357
v 593.267 0 -149.2277
v 595.8835 0 -140.1088
v 541.72 0 -151.4113
v 538.3417 0 -142.5463
v 538.7228 0 -151.5383
v 541.3392 0 -142.4194
v 491.5253 0 -76.29031
v 485.6854 0 -83.72
v 493.2054 0 -78.7756
v 484.0051 0 -81.2347
v 533.7507 0 -138.7472
v 527.9119 0 -146.179
v 535.431 0 -141.2324
v 526.2316 0 -143.6937
v 536.1454 0 -153.2368
v 526.7338 0 -152.0445
v 534.8466 0 -155.941
v 528.0327 0 -149.3403
v 507.7729 0 -212.307
v 498.3626 0 -211.1154
v 506.4741 0 -215.0112
v 499.6615 0 -208.4112
v 404.6826 0 -575.8969
v 414.0677 0 -574.5116
v 405.2056 0 -572.9429
v 413.5449 0 -577.4656
v 425.4635 0 -458.498
v 434.8484 0 -457.1125
v 425.9864 0 -455.5439
v 434.3255 0 -460.0666
v 432.1501 0 -420.2397
v 440.5199 0 -424.706
v 441.0228 0 -421.7484
v 431.6472 0 -423.1973
v 450.9521 0 -309.6682
v 460.3275 0 -308.2194
v 451.455 0 -306.7107
v 459.8246 0 -311.177
v 342.269 0 -256.4324
v 342.5662 0 -265.9145
v 345.1433 0 -257.2915
v 339.6919 0 -265.0554
v 449.9496 0 -288.6158
v 450.2466 0 -298.098
v 452.8239 0 -289.4749
v 447.3723 0 -297.2389
v -381.4763 0 -515.4885
v -399.6748 0 -515.4261
v -381.9796 0 -518.4449
v -399.1698 0 -512.4679
v -398.905 0 -617.8695
v -417.1624 0 -617.8607
v -399.4084 0 -620.826
v -416.6574 0 -614.9026
v 316.1747 0 561.9818
v 320.8642 0 579.5931
v 313.4423 0 563.2203
v 323.5969 0 578.3553
v 298.7574 0 568.3989
v 300.8473 0 586.5057
v 295.8841 0 569.2278
v 303.7388 0 585.6715
v 84.65346 0 621.2705
v 85.22446 0 639.4812
v 81.72166 0 621.8528
v 88.17776 0 638.8949
v 160.6808 0 146.6408
v 162.4099 0 137.3128
v 163.6521 0 146.2267
v 159.4386 0 137.7269
v 319.2278 0 124.5457
v 320.957 0 115.2178
v 322.1992 0 124.1317
v 317.9857 0 115.6319
v 373.1858 0 179.7585
v 375.0387 0 189.0626
v 370.5799 0 181.2448
v 377.6446 0 187.5763
v 180.6349 0 289.5777
v 182.4879 0 298.8818
v 178.0291 0 291.064
v 185.0938 0 297.3955
v 148.871 0 292.079
v 156.2119 0 286.0696
v 151.4086 0 293.6794
v 153.675 0 284.4684
v 161.8634 0 300.2736
v 169.2014 0 294.2687
v 164.4008 0 301.874
v 166.6645 0 292.6674
v 402.7094 0 239.1492
v 406.5822 0 247.8094
v 400.4987 0 241.1771
v 408.7931 0 245.7815
v 272.761 0 358.3475
v 276.6339 0 367.0078
v 270.5501 0 360.3754
v 278.8447 0 364.9799
v 176.5336 0 310.8946
v 184.466 0 305.7019
v 178.8864 0 312.7559
v 182.1131 0 303.8408
v 252.7547 0 371.1915
v 260.6908 0 365.994
v 255.1075 0 373.0528
v 258.3379 0 364.1329
v 109.4216 0 505.0183
v 111.9264 0 495.868
v 112.4172 0 504.8547
v 108.9308 0 496.0316
v 308.6068 0 560.0461
v 299.2287 0 561.4786
v 307.2392 0 557.3759
v 300.5963 0 564.1488
v 276.1996 0 496.7722
v 266.8216 0 498.2047
v 274.8321 0 494.102
v 268.1891 0 500.8749
v 258.4156 0 496.8811
v 260.9203 0 487.7309
v 261.4112 0 496.7175
v 257.9247 0 487.8945
v -425.1101 0 -637.7292
v -423.742 0 -619.5573
v -428.0296 0 -637.0156
v -420.8334 0 -620.2697
v -468.9962 0 -627.0031
v -467.464 0 -608.8477
v -471.9157 0 -626.2894
v -464.5554 0 -609.5601
v -499.1584 0 -597.5084
v -486.3593 0 -584.3767
v -500.8651 0 -595.0341
v -484.6595 0 -586.8416
v -559.2886 0 -510.3284
v -546.246 0 -497.5366
v -560.9954 0 -507.854
v -544.5461 0 -500.0014
v -567.0768 0 -479.3158
v -549.0878 0 -476.2601
v -567.0873 0 -476.3079
v -549.0771 0 -479.2523
v -565.2584 0 -352.2603
v -547.1536 0 -349.9651
v -565.1392 0 -349.2521
v -547.272 0 -352.9522
v -558.9708 0 -322.5488
v -542.2473 0 -329.8508
v -557.3347 0 -320.0342
v -543.8834 0 -332.3654
v -551.1857 0 -310.5833
v -534.4619 0 -317.8853
v -549.5496 0 -308.0687
v -536.098 0 -320.3999
v -490.6729 0 -456.1356
v -498.2097 0 -450.3742
v -493.155 0 -457.8206
v -495.7276 0 -448.6893
v -536.8552 0 -487.4853
v -544.3923 0 -481.7238
v -539.3375 0 -489.1702
v -541.91 0 -480.0389
v -537.6113 0 -340.0255
v -540.0051 0 -349.2054
v -535.0969 0 -341.6616
v -542.5197 0 -347.5693
v -443.9566 0 -400.9613
v -446.3504 0 -410.1411
v -441.442 0 -402.5974
v -448.865 0 -408.505
v -404.7442 0 -397.8056
v -412.2812 0 -392.0441
v -407.2263 0 -399.4905
v -409.799 0 -390.3592
v -425.3038 0 -411.762
v -432.8409 0 -406.0005
v -427.786 0 -413.4469
v -430.3586 0 -404.3156
v -441.2467 0 -422.5843
v -448.7836 0 -416.8228
v -443.7289 0 -424.2692
v -446.3015 0 -415.1379
v -473.6415 0 -444.5745
v -481.1784 0 -438.813
v -476.1237 0 -446.2594
v -478.6963 0 -437.1281
v -366.2167 0 476.037
v -369.0753 0 493.9265
v -369.2166 0 476.0594
v -366.0753 0 493.902
v -464.1304 0 476.7283
v -467.0096 0 494.7488
v -467.13 0 476.7495
v -464.0093 0 494.7236
v -364.6604 0 337.9431
v -350.941 0 349.9755
v -366.2408 0 340.4931
v -349.3607 0 347.4255
v -402.1548 0 398.4402
v -388.4353 0 410.4725
v -403.7352 0 400.9901
v -386.855 0 407.9226
v -143.9838 0 400.1982
v -143.6782 0 409.6802
v -146.7979 0 401.2381
v -140.8642 0 408.6403
v -240.5537 0 435.883
v -240.2482 0 445.3649
v -243.3678 0 436.9228
v -237.4342 0 444.325
v -257.9326 0 442.3049
v -257.6271 0 451.7868
v -260.7459 0 443.3469
v -254.8131 0 450.747
v -338.186 0 472.0295
v -337.903 0 481.4505
v -340.9992 0 473.0714
v -335.0891 0 480.4107
v -122.0201 0 608.5845
v -133.3554 0 622.8857
v -124.6456 0 607.1331
v -130.73 0 624.3373
v -195.5658 0 567.921
v -206.9007 0 582.2217
v -198.1911 0 566.4694
v -204.2753 0 583.6733
v -199.1834 0 562.104
v -204.7752 0 554.4403
v -197.4435 0 559.6602
v -206.5152 0 556.8842
v -142.0517 0 481.8567
v -147.6435 0 474.193
v -140.3117 0 479.4128
v -149.3834 0 476.6369
v -136.8255 0 411.3702
v -118.7484 0 413.8639
v -136.7413 0 414.369
v -118.8326 0 410.8651
v -135.7484 0 449.743
v -117.6713 0 452.2367
v -135.6642 0 452.7418
v -117.7555 0 449.2379
v -134.869 0 481.0685
v -116.7919 0 483.5622
v -134.7818 0 484.0672
v -116.8761 0 480.5634
v -134.2209 0 503.3587
v -116.1662 0 505.853
v -134.1337 0 506.3574
v -116.2504 0 502.8542
v -339.0804 0 -646.5581
v -341.5783 0 -628.4773
v -342.1559 0 -646.4637
v -338.657 0 -628.5759
v -361.0493 0 -645.7181
v -362.3658 0 -627.5215
v -364.0361 0 -645.438
v -359.3788 0 -627.8
v -395.4111 0 -642.4958
v -396.7296 0 -624.318
v -398.3981 0 -642.2158
v -393.7424 0 -624.5966
v -284.9917 0 -535.9301
v -294.1364 0 -533.4053
v -286.6636 0 -538.4209
v -292.4645 0 -530.9143
v -342.3011 0 -621.316
v -351.4457 0 -618.7914
v -343.9729 0 -623.8069
v -349.7738 0 -616.3004
v -308.7455 0 -299.5648
v -317.3338 0 -303.5946
v -308.3954 0 -302.5442
v -317.6839 0 -300.6151
v -298.664 0 -385.3547
v -307.2523 0 -389.3845
v -298.3139 0 -388.3342
v -307.6024 0 -386.405
v -295.7539 0 -410.1199
v -304.3423 0 -414.1498
v -295.4038 0 -413.0994
v -304.6924 0 -411.1703
v -282.8188 0 -520.1945
v -291.4071 0 -524.2245
v -282.4687 0 -523.174
v -291.7572 0 -521.245
v 291.5956 0 -585.4413
v 291.1905 0 -567.198
v 288.6265 0 -585.0115
v 294.1599 0 -567.6254
v 173.042 0 -568.2805
v 172.6233 0 -550.1318
v 170.0729 0 -567.8508
v 175.5927 0 -550.5592
v 161.1465 0 -568.385
v 155.4344 0 -551.1534
v 158.2005 0 -568.8413
v 158.4178 0 -550.6925
v 3.456056 0 -600.6694
v -4.858745 0 -584.4363
v 0.6376553 0 -601.5748
v -1.963645 0 -583.5095
v -15.41744 0 -606.5714
v -23.16814 0 -590.0527
v -18.30605 0 -607.3811
v -20.27974 0 -589.2422
v -72.20114 0 -622.4878
v -79.94775 0 -605.9843
v -75.08984 0 -623.2975
v -77.05924 0 -605.1738
v -92.51305 0 -627.2657
v -98.11455 0 -609.9171
v -95.48094 0 -627.7032
v -95.14694 0 -609.4777
v -172.5678 0 -639.0674
v -178.1618 0 -621.7697
v -175.5358 0 -639.5049
v -175.1941 0 -621.3302
v -195.8148 0 -639.7877
v -196.9191 0 -621.6436
v -198.7988 0 -639.4781
v -193.9356 0 -621.958
v -202.3036 0 -297.0713
v -211.0924 0 -300.6428
v -202.111 0 -300.0651
v -211.285 0 -297.649
v -194.4009 0 -419.9221
v -203.1897 0 -423.4937
v -194.2083 0 -422.9159
v -203.3823 0 -420.4999
v -193.0332 0 -441.1837
v -201.8221 0 -444.7552
v -192.8406 0 -444.1775
v -202.0146 0 -441.7614
v -187.5221 0 -526.8561
v -196.3109 0 -530.4276
v -187.3295 0 -529.8499
v -196.5035 0 -527.4338
v -186.3539 0 -545.0155
v -195.1428 0 -548.5872
v -186.1613 0 -548.0093
v -195.3354 0 -545.5933
v -181.8384 0 -615.2104
v -190.6273 0 -618.7819
v -181.6458 0 -618.2042
v -190.8199 0 -615.7881
v 160.9255 0 -547.2703
v 169.363 0 -542.9335
v 160.4682 0 -544.3054
v 169.8203 0 -545.8984
v 149.9297 0 -475.9764
v 158.3674 0 -471.6396
v 149.4725 0 -473.0114
v 158.8246 0 -474.6045
v 219.5022 0 -429.5411
v 212.1403 0 -423.5576
v 216.971 0 -431.1513
v 214.6715 0 -421.9474
v 162.1015 0 -466.0567
v 154.7395 0 -460.0732
v 159.5703 0 -467.6669
v 157.2708 0 -458.463
v -440.873 0 -143.0195
v -427.9268 0 -155.8814
v -438.437 0 -141.2686
v -430.3629 0 -157.6323
v -354.949 0 -81.26241
v -342.0253 0 -94.0959
v -352.4933 0 -79.5417
v -344.4388 0 -95.87521
v -344.399 0 -69.8065
v -328.696 0 -78.9613
v -342.4839 0 -67.49731
v -330.6138 0 -81.2681
v -309.3069 0 -27.4932
v -293.5511 0 -36.6919
v -307.3918 0 -25.1841
v -295.4691 0 -38.9987
v -193.0201 0 -131.77
v -193.5943 0 -122.3006
v -195.9184 0 -130.9953
v -190.696 0 -123.0753
v -328.5076 0 -95.5537
v -329.0818 0 -86.0843
v -331.4059 0 -94.779
v -326.1835 0 -86.859
v -452.8213 0 -145.7525
v -451.3945 0 -163.945
v -449.8326 0 -146.0129
v -454.3832 0 -163.6846
v -52.57264 0 -110.1837
v -57.26635 0 -101.9394
v -55.51534 0 -110.7674
v -54.32375 0 -101.3557
v -160.3961 0 -131.5709
v -165.09 0 -123.3266
v -163.3389 0 -132.1546
v -162.1472 0 -122.7429
v -172.2578 0 -139.7385
v -190.4718 0 -138.5817
v -172.9367 0 -142.6413
v -189.7853 0 -135.6419
v -186.4319 0 -117.2071
v -168.1852 0 -116.9646
v -185.978 0 -114.2416
v -168.639 0 -119.9301
v -171.2617 0 -18.0803
v -153.015 0 -17.8378
v -170.8078 0 -15.1148
v -153.4689 0 -20.8033
v -377.3361 0 -381.4296
v -375.8788 0 -390.8038
v -374.3781 0 -381.9298
v -378.8367 0 -390.3036
v -313.69 0 -392.1924
v -312.2328 0 -401.5667
v -310.7321 0 -392.6927
v -315.1907 0 -401.0665
v -529.8069 0 334.5798
v -538.5795 0 330.9684
v -529.6008 0 331.5869
v -538.7858 0 333.9613
v -526.5302 0 287.014
v -535.3029 0 283.4026
v -526.324 0 284.0211
v -535.509 0 286.3955
v 258.8864 0 383.4584
v 268.0201 0 386.0223
v 259.0305 0 386.4549
v 267.8759 0 383.0258
v 263.6091 0 481.5946
v 272.7429 0 484.1585
v 263.7533 0 484.5911
v 272.5987 0 481.162
v -382.0158 0 -285.9269
v -377.0056 0 -303.4739
v -379.0349 0 -285.5892
v -379.9864 0 -303.8122
v -326.1111 0 -279.5936
v -321.1021 0 -297.1304
v -323.1302 0 -279.2559
v -324.0829 0 -297.4686
v -306.0809 0 -278.2278
v -302.8113 0 -296.1699
v -303.0812 0 -278.1825
v -305.8109 0 -296.215
v -221.1935 0 -276.9434
v -217.9236 0 -294.896
v -218.1938 0 -276.898
v -220.9233 0 -294.941
v -279.7794 0 -525.8098
v -277.6646 0 -535.0579
v -276.7935 0 -526.1001
v -280.6505 0 -534.7675
v -202.581 0 -533.3158
v -200.4661 0 -542.5638
v -199.5951 0 -533.6061
v -203.452 0 -542.2736
v 295.3759 0 -513.1035
v 307.7135 0 -526.5492
v 297.8898 0 -511.4662
v 305.1996 0 -528.1864
v 409.0573 0 -439.0614
v 421.395 0 -452.5072
v 411.5712 0 -437.4241
v 418.8812 0 -454.1444
v 457.1323 0 -287.6864
v 466.4698 0 -289.3625
v 458.5688 0 -285.0527
v 465.0331 0 -291.9962
v 489.9563 0 -227.5124
v 499.2924 0 -229.1879
v 491.3929 0 -224.8788
v 497.856 0 -231.8216
v 470.2386 0 -298.9424
v 467.4684 0 -308.0158
v 472.6837 0 -300.6808
v 465.0235 0 -306.2774
v 609.0051 0 -397.6056
v 606.2349 0 -406.679
v 611.4501 0 -399.3441
v 603.7899 0 -404.9406
v 140.1261 0 -69.7262
v 157.6302 0 -64.56821
v 139.7626 0 -66.7482
v 157.9936 0 -67.5461
v 134.071 0 -20.1007
v 151.5751 0 -14.9427
v 133.7077 0 -17.1228
v 151.9385 0 -17.9206
v 158.6764 0 -232.7048
v 175.5405 0 -225.7404
v 158.0028 0 -229.7814
v 176.2168 0 -228.6632
v 141.6445 0 -158.7868
v 158.4397 0 -151.8383
v 140.9709 0 -155.8634
v 159.116 0 -154.7611
v 180.0031 0 -231.7347
v 186.968 0 -248.6015
v 182.9265 0 -231.0611
v 184.0447 0 -249.2751
v 320.7406 0 -199.3064
v 327.7056 0 -216.1732
v 323.6639 0 -198.6328
v 324.7822 0 -216.8468
v -150.4712 0 135.0642
v -147.0704 0 126.2078
v -147.4743 0 135.1988
v -150.0674 0 126.0732
v -14.51864 0 141.171
v -11.11784 0 132.3147
v -11.52174 0 141.3056
v -14.11484 0 132.18
v -6.141145 0 145.4686
v 2.949256 0 148.1825
v -6.046245 0 148.4671
v 2.854356 0 145.184
v -2.130445 0 272.2154
v 6.959955 0 274.9292
v -2.035544 0 275.2139
v 6.865055 0 271.9307
v 11.16805 0 404.2169
v 14.20465 0 395.2291
v 14.16805 0 404.2291
v 11.20465 0 395.2169
v 100.1051 0 404.5786
v 103.1417 0 395.5909
v 103.1051 0 404.5909
v 100.1417 0 395.5787
v -1.727745 0 290.2778
v 7.299656 0 293.1944
v -1.700045 0 293.2777
v 7.271856 0 290.1945
v -0.8122444 0 389.1283
v 8.215155 0 392.0449
v -0.7845449 0 392.1282
v 8.187355 0 389.045
v -1.737744 0 407.5274
v 6.816656 0 411.6289
v -2.112744 0 410.5038
v 7.191656 0 408.6524
v -12.60884 0 493.8099
v -4.054444 0 497.9115
v -12.98384 0 496.7864
v -3.679444 0 494.935
v 132.2027 0 12.1318
v 150.3242 0 14.2784
v 132.3443 0 15.1283
v 150.1824 0 11.2816
v 137.9057 0 132.7392
v 156.0278 0 134.8973
v 138.0473 0 135.7357
v 155.8861 0 131.9005
v -29.08604 0 14.4468
v -19.69154 0 15.7672
v -28.54274 0 17.3972
v -20.23484 0 12.8168
v -8.576144 0 125.824
v 0.8183556 0 127.1445
v -8.032845 0 128.7744
v 0.2750559 0 124.1941
v -168.7195 0 11.5935
v -150.8261 0 15.1748
v -168.8167 0 14.592
v -150.729 0 12.1764
v -172.0986 0 115.8932
v -154.2051 0 119.4745
v -172.1957 0 118.8917
v -154.108 0 116.4761
v -347.2459 0 502.5183
v -335.7388 0 488.3554
v -344.6382 0 504.0015
v -338.3464 0 486.8722
v -222.898 0 573.2472
v -211.3909 0 559.0845
v -220.2903 0 574.7303
v -213.9986 0 557.6012
v -288.8719 0 -398.4221
v -288.9619 0 -407.9084
v -286.035 0 -399.3977
v -291.7989 0 -406.9328
v -209.9961 0 -425.5476
v -210.086 0 -435.034
v -207.1592 0 -426.5232
v -212.9229 0 -434.0583
v -102.1488 0 -284.0024
v -110.9613 0 -287.5151
v -101.9763 0 -286.9974
v -111.1339 0 -284.5201
v -94.79814 0 -411.5781
v -103.6106 0 -415.0908
v -94.62554 0 -414.5731
v -103.7832 0 -412.0958
v -93.58634 0 -432.6092
v -102.3988 0 -436.122
v -93.41374 0 -435.6043
v -102.5714 0 -433.127
v -83.92574 0 -600.2733
v -92.73834 0 -603.7861
v -83.75324 0 -603.2684
v -92.91084 0 -600.791
v -190.6258 0 -428.969
v -186.5147 0 -437.5189
v -187.6498 0 -428.5907
v -189.4908 0 -437.8972
v -110.2302 0 -418.7484
v -106.1191 0 -427.2982
v -107.2542 0 -418.37
v -109.0951 0 -427.6765
v -1.496745 0 -460.8538
v -10.66104 0 -463.3064
v -1.677444 0 -463.8484
v -10.48044 0 -460.3119
v -8.588744 0 -578.4044
v -17.75304 0 -580.8571
v -8.769444 0 -581.399
v -17.57244 0 -577.8624
v -86.79424 0 -421.0533
v -86.79624 0 -430.5401
v -83.94845 0 -422.0025
v -89.64204 0 -429.5908
v -12.96354 0 -445.6801
v -12.96544 0 -455.167
v -10.11764 0 -446.6293
v -15.81134 0 -454.2177
v -405.5012 0 -284.3619
v -389.6275 0 -275.3604
v -406.5318 0 -281.5446
v -388.5968 0 -278.1778
v -447.302 0 -170.1
v -431.4286 0 -161.0985
v -448.3327 0 -167.2827
v -430.3979 0 -163.9159
v -347.1374 0 225.1842
v -329.6884 0 230.5258
v -347.532 0 228.1582
v -329.2937 0 227.5519
v -359.5858 0 318.9999
v -342.1368 0 324.3415
v -359.9804 0 321.9739
v -341.7422 0 321.3676
v -364.4037 0 324.206
v -371.3781 0 330.6369
v -367.0303 0 322.7567
v -368.7514 0 332.0862
v -470.0794 0 265.9
v -476.6891 0 272.5322
v -472.3412 0 264.6521
v -474.4273 0 273.7801
v -477.054 0 272.3308
v -472.7062 0 264.4507
v -74.85934 0 -207.3697
v -57.61205 0 -213.2752
v -73.43455 0 -204.7296
v -59.03775 0 -215.9148
v -48.78514 0 -159.0556
v -31.52264 0 -164.9693
v -47.36034 0 -156.4156
v -32.94824 0 -167.609
v -56.87054 0 -220.303
v -56.74274 0 -238.5509
v -53.90834 0 -220.7778
v -59.70535 0 -238.0784
v 86.58325 0 -243.2923
v 86.72855 0 -261.4311
v 89.54556 0 -243.767
v 83.76595 0 -260.9586
v -48.19794 0 -93.4448
v -38.81394 0 -92.05151
v -47.67754 0 -90.4903
v -39.33434 0 -95.0061
v -34.41554 0 -15.2014
v -25.03154 0 -13.8082
v -33.89504 0 -12.2469
v -25.55194 0 -16.7627
v 469.5739 0 304.0288
v 453.3867 0 295.5273
v 470.4794 0 301.168
v 452.4813 0 298.3866
v 588.1044 0 -70.4285
v 571.9081 0 -78.7255
v 589.0101 0 -73.28941
v 571.0024 0 -75.8661
v 397.7291 0 161.7469
v 390.2863 0 155.8642
v 398.7497 0 158.9258
v 389.2659 0 158.6852
v 467.6143 0 -31.4387
v 460.1716 0 -37.3213
v 468.6349 0 -34.2597
v 459.1511 0 -34.5002
v 340.8506 0 106.8987
v 322.68 0 108.5814
v 340.0867 0 103.9976
v 323.444 0 111.4825
v 310.1027 0 -9.862503
v 291.9322 0 -8.179803
v 309.3387 0 -12.7636
v 292.6962 0 -5.278703
v 222.9895 0 -5.090003
v 223.8988 0 -23.3094
v 225.9696 0 -5.435003
v 220.9188 0 -22.9646
v 285.1183 0 -12.2816
v 286.028 0 -30.499
v 288.0984 0 -12.6266
v 283.0479 0 -30.1542
v 311.644 0 -16.4678
v 311.0112 0 -34.6976
v 314.5842 0 -17.0638
v 308.071 0 -34.1014
v 366.2885 0 -27.5438
v 365.6548 0 -45.7776
v 369.2288 0 -28.1398
v 362.7147 0 -45.1814
v -486.3208 0 144.311
v -487.546 0 126.1354
v -483.4434 0 143.6393
v -490.5103 0 126.8321
v -454.1927 0 151.3366
v -441.8748 0 137.8728
v -451.6763 0 152.9701
v -444.3911 0 136.2392
v -362.864 0 210.6291
v -350.5462 0 197.1654
v -360.3477 0 212.2627
v -353.0625 0 195.5318
v -443.8403 0 130.9253
v -447.5327 0 113.0756
v -441.0426 0 129.8423
v -450.3301 0 114.1591
v -352.6877 0 95.642
v -356.3875 0 77.7728
v -349.89 0 94.5591
v -359.1851 0 78.8563
v 339.1587 0 -193.5054
v 357.2641 0 -195.7855
v 340.0178 0 -190.631
v 356.405 0 -198.6599
v 356.7867 0 -134.525
v 374.892 0 -136.8051
v 357.6458 0 -131.6506
v 374.0329 0 -139.6795
v 276.1272 0 380.9478
v 280.9604 0 372.7845
v 279.0594 0 381.5815
v 278.0282 0 372.1509
v 437.5864 0 415.8384
v 442.4196 0 407.6752
v 440.5188 0 416.4721
v 439.4874 0 407.0415
v -132.1967 0 524.415
v -113.975 0 524.178
v -131.6653 0 527.3676
v -114.5073 0 521.2256
v -118.1475 0 602.4742
v -99.90185 0 602.2329
v -117.6161 0 605.4268
v -100.4341 0 599.2805
v -15.07274 0 514.6125
v -6.448545 0 518.5653
v -15.39614 0 517.5951
v -6.125144 0 515.5826
v -26.64355 0 621.328
v -18.01944 0 625.2806
v -26.96694 0 624.3105
v -17.69604 0 622.2982
v 83.49805 0 510.1279
v 100.4374 0 516.9147
v 82.85535 0 513.0583
v 101.0802 0 513.9843
v 61.26746 0 611.4807
v 78.20666 0 618.2676
v 60.62466 0 614.4111
v 78.84946 0 615.3372
v -4.165645 0 -440.7667
v 5.188955 0 -442.3447
v -2.756744 0 -438.1181
v 3.780055 0 -444.9933
v 87.49576 0 -268.4511
v 96.85046 0 -270.0292
v 88.90466 0 -265.8026
v 95.44156 0 -272.6778
v 146.7639 0 -470.4796
v 144.5437 0 -461.2562
v 143.7747 0 -470.2234
v 147.5328 0 -461.5125
v 8.392555 0 -458.6147
v 6.172456 0 -449.3913
v 5.403456 0 -458.3584
v 9.161455 0 -449.6476
v -480.0509 0 149.3883
v -462.4854 0 154.3329
v -480.3781 0 152.3704
v -462.1584 0 151.3508
v -491.8047 0 256.5523
v -474.239 0 261.4969
v -492.1317 0 259.5344
v -473.912 0 258.5147
v -147.1661 0 284.2552
v -148.0885 0 293.6971
v -150.0909 0 284.9227
v -145.1637 0 293.0296
v -250.9895 0 307.9489
v -251.9119 0 317.3908
v -253.9144 0 308.6164
v -248.9872 0 316.7234
v -272.3163 0 312.8161
v -273.2387 0 322.258
v -275.2411 0 313.4836
v -270.3139 0 321.5905
v -335.606 0 327.2595
v -336.5283 0 336.7014
v -338.5307 0 327.927
v -333.6035 0 336.0339
v -247.3949 0 434.3861
v -256.6335 0 432.2309
v -247.6721 0 431.3989
v -256.3563 0 435.218
v -257.4204 0 326.3932
v -266.6592 0 324.238
v -257.6978 0 323.4061
v -266.382 0 327.2252
v -168.7162 0 194.7056
v -170.3205 0 212.8832
v -171.7074 0 194.9368
v -167.3295 0 212.6521
v -242.4104 0 200.4001
v -244.0147 0 218.5777
v -245.4016 0 200.6312
v -241.0237 0 218.3466
v -263.8741 0 202.0586
v -265.4785 0 220.2362
v -266.8651 0 202.2897
v -262.4874 0 220.0051
v -321.7004 0 206.5269
v -323.3048 0 224.7046
v -324.6916 0 206.7581
v -320.3138 0 224.4735
v -257.57 0 305.4247
v -266.2675 0 301.6361
v -257.3032 0 302.4366
v -266.5343 0 304.6242
v -250.5706 0 227.0517
v -259.2681 0 223.263
v -250.3037 0 224.0636
v -259.5349 0 226.2511
v -176.0281 0 121.6763
v -181.4118 0 129.4875
v -178.9099 0 120.8423
v -178.5302 0 130.3214
v -236.4441 0 104.1918
v -241.8279 0 112.0031
v -239.3259 0 103.3578
v -238.946 0 112.837
v -254.1812 0 99.0587
v -259.5649 0 106.87
v -257.0629 0 98.22469
v -256.6832 0 107.7039
v -318.5825 0 80.4209
v -323.9662 0 88.2322
v -321.4642 0 79.5869
v -321.0844 0 89.0662
v -248.6307 0 197.5325
v -257.5173 0 194.2116
v -248.5231 0 194.5344
v -257.6249 0 197.2096
v -245.7675 0 117.7752
v -254.654 0 114.4543
v -245.6599 0 114.7772
v -254.7617 0 117.4524
v -479.2438 0 -584.9935
v -470.4326 0 -581.7823
v -479.4294 0 -582.0055
v -470.2464 0 -584.7828
v -482.4409 0 -533.4729
v -473.2686 0 -536.0476
v -473.4508 0 -533.0474
v -482.2588 0 -536.4615
v -483.6122 0 -508.73
v -474.7643 0 -505.3078
v -483.7541 0 -505.7334
v -474.6224 0 -508.3044
v -485.8495 0 -461.4726
v -477.0014 0 -458.0503
v -485.9913 0 -458.4759
v -476.8596 0 -461.047
v -403.0063 0 -509.0948
v -411.1494 0 -492.764
v -405.8745 0 -509.9739
v -408.281 0 -491.8848
v -462.6035 0 -527.3615
v -470.7466 0 -511.0309
v -465.4718 0 -528.2406
v -467.8784 0 -510.1518
v 5.987556 0 142.0921
v 9.388355 0 133.2358
v 8.984455 0 142.2268
v 6.391356 0 133.1012
v 53.65586 0 144.2333
v 57.05666 0 135.377
v 56.65276 0 144.368
v 54.05965 0 135.2424
v 71.73816 0 145.0456
v 75.13905 0 136.1893
v 74.73515 0 145.1802
v 72.14205 0 136.0547
v 131.5152 0 147.7307
v 134.9161 0 138.8744
v 134.5122 0 147.8653
v 131.9191 0 138.7398
v 10.20406 0 286.9768
v 13.02756 0 277.9127
v 13.20395 0 286.911
v 10.02886 0 277.9785
v 62.72176 0 285.8234
v 65.52396 0 276.7598
v 65.72166 0 285.7575
v 62.52535 0 276.8257
v 80.73576 0 285.4278
v 83.53735 0 276.364
v 83.73505 0 285.3619
v 80.53815 0 276.4299
v 121.078 0 284.5418
v 123.8796 0 275.4782
v 124.0773 0 284.476
v 120.8804 0 275.544
v 59.63345 0 148.8893
v 68.82275 0 151.2468
v 59.84515 0 151.8818
v 68.61105 0 148.2543
v 68.23895 0 270.5564
v 77.42815 0 272.9139
v 68.45065 0 273.5489
v 77.21655 0 269.9214
v -120.671 0 289.8512
v -117.8694 0 280.7876
v -117.6717 0 289.7854
v -120.8687 0 280.8535
v -72.74965 0 288.7989
v -69.94804 0 279.7352
v -69.75034 0 288.733
v -72.94724 0 279.801
v -54.73824 0 288.4032
v -51.93584 0 279.3395
v -51.73964 0 288.3373
v -54.93584 0 279.4054
v -7.792145 0 287.3722
v -4.968245 0 278.308
v -4.793545 0 287.3063
v -7.968144 0 278.3739
v -115.9362 0 403.7
v -112.8996 0 394.7122
v -112.9362 0 403.7122
v -115.8995 0 394.7
v -75.12624 0 403.866
v -72.08965 0 394.8783
v -72.12624 0 403.8782
v -75.08965 0 394.8661
v -57.12344 0 403.9392
v -54.08685 0 394.9514
v -54.12344 0 403.9514
v -57.08685 0 394.9392
v -7.702044 0 404.1402
v -4.665444 0 395.1524
v -4.702044 0 404.1524
v -7.665444 0 395.1402
v -66.68535 0 291.804
v -57.75964 0 295.0181
v -66.75705 0 294.8031
v -57.68795 0 292.019
v -68.99954 0 388.6534
v -60.07375 0 391.8676
v -69.07114 0 391.6526
v -60.00214 0 388.8684
vt 0 1.125
vt 1 -1.125
vt 1 1.125
vt 0 -1.125
vt 0 1.125
vt 1 -1.125
vt 1 1.125
vt 0 -1.125
vt 0 1.125
vt 1.00293 -1.124023
vt 0.9960938 1.125
vt 0.007896423 -1.125
vt -0.003898621 2.248047
vt 1 0.0005998611
vt 0.9916992 2.248047
vt 0.003898621 0
vt -0.0006999969 2.248047
vt 1 0.0005998611
vt 0.9755859 2.248047
vt 0.001699448 0
vt 0 1.125
vt 1 -1.125
vt 1 1.125
vt 0 -1.125
vt 0 1.125
vt 1 -1.125
vt 1 1.125
vt 0 -1.125
vt 0 1.125
vt 1 -1.125
vt 1 1.125
vt 0 -1.125
vt 0 2.25
vt 1 0
vt 1 2.25
vt 0 0
vt 0.000199914 1.125
vt 0.9995117 -1.125
vt 1 1.125
vt -9.995699E-05 -1.125
vt 0.000199914 1.125
vt 0.9995117 -1.125
vt 1 1.125
vt -0.000199914 -1.125
vt 0.03109741 2.248047
vt 0.9975586 0
vt 1.001953 2.248047
vt 0 0.0005998611
vt 0 2.25
vt 1 0
vt 1 2.25
vt 0 0
vt 0 1.125
vt 1 -1.125
vt 1 1.125
vt 0 -1.125
vt 0.002698898 1.125
vt 0.9941406 -1.125
vt 1 1.125
vt -0.002698898 -1.125
vt 0.002698898 1.125
vt 0.9941406 -1.117188
vt 1 1.117188
vt -0.002698898 -1.123047
vt 0 1.125
vt 1 -1.125
vt 1 1.125
vt 0 -1.125
vt 0 2.25
vt 1 0
vt 1 2.25
vt 0 0
vt 0 1.125
vt 1.033203 -1.125
vt 0.9663086 1.125
vt 0.0690918 -1.125
vt 0 1.125
vt 1.009766 -1.125
vt 0.9892578 1.125
vt 0.02308655 -1.125
vt 0 2.25
vt 1 0
vt 1 2.25
vt 0 0
vt 0 2.25
vt 1 0
vt 1 2.25
vt 0 0
vt 0 1.125
vt 0.9931641 -1.125
vt 1 1.125
vt 0.02479553 -1.124023
vt 0 1.125
vt 1 -1.125
vt 1 1.125
vt 0 -1.125
vt 0 2.25
vt 1 0
vt 1 2.25
vt 0 0
vt 0 2.25
vt 1 0
vt 1 2.25
vt 0 0
vt 0 1.125
vt 1 -1.125
vt 1 1.125
vt 0 -1.125
vt 0.004699707 1.125
vt 0.9902344 -1.125
vt 1 1.125
vt -0.004699707 -1.124023
vt 0.004699707 1.125
vt 0.9902344 -1.125
vt 1 1.125
vt -0.004699707 -1.124023
vt 0 2.25
vt 1 0
vt 1 2.25
vt 0 0
vt 0 1.125
vt 1 -1.125
vt 1 1.125
vt 0 -1.125
vt 0 2.248047
vt 1 0.0005998611
vt 1 2.248047
vt 0 0
vt 0 2.248047
vt 1 0.0005998611
vt 1 2.248047
vt 0 0
vt 0 1.125
vt 0.9775391 -1.124023
vt 1 1.125
vt 0.004299164 -1.125
vt 0.01719666 1.125
vt 0.9619141 -1.125
vt 1 1.125
vt -0.01719666 -1.125
vt 0.04418945 1.125
vt 0.9082031 -1.125
vt 1 1.125
vt -0.04418945 -1.125
vt 0 2.248047
vt 1 0.0002999306
vt 1 2.248047
vt 0 0
vt 0 2.248047
vt 1 0.0002999306
vt 1 2.248047
vt 0 0
vt 0 2.248047
vt 1 0
vt 1 2.25
vt 0 9.995699E-05
vt 0 1.125
vt 1 -1.125
vt 1 1.125
vt 0 -1.125
vt 0.001998901 1.125
vt 0.9956055 -1.125
vt 1 1.125
vt -0.001998901 -1.124023
vt 0.001998901 1.125
vt 0.9956055 -1.125
vt 1 1.125
vt -0.001998901 -1.124023
vt 0 2.25
vt 1 0
vt 1 2.25
vt 0 0
vt 0 2.25
vt 1 0
vt 1 2.25
vt 0 0
vt -0.001499176 2.248047
vt 1 0.0008997917
vt 0.9619141 2.248047
vt 0.002998352 0
vt 0 1.125
vt 1 -1.125
vt 1 1.125
vt 0 -1.125
vt 0 1.125
vt 1 -1.125
vt 1 1.125
vt 0 -1.125
vt 0 2.25
vt 1 0
vt 1 2.25
vt 0 0
vt 0 1.125
vt 1 -1.125
vt 1 1.125
vt 0 -1.125
vt 0 2.25
vt 1 0
vt 1 2.25
vt 0 0
vt 0 2.25
vt 1 0
vt 1 2.25
vt 0 0
vt 0 2.25
vt 1 0
vt 1 2.25
vt 0 0
vt 0 1.125
vt 1 -1.125
vt 1 1.125
vt 0 -1.125
vt 0 1.125
vt 1 -1.124023
vt 1 1.125
vt 0 -1.125
vt 0 2.248047
vt 1 0.0002999306
vt 1 2.248047
vt 0 0
vt 0 1.125
vt 1 -1.125
vt 1 1.125
vt 0 -1.125
vt 0 1.125
vt 1 -1.125
vt 1 1.125
vt 0 -1.125
vt 0 1.125
vt 1.000977 -1.124023
vt 0.9980469 1.125
vt 0.01099396 -1.125
vt 0 2.248047
vt 1 0
vt 1 2.248047
vt 0 0.0002999306
vt 0 2.25
vt 1 0
vt 1 2.25
vt 0 0
vt 0 1.125
vt 0.9868164 -1.125
vt 1 1.125
vt 0.05108643 -1.123047
vt 0 2.25
vt 1 0
vt 1 2.25
vt 0 0
vt 0 1.125
vt 1 0
vt 1 1.125
vt 0 0
vt 0 1.125
vt 1 0
vt 1 1.125
vt 0 0
vt 0 1.125
vt 1 0
vt 1 1.125
vt 0 0
vt 0 1.125
vt 1 0
vt 1 1.125
vt 0 0
vt 0 1.125
vt 1 0
vt 1 1.125
vt 0 0
vt 0 1.125
vt 1 0
vt 1 1.125
vt 0 0
vt 0 1.25
vt 0.1485596 0
vt 0.1483154 1.25
vt 0.000199914 0
vt 1 0
vt 0.9995117 1.25
vt 0 1.25
vt 1 0
vt 0.9995117 1.25
vt 0.000199914 0
vt 0 2.25
vt 1 0
vt 1 2.25
vt 0 0
vt 0.006599426 1.125
vt 0.9858398 -1.125
vt 1 1.125
vt -0.006599426 -1.125
vt 0 2.25
vt 1 0
vt 1 2.25
vt 0 0
vt 0 2.25
vt 1 0
vt 1 2.25
vt 0 0
vt 0.01939392 2.248047
vt 0.9990234 0
vt 1 2.248047
vt 0 0.0002999306
vt 0 1.125
vt 1 0
vt 1 1.125
vt 0 0
vt 0 1.125
vt 1 0
vt 1 1.125
vt 0 0
vt 0 1.125
vt 1 0
vt 1 1.125
vt 0 0
vt 1 1.25
vt 0 0
vt 1 0
vt 0 1.25
vt 0 1.125
vt 1 -1.125
vt 1 1.125
vt 0 -1.125
vt 0 1.125
vt 1 -1.125
vt 1 1.125
vt 0 -1.125
vt 0 1.125
vt 1 -1.125
vt 1 1.125
vt 0 -1.125
vt 0 1.125
vt 1 -1.125
vt 1 1.125
vt 0 -1.125
vt 1 1.25
vt 0 0
vt 1 0
vt 0 1.25
vt 0 1.25
vt 1 0
vt 1 1.25
vt 0 0
vt 0 1.125
vt 1 -1.125
vt 1 1.125
vt 0 -1.125
vt 0 2.248047
vt 1 0
vt 1 2.25
vt 0 9.995699E-05
vt 0 1.25
vt 1 0
vt 1 1.25
vt 0 0
vt 0 1.25
vt 1 0
vt 1 1.25
vt 0 0
vt 0 1.125
vt 1 -1.125
vt 0.9995117 1.125
vt 0.0006999969 -1.125
vt -0.0002999306 2.25
vt 1 0
vt 0.9990234 2.25
vt 0.0002999306 0
vt 0 1.125
vt 1 -1.125
vt 1 1.125
vt 0 -1.125
vt 0 2.248047
vt 1 0
vt 1 2.25
vt 0 9.995699E-05
vt 0 1.125
vt 1 0
vt 1 1.125
vt 0 0
vt 0 1.25
vt 1 0
vt 1 1.25
vt 0 0
vt 0 1.125
vt 1 0
vt 1 1.125
vt 0 0
vt 0 1.125
vt 1 0
vt 1 1.125
vt 0 0
vt 0 2.25
vt 1 0
vt 1 2.25
vt 0 0
vt 0.006896973 2.248047
vt 0.9960938 0
vt 1.00293 2.248047
vt 0 0.0004997253
vt 0 1.125
vt 0.9980469 -1.125
vt 1 1.125
vt 0.01469421 -1.124023
vt 0 1.125
vt 1 -1.124023
vt 1 1.125
vt 0 -1.125
vt 0 2.248047
vt 1 0.0009994507
vt 1 2.248047
vt 0 0
vt 0 1.125
vt 1 -1.124023
vt 1 1.125
vt 0 -1.124023
vt 0 1.125
vt 1 0
vt 1 1.125
vt 0 0
vt 1 1.25
vt 0 0
vt 1 0
vt 0 1.25
vt 0 1.125
vt 1.000977 -1.124023
vt 0.9980469 1.125
vt 0.003198624 -1.125
vt -0.001599312 2.248047
vt 1 0.0002999306
vt 0.996582 2.248047
vt 0.001599312 0
vt 0 1.125
vt 1 -1.125
vt 1 1.125
vt 0 -1.125
vt 0 1.25
vt 1 0
vt 1 1.25
vt 0 0
vt 0 1.25
vt 1 0
vt 1 1.25
vt 0 0
vt 0 1.25
vt 1 0
vt 1 1.25
vt 0 0
vt 0 1.25
vt 1 0
vt 1 1.25
vt 0 0
vt 0.03717041 1.125
vt 0.9628906 0
vt 1 1.125
vt 0 0
vt 0.03637695 1.125
vt 0.9633789 0
vt 1 1.125
vt 0 0
vt 0 1.25
vt 1 0
vt 1 1.25
vt 0 0
vt 0 1.125
vt 1 0
vt 1 1.125
vt 0 0
vt 0 1.125
vt 1 0
vt 1 1.125
vt 0 0
vt 0 1.125
vt 1 0
vt 1 1.125
vt 0 0
vt 1 1.125
vt 0 0
vt 1 0
vt 0 1.125
vt 0 1.25
vt 1 0
vt 1 1.25
vt 0 0
vt 0 1.125
vt 1 0
vt 1 1.125
vt 0 0
vt 0 1.25
vt 1 0
vt 1 1.25
vt 0 0
vt 0.002599716 2.248047
vt 0.9985352 0
vt 1.000977 2.248047
vt 0 0.0002999306
vt -0.00819397 2.248047
vt 1 0
vt 0.9829102 2.248047
vt 0.00819397 0.000199914
vt 0 2.25
vt 1 9.995699E-05
vt 1 2.248047
vt 0 0
vt 9.995699E-05 2.25
vt 1 0
vt 0.9936523 2.25
vt 0.000199914 0
vt 0.007297516 2.25
vt 0.9995117 0
vt 1 2.25
vt 0 0
vt 0 1.25
vt 1 0
vt 1 1.25
vt 0 0
vt 0 1.25
vt 1 0
vt 1 1.25
vt 0 0
vt 0 1.125
vt 1 0
vt 1 1.125
vt 0 0
vt 0 1.125
vt 1 0
vt 1 1.125
vt 0 0
vt 0 1.125
vt 1 9.995699E-05
vt 0.9985352 1.125
vt 0.0009994507 0
vt 0 1.125
vt 1 9.995699E-05
vt 0.9985352 1.125
vt 0.0009994507 0
vt 0 1.125
vt 1 0
vt 1 1.125
vt 0 0
vt 0 1.125
vt 1 0
vt 1 1.125
vt 0 0
vt 0.000199914 1.125
vt 0.9995117 0
vt 1 1.125
vt 0 0
vt 0.000199914 1.25
vt 0.9995117 0
vt 1 1.25
vt 0 0
vt 0 1.25
vt 1 0
vt 1 1.25
vt 0 0
vt 0 1.25
vt 1 0
vt 1 1.25
vt 0 0
vt 0 1.125
vt 1 0
vt 1 1.125
vt 0 0
vt 0 1.25
vt 1 0
vt 1 1.25
vt 0 0
vt 0.001399994 1.125
vt 0.9936523 -1.125
vt 1 1.125
vt -0.001399994 -1.125
vt 0.02558899 1.125
vt 0.9448242 -1.125
vt 1 1.125
vt -0.02558899 -1.125
vt 0 1.125
vt 1.075195 -1.125
vt 0.9238281 1.125
vt 0.1546631 -1.125
vt 0 1.125
vt 1.017578 -1.125
vt 0.9819336 1.125
vt 0.03918457 -1.125
vt 0 1.125
vt 0.9946289 -1.125
vt 1 1.125
vt 0 -1.125
vt 0 1.125
vt 0.9990234 -1.125
vt 1 1.125
vt 0.006099701 -1.125
vt 0 2.25
vt 1 0
vt 1 2.25
vt 0 0
vt 0 2.25
vt 1 0
vt 1 2.25
vt 0 0
vt 0 1.125
vt 1 0
vt 1 1.125
vt 0 0
vt 0 1.125
vt 1 0
vt 1 1.125
vt 0 0
vt 0 1.25
vt 1 0
vt 1 1.25
vt 0 0
vt 0 1.125
vt 1 0
vt 1 1.125
vt 0 0
vt 0 1.125
vt 1 0
vt 1 1.125
vt 0 0
vt 0 1.125
vt 1 0
vt 1 1.125
vt 0 0
vt 0 1.25
vt 1 0
vt 1 1.25
vt 0 0
vt 0 1.125
vt 1 0
vt 1 1.125
vt 0 0
vt 0.0002999306 2.248047
vt 1 0
vt 1 2.25
vt 0 9.995699E-05
vt -0.003198624 2.248047
vt 1 0
vt 0.9931641 2.25
vt 0.003198624 0.000199914
vt 0 2.25
vt 1 0
vt 1 2.25
vt 0 0
vt 0 1.125
vt 1 -1.125
vt 1 1.125
vt 0 -1.125
vt 0 1.25
vt 1 0
vt 1 1.25
vt 0 0
vt 0 1.25
vt 1 0
vt 1 1.25
vt 0 0
vt 0 1.125
vt 1 0.0002999306
vt 0.9975586 1.125
vt 0.002298355 0
vt 0 1.125
vt 1 0.0002999306
vt 0.9975586 1.125
vt 0.002199173 0
vt 0 1.125
vt 1 -1.125
vt 1 1.125
vt 0 -1.125
vt 0 2.25
vt 1 0
vt 1 2.25
vt 0 0
vt 0 1.125
vt 1 0
vt 1 1.125
vt 0 0
vt 0 1.25
vt 1 0
vt 1 1.25
vt 0 0
vt 0 1.125
vt 1 -1.125
vt 1 1.125
vt 0 -1.125
vt 0 1.125
vt 1 -1.125
vt 1 1.125
vt 0 -1.125
vt 0 1.125
vt 1.001953 -1.124023
vt 0.9970703 1.125
vt 0.005496979 -1.125
vt -0.002799988 2.248047
vt 1 0.000399828
vt 0.9941406 2.248047
vt 0.002698898 0
vt 0 1.125
vt 0.9897461 -1.125
vt 1 1.125
vt 0.03799438 -1.123047
vt 0 1.125
vt 1.000977 -1.124023
vt 0.9980469 1.125
vt 0.002998352 -1.125
vt -0.001499176 2.248047
vt 1 0.0002999306
vt 0.996582 2.248047
vt 0.001499176 0
vt 0 1.125
vt 1 0
vt 1 1.125
vt 0 0
vt 0 1.125
vt 1 0
vt 1 1.125
vt 0 0
vt 0 1.125
vt 1 0
vt 1 1.125
vt 0 0
vt 0 1.125
vt 1 0
vt 1 1.125
vt 0 0
vt 0 1.125
vt 1 0
vt 1 1.125
vt 0 0
vt 0 1.25
vt 1 0
vt 1 1.25
vt 0 0
vt 0 1.125
vt 1.001953 -1.124023
vt 0.9975586 1.125
vt 0.004299164 -1.125
vt -0.002298355 2.248047
vt 1 0.0002999306
vt 0.9951172 2.248047
vt 0.002199173 0
vt 0.003898621 2.248047
vt 1 0
vt 0.9916992 2.25
vt 0 9.995699E-05
vt 0.02778625 2.248047
vt 0.9985352 0
vt 1.000977 2.248047
vt 0 0.000399828
vt 0 1.125
vt 1 -1.124023
vt 0.9990234 1.125
vt 0.001499176 -1.125
vt 0 1.125
vt 1 -1.124023
vt 0.9990234 1.125
vt 0.001499176 -1.125
vt -0.001699448 2.248047
vt 1 0.0002999306
vt 0.9960938 2.248047
vt 0.001699448 0
vt -0.001699448 2.248047
vt 1 0.0002999306
vt 0.9960938 2.248047
vt 0.001699448 0
vt 0.004398346 1.125
vt 0.9907227 -1.125
vt 1 1.125
vt -0.004398346 -1.124023
vt 0 1.125
vt 1 0
vt 1 1.125
vt 0 0
vt 0 1.25
vt 1 0
vt 1 1.25
vt 0 0
vt 0 1.25
vt 1 0
vt 1 1.25
vt 0 0
vt 0 1.25
vt 1 0
vt 1 1.25
vt 0 0
vt 0 1.25
vt 1 0
vt 1 1.25
vt 0 0
vt 0 1.125
vt 1 0
vt 1 1.125
vt 0 0
vt 0 1.125
vt 1 0
vt 1 1.125
vt 0 0
vt 0 1.125
vt 1 0
vt 1 1.125
vt 0 0
vt 0 1.25
vt 1 0
vt 1 1.25
vt 0 0
vt 0 1.25
vt 1 0
vt 1 1.25
vt 0 0
vt 0 1.125
vt 1 -1.125
vt 0.9990234 1.125
vt 0.001799583 -1.125
vt 0 1.125
vt 1 -1.119141
vt 0.9990234 1.119141
vt 0.001799583 -1.124023
vt 0.003499985 1.125
vt 0.9926758 -1.124023
vt 1 1.125
vt -0.003499985 -1.124023
vt 0.003499985 1.125
vt 0.9926758 -1.124023
vt 1 1.125
vt -0.003499985 -1.124023
vt 0 1.25
vt 1 0
vt 1 1.25
vt 0 0
vt 0 1.25
vt 1 0
vt 1 1.25
vt 0 0
vt 0 2.25
vt 1 0
vt 1 2.25
vt 0 0
vt 0 1.125
vt 1 0
vt 1 1.125
vt 0 0
vt 0 1.125
vt 1 0
vt 1 1.125
vt 0 0
vt 0 2.25
vt 1 9.995699E-05
vt 0.9873047 2.248047
vt 0.0004997253 0
vt 0 2.25
vt 1 0
vt 1 2.25
vt 0 0
vt 0 2.25
vt 1 0
vt 1 2.25
vt 0 0
vt 0 1.25
vt 1 0
vt 1 1.25
vt 0 0
vt 0 1.25
vt 1 0
vt 1 1.25
vt 0 0
vt 0 1.25
vt 1 0
vt 1 1.25
vt 0 0
vt 0 1.25
vt 1 0
vt 1 1.25
vt 0 0
vt 0 1.125
vt 1 0
vt 1 1.125
vt 0 0
vt 0 1.25
vt 1 0
vt 1 1.25
vt 0 0
vt -0.0004997253 2.25
vt 1 0
vt 0.9985352 2.25
vt 0.0004997253 0
vt 0 1.125
vt 1 -1.125
vt 0.9990234 1.125
vt 0.0009994507 -1.125
vt 0.0006999969 2.25
vt 0.9995117 0
vt 1 2.25
vt 0 0
vt 0.0006999969 2.25
vt 0.9995117 0
vt 1 2.25
vt 0 0
vt 0 1.25
vt 1 0
vt 1 1.25
vt 0 0
vt 0 1.25
vt 1 0
vt 1 1.25
vt 0 0
vt 0 1.125
vt 1 -1.125
vt 1 1.125
vt 0 -1.125
vt 0 1.125
vt 1 -1.125
vt 1 1.125
vt 0 -1.125
vt 0 1.125
vt 1 0
vt 1 1.125
vt 0 0
vt 0 1.125
vt 1 0
vt 1 1.125
vt 0 0
vt 0 1.125
vt 1 0
vt 1 1.125
vt 0 0
vt 0 1.25
vt 1 0
vt 1 1.25
vt 0 0
vt 0 1.125
vt 1 -1.125
vt 1 1.125
vt 0 -1.125
vt 0 1.125
vt 1 -1.125
vt 1 1.125
vt 0 -1.125
vt 0 2.248047
vt 1 0.000399828
vt 1 2.248047
vt 0 0
vt 0 1.125
vt 1 -1.124023
vt 1 1.125
vt 0 -1.125
vt 0 2.25
vt 1 0
vt 1 2.25
vt 0 0
vt 0 2.25
vt 1 0
vt 1 2.25
vt 0 0
vt 0 1.25
vt 1 0
vt 1 1.25
vt 0 0
vt 0 1.25
vt 1 0
vt 1 1.25
vt 0 0
vt 0 1.125
vt 1 0
vt 1 1.125
vt 0 0
vt 0 1.125
vt 1 0
vt 1 1.125
vt 0 0
vt 0 1.25
vt 1 0
vt 1 1.25
vt 0 0
vt 0 1.25
vt 1 0
vt 1 1.25
vt 0 0
vt 0 1.125
vt 1 0
vt 1 1.125
vt 0 0
vt 0 1.25
vt 1 0
vt 1 1.25
vt 0 0
vt 0 1.125
vt 1 0
vt 1 1.125
vt 0 0
vt 0 1.125
vt 1 0
vt 1 1.125
vt 0 0
vt 0 2.25
vt 1 0
vt 1 2.25
vt 0 0
vt -0.001699448 2.25
vt 1 0
vt 0.9960938 2.25
vt 0.001699448 0
vt 0 1.25
vt 1 0
vt 1 1.25
vt 0 0
vt 0 1.25
vt 1 0
vt 1 1.25
vt 0 0
vt 0 2.25
vt 1 0
vt 1 2.25
vt 0 0
vt 0 1.125
vt 1 -1.125
vt 1 1.125
vt 0 -1.125
vt 0 2.25
vt 1 0
vt 1 2.25
vt 0 0
vt 0 2.25
vt 1 0
vt 1 2.25
vt 0 0
vt 0 1.125
vt 1 0
vt 1 1.125
vt 0 0
vt 0 1.125
vt 1 0
vt 1 1.125
vt 0 0
vt 0 1.125
vt 1 0
vt 1 1.125
vt 0 0
vt 0 1.125
vt 1 0
vt 1 1.125
vt 0 0
vt 0 1.125
vt 1 0
vt 1 1.125
vt 0 0
vt 0 1.125
vt 1 0
vt 1 1.125
vt 0 0
vt 0 1.25
vt 1 0
vt 1 1.25
vt 0 0
vt 0 1.25
vt 1 0
vt 1 1.25
vt 0 0
vt 0 1.125
vt 1 0
vt 1 1.125
vt 0 0
vt 0 1.25
vt 1 0
vt 1 1.25
vt 0 0
vt 0 1.125
vt 1 0
vt 1 1.125
vt 0 0
vt 0 1.25
vt 1 0
vt 1 1.25
vt 0 0
vt 0 2.25
vt 1 0
vt 1 2.25
vt 0 0
vt 0 2.25
vt 1 0
vt 1 2.25
vt 0 0
vt 0 1.125
vt 1 -1.125
vt 1 1.125
vt 0 -1.125
vt 0 2.25
vt 1 0
vt 1 2.25
vt 0 0
vt 0 1.25
vt 1 0
vt 1 1.25
vt 0 0
vt 0 1.125
vt 0.8608398 0
vt 0.8608398 1.125
vt 0 0
vt 1 0
vt 1 1.125
vt 0.0008997917 1.125
vt 0.9980469 -1.125
vt 1 1.125
vt -0.0008997917 -1.125
vt 0.0008997917 1.125
vt 0.9980469 -1.125
vt 1 1.125
vt -0.0008997917 -1.125
vt 0 1.125
vt 1.001953 -1.124023
vt 0.9975586 1.125
vt 0.004299164 -1.125
vt -0.002099991 2.248047
vt 1 0.0002999306
vt 0.9956055 2.248047
vt 0.002199173 0
vt 0 1.125
vt 1 0
vt 1 1.125
vt 0 0
vt 0 1.25
vt 1 0
vt 1 1.25
vt 0 0
vt 0 1.125
vt 1.032227 -1.125
vt 0.9672852 1.125
vt 0.06524658 -1.125
vt 0 1.125
vt 1.00293 -1.125
vt 0.996582 1.125
vt 0.006999969 -1.125
vt 0 1.125
vt 1 0
vt 1 1.125
vt 0 0
vt 0 1.25
vt 1 0
vt 1 1.25
vt 0 0
vt 0 1.125
vt 1 -1.125
vt 1 1.125
vt 0 -1.125
vt 0 2.25
vt 1 0
vt 1 2.25
vt 0 0
vt 0.0002999306 2.25
vt 0.9995117 0
vt 1 2.25
vt 0 0
vt 0.000199914 1.125
vt 0.9995117 -1.125
vt 1 1.125
vt -0.000199914 -1.125
vt -0.000199914 2.25
vt 1 0
vt 0.9995117 2.25
vt 0.000199914 0
vt 0 1.125
vt 1 -1.125
vt 0.9995117 1.125
vt 0.0002999306 -1.125
vt 0.03329468 2.248047
vt 0.9970703 0
vt 1.001953 2.248047
vt 0 0.0005998611
vt 0 1.125
vt 1 -1.125
vt 1 1.125
vt 0 -1.125
vt 0 2.25
vt 1 0
vt 1 2.25
vt 0 0
vt 0 2.25
vt 1 0
vt 1 2.25
vt 0 0
vt 0 1.125
vt 1 -1.125
vt 1 1.125
vt 0 -1.125
vt 0 1.125
vt 1 -1.125
vt 1 1.125
vt 0 -1.125
vt 0 1.125
vt 1 -1.125
vt 1 1.125
vt 0 -1.125
vt 0 1.25
vt 1 0
vt 1 1.25
vt 0 0
vt 0 1.125
vt 1 0
vt 1 1.125
vt 0 0
vt 0.001699448 2.248047
vt 0.9990234 0
vt 1 2.25
vt 0 9.995699E-05
vt 0.0008997917 1.125
vt 0.9980469 -1.125
vt 1 1.125
vt -0.0008997917 -1.125
vt 0 1.125
vt 1 0
vt 1 1.125
vt 0 0
vt 0 1.125
vt 1 0
vt 1 1.125
vt 0 0
vt 0 2.25
vt 1 0
vt 1 2.25
vt 0 0
vt 0 2.25
vt 1 0
vt 1 2.25
vt 0 0
vt 0 1.125
vt 1 0
vt 1 1.125
vt 0 0
vt 0 1.25
vt 1 0
vt 1 1.25
vt 0 0
vt 0 1.25
vt 1 0
vt 1 1.25
vt 0 0
vt 0 1.25
vt 1 0
vt 1 1.25
vt 0 0
vt 0 1.125
vt 1 -1.125
vt 1 1.125
vt 0 -1.125
vt 0 1.125
vt 1 -1.125
vt 1 1.125
vt 0 -1.125
vt 0 1.25
vt 1 0
vt 1 1.25
vt 0 0
vt 0 1.25
vt 1 0
vt 1 1.25
vt 0 0
vt 0 1.25
vt 1 0
vt 1 1.25
vt 0 0
vt 0 1.25
vt 1 0
vt 1 1.25
vt 0 0
vt 0 1.125
vt 1 0
vt 1 1.125
vt 0 0
vt 0 1.25
vt 1 0
vt 1 1.25
vt 0 0
vt 0 1.125
vt 1 -1.125
vt 1 1.125
vt 0 -1.125
vt 0 1.125
vt 1 -1.125
vt 1 1.125
vt 0 -1.125
vt 0 2.25
vt 1 0
vt 1 2.25
vt 0 0
vt 0 1.125
vt 1 -1.125
vt 1 1.125
vt 0 -1.125
vt 0 1.125
vt 1 0
vt 1 1.125
vt 0 0
vt 0 1.125
vt 1 0
vt 1 1.125
vt 0 0
vt 0 1.125
vt 1 0
vt 1 1.125
vt 0 0
vt 0 1.125
vt 1 0
vt 1 1.125
vt 0 0
vt 0 1.125
vt 1 0
vt 1 1.125
vt 0 0
vt 0 1.125
vt 1 0
vt 1 1.125
vt 0 0
vt 0 1.125
vt 1 0
vt 1 1.125
vt 0 0
vt 0 1.125
vt 1 0
vt 1 1.125
vt 0 0
vt 0.1039429 1.125
vt 0.8994141 0
vt 1 1.125
vt 0 0
vt 1 1.249023
vt 0 0.0005998611
vt 0.9575195 0
vt 0.04589844 1.25
vt 0 1.125
vt 1 0
vt 1 1.125
vt 0 0
vt 0 1.125
vt 1 0
vt 1 1.125
vt 0 0
vt 0 1.125
vt 1 -1.125
vt 1 1.125
vt 0 -1.125
vt 0 1.125
vt 1 -1.125
vt 1 1.125
vt 0 -1.125
vt 0 1.25
vt 1 0
vt 1 1.25
vt 0 0
vt 0 1.125
vt 1 0
vt 1 1.125
vt 0 0
vt 0 1.25
vt 1 0
vt 1 1.25
vt 0 0
vt 0 1.25
vt 1 0
vt 1 1.25
vt 0 0
vt 0 1.25
vt 1 0
vt 0.9926758 1.25
vt 0.007396698 0
vt 0 1.125
vt 1 0
vt 1 1.125
vt 0.0002999306 0
vt 0 1.25
vt 1 0
vt 1 1.25
vt 0 0
vt 0 1.25
vt 1 0
vt 1 1.25
vt 0 0
vt 0 1.125
vt 1 0
vt 1 1.125
vt 0 0
vt 0 1.125
vt 1 0
vt 1 1.125
vt 0 0
vt 0 1.125
vt 1 0
vt 1 1.125
vt 0 0
vt 0 1.25
vt 1 0
vt 1 1.25
vt 0 0
vt 0 1.125
vt 1 0
vt 0.9990234 1.125
vt 0 0
vt 0 1.125
vt 1 0
vt 0.9921875 1.125
vt 0.007099152 0
vt 0 1.25
vt 1 0
vt 1 1.25
vt 0 0
vt 0 1.125
vt 1 0
vt 1 1.125
vt 0 0
vt 0 1.25
vt 1 0
vt 1 1.25
vt 0 0
vt 0 1.25
vt 1 0
vt 1 1.25
vt 0 0
vt 0 1.125
vt 1 0
vt 1 1.125
vt 0 0
vt 0 1.125
vt 1 0
vt 1 1.125
vt 0 0
vn 0 1 0
vn 0 1 0
vn 0 1 0
vn 0 1 0
vn 0 1 0
vn 0 1 0
vn 0 1 0
vn 0 1 0
vn 0 1 0
vn 0 1 0
vn 0 1 0
vn 0 1 0
vn 0 1 0
vn 0 1 0
vn 0 1 0
vn 0 1 0
vn 0 1 0
vn 0 1 0
vn 0 1 0
vn 0 1 0
vn 0 1 0
vn 0 1 0
vn 0 1 0
vn 0 1 0
vn 0 1 0
vn 0 1 0
vn 0 1 0
vn 0 1 0
vn 0 1 0
vn 0 1 0
vn 0 1 0
vn 0 1 0
vn 0 1 0
vn 0 1 0
vn 0 1 0
vn 0 1 0
vn 0 1 0
vn 0 1 0
vn 0 1 0
vn 0 1 0
vn 0 1 0
vn 0 1 0
vn 0 1 0
vn 0 1 0
vn 0 1 0
vn 0 1 0
vn 0 1 0
vn 0 1 0
vn 0 1 0
vn 0 1 0
vn 0 1 0
vn 0 1 0
vn 0 1 0
vn 0 1 0
vn 0 1 0
vn 0 1 0
vn 0 1 0
vn 0 1 0
vn 0 1 0
vn 0 1 0
vn 0 1 0
vn 0 1 0
vn 0 1 0
vn 0 1 0
vn 0 1 0
vn 0 1 0
vn 0 1 0
vn 0 1 0
vn 0 1 0
vn 0 1 0
vn 0 1 0
vn 0 1 0
vn 0 1 0
vn 0 1 0
vn 0 1 0
vn 0 1 0
vn 0 1 0
vn 0 1 0
vn 0 1 0
vn 0 1 0
vn 0 1 0
vn 0 1 0
vn 0 1 0
vn 0 1 0
vn 0 1 0
vn 0 1 0
vn 0 1 0
vn 0 1 0
vn 0 1 0
vn 0 1 0
vn 0 1 0
vn 0 1 0
vn 0 1 0
vn 0 1 0
vn 0 1 0
vn 0 1 0
vn 0 1 0
vn 0 1 0
vn 0 1 0
vn 0 1 0
vn 0 1 0
vn 0 1 0
vn 0 1 0
vn 0 1 0
vn 0 1 0
vn 0 1 0
vn 0 1 0
vn 0 1 0
vn 0 1 0
vn 0 1 0
vn 0 1 0
vn 0 1 0
vn 0 1 0
vn 0 1 0
vn 0 1 0
vn 0 1 0
vn 0 1 0
vn 0 1 0
vn 0 1 0
vn 0 1 0
vn 0 1 0
vn 0 1 0
vn 0 1 0
vn 0 1 0
vn 0 1 0
vn 0 1 0
vn 0 1 0
vn 0 1 0
vn 0 1 0
vn 0 1 0
vn 0 1 0
vn 0 1 0
vn 0 1 0
vn 0 1 0
vn 0 1 0
vn 0 1 0
vn 0 1 0
vn 0 1 0
vn 0 1 0
vn 0 1 0
vn 0 1 0
vn 0 1 0
vn 0 1 0
vn 0 1 0
vn 0 1 0
vn 0 1 0
vn 0 1 0
vn 0 1 0
vn 0 1 0
vn 0 1 0
vn 0 1 0
vn 0 1 0
vn 0 1 0
vn 0 1 0
vn 0 1 0
vn 0 1 0
vn 0 1 0
vn 0 1 0
vn 0 1 0
vn 0 1 0
vn 0 1 0
vn 0 1 0
vn 0 1 0
vn 0 1 0
vn 0 1 0
vn 0 1 0
vn 0 1 0
vn 0 1 0
vn 0 1 0
vn 0 1 0
vn 0 1 0
vn 0 1 0
vn 0 1 0
vn 0 1 0
vn 0 1 0
vn 0 1 0
vn 0 1 0
vn 0 1 0
vn 0 1 0
vn 0 1 0
vn 0 1 0
vn 0 1 0
vn 0 1 0
vn 0 1 0
vn 0 1 0
vn 0 1 0
vn 0 1 0
vn 0 1 0
vn 0 1 0
vn 0 1 0
vn 0 1 0
vn 0 1 0
vn 0 1 0
vn 0 1 0
vn 0 1 0
vn 0 1 0
vn 0 1 0
vn 0 1 0
vn 0 1 0
vn 0 1 0
vn 0 1 0
vn 0 1 0
vn 0 1 0
vn 0 1 0
vn 0 1 0
vn 0 1 0
vn 0 1 0
vn 0 1 0
vn 0 1 0
vn 0 1 0
vn 0 1 0
vn 0 1 0
vn 0 1 0
vn 0 1 0
vn 0 1 0
vn 0 1 0
vn 0 1 0
vn 0 1 0
vn 0 1 0
vn 0 1 0
vn 0 1 0
vn 0 1 0
vn 0 1 0
vn 0 1 0
vn 0 1 0
vn 0 1 0
vn 0 1 0
vn 0 1 0
vn 0 1 0
vn 0 1 0
vn 0 1 0
vn 0 1 0
vn 0 1 0
vn 0 1 0
vn 0 1 0
vn 0 1 0
vn 0 1 0
vn 0 1 0
vn 0 1 0
vn 0 1 0
vn 0 1 0
vn 0 1 0
vn 0 1 0
vn 0 1 0
vn 0 1 0
vn 0 1 0
vn 0 1 0
vn 0 1 0
vn 0 1 0
vn 0 1 0
vn 0 1 0
vn 0 1 0
vn 0 1 0
vn 0 1 0
vn 0 1 0
vn 0 1 0
vn 0 1 0
vn 0 1 0
vn 0 1 0
vn 0 1 0
vn 0 1 0
vn 0 1 0
vn 0 1 0
vn 0 1 0
vn 0 1 0
vn 0 1 0
vn 0 1 0
vn 0 1 0
vn 0 1 0
vn 0 1 0
vn 0 1 0
vn 0 1 0
vn 0 1 0
vn 0 1 0
vn 0 1 0
vn 0 1 0
vn 0 1 0
vn 0 1 0
vn 0 1 0
vn 0 1 0
vn 0 1 0
vn 0 1 0
vn 0 1 0
vn 0 1 0
vn 0 1 0
vn 0 1 0
vn 0 1 0
vn 0 1 0
vn 0 1 0
vn 0 1 0
vn 0 1 0
vn 0 1 0
vn 0 1 0
vn 0 1 0
vn 0 1 0
vn 0 1 0
vn 0 1 0
vn 0 1 0
vn 0 1 0
vn 0 1 0
vn 0 1 0
vn 0 1 0
vn 0 1 0
vn 0 1 0
vn 0 1 0
vn 0 1 0
vn 0 1 0
vn 0 1 0
vn 0 1 0
vn 0 1 0
vn 0 1 0
vn 0 1 0
vn 0 1 0
vn 0 1 0
vn 0 1 0
vn 0 1 0
vn 0 1 0
vn 0 1 0
vn 0 1 0
vn 0 1 0
vn 0 1 0
vn 0 1 0
vn 0 1 0
vn 0 1 0
vn 0 1 0
vn 0 1 0
vn 0 1 0
vn 0 1 0
vn 0 1 0
vn 0 1 0
vn 0 1 0
vn 0 1 0
vn 0 1 0
vn 0 1 0
vn 0 1 0
vn 0 1 0
vn 0 1 0
vn 0 1 0
vn 0 1 0
vn 0 1 0
vn 0 1 0
vn 0 1 0
vn 0 1 0
vn 0 1 0
vn 0 1 0
vn 0 1 0
vn 0 1 0
vn 0 1 0
vn 0 1 0
vn 0 1 0
vn 0 1 0
vn 0 1 0
vn 0 1 0
vn 0 1 0
vn 0 1 0
vn 0 1 0
vn 0 1 0
vn 0 1 0
vn 0 1 0
vn 0 1 0
vn 0 1 0
vn 0 1 0
vn 0 1 0
vn 0 1 0
vn 0 1 0
vn 0 1 0
vn 0 1 0
vn 0 1 0
vn 0 1 0
vn 0 1 0
vn 0 1 0
vn 0 1 0
vn 0 1 0
vn 0 1 0
vn 0 1 0
vn 0 1 0
vn 0 1 0
vn 0 1 0
vn 0 1 0
vn 0 1 0
vn 0 1 0
vn 0 1 0
vn 0 1 0
vn 0 1 0
vn 0 1 0
vn 0 1 0
vn 0 1 0
vn 0 1 0
vn 0 1 0
vn 0 1 0
vn 0 1 0
vn 0 1 0
vn 0 1 0
vn 0 1 0
vn 0 1 0
vn 0 1 0
vn 0 1 0
vn 0 1 0
vn 0 1 0
vn 0 1 0
vn 0 1 0
vn 0 1 0
vn 0 1 0
vn 0 1 0
vn 0 1 0
vn 0 1 0
vn 0 1 0
vn 0 1 0
vn 0 1 0
vn 0 1 0
vn 0 1 0
vn 0 1 0
vn 0 1 0
vn 0 1 0
vn 0 1 0
vn 0 1 0
vn 0 1 0
vn 0 1 0
vn 0 1 0
vn 0 1 0
vn 0 1 0
vn 0 1 0
vn 0 1 0
vn 0 1 0
vn 0 1 0
vn 0 1 0
vn 0 1 0
vn 0 1 0
vn 0 1 0
vn 0 1 0
vn 0 1 0
vn 0 1 0
vn 0 1 0
vn 0 1 0
vn 0 1 0
vn 0 1 0
vn 0 1 0
vn 0 1 0
vn 0 1 0
vn 0 1 0
vn 0 1 0
vn 0 1 0
vn 0 1 0
vn 0 1 0
vn 0 1 0
vn 0 1 0
vn 0 1 0
vn 0 1 0
vn 0 1 0
vn 0 1 0
vn 0 1 0
vn 0 1 0
vn 0 1 0
vn 0 1 0
vn 0 1 0
vn 0 1 0
vn 0 1 0
vn 0 1 0
vn 0 1 0
vn 0 1 0
vn 0 1 0
vn 0 1 0
vn 0 1 0
vn 0 1 0
vn 0 1 0
vn 0 1 0
vn 0 1 0
vn 0 1 0
vn 0 1 0
vn 0 1 0
vn 0 1 0
vn 0 1 0
vn 0 1 0
vn 0 1 0
vn 0 1 0
vn 0 1 0
vn 0 1 0
vn 0 1 0
vn 0 1 0
vn 0 1 0
vn 0 1 0
vn 0 1 0
vn 0 1 0
vn 0 1 0
vn 0 1 0
vn 0 1 0
vn 0 1 0
vn 0 1 0
vn 0 1 0
vn 0 1 0
vn 0 1 0
vn 0 1 0
vn 0 1 0
vn 0 1 0
vn 0 1 0
vn 0 1 0
vn 0 1 0
vn 0 1 0
vn 0 1 0
vn 0 1 0
vn 0 1 0
vn 0 1 0
vn 0 1 0
vn 0 1 0
vn 0 1 0
vn 0 1 0
vn 0 1 0
vn 0 1 0
vn 0 1 0
vn 0 1 0
vn 0 1 0
vn 0 1 0
vn 0 1 0
vn 0 1 0
vn 0 1 0
vn 0 1 0
vn 0 1 0
vn 0 1 0
vn 0 1 0
vn 0 1 0
vn 0 1 0
vn 0 1 0
vn 0 1 0
vn 0 1 0
vn 0 1 0
vn 0 1 0
vn 0 1 0
vn 0 1 0
vn 0 1 0
vn 0 1 0
vn 0 1 0
vn 0 1 0
vn 0 1 0
vn 0 1 0
vn 0 1 0
vn 0 1 0
vn 0 1 0
vn 0 1 0
vn 0 1 0
vn 0 1 0
vn 0 1 0
vn 0 1 0
vn 0 1 0
vn 0 1 0
vn 0 1 0
vn 0 1 0
vn 0 1 0
vn 0 1 0
vn 0 1 0
vn 0 1 0
vn 0 1 0
vn 0 1 0
vn 0 1 0
vn 0 1 0
vn 0 1 0
vn 0 1 0
vn 0 1 0
vn 0 1 0
vn 0 1 0
vn 0 1 0
vn 0 1 0
vn 0 1 0
vn 0 1 0
vn 0 1 0
vn 0 1 0
vn 0 1 0
vn 0 1 0
vn 0 1 0
vn 0 1 0
vn 0 1 0
vn 0 1 0
vn 0 1 0
vn 0 1 0
vn 0 1 0
vn 0 1 0
vn 0 1 0
vn 0 1 0
vn 0 1 0
vn 0 1 0
vn 0 1 0
vn 0 1 0
vn 0 1 0
vn 0 1 0
vn 0 1 0
vn 0 1 0
vn 0 1 0
vn 0 1 0
vn 0 1 0
vn 0 1 0
vn 0 1 0
vn 0 1 0
vn 0 1 0
vn 0 1 0
vn 0 1 0
vn 0 1 0
vn 0 1 0
vn 0 1 0
vn 0 1 0
vn 0 1 0
vn 0 1 0
vn 0 1 0
vn 0 1 0
vn 0 1 0
vn 0 1 0
vn 0 1 0
vn 0 1 0
vn 0 1 0
vn 0 1 0
vn 0 1 0
vn 0 1 0
vn 0 1 0
vn 0 1 0
vn 0 1 0
vn 0 1 0
vn 0 1 0
vn 0 1 0
vn 0 1 0
vn 0 1 0
vn 0 1 0
vn 0 1 0
vn 0 1 0
vn 0 1 0
vn 0 1 0
vn 0 1 0
vn 0 1 0
vn 0 1 0
vn 0 1 0
vn 0 1 0
vn 0 1 0
vn 0 1 0
vn 0 1 0
vn 0 1 0
vn 0 1 0
vn 0 1 0
vn 0 1 0
vn 0 1 0
vn 0 1 0
vn 0 1 0
vn 0 1 0
vn 0 1 0
vn 0 1 0
vn 0 1 0
vn 0 1 0
vn 0 1 0
vn 0 1 0
vn 0 1 0
vn 0 1 0
vn 0 1 0
vn 0 1 0
vn 0 1 0
vn 0 1 0
vn 0 1 0
vn 0 1 0
vn 0 1 0
vn 0 1 0
vn 0 1 0
vn 0 1 0
vn 0 1 0
vn 0 1 0
vn 0 1 0
vn 0 1 0
vn 0 1 0
vn 0 1 0
vn 0 1 0
vn 0 1 0
vn 0 1 0
vn 0 1 0
vn 0 1 0
vn 0 1 0
vn 0 1 0
vn 0 1 0
vn 0 1 0
vn 0 1 0
vn 0 1 0
vn 0 1 0
vn 0 1 0
vn 0 1 0
vn 0 1 0
vn 0 1 0
vn 0 1 0
vn 0 1 0
vn 0 1 0
vn 0 1 0
vn 0 1 0
vn 0 1 0
vn 0 1 0
vn 0 1 0
vn 0 1 0
vn 0 1 0
vn 0 1 0
vn 0 1 0
vn 0 1 0
vn 0 1 0
vn 0 1 0
vn 0 1 0
vn 0 1 0
vn 0 1 0
vn 0 1 0
vn 0 1 0
vn 0 1 0
vn 0 1 0
vn 0 1 0
vn 0 1 0
vn 0 1 0
vn 0 1 0
vn 0 1 0
vn 0 1 0
vn 0 1 0
vn 0 1 0
vn 0 1 0
vn 0 1 0
vn 0 1 0
vn 0 1 0
vn 0 1 0
vn 0 1 0
vn 0 1 0
vn 0 1 0
vn 0 1 0
vn 0 1 0
vn 0 1 0
vn 0 1 0
vn 0 1 0
vn 0 1 0
vn 0 1 0
vn 0 1 0
vn 0 1 0
vn 0 1 0
vn 0 1 0
vn 0 1 0
vn 0 1 0
vn 0 1 0
vn 0 1 0
vn 0 1 0
vn 0 1 0
vn 0 1 0
vn 0 1 0
vn 0 1 0
vn 0 1 0
vn 0 1 0
vn 0 1 0
vn 0 1 0
vn 0 1 0
vn 0 1 0
vn 0 1 0
vn 0 1 0
vn 0 1 0
vn 0 1 0
vn 0 1 0
vn 0 1 0
vn 0 1 0
vn 0 1 0
vn 0 1 0
vn 0 1 0
vn 0 1 0
vn 0 1 0
vn 0 1 0
vn 0 1 0
vn 0 1 0
vn 0 1 0
vn 0 1 0
vn 0 1 0
vn 0 1 0
vn 0 1 0
vn 0 1 0
vn 0 1 0
vn 0 1 0
vn 0 1 0
vn 0 1 0
vn 0 1 0
vn 0 1 0
vn 0 1 0
vn 0 1 0
vn 0 1 0
vn 0 1 0
vn 0 1 0
vn 0 1 0
vn 0 1 0
vn 0 1 0
vn 0 1 0
vn 0 1 0
vn 0 1 0
vn 0 1 0
vn 0 1 0
vn 0 1 0
vn 0 1 0
vn 0 1 0
vn 0 1 0
vn 0 1 0
vn 0 1 0
vn 0 1 0
vn 0 1 0
vn 0 1 0
vn 0 1 0
vn 0 1 0
vn 0 1 0
vn 0 1 0
vn 0 1 0
vn 0 1 0
vn 0 1 0
vn 0 1 0
vn 0 1 0
vn 0 1 0
vn 0 1 0
vn 0 1 0
vn 0 1 0
vn 0 1 0
vn 0 1 0
vn 0 1 0
vn 0 1 0
vn 0 1 0
vn 0 1 0
vn 0 1 0
vn 0 1 0
vn 0 1 0
vn 0 1 0
vn 0 1 0
vn 0 1 0
vn 0 1 0
vn 0 1 0
vn 0 1 0
vn 0 1 0
vn 0 1 0
vn 0 1 0
vn 0 1 0
vn 0 1 0
vn 0 1 0
vn 0 1 0
vn 0 1 0
vn 0 1 0
vn 0 1 0
vn 0 1 0
vn 0 1 0
vn 0 1 0
vn 0 1 0
vn 0 1 0
vn 0 1 0
vn 0 1 0
vn 0 1 0
vn 0 1 0
vn 0 1 0
vn 0 1 0
vn 0 1 0
vn 0 1 0
vn 0 1 0
vn 0 1 0
vn 0 1 0
vn 0 1 0
vn 0 1 0
vn 0 1 0
vn 0 1 0
vn 0 1 0
vn 0 1 0
vn 0 1 0
vn 0 1 0
vn 0 1 0
vn 0 1 0
vn 0 1 0
vn 0 1 0
vn 0 1 0
vn 0 1 0
vn 0 1 0
vn 0 1 0
vn 0 1 0
vn 0 1 0
vn 0 1 0
vn 0 1 0
vn 0 1 0
vn 0 1 0
vn 0 1 0
vn 0 1 0
vn 0 1 0
vn 0 1 0
vn 0 1 0
vn 0 1 0
vn 0 1 0
vn 0 1 0
vn 0 1 0
vn 0 1 0
vn 0 1 0
vn 0 1 0
vn 0 1 0
vn 0 1 0
vn 0 1 0
vn 0 1 0
vn 0 1 0
vn 0 1 0
vn 0 1 0
vn 0 1 0
vn 0 1 0
vn 0 1 0
vn 0 1 0
vn 0 1 0
vn 0 1 0
vn 0 1 0
vn 0 1 0
vn 0 1 0
vn 0 1 0
vn 0 1 0
vn 0 1 0
vn 0 1 0
vn 0 1 0
vn 0 1 0
vn 0 1 0
vn 0 1 0
vn 0 1 0
vn 0 1 0
vn 0 1 0
vn 0 1 0
vn 0 1 0
vn 0 1 0
vn 0 1 0
vn 0 1 0
vn 0 1 0
vn 0 1 0
vn 0 1 0
vn 0 1 0
vn 0 1 0
vn 0 1 0
vn 0 1 0
vn 0 1 0
vn 0 1 0
vn 0 1 0
vn 0 1 0
vn 0 1 0
vn 0 1 0
vn 0 1 0
vn 0 1 0
vn 0 1 0
vn 0 1 0
vn 0 1 0
vn 0 1 0
vn 0 1 0
vn 0 1 0
vn 0 1 0
vn 0 1 0
vn 0 1 0
vn 0 1 0
vn 0 1 0
vn 0 1 0
vn 0 1 0
vn 0 1 0
vn 0 1 0
vn 0 1 0
vn 0 1 0
vn 0 1 0
vn 0 1 0
vn 0 1 0
vn 0 1 0
vn 0 1 0
vn 0 1 0
vn 0 1 0
vn 0 1 0
vn 0 1 0
vn 0 1 0
vn 0 1 0
vn 0 1 0
vn 0 1 0
vn 0 1 0
vn 0 1 0
vn 0 1 0
vn 0 1 0
vn 0 1 0
vn 0 1 0
vn 0 1 0
vn 0 1 0
vn 0 1 0
vn 0 1 0
vn 0 1 0
vn 0 1 0
vn 0 1 0
vn 0 1 0
vn 0 1 0
vn 0 1 0
vn 0 1 0
vn 0 1 0
vn 0 1 0
vn 0 1 0
vn 0 1 0
vn 0 1 0
vn 0 1 0
vn 0 1 0
vn 0 1 0
vn 0 1 0
vn 0 1 0
vn 0 1 0
vn 0 1 0
vn 0 1 0
vn 0 1 0
vn 0 1 0
vn 0 1 0
vn 0 1 0
vn 0 1 0
vn 0 1 0
vn 0 1 0
vn 0 1 0
vn 0 1 0
vn 0 1 0
vn 0 1 0
vn 0 1 0
vn 0 1 0
vn 0 1 0
vn 0 1 0
vn 0 1 0
vn 0 1 0
vn 0 1 0
vn 0 1 0
vn 0 1 0
vn 0 1 0
vn 0 1 0
vn 0 1 0
vn 0 1 0
vn 0 1 0
vn 0 1 0
vn 0 1 0
vn 0 1 0
vn 0 1 0
vn 0 1 0
vn 0 1 0
vn 0 1 0
vn 0 1 0
vn 0 1 0
vn 0 1 0
vn 0 1 0
vn 0 1 0
vn 0 1 0
vn 0 1 0
vn 0 1 0
vn 0 1 0
vn 0 1 0
vn 0 1 0
vn 0 1 0
vn 0 1 0
vn 0 1 0
vn 0 1 0
vn 0 1 0
vn 0 1 0
vn 0 1 0
vn 0 1 0
vn 0 1 0
vn 0 1 0
vn 0 1 0
vn 0 1 0
vn 0 1 0
vn 0 1 0
vn 0 1 0
vn 0 1 0
vn 0 1 0
vn 0 1 0
vn 0 1 0
vn 0 1 0
vn 0 1 0
vn 0 1 0
vn 0 1 0
vn 0 1 0
vn 0 1 0
vn 0 1 0
vn 0 1 0
vn 0 1 0
vn 0 1 0
vn 0 1 0
vn 0 1 0
vn 0 1 0
vn 0 1 0
vn 0 1 0
vn 0 1 0
vn 0 1 0
vn 0 1 0
vn 0 1 0
vn 0 1 0
vn 0 1 0
vn 0 1 0
vn 0 1 0
vn 0 1 0
vn 0 1 0
vn 0 1 0
vn 0 1 0
vn 0 1 0
vn 0 1 0
vn 0 1 0
vn 0 1 0
vn 0 1 0
vn 0 1 0
vn 0 1 0
vn 0 1 0
vn 0 1 0
vn 0 1 0
vn 0 1 0
vn 0 1 0
vn 0 1 0
vn 0 1 0
vn 0 1 0
vn 0 1 0
vn 0 1 0
vn 0 1 0
vn 0 1 0
vn 0 1 0
vn 0 1 0
vn 0 1 0
vn 0 1 0
vn 0 1 0
vn 0 1 0
vn 0 1 0
vn 0 1 0
vn 0 1 0
vn 0 1 0
vn 0 1 0
vn 0 1 0
vn 0 1 0
vn 0 1 0
vn 0 1 0
vn 0 1 0
vn 0 1 0
vn 0 1 0
vn 0 1 0
vn 0 1 0
vn 0 1 0
vn 0 1 0
vn 0 1 0
vn 0 1 0
vn 0 1 0
vn 0 1 0
vn 0 1 0
vn 0 1 0
vn 0 1 0
vn 0 1 0
vn 0 1 0
vn 0 1 0
vn 0 1 0
vn 0 1 0
vn 0 1 0
vn 0 1 0
vn 0 1 0
vn 0 1 0
vn 0 1 0
vn 0 1 0
vn 0 1 0
vn 0 1 0
vn 0 1 0
vn 0 1 0
vn 0 1 0
vn 0 1 0
vn 0 1 0
vn 0 1 0
vn 0 1 0
vn 0 1 0
vn 0 1 0
vn 0 1 0
vn 0 1 0
vn 0 1 0
vn 0 1 0
vn 0 1 0
vn 0 1 0
vn 0 1 0
vn 0 1 0
vn 0 1 0
vn 0 1 0
vn 0 1 0
vn 0 1 0
vn 0 1 0
vn 0 1 0
vn 0 1 0
vn 0 1 0
vn 0 1 0
vn 0 1 0
vn 0 1 0
vn 0 1 0
vn 0 1 0
vn 0 1 0
vn 0 1 0
vn 0 1 0
vn 0 1 0
vn 0 1 0
vn 0 1 0
vn 0 1 0
vn 0 1 0
vn 0 1 0
vn 0 1 0
vn 0 1 0
vn 0 1 0
vn 0 1 0
vn 0 1 0
vn 0 1 0
vn 0 1 0
vn 0 1 0
vn 0 1 0
vn 0 1 0
vn 0 1 0
vn 0 1 0
vn 0 1 0
vn 0 1 0
vn 0 1 0
vn 0 1 0
vn 0 1 0
vn 0 1 0
vn 0 1 0
vn 0 1 0
vn 0 1 0
vn 0 1 0
vn 0 1 0
vn 0 1 0
vn 0 1 0
vn 0 1 0
vn 0 1 0
vn 0 1 0
vn 0 1 0
vn 0 1 0
vn 0 1 0
vn 0 1 0
vn 0 1 0
vn 0 1 0
vn 0 1 0
vn 0 1 0
vn 0 1 0
vn 0 1 0
vn 0 1 0
vn 0 1 0
vn 0 1 0
vn 0 1 0
vn 0 1 0
vn 0 1 0
vn 0 1 0
vn 0 1 0
vn 0 1 0
vn 0 1 0
vn 0 1 0
vn 0 1 0
vn 0 1 0
vn 0 1 0
vn 0 1 0
vn 0 1 0
vn 0 1 0
vn 0 1 0
vn 0 1 0
vn 0 1 0
vn 0 1 0
vn 0 1 0
vn 0 1 0
vn 0 1 0
vn 0 1 0
vn 0 1 0
vn 0 1 0
vn 0 1 0
vn 0 1 0
vn 0 1 0
vn 0 1 0
vn 0 1 0
vn 0 1 0
vn 0 1 0
vn 0 1 0
vn 0 1 0
vn 0 1 0
vn 0 1 0
vn 0 1 0
vn 0 1 0
vn 0 1 0
vn 0 1 0
vn 0 1 0
vn 0 1 0
vn 0 1 0
vn 0 1 0
vn 0 1 0
vn 0 1 0
vn 0 1 0
vn 0 1 0
vn 0 1 0
vn 0 1 0
vn 0 1 0
vn 0 1 0
vn 0 1 0
vn 0 1 0
vn 0 1 0
vn 0 1 0
vn 0 1 0
vn 0 1 0
vn 0 1 0
vn 0 1 0
vn 0 1 0
vn 0 1 0
vn 0 1 0
vn 0 1 0
vn 0 1 0
vn 0 1 0
vn 0 1 0
vn 0 1 0
vn 0 1 0
vn 0 1 0
vn 0 1 0
vn 0 1 0
vn 0 1 0
vn 0 1 0
vn 0 1 0
vn 0 1 0
vn 0 1 0
vn 0 1 0
vn 0 1 0
vn 0 1 0
vn 0 1 0
vn 0 1 0
vn 0 1 0
vn 0 1 0
vn 0 1 0
vn 0 1 0
vn 0 1 0
vn 0 1 0
vn 0 1 0
vn 0 1 0
vn 0 1 0
vn 0 1 0
vn 0 1 0
vn 0 1 0
vn 0 1 0
vn 0 1 0
vn 0 1 0
vn 0 1 0
vn 0 1 0
vn 0 1 0
vn 0 1 0
vn 0 1 0
vn 0 1 0
vn 0 1 0
vn 0 1 0
vn 0 1 0
vn 0 1 0
vn 0 1 0
vn 0 1 0
vn 0 1 0
vn 0 1 0
vn 0 1 0
vn 0 1 0
vn 0 1 0
vn 0 1 0
vn 0 1 0
vn 0 1 0
vn 0 1 0
vn 0 1 0
vn 0 1 0
vn 0 1 0
vn 0 1 0
vn 0 1 0
vn 0 1 0
vn 0 1 0
vn 0 1 0
vn 0 1 0
vn 0 1 0
vn 0 1 0
vn 0 1 0
vn 0 1 0
vn 0 1 0
vn 0 1 0
vn 0 1 0
vn 0 1 0
vn 0 1 0
vn 0 1 0
vn 0 1 0
vn 0 1 0
vn 0 1 0
vn 0 1 0
vn 0 1 0
vn 0 1 0
vn 0 1 0
vn 0 1 0
vn 0 1 0
vn 0 1 0
vn 0 1 0
vn 0 1 0
vn 0 1 0
vn 0 1 0
vn 0 1 0
vn 0 1 0
vn 0 1 0
vn 0 1 0
vn 0 1 0
vn 0 1 0
vn 0 1 0
vn 0 1 0
vn 0 1 0
vn 0 1 0
vn 0 1 0
vn 0 1 0
vn 0 1 0
vn 0 1 0
vn 0 1 0
vn 0 1 0
vn 0 1 0
vn 0 1 0
vn 0 1 0
vn 0 1 0
vn 0 1 0
vn 0 1 0
vn 0 1 0
vn 0 1 0
vn 0 1 0
vn 0 1 0
vn 0 1 0
vn 0 1 0
vn 0 1 0
vn 0 1 0
vn 0 1 0
vn 0 1 0
vn 0 1 0
vn 0 1 0
vn 0 1 0
vn 0 1 0
vn 0 1 0
vn 0 1 0
vn 0 1 0
vn 0 1 0
vn 0 1 0
vn 0 1 0
vn 0 1 0
vn 0 1 0
vn 0 1 0
vn 0 1 0
vn 0 1 0
vn 0 1 0
vn 0 1 0
vn 0 1 0
vn 0 1 0
vn 0 1 0
vn 0 1 0
g CrosswalkTex_0
f 3/3/3 2/2/2 1/1/1
f 2/2/2 4/4/4 1/1/1
f 7/7/7 6/6/6 5/5/5
f 6/6/6 8/8/8 5/5/5
f 11/11/11 10/10/10 9/9/9
f 10/10/10 12/12/12 9/9/9
f 15/15/15 14/14/14 13/13/13
f 14/14/14 16/16/16 13/13/13
f 19/19/19 18/18/18 17/17/17
f 18/18/18 20/20/20 17/17/17
f 23/23/23 22/22/22 21/21/21
f 22/22/22 24/24/24 21/21/21
f 27/27/27 26/26/26 25/25/25
f 26/26/26 28/28/28 25/25/25
f 31/31/31 30/30/30 29/29/29
f 30/30/30 32/32/32 29/29/29
f 35/35/35 34/34/34 33/33/33
f 34/34/34 36/36/36 33/33/33
f 39/39/39 38/38/38 37/37/37
f 38/38/38 40/40/40 37/37/37
f 43/43/43 42/42/42 41/41/41
f 42/42/42 44/44/44 41/41/41
f 47/47/47 46/46/46 45/45/45
f 46/46/46 48/48/48 45/45/45
f 51/51/51 50/50/50 49/49/49
f 50/50/50 52/52/52 49/49/49
f 55/55/55 54/54/54 53/53/53
f 54/54/54 56/56/56 53/53/53
f 59/59/59 58/58/58 57/57/57
f 58/58/58 60/60/60 57/57/57
f 63/63/63 62/62/62 61/61/61
f 62/62/62 64/64/64 61/61/61
f 67/67/67 66/66/66 65/65/65
f 66/66/66 68/68/68 65/65/65
f 71/71/71 70/70/70 69/69/69
f 70/70/70 72/72/72 69/69/69
f 75/75/75 74/74/74 73/73/73
f 74/74/74 76/76/76 73/73/73
f 79/79/79 78/78/78 77/77/77
f 78/78/78 80/80/80 77/77/77
f 83/83/83 82/82/82 81/81/81
f 82/82/82 84/84/84 81/81/81
f 87/87/87 86/86/86 85/85/85
f 86/86/86 88/88/88 85/85/85
f 91/91/91 90/90/90 89/89/89
f 90/90/90 92/92/92 89/89/89
f 95/95/95 94/94/94 93/93/93
f 94/94/94 96/96/96 93/93/93
f 99/99/99 98/98/98 97/97/97
f 98/98/98 100/100/100 97/97/97
f 103/103/103 102/102/102 101/101/101
f 102/102/102 104/104/104 101/101/101
f 107/107/107 106/106/106 105/105/105
f 106/106/106 108/108/108 105/105/105
f 111/111/111 110/110/110 109/109/109
f 110/110/110 112/112/112 109/109/109
f 115/115/115 114/114/114 113/113/113
f 114/114/114 116/116/116 113/113/113
f 119/119/119 118/118/118 117/117/117
f 118/118/118 120/120/120 117/117/117
f 123/123/123 122/122/122 121/121/121
f 122/122/122 124/124/124 121/121/121
f 127/127/127 126/126/126 125/125/125
f 126/126/126 128/128/128 125/125/125
f 131/131/131 130/130/130 129/129/129
f 130/130/130 132/132/132 129/129/129
f 135/135/135 134/134/134 133/133/133
f 134/134/134 136/136/136 133/133/133
f 139/139/139 138/138/138 137/137/137
f 138/138/138 140/140/140 137/137/137
f 143/143/143 142/142/142 141/141/141
f 142/142/142 144/144/144 141/141/141
f 147/147/147 146/146/146 145/145/145
f 146/146/146 148/148/148 145/145/145
f 151/151/151 150/150/150 149/149/149
f 150/150/150 152/152/152 149/149/149
f 155/155/155 154/154/154 153/153/153
f 154/154/154 156/156/156 153/153/153
f 159/159/159 158/158/158 157/157/157
f 158/158/158 160/160/160 157/157/157
f 163/163/163 162/162/162 161/161/161
f 162/162/162 164/164/164 161/161/161
f 167/167/167 166/166/166 165/165/165
f 166/166/166 168/168/168 165/165/165
f 171/171/171 170/170/170 169/169/169
f 170/170/170 172/172/172 169/169/169
f 175/175/175 174/174/174 173/173/173
f 174/174/174 176/176/176 173/173/173
f 179/179/179 178/178/178 177/177/177
f 178/178/178 180/180/180 177/177/177
f 183/183/183 182/182/182 181/181/181
f 182/182/182 184/184/184 181/181/181
f 187/187/187 186/186/186 185/185/185
f 186/186/186 188/188/188 185/185/185
f 191/191/191 190/190/190 189/189/189
f 190/190/190 192/192/192 189/189/189
f 195/195/195 194/194/194 193/193/193
f 194/194/194 196/196/196 193/193/193
f 199/199/199 198/198/198 197/197/197
f 198/198/198 200/200/200 197/197/197
f 203/203/203 202/202/202 201/201/201
f 202/202/202 204/204/204 201/201/201
f 207/207/207 206/206/206 205/205/205
f 206/206/206 208/208/208 205/205/205
f 211/211/211 210/210/210 209/209/209
f 210/210/210 212/212/212 209/209/209
f 215/215/215 214/214/214 213/213/213
f 214/214/214 216/216/216 213/213/213
f 219/219/219 218/218/218 217/217/217
f 218/218/218 220/220/220 217/217/217
f 223/223/223 222/222/222 221/221/221
f 222/222/222 224/224/224 221/221/221
f 227/227/227 226/226/226 225/225/225
f 226/226/226 228/228/228 225/225/225
f 231/231/231 230/230/230 229/229/229
f 230/230/230 232/232/232 229/229/229
f 235/235/235 234/234/234 233/233/233
f 234/234/234 236/236/236 233/233/233
f 239/239/239 238/238/238 237/237/237
f 238/238/238 240/240/240 237/237/237
f 243/243/243 242/242/242 241/241/241
f 242/242/242 244/244/244 241/241/241
f 247/247/247 246/246/246 245/245/245
f 246/246/246 248/248/248 245/245/245
f 251/251/251 250/250/250 249/249/249
f 250/250/250 252/252/252 249/249/249
f 255/255/255 254/254/254 253/253/253
f 254/254/254 256/256/256 253/253/253
f 259/259/259 258/258/258 257/257/257
f 258/258/258 260/260/260 257/257/257
f 263/263/263 262/262/262 261/261/261
f 262/262/262 264/264/264 261/261/261
f 267/267/267 266/266/266 265/265/265
f 266/266/266 268/268/268 265/265/265
f 271/271/271 270/270/270 269/269/269
f 270/270/270 272/272/272 269/269/269
f 275/275/275 274/274/274 273/273/273
f 274/274/274 276/276/276 273/273/273
f 277/277/277 274/274/274 275/275/275
f 278/278/278 277/277/277 275/275/275
f 281/281/281 280/280/280 279/279/279
f 280/280/280 282/282/282 279/279/279
f 285/285/285 284/284/284 283/283/283
f 284/284/284 286/286/286 283/283/283
f 289/289/289 288/288/288 287/287/287
f 288/288/288 290/290/290 287/287/287
f 293/293/293 292/292/292 291/291/291
f 292/292/292 294/294/294 291/291/291
f 297/297/297 296/296/296 295/295/295
f 296/296/296 298/298/298 295/295/295
f 301/301/301 300/300/300 299/299/299
f 300/300/300 302/302/302 299/299/299
f 305/305/305 304/304/304 303/303/303
f 304/304/304 306/306/306 303/303/303
f 309/309/309 308/308/308 307/307/307
f 308/308/308 310/310/310 307/307/307
f 313/313/313 312/312/312 311/311/311
f 312/312/312 314/314/314 311/311/311
f 317/317/317 316/316/316 315/315/315
f 316/316/316 318/318/318 315/315/315
f 321/321/321 320/320/320 319/319/319
f 320/320/320 322/322/322 319/319/319
f 325/325/325 324/324/324 323/323/323
f 324/324/324 326/326/326 323/323/323
f 329/329/329 328/328/328 327/327/327
f 328/328/328 330/330/330 327/327/327
f 333/333/333 332/332/332 331/331/331
f 332/332/332 334/334/334 331/331/331
f 337/337/337 336/336/336 335/335/335
f 336/336/336 338/338/338 335/335/335
f 341/341/341 340/340/340 339/339/339
f 340/340/340 342/342/342 339/339/339
f 345/345/345 344/344/344 343/343/343
f 344/344/344 346/346/346 343/343/343
f 349/349/349 348/348/348 347/347/347
f 348/348/348 350/350/350 347/347/347
f 353/353/353 352/352/352 351/351/351
f 352/352/352 354/354/354 351/351/351
f 357/357/357 356/356/356 355/355/355
f 356/356/356 358/358/358 355/355/355
f 361/361/361 360/360/360 359/359/359
f 360/360/360 362/362/362 359/359/359
f 365/365/365 364/364/364 363/363/363
f 364/364/364 366/366/366 363/363/363
f 369/369/369 368/368/368 367/367/367
f 368/368/368 370/370/370 367/367/367
f 373/373/373 372/372/372 371/371/371
f 372/372/372 374/374/374 371/371/371
f 377/377/377 376/376/376 375/375/375
f 376/376/376 378/378/378 375/375/375
f 381/381/381 380/380/380 379/379/379
f 380/380/380 382/382/382 379/379/379
f 385/385/385 384/384/384 383/383/383
f 384/384/384 386/386/386 383/383/383
f 389/389/389 388/388/388 387/387/387
f 388/388/388 390/390/390 387/387/387
f 393/393/393 392/392/392 391/391/391
f 392/392/392 394/394/394 391/391/391
f 397/397/397 396/396/396 395/395/395
f 396/396/396 398/398/398 395/395/395
f 401/401/401 400/400/400 399/399/399
f 400/400/400 402/402/402 399/399/399
f 405/405/405 404/404/404 403/403/403
f 404/404/404 406/406/406 403/403/403
f 409/409/409 408/408/408 407/407/407
f 408/408/408 410/410/410 407/407/407
f 413/413/413 412/412/412 411/411/411
f 412/412/412 414/414/414 411/411/411
f 417/417/417 416/416/416 415/415/415
f 416/416/416 418/418/418 415/415/415
f 421/421/421 420/420/420 419/419/419
f 420/420/420 422/422/422 419/419/419
f 425/425/425 424/424/424 423/423/423
f 424/424/424 426/426/426 423/423/423
f 429/429/429 428/428/428 427/427/427
f 428/428/428 430/430/430 427/427/427
f 433/433/433 432/432/432 431/431/431
f 432/432/432 434/434/434 431/431/431
f 437/437/437 436/436/436 435/435/435
f 436/436/436 438/438/438 435/435/435
f 441/441/441 440/440/440 439/439/439
f 440/440/440 442/442/442 439/439/439
f 445/445/445 444/444/444 443/443/443
f 444/444/444 446/446/446 443/443/443
f 449/449/449 448/448/448 447/447/447
f 448/448/448 450/450/450 447/447/447
f 453/453/453 452/452/452 451/451/451
f 452/452/452 454/454/454 451/451/451
f 457/457/457 456/456/456 455/455/455
f 456/456/456 458/458/458 455/455/455
f 461/461/461 460/460/460 459/459/459
f 460/460/460 462/462/462 459/459/459
f 465/465/465 464/464/464 463/463/463
f 464/464/464 466/466/466 463/463/463
f 469/469/469 468/468/468 467/467/467
f 468/468/468 470/470/470 467/467/467
f 473/473/473 472/472/472 471/471/471
f 472/472/472 474/474/474 471/471/471
f 477/477/477 476/476/476 475/475/475
f 476/476/476 478/478/478 475/475/475
f 481/481/481 480/480/480 479/479/479
f 480/480/480 482/482/482 479/479/479
f 485/485/485 484/484/484 483/483/483
f 484/484/484 486/486/486 483/483/483
f 489/489/489 488/488/488 487/487/487
f 488/488/488 490/490/490 487/487/487
f 493/493/493 492/492/492 491/491/491
f 492/492/492 494/494/494 491/491/491
f 497/497/497 496/496/496 495/495/495
f 496/496/496 498/498/498 495/495/495
f 501/501/501 500/500/500 499/499/499
f 500/500/500 502/502/502 499/499/499
f 505/505/505 504/504/504 503/503/503
f 504/504/504 506/506/506 503/503/503
f 509/509/509 508/508/508 507/507/507
f 508/508/508 510/510/510 507/507/507
f 513/513/513 512/512/512 511/511/511
f 512/512/512 514/514/514 511/511/511
f 517/517/517 516/516/516 515/515/515
f 516/516/516 518/518/518 515/515/515
f 521/521/521 520/520/520 519/519/519
f 520/520/520 522/522/522 519/519/519
f 525/525/525 524/524/524 523/523/523
f 524/524/524 526/526/526 523/523/523
f 529/529/529 528/528/528 527/527/527
f 528/528/528 530/530/530 527/527/527
f 533/533/533 532/532/532 531/531/531
f 532/532/532 534/534/534 531/531/531
f 537/537/537 536/536/536 535/535/535
f 536/536/536 538/538/538 535/535/535
f 541/541/541 540/540/540 539/539/539
f 540/540/540 542/542/542 539/539/539
f 545/545/545 544/544/544 543/543/543
f 544/544/544 546/546/546 543/543/543
f 549/549/549 548/548/548 547/547/547
f 548/548/548 550/550/550 547/547/547
f 553/553/553 552/552/552 551/551/551
f 552/552/552 554/554/554 551/551/551
f 557/557/557 556/556/556 555/555/555
f 556/556/556 558/558/558 555/555/555
f 561/561/561 560/560/560 559/559/559
f 560/560/560 562/562/562 559/559/559
f 565/565/565 564/564/564 563/563/563
f 564/564/564 566/566/566 563/563/563
f 569/569/569 568/568/568 567/567/567
f 568/568/568 570/570/570 567/567/567
f 573/573/573 572/572/572 571/571/571
f 572/572/572 574/574/574 571/571/571
f 577/577/577 576/576/576 575/575/575
f 576/576/576 578/578/578 575/575/575
f 581/581/581 580/580/580 579/579/579
f 580/580/580 582/582/582 579/579/579
f 585/585/585 584/584/584 583/583/583
f 584/584/584 586/586/586 583/583/583
f 589/589/589 588/588/588 587/587/587
f 588/588/588 590/590/590 587/587/587
f 593/593/593 592/592/592 591/591/591
f 592/592/592 594/594/594 591/591/591
f 597/597/597 596/596/596 595/595/595
f 596/596/596 598/598/598 595/595/595
f 601/601/601 600/600/600 599/599/599
f 600/600/600 602/602/602 599/599/599
f 605/605/605 604/604/604 603/603/603
f 604/604/604 606/606/606 603/603/603
f 609/609/609 608/608/608 607/607/607
f 608/608/608 610/610/610 607/607/607
f 613/613/613 612/612/612 611/611/611
f 612/612/612 614/614/614 611/611/611
f 617/617/617 616/616/616 615/615/615
f 616/616/616 618/618/618 615/615/615
f 621/621/621 620/620/620 619/619/619
f 620/620/620 622/622/622 619/619/619
f 625/625/625 624/624/624 623/623/623
f 624/624/624 626/626/626 623/623/623
f 629/629/629 628/628/628 627/627/627
f 628/628/628 630/630/630 627/627/627
f 633/633/633 632/632/632 631/631/631
f 632/632/632 634/634/634 631/631/631
f 637/637/637 636/636/636 635/635/635
f 636/636/636 638/638/638 635/635/635
f 641/641/641 640/640/640 639/639/639
f 640/640/640 642/642/642 639/639/639
f 645/645/645 644/644/644 643/643/643
f 644/644/644 646/646/646 643/643/643
f 649/649/649 648/648/648 647/647/647
f 648/648/648 650/650/650 647/647/647
f 653/653/653 652/652/652 651/651/651
f 652/652/652 654/654/654 651/651/651
f 657/657/657 656/656/656 655/655/655
f 656/656/656 658/658/658 655/655/655
f 661/661/661 660/660/660 659/659/659
f 660/660/660 662/662/662 659/659/659
f 665/665/665 664/664/664 663/663/663
f 664/664/664 666/666/666 663/663/663
f 669/669/669 668/668/668 667/667/667
f 668/668/668 670/670/670 667/667/667
f 673/673/673 672/672/672 671/671/671
f 672/672/672 674/674/674 671/671/671
f 677/677/677 676/676/676 675/675/675
f 676/676/676 678/678/678 675/675/675
f 681/681/681 680/680/680 679/679/679
f 680/680/680 682/682/682 679/679/679
f 685/685/685 684/684/684 683/683/683
f 684/684/684 686/686/686 683/683/683
f 689/689/689 688/688/688 687/687/687
f 688/688/688 690/690/690 687/687/687
f 693/693/693 692/692/692 691/691/691
f 692/692/692 694/694/694 691/691/691
f 697/697/697 696/696/696 695/695/695
f 696/696/696 698/698/698 695/695/695
f 701/701/701 700/700/700 699/699/699
f 700/700/700 702/702/702 699/699/699
f 705/705/705 704/704/704 703/703/703
f 704/704/704 706/706/706 703/703/703
f 709/709/709 708/708/708 707/707/707
f 708/708/708 710/710/710 707/707/707
f 713/713/713 712/712/712 711/711/711
f 712/712/712 714/714/714 711/711/711
f 717/717/717 716/716/716 715/715/715
f 716/716/716 718/718/718 715/715/715
f 721/721/721 720/720/720 719/719/719
f 720/720/720 722/722/722 719/719/719
f 725/725/725 724/724/724 723/723/723
f 724/724/724 726/726/726 723/723/723
f 729/729/729 728/728/728 727/727/727
f 728/728/728 730/730/730 727/727/727
f 733/733/733 732/732/732 731/731/731
f 732/732/732 734/734/734 731/731/731
f 737/737/737 736/736/736 735/735/735
f 736/736/736 738/738/738 735/735/735
f 741/741/741 740/740/740 739/739/739
f 740/740/740 742/742/742 739/739/739
f 745/745/745 744/744/744 743/743/743
f 744/744/744 746/746/746 743/743/743
f 749/749/749 748/748/748 747/747/747
f 748/748/748 750/750/750 747/747/747
f 753/753/753 752/752/752 751/751/751
f 752/752/752 754/754/754 751/751/751
f 757/757/757 756/756/756 755/755/755
f 756/756/756 758/758/758 755/755/755
f 761/761/761 760/760/760 759/759/759
f 760/760/760 762/762/762 759/759/759
f 765/765/765 764/764/764 763/763/763
f 764/764/764 766/766/766 763/763/763
f 769/769/769 768/768/768 767/767/767
f 768/768/768 770/770/770 767/767/767
f 773/773/773 772/772/772 771/771/771
f 772/772/772 774/774/774 771/771/771
f 777/777/777 776/776/776 775/775/775
f 776/776/776 778/778/778 775/775/775
f 781/781/781 780/780/780 779/779/779
f 780/780/780 782/782/782 779/779/779
f 785/785/785 784/784/784 783/783/783
f 784/784/784 786/786/786 783/783/783
f 789/789/789 788/788/788 787/787/787
f 788/788/788 790/790/790 787/787/787
f 793/793/793 792/792/792 791/791/791
f 792/792/792 794/794/794 791/791/791
f 797/797/797 796/796/796 795/795/795
f 796/796/796 798/798/798 795/795/795
f 801/801/801 800/800/800 799/799/799
f 800/800/800 802/802/802 799/799/799
f 805/805/805 804/804/804 803/803/803
f 804/804/804 806/806/806 803/803/803
f 809/809/809 808/808/808 807/807/807
f 808/808/808 810/810/810 807/807/807
f 813/813/813 812/812/812 811/811/811
f 812/812/812 814/814/814 811/811/811
f 817/817/817 816/816/816 815/815/815
f 816/816/816 818/818/818 815/815/815
f 821/821/821 820/820/820 819/819/819
f 820/820/820 822/822/822 819/819/819
f 825/825/825 824/824/824 823/823/823
f 824/824/824 826/826/826 823/823/823
f 829/829/829 828/828/828 827/827/827
f 828/828/828 830/830/830 827/827/827
f 833/833/833 832/832/832 831/831/831
f 832/832/832 834/834/834 831/831/831
f 837/837/837 836/836/836 835/835/835
f 836/836/836 838/838/838 835/835/835
f 841/841/841 840/840/840 839/839/839
f 840/840/840 842/842/842 839/839/839
f 845/845/845 844/844/844 843/843/843
f 844/844/844 846/846/846 843/843/843
f 849/849/849 848/848/848 847/847/847
f 848/848/848 850/850/850 847/847/847
f 853/853/853 852/852/852 851/851/851
f 852/852/852 854/854/854 851/851/851
f 857/857/857 856/856/856 855/855/855
f 856/856/856 858/858/858 855/855/855
f 861/861/861 860/860/860 859/859/859
f 860/860/860 862/862/862 859/859/859
f 865/865/865 864/864/864 863/863/863
f 864/864/864 866/866/866 863/863/863
f 869/869/869 868/868/868 867/867/867
f 868/868/868 870/870/870 867/867/867
f 873/873/873 872/872/872 871/871/871
f 872/872/872 874/874/874 871/871/871
f 877/877/877 876/876/876 875/875/875
f 876/876/876 878/878/878 875/875/875
f 881/881/881 880/880/880 879/879/879
f 880/880/880 882/882/882 879/879/879
f 885/885/885 884/884/884 883/883/883
f 884/884/884 886/886/886 883/883/883
f 889/889/889 888/888/888 887/887/887
f 888/888/888 890/890/890 887/887/887
f 893/893/893 892/892/892 891/891/891
f 892/892/892 894/894/894 891/891/891
f 897/897/897 896/896/896 895/895/895
f 896/896/896 898/898/898 895/895/895
f 901/901/901 900/900/900 899/899/899
f 900/900/900 902/902/902 899/899/899
f 905/905/905 904/904/904 903/903/903
f 904/904/904 906/906/906 903/903/903
f 909/909/909 908/908/908 907/907/907
f 908/908/908 910/910/910 907/907/907
f 913/913/913 912/912/912 911/911/911
f 912/912/912 914/914/914 911/911/911
f 917/917/917 916/916/916 915/915/915
f 916/916/916 918/918/918 915/915/915
f 921/921/921 920/920/920 919/919/919
f 920/920/920 922/922/922 919/919/919
f 925/925/925 924/924/924 923/923/923
f 924/924/924 926/926/926 923/923/923
f 929/929/929 928/928/928 927/927/927
f 928/928/928 930/930/930 927/927/927
f 933/933/933 932/932/932 931/931/931
f 932/932/932 934/934/934 931/931/931
f 937/937/937 936/936/936 935/935/935
f 936/936/936 938/938/938 935/935/935
f 941/941/941 940/940/940 939/939/939
f 940/940/940 942/942/942 939/939/939
f 945/945/945 944/944/944 943/943/943
f 944/944/944 946/946/946 943/943/943
f 949/949/949 948/948/948 947/947/947
f 948/948/948 950/950/950 947/947/947
f 953/953/953 952/952/952 951/951/951
f 952/952/952 954/954/954 951/951/951
f 957/957/957 956/956/956 955/955/955
f 956/956/956 958/958/958 955/955/955
f 961/961/961 960/960/960 959/959/959
f 960/960/960 962/962/962 959/959/959
f 965/965/965 964/964/964 963/963/963
f 964/964/964 966/966/966 963/963/963
f 969/969/969 968/968/968 967/967/967
f 968/968/968 970/970/970 967/967/967
f 973/973/973 972/972/972 971/971/971
f 972/972/972 974/974/974 971/971/971
f 977/977/977 976/976/976 975/975/975
f 976/976/976 978/978/978 975/975/975
f 981/981/981 980/980/980 979/979/979
f 980/980/980 982/982/982 979/979/979
f 985/985/985 984/984/984 983/983/983
f 984/984/984 986/986/986 983/983/983
f 989/989/989 988/988/988 987/987/987
f 988/988/988 990/990/990 987/987/987
f 993/993/993 992/992/992 991/991/991
f 992/992/992 994/994/994 991/991/991
f 997/997/997 996/996/996 995/995/995
f 996/996/996 998/998/998 995/995/995
f 1001/1001/1001 1000/1000/1000 999/999/999
f 1000/1000/1000 1002/1002/1002 999/999/999
f 1005/1005/1005 1004/1004/1004 1003/1003/1003
f 1004/1004/1004 1006/1006/1006 1003/1003/1003
f 1009/1009/1009 1008/1008/1008 1007/1007/1007
f 1008/1008/1008 1010/1010/1010 1007/1007/1007
f 1013/1013/1013 1012/1012/1012 1011/1011/1011
f 1012/1012/1012 1014/1014/1014 1011/1011/1011
f 1017/1017/1017 1016/1016/1016 1015/1015/1015
f 1016/1016/1016 1018/1018/1018 1015/1015/1015
f 1021/1021/1021 1020/1020/1020 1019/1019/1019
f 1020/1020/1020 1022/1022/1022 1019/1019/1019
f 1025/1025/1025 1024/1024/1024 1023/1023/1023
f 1024/1024/1024 1026/1026/1026 1023/1023/1023
f 1029/1029/1029 1028/1028/1028 1027/1027/1027
f 1028/1028/1028 1030/1030/1030 1027/1027/1027
f 1033/1033/1033 1032/1032/1032 1031/1031/1031
f 1032/1032/1032 1034/1034/1034 1031/1031/1031
f 1037/1037/1037 1036/1036/1036 1035/1035/1035
f 1036/1036/1036 1038/1038/1038 1035/1035/1035
f 1041/1041/1041 1040/1040/1040 1039/1039/1039
f 1040/1040/1040 1042/1042/1042 1039/1039/1039
f 1045/1045/1045 1044/1044/1044 1043/1043/1043
f 1044/1044/1044 1046/1046/1046 1043/1043/1043
f 1049/1049/1049 1048/1048/1048 1047/1047/1047
f 1048/1048/1048 1050/1050/1050 1047/1047/1047
f 1053/1053/1053 1052/1052/1052 1051/1051/1051
f 1052/1052/1052 1054/1054/1054 1051/1051/1051
f 1057/1057/1057 1056/1056/1056 1055/1055/1055
f 1056/1056/1056 1058/1058/1058 1055/1055/1055
f 1061/1061/1061 1060/1060/1060 1059/1059/1059
f 1060/1060/1060 1062/1062/1062 1059/1059/1059
f 1065/1065/1065 1064/1064/1064 1063/1063/1063
f 1064/1064/1064 1066/1066/1066 1063/1063/1063
f 1069/1069/1069 1068/1068/1068 1067/1067/1067
f 1068/1068/1068 1070/1070/1070 1067/1067/1067
f 1073/1073/1073 1072/1072/1072 1071/1071/1071
f 1072/1072/1072 1074/1074/1074 1071/1071/1071
f 1077/1077/1077 1076/1076/1076 1075/1075/1075
f 1076/1076/1076 1078/1078/1078 1075/1075/1075
f 1081/1081/1081 1080/1080/1080 1079/1079/1079
f 1080/1080/1080 1082/1082/1082 1079/1079/1079
f 1085/1085/1085 1084/1084/1084 1083/1083/1083
f 1084/1084/1084 1086/1086/1086 1083/1083/1083
f 1089/1089/1089 1088/1088/1088 1087/1087/1087
f 1088/1088/1088 1090/1090/1090 1087/1087/1087
f 1093/1093/1093 1092/1092/1092 1091/1091/1091
f 1092/1092/1092 1094/1094/1094 1091/1091/1091
f 1095/1095/1095 1092/1092/1092 1093/1093/1093
f 1096/1096/1096 1095/1095/1095 1093/1093/1093
f 1099/1099/1099 1098/1098/1098 1097/1097/1097
f 1098/1098/1098 1100/1100/1100 1097/1097/1097
f 1103/1103/1103 1102/1102/1102 1101/1101/1101
f 1102/1102/1102 1104/1104/1104 1101/1101/1101
f 1107/1107/1107 1106/1106/1106 1105/1105/1105
f 1106/1106/1106 1108/1108/1108 1105/1105/1105
f 1111/1111/1111 1110/1110/1110 1109/1109/1109
f 1110/1110/1110 1112/1112/1112 1109/1109/1109
f 1115/1115/1115 1114/1114/1114 1113/1113/1113
f 1114/1114/1114 1116/1116/1116 1113/1113/1113
f 1119/1119/1119 1118/1118/1118 1117/1117/1117
f 1118/1118/1118 1120/1120/1120 1117/1117/1117
f 1123/1123/1123 1122/1122/1122 1121/1121/1121
f 1122/1122/1122 1124/1124/1124 1121/1121/1121
f 1127/1127/1127 1126/1126/1126 1125/1125/1125
f 1126/1126/1126 1128/1128/1128 1125/1125/1125
f 1131/1131/1131 1130/1130/1130 1129/1129/1129
f 1130/1130/1130 1132/1132/1132 1129/1129/1129
f 1135/1135/1135 1134/1134/1134 1133/1133/1133
f 1134/1134/1134 1136/1136/1136 1133/1133/1133
f 1139/1139/1139 1138/1138/1138 1137/1137/1137
f 1138/1138/1138 1140/1140/1140 1137/1137/1137
f 1143/1143/1143 1142/1142/1142 1141/1141/1141
f 1142/1142/1142 1144/1144/1144 1141/1141/1141
f 1147/1147/1147 1146/1146/1146 1145/1145/1145
f 1146/1146/1146 1148/1148/1148 1145/1145/1145
f 1151/1151/1151 1150/1150/1150 1149/1149/1149
f 1150/1150/1150 1152/1152/1152 1149/1149/1149
f 1155/1155/1155 1154/1154/1154 1153/1153/1153
f 1154/1154/1154 1156/1156/1156 1153/1153/1153
f 1159/1159/1159 1158/1158/1158 1157/1157/1157
f 1158/1158/1158 1160/1160/1160 1157/1157/1157
f 1163/1163/1163 1162/1162/1162 1161/1161/1161
f 1162/1162/1162 1164/1164/1164 1161/1161/1161
f 1167/1167/1167 1166/1166/1166 1165/1165/1165
f 1166/1166/1166 1168/1168/1168 1165/1165/1165
f 1171/1171/1171 1170/1170/1170 1169/1169/1169
f 1170/1170/1170 1172/1172/1172 1169/1169/1169
f 1175/1175/1175 1174/1174/1174 1173/1173/1173
f 1174/1174/1174 1176/1176/1176 1173/1173/1173
f 1179/1179/1179 1178/1178/1178 1177/1177/1177
f 1178/1178/1178 1180/1180/1180 1177/1177/1177
f 1183/1183/1183 1182/1182/1182 1181/1181/1181
f 1182/1182/1182 1184/1184/1184 1181/1181/1181
f 1187/1187/1187 1186/1186/1186 1185/1185/1185
f 1186/1186/1186 1188/1188/1188 1185/1185/1185
f 1191/1191/1191 1190/1190/1190 1189/1189/1189
f 1190/1190/1190 1192/1192/1192 1189/1189/1189
f 1195/1195/1195 1194/1194/1194 1193/1193/1193
f 1194/1194/1194 1196/1196/1196 1193/1193/1193
f 1199/1199/1199 1198/1198/1198 1197/1197/1197
f 1198/1198/1198 1200/1200/1200 1197/1197/1197
f 1203/1203/1203 1202/1202/1202 1201/1201/1201
f 1202/1202/1202 1204/1204/1204 1201/1201/1201
f 1207/1207/1207 1206/1206/1206 1205/1205/1205
f 1206/1206/1206 1208/1208/1208 1205/1205/1205
f 1211/1211/1211 1210/1210/1210 1209/1209/1209
f 1210/1210/1210 1212/1212/1212 1209/1209/1209
f 1215/1215/1215 1214/1214/1214 1213/1213/1213
f 1214/1214/1214 1216/1216/1216 1213/1213/1213
f 1219/1219/1219 1218/1218/1218 1217/1217/1217
f 1218/1218/1218 1220/1220/1220 1217/1217/1217
f 1223/1223/1223 1222/1222/1222 1221/1221/1221
f 1222/1222/1222 1224/1224/1224 1221/1221/1221
f 1227/1227/1227 1226/1226/1226 1225/1225/1225
f 1226/1226/1226 1228/1228/1228 1225/1225/1225
f 1231/1231/1231 1230/1230/1230 1229/1229/1229
f 1230/1230/1230 1232/1232/1232 1229/1229/1229
f 1235/1235/1235 1234/1234/1234 1233/1233/1233
f 1234/1234/1234 1236/1236/1236 1233/1233/1233
f 1239/1239/1239 1238/1238/1238 1237/1237/1237
f 1238/1238/1238 1240/1240/1240 1237/1237/1237
f 1243/1243/1243 1242/1242/1242 1241/1241/1241
f 1242/1242/1242 1244/1244/1244 1241/1241/1241
f 1247/1247/1247 1246/1246/1246 1245/1245/1245
f 1246/1246/1246 1248/1248/1248 1245/1245/1245
f 1251/1251/1251 1250/1250/1250 1249/1249/1249
f 1250/1250/1250 1252/1252/1252 1249/1249/1249
f 1255/1255/1255 1254/1254/1254 1253/1253/1253
f 1254/1254/1254 1256/1256/1256 1253/1253/1253
f 1259/1259/1259 1258/1258/1258 1257/1257/1257
f 1258/1258/1258 1260/1260/1260 1257/1257/1257
f 1263/1263/1263 1262/1262/1262 1261/1261/1261
f 1262/1262/1262 1264/1264/1264 1261/1261/1261
f 1267/1267/1267 1266/1266/1266 1265/1265/1265
f 1266/1266/1266 1268/1268/1268 1265/1265/1265
f 1271/1271/1271 1270/1270/1270 1269/1269/1269
f 1270/1270/1270 1272/1272/1272 1269/1269/1269
f 1275/1275/1275 1274/1274/1274 1273/1273/1273
f 1274/1274/1274 1276/1276/1276 1273/1273/1273
f 1279/1279/1279 1278/1278/1278 1277/1277/1277
f 1278/1278/1278 1280/1280/1280 1277/1277/1277
f 1283/1283/1283 1282/1282/1282 1281/1281/1281
f 1282/1282/1282 1284/1284/1284 1281/1281/1281
f 1287/1287/1287 1286/1286/1286 1285/1285/1285
f 1286/1286/1286 1288/1288/1288 1285/1285/1285
f 1291/1291/1291 1290/1290/1290 1289/1289/1289
f 1290/1290/1290 1292/1292/1292 1289/1289/1289
f 1295/1295/1295 1294/1294/1294 1293/1293/1293
f 1294/1294/1294 1296/1296/1296 1293/1293/1293
f 1299/1299/1299 1298/1298/1298 1297/1297/1297
f 1298/1298/1298 1300/1300/1300 1297/1297/1297
f 1303/1303/1303 1302/1302/1302 1301/1301/1301
f 1302/1302/1302 1304/1304/1304 1301/1301/1301
f 1307/1307/1307 1306/1306/1306 1305/1305/1305
f 1306/1306/1306 1308/1308/1308 1305/1305/1305
f 1311/1311/1311 1310/1310/1310 1309/1309/1309
f 1310/1310/1310 1312/1312/1312 1309/1309/1309
f 1315/1315/1315 1314/1314/1314 1313/1313/1313
f 1314/1314/1314 1316/1316/1316 1313/1313/1313
f 1319/1319/1319 1318/1318/1318 1317/1317/1317
f 1318/1318/1318 1320/1320/1320 1317/1317/1317
f 1323/1323/1323 1322/1322/1322 1321/1321/1321
f 1322/1322/1322 1324/1324/1324 1321/1321/1321
f 1327/1327/1327 1326/1326/1326 1325/1325/1325
f 1326/1326/1326 1328/1328/1328 1325/1325/1325
f 1331/1331/1331 1330/1330/1330 1329/1329/1329
f 1330/1330/1330 1332/1332/1332 1329/1329/1329
f 1335/1335/1335 1334/1334/1334 1333/1333/1333
f 1334/1334/1334 1336/1336/1336 1333/1333/1333
f 1339/1339/1339 1338/1338/1338 1337/1337/1337
f 1338/1338/1338 1340/1340/1340 1337/1337/1337
f 1343/1343/1343 1342/1342/1342 1341/1341/1341
f 1342/1342/1342 1344/1344/1344 1341/1341/1341
f 1347/1347/1347 1346/1346/1346 1345/1345/1345
f 1346/1346/1346 1348/1348/1348 1345/1345/1345
f 1351/1351/1351 1350/1350/1350 1349/1349/1349
f 1350/1350/1350 1352/1352/1352 1349/1349/1349
f 1355/1355/1355 1354/1354/1354 1353/1353/1353
f 1354/1354/1354 1356/1356/1356 1353/1353/1353
f 1359/1359/1359 1358/1358/1358 1357/1357/1357
f 1358/1358/1358 1360/1360/1360 1357/1357/1357
f 1363/1363/1363 1362/1362/1362 1361/1361/1361
f 1362/1362/1362 1364/1364/1364 1361/1361/1361
f 1367/1367/1367 1366/1366/1366 1365/1365/1365
f 1366/1366/1366 1368/1368/1368 1365/1365/1365
f 1371/1371/1371 1370/1370/1370 1369/1369/1369
f 1370/1370/1370 1372/1372/1372 1369/1369/1369
f 1375/1375/1375 1374/1374/1374 1373/1373/1373
f 1374/1374/1374 1376/1376/1376 1373/1373/1373
f 1379/1379/1379 1378/1378/1378 1377/1377/1377
f 1378/1378/1378 1380/1380/1380 1377/1377/1377
f 1383/1383/1383 1382/1382/1382 1381/1381/1381
f 1382/1382/1382 1384/1384/1384 1381/1381/1381
f 1387/1387/1387 1386/1386/1386 1385/1385/1385
f 1386/1386/1386 1388/1388/1388 1385/1385/1385
f 1391/1391/1391 1390/1390/1390 1389/1389/1389
f 1390/1390/1390 1392/1392/1392 1389/1389/1389
f 1395/1395/1395 1394/1394/1394 1393/1393/1393
f 1394/1394/1394 1396/1396/1396 1393/1393/1393
f 1399/1399/1399 1398/1398/1398 1397/1397/1397
f 1398/1398/1398 1400/1400/1400 1397/1397/1397
f 1403/1403/1403 1402/1402/1402 1401/1401/1401
f 1402/1402/1402 1404/1404/1404 1401/1401/1401
f 1407/1407/1407 1406/1406/1406 1405/1405/1405
f 1406/1406/1406 1408/1408/1408 1405/1405/1405
f 1411/1411/1411 1410/1410/1410 1409/1409/1409
f 1410/1410/1410 1412/1412/1412 1409/1409/1409
f 1415/1415/1415 1414/1414/1414 1413/1413/1413
f 1414/1414/1414 1416/1416/1416 1413/1413/1413
f 1419/1419/1419 1418/1418/1418 1417/1417/1417
f 1418/1418/1418 1420/1420/1420 1417/1417/1417
