g daoJu_jingCheDeng
v -0.3433291 -0.169431 0.169431
v 0.3432597 0.169431 -0.169431
v 0.3432597 -0.169431 0.169431
v -0.3433291 0.169431 -0.169431
v -0.3432597 0.1215525 0.1515524
v 0.3433291 -0.1615523 -0.1315524
v 0.3433291 0.1215525 0.1515524
v -0.3432597 -0.1615523 -0.1315524
v 0.169431 -0.1937374 0.169431
v -0.169431 0.1936983 -0.169431
v 0.169431 0.1936983 0.169431
v -0.169431 -0.1937374 -0.169431
v -0.1215525 -0.1936983 0.1515524
v 0.1615523 0.1937374 -0.1315524
v -0.1215525 0.1937374 0.1515524
v 0.1615523 -0.1936983 -0.1315524
vt 0.02939159 0.6416581
vt 0.2748813 0.7846441
vt 0.2748813 0.6416581
vt 0.02939159 0.7846441
vt 0.02939159 0.6416581
vt 0.2748813 0.7846441
vt 0.2748813 0.6416581
vt 0.02939159 0.7846441
vt 0.02939159 0.6416581
vt 0.2748813 0.7846441
vt 0.2748813 0.6416581
vt 0.02939159 0.7846441
vt 0.02939159 0.6416581
vt 0.2748813 0.7846441
vt 0.2748813 0.6416581
vt 0.02939159 0.7846441
vn 0 0.7071066 0.7071068
vn 0 0.7071066 0.7071068
vn 0 0.7071066 0.7071068
vn 0 0.7071066 0.7071068
vn 0 0.7071068 -0.7071066
vn 0 0.7071068 -0.7071066
vn 0 0.7071068 -0.7071066
vn 0 0.7071068 -0.7071066
vn -0.7071066 0 0.7071068
vn -0.7071066 0 0.7071068
vn -0.7071066 0 0.7071068
vn -0.7071066 0 0.7071068
vn -0.7071068 0 -0.7071066
vn -0.7071068 0 -0.7071066
vn -0.7071068 0 -0.7071066
vn -0.7071068 0 -0.7071066
g daoJu_jingCheDeng_0
f 3/3/3 2/2/2 1/1/1
f 2/2/2 4/4/4 1/1/1
f 7/7/7 6/6/6 5/5/5
f 6/6/6 8/8/8 5/5/5
f 11/11/11 10/10/10 9/9/9
f 10/10/10 12/12/12 9/9/9
f 15/15/15 14/14/14 13/13/13
f 14/14/14 16/16/16 13/13/13
