g daoJu_chengTie01
v -0.9737473 -23.91135 0.05824661
v -1.16177 -30.25613 0.7825737
v -0.9737473 -30.25613 0.05824661
v -1.16177 -23.91135 0.7825737
v -1.186378 -30.25613 1.127701
v -1.186378 -23.91135 1.127701
v -1.057663 -30.25613 2.141628
v -1.057663 -23.91135 2.141628
v -0.7699547 -30.25613 2.368767
v -0.7699547 -23.91135 2.368767
v 0.001060486 -30.25613 2.414825
v 0.001060486 -23.91135 2.414825
v 0.001060486 -30.25613 0.5579567
v 0.001060486 -30.25613 0.05824661
v -0.9737473 -30.25613 0.05824661
v -1.16177 -30.25613 0.7825737
v -0.948513 -30.25613 0.7825737
v -1.186378 -30.25613 1.127701
v -0.9787979 -30.25613 1.127701
v -1.057663 -30.25613 2.141628
v -0.8803711 -30.25613 2.141628
v -0.7699547 -30.25613 2.368767
v 0.001060486 -30.25613 2.246994
v 0.001060486 -30.25613 2.414825
v -0.8803711 -30.74322 2.141628
v 0.001060486 -30.25613 2.246994
v 0.001060486 -30.74322 2.246994
v -0.8803711 -30.25613 2.141628
v -0.9787979 -30.74322 1.127701
v -0.9787979 -30.25613 1.127701
v -0.948513 -30.25613 0.7825737
v -0.948513 -30.74322 0.7825737
v -0.948513 -30.25613 0.7825737
v 0.001060486 -30.74322 0.5579567
v 0.001060486 -30.25613 0.5579567
v -0.948513 -30.74322 0.7825737
v -1.186378 -23.91135 1.127701
v 0.001060486 -23.91135 0.05824661
v -1.057663 -23.91135 2.141628
v -1.16177 -23.91135 0.7825737
v -0.9737473 -23.91135 0.05824661
v -0.7699547 -23.91135 2.368767
v 0.001060486 -23.91135 2.414825
v 0.975872 -30.25613 0.05824661
v 1.163891 -23.91135 0.7825737
v 0.975872 -23.91135 0.05824661
v 1.163891 -30.25613 0.7825737
v 1.187866 -30.25613 1.127701
v 1.187866 -23.91135 1.127701
v 1.059788 -23.91135 2.141628
v 1.059788 -30.25613 2.141628
v 0.7720757 -23.91135 2.368767
v 0.7720757 -30.25613 2.368767
v 0.001060486 -30.25613 2.414825
v 0.001060486 -23.91135 2.414825
v 1.163891 -30.25613 0.7825737
v 0.975872 -30.25613 0.05824661
v 0.001060486 -30.25613 0.05824661
v 0.001060486 -30.25613 0.5579567
v 0.9500008 -30.25613 0.7825737
v 1.187866 -30.25613 1.127701
v 0.9802856 -30.25613 1.127701
v 1.059788 -30.25613 2.141628
v 0.8824921 -30.25613 2.141628
v 0.7720757 -30.25613 2.368767
v 0.001060486 -30.25613 2.246994
v 0.001060486 -30.25613 2.414825
v 0.8824921 -30.25613 2.141628
v 0.001060486 -30.74322 2.246994
v 0.001060486 -30.25613 2.246994
v 0.8824921 -30.74322 2.141628
v 0.9500008 -30.74322 0.7825737
v 0.001060486 -30.25613 0.5579567
v 0.001060486 -30.74322 0.5579567
v 0.9500008 -30.25613 0.7825737
v 0.9802856 -30.74322 1.127701
v 0.9802856 -30.25613 1.127701
v 0.8824921 -30.74322 2.141628
v 0.8824921 -30.25613 2.141628
v 0.001060486 -23.91135 0.05824661
v 1.187866 -23.91135 1.127701
v 1.059788 -23.91135 2.141628
v 1.163891 -23.91135 0.7825737
v 0.975872 -23.91135 0.05824661
v 0.7720757 -23.91135 2.368767
v 0.001060486 -23.91135 2.414825
v 0.6269569 -13.01998 2.629349
v 0.6269569 -14.70207 2.317032
v 0.6269569 -14.54118 2.629349
v 0.6269569 -12.85972 2.317032
v 0.6269569 -14.54118 2.629349
v -0.624836 -13.01998 2.629349
v 0.6269569 -13.01998 2.629349
v -0.624836 -14.54118 2.629349
v -0.624836 -14.54118 2.629349
v -0.624836 -12.85972 2.317032
v -0.624836 -13.01998 2.629349
v -0.624836 -14.70207 2.317032
v -0.624836 -13.01998 2.629349
v 0.6269569 -12.85972 2.317032
v 0.6269569 -13.01998 2.629349
v -0.624836 -12.85972 2.317032
v 0.6269569 -14.54118 2.629349
v -0.624836 -14.70207 2.317032
v -0.624836 -14.54118 2.629349
v 0.6269569 -14.54118 2.629349
v 0.6269569 -14.70207 2.317032
v -0.624836 -14.70207 2.317032
v 0.975872 -36.80407 0.06897354
v 1.163891 -30.45929 0.7933006
v 0.975872 -30.45929 0.06897354
v 1.163891 -36.80407 0.7933006
v 1.187866 -30.45929 1.138424
v 1.187866 -36.80407 1.138424
v 1.059788 -30.45929 2.152355
v 1.059788 -36.80407 2.152355
v 1.059788 -37.60916 2.152355
v 1.187866 -37.60916 1.138424
v 1.11026 -38.13599 1.138424
v 1.00174 -37.87352 2.152355
v 1.163891 -37.60916 0.7933006
v 1.081238 -38.19972 0.7933006
v 0.9335976 -38.26913 0.06897354
v 0.975872 -37.60916 0.06897354
v 0.7878494 -38.13789 2.152355
v 0.7001457 -38.52466 1.138424
v 0.6149712 -38.6376 0.7144318
v 0.4376755 -38.60668 0.06897354
v 0.4641724 -38.65085 0.147213
v 0.7853241 -37.96627 2.3246
v 0.001060486 -38.55305 1.209091
v 0.7714424 -38.14798 2.162449
v 0.6711235 -38.44957 1.209091
v 0.001060486 -38.25272 2.170021
v 0.001060486 -38.10192 2.451424
v 0.7070885 -38.01423 2.39716
v 0.6673393 -37.60916 2.520824
v 0.001060486 -37.60916 2.618622
v 0.001060486 -36.80407 2.621147
v 0.6578751 -36.80407 2.526505
v 0.001060486 -30.45929 0.5194702
v 0.001060486 -30.45929 0.06897354
v 0.975872 -30.45929 0.06897354
v 1.163891 -30.45929 0.7933006
v 0.9500008 -30.45929 0.7933006
v 1.187866 -30.45929 1.138424
v 0.9802856 -30.45929 1.138424
v 1.059788 -30.45929 2.152355
v 0.8824921 -30.45929 2.152355
v 0.7720757 -30.45929 2.379494
v 0.001060486 -30.45929 2.257721
v 0.001060486 -30.45929 2.425552
v 0.7720757 -36.80407 2.379494
v 0.001060486 -30.45929 2.425552
v 0.7720757 -30.45929 2.379494
v 0.001060486 -36.80407 2.425552
v 1.059788 -36.80407 2.152355
v 1.059788 -30.45929 2.152355
v 0.7720757 -37.60916 2.379494
v 1.059788 -37.60916 2.152355
v 1.00174 -37.87352 2.152355
v 0.7853241 -37.96627 2.3246
v 0.6149712 -38.6376 0.7144318
v 0.001060486 -38.63507 1.099308
v 0.7001457 -38.52466 1.138424
v 0.001060486 -38.71962 0.7005501
v 0.7001457 -38.52466 1.138424
v 0.001060486 -38.55305 1.209091
v 0.6711235 -38.44957 1.209091
v 0.001060486 -38.63507 1.099308
v 0.7714424 -38.14798 2.162449
v 0.7001457 -38.52466 1.138424
v 0.6711235 -38.44957 1.209091
v 0.7714424 -38.14798 2.162449
v 0.7878494 -38.13789 2.152355
v 0.7001457 -38.52466 1.138424
v 0.7853241 -37.96627 2.3246
v 0.001060486 -36.80407 2.425552
v 0.6578751 -36.80407 2.526505
v 0.001060486 -36.80407 2.621147
v 0.7720757 -36.80407 2.379494
v 0.7720757 -37.60916 2.379494
v 0.7070885 -38.01423 2.39716
v 0.6673393 -37.60916 2.520824
v 0.7853241 -37.96627 2.3246
v 0.7720757 -36.80407 2.379494
v 0.6578751 -36.80407 2.526505
v 0.7714424 -38.14798 2.162449
v 0.4376755 -38.60668 0.06897354
v 0.001060486 -38.70069 0.147213
v 0.4641724 -38.65085 0.147213
v 0.001060486 -38.64706 0.06897354
v 0.001060486 -38.70069 0.147213
v 0.6149712 -38.6376 0.7144318
v 0.4641724 -38.65085 0.147213
v 0.001060486 -38.71962 0.7005501
v -0.9737473 -30.45929 0.06897354
v -1.16177 -36.80407 0.7933006
v -0.9737473 -36.80407 0.06897354
v -1.16177 -30.45929 0.7933006
v -1.186378 -30.45929 1.138424
v -1.186378 -36.80407 1.138424
v -1.057663 -36.80407 2.152355
v -1.057663 -30.45929 2.152355
v -1.186378 -37.60916 1.138424
v -1.057663 -37.60916 2.152355
v -1.000248 -37.87352 2.152355
v -1.108772 -38.13599 1.138424
v -1.16177 -37.60916 0.7933006
v -1.079746 -38.19972 0.7933006
v -0.9737473 -37.60916 0.06897354
v -0.9314766 -38.26913 0.06897354
v -0.669632 -38.44957 1.209091
v 0.001060486 -38.25272 2.170021
v 0.001060486 -38.55305 1.209091
v -0.7693214 -38.14798 2.162449
v 0.001060486 -38.10192 2.451424
v -0.7049675 -38.01423 2.39716
v -0.6658478 -37.60916 2.520824
v 0.001060486 -37.60916 2.618622
v -0.7699547 -37.60916 2.379494
v -0.7832031 -37.96627 2.3246
v 0.001060486 -36.80407 2.621147
v -0.6557541 -36.80407 2.526505
v -0.7699547 -36.80407 2.379494
v -1.16177 -30.45929 0.7933006
v -0.9737473 -30.45929 0.06897354
v 0.001060486 -30.45929 0.06897354
v 0.001060486 -30.45929 0.5194702
v -0.948513 -30.45929 0.7933006
v -1.186378 -30.45929 1.138424
v -0.9787979 -30.45929 1.138424
v -1.057663 -30.45929 2.152355
v -0.8803711 -30.45929 2.152355
v -0.7699547 -30.45929 2.379494
v 0.001060486 -30.45929 2.257721
v 0.001060486 -30.45929 2.425552
v -0.7699547 -36.80407 2.379494
v 0.001060486 -30.45929 2.425552
v 0.001060486 -36.80407 2.425552
v -0.7699547 -30.45929 2.379494
v -1.057663 -30.45929 2.152355
v -1.057663 -36.80407 2.152355
v -1.057663 -37.60916 2.152355
v -0.7699547 -37.60916 2.379494
v -0.7832031 -37.96627 2.3246
v -1.000248 -37.87352 2.152355
v -0.7857285 -38.13789 2.152355
v -1.108772 -38.13599 1.138424
v -0.698658 -38.52466 1.138424
v -0.6134796 -38.6376 0.7144318
v 0.001060486 -38.63507 1.099308
v 0.001060486 -38.71962 0.7005501
v -1.079746 -38.19972 0.7933006
v -0.4620514 -38.65085 0.147213
v -0.9314766 -38.26913 0.06897354
v -0.4361839 -38.60668 0.06897354
v 0.001060486 -38.70069 0.147213
v 0.001060486 -38.64706 0.06897354
v -0.698658 -38.52466 1.138424
v 0.001060486 -38.55305 1.209091
v 0.001060486 -38.63507 1.099308
v -0.669632 -38.44957 1.209091
v -0.7857285 -38.13789 2.152355
v -0.669632 -38.44957 1.209091
v -0.698658 -38.52466 1.138424
v -0.7857285 -38.13789 2.152355
v -0.7693214 -38.14798 2.162449
v -0.669632 -38.44957 1.209091
v -0.7832031 -37.96627 2.3246
v 0.001060486 -36.80407 2.425552
v -0.6557541 -36.80407 2.526505
v -0.7699547 -36.80407 2.379494
v 0.001060486 -36.80407 2.621147
v -0.6134796 -38.6376 0.7144318
v 0.001060486 -38.70069 0.147213
v -0.4620514 -38.65085 0.147213
v 0.001060486 -38.71962 0.7005501
v -0.9737473 -4.037216 0.06897354
v -1.16177 -10.382 0.7933006
v -0.9737473 -10.382 0.06897354
v -1.16177 -4.037216 0.7933006
v -1.186378 -10.382 1.138424
v -1.186378 -4.037216 1.138424
v -1.057663 -10.382 2.152355
v -1.057663 -4.037216 2.152355
v -1.057663 -3.232128 2.152355
v -1.186378 -3.232128 1.138424
v -1.108772 -2.705292 1.138424
v -1.000248 -2.967762 2.152355
v -1.16177 -3.232128 0.7933006
v -1.079746 -2.641563 0.7933006
v -0.9314766 -2.572163 0.06897354
v -0.9737473 -3.232128 0.06897354
v -0.7857285 -2.703396 2.152355
v -0.698658 -2.316628 1.138424
v -0.6134796 -2.20369 0.7144318
v 0.001060486 -2.206211 1.099308
v 0.001060486 -2.121037 0.7005501
v -0.4620514 -2.190437 0.147213
v -0.4361839 -2.234604 0.06897354
v -0.7832031 -2.874382 2.3246
v 0.001060486 -2.141224 0.147213
v 0.001060486 -2.194225 0.06897354
v 0.001060486 -2.288235 1.209091
v -0.7693214 -2.693302 2.162449
v -0.669632 -2.391712 1.209091
v 0.001060486 -2.588566 2.170021
v 0.001060486 -2.739361 2.451424
v -0.7049675 -2.827061 2.39716
v -0.7832031 -2.874382 2.3246
v 0.001060486 -10.382 0.5194702
v 0.001060486 -10.382 0.06897354
v -0.9737473 -10.382 0.06897354
v -1.16177 -10.382 0.7933006
v -0.948513 -10.382 0.7933006
v -1.186378 -10.382 1.138424
v -0.9787979 -10.382 1.138424
v -1.057663 -10.382 2.152355
v -0.8803711 -10.382 2.152355
v -0.7699547 -10.382 2.379494
v 0.001060486 -10.382 2.257721
v 0.001060486 -10.382 2.425552
v -0.7699547 -4.037216 2.379494
v 0.001060486 -10.382 2.425552
v -0.7699547 -10.382 2.379494
v 0.001060486 -4.037216 2.425552
v -1.057663 -4.037216 2.152355
v -1.057663 -10.382 2.152355
v -0.7699547 -3.232128 2.379494
v -1.057663 -3.232128 2.152355
v -1.000248 -2.967762 2.152355
v -0.7832031 -2.874382 2.3246
v -0.6658478 -3.232128 2.520824
v 0.001060486 -2.739361 2.451424
v 0.001060486 -3.232128 2.618622
v -0.7049675 -2.827061 2.39716
v -0.7699547 -3.232128 2.379494
v -0.7832031 -2.874382 2.3246
v 0.001060486 -4.037216 2.621147
v -0.6557541 -4.037216 2.526505
v -0.7699547 -4.037216 2.379494
v -0.698658 -2.316628 1.138424
v 0.001060486 -2.288235 1.209091
v -0.669632 -2.391712 1.209091
v 0.001060486 -2.206211 1.099308
v -0.7693214 -2.693302 2.162449
v -0.698658 -2.316628 1.138424
v -0.669632 -2.391712 1.209091
v -0.7693214 -2.693302 2.162449
v -0.7857285 -2.703396 2.152355
v -0.698658 -2.316628 1.138424
v -0.7832031 -2.874382 2.3246
v 0.001060486 -4.037216 2.425552
v -0.6557541 -4.037216 2.526505
v 0.001060486 -4.037216 2.621147
v -0.7699547 -4.037216 2.379494
v 0.001060486 -2.141224 0.147213
v -0.6134796 -2.20369 0.7144318
v -0.4620514 -2.190437 0.147213
v 0.001060486 -2.121037 0.7005501
v -0.8803711 -10.86909 2.152355
v 0.001060486 -10.382 2.257721
v 0.001060486 -10.86909 2.257721
v -0.8803711 -10.382 2.152355
v -0.9787979 -10.86909 1.138424
v -0.9787979 -10.382 1.138424
v -0.948513 -10.382 0.7933006
v -0.948513 -10.86909 0.7933006
v -0.948513 -10.382 0.7933006
v 0.001060486 -10.86909 0.5194702
v 0.001060486 -10.382 0.5194702
v -0.948513 -10.86909 0.7933006
v 0.975872 -10.382 0.06897354
v 1.163891 -4.037216 0.7933006
v 0.975872 -4.037216 0.06897354
v 1.163891 -10.382 0.7933006
v 1.187866 -10.382 1.138424
v 1.187866 -4.037216 1.138424
v 1.059788 -4.037216 2.152355
v 1.059788 -10.382 2.152355
v 0.7720757 -4.037216 2.379494
v 0.7720757 -10.382 2.379494
v 0.001060486 -10.382 2.425552
v 0.001060486 -4.037216 2.425552
v 1.187866 -3.232128 1.138424
v 1.059788 -3.232128 2.152355
v 1.00174 -2.967762 2.152355
v 1.11026 -2.705292 1.138424
v 1.163891 -3.232128 0.7933006
v 1.081238 -2.641563 0.7933006
v 0.975872 -3.232128 0.06897354
v 0.9335976 -2.572163 0.06897354
v 0.7853241 -2.874382 2.3246
v 0.7720757 -3.232128 2.379494
v 0.7878494 -2.703396 2.152355
v 0.7001457 -2.316628 1.138424
v 0.4376755 -2.234604 0.06897354
v 0.4641724 -2.190437 0.147213
v 0.6711235 -2.391712 1.209091
v 0.001060486 -2.588566 2.170021
v 0.001060486 -2.288235 1.209091
v 0.7714424 -2.693302 2.162449
v 0.001060486 -2.739361 2.451424
v 0.7070885 -2.827061 2.39716
v 1.163891 -10.382 0.7933006
v 0.975872 -10.382 0.06897354
v 0.001060486 -10.382 0.06897354
v 0.001060486 -10.382 0.5194702
v 0.9500008 -10.382 0.7933006
v 1.187866 -10.382 1.138424
v 0.9802856 -10.382 1.138424
v 1.059788 -10.382 2.152355
v 0.8824921 -10.382 2.152355
v 0.7720757 -10.382 2.379494
v 0.001060486 -10.382 2.257721
v 0.001060486 -10.382 2.425552
v 0.001060486 -2.739361 2.451424
v 0.6673393 -3.232128 2.520824
v 0.001060486 -3.232128 2.618622
v 0.7070885 -2.827061 2.39716
v 0.7720757 -3.232128 2.379494
v 0.7853241 -2.874382 2.3246
v 0.001060486 -4.037216 2.621147
v 0.6578751 -4.037216 2.526505
v 0.7720757 -4.037216 2.379494
v 0.7714424 -2.693302 2.162449
v 0.6149712 -2.20369 0.7144318
v 0.001060486 -2.206211 1.099308
v 0.001060486 -2.121037 0.7005501
v 0.7001457 -2.316628 1.138424
v 1.11026 -2.705292 1.138424
v 1.081238 -2.641563 0.7933006
v 0.4641724 -2.190437 0.147213
v 0.4376755 -2.234604 0.06897354
v 0.001060486 -2.141224 0.147213
v 0.001060486 -2.194225 0.06897354
v 0.7001457 -2.316628 1.138424
v 0.001060486 -2.288235 1.209091
v 0.001060486 -2.206211 1.099308
v 0.6711235 -2.391712 1.209091
v 0.7878494 -2.703396 2.152355
v 0.6711235 -2.391712 1.209091
v 0.7001457 -2.316628 1.138424
v 0.7878494 -2.703396 2.152355
v 0.7714424 -2.693302 2.162449
v 0.6711235 -2.391712 1.209091
v 0.7853241 -2.874382 2.3246
v 0.001060486 -4.037216 2.425552
v 0.6578751 -4.037216 2.526505
v 0.7720757 -4.037216 2.379494
v 0.001060486 -4.037216 2.621147
v 0.6149712 -2.20369 0.7144318
v 0.001060486 -2.141224 0.147213
v 0.4641724 -2.190437 0.147213
v 0.001060486 -2.121037 0.7005501
v 0.8824921 -10.382 2.152355
v 0.001060486 -10.86909 2.257721
v 0.001060486 -10.382 2.257721
v 0.8824921 -10.86909 2.152355
v 0.9500008 -10.86909 0.7933006
v 0.001060486 -10.382 0.5194702
v 0.001060486 -10.86909 0.5194702
v 0.9500008 -10.382 0.7933006
v 0.9802856 -10.86909 1.138424
v 0.9802856 -10.382 1.138424
v 0.8824921 -10.86909 2.152355
v 0.8824921 -10.382 2.152355
v 0.6269569 -6.432911 2.629349
v 0.6269569 -8.115011 2.317032
v 0.6269569 -7.95475 2.629349
v 0.6269569 -6.272652 2.317032
v 0.6269569 -7.95475 2.629349
v -0.624836 -6.432911 2.629349
v 0.6269569 -6.432911 2.629349
v -0.624836 -7.95475 2.629349
v -0.624836 -7.95475 2.629349
v -0.624836 -6.272652 2.317032
v -0.624836 -6.432911 2.629349
v -0.624836 -8.115011 2.317032
v -0.624836 -6.432911 2.629349
v 0.6269569 -6.272652 2.317032
v 0.6269569 -6.432911 2.629349
v -0.624836 -6.272652 2.317032
v 0.6269569 -7.95475 2.629349
v -0.624836 -8.115011 2.317032
v -0.624836 -7.95475 2.629349
v 0.6269569 -7.95475 2.629349
v 0.6269569 -8.115011 2.317032
v -0.624836 -8.115011 2.317032
v -0.9737473 -10.63248 0.05824661
v -1.16177 -16.97726 0.7825737
v -0.9737473 -16.97726 0.05824661
v -1.16177 -10.63248 0.7825737
v -1.186378 -16.97726 1.127701
v -1.186378 -10.63248 1.127701
v -1.057663 -16.97726 2.141628
v -1.057663 -10.63248 2.141628
v -0.7699547 -16.97726 2.368767
v -0.7699547 -10.63248 2.368767
v 0.001060486 -16.97726 2.414825
v 0.001060486 -10.63248 2.414825
v 0.001060486 -16.97726 0.5579567
v 0.001060486 -16.97726 0.05824661
v -0.9737473 -16.97726 0.05824661
v -1.16177 -16.97726 0.7825737
v -0.948513 -16.97726 0.7825737
v -1.186378 -16.97726 1.127701
v -0.9787979 -16.97726 1.127701
v -1.057663 -16.97726 2.141628
v -0.8803711 -16.97726 2.141628
v -0.7699547 -16.97726 2.368767
v 0.001060486 -16.97726 2.246994
v 0.001060486 -16.97726 2.414825
v -0.8803711 -17.46435 2.141628
v 0.001060486 -16.97726 2.246994
v 0.001060486 -17.46435 2.246994
v -0.8803711 -16.97726 2.141628
v -0.9787979 -17.46435 1.127701
v -0.9787979 -16.97726 1.127701
v -0.948513 -16.97726 0.7825737
v -0.948513 -17.46435 0.7825737
v -0.948513 -16.97726 0.7825737
v 0.001060486 -17.46435 0.5579567
v 0.001060486 -16.97726 0.5579567
v -0.948513 -17.46435 0.7825737
v -1.186378 -10.63248 1.127701
v 0.001060486 -10.63248 0.05824661
v -1.057663 -10.63248 2.141628
v -1.16177 -10.63248 0.7825737
v -0.9737473 -10.63248 0.05824661
v -0.7699547 -10.63248 2.368767
v 0.001060486 -10.63248 2.414825
v 0.975872 -16.97726 0.05824661
v 1.163891 -10.63248 0.7825737
v 0.975872 -10.63248 0.05824661
v 1.163891 -16.97726 0.7825737
v 1.187866 -16.97726 1.127701
v 1.187866 -10.63248 1.127701
v 1.059788 -10.63248 2.141628
v 1.059788 -16.97726 2.141628
v 0.7720757 -10.63248 2.368767
v 0.7720757 -16.97726 2.368767
v 0.001060486 -16.97726 2.414825
v 0.001060486 -10.63248 2.414825
v 1.163891 -16.97726 0.7825737
v 0.975872 -16.97726 0.05824661
v 0.001060486 -16.97726 0.05824661
v 0.001060486 -16.97726 0.5579567
v 0.9500008 -16.97726 0.7825737
v 1.187866 -16.97726 1.127701
v 0.9802856 -16.97726 1.127701
v 1.059788 -16.97726 2.141628
v 0.8824921 -16.97726 2.141628
v 0.7720757 -16.97726 2.368767
v 0.001060486 -16.97726 2.246994
v 0.001060486 -16.97726 2.414825
v 0.8824921 -16.97726 2.141628
v 0.001060486 -17.46435 2.246994
v 0.001060486 -16.97726 2.246994
v 0.8824921 -17.46435 2.141628
v 0.9500008 -17.46435 0.7825737
v 0.001060486 -16.97726 0.5579567
v 0.001060486 -17.46435 0.5579567
v 0.9500008 -16.97726 0.7825737
v 0.9802856 -17.46435 1.127701
v 0.9802856 -16.97726 1.127701
v 0.8824921 -17.46435 2.141628
v 0.8824921 -16.97726 2.141628
v 0.001060486 -10.63248 0.05824661
v 1.187866 -10.63248 1.127701
v 1.059788 -10.63248 2.141628
v 1.163891 -10.63248 0.7825737
v 0.975872 -10.63248 0.05824661
v 0.7720757 -10.63248 2.368767
v 0.001060486 -10.63248 2.414825
v -0.9737473 -17.27948 0.05824661
v -1.16177 -23.62427 0.7825737
v -0.9737473 -23.62427 0.05824661
v -1.16177 -17.27948 0.7825737
v -1.186378 -23.62427 1.127701
v -1.186378 -17.27948 1.127701
v -1.057663 -23.62427 2.141628
v -1.057663 -17.27948 2.141628
v -0.7699547 -23.62427 2.368767
v -0.7699547 -17.27948 2.368767
v 0.001060486 -23.62427 2.414825
v 0.001060486 -17.27948 2.414825
v 0.001060486 -23.62427 0.5579567
v 0.001060486 -23.62427 0.05824661
v -0.9737473 -23.62427 0.05824661
v -1.16177 -23.62427 0.7825737
v -0.948513 -23.62427 0.7825737
v -1.186378 -23.62427 1.127701
v -0.9787979 -23.62427 1.127701
v -1.057663 -23.62427 2.141628
v -0.8803711 -23.62427 2.141628
v -0.7699547 -23.62427 2.368767
v 0.001060486 -23.62427 2.246994
v 0.001060486 -23.62427 2.414825
v -0.8803711 -24.11135 2.141628
v 0.001060486 -23.62427 2.246994
v 0.001060486 -24.11135 2.246994
v -0.8803711 -23.62427 2.141628
v -0.9787979 -24.11135 1.127701
v -0.9787979 -23.62427 1.127701
v -0.948513 -23.62427 0.7825737
v -0.948513 -24.11135 0.7825737
v -0.948513 -23.62427 0.7825737
v 0.001060486 -24.11135 0.5579567
v 0.001060486 -23.62427 0.5579567
v -0.948513 -24.11135 0.7825737
v -1.186378 -17.27948 1.127701
v 0.001060486 -17.27948 0.05824661
v -1.057663 -17.27948 2.141628
v -1.16177 -17.27948 0.7825737
v -0.9737473 -17.27948 0.05824661
v -0.7699547 -17.27948 2.368767
v 0.001060486 -17.27948 2.414825
v 0.975872 -23.62427 0.05824661
v 1.163891 -17.27948 0.7825737
v 0.975872 -17.27948 0.05824661
v 1.163891 -23.62427 0.7825737
v 1.187866 -23.62427 1.127701
v 1.187866 -17.27948 1.127701
v 1.059788 -17.27948 2.141628
v 1.059788 -23.62427 2.141628
v 0.7720757 -17.27948 2.368767
v 0.7720757 -23.62427 2.368767
v 0.001060486 -23.62427 2.414825
v 0.001060486 -17.27948 2.414825
v 1.163891 -23.62427 0.7825737
v 0.975872 -23.62427 0.05824661
v 0.001060486 -23.62427 0.05824661
v 0.001060486 -23.62427 0.5579567
v 0.9500008 -23.62427 0.7825737
v 1.187866 -23.62427 1.127701
v 0.9802856 -23.62427 1.127701
v 1.059788 -23.62427 2.141628
v 0.8824921 -23.62427 2.141628
v 0.7720757 -23.62427 2.368767
v 0.001060486 -23.62427 2.246994
v 0.001060486 -23.62427 2.414825
v 0.8824921 -23.62427 2.141628
v 0.001060486 -24.11135 2.246994
v 0.001060486 -23.62427 2.246994
v 0.8824921 -24.11135 2.141628
v 0.9500008 -24.11135 0.7825737
v 0.001060486 -23.62427 0.5579567
v 0.001060486 -24.11135 0.5579567
v 0.9500008 -23.62427 0.7825737
v 0.9802856 -24.11135 1.127701
v 0.9802856 -23.62427 1.127701
v 0.8824921 -24.11135 2.141628
v 0.8824921 -23.62427 2.141628
v 0.001060486 -17.27948 0.05824661
v 1.187866 -17.27948 1.127701
v 1.059788 -17.27948 2.141628
v 1.163891 -17.27948 0.7825737
v 0.975872 -17.27948 0.05824661
v 0.7720757 -17.27948 2.368767
v 0.001060486 -17.27948 2.414825
v 0.6269569 -19.7143 2.629349
v 0.6269569 -21.3964 2.317032
v 0.6269569 -21.23614 2.629349
v 0.6269569 -19.55404 2.317032
v 0.6269569 -21.23614 2.629349
v -0.624836 -19.7143 2.629349
v 0.6269569 -19.7143 2.629349
v -0.624836 -21.23614 2.629349
v -0.624836 -21.23614 2.629349
v -0.624836 -19.55404 2.317032
v -0.624836 -19.7143 2.629349
v -0.624836 -21.3964 2.317032
v -0.624836 -19.7143 2.629349
v 0.6269569 -19.55404 2.317032
v 0.6269569 -19.7143 2.629349
v -0.624836 -19.55404 2.317032
v 0.6269569 -21.23614 2.629349
v -0.624836 -21.3964 2.317032
v -0.624836 -21.23614 2.629349
v 0.6269569 -21.23614 2.629349
v 0.6269569 -21.3964 2.317032
v -0.624836 -21.3964 2.317032
v 0.6269569 -26.29001 2.629349
v 0.6269569 -27.97147 2.317032
v 0.6269569 -27.81121 2.629349
v 0.6269569 -26.12912 2.317032
v 0.6269569 -27.81121 2.629349
v -0.624836 -26.29001 2.629349
v 0.6269569 -26.29001 2.629349
v -0.624836 -27.81121 2.629349
v -0.624836 -27.81121 2.629349
v -0.624836 -26.12912 2.317032
v -0.624836 -26.29001 2.629349
v -0.624836 -27.97147 2.317032
v -0.624836 -26.29001 2.629349
v 0.6269569 -26.12912 2.317032
v 0.6269569 -26.29001 2.629349
v -0.624836 -26.12912 2.317032
v 0.6269569 -27.81121 2.629349
v -0.624836 -27.97147 2.317032
v -0.624836 -27.81121 2.629349
v 0.6269569 -27.81121 2.629349
v 0.6269569 -27.97147 2.317032
v -0.624836 -27.97147 2.317032
v 0.6269569 -32.90862 2.629349
v 0.6269569 -34.59072 2.317032
v 0.6269569 -34.42982 2.629349
v 0.6269569 -32.74773 2.317032
v 0.6269569 -34.42982 2.629349
v -0.624836 -32.90862 2.629349
v 0.6269569 -32.90862 2.629349
v -0.624836 -34.42982 2.629349
v -0.624836 -34.42982 2.629349
v -0.624836 -32.74773 2.317032
v -0.624836 -32.90862 2.629349
v -0.624836 -34.59072 2.317032
v -0.624836 -32.90862 2.629349
v 0.6269569 -32.74773 2.317032
v 0.6269569 -32.90862 2.629349
v -0.624836 -32.74773 2.317032
v 0.6269569 -34.42982 2.629349
v -0.624836 -34.59072 2.317032
v -0.624836 -34.42982 2.629349
v 0.6269569 -34.42982 2.629349
v 0.6269569 -34.59072 2.317032
v -0.624836 -34.59072 2.317032
vt 0.6311598 0.664987
vt 0.00390625 0.7384405
vt 0.00390625 0.664987
vt 0.6311598 0.7384405
vt 0.00390625 0.7722677
vt 0.6311598 0.7722677
vt 0.00390625 0.8708499
vt 0.6321263 0.8708499
vt 0.00390625 0.9095096
vt 0.6321263 0.9095096
vt 0.00390625 0.984896
vt 0.6321263 0.984896
vt 0.2464958 0.5132477
vt 0.3122173 0.5132477
vt 0.3122173 0.6321263
vt 0.2175011 0.6553221
vt 0.2175011 0.6292268
vt 0.1720759 0.6582216
vt 0.1720759 0.6321263
vt 0.04063296 0.6417912
vt 0.04063296 0.6205284
vt 0.0106717 0.6069975
vt 0.02613558 0.5132477
vt 0.004872743 0.5132477
vt 0.3731063 0.6417912
vt 0.3218822 0.6553221
vt 0.3218822 0.6417912
vt 0.3731063 0.6553221
vt 0.4310959 0.6417912
vt 0.4310959 0.6553221
vt 0.4504257 0.6553221
vt 0.4504257 0.6417912
vt 0.4504257 0.6553221
vt 0.5093818 0.6417912
vt 0.5093818 0.6553221
vt 0.4504257 0.6417912
vt 0.1711094 0.6572551
vt 0.3122173 0.5132477
vt 0.03966647 0.6417912
vt 0.2165346 0.6543556
vt 0.3122173 0.6321263
vt 0.009705205 0.6069975
vt 0.00390625 0.5132477
vt 0.00390625 0.664987
vt 0.6311598 0.7384405
vt 0.6311598 0.664987
vt 0.00390625 0.7384405
vt 0.00390625 0.7722677
vt 0.6311598 0.7722677
vt 0.6321263 0.8708499
vt 0.00390625 0.8708499
vt 0.6321263 0.9095096
vt 0.00390625 0.9095096
vt 0.00390625 0.984896
vt 0.6321263 0.984896
vt 0.2175011 0.6553221
vt 0.3122173 0.6321263
vt 0.3122173 0.5132477
vt 0.2464958 0.5132477
vt 0.2175011 0.6292268
vt 0.1720759 0.6582216
vt 0.1720759 0.6321263
vt 0.04063296 0.6417912
vt 0.04063296 0.6205284
vt 0.0106717 0.6069975
vt 0.02613558 0.5132477
vt 0.004872743 0.5132477
vt 0.3731063 0.6553221
vt 0.3218822 0.6417912
vt 0.3218822 0.6553221
vt 0.3731063 0.6417912
vt 0.4504257 0.6417912
vt 0.5093818 0.6553221
vt 0.5093818 0.6417912
vt 0.4504257 0.6553221
vt 0.4310959 0.6417912
vt 0.4310959 0.6553221
vt 0.3731063 0.6417912
vt 0.3731063 0.6553221
vt 0.3122173 0.5132477
vt 0.1711094 0.6572551
vt 0.03966647 0.6417912
vt 0.2165346 0.6543556
vt 0.3122173 0.6321263
vt 0.009705205 0.6069975
vt 0.00390625 0.5132477
vt 0.8921127 0.8969452
vt 0.7799996 0.8756824
vt 0.7799996 0.8969452
vt 0.8921127 0.8756824
vt 0.7635692 0.9046772
vt 0.8756824 0.9906949
vt 0.8756824 0.9046772
vt 0.7635692 0.9906949
vt 0.8921127 0.8969452
vt 0.7799996 0.8756824
vt 0.7799996 0.8969452
vt 0.8921127 0.8756824
vt 0.8756824 0.9906949
vt 0.7510049 0.9046772
vt 0.8756824 0.9046772
vt 0.7510049 0.9897285
vt 0.7635692 0.9046772
vt 0.8892133 0.9046772
vt 0.7635692 0.9906949
vt 0.7635692 0.9046772
vt 0.8892133 0.9897285
vt 0.8892133 0.9046772
vt 0.6311598 0.664987
vt 0.00390625 0.7384405
vt 0.00390625 0.664987
vt 0.6311598 0.7384405
vt 0.00390625 0.7722677
vt 0.6311598 0.7722677
vt 0.00390625 0.8708499
vt 0.6321263 0.8708499
vt 0.7142782 0.8708499
vt 0.7104122 0.7722677
vt 0.7626027 0.7722677
vt 0.7403734 0.8698834
vt 0.7104122 0.7384405
vt 0.7684017 0.7384405
vt 0.7799996 0.6659535
vt 0.7133117 0.6659535
vt 0.7761337 0.8747159
vt 0.8186593 0.7751672
vt 0.8312237 0.731675
vt 0.8389556 0.6659535
vt 0.8379892 0.676585
vt 0.7587368 0.8930792
vt 0.992628 0.7162111
vt 0.9133756 0.8176928
vt 0.924007 0.7181441
vt 0.992628 0.8089944
vt 0.992628 0.8389556
vt 0.9211075 0.8437881
vt 0.924007 0.8872803
vt 0.9906949 0.8901798
vt 0.9906949 0.9665326
vt 0.9249735 0.9674991
vt 0.2542278 0.5132477
vt 0.3122173 0.5132477
vt 0.3122173 0.6311598
vt 0.2175011 0.6543556
vt 0.2175011 0.6282603
vt 0.1720759 0.6572551
vt 0.1720759 0.6321263
vt 0.04063296 0.6417912
vt 0.04063296 0.6205284
vt 0.0106717 0.6069975
vt 0.02613558 0.5132477
vt 0.004872743 0.5132477
vt 0.6321263 0.9095096
vt 0.00390625 0.984896
vt 0.00390625 0.9095096
vt 0.6321263 0.984896
vt 0.6321263 0.8708499
vt 0.00390625 0.8708499
vt 0.7200771 0.9085431
vt 0.7142782 0.8708499
vt 0.7403734 0.8698834
vt 0.7587368 0.8930792
vt 0.8312237 0.731675
vt 0.8892133 0.7742007
vt 0.8186593 0.7751672
vt 0.8921127 0.733608
vt 0.8186593 0.7751672
vt 0.8872803 0.7877316
vt 0.8205923 0.7857986
vt 0.8892133 0.7742007
vt 0.7771001 0.8756824
vt 0.8186593 0.7751672
vt 0.8205923 0.7857986
vt 0.7771001 0.8756824
vt 0.7761337 0.8747159
vt 0.8186593 0.7751672
vt 0.7587368 0.8930792
vt 0.9906949 0.9819965
vt 0.9249735 0.9674991
vt 0.9906949 0.9665326
vt 0.9133756 0.98103
vt 0.9066101 0.8863138
vt 0.9211075 0.8437881
vt 0.924007 0.8872803
vt 0.9095096 0.8437881
vt 0.9066101 0.9684656
vt 0.9249735 0.9674991
vt 0.9133756 0.8176928
vt 0.8389556 0.6659535
vt 0.8805149 0.6785179
vt 0.8379892 0.676585
vt 0.8795484 0.6659535
vt 0.8737494 0.7915975
vt 0.8128604 0.8524866
vt 0.8254248 0.792564
vt 0.8737494 0.8505536
vt 0.00390625 0.664987
vt 0.6311598 0.7384405
vt 0.6311598 0.664987
vt 0.00390625 0.7384405
vt 0.00390625 0.7722677
vt 0.6311598 0.7722677
vt 0.6321263 0.8708499
vt 0.00390625 0.8708499
vt 0.7104122 0.7722677
vt 0.7142782 0.8708499
vt 0.7403734 0.8698834
vt 0.7626027 0.7722677
vt 0.7104122 0.7384405
vt 0.7684017 0.7384405
vt 0.7133117 0.6659535
vt 0.7799996 0.6659535
vt 0.924007 0.7181441
vt 0.992628 0.8089944
vt 0.992628 0.7162111
vt 0.9133756 0.8176928
vt 0.992628 0.8389556
vt 0.9211075 0.8437881
vt 0.924007 0.8872803
vt 0.9906949 0.8901798
vt 0.9066101 0.8863138
vt 0.9095096 0.8437881
vt 0.9906949 0.9665326
vt 0.9249735 0.9674991
vt 0.9066101 0.9684656
vt 0.2175011 0.6543556
vt 0.3122173 0.6311598
vt 0.3122173 0.5132477
vt 0.2542278 0.5132477
vt 0.2175011 0.6282603
vt 0.1720759 0.6572551
vt 0.1720759 0.6321263
vt 0.04063296 0.6417912
vt 0.04063296 0.6205284
vt 0.0106717 0.6069975
vt 0.02613558 0.5132477
vt 0.004872743 0.5132477
vt 0.6321263 0.9095096
vt 0.00390625 0.984896
vt 0.6321263 0.984896
vt 0.00390625 0.9095096
vt 0.00390625 0.8708499
vt 0.6321263 0.8708499
vt 0.7142782 0.8708499
vt 0.7200771 0.9085431
vt 0.7587368 0.8930792
vt 0.7403734 0.8698834
vt 0.7761337 0.8747159
vt 0.7626027 0.7722677
vt 0.8186593 0.7751672
vt 0.8312237 0.731675
vt 0.8892133 0.7742007
vt 0.8921127 0.733608
vt 0.7684017 0.7384405
vt 0.8379892 0.676585
vt 0.7799996 0.6659535
vt 0.8389556 0.6659535
vt 0.8805149 0.6785179
vt 0.8795484 0.6659535
vt 0.8186593 0.7751672
vt 0.8872803 0.7877316
vt 0.8892133 0.7742007
vt 0.8205923 0.7857986
vt 0.7761337 0.8747159
vt 0.8205923 0.7857986
vt 0.8186593 0.7751672
vt 0.7761337 0.8747159
vt 0.7771001 0.8756824
vt 0.8205923 0.7857986
vt 0.7587368 0.8930792
vt 0.9906949 0.9819965
vt 0.9249735 0.9674991
vt 0.9133756 0.98103
vt 0.9906949 0.9665326
vt 0.8089944 0.8476541
vt 0.8737494 0.7915975
vt 0.8273578 0.7906311
vt 0.8737494 0.8505536
vt 0.6311598 0.664987
vt 0.00390625 0.7384405
vt 0.00390625 0.664987
vt 0.6311598 0.7384405
vt 0.00390625 0.7722677
vt 0.6311598 0.7722677
vt 0.00390625 0.8708499
vt 0.6321263 0.8708499
vt 0.7142782 0.8708499
vt 0.7104122 0.7722677
vt 0.7626027 0.7722677
vt 0.7403734 0.8698834
vt 0.7104122 0.7384405
vt 0.7684017 0.7384405
vt 0.7799996 0.6659535
vt 0.7133117 0.6659535
vt 0.7761337 0.8747159
vt 0.8186593 0.7751672
vt 0.8312237 0.731675
vt 0.8892133 0.7742007
vt 0.8921127 0.733608
vt 0.8379892 0.676585
vt 0.8389556 0.6659535
vt 0.7587368 0.8930792
vt 0.8805149 0.6785179
vt 0.8795484 0.6659535
vt 0.992628 0.7162111
vt 0.9133756 0.8176928
vt 0.924007 0.7181441
vt 0.992628 0.8089944
vt 0.992628 0.8389556
vt 0.9211075 0.8437881
vt 0.9095096 0.8437881
vt 0.2542278 0.5132477
vt 0.3122173 0.5132477
vt 0.3122173 0.6311598
vt 0.2175011 0.6543556
vt 0.2175011 0.6282603
vt 0.1720759 0.6572551
vt 0.1720759 0.6321263
vt 0.04063296 0.6417912
vt 0.04063296 0.6205284
vt 0.0106717 0.6069975
vt 0.02613558 0.5132477
vt 0.004872743 0.5132477
vt 0.6321263 0.9095096
vt 0.00390625 0.984896
vt 0.00390625 0.9095096
vt 0.6321263 0.984896
vt 0.6321263 0.8708499
vt 0.00390625 0.8708499
vt 0.7200771 0.9085431
vt 0.7142782 0.8708499
vt 0.7403734 0.8698834
vt 0.7587368 0.8930792
vt 0.924007 0.8872803
vt 0.992628 0.8389556
vt 0.9906949 0.8901798
vt 0.9211075 0.8437881
vt 0.9066101 0.8863138
vt 0.9095096 0.8437881
vt 0.9906949 0.9665326
vt 0.9249735 0.9674991
vt 0.9066101 0.9684656
vt 0.8186593 0.7751672
vt 0.8872803 0.7877316
vt 0.8205923 0.7857986
vt 0.8892133 0.7742007
vt 0.7771001 0.8756824
vt 0.8186593 0.7751672
vt 0.8205923 0.7857986
vt 0.7771001 0.8756824
vt 0.7761337 0.8747159
vt 0.8186593 0.7751672
vt 0.7587368 0.8930792
vt 0.9906949 0.9819965
vt 0.9249735 0.9674991
vt 0.9906949 0.9665326
vt 0.9133756 0.98103
vt 0.8737494 0.7915975
vt 0.8128604 0.8524866
vt 0.8254248 0.792564
vt 0.8737494 0.8505536
vt 0.3731063 0.6417912
vt 0.3218822 0.6553221
vt 0.3218822 0.6417912
vt 0.3731063 0.6553221
vt 0.4310959 0.6417912
vt 0.4310959 0.6553221
vt 0.4513922 0.6553221
vt 0.4513922 0.6417912
vt 0.4513922 0.6553221
vt 0.5103483 0.6417912
vt 0.5103483 0.6553221
vt 0.4513922 0.6417912
vt 0.00390625 0.664987
vt 0.6311598 0.7384405
vt 0.6311598 0.664987
vt 0.00390625 0.7384405
vt 0.00390625 0.7722677
vt 0.6311598 0.7722677
vt 0.6321263 0.8708499
vt 0.00390625 0.8708499
vt 0.6321263 0.9095096
vt 0.00390625 0.9095096
vt 0.00390625 0.984896
vt 0.6321263 0.984896
vt 0.7104122 0.7722677
vt 0.7142782 0.8708499
vt 0.7403734 0.8698834
vt 0.7626027 0.7722677
vt 0.7104122 0.7384405
vt 0.7684017 0.7384405
vt 0.7133117 0.6659535
vt 0.7799996 0.6659535
vt 0.7587368 0.8930792
vt 0.7200771 0.9085431
vt 0.7761337 0.8747159
vt 0.8186593 0.7751672
vt 0.8389556 0.6659535
vt 0.8379892 0.676585
vt 0.924007 0.7181441
vt 0.992628 0.8089944
vt 0.992628 0.7162111
vt 0.9133756 0.8176928
vt 0.992628 0.8389556
vt 0.9211075 0.8437881
vt 0.2175011 0.6543556
vt 0.3122173 0.6311598
vt 0.3122173 0.5132477
vt 0.2542278 0.5132477
vt 0.2175011 0.6282603
vt 0.1720759 0.6572551
vt 0.1720759 0.6321263
vt 0.04063296 0.6417912
vt 0.04063296 0.6205284
vt 0.0106717 0.6069975
vt 0.02613558 0.5132477
vt 0.004872743 0.5132477
vt 0.992628 0.8389556
vt 0.924007 0.8872803
vt 0.9906949 0.8901798
vt 0.9211075 0.8437881
vt 0.9066101 0.8863138
vt 0.9095096 0.8437881
vt 0.9906949 0.9665326
vt 0.9249735 0.9674991
vt 0.9066101 0.9684656
vt 0.9133756 0.8176928
vt 0.8312237 0.731675
vt 0.8892133 0.7742007
vt 0.8921127 0.733608
vt 0.8186593 0.7751672
vt 0.7626027 0.7722677
vt 0.7684017 0.7384405
vt 0.8379892 0.676585
vt 0.8389556 0.6659535
vt 0.8805149 0.6785179
vt 0.8795484 0.6659535
vt 0.8186593 0.7751672
vt 0.8872803 0.7877316
vt 0.8892133 0.7742007
vt 0.8205923 0.7857986
vt 0.7761337 0.8747159
vt 0.8205923 0.7857986
vt 0.8186593 0.7751672
vt 0.7761337 0.8747159
vt 0.7771001 0.8756824
vt 0.8205923 0.7857986
vt 0.7587368 0.8930792
vt 0.9906949 0.9819965
vt 0.9249735 0.9674991
vt 0.9133756 0.98103
vt 0.9906949 0.9665326
vt 0.8089944 0.8476541
vt 0.8737494 0.7915975
vt 0.8273578 0.7906311
vt 0.8737494 0.8505536
vt 0.3731063 0.6553221
vt 0.3218822 0.6417912
vt 0.3218822 0.6553221
vt 0.3731063 0.6417912
vt 0.4513922 0.6417912
vt 0.5103483 0.6553221
vt 0.5103483 0.6417912
vt 0.4513922 0.6553221
vt 0.4310959 0.6417912
vt 0.4310959 0.6553221
vt 0.3731063 0.6417912
vt 0.3731063 0.6553221
vt 0.8921127 0.8969452
vt 0.7799996 0.8756824
vt 0.7799996 0.8969452
vt 0.8921127 0.8756824
vt 0.7635692 0.9046772
vt 0.8756824 0.9906949
vt 0.8756824 0.9046772
vt 0.7635692 0.9906949
vt 0.8921127 0.8969452
vt 0.7799996 0.8756824
vt 0.7799996 0.8969452
vt 0.8921127 0.8756824
vt 0.8756824 0.9906949
vt 0.7510049 0.9046772
vt 0.8756824 0.9046772
vt 0.7510049 0.9897285
vt 0.7635692 0.9046772
vt 0.8892133 0.9046772
vt 0.7635692 0.9906949
vt 0.7635692 0.9046772
vt 0.8892133 0.9897285
vt 0.8892133 0.9046772
vt 0.6311598 0.664987
vt 0.00390625 0.7384405
vt 0.00390625 0.664987
vt 0.6311598 0.7384405
vt 0.00390625 0.7722677
vt 0.6311598 0.7722677
vt 0.00390625 0.8708499
vt 0.6321263 0.8708499
vt 0.00390625 0.9095096
vt 0.6321263 0.9095096
vt 0.00390625 0.984896
vt 0.6321263 0.984896
vt 0.2464958 0.5132477
vt 0.3122173 0.5132477
vt 0.3122173 0.6321263
vt 0.2175011 0.6553221
vt 0.2175011 0.6292268
vt 0.1720759 0.6582216
vt 0.1720759 0.6321263
vt 0.04063296 0.6417912
vt 0.04063296 0.6205284
vt 0.0106717 0.6069975
vt 0.02613558 0.5132477
vt 0.004872743 0.5132477
vt 0.3731063 0.6417912
vt 0.3218822 0.6553221
vt 0.3218822 0.6417912
vt 0.3731063 0.6553221
vt 0.4310959 0.6417912
vt 0.4310959 0.6553221
vt 0.4504257 0.6553221
vt 0.4504257 0.6417912
vt 0.4504257 0.6553221
vt 0.5093818 0.6417912
vt 0.5093818 0.6553221
vt 0.4504257 0.6417912
vt 0.1711094 0.6572551
vt 0.3122173 0.5132477
vt 0.03966647 0.6417912
vt 0.2165346 0.6543556
vt 0.3122173 0.6321263
vt 0.009705205 0.6069975
vt 0.00390625 0.5132477
vt 0.00390625 0.664987
vt 0.6311598 0.7384405
vt 0.6311598 0.664987
vt 0.00390625 0.7384405
vt 0.00390625 0.7722677
vt 0.6311598 0.7722677
vt 0.6321263 0.8708499
vt 0.00390625 0.8708499
vt 0.6321263 0.9095096
vt 0.00390625 0.9095096
vt 0.00390625 0.984896
vt 0.6321263 0.984896
vt 0.2175011 0.6553221
vt 0.3122173 0.6321263
vt 0.3122173 0.5132477
vt 0.2464958 0.5132477
vt 0.2175011 0.6292268
vt 0.1720759 0.6582216
vt 0.1720759 0.6321263
vt 0.04063296 0.6417912
vt 0.04063296 0.6205284
vt 0.0106717 0.6069975
vt 0.02613558 0.5132477
vt 0.004872743 0.5132477
vt 0.3731063 0.6553221
vt 0.3218822 0.6417912
vt 0.3218822 0.6553221
vt 0.3731063 0.6417912
vt 0.4504257 0.6417912
vt 0.5093818 0.6553221
vt 0.5093818 0.6417912
vt 0.4504257 0.6553221
vt 0.4310959 0.6417912
vt 0.4310959 0.6553221
vt 0.3731063 0.6417912
vt 0.3731063 0.6553221
vt 0.3122173 0.5132477
vt 0.1711094 0.6572551
vt 0.03966647 0.6417912
vt 0.2165346 0.6543556
vt 0.3122173 0.6321263
vt 0.009705205 0.6069975
vt 0.00390625 0.5132477
vt 0.6311598 0.664987
vt 0.00390625 0.7384405
vt 0.00390625 0.664987
vt 0.6311598 0.7384405
vt 0.00390625 0.7722677
vt 0.6311598 0.7722677
vt 0.00390625 0.8708499
vt 0.6321263 0.8708499
vt 0.00390625 0.9095096
vt 0.6321263 0.9095096
vt 0.00390625 0.984896
vt 0.6321263 0.984896
vt 0.2464958 0.5132477
vt 0.3122173 0.5132477
vt 0.3122173 0.6321263
vt 0.2175011 0.6553221
vt 0.2175011 0.6292268
vt 0.1720759 0.6582216
vt 0.1720759 0.6321263
vt 0.04063296 0.6417912
vt 0.04063296 0.6205284
vt 0.0106717 0.6069975
vt 0.02613558 0.5132477
vt 0.004872743 0.5132477
vt 0.3731063 0.6417912
vt 0.3218822 0.6553221
vt 0.3218822 0.6417912
vt 0.3731063 0.6553221
vt 0.4310959 0.6417912
vt 0.4310959 0.6553221
vt 0.4504257 0.6553221
vt 0.4504257 0.6417912
vt 0.4504257 0.6553221
vt 0.5093818 0.6417912
vt 0.5093818 0.6553221
vt 0.4504257 0.6417912
vt 0.1711094 0.6572551
vt 0.3122173 0.5132477
vt 0.03966647 0.6417912
vt 0.2165346 0.6543556
vt 0.3122173 0.6321263
vt 0.009705205 0.6069975
vt 0.00390625 0.5132477
vt 0.00390625 0.664987
vt 0.6311598 0.7384405
vt 0.6311598 0.664987
vt 0.00390625 0.7384405
vt 0.00390625 0.7722677
vt 0.6311598 0.7722677
vt 0.6321263 0.8708499
vt 0.00390625 0.8708499
vt 0.6321263 0.9095096
vt 0.00390625 0.9095096
vt 0.00390625 0.984896
vt 0.6321263 0.984896
vt 0.2175011 0.6553221
vt 0.3122173 0.6321263
vt 0.3122173 0.5132477
vt 0.2464958 0.5132477
vt 0.2175011 0.6292268
vt 0.1720759 0.6582216
vt 0.1720759 0.6321263
vt 0.04063296 0.6417912
vt 0.04063296 0.6205284
vt 0.0106717 0.6069975
vt 0.02613558 0.5132477
vt 0.004872743 0.5132477
vt 0.3731063 0.6553221
vt 0.3218822 0.6417912
vt 0.3218822 0.6553221
vt 0.3731063 0.6417912
vt 0.4504257 0.6417912
vt 0.5093818 0.6553221
vt 0.5093818 0.6417912
vt 0.4504257 0.6553221
vt 0.4310959 0.6417912
vt 0.4310959 0.6553221
vt 0.3731063 0.6417912
vt 0.3731063 0.6553221
vt 0.3122173 0.5132477
vt 0.1711094 0.6572551
vt 0.03966647 0.6417912
vt 0.2165346 0.6543556
vt 0.3122173 0.6321263
vt 0.009705205 0.6069975
vt 0.00390625 0.5132477
vt 0.8921127 0.8969452
vt 0.7799996 0.8756824
vt 0.7799996 0.8969452
vt 0.8921127 0.8756824
vt 0.7635692 0.9046772
vt 0.8756824 0.9906949
vt 0.8756824 0.9046772
vt 0.7635692 0.9906949
vt 0.8921127 0.8969452
vt 0.7799996 0.8756824
vt 0.7799996 0.8969452
vt 0.8921127 0.8756824
vt 0.8756824 0.9906949
vt 0.7510049 0.9046772
vt 0.8756824 0.9046772
vt 0.7510049 0.9897285
vt 0.7635692 0.9046772
vt 0.8892133 0.9046772
vt 0.7635692 0.9906949
vt 0.7635692 0.9046772
vt 0.8892133 0.9897285
vt 0.8892133 0.9046772
vt 0.8921127 0.8969452
vt 0.7799996 0.8756824
vt 0.7799996 0.8969452
vt 0.8921127 0.8756824
vt 0.7635692 0.9046772
vt 0.8756824 0.9906949
vt 0.8756824 0.9046772
vt 0.7635692 0.9906949
vt 0.8921127 0.8969452
vt 0.7799996 0.8756824
vt 0.7799996 0.8969452
vt 0.8921127 0.8756824
vt 0.8756824 0.9906949
vt 0.7510049 0.9046772
vt 0.8756824 0.9046772
vt 0.7510049 0.9897285
vt 0.7635692 0.9046772
vt 0.8892133 0.9046772
vt 0.7635692 0.9906949
vt 0.7635692 0.9046772
vt 0.8892133 0.9897285
vt 0.8892133 0.9046772
vt 0.8921127 0.8969452
vt 0.7799996 0.8756824
vt 0.7799996 0.8969452
vt 0.8921127 0.8756824
vt 0.7635692 0.9046772
vt 0.8756824 0.9906949
vt 0.8756824 0.9046772
vt 0.7635692 0.9906949
vt 0.8921127 0.8969452
vt 0.7799996 0.8756824
vt 0.7799996 0.8969452
vt 0.8921127 0.8756824
vt 0.8756824 0.9906949
vt 0.7510049 0.9046772
vt 0.8756824 0.9046772
vt 0.7510049 0.9897285
vt 0.7635692 0.9046772
vt 0.8892133 0.9046772
vt 0.7635692 0.9906949
vt 0.7635692 0.9046772
vt 0.8892133 0.9897285
vt 0.8892133 0.9046772
vn -0.9843061 -0.01176465 -0.176077
vn -0.9686199 -0.01176465 -0.248268
vn -0.9843061 -0.01176465 -0.176077
vn -0.9686199 -0.01176465 -0.248268
vn -0.9921492 -0.01176465 0.124505
vn -0.9921492 -0.01176465 0.124505
vn -0.9529338 -0.01176465 0.3029502
vn -0.9529338 -0.01176465 0.3029502
vn -0.07450914 -0.01176465 0.9971509
vn -0.07450914 -0.01176465 0.9971509
vn 0.01176465 -0.01176465 0.9998616
vn 0.01176465 -0.01176465 0.9998616
vn 0.003921568 -0.9999924 0
vn 0.003921568 -0.9999924 0
vn 0.003921568 -0.9999924 0
vn 0.003921568 -0.9999924 0
vn 0.003921568 -0.9999924 0
vn 0.003921568 -0.9999924 0
vn 0.003921568 -0.9999924 0
vn 0.003921568 -0.9999924 0
vn 0.003921568 -0.9999924 0
vn 0.003921568 -0.9999924 0
vn 0.003921568 -0.9999924 0
vn 0.003921568 -0.9999924 0
vn -0.9529338 -0.01176465 0.3029502
vn 0.01176465 -0.01176465 0.9998616
vn 0.01176465 -0.01176465 0.9998616
vn -0.9529338 -0.01176465 0.3029502
vn -0.9921492 -0.01176465 -0.124505
vn -0.9921492 -0.01176465 -0.124505
vn -0.9607769 -0.01176465 -0.2770727
vn -0.9607769 -0.01176465 -0.2770727
vn -0.9607769 -0.01176465 -0.2770727
vn -0.09803843 -0.01176465 -0.9951131
vn -0.09803843 -0.01176465 -0.9951131
vn -0.9607769 -0.01176465 -0.2770727
vn 0.003921568 0.9999923 -0.000345267
vn 0.003921568 0.9999923 -0.000345267
vn 0.003921568 0.9999923 -0.000345267
vn 0.003921568 0.9999923 -0.000345267
vn 0.003921568 0.9999923 -0.000345267
vn 0.003921568 0.9999923 -0.000345267
vn 0.003921568 0.9999923 -0.000345267
vn 0.9999309 -0.01176392 0
vn 0.9843062 -0.01176465 -0.1760763
vn 0.9999309 -0.01176392 0
vn 0.9843062 -0.01176465 -0.1760763
vn 0.9999924 -0.003921568 0
vn 0.9999924 -0.003921568 0
vn 0.9686201 -0.01176465 0.2482675
vn 0.9686201 -0.01176465 0.2482675
vn 0.09019542 -0.01176465 0.9958546
vn 0.09019542 -0.01176465 0.9958546
vn 0.01176465 -0.01176465 0.9998616
vn 0.01176465 -0.01176465 0.9998616
vn 0.003921568 -0.9999924 0
vn 0.003921568 -0.9999924 0
vn 0.003921568 -0.9999924 0
vn 0.003921568 -0.9999924 0
vn 0.003921568 -0.9999924 0
vn 0.003921568 -0.9999924 0
vn 0.003921568 -0.9999924 0
vn 0.003921568 -0.9999924 0
vn 0.003921568 -0.9999924 0
vn 0.003921568 -0.9999924 0
vn 0.003921568 -0.9999924 0
vn 0.003921568 -0.9999924 0
vn 0.9686201 -0.01176465 0.2482675
vn 0.01176465 -0.01176465 0.9998616
vn 0.01176465 -0.01176465 0.9998616
vn 0.9686201 -0.01176465 0.2482675
vn 0.9764631 -0.01176465 -0.2153633
vn 0.1137246 -0.01176465 -0.9934427
vn 0.1137246 -0.01176465 -0.9934427
vn 0.9764631 -0.01176465 -0.2153633
vn 0.9999924 -0.003921568 0
vn 0.9999924 -0.003921568 0
vn 0.9686201 -0.01176465 0.2482675
vn 0.9686201 -0.01176465 0.2482675
vn 0.003921568 0.9999923 -0.000345267
vn 0.003921568 0.9999923 -0.000345267
vn 0.003921568 0.9999923 -0.000345267
vn 0.003921568 0.9999923 -0.000345267
vn 0.003921568 0.9999923 -0.000345267
vn 0.003921568 0.9999923 -0.000345267
vn 0.003921568 0.9999923 -0.000345267
vn 0.9999924 -0.003921568 0
vn 0.9999924 -0.003921568 0
vn 0.9999924 -0.003921568 0
vn 0.9999924 -0.003921568 0
vn 0.01176465 -0.01176465 0.9998616
vn 0.01176465 -0.01176465 0.9998616
vn 0.01176465 -0.01176465 0.9998616
vn 0.01176465 -0.01176465 0.9998616
vn -0.9999923 -0.003921568 -0.0003442513
vn -0.9999923 -0.003921568 -0.0003442513
vn -0.9999923 -0.003921568 -0.0003442513
vn -0.9999923 -0.003921568 -0.0003442513
vn 0.01176465 0.8431307 0.53758
vn 0.01176465 0.8431307 -0.53758
vn 0.01176465 0.8431307 0.53758
vn 0.01176465 0.8431307 -0.53758
vn 0.01176465 -0.858817 0.5121474
vn 0.01176465 -0.858817 -0.5121474
vn 0.01176465 -0.858817 0.5121474
vn 0.01176465 -0.858817 0.5121474
vn 0.01176465 -0.858817 -0.5121474
vn 0.01176465 -0.858817 -0.5121474
vn 0.9999309 -0.01176392 0
vn 0.9843062 0.01960766 -0.1753762
vn 0.9993777 0.03527213 0
vn 0.9843062 -0.01176465 -0.1760763
vn 0.9999309 0.0117638 0
vn 0.9999924 -0.003921568 0
vn 0.9686201 0.01960766 0.2477714
vn 0.9686201 -0.01176465 0.2482675
vn 0.9764631 -0.05882311 0.2075081
vn 0.9982743 -0.05872205 0
vn 0.9463208 -0.3232289 0
vn 0.9372478 -0.2862723 0.1990347
vn 0.9843062 -0.06666619 -0.1633919
vn 0.9463208 -0.3232289 0
vn 0.9604816 -0.2783437 0
vn 0.9990709 -0.04309721 0
vn 0.5372508 -0.7803862 0.3199357
vn 0.3254877 -0.9372478 0.1249976
vn 0.2379438 -0.9712788 0
vn 0.3882324 -0.9058754 -0.1693083
vn 0.4274477 -0.8980324 -0.1040495
vn 0.3647031 -0.5137216 0.7765834
vn 0.01176465 -0.9764631 0.2153633
vn 0.145097 -0.9294047 0.3393432
vn 0.1607831 -0.960777 0.2259566
vn 0.01176465 -0.9372478 0.3484656
vn 0.01176465 -0.7411708 0.6712134
vn 0.2235277 -0.7176416 0.6595649
vn 0.2941154 -0.0274508 0.9553756
vn 0.01176465 -0.0274508 0.9995539
vn 0.01176465 -0.01960772 0.9997385
vn 0.3098016 -0.01176465 0.9507285
vn 0.003921568 0.9999923 -0.000345267
vn 0.003921568 0.9999923 -0.000345267
vn 0.9993777 0.03527213 0
vn 0.9843062 0.01960766 -0.1753762
vn 0.003921568 0.9999923 -0.000345267
vn 0.9999309 0.0117638 0
vn 0.003921568 0.9999923 -0.000345267
vn 0.9686201 0.01960766 0.2477714
vn 0.003921568 0.9999923 -0.000345267
vn 0.09019542 0.01960766 0.9957311
vn 0.003921568 0.9999923 -0.000345267
vn 0.01176465 0.01960766 0.9997385
vn 0.09019542 -0.01176465 0.9958546
vn 0.01176465 0.01960766 0.9997385
vn 0.09019542 0.01960766 0.9957311
vn 0.01176465 -0.01176465 0.9998616
vn 0.9686201 -0.01176465 0.2482675
vn 0.9686201 0.01960766 0.2477714
vn 0.1843123 -0.01176465 0.9827973
vn 0.9764631 -0.05882311 0.2075081
vn 0.9372478 -0.2862723 0.1990347
vn 0.3647031 -0.5137216 0.7765834
vn 0.2379438 -0.9712788 0
vn 0.01176465 -0.9843062 0.1760763
vn 0.3254877 -0.9372478 0.1249976
vn 0.01176392 -0.9999309 0
vn 0.1058816 -0.756857 0.644947
vn 0.01176465 -0.756857 0.6534747
vn 0.1058816 -0.756857 0.644947
vn 0.01176465 -0.756857 0.6534747
vn 0.145097 -0.9294047 0.3393432
vn -0.7176415 -0.6392108 0.276406
vn -0.7176415 -0.6392108 0.276406
vn 0.145097 -0.9294047 0.3393432
vn -0.2549 -0.8901893 0.3776096
vn -0.7176415 -0.6392108 0.276406
vn 0.8039154 -0.247057 0.5410017
vn 0.003921568 0.9999923 -0.000345267
vn 0.003921568 0.9999923 -0.000345267
vn 0.003921568 0.9999923 -0.000345267
vn 0.003921568 0.9999923 -0.000345267
vn 0.8117585 -0.01176465 0.5838748
vn 0.2235277 -0.7176416 0.6595649
vn 0.2941154 -0.0274508 0.9553756
vn 0.8039154 -0.247057 0.5410017
vn 0.8117585 -0.01176465 0.5838748
vn 0.3098016 -0.01176465 0.9507285
vn 0.145097 -0.9294047 0.3393432
vn 0.3882324 -0.9058754 -0.1693083
vn 0.01176465 -0.858817 -0.5121474
vn 0.4274477 -0.8980324 -0.1040495
vn 0.01176465 -0.858817 -0.5121474
vn 0.01176465 -0.3333308 0.9427365
vn 0.2379438 -0.9712788 0
vn -0.8039154 -0.552937 0.2190452
vn 0.01176392 -0.9999309 0
vn -0.9843061 0.03529382 -0.1729042
vn -0.9686199 -0.01176465 -0.248268
vn -0.9843061 -0.01176465 -0.176077
vn -0.9686199 0.01960766 -0.2477719
vn -0.9921492 0.01960766 0.1235129
vn -0.9921492 -0.01176465 0.124505
vn -0.9529338 -0.01176465 0.3029502
vn -0.9529338 0.01960766 0.3025438
vn -0.9921492 -0.06666619 0.1058089
vn -0.9607769 -0.05882311 0.2710121
vn -0.9215615 -0.2862723 0.2622452
vn -0.9430625 -0.3326155 0
vn -0.9686199 -0.06666619 -0.2394389
vn -0.9372476 -0.3254877 -0.1249985
vn -0.9843061 -0.04313695 -0.1711161
vn -0.9450908 -0.2784293 -0.1711156
vn -0.1450969 -0.960777 0.2363354
vn 0.01176465 -0.9372478 0.3484656
vn 0.01176465 -0.9764631 0.2153633
vn -0.1294107 -0.9294047 0.3456296
vn 0.01176465 -0.7411708 0.6712134
vn -0.2078415 -0.7176416 0.6646747
vn -0.2784292 -0.0274508 0.9600644
vn 0.01176465 -0.0274508 0.9995539
vn -0.7960722 -0.01176465 0.6050873
vn -0.7882292 -0.247057 0.5636111
vn 0.01176465 -0.01960772 0.9997385
vn -0.2941153 -0.01176465 0.9556975
vn -0.7960722 -0.01176465 0.6050873
vn -0.9686199 0.01960766 -0.2477719
vn -0.9843061 0.03529382 -0.1729042
vn 0.003921568 0.9999923 -0.000345267
vn 0.003921568 0.9999923 -0.000345267
vn 0.003921568 0.9999923 -0.000345267
vn -0.9921492 0.01960766 0.1235129
vn 0.003921568 0.9999923 -0.000345267
vn -0.9529338 0.01960766 0.3025438
vn 0.003921568 0.9999923 -0.000345267
vn -0.07450914 0.01960766 0.9970275
vn 0.003921568 0.9999923 -0.000345267
vn 0.01176465 0.01960766 0.9997385
vn -0.07450914 -0.01176465 0.9971509
vn 0.01176465 0.01960766 0.9997385
vn 0.01176465 -0.01176465 0.9998616
vn -0.07450914 0.01960766 0.9970275
vn -0.9529338 0.01960766 0.3025438
vn -0.9529338 -0.01176465 0.3029502
vn -0.9607769 -0.05882311 0.2710121
vn -0.1686261 -0.01176465 0.9856099
vn -0.3490169 -0.5137216 0.7837585
vn -0.9215615 -0.2862723 0.2622452
vn -0.5215646 -0.7803862 0.344917
vn -0.9430625 -0.3326155 0
vn -0.3098015 -0.9372478 0.1599678
vn -0.2231436 -0.9747855 0
vn 0.01176465 -0.9843062 0.1760763
vn 0.01176392 -0.9999309 0
vn -0.9372476 -0.3254877 -0.1249985
vn -0.4117615 -0.8980324 -0.1548881
vn -0.9450908 -0.2784293 -0.1711156
vn -0.3725461 -0.9058754 -0.2014921
vn 0.01176465 -0.858817 -0.5121474
vn 0.01176465 -0.858817 -0.5121474
vn -0.0901953 -0.756857 0.6473271
vn 0.01176465 -0.756857 0.6534747
vn 0.01176465 -0.756857 0.6534747
vn -0.0901953 -0.756857 0.6473271
vn 0.2705862 -0.8901893 0.3665326
vn 0.7333277 -0.6392108 0.2316031
vn 0.7333277 -0.6392108 0.2316031
vn 0.2705862 -0.8901893 0.3665326
vn -0.1294107 -0.9294047 0.3456296
vn 0.7333277 -0.6392108 0.2316031
vn -0.7882292 -0.247057 0.5636111
vn 0.003921568 0.9999923 -0.000345267
vn 0.003921568 0.9999923 -0.000345267
vn 0.003921568 0.9999923 -0.000345267
vn 0.003921568 0.9999923 -0.000345267
vn -0.2231436 -0.9747855 0
vn 0.01176465 -0.3333308 0.9427365
vn -0.02745068 -0.3333308 0.9424102
vn 0.01176392 -0.9999309 0
vn -0.9843061 -0.01176465 -0.176077
vn -0.9686199 -0.03529388 -0.2460279
vn -0.9843061 -0.05098003 -0.1689454
vn -0.9686199 -0.01176465 -0.248268
vn -0.9921492 -0.03529388 0.119976
vn -0.9921492 -0.01176465 0.124505
vn -0.9529338 -0.03529388 0.3011172
vn -0.9529338 -0.01176465 0.3029502
vn -0.9607769 0.04313684 0.2739469
vn -0.9921492 0.05097997 0.1141969
vn -0.9450908 0.3176446 0.07684615
vn -0.9215615 0.2705861 0.2784018
vn -0.9686199 0.05097997 -0.2432621
vn -0.9372476 0.3098015 -0.1599686
vn -0.9450908 0.262743 -0.1943439
vn -0.9843061 0.02745068 -0.1743215
vn -0.5215646 0.7646999 0.3784236
vn -0.3098015 0.9215615 0.2339818
vn -0.2235277 0.9607769 0.1641435
vn 0.01176465 0.9686199 0.248268
vn 0.01176465 0.9843061 0.176077
vn -0.4117615 0.8823462 -0.2278546
vn -0.3725461 0.8901892 -0.2622453
vn -0.3490169 0.4980353 0.7938186
vn 0.01176465 0.8431307 -0.53758
vn 0.01176465 0.8431307 -0.53758
vn 0.01176465 0.9607769 0.2770727
vn -0.1294107 0.9137185 0.3851902
vn -0.1450969 0.9450908 0.2928315
vn 0.01176465 0.9215615 0.3880541
vn 0.01176465 0.7254846 0.6881378
vn -0.2078415 0.7019553 0.6812199
vn -0.7882292 0.2313707 0.5702301
vn 0.003921568 -0.9999924 0
vn 0.003921568 -0.9999924 0
vn -0.9843061 -0.05098003 -0.1689454
vn -0.9686199 -0.03529388 -0.2460279
vn 0.003921568 -0.9999924 0
vn -0.9921492 -0.03529388 0.119976
vn 0.003921568 -0.9999924 0
vn -0.9529338 -0.03529388 0.3011172
vn 0.003921568 -0.9999924 0
vn -0.07450914 -0.03529388 0.9965956
vn 0.003921568 -0.9999924 0
vn 0.01176465 -0.03529388 0.9993077
vn -0.07450914 -0.01176465 0.9971509
vn 0.01176465 -0.03529388 0.9993077
vn -0.07450914 -0.03529388 0.9965956
vn 0.01176465 -0.01176465 0.9998616
vn -0.9529338 -0.01176465 0.3029502
vn -0.9529338 -0.03529388 0.3011172
vn -0.1686261 -0.01176465 0.9856099
vn -0.9607769 0.04313684 0.2739469
vn -0.9215615 0.2705861 0.2784018
vn -0.3490169 0.4980353 0.7938186
vn -0.2784292 0.01176453 0.9603847
vn 0.01176465 0.7254846 0.6881378
vn 0.01176465 0.01176453 0.9998616
vn -0.2078415 0.7019553 0.6812199
vn -0.7960722 -0.01176465 0.6050873
vn -0.7882292 0.2313707 0.5702301
vn 0.01176465 0.003921509 0.9999231
vn -0.2941153 -0.01176465 0.9556975
vn -0.7960722 -0.01176465 0.6050873
vn -0.0901953 0.7411708 0.6652298
vn 0.01176465 0.7411708 0.6712134
vn -0.0901953 0.7411708 0.6652298
vn 0.01176465 0.7411708 0.6712134
vn -0.1294107 0.9137185 0.3851902
vn 0.7333277 0.6235245 0.2710122
vn 0.7333277 0.6235245 0.2710122
vn -0.1294107 0.9137185 0.3851902
vn 0.2705862 0.874503 0.4025264
vn 0.7333277 0.6235245 0.2710122
vn -0.7882292 0.2313707 0.5702301
vn 0.003921568 -0.9999924 0
vn 0.003921568 -0.9999924 0
vn 0.003921568 -0.9999924 0
vn 0.003921568 -0.9999924 0
vn 0.01176465 0.3176446 0.9481369
vn -0.2235277 0.9607769 0.1641435
vn 0.8196016 0.5372508 0.1990347
vn 0.01176465 0.9843061 0.176077
vn -0.9529338 -0.01176465 0.3029502
vn 0.01176465 -0.01176465 0.9998616
vn 0.01176465 -0.01176465 0.9998616
vn -0.9529338 -0.01176465 0.3029502
vn -0.9921492 -0.01176465 -0.124505
vn -0.9921492 -0.01176465 -0.124505
vn -0.9450908 -0.01176465 -0.3265961
vn -0.9450908 -0.01176465 -0.3265961
vn -0.9450908 -0.01176465 -0.3265961
vn -0.1607831 -0.01176465 -0.9869196
vn -0.1607831 -0.01176465 -0.9869196
vn -0.9450908 -0.01176465 -0.3265961
vn 0.998703 -0.0509143 0
vn 0.9843062 -0.01176465 -0.1760763
vn 0.9999309 -0.01176392 0
vn 0.9843062 -0.03529388 -0.1729035
vn 0.9996234 -0.02744067 0
vn 0.9999924 -0.003921568 0
vn 0.9686201 -0.01176465 0.2482675
vn 0.9686201 -0.03529388 0.2460274
vn 0.09019542 -0.01176465 0.9958546
vn 0.09019542 -0.03529388 0.9952985
vn 0.01176465 -0.03529388 0.9993077
vn 0.01176465 -0.01176465 0.9998616
vn 0.9990709 0.04309709 0
vn 0.9764631 0.04313684 0.2113267
vn 0.9372478 0.2705861 0.2198859
vn 0.9510054 0.3091745 0
vn 0.9843062 0.05097997 -0.1689447
vn 0.9510054 0.3091745 0
vn 0.9996234 0.02744055 0
vn 0.960777 0.262743 -0.08873382
vn 0.3647031 0.4980353 0.7867353
vn 0.1843123 -0.01176465 0.9827973
vn 0.5372508 0.7646999 0.3558027
vn 0.3254877 0.9215615 0.211618
vn 0.3882324 0.8901892 -0.238409
vn 0.4274477 0.8823462 -0.1968596
vn 0.1607831 0.9450908 0.284521
vn 0.01176465 0.9215615 0.3880541
vn 0.01176465 0.9607769 0.2770727
vn 0.145097 0.9137185 0.3795595
vn 0.01176465 0.7254846 0.6881378
vn 0.2235277 0.7019553 0.6762352
vn 0.9843062 -0.03529388 -0.1729035
vn 0.998703 -0.0509143 0
vn 0.003921568 -0.9999924 0
vn 0.003921568 -0.9999924 0
vn 0.003921568 -0.9999924 0
vn 0.9996234 -0.02744067 0
vn 0.003921568 -0.9999924 0
vn 0.9686201 -0.03529388 0.2460274
vn 0.003921568 -0.9999924 0
vn 0.09019542 -0.03529388 0.9952985
vn 0.003921568 -0.9999924 0
vn 0.01176465 -0.03529388 0.9993077
vn 0.01176465 0.7254846 0.6881378
vn 0.2941154 0.01176453 0.9556975
vn 0.01176465 0.01176453 0.9998616
vn 0.2235277 0.7019553 0.6762352
vn 0.8117585 -0.01176465 0.5838748
vn 0.8039154 0.2313707 0.5478938
vn 0.01176465 0.003921509 0.9999231
vn 0.3098016 -0.01176465 0.9507285
vn 0.8117585 -0.01176465 0.5838748
vn 0.145097 0.9137185 0.3795595
vn 0.2392139 0.9607769 0.1403012
vn 0.01176465 0.9686199 0.248268
vn 0.01176465 0.9843061 0.176077
vn 0.3254877 0.9215615 0.211618
vn 0.9510054 0.3091745 0
vn 0.9510054 0.3091745 0
vn 0.4274477 0.8823462 -0.1968596
vn 0.3882324 0.8901892 -0.238409
vn 0.01176465 0.8431307 -0.53758
vn 0.01176465 0.8431307 -0.53758
vn 0.1058816 0.7411708 0.662914
vn 0.01176465 0.7411708 0.6712134
vn 0.01176465 0.7411708 0.6712134
vn 0.1058816 0.7411708 0.662914
vn -0.2549 0.874503 0.4126384
vn -0.7176415 0.6235245 0.3101739
vn -0.7176415 0.6235245 0.3101739
vn -0.2549 0.874503 0.4126384
vn 0.145097 0.9137185 0.3795595
vn -0.7176415 0.6235245 0.3101739
vn 0.8039154 0.2313707 0.5478938
vn 0.003921568 -0.9999924 0
vn 0.003921568 -0.9999924 0
vn 0.003921568 -0.9999924 0
vn 0.003921568 -0.9999924 0
vn 0.2392139 0.9607769 0.1403012
vn 0.01176465 0.3176446 0.9481369
vn 0.04313695 0.3176446 0.9472281
vn 0.01176465 0.9843061 0.176077
vn 0.9686201 -0.01176465 0.2482675
vn 0.01176465 -0.01176465 0.9998616
vn 0.01176465 -0.01176465 0.9998616
vn 0.9686201 -0.01176465 0.2482675
vn 0.960777 -0.01176465 -0.2770725
vn 0.1764693 -0.01176465 -0.9842358
vn 0.1764693 -0.01176465 -0.9842358
vn 0.960777 -0.01176465 -0.2770725
vn 0.9999924 -0.003921568 0
vn 0.9999924 -0.003921568 0
vn 0.9686201 -0.01176465 0.2482675
vn 0.9686201 -0.01176465 0.2482675
vn 0.9999924 -0.003921568 0
vn 0.9999924 -0.003921568 0
vn 0.9999924 -0.003921568 0
vn 0.9999924 -0.003921568 0
vn 0.01176465 -0.01176465 0.9998616
vn 0.01176465 -0.01176465 0.9998616
vn 0.01176465 -0.01176465 0.9998616
vn 0.01176465 -0.01176465 0.9998616
vn -0.9999923 -0.003921568 -0.0003442513
vn -0.9999923 -0.003921568 -0.0003442513
vn -0.9999923 -0.003921568 -0.0003442513
vn -0.9999923 -0.003921568 -0.0003442513
vn 0.01176465 0.8431307 0.53758
vn 0.01176465 0.8431307 -0.53758
vn 0.01176465 0.8431307 0.53758
vn 0.01176465 0.8431307 -0.53758
vn 0.01176465 -0.858817 0.5121474
vn 0.01176465 -0.858817 -0.5121474
vn 0.01176465 -0.858817 0.5121474
vn 0.01176465 -0.858817 0.5121474
vn 0.01176465 -0.858817 -0.5121474
vn 0.01176465 -0.858817 -0.5121474
vn -0.9843061 -0.01176465 -0.176077
vn -0.9686199 -0.01176465 -0.248268
vn -0.9843061 -0.01176465 -0.176077
vn -0.9686199 -0.01176465 -0.248268
vn -0.9921492 -0.01176465 0.124505
vn -0.9921492 -0.01176465 0.124505
vn -0.9529338 -0.01176465 0.3029502
vn -0.9529338 -0.01176465 0.3029502
vn -0.07450914 -0.01176465 0.9971509
vn -0.07450914 -0.01176465 0.9971509
vn 0.01176465 -0.01176465 0.9998616
vn 0.01176465 -0.01176465 0.9998616
vn 0.003921568 -0.9999924 0
vn 0.003921568 -0.9999924 0
vn 0.003921568 -0.9999924 0
vn 0.003921568 -0.9999924 0
vn 0.003921568 -0.9999924 0
vn 0.003921568 -0.9999924 0
vn 0.003921568 -0.9999924 0
vn 0.003921568 -0.9999924 0
vn 0.003921568 -0.9999924 0
vn 0.003921568 -0.9999924 0
vn 0.003921568 -0.9999924 0
vn 0.003921568 -0.9999924 0
vn -0.9529338 -0.01176465 0.3029502
vn 0.01176465 -0.01176465 0.9998616
vn 0.01176465 -0.01176465 0.9998616
vn -0.9529338 -0.01176465 0.3029502
vn -0.9921492 -0.01176465 -0.124505
vn -0.9921492 -0.01176465 -0.124505
vn -0.9607769 -0.01176465 -0.2770727
vn -0.9607769 -0.01176465 -0.2770727
vn -0.9607769 -0.01176465 -0.2770727
vn -0.09803843 -0.01176465 -0.9951131
vn -0.09803843 -0.01176465 -0.9951131
vn -0.9607769 -0.01176465 -0.2770727
vn 0.003921568 0.9999923 -0.000345267
vn 0.003921568 0.9999923 -0.000345267
vn 0.003921568 0.9999923 -0.000345267
vn 0.003921568 0.9999923 -0.000345267
vn 0.003921568 0.9999923 -0.000345267
vn 0.003921568 0.9999923 -0.000345267
vn 0.003921568 0.9999923 -0.000345267
vn 0.9999309 -0.01176392 0
vn 0.9843062 -0.01176465 -0.1760763
vn 0.9999309 -0.01176392 0
vn 0.9843062 -0.01176465 -0.1760763
vn 0.9999924 -0.003921568 0
vn 0.9999924 -0.003921568 0
vn 0.9686201 -0.01176465 0.2482675
vn 0.9686201 -0.01176465 0.2482675
vn 0.09019542 -0.01176465 0.9958546
vn 0.09019542 -0.01176465 0.9958546
vn 0.01176465 -0.01176465 0.9998616
vn 0.01176465 -0.01176465 0.9998616
vn 0.003921568 -0.9999924 0
vn 0.003921568 -0.9999924 0
vn 0.003921568 -0.9999924 0
vn 0.003921568 -0.9999924 0
vn 0.003921568 -0.9999924 0
vn 0.003921568 -0.9999924 0
vn 0.003921568 -0.9999924 0
vn 0.003921568 -0.9999924 0
vn 0.003921568 -0.9999924 0
vn 0.003921568 -0.9999924 0
vn 0.003921568 -0.9999924 0
vn 0.003921568 -0.9999924 0
vn 0.9686201 -0.01176465 0.2482675
vn 0.01176465 -0.01176465 0.9998616
vn 0.01176465 -0.01176465 0.9998616
vn 0.9686201 -0.01176465 0.2482675
vn 0.9764631 -0.01176465 -0.2153633
vn 0.1137246 -0.01176465 -0.9934427
vn 0.1137246 -0.01176465 -0.9934427
vn 0.9764631 -0.01176465 -0.2153633
vn 0.9999924 -0.003921568 0
vn 0.9999924 -0.003921568 0
vn 0.9686201 -0.01176465 0.2482675
vn 0.9686201 -0.01176465 0.2482675
vn 0.003921568 0.9999923 -0.000345267
vn 0.003921568 0.9999923 -0.000345267
vn 0.003921568 0.9999923 -0.000345267
vn 0.003921568 0.9999923 -0.000345267
vn 0.003921568 0.9999923 -0.000345267
vn 0.003921568 0.9999923 -0.000345267
vn 0.003921568 0.9999923 -0.000345267
vn -0.9843061 -0.01176465 -0.176077
vn -0.9686199 -0.01176465 -0.248268
vn -0.9843061 -0.01176465 -0.176077
vn -0.9686199 -0.01176465 -0.248268
vn -0.9921492 -0.01176465 0.124505
vn -0.9921492 -0.01176465 0.124505
vn -0.9529338 -0.01176465 0.3029502
vn -0.9529338 -0.01176465 0.3029502
vn -0.07450914 -0.01176465 0.9971509
vn -0.07450914 -0.01176465 0.9971509
vn 0.01176465 -0.01176465 0.9998616
vn 0.01176465 -0.01176465 0.9998616
vn 0.003921568 -0.9999924 0
vn 0.003921568 -0.9999924 0
vn 0.003921568 -0.9999924 0
vn 0.003921568 -0.9999924 0
vn 0.003921568 -0.9999924 0
vn 0.003921568 -0.9999924 0
vn 0.003921568 -0.9999924 0
vn 0.003921568 -0.9999924 0
vn 0.003921568 -0.9999924 0
vn 0.003921568 -0.9999924 0
vn 0.003921568 -0.9999924 0
vn 0.003921568 -0.9999924 0
vn -0.9529338 -0.01176465 0.3029502
vn 0.01176465 -0.01176465 0.9998616
vn 0.01176465 -0.01176465 0.9998616
vn -0.9529338 -0.01176465 0.3029502
vn -0.9921492 -0.01176465 -0.124505
vn -0.9921492 -0.01176465 -0.124505
vn -0.9607769 -0.01176465 -0.2770727
vn -0.9607769 -0.01176465 -0.2770727
vn -0.9607769 -0.01176465 -0.2770727
vn -0.09803843 -0.01176465 -0.9951131
vn -0.09803843 -0.01176465 -0.9951131
vn -0.9607769 -0.01176465 -0.2770727
vn 0.003921568 0.9999923 -0.000345267
vn 0.003921568 0.9999923 -0.000345267
vn 0.003921568 0.9999923 -0.000345267
vn 0.003921568 0.9999923 -0.000345267
vn 0.003921568 0.9999923 -0.000345267
vn 0.003921568 0.9999923 -0.000345267
vn 0.003921568 0.9999923 -0.000345267
vn 0.9999309 -0.01176392 0
vn 0.9843062 -0.01176465 -0.1760763
vn 0.9999309 -0.01176392 0
vn 0.9843062 -0.01176465 -0.1760763
vn 0.9999924 -0.003921568 0
vn 0.9999924 -0.003921568 0
vn 0.9686201 -0.01176465 0.2482675
vn 0.9686201 -0.01176465 0.2482675
vn 0.09019542 -0.01176465 0.9958546
vn 0.09019542 -0.01176465 0.9958546
vn 0.01176465 -0.01176465 0.9998616
vn 0.01176465 -0.01176465 0.9998616
vn 0.003921568 -0.9999924 0
vn 0.003921568 -0.9999924 0
vn 0.003921568 -0.9999924 0
vn 0.003921568 -0.9999924 0
vn 0.003921568 -0.9999924 0
vn 0.003921568 -0.9999924 0
vn 0.003921568 -0.9999924 0
vn 0.003921568 -0.9999924 0
vn 0.003921568 -0.9999924 0
vn 0.003921568 -0.9999924 0
vn 0.003921568 -0.9999924 0
vn 0.003921568 -0.9999924 0
vn 0.9686201 -0.01176465 0.2482675
vn 0.01176465 -0.01176465 0.9998616
vn 0.01176465 -0.01176465 0.9998616
vn 0.9686201 -0.01176465 0.2482675
vn 0.9764631 -0.01176465 -0.2153633
vn 0.1137246 -0.01176465 -0.9934427
vn 0.1137246 -0.01176465 -0.9934427
vn 0.9764631 -0.01176465 -0.2153633
vn 0.9999924 -0.003921568 0
vn 0.9999924 -0.003921568 0
vn 0.9686201 -0.01176465 0.2482675
vn 0.9686201 -0.01176465 0.2482675
vn 0.003921568 0.9999923 -0.000345267
vn 0.003921568 0.9999923 -0.000345267
vn 0.003921568 0.9999923 -0.000345267
vn 0.003921568 0.9999923 -0.000345267
vn 0.003921568 0.9999923 -0.000345267
vn 0.003921568 0.9999923 -0.000345267
vn 0.003921568 0.9999923 -0.000345267
vn 0.9999924 -0.003921568 0
vn 0.9999924 -0.003921568 0
vn 0.9999924 -0.003921568 0
vn 0.9999924 -0.003921568 0
vn 0.01176465 -0.01176465 0.9998616
vn 0.01176465 -0.01176465 0.9998616
vn 0.01176465 -0.01176465 0.9998616
vn 0.01176465 -0.01176465 0.9998616
vn -0.9999923 -0.003921568 -0.0003442513
vn -0.9999923 -0.003921568 -0.0003442513
vn -0.9999923 -0.003921568 -0.0003442513
vn -0.9999923 -0.003921568 -0.0003442513
vn 0.01176465 0.8431307 0.53758
vn 0.01176465 0.8431307 -0.53758
vn 0.01176465 0.8431307 0.53758
vn 0.01176465 0.8431307 -0.53758
vn 0.01176465 -0.858817 0.5121474
vn 0.01176465 -0.858817 -0.5121474
vn 0.01176465 -0.858817 0.5121474
vn 0.01176465 -0.858817 0.5121474
vn 0.01176465 -0.858817 -0.5121474
vn 0.01176465 -0.858817 -0.5121474
vn 0.9999924 -0.003921568 0
vn 0.9999924 -0.003921568 0
vn 0.9999924 -0.003921568 0
vn 0.9999924 -0.003921568 0
vn 0.01176465 -0.01176465 0.9998616
vn 0.01176465 -0.01176465 0.9998616
vn 0.01176465 -0.01176465 0.9998616
vn 0.01176465 -0.01176465 0.9998616
vn -0.9999923 -0.003921568 -0.0003442513
vn -0.9999923 -0.003921568 -0.0003442513
vn -0.9999923 -0.003921568 -0.0003442513
vn -0.9999923 -0.003921568 -0.0003442513
vn 0.01176465 0.8431307 0.53758
vn 0.01176465 0.8431307 -0.53758
vn 0.01176465 0.8431307 0.53758
vn 0.01176465 0.8431307 -0.53758
vn 0.01176465 -0.858817 0.5121474
vn 0.01176465 -0.858817 -0.5121474
vn 0.01176465 -0.858817 0.5121474
vn 0.01176465 -0.858817 0.5121474
vn 0.01176465 -0.858817 -0.5121474
vn 0.01176465 -0.858817 -0.5121474
vn 0.9999924 -0.003921568 0
vn 0.9999924 -0.003921568 0
vn 0.9999924 -0.003921568 0
vn 0.9999924 -0.003921568 0
vn 0.01176465 -0.01176465 0.9998616
vn 0.01176465 -0.01176465 0.9998616
vn 0.01176465 -0.01176465 0.9998616
vn 0.01176465 -0.01176465 0.9998616
vn -0.9999923 -0.003921568 -0.0003442513
vn -0.9999923 -0.003921568 -0.0003442513
vn -0.9999923 -0.003921568 -0.0003442513
vn -0.9999923 -0.003921568 -0.0003442513
vn 0.01176465 0.8431307 0.53758
vn 0.01176465 0.8431307 -0.53758
vn 0.01176465 0.8431307 0.53758
vn 0.01176465 0.8431307 -0.53758
vn 0.01176465 -0.858817 0.5121474
vn 0.01176465 -0.858817 -0.5121474
vn 0.01176465 -0.858817 0.5121474
vn 0.01176465 -0.858817 0.5121474
vn 0.01176465 -0.858817 -0.5121474
vn 0.01176465 -0.858817 -0.5121474
g daoJu_chengTie01_0
f 3/3/3 2/2/2 1/1/1
f 2/2/2 4/4/4 1/1/1
f 2/2/2 5/5/5 4/4/4
f 5/5/5 6/6/6 4/4/4
f 5/5/5 7/7/7 6/6/6
f 7/7/7 8/8/8 6/6/6
f 7/7/7 9/9/9 8/8/8
f 9/9/9 10/10/10 8/8/8
f 9/9/9 11/11/11 10/10/10
f 11/11/11 12/12/12 10/10/10
f 15/15/15 14/14/14 13/13/13
f 13/13/13 16/16/16 15/15/15
f 13/13/13 17/17/17 16/16/16
f 16/16/16 17/17/17 18/18/18
f 17/17/17 19/19/19 18/18/18
f 18/18/18 19/19/19 20/20/20
f 19/19/19 21/21/21 20/20/20
f 22/22/22 20/20/20 21/21/21
f 22/22/22 21/21/21 23/23/23
f 24/24/24 22/22/22 23/23/23
f 27/27/27 26/26/26 25/25/25
f 26/26/26 28/28/28 25/25/25
f 29/29/29 25/25/25 28/28/28
f 30/30/30 29/29/29 28/28/28
f 29/29/29 30/30/30 31/31/31
f 32/32/32 29/29/29 31/31/31
f 35/35/35 34/34/34 33/33/33
f 34/34/34 36/36/36 33/33/33
f 39/39/39 38/38/38 37/37/37
f 38/38/38 40/40/40 37/37/37
f 40/40/40 38/38/38 41/41/41
f 39/39/39 42/42/42 38/38/38
f 38/38/38 42/42/42 43/43/43
f 46/46/46 45/45/45 44/44/44
f 45/45/45 47/47/47 44/44/44
f 48/48/48 47/47/47 45/45/45
f 49/49/49 48/48/48 45/45/45
f 49/49/49 50/50/50 48/48/48
f 50/50/50 51/51/51 48/48/48
f 50/50/50 52/52/52 51/51/51
f 52/52/52 53/53/53 51/51/51
f 54/54/54 53/53/53 52/52/52
f 55/55/55 54/54/54 52/52/52
f 58/58/58 57/57/57 56/56/56
f 56/56/56 59/59/59 58/58/58
f 56/56/56 60/60/60 59/59/59
f 60/60/60 56/56/56 61/61/61
f 62/62/62 60/60/60 61/61/61
f 61/61/61 63/63/63 62/62/62
f 63/63/63 64/64/64 62/62/62
f 65/65/65 64/64/64 63/63/63
f 66/66/66 64/64/64 65/65/65
f 67/67/67 66/66/66 65/65/65
f 70/70/70 69/69/69 68/68/68
f 69/69/69 71/71/71 68/68/68
f 74/74/74 73/73/73 72/72/72
f 73/73/73 75/75/75 72/72/72
f 76/76/76 72/72/72 75/75/75
f 77/77/77 76/76/76 75/75/75
f 76/76/76 77/77/77 78/78/78
f 77/77/77 79/79/79 78/78/78
f 82/82/82 81/81/81 80/80/80
f 83/83/83 80/80/80 81/81/81
f 83/83/83 84/84/84 80/80/80
f 82/82/82 80/80/80 85/85/85
f 85/85/85 80/80/80 86/86/86
f 89/89/89 88/88/88 87/87/87
f 88/88/88 90/90/90 87/87/87
f 93/93/93 92/92/92 91/91/91
f 92/92/92 94/94/94 91/91/91
f 97/97/97 96/96/96 95/95/95
f 96/96/96 98/98/98 95/95/95
f 101/101/101 100/100/100 99/99/99
f 100/100/100 102/102/102 99/99/99
f 105/105/105 104/104/104 103/103/103
f 108/108/108 107/107/107 106/106/106
f 111/111/111 110/110/110 109/109/109
f 110/110/110 112/112/112 109/109/109
f 110/110/110 113/113/113 112/112/112
f 113/113/113 114/114/114 112/112/112
f 113/113/113 115/115/115 114/114/114
f 115/115/115 116/116/116 114/114/114
f 114/114/114 116/116/116 117/117/117
f 118/118/118 114/114/114 117/117/117
f 118/118/118 117/117/117 119/119/119
f 117/117/117 120/120/120 119/119/119
f 121/121/121 118/118/118 119/119/119
f 112/112/112 114/114/114 121/121/121
f 114/114/114 118/118/118 121/121/121
f 112/112/112 121/121/121 109/109/109
f 122/122/122 121/121/121 119/119/119
f 121/121/121 122/122/122 123/123/123
f 124/124/124 121/121/121 123/123/123
f 121/121/121 124/124/124 109/109/109
f 120/120/120 125/125/125 119/119/119
f 125/125/125 126/126/126 119/119/119
f 122/122/122 119/119/119 126/126/126
f 127/127/127 122/122/122 126/126/126
f 128/128/128 123/123/123 122/122/122
f 122/122/122 129/129/129 128/128/128
f 122/122/122 127/127/127 129/129/129
f 120/120/120 130/130/130 125/125/125
f 133/133/133 132/132/132 131/131/131
f 132/132/132 134/134/134 131/131/131
f 135/135/135 134/134/134 132/132/132
f 136/136/136 135/135/135 132/132/132
f 135/135/135 136/136/136 137/137/137
f 138/138/138 135/135/135 137/137/137
f 139/139/139 138/138/138 137/137/137
f 140/140/140 139/139/139 137/137/137
f 143/143/143 142/142/142 141/141/141
f 141/141/141 144/144/144 143/143/143
f 141/141/141 145/145/145 144/144/144
f 144/144/144 145/145/145 146/146/146
f 145/145/145 147/147/147 146/146/146
f 146/146/146 147/147/147 148/148/148
f 147/147/147 149/149/149 148/148/148
f 150/150/150 148/148/148 149/149/149
f 150/150/150 149/149/149 151/151/151
f 152/152/152 150/150/150 151/151/151
f 155/155/155 154/154/154 153/153/153
f 154/154/154 156/156/156 153/153/153
f 155/155/155 153/153/153 157/157/157
f 158/158/158 155/155/155 157/157/157
f 153/153/153 159/159/159 157/157/157
f 159/159/159 160/160/160 157/157/157
f 160/160/160 159/159/159 161/161/161
f 159/159/159 162/162/162 161/161/161
f 165/165/165 164/164/164 163/163/163
f 164/164/164 166/166/166 163/163/163
f 169/169/169 168/168/168 167/167/167
f 168/168/168 170/170/170 167/167/167
f 173/173/173 172/172/172 171/171/171
f 176/176/176 175/175/175 174/174/174
f 175/175/175 177/177/177 174/174/174
f 180/180/180 179/179/179 178/178/178
f 179/179/179 181/181/181 178/178/178
f 184/184/184 183/183/183 182/182/182
f 183/183/183 185/185/185 182/182/182
f 184/184/184 182/182/182 186/186/186
f 187/187/187 184/184/184 186/186/186
f 188/188/188 185/185/185 183/183/183
f 191/191/191 190/190/190 189/189/189
f 190/190/190 192/192/192 189/189/189
f 195/195/195 194/194/194 193/193/193
f 194/194/194 196/196/196 193/193/193
f 199/199/199 198/198/198 197/197/197
f 198/198/198 200/200/200 197/197/197
f 201/201/201 200/200/200 198/198/198
f 202/202/202 201/201/201 198/198/198
f 202/202/202 203/203/203 201/201/201
f 203/203/203 204/204/204 201/201/201
f 202/202/202 205/205/205 203/203/203
f 205/205/205 206/206/206 203/203/203
f 207/207/207 206/206/206 205/205/205
f 208/208/208 207/207/207 205/205/205
f 205/205/205 209/209/209 208/208/208
f 205/205/205 202/202/202 209/209/209
f 202/202/202 198/198/198 209/209/209
f 209/209/209 210/210/210 208/208/208
f 210/210/210 209/209/209 211/211/211
f 209/209/209 198/198/198 211/211/211
f 198/198/198 199/199/199 211/211/211
f 212/212/212 210/210/210 211/211/211
f 215/215/215 214/214/214 213/213/213
f 214/214/214 216/216/216 213/213/213
f 214/214/214 217/217/217 216/216/216
f 217/217/217 218/218/218 216/216/216
f 219/219/219 218/218/218 217/217/217
f 220/220/220 219/219/219 217/217/217
f 219/219/219 221/221/221 218/218/218
f 221/221/221 222/222/222 218/218/218
f 222/222/222 216/216/216 218/218/218
f 220/220/220 223/223/223 219/219/219
f 223/223/223 224/224/224 219/219/219
f 221/221/221 219/219/219 225/225/225
f 219/219/219 224/224/224 225/225/225
f 228/228/228 227/227/227 226/226/226
f 226/226/226 229/229/229 228/228/228
f 226/226/226 230/230/230 229/229/229
f 230/230/230 226/226/226 231/231/231
f 232/232/232 230/230/230 231/231/231
f 231/231/231 233/233/233 232/232/232
f 233/233/233 234/234/234 232/232/232
f 235/235/235 234/234/234 233/233/233
f 236/236/236 234/234/234 235/235/235
f 237/237/237 236/236/236 235/235/235
f 240/240/240 239/239/239 238/238/238
f 239/239/239 241/241/241 238/238/238
f 238/238/238 241/241/241 242/242/242
f 243/243/243 238/238/238 242/242/242
f 238/238/238 243/243/243 244/244/244
f 245/245/245 238/238/238 244/244/244
f 246/246/246 245/245/245 244/244/244
f 247/247/247 246/246/246 244/244/244
f 247/247/247 248/248/248 246/246/246
f 247/247/247 249/249/249 248/248/248
f 249/249/249 250/250/250 248/248/248
f 250/250/250 249/249/249 251/251/251
f 252/252/252 250/250/250 251/251/251
f 253/253/253 252/252/252 251/251/251
f 249/249/249 254/254/254 251/251/251
f 255/255/255 251/251/251 254/254/254
f 255/255/255 254/254/254 256/256/256
f 256/256/256 257/257/257 255/255/255
f 258/258/258 255/255/255 257/257/257
f 259/259/259 258/258/258 257/257/257
f 262/262/262 261/261/261 260/260/260
f 261/261/261 263/263/263 260/260/260
f 266/266/266 265/265/265 264/264/264
f 269/269/269 268/268/268 267/267/267
f 270/270/270 267/267/267 268/268/268
f 273/273/273 272/272/272 271/271/271
f 272/272/272 274/274/274 271/271/271
f 277/277/277 276/276/276 275/275/275
f 276/276/276 278/278/278 275/275/275
f 281/281/281 280/280/280 279/279/279
f 280/280/280 282/282/282 279/279/279
f 280/280/280 283/283/283 282/282/282
f 283/283/283 284/284/284 282/282/282
f 283/283/283 285/285/285 284/284/284
f 285/285/285 286/286/286 284/284/284
f 284/284/284 286/286/286 287/287/287
f 288/288/288 284/284/284 287/287/287
f 288/288/288 287/287/287 289/289/289
f 287/287/287 290/290/290 289/289/289
f 291/291/291 288/288/288 289/289/289
f 282/282/282 284/284/284 291/291/291
f 284/284/284 288/288/288 291/291/291
f 282/282/282 291/291/291 279/279/279
f 292/292/292 291/291/291 289/289/289
f 291/291/291 292/292/292 293/293/293
f 294/294/294 291/291/291 293/293/293
f 291/291/291 294/294/294 279/279/279
f 290/290/290 295/295/295 289/289/289
f 295/295/295 296/296/296 289/289/289
f 292/292/292 289/289/289 296/296/296
f 297/297/297 292/292/292 296/296/296
f 296/296/296 298/298/298 297/297/297
f 298/298/298 299/299/299 297/297/297
f 293/293/293 292/292/292 300/300/300
f 292/292/292 297/297/297 300/300/300
f 300/300/300 301/301/301 293/293/293
f 290/290/290 302/302/302 295/295/295
f 300/300/300 303/303/303 301/301/301
f 303/303/303 304/304/304 301/301/301
f 307/307/307 306/306/306 305/305/305
f 306/306/306 308/308/308 305/305/305
f 309/309/309 308/308/308 306/306/306
f 310/310/310 309/309/309 306/306/306
f 306/306/306 311/311/311 310/310/310
f 314/314/314 313/313/313 312/312/312
f 312/312/312 315/315/315 314/314/314
f 312/312/312 316/316/316 315/315/315
f 315/315/315 316/316/316 317/317/317
f 316/316/316 318/318/318 317/317/317
f 317/317/317 318/318/318 319/319/319
f 318/318/318 320/320/320 319/319/319
f 321/321/321 319/319/319 320/320/320
f 321/321/321 320/320/320 322/322/322
f 323/323/323 321/321/321 322/322/322
f 326/326/326 325/325/325 324/324/324
f 325/325/325 327/327/327 324/324/324
f 326/326/326 324/324/324 328/328/328
f 329/329/329 326/326/326 328/328/328
f 324/324/324 330/330/330 328/328/328
f 330/330/330 331/331/331 328/328/328
f 331/331/331 330/330/330 332/332/332
f 330/330/330 333/333/333 332/332/332
f 336/336/336 335/335/335 334/334/334
f 335/335/335 337/337/337 334/334/334
f 334/334/334 337/337/337 338/338/338
f 337/337/337 339/339/339 338/338/338
f 340/340/340 336/336/336 334/334/334
f 341/341/341 340/340/340 334/334/334
f 341/341/341 334/334/334 342/342/342
f 334/334/334 338/338/338 342/342/342
f 345/345/345 344/344/344 343/343/343
f 344/344/344 346/346/346 343/343/343
f 349/349/349 348/348/348 347/347/347
f 352/352/352 351/351/351 350/350/350
f 351/351/351 353/353/353 350/350/350
f 356/356/356 355/355/355 354/354/354
f 355/355/355 357/357/357 354/354/354
f 360/360/360 359/359/359 358/358/358
f 359/359/359 361/361/361 358/358/358
f 364/364/364 363/363/363 362/362/362
f 363/363/363 365/365/365 362/362/362
f 366/366/366 362/362/362 365/365/365
f 367/367/367 366/366/366 365/365/365
f 366/366/366 367/367/367 368/368/368
f 369/369/369 366/366/366 368/368/368
f 372/372/372 371/371/371 370/370/370
f 371/371/371 373/373/373 370/370/370
f 376/376/376 375/375/375 374/374/374
f 375/375/375 377/377/377 374/374/374
f 378/378/378 377/377/377 375/375/375
f 379/379/379 378/378/378 375/375/375
f 379/379/379 380/380/380 378/378/378
f 380/380/380 381/381/381 378/378/378
f 380/380/380 382/382/382 381/381/381
f 382/382/382 383/383/383 381/381/381
f 384/384/384 383/383/383 382/382/382
f 385/385/385 384/384/384 382/382/382
f 379/379/379 386/386/386 380/380/380
f 386/386/386 387/387/387 380/380/380
f 382/382/382 380/380/380 387/387/387
f 388/388/388 387/387/387 386/386/386
f 389/389/389 388/388/388 386/386/386
f 386/386/386 390/390/390 389/389/389
f 386/386/386 379/379/379 390/390/390
f 379/379/379 375/375/375 390/390/390
f 390/390/390 391/391/391 389/389/389
f 391/391/391 390/390/390 392/392/392
f 393/393/393 391/391/391 392/392/392
f 388/388/388 394/394/394 387/387/387
f 394/394/394 395/395/395 387/387/387
f 395/395/395 382/382/382 387/387/387
f 388/388/388 389/389/389 396/396/396
f 388/388/388 396/396/396 394/394/394
f 389/389/389 397/397/397 396/396/396
f 391/391/391 393/393/393 398/398/398
f 398/398/398 399/399/399 391/391/391
f 390/390/390 375/375/375 392/392/392
f 375/375/375 376/376/376 392/392/392
f 402/402/402 401/401/401 400/400/400
f 401/401/401 403/403/403 400/400/400
f 401/401/401 404/404/404 403/403/403
f 404/404/404 405/405/405 403/403/403
f 408/408/408 407/407/407 406/406/406
f 406/406/406 409/409/409 408/408/408
f 406/406/406 410/410/410 409/409/409
f 410/410/410 406/406/406 411/411/411
f 412/412/412 410/410/410 411/411/411
f 411/411/411 413/413/413 412/412/412
f 413/413/413 414/414/414 412/412/412
f 415/415/415 414/414/414 413/413/413
f 416/416/416 414/414/414 415/415/415
f 417/417/417 416/416/416 415/415/415
f 420/420/420 419/419/419 418/418/418
f 419/419/419 421/421/421 418/418/418
f 419/419/419 422/422/422 421/421/421
f 422/422/422 423/423/423 421/421/421
f 420/420/420 424/424/424 419/419/419
f 424/424/424 425/425/425 419/419/419
f 422/422/422 419/419/419 426/426/426
f 419/419/419 425/425/425 426/426/426
f 423/423/423 427/427/427 421/421/421
f 430/430/430 429/429/429 428/428/428
f 429/429/429 431/431/431 428/428/428
f 431/431/431 432/432/432 428/428/428
f 432/432/432 433/433/433 428/428/428
f 434/434/434 428/428/428 433/433/433
f 436/436/436 434/434/434 435/435/435
f 437/437/437 436/436/436 435/435/435
f 440/440/440 439/439/439 438/438/438
f 439/439/439 441/441/441 438/438/438
f 444/444/444 443/443/443 442/442/442
f 447/447/447 446/446/446 445/445/445
f 448/448/448 445/445/445 446/446/446
f 451/451/451 450/450/450 449/449/449
f 450/450/450 452/452/452 449/449/449
f 455/455/455 454/454/454 453/453/453
f 454/454/454 456/456/456 453/453/453
f 459/459/459 458/458/458 457/457/457
f 458/458/458 460/460/460 457/457/457
f 463/463/463 462/462/462 461/461/461
f 462/462/462 464/464/464 461/461/461
f 465/465/465 461/461/461 464/464/464
f 466/466/466 465/465/465 464/464/464
f 465/465/465 466/466/466 467/467/467
f 466/466/466 468/468/468 467/467/467
f 471/471/471 470/470/470 469/469/469
f 470/470/470 472/472/472 469/469/469
f 475/475/475 474/474/474 473/473/473
f 474/474/474 476/476/476 473/473/473
f 479/479/479 478/478/478 477/477/477
f 478/478/478 480/480/480 477/477/477
f 483/483/483 482/482/482 481/481/481
f 482/482/482 484/484/484 481/481/481
f 487/487/487 486/486/486 485/485/485
f 490/490/490 489/489/489 488/488/488
f 493/493/493 492/492/492 491/491/491
f 492/492/492 494/494/494 491/491/491
f 492/492/492 495/495/495 494/494/494
f 495/495/495 496/496/496 494/494/494
f 495/495/495 497/497/497 496/496/496
f 497/497/497 498/498/498 496/496/496
f 497/497/497 499/499/499 498/498/498
f 499/499/499 500/500/500 498/498/498
f 499/499/499 501/501/501 500/500/500
f 501/501/501 502/502/502 500/500/500
f 505/505/505 504/504/504 503/503/503
f 503/503/503 506/506/506 505/505/505
f 503/503/503 507/507/507 506/506/506
f 506/506/506 507/507/507 508/508/508
f 507/507/507 509/509/509 508/508/508
f 508/508/508 509/509/509 510/510/510
f 509/509/509 511/511/511 510/510/510
f 512/512/512 510/510/510 511/511/511
f 512/512/512 511/511/511 513/513/513
f 514/514/514 512/512/512 513/513/513
f 517/517/517 516/516/516 515/515/515
f 516/516/516 518/518/518 515/515/515
f 519/519/519 515/515/515 518/518/518
f 520/520/520 519/519/519 518/518/518
f 519/519/519 520/520/520 521/521/521
f 522/522/522 519/519/519 521/521/521
f 525/525/525 524/524/524 523/523/523
f 524/524/524 526/526/526 523/523/523
f 529/529/529 528/528/528 527/527/527
f 528/528/528 530/530/530 527/527/527
f 530/530/530 528/528/528 531/531/531
f 529/529/529 532/532/532 528/528/528
f 528/528/528 532/532/532 533/533/533
f 536/536/536 535/535/535 534/534/534
f 535/535/535 537/537/537 534/534/534
f 538/538/538 537/537/537 535/535/535
f 539/539/539 538/538/538 535/535/535
f 539/539/539 540/540/540 538/538/538
f 540/540/540 541/541/541 538/538/538
f 540/540/540 542/542/542 541/541/541
f 542/542/542 543/543/543 541/541/541
f 544/544/544 543/543/543 542/542/542
f 545/545/545 544/544/544 542/542/542
f 548/548/548 547/547/547 546/546/546
f 546/546/546 549/549/549 548/548/548
f 546/546/546 550/550/550 549/549/549
f 550/550/550 546/546/546 551/551/551
f 552/552/552 550/550/550 551/551/551
f 551/551/551 553/553/553 552/552/552
f 553/553/553 554/554/554 552/552/552
f 555/555/555 554/554/554 553/553/553
f 556/556/556 554/554/554 555/555/555
f 557/557/557 556/556/556 555/555/555
f 560/560/560 559/559/559 558/558/558
f 559/559/559 561/561/561 558/558/558
f 564/564/564 563/563/563 562/562/562
f 563/563/563 565/565/565 562/562/562
f 566/566/566 562/562/562 565/565/565
f 567/567/567 566/566/566 565/565/565
f 566/566/566 567/567/567 568/568/568
f 567/567/567 569/569/569 568/568/568
f 572/572/572 571/571/571 570/570/570
f 573/573/573 570/570/570 571/571/571
f 573/573/573 574/574/574 570/570/570
f 572/572/572 570/570/570 575/575/575
f 575/575/575 570/570/570 576/576/576
f 579/579/579 578/578/578 577/577/577
f 578/578/578 580/580/580 577/577/577
f 578/578/578 581/581/581 580/580/580
f 581/581/581 582/582/582 580/580/580
f 581/581/581 583/583/583 582/582/582
f 583/583/583 584/584/584 582/582/582
f 583/583/583 585/585/585 584/584/584
f 585/585/585 586/586/586 584/584/584
f 585/585/585 587/587/587 586/586/586
f 587/587/587 588/588/588 586/586/586
f 591/591/591 590/590/590 589/589/589
f 589/589/589 592/592/592 591/591/591
f 589/589/589 593/593/593 592/592/592
f 592/592/592 593/593/593 594/594/594
f 593/593/593 595/595/595 594/594/594
f 594/594/594 595/595/595 596/596/596
f 595/595/595 597/597/597 596/596/596
f 598/598/598 596/596/596 597/597/597
f 598/598/598 597/597/597 599/599/599
f 600/600/600 598/598/598 599/599/599
f 603/603/603 602/602/602 601/601/601
f 602/602/602 604/604/604 601/601/601
f 605/605/605 601/601/601 604/604/604
f 606/606/606 605/605/605 604/604/604
f 605/605/605 606/606/606 607/607/607
f 608/608/608 605/605/605 607/607/607
f 611/611/611 610/610/610 609/609/609
f 610/610/610 612/612/612 609/609/609
f 615/615/615 614/614/614 613/613/613
f 614/614/614 616/616/616 613/613/613
f 616/616/616 614/614/614 617/617/617
f 615/615/615 618/618/618 614/614/614
f 614/614/614 618/618/618 619/619/619
f 622/622/622 621/621/621 620/620/620
f 621/621/621 623/623/623 620/620/620
f 624/624/624 623/623/623 621/621/621
f 625/625/625 624/624/624 621/621/621
f 625/625/625 626/626/626 624/624/624
f 626/626/626 627/627/627 624/624/624
f 626/626/626 628/628/628 627/627/627
f 628/628/628 629/629/629 627/627/627
f 630/630/630 629/629/629 628/628/628
f 631/631/631 630/630/630 628/628/628
f 634/634/634 633/633/633 632/632/632
f 632/632/632 635/635/635 634/634/634
f 632/632/632 636/636/636 635/635/635
f 636/636/636 632/632/632 637/637/637
f 638/638/638 636/636/636 637/637/637
f 637/637/637 639/639/639 638/638/638
f 639/639/639 640/640/640 638/638/638
f 641/641/641 640/640/640 639/639/639
f 642/642/642 640/640/640 641/641/641
f 643/643/643 642/642/642 641/641/641
f 646/646/646 645/645/645 644/644/644
f 645/645/645 647/647/647 644/644/644
f 650/650/650 649/649/649 648/648/648
f 649/649/649 651/651/651 648/648/648
f 652/652/652 648/648/648 651/651/651
f 653/653/653 652/652/652 651/651/651
f 652/652/652 653/653/653 654/654/654
f 653/653/653 655/655/655 654/654/654
f 658/658/658 657/657/657 656/656/656
f 659/659/659 656/656/656 657/657/657
f 659/659/659 660/660/660 656/656/656
f 658/658/658 656/656/656 661/661/661
f 661/661/661 656/656/656 662/662/662
f 665/665/665 664/664/664 663/663/663
f 664/664/664 666/666/666 663/663/663
f 669/669/669 668/668/668 667/667/667
f 668/668/668 670/670/670 667/667/667
f 673/673/673 672/672/672 671/671/671
f 672/672/672 674/674/674 671/671/671
f 677/677/677 676/676/676 675/675/675
f 676/676/676 678/678/678 675/675/675
f 681/681/681 680/680/680 679/679/679
f 684/684/684 683/683/683 682/682/682
f 687/687/687 686/686/686 685/685/685
f 686/686/686 688/688/688 685/685/685
f 691/691/691 690/690/690 689/689/689
f 690/690/690 692/692/692 689/689/689
f 695/695/695 694/694/694 693/693/693
f 694/694/694 696/696/696 693/693/693
f 699/699/699 698/698/698 697/697/697
f 698/698/698 700/700/700 697/697/697
f 703/703/703 702/702/702 701/701/701
f 706/706/706 705/705/705 704/704/704
f 709/709/709 708/708/708 707/707/707
f 708/708/708 710/710/710 707/707/707
f 713/713/713 712/712/712 711/711/711
f 712/712/712 714/714/714 711/711/711
f 717/717/717 716/716/716 715/715/715
f 716/716/716 718/718/718 715/715/715
f 721/721/721 720/720/720 719/719/719
f 720/720/720 722/722/722 719/719/719
f 725/725/725 724/724/724 723/723/723
f 728/728/728 727/727/727 726/726/726
