g DSJ_GTA_daoJu_zhuangShi_12
v -3.676875 0.4685624 1.144547
v 3.676875 0.4685624 0.579509
v 3.676875 0.4685624 1.144547
v -3.676875 0.4685624 0.579509
v 3.676875 0.4685624 1.144547
v -3.676875 0.4235661 1.144547
v -3.676875 0.4685624 1.144547
v 3.676875 0.4235661 1.144547
v 3.676875 0.4685624 0.579509
v 3.676875 0.4235661 1.144547
v 3.676875 0.4685624 1.144547
v 3.676875 0.4235661 0.579509
v -3.676875 0.4685624 0.579509
v 3.676875 0.4235661 0.579509
v 3.676875 0.4685624 0.579509
v -3.676875 0.4235661 0.579509
v -3.676875 0.4685624 1.144547
v -3.676875 0.4235661 0.579509
v -3.676875 0.4685624 0.579509
v -3.676875 0.4235661 1.144547
v -3.676875 0.8208225 0.6762617
v 3.676875 0.8208225 0.01860237
v 3.676875 0.8208225 0.6762688
v -3.676875 0.8208225 0.01860237
v 3.676875 0.8208225 0.6762688
v -3.676875 0.7758195 0.6762617
v -3.676875 0.8208225 0.6762617
v 3.676875 0.7758195 0.6762688
v 3.676875 0.8208225 0.01860237
v 3.676875 0.7758195 0.6762688
v 3.676875 0.8208225 0.6762688
v 3.676875 0.7758195 0.01860237
v -3.676875 0.8208225 0.01860237
v 3.676875 0.7758195 0.01860237
v 3.676875 0.8208225 0.01860237
v -3.676875 0.7758195 0.01860237
v -3.676875 0.8208225 0.6762617
v -3.676875 0.7758195 0.01860237
v -3.676875 0.8208225 0.01860237
v -3.676875 0.7758195 0.6762617
v -3.676875 1.17619 0.1131878
v 3.676875 1.17619 -0.5483499
v 3.676875 1.17619 0.1131878
v -3.676875 1.17619 -0.5483499
v 3.676875 1.17619 0.1131878
v -3.676875 1.131187 0.1131878
v -3.676875 1.17619 0.1131878
v 3.676875 1.131187 0.1131878
v 3.676875 1.17619 -0.5483499
v 3.676875 1.131187 0.1131878
v 3.676875 1.17619 0.1131878
v 3.676875 1.131187 -0.5483499
v -3.676875 1.17619 -0.5483499
v 3.676875 1.131187 -0.5483499
v 3.676875 1.17619 -0.5483499
v -3.676875 1.131187 -0.5483499
v -3.676875 1.17619 0.1131878
v -3.676875 1.131187 -0.5483499
v -3.676875 1.17619 -0.5483499
v -3.676875 1.131187 0.1131878
v -3.676875 1.536039 -0.4688494
v 3.676875 1.536039 -1.130394
v 3.676875 1.536039 -0.4688425
v -3.676875 1.536039 -1.130394
v 3.676875 1.536039 -0.4688425
v -3.676875 1.491036 -0.4688494
v -3.676875 1.536039 -0.4688494
v 3.676875 1.491036 -0.4688425
v 3.676875 1.536039 -1.130394
v 3.676875 1.491036 -0.4688425
v 3.676875 1.536039 -0.4688425
v 3.676875 1.491036 -1.130394
v -3.676875 1.536039 -1.130394
v 3.676875 1.491036 -1.130394
v 3.676875 1.536039 -1.130394
v -3.676875 1.491036 -1.130394
v -3.676875 1.536039 -0.4688494
v -3.676875 1.491036 -1.130394
v -3.676875 1.536039 -1.130394
v -3.676875 1.491036 -0.4688494
v 3.532826 0.02581882 1.09441
v -3.48593 0.09002352 1.09441
v 3.532826 0.09002352 1.09441
v -3.48593 0.02581882 1.09441
v -3.48593 0.02581882 -1.144561
v 3.532826 0.09002352 -1.144561
v -3.48593 0.09002352 -1.144561
v 3.532826 0.02581882 -1.144561
v -3.352492 0.02581882 1.021656
v 3.406562 0.09002352 1.021656
v -3.352492 0.09002352 1.021656
v 3.406562 0.02581882 1.021656
v 3.406562 0.09002352 1.021656
v 3.406562 0.02581882 -1.05473
v 3.406562 0.09002352 -1.05473
v 3.406562 0.02581882 1.021656
v 3.532826 0.09002352 1.09441
v 3.406562 0.09002352 -1.05473
v 3.532826 0.09002352 -1.144561
v 3.406562 0.09002352 1.021656
v -3.48593 0.09002352 1.09441
v -3.352492 0.09002352 1.021656
v -3.48593 0.09002352 -1.144561
v -3.352492 0.09002352 -1.05473
v 3.532826 0.09002352 1.09441
v 3.532826 0.02581882 -1.144561
v 3.532826 0.02581882 1.09441
v 3.532826 0.09002352 -1.144561
v -3.48593 0.02581882 1.09441
v -3.48593 0.09002352 -1.144561
v -3.48593 0.09002352 1.09441
v -3.48593 0.02581882 -1.144561
v -3.352492 0.02581882 1.021656
v -3.352492 0.09002352 -1.05473
v -3.352492 0.02581882 -1.05473
v -3.352492 0.09002352 1.021656
v 3.406562 0.02581882 -1.05473
v -3.352492 0.09002352 -1.05473
v 3.406562 0.09002352 -1.05473
v -3.352492 0.02581882 -1.05473
v 3.406562 0.08651018 1.079514
v 3.469694 0.4241202 1.021656
v 3.406562 0.4236081 1.079514
v 3.469694 0.08649611 1.021656
v 3.532826 0.0864749 1.079514
v 3.406562 0.4236081 1.079514
v 3.532826 0.4246323 1.079514
v 3.406562 0.08651018 1.079514
v 3.532826 0.0864749 1.079514
v 3.469694 0.4241202 1.021656
v 3.469694 0.08649611 1.021656
v 3.532826 0.4246323 1.079514
v 1.241257 0.08651018 1.079514
v 1.304543 0.4241202 1.021656
v 1.241257 0.4236081 1.079514
v 1.304543 0.08649611 1.021656
v 1.367668 0.0864749 1.079514
v 1.241257 0.4236081 1.079514
v 1.367668 0.4246323 1.079514
v 1.241257 0.08651018 1.079514
v 1.367668 0.0864749 1.079514
v 1.304543 0.4241202 1.021656
v 1.304543 0.08649611 1.021656
v 1.367668 0.4246323 1.079514
v -1.313745 0.08651018 1.079514
v -1.250466 0.4241202 1.021656
v -1.313745 0.4236081 1.079514
v -1.250466 0.08649611 1.021656
v -1.18734 0.0864749 1.079514
v -1.313745 0.4236081 1.079514
v -1.18734 0.4246323 1.079514
v -1.313745 0.08651018 1.079514
v -1.18734 0.0864749 1.079514
v -1.250466 0.4241202 1.021656
v -1.250466 0.08649611 1.021656
v -1.18734 0.4246323 1.079514
v -3.47109 0.08651018 1.079514
v -3.407958 0.4241202 1.021656
v -3.47109 0.4236081 1.079514
v -3.407958 0.08649611 1.021656
v -3.344834 0.0864749 1.079514
v -3.47109 0.4236081 1.079514
v -3.344834 0.4246323 1.079514
v -3.47109 0.08651018 1.079514
v -3.344834 0.0864749 1.079514
v -3.407958 0.4241202 1.021656
v -3.407958 0.08649611 1.021656
v -3.344834 0.4246323 1.079514
v 3.406562 0.08651018 0.656141
v 3.469694 0.7782533 0.5982831
v 3.406562 0.777734 0.656141
v 3.469694 0.08649611 0.5982831
v 3.532826 0.0864749 0.656141
v 3.406562 0.777734 0.656141
v 3.532826 0.778765 0.656141
v 3.406562 0.08651018 0.656141
v 3.532826 0.0864749 0.656141
v 3.469694 0.7782533 0.5982831
v 3.469694 0.08649611 0.5982831
v 3.532826 0.778765 0.656141
v -3.47109 0.08651018 0.656141
v -3.407958 0.7782533 0.5982831
v -3.47109 0.777734 0.656141
v -3.407958 0.08649611 0.5982831
v -3.344834 0.0864749 0.656141
v -3.47109 0.777734 0.656141
v -3.344834 0.778765 0.656141
v -3.47109 0.08651018 0.656141
v -3.344834 0.0864749 0.656141
v -3.407958 0.7782533 0.5982831
v -3.407958 0.08649611 0.5982831
v -3.344834 0.778765 0.656141
v 3.406562 0.08651018 0.1061537
v 3.469694 1.132239 0.04829574
v 3.406562 1.131727 0.1061537
v 3.469694 0.08649611 0.04829574
v 3.532826 0.0864749 0.1061537
v 3.406562 1.131727 0.1061537
v 3.532826 1.132758 0.1061537
v 3.406562 0.08651018 0.1061537
v 3.532826 0.0864749 0.1061537
v 3.469694 1.132239 0.04829574
v 3.469694 0.08649611 0.04829574
v 3.532826 1.132758 0.1061537
v 1.241257 0.08651018 0.1061537
v 1.304543 1.132239 0.04829574
v 1.241257 1.131727 0.1061537
v 1.304543 0.08649611 0.04829574
v 1.367668 0.0864749 0.1061537
v 1.241257 1.131727 0.1061537
v 1.367668 1.132758 0.1061537
v 1.241257 0.08651018 0.1061537
v 1.367668 0.0864749 0.1061537
v 1.304543 1.132239 0.04829574
v 1.304543 0.08649611 0.04829574
v 1.367668 1.132758 0.1061537
v -1.313745 0.08651018 0.1061537
v -1.250466 1.132239 0.04829574
v -1.313745 1.131727 0.1061537
v -1.250466 0.08649611 0.04829574
v -1.18734 0.0864749 0.1061537
v -1.313745 1.131727 0.1061537
v -1.18734 1.132758 0.1061537
v -1.313745 0.08651018 0.1061537
v -1.18734 0.0864749 0.1061537
v -1.250466 1.132239 0.04829574
v -1.250466 0.08649611 0.04829574
v -1.18734 1.132758 0.1061537
v -3.47109 0.08651018 0.1061537
v -3.407958 1.132239 0.04829574
v -3.47109 1.131727 0.1061537
v -3.407958 0.08649611 0.04829574
v -3.344834 0.0864749 0.1061537
v -3.47109 1.131727 0.1061537
v -3.344834 1.132758 0.1061537
v -3.47109 0.08651018 0.1061537
v -3.344834 0.0864749 0.1061537
v -3.407958 1.132239 0.04829574
v -3.407958 0.08649611 0.04829574
v -3.344834 1.132758 0.1061537
v 3.406562 0.08651018 -0.4883177
v 3.469694 1.495881 -0.5461829
v 3.406562 1.495847 -0.4883177
v 3.469694 0.08649611 -0.5461829
v 3.532826 0.0864749 -0.4883177
v 3.406562 1.495847 -0.4883177
v 3.532826 1.495909 -0.4883177
v 3.406562 0.08651018 -0.4883177
v 3.532826 0.0864749 -0.4883177
v 3.469694 1.495881 -0.5461829
v 3.469694 0.08649611 -0.5461829
v 3.532826 1.495909 -0.4883177
v -3.47109 0.08651018 -0.4883177
v -3.407958 1.495881 -0.5461829
v -3.47109 1.495847 -0.4883177
v -3.407958 0.08649611 -0.5461829
v -3.344834 0.0864749 -0.4883177
v -3.47109 1.495847 -0.4883177
v -3.344834 1.495909 -0.4883177
v -3.47109 0.08651018 -0.4883177
v -3.344834 0.0864749 -0.4883177
v -3.407958 1.495881 -0.5461829
v -3.407958 0.08649611 -0.5461829
v -3.344834 1.495909 -0.4883177
v 3.406562 0.08651018 -1.060067
v 3.469694 1.496036 -1.117932
v 3.406562 1.496001 -1.060067
v 3.469694 0.08649611 -1.117932
v 3.532826 0.0864749 -1.060067
v 3.406562 1.496001 -1.060067
v 3.532826 1.496064 -1.060067
v 3.406562 0.08651018 -1.060067
v 3.532826 0.0864749 -1.060067
v 3.469694 1.496036 -1.117932
v 3.469694 0.08649611 -1.117932
v 3.532826 1.496064 -1.060067
v 1.241257 0.08651018 -1.060067
v 1.304543 1.496036 -1.117932
v 1.241257 1.496001 -1.060067
v 1.304543 0.08649611 -1.117932
v 1.367668 0.0864749 -1.060067
v 1.241257 1.496001 -1.060067
v 1.367668 1.496064 -1.060067
v 1.241257 0.08651018 -1.060067
v 1.367668 0.0864749 -1.060067
v 1.304543 1.496036 -1.117932
v 1.304543 0.08649611 -1.117932
v 1.367668 1.496064 -1.060067
v -1.313745 0.08651018 -1.060067
v -1.250466 1.496036 -1.117932
v -1.313745 1.496001 -1.060067
v -1.250466 0.08649611 -1.117932
v -1.18734 0.0864749 -1.060067
v -1.313745 1.496001 -1.060067
v -1.18734 1.496064 -1.060067
v -1.313745 0.08651018 -1.060067
v -1.18734 0.0864749 -1.060067
v -1.250466 1.496036 -1.117932
v -1.250466 0.08649611 -1.117932
v -1.18734 1.496064 -1.060067
v -3.47109 0.08651018 -1.060067
v -3.407958 1.496036 -1.117932
v -3.47109 1.496001 -1.060067
v -3.407958 0.08649611 -1.117932
v -3.344834 0.0864749 -1.060067
v -3.47109 1.496001 -1.060067
v -3.344834 1.496064 -1.060067
v -3.47109 0.08651018 -1.060067
v -3.344834 0.0864749 -1.060067
v -3.407958 1.496036 -1.117932
v -3.407958 0.08649611 -1.117932
v -3.344834 1.496064 -1.060067
v 3.406562 0.02581882 0.1166031
v -3.352492 0.09002352 0.1166031
v 3.406562 0.09002352 0.1166031
v -3.352492 0.02581882 0.1166031
v -3.352492 0.02581882 0.04384947
v 3.406408 0.09002352 0.04384947
v -3.352492 0.09002352 0.04384947
v 3.406408 0.02581882 0.04384947
v -3.352492 0.09002352 0.1166031
v 3.406408 0.09002352 0.04384947
v 3.406562 0.09002352 0.1166031
v -3.352492 0.09002352 0.04384947
vt 0.7318711 0.5181981
vt 0.6749741 0.7393335
vt 0.7318711 0.7393335
vt 0.6749741 0.5181981
vt 0.7318711 0.7393335
vt 0.7364057 0.5181981
vt 0.7318711 0.5181981
vt 0.7364057 0.7393335
vt 0.6749741 0.7393335
vt 0.7318711 0.740688
vt 0.7318711 0.7393335
vt 0.6749741 0.740688
vt 0.6749741 0.5181981
vt 0.6704395 0.7393335
vt 0.6749741 0.7393335
vt 0.6704395 0.5181981
vt 0.7318711 0.5181981
vt 0.6749741 0.5168437
vt 0.6749741 0.5181981
vt 0.7318711 0.5168437
vt 0.6847163 0.5181981
vt 0.6184894 0.7393335
vt 0.6847163 0.7393335
vt 0.6184894 0.5181981
vt 0.6847163 0.7393335
vt 0.6892425 0.5181981
vt 0.6847163 0.5181981
vt 0.6892425 0.7393335
vt 0.6184894 0.7393335
vt 0.6847163 0.740688
vt 0.6847163 0.7393335
vt 0.6184894 0.740688
vt 0.6184894 0.5181981
vt 0.6139548 0.7393335
vt 0.6184894 0.7393335
vt 0.6139548 0.5181981
vt 0.6847163 0.5181981
vt 0.6184894 0.5168437
vt 0.6184894 0.5181981
vt 0.6847163 0.5168437
vt 0.6280128 0.5181981
vt 0.5613904 0.7393335
vt 0.6280128 0.7393335
vt 0.5613904 0.5181981
vt 0.6280128 0.7393335
vt 0.632539 0.5181981
vt 0.6280128 0.5181981
vt 0.6325474 0.7393335
vt 0.5613904 0.7393335
vt 0.6280128 0.740688
vt 0.6280128 0.7393335
vt 0.5613904 0.740688
vt 0.5613904 0.5181981
vt 0.5568643 0.7393335
vt 0.5613904 0.7393335
vt 0.5568643 0.5181981
vt 0.6280128 0.5181981
vt 0.5613904 0.5168437
vt 0.5613904 0.5181981
vt 0.6280128 0.5168437
vt 0.5693996 0.5181981
vt 0.5027772 0.7393335
vt 0.5693996 0.7393335
vt 0.5027772 0.5181981
vt 0.5693996 0.7393335
vt 0.5739342 0.5181981
vt 0.5693996 0.5181981
vt 0.5739342 0.7393335
vt 0.5027772 0.7393335
vt 0.5693996 0.740688
vt 0.5693996 0.7393335
vt 0.5027772 0.740688
vt 0.5027772 0.5181981
vt 0.498251 0.7393335
vt 0.5027772 0.7393335
vt 0.498251 0.5181981
vt 0.5693996 0.5181981
vt 0.5027772 0.5168437
vt 0.5027772 0.5181981
vt 0.5693996 0.5168437
vt 0.974712 0.4369203
vt 0.9615793 0.4387207
vt 0.974712 0.4387207
vt 0.9615793 0.4369203
vt 0.974712 0.4369203
vt 0.9615793 0.4387207
vt 0.974712 0.4387207
vt 0.9615793 0.4369203
vt 0.9744595 0.4369203
vt 0.9618149 0.4387207
vt 0.9744595 0.4387207
vt 0.9618149 0.4369203
vt 0.9701016 0.4387207
vt 0.9662232 0.4369203
vt 0.9662232 0.4387207
vt 0.9701016 0.4369203
vt 0.9772359 0.4938173
vt 0.9758477 0.4925975
vt 0.9757888 0.4938173
vt 0.9771938 0.4925975
vt 0.9772359 0.4258993
vt 0.9771938 0.4271865
vt 0.9757888 0.4258993
vt 0.9758477 0.4271865
vt 0.966055 0.4387207
vt 0.9702446 0.4369203
vt 0.966055 0.4369203
vt 0.9702446 0.4387207
vt 0.9702446 0.4369203
vt 0.966055 0.4387207
vt 0.9702446 0.4387207
vt 0.966055 0.4369203
vt 0.9661896 0.4369203
vt 0.9700764 0.4387207
vt 0.9700764 0.4369203
vt 0.9661896 0.4387207
vt 0.9744765 0.4369203
vt 0.9618317 0.4387207
vt 0.9744765 0.4387207
vt 0.9618317 0.4369203
vt 0.9618149 0.4386197
vt 0.9616971 0.4480675
vt 0.9618149 0.4480507
vt 0.9616971 0.4386197
vt 0.974712 0.4386197
vt 0.9744765 0.4480507
vt 0.974712 0.4480843
vt 0.9744765 0.4386197
vt 0.9615793 0.4386197
vt 0.9616971 0.4480675
vt 0.9616971 0.4386197
vt 0.9615793 0.4480843
vt 0.9658699 0.4386197
vt 0.9657521 0.4480675
vt 0.9658699 0.4480507
vt 0.9657521 0.4386197
vt 0.9706653 0.4386197
vt 0.9704298 0.4480507
vt 0.9706653 0.4480843
vt 0.9704298 0.4386197
vt 0.9656343 0.4386197
vt 0.9657521 0.4480675
vt 0.9657521 0.4386197
vt 0.9656343 0.4480843
vt 0.9706485 0.4386197
vt 0.9705307 0.4480675
vt 0.9706485 0.4480507
vt 0.9705307 0.4386197
vt 0.9658784 0.4386197
vt 0.9656428 0.4480507
vt 0.9658784 0.4480843
vt 0.9656428 0.4386197
vt 0.970413 0.4386197
vt 0.9705307 0.4480675
vt 0.9705307 0.4386197
vt 0.970413 0.4480843
vt 0.9746867 0.4386197
vt 0.974569 0.4480675
vt 0.9746867 0.4480507
vt 0.974569 0.4386197
vt 0.9618485 0.4386197
vt 0.9616129 0.4480507
vt 0.9618485 0.4480843
vt 0.9616129 0.4386197
vt 0.9744512 0.4386197
vt 0.974569 0.4480675
vt 0.974569 0.4386197
vt 0.9744512 0.4480843
vt 0.9618149 0.4386197
vt 0.9616971 0.457978
vt 0.9618149 0.4579612
vt 0.9616971 0.4386197
vt 0.974712 0.4386197
vt 0.9744765 0.4579612
vt 0.974712 0.4579948
vt 0.9744765 0.4386197
vt 0.9615793 0.4386197
vt 0.9616971 0.457978
vt 0.9616971 0.4386197
vt 0.9615793 0.4579948
vt 0.9746867 0.4386197
vt 0.974569 0.457978
vt 0.9746867 0.4579612
vt 0.974569 0.4386197
vt 0.9618485 0.4386197
vt 0.9616129 0.4579612
vt 0.9618485 0.4579948
vt 0.9616129 0.4386197
vt 0.9744512 0.4386197
vt 0.974569 0.457978
vt 0.974569 0.4386197
vt 0.9744512 0.4579948
vt 0.9618149 0.4386197
vt 0.9616971 0.4678801
vt 0.9618149 0.4678717
vt 0.9616971 0.4386197
vt 0.974712 0.4386197
vt 0.9744765 0.4678717
vt 0.974712 0.4678969
vt 0.9744765 0.4386197
vt 0.9615793 0.4386197
vt 0.9616971 0.4678801
vt 0.9616971 0.4386197
vt 0.9615793 0.4678969
vt 0.9658699 0.4386197
vt 0.9657521 0.4678801
vt 0.9658699 0.4678717
vt 0.9657521 0.4386197
vt 0.9706653 0.4386197
vt 0.9704298 0.4678717
vt 0.9706653 0.4678969
vt 0.9704298 0.4386197
vt 0.9656343 0.4386197
vt 0.9657521 0.4678801
vt 0.9657521 0.4386197
vt 0.9656343 0.4678969
vt 0.9706485 0.4386197
vt 0.9705307 0.4678801
vt 0.9706485 0.4678717
vt 0.9705307 0.4386197
vt 0.9658784 0.4386197
vt 0.9656428 0.4678717
vt 0.9658784 0.4678969
vt 0.9656428 0.4386197
vt 0.970413 0.4386197
vt 0.9705307 0.4678801
vt 0.9705307 0.4386197
vt 0.970413 0.4678969
vt 0.9746867 0.4386197
vt 0.974569 0.4678801
vt 0.9746867 0.4678717
vt 0.974569 0.4386197
vt 0.9618485 0.4386197
vt 0.9616129 0.4678717
vt 0.9618485 0.4678969
vt 0.9616129 0.4386197
vt 0.9744512 0.4386197
vt 0.974569 0.4678801
vt 0.974569 0.4386197
vt 0.9744512 0.4678969
vt 0.9618149 0.4386197
vt 0.9616971 0.4780598
vt 0.9618149 0.4780598
vt 0.9616971 0.4386197
vt 0.974712 0.4386197
vt 0.9744765 0.4780598
vt 0.974712 0.4780598
vt 0.9744765 0.4386197
vt 0.9615793 0.4386197
vt 0.9616971 0.4780598
vt 0.9616971 0.4386197
vt 0.9615793 0.4780598
vt 0.9746867 0.4386197
vt 0.974569 0.4780598
vt 0.9746867 0.4780598
vt 0.974569 0.4386197
vt 0.9618485 0.4386197
vt 0.9616129 0.4780598
vt 0.9618485 0.4780598
vt 0.9616129 0.4386197
vt 0.9744512 0.4386197
vt 0.974569 0.4780598
vt 0.974569 0.4386197
vt 0.9744512 0.4780598
vt 0.9618149 0.4386197
vt 0.9616971 0.4780598
vt 0.9618149 0.4780598
vt 0.9616971 0.4386197
vt 0.974712 0.4386197
vt 0.9744765 0.4780598
vt 0.974712 0.4780598
vt 0.9744765 0.4386197
vt 0.9615793 0.4386197
vt 0.9616971 0.4780598
vt 0.9616971 0.4386197
vt 0.9615793 0.4780598
vt 0.9658699 0.4386197
vt 0.9657521 0.4780598
vt 0.9658699 0.4780598
vt 0.9657521 0.4386197
vt 0.9706653 0.4386197
vt 0.9704298 0.4780598
vt 0.9706653 0.4780598
vt 0.9704298 0.4386197
vt 0.9656343 0.4386197
vt 0.9657521 0.4780598
vt 0.9657521 0.4386197
vt 0.9656343 0.4780598
vt 0.9706485 0.4386197
vt 0.9705307 0.4780598
vt 0.9706485 0.4780598
vt 0.9705307 0.4386197
vt 0.9658784 0.4386197
vt 0.9656428 0.4780598
vt 0.9658784 0.4780598
vt 0.9656428 0.4386197
vt 0.970413 0.4386197
vt 0.9705307 0.4780598
vt 0.9705307 0.4386197
vt 0.970413 0.4780598
vt 0.9746867 0.4386197
vt 0.974569 0.4780598
vt 0.9746867 0.4780598
vt 0.974569 0.4386197
vt 0.9618485 0.4386197
vt 0.9616129 0.4780598
vt 0.9618485 0.4780598
vt 0.9616129 0.4386197
vt 0.9744512 0.4386197
vt 0.974569 0.4780598
vt 0.974569 0.4386197
vt 0.9744512 0.4780598
vt 0.9744765 0.4369203
vt 0.9618317 0.4387207
vt 0.9744765 0.4387207
vt 0.9618317 0.4369203
vt 0.9744595 0.4369203
vt 0.9618149 0.4387207
vt 0.9744595 0.4387207
vt 0.9618149 0.4369203
vt 0.9766049 0.4271865
vt 0.9765629 0.492589
vt 0.9766049 0.4925975
vt 0.9765629 0.4271865
vn 0.003921568 0.9999923 -0.000345267
vn 0.003921568 0.9999923 -0.000345267
vn 0.003921568 0.9999923 -0.000345267
vn 0.003921568 0.9999923 -0.000345267
vn 0.01176465 -0.01176465 0.9998616
vn 0.01176465 -0.01176465 0.9998616
vn 0.01176465 -0.01176465 0.9998616
vn 0.01176465 -0.01176465 0.9998616
vn 0.9999924 -0.003921568 0
vn 0.9999924 -0.003921568 0
vn 0.9999924 -0.003921568 0
vn 0.9999924 -0.003921568 0
vn 0.01176465 -0.01176465 -0.9998616
vn 0.01176465 -0.01176465 -0.9998616
vn 0.01176465 -0.01176465 -0.9998616
vn 0.01176465 -0.01176465 -0.9998616
vn -0.9999923 -0.003921568 -0.0003442513
vn -0.9999923 -0.003921568 -0.0003442513
vn -0.9999923 -0.003921568 -0.0003442513
vn -0.9999923 -0.003921568 -0.0003442513
vn 0.003921568 0.9999923 -0.000345267
vn 0.003921568 0.9999923 -0.000345267
vn 0.003921568 0.9999923 -0.000345267
vn 0.003921568 0.9999923 -0.000345267
vn 0.01176465 -0.01176465 0.9998616
vn 0.01176465 -0.01176465 0.9998616
vn 0.01176465 -0.01176465 0.9998616
vn 0.01176465 -0.01176465 0.9998616
vn 0.9999924 -0.003921568 0
vn 0.9999924 -0.003921568 0
vn 0.9999924 -0.003921568 0
vn 0.9999924 -0.003921568 0
vn 0.01176465 -0.01176465 -0.9998616
vn 0.01176465 -0.01176465 -0.9998616
vn 0.01176465 -0.01176465 -0.9998616
vn 0.01176465 -0.01176465 -0.9998616
vn -0.9999923 -0.003921568 -0.0003442513
vn -0.9999923 -0.003921568 -0.0003442513
vn -0.9999923 -0.003921568 -0.0003442513
vn -0.9999923 -0.003921568 -0.0003442513
vn 0.003921568 0.9999923 -0.000345267
vn 0.003921568 0.9999923 -0.000345267
vn 0.003921568 0.9999923 -0.000345267
vn 0.003921568 0.9999923 -0.000345267
vn 0.01176465 -0.01176465 0.9998616
vn 0.01176465 -0.01176465 0.9998616
vn 0.01176465 -0.01176465 0.9998616
vn 0.01176465 -0.01176465 0.9998616
vn 0.9999924 -0.003921568 0
vn 0.9999924 -0.003921568 0
vn 0.9999924 -0.003921568 0
vn 0.9999924 -0.003921568 0
vn 0.01176465 -0.01176465 -0.9998616
vn 0.01176465 -0.01176465 -0.9998616
vn 0.01176465 -0.01176465 -0.9998616
vn 0.01176465 -0.01176465 -0.9998616
vn -0.9999923 -0.003921568 -0.0003442513
vn -0.9999923 -0.003921568 -0.0003442513
vn -0.9999923 -0.003921568 -0.0003442513
vn -0.9999923 -0.003921568 -0.0003442513
vn 0.003921568 0.9999923 -0.000345267
vn 0.003921568 0.9999923 -0.000345267
vn 0.003921568 0.9999923 -0.000345267
vn 0.003921568 0.9999923 -0.000345267
vn 0.01176465 -0.01176465 0.9998616
vn 0.01176465 -0.01176465 0.9998616
vn 0.01176465 -0.01176465 0.9998616
vn 0.01176465 -0.01176465 0.9998616
vn 0.9999924 -0.003921568 0
vn 0.9999924 -0.003921568 0
vn 0.9999924 -0.003921568 0
vn 0.9999924 -0.003921568 0
vn 0.01176465 -0.01176465 -0.9998616
vn 0.01176465 -0.01176465 -0.9998616
vn 0.01176465 -0.01176465 -0.9998616
vn 0.01176465 -0.01176465 -0.9998616
vn -0.9999923 -0.003921568 -0.0003442513
vn -0.9999923 -0.003921568 -0.0003442513
vn -0.9999923 -0.003921568 -0.0003442513
vn -0.9999923 -0.003921568 -0.0003442513
vn 0.01176465 -0.01176465 0.9998616
vn 0.01176465 -0.01176465 0.9998616
vn 0.01176465 -0.01176465 0.9998616
vn 0.01176465 -0.01176465 0.9998616
vn 0.01176465 -0.01176465 -0.9998616
vn 0.01176465 -0.01176465 -0.9998616
vn 0.01176465 -0.01176465 -0.9998616
vn 0.01176465 -0.01176465 -0.9998616
vn 0.01176465 -0.01176465 -0.9998616
vn 0.01176465 -0.01176465 -0.9998616
vn 0.01176465 -0.01176465 -0.9998616
vn 0.01176465 -0.01176465 -0.9998616
vn -0.9999923 -0.003921568 -0.0003442513
vn -0.9999923 -0.003921568 -0.0003442513
vn -0.9999923 -0.003921568 -0.0003442513
vn -0.9999923 -0.003921568 -0.0003442513
vn 0.003921568 0.9999923 -0.000345267
vn 0.003921568 0.9999923 -0.000345267
vn 0.003921568 0.9999923 -0.000345267
vn 0.003921568 0.9999923 -0.000345267
vn 0.003921568 0.9999923 -0.000345267
vn 0.003921568 0.9999923 -0.000345267
vn 0.003921568 0.9999923 -0.000345267
vn 0.003921568 0.9999923 -0.000345267
vn 0.9999924 -0.003921568 0
vn 0.9999924 -0.003921568 0
vn 0.9999924 -0.003921568 0
vn 0.9999924 -0.003921568 0
vn -0.9999923 -0.003921568 -0.0003442513
vn -0.9999923 -0.003921568 -0.0003442513
vn -0.9999923 -0.003921568 -0.0003442513
vn -0.9999923 -0.003921568 -0.0003442513
vn 0.9999924 -0.003921568 0
vn 0.9999924 -0.003921568 0
vn 0.9999924 -0.003921568 0
vn 0.9999924 -0.003921568 0
vn 0.01176465 -0.01176465 0.9998616
vn 0.01176465 -0.01176465 0.9998616
vn 0.01176465 -0.01176465 0.9998616
vn 0.01176465 -0.01176465 0.9998616
vn -0.670583 -0.01176465 -0.7417412
vn -0.670583 -0.01176465 -0.7417412
vn -0.670583 -0.01176465 -0.7417412
vn -0.670583 -0.01176465 -0.7417412
vn 0.01176465 -0.01176465 0.9998616
vn 0.01176465 -0.01176465 0.9998616
vn 0.01176465 -0.01176465 0.9998616
vn 0.01176465 -0.01176465 0.9998616
vn 0.6862693 -0.01176465 -0.7272524
vn 0.6862693 -0.01176465 -0.7272524
vn 0.6862693 -0.01176465 -0.7272524
vn 0.6862693 -0.01176465 -0.7272524
vn -0.670583 -0.01176465 -0.7417412
vn -0.670583 -0.01176465 -0.7417412
vn -0.670583 -0.01176465 -0.7417412
vn -0.670583 -0.01176465 -0.7417412
vn 0.01176465 -0.01176465 0.9998616
vn 0.01176465 -0.01176465 0.9998616
vn 0.01176465 -0.01176465 0.9998616
vn 0.01176465 -0.01176465 0.9998616
vn 0.6862693 -0.01176465 -0.7272524
vn 0.6862693 -0.01176465 -0.7272524
vn 0.6862693 -0.01176465 -0.7272524
vn 0.6862693 -0.01176465 -0.7272524
vn -0.670583 -0.01176465 -0.7417412
vn -0.670583 -0.01176465 -0.7417412
vn -0.670583 -0.01176465 -0.7417412
vn -0.670583 -0.01176465 -0.7417412
vn 0.01176465 -0.01176465 0.9998616
vn 0.01176465 -0.01176465 0.9998616
vn 0.01176465 -0.01176465 0.9998616
vn 0.01176465 -0.01176465 0.9998616
vn 0.6862693 -0.01176465 -0.7272524
vn 0.6862693 -0.01176465 -0.7272524
vn 0.6862693 -0.01176465 -0.7272524
vn 0.6862693 -0.01176465 -0.7272524
vn -0.670583 -0.01176465 -0.7417412
vn -0.670583 -0.01176465 -0.7417412
vn -0.670583 -0.01176465 -0.7417412
vn -0.670583 -0.01176465 -0.7417412
vn 0.01176465 -0.01176465 0.9998616
vn 0.01176465 -0.01176465 0.9998616
vn 0.01176465 -0.01176465 0.9998616
vn 0.01176465 -0.01176465 0.9998616
vn 0.6862693 -0.01176465 -0.7272524
vn 0.6862693 -0.01176465 -0.7272524
vn 0.6862693 -0.01176465 -0.7272524
vn 0.6862693 -0.01176465 -0.7272524
vn -0.670583 -0.01176465 -0.7417412
vn -0.670583 -0.01176465 -0.7417412
vn -0.670583 -0.01176465 -0.7417412
vn -0.670583 -0.01176465 -0.7417412
vn 0.01176465 -0.01176465 0.9998616
vn 0.01176465 -0.01176465 0.9998616
vn 0.01176465 -0.01176465 0.9998616
vn 0.01176465 -0.01176465 0.9998616
vn 0.6862693 -0.01176465 -0.7272524
vn 0.6862693 -0.01176465 -0.7272524
vn 0.6862693 -0.01176465 -0.7272524
vn 0.6862693 -0.01176465 -0.7272524
vn -0.670583 -0.01176465 -0.7417412
vn -0.670583 -0.01176465 -0.7417412
vn -0.670583 -0.01176465 -0.7417412
vn -0.670583 -0.01176465 -0.7417412
vn 0.01176465 -0.01176465 0.9998616
vn 0.01176465 -0.01176465 0.9998616
vn 0.01176465 -0.01176465 0.9998616
vn 0.01176465 -0.01176465 0.9998616
vn 0.6862693 -0.01176465 -0.7272524
vn 0.6862693 -0.01176465 -0.7272524
vn 0.6862693 -0.01176465 -0.7272524
vn 0.6862693 -0.01176465 -0.7272524
vn -0.670583 -0.01176465 -0.7417412
vn -0.670583 -0.01176465 -0.7417412
vn -0.670583 -0.01176465 -0.7417412
vn -0.670583 -0.01176465 -0.7417412
vn 0.01176465 -0.01176465 0.9998616
vn 0.01176465 -0.01176465 0.9998616
vn 0.01176465 -0.01176465 0.9998616
vn 0.01176465 -0.01176465 0.9998616
vn 0.6862693 -0.01176465 -0.7272524
vn 0.6862693 -0.01176465 -0.7272524
vn 0.6862693 -0.01176465 -0.7272524
vn 0.6862693 -0.01176465 -0.7272524
vn -0.670583 -0.01176465 -0.7417412
vn -0.670583 -0.01176465 -0.7417412
vn -0.670583 -0.01176465 -0.7417412
vn -0.670583 -0.01176465 -0.7417412
vn 0.01176465 -0.01176465 0.9998616
vn 0.01176465 -0.01176465 0.9998616
vn 0.01176465 -0.01176465 0.9998616
vn 0.01176465 -0.01176465 0.9998616
vn 0.6862693 -0.01176465 -0.7272524
vn 0.6862693 -0.01176465 -0.7272524
vn 0.6862693 -0.01176465 -0.7272524
vn 0.6862693 -0.01176465 -0.7272524
vn -0.670583 -0.01176465 -0.7417412
vn -0.670583 -0.01176465 -0.7417412
vn -0.670583 -0.01176465 -0.7417412
vn -0.670583 -0.01176465 -0.7417412
vn 0.01176465 -0.01176465 0.9998616
vn 0.01176465 -0.01176465 0.9998616
vn 0.01176465 -0.01176465 0.9998616
vn 0.01176465 -0.01176465 0.9998616
vn 0.6862693 -0.01176465 -0.7272524
vn 0.6862693 -0.01176465 -0.7272524
vn 0.6862693 -0.01176465 -0.7272524
vn 0.6862693 -0.01176465 -0.7272524
vn -0.670583 -0.01176465 -0.7417412
vn -0.670583 -0.01176465 -0.7417412
vn -0.670583 -0.01176465 -0.7417412
vn -0.670583 -0.01176465 -0.7417412
vn 0.01176465 -0.01176465 0.9998616
vn 0.01176465 -0.01176465 0.9998616
vn 0.01176465 -0.01176465 0.9998616
vn 0.01176465 -0.01176465 0.9998616
vn 0.6862693 -0.01176465 -0.7272524
vn 0.6862693 -0.01176465 -0.7272524
vn 0.6862693 -0.01176465 -0.7272524
vn 0.6862693 -0.01176465 -0.7272524
vn -0.670583 -0.01176465 -0.7417412
vn -0.670583 -0.01176465 -0.7417412
vn -0.670583 -0.01176465 -0.7417412
vn -0.670583 -0.01176465 -0.7417412
vn 0.01176465 -0.01176465 0.9998616
vn 0.01176465 -0.01176465 0.9998616
vn 0.01176465 -0.01176465 0.9998616
vn 0.01176465 -0.01176465 0.9998616
vn 0.6862693 -0.01176465 -0.7272524
vn 0.6862693 -0.01176465 -0.7272524
vn 0.6862693 -0.01176465 -0.7272524
vn 0.6862693 -0.01176465 -0.7272524
vn -0.670583 -0.01176465 -0.7417412
vn -0.670583 -0.01176465 -0.7417412
vn -0.670583 -0.01176465 -0.7417412
vn -0.670583 -0.01176465 -0.7417412
vn 0.01176465 -0.01176465 0.9998616
vn 0.01176465 -0.01176465 0.9998616
vn 0.01176465 -0.01176465 0.9998616
vn 0.01176465 -0.01176465 0.9998616
vn 0.6862693 -0.01176465 -0.7272524
vn 0.6862693 -0.01176465 -0.7272524
vn 0.6862693 -0.01176465 -0.7272524
vn 0.6862693 -0.01176465 -0.7272524
vn -0.670583 -0.01176465 -0.7417412
vn -0.670583 -0.01176465 -0.7417412
vn -0.670583 -0.01176465 -0.7417412
vn -0.670583 -0.01176465 -0.7417412
vn 0.01176465 -0.01176465 0.9998616
vn 0.01176465 -0.01176465 0.9998616
vn 0.01176465 -0.01176465 0.9998616
vn 0.01176465 -0.01176465 0.9998616
vn 0.6862693 -0.01176465 -0.7272524
vn 0.6862693 -0.01176465 -0.7272524
vn 0.6862693 -0.01176465 -0.7272524
vn 0.6862693 -0.01176465 -0.7272524
vn -0.670583 -0.01176465 -0.7417412
vn -0.670583 -0.01176465 -0.7417412
vn -0.670583 -0.01176465 -0.7417412
vn -0.670583 -0.01176465 -0.7417412
vn 0.01176465 -0.01176465 0.9998616
vn 0.01176465 -0.01176465 0.9998616
vn 0.01176465 -0.01176465 0.9998616
vn 0.01176465 -0.01176465 0.9998616
vn 0.6862693 -0.01176465 -0.7272524
vn 0.6862693 -0.01176465 -0.7272524
vn 0.6862693 -0.01176465 -0.7272524
vn 0.6862693 -0.01176465 -0.7272524
vn -0.670583 -0.01176465 -0.7417412
vn -0.670583 -0.01176465 -0.7417412
vn -0.670583 -0.01176465 -0.7417412
vn -0.670583 -0.01176465 -0.7417412
vn 0.01176465 -0.01176465 0.9998616
vn 0.01176465 -0.01176465 0.9998616
vn 0.01176465 -0.01176465 0.9998616
vn 0.01176465 -0.01176465 0.9998616
vn 0.6862693 -0.01176465 -0.7272524
vn 0.6862693 -0.01176465 -0.7272524
vn 0.6862693 -0.01176465 -0.7272524
vn 0.6862693 -0.01176465 -0.7272524
vn -0.670583 -0.01176465 -0.7417412
vn -0.670583 -0.01176465 -0.7417412
vn -0.670583 -0.01176465 -0.7417412
vn -0.670583 -0.01176465 -0.7417412
vn 0.01176465 -0.01176465 0.9998616
vn 0.01176465 -0.01176465 0.9998616
vn 0.01176465 -0.01176465 0.9998616
vn 0.01176465 -0.01176465 0.9998616
vn 0.6862693 -0.01176465 -0.7272524
vn 0.6862693 -0.01176465 -0.7272524
vn 0.6862693 -0.01176465 -0.7272524
vn 0.6862693 -0.01176465 -0.7272524
vn 0.01176465 -0.01176465 0.9998616
vn 0.01176465 -0.01176465 0.9998616
vn 0.01176465 -0.01176465 0.9998616
vn 0.01176465 -0.01176465 0.9998616
vn 0.01176465 -0.01176465 -0.9998616
vn 0.01176465 -0.01176465 -0.9998616
vn 0.01176465 -0.01176465 -0.9998616
vn 0.01176465 -0.01176465 -0.9998616
vn 0.003921568 0.9999923 -0.000345267
vn 0.003921568 0.9999923 -0.000345267
vn 0.003921568 0.9999923 -0.000345267
vn 0.003921568 0.9999923 -0.000345267
g DSJ_GTA_daoJu_zhuangShi_12_0
f 3/3/3 2/2/2 1/1/1
f 2/2/2 4/4/4 1/1/1
f 7/7/7 6/6/6 5/5/5
f 6/6/6 8/8/8 5/5/5
f 11/11/11 10/10/10 9/9/9
f 10/10/10 12/12/12 9/9/9
f 15/15/15 14/14/14 13/13/13
f 14/14/14 16/16/16 13/13/13
f 19/19/19 18/18/18 17/17/17
f 18/18/18 20/20/20 17/17/17
f 23/23/23 22/22/22 21/21/21
f 22/22/22 24/24/24 21/21/21
f 27/27/27 26/26/26 25/25/25
f 26/26/26 28/28/28 25/25/25
f 31/31/31 30/30/30 29/29/29
f 30/30/30 32/32/32 29/29/29
f 35/35/35 34/34/34 33/33/33
f 34/34/34 36/36/36 33/33/33
f 39/39/39 38/38/38 37/37/37
f 38/38/38 40/40/40 37/37/37
f 43/43/43 42/42/42 41/41/41
f 42/42/42 44/44/44 41/41/41
f 47/47/47 46/46/46 45/45/45
f 46/46/46 48/48/48 45/45/45
f 51/51/51 50/50/50 49/49/49
f 50/50/50 52/52/52 49/49/49
f 55/55/55 54/54/54 53/53/53
f 54/54/54 56/56/56 53/53/53
f 59/59/59 58/58/58 57/57/57
f 58/58/58 60/60/60 57/57/57
f 63/63/63 62/62/62 61/61/61
f 62/62/62 64/64/64 61/61/61
f 67/67/67 66/66/66 65/65/65
f 66/66/66 68/68/68 65/65/65
f 71/71/71 70/70/70 69/69/69
f 70/70/70 72/72/72 69/69/69
f 75/75/75 74/74/74 73/73/73
f 74/74/74 76/76/76 73/73/73
f 79/79/79 78/78/78 77/77/77
f 78/78/78 80/80/80 77/77/77
f 83/83/83 82/82/82 81/81/81
f 84/84/84 81/81/81 82/82/82
f 87/87/87 86/86/86 85/85/85
f 88/88/88 85/85/85 86/86/86
f 91/91/91 90/90/90 89/89/89
f 92/92/92 89/89/89 90/90/90
f 95/95/95 94/94/94 93/93/93
f 96/96/96 93/93/93 94/94/94
f 99/99/99 98/98/98 97/97/97
f 100/100/100 97/97/97 98/98/98
f 97/97/97 100/100/100 101/101/101
f 102/102/102 101/101/101 100/100/100
f 101/101/101 102/102/102 103/103/103
f 99/99/99 103/103/103 98/98/98
f 104/104/104 103/103/103 102/102/102
f 104/104/104 98/98/98 103/103/103
f 107/107/107 106/106/106 105/105/105
f 108/108/108 105/105/105 106/106/106
f 111/111/111 110/110/110 109/109/109
f 112/112/112 109/109/109 110/110/110
f 115/115/115 114/114/114 113/113/113
f 116/116/116 113/113/113 114/114/114
f 119/119/119 118/118/118 117/117/117
f 120/120/120 117/117/117 118/118/118
f 123/123/123 122/122/122 121/121/121
f 124/124/124 121/121/121 122/122/122
f 127/127/127 126/126/126 125/125/125
f 128/128/128 125/125/125 126/126/126
f 131/131/131 130/130/130 129/129/129
f 132/132/132 129/129/129 130/130/130
f 135/135/135 134/134/134 133/133/133
f 136/136/136 133/133/133 134/134/134
f 139/139/139 138/138/138 137/137/137
f 140/140/140 137/137/137 138/138/138
f 143/143/143 142/142/142 141/141/141
f 144/144/144 141/141/141 142/142/142
f 147/147/147 146/146/146 145/145/145
f 148/148/148 145/145/145 146/146/146
f 151/151/151 150/150/150 149/149/149
f 152/152/152 149/149/149 150/150/150
f 155/155/155 154/154/154 153/153/153
f 156/156/156 153/153/153 154/154/154
f 159/159/159 158/158/158 157/157/157
f 160/160/160 157/157/157 158/158/158
f 163/163/163 162/162/162 161/161/161
f 164/164/164 161/161/161 162/162/162
f 167/167/167 166/166/166 165/165/165
f 168/168/168 165/165/165 166/166/166
f 171/171/171 170/170/170 169/169/169
f 172/172/172 169/169/169 170/170/170
f 175/175/175 174/174/174 173/173/173
f 176/176/176 173/173/173 174/174/174
f 179/179/179 178/178/178 177/177/177
f 180/180/180 177/177/177 178/178/178
f 183/183/183 182/182/182 181/181/181
f 184/184/184 181/181/181 182/182/182
f 187/187/187 186/186/186 185/185/185
f 188/188/188 185/185/185 186/186/186
f 191/191/191 190/190/190 189/189/189
f 192/192/192 189/189/189 190/190/190
f 195/195/195 194/194/194 193/193/193
f 196/196/196 193/193/193 194/194/194
f 199/199/199 198/198/198 197/197/197
f 200/200/200 197/197/197 198/198/198
f 203/203/203 202/202/202 201/201/201
f 204/204/204 201/201/201 202/202/202
f 207/207/207 206/206/206 205/205/205
f 208/208/208 205/205/205 206/206/206
f 211/211/211 210/210/210 209/209/209
f 212/212/212 209/209/209 210/210/210
f 215/215/215 214/214/214 213/213/213
f 216/216/216 213/213/213 214/214/214
f 219/219/219 218/218/218 217/217/217
f 220/220/220 217/217/217 218/218/218
f 223/223/223 222/222/222 221/221/221
f 224/224/224 221/221/221 222/222/222
f 227/227/227 226/226/226 225/225/225
f 228/228/228 225/225/225 226/226/226
f 231/231/231 230/230/230 229/229/229
f 232/232/232 229/229/229 230/230/230
f 235/235/235 234/234/234 233/233/233
f 236/236/236 233/233/233 234/234/234
f 239/239/239 238/238/238 237/237/237
f 240/240/240 237/237/237 238/238/238
f 243/243/243 242/242/242 241/241/241
f 244/244/244 241/241/241 242/242/242
f 247/247/247 246/246/246 245/245/245
f 248/248/248 245/245/245 246/246/246
f 251/251/251 250/250/250 249/249/249
f 252/252/252 249/249/249 250/250/250
f 255/255/255 254/254/254 253/253/253
f 256/256/256 253/253/253 254/254/254
f 259/259/259 258/258/258 257/257/257
f 260/260/260 257/257/257 258/258/258
f 263/263/263 262/262/262 261/261/261
f 264/264/264 261/261/261 262/262/262
f 267/267/267 266/266/266 265/265/265
f 268/268/268 265/265/265 266/266/266
f 271/271/271 270/270/270 269/269/269
f 272/272/272 269/269/269 270/270/270
f 275/275/275 274/274/274 273/273/273
f 276/276/276 273/273/273 274/274/274
f 279/279/279 278/278/278 277/277/277
f 280/280/280 277/277/277 278/278/278
f 283/283/283 282/282/282 281/281/281
f 284/284/284 281/281/281 282/282/282
f 287/287/287 286/286/286 285/285/285
f 288/288/288 285/285/285 286/286/286
f 291/291/291 290/290/290 289/289/289
f 292/292/292 289/289/289 290/290/290
f 295/295/295 294/294/294 293/293/293
f 296/296/296 293/293/293 294/294/294
f 299/299/299 298/298/298 297/297/297
f 300/300/300 297/297/297 298/298/298
f 303/303/303 302/302/302 301/301/301
f 304/304/304 301/301/301 302/302/302
f 307/307/307 306/306/306 305/305/305
f 308/308/308 305/305/305 306/306/306
f 311/311/311 310/310/310 309/309/309
f 312/312/312 309/309/309 310/310/310
f 315/315/315 314/314/314 313/313/313
f 316/316/316 313/313/313 314/314/314
f 319/319/319 318/318/318 317/317/317
f 320/320/320 317/317/317 318/318/318
f 323/323/323 322/322/322 321/321/321
f 324/324/324 321/321/321 322/322/322
