g DSJ_GTA_daoJu_gongYe_05
v 1.625843 0.8253317 -3.400587
v -0.05124903 3.55127 -3.400595
v -0.05124903 0.8253317 -3.400595
v 1.625843 3.55127 -3.400587
v -0.05124903 4.336511 -3.400595
v 1.625843 4.336511 -3.400587
v 1.625835 4.336511 0.05290079
v -0.05125713 4.336511 -1.174862
v 1.625835 4.336511 -1.174862
v -0.05125713 4.336511 0.05290079
v 1.625835 3.55127 0.05290079
v 1.625835 0.8253317 -1.174862
v 1.625835 0.8253317 0.05290079
v 1.625835 3.55127 -1.174862
v 1.625835 4.336511 -1.174862
v 1.625835 4.336511 0.05290079
v 1.625843 4.336511 -1.673851
v -0.05124903 4.336511 -3.400595
v 1.625843 4.336511 -3.400587
v -0.05125713 4.336511 -1.673843
v 1.625843 3.55127 -1.673851
v 1.625843 0.8253317 -3.400587
v 1.625843 0.8253317 -1.673851
v 1.625843 3.55127 -3.400587
v 1.625843 4.336511 -3.400587
v 1.625843 4.336511 -1.673851
v 1.625835 3.55127 -1.174862
v -0.05125713 3.55127 -1.673843
v 1.625843 3.55127 -1.673851
v -0.05125713 3.55127 -1.174862
v 1.625835 3.55127 -1.174862
v 1.625843 0.8253317 -1.673851
v 1.625835 0.8253317 -1.174862
v 1.625843 3.55127 -1.673851
v 1.625835 3.55127 -1.174862
v -0.05125713 4.336511 -1.174862
v -0.05125713 3.55127 -1.174862
v 1.625835 4.336511 -1.174862
v -0.05125713 3.55127 -1.673843
v 1.625843 4.336511 -1.673851
v 1.625843 3.55127 -1.673851
v -0.05125713 4.336511 -1.673843
v 1.625843 0.8253317 3.506388
v -0.05125713 3.55127 3.506396
v 1.625843 3.55127 3.506388
v -0.05125713 0.8253317 3.506396
v -0.05125713 4.336511 3.506396
v 1.625843 4.336511 3.506388
v 1.625835 4.336511 0.05290079
v -0.05125713 4.336511 1.280647
v -0.05125713 4.336511 0.05290079
v 1.625843 4.336511 1.280647
v 1.625835 3.55127 0.05290079
v 1.625843 0.8253317 1.280647
v 1.625843 3.55127 1.280647
v 1.625835 0.8253317 0.05290079
v 1.625843 4.336511 1.280647
v 1.625835 4.336511 0.05290079
v 1.625843 4.336511 1.779644
v -0.05125713 4.336511 3.506396
v -0.05124903 4.336511 1.779628
v 1.625843 4.336511 3.506388
v 1.625843 3.55127 1.779644
v 1.625843 0.8253317 3.506388
v 1.625843 3.55127 3.506388
v 1.625843 0.8253317 1.779644
v 1.625843 4.336511 3.506388
v 1.625843 4.336511 1.779644
v 1.625843 3.55127 1.280647
v -0.05124903 3.55127 1.779628
v -0.05125713 3.55127 1.280647
v 1.625843 3.55127 1.779644
v 1.625843 3.55127 1.280647
v 1.625843 0.8253317 1.779644
v 1.625843 3.55127 1.779644
v 1.625843 0.8253317 1.280647
v 1.625843 3.55127 1.280647
v -0.05125713 4.336511 1.280647
v 1.625843 4.336511 1.280647
v -0.05125713 3.55127 1.280647
v -0.05124903 3.55127 1.779628
v 1.625843 4.336511 1.779644
v -0.05124903 4.336511 1.779628
v 1.625843 3.55127 1.779644
v -1.728333 0.8253317 -3.400587
v -0.05124903 3.55127 -3.400595
v -1.728333 3.55127 -3.400587
v -0.05124903 0.8253317 -3.400595
v -0.05124903 4.336511 -3.400595
v -1.728333 4.336511 -3.400587
v -1.728333 4.336511 0.05290079
v -0.05125713 4.336511 -1.174862
v -0.05125713 4.336511 0.05290079
v -1.728333 4.336511 -1.174862
v -1.728333 3.55127 0.05290079
v -1.728333 0.8253317 -1.174862
v -1.728333 3.55127 -1.174862
v -1.728333 0.8253317 0.05290079
v -1.728333 4.336511 -1.174862
v -1.728333 4.336511 0.05290079
v -1.728325 4.336511 -1.673851
v -0.05124903 4.336511 -3.400595
v -0.05125713 4.336511 -1.673843
v -1.728333 4.336511 -3.400587
v -1.728325 3.55127 -1.673851
v -1.728333 0.8253317 -3.400587
v -1.728333 3.55127 -3.400587
v -1.728325 0.8253317 -1.673851
v -1.728333 4.336511 -3.400587
v -1.728325 4.336511 -1.673851
v -1.728333 3.55127 -1.174862
v -0.05125713 3.55127 -1.673843
v -0.05125713 3.55127 -1.174862
v -1.728325 3.55127 -1.673851
v -1.728333 3.55127 -1.174862
v -1.728325 0.8253317 -1.673851
v -1.728325 3.55127 -1.673851
v -1.728333 0.8253317 -1.174862
v -1.728333 3.55127 -1.174862
v -0.05125713 4.336511 -1.174862
v -1.728333 4.336511 -1.174862
v -0.05125713 3.55127 -1.174862
v -0.05125713 3.55127 -1.673843
v -1.728325 4.336511 -1.673851
v -0.05125713 4.336511 -1.673843
v -1.728325 3.55127 -1.673851
v -1.728325 0.8253317 3.506388
v -0.05125713 3.55127 3.506396
v -0.05125713 0.8253317 3.506396
v -1.728325 3.55127 3.506388
v -0.05125713 4.336511 3.506396
v -1.728325 4.336511 3.506388
v -1.728333 4.336511 0.05290079
v -0.05125713 4.336511 1.280647
v -1.728325 4.336511 1.280647
v -0.05125713 4.336511 0.05290079
v -1.728333 3.55127 0.05290079
v -1.728325 0.8253317 1.280647
v -1.728333 0.8253317 0.05290079
v -1.728325 3.55127 1.280647
v -1.728325 4.336511 1.280647
v -1.728333 4.336511 0.05290079
v -1.728333 4.336511 1.779644
v -0.05125713 4.336511 3.506396
v -1.728325 4.336511 3.506388
v -0.05124903 4.336511 1.779628
v -1.728333 3.55127 1.779644
v -1.728325 0.8253317 3.506388
v -1.728333 0.8253317 1.779644
v -1.728325 3.55127 3.506388
v -1.728325 4.336511 3.506388
v -1.728333 4.336511 1.779644
v -1.728325 3.55127 1.280647
v -0.05124903 3.55127 1.779628
v -1.728333 3.55127 1.779644
v -0.05125713 3.55127 1.280647
v -1.728325 3.55127 1.280647
v -1.728333 0.8253317 1.779644
v -1.728325 0.8253317 1.280647
v -1.728333 3.55127 1.779644
v -1.728325 3.55127 1.280647
v -0.05125713 4.336511 1.280647
v -0.05125713 3.55127 1.280647
v -1.728325 4.336511 1.280647
v -0.05124903 3.55127 1.779628
v -1.728333 4.336511 1.779644
v -1.728333 3.55127 1.779644
v -0.05124903 4.336511 1.779628
v 1.922721 0.06730556 -3.706657
v -0.05128145 0.8644295 -3.706657
v -0.05128145 0.06730556 -3.706657
v 1.922721 0.8644295 -3.706657
v 1.922721 0.8644295 -3.706657
v 1.922721 0.06730556 -1.826883
v 1.922721 0.8644295 -1.826883
v 1.922721 0.06730556 -3.706657
v -0.05128145 0.8644295 -3.706657
v 1.922721 0.8644295 -1.826883
v -0.05128145 0.8644295 -1.826883
v 1.922721 0.8644295 -3.706657
v -0.05128145 0.8644295 -1.826883
v 1.922721 0.8644295 0.05290079
v -0.05128145 0.8644295 0.05290079
v 1.922721 0.8644295 -1.826883
v 1.922721 0.06730556 -1.826883
v 1.922721 0.8644295 0.05290079
v 1.922721 0.8644295 -1.826883
v 1.922721 0.06730556 0.05290079
v 1.922721 0.06730556 3.812467
v -0.05128145 0.8644295 3.812467
v 1.922721 0.8644295 3.812467
v -0.05128145 0.06730556 3.812467
v 1.922721 0.8644295 3.812467
v 1.922721 0.06730556 1.932675
v 1.922721 0.06730556 3.812467
v 1.922721 0.8644295 1.932675
v -0.05128145 0.8644295 3.812467
v 1.922721 0.8644295 1.932675
v 1.922721 0.8644295 3.812467
v -0.05128145 0.8644295 1.932675
v -0.05128145 0.8644295 1.932675
v 1.922721 0.8644295 0.05290079
v 1.922721 0.8644295 1.932675
v -0.05128145 0.8644295 0.05290079
v 1.922721 0.06730556 1.932675
v 1.922721 0.8644295 0.05290079
v 1.922721 0.06730556 0.05290079
v 1.922721 0.8644295 1.932675
v -2.025276 0.06730556 -3.706657
v -0.05128145 0.8644295 -3.706657
v -2.025276 0.8644295 -3.706657
v -0.05128145 0.06730556 -3.706657
v -2.025276 0.8644295 -3.706657
v -2.025276 0.06730556 -1.826883
v -2.025276 0.06730556 -3.706657
v -2.025276 0.8644295 -1.826883
v -0.05128145 0.8644295 -3.706657
v -2.025276 0.8644295 -1.826883
v -2.025276 0.8644295 -3.706657
v -0.05128145 0.8644295 -1.826883
v -0.05128145 0.8644295 -1.826883
v -2.025276 0.8644295 0.05290079
v -2.025276 0.8644295 -1.826883
v -0.05128145 0.8644295 0.05290079
v -2.025276 0.06730556 -1.826883
v -2.025276 0.8644295 0.05290079
v -2.025276 0.06730556 0.05290079
v -2.025276 0.8644295 -1.826883
v -2.025276 0.06730556 3.812467
v -0.05128145 0.8644295 3.812467
v -0.05128145 0.06730556 3.812467
v -2.025276 0.8644295 3.812467
v -2.025276 0.8644295 3.812467
v -2.025276 0.06730556 1.932675
v -2.025276 0.8644295 1.932675
v -2.025276 0.06730556 3.812467
v -0.05128145 0.8644295 3.812467
v -2.025276 0.8644295 1.932675
v -0.05128145 0.8644295 1.932675
v -2.025276 0.8644295 3.812467
v -0.05128145 0.8644295 1.932675
v -2.025276 0.8644295 0.05290079
v -0.05128145 0.8644295 0.05290079
v -2.025276 0.8644295 1.932675
v -2.025276 0.06730556 1.932675
v -2.025276 0.8644295 0.05290079
v -2.025276 0.8644295 1.932675
v -2.025276 0.06730556 0.05290079
v 2.94909 0.01247358 -5.722046E-06
v 2.94909 0.2000909 -4.111226
v 2.94909 0.01247358 -4.111226
v 2.94909 0.2000909 -5.722046E-06
v -2.384186E-06 0.2000909 -4.111226
v 2.94909 0.2000909 -5.722046E-06
v -2.384186E-06 0.2000909 -5.722046E-06
v 2.94909 0.2000909 -4.111226
v 2.94909 0.01247358 -4.111226
v -2.384186E-06 0.2000909 -4.111226
v -2.384186E-06 0.01247358 -4.111226
v 2.94909 0.2000909 -4.111226
v -2.949079 0.01247358 -5.722046E-06
v -2.949079 0.2000909 -4.111226
v -2.949079 0.2000909 -5.722046E-06
v -2.949079 0.01247358 -4.111226
v -2.384186E-06 0.2000909 -4.111226
v -2.949079 0.2000909 -5.722046E-06
v -2.949079 0.2000909 -4.111226
v -2.384186E-06 0.2000909 -5.722046E-06
v -2.949079 0.01247358 -4.111226
v -2.384186E-06 0.2000909 -4.111226
v -2.949079 0.2000909 -4.111226
v -2.384186E-06 0.01247358 -4.111226
v 2.94909 0.01247358 -5.722046E-06
v 2.94909 0.2000909 4.111222
v 2.94909 0.2000909 -5.722046E-06
v 2.94909 0.01247358 4.111222
v -2.384186E-06 0.2000909 4.111222
v 2.94909 0.2000909 -5.722046E-06
v 2.94909 0.2000909 4.111222
v -2.384186E-06 0.2000909 -5.722046E-06
v 2.94909 0.01247358 4.111222
v -2.384186E-06 0.2000909 4.111222
v 2.94909 0.2000909 4.111222
v -2.384186E-06 0.01247358 4.111222
v -2.949079 0.01247358 -5.722046E-06
v -2.94907 0.2000909 4.111222
v -2.94907 0.01247358 4.111222
v -2.949079 0.2000909 -5.722046E-06
v -2.384186E-06 0.2000909 4.111222
v -2.949079 0.2000909 -5.722046E-06
v -2.384186E-06 0.2000909 -5.722046E-06
v -2.94907 0.2000909 4.111222
v -2.94907 0.01247358 4.111222
v -2.384186E-06 0.2000909 4.111222
v -2.384186E-06 0.01247358 4.111222
v -2.94907 0.2000909 4.111222
vt 0.9913193 0.4723588
vt 0.8001981 0.5899504
vt 0.9913193 0.5899504
vt 0.8001981 0.4723588
vt 0.7451621 0.5899504
vt 0.7451621 0.4723588
vt 0.7269685 0.6991228
vt 0.5713792 0.5852188
vt 0.7269685 0.5852188
vt 0.5713792 0.6991228
vt 0.8674631 0.9365832
vt 0.9535881 0.7453731
vt 0.8674631 0.7453731
vt 0.9535881 0.9365832
vt 0.9535881 0.9916857
vt 0.8674631 0.9916857
vt 0.5713792 0.5666143
vt 0.7269685 0.7177274
vt 0.7269685 0.5666143
vt 0.5713792 0.7177274
vt 0.7546143 0.9371607
vt 0.9931076 0.7459618
vt 0.7546143 0.7459618
vt 0.9931076 0.9371607
vt 0.9931076 0.9922411
vt 0.7546143 0.9922411
vt 0.7251136 0.6775416
vt 0.5720235 0.6320133
vt 0.7251136 0.6320133
vt 0.5720235 0.6775416
vt 0.9501338 0.9627293
vt 0.9842218 0.7765287
vt 0.9501338 0.7765287
vt 0.9842218 0.9627293
vt 0.7281126 0.6727544
vt 0.5718569 0.5996026
vt 0.5718569 0.6727544
vt 0.7281126 0.5996026
vt 0.5718569 0.5996026
vt 0.7281126 0.6727544
vt 0.7281126 0.5996026
vt 0.5718569 0.6727544
vt 0.9913193 0.4723588
vt 0.8001981 0.5899504
vt 0.8001981 0.4723588
vt 0.9913193 0.5899504
vt 0.7451621 0.5899504
vt 0.7451621 0.4723588
vt 0.7269685 0.6991228
vt 0.5713792 0.5852188
vt 0.5713792 0.6991228
vt 0.7269685 0.5852188
vt 0.8674631 0.9365832
vt 0.9535881 0.7453731
vt 0.9535881 0.9365832
vt 0.8674631 0.7453731
vt 0.9535881 0.9916857
vt 0.8674631 0.9916857
vt 0.5713792 0.5666143
vt 0.7269685 0.7177274
vt 0.5713792 0.7177274
vt 0.7269685 0.5666143
vt 0.7546143 0.9371607
vt 0.9931076 0.7459618
vt 0.9931076 0.9371607
vt 0.7546143 0.7459618
vt 0.9931076 0.9922411
vt 0.7546143 0.9922411
vt 0.7251136 0.6775416
vt 0.5720235 0.6320133
vt 0.5720235 0.6775416
vt 0.7251136 0.6320133
vt 0.9501338 0.9627293
vt 0.9842218 0.7765287
vt 0.9842218 0.9627293
vt 0.9501338 0.7765287
vt 0.7281126 0.6727544
vt 0.5718569 0.5996026
vt 0.7281126 0.5996026
vt 0.5718569 0.6727544
vt 0.5718569 0.5996026
vt 0.7281126 0.6727544
vt 0.5718569 0.6727544
vt 0.7281126 0.5996026
vt 0.9913193 0.4723588
vt 0.8001981 0.5899504
vt 0.8001981 0.4723588
vt 0.9913193 0.5899504
vt 0.7451621 0.5899504
vt 0.7451621 0.4723588
vt 0.7269685 0.6991228
vt 0.5713792 0.5852188
vt 0.5713792 0.6991228
vt 0.7269685 0.5852188
vt 0.8674631 0.9365832
vt 0.9535881 0.7453731
vt 0.9535881 0.9365832
vt 0.8674631 0.7453731
vt 0.9535881 0.9916857
vt 0.8674631 0.9916857
vt 0.5713792 0.5666143
vt 0.7269685 0.7177274
vt 0.5713792 0.7177274
vt 0.7269685 0.5666143
vt 0.7546143 0.9371607
vt 0.9931076 0.7459618
vt 0.9931076 0.9371607
vt 0.7546143 0.7459618
vt 0.9931076 0.9922411
vt 0.7546143 0.9922411
vt 0.7251136 0.6775416
vt 0.5720235 0.6320133
vt 0.5720235 0.6775416
vt 0.7251136 0.6320133
vt 0.9501338 0.9627293
vt 0.9842218 0.7765287
vt 0.9842218 0.9627293
vt 0.9501338 0.7765287
vt 0.7281126 0.6727544
vt 0.5718569 0.5996026
vt 0.7281126 0.5996026
vt 0.5718569 0.6727544
vt 0.5718569 0.5996026
vt 0.7281126 0.6727544
vt 0.5718569 0.6727544
vt 0.7281126 0.5996026
vt 0.9913193 0.4723588
vt 0.8001981 0.5899504
vt 0.9913193 0.5899504
vt 0.8001981 0.4723588
vt 0.7451621 0.5899504
vt 0.7451621 0.4723588
vt 0.7269685 0.6991228
vt 0.5713792 0.5852188
vt 0.7269685 0.5852188
vt 0.5713792 0.6991228
vt 0.8674631 0.9365832
vt 0.9535881 0.7453731
vt 0.8674631 0.7453731
vt 0.9535881 0.9365832
vt 0.9535881 0.9916857
vt 0.8674631 0.9916857
vt 0.5713792 0.5666143
vt 0.7269685 0.7177274
vt 0.7269685 0.5666143
vt 0.5713792 0.7177274
vt 0.7546143 0.9371607
vt 0.9931076 0.7459618
vt 0.7546143 0.7459618
vt 0.9931076 0.9371607
vt 0.9931076 0.9922411
vt 0.7546143 0.9922411
vt 0.7251136 0.6775416
vt 0.5720235 0.6320133
vt 0.7251136 0.6320133
vt 0.5720235 0.6775416
vt 0.9501338 0.9627293
vt 0.9842218 0.7765287
vt 0.9501338 0.7765287
vt 0.9842218 0.9627293
vt 0.7281126 0.6727544
vt 0.5718569 0.5996026
vt 0.5718569 0.6727544
vt 0.7281126 0.5996026
vt 0.5718569 0.5996026
vt 0.7281126 0.6727544
vt 0.7281126 0.5996026
vt 0.5718569 0.6727544
vt 0.7825933 0.6605476
vt 0.961552 0.732822
vt 0.961552 0.6605476
vt 0.7825933 0.732822
vt 0.7864363 0.7330108
vt 0.9576868 0.660381
vt 0.9576868 0.7330108
vt 0.7864363 0.660381
vt 0.9067603 0.660692
vt 0.8377292 0.7331997
vt 0.8377292 0.660692
vt 0.9067603 0.7331997
vt 0.9067603 0.660692
vt 0.8377292 0.7331997
vt 0.8377292 0.660692
vt 0.9067603 0.7331997
vt 0.9576868 0.660381
vt 0.7864363 0.7330108
vt 0.9576868 0.7330108
vt 0.7864363 0.660381
vt 0.7825933 0.6605476
vt 0.961552 0.732822
vt 0.7825933 0.732822
vt 0.961552 0.6605476
vt 0.7864363 0.7330108
vt 0.9576868 0.660381
vt 0.7864363 0.660381
vt 0.9576868 0.7330108
vt 0.9067603 0.660692
vt 0.8377292 0.7331997
vt 0.9067603 0.7331997
vt 0.8377292 0.660692
vt 0.9067603 0.660692
vt 0.8377292 0.7331997
vt 0.9067603 0.7331997
vt 0.8377292 0.660692
vt 0.9576868 0.660381
vt 0.7864363 0.7330108
vt 0.7864363 0.660381
vt 0.9576868 0.7330108
vt 0.7825933 0.6605476
vt 0.961552 0.732822
vt 0.7825933 0.732822
vt 0.961552 0.6605476
vt 0.7864363 0.7330108
vt 0.9576868 0.660381
vt 0.7864363 0.660381
vt 0.9576868 0.7330108
vt 0.9067603 0.660692
vt 0.8377292 0.7331997
vt 0.9067603 0.7331997
vt 0.8377292 0.660692
vt 0.9067603 0.660692
vt 0.8377292 0.7331997
vt 0.9067603 0.7331997
vt 0.8377292 0.660692
vt 0.9576868 0.660381
vt 0.7864363 0.7330108
vt 0.7864363 0.660381
vt 0.9576868 0.7330108
vt 0.7825933 0.6605476
vt 0.961552 0.732822
vt 0.961552 0.6605476
vt 0.7825933 0.732822
vt 0.7864363 0.7330108
vt 0.9576868 0.660381
vt 0.9576868 0.7330108
vt 0.7864363 0.660381
vt 0.9067603 0.660692
vt 0.8377292 0.7331997
vt 0.8377292 0.660692
vt 0.9067603 0.7331997
vt 0.9067603 0.660692
vt 0.8377292 0.7331997
vt 0.8377292 0.660692
vt 0.9067603 0.7331997
vt 0.9576868 0.660381
vt 0.7864363 0.7330108
vt 0.9576868 0.7330108
vt 0.7864363 0.660381
vt 0.7431628 0.2674314
vt 0.9907305 0.2787274
vt 0.9907305 0.2674314
vt 0.7431628 0.2787274
vt 0.9907305 0.4653168
vt 0.7431628 0.2877243
vt 0.7431628 0.4653168
vt 0.9907305 0.2877243
vt 0.743807 0.26521
vt 0.9913526 0.2809489
vt 0.9913526 0.26521
vt 0.743807 0.2809489
vt 0.7431628 0.2674314
vt 0.9907305 0.2787274
vt 0.7431628 0.2787274
vt 0.9907305 0.2674314
vt 0.9907305 0.4653168
vt 0.7431628 0.2877243
vt 0.9907305 0.2877243
vt 0.7431628 0.4653168
vt 0.743807 0.26521
vt 0.9913526 0.2809489
vt 0.743807 0.2809489
vt 0.9913526 0.26521
vt 0.7431628 0.2674314
vt 0.9907305 0.2787274
vt 0.7431628 0.2787274
vt 0.9907305 0.2674314
vt 0.9907305 0.4653168
vt 0.7431628 0.2877243
vt 0.9907305 0.2877243
vt 0.7431628 0.4653168
vt 0.743807 0.26521
vt 0.9913526 0.2809489
vt 0.743807 0.2809489
vt 0.9913526 0.26521
vt 0.7431628 0.2674314
vt 0.9907305 0.2787274
vt 0.9907305 0.2674314
vt 0.7431628 0.2787274
vt 0.9907305 0.4653168
vt 0.7431628 0.2877243
vt 0.7431628 0.4653168
vt 0.9907305 0.2877243
vt 0.743807 0.26521
vt 0.9913526 0.2809489
vt 0.9913526 0.26521
vt 0.743807 0.2809489
vn 0.01176465 -0.01176465 -0.9998616
vn 0.01176465 -0.01176465 -0.9998616
vn 0.01176465 -0.01176465 -0.9998616
vn 0.01176465 -0.01176465 -0.9998616
vn 0.01176465 -0.01176465 -0.9998616
vn 0.01176465 -0.01176465 -0.9998616
vn 0.003921568 0.9999923 -0.000345267
vn 0.003921568 0.9999923 -0.000345267
vn 0.003921568 0.9999923 -0.000345267
vn 0.003921568 0.9999923 -0.000345267
vn 0.9999924 -0.003921568 0
vn 0.9999924 -0.003921568 0
vn 0.9999924 -0.003921568 0
vn 0.9999924 -0.003921568 0
vn 0.9999924 -0.003921568 0
vn 0.9999924 -0.003921568 0
vn 0.003921568 0.9999923 -0.000345267
vn 0.003921568 0.9999923 -0.000345267
vn 0.003921568 0.9999923 -0.000345267
vn 0.003921568 0.9999923 -0.000345267
vn 0.9999924 -0.003921568 0
vn 0.9999924 -0.003921568 0
vn 0.9999924 -0.003921568 0
vn 0.9999924 -0.003921568 0
vn 0.9999924 -0.003921568 0
vn 0.9999924 -0.003921568 0
vn 0.003921568 0.9999923 -0.000345267
vn 0.003921568 0.9999923 -0.000345267
vn 0.003921568 0.9999923 -0.000345267
vn 0.003921568 0.9999923 -0.000345267
vn 0.9999924 -0.003921568 0
vn 0.9999924 -0.003921568 0
vn 0.9999924 -0.003921568 0
vn 0.9999924 -0.003921568 0
vn 0.01176465 -0.01176465 -0.9998616
vn 0.01176465 -0.01176465 -0.9998616
vn 0.01176465 -0.01176465 -0.9998616
vn 0.01176465 -0.01176465 -0.9998616
vn 0.01176465 -0.01176465 0.9998616
vn 0.01176465 -0.01176465 0.9998616
vn 0.01176465 -0.01176465 0.9998616
vn 0.01176465 -0.01176465 0.9998616
vn 0.01176465 -0.01176465 0.9998616
vn 0.01176465 -0.01176465 0.9998616
vn 0.01176465 -0.01176465 0.9998616
vn 0.01176465 -0.01176465 0.9998616
vn 0.01176465 -0.01176465 0.9998616
vn 0.01176465 -0.01176465 0.9998616
vn 0.003921568 0.9999923 -0.000345267
vn 0.003921568 0.9999923 -0.000345267
vn 0.003921568 0.9999923 -0.000345267
vn 0.003921568 0.9999923 -0.000345267
vn 0.9999924 -0.003921568 0
vn 0.9999924 -0.003921568 0
vn 0.9999924 -0.003921568 0
vn 0.9999924 -0.003921568 0
vn 0.9999924 -0.003921568 0
vn 0.9999924 -0.003921568 0
vn 0.003921568 0.9999923 -0.000345267
vn 0.003921568 0.9999923 -0.000345267
vn 0.003921568 0.9999923 -0.000345267
vn 0.003921568 0.9999923 -0.000345267
vn 0.9999924 -0.003921568 0
vn 0.9999924 -0.003921568 0
vn 0.9999924 -0.003921568 0
vn 0.9999924 -0.003921568 0
vn 0.9999924 -0.003921568 0
vn 0.9999924 -0.003921568 0
vn 0.003921568 0.9999923 -0.000345267
vn 0.003921568 0.9999923 -0.000345267
vn 0.003921568 0.9999923 -0.000345267
vn 0.003921568 0.9999923 -0.000345267
vn 0.9999924 -0.003921568 0
vn 0.9999924 -0.003921568 0
vn 0.9999924 -0.003921568 0
vn 0.9999924 -0.003921568 0
vn 0.01176465 -0.01176465 0.9998616
vn 0.01176465 -0.01176465 0.9998616
vn 0.01176465 -0.01176465 0.9998616
vn 0.01176465 -0.01176465 0.9998616
vn 0.01176465 -0.01176465 -0.9998616
vn 0.01176465 -0.01176465 -0.9998616
vn 0.01176465 -0.01176465 -0.9998616
vn 0.01176465 -0.01176465 -0.9998616
vn 0.01176465 -0.01176465 -0.9998616
vn 0.01176465 -0.01176465 -0.9998616
vn 0.01176465 -0.01176465 -0.9998616
vn 0.01176465 -0.01176465 -0.9998616
vn 0.01176465 -0.01176465 -0.9998616
vn 0.01176465 -0.01176465 -0.9998616
vn 0.003921568 0.9999923 -0.000345267
vn 0.003921568 0.9999923 -0.000345267
vn 0.003921568 0.9999923 -0.000345267
vn 0.003921568 0.9999923 -0.000345267
vn -0.9999923 -0.003921568 -0.0003442513
vn -0.9999923 -0.003921568 -0.0003442513
vn -0.9999923 -0.003921568 -0.0003442513
vn -0.9999923 -0.003921568 -0.0003442513
vn -0.9999923 -0.003921568 -0.0003442513
vn -0.9999923 -0.003921568 -0.0003442513
vn 0.003921568 0.9999923 -0.000345267
vn 0.003921568 0.9999923 -0.000345267
vn 0.003921568 0.9999923 -0.000345267
vn 0.003921568 0.9999923 -0.000345267
vn -0.9999923 -0.003921568 -0.0003442513
vn -0.9999923 -0.003921568 -0.0003442513
vn -0.9999923 -0.003921568 -0.0003442513
vn -0.9999923 -0.003921568 -0.0003442513
vn -0.9999923 -0.003921568 -0.0003442513
vn -0.9999923 -0.003921568 -0.0003442513
vn 0.003921568 0.9999923 -0.000345267
vn 0.003921568 0.9999923 -0.000345267
vn 0.003921568 0.9999923 -0.000345267
vn 0.003921568 0.9999923 -0.000345267
vn -0.9999923 -0.003921568 -0.0003442513
vn -0.9999923 -0.003921568 -0.0003442513
vn -0.9999923 -0.003921568 -0.0003442513
vn -0.9999923 -0.003921568 -0.0003442513
vn 0.01176465 -0.01176465 -0.9998616
vn 0.01176465 -0.01176465 -0.9998616
vn 0.01176465 -0.01176465 -0.9998616
vn 0.01176465 -0.01176465 -0.9998616
vn 0.01176465 -0.01176465 0.9998616
vn 0.01176465 -0.01176465 0.9998616
vn 0.01176465 -0.01176465 0.9998616
vn 0.01176465 -0.01176465 0.9998616
vn 0.01176465 -0.01176465 0.9998616
vn 0.01176465 -0.01176465 0.9998616
vn 0.01176465 -0.01176465 0.9998616
vn 0.01176465 -0.01176465 0.9998616
vn 0.01176465 -0.01176465 0.9998616
vn 0.01176465 -0.01176465 0.9998616
vn 0.003921568 0.9999923 -0.000345267
vn 0.003921568 0.9999923 -0.000345267
vn 0.003921568 0.9999923 -0.000345267
vn 0.003921568 0.9999923 -0.000345267
vn -0.9999923 -0.003921568 -0.0003442513
vn -0.9999923 -0.003921568 -0.0003442513
vn -0.9999923 -0.003921568 -0.0003442513
vn -0.9999923 -0.003921568 -0.0003442513
vn -0.9999923 -0.003921568 -0.0003442513
vn -0.9999923 -0.003921568 -0.0003442513
vn 0.003921568 0.9999923 -0.000345267
vn 0.003921568 0.9999923 -0.000345267
vn 0.003921568 0.9999923 -0.000345267
vn 0.003921568 0.9999923 -0.000345267
vn -0.9999923 -0.003921568 -0.0003442513
vn -0.9999923 -0.003921568 -0.0003442513
vn -0.9999923 -0.003921568 -0.0003442513
vn -0.9999923 -0.003921568 -0.0003442513
vn -0.9999923 -0.003921568 -0.0003442513
vn -0.9999923 -0.003921568 -0.0003442513
vn 0.003921568 0.9999923 -0.000345267
vn 0.003921568 0.9999923 -0.000345267
vn 0.003921568 0.9999923 -0.000345267
vn 0.003921568 0.9999923 -0.000345267
vn -0.9999923 -0.003921568 -0.0003442513
vn -0.9999923 -0.003921568 -0.0003442513
vn -0.9999923 -0.003921568 -0.0003442513
vn -0.9999923 -0.003921568 -0.0003442513
vn 0.01176465 -0.01176465 0.9998616
vn 0.01176465 -0.01176465 0.9998616
vn 0.01176465 -0.01176465 0.9998616
vn 0.01176465 -0.01176465 0.9998616
vn 0.01176465 -0.01176465 -0.9998616
vn 0.01176465 -0.01176465 -0.9998616
vn 0.01176465 -0.01176465 -0.9998616
vn 0.01176465 -0.01176465 -0.9998616
vn 0.01176465 -0.01176465 -0.9998616
vn 0.01176465 -0.01176465 -0.9998616
vn 0.01176465 -0.01176465 -0.9998616
vn 0.01176465 -0.01176465 -0.9998616
vn 0.9999924 -0.003921568 0
vn 0.9999924 -0.003921568 0
vn 0.9999924 -0.003921568 0
vn 0.9999924 -0.003921568 0
vn 0.003921568 0.9999923 -0.000345267
vn 0.003921568 0.9999923 -0.000345267
vn 0.003921568 0.9999923 -0.000345267
vn 0.003921568 0.9999923 -0.000345267
vn 0.003921568 0.9999923 -0.000345267
vn 0.003921568 0.9999923 -0.000345267
vn 0.003921568 0.9999923 -0.000345267
vn 0.003921568 0.9999923 -0.000345267
vn 0.9999924 -0.003921568 0
vn 0.9999924 -0.003921568 0
vn 0.9999924 -0.003921568 0
vn 0.9999924 -0.003921568 0
vn 0.01176465 -0.01176465 0.9998616
vn 0.01176465 -0.01176465 0.9998616
vn 0.01176465 -0.01176465 0.9998616
vn 0.01176465 -0.01176465 0.9998616
vn 0.9999924 -0.003921568 0
vn 0.9999924 -0.003921568 0
vn 0.9999924 -0.003921568 0
vn 0.9999924 -0.003921568 0
vn 0.003921568 0.9999923 -0.000345267
vn 0.003921568 0.9999923 -0.000345267
vn 0.003921568 0.9999923 -0.000345267
vn 0.003921568 0.9999923 -0.000345267
vn 0.003921568 0.9999923 -0.000345267
vn 0.003921568 0.9999923 -0.000345267
vn 0.003921568 0.9999923 -0.000345267
vn 0.003921568 0.9999923 -0.000345267
vn 0.9999924 -0.003921568 0
vn 0.9999924 -0.003921568 0
vn 0.9999924 -0.003921568 0
vn 0.9999924 -0.003921568 0
vn 0.01176465 -0.01176465 -0.9998616
vn 0.01176465 -0.01176465 -0.9998616
vn 0.01176465 -0.01176465 -0.9998616
vn 0.01176465 -0.01176465 -0.9998616
vn -0.9999923 -0.003921568 -0.0003442513
vn -0.9999923 -0.003921568 -0.0003442513
vn -0.9999923 -0.003921568 -0.0003442513
vn -0.9999923 -0.003921568 -0.0003442513
vn 0.003921568 0.9999923 -0.000345267
vn 0.003921568 0.9999923 -0.000345267
vn 0.003921568 0.9999923 -0.000345267
vn 0.003921568 0.9999923 -0.000345267
vn 0.003921568 0.9999923 -0.000345267
vn 0.003921568 0.9999923 -0.000345267
vn 0.003921568 0.9999923 -0.000345267
vn 0.003921568 0.9999923 -0.000345267
vn -0.9999923 -0.003921568 -0.0003442513
vn -0.9999923 -0.003921568 -0.0003442513
vn -0.9999923 -0.003921568 -0.0003442513
vn -0.9999923 -0.003921568 -0.0003442513
vn 0.01176465 -0.01176465 0.9998616
vn 0.01176465 -0.01176465 0.9998616
vn 0.01176465 -0.01176465 0.9998616
vn 0.01176465 -0.01176465 0.9998616
vn -0.9999923 -0.003921568 -0.0003442513
vn -0.9999923 -0.003921568 -0.0003442513
vn -0.9999923 -0.003921568 -0.0003442513
vn -0.9999923 -0.003921568 -0.0003442513
vn 0.003921568 0.9999923 -0.000345267
vn 0.003921568 0.9999923 -0.000345267
vn 0.003921568 0.9999923 -0.000345267
vn 0.003921568 0.9999923 -0.000345267
vn 0.003921568 0.9999923 -0.000345267
vn 0.003921568 0.9999923 -0.000345267
vn 0.003921568 0.9999923 -0.000345267
vn 0.003921568 0.9999923 -0.000345267
vn -0.9999923 -0.003921568 -0.0003442513
vn -0.9999923 -0.003921568 -0.0003442513
vn -0.9999923 -0.003921568 -0.0003442513
vn -0.9999923 -0.003921568 -0.0003442513
vn 0.9999924 -0.003921568 0
vn 0.9999924 -0.003921568 0
vn 0.9999924 -0.003921568 0
vn 0.9999924 -0.003921568 0
vn 0.003921568 0.9999923 -0.000345267
vn 0.003921568 0.9999923 -0.000345267
vn 0.003921568 0.9999923 -0.000345267
vn 0.003921568 0.9999923 -0.000345267
vn 0.01176465 -0.01176465 -0.9998616
vn 0.01176465 -0.01176465 -0.9998616
vn 0.01176465 -0.01176465 -0.9998616
vn 0.01176465 -0.01176465 -0.9998616
vn -0.9999923 -0.003921568 -0.0003442513
vn -0.9999923 -0.003921568 -0.0003442513
vn -0.9999923 -0.003921568 -0.0003442513
vn -0.9999923 -0.003921568 -0.0003442513
vn 0.003921568 0.9999923 -0.000345267
vn 0.003921568 0.9999923 -0.000345267
vn 0.003921568 0.9999923 -0.000345267
vn 0.003921568 0.9999923 -0.000345267
vn 0.01176465 -0.01176465 -0.9998616
vn 0.01176465 -0.01176465 -0.9998616
vn 0.01176465 -0.01176465 -0.9998616
vn 0.01176465 -0.01176465 -0.9998616
vn 0.9999924 -0.003921568 0
vn 0.9999924 -0.003921568 0
vn 0.9999924 -0.003921568 0
vn 0.9999924 -0.003921568 0
vn 0.003921568 0.9999923 -0.000345267
vn 0.003921568 0.9999923 -0.000345267
vn 0.003921568 0.9999923 -0.000345267
vn 0.003921568 0.9999923 -0.000345267
vn 0.01176465 -0.01176465 0.9998616
vn 0.01176465 -0.01176465 0.9998616
vn 0.01176465 -0.01176465 0.9998616
vn 0.01176465 -0.01176465 0.9998616
vn -0.9999923 -0.003921568 -0.0003442513
vn -0.9999923 -0.003921568 -0.0003442513
vn -0.9999923 -0.003921568 -0.0003442513
vn -0.9999923 -0.003921568 -0.0003442513
vn 0.003921568 0.9999923 -0.000345267
vn 0.003921568 0.9999923 -0.000345267
vn 0.003921568 0.9999923 -0.000345267
vn 0.003921568 0.9999923 -0.000345267
vn 0.01176465 -0.01176465 0.9998616
vn 0.01176465 -0.01176465 0.9998616
vn 0.01176465 -0.01176465 0.9998616
vn 0.01176465 -0.01176465 0.9998616
g DSJ_GTA_daoJu_gongYe_05_0
f 3/3/3 2/2/2 1/1/1
f 2/2/2 4/4/4 1/1/1
f 2/2/2 5/5/5 4/4/4
f 5/5/5 6/6/6 4/4/4
f 9/9/9 8/8/8 7/7/7
f 8/8/8 10/10/10 7/7/7
f 13/13/13 12/12/12 11/11/11
f 12/12/12 14/14/14 11/11/11
f 14/14/14 15/15/15 11/11/11
f 15/15/15 16/16/16 11/11/11
f 19/19/19 18/18/18 17/17/17
f 18/18/18 20/20/20 17/17/17
f 23/23/23 22/22/22 21/21/21
f 22/22/22 24/24/24 21/21/21
f 24/24/24 25/25/25 21/21/21
f 25/25/25 26/26/26 21/21/21
f 29/29/29 28/28/28 27/27/27
f 28/28/28 30/30/30 27/27/27
f 33/33/33 32/32/32 31/31/31
f 32/32/32 34/34/34 31/31/31
f 37/37/37 36/36/36 35/35/35
f 36/36/36 38/38/38 35/35/35
f 41/41/41 40/40/40 39/39/39
f 40/40/40 42/42/42 39/39/39
f 45/45/45 44/44/44 43/43/43
f 44/44/44 46/46/46 43/43/43
f 47/47/47 44/44/44 45/45/45
f 48/48/48 47/47/47 45/45/45
f 51/51/51 50/50/50 49/49/49
f 50/50/50 52/52/52 49/49/49
f 55/55/55 54/54/54 53/53/53
f 54/54/54 56/56/56 53/53/53
f 57/57/57 55/55/55 53/53/53
f 58/58/58 57/57/57 53/53/53
f 61/61/61 60/60/60 59/59/59
f 60/60/60 62/62/62 59/59/59
f 65/65/65 64/64/64 63/63/63
f 64/64/64 66/66/66 63/63/63
f 67/67/67 65/65/65 63/63/63
f 68/68/68 67/67/67 63/63/63
f 71/71/71 70/70/70 69/69/69
f 70/70/70 72/72/72 69/69/69
f 75/75/75 74/74/74 73/73/73
f 74/74/74 76/76/76 73/73/73
f 79/79/79 78/78/78 77/77/77
f 78/78/78 80/80/80 77/77/77
f 83/83/83 82/82/82 81/81/81
f 82/82/82 84/84/84 81/81/81
f 87/87/87 86/86/86 85/85/85
f 86/86/86 88/88/88 85/85/85
f 89/89/89 86/86/86 87/87/87
f 90/90/90 89/89/89 87/87/87
f 93/93/93 92/92/92 91/91/91
f 92/92/92 94/94/94 91/91/91
f 97/97/97 96/96/96 95/95/95
f 96/96/96 98/98/98 95/95/95
f 99/99/99 97/97/97 95/95/95
f 100/100/100 99/99/99 95/95/95
f 103/103/103 102/102/102 101/101/101
f 102/102/102 104/104/104 101/101/101
f 107/107/107 106/106/106 105/105/105
f 106/106/106 108/108/108 105/105/105
f 109/109/109 107/107/107 105/105/105
f 110/110/110 109/109/109 105/105/105
f 113/113/113 112/112/112 111/111/111
f 112/112/112 114/114/114 111/111/111
f 117/117/117 116/116/116 115/115/115
f 116/116/116 118/118/118 115/115/115
f 121/121/121 120/120/120 119/119/119
f 120/120/120 122/122/122 119/119/119
f 125/125/125 124/124/124 123/123/123
f 124/124/124 126/126/126 123/123/123
f 129/129/129 128/128/128 127/127/127
f 128/128/128 130/130/130 127/127/127
f 128/128/128 131/131/131 130/130/130
f 131/131/131 132/132/132 130/130/130
f 135/135/135 134/134/134 133/133/133
f 134/134/134 136/136/136 133/133/133
f 139/139/139 138/138/138 137/137/137
f 138/138/138 140/140/140 137/137/137
f 140/140/140 141/141/141 137/137/137
f 141/141/141 142/142/142 137/137/137
f 145/145/145 144/144/144 143/143/143
f 144/144/144 146/146/146 143/143/143
f 149/149/149 148/148/148 147/147/147
f 148/148/148 150/150/150 147/147/147
f 150/150/150 151/151/151 147/147/147
f 151/151/151 152/152/152 147/147/147
f 155/155/155 154/154/154 153/153/153
f 154/154/154 156/156/156 153/153/153
f 159/159/159 158/158/158 157/157/157
f 158/158/158 160/160/160 157/157/157
f 163/163/163 162/162/162 161/161/161
f 162/162/162 164/164/164 161/161/161
f 167/167/167 166/166/166 165/165/165
f 166/166/166 168/168/168 165/165/165
f 171/171/171 170/170/170 169/169/169
f 170/170/170 172/172/172 169/169/169
f 175/175/175 174/174/174 173/173/173
f 174/174/174 176/176/176 173/173/173
f 179/179/179 178/178/178 177/177/177
f 178/178/178 180/180/180 177/177/177
f 183/183/183 182/182/182 181/181/181
f 182/182/182 184/184/184 181/181/181
f 187/187/187 186/186/186 185/185/185
f 186/186/186 188/188/188 185/185/185
f 191/191/191 190/190/190 189/189/189
f 190/190/190 192/192/192 189/189/189
f 195/195/195 194/194/194 193/193/193
f 194/194/194 196/196/196 193/193/193
f 199/199/199 198/198/198 197/197/197
f 198/198/198 200/200/200 197/197/197
f 203/203/203 202/202/202 201/201/201
f 202/202/202 204/204/204 201/201/201
f 207/207/207 206/206/206 205/205/205
f 206/206/206 208/208/208 205/205/205
f 211/211/211 210/210/210 209/209/209
f 210/210/210 212/212/212 209/209/209
f 215/215/215 214/214/214 213/213/213
f 214/214/214 216/216/216 213/213/213
f 219/219/219 218/218/218 217/217/217
f 218/218/218 220/220/220 217/217/217
f 223/223/223 222/222/222 221/221/221
f 222/222/222 224/224/224 221/221/221
f 227/227/227 226/226/226 225/225/225
f 226/226/226 228/228/228 225/225/225
f 231/231/231 230/230/230 229/229/229
f 230/230/230 232/232/232 229/229/229
f 235/235/235 234/234/234 233/233/233
f 234/234/234 236/236/236 233/233/233
f 239/239/239 238/238/238 237/237/237
f 238/238/238 240/240/240 237/237/237
f 243/243/243 242/242/242 241/241/241
f 242/242/242 244/244/244 241/241/241
f 247/247/247 246/246/246 245/245/245
f 246/246/246 248/248/248 245/245/245
f 251/251/251 250/250/250 249/249/249
f 250/250/250 252/252/252 249/249/249
f 255/255/255 254/254/254 253/253/253
f 254/254/254 256/256/256 253/253/253
f 259/259/259 258/258/258 257/257/257
f 258/258/258 260/260/260 257/257/257
f 263/263/263 262/262/262 261/261/261
f 262/262/262 264/264/264 261/261/261
f 267/267/267 266/266/266 265/265/265
f 266/266/266 268/268/268 265/265/265
f 271/271/271 270/270/270 269/269/269
f 270/270/270 272/272/272 269/269/269
f 275/275/275 274/274/274 273/273/273
f 274/274/274 276/276/276 273/273/273
f 279/279/279 278/278/278 277/277/277
f 278/278/278 280/280/280 277/277/277
f 283/283/283 282/282/282 281/281/281
f 282/282/282 284/284/284 281/281/281
f 287/287/287 286/286/286 285/285/285
f 286/286/286 288/288/288 285/285/285
f 291/291/291 290/290/290 289/289/289
f 290/290/290 292/292/292 289/289/289
f 295/295/295 294/294/294 293/293/293
f 294/294/294 296/296/296 293/293/293
