g DSJ_GTA_diLou_maTou
v -3.893293 -1.382516 7.135056
v -8.024952 -1.700336 8.215643
v -8.024952 -1.382516 8.215643
v -3.893293 -1.700336 7.135056
v -0.810442 -1.382516 4.147549
v -0.810442 -1.700336 4.147549
v -12.15661 -1.700336 7.135056
v -4.433588 -1.446079 6.149815
v -8.024952 -1.446079 7.071491
v -1.827465 -1.446079 3.575474
v -12.15661 -1.382516 7.135056
v -8.024952 -1.382516 8.215643
v -11.55275 -1.446079 6.08625
v -7.961388 -1.509644 -0.01589012
v -0.4608402 -1.446079 2.908052
v 0.3019285 -1.382516 0.01589203
v 0.3019285 -1.509644 0.01589203
v -0.810442 -1.382516 4.147549
v -0.4608402 -1.700336 2.908052
v -0.810442 -1.700336 4.147549
v -0.7468777 -1.382516 -4.115766
v -0.4290581 -1.446079 -2.876268
v -0.4290581 -1.700336 -2.876268
v -0.7468777 -1.700336 -4.115766
v -3.766165 -1.382516 -7.166836
v -3.766165 -1.700336 -7.166836
v -0.810442 -1.446079 0.01589203
v -1.763901 -1.446079 -3.543691
v -1.827465 -1.446079 3.575474
v -4.338242 -1.446079 -6.149813
v -7.961388 -1.509644 -0.01589012
v -7.897823 -1.382516 -8.310987
v -3.766165 -1.700336 -7.166836
v -3.766165 -1.382516 -7.166836
v -7.897823 -1.382516 -8.310987
v -7.897823 -1.700336 -8.310987
v -12.06126 -1.382516 -7.198618
v -12.06126 -1.700336 -7.198618
v -15.11233 -1.382516 -4.211112
v -15.11233 -1.700336 -4.211112
v -4.338242 -1.446079 -6.149813
v -7.929605 -1.446079 -7.135055
v -11.48919 -1.446079 -6.213377
v -14.09531 -1.446079 -3.639036
v -7.961388 -1.509644 -0.01589012
v -16.25648 -1.382516 -0.07945442
v -15.11233 -1.700336 -4.211112
v -15.11233 -1.382516 -4.211112
v -16.25648 -1.700336 -0.07945442
v -15.14412 -1.382516 4.052204
v -15.14412 -1.700336 4.052204
v -12.15661 -1.382516 7.135056
v -12.15661 -1.700336 7.135056
v -15.04877 -1.446079 -0.07945442
v -14.15887 -1.446079 3.511909
v -11.55275 -1.446079 6.08625
v -14.09531 -1.446079 -3.639036
v -7.961388 -1.509644 -0.01589012
v 9.010191 -1.446079 -2.812705
v 4.33824 -1.509644 0.04767418
v 4.370022 -1.446079 -2.844487
v 8.978409 -1.509644 0.07945633
v 4.370022 -1.700336 -2.844487
v 9.010191 -1.700336 -2.812705
v 4.306458 -1.446079 2.939835
v 8.978409 -1.700336 3.003399
v 4.306458 -1.700336 2.939835
v 8.978409 -1.446079 3.003399
v 4.33824 -1.509644 0.04767418
v 8.978409 -1.509644 0.07945633
v 16.12935 -2.018155 3.035179
v 16.25648 -2.208847 0.1112385
v 16.2247 -2.208847 3.035179
v 16.16114 -2.049937 0.1112385
v 13.55501 -1.509644 0.1112385
v 13.55501 -1.446079 3.035179
v 16.2247 -2.208847 3.035179
v 13.55501 -1.700336 3.035179
v 16.16114 -2.018155 -2.780923
v 13.61858 -1.700336 -2.780923
v 16.25648 -2.208847 -2.780923
v 13.61858 -1.446079 -2.780923
v 13.55501 -1.509644 0.1112385
v 16.16114 -2.049937 0.1112385
v 16.25648 -2.208847 -2.780923
v 16.25648 -2.208847 0.1112385
v 13.61858 -1.446079 -2.780923
v 8.978409 -1.509644 0.07945633
v 9.010191 -1.446079 -2.812705
v 13.55501 -1.509644 0.1112385
v 9.010191 -1.700336 -2.812705
v 13.61858 -1.700336 -2.780923
v 0.3019285 -1.509644 0.01589203
v 4.370022 -1.446079 -2.844487
v 4.33824 -1.509644 0.04767418
v -0.4290581 -1.446079 -2.876268
v -0.4290581 -1.700336 -2.876268
v 4.370022 -1.700336 -2.844487
v 8.978409 -1.446079 3.003399
v 13.55501 -1.700336 3.035179
v 8.978409 -1.700336 3.003399
v 13.55501 -1.446079 3.035179
v 8.978409 -1.509644 0.07945633
v 13.55501 -1.509644 0.1112385
v 4.306458 -1.700336 2.939835
v -0.4608402 -1.446079 2.908052
v 4.306458 -1.446079 2.939835
v -0.4608402 -1.700336 2.908052
v 0.3019285 -1.509644 0.01589203
v 4.33824 -1.509644 0.04767418
v -7.866041 3.734383 0.01589203
v -7.961388 -1.795681 0.1430187
v -7.961388 3.734383 0.07945633
v -7.802477 -1.795681 0.04767418
v -7.866041 3.734383 -0.07945442
v -7.802477 -1.795681 -0.1112366
v -8.120296 -1.795681 0.04767418
v -8.056732 3.734383 0.01589203
v -7.961388 3.734383 -0.1430187
v -7.802477 -1.795681 -0.1112366
v -7.866041 3.734383 -0.07945442
v -7.961388 -1.795681 -0.206583
v -8.056732 3.734383 -0.07945442
v -8.120296 -1.795681 -0.1112366
v -8.056732 3.734383 0.01589203
v -8.120296 -1.795681 0.04767418
v -7.516439 -0.9375677 0.6515312
v -7.135056 -0.8104401 0.1112385
v -7.135056 -0.9375677 0.1112385
v -7.516439 -0.8104401 0.6515312
v -7.262184 -0.8104401 -0.4608383
v -7.262184 -0.8104401 -0.4608383
v -7.262184 -0.9375677 -0.4608383
v -7.961388 -0.8104401 -0.01589012
v -7.262184 -0.8104401 -0.4608383
v -7.516439 -0.8104401 0.6515312
v -7.262184 -0.9375677 -0.4608383
v -7.802477 -0.8104401 -0.8740034
v -7.802477 -0.9375677 -0.8740034
v -7.262184 -0.8104401 -0.4608383
v -8.374554 -0.8104401 -0.7468758
v -8.374554 -0.8104401 -0.7468758
v -8.374554 -0.9375677 -0.7468758
v -7.961388 -0.8104401 -0.01589012
v -8.374554 -0.8104401 -0.7468758
v -7.262184 -0.8104401 -0.4608383
v -8.374554 -0.9375677 -0.7468758
v -8.755938 -0.8104401 -0.1748009
v -8.755938 -0.9375677 -0.1748009
v -8.374554 -0.8104401 -0.7468758
v -8.628809 -0.8104401 0.3972759
v -8.628809 -0.8104401 0.3972759
v -8.628809 -0.9375677 0.3972759
v -7.961388 -0.8104401 -0.01589012
v -8.628809 -0.8104401 0.3972759
v -8.374554 -0.8104401 -0.7468758
v -8.628809 -0.9375677 0.3972759
v -8.120296 -0.8104401 0.7786598
v -8.120296 -0.9375677 0.7786598
v -8.628809 -0.8104401 0.3972759
v -7.516439 -0.8104401 0.6515312
v -7.516439 -0.8104401 0.6515312
v -7.516439 -0.9375677 0.6515312
v -7.961388 -0.8104401 -0.01589012
v -7.516439 -0.8104401 0.6515312
v -8.628809 -0.8104401 0.3972759
v -8.183861 -1.604989 7.421093
v -7.929605 -4.211112 7.293966
v -7.929605 -1.604989 7.293966
v -8.183861 -4.211112 7.421093
v -8.120296 -1.604989 7.67535
v -8.120296 -4.211112 7.67535
v -7.929605 -1.604989 7.738913
v -8.120296 -4.211112 7.67535
v -8.120296 -1.604989 7.67535
v -7.929605 -4.211112 7.738913
v -7.738913 -1.604989 7.580004
v -7.738913 -4.211112 7.580004
v -7.929605 -1.604989 7.293966
v -7.929605 -4.211112 7.293966
v -1.382517 -1.604989 3.543692
v -1.223606 -4.211112 3.829729
v -1.223606 -1.604989 3.829729
v -1.382517 -4.211112 3.543692
v -1.414299 -4.211112 3.98864
v -1.414299 -1.604989 3.98864
v -1.700336 -1.604989 3.67082
v -1.382517 -4.211112 3.543692
v -1.382517 -1.604989 3.543692
v -1.700336 -4.211112 3.67082
v -1.636772 -1.604989 3.925076
v -1.636772 -4.211112 3.925076
v -1.414299 -1.604989 3.98864
v -1.414299 -4.211112 3.98864
v 6.27694 -1.604989 2.463104
v 6.404069 -4.211112 2.749142
v 6.404069 -1.604989 2.749142
v 6.27694 -4.211112 2.463104
v 6.213377 -4.211112 2.908052
v 6.213377 -1.604989 2.908052
v 6.022685 -4.211112 2.780924
v 6.022685 -1.604989 2.780924
v 5.990903 -1.604989 2.558451
v 6.27694 -4.211112 2.463104
v 6.27694 -1.604989 2.463104
v 5.990903 -4.211112 2.558451
v 6.022685 -1.604989 2.780924
v 6.022685 -4.211112 2.780924
v 12.02948 -1.604989 2.463104
v 12.22017 -4.211112 2.749142
v 12.22017 -1.604989 2.749142
v 12.02948 -4.211112 2.463104
v 12.02948 -4.211112 2.908052
v 12.02948 -1.604989 2.908052
v 11.71166 -1.604989 2.590233
v 12.02948 -4.211112 2.463104
v 12.02948 -1.604989 2.463104
v 11.71166 -4.211112 2.590233
v 11.77522 -1.604989 2.844488
v 11.77522 -4.211112 2.844488
v 12.02948 -1.604989 2.908052
v 12.02948 -4.211112 2.908052
v -14.66739 -1.604989 3.639038
v -14.38135 -4.211112 3.543692
v -14.38135 -1.604989 3.543692
v -14.66739 -4.211112 3.639038
v -14.66739 -1.604989 3.893293
v -14.66739 -4.211112 3.893293
v -14.41313 -1.604989 3.98864
v -14.66739 -4.211112 3.893293
v -14.66739 -1.604989 3.893293
v -14.41313 -4.211112 3.98864
v -14.22244 -1.604989 3.829729
v -14.22244 -4.211112 3.829729
v -14.38135 -1.604989 3.543692
v -14.38135 -4.211112 3.543692
v -14.60382 -1.604989 -3.988638
v -14.286 -4.211112 -3.956856
v -14.286 -1.604989 -3.956856
v -14.60382 -4.211112 -3.988638
v -14.69917 -1.604989 -3.766164
v -14.69917 -4.211112 -3.766164
v -14.50848 -1.604989 -3.543691
v -14.50848 -4.211112 -3.543691
v -14.286 -1.604989 -3.639036
v -14.50848 -4.211112 -3.543691
v -14.50848 -1.604989 -3.543691
v -14.286 -4.211112 -3.639036
v -14.286 -1.604989 -3.956856
v -14.286 -4.211112 -3.956856
v 6.27694 -1.604989 -2.685576
v 6.467632 -4.211112 -2.399539
v 6.467632 -1.604989 -2.399539
v 6.27694 -4.211112 -2.685576
v 6.27694 -4.211112 -2.208847
v 6.27694 -1.604989 -2.208847
v 6.086248 -4.211112 -2.272411
v 6.086248 -1.604989 -2.272411
v 6.022685 -1.604989 -2.558449
v 6.27694 -4.211112 -2.685576
v 6.27694 -1.604989 -2.685576
v 6.022685 -4.211112 -2.558449
v 6.086248 -1.604989 -2.272411
v 6.086248 -4.211112 -2.272411
v 12.02948 -1.604989 -2.685576
v 12.25195 -4.211112 -2.431321
v 12.25195 -1.604989 -2.431321
v 12.02948 -4.211112 -2.685576
v 12.09304 -4.211112 -2.208847
v 12.09304 -1.604989 -2.208847
v 11.87057 -4.211112 -2.208847
v 11.87057 -1.604989 -2.208847
v 11.74344 -1.604989 -2.431321
v 12.02948 -4.211112 -2.685576
v 12.02948 -1.604989 -2.685576
v 11.74344 -4.211112 -2.431321
v 11.87057 -1.604989 -2.208847
v 11.87057 -4.211112 -2.208847
v 15.97045 -2.049937 2.494886
v 16.09757 -4.242894 2.812706
v 16.09757 -2.049937 2.812706
v 15.97045 -4.242894 2.494886
v 15.8751 -4.242894 2.939835
v 15.8751 -2.049937 2.939835
v 15.65263 -4.242894 2.844488
v 15.65263 -2.049937 2.844488
v 15.65263 -2.049937 2.590233
v 15.97045 -4.242894 2.494886
v 15.97045 -2.049937 2.494886
v 15.65263 -4.242894 2.590233
v 15.65263 -2.049937 2.844488
v 15.65263 -4.242894 2.844488
v 0.3019285 -1.604989 2.39954
v 0.4926205 -4.211112 2.653795
v 0.4926205 -1.604989 2.653795
v 0.3019285 -4.211112 2.39954
v 0.3019285 -4.211112 2.844488
v 0.3019285 -1.604989 2.844488
v 0.04767227 -4.211112 2.749142
v 0.04767227 -1.604989 2.749142
v 0.01589012 -1.604989 2.526669
v 0.3019285 -4.211112 2.39954
v 0.3019285 -1.604989 2.39954
v 0.01589012 -4.211112 2.526669
v 0.04767227 -1.604989 2.749142
v 0.04767227 -4.211112 2.749142
v 16.09757 -2.049937 -2.558449
v 16.09757 -4.242894 -2.304193
v 16.09757 -2.049937 -2.304193
v 16.09757 -4.242894 -2.558449
v 15.77975 -2.049937 -2.558449
v 16.09757 -4.242894 -2.558449
v 16.09757 -2.049937 -2.558449
v 15.77975 -4.242894 -2.558449
v 15.68441 -2.049937 -2.240629
v 15.77975 -4.242894 -2.558449
v 15.77975 -2.049937 -2.558449
v 15.68441 -4.242894 -2.240629
v 15.93866 -2.049937 -2.145283
v 15.93866 -4.242894 -2.145283
v 16.09757 -2.049937 -2.304193
v 16.09757 -4.242894 -2.304193
v 0.397274 -1.604989 -2.717359
v 0.4926205 -4.211112 -2.399539
v 0.4926205 -1.604989 -2.399539
v 0.397274 -4.211112 -2.717359
v 0.2701464 -4.211112 -2.272411
v 0.2701464 -1.604989 -2.272411
v 0.07945442 -4.211112 -2.367757
v 0.07945442 -1.604989 -2.367757
v 0.07945442 -1.604989 -2.653795
v 0.397274 -4.211112 -2.717359
v 0.397274 -1.604989 -2.717359
v 0.07945442 -4.211112 -2.653795
v 0.07945442 -1.604989 -2.367757
v 0.07945442 -4.211112 -2.367757
v -8.152079 -1.604989 -7.707129
v -7.834259 -4.211112 -7.738912
v -7.834259 -1.604989 -7.738912
v -8.152079 -4.211112 -7.707129
v -8.152079 -1.604989 -7.421092
v -8.152079 -4.211112 -7.421092
v -7.961388 -1.604989 -7.293964
v -8.152079 -4.211112 -7.421092
v -8.152079 -1.604989 -7.421092
v -7.961388 -4.211112 -7.293964
v -7.738913 -1.604989 -7.421092
v -7.738913 -4.211112 -7.421092
v -7.834259 -1.604989 -7.738912
v -7.834259 -4.211112 -7.738912
v -1.350735 -1.604989 -3.988638
v -1.223606 -4.211112 -3.670818
v -1.223606 -1.604989 -3.670818
v -1.350735 -4.211112 -3.988638
v -1.446081 -4.211112 -3.543691
v -1.446081 -1.604989 -3.543691
v -1.668554 -4.211112 -3.670818
v -1.668554 -1.604989 -3.670818
v -1.668554 -1.604989 -3.925075
v -1.350735 -4.211112 -3.988638
v -1.350735 -1.604989 -3.988638
v -1.668554 -4.211112 -3.925075
v -1.668554 -1.604989 -3.670818
v -1.668554 -4.211112 -3.670818
v -4.687843 1.446081 3.289436
v -7.770695 4.179331 -0.206583
v -3.353001 1.509645 -1.223606
v -6.8808 1.541428 -4.687841
v -11.39384 1.382517 -3.098742
v -9.232666 1.509645 4.433588
v -12.37908 1.60499 1.191826
vt 0.2987025 0.06193538
vt 0.3366746 0.03513155
vt 0.3344409 0.03513155
vt 0.2987025 0.06640268
vt 0.2495622 0.07310364
vt 0.2495622 0.07310364
vt 0.3500765 0.001626767
vt 0.2920015 0.05523442
vt 0.321039 0.03066425
vt 0.2495622 0.06193538
vt 0.3500765 0.001626767
vt 0.3344409 0.03513155
vt 0.3344409 0.001626767
vt 0.2495622 0.001626767
vt 0.2629641 0.07086999
vt 0.2987025 0.06193538
vt 0.2987025 0.06193538
vt 0.2495622 0.07310364
vt 0.2629641 0.07310364
vt 0.2495622 0.07310364
vt 0.3344409 0.03513155
vt 0.321039 0.04406616
vt 0.3255063 0.04406616
vt 0.3366746 0.03513155
vt 0.3500765 0.001626767
vt 0.3500765 0.001626767
vt 0.2920015 0.05523442
vt 0.321039 0.03066425
vt 0.2495622 0.06193538
vt 0.3344409 0.001626767
vt 0.2495622 0.001626767
vt 0.3344409 0.03513155
vt 0.3500765 0.001626767
vt 0.3500765 0.001626767
vt 0.3344409 0.03513155
vt 0.3366746 0.03513155
vt 0.2987025 0.06193538
vt 0.2987025 0.06640268
vt 0.2495622 0.07310364
vt 0.2495622 0.07310364
vt 0.3344409 0.001626767
vt 0.321039 0.03066425
vt 0.2920015 0.05523442
vt 0.2495622 0.06193538
vt 0.2495622 0.001626767
vt 0.2987025 0.06193538
vt 0.2495622 0.07310364
vt 0.2495622 0.07310364
vt 0.2987025 0.06640268
vt 0.3344409 0.03513155
vt 0.3366746 0.03513155
vt 0.3500765 0.001626767
vt 0.3500765 0.001626767
vt 0.2920015 0.05523442
vt 0.321039 0.03066425
vt 0.3344409 0.001626767
vt 0.2495622 0.06193538
vt 0.2495622 0.001626767
vt 0.4505908 0.03513155
vt 0.3612448 0.001626767
vt 0.3612448 0.03513155
vt 0.4505908 0.001626767
vt 0.3612448 0.03959886
vt 0.4505908 0.03959886
vt 0.3612448 0.03513155
vt 0.4505908 0.03959886
vt 0.3612448 0.03959886
vt 0.4505908 0.03513155
vt 0.3612448 0.001626767
vt 0.4505908 0.001626767
vt 0.430488 0.03513155
vt 0.4349553 0.001626767
vt 0.4394226 0.03513155
vt 0.4349553 0.001626767
vt 0.3813476 0.001626767
vt 0.3813476 0.03513155
vt 0.4349553 0.03959886
vt 0.3813476 0.03959886
vt 0.430488 0.03513155
vt 0.3813476 0.03959886
vt 0.4349553 0.03959886
vt 0.3813476 0.03513155
vt 0.3813476 0.001626767
vt 0.4349553 0.001626767
vt 0.4394226 0.03513155
vt 0.4349553 0.001626767
vt 0.4461236 0.03513155
vt 0.3567775 0.001626767
vt 0.3567775 0.03513155
vt 0.4461236 0.001626767
vt 0.3567775 0.03959886
vt 0.4461236 0.03959886
vt 0.372413 0.001626767
vt 0.4505908 0.03513155
vt 0.4505908 0.001626767
vt 0.3567775 0.03513155
vt 0.3567775 0.03959886
vt 0.4505908 0.03959886
vt 0.3567775 0.03513155
vt 0.4461236 0.03959886
vt 0.3567775 0.03959886
vt 0.4461236 0.03513155
vt 0.3567775 0.001626767
vt 0.4461236 0.001626767
vt 0.4505908 0.03959886
vt 0.3567775 0.03513155
vt 0.4505908 0.03513155
vt 0.3567775 0.03959886
vt 0.372413 0.001626767
vt 0.4505908 0.001626767
vt 0.5555726 0.2205247
vt 0.5578062 0.1401132
vt 0.5578062 0.2205247
vt 0.5555726 0.1401132
vt 0.5511053 0.2205247
vt 0.5511053 0.1401132
vt 0.5622735 0.1401132
vt 0.5622735 0.2205247
vt 0.5667408 0.2205247
vt 0.5712081 0.1401132
vt 0.5712081 0.2205247
vt 0.5667408 0.1401132
vt 0.5667408 0.2205247
vt 0.5667408 0.1401132
vt 0.5622735 0.2205247
vt 0.5622735 0.1401132
vt 0.4840956 0.03513155
vt 0.4885629 0.01502868
vt 0.4930303 0.01502868
vt 0.481862 0.03513155
vt 0.481862 0.001626767
vt 0.481862 0.001626767
vt 0.4840956 0.001626767
vt 0.4617591 0.01502868
vt 0.481862 0.001626767
vt 0.481862 0.03513155
vt 0.4840956 0.001626767
vt 0.4885629 0.01502868
vt 0.4930303 0.01502868
vt 0.481862 0.001626767
vt 0.481862 0.03513155
vt 0.481862 0.03513155
vt 0.4840956 0.03513155
vt 0.4617591 0.01502868
vt 0.481862 0.03513155
vt 0.481862 0.001626767
vt 0.4840956 0.03513155
vt 0.4885629 0.01502868
vt 0.4930303 0.01502868
vt 0.481862 0.03513155
vt 0.481862 0.001626767
vt 0.481862 0.001626767
vt 0.4840956 0.001626767
vt 0.4617591 0.01502868
vt 0.481862 0.001626767
vt 0.481862 0.03513155
vt 0.4840956 0.001626767
vt 0.4885629 0.01502868
vt 0.4930303 0.01502868
vt 0.481862 0.001626767
vt 0.481862 0.03513155
vt 0.481862 0.03513155
vt 0.4840956 0.03513155
vt 0.4617591 0.01502868
vt 0.481862 0.03513155
vt 0.481862 0.001626767
vt 0.5667408 0.2205247
vt 0.5712081 0.1468142
vt 0.5712081 0.2205247
vt 0.5667408 0.1468142
vt 0.5622735 0.2205247
vt 0.5622735 0.1468142
vt 0.5622735 0.2205247
vt 0.5622735 0.1468142
vt 0.5622735 0.2205247
vt 0.5622735 0.1468142
vt 0.5578062 0.2205247
vt 0.5578062 0.1468142
vt 0.5555726 0.2205247
vt 0.5555726 0.1468142
vt 0.5511053 0.2205247
vt 0.5555726 0.1468142
vt 0.5555726 0.2205247
vt 0.5511053 0.1468142
vt 0.5578062 0.1468142
vt 0.5578062 0.2205247
vt 0.5622735 0.2205247
vt 0.5712081 0.1468142
vt 0.5712081 0.2205247
vt 0.5622735 0.1468142
vt 0.5622735 0.2205247
vt 0.5622735 0.1468142
vt 0.5578062 0.2205247
vt 0.5578062 0.1468142
vt 0.5511053 0.2205247
vt 0.5555726 0.1468142
vt 0.5555726 0.2205247
vt 0.5511053 0.1468142
vt 0.5578062 0.1468142
vt 0.5578062 0.2205247
vt 0.5622735 0.1468142
vt 0.5622735 0.2205247
vt 0.5622735 0.2205247
vt 0.5712081 0.1468142
vt 0.5712081 0.2205247
vt 0.5622735 0.1468142
vt 0.5622735 0.2205247
vt 0.5622735 0.1468142
vt 0.5511053 0.2205247
vt 0.5555726 0.1468142
vt 0.5555726 0.2205247
vt 0.5511053 0.1468142
vt 0.5578062 0.1468142
vt 0.5578062 0.2205247
vt 0.5622735 0.2205247
vt 0.5712081 0.1468142
vt 0.5712081 0.2205247
vt 0.5622735 0.1468142
vt 0.5622735 0.2205247
vt 0.5622735 0.1468142
vt 0.5578062 0.2205247
vt 0.5578062 0.1468142
vt 0.5667408 0.2205247
vt 0.5712081 0.1468142
vt 0.5712081 0.2205247
vt 0.5667408 0.1468142
vt 0.5622735 0.2205247
vt 0.5622735 0.1468142
vt 0.5622735 0.2205247
vt 0.5622735 0.1468142
vt 0.5622735 0.2205247
vt 0.5622735 0.1468142
vt 0.5578062 0.2205247
vt 0.5578062 0.1468142
vt 0.5555726 0.2205247
vt 0.5555726 0.1468142
vt 0.5667408 0.2205247
vt 0.5712081 0.1468142
vt 0.5712081 0.2205247
vt 0.5667408 0.1468142
vt 0.5622735 0.2205247
vt 0.5622735 0.1468142
vt 0.5622735 0.2205247
vt 0.5622735 0.1468142
vt 0.5578062 0.2205247
vt 0.5622735 0.1468142
vt 0.5622735 0.2205247
vt 0.5578062 0.1468142
vt 0.5555726 0.2205247
vt 0.5555726 0.1468142
vt 0.5511053 0.2205247
vt 0.5555726 0.1468142
vt 0.5555726 0.2205247
vt 0.5511053 0.1468142
vt 0.5578062 0.1468142
vt 0.5578062 0.2205247
vt 0.5622735 0.1468142
vt 0.5622735 0.2205247
vt 0.5622735 0.2205247
vt 0.5712081 0.1468142
vt 0.5712081 0.2205247
vt 0.5622735 0.1468142
vt 0.5622735 0.2205247
vt 0.5622735 0.1468142
vt 0.5511053 0.2205247
vt 0.5555726 0.1468142
vt 0.5555726 0.2205247
vt 0.5511053 0.1468142
vt 0.5578062 0.1468142
vt 0.5578062 0.2205247
vt 0.5622735 0.1468142
vt 0.5622735 0.2205247
vt 0.5622735 0.2205247
vt 0.5712081 0.1468142
vt 0.5712081 0.2205247
vt 0.5622735 0.1468142
vt 0.5622735 0.2205247
vt 0.5622735 0.1468142
vt 0.5511053 0.2205247
vt 0.5555726 0.1468142
vt 0.5555726 0.2205247
vt 0.5511053 0.1468142
vt 0.5578062 0.1468142
vt 0.5578062 0.2205247
vt 0.5622735 0.1468142
vt 0.5622735 0.2205247
vt 0.5622735 0.2205247
vt 0.5712081 0.1468142
vt 0.5712081 0.2205247
vt 0.5622735 0.1468142
vt 0.5622735 0.2205247
vt 0.5622735 0.1468142
vt 0.5511053 0.2205247
vt 0.5555726 0.1468142
vt 0.5555726 0.2205247
vt 0.5511053 0.1468142
vt 0.5578062 0.1468142
vt 0.5578062 0.2205247
vt 0.5622735 0.1468142
vt 0.5622735 0.2205247
vt 0.5622735 0.2205247
vt 0.5712081 0.1468142
vt 0.5712081 0.2205247
vt 0.5622735 0.1468142
vt 0.5622735 0.2205247
vt 0.5622735 0.1468142
vt 0.5511053 0.2205247
vt 0.5555726 0.1468142
vt 0.5555726 0.2205247
vt 0.5511053 0.1468142
vt 0.5667408 0.2205247
vt 0.5712081 0.1468142
vt 0.5712081 0.2205247
vt 0.5667408 0.1468142
vt 0.5622735 0.2205247
vt 0.5667408 0.1468142
vt 0.5667408 0.2205247
vt 0.5622735 0.1468142
vt 0.5578062 0.2205247
vt 0.5578062 0.1468142
vt 0.5555726 0.2205247
vt 0.5555726 0.1468142
vt 0.5511053 0.2205247
vt 0.5555726 0.1468142
vt 0.5555726 0.2205247
vt 0.5511053 0.1468142
vt 0.5578062 0.1468142
vt 0.5578062 0.2205247
vt 0.5622735 0.1468142
vt 0.5622735 0.2205247
vt 0.5622735 0.2205247
vt 0.5712081 0.1468142
vt 0.5712081 0.2205247
vt 0.5622735 0.1468142
vt 0.5622735 0.2205247
vt 0.5622735 0.1468142
vt 0.5667408 0.2205247
vt 0.5712081 0.1468142
vt 0.5712081 0.2205247
vt 0.5667408 0.1468142
vt 0.5622735 0.2205247
vt 0.5622735 0.1468142
vt 0.5622735 0.2205247
vt 0.5622735 0.1468142
vt 0.5622735 0.2205247
vt 0.5622735 0.1468142
vt 0.5578062 0.2205247
vt 0.5578062 0.1468142
vt 0.5555726 0.2205247
vt 0.5555726 0.1468142
vt 0.5511053 0.2205247
vt 0.5555726 0.1468142
vt 0.5555726 0.2205247
vt 0.5511053 0.1468142
vt 0.5578062 0.1468142
vt 0.5578062 0.2205247
vt 0.5622735 0.1468142
vt 0.5622735 0.2205247
vt 0.5622735 0.2205247
vt 0.5712081 0.1468142
vt 0.5712081 0.2205247
vt 0.5622735 0.1468142
vt 0.5622735 0.2205247
vt 0.5622735 0.1468142
vt 0.3076371 0.08203825
vt 0.2920015 0.1177767
vt 0.3344409 0.1088421
vt 0.3143381 0.1445805
vt 0.2718987 0.1468142
vt 0.2607304 0.0887392
vt 0.2450949 0.1200103
vn 0.4035173 0.6253601 0.6679061
vn 0.02938008 -0.02938008 0.9991364
vn 0.02938008 0.6253601 0.779783
vn 0.5282297 -0.02938008 0.8485931
vn 0.6529422 0.6253601 0.427307
vn 0.8711889 -0.02938008 0.4900681
vn -0.4694696 -0.02938008 0.8824597
vn 0.02938008 0.9683192 -0.2479811
vn 0.02938008 0.9683192 -0.2479811
vn -0.001798034 0.9683192 -0.2497091
vn -0.3447571 0.6253601 0.700048
vn 0.02938008 0.6253601 0.779783
vn 0.0605582 0.9683192 -0.2422613
vn 0.02938008 0.9683192 -0.2479811
vn 0.8400108 0.1888667 0.5086367
vn 0.7776545 0.6253601 -0.06463896
vn 0.6529422 0.7188944 0.2384478
vn 0.6529422 0.6253601 0.427307
vn 0.6217641 -0.02938008 0.7826533
vn 0.8711889 -0.02938008 0.4900681
vn 0.6529422 0.6253601 -0.427307
vn 0.8400108 0.1888667 -0.5086367
vn 0.6217641 -0.02938008 -0.7826533
vn 0.902367 -0.02938008 -0.4299658
vn 0.4035173 0.6253601 -0.6679061
vn 0.5282297 -0.02938008 -0.8485931
vn -0.001798034 0.9683192 -0.2497091
vn -0.001798034 0.9683192 0.2497091
vn -0.001798034 0.9683192 -0.2497091
vn 0.02938008 0.9683192 0.2479811
vn 0.02938008 0.9683192 -0.2479811
vn 0.02938008 0.6253601 -0.779783
vn 0.5282297 -0.02938008 -0.8485931
vn 0.4035173 0.6253601 -0.6679061
vn 0.02938008 0.6253601 -0.779783
vn 0.02938008 -0.02938008 -0.9991364
vn -0.3447571 0.6253601 -0.700048
vn -0.4694696 -0.02938008 -0.8824597
vn -0.594182 0.6253601 -0.5058385
vn -0.8124288 -0.02938008 -0.5823197
vn 0.02938008 0.9683192 0.2479811
vn 0.02938008 0.9683192 0.2479811
vn 0.0605582 0.9683192 0.2422613
vn 0.0605582 0.9683192 0.2422613
vn 0.02938008 0.9683192 -0.2479811
vn -0.6877163 0.6253601 -0.3687426
vn -0.8124288 -0.02938008 -0.5823197
vn -0.594182 0.6253601 -0.5058385
vn -0.9683192 -0.02938008 -0.2479811
vn -0.594182 0.6253601 0.5058385
vn -0.8124288 -0.02938008 0.5823197
vn -0.3447571 0.6253601 0.700048
vn -0.4694696 -0.02938008 0.8824597
vn 0.0605582 0.9683192 0.2422613
vn 0.0605582 0.9683192 -0.2422613
vn 0.0605582 0.9683192 -0.2422613
vn 0.0605582 0.9683192 0.2422613
vn 0.02938008 0.9683192 -0.2479811
vn 0.02938008 0.6565382 -0.7537203
vn 0.02938008 0.9683192 -0.2479811
vn 0.02938008 0.6565382 -0.7537203
vn 0.02938008 0.9683192 -0.2479811
vn 0.02938008 -0.02938008 -0.9991364
vn 0.02938008 -0.02938008 -0.9991364
vn 0.02938008 0.6565382 0.7537203
vn 0.02938008 -0.02938008 0.9991364
vn 0.02938008 -0.02938008 0.9991364
vn 0.02938008 0.6565382 0.7537203
vn 0.02938008 0.9683192 -0.2479811
vn 0.02938008 0.9683192 -0.2479811
vn 0.4970516 0.594182 0.6323666
vn 0.902367 0.4071134 0.1413948
vn 0.7776545 0.3447571 0.5257337
vn 0.6529422 0.7500725 -0.1051555
vn 0.1229144 0.9683192 0.2173705
vn 0.09173626 0.6877163 0.7201602
vn 0.7776545 0.3447571 0.5257337
vn 0.02938008 -0.02938008 0.9991364
vn 0.4970516 0.594182 -0.6323666
vn 0.02938008 -0.02938008 -0.9991364
vn 0.8088326 0.3447571 -0.4763741
vn 0.1229144 0.6877163 -0.7154987
vn 0.1229144 0.9683192 0.2173705
vn 0.6529422 0.7500725 -0.1051555
vn 0.8088326 0.3447571 -0.4763741
vn 0.902367 0.4071134 0.1413948
vn 0.1229144 0.6877163 -0.7154987
vn 0.02938008 0.9683192 -0.2479811
vn 0.02938008 0.6565382 -0.7537203
vn 0.1229144 0.9683192 0.2173705
vn 0.02938008 -0.02938008 -0.9991364
vn 0.02938008 -0.02938008 -0.9991364
vn 0.6529422 0.7188944 0.2384478
vn 0.02938008 0.6565382 -0.7537203
vn 0.02938008 0.9683192 -0.2479811
vn 0.8400108 0.1888667 -0.5086367
vn 0.6217641 -0.02938008 -0.7826533
vn 0.02938008 -0.02938008 -0.9991364
vn 0.02938008 0.6565382 0.7537203
vn 0.02938008 -0.02938008 0.9991364
vn 0.02938008 -0.02938008 0.9991364
vn 0.09173626 0.6877163 0.7201602
vn 0.02938008 0.9683192 -0.2479811
vn 0.1229144 0.9683192 0.2173705
vn 0.02938008 -0.02938008 0.9991364
vn 0.8400108 0.1888667 0.5086367
vn 0.02938008 0.6565382 0.7537203
vn 0.6217641 -0.02938008 0.7826533
vn 0.6529422 0.7188944 0.2384478
vn 0.02938008 0.9683192 -0.2479811
vn 0.8711889 -0.02938008 0.4900681
vn 0.02938008 -0.02938008 0.9991364
vn 0.02938008 -0.02938008 0.9991364
vn 0.8711889 -0.02938008 0.4900681
vn 0.902367 -0.02938008 -0.4299658
vn 0.902367 -0.02938008 -0.4299658
vn -0.8124288 -0.02938008 0.5823197
vn -0.8124288 -0.02938008 0.5823197
vn 0.02938008 -0.02938008 -0.9991364
vn 0.902367 -0.02938008 -0.4299658
vn 0.902367 -0.02938008 -0.4299658
vn 0.02938008 -0.02938008 -0.9991364
vn -0.8124288 -0.02938008 -0.5823197
vn -0.8124288 -0.02938008 -0.5823197
vn -0.8124288 -0.02938008 0.5823197
vn -0.8124288 -0.02938008 0.5823197
vn 0.5594078 -0.02938008 0.8283717
vn 0.7776545 0.594182 0.2054294
vn 0.9959013 -0.02938008 0.08554197
vn 0.4658735 0.594182 0.6556749
vn 0.6841202 0.594182 -0.422998
vn 0.6841202 0.594182 -0.422998
vn 0.8400108 -0.02938008 -0.5417737
vn 0.02938008 0.9683192 -0.2479811
vn 0.6841202 0.594182 -0.422998
vn 0.4658735 0.594182 0.6556749
vn 0.8400108 -0.02938008 -0.5417737
vn 0.1852706 0.594182 -0.7827021
vn 0.2164487 -0.02938008 -0.9758518
vn 0.6841202 0.594182 -0.422998
vn -0.3759353 0.594182 -0.7110699
vn -0.3759353 0.594182 -0.7110699
vn -0.5006477 -0.02938008 -0.8651524
vn 0.02938008 0.9683192 -0.2479811
vn -0.3759353 0.594182 -0.7110699
vn 0.6841202 0.594182 -0.422998
vn -0.5006477 -0.02938008 -0.8651524
vn -0.7188944 0.594182 -0.3607473
vn -0.9683192 -0.02938008 -0.2479811
vn -0.3759353 0.594182 -0.7110699
vn -0.594182 0.594182 0.5421214
vn -0.594182 0.594182 0.5421214
vn -0.7812507 -0.02938008 0.6235256
vn 0.02938008 0.9683192 -0.2479811
vn -0.594182 0.594182 0.5421214
vn -0.3759353 0.594182 -0.7110699
vn -0.7812507 -0.02938008 0.6235256
vn -0.1265104 0.594182 0.7943192
vn -0.1576886 -0.02938008 0.9870517
vn -0.594182 0.594182 0.5421214
vn 0.4658735 0.594182 0.6556749
vn 0.4658735 0.594182 0.6556749
vn 0.5594078 -0.02938008 0.8283717
vn 0.02938008 0.9683192 -0.2479811
vn 0.4658735 0.594182 0.6556749
vn -0.594182 0.594182 0.5421214
vn -0.8436069 -0.02938008 -0.5361569
vn 0.309983 -0.02938008 -0.950288
vn 0.309983 -0.02938008 -0.950288
vn -0.8436069 -0.02938008 -0.5361569
vn -0.6877163 -0.02938008 0.7253848
vn -0.6877163 -0.02938008 0.7253848
vn 0.2476268 -0.02938008 0.96841
vn -0.6877163 -0.02938008 0.7253848
vn -0.6877163 -0.02938008 0.7253848
vn 0.2476268 -0.02938008 0.96841
vn 0.9959013 -0.02938008 0.08554197
vn 0.9959013 -0.02938008 0.08554197
vn 0.309983 -0.02938008 -0.950288
vn 0.309983 -0.02938008 -0.950288
vn 0.309983 -0.02938008 -0.950288
vn 0.9959013 -0.02938008 0.08554197
vn 0.9959013 -0.02938008 0.08554197
vn 0.309983 -0.02938008 -0.950288
vn 0.2476268 -0.02938008 0.96841
vn 0.2476268 -0.02938008 0.96841
vn -0.8436069 -0.02938008 -0.5361569
vn 0.309983 -0.02938008 -0.950288
vn 0.309983 -0.02938008 -0.950288
vn -0.8436069 -0.02938008 -0.5361569
vn -0.6877163 -0.02938008 0.7253848
vn -0.6877163 -0.02938008 0.7253848
vn 0.2476268 -0.02938008 0.96841
vn 0.2476268 -0.02938008 0.96841
vn 0.4346954 -0.02938008 -0.9000982
vn 0.9959013 -0.02938008 0.08554197
vn 0.9959013 -0.02938008 0.08554197
vn 0.4346954 -0.02938008 -0.9000982
vn 0.1229144 -0.02938008 0.9919823
vn 0.1229144 -0.02938008 0.9919823
vn -0.7500725 -0.02938008 0.6607026
vn -0.7500725 -0.02938008 0.6607026
vn -0.7812507 -0.02938008 -0.6235256
vn 0.4346954 -0.02938008 -0.9000982
vn 0.4346954 -0.02938008 -0.9000982
vn -0.7812507 -0.02938008 -0.6235256
vn -0.7500725 -0.02938008 0.6607026
vn -0.7500725 -0.02938008 0.6607026
vn 0.309983 -0.02938008 -0.950288
vn 0.9959013 -0.02938008 0.08554197
vn 0.9959013 -0.02938008 0.08554197
vn 0.309983 -0.02938008 -0.950288
vn 0.2788049 -0.02938008 0.9598982
vn 0.2788049 -0.02938008 0.9598982
vn -0.8436069 -0.02938008 -0.5361569
vn 0.309983 -0.02938008 -0.950288
vn 0.309983 -0.02938008 -0.950288
vn -0.8436069 -0.02938008 -0.5361569
vn -0.6877163 -0.02938008 0.7253848
vn -0.6877163 -0.02938008 0.7253848
vn 0.2788049 -0.02938008 0.9598982
vn 0.2788049 -0.02938008 0.9598982
vn -0.7812507 -0.02938008 -0.6235256
vn 0.4346954 -0.02938008 -0.9000982
vn 0.4346954 -0.02938008 -0.9000982
vn -0.7812507 -0.02938008 -0.6235256
vn -0.7500725 -0.02938008 0.6607026
vn -0.7500725 -0.02938008 0.6607026
vn 0.1540925 -0.02938008 0.9876195
vn -0.7500725 -0.02938008 0.6607026
vn -0.7500725 -0.02938008 0.6607026
vn 0.1540925 -0.02938008 0.9876195
vn 0.9959013 -0.02938008 0.08554197
vn 0.9959013 -0.02938008 0.08554197
vn 0.4346954 -0.02938008 -0.9000982
vn 0.4346954 -0.02938008 -0.9000982
vn -0.5006477 -0.02938008 -0.8651524
vn 0.7776545 -0.02938008 -0.628005
vn 0.7776545 -0.02938008 -0.628005
vn -0.5006477 -0.02938008 -0.8651524
vn -0.9683192 -0.02938008 0.2479811
vn -0.9683192 -0.02938008 0.2479811
vn -0.282401 -0.02938008 0.9588464
vn -0.282401 -0.02938008 0.9588464
vn 0.8088326 -0.02938008 0.5873045
vn -0.282401 -0.02938008 0.9588464
vn -0.282401 -0.02938008 0.9588464
vn 0.8088326 -0.02938008 0.5873045
vn 0.7776545 -0.02938008 -0.628005
vn 0.7776545 -0.02938008 -0.628005
vn 0.2788049 -0.02938008 -0.9598982
vn 0.9959013 -0.02938008 0.08554197
vn 0.9959013 -0.02938008 0.08554197
vn 0.2788049 -0.02938008 -0.9598982
vn 0.2788049 -0.02938008 0.9598982
vn 0.2788049 -0.02938008 0.9598982
vn -0.6565382 -0.02938008 0.7537203
vn -0.6565382 -0.02938008 0.7537203
vn -0.8747849 -0.02938008 -0.4836199
vn 0.2788049 -0.02938008 -0.9598982
vn 0.2788049 -0.02938008 -0.9598982
vn -0.8747849 -0.02938008 -0.4836199
vn -0.6565382 -0.02938008 0.7537203
vn -0.6565382 -0.02938008 0.7537203
vn 0.0605582 -0.02938008 -0.9977322
vn 0.9959013 -0.02938008 -0.08554197
vn 0.9959013 -0.02938008 -0.08554197
vn 0.0605582 -0.02938008 -0.9977322
vn 0.4970516 -0.02938008 0.8672234
vn 0.4970516 -0.02938008 0.8672234
vn -0.5006477 -0.02938008 0.8651524
vn -0.5006477 -0.02938008 0.8651524
vn -0.9683192 -0.02938008 -0.2479811
vn 0.0605582 -0.02938008 -0.9977322
vn 0.0605582 -0.02938008 -0.9977322
vn -0.9683192 -0.02938008 -0.2479811
vn -0.5006477 -0.02938008 0.8651524
vn -0.5006477 -0.02938008 0.8651524
vn 0.4658735 -0.02938008 -0.8843634
vn 0.9647232 -0.02938008 0.261622
vn 0.9647232 -0.02938008 0.261622
vn 0.4658735 -0.02938008 -0.8843634
vn 0.1229144 -0.02938008 0.9919823
vn 0.1229144 -0.02938008 0.9919823
vn -0.7812507 -0.02938008 0.6235256
vn -0.7812507 -0.02938008 0.6235256
vn -0.7812507 -0.02938008 -0.6235256
vn 0.4658735 -0.02938008 -0.8843634
vn 0.4658735 -0.02938008 -0.8843634
vn -0.7812507 -0.02938008 -0.6235256
vn -0.7812507 -0.02938008 0.6235256
vn -0.7812507 -0.02938008 0.6235256
vn 0.3411611 -0.02938008 -0.9395456
vn 0.9959013 -0.02938008 0.08554197
vn 0.9959013 -0.02938008 0.08554197
vn 0.3411611 -0.02938008 -0.9395456
vn 0.2476268 -0.02938008 0.96841
vn 0.2476268 -0.02938008 0.96841
vn -0.6877163 -0.02938008 0.7253848
vn -0.6877163 -0.02938008 0.7253848
vn -0.8436069 -0.02938008 -0.5361569
vn 0.3411611 -0.02938008 -0.9395456
vn 0.3411611 -0.02938008 -0.9395456
vn -0.8436069 -0.02938008 -0.5361569
vn -0.6877163 -0.02938008 0.7253848
vn -0.6877163 -0.02938008 0.7253848
vn 0.6841202 -0.02938008 -0.7287773
vn 0.9647232 -0.02938008 0.261622
vn 0.9647232 -0.02938008 0.261622
vn 0.6841202 -0.02938008 -0.7287773
vn -0.594182 -0.02938008 -0.8037939
vn 0.6841202 -0.02938008 -0.7287773
vn 0.6841202 -0.02938008 -0.7287773
vn -0.594182 -0.02938008 -0.8037939
vn -0.8124288 -0.02938008 0.5823197
vn -0.594182 -0.02938008 -0.8037939
vn -0.594182 -0.02938008 -0.8037939
vn -0.8124288 -0.02938008 0.5823197
vn 0.1852706 -0.02938008 0.9822482
vn 0.1852706 -0.02938008 0.9822482
vn 0.9647232 -0.02938008 0.261622
vn 0.9647232 -0.02938008 0.261622
vn 0.5282297 -0.02938008 -0.8485931
vn 0.9647232 -0.02938008 0.261622
vn 0.9647232 -0.02938008 0.261622
vn 0.5282297 -0.02938008 -0.8485931
vn 0.02938008 -0.02938008 0.9991364
vn 0.02938008 -0.02938008 0.9991364
vn -0.8124288 -0.02938008 0.5823197
vn -0.8124288 -0.02938008 0.5823197
vn -0.7188944 -0.02938008 -0.6944981
vn 0.5282297 -0.02938008 -0.8485931
vn 0.5282297 -0.02938008 -0.8485931
vn -0.7188944 -0.02938008 -0.6944981
vn -0.8124288 -0.02938008 0.5823197
vn -0.8124288 -0.02938008 0.5823197
vn -0.7188944 -0.02938008 -0.6944981
vn 0.5282297 -0.02938008 -0.8485931
vn 0.5282297 -0.02938008 -0.8485931
vn -0.7188944 -0.02938008 -0.6944981
vn -0.8124288 -0.02938008 0.5823197
vn -0.8124288 -0.02938008 0.5823197
vn 0.02938008 -0.02938008 0.9991364
vn -0.8124288 -0.02938008 0.5823197
vn -0.8124288 -0.02938008 0.5823197
vn 0.02938008 -0.02938008 0.9991364
vn 0.9647232 -0.02938008 0.261622
vn 0.9647232 -0.02938008 0.261622
vn 0.5282297 -0.02938008 -0.8485931
vn 0.5282297 -0.02938008 -0.8485931
vn 0.5282297 -0.02938008 -0.8485931
vn 0.9647232 -0.02938008 0.261622
vn 0.9647232 -0.02938008 0.261622
vn 0.5282297 -0.02938008 -0.8485931
vn 0.02938008 -0.02938008 0.9991364
vn 0.02938008 -0.02938008 0.9991364
vn -0.8124288 -0.02938008 0.5823197
vn -0.8124288 -0.02938008 0.5823197
vn -0.7188944 -0.02938008 -0.6944981
vn 0.5282297 -0.02938008 -0.8485931
vn 0.5282297 -0.02938008 -0.8485931
vn -0.7188944 -0.02938008 -0.6944981
vn -0.8124288 -0.02938008 0.5823197
vn -0.8124288 -0.02938008 0.5823197
vn 0.3723392 0.8124288 0.4486904
vn 0.0605582 0.9683192 -0.2422613
vn 0.5282297 0.8124288 -0.2468459
vn 0.1229144 0.8124288 -0.5699575
vn -0.3447571 0.8124288 -0.4702148
vn -0.09533232 0.8436069 0.5284308
vn -0.4071134 0.8436069 0.3501229
g DSJ_GTA_diLou_maTou_0
f 3/3/3 2/2/2 1/1/1
f 4/4/4 1/1/1 2/2/2
f 1/1/1 4/4/4 5/5/5
f 6/6/6 5/5/5 4/4/4
f 2/2/2 3/3/3 7/7/7
f 1/1/1 8/8/8 3/3/3
f 1/1/1 5/5/5 8/8/8
f 9/9/9 3/3/3 8/8/8
f 10/10/10 8/8/8 5/5/5
f 3/3/3 9/9/9 11/11/11
f 11/11/11 7/7/7 12/12/12
f 13/13/13 11/11/11 9/9/9
f 14/14/14 9/9/9 8/8/8
f 14/14/14 8/8/8 10/10/10
f 14/14/14 13/13/13 9/9/9
f 17/17/17 16/16/16 15/15/15
f 18/18/18 15/15/15 16/16/16
f 15/15/15 18/18/18 19/19/19
f 20/20/20 19/19/19 18/18/18
f 16/16/16 17/17/17 21/21/21
f 22/22/22 21/21/21 17/17/17
f 22/22/22 23/23/23 21/21/21
f 24/24/24 21/21/21 23/23/23
f 21/21/21 24/24/24 25/25/25
f 26/26/26 25/25/25 24/24/24
f 16/16/16 21/21/21 27/27/27
f 16/16/16 27/27/27 18/18/18
f 28/28/28 27/27/27 21/21/21
f 29/29/29 18/18/18 27/27/27
f 25/25/25 30/30/30 21/21/21
f 28/28/28 21/21/21 30/30/30
f 31/31/31 27/27/27 28/28/28
f 31/31/31 29/29/29 27/27/27
f 31/31/31 28/28/28 30/30/30
f 34/34/34 33/33/33 32/32/32
f 36/36/36 35/35/35 33/33/33
f 35/35/35 36/36/36 37/37/37
f 38/38/38 37/37/37 36/36/36
f 37/37/37 38/38/38 39/39/39
f 40/40/40 39/39/39 38/38/38
f 34/34/34 35/35/35 41/41/41
f 42/42/42 41/41/41 35/35/35
f 37/37/37 39/39/39 43/43/43
f 37/37/37 43/43/43 35/35/35
f 42/42/42 35/35/35 43/43/43
f 44/44/44 43/43/43 39/39/39
f 45/45/45 41/41/41 42/42/42
f 45/45/45 43/43/43 44/44/44
f 45/45/45 42/42/42 43/43/43
f 48/48/48 47/47/47 46/46/46
f 49/49/49 46/46/46 47/47/47
f 46/46/46 49/49/49 50/50/50
f 51/51/51 50/50/50 49/49/49
f 50/50/50 51/51/51 52/52/52
f 53/53/53 52/52/52 51/51/51
f 46/46/46 50/50/50 54/54/54
f 46/46/46 54/54/54 48/48/48
f 55/55/55 54/54/54 50/50/50
f 50/50/50 52/52/52 55/55/55
f 56/56/56 55/55/55 52/52/52
f 57/57/57 48/48/48 54/54/54
f 58/58/58 54/54/54 55/55/55
f 58/58/58 55/55/55 56/56/56
f 58/58/58 57/57/57 54/54/54
f 61/61/61 60/60/60 59/59/59
f 62/62/62 59/59/59 60/60/60
f 61/61/61 59/59/59 63/63/63
f 64/64/64 63/63/63 59/59/59
f 67/67/67 66/66/66 65/65/65
f 68/68/68 65/65/65 66/66/66
f 65/65/65 68/68/68 69/69/69
f 70/70/70 69/69/69 68/68/68
f 73/73/73 72/72/72 71/71/71
f 74/74/74 71/71/71 72/72/72
f 74/74/74 75/75/75 71/71/71
f 76/76/76 71/71/71 75/75/75
f 71/71/71 76/76/76 77/77/77
f 78/78/78 77/77/77 76/76/76
f 81/81/81 80/80/80 79/79/79
f 82/82/82 79/79/79 80/80/80
f 82/82/82 83/83/83 79/79/79
f 84/84/84 79/79/79 83/83/83
f 79/79/79 84/84/84 85/85/85
f 86/86/86 85/85/85 84/84/84
f 89/89/89 88/88/88 87/87/87
f 90/90/90 87/87/87 88/88/88
f 89/89/89 87/87/87 91/91/91
f 92/92/92 91/91/91 87/87/87
f 95/95/95 94/94/94 93/93/93
f 96/96/96 93/93/93 94/94/94
f 96/96/96 94/94/94 97/97/97
f 98/98/98 97/97/97 94/94/94
f 101/101/101 100/100/100 99/99/99
f 102/102/102 99/99/99 100/100/100
f 99/99/99 102/102/102 103/103/103
f 104/104/104 103/103/103 102/102/102
f 107/107/107 106/106/106 105/105/105
f 108/108/108 105/105/105 106/106/106
f 106/106/106 107/107/107 109/109/109
f 110/110/110 109/109/109 107/107/107
f 113/113/113 112/112/112 111/111/111
f 114/114/114 111/111/111 112/112/112
f 111/111/111 114/114/114 115/115/115
f 116/116/116 115/115/115 114/114/114
f 112/112/112 113/113/113 117/117/117
f 118/118/118 117/117/117 113/113/113
f 121/121/121 120/120/120 119/119/119
f 122/122/122 119/119/119 120/120/120
f 119/119/119 122/122/122 123/123/123
f 124/124/124 123/123/123 122/122/122
f 123/123/123 124/124/124 125/125/125
f 126/126/126 125/125/125 124/124/124
f 129/129/129 128/128/128 127/127/127
f 130/130/130 127/127/127 128/128/128
f 128/128/128 129/129/129 131/131/131
f 133/133/133 132/132/132 129/129/129
f 135/135/135 134/134/134 128/128/128
f 136/136/136 128/128/128 134/134/134
f 139/139/139 138/138/138 137/137/137
f 140/140/140 137/137/137 138/138/138
f 138/138/138 139/139/139 141/141/141
f 143/143/143 142/142/142 139/139/139
f 145/145/145 144/144/144 138/138/138
f 146/146/146 138/138/138 144/144/144
f 149/149/149 148/148/148 147/147/147
f 150/150/150 147/147/147 148/148/148
f 148/148/148 149/149/149 151/151/151
f 153/153/153 152/152/152 149/149/149
f 155/155/155 154/154/154 148/148/148
f 156/156/156 148/148/148 154/154/154
f 159/159/159 158/158/158 157/157/157
f 160/160/160 157/157/157 158/158/158
f 158/158/158 159/159/159 161/161/161
f 163/163/163 162/162/162 159/159/159
f 165/165/165 164/164/164 158/158/158
f 166/166/166 158/158/158 164/164/164
f 169/169/169 168/168/168 167/167/167
f 170/170/170 167/167/167 168/168/168
f 167/167/167 170/170/170 171/171/171
f 172/172/172 171/171/171 170/170/170
f 175/175/175 174/174/174 173/173/173
f 176/176/176 173/173/173 174/174/174
f 173/173/173 176/176/176 177/177/177
f 178/178/178 177/177/177 176/176/176
f 177/177/177 178/178/178 179/179/179
f 180/180/180 179/179/179 178/178/178
f 183/183/183 182/182/182 181/181/181
f 184/184/184 181/181/181 182/182/182
f 182/182/182 183/183/183 185/185/185
f 186/186/186 185/185/185 183/183/183
f 189/189/189 188/188/188 187/187/187
f 190/190/190 187/187/187 188/188/188
f 187/187/187 190/190/190 191/191/191
f 192/192/192 191/191/191 190/190/190
f 191/191/191 192/192/192 193/193/193
f 194/194/194 193/193/193 192/192/192
f 197/197/197 196/196/196 195/195/195
f 198/198/198 195/195/195 196/196/196
f 196/196/196 197/197/197 199/199/199
f 200/200/200 199/199/199 197/197/197
f 199/199/199 200/200/200 201/201/201
f 202/202/202 201/201/201 200/200/200
f 205/205/205 204/204/204 203/203/203
f 206/206/206 203/203/203 204/204/204
f 203/203/203 206/206/206 207/207/207
f 208/208/208 207/207/207 206/206/206
f 211/211/211 210/210/210 209/209/209
f 212/212/212 209/209/209 210/210/210
f 210/210/210 211/211/211 213/213/213
f 214/214/214 213/213/213 211/211/211
f 217/217/217 216/216/216 215/215/215
f 218/218/218 215/215/215 216/216/216
f 215/215/215 218/218/218 219/219/219
f 220/220/220 219/219/219 218/218/218
f 219/219/219 220/220/220 221/221/221
f 222/222/222 221/221/221 220/220/220
f 225/225/225 224/224/224 223/223/223
f 226/226/226 223/223/223 224/224/224
f 223/223/223 226/226/226 227/227/227
f 228/228/228 227/227/227 226/226/226
f 231/231/231 230/230/230 229/229/229
f 232/232/232 229/229/229 230/230/230
f 229/229/229 232/232/232 233/233/233
f 234/234/234 233/233/233 232/232/232
f 233/233/233 234/234/234 235/235/235
f 236/236/236 235/235/235 234/234/234
f 239/239/239 238/238/238 237/237/237
f 240/240/240 237/237/237 238/238/238
f 237/237/237 240/240/240 241/241/241
f 242/242/242 241/241/241 240/240/240
f 241/241/241 242/242/242 243/243/243
f 244/244/244 243/243/243 242/242/242
f 247/247/247 246/246/246 245/245/245
f 248/248/248 245/245/245 246/246/246
f 245/245/245 248/248/248 249/249/249
f 250/250/250 249/249/249 248/248/248
f 253/253/253 252/252/252 251/251/251
f 254/254/254 251/251/251 252/252/252
f 252/252/252 253/253/253 255/255/255
f 256/256/256 255/255/255 253/253/253
f 255/255/255 256/256/256 257/257/257
f 258/258/258 257/257/257 256/256/256
f 261/261/261 260/260/260 259/259/259
f 262/262/262 259/259/259 260/260/260
f 259/259/259 262/262/262 263/263/263
f 264/264/264 263/263/263 262/262/262
f 267/267/267 266/266/266 265/265/265
f 268/268/268 265/265/265 266/266/266
f 266/266/266 267/267/267 269/269/269
f 270/270/270 269/269/269 267/267/267
f 269/269/269 270/270/270 271/271/271
f 272/272/272 271/271/271 270/270/270
f 275/275/275 274/274/274 273/273/273
f 276/276/276 273/273/273 274/274/274
f 273/273/273 276/276/276 277/277/277
f 278/278/278 277/277/277 276/276/276
f 281/281/281 280/280/280 279/279/279
f 282/282/282 279/279/279 280/280/280
f 280/280/280 281/281/281 283/283/283
f 284/284/284 283/283/283 281/281/281
f 283/283/283 284/284/284 285/285/285
f 286/286/286 285/285/285 284/284/284
f 289/289/289 288/288/288 287/287/287
f 290/290/290 287/287/287 288/288/288
f 287/287/287 290/290/290 291/291/291
f 292/292/292 291/291/291 290/290/290
f 295/295/295 294/294/294 293/293/293
f 296/296/296 293/293/293 294/294/294
f 294/294/294 295/295/295 297/297/297
f 298/298/298 297/297/297 295/295/295
f 297/297/297 298/298/298 299/299/299
f 300/300/300 299/299/299 298/298/298
f 303/303/303 302/302/302 301/301/301
f 304/304/304 301/301/301 302/302/302
f 301/301/301 304/304/304 305/305/305
f 306/306/306 305/305/305 304/304/304
f 309/309/309 308/308/308 307/307/307
f 310/310/310 307/307/307 308/308/308
f 313/313/313 312/312/312 311/311/311
f 314/314/314 311/311/311 312/312/312
f 317/317/317 316/316/316 315/315/315
f 318/318/318 315/315/315 316/316/316
f 315/315/315 318/318/318 319/319/319
f 320/320/320 319/319/319 318/318/318
f 319/319/319 320/320/320 321/321/321
f 322/322/322 321/321/321 320/320/320
f 325/325/325 324/324/324 323/323/323
f 326/326/326 323/323/323 324/324/324
f 324/324/324 325/325/325 327/327/327
f 328/328/328 327/327/327 325/325/325
f 327/327/327 328/328/328 329/329/329
f 330/330/330 329/329/329 328/328/328
f 333/333/333 332/332/332 331/331/331
f 334/334/334 331/331/331 332/332/332
f 331/331/331 334/334/334 335/335/335
f 336/336/336 335/335/335 334/334/334
f 339/339/339 338/338/338 337/337/337
f 340/340/340 337/337/337 338/338/338
f 337/337/337 340/340/340 341/341/341
f 342/342/342 341/341/341 340/340/340
f 345/345/345 344/344/344 343/343/343
f 346/346/346 343/343/343 344/344/344
f 343/343/343 346/346/346 347/347/347
f 348/348/348 347/347/347 346/346/346
f 347/347/347 348/348/348 349/349/349
f 350/350/350 349/349/349 348/348/348
f 353/353/353 352/352/352 351/351/351
f 354/354/354 351/351/351 352/352/352
f 352/352/352 353/353/353 355/355/355
f 356/356/356 355/355/355 353/353/353
f 355/355/355 356/356/356 357/357/357
f 358/358/358 357/357/357 356/356/356
f 361/361/361 360/360/360 359/359/359
f 362/362/362 359/359/359 360/360/360
f 359/359/359 362/362/362 363/363/363
f 364/364/364 363/363/363 362/362/362
f 367/367/367 366/366/366 365/365/365
f 368/368/368 366/366/366 367/367/367
f 369/369/369 366/366/366 368/368/368
f 365/365/365 366/366/366 370/370/370
f 371/371/371 366/366/366 369/369/369
f 370/370/370 366/366/366 371/371/371
