g DSJ_GTA_daoJu_taDiao
v 5.994994 0.05104113 -3.216774
v -6.203618 4.382973 -3.216774
v 5.994994 4.382973 -3.216774
v -6.203618 0.05104113 -3.216774
v 5.994994 0.05104113 -3.216774
v 5.994994 4.382973 -4.608019
v 5.994994 0.05104113 -4.608019
v 5.994994 4.382973 -3.216774
v -6.203618 0.05104113 -4.608019
v 5.994994 4.382973 -4.608019
v -6.203618 4.382973 -4.608019
v 5.994994 0.05104113 -4.608019
v -6.203618 0.05104113 -4.608019
v -6.203618 4.382973 -3.216774
v -6.203618 0.05104113 -3.216774
v -6.203618 4.382973 -4.608019
v 5.994994 4.382973 -3.216774
v 2.191851 7.331122 -4.608019
v 5.994994 4.382973 -4.608019
v 2.191851 7.331122 -3.216774
v -6.203618 4.382973 -4.608019
v -2.400476 7.331122 -3.216774
v -6.203618 4.382973 -3.216774
v -2.400476 7.331122 -4.608019
v 2.191851 7.331122 -3.216774
v 2.191851 8.332275 -4.608019
v 2.191851 7.331122 -4.608019
v 2.191851 8.332275 -3.767014E-05
v 2.191851 7.331122 -3.767014E-05
v 2.191851 11.7531 -3.767014E-05
v 2.191851 11.7531 -4.608019
v -2.400476 7.331122 -4.608019
v 2.191851 8.332275 -4.608019
v -2.400476 8.332275 -4.608019
v 2.191851 7.331122 -4.608019
v -2.400476 11.7531 -4.608019
v 2.191851 11.7531 -4.608019
v -2.400476 7.331122 -4.608019
v -2.400476 8.332275 -4.608019
v -2.400476 7.331122 -3.216774
v -2.400476 8.332275 -3.767014E-05
v -2.400476 11.7531 -3.767014E-05
v -2.400476 11.7531 -4.608019
v -2.400476 7.331122 -3.767014E-05
v -2.400476 7.331122 -3.216774
v 2.191851 7.331122 -3.767014E-05
v 2.191851 7.331122 -3.216774
v -2.400476 7.331122 -3.767014E-05
v -0.1929307 26.02409 -1.410245
v 1.384282 26.02409 -2.075616
v 1.384282 26.02409 -1.410245
v -0.1929307 26.02409 -2.075616
v -3.54748 20.21645 -1.410245
v 1.384282 26.02409 -1.410245
v 1.384282 20.21645 -1.410245
v -0.1929307 26.02409 -1.410245
v 1.384282 20.21645 -1.410245
v 1.384282 26.02409 -2.075616
v 1.384282 20.21645 -2.075616
v 1.384282 26.02409 -1.410245
v 1.384282 20.21645 -2.075616
v -0.1929307 26.02409 -2.075616
v -3.54748 20.21645 -2.075616
v 1.384282 26.02409 -2.075616
v -3.54748 20.21645 -2.075616
v -0.1929307 26.02409 -1.410245
v -3.54748 20.21645 -1.410245
v -0.1929307 26.02409 -2.075616
v -2.718948 25.9074 -1.889955
v 3.943109 27.69239 -2.506132
v 3.943109 27.69239 -1.889955
v -2.718948 25.9074 -2.506132
v -3.091386 24.70551 -1.889955
v 3.943109 27.69239 -1.889955
v 4.344355 26.51984 -1.889955
v -2.718948 25.9074 -1.889955
v 4.344355 26.51984 -2.506132
v -2.718948 25.9074 -2.506132
v -3.091386 24.70551 -2.506132
v 3.943109 27.69239 -2.506132
v -3.091386 24.70551 -2.506132
v -2.718948 25.9074 -1.889955
v -3.091386 24.70551 -1.889955
v -2.718948 25.9074 -2.506132
v 4.344355 26.51984 -2.506132
v -3.091386 24.70551 -1.889955
v 4.344355 26.51984 -1.889955
v -3.091386 24.70551 -2.506132
v 2.191851 7.331122 -3.216774
v -6.203618 4.382973 -3.216774
v -2.400476 7.331122 -3.216774
v 5.994994 4.382973 -3.216774
v -2.400476 7.331122 -4.608019
v 5.994994 4.382973 -4.608019
v 2.191851 7.331122 -4.608019
v -6.203618 4.382973 -4.608019
v 5.994994 0.05104113 3.216699
v -6.203618 4.382973 3.216699
v -6.203618 0.05104113 3.216699
v 5.994994 4.382973 3.216699
v 5.994994 0.05104113 3.216699
v 5.994994 4.382973 4.607982
v 5.994994 4.382973 3.216699
v 5.994994 0.05104113 4.607982
v -6.203618 0.05104113 4.607982
v 5.994994 4.382973 4.607982
v 5.994994 0.05104113 4.607982
v -6.203618 4.382973 4.607982
v -6.203618 0.05104113 4.607982
v -6.203618 4.382973 3.216699
v -6.203618 4.382973 4.607982
v -6.203618 0.05104113 3.216699
v 5.994994 4.382973 3.216699
v 2.191851 7.331122 4.607982
v 2.191851 7.331122 3.216699
v 5.994994 4.382973 4.607982
v -6.203618 4.382973 4.607982
v -2.400476 7.331122 3.216699
v -2.400476 7.331122 4.607982
v -6.203618 4.382973 3.216699
v 2.191851 7.331122 3.216699
v 2.191851 7.331122 4.607982
v 2.191851 8.332275 4.607982
v 2.191851 8.332275 -3.767014E-05
v 2.191851 7.331122 -3.767014E-05
v 2.191851 11.7531 -3.767014E-05
v 2.191851 11.7531 4.607982
v -2.400476 7.331122 4.607982
v 2.191851 8.332275 4.607982
v 2.191851 7.331122 4.607982
v -2.400476 8.332275 4.607982
v -2.400476 11.7531 4.607982
v 2.191851 11.7531 4.607982
v -2.400476 7.331122 4.607982
v -2.400476 7.331122 3.216699
v -2.400476 8.332275 4.607982
v -2.400476 8.332275 -3.767014E-05
v -2.400476 11.7531 -3.767014E-05
v -2.400476 11.7531 4.607982
v -2.400476 7.331122 -3.767014E-05
v -2.400476 7.331122 3.216699
v 2.191851 7.331122 -3.767014E-05
v -2.400476 7.331122 -3.767014E-05
v 2.191851 7.331122 3.216699
v -0.1929307 26.02409 1.410208
v 1.384282 26.02409 2.075579
v -0.1929307 26.02409 2.075579
v 1.384282 26.02409 1.410208
v -3.54748 20.21645 1.410208
v 1.384282 26.02409 1.410208
v -0.1929307 26.02409 1.410208
v 1.384282 20.21645 1.410208
v 1.384282 20.21645 1.410208
v 1.384282 26.02409 2.075579
v 1.384282 26.02409 1.410208
v 1.384282 20.21645 2.07554
v 1.384282 20.21645 2.07554
v -0.1929307 26.02409 2.075579
v 1.384282 26.02409 2.075579
v -3.54748 20.21645 2.07554
v -3.54748 20.21645 2.07554
v -0.1929307 26.02409 1.410208
v -0.1929307 26.02409 2.075579
v -3.54748 20.21645 1.410208
v -2.718948 25.9074 1.889917
v 3.943109 27.69239 2.506095
v -2.718948 25.9074 2.506095
v 3.943109 27.69239 1.889879
v -3.091386 24.70551 1.889917
v 3.943109 27.69239 1.889879
v -2.718948 25.9074 1.889917
v 4.344355 26.51984 1.889879
v 4.344355 26.51984 2.506095
v -2.718948 25.9074 2.506095
v 3.943109 27.69239 2.506095
v -3.091386 24.70551 2.506095
v -3.091386 24.70551 2.506095
v -2.718948 25.9074 1.889917
v -2.718948 25.9074 2.506095
v -3.091386 24.70551 1.889917
v 4.344355 26.51984 2.506095
v -3.091386 24.70551 1.889917
v -3.091386 24.70551 2.506095
v 4.344355 26.51984 1.889879
v 2.191851 7.331122 3.216699
v -6.203618 4.382973 3.216699
v 5.994994 4.382973 3.216699
v -2.400476 7.331122 3.216699
v -2.400476 7.331122 4.607982
v 5.994994 4.382973 4.607982
v -6.203618 4.382973 4.607982
v 2.191851 7.331122 4.607982
v 5.795409 11.45259 -3.767014E-05
v 2.787027 12.05311 -5.210733
v 2.787027 11.45259 -5.210733
v 5.795409 12.05311 -3.767014E-05
v 2.787027 11.45259 -5.210733
v -3.229737 12.05311 -5.210733
v -3.229737 11.45259 -5.210733
v 2.787027 12.05311 -5.210733
v -3.229737 11.45259 -5.210733
v -6.238158 12.05311 -3.767014E-05
v -6.238158 11.45259 -3.767014E-05
v -3.229737 12.05311 -5.210733
v -6.238158 11.45259 -3.767014E-05
v -3.229737 12.05311 5.210658
v -3.229737 11.45259 5.210658
v -6.238158 12.05311 -3.767014E-05
v -3.229737 11.45259 5.210658
v 2.787027 12.05311 5.210658
v 2.787027 11.45259 5.210658
v -3.229737 12.05311 5.210658
v 2.787027 11.45259 5.210658
v 5.795409 12.05311 -3.767014E-05
v 5.795409 11.45259 -3.767014E-05
v 2.787027 12.05311 5.210658
v -3.229737 11.45259 5.210658
v -3.229737 11.45259 -5.210733
v -6.238158 11.45259 -3.767014E-05
v 5.795409 11.45259 -3.767014E-05
v 2.787027 11.45259 -5.210733
v 2.787027 11.45259 5.210658
v 5.795409 12.05311 -3.767014E-05
v 1.023115 12.05311 -2.155542
v 2.787027 12.05311 -5.210733
v 2.267585 12.05311 -3.767014E-05
v 2.787027 12.05311 -5.210733
v -1.465825 12.05311 -2.155542
v -3.229737 12.05311 -5.210733
v 1.023115 12.05311 -2.155542
v -3.229737 12.05311 -5.210733
v -2.710295 12.05311 -3.767014E-05
v -6.238158 12.05311 -3.767014E-05
v -1.465825 12.05311 -2.155542
v -6.238158 12.05311 -3.767014E-05
v -1.465825 12.05311 2.155466
v -3.229737 12.05311 5.210658
v -2.710295 12.05311 -3.767014E-05
v -3.229737 12.05311 5.210658
v 1.023115 12.05311 2.155466
v 2.787027 12.05311 5.210658
v -1.465825 12.05311 2.155466
v 2.787027 12.05311 5.210658
v 2.267585 12.05311 -3.767014E-05
v 5.795409 12.05311 -3.767014E-05
v 1.023115 12.05311 2.155466
v 2.267585 12.05311 -3.767014E-05
v 1.023115 14.83344 -2.155542
v 1.023115 12.05311 -2.155542
v 2.267585 14.83344 -3.767014E-05
v 1.023115 12.05311 -2.155542
v -1.465825 14.83344 -2.155542
v -1.465825 12.05311 -2.155542
v 1.023115 14.83344 -2.155542
v -1.465825 12.05311 -2.155542
v -2.710295 14.83344 -3.767014E-05
v -2.710295 12.05311 -3.767014E-05
v -1.465825 14.83344 -2.155542
v -2.710295 12.05311 -3.767014E-05
v -1.465825 14.83344 2.155466
v -1.465825 12.05311 2.155466
v -2.710295 14.83344 -3.767014E-05
v -1.465825 12.05311 2.155466
v 1.023115 14.83344 2.155466
v 1.023115 12.05311 2.155466
v -1.465825 14.83344 2.155466
v 1.023115 12.05311 2.155466
v 2.267585 14.83344 -3.767014E-05
v 2.267585 12.05311 -3.767014E-05
v 1.023115 14.83344 2.155466
v 5.474782 27.19852 3.037576
v 4.872683 26.15564 -3.037614
v 4.872683 26.15564 3.037576
v 5.474782 27.19852 -3.037614
v 4.872683 26.15564 3.037576
v 3.668445 26.15564 -3.037614
v 3.668445 26.15564 3.037576
v 4.872683 26.15564 -3.037614
v 3.668445 26.15564 3.037576
v 3.066345 27.19852 -3.037614
v 3.066345 27.19852 3.037576
v 3.668445 26.15564 -3.037614
v 3.066345 27.19852 3.037576
v 3.668445 28.24137 -3.037614
v 3.668445 28.24137 3.037576
v 3.066345 27.19852 -3.037614
v 3.668445 28.24137 3.037576
v 4.872683 28.24137 -3.037614
v 4.872683 28.24137 3.037576
v 3.668445 28.24137 -3.037614
v 4.872683 28.24137 3.037576
v 5.474782 27.19852 -3.037614
v 5.474782 27.19852 3.037576
v 4.872683 28.24137 -3.037614
v 4.872683 28.24137 3.037576
v 3.066345 27.19852 3.037576
v 3.668445 28.24137 3.037576
v 4.872683 26.15564 3.037576
v 3.668445 26.15564 3.037576
v 5.474782 27.19852 3.037576
v 3.668445 26.15564 -3.037614
v 3.668445 28.24137 -3.037614
v 3.066345 27.19852 -3.037614
v 5.474782 27.19852 -3.037614
v 4.872683 28.24137 -3.037614
v 4.872683 26.15564 -3.037614
v -4.519824 14.70036 3.53421
v 6.592939 14.70036 -3.534286
v -4.519824 14.70036 -3.534286
v 6.592939 14.70036 3.53421
v 1.036577 20.56016 3.53421
v -4.519824 20.56016 -3.534286
v 1.036577 20.56016 -3.534286
v -4.519824 20.56016 3.53421
v -4.519824 14.70036 3.53421
v -4.519824 16.03295 3.53421
v 1.036577 16.03295 3.53421
v 6.592939 14.70036 3.53421
v 6.592939 16.03295 3.53421
v 6.592939 14.70036 -3.534286
v 6.592939 16.03295 3.53421
v 6.592939 16.03295 -3.534286
v 6.592939 14.70036 3.53421
v 6.592939 14.70036 -3.534286
v 6.592939 16.03295 -3.534286
v 1.036577 16.03295 -3.534286
v -4.519824 14.70036 -3.534286
v -4.519824 16.03295 -3.534286
v -4.519824 14.70036 3.53421
v -4.519824 16.03295 -3.534286
v -4.519824 16.03295 3.53421
v -4.519824 14.70036 -3.534286
v -3.486247 21.17056 2.770566
v 1.888955 21.17056 -2.770642
v -3.486247 21.17056 -2.770642
v 1.888955 21.17056 2.770566
v -3.486247 21.65051 2.770566
v 1.888955 21.65051 -2.770642
v 1.888955 21.65051 2.770566
v -3.486247 21.65051 -2.770642
v -3.486247 21.17056 2.770566
v 1.888955 21.65051 2.770566
v 1.888955 21.17056 2.770566
v -3.486247 21.65051 2.770566
v 1.888955 21.17056 2.770566
v 1.888955 21.65051 -2.770642
v 1.888955 21.17056 -2.770642
v 1.888955 21.65051 2.770566
v 1.888955 21.17056 -2.770642
v -3.486247 21.65051 -2.770642
v -3.486247 21.17056 -2.770642
v 1.888955 21.65051 -2.770642
v -3.486247 21.17056 -2.770642
v -3.486247 21.65051 2.770566
v -3.486247 21.17056 2.770566
v -3.486247 21.65051 -2.770642
v -16.0026 29.69054 0.8067231
v -4.431898 14.99587 -0.8067603
v -16.0026 29.69054 -0.8067603
v -4.431898 14.99587 0.8067231
v -14.6082 30.24037 0.8067231
v -4.431898 19.85317 -0.8067603
v -4.431898 19.85317 0.8067231
v -14.6082 30.24037 -0.8067603
v -16.0026 29.69054 0.8067231
v -4.431898 19.85317 0.8067231
v -4.431898 14.99587 0.8067231
v -14.6082 30.24037 0.8067231
v -4.431898 14.99587 -0.8067603
v -14.6082 30.24037 -0.8067603
v -16.0026 29.69054 -0.8067603
v -4.431898 19.85317 -0.8067603
v -20.87682 26.07579 1.125889
v -10.72063 32.6535 -1.125965
v -20.87682 26.07579 -1.125965
v -10.72063 32.6535 1.125927
v -22.37469 26.07579 1.125889
v -11.7949 33.67965 -1.125965
v -11.7949 33.67965 1.125927
v -22.37469 26.07579 -1.125965
v -20.87682 26.07579 1.125889
v -11.7949 33.67965 1.125927
v -10.72063 32.6535 1.125927
v -22.37469 26.07579 1.125889
v -10.72063 32.6535 1.125927
v -11.7949 33.67965 -1.125965
v -10.72063 32.6535 -1.125965
v -11.7949 33.67965 1.125927
v -10.72063 32.6535 -1.125965
v -22.37469 26.07579 -1.125965
v -20.87682 26.07579 -1.125965
v -11.7949 33.67965 -1.125965
v -12.38854 31.87466 0.5472517
v 0.4343619 23.9804 -0.5472894
v -12.38854 31.87466 -0.5472894
v 0.4343619 23.9804 0.5472517
v -12.04591 32.55788 0.5472517
v 0.7082186 24.62177 -0.5472894
v 0.7082186 24.62177 0.5472136
v -12.04591 32.55788 -0.5472894
v -12.38854 31.87466 0.5472517
v 0.7082186 24.62177 0.5472136
v 0.4343619 23.9804 0.5472517
v -12.04591 32.55788 0.5472517
v 0.4343619 23.9804 -0.5472894
v -12.04591 32.55788 -0.5472894
v -12.38854 31.87466 -0.5472894
v 0.7082186 24.62177 -0.5472894
v -20.80417 26.9374 0.2963963
v -16.99372 33.12494 -0.2964721
v -20.80417 26.9374 -0.2964721
v -16.99372 33.12494 0.2964349
v -21.93979 26.2653 0.2963963
v -17.15718 33.73838 -0.2964721
v -17.15718 33.73838 0.2963963
v -21.93979 26.2653 -0.2964721
v -20.80417 26.9374 0.2963963
v -17.15718 33.73838 0.2963963
v -16.99372 33.12494 0.2964349
v -17.15718 33.73838 0.2963963
v -20.80417 26.9374 0.2963963
v -21.93979 26.2653 0.2963963
v -16.99372 33.12494 -0.2964721
v -21.93979 26.2653 -0.2964721
v -20.80417 26.9374 -0.2964721
v -21.93979 26.2653 -0.2964721
v -16.99372 33.12494 -0.2964721
v -17.15718 33.73838 -0.2964721
v -16.99372 33.12494 0.2964349
v -12.87268 32.75085 -0.2964721
v -16.99372 33.12494 -0.2964721
v -12.87268 32.75085 0.2964349
v -17.15718 33.73838 -0.2964721
v -12.35216 33.1142 0.2964349
v -17.15718 33.73838 0.2963963
v -12.35216 33.1142 -0.2964721
v -17.15718 33.73838 0.2963963
v -12.87268 32.75085 0.2964349
v -16.99372 33.12494 0.2964349
v -12.35216 33.1142 0.2964349
v -16.99372 33.12494 -0.2964721
v -12.35216 33.1142 -0.2964721
v -17.15718 33.73838 -0.2964721
v -12.87268 32.75085 -0.2964721
v -18.63293 26.44145 -1.311703
v -18.63293 25.66469 1.327204
v -18.63293 26.44145 1.327204
v -18.63293 25.66469 -1.311703
v -23.22953 25.66469 -1.311703
v -18.63293 26.44145 -1.311703
v -23.22953 26.44145 -1.311664
v -18.63293 25.66469 -1.311703
v -18.63293 25.66469 1.327204
v -23.22953 25.66469 -1.311703
v -23.22953 25.66469 1.327204
v -18.63293 25.66469 -1.311703
v -23.22953 26.44145 1.327204
v -23.22953 25.66469 -1.311703
v -23.22953 26.44145 -1.311664
v -23.22953 25.66469 1.327204
v -23.22953 26.44145 1.327204
v -18.63293 25.66469 1.327204
v -23.22953 25.66469 1.327204
v -18.63293 26.44145 1.327204
v -20.75966 21.6357 -3.392627
v -20.95609 21.95321 -3.392627
v -20.75966 21.95321 -3.392627
v -20.95609 21.6357 -3.392627
v -20.75966 21.95321 -3.510516
v -20.95609 21.6357 -3.510516
v -20.75966 21.6357 -3.510516
v -20.95609 21.95321 -3.510516
v -20.95609 21.95321 -3.510516
v -20.95609 21.6357 -3.392627
v -20.95609 21.6357 -3.510516
v -20.95609 21.95321 -3.392627
v -20.75966 21.6357 -3.392627
v -20.75966 21.95321 -3.510516
v -20.75966 21.6357 -3.510516
v -20.75966 21.95321 -3.392627
v -20.75966 21.6357 -3.392627
v -20.95609 21.6357 -3.510516
v -20.95609 21.6357 -3.392627
v -20.75966 21.6357 -3.510516
v -20.7597 21.95321 -3.392627
v -22.21049 22.17572 -3.392627
v -20.7597 22.17572 -3.392627
v -22.21049 21.95321 -3.392627
v -20.7597 22.17572 -3.392627
v -22.21049 22.17572 -3.510516
v -20.7597 22.17572 -3.510516
v -22.21049 22.17572 -3.392627
v -20.7597 22.17572 -3.510516
v -22.21049 21.95321 -3.510516
v -20.7597 21.95321 -3.510516
v -22.21049 22.17572 -3.510516
v -22.21049 21.95321 -3.392627
v -20.7597 21.95321 -3.510516
v -22.21049 21.95321 -3.510516
v -20.7597 21.95321 -3.392627
v -22.21049 22.17572 -3.510516
v -22.21049 21.95321 -3.392627
v -22.21049 21.95321 -3.510516
v -22.21049 22.17572 -3.392627
v -20.7597 21.95321 -3.392627
v -20.7597 22.17572 -3.510516
v -20.7597 21.95321 -3.510516
v -20.7597 22.17572 -3.392627
v -22.0141 21.6357 -3.392627
v -22.21049 21.95321 -3.392627
v -22.0141 21.95321 -3.392627
v -22.21049 21.6357 -3.392627
v -22.0141 21.95321 -3.510516
v -22.21049 21.6357 -3.510516
v -22.0141 21.6357 -3.510516
v -22.21049 21.95321 -3.510516
v -22.21049 21.95321 -3.510516
v -22.21049 21.6357 -3.392627
v -22.21049 21.6357 -3.510516
v -22.21049 21.95321 -3.392627
v -22.0141 21.6357 -3.392627
v -22.0141 21.95321 -3.510516
v -22.0141 21.6357 -3.510516
v -22.0141 21.95321 -3.392627
v -22.0141 21.6357 -3.392627
v -22.21049 21.6357 -3.510516
v -22.21049 21.6357 -3.392627
v -22.0141 21.6357 -3.510516
v -21.0201 22.03741 1.213277
v -21.95009 22.54919 1.213277
v -21.0201 22.54919 1.213277
v -21.95009 22.03741 1.213277
v -21.73116 22.72259 1.213277
v -21.23903 22.72259 1.213277
v -21.73116 22.72259 1.213277
v -21.23903 22.72259 -1.201121
v -21.23903 22.72259 1.213277
v -21.73116 22.72259 -1.201121
v -21.0201 22.54919 -1.201121
v -21.0201 22.54919 1.213277
v -21.95009 22.03741 1.213277
v -21.95009 22.54919 -1.201121
v -21.95009 22.54919 1.213277
v -21.95009 22.03741 -1.201121
v -21.0201 22.03741 -1.201121
v -21.95009 22.54919 -1.201121
v -21.95009 22.03741 -1.201121
v -21.0201 22.54919 -1.201121
v -21.73116 22.72259 -1.201121
v -21.23903 22.72259 -1.201121
v -21.95009 22.03741 1.213277
v -21.0201 22.03741 -1.201121
v -21.95009 22.03741 -1.201121
v -21.0201 22.03741 1.213277
v -21.0201 22.03741 1.213277
v -21.0201 22.54919 -1.201121
v -21.0201 22.03741 -1.201121
v -21.0201 22.54919 1.213277
v -21.73116 22.72259 1.213277
v -21.95009 22.54919 -1.201121
v -21.73116 22.72259 -1.201121
v -21.95009 22.54919 1.213277
v -21.25722 22.8347 1.117581
v -21.21745 25.69073 1.129043
v -21.23764 25.69254 1.117581
v -21.2283 22.8194 1.129043
v -21.30895 22.69247 1.117581
v -21.28876 22.66516 1.129043
v -21.44861 22.63124 1.117543
v -21.44757 22.60112 1.12912
v -21.58873 22.68382 1.117581
v -21.60439 22.65528 1.129158
v -21.68343 22.81343 1.129158
v -21.65335 22.82282 1.117543
v -21.67389 25.67446 1.129158
v -21.65266 25.67773 1.117543
v -21.25722 22.8347 1.140659
v -21.21745 25.69073 1.129043
v -21.2283 22.8194 1.129043
v -21.23768 25.69254 1.140659
v -21.30892 22.69247 1.140659
v -21.28876 22.66516 1.129043
v -21.44757 22.60112 1.12912
v -21.44861 22.63124 1.140659
v -21.60439 22.65528 1.129158
v -21.58873 22.68382 1.140659
v -21.68343 22.81343 1.129158
v -21.65339 22.82282 1.140659
v -21.67389 25.67446 1.129158
v -21.65266 25.67773 1.140659
v -21.25722 22.8347 1.140659
v -21.23764 25.69254 1.117581
v -21.23768 25.69254 1.140659
v -21.25722 22.8347 1.117581
v -21.30892 22.69247 1.140659
v -21.30895 22.69247 1.117581
v -21.30895 22.69247 1.117581
v -21.44861 22.63124 1.140659
v -21.44861 22.63124 1.117543
v -21.30892 22.69247 1.140659
v -21.58873 22.68382 1.140659
v -21.58873 22.68382 1.117581
v -21.65339 22.82282 1.140659
v -21.65335 22.82282 1.117543
v -21.65266 25.67773 1.140659
v -21.65266 25.67773 1.117543
v -21.25634 22.83467 -1.127465
v -21.21664 25.69031 -1.115926
v -21.23684 25.69212 -1.127465
v -21.22741 22.81936 -1.115926
v -21.30811 22.69205 -1.127427
v -21.28795 22.66478 -1.115926
v -21.44781 22.63085 -1.127465
v -21.44677 22.60069 -1.115888
v -21.58793 22.68339 -1.127465
v -21.60358 22.65485 -1.11581
v -21.68312 22.81255 -1.11581
v -21.65304 22.82193 -1.127465
v -21.67308 25.67408 -1.11581
v -21.65185 25.67731 -1.127465
v -21.25634 22.83467 -1.104349
v -21.21664 25.69031 -1.115926
v -21.22741 22.81936 -1.115926
v -21.23684 25.69212 -1.104349
v -21.30811 22.69205 -1.104349
v -21.28795 22.66478 -1.115926
v -21.44677 22.60069 -1.115888
v -21.44781 22.63085 -1.104349
v -21.60358 22.65485 -1.11581
v -21.58793 22.68339 -1.104349
v -21.68312 22.81255 -1.11581
v -21.65304 22.82193 -1.104349
v -21.67308 25.67408 -1.11581
v -21.65185 25.67731 -1.104349
v -21.25634 22.83467 -1.104349
v -21.23684 25.69212 -1.127465
v -21.23684 25.69212 -1.104349
v -21.25634 22.83467 -1.127465
v -21.30811 22.69205 -1.104349
v -21.30811 22.69205 -1.127427
v -21.30811 22.69205 -1.127427
v -21.44781 22.63085 -1.104349
v -21.44781 22.63085 -1.127465
v -21.30811 22.69205 -1.104349
v -21.58793 22.68339 -1.104349
v -21.58793 22.68339 -1.127465
v -21.65304 22.82193 -1.104349
v -21.65304 22.82193 -1.127465
v -21.65185 25.67731 -1.104349
v -21.65185 25.67731 -1.127465
v -21.46596 22.17572 -3.510554
v -21.55342 22.28161 -3.510554
v -21.55342 22.17572 -3.510554
v -21.46596 22.28161 -3.510554
v -21.46596 22.28161 -3.510554
v -21.55342 22.44654 -3.189158
v -21.55342 22.28161 -3.510554
v -21.46596 22.44654 -3.189158
v -21.55342 22.44654 3.205891
v -21.46596 22.44654 3.205891
v -21.46596 22.28161 3.510479
v -21.55342 22.28161 3.510479
v -21.55342 22.17572 -3.510554
v -21.55342 22.28161 -3.510554
v -21.55342 22.44654 -3.189158
v -21.55342 22.17572 3.510479
v -21.55342 22.44654 3.205891
v -21.55342 22.28161 3.510479
v -21.46596 22.17572 -3.510554
v -21.46596 22.44654 -3.189158
v -21.46596 22.28161 -3.510554
v -21.46596 22.44654 3.205891
v -21.46596 22.17572 3.510479
v -21.46596 22.28161 3.510479
v -21.55342 22.17572 -3.510554
v -21.46596 22.17572 3.510479
v -21.46596 22.17572 -3.510554
v -21.55342 22.17572 3.510479
v -21.46596 22.17572 3.510479
v -21.55342 22.28161 3.510479
v -21.46596 22.28161 3.510479
v -21.55342 22.17572 3.510479
v -20.75966 21.6357 3.510479
v -20.95609 21.95321 3.510479
v -20.75966 21.95321 3.510479
v -20.95609 21.6357 3.510479
v -20.75966 21.95321 3.398744
v -20.95609 21.6357 3.398744
v -20.75966 21.6357 3.398744
v -20.95609 21.95321 3.398744
v -20.95609 21.95321 3.398744
v -20.95609 21.6357 3.510479
v -20.95609 21.6357 3.398744
v -20.95609 21.95321 3.510479
v -20.75966 21.6357 3.510479
v -20.75966 21.95321 3.398744
v -20.75966 21.6357 3.398744
v -20.75966 21.95321 3.510479
v -20.75966 21.6357 3.510479
v -20.95609 21.6357 3.398744
v -20.95609 21.6357 3.510479
v -20.75966 21.6357 3.398744
v -20.7597 21.95321 3.510479
v -22.21049 22.17572 3.510479
v -20.7597 22.17572 3.510479
v -22.21049 21.95321 3.510479
v -20.7597 22.17572 3.510479
v -22.21049 22.17572 3.398744
v -20.7597 22.17572 3.398705
v -22.21049 22.17572 3.510479
v -20.7597 22.17572 3.398705
v -22.21049 21.95321 3.398744
v -20.7597 21.95321 3.398705
v -22.21049 22.17572 3.398744
v -22.21049 21.95321 3.510479
v -20.7597 21.95321 3.398705
v -22.21049 21.95321 3.398744
v -20.7597 21.95321 3.510479
v -22.21049 22.17572 3.398744
v -22.21049 21.95321 3.510479
v -22.21049 21.95321 3.398744
v -22.21049 22.17572 3.510479
v -20.7597 21.95321 3.510479
v -20.7597 22.17572 3.398705
v -20.7597 21.95321 3.398705
v -20.7597 22.17572 3.510479
v -22.0141 21.6357 3.510479
v -22.21049 21.95321 3.510479
v -22.0141 21.95321 3.510479
v -22.21049 21.6357 3.510479
v -22.0141 21.95321 3.398705
v -22.21049 21.6357 3.398744
v -22.0141 21.6357 3.398744
v -22.21049 21.95321 3.398705
v -22.21049 21.95321 3.398705
v -22.21049 21.6357 3.510479
v -22.21049 21.6357 3.398744
v -22.21049 21.95321 3.510479
v -22.0141 21.6357 3.510479
v -22.0141 21.95321 3.398705
v -22.0141 21.6357 3.398744
v -22.0141 21.95321 3.510479
v -22.0141 21.6357 3.510479
v -22.21049 21.6357 3.398744
v -22.21049 21.6357 3.510479
v -22.0141 21.6357 3.398744
v -17.20845 33.01685 0.1645837
v -15.91352 30.81893 -0.1646595
v -17.20845 33.01685 -0.1646595
v -15.91352 30.81893 0.1645837
v -16.84086 33.25625 0.1645837
v -15.33781 31.08644 -0.1646595
v -15.33781 31.08644 0.1645837
v -16.84086 33.25625 -0.1646595
v -17.20845 33.01685 0.1645837
v -15.33781 31.08644 0.1645837
v -15.91352 30.81893 0.1645837
v -16.84086 33.25625 0.1645837
v -15.91352 30.81893 -0.1646595
v -16.84086 33.25625 -0.1646595
v -17.20845 33.01685 -0.1646595
v -15.33781 31.08644 -0.1646595
v 5.579863 19.54704 3.53421
v 2.049654 17.04606 3.53421
v 2.049654 19.54704 3.53421
v 5.579863 17.04606 3.53421
v 6.592939 20.56016 -3.534286
v 6.592939 16.03295 3.53421
v 6.592939 20.56016 3.53421
v 6.592939 16.03295 -3.534286
v -3.506709 19.54708 -3.534286
v 0.02346182 17.04606 -3.534286
v 0.02346182 19.54708 -3.534286
v -3.506709 17.04606 -3.534286
v -4.519824 20.56016 3.53421
v -4.519824 16.03295 -3.534286
v -4.519824 20.56016 -3.534286
v -4.519824 16.03295 3.53421
v 6.592939 20.56016 3.53421
v 1.036577 20.56016 -3.534286
v 6.592939 20.56016 -3.534286
v 1.036577 20.56016 3.53421
v -3.506709 19.54704 3.53421
v 0.02346182 17.04606 3.53421
v -3.506709 17.04606 3.53421
v 0.02346182 19.54704 3.53421
v 5.579863 19.54708 -3.534286
v 2.049654 17.04606 -3.534286
v 5.579863 17.04606 -3.534286
v 2.049654 19.54708 -3.534286
v 6.592939 16.03295 3.53421
v 5.579863 19.54704 3.53421
v 6.592939 20.56016 3.53421
v 5.579863 17.04606 3.53421
v 2.049654 19.54704 3.53421
v 1.036577 20.56016 3.53421
v 2.049654 17.04606 3.53421
v 1.036577 16.03295 3.53421
v -4.519824 16.03295 -3.534286
v -3.506709 19.54708 -3.534286
v -4.519824 20.56016 -3.534286
v -3.506709 17.04606 -3.534286
v 0.02346182 19.54708 -3.534286
v 1.036577 20.56016 -3.534286
v 0.02346182 17.04606 -3.534286
v 1.036577 16.03295 -3.534286
v 1.036577 20.56016 3.53421
v -3.506709 19.54704 3.53421
v -4.519824 20.56016 3.53421
v 0.02346182 19.54704 3.53421
v -3.506709 17.04606 3.53421
v -4.519824 16.03295 3.53421
v 0.02346182 17.04606 3.53421
v 1.036577 16.03295 3.53421
v 1.036577 20.56016 -3.534286
v 5.579863 19.54708 -3.534286
v 6.592939 20.56016 -3.534286
v 2.049654 19.54708 -3.534286
v 5.579863 17.04606 -3.534286
v 6.592939 16.03295 -3.534286
v 2.049654 17.04606 -3.534286
v 1.036577 16.03295 -3.534286
v -6.704867 15.59924 -1.187582
v -4.441744 15.59924 -3.275892
v -6.704867 15.59924 -3.275892
v -4.441744 15.59924 -1.187582
v -7.424895 18.27373 -1.187582
v -4.441744 18.27373 -3.275892
v -4.441744 18.27373 -1.187582
v -7.424895 18.27373 -3.275892
v -6.704867 15.59924 -1.187582
v -4.441744 18.27373 -1.187582
v -4.441744 15.59924 -1.187582
v -7.424895 18.27373 -1.187582
v -4.441744 15.59924 -3.275892
v -7.424895 18.27373 -3.275892
v -6.704867 15.59924 -3.275892
v -4.441744 18.27373 -3.275892
v -6.704867 15.59924 -3.275892
v -7.424895 18.27373 -1.187582
v -6.704867 15.59924 -1.187582
v -7.424895 18.27373 -3.275892
v -1.832223 23.9524 2.770566
v 1.888955 23.9524 -2.770603
v -1.832223 23.9524 -2.770603
v 1.888955 23.9524 2.770566
v -1.832223 24.43238 2.770566
v 1.888955 24.43238 -2.770603
v 1.888955 24.43238 2.770566
v -1.832223 24.43238 -2.770603
v -1.832223 23.9524 2.770566
v 1.888955 24.43238 2.770566
v 1.888955 23.9524 2.770566
v -1.832223 24.43238 2.770566
v 1.888955 23.9524 2.770566
v 1.888955 24.43238 -2.770603
v 1.888955 23.9524 -2.770603
v 1.888955 24.43238 2.770566
v 1.888955 23.9524 -2.770603
v -1.832223 24.43238 -2.770603
v -1.832223 23.9524 -2.770603
v 1.888955 24.43238 -2.770603
v -1.832223 23.9524 -2.770603
v -1.832223 24.43238 2.770566
v -1.832223 23.9524 2.770566
v -1.832223 24.43238 -2.770603
v 0.1816602 25.73408 1.999191
v 1.733564 26.14994 -1.999267
v 0.1816602 25.73408 -1.999267
v 1.733564 26.14994 1.999191
v 0.0015378 26.40626 1.999191
v 1.553481 26.82208 -1.999267
v 1.553481 26.82208 1.999191
v 0.0015378 26.40626 -1.999267
v 1.733564 26.14994 1.999191
v 1.553481 26.82208 -1.999267
v 1.733564 26.14994 -1.999267
v 1.553481 26.82208 1.999191
v 0.1816602 25.73408 -1.999267
v 0.0015378 26.40626 1.999191
v 0.1816602 25.73408 1.999191
v 0.0015378 26.40626 -1.999267
vt 0.5913998 0.03822111
vt 0.5246377 0.09196165
vt 0.5913998 0.09196165
vt 0.5246377 0.03822111
vt 0.8502537 0.2680244
vt 0.81376 0.3504395
vt 0.81376 0.2680244
vt 0.8502537 0.3504395
vt 0.5912645 0.03398081
vt 0.5242618 0.08924004
vt 0.5912645 0.08924004
vt 0.5242618 0.03398081
vt 0.8502537 0.2680244
vt 0.81376 0.3504395
vt 0.81376 0.2680244
vt 0.8502537 0.3504395
vt 0.8502537 0.3504395
vt 0.81376 0.1799855
vt 0.81376 0.3504395
vt 0.8502537 0.1799855
vt 0.8502537 0.3504395
vt 0.81376 0.1799855
vt 0.81376 0.3504395
vt 0.8502537 0.1799855
vt 0.6495762 0.2267491
vt 0.6876336 0.250988
vt 0.6876336 0.2267491
vt 0.5602893 0.250988
vt 0.5602893 0.2267491
vt 0.5602893 0.2752118
vt 0.6876336 0.2752118
vt 0.6876336 0.2267491
vt 0.5602893 0.250988
vt 0.6876336 0.250988
vt 0.5602893 0.2267491
vt 0.6876336 0.2752118
vt 0.5602893 0.2752118
vt 0.5602893 0.2267491
vt 0.5792654 0.250988
vt 0.5982415 0.2267491
vt 0.6876336 0.250988
vt 0.6876336 0.2752118
vt 0.5602893 0.2752118
vt 0.6876336 0.2267491
vt 0.856163 0.3982256
vt 0.9163392 0.517781
vt 0.9163392 0.3982256
vt 0.856163 0.517781
vt 0.62027 0.1864813
vt 0.8026481 0.203653
vt 0.8026481 0.1864813
vt 0.62027 0.203653
vt 0.8190078 0.4280581
vt 0.9951457 0.5198711
vt 0.8190078 0.5198711
vt 0.9951457 0.491392
vt 0.6223902 0.1864813
vt 0.8026481 0.203653
vt 0.6223902 0.203653
vt 0.8026481 0.1864813
vt 0.8190078 0.5198711
vt 0.9951457 0.491392
vt 0.8190078 0.4280581
vt 0.9951457 0.5198711
vt 0.8040765 0.203653
vt 0.62027 0.1864813
vt 0.8040765 0.1864813
vt 0.62027 0.203653
vt 0.4548983 0.05970831
vt 0.5046843 0.04071717
vt 0.5046843 0.05970831
vt 0.4548983 0.04071717
vt 0.5581241 0.2289294
vt 0.7902279 0.241124
vt 0.7981822 0.2289294
vt 0.5745139 0.241124
vt 0.7981822 0.2289294
vt 0.5745139 0.241124
vt 0.5581241 0.2289294
vt 0.7902279 0.241124
vt 0.5048196 0.04071717
vt 0.4548983 0.05970831
vt 0.5048196 0.05970831
vt 0.4548983 0.04071717
vt 0.4544021 0.04071717
vt 0.5048196 0.05970831
vt 0.4544021 0.05970831
vt 0.5048196 0.04071717
vt 0.9202638 0.3034955
vt 0.8656812 0.5233596
vt 0.9202638 0.4043906
vt 0.8656812 0.1845265
vt 0.9194518 0.3046233
vt 0.8633355 0.5252843
vt 0.9194518 0.4058792
vt 0.8633355 0.1852182
vt 0.5913998 0.03822111
vt 0.5246377 0.09196165
vt 0.5246377 0.03822111
vt 0.5913998 0.09196165
vt 0.8502537 0.2680244
vt 0.81376 0.3504395
vt 0.8502537 0.3504395
vt 0.81376 0.2680244
vt 0.5912645 0.03398081
vt 0.5242618 0.08924004
vt 0.5242618 0.03398081
vt 0.5912645 0.08924004
vt 0.8502537 0.2680244
vt 0.81376 0.3504395
vt 0.8502537 0.3504395
vt 0.81376 0.2680244
vt 0.8502537 0.3504395
vt 0.81376 0.1799855
vt 0.8502537 0.1799855
vt 0.81376 0.3504395
vt 0.8502537 0.3504395
vt 0.81376 0.1799855
vt 0.8502537 0.1799855
vt 0.81376 0.3504395
vt 0.6495762 0.2267491
vt 0.6876336 0.2267491
vt 0.6876336 0.250988
vt 0.5602893 0.250988
vt 0.5602893 0.2267491
vt 0.5602893 0.2752118
vt 0.6876336 0.2752118
vt 0.6876336 0.2267491
vt 0.5602893 0.250988
vt 0.5602893 0.2267491
vt 0.6876336 0.250988
vt 0.6876336 0.2752118
vt 0.5602893 0.2752118
vt 0.5602893 0.2267491
vt 0.5982415 0.2267491
vt 0.5792654 0.250988
vt 0.6876336 0.250988
vt 0.6876336 0.2752118
vt 0.5602893 0.2752118
vt 0.6876336 0.2267491
vt 0.856163 0.3982256
vt 0.9163392 0.517781
vt 0.856163 0.517781
vt 0.9163392 0.3982256
vt 0.62027 0.1864813
vt 0.8026481 0.203653
vt 0.62027 0.203653
vt 0.8026481 0.1864813
vt 0.8190078 0.4280581
vt 0.9951457 0.5198711
vt 0.9951457 0.491392
vt 0.8190078 0.5198711
vt 0.6223902 0.1864813
vt 0.8026481 0.203653
vt 0.8026481 0.1864813
vt 0.6223902 0.203653
vt 0.8190078 0.5198711
vt 0.9951457 0.491392
vt 0.9951457 0.5198711
vt 0.8190078 0.4280581
vt 0.8040765 0.203653
vt 0.62027 0.1864813
vt 0.62027 0.203653
vt 0.8040765 0.1864813
vt 0.4548983 0.05970831
vt 0.5046843 0.04071717
vt 0.4548983 0.04071717
vt 0.5046843 0.05970831
vt 0.5581241 0.2289294
vt 0.7902279 0.241124
vt 0.5745139 0.241124
vt 0.7981822 0.2289294
vt 0.7981822 0.2289294
vt 0.5745139 0.241124
vt 0.7902279 0.241124
vt 0.5581241 0.2289294
vt 0.5048196 0.04071717
vt 0.4548983 0.05970831
vt 0.4548983 0.04071717
vt 0.5048196 0.05970831
vt 0.4544021 0.04071717
vt 0.5048196 0.05970831
vt 0.5048196 0.04071717
vt 0.4544021 0.05970831
vt 0.9202638 0.3034955
vt 0.8656812 0.5233596
vt 0.8656812 0.1845265
vt 0.9202638 0.4043906
vt 0.9194518 0.3046233
vt 0.8633355 0.5252843
vt 0.8633355 0.1852182
vt 0.9194518 0.4058792
vt 0.9890258 0.09579597
vt 0.6320286 0.06531693
vt 0.6320286 0.09579597
vt 0.9890108 0.06531693
vt 0.6320286 0.09579597
vt 0.9890108 0.06531693
vt 0.9890258 0.09579597
vt 0.6320286 0.06531693
vt 0.9890258 0.09579597
vt 0.6320286 0.06531693
vt 0.6320286 0.09579597
vt 0.9890108 0.06531693
vt 0.6320286 0.09579597
vt 0.9890108 0.06531693
vt 0.9890258 0.09579597
vt 0.6320286 0.06531693
vt 0.9890258 0.09579597
vt 0.6320286 0.06531693
vt 0.6320286 0.09579597
vt 0.9890108 0.06531693
vt 0.6320286 0.09579597
vt 0.9890108 0.06531693
vt 0.9890258 0.09579597
vt 0.6320286 0.06531693
vt 0.7909797 0.1021865
vt 0.7587414 0.1021865
vt 0.7748606 0.09606662
vt 0.7748606 0.1205461
vt 0.7587414 0.1144262
vt 0.7909797 0.1144262
vt 0.9050317 0.4080445
vt 0.8602831 0.4782651
vt 0.9050317 0.5064135
vt 0.8602831 0.4373657
vt 0.9050317 0.5064135
vt 0.8602831 0.4373657
vt 0.9050317 0.4080445
vt 0.8602831 0.4782651
vt 0.9050317 0.4080445
vt 0.8602831 0.4782651
vt 0.9050317 0.5064135
vt 0.8602831 0.4373657
vt 0.9050317 0.5064135
vt 0.8602831 0.4373657
vt 0.9050317 0.4080445
vt 0.8602831 0.4782651
vt 0.9050317 0.4080445
vt 0.8602831 0.4782651
vt 0.9050317 0.5064135
vt 0.8602831 0.4373657
vt 0.9050317 0.5064135
vt 0.8602831 0.4373657
vt 0.9050317 0.4080445
vt 0.8602831 0.4782651
vt 0.5066239 0.106938
vt 0.6063762 0.158784
vt 0.5066239 0.158784
vt 0.6063762 0.106938
vt 0.5066239 0.158784
vt 0.6063762 0.106938
vt 0.5066239 0.106938
vt 0.6063762 0.158784
vt 0.5066239 0.106938
vt 0.6063762 0.158784
vt 0.5066239 0.158784
vt 0.6063762 0.106938
vt 0.5066239 0.158784
vt 0.6063762 0.106938
vt 0.5066239 0.106938
vt 0.6063762 0.158784
vt 0.5066239 0.106938
vt 0.6063762 0.158784
vt 0.5066239 0.158784
vt 0.6063762 0.106938
vt 0.5066239 0.158784
vt 0.6063762 0.106938
vt 0.5066239 0.106938
vt 0.6063762 0.158784
vt 0.5123378 0.3330573
vt 0.7594331 0.2835421
vt 0.5123378 0.2835421
vt 0.7594331 0.3330573
vt 0.5123378 0.2835421
vt 0.7594331 0.3330573
vt 0.5123378 0.3330573
vt 0.7594331 0.2835421
vt 0.5123378 0.3330573
vt 0.7594331 0.2835421
vt 0.5123378 0.2835421
vt 0.7594331 0.3330573
vt 0.5123378 0.2835421
vt 0.7594331 0.3330573
vt 0.5123378 0.3330573
vt 0.7594331 0.2835421
vt 0.5123378 0.3330573
vt 0.7594331 0.2835421
vt 0.5123378 0.2835421
vt 0.7594331 0.3330573
vt 0.5123378 0.2835421
vt 0.7594331 0.3330573
vt 0.5123378 0.3330573
vt 0.7594331 0.2835421
vt 0.6788072 0.1440331
vt 0.6538165 0.1183207
vt 0.6788072 0.1268915
vt 0.6288258 0.1440331
vt 0.6288258 0.1268915
vt 0.6538165 0.152604
vt 0.6288258 0.1268915
vt 0.6788072 0.1268915
vt 0.6538165 0.1183207
vt 0.6538165 0.152604
vt 0.6788072 0.1440331
vt 0.6288258 0.1440331
vt 0.918745 0.3952484
vt 0.8613807 0.5380052
vt 0.918745 0.5380052
vt 0.8613807 0.3952484
vt 0.5076314 0.01426792
vt 0.4509136 0.07223374
vt 0.4509136 0.01426792
vt 0.5076314 0.07223374
vt 0.5565903 0.2262078
vt 0.5565903 0.2759787
vt 0.6810026 0.2759787
vt 0.8054147 0.2262078
vt 0.8054147 0.2759787
vt 0.5565903 0.2262078
vt 0.8054147 0.2759787
vt 0.5565903 0.2759787
vt 0.8054147 0.2262078
vt 0.5565903 0.2262078
vt 0.5565903 0.2759787
vt 0.6810026 0.2759787
vt 0.8054147 0.2262078
vt 0.8054147 0.2759787
vt 0.5565903 0.2262078
vt 0.8054147 0.2759787
vt 0.5565903 0.2759787
vt 0.8054147 0.2262078
vt 0.9867703 0.4566125
vt 0.8568397 0.5528462
vt 0.9867703 0.5528462
vt 0.8568397 0.4566125
vt 0.8568397 0.4566125
vt 0.9867703 0.5528462
vt 0.9867703 0.4566125
vt 0.8568397 0.5528462
vt 0.9948299 0.1115091
vt 0.7036024 0.153446
vt 0.7036024 0.1115091
vt 0.9948299 0.153446
vt 0.7036024 0.1115091
vt 0.9948299 0.153446
vt 0.9948299 0.1115091
vt 0.7036024 0.153446
vt 0.9948299 0.1115091
vt 0.7036024 0.153446
vt 0.7036024 0.1115091
vt 0.9948299 0.153446
vt 0.7036024 0.1115091
vt 0.9948299 0.153446
vt 0.9948299 0.1115091
vt 0.7036024 0.153446
vt 0.920745 0.5459746
vt 0.8626438 0.1889322
vt 0.8626438 0.5459746
vt 0.920745 0.1889322
vt 0.920745 0.1889322
vt 0.8626438 0.5459746
vt 0.920745 0.5459746
vt 0.8626438 0.1889322
vt 0.8336534 0.523946
vt 0.9061444 0.2602505
vt 0.8336534 0.1824365
vt 0.8742219 0.5199614
vt 0.8336534 0.1824365
vt 0.8742219 0.5199614
vt 0.8336534 0.523946
vt 0.9061444 0.2602505
vt 0.6206008 0.1692494
vt 0.8027683 0.2159078
vt 0.6206008 0.2159078
vt 0.8027683 0.1692494
vt 0.6206008 0.2159078
vt 0.8027683 0.1692494
vt 0.8027683 0.2159078
vt 0.6206008 0.1692494
vt 0.6206008 0.1692494
vt 0.8027683 0.2159078
vt 0.8027683 0.1692494
vt 0.6206008 0.2159078
vt 0.8900403 0.4653637
vt 0.9283534 0.5224875
vt 0.9283534 0.4653637
vt 0.8900403 0.5224875
vt 0.8027683 0.2159078
vt 0.6206008 0.1692494
vt 0.6206008 0.2159078
vt 0.8027683 0.1692494
vt 0.8010091 0.1615658
vt 0.612466 0.1718507
vt 0.8010091 0.1718507
vt 0.612466 0.1615658
vt 0.8010091 0.2023147
vt 0.612466 0.1897743
vt 0.612466 0.2023147
vt 0.8010091 0.1897743
vt 0.8010091 0.1987962
vt 0.612466 0.216419
vt 0.612466 0.1987962
vt 0.8010091 0.216419
vt 0.612466 0.216419
vt 0.8010091 0.1987962
vt 0.8010091 0.216419
vt 0.612466 0.1987962
vt 0.8938897 0.1857294
vt 0.9856576 0.554816
vt 0.9856576 0.1857294
vt 0.8938897 0.554816
vt 0.9856576 0.1857294
vt 0.8938897 0.554816
vt 0.9856576 0.554816
vt 0.8938897 0.1857294
vt 0.8938897 0.1857294
vt 0.9856576 0.554816
vt 0.8938897 0.554816
vt 0.9856576 0.554816
vt 0.8938897 0.1857294
vt 0.9856576 0.1857294
vt 0.9856576 0.554816
vt 0.8938897 0.1857294
vt 0.9856576 0.1857294
vt 0.8938897 0.1857294
vt 0.9856576 0.554816
vt 0.8938897 0.554816
vt 0.8938897 0.554816
vt 0.9856576 0.1857294
vt 0.9856576 0.554816
vt 0.8938897 0.1857294
vt 0.8938897 0.554816
vt 0.9856576 0.1857294
vt 0.9856576 0.554816
vt 0.8938897 0.1857294
vt 0.9856576 0.554816
vt 0.8938897 0.1857294
vt 0.8938897 0.554816
vt 0.9856576 0.1857294
vt 0.9856576 0.554816
vt 0.8938897 0.1857294
vt 0.8938897 0.554816
vt 0.9856576 0.1857294
vt 0.5065337 0.1368457
vt 0.603384 0.1394771
vt 0.603384 0.1368457
vt 0.5065337 0.1394771
vt 0.5282314 0.09728459
vt 0.5845131 0.1822861
vt 0.5845131 0.09728459
vt 0.5282314 0.1822861
vt 0.603384 0.09627715
vt 0.5065337 0.1364547
vt 0.603384 0.1364547
vt 0.5065337 0.09627715
vt 0.2469582 0.1092837
vt 0.2495896 0.01243347
vt 0.2469582 0.01243347
vt 0.2495896 0.1092837
vt 0.5282314 0.09728459
vt 0.5845131 0.1822861
vt 0.5845131 0.09728459
vt 0.5282314 0.1822861
vt 0.4720249 0.04294258
vt 0.4842196 0.01270412
vt 0.4720249 0.01270412
vt 0.4842196 0.04294258
vt 0.5033761 0.01270412
vt 0.4911664 0.04294258
vt 0.5033761 0.04294258
vt 0.4911664 0.01270412
vt 0.4911664 0.01270412
vt 0.4842196 0.04294258
vt 0.4911664 0.04294258
vt 0.4842196 0.01270412
vt 0.4720249 0.04294258
vt 0.4650781 0.01270412
vt 0.4650781 0.04294258
vt 0.4720249 0.01270412
vt 0.4713633 0.05608451
vt 0.483573 0.06673037
vt 0.483573 0.05608451
vt 0.4713633 0.06673037
vt 0.2812715 0.04385981
vt 0.4206 0.01109522
vt 0.2812715 0.01109522
vt 0.4206 0.04385981
vt 0.2814069 0.061227
vt 0.4207353 0.044762
vt 0.2814069 0.044762
vt 0.4207353 0.061227
vt 0.2812715 0.04385981
vt 0.4206 0.01109522
vt 0.2812715 0.01109522
vt 0.4206 0.04385981
vt 0.2812715 0.06158787
vt 0.4206 0.04513791
vt 0.2812715 0.04513791
vt 0.4206 0.06158787
vt 0.4207353 0.044762
vt 0.4421173 0.061227
vt 0.4421173 0.044762
vt 0.4207353 0.061227
vt 0.26004 0.061227
vt 0.2814069 0.044762
vt 0.26004 0.044762
vt 0.2814069 0.061227
vt 0.4720249 0.04294258
vt 0.4842196 0.01270412
vt 0.4720249 0.01270412
vt 0.4842196 0.04294258
vt 0.5033761 0.01270412
vt 0.4911664 0.04294258
vt 0.5033761 0.04294258
vt 0.4911664 0.01270412
vt 0.4911664 0.01270412
vt 0.4842196 0.04294258
vt 0.4911664 0.04294258
vt 0.4842196 0.01270412
vt 0.4720249 0.04294258
vt 0.4650781 0.01270412
vt 0.4650781 0.04294258
vt 0.4720249 0.01270412
vt 0.4713633 0.05608451
vt 0.483573 0.06673037
vt 0.483573 0.05608451
vt 0.4713633 0.06673037
vt 0.4512895 0.009847184
vt 0.487287 0.04022097
vt 0.4512895 0.04022097
vt 0.487287 0.009847184
vt 0.4788064 0.05050595
vt 0.4597701 0.05050595
vt 0.4505076 0.05494173
vt 0.508729 0.03674753
vt 0.4505076 0.03674753
vt 0.508729 0.05494173
vt 0.508729 0.02865788
vt 0.4505076 0.02865788
vt 0.508729 0.009741928
vt 0.4505076 0.02865788
vt 0.508729 0.02865788
vt 0.4505076 0.009741928
vt 0.4512895 0.009787038
vt 0.487287 0.04014578
vt 0.487287 0.009787038
vt 0.4512895 0.04014578
vt 0.4788064 0.05050595
vt 0.4597701 0.05050595
vt 0.4511542 0.009862221
vt 0.5093756 0.04425076
vt 0.5093756 0.009862221
vt 0.4511542 0.04425076
vt 0.4505076 0.009741928
vt 0.508729 0.02865788
vt 0.508729 0.009741928
vt 0.4505076 0.02865788
vt 0.4505076 0.02865788
vt 0.508729 0.03674753
vt 0.508729 0.02865788
vt 0.4505076 0.03674753
vt 0.5337949 0.229591
vt 0.5364865 0.2589273
vt 0.5337949 0.2589273
vt 0.5364865 0.229591
vt 0.5337949 0.2278768
vt 0.5364865 0.2278768
vt 0.5337949 0.2263581
vt 0.5364865 0.2263581
vt 0.5337949 0.2247643
vt 0.5364865 0.2247643
vt 0.5364865 0.2232606
vt 0.5337949 0.2232606
vt 0.5364865 0.1925109
vt 0.5337949 0.1925109
vt 0.539193 0.229591
vt 0.5364865 0.2589273
vt 0.5364865 0.229591
vt 0.539193 0.2589273
vt 0.539193 0.2278768
vt 0.5364865 0.2278768
vt 0.5364865 0.2263581
vt 0.539193 0.2263581
vt 0.5364865 0.2247643
vt 0.539193 0.2247643
vt 0.5364865 0.2232606
vt 0.539193 0.2232606
vt 0.5364865 0.1925109
vt 0.539193 0.1925109
vt 0.5310884 0.229591
vt 0.5337949 0.2589273
vt 0.5310884 0.2589273
vt 0.5337949 0.229591
vt 0.5310884 0.2278768
vt 0.5337949 0.2278768
vt 0.5337949 0.2278768
vt 0.5310884 0.2263581
vt 0.5337949 0.2263581
vt 0.5310884 0.2278768
vt 0.5310884 0.2247643
vt 0.5337949 0.2247643
vt 0.5310884 0.2232606
vt 0.5337949 0.2232606
vt 0.5310884 0.1925109
vt 0.5337949 0.1925109
vt 0.5337949 0.229591
vt 0.5364865 0.2589273
vt 0.5337949 0.2589273
vt 0.5364865 0.229591
vt 0.5337949 0.2278768
vt 0.5364865 0.2278768
vt 0.5337949 0.2263581
vt 0.5364865 0.2263581
vt 0.5337949 0.2247643
vt 0.5364865 0.2247643
vt 0.5364865 0.2232606
vt 0.5337949 0.2232606
vt 0.5364865 0.1925109
vt 0.5337949 0.1925109
vt 0.539193 0.229591
vt 0.5364865 0.2589273
vt 0.5364865 0.229591
vt 0.539193 0.2589273
vt 0.539193 0.2278768
vt 0.5364865 0.2278768
vt 0.5364865 0.2263581
vt 0.539193 0.2263581
vt 0.5364865 0.2247643
vt 0.539193 0.2247643
vt 0.5364865 0.2232606
vt 0.539193 0.2232606
vt 0.5364865 0.1925109
vt 0.539193 0.1925109
vt 0.5310884 0.229591
vt 0.5337949 0.2589273
vt 0.5310884 0.2589273
vt 0.5337949 0.229591
vt 0.5310884 0.2278768
vt 0.5337949 0.2278768
vt 0.5337949 0.2278768
vt 0.5310884 0.2263581
vt 0.5337949 0.2263581
vt 0.5310884 0.2278768
vt 0.5310884 0.2247643
vt 0.5337949 0.2247643
vt 0.5310884 0.2232606
vt 0.5337949 0.2232606
vt 0.5310884 0.1925109
vt 0.5337949 0.1925109
vt 0.5561392 0.2304481
vt 0.558906 0.2355455
vt 0.5589661 0.2304481
vt 0.5561091 0.2355455
vt 0.2648216 0.06384335
vt 0.2787454 0.04940829
vt 0.2648216 0.04940829
vt 0.2787454 0.06384335
vt 0.4948955 0.04940829
vt 0.4948955 0.06384335
vt 0.5088043 0.06384335
vt 0.5088043 0.04940829
vt 0.5663791 0.2304481
vt 0.558906 0.2355455
vt 0.5728749 0.2434998
vt 0.7963929 0.2304481
vt 0.7818224 0.2434998
vt 0.7952952 0.2355455
vt 0.566364 0.2304481
vt 0.5728749 0.2434998
vt 0.558921 0.2355455
vt 0.7818224 0.2434998
vt 0.7963929 0.2304481
vt 0.7952952 0.2355455
vt 0.2648216 0.06384335
vt 0.5088043 0.04940829
vt 0.2648216 0.04940829
vt 0.5088043 0.06384335
vt 0.7980919 0.2304481
vt 0.7952952 0.2355455
vt 0.7980919 0.2355455
vt 0.7963929 0.2304481
vt 0.4720249 0.04294258
vt 0.4842196 0.01270412
vt 0.4720249 0.01270412
vt 0.4842196 0.04294258
vt 0.5033761 0.01270412
vt 0.4911664 0.04294258
vt 0.5033761 0.04294258
vt 0.4911664 0.01270412
vt 0.4911664 0.01270412
vt 0.4842196 0.04294258
vt 0.4911664 0.04294258
vt 0.4842196 0.01270412
vt 0.4720249 0.04294258
vt 0.4650781 0.01270412
vt 0.4650781 0.04294258
vt 0.4720249 0.01270412
vt 0.4713633 0.05608451
vt 0.483573 0.06673037
vt 0.483573 0.05608451
vt 0.4713633 0.06673037
vt 0.2812715 0.04385981
vt 0.4206 0.01109522
vt 0.2812715 0.01109522
vt 0.4206 0.04385981
vt 0.2814069 0.061227
vt 0.4207353 0.044762
vt 0.2814069 0.044762
vt 0.4207353 0.061227
vt 0.2812715 0.04385981
vt 0.4206 0.01109522
vt 0.2812715 0.01109522
vt 0.4206 0.04385981
vt 0.2812715 0.06158787
vt 0.4206 0.04513791
vt 0.2812715 0.04513791
vt 0.4206 0.06158787
vt 0.4207353 0.044762
vt 0.4421173 0.061227
vt 0.4421173 0.044762
vt 0.4207353 0.061227
vt 0.26004 0.061227
vt 0.2814069 0.044762
vt 0.26004 0.044762
vt 0.2814069 0.061227
vt 0.4720249 0.04294258
vt 0.4842196 0.01270412
vt 0.4720249 0.01270412
vt 0.4842196 0.04294258
vt 0.5033761 0.01270412
vt 0.4911664 0.04294258
vt 0.5033761 0.04294258
vt 0.4911664 0.01270412
vt 0.4911664 0.01270412
vt 0.4842196 0.04294258
vt 0.4911664 0.04294258
vt 0.4842196 0.01270412
vt 0.4720249 0.04294258
vt 0.4650781 0.01270412
vt 0.4650781 0.04294258
vt 0.4720249 0.01270412
vt 0.4713633 0.05608451
vt 0.483573 0.06673037
vt 0.483573 0.05608451
vt 0.4713633 0.06673037
vt 0.9856576 0.4970607
vt 0.9136778 0.3017513
vt 0.9136778 0.4970607
vt 0.9856576 0.3017513
vt 0.9136778 0.4970607
vt 0.9856576 0.3017513
vt 0.9136778 0.3017513
vt 0.9856576 0.4970607
vt 0.9856576 0.4970607
vt 0.9136778 0.3017513
vt 0.9856576 0.3017513
vt 0.9136778 0.4970607
vt 0.9136778 0.3017513
vt 0.9856576 0.4970607
vt 0.9136778 0.4970607
vt 0.9856576 0.3017513
vt 0.4274416 0.0690911
vt 0.3533416 0.1475818
vt 0.3533416 0.0690911
vt 0.4274416 0.1475818
vt 0.4509136 0.07223374
vt 0.5076314 0.01426792
vt 0.5076314 0.07223374
vt 0.4509136 0.01426792
vt 0.4274416 0.0690911
vt 0.3533416 0.1475818
vt 0.3533416 0.0690911
vt 0.4274416 0.1475818
vt 0.5076314 0.07223374
vt 0.4509136 0.01426792
vt 0.4509136 0.07223374
vt 0.5076314 0.01426792
vt 0.5076314 0.07223374
vt 0.4509136 0.01426792
vt 0.4509136 0.07223374
vt 0.5076314 0.01426792
vt 0.3533416 0.0690911
vt 0.4274416 0.1475818
vt 0.3533416 0.1475818
vt 0.4274416 0.0690911
vt 0.3533416 0.0690911
vt 0.4274416 0.1475818
vt 0.3533416 0.1475818
vt 0.4274416 0.0690911
vt 0.4847759 0.01184704
vt 0.4600258 0.0310938
vt 0.4528984 0.01184704
vt 0.4776486 0.0310938
vt 0.4600258 0.09814167
vt 0.4528984 0.1177192
vt 0.4776486 0.09814167
vt 0.4847759 0.1177192
vt 0.4847759 0.01217785
vt 0.4600258 0.0314246
vt 0.4528984 0.01217785
vt 0.4776486 0.0314246
vt 0.4600258 0.09848751
vt 0.4528984 0.1173884
vt 0.4776486 0.09848751
vt 0.4847759 0.1173884
vt 0.4528984 0.1177192
vt 0.4600258 0.0314246
vt 0.4528984 0.01217785
vt 0.4600258 0.09848751
vt 0.4776486 0.0314246
vt 0.4847759 0.01217785
vt 0.4776486 0.09848751
vt 0.4847759 0.1177192
vt 0.4528984 0.1173884
vt 0.4600258 0.03107876
vt 0.4528984 0.01184704
vt 0.4600258 0.09814167
vt 0.4776486 0.03107876
vt 0.4847759 0.01184704
vt 0.4776486 0.09814167
vt 0.4847759 0.1173884
vt 0.2856321 0.071933
vt 0.3437934 0.1392064
vt 0.2856321 0.1392064
vt 0.3437934 0.071933
vt 0.3555069 0.1235534
vt 0.4265394 0.08594705
vt 0.4265394 0.1235534
vt 0.3555069 0.08594705
vt 0.2795273 0.124215
vt 0.4277423 0.06907606
vt 0.2795273 0.06895577
vt 0.4277423 0.1426047
vt 0.2795273 0.06904599
vt 0.4277423 0.1426498
vt 0.2795273 0.124215
vt 0.4277423 0.06913621
vt 0.2795273 0.09014224
vt 0.4277423 0.1202754
vt 0.2795273 0.1202754
vt 0.4277423 0.09014224
vt 0.9867703 0.4566125
vt 0.8568397 0.5528462
vt 0.9867703 0.5528462
vt 0.8568397 0.4566125
vt 0.8568397 0.4566125
vt 0.9867703 0.5528462
vt 0.9867703 0.4566125
vt 0.8568397 0.5528462
vt 0.9948299 0.1115091
vt 0.7036024 0.153446
vt 0.7036024 0.1115091
vt 0.9948299 0.153446
vt 0.7036024 0.1115091
vt 0.9948299 0.153446
vt 0.9948299 0.1115091
vt 0.7036024 0.153446
vt 0.9948299 0.1115091
vt 0.7036024 0.153446
vt 0.7036024 0.1115091
vt 0.9948299 0.153446
vt 0.7036024 0.1115091
vt 0.9948299 0.153446
vt 0.9948299 0.1115091
vt 0.7036024 0.153446
vt 0.4528834 0.05727239
vt 0.5093907 0.01423785
vt 0.5093907 0.05727239
vt 0.4528834 0.01423785
vt 0.4528834 0.01423785
vt 0.5093907 0.05727239
vt 0.4528834 0.05727239
vt 0.5093907 0.01423785
vt 0.4528834 0.01423785
vt 0.5093907 0.05727239
vt 0.5093907 0.01423785
vt 0.4528834 0.05727239
vt 0.5093907 0.05727239
vt 0.4528834 0.01423785
vt 0.4528834 0.05727239
vt 0.5093907 0.01423785
vn 0.01176465 -0.01176465 0.9998616
vn 0.01176465 -0.01176465 0.9998616
vn 0.01176465 -0.01176465 0.9998616
vn 0.01176465 -0.01176465 0.9998616
vn 0.9999924 -0.003921568 0
vn 0.9999924 -0.003921568 0
vn 0.9999924 -0.003921568 0
vn 0.9999924 -0.003921568 0
vn 0.01176465 -0.01176465 -0.9998616
vn 0.01176465 -0.01176465 -0.9998616
vn 0.01176465 -0.01176465 -0.9998616
vn 0.01176465 -0.01176465 -0.9998616
vn -0.9999923 -0.003921568 -0.0003442513
vn -0.9999923 -0.003921568 -0.0003442513
vn -0.9999923 -0.003921568 -0.0003442513
vn -0.9999923 -0.003921568 -0.0003442513
vn 0.6156816 0.7803861 -0.1092414
vn 0.6156816 0.7803861 -0.1092414
vn 0.6156816 0.7803861 -0.1092414
vn 0.6156816 0.7803861 -0.1092414
vn -0.6078384 0.7882292 -0.0960584
vn -0.6078384 0.7882292 -0.0960584
vn -0.6078384 0.7882292 -0.0960584
vn -0.6078384 0.7882292 -0.0960584
vn 0.9999924 -0.003921568 0
vn 0.9999924 -0.003921568 0
vn 0.9999924 -0.003921568 0
vn 0.9999924 -0.003921568 0
vn 0.9999924 -0.003921568 0
vn 0.9999924 -0.003921568 0
vn 0.9999924 -0.003921568 0
vn 0.01176465 -0.01176465 -0.9998616
vn 0.01176465 -0.01176465 -0.9998616
vn 0.01176465 -0.01176465 -0.9998616
vn 0.01176465 -0.01176465 -0.9998616
vn 0.01176465 -0.01176465 -0.9998616
vn 0.01176465 -0.01176465 -0.9998616
vn -0.9999923 -0.003921568 -0.0003442513
vn -0.9999923 -0.003921568 -0.0003442513
vn -0.9999923 -0.003921568 -0.0003442513
vn -0.9999923 -0.003921568 -0.0003442513
vn -0.9999923 -0.003921568 -0.0003442513
vn -0.9999923 -0.003921568 -0.0003442513
vn -0.9999923 -0.003921568 -0.0003442513
vn 0.003921568 -0.9999924 0
vn 0.003921568 -0.9999924 0
vn 0.003921568 -0.9999924 0
vn 0.003921568 -0.9999924 0
vn 0.003921568 0.9999923 -0.000345267
vn 0.003921568 0.9999923 -0.000345267
vn 0.003921568 0.9999923 -0.000345267
vn 0.003921568 0.9999923 -0.000345267
vn 0.01176465 -0.01176465 0.9998616
vn 0.01176465 -0.01176465 0.9998616
vn 0.01176465 -0.01176465 0.9998616
vn 0.01176465 -0.01176465 0.9998616
vn 0.9999924 -0.003921568 0
vn 0.9999924 -0.003921568 0
vn 0.9999924 -0.003921568 0
vn 0.9999924 -0.003921568 0
vn 0.01176465 -0.01176465 -0.9998616
vn 0.01176465 -0.01176465 -0.9998616
vn 0.01176465 -0.01176465 -0.9998616
vn 0.01176465 -0.01176465 -0.9998616
vn -0.8588169 0.4980353 0.1199767
vn -0.8588169 0.4980353 0.1199767
vn -0.8588169 0.4980353 -0.1199767
vn -0.8588169 0.4980353 0.1199767
vn -0.2549 0.9607769 0.1092414
vn -0.2549 0.9607769 0.1092414
vn -0.2549 0.9607769 0.1092414
vn -0.2549 0.9607769 0.1092414
vn 0.01176465 -0.01176465 0.9998616
vn 0.01176465 -0.01176465 0.9998616
vn 0.01176465 -0.01176465 0.9998616
vn 0.01176465 -0.01176465 0.9998616
vn 0.01176465 -0.01176465 -0.9998616
vn 0.01176465 -0.01176465 -0.9998616
vn 0.01176465 -0.01176465 -0.9998616
vn 0.01176465 -0.01176465 -0.9998616
vn -0.9529338 0.2941153 0.07357585
vn -0.9529338 0.2941153 0.07357585
vn -0.9529338 0.2941153 0.07357585
vn -0.9529338 0.2941153 0.07357585
vn 0.2379438 -0.9712788 0
vn 0.2379438 -0.9712788 0
vn 0.2379438 -0.9712788 0
vn 0.2379438 -0.9712788 0
vn 0.01176465 -0.01176465 0.9998616
vn 0.01176465 -0.01176465 0.9998616
vn 0.01176465 -0.01176465 0.9998616
vn 0.01176465 -0.01176465 0.9998616
vn 0.01176465 -0.01176465 -0.9998616
vn 0.01176465 -0.01176465 -0.9998616
vn 0.01176465 -0.01176465 -0.9998616
vn 0.01176465 -0.01176465 -0.9998616
vn 0.01176465 -0.01176465 -0.9998616
vn 0.01176465 -0.01176465 -0.9998616
vn 0.01176465 -0.01176465 -0.9998616
vn 0.01176465 -0.01176465 -0.9998616
vn 0.9999924 -0.003921568 0
vn 0.9999924 -0.003921568 0
vn 0.9999924 -0.003921568 0
vn 0.9999924 -0.003921568 0
vn 0.01176465 -0.01176465 0.9998616
vn 0.01176465 -0.01176465 0.9998616
vn 0.01176465 -0.01176465 0.9998616
vn 0.01176465 -0.01176465 0.9998616
vn -0.9999923 -0.003921568 -0.0003442513
vn -0.9999923 -0.003921568 -0.0003442513
vn -0.9999923 -0.003921568 -0.0003442513
vn -0.9999923 -0.003921568 -0.0003442513
vn 0.6156816 0.7803861 -0.1092414
vn 0.6156816 0.7803861 -0.1092414
vn 0.6156816 0.7803861 -0.1092414
vn 0.6156816 0.7803861 -0.1092414
vn -0.6078384 0.7882292 -0.0960584
vn -0.6078384 0.7882292 -0.0960584
vn -0.6078384 0.7882292 -0.0960584
vn -0.6078384 0.7882292 -0.0960584
vn 0.9999924 -0.003921568 0
vn 0.9999924 -0.003921568 0
vn 0.9999924 -0.003921568 0
vn 0.9999924 -0.003921568 0
vn 0.9999924 -0.003921568 0
vn 0.9999924 -0.003921568 0
vn 0.9999924 -0.003921568 0
vn 0.01176465 -0.01176465 0.9998616
vn 0.01176465 -0.01176465 0.9998616
vn 0.01176465 -0.01176465 0.9998616
vn 0.01176465 -0.01176465 0.9998616
vn 0.01176465 -0.01176465 0.9998616
vn 0.01176465 -0.01176465 0.9998616
vn -0.9999923 -0.003921568 -0.0003442513
vn -0.9999923 -0.003921568 -0.0003442513
vn -0.9999923 -0.003921568 -0.0003442513
vn -0.9999923 -0.003921568 -0.0003442513
vn -0.9999923 -0.003921568 -0.0003442513
vn -0.9999923 -0.003921568 -0.0003442513
vn -0.9999923 -0.003921568 -0.0003442513
vn 0.003921568 -0.9999924 0
vn 0.003921568 -0.9999924 0
vn 0.003921568 -0.9999924 0
vn 0.003921568 -0.9999924 0
vn 0.003921568 0.9999923 -0.000345267
vn 0.003921568 0.9999923 -0.000345267
vn 0.003921568 0.9999923 -0.000345267
vn 0.003921568 0.9999923 -0.000345267
vn 0.01176465 -0.01176465 -0.9998616
vn 0.01176465 -0.01176465 -0.9998616
vn 0.01176465 -0.01176465 -0.9998616
vn 0.01176465 -0.01176465 -0.9998616
vn 0.9999924 -0.003921568 0
vn 0.9999924 -0.003921568 0
vn 0.9999924 -0.003921568 0
vn 0.9999924 -0.003921568 0
vn 0.01176465 -0.01176465 0.9998616
vn 0.01176465 -0.01176465 0.9998616
vn 0.01176465 -0.01176465 0.9998616
vn 0.01176465 -0.01176465 0.9998616
vn -0.8588169 0.4980353 -0.1199767
vn -0.8588169 0.4980353 -0.1199767
vn -0.8588169 0.4980353 -0.1199767
vn -0.8588169 0.4980353 -0.1199767
vn -0.2549 0.9607769 -0.1092414
vn -0.2549 0.9607769 -0.1092414
vn -0.2549 0.9607769 -0.1092414
vn -0.2549 0.9607769 -0.1092414
vn 0.01176465 -0.01176465 -0.9998616
vn 0.01176465 -0.01176465 -0.9998616
vn 0.01176465 -0.01176465 -0.9998616
vn 0.01176465 -0.01176465 -0.9998616
vn 0.01176465 -0.01176465 0.9998616
vn 0.01176465 -0.01176465 0.9998616
vn 0.01176465 -0.01176465 0.9998616
vn 0.01176465 -0.01176465 0.9998616
vn -0.9529338 0.2941153 -0.07357585
vn -0.9529338 0.2941153 -0.07357585
vn -0.9529338 0.2941153 -0.07357585
vn -0.9529338 0.2941153 -0.07357585
vn 0.2379438 -0.9712788 0
vn 0.2379438 -0.9712788 0
vn 0.2379438 -0.9712788 0
vn 0.2379438 -0.9712788 0
vn 0.01176465 -0.01176465 -0.9998616
vn 0.01176465 -0.01176465 -0.9998616
vn 0.01176465 -0.01176465 -0.9998616
vn 0.01176465 -0.01176465 -0.9998616
vn 0.01176465 -0.01176465 0.9998616
vn 0.01176465 -0.01176465 0.9998616
vn 0.01176465 -0.01176465 0.9998616
vn 0.01176465 -0.01176465 0.9998616
vn 0.8745031 -0.01176465 -0.4848772
vn 0.8745031 -0.01176465 -0.4848772
vn 0.8745031 -0.01176465 -0.4848772
vn 0.8745031 -0.01176465 -0.4848772
vn 0.01176465 -0.01176465 -0.9998616
vn 0.01176465 -0.01176465 -0.9998616
vn 0.01176465 -0.01176465 -0.9998616
vn 0.01176465 -0.01176465 -0.9998616
vn -0.8588169 -0.01176465 -0.5121476
vn -0.8588169 -0.01176465 -0.5121476
vn -0.8588169 -0.01176465 -0.5121476
vn -0.8588169 -0.01176465 -0.5121476
vn -0.8588169 -0.01176465 0.5121476
vn -0.8588169 -0.01176465 0.5121476
vn -0.8588169 -0.01176465 0.5121476
vn -0.8588169 -0.01176465 0.5121476
vn 0.01176465 -0.01176465 0.9998616
vn 0.01176465 -0.01176465 0.9998616
vn 0.01176465 -0.01176465 0.9998616
vn 0.01176465 -0.01176465 0.9998616
vn 0.8745031 -0.01176465 0.4848772
vn 0.8745031 -0.01176465 0.4848772
vn 0.8745031 -0.01176465 0.4848772
vn 0.8745031 -0.01176465 0.4848772
vn 0.003921568 -0.9999924 0
vn 0.003921568 -0.9999924 0
vn 0.003921568 -0.9999924 0
vn 0.003921568 -0.9999924 0
vn 0.003921568 -0.9999924 0
vn 0.003921568 -0.9999924 0
vn 0.003921568 0.9999923 -0.000345267
vn 0.003921568 0.9999923 -0.000345267
vn 0.003921568 0.9999923 -0.000345267
vn 0.003921568 0.9999923 -0.000345267
vn 0.003921568 0.9999923 -0.000345267
vn 0.003921568 0.9999923 -0.000345267
vn 0.003921568 0.9999923 -0.000345267
vn 0.003921568 0.9999923 -0.000345267
vn 0.003921568 0.9999923 -0.000345267
vn 0.003921568 0.9999923 -0.000345267
vn 0.003921568 0.9999923 -0.000345267
vn 0.003921568 0.9999923 -0.000345267
vn 0.003921568 0.9999923 -0.000345267
vn 0.003921568 0.9999923 -0.000345267
vn 0.003921568 0.9999923 -0.000345267
vn 0.003921568 0.9999923 -0.000345267
vn 0.003921568 0.9999923 -0.000345267
vn 0.003921568 0.9999923 -0.000345267
vn 0.003921568 0.9999923 -0.000345267
vn 0.003921568 0.9999923 -0.000345267
vn 0.003921568 0.9999923 -0.000345267
vn 0.003921568 0.9999923 -0.000345267
vn 0.003921568 0.9999923 -0.000345267
vn 0.003921568 0.9999923 -0.000345267
vn 0.8745031 -0.01176465 -0.4848772
vn 0.8745031 -0.01176465 -0.4848772
vn 0.8745031 -0.01176465 -0.4848772
vn 0.8745031 -0.01176465 -0.4848772
vn 0.01176465 -0.01176465 -0.9998616
vn 0.01176465 -0.01176465 -0.9998616
vn 0.01176465 -0.01176465 -0.9998616
vn 0.01176465 -0.01176465 -0.9998616
vn -0.8588169 -0.01176465 -0.5121476
vn -0.8588169 -0.01176465 -0.5121476
vn -0.8588169 -0.01176465 -0.5121476
vn -0.8588169 -0.01176465 -0.5121476
vn -0.8588169 -0.01176465 0.5121476
vn -0.8588169 -0.01176465 0.5121476
vn -0.8588169 -0.01176465 0.5121476
vn -0.8588169 -0.01176465 0.5121476
vn 0.01176465 -0.01176465 0.9998616
vn 0.01176465 -0.01176465 0.9998616
vn 0.01176465 -0.01176465 0.9998616
vn 0.01176465 -0.01176465 0.9998616
vn 0.8745031 -0.01176465 0.4848772
vn 0.8745031 -0.01176465 0.4848772
vn 0.8745031 -0.01176465 0.4848772
vn 0.8745031 -0.01176465 0.4848772
vn 0.8636371 -0.504114 0
vn 0.8636371 -0.504114 0
vn 0.8636371 -0.504114 0
vn 0.8636371 -0.504114 0
vn 0.003921568 -0.9999924 0
vn 0.003921568 -0.9999924 0
vn 0.003921568 -0.9999924 0
vn 0.003921568 -0.9999924 0
vn -0.8581836 -0.5133428 0
vn -0.8581836 -0.5133428 0
vn -0.8581836 -0.5133428 0
vn -0.8581836 -0.5133428 0
vn -0.8588169 0.4980353 0.1199767
vn -0.8588169 0.4980353 0.1199767
vn -0.8588169 0.4980353 0.1199767
vn -0.8588169 0.4980353 0.1199767
vn 0.003921568 0.9999923 -0.000345267
vn 0.003921568 0.9999923 -0.000345267
vn 0.003921568 0.9999923 -0.000345267
vn 0.003921568 0.9999923 -0.000345267
vn 0.8689617 0.4948794 0
vn 0.8689617 0.4948794 0
vn 0.8689617 0.4948794 0
vn 0.8689617 0.4948794 0
vn 0.01176465 -0.01176465 0.9998616
vn 0.01176465 -0.01176465 0.9998616
vn 0.01176465 -0.01176465 0.9998616
vn 0.01176465 -0.01176465 0.9998616
vn 0.01176465 -0.01176465 0.9998616
vn 0.01176465 -0.01176465 0.9998616
vn 0.01176465 -0.01176465 -0.9998616
vn 0.01176465 -0.01176465 -0.9998616
vn 0.01176465 -0.01176465 -0.9998616
vn 0.01176465 -0.01176465 -0.9998616
vn 0.01176465 -0.01176465 -0.9998616
vn 0.01176465 -0.01176465 -0.9998616
vn 0.003921568 -0.9999924 0
vn 0.003921568 -0.9999924 0
vn 0.003921568 -0.9999924 0
vn 0.003921568 -0.9999924 0
vn 0.003921568 0.9999923 -0.000345267
vn 0.003921568 0.9999923 -0.000345267
vn 0.003921568 0.9999923 -0.000345267
vn 0.003921568 0.9999923 -0.000345267
vn 0.01176465 -0.01176465 0.9998616
vn 0.01176465 -0.01176465 0.9998616
vn 0.01176465 -0.01176465 0.9998616
vn 0.01176465 -0.01176465 0.9998616
vn 0.01176465 -0.01176465 0.9998616
vn 0.9999924 -0.003921568 0
vn 0.9999924 -0.003921568 0
vn 0.9999924 -0.003921568 0
vn 0.9999924 -0.003921568 0
vn 0.01176465 -0.01176465 -0.9998616
vn 0.01176465 -0.01176465 -0.9998616
vn 0.01176465 -0.01176465 -0.9998616
vn 0.01176465 -0.01176465 -0.9998616
vn 0.01176465 -0.01176465 -0.9998616
vn -0.9999923 -0.003921568 -0.0003442513
vn -0.9999923 -0.003921568 -0.0003442513
vn -0.9999923 -0.003921568 -0.0003442513
vn -0.9999923 -0.003921568 -0.0003442513
vn 0.003921568 -0.9999924 0
vn 0.003921568 -0.9999924 0
vn 0.003921568 -0.9999924 0
vn 0.003921568 -0.9999924 0
vn 0.003921568 0.9999923 -0.000345267
vn 0.003921568 0.9999923 -0.000345267
vn 0.003921568 0.9999923 -0.000345267
vn 0.003921568 0.9999923 -0.000345267
vn 0.01176465 -0.01176465 0.9998616
vn 0.01176465 -0.01176465 0.9998616
vn 0.01176465 -0.01176465 0.9998616
vn 0.01176465 -0.01176465 0.9998616
vn 0.9999924 -0.003921568 0
vn 0.9999924 -0.003921568 0
vn 0.9999924 -0.003921568 0
vn 0.9999924 -0.003921568 0
vn 0.01176465 -0.01176465 -0.9998616
vn 0.01176465 -0.01176465 -0.9998616
vn 0.01176465 -0.01176465 -0.9998616
vn 0.01176465 -0.01176465 -0.9998616
vn -0.9999923 -0.003921568 -0.0003442513
vn -0.9999923 -0.003921568 -0.0003442513
vn -0.9999923 -0.003921568 -0.0003442513
vn -0.9999923 -0.003921568 -0.0003442513
vn -0.7774267 -0.6289735 0
vn -0.7774267 -0.6289735 0
vn -0.7774267 -0.6289735 0
vn -0.7774267 -0.6289735 0
vn 0.722557 0.6913112 0
vn 0.722557 0.6913112 0
vn 0.722557 0.6913112 0
vn 0.722557 0.6913112 0
vn 0.01176465 -0.01176465 0.9998616
vn 0.01176465 -0.01176465 0.9998616
vn 0.01176465 -0.01176465 0.9998616
vn 0.01176465 -0.01176465 0.9998616
vn 0.01176465 -0.01176465 -0.9998616
vn 0.01176465 -0.01176465 -0.9998616
vn 0.01176465 -0.01176465 -0.9998616
vn 0.01176465 -0.01176465 -0.9998616
vn 0.5429273 -0.8397797 0
vn 0.5429273 -0.8397797 0
vn 0.5429273 -0.8397797 0
vn 0.5429273 -0.8397797 0
vn -0.5764661 0.8117584 -0.09346186
vn -0.5764661 0.8117584 -0.09346186
vn -0.5764661 0.8117584 -0.09346186
vn -0.5764661 0.8117584 -0.09346186
vn 0.01176465 -0.01176465 0.9998616
vn 0.01176465 -0.01176465 0.9998616
vn 0.01176465 -0.01176465 0.9998616
vn 0.01176465 -0.01176465 0.9998616
vn 0.6992508 0.7148764 0
vn 0.6992508 0.7148764 0
vn 0.6992508 0.7148764 0
vn 0.6992508 0.7148764 0
vn 0.01176465 -0.01176465 -0.9998616
vn 0.01176465 -0.01176465 -0.9998616
vn 0.01176465 -0.01176465 -0.9998616
vn 0.01176465 -0.01176465 -0.9998616
vn -0.5133427 -0.8581837 0
vn -0.5133427 -0.8581837 0
vn -0.5133427 -0.8581837 0
vn -0.5133427 -0.8581837 0
vn 0.5372508 0.8431307 -0.02218458
vn 0.5372508 0.8431307 -0.02218458
vn 0.5372508 0.8431307 -0.02218458
vn 0.5372508 0.8431307 -0.02218458
vn 0.01176465 -0.01176465 0.9998616
vn 0.01176465 -0.01176465 0.9998616
vn 0.01176465 -0.01176465 0.9998616
vn 0.01176465 -0.01176465 0.9998616
vn 0.01176465 -0.01176465 -0.9998616
vn 0.01176465 -0.01176465 -0.9998616
vn 0.01176465 -0.01176465 -0.9998616
vn 0.01176465 -0.01176465 -0.9998616
vn 0.8512577 -0.5247479 0
vn 0.8512577 -0.5247479 0
vn 0.8512577 -0.5247479 0
vn 0.8512577 -0.5247479 0
vn -0.8352877 0.5372508 -0.1168594
vn -0.8352877 0.5372508 -0.1168594
vn -0.8352877 0.5372508 -0.1168594
vn -0.8352877 0.5372508 -0.1168594
vn 0.01176465 -0.01176465 0.9998616
vn 0.01176465 -0.01176465 0.9998616
vn 0.01176465 -0.01176465 0.9998616
vn 0.01176465 -0.01176465 0.9998616
vn 0.01176465 -0.01176465 0.9998616
vn 0.01176465 -0.01176465 0.9998616
vn 0.01176465 -0.01176465 -0.9998616
vn 0.01176465 -0.01176465 -0.9998616
vn 0.01176465 -0.01176465 -0.9998616
vn 0.01176465 -0.01176465 -0.9998616
vn 0.01176465 -0.01176465 -0.9998616
vn 0.01176465 -0.01176465 -0.9998616
vn -0.08207506 -0.9966261 0
vn -0.08207506 -0.9966261 0
vn -0.08207506 -0.9966261 0
vn -0.08207506 -0.9966261 0
vn 0.1372539 0.9843061 -0.1109183
vn 0.1372539 0.9843061 -0.1109183
vn 0.1372539 0.9843061 -0.1109183
vn 0.1372539 0.9843061 -0.1109183
vn 0.01176465 -0.01176465 0.9998616
vn 0.01176465 -0.01176465 0.9998616
vn 0.01176465 -0.01176465 0.9998616
vn 0.01176465 -0.01176465 0.9998616
vn 0.01176465 -0.01176465 -0.9998616
vn 0.01176465 -0.01176465 -0.9998616
vn 0.01176465 -0.01176465 -0.9998616
vn 0.01176465 -0.01176465 -0.9998616
vn 0.9999924 -0.003921568 0
vn 0.9999924 -0.003921568 0
vn 0.9999924 -0.003921568 0
vn 0.9999924 -0.003921568 0
vn 0.01176465 -0.01176465 -0.9998616
vn 0.01176465 -0.01176465 -0.9998616
vn 0.01176465 -0.01176465 -0.9998616
vn 0.01176465 -0.01176465 -0.9998616
vn 0.003921568 -0.9999924 0
vn 0.003921568 -0.9999924 0
vn 0.003921568 -0.9999924 0
vn 0.003921568 -0.9999924 0
vn -0.9999923 -0.003921568 -0.0003442513
vn -0.9999923 -0.003921568 -0.0003442513
vn -0.9999923 -0.003921568 -0.0003442513
vn -0.9999923 -0.003921568 -0.0003442513
vn 0.01176465 -0.01176465 0.9998616
vn 0.01176465 -0.01176465 0.9998616
vn 0.01176465 -0.01176465 0.9998616
vn 0.01176465 -0.01176465 0.9998616
vn 0.01176465 -0.01176465 0.9998616
vn 0.01176465 -0.01176465 0.9998616
vn 0.01176465 -0.01176465 0.9998616
vn 0.01176465 -0.01176465 0.9998616
vn 0.01176465 -0.01176465 -0.9998616
vn 0.01176465 -0.01176465 -0.9998616
vn 0.01176465 -0.01176465 -0.9998616
vn 0.01176465 -0.01176465 -0.9998616
vn -0.9999923 -0.003921568 -0.0003442513
vn -0.9999923 -0.003921568 -0.0003442513
vn -0.9999923 -0.003921568 -0.0003442513
vn -0.9999923 -0.003921568 -0.0003442513
vn 0.9999924 -0.003921568 0
vn 0.9999924 -0.003921568 0
vn 0.9999924 -0.003921568 0
vn 0.9999924 -0.003921568 0
vn 0.003921568 -0.9999924 0
vn 0.003921568 -0.9999924 0
vn 0.003921568 -0.9999924 0
vn 0.003921568 -0.9999924 0
vn 0.01176465 -0.01176465 0.9998616
vn 0.01176465 -0.01176465 0.9998616
vn 0.01176465 -0.01176465 0.9998616
vn 0.01176465 -0.01176465 0.9998616
vn 0.003921568 0.9999923 -0.000345267
vn 0.003921568 0.9999923 -0.000345267
vn 0.003921568 0.9999923 -0.000345267
vn 0.003921568 0.9999923 -0.000345267
vn 0.01176465 -0.01176465 -0.9998616
vn 0.01176465 -0.01176465 -0.9998616
vn 0.01176465 -0.01176465 -0.9998616
vn 0.01176465 -0.01176465 -0.9998616
vn 0.003921568 -0.9999924 0
vn 0.003921568 -0.9999924 0
vn 0.003921568 -0.9999924 0
vn 0.003921568 -0.9999924 0
vn -0.9999923 -0.003921568 -0.0003442513
vn -0.9999923 -0.003921568 -0.0003442513
vn -0.9999923 -0.003921568 -0.0003442513
vn -0.9999923 -0.003921568 -0.0003442513
vn 0.9999924 -0.003921568 0
vn 0.9999924 -0.003921568 0
vn 0.9999924 -0.003921568 0
vn 0.9999924 -0.003921568 0
vn 0.01176465 -0.01176465 0.9998616
vn 0.01176465 -0.01176465 0.9998616
vn 0.01176465 -0.01176465 0.9998616
vn 0.01176465 -0.01176465 0.9998616
vn 0.01176465 -0.01176465 -0.9998616
vn 0.01176465 -0.01176465 -0.9998616
vn 0.01176465 -0.01176465 -0.9998616
vn 0.01176465 -0.01176465 -0.9998616
vn -0.9999923 -0.003921568 -0.0003442513
vn -0.9999923 -0.003921568 -0.0003442513
vn -0.9999923 -0.003921568 -0.0003442513
vn -0.9999923 -0.003921568 -0.0003442513
vn 0.9999924 -0.003921568 0
vn 0.9999924 -0.003921568 0
vn 0.9999924 -0.003921568 0
vn 0.9999924 -0.003921568 0
vn 0.003921568 -0.9999924 0
vn 0.003921568 -0.9999924 0
vn 0.003921568 -0.9999924 0
vn 0.003921568 -0.9999924 0
vn 0.01176465 -0.01176465 0.9998616
vn 0.01176465 -0.01176465 0.9998616
vn 0.01176465 -0.01176465 0.9998616
vn 0.01176465 -0.01176465 0.9998616
vn 0.01176465 -0.01176465 0.9998616
vn 0.01176465 -0.01176465 0.9998616
vn -0.3254876 0.9372476 -0.1249988
vn 0.3411739 0.9372476 -0.07188356
vn 0.3411739 0.9372476 -0.07188356
vn -0.3254876 0.9372476 -0.1249988
vn 0.6289735 0.7774267 0
vn 0.6289735 0.7774267 0
vn -0.9999923 -0.003921568 -0.0003442513
vn -0.9999923 -0.003921568 -0.0003442513
vn -0.9999923 -0.003921568 -0.0003442513
vn -0.9999923 -0.003921568 -0.0003442513
vn 0.01176465 -0.01176465 -0.9998616
vn 0.01176465 -0.01176465 -0.9998616
vn 0.01176465 -0.01176465 -0.9998616
vn 0.01176465 -0.01176465 -0.9998616
vn 0.01176465 -0.01176465 -0.9998616
vn 0.01176465 -0.01176465 -0.9998616
vn 0.003921568 -0.9999924 0
vn 0.003921568 -0.9999924 0
vn 0.003921568 -0.9999924 0
vn 0.003921568 -0.9999924 0
vn 0.9999924 -0.003921568 0
vn 0.9999924 -0.003921568 0
vn 0.9999924 -0.003921568 0
vn 0.9999924 -0.003921568 0
vn -0.3254876 0.9372476 -0.1249988
vn -0.6156815 0.7803861 -0.1092419
vn -0.3254876 0.9372476 -0.1249988
vn -0.6156815 0.7803861 -0.1092419
vn 0.35686 -0.05882311 -0.932304
vn 0.5058785 -0.01176465 -0.8625245
vn 0.5058785 -0.01176465 -0.8625245
vn 0.349017 -0.08235234 -0.9334909
vn 0.2627431 -0.2235277 -0.9386168
vn 0.2392139 -0.247057 -0.9390099
vn 0.01176465 -0.3647031 -0.9310495
vn 0.01960772 -0.3647031 -0.9309174
vn -0.2470568 -0.2549 -0.9348738
vn -0.2078415 -0.2784293 -0.9376988
vn -0.3333308 -0.09019542 -0.9384857
vn -0.3333308 -0.08235234 -0.9392064
vn -0.4745061 -0.01176465 -0.8801736
vn -0.4745061 -0.01176465 -0.8801736
vn 0.3647031 -0.05882311 0.9292639
vn 0.5058785 -0.01176465 0.8625245
vn 0.35686 -0.08235234 0.9305208
vn 0.5058785 -0.01176465 0.8625245
vn 0.2627431 -0.2313708 0.9367143
vn 0.2392139 -0.247057 0.9390099
vn 0.0274508 -0.3647031 0.9307191
vn 0.0274508 -0.3647031 0.9307191
vn -0.2156845 -0.2784293 0.9359259
vn -0.2470568 -0.247057 0.936977
vn -0.3333308 -0.09019542 0.9384857
vn -0.3333308 -0.08235234 0.9392064
vn -0.4745061 -0.01176465 0.8801736
vn -0.4745061 -0.01176465 0.8801736
vn -0.9764631 0.1764692 -0.1240101
vn -0.9921492 0.003921509 -0.1249981
vn -0.9921492 0.003921509 -0.1249981
vn -0.9764631 0.1764692 0.1240101
vn -0.9372476 0.3411738 0.07188428
vn -0.9372476 0.3411738 0.07188428
vn -0.3960754 0.9137185 0.09079012
vn -0.01960766 0.9921492 0.123513
vn -0.01960766 0.9921492 -0.123513
vn -0.3960754 0.9137185 0.09079012
vn 0.6862693 0.7254846 -0.05202487
vn 0.6862693 0.7254846 -0.05202487
vn 0.9768239 0.214045 0
vn 0.9768239 0.214045 0
vn 0.9999924 -0.003921568 0
vn 0.9999924 -0.003921568 0
vn 0.35686 -0.05882311 -0.932304
vn 0.5058785 -0.01176465 -0.8625245
vn 0.5058785 -0.01176465 -0.8625245
vn 0.349017 -0.08235234 -0.9334909
vn 0.2627431 -0.2235277 -0.9386168
vn 0.2392139 -0.247057 -0.9390099
vn 0.01176465 -0.3647031 -0.9310495
vn 0.01960772 -0.3647031 -0.9309174
vn -0.2470568 -0.2549 -0.9348738
vn -0.2078415 -0.2784293 -0.9376988
vn -0.3333308 -0.09019542 -0.9384857
vn -0.3333308 -0.08235234 -0.9392064
vn -0.4745061 -0.01176465 -0.8801736
vn -0.4745061 -0.01176465 -0.8801736
vn 0.3647031 -0.05882311 0.9292639
vn 0.5058785 -0.01176465 0.8625245
vn 0.35686 -0.08235234 0.9305208
vn 0.5058785 -0.01176465 0.8625245
vn 0.2627431 -0.2313708 0.9367143
vn 0.2392139 -0.247057 0.9390099
vn 0.0274508 -0.3647031 0.9307191
vn 0.0274508 -0.3647031 0.9307191
vn -0.2156845 -0.2784293 0.9359259
vn -0.2470568 -0.247057 0.936977
vn -0.3333308 -0.09019542 0.9384857
vn -0.3333308 -0.08235234 0.9392064
vn -0.4745061 -0.01176465 0.8801736
vn -0.4745061 -0.01176465 0.8801736
vn -0.9764631 0.1764692 -0.1240101
vn -0.9921492 0.003921509 -0.1249981
vn -0.9921492 0.003921509 -0.1249981
vn -0.9764631 0.1764692 -0.1240101
vn -0.9372476 0.3411738 -0.07188428
vn -0.9372476 0.3411738 -0.07188428
vn -0.3960754 0.9137185 -0.09079012
vn -0.01960766 0.9921492 -0.123513
vn -0.01960766 0.9921492 -0.123513
vn -0.3960754 0.9137185 -0.09079012
vn 0.6832916 0.7301457 0
vn 0.6832916 0.7301457 0
vn 0.9768239 0.214045 0
vn 0.9768239 0.214045 0
vn 0.9999924 -0.003921568 0
vn 0.9999924 -0.003921568 0
vn 0.01176465 -0.01176465 -0.9998616
vn 0.01176465 -0.01176465 -0.9998616
vn 0.01176465 -0.01176465 -0.9998616
vn 0.01176465 -0.01176465 -0.9998616
vn 0.01176465 0.8823462 -0.4704539
vn 0.01176465 0.9686199 -0.248268
vn 0.01176465 0.8823462 -0.4704539
vn 0.01176465 0.9686199 -0.248268
vn 0.01176465 0.9686199 0.248268
vn 0.01176465 0.9686199 0.248268
vn 0.01176465 0.874503 0.4848773
vn 0.01176465 0.874503 0.4848773
vn -0.9999923 -0.003921568 -0.0003442513
vn -0.9999923 -0.003921568 -0.0003442513
vn -0.9999923 -0.003921568 -0.0003442513
vn -0.9999923 -0.003921568 -0.0003442513
vn -0.9999923 -0.003921568 -0.0003442513
vn -0.9999923 -0.003921568 -0.0003442513
vn 0.9999924 -0.003921568 0
vn 0.9999924 -0.003921568 0
vn 0.9999924 -0.003921568 0
vn 0.9999924 -0.003921568 0
vn 0.9999924 -0.003921568 0
vn 0.9999924 -0.003921568 0
vn 0.003921568 -0.9999924 0
vn 0.003921568 -0.9999924 0
vn 0.003921568 -0.9999924 0
vn 0.003921568 -0.9999924 0
vn 0.01176465 -0.01176465 0.9998616
vn 0.01176465 -0.01176465 0.9998616
vn 0.01176465 -0.01176465 0.9998616
vn 0.01176465 -0.01176465 0.9998616
vn 0.01176465 -0.01176465 0.9998616
vn 0.01176465 -0.01176465 0.9998616
vn 0.01176465 -0.01176465 0.9998616
vn 0.01176465 -0.01176465 0.9998616
vn 0.01176465 -0.01176465 -0.9998616
vn 0.01176465 -0.01176465 -0.9998616
vn 0.01176465 -0.01176465 -0.9998616
vn 0.01176465 -0.01176465 -0.9998616
vn -0.9999923 -0.003921568 -0.0003442513
vn -0.9999923 -0.003921568 -0.0003442513
vn -0.9999923 -0.003921568 -0.0003442513
vn -0.9999923 -0.003921568 -0.0003442513
vn 0.9999924 -0.003921568 0
vn 0.9999924 -0.003921568 0
vn 0.9999924 -0.003921568 0
vn 0.9999924 -0.003921568 0
vn 0.003921568 -0.9999924 0
vn 0.003921568 -0.9999924 0
vn 0.003921568 -0.9999924 0
vn 0.003921568 -0.9999924 0
vn 0.01176465 -0.01176465 0.9998616
vn 0.01176465 -0.01176465 0.9998616
vn 0.01176465 -0.01176465 0.9998616
vn 0.01176465 -0.01176465 0.9998616
vn 0.003921568 0.9999923 -0.000345267
vn 0.003921568 0.9999923 -0.000345267
vn 0.003921568 0.9999923 -0.000345267
vn 0.003921568 0.9999923 -0.000345267
vn 0.01176465 -0.01176465 -0.9998616
vn 0.01176465 -0.01176465 -0.9998616
vn 0.01176465 -0.01176465 -0.9998616
vn 0.01176465 -0.01176465 -0.9998616
vn 0.003921568 -0.9999924 0
vn 0.003921568 -0.9999924 0
vn 0.003921568 -0.9999924 0
vn 0.003921568 -0.9999924 0
vn -0.9999923 -0.003921568 -0.0003442513
vn -0.9999923 -0.003921568 -0.0003442513
vn -0.9999923 -0.003921568 -0.0003442513
vn -0.9999923 -0.003921568 -0.0003442513
vn 0.9999924 -0.003921568 0
vn 0.9999924 -0.003921568 0
vn 0.9999924 -0.003921568 0
vn 0.9999924 -0.003921568 0
vn 0.01176465 -0.01176465 0.9998616
vn 0.01176465 -0.01176465 0.9998616
vn 0.01176465 -0.01176465 0.9998616
vn 0.01176465 -0.01176465 0.9998616
vn 0.01176465 -0.01176465 -0.9998616
vn 0.01176465 -0.01176465 -0.9998616
vn 0.01176465 -0.01176465 -0.9998616
vn 0.01176465 -0.01176465 -0.9998616
vn -0.9999923 -0.003921568 -0.0003442513
vn -0.9999923 -0.003921568 -0.0003442513
vn -0.9999923 -0.003921568 -0.0003442513
vn -0.9999923 -0.003921568 -0.0003442513
vn 0.9999924 -0.003921568 0
vn 0.9999924 -0.003921568 0
vn 0.9999924 -0.003921568 0
vn 0.9999924 -0.003921568 0
vn 0.003921568 -0.9999924 0
vn 0.003921568 -0.9999924 0
vn 0.003921568 -0.9999924 0
vn 0.003921568 -0.9999924 0
vn -0.8509738 -0.5137216 -0.1092411
vn -0.8509738 -0.5137216 -0.1092411
vn -0.8509738 -0.5137216 -0.1092411
vn -0.8509738 -0.5137216 -0.1092411
vn 0.8274447 0.5607799 -0.02934617
vn 0.8274447 0.5607799 -0.02934617
vn 0.8274447 0.5607799 -0.02934617
vn 0.8274447 0.5607799 -0.02934617
vn 0.01176465 -0.01176465 0.9998616
vn 0.01176465 -0.01176465 0.9998616
vn 0.01176465 -0.01176465 0.9998616
vn 0.01176465 -0.01176465 0.9998616
vn 0.01176465 -0.01176465 -0.9998616
vn 0.01176465 -0.01176465 -0.9998616
vn 0.01176465 -0.01176465 -0.9998616
vn 0.01176465 -0.01176465 -0.9998616
vn 0.01176465 -0.01176465 0.9998616
vn 0.01176465 -0.01176465 0.9998616
vn 0.01176465 -0.01176465 0.9998616
vn 0.01176465 -0.01176465 0.9998616
vn 0.9999924 -0.003921568 0
vn 0.9999924 -0.003921568 0
vn 0.9999924 -0.003921568 0
vn 0.9999924 -0.003921568 0
vn 0.01176465 -0.01176465 -0.9998616
vn 0.01176465 -0.01176465 -0.9998616
vn 0.01176465 -0.01176465 -0.9998616
vn 0.01176465 -0.01176465 -0.9998616
vn -0.9999923 -0.003921568 -0.0003442513
vn -0.9999923 -0.003921568 -0.0003442513
vn -0.9999923 -0.003921568 -0.0003442513
vn -0.9999923 -0.003921568 -0.0003442513
vn 0.003921568 0.9999923 -0.000345267
vn 0.003921568 0.9999923 -0.000345267
vn 0.003921568 0.9999923 -0.000345267
vn 0.003921568 0.9999923 -0.000345267
vn 0.01176465 -0.01176465 0.9998616
vn 0.01176465 -0.01176465 0.9998616
vn 0.01176465 -0.01176465 0.9998616
vn 0.01176465 -0.01176465 0.9998616
vn 0.01176465 -0.01176465 -0.9998616
vn 0.01176465 -0.01176465 -0.9998616
vn 0.01176465 -0.01176465 -0.9998616
vn 0.01176465 -0.01176465 -0.9998616
vn 0.01176465 -0.01176465 0.9998616
vn 0.01176465 -0.01176465 0.9998616
vn 0.01176465 -0.01176465 0.9998616
vn 0.01176465 -0.01176465 0.9998616
vn 0.01176465 -0.01176465 0.9998616
vn 0.01176465 -0.01176465 0.9998616
vn 0.01176465 -0.01176465 0.9998616
vn 0.01176465 -0.01176465 0.9998616
vn 0.01176465 -0.01176465 -0.9998616
vn 0.01176465 -0.01176465 -0.9998616
vn 0.01176465 -0.01176465 -0.9998616
vn 0.01176465 -0.01176465 -0.9998616
vn 0.01176465 -0.01176465 -0.9998616
vn 0.01176465 -0.01176465 -0.9998616
vn 0.01176465 -0.01176465 -0.9998616
vn 0.01176465 -0.01176465 -0.9998616
vn 0.01176465 -0.01176465 0.9998616
vn 0.01176465 -0.01176465 0.9998616
vn 0.01176465 -0.01176465 0.9998616
vn 0.01176465 -0.01176465 0.9998616
vn 0.01176465 -0.01176465 0.9998616
vn 0.01176465 -0.01176465 0.9998616
vn 0.01176465 -0.01176465 0.9998616
vn 0.01176465 -0.01176465 0.9998616
vn 0.01176465 -0.01176465 -0.9998616
vn 0.01176465 -0.01176465 -0.9998616
vn 0.01176465 -0.01176465 -0.9998616
vn 0.01176465 -0.01176465 -0.9998616
vn 0.01176465 -0.01176465 -0.9998616
vn 0.01176465 -0.01176465 -0.9998616
vn 0.01176465 -0.01176465 -0.9998616
vn 0.01176465 -0.01176465 -0.9998616
vn 0.003921568 -0.9999924 0
vn 0.003921568 -0.9999924 0
vn 0.003921568 -0.9999924 0
vn 0.003921568 -0.9999924 0
vn 0.003921568 0.9999923 -0.000345267
vn 0.003921568 0.9999923 -0.000345267
vn 0.003921568 0.9999923 -0.000345267
vn 0.003921568 0.9999923 -0.000345267
vn 0.01176465 -0.01176465 0.9998616
vn 0.01176465 -0.01176465 0.9998616
vn 0.01176465 -0.01176465 0.9998616
vn 0.01176465 -0.01176465 0.9998616
vn 0.01176465 -0.01176465 -0.9998616
vn 0.01176465 -0.01176465 -0.9998616
vn 0.01176465 -0.01176465 -0.9998616
vn 0.01176465 -0.01176465 -0.9998616
vn -0.9607769 -0.2705862 -0.06075203
vn -0.9607769 -0.2705862 -0.06075203
vn -0.9607769 -0.2705862 -0.06075203
vn -0.9607769 -0.2705862 -0.06075203
vn 0.003921568 -0.9999924 0
vn 0.003921568 -0.9999924 0
vn 0.003921568 -0.9999924 0
vn 0.003921568 -0.9999924 0
vn 0.003921568 0.9999923 -0.000345267
vn 0.003921568 0.9999923 -0.000345267
vn 0.003921568 0.9999923 -0.000345267
vn 0.003921568 0.9999923 -0.000345267
vn 0.01176465 -0.01176465 0.9998616
vn 0.01176465 -0.01176465 0.9998616
vn 0.01176465 -0.01176465 0.9998616
vn 0.01176465 -0.01176465 0.9998616
vn 0.9999924 -0.003921568 0
vn 0.9999924 -0.003921568 0
vn 0.9999924 -0.003921568 0
vn 0.9999924 -0.003921568 0
vn 0.01176465 -0.01176465 -0.9998616
vn 0.01176465 -0.01176465 -0.9998616
vn 0.01176465 -0.01176465 -0.9998616
vn 0.01176465 -0.01176465 -0.9998616
vn -0.9999923 -0.003921568 -0.0003442513
vn -0.9999923 -0.003921568 -0.0003442513
vn -0.9999923 -0.003921568 -0.0003442513
vn -0.9999923 -0.003921568 -0.0003442513
vn 0.2617947 -0.9651236 0
vn 0.2617947 -0.9651236 0
vn 0.2617947 -0.9651236 0
vn 0.2617947 -0.9651236 0
vn -0.2549 0.9607769 -0.1092414
vn -0.2549 0.9607769 -0.1092414
vn -0.2549 0.9607769 -0.1092414
vn -0.2549 0.9607769 -0.1092414
vn 0.9686201 0.2470568 -0.02716736
vn 0.9686201 0.2470568 -0.02716736
vn 0.9686201 0.2470568 -0.02716736
vn 0.9686201 0.2470568 -0.02716736
vn -0.9607769 -0.2705862 -0.06075203
vn -0.9607769 -0.2705862 -0.06075203
vn -0.9607769 -0.2705862 -0.06075203
vn -0.9607769 -0.2705862 -0.06075203
g DSJ_GTA_daoJu_taDiao_0
f 3/3/3 2/2/2 1/1/1
f 4/4/4 1/1/1 2/2/2
f 7/7/7 6/6/6 5/5/5
f 8/8/8 5/5/5 6/6/6
f 11/11/11 10/10/10 9/9/9
f 12/12/12 9/9/9 10/10/10
f 15/15/15 14/14/14 13/13/13
f 16/16/16 13/13/13 14/14/14
f 19/19/19 18/18/18 17/17/17
f 20/20/20 17/17/17 18/18/18
f 23/23/23 22/22/22 21/21/21
f 24/24/24 21/21/21 22/22/22
f 27/27/27 26/26/26 25/25/25
f 26/26/26 28/28/28 25/25/25
f 29/29/29 25/25/25 28/28/28
f 28/28/28 26/26/26 30/30/30
f 31/31/31 30/30/30 26/26/26
f 34/34/34 33/33/33 32/32/32
f 35/35/35 32/32/32 33/33/33
f 34/34/34 36/36/36 33/33/33
f 37/37/37 33/33/33 36/36/36
f 40/40/40 39/39/39 38/38/38
f 39/39/39 40/40/40 41/41/41
f 41/41/41 42/42/42 39/39/39
f 43/43/43 39/39/39 42/42/42
f 44/44/44 41/41/41 40/40/40
f 47/47/47 46/46/46 45/45/45
f 48/48/48 45/45/45 46/46/46
f 51/51/51 50/50/50 49/49/49
f 52/52/52 49/49/49 50/50/50
f 55/55/55 54/54/54 53/53/53
f 56/56/56 53/53/53 54/54/54
f 59/59/59 58/58/58 57/57/57
f 60/60/60 57/57/57 58/58/58
f 63/63/63 62/62/62 61/61/61
f 64/64/64 61/61/61 62/62/62
f 67/67/67 66/66/66 65/65/65
f 68/68/68 65/65/65 66/66/66
f 71/71/71 70/70/70 69/69/69
f 72/72/72 69/69/69 70/70/70
f 75/75/75 74/74/74 73/73/73
f 76/76/76 73/73/73 74/74/74
f 79/79/79 78/78/78 77/77/77
f 80/80/80 77/77/77 78/78/78
f 83/83/83 82/82/82 81/81/81
f 84/84/84 81/81/81 82/82/82
f 87/87/87 86/86/86 85/85/85
f 88/88/88 85/85/85 86/86/86
f 91/91/91 90/90/90 89/89/89
f 92/92/92 89/89/89 90/90/90
f 95/95/95 94/94/94 93/93/93
f 96/96/96 93/93/93 94/94/94
f 99/99/99 98/98/98 97/97/97
f 100/100/100 97/97/97 98/98/98
f 103/103/103 102/102/102 101/101/101
f 104/104/104 101/101/101 102/102/102
f 107/107/107 106/106/106 105/105/105
f 108/108/108 105/105/105 106/106/106
f 111/111/111 110/110/110 109/109/109
f 112/112/112 109/109/109 110/110/110
f 115/115/115 114/114/114 113/113/113
f 116/116/116 113/113/113 114/114/114
f 119/119/119 118/118/118 117/117/117
f 120/120/120 117/117/117 118/118/118
f 123/123/123 122/122/122 121/121/121
f 123/123/123 121/121/121 124/124/124
f 125/125/125 124/124/124 121/121/121
f 124/124/124 126/126/126 123/123/123
f 127/127/127 123/123/123 126/126/126
f 130/130/130 129/129/129 128/128/128
f 131/131/131 128/128/128 129/129/129
f 131/131/131 129/129/129 132/132/132
f 133/133/133 132/132/132 129/129/129
f 136/136/136 135/135/135 134/134/134
f 136/136/136 137/137/137 135/135/135
f 137/137/137 136/136/136 138/138/138
f 139/139/139 138/138/138 136/136/136
f 140/140/140 135/135/135 137/137/137
f 143/143/143 142/142/142 141/141/141
f 144/144/144 141/141/141 142/142/142
f 147/147/147 146/146/146 145/145/145
f 148/148/148 145/145/145 146/146/146
f 151/151/151 150/150/150 149/149/149
f 152/152/152 149/149/149 150/150/150
f 155/155/155 154/154/154 153/153/153
f 156/156/156 153/153/153 154/154/154
f 159/159/159 158/158/158 157/157/157
f 160/160/160 157/157/157 158/158/158
f 163/163/163 162/162/162 161/161/161
f 164/164/164 161/161/161 162/162/162
f 167/167/167 166/166/166 165/165/165
f 168/168/168 165/165/165 166/166/166
f 171/171/171 170/170/170 169/169/169
f 172/172/172 169/169/169 170/170/170
f 175/175/175 174/174/174 173/173/173
f 176/176/176 173/173/173 174/174/174
f 179/179/179 178/178/178 177/177/177
f 180/180/180 177/177/177 178/178/178
f 183/183/183 182/182/182 181/181/181
f 184/184/184 181/181/181 182/182/182
f 187/187/187 186/186/186 185/185/185
f 188/188/188 185/185/185 186/186/186
f 191/191/191 190/190/190 189/189/189
f 192/192/192 189/189/189 190/190/190
f 195/195/195 194/194/194 193/193/193
f 196/196/196 193/193/193 194/194/194
f 199/199/199 198/198/198 197/197/197
f 200/200/200 197/197/197 198/198/198
f 203/203/203 202/202/202 201/201/201
f 204/204/204 201/201/201 202/202/202
f 207/207/207 206/206/206 205/205/205
f 208/208/208 205/205/205 206/206/206
f 211/211/211 210/210/210 209/209/209
f 212/212/212 209/209/209 210/210/210
f 215/215/215 214/214/214 213/213/213
f 216/216/216 213/213/213 214/214/214
f 219/219/219 218/218/218 217/217/217
f 218/218/218 220/220/220 217/217/217
f 221/221/221 220/220/220 218/218/218
f 217/217/217 220/220/220 222/222/222
f 225/225/225 224/224/224 223/223/223
f 226/226/226 223/223/223 224/224/224
f 229/229/229 228/228/228 227/227/227
f 230/230/230 227/227/227 228/228/228
f 233/233/233 232/232/232 231/231/231
f 234/234/234 231/231/231 232/232/232
f 237/237/237 236/236/236 235/235/235
f 238/238/238 235/235/235 236/236/236
f 241/241/241 240/240/240 239/239/239
f 242/242/242 239/239/239 240/240/240
f 245/245/245 244/244/244 243/243/243
f 246/246/246 243/243/243 244/244/244
f 249/249/249 248/248/248 247/247/247
f 250/250/250 247/247/247 248/248/248
f 253/253/253 252/252/252 251/251/251
f 254/254/254 251/251/251 252/252/252
f 257/257/257 256/256/256 255/255/255
f 258/258/258 255/255/255 256/256/256
f 261/261/261 260/260/260 259/259/259
f 262/262/262 259/259/259 260/260/260
f 265/265/265 264/264/264 263/263/263
f 266/266/266 263/263/263 264/264/264
f 269/269/269 268/268/268 267/267/267
f 270/270/270 267/267/267 268/268/268
f 273/273/273 272/272/272 271/271/271
f 274/274/274 271/271/271 272/272/272
f 277/277/277 276/276/276 275/275/275
f 278/278/278 275/275/275 276/276/276
f 281/281/281 280/280/280 279/279/279
f 282/282/282 279/279/279 280/280/280
f 285/285/285 284/284/284 283/283/283
f 286/286/286 283/283/283 284/284/284
f 289/289/289 288/288/288 287/287/287
f 290/290/290 287/287/287 288/288/288
f 293/293/293 292/292/292 291/291/291
f 294/294/294 291/291/291 292/292/292
f 297/297/297 296/296/296 295/295/295
f 296/296/296 298/298/298 295/295/295
f 299/299/299 298/298/298 296/296/296
f 295/295/295 298/298/298 300/300/300
f 303/303/303 302/302/302 301/301/301
f 302/302/302 304/304/304 301/301/301
f 305/305/305 304/304/304 302/302/302
f 301/301/301 304/304/304 306/306/306
f 309/309/309 308/308/308 307/307/307
f 310/310/310 307/307/307 308/308/308
f 313/313/313 312/312/312 311/311/311
f 314/314/314 311/311/311 312/312/312
f 317/317/317 316/316/316 315/315/315
f 318/318/318 317/317/317 315/315/315
f 319/319/319 317/317/317 318/318/318
f 322/322/322 321/321/321 320/320/320
f 323/323/323 320/320/320 321/321/321
f 326/326/326 325/325/325 324/324/324
f 327/327/327 326/326/326 324/324/324
f 328/328/328 326/326/326 327/327/327
f 331/331/331 330/330/330 329/329/329
f 332/332/332 329/329/329 330/330/330
f 335/335/335 334/334/334 333/333/333
f 336/336/336 333/333/333 334/334/334
f 339/339/339 338/338/338 337/337/337
f 340/340/340 337/337/337 338/338/338
f 343/343/343 342/342/342 341/341/341
f 344/344/344 341/341/341 342/342/342
f 347/347/347 346/346/346 345/345/345
f 348/348/348 345/345/345 346/346/346
f 351/351/351 350/350/350 349/349/349
f 352/352/352 349/349/349 350/350/350
f 355/355/355 354/354/354 353/353/353
f 356/356/356 353/353/353 354/354/354
f 359/359/359 358/358/358 357/357/357
f 360/360/360 357/357/357 358/358/358
f 363/363/363 362/362/362 361/361/361
f 364/364/364 361/361/361 362/362/362
f 367/367/367 366/366/366 365/365/365
f 368/368/368 365/365/365 366/366/366
f 371/371/371 370/370/370 369/369/369
f 372/372/372 369/369/369 370/370/370
f 375/375/375 374/374/374 373/373/373
f 376/376/376 373/373/373 374/374/374
f 379/379/379 378/378/378 377/377/377
f 380/380/380 377/377/377 378/378/378
f 383/383/383 382/382/382 381/381/381
f 384/384/384 381/381/381 382/382/382
f 387/387/387 386/386/386 385/385/385
f 388/388/388 385/385/385 386/386/386
f 391/391/391 390/390/390 389/389/389
f 392/392/392 389/389/389 390/390/390
f 395/395/395 394/394/394 393/393/393
f 396/396/396 393/393/393 394/394/394
f 399/399/399 398/398/398 397/397/397
f 400/400/400 397/397/397 398/398/398
f 403/403/403 402/402/402 401/401/401
f 404/404/404 401/401/401 402/402/402
f 407/407/407 406/406/406 405/405/405
f 408/408/408 405/405/405 406/406/406
f 411/411/411 410/410/410 409/409/409
f 412/412/412 409/409/409 410/410/410
f 415/415/415 414/414/414 413/413/413
f 416/416/416 413/413/413 414/414/414
f 419/419/419 418/418/418 417/417/417
f 422/422/422 421/421/421 420/420/420
f 425/425/425 424/424/424 423/423/423
f 428/428/428 427/427/427 426/426/426
f 431/431/431 430/430/430 429/429/429
f 432/432/432 429/429/429 430/430/430
f 435/435/435 434/434/434 433/433/433
f 436/436/436 433/433/433 434/434/434
f 439/439/439 438/438/438 437/437/437
f 440/440/440 437/437/437 438/438/438
f 443/443/443 442/442/442 441/441/441
f 444/444/444 441/441/441 442/442/442
f 447/447/447 446/446/446 445/445/445
f 448/448/448 445/445/445 446/446/446
f 451/451/451 450/450/450 449/449/449
f 452/452/452 449/449/449 450/450/450
f 455/455/455 454/454/454 453/453/453
f 456/456/456 453/453/453 454/454/454
f 459/459/459 458/458/458 457/457/457
f 460/460/460 457/457/457 458/458/458
f 463/463/463 462/462/462 461/461/461
f 464/464/464 461/461/461 462/462/462
f 467/467/467 466/466/466 465/465/465
f 468/468/468 465/465/465 466/466/466
f 471/471/471 470/470/470 469/469/469
f 472/472/472 469/469/469 470/470/470
f 475/475/475 474/474/474 473/473/473
f 476/476/476 473/473/473 474/474/474
f 479/479/479 478/478/478 477/477/477
f 480/480/480 477/477/477 478/478/478
f 483/483/483 482/482/482 481/481/481
f 484/484/484 481/481/481 482/482/482
f 487/487/487 486/486/486 485/485/485
f 488/488/488 485/485/485 486/486/486
f 491/491/491 490/490/490 489/489/489
f 492/492/492 489/489/489 490/490/490
f 495/495/495 494/494/494 493/493/493
f 496/496/496 493/493/493 494/494/494
f 499/499/499 498/498/498 497/497/497
f 500/500/500 497/497/497 498/498/498
f 503/503/503 502/502/502 501/501/501
f 504/504/504 501/501/501 502/502/502
f 507/507/507 506/506/506 505/505/505
f 508/508/508 505/505/505 506/506/506
f 511/511/511 510/510/510 509/509/509
f 512/512/512 509/509/509 510/510/510
f 515/515/515 514/514/514 513/513/513
f 516/516/516 513/513/513 514/514/514
f 519/519/519 518/518/518 517/517/517
f 520/520/520 517/517/517 518/518/518
f 523/523/523 522/522/522 521/521/521
f 524/524/524 521/521/521 522/522/522
f 527/527/527 526/526/526 525/525/525
f 528/528/528 525/525/525 526/526/526
f 531/531/531 530/530/530 529/529/529
f 532/532/532 529/529/529 530/530/530
f 530/530/530 531/531/531 533/533/533
f 534/534/534 533/533/533 531/531/531
f 537/537/537 536/536/536 535/535/535
f 538/538/538 535/535/535 536/536/536
f 536/536/536 537/537/537 539/539/539
f 540/540/540 539/539/539 537/537/537
f 543/543/543 542/542/542 541/541/541
f 544/544/544 541/541/541 542/542/542
f 547/547/547 546/546/546 545/545/545
f 548/548/548 545/545/545 546/546/546
f 546/546/546 549/549/549 548/548/548
f 550/550/550 548/548/548 549/549/549
f 553/553/553 552/552/552 551/551/551
f 554/554/554 551/551/551 552/552/552
f 557/557/557 556/556/556 555/555/555
f 558/558/558 555/555/555 556/556/556
f 561/561/561 560/560/560 559/559/559
f 562/562/562 559/559/559 560/560/560
f 565/565/565 564/564/564 563/563/563
f 566/566/566 563/563/563 564/564/564
f 563/563/563 566/566/566 567/567/567
f 568/568/568 567/567/567 566/566/566
f 567/567/567 568/568/568 569/569/569
f 570/570/570 569/569/569 568/568/568
f 569/569/569 570/570/570 571/571/571
f 572/572/572 571/571/571 570/570/570
f 572/572/572 573/573/573 571/571/571
f 574/574/574 571/571/571 573/573/573
f 573/573/573 575/575/575 574/574/574
f 576/576/576 574/574/574 575/575/575
f 579/579/579 578/578/578 577/577/577
f 580/580/580 577/577/577 578/578/578
f 577/577/577 581/581/581 579/579/579
f 582/582/582 579/579/579 581/581/581
f 582/582/582 581/581/581 583/583/583
f 584/584/584 583/583/583 581/581/581
f 583/583/583 584/584/584 585/585/585
f 586/586/586 585/585/585 584/584/584
f 585/585/585 586/586/586 587/587/587
f 588/588/588 587/587/587 586/586/586
f 587/587/587 588/588/588 589/589/589
f 590/590/590 589/589/589 588/588/588
f 593/593/593 592/592/592 591/591/591
f 594/594/594 591/591/591 592/592/592
f 591/591/591 594/594/594 595/595/595
f 596/596/596 595/595/595 594/594/594
f 599/599/599 598/598/598 597/597/597
f 600/600/600 597/597/597 598/598/598
f 598/598/598 599/599/599 601/601/601
f 602/602/602 601/601/601 599/599/599
f 601/601/601 602/602/602 603/603/603
f 604/604/604 603/603/603 602/602/602
f 603/603/603 604/604/604 605/605/605
f 606/606/606 605/605/605 604/604/604
f 609/609/609 608/608/608 607/607/607
f 610/610/610 607/607/607 608/608/608
f 607/607/607 610/610/610 611/611/611
f 612/612/612 611/611/611 610/610/610
f 611/611/611 612/612/612 613/613/613
f 614/614/614 613/613/613 612/612/612
f 613/613/613 614/614/614 615/615/615
f 616/616/616 615/615/615 614/614/614
f 616/616/616 617/617/617 615/615/615
f 618/618/618 615/615/615 617/617/617
f 617/617/617 619/619/619 618/618/618
f 620/620/620 618/618/618 619/619/619
f 623/623/623 622/622/622 621/621/621
f 624/624/624 621/621/621 622/622/622
f 621/621/621 625/625/625 623/623/623
f 626/626/626 623/623/623 625/625/625
f 626/626/626 625/625/625 627/627/627
f 628/628/628 627/627/627 625/625/625
f 627/627/627 628/628/628 629/629/629
f 630/630/630 629/629/629 628/628/628
f 629/629/629 630/630/630 631/631/631
f 632/632/632 631/631/631 630/630/630
f 631/631/631 632/632/632 633/633/633
f 634/634/634 633/633/633 632/632/632
f 637/637/637 636/636/636 635/635/635
f 638/638/638 635/635/635 636/636/636
f 635/635/635 638/638/638 639/639/639
f 640/640/640 639/639/639 638/638/638
f 643/643/643 642/642/642 641/641/641
f 644/644/644 641/641/641 642/642/642
f 642/642/642 643/643/643 645/645/645
f 646/646/646 645/645/645 643/643/643
f 645/645/645 646/646/646 647/647/647
f 648/648/648 647/647/647 646/646/646
f 647/647/647 648/648/648 649/649/649
f 650/650/650 649/649/649 648/648/648
f 653/653/653 652/652/652 651/651/651
f 654/654/654 651/651/651 652/652/652
f 657/657/657 656/656/656 655/655/655
f 658/658/658 655/655/655 656/656/656
f 656/656/656 659/659/659 658/658/658
f 660/660/660 658/658/658 659/659/659
f 660/660/660 659/659/659 661/661/661
f 662/662/662 661/661/661 659/659/659
f 665/665/665 664/664/664 663/663/663
f 663/663/663 666/666/666 665/665/665
f 667/667/667 665/665/665 666/666/666
f 668/668/668 667/667/667 666/666/666
f 671/671/671 670/670/670 669/669/669
f 670/670/670 672/672/672 669/669/669
f 673/673/673 669/669/669 672/672/672
f 672/672/672 674/674/674 673/673/673
f 677/677/677 676/676/676 675/675/675
f 678/678/678 675/675/675 676/676/676
f 681/681/681 680/680/680 679/679/679
f 682/682/682 679/679/679 680/680/680
f 685/685/685 684/684/684 683/683/683
f 686/686/686 683/683/683 684/684/684
f 689/689/689 688/688/688 687/687/687
f 690/690/690 687/687/687 688/688/688
f 693/693/693 692/692/692 691/691/691
f 694/694/694 691/691/691 692/692/692
f 697/697/697 696/696/696 695/695/695
f 698/698/698 695/695/695 696/696/696
f 701/701/701 700/700/700 699/699/699
f 702/702/702 699/699/699 700/700/700
f 705/705/705 704/704/704 703/703/703
f 706/706/706 703/703/703 704/704/704
f 709/709/709 708/708/708 707/707/707
f 710/710/710 707/707/707 708/708/708
f 713/713/713 712/712/712 711/711/711
f 714/714/714 711/711/711 712/712/712
f 717/717/717 716/716/716 715/715/715
f 718/718/718 715/715/715 716/716/716
f 721/721/721 720/720/720 719/719/719
f 722/722/722 719/719/719 720/720/720
f 725/725/725 724/724/724 723/723/723
f 726/726/726 723/723/723 724/724/724
f 729/729/729 728/728/728 727/727/727
f 730/730/730 727/727/727 728/728/728
f 733/733/733 732/732/732 731/731/731
f 734/734/734 731/731/731 732/732/732
f 737/737/737 736/736/736 735/735/735
f 738/738/738 735/735/735 736/736/736
f 741/741/741 740/740/740 739/739/739
f 742/742/742 739/739/739 740/740/740
f 745/745/745 744/744/744 743/743/743
f 746/746/746 743/743/743 744/744/744
f 749/749/749 748/748/748 747/747/747
f 750/750/750 747/747/747 748/748/748
f 753/753/753 752/752/752 751/751/751
f 754/754/754 751/751/751 752/752/752
f 757/757/757 756/756/756 755/755/755
f 758/758/758 755/755/755 756/756/756
f 761/761/761 760/760/760 759/759/759
f 762/762/762 759/759/759 760/760/760
f 765/765/765 764/764/764 763/763/763
f 766/766/766 763/763/763 764/764/764
f 769/769/769 768/768/768 767/767/767
f 770/770/770 767/767/767 768/768/768
f 773/773/773 772/772/772 771/771/771
f 774/774/774 771/771/771 772/772/772
f 777/777/777 776/776/776 775/775/775
f 778/778/778 775/775/775 776/776/776
f 781/781/781 780/780/780 779/779/779
f 782/782/782 779/779/779 780/780/780
f 785/785/785 784/784/784 783/783/783
f 786/786/786 783/783/783 784/784/784
f 789/789/789 788/788/788 787/787/787
f 790/790/790 787/787/787 788/788/788
f 793/793/793 792/792/792 791/791/791
f 794/794/794 791/791/791 792/792/792
f 792/792/792 793/793/793 795/795/795
f 796/796/796 795/795/795 793/793/793
f 795/795/795 796/796/796 797/797/797
f 798/798/798 797/797/797 796/796/796
f 791/791/791 794/794/794 798/798/798
f 797/797/797 798/798/798 794/794/794
f 801/801/801 800/800/800 799/799/799
f 802/802/802 799/799/799 800/800/800
f 800/800/800 801/801/801 803/803/803
f 804/804/804 803/803/803 801/801/801
f 803/803/803 804/804/804 805/805/805
f 806/806/806 805/805/805 804/804/804
f 799/799/799 802/802/802 806/806/806
f 805/805/805 806/806/806 802/802/802
f 809/809/809 808/808/808 807/807/807
f 810/810/810 807/807/807 808/808/808
f 808/808/808 809/809/809 811/811/811
f 812/812/812 811/811/811 809/809/809
f 811/811/811 812/812/812 813/813/813
f 814/814/814 813/813/813 812/812/812
f 807/807/807 810/810/810 814/814/814
f 813/813/813 814/814/814 810/810/810
f 817/817/817 816/816/816 815/815/815
f 818/818/818 815/815/815 816/816/816
f 816/816/816 817/817/817 819/819/819
f 820/820/820 819/819/819 817/817/817
f 819/819/819 820/820/820 821/821/821
f 822/822/822 821/821/821 820/820/820
f 815/815/815 818/818/818 822/822/822
f 821/821/821 822/822/822 818/818/818
f 825/825/825 824/824/824 823/823/823
f 826/826/826 823/823/823 824/824/824
f 829/829/829 828/828/828 827/827/827
f 830/830/830 827/827/827 828/828/828
f 833/833/833 832/832/832 831/831/831
f 834/834/834 831/831/831 832/832/832
f 837/837/837 836/836/836 835/835/835
f 838/838/838 835/835/835 836/836/836
f 841/841/841 840/840/840 839/839/839
f 842/842/842 839/839/839 840/840/840
f 845/845/845 844/844/844 843/843/843
f 846/846/846 843/843/843 844/844/844
f 849/849/849 848/848/848 847/847/847
f 850/850/850 847/847/847 848/848/848
f 853/853/853 852/852/852 851/851/851
f 854/854/854 851/851/851 852/852/852
f 857/857/857 856/856/856 855/855/855
f 858/858/858 855/855/855 856/856/856
f 861/861/861 860/860/860 859/859/859
f 862/862/862 859/859/859 860/860/860
f 865/865/865 864/864/864 863/863/863
f 866/866/866 863/863/863 864/864/864
f 869/869/869 868/868/868 867/867/867
f 870/870/870 867/867/867 868/868/868
f 873/873/873 872/872/872 871/871/871
f 874/874/874 871/871/871 872/872/872
f 877/877/877 876/876/876 875/875/875
f 878/878/878 875/875/875 876/876/876
f 881/881/881 880/880/880 879/879/879
f 882/882/882 879/879/879 880/880/880
