g DSJ_GTA_daoJu_zhuangShi_21
v 4.291534E-06 0.09305286 -4.291534E-06
v -0.09785771 0.08876896 -0.06940246
v -0.02011681 0.08876896 -0.1182826
v -0.09382606 0.08876896 0.05898452
v 0.02013063 0.08876896 0.118274
v 4.291534E-06 0.09305286 -4.291534E-06
v 0.09787154 0.08876896 0.06939411
v 0.02013063 0.08876896 0.118274
v 0.09384513 0.08876896 -0.05899835
v -0.02011681 0.08876896 -0.1182826
v -0.02011681 0.08876896 -0.1182826
v -0.1288552 0.006255388 -0.0913918
v -0.02648926 0.006255388 -0.1557437
v -0.09785771 0.08876896 -0.06940246
v -0.09785771 0.08876896 -0.06940246
v -0.1235566 0.006255388 0.07767224
v -0.1288552 0.006255388 -0.0913918
v -0.09382606 0.08876896 0.05898452
v -0.09382606 0.08876896 0.05898452
v 0.02650309 0.006255388 0.1557298
v -0.1235566 0.006255388 0.07767224
v 0.02013063 0.08876896 0.118274
v 0.02013063 0.08876896 0.118274
v 0.1288692 0.006255388 0.09137249
v 0.02650309 0.006255388 0.1557298
v 0.09787154 0.08876896 0.06939411
v 0.09787154 0.08876896 0.06939411
v 0.1235704 0.006255388 -0.07768083
v 0.1288692 0.006255388 0.09137249
v 0.09384513 0.08876896 -0.05899835
v 0.09384513 0.08876896 -0.05899835
v -0.02648926 0.006255388 -0.1557437
v 0.1235704 0.006255388 -0.07768083
v -0.02011681 0.08876896 -0.1182826
v -1.175574 2.921483 -1.242855
v -1.483859 2.681695 -1.568775
v -0.9200397 2.709304 -1.701365
v 0.04905057 2.919346 -1.763495
v 4.291534E-06 3.366535 -4.291534E-06
v -0.505239 2.681464 -2.101918
v 0.05378032 2.709299 -1.933482
v -1.647581 2.709304 -1.013197
v -1.483859 2.681695 -1.568775
v -1.175574 2.921483 -1.242855
v -1.763486 2.919346 -0.04905057
v 4.291534E-06 3.366535 -4.291534E-06
v -2.07058 2.681464 -0.621298
v -1.933474 2.709299 -0.05378032
v -1.013183 2.709304 1.647586
v -1.568761 2.681695 1.483864
v -1.242841 2.921483 1.175579
v -0.04903674 2.919346 1.763486
v 4.291534E-06 3.366535 -4.291534E-06
v -0.6212895 2.681464 2.07058
v -0.05376649 2.709299 1.933474
v -1.242841 2.921483 1.175579
v -1.568761 2.681695 1.483864
v -1.701352 2.709304 0.9200451
v -1.763486 2.919346 -0.04905057
v 4.291534E-06 3.366535 -4.291534E-06
v -2.10191 2.681464 0.505239
v -1.933474 2.709299 -0.05378032
v 1.013197 2.709304 -1.647589
v 1.568775 2.681695 -1.483878
v 1.242855 2.921483 -1.175588
v 0.04905057 2.919346 -1.763495
v 4.291534E-06 3.366535 -4.291534E-06
v 0.621298 2.681464 -2.070593
v 0.05378032 2.709299 -1.933482
v 1.242855 2.921483 -1.175588
v 1.568775 2.681695 -1.483878
v 1.701365 2.709304 -0.9200536
v 1.763495 2.919346 0.04903674
v 4.291534E-06 3.366535 -4.291534E-06
v 2.101918 2.681464 -0.505253
v 1.933488 2.709299 0.05376649
v 1.175588 2.921483 1.242846
v 1.483878 2.681695 1.568761
v 0.9200536 2.709304 1.701352
v -0.04903674 2.919346 1.763486
v 4.291534E-06 3.366535 -4.291534E-06
v 0.505253 2.681464 2.101915
v -0.05376649 2.709299 1.933474
v 1.647589 2.709304 1.013183
v 1.483878 2.681695 1.568761
v 1.175588 2.921483 1.242846
v 1.763495 2.919346 0.04903674
v 4.291534E-06 3.366535 -4.291534E-06
v 2.070593 2.681464 0.6212895
v 1.933488 2.709299 0.05376649
v -0.01151109 3.397811 -0.02290606
v 4.291534E-06 3.527331 -4.291534E-06
v -0.02289224 3.397811 0.01151657
v -0.02325201 0.0856874 0.01113534
v -0.01113534 0.0856874 -0.02326584
v 0.02290606 3.397811 -0.01152492
v 4.291534E-06 3.527331 -4.291534E-06
v -0.01151109 3.397811 -0.02290606
v -0.01113534 0.0856874 -0.02326584
v 0.02326584 0.0856874 -0.01114392
v 0.01152492 3.397811 0.02289772
v 4.291534E-06 3.527331 -4.291534E-06
v 0.02290606 3.397811 -0.01152492
v 0.02326584 0.0856874 -0.01114392
v 0.01114917 0.0856874 0.02325201
v -0.02289224 3.397811 0.01151657
v 4.291534E-06 3.527331 -4.291534E-06
v 0.01152492 3.397811 0.02289772
v -0.02325201 0.0856874 0.01113534
v 0.01114917 0.0856874 0.02325201
v -0.9200397 2.709304 -1.701365
v 0.006918907 3.192515 0.004328012
v -0.505239 2.681464 -2.101918
v -1.483859 2.681695 -1.568775
v -1.647581 2.709304 -1.013197
v -0.505239 2.681464 -2.101918
v 0.006918907 3.192515 0.004328012
v 0.05378032 2.709299 -1.933482
v 0.621298 2.681464 -2.070593
v 1.013197 2.709304 -1.647589
v 1.013197 2.709304 -1.647589
v 0.006918907 3.192515 0.004328012
v 1.568775 2.681695 -1.483878
v 1.701365 2.709304 -0.9200536
v 2.101918 2.681464 -0.505253
v 2.101918 2.681464 -0.505253
v 0.006918907 3.192515 0.004328012
v 1.933488 2.709299 0.05376649
v 2.070593 2.681464 0.6212895
v 1.647589 2.709304 1.013183
v 1.647589 2.709304 1.013183
v 0.006918907 3.192515 0.004328012
v 1.483878 2.681695 1.568761
v 0.9200536 2.709304 1.701352
v 0.505253 2.681464 2.101915
v 0.505253 2.681464 2.101915
v 0.006918907 3.192515 0.004328012
v -0.05376649 2.709299 1.933474
v -0.6212895 2.681464 2.07058
v -1.013183 2.709304 1.647586
v -1.013183 2.709304 1.647586
v 0.006918907 3.192515 0.004328012
v -1.568761 2.681695 1.483864
v -1.701352 2.709304 0.9200451
v -2.10191 2.681464 0.505239
v -2.10191 2.681464 0.505239
v 0.006918907 3.192515 0.004328012
v -1.933474 2.709299 -0.05378032
v -2.07058 2.681464 -0.621298
v -1.647581 2.709304 -1.013197
vt 0.3520125 0.7259746
vt 0.359166 0.7354107
vt 0.362366 0.7259746
vt 0.3484084 0.7373329
vt 0.3416698 0.7259746
vt 0.3519688 0.7259746
vt 0.3448261 0.7354326
vt 0.3416152 0.7259746
vt 0.3555838 0.737322
vt 0.3623223 0.7259746
vt 0.362366 0.7259746
vt 0.3655005 0.7441261
vt 0.3721626 0.7259746
vt 0.359166 0.7354107
vt 0.359166 0.7354107
vt 0.3452521 0.7476428
vt 0.3655005 0.7441261
vt 0.3484084 0.7373329
vt 0.3484084 0.7373329
vt 0.3318077 0.7259746
vt 0.3452521 0.7476428
vt 0.3416698 0.7259746
vt 0.3416152 0.7259746
vt 0.3384917 0.744148
vt 0.3318077 0.7259746
vt 0.3448261 0.7354326
vt 0.3448261 0.7354326
vt 0.3587401 0.7476319
vt 0.3384917 0.744148
vt 0.3555838 0.737322
vt 0.3555838 0.737322
vt 0.3721626 0.7259746
vt 0.3587401 0.7476319
vt 0.3623223 0.7259746
vt 0.2324114 0.9023346
vt 0.2423936 0.9107987
vt 0.2410831 0.8976929
vt 0.2324333 0.8808848
vt 0.1978886 0.890867
vt 0.2440755 0.8849366
vt 0.2395213 0.872781
vt 0.2410831 0.8976929
vt 0.2423936 0.9107987
vt 0.2324114 0.9023346
vt 0.2324333 0.8808848
vt 0.1978886 0.890867
vt 0.2440755 0.8849366
vt 0.2395213 0.872781
vt 0.2410831 0.8976929
vt 0.2423936 0.9107987
vt 0.2324114 0.9023346
vt 0.2324333 0.8808848
vt 0.1978886 0.890867
vt 0.2440755 0.8849366
vt 0.2395213 0.872781
vt 0.2324114 0.9023346
vt 0.2423936 0.9107987
vt 0.2410831 0.8976929
vt 0.2324333 0.8808848
vt 0.1978886 0.890867
vt 0.2440755 0.8849366
vt 0.2395213 0.872781
vt 0.2410831 0.8976929
vt 0.2423936 0.9107987
vt 0.2324114 0.9023346
vt 0.2324333 0.8808848
vt 0.1978886 0.890867
vt 0.2440755 0.8849366
vt 0.2395213 0.872781
vt 0.2324114 0.9023346
vt 0.2423936 0.9107987
vt 0.2410831 0.8976929
vt 0.2324333 0.8808848
vt 0.1978886 0.890867
vt 0.2440755 0.8849366
vt 0.2395213 0.872781
vt 0.2324114 0.9023346
vt 0.2423936 0.9107987
vt 0.2410831 0.8976929
vt 0.2324333 0.8808848
vt 0.1978886 0.890867
vt 0.2440755 0.8849366
vt 0.2395213 0.872781
vt 0.2410831 0.8976929
vt 0.2423936 0.9107987
vt 0.2324114 0.9023346
vt 0.2324333 0.8808848
vt 0.1978886 0.890867
vt 0.2440755 0.8849366
vt 0.2395213 0.872781
vt 0.2498858 0.7769997
vt 0.2580769 0.7846994
vt 0.265427 0.7769997
vt 0.265427 0.6942805
vt 0.2498858 0.6942805
vt 0.2498858 0.7769997
vt 0.2580769 0.7846994
vt 0.265427 0.7769997
vt 0.265427 0.6942805
vt 0.2498858 0.6942805
vt 0.2498858 0.7769997
vt 0.2580769 0.7846994
vt 0.265427 0.7769997
vt 0.265427 0.6942805
vt 0.2498858 0.6942805
vt 0.2498858 0.7769997
vt 0.2580769 0.7846994
vt 0.265427 0.7769997
vt 0.2498858 0.6942805
vt 0.265427 0.6942805
vt 0.2395104 0.8975073
vt 0.1968839 0.8903974
vt 0.2411813 0.9126226
vt 0.2445889 0.8835496
vt 0.2367582 0.8714486
vt 0.2411813 0.9126226
vt 0.1968839 0.8903974
vt 0.2395104 0.8975073
vt 0.2445889 0.8835496
vt 0.2367582 0.8714486
vt 0.2367582 0.8714486
vt 0.1968839 0.8903974
vt 0.2445889 0.8835496
vt 0.2395104 0.8975073
vt 0.2411813 0.9126226
vt 0.2411813 0.9126226
vt 0.1968839 0.8903974
vt 0.2395104 0.8975073
vt 0.2445889 0.8835496
vt 0.2367582 0.8714486
vt 0.2367582 0.8714486
vt 0.1968839 0.8903974
vt 0.2445889 0.8835496
vt 0.2395104 0.8975073
vt 0.2411813 0.9126226
vt 0.2411813 0.9126226
vt 0.1968839 0.8903974
vt 0.2395104 0.8975073
vt 0.2445889 0.8835496
vt 0.2367582 0.8714486
vt 0.2367582 0.8714486
vt 0.1968839 0.8903974
vt 0.2445889 0.8835496
vt 0.2395104 0.8975073
vt 0.2411813 0.9126226
vt 0.2411813 0.9126226
vt 0.1968839 0.8903974
vt 0.2395104 0.8975073
vt 0.2445889 0.8835496
vt 0.2367582 0.8714486
vn 0.003921568 0.9999923 -0.000345267
vn -0.02745068 0.9921492 -0.1220098
vn 0.003921568 0.9921492 -0.1249981
vn -0.02745068 0.9921492 0.1220098
vn 0.003921568 0.9921492 0.1249981
vn 0.003921568 0.9999923 -0.000345267
vn 0.04313695 0.9921492 0.1173844
vn 0.003921568 0.9921492 0.1249981
vn 0.04313695 0.9921492 -0.1173844
vn 0.003921568 0.9921492 -0.1249981
vn -0.4823492 0.3882322 -0.7852484
vn -0.4823492 0.3882322 -0.7852484
vn -0.4823492 0.3882322 -0.7852484
vn -0.4823492 0.3882322 -0.7852484
vn -0.9372476 0.3411738 0.07188428
vn -0.9372476 0.3411738 0.07188428
vn -0.9372476 0.3411738 0.07188428
vn -0.9372476 0.3411738 0.07188428
vn -0.4274477 0.3411738 0.8371911
vn -0.4274477 0.3411738 0.8371911
vn -0.4274477 0.3411738 0.8371911
vn -0.4274477 0.3411738 0.8371911
vn 0.4980354 0.3882322 0.7753944
vn 0.4980354 0.3882322 0.7753944
vn 0.4980354 0.3882322 0.7753944
vn 0.4980354 0.3882322 0.7753944
vn 0.9430625 0.3326154 0
vn 0.9430625 0.3326154 0
vn 0.9430625 0.3326154 0
vn 0.9430625 0.3326154 0
vn 0.4431339 0.3411738 -0.8289951
vn 0.4431339 0.3411738 -0.8289951
vn 0.4431339 0.3411738 -0.8289951
vn 0.4431339 0.3411738 -0.8289951
vn -0.2705861 0.9137185 -0.303153
vn -0.3176446 0.874503 -0.3665329
vn -0.1999984 0.8588169 -0.4716293
vn 0.01960772 0.874503 -0.4846236
vn 0.003921568 0.9999923 -0.000345267
vn -0.1450969 0.9058753 -0.3979155
vn 0.03529388 0.6235245 -0.7810067
vn -0.4431338 0.8588169 -0.257033
vn -0.3176446 0.874503 -0.3665329
vn -0.2705861 0.9137185 -0.303153
vn -0.466663 0.874503 -0.1321744
vn 0.003921568 0.9999923 -0.000345267
vn -0.3803892 0.9058753 -0.1862631
vn -0.7725431 0.6235245 -0.1199764
vn -0.2235277 0.8588169 0.4609436
vn -0.3411738 0.874503 0.3447389
vn -0.2862723 0.9137185 0.2883865
vn -0.01176453 0.874503 0.4848773
vn 0.003921568 0.9999923 -0.000345267
vn -0.1686261 0.9058753 0.3885294
vn -0.01960766 0.6235245 0.7815579
vn -0.2862723 0.9137185 0.2883865
vn -0.3411738 0.874503 0.3447389
vn -0.45882 0.8588169 0.2278548
vn -0.466663 0.874503 -0.1321744
vn 0.003921568 0.9999923 -0.000345267
vn -0.3882322 0.9058753 0.1693092
vn -0.7725431 0.6235245 -0.1199764
vn 0.2392139 0.8588169 -0.4530015
vn 0.35686 0.874503 -0.3284743
vn 0.3019585 0.9137185 -0.2719184
vn 0.01960772 0.874503 -0.4846236
vn 0.003921568 0.9999923 -0.000345267
vn 0.1843123 0.9058753 -0.3813382
vn 0.03529388 0.6235245 -0.7810067
vn 0.3019585 0.9137185 -0.2719184
vn 0.35686 0.874503 -0.3284743
vn 0.4745062 0.8588169 -0.1930737
vn 0.4823493 0.874503 0.05082935
vn 0.003921568 0.9999923 -0.000345267
vn 0.4039185 0.9058753 -0.1274351
vn 0.7842832 0.6204031 0
vn 0.2862723 0.9137185 0.2883864
vn 0.3333308 0.874503 0.352328
vn 0.2156847 0.8588169 0.4646652
vn -0.01176453 0.874503 0.4848773
vn 0.003921568 0.9999923 -0.000345267
vn 0.1607831 0.9058753 0.3918402
vn -0.01960766 0.6235245 0.7815579
vn 0.45882 0.8588169 0.2278546
vn 0.3333308 0.874503 0.352328
vn 0.2862723 0.9137185 0.2883864
vn 0.4823493 0.874503 0.05082935
vn 0.003921568 0.9999923 -0.000345267
vn 0.3960754 0.9058753 0.1500472
vn 0.7842832 0.6204031 0
vn -0.9450908 0.05882299 -0.3214705
vn -0.9372476 0.1372538 -0.3205125
vn -0.9450908 0.05882299 -0.3214705
vn -0.9372476 -0.003921568 -0.3486424
vn -0.9372476 -0.003921568 -0.3486424
vn 0.3254877 0.05882299 -0.9437148
vn 0.3254877 0.1372538 -0.9355315
vn 0.3254877 0.05882299 -0.9437148
vn 0.3411739 -0.003921568 -0.939992
vn 0.3411739 -0.003921568 -0.939992
vn 0.960777 0.05882299 0.2710119
vn 0.9529339 0.1372538 0.2703301
vn 0.960777 0.05882299 0.2710119
vn 0.9529339 -0.003921568 0.3031528
vn 0.9529339 -0.003921568 0.3031528
vn -0.3098015 0.05882299 0.9489799
vn -0.3098015 0.1372538 0.9408424
vn -0.3098015 0.05882299 0.9489799
vn -0.3254876 -0.003921568 0.9455382
vn -0.3254876 -0.003921568 0.9455382
vn 0.1294108 -0.9843062 0.1199754
vn 0.003921568 -0.9999924 0
vn 0.06666619 -0.9843062 0.1633919
vn 0.1686262 -0.9843062 0.05202373
vn 0.2140451 -0.9768239 0
vn 0.06666619 -0.9843062 0.1633919
vn 0.003921568 -0.9999924 0
vn -0.003921509 -0.9843062 0.1764254
vn -0.05882299 -0.9843062 0.1663764
vn -0.1215676 -0.9843062 0.1279164
vn -0.1215676 -0.9843062 0.1279164
vn 0.003921568 -0.9999924 0
vn -0.1607831 -0.9843062 0.07273301
vn -0.2065998 -0.9784256 0
vn -0.2156845 -0.9764631 0
vn -0.2156845 -0.9764631 0
vn 0.003921568 -0.9999924 0
vn -0.2305637 -0.9730572 0
vn -0.214045 -0.9768239 0
vn -0.1991184 -0.9799753 0
vn -0.1991184 -0.9799753 0
vn 0.003921568 -0.9999924 0
vn -0.1529399 -0.9843062 -0.088038
vn -0.1137246 -0.9843062 -0.1349371
vn -0.05097997 -0.9843062 -0.1689448
vn -0.05097997 -0.9843062 -0.1689448
vn 0.003921568 -0.9999924 0
vn 0.01176465 -0.9843062 -0.1760763
vn 0.07450926 -0.9843062 -0.1599676
vn 0.1372539 -0.9843062 -0.1109173
vn 0.1372539 -0.9843062 -0.1109173
vn 0.003921568 -0.9999924 0
vn 0.1764693 -0.9843062 0
vn 0.2140451 -0.9768239 0
vn 0.2231437 -0.9747855 0
vn 0.2231437 -0.9747855 0
vn 0.003921568 -0.9999924 0
vn 0.2452829 -0.9694515 0
vn 0.2231437 -0.9747855 0
vn 0.2140451 -0.9768239 0
g DSJ_GTA_daoJu_zhuangShi_21_0
f 3/3/3 2/2/2 1/1/1
f 2/2/2 4/4/4 1/1/1
f 4/4/4 5/5/5 1/1/1
f 8/8/8 7/7/7 6/6/6
f 7/7/7 9/9/9 6/6/6
f 9/9/9 10/10/10 6/6/6
f 13/13/13 12/12/12 11/11/11
f 14/14/14 11/11/11 12/12/12
f 17/17/17 16/16/16 15/15/15
f 18/18/18 15/15/15 16/16/16
f 21/21/21 20/20/20 19/19/19
f 22/22/22 19/19/19 20/20/20
f 25/25/25 24/24/24 23/23/23
f 26/26/26 23/23/23 24/24/24
f 29/29/29 28/28/28 27/27/27
f 30/30/30 27/27/27 28/28/28
f 33/33/33 32/32/32 31/31/31
f 34/34/34 31/31/31 32/32/32
f 37/37/37 36/36/36 35/35/35
f 35/35/35 38/38/38 37/37/37
f 38/38/38 35/35/35 39/39/39
f 40/40/40 37/37/37 38/38/38
f 41/41/41 40/40/40 38/38/38
f 44/44/44 43/43/43 42/42/42
f 44/44/44 42/42/42 45/45/45
f 45/45/45 46/46/46 44/44/44
f 47/47/47 45/45/45 42/42/42
f 45/45/45 47/47/47 48/48/48
f 51/51/51 50/50/50 49/49/49
f 51/51/51 49/49/49 52/52/52
f 52/52/52 53/53/53 51/51/51
f 54/54/54 52/52/52 49/49/49
f 52/52/52 54/54/54 55/55/55
f 58/58/58 57/57/57 56/56/56
f 56/56/56 59/59/59 58/58/58
f 59/59/59 56/56/56 60/60/60
f 61/61/61 58/58/58 59/59/59
f 61/61/61 59/59/59 62/62/62
f 65/65/65 64/64/64 63/63/63
f 65/65/65 63/63/63 66/66/66
f 66/66/66 67/67/67 65/65/65
f 68/68/68 66/66/66 63/63/63
f 68/68/68 69/69/69 66/66/66
f 72/72/72 71/71/71 70/70/70
f 70/70/70 73/73/73 72/72/72
f 73/73/73 70/70/70 74/74/74
f 75/75/75 72/72/72 73/73/73
f 75/75/75 73/73/73 76/76/76
f 79/79/79 78/78/78 77/77/77
f 77/77/77 80/80/80 79/79/79
f 80/80/80 77/77/77 81/81/81
f 82/82/82 79/79/79 80/80/80
f 82/82/82 80/80/80 83/83/83
f 86/86/86 85/85/85 84/84/84
f 86/86/86 84/84/84 87/87/87
f 87/87/87 88/88/88 86/86/86
f 89/89/89 87/87/87 84/84/84
f 87/87/87 89/89/89 90/90/90
f 93/93/93 92/92/92 91/91/91
f 93/93/93 91/91/91 94/94/94
f 95/95/95 94/94/94 91/91/91
f 98/98/98 97/97/97 96/96/96
f 98/98/98 96/96/96 99/99/99
f 100/100/100 99/99/99 96/96/96
f 103/103/103 102/102/102 101/101/101
f 103/103/103 101/101/101 104/104/104
f 105/105/105 104/104/104 101/101/101
f 108/108/108 107/107/107 106/106/106
f 106/106/106 109/109/109 108/108/108
f 110/110/110 108/108/108 109/109/109
f 113/113/113 112/112/112 111/111/111
f 111/111/111 112/112/112 114/114/114
f 114/114/114 112/112/112 115/115/115
f 118/118/118 117/117/117 116/116/116
f 119/119/119 117/117/117 118/118/118
f 120/120/120 117/117/117 119/119/119
f 123/123/123 122/122/122 121/121/121
f 124/124/124 122/122/122 123/123/123
f 125/125/125 122/122/122 124/124/124
f 128/128/128 127/127/127 126/126/126
f 129/129/129 127/127/127 128/128/128
f 130/130/130 127/127/127 129/129/129
f 133/133/133 132/132/132 131/131/131
f 134/134/134 132/132/132 133/133/133
f 135/135/135 132/132/132 134/134/134
f 138/138/138 137/137/137 136/136/136
f 139/139/139 137/137/137 138/138/138
f 140/140/140 137/137/137 139/139/139
f 143/143/143 142/142/142 141/141/141
f 144/144/144 142/142/142 143/143/143
f 145/145/145 142/142/142 144/144/144
f 148/148/148 147/147/147 146/146/146
f 149/149/149 147/147/147 148/148/148
f 150/150/150 147/147/147 149/149/149
