g DSJ_GTA_gaoLou_2
v 6.976467 -39.91798 23.76195
v 6.976467 -53.66109 23.76195
v -6.451916 -39.91798 24.70613
v -6.451916 -53.66109 24.70613
v 15.68394 -39.91798 18.7263
v 15.68394 -53.66109 18.7263
v 6.976467 -39.91798 23.76195
v 6.976467 -53.66109 23.76195
v -15.99866 -39.91798 22.0834
v -15.99866 -5.927376 22.0834
v -6.451916 -39.91798 24.70613
v -6.451916 -5.927376 24.70613
v 15.68394 -5.927376 18.7263
v 6.976467 -5.927376 23.76195
v -0.6819077 -5.927376 4.458641
v -6.451916 -5.927376 24.70613
v -15.99866 -5.927376 22.0834
v 6.032284 19.67049 20.82449
v 6.032284 -7.186287 20.82449
v -5.612644 19.67049 21.76867
v -5.612644 -7.186287 21.76867
v 12.74648 19.67049 15.99866
v 12.74648 -7.186287 15.99866
v 6.032284 19.67049 20.82449
v 6.032284 -7.186287 20.82449
v -13.37593 -7.186287 19.25085
v -13.37593 19.67049 19.25085
v -5.612644 -7.186287 21.76867
v -5.612644 19.67049 21.76867
v 12.74648 19.67049 15.99866
v 6.032284 19.67049 20.82449
v -0.6819077 19.67049 4.458641
v -5.612644 19.67049 21.76867
v -13.37593 19.67049 19.25085
v 4.563553 48.41562 17.5723
v 4.563553 18.20175 17.5723
v -4.668461 48.41562 18.41158
v -4.668461 18.20175 18.41158
v 9.913925 48.41562 13.58575
v 9.913925 18.20175 13.58575
v 4.563553 48.41562 17.5723
v 4.563553 18.20175 17.5723
v -10.96301 18.20175 16.31339
v -10.96301 48.41562 16.31339
v -4.668461 18.20175 18.41158
v -4.668461 48.41562 18.41158
v 9.913925 48.41562 13.58575
v 4.563553 48.41562 17.5723
v -0.6819077 48.41562 4.458641
v -4.668461 48.41562 18.41158
v -10.96301 48.41562 16.31339
v 17.25758 -39.18361 20.09012
v 4.563553 -39.18361 29.21722
v -0.6819077 -39.18361 4.458641
v -3.094822 -39.18361 29.84668
v -17.46739 -39.18361 23.86685
v 4.563553 -39.18361 29.21722
v 17.25758 -39.18361 20.09012
v 4.563553 -41.70143 29.21722
v 17.25758 -41.70143 20.09012
v -3.094822 -39.18361 29.84668
v 4.563553 -39.18361 29.21722
v -3.094822 -41.70143 29.84668
v 4.563553 -41.70143 29.21722
v -17.46739 -39.18361 23.86685
v -3.094822 -39.18361 29.84668
v -17.46739 -41.70143 23.86685
v -3.094822 -41.70143 29.84668
v -17.46739 -41.70143 23.86685
v -3.094822 -41.70143 29.84668
v -0.6819077 -41.70143 4.458641
v 4.563553 -41.70143 29.21722
v 17.25758 -41.70143 20.09012
v -6.451916 -5.927376 24.70613
v 6.976467 -5.927376 23.76195
v -6.451916 -39.91798 24.70613
v 6.976467 -39.91798 23.76195
v 6.976467 -5.927376 23.76195
v 15.68394 -5.927376 18.7263
v 6.976467 -39.91798 23.76195
v 15.68394 -39.91798 18.7263
v -6.451916 -53.66109 24.70613
v -15.99866 -53.66109 22.0834
v -6.451916 -39.91798 24.70613
v -15.99866 -39.91798 22.0834
v -3.304638 17.88702 -30.16141
v -37.60997 17.88702 9.389378
v -3.304638 -17.99194 -30.16141
v -37.60997 -17.99194 9.389378
v -37.60997 17.88702 9.389378
v -18.20175 17.88702 26.27977
v -37.60997 -17.99194 9.389378
v -18.20175 -17.99194 26.27977
v -21.97849 18.20175 21.0343
v -32.46941 18.20175 25.5454
v -35.93142 18.20175 8.86483
v -38.97379 18.20175 19.8803
v -32.46941 -17.78212 25.5454
v -32.46941 18.20175 25.5454
v -21.97849 -17.78212 21.0343
v -21.97849 18.20175 21.0343
v -35.93142 -17.78212 8.86483
v -35.93142 18.20175 8.86483
v -38.97379 -17.78212 19.8803
v -38.97379 18.20175 19.8803
v -38.97379 -17.78212 19.8803
v -38.97379 18.20175 19.8803
v -32.46941 -17.78212 25.5454
v -32.46941 18.20175 25.5454
v -0.6819077 -53.66109 6.137188
v -18.20175 -53.66109 26.27977
v -0.6819077 -17.99194 6.137188
v -18.20175 -17.99194 26.27977
v -3.304638 53.66108 -30.16141
v -37.60997 53.55618 9.389378
v -3.304638 17.88702 -30.16141
v -37.60997 17.88702 9.389378
v -37.60997 53.55618 9.389378
v -18.20175 53.55618 26.27977
v -37.60997 17.88702 9.389378
v -18.20175 17.88702 26.27977
v -18.20175 -53.66109 26.27977
v -37.60997 -53.66109 9.389378
v -18.20175 -17.99194 26.27977
v -37.60997 -17.99194 9.389378
v -21.97849 -53.66109 21.0343
v -32.46941 -53.66109 25.5454
v -21.97849 -17.78212 21.0343
v -32.46941 -17.78212 25.5454
v -38.97379 -53.66109 19.8803
v -35.93142 -53.66109 8.86483
v -38.97379 -17.78212 19.8803
v -35.93142 -17.78212 8.86483
v -32.46941 -53.66109 25.5454
v -38.97379 -53.66109 19.8803
v -32.46941 -17.78212 25.5454
v -38.97379 -17.78212 19.8803
v -18.20175 -17.99194 26.27977
v -18.20175 17.88702 26.27977
v -0.6819077 -17.99194 6.137188
v -0.6819077 17.88702 6.137188
v -18.20175 53.55618 26.27977
v -37.60997 53.55618 9.389378
v -0.6819077 53.66108 6.137188
v -3.304638 53.66108 -30.16141
v -18.20175 17.88702 26.27977
v -18.20175 53.55618 26.27977
v -0.6819077 17.88702 6.137188
v -0.6819077 53.66108 6.137188
v -37.60997 -17.99194 9.389378
v -37.60997 -53.66109 9.389378
v -3.304638 -17.99194 -30.16141
v -3.304638 -53.66109 -30.16141
v 36.35106 -17.99194 4.143913
v 36.35106 17.88702 4.143913
v -3.304638 -17.99194 -30.16141
v -3.304638 17.88702 -30.16141
v 19.56558 -17.99194 23.55212
v 19.56558 17.88702 23.55212
v 36.35106 -17.99194 4.143913
v 36.35106 17.88702 4.143913
v 39.18361 18.20175 14.11029
v 33.51851 18.20175 20.61467
v 34.77742 18.20175 3.829185
v 22.60795 18.20175 17.88702
v 22.60795 18.20175 17.88702
v 33.51851 18.20175 20.61467
v 22.60795 -17.78212 17.88702
v 33.51851 -17.78212 20.61467
v 39.18361 18.20175 14.11029
v 34.77742 18.20175 3.829185
v 39.18361 -17.78212 14.11029
v 34.77742 -17.78212 3.829185
v 33.51851 18.20175 20.61467
v 39.18361 18.20175 14.11029
v 33.51851 -17.78212 20.61467
v 39.18361 -17.78212 14.11029
v 19.56558 -17.99194 23.55212
v 19.56558 -53.66109 23.55212
v -0.6819077 -17.99194 6.137188
v -0.6819077 -53.66109 6.137188
v 36.35106 17.88702 4.143913
v 36.35106 53.66108 4.143913
v -3.304638 17.88702 -30.16141
v -3.304638 53.66108 -30.16141
v 19.56558 17.88702 23.55212
v 19.56558 53.66108 23.55212
v 36.35106 17.88702 4.143913
v 36.35106 53.66108 4.143913
v 36.35106 -17.99194 4.143913
v 36.35106 -53.66109 4.143913
v 19.56558 -17.99194 23.55212
v 19.56558 -53.66109 23.55212
v 33.51851 -17.78212 20.61467
v 33.51851 -53.66109 20.61467
v 22.60795 -17.78212 17.88702
v 22.60795 -53.66109 17.88702
v 34.77742 -17.78212 3.829185
v 34.77742 -53.66109 3.829185
v 39.18361 -17.78212 14.11029
v 39.18361 -53.66109 14.11029
v 39.18361 -17.78212 14.11029
v 39.18361 -53.66109 14.11029
v 33.51851 -17.78212 20.61467
v 33.51851 -53.66109 20.61467
v -0.6819077 17.88702 6.137188
v 19.56558 17.88702 23.55212
v -0.6819077 -17.99194 6.137188
v 19.56558 -17.99194 23.55212
v -3.304638 53.66108 -30.16141
v 36.35106 53.66108 4.143913
v -0.6819077 53.66108 6.137188
v 19.56558 53.66108 23.55212
v -0.6819077 53.66108 6.137188
v 19.56558 53.66108 23.55212
v -0.6819077 17.88702 6.137188
v 19.56558 17.88702 23.55212
v -3.304638 -53.66109 -30.16141
v 36.35106 -53.66109 4.143913
v -3.304638 -17.99194 -30.16141
v 36.35106 -17.99194 4.143913
vt 0.4962806 0.04873491
vt 0.4962806 0.002437084
vt 0.4075431 0.04873491
vt 0.4075431 0.002437084
vt 0.4962806 0.04873491
vt 0.4962806 0.002437084
vt 0.4075431 0.04873491
vt 0.4075431 0.002437084
vt 0.3612452 0.002437084
vt 0.3612452 0.2493588
vt 0.4036849 0.002437084
vt 0.4036849 0.2493588
vt 0.380536 0.2146354
vt 0.380536 0.2107773
vt 0.3766778 0.2146354
vt 0.3766778 0.2069191
vt 0.3766778 0.203061
vt 0.4036849 0.2493588
vt 0.4036849 0.002437084
vt 0.3612452 0.2493588
vt 0.3612452 0.002437084
vt 0.4036849 0.2493588
vt 0.4036849 0.002437084
vt 0.3612452 0.2493588
vt 0.3612452 0.002437084
vt 0.3612452 0.002437084
vt 0.3612452 0.2493588
vt 0.4036849 0.002437084
vt 0.4036849 0.2493588
vt 0.380536 0.2146354
vt 0.380536 0.2107773
vt 0.3766778 0.2146354
vt 0.3766778 0.2069191
vt 0.3766778 0.2069191
vt 0.4036849 0.2493588
vt 0.4036849 0.002437084
vt 0.3612452 0.2493588
vt 0.3612452 0.002437084
vt 0.4036849 0.2493588
vt 0.4036849 0.002437084
vt 0.3612452 0.2493588
vt 0.3612452 0.002437084
vt 0.3612452 0.002437084
vt 0.3612452 0.2493588
vt 0.4036849 0.002437084
vt 0.4036849 0.2493588
vt 0.380536 0.2146354
vt 0.380536 0.2107773
vt 0.3766778 0.2146354
vt 0.3766778 0.2069191
vt 0.3766778 0.2069191
vt 0.2300681 0.9785495
vt 0.2146354 0.8473724
vt 0.1297561 0.9785495
vt 0.1914865 0.7972164
vt 0.1297561 0.762493
vt 0.1297561 0.7895001
vt 0.2377844 0.7895001
vt 0.1297561 0.7547767
vt 0.2377844 0.7547767
vt 0.1567632 0.7895001
vt 0.2069191 0.7895001
vt 0.1567632 0.7547767
vt 0.2069191 0.7547767
vt 0.1297561 0.7895001
vt 0.2339262 0.7895001
vt 0.1297561 0.7547767
vt 0.2339262 0.7547767
vt 0.2300681 0.9785495
vt 0.2146354 0.8473724
vt 0.1297561 0.9785495
vt 0.1914865 0.7972164
vt 0.1297561 0.762493
vt 0.3612452 0.2493588
vt 0.4036849 0.2493588
vt 0.3612452 0.002437084
vt 0.4036849 0.002437084
vt 0.3612452 0.2493588
vt 0.4036849 0.2493588
vt 0.3612452 0.002437084
vt 0.4036849 0.002437084
vt 0.4962806 0.002437084
vt 0.4075431 0.002437084
vt 0.4962806 0.04873491
vt 0.4075431 0.04873491
vt 0.002437084 0.4538409
vt 0.1181816 0.4538409
vt 0.002437084 0.2686496
vt 0.1181816 0.2686496
vt 0.002437084 0.4538409
vt 0.1181816 0.4538409
vt 0.002437084 0.2686496
vt 0.1181816 0.2686496
vt 0.4036849 0.08345828
vt 0.3612452 0.1258979
vt 0.4036849 0.2493588
vt 0.3612452 0.203061
vt 0.3612452 0.002437084
vt 0.3612452 0.2493588
vt 0.4036849 0.002437084
vt 0.4036849 0.2493588
vt 0.3612452 0.002437084
vt 0.3612452 0.2493588
vt 0.4036849 0.002437084
vt 0.4036849 0.2493588
vt 0.3612452 0.002437084
vt 0.3612452 0.2493588
vt 0.4036849 0.002437084
vt 0.4036849 0.2493588
vt 0.1181816 0.2686496
vt 0.002437084 0.2686496
vt 0.1181816 0.4538409
vt 0.002437084 0.4538409
vt 0.002437084 0.4538409
vt 0.1181816 0.4538409
vt 0.002437084 0.2686496
vt 0.1181816 0.2686496
vt 0.002437084 0.4538409
vt 0.1181816 0.4538409
vt 0.002437084 0.2686496
vt 0.1181816 0.2686496
vt 0.1181816 0.2686496
vt 0.002437084 0.2686496
vt 0.1181816 0.4538409
vt 0.002437084 0.4538409
vt 0.4036849 0.002437084
vt 0.3612452 0.002437084
vt 0.4036849 0.2493588
vt 0.3612452 0.2493588
vt 0.4036849 0.002437084
vt 0.3612452 0.002437084
vt 0.4036849 0.2493588
vt 0.3612452 0.2493588
vt 0.4036849 0.002437084
vt 0.3612452 0.002437084
vt 0.4036849 0.2493588
vt 0.3612452 0.2493588
vt 0.002437084 0.2686496
vt 0.002437084 0.4538409
vt 0.1181816 0.2686496
vt 0.1181816 0.4538409
vt 0.002437084 0.2686496
vt 0.002437084 0.4538409
vt 0.06030937 0.2686496
vt 0.1181816 0.4538409
vt 0.002437084 0.2686496
vt 0.002437084 0.4538409
vt 0.1181816 0.2686496
vt 0.1181816 0.4538409
vt 0.1181816 0.4538409
vt 0.1181816 0.2686496
vt 0.002437084 0.4538409
vt 0.002437084 0.2686496
vt 0.1181816 0.2686496
vt 0.1181816 0.4538409
vt 0.002437084 0.2686496
vt 0.002437084 0.4538409
vt 0.1181816 0.2686496
vt 0.1181816 0.4538409
vt 0.002437084 0.2686496
vt 0.002437084 0.4538409
vt 0.3612452 0.203061
vt 0.3612452 0.1258979
vt 0.4036849 0.2493588
vt 0.4036849 0.08345828
vt 0.4036849 0.2493588
vt 0.3612452 0.2493588
vt 0.4036849 0.002437084
vt 0.3612452 0.002437084
vt 0.4036849 0.2493588
vt 0.3612452 0.2493588
vt 0.4036849 0.002437084
vt 0.3612452 0.002437084
vt 0.4036849 0.2493588
vt 0.3612452 0.2493588
vt 0.4036849 0.002437084
vt 0.3612452 0.002437084
vt 0.002437084 0.4538409
vt 0.002437084 0.2686496
vt 0.1181816 0.4538409
vt 0.1181816 0.2686496
vt 0.1181816 0.2686496
vt 0.1181816 0.4538409
vt 0.002437084 0.2686496
vt 0.002437084 0.4538409
vt 0.1181816 0.2686496
vt 0.1181816 0.4538409
vt 0.002437084 0.2686496
vt 0.002437084 0.4538409
vt 0.002437084 0.4538409
vt 0.002437084 0.2686496
vt 0.1181816 0.4538409
vt 0.1181816 0.2686496
vt 0.3612452 0.2493588
vt 0.3612452 0.002437084
vt 0.4036849 0.2493588
vt 0.4036849 0.002437084
vt 0.3612452 0.2493588
vt 0.3612452 0.002437084
vt 0.4036849 0.2493588
vt 0.4036849 0.002437084
vt 0.3612452 0.2493588
vt 0.3612452 0.002437084
vt 0.4036849 0.2493588
vt 0.4036849 0.002437084
vt 0.1181816 0.4538409
vt 0.002437084 0.4538409
vt 0.1181816 0.2686496
vt 0.002437084 0.2686496
vt 0.1181816 0.4538409
vt 0.002437084 0.4538409
vt 0.06030937 0.2686496
vt 0.002437084 0.2686496
vt 0.1181816 0.4538409
vt 0.002437084 0.4538409
vt 0.1181816 0.2686496
vt 0.002437084 0.2686496
vt 0.002437084 0.2686496
vt 0.1181816 0.2686496
vt 0.002437084 0.4538409
vt 0.1181816 0.4538409
vn 0.1110971 -0.04761302 0.9926683
vn 0.1110971 -0.04761302 0.9926683
vn 0.1110971 -0.04761302 0.9926683
vn 0.1110971 -0.04761302 0.9926683
vn 0.5554855 -0.04761302 0.8301619
vn 0.5554855 -0.04761302 0.8301619
vn 0.5554855 -0.04761302 0.8301619
vn 0.5554855 -0.04761302 0.8301619
vn -0.2380652 -0.04761302 0.9700814
vn -0.2380652 -0.04761302 0.9700814
vn -0.2380652 -0.04761302 0.9700814
vn -0.2380652 -0.04761302 0.9700814
vn 0.01587099 0.999874 -0.000345267
vn 0.01587099 0.999874 -0.000345267
vn 0.01587099 0.999874 -0.000345267
vn 0.01587099 0.999874 -0.000345267
vn 0.01587099 0.999874 -0.000345267
vn 0.1110971 -0.04761302 0.9926683
vn 0.1110971 -0.04761302 0.9926683
vn 0.1110971 -0.04761302 0.9926683
vn 0.1110971 -0.04761302 0.9926683
vn 0.6189696 -0.04761302 0.7839704
vn 0.6189696 -0.04761302 0.7839704
vn 0.6189696 -0.04761302 0.7839704
vn 0.6189696 -0.04761302 0.7839704
vn -0.3015493 -0.04761302 0.952261
vn -0.3015493 -0.04761302 0.952261
vn -0.3015493 -0.04761302 0.952261
vn -0.3015493 -0.04761302 0.952261
vn 0.01587099 0.999874 -0.000345267
vn 0.01587099 0.999874 -0.000345267
vn 0.01587099 0.999874 -0.000345267
vn 0.01587099 0.999874 -0.000345267
vn 0.01587099 0.999874 -0.000345267
vn 0.1428391 -0.04761302 0.9886
vn 0.1428391 -0.04761302 0.9886
vn 0.1428391 -0.04761302 0.9886
vn 0.1428391 -0.04761302 0.9886
vn 0.6507117 -0.04761302 0.7578307
vn 0.6507117 -0.04761302 0.7578307
vn 0.6507117 -0.04761302 0.7578307
vn 0.6507117 -0.04761302 0.7578307
vn -0.3015493 -0.04761302 0.952261
vn -0.3015493 -0.04761302 0.952261
vn -0.3015493 -0.04761302 0.952261
vn -0.3015493 -0.04761302 0.952261
vn 0.01587099 0.999874 -0.000345267
vn 0.01587099 0.999874 -0.000345267
vn 0.01587099 0.999874 -0.000345267
vn 0.01587099 0.999874 -0.000345267
vn 0.01587099 0.999874 -0.000345267
vn 0.01587099 0.999874 -0.000345267
vn 0.01587099 0.999874 -0.000345267
vn 0.01587099 0.999874 -0.000345267
vn 0.01587099 0.999874 -0.000345267
vn 0.01587099 0.999874 -0.000345267
vn 0.6507117 -0.04761302 0.7578307
vn 0.6507117 -0.04761302 0.7578307
vn 0.6507117 -0.04761302 0.7578307
vn 0.6507117 -0.04761302 0.7578307
vn 0.1428391 -0.04761302 0.9886
vn 0.1428391 -0.04761302 0.9886
vn 0.1428391 -0.04761302 0.9886
vn 0.1428391 -0.04761302 0.9886
vn -0.3650334 -0.04761302 0.9297761
vn -0.3650334 -0.04761302 0.9297761
vn -0.3650334 -0.04761302 0.9297761
vn -0.3650334 -0.04761302 0.9297761
vn 0.01587099 -0.999874 -0.000345267
vn 0.01587099 -0.999874 -0.000345267
vn 0.01587099 -0.999874 -0.000345267
vn 0.01587099 -0.999874 -0.000345267
vn 0.01587099 -0.999874 -0.000345267
vn 0.1110971 -0.04761302 0.9926683
vn 0.1110971 -0.04761302 0.9926683
vn 0.1110971 -0.04761302 0.9926683
vn 0.1110971 -0.04761302 0.9926683
vn 0.5554855 -0.04761302 0.8301619
vn 0.5554855 -0.04761302 0.8301619
vn 0.5554855 -0.04761302 0.8301619
vn 0.5554855 -0.04761302 0.8301619
vn -0.2380652 -0.04761302 0.9700814
vn -0.2380652 -0.04761302 0.9700814
vn -0.2380652 -0.04761302 0.9700814
vn -0.2380652 -0.04761302 0.9700814
vn -0.7459378 -0.04761302 -0.6643115
vn -0.7459378 -0.04761302 -0.6643115
vn -0.7459378 -0.04761302 -0.6643115
vn -0.7459378 -0.04761302 -0.6643115
vn -0.6507117 -0.04761302 0.7578307
vn -0.6507117 -0.04761302 0.7578307
vn -0.6507117 -0.04761302 0.7578307
vn -0.6507117 -0.04761302 0.7578307
vn 0.01587099 0.999874 -0.000345267
vn 0.01587099 0.999874 -0.000345267
vn 0.01587099 0.999874 -0.000345267
vn 0.01587099 0.999874 -0.000345267
vn 0.4285174 -0.04761302 0.9022781
vn 0.4285174 -0.04761302 0.9022781
vn 0.4285174 -0.04761302 0.9022781
vn 0.4285174 -0.04761302 0.9022781
vn -0.9363899 -0.04761302 -0.3477167
vn -0.9363899 -0.04761302 -0.3477167
vn -0.9363899 -0.04761302 -0.3477167
vn -0.9363899 -0.04761302 -0.3477167
vn -0.6507117 -0.04761302 0.7578307
vn -0.6507117 -0.04761302 0.7578307
vn -0.6507117 -0.04761302 0.7578307
vn -0.6507117 -0.04761302 0.7578307
vn 0.8094218 -0.04761302 0.5852943
vn 0.8094218 -0.04761302 0.5852943
vn 0.8094218 -0.04761302 0.5852943
vn 0.8094218 -0.04761302 0.5852943
vn -0.7459378 -0.04761302 -0.6643115
vn -0.7459378 -0.04761302 -0.6643115
vn -0.7459378 -0.04761302 -0.6643115
vn -0.7459378 -0.04761302 -0.6643115
vn -0.6507117 -0.04761302 0.7578307
vn -0.6507117 -0.04761302 0.7578307
vn -0.6507117 -0.04761302 0.7578307
vn -0.6507117 -0.04761302 0.7578307
vn -0.6507117 -0.04761302 0.7578307
vn -0.6507117 -0.04761302 0.7578307
vn -0.6507117 -0.04761302 0.7578307
vn -0.6507117 -0.04761302 0.7578307
vn 0.4285174 -0.04761302 0.9022781
vn 0.4285174 -0.04761302 0.9022781
vn 0.4285174 -0.04761302 0.9022781
vn 0.4285174 -0.04761302 0.9022781
vn -0.9363899 -0.04761302 -0.3477167
vn -0.9363899 -0.04761302 -0.3477167
vn -0.9363899 -0.04761302 -0.3477167
vn -0.9363899 -0.04761302 -0.3477167
vn -0.6507117 -0.04761302 0.7578307
vn -0.6507117 -0.04761302 0.7578307
vn -0.6507117 -0.04761302 0.7578307
vn -0.6507117 -0.04761302 0.7578307
vn 0.8094218 -0.04761302 0.5852943
vn 0.8094218 -0.04761302 0.5852943
vn 0.8094218 -0.04761302 0.5852943
vn 0.8094218 -0.04761302 0.5852943
vn 0.01587099 0.999874 -0.000345267
vn 0.01587099 0.999874 -0.000345267
vn 0.01587099 0.999874 -0.000345267
vn 0.01587099 0.999874 -0.000345267
vn 0.8094218 -0.04761302 0.5852943
vn 0.8094218 -0.04761302 0.5852943
vn 0.8094218 -0.04761302 0.5852943
vn 0.8094218 -0.04761302 0.5852943
vn -0.7459378 -0.04761302 -0.6643115
vn -0.7459378 -0.04761302 -0.6643115
vn -0.7459378 -0.04761302 -0.6643115
vn -0.7459378 -0.04761302 -0.6643115
vn 0.7141957 -0.04761302 -0.6983248
vn 0.7141957 -0.04761302 -0.6983248
vn 0.7141957 -0.04761302 -0.6983248
vn 0.7141957 -0.04761302 -0.6983248
vn 0.8094218 -0.04761302 0.5852943
vn 0.8094218 -0.04761302 0.5852943
vn 0.8094218 -0.04761302 0.5852943
vn 0.8094218 -0.04761302 0.5852943
vn 0.01587099 0.999874 -0.000345267
vn 0.01587099 0.999874 -0.000345267
vn 0.01587099 0.999874 -0.000345267
vn 0.01587099 0.999874 -0.000345267
vn -0.2380652 -0.04761302 0.9700814
vn -0.2380652 -0.04761302 0.9700814
vn -0.2380652 -0.04761302 0.9700814
vn -0.2380652 -0.04761302 0.9700814
vn 0.968132 -0.04761302 -0.245873
vn 0.968132 -0.04761302 -0.245873
vn 0.968132 -0.04761302 -0.245873
vn 0.968132 -0.04761302 -0.245873
vn 0.8094218 -0.04761302 0.5852943
vn 0.8094218 -0.04761302 0.5852943
vn 0.8094218 -0.04761302 0.5852943
vn 0.8094218 -0.04761302 0.5852943
vn -0.6507117 -0.04761302 0.7578307
vn -0.6507117 -0.04761302 0.7578307
vn -0.6507117 -0.04761302 0.7578307
vn -0.6507117 -0.04761302 0.7578307
vn 0.7141957 -0.04761302 -0.6983248
vn 0.7141957 -0.04761302 -0.6983248
vn 0.7141957 -0.04761302 -0.6983248
vn 0.7141957 -0.04761302 -0.6983248
vn 0.8094218 -0.04761302 0.5852943
vn 0.8094218 -0.04761302 0.5852943
vn 0.8094218 -0.04761302 0.5852943
vn 0.8094218 -0.04761302 0.5852943
vn 0.8094218 -0.04761302 0.5852943
vn 0.8094218 -0.04761302 0.5852943
vn 0.8094218 -0.04761302 0.5852943
vn 0.8094218 -0.04761302 0.5852943
vn -0.2380652 -0.04761302 0.9700814
vn -0.2380652 -0.04761302 0.9700814
vn -0.2380652 -0.04761302 0.9700814
vn -0.2380652 -0.04761302 0.9700814
vn 0.968132 -0.04761302 -0.245873
vn 0.968132 -0.04761302 -0.245873
vn 0.968132 -0.04761302 -0.245873
vn 0.968132 -0.04761302 -0.245873
vn 0.8094218 -0.04761302 0.5852943
vn 0.8094218 -0.04761302 0.5852943
vn 0.8094218 -0.04761302 0.5852943
vn 0.8094218 -0.04761302 0.5852943
vn -0.6507117 -0.04761302 0.7578307
vn -0.6507117 -0.04761302 0.7578307
vn -0.6507117 -0.04761302 0.7578307
vn -0.6507117 -0.04761302 0.7578307
vn 0.01587099 0.999874 -0.000345267
vn 0.01587099 0.999874 -0.000345267
vn 0.01587099 0.999874 -0.000345267
vn 0.01587099 0.999874 -0.000345267
vn -0.6507117 -0.04761302 0.7578307
vn -0.6507117 -0.04761302 0.7578307
vn -0.6507117 -0.04761302 0.7578307
vn -0.6507117 -0.04761302 0.7578307
vn 0.7141957 -0.04761302 -0.6983248
vn 0.7141957 -0.04761302 -0.6983248
vn 0.7141957 -0.04761302 -0.6983248
vn 0.7141957 -0.04761302 -0.6983248
g DSJ_GTA_gaoLou_2_0
f 3/3/3 2/2/2 1/1/1
f 4/4/4 2/2/2 3/3/3
f 7/7/7 6/6/6 5/5/5
f 8/8/8 6/6/6 7/7/7
f 11/11/11 10/10/10 9/9/9
f 12/12/12 10/10/10 11/11/11
f 15/15/15 14/14/14 13/13/13
f 16/16/16 14/14/14 15/15/15
f 17/17/17 16/16/16 15/15/15
f 20/20/20 19/19/19 18/18/18
f 21/21/21 19/19/19 20/20/20
f 24/24/24 23/23/23 22/22/22
f 25/25/25 23/23/23 24/24/24
f 28/28/28 27/27/27 26/26/26
f 29/29/29 27/27/27 28/28/28
f 32/32/32 31/31/31 30/30/30
f 33/33/33 31/31/31 32/32/32
f 34/34/34 33/33/33 32/32/32
f 37/37/37 36/36/36 35/35/35
f 38/38/38 36/36/36 37/37/37
f 41/41/41 40/40/40 39/39/39
f 42/42/42 40/40/40 41/41/41
f 45/45/45 44/44/44 43/43/43
f 46/46/46 44/44/44 45/45/45
f 49/49/49 48/48/48 47/47/47
f 50/50/50 48/48/48 49/49/49
f 51/51/51 50/50/50 49/49/49
f 54/54/54 53/53/53 52/52/52
f 55/55/55 53/53/53 54/54/54
f 56/56/56 55/55/55 54/54/54
f 59/59/59 58/58/58 57/57/57
f 60/60/60 58/58/58 59/59/59
f 63/63/63 62/62/62 61/61/61
f 64/64/64 62/62/62 63/63/63
f 67/67/67 66/66/66 65/65/65
f 68/68/68 66/66/66 67/67/67
f 71/71/71 70/70/70 69/69/69
f 72/72/72 70/70/70 71/71/71
f 73/73/73 72/72/72 71/71/71
f 76/76/76 75/75/75 74/74/74
f 77/77/77 75/75/75 76/76/76
f 80/80/80 79/79/79 78/78/78
f 81/81/81 79/79/79 80/80/80
f 84/84/84 83/83/83 82/82/82
f 85/85/85 83/83/83 84/84/84
f 88/88/88 87/87/87 86/86/86
f 89/89/89 87/87/87 88/88/88
f 92/92/92 91/91/91 90/90/90
f 93/93/93 91/91/91 92/92/92
f 96/96/96 95/95/95 94/94/94
f 97/97/97 95/95/95 96/96/96
f 100/100/100 99/99/99 98/98/98
f 101/101/101 99/99/99 100/100/100
f 104/104/104 103/103/103 102/102/102
f 105/105/105 103/103/103 104/104/104
f 108/108/108 107/107/107 106/106/106
f 109/109/109 107/107/107 108/108/108
f 112/112/112 111/111/111 110/110/110
f 113/113/113 111/111/111 112/112/112
f 116/116/116 115/115/115 114/114/114
f 117/117/117 115/115/115 116/116/116
f 120/120/120 119/119/119 118/118/118
f 121/121/121 119/119/119 120/120/120
f 124/124/124 123/123/123 122/122/122
f 125/125/125 123/123/123 124/124/124
f 128/128/128 127/127/127 126/126/126
f 129/129/129 127/127/127 128/128/128
f 132/132/132 131/131/131 130/130/130
f 133/133/133 131/131/131 132/132/132
f 136/136/136 135/135/135 134/134/134
f 137/137/137 135/135/135 136/136/136
f 140/140/140 139/139/139 138/138/138
f 141/141/141 139/139/139 140/140/140
f 144/144/144 143/143/143 142/142/142
f 145/145/145 143/143/143 144/144/144
f 148/148/148 147/147/147 146/146/146
f 149/149/149 147/147/147 148/148/148
f 152/152/152 151/151/151 150/150/150
f 153/153/153 151/151/151 152/152/152
f 156/156/156 155/155/155 154/154/154
f 157/157/157 155/155/155 156/156/156
f 160/160/160 159/159/159 158/158/158
f 161/161/161 159/159/159 160/160/160
f 164/164/164 163/163/163 162/162/162
f 165/165/165 163/163/163 164/164/164
f 168/168/168 167/167/167 166/166/166
f 169/169/169 167/167/167 168/168/168
f 172/172/172 171/171/171 170/170/170
f 173/173/173 171/171/171 172/172/172
f 176/176/176 175/175/175 174/174/174
f 177/177/177 175/175/175 176/176/176
f 180/180/180 179/179/179 178/178/178
f 181/181/181 179/179/179 180/180/180
f 184/184/184 183/183/183 182/182/182
f 185/185/185 183/183/183 184/184/184
f 188/188/188 187/187/187 186/186/186
f 189/189/189 187/187/187 188/188/188
f 192/192/192 191/191/191 190/190/190
f 193/193/193 191/191/191 192/192/192
f 196/196/196 195/195/195 194/194/194
f 197/197/197 195/195/195 196/196/196
f 200/200/200 199/199/199 198/198/198
f 201/201/201 199/199/199 200/200/200
f 204/204/204 203/203/203 202/202/202
f 205/205/205 203/203/203 204/204/204
f 208/208/208 207/207/207 206/206/206
f 209/209/209 207/207/207 208/208/208
f 212/212/212 211/211/211 210/210/210
f 213/213/213 211/211/211 212/212/212
f 216/216/216 215/215/215 214/214/214
f 217/217/217 215/215/215 216/216/216
f 220/220/220 219/219/219 218/218/218
f 221/221/221 219/219/219 220/220/220
