g DSJ_GTA_daoJu_laJiTong_02
v -0.1175556 0.002349883 -0.1809027
v 0.1175575 1.002351 -0.1809027
v -0.1175556 1.002351 -0.1809027
v 0.1175575 0.002349883 -0.1809027
v -0.1175556 0.002349883 -0.1809027
v -0.1902097 1.002351 0.04270305
v -0.1902097 0.002349883 0.04270305
v -0.1175556 1.002351 -0.1809027
v -0.1902097 0.002349883 0.04270305
v 2.101064E-06 1.002351 0.1809008
v 2.101064E-06 0.002349883 0.1809008
v -0.1902097 1.002351 0.04270305
v 2.101064E-06 0.002349883 0.1809008
v 0.1902116 1.002351 0.04270305
v 0.1902116 0.002349883 0.04270305
v 2.101064E-06 1.002351 0.1809008
v 0.1902116 0.002349883 0.04270305
v 0.1175575 1.002351 -0.1809027
v 0.1175575 0.002349883 -0.1809027
v 0.1902116 1.002351 0.04270305
v 0.1175575 1.002351 -0.1809027
v -0.1902097 1.002351 0.04270305
v -0.1175556 1.002351 -0.1809027
v 2.101064E-06 1.002351 0.1809008
v 0.1902116 1.002351 0.04270305
vt 0.3194132 0.6326404
vt 0.3024504 0.6862326
vt 0.3194132 0.6862326
vt 0.3024504 0.6326404
vt 0.3194132 0.6326404
vt 0.3363867 0.6862326
vt 0.3363867 0.6326404
vt 0.3194132 0.6862326
vt 0.2515834 0.6326404
vt 0.2685248 0.6862326
vt 0.2685248 0.6326404
vt 0.2515834 0.6862326
vt 0.2685248 0.6326404
vt 0.2854983 0.6862326
vt 0.2854983 0.6326404
vt 0.2685248 0.6862326
vt 0.2854983 0.6326404
vt 0.3024504 0.6862326
vt 0.3024504 0.6326404
vt 0.2854983 0.6862326
vt 0.3986481 0.9242591
vt 0.4442363 0.9292266
vt 0.4230891 0.9104077
vt 0.4328526 0.9547192
vt 0.4046886 0.9516506
vn 0.002308547 -0.002308547 -0.9999947
vn 0.002308547 -0.002308547 -0.9999947
vn 0.002308547 -0.002308547 -0.9999947
vn 0.002308547 -0.002308547 -0.9999947
vn -0.9464391 -0.002308547 -0.322874
vn -0.9464391 -0.002308547 -0.322874
vn -0.9464391 -0.002308547 -0.322874
vn -0.9464391 -0.002308547 -0.322874
vn -0.5868331 -0.002308547 0.8097046
vn -0.5868331 -0.002308547 0.8097046
vn -0.5868331 -0.002308547 0.8097046
vn -0.5868331 -0.002308547 0.8097046
vn 0.5914503 -0.002308547 0.8063382
vn 0.5914503 -0.002308547 0.8063382
vn 0.5914503 -0.002308547 0.8063382
vn 0.5914503 -0.002308547 0.8063382
vn 0.9510562 -0.002308547 -0.3090092
vn 0.9510562 -0.002308547 -0.3090092
vn 0.9510562 -0.002308547 -0.3090092
vn 0.9510562 -0.002308547 -0.3090092
vn 0.002308547 0.9923463 -0.1234647
vn 0.002308547 0.9923463 -0.1234647
vn 0.002308547 0.9923463 -0.1234647
vn 0.002308547 0.9923463 -0.1234647
vn 0.002308547 0.9923463 -0.1234647
g DSJ_GTA_daoJu_laJiTong_02_0
f 3/3/3 2/2/2 1/1/1
f 4/4/4 1/1/1 2/2/2
f 7/7/7 6/6/6 5/5/5
f 8/8/8 5/5/5 6/6/6
f 11/11/11 10/10/10 9/9/9
f 12/12/12 9/9/9 10/10/10
f 15/15/15 14/14/14 13/13/13
f 16/16/16 13/13/13 14/14/14
f 19/19/19 18/18/18 17/17/17
f 20/20/20 17/17/17 18/18/18
f 23/23/23 22/22/22 21/21/21
f 22/22/22 24/24/24 21/21/21
f 21/21/21 24/24/24 25/25/25
