g DSJ_GTA_daoJu_jiaZi_02
v 6.986326 0.0181489 2.219937
v 6.98817 0.1689878 1.79699
v 6.98817 0.0181489 1.79699
v 6.986326 0.4506497 2.219923
v 6.991764 0.1689878 0.965004
v 7.005312 0.4506497 -2.159294
v 6.999874 0.1689878 -0.9043479
v 6.991764 0.0181489 0.965004
v 6.999874 0.0181489 -0.9043479
v 7.003482 0.1689878 -1.73636
v 7.005312 0.0181489 -2.159294
v 7.003482 0.0181489 -1.73636
v 6.317311 0.0181489 1.794076
v 6.98817 0.1689878 1.79699
v 6.317311 0.1689878 1.79409
v 6.98817 0.0181489 1.79699
v -6.999856 0.0181489 0.9043021
v -6.991745 0.1689878 -0.9650364
v -6.999856 0.1689878 0.9043021
v -6.991745 0.0181489 -0.9650364
v -6.986307 0.4506497 -2.219956
v -6.988138 0.1689878 -1.797022
v -6.988138 0.0181489 -1.797022
v -6.986307 0.0181489 -2.219956
v -7.005307 0.4506497 2.159235
v -7.003463 0.1689878 1.736314
v -7.003463 0.0181489 1.736314
v -7.005307 0.0181489 2.159235
v 7.005312 0.4506497 -2.159294
v 6.334454 0.0181489 -2.162194
v 7.005312 0.0181489 -2.159294
v 6.334454 0.1693754 -2.162194
v 0.009509563 0.4506497 -2.189612
v 0.009509563 0.1658211 -2.189612
v 7.003482 0.1689878 -1.73636
v 6.332623 0.0181489 -1.739273
v 6.332623 0.1689878 -1.739273
v 7.003482 0.0181489 -1.73636
v -7.003463 0.1689878 1.736314
v -6.332592 0.0181489 1.739228
v -6.332592 0.1689878 1.739228
v -7.003463 0.0181489 1.736314
v -6.317279 0.0181489 -1.794122
v -6.988138 0.1689878 -1.797022
v -6.317279 0.1689878 -1.794122
v -6.988138 0.0181489 -1.797022
v -6.315448 0.1622534 -2.217043
v -6.986307 0.0181489 -2.219956
v -6.315448 0.0181489 -2.217043
v -6.986307 0.4506497 -2.219956
v 0.009509563 0.1658211 -2.189612
v 0.009509563 0.4506497 -2.189612
v -7.005307 0.4506497 2.159235
v -6.334422 0.0181489 2.162135
v -7.005307 0.0181489 2.159235
v -6.334422 0.1688943 2.162135
v -0.009477139 0.4506497 2.189593
v -0.009477139 0.1689878 2.189593
v 6.986326 0.0181489 2.219937
v 6.315467 0.1690812 2.217011
v 6.986326 0.4506497 2.219923
v 6.315467 0.0181489 2.217011
v -0.009477139 0.4506497 2.189593
v -0.009477139 0.1689878 2.189593
v 6.332623 0.0181489 -1.739273
v 6.334454 0.1693754 -2.162194
v 6.332623 0.1689878 -1.739273
v 6.334454 0.0181489 -2.162194
v 6.317311 0.0181489 1.794076
v 6.315467 0.1690812 2.217011
v 6.315467 0.0181489 2.217011
v 6.317311 0.1689878 1.79409
v -6.315448 0.1622534 -2.217043
v -6.317279 0.0181489 -1.794122
v -6.317279 0.1689878 -1.794122
v -6.315448 0.0181489 -2.217043
v -6.332592 0.1689878 1.739228
v -6.334422 0.0181489 2.162135
v -6.334422 0.1688943 2.162135
v -6.332592 0.0181489 1.739228
v 6.907452 4.624728 -1.898597
v 6.803326 0.8434134 -1.899037
v 6.803326 4.624728 -1.899037
v 6.907452 0.8434134 -1.898597
v 6.967085 4.758998 -1.830266
v 6.749639 4.758998 -1.831214
v 6.967085 5.067877 -1.830252
v 6.749639 5.067877 -1.831201
v 6.749639 0.7062836 -1.831201
v 6.967085 0.7122564 -1.830266
v 6.749639 0.4158564 -1.831201
v 6.967085 0.4158564 -1.830266
v 6.908013 0.8434134 -2.02978
v 6.80386 4.624728 -2.030235
v 6.80386 0.8434134 -2.030248
v 6.908013 4.624728 -2.02978
v 6.968247 0.7120023 -2.095386
v 6.750814 0.7060299 -2.096321
v 6.968247 0.4158564 -2.095386
v 6.750814 0.4158564 -2.096321
v 6.750814 4.758998 -2.096321
v 6.968247 4.758998 -2.095386
v 6.750814 5.067877 -2.096321
v 6.968247 5.067877 -2.095386
v 6.803326 4.624728 -1.899037
v 6.80386 0.8434134 -2.030248
v 6.80386 4.624728 -2.030235
v 6.803326 0.8434134 -1.899037
v 6.749639 4.758998 -1.831214
v 6.750814 4.758998 -2.096321
v 6.749639 5.067877 -1.831201
v 6.750814 5.067877 -2.096321
v 6.749639 0.7062836 -1.831201
v 6.750814 0.7060299 -2.096321
v 6.750814 0.4158564 -2.096321
v 6.749639 0.4158564 -1.831201
v 6.908013 4.624728 -2.02978
v 6.907452 0.8434134 -1.898597
v 6.907452 4.624728 -1.898597
v 6.908013 0.8434134 -2.02978
v 6.968247 4.758998 -2.095386
v 6.967085 4.758998 -1.830266
v 6.968247 5.067877 -2.095386
v 6.967085 5.067877 -1.830252
v 6.967085 0.7122564 -1.830266
v 6.968247 0.7120023 -2.095386
v 6.967085 0.4158564 -1.830266
v 6.968247 0.4158564 -2.095386
v 6.890042 4.624728 2.117708
v 6.785875 0.8434134 2.117266
v 6.785902 4.624728 2.117266
v 6.890042 0.8434134 2.117708
v 6.949661 4.758998 2.186065
v 6.732228 4.758998 2.185103
v 6.949661 5.067877 2.186052
v 6.732228 5.067877 2.185103
v 6.732228 0.7062836 2.185103
v 6.949661 0.7122564 2.186052
v 6.732228 0.4158564 2.185103
v 6.949661 0.4158564 2.186052
v 6.89059 0.8434134 1.986537
v 6.78645 4.624728 1.986083
v 6.78645 0.8434134 1.986083
v 6.89059 4.624728 1.986537
v 6.95081 0.7120023 1.920945
v 6.733377 0.7060299 1.920009
v 6.95081 0.4158564 1.920945
v 6.733377 0.4158564 1.920009
v 6.733377 4.758998 1.919996
v 6.95081 4.758998 1.920945
v 6.733377 5.067877 1.920009
v 6.95081 5.067877 1.920945
v 6.785902 4.624728 2.117266
v 6.78645 0.8434134 1.986083
v 6.78645 4.624728 1.986083
v 6.785875 0.8434134 2.117266
v 6.732228 4.758998 2.185103
v 6.733377 4.758998 1.919996
v 6.732228 5.067877 2.185103
v 6.733377 5.067877 1.920009
v 6.732228 0.7062836 2.185103
v 6.733377 0.7060299 1.920009
v 6.733377 0.4158564 1.920009
v 6.732228 0.4158564 2.185103
v 6.89059 4.624728 1.986537
v 6.890042 0.8434134 2.117708
v 6.890042 4.624728 2.117708
v 6.89059 0.8434134 1.986537
v 6.95081 4.758998 1.920945
v 6.949661 4.758998 2.186065
v 6.95081 5.067877 1.920945
v 6.949661 5.067877 2.186052
v 6.949661 0.7122564 2.186052
v 6.95081 0.7120023 1.920945
v 6.949661 0.4158564 2.186052
v 6.95081 0.4158564 1.920945
v -6.678456 4.624728 2.058863
v -6.782609 0.8434134 2.058409
v -6.782609 4.624728 2.058409
v -6.678456 0.8434134 2.058863
v -6.61881 4.758998 2.127194
v -6.836243 4.758998 2.126246
v -6.61881 5.067877 2.127194
v -6.836243 5.067877 2.126246
v -6.836243 0.7062836 2.126246
v -6.61881 0.7122564 2.127194
v -6.836243 0.4158564 2.126246
v -6.61881 0.4158564 2.127194
v -6.677882 0.8434134 1.927666
v -6.782034 4.624728 1.927211
v -6.782034 0.8434134 1.927211
v -6.677882 4.624728 1.927666
v -6.617661 0.7120023 1.862073
v -6.835107 0.7060299 1.861139
v -6.617661 0.4158564 1.862073
v -6.835107 0.4158564 1.861139
v -6.835121 4.758998 1.861139
v -6.617661 4.758998 1.862073
v -6.835121 5.067877 1.861139
v -6.617661 5.067877 1.862073
v -6.782609 4.624728 2.058409
v -6.782034 0.8434134 1.927211
v -6.782034 4.624728 1.927211
v -6.782609 0.8434134 2.058409
v -6.836243 4.758998 2.126246
v -6.835121 4.758998 1.861139
v -6.836243 5.067877 2.126246
v -6.835121 5.067877 1.861139
v -6.836243 0.7062836 2.126246
v -6.835107 0.7060299 1.861139
v -6.835107 0.4158564 1.861139
v -6.836243 0.4158564 2.126246
v -6.677882 4.624728 1.927666
v -6.678456 0.8434134 2.058863
v -6.678456 4.624728 2.058863
v -6.677882 0.8434134 1.927666
v -6.617661 4.758998 1.862073
v -6.61881 4.758998 2.127194
v -6.617661 5.067877 1.862073
v -6.61881 5.067877 2.127194
v -6.61881 0.7122564 2.127194
v -6.617661 0.7120023 1.862073
v -6.61881 0.4158564 2.127194
v -6.617661 0.4158564 1.862073
v -6.661032 4.624728 -1.957454
v -6.765172 0.8434134 -1.957909
v -6.765172 4.624728 -1.957909
v -6.661032 0.8434134 -1.957454
v -6.6014 4.758998 -1.889123
v -6.818833 4.758998 -1.890059
v -6.6014 5.067877 -1.889123
v -6.818833 5.067877 -1.890059
v -6.818833 0.7062836 -1.890072
v -6.6014 0.7122564 -1.889123
v -6.818833 0.4158564 -1.890072
v -6.6014 0.4158564 -1.889123
v -6.660458 0.8434134 -2.088638
v -6.764612 4.624728 -2.089106
v -6.764612 0.8434134 -2.089106
v -6.660458 4.624728 -2.088638
v -6.600237 0.7120023 -2.154243
v -6.817684 0.7060299 -2.155192
v -6.600237 0.4158564 -2.154243
v -6.81767 0.4158564 -2.155192
v -6.817684 4.758998 -2.155192
v -6.600237 4.758998 -2.154243
v -6.817684 5.067877 -2.155192
v -6.600237 5.067877 -2.154243
v -6.765172 4.624728 -1.957909
v -6.764612 0.8434134 -2.089106
v -6.764612 4.624728 -2.089106
v -6.765172 0.8434134 -1.957909
v -6.818833 4.758998 -1.890059
v -6.817684 4.758998 -2.155192
v -6.818833 5.067877 -1.890059
v -6.817684 5.067877 -2.155192
v -6.818833 0.7062836 -1.890072
v -6.817684 0.7060299 -2.155192
v -6.81767 0.4158564 -2.155192
v -6.818833 0.4158564 -1.890072
v -6.660458 4.624728 -2.088638
v -6.661032 0.8434134 -1.957454
v -6.661032 4.624728 -1.957454
v -6.660458 0.8434134 -2.088638
v -6.600237 4.758998 -2.154243
v -6.6014 4.758998 -1.889123
v -6.600237 5.067877 -2.154243
v -6.6014 5.067877 -1.889123
v -6.6014 0.7122564 -1.889123
v -6.600237 0.7120023 -2.154243
v -6.6014 0.4158564 -1.889123
v -6.600237 0.4158564 -2.154243
v 6.986326 0.4506497 2.219923
v 0.009509563 0.4506497 -2.189612
v 7.005312 0.4506497 -2.159294
v -0.009477139 0.4506497 2.189593
v -6.986307 0.4506497 -2.219956
v -0.009477139 0.4506497 2.189593
v -7.005307 0.4506497 2.159235
v 0.009509563 0.4506497 -2.189612
v 6.991764 0.0181489 0.965004
v -0.004025936 0.1689878 0.93466
v 6.991764 0.1689878 0.965004
v -0.004025936 0.0181489 0.93466
v -6.999856 0.1689878 0.9043021
v -0.004025936 0.0181489 0.93466
v -6.999856 0.0181489 0.9043021
v -0.004025936 0.1689878 0.93466
v 6.999874 0.1689878 -0.9043479
v 0.004057884 0.0181489 -0.9346919
v 6.999874 0.0181489 -0.9043479
v 0.004057884 0.1689878 -0.9346919
v -6.991745 0.0181489 -0.9650364
v 0.004057884 0.1689878 -0.9346919
v -6.991745 0.1689878 -0.9650364
v 0.004057884 0.0181489 -0.9346919
v 6.986326 4.943749 2.219937
v 6.98817 5.094588 1.797003
v 6.98817 4.943749 1.797003
v 6.986326 5.376223 2.219937
v 7.003482 5.094588 -1.736347
v 7.005312 5.376223 -2.159281
v 7.005312 4.943749 -2.159281
v 7.003482 4.943749 -1.736347
v 6.317311 4.943749 1.79409
v 6.98817 5.094588 1.797003
v 6.317311 5.094588 1.79409
v 6.98817 4.943749 1.797003
v -6.986307 5.376223 -2.219956
v -6.988138 4.943749 -1.797022
v -6.986307 4.943749 -2.219956
v -6.988138 5.094588 -1.797022
v -7.003477 5.094588 1.736328
v -7.005307 5.376223 2.159235
v -7.003477 4.943749 1.736328
v -7.005307 4.943749 2.159235
v 7.005312 5.376223 -2.159281
v 6.334454 4.943749 -2.162194
v 7.005312 4.943749 -2.159281
v 6.334454 5.094975 -2.162194
v 0.009509563 5.376223 -2.189612
v 0.009509563 5.091407 -2.189612
v 7.003482 5.094588 -1.736347
v 6.332623 4.943749 -1.739246
v 6.332623 5.094588 -1.739246
v 7.003482 4.943749 -1.736347
v -7.003477 5.094588 1.736328
v -6.332605 4.943749 1.739241
v -6.332605 5.094588 1.739241
v -7.003477 4.943749 1.736328
v -6.317279 5.094588 -1.794122
v -7.003477 5.094588 1.736328
v -6.332605 5.094588 1.739241
v -6.988138 5.094588 -1.797022
v -6.317279 4.943749 -1.794122
v -6.988138 5.094588 -1.797022
v -6.317279 5.094588 -1.794122
v -6.988138 4.943749 -1.797022
v -6.315448 5.087853 -2.217043
v -6.986307 4.943749 -2.219956
v -6.315448 4.943749 -2.217043
v -6.986307 5.376223 -2.219956
v 0.009509563 5.091407 -2.189612
v 0.009509563 5.376223 -2.189612
v -7.005307 5.376223 2.159235
v -6.334422 4.943749 2.162148
v -7.005307 4.943749 2.159235
v -6.334422 5.094494 2.162148
v -0.009477139 5.376223 2.189606
v -0.009477139 5.094588 2.189606
v 6.986326 4.943749 2.219937
v 6.315481 5.094668 2.217038
v 6.986326 5.376223 2.219937
v 6.315481 4.943749 2.217038
v -0.009477139 5.376223 2.189606
v -0.009477139 5.094588 2.189606
v 6.332623 4.943749 -1.739246
v 6.334454 5.094975 -2.162194
v 6.332623 5.094588 -1.739246
v 6.334454 4.943749 -2.162194
v 6.317311 4.943749 1.79409
v 6.315481 5.094668 2.217038
v 6.315481 4.943749 2.217038
v 6.317311 5.094588 1.79409
v -6.315448 5.087853 -2.217043
v -6.317279 4.943749 -1.794122
v -6.317279 5.094588 -1.794122
v -6.315448 4.943749 -2.217043
v -6.332605 5.094588 1.739241
v -6.334422 4.943749 2.162148
v -6.334422 5.094494 2.162148
v -6.332605 4.943749 1.739241
v 6.317311 5.094588 1.79409
v 7.003482 5.094588 -1.736347
v 6.332623 5.094588 -1.739246
v 6.98817 5.094588 1.797003
v 6.986326 5.376223 2.219937
v 0.009509563 5.376223 -2.189612
v 7.005312 5.376223 -2.159281
v -0.009477139 5.376223 2.189606
v -6.986307 5.376223 -2.219956
v -0.009477139 5.376223 2.189606
v -7.005307 5.376223 2.159235
v 0.009509563 5.376223 -2.189612
v -6.317279 5.094588 -1.794122
v 0.009509563 5.091407 -2.189612
v -6.315448 5.087853 -2.217043
v 0.007678986 5.094588 -1.766678
v 0.009509563 5.091407 -2.189612
v 6.332623 5.094588 -1.739246
v 6.334454 5.094975 -2.162194
v 0.007678986 5.094588 -1.766678
v -6.334422 5.094494 2.162148
v -0.007646561 5.094588 1.766658
v -6.332605 5.094588 1.739241
v -0.009477139 5.094588 2.189606
v -0.007646561 5.094588 1.766658
v 6.315481 5.094668 2.217038
v 6.317311 5.094588 1.79409
v -0.009477139 5.094588 2.189606
v 6.315481 4.943749 2.217038
v 6.98817 4.943749 1.797003
v 6.317311 4.943749 1.79409
v 6.986326 4.943749 2.219937
v -6.315448 4.943749 -2.217043
v -6.988138 4.943749 -1.797022
v -6.317279 4.943749 -1.794122
v -6.986307 4.943749 -2.219956
v 7.003482 4.943749 -1.736347
v 6.334454 4.943749 -2.162194
v 6.332623 4.943749 -1.739246
v 7.005312 4.943749 -2.159281
v -6.332605 4.943749 1.739241
v -7.005307 4.943749 2.159235
v -6.334422 4.943749 2.162148
v -7.003477 4.943749 1.736328
v 6.904045 0.2808909 -1.842651
v 6.841874 5.118932 1.903014
v 6.910966 0.4016528 -1.889845
v 6.834952 4.99817 1.950221
v 6.910966 0.4016528 -1.889845
v 6.71224 5.126134 1.902452
v 6.781332 0.408855 -1.890406
v 6.841874 5.118932 1.903014
v 6.781332 0.408855 -1.890406
v 6.705318 5.005386 1.949659
v 6.774398 0.2881064 -1.843226
v 6.71224 5.126134 1.902452
v 6.774398 0.2881064 -1.843226
v 6.834952 4.99817 1.950221
v 6.904045 0.2808909 -1.842651
v 6.705318 5.005386 1.949659
v 6.743332 0.2808909 1.9026
v 6.789229 5.118932 -1.843159
v 6.738816 0.4016528 1.949806
v 6.793772 4.99817 -1.890352
v 6.738816 0.4016528 1.949806
v 6.872912 5.126134 -1.842785
v 6.822486 0.4088683 1.950166
v 6.789229 5.118932 -1.843159
v 6.822486 0.4088683 1.950166
v 6.877469 5.005386 -1.889992
v 6.827029 0.2881064 1.90296
v 6.872912 5.126134 -1.842785
v 6.827029 0.2881064 1.90296
v 6.793772 4.99817 -1.890352
v 6.743332 0.2808909 1.9026
v 6.877469 5.005386 -1.889992
v -6.608254 0.2808909 -1.901282
v -6.670426 5.118932 1.844409
v -6.60132 0.4016528 -1.948462
v -6.677347 4.99817 1.89159
v -6.60132 0.4016528 -1.948462
v -6.800073 5.126134 1.843835
v -6.73098 0.408855 -1.949023
v -6.670426 5.118932 1.844409
v -6.73098 0.408855 -1.949023
v -6.806994 5.005373 1.891041
v -6.737888 0.2881064 -1.901844
v -6.800073 5.126134 1.843835
v -6.737888 0.2881064 -1.901844
v -6.677347 4.99817 1.89159
v -6.608254 0.2808909 -1.901282
v -6.806994 5.005373 1.891041
v -6.768954 0.2808909 1.843969
v -6.723071 5.118932 -1.901777
v -6.773497 0.4016528 1.891176
v -6.718514 4.99817 -1.94897
v -6.773497 0.4016528 1.891176
v -6.639347 5.126134 -1.901416
v -6.6898 0.4088683 1.89155
v -6.723071 5.118932 -1.901777
v -6.6898 0.4088683 1.89155
v -6.634817 5.005373 -1.948622
v -6.685243 0.2881064 1.844343
v -6.639347 5.126134 -1.901416
v -6.685243 0.2881064 1.844343
v -6.718514 4.99817 -1.94897
v -6.768954 0.2808909 1.843969
v -6.634817 5.005373 -1.948622
v 0.007678986 5.094588 -1.766678
v -6.332605 5.094588 1.739241
v -0.007646561 5.094588 1.766658
v -6.317279 5.094588 -1.794122
v -0.007646561 5.094588 1.766658
v 6.332623 5.094588 -1.739246
v 0.007678986 5.094588 -1.766678
v 6.317311 5.094588 1.79409
vt 0.9865822 0.05347124
vt 0.963025 0.06714818
vt 0.963025 0.05347124
vt 0.9865822 0.09269342
vt 0.9173754 0.06714818
vt 0.7465557 0.09269342
vt 0.8148208 0.06714818
vt 0.9173754 0.05347124
vt 0.8148208 0.05347124
vt 0.7691712 0.06714818
vt 0.7465557 0.05347124
vt 0.7691712 0.05347124
vt 0.9043412 0.1472367
vt 0.9214262 0.1001821
vt 0.9214262 0.1472367
vt 0.9043412 0.1001821
vt 0.9173754 0.05347124
vt 0.8148208 0.06714818
vt 0.9173754 0.06714818
vt 0.8148208 0.05347124
vt 0.7465557 0.09269342
vt 0.7691712 0.06714818
vt 0.7691712 0.05347124
vt 0.7465557 0.05347124
vt 0.9865822 0.09269342
vt 0.963025 0.06714818
vt 0.963025 0.05347124
vt 0.9865822 0.05347124
vt 0.9865822 0.1701811
vt 0.9330553 0.2107785
vt 0.9865822 0.2107785
vt 0.9330553 0.1965933
vt 0.7465557 0.1701811
vt 0.7465557 0.1967278
vt 0.9214262 0.1001821
vt 0.9043412 0.1472367
vt 0.9214262 0.1472367
vt 0.9043412 0.1001821
vt 0.9214262 0.1001821
vt 0.9043412 0.1472367
vt 0.9214262 0.1472367
vt 0.9043412 0.1001821
vt 0.9043412 0.1472367
vt 0.9214262 0.1001821
vt 0.9214262 0.1472367
vt 0.9043412 0.1001821
vt 0.7986476 0.1972659
vt 0.7465557 0.2107785
vt 0.7986476 0.2107785
vt 0.7465557 0.1701811
vt 0.9865822 0.1971314
vt 0.9865822 0.1701811
vt 0.7465557 0.1696131
vt 0.798543 0.2102105
vt 0.7465557 0.2102105
vt 0.798543 0.1960701
vt 0.9865822 0.1696131
vt 0.9865822 0.1960701
vt 0.9865822 0.2102254
vt 0.9329656 0.1960552
vt 0.9865822 0.1696131
vt 0.9329656 0.2102254
vt 0.7465557 0.1696131
vt 0.7465557 0.1960701
vt 0.8581535 0.1086274
vt 0.875657 0.1532456
vt 0.8756121 0.1086274
vt 0.8581535 0.1532456
vt 0.8581535 0.1086274
vt 0.875657 0.1532456
vt 0.8581535 0.1532456
vt 0.8756121 0.1086274
vt 0.875657 0.1532456
vt 0.8581535 0.1086274
vt 0.8756121 0.1086274
vt 0.8581535 0.1532456
vt 0.8756121 0.1086274
vt 0.8581535 0.1532456
vt 0.875657 0.1532456
vt 0.8581535 0.1086274
vt 0.9715152 0.6725059
vt 0.7866448 0.6758093
vt 0.9714553 0.6758242
vt 0.7867494 0.6725059
vt 0.9764628 0.6702937
vt 0.9764628 0.6758242
vt 0.9870754 0.6702937
vt 0.9870754 0.6758242
vt 0.7811292 0.6758093
vt 0.7811292 0.6702937
vt 0.771234 0.6758093
vt 0.771234 0.6702937
vt 0.7866299 0.6758093
vt 0.9713956 0.6800992
vt 0.7865551 0.6800992
vt 0.9714553 0.6758242
vt 0.7811292 0.6758093
vt 0.7811292 0.6800992
vt 0.771234 0.6758093
vt 0.771234 0.6800992
vt 0.9764628 0.6800992
vt 0.9764628 0.6758242
vt 0.9870754 0.6800992
vt 0.9870754 0.6758242
vt 0.9714553 0.6758242
vt 0.7865551 0.6800992
vt 0.9713956 0.6800992
vt 0.7866448 0.6758093
vt 0.9764628 0.6758242
vt 0.9764628 0.6800992
vt 0.9870754 0.6758242
vt 0.9870754 0.6800992
vt 0.7811292 0.6758093
vt 0.7811292 0.6800992
vt 0.771234 0.6800992
vt 0.771234 0.6758093
vt 0.9714553 0.6758242
vt 0.7867196 0.6725059
vt 0.9714553 0.6725059
vt 0.7866299 0.6758093
vt 0.9764628 0.6758242
vt 0.9764628 0.6702937
vt 0.9870754 0.6758242
vt 0.9870754 0.6702937
vt 0.7811292 0.6702937
vt 0.7811292 0.6758093
vt 0.771234 0.6702937
vt 0.771234 0.6758093
vt 0.9715152 0.6725059
vt 0.7866448 0.6758093
vt 0.9714553 0.6758242
vt 0.7867494 0.6725059
vt 0.9764628 0.6702937
vt 0.9764628 0.6758242
vt 0.9870754 0.6702937
vt 0.9870754 0.6758242
vt 0.7811292 0.6758093
vt 0.7811292 0.6702937
vt 0.771234 0.6758093
vt 0.771234 0.6702937
vt 0.7866299 0.6758093
vt 0.9713956 0.6800992
vt 0.7865551 0.6800992
vt 0.9714553 0.6758242
vt 0.7811292 0.6758093
vt 0.7811292 0.6800992
vt 0.771234 0.6758093
vt 0.771234 0.6800992
vt 0.9764628 0.6800992
vt 0.9764628 0.6758242
vt 0.9870754 0.6800992
vt 0.9870754 0.6758242
vt 0.9714553 0.6758242
vt 0.7865551 0.6800992
vt 0.9713956 0.6800992
vt 0.7866448 0.6758093
vt 0.9764628 0.6758242
vt 0.9764628 0.6800992
vt 0.9870754 0.6758242
vt 0.9870754 0.6800992
vt 0.7811292 0.6758093
vt 0.7811292 0.6800992
vt 0.771234 0.6800992
vt 0.771234 0.6758093
vt 0.9714553 0.6758242
vt 0.7867196 0.6725059
vt 0.9714553 0.6725059
vt 0.7866299 0.6758093
vt 0.9764628 0.6758242
vt 0.9764628 0.6702937
vt 0.9870754 0.6758242
vt 0.9870754 0.6702937
vt 0.7811292 0.6702937
vt 0.7811292 0.6758093
vt 0.771234 0.6702937
vt 0.771234 0.6758093
vt 0.9715152 0.6725059
vt 0.7866448 0.6758093
vt 0.9714553 0.6758242
vt 0.7867494 0.6725059
vt 0.9764628 0.6702937
vt 0.9764628 0.6758242
vt 0.9870754 0.6702937
vt 0.9870754 0.6758242
vt 0.7811292 0.6758093
vt 0.7811292 0.6702937
vt 0.771234 0.6758093
vt 0.771234 0.6702937
vt 0.7866299 0.6758093
vt 0.9713956 0.6800992
vt 0.7865551 0.6800992
vt 0.9714553 0.6758242
vt 0.7811292 0.6758093
vt 0.7811292 0.6800992
vt 0.771234 0.6758093
vt 0.771234 0.6800992
vt 0.9764628 0.6800992
vt 0.9764628 0.6758242
vt 0.9870754 0.6800992
vt 0.9870754 0.6758242
vt 0.9714553 0.6758242
vt 0.7865551 0.6800992
vt 0.9713956 0.6800992
vt 0.7866448 0.6758093
vt 0.9764628 0.6758242
vt 0.9764628 0.6800992
vt 0.9870754 0.6758242
vt 0.9870754 0.6800992
vt 0.7811292 0.6758093
vt 0.7811292 0.6800992
vt 0.771234 0.6800992
vt 0.771234 0.6758093
vt 0.9714553 0.6758242
vt 0.7867196 0.6725059
vt 0.9714553 0.6725059
vt 0.7866299 0.6758093
vt 0.9764628 0.6758242
vt 0.9764628 0.6702937
vt 0.9870754 0.6758242
vt 0.9870754 0.6702937
vt 0.7811292 0.6702937
vt 0.7811292 0.6758093
vt 0.771234 0.6702937
vt 0.771234 0.6758093
vt 0.9715152 0.6725059
vt 0.7866448 0.6758093
vt 0.9714553 0.6758242
vt 0.7867494 0.6725059
vt 0.9764628 0.6702937
vt 0.9764628 0.6758242
vt 0.9870754 0.6702937
vt 0.9870754 0.6758242
vt 0.7811292 0.6758093
vt 0.7811292 0.6702937
vt 0.771234 0.6758093
vt 0.771234 0.6702937
vt 0.7866299 0.6758093
vt 0.9713956 0.6800992
vt 0.7865551 0.6800992
vt 0.9714553 0.6758242
vt 0.7811292 0.6758093
vt 0.7811292 0.6800992
vt 0.771234 0.6758093
vt 0.771234 0.6800992
vt 0.9764628 0.6800992
vt 0.9764628 0.6758242
vt 0.9870754 0.6800992
vt 0.9870754 0.6758242
vt 0.9714553 0.6758242
vt 0.7865551 0.6800992
vt 0.9713956 0.6800992
vt 0.7866448 0.6758093
vt 0.9764628 0.6758242
vt 0.9764628 0.6800992
vt 0.9870754 0.6758242
vt 0.9870754 0.6800992
vt 0.7811292 0.6758093
vt 0.7811292 0.6800992
vt 0.771234 0.6800992
vt 0.771234 0.6758093
vt 0.9714553 0.6758242
vt 0.7867196 0.6725059
vt 0.9714553 0.6725059
vt 0.7866299 0.6758093
vt 0.9764628 0.6758242
vt 0.9764628 0.6702937
vt 0.9870754 0.6758242
vt 0.9870754 0.6702937
vt 0.7811292 0.6702937
vt 0.7811292 0.6758093
vt 0.771234 0.6702937
vt 0.771234 0.6758093
vt 0.9893624 0.2527809
vt 0.7440744 0.01613245
vt 0.7440744 0.2527809
vt 0.9893624 0.01613245
vt 0.7440744 0.01613245
vt 0.9893624 0.2527809
vt 0.9893624 0.01613245
vt 0.7440744 0.2527809
vt 0.7465557 0.2246049
vt 0.9865822 0.2016306
vt 0.7465557 0.2016306
vt 0.9865822 0.2246049
vt 0.9865822 0.2017053
vt 0.7465557 0.2246497
vt 0.9865822 0.2246497
vt 0.7465557 0.2017053
vt 0.7465557 0.07916595
vt 0.9865822 0.05620663
vt 0.7465557 0.05620663
vt 0.9865822 0.07916595
vt 0.9865822 0.05622158
vt 0.7465557 0.0791809
vt 0.9865822 0.0791809
vt 0.7465557 0.05623652
vt 0.9865822 0.05347124
vt 0.963025 0.06714818
vt 0.963025 0.05347124
vt 0.9865822 0.09269342
vt 0.7691712 0.06714818
vt 0.7465557 0.09269342
vt 0.7465557 0.05347124
vt 0.7691712 0.05347124
vt 0.9043412 0.1472367
vt 0.9214262 0.1001821
vt 0.9214262 0.1472367
vt 0.9043412 0.1001821
vt 0.7465557 0.09269342
vt 0.7691712 0.05347124
vt 0.7465557 0.05347124
vt 0.7691712 0.06714818
vt 0.963025 0.06714818
vt 0.9865822 0.09269342
vt 0.963025 0.05347124
vt 0.9865822 0.05347124
vt 0.9865822 0.1701811
vt 0.9330553 0.2107785
vt 0.9865822 0.2107785
vt 0.9330553 0.1965933
vt 0.7465557 0.1701811
vt 0.7465557 0.1967278
vt 0.9214262 0.1001821
vt 0.9043412 0.1472367
vt 0.9214262 0.1472367
vt 0.9043412 0.1001821
vt 0.9214262 0.1001821
vt 0.9043412 0.1472367
vt 0.9214262 0.1472367
vt 0.9043412 0.1001821
vt 0.7453001 0.009779777
vt 0.7628335 0.2468916
vt 0.7453001 0.2468916
vt 0.7628335 0.009779777
vt 0.9043412 0.1472367
vt 0.9214262 0.1001821
vt 0.9214262 0.1472367
vt 0.9043412 0.1001821
vt 0.7986476 0.1972659
vt 0.7465557 0.2107785
vt 0.7986476 0.2107785
vt 0.7465557 0.1701811
vt 0.9865822 0.1971314
vt 0.9865822 0.1701811
vt 0.7465557 0.1696131
vt 0.798543 0.2102105
vt 0.7465557 0.2102105
vt 0.798543 0.1960701
vt 0.9865822 0.1696131
vt 0.9865822 0.1960701
vt 0.9865822 0.2102254
vt 0.9329656 0.1960552
vt 0.9865822 0.1696131
vt 0.9329656 0.2102254
vt 0.7465557 0.1696131
vt 0.7465557 0.1960701
vt 0.8581535 0.1086274
vt 0.875657 0.1532456
vt 0.8756121 0.1086274
vt 0.8581535 0.1532456
vt 0.8581535 0.1086274
vt 0.875657 0.1532456
vt 0.8581535 0.1532456
vt 0.8756121 0.1086274
vt 0.875657 0.1532456
vt 0.8581535 0.1086274
vt 0.8756121 0.1086274
vt 0.8581535 0.1532456
vt 0.8756121 0.1086274
vt 0.8581535 0.1532456
vt 0.875657 0.1532456
vt 0.8581535 0.1086274
vt 0.7453001 0.2468916
vt 0.7628335 0.009779777
vt 0.7453001 0.009779777
vt 0.7628335 0.2468916
vt 0.9865822 0.2527809
vt 0.7465557 0.01613245
vt 0.7465557 0.2527809
vt 0.9865822 0.01613245
vt 0.7465557 0.01613245
vt 0.9865822 0.2527809
vt 0.9865822 0.01613245
vt 0.7465557 0.2527809
vt 0.7453001 0.009779777
vt 0.9871801 0.04287348
vt 0.7453001 0.04287348
vt 0.9871801 0.009779777
vt 0.9871801 0.04287348
vt 0.7453001 0.009779777
vt 0.7453001 0.04287348
vt 0.9871801 0.009779777
vt 0.7453001 0.2226468
vt 0.9871801 0.2468916
vt 0.7453001 0.2468916
vt 0.9871801 0.2226468
vt 0.9871801 0.2468916
vt 0.7453001 0.2226468
vt 0.7453001 0.2468916
vt 0.9871801 0.2226468
vt 0.8513973 0.2392683
vt 0.9822325 0.1077306
vt 0.8513973 0.1077306
vt 0.9822325 0.2392683
vt 0.9822325 0.1077306
vt 0.8513973 0.2392683
vt 0.9822325 0.2392683
vt 0.8513973 0.1077306
vt 0.9822325 0.2392683
vt 0.8513973 0.1077306
vt 0.8513973 0.2392683
vt 0.9822325 0.1077306
vt 0.9822325 0.1077306
vt 0.8513973 0.2392683
vt 0.9822325 0.2392683
vt 0.8513973 0.1077306
vt 0.9870605 0.6777076
vt 0.7516378 0.6797853
vt 0.9870605 0.6797853
vt 0.7516378 0.6777076
vt 0.9870605 0.6777076
vt 0.7516378 0.6797853
vt 0.9870605 0.6797853
vt 0.7516378 0.6777076
vt 0.9870605 0.6777076
vt 0.7516378 0.6797853
vt 0.9870605 0.6797853
vt 0.7516378 0.6777076
vt 0.9870605 0.6777076
vt 0.7516378 0.6797853
vt 0.9870605 0.6797853
vt 0.7516378 0.6777076
vt 0.9870605 0.6777076
vt 0.7516378 0.6797853
vt 0.9870605 0.6797853
vt 0.7516378 0.6777076
vt 0.9870605 0.6777076
vt 0.7516378 0.6797853
vt 0.9870605 0.6797853
vt 0.7516378 0.6777076
vt 0.9870605 0.6777076
vt 0.7516378 0.6797853
vt 0.9870605 0.6797853
vt 0.7516378 0.6777076
vt 0.9870605 0.6777076
vt 0.7516378 0.6797853
vt 0.9870605 0.6797853
vt 0.7516378 0.6777076
vt 0.9870605 0.6777076
vt 0.7516378 0.6797853
vt 0.9870605 0.6797853
vt 0.7516378 0.6777076
vt 0.9870605 0.6777076
vt 0.7516378 0.6797853
vt 0.9870605 0.6797853
vt 0.7516378 0.6777076
vt 0.9870605 0.6777076
vt 0.7516378 0.6797853
vt 0.9870605 0.6797853
vt 0.7516378 0.6777076
vt 0.9870605 0.6777076
vt 0.7516378 0.6797853
vt 0.9870605 0.6797853
vt 0.7516378 0.6777076
vt 0.9870605 0.6777076
vt 0.7516378 0.6797853
vt 0.9870605 0.6797853
vt 0.7516378 0.6777076
vt 0.9870605 0.6777076
vt 0.7516378 0.6797853
vt 0.9870605 0.6797853
vt 0.7516378 0.6777076
vt 0.9870605 0.6777076
vt 0.7516378 0.6797853
vt 0.9870605 0.6797853
vt 0.7516378 0.6777076
vt 0.9870605 0.6777076
vt 0.7516378 0.6797853
vt 0.9870605 0.6797853
vt 0.7516378 0.6777076
vt 0.9871801 0.009779777
vt 0.7453001 0.2468916
vt 0.9871801 0.2468916
vt 0.7453001 0.009779777
vt 0.9871801 0.2468916
vt 0.7453001 0.009779777
vt 0.9871801 0.009779777
vt 0.7453001 0.2468916
vn 0.9999924 -0.003921568 0
vn 0.9999924 -0.003921568 0
vn 0.9999924 -0.003921568 0
vn 0.9999924 -0.003921568 0
vn 0.9999924 -0.003921568 0
vn 0.9999924 -0.003921568 0
vn 0.9999924 -0.003921568 0
vn 0.9999924 -0.003921568 0
vn 0.9999924 -0.003921568 0
vn 0.9999924 -0.003921568 0
vn 0.9999924 -0.003921568 0
vn 0.9999924 -0.003921568 0
vn 0.01960772 -0.01176465 -0.9997385
vn 0.01960772 -0.01176465 -0.9997385
vn 0.01960772 -0.01176465 -0.9997385
vn 0.01960772 -0.01176465 -0.9997385
vn -0.9921492 -0.01176465 -0.124505
vn -0.9921492 -0.01176465 -0.124505
vn -0.9921492 -0.01176465 -0.124505
vn -0.9921492 -0.01176465 -0.124505
vn -0.9921492 -0.01176465 -0.124505
vn -0.9921492 -0.01176465 -0.124505
vn -0.9921492 -0.01176465 -0.124505
vn -0.9921492 -0.01176465 -0.124505
vn -0.9921492 -0.01176465 -0.124505
vn -0.9921492 -0.01176465 -0.124505
vn -0.9921492 -0.01176465 -0.124505
vn -0.9921492 -0.01176465 -0.124505
vn 0.01960772 -0.01176465 -0.9997385
vn 0.01960772 -0.01176465 -0.9997385
vn 0.01960772 -0.01176465 -0.9997385
vn 0.01960772 -0.01176465 -0.9997385
vn 0.01960772 -0.01176465 -0.9997385
vn 0.01960772 -0.01176465 -0.9997385
vn -0.003921509 -0.01176465 0.9999231
vn -0.003921509 -0.01176465 0.9999231
vn -0.003921509 -0.01176465 0.9999231
vn -0.003921509 -0.01176465 0.9999231
vn 0.01960772 -0.01176465 -0.9997385
vn 0.01960772 -0.01176465 -0.9997385
vn 0.01960772 -0.01176465 -0.9997385
vn 0.01960772 -0.01176465 -0.9997385
vn -0.003921509 -0.01176465 0.9999231
vn -0.003921509 -0.01176465 0.9999231
vn -0.003921509 -0.01176465 0.9999231
vn -0.003921509 -0.01176465 0.9999231
vn 0.01960772 -0.01176465 -0.9997385
vn 0.01960772 -0.01176465 -0.9997385
vn 0.01960772 -0.01176465 -0.9997385
vn 0.01960772 -0.01176465 -0.9997385
vn 0.01960772 -0.01176465 -0.9997385
vn 0.01960772 -0.01176465 -0.9997385
vn -0.003921509 -0.01176465 0.9999231
vn -0.003921509 -0.01176465 0.9999231
vn -0.003921509 -0.01176465 0.9999231
vn -0.003921509 -0.01176465 0.9999231
vn -0.003921509 -0.01176465 0.9999231
vn -0.003921509 -0.01176465 0.9999231
vn -0.003921509 -0.01176465 0.9999231
vn -0.003921509 -0.01176465 0.9999231
vn -0.003921509 -0.01176465 0.9999231
vn -0.003921509 -0.01176465 0.9999231
vn -0.003921509 -0.01176465 0.9999231
vn -0.003921509 -0.01176465 0.9999231
vn -0.9921492 -0.01176465 -0.124505
vn -0.9921492 -0.01176465 -0.124505
vn -0.9921492 -0.01176465 -0.124505
vn -0.9921492 -0.01176465 -0.124505
vn -0.9921492 -0.01176465 -0.124505
vn -0.9921492 -0.01176465 -0.124505
vn -0.9921492 -0.01176465 -0.124505
vn -0.9921492 -0.01176465 -0.124505
vn 0.9999924 -0.003921568 0
vn 0.9999924 -0.003921568 0
vn 0.9999924 -0.003921568 0
vn 0.9999924 -0.003921568 0
vn 0.9999924 -0.003921568 0
vn 0.9999924 -0.003921568 0
vn 0.9999924 -0.003921568 0
vn 0.9999924 -0.003921568 0
vn -0.003921509 -0.2705862 0.9626877
vn -0.003921509 0.2470568 0.9689931
vn -0.003921509 -0.2705862 0.9626877
vn -0.003921509 0.2549 0.9669595
vn -0.003921509 -0.2156847 0.9764552
vn -0.003921509 -0.2156847 0.9764552
vn -0.003921509 -0.01176465 0.9999231
vn -0.003921509 -0.01176465 0.9999231
vn -0.003921509 0.1999984 0.9797884
vn -0.003921509 0.1999984 0.9797884
vn -0.003921509 -0.01176465 0.9999231
vn -0.003921509 -0.01176465 0.9999231
vn 0.01960772 0.2549 -0.9667686
vn 0.01960772 -0.2627431 -0.9646666
vn 0.01176465 0.2470568 -0.9689296
vn 0.01960772 -0.2627431 -0.9646666
vn 0.01176465 0.1921554 -0.981294
vn 0.01176465 0.1921554 -0.981294
vn 0.01960772 -0.01176465 -0.9997385
vn 0.01960772 -0.01176465 -0.9997385
vn 0.01960772 -0.2078416 -0.977966
vn 0.01960772 -0.2078416 -0.977966
vn 0.01960772 -0.01176465 -0.9997385
vn 0.01960772 -0.01176465 -0.9997385
vn -0.9764631 -0.2156847 -8.631674E-05
vn -0.9764631 0.1999984 -0.08074977
vn -0.9764631 -0.2156847 -8.631674E-05
vn -0.9764631 0.1999984 -0.08074977
vn -0.9843061 -0.1686262 -0.05202622
vn -0.9843061 -0.1686262 -0.05202622
vn -0.9921492 -0.01176465 -0.124505
vn -0.9921492 -0.01176465 -0.124505
vn -0.9843061 0.1529399 -0.08803921
vn -0.9843061 0.1529399 -0.08803921
vn -0.9921492 -0.01176465 -0.124505
vn -0.9921492 -0.01176465 -0.124505
vn 0.9712788 -0.2379438 0
vn 0.9747855 0.2231436 0
vn 0.9712788 -0.2379438 0
vn 0.9747855 0.2231436 0
vn 0.9845476 -0.1751172 0
vn 0.9845476 -0.1751172 0
vn 0.9999924 -0.003921568 0
vn 0.9999924 -0.003921568 0
vn 0.9845476 0.1751171 0
vn 0.9845476 0.1751171 0
vn 0.9999924 -0.003921568 0
vn 0.9999924 -0.003921568 0
vn -0.003921509 -0.2705862 0.9626877
vn -0.003921509 0.2470568 0.9689931
vn -0.003921509 -0.2705862 0.9626877
vn -0.003921509 0.2549 0.9669595
vn -0.003921509 -0.2156847 0.9764552
vn -0.003921509 -0.2156847 0.9764552
vn -0.003921509 -0.01176465 0.9999231
vn -0.003921509 -0.01176465 0.9999231
vn -0.003921509 0.1999984 0.9797884
vn -0.003921509 0.1999984 0.9797884
vn -0.003921509 -0.01176465 0.9999231
vn -0.003921509 -0.01176465 0.9999231
vn 0.01960772 0.2549 -0.9667686
vn 0.01960772 -0.2627431 -0.9646666
vn 0.01176465 0.2470568 -0.9689296
vn 0.01960772 -0.2627431 -0.9646666
vn 0.01176465 0.1921554 -0.981294
vn 0.01176465 0.1921554 -0.981294
vn 0.01960772 -0.01176465 -0.9997385
vn 0.01960772 -0.01176465 -0.9997385
vn 0.01960772 -0.2078416 -0.977966
vn 0.01960772 -0.2078416 -0.977966
vn 0.01960772 -0.01176465 -0.9997385
vn 0.01960772 -0.01176465 -0.9997385
vn -0.9764631 -0.2156847 -8.631674E-05
vn -0.9764631 0.1999984 -0.08074977
vn -0.9764631 -0.2156847 -8.631674E-05
vn -0.9764631 0.1999984 -0.08074977
vn -0.9843061 -0.1686262 -0.05202622
vn -0.9843061 -0.1686262 -0.05202622
vn -0.9921492 -0.01176465 -0.124505
vn -0.9921492 -0.01176465 -0.124505
vn -0.9843061 0.1529399 -0.08803921
vn -0.9843061 0.1529399 -0.08803921
vn -0.9921492 -0.01176465 -0.124505
vn -0.9921492 -0.01176465 -0.124505
vn 0.9712788 -0.2379438 0
vn 0.9747855 0.2231436 0
vn 0.9712788 -0.2379438 0
vn 0.9747855 0.2231436 0
vn 0.9845476 -0.1751172 0
vn 0.9845476 -0.1751172 0
vn 0.9999924 -0.003921568 0
vn 0.9999924 -0.003921568 0
vn 0.9845476 0.1751171 0
vn 0.9845476 0.1751171 0
vn 0.9999924 -0.003921568 0
vn 0.9999924 -0.003921568 0
vn -0.003921509 -0.2705862 0.9626877
vn -0.003921509 0.2470568 0.9689931
vn -0.003921509 -0.2705862 0.9626877
vn -0.003921509 0.2549 0.9669595
vn -0.003921509 -0.2156847 0.9764552
vn -0.003921509 -0.2156847 0.9764552
vn -0.003921509 -0.01176465 0.9999231
vn -0.003921509 -0.01176465 0.9999231
vn -0.003921509 0.1999984 0.9797884
vn -0.003921509 0.1999984 0.9797884
vn -0.003921509 -0.01176465 0.9999231
vn -0.003921509 -0.01176465 0.9999231
vn 0.01960772 0.2549 -0.9667686
vn 0.01960772 -0.2627431 -0.9646666
vn 0.01176465 0.2470568 -0.9689296
vn 0.01960772 -0.2627431 -0.9646666
vn 0.01176465 0.1921554 -0.981294
vn 0.01176465 0.1921554 -0.981294
vn 0.01960772 -0.01176465 -0.9997385
vn 0.01960772 -0.01176465 -0.9997385
vn 0.01960772 -0.2078416 -0.977966
vn 0.01960772 -0.2078416 -0.977966
vn 0.01960772 -0.01176465 -0.9997385
vn 0.01960772 -0.01176465 -0.9997385
vn -0.9764631 -0.2156847 -8.631674E-05
vn -0.9764631 0.1999984 -0.08074977
vn -0.9764631 -0.2156847 -8.631674E-05
vn -0.9764631 0.1999984 -0.08074977
vn -0.9843061 -0.1686262 -0.05202622
vn -0.9843061 -0.1686262 -0.05202622
vn -0.9921492 -0.01176465 -0.124505
vn -0.9921492 -0.01176465 -0.124505
vn -0.9843061 0.1529399 -0.08803921
vn -0.9843061 0.1529399 -0.08803921
vn -0.9921492 -0.01176465 -0.124505
vn -0.9921492 -0.01176465 -0.124505
vn 0.9712788 -0.2379438 0
vn 0.9747855 0.2231436 0
vn 0.9712788 -0.2379438 0
vn 0.9747855 0.2231436 0
vn 0.9845476 -0.1751172 0
vn 0.9845476 -0.1751172 0
vn 0.9999924 -0.003921568 0
vn 0.9999924 -0.003921568 0
vn 0.9845476 0.1751171 0
vn 0.9845476 0.1751171 0
vn 0.9999924 -0.003921568 0
vn 0.9999924 -0.003921568 0
vn -0.003921509 -0.2705862 0.9626877
vn -0.003921509 0.2470568 0.9689931
vn -0.003921509 -0.2705862 0.9626877
vn -0.003921509 0.2549 0.9669595
vn -0.003921509 -0.2156847 0.9764552
vn -0.003921509 -0.2156847 0.9764552
vn -0.003921509 -0.01176465 0.9999231
vn -0.003921509 -0.01176465 0.9999231
vn -0.003921509 0.1999984 0.9797884
vn -0.003921509 0.1999984 0.9797884
vn -0.003921509 -0.01176465 0.9999231
vn -0.003921509 -0.01176465 0.9999231
vn 0.01960772 0.2549 -0.9667686
vn 0.01960772 -0.2627431 -0.9646666
vn 0.01176465 0.2470568 -0.9689296
vn 0.01960772 -0.2627431 -0.9646666
vn 0.01176465 0.1921554 -0.981294
vn 0.01176465 0.1921554 -0.981294
vn 0.01960772 -0.01176465 -0.9997385
vn 0.01960772 -0.01176465 -0.9997385
vn 0.01960772 -0.2078416 -0.977966
vn 0.01960772 -0.2078416 -0.977966
vn 0.01960772 -0.01176465 -0.9997385
vn 0.01960772 -0.01176465 -0.9997385
vn -0.9764631 -0.2156847 -8.631674E-05
vn -0.9764631 0.1999984 -0.08074977
vn -0.9764631 -0.2156847 -8.631674E-05
vn -0.9764631 0.1999984 -0.08074977
vn -0.9843061 -0.1686262 -0.05202622
vn -0.9843061 -0.1686262 -0.05202622
vn -0.9921492 -0.01176465 -0.124505
vn -0.9921492 -0.01176465 -0.124505
vn -0.9843061 0.1529399 -0.08803921
vn -0.9843061 0.1529399 -0.08803921
vn -0.9921492 -0.01176465 -0.124505
vn -0.9921492 -0.01176465 -0.124505
vn 0.9712788 -0.2379438 0
vn 0.9747855 0.2231436 0
vn 0.9712788 -0.2379438 0
vn 0.9747855 0.2231436 0
vn 0.9845476 -0.1751172 0
vn 0.9845476 -0.1751172 0
vn 0.9999924 -0.003921568 0
vn 0.9999924 -0.003921568 0
vn 0.9845476 0.1751171 0
vn 0.9845476 0.1751171 0
vn 0.9999924 -0.003921568 0
vn 0.9999924 -0.003921568 0
vn 0.003921568 0.9999923 -0.000345267
vn 0.003921568 0.9999923 -0.000345267
vn 0.003921568 0.9999923 -0.000345267
vn 0.003921568 0.9999923 -0.000345267
vn 0.003921568 0.9999923 -0.000345267
vn 0.003921568 0.9999923 -0.000345267
vn 0.003921568 0.9999923 -0.000345267
vn 0.003921568 0.9999923 -0.000345267
vn -0.003921509 -0.01176465 0.9999231
vn -0.003921509 -0.01176465 0.9999231
vn -0.003921509 -0.01176465 0.9999231
vn -0.003921509 -0.01176465 0.9999231
vn -0.003921509 -0.01176465 0.9999231
vn -0.003921509 -0.01176465 0.9999231
vn -0.003921509 -0.01176465 0.9999231
vn -0.003921509 -0.01176465 0.9999231
vn 0.01960772 -0.01176465 -0.9997385
vn 0.01960772 -0.01176465 -0.9997385
vn 0.01960772 -0.01176465 -0.9997385
vn 0.01960772 -0.01176465 -0.9997385
vn 0.01960772 -0.01176465 -0.9997385
vn 0.01960772 -0.01176465 -0.9997385
vn 0.01960772 -0.01176465 -0.9997385
vn 0.01960772 -0.01176465 -0.9997385
vn 0.9999924 -0.003921568 0
vn 0.9999924 -0.003921568 0
vn 0.9999924 -0.003921568 0
vn 0.9999924 -0.003921568 0
vn 0.9999924 -0.003921568 0
vn 0.9999924 -0.003921568 0
vn 0.9999924 -0.003921568 0
vn 0.9999924 -0.003921568 0
vn 0.01960772 -0.01176465 -0.9997385
vn 0.01960772 -0.01176465 -0.9997385
vn 0.01960772 -0.01176465 -0.9997385
vn 0.01960772 -0.01176465 -0.9997385
vn -0.9921492 -0.01176465 -0.124505
vn -0.9921492 -0.01176465 -0.124505
vn -0.9921492 -0.01176465 -0.124505
vn -0.9921492 -0.01176465 -0.124505
vn -0.9921492 -0.01176465 -0.124505
vn -0.9921492 -0.01176465 -0.124505
vn -0.9921492 -0.01176465 -0.124505
vn -0.9921492 -0.01176465 -0.124505
vn 0.01960772 -0.01176465 -0.9997385
vn 0.01960772 -0.01176465 -0.9997385
vn 0.01960772 -0.01176465 -0.9997385
vn 0.01960772 -0.01176465 -0.9997385
vn 0.01960772 -0.01176465 -0.9997385
vn 0.01960772 -0.01176465 -0.9997385
vn -0.003921509 -0.01176465 0.9999231
vn -0.003921509 -0.01176465 0.9999231
vn -0.003921509 -0.01176465 0.9999231
vn -0.003921509 -0.01176465 0.9999231
vn 0.01960772 -0.01176465 -0.9997385
vn 0.01960772 -0.01176465 -0.9997385
vn 0.01960772 -0.01176465 -0.9997385
vn 0.01960772 -0.01176465 -0.9997385
vn 0.003921568 -0.9999924 0
vn 0.003921568 -0.9999924 0
vn 0.003921568 -0.9999924 0
vn 0.003921568 -0.9999924 0
vn -0.003921509 -0.01176465 0.9999231
vn -0.003921509 -0.01176465 0.9999231
vn -0.003921509 -0.01176465 0.9999231
vn -0.003921509 -0.01176465 0.9999231
vn 0.01960772 -0.01176465 -0.9997385
vn 0.01960772 -0.01176465 -0.9997385
vn 0.01960772 -0.01176465 -0.9997385
vn 0.01960772 -0.01176465 -0.9997385
vn 0.01960772 -0.01176465 -0.9997385
vn 0.01960772 -0.01176465 -0.9997385
vn -0.003921509 -0.01176465 0.9999231
vn -0.003921509 -0.01176465 0.9999231
vn -0.003921509 -0.01176465 0.9999231
vn -0.003921509 -0.01176465 0.9999231
vn -0.003921509 -0.01176465 0.9999231
vn -0.003921509 -0.01176465 0.9999231
vn -0.003921509 -0.01176465 0.9999231
vn -0.003921509 -0.01176465 0.9999231
vn -0.003921509 -0.01176465 0.9999231
vn -0.003921509 -0.01176465 0.9999231
vn -0.003921509 -0.01176465 0.9999231
vn -0.003921509 -0.01176465 0.9999231
vn -0.9921492 -0.01176465 -0.124505
vn -0.9921492 -0.01176465 -0.124505
vn -0.9921492 -0.01176465 -0.124505
vn -0.9921492 -0.01176465 -0.124505
vn -0.9921492 -0.01176465 -0.124505
vn -0.9921492 -0.01176465 -0.124505
vn -0.9921492 -0.01176465 -0.124505
vn -0.9921492 -0.01176465 -0.124505
vn 0.9999924 -0.003921568 0
vn 0.9999924 -0.003921568 0
vn 0.9999924 -0.003921568 0
vn 0.9999924 -0.003921568 0
vn 0.9999924 -0.003921568 0
vn 0.9999924 -0.003921568 0
vn 0.9999924 -0.003921568 0
vn 0.9999924 -0.003921568 0
vn 0.003921568 -0.9999924 0
vn 0.003921568 -0.9999924 0
vn 0.003921568 -0.9999924 0
vn 0.003921568 -0.9999924 0
vn 0.003921568 0.9999923 -0.000345267
vn 0.003921568 0.9999923 -0.000345267
vn 0.003921568 0.9999923 -0.000345267
vn 0.003921568 0.9999923 -0.000345267
vn 0.003921568 0.9999923 -0.000345267
vn 0.003921568 0.9999923 -0.000345267
vn 0.003921568 0.9999923 -0.000345267
vn 0.003921568 0.9999923 -0.000345267
vn 0.003921568 -0.9999924 0
vn 0.003921568 -0.9999924 0
vn 0.003921568 -0.9999924 0
vn 0.003921568 -0.9999924 0
vn 0.003921568 -0.9999924 0
vn 0.003921568 -0.9999924 0
vn 0.003921568 -0.9999924 0
vn 0.003921568 -0.9999924 0
vn 0.003921568 -0.9999924 0
vn 0.003921568 -0.9999924 0
vn 0.003921568 -0.9999924 0
vn 0.003921568 -0.9999924 0
vn 0.003921568 -0.9999924 0
vn 0.003921568 -0.9999924 0
vn 0.003921568 -0.9999924 0
vn 0.003921568 -0.9999924 0
vn 0.003921568 -0.9999924 0
vn 0.003921568 -0.9999924 0
vn 0.003921568 -0.9999924 0
vn 0.003921568 -0.9999924 0
vn 0.003921568 -0.9999924 0
vn 0.003921568 -0.9999924 0
vn 0.003921568 -0.9999924 0
vn 0.003921568 -0.9999924 0
vn 0.003921568 -0.9999924 0
vn 0.003921568 -0.9999924 0
vn 0.003921568 -0.9999924 0
vn 0.003921568 -0.9999924 0
vn 0.003921568 -0.9999924 0
vn 0.003921568 -0.9999924 0
vn 0.003921568 -0.9999924 0
vn 0.003921568 -0.9999924 0
vn 0.9993777 -0.03527218 0
vn 0.9993777 -0.03527218 0
vn 0.9993777 -0.03527218 0
vn 0.9993777 -0.03527218 0
vn 0.05098003 0.6235245 -0.7801399
vn 0.05098003 0.6235245 -0.7801399
vn 0.05098003 0.6235245 -0.7801399
vn 0.05098003 0.6235245 -0.7801399
vn -0.9921492 0.02745068 -0.1220097
vn -0.9921492 0.02745068 -0.1220097
vn -0.9921492 0.02745068 -0.1220097
vn -0.9921492 0.02745068 -0.1220097
vn -0.03529382 -0.6392108 0.7682212
vn -0.03529382 -0.6392108 0.7682212
vn -0.03529382 -0.6392108 0.7682212
vn -0.03529382 -0.6392108 0.7682212
vn -0.9921492 -0.03529388 -0.119976
vn -0.9921492 -0.03529388 -0.119976
vn -0.9921492 -0.03529388 -0.119976
vn -0.9921492 -0.03529388 -0.119976
vn -0.05097997 0.6235245 0.7801399
vn -0.05097997 0.6235245 0.7801399
vn -0.05097997 0.6235245 0.7801399
vn -0.05097997 0.6235245 0.7801399
vn 0.9999309 0.0117638 0
vn 0.9999309 0.0117638 0
vn 0.9999309 0.0117638 0
vn 0.9999309 0.0117638 0
vn 0.06666619 -0.6392108 -0.7661365
vn 0.06666619 -0.6392108 -0.7661365
vn 0.06666619 -0.6392108 -0.7661365
vn 0.06666619 -0.6392108 -0.7661365
vn 0.9993777 -0.03527218 0
vn 0.9993777 -0.03527218 0
vn 0.9993777 -0.03527218 0
vn 0.9993777 -0.03527218 0
vn 0.05098003 0.6235245 -0.7801399
vn 0.05098003 0.6235245 -0.7801399
vn 0.05098003 0.6235245 -0.7801399
vn 0.05098003 0.6235245 -0.7801399
vn -0.9921492 0.02745068 -0.1220097
vn -0.9921492 0.02745068 -0.1220097
vn -0.9921492 0.02745068 -0.1220097
vn -0.9921492 0.02745068 -0.1220097
vn -0.03529382 -0.6392108 0.7682212
vn -0.03529382 -0.6392108 0.7682212
vn -0.03529382 -0.6392108 0.7682212
vn -0.03529382 -0.6392108 0.7682212
vn -0.9921492 -0.03529388 -0.119976
vn -0.9921492 -0.03529388 -0.119976
vn -0.9921492 -0.03529388 -0.119976
vn -0.9921492 -0.03529388 -0.119976
vn -0.05097997 0.6235245 0.7801399
vn -0.05097997 0.6235245 0.7801399
vn -0.05097997 0.6235245 0.7801399
vn -0.05097997 0.6235245 0.7801399
vn 0.9999309 0.0117638 0
vn 0.9999309 0.0117638 0
vn 0.9999309 0.0117638 0
vn 0.9999309 0.0117638 0
vn 0.06666619 -0.6392108 -0.7661365
vn 0.06666619 -0.6392108 -0.7661365
vn 0.06666619 -0.6392108 -0.7661365
vn 0.06666619 -0.6392108 -0.7661365
vn 0.003921568 -0.9999924 0
vn 0.003921568 -0.9999924 0
vn 0.003921568 -0.9999924 0
vn 0.003921568 -0.9999924 0
vn 0.003921568 -0.9999924 0
vn 0.003921568 -0.9999924 0
vn 0.003921568 -0.9999924 0
vn 0.003921568 -0.9999924 0
g DSJ_GTA_daoJu_jiaZi_02_0
f 3/3/3 2/2/2 1/1/1
f 4/4/4 1/1/1 2/2/2
f 2/2/2 5/5/5 4/4/4
f 4/4/4 5/5/5 6/6/6
f 7/7/7 6/6/6 5/5/5
f 5/5/5 8/8/8 7/7/7
f 9/9/9 7/7/7 8/8/8
f 6/6/6 7/7/7 10/10/10
f 6/6/6 10/10/10 11/11/11
f 12/12/12 11/11/11 10/10/10
f 15/15/15 14/14/14 13/13/13
f 16/16/16 13/13/13 14/14/14
f 19/19/19 18/18/18 17/17/17
f 20/20/20 17/17/17 18/18/18
f 18/18/18 19/19/19 21/21/21
f 22/22/22 18/18/18 21/21/21
f 22/22/22 21/21/21 23/23/23
f 24/24/24 23/23/23 21/21/21
f 25/25/25 21/21/21 19/19/19
f 25/25/25 19/19/19 26/26/26
f 26/26/26 27/27/27 25/25/25
f 28/28/28 25/25/25 27/27/27
f 31/31/31 30/30/30 29/29/29
f 32/32/32 29/29/29 30/30/30
f 29/29/29 32/32/32 33/33/33
f 34/34/34 33/33/33 32/32/32
f 37/37/37 36/36/36 35/35/35
f 38/38/38 35/35/35 36/36/36
f 41/41/41 40/40/40 39/39/39
f 42/42/42 39/39/39 40/40/40
f 45/45/45 44/44/44 43/43/43
f 46/46/46 43/43/43 44/44/44
f 49/49/49 48/48/48 47/47/47
f 50/50/50 47/47/47 48/48/48
f 47/47/47 50/50/50 51/51/51
f 52/52/52 51/51/51 50/50/50
f 55/55/55 54/54/54 53/53/53
f 56/56/56 53/53/53 54/54/54
f 53/53/53 56/56/56 57/57/57
f 58/58/58 57/57/57 56/56/56
f 61/61/61 60/60/60 59/59/59
f 62/62/62 59/59/59 60/60/60
f 61/61/61 63/63/63 60/60/60
f 64/64/64 60/60/60 63/63/63
f 67/67/67 66/66/66 65/65/65
f 68/68/68 65/65/65 66/66/66
f 71/71/71 70/70/70 69/69/69
f 72/72/72 69/69/69 70/70/70
f 75/75/75 74/74/74 73/73/73
f 76/76/76 73/73/73 74/74/74
f 79/79/79 78/78/78 77/77/77
f 80/80/80 77/77/77 78/78/78
f 83/83/83 82/82/82 81/81/81
f 84/84/84 81/81/81 82/82/82
f 81/81/81 85/85/85 83/83/83
f 86/86/86 83/83/83 85/85/85
f 85/85/85 87/87/87 86/86/86
f 88/88/88 86/86/86 87/87/87
f 82/82/82 89/89/89 84/84/84
f 90/90/90 84/84/84 89/89/89
f 89/89/89 91/91/91 90/90/90
f 92/92/92 90/90/90 91/91/91
f 95/95/95 94/94/94 93/93/93
f 96/96/96 93/93/93 94/94/94
f 93/93/93 97/97/97 95/95/95
f 98/98/98 95/95/95 97/97/97
f 97/97/97 99/99/99 98/98/98
f 100/100/100 98/98/98 99/99/99
f 94/94/94 101/101/101 96/96/96
f 102/102/102 96/96/96 101/101/101
f 101/101/101 103/103/103 102/102/102
f 104/104/104 102/102/102 103/103/103
f 107/107/107 106/106/106 105/105/105
f 108/108/108 105/105/105 106/106/106
f 105/105/105 109/109/109 107/107/107
f 110/110/110 107/107/107 109/109/109
f 109/109/109 111/111/111 110/110/110
f 112/112/112 110/110/110 111/111/111
f 108/108/108 106/106/106 113/113/113
f 114/114/114 113/113/113 106/106/106
f 114/114/114 115/115/115 113/113/113
f 116/116/116 113/113/113 115/115/115
f 119/119/119 118/118/118 117/117/117
f 120/120/120 117/117/117 118/118/118
f 117/117/117 121/121/121 119/119/119
f 122/122/122 119/119/119 121/121/121
f 121/121/121 123/123/123 122/122/122
f 124/124/124 122/122/122 123/123/123
f 118/118/118 125/125/125 120/120/120
f 126/126/126 120/120/120 125/125/125
f 125/125/125 127/127/127 126/126/126
f 128/128/128 126/126/126 127/127/127
f 131/131/131 130/130/130 129/129/129
f 132/132/132 129/129/129 130/130/130
f 129/129/129 133/133/133 131/131/131
f 134/134/134 131/131/131 133/133/133
f 133/133/133 135/135/135 134/134/134
f 136/136/136 134/134/134 135/135/135
f 130/130/130 137/137/137 132/132/132
f 138/138/138 132/132/132 137/137/137
f 137/137/137 139/139/139 138/138/138
f 140/140/140 138/138/138 139/139/139
f 143/143/143 142/142/142 141/141/141
f 144/144/144 141/141/141 142/142/142
f 141/141/141 145/145/145 143/143/143
f 146/146/146 143/143/143 145/145/145
f 145/145/145 147/147/147 146/146/146
f 148/148/148 146/146/146 147/147/147
f 142/142/142 149/149/149 144/144/144
f 150/150/150 144/144/144 149/149/149
f 149/149/149 151/151/151 150/150/150
f 152/152/152 150/150/150 151/151/151
f 155/155/155 154/154/154 153/153/153
f 156/156/156 153/153/153 154/154/154
f 153/153/153 157/157/157 155/155/155
f 158/158/158 155/155/155 157/157/157
f 157/157/157 159/159/159 158/158/158
f 160/160/160 158/158/158 159/159/159
f 156/156/156 154/154/154 161/161/161
f 162/162/162 161/161/161 154/154/154
f 162/162/162 163/163/163 161/161/161
f 164/164/164 161/161/161 163/163/163
f 167/167/167 166/166/166 165/165/165
f 168/168/168 165/165/165 166/166/166
f 165/165/165 169/169/169 167/167/167
f 170/170/170 167/167/167 169/169/169
f 169/169/169 171/171/171 170/170/170
f 172/172/172 170/170/170 171/171/171
f 166/166/166 173/173/173 168/168/168
f 174/174/174 168/168/168 173/173/173
f 173/173/173 175/175/175 174/174/174
f 176/176/176 174/174/174 175/175/175
f 179/179/179 178/178/178 177/177/177
f 180/180/180 177/177/177 178/178/178
f 177/177/177 181/181/181 179/179/179
f 182/182/182 179/179/179 181/181/181
f 181/181/181 183/183/183 182/182/182
f 184/184/184 182/182/182 183/183/183
f 178/178/178 185/185/185 180/180/180
f 186/186/186 180/180/180 185/185/185
f 185/185/185 187/187/187 186/186/186
f 188/188/188 186/186/186 187/187/187
f 191/191/191 190/190/190 189/189/189
f 192/192/192 189/189/189 190/190/190
f 189/189/189 193/193/193 191/191/191
f 194/194/194 191/191/191 193/193/193
f 193/193/193 195/195/195 194/194/194
f 196/196/196 194/194/194 195/195/195
f 190/190/190 197/197/197 192/192/192
f 198/198/198 192/192/192 197/197/197
f 197/197/197 199/199/199 198/198/198
f 200/200/200 198/198/198 199/199/199
f 203/203/203 202/202/202 201/201/201
f 204/204/204 201/201/201 202/202/202
f 201/201/201 205/205/205 203/203/203
f 206/206/206 203/203/203 205/205/205
f 205/205/205 207/207/207 206/206/206
f 208/208/208 206/206/206 207/207/207
f 204/204/204 202/202/202 209/209/209
f 210/210/210 209/209/209 202/202/202
f 210/210/210 211/211/211 209/209/209
f 212/212/212 209/209/209 211/211/211
f 215/215/215 214/214/214 213/213/213
f 216/216/216 213/213/213 214/214/214
f 213/213/213 217/217/217 215/215/215
f 218/218/218 215/215/215 217/217/217
f 217/217/217 219/219/219 218/218/218
f 220/220/220 218/218/218 219/219/219
f 214/214/214 221/221/221 216/216/216
f 222/222/222 216/216/216 221/221/221
f 221/221/221 223/223/223 222/222/222
f 224/224/224 222/222/222 223/223/223
f 227/227/227 226/226/226 225/225/225
f 228/228/228 225/225/225 226/226/226
f 225/225/225 229/229/229 227/227/227
f 230/230/230 227/227/227 229/229/229
f 229/229/229 231/231/231 230/230/230
f 232/232/232 230/230/230 231/231/231
f 226/226/226 233/233/233 228/228/228
f 234/234/234 228/228/228 233/233/233
f 233/233/233 235/235/235 234/234/234
f 236/236/236 234/234/234 235/235/235
f 239/239/239 238/238/238 237/237/237
f 240/240/240 237/237/237 238/238/238
f 237/237/237 241/241/241 239/239/239
f 242/242/242 239/239/239 241/241/241
f 241/241/241 243/243/243 242/242/242
f 244/244/244 242/242/242 243/243/243
f 238/238/238 245/245/245 240/240/240
f 246/246/246 240/240/240 245/245/245
f 245/245/245 247/247/247 246/246/246
f 248/248/248 246/246/246 247/247/247
f 251/251/251 250/250/250 249/249/249
f 252/252/252 249/249/249 250/250/250
f 249/249/249 253/253/253 251/251/251
f 254/254/254 251/251/251 253/253/253
f 253/253/253 255/255/255 254/254/254
f 256/256/256 254/254/254 255/255/255
f 252/252/252 250/250/250 257/257/257
f 258/258/258 257/257/257 250/250/250
f 258/258/258 259/259/259 257/257/257
f 260/260/260 257/257/257 259/259/259
f 263/263/263 262/262/262 261/261/261
f 264/264/264 261/261/261 262/262/262
f 261/261/261 265/265/265 263/263/263
f 266/266/266 263/263/263 265/265/265
f 265/265/265 267/267/267 266/266/266
f 268/268/268 266/266/266 267/267/267
f 262/262/262 269/269/269 264/264/264
f 270/270/270 264/264/264 269/269/269
f 269/269/269 271/271/271 270/270/270
f 272/272/272 270/270/270 271/271/271
f 275/275/275 274/274/274 273/273/273
f 276/276/276 273/273/273 274/274/274
f 279/279/279 278/278/278 277/277/277
f 280/280/280 277/277/277 278/278/278
f 283/283/283 282/282/282 281/281/281
f 284/284/284 281/281/281 282/282/282
f 287/287/287 286/286/286 285/285/285
f 288/288/288 285/285/285 286/286/286
f 291/291/291 290/290/290 289/289/289
f 292/292/292 289/289/289 290/290/290
f 295/295/295 294/294/294 293/293/293
f 296/296/296 293/293/293 294/294/294
f 299/299/299 298/298/298 297/297/297
f 300/300/300 297/297/297 298/298/298
f 298/298/298 301/301/301 300/300/300
f 302/302/302 300/300/300 301/301/301
f 302/302/302 301/301/301 303/303/303
f 304/304/304 303/303/303 301/301/301
f 307/307/307 306/306/306 305/305/305
f 308/308/308 305/305/305 306/306/306
f 311/311/311 310/310/310 309/309/309
f 312/312/312 309/309/309 310/310/310
f 312/312/312 313/313/313 309/309/309
f 314/314/314 309/309/309 313/313/313
f 313/313/313 315/315/315 314/314/314
f 316/316/316 314/314/314 315/315/315
f 319/319/319 318/318/318 317/317/317
f 320/320/320 317/317/317 318/318/318
f 317/317/317 320/320/320 321/321/321
f 322/322/322 321/321/321 320/320/320
f 325/325/325 324/324/324 323/323/323
f 326/326/326 323/323/323 324/324/324
f 329/329/329 328/328/328 327/327/327
f 330/330/330 327/327/327 328/328/328
f 333/333/333 332/332/332 331/331/331
f 334/334/334 331/331/331 332/332/332
f 337/337/337 336/336/336 335/335/335
f 338/338/338 335/335/335 336/336/336
f 341/341/341 340/340/340 339/339/339
f 342/342/342 339/339/339 340/340/340
f 339/339/339 342/342/342 343/343/343
f 344/344/344 343/343/343 342/342/342
f 347/347/347 346/346/346 345/345/345
f 348/348/348 345/345/345 346/346/346
f 345/345/345 348/348/348 349/349/349
f 350/350/350 349/349/349 348/348/348
f 353/353/353 352/352/352 351/351/351
f 354/354/354 351/351/351 352/352/352
f 353/353/353 355/355/355 352/352/352
f 356/356/356 352/352/352 355/355/355
f 359/359/359 358/358/358 357/357/357
f 360/360/360 357/357/357 358/358/358
f 363/363/363 362/362/362 361/361/361
f 364/364/364 361/361/361 362/362/362
f 367/367/367 366/366/366 365/365/365
f 368/368/368 365/365/365 366/366/366
f 371/371/371 370/370/370 369/369/369
f 372/372/372 369/369/369 370/370/370
f 375/375/375 374/374/374 373/373/373
f 376/376/376 373/373/373 374/374/374
f 379/379/379 378/378/378 377/377/377
f 380/380/380 377/377/377 378/378/378
f 383/383/383 382/382/382 381/381/381
f 384/384/384 381/381/381 382/382/382
f 387/387/387 386/386/386 385/385/385
f 388/388/388 385/385/385 386/386/386
f 391/391/391 390/390/390 389/389/389
f 392/392/392 389/389/389 390/390/390
f 395/395/395 394/394/394 393/393/393
f 396/396/396 393/393/393 394/394/394
f 399/399/399 398/398/398 397/397/397
f 400/400/400 397/397/397 398/398/398
f 403/403/403 402/402/402 401/401/401
f 404/404/404 401/401/401 402/402/402
f 407/407/407 406/406/406 405/405/405
f 408/408/408 405/405/405 406/406/406
f 411/411/411 410/410/410 409/409/409
f 412/412/412 409/409/409 410/410/410
f 415/415/415 414/414/414 413/413/413
f 416/416/416 413/413/413 414/414/414
f 419/419/419 418/418/418 417/417/417
f 420/420/420 417/417/417 418/418/418
f 423/423/423 422/422/422 421/421/421
f 424/424/424 421/421/421 422/422/422
f 427/427/427 426/426/426 425/425/425
f 428/428/428 425/425/425 426/426/426
f 431/431/431 430/430/430 429/429/429
f 432/432/432 429/429/429 430/430/430
f 435/435/435 434/434/434 433/433/433
f 436/436/436 433/433/433 434/434/434
f 439/439/439 438/438/438 437/437/437
f 440/440/440 437/437/437 438/438/438
f 443/443/443 442/442/442 441/441/441
f 444/444/444 441/441/441 442/442/442
f 447/447/447 446/446/446 445/445/445
f 448/448/448 445/445/445 446/446/446
f 451/451/451 450/450/450 449/449/449
f 452/452/452 449/449/449 450/450/450
f 455/455/455 454/454/454 453/453/453
f 456/456/456 453/453/453 454/454/454
f 459/459/459 458/458/458 457/457/457
f 460/460/460 457/457/457 458/458/458
f 463/463/463 462/462/462 461/461/461
f 464/464/464 461/461/461 462/462/462
f 467/467/467 466/466/466 465/465/465
f 468/468/468 465/465/465 466/466/466
f 471/471/471 470/470/470 469/469/469
f 472/472/472 469/469/469 470/470/470
f 475/475/475 474/474/474 473/473/473
f 476/476/476 473/473/473 474/474/474
f 479/479/479 478/478/478 477/477/477
f 480/480/480 477/477/477 478/478/478
f 483/483/483 482/482/482 481/481/481
f 484/484/484 481/481/481 482/482/482
f 487/487/487 486/486/486 485/485/485
f 488/488/488 485/485/485 486/486/486
