g DSJ_GTA_daoJu_xiangZi_10
v 0.8300517 0.006754875 -0.8300588
v -0.8300478 1.666859 -0.8300493
v -0.8300478 0.006754875 -0.8300493
v 0.8300517 1.666857 -0.8300588
v 0.8300517 1.666857 -0.8300588
v -0.8300431 1.666859 0.8300574
v -0.8300478 1.666859 -0.8300493
v 0.8300469 1.666857 0.8300455
v 0.8300469 1.666857 0.8300455
v -0.8300478 0.006754875 0.8300574
v -0.8300431 1.666859 0.8300574
v 0.8300469 0.006754875 0.8300455
v 0.8300469 0.006754875 0.8300455
v -0.8300478 0.006754875 -0.8300493
v -0.8300478 0.006754875 0.8300574
v 0.8300517 0.006754875 -0.8300588
v -0.8300478 0.006754875 -0.8300493
v -0.8300431 1.666859 0.8300574
v -0.8300478 0.006754875 0.8300574
v -0.8300478 1.666859 -0.8300493
v 0.8300469 0.006754875 0.8300455
v 0.8300517 1.666857 -0.8300588
v 0.8300517 0.006754875 -0.8300588
v 0.8300469 1.666857 0.8300455
vt 0.8544145 0.8244257
vt 0.9339723 0.7578139
vt 0.9339723 0.8244257
vt 0.8544145 0.7578139
vt 0.7739749 0.7578139
vt 0.8544145 0.8244257
vt 0.8544145 0.7578139
vt 0.7739749 0.8244257
vt 0.9339723 0.7578139
vt 0.8544145 0.8244257
vt 0.8544145 0.7578139
vt 0.9339723 0.8244257
vt 0.7739749 0.7578139
vt 0.8544145 0.8244257
vt 0.8544145 0.7578139
vt 0.7739749 0.8244257
vt 0.7739749 0.8244257
vt 0.8544145 0.7578139
vt 0.8544145 0.8244257
vt 0.7739749 0.7578139
vt 0.7739749 0.8244257
vt 0.8544145 0.7578139
vt 0.8544145 0.8244257
vt 0.7739749 0.7578139
vn 0.01176465 -0.01176465 -0.9998616
vn 0.01176465 -0.01176465 -0.9998616
vn 0.01176465 -0.01176465 -0.9998616
vn 0.01176465 -0.01176465 -0.9998616
vn 0.003921568 0.9999923 -0.000345267
vn 0.003921568 0.9999923 -0.000345267
vn 0.003921568 0.9999923 -0.000345267
vn 0.003921568 0.9999923 -0.000345267
vn 0.01176465 -0.01176465 0.9998616
vn 0.01176465 -0.01176465 0.9998616
vn 0.01176465 -0.01176465 0.9998616
vn 0.01176465 -0.01176465 0.9998616
vn 0.003921568 -0.9999924 0
vn 0.003921568 -0.9999924 0
vn 0.003921568 -0.9999924 0
vn 0.003921568 -0.9999924 0
vn -0.9999923 -0.003921568 -0.0003442513
vn -0.9999923 -0.003921568 -0.0003442513
vn -0.9999923 -0.003921568 -0.0003442513
vn -0.9999923 -0.003921568 -0.0003442513
vn 0.9999924 -0.003921568 0
vn 0.9999924 -0.003921568 0
vn 0.9999924 -0.003921568 0
vn 0.9999924 -0.003921568 0
g DSJ_GTA_daoJu_xiangZi_10_0
f 3/3/3 2/2/2 1/1/1
f 2/2/2 4/4/4 1/1/1
f 7/7/7 6/6/6 5/5/5
f 6/6/6 8/8/8 5/5/5
f 11/11/11 10/10/10 9/9/9
f 10/10/10 12/12/12 9/9/9
f 15/15/15 14/14/14 13/13/13
f 14/14/14 16/16/16 13/13/13
f 19/19/19 18/18/18 17/17/17
f 18/18/18 20/20/20 17/17/17
f 23/23/23 22/22/22 21/21/21
f 22/22/22 24/24/24 21/21/21
