g DSJ_GTA_gaoLou_15
v 7.586709 16.01135 9.48905
v 23.16777 16.01135 -9.036111
v 23.03189 16.01135 9.760813
v 23.16777 16.01135 -9.036111
v 7.586709 16.01135 9.48905
v 7.813178 16.01135 -9.353168
v 7.813178 13.92784 -9.353168
v 23.16777 16.01135 -9.036111
v 7.813178 16.01135 -9.353168
v 23.16777 16.01135 -9.036111
v 7.813178 13.92784 -9.353168
v 23.12248 -16.10194 -9.036111
v 7.677297 -16.10194 -9.353168
v 7.541415 -16.10194 9.48905
v 7.586709 13.92784 9.48905
v 22.9866 -16.10194 9.760813
v 23.03189 16.01135 9.760813
v 7.586709 16.01135 9.48905
v 23.16777 16.01135 -9.036111
v 23.12248 -16.10194 -9.036111
v 23.03189 16.01135 9.760813
v 22.9866 -16.10194 9.760813
v -7.813179 13.92784 9.217287
v 7.813178 13.92784 -9.353168
v 7.586709 13.92784 9.48905
v -7.632004 13.92784 -9.579636
v -7.58671 12.88608 -9.579636
v 7.813178 13.92784 -9.353168
v -7.632004 13.92784 -9.579636
v 7.677297 -16.10194 -9.353168
v -7.677298 -16.10194 -9.579636
v -7.767885 -16.10194 9.217287
v -7.767885 12.88608 9.217287
v 7.541415 -16.10194 9.48905
v 7.586709 13.92784 9.48905
v -7.813179 13.92784 9.217287
v -23.03189 -16.10194 8.990816
v -7.767885 12.88608 9.217287
v -23.16777 12.88608 8.945524
v -23.16777 12.88608 8.945524
v -7.58671 12.88608 -9.579636
v -7.767885 12.88608 9.217287
v -22.9866 12.88608 -9.896692
v -7.677298 -16.10194 -9.579636
v -22.9866 12.88608 -9.896692
v -22.9866 -16.10194 -9.896692
v -7.58671 12.88608 -9.579636
v -22.9866 -16.10194 -9.896692
v -23.16777 12.88608 8.945524
v -23.03189 -16.10194 8.990816
v -22.9866 12.88608 -9.896692
v -7.813179 13.92784 9.217287
v -7.58671 12.88608 -9.579636
v -7.632004 13.92784 -9.579636
v -7.767885 12.88608 9.217287
v 7.586709 16.01135 9.48905
v 7.813178 13.92784 -9.353168
v 7.813178 16.01135 -9.353168
v 7.586709 13.92784 9.48905
vt 0.8697907 0.999128
vt 0.8227589 0.9089838
vt 0.8227589 0.999128
vt 0.8227589 0.9089838
vt 0.8697907 0.999128
vt 0.8697907 0.9089838
vt 0.3602797 0.2348616
vt 0.30149 0.2505389
vt 0.3602797 0.2505389
vt 0.30149 0.2505389
vt 0.3602797 0.2348616
vt 0.30149 -0.0002972628
vt 0.3602797 -0.0002972628
vt 0.3602797 -0.0002972628
vt 0.3602797 0.2348616
vt 0.30149 -0.0002972628
vt 0.30149 0.2505389
vt 0.3602797 0.2505389
vt 0.3602797 0.2505389
vt 0.3602797 -0.0002972628
vt 0.30149 0.2505389
vt 0.30149 -0.0002972628
vt 0.8697907 0.999128
vt 0.8227589 0.9089838
vt 0.8227589 0.999128
vt 0.8697907 0.9089838
vt 0.30149 0.2427003
vt 0.2505389 0.2505389
vt 0.30149 0.2505389
vt 0.2505389 -0.0002972628
vt 0.30149 -0.0002972628
vt 0.30149 -0.0002972628
vt 0.30149 0.2427003
vt 0.2505389 -0.0002972628
vt 0.2505389 0.2505389
vt 0.30149 0.2505389
vt 0.3602797 -0.0002972628
vt 0.30149 0.2505389
vt 0.3602797 0.2505389
vt 0.8697907 0.999128
vt 0.8227589 0.9089838
vt 0.8227589 0.999128
vt 0.8697907 0.9089838
vt 0.30149 -0.0002972628
vt 0.3602797 0.2505389
vt 0.3602797 -0.0002972628
vt 0.30149 0.2505389
vt 0.3602797 -0.0002972628
vt 0.30149 0.2505389
vt 0.30149 -0.0002972628
vt 0.3602797 0.2505389
vt 0.30149 0.2505389
vt 0.3602797 0.2427003
vt 0.3602797 0.2505389
vt 0.30149 0.2427003
vt 0.30149 0.2505389
vt 0.3602797 0.2348616
vt 0.3602797 0.2505389
vt 0.30149 0.2348616
vn 0.01587098 0.9998741 0
vn 0.01587098 0.9998741 0
vn 0.01587098 0.9998741 0
vn 0.01587098 0.9998741 0
vn 0.01587098 0.9998741 0
vn 0.01587098 0.9998741 0
vn 0.04761302 -0.01587099 -0.9987398
vn 0.04761302 -0.01587099 -0.9987398
vn 0.04761302 -0.01587099 -0.9987398
vn 0.04761302 -0.01587099 -0.9987398
vn 0.04761302 -0.01587099 -0.9987398
vn 0.04761302 -0.01587099 -0.9987398
vn 0.04761302 -0.01587099 -0.9987398
vn -0.01587105 -0.01587099 0.9997481
vn -0.01587105 -0.01587099 0.9997481
vn -0.01587105 -0.01587099 0.9997481
vn -0.01587105 -0.01587099 0.9997481
vn -0.01587105 -0.01587099 0.9997481
vn 0.9998741 -0.01587098 0
vn 0.9998741 -0.01587098 0
vn 0.9998741 -0.01587098 0
vn 0.9998741 -0.01587098 0
vn 0.01587098 0.9998741 0
vn 0.01587098 0.9998741 0
vn 0.01587098 0.9998741 0
vn 0.01587098 0.9998741 0
vn 0.04761302 -0.01587099 -0.9987398
vn 0.04761302 -0.01587099 -0.9987398
vn 0.04761302 -0.01587099 -0.9987398
vn 0.04761302 -0.01587099 -0.9987398
vn 0.04761302 -0.01587099 -0.9987398
vn -0.01587105 -0.01587099 0.9997481
vn -0.01587105 -0.01587099 0.9997481
vn -0.01587105 -0.01587099 0.9997481
vn -0.01587105 -0.01587099 0.9997481
vn -0.01587105 -0.01587099 0.9997481
vn -0.01587105 -0.01587099 0.9997481
vn -0.01587105 -0.01587099 0.9997481
vn -0.01587105 -0.01587099 0.9997481
vn 0.01587098 0.9998741 0
vn 0.01587098 0.9998741 0
vn 0.01587098 0.9998741 0
vn 0.01587098 0.9998741 0
vn 0.04761302 -0.01587099 -0.9987398
vn 0.04761302 -0.01587099 -0.9987398
vn 0.04761302 -0.01587099 -0.9987398
vn 0.04761302 -0.01587099 -0.9987398
vn -0.9681324 -0.01587099 -0.2499356
vn -0.9681324 -0.01587099 -0.2499356
vn -0.9681324 -0.01587099 -0.2499356
vn -0.9681324 -0.01587099 -0.2499356
vn -0.9681324 -0.04761302 -0.2458713
vn -0.9681324 -0.04761302 -0.2458713
vn -0.9681324 -0.04761302 -0.2458713
vn -0.9681324 -0.04761302 -0.2458713
vn -0.9681324 -0.01587099 -0.2499356
vn -0.9681324 -0.01587099 -0.2499356
vn -0.9681324 -0.01587099 -0.2499356
vn -0.9681324 -0.01587099 -0.2499356
g DSJ_GTA_gaoLou_15_0
f 3/3/3 2/2/2 1/1/1
f 6/6/6 5/5/5 4/4/4
f 9/9/9 8/8/8 7/7/7
f 12/12/12 11/11/11 10/10/10
f 13/13/13 11/11/11 12/12/12
f 16/16/16 15/15/15 14/14/14
f 16/16/16 17/17/17 15/15/15
f 18/18/18 15/15/15 17/17/17
f 21/21/21 20/20/20 19/19/19
f 22/22/22 20/20/20 21/21/21
f 25/25/25 24/24/24 23/23/23
f 26/26/26 23/23/23 24/24/24
f 29/29/29 28/28/28 27/27/27
f 30/30/30 27/27/27 28/28/28
f 31/31/31 27/27/27 30/30/30
f 34/34/34 33/33/33 32/32/32
f 34/34/34 35/35/35 33/33/33
f 36/36/36 33/33/33 35/35/35
f 32/32/32 38/38/38 37/37/37
f 39/39/39 37/37/37 38/38/38
f 42/42/42 41/41/41 40/40/40
f 43/43/43 40/40/40 41/41/41
f 46/46/46 45/45/45 44/44/44
f 47/47/47 44/44/44 45/45/45
f 50/50/50 49/49/49 48/48/48
f 51/51/51 48/48/48 49/49/49
f 54/54/54 53/53/53 52/52/52
f 55/55/55 52/52/52 53/53/53
f 58/58/58 57/57/57 56/56/56
f 59/59/59 56/56/56 57/57/57
