g DSJ_GTA_daoJu_zhuangShi_13
v 0.5300089 0.004416108 1.240615
v -0.5299925 0.004416108 0.7738178
v -0.5299925 0.004416108 1.240615
v 0.5300089 0.004416108 0.7738259
v 0.5300089 0.7440317 1.236844
v -0.5299735 0.7440317 1.41917
v -0.5299735 0.7440317 1.236833
v 0.5300089 0.7440317 1.419159
v -0.5299925 0.004416108 1.240615
v -0.5299925 0.164762 0.8675859
v -0.5299925 0.164762 1.115103
v -0.5299925 0.004416108 0.7738178
v -0.5299735 0.7440317 1.41917
v -0.5299735 0.7440317 1.236833
v -0.5299735 0.8932984 0.6855853
v -0.5299735 0.7329552 0.5624964
v -0.5299735 0.8932984 -1.430511E-06
v -0.5299735 0.7329552 -1.430511E-06
v 0.5300089 0.004416108 0.7738259
v 0.5300089 0.164762 1.115114
v 0.5300089 0.164762 0.8675859
v 0.5300089 0.004416108 1.240615
v 0.5300089 0.7329552 0.5625018
v 0.5300089 0.8932984 0.6855934
v 0.5300089 0.8932984 -1.430511E-06
v 0.5300089 0.7329552 -1.430511E-06
v 0.5300089 0.7440317 1.236844
v 0.5300089 0.7440317 1.419159
v 0.5300089 0.164762 0.8675859
v -0.5299925 0.164762 1.115103
v -0.5299925 0.164762 0.8675859
v 0.5300089 0.164762 1.115114
v 0.5300089 0.7440317 1.419159
v -0.5299925 0.004416108 1.240615
v -0.5299735 0.7440317 1.41917
v 0.5300089 0.004416108 1.240615
v -0.5299735 0.7329552 -1.430511E-06
v 0.5300089 0.7329552 0.5625018
v 0.5300089 0.7329552 -1.430511E-06
v -0.5299735 0.7329552 0.5624964
v -0.5299735 0.7329552 0.5624964
v 0.5300089 0.004416108 0.7738259
v 0.5300089 0.7329552 0.5625018
v -0.5299925 0.004416108 0.7738178
v 0.5300089 0.8932984 -1.430511E-06
v -0.5299735 0.8932984 0.6855853
v -0.5299735 0.8932984 -1.430511E-06
v 0.5300089 0.8932984 0.6855934
v 0.5300089 0.8932984 0.6855934
v -0.5299925 0.164762 0.8675859
v -0.5299735 0.8932984 0.6855853
v 0.5300089 0.164762 0.8675859
v -0.5299925 0.164762 1.115103
v 0.5300089 0.7440317 1.236844
v -0.5299735 0.7440317 1.236833
v 0.5300089 0.164762 1.115114
v 0.5300089 0.004416108 -1.240618
v -0.5299925 0.004416108 -0.7738207
v 0.5300089 0.004416108 -0.7738261
v -0.5299925 0.004416108 -1.240618
v 0.5300089 0.7440317 -1.23685
v -0.5299735 0.7440317 -1.41917
v 0.5300089 0.7440317 -1.419165
v -0.5299735 0.7440317 -1.236839
v -0.5299925 0.004416108 -1.240618
v -0.5299925 0.164762 -0.8675915
v -0.5299925 0.004416108 -0.7738207
v -0.5299925 0.164762 -1.115109
v -0.5299735 0.7440317 -1.41917
v -0.5299735 0.7440317 -1.236839
v -0.5299735 0.8932984 -0.6855853
v -0.5299735 0.7329552 -0.5624965
v -0.5299735 0.8932984 -1.430511E-06
v -0.5299735 0.7329552 -1.430511E-06
v 0.5300089 0.004416108 -0.7738261
v 0.5300089 0.164762 -1.115114
v 0.5300089 0.004416108 -1.240618
v 0.5300089 0.164762 -0.8675915
v 0.5300089 0.7329552 -0.562502
v 0.5300089 0.8932984 -0.6855935
v 0.5300089 0.8932984 -1.430511E-06
v 0.5300089 0.7329552 -1.430511E-06
v 0.5300089 0.7440317 -1.23685
v 0.5300089 0.7440317 -1.419165
v 0.5300089 0.164762 -0.8675915
v -0.5299925 0.164762 -1.115109
v 0.5300089 0.164762 -1.115114
v -0.5299925 0.164762 -0.8675915
v 0.5300089 0.7440317 -1.419165
v -0.5299925 0.004416108 -1.240618
v 0.5300089 0.004416108 -1.240618
v -0.5299735 0.7440317 -1.41917
v -0.5299735 0.7329552 -1.430511E-06
v 0.5300089 0.7329552 -0.562502
v -0.5299735 0.7329552 -0.5624965
v 0.5300089 0.7329552 -1.430511E-06
v -0.5299735 0.7329552 -0.5624965
v 0.5300089 0.004416108 -0.7738261
v -0.5299925 0.004416108 -0.7738207
v 0.5300089 0.7329552 -0.562502
v 0.5300089 0.8932984 -1.430511E-06
v -0.5299735 0.8932984 -0.6855853
v 0.5300089 0.8932984 -0.6855935
v -0.5299735 0.8932984 -1.430511E-06
v 0.5300089 0.8932984 -0.6855935
v -0.5299925 0.164762 -0.8675915
v 0.5300089 0.164762 -0.8675915
v -0.5299735 0.8932984 -0.6855853
v -0.5299925 0.164762 -1.115109
v 0.5300089 0.7440317 -1.23685
v 0.5300089 0.164762 -1.115114
v -0.5299735 0.7440317 -1.236839
vt 0.8103106 0.3381431
vt 0.7911439 0.4088031
vt 0.8103106 0.4088031
vt 0.7911439 0.3381431
vt 0.8486198 0.3381431
vt 0.7423229 0.3297465
vt 0.7528186 0.3381431
vt 0.858849 0.3297465
vt 0.7423229 0.3646164
vt 0.7528186 0.3805375
vt 0.7528186 0.3664087
vt 0.7423229 0.3820553
vt 0.7423229 0.3297465
vt 0.7528186 0.3381431
vt 0.7528186 0.3946663
vt 0.7423229 0.3994943
vt 0.7528186 0.4055172
vt 0.7423229 0.4136472
vt 0.858849 0.3820553
vt 0.8486198 0.3664087
vt 0.8486198 0.3805375
vt 0.858849 0.3646164
vt 0.858849 0.3994943
vt 0.8486198 0.3946663
vt 0.8486198 0.4055172
vt 0.858849 0.4136472
vt 0.8486198 0.3381431
vt 0.858849 0.3297465
vt 0.8486198 0.3805375
vt 0.7528186 0.3664087
vt 0.7528186 0.3805375
vt 0.8486198 0.3664087
vt 0.8486198 0.3381431
vt 0.8103106 0.4088031
vt 0.8486198 0.4088031
vt 0.8103106 0.3381431
vt 0.7528347 0.4055252
vt 0.7719933 0.3381431
vt 0.7528347 0.3348733
vt 0.7719933 0.4088031
vt 0.7719933 0.4088031
vt 0.7911439 0.3381431
vt 0.7719933 0.3381431
vt 0.7911439 0.4088031
vt 0.8486198 0.4055172
vt 0.7528186 0.3946663
vt 0.7528186 0.4055172
vt 0.8486198 0.3946663
vt 0.8486198 0.3946663
vt 0.7528186 0.3805375
vt 0.7528186 0.3946663
vt 0.8486198 0.3805375
vt 0.7528186 0.3664087
vt 0.8486198 0.3381431
vt 0.7528186 0.3381431
vt 0.8486198 0.3664087
vt 0.8103106 0.3381431
vt 0.7911439 0.4088031
vt 0.7911439 0.3381431
vt 0.8103106 0.4088031
vt 0.8486198 0.3381431
vt 0.7423229 0.3297465
vt 0.858849 0.3297465
vt 0.7528186 0.3381431
vt 0.7423229 0.3646164
vt 0.7528186 0.3805375
vt 0.7423229 0.3820553
vt 0.7528186 0.3664087
vt 0.7423229 0.3297465
vt 0.7528186 0.3381431
vt 0.7528186 0.3946663
vt 0.7423229 0.3994943
vt 0.7528186 0.4055172
vt 0.7423229 0.4136472
vt 0.858849 0.3820553
vt 0.8486198 0.3664087
vt 0.858849 0.3646164
vt 0.8486198 0.3805375
vt 0.858849 0.3994943
vt 0.8486198 0.3946663
vt 0.8486198 0.4055172
vt 0.858849 0.4136472
vt 0.8486198 0.3381431
vt 0.858849 0.3297465
vt 0.8486198 0.3805375
vt 0.7528186 0.3664087
vt 0.8486198 0.3664087
vt 0.7528186 0.3805375
vt 0.8486198 0.3381431
vt 0.8103106 0.4088031
vt 0.8103106 0.3381431
vt 0.8486198 0.4088031
vt 0.7528347 0.4055252
vt 0.7719933 0.3381431
vt 0.7719933 0.4088031
vt 0.7528347 0.3348733
vt 0.7719933 0.4088031
vt 0.7911439 0.3381431
vt 0.7911439 0.4088031
vt 0.7719933 0.3381431
vt 0.8486198 0.4055172
vt 0.7528186 0.3946663
vt 0.8486198 0.3946663
vt 0.7528186 0.4055172
vt 0.8486198 0.3946663
vt 0.7528186 0.3805375
vt 0.8486198 0.3805375
vt 0.7528186 0.3946663
vt 0.7528186 0.3664087
vt 0.8486198 0.3381431
vt 0.8486198 0.3664087
vt 0.7528186 0.3381431
vn 0.003921568 -0.9999924 0
vn 0.003921568 -0.9999924 0
vn 0.003921568 -0.9999924 0
vn 0.003921568 -0.9999924 0
vn 0.003921568 0.9999923 -0.000345267
vn 0.003921568 0.9999923 -0.000345267
vn 0.003921568 0.9999923 -0.000345267
vn 0.003921568 0.9999923 -0.000345267
vn -0.9999923 -0.003921568 -0.0003442513
vn -0.9999923 -0.003921568 -0.0003442513
vn -0.9999923 -0.003921568 -0.0003442513
vn -0.9999923 -0.003921568 -0.0003442513
vn -0.9999923 -0.003921568 -0.0003442513
vn -0.9999923 -0.003921568 -0.0003442513
vn -0.9999923 -0.003921568 -0.0003442513
vn -0.9999923 -0.003921568 -0.0003442513
vn -0.9999923 -0.003921568 -0.0003442513
vn -0.9999923 -0.003921568 -0.0003442513
vn 0.9999924 -0.003921568 0
vn 0.9999924 -0.003921568 0
vn 0.9999924 -0.003921568 0
vn 0.9999924 -0.003921568 0
vn 0.9999924 -0.003921568 0
vn 0.9999924 -0.003921568 0
vn 0.9999924 -0.003921568 0
vn 0.9999924 -0.003921568 0
vn 0.9999924 -0.003921568 0
vn 0.9999924 -0.003921568 0
vn 0.003921568 0.9999923 -0.000345267
vn 0.003921568 0.9999923 -0.000345267
vn 0.003921568 0.9999923 -0.000345267
vn 0.003921568 0.9999923 -0.000345267
vn 0.01176465 -0.247057 0.9689295
vn 0.01176465 -0.247057 0.9689295
vn 0.01176465 -0.247057 0.9689295
vn 0.01176465 -0.247057 0.9689295
vn 0.003921568 -0.9999924 0
vn 0.003921568 -0.9999924 0
vn 0.003921568 -0.9999924 0
vn 0.003921568 -0.9999924 0
vn 0.01176465 -0.2941154 -0.9556975
vn 0.01176465 -0.2941154 -0.9556975
vn 0.01176465 -0.2941154 -0.9556975
vn 0.01176465 -0.2941154 -0.9556975
vn 0.003921568 0.9999923 -0.000345267
vn 0.003921568 0.9999923 -0.000345267
vn 0.003921568 0.9999923 -0.000345267
vn 0.003921568 0.9999923 -0.000345267
vn 0.01176465 0.2392138 0.9708956
vn 0.01176465 0.2392138 0.9708956
vn 0.01176465 0.2392138 0.9708956
vn 0.01176465 0.2392138 0.9708956
vn 0.01176465 0.1999984 -0.9797256
vn 0.01176465 0.1999984 -0.9797256
vn 0.01176465 0.1999984 -0.9797256
vn 0.01176465 0.1999984 -0.9797256
vn 0.003921568 -0.9999924 0
vn 0.003921568 -0.9999924 0
vn 0.003921568 -0.9999924 0
vn 0.003921568 -0.9999924 0
vn 0.003921568 0.9999923 -0.000345267
vn 0.003921568 0.9999923 -0.000345267
vn 0.003921568 0.9999923 -0.000345267
vn 0.003921568 0.9999923 -0.000345267
vn -0.9999923 -0.003921568 -0.0003442513
vn -0.9999923 -0.003921568 -0.0003442513
vn -0.9999923 -0.003921568 -0.0003442513
vn -0.9999923 -0.003921568 -0.0003442513
vn -0.9999923 -0.003921568 -0.0003442513
vn -0.9999923 -0.003921568 -0.0003442513
vn -0.9999923 -0.003921568 -0.0003442513
vn -0.9999923 -0.003921568 -0.0003442513
vn -0.9999923 -0.003921568 -0.0003442513
vn -0.9999923 -0.003921568 -0.0003442513
vn 0.9999924 -0.003921568 0
vn 0.9999924 -0.003921568 0
vn 0.9999924 -0.003921568 0
vn 0.9999924 -0.003921568 0
vn 0.9999924 -0.003921568 0
vn 0.9999924 -0.003921568 0
vn 0.9999924 -0.003921568 0
vn 0.9999924 -0.003921568 0
vn 0.9999924 -0.003921568 0
vn 0.9999924 -0.003921568 0
vn 0.003921568 0.9999923 -0.000345267
vn 0.003921568 0.9999923 -0.000345267
vn 0.003921568 0.9999923 -0.000345267
vn 0.003921568 0.9999923 -0.000345267
vn 0.01176465 -0.247057 -0.9689295
vn 0.01176465 -0.247057 -0.9689295
vn 0.01176465 -0.247057 -0.9689295
vn 0.01176465 -0.247057 -0.9689295
vn 0.003921568 -0.9999924 0
vn 0.003921568 -0.9999924 0
vn 0.003921568 -0.9999924 0
vn 0.003921568 -0.9999924 0
vn 0.01176465 -0.2941154 0.9556975
vn 0.01176465 -0.2941154 0.9556975
vn 0.01176465 -0.2941154 0.9556975
vn 0.01176465 -0.2941154 0.9556975
vn 0.003921568 0.9999923 -0.000345267
vn 0.003921568 0.9999923 -0.000345267
vn 0.003921568 0.9999923 -0.000345267
vn 0.003921568 0.9999923 -0.000345267
vn 0.01176465 0.2392138 -0.9708956
vn 0.01176465 0.2392138 -0.9708956
vn 0.01176465 0.2392138 -0.9708956
vn 0.01176465 0.2392138 -0.9708956
vn 0.01176465 0.1999984 0.9797256
vn 0.01176465 0.1999984 0.9797256
vn 0.01176465 0.1999984 0.9797256
vn 0.01176465 0.1999984 0.9797256
g DSJ_GTA_daoJu_zhuangShi_13_0
f 3/3/3 2/2/2 1/1/1
f 4/4/4 1/1/1 2/2/2
f 7/7/7 6/6/6 5/5/5
f 8/8/8 5/5/5 6/6/6
f 11/11/11 10/10/10 9/9/9
f 12/12/12 9/9/9 10/10/10
f 9/9/9 13/13/13 11/11/11
f 14/14/14 11/11/11 13/13/13
f 10/10/10 15/15/15 12/12/12
f 16/16/16 12/12/12 15/15/15
f 15/15/15 17/17/17 16/16/16
f 18/18/18 16/16/16 17/17/17
f 21/21/21 20/20/20 19/19/19
f 22/22/22 19/19/19 20/20/20
f 19/19/19 23/23/23 21/21/21
f 24/24/24 21/21/21 23/23/23
f 24/24/24 23/23/23 25/25/25
f 26/26/26 25/25/25 23/23/23
f 20/20/20 27/27/27 22/22/22
f 28/28/28 22/22/22 27/27/27
f 31/31/31 30/30/30 29/29/29
f 32/32/32 29/29/29 30/30/30
f 35/35/35 34/34/34 33/33/33
f 36/36/36 33/33/33 34/34/34
f 39/39/39 38/38/38 37/37/37
f 40/40/40 37/37/37 38/38/38
f 43/43/43 42/42/42 41/41/41
f 44/44/44 41/41/41 42/42/42
f 47/47/47 46/46/46 45/45/45
f 48/48/48 45/45/45 46/46/46
f 51/51/51 50/50/50 49/49/49
f 52/52/52 49/49/49 50/50/50
f 55/55/55 54/54/54 53/53/53
f 56/56/56 53/53/53 54/54/54
f 59/59/59 58/58/58 57/57/57
f 60/60/60 57/57/57 58/58/58
f 63/63/63 62/62/62 61/61/61
f 64/64/64 61/61/61 62/62/62
f 67/67/67 66/66/66 65/65/65
f 68/68/68 65/65/65 66/66/66
f 65/65/65 68/68/68 69/69/69
f 70/70/70 69/69/69 68/68/68
f 66/66/66 67/67/67 71/71/71
f 72/72/72 71/71/71 67/67/67
f 71/71/71 72/72/72 73/73/73
f 74/74/74 73/73/73 72/72/72
f 77/77/77 76/76/76 75/75/75
f 78/78/78 75/75/75 76/76/76
f 75/75/75 78/78/78 79/79/79
f 80/80/80 79/79/79 78/78/78
f 80/80/80 81/81/81 79/79/79
f 82/82/82 79/79/79 81/81/81
f 76/76/76 77/77/77 83/83/83
f 84/84/84 83/83/83 77/77/77
f 87/87/87 86/86/86 85/85/85
f 88/88/88 85/85/85 86/86/86
f 91/91/91 90/90/90 89/89/89
f 92/92/92 89/89/89 90/90/90
f 95/95/95 94/94/94 93/93/93
f 96/96/96 93/93/93 94/94/94
f 99/99/99 98/98/98 97/97/97
f 100/100/100 97/97/97 98/98/98
f 103/103/103 102/102/102 101/101/101
f 104/104/104 101/101/101 102/102/102
f 107/107/107 106/106/106 105/105/105
f 108/108/108 105/105/105 106/106/106
f 111/111/111 110/110/110 109/109/109
f 112/112/112 109/109/109 110/110/110
