g DSJ_GTA_daoJu_zhiShiDeng_01
v -3.802984 0.04735947 -0.3468523
v -3.602726 1.234577 -8.583069E-06
v -3.802984 1.234577 -0.3468523
v -3.602726 0.04735947 -8.583069E-06
v -3.785769 1.478554 -8.583069E-06
v -3.894496 1.478554 -0.188344
v -3.785769 16.08693 -8.583069E-06
v -3.894496 16.08693 -0.188344
v -4.203462 0.04735947 -0.3468523
v -3.802984 1.234577 -0.3468523
v -4.203462 1.234577 -0.3468523
v -3.802984 0.04735947 -0.3468523
v -3.894496 1.478554 -0.188344
v -4.111971 1.478554 -0.188344
v -3.894496 16.08693 -0.188344
v -4.111971 16.08693 -0.188344
v -4.403741 0.04735947 -8.583069E-06
v -4.203462 1.234577 -0.3468523
v -4.403741 1.234577 -8.583069E-06
v -4.203462 0.04735947 -0.3468523
v -4.111971 1.478554 -0.188344
v -4.220677 1.478554 -8.583069E-06
v -4.111971 16.08693 -0.188344
v -4.220677 16.08693 -8.583069E-06
v -4.203462 0.04735947 0.3468151
v -4.403741 1.234577 -8.583069E-06
v -4.203462 1.234577 0.3468151
v -4.403741 0.04735947 -8.583069E-06
v -4.220677 1.478554 -8.583069E-06
v -4.111971 1.478554 0.1882868
v -4.220677 16.08693 -8.583069E-06
v -4.111971 16.08693 0.1882868
v -3.802984 0.04735947 0.3468151
v -4.203462 1.234577 0.3468151
v -3.802984 1.234577 0.3468151
v -4.203462 0.04735947 0.3468151
v -4.111971 1.478554 0.1882868
v -3.894496 1.478554 0.1882868
v -4.111971 16.08693 0.1882868
v -3.894496 16.08693 0.1882868
v -3.602726 0.04735947 -8.583069E-06
v -3.802984 1.234577 0.3468151
v -3.602726 1.234577 -8.583069E-06
v -3.802984 0.04735947 0.3468151
v -3.894496 1.478554 0.1882868
v -3.785769 1.478554 -8.583069E-06
v -3.894496 16.08693 0.1882868
v -3.785769 16.08693 -8.583069E-06
v -3.894496 16.08693 0.1882868
v -4.220677 16.08693 -8.583069E-06
v -3.785769 16.08693 -8.583069E-06
v -4.111971 16.08693 0.1882868
v -3.894496 16.08693 -0.188344
v -4.111971 16.08693 -0.188344
v -5.175354 4.855682 -0.4704018
v -4.24572 4.855682 0.4592328
v -4.24572 4.855682 -0.4704018
v -5.175354 4.855682 0.4592328
v -4.24572 6.449339 0.4592328
v -5.175354 6.449339 -0.4704018
v -4.24572 6.449339 -0.4704018
v -5.175354 6.449339 0.4592328
v -4.24572 4.855682 0.4592328
v -5.175354 6.449339 0.4592328
v -4.24572 6.449339 0.4592328
v -5.175354 4.855682 0.4592328
v -4.24572 4.855682 -0.4704018
v -4.24572 6.449339 0.4592328
v -4.24572 6.449339 -0.4704018
v -4.24572 4.855682 0.4592328
v -5.175354 4.855682 -0.4704018
v -4.24572 6.449339 -0.4704018
v -5.175354 6.449339 -0.4704018
v -4.24572 4.855682 -0.4704018
v -5.175354 4.855682 0.4592328
v -5.175354 6.449339 -0.4704018
v -5.175354 6.449339 0.4592328
v -5.175354 4.855682 -0.4704018
v 4.245777 10.98799 -0.4704018
v 5.175371 10.98799 0.4592328
v 5.175371 10.98799 -0.4704018
v 4.245777 10.98799 0.4592328
v 5.175371 13.64406 0.4592528
v 4.245777 13.64406 -0.4703817
v 5.175371 13.64406 -0.4703817
v 4.245777 13.64406 0.4592528
v 5.175371 10.98799 0.4592328
v 4.245777 13.64406 0.4592528
v 5.175371 13.64406 0.4592528
v 4.245777 10.98799 0.4592328
v 5.175371 10.98799 -0.4704018
v 5.175371 13.64406 0.4592528
v 5.175371 13.64406 -0.4703817
v 5.175371 10.98799 0.4592328
v 4.245777 10.98799 -0.4704018
v 5.175371 13.64406 -0.4703817
v 4.245777 13.64406 -0.4703817
v 5.175371 10.98799 -0.4704018
v 4.245777 10.98799 0.4592328
v 4.245777 13.64406 -0.4703817
v 4.245777 13.64406 0.4592528
v 4.245777 10.98799 -0.4704018
v -3.22942 10.30568 0.09389591
v -4.000973 9.395249 -0.09393311
v -3.22942 10.30568 -0.09393311
v -4.000973 9.395249 0.09389591
v -2.405978 11.18549 0.09389591
v -2.405978 11.18549 -0.09393311
v -1.481697 11.99983 0.09389591
v -1.481697 11.99983 -0.09393311
v -0.4073224 12.71345 0.09389591
v -0.4073224 12.71345 -0.09393311
v 0.8047547 13.24095 0.09389591
v 0.8047547 13.24095 -0.09393311
v 2.089871 13.56498 0.09389591
v 2.089871 13.56498 -0.09393311
v 3.420247 13.75358 0.09389591
v 3.420247 13.75358 -0.09393311
v 4.770838 13.87463 0.09389591
v 4.770838 13.87463 -0.09393311
v -3.22942 10.30568 -0.09393311
v -3.857693 9.273829 -0.09393311
v -3.089121 10.18075 -0.09393311
v -4.000973 9.395249 -0.09393311
v -2.405978 11.18549 -0.09393311
v -2.275047 11.05055 -0.09393311
v -1.481697 11.99983 -0.09393311
v -1.36715 11.85045 -0.09393311
v -0.4073224 12.71345 -0.09393311
v -0.3172102 12.54783 -0.09393311
v 0.8047547 13.24095 -0.09393311
v 0.8655667 13.06257 -0.09393311
v 2.089871 13.56498 -0.09393311
v 2.126107 13.38046 -0.09393311
v 3.420247 13.75358 -0.09393311
v 3.441801 13.56693 -0.09393311
v 4.770838 13.87463 -0.09393311
v 4.787608 13.68753 -0.09393311
v -3.089121 10.18075 -0.09393311
v -3.857693 9.273829 0.09389591
v -3.089121 10.18075 0.09389591
v -3.857693 9.273829 -0.09393311
v -2.275047 11.05055 -0.09393311
v -2.275047 11.05055 0.09389591
v -1.36715 11.85045 -0.09393311
v -1.36715 11.85045 0.09389591
v -0.3172102 12.54783 -0.09393311
v -0.3172102 12.54783 0.09389591
v 0.8655667 13.06257 -0.09393311
v 0.8655667 13.06257 0.09389591
v 2.126107 13.38046 -0.09393311
v 2.126107 13.38046 0.09389591
v 3.441801 13.56693 -0.09393311
v 3.441801 13.56693 0.09389591
v 4.787608 13.68753 -0.09393311
v 4.787608 13.68753 0.09389591
v -3.089121 10.18075 0.09389591
v -4.000973 9.395249 0.09389591
v -3.22942 10.30568 0.09389591
v -3.857693 9.273829 0.09389591
v -2.275047 11.05055 0.09389591
v -2.405978 11.18549 0.09389591
v -1.36715 11.85045 0.09389591
v -1.481697 11.99983 0.09389591
v -0.3172102 12.54783 0.09389591
v -0.4073224 12.71345 0.09389591
v 0.8655667 13.06257 0.09389591
v 0.8047547 13.24095 0.09389591
v 2.126107 13.38046 0.09389591
v 2.089871 13.56498 0.09389591
v 3.441801 13.56693 0.09389591
v 3.420247 13.75358 0.09389591
v 4.787608 13.68753 0.09389591
v 4.770838 13.87463 0.09389591
v 1.322557 12.15325 1.753737
v 1.322557 13.15901 -1.753795
v 1.322557 12.15325 -1.753795
v 1.322557 13.15903 1.753737
v -4.879549 7.916505 0.3655109
v -1.372016 8.92224 0.3655109
v -1.372016 7.916505 0.3655109
v -4.879549 8.92224 0.3655109
v -1.372016 7.916505 -0.3639054
v -4.879549 8.92224 -0.3639054
v -4.879549 7.916505 -0.3639054
v -1.372016 8.92224 -0.3639054
v -4.205956 14.36912 -1.482687
v 3.954656 13.67946 -0.005178928
v 4.022808 13.7188 -0.005057335
v -4.211452 14.32479 -1.471575
v -4.211452 14.32479 -1.471575
v 3.768854 13.72632 -0.005503654
v 3.954656 13.67946 -0.005178928
v -4.214716 14.35725 -1.439111
v 3.768854 13.72632 -0.005503654
v -4.205956 14.36912 -1.482687
v 4.022808 13.7188 -0.005057335
v -4.214716 14.35725 -1.439111
v -4.231181 14.36908 1.447063
v 3.768854 13.72632 -0.005503654
v -4.239799 14.35725 1.403426
v -4.231181 14.36908 1.447063
v 3.954656 13.67946 -0.005178928
v -4.236635 14.32479 1.43587
v 4.022808 13.7188 -0.005057335
v -4.236635 14.32479 1.43587
v 3.768854 13.72632 -0.005503654
v -4.239799 14.35725 1.403426
v 3.954656 13.67946 -0.005178928
v -4.281489 14.43777 -1.593441
v -4.201779 14.25185 -1.593441
v -4.201779 14.43777 -1.593441
v -4.281489 14.25185 -1.593441
v -4.201779 14.25185 1.59379
v -4.281489 14.43777 1.59379
v -4.201779 14.43777 1.59379
v -4.281489 14.25185 1.59379
v -4.201779 14.25185 -1.593441
v -4.281489 14.25185 1.59379
v -4.201779 14.25185 1.59379
v -4.281489 14.25185 -1.593441
v -4.201779 14.43777 -1.593441
v -4.201779 14.25185 1.59379
v -4.201779 14.43777 1.59379
v -4.201779 14.25185 -1.593441
v -4.281489 14.43777 -1.593441
v -4.201779 14.43777 1.59379
v -4.281489 14.43777 1.59379
v -4.201779 14.43777 -1.593441
v -4.281489 14.25185 -1.593441
v -4.281489 14.43777 1.59379
v -4.281489 14.25185 1.59379
v -4.281489 14.43777 -1.593441
v 4.787608 13.68753 -0.09393311
v 4.770838 13.87463 0.09389591
v 4.770838 13.87463 -0.09393311
v 4.787608 13.68753 0.09389591
vt 0.08202405 0.1985511
vt 0.1003799 0.2039049
vt 0.1003799 0.1985511
vt 0.08202405 0.2039049
vt 0.1041495 0.2039049
vt 0.1041495 0.1985784
vt 0.3299787 0.2039049
vt 0.3299787 0.1985238
vt 0.08202405 0.1923506
vt 0.1003799 0.1985511
vt 0.1003799 0.1923506
vt 0.08202405 0.1985511
vt 0.1041495 0.1985784
vt 0.1041495 0.1923506
vt 0.3299787 0.1985238
vt 0.3299787 0.1922003
vt 0.08202405 0.1869968
vt 0.1003799 0.1923506
vt 0.1003799 0.1869968
vt 0.08202405 0.1923506
vt 0.1041495 0.1923506
vt 0.1041495 0.1869968
vt 0.3299787 0.1922003
vt 0.3299787 0.1869968
vt 0.08202405 0.1816157
vt 0.1003799 0.1869968
vt 0.1003799 0.1816157
vt 0.08202405 0.1869968
vt 0.1041495 0.1869968
vt 0.1041495 0.184074
vt 0.3299787 0.1869968
vt 0.3299787 0.184074
vt 0.08202405 0.2092587
vt 0.1003799 0.2154593
vt 0.1003799 0.2092587
vt 0.08202405 0.2154593
vt 0.1041495 0.2140526
vt 0.1041495 0.2092587
vt 0.3299787 0.2140526
vt 0.3299787 0.2092587
vt 0.08202405 0.2039049
vt 0.1003799 0.2092587
vt 0.1003799 0.2039049
vt 0.08202405 0.2092587
vt 0.1041495 0.2092587
vt 0.1041495 0.2039049
vt 0.3299787 0.2092587
vt 0.3299787 0.2039049
vt 0.09411108 0.1936344
vt 0.08941285 0.1963386
vt 0.09569536 0.1963386
vt 0.09098348 0.1936344
vt 0.09411108 0.1990701
vt 0.09098348 0.1990701
vt 0.4362079 0.0359568
vt 0.4702155 0.06995069
vt 0.4702155 0.0359568
vt 0.4362079 0.06995069
vt 0.4702155 0.0359568
vt 0.4362079 0.06995069
vt 0.4702155 0.06995069
vt 0.4362079 0.0359568
vt 0.3779171 0.06995069
vt 0.4362079 0.1039582
vt 0.4362079 0.06995069
vt 0.3779171 0.1039582
vt 0.3779171 0.0359568
vt 0.4362079 0.06995069
vt 0.4362079 0.0359568
vt 0.3779171 0.06995069
vt 0.3779171 0.06995069
vt 0.4362079 0.1039582
vt 0.4362079 0.06995069
vt 0.3779171 0.1039582
vt 0.3779171 0.0359568
vt 0.4362079 0.06995069
vt 0.4362079 0.0359568
vt 0.3779171 0.06995069
vt 0.4659133 0.193129
vt 0.4391989 0.166442
vt 0.4391989 0.193129
vt 0.4659133 0.166442
vt 0.4391989 0.193129
vt 0.4659133 0.166442
vt 0.4391989 0.166442
vt 0.4659133 0.193129
vt 0.3630029 0.166442
vt 0.4391989 0.193129
vt 0.4391989 0.166442
vt 0.3630029 0.193129
vt 0.3630029 0.193129
vt 0.4391989 0.166442
vt 0.4391989 0.193129
vt 0.3630029 0.166442
vt 0.3630029 0.166442
vt 0.4391989 0.193129
vt 0.4391989 0.166442
vt 0.3630029 0.193129
vt 0.3630029 0.166442
vt 0.4391989 0.193129
vt 0.4391989 0.166442
vt 0.3630029 0.193129
vt 0.458866 0.2394831
vt 0.4833815 0.2343615
vt 0.458866 0.2343615
vt 0.4833815 0.2394831
vt 0.4353475 0.2394831
vt 0.4353475 0.2343615
vt 0.4108047 0.2394831
vt 0.4108047 0.2343615
vt 0.3823968 0.2394831
vt 0.3823968 0.2343615
vt 0.3504242 0.2394831
vt 0.3504242 0.2343615
vt 0.3163347 0.2394831
vt 0.3163347 0.2343615
vt 0.2807292 0.2394831
vt 0.2807292 0.2343615
vt 0.2443452 0.2394695
vt 0.2443452 0.2343752
vt 0.3570482 0.2054209
vt 0.3422979 0.1960928
vt 0.3580725 0.2028943
vt 0.3412326 0.1985648
vt 0.3733418 0.2115396
vt 0.3741749 0.2089446
vt 0.3905231 0.2161559
vt 0.3910421 0.213479
vt 0.4089882 0.2185186
vt 0.4091111 0.2158007
vt 0.4280816 0.2175899
vt 0.4277129 0.214872
vt 0.446779 0.2135336
vt 0.4460824 0.2109113
vt 0.4652168 0.2074559
vt 0.4642881 0.2049156
vt 0.4834771 0.2003676
vt 0.4824937 0.1978546
vt 0.458866 0.2394831
vt 0.4833815 0.2343615
vt 0.458866 0.2343615
vt 0.4833815 0.2394831
vt 0.4353475 0.2394831
vt 0.4353475 0.2343615
vt 0.4108047 0.2394831
vt 0.4108047 0.2343615
vt 0.3823968 0.2394831
vt 0.3823968 0.2343615
vt 0.3504242 0.2394831
vt 0.3504242 0.2343615
vt 0.3163347 0.2394831
vt 0.3163347 0.2343615
vt 0.2807292 0.2394831
vt 0.2807292 0.2343615
vt 0.2443452 0.2394695
vt 0.2443452 0.2343752
vt 0.3580725 0.2028943
vt 0.3412326 0.1985648
vt 0.3570482 0.2054209
vt 0.3422979 0.1960928
vt 0.3741749 0.2089446
vt 0.3733418 0.2115396
vt 0.3910421 0.213479
vt 0.3905231 0.2161559
vt 0.4091111 0.2158007
vt 0.4089882 0.2185186
vt 0.4277129 0.214872
vt 0.4280816 0.2175899
vt 0.4460824 0.2109113
vt 0.446779 0.2135336
vt 0.4642881 0.2049156
vt 0.4652168 0.2074559
vt 0.4824937 0.1978546
vt 0.4834771 0.2003676
vt 0.3724677 0.1236662
vt 0.4762931 0.1534126
vt 0.4762931 0.1236662
vt 0.3724677 0.1534126
vt 0.3724677 0.1236662
vt 0.4762931 0.1534126
vt 0.4762931 0.1236662
vt 0.3724677 0.1534126
vt 0.3724677 0.1236662
vt 0.4762931 0.1534126
vt 0.4762931 0.1236662
vt 0.3724677 0.1534126
vt 0.4553423 0.2462027
vt 0.2387866 0.2425561
vt 0.2387866 0.2462846
vt 0.4553423 0.2423376
vt 0.2387866 0.2425561
vt 0.4553423 0.2462027
vt 0.4553423 0.2423376
vt 0.2387866 0.2462846
vt 0.2387866 0.2425561
vt 0.4553423 0.2462027
vt 0.2387866 0.2462846
vt 0.4553423 0.2423376
vt 0.4553423 0.2462027
vt 0.2387866 0.2425561
vt 0.4553423 0.2423376
vt 0.2387866 0.2462846
vt 0.4553423 0.2423376
vt 0.2387866 0.2425561
vt 0.4553423 0.2462027
vt 0.4553423 0.2423376
vt 0.2387866 0.2462846
vt 0.4553423 0.2462027
vt 0.2387866 0.2425561
vt 0.2421054 0.2292809
vt 0.2399338 0.2242548
vt 0.2399338 0.2292809
vt 0.2421054 0.2242548
vt 0.3304977 0.2242548
vt 0.3283261 0.2292809
vt 0.3304977 0.2292809
vt 0.3283261 0.2242548
vt 0.3283261 0.2292809
vt 0.2421054 0.2314524
vt 0.2421054 0.2292809
vt 0.3283261 0.2314524
vt 0.2421054 0.2242548
vt 0.3283261 0.2292809
vt 0.3283261 0.2242548
vt 0.2421054 0.2292809
vt 0.2421054 0.2292809
vt 0.3283261 0.2314524
vt 0.3283261 0.2292809
vt 0.2421054 0.2314524
vt 0.2421054 0.2242548
vt 0.3283261 0.2292809
vt 0.3283261 0.2242548
vt 0.2421054 0.2292809
vt 0.2443452 0.2394695
vt 0.2392646 0.2343752
vt 0.2392646 0.2394558
vt 0.2443452 0.2343752
vn 0.8745031 -0.01176465 -0.4848772
vn 0.8509739 0.2470568 -0.4634721
vn 0.8509739 0.2470568 -0.4634721
vn 0.8745031 -0.01176465 -0.4848772
vn 0.8352877 0.3019584 -0.459473
vn 0.8352877 0.3019584 -0.459473
vn 0.8745031 -0.01176465 -0.4848772
vn 0.8745031 -0.01176465 -0.4848772
vn 0.01176465 -0.01176465 -0.9998616
vn 0.01176465 0.2470568 -0.9689296
vn 0.01176465 0.2470568 -0.9689296
vn 0.01176465 -0.01176465 -0.9998616
vn 0.01176465 0.3019584 -0.9532485
vn 0.01176465 0.3019584 -0.9532485
vn 0.01176465 -0.01176465 -0.9998616
vn 0.01176465 -0.01176465 -0.9998616
vn -0.8588169 -0.01176465 -0.5121476
vn -0.8352877 0.2470568 -0.4911796
vn -0.8352877 0.2470568 -0.4911796
vn -0.8588169 -0.01176465 -0.5121476
vn -0.8196015 0.3019584 -0.4869029
vn -0.8196015 0.3019584 -0.4869029
vn -0.8588169 -0.01176465 -0.5121476
vn -0.8588169 -0.01176465 -0.5121476
vn -0.8588169 -0.01176465 0.5121476
vn -0.8352877 0.2470568 0.4911796
vn -0.8352877 0.2470568 0.4911796
vn -0.8588169 -0.01176465 0.5121476
vn -0.8196015 0.3019584 0.4869029
vn -0.8196015 0.3019584 0.4869029
vn -0.8588169 -0.01176465 0.5121476
vn -0.8588169 -0.01176465 0.5121476
vn 0.01176465 -0.01176465 0.9998616
vn 0.01176465 0.2470568 0.9689296
vn 0.01176465 0.2470568 0.9689296
vn 0.01176465 -0.01176465 0.9998616
vn 0.01176465 0.3019584 0.9532485
vn 0.01176465 0.3019584 0.9532485
vn 0.01176465 -0.01176465 0.9998616
vn 0.01176465 -0.01176465 0.9998616
vn 0.8745031 -0.01176465 0.4848772
vn 0.8509739 0.2470568 0.4634721
vn 0.8509739 0.2470568 0.4634721
vn 0.8745031 -0.01176465 0.4848772
vn 0.8352877 0.3019584 0.459473
vn 0.8352877 0.3019584 0.459473
vn 0.8745031 -0.01176465 0.4848772
vn 0.8745031 -0.01176465 0.4848772
vn 0.003921568 0.9999923 -0.000345267
vn 0.003921568 0.9999923 -0.000345267
vn 0.003921568 0.9999923 -0.000345267
vn 0.003921568 0.9999923 -0.000345267
vn 0.003921568 0.9999923 -0.000345267
vn 0.003921568 0.9999923 -0.000345267
vn 0.003921568 -0.9999924 0
vn 0.003921568 -0.9999924 0
vn 0.003921568 -0.9999924 0
vn 0.003921568 -0.9999924 0
vn 0.003921568 0.9999923 -0.000345267
vn 0.003921568 0.9999923 -0.000345267
vn 0.003921568 0.9999923 -0.000345267
vn 0.003921568 0.9999923 -0.000345267
vn 0.01176465 -0.01176465 0.9998616
vn 0.01176465 -0.01176465 0.9998616
vn 0.01176465 -0.01176465 0.9998616
vn 0.01176465 -0.01176465 0.9998616
vn 0.9999924 -0.003921568 0
vn 0.9999924 -0.003921568 0
vn 0.9999924 -0.003921568 0
vn 0.9999924 -0.003921568 0
vn 0.01176465 -0.01176465 -0.9998616
vn 0.01176465 -0.01176465 -0.9998616
vn 0.01176465 -0.01176465 -0.9998616
vn 0.01176465 -0.01176465 -0.9998616
vn -0.9999923 -0.003921568 -0.0003442513
vn -0.9999923 -0.003921568 -0.0003442513
vn -0.9999923 -0.003921568 -0.0003442513
vn -0.9999923 -0.003921568 -0.0003442513
vn 0.003921568 -0.9999924 0
vn 0.003921568 -0.9999924 0
vn 0.003921568 -0.9999924 0
vn 0.003921568 -0.9999924 0
vn 0.003921568 0.9999923 -0.000345267
vn 0.003921568 0.9999923 -0.000345267
vn 0.003921568 0.9999923 -0.000345267
vn 0.003921568 0.9999923 -0.000345267
vn 0.01176465 -0.01176465 0.9998616
vn 0.01176465 -0.01176465 0.9998616
vn 0.01176465 -0.01176465 0.9998616
vn 0.01176465 -0.01176465 0.9998616
vn 0.9999924 -0.003921568 0
vn 0.9999924 -0.003921568 0
vn 0.9999924 -0.003921568 0
vn 0.9999924 -0.003921568 0
vn 0.01176465 -0.01176465 -0.9998616
vn 0.01176465 -0.01176465 -0.9998616
vn 0.01176465 -0.01176465 -0.9998616
vn 0.01176465 -0.01176465 -0.9998616
vn -0.9999923 -0.003921568 -0.0003442513
vn -0.9999923 -0.003921568 -0.0003442513
vn -0.9999923 -0.003921568 -0.0003442513
vn -0.9999923 -0.003921568 -0.0003442513
vn -0.7411708 0.66274 -0.1069654
vn -0.7568569 0.6392107 -0.1362985
vn -0.7411708 0.66274 -0.1069654
vn -0.7568569 0.6392107 -0.1362985
vn -0.6941123 0.7176415 -0.05655848
vn -0.6941123 0.7176415 -0.05655848
vn -0.6078384 0.7882292 -0.0960584
vn -0.6078384 0.7882292 -0.0960584
vn -0.4745061 0.874503 -0.1004409
vn -0.4745061 0.874503 -0.1004409
vn -0.3176446 0.9450908 -0.07684615
vn -0.3176446 0.9450908 -0.07684615
vn -0.1921554 0.9764631 -0.09796004
vn -0.1921554 0.9764631 -0.09796004
vn -0.1137246 0.9921492 -0.05202544
vn -0.1137246 0.9921492 -0.05202544
vn -0.08235228 0.9921492 -0.09411708
vn -0.08235228 0.9921492 -0.09411708
vn 0.01176465 -0.01176465 -0.9998616
vn 0.01176465 -0.01176465 -0.9998616
vn 0.01176465 -0.01176465 -0.9998616
vn 0.01176465 -0.01176465 -0.9998616
vn 0.01176465 -0.01176465 -0.9998616
vn 0.01176465 -0.01176465 -0.9998616
vn 0.01176465 -0.01176465 -0.9998616
vn 0.01176465 -0.01176465 -0.9998616
vn 0.01176465 -0.01176465 -0.9998616
vn 0.01176465 -0.01176465 -0.9998616
vn 0.01176465 -0.01176465 -0.9998616
vn 0.01176465 -0.01176465 -0.9998616
vn 0.01176465 -0.01176465 -0.9998616
vn 0.01176465 -0.01176465 -0.9998616
vn 0.01176465 -0.01176465 -0.9998616
vn 0.01176465 -0.01176465 -0.9998616
vn 0.01176465 -0.01176465 -0.9998616
vn 0.01176465 -0.01176465 -0.9998616
vn 0.7450372 -0.6670228 0
vn 0.7633862 -0.6459422 0
vn 0.7450372 -0.6670228 0
vn 0.7633862 -0.6459422 0
vn 0.6953568 -0.7186648 0
vn 0.6953568 -0.7186648 0
vn 0.6117802 -0.7910279 0
vn 0.6117802 -0.7910279 0
vn 0.4796717 -0.8774481 0
vn 0.4796717 -0.8774481 0
vn 0.3232289 -0.9463208 0
vn 0.3232289 -0.9463208 0
vn 0.1991185 -0.9799753 0
vn 0.1991185 -0.9799753 0
vn 0.1206802 -0.9926914 0
vn 0.1206802 -0.9926914 0
vn 0.08983143 -0.995957 0
vn 0.08983143 -0.995957 0
vn 0.01176465 -0.01176465 0.9998616
vn 0.01176465 -0.01176465 0.9998616
vn 0.01176465 -0.01176465 0.9998616
vn 0.01176465 -0.01176465 0.9998616
vn 0.01176465 -0.01176465 0.9998616
vn 0.01176465 -0.01176465 0.9998616
vn 0.01176465 -0.01176465 0.9998616
vn 0.01176465 -0.01176465 0.9998616
vn 0.01176465 -0.01176465 0.9998616
vn 0.01176465 -0.01176465 0.9998616
vn 0.01176465 -0.01176465 0.9998616
vn 0.01176465 -0.01176465 0.9998616
vn 0.01176465 -0.01176465 0.9998616
vn 0.01176465 -0.01176465 0.9998616
vn 0.01176465 -0.01176465 0.9998616
vn 0.01176465 -0.01176465 0.9998616
vn 0.01176465 -0.01176465 0.9998616
vn 0.01176465 -0.01176465 0.9998616
vn 0.9999924 -0.003921568 0
vn 0.9999924 -0.003921568 0
vn 0.9999924 -0.003921568 0
vn 0.9999924 -0.003921568 0
vn 0.01176465 -0.01176465 0.9998616
vn 0.01176465 -0.01176465 0.9998616
vn 0.01176465 -0.01176465 0.9998616
vn 0.01176465 -0.01176465 0.9998616
vn 0.01176465 -0.01176465 -0.9998616
vn 0.01176465 -0.01176465 -0.9998616
vn 0.01176465 -0.01176465 -0.9998616
vn 0.01176465 -0.01176465 -0.9998616
vn 0.1607831 -0.2705862 -0.9491743
vn 0.1607831 -0.2705862 -0.9491743
vn 0.1607831 -0.2705862 -0.9491743
vn 0.1607831 -0.2705862 -0.9491743
vn -0.1764692 -0.7176416 0.6736833
vn -0.1764692 -0.7176416 0.6736833
vn -0.1764692 -0.7176416 0.6736833
vn -0.1764692 -0.7176416 0.6736833
vn 0.04313695 0.9921492 0.1173844
vn 0.04313695 0.9607769 0.2739469
vn 0.04313695 0.9921492 0.1173844
vn 0.04313695 0.9607769 0.2739469
vn 0.04313695 0.9607769 -0.2739469
vn 0.04313695 0.9921492 0.1173844
vn 0.04313695 0.9607769 -0.2739469
vn 0.1607831 -0.2705862 0.9491743
vn 0.1607831 -0.2705862 0.9491743
vn 0.1607831 -0.2705862 0.9491743
vn 0.1607831 -0.2705862 0.9491743
vn -0.1686261 -0.7176416 -0.6756891
vn -0.1686261 -0.7176416 -0.6756891
vn -0.1686261 -0.7176416 -0.6756891
vn -0.1686261 -0.7176416 -0.6756891
vn 0.01176465 -0.01176465 -0.9998616
vn 0.01176465 -0.01176465 -0.9998616
vn 0.01176465 -0.01176465 -0.9998616
vn 0.01176465 -0.01176465 -0.9998616
vn 0.01176465 -0.01176465 0.9998616
vn 0.01176465 -0.01176465 0.9998616
vn 0.01176465 -0.01176465 0.9998616
vn 0.01176465 -0.01176465 0.9998616
vn 0.003921568 -0.9999924 0
vn 0.003921568 -0.9999924 0
vn 0.003921568 -0.9999924 0
vn 0.003921568 -0.9999924 0
vn 0.9999924 -0.003921568 0
vn 0.9999924 -0.003921568 0
vn 0.9999924 -0.003921568 0
vn 0.9999924 -0.003921568 0
vn 0.003921568 0.9999923 -0.000345267
vn 0.003921568 0.9999923 -0.000345267
vn 0.003921568 0.9999923 -0.000345267
vn 0.003921568 0.9999923 -0.000345267
vn -0.9999923 -0.003921568 -0.0003442513
vn -0.9999923 -0.003921568 -0.0003442513
vn -0.9999923 -0.003921568 -0.0003442513
vn -0.9999923 -0.003921568 -0.0003442513
vn 0.9972357 0.07430375 0
vn 0.9972357 0.07430375 0
vn 0.9972357 0.07430375 0
vn 0.9972357 0.07430375 0
g DSJ_GTA_daoJu_zhiShiDeng_01_0
f 3/3/3 2/2/2 1/1/1
f 2/2/2 4/4/4 1/1/1
f 5/5/5 2/2/2 3/3/3
f 6/6/6 5/5/5 3/3/3
f 7/7/7 5/5/5 6/6/6
f 8/8/8 7/7/7 6/6/6
f 11/11/11 10/10/10 9/9/9
f 10/10/10 12/12/12 9/9/9
f 13/13/13 10/10/10 11/11/11
f 14/14/14 13/13/13 11/11/11
f 15/15/15 13/13/13 14/14/14
f 16/16/16 15/15/15 14/14/14
f 19/19/19 18/18/18 17/17/17
f 18/18/18 20/20/20 17/17/17
f 21/21/21 18/18/18 19/19/19
f 22/22/22 21/21/21 19/19/19
f 23/23/23 21/21/21 22/22/22
f 24/24/24 23/23/23 22/22/22
f 27/27/27 26/26/26 25/25/25
f 26/26/26 28/28/28 25/25/25
f 29/29/29 26/26/26 27/27/27
f 30/30/30 29/29/29 27/27/27
f 31/31/31 29/29/29 30/30/30
f 32/32/32 31/31/31 30/30/30
f 35/35/35 34/34/34 33/33/33
f 34/34/34 36/36/36 33/33/33
f 37/37/37 34/34/34 35/35/35
f 38/38/38 37/37/37 35/35/35
f 39/39/39 37/37/37 38/38/38
f 40/40/40 39/39/39 38/38/38
f 43/43/43 42/42/42 41/41/41
f 42/42/42 44/44/44 41/41/41
f 45/45/45 42/42/42 43/43/43
f 46/46/46 45/45/45 43/43/43
f 47/47/47 45/45/45 46/46/46
f 48/48/48 47/47/47 46/46/46
f 51/51/51 50/50/50 49/49/49
f 50/50/50 52/52/52 49/49/49
f 50/50/50 51/51/51 53/53/53
f 54/54/54 50/50/50 53/53/53
f 57/57/57 56/56/56 55/55/55
f 56/56/56 58/58/58 55/55/55
f 61/61/61 60/60/60 59/59/59
f 60/60/60 62/62/62 59/59/59
f 65/65/65 64/64/64 63/63/63
f 64/64/64 66/66/66 63/63/63
f 69/69/69 68/68/68 67/67/67
f 68/68/68 70/70/70 67/67/67
f 73/73/73 72/72/72 71/71/71
f 72/72/72 74/74/74 71/71/71
f 77/77/77 76/76/76 75/75/75
f 76/76/76 78/78/78 75/75/75
f 81/81/81 80/80/80 79/79/79
f 80/80/80 82/82/82 79/79/79
f 85/85/85 84/84/84 83/83/83
f 84/84/84 86/86/86 83/83/83
f 89/89/89 88/88/88 87/87/87
f 88/88/88 90/90/90 87/87/87
f 93/93/93 92/92/92 91/91/91
f 92/92/92 94/94/94 91/91/91
f 97/97/97 96/96/96 95/95/95
f 96/96/96 98/98/98 95/95/95
f 101/101/101 100/100/100 99/99/99
f 100/100/100 102/102/102 99/99/99
f 105/105/105 104/104/104 103/103/103
f 104/104/104 106/106/106 103/103/103
f 105/105/105 103/103/103 107/107/107
f 108/108/108 105/105/105 107/107/107
f 108/108/108 107/107/107 109/109/109
f 110/110/110 108/108/108 109/109/109
f 110/110/110 109/109/109 111/111/111
f 112/112/112 110/110/110 111/111/111
f 112/112/112 111/111/111 113/113/113
f 114/114/114 112/112/112 113/113/113
f 114/114/114 113/113/113 115/115/115
f 116/116/116 114/114/114 115/115/115
f 116/116/116 115/115/115 117/117/117
f 118/118/118 116/116/116 117/117/117
f 118/118/118 117/117/117 119/119/119
f 120/120/120 118/118/118 119/119/119
f 123/123/123 122/122/122 121/121/121
f 122/122/122 124/124/124 121/121/121
f 123/123/123 121/121/121 125/125/125
f 126/126/126 123/123/123 125/125/125
f 126/126/126 125/125/125 127/127/127
f 128/128/128 126/126/126 127/127/127
f 128/128/128 127/127/127 129/129/129
f 130/130/130 128/128/128 129/129/129
f 130/130/130 129/129/129 131/131/131
f 132/132/132 130/130/130 131/131/131
f 132/132/132 131/131/131 133/133/133
f 134/134/134 132/132/132 133/133/133
f 134/134/134 133/133/133 135/135/135
f 136/136/136 134/134/134 135/135/135
f 136/136/136 135/135/135 137/137/137
f 138/138/138 136/136/136 137/137/137
f 141/141/141 140/140/140 139/139/139
f 140/140/140 142/142/142 139/139/139
f 141/141/141 139/139/139 143/143/143
f 144/144/144 141/141/141 143/143/143
f 144/144/144 143/143/143 145/145/145
f 146/146/146 144/144/144 145/145/145
f 146/146/146 145/145/145 147/147/147
f 148/148/148 146/146/146 147/147/147
f 148/148/148 147/147/147 149/149/149
f 150/150/150 148/148/148 149/149/149
f 150/150/150 149/149/149 151/151/151
f 152/152/152 150/150/150 151/151/151
f 152/152/152 151/151/151 153/153/153
f 154/154/154 152/152/152 153/153/153
f 154/154/154 153/153/153 155/155/155
f 156/156/156 154/154/154 155/155/155
f 159/159/159 158/158/158 157/157/157
f 158/158/158 160/160/160 157/157/157
f 159/159/159 157/157/157 161/161/161
f 162/162/162 159/159/159 161/161/161
f 162/162/162 161/161/161 163/163/163
f 164/164/164 162/162/162 163/163/163
f 164/164/164 163/163/163 165/165/165
f 166/166/166 164/164/164 165/165/165
f 166/166/166 165/165/165 167/167/167
f 168/168/168 166/166/166 167/167/167
f 168/168/168 167/167/167 169/169/169
f 170/170/170 168/168/168 169/169/169
f 170/170/170 169/169/169 171/171/171
f 172/172/172 170/170/170 171/171/171
f 172/172/172 171/171/171 173/173/173
f 174/174/174 172/172/172 173/173/173
f 177/177/177 176/176/176 175/175/175
f 176/176/176 178/178/178 175/175/175
f 181/181/181 180/180/180 179/179/179
f 180/180/180 182/182/182 179/179/179
f 185/185/185 184/184/184 183/183/183
f 184/184/184 186/186/186 183/183/183
f 189/189/189 188/188/188 187/187/187
f 188/188/188 190/190/190 187/187/187
f 193/193/193 192/192/192 191/191/191
f 192/192/192 194/194/194 191/191/191
f 197/197/197 196/196/196 195/195/195
f 196/196/196 198/198/198 195/195/195
f 199/199/199 197/197/197 195/195/195
f 201/201/201 199/199/199 200/200/200
f 204/204/204 203/203/203 202/202/202
f 203/203/203 205/205/205 202/202/202
f 208/208/208 207/207/207 206/206/206
f 207/207/207 209/209/209 206/206/206
f 212/212/212 211/211/211 210/210/210
f 211/211/211 213/213/213 210/210/210
f 216/216/216 215/215/215 214/214/214
f 215/215/215 217/217/217 214/214/214
f 220/220/220 219/219/219 218/218/218
f 219/219/219 221/221/221 218/218/218
f 224/224/224 223/223/223 222/222/222
f 223/223/223 225/225/225 222/222/222
f 228/228/228 227/227/227 226/226/226
f 227/227/227 229/229/229 226/226/226
f 232/232/232 231/231/231 230/230/230
f 231/231/231 233/233/233 230/230/230
f 236/236/236 235/235/235 234/234/234
f 234/234/234 235/235/235 237/237/237
