g DSJ_GTA_diLou_jianYu_2
v -2.463888 -1.730452 2.463888
v -3.472363 -3.999521 -0.0114603
v -3.472363 -1.730452 -0.0114603
v -2.463888 -3.999521 2.463888
v 0.0114603 -1.730452 3.472363
v -2.463888 -3.999521 2.463888
v -2.463888 -1.730452 2.463888
v 0.0114603 -3.999521 3.472363
v 2.509728 -1.730452 2.463888
v 2.509728 -3.999521 2.463888
v 3.541123 -1.730452 -0.0114603
v 2.509728 -3.999521 2.463888
v 2.509728 -1.730452 2.463888
v 3.541123 -3.999521 -0.0114603
v 2.509728 -1.730452 -2.509728
v 3.541123 -3.999521 -0.0114603
v 3.541123 -1.730452 -0.0114603
v 2.509728 -3.999521 -2.509728
v 0.0114603 -1.730452 -3.541123
v 2.509728 -3.999521 -2.509728
v 2.509728 -1.730452 -2.509728
v 0.0114603 -3.999521 -3.541123
v -2.463888 -1.730452 -2.509728
v 0.0114603 -3.999521 -3.541123
v 0.0114603 -1.730452 -3.541123
v -2.463888 -3.999521 -2.509728
v -3.472363 -1.730452 -0.0114603
v -2.463888 -3.999521 -2.509728
v -2.463888 -1.730452 -2.509728
v -3.472363 -3.999521 -0.0114603
v -2.463888 3.609883 2.463888
v -3.472363 -1.180374 -0.0114603
v -3.472363 3.609883 -0.0114603
v -2.463888 -1.180374 2.463888
v 0.0114603 3.609883 3.472363
v -2.463888 -1.180374 2.463888
v -2.463888 3.609883 2.463888
v 0.0114603 -1.180374 3.472363
v 2.509728 3.609883 2.463888
v 0.0114603 -1.180374 3.472363
v 0.0114603 3.609883 3.472363
v 2.509728 -1.180374 2.463888
v 3.541123 3.609883 -0.0114603
v 2.509728 -1.180374 2.463888
v 2.509728 3.609883 2.463888
v 3.541123 -1.180374 -0.0114603
v 2.509728 3.609883 -2.509728
v 3.541123 -1.180374 -0.0114603
v 3.541123 3.609883 -0.0114603
v 2.509728 -1.180374 -2.509728
v 0.0114603 3.609883 -3.541123
v 2.509728 -1.180374 -2.509728
v 2.509728 3.609883 -2.509728
v 0.0114603 -1.180374 -3.541123
v -2.463888 3.609883 -2.509728
v 0.0114603 -1.180374 -3.541123
v 0.0114603 3.609883 -3.541123
v -2.463888 -1.180374 -2.509728
v -3.472363 3.609883 -0.0114603
v -2.463888 -1.180374 -2.509728
v -2.463888 3.609883 -2.509728
v -3.472363 -1.180374 -0.0114603
v -2.738927 6.245671 2.738927
v -3.884922 3.884922 -0.0114603
v -3.884922 6.245671 -0.0114603
v -2.738927 3.884922 2.738927
v 0.0114603 6.245671 3.884922
v -2.738927 3.884922 2.738927
v -2.738927 6.245671 2.738927
v 0.0114603 3.884922 3.884922
v 2.784767 6.245671 2.738927
v 0.0114603 3.884922 3.884922
v 0.0114603 6.245671 3.884922
v 2.784767 3.884922 2.738927
v 3.907842 6.245671 -0.0114603
v 2.784767 3.884922 2.738927
v 2.784767 6.245671 2.738927
v 3.907842 3.884922 -0.0114603
v 2.784767 6.245671 -2.784767
v 2.784767 3.884922 -2.784767
v 0.0114603 6.245671 -3.907842
v 2.784767 3.884922 -2.784767
v 2.784767 6.245671 -2.784767
v 0.0114603 3.884922 -3.907842
v -2.738927 6.245671 -2.784767
v 0.0114603 3.884922 -3.907842
v 0.0114603 6.245671 -3.907842
v -2.738927 3.884922 -2.784767
v -3.884922 6.245671 -0.0114603
v -2.738927 3.884922 -2.784767
v -2.738927 6.245671 -2.784767
v -3.884922 3.884922 -0.0114603
v -3.472363 3.609883 -0.0114603
v -2.738927 3.884922 2.738927
v -2.463888 3.609883 2.463888
v -3.884922 3.884922 -0.0114603
v -2.463888 3.609883 -2.509728
v -2.738927 3.884922 -2.784767
v -2.463888 3.609883 2.463888
v 0.0114603 3.884922 3.884922
v 0.0114603 3.609883 3.472363
v -2.738927 3.884922 2.738927
v 0.0114603 3.609883 3.472363
v 2.784767 3.884922 2.738927
v 2.509728 3.609883 2.463888
v 0.0114603 3.884922 3.884922
v 2.509728 3.609883 2.463888
v 3.907842 3.884922 -0.0114603
v 3.541123 3.609883 -0.0114603
v 2.784767 3.884922 2.738927
v 2.784767 3.884922 -2.784767
v 2.509728 3.609883 -2.509728
v 2.509728 3.609883 -2.509728
v 0.0114603 3.884922 -3.907842
v 0.0114603 3.609883 -3.541123
v 2.784767 3.884922 -2.784767
v 0.0114603 3.609883 -3.541123
v -2.738927 3.884922 -2.784767
v -2.463888 3.609883 -2.509728
v 0.0114603 3.884922 -3.907842
v -3.266085 6.131072 -0.0114603
v -2.326369 8.766858 2.326369
v -2.326369 6.131072 2.326369
v -3.266085 8.766858 -0.0114603
v -2.326369 6.131072 -2.349289
v -2.326369 8.766858 -2.349289
v -2.326369 6.131072 2.326369
v 0.0114603 8.766858 3.266085
v 0.0114603 6.131072 3.266085
v -2.326369 8.766858 2.326369
v 2.349289 8.766858 2.326369
v 2.349289 6.131072 2.326369
v 2.349289 6.131072 2.326369
v 3.334845 8.766858 -0.0114603
v 3.334845 6.131072 -0.0114603
v 2.349289 8.766858 2.326369
v 2.349289 8.766858 -2.349289
v 2.349289 6.131072 -2.349289
v 2.349289 6.131072 -2.349289
v 0.0114603 8.766858 -3.334845
v 0.0114603 6.131072 -3.334845
v 2.349289 8.766858 -2.349289
v 0.0114603 6.131072 -3.334845
v -2.326369 8.766858 -2.349289
v -2.326369 6.131072 -2.349289
v 0.0114603 8.766858 -3.334845
v -2.670167 -1.638772 2.670167
v -3.793242 -1.272054 -0.0114603
v -2.670167 -1.272054 2.670167
v -3.793242 -1.638772 -0.0114603
v 0.0114603 -1.638772 3.793242
v -2.670167 -1.272054 2.670167
v 0.0114603 -1.272054 3.793242
v -2.670167 -1.638772 2.670167
v 2.716007 -1.638772 2.670167
v 0.0114603 -1.272054 3.793242
v 2.716007 -1.272054 2.670167
v 0.0114603 -1.638772 3.793242
v 3.816162 -1.638772 -0.0114603
v 2.716007 -1.272054 2.670167
v 3.816162 -1.272054 -0.0114603
v 2.716007 -1.638772 2.670167
v 2.716007 -1.638772 -2.716007
v 2.716007 -1.272054 -2.716007
v 0.0114603 -1.638772 -3.816162
v 2.716007 -1.272054 -2.716007
v 0.0114603 -1.272054 -3.816162
v 2.716007 -1.638772 -2.716007
v -2.670167 -1.638772 -2.716007
v 0.0114603 -1.272054 -3.816162
v -2.670167 -1.272054 -2.716007
v 0.0114603 -1.638772 -3.816162
v -3.793242 -1.638772 -0.0114603
v -2.670167 -1.272054 -2.716007
v -3.793242 -1.272054 -0.0114603
v -2.670167 -1.638772 -2.716007
v -3.472363 -1.730452 -0.0114603
v -2.670167 -1.638772 2.670167
v -2.463888 -1.730452 2.463888
v -3.793242 -1.638772 -0.0114603
v -2.463888 -1.730452 -2.509728
v -2.670167 -1.638772 -2.716007
v -2.463888 -1.730452 2.463888
v 0.0114603 -1.638772 3.793242
v 0.0114603 -1.730452 3.472363
v -2.670167 -1.638772 2.670167
v 0.0114603 -1.730452 3.472363
v 2.716007 -1.638772 2.670167
v 2.509728 -1.730452 2.463888
v 0.0114603 -1.638772 3.793242
v 2.509728 -1.730452 2.463888
v 3.816162 -1.638772 -0.0114603
v 3.541123 -1.730452 -0.0114603
v 2.716007 -1.638772 2.670167
v 2.716007 -1.638772 -2.716007
v 2.509728 -1.730452 -2.509728
v 2.509728 -1.730452 -2.509728
v 0.0114603 -1.638772 -3.816162
v 0.0114603 -1.730452 -3.541123
v 2.716007 -1.638772 -2.716007
v 0.0114603 -1.730452 -3.541123
v -2.670167 -1.638772 -2.716007
v -2.463888 -1.730452 -2.509728
v 0.0114603 -1.638772 -3.816162
v -2.463888 -1.180374 2.463888
v -3.793242 -1.272054 -0.0114603
v -3.472363 -1.180374 -0.0114603
v -2.670167 -1.272054 2.670167
v -2.670167 -1.272054 -2.716007
v -2.463888 -1.180374 -2.509728
v -2.463888 -1.180374 -2.509728
v 0.0114603 -1.272054 -3.816162
v 0.0114603 -1.180374 -3.541123
v -2.670167 -1.272054 -2.716007
v 0.0114603 -1.180374 -3.541123
v 2.716007 -1.272054 -2.716007
v 2.509728 -1.180374 -2.509728
v 0.0114603 -1.272054 -3.816162
v 2.509728 -1.180374 -2.509728
v 3.816162 -1.272054 -0.0114603
v 3.541123 -1.180374 -0.0114603
v 2.716007 -1.272054 -2.716007
v 2.716007 -1.272054 2.670167
v 2.509728 -1.180374 2.463888
v 2.509728 -1.180374 2.463888
v 0.0114603 -1.272054 3.793242
v 0.0114603 -1.180374 3.472363
v 2.716007 -1.272054 2.670167
v 0.0114603 -1.180374 3.472363
v -2.670167 -1.272054 2.670167
v -2.463888 -1.180374 2.463888
v 0.0114603 -1.272054 3.793242
v -2.670167 -4.434999 2.670167
v -3.793242 -4.022441 -0.0114603
v -2.670167 -4.022441 2.670167
v -3.793242 -4.434999 -0.0114603
v -2.670167 -4.022441 -2.716007
v -2.670167 -4.434999 -2.716007
v 0.0114603 -4.434999 3.793242
v -2.670167 -4.022441 2.670167
v 0.0114603 -4.022441 3.793242
v -2.670167 -4.434999 2.670167
v 2.716007 -4.434999 2.670167
v 0.0114603 -4.022441 3.793242
v 2.716007 -4.022441 2.670167
v 0.0114603 -4.434999 3.793242
v 3.816162 -4.434999 -0.0114603
v 2.716007 -4.022441 2.670167
v 3.816162 -4.022441 -0.0114603
v 2.716007 -4.434999 2.670167
v 2.716007 -4.434999 -2.716007
v 3.816162 -4.022441 -0.0114603
v 2.716007 -4.022441 -2.716007
v 3.816162 -4.434999 -0.0114603
v 0.0114603 -4.434999 -3.816162
v 2.716007 -4.022441 -2.716007
v 0.0114603 -4.022441 -3.816162
v 2.716007 -4.434999 -2.716007
v -2.670167 -4.434999 -2.716007
v -2.670167 -4.022441 -2.716007
v -3.472363 -4.480839 -0.0114603
v -2.670167 -4.434999 2.670167
v -2.463888 -4.480839 2.463888
v -3.793242 -4.434999 -0.0114603
v 0.0114603 -4.434999 3.793242
v 0.0114603 -4.480839 3.472363
v 2.716007 -4.434999 2.670167
v 2.509728 -4.480839 2.463888
v 3.816162 -4.434999 -0.0114603
v 3.541123 -4.480839 -0.0114603
v 2.716007 -4.434999 -2.716007
v 2.509728 -4.480839 -2.509728
v 2.509728 -4.480839 -2.509728
v 0.0114603 -4.434999 -3.816162
v 0.0114603 -4.480839 -3.541123
v 2.716007 -4.434999 -2.716007
v -2.670167 -4.434999 -2.716007
v -2.463888 -4.480839 -2.509728
v -3.793242 -4.434999 -0.0114603
v -3.472363 -4.480839 -0.0114603
v -2.463888 -3.999521 2.463888
v -3.793242 -4.022441 -0.0114603
v -3.472363 -3.999521 -0.0114603
v -2.670167 -4.022441 2.670167
v -2.670167 -4.022441 -2.716007
v -2.463888 -3.999521 -2.509728
v -2.463888 -3.999521 -2.509728
v 0.0114603 -4.022441 -3.816162
v 0.0114603 -3.999521 -3.541123
v -2.670167 -4.022441 -2.716007
v 0.0114603 -3.999521 -3.541123
v 2.716007 -4.022441 -2.716007
v 2.509728 -3.999521 -2.509728
v 0.0114603 -4.022441 -3.816162
v 2.509728 -3.999521 -2.509728
v 3.816162 -4.022441 -0.0114603
v 3.541123 -3.999521 -0.0114603
v 2.716007 -4.022441 -2.716007
v 2.716007 -4.022441 2.670167
v 2.509728 -3.999521 2.463888
v 2.509728 -3.999521 2.463888
v 0.0114603 -4.022441 3.793242
v 0.0114603 -3.999521 3.472363
v 2.716007 -4.022441 2.670167
v 0.0114603 -3.999521 3.472363
v -2.670167 -4.022441 2.670167
v -2.463888 -3.999521 2.463888
v 0.0114603 -4.022441 3.793242
v 0.0114603 2.09717 -3.495284
v 0.8594961 3.884922 -2.991046
v 0.6302967 3.884922 -3.953681
v 0.6302967 6.245671 -3.953681
v 0.8594961 6.245671 -2.991046
v 0.0114603 2.09717 -3.495284
v 0.6302967 3.884922 -3.953681
v 0.0114603 3.884922 -4.114121
v -0.5615377 3.884922 -3.953681
v 0.0114603 6.245671 -4.114121
v 0.6302967 6.245671 -3.953681
v -0.5615377 6.245671 -3.953681
v 0.0114603 2.09717 -3.495284
v -0.5615377 3.884922 -3.953681
v -0.8365755 3.884922 -2.991046
v -0.8365755 6.245671 -2.991046
v -0.5615377 6.245671 -3.953681
v -2.440969 2.09717 -2.463888
v -1.478333 3.884922 -2.738927
v -2.349289 3.884922 -3.220245
v -2.349289 6.245671 -3.220245
v -1.478333 6.245671 -2.738927
v -2.440969 2.09717 -2.463888
v -2.349289 3.884922 -3.220245
v -2.876447 3.884922 -2.922286
v -2.876447 6.245671 -2.922286
v -2.349289 6.245671 -3.220245
v -2.440969 2.09717 -2.463888
v -2.876447 3.884922 -2.922286
v -3.151485 3.884922 -2.372209
v -3.151485 6.245671 -2.372209
v -2.876447 6.245671 -2.922286
v -2.440969 2.09717 -2.463888
v -3.151485 3.884922 -2.372209
v -2.693088 3.884922 -1.524173
v -2.693088 6.245671 -1.524173
v -3.151485 6.245671 -2.372209
v -3.426524 2.09717 -0.0114603
v -2.945206 3.884922 -0.8594961
v -3.907842 3.884922 -0.6302967
v -3.907842 6.245671 -0.6302967
v -2.945206 6.245671 -0.8594961
v -3.426524 2.09717 -0.0114603
v -3.907842 3.884922 -0.6302967
v -4.068281 3.884922 -0.0114603
v -3.907842 3.884922 0.5615377
v -4.068281 6.245671 -0.0114603
v -3.907842 6.245671 -0.6302967
v -3.907842 6.245671 0.5615377
v -3.426524 2.09717 -0.0114603
v -3.907842 3.884922 0.5615377
v -2.945206 3.884922 0.8365755
v -2.945206 6.245671 0.8365755
v -3.907842 6.245671 0.5615377
v -2.440969 2.09717 2.440969
v -2.693088 3.884922 1.478333
v -3.151485 3.884922 2.349289
v -3.151485 6.245671 2.349289
v -2.693088 6.245671 1.478333
v -2.440969 2.09717 2.440969
v -3.151485 3.884922 2.349289
v -2.876447 3.884922 2.876447
v -2.876447 6.245671 2.876447
v -3.151485 6.245671 2.349289
v -2.440969 2.09717 2.440969
v -2.876447 3.884922 2.876447
v -2.349289 3.884922 3.151485
v -2.349289 6.245671 3.151485
v -2.876447 6.245671 2.876447
v -2.440969 2.09717 2.440969
v -2.349289 3.884922 3.151485
v -1.478333 3.884922 2.693088
v -1.478333 6.245671 2.693088
v -2.349289 6.245671 3.151485
v 0.0114603 2.09717 3.426524
v -0.8365755 3.884922 2.945206
v -0.5615377 3.884922 3.907842
v -0.5615377 6.245671 3.907842
v -0.8365755 6.245671 2.945206
v 0.0114603 2.09717 3.426524
v -0.5615377 3.884922 3.907842
v 0.0114603 3.884922 4.068281
v 0.6302967 3.884922 3.907842
v 0.0114603 6.245671 4.068281
v -0.5615377 6.245671 3.907842
v 0.6302967 6.245671 3.907842
v 0.0114603 2.09717 3.426524
v 0.6302967 3.884922 3.907842
v 0.8594961 3.884922 2.945206
v 0.8594961 6.245671 2.945206
v 0.6302967 6.245671 3.907842
v 2.463888 2.09717 2.440969
v 1.524173 3.884922 2.693088
v 2.372209 3.884922 3.151485
v 2.372209 6.245671 3.151485
v 1.524173 6.245671 2.693088
v 2.463888 2.09717 2.440969
v 2.372209 3.884922 3.151485
v 2.922286 3.884922 2.876447
v 2.922286 6.245671 2.876447
v 2.372209 6.245671 3.151485
v 2.463888 2.09717 2.440969
v 2.922286 3.884922 2.876447
v 3.220245 3.884922 2.349289
v 3.220245 6.245671 2.349289
v 2.922286 6.245671 2.876447
v 2.463888 2.09717 2.440969
v 3.220245 3.884922 2.349289
v 2.738927 3.884922 1.478333
v 2.738927 6.245671 1.478333
v 3.220245 6.245671 2.349289
v 3.495284 2.09717 -0.0114603
v 2.991046 3.884922 0.8365755
v 3.953681 3.884922 0.5615377
v 3.953681 6.245671 0.5615377
v 2.991046 6.245671 0.8365755
v 3.495284 2.09717 -0.0114603
v 3.953681 3.884922 0.5615377
v 4.114121 3.884922 -0.0114603
v 3.953681 3.884922 -0.6302967
v 4.114121 6.245671 -0.0114603
v 3.953681 6.245671 0.5615377
v 3.953681 6.245671 -0.6302967
v 3.495284 2.09717 -0.0114603
v 3.953681 3.884922 -0.6302967
v 2.991046 3.884922 -0.8594961
v 2.991046 6.245671 -0.8594961
v 3.953681 6.245671 -0.6302967
v 2.463888 2.09717 -2.463888
v 2.738927 3.884922 -1.524173
v 3.220245 3.884922 -2.372209
v 3.220245 6.245671 -2.372209
v 2.738927 6.245671 -1.524173
v 2.463888 2.09717 -2.463888
v 3.220245 3.884922 -2.372209
v 2.922286 3.884922 -2.922286
v 2.922286 6.245671 -2.922286
v 3.220245 6.245671 -2.372209
v 2.463888 2.09717 -2.463888
v 2.922286 3.884922 -2.922286
v 2.372209 3.884922 -3.220245
v 2.372209 6.245671 -3.220245
v 2.922286 6.245671 -2.922286
v 2.463888 2.09717 -2.463888
v 2.372209 3.884922 -3.220245
v 1.524173 3.884922 -2.738927
v 1.524173 6.245671 -2.738927
v 2.372209 6.245671 -3.220245
v -3.472363 -4.480839 -0.0114603
v -3.082726 -8.44598 -0.9511757
v -2.463888 -4.480839 -2.509728
v -3.472363 -8.44598 -0.0114603
v -2.463888 -10.96717 -2.509728
v -3.082726 -10.96717 -0.9511757
v -3.013966 -10.96717 -0.6532173
v -3.013966 -8.60642 -0.6532173
v -2.463888 -10.96717 2.463888
v -3.082726 -10.96717 0.9282551
v -3.082726 -8.44598 0.9282551
v -3.013966 -8.60642 0.5615377
v -3.013966 -10.96717 0.5615377
v -2.463888 -4.480839 2.463888
v -3.472363 -8.44598 -0.0114603
v -3.472363 -4.480839 -0.0114603
v 0.0114603 -4.480839 3.472363
v -2.463888 -10.96717 2.463888
v -2.463888 -4.480839 2.463888
v 0.0114603 -10.96717 3.472363
v 2.509728 -4.480839 2.463888
v 2.509728 -10.96717 2.463888
v 3.541123 -4.480839 -0.0114603
v 2.509728 -10.96717 2.463888
v 2.509728 -4.480839 2.463888
v 3.541123 -10.96717 -0.0114603
v 2.509728 -4.480839 -2.509728
v 3.541123 -10.96717 -0.0114603
v 3.541123 -4.480839 -0.0114603
v 2.509728 -10.96717 -2.509728
v 0.0114603 -4.480839 -3.541123
v 2.509728 -10.96717 -2.509728
v 2.509728 -4.480839 -2.509728
v 0.0114603 -10.96717 -3.541123
v -2.463888 -4.480839 -2.509728
v -2.463888 -10.96717 -2.509728
v -3.082726 8.40014 -0.6073771
v -2.647247 6.54363 -1.707532
v -2.647247 8.40014 -1.707532
v -3.082726 6.54363 -0.6073771
v -3.082726 8.40014 -0.6073771
v -3.013966 6.54363 -0.5844574
v -3.082726 6.54363 -0.6073771
v -3.013966 8.40014 -0.5844574
v -2.647247 6.54363 -1.707532
v -2.578487 8.40014 -1.684612
v -2.647247 8.40014 -1.707532
v -2.578487 6.54363 -1.684612
v -2.601408 8.40014 1.753371
v -3.059806 6.54363 0.6302967
v -3.059806 8.40014 0.6302967
v -2.601408 6.54363 1.753371
v -2.601408 8.40014 1.753371
v -2.532648 6.54363 1.730452
v -2.601408 6.54363 1.753371
v -2.532648 8.40014 1.730452
v -3.059806 6.54363 0.6302967
v -2.991046 8.40014 0.6073771
v -3.059806 8.40014 0.6302967
v -2.991046 6.54363 0.6073771
v -0.5386171 8.40014 3.082726
v -1.661692 6.54363 2.647247
v -1.661692 8.40014 2.647247
v -0.5386171 6.54363 3.082726
v -0.5386171 8.40014 3.082726
v -0.5156975 6.54363 3.013966
v -0.5386171 6.54363 3.082726
v -0.5156975 8.40014 3.013966
v -1.661692 6.54363 2.647247
v -1.638772 8.40014 2.578487
v -1.661692 8.40014 2.647247
v -1.638772 6.54363 2.578487
v 1.799212 8.40014 2.601408
v 0.6990566 6.54363 3.059806
v 0.6990566 8.40014 3.059806
v 1.799212 6.54363 2.601408
v 1.799212 8.40014 2.601408
v 1.776292 6.54363 2.532648
v 1.799212 6.54363 2.601408
v 1.776292 8.40014 2.532648
v 0.6990566 6.54363 3.059806
v 0.676137 8.40014 2.991046
v 0.6990566 8.40014 3.059806
v 0.676137 6.54363 2.991046
v 3.128566 8.40014 0.5386171
v 2.693088 6.54363 1.661692
v 2.693088 8.40014 1.661692
v 3.128566 6.54363 0.5386171
v 3.128566 8.40014 0.5386171
v 3.059806 6.54363 0.5156975
v 3.128566 6.54363 0.5386171
v 3.059806 8.40014 0.5156975
v 2.693088 6.54363 1.661692
v 2.624328 8.40014 1.638772
v 2.693088 8.40014 1.661692
v 2.624328 6.54363 1.638772
v 2.647247 8.40014 -1.799212
v 3.105645 6.54363 -0.6990566
v 3.105645 8.40014 -0.6990566
v 2.647247 6.54363 -1.799212
v 2.647247 8.40014 -1.799212
v 2.578488 6.54363 -1.776292
v 2.647247 6.54363 -1.799212
v 2.578488 8.40014 -1.776292
v 3.105645 6.54363 -0.6990566
v 3.036886 8.40014 -0.676137
v 3.105645 8.40014 -0.6990566
v 3.036886 6.54363 -0.676137
v 0.6073771 8.40014 -3.128566
v 1.707532 6.54363 -2.693088
v 1.707532 8.40014 -2.693088
v 0.6073771 6.54363 -3.128566
v 0.6073771 8.40014 -3.128566
v 0.5844574 6.54363 -3.059806
v 0.6073771 6.54363 -3.128566
v 0.5844574 8.40014 -3.059806
v 1.707532 6.54363 -2.693088
v 1.684612 8.40014 -2.624328
v 1.707532 8.40014 -2.693088
v 1.684612 6.54363 -2.624328
v -1.753371 8.40014 -2.647247
v -0.6302967 6.54363 -3.105645
v -0.6302967 8.40014 -3.105645
v -1.753371 6.54363 -2.647247
v -1.753371 8.40014 -2.647247
v -1.730452 6.54363 -2.578488
v -1.753371 6.54363 -2.647247
v -1.730452 8.40014 -2.578488
v -0.6302967 6.54363 -3.105645
v -0.6073771 8.40014 -3.036886
v -0.6302967 8.40014 -3.105645
v -0.6073771 6.54363 -3.036886
v -1.822131 1.340814 -2.807687
v -0.7219763 -0.5386171 -3.289004
v -0.7219763 1.340814 -3.289004
v -1.822131 -0.5386171 -2.807687
v -1.822131 1.340814 -2.807687
v -1.799212 -0.5386171 -2.761847
v -1.822131 -0.5386171 -2.807687
v -1.799212 1.317894 -2.761847
v -0.7219763 -0.5386171 -3.289004
v -0.676137 1.317894 -3.220245
v -0.7219763 1.340814 -3.289004
v -0.676137 -0.5386171 -3.220245
v -2.761847 1.340814 1.822131
v -3.220244 -0.5386171 0.7219763
v -3.220244 1.340814 0.7219763
v -2.761847 -0.5386171 1.822131
v -2.761847 1.340814 1.822131
v -2.716007 -0.5386171 1.799212
v -2.761847 -0.5386171 1.822131
v -2.716007 1.317894 1.799212
v -3.220244 -0.5386171 0.7219763
v -3.151485 1.317894 0.676137
v -3.220244 1.340814 0.7219763
v -3.151485 -0.5386171 0.676137
v 1.867971 1.340814 2.761847
v 0.7448969 -0.5386171 3.220244
v 0.7448969 1.340814 3.220244
v 1.867971 -0.5386171 2.761847
v 1.867971 1.340814 2.761847
v 1.845052 -0.5386171 2.716007
v 1.867971 -0.5386171 2.761847
v 1.845052 1.317894 2.716007
v 0.7448969 -0.5386171 3.220244
v 0.7448969 1.317894 3.151485
v 0.7448969 1.340814 3.220244
v 0.7448969 -0.5386171 3.151485
v 2.807687 1.340814 -1.867971
v 3.289004 -0.5386171 -0.7448969
v 3.289004 1.340814 -0.7448969
v 2.807687 -0.5386171 -1.867971
v 2.807687 1.340814 -1.867971
v 2.761847 -0.5386171 -1.845052
v 2.807687 -0.5386171 -1.867971
v 2.761847 1.317894 -1.845052
v 3.289004 -0.5386171 -0.7448969
v 3.220245 1.317894 -0.7448969
v 3.289004 1.340814 -0.7448969
v 3.220245 -0.5386171 -0.7448969
v -3.426524 9.202336 -0.0114603
v 0.0114603 11.72353 -0.0114603
v -2.440969 9.202336 2.440969
v -2.440969 9.202336 2.440969
v 0.0114603 11.72353 -0.0114603
v 0.0114603 9.202336 3.426524
v 0.0114603 9.202336 3.426524
v 0.0114603 11.72353 -0.0114603
v 2.463888 9.202336 2.440969
v 2.463888 9.202336 2.440969
v 0.0114603 11.72353 -0.0114603
v 3.495284 9.202336 -0.0114603
v 3.495284 9.202336 -0.0114603
v 0.0114603 11.72353 -0.0114603
v 2.463888 9.202336 -2.463888
v 2.463888 9.202336 -2.463888
v 0.0114603 11.72353 -0.0114603
v 0.0114603 9.202336 -3.495284
v 0.0114603 9.202336 -3.495284
v 0.0114603 11.72353 -0.0114603
v -2.440969 9.202336 -2.463888
v -2.440969 9.202336 -2.463888
v 0.0114603 11.72353 -0.0114603
v -3.426524 9.202336 -0.0114603
v -3.266085 8.766858 -0.0114603
v -2.716007 8.858539 2.716007
v -2.326369 8.766858 2.326369
v -3.839082 8.858539 -0.0114603
v -2.326369 8.766858 2.326369
v 0.0114603 8.858539 3.839082
v 0.0114603 8.766858 3.266085
v -2.326369 8.766858 2.326369
v -2.716007 8.858539 2.716007
v 0.0114603 8.858539 3.839082
v 0.0114603 8.766858 3.266085
v 2.761847 8.858539 2.716007
v 2.349289 8.766858 2.326369
v 0.0114603 8.858539 3.839082
v 2.349289 8.766858 2.326369
v 3.862002 8.858539 -0.0114603
v 3.334845 8.766858 -0.0114603
v 2.761847 8.858539 2.716007
v 3.334845 8.766858 -0.0114603
v 2.761847 8.858539 -2.761847
v 2.349289 8.766858 -2.349289
v 3.334845 8.766858 -0.0114603
v 3.862002 8.858539 -0.0114603
v 2.761847 8.858539 -2.761847
v 2.349289 8.766858 -2.349289
v 0.0114603 8.858539 -3.862002
v 0.0114603 8.766858 -3.334845
v 2.761847 8.858539 -2.761847
v 0.0114603 8.766858 -3.334845
v -2.716007 8.858539 -2.761847
v -2.326369 8.766858 -2.349289
v 0.0114603 8.858539 -3.862002
v -2.326369 8.766858 -2.349289
v -3.839082 8.858539 -0.0114603
v -3.266085 8.766858 -0.0114603
v -2.716007 8.858539 -2.761847
v -3.839082 8.858539 -0.0114603
v -2.968126 9.271096 2.968126
v -2.716007 8.858539 2.716007
v -4.22872 9.271096 -0.0114603
v -2.716007 8.858539 2.716007
v 0.0114603 9.271096 4.22872
v 0.0114603 8.858539 3.839082
v -2.968126 9.271096 2.968126
v 0.0114603 8.858539 3.839082
v 3.013966 9.271096 2.968126
v 2.761847 8.858539 2.716007
v 0.0114603 9.271096 4.22872
v 2.761847 8.858539 2.716007
v 4.27456 9.271096 -0.0114603
v 3.862002 8.858539 -0.0114603
v 3.013966 9.271096 2.968126
v 3.862002 8.858539 -0.0114603
v 3.013966 9.271096 -3.013966
v 2.761847 8.858539 -2.761847
v 4.27456 9.271096 -0.0114603
v 2.761847 8.858539 -2.761847
v 0.0114603 9.271096 -4.27456
v 0.0114603 8.858539 -3.862002
v 3.013966 9.271096 -3.013966
v 0.0114603 8.858539 -3.862002
v -2.968126 9.271096 -3.013966
v -2.716007 8.858539 -2.761847
v 0.0114603 9.271096 -4.27456
v -2.716007 8.858539 -2.761847
v -4.22872 9.271096 -0.0114603
v -3.839082 8.858539 -0.0114603
v -2.968126 9.271096 -3.013966
v -2.555568 -11.72353 2.578487
v 0.03437996 -11.05885 3.609883
v 0.03437996 -11.72353 3.609883
v -2.555568 -11.05885 2.578487
v 0.0114603 -10.96717 3.472363
v -2.463888 -10.96717 2.463888
v 0.03437996 -11.72353 3.609883
v 2.624328 -11.05885 2.578487
v 2.624328 -11.72353 2.578487
v 0.03437996 -11.05885 3.609883
v 2.624328 -11.72353 2.578487
v 3.678643 -11.05885 -0.0114603
v 3.678643 -11.72353 -0.0114603
v 2.624328 -11.05885 2.578487
v 3.541123 -10.96717 -0.0114603
v 2.509728 -10.96717 2.463888
v 3.678643 -11.72353 -0.0114603
v 2.624328 -11.05885 -2.624328
v 2.624328 -11.72353 -2.624328
v 0.03437996 -11.05885 -3.678643
v 0.03437996 -11.72353 -3.678643
v 2.624328 -11.05885 -2.624328
v 3.678643 -11.72353 -0.0114603
v 3.678643 -11.05885 -0.0114603
v 0.03437996 -11.72353 -3.678643
v -2.555568 -11.05885 -2.624328
v -2.555568 -11.72353 -2.624328
v 0.03437996 -11.05885 -3.678643
v -2.555568 -11.72353 -2.624328
v -3.197325 -11.05885 -0.9740953
v -3.197325 -11.72353 -0.9740953
v -2.555568 -11.05885 -2.624328
v -3.197325 -11.72353 0.9511757
v -2.555568 -11.05885 2.578487
v -2.555568 -11.72353 2.578487
v -3.197325 -11.05885 0.9511757
v -2.463888 -10.96717 2.463888
v -3.082726 -10.96717 0.9282551
v 2.509728 -10.96717 2.463888
v 0.03437996 -11.05885 3.609883
v 0.0114603 -10.96717 3.472363
v 2.624328 -11.05885 2.578487
v 2.509728 -10.96717 -2.509728
v 3.678643 -11.05885 -0.0114603
v 3.541123 -10.96717 -0.0114603
v 2.624328 -11.05885 -2.624328
v 0.0114603 -10.96717 -3.541123
v 2.624328 -11.05885 -2.624328
v 2.509728 -10.96717 -2.509728
v 0.03437996 -11.05885 -3.678643
v -2.463888 -10.96717 -2.509728
v -2.555568 -11.05885 -2.624328
v -3.082726 -10.96717 -0.9511757
v -3.197325 -11.05885 -0.9740953
vt 0.6090039 0.4673401
vt 0.5439151 0.4175663
vt 0.5439151 0.4673401
vt 0.6090039 0.4175663
vt 0.5439151 0.4673401
vt 0.4864838 0.4175663
vt 0.4864838 0.4673401
vt 0.5439151 0.4175663
vt 0.6090039 0.4673401
vt 0.6090039 0.4175663
vt 0.5439151 0.4673401
vt 0.4864838 0.4175663
vt 0.4864838 0.4673401
vt 0.5439151 0.4175663
vt 0.6090039 0.4673401
vt 0.5439151 0.4175663
vt 0.5439151 0.4673401
vt 0.6090039 0.4175663
vt 0.5439151 0.4673401
vt 0.4864838 0.4175663
vt 0.4864838 0.4673401
vt 0.5439151 0.4175663
vt 0.6090039 0.4673401
vt 0.5439151 0.4175663
vt 0.5439151 0.4673401
vt 0.6090039 0.4175663
vt 0.5439151 0.4673401
vt 0.4864838 0.4175663
vt 0.4864838 0.4673401
vt 0.5439151 0.4175663
vt 0.5630589 0.4941413
vt 0.4596826 0.3907651
vt 0.4596826 0.4941413
vt 0.5630589 0.3907651
vt 0.4596826 0.4941413
vt 0.5630589 0.3907651
vt 0.5630589 0.4941413
vt 0.4596826 0.3907651
vt 0.5630589 0.4941413
vt 0.4596826 0.3907651
vt 0.4596826 0.4941413
vt 0.5630589 0.3907651
vt 0.4596826 0.4941413
vt 0.5630589 0.3907651
vt 0.5630589 0.4941413
vt 0.4596826 0.3907651
vt 0.5630589 0.4941413
vt 0.4596826 0.3907651
vt 0.4596826 0.4941413
vt 0.5630589 0.3907651
vt 0.4596826 0.4941413
vt 0.5630589 0.3907651
vt 0.5630589 0.4941413
vt 0.4596826 0.3907651
vt 0.5630589 0.4941413
vt 0.4596826 0.3907651
vt 0.4596826 0.4941413
vt 0.5630589 0.3907651
vt 0.4596826 0.4941413
vt 0.5630589 0.3907651
vt 0.5630589 0.4941413
vt 0.4596826 0.3907651
vt 0.6319764 0.4405389
vt 0.5630589 0.3907651
vt 0.5630589 0.4405389
vt 0.6319764 0.3907651
vt 0.5630589 0.4405389
vt 0.4941413 0.3907651
vt 0.4941413 0.4405389
vt 0.5630589 0.3907651
vt 0.6319764 0.4405389
vt 0.5630589 0.3907651
vt 0.5630589 0.4405389
vt 0.6319764 0.3907651
vt 0.5630589 0.4405389
vt 0.4941413 0.3907651
vt 0.4941413 0.4405389
vt 0.5630589 0.3907651
vt 0.6319764 0.4405389
vt 0.6319764 0.3907651
vt 0.5630589 0.4405389
vt 0.4941413 0.3907651
vt 0.4941413 0.4405389
vt 0.5630589 0.3907651
vt 0.6319764 0.4405389
vt 0.5630589 0.3907651
vt 0.5630589 0.4405389
vt 0.6319764 0.3907651
vt 0.5630589 0.4405389
vt 0.4941413 0.3907651
vt 0.4941413 0.4405389
vt 0.5630589 0.3907651
vt 0.5554014 0.4481964
vt 0.6243189 0.4481964
vt 0.6166614 0.4481964
vt 0.5554014 0.4481964
vt 0.4979701 0.4481964
vt 0.4864838 0.4481964
vt 0.5783738 0.4481964
vt 0.6128326 0.4443676
vt 0.6013464 0.4443676
vt 0.5822026 0.4481964
vt 0.5783738 0.4481964
vt 0.5592301 0.4443676
vt 0.5554014 0.4443676
vt 0.5898601 0.4481964
vt 0.6166614 0.4443676
vt 0.5592301 0.4443676
vt 0.5592301 0.4443676
vt 0.6281476 0.4443676
vt 0.4941413 0.4443676
vt 0.4979701 0.4443676
vt 0.5286001 0.4443676
vt 0.4941413 0.4481964
vt 0.4979701 0.4481964
vt 0.5209426 0.4443676
vt 0.5400864 0.4443676
vt 0.5592301 0.4443676
vt 0.5630589 0.4443676
vt 0.5286001 0.4443676
vt 0.5630589 0.4405389
vt 0.6166614 0.4941413
vt 0.6166614 0.4405389
vt 0.5630589 0.4941413
vt 0.5056276 0.4405389
vt 0.5056276 0.4941413
vt 0.5056276 0.4405389
vt 0.5630589 0.4941413
vt 0.5630589 0.4405389
vt 0.5056276 0.4941413
vt 0.6166614 0.4941413
vt 0.6166614 0.4405389
vt 0.5056276 0.4405389
vt 0.5630589 0.4941413
vt 0.5630589 0.4405389
vt 0.5056276 0.4941413
vt 0.6166614 0.4941413
vt 0.6166614 0.4405389
vt 0.5056276 0.4405389
vt 0.5630589 0.4941413
vt 0.5630589 0.4405389
vt 0.5056276 0.4941413
vt 0.5630589 0.4405389
vt 0.6166614 0.4941413
vt 0.6166614 0.4405389
vt 0.5630589 0.4941413
vt 0.6511201 0.4175663
vt 0.5592301 0.4328813
vt 0.6511201 0.4328813
vt 0.5592301 0.4175663
vt 0.5592301 0.4175663
vt 0.4635113 0.4328813
vt 0.5592301 0.4328813
vt 0.4635113 0.4175663
vt 0.6511201 0.4175663
vt 0.5592301 0.4328813
vt 0.6511201 0.4328813
vt 0.5592301 0.4175663
vt 0.5592301 0.4175663
vt 0.4635113 0.4328813
vt 0.5592301 0.4328813
vt 0.4635113 0.4175663
vt 0.6511201 0.4175663
vt 0.6511201 0.4328813
vt 0.5592301 0.4175663
vt 0.4635113 0.4328813
vt 0.5592301 0.4328813
vt 0.4635113 0.4175663
vt 0.6511201 0.4175663
vt 0.5592301 0.4328813
vt 0.6511201 0.4328813
vt 0.5592301 0.4175663
vt 0.5592301 0.4175663
vt 0.4635113 0.4328813
vt 0.5592301 0.4328813
vt 0.4635113 0.4175663
vt 0.5554014 0.4481964
vt 0.6243189 0.4481964
vt 0.6166614 0.4481964
vt 0.5554014 0.4481964
vt 0.4979701 0.4481964
vt 0.4864838 0.4481964
vt 0.5783738 0.4481964
vt 0.6128326 0.4443676
vt 0.6013464 0.4443676
vt 0.5822026 0.4481964
vt 0.5783738 0.4481964
vt 0.5592301 0.4443676
vt 0.5554014 0.4443676
vt 0.5822026 0.4481964
vt 0.6166614 0.4443676
vt 0.5592301 0.4443676
vt 0.5592301 0.4443676
vt 0.6243189 0.4443676
vt 0.4941413 0.4443676
vt 0.4979701 0.4443676
vt 0.5286001 0.4443676
vt 0.4979701 0.4481964
vt 0.4979701 0.4481964
vt 0.5247713 0.4443676
vt 0.5400864 0.4443676
vt 0.5630589 0.4443676
vt 0.5630589 0.4443676
vt 0.5324289 0.4443676
vt 0.6166614 0.4443676
vt 0.5592301 0.4443676
vt 0.5592301 0.4443676
vt 0.6243189 0.4443676
vt 0.4941413 0.4443676
vt 0.4979701 0.4443676
vt 0.5286001 0.4443676
vt 0.4979701 0.4481964
vt 0.4979701 0.4481964
vt 0.5247713 0.4443676
vt 0.5400864 0.4443676
vt 0.5630589 0.4443676
vt 0.5630589 0.4443676
vt 0.5324289 0.4443676
vt 0.4979701 0.4481964
vt 0.5554014 0.4481964
vt 0.5554014 0.4481964
vt 0.4864838 0.4481964
vt 0.6243189 0.4481964
vt 0.6166614 0.4481964
vt 0.5783738 0.4481964
vt 0.6128326 0.4443676
vt 0.6013464 0.4443676
vt 0.5822026 0.4481964
vt 0.5783738 0.4481964
vt 0.5592301 0.4443676
vt 0.5554014 0.4443676
vt 0.5822026 0.4481964
vt 0.6319764 0.4443676
vt 0.5477439 0.4520251
vt 0.6319764 0.4520251
vt 0.5477439 0.4443676
vt 0.4673401 0.4520251
vt 0.4673401 0.4443676
vt 0.5477439 0.4443676
vt 0.4673401 0.4520251
vt 0.5477439 0.4520251
vt 0.4673401 0.4443676
vt 0.6319764 0.4443676
vt 0.5477439 0.4520251
vt 0.6319764 0.4520251
vt 0.5477439 0.4443676
vt 0.5477439 0.4443676
vt 0.4673401 0.4520251
vt 0.5477439 0.4520251
vt 0.4673401 0.4443676
vt 0.6319764 0.4443676
vt 0.5477439 0.4520251
vt 0.6319764 0.4520251
vt 0.5477439 0.4443676
vt 0.5477439 0.4443676
vt 0.4673401 0.4520251
vt 0.5477439 0.4520251
vt 0.4673401 0.4443676
vt 0.6319764 0.4443676
vt 0.6319764 0.4520251
vt 0.5554014 0.4481964
vt 0.6243189 0.4481964
vt 0.6166614 0.4481964
vt 0.5554014 0.4481964
vt 0.6511201 0.4443676
vt 0.6434627 0.4443676
vt 0.6243189 0.4443676
vt 0.6166614 0.4443676
vt 0.5554014 0.4405389
vt 0.5554014 0.4405389
vt 0.4864838 0.4443676
vt 0.4979701 0.4443676
vt 0.4979701 0.4443676
vt 0.4635113 0.4443676
vt 0.4711688 0.4443676
vt 0.4864838 0.4443676
vt 0.4864838 0.4481964
vt 0.4979701 0.4481964
vt 0.5554014 0.4481964
vt 0.5554014 0.4481964
vt 0.6166614 0.4443676
vt 0.5592301 0.4443676
vt 0.5592301 0.4443676
vt 0.6243189 0.4443676
vt 0.4941413 0.4443676
vt 0.4979701 0.4443676
vt 0.5286001 0.4443676
vt 0.4979701 0.4481964
vt 0.4979701 0.4481964
vt 0.5247713 0.4443676
vt 0.5400864 0.4443676
vt 0.5630589 0.4443676
vt 0.5630589 0.4443676
vt 0.5324289 0.4443676
vt 0.4979701 0.4481964
vt 0.5554014 0.4481964
vt 0.5554014 0.4481964
vt 0.4864838 0.4481964
vt 0.6243189 0.4481964
vt 0.6166614 0.4481964
vt 0.5783738 0.4481964
vt 0.6128326 0.4443676
vt 0.6013464 0.4443676
vt 0.5822026 0.4481964
vt 0.5783738 0.4481964
vt 0.5592301 0.4443676
vt 0.5554014 0.4443676
vt 0.5822026 0.4481964
vt 0.6511201 0.3907651
vt 0.6358051 0.3907651
vt 0.6626064 0.3907651
vt 0.6626064 0.4405389
vt 0.6358051 0.4405389
vt 0.5630589 0.3907651
vt 0.5439151 0.3907651
vt 0.5630589 0.3907651
vt 0.5783738 0.3907651
vt 0.5630589 0.4405389
vt 0.5439151 0.4405389
vt 0.5783738 0.4405389
vt 0.4749976 0.3907651
vt 0.4635113 0.3907651
vt 0.4864838 0.3907651
vt 0.4864838 0.4405389
vt 0.4635113 0.4405389
vt 0.6243189 0.3907651
vt 0.5975176 0.3907651
vt 0.6166614 0.3907651
vt 0.6166614 0.4405389
vt 0.5975176 0.4405389
vt 0.6243189 0.3907651
vt 0.6166614 0.3907651
vt 0.6319764 0.3907651
vt 0.6319764 0.4405389
vt 0.6166614 0.4405389
vt 0.4979701 0.3907651
vt 0.4864838 0.3907651
vt 0.5056276 0.3907651
vt 0.5056276 0.4405389
vt 0.4864838 0.4405389
vt 0.4979701 0.3907651
vt 0.5056276 0.3907651
vt 0.5247713 0.3907651
vt 0.5247713 0.4405389
vt 0.5056276 0.4405389
vt 0.6511201 0.3907651
vt 0.6358051 0.3907651
vt 0.6626064 0.3907651
vt 0.6626064 0.4405389
vt 0.6358051 0.4405389
vt 0.5630589 0.3907651
vt 0.5439151 0.3907651
vt 0.5630589 0.3907651
vt 0.5783738 0.3907651
vt 0.5630589 0.4405389
vt 0.5439151 0.4405389
vt 0.5783738 0.4405389
vt 0.4749976 0.3907651
vt 0.4635113 0.3907651
vt 0.4864838 0.3907651
vt 0.4864838 0.4405389
vt 0.4635113 0.4405389
vt 0.6243189 0.3907651
vt 0.5975176 0.3907651
vt 0.6166614 0.3907651
vt 0.6166614 0.4405389
vt 0.5975176 0.4405389
vt 0.6243189 0.3907651
vt 0.6166614 0.3907651
vt 0.6319764 0.3907651
vt 0.6319764 0.4405389
vt 0.6166614 0.4405389
vt 0.4979701 0.3907651
vt 0.4864838 0.3907651
vt 0.5056276 0.3907651
vt 0.5056276 0.4405389
vt 0.4864838 0.4405389
vt 0.4979701 0.3907651
vt 0.5056276 0.3907651
vt 0.5247713 0.3907651
vt 0.5247713 0.4405389
vt 0.5056276 0.4405389
vt 0.6511201 0.3907651
vt 0.6358051 0.3907651
vt 0.6626064 0.3907651
vt 0.6626064 0.4405389
vt 0.6358051 0.4405389
vt 0.5630589 0.3907651
vt 0.5439151 0.3907651
vt 0.5630589 0.3907651
vt 0.5783738 0.3907651
vt 0.5630589 0.4405389
vt 0.5439151 0.4405389
vt 0.5783738 0.4405389
vt 0.4749976 0.3907651
vt 0.4635113 0.3907651
vt 0.4864838 0.3907651
vt 0.4864838 0.4405389
vt 0.4635113 0.4405389
vt 0.6243189 0.3907651
vt 0.5975176 0.3907651
vt 0.6166614 0.3907651
vt 0.6166614 0.4405389
vt 0.5975176 0.4405389
vt 0.6243189 0.3907651
vt 0.6166614 0.3907651
vt 0.6319764 0.3907651
vt 0.6319764 0.4405389
vt 0.6166614 0.4405389
vt 0.4979701 0.3907651
vt 0.4864838 0.3907651
vt 0.5056276 0.3907651
vt 0.5056276 0.4405389
vt 0.4864838 0.4405389
vt 0.4979701 0.3907651
vt 0.5056276 0.3907651
vt 0.5247713 0.3907651
vt 0.5247713 0.4405389
vt 0.5056276 0.4405389
vt 0.6511201 0.3907651
vt 0.6358051 0.3907651
vt 0.6626064 0.3907651
vt 0.6626064 0.4405389
vt 0.6358051 0.4405389
vt 0.5630589 0.3907651
vt 0.5439151 0.3907651
vt 0.5630589 0.3907651
vt 0.5783738 0.3907651
vt 0.5630589 0.4405389
vt 0.5439151 0.4405389
vt 0.5783738 0.4405389
vt 0.4749976 0.3907651
vt 0.4635113 0.3907651
vt 0.4864838 0.3907651
vt 0.4864838 0.4405389
vt 0.4635113 0.4405389
vt 0.6243189 0.3907651
vt 0.5975176 0.3907651
vt 0.6166614 0.3907651
vt 0.6166614 0.4405389
vt 0.5975176 0.4405389
vt 0.6243189 0.3907651
vt 0.6166614 0.3907651
vt 0.6319764 0.3907651
vt 0.6319764 0.4405389
vt 0.6166614 0.4405389
vt 0.4979701 0.3907651
vt 0.4864838 0.3907651
vt 0.5056276 0.3907651
vt 0.5056276 0.4405389
vt 0.4864838 0.4405389
vt 0.4979701 0.3907651
vt 0.5056276 0.3907651
vt 0.5247713 0.3907651
vt 0.5247713 0.4405389
vt 0.5056276 0.4405389
vt 0.5668876 0.4941413
vt 0.5400864 0.4252238
vt 0.4941413 0.4941413
vt 0.5668876 0.4252238
vt 0.4941413 0.3831076
vt 0.5400864 0.3831076
vt 0.5477439 0.3831076
vt 0.5477439 0.4252238
vt 0.6472914 0.3831076
vt 0.5975176 0.3831076
vt 0.5975176 0.4252238
vt 0.5898601 0.4252238
vt 0.5898601 0.3831076
vt 0.6472914 0.4941413
vt 0.5668876 0.4252238
vt 0.5668876 0.4941413
vt 0.5668876 0.4941413
vt 0.4941413 0.3831076
vt 0.4941413 0.4941413
vt 0.5668876 0.3831076
vt 0.6472914 0.4941413
vt 0.6472914 0.3831076
vt 0.5668876 0.4941413
vt 0.4941413 0.3831076
vt 0.4941413 0.4941413
vt 0.5668876 0.3831076
vt 0.6472914 0.4941413
vt 0.5668876 0.3831076
vt 0.5668876 0.4941413
vt 0.6472914 0.3831076
vt 0.5668876 0.4941413
vt 0.4941413 0.3831076
vt 0.4941413 0.4941413
vt 0.5668876 0.3831076
vt 0.6472914 0.4941413
vt 0.6472914 0.3831076
vt 0.4481964 0.4864838
vt 0.4022513 0.3831076
vt 0.4022513 0.4864838
vt 0.4481964 0.3831076
vt 0.4481964 0.4864838
vt 0.4520251 0.3831076
vt 0.4481964 0.3831076
vt 0.4520251 0.4864838
vt 0.4022513 0.3831076
vt 0.4022513 0.4864838
vt 0.4022513 0.4864838
vt 0.4022513 0.3831076
vt 0.4481964 0.4864838
vt 0.4022513 0.3831076
vt 0.4022513 0.4864838
vt 0.4481964 0.3831076
vt 0.4481964 0.4864838
vt 0.4520251 0.3831076
vt 0.4481964 0.3831076
vt 0.4520251 0.4864838
vt 0.4022513 0.3831076
vt 0.4022513 0.4864838
vt 0.4022513 0.4864838
vt 0.4022513 0.3831076
vt 0.4520251 0.4864838
vt 0.4022513 0.3831076
vt 0.4022513 0.4864838
vt 0.4520251 0.3831076
vt 0.4520251 0.4864838
vt 0.4520251 0.3831076
vt 0.4520251 0.3831076
vt 0.4520251 0.4864838
vt 0.4022513 0.3831076
vt 0.4022513 0.4864838
vt 0.4022513 0.4864838
vt 0.4022513 0.3831076
vt 0.4481964 0.4864838
vt 0.4022513 0.3831076
vt 0.4022513 0.4864838
vt 0.4481964 0.3831076
vt 0.4481964 0.4864838
vt 0.4520251 0.3831076
vt 0.4481964 0.3831076
vt 0.4520251 0.4864838
vt 0.4022513 0.3831076
vt 0.4022513 0.4864838
vt 0.4022513 0.4864838
vt 0.4022513 0.3831076
vt 0.4481964 0.4864838
vt 0.4022513 0.3831076
vt 0.4022513 0.4864838
vt 0.4481964 0.3831076
vt 0.4481964 0.4864838
vt 0.4520251 0.3831076
vt 0.4481964 0.3831076
vt 0.4520251 0.4864838
vt 0.4022513 0.3831076
vt 0.4022513 0.4864838
vt 0.4022513 0.4864838
vt 0.4022513 0.3831076
vt 0.4481964 0.4864838
vt 0.4022513 0.3831076
vt 0.4022513 0.4864838
vt 0.4481964 0.3831076
vt 0.4481964 0.4864838
vt 0.4520251 0.3831076
vt 0.4481964 0.3831076
vt 0.4520251 0.4864838
vt 0.4022513 0.3831076
vt 0.4022513 0.4864838
vt 0.4022513 0.4864838
vt 0.4022513 0.3831076
vt 0.4481964 0.4864838
vt 0.4022513 0.3831076
vt 0.4022513 0.4864838
vt 0.4481964 0.3831076
vt 0.4481964 0.4864838
vt 0.4520251 0.3831076
vt 0.4481964 0.3831076
vt 0.4520251 0.4864838
vt 0.4022513 0.3831076
vt 0.4022513 0.4864838
vt 0.4022513 0.4864838
vt 0.4022513 0.3831076
vt 0.4481964 0.4864838
vt 0.4022513 0.3831076
vt 0.4022513 0.4864838
vt 0.4481964 0.3831076
vt 0.4481964 0.4864838
vt 0.4520251 0.3831076
vt 0.4481964 0.3831076
vt 0.4520251 0.4864838
vt 0.4022513 0.3831076
vt 0.4022513 0.4864838
vt 0.4022513 0.4864838
vt 0.4022513 0.3831076
vt 0.4481964 0.4864838
vt 0.4022513 0.3831076
vt 0.4022513 0.4864838
vt 0.4481964 0.3831076
vt 0.4481964 0.4864838
vt 0.4520251 0.3831076
vt 0.4481964 0.3831076
vt 0.4520251 0.4864838
vt 0.4022513 0.3831076
vt 0.4022513 0.4864838
vt 0.4022513 0.4864838
vt 0.4022513 0.3831076
vt 0.4481964 0.4864838
vt 0.4022513 0.3831076
vt 0.4022513 0.4864838
vt 0.4481964 0.3831076
vt 0.4481964 0.4864838
vt 0.4520251 0.3831076
vt 0.4481964 0.3831076
vt 0.4520251 0.4864838
vt 0.4022513 0.3831076
vt 0.4022513 0.4864838
vt 0.4022513 0.4864838
vt 0.4022513 0.3831076
vt 0.4481964 0.4864838
vt 0.4022513 0.3831076
vt 0.4022513 0.4864838
vt 0.4481964 0.3831076
vt 0.4481964 0.4864838
vt 0.4520251 0.3831076
vt 0.4481964 0.3831076
vt 0.4520251 0.4864838
vt 0.4022513 0.3831076
vt 0.4022513 0.4864838
vt 0.4022513 0.4864838
vt 0.4022513 0.3831076
vt 0.4520251 0.4864838
vt 0.4022513 0.3831076
vt 0.4022513 0.4864838
vt 0.4520251 0.3831076
vt 0.4520251 0.4864838
vt 0.4520251 0.3831076
vt 0.4520251 0.3831076
vt 0.4520251 0.4864838
vt 0.4022513 0.3831076
vt 0.4022513 0.4864838
vt 0.4022513 0.4864838
vt 0.4022513 0.3831076
vt 0.6243189 0.6090039
vt 0.7008939 0.6013464
vt 0.6472914 0.5477439
vt 0.6472914 0.5477439
vt 0.7008939 0.6013464
vt 0.7008939 0.5247713
vt 0.7008939 0.5247713
vt 0.7008939 0.6013464
vt 0.7544964 0.5439151
vt 0.7544964 0.5439151
vt 0.7008939 0.6013464
vt 0.7812977 0.5975176
vt 0.7812977 0.5975176
vt 0.7008939 0.6013464
vt 0.7544964 0.6587777
vt 0.7544964 0.6587777
vt 0.7008939 0.6013464
vt 0.7047226 0.6855789
vt 0.7047226 0.6855789
vt 0.7008939 0.6013464
vt 0.6511201 0.6626064
vt 0.6511201 0.6626064
vt 0.7008939 0.6013464
vt 0.6243189 0.6090039
vt 0.7544964 0.6281476
vt 0.7659827 0.5783738
vt 0.7544964 0.5822026
vt 0.7659827 0.6319764
vt 0.7544964 0.5822026
vt 0.7238664 0.5400864
vt 0.7200376 0.5439151
vt 0.7544964 0.5822026
vt 0.7659827 0.5783738
vt 0.7238664 0.5400864
vt 0.7200376 0.5439151
vt 0.6702639 0.5400864
vt 0.6779214 0.5439151
vt 0.7238664 0.5400864
vt 0.6779214 0.5439151
vt 0.6319764 0.5783738
vt 0.6472914 0.5822026
vt 0.6702639 0.5400864
vt 0.6472914 0.5822026
vt 0.6319764 0.6319764
vt 0.6472914 0.6281476
vt 0.6472914 0.5822026
vt 0.6319764 0.5783738
vt 0.6319764 0.6319764
vt 0.6472914 0.6281476
vt 0.6702639 0.6702639
vt 0.6779214 0.6626064
vt 0.6319764 0.6319764
vt 0.6779214 0.6626064
vt 0.7238664 0.6702639
vt 0.7200376 0.6626064
vt 0.6702639 0.6702639
vt 0.7200376 0.6626064
vt 0.7659827 0.6319764
vt 0.7544964 0.6281476
vt 0.7238664 0.6702639
vt 0.7659827 0.6319764
vt 0.7736402 0.5745451
vt 0.7659827 0.5783738
vt 0.7736402 0.6319764
vt 0.7659827 0.5783738
vt 0.7315239 0.5286001
vt 0.7238664 0.5400864
vt 0.7736402 0.5745451
vt 0.7238664 0.5400864
vt 0.6702639 0.5286001
vt 0.6702639 0.5400864
vt 0.7315239 0.5286001
vt 0.6702639 0.5400864
vt 0.6281476 0.5745451
vt 0.6319764 0.5783738
vt 0.6702639 0.5286001
vt 0.6319764 0.5783738
vt 0.6281476 0.6319764
vt 0.6319764 0.6319764
vt 0.6281476 0.5745451
vt 0.6319764 0.6319764
vt 0.6702639 0.6817501
vt 0.6702639 0.6702639
vt 0.6281476 0.6319764
vt 0.6702639 0.6702639
vt 0.7315239 0.6779214
vt 0.7238664 0.6702639
vt 0.6702639 0.6817501
vt 0.7238664 0.6702639
vt 0.7736402 0.6319764
vt 0.7659827 0.6319764
vt 0.7315239 0.6779214
vt 0.7659827 0.7238664
vt 0.7851264 0.6894076
vt 0.7698114 0.6894076
vt 0.7812977 0.7238664
vt 0.7851264 0.6894076
vt 0.7851264 0.7238664
vt 0.7698114 0.6894076
vt 0.7851264 0.6587777
vt 0.7698114 0.6587777
vt 0.7851264 0.6894076
vt 0.7698114 0.6587777
vt 0.7851264 0.6166614
vt 0.7698114 0.6166614
vt 0.7851264 0.6587777
vt 0.7851264 0.6166614
vt 0.7851264 0.6587777
vt 0.7698114 0.6166614
vt 0.7851264 0.5822026
vt 0.7698114 0.5822026
vt 0.7851264 0.5477439
vt 0.7698114 0.5477439
vt 0.7851264 0.5822026
vt 0.7698114 0.6166614
vt 0.7851264 0.6166614
vt 0.7698114 0.5477439
vt 0.7851264 0.5094564
vt 0.7698114 0.5094564
vt 0.7851264 0.5477439
vt 0.7698114 0.5094564
vt 0.7851264 0.4979701
vt 0.7698114 0.4979701
vt 0.7851264 0.5094564
vt 0.7659827 0.7468389
vt 0.7812977 0.7238664
vt 0.7659827 0.7238664
vt 0.7812977 0.7468389
vt 0.7851264 0.7238664
vt 0.7851264 0.7468389
vt 0.7851264 0.6587777
vt 0.7851264 0.6894076
vt 0.7851264 0.6894076
vt 0.7851264 0.6587777
vt 0.7851264 0.5822026
vt 0.7851264 0.6166614
vt 0.7851264 0.6166614
vt 0.7851264 0.5822026
vt 0.7851264 0.5477439
vt 0.7851264 0.5822026
vt 0.7851264 0.5822026
vt 0.7851264 0.5477439
vt 0.7851264 0.5094564
vt 0.7851264 0.5094564
vt 0.7851264 0.4979701
vt 0.7851264 0.4979701
vn -0.9046479 -0.04761302 0.4234915
vn -0.9046479 -0.04761302 0.4234915
vn -0.9046479 -0.04761302 0.4234915
vn -0.9046479 -0.04761302 0.4234915
vn 0.04761302 -0.04761302 0.9977304
vn -0.3650334 -0.04761302 0.9297761
vn -0.3650334 -0.04761302 0.9297761
vn 0.04761302 -0.04761302 0.9977304
vn 0.7459377 -0.04761302 0.6643116
vn 0.7459377 -0.04761302 0.6643116
vn 0.968132 -0.04761302 0.245873
vn 0.7459377 -0.04761302 0.6643116
vn 0.7459377 -0.04761302 0.6643116
vn 0.968132 -0.04761302 0.245873
vn 0.7459377 -0.04761302 -0.6643116
vn 0.968132 -0.04761302 -0.245873
vn 0.968132 -0.04761302 -0.245873
vn 0.7459377 -0.04761302 -0.6643116
vn 0.4285174 -0.04761302 -0.9022781
vn 0.7459377 -0.04761302 -0.6643116
vn 0.7459377 -0.04761302 -0.6643116
vn 0.4285174 -0.04761302 -0.9022781
vn -0.6824538 -0.04761302 -0.7293764
vn -0.3650334 -0.04761302 -0.9297761
vn -0.3650334 -0.04761302 -0.9297761
vn -0.6824538 -0.04761302 -0.7293764
vn -0.9046479 -0.04761302 -0.4234915
vn -0.6824538 -0.04761302 -0.7293764
vn -0.6824538 -0.04761302 -0.7293764
vn -0.9046479 -0.04761302 -0.4234915
vn -0.9046479 -0.04761302 0.4234915
vn -0.9046479 -0.04761302 0.4234915
vn -0.9046479 -0.04761302 0.4234915
vn -0.9046479 -0.04761302 0.4234915
vn -0.3650334 -0.04761302 0.9297761
vn -0.3650334 -0.04761302 0.9297761
vn -0.3650334 -0.04761302 0.9297761
vn -0.3650334 -0.04761302 0.9297761
vn 0.7459377 -0.04761302 0.6643116
vn 0.4285174 -0.04761302 0.9022781
vn 0.4285174 -0.04761302 0.9022781
vn 0.7459377 -0.04761302 0.6643116
vn 0.968132 -0.04761302 0.245873
vn 0.7459377 -0.04761302 0.6643116
vn 0.7459377 -0.04761302 0.6643116
vn 0.968132 -0.04761302 0.245873
vn 0.7459377 -0.04761302 -0.6643116
vn 0.968132 -0.04761302 -0.245873
vn 0.968132 -0.04761302 -0.245873
vn 0.7459377 -0.04761302 -0.6643116
vn 0.4285174 -0.04761302 -0.9022781
vn 0.7459377 -0.04761302 -0.6643116
vn 0.7459377 -0.04761302 -0.6643116
vn 0.4285174 -0.04761302 -0.9022781
vn -0.6824538 -0.04761302 -0.7293764
vn -0.3650334 -0.04761302 -0.9297761
vn -0.3650334 -0.04761302 -0.9297761
vn -0.6824538 -0.04761302 -0.7293764
vn -0.9046479 -0.04761302 -0.4234915
vn -0.6824538 -0.04761302 -0.7293764
vn -0.6824538 -0.04761302 -0.7293764
vn -0.9046479 -0.04761302 -0.4234915
vn -0.6824538 -0.04761302 0.7293764
vn -0.9046479 -0.04761302 0.4234915
vn -0.9046479 -0.04761302 0.4234915
vn -0.6824538 -0.04761302 0.7293764
vn -0.3650334 -0.04761302 0.9297761
vn -0.6824538 -0.04761302 0.7293764
vn -0.6824538 -0.04761302 0.7293764
vn -0.3650334 -0.04761302 0.9297761
vn 0.7459377 -0.04761302 0.6643116
vn 0.4285174 -0.04761302 0.9022781
vn 0.4285174 -0.04761302 0.9022781
vn 0.7459377 -0.04761302 0.6643116
vn 0.999874 -0.01587099 -0.000346655
vn 0.7459377 -0.04761302 0.6643116
vn 0.7459377 -0.04761302 0.6643116
vn 0.999874 -0.01587099 -0.000346655
vn 0.968132 -0.04761302 -0.245873
vn 0.968132 -0.04761302 -0.245873
vn 0.4285174 -0.04761302 -0.9022781
vn 0.4285174 -0.04761302 -0.9022781
vn 0.4285174 -0.04761302 -0.9022781
vn 0.4285174 -0.04761302 -0.9022781
vn -0.6824538 -0.04761302 -0.7293764
vn -0.3650334 -0.04761302 -0.9297761
vn -0.3650334 -0.04761302 -0.9297761
vn -0.6824538 -0.04761302 -0.7293764
vn -0.9046479 -0.04761302 -0.4234915
vn -0.6824538 -0.04761302 -0.7293764
vn -0.6824538 -0.04761302 -0.7293764
vn -0.9046479 -0.04761302 -0.4234915
vn -0.4910131 -0.8711522 0
vn -0.3650334 -0.9046479 0.2199154
vn -0.3650334 -0.9046479 0.2199154
vn -0.4910131 -0.8711522 0
vn -0.3650334 -0.9046479 -0.2199154
vn -0.3650334 -0.9046479 -0.2199154
vn -0.3650334 -0.9046479 0.2199154
vn 0.04761302 -0.9046479 0.4234917
vn 0.04761302 -0.9046479 0.4234917
vn -0.3650334 -0.9046479 0.2199154
vn 0.04761302 -0.9046479 0.4234917
vn 0.4280863 -0.9037378 0
vn 0.4280863 -0.9037378 0
vn 0.04761302 -0.9046479 0.4234917
vn 0.4280863 -0.9037378 0
vn 0.5368755 -0.8436615 0
vn 0.5368755 -0.8436615 0
vn 0.4280863 -0.9037378 0
vn 0.4280863 -0.9037378 0
vn 0.4280863 -0.9037378 0
vn 0.4280863 -0.9037378 0
vn 0.04761302 -0.9046479 -0.4234917
vn 0.04761302 -0.9046479 -0.4234917
vn 0.4280863 -0.9037378 0
vn 0.04761302 -0.9046479 -0.4234917
vn -0.3650334 -0.9046479 -0.2199154
vn -0.3650334 -0.9046479 -0.2199154
vn 0.04761302 -0.9046479 -0.4234917
vn -0.999874 -0.01587099 -0.000346655
vn -0.9046479 -0.04761302 0.4234915
vn -0.9046479 -0.04761302 0.4234915
vn -0.999874 -0.01587099 -0.000346655
vn -0.6824538 -0.04761302 -0.7293764
vn -0.6824538 -0.04761302 -0.7293764
vn -0.3650334 -0.04761302 0.9297761
vn 0.04761302 -0.04761302 0.9977304
vn 0.04761302 -0.04761302 0.9977304
vn -0.3650334 -0.04761302 0.9297761
vn 0.4285174 -0.04761302 0.9022781
vn 0.4285174 -0.04761302 0.9022781
vn 0.968132 -0.04761302 0.245873
vn 0.999874 -0.01587099 -0.000346655
vn 0.999874 -0.01587099 -0.000346655
vn 0.968132 -0.04761302 0.245873
vn 0.7459377 -0.04761302 -0.6643116
vn 0.7459377 -0.04761302 -0.6643116
vn 0.7459377 -0.04761302 -0.6643116
vn 0.04761302 -0.04761302 -0.9977304
vn 0.04761302 -0.04761302 -0.9977304
vn 0.7459377 -0.04761302 -0.6643116
vn 0.04761302 -0.04761302 -0.9977304
vn -0.6824538 -0.04761302 -0.7293764
vn -0.6824538 -0.04761302 -0.7293764
vn 0.04761302 -0.04761302 -0.9977304
vn -0.6824538 -0.04761302 0.7293764
vn -0.9046479 -0.04761302 0.4234915
vn -0.6824538 -0.04761302 0.7293764
vn -0.9046479 -0.04761302 0.4234915
vn -0.3650334 -0.04761302 0.9297761
vn -0.6824538 -0.04761302 0.7293764
vn -0.3650334 -0.04761302 0.9297761
vn -0.6824538 -0.04761302 0.7293764
vn 0.7459377 -0.04761302 0.6643116
vn 0.4285174 -0.04761302 0.9022781
vn 0.7459377 -0.04761302 0.6643116
vn 0.4285174 -0.04761302 0.9022781
vn 0.999874 -0.01587099 -0.000346655
vn 0.7459377 -0.04761302 0.6643116
vn 0.999874 -0.01587099 -0.000346655
vn 0.7459377 -0.04761302 0.6643116
vn 0.968132 -0.04761302 -0.245873
vn 0.968132 -0.04761302 -0.245873
vn 0.4285174 -0.04761302 -0.9022781
vn 0.4285174 -0.04761302 -0.9022781
vn 0.4285174 -0.04761302 -0.9022781
vn 0.4285174 -0.04761302 -0.9022781
vn -0.6824538 -0.04761302 -0.7293764
vn -0.3650334 -0.04761302 -0.9297761
vn -0.6824538 -0.04761302 -0.7293764
vn -0.3650334 -0.04761302 -0.9297761
vn -0.9046479 -0.04761302 -0.4234915
vn -0.6824538 -0.04761302 -0.7293764
vn -0.9046479 -0.04761302 -0.4234915
vn -0.6824538 -0.04761302 -0.7293764
vn -0.2380652 -0.968132 -0.07775256
vn -0.172001 -0.9850967 0
vn -0.172001 -0.9850967 0
vn -0.2380652 -0.968132 -0.07775256
vn -0.172001 -0.9850967 0
vn -0.172001 -0.9850967 0
vn -0.172001 -0.9850967 0
vn 0.04756513 -0.9988682 0
vn 0.04756513 -0.9988682 0
vn -0.172001 -0.9850967 0
vn 0.04756513 -0.9988682 0
vn 0.2316205 -0.9728062 0
vn 0.2316205 -0.9728062 0
vn 0.04756513 -0.9988682 0
vn 0.2316205 -0.9728062 0
vn 0.2973836 -0.954758 0
vn 0.2973836 -0.954758 0
vn 0.2316205 -0.9728062 0
vn 0.2316205 -0.9728062 0
vn 0.2316205 -0.9728062 0
vn 0.2316205 -0.9728062 0
vn 0.04756513 -0.9988682 0
vn 0.04756513 -0.9988682 0
vn 0.2316205 -0.9728062 0
vn 0.04756513 -0.9988682 0
vn -0.172001 -0.9850967 0
vn -0.172001 -0.9850967 0
vn 0.04756513 -0.9988682 0
vn -0.1745812 0.9363899 0.304459
vn -0.2698073 0.9363899 0.2244502
vn -0.2698073 0.9363899 -0.2244502
vn -0.1745812 0.9363899 0.304459
vn -0.1745812 0.9363899 -0.304459
vn -0.1745812 0.9363899 -0.304459
vn -0.1745812 0.9363899 -0.304459
vn 0.04761302 0.9363899 -0.3477167
vn 0.04761302 0.9363899 -0.3477167
vn -0.1745812 0.9363899 -0.304459
vn 0.04761302 0.9363899 -0.3477167
vn 0.2380652 0.9363899 -0.2578737
vn 0.2380652 0.9363899 -0.2578737
vn 0.04761302 0.9363899 -0.3477167
vn 0.2380652 0.9363899 -0.2578737
vn 0.3332914 0.9363899 0.1099579
vn 0.3332914 0.9363899 0.1099579
vn 0.2380652 0.9363899 -0.2578737
vn 0.2380652 0.9363899 0.2578737
vn 0.2380652 0.9363899 0.2578737
vn 0.2380652 0.9363899 0.2578737
vn 0.04761302 0.9363899 0.3477167
vn 0.04761302 0.9363899 0.3477167
vn 0.2380652 0.9363899 0.2578737
vn 0.04761302 0.9363899 0.3477167
vn -0.1745812 0.9363899 0.304459
vn -0.1745812 0.9363899 0.304459
vn 0.04761302 0.9363899 0.3477167
vn -0.6824538 -0.04761302 0.7293764
vn -0.999874 -0.01587099 -0.000346655
vn -0.6824538 -0.04761302 0.7293764
vn -0.999874 -0.01587099 -0.000346655
vn -0.9046479 -0.04761302 -0.4234915
vn -0.9046479 -0.04761302 -0.4234915
vn 0.04761302 -0.04761302 0.9977304
vn -0.6824538 -0.04761302 0.7293764
vn 0.04761302 -0.04761302 0.9977304
vn -0.6824538 -0.04761302 0.7293764
vn 0.7459377 -0.04761302 0.6643116
vn 0.04761302 -0.04761302 0.9977304
vn 0.7459377 -0.04761302 0.6643116
vn 0.04761302 -0.04761302 0.9977304
vn 0.968132 -0.04761302 0.245873
vn 0.7459377 -0.04761302 0.6643116
vn 0.968132 -0.04761302 0.245873
vn 0.7459377 -0.04761302 0.6643116
vn 0.7459377 -0.04761302 -0.6643116
vn 0.968132 -0.04761302 -0.245873
vn 0.7459377 -0.04761302 -0.6643116
vn 0.968132 -0.04761302 -0.245873
vn 0.04761302 -0.04761302 -0.9977304
vn 0.7459377 -0.04761302 -0.6643116
vn 0.04761302 -0.04761302 -0.9977304
vn 0.7459377 -0.04761302 -0.6643116
vn -0.3650334 -0.04761302 -0.9297761
vn -0.3650334 -0.04761302 -0.9297761
vn -0.1414214 -0.9899495 0
vn -0.07911634 -0.9968654 0
vn -0.07911634 -0.9968654 0
vn -0.1414214 -0.9899495 0
vn 0.01587099 -0.999874 -0.000345267
vn 0.01587099 -0.999874 -0.000345267
vn 0.1414213 -0.9899495 0
vn 0.1414213 -0.9899495 0
vn 0.2020915 -0.9793667 0
vn 0.2020915 -0.9793667 0
vn 0.1414213 -0.9899495 0
vn 0.1414213 -0.9899495 0
vn 0.1414213 -0.9899495 0
vn 0.01587099 -0.999874 -0.000345267
vn 0.01587099 -0.999874 -0.000345267
vn 0.1414213 -0.9899495 0
vn -0.07911634 -0.9968654 0
vn -0.07911634 -0.9968654 0
vn -0.1414214 -0.9899495 0
vn -0.1414214 -0.9899495 0
vn -0.1110971 0.968132 0.2244501
vn -0.1745812 0.968132 0.1795601
vn -0.1745812 0.968132 0.1795601
vn -0.1110971 0.968132 0.2244501
vn -0.1110971 0.968132 -0.2244501
vn -0.1110971 0.968132 -0.2244501
vn -0.1110971 0.968132 -0.2244501
vn 0.04761302 0.968132 -0.2458728
vn 0.04761302 0.968132 -0.2458728
vn -0.1110971 0.968132 -0.2244501
vn 0.04761302 0.968132 -0.2458728
vn 0.1745812 0.968132 -0.1795601
vn 0.1745812 0.968132 -0.1795601
vn 0.04761302 0.968132 -0.2458728
vn 0.1745812 0.968132 -0.1795601
vn 0.2380652 0.968132 0.07775179
vn 0.2380652 0.968132 0.07775179
vn 0.1745812 0.968132 -0.1795601
vn 0.1745812 0.968132 0.1795601
vn 0.1745812 0.968132 0.1795601
vn 0.1745812 0.968132 0.1795601
vn 0.04761302 0.968132 0.2458728
vn 0.04761302 0.968132 0.2458728
vn 0.1745812 0.968132 0.1795601
vn 0.04761302 0.968132 0.2458728
vn -0.1110971 0.968132 0.2244501
vn -0.1110971 0.968132 0.2244501
vn 0.04761302 0.968132 0.2458728
vn 0.9093079 -0.4161239 0
vn 0.9793667 -0.2020915 0
vn 0.9728062 -0.2316205 0
vn 0.9988682 -0.04756513 0
vn 0.9988682 -0.04756513 0
vn 0.04761302 -0.3650333 -0.9297761
vn 0.3015493 -0.2063232 -0.9308591
vn 0.04761302 -0.2063232 -0.9773248
vn -0.2380652 -0.2063232 -0.9490815
vn 0.04761302 -0.04761302 -0.9977304
vn 0.3015493 -0.04761302 -0.952261
vn -0.2380652 -0.04761302 -0.9700814
vn -0.8729059 -0.4285174 -0.2332557
vn -0.9363899 -0.2380652 -0.2578737
vn -0.9363899 -0.2063232 -0.2839095
vn -0.9363899 -0.04761302 -0.3477167
vn -0.9363899 -0.04761302 -0.3477167
vn 0.5237435 -0.4285174 -0.7362511
vn 0.5554855 -0.2063232 -0.8055225
vn 0.5554855 -0.2380652 -0.7967187
vn 0.5554855 -0.04761302 -0.8301619
vn 0.5554855 -0.04761302 -0.8301619
vn -0.6507117 -0.3650333 -0.6658266
vn -0.4920015 -0.2063232 -0.8457927
vn -0.6824538 -0.2063232 -0.7012044
vn -0.6824538 -0.04761302 -0.7293764
vn -0.4920015 -0.04761302 -0.8692914
vn -0.6507117 -0.3650333 -0.6658266
vn -0.6824538 -0.2063232 -0.7012044
vn -0.8411639 -0.2063232 -0.4998741
vn -0.8411639 -0.04761302 -0.5386802
vn -0.6824538 -0.04761302 -0.7293764
vn -0.7776798 -0.4285174 0.4599859
vn -0.8411639 -0.2380652 0.4855598
vn -0.8411639 -0.2063232 0.4998741
vn -0.8411639 -0.04761302 0.5386802
vn -0.8411639 -0.04761302 0.5386802
vn -0.2063233 -0.4285174 -0.8796611
vn -0.2380652 -0.2063232 -0.9490815
vn -0.2380652 -0.2380652 -0.9416209
vn -0.2380652 -0.04761302 -0.9700814
vn -0.2380652 -0.04761302 -0.9700814
vn -0.931708 -0.3632082 0
vn -0.9363899 -0.2063232 -0.2839095
vn -0.968132 -0.2063232 -0.1419548
vn -0.9363899 -0.2063232 0.2839095
vn -0.999874 -0.01587099 -0.000346655
vn -0.9363899 -0.04761302 -0.3477167
vn -0.9363899 -0.04761302 0.3477167
vn -0.2063233 -0.4285174 0.8796611
vn -0.2380652 -0.2380652 0.9416209
vn -0.2380652 -0.2063232 0.9490815
vn -0.2380652 -0.04761302 0.9700814
vn -0.2380652 -0.04761302 0.9700814
vn -0.7776798 -0.4285174 -0.4599859
vn -0.8411639 -0.2063232 -0.4998741
vn -0.8411639 -0.2380652 -0.4855598
vn -0.8411639 -0.04761302 -0.5386802
vn -0.8411639 -0.04761302 -0.5386802
vn -0.6507117 -0.3650333 0.6658266
vn -0.8411639 -0.2063232 0.4998741
vn -0.6824538 -0.2063232 0.7012044
vn -0.6824538 -0.04761302 0.7293764
vn -0.8411639 -0.04761302 0.5386802
vn -0.6507117 -0.3650333 0.6658266
vn -0.6824538 -0.2063232 0.7012044
vn -0.4920015 -0.2063232 0.8457927
vn -0.4920015 -0.04761302 0.8692914
vn -0.6824538 -0.04761302 0.7293764
vn 0.5237435 -0.4285174 0.7362511
vn 0.5554855 -0.2380652 0.7967187
vn 0.5554855 -0.2063232 0.8055225
vn 0.5554855 -0.04761302 0.8301619
vn 0.5554855 -0.04761302 0.8301619
vn -0.8729059 -0.4285174 0.2332557
vn -0.9363899 -0.2063232 0.2839095
vn -0.9363899 -0.2380652 0.2578737
vn -0.9363899 -0.04761302 0.3477167
vn -0.9363899 -0.04761302 0.3477167
vn 0.04761302 -0.3650333 0.9297761
vn -0.2380652 -0.2063232 0.9490815
vn 0.04761302 -0.2063232 0.9773248
vn 0.3015493 -0.2063232 0.9308591
vn 0.04761302 -0.04761302 0.9977304
vn -0.2380652 -0.04761302 0.9700814
vn 0.3015493 -0.04761302 0.952261
vn 0.9093079 -0.4161239 0
vn 0.9728062 -0.2316205 0
vn 0.9793667 -0.2020915 0
vn 0.9988682 -0.04756513 0
vn 0.9988682 -0.04756513 0
vn -0.4602594 -0.4285174 0.7775179
vn -0.4920015 -0.2063232 0.8457927
vn -0.4920015 -0.2380652 0.8374124
vn -0.4920015 -0.04761302 0.8692914
vn -0.4920015 -0.04761302 0.8692914
vn 0.7141957 -0.3650333 0.5972229
vn 0.5554855 -0.2063232 0.8055225
vn 0.7459377 -0.2063232 0.6332517
vn 0.7459377 -0.04761302 0.6643116
vn 0.5554855 -0.04761302 0.8301619
vn 0.7141957 -0.3650333 0.5972229
vn 0.7459377 -0.2063232 0.6332517
vn 0.9046479 -0.2063232 0.3728846
vn 0.9046479 -0.04761302 0.4234917
vn 0.7459377 -0.04761302 0.6643116
vn 0.8411638 -0.4285174 -0.3298731
vn 0.9046479 -0.2380652 -0.3534645
vn 0.9046479 -0.2063232 -0.3728846
vn 0.9046479 -0.04761302 -0.4234917
vn 0.9046479 -0.04761302 -0.4234917
vn 0.2698073 -0.4285174 0.862309
vn 0.3015493 -0.2063232 0.9308591
vn 0.3015493 -0.2380652 0.9232513
vn 0.3015493 -0.04761302 0.952261
vn 0.3015493 -0.04761302 0.952261
vn 0.9455375 -0.3255129 0
vn 0.9793667 -0.2020915 0
vn 0.9850967 -0.172001 0
vn 0.9793667 -0.2020915 0
vn 0.999874 -0.01587099 -0.000346655
vn 0.9988682 -0.04756513 0
vn 0.9988682 -0.04756513 0
vn 0.2698073 -0.4285174 -0.862309
vn 0.3015493 -0.2380652 -0.9232513
vn 0.3015493 -0.2063232 -0.9308591
vn 0.3015493 -0.04761302 -0.952261
vn 0.3015493 -0.04761302 -0.952261
vn 0.8411638 -0.4285174 0.3298731
vn 0.9046479 -0.2063232 0.3728846
vn 0.9046479 -0.2380652 0.3534645
vn 0.9046479 -0.04761302 0.4234917
vn 0.9046479 -0.04761302 0.4234917
vn 0.7141957 -0.3650333 -0.5972229
vn 0.9046479 -0.2063232 -0.3728846
vn 0.7459377 -0.2063232 -0.6332517
vn 0.7459377 -0.04761302 -0.6643116
vn 0.9046479 -0.04761302 -0.4234917
vn 0.7141957 -0.3650333 -0.5972229
vn 0.7459377 -0.2063232 -0.6332517
vn 0.5554855 -0.2063232 -0.8055225
vn 0.5554855 -0.04761302 -0.8301619
vn 0.7459377 -0.04761302 -0.6643116
vn -0.4602594 -0.4285174 -0.7775179
vn -0.4920015 -0.2380652 -0.8374124
vn -0.4920015 -0.2063232 -0.8457927
vn -0.4920015 -0.04761302 -0.8692914
vn -0.4920015 -0.04761302 -0.8692914
vn -0.999874 -0.01587099 -0.000346655
vn -0.9363899 -0.04761302 -0.3477167
vn -0.6824538 -0.04761302 -0.7293764
vn -0.999874 -0.01587099 -0.000346655
vn -0.6824538 -0.04761302 -0.7293764
vn -0.968132 -0.04761302 -0.2458728
vn -0.968132 -0.04761302 0.2458728
vn -0.968132 -0.04761302 0.2458728
vn -0.9046479 -0.04761302 0.4234915
vn -0.968132 -0.04761302 0.2458728
vn -0.9363899 -0.04761302 0.3477167
vn -0.968132 -0.04761302 -0.2458728
vn -0.968132 -0.04761302 -0.2458728
vn -0.9046479 -0.04761302 0.4234915
vn -0.999874 -0.01587099 -0.000346655
vn -0.999874 -0.01587099 -0.000346655
vn 0.04761302 -0.04761302 0.9977304
vn -0.3650334 -0.04761302 0.9297761
vn -0.3650334 -0.04761302 0.9297761
vn 0.04761302 -0.04761302 0.9977304
vn 0.7459377 -0.04761302 0.6643116
vn 0.7459377 -0.04761302 0.6643116
vn 0.968132 -0.04761302 0.245873
vn 0.7459377 -0.04761302 0.6643116
vn 0.7459377 -0.04761302 0.6643116
vn 0.968132 -0.04761302 0.245873
vn 0.7459377 -0.04761302 -0.6643116
vn 0.968132 -0.04761302 -0.245873
vn 0.968132 -0.04761302 -0.245873
vn 0.7459377 -0.04761302 -0.6643116
vn 0.04761302 -0.04761302 -0.9977304
vn 0.7459377 -0.04761302 -0.6643116
vn 0.7459377 -0.04761302 -0.6643116
vn 0.04761302 -0.04761302 -0.9977304
vn -0.6824538 -0.04761302 -0.7293764
vn -0.6824538 -0.04761302 -0.7293764
vn -0.9046479 -0.04761302 -0.4234915
vn -0.9046479 -0.04761302 -0.4234915
vn -0.9046479 -0.04761302 -0.4234915
vn -0.9046479 -0.04761302 -0.4234915
vn -0.3650334 -0.04761302 0.9297761
vn -0.3650334 -0.04761302 0.9297761
vn -0.3650334 -0.04761302 0.9297761
vn -0.3650334 -0.04761302 0.9297761
vn 0.4285174 -0.04761302 -0.9022781
vn 0.4285174 -0.04761302 -0.9022781
vn 0.4285174 -0.04761302 -0.9022781
vn 0.4285174 -0.04761302 -0.9022781
vn -0.9046479 -0.04761302 0.4234915
vn -0.9046479 -0.04761302 0.4234915
vn -0.9046479 -0.04761302 0.4234915
vn -0.9046479 -0.04761302 0.4234915
vn 0.4285174 -0.04761302 0.9022781
vn 0.4285174 -0.04761302 0.9022781
vn 0.4285174 -0.04761302 0.9022781
vn 0.4285174 -0.04761302 0.9022781
vn -0.3650334 -0.04761302 -0.9297761
vn -0.3650334 -0.04761302 -0.9297761
vn -0.3650334 -0.04761302 -0.9297761
vn -0.3650334 -0.04761302 -0.9297761
vn -0.3650334 -0.04761302 0.9297761
vn -0.3650334 -0.04761302 0.9297761
vn -0.3650334 -0.04761302 0.9297761
vn -0.3650334 -0.04761302 0.9297761
vn 0.968132 -0.04761302 0.245873
vn 0.968132 -0.04761302 0.245873
vn 0.968132 -0.04761302 0.245873
vn 0.968132 -0.04761302 0.245873
vn -0.9046479 -0.04761302 -0.4234915
vn -0.9046479 -0.04761302 -0.4234915
vn -0.9046479 -0.04761302 -0.4234915
vn -0.9046479 -0.04761302 -0.4234915
vn 0.4285174 -0.04761302 0.9022781
vn 0.4285174 -0.04761302 0.9022781
vn 0.4285174 -0.04761302 0.9022781
vn 0.4285174 -0.04761302 0.9022781
vn 0.968132 -0.04761302 -0.245873
vn 0.968132 -0.04761302 -0.245873
vn 0.968132 -0.04761302 -0.245873
vn 0.968132 -0.04761302 -0.245873
vn -0.9046479 -0.04761302 0.4234915
vn -0.9046479 -0.04761302 0.4234915
vn -0.9046479 -0.04761302 0.4234915
vn -0.9046479 -0.04761302 0.4234915
vn 0.968132 -0.04761302 0.245873
vn 0.968132 -0.04761302 0.245873
vn 0.968132 -0.04761302 0.245873
vn 0.968132 -0.04761302 0.245873
vn 0.4285174 -0.04761302 -0.9022781
vn 0.4285174 -0.04761302 -0.9022781
vn 0.4285174 -0.04761302 -0.9022781
vn 0.4285174 -0.04761302 -0.9022781
vn -0.3650334 -0.04761302 0.9297761
vn -0.3650334 -0.04761302 0.9297761
vn -0.3650334 -0.04761302 0.9297761
vn -0.3650334 -0.04761302 0.9297761
vn 0.968132 -0.04761302 -0.245873
vn 0.968132 -0.04761302 -0.245873
vn 0.968132 -0.04761302 -0.245873
vn 0.968132 -0.04761302 -0.245873
vn -0.3650334 -0.04761302 -0.9297761
vn -0.3650334 -0.04761302 -0.9297761
vn -0.3650334 -0.04761302 -0.9297761
vn -0.3650334 -0.04761302 -0.9297761
vn 0.4285174 -0.04761302 0.9022781
vn 0.4285174 -0.04761302 0.9022781
vn 0.4285174 -0.04761302 0.9022781
vn 0.4285174 -0.04761302 0.9022781
vn 0.4285174 -0.04761302 -0.9022781
vn 0.4285174 -0.04761302 -0.9022781
vn 0.4285174 -0.04761302 -0.9022781
vn 0.4285174 -0.04761302 -0.9022781
vn -0.9046479 -0.04761302 -0.4234915
vn -0.9046479 -0.04761302 -0.4234915
vn -0.9046479 -0.04761302 -0.4234915
vn -0.9046479 -0.04761302 -0.4234915
vn 0.968132 -0.04761302 0.245873
vn 0.968132 -0.04761302 0.245873
vn 0.968132 -0.04761302 0.245873
vn 0.968132 -0.04761302 0.245873
vn -0.3650334 -0.04761302 -0.9297761
vn -0.3650334 -0.04761302 -0.9297761
vn -0.3650334 -0.04761302 -0.9297761
vn -0.3650334 -0.04761302 -0.9297761
vn -0.9046479 -0.04761302 0.4234915
vn -0.9046479 -0.04761302 0.4234915
vn -0.9046479 -0.04761302 0.4234915
vn -0.9046479 -0.04761302 0.4234915
vn 0.968132 -0.04761302 -0.245873
vn 0.968132 -0.04761302 -0.245873
vn 0.968132 -0.04761302 -0.245873
vn 0.968132 -0.04761302 -0.245873
vn -0.3650334 -0.04761302 -0.9297761
vn -0.3650334 -0.04761302 -0.9297761
vn -0.3650334 -0.04761302 -0.9297761
vn -0.3650334 -0.04761302 -0.9297761
vn -0.9046479 -0.04761302 0.4234915
vn -0.9046479 -0.04761302 0.4234915
vn -0.9046479 -0.04761302 0.4234915
vn -0.9046479 -0.04761302 0.4234915
vn 0.968132 -0.04761302 -0.245873
vn 0.968132 -0.04761302 -0.245873
vn 0.968132 -0.04761302 -0.245873
vn 0.968132 -0.04761302 -0.245873
vn -0.9046479 -0.04761302 0.4234915
vn -0.9046479 -0.04761302 0.4234915
vn -0.9046479 -0.04761302 0.4234915
vn -0.9046479 -0.04761302 0.4234915
vn 0.4285174 -0.04761302 0.9022781
vn 0.4285174 -0.04761302 0.9022781
vn 0.4285174 -0.04761302 0.9022781
vn 0.4285174 -0.04761302 0.9022781
vn -0.3650334 -0.04761302 -0.9297761
vn -0.3650334 -0.04761302 -0.9297761
vn -0.3650334 -0.04761302 -0.9297761
vn -0.3650334 -0.04761302 -0.9297761
vn 0.4285174 -0.04761302 0.9022781
vn 0.4285174 -0.04761302 0.9022781
vn 0.4285174 -0.04761302 0.9022781
vn 0.4285174 -0.04761302 0.9022781
vn 0.968132 -0.04761302 -0.245873
vn 0.968132 -0.04761302 -0.245873
vn 0.968132 -0.04761302 -0.245873
vn 0.968132 -0.04761302 -0.245873
vn -0.9046479 -0.04761302 0.4234915
vn -0.9046479 -0.04761302 0.4234915
vn -0.9046479 -0.04761302 0.4234915
vn -0.9046479 -0.04761302 0.4234915
vn 0.968132 -0.04761302 -0.245873
vn 0.968132 -0.04761302 -0.245873
vn 0.968132 -0.04761302 -0.245873
vn 0.968132 -0.04761302 -0.245873
vn -0.3650334 -0.04761302 -0.9297761
vn -0.3650334 -0.04761302 -0.9297761
vn -0.3650334 -0.04761302 -0.9297761
vn -0.3650334 -0.04761302 -0.9297761
vn 0.4285174 -0.04761302 0.9022781
vn 0.4285174 -0.04761302 0.9022781
vn 0.4285174 -0.04761302 0.9022781
vn 0.4285174 -0.04761302 0.9022781
vn -0.5554856 0.7776798 0.2943635
vn -0.5554856 0.7776798 0.2943635
vn -0.5554856 0.7776798 0.2943635
vn -0.2063233 0.7776798 0.5938391
vn -0.2063233 0.7776798 0.5938391
vn -0.2063233 0.7776798 0.5938391
vn 0.2698073 0.7776798 0.5678188
vn 0.2698073 0.7776798 0.5678188
vn 0.2698073 0.7776798 0.5678188
vn 0.6189696 0.7776798 0.1099579
vn 0.6189696 0.7776798 0.1099579
vn 0.6189696 0.7776798 0.1099579
vn 0.6189696 0.7776798 -0.1099579
vn 0.6189696 0.7776798 -0.1099579
vn 0.6189696 0.7776798 -0.1099579
vn 0.2698073 0.7776798 -0.5678188
vn 0.2698073 0.7776798 -0.5678188
vn 0.2698073 0.7776798 -0.5678188
vn -0.2063233 0.7776798 -0.5938391
vn -0.2063233 0.7776798 -0.5938391
vn -0.2063233 0.7776798 -0.5938391
vn -0.5554856 0.7776798 -0.2943635
vn -0.5554856 0.7776798 -0.2943635
vn -0.5554856 0.7776798 -0.2943635
vn -0.2020916 -0.9793667 0
vn -0.2020916 -0.9793667 0
vn -0.2020916 -0.9793667 0
vn -0.2020916 -0.9793667 0
vn -0.07911634 -0.9968654 0
vn -0.07911634 -0.9968654 0
vn -0.07911634 -0.9968654 0
vn -0.07911634 -0.9968654 0
vn -0.07911634 -0.9968654 0
vn -0.07911634 -0.9968654 0
vn 0.1414213 -0.9899495 0
vn 0.1414213 -0.9899495 0
vn 0.1414213 -0.9899495 0
vn 0.1414213 -0.9899495 0
vn 0.260523 -0.9654676 0
vn 0.260523 -0.9654676 0
vn 0.260523 -0.9654676 0
vn 0.260523 -0.9654676 0
vn 0.260523 -0.9654676 0
vn 0.260523 -0.9654676 0
vn 0.260523 -0.9654676 0
vn 0.260523 -0.9654676 0
vn 0.260523 -0.9654676 0
vn 0.260523 -0.9654676 0
vn 0.1414213 -0.9899495 0
vn 0.1414213 -0.9899495 0
vn 0.1414213 -0.9899495 0
vn 0.1414213 -0.9899495 0
vn -0.07911634 -0.9968654 0
vn -0.07911634 -0.9968654 0
vn -0.07911634 -0.9968654 0
vn -0.07911634 -0.9968654 0
vn -0.2020916 -0.9793667 0
vn -0.2020916 -0.9793667 0
vn -0.2020916 -0.9793667 0
vn -0.2020916 -0.9793667 0
vn -0.6507117 -0.7459377 0.1419551
vn -0.6507117 -0.7459377 0.1419551
vn -0.6507117 -0.7459377 0.1419551
vn -0.6507117 -0.7459377 0.1419551
vn -0.2698073 -0.7459377 0.6089178
vn -0.2698073 -0.7459377 0.6089178
vn -0.2698073 -0.7459377 0.6089178
vn -0.2698073 -0.7459377 0.6089178
vn 0.3332914 -0.7459377 0.5766227
vn 0.3332914 -0.7459377 0.5766227
vn 0.3332914 -0.7459377 0.5766227
vn 0.3332914 -0.7459377 0.5766227
vn 0.6915715 -0.722308 0
vn 0.6915715 -0.722308 0
vn 0.6915715 -0.722308 0
vn 0.6915715 -0.722308 0
vn 0.6915715 -0.722308 0
vn 0.6915715 -0.722308 0
vn 0.6915715 -0.722308 0
vn 0.6915715 -0.722308 0
vn 0.3332914 -0.7459377 -0.5766227
vn 0.3332914 -0.7459377 -0.5766227
vn 0.3332914 -0.7459377 -0.5766227
vn 0.3332914 -0.7459377 -0.5766227
vn -0.2698073 -0.7459377 -0.6089178
vn -0.2698073 -0.7459377 -0.6089178
vn -0.2698073 -0.7459377 -0.6089178
vn -0.2698073 -0.7459377 -0.6089178
vn -0.6507117 -0.7459377 -0.1419551
vn -0.6507117 -0.7459377 -0.1419551
vn -0.6507117 -0.7459377 -0.1419551
vn -0.6507117 -0.7459377 -0.1419551
vn -0.3650334 -0.04761302 0.9297761
vn -0.3332913 0.3650334 0.8692914
vn -0.3650334 -0.04761302 0.9297761
vn -0.3332913 0.3967754 0.8552697
vn -0.2063233 0.7776798 0.5938391
vn -0.2063233 0.7776798 0.5938391
vn 0.4285174 -0.04761302 0.9022781
vn 0.4285174 -0.04761302 0.9022781
vn 0.4285174 -0.04761302 0.9022781
vn 0.4285174 -0.04761302 0.9022781
vn 0.968132 -0.04761302 0.245873
vn 0.8729059 0.3967754 0.2839096
vn 0.968132 -0.04761302 0.245873
vn 0.8729059 0.3967754 0.2839096
vn 0.5554855 0.8094218 0.1904527
vn 0.5554855 0.8094218 0.1904527
vn 0.968132 -0.04761302 -0.245873
vn 0.7459377 -0.04761302 -0.6643116
vn 0.7459377 -0.04761302 -0.6643116
vn 0.4285174 -0.04761302 -0.9022781
vn 0.4285174 -0.04761302 -0.9022781
vn 0.7459377 -0.04761302 -0.6643116
vn 0.968132 -0.04761302 -0.245873
vn 0.968132 -0.04761302 -0.245873
vn -0.3650334 -0.04761302 -0.9297761
vn -0.3650334 -0.04761302 -0.9297761
vn -0.3650334 -0.04761302 -0.9297761
vn -0.3650334 -0.04761302 -0.9297761
vn -0.9046479 -0.04761302 -0.4234915
vn -0.9046479 -0.04761302 -0.4234915
vn -0.9046479 -0.04761302 -0.4234915
vn -0.9046479 -0.04761302 -0.4234915
vn -0.9046479 -0.04761302 0.4234915
vn -0.8411639 0.3650334 0.3989912
vn -0.9046479 -0.04761302 0.4234915
vn -0.8094218 0.3967754 0.4329038
vn -0.5554856 0.7776798 0.2943635
vn -0.5554856 0.7776798 0.2943635
vn 0.2698073 0.8094218 0.521575
vn 0.2698073 0.8094218 0.521575
vn 0.2698073 0.8094218 0.521575
vn 0.2698073 0.8094218 0.521575
vn 0.4285174 0.8411639 -0.329873
vn 0.5554855 0.8094218 -0.1904527
vn 0.5554855 0.8094218 -0.1904527
vn 0.4285174 0.8411639 -0.329873
vn 0.04761302 0.8094218 -0.5852943
vn 0.4285174 0.8411639 -0.329873
vn 0.4285174 0.8411639 -0.329873
vn 0.04761302 0.8094218 -0.5852943
vn -0.3967754 0.8094218 -0.4329038
vn -0.3967754 0.8094218 -0.4329038
vn -0.5554856 0.7776798 -0.2943635
vn -0.5554856 0.7776798 -0.2943635
g DSJ_GTA_diLou_jianYu_2_0
f 3/3/3 2/2/2 1/1/1
f 4/4/4 1/1/1 2/2/2
f 7/7/7 6/6/6 5/5/5
f 8/8/8 5/5/5 6/6/6
f 5/5/5 8/8/8 9/9/9
f 10/10/10 9/9/9 8/8/8
f 13/13/13 12/12/12 11/11/11
f 14/14/14 11/11/11 12/12/12
f 17/17/17 16/16/16 15/15/15
f 18/18/18 15/15/15 16/16/16
f 21/21/21 20/20/20 19/19/19
f 22/22/22 19/19/19 20/20/20
f 25/25/25 24/24/24 23/23/23
f 26/26/26 23/23/23 24/24/24
f 29/29/29 28/28/28 27/27/27
f 30/30/30 27/27/27 28/28/28
f 33/33/33 32/32/32 31/31/31
f 34/34/34 31/31/31 32/32/32
f 37/37/37 36/36/36 35/35/35
f 38/38/38 35/35/35 36/36/36
f 41/41/41 40/40/40 39/39/39
f 42/42/42 39/39/39 40/40/40
f 45/45/45 44/44/44 43/43/43
f 46/46/46 43/43/43 44/44/44
f 49/49/49 48/48/48 47/47/47
f 50/50/50 47/47/47 48/48/48
f 53/53/53 52/52/52 51/51/51
f 54/54/54 51/51/51 52/52/52
f 57/57/57 56/56/56 55/55/55
f 58/58/58 55/55/55 56/56/56
f 61/61/61 60/60/60 59/59/59
f 62/62/62 59/59/59 60/60/60
f 65/65/65 64/64/64 63/63/63
f 66/66/66 63/63/63 64/64/64
f 69/69/69 68/68/68 67/67/67
f 70/70/70 67/67/67 68/68/68
f 73/73/73 72/72/72 71/71/71
f 74/74/74 71/71/71 72/72/72
f 77/77/77 76/76/76 75/75/75
f 78/78/78 75/75/75 76/76/76
f 75/75/75 78/78/78 79/79/79
f 80/80/80 79/79/79 78/78/78
f 83/83/83 82/82/82 81/81/81
f 84/84/84 81/81/81 82/82/82
f 87/87/87 86/86/86 85/85/85
f 88/88/88 85/85/85 86/86/86
f 91/91/91 90/90/90 89/89/89
f 92/92/92 89/89/89 90/90/90
f 95/95/95 94/94/94 93/93/93
f 96/96/96 93/93/93 94/94/94
f 93/93/93 96/96/96 97/97/97
f 98/98/98 97/97/97 96/96/96
f 101/101/101 100/100/100 99/99/99
f 102/102/102 99/99/99 100/100/100
f 105/105/105 104/104/104 103/103/103
f 106/106/106 103/103/103 104/104/104
f 109/109/109 108/108/108 107/107/107
f 110/110/110 107/107/107 108/108/108
f 108/108/108 109/109/109 111/111/111
f 112/112/112 111/111/111 109/109/109
f 115/115/115 114/114/114 113/113/113
f 116/116/116 113/113/113 114/114/114
f 119/119/119 118/118/118 117/117/117
f 120/120/120 117/117/117 118/118/118
f 123/123/123 122/122/122 121/121/121
f 124/124/124 121/121/121 122/122/122
f 121/121/121 124/124/124 125/125/125
f 126/126/126 125/125/125 124/124/124
f 129/129/129 128/128/128 127/127/127
f 130/130/130 127/127/127 128/128/128
f 128/128/128 129/129/129 131/131/131
f 132/132/132 131/131/131 129/129/129
f 135/135/135 134/134/134 133/133/133
f 136/136/136 133/133/133 134/134/134
f 134/134/134 135/135/135 137/137/137
f 138/138/138 137/137/137 135/135/135
f 141/141/141 140/140/140 139/139/139
f 142/142/142 139/139/139 140/140/140
f 145/145/145 144/144/144 143/143/143
f 146/146/146 143/143/143 144/144/144
f 149/149/149 148/148/148 147/147/147
f 150/150/150 147/147/147 148/148/148
f 153/153/153 152/152/152 151/151/151
f 154/154/154 151/151/151 152/152/152
f 157/157/157 156/156/156 155/155/155
f 158/158/158 155/155/155 156/156/156
f 161/161/161 160/160/160 159/159/159
f 162/162/162 159/159/159 160/160/160
f 159/159/159 163/163/163 161/161/161
f 164/164/164 161/161/161 163/163/163
f 167/167/167 166/166/166 165/165/165
f 168/168/168 165/165/165 166/166/166
f 171/171/171 170/170/170 169/169/169
f 172/172/172 169/169/169 170/170/170
f 175/175/175 174/174/174 173/173/173
f 176/176/176 173/173/173 174/174/174
f 179/179/179 178/178/178 177/177/177
f 180/180/180 177/177/177 178/178/178
f 177/177/177 180/180/180 181/181/181
f 182/182/182 181/181/181 180/180/180
f 185/185/185 184/184/184 183/183/183
f 186/186/186 183/183/183 184/184/184
f 189/189/189 188/188/188 187/187/187
f 190/190/190 187/187/187 188/188/188
f 193/193/193 192/192/192 191/191/191
f 194/194/194 191/191/191 192/192/192
f 192/192/192 193/193/193 195/195/195
f 196/196/196 195/195/195 193/193/193
f 199/199/199 198/198/198 197/197/197
f 200/200/200 197/197/197 198/198/198
f 203/203/203 202/202/202 201/201/201
f 204/204/204 201/201/201 202/202/202
f 207/207/207 206/206/206 205/205/205
f 208/208/208 205/205/205 206/206/206
f 206/206/206 207/207/207 209/209/209
f 210/210/210 209/209/209 207/207/207
f 213/213/213 212/212/212 211/211/211
f 214/214/214 211/211/211 212/212/212
f 217/217/217 216/216/216 215/215/215
f 218/218/218 215/215/215 216/216/216
f 221/221/221 220/220/220 219/219/219
f 222/222/222 219/219/219 220/220/220
f 220/220/220 221/221/221 223/223/223
f 224/224/224 223/223/223 221/221/221
f 227/227/227 226/226/226 225/225/225
f 228/228/228 225/225/225 226/226/226
f 231/231/231 230/230/230 229/229/229
f 232/232/232 229/229/229 230/230/230
f 235/235/235 234/234/234 233/233/233
f 236/236/236 233/233/233 234/234/234
f 234/234/234 237/237/237 236/236/236
f 238/238/238 236/236/236 237/237/237
f 241/241/241 240/240/240 239/239/239
f 242/242/242 239/239/239 240/240/240
f 245/245/245 244/244/244 243/243/243
f 246/246/246 243/243/243 244/244/244
f 249/249/249 248/248/248 247/247/247
f 250/250/250 247/247/247 248/248/248
f 253/253/253 252/252/252 251/251/251
f 254/254/254 251/251/251 252/252/252
f 257/257/257 256/256/256 255/255/255
f 258/258/258 255/255/255 256/256/256
f 255/255/255 259/259/259 257/257/257
f 260/260/260 257/257/257 259/259/259
f 263/263/263 262/262/262 261/261/261
f 264/264/264 261/261/261 262/262/262
f 262/262/262 263/263/263 265/265/265
f 266/266/266 265/265/265 263/263/263
f 265/265/265 266/266/266 267/267/267
f 268/268/268 267/267/267 266/266/266
f 267/267/267 268/268/268 269/269/269
f 270/270/270 269/269/269 268/268/268
f 269/269/269 270/270/270 271/271/271
f 272/272/272 271/271/271 270/270/270
f 275/275/275 274/274/274 273/273/273
f 276/276/276 273/273/273 274/274/274
f 274/274/274 275/275/275 277/277/277
f 278/278/278 277/277/277 275/275/275
f 277/277/277 278/278/278 279/279/279
f 280/280/280 279/279/279 278/278/278
f 283/283/283 282/282/282 281/281/281
f 284/284/284 281/281/281 282/282/282
f 282/282/282 283/283/283 285/285/285
f 286/286/286 285/285/285 283/283/283
f 289/289/289 288/288/288 287/287/287
f 290/290/290 287/287/287 288/288/288
f 293/293/293 292/292/292 291/291/291
f 294/294/294 291/291/291 292/292/292
f 297/297/297 296/296/296 295/295/295
f 298/298/298 295/295/295 296/296/296
f 296/296/296 297/297/297 299/299/299
f 300/300/300 299/299/299 297/297/297
f 303/303/303 302/302/302 301/301/301
f 304/304/304 301/301/301 302/302/302
f 307/307/307 306/306/306 305/305/305
f 308/308/308 305/305/305 306/306/306
f 311/311/311 310/310/310 309/309/309
f 311/311/311 312/312/312 310/310/310
f 313/313/313 310/310/310 312/312/312
f 316/316/316 315/315/315 314/314/314
f 317/317/317 316/316/316 314/314/314
f 316/316/316 318/318/318 315/315/315
f 319/319/319 315/315/315 318/318/318
f 318/318/318 316/316/316 320/320/320
f 317/317/317 320/320/320 316/316/316
f 323/323/323 322/322/322 321/321/321
f 323/323/323 324/324/324 322/322/322
f 325/325/325 322/322/322 324/324/324
f 328/328/328 327/327/327 326/326/326
f 328/328/328 329/329/329 327/327/327
f 330/330/330 327/327/327 329/329/329
f 333/333/333 332/332/332 331/331/331
f 333/333/333 334/334/334 332/332/332
f 335/335/335 332/332/332 334/334/334
f 338/338/338 337/337/337 336/336/336
f 338/338/338 339/339/339 337/337/337
f 340/340/340 337/337/337 339/339/339
f 343/343/343 342/342/342 341/341/341
f 343/343/343 344/344/344 342/342/342
f 345/345/345 342/342/342 344/344/344
f 348/348/348 347/347/347 346/346/346
f 348/348/348 349/349/349 347/347/347
f 350/350/350 347/347/347 349/349/349
f 353/353/353 352/352/352 351/351/351
f 354/354/354 353/353/353 351/351/351
f 353/353/353 355/355/355 352/352/352
f 356/356/356 352/352/352 355/355/355
f 355/355/355 353/353/353 357/357/357
f 354/354/354 357/357/357 353/353/353
f 360/360/360 359/359/359 358/358/358
f 360/360/360 361/361/361 359/359/359
f 362/362/362 359/359/359 361/361/361
f 365/365/365 364/364/364 363/363/363
f 365/365/365 366/366/366 364/364/364
f 367/367/367 364/364/364 366/366/366
f 370/370/370 369/369/369 368/368/368
f 370/370/370 371/371/371 369/369/369
f 372/372/372 369/369/369 371/371/371
f 375/375/375 374/374/374 373/373/373
f 375/375/375 376/376/376 374/374/374
f 377/377/377 374/374/374 376/376/376
f 380/380/380 379/379/379 378/378/378
f 380/380/380 381/381/381 379/379/379
f 382/382/382 379/379/379 381/381/381
f 385/385/385 384/384/384 383/383/383
f 385/385/385 386/386/386 384/384/384
f 387/387/387 384/384/384 386/386/386
f 390/390/390 389/389/389 388/388/388
f 391/391/391 390/390/390 388/388/388
f 390/390/390 392/392/392 389/389/389
f 393/393/393 389/389/389 392/392/392
f 392/392/392 390/390/390 394/394/394
f 391/391/391 394/394/394 390/390/390
f 397/397/397 396/396/396 395/395/395
f 397/397/397 398/398/398 396/396/396
f 399/399/399 396/396/396 398/398/398
f 402/402/402 401/401/401 400/400/400
f 402/402/402 403/403/403 401/401/401
f 404/404/404 401/401/401 403/403/403
f 407/407/407 406/406/406 405/405/405
f 407/407/407 408/408/408 406/406/406
f 409/409/409 406/406/406 408/408/408
f 412/412/412 411/411/411 410/410/410
f 412/412/412 413/413/413 411/411/411
f 414/414/414 411/411/411 413/413/413
f 417/417/417 416/416/416 415/415/415
f 417/417/417 418/418/418 416/416/416
f 419/419/419 416/416/416 418/418/418
f 422/422/422 421/421/421 420/420/420
f 422/422/422 423/423/423 421/421/421
f 424/424/424 421/421/421 423/423/423
f 427/427/427 426/426/426 425/425/425
f 428/428/428 427/427/427 425/425/425
f 427/427/427 429/429/429 426/426/426
f 430/430/430 426/426/426 429/429/429
f 429/429/429 427/427/427 431/431/431
f 428/428/428 431/431/431 427/427/427
f 434/434/434 433/433/433 432/432/432
f 434/434/434 435/435/435 433/433/433
f 436/436/436 433/433/433 435/435/435
f 439/439/439 438/438/438 437/437/437
f 439/439/439 440/440/440 438/438/438
f 441/441/441 438/438/438 440/440/440
f 444/444/444 443/443/443 442/442/442
f 444/444/444 445/445/445 443/443/443
f 446/446/446 443/443/443 445/445/445
f 449/449/449 448/448/448 447/447/447
f 449/449/449 450/450/450 448/448/448
f 451/451/451 448/448/448 450/450/450
f 454/454/454 453/453/453 452/452/452
f 454/454/454 455/455/455 453/453/453
f 456/456/456 453/453/453 455/455/455
f 459/459/459 458/458/458 457/457/457
f 460/460/460 457/457/457 458/458/458
f 459/459/459 461/461/461 458/458/458
f 461/461/461 462/462/462 458/458/458
f 462/462/462 463/463/463 458/458/458
f 464/464/464 458/458/458 463/463/463
f 467/467/467 466/466/466 465/465/465
f 467/467/467 468/468/468 466/466/466
f 469/469/469 466/466/466 468/468/468
f 470/470/470 467/467/467 465/465/465
f 467/467/467 470/470/470 471/471/471
f 472/472/472 471/471/471 470/470/470
f 475/475/475 474/474/474 473/473/473
f 476/476/476 473/473/473 474/474/474
f 473/473/473 476/476/476 477/477/477
f 478/478/478 477/477/477 476/476/476
f 481/481/481 480/480/480 479/479/479
f 482/482/482 479/479/479 480/480/480
f 485/485/485 484/484/484 483/483/483
f 486/486/486 483/483/483 484/484/484
f 489/489/489 488/488/488 487/487/487
f 490/490/490 487/487/487 488/488/488
f 487/487/487 490/490/490 491/491/491
f 492/492/492 491/491/491 490/490/490
f 495/495/495 494/494/494 493/493/493
f 496/496/496 493/493/493 494/494/494
f 499/499/499 498/498/498 497/497/497
f 500/500/500 497/497/497 498/498/498
f 503/503/503 502/502/502 501/501/501
f 504/504/504 501/501/501 502/502/502
f 507/507/507 506/506/506 505/505/505
f 508/508/508 505/505/505 506/506/506
f 511/511/511 510/510/510 509/509/509
f 512/512/512 509/509/509 510/510/510
f 515/515/515 514/514/514 513/513/513
f 516/516/516 513/513/513 514/514/514
f 519/519/519 518/518/518 517/517/517
f 520/520/520 517/517/517 518/518/518
f 523/523/523 522/522/522 521/521/521
f 524/524/524 521/521/521 522/522/522
f 527/527/527 526/526/526 525/525/525
f 528/528/528 525/525/525 526/526/526
f 531/531/531 530/530/530 529/529/529
f 532/532/532 529/529/529 530/530/530
f 535/535/535 534/534/534 533/533/533
f 536/536/536 533/533/533 534/534/534
f 539/539/539 538/538/538 537/537/537
f 540/540/540 537/537/537 538/538/538
f 543/543/543 542/542/542 541/541/541
f 544/544/544 541/541/541 542/542/542
f 547/547/547 546/546/546 545/545/545
f 548/548/548 545/545/545 546/546/546
f 551/551/551 550/550/550 549/549/549
f 552/552/552 549/549/549 550/550/550
f 555/555/555 554/554/554 553/553/553
f 556/556/556 553/553/553 554/554/554
f 559/559/559 558/558/558 557/557/557
f 560/560/560 557/557/557 558/558/558
f 563/563/563 562/562/562 561/561/561
f 564/564/564 561/561/561 562/562/562
f 567/567/567 566/566/566 565/565/565
f 568/568/568 565/565/565 566/566/566
f 571/571/571 570/570/570 569/569/569
f 572/572/572 569/569/569 570/570/570
f 575/575/575 574/574/574 573/573/573
f 576/576/576 573/573/573 574/574/574
f 579/579/579 578/578/578 577/577/577
f 580/580/580 577/577/577 578/578/578
f 583/583/583 582/582/582 581/581/581
f 584/584/584 581/581/581 582/582/582
f 587/587/587 586/586/586 585/585/585
f 588/588/588 585/585/585 586/586/586
f 591/591/591 590/590/590 589/589/589
f 592/592/592 589/589/589 590/590/590
f 595/595/595 594/594/594 593/593/593
f 596/596/596 593/593/593 594/594/594
f 599/599/599 598/598/598 597/597/597
f 600/600/600 597/597/597 598/598/598
f 603/603/603 602/602/602 601/601/601
f 604/604/604 601/601/601 602/602/602
f 607/607/607 606/606/606 605/605/605
f 608/608/608 605/605/605 606/606/606
f 611/611/611 610/610/610 609/609/609
f 612/612/612 609/609/609 610/610/610
f 615/615/615 614/614/614 613/613/613
f 616/616/616 613/613/613 614/614/614
f 619/619/619 618/618/618 617/617/617
f 620/620/620 617/617/617 618/618/618
f 623/623/623 622/622/622 621/621/621
f 624/624/624 621/621/621 622/622/622
f 627/627/627 626/626/626 625/625/625
f 628/628/628 625/625/625 626/626/626
f 631/631/631 630/630/630 629/629/629
f 632/632/632 629/629/629 630/630/630
f 635/635/635 634/634/634 633/633/633
f 636/636/636 633/633/633 634/634/634
f 639/639/639 638/638/638 637/637/637
f 642/642/642 641/641/641 640/640/640
f 645/645/645 644/644/644 643/643/643
f 648/648/648 647/647/647 646/646/646
f 651/651/651 650/650/650 649/649/649
f 654/654/654 653/653/653 652/652/652
f 657/657/657 656/656/656 655/655/655
f 660/660/660 659/659/659 658/658/658
f 663/663/663 662/662/662 661/661/661
f 662/662/662 664/664/664 661/661/661
f 667/667/667 666/666/666 665/665/665
f 670/670/670 669/669/669 668/668/668
f 673/673/673 672/672/672 671/671/671
f 672/672/672 674/674/674 671/671/671
f 677/677/677 676/676/676 675/675/675
f 676/676/676 678/678/678 675/675/675
f 681/681/681 680/680/680 679/679/679
f 684/684/684 683/683/683 682/682/682
f 687/687/687 686/686/686 685/685/685
f 686/686/686 688/688/688 685/685/685
f 691/691/691 690/690/690 689/689/689
f 690/690/690 692/692/692 689/689/689
f 695/695/695 694/694/694 693/693/693
f 694/694/694 696/696/696 693/693/693
f 699/699/699 698/698/698 697/697/697
f 698/698/698 700/700/700 697/697/697
f 703/703/703 702/702/702 701/701/701
f 702/702/702 704/704/704 701/701/701
f 707/707/707 706/706/706 705/705/705
f 706/706/706 708/708/708 705/705/705
f 711/711/711 710/710/710 709/709/709
f 710/710/710 712/712/712 709/709/709
f 715/715/715 714/714/714 713/713/713
f 714/714/714 716/716/716 713/713/713
f 719/719/719 718/718/718 717/717/717
f 718/718/718 720/720/720 717/717/717
f 723/723/723 722/722/722 721/721/721
f 722/722/722 724/724/724 721/721/721
f 727/727/727 726/726/726 725/725/725
f 726/726/726 728/728/728 725/725/725
f 731/731/731 730/730/730 729/729/729
f 732/732/732 729/729/729 730/730/730
f 730/730/730 733/733/733 732/732/732
f 734/734/734 732/732/732 733/733/733
f 737/737/737 736/736/736 735/735/735
f 738/738/738 735/735/735 736/736/736
f 741/741/741 740/740/740 739/739/739
f 742/742/742 739/739/739 740/740/740
f 740/740/740 743/743/743 742/742/742
f 744/744/744 742/742/742 743/743/743
f 747/747/747 746/746/746 745/745/745
f 746/746/746 747/747/747 748/748/748
f 749/749/749 748/748/748 747/747/747
f 752/752/752 751/751/751 750/750/750
f 755/755/755 754/754/754 753/753/753
f 756/756/756 753/753/753 754/754/754
f 759/759/759 758/758/758 757/757/757
f 760/760/760 757/757/757 758/758/758
f 763/763/763 762/762/762 761/761/761
f 764/764/764 761/761/761 762/762/762
f 762/762/762 765/765/765 764/764/764
f 766/766/766 764/764/764 765/765/765
f 769/769/769 768/768/768 767/767/767
f 770/770/770 767/767/767 768/768/768
f 773/773/773 772/772/772 771/771/771
f 774/774/774 771/771/771 772/772/772
f 777/777/777 776/776/776 775/775/775
f 778/778/778 775/775/775 776/776/776
f 775/775/775 778/778/778 779/779/779
f 780/780/780 779/779/779 778/778/778
f 779/779/779 780/780/780 781/781/781
f 782/782/782 781/781/781 780/780/780
