g DSJ_GTA_gaoLou_3
v -74.67449 -46.06022 -43.43238
v 74.38251 -46.06022 -44.45432
v -74.23652 -46.06022 44.16233
v 74.67449 -46.06022 43.1404
v -17.88392 2.116875 -32.62903
v -17.88392 -46.49819 -32.62903
v 18.02991 2.116875 -32.77502
v 18.02991 -46.49819 -32.77502
v 18.1759 2.116875 31.75308
v 18.1759 -46.49819 31.75308
v -17.73793 2.116875 32.04507
v -17.73793 -46.49819 32.04507
v 18.02991 48.25008 -32.77502
v 18.02991 48.25008 -0.5109711
v -17.73793 48.25008 -0.2189865
v 18.1759 48.25008 31.75308
v -17.73793 48.25008 32.04507
v -17.88392 48.25008 -32.62903
v 74.38251 -46.06022 -44.45432
v -74.67449 -46.06022 -43.43238
v 74.38251 -48.54207 -44.45432
v -74.67449 -48.54207 -43.43238
v -74.67449 -46.06022 -43.43238
v -74.23652 -46.06022 44.16233
v -74.67449 -48.54207 -43.43238
v -74.23652 -48.54207 44.16233
v -74.23652 -46.06022 44.16233
v 74.67449 -46.06022 43.1404
v -74.23652 -48.54207 44.16233
v 74.67449 -48.54207 43.1404
v 74.67449 -46.06022 43.1404
v 74.38251 -46.06022 -44.45432
v 74.67449 -48.54207 43.1404
v 74.38251 -48.54207 -44.45432
v 74.67449 -48.54207 43.1404
v 74.38251 -48.54207 -44.45432
v -74.23652 -48.54207 44.16233
v -74.67449 -48.54207 -43.43238
v 46.49819 -20.94973 -39.92859
v 46.49819 -46.49819 -39.92859
v 66.207 -20.94973 -39.92859
v 66.207 -46.49819 -39.92859
v 66.207 -20.94973 -39.92859
v 66.207 -46.49819 -39.92859
v 66.64497 -20.94973 38.61467
v 66.64497 -46.49819 38.61467
v 46.79018 -20.94973 38.90665
v 46.79018 -46.49819 38.90665
v 29.56322 -20.94973 38.90665
v 12.48225 -46.49819 39.05264
v 12.48225 -20.94973 39.05264
v 29.27123 20.07379 -39.92859
v 12.19027 20.07379 -39.7826
v 29.27123 -20.94973 -39.92859
v 12.19027 -20.94973 -39.7826
v 46.49819 -46.49819 -39.92859
v 46.49819 -20.94973 -39.92859
v 12.19027 -46.49819 -39.7826
v 29.27123 -20.94973 -39.92859
v 12.19027 -20.94973 -39.7826
v 66.64497 -20.94973 38.61467
v 66.64497 -46.49819 38.61467
v 46.79018 -20.94973 38.90665
v 46.79018 -46.49819 38.90665
v 29.27123 61.38929 -39.92859
v 12.19027 61.38929 -39.7826
v 29.27123 20.07379 -39.92859
v 12.19027 20.07379 -39.7826
v 29.56322 -20.94973 38.90665
v 12.48225 -20.94973 39.05264
v 29.56322 20.07379 38.90665
v 12.48225 20.07379 39.05264
v 46.49819 -20.94973 -39.92859
v 46.49819 20.07379 -39.92859
v 29.27123 -20.94973 -39.92859
v 29.27123 20.07379 -39.92859
v 12.48225 61.38929 39.05264
v 12.19027 61.38929 -39.7826
v 29.56322 61.38929 38.90665
v 29.27123 61.38929 -39.92859
v 12.48225 20.07379 39.05264
v 12.48225 61.38929 39.05264
v 29.56322 20.07379 38.90665
v 29.56322 61.38929 38.90665
v 46.79018 20.07379 38.90665
v 46.79018 -20.94973 38.90665
v 29.56322 20.07379 38.90665
v 29.56322 -20.94973 38.90665
v 46.79018 -20.94973 38.90665
v 46.49819 -20.94973 -39.92859
v 66.64497 -20.94973 38.61467
v 66.207 -20.94973 -39.92859
v 46.49819 -20.94973 -39.92859
v 46.79018 -20.94973 38.90665
v 46.49819 20.07379 -39.92859
v 46.79018 20.07379 38.90665
v 46.49819 20.07379 -39.92859
v 46.79018 20.07379 38.90665
v 29.27123 20.07379 -39.92859
v 29.56322 20.07379 38.90665
v 29.56322 61.38929 38.90665
v 29.27123 61.38929 -39.92859
v 29.56322 20.07379 38.90665
v 29.27123 20.07379 -39.92859
v 12.19027 20.07379 -39.7826
v 12.19027 61.38929 -39.7826
v 12.48225 20.07379 39.05264
v 12.48225 61.38929 39.05264
v 12.48225 -20.94973 39.05264
v 12.19027 -20.94973 -39.7826
v 12.48225 20.07379 39.05264
v 12.19027 20.07379 -39.7826
v 12.48225 -46.49819 39.05264
v 12.19027 -46.49819 -39.7826
v 12.48225 -20.94973 39.05264
v 12.19027 -20.94973 -39.7826
v -66.20701 -46.49819 -38.90665
v -46.49819 -46.49819 -39.34462
v -66.20701 -20.94973 -38.90665
v -46.49819 -20.94973 -39.34462
v -65.91502 -46.49819 39.6366
v -66.20701 -46.49819 -38.90665
v -65.91502 -20.94973 39.6366
v -66.20701 -20.94973 -38.90665
v -11.75229 -20.94973 39.34463
v -11.75229 -46.49819 39.34463
v -28.97925 -20.94973 39.49062
v -46.20621 -46.49819 39.49062
v -46.20621 -20.94973 39.49062
v -12.04427 -20.94973 -39.34462
v -12.04427 20.07379 -39.34462
v -29.27123 -20.94973 -39.34462
v -29.27123 20.07379 -39.34462
v -12.04427 -20.94973 -39.34462
v -29.27123 -20.94973 -39.34462
v -12.04427 -46.49819 -39.34462
v -46.49819 -20.94973 -39.34462
v -46.49819 -46.49819 -39.34462
v -46.20621 -46.49819 39.49062
v -65.91502 -46.49819 39.6366
v -46.20621 -20.94973 39.49062
v -65.91502 -20.94973 39.6366
v -12.04427 20.07379 -39.34462
v -12.04427 61.38929 -39.34462
v -29.27123 20.07379 -39.34462
v -29.27123 61.38929 -39.34462
v -11.75229 20.07379 39.34463
v -11.75229 -20.94973 39.34463
v -28.97925 20.07379 39.49062
v -28.97925 -20.94973 39.49062
v -29.27123 20.07379 -39.34462
v -46.49819 20.07379 -39.34462
v -29.27123 -20.94973 -39.34462
v -46.49819 -20.94973 -39.34462
v -29.27123 61.38929 -39.34462
v -12.04427 61.38929 -39.34462
v -28.97925 61.38929 39.49062
v -11.75229 61.38929 39.34463
v -28.97925 61.38929 39.49062
v -11.75229 61.38929 39.34463
v -28.97925 20.07379 39.49062
v -11.75229 20.07379 39.34463
v -28.97925 -20.94973 39.49062
v -46.20621 -20.94973 39.49062
v -28.97925 20.07379 39.49062
v -46.20621 20.07379 39.49062
v -66.20701 -20.94973 -38.90665
v -46.49819 -20.94973 -39.34462
v -65.91502 -20.94973 39.6366
v -46.20621 -20.94973 39.49062
v -46.20621 20.07379 39.49062
v -46.20621 -20.94973 39.49062
v -46.49819 20.07379 -39.34462
v -46.49819 -20.94973 -39.34462
v -28.97925 20.07379 39.49062
v -46.20621 20.07379 39.49062
v -29.27123 20.07379 -39.34462
v -46.49819 20.07379 -39.34462
v -29.27123 20.07379 -39.34462
v -29.27123 61.38929 -39.34462
v -28.97925 20.07379 39.49062
v -28.97925 61.38929 39.49062
v -11.75229 61.38929 39.34463
v -12.04427 61.38929 -39.34462
v -11.75229 20.07379 39.34463
v -12.04427 20.07379 -39.34462
v -12.04427 20.07379 -39.34462
v -12.04427 -20.94973 -39.34462
v -11.75229 20.07379 39.34463
v -11.75229 -20.94973 39.34463
v -12.04427 -20.94973 -39.34462
v -12.04427 -46.49819 -39.34462
v -11.75229 -20.94973 39.34463
v -11.75229 -46.49819 39.34463
v -71.90066 -48.54207 43.1404
v -71.90066 -61.68127 43.1404
v -72.33863 -48.54207 -42.41044
v -72.33863 -61.68127 -42.41044
v 0.2189865 -48.54207 42.70242
v 72.63062 -48.54207 42.11845
v 0.2189865 -61.68127 42.70242
v 72.63062 -61.68127 42.11845
v 72.33863 -48.54207 -43.43238
v 72.33863 -61.68127 -43.43238
v 72.63062 -48.54207 42.11845
v 72.63062 -61.68127 42.11845
v 0.07299805 -48.54207 -42.84841
v -72.33863 -48.54207 -42.41044
v 0.07299805 -61.68127 -42.84841
v -72.33863 -61.68127 -42.41044
v -71.90066 -61.68127 43.1404
v -71.90066 -48.54207 43.1404
v 0.2189865 -61.68127 42.70242
v 0.2189865 -48.54207 42.70242
v 72.33863 -61.68127 -43.43238
v 72.33863 -48.54207 -43.43238
v 0.07299805 -61.68127 -42.84841
v 0.07299805 -48.54207 -42.84841
v 18.02991 48.25008 -32.77502
v -17.88392 48.25008 -32.62903
v 18.02991 2.116875 -32.77502
v -17.88392 2.116875 -32.62903
v -17.73793 48.25008 32.04507
v 18.1759 48.25008 31.75308
v -17.73793 2.116875 32.04507
v 18.1759 2.116875 31.75308
vt 0.4941557 0.04039778
vt 0.4120099 0.04039778
vt 0.4941557 0.04822119
vt 0.4120099 0.04822119
vt 0.3103055 0.4941557
vt 0.3103055 0.263365
vt 0.263365 0.4941557
vt 0.263365 0.263365
vt 0.3103055 0.4941557
vt 0.3103055 0.263365
vt 0.263365 0.4941557
vt 0.263365 0.263365
vt 0.3103055 0.4941557
vt 0.3103055 0.462862
vt 0.263365 0.462862
vt 0.3103055 0.4315684
vt 0.263365 0.4315684
vt 0.263365 0.4941557
vt 0.4941557 0.04039778
vt 0.4120099 0.04039778
vt 0.4941557 0.04822119
vt 0.4120099 0.04822119
vt 0.490244 0.04039778
vt 0.4393918 0.04039778
vt 0.490244 0.04822119
vt 0.4393918 0.04822119
vt 0.4941557 0.04039778
vt 0.4120099 0.04039778
vt 0.4941557 0.04822119
vt 0.4120099 0.04822119
vt 0.490244 0.04039778
vt 0.4393918 0.04039778
vt 0.490244 0.04822119
vt 0.4393918 0.04822119
vt 0.4120099 0.04822119
vt 0.4393918 0.04822119
vt 0.4393918 0.04822119
vt 0.4120099 0.04822119
vt 0.2868353 0.462862
vt 0.2868353 0.2594533
vt 0.263365 0.462862
vt 0.263365 0.2594533
vt 0.3768045 0.462862
vt 0.3768045 0.2594533
vt 0.2516299 0.462862
vt 0.2516299 0.2594533
vt 0.4120099 0.1655724
vt 0.4120099 0.0599563
vt 0.4354801 0.1655724
vt 0.4550386 0.0599563
vt 0.4550386 0.1655724
vt 0.4354801 0.2516299
vt 0.4550386 0.2516299
vt 0.4354801 0.0599563
vt 0.4550386 0.0599563
vt 0.4120099 0.0599563
vt 0.4120099 0.1655724
vt 0.4550386 0.0599563
vt 0.4354801 0.1655724
vt 0.4550386 0.1655724
vt 0.2868353 0.462862
vt 0.2868353 0.2594533
vt 0.263365 0.462862
vt 0.263365 0.2594533
vt 0.4354801 0.2516299
vt 0.4550386 0.2516299
vt 0.4354801 0.0599563
vt 0.4550386 0.0599563
vt 0.4354801 0.0599563
vt 0.4550386 0.0599563
vt 0.4354801 0.2516299
vt 0.4550386 0.2516299
vt 0.263365 0.2594533
vt 0.263365 0.4941557
vt 0.2868353 0.2594533
vt 0.2868353 0.4941557
vt 0.4941557 0.0599563
vt 0.423745 0.0599563
vt 0.4941557 0.1225436
vt 0.423745 0.1225436
vt 0.4550386 0.0599563
vt 0.4550386 0.2516299
vt 0.4354801 0.0599563
vt 0.4354801 0.2516299
vt 0.2868353 0.4941557
vt 0.2868353 0.2594533
vt 0.263365 0.4941557
vt 0.263365 0.2594533
vt 0.2868353 0.4941557
vt 0.2868353 0.2594533
vt 0.263365 0.4941557
vt 0.263365 0.2594533
vt 0.3768045 0.2594533
vt 0.2516299 0.2594533
vt 0.3768045 0.4941557
vt 0.2516299 0.4941557
vt 0.2868353 0.490244
vt 0.2868353 0.2594533
vt 0.263365 0.490244
vt 0.263365 0.2594533
vt 0.4941557 0.0599563
vt 0.423745 0.0599563
vt 0.4941557 0.2516299
vt 0.423745 0.2516299
vt 0.423745 0.0599563
vt 0.423745 0.2516299
vt 0.4941557 0.0599563
vt 0.4941557 0.2516299
vt 0.4941557 0.0599563
vt 0.423745 0.0599563
vt 0.4941557 0.2516299
vt 0.423745 0.2516299
vt 0.4941557 0.0599563
vt 0.423745 0.0599563
vt 0.4941557 0.1655724
vt 0.423745 0.1655724
vt 0.263365 0.2594533
vt 0.2868353 0.2594533
vt 0.263365 0.462862
vt 0.2868353 0.462862
vt 0.2516299 0.2594533
vt 0.3768045 0.2594533
vt 0.2516299 0.462862
vt 0.3768045 0.462862
vt 0.4550386 0.1655724
vt 0.4550386 0.0599563
vt 0.4354801 0.1655724
vt 0.4120099 0.0599563
vt 0.4120099 0.1655724
vt 0.4550386 0.0599563
vt 0.4550386 0.2516299
vt 0.4354801 0.0599563
vt 0.4354801 0.2516299
vt 0.4550386 0.1655724
vt 0.4354801 0.1655724
vt 0.4550386 0.0599563
vt 0.4120099 0.1655724
vt 0.4120099 0.0599563
vt 0.263365 0.2594533
vt 0.2868353 0.2594533
vt 0.263365 0.462862
vt 0.2868353 0.462862
vt 0.4550386 0.0599563
vt 0.4550386 0.2516299
vt 0.4354801 0.0599563
vt 0.4354801 0.2516299
vt 0.4550386 0.2516299
vt 0.4550386 0.0599563
vt 0.4354801 0.2516299
vt 0.4354801 0.0599563
vt 0.2868353 0.4941557
vt 0.263365 0.4941557
vt 0.2868353 0.2594533
vt 0.263365 0.2594533
vt 0.423745 0.1225436
vt 0.423745 0.0599563
vt 0.4941557 0.1225436
vt 0.4941557 0.0599563
vt 0.4354801 0.2516299
vt 0.4550386 0.2516299
vt 0.4354801 0.0599563
vt 0.4550386 0.0599563
vt 0.263365 0.2594533
vt 0.2868353 0.2594533
vt 0.263365 0.4941557
vt 0.2868353 0.4941557
vt 0.263365 0.2594533
vt 0.2868353 0.2594533
vt 0.263365 0.4941557
vt 0.2868353 0.4941557
vt 0.2516299 0.4941557
vt 0.2516299 0.2594533
vt 0.3768045 0.4941557
vt 0.3768045 0.2594533
vt 0.263365 0.2594533
vt 0.2868353 0.2594533
vt 0.263365 0.490244
vt 0.2868353 0.490244
vt 0.423745 0.2516299
vt 0.423745 0.0599563
vt 0.4941557 0.2516299
vt 0.4941557 0.0599563
vt 0.4941557 0.2516299
vt 0.423745 0.2516299
vt 0.4941557 0.0599563
vt 0.423745 0.0599563
vt 0.423745 0.2516299
vt 0.423745 0.0599563
vt 0.4941557 0.2516299
vt 0.4941557 0.0599563
vt 0.423745 0.1655724
vt 0.423745 0.0599563
vt 0.4941557 0.1655724
vt 0.4941557 0.0599563
vt 0.8735912 0.7445049
vt 0.8735912 0.6271537
vt 0.5019791 0.7445049
vt 0.5019791 0.6271537
vt 0.3768045 0.7445049
vt 0.001280716 0.7445049
vt 0.3768045 0.6271537
vt 0.001280716 0.6271537
vt 0.8735912 0.7445049
vt 0.8735912 0.6271537
vt 0.5019791 0.7445049
vt 0.5019791 0.6271537
vt 0.9987658 0.8657678
vt 0.8775029 0.8657678
vt 0.9987658 0.7484166
vt 0.8775029 0.7484166
vt 0.001280716 0.6271537
vt 0.001280716 0.7445049
vt 0.3768045 0.6271537
vt 0.3768045 0.7445049
vt 0.8775029 0.7484166
vt 0.8775029 0.8657678
vt 0.9987658 0.7484166
vt 0.9987658 0.8657678
vt 0.263365 0.4941557
vt 0.3103055 0.4941557
vt 0.263365 0.263365
vt 0.3103055 0.263365
vt 0.263365 0.4941557
vt 0.3103055 0.4941557
vt 0.263365 0.263365
vt 0.3103055 0.263365
vn 0.01587099 0.999874 -0.000345267
vn 0.01587099 0.999874 -0.000345267
vn 0.01587099 0.999874 -0.000345267
vn 0.01587099 0.999874 -0.000345267
vn 0.04761302 -0.04761302 -0.9977304
vn 0.04761302 -0.04761302 -0.9977304
vn 0.04761302 -0.04761302 -0.9977304
vn 0.04761302 -0.04761302 -0.9977304
vn 0.04761302 -0.04761302 0.9977304
vn 0.04761302 -0.04761302 0.9977304
vn 0.04761302 -0.04761302 0.9977304
vn 0.04761302 -0.04761302 0.9977304
vn 0.01587099 0.999874 -0.000345267
vn 0.01587099 0.999874 -0.000345267
vn 0.01587099 0.999874 -0.000345267
vn 0.01587099 0.999874 -0.000345267
vn 0.01587099 0.999874 -0.000345267
vn 0.01587099 0.999874 -0.000345267
vn 0.04761302 -0.04761302 -0.9977304
vn 0.04761302 -0.04761302 -0.9977304
vn 0.04761302 -0.04761302 -0.9977304
vn 0.04761302 -0.04761302 -0.9977304
vn -0.968132 -0.04761302 0.2458728
vn -0.968132 -0.04761302 0.2458728
vn -0.968132 -0.04761302 0.2458728
vn -0.968132 -0.04761302 0.2458728
vn 0.04761302 -0.04761302 0.9977304
vn 0.04761302 -0.04761302 0.9977304
vn 0.04761302 -0.04761302 0.9977304
vn 0.04761302 -0.04761302 0.9977304
vn 0.999874 -0.01587099 -0.000346655
vn 0.999874 -0.01587099 -0.000346655
vn 0.999874 -0.01587099 -0.000346655
vn 0.999874 -0.01587099 -0.000346655
vn 0.01587099 -0.999874 -0.000345267
vn 0.01587099 -0.999874 -0.000345267
vn 0.01587099 -0.999874 -0.000345267
vn 0.01587099 -0.999874 -0.000345267
vn 0.04761302 -0.04761302 -0.9977304
vn 0.04761302 -0.04761302 -0.9977304
vn 0.04761302 -0.04761302 -0.9977304
vn 0.04761302 -0.04761302 -0.9977304
vn 0.999874 -0.01587099 -0.000346655
vn 0.999874 -0.01587099 -0.000346655
vn 0.999874 -0.01587099 -0.000346655
vn 0.999874 -0.01587099 -0.000346655
vn 0.04761302 -0.04761302 0.9977304
vn 0.04761302 -0.04761302 0.9977304
vn 0.04761302 -0.04761302 0.9977304
vn 0.04761302 -0.04761302 0.9977304
vn 0.04761302 -0.04761302 0.9977304
vn 0.04761302 -0.04761302 -0.9977304
vn 0.04761302 -0.04761302 -0.9977304
vn 0.04761302 -0.04761302 -0.9977304
vn 0.04761302 -0.04761302 -0.9977304
vn 0.04761302 -0.04761302 -0.9977304
vn 0.04761302 -0.04761302 -0.9977304
vn 0.04761302 -0.04761302 -0.9977304
vn 0.04761302 -0.04761302 -0.9977304
vn 0.04761302 -0.04761302 -0.9977304
vn 0.04761302 -0.04761302 0.9977304
vn 0.04761302 -0.04761302 0.9977304
vn 0.04761302 -0.04761302 0.9977304
vn 0.04761302 -0.04761302 0.9977304
vn 0.04761302 -0.04761302 -0.9977304
vn 0.04761302 -0.04761302 -0.9977304
vn 0.04761302 -0.04761302 -0.9977304
vn 0.04761302 -0.04761302 -0.9977304
vn 0.04761302 -0.04761302 0.9977304
vn 0.04761302 -0.04761302 0.9977304
vn 0.04761302 -0.04761302 0.9977304
vn 0.04761302 -0.04761302 0.9977304
vn 0.04761302 -0.04761302 -0.9977304
vn 0.04761302 -0.04761302 -0.9977304
vn 0.04761302 -0.04761302 -0.9977304
vn 0.04761302 -0.04761302 -0.9977304
vn 0.01587099 0.999874 -0.000345267
vn 0.01587099 0.999874 -0.000345267
vn 0.01587099 0.999874 -0.000345267
vn 0.01587099 0.999874 -0.000345267
vn 0.04761302 -0.04761302 0.9977304
vn 0.04761302 -0.04761302 0.9977304
vn 0.04761302 -0.04761302 0.9977304
vn 0.04761302 -0.04761302 0.9977304
vn 0.04761302 -0.04761302 0.9977304
vn 0.04761302 -0.04761302 0.9977304
vn 0.04761302 -0.04761302 0.9977304
vn 0.04761302 -0.04761302 0.9977304
vn 0.01587099 0.999874 -0.000345267
vn 0.01587099 0.999874 -0.000345267
vn 0.01587099 0.999874 -0.000345267
vn 0.01587099 0.999874 -0.000345267
vn 0.999874 -0.01587099 -0.000346655
vn 0.999874 -0.01587099 -0.000346655
vn 0.999874 -0.01587099 -0.000346655
vn 0.999874 -0.01587099 -0.000346655
vn 0.01587099 0.999874 -0.000345267
vn 0.01587099 0.999874 -0.000345267
vn 0.01587099 0.999874 -0.000345267
vn 0.01587099 0.999874 -0.000345267
vn 0.999874 -0.01587099 -0.000346655
vn 0.999874 -0.01587099 -0.000346655
vn 0.999874 -0.01587099 -0.000346655
vn 0.999874 -0.01587099 -0.000346655
vn -0.968132 -0.04761302 0.2458728
vn -0.968132 -0.04761302 0.2458728
vn -0.968132 -0.04761302 0.2458728
vn -0.968132 -0.04761302 0.2458728
vn -0.968132 -0.04761302 0.2458728
vn -0.968132 -0.04761302 0.2458728
vn -0.968132 -0.04761302 0.2458728
vn -0.968132 -0.04761302 0.2458728
vn -0.968132 -0.04761302 0.2458728
vn -0.968132 -0.04761302 0.2458728
vn -0.968132 -0.04761302 0.2458728
vn -0.968132 -0.04761302 0.2458728
vn 0.04761302 -0.04761302 -0.9977304
vn 0.04761302 -0.04761302 -0.9977304
vn 0.04761302 -0.04761302 -0.9977304
vn 0.04761302 -0.04761302 -0.9977304
vn -0.968132 -0.04761302 0.2458728
vn -0.968132 -0.04761302 0.2458728
vn -0.968132 -0.04761302 0.2458728
vn -0.968132 -0.04761302 0.2458728
vn 0.04761302 -0.04761302 0.9977304
vn 0.04761302 -0.04761302 0.9977304
vn 0.04761302 -0.04761302 0.9977304
vn 0.04761302 -0.04761302 0.9977304
vn 0.04761302 -0.04761302 0.9977304
vn 0.04761302 -0.04761302 -0.9977304
vn 0.04761302 -0.04761302 -0.9977304
vn 0.04761302 -0.04761302 -0.9977304
vn 0.04761302 -0.04761302 -0.9977304
vn 0.04761302 -0.04761302 -0.9977304
vn 0.04761302 -0.04761302 -0.9977304
vn 0.04761302 -0.04761302 -0.9977304
vn 0.04761302 -0.04761302 -0.9977304
vn 0.04761302 -0.04761302 -0.9977304
vn 0.04761302 -0.04761302 0.9977304
vn 0.04761302 -0.04761302 0.9977304
vn 0.04761302 -0.04761302 0.9977304
vn 0.04761302 -0.04761302 0.9977304
vn 0.04761302 -0.04761302 -0.9977304
vn 0.04761302 -0.04761302 -0.9977304
vn 0.04761302 -0.04761302 -0.9977304
vn 0.04761302 -0.04761302 -0.9977304
vn 0.04761302 -0.04761302 0.9977304
vn 0.04761302 -0.04761302 0.9977304
vn 0.04761302 -0.04761302 0.9977304
vn 0.04761302 -0.04761302 0.9977304
vn 0.04761302 -0.04761302 -0.9977304
vn 0.04761302 -0.04761302 -0.9977304
vn 0.04761302 -0.04761302 -0.9977304
vn 0.04761302 -0.04761302 -0.9977304
vn 0.01587099 0.999874 -0.000345267
vn 0.01587099 0.999874 -0.000345267
vn 0.01587099 0.999874 -0.000345267
vn 0.01587099 0.999874 -0.000345267
vn 0.04761302 -0.04761302 0.9977304
vn 0.04761302 -0.04761302 0.9977304
vn 0.04761302 -0.04761302 0.9977304
vn 0.04761302 -0.04761302 0.9977304
vn 0.04761302 -0.04761302 0.9977304
vn 0.04761302 -0.04761302 0.9977304
vn 0.04761302 -0.04761302 0.9977304
vn 0.04761302 -0.04761302 0.9977304
vn 0.01587099 0.999874 -0.000345267
vn 0.01587099 0.999874 -0.000345267
vn 0.01587099 0.999874 -0.000345267
vn 0.01587099 0.999874 -0.000345267
vn -0.968132 -0.04761302 0.2458728
vn -0.968132 -0.04761302 0.2458728
vn -0.968132 -0.04761302 0.2458728
vn -0.968132 -0.04761302 0.2458728
vn 0.01587099 0.999874 -0.000345267
vn 0.01587099 0.999874 -0.000345267
vn 0.01587099 0.999874 -0.000345267
vn 0.01587099 0.999874 -0.000345267
vn -0.968132 -0.04761302 0.2458728
vn -0.968132 -0.04761302 0.2458728
vn -0.968132 -0.04761302 0.2458728
vn -0.968132 -0.04761302 0.2458728
vn 0.999874 -0.01587099 -0.000346655
vn 0.999874 -0.01587099 -0.000346655
vn 0.999874 -0.01587099 -0.000346655
vn 0.999874 -0.01587099 -0.000346655
vn 0.999874 -0.01587099 -0.000346655
vn 0.999874 -0.01587099 -0.000346655
vn 0.999874 -0.01587099 -0.000346655
vn 0.999874 -0.01587099 -0.000346655
vn 0.999874 -0.01587099 -0.000346655
vn 0.999874 -0.01587099 -0.000346655
vn 0.999874 -0.01587099 -0.000346655
vn 0.999874 -0.01587099 -0.000346655
vn -0.968132 -0.04761302 0.2458728
vn -0.968132 -0.04761302 0.2458728
vn -0.968132 -0.04761302 0.2458728
vn -0.968132 -0.04761302 0.2458728
vn 0.04761302 -0.04761302 0.9977304
vn 0.04761302 -0.04761302 0.9977304
vn 0.04761302 -0.04761302 0.9977304
vn 0.04761302 -0.04761302 0.9977304
vn 0.999874 -0.01587099 -0.000346655
vn 0.999874 -0.01587099 -0.000346655
vn 0.999874 -0.01587099 -0.000346655
vn 0.999874 -0.01587099 -0.000346655
vn 0.04761302 -0.04761302 -0.9977304
vn 0.04761302 -0.04761302 -0.9977304
vn 0.04761302 -0.04761302 -0.9977304
vn 0.04761302 -0.04761302 -0.9977304
vn 0.04761302 -0.04761302 0.9977304
vn 0.04761302 -0.04761302 0.9977304
vn 0.04761302 -0.04761302 0.9977304
vn 0.04761302 -0.04761302 0.9977304
vn 0.04761302 -0.04761302 -0.9977304
vn 0.04761302 -0.04761302 -0.9977304
vn 0.04761302 -0.04761302 -0.9977304
vn 0.04761302 -0.04761302 -0.9977304
vn 0.04761302 -0.04761302 -0.9977304
vn 0.04761302 -0.04761302 -0.9977304
vn 0.04761302 -0.04761302 -0.9977304
vn 0.04761302 -0.04761302 -0.9977304
vn 0.04761302 -0.04761302 0.9977304
vn 0.04761302 -0.04761302 0.9977304
vn 0.04761302 -0.04761302 0.9977304
vn 0.04761302 -0.04761302 0.9977304
g DSJ_GTA_gaoLou_3_0
f 3/3/3 2/2/2 1/1/1
f 4/4/4 2/2/2 3/3/3
f 7/7/7 6/6/6 5/5/5
f 8/8/8 6/6/6 7/7/7
f 11/11/11 10/10/10 9/9/9
f 12/12/12 10/10/10 11/11/11
f 15/15/15 14/14/14 13/13/13
f 16/16/16 14/14/14 15/15/15
f 17/17/17 16/16/16 15/15/15
f 15/15/15 13/13/13 18/18/18
f 21/21/21 20/20/20 19/19/19
f 22/22/22 20/20/20 21/21/21
f 25/25/25 24/24/24 23/23/23
f 26/26/26 24/24/24 25/25/25
f 29/29/29 28/28/28 27/27/27
f 30/30/30 28/28/28 29/29/29
f 33/33/33 32/32/32 31/31/31
f 34/34/34 32/32/32 33/33/33
f 37/37/37 36/36/36 35/35/35
f 38/38/38 36/36/36 37/37/37
f 41/41/41 40/40/40 39/39/39
f 42/42/42 40/40/40 41/41/41
f 45/45/45 44/44/44 43/43/43
f 46/46/46 44/44/44 45/45/45
f 49/49/49 48/48/48 47/47/47
f 50/50/50 48/48/48 49/49/49
f 51/51/51 50/50/50 49/49/49
f 54/54/54 53/53/53 52/52/52
f 55/55/55 53/53/53 54/54/54
f 58/58/58 57/57/57 56/56/56
f 59/59/59 57/57/57 58/58/58
f 60/60/60 59/59/59 58/58/58
f 63/63/63 62/62/62 61/61/61
f 64/64/64 62/62/62 63/63/63
f 67/67/67 66/66/66 65/65/65
f 68/68/68 66/66/66 67/67/67
f 71/71/71 70/70/70 69/69/69
f 72/72/72 70/70/70 71/71/71
f 75/75/75 74/74/74 73/73/73
f 76/76/76 74/74/74 75/75/75
f 79/79/79 78/78/78 77/77/77
f 80/80/80 78/78/78 79/79/79
f 83/83/83 82/82/82 81/81/81
f 84/84/84 82/82/82 83/83/83
f 87/87/87 86/86/86 85/85/85
f 88/88/88 86/86/86 87/87/87
f 91/91/91 90/90/90 89/89/89
f 92/92/92 90/90/90 91/91/91
f 95/95/95 94/94/94 93/93/93
f 96/96/96 94/94/94 95/95/95
f 99/99/99 98/98/98 97/97/97
f 100/100/100 98/98/98 99/99/99
f 103/103/103 102/102/102 101/101/101
f 104/104/104 102/102/102 103/103/103
f 107/107/107 106/106/106 105/105/105
f 108/108/108 106/106/106 107/107/107
f 111/111/111 110/110/110 109/109/109
f 112/112/112 110/110/110 111/111/111
f 115/115/115 114/114/114 113/113/113
f 116/116/116 114/114/114 115/115/115
f 119/119/119 118/118/118 117/117/117
f 120/120/120 118/118/118 119/119/119
f 123/123/123 122/122/122 121/121/121
f 124/124/124 122/122/122 123/123/123
f 127/127/127 126/126/126 125/125/125
f 128/128/128 126/126/126 127/127/127
f 129/129/129 128/128/128 127/127/127
f 132/132/132 131/131/131 130/130/130
f 133/133/133 131/131/131 132/132/132
f 136/136/136 135/135/135 134/134/134
f 137/137/137 135/135/135 136/136/136
f 138/138/138 137/137/137 136/136/136
f 141/141/141 140/140/140 139/139/139
f 142/142/142 140/140/140 141/141/141
f 145/145/145 144/144/144 143/143/143
f 146/146/146 144/144/144 145/145/145
f 149/149/149 148/148/148 147/147/147
f 150/150/150 148/148/148 149/149/149
f 153/153/153 152/152/152 151/151/151
f 154/154/154 152/152/152 153/153/153
f 157/157/157 156/156/156 155/155/155
f 158/158/158 156/156/156 157/157/157
f 161/161/161 160/160/160 159/159/159
f 162/162/162 160/160/160 161/161/161
f 165/165/165 164/164/164 163/163/163
f 166/166/166 164/164/164 165/165/165
f 169/169/169 168/168/168 167/167/167
f 170/170/170 168/168/168 169/169/169
f 173/173/173 172/172/172 171/171/171
f 174/174/174 172/172/172 173/173/173
f 177/177/177 176/176/176 175/175/175
f 178/178/178 176/176/176 177/177/177
f 181/181/181 180/180/180 179/179/179
f 182/182/182 180/180/180 181/181/181
f 185/185/185 184/184/184 183/183/183
f 186/186/186 184/184/184 185/185/185
f 189/189/189 188/188/188 187/187/187
f 190/190/190 188/188/188 189/189/189
f 193/193/193 192/192/192 191/191/191
f 194/194/194 192/192/192 193/193/193
f 197/197/197 196/196/196 195/195/195
f 198/198/198 196/196/196 197/197/197
f 201/201/201 200/200/200 199/199/199
f 202/202/202 200/200/200 201/201/201
f 205/205/205 204/204/204 203/203/203
f 206/206/206 204/204/204 205/205/205
f 209/209/209 208/208/208 207/207/207
f 210/210/210 208/208/208 209/209/209
f 213/213/213 212/212/212 211/211/211
f 214/214/214 212/212/212 213/213/213
f 217/217/217 216/216/216 215/215/215
f 218/218/218 216/216/216 217/217/217
f 221/221/221 220/220/220 219/219/219
f 222/222/222 220/220/220 221/221/221
f 225/225/225 224/224/224 223/223/223
f 226/226/226 224/224/224 225/225/225
