g DSJ_GTA_diLou_28
v 8.062185 10.14407 -6.674264
v 8.062185 10.14407 2.592146
v -4.674026 10.06242 -6.674264
v -4.674026 10.10324 2.592146
v 20.88004 -10.06242 2.592146
v 20.88004 -6.429338 2.592146
v 20.88004 -10.10324 -6.633443
v 20.88004 -6.429338 -6.633443
v 8.184649 -10.18489 -6.633443
v 8.143827 -6.51098 -6.633443
v -4.551563 -10.22571 -6.592622
v -4.551563 -6.551801 -6.633443
v -17.24696 -10.30735 -6.592622
v -17.28778 -6.633443 -6.592622
v -17.24696 -10.30735 2.632967
v -17.28778 -6.592622 2.592146
v -4.551563 -10.22571 2.592146
v -4.551563 -6.551801 2.592146
v 8.184649 -10.14407 2.592146
v 8.143827 -6.51098 2.592146
v -4.674026 10.06242 -6.674264
v -4.674026 10.10324 2.592146
v -17.36942 9.980782 -6.674264
v -17.36942 10.0216 2.592146
v 8.062185 10.14407 2.592146
v 8.062185 10.14407 -6.674264
v 20.83922 10.22571 2.592146
v 20.7984 10.22571 -6.674264
v -4.551563 -10.22571 -6.592622
v -4.551563 -6.551801 -6.633443
v -17.24696 -10.30735 -6.592622
v -17.28778 -6.633443 -6.592622
v 8.062185 10.14407 -6.674264
v 8.143827 -6.51098 -6.633443
v 20.7984 10.22571 -6.674264
v 20.88004 -6.429338 -6.633443
v 8.184649 -10.14407 2.592146
v 8.143827 -6.51098 2.592146
v 20.88004 -10.06242 2.592146
v 20.88004 -6.429338 2.592146
v -4.674026 10.10324 2.592146
v -4.551563 -6.551801 2.592146
v -17.36942 10.0216 2.592146
v -17.28778 -6.592622 2.592146
v 20.88004 -6.429338 -6.633443
v 20.88004 -6.429338 2.592146
v 20.7984 10.22571 -6.674264
v 20.83922 10.22571 2.592146
v -4.551563 -6.551801 -6.633443
v 8.143827 -6.51098 -6.633443
v -4.674026 10.06242 -6.674264
v 8.062185 10.14407 -6.674264
v -17.28778 -6.592622 2.592146
v -17.28778 -6.633443 -6.592622
v -17.36942 10.0216 2.592146
v -17.36942 9.980782 -6.674264
v 8.143827 -6.51098 2.592146
v -4.551563 -6.551801 2.592146
v 8.062185 10.14407 2.592146
v -4.674026 10.10324 2.592146
v -17.28778 -6.633443 -6.592622
v -4.551563 -6.551801 -6.633443
v -17.36942 9.980782 -6.674264
v -4.674026 10.06242 -6.674264
v 20.88004 -6.429338 -6.633443
v 8.143827 -6.51098 -6.633443
v 20.88004 -10.10324 -6.633443
v 8.184649 -10.18489 -6.633443
v 20.88004 -6.429338 2.592146
v 8.143827 -6.51098 2.592146
v 20.83922 10.22571 2.592146
v 8.062185 10.14407 2.592146
v -17.28778 -6.592622 2.592146
v -4.551563 -6.551801 2.592146
v -17.24696 -10.30735 2.632967
v -4.551563 -10.22571 2.592146
v 20.7984 -4.061708 3.490211
v 20.7984 -4.061708 2.551325
v 20.7984 -6.715086 3.490211
v 20.7984 -6.715086 2.551325
v -14.75686 -4.265814 2.592146
v -14.75686 -4.265814 3.490211
v -14.75686 -6.919191 2.592146
v -14.75686 -6.919191 3.490211
v -11.1646 -6.87837 3.490211
v -11.1646 -6.87837 2.592146
v -14.75686 -6.919191 3.490211
v -14.75686 -6.919191 2.592146
v -11.20542 -4.265814 2.592146
v -11.20542 -4.265814 3.490211
v -14.75686 -4.265814 2.592146
v -14.75686 -4.265814 3.490211
v -2.183935 -0.3469791 3.490211
v -2.183935 -0.3469791 2.551325
v 6.225231 -0.3061581 3.490211
v 6.225231 -0.3061581 2.551325
v -8.919432 -7.939721 3.490211
v -8.919432 -7.939721 2.592146
v -11.1646 -6.87837 3.490211
v -11.1646 -6.87837 2.592146
v -8.919432 -7.939721 2.592146
v -8.919432 -7.939721 3.490211
v -6.633444 -6.87837 2.592146
v -6.633444 -6.837549 3.490211
v -8.960253 -3.245285 2.592146
v -8.960253 -3.245285 3.490211
v -11.20542 -4.265814 2.592146
v -11.20542 -4.265814 3.490211
v -8.960253 -3.245285 3.490211
v -8.960253 -3.245285 2.592146
v -6.633444 -4.224993 3.490211
v -6.633444 -4.224993 2.592146
v -11.1646 -6.87837 3.490211
v -11.20542 -4.265814 3.490211
v -8.919432 -7.939721 3.490211
v -8.960253 -3.245285 3.490211
v -6.633444 -6.837549 3.490211
v -6.633444 -4.224993 3.490211
v 9.858317 -6.755907 2.551325
v 9.858317 -6.755907 3.490211
v 17.12449 -6.715086 2.551325
v 17.12449 -6.715086 3.490211
v 2.102291 -6.796728 3.490211
v 2.102291 -6.796728 2.592146
v -6.633444 -6.837549 3.490211
v -6.633444 -6.87837 2.592146
v 9.858317 -4.143351 3.490211
v 9.858317 -4.143351 2.551325
v 12.02184 -2.632967 3.490211
v 12.02184 -2.632967 2.551325
v -2.143112 -4.224993 2.551325
v -2.143112 -4.224993 3.490211
v -6.633444 -4.224993 2.592146
v -6.633444 -4.224993 3.490211
v 15.04261 -2.632967 3.490211
v 17.12449 -4.10253 3.490211
v 17.12449 -6.715086 3.490211
v 12.02184 -2.632967 3.490211
v 9.858317 -6.755907 3.490211
v 9.858317 -4.143351 3.490211
v -2.183935 -0.3469791 2.551325
v -2.183935 -0.3469791 3.490211
v -2.143112 -4.224993 2.551325
v -2.143112 -4.224993 3.490211
v -2.183935 -0.3469791 3.490211
v 6.225231 -0.3061581 3.490211
v -2.143112 -4.224993 3.490211
v 6.266052 -4.143351 3.490211
v 6.225231 -0.3061581 3.490211
v 6.225231 -0.3061581 2.551325
v 6.266052 -4.143351 3.490211
v 6.266052 -4.143351 2.551325
v 17.12449 -6.715086 2.551325
v 17.12449 -6.715086 3.490211
v 20.7984 -6.715086 2.551325
v 20.7984 -6.715086 3.490211
v 9.858317 -6.755907 3.490211
v 9.858317 -6.755907 2.551325
v 2.102291 -6.796728 3.490211
v 2.102291 -6.796728 2.592146
v 17.12449 -4.10253 3.490211
v 17.12449 -4.10253 2.551325
v 20.7984 -4.061708 3.490211
v 20.7984 -4.061708 2.551325
v 15.04261 -2.632967 3.490211
v 15.04261 -2.632967 2.551325
v 17.12449 -4.10253 3.490211
v 17.12449 -4.10253 2.551325
v 9.858317 -4.143351 2.551325
v 9.858317 -4.143351 3.490211
v 6.266052 -4.143351 2.551325
v 6.266052 -4.143351 3.490211
v 12.02184 -2.632967 2.551325
v 15.04261 -2.632967 2.551325
v 12.02184 -2.632967 3.490211
v 15.04261 -2.632967 3.490211
v -18.18584 -6.919191 0.7143707
v -17.20613 -6.919191 0.6735497
v -18.18584 -6.960012 -6.592622
v -17.24696 -6.960012 -6.592622
v -17.24696 -4.306635 0.6735497
v -18.18584 -4.306635 0.6735497
v -17.24696 -4.306635 -6.592622
v -18.22666 -4.347456 -6.592622
v -18.22666 -4.347456 -6.592622
v -18.18584 -6.960012 -6.592622
v -17.24696 -4.306635 -6.592622
v -17.24696 -6.960012 -6.592622
v -20.83922 -7.858079 0.346981
v -17.20613 -7.858079 -1.7349
v -19.69622 -5.327165 1.285868
v -17.28778 -5.286344 -0.1428738
v -20.83922 -7.858079 4.551563
v -20.83922 -7.858079 0.346981
v -19.69622 -5.327165 4.10253
v -19.69622 -5.327165 1.285868
v -17.20613 -7.858079 6.633444
v -20.83922 -7.858079 4.551563
v -17.28778 -5.286344 5.449629
v -19.69622 -5.327165 4.10253
v -13.53223 -7.858079 4.551563
v -17.20613 -7.858079 6.633444
v -14.87933 -5.286344 4.10253
v -17.28778 -5.286344 5.449629
v -13.53223 -7.858079 2.469683
v -13.53223 -7.858079 4.551563
v -14.87933 -5.286344 2.632967
v -14.87933 -5.286344 4.10253
v -17.28778 -3.980066 -0.1428738
v -17.24696 -1.489973 -1.7349
v -19.69622 -3.980066 1.285868
v -20.88004 -1.530794 0.30616
v -19.69622 -3.980066 1.285868
v -20.88004 -1.530794 0.30616
v -19.69622 -3.980066 4.10253
v -20.83922 -1.489973 4.551563
v -19.69622 -3.980066 4.10253
v -20.83922 -1.489973 4.551563
v -17.28778 -3.980066 5.449629
v -17.24696 -1.489973 6.633444
v -17.28778 -3.980066 5.449629
v -17.24696 -1.489973 6.633444
v -14.87933 -3.980066 4.020887
v -13.57305 -1.449152 4.551563
v -14.87933 -3.980066 4.020887
v -13.57305 -1.449152 4.551563
v -14.87933 -3.980066 2.632967
v -13.57305 -1.449152 2.428862
v -17.24696 -0.4286213 6.102768
v -20.39019 -0.4694424 4.306637
v -14.02208 -0.4286213 4.306637
v -17.24696 -0.4694424 -1.204226
v -14.02208 -0.4286213 2.469683
v -20.39019 -0.4694424 0.6327286
vt 0.4940899 0.9880381
vt 0.4940899 0.9455894
vt 0.2471159 0.9880381
vt 0.2471159 0.9455894
vt 0.4632182 0.2509749
vt 0.4632182 0.3358722
vt 0.6986153 0.2509749
vt 0.6986153 0.3358722
vt 0.4632182 0.2509749
vt 0.4632182 0.3397312
vt 0.6986153 0.2509749
vt 0.6986153 0.3397312
vt 0.4632182 0.2509749
vt 0.4632182 0.3358722
vt 0.6986153 0.2509749
vt 0.6986153 0.3358722
vt 0.4632182 0.2509749
vt 0.4632182 0.3358722
vt 0.6986153 0.2509749
vt 0.6986153 0.3358722
vt 0.4940899 0.9880381
vt 0.4940899 0.9455894
vt 0.2471159 0.9880381
vt 0.2471159 0.9455894
vt 0.2471159 0.9455894
vt 0.2471159 0.9880381
vt 0.4940899 0.9455894
vt 0.4940899 0.9880381
vt 0.4632182 0.2509749
vt 0.4632182 0.3397312
vt 0.6986153 0.2509749
vt 0.6986153 0.3397312
vt 0.490231 0.9841791
vt 0.490231 0.7526409
vt 0.2509749 0.9841791
vt 0.2509749 0.7526409
vt 0.4632182 0.2509749
vt 0.4632182 0.3358722
vt 0.6986153 0.2509749
vt 0.6986153 0.3358722
vt 0.490231 0.9880381
vt 0.490231 0.7487819
vt 0.2471159 0.9880381
vt 0.2471159 0.7487819
vt 0.4940899 0.7487819
vt 0.2509749 0.7487819
vt 0.4940899 0.9880381
vt 0.2509749 0.9880381
vt 0.490231 0.7526409
vt 0.2509749 0.7526409
vt 0.490231 0.9841791
vt 0.2509749 0.9841791
vt 0.4940899 0.7487819
vt 0.2509749 0.7487819
vt 0.4940899 0.9880381
vt 0.2509749 0.9880381
vt 0.490231 0.7487819
vt 0.2471159 0.7487819
vt 0.490231 0.9880381
vt 0.2471159 0.9880381
vt 0.490231 0.7526409
vt 0.2509749 0.7526409
vt 0.490231 0.9841791
vt 0.2509749 0.9841791
vt 0.4632182 0.3397312
vt 0.6986153 0.3397312
vt 0.4632182 0.2509749
vt 0.6986153 0.2509749
vt 0.490231 0.7487819
vt 0.2471159 0.7487819
vt 0.490231 0.9880381
vt 0.2471159 0.9880381
vt 0.4632182 0.3358722
vt 0.6986153 0.3358722
vt 0.4632182 0.2509749
vt 0.6986153 0.2509749
vt 0.3050004 0.2664107
vt 0.2857056 0.2664107
vt 0.3050004 0.4747951
vt 0.2857056 0.4747951
vt 0.3050004 0.2664107
vt 0.2857056 0.2664107
vt 0.3050004 0.4747951
vt 0.2857056 0.4747951
vt 0.3050004 0.2664107
vt 0.2857056 0.2664107
vt 0.3050004 0.4747951
vt 0.2857056 0.4747951
vt 0.2857056 0.4747951
vt 0.3050004 0.4747951
vt 0.2857056 0.2664107
vt 0.3050004 0.2664107
vt 0.2857056 0.4747951
vt 0.3011415 0.4747951
vt 0.2857056 0.2664107
vt 0.3011415 0.2664107
vt 0.3050004 0.2664107
vt 0.2857056 0.2664107
vt 0.3050004 0.4747951
vt 0.2857056 0.4747951
vt 0.3050004 0.2664107
vt 0.2857056 0.2664107
vt 0.3050004 0.4747951
vt 0.2857056 0.4747951
vt 0.2857056 0.4747951
vt 0.3050004 0.4747951
vt 0.2857056 0.2664107
vt 0.3050004 0.2664107
vt 0.3050004 0.2664107
vt 0.2857056 0.2664107
vt 0.3050004 0.4747951
vt 0.2857056 0.4747951
vt 0.4979489 0.5596924
vt 0.4979489 0.6793205
vt 0.617577 0.5095258
vt 0.617577 0.7294871
vt 0.737205 0.5596924
vt 0.737205 0.6793205
vt 0.2857056 0.4747951
vt 0.3050004 0.4747951
vt 0.2857056 0.2664107
vt 0.3050004 0.2664107
vt 0.2857056 0.4747951
vt 0.3050004 0.4747951
vt 0.2857056 0.2664107
vt 0.3050004 0.2664107
vt 0.3050004 0.2664107
vt 0.2857056 0.2664107
vt 0.3050004 0.4747951
vt 0.2857056 0.4747951
vt 0.2857056 0.4747951
vt 0.3050004 0.4747951
vt 0.2857056 0.2664107
vt 0.3050004 0.2664107
vt 0.9185766 0.864551
vt 0.995756 0.8066665
vt 0.995756 0.7487819
vt 0.8221024 0.864551
vt 0.7449229 0.7487819
vt 0.7449229 0.8066665
vt 0.3011415 0.2664107
vt 0.2857056 0.2664107
vt 0.3011415 0.4747951
vt 0.2857056 0.4747951
vt 0.4979489 0.9880381
vt 0.7449229 0.9880381
vt 0.4979489 0.7487819
vt 0.7449229 0.7487819
vt 0.2857056 0.4709361
vt 0.3011415 0.4709361
vt 0.2857056 0.2664107
vt 0.3011415 0.2664107
vt 0.2857056 0.4747951
vt 0.3050004 0.4747951
vt 0.2857056 0.2664107
vt 0.3050004 0.2664107
vt 0.3050004 0.2664107
vt 0.2857056 0.2664107
vt 0.3050004 0.4747951
vt 0.2857056 0.4747951
vt 0.3050004 0.2664107
vt 0.2857056 0.2664107
vt 0.3050004 0.4747951
vt 0.2857056 0.4747951
vt 0.3050004 0.2664107
vt 0.2857056 0.2664107
vt 0.3050004 0.4747951
vt 0.2857056 0.4747951
vt 0.2857056 0.4747951
vt 0.3050004 0.4747951
vt 0.2857056 0.2664107
vt 0.3050004 0.2664107
vt 0.2857056 0.2664107
vt 0.2857056 0.4747951
vt 0.3050004 0.2664107
vt 0.3050004 0.4747951
vt 0.2857056 0.4709361
vt 0.3050004 0.4709361
vt 0.2857056 0.2664107
vt 0.3050004 0.2664107
vt 0.2857056 0.4709361
vt 0.3050004 0.4709361
vt 0.2857056 0.2664107
vt 0.3050004 0.2664107
vt 0.2857056 0.2664107
vt 0.2857056 0.4747951
vt 0.3050004 0.2664107
vt 0.3050004 0.4747951
vt 0.4940899 0.5018079
vt 0.2548338 0.5018079
vt 0.4555002 0.741064
vt 0.2972825 0.741064
vt 0.4940899 0.5018079
vt 0.2548338 0.5018079
vt 0.4555002 0.741064
vt 0.2972825 0.741064
vt 0.4940899 0.5018079
vt 0.2548338 0.5018079
vt 0.4555002 0.741064
vt 0.2972825 0.741064
vt 0.4940899 0.5018079
vt 0.2548338 0.5018079
vt 0.4555002 0.741064
vt 0.2972825 0.741064
vt 0.3783208 0.5018079
vt 0.2548338 0.5018079
vt 0.3783208 0.741064
vt 0.2972825 0.741064
vt 0.2972825 0.741064
vt 0.2548338 0.5018079
vt 0.4555002 0.741064
vt 0.4940899 0.5018079
vt 0.2972825 0.741064
vt 0.2548338 0.5018079
vt 0.4555002 0.741064
vt 0.4940899 0.5018079
vt 0.2972825 0.741064
vt 0.2548338 0.5018079
vt 0.4555002 0.741064
vt 0.4940899 0.5018079
vt 0.2972825 0.741064
vt 0.2548338 0.5018079
vt 0.4555002 0.741064
vt 0.4940899 0.5018079
vt 0.2972825 0.741064
vt 0.2548338 0.5018079
vt 0.3783208 0.741064
vt 0.3783208 0.5018079
vt 0.3397312 0.6484487
vt 0.3435901 0.6523077
vt 0.3435901 0.6445898
vt 0.3474491 0.6484487
vt 0.3435901 0.6445898
vt 0.3474491 0.6523077
vn 0.04761302 0.9681321 -0.2458723
vn 0.04761302 0.9681321 -0.2458723
vn 0.04761302 0.9681321 -0.2458723
vn 0.04761302 0.9681321 -0.2458723
vn 0.9988682 -0.04756512 0
vn 0.9988682 -0.04756512 0
vn 0.9988682 -0.04756512 0
vn 0.9988682 -0.04756512 0
vn 0.04761302 -0.04761302 -0.9977304
vn 0.04761302 -0.04761302 -0.9977304
vn 0.04761302 -0.04761302 -0.9977304
vn 0.04761302 -0.04761302 -0.9977304
vn -0.9988682 -0.04756512 0
vn -0.9988682 -0.04756512 0
vn -0.9988682 -0.04756512 0
vn -0.9988682 -0.04756512 0
vn 0.04761302 -0.04761302 0.9977304
vn 0.04761302 -0.04761302 0.9977304
vn 0.04761302 -0.04761302 0.9977304
vn 0.04761302 -0.04761302 0.9977304
vn 0.04761302 0.9681321 -0.2458723
vn 0.04761302 0.9681321 -0.2458723
vn 0.04761302 0.9681321 -0.2458723
vn 0.04761302 0.9681321 -0.2458723
vn 0.04761302 0.9681321 -0.2458723
vn 0.04761302 0.9681321 -0.2458723
vn 0.04761302 0.9681321 -0.2458723
vn 0.04761302 0.9681321 -0.2458723
vn 0.04761302 -0.04761302 -0.9977304
vn 0.04761302 -0.04761302 -0.9977304
vn 0.04761302 -0.04761302 -0.9977304
vn 0.04761302 -0.04761302 -0.9977304
vn 0.04761302 -0.04761302 -0.9977304
vn 0.04761302 -0.04761302 -0.9977304
vn 0.04761302 -0.04761302 -0.9977304
vn 0.04761302 -0.04761302 -0.9977304
vn 0.04761302 -0.04761302 0.9977304
vn 0.04761302 -0.04761302 0.9977304
vn 0.04761302 -0.04761302 0.9977304
vn 0.04761302 -0.04761302 0.9977304
vn 0.04761302 -0.04761302 0.9977304
vn 0.04761302 -0.04761302 0.9977304
vn 0.04761302 -0.04761302 0.9977304
vn 0.04761302 -0.04761302 0.9977304
vn 0.9988682 -0.04756512 0
vn 0.9988682 -0.04756512 0
vn 0.9988682 -0.04756512 0
vn 0.9988682 -0.04756512 0
vn 0.04761302 -0.04761302 -0.9977304
vn 0.04761302 -0.04761302 -0.9977304
vn 0.04761302 -0.04761302 -0.9977304
vn 0.04761302 -0.04761302 -0.9977304
vn -0.9988682 -0.04756512 0
vn -0.9988682 -0.04756512 0
vn -0.9988682 -0.04756512 0
vn -0.9988682 -0.04756512 0
vn 0.04761302 -0.04761302 0.9977304
vn 0.04761302 -0.04761302 0.9977304
vn 0.04761302 -0.04761302 0.9977304
vn 0.04761302 -0.04761302 0.9977304
vn 0.04761302 -0.04761302 -0.9977304
vn 0.04761302 -0.04761302 -0.9977304
vn 0.04761302 -0.04761302 -0.9977304
vn 0.04761302 -0.04761302 -0.9977304
vn 0.04761302 -0.04761302 -0.9977304
vn 0.04761302 -0.04761302 -0.9977304
vn 0.04761302 -0.04761302 -0.9977304
vn 0.04761302 -0.04761302 -0.9977304
vn 0.04761302 -0.04761302 0.9977304
vn 0.04761302 -0.04761302 0.9977304
vn 0.04761302 -0.04761302 0.9977304
vn 0.04761302 -0.04761302 0.9977304
vn 0.04761302 -0.04761302 0.9977304
vn 0.04761302 -0.04761302 0.9977304
vn 0.04761302 -0.04761302 0.9977304
vn 0.04761302 -0.04761302 0.9977304
vn 0.9988682 -0.04756512 0
vn 0.9988682 -0.04756512 0
vn 0.9988682 -0.04756512 0
vn 0.9988682 -0.04756512 0
vn -0.9988682 -0.04756512 0
vn -0.9988682 -0.04756512 0
vn -0.9988682 -0.04756512 0
vn -0.9681321 -0.04761302 0.2458723
vn 0.04756512 -0.9988682 0
vn 0.04756512 -0.9988682 0
vn 0.04756512 -0.9988682 0
vn 0.04756512 -0.9988682 0
vn 0.04761302 0.9681321 -0.2458723
vn 0.04761302 0.9681321 -0.2458723
vn 0.04761302 0.9681321 -0.2458723
vn 0.04761302 0.9681321 -0.2458723
vn 0.04761302 0.9681321 -0.2458723
vn 0.04761302 0.9681321 -0.2458723
vn 0.04761302 0.9681321 -0.2458723
vn 0.04761302 0.9681321 -0.2458723
vn -0.3632082 -0.931708 0
vn -0.3632082 -0.931708 0
vn -0.3632082 -0.931708 0
vn -0.3632082 -0.931708 0
vn 0.4280863 -0.9037378 0
vn 0.4280863 -0.9037378 0
vn 0.4280863 -0.9037378 0
vn 0.4280863 -0.9037378 0
vn -0.3967755 0.9046481 -0.1555028
vn -0.3967755 0.9046481 -0.1555028
vn -0.3967755 0.9046481 -0.1555028
vn -0.3967755 0.9046481 -0.1555028
vn 0.4285175 0.872906 -0.233255
vn 0.4285175 0.872906 -0.233255
vn 0.4285175 0.872906 -0.233255
vn 0.4285175 0.872906 -0.233255
vn 0.04761302 -0.04761302 0.9977304
vn 0.04761302 -0.04761302 0.9977304
vn 0.04761302 -0.04761302 0.9977304
vn 0.04761302 -0.04761302 0.9977304
vn 0.04761302 -0.04761302 0.9977304
vn 0.04761302 -0.04761302 0.9977304
vn 0.04756512 -0.9988682 0
vn 0.04756512 -0.9988682 0
vn 0.04756512 -0.9988682 0
vn 0.04756512 -0.9988682 0
vn 0.04756512 -0.9988682 0
vn 0.04756512 -0.9988682 0
vn 0.04756512 -0.9988682 0
vn 0.04756512 -0.9988682 0
vn -0.5872277 0.7776799 -0.2244496
vn -0.5872277 0.7776799 -0.2244496
vn -0.5872277 0.7776799 -0.2244496
vn -0.5872277 0.7776799 -0.2244496
vn 0.04761302 0.9681321 -0.2458723
vn 0.04761302 0.9681321 -0.2458723
vn 0.04761302 0.9681321 -0.2458723
vn 0.04761302 0.9681321 -0.2458723
vn 0.04761302 -0.04761302 0.9977304
vn 0.04761302 -0.04761302 0.9977304
vn 0.04761302 -0.04761302 0.9977304
vn 0.04761302 -0.04761302 0.9977304
vn 0.04761302 -0.04761302 0.9977304
vn 0.04761302 -0.04761302 0.9977304
vn -0.9988682 -0.04756512 0
vn -0.9988682 -0.04756512 0
vn -0.9988682 -0.04756512 0
vn -0.9681321 -0.04761302 0.2458723
vn 0.04761302 -0.04761302 0.9977304
vn 0.04761302 -0.04761302 0.9977304
vn 0.04761302 -0.04761302 0.9977304
vn 0.04761302 -0.04761302 0.9977304
vn 0.9988682 -0.04756512 0
vn 0.9988682 -0.04756512 0
vn 0.9988682 -0.04756512 0
vn 0.9988682 -0.04756512 0
vn 0.04756512 -0.9988682 0
vn 0.04756512 -0.9988682 0
vn 0.04756512 -0.9988682 0
vn 0.04756512 -0.9988682 0
vn 0.04756512 -0.9988682 0
vn 0.04756512 -0.9988682 0
vn 0.04756512 -0.9988682 0
vn 0.04756512 -0.9988682 0
vn 0.04761302 0.9681321 -0.2458723
vn 0.04761302 0.9681321 -0.2458723
vn 0.04761302 0.9681321 -0.2458723
vn 0.04761302 0.9681321 -0.2458723
vn 0.6189697 0.7776799 -0.1099568
vn 0.6189697 0.7776799 -0.1099568
vn 0.6189697 0.7776799 -0.1099568
vn 0.6189697 0.7776799 -0.1099568
vn 0.04761302 0.9681321 -0.2458723
vn 0.04761302 0.9681321 -0.2458723
vn 0.04761302 0.9681321 -0.2458723
vn 0.04761302 0.9681321 -0.2458723
vn 0.04761302 0.9681321 -0.2458723
vn 0.04761302 0.9681321 -0.2458723
vn 0.04761302 0.9681321 -0.2458723
vn 0.04761302 0.9681321 -0.2458723
vn 0.04756512 -0.9988682 0
vn 0.04756512 -0.9988682 0
vn 0.04756512 -0.9988682 0
vn 0.04756512 -0.9988682 0
vn 0.04761302 0.9681321 -0.2458723
vn 0.04761302 0.9681321 -0.2458723
vn 0.04761302 0.9681321 -0.2458723
vn 0.04761302 0.9681321 -0.2458723
vn 0.04761302 -0.04761302 -0.9977304
vn 0.04761302 -0.04761302 -0.9977304
vn 0.04761302 -0.04761302 -0.9977304
vn 0.04761302 -0.04761302 -0.9977304
vn -0.4285175 0.4602596 -0.7775178
vn -0.4285175 0.4602596 -0.7775178
vn -0.4285175 0.4602596 -0.7775178
vn -0.4285175 0.4602596 -0.7775178
vn -0.9046481 0.3650334 -0.2199148
vn -0.9046481 0.3650334 -0.2199148
vn -0.9046481 0.3650334 -0.2199148
vn -0.9046481 0.3650334 -0.2199148
vn -0.4602596 0.3332914 0.8228475
vn -0.4602596 0.3332914 0.8228475
vn -0.4602596 0.3332914 0.8228475
vn -0.4602596 0.3332914 0.8228475
vn 0.5237436 0.3650334 0.7697033
vn 0.5237436 0.3650334 0.7697033
vn 0.5237436 0.3650334 0.7697033
vn 0.5237436 0.3650334 0.7697033
vn 0.904648 0.3967755 -0.1555032
vn 0.904648 0.3967755 -0.1555032
vn 0.904648 0.3967755 -0.1555032
vn 0.904648 0.3967755 -0.1555032
vn -0.4285175 -0.5237436 -0.7362509
vn -0.4285175 -0.5237436 -0.7362509
vn -0.4285175 -0.5237436 -0.7362509
vn -0.4285175 -0.5237436 -0.7362509
vn -0.872906 -0.4285175 -0.2332551
vn -0.872906 -0.4285175 -0.2332551
vn -0.872906 -0.4285175 -0.2332551
vn -0.872906 -0.4285175 -0.2332551
vn -0.4602596 -0.3967754 0.7941853
vn -0.4602596 -0.3967754 0.7941853
vn -0.4602596 -0.3967754 0.7941853
vn -0.4602596 -0.3967754 0.7941853
vn 0.5237436 -0.4285175 0.7362509
vn 0.5237436 -0.4285175 0.7362509
vn 0.5237436 -0.4285175 0.7362509
vn 0.5237436 -0.4285175 0.7362509
vn 0.891278 -0.4534572 0
vn 0.891278 -0.4534572 0
vn 0.891278 -0.4534572 0
vn 0.891278 -0.4534572 0
vn 0.04761302 0.9681321 -0.2458723
vn 0.04761302 0.9681321 -0.2458723
vn 0.04761302 0.9681321 -0.2458723
vn 0.04761302 0.9681321 -0.2458723
vn 0.04761302 0.9681321 -0.2458723
vn 0.04761302 0.9681321 -0.2458723
g DSJ_GTA_diLou_28_0
f 3/3/3 2/2/2 1/1/1
f 4/4/4 2/2/2 3/3/3
f 7/7/7 6/6/6 5/5/5
f 8/8/8 6/6/6 7/7/7
f 11/11/11 10/10/10 9/9/9
f 12/12/12 10/10/10 11/11/11
f 15/15/15 14/14/14 13/13/13
f 16/16/16 14/14/14 15/15/15
f 19/19/19 18/18/18 17/17/17
f 20/20/20 18/18/18 19/19/19
f 23/23/23 22/22/22 21/21/21
f 24/24/24 22/22/22 23/23/23
f 27/27/27 26/26/26 25/25/25
f 28/28/28 26/26/26 27/27/27
f 31/31/31 30/30/30 29/29/29
f 32/32/32 30/30/30 31/31/31
f 35/35/35 34/34/34 33/33/33
f 36/36/36 34/34/34 35/35/35
f 39/39/39 38/38/38 37/37/37
f 40/40/40 38/38/38 39/39/39
f 43/43/43 42/42/42 41/41/41
f 44/44/44 42/42/42 43/43/43
f 47/47/47 46/46/46 45/45/45
f 48/48/48 46/46/46 47/47/47
f 51/51/51 50/50/50 49/49/49
f 52/52/52 50/50/50 51/51/51
f 55/55/55 54/54/54 53/53/53
f 56/56/56 54/54/54 55/55/55
f 59/59/59 58/58/58 57/57/57
f 60/60/60 58/58/58 59/59/59
f 63/63/63 62/62/62 61/61/61
f 64/64/64 62/62/62 63/63/63
f 67/67/67 66/66/66 65/65/65
f 68/68/68 66/66/66 67/67/67
f 71/71/71 70/70/70 69/69/69
f 72/72/72 70/70/70 71/71/71
f 75/75/75 74/74/74 73/73/73
f 76/76/76 74/74/74 75/75/75
f 79/79/79 78/78/78 77/77/77
f 80/80/80 78/78/78 79/79/79
f 83/83/83 82/82/82 81/81/81
f 84/84/84 82/82/82 83/83/83
f 87/87/87 86/86/86 85/85/85
f 88/88/88 86/86/86 87/87/87
f 91/91/91 90/90/90 89/89/89
f 92/92/92 90/90/90 91/91/91
f 95/95/95 94/94/94 93/93/93
f 96/96/96 94/94/94 95/95/95
f 99/99/99 98/98/98 97/97/97
f 100/100/100 98/98/98 99/99/99
f 103/103/103 102/102/102 101/101/101
f 104/104/104 102/102/102 103/103/103
f 107/107/107 106/106/106 105/105/105
f 108/108/108 106/106/106 107/107/107
f 111/111/111 110/110/110 109/109/109
f 112/112/112 110/110/110 111/111/111
f 115/115/115 114/114/114 113/113/113
f 116/116/116 114/114/114 115/115/115
f 117/117/117 116/116/116 115/115/115
f 118/118/118 116/116/116 117/117/117
f 121/121/121 120/120/120 119/119/119
f 122/122/122 120/120/120 121/121/121
f 125/125/125 124/124/124 123/123/123
f 126/126/126 124/124/124 125/125/125
f 129/129/129 128/128/128 127/127/127
f 130/130/130 128/128/128 129/129/129
f 133/133/133 132/132/132 131/131/131
f 134/134/134 132/132/132 133/133/133
f 137/137/137 136/136/136 135/135/135
f 138/138/138 137/137/137 135/135/135
f 139/139/139 137/137/137 138/138/138
f 140/140/140 139/139/139 138/138/138
f 143/143/143 142/142/142 141/141/141
f 144/144/144 142/142/142 143/143/143
f 147/147/147 146/146/146 145/145/145
f 148/148/148 146/146/146 147/147/147
f 151/151/151 150/150/150 149/149/149
f 152/152/152 150/150/150 151/151/151
f 155/155/155 154/154/154 153/153/153
f 156/156/156 154/154/154 155/155/155
f 159/159/159 158/158/158 157/157/157
f 160/160/160 158/158/158 159/159/159
f 163/163/163 162/162/162 161/161/161
f 164/164/164 162/162/162 163/163/163
f 167/167/167 166/166/166 165/165/165
f 168/168/168 166/166/166 167/167/167
f 171/171/171 170/170/170 169/169/169
f 172/172/172 170/170/170 171/171/171
f 175/175/175 174/174/174 173/173/173
f 176/176/176 174/174/174 175/175/175
f 179/179/179 178/178/178 177/177/177
f 180/180/180 178/178/178 179/179/179
f 183/183/183 182/182/182 181/181/181
f 184/184/184 182/182/182 183/183/183
f 187/187/187 186/186/186 185/185/185
f 188/188/188 186/186/186 187/187/187
f 191/191/191 190/190/190 189/189/189
f 192/192/192 190/190/190 191/191/191
f 195/195/195 194/194/194 193/193/193
f 196/196/196 194/194/194 195/195/195
f 199/199/199 198/198/198 197/197/197
f 200/200/200 198/198/198 199/199/199
f 203/203/203 202/202/202 201/201/201
f 204/204/204 202/202/202 203/203/203
f 207/207/207 206/206/206 205/205/205
f 208/208/208 206/206/206 207/207/207
f 211/211/211 210/210/210 209/209/209
f 212/212/212 210/210/210 211/211/211
f 215/215/215 214/214/214 213/213/213
f 216/216/216 214/214/214 215/215/215
f 219/219/219 218/218/218 217/217/217
f 220/220/220 218/218/218 219/219/219
f 223/223/223 222/222/222 221/221/221
f 224/224/224 222/222/222 223/223/223
f 227/227/227 226/226/226 225/225/225
f 228/228/228 226/226/226 227/227/227
f 231/231/231 230/230/230 229/229/229
f 232/232/232 230/230/230 231/231/231
f 233/233/233 232/232/232 231/231/231
f 230/230/230 232/232/232 234/234/234
