g DSJ_GTA_daoJu_weiQiang_04
v 1.822442 3.782066 0.02286768
v 1.89078 0.02559876 0.02286768
v 1.82214 0.09421122 0.02286768
v 1.89078 0.02559876 0.02286768
v 1.822442 3.782066 0.02286768
v 1.891104 3.859464 0.02286768
v 1.891104 3.859464 0.02286768
v 1.89078 0.02559876 -0.02288139
v 1.89078 0.02559876 0.02286768
v 1.891104 3.859464 -0.02288139
v 1.891104 3.859464 -0.02288139
v 1.82214 0.09421122 -0.02288139
v 1.89078 0.02559876 -0.02288139
v 1.82214 0.09421122 -0.02288139
v 1.891104 3.859464 -0.02288139
v 1.822442 3.782066 -0.02288139
v 1.822442 3.782066 -0.02288139
v 1.82214 0.09421122 0.02286768
v 1.82214 0.09421122 -0.02288139
v 1.822442 3.782066 0.02286768
v -1.825899 0.02559876 0.02286768
v 1.82214 0.09421122 0.02286768
v 1.89078 0.02559876 0.02286768
v 1.82214 0.09421122 0.02286768
v -1.825899 0.02559876 0.02286768
v -1.757265 0.09420574 0.02286768
v -1.757265 0.09420574 -0.02288139
v 1.89078 0.02559876 -0.02288139
v 1.82214 0.09421122 -0.02288139
v 1.89078 0.02559876 -0.02288139
v -1.757265 0.09420574 -0.02288139
v -1.825899 0.02559876 -0.02288139
v -1.757265 0.09420574 0.02286768
v 1.82214 0.09421122 -0.02288139
v 1.82214 0.09421122 0.02286768
v -1.757265 0.09420574 -0.02288139
v -1.757265 0.09420574 0.02286768
v -1.825899 3.411127 0.02286768
v -1.757287 3.350286 0.02286768
v -1.825899 0.02559876 0.02286768
v -1.825899 0.02559876 0.02286768
v -1.825899 3.411127 -0.02288139
v -1.825899 3.411127 0.02286768
v -1.825899 0.02559876 -0.02288139
v -1.825899 0.02559876 -0.02288139
v -1.757287 3.350286 -0.02288139
v -1.825899 3.411127 -0.02288139
v -1.757265 0.09420574 -0.02288139
v -1.757265 0.09420574 -0.02288139
v -1.757287 3.350286 0.02286768
v -1.757287 3.350286 -0.02288139
v -1.757265 0.09420574 0.02286768
v 1.891104 3.859464 0.02286768
v -1.757287 3.350286 0.02286768
v -1.825899 3.411127 0.02286768
v -1.757287 3.350286 0.02286768
v 1.891104 3.859464 0.02286768
v 1.822442 3.782066 0.02286768
v 1.891104 3.859464 -0.02288139
v -1.825899 3.411127 0.02286768
v -1.825899 3.411127 -0.02288139
v 1.891104 3.859464 0.02286768
v 1.822442 3.782066 -0.02288139
v -1.825899 3.411127 -0.02288139
v -1.757287 3.350286 -0.02288139
v -1.825899 3.411127 -0.02288139
v 1.822442 3.782066 -0.02288139
v 1.891104 3.859464 -0.02288139
v 1.822442 3.782066 0.02286768
v -1.757287 3.350286 -0.02288139
v -1.757287 3.350286 0.02286768
v 1.822442 3.782066 -0.02288139
v 1.856476 0.8707263 0.02286768
v -1.791486 0.8042581 0.02286768
v -1.791448 0.8728652 0.02286768
v 1.856438 0.8021193 0.02286768
v 1.856476 0.8707263 -0.02288139
v -1.791448 0.8728652 0.02286768
v -1.791448 0.8728652 -0.02288139
v 1.856476 0.8707263 0.02286768
v 1.856438 0.8021193 -0.02288139
v -1.791448 0.8728652 -0.02288139
v -1.791486 0.8042581 -0.02288139
v 1.856476 0.8707263 -0.02288139
v 1.828057 3.359433 0.02286768
v -1.758461 3.293195 0.02286768
v -1.7584 3.361803 0.02286768
v 1.828003 3.290821 0.02286768
v 1.828079 3.359433 -0.02288139
v -1.7584 3.361803 0.02286768
v -1.7584 3.361803 -0.02288139
v 1.828057 3.359433 0.02286768
v 1.828041 3.290821 -0.02288139
v -1.7584 3.361803 -0.02288139
v -1.758461 3.293195 -0.02288139
v 1.828079 3.359433 -0.02288139
v 1.828003 3.290821 0.02286768
v -1.758461 3.293195 -0.02288139
v -1.758461 3.293195 0.02286768
v 1.828041 3.290821 -0.02288139
v -0.5069721 0.8141844 0.01143312
v 0.01175392 0.08379686 0.01143312
v -0.5652797 0.8141844 0.01143312
v 0.05626905 0.08373642 0.01143312
v 0.06478596 0.09045458 0.01143312
v -0.5069721 0.8141844 -0.01144135
v 0.06478596 0.09045458 0.01143312
v -0.5069721 0.8141844 0.01143312
v 0.06478596 0.09045458 -0.01144683
v 0.09351206 0.8141844 0.01143312
v 0.5954455 0.09800076 0.01143312
v 0.03546751 0.8141844 0.01143312
v 0.631482 0.1261785 0.01143312
v 0.03546751 0.8141844 0.01143312
v 0.5954455 0.09800076 -0.01144683
v 0.03546751 0.8141844 -0.01144135
v 0.5954455 0.09800076 0.01143312
v 0.5954455 0.09800076 -0.01144683
v 0.09351206 0.8141844 -0.01144135
v 0.03546751 0.8141844 -0.01144135
v 0.631482 0.1261785 -0.01144683
v 0.09351206 0.8141844 -0.01144135
v 0.631482 0.1261785 0.01143312
v 0.09351206 0.8141844 0.01143312
v 0.631482 0.1261785 -0.01144683
v 0.7149183 0.8141844 0.01143312
v 1.23546 0.08792639 0.01143312
v 0.6563966 0.8141844 0.01143312
v 1.271244 0.1164441 0.01143312
v 0.6563966 0.8141844 0.01143312
v 1.23546 0.08792639 -0.01144683
v 0.6563966 0.8141844 -0.01144135
v 1.23546 0.08792639 0.01143312
v 1.23546 0.08792639 -0.01144683
v 0.7149183 0.8141844 -0.01144135
v 0.6563966 0.8141844 -0.01144135
v 1.271244 0.1164441 -0.01144683
v 0.7149183 0.8141844 -0.01144135
v 1.271244 0.1164441 0.01143312
v 0.7149183 0.8141844 0.01143312
v 1.271244 0.1164441 -0.01144683
v 1.330917 0.8141844 0.01143312
v 1.824367 0.1065671 0.01143312
v 1.272862 0.8141844 0.01143312
v 1.860304 0.134882 0.01143312
v 1.272862 0.8141844 0.01143312
v 1.824367 0.1065671 -0.01144135
v 1.272862 0.8141844 -0.01144135
v 1.824367 0.1065671 0.01143312
v 1.824367 0.1065671 -0.01144135
v 1.330917 0.8141844 -0.01144135
v 1.272862 0.8141844 -0.01144135
v 1.860304 0.134882 -0.01144135
v 1.330917 0.8141844 -0.01144135
v 1.860304 0.134882 0.01143312
v 1.330917 0.8141844 0.01143312
v 1.860304 0.134882 -0.01144135
v -0.6124656 0.8141844 0.01143312
v -1.159885 0.102262 -0.01144683
v -0.6124656 0.8141844 -0.01144683
v -1.159885 0.102262 0.01143312
v -0.6124656 0.8141844 -0.01144683
v -1.115118 0.0854311 -0.01144683
v -0.5547721 0.8141844 -0.01144683
v -1.159885 0.102262 -0.01144683
v -1.138009 0.085464 -0.01144683
v -0.6124656 0.8141844 -0.01144683
v -1.138009 0.085464 -0.01144683
v -1.115118 0.0854311 -0.01144683
v -1.172625 0.8141844 0.01143312
v -0.6423655 0.08476198 0.01143312
v -1.231415 0.8141844 0.01143312
v -0.5833282 0.08467424 0.01143312
v -1.231415 0.8141844 0.01143312
v -0.6423435 0.08473456 -0.01144683
v -1.231415 0.8141844 -0.01144683
v -0.6423655 0.08476198 0.01143312
v -0.6423435 0.08473456 -0.01144683
v -1.172625 0.8141844 -0.01144135
v -1.231415 0.8141844 -0.01144683
v -0.5833282 0.0846523 -0.01144683
v -1.172625 0.8141844 -0.01144135
v -0.5833282 0.08467424 0.01143312
v -1.172625 0.8141844 0.01143312
v -0.5833282 0.0846523 -0.01144683
v -0.5652797 0.8141844 0.01143312
v 0.01175392 0.08377492 -0.01144683
v -0.5652797 0.8141844 -0.01144683
v 0.01175392 0.08379686 0.01143312
v 0.05624712 0.08371449 -0.01144683
v -0.5652797 0.8141844 -0.01144683
v 0.01175392 0.08377492 -0.01144683
v -0.5069721 0.8141844 -0.01144135
v 0.05624712 0.08371449 -0.01144683
v 0.06478596 0.09045458 -0.01144683
v -0.5069721 0.8141844 -0.01144135
v -1.794179 0.1181936 0.01143312
v -1.761312 0.08629215 0.01143312
v -1.794179 0.1119745 0.01143312
v -1.794179 0.1181936 0.01143312
v -1.188655 0.8141844 0.01143312
v -1.761312 0.08629215 0.01143312
v -1.246842 0.8141844 0.01143312
v -1.188655 0.8141844 -0.01144683
v -1.761312 0.08629215 0.01143312
v -1.188655 0.8141844 0.01143312
v -1.76129 0.0862757 -0.01144683
v -1.138047 0.08548594 0.01143312
v -0.5547721 0.8141844 0.01143312
v -1.115118 0.08545303 0.01143312
v -1.138047 0.08548594 0.01143312
v -0.6124656 0.8141844 0.01143312
v -0.5547721 0.8141844 0.01143312
v -1.159885 0.102262 0.01143312
v -0.5547721 0.8141844 -0.01144683
v -1.115118 0.08545303 0.01143312
v -0.5547721 0.8141844 0.01143312
v -1.115118 0.0854311 -0.01144683
v -0.5251961 0.0845865 0.01143312
v -0.03746653 0.8141844 0.01143312
v 0.02034771 0.8141844 0.01143312
v -0.5833282 0.08467424 0.01143312
v -0.03746653 0.8141844 0.01143312
v -0.5833282 0.0846523 -0.01144683
v -0.03746653 0.8141844 -0.01144683
v -0.5833282 0.08467424 0.01143312
v -0.03746653 0.8141844 -0.01144683
v -0.5251961 0.08456457 -0.01144683
v 0.02034771 0.8141844 -0.01144135
v -0.5833282 0.0846523 -0.01144683
v 0.02034771 0.8141844 -0.01144135
v -0.5251961 0.0845865 0.01143312
v 0.02034771 0.8141844 0.01143312
v -0.5251961 0.08456457 -0.01144683
v 0.06720448 0.08371997 0.01143312
v 0.5435872 0.8141844 0.01143312
v 0.6005238 0.8141844 0.01143312
v 0.009214759 0.08380234 0.01143312
v 0.5435872 0.8141844 0.01143312
v 0.009214759 0.08378041 -0.01144683
v 0.5435872 0.8141844 -0.01144135
v 0.009214759 0.08380234 0.01143312
v 0.5435872 0.8141844 -0.01144135
v 0.06718802 0.08369803 -0.01144683
v 0.6005238 0.8141844 -0.01144135
v 0.009214759 0.08378041 -0.01144683
v 0.6005238 0.8141844 -0.01144135
v 0.06720448 0.08371997 0.01143312
v 0.6005238 0.8141844 0.01143312
v 0.06718802 0.08369803 -0.01144683
v 0.6159344 0.08291388 0.01143312
v 1.10894 0.8141844 0.01143312
v 1.16609 0.8141844 0.01143312
v 0.5579612 0.08299613 0.01143312
v 1.10894 0.8141844 0.01143312
v 0.5579448 0.0829742 -0.01144683
v 1.10894 0.8141844 -0.01144135
v 0.5579612 0.08299613 0.01143312
v 1.10894 0.8141844 -0.01144135
v 0.6159344 0.08289194 -0.01144683
v 1.16609 0.8141844 -0.01144135
v 0.5579448 0.0829742 -0.01144683
v 1.16609 0.8141844 -0.01144135
v 0.6159344 0.08291388 0.01143312
v 1.16609 0.8141844 0.01143312
v 0.6159344 0.08289194 -0.01144683
v 1.219413 0.08202541 0.01143312
v 1.83369 0.7855463 0.01143312
v 1.277375 0.08194315 0.01143312
v 1.797615 0.8141844 0.01143312
v 1.797615 0.8141844 0.01143312
v 1.219391 0.08200347 -0.01144683
v 1.797615 0.8141844 -0.01144135
v 1.219413 0.08202541 0.01143312
v 1.219391 0.08200347 -0.01144683
v 1.833668 0.7855186 -0.01144135
v 1.797615 0.8141844 -0.01144135
v 1.277375 0.08192122 -0.01144683
v 1.833668 0.7855186 -0.01144135
v 1.277375 0.08194315 0.01143312
v 1.83369 0.7855463 0.01143312
v 1.277375 0.08192122 -0.01144683
v -1.122461 0.085464 0.01143312
v -1.794903 0.8051248 0.01143312
v -1.74254 0.8141844 0.01143312
v -1.182617 0.08555174 0.01143312
v -1.794903 0.8051248 0.01143312
v -1.182584 0.0855298 -0.01144683
v -1.794925 0.8051577 -0.01144683
v -1.182617 0.08555174 0.01143312
v -1.122444 0.08544207 -0.01144135
v -1.794925 0.8051577 -0.01144683
v -1.182584 0.0855298 -0.01144683
v -1.74254 0.8141844 -0.01144135
v -1.74254 0.8141844 -0.01144135
v -1.122461 0.085464 0.01143312
v -1.74254 0.8141844 0.01143312
v -1.122444 0.08544207 -0.01144135
v -1.246842 0.8141844 0.01143312
v -1.794217 0.1181662 -0.01144683
v -1.246842 0.8141844 -0.01144683
v -1.794179 0.1181936 0.01143312
v -1.246842 0.8141844 -0.01144683
v -1.76129 0.0862757 -0.01144683
v -1.188655 0.8141844 -0.01144683
v -1.794217 0.1119909 -0.01144683
v -1.246842 0.8141844 -0.01144683
v -1.794217 0.1181662 -0.01144683
v -1.794217 0.1119909 -0.01144683
v -0.5741477 3.321384 0.01152635
v 0.6244129 2.078511 0.01153183
v -0.5741477 2.078511 0.01153183
v 0.6244129 3.321384 0.01153183
v -0.5741477 0.8356385 -0.009538293
v 0.6244129 2.078511 -0.009538293
v -0.5741477 2.078511 -0.009538293
v 0.6244129 0.8356385 -0.009538293
v -1.772714 3.321384 0.01152635
v -0.5741477 2.078511 0.01153183
v -1.772714 2.078511 0.01153183
v -0.5741477 3.321384 0.01152635
v 1.822963 0.8356385 0.01153183
v 0.6244129 2.078511 0.01153183
v 1.822963 2.078511 0.01153183
v 0.6244129 0.8356385 0.01153183
v -1.772714 0.8356385 -0.009538293
v -0.5741477 2.078511 -0.009538293
v -1.772714 2.078511 -0.009538293
v -0.5741477 0.8356385 -0.009538293
v 1.822963 3.321384 -0.009538293
v 0.6244129 2.078511 -0.009538293
v 1.822963 2.078511 -0.009538293
v 0.6244129 3.321384 -0.009538293
v -0.5741477 0.8356385 0.01153183
v 0.6244129 2.078511 0.01153183
v 0.6244129 0.8356385 0.01153183
v -0.5741477 2.078511 0.01153183
v -0.5741477 3.321384 -0.009538293
v 0.6244129 2.078511 -0.009538293
v 0.6244129 3.321384 -0.009538293
v -0.5741477 2.078511 -0.009538293
v -1.772714 0.8356385 0.01153183
v -0.5741477 2.078511 0.01153183
v -0.5741477 0.8356385 0.01153183
v -1.772714 2.078511 0.01153183
v 1.822963 3.321384 0.01153183
v 0.6244129 2.078511 0.01153183
v 0.6244129 3.321384 0.01153183
v 1.822963 2.078511 0.01153183
v -1.772714 3.321384 -0.009538293
v -0.5741477 2.078511 -0.009538293
v -0.5741477 3.321384 -0.009538293
v -1.772714 2.078511 -0.009538293
v 1.822963 0.8356385 -0.009538293
v 0.6244129 2.078511 -0.009538293
v 0.6244129 0.8356385 -0.009538293
v 1.822963 2.078511 -0.009538293
v -1.823399 2.815864 -0.0116607
v -1.891095 2.601921 -0.0116607
v -1.823399 2.601921 -0.0116607
v -1.891095 2.815864 -0.0116607
v -1.823399 2.815864 0.01493752
v -1.891095 2.601921 0.01493752
v -1.891095 2.815864 0.01493752
v -1.823399 2.601921 0.01493752
v -1.823399 2.815864 -0.0116607
v -1.891095 2.815864 0.01493752
v -1.891095 2.815864 -0.0116607
v -1.823399 2.815864 0.01493752
v -1.891095 2.601921 -0.0116607
v -1.823399 2.601921 0.01493752
v -1.823399 2.601921 -0.0116607
v -1.891095 2.601921 0.01493752
v -1.823399 2.174973 -0.0116607
v -1.891095 1.96103 -0.0116607
v -1.823399 1.96103 -0.0116607
v -1.891095 2.174973 -0.0116607
v -1.823399 2.174973 0.01493752
v -1.891095 1.96103 0.01493752
v -1.891095 2.174973 0.01493752
v -1.823399 1.96103 0.01493752
v -1.823399 2.174973 -0.0116607
v -1.891095 2.174973 0.01493752
v -1.891095 2.174973 -0.0116607
v -1.823399 2.174973 0.01493752
v -1.891095 1.96103 -0.0116607
v -1.823399 1.96103 0.01493752
v -1.823399 1.96103 -0.0116607
v -1.891095 1.96103 0.01493752
v -1.823399 1.492626 -0.0116607
v -1.891095 1.278683 -0.0116607
v -1.823399 1.278683 -0.0116607
v -1.891095 1.492626 -0.0116607
v -1.823399 1.492626 0.01493752
v -1.891095 1.278683 0.01493752
v -1.891095 1.492626 0.01493752
v -1.823399 1.278683 0.01493752
v -1.823399 1.492626 -0.0116607
v -1.891095 1.492626 0.01493752
v -1.891095 1.492626 -0.0116607
v -1.823399 1.492626 0.01493752
v -1.891095 1.278683 -0.0116607
v -1.823399 1.278683 0.01493752
v -1.823399 1.278683 -0.0116607
v -1.891095 1.278683 0.01493752
vt 0.2200059 0.2794412
vt 0.2149249 0.5016643
vt 0.2199715 0.5016643
vt 0.2149249 0.5016643
vt 0.2200059 0.2794412
vt 0.2149249 0.2794412
vt 0.2149249 0.2794412
vt 0.2199715 0.5016643
vt 0.2149249 0.5016643
vt 0.2200059 0.2794412
vt 0.2200059 0.2794412
vt 0.2255457 0.5016643
vt 0.2199715 0.5016643
vt 0.2255457 0.5016643
vt 0.2200059 0.2794412
vt 0.2255457 0.2794412
vt 0.2255457 0.2794412
vt 0.2199715 0.5016643
vt 0.2255457 0.5016643
vt 0.2200059 0.2794412
vt 0.2200059 0.2794412
vt 0.2255457 0.5016643
vt 0.2199715 0.5016643
vt 0.2255457 0.5016643
vt 0.2200059 0.2794412
vt 0.2255457 0.2794412
vt 0.2200059 0.2794412
vt 0.2149249 0.5016643
vt 0.2199715 0.5016643
vt 0.2149249 0.5016643
vt 0.2200059 0.2794412
vt 0.2149249 0.2794412
vt 0.2255457 0.2794412
vt 0.2199715 0.5016643
vt 0.2255457 0.5016643
vt 0.2200059 0.2794412
vt 0.2199715 0.5016643
vt 0.2149249 0.2794412
vt 0.2200059 0.2794412
vt 0.2149249 0.5016643
vt 0.2149249 0.5016643
vt 0.2200059 0.2794412
vt 0.2149249 0.2794412
vt 0.2199715 0.5016643
vt 0.2199715 0.5016643
vt 0.2255457 0.2794412
vt 0.2200059 0.2794412
vt 0.2255457 0.5016643
vt 0.2255457 0.5016643
vt 0.2200059 0.2794412
vt 0.2255457 0.2794412
vt 0.2199715 0.5016643
vt 0.2149249 0.5016643
vt 0.2200059 0.2794412
vt 0.2149249 0.2794412
vt 0.2200059 0.2794412
vt 0.2149249 0.5016643
vt 0.2199715 0.5016643
vt 0.2199715 0.5016643
vt 0.2149249 0.2794412
vt 0.2200059 0.2794412
vt 0.2149249 0.5016643
vt 0.2255457 0.5016643
vt 0.2200059 0.2794412
vt 0.2255457 0.2794412
vt 0.2200059 0.2794412
vt 0.2255457 0.5016643
vt 0.2199715 0.5016643
vt 0.2199715 0.5016643
vt 0.2255457 0.2794412
vt 0.2200059 0.2794412
vt 0.2255457 0.5016643
vt 0.2199715 0.5016643
vt 0.2149249 0.2794412
vt 0.2200059 0.2794412
vt 0.2149249 0.5016643
vt 0.2255457 0.5016643
vt 0.2200059 0.2794412
vt 0.2255457 0.2794412
vt 0.2199715 0.5016643
vt 0.2199715 0.5016643
vt 0.2255457 0.2794412
vt 0.2200059 0.2794412
vt 0.2255457 0.5016643
vt 0.2199715 0.5016643
vt 0.2149249 0.2794412
vt 0.2200059 0.2794412
vt 0.2149249 0.5016643
vt 0.2255457 0.5016643
vt 0.2200059 0.2794412
vt 0.2255457 0.2794412
vt 0.2199715 0.5016643
vt 0.2199715 0.5016643
vt 0.2255457 0.2794412
vt 0.2200059 0.2794412
vt 0.2255457 0.5016643
vt 0.2149249 0.5016643
vt 0.2200059 0.2794412
vt 0.2149249 0.2794412
vt 0.2199715 0.5016643
vt 0.2255457 0.4045284
vt 0.2199715 0.5016643
vt 0.2200059 0.4045284
vt 0.2224833 0.5016643
vt 0.2255457 0.5016643
vt 0.2200059 0.4045284
vt 0.2255457 0.5016643
vt 0.2255457 0.4045284
vt 0.2199715 0.5016643
vt 0.2255457 0.4045284
vt 0.2199715 0.5016643
vt 0.2200059 0.4045284
vt 0.2255457 0.5016643
vt 0.2200059 0.4045284
vt 0.2149249 0.5016643
vt 0.2149249 0.4045284
vt 0.2199715 0.5016643
vt 0.2149249 0.5016643
vt 0.2200059 0.4045284
vt 0.2149249 0.4045284
vt 0.2199715 0.5016643
vt 0.2200059 0.4045284
vt 0.2255457 0.5016643
vt 0.2255457 0.4045284
vt 0.2199715 0.5016643
vt 0.2255457 0.4045284
vt 0.2199715 0.5016643
vt 0.2200059 0.4045284
vt 0.2255457 0.5016643
vt 0.2200059 0.4045284
vt 0.2149249 0.5016643
vt 0.2149249 0.4045284
vt 0.2199715 0.5016643
vt 0.2149249 0.5016643
vt 0.2200059 0.4045284
vt 0.2149249 0.4045284
vt 0.2199715 0.5016643
vt 0.2200059 0.4045284
vt 0.2255457 0.5016643
vt 0.2255457 0.4045284
vt 0.2199715 0.5016643
vt 0.2200059 0.4045284
vt 0.2255457 0.5016643
vt 0.2255457 0.4045284
vt 0.2199715 0.5016643
vt 0.2255457 0.4045284
vt 0.2199715 0.5016643
vt 0.2200059 0.4045284
vt 0.2255457 0.5016643
vt 0.2199715 0.5016643
vt 0.2149249 0.4045284
vt 0.2200059 0.4045284
vt 0.2149249 0.5016643
vt 0.2149249 0.4045284
vt 0.2199715 0.5016643
vt 0.2200059 0.4045284
vt 0.2149249 0.5016643
vt 0.2255457 0.4045284
vt 0.2199715 0.5016643
vt 0.2200059 0.4045284
vt 0.2255457 0.5016643
vt 0.2200059 0.4045284
vt 0.2149249 0.5016643
vt 0.2149249 0.4045284
vt 0.2199715 0.5016643
vt 0.2149249 0.5016643
vt 0.2200059 0.4045284
vt 0.2149249 0.5016643
vt 0.2149249 0.5016643
vt 0.2255457 0.4045284
vt 0.2199715 0.5016643
vt 0.2200059 0.4045284
vt 0.2255457 0.5016643
vt 0.2200059 0.4045284
vt 0.2149249 0.5016643
vt 0.2149249 0.4045284
vt 0.2199715 0.5016643
vt 0.2149249 0.5016643
vt 0.2200059 0.4045284
vt 0.2149249 0.4045284
vt 0.2199715 0.5016643
vt 0.2200059 0.4045284
vt 0.2255457 0.5016643
vt 0.2255457 0.4045284
vt 0.2199715 0.5016643
vt 0.2200059 0.4045284
vt 0.2149249 0.5016643
vt 0.2149249 0.4045284
vt 0.2199715 0.5016643
vt 0.2199715 0.5016643
vt 0.2149249 0.4045284
vt 0.2149249 0.5016643
vt 0.2200059 0.4045284
vt 0.2199715 0.5016643
vt 0.2199715 0.5016643
vt 0.2200059 0.4045284
vt 0.2255457 0.5016643
vt 0.2199715 0.5016643
vt 0.2255457 0.5016643
vt 0.2255457 0.5016643
vt 0.2200059 0.4045284
vt 0.2199715 0.5016643
vt 0.2255457 0.4045284
vt 0.2149249 0.4045284
vt 0.2199715 0.5016643
vt 0.2200059 0.4045284
vt 0.2149249 0.5016643
vt 0.2175514 0.5016643
vt 0.2200059 0.4045284
vt 0.2199715 0.5016643
vt 0.2175514 0.5016643
vt 0.2255457 0.4045284
vt 0.2200059 0.4045284
vt 0.2255457 0.5016643
vt 0.2149249 0.4045284
vt 0.2199715 0.5016643
vt 0.2200059 0.4045284
vt 0.2149249 0.5016643
vt 0.2199715 0.5016643
vt 0.2255457 0.4045284
vt 0.2200059 0.4045284
vt 0.2255457 0.5016643
vt 0.2255457 0.4045284
vt 0.2199715 0.5016643
vt 0.2200059 0.4045284
vt 0.2255457 0.5016643
vt 0.2200059 0.4045284
vt 0.2149249 0.5016643
vt 0.2149249 0.4045284
vt 0.2199715 0.5016643
vt 0.2149249 0.4045284
vt 0.2199715 0.5016643
vt 0.2200059 0.4045284
vt 0.2149249 0.5016643
vt 0.2199715 0.5016643
vt 0.2255457 0.4045284
vt 0.2200059 0.4045284
vt 0.2255457 0.5016643
vt 0.2255457 0.4045284
vt 0.2199715 0.5016643
vt 0.2200059 0.4045284
vt 0.2255457 0.5016643
vt 0.2200059 0.4045284
vt 0.2149249 0.5016643
vt 0.2149249 0.4045284
vt 0.2199715 0.5016643
vt 0.2149249 0.4045284
vt 0.2199715 0.5016643
vt 0.2200059 0.4045284
vt 0.2149249 0.5016643
vt 0.2199715 0.5016643
vt 0.2255457 0.4045284
vt 0.2200059 0.4045284
vt 0.2255457 0.5016643
vt 0.2255457 0.4045284
vt 0.2199715 0.5016643
vt 0.2200059 0.4045284
vt 0.2255457 0.5016643
vt 0.2200059 0.4045284
vt 0.2149249 0.5016643
vt 0.2149249 0.4045284
vt 0.2199715 0.5016643
vt 0.2149249 0.4045284
vt 0.2199715 0.5016643
vt 0.2200059 0.4045284
vt 0.2149249 0.5016643
vt 0.2255457 0.5016643
vt 0.2200059 0.4045284
vt 0.2199715 0.5016643
vt 0.2255457 0.4045284
vt 0.2255457 0.4045284
vt 0.2199715 0.5016643
vt 0.2200059 0.4045284
vt 0.2255457 0.5016643
vt 0.2199715 0.5016643
vt 0.2149249 0.4045284
vt 0.2200059 0.4045284
vt 0.2149249 0.5016643
vt 0.2149249 0.4045284
vt 0.2199715 0.5016643
vt 0.2200059 0.4045284
vt 0.2149249 0.5016643
vt 0.2255457 0.5016643
vt 0.2200059 0.4045284
vt 0.2255457 0.4045284
vt 0.2199715 0.5016643
vt 0.2200059 0.4045284
vt 0.2149249 0.5016643
vt 0.2149249 0.4045284
vt 0.2199715 0.5016643
vt 0.2199715 0.5016643
vt 0.2149249 0.4045284
vt 0.2149249 0.5016643
vt 0.2200059 0.4045284
vt 0.2200059 0.4045284
vt 0.2255457 0.5016643
vt 0.2255457 0.4045284
vt 0.2199715 0.5016643
vt 0.2255457 0.4045284
vt 0.2199715 0.5016643
vt 0.2200059 0.4045284
vt 0.2255457 0.5016643
vt 0.2200059 0.4045284
vt 0.2149249 0.5016643
vt 0.2149249 0.4045284
vt 0.2199715 0.5016643
vt 0.2200059 0.4045284
vt 0.2199715 0.5016643
vt 0.2199715 0.5016643
vt 0.3346214 0.3616207
vt 0.4808355 0.2601723
vt 0.3346214 0.2601723
vt 0.4808355 0.3616207
vt 0.3346214 0.3616207
vt 0.4808355 0.2601723
vt 0.3346214 0.2601723
vt 0.4808355 0.3616207
vt 0.4808355 0.3616207
vt 0.3346214 0.2601723
vt 0.4808355 0.2601723
vt 0.3346214 0.3616207
vt 0.3346214 0.3616207
vt 0.4808355 0.2601723
vt 0.3346214 0.2601723
vt 0.4808355 0.3616207
vt 0.4808355 0.3616207
vt 0.3346214 0.2601723
vt 0.4808355 0.2601723
vt 0.3346214 0.3616207
vt 0.3346214 0.3616207
vt 0.4808355 0.2601723
vt 0.3346214 0.2601723
vt 0.4808355 0.3616207
vt 0.3346214 0.3616207
vt 0.4808355 0.2601723
vt 0.4808355 0.3616207
vt 0.3346214 0.2601723
vt 0.3346214 0.3616207
vt 0.4808355 0.2601723
vt 0.4808355 0.3616207
vt 0.3346214 0.2601723
vt 0.4808355 0.3616207
vt 0.3346214 0.2601723
vt 0.3346214 0.3616207
vt 0.4808355 0.2601723
vt 0.3346214 0.3616207
vt 0.4808355 0.2601723
vt 0.4808355 0.3616207
vt 0.3346214 0.2601723
vt 0.4808355 0.3616207
vt 0.3346214 0.2601723
vt 0.3346214 0.3616207
vt 0.4808355 0.2601723
vt 0.3346214 0.3616207
vt 0.4808355 0.2601723
vt 0.4808355 0.3616207
vt 0.3346214 0.2601723
vt 0.7538114 0.932668
vt 0.7503476 0.9665835
vt 0.7538114 0.9665835
vt 0.7503476 0.932668
vt 0.7457483 0.932668
vt 0.7492236 0.9665835
vt 0.7492236 0.932668
vt 0.7457483 0.9665835
vt 0.7521024 0.9583598
vt 0.7496824 0.9552401
vt 0.7496824 0.9583598
vt 0.7521024 0.9552401
vt 0.749625 0.9552057
vt 0.7520451 0.9583368
vt 0.7520451 0.9552057
vt 0.749625 0.9583368
vt 0.7538114 0.932668
vt 0.7503476 0.9665835
vt 0.7538114 0.9665835
vt 0.7503476 0.932668
vt 0.7457483 0.932668
vt 0.7492236 0.9665835
vt 0.7492236 0.932668
vt 0.7457483 0.9665835
vt 0.7521024 0.9583598
vt 0.7496824 0.9552401
vt 0.7496824 0.9583598
vt 0.7521024 0.9552401
vt 0.749625 0.9552057
vt 0.7520451 0.9583368
vt 0.7520451 0.9552057
vt 0.749625 0.9583368
vt 0.7538114 0.932668
vt 0.7503476 0.9665835
vt 0.7538114 0.9665835
vt 0.7503476 0.932668
vt 0.7457483 0.932668
vt 0.7492236 0.9665835
vt 0.7492236 0.932668
vt 0.7457483 0.9665835
vt 0.7521024 0.9583598
vt 0.7496824 0.9552401
vt 0.7496824 0.9583598
vt 0.7521024 0.9552401
vt 0.749625 0.9552057
vt 0.7520451 0.9583368
vt 0.7520451 0.9552057
vt 0.749625 0.9583368
vn 0.01176465 -0.01176465 0.9998616
vn 0.01176465 -0.01176465 0.9998616
vn 0.01176465 -0.01176465 0.9998616
vn 0.01176465 -0.01176465 0.9998616
vn 0.01176465 -0.01176465 0.9998616
vn 0.01176465 -0.01176465 0.9998616
vn 0.9999924 -0.003921568 0
vn 0.9999924 -0.003921568 0
vn 0.9999924 -0.003921568 0
vn 0.9999924 -0.003921568 0
vn 0.01176465 -0.01176465 -0.9998616
vn 0.01176465 -0.01176465 -0.9998616
vn 0.01176465 -0.01176465 -0.9998616
vn 0.01176465 -0.01176465 -0.9998616
vn 0.01176465 -0.01176465 -0.9998616
vn 0.01176465 -0.01176465 -0.9998616
vn -0.9999923 -0.003921568 -0.0003442513
vn -0.9999923 -0.003921568 -0.0003442513
vn -0.9999923 -0.003921568 -0.0003442513
vn -0.9999923 -0.003921568 -0.0003442513
vn 0.01176465 -0.01176465 0.9998616
vn 0.01176465 -0.01176465 0.9998616
vn 0.01176465 -0.01176465 0.9998616
vn 0.01176465 -0.01176465 0.9998616
vn 0.01176465 -0.01176465 0.9998616
vn 0.01176465 -0.01176465 0.9998616
vn 0.01176465 -0.01176465 -0.9998616
vn 0.01176465 -0.01176465 -0.9998616
vn 0.01176465 -0.01176465 -0.9998616
vn 0.01176465 -0.01176465 -0.9998616
vn 0.01176465 -0.01176465 -0.9998616
vn 0.01176465 -0.01176465 -0.9998616
vn 0.003921568 0.9999923 -0.000345267
vn 0.003921568 0.9999923 -0.000345267
vn 0.003921568 0.9999923 -0.000345267
vn 0.003921568 0.9999923 -0.000345267
vn 0.01176465 -0.01176465 0.9998616
vn 0.01176465 -0.01176465 0.9998616
vn 0.01176465 -0.01176465 0.9998616
vn 0.01176465 -0.01176465 0.9998616
vn -0.9999923 -0.003921568 -0.0003442513
vn -0.9999923 -0.003921568 -0.0003442513
vn -0.9999923 -0.003921568 -0.0003442513
vn -0.9999923 -0.003921568 -0.0003442513
vn 0.01176465 -0.01176465 -0.9998616
vn 0.01176465 -0.01176465 -0.9998616
vn 0.01176465 -0.01176465 -0.9998616
vn 0.01176465 -0.01176465 -0.9998616
vn 0.9999924 -0.003921568 0
vn 0.9999924 -0.003921568 0
vn 0.9999924 -0.003921568 0
vn 0.9999924 -0.003921568 0
vn 0.01176465 -0.01176465 0.9998616
vn 0.01176465 -0.01176465 0.9998616
vn 0.01176465 -0.01176465 0.9998616
vn 0.01176465 -0.01176465 0.9998616
vn 0.01176465 -0.01176465 0.9998616
vn 0.01176465 -0.01176465 0.9998616
vn -0.1137246 0.9921492 -0.05202544
vn -0.1137246 0.9921492 -0.05202544
vn -0.1137246 0.9921492 -0.05202544
vn -0.1137246 0.9921492 -0.05202544
vn 0.01176465 -0.01176465 -0.9998616
vn 0.01176465 -0.01176465 -0.9998616
vn 0.01176465 -0.01176465 -0.9998616
vn 0.01176465 -0.01176465 -0.9998616
vn 0.01176465 -0.01176465 -0.9998616
vn 0.01176465 -0.01176465 -0.9998616
vn 0.1206802 -0.9926914 0
vn 0.1206802 -0.9926914 0
vn 0.1206802 -0.9926914 0
vn 0.1206802 -0.9926914 0
vn 0.01176465 -0.01176465 0.9998616
vn 0.01176465 -0.01176465 0.9998616
vn 0.01176465 -0.01176465 0.9998616
vn 0.01176465 -0.01176465 0.9998616
vn 0.01176465 0.9921492 -0.124505
vn 0.01176465 0.9921492 -0.124505
vn 0.01176465 0.9921492 -0.124505
vn 0.01176465 0.9921492 -0.124505
vn 0.01176465 -0.01176465 -0.9998616
vn 0.01176465 -0.01176465 -0.9998616
vn 0.01176465 -0.01176465 -0.9998616
vn 0.01176465 -0.01176465 -0.9998616
vn 0.01176465 -0.01176465 0.9998616
vn 0.01176465 -0.01176465 0.9998616
vn 0.01176465 -0.01176465 0.9998616
vn 0.01176465 -0.01176465 0.9998616
vn 0.01176465 0.9921492 0.124505
vn 0.01176465 0.9921492 -0.124505
vn 0.01176465 0.9921492 -0.124505
vn 0.01176465 0.9921492 0.124505
vn 0.01176465 -0.01176465 -0.9998616
vn 0.01176465 -0.01176465 -0.9998616
vn 0.01176465 -0.01176465 -0.9998616
vn 0.01176465 -0.01176465 -0.9998616
vn 0.003921568 -0.9999924 0
vn 0.003921568 -0.9999924 0
vn 0.003921568 -0.9999924 0
vn 0.003921568 -0.9999924 0
vn 0.01176465 -0.01176465 0.9998616
vn 0.01176465 -0.01176465 0.9998616
vn 0.01176465 -0.01176465 0.9998616
vn 0.01176465 -0.01176465 0.9998616
vn 0.01176465 -0.01176465 0.9998616
vn 0.7882293 0.6078384 -0.09605778
vn 0.7882293 0.6078384 -0.09605778
vn 0.7882293 0.6078384 -0.09605778
vn 0.7882293 0.6078384 -0.09605778
vn 0.01176465 -0.01176465 0.9998616
vn 0.01176465 -0.01176465 0.9998616
vn 0.01176465 -0.01176465 0.9998616
vn 0.01176465 -0.01176465 0.9998616
vn -0.7774267 -0.6289735 0
vn -0.7774267 -0.6289735 0
vn -0.7774267 -0.6289735 0
vn -0.7774267 -0.6289735 0
vn 0.01176465 -0.01176465 -0.9998616
vn 0.01176465 -0.01176465 -0.9998616
vn 0.01176465 -0.01176465 -0.9998616
vn 0.01176465 -0.01176465 -0.9998616
vn 0.7882293 0.6078384 -0.09605778
vn 0.7882293 0.6078384 -0.09605778
vn 0.7882293 0.6078384 -0.09605778
vn 0.7882293 0.6078384 -0.09605778
vn 0.01176465 -0.01176465 0.9998616
vn 0.01176465 -0.01176465 0.9998616
vn 0.01176465 -0.01176465 0.9998616
vn 0.01176465 -0.01176465 0.9998616
vn -0.7774267 -0.6289735 0
vn -0.7774267 -0.6289735 0
vn -0.7774267 -0.6289735 0
vn -0.7774267 -0.6289735 0
vn 0.01176465 -0.01176465 -0.9998616
vn 0.01176465 -0.01176465 -0.9998616
vn 0.01176465 -0.01176465 -0.9998616
vn 0.01176465 -0.01176465 -0.9998616
vn 0.7882293 0.6078384 -0.09605778
vn 0.7882293 0.6078384 -0.09605778
vn 0.7882293 0.6078384 -0.09605778
vn 0.7882293 0.6078384 -0.09605778
vn 0.01176465 -0.01176465 0.9998616
vn 0.01176465 -0.01176465 0.9998616
vn 0.01176465 -0.01176465 0.9998616
vn 0.01176465 -0.01176465 0.9998616
vn -0.7803861 -0.6156816 -0.1092415
vn -0.7803861 -0.6156816 -0.1092415
vn -0.7803861 -0.6156816 -0.1092415
vn -0.7803861 -0.6156816 -0.1092415
vn 0.01176465 -0.01176465 -0.9998616
vn 0.01176465 -0.01176465 -0.9998616
vn 0.01176465 -0.01176465 -0.9998616
vn 0.01176465 -0.01176465 -0.9998616
vn 0.7960724 0.5999954 -0.07921094
vn 0.7960724 0.5999954 -0.07921094
vn 0.7960724 0.5999954 -0.07921094
vn 0.7960724 0.5999954 -0.07921094
vn -0.7882292 0.6078384 -0.0960584
vn -0.7882292 0.6078384 -0.0960584
vn -0.7882292 0.6078384 -0.0960584
vn -0.7882292 0.6078384 -0.0960584
vn 0.01176465 -0.01176465 -0.9998616
vn 0.01176465 -0.01176465 -0.9998616
vn 0.01176465 -0.01176465 -0.9998616
vn 0.01176465 -0.01176465 -0.9998616
vn 0.01176465 -0.01176465 -0.9998616
vn 0.01176465 -0.01176465 -0.9998616
vn 0.01176465 -0.01176465 -0.9998616
vn 0.01176465 -0.01176465 -0.9998616
vn 0.01176465 -0.01176465 0.9998616
vn 0.01176465 -0.01176465 0.9998616
vn 0.01176465 -0.01176465 0.9998616
vn 0.01176465 -0.01176465 0.9998616
vn -0.7704605 -0.6374877 0
vn -0.7704605 -0.6374877 0
vn -0.7704605 -0.6374877 0
vn -0.7704605 -0.6374877 0
vn 0.01176465 -0.01176465 -0.9998616
vn 0.01176465 -0.01176465 -0.9998616
vn 0.01176465 -0.01176465 -0.9998616
vn 0.01176465 -0.01176465 -0.9998616
vn 0.7842832 0.6204031 0
vn 0.7842832 0.6204031 0
vn 0.7842832 0.6204031 0
vn 0.7842832 0.6204031 0
vn -0.7774267 -0.6289735 0
vn -0.7774267 -0.6289735 0
vn -0.7774267 -0.6289735 0
vn -0.7774267 -0.6289735 0
vn 0.01176465 -0.01176465 -0.9998616
vn 0.01176465 -0.01176465 -0.9998616
vn 0.01176465 -0.01176465 -0.9998616
vn 0.01176465 -0.01176465 -0.9998616
vn 0.01176465 -0.01176465 -0.9998616
vn 0.01176465 -0.01176465 -0.9998616
vn 0.01176465 -0.01176465 -0.9998616
vn 0.01176465 -0.01176465 0.9998616
vn 0.01176465 -0.01176465 0.9998616
vn 0.01176465 -0.01176465 0.9998616
vn 0.01176465 -0.01176465 0.9998616
vn 0.01176465 -0.01176465 0.9998616
vn 0.01176465 -0.01176465 0.9998616
vn 0.01176465 -0.01176465 0.9998616
vn 0.7842831 -0.6204031 0
vn 0.7842831 -0.6204031 0
vn 0.7842831 -0.6204031 0
vn 0.7842831 -0.6204031 0
vn 0.01176465 -0.01176465 0.9998616
vn 0.01176465 -0.01176465 0.9998616
vn 0.01176465 -0.01176465 0.9998616
vn 0.01176465 -0.01176465 0.9998616
vn 0.01176465 -0.01176465 0.9998616
vn 0.01176465 -0.01176465 0.9998616
vn 0.01176465 -0.01176465 0.9998616
vn 0.7910279 -0.6117802 0
vn 0.7910279 -0.6117802 0
vn 0.7910279 -0.6117802 0
vn 0.7910279 -0.6117802 0
vn 0.01176465 -0.01176465 0.9998616
vn 0.01176465 -0.01176465 0.9998616
vn 0.01176465 -0.01176465 0.9998616
vn 0.01176465 -0.01176465 0.9998616
vn -0.7960722 0.5921522 -0.1249989
vn -0.7960722 0.5921522 -0.1249989
vn -0.7960722 0.5921522 -0.1249989
vn -0.7960722 0.5921522 -0.1249989
vn 0.01176465 -0.01176465 -0.9998616
vn 0.01176465 -0.01176465 -0.9998616
vn 0.01176465 -0.01176465 -0.9998616
vn 0.01176465 -0.01176465 -0.9998616
vn 0.8014051 -0.5981219 0
vn 0.8014051 -0.5981219 0
vn 0.8014051 -0.5981219 0
vn 0.8014051 -0.5981219 0
vn 0.01176465 -0.01176465 0.9998616
vn 0.01176465 -0.01176465 0.9998616
vn 0.01176465 -0.01176465 0.9998616
vn 0.01176465 -0.01176465 0.9998616
vn -0.8039154 0.5843092 -0.1109181
vn -0.8039154 0.5843092 -0.1109181
vn -0.8039154 0.5843092 -0.1109181
vn -0.8039154 0.5843092 -0.1109181
vn 0.01176465 -0.01176465 -0.9998616
vn 0.01176465 -0.01176465 -0.9998616
vn 0.01176465 -0.01176465 -0.9998616
vn 0.01176465 -0.01176465 -0.9998616
vn 0.8078914 -0.5893314 0
vn 0.8078914 -0.5893314 0
vn 0.8078914 -0.5893314 0
vn 0.8078914 -0.5893314 0
vn 0.01176465 -0.01176465 0.9998616
vn 0.01176465 -0.01176465 0.9998616
vn 0.01176465 -0.01176465 0.9998616
vn 0.01176465 -0.01176465 0.9998616
vn -0.7960722 0.5999954 0.07921206
vn -0.7960722 0.5999954 0.07921206
vn -0.7960722 0.5999954 -0.07921206
vn -0.7960722 0.5999954 0.07921206
vn 0.01176465 -0.01176465 -0.9998616
vn 0.01176465 -0.01176465 -0.9998616
vn 0.01176465 -0.01176465 -0.9998616
vn 0.01176465 -0.01176465 -0.9998616
vn 0.7976594 -0.6031083 0
vn 0.7976594 -0.6031083 0
vn 0.7976594 -0.6031083 0
vn 0.7976594 -0.6031083 0
vn 0.01176465 -0.01176465 0.9998616
vn 0.01176465 -0.01176465 0.9998616
vn 0.01176465 -0.01176465 0.9998616
vn 0.01176465 -0.01176465 0.9998616
vn -0.7803861 0.6156815 0.1092418
vn -0.7803861 0.6156815 0.1092418
vn -0.7803861 0.6156815 -0.1092418
vn -0.7803861 0.6156815 0.1092418
vn 0.01176465 -0.01176465 -0.9998616
vn 0.01176465 -0.01176465 -0.9998616
vn 0.01176465 -0.01176465 -0.9998616
vn 0.01176465 -0.01176465 -0.9998616
vn 0.7842831 -0.6204031 0
vn 0.7842831 -0.6204031 0
vn 0.7842831 -0.6204031 0
vn 0.7842831 -0.6204031 0
vn 0.01176465 -0.01176465 0.9998616
vn 0.01176465 -0.01176465 0.9998616
vn 0.01176465 -0.01176465 0.9998616
vn 0.01176465 -0.01176465 0.9998616
vn -0.7490138 -0.654897 -0.1004407
vn -0.7490138 -0.654897 -0.1004407
vn -0.7490138 -0.654897 -0.1004407
vn -0.7490138 -0.654897 -0.1004407
vn 0.01176465 -0.01176465 -0.9998616
vn 0.01176465 -0.01176465 -0.9998616
vn 0.01176465 -0.01176465 -0.9998616
vn 0.01176465 -0.01176465 -0.9998616
vn 0.7647001 0.6392107 -0.08150788
vn 0.7647001 0.6392107 -0.08150788
vn 0.7647001 0.6392107 -0.08150788
vn 0.7647001 0.6392107 -0.08150788
vn -0.7803861 0.6156815 0.1092418
vn -0.7803861 0.6156815 0.1092418
vn -0.7803861 0.6156815 0.1092418
vn -0.7803861 0.6156815 0.1092418
vn 0.01176465 -0.01176465 -0.9998616
vn 0.01176465 -0.01176465 -0.9998616
vn 0.01176465 -0.01176465 -0.9998616
vn 0.01176465 -0.01176465 -0.9998616
vn 0.01176465 -0.01176465 -0.9998616
vn 0.01176465 -0.01176465 -0.9998616
vn 0.01176465 -0.01176465 -0.9998616
vn 0.01176465 -0.01176465 0.9998616
vn 0.01176465 -0.01176465 0.9998616
vn 0.01176465 -0.01176465 0.9998616
vn 0.01176465 -0.01176465 0.9998616
vn 0.01176465 -0.01176465 -0.9998616
vn 0.01176465 -0.01176465 -0.9998616
vn 0.01176465 -0.01176465 -0.9998616
vn 0.01176465 -0.01176465 -0.9998616
vn 0.01176465 -0.01176465 0.9998616
vn 0.01176465 -0.01176465 0.9998616
vn 0.01176465 -0.01176465 0.9998616
vn 0.01176465 -0.01176465 0.9998616
vn 0.01176465 -0.01176465 0.9998616
vn 0.01176465 -0.01176465 0.9998616
vn 0.01176465 -0.01176465 0.9998616
vn 0.01176465 -0.01176465 0.9998616
vn 0.01176465 -0.01176465 -0.9998616
vn 0.01176465 -0.01176465 -0.9998616
vn 0.01176465 -0.01176465 -0.9998616
vn 0.01176465 -0.01176465 -0.9998616
vn 0.01176465 -0.01176465 -0.9998616
vn 0.01176465 -0.01176465 -0.9998616
vn 0.01176465 -0.01176465 -0.9998616
vn 0.01176465 -0.01176465 -0.9998616
vn 0.01176465 -0.01176465 0.9998616
vn 0.01176465 -0.01176465 0.9998616
vn 0.01176465 -0.01176465 0.9998616
vn 0.01176465 -0.01176465 0.9998616
vn 0.01176465 -0.01176465 -0.9998616
vn 0.01176465 -0.01176465 -0.9998616
vn 0.01176465 -0.01176465 -0.9998616
vn 0.01176465 -0.01176465 -0.9998616
vn 0.01176465 -0.01176465 0.9998616
vn 0.01176465 -0.01176465 0.9998616
vn 0.01176465 -0.01176465 0.9998616
vn 0.01176465 -0.01176465 0.9998616
vn 0.01176465 -0.01176465 0.9998616
vn 0.01176465 -0.01176465 0.9998616
vn 0.01176465 -0.01176465 0.9998616
vn 0.01176465 -0.01176465 0.9998616
vn 0.01176465 -0.01176465 -0.9998616
vn 0.01176465 -0.01176465 -0.9998616
vn 0.01176465 -0.01176465 -0.9998616
vn 0.01176465 -0.01176465 -0.9998616
vn 0.01176465 -0.01176465 -0.9998616
vn 0.01176465 -0.01176465 -0.9998616
vn 0.01176465 -0.01176465 -0.9998616
vn 0.01176465 -0.01176465 -0.9998616
vn 0.01176465 -0.01176465 -0.9998616
vn 0.01176465 -0.01176465 -0.9998616
vn 0.01176465 -0.01176465 -0.9998616
vn 0.01176465 -0.01176465 -0.9998616
vn 0.01176465 -0.01176465 0.9998616
vn 0.01176465 -0.01176465 0.9998616
vn 0.01176465 -0.01176465 0.9998616
vn 0.01176465 -0.01176465 0.9998616
vn 0.003921568 0.9999923 -0.000345267
vn 0.003921568 0.9999923 -0.000345267
vn 0.003921568 0.9999923 -0.000345267
vn 0.003921568 0.9999923 -0.000345267
vn 0.003921568 -0.9999924 0
vn 0.003921568 -0.9999924 0
vn 0.003921568 -0.9999924 0
vn 0.003921568 -0.9999924 0
vn 0.01176465 -0.01176465 -0.9998616
vn 0.01176465 -0.01176465 -0.9998616
vn 0.01176465 -0.01176465 -0.9998616
vn 0.01176465 -0.01176465 -0.9998616
vn 0.01176465 -0.01176465 0.9998616
vn 0.01176465 -0.01176465 0.9998616
vn 0.01176465 -0.01176465 0.9998616
vn 0.01176465 -0.01176465 0.9998616
vn 0.003921568 0.9999923 -0.000345267
vn 0.003921568 0.9999923 -0.000345267
vn 0.003921568 0.9999923 -0.000345267
vn 0.003921568 0.9999923 -0.000345267
vn 0.003921568 -0.9999924 0
vn 0.003921568 -0.9999924 0
vn 0.003921568 -0.9999924 0
vn 0.003921568 -0.9999924 0
vn 0.01176465 -0.01176465 -0.9998616
vn 0.01176465 -0.01176465 -0.9998616
vn 0.01176465 -0.01176465 -0.9998616
vn 0.01176465 -0.01176465 -0.9998616
vn 0.01176465 -0.01176465 0.9998616
vn 0.01176465 -0.01176465 0.9998616
vn 0.01176465 -0.01176465 0.9998616
vn 0.01176465 -0.01176465 0.9998616
vn 0.003921568 0.9999923 -0.000345267
vn 0.003921568 0.9999923 -0.000345267
vn 0.003921568 0.9999923 -0.000345267
vn 0.003921568 0.9999923 -0.000345267
vn 0.003921568 -0.9999924 0
vn 0.003921568 -0.9999924 0
vn 0.003921568 -0.9999924 0
vn 0.003921568 -0.9999924 0
g DSJ_GTA_daoJu_weiQiang_04_0
f 3/3/3 2/2/2 1/1/1
f 6/6/6 5/5/5 4/4/4
f 9/9/9 8/8/8 7/7/7
f 10/10/10 7/7/7 8/8/8
f 13/13/13 12/12/12 11/11/11
f 16/16/16 15/15/15 14/14/14
f 19/19/19 18/18/18 17/17/17
f 20/20/20 17/17/17 18/18/18
f 23/23/23 22/22/22 21/21/21
f 26/26/26 25/25/25 24/24/24
f 29/29/29 28/28/28 27/27/27
f 32/32/32 31/31/31 30/30/30
f 35/35/35 34/34/34 33/33/33
f 36/36/36 33/33/33 34/34/34
f 39/39/39 38/38/38 37/37/37
f 40/40/40 37/37/37 38/38/38
f 43/43/43 42/42/42 41/41/41
f 44/44/44 41/41/41 42/42/42
f 47/47/47 46/46/46 45/45/45
f 48/48/48 45/45/45 46/46/46
f 51/51/51 50/50/50 49/49/49
f 52/52/52 49/49/49 50/50/50
f 55/55/55 54/54/54 53/53/53
f 58/58/58 57/57/57 56/56/56
f 61/61/61 60/60/60 59/59/59
f 62/62/62 59/59/59 60/60/60
f 65/65/65 64/64/64 63/63/63
f 68/68/68 67/67/67 66/66/66
f 71/71/71 70/70/70 69/69/69
f 72/72/72 69/69/69 70/70/70
f 75/75/75 74/74/74 73/73/73
f 76/76/76 73/73/73 74/74/74
f 79/79/79 78/78/78 77/77/77
f 80/80/80 77/77/77 78/78/78
f 83/83/83 82/82/82 81/81/81
f 84/84/84 81/81/81 82/82/82
f 87/87/87 86/86/86 85/85/85
f 88/88/88 85/85/85 86/86/86
f 91/91/91 90/90/90 89/89/89
f 92/92/92 89/89/89 90/90/90
f 95/95/95 94/94/94 93/93/93
f 96/96/96 93/93/93 94/94/94
f 99/99/99 98/98/98 97/97/97
f 100/100/100 97/97/97 98/98/98
f 103/103/103 102/102/102 101/101/101
f 102/102/102 104/104/104 101/101/101
f 104/104/104 105/105/105 101/101/101
f 108/108/108 107/107/107 106/106/106
f 109/109/109 106/106/106 107/107/107
f 112/112/112 111/111/111 110/110/110
f 113/113/113 110/110/110 111/111/111
f 116/116/116 115/115/115 114/114/114
f 117/117/117 114/114/114 115/115/115
f 120/120/120 119/119/119 118/118/118
f 121/121/121 118/118/118 119/119/119
f 124/124/124 123/123/123 122/122/122
f 125/125/125 122/122/122 123/123/123
f 128/128/128 127/127/127 126/126/126
f 129/129/129 126/126/126 127/127/127
f 132/132/132 131/131/131 130/130/130
f 133/133/133 130/130/130 131/131/131
f 136/136/136 135/135/135 134/134/134
f 137/137/137 134/134/134 135/135/135
f 140/140/140 139/139/139 138/138/138
f 141/141/141 138/138/138 139/139/139
f 144/144/144 143/143/143 142/142/142
f 145/145/145 142/142/142 143/143/143
f 148/148/148 147/147/147 146/146/146
f 149/149/149 146/146/146 147/147/147
f 152/152/152 151/151/151 150/150/150
f 153/153/153 150/150/150 151/151/151
f 156/156/156 155/155/155 154/154/154
f 157/157/157 154/154/154 155/155/155
f 160/160/160 159/159/159 158/158/158
f 161/161/161 158/158/158 159/159/159
f 164/164/164 163/163/163 162/162/162
f 166/166/166 165/165/165 162/162/162
f 169/169/169 168/168/168 167/167/167
f 172/172/172 171/171/171 170/170/170
f 173/173/173 170/170/170 171/171/171
f 176/176/176 175/175/175 174/174/174
f 177/177/177 174/174/174 175/175/175
f 180/180/180 179/179/179 178/178/178
f 181/181/181 178/178/178 179/179/179
f 184/184/184 183/183/183 182/182/182
f 185/185/185 182/182/182 183/183/183
f 188/188/188 187/187/187 186/186/186
f 189/189/189 186/186/186 187/187/187
f 192/192/192 191/191/191 190/190/190
f 191/191/191 193/193/193 190/190/190
f 196/196/196 195/195/195 194/194/194
f 199/199/199 198/198/198 197/197/197
f 202/202/202 201/201/201 200/200/200
f 201/201/201 203/203/203 200/200/200
f 206/206/206 205/205/205 204/204/204
f 207/207/207 204/204/204 205/205/205
f 210/210/210 209/209/209 208/208/208
f 213/213/213 212/212/212 211/211/211
f 212/212/212 214/214/214 211/211/211
f 217/217/217 216/216/216 215/215/215
f 218/218/218 215/215/215 216/216/216
f 221/221/221 220/220/220 219/219/219
f 222/222/222 219/219/219 220/220/220
f 225/225/225 224/224/224 223/223/223
f 226/226/226 223/223/223 224/224/224
f 229/229/229 228/228/228 227/227/227
f 230/230/230 227/227/227 228/228/228
f 233/233/233 232/232/232 231/231/231
f 234/234/234 231/231/231 232/232/232
f 237/237/237 236/236/236 235/235/235
f 238/238/238 235/235/235 236/236/236
f 241/241/241 240/240/240 239/239/239
f 242/242/242 239/239/239 240/240/240
f 245/245/245 244/244/244 243/243/243
f 246/246/246 243/243/243 244/244/244
f 249/249/249 248/248/248 247/247/247
f 250/250/250 247/247/247 248/248/248
f 253/253/253 252/252/252 251/251/251
f 254/254/254 251/251/251 252/252/252
f 257/257/257 256/256/256 255/255/255
f 258/258/258 255/255/255 256/256/256
f 261/261/261 260/260/260 259/259/259
f 262/262/262 259/259/259 260/260/260
f 265/265/265 264/264/264 263/263/263
f 266/266/266 263/263/263 264/264/264
f 269/269/269 268/268/268 267/267/267
f 270/270/270 267/267/267 268/268/268
f 273/273/273 272/272/272 271/271/271
f 274/274/274 271/271/271 272/272/272
f 277/277/277 276/276/276 275/275/275
f 278/278/278 275/275/275 276/276/276
f 281/281/281 280/280/280 279/279/279
f 282/282/282 279/279/279 280/280/280
f 285/285/285 284/284/284 283/283/283
f 286/286/286 283/283/283 284/284/284
f 289/289/289 288/288/288 287/287/287
f 290/290/290 287/287/287 288/288/288
f 293/293/293 292/292/292 291/291/291
f 294/294/294 291/291/291 292/292/292
f 297/297/297 296/296/296 295/295/295
f 298/298/298 295/295/295 296/296/296
f 301/301/301 300/300/300 299/299/299
f 302/302/302 299/299/299 300/300/300
f 305/305/305 304/304/304 303/303/303
f 304/304/304 306/306/306 303/303/303
f 309/309/309 308/308/308 307/307/307
f 312/312/312 311/311/311 310/310/310
f 313/313/313 310/310/310 311/311/311
f 316/316/316 315/315/315 314/314/314
f 317/317/317 314/314/314 315/315/315
f 320/320/320 319/319/319 318/318/318
f 321/321/321 318/318/318 319/319/319
f 324/324/324 323/323/323 322/322/322
f 325/325/325 322/322/322 323/323/323
f 328/328/328 327/327/327 326/326/326
f 329/329/329 326/326/326 327/327/327
f 332/332/332 331/331/331 330/330/330
f 333/333/333 330/330/330 331/331/331
f 336/336/336 335/335/335 334/334/334
f 337/337/337 334/334/334 335/335/335
f 340/340/340 339/339/339 338/338/338
f 341/341/341 338/338/338 339/339/339
f 344/344/344 343/343/343 342/342/342
f 345/345/345 342/342/342 343/343/343
f 348/348/348 347/347/347 346/346/346
f 349/349/349 346/346/346 347/347/347
f 352/352/352 351/351/351 350/350/350
f 353/353/353 350/350/350 351/351/351
f 356/356/356 355/355/355 354/354/354
f 357/357/357 354/354/354 355/355/355
f 360/360/360 359/359/359 358/358/358
f 361/361/361 358/358/358 359/359/359
f 364/364/364 363/363/363 362/362/362
f 365/365/365 362/362/362 363/363/363
f 368/368/368 367/367/367 366/366/366
f 369/369/369 366/366/366 367/367/367
f 372/372/372 371/371/371 370/370/370
f 373/373/373 370/370/370 371/371/371
f 376/376/376 375/375/375 374/374/374
f 377/377/377 374/374/374 375/375/375
f 380/380/380 379/379/379 378/378/378
f 381/381/381 378/378/378 379/379/379
f 384/384/384 383/383/383 382/382/382
f 385/385/385 382/382/382 383/383/383
f 388/388/388 387/387/387 386/386/386
f 389/389/389 386/386/386 387/387/387
f 392/392/392 391/391/391 390/390/390
f 393/393/393 390/390/390 391/391/391
f 396/396/396 395/395/395 394/394/394
f 397/397/397 394/394/394 395/395/395
f 400/400/400 399/399/399 398/398/398
f 401/401/401 398/398/398 399/399/399
f 404/404/404 403/403/403 402/402/402
f 405/405/405 402/402/402 403/403/403
