g DSJ_GTA_diLou_26
v -31.63604 -4.5492 9.82766
v -26.49648 -4.5492 10.73056
v -33.23347 -4.5492 7.952419
v -26.49648 -4.5492 10.73056
v -26.49648 -4.5492 2.604504
v -33.71964 -4.5492 2.604504
v -27.05211 4.549202 10.10547
v -28.78844 4.549202 10.38329
v -28.78844 7.535698 4.757561
v -30.52478 4.549202 -0.7292595
v -28.92735 4.549202 -0.6598053
v -28.78844 7.535698 4.757561
v -28.78844 4.549202 10.38329
v -33.09456 4.549202 7.674603
v -28.78844 7.535698 4.757561
v -23.64889 4.549202 4.618652
v -23.64889 4.549202 6.285534
v -28.78844 7.535698 4.757561
v -23.64889 4.549202 6.285534
v -27.05211 4.549202 10.10547
v -28.78844 7.535698 4.757561
v -33.78909 4.549202 5.729908
v -32.12222 4.549202 0.312542
v -28.78844 7.535698 4.757561
v -32.12222 4.549202 0.312542
v -30.52478 4.549202 -0.7292595
v -28.78844 7.535698 4.757561
v -33.09456 4.549202 7.674603
v -33.78909 4.549202 5.729908
v -28.78844 7.535698 4.757561
v -29.20517 3.437946 -11.98072
v -29.13571 3.507401 5.174282
v -29.41353 -4.5492 -11.98072
v -29.13571 -4.5492 5.174282
v -29.27462 -4.5492 0.1041794
v -29.27462 -11.00837 0.1041794
v -29.41353 -4.5492 -11.98072
v -29.41353 -11.00837 -11.98072
v -24.27398 -4.5492 5.382641
v -24.27398 -11.00837 5.382641
v -29.06626 -4.5492 1.562702
v -29.06626 -11.00837 1.562702
v -0.312542 10.93892 5.174282
v -0.312542 10.93892 -12.05017
v 26.98266 10.80001 5.104828
v 26.98266 10.80001 -12.05017
v -0.312542 3.437946 5.174282
v -0.312542 10.93892 5.174282
v 26.98266 3.368492 5.104828
v 26.98266 10.80001 5.104828
v 33.30292 -4.688107 5.799362
v 33.30292 -11.14728 5.799362
v 28.02446 -4.618652 5.799362
v 28.02446 -11.14728 5.799362
v -29.13571 11.00837 5.174282
v -29.13571 11.00837 -11.98072
v -0.312542 10.93892 5.174282
v -0.312542 10.93892 -12.05017
v 35.38652 10.80001 -12.05017
v 35.38652 10.80001 5.104828
v 26.98266 10.80001 -12.05017
v 26.98266 10.80001 5.104828
v -29.13571 3.507401 5.174282
v -29.13571 11.00837 5.174282
v -0.312542 3.437946 5.174282
v -0.312542 10.93892 5.174282
v 35.38652 3.299038 5.104828
v 35.38652 -4.688107 5.104828
v 26.98266 3.368492 5.104828
v 26.98266 -4.618652 5.104828
v -29.13571 11.00837 -11.98072
v -29.13571 11.00837 5.174282
v -29.20517 3.437946 -11.98072
v -29.13571 3.507401 5.174282
v 26.98266 -4.618652 5.104828
v -0.312542 -4.5492 5.174282
v 26.98266 3.368492 5.104828
v -0.312542 3.437946 5.174282
v -0.312542 -4.5492 5.174282
v -29.13571 -4.5492 5.174282
v -0.312542 3.437946 5.174282
v -29.13571 3.507401 5.174282
v 26.98266 10.80001 5.104828
v 35.38652 10.80001 5.104828
v 26.98266 3.368492 5.104828
v 35.38652 3.299038 5.104828
v 28.02446 -4.618652 5.799362
v 28.02446 -11.14728 5.799362
v 25.80195 -4.618652 5.799362
v 25.80195 -11.14728 5.799362
v -1.284889 -4.5492 5.799362
v 0.7292595 -4.618652 5.799362
v -1.284889 -11.07782 5.799362
v 0.7292595 -11.07782 5.799362
v 35.38652 -11.14728 5.799362
v 33.30292 -11.14728 5.799362
v 35.38652 -4.688107 5.799362
v 33.30292 -4.688107 5.799362
v -29.06626 -11.00837 1.562702
v -29.27462 -11.00837 0.1041794
v -29.06626 -4.5492 1.562702
v -29.27462 -4.5492 0.1041794
v -22.60709 -11.00837 5.868816
v -24.27398 -11.00837 5.382641
v -22.60709 -4.5492 5.868816
v -24.27398 -4.5492 5.382641
v 35.38652 -4.688107 5.104828
v 35.38652 -11.14728 5.104828
v 35.38652 -4.688107 5.799362
v 35.38652 -11.14728 5.799362
v -33.71964 -4.5492 2.604504
v -26.49648 -4.5492 2.604504
v -33.71964 -4.5492 -11.84181
v -26.56594 -4.5492 -11.91126
v -26.49648 -4.5492 10.73056
v -17.88426 -4.618652 10.73056
v -26.49648 -4.5492 2.604504
v -13.30033 -4.618652 10.73056
v -9.549847 -4.618652 10.73056
v -5.799362 -4.618652 10.73056
v -2.048878 -4.618652 10.73056
v 2.326691 -4.618652 10.73056
v 35.52543 -4.688107 2.673958
v 15.38393 -4.688107 10.73056
v 19.96786 -4.688107 10.73056
v 23.64889 -4.688107 10.6611
v 27.46883 -4.688107 10.6611
v 31.14986 -4.688107 10.6611
v 35.52543 -4.688107 10.6611
v -31.91385 -2.396141 1.007076
v -30.52478 -2.396141 0.034729
v -33.37238 0.8681679 -0.9376221
v -31.08041 0.8681679 -2.326691
v -31.08041 0.8681679 -2.326691
v -30.24697 2.535049 0.1041794
v -33.37238 0.8681679 -0.9376221
v -31.63604 2.535049 1.007076
v -24.41288 2.535049 4.757561
v -22.39873 0.8681679 4.618652
v -24.41288 2.535049 6.146629
v -22.39873 0.8681679 6.702255
v -30.52478 4.549202 -0.7292595
v -32.12222 4.549202 0.312542
v -30.24697 2.535049 0.1041794
v -31.63604 2.535049 1.007076
v -23.64889 4.549202 6.285534
v -23.64889 4.549202 4.618652
v -24.41288 2.535049 6.146629
v -24.41288 2.535049 4.757561
v -34.55309 0.8681679 8.438591
v -32.74729 -2.396141 7.535698
v -35.52543 0.8681679 6.007721
v -33.37238 -2.396141 5.799362
v -34.55309 0.8681679 8.438591
v -35.52543 0.8681679 6.007721
v -32.46948 2.535049 7.327335
v -33.02511 2.535049 5.660454
v -33.09456 4.549202 7.674603
v -32.46948 2.535049 7.327335
v -33.78909 4.549202 5.729908
v -33.02511 2.535049 5.660454
v -28.92735 0.8681679 11.98072
v -26.70485 0.8681679 11.7029
v -29.06626 -2.396141 9.897114
v -27.39938 -2.396141 9.619301
v -28.92735 0.8681679 11.98072
v -28.78844 2.535049 9.619301
v -26.70485 0.8681679 11.7029
v -27.26047 2.535049 9.341488
v -28.78844 4.549202 10.38329
v -27.05211 4.549202 10.10547
v -28.78844 2.535049 9.619301
v -27.26047 2.535049 9.341488
v -24.55179 -2.465595 4.827015
v -24.55179 -2.465595 6.285534
v -22.39873 0.8681679 4.618652
v -22.39873 0.8681679 6.702255
v 35.38652 10.80001 5.104828
v 35.38652 10.80001 -12.05017
v 35.38652 3.299038 5.104828
v 35.38652 3.299038 -12.05017
v 35.38652 3.299038 5.104828
v 35.38652 3.299038 -12.05017
v 35.38652 -4.688107 5.104828
v 35.38652 -4.688107 -12.05017
v 35.38652 -4.688107 5.104828
v 35.38652 -4.688107 -3.507397
v 35.38652 -11.14728 -3.507397
v 35.38652 -4.688107 -12.05017
v 35.31707 -11.14728 -12.05017
v 35.38652 -11.14728 5.104828
v 25.80195 -4.618652 5.799362
v 25.80195 -11.14728 5.799362
v 13.36979 -4.618652 5.799362
v 13.30033 -11.07782 5.799362
v 0.7292595 -11.07782 5.799362
v 0.7292595 -4.618652 5.799362
v 13.30033 -11.07782 5.799362
v 13.36979 -4.618652 5.799362
v -22.60709 -11.00837 5.868816
v -22.60709 -4.5492 5.868816
v -11.98072 -11.00837 5.868816
v -11.98072 -4.5492 5.868816
v -1.284889 -4.5492 5.799362
v -1.284889 -11.07782 5.799362
v -11.98072 -4.5492 5.868816
v -11.98072 -11.00837 5.868816
v 26.84375 3.368492 -12.05017
v 26.98266 10.80001 -12.05017
v -0.4514465 3.437946 -12.05017
v -0.312542 10.93892 -12.05017
v 26.84375 -4.618652 -12.05017
v 26.84375 3.368492 -12.05017
v -0.5903549 -4.618652 -12.05017
v -0.4514465 3.437946 -12.05017
v 26.7743 -11.14728 -12.05017
v 26.84375 -4.618652 -12.05017
v -0.5903549 -11.07782 -12.05017
v -0.5903549 -4.618652 -12.05017
v -0.5903549 -11.07782 -12.05017
v -0.5903549 -4.618652 -12.05017
v -29.41353 -11.00837 -11.98072
v -29.41353 -4.5492 -11.98072
v -0.5903549 -4.618652 -12.05017
v -0.4514465 3.437946 -12.05017
v -29.41353 -4.5492 -11.98072
v -29.20517 3.437946 -11.98072
v -0.4514465 3.437946 -12.05017
v -0.312542 10.93892 -12.05017
v -29.20517 3.437946 -11.98072
v -29.13571 11.00837 -11.98072
v 35.38652 3.299038 -12.05017
v 35.38652 10.80001 -12.05017
v 26.84375 3.368492 -12.05017
v 26.98266 10.80001 -12.05017
v 35.38652 -4.688107 -12.05017
v 35.38652 3.299038 -12.05017
v 26.84375 -4.618652 -12.05017
v 26.84375 3.368492 -12.05017
v 35.31707 -11.14728 -12.05017
v 35.38652 -4.688107 -12.05017
v 26.7743 -11.14728 -12.05017
v 26.84375 -4.618652 -12.05017
vt 0.1588354 0.8557037
vt 0.1472209 0.9253905
vt 0.1820643 0.8208602
vt 0.1472209 0.9253905
vt 0.2169077 0.9253905
vt 0.2169077 0.8092458
vt 0.1704499 0.7898883
vt 0.1472209 0.7898883
vt 0.1820643 0.9253905
vt 0.1704499 0.7898883
vt 0.1472209 0.7898883
vt 0.1820643 0.9253905
vt 0.2169077 0.7898883
vt 0.1472209 0.7898883
vt 0.1820643 0.9253905
vt 0.1820643 0.7898883
vt 0.1665784 0.7898883
vt 0.1820643 0.9253905
vt 0.2091648 0.7898883
vt 0.1472209 0.7898883
vt 0.1820643 0.9253905
vt 0.2091648 0.7898883
vt 0.1472209 0.7898883
vt 0.1820643 0.9253905
vt 0.1936788 0.7898883
vt 0.1704499 0.7898883
vt 0.1820643 0.9253905
vt 0.2169077 0.7898883
vt 0.1936788 0.7898883
vt 0.1820643 0.9253905
vt 0.700844 0.3640244
vt 0.8440892 0.3640244
vt 0.700844 0.2517512
vt 0.8440892 0.2517512
vt 0.9408764 0.6272857
vt 0.9408764 0.5033981
vt 0.7473019 0.6272857
vt 0.7473019 0.5033981
vt 0.9989488 0.6272857
vt 0.9989488 0.4995265
vt 0.9370049 0.6272857
vt 0.9370049 0.4995265
vt 0.1472209 0.9253905
vt 0.2169077 0.9253905
vt 0.1472209 0.8092458
vt 0.2169077 0.8092458
vt 0.700844 0.2517512
vt 0.700844 0.3640244
vt 0.8944185 0.2517512
vt 0.8944185 0.3640244
vt 0.9950773 0.6079283
vt 0.9950773 0.5033981
vt 0.9331334 0.6079283
vt 0.9331334 0.5033981
vt 0.1472209 0.9253905
vt 0.2169077 0.9253905
vt 0.1472209 0.8092458
vt 0.2169077 0.8092458
vt 0.2169077 0.8092458
vt 0.1472209 0.8092458
vt 0.2169077 0.9253905
vt 0.1472209 0.9253905
vt 0.700844 0.2517512
vt 0.700844 0.3640244
vt 0.8944185 0.2517512
vt 0.8944185 0.3640244
vt 0.7898883 0.3640244
vt 0.7898883 0.2517512
vt 0.700844 0.3640244
vt 0.700844 0.2517512
vt 0.700844 0.3640244
vt 0.8944185 0.3640244
vt 0.700844 0.2517512
vt 0.8944185 0.2517512
vt 0.8944185 0.2517512
vt 0.700844 0.2517512
vt 0.8944185 0.3640244
vt 0.700844 0.3640244
vt 0.8944185 0.2517512
vt 0.700844 0.2517512
vt 0.8944185 0.3640244
vt 0.700844 0.3640244
vt 0.700844 0.3640244
vt 0.7898883 0.3640244
vt 0.700844 0.2517512
vt 0.7898883 0.2517512
vt 0.1665784 0.9253905
vt 0.1588354 0.8092458
vt 0.1472209 0.9253905
vt 0.1472209 0.8092458
vt 0.1472209 0.9253905
vt 0.1665784 0.9253905
vt 0.1472209 0.8092458
vt 0.1588354 0.8092458
vt 0.1588354 0.8092458
vt 0.1472209 0.8092458
vt 0.1588354 0.9253905
vt 0.1472209 0.9253905
vt 0.1588354 0.8092458
vt 0.1472209 0.8092458
vt 0.1665784 0.9253905
vt 0.1472209 0.9253905
vt 0.1588354 0.8092458
vt 0.1472209 0.8092458
vt 0.1665784 0.9253905
vt 0.1472209 0.9253905
vt 0.1665784 0.9253905
vt 0.1665784 0.8092458
vt 0.1588354 0.9253905
vt 0.1588354 0.8092458
vt 0.1472209 0.8092458
vt 0.1472209 0.9253905
vt 0.2169077 0.8092458
vt 0.2169077 0.9253905
vt 0.1472209 0.9253905
vt 0.1549639 0.9253905
vt 0.1472209 0.8092458
vt 0.1588354 0.9253905
vt 0.1665784 0.9253905
vt 0.1704499 0.9253905
vt 0.1781928 0.9253905
vt 0.1820643 0.9253905
vt 0.2169077 0.8092458
vt 0.1859358 0.9253905
vt 0.1975503 0.9253905
vt 0.1975503 0.9253905
vt 0.2052933 0.9253905
vt 0.2091648 0.9253905
vt 0.2169077 0.9253905
vt 0.2362652 0.921519
vt 0.2362652 0.8557037
vt 0.131735 0.921519
vt 0.131735 0.8557037
vt 0.2362652 0.8557037
vt 0.131735 0.8557037
vt 0.2362652 0.921519
vt 0.131735 0.921519
vt 0.131735 0.921519
vt 0.2362652 0.921519
vt 0.131735 0.8557037
vt 0.2362652 0.8557037
vt 0.131735 0.8557037
vt 0.131735 0.921519
vt 0.2362652 0.8557037
vt 0.2362652 0.921519
vt 0.131735 0.8557037
vt 0.131735 0.921519
vt 0.2362652 0.8557037
vt 0.2362652 0.921519
vt 0.131735 0.921519
vt 0.2362652 0.921519
vt 0.131735 0.8557037
vt 0.2362652 0.8557037
vt 0.2362652 0.921519
vt 0.2362652 0.8557037
vt 0.131735 0.921519
vt 0.131735 0.8557037
vt 0.131735 0.921519
vt 0.2362652 0.921519
vt 0.131735 0.8557037
vt 0.2362652 0.8557037
vt 0.131735 0.8557037
vt 0.131735 0.921519
vt 0.2362652 0.8557037
vt 0.2362652 0.921519
vt 0.2362652 0.8557037
vt 0.131735 0.8557037
vt 0.2362652 0.921519
vt 0.131735 0.921519
vt 0.131735 0.8557037
vt 0.131735 0.921519
vt 0.2362652 0.8557037
vt 0.2362652 0.921519
vt 0.2362652 0.921519
vt 0.2362652 0.8557037
vt 0.131735 0.921519
vt 0.131735 0.8557037
vt 0.700844 0.3640244
vt 0.8944185 0.3640244
vt 0.700844 0.2517512
vt 0.8944185 0.2517512
vt 0.700844 0.3640244
vt 0.8944185 0.3640244
vt 0.700844 0.2517512
vt 0.8944185 0.2517512
vt 0.7473019 0.6079283
vt 0.8402177 0.6079283
vt 0.8402177 0.5033981
vt 0.9408764 0.6079283
vt 0.9408764 0.5033981
vt 0.7473019 0.5033981
vt 0.9408764 0.6272857
vt 0.9408764 0.4995265
vt 0.7434304 0.6272857
vt 0.7434304 0.4995265
vt 0.7434304 0.4995265
vt 0.7434304 0.6272857
vt 0.9408764 0.4995265
vt 0.9408764 0.6272857
vt 0.7434304 0.4995265
vt 0.7434304 0.6272857
vt 0.9408764 0.4995265
vt 0.9408764 0.6272857
vt 0.9408764 0.6272857
vt 0.9408764 0.4995265
vt 0.7434304 0.6272857
vt 0.7434304 0.4995265
vt 0.700844 0.2517512
vt 0.700844 0.3640244
vt 0.8944185 0.2517512
vt 0.8944185 0.3640244
vt 0.700844 0.2517512
vt 0.700844 0.3640244
vt 0.8944185 0.2517512
vt 0.8944185 0.3640244
vt 0.7434304 0.5227555
vt 0.7434304 0.6234142
vt 0.9950773 0.5227555
vt 0.9950773 0.6234142
vt 0.9950773 0.5227555
vt 0.9950773 0.6234142
vt 0.7434304 0.5227555
vt 0.7434304 0.6234142
vt 0.8944185 0.2517512
vt 0.8944185 0.3640244
vt 0.700844 0.2517512
vt 0.700844 0.3640244
vt 0.8944185 0.2517512
vt 0.8944185 0.3640244
vt 0.700844 0.2517512
vt 0.700844 0.3640244
vt 0.7821453 0.2517512
vt 0.7821453 0.3640244
vt 0.700844 0.2517512
vt 0.700844 0.3640244
vt 0.7821453 0.2517512
vt 0.7821453 0.3640244
vt 0.700844 0.2517512
vt 0.700844 0.3640244
vt 0.8247317 0.5227555
vt 0.8247317 0.6234142
vt 0.7434304 0.5227555
vt 0.7434304 0.6234142
vn 0.01587099 -0.999874 -0.000345267
vn 0.01587099 -0.999874 -0.000345267
vn 0.01587099 -0.999874 -0.000345267
vn 0.01587099 -0.999874 -0.000345267
vn 0.01587099 -0.999874 -0.000345267
vn 0.01587099 -0.999874 -0.000345267
vn 0.1110971 0.8729059 0.4750714
vn 0.1110971 0.8729059 0.4750714
vn 0.1110971 0.8729059 0.4750714
vn 0.07935506 0.8729059 -0.4813919
vn 0.07935506 0.8729059 -0.4813919
vn 0.07935506 0.8729059 -0.4813919
vn -0.2698073 0.8411639 0.4686655
vn -0.2698073 0.8411639 0.4686655
vn -0.2698073 0.8411639 0.4686655
vn 0.5510615 0.8344646 0
vn 0.5510615 0.8344646 0
vn 0.5510615 0.8344646 0
vn 0.4285174 0.8411639 0.329873
vn 0.4285174 0.8411639 0.329873
vn 0.4285174 0.8411639 0.329873
vn -0.4920015 0.8411639 -0.2244501
vn -0.4920015 0.8411639 -0.2244501
vn -0.4920015 0.8411639 -0.2244501
vn -0.2380652 0.8729059 -0.4258642
vn -0.2380652 0.8729059 -0.4258642
vn -0.2380652 0.8729059 -0.4258642
vn -0.4285175 0.8411639 0.3298728
vn -0.4285175 0.8411639 0.3298728
vn -0.4285175 0.8411639 0.3298728
vn -0.968132 0.01587105 0.249937
vn -0.968132 0.01587105 0.249937
vn -0.968132 0.01587105 0.249937
vn -0.968132 -0.04761302 0.2458728
vn -0.968132 -0.04761302 0.2458728
vn -0.968132 -0.04761302 0.2458728
vn -0.968132 -0.04761302 0.2458728
vn -0.968132 -0.04761302 0.2458728
vn -0.6189697 -0.04761302 0.7839704
vn -0.6189697 -0.04761302 0.7839704
vn -0.6189697 -0.04761302 0.7839704
vn -0.6189697 -0.04761302 0.7839704
vn 0.01587099 0.999874 -0.000345267
vn 0.01587099 0.999874 -0.000345267
vn 0.01587099 0.999874 -0.000345267
vn 0.01587099 0.999874 -0.000345267
vn 0.04761302 -0.04761302 0.9977304
vn 0.04761302 -0.04761302 0.9977304
vn 0.04761302 -0.04761302 0.9977304
vn 0.04761302 -0.04761302 0.9977304
vn 0.04761302 -0.04761302 0.9977304
vn 0.04761302 -0.04761302 0.9977304
vn 0.04761302 -0.04761302 0.9977304
vn 0.04761302 -0.04761302 0.9977304
vn 0.01587099 0.999874 -0.000345267
vn 0.01587099 0.999874 -0.000345267
vn 0.01587099 0.999874 -0.000345267
vn 0.01587099 0.999874 -0.000345267
vn 0.01587099 0.999874 -0.000345267
vn 0.01587099 0.999874 -0.000345267
vn 0.01587099 0.999874 -0.000345267
vn 0.01587099 0.999874 -0.000345267
vn 0.04761302 -0.04761302 0.9977304
vn 0.04761302 -0.04761302 0.9977304
vn 0.04761302 -0.04761302 0.9977304
vn 0.04761302 -0.04761302 0.9977304
vn 0.04761302 -0.04761302 0.9977304
vn 0.04761302 -0.04761302 0.9977304
vn 0.04761302 -0.04761302 0.9977304
vn 0.04761302 -0.04761302 0.9977304
vn -0.968132 -0.04761302 0.2458728
vn -0.968132 -0.04761302 0.2458728
vn -0.968132 -0.04761302 0.2458728
vn -0.968132 -0.04761302 0.2458728
vn 0.04761302 -0.04761302 0.9977304
vn 0.04761302 -0.04761302 0.9977304
vn 0.04761302 -0.04761302 0.9977304
vn 0.04761302 -0.04761302 0.9977304
vn 0.04761302 -0.04761302 0.9977304
vn 0.04761302 -0.04761302 0.9977304
vn 0.04761302 -0.04761302 0.9977304
vn 0.04761302 -0.04761302 0.9977304
vn 0.04761302 -0.04761302 0.9977304
vn 0.04761302 -0.04761302 0.9977304
vn 0.04761302 -0.04761302 0.9977304
vn 0.04761302 -0.04761302 0.9977304
vn 0.04761302 -0.04761302 0.9977304
vn 0.04761302 -0.04761302 0.9977304
vn 0.04761302 -0.04761302 0.9977304
vn 0.04761302 -0.04761302 0.9977304
vn 0.04761302 -0.04761302 0.9977304
vn 0.04761302 -0.04761302 0.9977304
vn 0.04761302 -0.04761302 0.9977304
vn 0.04761302 -0.04761302 0.9977304
vn 0.04761302 -0.04761302 0.9977304
vn 0.04761302 -0.04761302 0.9977304
vn 0.04761302 -0.04761302 0.9977304
vn 0.04761302 -0.04761302 0.9977304
vn -0.968132 -0.04761302 0.2458728
vn -0.968132 -0.04761302 0.2458728
vn -0.968132 -0.04761302 0.2458728
vn -0.968132 -0.04761302 0.2458728
vn -0.2698073 -0.04761302 0.9617364
vn -0.2698073 -0.04761302 0.9617364
vn -0.2698073 -0.04761302 0.9617364
vn -0.2698073 -0.04761302 0.9617364
vn 0.999874 -0.01587099 -0.000346655
vn 0.999874 -0.01587099 -0.000346655
vn 0.999874 -0.01587099 -0.000346655
vn 0.999874 -0.01587099 -0.000346655
vn 0.01587099 -0.999874 -0.000345267
vn 0.01587099 -0.999874 -0.000345267
vn 0.01587099 -0.999874 -0.000345267
vn 0.01587099 -0.999874 -0.000345267
vn 0.01587099 -0.999874 -0.000345267
vn 0.01587099 -0.999874 -0.000345267
vn 0.01587099 -0.999874 -0.000345267
vn 0.01587099 -0.999874 -0.000345267
vn 0.01587099 -0.999874 -0.000345267
vn 0.01587099 -0.999874 -0.000345267
vn 0.01587099 -0.999874 -0.000345267
vn 0.01587099 -0.999874 -0.000345267
vn 0.01587099 -0.999874 -0.000345267
vn 0.01587099 -0.999874 -0.000345267
vn 0.01587099 -0.999874 -0.000345267
vn 0.01587099 -0.999874 -0.000345267
vn 0.01587099 -0.999874 -0.000345267
vn 0.01587099 -0.999874 -0.000345267
vn 0.01587099 -0.999874 -0.000345267
vn -0.4285175 -0.6189696 -0.6582168
vn -0.4285175 -0.6189696 -0.6582168
vn -0.4285175 -0.6189696 -0.6582168
vn -0.4285175 -0.6189696 -0.6582168
vn -0.2698073 0.8411639 -0.4686655
vn -0.2698073 0.8411639 -0.4686655
vn -0.2698073 0.8411639 -0.4686655
vn -0.2698073 0.8411639 -0.4686655
vn 0.6507117 0.7459378 -0.1419545
vn 0.6507117 0.7459378 -0.1419545
vn 0.6507117 0.7459378 -0.1419545
vn 0.6507117 0.7459378 -0.1419545
vn -0.4920015 -0.4602594 -0.7389829
vn -0.4920015 -0.4602594 -0.7389829
vn -0.4920015 -0.4602594 -0.7389829
vn -0.4920015 -0.4602594 -0.7389829
vn 0.931708 -0.3632082 0
vn 0.931708 -0.3632082 0
vn 0.931708 -0.3632082 0
vn 0.931708 -0.3632082 0
vn -0.7776798 -0.5554855 0.2943636
vn -0.7776798 -0.5554855 0.2943636
vn -0.7776798 -0.5554855 0.2943636
vn -0.7776798 -0.5554855 0.2943636
vn -0.5237435 0.8094218 0.2655733
vn -0.5237435 0.8094218 0.2655733
vn -0.5237435 0.8094218 0.2655733
vn -0.5237435 0.8094218 0.2655733
vn -0.8729059 -0.3650333 0.3237067
vn -0.8729059 -0.3650333 0.3237067
vn -0.8729059 -0.3650333 0.3237067
vn -0.8729059 -0.3967754 0.2839096
vn 0.1745812 -0.5554855 0.8129928
vn 0.1745812 -0.5554855 0.8129928
vn 0.1745812 -0.5554855 0.8129928
vn 0.1745812 -0.5554855 0.8129928
vn 0.1428391 0.8094218 0.5695906
vn 0.1428391 0.8094218 0.5695906
vn 0.1428391 0.8094218 0.5695906
vn 0.1428391 0.8094218 0.5695906
vn 0.2063232 -0.3967754 0.8944272
vn 0.2063232 -0.3967754 0.8944272
vn 0.2063232 -0.3967754 0.8944272
vn 0.2063232 -0.3967754 0.8944272
vn 0.857493 -0.5144958 0
vn 0.857493 -0.5144958 0
vn 0.857493 -0.5144958 0
vn 0.857493 -0.5144958 0
vn 0.999874 -0.01587099 -0.000346655
vn 0.999874 -0.01587099 -0.000346655
vn 0.999874 -0.01587099 -0.000346655
vn 0.999874 -0.01587099 -0.000346655
vn 0.999874 -0.01587099 -0.000346655
vn 0.999874 -0.01587099 -0.000346655
vn 0.999874 -0.01587099 -0.000346655
vn 0.999874 -0.01587099 -0.000346655
vn 0.999874 -0.01587099 -0.000346655
vn 0.999874 -0.01587099 -0.000346655
vn 0.999874 -0.01587099 -0.000346655
vn 0.999874 -0.01587099 -0.000346655
vn 0.999874 -0.01587099 -0.000346655
vn 0.999874 -0.01587099 -0.000346655
vn 0.04761302 -0.04761302 0.9977304
vn 0.04761302 -0.04761302 0.9977304
vn 0.04761302 -0.04761302 0.9977304
vn 0.04761302 -0.04761302 0.9977304
vn 0.04761302 -0.04761302 0.9977304
vn 0.04761302 -0.04761302 0.9977304
vn 0.04761302 -0.04761302 0.9977304
vn 0.04761302 -0.04761302 0.9977304
vn 0.04761302 -0.04761302 0.9977304
vn 0.04761302 -0.04761302 0.9977304
vn 0.04761302 -0.04761302 0.9977304
vn 0.04761302 -0.04761302 0.9977304
vn 0.04761302 -0.04761302 0.9977304
vn 0.04761302 -0.04761302 0.9977304
vn 0.04761302 -0.04761302 0.9977304
vn 0.04761302 -0.04761302 0.9977304
vn 0.04761302 -0.04761302 -0.9977304
vn 0.04761302 -0.04761302 -0.9977304
vn 0.04761302 -0.04761302 -0.9977304
vn 0.04761302 -0.04761302 -0.9977304
vn 0.04761302 -0.04761302 -0.9977304
vn 0.04761302 -0.04761302 -0.9977304
vn 0.04761302 -0.04761302 -0.9977304
vn 0.04761302 -0.04761302 -0.9977304
vn 0.04761302 -0.04761302 -0.9977304
vn 0.04761302 -0.04761302 -0.9977304
vn 0.04761302 -0.04761302 -0.9977304
vn 0.04761302 -0.04761302 -0.9977304
vn 0.04761302 -0.04761302 -0.9977304
vn 0.04761302 -0.04761302 -0.9977304
vn 0.04761302 -0.04761302 -0.9977304
vn 0.04761302 -0.04761302 -0.9977304
vn 0.04761302 -0.04761302 -0.9977304
vn 0.04761302 -0.04761302 -0.9977304
vn 0.04761302 -0.04761302 -0.9977304
vn 0.04761302 -0.04761302 -0.9977304
vn 0.04761302 -0.04761302 -0.9977304
vn 0.04761302 -0.04761302 -0.9977304
vn 0.04761302 -0.04761302 -0.9977304
vn 0.04761302 -0.04761302 -0.9977304
vn 0.04761302 -0.04761302 -0.9977304
vn 0.04761302 -0.04761302 -0.9977304
vn 0.04761302 -0.04761302 -0.9977304
vn 0.04761302 -0.04761302 -0.9977304
vn 0.04761302 -0.04761302 -0.9977304
vn 0.04761302 -0.04761302 -0.9977304
vn 0.04761302 -0.04761302 -0.9977304
vn 0.04761302 -0.04761302 -0.9977304
vn 0.04761302 -0.04761302 -0.9977304
vn 0.04761302 -0.04761302 -0.9977304
vn 0.04761302 -0.04761302 -0.9977304
vn 0.04761302 -0.04761302 -0.9977304
g DSJ_GTA_diLou_26_0
f 3/3/3 2/2/2 1/1/1
f 3/3/3 5/5/5 4/4/4
f 6/6/6 5/5/5 3/3/3
f 9/9/9 8/8/8 7/7/7
f 12/12/12 11/11/11 10/10/10
f 15/15/15 14/14/14 13/13/13
f 18/18/18 17/17/17 16/16/16
f 21/21/21 20/20/20 19/19/19
f 24/24/24 23/23/23 22/22/22
f 27/27/27 26/26/26 25/25/25
f 30/30/30 29/29/29 28/28/28
f 33/33/33 32/32/32 31/31/31
f 34/34/34 32/32/32 33/33/33
f 37/37/37 36/36/36 35/35/35
f 38/38/38 36/36/36 37/37/37
f 41/41/41 40/40/40 39/39/39
f 42/42/42 40/40/40 41/41/41
f 45/45/45 44/44/44 43/43/43
f 46/46/46 44/44/44 45/45/45
f 49/49/49 48/48/48 47/47/47
f 50/50/50 48/48/48 49/49/49
f 53/53/53 52/52/52 51/51/51
f 54/54/54 52/52/52 53/53/53
f 57/57/57 56/56/56 55/55/55
f 58/58/58 56/56/56 57/57/57
f 61/61/61 60/60/60 59/59/59
f 62/62/62 60/60/60 61/61/61
f 65/65/65 64/64/64 63/63/63
f 66/66/66 64/64/64 65/65/65
f 69/69/69 68/68/68 67/67/67
f 70/70/70 68/68/68 69/69/69
f 73/73/73 72/72/72 71/71/71
f 74/74/74 72/72/72 73/73/73
f 77/77/77 76/76/76 75/75/75
f 78/78/78 76/76/76 77/77/77
f 81/81/81 80/80/80 79/79/79
f 82/82/82 80/80/80 81/81/81
f 85/85/85 84/84/84 83/83/83
f 86/86/86 84/84/84 85/85/85
f 89/89/89 88/88/88 87/87/87
f 90/90/90 88/88/88 89/89/89
f 93/93/93 92/92/92 91/91/91
f 94/94/94 92/92/92 93/93/93
f 97/97/97 96/96/96 95/95/95
f 98/98/98 96/96/96 97/97/97
f 101/101/101 100/100/100 99/99/99
f 102/102/102 100/100/100 101/101/101
f 105/105/105 104/104/104 103/103/103
f 106/106/106 104/104/104 105/105/105
f 109/109/109 108/108/108 107/107/107
f 110/110/110 108/108/108 109/109/109
f 113/113/113 112/112/112 111/111/111
f 114/114/114 112/112/112 113/113/113
f 117/117/117 116/116/116 115/115/115
f 118/118/118 116/116/116 117/117/117
f 119/119/119 118/118/118 117/117/117
f 117/117/117 120/120/120 119/119/119
f 121/121/121 120/120/120 117/117/117
f 122/122/122 121/121/121 117/117/117
f 123/123/123 122/122/122 117/117/117
f 124/124/124 122/122/122 123/123/123
f 125/125/125 124/124/124 123/123/123
f 123/123/123 126/126/126 125/125/125
f 123/123/123 127/127/127 126/126/126
f 128/128/128 127/127/127 123/123/123
f 129/129/129 128/128/128 123/123/123
f 132/132/132 131/131/131 130/130/130
f 133/133/133 131/131/131 132/132/132
f 136/136/136 135/135/135 134/134/134
f 137/137/137 135/135/135 136/136/136
f 140/140/140 139/139/139 138/138/138
f 141/141/141 139/139/139 140/140/140
f 144/144/144 143/143/143 142/142/142
f 145/145/145 143/143/143 144/144/144
f 148/148/148 147/147/147 146/146/146
f 149/149/149 147/147/147 148/148/148
f 152/152/152 151/151/151 150/150/150
f 153/153/153 151/151/151 152/152/152
f 156/156/156 155/155/155 154/154/154
f 157/157/157 155/155/155 156/156/156
f 160/160/160 159/159/159 158/158/158
f 161/161/161 159/159/159 160/160/160
f 164/164/164 163/163/163 162/162/162
f 165/165/165 163/163/163 164/164/164
f 168/168/168 167/167/167 166/166/166
f 169/169/169 167/167/167 168/168/168
f 172/172/172 171/171/171 170/170/170
f 173/173/173 171/171/171 172/172/172
f 176/176/176 175/175/175 174/174/174
f 177/177/177 175/175/175 176/176/176
f 180/180/180 179/179/179 178/178/178
f 181/181/181 179/179/179 180/180/180
f 184/184/184 183/183/183 182/182/182
f 185/185/185 183/183/183 184/184/184
f 188/188/188 187/187/187 186/186/186
f 189/189/189 187/187/187 188/188/188
f 190/190/190 189/189/189 188/188/188
f 188/188/188 186/186/186 191/191/191
f 194/194/194 193/193/193 192/192/192
f 195/195/195 193/193/193 194/194/194
f 198/198/198 197/197/197 196/196/196
f 199/199/199 197/197/197 198/198/198
f 202/202/202 201/201/201 200/200/200
f 203/203/203 201/201/201 202/202/202
f 206/206/206 205/205/205 204/204/204
f 207/207/207 205/205/205 206/206/206
f 210/210/210 209/209/209 208/208/208
f 211/211/211 209/209/209 210/210/210
f 214/214/214 213/213/213 212/212/212
f 215/215/215 213/213/213 214/214/214
f 218/218/218 217/217/217 216/216/216
f 219/219/219 217/217/217 218/218/218
f 222/222/222 221/221/221 220/220/220
f 223/223/223 221/221/221 222/222/222
f 226/226/226 225/225/225 224/224/224
f 227/227/227 225/225/225 226/226/226
f 230/230/230 229/229/229 228/228/228
f 231/231/231 229/229/229 230/230/230
f 234/234/234 233/233/233 232/232/232
f 235/235/235 233/233/233 234/234/234
f 238/238/238 237/237/237 236/236/236
f 239/239/239 237/237/237 238/238/238
f 242/242/242 241/241/241 240/240/240
f 243/243/243 241/241/241 242/242/242
