g DSJ_GTA_daoJu_youTong_02
v -0.1148372 0.1391752 -0.607594
v -0.4869434 0.003741562 0.6105859
v -0.1148393 0.1391752 0.6105859
v -0.4869413 0.003741562 -0.607594
v -0.790285 0.2582781 -0.607594
v -0.4869434 0.003741562 0.6105859
v -0.4869413 0.003741562 -0.607594
v -0.790285 0.2582781 0.6105859
v -0.790285 0.2582781 -0.607594
v -0.7215204 0.6482464 0.6105859
v -0.790285 0.2582781 0.6105859
v -0.7215204 0.6482464 -0.607594
v -0.04607463 0.5291475 -0.607594
v -0.1148393 0.1391752 0.6105859
v -0.04607666 0.5291475 0.6105859
v -0.1148372 0.1391752 -0.607594
v -0.3494183 0.7836821 -0.607594
v -0.04607666 0.5291475 0.6105859
v -0.3494183 0.7836821 0.6105859
v -0.04607463 0.5291475 -0.607594
v -0.7215204 0.6482464 -0.607594
v -0.3494183 0.7836821 0.6105859
v -0.7215204 0.6482464 0.6105859
v -0.3494183 0.7836821 -0.607594
v -0.3636212 1.08143 -0.5307074
v -0.04946572 1.322491 0.6874706
v -0.3636193 1.08143 0.6874685
v -0.04946572 1.322493 -0.5307074
v 0.3680624 0.7783568 -0.5307074
v 0.05390882 0.5372958 0.6874685
v 0.3680664 0.7783568 0.6874706
v 0.05390882 0.5372958 -0.5307074
v -0.04946572 1.322493 -0.5307074
v 0.3163801 1.170954 0.6874706
v -0.04946572 1.322491 0.6874706
v 0.3163801 1.170954 -0.5307074
v 0.05390882 0.5372958 -0.5307074
v -0.311933 0.6888326 0.6874706
v 0.05390882 0.5372958 0.6874685
v -0.311933 0.6888326 -0.5307074
v 0.3680664 0.7783568 0.6874706
v 0.3163801 1.170954 -0.5307074
v 0.3680624 0.7783568 -0.5307074
v 0.3163801 1.170954 0.6874706
v -0.311933 0.6888326 -0.5307074
v -0.3636193 1.08143 0.6874685
v -0.311933 0.6888326 0.6874706
v -0.3636212 1.08143 -0.5307074
v 0.1148395 0.1391813 -0.6874748
v 0.04607689 0.5291516 0.530701
v 0.1148395 0.1391813 0.530701
v 0.04607689 0.5291516 -0.6874748
v 0.7215226 0.6482505 -0.6874748
v 0.7902832 0.2582822 0.530701
v 0.7215226 0.6482505 0.530701
v 0.7902832 0.2582822 -0.6874748
v 0.04607689 0.5291516 -0.6874748
v 0.3494205 0.7836862 0.530701
v 0.04607689 0.5291516 0.530701
v 0.3494205 0.7836862 -0.6874748
v 0.7902832 0.2582822 -0.6874748
v 0.4869436 0.003745556 0.530701
v 0.7902832 0.2582822 0.530701
v 0.4869436 0.003745556 -0.6874748
v 0.7215226 0.6482505 0.530701
v 0.3494205 0.7836862 -0.6874748
v 0.7215226 0.6482505 -0.6874748
v 0.3494205 0.7836862 0.530701
v 0.4869436 0.003745556 -0.6874748
v 0.1148395 0.1391813 0.530701
v 0.4869436 0.003745556 0.530701
v 0.1148395 0.1391813 -0.6874748
v -0.790285 0.2582781 0.6105859
v -0.1148393 0.1391752 0.6105859
v -0.4869434 0.003741562 0.6105859
v -0.3494183 0.7836821 0.6105859
v -0.04607666 0.5291475 0.6105859
v -0.7215204 0.6482464 0.6105859
v -0.1148372 0.1391752 -0.607594
v -0.790285 0.2582781 -0.607594
v -0.4869413 0.003741562 -0.607594
v -0.3494183 0.7836821 -0.607594
v -0.7215204 0.6482464 -0.607594
v -0.04607463 0.5291475 -0.607594
v -0.04946572 1.322491 0.6874706
v -0.311933 0.6888326 0.6874706
v -0.3636193 1.08143 0.6874685
v 0.3680664 0.7783568 0.6874706
v 0.05390882 0.5372958 0.6874685
v 0.3163801 1.170954 0.6874706
v 0.3163801 1.170954 -0.5307074
v 0.05390882 0.5372958 -0.5307074
v 0.3680624 0.7783568 -0.5307074
v -0.3636212 1.08143 -0.5307074
v -0.311933 0.6888326 -0.5307074
v -0.04946572 1.322493 -0.5307074
v 0.04607689 0.5291516 0.530701
v 0.4869436 0.003745556 0.530701
v 0.1148395 0.1391813 0.530701
v 0.7215226 0.6482505 0.530701
v 0.7902832 0.2582822 0.530701
v 0.3494205 0.7836862 0.530701
v 0.3494205 0.7836862 -0.6874748
v 0.7902832 0.2582822 -0.6874748
v 0.7215226 0.6482505 -0.6874748
v 0.1148395 0.1391813 -0.6874748
v 0.4869436 0.003745556 -0.6874748
v 0.04607689 0.5291516 -0.6874748
vt 0.9599398 0.8781472
vt 0.9455383 0.8276246
vt 0.9599398 0.8276246
vt 0.9455383 0.8781472
vt 0.9311091 0.8781472
vt 0.9455383 0.8276246
vt 0.9455383 0.8781472
vt 0.9311091 0.8276246
vt 0.9311091 0.8781472
vt 0.9166662 0.8276246
vt 0.9311091 0.8276246
vt 0.9167213 0.8781472
vt 0.9743414 0.8781472
vt 0.9599398 0.8276246
vt 0.9743414 0.8276246
vt 0.9599398 0.8781472
vt 0.9887705 0.8781472
vt 0.9743414 0.8276246
vt 0.9887705 0.8276246
vt 0.9743414 0.8781472
vt 0.9890186 0.878161
vt 0.9993684 0.8276246
vt 0.9890186 0.8276246
vt 0.9993684 0.8781472
vt 0.8534234 0.8783401
vt 0.8391596 0.8283963
vt 0.8534234 0.8283963
vt 0.8391596 0.8783401
vt 0.8106045 0.8783401
vt 0.8818268 0.8283963
vt 0.8106045 0.8283963
vt 0.8818268 0.8783401
vt 0.8391596 0.8783401
vt 0.824882 0.8283963
vt 0.8391596 0.8283963
vt 0.824882 0.8783401
vt 0.8818268 0.8783401
vt 0.8676871 0.8283963
vt 0.8818268 0.8283963
vt 0.8676871 0.8783401
vt 0.8106045 0.8283963
vt 0.824882 0.8783401
vt 0.8106045 0.8783401
vt 0.824882 0.8283963
vt 0.8676871 0.8783401
vt 0.8534234 0.8283963
vt 0.8676871 0.8283963
vt 0.8534234 0.8783401
vt 0.8534234 0.8783401
vt 0.8391596 0.8283963
vt 0.8534234 0.8283963
vt 0.8391596 0.8783401
vt 0.8106045 0.878161
vt 0.7998412 0.8282171
vt 0.8106045 0.8282309
vt 0.7998412 0.8781885
vt 0.8391596 0.8783401
vt 0.824882 0.8283963
vt 0.8391596 0.8283963
vt 0.824882 0.8783401
vt 0.8818268 0.8783401
vt 0.8676871 0.8283963
vt 0.8818268 0.8283963
vt 0.8676871 0.8783401
vt 0.8106045 0.8283963
vt 0.824882 0.8783401
vt 0.8106045 0.8783401
vt 0.824882 0.8283963
vt 0.8676871 0.8783401
vt 0.8534234 0.8283963
vt 0.8676871 0.8283963
vt 0.8534234 0.8783401
vt 0.8915151 0.8761902
vt 0.8949054 0.856786
vt 0.8877804 0.8654821
vt 0.9094999 0.8695062
vt 0.9057513 0.8587981
vt 0.9023887 0.8782023
vt 0.9029813 0.827032
vt 0.9063439 0.8464224
vt 0.9100787 0.8357142
vt 0.8883868 0.8397522
vt 0.895498 0.8484344
vt 0.8921216 0.829044
vt 0.7958446 0.8709809
vt 0.7747453 0.8728
vt 0.7858945 0.8773065
vt 0.783524 0.8556284
vt 0.7735876 0.861954
vt 0.7946732 0.8601487
vt 0.7751036 0.8340329
vt 0.796203 0.835852
vt 0.786239 0.8295264
vt 0.7838961 0.8511907
vt 0.7950177 0.8466842
vt 0.7739184 0.8448651
vt 0.7858807 0.8511632
vt 0.7739873 0.8355626
vt 0.7748693 0.8464086
vt 0.795128 0.8342121
vt 0.7841442 0.8294437
vt 0.7960238 0.845058
vt 0.7735876 0.8714219
vt 0.7854948 0.8558213
vt 0.7744834 0.8605759
vt 0.7947421 0.8727725
vt 0.7956241 0.8618989
vt 0.7837307 0.8775132
vn 0.3441176 -0.9389265 0
vn 0.3441176 -0.9389265 0
vn 0.3441176 -0.9389265 0
vn 0.3441176 -0.9389265 0
vn -0.633146 -0.7737965 -0.01910703
vn -0.633146 -0.7737965 -0.01910703
vn -0.633146 -0.7737965 -0.01910703
vn -0.633146 -0.7737965 -0.01910703
vn -0.9829384 0.1667563 -0.07761712
vn -0.9829384 0.1667563 0.07761712
vn -0.9829384 0.1667563 0.07761712
vn -0.9829384 0.1667563 -0.07761712
vn 0.9847322 -0.1740762 0
vn 0.9847322 -0.1740762 0
vn 0.9847322 -0.1740762 0
vn 0.9847322 -0.1740762 0
vn 0.6494259 0.7575167 -0.06644125
vn 0.6494259 0.7575167 -0.06644125
vn 0.6494259 0.7575167 -0.06644125
vn 0.6494259 0.7575167 -0.06644125
vn -0.3377659 0.9362994 -0.09621619
vn -0.3377659 0.9362994 -0.09621619
vn -0.3377659 0.9362994 -0.09621619
vn -0.3377659 0.9362994 -0.09621619
vn -0.6020534 0.7886094 0.1250076
vn -0.6020534 0.7886094 0.1250076
vn -0.6020534 0.7886094 0.1250076
vn -0.6020534 0.7886094 0.1250076
vn 0.6080788 -0.7938766 0
vn 0.6080788 -0.7938766 0
vn 0.6080788 -0.7938766 0
vn 0.6080788 -0.7938766 0
vn 0.3851383 0.9207531 -0.06230706
vn 0.3851383 0.9207531 0.06230706
vn 0.3851383 0.9207531 0.06230706
vn 0.3851383 0.9207531 -0.06230706
vn -0.3688586 -0.9292598 -0.02048455
vn -0.3688586 -0.9292598 -0.02048455
vn -0.3688586 -0.9292598 -0.02048455
vn -0.3688586 -0.9292598 -0.02048455
vn 0.9914451 0.1278905 -0.02609033
vn 0.9914451 0.1278905 -0.02609033
vn 0.9914451 0.1278905 -0.02609033
vn 0.9914451 0.1278905 -0.02609033
vn -0.9906554 -0.1363893 0
vn -0.9906554 -0.1363893 0
vn -0.9906554 -0.1363893 0
vn -0.9906554 -0.1363893 0
vn -0.9829384 -0.1752629 0.05581219
vn -0.9829384 -0.1752629 0.05581219
vn -0.9829384 -0.1752629 -0.05581219
vn -0.9829384 -0.1752629 0.05581219
vn 0.9873859 0.1583322 0
vn 0.9873859 0.1583322 0
vn 0.9873859 0.1583322 0
vn 0.9873859 0.1583322 0
vn -0.6409193 0.7652899 -0.05961382
vn -0.6409193 0.7652899 -0.05961382
vn -0.6409193 0.7652899 0.05961382
vn -0.6409193 0.7652899 -0.05961382
vn 0.6466686 -0.7627711 0
vn 0.6466686 -0.7627711 0
vn 0.6466686 -0.7627711 0
vn 0.6466686 -0.7627711 0
vn 0.3462725 0.9362994 -0.05864052
vn 0.3462725 0.9362994 -0.05864052
vn 0.3462725 0.9362994 -0.05864052
vn 0.3462725 0.9362994 -0.05864052
vn -0.3297367 -0.944073 0
vn -0.3297367 -0.944073 0
vn -0.3297367 -0.944073 0
vn -0.3297367 -0.944073 0
vn 0.004253328 -0.004253328 0.9999819
vn 0.004253328 -0.004253328 0.9999819
vn 0.004253328 -0.004253328 0.9999819
vn 0.004253328 -0.004253328 0.9999819
vn 0.004253328 -0.004253328 0.9999819
vn 0.004253328 -0.004253328 0.9999819
vn 0.004253328 -0.004253328 -0.9999819
vn 0.004253328 -0.004253328 -0.9999819
vn 0.004253328 -0.004253328 -0.9999819
vn 0.004253328 -0.004253328 -0.9999819
vn 0.004253328 -0.004253328 -0.9999819
vn 0.004253328 -0.004253328 -0.9999819
vn 0.004253328 -0.004253328 0.9999819
vn 0.004253328 -0.004253328 0.9999819
vn 0.004253328 -0.004253328 0.9999819
vn 0.004253328 -0.004253328 0.9999819
vn 0.004253328 -0.004253328 0.9999819
vn 0.004253328 -0.004253328 0.9999819
vn 0.004253328 -0.004253328 -0.9999819
vn 0.004253328 -0.004253328 -0.9999819
vn 0.004253328 -0.004253328 -0.9999819
vn 0.004253328 -0.004253328 -0.9999819
vn 0.004253328 -0.004253328 -0.9999819
vn 0.004253328 -0.004253328 -0.9999819
vn 0.004253328 -0.004253328 0.9999819
vn 0.004253328 -0.004253328 0.9999819
vn 0.004253328 -0.004253328 0.9999819
vn 0.004253328 -0.004253328 0.9999819
vn 0.004253328 -0.004253328 0.9999819
vn 0.004253328 -0.004253328 0.9999819
vn 0.004253328 -0.004253328 -0.9999819
vn 0.004253328 -0.004253328 -0.9999819
vn 0.004253328 -0.004253328 -0.9999819
vn 0.004253328 -0.004253328 -0.9999819
vn 0.004253328 -0.004253328 -0.9999819
vn 0.004253328 -0.004253328 -0.9999819
g DSJ_GTA_daoJu_youTong_02_0
f 3/3/3 2/2/2 1/1/1
f 4/4/4 1/1/1 2/2/2
f 7/7/7 6/6/6 5/5/5
f 8/8/8 5/5/5 6/6/6
f 11/11/11 10/10/10 9/9/9
f 12/12/12 9/9/9 10/10/10
f 15/15/15 14/14/14 13/13/13
f 16/16/16 13/13/13 14/14/14
f 19/19/19 18/18/18 17/17/17
f 20/20/20 17/17/17 18/18/18
f 23/23/23 22/22/22 21/21/21
f 24/24/24 21/21/21 22/22/22
f 27/27/27 26/26/26 25/25/25
f 28/28/28 25/25/25 26/26/26
f 31/31/31 30/30/30 29/29/29
f 32/32/32 29/29/29 30/30/30
f 35/35/35 34/34/34 33/33/33
f 36/36/36 33/33/33 34/34/34
f 39/39/39 38/38/38 37/37/37
f 40/40/40 37/37/37 38/38/38
f 43/43/43 42/42/42 41/41/41
f 44/44/44 41/41/41 42/42/42
f 47/47/47 46/46/46 45/45/45
f 48/48/48 45/45/45 46/46/46
f 51/51/51 50/50/50 49/49/49
f 52/52/52 49/49/49 50/50/50
f 55/55/55 54/54/54 53/53/53
f 56/56/56 53/53/53 54/54/54
f 59/59/59 58/58/58 57/57/57
f 60/60/60 57/57/57 58/58/58
f 63/63/63 62/62/62 61/61/61
f 64/64/64 61/61/61 62/62/62
f 67/67/67 66/66/66 65/65/65
f 68/68/68 65/65/65 66/66/66
f 71/71/71 70/70/70 69/69/69
f 72/72/72 69/69/69 70/70/70
f 75/75/75 74/74/74 73/73/73
f 74/74/74 76/76/76 73/73/73
f 77/77/77 76/76/76 74/74/74
f 76/76/76 78/78/78 73/73/73
f 81/81/81 80/80/80 79/79/79
f 80/80/80 82/82/82 79/79/79
f 83/83/83 82/82/82 80/80/80
f 82/82/82 84/84/84 79/79/79
f 87/87/87 86/86/86 85/85/85
f 86/86/86 88/88/88 85/85/85
f 89/89/89 88/88/88 86/86/86
f 85/85/85 88/88/88 90/90/90
f 93/93/93 92/92/92 91/91/91
f 92/92/92 94/94/94 91/91/91
f 95/95/95 94/94/94 92/92/92
f 91/91/91 94/94/94 96/96/96
f 99/99/99 98/98/98 97/97/97
f 98/98/98 100/100/100 97/97/97
f 101/101/101 100/100/100 98/98/98
f 97/97/97 100/100/100 102/102/102
f 105/105/105 104/104/104 103/103/103
f 104/104/104 106/106/106 103/103/103
f 107/107/107 106/106/106 104/104/104
f 103/103/103 106/106/106 108/108/108
