g DSJ_GTA_gaoLou_8
v 6.280792 32.67597 -0.2385178
v 9.46093 -25.83867 -0.07950592
v 9.301926 -25.83867 14.39014
v 0.5565338 30.92689 -0.2385178
v 9.46093 -25.83867 -0.07950592
v 6.280792 32.67597 -0.2385178
v 0.5565338 30.92689 -0.2385178
v 12.16405 -25.83867 -0.07950592
v 9.46093 -25.83867 -0.07950592
v -25.83866 -25.83867 -15.18519
v -15.6622 47.14562 -12.32306
v -22.1815 50.64378 -0.5565338
v -26.31568 -25.83867 14.07213
v -17.57029 26.15668 8.983902
v -0.7155228 30.60888 11.68702
v -25.99767 -25.83867 -0.5565338
v -25.83866 -25.83867 -15.18519
v -22.1815 50.64378 -0.5565338
v -0.7155228 30.60888 11.68702
v 6.280792 32.67597 -0.2385178
v 9.301926 -25.83867 14.39014
v -25.99767 -25.83867 -0.5565338
v -25.99767 -75.60792 -0.5565338
v -25.83866 -25.83867 -15.18519
v -25.83866 -75.60792 -15.18519
v -26.31568 -25.83867 14.07213
v -26.31568 -75.60792 14.07213
v -25.99767 -25.83867 -0.5565338
v -25.99767 -75.60792 -0.5565338
v -0.7155228 30.60888 11.68702
v 9.301926 -25.83867 14.39014
v -26.31568 -25.83867 14.07213
v 9.301926 -75.60792 14.39014
v -26.31568 -75.60792 14.07213
v 9.46093 -25.83867 -0.07950592
v 9.46093 -75.60792 -0.07950592
v 9.301926 -25.83867 14.39014
v 9.301926 -75.60792 14.39014
v 12.32306 -25.83867 -14.70817
v 12.32306 -75.60792 -14.70817
v 12.16405 -25.83867 -0.07950592
v 12.16405 -75.60792 -0.07950592
v -25.83866 -75.60792 -15.18519
v 12.32306 -75.60792 -14.70817
v -25.83866 -25.83867 -15.18519
v 12.32306 -25.83867 -14.70817
v -26.31568 -25.83867 14.07213
v -25.99767 -25.83867 -0.5565338
v -17.57029 26.15668 8.983902
v -17.41128 26.15668 -0.397522
v 9.46093 -75.60792 -0.07950592
v 9.46093 -25.83867 -0.07950592
v 12.16405 -75.60792 -0.07950592
v 12.16405 -25.83867 -0.07950592
v 12.32306 -25.83867 -14.70817
v 12.16405 -25.83867 -0.07950592
v -0.5565186 37.9232 -12.16405
v 0.5565338 30.92689 -0.2385178
v -0.7155228 37.9232 -0.2385178
v -17.57029 26.15668 8.983902
v -17.41128 26.15668 -0.397522
v -0.7155228 30.60888 11.68702
v 0.5565338 30.92689 -0.2385178
v 6.280792 32.67597 -0.2385178
v -0.5565186 37.9232 -12.16405
v -0.7155228 37.9232 -0.2385178
v -15.6622 47.14562 -12.32306
v -22.1815 50.64378 -0.5565338
v -25.99767 -25.83867 -0.5565338
v -22.1815 50.64378 -0.5565338
v -17.41128 26.15668 -0.397522
v -17.41128 26.15668 -0.397522
v -22.1815 50.64378 -0.5565338
v -0.7155228 37.9232 -0.2385178
v 0.5565338 30.92689 -0.2385178
v 12.32306 -25.83867 -14.70817
v -0.5565186 37.9232 -12.16405
v -25.83866 -25.83867 -15.18519
v -15.6622 47.14562 -12.32306
v 28.85981 -65.11344 16.61624
v 13.59512 -65.11344 16.29823
v 29.17782 -65.11344 -17.88831
v -19.95539 -65.11344 18.04731
v -19.63738 -65.11344 -18.52434
v 11.84604 -65.11344 18.52433
v -29.01881 -75.60792 15.82121
v -29.01881 -81.33218 15.82121
v -28.70079 -75.60792 -18.68335
v -28.70079 -81.33218 -18.68335
v 11.84604 -65.11344 18.52433
v 11.84604 -81.33218 18.52433
v -19.95539 -65.11344 18.04731
v -19.95539 -81.33218 18.04731
v 29.17782 -65.11344 -17.88831
v 29.17782 -81.33218 -17.88831
v 28.85981 -65.11344 16.61624
v 28.85981 -81.33218 16.61624
v 28.85981 -65.11344 16.61624
v 28.85981 -81.33218 16.61624
v 13.59512 -65.11344 16.29823
v 13.59512 -81.33218 16.29823
v 11.84604 -65.11344 18.52433
v 13.59512 -65.11344 16.29823
v 11.84604 -81.33218 18.52433
v 13.59512 -81.33218 16.29823
v -19.95539 -81.33218 15.98022
v -19.95539 -75.60792 15.98022
v -19.95539 -65.11344 18.04731
v -19.63738 -75.60792 -18.52434
v -19.63738 -65.11344 -18.52434
v -19.95539 -81.33218 18.04731
v -28.70079 -81.33218 -18.68335
v 29.17782 -81.33218 -17.88831
v -19.63738 -75.60792 -18.52434
v 29.17782 -65.11344 -17.88831
v -19.63738 -65.11344 -18.52434
v -28.70079 -75.60792 -18.68335
v -19.95539 -75.60792 15.98022
v -19.95539 -81.33218 15.98022
v -29.01881 -75.60792 15.82121
v -29.01881 -81.33218 15.82121
v -19.63738 -75.60792 -18.52434
v -19.95539 -75.60792 15.98022
v -28.70079 -75.60792 -18.68335
v -29.01881 -75.60792 15.82121
v -13.11809 81.33216 -5.326744
v -13.59511 37.9232 -7.552849
v -10.89198 37.9232 -5.64476
v -13.59511 37.28718 -7.552849
v -10.89198 37.28718 -5.64476
v -13.11809 81.33216 -5.326744
v -15.5032 37.9232 -4.849724
v -13.59511 37.9232 -7.552849
v -15.5032 37.28718 -4.849724
v -13.59511 37.28718 -7.552849
v -13.11809 81.33216 -5.326744
v -12.80007 37.9232 -2.941635
v -15.5032 37.9232 -4.849724
v -12.80007 37.28718 -2.941635
v -15.5032 37.28718 -4.849724
v -13.11809 81.33216 -5.326744
v -10.89198 37.9232 -5.64476
v -12.80007 37.9232 -2.941635
v -10.89198 37.28718 -5.64476
v -12.80007 37.28718 -2.941635
vt 0.8546806 0.2426436
vt 0.8546806 0.1194663
vt 0.8238863 0.1194663
vt 0.7584484 0.2272464
vt 0.7430512 0.1079184
vt 0.7469005 0.234945
vt 0.793092 0.01168619
vt 0.7892427 0.1310142
vt 0.793092 0.1310142
vt 0.7699962 0.1387127
vt 0.7699962 0.01938477
vt 0.7469005 0.01168619
vt 0.7584484 0.1194663
vt 0.7776948 0.2272464
vt 0.8084891 0.2387943
vt 0.7469005 0.1387127
vt 0.7699962 0.1387127
vt 0.7469005 0.01168619
vt 0.8238863 0.2387943
vt 0.8546806 0.2426436
vt 0.8238863 0.1194663
vt 0.7469005 0.1387127
vt 0.7469005 0.234945
vt 0.7699962 0.1387127
vt 0.7699962 0.234945
vt 0.8546806 0.1194663
vt 0.8546806 0.01168619
vt 0.8315849 0.1194663
vt 0.8238863 0.01168619
vt 0.8084891 0.2387943
vt 0.8238863 0.1194663
vt 0.7584484 0.1194663
vt 0.8315849 0.01168619
vt 0.766147 0.01168619
vt 0.8546806 0.1194663
vt 0.8546806 0.01168619
vt 0.8238863 0.1194663
vt 0.8315849 0.01168619
vt 0.8315849 0.1387127
vt 0.8315849 0.234945
vt 0.8546806 0.1387127
vt 0.8546806 0.234945
vt 0.7699962 0.234945
vt 0.8315849 0.234945
vt 0.7699962 0.1387127
vt 0.8315849 0.1387127
vt 0.8546806 0.1194663
vt 0.8315849 0.1194663
vt 0.8546806 0.2272464
vt 0.8354341 0.2272464
vt 0.793092 0.2233971
vt 0.793092 0.115617
vt 0.7892427 0.2233971
vt 0.7892427 0.115617
vt 0.8315849 0.1387127
vt 0.8546806 0.1387127
vt 0.8354341 0.03478193
vt 0.8546806 0.0424805
vt 0.8546806 0.03478193
vt 0.9201185 0.96631
vt 0.9201185 0.9201185
vt 0.8970228 0.9894057
vt 0.8970228 0.9316664
vt 0.8893242 0.9355156
vt 0.8816256 0.9817072
vt 0.9162692 0.9817072
vt 0.8854749 0.9355156
vt 0.9201185 0.9201185
vt 0.820037 0.1387127
vt 0.8084891 0.01168619
vt 0.8007905 0.05402837
vt 0.8007905 0.05402837
vt 0.8084891 0.01168619
vt 0.7776948 0.03863122
vt 0.7776948 0.04632979
vt 0.8315849 0.1387127
vt 0.8123384 0.03478193
vt 0.7699962 0.1387127
vt 0.7892427 0.01938477
vt 0.9470635 0.9201185
vt 0.9239678 0.9201185
vt 0.9470635 0.9894057
vt 0.8777763 0.9162692
vt 0.8777763 0.993255
vt 0.9239678 0.9162692
vt 0.727654 0.06172695
vt 0.727654 0.08482269
vt 0.8623792 0.06172695
vt 0.8623792 0.08482269
vt 0.7815441 0.01938477
vt 0.7815441 0.08482269
vt 0.8623792 0.01938477
vt 0.8623792 0.08482269
vt 0.727654 0.01938477
vt 0.727654 0.08482269
vt 0.820037 0.01938477
vt 0.820037 0.08482269
vt 0.727654 0.01938477
vt 0.727654 0.08482269
vt 0.7699962 0.01938477
vt 0.7699962 0.08482269
vt 0.7815441 0.01938477
vt 0.7699962 0.01938477
vt 0.7815441 0.08482269
vt 0.7699962 0.08482269
vt 0.7392019 0.08482269
vt 0.7392019 0.06172695
vt 0.727654 0.01938477
vt 0.8623792 0.06172695
vt 0.8623792 0.01938477
vt 0.727654 0.08482269
vt 0.727654 0.08482269
vt 0.8623792 0.08482269
vt 0.754599 0.06172695
vt 0.8623792 0.01938477
vt 0.754599 0.01938477
vt 0.727654 0.06172695
vt 0.727654 0.06172695
vt 0.727654 0.08482269
vt 0.766147 0.06172695
vt 0.766147 0.08482269
vt 0.8893242 0.9894057
vt 0.8893242 0.9201185
vt 0.8739271 0.9894057
vt 0.8739271 0.9201185
vt 0.8315849 0.8816256
vt 0.8970228 0.8816256
vt 0.8970228 0.8893242
vt 0.9008721 0.8816256
vt 0.9008721 0.8893242
vt 0.8315849 0.8816256
vt 0.8970228 0.8893242
vt 0.8970228 0.8816256
vt 0.9008721 0.8893242
vt 0.9008721 0.8816256
vt 0.8315849 0.8816256
vt 0.8970228 0.9008721
vt 0.8970228 0.8893242
vt 0.8970228 0.9008721
vt 0.9008721 0.8893242
vt 0.8315849 0.8816256
vt 0.8970228 0.8893242
vt 0.8970228 0.9008721
vt 0.9008721 0.8893242
vt 0.8970228 0.9008721
vn 0.9998741 0.01587104 0
vn 0.9998741 0.01587104 0
vn 0.9998741 0.01587104 0
vn 0.01587099 -0.01587099 -0.9997481
vn 0.01587099 -0.01587099 -0.9997481
vn 0.01587099 -0.01587099 -0.9997481
vn 0.01587099 -0.01587099 0.9997481
vn 0.01587099 -0.01587099 0.9997481
vn 0.01587099 -0.01587099 0.9997481
vn -0.8411644 0.1110972 -0.5292447
vn -0.8411644 0.1110972 -0.5292447
vn -0.8411644 0.1110972 -0.5292447
vn -0.1745813 0.1110972 0.9783552
vn -0.1745813 0.1110972 0.9783552
vn -0.1745813 0.1110972 0.9783552
vn -0.9681326 0.04761314 -0.2458703
vn -0.9681326 0.04761314 -0.2458703
vn -0.9681326 0.04761314 -0.2458703
vn 0.8729064 0.1428393 0.4665098
vn 0.8729064 0.1428393 0.4665098
vn 0.8729064 0.1428393 0.4665098
vn -0.9681326 -0.01587099 -0.2499347
vn -0.9681326 -0.01587099 -0.2499347
vn -0.9681326 -0.01587099 -0.2499347
vn -0.9681326 -0.01587099 -0.2499347
vn -0.9681326 -0.01587099 -0.2499347
vn -0.9681326 -0.01587099 -0.2499347
vn -0.9681326 -0.01587099 -0.2499347
vn -0.9681326 -0.01587099 -0.2499347
vn 0.01587099 0.04761314 0.9987398
vn 0.01587099 0.01587105 0.9997481
vn 0.01587099 0.01587105 0.9997481
vn 0.01587099 -0.01587099 0.9997481
vn 0.01587099 -0.01587099 0.9997481
vn 0.9998741 -0.01587098 0
vn 0.9998741 -0.01587098 0
vn 0.9998741 -0.01587098 0
vn 0.9998741 -0.01587098 0
vn 0.9998741 -0.01587098 0
vn 0.9998741 -0.01587098 0
vn 0.9998741 -0.01587098 0
vn 0.9998741 -0.01587098 0
vn 0.01587099 -0.01587099 -0.9997481
vn 0.01587099 -0.01587099 -0.9997481
vn 0.01587099 -0.01587099 -0.9997481
vn 0.01587099 -0.01587099 -0.9997481
vn -0.9681326 0.1428393 -0.2057089
vn -0.9681326 0.1428393 -0.2057089
vn -0.9681326 0.1428393 -0.2057089
vn -0.9681326 0.1428393 -0.2057089
vn 0.01587099 -0.01587099 0.9997481
vn 0.01587099 -0.01587099 0.9997481
vn 0.01587099 -0.01587099 0.9997481
vn 0.01587099 -0.01587099 0.9997481
vn 0.9899495 0.1414214 0
vn 0.9899495 0.1414214 0
vn 0.9899495 0.1414214 0
vn 0.9899495 0.1414214 0
vn 0.9938838 0.1104316 0
vn -0.2380654 0.9681326 -0.07774375
vn -0.2380654 0.9363905 -0.2578714
vn -0.2380654 0.9363905 -0.2578714
vn -0.2380654 0.9363905 -0.2578714
vn -0.2698075 0.9363905 -0.2244477
vn 0.5510615 0.8344647 0
vn 0.5510615 0.8344647 0
vn 0.5510615 0.8344647 0
vn 0.5510615 0.8344647 0
vn 0.01587099 -0.01587099 0.9997481
vn 0.01587099 -0.01587099 0.9997481
vn 0.01587099 -0.01587099 0.9997481
vn 0.01587099 -0.01587099 0.9997481
vn 0.01587099 -0.01587099 0.9997481
vn 0.01587099 -0.01587099 0.9997481
vn 0.01587099 -0.01587099 0.9997481
vn 0.01587099 0.01587105 -0.9997481
vn 0.04761302 0.01587105 -0.9987398
vn 0.01587099 0.01587105 -0.9997481
vn 0.04761302 0.01587105 -0.9987398
vn 0.01587098 0.9998741 0
vn 0.01587098 0.9998741 0
vn 0.01587098 0.9998741 0
vn 0.01587098 0.9998741 0
vn 0.01587098 0.9998741 0
vn 0.01587098 0.9998741 0
vn -0.9681326 -0.01587099 -0.2499347
vn -0.9681326 -0.01587099 -0.2499347
vn -0.9681326 -0.01587099 -0.2499347
vn -0.9681326 -0.01587099 -0.2499347
vn 0.01587099 -0.01587099 0.9997481
vn 0.01587099 -0.01587099 0.9997481
vn 0.01587099 -0.01587099 0.9997481
vn 0.01587099 -0.01587099 0.9997481
vn 0.9998741 -0.01587098 0
vn 0.9998741 -0.01587098 0
vn 0.9998741 -0.01587098 0
vn 0.9998741 -0.01587098 0
vn 0.01587099 -0.01587099 0.9997481
vn 0.01587099 -0.01587099 0.9997481
vn 0.01587099 -0.01587099 0.9997481
vn 0.01587099 -0.01587099 0.9997481
vn 0.8094223 -0.01587099 0.5870126
vn 0.8094223 -0.01587099 0.5870126
vn 0.8094223 -0.01587099 0.5870126
vn 0.8094223 -0.01587099 0.5870126
vn -0.9681326 -0.01587099 -0.2499347
vn -0.9681326 -0.01587099 -0.2499347
vn -0.9681326 -0.01587099 -0.2499347
vn -0.9681326 -0.01587099 -0.2499347
vn -0.9681326 -0.01587099 -0.2499347
vn -0.9681326 -0.01587099 -0.2499347
vn 0.01587099 -0.01587099 -0.9997481
vn 0.01587099 -0.01587099 -0.9997481
vn 0.01587099 -0.01587099 -0.9997481
vn 0.01587099 -0.01587099 -0.9997481
vn 0.01587099 -0.01587099 -0.9997481
vn 0.01587099 -0.01587099 -0.9997481
vn 0.01587099 -0.01587099 0.9997481
vn 0.01587099 -0.01587099 0.9997481
vn 0.01587099 -0.01587099 0.9997481
vn 0.01587099 -0.01587099 0.9997481
vn 0.01587098 0.9998741 0
vn 0.01587098 0.9998741 0
vn 0.01587098 0.9998741 0
vn 0.01587098 0.9998741 0
vn 0.61897 0.01587105 -0.7852542
vn 0.61897 0.01587105 -0.7852542
vn 0.61897 0.01587105 -0.7852542
vn 0.61897 0.01587105 -0.7852542
vn 0.61897 0.01587105 -0.7852542
vn -0.8094224 0.01587105 -0.5870124
vn -0.8094224 0.01587105 -0.5870124
vn -0.8094224 0.01587105 -0.5870124
vn -0.8094224 0.01587105 -0.5870124
vn -0.8094224 0.01587105 -0.5870124
vn -0.555486 0.01587105 0.8313744
vn -0.555486 0.01587105 0.8313744
vn -0.555486 0.01587105 0.8313744
vn -0.555486 0.01587105 0.8313744
vn -0.555486 0.01587105 0.8313744
vn 0.8729064 0.01587105 0.4876295
vn 0.8729064 0.01587105 0.4876295
vn 0.8729064 0.01587105 0.4876295
vn 0.8729064 0.01587105 0.4876295
vn 0.8729064 0.01587105 0.4876295
g DSJ_GTA_gaoLou_8_0
f 3/3/3 2/2/2 1/1/1
f 6/6/6 5/5/5 4/4/4
f 9/9/9 8/8/8 7/7/7
f 12/12/12 11/11/11 10/10/10
f 15/15/15 14/14/14 13/13/13
f 18/18/18 17/17/17 16/16/16
f 21/21/21 20/20/20 19/19/19
f 24/24/24 23/23/23 22/22/22
f 25/25/25 23/23/23 24/24/24
f 28/28/28 27/27/27 26/26/26
f 29/29/29 27/27/27 28/28/28
f 32/32/32 31/31/31 30/30/30
f 33/33/33 31/31/31 32/32/32
f 34/34/34 33/33/33 32/32/32
f 37/37/37 36/36/36 35/35/35
f 38/38/38 36/36/36 37/37/37
f 41/41/41 40/40/40 39/39/39
f 42/42/42 40/40/40 41/41/41
f 45/45/45 44/44/44 43/43/43
f 46/46/46 44/44/44 45/45/45
f 49/49/49 48/48/48 47/47/47
f 50/50/50 48/48/48 49/49/49
f 53/53/53 52/52/52 51/51/51
f 54/54/54 52/52/52 53/53/53
f 57/57/57 56/56/56 55/55/55
f 58/58/58 56/56/56 57/57/57
f 59/59/59 58/58/58 57/57/57
f 62/62/62 61/61/61 60/60/60
f 63/63/63 61/61/61 62/62/62
f 64/64/64 63/63/63 62/62/62
f 67/67/67 66/66/66 65/65/65
f 68/68/68 66/66/66 67/67/67
f 71/71/71 70/70/70 69/69/69
f 74/74/74 73/73/73 72/72/72
f 75/75/75 74/74/74 72/72/72
f 78/78/78 77/77/77 76/76/76
f 79/79/79 77/77/77 78/78/78
f 82/82/82 81/81/81 80/80/80
f 83/83/83 81/81/81 82/82/82
f 84/84/84 83/83/83 82/82/82
f 83/83/83 85/85/85 81/81/81
f 88/88/88 87/87/87 86/86/86
f 89/89/89 87/87/87 88/88/88
f 92/92/92 91/91/91 90/90/90
f 93/93/93 91/91/91 92/92/92
f 96/96/96 95/95/95 94/94/94
f 97/97/97 95/95/95 96/96/96
f 100/100/100 99/99/99 98/98/98
f 101/101/101 99/99/99 100/100/100
f 104/104/104 103/103/103 102/102/102
f 105/105/105 103/103/103 104/104/104
f 108/108/108 107/107/107 106/106/106
f 109/109/109 107/107/107 108/108/108
f 110/110/110 109/109/109 108/108/108
f 108/108/108 106/106/106 111/111/111
f 114/114/114 113/113/113 112/112/112
f 115/115/115 113/113/113 114/114/114
f 116/116/116 115/115/115 114/114/114
f 112/112/112 117/117/117 114/114/114
f 120/120/120 119/119/119 118/118/118
f 121/121/121 119/119/119 120/120/120
f 124/124/124 123/123/123 122/122/122
f 125/125/125 123/123/123 124/124/124
f 128/128/128 127/127/127 126/126/126
f 129/129/129 127/127/127 128/128/128
f 130/130/130 129/129/129 128/128/128
f 133/133/133 132/132/132 131/131/131
f 134/134/134 132/132/132 133/133/133
f 135/135/135 134/134/134 133/133/133
f 138/138/138 137/137/137 136/136/136
f 139/139/139 137/137/137 138/138/138
f 140/140/140 139/139/139 138/138/138
f 143/143/143 142/142/142 141/141/141
f 144/144/144 142/142/142 143/143/143
f 145/145/145 144/144/144 143/143/143
