g DSJ_GTA_gaoLou_14
v -17.76188 46.25896 21.27522
v -17.76188 46.25896 -21.40535
v 0.06506348 46.25896 -0.06506348
v 29.99351 46.25896 21.01497
v -17.76188 46.25896 21.27522
v 0.06506348 46.25896 -0.06506348
v 29.86338 46.25896 -21.53547
v 29.99351 46.25896 21.01497
v 0.06506348 46.25896 -0.06506348
v -17.76188 46.25896 -21.40535
v 29.86338 46.25896 -21.53547
v 0.06506348 46.25896 -0.06506348
v -5.660378 66.55826 -20.23423
v -15.54977 57.83997 -20.23423
v 29.21276 57.83997 -20.36436
v -15.41965 57.83997 19.97398
v -5.660378 66.55826 19.84386
v 29.21276 57.83997 19.84386
v -17.76188 52.89527 21.27522
v 0.06506348 52.89527 -0.06506348
v -17.76188 52.89527 -21.40535
v 29.99351 52.89527 21.01497
v 0.06506348 52.89527 -0.06506348
v -17.76188 52.89527 21.27522
v 29.86338 52.89527 -21.53547
v 0.06506348 52.89527 -0.06506348
v 29.99351 52.89527 21.01497
v -17.76188 52.89527 -21.40535
v 0.06506348 52.89527 -0.06506348
v 29.86338 52.89527 -21.53547
v -17.76188 57.97009 -21.40535
v 0.06506348 57.97009 -0.06506348
v -17.76188 57.97009 21.27522
v 29.86338 57.97009 -21.53547
v 0.06506348 57.97009 -0.06506348
v -17.76188 57.97009 -21.40535
v 29.99351 57.97009 21.01497
v 0.06506348 57.97009 -0.06506348
v 29.86338 57.97009 -21.53547
v -17.76188 57.97009 21.27522
v 0.06506348 57.97009 -0.06506348
v 29.99351 57.97009 21.01497
v -29.86338 23.74757 -21.27522
v -29.73325 23.74757 21.40534
v -29.86338 0.9759216 -21.27522
v -29.73325 0.9759216 21.40534
v -29.73325 23.74757 21.40534
v 29.99351 23.74757 21.01497
v -29.73325 0.9759216 21.40534
v 29.99351 0.9759216 21.01497
v 29.99351 23.74757 21.01497
v 29.86338 23.74757 -21.53547
v 29.99351 0.9759216 21.01497
v 29.86338 0.9759216 -21.53547
v 29.86338 23.74757 -21.53547
v -29.86338 23.74757 -21.27522
v 29.86338 0.9759216 -21.53547
v -29.86338 0.9759216 -21.27522
v -17.76188 46.25896 -21.40535
v -17.76188 46.25896 21.27522
v -29.86338 23.74757 -21.27522
v -29.73325 23.74757 21.40534
v -29.73325 -21.53547 21.40534
v -29.86338 -21.53547 -21.27522
v -29.73325 0.9759216 21.40534
v -29.86338 0.9759216 -21.27522
v -17.76188 46.25896 21.27522
v 29.99351 46.25896 21.01497
v -29.73325 23.74757 21.40534
v 29.99351 23.74757 21.01497
v 29.99351 -21.53547 21.01497
v -29.73325 -21.53547 21.40534
v 29.99351 0.9759216 21.01497
v -29.73325 0.9759216 21.40534
v 29.99351 46.25896 21.01497
v 29.86338 46.25896 -21.53547
v 29.99351 23.74757 21.01497
v 29.86338 23.74757 -21.53547
v 29.86338 -21.53547 -21.53547
v 29.99351 -21.53547 21.01497
v 29.86338 0.9759216 -21.53547
v 29.99351 0.9759216 21.01497
v 29.86338 46.25896 -21.53547
v -17.76188 46.25896 -21.40535
v 29.86338 23.74757 -21.53547
v -29.86338 23.74757 -21.27522
v -29.86338 -21.53547 -21.27522
v 29.86338 -21.53547 -21.53547
v -29.86338 0.9759216 -21.27522
v 29.86338 0.9759216 -21.53547
v -29.86338 -21.53547 -21.27522
v -29.73325 -21.53547 21.40534
v -29.86338 -44.04686 -21.27522
v -29.73325 -44.04686 21.40534
v -29.73325 -21.53547 21.40534
v 29.99351 -21.53547 21.01497
v -29.73325 -44.04686 21.40534
v 29.99351 -44.04686 21.01497
v 29.99351 -21.53547 21.01497
v 29.86338 -21.53547 -21.53547
v 29.99351 -44.04686 21.01497
v 29.86338 -44.04686 -21.53547
v 29.86338 -21.53547 -21.53547
v -29.86338 -21.53547 -21.27522
v 29.86338 -44.04686 -21.53547
v -29.86338 -44.04686 -21.27522
v -29.73325 -66.55826 21.40534
v -29.86338 -66.55826 -21.27522
v -29.73325 -44.04686 21.40534
v -29.86338 -44.04686 -21.27522
v 29.99351 -66.55826 21.01497
v -29.73325 -66.55826 21.40534
v 29.99351 -44.04686 21.01497
v -29.73325 -44.04686 21.40534
v 29.86338 -66.55826 -21.53547
v 29.99351 -66.55826 21.01497
v 29.86338 -44.04686 -21.53547
v 29.99351 -44.04686 21.01497
v -29.86338 -66.55826 -21.27522
v 29.86338 -66.55826 -21.53547
v -29.86338 -44.04686 -21.27522
v 29.86338 -44.04686 -21.53547
v -12.9473 45.60835 17.63175
v -13.07742 45.60835 -17.76188
v -12.9473 54.1965 17.63175
v -13.07742 54.1965 -17.76188
v 25.17893 45.60835 17.50163
v -12.9473 45.60835 17.63175
v 25.17893 54.1965 17.50163
v -12.9473 54.1965 17.63175
v 25.04881 45.60835 -17.89201
v 25.17893 45.60835 17.50163
v 25.04881 54.1965 -17.89201
v 25.17893 54.1965 17.50163
v -13.07742 45.60835 -17.76188
v 25.04881 45.60835 -17.89201
v -13.07742 54.1965 -17.76188
v 25.04881 54.1965 -17.89201
v -15.41965 57.83997 19.97398
v -15.54977 57.83997 -20.23423
v -5.660378 66.55826 19.84386
v -5.660378 66.55826 -20.23423
v -5.660378 66.55826 19.84386
v -5.660378 66.55826 -20.23423
v 29.21276 57.83997 19.84386
v 29.21276 57.83997 -20.36436
v -17.76188 52.89527 21.27522
v -17.76188 52.89527 -21.40535
v -17.76188 57.97009 21.27522
v -17.76188 57.97009 -21.40535
v 29.99351 52.89527 21.01497
v -17.76188 52.89527 21.27522
v 29.99351 57.97009 21.01497
v -17.76188 57.97009 21.27522
v 29.86338 52.89527 -21.53547
v 29.99351 52.89527 21.01497
v 29.86338 57.97009 -21.53547
v 29.99351 57.97009 21.01497
v -17.76188 52.89527 -21.40535
v 29.86338 52.89527 -21.53547
v -17.76188 57.97009 -21.40535
v 29.86338 57.97009 -21.53547
vt 0.2554441 0.9285904
vt 0.2979994 0.9285904
vt 0.2786561 0.9053785
vt 0.2554441 0.9285904
vt 0.2979994 0.9285904
vt 0.2786561 0.9053785
vt 0.2554441 0.9285904
vt 0.2979994 0.9285904
vt 0.2786561 0.9053785
vt 0.2554441 0.9285904
vt 0.2979994 0.9285904
vt 0.2786561 0.9053785
vt 0.3715038 0.9053785
vt 0.3715038 0.9247218
vt 0.2477068 0.9053785
vt 0.3715038 0.9247218
vt 0.3715038 0.9053785
vt 0.2477068 0.9053785
vt 0.2477068 0.9479337
vt 0.2747874 0.9750143
vt 0.2979994 0.9479337
vt 0.2477068 0.9479337
vt 0.2747874 0.9750143
vt 0.2979994 0.9479337
vt 0.2477068 0.9479337
vt 0.2747874 0.9750143
vt 0.2979994 0.9479337
vt 0.2477068 0.9479337
vt 0.2747874 0.9750143
vt 0.2979994 0.9479337
vt 0.2979994 0.9750143
vt 0.2786561 0.9479337
vt 0.2477068 0.9750143
vt 0.2979994 0.9750143
vt 0.2786561 0.9479337
vt 0.2477068 0.9750143
vt 0.2979994 0.9750143
vt 0.2786561 0.9479337
vt 0.2477068 0.9750143
vt 0.2979994 0.9750143
vt 0.2786561 0.9479337
vt 0.2477068 0.9750143
vt 0.2477068 0.9982263
vt 0.3715038 0.9982263
vt 0.2477068 0.7506322
vt 0.3715038 0.7506322
vt 0.2477068 0.9982263
vt 0.3715038 0.9982263
vt 0.2477068 0.7506322
vt 0.3715038 0.7506322
vt 0.2477068 0.9982263
vt 0.3715038 0.9982263
vt 0.2477068 0.7506322
vt 0.3715038 0.7506322
vt 0.2477068 0.9982263
vt 0.3715038 0.9982263
vt 0.2477068 0.7506322
vt 0.3715038 0.7506322
vt 0.2477068 0.978883
vt 0.3715038 0.978883
vt 0.2477068 0.7506322
vt 0.3715038 0.7506322
vt 0.3715038 0.7506322
vt 0.2477068 0.7506322
vt 0.3715038 0.9982263
vt 0.2477068 0.9982263
vt 0.2747874 0.978883
vt 0.3715038 0.978883
vt 0.2477068 0.7506322
vt 0.3715038 0.7506322
vt 0.3715038 0.7506322
vt 0.2477068 0.7506322
vt 0.3715038 0.9982263
vt 0.2477068 0.9982263
vt 0.2477068 0.978883
vt 0.3715038 0.978883
vt 0.2477068 0.7506322
vt 0.3715038 0.7506322
vt 0.3715038 0.7506322
vt 0.2477068 0.7506322
vt 0.3715038 0.9982263
vt 0.2477068 0.9982263
vt 0.2477068 0.978883
vt 0.3444232 0.978883
vt 0.2477068 0.7506322
vt 0.3715038 0.7506322
vt 0.3715038 0.7506322
vt 0.2477068 0.7506322
vt 0.3715038 0.9982263
vt 0.2477068 0.9982263
vt 0.2477068 0.9982263
vt 0.3715038 0.9982263
vt 0.2477068 0.7506322
vt 0.3715038 0.7506322
vt 0.2477068 0.9982263
vt 0.3715038 0.9982263
vt 0.2477068 0.7506322
vt 0.3715038 0.7506322
vt 0.2477068 0.9982263
vt 0.3715038 0.9982263
vt 0.2477068 0.7506322
vt 0.3715038 0.7506322
vt 0.2477068 0.9982263
vt 0.3715038 0.9982263
vt 0.2477068 0.7506322
vt 0.3715038 0.7506322
vt 0.3715038 0.7583696
vt 0.2477068 0.7583696
vt 0.3715038 0.9982263
vt 0.2477068 0.9982263
vt 0.3715038 0.7583696
vt 0.2477068 0.7583696
vt 0.3715038 0.9982263
vt 0.2477068 0.9982263
vt 0.3715038 0.7583696
vt 0.2477068 0.7583696
vt 0.3715038 0.9982263
vt 0.2477068 0.9982263
vt 0.3715038 0.7583696
vt 0.2477068 0.7583696
vt 0.3715038 0.9982263
vt 0.2477068 0.9982263
vt 0.3715038 0.8280054
vt 0.2477068 0.8280054
vt 0.3715038 0.8473486
vt 0.2477068 0.8473486
vt 0.3715038 0.8280054
vt 0.2786561 0.8280054
vt 0.3715038 0.8473486
vt 0.2786561 0.8473486
vt 0.3715038 0.8280054
vt 0.2477068 0.8280054
vt 0.3715038 0.8473486
vt 0.2477068 0.8473486
vt 0.3444232 0.8280054
vt 0.2477068 0.8280054
vt 0.3444232 0.8473486
vt 0.2477068 0.8473486
vt 0.3715038 0.9053785
vt 0.2477068 0.9053785
vt 0.3715038 0.9247218
vt 0.2477068 0.9247218
vt 0.3715038 0.9247218
vt 0.3715038 0.9053785
vt 0.2477068 0.9247218
vt 0.2477068 0.9053785
vt 0.2477068 0.9479337
vt 0.3715038 0.9479337
vt 0.2477068 0.978883
vt 0.3715038 0.978883
vt 0.2477068 0.9479337
vt 0.3444232 0.9479337
vt 0.2477068 0.978883
vt 0.3444232 0.978883
vt 0.2477068 0.9479337
vt 0.3715038 0.9479337
vt 0.2477068 0.978883
vt 0.3715038 0.978883
vt 0.2747874 0.9479337
vt 0.3715038 0.9479337
vt 0.2747874 0.978883
vt 0.3715038 0.978883
vn 0.01587099 0.999874 -0.000345267
vn 0.01587099 0.999874 -0.000345267
vn 0.01587099 0.999874 -0.000345267
vn 0.01587099 0.999874 -0.000345267
vn 0.01587099 0.999874 -0.000345267
vn 0.01587099 0.999874 -0.000345267
vn 0.01587099 0.999874 -0.000345267
vn 0.01587099 0.999874 -0.000345267
vn 0.01587099 0.999874 -0.000345267
vn 0.01587099 0.999874 -0.000345267
vn 0.01587099 0.999874 -0.000345267
vn 0.01587099 0.999874 -0.000345267
vn 0.04761302 -0.04761302 -0.9977304
vn 0.04761302 -0.04761302 -0.9977304
vn 0.04761302 -0.04761302 -0.9977304
vn 0.04761302 -0.04761302 0.9977304
vn 0.04761302 -0.04761302 0.9977304
vn 0.04761302 -0.04761302 0.9977304
vn 0.01587099 -0.999874 -0.000345267
vn 0.01587099 -0.999874 -0.000345267
vn 0.01587099 -0.999874 -0.000345267
vn 0.01587099 -0.999874 -0.000345267
vn 0.01587099 -0.999874 -0.000345267
vn 0.01587099 -0.999874 -0.000345267
vn 0.01587099 -0.999874 -0.000345267
vn 0.01587099 -0.999874 -0.000345267
vn 0.01587099 -0.999874 -0.000345267
vn 0.01587099 -0.999874 -0.000345267
vn 0.01587099 -0.999874 -0.000345267
vn 0.01587099 -0.999874 -0.000345267
vn 0.01587099 0.999874 -0.000345267
vn 0.01587099 0.999874 -0.000345267
vn 0.01587099 0.999874 -0.000345267
vn 0.01587099 0.999874 -0.000345267
vn 0.01587099 0.999874 -0.000345267
vn 0.01587099 0.999874 -0.000345267
vn 0.01587099 0.999874 -0.000345267
vn 0.01587099 0.999874 -0.000345267
vn 0.01587099 0.999874 -0.000345267
vn 0.01587099 0.999874 -0.000345267
vn 0.01587099 0.999874 -0.000345267
vn 0.01587099 0.999874 -0.000345267
vn -0.968132 -0.04761302 0.2458728
vn -0.968132 -0.04761302 0.2458728
vn -0.968132 -0.04761302 0.2458728
vn -0.968132 -0.04761302 0.2458728
vn 0.04761302 -0.04761302 0.9977304
vn 0.04761302 -0.04761302 0.9977304
vn 0.04761302 -0.04761302 0.9977304
vn 0.04761302 -0.04761302 0.9977304
vn 0.999874 -0.01587099 -0.000346655
vn 0.999874 -0.01587099 -0.000346655
vn 0.999874 -0.01587099 -0.000346655
vn 0.999874 -0.01587099 -0.000346655
vn 0.04761302 -0.04761302 -0.9977304
vn 0.04761302 -0.04761302 -0.9977304
vn 0.04761302 -0.04761302 -0.9977304
vn 0.04761302 -0.04761302 -0.9977304
vn -0.8729059 0.4602594 0.1618537
vn -0.8729059 0.4602594 0.1618537
vn -0.8729059 0.4602594 0.1618537
vn -0.8729059 0.4602594 0.1618537
vn -0.968132 -0.04761302 0.2458728
vn -0.968132 -0.04761302 0.2458728
vn -0.968132 -0.04761302 0.2458728
vn -0.968132 -0.04761302 0.2458728
vn 0.04761302 -0.04761302 0.9977304
vn 0.04761302 -0.04761302 0.9977304
vn 0.04761302 -0.04761302 0.9977304
vn 0.04761302 -0.04761302 0.9977304
vn 0.04761302 -0.04761302 0.9977304
vn 0.04761302 -0.04761302 0.9977304
vn 0.04761302 -0.04761302 0.9977304
vn 0.04761302 -0.04761302 0.9977304
vn 0.999874 -0.01587099 -0.000346655
vn 0.999874 -0.01587099 -0.000346655
vn 0.999874 -0.01587099 -0.000346655
vn 0.999874 -0.01587099 -0.000346655
vn 0.999874 -0.01587099 -0.000346655
vn 0.999874 -0.01587099 -0.000346655
vn 0.999874 -0.01587099 -0.000346655
vn 0.999874 -0.01587099 -0.000346655
vn 0.04761302 -0.04761302 -0.9977304
vn 0.04761302 -0.04761302 -0.9977304
vn 0.04761302 -0.04761302 -0.9977304
vn 0.04761302 -0.04761302 -0.9977304
vn 0.04761302 -0.04761302 -0.9977304
vn 0.04761302 -0.04761302 -0.9977304
vn 0.04761302 -0.04761302 -0.9977304
vn 0.04761302 -0.04761302 -0.9977304
vn -0.968132 -0.04761302 0.2458728
vn -0.968132 -0.04761302 0.2458728
vn -0.968132 -0.04761302 0.2458728
vn -0.968132 -0.04761302 0.2458728
vn 0.04761302 -0.04761302 0.9977304
vn 0.04761302 -0.04761302 0.9977304
vn 0.04761302 -0.04761302 0.9977304
vn 0.04761302 -0.04761302 0.9977304
vn 0.999874 -0.01587099 -0.000346655
vn 0.999874 -0.01587099 -0.000346655
vn 0.999874 -0.01587099 -0.000346655
vn 0.999874 -0.01587099 -0.000346655
vn 0.04761302 -0.04761302 -0.9977304
vn 0.04761302 -0.04761302 -0.9977304
vn 0.04761302 -0.04761302 -0.9977304
vn 0.04761302 -0.04761302 -0.9977304
vn -0.968132 -0.04761302 0.2458728
vn -0.968132 -0.04761302 0.2458728
vn -0.968132 -0.04761302 0.2458728
vn -0.968132 -0.04761302 0.2458728
vn 0.04761302 -0.04761302 0.9977304
vn 0.04761302 -0.04761302 0.9977304
vn 0.04761302 -0.04761302 0.9977304
vn 0.04761302 -0.04761302 0.9977304
vn 0.999874 -0.01587099 -0.000346655
vn 0.999874 -0.01587099 -0.000346655
vn 0.999874 -0.01587099 -0.000346655
vn 0.999874 -0.01587099 -0.000346655
vn 0.04761302 -0.04761302 -0.9977304
vn 0.04761302 -0.04761302 -0.9977304
vn 0.04761302 -0.04761302 -0.9977304
vn 0.04761302 -0.04761302 -0.9977304
vn -0.968132 -0.04761302 0.2458728
vn -0.968132 -0.04761302 0.2458728
vn -0.968132 -0.04761302 0.2458728
vn -0.968132 -0.04761302 0.2458728
vn 0.04761302 -0.04761302 0.9977304
vn 0.04761302 -0.04761302 0.9977304
vn 0.04761302 -0.04761302 0.9977304
vn 0.04761302 -0.04761302 0.9977304
vn 0.999874 -0.01587099 -0.000346655
vn 0.999874 -0.01587099 -0.000346655
vn 0.999874 -0.01587099 -0.000346655
vn 0.999874 -0.01587099 -0.000346655
vn 0.04761302 -0.04761302 -0.9977304
vn 0.04761302 -0.04761302 -0.9977304
vn 0.04761302 -0.04761302 -0.9977304
vn 0.04761302 -0.04761302 -0.9977304
vn -0.6507117 0.7459378 0.1419545
vn -0.6507117 0.7459378 0.1419545
vn -0.6507117 0.7459378 0.1419545
vn -0.6507117 0.7459378 0.1419545
vn 0.2698073 0.9363899 -0.2244502
vn 0.2698073 0.9363899 -0.2244502
vn 0.2698073 0.9363899 -0.2244502
vn 0.2698073 0.9363899 -0.2244502
vn -0.968132 -0.04761302 0.2458728
vn -0.968132 -0.04761302 0.2458728
vn -0.968132 -0.04761302 0.2458728
vn -0.968132 -0.04761302 0.2458728
vn 0.04761302 -0.04761302 0.9977304
vn 0.04761302 -0.04761302 0.9977304
vn 0.04761302 -0.04761302 0.9977304
vn 0.04761302 -0.04761302 0.9977304
vn 0.999874 -0.01587099 -0.000346655
vn 0.999874 -0.01587099 -0.000346655
vn 0.999874 -0.01587099 -0.000346655
vn 0.999874 -0.01587099 -0.000346655
vn 0.04761302 -0.04761302 -0.9977304
vn 0.04761302 -0.04761302 -0.9977304
vn 0.04761302 -0.04761302 -0.9977304
vn 0.04761302 -0.04761302 -0.9977304
g DSJ_GTA_gaoLou_14_0
f 3/3/3 2/2/2 1/1/1
f 6/6/6 5/5/5 4/4/4
f 9/9/9 8/8/8 7/7/7
f 12/12/12 11/11/11 10/10/10
f 15/15/15 14/14/14 13/13/13
f 18/18/18 17/17/17 16/16/16
f 21/21/21 20/20/20 19/19/19
f 24/24/24 23/23/23 22/22/22
f 27/27/27 26/26/26 25/25/25
f 30/30/30 29/29/29 28/28/28
f 33/33/33 32/32/32 31/31/31
f 36/36/36 35/35/35 34/34/34
f 39/39/39 38/38/38 37/37/37
f 42/42/42 41/41/41 40/40/40
f 45/45/45 44/44/44 43/43/43
f 46/46/46 44/44/44 45/45/45
f 49/49/49 48/48/48 47/47/47
f 50/50/50 48/48/48 49/49/49
f 53/53/53 52/52/52 51/51/51
f 54/54/54 52/52/52 53/53/53
f 57/57/57 56/56/56 55/55/55
f 58/58/58 56/56/56 57/57/57
f 61/61/61 60/60/60 59/59/59
f 62/62/62 60/60/60 61/61/61
f 65/65/65 64/64/64 63/63/63
f 66/66/66 64/64/64 65/65/65
f 69/69/69 68/68/68 67/67/67
f 70/70/70 68/68/68 69/69/69
f 73/73/73 72/72/72 71/71/71
f 74/74/74 72/72/72 73/73/73
f 77/77/77 76/76/76 75/75/75
f 78/78/78 76/76/76 77/77/77
f 81/81/81 80/80/80 79/79/79
f 82/82/82 80/80/80 81/81/81
f 85/85/85 84/84/84 83/83/83
f 86/86/86 84/84/84 85/85/85
f 89/89/89 88/88/88 87/87/87
f 90/90/90 88/88/88 89/89/89
f 93/93/93 92/92/92 91/91/91
f 94/94/94 92/92/92 93/93/93
f 97/97/97 96/96/96 95/95/95
f 98/98/98 96/96/96 97/97/97
f 101/101/101 100/100/100 99/99/99
f 102/102/102 100/100/100 101/101/101
f 105/105/105 104/104/104 103/103/103
f 106/106/106 104/104/104 105/105/105
f 109/109/109 108/108/108 107/107/107
f 110/110/110 108/108/108 109/109/109
f 113/113/113 112/112/112 111/111/111
f 114/114/114 112/112/112 113/113/113
f 117/117/117 116/116/116 115/115/115
f 118/118/118 116/116/116 117/117/117
f 121/121/121 120/120/120 119/119/119
f 122/122/122 120/120/120 121/121/121
f 125/125/125 124/124/124 123/123/123
f 126/126/126 124/124/124 125/125/125
f 129/129/129 128/128/128 127/127/127
f 130/130/130 128/128/128 129/129/129
f 133/133/133 132/132/132 131/131/131
f 134/134/134 132/132/132 133/133/133
f 137/137/137 136/136/136 135/135/135
f 138/138/138 136/136/136 137/137/137
f 141/141/141 140/140/140 139/139/139
f 142/142/142 140/140/140 141/141/141
f 145/145/145 144/144/144 143/143/143
f 146/146/146 144/144/144 145/145/145
f 149/149/149 148/148/148 147/147/147
f 150/150/150 148/148/148 149/149/149
f 153/153/153 152/152/152 151/151/151
f 154/154/154 152/152/152 153/153/153
f 157/157/157 156/156/156 155/155/155
f 158/158/158 156/156/156 157/157/157
f 161/161/161 160/160/160 159/159/159
f 162/162/162 160/160/160 161/161/161
