g DSJ_GTA_daoJu_huaTan_19
v -1.68398 1.207141 1.580214
v 1.654816 1.207141 -1.602983
v 1.654816 1.207141 1.580214
v -1.68398 1.207141 -1.602983
v -2.038762 1.159482 -1.991057
v -2.038754 0.01214838 1.968284
v -2.038762 0.01214838 -1.991053
v -2.038754 1.159482 1.968279
v 2.009573 1.159482 1.968279
v -2.038754 0.01214838 1.968284
v -2.038754 1.159482 1.968279
v 2.009573 0.01214838 1.968284
v 2.009573 0.01214838 1.968284
v 2.009573 1.159482 -1.991057
v 2.009573 0.01214838 -1.991053
v 2.009573 1.159482 1.968279
v -2.038762 1.159482 -1.991057
v 2.009573 0.01214838 -1.991053
v 2.009573 1.159482 -1.991057
v -2.038762 0.01214838 -1.991053
v -1.68398 1.398866 1.580214
v 1.654816 1.207141 1.580214
v 1.654816 1.398866 1.580214
v -1.68398 1.207141 1.580214
v -1.68398 1.398866 1.580214
v -1.68398 1.207141 -1.602983
v -1.68398 1.207141 1.580214
v -1.68398 1.398866 -1.602983
v 1.654816 1.398866 -1.602983
v -1.68398 1.207141 -1.602983
v -1.68398 1.398866 -1.602983
v 1.654816 1.207141 -1.602983
v 1.654816 1.398866 -1.602983
v 1.654816 1.207141 1.580214
v 1.654816 1.207141 -1.602983
v 1.654816 1.398866 1.580214
v 2.188379 1.398866 -2.126887
v -2.188379 1.159482 -2.126887
v 2.188379 1.159482 -2.126887
v -2.188379 1.398866 -2.126887
v 2.188379 1.398866 -2.126887
v -1.68398 1.398866 -1.602983
v -2.188379 1.398866 -2.126887
v 1.654816 1.398866 -1.602983
v 2.188379 1.159482 2.126879
v -2.188379 1.398866 2.126879
v 2.188379 1.398866 2.126879
v -2.188379 1.159482 2.126879
v 2.188379 1.398866 -2.126887
v 2.188379 1.159482 2.126879
v 2.188379 1.398866 2.126879
v 2.188379 1.159482 -2.126887
v 2.188379 1.398866 -2.126887
v 1.654816 1.398866 1.580214
v 1.654816 1.398866 -1.602983
v 2.188379 1.398866 2.126879
v -2.188379 1.159482 -2.126887
v -2.188379 1.398866 2.126879
v -2.188379 1.159482 2.126879
v -2.188379 1.398866 -2.126887
v -2.188379 1.159482 -2.126887
v -2.038754 1.159482 1.968279
v -2.038762 1.159482 -1.991057
v -2.188379 1.159482 2.126879
v 2.188379 1.159482 2.126879
v 2.009573 1.159482 -1.991057
v 2.009573 1.159482 1.968279
v 2.188379 1.159482 -2.126887
v 2.188379 1.398866 2.126879
v -1.68398 1.398866 1.580214
v 1.654816 1.398866 1.580214
v -2.188379 1.398866 2.126879
v -2.188379 1.398866 2.126879
v -1.68398 1.398866 -1.602983
v -1.68398 1.398866 1.580214
v -2.188379 1.398866 -2.126887
v 2.188379 1.159482 2.126879
v -2.038754 1.159482 1.968279
v -2.188379 1.159482 2.126879
v 2.009573 1.159482 1.968279
v -2.188379 1.159482 -2.126887
v 2.009573 1.159482 -1.991057
v 2.188379 1.159482 -2.126887
v -2.038762 1.159482 -1.991057
vt 0.7477465 0.01193106
vt 0.9920841 0.257033
vt 0.7477465 0.257033
vt 0.9920991 0.01194604
vt 0.01107683 0.8046796
vt 0.2597605 0.9385978
vt 0.01107683 0.9385978
vt 0.2597605 0.8046796
vt 0.01107683 0.8046796
vt 0.2597605 0.9385978
vt 0.2597605 0.8046796
vt 0.01107683 0.9385978
vt 0.01107683 0.9385978
vt 0.2597605 0.8046796
vt 0.2597605 0.9385978
vt 0.01107683 0.8046796
vt 0.01107683 0.8046796
vt 0.2597605 0.9385978
vt 0.2597605 0.8046796
vt 0.01107683 0.9385978
vt 0.01035749 0.9638648
vt 0.2606747 0.9893416
vt 0.2606747 0.9638648
vt 0.01035749 0.9893416
vt 0.2606747 0.9639996
vt 0.2606747 0.9893266
vt 0.2606747 0.9893266
vt 0.2606747 0.9639996
vt 0.2606747 0.9638648
vt 0.01035749 0.9893416
vt 0.01035749 0.9638648
vt 0.2606747 0.9893416
vt 0.2606747 0.9639996
vt 0.2606747 0.9893266
vt 0.2606747 0.9893266
vt 0.2606747 0.9639996
vt 0.2606747 0.9638648
vt 0.01035749 0.9893416
vt 0.2606747 0.9893416
vt 0.01035749 0.9638648
vt 0.2311516 0.9638648
vt 0.06567215 0.9388675
vt 0.04287789 0.9638648
vt 0.2077129 0.9388675
vt 0.2606747 0.9893416
vt 0.01035749 0.9638648
vt 0.2606747 0.9638648
vt 0.01035749 0.9893416
vt 0.2602251 0.9638648
vt 0.009967843 0.9893416
vt 0.009967843 0.9638648
vt 0.2602251 0.9893416
vt 0.2607196 0.9638648
vt 0.02959998 0.9388675
vt 0.244939 0.9388675
vt 0.01404413 0.9638648
vt 0.009967843 0.9893416
vt 0.2602251 0.9638648
vt 0.2602251 0.9893416
vt 0.009967843 0.9638648
vt 0.26036 0.9638648
vt 0.01862996 0.9544983
vt 0.2552346 0.9544983
vt 0.01369945 0.9638648
vt 0.01404413 0.9638648
vt 0.2555643 0.9544983
vt 0.01895966 0.9544983
vt 0.2607196 0.9638648
vt 0.2326052 0.9638648
vt 0.06711084 0.9388675
vt 0.2091666 0.9388675
vt 0.04434656 0.9638648
vt 0.01372942 0.9638648
vt 0.2446093 0.9388675
vt 0.02925529 0.9388675
vt 0.26036 0.9638648
vt 0.2326052 0.9638648
vt 0.05201957 0.9544983
vt 0.04434656 0.9638648
vt 0.2242728 0.9544983
vt 0.04287789 0.9638648
vt 0.2228191 0.9544983
vt 0.2311516 0.9638648
vt 0.05059587 0.9544983
vn 0.003921568 0.9999923 -0.000345267
vn 0.003921568 0.9999923 -0.000345267
vn 0.003921568 0.9999923 -0.000345267
vn 0.003921568 0.9999923 -0.000345267
vn -0.9999923 -0.003921568 -0.0003442513
vn -0.9999923 -0.003921568 -0.0003442513
vn -0.9999923 -0.003921568 -0.0003442513
vn -0.9999923 -0.003921568 -0.0003442513
vn 0.01176465 -0.01176465 0.9998616
vn 0.01176465 -0.01176465 0.9998616
vn 0.01176465 -0.01176465 0.9998616
vn 0.01176465 -0.01176465 0.9998616
vn 0.9999924 -0.003921568 0
vn 0.9999924 -0.003921568 0
vn 0.9999924 -0.003921568 0
vn 0.9999924 -0.003921568 0
vn 0.01176465 -0.01176465 -0.9998616
vn 0.01176465 -0.01176465 -0.9998616
vn 0.01176465 -0.01176465 -0.9998616
vn 0.01176465 -0.01176465 -0.9998616
vn 0.01176465 -0.01176465 -0.9998616
vn 0.01176465 -0.01176465 -0.9998616
vn 0.01176465 -0.01176465 -0.9998616
vn 0.01176465 -0.01176465 -0.9998616
vn 0.9999924 -0.003921568 0
vn 0.9999924 -0.003921568 0
vn 0.9999924 -0.003921568 0
vn 0.9999924 -0.003921568 0
vn 0.01176465 -0.01176465 0.9998616
vn 0.01176465 -0.01176465 0.9998616
vn 0.01176465 -0.01176465 0.9998616
vn 0.01176465 -0.01176465 0.9998616
vn -0.9999923 -0.003921568 -0.0003442513
vn -0.9999923 -0.003921568 -0.0003442513
vn -0.9999923 -0.003921568 -0.0003442513
vn -0.9999923 -0.003921568 -0.0003442513
vn 0.01176465 -0.01176465 -0.9998616
vn 0.01176465 -0.01176465 -0.9998616
vn 0.01176465 -0.01176465 -0.9998616
vn 0.01176465 -0.01176465 -0.9998616
vn 0.003921568 0.9999923 -0.000345267
vn 0.003921568 0.9999923 -0.000345267
vn 0.003921568 0.9999923 -0.000345267
vn 0.003921568 0.9999923 -0.000345267
vn 0.01176465 -0.01176465 0.9998616
vn 0.01176465 -0.01176465 0.9998616
vn 0.01176465 -0.01176465 0.9998616
vn 0.01176465 -0.01176465 0.9998616
vn 0.9999924 -0.003921568 0
vn 0.9999924 -0.003921568 0
vn 0.9999924 -0.003921568 0
vn 0.9999924 -0.003921568 0
vn 0.003921568 0.9999923 -0.000345267
vn 0.003921568 0.9999923 -0.000345267
vn 0.003921568 0.9999923 -0.000345267
vn 0.003921568 0.9999923 -0.000345267
vn -0.9999923 -0.003921568 -0.0003442513
vn -0.9999923 -0.003921568 -0.0003442513
vn -0.9999923 -0.003921568 -0.0003442513
vn -0.9999923 -0.003921568 -0.0003442513
vn 0.003921568 -0.9999924 0
vn 0.003921568 -0.9999924 0
vn 0.003921568 -0.9999924 0
vn 0.003921568 -0.9999924 0
vn 0.003921568 -0.9999924 0
vn 0.003921568 -0.9999924 0
vn 0.003921568 -0.9999924 0
vn 0.003921568 -0.9999924 0
vn 0.003921568 0.9999923 -0.000345267
vn 0.003921568 0.9999923 -0.000345267
vn 0.003921568 0.9999923 -0.000345267
vn 0.003921568 0.9999923 -0.000345267
vn 0.003921568 0.9999923 -0.000345267
vn 0.003921568 0.9999923 -0.000345267
vn 0.003921568 0.9999923 -0.000345267
vn 0.003921568 0.9999923 -0.000345267
vn 0.003921568 -0.9999924 0
vn 0.003921568 -0.9999924 0
vn 0.003921568 -0.9999924 0
vn 0.003921568 -0.9999924 0
vn 0.003921568 -0.9999924 0
vn 0.003921568 -0.9999924 0
vn 0.003921568 -0.9999924 0
vn 0.003921568 -0.9999924 0
g DSJ_GTA_daoJu_huaTan_19_0
f 3/3/3 2/2/2 1/1/1
f 4/4/4 1/1/1 2/2/2
f 7/7/7 6/6/6 5/5/5
f 8/8/8 5/5/5 6/6/6
f 11/11/11 10/10/10 9/9/9
f 12/12/12 9/9/9 10/10/10
f 15/15/15 14/14/14 13/13/13
f 16/16/16 13/13/13 14/14/14
f 19/19/19 18/18/18 17/17/17
f 20/20/20 17/17/17 18/18/18
f 23/23/23 22/22/22 21/21/21
f 24/24/24 21/21/21 22/22/22
f 27/27/27 26/26/26 25/25/25
f 28/28/28 25/25/25 26/26/26
f 31/31/31 30/30/30 29/29/29
f 32/32/32 29/29/29 30/30/30
f 35/35/35 34/34/34 33/33/33
f 36/36/36 33/33/33 34/34/34
f 39/39/39 38/38/38 37/37/37
f 40/40/40 37/37/37 38/38/38
f 43/43/43 42/42/42 41/41/41
f 44/44/44 41/41/41 42/42/42
f 47/47/47 46/46/46 45/45/45
f 48/48/48 45/45/45 46/46/46
f 51/51/51 50/50/50 49/49/49
f 52/52/52 49/49/49 50/50/50
f 55/55/55 54/54/54 53/53/53
f 56/56/56 53/53/53 54/54/54
f 59/59/59 58/58/58 57/57/57
f 60/60/60 57/57/57 58/58/58
f 63/63/63 62/62/62 61/61/61
f 64/64/64 61/61/61 62/62/62
f 67/67/67 66/66/66 65/65/65
f 68/68/68 65/65/65 66/66/66
f 71/71/71 70/70/70 69/69/69
f 72/72/72 69/69/69 70/70/70
f 75/75/75 74/74/74 73/73/73
f 76/76/76 73/73/73 74/74/74
f 79/79/79 78/78/78 77/77/77
f 80/80/80 77/77/77 78/78/78
f 83/83/83 82/82/82 81/81/81
f 84/84/84 81/81/81 82/82/82
