g DSJ_GTA_daoJu_huaTan_10
v 7.00998 0.02700806 0.9443431
v 7.00998 0.4364386 -0.9443836
v 7.00998 0.02700806 -0.9443703
v 7.00998 0.4364386 0.9443564
v -7.009966 0.02700806 -0.9443703
v -7.009966 0.4364386 0.9443564
v -7.009966 0.02700806 0.9443431
v -7.009966 0.4364386 -0.9443836
v 7.00998 0.4364386 0.9443564
v 6.565612 0.4364386 -0.6421041
v 7.00998 0.4364386 -0.9443836
v 6.565612 0.4364386 0.6420765
v -7.009966 0.4364386 -0.9443836
v -6.565558 0.4364386 0.6420765
v -7.009966 0.4364386 0.9443564
v -6.565545 0.4364386 -0.6421041
v 6.565612 0.4364386 0.6420765
v 6.565612 1.461593 -0.6421041
v 6.565612 0.4364386 -0.6421041
v 6.565612 1.461593 0.6420898
v -6.565545 0.4364386 -0.6421041
v -6.565545 1.461593 0.6420765
v -6.565558 0.4364386 0.6420765
v -6.565518 1.461593 -0.6421041
v 6.565612 1.461593 0.6420898
v 0.2268305 1.461593 -0.6421041
v 6.565612 1.461593 -0.6421041
v 0.2268305 1.461593 0.6420898
v -6.565518 1.461593 -0.6421041
v 0.2268305 1.461593 0.6420898
v -6.565545 1.461593 0.6420765
v 0.2268305 1.461593 -0.6421041
v 7.00998 0.02700806 0.9443431
v 0.2268305 0.4364386 0.9443564
v 7.00998 0.4364386 0.9443564
v 0.2268305 0.02700806 0.9443564
v -7.009966 0.4364386 0.9443564
v -7.009966 0.02700806 0.9443431
v -7.009966 0.02700806 -0.9443703
v 0.2268305 0.4364386 -0.9443836
v -7.009966 0.4364386 -0.9443836
v 0.2268305 0.02700806 -0.9443703
v 7.00998 0.4364386 -0.9443836
v 7.00998 0.02700806 -0.9443703
v 0.2268305 0.4364386 0.9443564
v 6.565612 0.4364386 0.6420765
v 7.00998 0.4364386 0.9443564
v 6.565612 0.4364386 0.6420765
v 0.2268305 0.4364386 0.6420765
v -6.565558 0.4364386 0.6420765
v -7.009966 0.4364386 0.9443564
v 0.2268305 0.4364386 -0.9443836
v -6.565545 0.4364386 -0.6421041
v -7.009966 0.4364386 -0.9443836
v -6.565545 0.4364386 -0.6421041
v 0.2268305 0.4364386 -0.9443836
v 0.2268305 0.4364386 -0.6421041
v 6.565612 0.4364386 -0.6421041
v 7.00998 0.4364386 -0.9443836
v 6.565612 0.4364386 0.6420765
v 0.2268305 1.461593 0.6420898
v 6.565612 1.461593 0.6420898
v 0.2268305 0.4364386 0.6420765
v -6.565545 1.461593 0.6420765
v 0.2268305 0.4364386 0.6420765
v -6.565558 0.4364386 0.6420765
v 0.2268305 1.461593 0.6420898
v -6.565545 0.4364386 -0.6421041
v 0.2268305 1.461593 -0.6421041
v -6.565518 1.461593 -0.6421041
v 0.2268305 0.4364386 -0.6421041
v 6.565612 1.461593 -0.6421041
v 0.2268305 0.4364386 -0.6421041
v 6.565612 0.4364386 -0.6421041
v 0.2268305 1.461593 -0.6421041
vt 0.2931728 0.2592959
vt 0.2649504 0.412858
vt 0.2931728 0.412858
vt 0.2649504 0.2592959
vt 0.2931728 0.2592959
vt 0.2649504 0.412858
vt 0.2931728 0.412858
vt 0.2649504 0.2592959
vt 0.2649504 0.2592959
vt 0.2488696 0.3969272
vt 0.2649504 0.412858
vt 0.2488696 0.2732947
vt 0.2649504 0.2592959
vt 0.2488696 0.3969272
vt 0.2649504 0.412858
vt 0.2488696 0.2732947
vt 0.2355121 0.4233592
vt 0.2978696 0.466255
vt 0.2978696 0.4233592
vt 0.2355121 0.466255
vt 0.2355121 0.4233592
vt 0.2978696 0.466255
vt 0.2978696 0.4233592
vt 0.2355121 0.466255
vt 0.4838597 0.466255
vt 0.2355121 0.5083846
vt 0.4838597 0.5083846
vt 0.2355121 0.466255
vt 0.2355121 0.5083846
vt 0.4838597 0.466255
vt 0.2355121 0.466255
vt 0.4838597 0.5083846
vt 0.2931728 0.2592959
vt 0.2649504 0.3360769
vt 0.2649504 0.2592959
vt 0.2931728 0.3360769
vt 0.2649504 0.412858
vt 0.2931728 0.412858
vt 0.2931728 0.2592959
vt 0.2649504 0.3360769
vt 0.2649504 0.2592959
vt 0.2931728 0.3360769
vt 0.2649504 0.412858
vt 0.2931728 0.412858
vt 0.2649504 0.3360769
vt 0.2488696 0.2732947
vt 0.2649504 0.2592959
vt 0.2488696 0.2732947
vt 0.2488696 0.3351109
vt 0.2488696 0.3969272
vt 0.2649504 0.412858
vt 0.2649504 0.3360769
vt 0.2488696 0.2732947
vt 0.2649504 0.2592959
vt 0.2488696 0.2732947
vt 0.2649504 0.3360769
vt 0.2488696 0.3351109
vt 0.2488696 0.3969272
vt 0.2649504 0.412858
vt 0.4838597 0.4233592
vt 0.2355121 0.466255
vt 0.4838597 0.466255
vt 0.2355121 0.4233592
vt 0.2355121 0.466255
vt 0.4838597 0.4233592
vt 0.2355121 0.4233592
vt 0.4838597 0.466255
vt 0.4838597 0.4233592
vt 0.2355121 0.466255
vt 0.4838597 0.466255
vt 0.2355121 0.4233592
vt 0.2355121 0.466255
vt 0.4838597 0.4233592
vt 0.2355121 0.4233592
vt 0.4838597 0.466255
vn 0.9999924 -0.003921568 0
vn 0.9999924 -0.003921568 0
vn 0.9999924 -0.003921568 0
vn 0.9999924 -0.003921568 0
vn -0.9999923 -0.003921568 -0.0003442513
vn -0.9999923 -0.003921568 -0.0003442513
vn -0.9999923 -0.003921568 -0.0003442513
vn -0.9999923 -0.003921568 -0.0003442513
vn 0.003921568 0.9999923 -0.000345267
vn 0.003921568 0.9999923 -0.000345267
vn 0.003921568 0.9999923 -0.000345267
vn 0.003921568 0.9999923 -0.000345267
vn 0.003921568 0.9999923 -0.000345267
vn 0.003921568 0.9999923 -0.000345267
vn 0.003921568 0.9999923 -0.000345267
vn 0.003921568 0.9999923 -0.000345267
vn 0.9999924 -0.003921568 0
vn 0.9999924 -0.003921568 0
vn 0.9999924 -0.003921568 0
vn 0.9999924 -0.003921568 0
vn -0.9999923 -0.003921568 -0.0003442513
vn -0.9999923 -0.003921568 -0.0003442513
vn -0.9999923 -0.003921568 -0.0003442513
vn -0.9999923 -0.003921568 -0.0003442513
vn 0.003921568 0.9999923 -0.000345267
vn 0.003921568 0.9999923 -0.000345267
vn 0.003921568 0.9999923 -0.000345267
vn 0.003921568 0.9999923 -0.000345267
vn 0.003921568 0.9999923 -0.000345267
vn 0.003921568 0.9999923 -0.000345267
vn 0.003921568 0.9999923 -0.000345267
vn 0.003921568 0.9999923 -0.000345267
vn 0.01176465 -0.01176465 0.9998616
vn 0.01176465 -0.01176465 0.9998616
vn 0.01176465 -0.01176465 0.9998616
vn 0.01176465 -0.01176465 0.9998616
vn 0.01176465 -0.01176465 0.9998616
vn 0.01176465 -0.01176465 0.9998616
vn 0.01176465 -0.01176465 -0.9998616
vn 0.01176465 -0.01176465 -0.9998616
vn 0.01176465 -0.01176465 -0.9998616
vn 0.01176465 -0.01176465 -0.9998616
vn 0.01176465 -0.01176465 -0.9998616
vn 0.01176465 -0.01176465 -0.9998616
vn 0.003921568 0.9999923 -0.000345267
vn 0.003921568 0.9999923 -0.000345267
vn 0.003921568 0.9999923 -0.000345267
vn 0.003921568 0.9999923 -0.000345267
vn 0.003921568 0.9999923 -0.000345267
vn 0.003921568 0.9999923 -0.000345267
vn 0.003921568 0.9999923 -0.000345267
vn 0.003921568 0.9999923 -0.000345267
vn 0.003921568 0.9999923 -0.000345267
vn 0.003921568 0.9999923 -0.000345267
vn 0.003921568 0.9999923 -0.000345267
vn 0.003921568 0.9999923 -0.000345267
vn 0.003921568 0.9999923 -0.000345267
vn 0.003921568 0.9999923 -0.000345267
vn 0.003921568 0.9999923 -0.000345267
vn 0.01176465 -0.01176465 0.9998616
vn 0.01176465 -0.01176465 0.9998616
vn 0.01176465 -0.01176465 0.9998616
vn 0.01176465 -0.01176465 0.9998616
vn 0.01176465 -0.01176465 0.9998616
vn 0.01176465 -0.01176465 0.9998616
vn 0.01176465 -0.01176465 0.9998616
vn 0.01176465 -0.01176465 0.9998616
vn 0.01176465 -0.01176465 -0.9998616
vn 0.01176465 -0.01176465 -0.9998616
vn 0.01176465 -0.01176465 -0.9998616
vn 0.01176465 -0.01176465 -0.9998616
vn 0.01176465 -0.01176465 -0.9998616
vn 0.01176465 -0.01176465 -0.9998616
vn 0.01176465 -0.01176465 -0.9998616
vn 0.01176465 -0.01176465 -0.9998616
g DSJ_GTA_daoJu_huaTan_10_0
f 3/3/3 2/2/2 1/1/1
f 4/4/4 1/1/1 2/2/2
f 7/7/7 6/6/6 5/5/5
f 8/8/8 5/5/5 6/6/6
f 11/11/11 10/10/10 9/9/9
f 12/12/12 9/9/9 10/10/10
f 15/15/15 14/14/14 13/13/13
f 16/16/16 13/13/13 14/14/14
f 19/19/19 18/18/18 17/17/17
f 20/20/20 17/17/17 18/18/18
f 23/23/23 22/22/22 21/21/21
f 24/24/24 21/21/21 22/22/22
f 27/27/27 26/26/26 25/25/25
f 28/28/28 25/25/25 26/26/26
f 31/31/31 30/30/30 29/29/29
f 32/32/32 29/29/29 30/30/30
f 35/35/35 34/34/34 33/33/33
f 36/36/36 33/33/33 34/34/34
f 34/34/34 37/37/37 36/36/36
f 38/38/38 36/36/36 37/37/37
f 41/41/41 40/40/40 39/39/39
f 42/42/42 39/39/39 40/40/40
f 40/40/40 43/43/43 42/42/42
f 44/44/44 42/42/42 43/43/43
f 47/47/47 46/46/46 45/45/45
f 49/49/49 45/45/45 48/48/48
f 49/49/49 50/50/50 45/45/45
f 51/51/51 45/45/45 50/50/50
f 54/54/54 53/53/53 52/52/52
f 57/57/57 56/56/56 55/55/55
f 57/57/57 58/58/58 56/56/56
f 59/59/59 56/56/56 58/58/58
f 62/62/62 61/61/61 60/60/60
f 63/63/63 60/60/60 61/61/61
f 66/66/66 65/65/65 64/64/64
f 67/67/67 64/64/64 65/65/65
f 70/70/70 69/69/69 68/68/68
f 71/71/71 68/68/68 69/69/69
f 74/74/74 73/73/73 72/72/72
f 75/75/75 72/72/72 73/73/73
