g DSJ_GTA_gaoLou_19
v -31.8861 -31.15449 -25.05772
v -8.230637 -19.08289 -25.05772
v -31.8861 -19.08289 -25.05772
v -8.230637 -31.15449 -25.05772
v 62.36994 -19.08289 -25.05772
v 62.36994 -31.15449 20.54611
v 62.36994 -19.08289 20.54611
v 62.36994 -31.15449 -25.05772
v -8.230637 -31.15449 20.54611
v -31.8861 -19.08289 20.54611
v -8.230637 -19.08289 20.54611
v -31.8861 -31.15449 20.54611
v -57.37059 -19.08289 -25.05772
v -31.8861 -31.15449 -25.05772
v -31.8861 -19.08289 -25.05772
v -57.37059 -31.15449 -25.05772
v -57.37059 -19.08289 -15.30289
v -57.37059 -31.15449 -5.304188
v -57.37059 -31.15449 -15.30289
v -57.37059 -19.08289 -5.304188
v 15.30289 -31.15449 -25.05772
v 38.83642 -19.08289 -25.05772
v 15.30289 -19.08289 -25.05772
v 38.83642 -31.15449 -25.05772
v 38.83642 -31.15449 20.54611
v 15.30289 -19.08289 20.54611
v 38.83642 -19.08289 20.54611
v 15.30289 -31.15449 20.54611
v 15.30289 -31.15449 -25.05772
v -8.230637 -19.08289 -25.05772
v -8.230637 -31.15449 -25.05772
v 15.30289 -19.08289 -25.05772
v 15.30289 -31.15449 20.54611
v -8.230637 -19.08289 20.54611
v 15.30289 -19.08289 20.54611
v -8.230637 -31.15449 20.54611
v 62.36994 -19.08289 -25.05772
v 38.83642 -31.15449 -25.05772
v 62.36994 -31.15449 -25.05772
v 38.83642 -19.08289 -25.05772
v 62.36994 -31.15449 20.54611
v 38.83642 -19.08289 20.54611
v 62.36994 -19.08289 20.54611
v 38.83642 -31.15449 20.54611
v -8.230637 -7.133221 20.54611
v -31.8861 5.060318 20.54611
v -8.230637 5.060318 20.54611
v -31.8861 -7.133221 20.54611
v -57.37059 5.060318 -15.30289
v -57.37059 -7.133221 -5.304188
v -57.37059 -7.133221 -15.30289
v -57.37059 5.060318 -5.304188
v -57.37059 5.060318 -25.05772
v -31.8861 -7.133221 -25.05772
v -31.8861 5.060318 -25.05772
v -57.37059 -7.133221 -25.05772
v -8.230637 -7.133221 -25.05772
v -31.8861 5.060318 -25.05772
v -31.8861 -7.133221 -25.05772
v -8.230637 5.060318 -25.05772
v 15.30289 -7.133221 -25.05772
v -8.230637 5.060318 -25.05772
v -8.230637 -7.133221 -25.05772
v 15.30289 5.060318 -25.05772
v 38.83642 -7.133221 -25.05772
v 15.30289 5.060318 -25.05772
v 15.30289 -7.133221 -25.05772
v 38.83642 5.060318 -25.05772
v 62.36994 5.060318 -25.05772
v 38.83642 -7.133221 -25.05772
v 62.36994 -7.133221 -25.05772
v 38.83642 5.060318 -25.05772
v 62.36994 5.060318 -25.05772
v 62.36994 -7.133221 20.54611
v 62.36994 5.060318 20.54611
v 62.36994 -7.133221 -25.05772
v 38.83642 -7.133221 20.54611
v 62.36994 5.060318 20.54611
v 62.36994 -7.133221 20.54611
v 38.83642 5.060318 20.54611
v 15.30289 -7.133221 20.54611
v 38.83642 5.060318 20.54611
v 38.83642 -7.133221 20.54611
v 15.30289 5.060318 20.54611
v -8.230637 -7.133221 20.54611
v 15.30289 5.060318 20.54611
v 15.30289 -7.133221 20.54611
v -8.230637 5.060318 20.54611
v -8.230637 5.060318 20.54611
v -31.8861 16.88805 20.54611
v -8.230637 16.88805 20.54611
v -31.8861 5.060318 20.54611
v -57.37059 16.88805 -15.30289
v -57.37059 5.060318 -5.304188
v -57.37059 5.060318 -15.30289
v -57.37059 16.88805 -5.304188
v -57.37059 16.88805 -25.05772
v -31.8861 5.060318 -25.05772
v -31.8861 16.88805 -25.05772
v -57.37059 5.060318 -25.05772
v -8.230637 5.060318 -25.05772
v -31.8861 16.88805 -25.05772
v -31.8861 5.060318 -25.05772
v -8.230637 16.88805 -25.05772
v 15.30289 5.060318 -25.05772
v -8.230637 16.88805 -25.05772
v -8.230637 5.060318 -25.05772
v 15.30289 16.88805 -25.05772
v 38.83642 5.060318 -25.05772
v 15.30289 16.88805 -25.05772
v 15.30289 5.060318 -25.05772
v 38.83642 16.88805 -25.05772
v 62.36994 16.88805 -25.05772
v 38.83642 5.060318 -25.05772
v 62.36994 5.060318 -25.05772
v 38.83642 16.88805 -25.05772
v 62.36994 16.88805 -25.05772
v 62.36994 5.060318 -25.05772
v 62.36994 5.060318 20.54611
v 62.36994 16.88805 20.54611
v 62.36994 16.88805 20.54611
v 62.36994 16.88805 -15.30289
v 62.36994 16.88805 -25.05772
v 62.36994 16.88805 -5.304188
v 62.36994 16.88805 7.742897
v 38.83642 5.060318 20.54611
v 62.36994 16.88805 20.54611
v 62.36994 5.060318 20.54611
v 38.83642 16.88805 20.54611
v 15.30289 5.060318 20.54611
v 38.83642 16.88805 20.54611
v 38.83642 5.060318 20.54611
v 15.30289 16.88805 20.54611
v -8.230637 5.060318 20.54611
v 15.30289 16.88805 20.54611
v 15.30289 5.060318 20.54611
v -8.230637 16.88805 20.54611
v -8.230637 -19.08289 20.54611
v -31.8861 -7.133221 20.54611
v -8.230637 -7.133221 20.54611
v -31.8861 -19.08289 20.54611
v -57.37059 -7.133221 -15.30289
v -57.37059 -19.08289 -5.304188
v -57.37059 -19.08289 -15.30289
v -57.37059 -7.133221 -5.304188
v -57.37059 -7.133221 -25.05772
v -31.8861 -19.08289 -25.05772
v -31.8861 -7.133221 -25.05772
v -57.37059 -19.08289 -25.05772
v -8.230637 -19.08289 -25.05772
v -31.8861 -7.133221 -25.05772
v -31.8861 -19.08289 -25.05772
v -8.230637 -7.133221 -25.05772
v 15.30289 -19.08289 -25.05772
v -8.230637 -7.133221 -25.05772
v -8.230637 -19.08289 -25.05772
v 15.30289 -7.133221 -25.05772
v 38.83642 -19.08289 -25.05772
v 15.30289 -7.133221 -25.05772
v 15.30289 -19.08289 -25.05772
v 38.83642 -7.133221 -25.05772
v 62.36994 -7.133221 -25.05772
v 38.83642 -19.08289 -25.05772
v 62.36994 -19.08289 -25.05772
v 38.83642 -7.133221 -25.05772
v 62.36994 -7.133221 -25.05772
v 62.36994 -19.08289 20.54611
v 62.36994 -7.133221 20.54611
v 62.36994 -19.08289 -25.05772
v 38.83642 -19.08289 20.54611
v 62.36994 -7.133221 20.54611
v 62.36994 -19.08289 20.54611
v 38.83642 -7.133221 20.54611
v 15.30289 -19.08289 20.54611
v 38.83642 -7.133221 20.54611
v 38.83642 -19.08289 20.54611
v 15.30289 -7.133221 20.54611
v -8.230637 -19.08289 20.54611
v 15.30289 -7.133221 20.54611
v 15.30289 -19.08289 20.54611
v -8.230637 -7.133221 20.54611
v -57.37059 16.88805 -25.05772
v -57.37059 5.060318 -15.30289
v -57.37059 5.060318 -25.05772
v -57.37059 16.88805 -15.30289
v -57.37059 5.060318 -25.05772
v -57.37059 -7.133221 -15.30289
v -57.37059 -7.133221 -25.05772
v -57.37059 5.060318 -15.30289
v -57.37059 -7.133221 -25.05772
v -57.37059 -19.08289 -15.30289
v -57.37059 -19.08289 -25.05772
v -57.37059 -7.133221 -15.30289
v -57.37059 -19.08289 -25.05772
v -57.37059 -31.15449 -15.30289
v -57.37059 -31.15449 -25.05772
v -57.37059 -19.08289 -15.30289
v -57.37059 -31.15449 7.742897
v -56.3951 -19.08289 12.74225
v -56.3951 -31.15449 12.74225
v -57.37059 -19.08289 7.742897
v -56.3951 -31.15449 12.74225
v -53.71253 -19.08289 16.76611
v -53.71253 -31.15449 16.76611
v -56.3951 -19.08289 12.74225
v -53.71253 -31.15449 16.76611
v -49.44479 -19.08289 19.57063
v -49.44479 -31.15449 19.57063
v -53.71253 -19.08289 16.76611
v -49.44479 -31.15449 19.57063
v -44.68931 -19.08289 20.54611
v -44.68931 -31.15449 20.54611
v -49.44479 -19.08289 19.57063
v -31.8861 -19.08289 20.54611
v -44.68931 -31.15449 20.54611
v -44.68931 -19.08289 20.54611
v -31.8861 -31.15449 20.54611
v -56.3951 16.88805 12.74225
v -57.37059 16.88805 7.742897
v -31.8861 16.88805 7.742897
v -31.8861 16.88805 20.54611
v -53.71253 16.88805 16.76611
v -49.44479 16.88805 19.57063
v -44.68931 16.88805 20.54611
v -31.8861 16.88805 -5.304188
v -57.37059 16.88805 -5.304188
v -57.37059 -31.15449 7.742897
v -57.37059 -19.08289 -5.304188
v -57.37059 -19.08289 7.742897
v -57.37059 -31.15449 -5.304188
v -31.8861 5.060318 20.54611
v -44.68931 -7.133221 20.54611
v -44.68931 5.060318 20.54611
v -31.8861 -7.133221 20.54611
v -49.44479 -7.133221 19.57063
v -44.68931 5.060318 20.54611
v -44.68931 -7.133221 20.54611
v -49.44479 5.060318 19.57063
v -53.71253 -7.133221 16.76611
v -49.44479 5.060318 19.57063
v -49.44479 -7.133221 19.57063
v -53.71253 5.060318 16.76611
v -56.3951 -7.133221 12.74225
v -53.71253 5.060318 16.76611
v -53.71253 -7.133221 16.76611
v -56.3951 5.060318 12.74225
v -57.37059 -7.133221 7.742897
v -56.3951 5.060318 12.74225
v -56.3951 -7.133221 12.74225
v -57.37059 5.060318 7.742897
v -57.37059 -7.133221 -5.304188
v -57.37059 5.060318 7.742897
v -57.37059 -7.133221 7.742897
v -57.37059 5.060318 -5.304188
v -31.8861 16.88805 20.54611
v -44.68931 5.060318 20.54611
v -44.68931 16.88805 20.54611
v -31.8861 5.060318 20.54611
v -49.44479 5.060318 19.57063
v -44.68931 16.88805 20.54611
v -44.68931 5.060318 20.54611
v -49.44479 16.88805 19.57063
v -53.71253 5.060318 16.76611
v -49.44479 16.88805 19.57063
v -49.44479 5.060318 19.57063
v -53.71253 16.88805 16.76611
v -56.3951 5.060318 12.74225
v -53.71253 16.88805 16.76611
v -53.71253 5.060318 16.76611
v -56.3951 16.88805 12.74225
v -57.37059 5.060318 7.742897
v -56.3951 16.88805 12.74225
v -56.3951 5.060318 12.74225
v -57.37059 16.88805 7.742897
v -57.37059 5.060318 -5.304188
v -57.37059 16.88805 7.742897
v -57.37059 5.060318 7.742897
v -57.37059 16.88805 -5.304188
v -31.8861 -7.133221 20.54611
v -44.68931 -19.08289 20.54611
v -44.68931 -7.133221 20.54611
v -31.8861 -19.08289 20.54611
v -49.44479 -19.08289 19.57063
v -44.68931 -7.133221 20.54611
v -44.68931 -19.08289 20.54611
v -49.44479 -7.133221 19.57063
v -53.71253 -19.08289 16.76611
v -49.44479 -7.133221 19.57063
v -49.44479 -19.08289 19.57063
v -53.71253 -7.133221 16.76611
v -56.3951 -19.08289 12.74225
v -53.71253 -7.133221 16.76611
v -53.71253 -19.08289 16.76611
v -56.3951 -7.133221 12.74225
v -57.37059 -19.08289 7.742897
v -56.3951 -7.133221 12.74225
v -56.3951 -19.08289 12.74225
v -57.37059 -7.133221 7.742897
v -57.37059 -19.08289 -5.304188
v -57.37059 -7.133221 7.742897
v -57.37059 -19.08289 7.742897
v -57.37059 -7.133221 -5.304188
v 6.767414 -17.7416 21.03385
v 8.71838 -18.22934 21.03385
v 6.767414 -18.22934 21.03385
v 7.011284 -16.52224 21.03385
v 8.596443 -17.86353 21.03385
v 8.71838 -17.86353 21.03385
v 7.864834 -16.88805 21.03385
v 7.864834 -16.88805 21.03385
v 7.864834 -12.74225 21.03385
v 7.011284 -12.62031 21.03385
v 7.011284 -11.76677 21.03385
v 8.596443 -11.76677 21.03385
v 8.71838 -11.76677 21.03385
v 8.71838 -11.76677 21.03385
v 6.157738 -17.86353 21.03385
v 6.157738 -18.22934 21.03385
v 7.011284 -11.76677 21.03385
v 7.011284 -12.62031 21.03385
v 4.572578 -16.64418 21.03385
v 4.450642 -18.22934 21.03385
v 4.450642 -18.22934 21.03385
v 4.206772 -18.22934 21.03385
v 4.572578 -16.64418 21.03385
v 1.768063 -12.62031 21.03385
v 2.377739 -11.76677 21.03385
v 0.4267731 -11.76677 21.03385
v 0.4267731 -11.76677 21.03385
v 2.377739 -11.76677 21.03385
v 1.402256 -12.98612 21.03385
v 0.4267731 -11.76677 21.03385
v 1.768063 -12.62031 21.03385
v 1.768063 -16.52224 21.03385
v 1.402256 -16.88805 21.03385
v 4.572578 -16.64418 21.03385
v 0.5487099 -17.86353 21.03385
v 0.4267731 -18.22934 21.03385
v 0.4267731 -17.86353 21.03385
v 2.743546 -18.22934 21.03385
v 1.402256 -16.88805 21.03385
v 2.621613 -17.86353 21.03385
v 2.743546 -17.86353 21.03385
v 1.768063 -16.52224 21.03385
v 4.206772 -15.91257 20.30224
v 4.206772 -15.79063 20.30224
v 4.206772 -15.91257 20.30224
v 7.864834 -12.74225 21.03385
v 8.596443 -11.76677 20.30224
v 7.864834 -12.74225 20.30224
v 8.596443 -11.76677 21.03385
v 8.596443 -11.76677 21.03385
v 8.71838 -11.76677 20.30224
v 8.596443 -11.76677 20.30224
v 8.71838 -11.76677 21.03385
v 8.71838 -11.76677 21.03385
v 8.71838 -11.76677 20.30224
v 8.71838 -11.76677 20.30224
v 8.71838 -11.76677 21.03385
v 8.71838 -11.76677 21.03385
v 7.011284 -11.76677 20.30224
v 8.71838 -11.76677 20.30224
v 7.011284 -11.76677 21.03385
v 1.768063 -12.62031 21.03385
v 4.206772 -18.22934 20.30224
v 1.768063 -12.62031 20.30224
v 4.206772 -18.22934 21.03385
v 1.402256 -16.88805 20.30224
v 1.402256 -12.98612 21.03385
v 1.402256 -16.88805 21.03385
v 1.402256 -12.98612 20.30224
v 1.402256 -16.88805 21.03385
v 0.5487099 -17.86353 20.30224
v 1.402256 -16.88805 20.30224
v 0.5487099 -17.86353 21.03385
v 0.5487099 -17.86353 21.03385
v 0.4267731 -17.86353 20.30224
v 0.5487099 -17.86353 20.30224
v 0.4267731 -17.86353 21.03385
v 0.4267731 -17.86353 21.03385
v 0.4267731 -18.22934 20.30224
v 0.4267731 -17.86353 20.30224
v 0.4267731 -18.22934 21.03385
v 0.4267731 -18.22934 21.03385
v 2.743546 -18.22934 20.30224
v 0.4267731 -18.22934 20.30224
v 2.743546 -18.22934 21.03385
v 2.743546 -18.22934 21.03385
v 2.743546 -17.86353 20.30224
v 2.743546 -18.22934 20.30224
v 2.743546 -17.86353 21.03385
v 2.743546 -17.86353 21.03385
v 2.621613 -17.86353 20.30224
v 2.743546 -17.86353 20.30224
v 2.621613 -17.86353 21.03385
v 2.621613 -17.86353 21.03385
v 1.768063 -16.52224 20.30224
v 2.621613 -17.86353 20.30224
v 1.768063 -16.52224 21.03385
v 1.768063 -12.62031 20.30224
v 1.768063 -16.52224 21.03385
v 1.768063 -12.62031 21.03385
v 1.768063 -16.52224 20.30224
v 2.377739 -11.76677 21.03385
v 0.4267731 -11.76677 20.30224
v 2.377739 -11.76677 20.30224
v 0.4267731 -11.76677 21.03385
v 0.4267731 -11.76677 21.03385
v 0.4267731 -11.76677 20.30224
v 0.4267731 -11.76677 20.30224
v 0.4267731 -11.76677 21.03385
v 0.4267731 -11.76677 21.03385
v 1.402256 -12.98612 20.30224
v 0.4267731 -11.76677 20.30224
v 0.4267731 -11.76677 21.03385
v 1.402256 -12.98612 21.03385
v 1.402256 -12.98612 20.30224
v 7.011284 -12.62031 21.03385
v 7.011284 -16.52224 20.30224
v 7.011284 -12.62031 20.30224
v 7.011284 -16.52224 21.03385
v 7.011284 -16.52224 21.03385
v 6.767414 -17.7416 20.30224
v 7.011284 -16.52224 20.30224
v 6.767414 -17.7416 21.03385
v 6.767414 -18.22934 21.03385
v 8.71838 -18.22934 20.30224
v 6.767414 -18.22934 20.30224
v 8.71838 -18.22934 21.03385
v 8.71838 -18.22934 21.03385
v 8.71838 -17.86353 20.30224
v 8.71838 -18.22934 20.30224
v 8.71838 -17.86353 21.03385
v 8.71838 -17.86353 21.03385
v 8.596443 -17.86353 20.30224
v 8.71838 -17.86353 20.30224
v 8.596443 -17.86353 21.03385
v 8.596443 -17.86353 21.03385
v 7.864834 -16.88805 20.30224
v 8.596443 -17.86353 20.30224
v 7.864834 -16.88805 21.03385
v 7.864834 -16.88805 21.03385
v 7.864834 -16.88805 20.30224
v 7.864834 -16.88805 20.30224
v 7.864834 -16.88805 21.03385
v 7.864834 -12.74225 20.30224
v 7.864834 -16.88805 21.03385
v 7.864834 -12.74225 21.03385
v 7.864834 -16.88805 20.30224
v 7.011284 -12.62031 20.30224
v 4.450642 -18.22934 21.03385
v 7.011284 -12.62031 21.03385
v 4.450642 -18.22934 20.30224
v 7.011284 -11.76677 21.03385
v 4.572578 -16.64418 20.30224
v 7.011284 -11.76677 20.30224
v 7.011284 -11.76677 21.03385
v 4.572578 -16.64418 21.03385
v 4.572578 -16.64418 20.30224
v 2.377739 -11.76677 20.30224
v 4.572578 -16.64418 21.03385
v 2.377739 -11.76677 21.03385
v 4.206772 -15.79063 20.30224
v 4.572578 -16.64418 21.03385
v 4.206772 -15.91257 20.30224
v 4.572578 -16.64418 20.30224
v 4.206772 -15.79063 20.30224
v 4.206772 -18.22934 21.03385
v 4.450642 -18.22934 20.30224
v 4.206772 -18.22934 20.30224
v 4.450642 -18.22934 21.03385
v 6.157738 -17.86353 20.30224
v 6.767414 -17.7416 21.03385
v 6.157738 -17.86353 21.03385
v 6.767414 -17.7416 20.30224
v 6.157738 -17.86353 21.03385
v 6.157738 -18.22934 20.30224
v 6.157738 -17.86353 20.30224
v 6.157738 -18.22934 21.03385
v 6.157738 -18.22934 21.03385
v 6.767414 -18.22934 20.30224
v 6.157738 -18.22934 20.30224
v 6.767414 -18.22934 21.03385
v 8.96225 -17.86353 21.03385
v 11.15709 -18.22934 21.03385
v 8.96225 -18.22934 21.03385
v 11.15709 -17.86353 21.03385
v 10.42548 -17.61966 21.03385
v 12.37644 -11.64483 21.03385
v 11.03515 -15.91257 21.03385
v 11.15709 -15.6687 21.03385
v 12.13257 -12.98612 21.03385
v 13.35192 -15.91257 21.03385
v 13.22999 -15.6687 21.03385
v 12.49837 -11.64483 21.03385
v 14.08353 -17.61966 21.03385
v 15.91257 -17.86353 21.03385
v 15.91257 -18.22934 21.03385
v 13.35192 -17.86353 21.03385
v 13.35192 -18.22934 21.03385
v 8.96225 -17.86353 20.30224
v 12.37644 -11.64483 21.03385
v 8.96225 -17.86353 21.03385
v 12.37644 -11.64483 20.30224
v 12.49837 -11.64483 21.03385
v 12.37644 -11.64483 20.30224
v 12.49837 -11.64483 20.30224
v 12.37644 -11.64483 21.03385
v 11.15709 -15.6687 21.03385
v 12.13257 -12.98612 20.30224
v 11.15709 -15.6687 20.30224
v 12.13257 -12.98612 21.03385
v 13.35192 -15.91257 20.30224
v 11.03515 -15.91257 21.03385
v 13.35192 -15.91257 21.03385
v 11.03515 -15.91257 20.30224
v 10.42548 -17.61966 20.30224
v 11.03515 -15.91257 21.03385
v 11.03515 -15.91257 20.30224
v 10.42548 -17.61966 21.03385
v 11.15709 -17.86353 20.30224
v 10.42548 -17.61966 21.03385
v 10.42548 -17.61966 20.30224
v 11.15709 -17.86353 21.03385
v 11.15709 -18.22934 20.30224
v 11.15709 -17.86353 21.03385
v 11.15709 -17.86353 20.30224
v 11.15709 -18.22934 21.03385
v 8.96225 -18.22934 20.30224
v 11.15709 -18.22934 21.03385
v 11.15709 -18.22934 20.30224
v 8.96225 -18.22934 21.03385
v 8.96225 -17.86353 20.30224
v 8.96225 -18.22934 21.03385
v 8.96225 -18.22934 20.30224
v 8.96225 -17.86353 21.03385
v 13.22999 -15.6687 21.03385
v 11.15709 -15.6687 20.30224
v 13.22999 -15.6687 20.30224
v 11.15709 -15.6687 21.03385
v 12.13257 -12.98612 21.03385
v 13.22999 -15.6687 20.30224
v 12.13257 -12.98612 20.30224
v 13.22999 -15.6687 21.03385
v 12.49837 -11.64483 20.30224
v 15.91257 -17.86353 21.03385
v 12.49837 -11.64483 21.03385
v 15.91257 -17.86353 20.30224
v 15.91257 -18.22934 20.30224
v 15.91257 -17.86353 21.03385
v 15.91257 -17.86353 20.30224
v 15.91257 -18.22934 21.03385
v 13.35192 -18.22934 20.30224
v 15.91257 -18.22934 21.03385
v 15.91257 -18.22934 20.30224
v 13.35192 -18.22934 21.03385
v 13.35192 -17.86353 20.30224
v 13.35192 -18.22934 21.03385
v 13.35192 -18.22934 20.30224
v 13.35192 -17.86353 21.03385
v 14.08353 -17.61966 20.30224
v 13.35192 -17.86353 21.03385
v 13.35192 -17.86353 20.30224
v 14.08353 -17.61966 21.03385
v 13.35192 -15.91257 20.30224
v 14.08353 -17.61966 21.03385
v 14.08353 -17.61966 20.30224
v 13.35192 -15.91257 21.03385
v 19.20482 -11.76677 21.03385
v 18.59515 -11.76677 21.03385
v 19.20482 -11.76677 21.03385
v 18.59515 -11.8887 21.03385
v 17.13192 -12.74225 21.03385
v 16.27837 -11.76677 21.03385
v 16.15644 -11.76677 21.03385
v 16.15644 -11.76677 21.03385
v 18.1074 -13.22999 21.03385
v 17.13192 -16.88805 21.03385
v 18.1074 -16.88805 21.03385
v 18.59515 -17.7416 21.03385
v 18.59515 -18.22934 21.03385
v 19.8145 -17.7416 21.03385
v 19.8145 -18.22934 21.03385
v 21.15579 -18.22934 21.03385
v 21.64353 -16.27837 21.03385
v 21.64353 -16.27837 21.03385
v 16.27837 -17.86353 21.03385
v 16.15644 -18.22934 21.03385
v 16.15644 -17.86353 21.03385
v 19.20482 -11.76677 21.03385
v 19.20482 -11.76677 20.30224
v 19.20482 -11.76677 20.30224
v 19.20482 -11.76677 21.03385
v 19.20482 -11.76677 21.03385
v 18.59515 -11.76677 20.30224
v 19.20482 -11.76677 20.30224
v 18.59515 -11.76677 21.03385
v 19.20482 -11.76677 20.30224
v 18.59515 -11.8887 21.03385
v 19.20482 -11.76677 21.03385
v 18.59515 -11.8887 20.30224
v 19.8145 -18.22934 21.03385
v 21.15579 -18.22934 20.30224
v 19.8145 -18.22934 20.30224
v 21.15579 -18.22934 21.03385
v 21.15579 -18.22934 21.03385
v 21.64353 -16.27837 20.30224
v 21.15579 -18.22934 20.30224
v 21.64353 -16.27837 21.03385
v 21.64353 -16.27837 21.03385
v 21.64353 -16.27837 20.30224
v 21.64353 -16.27837 20.30224
v 21.64353 -16.27837 21.03385
v 21.64353 -16.27837 21.03385
v 19.8145 -17.7416 20.30224
v 21.64353 -16.27837 20.30224
v 19.8145 -17.7416 21.03385
v 17.13192 -16.88805 21.03385
v 16.27837 -17.86353 20.30224
v 17.13192 -16.88805 20.30224
v 16.27837 -17.86353 21.03385
v 16.27837 -17.86353 21.03385
v 16.15644 -17.86353 20.30224
v 16.27837 -17.86353 20.30224
v 16.15644 -17.86353 21.03385
v 16.15644 -17.86353 21.03385
v 16.15644 -18.22934 20.30224
v 16.15644 -17.86353 20.30224
v 16.15644 -18.22934 21.03385
v 16.15644 -18.22934 21.03385
v 18.59515 -18.22934 20.30224
v 16.15644 -18.22934 20.30224
v 18.59515 -18.22934 21.03385
v 18.59515 -17.7416 21.03385
v 18.1074 -16.88805 20.30224
v 18.59515 -17.7416 20.30224
v 18.1074 -16.88805 21.03385
v 18.1074 -13.22999 20.30224
v 18.1074 -16.88805 21.03385
v 18.1074 -13.22999 21.03385
v 18.1074 -16.88805 20.30224
v 18.59515 -18.22934 21.03385
v 19.8145 -18.22934 20.30224
v 18.59515 -18.22934 20.30224
v 19.8145 -18.22934 21.03385
v 18.59515 -17.7416 20.30224
v 19.8145 -17.7416 21.03385
v 18.59515 -17.7416 21.03385
v 19.8145 -17.7416 20.30224
v 18.59515 -11.76677 21.03385
v 16.15644 -11.76677 20.30224
v 18.59515 -11.76677 20.30224
v 16.15644 -11.76677 21.03385
v 16.15644 -11.76677 21.03385
v 16.15644 -11.76677 20.30224
v 16.15644 -11.76677 20.30224
v 16.15644 -11.76677 21.03385
v 16.15644 -11.76677 21.03385
v 16.27837 -11.76677 20.30224
v 16.15644 -11.76677 20.30224
v 16.27837 -11.76677 21.03385
v 16.27837 -11.76677 21.03385
v 17.13192 -12.74225 20.30224
v 16.27837 -11.76677 20.30224
v 17.13192 -12.74225 21.03385
v 17.13192 -16.88805 20.30224
v 17.13192 -12.74225 21.03385
v 17.13192 -16.88805 21.03385
v 17.13192 -12.74225 20.30224
v 18.1074 -13.22999 21.03385
v 18.59515 -11.8887 20.30224
v 18.1074 -13.22999 20.30224
v 18.59515 -11.8887 21.03385
v 25.05772 -11.76677 21.03385
v 24.44804 -11.76677 21.03385
v 25.05772 -11.76677 21.03385
v 24.44804 -11.8887 21.03385
v 23.10675 -12.74225 21.03385
v 22.2532 -11.76677 21.03385
v 22.2532 -11.76677 21.03385
v 22.2532 -11.76677 21.03385
v 23.9603 -13.22999 21.03385
v 23.10675 -16.88805 21.03385
v 23.9603 -16.88805 21.03385
v 24.44804 -17.7416 21.03385
v 24.44804 -18.22934 21.03385
v 25.91127 -18.22934 21.03385
v 25.30159 -17.7416 21.03385
v 25.91127 -17.7416 21.03385
v 27.25256 -18.22934 21.03385
v 27.49643 -16.27837 21.03385
v 27.61836 -16.27837 21.03385
v 22.2532 -17.86353 21.03385
v 22.2532 -18.22934 21.03385
v 22.2532 -17.86353 21.03385
v 25.05772 -11.76677 21.03385
v 25.05772 -11.76677 20.30224
v 25.05772 -11.76677 20.30224
v 25.05772 -11.76677 21.03385
v 25.05772 -11.76677 21.03385
v 24.44804 -11.76677 20.30224
v 25.05772 -11.76677 20.30224
v 24.44804 -11.76677 21.03385
v 25.05772 -11.76677 20.30224
v 24.44804 -11.8887 21.03385
v 25.05772 -11.76677 21.03385
v 24.44804 -11.8887 20.30224
v 25.91127 -18.22934 21.03385
v 27.25256 -18.22934 20.30224
v 25.91127 -18.22934 20.30224
v 27.25256 -18.22934 21.03385
v 27.25256 -18.22934 21.03385
v 27.61836 -16.27837 20.30224
v 27.25256 -18.22934 20.30224
v 27.61836 -16.27837 21.03385
v 27.61836 -16.27837 21.03385
v 27.49643 -16.27837 20.30224
v 27.61836 -16.27837 20.30224
v 27.49643 -16.27837 21.03385
v 27.49643 -16.27837 21.03385
v 25.91127 -17.7416 20.30224
v 27.49643 -16.27837 20.30224
v 25.91127 -17.7416 21.03385
v 23.10675 -16.88805 21.03385
v 22.2532 -17.86353 20.30224
v 23.10675 -16.88805 20.30224
v 22.2532 -17.86353 21.03385
v 22.2532 -17.86353 21.03385
v 22.2532 -17.86353 20.30224
v 22.2532 -17.86353 20.30224
v 22.2532 -17.86353 21.03385
v 22.2532 -17.86353 21.03385
v 22.2532 -18.22934 20.30224
v 22.2532 -17.86353 20.30224
v 22.2532 -18.22934 21.03385
v 22.2532 -18.22934 21.03385
v 24.44804 -18.22934 20.30224
v 22.2532 -18.22934 20.30224
v 24.44804 -18.22934 21.03385
v 24.44804 -17.7416 21.03385
v 23.9603 -16.88805 20.30224
v 24.44804 -17.7416 20.30224
v 23.9603 -16.88805 21.03385
v 23.9603 -13.22999 20.30224
v 23.9603 -16.88805 21.03385
v 23.9603 -13.22999 21.03385
v 23.9603 -16.88805 20.30224
v 24.44804 -18.22934 21.03385
v 25.91127 -18.22934 20.30224
v 24.44804 -18.22934 20.30224
v 25.91127 -18.22934 21.03385
v 25.91127 -17.7416 21.03385
v 25.30159 -17.7416 20.30224
v 25.91127 -17.7416 20.30224
v 25.30159 -17.7416 21.03385
v 25.30159 -17.7416 21.03385
v 24.44804 -17.7416 20.30224
v 25.30159 -17.7416 20.30224
v 24.44804 -17.7416 21.03385
v 24.44804 -11.76677 21.03385
v 22.2532 -11.76677 20.30224
v 24.44804 -11.76677 20.30224
v 22.2532 -11.76677 21.03385
v 22.2532 -11.76677 21.03385
v 22.2532 -11.76677 20.30224
v 22.2532 -11.76677 20.30224
v 22.2532 -11.76677 21.03385
v 22.2532 -11.76677 21.03385
v 22.2532 -11.76677 20.30224
v 22.2532 -11.76677 20.30224
v 22.2532 -11.76677 21.03385
v 22.2532 -11.76677 21.03385
v 23.10675 -12.74225 20.30224
v 22.2532 -11.76677 20.30224
v 23.10675 -12.74225 21.03385
v 23.10675 -16.88805 20.30224
v 23.10675 -12.74225 21.03385
v 23.10675 -16.88805 21.03385
v 23.10675 -12.74225 20.30224
v 23.9603 -13.22999 21.03385
v 24.44804 -11.8887 20.30224
v 23.9603 -13.22999 20.30224
v 24.44804 -11.8887 21.03385
v -61.88219 -18.83902 1.036449
v -44.20157 -18.83902 6.76741
v -56.63898 -18.83902 -7.011284
v -62.36994 -18.83902 10.66934
v -57.85833 -18.83902 19.20482
v -49.68866 -18.83902 24.3261
v -39.93383 -18.83902 24.81384
v -31.52029 -18.83902 20.42417
v -56.63898 30.91061 -7.011284
v -44.20157 30.91061 6.76741
v -61.88219 30.91061 1.036449
v -62.36994 30.91061 10.66934
v -57.85833 30.91061 19.20482
v -49.68866 30.91061 24.3261
v -39.93383 30.91061 24.81384
v -31.52029 30.91061 20.42417
v -44.20157 -11.8887 6.76741
v -56.63898 -18.83902 -7.011284
v -44.20157 -18.83902 6.76741
v -56.63898 -11.8887 -7.011284
v -44.20157 30.91061 6.76741
v -56.63898 30.91061 -7.011284
v -31.52029 -11.8887 20.42417
v -44.20157 -18.83902 6.76741
v -31.52029 -18.83902 20.42417
v -44.20157 -11.8887 6.76741
v -31.52029 30.91061 20.42417
v -44.20157 30.91061 6.76741
v -62.36994 -11.8887 10.66934
v -57.85833 30.91061 19.20482
v -57.85833 -11.8887 19.20482
v -62.36994 30.91061 10.66934
v -61.88219 -11.8887 1.036449
v -62.36994 30.91061 10.66934
v -62.36994 -11.8887 10.66934
v -61.88219 30.91061 1.036449
v -56.63898 -11.8887 -7.011284
v -61.88219 30.91061 1.036449
v -61.88219 -11.8887 1.036449
v -56.63898 30.91061 -7.011284
v -39.93383 -11.8887 24.81384
v -31.52029 30.91061 20.42417
v -31.52029 -11.8887 20.42417
v -39.93383 30.91061 24.81384
v -49.68866 -11.8887 24.3261
v -39.93383 30.91061 24.81384
v -39.93383 -11.8887 24.81384
v -49.68866 30.91061 24.3261
v -57.85833 -11.8887 19.20482
v -49.68866 30.91061 24.3261
v -49.68866 -11.8887 24.3261
v -57.85833 30.91061 19.20482
v 15.30289 17.98547 -25.05772
v -31.8861 17.98547 -5.304188
v -31.8861 17.98547 -25.05772
v 15.30289 17.98547 -5.304188
v -57.37059 17.98547 -5.304188
v -31.8861 17.98547 -25.05772
v -31.8861 17.98547 -5.304188
v -57.37059 17.98547 -25.05772
v 62.36994 17.98547 -25.05772
v 15.30289 17.98547 -5.304188
v 15.30289 17.98547 -25.05772
v 62.36994 17.98547 -5.304188
v -31.8861 17.98547 -5.304188
v 15.30289 17.98547 20.54611
v -31.8861 17.98547 20.54611
v 15.30289 17.98547 -5.304188
v 15.30289 17.98547 -5.304188
v 62.36994 17.98547 20.54611
v 15.30289 17.98547 20.54611
v 62.36994 17.98547 -5.304188
v -57.37059 16.88805 -5.304188
v -31.8861 17.98547 -5.304188
v -31.8861 16.88805 -5.304188
v -57.37059 17.98547 -5.304188
v 62.36994 17.98547 -5.304188
v 62.36994 16.88805 -25.05772
v 62.36994 16.88805 -5.304188
v 62.36994 17.98547 -25.05772
v 62.36994 17.98547 20.54611
v 62.36994 16.88805 20.54611
v -31.8861 17.98547 20.54611
v 15.30289 16.88805 20.54611
v -31.8861 16.88805 20.54611
v 15.30289 17.98547 20.54611
v 62.36994 16.88805 20.54611
v 62.36994 17.98547 20.54611
v -31.8861 17.98547 20.54611
v -31.8861 16.88805 -5.304188
v -31.8861 17.98547 -5.304188
v -31.8861 16.88805 20.54611
v 62.36994 17.98547 -25.05772
v 15.30289 16.88805 -25.05772
v 62.36994 16.88805 -25.05772
v 15.30289 17.98547 -25.05772
v -31.8861 16.88805 -25.05772
v -31.8861 17.98547 -25.05772
v -57.37059 17.98547 -25.05772
v -57.37059 16.88805 -25.05772
v -57.37059 17.98547 -5.304188
v -57.37059 16.88805 -25.05772
v -57.37059 17.98547 -25.05772
v -57.37059 16.88805 -5.304188
v -56.63898 -18.83902 -7.011284
v -61.88219 -11.8887 1.036449
v -61.88219 -18.83902 1.036449
v -56.63898 -11.8887 -7.011284
v -62.36994 -11.8887 10.66934
v -62.36994 -18.83902 10.66934
v -57.85833 -11.8887 19.20482
v -57.85833 -18.83902 19.20482
v -49.68866 -11.8887 24.3261
v -49.68866 -18.83902 24.3261
v -39.93383 -11.8887 24.81384
v -39.93383 -18.83902 24.81384
v -31.52029 -11.8887 20.42417
v -31.52029 -18.83902 20.42417
vt 0.7517769 0.9514676
vt 0.9945382 0.8261715
vt 0.7517769 0.8261715
vt 0.9945382 0.9514676
vt 0.9906227 0.8888196
vt 0.7517769 0.9514676
vt 0.7517769 0.8888196
vt 0.9906227 0.9514676
vt 0.9906227 0.8261715
vt 0.7478614 0.9514676
vt 0.9906227 0.9514676
vt 0.7478614 0.8261715
vt 0.9945382 0.8261715
vt 0.7517769 0.9514676
vt 0.7517769 0.8261715
vt 0.9945382 0.9514676
vt 0.9123126 0.837918
vt 0.8261715 0.9436367
vt 0.9123126 0.9436367
vt 0.8261715 0.837918
vt 0.7517769 0.9514676
vt 0.9945382 0.8261715
vt 0.7517769 0.8261715
vt 0.9945382 0.9514676
vt 0.2505923 0.3602265
vt 0.4933536 0.4855226
vt 0.2505923 0.4855226
vt 0.4933536 0.3602265
vt 0.7517769 0.9514676
vt 0.9945382 0.8261715
vt 0.9945382 0.9514676
vt 0.7517769 0.8261715
vt 0.4933536 0.3602265
vt 0.2505923 0.4855226
vt 0.4933536 0.4855226
vt 0.2505923 0.3602265
vt 0.7517769 0.8261715
vt 0.9945382 0.9514676
vt 0.7517769 0.9514676
vt 0.9945382 0.8261715
vt 0.7478614 0.8261715
vt 0.9906227 0.9514676
vt 0.7478614 0.9514676
vt 0.9906227 0.8261715
vt 0.9906227 0.8261715
vt 0.7478614 0.9514676
vt 0.9906227 0.9514676
vt 0.7478614 0.8261715
vt 0.9123126 0.837918
vt 0.8261715 0.9436367
vt 0.9123126 0.9436367
vt 0.8261715 0.837918
vt 0.9945382 0.8261715
vt 0.7517769 0.9514676
vt 0.7517769 0.8261715
vt 0.9945382 0.9514676
vt 0.9945382 0.9514676
vt 0.7517769 0.8261715
vt 0.7517769 0.9514676
vt 0.9945382 0.8261715
vt 0.7517769 0.9514676
vt 0.9945382 0.8261715
vt 0.9945382 0.9514676
vt 0.7517769 0.8261715
vt 0.9945382 0.9514676
vt 0.7517769 0.8261715
vt 0.7517769 0.9514676
vt 0.9945382 0.8261715
vt 0.7517769 0.8261715
vt 0.9945382 0.9514676
vt 0.7517769 0.9514676
vt 0.9945382 0.8261715
vt 0.9906227 0.8888196
vt 0.7517769 0.9514676
vt 0.7517769 0.8888196
vt 0.9906227 0.9514676
vt 0.9906227 0.8261715
vt 0.7478614 0.9514676
vt 0.7478614 0.8261715
vt 0.9906227 0.9514676
vt 0.7478614 0.8261715
vt 0.9906227 0.9514676
vt 0.9906227 0.8261715
vt 0.7478614 0.9514676
vt 0.9906227 0.8261715
vt 0.7478614 0.9514676
vt 0.7478614 0.8261715
vt 0.9906227 0.9514676
vt 0.9906227 0.9514676
vt 0.7478614 0.8261715
vt 0.9906227 0.8261715
vt 0.7478614 0.9514676
vt 0.9123126 0.9436367
vt 0.8261715 0.837918
vt 0.9123126 0.837918
vt 0.8261715 0.9436367
vt 0.9945382 0.9514676
vt 0.7517769 0.8261715
vt 0.7517769 0.9514676
vt 0.9945382 0.8261715
vt 0.9945382 0.8261715
vt 0.7517769 0.9514676
vt 0.7517769 0.8261715
vt 0.9945382 0.9514676
vt 0.7517769 0.8261715
vt 0.9945382 0.9514676
vt 0.9945382 0.8261715
vt 0.7517769 0.9514676
vt 0.9945382 0.8261715
vt 0.7517769 0.9514676
vt 0.7517769 0.8261715
vt 0.9945382 0.9514676
vt 0.7517769 0.9514676
vt 0.9945382 0.8261715
vt 0.7517769 0.8261715
vt 0.9945382 0.9514676
vt 0.9906227 0.9514676
vt 0.9906227 0.8888196
vt 0.7517769 0.8888196
vt 0.7517769 0.9514676
vt 0.7517769 0.9514676
vt 0.9475521 0.9514676
vt 0.9906227 0.9514676
vt 0.9044816 0.9514676
vt 0.8183405 0.9514676
vt 0.9906227 0.9514676
vt 0.7478614 0.8261715
vt 0.7478614 0.9514676
vt 0.9906227 0.8261715
vt 0.7478614 0.9514676
vt 0.9906227 0.8261715
vt 0.9906227 0.9514676
vt 0.7478614 0.8261715
vt 0.9906227 0.9514676
vt 0.7478614 0.8261715
vt 0.7478614 0.9514676
vt 0.9906227 0.8261715
vt 0.9906227 0.9514676
vt 0.7478614 0.8261715
vt 0.9906227 0.8261715
vt 0.7478614 0.9514676
vt 0.9123126 0.9436367
vt 0.8261715 0.837918
vt 0.9123126 0.837918
vt 0.8261715 0.9436367
vt 0.9945382 0.9514676
vt 0.7517769 0.8261715
vt 0.7517769 0.9514676
vt 0.9945382 0.8261715
vt 0.9945382 0.8261715
vt 0.7517769 0.9514676
vt 0.7517769 0.8261715
vt 0.9945382 0.9514676
vt 0.7517769 0.8261715
vt 0.9945382 0.9514676
vt 0.9945382 0.8261715
vt 0.7517769 0.9514676
vt 0.9945382 0.8261715
vt 0.7517769 0.9514676
vt 0.7517769 0.8261715
vt 0.9945382 0.9514676
vt 0.7517769 0.9514676
vt 0.9945382 0.8261715
vt 0.7517769 0.8261715
vt 0.9945382 0.9514676
vt 0.9906227 0.9514676
vt 0.7517769 0.8888196
vt 0.7517769 0.9514676
vt 0.9906227 0.8888196
vt 0.9906227 0.9514676
vt 0.7478614 0.8261715
vt 0.7478614 0.9514676
vt 0.9906227 0.8261715
vt 0.7478614 0.9514676
vt 0.9906227 0.8261715
vt 0.9906227 0.9514676
vt 0.7478614 0.8261715
vt 0.9906227 0.9514676
vt 0.7478614 0.8261715
vt 0.7478614 0.9514676
vt 0.9906227 0.8261715
vt 0.8261715 0.9436367
vt 0.9123126 0.837918
vt 0.8261715 0.837918
vt 0.9123126 0.9436367
vt 0.8261715 0.837918
vt 0.9123126 0.9436367
vt 0.8261715 0.9436367
vt 0.9123126 0.837918
vt 0.8261715 0.9436367
vt 0.9123126 0.837918
vt 0.8261715 0.837918
vt 0.9123126 0.9436367
vt 0.8261715 0.837918
vt 0.9123126 0.9436367
vt 0.8261715 0.9436367
vt 0.9123126 0.837918
vt 0.4972691 0.7517769
vt 0.6029877 0.9749607
vt 0.6029877 0.7517769
vt 0.4972691 0.9749607
vt 0.6029877 0.7517769
vt 0.4972691 0.9749607
vt 0.4972691 0.7517769
vt 0.6029877 0.9749607
vt 0.4972691 0.7517769
vt 0.6029877 0.9749607
vt 0.6029877 0.7517769
vt 0.4972691 0.9749607
vt 0.6029877 0.7517769
vt 0.4972691 0.9749607
vt 0.4972691 0.7517769
vt 0.6029877 0.9749607
vt 0.7008753 0.9749607
vt 0.5011846 0.7517769
vt 0.5011846 0.9749607
vt 0.7008753 0.7517769
vt 0.7243684 0.5442551
vt 0.7243684 0.5442551
vt 0.7243684 0.5325087
vt 0.7243684 0.5325087
vt 0.7243684 0.5442551
vt 0.7243684 0.5364242
vt 0.7243684 0.5364242
vt 0.7321994 0.5325087
vt 0.7321994 0.5442551
vt 0.5011846 0.7517769
vt 0.7439459 0.9749607
vt 0.5011846 0.9749607
vt 0.7439459 0.7517769
vt 0.7008753 0.9749607
vt 0.5011846 0.7517769
vt 0.5011846 0.9749607
vt 0.7008753 0.7517769
vt 0.6029877 0.7517769
vt 0.4972691 0.9749607
vt 0.4972691 0.7517769
vt 0.6029877 0.9749607
vt 0.4972691 0.7517769
vt 0.6029877 0.9749607
vt 0.6029877 0.7517769
vt 0.4972691 0.9749607
vt 0.6029877 0.7517769
vt 0.4972691 0.9749607
vt 0.4972691 0.7517769
vt 0.6029877 0.9749607
vt 0.4972691 0.7517769
vt 0.6029877 0.9749607
vt 0.6029877 0.7517769
vt 0.4972691 0.9749607
vt 0.7439459 0.7517769
vt 0.5011846 0.9749607
vt 0.5011846 0.7517769
vt 0.7439459 0.9749607
vt 0.7008753 0.7517769
vt 0.5011846 0.9749607
vt 0.5011846 0.7517769
vt 0.7008753 0.9749607
vt 0.6029877 0.9749607
vt 0.4972691 0.7517769
vt 0.4972691 0.9749607
vt 0.6029877 0.7517769
vt 0.4972691 0.9749607
vt 0.6029877 0.7517769
vt 0.6029877 0.9749607
vt 0.4972691 0.7517769
vt 0.6029877 0.9749607
vt 0.4972691 0.7517769
vt 0.4972691 0.9749607
vt 0.6029877 0.7517769
vt 0.4972691 0.9749607
vt 0.6029877 0.7517769
vt 0.6029877 0.9749607
vt 0.4972691 0.7517769
vt 0.7439459 0.9749607
vt 0.5011846 0.7517769
vt 0.5011846 0.9749607
vt 0.7439459 0.7517769
vt 0.7008753 0.7517769
vt 0.5011846 0.9749607
vt 0.5011846 0.7517769
vt 0.7008753 0.9749607
vt 0.6029877 0.9749607
vt 0.4972691 0.7517769
vt 0.4972691 0.9749607
vt 0.6029877 0.7517769
vt 0.4972691 0.9749607
vt 0.6029877 0.7517769
vt 0.6029877 0.9749607
vt 0.4972691 0.7517769
vt 0.6029877 0.9749607
vt 0.4972691 0.7517769
vt 0.4972691 0.9749607
vt 0.6029877 0.7517769
vt 0.4972691 0.9749607
vt 0.6029877 0.7517769
vt 0.6029877 0.9749607
vt 0.4972691 0.7517769
vt 0.7439459 0.9749607
vt 0.5011846 0.7517769
vt 0.5011846 0.9749607
vt 0.7439459 0.7517769
vt 0.3093249 0.7948475
vt 0.2505923 0.7909319
vt 0.3093249 0.7909319
vt 0.3093249 0.8340025
vt 0.2584233 0.7948475
vt 0.2505923 0.7948475
vt 0.2819164 0.8261715
vt 0.2819164 0.8261715
vt 0.2819164 0.9436367
vt 0.3093249 0.9436367
vt 0.3093249 0.9749607
vt 0.2584233 0.9710452
vt 0.2505923 0.9749607
vt 0.2505923 0.9710452
vt 0.3328179 0.7948475
vt 0.3328179 0.7909319
vt 0.3093249 0.9749607
vt 0.3093249 0.9436367
vt 0.3719729 0.830087
vt 0.3758885 0.7909319
vt 0.3758885 0.7909319
vt 0.3837195 0.7909319
vt 0.3719729 0.830087
vt 0.4541985 0.9436367
vt 0.4385365 0.9749607
vt 0.4894381 0.9671297
vt 0.4894381 0.9749607
vt 0.4385365 0.9749607
vt 0.4659451 0.9358056
vt 0.4894381 0.9671297
vt 0.4541985 0.9436367
vt 0.4541985 0.8340025
vt 0.4659451 0.8261715
vt 0.3719729 0.830087
vt 0.4855226 0.7948475
vt 0.4894381 0.7909319
vt 0.4894381 0.7948475
vt 0.42679 0.7909319
vt 0.4659451 0.8261715
vt 0.4307055 0.7948475
vt 0.42679 0.7948475
vt 0.4541985 0.8340025
vt 0.411128 0.7517769
vt 0.442452 0.7870165
vt 0.442452 0.7517769
vt 0.411128 0.7870165
vt 0.442452 0.7517769
vt 0.411128 0.7517769
vt 0.442452 0.7870165
vt 0.411128 0.7870165
vt 0.442452 0.7517769
vt 0.411128 0.7517769
vt 0.442452 0.7870165
vt 0.411128 0.7870165
vt 0.442452 0.7517769
vt 0.411128 0.7517769
vt 0.442452 0.7870165
vt 0.411128 0.7870165
vt 0.442452 0.7517769
vt 0.411128 0.7517769
vt 0.442452 0.7870165
vt 0.411128 0.7870165
vt 0.442452 0.7517769
vt 0.411128 0.7517769
vt 0.442452 0.7870165
vt 0.442452 0.7517769
vt 0.411128 0.7870165
vt 0.442452 0.7870165
vt 0.411128 0.7517769
vt 0.411128 0.7870165
vt 0.442452 0.7517769
vt 0.411128 0.7517769
vt 0.442452 0.7870165
vt 0.411128 0.7870165
vt 0.442452 0.7517769
vt 0.411128 0.7517769
vt 0.442452 0.7870165
vt 0.411128 0.7870165
vt 0.442452 0.7517769
vt 0.411128 0.7517769
vt 0.442452 0.7870165
vt 0.411128 0.7870165
vt 0.442452 0.7517769
vt 0.411128 0.7517769
vt 0.442452 0.7870165
vt 0.411128 0.7870165
vt 0.442452 0.7517769
vt 0.411128 0.7517769
vt 0.442452 0.7870165
vt 0.411128 0.7870165
vt 0.442452 0.7517769
vt 0.411128 0.7517769
vt 0.442452 0.7870165
vt 0.411128 0.7870165
vt 0.442452 0.7517769
vt 0.411128 0.7517769
vt 0.442452 0.7870165
vt 0.442452 0.7517769
vt 0.411128 0.7870165
vt 0.442452 0.7870165
vt 0.411128 0.7517769
vt 0.411128 0.7870165
vt 0.442452 0.7517769
vt 0.411128 0.7517769
vt 0.442452 0.7870165
vt 0.411128 0.7870165
vt 0.442452 0.7517769
vt 0.411128 0.7517769
vt 0.442452 0.7870165
vt 0.411128 0.7870165
vt 0.442452 0.7517769
vt 0.411128 0.7517769
vt 0.411128 0.7870165
vt 0.442452 0.7870165
vt 0.442452 0.7517769
vt 0.411128 0.7870165
vt 0.442452 0.7517769
vt 0.411128 0.7517769
vt 0.442452 0.7870165
vt 0.411128 0.7870165
vt 0.442452 0.7517769
vt 0.411128 0.7517769
vt 0.442452 0.7870165
vt 0.411128 0.7870165
vt 0.442452 0.7517769
vt 0.411128 0.7517769
vt 0.442452 0.7870165
vt 0.411128 0.7870165
vt 0.442452 0.7517769
vt 0.411128 0.7517769
vt 0.442452 0.7870165
vt 0.411128 0.7870165
vt 0.442452 0.7517769
vt 0.411128 0.7517769
vt 0.442452 0.7870165
vt 0.411128 0.7870165
vt 0.442452 0.7517769
vt 0.411128 0.7517769
vt 0.442452 0.7870165
vt 0.411128 0.7870165
vt 0.442452 0.7517769
vt 0.411128 0.7517769
vt 0.442452 0.7870165
vt 0.442452 0.7517769
vt 0.411128 0.7870165
vt 0.442452 0.7870165
vt 0.411128 0.7517769
vt 0.442452 0.7517769
vt 0.411128 0.7870165
vt 0.442452 0.7870165
vt 0.411128 0.7517769
vt 0.411128 0.7870165
vt 0.442452 0.7517769
vt 0.411128 0.7517769
vt 0.411128 0.7870165
vt 0.442452 0.7870165
vt 0.442452 0.7517769
vt 0.442452 0.7517769
vt 0.411128 0.7870165
vt 0.442452 0.7870165
vt 0.411128 0.7517769
vt 0.411128 0.7870165
vt 0.411128 0.7517769
vt 0.411128 0.7517769
vt 0.411128 0.7517769
vt 0.411128 0.7870165
vt 0.442452 0.7517769
vt 0.411128 0.7517769
vt 0.442452 0.7870165
vt 0.442452 0.7517769
vt 0.411128 0.7870165
vt 0.442452 0.7870165
vt 0.411128 0.7517769
vt 0.411128 0.7870165
vt 0.442452 0.7517769
vt 0.411128 0.7517769
vt 0.442452 0.7870165
vt 0.411128 0.7870165
vt 0.442452 0.7517769
vt 0.411128 0.7517769
vt 0.442452 0.7870165
vt 0.2780008 0.7948475
vt 0.3367334 0.7948475
vt 0.2780008 0.7948475
vt 0.3367334 0.7948475
vt 0.3093249 0.8105095
vt 0.3719729 0.9749607
vt 0.3328179 0.8535801
vt 0.3367334 0.861411
vt 0.3680575 0.9318901
vt 0.395466 0.8535801
vt 0.395466 0.861411
vt 0.3758885 0.9749607
vt 0.4150435 0.8105095
vt 0.4659451 0.7948475
vt 0.4659451 0.7948475
vt 0.395466 0.7948475
vt 0.395466 0.7948475
vt 0.411128 0.7517769
vt 0.442452 0.7870165
vt 0.442452 0.7517769
vt 0.411128 0.7870165
vt 0.442452 0.7870165
vt 0.411128 0.7517769
vt 0.411128 0.7870165
vt 0.442452 0.7517769
vt 0.442452 0.7870165
vt 0.411128 0.7517769
vt 0.411128 0.7870165
vt 0.442452 0.7517769
vt 0.411128 0.7517769
vt 0.442452 0.7870165
vt 0.442452 0.7517769
vt 0.411128 0.7870165
vt 0.411128 0.7870165
vt 0.442452 0.7517769
vt 0.411128 0.7517769
vt 0.442452 0.7870165
vt 0.411128 0.7870165
vt 0.442452 0.7517769
vt 0.411128 0.7517769
vt 0.442452 0.7870165
vt 0.411128 0.7870165
vt 0.442452 0.7517769
vt 0.411128 0.7517769
vt 0.442452 0.7870165
vt 0.411128 0.7870165
vt 0.442452 0.7517769
vt 0.411128 0.7517769
vt 0.442452 0.7870165
vt 0.411128 0.7870165
vt 0.442452 0.7517769
vt 0.411128 0.7517769
vt 0.442452 0.7870165
vt 0.442452 0.7870165
vt 0.411128 0.7517769
vt 0.411128 0.7870165
vt 0.442452 0.7517769
vt 0.442452 0.7870165
vt 0.411128 0.7517769
vt 0.411128 0.7870165
vt 0.442452 0.7517769
vt 0.411128 0.7517769
vt 0.442452 0.7870165
vt 0.442452 0.7517769
vt 0.411128 0.7870165
vt 0.411128 0.7870165
vt 0.442452 0.7517769
vt 0.411128 0.7517769
vt 0.442452 0.7870165
vt 0.411128 0.7870165
vt 0.442452 0.7517769
vt 0.411128 0.7517769
vt 0.442452 0.7870165
vt 0.411128 0.7870165
vt 0.442452 0.7517769
vt 0.411128 0.7517769
vt 0.442452 0.7870165
vt 0.411128 0.7870165
vt 0.442452 0.7517769
vt 0.411128 0.7517769
vt 0.442452 0.7870165
vt 0.411128 0.7870165
vt 0.442452 0.7517769
vt 0.411128 0.7517769
vt 0.442452 0.7870165
vt 0.3758885 0.9710452
vt 0.3602265 0.9749607
vt 0.3758885 0.9749607
vt 0.3602265 0.9671297
vt 0.3171559 0.9436367
vt 0.2936628 0.9710452
vt 0.2936628 0.9710452
vt 0.2936628 0.9749607
vt 0.3445644 0.9318901
vt 0.3171559 0.822256
vt 0.3445644 0.822256
vt 0.3602265 0.8026785
vt 0.3602265 0.7909319
vt 0.395466 0.8026785
vt 0.395466 0.7909319
vt 0.4385365 0.7909319
vt 0.4502831 0.8418335
vt 0.4541985 0.8418335
vt 0.2936628 0.7948475
vt 0.2936628 0.7909319
vt 0.2936628 0.7948475
vt 0.411128 0.7870165
vt 0.442452 0.7517769
vt 0.411128 0.7517769
vt 0.442452 0.7870165
vt 0.411128 0.7870165
vt 0.442452 0.7517769
vt 0.411128 0.7517769
vt 0.442452 0.7870165
vt 0.442452 0.7517769
vt 0.411128 0.7870165
vt 0.442452 0.7870165
vt 0.411128 0.7517769
vt 0.411128 0.7870165
vt 0.442452 0.7517769
vt 0.411128 0.7517769
vt 0.442452 0.7870165
vt 0.411128 0.7870165
vt 0.442452 0.7517769
vt 0.411128 0.7517769
vt 0.442452 0.7870165
vt 0.411128 0.7870165
vt 0.442452 0.7517769
vt 0.411128 0.7517769
vt 0.442452 0.7870165
vt 0.411128 0.7870165
vt 0.442452 0.7517769
vt 0.411128 0.7517769
vt 0.442452 0.7870165
vt 0.411128 0.7870165
vt 0.442452 0.7517769
vt 0.411128 0.7517769
vt 0.442452 0.7870165
vt 0.411128 0.7870165
vt 0.442452 0.7517769
vt 0.411128 0.7517769
vt 0.442452 0.7870165
vt 0.411128 0.7870165
vt 0.442452 0.7517769
vt 0.411128 0.7517769
vt 0.442452 0.7870165
vt 0.411128 0.7870165
vt 0.442452 0.7517769
vt 0.411128 0.7517769
vt 0.442452 0.7870165
vt 0.411128 0.7870165
vt 0.442452 0.7517769
vt 0.411128 0.7517769
vt 0.442452 0.7870165
vt 0.442452 0.7517769
vt 0.411128 0.7870165
vt 0.442452 0.7870165
vt 0.411128 0.7517769
vt 0.411128 0.7870165
vt 0.442452 0.7517769
vt 0.411128 0.7517769
vt 0.442452 0.7870165
vt 0.442452 0.7517769
vt 0.411128 0.7870165
vt 0.442452 0.7870165
vt 0.411128 0.7517769
vt 0.411128 0.7870165
vt 0.442452 0.7517769
vt 0.411128 0.7517769
vt 0.442452 0.7870165
vt 0.411128 0.7870165
vt 0.442452 0.7517769
vt 0.411128 0.7517769
vt 0.442452 0.7870165
vt 0.411128 0.7870165
vt 0.442452 0.7517769
vt 0.411128 0.7517769
vt 0.442452 0.7870165
vt 0.411128 0.7870165
vt 0.442452 0.7517769
vt 0.411128 0.7517769
vt 0.442452 0.7870165
vt 0.442452 0.7517769
vt 0.411128 0.7870165
vt 0.442452 0.7870165
vt 0.411128 0.7517769
vt 0.411128 0.7870165
vt 0.442452 0.7517769
vt 0.411128 0.7517769
vt 0.442452 0.7870165
vt 0.3758885 0.9710452
vt 0.3602265 0.9749607
vt 0.3758885 0.9749607
vt 0.3602265 0.9671297
vt 0.3171559 0.9436367
vt 0.2936628 0.9710452
vt 0.2936628 0.9710452
vt 0.2936628 0.9749607
vt 0.3445644 0.9318901
vt 0.3171559 0.822256
vt 0.3445644 0.822256
vt 0.3602265 0.8026785
vt 0.3602265 0.7909319
vt 0.395466 0.7909319
vt 0.3837195 0.8026785
vt 0.395466 0.8026785
vt 0.4385365 0.7909319
vt 0.4502831 0.8418335
vt 0.4541985 0.8418335
vt 0.2936628 0.7948475
vt 0.2936628 0.7909319
vt 0.2936628 0.7948475
vt 0.411128 0.7870165
vt 0.442452 0.7517769
vt 0.411128 0.7517769
vt 0.442452 0.7870165
vt 0.411128 0.7870165
vt 0.442452 0.7517769
vt 0.411128 0.7517769
vt 0.442452 0.7870165
vt 0.442452 0.7517769
vt 0.411128 0.7870165
vt 0.442452 0.7870165
vt 0.411128 0.7517769
vt 0.411128 0.7870165
vt 0.442452 0.7517769
vt 0.411128 0.7517769
vt 0.442452 0.7870165
vt 0.411128 0.7870165
vt 0.442452 0.7517769
vt 0.411128 0.7517769
vt 0.442452 0.7870165
vt 0.411128 0.7870165
vt 0.442452 0.7517769
vt 0.411128 0.7517769
vt 0.442452 0.7870165
vt 0.411128 0.7870165
vt 0.442452 0.7517769
vt 0.411128 0.7517769
vt 0.442452 0.7870165
vt 0.411128 0.7870165
vt 0.442452 0.7517769
vt 0.411128 0.7517769
vt 0.442452 0.7870165
vt 0.411128 0.7870165
vt 0.442452 0.7517769
vt 0.411128 0.7517769
vt 0.442452 0.7870165
vt 0.411128 0.7870165
vt 0.442452 0.7517769
vt 0.411128 0.7517769
vt 0.442452 0.7870165
vt 0.411128 0.7870165
vt 0.442452 0.7517769
vt 0.411128 0.7517769
vt 0.442452 0.7870165
vt 0.411128 0.7870165
vt 0.442452 0.7517769
vt 0.411128 0.7517769
vt 0.442452 0.7870165
vt 0.442452 0.7517769
vt 0.411128 0.7870165
vt 0.442452 0.7870165
vt 0.411128 0.7517769
vt 0.411128 0.7870165
vt 0.442452 0.7517769
vt 0.411128 0.7517769
vt 0.442452 0.7870165
vt 0.411128 0.7870165
vt 0.442452 0.7517769
vt 0.411128 0.7517769
vt 0.442452 0.7870165
vt 0.411128 0.7870165
vt 0.442452 0.7517769
vt 0.411128 0.7517769
vt 0.442452 0.7870165
vt 0.411128 0.7870165
vt 0.442452 0.7517769
vt 0.411128 0.7517769
vt 0.442452 0.7870165
vt 0.411128 0.7870165
vt 0.442452 0.7517769
vt 0.411128 0.7517769
vt 0.442452 0.7870165
vt 0.411128 0.7870165
vt 0.442452 0.7517769
vt 0.411128 0.7517769
vt 0.442452 0.7870165
vt 0.411128 0.7870165
vt 0.442452 0.7517769
vt 0.411128 0.7517769
vt 0.442452 0.7870165
vt 0.442452 0.7517769
vt 0.411128 0.7870165
vt 0.442452 0.7870165
vt 0.411128 0.7517769
vt 0.411128 0.7870165
vt 0.442452 0.7517769
vt 0.411128 0.7517769
vt 0.442452 0.7870165
vt 0.7165374 0.5325087
vt 0.7243684 0.5207621
vt 0.7087064 0.5207621
vt 0.7204529 0.5325087
vt 0.7243684 0.5364242
vt 0.7361149 0.5325087
vt 0.7439459 0.5325087
vt 0.7439459 0.5207621
vt 0.7439459 0.5207621
vt 0.7243684 0.5207621
vt 0.7439459 0.5325087
vt 0.7361149 0.5325087
vt 0.7243684 0.5364242
vt 0.7204529 0.5325087
vt 0.7165374 0.5325087
vt 0.7087064 0.5207621
vt 0.5481707 0.4972691
vt 0.5481707 0.5129311
vt 0.5481707 0.4972691
vt 0.5481707 0.5129311
vt 0.5168467 0.4972691
vt 0.5168467 0.5129311
vt 0.5481707 0.5129311
vt 0.5481707 0.4972691
vt 0.5481707 0.5129311
vt 0.5481707 0.4972691
vt 0.5168467 0.5129311
vt 0.5168467 0.4972691
vt 0.4972691 0.5599172
vt 0.5638327 0.7478614
vt 0.5638327 0.5599172
vt 0.4972691 0.7478614
vt 0.5638327 0.5599172
vt 0.4972691 0.7478614
vt 0.4972691 0.5599172
vt 0.5638327 0.7478614
vt 0.4972691 0.5599172
vt 0.5638327 0.7478614
vt 0.5638327 0.5599172
vt 0.4972691 0.7478614
vt 0.5638327 0.5599172
vt 0.4972691 0.7478614
vt 0.4972691 0.5599172
vt 0.5638327 0.7478614
vt 0.4972691 0.5599172
vt 0.5638327 0.7478614
vt 0.5638327 0.5599172
vt 0.4972691 0.7478614
vt 0.5638327 0.5599172
vt 0.4972691 0.7478614
vt 0.4972691 0.5599172
vt 0.5638327 0.7478614
vt 0.6303962 0.9867072
vt 0.6773823 0.9710452
vt 0.6773823 0.9867072
vt 0.6303962 0.9710452
vt 0.6499738 0.9710452
vt 0.6773823 0.9867072
vt 0.6773823 0.9710452
vt 0.6499738 0.9867072
vt 0.6773823 0.9867072
vt 0.6303962 0.9710452
vt 0.6303962 0.9867072
vt 0.6773823 0.9710452
vt 0.6773823 0.9710452
vt 0.6303962 0.9945382
vt 0.6773823 0.9984537
vt 0.6303962 0.9710452
vt 0.6303962 0.9710452
vt 0.6773823 0.9945382
vt 0.6303962 0.9945382
vt 0.6773823 0.9710452
vt 0.6499738 0.9710452
vt 0.6773823 0.9710452
vt 0.6773823 0.9710452
vt 0.6499738 0.9710452
vt 0.6773823 0.9710452
vt 0.6773823 0.9867072
vt 0.6773823 0.9710452
vt 0.6773823 0.9867072
vt 0.6773823 0.9945382
vt 0.6773823 0.9945382
vt 0.6773823 0.9984537
vt 0.6303962 0.9945382
vt 0.6773823 0.9984537
vt 0.6303962 0.9945382
vt 0.6773823 0.9945382
vt 0.6773823 0.9945382
vt 0.6773823 0.9984537
vt 0.6773823 0.9710452
vt 0.6773823 0.9710452
vt 0.6773823 0.9984537
vt 0.6773823 0.9867072
vt 0.6303962 0.9867072
vt 0.6773823 0.9867072
vt 0.6303962 0.9867072
vt 0.6773823 0.9867072
vt 0.6773823 0.9867072
vt 0.6499738 0.9867072
vt 0.6499738 0.9867072
vt 0.6499738 0.9710452
vt 0.6499738 0.9867072
vt 0.6499738 0.9867072
vt 0.6499738 0.9710452
vt 0.4972691 0.5011846
vt 0.5011846 0.5481707
vt 0.5011846 0.5011846
vt 0.4972691 0.5481707
vt 0.5599172 0.5481707
vt 0.5599172 0.5011846
vt 0.6186498 0.5481707
vt 0.6186498 0.5011846
vt 0.6773823 0.5481707
vt 0.6773823 0.5011846
vt 0.7361149 0.5481707
vt 0.7361149 0.5011846
vt 0.7478614 0.5481707
vt 0.7478614 0.5011846
vn 0.04761302 -0.04761302 -0.9977304
vn 0.04761302 -0.04761302 -0.9977304
vn 0.04761302 -0.04761302 -0.9977304
vn 0.04761302 -0.04761302 -0.9977304
vn 0.999874 -0.01587099 -0.000346655
vn 0.999874 -0.01587099 -0.000346655
vn 0.999874 -0.01587099 -0.000346655
vn 0.999874 -0.01587099 -0.000346655
vn 0.04761302 -0.04761302 0.9977304
vn 0.04761302 -0.04761302 0.9977304
vn 0.04761302 -0.04761302 0.9977304
vn 0.04761302 -0.04761302 0.9977304
vn 0.04761302 -0.04761302 -0.9977304
vn 0.04761302 -0.04761302 -0.9977304
vn 0.04761302 -0.04761302 -0.9977304
vn 0.04761302 -0.04761302 -0.9977304
vn -0.999874 -0.01587099 -0.000346655
vn -0.999874 -0.01587099 -0.000346655
vn -0.999874 -0.01587099 -0.000346655
vn -0.999874 -0.01587099 -0.000346655
vn 0.04761302 -0.04761302 -0.9977304
vn 0.04761302 -0.04761302 -0.9977304
vn 0.04761302 -0.04761302 -0.9977304
vn 0.04761302 -0.04761302 -0.9977304
vn 0.04761302 -0.04761302 0.9977304
vn 0.04761302 -0.04761302 0.9977304
vn 0.04761302 -0.04761302 0.9977304
vn 0.04761302 -0.04761302 0.9977304
vn 0.04761302 -0.04761302 -0.9977304
vn 0.04761302 -0.04761302 -0.9977304
vn 0.04761302 -0.04761302 -0.9977304
vn 0.04761302 -0.04761302 -0.9977304
vn 0.04761302 -0.04761302 0.9977304
vn 0.04761302 -0.04761302 0.9977304
vn 0.04761302 -0.04761302 0.9977304
vn 0.04761302 -0.04761302 0.9977304
vn 0.04761302 -0.04761302 -0.9977304
vn 0.04761302 -0.04761302 -0.9977304
vn 0.04761302 -0.04761302 -0.9977304
vn 0.04761302 -0.04761302 -0.9977304
vn 0.04761302 -0.04761302 0.9977304
vn 0.04761302 -0.04761302 0.9977304
vn 0.04761302 -0.04761302 0.9977304
vn 0.04761302 -0.04761302 0.9977304
vn 0.04761302 -0.04761302 0.9977304
vn 0.04761302 -0.04761302 0.9977304
vn 0.04761302 -0.04761302 0.9977304
vn 0.04761302 -0.04761302 0.9977304
vn -0.999874 -0.01587099 -0.000346655
vn -0.999874 -0.01587099 -0.000346655
vn -0.999874 -0.01587099 -0.000346655
vn -0.999874 -0.01587099 -0.000346655
vn 0.04761302 -0.04761302 -0.9977304
vn 0.04761302 -0.04761302 -0.9977304
vn 0.04761302 -0.04761302 -0.9977304
vn 0.04761302 -0.04761302 -0.9977304
vn 0.04761302 -0.04761302 -0.9977304
vn 0.04761302 -0.04761302 -0.9977304
vn 0.04761302 -0.04761302 -0.9977304
vn 0.04761302 -0.04761302 -0.9977304
vn 0.04761302 -0.04761302 -0.9977304
vn 0.04761302 -0.04761302 -0.9977304
vn 0.04761302 -0.04761302 -0.9977304
vn 0.04761302 -0.04761302 -0.9977304
vn 0.04761302 -0.04761302 -0.9977304
vn 0.04761302 -0.04761302 -0.9977304
vn 0.04761302 -0.04761302 -0.9977304
vn 0.04761302 -0.04761302 -0.9977304
vn 0.04761302 -0.04761302 -0.9977304
vn 0.04761302 -0.04761302 -0.9977304
vn 0.04761302 -0.04761302 -0.9977304
vn 0.04761302 -0.04761302 -0.9977304
vn 0.999874 -0.01587099 -0.000346655
vn 0.999874 -0.01587099 -0.000346655
vn 0.999874 -0.01587099 -0.000346655
vn 0.999874 -0.01587099 -0.000346655
vn 0.04761302 -0.04761302 0.9977304
vn 0.04761302 -0.04761302 0.9977304
vn 0.04761302 -0.04761302 0.9977304
vn 0.04761302 -0.04761302 0.9977304
vn 0.04761302 -0.04761302 0.9977304
vn 0.04761302 -0.04761302 0.9977304
vn 0.04761302 -0.04761302 0.9977304
vn 0.04761302 -0.04761302 0.9977304
vn 0.04761302 -0.04761302 0.9977304
vn 0.04761302 -0.04761302 0.9977304
vn 0.04761302 -0.04761302 0.9977304
vn 0.04761302 -0.04761302 0.9977304
vn 0.04761302 -0.04761302 0.9977304
vn 0.04761302 -0.04761302 0.9977304
vn 0.04761302 -0.04761302 0.9977304
vn 0.04761302 -0.04761302 0.9977304
vn -0.999874 -0.01587099 -0.000346655
vn -0.999874 -0.01587099 -0.000346655
vn -0.999874 -0.01587099 -0.000346655
vn -0.999874 -0.01587099 -0.000346655
vn 0.04761302 -0.04761302 -0.9977304
vn 0.04761302 -0.04761302 -0.9977304
vn 0.04761302 -0.04761302 -0.9977304
vn 0.04761302 -0.04761302 -0.9977304
vn 0.04761302 -0.04761302 -0.9977304
vn 0.04761302 -0.04761302 -0.9977304
vn 0.04761302 -0.04761302 -0.9977304
vn 0.04761302 -0.04761302 -0.9977304
vn 0.04761302 -0.04761302 -0.9977304
vn 0.04761302 -0.04761302 -0.9977304
vn 0.04761302 -0.04761302 -0.9977304
vn 0.04761302 -0.04761302 -0.9977304
vn 0.04761302 -0.04761302 -0.9977304
vn 0.04761302 -0.04761302 -0.9977304
vn 0.04761302 -0.04761302 -0.9977304
vn 0.04761302 -0.04761302 -0.9977304
vn 0.04761302 -0.04761302 -0.9977304
vn 0.04761302 -0.04761302 -0.9977304
vn 0.04761302 -0.04761302 -0.9977304
vn 0.04761302 -0.04761302 -0.9977304
vn 0.999874 -0.01587099 -0.000346655
vn 0.999874 -0.01587099 -0.000346655
vn 0.999874 -0.01587099 -0.000346655
vn 0.999874 -0.01587099 -0.000346655
vn 0.999874 -0.01587099 -0.000346655
vn 0.999874 -0.01587099 -0.000346655
vn 0.999874 -0.01587099 -0.000346655
vn 0.999874 -0.01587099 -0.000346655
vn 0.999874 -0.01587099 -0.000346655
vn 0.04761302 -0.04761302 0.9977304
vn 0.04761302 -0.04761302 0.9977304
vn 0.04761302 -0.04761302 0.9977304
vn 0.04761302 -0.04761302 0.9977304
vn 0.04761302 -0.04761302 0.9977304
vn 0.04761302 -0.04761302 0.9977304
vn 0.04761302 -0.04761302 0.9977304
vn 0.04761302 -0.04761302 0.9977304
vn 0.04761302 -0.04761302 0.9977304
vn 0.04761302 -0.04761302 0.9977304
vn 0.04761302 -0.04761302 0.9977304
vn 0.04761302 -0.04761302 0.9977304
vn 0.04761302 -0.04761302 0.9977304
vn 0.04761302 -0.04761302 0.9977304
vn 0.04761302 -0.04761302 0.9977304
vn 0.04761302 -0.04761302 0.9977304
vn -0.999874 -0.01587099 -0.000346655
vn -0.999874 -0.01587099 -0.000346655
vn -0.999874 -0.01587099 -0.000346655
vn -0.999874 -0.01587099 -0.000346655
vn 0.04761302 -0.04761302 -0.9977304
vn 0.04761302 -0.04761302 -0.9977304
vn 0.04761302 -0.04761302 -0.9977304
vn 0.04761302 -0.04761302 -0.9977304
vn 0.04761302 -0.04761302 -0.9977304
vn 0.04761302 -0.04761302 -0.9977304
vn 0.04761302 -0.04761302 -0.9977304
vn 0.04761302 -0.04761302 -0.9977304
vn 0.04761302 -0.04761302 -0.9977304
vn 0.04761302 -0.04761302 -0.9977304
vn 0.04761302 -0.04761302 -0.9977304
vn 0.04761302 -0.04761302 -0.9977304
vn 0.04761302 -0.04761302 -0.9977304
vn 0.04761302 -0.04761302 -0.9977304
vn 0.04761302 -0.04761302 -0.9977304
vn 0.04761302 -0.04761302 -0.9977304
vn 0.04761302 -0.04761302 -0.9977304
vn 0.04761302 -0.04761302 -0.9977304
vn 0.04761302 -0.04761302 -0.9977304
vn 0.04761302 -0.04761302 -0.9977304
vn 0.999874 -0.01587099 -0.000346655
vn 0.999874 -0.01587099 -0.000346655
vn 0.999874 -0.01587099 -0.000346655
vn 0.999874 -0.01587099 -0.000346655
vn 0.04761302 -0.04761302 0.9977304
vn 0.04761302 -0.04761302 0.9977304
vn 0.04761302 -0.04761302 0.9977304
vn 0.04761302 -0.04761302 0.9977304
vn 0.04761302 -0.04761302 0.9977304
vn 0.04761302 -0.04761302 0.9977304
vn 0.04761302 -0.04761302 0.9977304
vn 0.04761302 -0.04761302 0.9977304
vn 0.04761302 -0.04761302 0.9977304
vn 0.04761302 -0.04761302 0.9977304
vn 0.04761302 -0.04761302 0.9977304
vn 0.04761302 -0.04761302 0.9977304
vn -0.999874 -0.01587099 -0.000346655
vn -0.999874 -0.01587099 -0.000346655
vn -0.999874 -0.01587099 -0.000346655
vn -0.999874 -0.01587099 -0.000346655
vn -0.999874 -0.01587099 -0.000346655
vn -0.999874 -0.01587099 -0.000346655
vn -0.999874 -0.01587099 -0.000346655
vn -0.999874 -0.01587099 -0.000346655
vn -0.999874 -0.01587099 -0.000346655
vn -0.999874 -0.01587099 -0.000346655
vn -0.999874 -0.01587099 -0.000346655
vn -0.999874 -0.01587099 -0.000346655
vn -0.999874 -0.01587099 -0.000346655
vn -0.999874 -0.01587099 -0.000346655
vn -0.999874 -0.01587099 -0.000346655
vn -0.999874 -0.01587099 -0.000346655
vn -0.968132 -0.04761302 0.2458728
vn -0.9046479 -0.04761302 0.4234915
vn -0.9046479 -0.04761302 0.4234915
vn -0.968132 -0.04761302 0.2458728
vn -0.9046479 -0.04761302 0.4234915
vn -0.6824538 -0.04761302 0.7293764
vn -0.6824538 -0.04761302 0.7293764
vn -0.9046479 -0.04761302 0.4234915
vn -0.6824538 -0.04761302 0.7293764
vn -0.3650334 -0.04761302 0.9297761
vn -0.3650334 -0.04761302 0.9297761
vn -0.6824538 -0.04761302 0.7293764
vn -0.3650334 -0.04761302 0.9297761
vn -0.04761302 -0.04761302 0.9977304
vn -0.04761302 -0.04761302 0.9977304
vn -0.3650334 -0.04761302 0.9297761
vn 0.04761302 -0.04761302 0.9977304
vn -0.04761302 -0.04761302 0.9977304
vn -0.04761302 -0.04761302 0.9977304
vn 0.04761302 -0.04761302 0.9977304
vn 0.01587099 0.999874 -0.000345267
vn 0.01587099 0.999874 -0.000345267
vn 0.01587099 0.999874 -0.000345267
vn 0.01587099 0.999874 -0.000345267
vn 0.01587099 0.999874 -0.000345267
vn 0.01587099 0.999874 -0.000345267
vn 0.01587099 0.999874 -0.000345267
vn 0.01587099 0.999874 -0.000345267
vn 0.01587099 0.999874 -0.000345267
vn -0.968132 -0.04761302 0.2458728
vn -0.999874 -0.01587099 -0.000346655
vn -0.968132 -0.04761302 0.2458728
vn -0.999874 -0.01587099 -0.000346655
vn 0.04761302 -0.04761302 0.9977304
vn -0.04761302 -0.04761302 0.9977304
vn -0.04761302 -0.04761302 0.9977304
vn 0.04761302 -0.04761302 0.9977304
vn -0.3650334 -0.04761302 0.9297761
vn -0.04761302 -0.04761302 0.9977304
vn -0.04761302 -0.04761302 0.9977304
vn -0.3650334 -0.04761302 0.9297761
vn -0.6824538 -0.04761302 0.7293764
vn -0.3650334 -0.04761302 0.9297761
vn -0.3650334 -0.04761302 0.9297761
vn -0.6824538 -0.04761302 0.7293764
vn -0.9046479 -0.04761302 0.4234915
vn -0.6824538 -0.04761302 0.7293764
vn -0.6824538 -0.04761302 0.7293764
vn -0.9046479 -0.04761302 0.4234915
vn -0.968132 -0.04761302 0.2458728
vn -0.9046479 -0.04761302 0.4234915
vn -0.9046479 -0.04761302 0.4234915
vn -0.968132 -0.04761302 0.2458728
vn -0.999874 -0.01587099 -0.000346655
vn -0.968132 -0.04761302 0.2458728
vn -0.968132 -0.04761302 0.2458728
vn -0.999874 -0.01587099 -0.000346655
vn 0.04761302 -0.04761302 0.9977304
vn -0.04761302 -0.04761302 0.9977304
vn -0.04761302 -0.04761302 0.9977304
vn 0.04761302 -0.04761302 0.9977304
vn -0.3650334 -0.04761302 0.9297761
vn -0.04761302 -0.04761302 0.9977304
vn -0.04761302 -0.04761302 0.9977304
vn -0.3650334 -0.04761302 0.9297761
vn -0.6824538 -0.04761302 0.7293764
vn -0.3650334 -0.04761302 0.9297761
vn -0.3650334 -0.04761302 0.9297761
vn -0.6824538 -0.04761302 0.7293764
vn -0.9046479 -0.04761302 0.4234915
vn -0.6824538 -0.04761302 0.7293764
vn -0.6824538 -0.04761302 0.7293764
vn -0.9046479 -0.04761302 0.4234915
vn -0.968132 -0.04761302 0.2458728
vn -0.9046479 -0.04761302 0.4234915
vn -0.9046479 -0.04761302 0.4234915
vn -0.968132 -0.04761302 0.2458728
vn -0.999874 -0.01587099 -0.000346655
vn -0.968132 -0.04761302 0.2458728
vn -0.968132 -0.04761302 0.2458728
vn -0.999874 -0.01587099 -0.000346655
vn 0.04761302 -0.04761302 0.9977304
vn -0.04761302 -0.04761302 0.9977304
vn -0.04761302 -0.04761302 0.9977304
vn 0.04761302 -0.04761302 0.9977304
vn -0.3650334 -0.04761302 0.9297761
vn -0.04761302 -0.04761302 0.9977304
vn -0.04761302 -0.04761302 0.9977304
vn -0.3650334 -0.04761302 0.9297761
vn -0.6824538 -0.04761302 0.7293764
vn -0.3650334 -0.04761302 0.9297761
vn -0.3650334 -0.04761302 0.9297761
vn -0.6824538 -0.04761302 0.7293764
vn -0.9046479 -0.04761302 0.4234915
vn -0.6824538 -0.04761302 0.7293764
vn -0.6824538 -0.04761302 0.7293764
vn -0.9046479 -0.04761302 0.4234915
vn -0.968132 -0.04761302 0.2458728
vn -0.9046479 -0.04761302 0.4234915
vn -0.9046479 -0.04761302 0.4234915
vn -0.968132 -0.04761302 0.2458728
vn -0.999874 -0.01587099 -0.000346655
vn -0.968132 -0.04761302 0.2458728
vn -0.968132 -0.04761302 0.2458728
vn -0.999874 -0.01587099 -0.000346655
vn 0.04761302 -0.04761302 0.9977304
vn 0.04761302 -0.04761302 0.9977304
vn 0.04761302 -0.04761302 0.9977304
vn 0.04761302 -0.04761302 0.9977304
vn 0.04761302 -0.04761302 0.9977304
vn 0.04761302 -0.04761302 0.9977304
vn 0.04761302 -0.04761302 0.9977304
vn 0.04761302 -0.04761302 0.9977304
vn 0.04761302 -0.04761302 0.9977304
vn 0.04761302 -0.04761302 0.9977304
vn 0.04761302 -0.04761302 0.9977304
vn 0.04761302 -0.04761302 0.9977304
vn 0.04761302 -0.04761302 0.9977304
vn 0.04761302 -0.04761302 0.9977304
vn 0.04761302 -0.04761302 0.9977304
vn 0.04761302 -0.04761302 0.9977304
vn 0.04761302 -0.04761302 0.9977304
vn 0.04761302 -0.04761302 0.9977304
vn 0.04761302 -0.04761302 0.9977304
vn 0.04761302 -0.04761302 0.9977304
vn 0.04761302 -0.04761302 0.9977304
vn 0.04761302 -0.04761302 0.9977304
vn 0.04761302 -0.04761302 0.9977304
vn 0.04761302 -0.04761302 0.9977304
vn 0.04761302 -0.04761302 0.9977304
vn 0.04761302 -0.04761302 0.9977304
vn 0.04761302 -0.04761302 0.9977304
vn 0.04761302 -0.04761302 0.9977304
vn 0.04761302 -0.04761302 0.9977304
vn 0.04761302 -0.04761302 0.9977304
vn 0.04761302 -0.04761302 0.9977304
vn 0.04761302 -0.04761302 0.9977304
vn 0.04761302 -0.04761302 0.9977304
vn 0.04761302 -0.04761302 0.9977304
vn 0.04761302 -0.04761302 0.9977304
vn 0.04761302 -0.04761302 0.9977304
vn 0.04761302 -0.04761302 0.9977304
vn 0.04761302 -0.04761302 0.9977304
vn 0.04761302 -0.04761302 0.9977304
vn 0.04761302 -0.04761302 0.9977304
vn 0.04761302 -0.04761302 0.9977304
vn 0.04761302 -0.04761302 0.9977304
vn 0.04761302 -0.04761302 -0.9977304
vn 0.04761302 -0.04761302 -0.9977304
vn 0.04761302 -0.04761302 -0.9977304
vn 0.7943578 -0.6074501 0
vn 0.7943578 -0.6074501 0
vn 0.7943578 -0.6074501 0
vn 0.7943578 -0.6074501 0
vn 0.01587099 -0.999874 -0.000345267
vn 0.01587099 -0.999874 -0.000345267
vn 0.01587099 -0.999874 -0.000345267
vn 0.01587099 -0.999874 -0.000345267
vn 0.999874 -0.01587099 -0.000346655
vn 0.999874 -0.01587099 -0.000346655
vn 0.999874 -0.01587099 -0.000346655
vn 0.999874 -0.01587099 -0.000346655
vn 0.01587099 0.999874 -0.000345267
vn 0.01587099 0.999874 -0.000345267
vn 0.01587099 0.999874 -0.000345267
vn 0.01587099 0.999874 -0.000345267
vn -0.8729059 -0.4285174 -0.2332557
vn -0.8729059 -0.4285174 -0.2332557
vn -0.8729059 -0.4285174 -0.2332557
vn -0.8729059 -0.4285174 -0.2332557
vn -0.968132 -0.04761302 -0.2458728
vn -0.968132 -0.04761302 -0.2458728
vn -0.968132 -0.04761302 -0.2458728
vn -0.968132 -0.04761302 -0.2458728
vn -0.7776798 0.5872276 -0.2244502
vn -0.7776798 0.5872276 -0.2244502
vn -0.7776798 0.5872276 -0.2244502
vn -0.7776798 0.5872276 -0.2244502
vn 0.04761302 0.968132 -0.2458728
vn 0.04761302 0.968132 -0.2458728
vn 0.04761302 0.968132 -0.2458728
vn 0.04761302 0.968132 -0.2458728
vn -0.999874 -0.01587099 -0.000346655
vn -0.999874 -0.01587099 -0.000346655
vn -0.999874 -0.01587099 -0.000346655
vn -0.999874 -0.01587099 -0.000346655
vn 0.01587099 -0.999874 -0.000345267
vn 0.01587099 -0.999874 -0.000345267
vn 0.01587099 -0.999874 -0.000345267
vn 0.01587099 -0.999874 -0.000345267
vn 0.999874 -0.01587099 -0.000346655
vn 0.999874 -0.01587099 -0.000346655
vn 0.999874 -0.01587099 -0.000346655
vn 0.999874 -0.01587099 -0.000346655
vn 0.04761302 0.968132 -0.2458728
vn 0.04761302 0.968132 -0.2458728
vn 0.04761302 0.968132 -0.2458728
vn 0.04761302 0.968132 -0.2458728
vn 0.9037378 0.4280864 0
vn 0.9037378 0.4280864 0
vn 0.9037378 0.4280864 0
vn 0.9037378 0.4280864 0
vn 0.999874 -0.01587099 -0.000346655
vn 0.999874 -0.01587099 -0.000346655
vn 0.999874 -0.01587099 -0.000346655
vn 0.999874 -0.01587099 -0.000346655
vn 0.01587099 0.999874 -0.000345267
vn 0.01587099 0.999874 -0.000345267
vn 0.01587099 0.999874 -0.000345267
vn 0.01587099 0.999874 -0.000345267
vn -0.999874 -0.01587099 -0.000346655
vn -0.999874 -0.01587099 -0.000346655
vn -0.999874 -0.01587099 -0.000346655
vn -0.999874 -0.01587099 -0.000346655
vn -0.7459378 -0.6507117 -0.1419546
vn -0.7459378 -0.6507117 -0.1419546
vn -0.7459378 -0.6507117 -0.1419546
vn -0.7459378 -0.6507117 -0.1419546
vn -0.7459378 -0.6507117 -0.1419546
vn -0.7459378 -0.6507117 -0.1419546
vn -0.999874 -0.01587099 -0.000346655
vn -0.968132 -0.04761302 -0.2458728
vn -0.999874 -0.01587099 -0.000346655
vn -0.968132 -0.04761302 -0.2458728
vn -0.968132 0.1745812 -0.1795601
vn -0.968132 0.1745812 -0.1795601
vn -0.968132 0.1745812 -0.1795601
vn -0.968132 0.1745812 -0.1795601
vn 0.01587099 -0.999874 -0.000345267
vn 0.01587099 -0.999874 -0.000345267
vn 0.01587099 -0.999874 -0.000345267
vn 0.01587099 -0.999874 -0.000345267
vn 0.999874 -0.01587099 -0.000346655
vn 0.999874 -0.01587099 -0.000346655
vn 0.999874 -0.01587099 -0.000346655
vn 0.999874 -0.01587099 -0.000346655
vn 0.04761302 0.968132 -0.2458728
vn 0.04761302 0.968132 -0.2458728
vn 0.04761302 0.968132 -0.2458728
vn 0.04761302 0.968132 -0.2458728
vn 0.819958 0.5724236 0
vn 0.819958 0.5724236 0
vn 0.819958 0.5724236 0
vn 0.819958 0.5724236 0
vn 0.9899495 -0.1414213 0
vn 0.9899495 -0.1414213 0
vn 0.9899495 -0.1414213 0
vn 0.9899495 -0.1414213 0
vn 0.999874 -0.01587099 -0.000346655
vn 0.999874 -0.01587099 -0.000346655
vn 0.999874 -0.01587099 -0.000346655
vn 0.999874 -0.01587099 -0.000346655
vn 0.9093079 -0.4161239 0
vn 0.9093079 -0.4161239 0
vn 0.9093079 -0.4161239 0
vn 0.9093079 -0.4161239 0
vn -0.9046479 0.3967754 -0.1555036
vn -0.9046479 0.3967754 -0.1555036
vn -0.9046479 0.3967754 -0.1555036
vn -0.9046479 0.3967754 -0.1555036
vn -0.9046479 0.3967754 -0.1555036
vn -0.9046479 0.3967754 -0.1555036
vn 0.931708 0.3632082 0
vn 0.931708 0.3632082 0
vn 0.931708 0.3632082 0
vn 0.931708 0.3632082 0
vn 0.931708 0.3632082 0
vn 0.931708 0.3632082 0
vn 0.931708 0.3632082 0
vn 0.931708 0.3632082 0
vn 0.01587099 -0.999874 -0.000345267
vn 0.01587099 -0.999874 -0.000345267
vn 0.01587099 -0.999874 -0.000345267
vn 0.01587099 -0.999874 -0.000345267
vn 0.04761302 0.968132 -0.2458728
vn -0.2063233 0.968132 -0.1419547
vn 0.04761302 0.968132 -0.2458728
vn -0.2063233 0.968132 -0.1419547
vn -0.999874 -0.01587099 -0.000346655
vn -0.999874 -0.01587099 -0.000346655
vn -0.999874 -0.01587099 -0.000346655
vn -0.999874 -0.01587099 -0.000346655
vn 0.01587099 -0.999874 -0.000345267
vn 0.01587099 -0.999874 -0.000345267
vn 0.01587099 -0.999874 -0.000345267
vn 0.01587099 -0.999874 -0.000345267
vn 0.04761302 -0.04761302 0.9977304
vn 0.04761302 -0.04761302 0.9977304
vn 0.04761302 -0.04761302 0.9977304
vn 0.04761302 -0.04761302 0.9977304
vn 0.04761302 -0.04761302 0.9977304
vn 0.04761302 -0.04761302 0.9977304
vn 0.04761302 -0.04761302 0.9977304
vn 0.04761302 -0.04761302 0.9977304
vn 0.04761302 -0.04761302 0.9977304
vn 0.04761302 -0.04761302 0.9977304
vn 0.04761302 -0.04761302 0.9977304
vn 0.04761302 -0.04761302 0.9977304
vn 0.04761302 -0.04761302 0.9977304
vn 0.04761302 -0.04761302 0.9977304
vn 0.04761302 -0.04761302 0.9977304
vn 0.04761302 -0.04761302 0.9977304
vn 0.04761302 -0.04761302 0.9977304
vn -0.8411639 0.4920015 -0.2244501
vn -0.9046479 0.3650334 -0.2199152
vn -0.8411639 0.4920015 -0.2244501
vn -0.9046479 0.3650334 -0.2199152
vn 0.01587099 0.999874 -0.000345267
vn 0.01587099 0.999874 -0.000345267
vn 0.01587099 0.999874 -0.000345267
vn 0.01587099 0.999874 -0.000345267
vn 0.9207517 -0.390149 0
vn 0.9207517 -0.390149 0
vn 0.9207517 -0.390149 0
vn 0.9207517 -0.390149 0
vn 0.01587099 -0.999874 -0.000345267
vn 0.01587099 -0.999874 -0.000345267
vn 0.01587099 -0.999874 -0.000345267
vn 0.01587099 -0.999874 -0.000345267
vn 0.931708 -0.3632082 0
vn 0.931708 -0.3632082 0
vn 0.931708 -0.3632082 0
vn 0.931708 -0.3632082 0
vn 0.4920015 0.8411639 -0.2244502
vn 0.4920015 0.8411639 -0.2244502
vn 0.4920015 0.8411639 -0.2244502
vn 0.4920015 0.8411639 -0.2244502
vn 0.999874 -0.01587099 -0.000346655
vn 0.999874 -0.01587099 -0.000346655
vn 0.999874 -0.01587099 -0.000346655
vn 0.999874 -0.01587099 -0.000346655
vn 0.01587099 -0.999874 -0.000345267
vn 0.01587099 -0.999874 -0.000345267
vn 0.01587099 -0.999874 -0.000345267
vn 0.01587099 -0.999874 -0.000345267
vn -0.999874 -0.01587099 -0.000346655
vn -0.999874 -0.01587099 -0.000346655
vn -0.999874 -0.01587099 -0.000346655
vn -0.999874 -0.01587099 -0.000346655
vn 0.01587099 0.999874 -0.000345267
vn 0.01587099 0.999874 -0.000345267
vn 0.01587099 0.999874 -0.000345267
vn 0.01587099 0.999874 -0.000345267
vn -0.9037378 -0.4280863 0
vn -0.9037378 -0.4280863 0
vn -0.9037378 -0.4280863 0
vn -0.9037378 -0.4280863 0
vn 0.9363899 0.3332913 -0.1099582
vn 0.8711522 0.4910131 0
vn 0.9363899 0.3332913 -0.1099582
vn 0.8711522 0.4910131 0
vn 0.999874 -0.01587099 -0.000346655
vn 0.999874 -0.01587099 -0.000346655
vn 0.999874 -0.01587099 -0.000346655
vn 0.999874 -0.01587099 -0.000346655
vn 0.01587099 -0.999874 -0.000345267
vn 0.01587099 -0.999874 -0.000345267
vn 0.01587099 -0.999874 -0.000345267
vn 0.01587099 -0.999874 -0.000345267
vn -0.999874 -0.01587099 -0.000346655
vn -0.999874 -0.01587099 -0.000346655
vn -0.999874 -0.01587099 -0.000346655
vn -0.999874 -0.01587099 -0.000346655
vn -0.4920015 0.8411639 -0.2244501
vn -0.4920015 0.8411639 -0.2244501
vn -0.4920015 0.8411639 -0.2244501
vn -0.4920015 0.8411639 -0.2244501
vn -0.9046479 -0.3650333 -0.2199153
vn -0.9046479 -0.3650333 -0.2199153
vn -0.9046479 -0.3650333 -0.2199153
vn -0.9046479 -0.3650333 -0.2199153
vn 0.04761302 -0.04761302 0.9977304
vn 0.04761302 -0.04761302 0.9977304
vn 0.04761302 -0.04761302 0.9977304
vn 0.04761302 -0.04761302 0.9977304
vn 0.04761302 -0.04761302 0.9977304
vn 0.04761302 -0.04761302 0.9977304
vn 0.04761302 -0.04761302 0.9977304
vn 0.04761302 -0.04761302 0.9977304
vn 0.04761302 -0.04761302 0.9977304
vn 0.04761302 -0.04761302 0.9977304
vn 0.04761302 -0.04761302 0.9977304
vn 0.04761302 -0.04761302 0.9977304
vn 0.04761302 -0.04761302 0.9977304
vn 0.04761302 -0.04761302 0.9977304
vn 0.04761302 -0.04761302 0.9977304
vn 0.04761302 -0.04761302 0.9977304
vn 0.04761302 -0.04761302 0.9977304
vn 0.04761302 -0.04761302 0.9977304
vn 0.04761302 -0.04761302 0.9977304
vn 0.04761302 -0.04761302 0.9977304
vn 0.04761302 -0.04761302 0.9977304
vn 0.999874 -0.01587099 -0.000346655
vn 0.999874 -0.01587099 -0.000346655
vn 0.999874 -0.01587099 -0.000346655
vn 0.999874 -0.01587099 -0.000346655
vn 0.01587099 0.999874 -0.000345267
vn 0.01587099 0.999874 -0.000345267
vn 0.01587099 0.999874 -0.000345267
vn 0.01587099 0.999874 -0.000345267
vn 0.01587099 -0.999874 -0.000345267
vn 0.1104315 -0.9938838 0
vn 0.01587099 -0.999874 -0.000345267
vn 0.1104315 -0.9938838 0
vn 0.01587099 -0.999874 -0.000345267
vn 0.01587099 -0.999874 -0.000345267
vn 0.01587099 -0.999874 -0.000345267
vn 0.01587099 -0.999874 -0.000345267
vn 0.954758 -0.2973836 0
vn 0.954758 -0.2973836 0
vn 0.954758 -0.2973836 0
vn 0.954758 -0.2973836 0
vn 0.2684582 0.9632913 0
vn 0.2684582 0.9632913 0
vn 0.2684582 0.9632913 0
vn 0.2684582 0.9632913 0
vn -0.6189697 0.7776798 -0.1099576
vn -0.6189697 0.7776798 -0.1099576
vn -0.6189697 0.7776798 -0.1099576
vn -0.6189697 0.7776798 -0.1099576
vn -0.7776798 0.5872276 -0.2244502
vn -0.7776798 0.5872276 -0.2244502
vn -0.7776798 0.5872276 -0.2244502
vn -0.7776798 0.5872276 -0.2244502
vn 0.04761302 0.968132 -0.2458728
vn 0.04761302 0.968132 -0.2458728
vn 0.04761302 0.968132 -0.2458728
vn 0.04761302 0.968132 -0.2458728
vn -0.999874 -0.01587099 -0.000346655
vn -0.999874 -0.01587099 -0.000346655
vn -0.999874 -0.01587099 -0.000346655
vn -0.999874 -0.01587099 -0.000346655
vn 0.01587099 -0.999874 -0.000345267
vn 0.01587099 -0.999874 -0.000345267
vn 0.01587099 -0.999874 -0.000345267
vn 0.01587099 -0.999874 -0.000345267
vn 0.8711522 0.4910131 0
vn 0.8711522 0.4910131 0
vn 0.8711522 0.4910131 0
vn 0.8711522 0.4910131 0
vn 0.999874 -0.01587099 -0.000346655
vn 0.999874 -0.01587099 -0.000346655
vn 0.999874 -0.01587099 -0.000346655
vn 0.999874 -0.01587099 -0.000346655
vn 0.01587099 -0.999874 -0.000345267
vn 0.01587099 -0.999874 -0.000345267
vn 0.01587099 -0.999874 -0.000345267
vn 0.01587099 -0.999874 -0.000345267
vn 0.07935506 0.968132 -0.2375357
vn 0.04761302 0.968132 -0.2458728
vn 0.07935506 0.968132 -0.2375357
vn 0.04761302 0.968132 -0.2458728
vn 0.01587099 0.999874 -0.000345267
vn 0.01587099 0.999874 -0.000345267
vn 0.01587099 0.999874 -0.000345267
vn 0.01587099 0.999874 -0.000345267
vn -0.999874 -0.01587099 -0.000346655
vn -0.999874 -0.01587099 -0.000346655
vn -0.999874 -0.01587099 -0.000346655
vn -0.999874 -0.01587099 -0.000346655
vn 0.01587099 -0.999874 -0.000345267
vn 0.01587099 -0.999874 -0.000345267
vn 0.01587099 -0.999874 -0.000345267
vn 0.01587099 -0.999874 -0.000345267
vn -0.7669368 -0.6417226 0
vn -0.7669368 -0.6417226 0
vn -0.7669368 -0.6417226 0
vn -0.7669368 -0.6417226 0
vn -0.968132 -0.04761302 -0.2458728
vn -0.968132 -0.04761302 -0.2458728
vn -0.968132 -0.04761302 -0.2458728
vn -0.968132 -0.04761302 -0.2458728
vn 0.9455375 -0.3255129 0
vn 0.9455375 -0.3255129 0
vn 0.9455375 -0.3255129 0
vn 0.9455375 -0.3255129 0
vn 0.04761302 -0.04761302 0.9977304
vn 0.04761302 -0.04761302 0.9977304
vn 0.04761302 -0.04761302 0.9977304
vn 0.04761302 -0.04761302 0.9977304
vn 0.04761302 -0.04761302 0.9977304
vn 0.04761302 -0.04761302 0.9977304
vn 0.04761302 -0.04761302 0.9977304
vn 0.04761302 -0.04761302 0.9977304
vn 0.04761302 -0.04761302 0.9977304
vn 0.04761302 -0.04761302 0.9977304
vn 0.04761302 -0.04761302 0.9977304
vn 0.04761302 -0.04761302 0.9977304
vn 0.04761302 -0.04761302 0.9977304
vn 0.04761302 -0.04761302 0.9977304
vn 0.04761302 -0.04761302 0.9977304
vn 0.04761302 -0.04761302 0.9977304
vn 0.04761302 -0.04761302 0.9977304
vn 0.04761302 -0.04761302 0.9977304
vn 0.04761302 -0.04761302 0.9977304
vn 0.04761302 -0.04761302 0.9977304
vn 0.04761302 -0.04761302 0.9977304
vn 0.04761302 -0.04761302 0.9977304
vn 0.999874 -0.01587099 -0.000346655
vn 0.999874 -0.01587099 -0.000346655
vn 0.999874 -0.01587099 -0.000346655
vn 0.999874 -0.01587099 -0.000346655
vn 0.01587099 0.999874 -0.000345267
vn 0.01587099 0.999874 -0.000345267
vn 0.01587099 0.999874 -0.000345267
vn 0.01587099 0.999874 -0.000345267
vn 0.01587099 -0.999874 -0.000345267
vn 0.1104315 -0.9938838 0
vn 0.01587099 -0.999874 -0.000345267
vn 0.1104315 -0.9938838 0
vn 0.01587099 -0.999874 -0.000345267
vn 0.01587099 -0.999874 -0.000345267
vn 0.01587099 -0.999874 -0.000345267
vn 0.01587099 -0.999874 -0.000345267
vn 0.954758 -0.2973836 0
vn 0.954758 -0.2973836 0
vn 0.954758 -0.2973836 0
vn 0.954758 -0.2973836 0
vn 0.2684582 0.9632913 0
vn 0.2684582 0.9632913 0
vn 0.2684582 0.9632913 0
vn 0.2684582 0.9632913 0
vn -0.6189697 0.7776798 -0.1099576
vn -0.6189697 0.7776798 -0.1099576
vn -0.6189697 0.7776798 -0.1099576
vn -0.6189697 0.7776798 -0.1099576
vn -0.7776798 0.5872276 -0.2244502
vn -0.7776798 0.5872276 -0.2244502
vn -0.7776798 0.5872276 -0.2244502
vn -0.7776798 0.5872276 -0.2244502
vn 0.04761302 0.968132 -0.2458728
vn 0.04761302 0.968132 -0.2458728
vn 0.04761302 0.968132 -0.2458728
vn 0.04761302 0.968132 -0.2458728
vn -0.999874 -0.01587099 -0.000346655
vn -0.999874 -0.01587099 -0.000346655
vn -0.999874 -0.01587099 -0.000346655
vn -0.999874 -0.01587099 -0.000346655
vn 0.01587099 -0.999874 -0.000345267
vn 0.01587099 -0.999874 -0.000345267
vn 0.01587099 -0.999874 -0.000345267
vn 0.01587099 -0.999874 -0.000345267
vn 0.8711522 0.4910131 0
vn 0.8711522 0.4910131 0
vn 0.8711522 0.4910131 0
vn 0.8711522 0.4910131 0
vn 0.999874 -0.01587099 -0.000346655
vn 0.999874 -0.01587099 -0.000346655
vn 0.999874 -0.01587099 -0.000346655
vn 0.999874 -0.01587099 -0.000346655
vn 0.01587099 -0.999874 -0.000345267
vn 0.01587099 -0.999874 -0.000345267
vn 0.01587099 -0.999874 -0.000345267
vn 0.01587099 -0.999874 -0.000345267
vn 0.04761302 0.968132 -0.2458728
vn 0.04761302 0.968132 -0.2458728
vn 0.04761302 0.968132 -0.2458728
vn 0.04761302 0.968132 -0.2458728
vn 0.07935506 0.968132 -0.2375357
vn 0.07935506 0.968132 -0.2375357
vn 0.07935506 0.968132 -0.2375357
vn 0.07935506 0.968132 -0.2375357
vn 0.01587099 0.999874 -0.000345267
vn 0.01587099 0.999874 -0.000345267
vn 0.01587099 0.999874 -0.000345267
vn 0.01587099 0.999874 -0.000345267
vn -0.999874 -0.01587099 -0.000346655
vn -0.999874 -0.01587099 -0.000346655
vn -0.999874 -0.01587099 -0.000346655
vn -0.999874 -0.01587099 -0.000346655
vn 0.01587099 -0.999874 -0.000345267
vn 0.01587099 -0.999874 -0.000345267
vn 0.01587099 -0.999874 -0.000345267
vn 0.01587099 -0.999874 -0.000345267
vn -0.7669368 -0.6417226 0
vn -0.7669368 -0.6417226 0
vn -0.7669368 -0.6417226 0
vn -0.7669368 -0.6417226 0
vn -0.968132 -0.04761302 -0.2458728
vn -0.968132 -0.04761302 -0.2458728
vn -0.968132 -0.04761302 -0.2458728
vn -0.968132 -0.04761302 -0.2458728
vn 0.9455375 -0.3255129 0
vn 0.9455375 -0.3255129 0
vn 0.9455375 -0.3255129 0
vn 0.9455375 -0.3255129 0
vn 0.01587099 -0.999874 -0.000345267
vn 0.01587099 -0.999874 -0.000345267
vn 0.01587099 -0.999874 -0.000345267
vn 0.01587099 -0.999874 -0.000345267
vn 0.01587099 -0.999874 -0.000345267
vn 0.01587099 -0.999874 -0.000345267
vn 0.01587099 -0.999874 -0.000345267
vn 0.01587099 -0.999874 -0.000345267
vn 0.01587099 0.999874 -0.000345267
vn 0.01587099 0.999874 -0.000345267
vn 0.01587099 0.999874 -0.000345267
vn 0.01587099 0.999874 -0.000345267
vn 0.01587099 0.999874 -0.000345267
vn 0.01587099 0.999874 -0.000345267
vn 0.01587099 0.999874 -0.000345267
vn 0.01587099 0.999874 -0.000345267
vn 0.7776798 -0.04761302 -0.626855
vn 0.7776798 -0.04761302 -0.626855
vn 0.7776798 -0.04761302 -0.626855
vn 0.7776798 -0.04761302 -0.626855
vn 0.7776798 -0.04761302 -0.626855
vn 0.7776798 -0.04761302 -0.626855
vn 0.7776798 -0.04761302 -0.626855
vn 0.7776798 -0.04761302 -0.626855
vn 0.7776798 -0.04761302 -0.626855
vn 0.7776798 -0.04761302 -0.626855
vn 0.7776798 -0.04761302 -0.626855
vn 0.7776798 -0.04761302 -0.626855
vn -0.968132 -0.04761302 0.2458728
vn -0.7141957 -0.04761302 0.6983248
vn -0.7141957 -0.04761302 0.6983248
vn -0.968132 -0.04761302 0.2458728
vn -0.9363899 -0.04761302 -0.3477167
vn -0.968132 -0.04761302 0.2458728
vn -0.968132 -0.04761302 0.2458728
vn -0.9363899 -0.04761302 -0.3477167
vn -0.8411639 -0.04761302 -0.5386802
vn -0.9363899 -0.04761302 -0.3477167
vn -0.9363899 -0.04761302 -0.3477167
vn -0.8411639 -0.04761302 -0.5386802
vn 0.2698073 -0.04761302 0.9617364
vn 0.5237435 -0.04761302 0.8505444
vn 0.5237435 -0.04761302 0.8505444
vn 0.2698073 -0.04761302 0.9617364
vn -0.2698073 -0.04761302 0.9617364
vn 0.2698073 -0.04761302 0.9617364
vn 0.2698073 -0.04761302 0.9617364
vn -0.2698073 -0.04761302 0.9617364
vn -0.7141957 -0.04761302 0.6983248
vn -0.2698073 -0.04761302 0.9617364
vn -0.2698073 -0.04761302 0.9617364
vn -0.7141957 -0.04761302 0.6983248
vn 0.01587099 0.999874 -0.000345267
vn 0.01587099 0.999874 -0.000345267
vn 0.01587099 0.999874 -0.000345267
vn 0.01587099 0.999874 -0.000345267
vn 0.01587099 0.999874 -0.000345267
vn 0.01587099 0.999874 -0.000345267
vn 0.01587099 0.999874 -0.000345267
vn 0.01587099 0.999874 -0.000345267
vn 0.01587099 0.999874 -0.000345267
vn 0.01587099 0.999874 -0.000345267
vn 0.01587099 0.999874 -0.000345267
vn 0.01587099 0.999874 -0.000345267
vn 0.01587099 0.999874 -0.000345267
vn 0.01587099 0.999874 -0.000345267
vn 0.01587099 0.999874 -0.000345267
vn 0.01587099 0.999874 -0.000345267
vn 0.01587099 0.999874 -0.000345267
vn 0.01587099 0.999874 -0.000345267
vn 0.01587099 0.999874 -0.000345267
vn 0.01587099 0.999874 -0.000345267
vn 0.04761302 -0.04761302 0.9977304
vn 0.04761302 -0.04761302 0.9977304
vn 0.04761302 -0.04761302 0.9977304
vn 0.04761302 -0.04761302 0.9977304
vn 0.999874 -0.01587099 -0.000346655
vn 0.999874 -0.01587099 -0.000346655
vn 0.999874 -0.01587099 -0.000346655
vn 0.999874 -0.01587099 -0.000346655
vn 0.999874 -0.01587099 -0.000346655
vn 0.999874 -0.01587099 -0.000346655
vn 0.04761302 -0.04761302 0.9977304
vn 0.04761302 -0.04761302 0.9977304
vn 0.04761302 -0.04761302 0.9977304
vn 0.04761302 -0.04761302 0.9977304
vn 0.04761302 -0.04761302 0.9977304
vn 0.04761302 -0.04761302 0.9977304
vn -0.999874 -0.01587099 -0.000346655
vn -0.999874 -0.01587099 -0.000346655
vn -0.999874 -0.01587099 -0.000346655
vn -0.999874 -0.01587099 -0.000346655
vn 0.04761302 -0.04761302 -0.9977304
vn 0.04761302 -0.04761302 -0.9977304
vn 0.04761302 -0.04761302 -0.9977304
vn 0.04761302 -0.04761302 -0.9977304
vn 0.04761302 -0.04761302 -0.9977304
vn 0.04761302 -0.04761302 -0.9977304
vn 0.04761302 -0.04761302 -0.9977304
vn 0.04761302 -0.04761302 -0.9977304
vn -0.999874 -0.01587099 -0.000346655
vn -0.999874 -0.01587099 -0.000346655
vn -0.999874 -0.01587099 -0.000346655
vn -0.999874 -0.01587099 -0.000346655
vn -0.8411639 -0.04761302 -0.5386802
vn -0.9363899 -0.04761302 -0.3477167
vn -0.9363899 -0.04761302 -0.3477167
vn -0.8411639 -0.04761302 -0.5386802
vn -0.968132 -0.04761302 0.2458728
vn -0.968132 -0.04761302 0.2458728
vn -0.7141957 -0.04761302 0.6983248
vn -0.7141957 -0.04761302 0.6983248
vn -0.2698073 -0.04761302 0.9617364
vn -0.2698073 -0.04761302 0.9617364
vn 0.2698073 -0.04761302 0.9617364
vn 0.2698073 -0.04761302 0.9617364
vn 0.5237435 -0.04761302 0.8505444
vn 0.5237435 -0.04761302 0.8505444
g DSJ_GTA_gaoLou_19_0
f 3/3/3 2/2/2 1/1/1
f 2/2/2 4/4/4 1/1/1
f 7/7/7 6/6/6 5/5/5
f 6/6/6 8/8/8 5/5/5
f 11/11/11 10/10/10 9/9/9
f 10/10/10 12/12/12 9/9/9
f 15/15/15 14/14/14 13/13/13
f 14/14/14 16/16/16 13/13/13
f 19/19/19 18/18/18 17/17/17
f 18/18/18 20/20/20 17/17/17
f 23/23/23 22/22/22 21/21/21
f 22/22/22 24/24/24 21/21/21
f 27/27/27 26/26/26 25/25/25
f 26/26/26 28/28/28 25/25/25
f 31/31/31 30/30/30 29/29/29
f 30/30/30 32/32/32 29/29/29
f 35/35/35 34/34/34 33/33/33
f 34/34/34 36/36/36 33/33/33
f 39/39/39 38/38/38 37/37/37
f 38/38/38 40/40/40 37/37/37
f 43/43/43 42/42/42 41/41/41
f 42/42/42 44/44/44 41/41/41
f 47/47/47 46/46/46 45/45/45
f 46/46/46 48/48/48 45/45/45
f 51/51/51 50/50/50 49/49/49
f 50/50/50 52/52/52 49/49/49
f 55/55/55 54/54/54 53/53/53
f 54/54/54 56/56/56 53/53/53
f 59/59/59 58/58/58 57/57/57
f 58/58/58 60/60/60 57/57/57
f 63/63/63 62/62/62 61/61/61
f 62/62/62 64/64/64 61/61/61
f 67/67/67 66/66/66 65/65/65
f 66/66/66 68/68/68 65/65/65
f 71/71/71 70/70/70 69/69/69
f 70/70/70 72/72/72 69/69/69
f 75/75/75 74/74/74 73/73/73
f 74/74/74 76/76/76 73/73/73
f 79/79/79 78/78/78 77/77/77
f 78/78/78 80/80/80 77/77/77
f 83/83/83 82/82/82 81/81/81
f 82/82/82 84/84/84 81/81/81
f 87/87/87 86/86/86 85/85/85
f 86/86/86 88/88/88 85/85/85
f 91/91/91 90/90/90 89/89/89
f 90/90/90 92/92/92 89/89/89
f 95/95/95 94/94/94 93/93/93
f 94/94/94 96/96/96 93/93/93
f 99/99/99 98/98/98 97/97/97
f 98/98/98 100/100/100 97/97/97
f 103/103/103 102/102/102 101/101/101
f 102/102/102 104/104/104 101/101/101
f 107/107/107 106/106/106 105/105/105
f 106/106/106 108/108/108 105/105/105
f 111/111/111 110/110/110 109/109/109
f 110/110/110 112/112/112 109/109/109
f 115/115/115 114/114/114 113/113/113
f 114/114/114 116/116/116 113/113/113
f 119/119/119 118/118/118 117/117/117
f 117/117/117 120/120/120 119/119/119
f 123/123/123 122/122/122 121/121/121
f 122/122/122 124/124/124 121/121/121
f 124/124/124 125/125/125 121/121/121
f 128/128/128 127/127/127 126/126/126
f 127/127/127 129/129/129 126/126/126
f 132/132/132 131/131/131 130/130/130
f 131/131/131 133/133/133 130/130/130
f 136/136/136 135/135/135 134/134/134
f 135/135/135 137/137/137 134/134/134
f 140/140/140 139/139/139 138/138/138
f 139/139/139 141/141/141 138/138/138
f 144/144/144 143/143/143 142/142/142
f 143/143/143 145/145/145 142/142/142
f 148/148/148 147/147/147 146/146/146
f 147/147/147 149/149/149 146/146/146
f 152/152/152 151/151/151 150/150/150
f 151/151/151 153/153/153 150/150/150
f 156/156/156 155/155/155 154/154/154
f 155/155/155 157/157/157 154/154/154
f 160/160/160 159/159/159 158/158/158
f 159/159/159 161/161/161 158/158/158
f 164/164/164 163/163/163 162/162/162
f 163/163/163 165/165/165 162/162/162
f 168/168/168 167/167/167 166/166/166
f 167/167/167 169/169/169 166/166/166
f 172/172/172 171/171/171 170/170/170
f 171/171/171 173/173/173 170/170/170
f 176/176/176 175/175/175 174/174/174
f 175/175/175 177/177/177 174/174/174
f 180/180/180 179/179/179 178/178/178
f 179/179/179 181/181/181 178/178/178
f 184/184/184 183/183/183 182/182/182
f 183/183/183 185/185/185 182/182/182
f 188/188/188 187/187/187 186/186/186
f 187/187/187 189/189/189 186/186/186
f 192/192/192 191/191/191 190/190/190
f 191/191/191 193/193/193 190/190/190
f 196/196/196 195/195/195 194/194/194
f 195/195/195 197/197/197 194/194/194
f 200/200/200 199/199/199 198/198/198
f 199/199/199 201/201/201 198/198/198
f 204/204/204 203/203/203 202/202/202
f 203/203/203 205/205/205 202/202/202
f 208/208/208 207/207/207 206/206/206
f 207/207/207 209/209/209 206/206/206
f 212/212/212 211/211/211 210/210/210
f 211/211/211 213/213/213 210/210/210
f 216/216/216 215/215/215 214/214/214
f 215/215/215 217/217/217 214/214/214
f 220/220/220 219/219/219 218/218/218
f 218/218/218 221/221/221 220/220/220
f 218/218/218 222/222/222 221/221/221
f 222/222/222 223/223/223 221/221/221
f 223/223/223 224/224/224 221/221/221
f 220/220/220 225/225/225 219/219/219
f 225/225/225 226/226/226 219/219/219
f 229/229/229 228/228/228 227/227/227
f 228/228/228 230/230/230 227/227/227
f 233/233/233 232/232/232 231/231/231
f 232/232/232 234/234/234 231/231/231
f 237/237/237 236/236/236 235/235/235
f 236/236/236 238/238/238 235/235/235
f 241/241/241 240/240/240 239/239/239
f 240/240/240 242/242/242 239/239/239
f 245/245/245 244/244/244 243/243/243
f 244/244/244 246/246/246 243/243/243
f 249/249/249 248/248/248 247/247/247
f 248/248/248 250/250/250 247/247/247
f 253/253/253 252/252/252 251/251/251
f 252/252/252 254/254/254 251/251/251
f 257/257/257 256/256/256 255/255/255
f 256/256/256 258/258/258 255/255/255
f 261/261/261 260/260/260 259/259/259
f 260/260/260 262/262/262 259/259/259
f 265/265/265 264/264/264 263/263/263
f 264/264/264 266/266/266 263/263/263
f 269/269/269 268/268/268 267/267/267
f 268/268/268 270/270/270 267/267/267
f 273/273/273 272/272/272 271/271/271
f 272/272/272 274/274/274 271/271/271
f 277/277/277 276/276/276 275/275/275
f 276/276/276 278/278/278 275/275/275
f 281/281/281 280/280/280 279/279/279
f 280/280/280 282/282/282 279/279/279
f 285/285/285 284/284/284 283/283/283
f 284/284/284 286/286/286 283/283/283
f 289/289/289 288/288/288 287/287/287
f 288/288/288 290/290/290 287/287/287
f 293/293/293 292/292/292 291/291/291
f 292/292/292 294/294/294 291/291/291
f 297/297/297 296/296/296 295/295/295
f 296/296/296 298/298/298 295/295/295
f 301/301/301 300/300/300 299/299/299
f 300/300/300 302/302/302 299/299/299
f 305/305/305 304/304/304 303/303/303
f 304/304/304 306/306/306 303/303/303
f 307/307/307 306/306/306 304/304/304
f 307/307/307 304/304/304 308/308/308
f 309/309/309 306/306/306 307/307/307
f 310/310/310 306/306/306 309/309/309
f 310/310/310 311/311/311 306/306/306
f 311/311/311 312/312/312 306/306/306
f 313/313/313 312/312/312 311/311/311
f 314/314/314 313/313/313 311/311/311
f 315/315/315 313/313/313 314/314/314
f 316/316/316 315/315/315 314/314/314
f 303/303/303 317/317/317 305/305/305
f 317/317/317 318/318/318 305/305/305
f 321/321/321 320/320/320 319/319/319
f 320/320/320 321/321/321 322/322/322
f 325/325/325 324/324/324 323/323/323
f 326/326/326 324/324/324 325/325/325
f 329/329/329 328/328/328 327/327/327
f 332/332/332 331/331/331 330/330/330
f 333/333/333 330/330/330 331/331/331
f 334/334/334 333/333/333 331/331/331
f 335/335/335 334/334/334 331/331/331
f 330/330/330 333/333/333 336/336/336
f 339/339/339 338/338/338 337/337/337
f 338/338/338 340/340/340 337/337/337
f 337/337/337 340/340/340 341/341/341
f 340/340/340 342/342/342 341/341/341
f 342/342/342 340/340/340 343/343/343
f 344/344/344 341/341/341 342/342/342
f 347/347/347 346/346/346 345/345/345
f 350/350/350 349/349/349 348/348/348
f 349/349/349 351/351/351 348/348/348
f 354/354/354 353/353/353 352/352/352
f 353/353/353 355/355/355 352/352/352
f 358/358/358 357/357/357 356/356/356
f 357/357/357 359/359/359 356/356/356
f 362/362/362 361/361/361 360/360/360
f 361/361/361 363/363/363 360/360/360
f 366/366/366 365/365/365 364/364/364
f 365/365/365 367/367/367 364/364/364
f 370/370/370 369/369/369 368/368/368
f 369/369/369 371/371/371 368/368/368
f 374/374/374 373/373/373 372/372/372
f 373/373/373 375/375/375 372/372/372
f 378/378/378 377/377/377 376/376/376
f 377/377/377 379/379/379 376/376/376
f 382/382/382 381/381/381 380/380/380
f 381/381/381 383/383/383 380/380/380
f 386/386/386 385/385/385 384/384/384
f 385/385/385 387/387/387 384/384/384
f 390/390/390 389/389/389 388/388/388
f 389/389/389 391/391/391 388/388/388
f 394/394/394 393/393/393 392/392/392
f 393/393/393 395/395/395 392/392/392
f 398/398/398 397/397/397 396/396/396
f 397/397/397 399/399/399 396/396/396
f 402/402/402 401/401/401 400/400/400
f 401/401/401 403/403/403 400/400/400
f 406/406/406 405/405/405 404/404/404
f 405/405/405 407/407/407 404/404/404
f 410/410/410 409/409/409 408/408/408
f 409/409/409 411/411/411 408/408/408
f 414/414/414 413/413/413 412/412/412
f 417/417/417 416/416/416 415/415/415
f 420/420/420 419/419/419 418/418/418
f 419/419/419 421/421/421 418/418/418
f 424/424/424 423/423/423 422/422/422
f 423/423/423 425/425/425 422/422/422
f 428/428/428 427/427/427 426/426/426
f 427/427/427 429/429/429 426/426/426
f 432/432/432 431/431/431 430/430/430
f 431/431/431 433/433/433 430/430/430
f 436/436/436 435/435/435 434/434/434
f 435/435/435 437/437/437 434/434/434
f 440/440/440 439/439/439 438/438/438
f 439/439/439 441/441/441 438/438/438
f 444/444/444 443/443/443 442/442/442
f 443/443/443 445/445/445 442/442/442
f 448/448/448 447/447/447 446/446/446
f 447/447/447 449/449/449 446/446/446
f 452/452/452 451/451/451 450/450/450
f 451/451/451 453/453/453 450/450/450
f 456/456/456 455/455/455 454/454/454
f 459/459/459 458/458/458 457/457/457
f 462/462/462 461/461/461 460/460/460
f 461/461/461 463/463/463 460/460/460
f 466/466/466 465/465/465 464/464/464
f 465/465/465 467/467/467 464/464/464
f 470/470/470 469/469/469 468/468/468
f 469/469/469 471/471/471 468/468/468
f 474/474/474 473/473/473 472/472/472
f 473/473/473 475/475/475 472/472/472
f 478/478/478 477/477/477 476/476/476
f 477/477/477 479/479/479 476/476/476
f 482/482/482 481/481/481 480/480/480
f 481/481/481 483/483/483 480/480/480
f 486/486/486 485/485/485 484/484/484
f 485/485/485 487/487/487 484/484/484
f 488/488/488 484/484/484 487/487/487
f 484/484/484 488/488/488 489/489/489
f 488/488/488 490/490/490 489/489/489
f 491/491/491 489/489/489 490/490/490
f 492/492/492 489/489/489 491/491/491
f 490/490/490 493/493/493 491/491/491
f 493/493/493 494/494/494 491/491/491
f 495/495/495 494/494/494 493/493/493
f 489/489/489 492/492/492 495/495/495
f 492/492/492 494/494/494 495/495/495
f 495/495/495 493/493/493 496/496/496
f 497/497/497 495/495/495 496/496/496
f 498/498/498 497/497/497 496/496/496
f 499/499/499 498/498/498 496/496/496
f 498/498/498 499/499/499 500/500/500
f 503/503/503 502/502/502 501/501/501
f 502/502/502 504/504/504 501/501/501
f 507/507/507 506/506/506 505/505/505
f 506/506/506 508/508/508 505/505/505
f 511/511/511 510/510/510 509/509/509
f 510/510/510 512/512/512 509/509/509
f 515/515/515 514/514/514 513/513/513
f 514/514/514 516/516/516 513/513/513
f 519/519/519 518/518/518 517/517/517
f 518/518/518 520/520/520 517/517/517
f 523/523/523 522/522/522 521/521/521
f 522/522/522 524/524/524 521/521/521
f 527/527/527 526/526/526 525/525/525
f 526/526/526 528/528/528 525/525/525
f 531/531/531 530/530/530 529/529/529
f 530/530/530 532/532/532 529/529/529
f 535/535/535 534/534/534 533/533/533
f 534/534/534 536/536/536 533/533/533
f 539/539/539 538/538/538 537/537/537
f 538/538/538 540/540/540 537/537/537
f 543/543/543 542/542/542 541/541/541
f 542/542/542 544/544/544 541/541/541
f 547/547/547 546/546/546 545/545/545
f 546/546/546 548/548/548 545/545/545
f 551/551/551 550/550/550 549/549/549
f 550/550/550 552/552/552 549/549/549
f 555/555/555 554/554/554 553/553/553
f 554/554/554 556/556/556 553/553/553
f 559/559/559 558/558/558 557/557/557
f 558/558/558 560/560/560 557/557/557
f 563/563/563 562/562/562 561/561/561
f 562/562/562 564/564/564 561/561/561
f 567/567/567 566/566/566 565/565/565
f 566/566/566 568/568/568 565/565/565
f 571/571/571 570/570/570 569/569/569
f 570/570/570 572/572/572 569/569/569
f 573/573/573 572/572/572 570/570/570
f 574/574/574 573/573/573 570/570/570
f 575/575/575 574/574/574 570/570/570
f 576/576/576 575/575/575 570/570/570
f 573/573/573 577/577/577 572/572/572
f 573/573/573 578/578/578 577/577/577
f 578/578/578 579/579/579 577/577/577
f 580/580/580 579/579/579 578/578/578
f 581/581/581 580/580/580 578/578/578
f 582/582/582 580/580/580 581/581/581
f 582/582/582 581/581/581 583/583/583
f 584/584/584 582/582/582 583/583/583
f 585/585/585 582/582/582 584/584/584
f 586/586/586 585/585/585 584/584/584
f 587/587/587 581/581/581 578/578/578
f 588/588/588 581/581/581 587/587/587
f 589/589/589 588/588/588 587/587/587
f 592/592/592 591/591/591 590/590/590
f 591/591/591 593/593/593 590/590/590
f 596/596/596 595/595/595 594/594/594
f 595/595/595 597/597/597 594/594/594
f 600/600/600 599/599/599 598/598/598
f 599/599/599 601/601/601 598/598/598
f 604/604/604 603/603/603 602/602/602
f 603/603/603 605/605/605 602/602/602
f 608/608/608 607/607/607 606/606/606
f 607/607/607 609/609/609 606/606/606
f 612/612/612 611/611/611 610/610/610
f 611/611/611 613/613/613 610/610/610
f 616/616/616 615/615/615 614/614/614
f 615/615/615 617/617/617 614/614/614
f 620/620/620 619/619/619 618/618/618
f 619/619/619 621/621/621 618/618/618
f 624/624/624 623/623/623 622/622/622
f 623/623/623 625/625/625 622/622/622
f 628/628/628 627/627/627 626/626/626
f 627/627/627 629/629/629 626/626/626
f 632/632/632 631/631/631 630/630/630
f 631/631/631 633/633/633 630/630/630
f 636/636/636 635/635/635 634/634/634
f 635/635/635 637/637/637 634/634/634
f 640/640/640 639/639/639 638/638/638
f 639/639/639 641/641/641 638/638/638
f 644/644/644 643/643/643 642/642/642
f 643/643/643 645/645/645 642/642/642
f 648/648/648 647/647/647 646/646/646
f 647/647/647 649/649/649 646/646/646
f 652/652/652 651/651/651 650/650/650
f 651/651/651 653/653/653 650/650/650
f 656/656/656 655/655/655 654/654/654
f 655/655/655 657/657/657 654/654/654
f 660/660/660 659/659/659 658/658/658
f 659/659/659 661/661/661 658/658/658
f 664/664/664 663/663/663 662/662/662
f 663/663/663 665/665/665 662/662/662
f 668/668/668 667/667/667 666/666/666
f 667/667/667 669/669/669 666/666/666
f 672/672/672 671/671/671 670/670/670
f 671/671/671 673/673/673 670/670/670
f 676/676/676 675/675/675 674/674/674
f 675/675/675 677/677/677 674/674/674
f 678/678/678 677/677/677 675/675/675
f 679/679/679 678/678/678 675/675/675
f 680/680/680 679/679/679 675/675/675
f 681/681/681 680/680/680 675/675/675
f 678/678/678 682/682/682 677/677/677
f 678/678/678 683/683/683 682/682/682
f 683/683/683 684/684/684 682/682/682
f 685/685/685 684/684/684 683/683/683
f 686/686/686 685/685/685 683/683/683
f 686/686/686 687/687/687 685/685/685
f 687/687/687 688/688/688 685/685/685
f 689/689/689 688/688/688 687/687/687
f 690/690/690 689/689/689 687/687/687
f 691/691/691 689/689/689 690/690/690
f 692/692/692 691/691/691 690/690/690
f 693/693/693 686/686/686 683/683/683
f 694/694/694 686/686/686 693/693/693
f 695/695/695 694/694/694 693/693/693
f 698/698/698 697/697/697 696/696/696
f 697/697/697 699/699/699 696/696/696
f 702/702/702 701/701/701 700/700/700
f 701/701/701 703/703/703 700/700/700
f 706/706/706 705/705/705 704/704/704
f 705/705/705 707/707/707 704/704/704
f 710/710/710 709/709/709 708/708/708
f 709/709/709 711/711/711 708/708/708
f 714/714/714 713/713/713 712/712/712
f 713/713/713 715/715/715 712/712/712
f 718/718/718 717/717/717 716/716/716
f 717/717/717 719/719/719 716/716/716
f 722/722/722 721/721/721 720/720/720
f 721/721/721 723/723/723 720/720/720
f 726/726/726 725/725/725 724/724/724
f 725/725/725 727/727/727 724/724/724
f 730/730/730 729/729/729 728/728/728
f 729/729/729 731/731/731 728/728/728
f 734/734/734 733/733/733 732/732/732
f 733/733/733 735/735/735 732/732/732
f 738/738/738 737/737/737 736/736/736
f 737/737/737 739/739/739 736/736/736
f 742/742/742 741/741/741 740/740/740
f 741/741/741 743/743/743 740/740/740
f 746/746/746 745/745/745 744/744/744
f 745/745/745 747/747/747 744/744/744
f 750/750/750 749/749/749 748/748/748
f 749/749/749 751/751/751 748/748/748
f 754/754/754 753/753/753 752/752/752
f 753/753/753 755/755/755 752/752/752
f 758/758/758 757/757/757 756/756/756
f 757/757/757 759/759/759 756/756/756
f 762/762/762 761/761/761 760/760/760
f 761/761/761 763/763/763 760/760/760
f 766/766/766 765/765/765 764/764/764
f 765/765/765 767/767/767 764/764/764
f 770/770/770 769/769/769 768/768/768
f 769/769/769 771/771/771 768/768/768
f 774/774/774 773/773/773 772/772/772
f 773/773/773 775/775/775 772/772/772
f 778/778/778 777/777/777 776/776/776
f 777/777/777 779/779/779 776/776/776
f 782/782/782 781/781/781 780/780/780
f 781/781/781 783/783/783 780/780/780
f 786/786/786 785/785/785 784/784/784
f 784/784/784 785/785/785 787/787/787
f 787/787/787 785/785/785 788/788/788
f 788/788/788 785/785/785 789/789/789
f 789/789/789 785/785/785 790/790/790
f 790/790/790 785/785/785 791/791/791
f 794/794/794 793/793/793 792/792/792
f 795/795/795 793/793/793 794/794/794
f 796/796/796 793/793/793 795/795/795
f 797/797/797 793/793/793 796/796/796
f 798/798/798 793/793/793 797/797/797
f 799/799/799 793/793/793 798/798/798
f 802/802/802 801/801/801 800/800/800
f 801/801/801 803/803/803 800/800/800
f 800/800/800 803/803/803 804/804/804
f 803/803/803 805/805/805 804/804/804
f 808/808/808 807/807/807 806/806/806
f 807/807/807 809/809/809 806/806/806
f 806/806/806 809/809/809 810/810/810
f 809/809/809 811/811/811 810/810/810
f 814/814/814 813/813/813 812/812/812
f 813/813/813 815/815/815 812/812/812
f 818/818/818 817/817/817 816/816/816
f 817/817/817 819/819/819 816/816/816
f 822/822/822 821/821/821 820/820/820
f 821/821/821 823/823/823 820/820/820
f 826/826/826 825/825/825 824/824/824
f 825/825/825 827/827/827 824/824/824
f 830/830/830 829/829/829 828/828/828
f 829/829/829 831/831/831 828/828/828
f 834/834/834 833/833/833 832/832/832
f 833/833/833 835/835/835 832/832/832
f 838/838/838 837/837/837 836/836/836
f 837/837/837 839/839/839 836/836/836
f 842/842/842 841/841/841 840/840/840
f 841/841/841 843/843/843 840/840/840
f 846/846/846 845/845/845 844/844/844
f 845/845/845 847/847/847 844/844/844
f 850/850/850 849/849/849 848/848/848
f 849/849/849 851/851/851 848/848/848
f 854/854/854 853/853/853 852/852/852
f 853/853/853 855/855/855 852/852/852
f 858/858/858 857/857/857 856/856/856
f 857/857/857 859/859/859 856/856/856
f 862/862/862 861/861/861 860/860/860
f 861/861/861 863/863/863 860/860/860
f 862/862/862 860/860/860 864/864/864
f 865/865/865 862/862/862 864/864/864
f 868/868/868 867/867/867 866/866/866
f 867/867/867 869/869/869 866/866/866
f 867/867/867 870/870/870 869/869/869
f 870/870/870 871/871/871 869/869/869
f 874/874/874 873/873/873 872/872/872
f 873/873/873 875/875/875 872/872/872
f 878/878/878 877/877/877 876/876/876
f 877/877/877 879/879/879 876/876/876
f 877/877/877 880/880/880 879/879/879
f 880/880/880 881/881/881 879/879/879
f 882/882/882 881/881/881 880/880/880
f 883/883/883 882/882/882 880/880/880
f 886/886/886 885/885/885 884/884/884
f 885/885/885 887/887/887 884/884/884
f 890/890/890 889/889/889 888/888/888
f 889/889/889 891/891/891 888/888/888
f 892/892/892 889/889/889 890/890/890
f 893/893/893 892/892/892 890/890/890
f 894/894/894 892/892/892 893/893/893
f 895/895/895 894/894/894 893/893/893
f 896/896/896 894/894/894 895/895/895
f 897/897/897 896/896/896 895/895/895
f 898/898/898 896/896/896 897/897/897
f 899/899/899 898/898/898 897/897/897
f 900/900/900 898/898/898 899/899/899
f 901/901/901 900/900/900 899/899/899
