g DSJ_GTA_daoJu_youTong_03
v 0.3429358 1.226098 0.1979932
v 0.342928 0.007918745 -0.1979949
v 0.342928 0.007918745 0.1979916
v 0.3429327 1.226098 -0.1979949
v -0.3429326 1.226101 -0.1979949
v -0.3429371 0.007921815 0.1979916
v -0.3429371 0.007921815 -0.1979949
v -0.3429371 0.007921815 0.1979916
v -0.3429326 1.226101 -0.1979949
v -0.3429326 1.226101 0.1979932
v 0.3429327 1.226098 -0.1979949
v -4.559755E-06 0.007920265 -0.3959851
v 0.342928 0.007918745 -0.1979949
v 5.960464E-08 1.226099 -0.3959851
v -0.3429326 1.226101 0.1979932
v -4.559755E-06 0.007920265 0.395985
v -0.3429371 0.007921815 0.1979916
v -4.559755E-06 0.007920265 0.395985
v -0.3429326 1.226101 0.1979932
v 5.960464E-08 1.226099 0.395985
v -0.3429371 0.007921815 -0.1979949
v 5.960464E-08 1.226099 -0.3959851
v -0.3429326 1.226101 -0.1979949
v -4.559755E-06 0.007920265 -0.3959851
v 5.960464E-08 1.226099 0.395985
v 0.342928 0.007918745 0.1979916
v -4.559755E-06 0.007920265 0.395985
v 0.3429358 1.226098 0.1979932
v 5.960464E-08 1.226099 -0.3959851
v -0.3429326 1.226101 0.1979932
v -0.3429326 1.226101 -0.1979949
v 0.3429358 1.226098 0.1979932
v 5.960464E-08 1.226099 0.395985
v 0.3429327 1.226098 -0.1979949
vt 0.853605 0.8787937
vt 0.8394876 0.8277185
vt 0.853605 0.8277185
vt 0.8394876 0.8787937
vt 0.8112794 0.8787803
vt 0.8007047 0.8277185
vt 0.8112794 0.8277453
vt 0.8007047 0.8277185
vt 0.8112794 0.8787803
vt 0.8547323 0.8787937
vt 0.8394876 0.8787937
vt 0.8253835 0.8277185
vt 0.8394876 0.8277185
vt 0.8253835 0.8787937
vt 0.8547323 0.8787937
vt 0.8677225 0.8277185
vt 0.8817729 0.8277185
vt 0.8677225 0.8277185
vt 0.8547323 0.8787937
vt 0.8677225 0.8787937
vt 0.8112794 0.8277453
vt 0.8253835 0.8787937
vt 0.8112794 0.8787803
vt 0.8253835 0.8277185
vt 0.8677225 0.8787937
vt 0.853605 0.8277185
vt 0.8677225 0.8277185
vt 0.853605 0.8787937
vt 0.7966386 0.867387
vt 0.778039 0.8782435
vt 0.7904253 0.8782435
vt 0.778039 0.8565305
vt 0.7718525 0.867387
vt 0.7904253 0.8565305
vn 0.9999924 -0.003921568 0
vn 0.9999924 -0.003921568 0
vn 0.9999924 -0.003921568 0
vn 0.9999924 -0.003921568 0
vn -0.9999923 -0.003921568 -0.0003442513
vn -0.9999923 -0.003921568 -0.0003442513
vn -0.9999923 -0.003921568 -0.0003442513
vn -0.9999923 -0.003921568 -0.0003442513
vn -0.9999923 -0.003921568 -0.0003442513
vn -0.9999923 -0.003921568 -0.0003442513
vn 0.5137216 -0.01176465 -0.8578763
vn 0.5137216 -0.01176465 -0.8578763
vn 0.5137216 -0.01176465 -0.8578763
vn 0.5137216 -0.01176465 -0.8578763
vn -0.4980353 -0.01176465 0.8670769
vn -0.4980353 -0.01176465 0.8670769
vn -0.4980353 -0.01176465 0.8670769
vn -0.4980353 -0.01176465 0.8670769
vn -0.4980353 -0.01176465 0.8670769
vn -0.4980353 -0.01176465 0.8670769
vn -0.4980353 -0.01176465 -0.8670769
vn -0.4980353 -0.01176465 -0.8670769
vn -0.4980353 -0.01176465 -0.8670769
vn -0.4980353 -0.01176465 -0.8670769
vn 0.5137216 -0.01176465 0.8578763
vn 0.5137216 -0.01176465 0.8578763
vn 0.5137216 -0.01176465 0.8578763
vn 0.5137216 -0.01176465 0.8578763
vn 0.003921568 0.9999923 -0.000345267
vn 0.003921568 0.9999923 -0.000345267
vn 0.003921568 0.9999923 -0.000345267
vn 0.003921568 0.9999923 -0.000345267
vn 0.003921568 0.9999923 -0.000345267
vn 0.003921568 0.9999923 -0.000345267
g DSJ_GTA_daoJu_youTong_03_0
f 3/3/3 2/2/2 1/1/1
f 4/4/4 1/1/1 2/2/2
f 7/7/7 6/6/6 5/5/5
f 10/10/10 9/9/9 8/8/8
f 13/13/13 12/12/12 11/11/11
f 14/14/14 11/11/11 12/12/12
f 17/17/17 16/16/16 15/15/15
f 20/20/20 19/19/19 18/18/18
f 23/23/23 22/22/22 21/21/21
f 24/24/24 21/21/21 22/22/22
f 27/27/27 26/26/26 25/25/25
f 28/28/28 25/25/25 26/26/26
f 31/31/31 30/30/30 29/29/29
f 30/30/30 32/32/32 29/29/29
f 33/33/33 32/32/32 30/30/30
f 29/29/29 32/32/32 34/34/34
