g DSJ_GTA_diLou_15_uvDongHua
v 2.496932 -0.09387398 -0.581995
v 4.291534E-06 -0.09387398 -0.5256734
v 2.515705 -0.09387398 0.4505692
v 0.01877832 -0.09387398 0.5068908
v 1.88678 3.679678 -0.572608
v 1.88678 2.38428 -0.572608
v 1.905554 3.679678 0.4599562
v 1.905554 2.38428 0.4599562
v 1.88678 2.38428 -0.572608
v 4.158421 1.163977 -0.6195426
v 1.905554 2.38428 0.4599562
v 4.177195 1.163977 0.4036341
v 4.158421 1.163977 -0.6195426
v 3.79233 0.5068908 -0.6101556
v 4.177195 1.163977 0.4036341
v 3.811104 0.5068908 0.4130211
v 3.79233 0.5068908 -0.6101556
v 2.496932 0.5068908 -0.581995
v 3.811104 0.5068908 0.4130211
v 2.515705 0.5068908 0.4505692
v 2.496932 0.5068908 -0.581995
v 2.496932 -0.09387398 -0.581995
v 2.515705 0.5068908 0.4505692
v 2.515705 -0.09387398 0.4505692
v 4.291534E-06 4.796724 -0.5256734
v 1.88678 3.679678 -0.572608
v 0.01877832 4.796724 0.5068908
v 1.905554 3.679678 0.4599562
v 4.291534E-06 -0.09387398 -0.5256734
v -2.496923 -0.09387398 -0.4693518
v 0.01877832 -0.09387398 0.5068908
v -2.478149 -0.09387398 0.5632124
v -1.886772 2.38428 -0.4787383
v -1.886772 3.679678 -0.4787383
v -1.867998 2.38428 0.5538254
v -1.867998 3.679678 0.5538254
v -4.158412 1.163977 -0.4224167
v -1.886772 2.38428 -0.4787383
v -4.139638 1.163977 0.60076
v -1.867998 2.38428 0.5538254
v -3.792321 0.5068908 -0.4318037
v -4.158412 1.163977 -0.4224167
v -3.773547 0.5068908 0.591373
v -4.139638 1.163977 0.60076
v -2.496923 0.5068908 -0.4693518
v -3.792321 0.5068908 -0.4318037
v -2.478149 0.5068908 0.5632124
v -3.773547 0.5068908 0.591373
v -2.496923 -0.09387398 -0.4693518
v -2.496923 0.5068908 -0.4693518
v -2.478149 -0.09387398 0.5632124
v -2.478149 0.5068908 0.5632124
v -1.886772 3.679678 -0.4787383
v 4.291534E-06 4.796724 -0.5256734
v -1.867998 3.679678 0.5538254
v 0.01877832 4.796724 0.5068908
v 1.699041 -4.80612 -0.563221
v -1.745967 -4.80612 -0.4881253
v 1.717815 -4.80612 0.4693427
v -1.727193 -4.80612 0.5444384
v -2.318571 -2.384288 -0.4693518
v 2.271645 -2.384288 -0.581995
v -2.299797 -2.384288 0.5632124
v 2.290419 -2.384288 0.4505692
v -1.745967 -4.80612 -0.4881253
v -1.745967 -3.998843 -0.4881253
v -1.727193 -4.80612 0.5444384
v -1.727193 -3.998843 0.5444384
v 2.271645 -2.384288 -0.581995
v 1.173372 -3.529495 -0.553834
v 2.290419 -2.384288 0.4505692
v 1.201533 -3.529495 0.4787297
v -1.745967 -3.998843 -0.4881253
v -1.239072 -3.529495 -0.4975123
v -1.727193 -3.998843 0.5444384
v -1.210912 -3.529495 0.5350513
v -1.239072 -3.529495 -0.4975123
v -2.318571 -2.384288 -0.4693518
v -1.210912 -3.529495 0.5350513
v -2.299797 -2.384288 0.5632124
v 1.173372 -3.529495 -0.553834
v 1.699041 -3.998843 -0.563221
v 1.201533 -3.529495 0.4787297
v 1.717815 -3.998843 0.4693427
v 1.699041 -3.998843 -0.563221
v 1.699041 -4.80612 -0.563221
v 1.717815 -3.998843 0.4693427
v 1.717815 -4.80612 0.4693427
vt 0.5779711 0.5702156
vt 0.5779711 0.9773788
vt 0.6089931 0.5702156
vt 0.6089931 0.9773788
vt 0.5779711 0.3608174
vt 0.5779711 0.5585824
vt 0.6089931 0.3608174
vt 0.6089931 0.5585824
vt 0.5779711 0.5585824
vt 0.5779711 0.973501
vt 0.6089931 0.5585824
vt 0.6089931 0.973501
vt 0.5779711 0.155297
vt 0.5779711 0.2716293
vt 0.6089931 0.155297
vt 0.6089931 0.2716293
vt 0.5779711 0.2716293
vt 0.5779711 0.4810275
vt 0.6089931 0.2716293
vt 0.6089931 0.4810275
vt 0.5779711 0.4810275
vt 0.5779711 0.5702156
vt 0.6089931 0.4810275
vt 0.6089931 0.5702156
vt 0.5779711 0.01569815
vt 0.5779711 0.3608174
vt 0.6089931 0.01569815
vt 0.6089931 0.3608174
vt 0.6089931 0.9773788
vt 0.6089931 0.5702156
vt 0.5779711 0.9773788
vt 0.5779711 0.5702156
vt 0.6089931 0.5585824
vt 0.6089931 0.3608174
vt 0.5779711 0.5585824
vt 0.5779711 0.3608174
vt 0.6089931 0.973501
vt 0.6089931 0.5585824
vt 0.5779711 0.973501
vt 0.5779711 0.5585824
vt 0.6089931 0.2716293
vt 0.6089931 0.155297
vt 0.5779711 0.2716293
vt 0.5779711 0.155297
vt 0.6089931 0.4810275
vt 0.6089931 0.2716293
vt 0.5779711 0.4810275
vt 0.5779711 0.2716293
vt 0.6089931 0.5702156
vt 0.6089931 0.4810275
vt 0.5779711 0.5702156
vt 0.5779711 0.4810275
vt 0.6089931 0.3608174
vt 0.6089931 0.01569815
vt 0.5779711 0.3608174
vt 0.5779711 0.01569815
vt 0.6089931 0.7369586
vt 0.6089931 0.004064919
vt 0.5779711 0.7369586
vt 0.5779711 0.004064919
vt 0.6089931 0.989012
vt 0.6089931 0.004064919
vt 0.5779711 0.9928898
vt 0.5779711 0.004064919
vt 0.6089931 0.6283818
vt 0.6089931 0.4693943
vt 0.5779711 0.6283818
vt 0.5779711 0.4693943
vt 0.6089931 0.640015
vt 0.6089931 0.306529
vt 0.5779711 0.640015
vt 0.5779711 0.306529
vt 0.6089931 0.4693943
vt 0.6089931 0.32204
vt 0.5779711 0.4693943
vt 0.5779711 0.32204
vt 0.6089931 0.32204
vt 0.6089931 0.004064919
vt 0.5779711 0.32204
vt 0.5779711 0.004064919
vt 0.6089931 0.306529
vt 0.6089931 0.1669302
vt 0.5779711 0.306529
vt 0.5779711 0.1669302
vt 0.6089931 0.1669302
vt 0.6089931 0.004064919
vt 0.5779711 0.1669302
vt 0.5779711 0.004064919
g DSJ_GTA_diLou_15_uvDongHua_0
f 3/3/3 2/2/2 1/1/1
f 4/4/4 2/2/2 3/3/3
f 7/7/7 6/6/6 5/5/5
f 8/8/8 6/6/6 7/7/7
f 11/11/11 10/10/10 9/9/9
f 12/12/12 10/10/10 11/11/11
f 15/15/15 14/14/14 13/13/13
f 16/16/16 14/14/14 15/15/15
f 19/19/19 18/18/18 17/17/17
f 20/20/20 18/18/18 19/19/19
f 23/23/23 22/22/22 21/21/21
f 24/24/24 22/22/22 23/23/23
f 27/27/27 26/26/26 25/25/25
f 28/28/28 26/26/26 27/27/27
f 31/31/31 30/30/30 29/29/29
f 32/32/32 30/30/30 31/31/31
f 35/35/35 34/34/34 33/33/33
f 36/36/36 34/34/34 35/35/35
f 39/39/39 38/38/38 37/37/37
f 40/40/40 38/38/38 39/39/39
f 43/43/43 42/42/42 41/41/41
f 44/44/44 42/42/42 43/43/43
f 47/47/47 46/46/46 45/45/45
f 48/48/48 46/46/46 47/47/47
f 51/51/51 50/50/50 49/49/49
f 52/52/52 50/50/50 51/51/51
f 55/55/55 54/54/54 53/53/53
f 56/56/56 54/54/54 55/55/55
f 59/59/59 58/58/58 57/57/57
f 60/60/60 58/58/58 59/59/59
f 63/63/63 62/62/62 61/61/61
f 64/64/64 62/62/62 63/63/63
f 67/67/67 66/66/66 65/65/65
f 68/68/68 66/66/66 67/67/67
f 71/71/71 70/70/70 69/69/69
f 72/72/72 70/70/70 71/71/71
f 75/75/75 74/74/74 73/73/73
f 76/76/76 74/74/74 75/75/75
f 79/79/79 78/78/78 77/77/77
f 80/80/80 78/78/78 79/79/79
f 83/83/83 82/82/82 81/81/81
f 84/84/84 82/82/82 83/83/83
f 87/87/87 86/86/86 85/85/85
f 88/88/88 86/86/86 87/87/87
