g DSJ_GTA_diLou_25_uvDongHua
v -24.20905 -4.955627 -7.51643
v -24.16163 0.213398 -7.51643
v -24.11421 3.86491 -7.51643
v 24.16164 -5.477272 -7.374163
v 24.20906 -0.2608261 -7.32674
v 24.20906 -4.054605 -7.32674
v -24.16163 0.213398 -7.51643
v -24.20905 -4.955627 -7.51643
v -24.20905 -3.627806 -7.51643
v 24.20906 -0.2608261 -7.32674
v 24.16164 -5.477272 -7.374163
v 24.25648 3.390688 -7.32674
v -24.25648 -5.00305 3.295843
v -24.20905 -4.955627 -7.51643
v -24.16163 3.86491 3.295843
v -24.11421 3.86491 -7.51643
v -13.72874 4.29171 -7.469007
v -13.72874 5.334999 -7.469007
v -24.11421 4.386555 -7.51643
v -24.11421 5.429844 -7.51643
v 0.07113647 4.149445 -7.421585
v 0.07113647 5.192734 -7.421585
v -13.72874 4.29171 -7.469007
v -13.72874 5.334999 -7.469007
v 13.91843 5.050467 -7.374163
v 13.91843 4.007177 -7.374163
v 24.25648 4.955622 -7.32674
v 24.25648 3.912333 -7.32674
v 0.07113647 5.192734 -7.421585
v 0.07113647 4.149445 -7.421585
v 13.91843 5.050467 -7.374163
v 13.91843 4.007177 -7.374163
v 3.438116 -3.912338 -7.421585
v -3.43811 -3.864916 -7.421585
v 3.438116 -5.240162 -7.421585
v -3.485533 -5.192739 -7.421585
v -10.36176 -3.770071 -7.469007
v -17.28541 -3.722649 -7.469007
v -10.36176 -5.097895 -7.469007
v -17.28541 -5.050472 -7.469007
v 20.74724 -1.873182 -7.374163
v 20.74724 -2.821627 -7.374163
v 22.92866 -2.679359 -7.374163
v 24.16164 -5.477272 -7.374163
v 24.20906 -4.054605 -7.32674
v 17.28541 -3.959761 -7.374163
v 10.36176 -4.007183 -7.374163
v 17.28541 -5.382429 -7.374163
v 10.36176 -5.335007 -7.374163
v 20.74724 -2.821627 -7.374163
v 20.74724 -1.873182 -7.374163
v 18.51839 -3.627806 -7.374163
v 18.61324 -2.631937 -7.374163
v 17.28541 -5.382429 -7.374163
v 17.28541 -3.959761 -7.374163
v 10.36176 -5.335007 -7.374163
v 10.36176 -4.007183 -7.374163
v 9.128786 -3.532961 -7.374163
v 9.128786 -2.537094 -7.374163
v 6.947363 -2.679359 -7.421585
v 6.947363 -1.778337 -7.421585
v 6.947363 -2.679359 -7.421585
v 6.947363 -1.778337 -7.421585
v 4.718517 -3.485538 -7.421585
v 4.718517 -2.489672 -7.421585
v 3.438116 -5.240162 -7.421585
v 3.438116 -3.912338 -7.421585
v -3.485533 -5.192739 -7.421585
v -3.43811 -3.864916 -7.421585
v -4.718512 -3.390694 -7.421585
v -4.671089 -2.394827 -7.421585
v -6.899935 -2.537094 -7.469007
v -6.899935 -1.63607 -7.469007
v -6.899935 -2.537094 -7.469007
v -6.899935 -1.63607 -7.469007
v -9.128778 -3.343271 -7.469007
v -9.081358 -2.347404 -7.469007
v -10.36176 -5.097895 -7.469007
v -10.36176 -3.770071 -7.469007
v -17.28541 -5.050472 -7.469007
v -17.28541 -3.722649 -7.469007
v -18.51838 -3.248426 -7.469007
v -18.51838 -2.25256 -7.469007
v -20.69981 -2.394827 -7.51643
v -20.69981 -1.493803 -7.469007
v -20.69981 -2.394827 -7.51643
v -20.69981 -1.493803 -7.469007
v -22.92866 -3.201004 -7.51643
v -22.92866 -2.25256 -7.51643
v -24.20905 -4.955627 -7.51643
v -24.20905 -3.627806 -7.51643
v -24.25648 -5.00305 3.295843
v -24.16163 3.86491 3.295843
v -17.0483 -5.050472 7.326735
v -16.95345 3.770065 7.326735
v 17.00088 3.43811 7.469002
v 16.90603 -5.42985 7.469002
v 10.55145 -5.335007 6.899935
v 10.6463 3.485533 6.899935
v 6.330873 -5.287584 3.485533
v 6.425718 3.532955 3.532955
v -0.02370834 -5.240162 2.015442
v 0.02371407 3.627798 2.062864
v -6.425711 -5.192739 3.43811
v -6.330868 3.67522 3.485533
v -10.64629 -5.145317 6.80509
v -10.59887 3.722643 6.852512
v -17.0483 -5.050472 7.326735
v -16.95345 3.770065 7.326735
v 24.25648 3.390688 -7.32674
v 24.16164 -5.477272 -7.374163
v 24.16164 -5.477272 3.43811
v 24.20906 3.390688 3.43811
v 16.90603 -5.42985 7.469002
v 17.00088 3.43811 7.469002
vt -0.003895283 2.325742
vt 0.07399535 2.325742
vt 0.130643 2.329283
vt -0.003895283 -1.246605
vt 0.07399535 -1.292631
vt 0.02442861 -1.292631
vt 0.07399535 2.325742
vt -0.003895283 2.325742
vt 0.01734757 2.325742
vt 0.07399535 -1.292631
vt -0.003895283 -1.246605
vt 0.130643 -1.292631
vt -0.003895283 1.854858
vt -0.003895283 2.325742
vt 0.130643 1.812372
vt 0.130643 2.329283
vt 0.5377985 0.9838995
vt 0.5767438 0.9838995
vt 0.5377985 0.00318563
vt 0.5767438 0.00318563
vt 0.5377985 0.9838995
vt 0.5767438 0.9838995
vt 0.5377985 0.00318563
vt 0.5767438 0.00318563
vt 0.5767438 0.00318563
vt 0.5377985 0.00318563
vt 0.5767438 0.9838995
vt 0.5377985 0.9838995
vt 0.5767438 0.00318563
vt 0.5377985 0.00318563
vt 0.5767438 0.9838995
vt 0.5377985 0.9838995
vt 0.5767438 0.980359
vt 0.5767438 -0.0003547668
vt 0.5377985 0.980359
vt 0.5377985 -0.0003547668
vt 0.5767438 0.980359
vt 0.5767438 -0.0003547668
vt 0.5377985 0.980359
vt 0.5377985 -0.0003547668
vt 0.5767438 0.3855578
vt 0.5377985 0.3855578
vt 0.5767438 0.7112821
vt 0.5377985 0.980359
vt 0.5767438 0.980359
vt 0.5767438 0.980359
vt 0.5767438 -0.0003547668
vt 0.5377985 0.980359
vt 0.5377985 -0.0003547668
vt 0.5377985 0.980359
vt 0.5767438 0.980359
vt 0.5377985 0.658175
vt 0.5767438 0.658175
vt 0.5377985 0.3855578
vt 0.5767438 0.3855578
vt 0.5377985 0.980359
vt 0.5767438 0.980359
vt 0.5377985 0.7112821
vt 0.5767438 0.7112821
vt 0.5377985 0.3855578
vt 0.5767438 0.3855578
vt 0.5377985 0.980359
vt 0.5767438 0.980359
vt 0.5377985 0.658175
vt 0.5767438 0.658175
vt 0.5377985 0.3855578
vt 0.5767438 0.3855578
vt 0.5377985 0.980359
vt 0.5767438 0.980359
vt 0.5377985 0.7112821
vt 0.5767438 0.7112821
vt 0.5377985 0.3855578
vt 0.5767438 0.3855578
vt 0.5377985 0.980359
vt 0.5767438 0.980359
vt 0.5377985 0.658175
vt 0.5767438 0.658175
vt 0.5377985 0.3855578
vt 0.5767438 0.3855578
vt 0.5377985 0.980359
vt 0.5767438 0.980359
vt 0.5377985 0.7112821
vt 0.5767438 0.7112821
vt 0.5377985 0.3855578
vt 0.5767438 0.3855578
vt 0.5377985 0.980359
vt 0.5767438 0.980359
vt 0.5377985 0.658175
vt 0.5767438 0.658175
vt 0.5377985 0.3855578
vt 0.5767438 0.3855578
vt -0.003895283 1.812372
vt 0.130643 1.812372
vt -0.003895283 1.422919
vt 0.130643 1.422919
vt 0.130643 -0.2658911
vt -0.003895283 -0.2658911
vt -0.003895283 -0.007435799
vt 0.130643 -0.007435799
vt -0.003895283 0.2581004
vt 0.130643 0.2581004
vt -0.003895283 0.5130152
vt 0.130643 0.5130152
vt -0.003895283 0.7714704
vt 0.130643 0.7714704
vt -0.003895283 1.026385
vt 0.130643 1.026385
vt -0.003895283 1.288381
vt 0.130643 1.288381
vt 0.130643 -1.292631
vt -0.003895283 -1.246605
vt -0.003895283 -0.786342
vt 0.130643 -0.786342
vt -0.003895283 -0.3968889
vt 0.130643 -0.3968889
g DSJ_GTA_diLou_25_uvDongHua_0
f 3/3/3 2/2/2 1/1/1
f 6/6/6 5/5/5 4/4/4
f 9/9/9 8/8/8 7/7/7
f 12/12/12 11/11/11 10/10/10
f 15/15/15 14/14/14 13/13/13
f 16/16/16 14/14/14 15/15/15
f 19/19/19 18/18/18 17/17/17
f 20/20/20 18/18/18 19/19/19
f 23/23/23 22/22/22 21/21/21
f 24/24/24 22/22/22 23/23/23
f 27/27/27 26/26/26 25/25/25
f 28/28/28 26/26/26 27/27/27
f 31/31/31 30/30/30 29/29/29
f 32/32/32 30/30/30 31/31/31
f 35/35/35 34/34/34 33/33/33
f 36/36/36 34/34/34 35/35/35
f 39/39/39 38/38/38 37/37/37
f 40/40/40 38/38/38 39/39/39
f 43/43/43 42/42/42 41/41/41
f 44/44/44 42/42/42 43/43/43
f 45/45/45 44/44/44 43/43/43
f 48/48/48 47/47/47 46/46/46
f 49/49/49 47/47/47 48/48/48
f 52/52/52 51/51/51 50/50/50
f 53/53/53 51/51/51 52/52/52
f 54/54/54 53/53/53 52/52/52
f 55/55/55 53/53/53 54/54/54
f 58/58/58 57/57/57 56/56/56
f 59/59/59 57/57/57 58/58/58
f 60/60/60 59/59/59 58/58/58
f 61/61/61 59/59/59 60/60/60
f 64/64/64 63/63/63 62/62/62
f 65/65/65 63/63/63 64/64/64
f 66/66/66 65/65/65 64/64/64
f 67/67/67 65/65/65 66/66/66
f 70/70/70 69/69/69 68/68/68
f 71/71/71 69/69/69 70/70/70
f 72/72/72 71/71/71 70/70/70
f 73/73/73 71/71/71 72/72/72
f 76/76/76 75/75/75 74/74/74
f 77/77/77 75/75/75 76/76/76
f 78/78/78 77/77/77 76/76/76
f 79/79/79 77/77/77 78/78/78
f 82/82/82 81/81/81 80/80/80
f 83/83/83 81/81/81 82/82/82
f 84/84/84 83/83/83 82/82/82
f 85/85/85 83/83/83 84/84/84
f 88/88/88 87/87/87 86/86/86
f 89/89/89 87/87/87 88/88/88
f 90/90/90 89/89/89 88/88/88
f 91/91/91 89/89/89 90/90/90
f 94/94/94 93/93/93 92/92/92
f 95/95/95 93/93/93 94/94/94
f 98/98/98 97/97/97 96/96/96
f 99/99/99 98/98/98 96/96/96
f 100/100/100 98/98/98 99/99/99
f 101/101/101 100/100/100 99/99/99
f 102/102/102 100/100/100 101/101/101
f 103/103/103 102/102/102 101/101/101
f 104/104/104 102/102/102 103/103/103
f 105/105/105 104/104/104 103/103/103
f 106/106/106 104/104/104 105/105/105
f 107/107/107 106/106/106 105/105/105
f 108/108/108 106/106/106 107/107/107
f 109/109/109 108/108/108 107/107/107
f 112/112/112 111/111/111 110/110/110
f 113/113/113 112/112/112 110/110/110
f 114/114/114 112/112/112 113/113/113
f 115/115/115 114/114/114 113/113/113
