g DSJ_GTA_daoJu_zhuangShi_15
v 0.6566464 0.3657179 -0.6895248
v 0.5745196 0.3657179 0.6905903
v 0.6566464 0.3657179 0.6905903
v 0.5745196 0.3657179 -0.6895248
v 0.5745196 0.3657179 -0.6895248
v 0.5745196 0.5750282 0.6905903
v 0.5745196 0.3657179 0.6905903
v 0.5745196 0.5750282 -0.6895248
v 0.6566464 0.3657179 -0.6895248
v 0.6566464 0.5750282 0.6905903
v 0.6566652 0.5750282 -0.6895248
v 0.6566464 0.3657179 0.6905903
v -0.808176 0.5503663 0.806836
v 0.8065109 0.5503663 -0.8068399
v -0.808176 0.5503663 -0.8068399
v 0.8065109 0.5503663 0.8068258
v 0.8065109 0.6507769 0.8068258
v -0.808176 0.5503663 0.806836
v -0.808176 0.6507769 0.806836
v 0.8065109 0.5503663 0.8068258
v -0.808176 0.6507769 -0.8068399
v -0.808176 0.5503663 0.806836
v -0.808176 0.5503663 -0.8068399
v -0.808176 0.5503663 0.806836
v -0.808176 0.6507769 -0.8068399
v -0.808176 0.6507769 0.806836
v -0.808176 0.6507769 -0.8068399
v 0.8065109 0.5503663 -0.8068399
v 0.8065109 0.6507769 -0.8068399
v -0.808176 0.5503663 -0.8068399
v 0.8065109 0.6507769 0.8068258
v 0.8065109 0.5503663 -0.8068399
v 0.8065109 0.5503663 0.8068258
v 0.8065109 0.5503663 -0.8068399
v 0.8065109 0.6507769 0.8068258
v 0.8065109 0.6507769 -0.8068399
v 0.8065109 0.6507769 -0.8068399
v -0.808176 0.6507769 0.806836
v -0.808176 0.6507769 -0.8068399
v 0.8065109 0.6507769 0.8068258
v -0.6095259 0.3657179 -0.6895248
v -0.6916527 0.3657179 0.6905903
v -0.6095259 0.3657179 0.6905903
v -0.6916527 0.3657179 -0.6895248
v -0.6916527 0.3657179 -0.6895248
v -0.6916527 0.5750282 0.6905903
v -0.6916527 0.3657179 0.6905903
v -0.6916527 0.5750282 -0.6895248
v -0.6095259 0.3657179 -0.6895248
v -0.6095259 0.5750282 0.6905903
v -0.6095259 0.5750282 -0.6895248
v -0.6095259 0.3657179 0.6905903
v -0.5425335 0.3812001 -0.6853848
v -0.7798969 0.006452262 -0.7675766
v -0.7798762 0.006452262 -0.6853951
v -0.5425335 0.3812001 -0.7675732
v -0.5425335 0.3812001 -0.7675732
v -0.8984131 0.006452262 -0.7675766
v -0.7798969 0.006452262 -0.7675766
v -0.7597005 0.5905104 -0.7675732
v -0.7597005 0.5905104 -0.7675732
v -0.8984131 0.006452262 -0.6853951
v -0.8984131 0.006452262 -0.7675766
v -0.7597005 0.5905104 -0.6853848
v -0.7597005 0.5905104 -0.6853848
v -0.7798762 0.006452262 -0.6853951
v -0.8984131 0.006452262 -0.6853951
v -0.5425335 0.3812001 -0.6853848
v -0.0224725 0.3812001 -0.7675732
v -0.5425335 0.3812001 -0.6853848
v -0.0224725 0.3812001 -0.6853848
v -0.5425335 0.3812001 -0.7675732
v -0.0224725 0.5905104 -0.7675732
v -0.5425335 0.3812001 -0.7675732
v -0.0224725 0.3812001 -0.7675732
v -0.0224725 0.5905104 -0.7675732
v -0.7597005 0.5905104 -0.7675732
v -0.5425335 0.3812001 -0.6853848
v -0.0224725 0.5905104 -0.6853848
v -0.0224725 0.3812001 -0.6853848
v -0.0224725 0.5905104 -0.6853848
v -0.7597005 0.5905104 -0.6853848
v 0.4975645 0.3812001 -0.6853848
v 0.7798887 0.006452262 -0.7675766
v 0.4975645 0.3812001 -0.7675629
v 0.7798887 0.006452262 -0.68539
v 0.4975645 0.3812001 -0.7675629
v 0.8984033 0.006452262 -0.7675732
v 0.7147333 0.5905104 -0.7675732
v 0.7798887 0.006452262 -0.7675766
v 0.7147333 0.5905104 -0.7675732
v 0.8984033 0.006452262 -0.68539
v 0.7147333 0.5905104 -0.6853848
v 0.8984033 0.006452262 -0.7675732
v 0.7147333 0.5905104 -0.6853848
v 0.7798887 0.006452262 -0.68539
v 0.4975645 0.3812001 -0.6853848
v 0.8984033 0.006452262 -0.68539
v -0.0224725 0.3812001 -0.7675732
v 0.4975645 0.3812001 -0.6853848
v 0.4975645 0.3812001 -0.7675629
v -0.0224725 0.3812001 -0.6853848
v -0.0224725 0.5905104 -0.7675732
v 0.4975645 0.3812001 -0.7675629
v 0.7147333 0.5905104 -0.7675732
v -0.0224725 0.5905104 -0.7675732
v -0.0224725 0.3812001 -0.7675732
v 0.4975645 0.3812001 -0.6853848
v -0.0224725 0.5905104 -0.6853848
v 0.7147333 0.5905104 -0.6853848
v -0.0224725 0.5905104 -0.6853848
v -0.0224725 0.3812001 -0.6853848
v -0.5425335 0.3812001 0.7675059
v -0.7798969 0.006452262 0.6853124
v -0.7798762 0.006452262 0.7674974
v -0.5425335 0.3812001 0.6853175
v -0.5425335 0.3812001 0.6853175
v -0.8984131 0.006452262 0.6853073
v -0.7798969 0.006452262 0.6853124
v -0.7597005 0.5905104 0.6853175
v -0.7597005 0.5905104 0.6853175
v -0.8984131 0.006452262 0.7674922
v -0.8984131 0.006452262 0.6853073
v -0.7597005 0.5905104 0.7675059
v -0.7597005 0.5905104 0.7675059
v -0.7798762 0.006452262 0.7674974
v -0.8984131 0.006452262 0.7674922
v -0.5425335 0.3812001 0.7675059
v -0.0224725 0.3812001 0.6853175
v -0.5425335 0.3812001 0.7675059
v -0.0224725 0.3812001 0.7675059
v -0.5425335 0.3812001 0.6853175
v -0.0224725 0.5905104 0.6853175
v -0.5425335 0.3812001 0.6853175
v -0.0224725 0.3812001 0.6853175
v -0.0224725 0.5905104 0.6853175
v -0.7597005 0.5905104 0.6853175
v -0.5425335 0.3812001 0.7675059
v -0.0224725 0.5905104 0.7675059
v -0.0224725 0.3812001 0.7675059
v -0.0224725 0.5905104 0.7675059
v -0.7597005 0.5905104 0.7675059
v 0.4975645 0.3812001 0.7675008
v 0.7798887 0.006452262 0.6853124
v 0.4975645 0.3812001 0.6853175
v 0.7798887 0.006452262 0.7674974
v 0.4975645 0.3812001 0.6853175
v 0.8984033 0.006452262 0.6853124
v 0.7147333 0.5905104 0.6853175
v 0.7798887 0.006452262 0.6853124
v 0.7147333 0.5905104 0.6853175
v 0.8984033 0.006452262 0.7674974
v 0.7147333 0.5905104 0.7675008
v 0.8984033 0.006452262 0.6853124
v 0.7147333 0.5905104 0.7675008
v 0.7798887 0.006452262 0.7674974
v 0.4975645 0.3812001 0.7675008
v 0.8984033 0.006452262 0.7674974
v -0.0224725 0.3812001 0.6853175
v 0.4975645 0.3812001 0.7675008
v 0.4975645 0.3812001 0.6853175
v -0.0224725 0.3812001 0.7675059
v -0.0224725 0.5905104 0.6853175
v 0.4975645 0.3812001 0.6853175
v 0.7147333 0.5905104 0.6853175
v -0.0224725 0.5905104 0.6853175
v -0.0224725 0.3812001 0.6853175
v 0.4975645 0.3812001 0.7675008
v -0.0224725 0.5905104 0.7675059
v 0.7147333 0.5905104 0.7675008
v -0.0224725 0.5905104 0.7675059
v -0.0224725 0.3812001 0.7675059
vt 0.5404251 0.7345651
vt 0.5248351 0.6289408
vt 0.5404251 0.6289408
vt 0.5248351 0.7345651
vt 0.5248351 0.7345651
vt 0.5404251 0.6289408
vt 0.5248351 0.6289408
vt 0.5404251 0.7345651
vt 0.5404251 0.7345651
vt 0.5248351 0.6289408
vt 0.5248351 0.7345651
vt 0.5404251 0.6289408
vt 0.8486226 0.413104
vt 0.7528288 0.3383608
vt 0.7528288 0.413104
vt 0.8486226 0.3383608
vt 0.8486226 0.3383608
vt 0.7423198 0.3294753
vt 0.7528288 0.3383608
vt 0.858849 0.3294753
vt 0.7528288 0.413104
vt 0.7423198 0.3294753
vt 0.7423198 0.4216987
vt 0.7423198 0.3294753
vt 0.7528288 0.413104
vt 0.7528288 0.3383608
vt 0.7528288 0.413104
vt 0.858849 0.4216987
vt 0.8486226 0.413104
vt 0.7423198 0.4216987
vt 0.8486226 0.3383608
vt 0.858849 0.4216987
vt 0.858849 0.3294753
vt 0.858849 0.4216987
vt 0.8486226 0.3383608
vt 0.8486226 0.413104
vt 0.8486226 0.413104
vt 0.7528288 0.3383608
vt 0.7528288 0.413104
vt 0.8486226 0.3383608
vt 0.5404251 0.7345651
vt 0.5248351 0.6289408
vt 0.5404251 0.6289408
vt 0.5248351 0.7345651
vt 0.5248351 0.7345651
vt 0.5404251 0.6289408
vt 0.5248351 0.6289408
vt 0.5404251 0.7345651
vt 0.5404251 0.7345651
vt 0.5248351 0.6289408
vt 0.5248351 0.7345651
vt 0.5404251 0.6289408
vt 0.5404251 0.7345651
vt 0.5248351 0.6165577
vt 0.5404251 0.6165577
vt 0.5248351 0.7345651
vt 0.5248351 0.7345651
vt 0.5404251 0.6165577
vt 0.5248351 0.6165577
vt 0.5404251 0.7345651
vt 0.5404251 0.7345651
vt 0.5248351 0.6165577
vt 0.5404251 0.6165577
vt 0.5248351 0.7345651
vt 0.5248351 0.7345651
vt 0.5404251 0.6165577
vt 0.5248351 0.6165577
vt 0.5404251 0.7345651
vt 0.5248351 0.6817449
vt 0.5404251 0.7345651
vt 0.5404251 0.6817449
vt 0.5248351 0.7345651
vt 0.5404251 0.6755574
vt 0.5248351 0.7345651
vt 0.5248351 0.6817449
vt 0.5404251 0.6755574
vt 0.5404251 0.7345651
vt 0.5404251 0.7345651
vt 0.5248351 0.6755574
vt 0.5404251 0.6817449
vt 0.5248351 0.6755574
vt 0.5248351 0.7345651
vt 0.5404251 0.7345651
vt 0.5248351 0.6165577
vt 0.5248351 0.7345651
vt 0.5404251 0.6165577
vt 0.5248351 0.7345651
vt 0.5404251 0.6165577
vt 0.5404251 0.7345651
vt 0.5248351 0.6165577
vt 0.5404251 0.7345651
vt 0.5248351 0.6165577
vt 0.5248351 0.7345651
vt 0.5404251 0.6165577
vt 0.5248351 0.7345651
vt 0.5404251 0.6165577
vt 0.5404251 0.7345651
vt 0.5248351 0.6165577
vt 0.5248351 0.6817449
vt 0.5404251 0.7345651
vt 0.5248351 0.7345651
vt 0.5404251 0.6817449
vt 0.5404251 0.6755574
vt 0.5248351 0.7345651
vt 0.5404251 0.7345651
vt 0.5404251 0.6755574
vt 0.5248351 0.6817449
vt 0.5404251 0.7345651
vt 0.5248351 0.6755574
vt 0.5248351 0.7345651
vt 0.5248351 0.6755574
vt 0.5404251 0.6817449
vt 0.5404251 0.7345651
vt 0.5248351 0.6165577
vt 0.5404251 0.6165577
vt 0.5248351 0.7345651
vt 0.5248351 0.7345651
vt 0.5404251 0.6165577
vt 0.5248351 0.6165577
vt 0.5404251 0.7345651
vt 0.5404251 0.7345651
vt 0.5248351 0.6165577
vt 0.5404251 0.6165577
vt 0.5248351 0.7345651
vt 0.5248351 0.7345651
vt 0.5404251 0.6165577
vt 0.5248351 0.6165577
vt 0.5404251 0.7345651
vt 0.5248351 0.6817449
vt 0.5404251 0.7345651
vt 0.5404251 0.6817449
vt 0.5248351 0.7345651
vt 0.5404251 0.6755574
vt 0.5248351 0.7345651
vt 0.5248351 0.6817449
vt 0.5404251 0.6755574
vt 0.5404251 0.7345651
vt 0.5404251 0.7345651
vt 0.5248351 0.6755574
vt 0.5404251 0.6817449
vt 0.5248351 0.6755574
vt 0.5248351 0.7345651
vt 0.5404251 0.7345651
vt 0.5248351 0.6165577
vt 0.5248351 0.7345651
vt 0.5404251 0.6165577
vt 0.5248351 0.7345651
vt 0.5404251 0.6165577
vt 0.5404251 0.7345651
vt 0.5248351 0.6165577
vt 0.5404251 0.7345651
vt 0.5248351 0.6165577
vt 0.5248351 0.7345651
vt 0.5404251 0.6165577
vt 0.5248351 0.7345651
vt 0.5404251 0.6165577
vt 0.5404251 0.7345651
vt 0.5248351 0.6165577
vt 0.5248351 0.6817449
vt 0.5404251 0.7345651
vt 0.5248351 0.7345651
vt 0.5404251 0.6817449
vt 0.5404251 0.6755574
vt 0.5248351 0.7345651
vt 0.5404251 0.7345651
vt 0.5404251 0.6755574
vt 0.5248351 0.6817449
vt 0.5404251 0.7345651
vt 0.5248351 0.6755574
vt 0.5248351 0.7345651
vt 0.5248351 0.6755574
vt 0.5404251 0.6817449
vn 0.003921568 -0.9999924 0
vn 0.003921568 -0.9999924 0
vn 0.003921568 -0.9999924 0
vn 0.003921568 -0.9999924 0
vn -0.9999923 -0.003921568 -0.0003442513
vn -0.9999923 -0.003921568 -0.0003442513
vn -0.9999923 -0.003921568 -0.0003442513
vn -0.9999923 -0.003921568 -0.0003442513
vn 0.9999924 -0.003921568 0
vn 0.9999924 -0.003921568 0
vn 0.9999924 -0.003921568 0
vn 0.9999924 -0.003921568 0
vn 0.003921568 -0.9999924 0
vn 0.003921568 -0.9999924 0
vn 0.003921568 -0.9999924 0
vn 0.003921568 -0.9999924 0
vn 0.01176465 -0.01176465 0.9998616
vn 0.01176465 -0.01176465 0.9998616
vn 0.01176465 -0.01176465 0.9998616
vn 0.01176465 -0.01176465 0.9998616
vn -0.9999923 -0.003921568 -0.0003442513
vn -0.9999923 -0.003921568 -0.0003442513
vn -0.9999923 -0.003921568 -0.0003442513
vn -0.9999923 -0.003921568 -0.0003442513
vn -0.9999923 -0.003921568 -0.0003442513
vn -0.9999923 -0.003921568 -0.0003442513
vn 0.01176465 -0.01176465 -0.9998616
vn 0.01176465 -0.01176465 -0.9998616
vn 0.01176465 -0.01176465 -0.9998616
vn 0.01176465 -0.01176465 -0.9998616
vn 0.9999924 -0.003921568 0
vn 0.9999924 -0.003921568 0
vn 0.9999924 -0.003921568 0
vn 0.9999924 -0.003921568 0
vn 0.9999924 -0.003921568 0
vn 0.9999924 -0.003921568 0
vn 0.003921568 0.9999923 -0.000345267
vn 0.003921568 0.9999923 -0.000345267
vn 0.003921568 0.9999923 -0.000345267
vn 0.003921568 0.9999923 -0.000345267
vn 0.003921568 -0.9999924 0
vn 0.003921568 -0.9999924 0
vn 0.003921568 -0.9999924 0
vn 0.003921568 -0.9999924 0
vn -0.9999923 -0.003921568 -0.0003442513
vn -0.9999923 -0.003921568 -0.0003442513
vn -0.9999923 -0.003921568 -0.0003442513
vn -0.9999923 -0.003921568 -0.0003442513
vn 0.9999924 -0.003921568 0
vn 0.9999924 -0.003921568 0
vn 0.9999924 -0.003921568 0
vn 0.9999924 -0.003921568 0
vn 0.8455815 -0.5338464 0
vn 0.8455815 -0.5338464 0
vn 0.8455815 -0.5338464 0
vn 0.8455815 -0.5338464 0
vn 0.01176465 -0.01176465 -0.9998616
vn 0.01176465 -0.01176465 -0.9998616
vn 0.01176465 -0.01176465 -0.9998616
vn 0.01176465 -0.01176465 -0.9998616
vn -0.9686199 0.2235277 -0.1086774
vn -0.9686199 0.2235277 -0.1086774
vn -0.9686199 0.2235277 -0.1086774
vn -0.9686199 0.2235277 -0.1086774
vn 0.01176465 -0.01176465 0.9998616
vn 0.01176465 -0.01176465 0.9998616
vn 0.01176465 -0.01176465 0.9998616
vn 0.01176465 -0.01176465 0.9998616
vn 0.003921568 -0.9999924 0
vn 0.003921568 -0.9999924 0
vn 0.003921568 -0.9999924 0
vn 0.003921568 -0.9999924 0
vn 0.01176465 -0.01176465 -0.9998616
vn 0.01176465 -0.01176465 -0.9998616
vn 0.01176465 -0.01176465 -0.9998616
vn 0.01176465 -0.01176465 -0.9998616
vn 0.01176465 -0.01176465 -0.9998616
vn 0.01176465 -0.01176465 0.9998616
vn 0.01176465 -0.01176465 0.9998616
vn 0.01176465 -0.01176465 0.9998616
vn 0.01176465 -0.01176465 0.9998616
vn 0.01176465 -0.01176465 0.9998616
vn -0.7882292 -0.6078385 -0.09605762
vn -0.7882292 -0.6078385 -0.09605762
vn -0.7882292 -0.6078385 -0.09605762
vn -0.7882292 -0.6078385 -0.09605762
vn 0.01176465 -0.01176465 -0.9998616
vn 0.01176465 -0.01176465 -0.9998616
vn 0.01176465 -0.01176465 -0.9998616
vn 0.01176465 -0.01176465 -0.9998616
vn 0.9583629 0.285553 0
vn 0.9583629 0.285553 0
vn 0.9583629 0.285553 0
vn 0.9583629 0.285553 0
vn 0.01176465 -0.01176465 0.9998616
vn 0.01176465 -0.01176465 0.9998616
vn 0.01176465 -0.01176465 0.9998616
vn 0.01176465 -0.01176465 0.9998616
vn 0.003921568 -0.9999924 0
vn 0.003921568 -0.9999924 0
vn 0.003921568 -0.9999924 0
vn 0.003921568 -0.9999924 0
vn 0.01176465 -0.01176465 -0.9998616
vn 0.01176465 -0.01176465 -0.9998616
vn 0.01176465 -0.01176465 -0.9998616
vn 0.01176465 -0.01176465 -0.9998616
vn 0.01176465 -0.01176465 -0.9998616
vn 0.01176465 -0.01176465 0.9998616
vn 0.01176465 -0.01176465 0.9998616
vn 0.01176465 -0.01176465 0.9998616
vn 0.01176465 -0.01176465 0.9998616
vn 0.01176465 -0.01176465 0.9998616
vn 0.8455815 -0.5338464 0
vn 0.8455815 -0.5338464 0
vn 0.8455815 -0.5338464 0
vn 0.8455815 -0.5338464 0
vn 0.01176465 -0.01176465 -0.9998616
vn 0.01176465 -0.01176465 -0.9998616
vn 0.01176465 -0.01176465 -0.9998616
vn 0.01176465 -0.01176465 -0.9998616
vn -0.9686199 0.2235277 -0.1086774
vn -0.9686199 0.2235277 -0.1086774
vn -0.9686199 0.2235277 -0.1086774
vn -0.9686199 0.2235277 -0.1086774
vn 0.01176465 -0.01176465 0.9998616
vn 0.01176465 -0.01176465 0.9998616
vn 0.01176465 -0.01176465 0.9998616
vn 0.01176465 -0.01176465 0.9998616
vn 0.003921568 -0.9999924 0
vn 0.003921568 -0.9999924 0
vn 0.003921568 -0.9999924 0
vn 0.003921568 -0.9999924 0
vn 0.01176465 -0.01176465 -0.9998616
vn 0.01176465 -0.01176465 -0.9998616
vn 0.01176465 -0.01176465 -0.9998616
vn 0.01176465 -0.01176465 -0.9998616
vn 0.01176465 -0.01176465 -0.9998616
vn 0.01176465 -0.01176465 0.9998616
vn 0.01176465 -0.01176465 0.9998616
vn 0.01176465 -0.01176465 0.9998616
vn 0.01176465 -0.01176465 0.9998616
vn 0.01176465 -0.01176465 0.9998616
vn -0.7882292 -0.6078385 -0.09605762
vn -0.7882292 -0.6078385 -0.09605762
vn -0.7882292 -0.6078385 -0.09605762
vn -0.7882292 -0.6078385 -0.09605762
vn 0.01176465 -0.01176465 -0.9998616
vn 0.01176465 -0.01176465 -0.9998616
vn 0.01176465 -0.01176465 -0.9998616
vn 0.01176465 -0.01176465 -0.9998616
vn 0.9583629 0.285553 0
vn 0.9583629 0.285553 0
vn 0.9583629 0.285553 0
vn 0.9583629 0.285553 0
vn 0.01176465 -0.01176465 0.9998616
vn 0.01176465 -0.01176465 0.9998616
vn 0.01176465 -0.01176465 0.9998616
vn 0.01176465 -0.01176465 0.9998616
vn 0.003921568 -0.9999924 0
vn 0.003921568 -0.9999924 0
vn 0.003921568 -0.9999924 0
vn 0.003921568 -0.9999924 0
vn 0.01176465 -0.01176465 -0.9998616
vn 0.01176465 -0.01176465 -0.9998616
vn 0.01176465 -0.01176465 -0.9998616
vn 0.01176465 -0.01176465 -0.9998616
vn 0.01176465 -0.01176465 -0.9998616
vn 0.01176465 -0.01176465 0.9998616
vn 0.01176465 -0.01176465 0.9998616
vn 0.01176465 -0.01176465 0.9998616
vn 0.01176465 -0.01176465 0.9998616
vn 0.01176465 -0.01176465 0.9998616
g DSJ_GTA_daoJu_zhuangShi_15_0
f 3/3/3 2/2/2 1/1/1
f 4/4/4 1/1/1 2/2/2
f 7/7/7 6/6/6 5/5/5
f 8/8/8 5/5/5 6/6/6
f 11/11/11 10/10/10 9/9/9
f 12/12/12 9/9/9 10/10/10
f 15/15/15 14/14/14 13/13/13
f 16/16/16 13/13/13 14/14/14
f 19/19/19 18/18/18 17/17/17
f 20/20/20 17/17/17 18/18/18
f 23/23/23 22/22/22 21/21/21
f 26/26/26 25/25/25 24/24/24
f 29/29/29 28/28/28 27/27/27
f 30/30/30 27/27/27 28/28/28
f 33/33/33 32/32/32 31/31/31
f 36/36/36 35/35/35 34/34/34
f 39/39/39 38/38/38 37/37/37
f 40/40/40 37/37/37 38/38/38
f 43/43/43 42/42/42 41/41/41
f 44/44/44 41/41/41 42/42/42
f 47/47/47 46/46/46 45/45/45
f 48/48/48 45/45/45 46/46/46
f 51/51/51 50/50/50 49/49/49
f 52/52/52 49/49/49 50/50/50
f 55/55/55 54/54/54 53/53/53
f 56/56/56 53/53/53 54/54/54
f 59/59/59 58/58/58 57/57/57
f 60/60/60 57/57/57 58/58/58
f 63/63/63 62/62/62 61/61/61
f 64/64/64 61/61/61 62/62/62
f 67/67/67 66/66/66 65/65/65
f 68/68/68 65/65/65 66/66/66
f 71/71/71 70/70/70 69/69/69
f 72/72/72 69/69/69 70/70/70
f 75/75/75 74/74/74 73/73/73
f 77/77/77 76/76/76 74/74/74
f 80/80/80 79/79/79 78/78/78
f 82/82/82 78/78/78 81/81/81
f 85/85/85 84/84/84 83/83/83
f 86/86/86 83/83/83 84/84/84
f 89/89/89 88/88/88 87/87/87
f 90/90/90 87/87/87 88/88/88
f 93/93/93 92/92/92 91/91/91
f 94/94/94 91/91/91 92/92/92
f 97/97/97 96/96/96 95/95/95
f 98/98/98 95/95/95 96/96/96
f 101/101/101 100/100/100 99/99/99
f 102/102/102 99/99/99 100/100/100
f 105/105/105 104/104/104 103/103/103
f 107/107/107 106/106/106 104/104/104
f 110/110/110 109/109/109 108/108/108
f 112/112/112 108/108/108 111/111/111
f 115/115/115 114/114/114 113/113/113
f 116/116/116 113/113/113 114/114/114
f 119/119/119 118/118/118 117/117/117
f 120/120/120 117/117/117 118/118/118
f 123/123/123 122/122/122 121/121/121
f 124/124/124 121/121/121 122/122/122
f 127/127/127 126/126/126 125/125/125
f 128/128/128 125/125/125 126/126/126
f 131/131/131 130/130/130 129/129/129
f 132/132/132 129/129/129 130/130/130
f 135/135/135 134/134/134 133/133/133
f 137/137/137 136/136/136 134/134/134
f 140/140/140 139/139/139 138/138/138
f 142/142/142 138/138/138 141/141/141
f 145/145/145 144/144/144 143/143/143
f 146/146/146 143/143/143 144/144/144
f 149/149/149 148/148/148 147/147/147
f 150/150/150 147/147/147 148/148/148
f 153/153/153 152/152/152 151/151/151
f 154/154/154 151/151/151 152/152/152
f 157/157/157 156/156/156 155/155/155
f 158/158/158 155/155/155 156/156/156
f 161/161/161 160/160/160 159/159/159
f 162/162/162 159/159/159 160/160/160
f 165/165/165 164/164/164 163/163/163
f 167/167/167 166/166/166 164/164/164
f 170/170/170 169/169/169 168/168/168
f 172/172/172 168/168/168 171/171/171
