g DSJ_GTA_daoJu_gongYe_08
v 2.533103 0.01908541 -1.697199
v 1.267938 0.4833193 -1.497817
v 1.267938 0.01908541 -1.697199
v 2.533103 0.4833193 -1.497825
v 2.533103 0.4833193 -1.497825
v 1.267938 0.5292058 -0.8485777
v 1.267938 0.4833193 -1.497817
v 2.533103 0.5292058 -0.8485856
v 1.267938 0.2740779 -4.768372E-06
v 2.533103 0.2740779 -4.768372E-06
v 1.267938 0.01908541 -1.697199
v 1.267938 0.5292058 -0.8485777
v 1.267938 0.01908541 -0.8485777
v 1.267938 0.4833193 -1.497817
v 1.267938 0.01908541 -4.768372E-06
v 1.267938 0.2740779 -4.768372E-06
v 2.533103 0.01908541 -0.8485856
v 2.533103 0.4833193 -1.497825
v 2.533103 0.01908541 -1.697199
v 2.533103 0.5292058 -0.8485856
v 2.533103 0.01908541 -4.768372E-06
v 2.533103 0.2740779 -4.768372E-06
v 2.533103 0.01908541 1.697173
v 1.267938 0.4833193 1.497808
v 2.533103 0.4833193 1.4978
v 1.267938 0.01908541 1.697173
v 2.533103 0.4833193 1.4978
v 1.267938 0.5292058 0.8485765
v 2.533103 0.5292058 0.8485684
v 1.267938 0.4833193 1.497808
v 1.267938 0.2740779 -4.768372E-06
v 2.533103 0.2740779 -4.768372E-06
v 1.267938 0.01908541 1.697173
v 1.267938 0.5292058 0.8485765
v 1.267938 0.4833193 1.497808
v 1.267938 0.01908541 0.8485765
v 1.267938 0.01908541 -4.768372E-06
v 1.267938 0.2740779 -4.768372E-06
v 2.533103 0.01908541 0.8485684
v 2.533103 0.4833193 1.4978
v 2.533103 0.5292058 0.8485684
v 2.533103 0.01908541 1.697173
v 2.533103 0.01908541 -4.768372E-06
v 2.533103 0.2740779 -4.768372E-06
v -1.009841 0.01908541 -1.697199
v -2.275014 0.4833193 -1.497825
v -2.275014 0.01908541 -1.697199
v -1.009841 0.4833193 -1.497817
v -1.009841 0.4833193 -1.497817
v -2.275014 0.5292058 -0.8485856
v -2.275014 0.4833193 -1.497825
v -1.009841 0.5292058 -0.8485777
v -2.275014 0.2740779 -4.768372E-06
v -1.009841 0.2740779 -4.768372E-06
v -2.275014 0.01908541 -1.697199
v -2.275014 0.5292058 -0.8485856
v -2.275014 0.01908541 -0.8485856
v -2.275014 0.4833193 -1.497825
v -2.275014 0.01908541 -4.768372E-06
v -2.275014 0.2740779 -4.768372E-06
v -1.009841 0.01908541 -0.8485777
v -1.009841 0.4833193 -1.497817
v -1.009841 0.01908541 -1.697199
v -1.009841 0.5292058 -0.8485777
v -1.009841 0.01908541 -4.768372E-06
v -1.009841 0.2740779 -4.768372E-06
v -1.009841 0.01908541 1.697173
v -2.275014 0.4833193 1.4978
v -1.009841 0.4833193 1.497808
v -2.275014 0.01908541 1.697173
v -1.009841 0.4833193 1.497808
v -2.275014 0.5292058 0.8485684
v -1.009841 0.5292058 0.8485765
v -2.275014 0.4833193 1.4978
v -2.275014 0.2740779 -4.768372E-06
v -1.009841 0.2740779 -4.768372E-06
v -2.275014 0.01908541 1.697173
v -2.275014 0.5292058 0.8485684
v -2.275014 0.4833193 1.4978
v -2.275014 0.01908541 0.8485684
v -2.275014 0.01908541 -4.768372E-06
v -2.275014 0.2740779 -4.768372E-06
v -1.009841 0.01908541 0.8485765
v -1.009841 0.4833193 1.497808
v -1.009841 0.5292058 0.8485765
v -1.009841 0.01908541 1.697173
v -1.009841 0.01908541 -4.768372E-06
v -1.009841 0.2740779 -4.768372E-06
v 4.768372E-06 1.586542 -1.496732
v 3.346153 2.644866 -1.058346
v 4.768372E-06 2.644866 -1.058346
v 3.346153 1.586542 -1.496732
v 3.346153 3.083253 -4.768372E-06
v 4.768372E-06 3.083253 -4.768372E-06
v 3.778684 1.586542 -1.240248
v 4.182496 1.586542 -4.768372E-06
v 3.778684 2.463514 -0.8769774
v 3.778684 2.463514 -0.8769774
v 4.182496 1.586542 -4.768372E-06
v 3.778684 2.826769 -4.768372E-06
v 3.346153 2.644866 -1.058346
v 3.778684 2.826769 -4.768372E-06
v 3.346153 3.083253 -4.768372E-06
v 3.778684 2.463514 -0.8769774
v 3.346153 1.586542 -1.496732
v 3.778684 2.463514 -0.8769774
v 3.346153 2.644866 -1.058346
v 3.778684 1.586542 -1.240248
v 4.768372E-06 1.586542 1.496715
v -3.346143 2.644866 1.058328
v 4.768372E-06 2.644866 1.058328
v -3.346143 1.586542 1.496715
v -3.346143 3.083253 -4.768372E-06
v 4.768372E-06 3.083253 -4.768372E-06
v -3.778658 1.586542 1.240223
v -4.182495 1.586542 -4.768372E-06
v -3.778658 2.463514 0.8769684
v -3.778658 2.463514 0.8769684
v -4.182495 1.586542 -4.768372E-06
v -3.778658 2.826769 -4.768372E-06
v -3.346143 2.644866 1.058328
v -3.778658 2.826769 -4.768372E-06
v -3.346143 3.083253 -4.768372E-06
v -3.778658 2.463514 0.8769684
v -3.346143 1.586542 1.496715
v -3.778658 2.463514 0.8769684
v -3.346143 2.644866 1.058328
v -3.778658 1.586542 1.240223
v 4.768372E-06 1.586542 -1.496732
v -3.346143 2.644866 -1.058346
v -3.346143 1.586542 -1.496732
v 4.768372E-06 2.644866 -1.058346
v -3.346143 3.083253 -4.768372E-06
v 4.768372E-06 3.083253 -4.768372E-06
v -3.778658 1.586542 -1.240248
v -3.778658 2.463514 -0.8769855
v -4.182495 1.586542 -4.768372E-06
v -3.778658 2.463514 -0.8769855
v -3.778658 2.826769 -4.768372E-06
v -4.182495 1.586542 -4.768372E-06
v -3.346143 2.644866 -1.058346
v -3.778658 2.826769 -4.768372E-06
v -3.778658 2.463514 -0.8769855
v -3.346143 3.083253 -4.768372E-06
v -3.346143 1.586542 -1.496732
v -3.778658 2.463514 -0.8769855
v -3.778658 1.586542 -1.240248
v -3.346143 2.644866 -1.058346
v 4.768372E-06 1.586542 1.496715
v 3.346153 2.644866 1.058328
v 3.346153 1.586542 1.496715
v 4.768372E-06 2.644866 1.058328
v 3.346153 3.083253 -4.768372E-06
v 4.768372E-06 3.083253 -4.768372E-06
v 3.778684 1.586542 1.240223
v 3.778684 2.463514 0.876976
v 4.182496 1.586542 -4.768372E-06
v 3.778684 2.463514 0.876976
v 3.778684 2.826769 -4.768372E-06
v 4.182496 1.586542 -4.768372E-06
v 3.346153 2.644866 1.058328
v 3.778684 2.826769 -4.768372E-06
v 3.778684 2.463514 0.876976
v 3.346153 3.083253 -4.768372E-06
v 3.346153 1.586542 1.496715
v 3.778684 2.463514 0.876976
v 3.778684 1.586542 1.240223
v 3.346153 2.644866 1.058328
v 4.768372E-06 1.586542 -1.496732
v 3.346153 0.5282164 -1.058346
v 3.346153 1.586542 -1.496732
v 4.768372E-06 0.5282164 -1.058346
v 3.346153 0.08984566 -4.768372E-06
v 4.768372E-06 0.08984566 -4.768372E-06
v 3.778684 1.586542 -1.240248
v 3.778684 0.7095766 -0.8769774
v 4.182496 1.586542 -4.768372E-06
v 3.778684 0.7095766 -0.8769774
v 3.778684 0.3463297 -4.768372E-06
v 4.182496 1.586542 -4.768372E-06
v 3.346153 0.5282164 -1.058346
v 3.778684 0.3463297 -4.768372E-06
v 3.778684 0.7095766 -0.8769774
v 3.346153 0.08984566 -4.768372E-06
v 3.346153 1.586542 -1.496732
v 3.778684 0.7095766 -0.8769774
v 3.778684 1.586542 -1.240248
v 3.346153 0.5282164 -1.058346
v 4.768372E-06 1.586542 1.496715
v -3.346143 0.5282164 1.058328
v -3.346143 1.586542 1.496715
v 4.768372E-06 0.5282164 1.058328
v -3.346143 0.08984566 -4.768372E-06
v 4.768372E-06 0.08984566 -4.768372E-06
v -3.778658 1.586542 1.240223
v -3.778658 0.7095766 0.8769684
v -4.182495 1.586542 -4.768372E-06
v -3.778658 0.7095766 0.8769684
v -3.778658 0.3463297 -4.768372E-06
v -4.182495 1.586542 -4.768372E-06
v -3.346143 0.5282164 1.058328
v -3.778658 0.3463297 -4.768372E-06
v -3.778658 0.7095766 0.8769684
v -3.346143 0.08984566 -4.768372E-06
v -3.346143 1.586542 1.496715
v -3.778658 0.7095766 0.8769684
v -3.778658 1.586542 1.240223
v -3.346143 0.5282164 1.058328
v 4.768372E-06 1.586542 -1.496732
v -3.346143 0.5282164 -1.058346
v 4.768372E-06 0.5282164 -1.058346
v -3.346143 1.586542 -1.496732
v -3.346143 0.08984566 -4.768372E-06
v 4.768372E-06 0.08984566 -4.768372E-06
v -3.778658 1.586542 -1.240248
v -4.182495 1.586542 -4.768372E-06
v -3.778658 0.7095766 -0.8769855
v -3.778658 0.7095766 -0.8769855
v -4.182495 1.586542 -4.768372E-06
v -3.778658 0.3463297 -4.768372E-06
v -3.346143 0.5282164 -1.058346
v -3.778658 0.3463297 -4.768372E-06
v -3.346143 0.08984566 -4.768372E-06
v -3.778658 0.7095766 -0.8769855
v -3.346143 1.586542 -1.496732
v -3.778658 0.7095766 -0.8769855
v -3.346143 0.5282164 -1.058346
v -3.778658 1.586542 -1.240248
v 4.768372E-06 1.586542 1.496715
v 3.346153 0.5282164 1.058328
v 4.768372E-06 0.5282164 1.058328
v 3.346153 1.586542 1.496715
v 3.346153 0.08984566 -4.768372E-06
v 4.768372E-06 0.08984566 -4.768372E-06
v 3.778684 1.586542 1.240223
v 4.182496 1.586542 -4.768372E-06
v 3.778684 0.7095766 0.876976
v 3.778684 0.7095766 0.876976
v 4.182496 1.586542 -4.768372E-06
v 3.778684 0.3463297 -4.768372E-06
v 3.346153 0.5282164 1.058328
v 3.778684 0.3463297 -4.768372E-06
v 3.346153 0.08984566 -4.768372E-06
v 3.778684 0.7095766 0.876976
v 3.346153 1.586542 1.496715
v 3.778684 0.7095766 0.876976
v 3.346153 0.5282164 1.058328
v 3.778684 1.586542 1.240223
v -1.502842 2.738075 0.3425484
v -1.845403 3.324046 0.4844522
v -1.502842 3.324046 0.3425484
v -1.845403 2.738075 0.4844522
v -1.360946 2.738075 -4.768372E-06
v -1.360946 3.324046 -4.768372E-06
v -1.845403 2.738075 0.4844522
v -2.187948 3.324046 0.3425484
v -1.845403 3.324046 0.4844522
v -2.187948 2.738075 0.3425484
v -2.329852 3.324046 -4.768372E-06
v -2.329852 2.738075 -4.768372E-06
v -2.329852 2.738075 -4.768372E-06
v -2.187948 3.324046 -0.3425817
v -2.329852 3.324046 -4.768372E-06
v -2.187948 2.738075 -0.3425817
v -2.187948 2.738075 -0.3425817
v -1.845403 3.324046 -0.4844773
v -2.187948 3.324046 -0.3425817
v -1.845403 2.738075 -0.4844773
v -1.502842 3.324046 -0.3425817
v -1.502842 2.738075 -0.3425817
v -1.502842 2.738075 -0.3425817
v -1.360946 3.324046 -4.768372E-06
v -1.502842 3.324046 -0.3425817
v -1.360946 2.738075 -4.768372E-06
v -1.845403 3.324046 -0.6758091
v -2.323246 3.596804 -0.477864
v -2.323246 3.324046 -0.477864
v -1.845403 3.596804 -0.6758091
v -2.323246 3.324046 -0.477864
v -2.521192 3.596804 -4.768372E-06
v -2.521192 3.324046 -4.768372E-06
v -2.323246 3.596804 -0.477864
v -2.521192 3.324046 -4.768372E-06
v -2.323246 3.596804 0.4778466
v -2.323246 3.324046 0.4778466
v -2.521192 3.596804 -4.768372E-06
v -2.323246 3.324046 0.4778466
v -1.845403 3.596804 0.675776
v -1.845403 3.324046 0.675776
v -2.323246 3.596804 0.4778466
v -1.845403 3.324046 0.675776
v -1.367544 3.596804 0.4778385
v -1.367544 3.324046 0.4778385
v -1.845403 3.596804 0.675776
v -1.367544 3.324046 0.4778385
v -1.169598 3.596804 -4.768372E-06
v -1.169598 3.324046 -4.768372E-06
v -1.367544 3.596804 0.4778385
v -1.169598 3.324046 -4.768372E-06
v -1.367544 3.596804 -0.4778719
v -1.367544 3.324046 -0.4778719
v -1.169598 3.596804 -4.768372E-06
v -1.367544 3.324046 -0.4778719
v -1.845403 3.596804 -0.6758091
v -1.845403 3.324046 -0.6758091
v -1.367544 3.596804 -0.4778719
v -2.323246 3.596804 -0.477864
v -1.845403 3.596804 -0.6758091
v -1.367544 3.596804 -0.4778719
v -1.169598 3.596804 -4.768372E-06
v -2.521192 3.596804 -4.768372E-06
v -2.323246 3.596804 0.4778466
v -1.367544 3.596804 0.4778385
v -1.845403 3.596804 0.675776
v -1.367544 3.324046 -0.4778719
v -1.845403 3.324046 -0.6758091
v -2.323246 3.324046 -0.477864
v -1.169598 3.324046 -4.768372E-06
v -2.521192 3.324046 -4.768372E-06
v -1.367544 3.324046 0.4778385
v -2.323246 3.324046 0.4778466
v -1.845403 3.324046 0.675776
vt 0.9068986 0.6588686
vt 0.9832869 0.6919158
vt 0.9832869 0.6588686
vt 0.9068986 0.6919158
vt 0.9682832 0.6685622
vt 0.9218893 0.6921375
vt 0.9218893 0.6685622
vt 0.9682832 0.6921375
vt 0.9218893 0.7242845
vt 0.9682832 0.7242845
vt 0.9031804 0.6597557
vt 0.9430118 0.6838399
vt 0.943064 0.659847
vt 0.9125087 0.6837485
vt 0.9829346 0.6599514
vt 0.9828955 0.6719413
vt 0.943064 0.659847
vt 0.9125087 0.6837485
vt 0.9031804 0.6597557
vt 0.9430118 0.6838399
vt 0.9829346 0.6599514
vt 0.9828955 0.6719413
vt 0.9068986 0.6588686
vt 0.9832869 0.6919158
vt 0.9068986 0.6919158
vt 0.9832869 0.6588686
vt 0.9682832 0.6685622
vt 0.9218893 0.6921375
vt 0.9682832 0.6921375
vt 0.9218893 0.6685622
vt 0.9218893 0.7242845
vt 0.9682832 0.7242845
vt 0.9031804 0.6597557
vt 0.9430118 0.6838399
vt 0.9125087 0.6837485
vt 0.943064 0.659847
vt 0.9829346 0.6599514
vt 0.9828955 0.6719413
vt 0.943064 0.659847
vt 0.9125087 0.6837485
vt 0.9430118 0.6838399
vt 0.9031804 0.6597557
vt 0.9829346 0.6599514
vt 0.9828955 0.6719413
vt 0.9068986 0.6588686
vt 0.9832869 0.6919158
vt 0.9832869 0.6588686
vt 0.9068986 0.6919158
vt 0.9682832 0.6685622
vt 0.9218893 0.6921375
vt 0.9218893 0.6685622
vt 0.9682832 0.6921375
vt 0.9218893 0.7242845
vt 0.9682832 0.7242845
vt 0.9031804 0.6597557
vt 0.9430118 0.6838399
vt 0.943064 0.659847
vt 0.9125087 0.6837485
vt 0.9829346 0.6599514
vt 0.9828955 0.6719413
vt 0.943064 0.659847
vt 0.9125087 0.6837485
vt 0.9031804 0.6597557
vt 0.9430118 0.6838399
vt 0.9829346 0.6599514
vt 0.9828955 0.6719413
vt 0.9068986 0.6588686
vt 0.9832869 0.6919158
vt 0.9068986 0.6919158
vt 0.9832869 0.6588686
vt 0.9682832 0.6685622
vt 0.9218893 0.6921375
vt 0.9682832 0.6921375
vt 0.9218893 0.6685622
vt 0.9218893 0.7242845
vt 0.9682832 0.7242845
vt 0.9031804 0.6597557
vt 0.9430118 0.6838399
vt 0.9125087 0.6837485
vt 0.943064 0.659847
vt 0.9829346 0.6599514
vt 0.9828955 0.6719413
vt 0.943064 0.659847
vt 0.9125087 0.6837485
vt 0.9430118 0.6838399
vt 0.9031804 0.6597557
vt 0.9829346 0.6599514
vt 0.9828955 0.6719413
vt 0.7337042 0.1282739
vt 0.493463 0.210507
vt 0.7337042 0.210507
vt 0.493463 0.1282739
vt 0.493463 0.2927531
vt 0.7337042 0.2927531
vt 0.5979537 0.213038
vt 0.6291221 0.1347059
vt 0.6592991 0.2134294
vt 0.6592991 0.2134294
vt 0.6291221 0.1347059
vt 0.5979537 0.213038
vt 0.7062018 0.2925835
vt 0.5313505 0.2105853
vt 0.5151204 0.2928836
vt 0.6896979 0.2103243
vt 0.5151204 0.2928836
vt 0.6896979 0.2103243
vt 0.7062018 0.2925835
vt 0.5313505 0.2105853
vt 0.7337042 0.1282739
vt 0.493463 0.210507
vt 0.7337042 0.210507
vt 0.493463 0.1282739
vt 0.493463 0.2927531
vt 0.7337042 0.2927531
vt 0.5979537 0.213038
vt 0.6291221 0.1347059
vt 0.6592991 0.2134294
vt 0.6592991 0.2134294
vt 0.6291221 0.1347059
vt 0.5979537 0.213038
vt 0.7062018 0.2925835
vt 0.5313505 0.2105853
vt 0.5151204 0.2928836
vt 0.6896979 0.2103243
vt 0.5151204 0.2928836
vt 0.6896979 0.2103243
vt 0.7062018 0.2925835
vt 0.5313505 0.2105853
vt 0.7337042 0.1282739
vt 0.493463 0.210507
vt 0.493463 0.1282739
vt 0.7337042 0.210507
vt 0.493463 0.2927531
vt 0.7337042 0.2927531
vt 0.5979537 0.213038
vt 0.6592991 0.2134294
vt 0.6291221 0.1347059
vt 0.6592991 0.2134294
vt 0.5979537 0.213038
vt 0.6291221 0.1347059
vt 0.7062018 0.2925835
vt 0.5313505 0.2105853
vt 0.6896979 0.2103243
vt 0.5151204 0.2928836
vt 0.5151204 0.2928836
vt 0.6896979 0.2103243
vt 0.5313505 0.2105853
vt 0.7062018 0.2925835
vt 0.7337042 0.1282739
vt 0.493463 0.210507
vt 0.493463 0.1282739
vt 0.7337042 0.210507
vt 0.493463 0.2927531
vt 0.7337042 0.2927531
vt 0.5979537 0.213038
vt 0.6592991 0.2134294
vt 0.6291221 0.1347059
vt 0.6592991 0.2134294
vt 0.5979537 0.213038
vt 0.6291221 0.1347059
vt 0.7062018 0.2925835
vt 0.5313505 0.2105853
vt 0.6896979 0.2103243
vt 0.5151204 0.2928836
vt 0.5151204 0.2928836
vt 0.6896979 0.2103243
vt 0.5313505 0.2105853
vt 0.7062018 0.2925835
vt 0.7266459 0.2933272
vt 0.5005082 0.2159083
vt 0.5005082 0.2933272
vt 0.7266459 0.2159083
vt 0.5005082 0.1384894
vt 0.7266459 0.1384894
vt 0.6585946 0.2147211
vt 0.5972492 0.2132859
vt 0.6297745 0.1355017
vt 0.5972492 0.2132859
vt 0.6585946 0.2147211
vt 0.6297745 0.1355017
vt 0.7046101 0.2188047
vt 0.5329422 0.1303874
vt 0.6911851 0.1359975
vt 0.5136461 0.2120204
vt 0.5136461 0.2120204
vt 0.6911851 0.1359975
vt 0.5329422 0.1303874
vt 0.7046101 0.2188047
vt 0.7266459 0.2933272
vt 0.5005082 0.2159083
vt 0.5005082 0.2933272
vt 0.7266459 0.2159083
vt 0.5005082 0.1384894
vt 0.7266459 0.1384894
vt 0.6585946 0.2147211
vt 0.5972492 0.2132859
vt 0.6297745 0.1355017
vt 0.5972492 0.2132859
vt 0.6585946 0.2147211
vt 0.6297745 0.1355017
vt 0.7046101 0.2188047
vt 0.5329422 0.1303874
vt 0.6911851 0.1359975
vt 0.5136461 0.2120204
vt 0.5136461 0.2120204
vt 0.6911851 0.1359975
vt 0.5329422 0.1303874
vt 0.7046101 0.2188047
vt 0.7266459 0.2933272
vt 0.5005082 0.2159083
vt 0.7266459 0.2159083
vt 0.5005082 0.2933272
vt 0.5005082 0.1384894
vt 0.7266459 0.1384894
vt 0.6585946 0.2147211
vt 0.6297745 0.1355017
vt 0.5972492 0.2132859
vt 0.5972492 0.2132859
vt 0.6297745 0.1355017
vt 0.6585946 0.2147211
vt 0.7046101 0.2188047
vt 0.5329422 0.1303874
vt 0.5136461 0.2120204
vt 0.6911851 0.1359975
vt 0.5136461 0.2120204
vt 0.6911851 0.1359975
vt 0.7046101 0.2188047
vt 0.5329422 0.1303874
vt 0.7266459 0.2933272
vt 0.5005082 0.2159083
vt 0.7266459 0.2159083
vt 0.5005082 0.2933272
vt 0.5005082 0.1384894
vt 0.7266459 0.1384894
vt 0.6585946 0.2147211
vt 0.6297745 0.1355017
vt 0.5972492 0.2132859
vt 0.5972492 0.2132859
vt 0.6297745 0.1355017
vt 0.6585946 0.2147211
vt 0.7046101 0.2188047
vt 0.5329422 0.1303874
vt 0.5136461 0.2120204
vt 0.6911851 0.1359975
vt 0.5136461 0.2120204
vt 0.6911851 0.1359975
vt 0.7046101 0.2188047
vt 0.5329422 0.1303874
vt 0.7096983 0.1843354
vt 0.6828613 0.2916833
vt 0.7096983 0.2916833
vt 0.6828613 0.1843354
vt 0.7365353 0.1843354
vt 0.7365353 0.2916833
vt 0.6828613 0.1843354
vt 0.6560243 0.2916833
vt 0.6828613 0.2916833
vt 0.6560243 0.1843354
vt 0.6291873 0.2916833
vt 0.6291873 0.1843354
vt 0.6291873 0.1843354
vt 0.6023635 0.2916833
vt 0.6291873 0.2916833
vt 0.6023635 0.1843354
vt 0.6023635 0.1843354
vt 0.5755265 0.2916833
vt 0.6023635 0.2916833
vt 0.5755265 0.1843354
vt 0.5486895 0.2916833
vt 0.5486895 0.1843354
vt 0.5486895 0.1843354
vt 0.5218395 0.2916833
vt 0.5486895 0.2916833
vt 0.5218395 0.1843354
vt 0.939711 0.7267765
vt 0.8873417 0.6743941
vt 0.8873417 0.7267765
vt 0.939711 0.6743941
vt 0.939711 0.7267765
vt 0.8873417 0.6743941
vt 0.8873417 0.7267765
vt 0.939711 0.6743941
vt 0.939711 0.7267765
vt 0.8873417 0.6743941
vt 0.8873417 0.7267765
vt 0.939711 0.6743941
vt 0.939711 0.7267765
vt 0.8873417 0.6743941
vt 0.8873417 0.7267765
vt 0.939711 0.6743941
vt 0.939711 0.7267765
vt 0.8873417 0.6743941
vt 0.8873417 0.7267765
vt 0.939711 0.6743941
vt 0.939711 0.7267765
vt 0.8873417 0.6743941
vt 0.8873417 0.7267765
vt 0.939711 0.6743941
vt 0.939711 0.7267765
vt 0.8873417 0.6743941
vt 0.8873417 0.7267765
vt 0.939711 0.6743941
vt 0.939711 0.7267765
vt 0.8873417 0.6743941
vt 0.8873417 0.7267765
vt 0.939711 0.6743941
vt 0.937206 0.7064236
vt 0.937206 0.6860056
vt 0.9227765 0.6715629
vt 0.9023453 0.6715629
vt 0.9227765 0.7208402
vt 0.9023453 0.7208402
vt 0.8879288 0.6860056
vt 0.8879288 0.7064236
vt 0.9022149 0.6714064
vt 0.8876026 0.6860056
vt 0.8876026 0.7066585
vt 0.9228808 0.6714064
vt 0.9022149 0.7212707
vt 0.937467 0.6860187
vt 0.9228808 0.7212707
vt 0.937467 0.7066585
vn 0.01176465 0.3882322 -0.9214864
vn 0.01176465 0.3882322 -0.9214864
vn 0.01176465 0.3882322 -0.9214864
vn 0.01176465 0.3882322 -0.9214864
vn 0.01176465 0.9921492 -0.124505
vn 0.01176465 0.9921492 0.124505
vn 0.01176465 0.9921492 -0.124505
vn 0.01176465 0.9921492 0.124505
vn 0.003921568 0.9999923 -0.000345267
vn 0.003921568 0.9999923 -0.000345267
vn -0.9999923 -0.003921568 -0.0003442513
vn -0.9999923 -0.003921568 -0.0003442513
vn -0.9999923 -0.003921568 -0.0003442513
vn -0.9999923 -0.003921568 -0.0003442513
vn -0.9999923 -0.003921568 -0.0003442513
vn -0.9999923 -0.003921568 -0.0003442513
vn 0.9999924 -0.003921568 0
vn 0.9999924 -0.003921568 0
vn 0.9999924 -0.003921568 0
vn 0.9999924 -0.003921568 0
vn 0.9999924 -0.003921568 0
vn 0.9999924 -0.003921568 0
vn 0.01176465 0.3882322 0.9214864
vn 0.01176465 0.3882322 0.9214864
vn 0.01176465 0.3882322 0.9214864
vn 0.01176465 0.3882322 0.9214864
vn 0.01176465 0.9921492 0.124505
vn 0.01176465 0.9921492 -0.124505
vn 0.01176465 0.9921492 -0.124505
vn 0.01176465 0.9921492 0.124505
vn 0.003921568 0.9999923 -0.000345267
vn 0.003921568 0.9999923 -0.000345267
vn -0.9999923 -0.003921568 -0.0003442513
vn -0.9999923 -0.003921568 -0.0003442513
vn -0.9999923 -0.003921568 -0.0003442513
vn -0.9999923 -0.003921568 -0.0003442513
vn -0.9999923 -0.003921568 -0.0003442513
vn -0.9999923 -0.003921568 -0.0003442513
vn 0.9999924 -0.003921568 0
vn 0.9999924 -0.003921568 0
vn 0.9999924 -0.003921568 0
vn 0.9999924 -0.003921568 0
vn 0.9999924 -0.003921568 0
vn 0.9999924 -0.003921568 0
vn 0.01176465 0.3882322 -0.9214864
vn 0.01176465 0.3882322 -0.9214864
vn 0.01176465 0.3882322 -0.9214864
vn 0.01176465 0.3882322 -0.9214864
vn 0.01176465 0.9921492 -0.124505
vn 0.01176465 0.9921492 0.124505
vn 0.01176465 0.9921492 -0.124505
vn 0.01176465 0.9921492 0.124505
vn 0.003921568 0.9999923 -0.000345267
vn 0.003921568 0.9999923 -0.000345267
vn -0.9999923 -0.003921568 -0.0003442513
vn -0.9999923 -0.003921568 -0.0003442513
vn -0.9999923 -0.003921568 -0.0003442513
vn -0.9999923 -0.003921568 -0.0003442513
vn -0.9999923 -0.003921568 -0.0003442513
vn -0.9999923 -0.003921568 -0.0003442513
vn 0.9999924 -0.003921568 0
vn 0.9999924 -0.003921568 0
vn 0.9999924 -0.003921568 0
vn 0.9999924 -0.003921568 0
vn 0.9999924 -0.003921568 0
vn 0.9999924 -0.003921568 0
vn 0.01176465 0.3882322 0.9214864
vn 0.01176465 0.3882322 0.9214864
vn 0.01176465 0.3882322 0.9214864
vn 0.01176465 0.3882322 0.9214864
vn 0.01176465 0.9921492 0.124505
vn 0.01176465 0.9921492 -0.124505
vn 0.01176465 0.9921492 -0.124505
vn 0.01176465 0.9921492 0.124505
vn 0.003921568 0.9999923 -0.000345267
vn 0.003921568 0.9999923 -0.000345267
vn -0.9999923 -0.003921568 -0.0003442513
vn -0.9999923 -0.003921568 -0.0003442513
vn -0.9999923 -0.003921568 -0.0003442513
vn -0.9999923 -0.003921568 -0.0003442513
vn -0.9999923 -0.003921568 -0.0003442513
vn -0.9999923 -0.003921568 -0.0003442513
vn 0.9999924 -0.003921568 0
vn 0.9999924 -0.003921568 0
vn 0.9999924 -0.003921568 0
vn 0.9999924 -0.003921568 0
vn 0.9999924 -0.003921568 0
vn 0.9999924 -0.003921568 0
vn 0.01176465 -0.01176465 -0.9998616
vn 0.2627431 0.6784261 -0.6860787
vn 0.01176465 0.7019553 -0.7121239
vn 0.2627431 -0.01176465 -0.9647941
vn 0.2627431 0.9607769 -0.08873428
vn 0.003921568 0.9999923 -0.000345267
vn 0.7490139 -0.01176465 -0.6624498
vn 0.9999924 -0.003921568 0
vn 0.7490139 0.4745061 -0.462409
vn 0.7490139 0.4745061 -0.462409
vn 0.9999924 -0.003921568 0
vn 0.7450373 0.6670228 0
vn 0.2627431 0.6784261 -0.6860787
vn 0.7450373 0.6670228 0
vn 0.2627431 0.9607769 -0.08873428
vn 0.7490139 0.4745061 -0.462409
vn 0.2627431 -0.01176465 -0.9647941
vn 0.7490139 0.4745061 -0.462409
vn 0.2627431 0.6784261 -0.6860787
vn 0.7490139 -0.01176465 -0.6624498
vn 0.01176465 -0.01176465 0.9998616
vn -0.2470568 0.6784261 0.6918821
vn 0.01176465 0.7019553 0.7121239
vn -0.2470568 -0.01176465 0.9689296
vn -0.2470568 0.9607769 0.1259787
vn 0.003921568 0.9999923 -0.000345267
vn -0.7333276 -0.01176465 0.6797736
vn -0.9999923 -0.003921568 -0.0003442513
vn -0.7333276 0.4745061 0.486903
vn -0.7333276 0.4745061 0.486903
vn -0.9999923 -0.003921568 -0.0003442513
vn -0.7333276 0.670583 0.1120222
vn -0.2470568 0.6784261 0.6918821
vn -0.7333276 0.670583 0.1120222
vn -0.2470568 0.9607769 0.1259787
vn -0.7333276 0.4745061 0.486903
vn -0.2470568 -0.01176465 0.9689296
vn -0.7333276 0.4745061 0.486903
vn -0.2470568 0.6784261 0.6918821
vn -0.7333276 -0.01176465 0.6797736
vn 0.01176465 -0.01176465 -0.9998616
vn -0.2470568 0.6784261 -0.6918821
vn -0.2470568 -0.01176465 -0.9689296
vn 0.01176465 0.7019553 -0.7121239
vn -0.2470568 0.9607769 0.1259787
vn 0.003921568 0.9999923 -0.000345267
vn -0.7333276 -0.01176465 -0.6797736
vn -0.7333276 0.4745061 -0.486903
vn -0.9999923 -0.003921568 -0.0003442513
vn -0.7333276 0.4745061 -0.486903
vn -0.7333276 0.670583 0.1120222
vn -0.9999923 -0.003921568 -0.0003442513
vn -0.2470568 0.6784261 -0.6918821
vn -0.7333276 0.670583 0.1120222
vn -0.7333276 0.4745061 -0.486903
vn -0.2470568 0.9607769 0.1259787
vn -0.2470568 -0.01176465 -0.9689296
vn -0.7333276 0.4745061 -0.486903
vn -0.7333276 -0.01176465 -0.6797736
vn -0.2470568 0.6784261 -0.6918821
vn 0.01176465 -0.01176465 0.9998616
vn 0.2627431 0.6784261 0.6860787
vn 0.2627431 -0.01176465 0.9647941
vn 0.01176465 0.7019553 0.7121239
vn 0.2627431 0.9607769 -0.08873428
vn 0.003921568 0.9999923 -0.000345267
vn 0.7490139 -0.01176465 0.6624498
vn 0.7490139 0.4745061 0.462409
vn 0.9999924 -0.003921568 0
vn 0.7490139 0.4745061 0.462409
vn 0.7450373 0.6670228 0
vn 0.9999924 -0.003921568 0
vn 0.2627431 0.6784261 0.6860787
vn 0.7450373 0.6670228 0
vn 0.7490139 0.4745061 0.462409
vn 0.2627431 0.9607769 -0.08873428
vn 0.2627431 -0.01176465 0.9647941
vn 0.7490139 0.4745061 0.462409
vn 0.7490139 -0.01176465 0.6624498
vn 0.2627431 0.6784261 0.6860787
vn 0.01176465 -0.01176465 -0.9998616
vn 0.2627431 -0.6941124 -0.6702045
vn 0.2627431 -0.01176465 -0.9647941
vn 0.01176465 -0.7176416 -0.6963133
vn 0.2544933 -0.9670746 0
vn 0.003921568 -0.9999924 0
vn 0.7490139 -0.01176465 -0.6624498
vn 0.7490139 -0.4901924 -0.4457462
vn 0.9999924 -0.003921568 0
vn 0.7490139 -0.4901924 -0.4457462
vn 0.73764 -0.6751943 0
vn 0.9999924 -0.003921568 0
vn 0.2627431 -0.6941124 -0.6702045
vn 0.73764 -0.6751943 0
vn 0.7490139 -0.4901924 -0.4457462
vn 0.2544933 -0.9670746 0
vn 0.2627431 -0.01176465 -0.9647941
vn 0.7490139 -0.4901924 -0.4457462
vn 0.7490139 -0.01176465 -0.6624498
vn 0.2627431 -0.6941124 -0.6702045
vn 0.01176465 -0.01176465 0.9998616
vn -0.2470568 -0.6941124 0.6761442
vn -0.2470568 -0.01176465 0.9689296
vn 0.01176465 -0.7176416 0.6963133
vn -0.2452828 -0.9694515 0
vn 0.003921568 -0.9999924 0
vn -0.7333276 -0.01176465 0.6797736
vn -0.7333276 -0.4901924 0.4711072
vn -0.9999923 -0.003921568 -0.0003442513
vn -0.7333276 -0.4901924 0.4711072
vn -0.7301457 -0.6832916 0
vn -0.9999923 -0.003921568 -0.0003442513
vn -0.2470568 -0.6941124 0.6761442
vn -0.7301457 -0.6832916 0
vn -0.7333276 -0.4901924 0.4711072
vn -0.2452828 -0.9694515 0
vn -0.2470568 -0.01176465 0.9689296
vn -0.7333276 -0.4901924 0.4711072
vn -0.7333276 -0.01176465 0.6797736
vn -0.2470568 -0.6941124 0.6761442
vn 0.01176465 -0.01176465 -0.9998616
vn -0.2470568 -0.6941124 -0.6761442
vn 0.01176465 -0.7176416 -0.6963133
vn -0.2470568 -0.01176465 -0.9689296
vn -0.2452828 -0.9694515 0
vn 0.003921568 -0.9999924 0
vn -0.7333276 -0.01176465 -0.6797736
vn -0.9999923 -0.003921568 -0.0003442513
vn -0.7333276 -0.4901924 -0.4711072
vn -0.7333276 -0.4901924 -0.4711072
vn -0.9999923 -0.003921568 -0.0003442513
vn -0.7301457 -0.6832916 0
vn -0.2470568 -0.6941124 -0.6761442
vn -0.7301457 -0.6832916 0
vn -0.2452828 -0.9694515 0
vn -0.7333276 -0.4901924 -0.4711072
vn -0.2470568 -0.01176465 -0.9689296
vn -0.7333276 -0.4901924 -0.4711072
vn -0.2470568 -0.6941124 -0.6761442
vn -0.7333276 -0.01176465 -0.6797736
vn 0.01176465 -0.01176465 0.9998616
vn 0.2627431 -0.6941124 0.6702045
vn 0.01176465 -0.7176416 0.6963133
vn 0.2627431 -0.01176465 0.9647941
vn 0.2544933 -0.9670746 0
vn 0.003921568 -0.9999924 0
vn 0.7490139 -0.01176465 0.6624498
vn 0.9999924 -0.003921568 0
vn 0.7490139 -0.4901924 0.4457462
vn 0.7490139 -0.4901924 0.4457462
vn 0.9999924 -0.003921568 0
vn 0.73764 -0.6751943 0
vn 0.2627431 -0.6941124 0.6702045
vn 0.73764 -0.6751943 0
vn 0.2544933 -0.9670746 0
vn 0.7490139 -0.4901924 0.4457462
vn 0.2627431 -0.01176465 0.9647941
vn 0.7490139 -0.4901924 0.4457462
vn 0.2627431 -0.6941124 0.6702045
vn 0.7490139 -0.01176465 0.6624498
vn 0.7176416 -0.01176465 0.6963133
vn 0.3960754 -0.01176465 0.9181426
vn 0.7176416 -0.01176465 0.6963133
vn 0.3960754 -0.01176465 0.9181426
vn 0.9999924 -0.003921568 0
vn 0.9999924 -0.003921568 0
vn -0.3803892 -0.01176465 0.9247517
vn -0.7019553 -0.01176465 0.7121239
vn -0.3803892 -0.01176465 0.9247517
vn -0.7019553 -0.01176465 0.7121239
vn -0.9215615 -0.01176465 0.3880541
vn -0.9215615 -0.01176465 0.3880541
vn -0.9215615 -0.01176465 -0.3880541
vn -0.9215615 -0.01176465 -0.3880541
vn -0.9215615 -0.01176465 -0.3880541
vn -0.9215615 -0.01176465 -0.3880541
vn -0.3803892 -0.01176465 -0.9247517
vn 0.01176465 -0.01176465 -0.9998616
vn -0.3803892 -0.01176465 -0.9247517
vn 0.01176465 -0.01176465 -0.9998616
vn 0.3960754 -0.01176465 -0.9181426
vn 0.3960754 -0.01176465 -0.9181426
vn 0.9372478 -0.01176465 -0.3484656
vn 0.9999924 -0.003921568 0
vn 0.9372478 -0.01176465 -0.3484656
vn 0.9999924 -0.003921568 0
vn -0.3803892 -0.01176465 -0.9247517
vn -0.7019553 -0.01176465 -0.7121239
vn -0.7019553 -0.01176465 -0.7121239
vn -0.3803892 -0.01176465 -0.9247517
vn -0.7019553 -0.01176465 -0.7121239
vn -0.9215615 -0.01176465 -0.3880541
vn -0.9215615 -0.01176465 -0.3880541
vn -0.7019553 -0.01176465 -0.7121239
vn -0.9215615 -0.01176465 0.3880541
vn -0.7019553 -0.01176465 0.7121239
vn -0.7019553 -0.01176465 0.7121239
vn -0.9215615 -0.01176465 0.3880541
vn -0.7019553 -0.01176465 0.7121239
vn -0.3803892 -0.01176465 0.9247517
vn -0.3803892 -0.01176465 0.9247517
vn -0.7019553 -0.01176465 0.7121239
vn 0.3960754 -0.01176465 0.9181426
vn 0.7176416 -0.01176465 0.6963133
vn 0.7176416 -0.01176465 0.6963133
vn 0.3960754 -0.01176465 0.9181426
vn 0.7176416 -0.01176465 0.6963133
vn 0.9372478 -0.01176465 0.3484656
vn 0.9372478 -0.01176465 0.3484656
vn 0.7176416 -0.01176465 0.6963133
vn 0.9372478 -0.01176465 -0.3484656
vn 0.7176416 -0.01176465 -0.6963133
vn 0.7176416 -0.01176465 -0.6963133
vn 0.9372478 -0.01176465 -0.3484656
vn 0.7176416 -0.01176465 -0.6963133
vn 0.3960754 -0.01176465 -0.9181426
vn 0.3960754 -0.01176465 -0.9181426
vn 0.7176416 -0.01176465 -0.6963133
vn 0.003921568 0.9999923 -0.000345267
vn 0.003921568 0.9999923 -0.000345267
vn 0.003921568 0.9999923 -0.000345267
vn 0.003921568 0.9999923 -0.000345267
vn 0.003921568 0.9999923 -0.000345267
vn 0.003921568 0.9999923 -0.000345267
vn 0.003921568 0.9999923 -0.000345267
vn 0.003921568 0.9999923 -0.000345267
vn 0.003921568 -0.9999924 0
vn 0.003921568 -0.9999924 0
vn 0.003921568 -0.9999924 0
vn 0.003921568 -0.9999924 0
vn 0.003921568 -0.9999924 0
vn 0.003921568 -0.9999924 0
vn 0.003921568 -0.9999924 0
vn 0.003921568 -0.9999924 0
g DSJ_GTA_daoJu_gongYe_08_0
f 3/3/3 2/2/2 1/1/1
f 2/2/2 4/4/4 1/1/1
f 7/7/7 6/6/6 5/5/5
f 6/6/6 8/8/8 5/5/5
f 6/6/6 9/9/9 8/8/8
f 9/9/9 10/10/10 8/8/8
f 13/13/13 12/12/12 11/11/11
f 12/12/12 14/14/14 11/11/11
f 13/13/13 15/15/15 12/12/12
f 15/15/15 16/16/16 12/12/12
f 19/19/19 18/18/18 17/17/17
f 18/18/18 20/20/20 17/17/17
f 17/17/17 20/20/20 21/21/21
f 20/20/20 22/22/22 21/21/21
f 25/25/25 24/24/24 23/23/23
f 24/24/24 26/26/26 23/23/23
f 29/29/29 28/28/28 27/27/27
f 28/28/28 30/30/30 27/27/27
f 31/31/31 28/28/28 29/29/29
f 32/32/32 31/31/31 29/29/29
f 35/35/35 34/34/34 33/33/33
f 34/34/34 36/36/36 33/33/33
f 37/37/37 36/36/36 34/34/34
f 38/38/38 37/37/37 34/34/34
f 41/41/41 40/40/40 39/39/39
f 40/40/40 42/42/42 39/39/39
f 41/41/41 39/39/39 43/43/43
f 44/44/44 41/41/41 43/43/43
f 47/47/47 46/46/46 45/45/45
f 46/46/46 48/48/48 45/45/45
f 51/51/51 50/50/50 49/49/49
f 50/50/50 52/52/52 49/49/49
f 50/50/50 53/53/53 52/52/52
f 53/53/53 54/54/54 52/52/52
f 57/57/57 56/56/56 55/55/55
f 56/56/56 58/58/58 55/55/55
f 57/57/57 59/59/59 56/56/56
f 59/59/59 60/60/60 56/56/56
f 63/63/63 62/62/62 61/61/61
f 62/62/62 64/64/64 61/61/61
f 61/61/61 64/64/64 65/65/65
f 64/64/64 66/66/66 65/65/65
f 69/69/69 68/68/68 67/67/67
f 68/68/68 70/70/70 67/67/67
f 73/73/73 72/72/72 71/71/71
f 72/72/72 74/74/74 71/71/71
f 75/75/75 72/72/72 73/73/73
f 76/76/76 75/75/75 73/73/73
f 79/79/79 78/78/78 77/77/77
f 78/78/78 80/80/80 77/77/77
f 81/81/81 80/80/80 78/78/78
f 82/82/82 81/81/81 78/78/78
f 85/85/85 84/84/84 83/83/83
f 84/84/84 86/86/86 83/83/83
f 85/85/85 83/83/83 87/87/87
f 88/88/88 85/85/85 87/87/87
f 91/91/91 90/90/90 89/89/89
f 90/90/90 92/92/92 89/89/89
f 93/93/93 90/90/90 91/91/91
f 94/94/94 93/93/93 91/91/91
f 97/97/97 96/96/96 95/95/95
f 100/100/100 99/99/99 98/98/98
f 103/103/103 102/102/102 101/101/101
f 102/102/102 104/104/104 101/101/101
f 107/107/107 106/106/106 105/105/105
f 106/106/106 108/108/108 105/105/105
f 111/111/111 110/110/110 109/109/109
f 110/110/110 112/112/112 109/109/109
f 113/113/113 110/110/110 111/111/111
f 114/114/114 113/113/113 111/111/111
f 117/117/117 116/116/116 115/115/115
f 120/120/120 119/119/119 118/118/118
f 123/123/123 122/122/122 121/121/121
f 122/122/122 124/124/124 121/121/121
f 127/127/127 126/126/126 125/125/125
f 126/126/126 128/128/128 125/125/125
f 131/131/131 130/130/130 129/129/129
f 130/130/130 132/132/132 129/129/129
f 130/130/130 133/133/133 132/132/132
f 133/133/133 134/134/134 132/132/132
f 137/137/137 136/136/136 135/135/135
f 140/140/140 139/139/139 138/138/138
f 143/143/143 142/142/142 141/141/141
f 142/142/142 144/144/144 141/141/141
f 147/147/147 146/146/146 145/145/145
f 146/146/146 148/148/148 145/145/145
f 151/151/151 150/150/150 149/149/149
f 150/150/150 152/152/152 149/149/149
f 150/150/150 153/153/153 152/152/152
f 153/153/153 154/154/154 152/152/152
f 157/157/157 156/156/156 155/155/155
f 160/160/160 159/159/159 158/158/158
f 163/163/163 162/162/162 161/161/161
f 162/162/162 164/164/164 161/161/161
f 167/167/167 166/166/166 165/165/165
f 166/166/166 168/168/168 165/165/165
f 171/171/171 170/170/170 169/169/169
f 170/170/170 172/172/172 169/169/169
f 170/170/170 173/173/173 172/172/172
f 173/173/173 174/174/174 172/172/172
f 177/177/177 176/176/176 175/175/175
f 180/180/180 179/179/179 178/178/178
f 183/183/183 182/182/182 181/181/181
f 182/182/182 184/184/184 181/181/181
f 187/187/187 186/186/186 185/185/185
f 186/186/186 188/188/188 185/185/185
f 191/191/191 190/190/190 189/189/189
f 190/190/190 192/192/192 189/189/189
f 190/190/190 193/193/193 192/192/192
f 193/193/193 194/194/194 192/192/192
f 197/197/197 196/196/196 195/195/195
f 200/200/200 199/199/199 198/198/198
f 203/203/203 202/202/202 201/201/201
f 202/202/202 204/204/204 201/201/201
f 207/207/207 206/206/206 205/205/205
f 206/206/206 208/208/208 205/205/205
f 211/211/211 210/210/210 209/209/209
f 210/210/210 212/212/212 209/209/209
f 213/213/213 210/210/210 211/211/211
f 214/214/214 213/213/213 211/211/211
f 217/217/217 216/216/216 215/215/215
f 220/220/220 219/219/219 218/218/218
f 223/223/223 222/222/222 221/221/221
f 222/222/222 224/224/224 221/221/221
f 227/227/227 226/226/226 225/225/225
f 226/226/226 228/228/228 225/225/225
f 231/231/231 230/230/230 229/229/229
f 230/230/230 232/232/232 229/229/229
f 233/233/233 230/230/230 231/231/231
f 234/234/234 233/233/233 231/231/231
f 237/237/237 236/236/236 235/235/235
f 240/240/240 239/239/239 238/238/238
f 243/243/243 242/242/242 241/241/241
f 242/242/242 244/244/244 241/241/241
f 247/247/247 246/246/246 245/245/245
f 246/246/246 248/248/248 245/245/245
f 251/251/251 250/250/250 249/249/249
f 250/250/250 252/252/252 249/249/249
f 251/251/251 249/249/249 253/253/253
f 254/254/254 251/251/251 253/253/253
f 257/257/257 256/256/256 255/255/255
f 256/256/256 258/258/258 255/255/255
f 256/256/256 259/259/259 258/258/258
f 259/259/259 260/260/260 258/258/258
f 263/263/263 262/262/262 261/261/261
f 262/262/262 264/264/264 261/261/261
f 267/267/267 266/266/266 265/265/265
f 266/266/266 268/268/268 265/265/265
f 266/266/266 269/269/269 268/268/268
f 269/269/269 270/270/270 268/268/268
f 273/273/273 272/272/272 271/271/271
f 272/272/272 274/274/274 271/271/271
f 277/277/277 276/276/276 275/275/275
f 276/276/276 278/278/278 275/275/275
f 281/281/281 280/280/280 279/279/279
f 280/280/280 282/282/282 279/279/279
f 285/285/285 284/284/284 283/283/283
f 284/284/284 286/286/286 283/283/283
f 289/289/289 288/288/288 287/287/287
f 288/288/288 290/290/290 287/287/287
f 293/293/293 292/292/292 291/291/291
f 292/292/292 294/294/294 291/291/291
f 297/297/297 296/296/296 295/295/295
f 296/296/296 298/298/298 295/295/295
f 301/301/301 300/300/300 299/299/299
f 300/300/300 302/302/302 299/299/299
f 305/305/305 304/304/304 303/303/303
f 304/304/304 306/306/306 303/303/303
f 309/309/309 308/308/308 307/307/307
f 307/307/307 310/310/310 309/309/309
f 307/307/307 311/311/311 310/310/310
f 311/311/311 312/312/312 310/310/310
f 312/312/312 313/313/313 310/310/310
f 312/312/312 314/314/314 313/313/313
f 317/317/317 316/316/316 315/315/315
f 315/315/315 318/318/318 317/317/317
f 318/318/318 319/319/319 317/317/317
f 318/318/318 320/320/320 319/319/319
f 320/320/320 321/321/321 319/319/319
f 320/320/320 322/322/322 321/321/321
