g DSJ_GTA_diLou_27_uvDongHua
v -20.51259 -4.295223 10.95877
v -20.51259 -5.459345 10.95877
v -20.51259 -4.295223 8.108685
v -20.51259 -5.459345 8.108685
v 2.32826 -4.295223 10.95877
v 2.32826 -5.459345 10.95877
v -2.247938 -4.295223 10.95877
v -2.247938 -5.459345 10.95877
v -2.247938 3.572626 10.95877
v 2.32826 3.572626 10.95877
v 2.32826 -2.649399 9.19252
v -2.247938 -2.649399 9.19252
v 2.32826 -4.295223 10.95877
v -2.247938 -4.295223 10.95877
v 20.55277 -4.295223 10.91863
v 20.55277 -5.459345 10.91863
v 16.01672 -4.295223 10.91863
v 16.01672 -5.459345 10.91863
v 16.01672 -4.295223 10.91863
v 16.01672 -5.459345 10.91863
v 11.44052 -4.295223 10.91863
v 11.44052 -5.459345 10.91863
v 11.44052 -4.295223 10.91863
v 11.44052 -5.459345 10.91863
v 6.90446 -4.295223 10.95877
v 6.90446 -5.459345 10.95877
v 6.90446 -4.295223 10.95877
v 6.90446 -5.459345 10.95877
v 2.32826 -4.295223 10.95877
v 2.32826 -5.459345 10.95877
v -20.51259 -5.459345 10.95877
v -20.51259 -4.295223 10.95877
v -15.93639 -5.459345 10.95877
v -15.93639 -4.295223 10.95877
v -15.93639 -5.459345 10.95877
v -15.93639 -4.295223 10.95877
v -11.36019 -5.459345 10.95877
v -11.36019 -4.295223 10.95877
v -11.36019 -5.459345 10.95877
v -11.36019 -4.295223 10.95877
v -6.783995 -5.459345 10.95877
v -6.783995 -4.295223 10.95877
v -6.783995 -5.459345 10.95877
v -6.783995 -4.295223 10.95877
v -2.247938 -5.459345 10.95877
v -2.247938 -4.295223 10.95877
v -20.51259 3.572626 10.95877
v -15.93639 3.572626 10.95877
v -15.93639 -2.649399 9.19252
v -20.51259 -2.649399 9.232662
v -15.93639 -4.295223 10.95877
v -20.51259 -4.295223 10.95877
v -15.93639 3.572626 10.35664
v -11.36019 3.572626 10.35664
v -11.36019 -2.649399 8.590389
v -15.93639 -2.649399 8.590389
v -11.36019 -4.295223 10.35664
v -15.93639 -4.295223 10.35664
v -11.36019 3.572626 10.95877
v -6.783995 3.572626 10.95877
v -6.824137 -2.649399 9.19252
v -11.36019 -2.649399 9.19252
v -6.783995 -4.295223 10.95877
v -11.36019 -4.295223 10.95877
v -6.824137 3.572626 10.35664
v -2.247938 3.572626 10.35664
v -2.247938 -2.649399 8.590389
v -6.824137 -2.649399 8.590389
v -2.247938 -4.295223 10.35664
v -6.824137 -4.295223 10.35664
v 16.01672 3.572626 10.91863
v 20.55277 3.572626 10.91863
v 20.55277 -2.649399 9.152378
v 16.01672 -2.649399 9.19252
v 20.55277 -4.295223 10.91863
v 16.01672 -4.295223 10.91863
v 11.44052 3.572626 10.3165
v 16.01672 3.572626 10.3165
v 16.01672 -2.649399 8.550247
v 11.44052 -2.649399 8.590389
v 16.01672 -4.295223 10.3165
v 11.44052 -4.295223 10.3165
v 6.90446 3.572626 10.95877
v 11.44052 3.572626 10.91863
v 11.44052 -2.649399 9.19252
v 6.864318 -2.649399 9.19252
v 11.44052 -4.295223 10.91863
v 6.90446 -4.295223 10.95877
v 2.32826 3.572626 10.35664
v 6.90446 3.572626 10.3165
v 6.864318 -2.649399 8.590389
v 2.32826 -2.649399 8.590389
v 6.90446 -4.295223 10.3165
v 2.32826 -4.295223 10.35664
v -15.93639 -2.649399 9.19252
v -15.93639 3.572626 10.95877
v -15.93639 -2.649399 8.590389
v -15.93639 3.572626 10.35664
v -15.93639 -4.295223 10.95877
v -15.93639 -2.649399 9.19252
v -15.93639 -4.295223 10.35664
v -15.93639 -2.649399 8.590389
v -11.36019 -4.295223 10.95877
v -15.93639 -4.295223 10.95877
v -11.36019 -4.295223 10.35664
v -15.93639 -4.295223 10.35664
v -11.36019 -2.649399 9.19252
v -11.36019 -4.295223 10.95877
v -11.36019 -2.649399 8.590389
v -11.36019 -4.295223 10.35664
v -11.36019 3.572626 10.95877
v -11.36019 -2.649399 9.19252
v -11.36019 3.572626 10.35664
v -11.36019 -2.649399 8.590389
v -6.824137 -2.649399 9.19252
v -6.783995 3.572626 10.95877
v -6.824137 -2.649399 8.590389
v -6.824137 3.572626 10.35664
v -6.783995 -4.295223 10.95877
v -6.824137 -2.649399 9.19252
v -6.824137 -4.295223 10.35664
v -6.824137 -2.649399 8.590389
v -2.247938 -4.295223 10.95877
v -6.783995 -4.295223 10.95877
v -2.247938 -4.295223 10.35664
v -6.824137 -4.295223 10.35664
v -2.247938 -2.649399 9.19252
v -2.247938 -4.295223 10.95877
v -2.247938 -2.649399 8.590389
v -2.247938 -4.295223 10.35664
v -2.247938 3.572626 10.95877
v -2.247938 -2.649399 9.19252
v -2.247938 3.572626 10.35664
v -2.247938 -2.649399 8.590389
v 11.44052 -2.649399 9.19252
v 11.44052 3.572626 10.91863
v 11.44052 -2.649399 8.590389
v 11.44052 3.572626 10.3165
v 11.44052 -4.295223 10.91863
v 11.44052 -2.649399 9.19252
v 11.44052 -4.295223 10.3165
v 11.44052 -2.649399 8.590389
v 16.01672 -4.295223 10.91863
v 11.44052 -4.295223 10.91863
v 16.01672 -4.295223 10.3165
v 11.44052 -4.295223 10.3165
v 16.01672 -2.649399 9.19252
v 16.01672 -4.295223 10.91863
v 16.01672 -2.649399 8.550247
v 16.01672 -4.295223 10.3165
v 16.01672 3.572626 10.91863
v 16.01672 -2.649399 9.19252
v 16.01672 3.572626 10.3165
v 16.01672 -2.649399 8.550247
v 2.32826 -2.649399 9.19252
v 2.32826 3.572626 10.95877
v 2.32826 -2.649399 8.590389
v 2.32826 3.572626 10.35664
v 2.32826 -4.295223 10.95877
v 2.32826 -2.649399 9.19252
v 2.32826 -4.295223 10.35664
v 2.32826 -2.649399 8.590389
v 6.90446 -4.295223 10.95877
v 2.32826 -4.295223 10.95877
v 6.90446 -4.295223 10.3165
v 2.32826 -4.295223 10.35664
v 6.864318 -2.649399 9.19252
v 6.90446 -4.295223 10.95877
v 6.864318 -2.649399 8.590389
v 6.90446 -4.295223 10.3165
v 6.90446 3.572626 10.95877
v 6.864318 -2.649399 9.19252
v 6.90446 3.572626 10.3165
v 6.864318 -2.649399 8.590389
v -11.36019 3.572626 10.35664
v -6.824137 3.572626 10.35664
v -11.36019 3.572626 10.95877
v -6.783995 3.572626 10.95877
v -2.247938 3.572626 10.35664
v 2.32826 3.572626 10.35664
v -2.247938 3.572626 10.95877
v 2.32826 3.572626 10.95877
v 11.44052 3.572626 10.91863
v 6.90446 3.572626 10.95877
v 11.44052 3.572626 10.3165
v 6.90446 3.572626 10.3165
v 16.01672 3.572626 10.91863
v 16.01672 3.572626 10.3165
v 20.55277 3.572626 10.91863
v 20.55277 3.572626 10.3165
v -15.93639 3.572626 10.35664
v -15.93639 3.572626 10.95877
v -20.51259 3.572626 10.35664
v -20.51259 3.572626 10.95877
v -11.36019 3.572626 10.35664
v -15.93639 3.572626 10.35664
v -11.36019 3.572626 8.068541
v -15.93639 3.572626 8.068541
v -2.247938 3.572626 10.35664
v -6.824137 3.572626 10.35664
v -2.247938 3.572626 8.068541
v -6.824137 3.572626 8.068541
v 16.01672 3.572626 10.3165
v 11.44052 3.572626 10.3165
v 16.01672 3.572626 8.028399
v 11.44052 3.572626 8.068541
v 6.90446 3.572626 10.3165
v 2.32826 3.572626 10.35664
v 6.864318 3.572626 8.068541
v 2.32826 3.572626 8.068541
v -6.824137 3.572626 10.35664
v -11.36019 3.572626 10.35664
v -6.824137 3.572626 8.068541
v -11.36019 3.572626 8.068541
v 2.32826 3.572626 10.35664
v -2.247938 3.572626 10.35664
v 2.32826 3.572626 8.068541
v -2.247938 3.572626 8.068541
v 11.44052 3.572626 10.3165
v 6.90446 3.572626 10.3165
v 11.44052 3.572626 8.068541
v 6.864318 3.572626 8.068541
v 20.55277 3.572626 10.3165
v 16.01672 3.572626 10.3165
v 20.55277 3.572626 8.028399
v 16.01672 3.572626 8.028399
v -15.93639 3.572626 10.35664
v -20.51259 3.572626 10.35664
v -15.93639 3.572626 8.068541
v -20.51259 3.572626 8.108685
v -15.93639 4.9776 8.349537
v -15.93639 4.937458 -10.99895
v -15.93639 5.258595 8.99181
v -15.93639 5.379021 -10.99895
v -15.93639 3.331774 8.349537
v -15.93639 4.9776 8.349537
v -15.93639 3.331774 9.031952
v -15.93639 5.258595 8.99181
v -11.36019 4.9776 8.349537
v -11.36019 3.331774 8.349537
v -11.36019 5.258595 8.99181
v -11.36019 3.331774 8.99181
v -11.40034 4.937458 -11.0391
v -11.36019 4.9776 8.349537
v -11.40034 5.379021 -11.0391
v -11.36019 5.258595 8.99181
v -6.824137 4.9776 8.349537
v -6.824137 4.937458 -11.0391
v -6.824137 5.258595 8.99181
v -6.824137 5.379021 -11.0391
v -6.824137 3.331774 8.349537
v -6.824137 4.9776 8.349537
v -6.824137 3.331774 8.99181
v -6.824137 5.258595 8.99181
v -2.247938 4.9776 8.349537
v -2.247938 3.331774 8.349537
v -2.247938 5.258595 8.99181
v -2.247938 3.331774 8.99181
v -2.247938 4.937458 -11.0391
v -2.247938 4.9776 8.349537
v -2.247938 5.379021 -11.0391
v -2.247938 5.258595 8.99181
v 11.44052 4.9776 8.309395
v 11.44052 4.937458 -11.0391
v 11.44052 5.258595 8.951668
v 11.44052 5.379021 -11.0391
v 11.44052 3.331774 8.309395
v 11.44052 4.9776 8.309395
v 11.44052 3.331774 8.99181
v 11.44052 5.258595 8.951668
v 16.01672 4.9776 8.309395
v 16.01672 3.331774 8.309395
v 16.01672 5.258595 8.951668
v 16.01672 3.331774 8.99181
v 15.97657 4.937458 -11.0391
v 16.01672 4.9776 8.309395
v 15.97657 5.379021 -11.0391
v 16.01672 5.258595 8.951668
v 2.32826 4.9776 8.349537
v 2.288118 4.937458 -11.0391
v 2.32826 5.258595 8.99181
v 2.288118 5.379021 -11.0391
v 2.32826 3.331774 8.349537
v 2.32826 4.9776 8.349537
v 2.32826 3.331774 8.99181
v 2.32826 5.258595 8.99181
v 6.864318 4.9776 8.309395
v 6.864318 3.331774 8.309395
v 6.864318 5.258595 8.951668
v 6.864318 3.331774 8.99181
v 6.864318 4.937458 -11.0391
v 6.864318 4.9776 8.309395
v 6.864318 5.379021 -11.0391
v 6.864318 5.258595 8.951668
vt -0.0002979338 0.9740461
vt 0.02443162 0.9740461
vt -0.0002979338 0.5313872
vt 0.02443162 0.5313872
vt -0.0002979338 0.9740461
vt 0.02443162 0.9740461
vt -0.0002979338 0.5313872
vt 0.02443162 0.5313872
vt 0.8899657 0.2469975
vt 0.9369518 0.2469975
vt 0.9369518 0.7514802
vt 0.8899657 0.7514802
vt 0.9369518 0.9320059
vt 0.8899657 0.9320059
vt -0.0002979338 0.9740461
vt 0.02443162 0.9740461
vt -0.0002979338 0.5313872
vt 0.02443162 0.5313872
vt -0.0002979338 0.9740461
vt 0.02443162 0.9740461
vt -0.0002979338 0.5313872
vt 0.02443162 0.5313872
vt -0.0002979338 0.9740461
vt 0.02443162 0.9740461
vt -0.0002979338 0.5313872
vt 0.02443162 0.5313872
vt -0.0002979338 0.9740461
vt 0.02443162 0.9740461
vt -0.0002979338 0.5313872
vt 0.02443162 0.5313872
vt 0.02443162 0.5313872
vt -0.0002979338 0.5313872
vt 0.02443162 0.9740461
vt -0.0002979338 0.9740461
vt 0.02443162 0.5313872
vt -0.0002979338 0.5313872
vt 0.02443162 0.9740461
vt -0.0002979338 0.9740461
vt 0.02443162 0.5313872
vt -0.0002979338 0.5313872
vt 0.02443162 0.9740461
vt -0.0002979338 0.9740461
vt 0.02443162 0.5313872
vt -0.0002979338 0.5313872
vt 0.02443162 0.9740461
vt -0.0002979338 0.9740461
vt 0.8899657 0.2469975
vt 0.9369518 0.2469975
vt 0.9369518 0.7514802
vt 0.8899657 0.7514802
vt 0.9369518 0.9320059
vt 0.8899657 0.9320059
vt 0.8454524 0.9320059
vt 0.8899657 0.9320059
vt 0.8899657 0.4299961
vt 0.8454524 0.4299961
vt 0.8899657 0.2469975
vt 0.8454524 0.2469975
vt 0.8899657 0.2469975
vt 0.9369518 0.2469975
vt 0.9369518 0.7514802
vt 0.8899657 0.7514802
vt 0.9369518 0.9320059
vt 0.8899657 0.9320059
vt 0.8454524 0.9320059
vt 0.8899657 0.9320059
vt 0.8899657 0.4299961
vt 0.8454524 0.4299961
vt 0.8899657 0.2469975
vt 0.8454524 0.2469975
vt 0.8899657 0.2469975
vt 0.9369518 0.2469975
vt 0.9369518 0.7514802
vt 0.8899657 0.7514802
vt 0.9369518 0.9320059
vt 0.8899657 0.9320059
vt 0.8454524 0.9320059
vt 0.8899657 0.9320059
vt 0.8899657 0.4299961
vt 0.8454524 0.4299961
vt 0.8899657 0.2469975
vt 0.8454524 0.2469975
vt 0.8899657 0.2469975
vt 0.9369518 0.2469975
vt 0.9369518 0.7514802
vt 0.8899657 0.7514802
vt 0.9369518 0.9320059
vt 0.8899657 0.9320059
vt 0.8454524 0.9320059
vt 0.8899657 0.9320059
vt 0.8899657 0.4299961
vt 0.8454524 0.4299961
vt 0.8899657 0.2469975
vt 0.8454524 0.2469975
vt 0.9394248 0.5684816
vt 0.9394248 1.082856
vt 0.9443706 0.5684816
vt 0.9443706 1.082856
vt 0.9394248 0.924587
vt 0.9394248 1.082856
vt 0.9443706 0.924587
vt 0.9443706 1.082856
vt 0.9394248 0.8454524
vt 0.9394248 1.082856
vt 0.9443706 0.8454524
vt 0.9443706 1.082856
vt 0.9394248 0.924587
vt 0.9394248 1.082856
vt 0.9443706 0.924587
vt 0.9443706 1.082856
vt 0.9394248 0.5684816
vt 0.9394248 1.082856
vt 0.9443706 0.5684816
vt 0.9443706 1.082856
vt 0.9394248 0.5684816
vt 0.9394248 1.082856
vt 0.9443706 0.5684816
vt 0.9443706 1.082856
vt 0.9394248 0.924587
vt 0.9394248 1.082856
vt 0.9443706 0.924587
vt 0.9443706 1.082856
vt 0.9394248 0.8454524
vt 0.9394248 1.082856
vt 0.9443706 0.8454524
vt 0.9443706 1.082856
vt 0.9394248 0.924587
vt 0.9394248 1.082856
vt 0.9443706 0.924587
vt 0.9443706 1.082856
vt 0.9394248 0.5684816
vt 0.9394248 1.082856
vt 0.9443706 0.5684816
vt 0.9443706 1.082856
vt 0.9394248 0.5684816
vt 0.9394248 1.082856
vt 0.9443706 0.5684816
vt 0.9443706 1.082856
vt 0.9394248 0.924587
vt 0.9394248 1.082856
vt 0.9443706 0.924587
vt 0.9443706 1.082856
vt 0.9394248 0.8454524
vt 0.9394248 1.082856
vt 0.9443706 0.8454524
vt 0.9443706 1.082856
vt 0.9394248 0.924587
vt 0.9394248 1.082856
vt 0.9443706 0.924587
vt 0.9443706 1.082856
vt 0.9394248 0.5684816
vt 0.9394248 1.082856
vt 0.9443706 0.5684816
vt 0.9443706 1.082856
vt 0.9394248 0.5684816
vt 0.9394248 1.082856
vt 0.9443706 0.5684816
vt 0.9443706 1.082856
vt 0.9394248 0.924587
vt 0.9394248 1.082856
vt 0.9443706 0.924587
vt 0.9443706 1.082856
vt 0.9394248 0.8454524
vt 0.9394248 1.082856
vt 0.9443706 0.8454524
vt 0.9443706 1.082856
vt 0.9394248 0.924587
vt 0.9394248 1.082856
vt 0.9443706 0.924587
vt 0.9443706 1.082856
vt 0.9394248 0.5684816
vt 0.9394248 1.082856
vt 0.9443706 0.5684816
vt 0.9443706 1.082856
vt 0.9443706 1.082856
vt 0.9443706 0.8454524
vt 0.9394248 1.082856
vt 0.9394248 0.8454524
vt 0.9443706 1.082856
vt 0.9443706 0.8454524
vt 0.9394248 1.082856
vt 0.9394248 0.8454524
vt 0.9394248 0.8454524
vt 0.9394248 1.082856
vt 0.9443706 0.8454524
vt 0.9443706 1.082856
vt 0.9394248 1.082856
vt 0.9443706 1.082856
vt 0.9394248 0.8454524
vt 0.9443706 0.8454524
vt 0.9443706 0.8454524
vt 0.9394248 0.8454524
vt 0.9443706 1.082856
vt 0.9394248 1.082856
vt 0.8899657 0.7514802
vt 0.9369518 0.7514802
vt 0.8899657 0.9320059
vt 0.9369518 0.9320059
vt 0.8899657 0.7514802
vt 0.9369518 0.7514802
vt 0.8899657 0.9320059
vt 0.9369518 0.9320059
vt 0.8899657 0.7514802
vt 0.9369518 0.7514802
vt 0.8899657 0.9320059
vt 0.9369518 0.9320059
vt 0.8899657 0.7514802
vt 0.9369518 0.7514802
vt 0.8899657 0.9320059
vt 0.9369518 0.9320059
vt 0.8454524 0.4299961
vt 0.8899657 0.4299961
vt 0.8454524 0.2469975
vt 0.8899657 0.2469975
vt 0.8454524 0.4299961
vt 0.8899657 0.4299961
vt 0.8454524 0.2469975
vt 0.8899657 0.2469975
vt 0.8454524 0.4299961
vt 0.8899657 0.4299961
vt 0.8454524 0.2469975
vt 0.8899657 0.2469975
vt 0.8454524 0.4299961
vt 0.8899657 0.4299961
vt 0.8454524 0.2469975
vt 0.8899657 0.2469975
vt 0.8454524 0.4299961
vt 0.8899657 0.4299961
vt 0.8454524 0.2469975
vt 0.8899657 0.2469975
vt 0.9443706 1.03587
vt 0.9443706 -0.1808236
vt 0.9394248 1.080383
vt 0.9394248 -0.1808236
vt 0.9443706 0.8800738
vt 0.9443706 1.006194
vt 0.9394248 0.8800738
vt 0.9394248 1.03587
vt 0.9443706 1.006194
vt 0.9443706 0.8800738
vt 0.9394248 1.03587
vt 0.9394248 0.8800738
vt 0.9443706 -0.1808236
vt 0.9443706 1.03587
vt 0.9394248 -0.1808236
vt 0.9394248 1.080383
vt 0.9443706 1.03587
vt 0.9443706 -0.1808236
vt 0.9394248 1.080383
vt 0.9394248 -0.1808236
vt 0.9443706 0.8800738
vt 0.9443706 1.006194
vt 0.9394248 0.8800738
vt 0.9394248 1.03587
vt 0.9443706 1.006194
vt 0.9443706 0.8800738
vt 0.9394248 1.03587
vt 0.9394248 0.8800738
vt 0.9443706 -0.1808236
vt 0.9443706 1.03587
vt 0.9394248 -0.1808236
vt 0.9394248 1.080383
vt 0.9443706 1.03587
vt 0.9443706 -0.1808236
vt 0.9394248 1.080383
vt 0.9394248 -0.1808236
vt 0.9443706 0.8800738
vt 0.9443706 1.006194
vt 0.9394248 0.8800738
vt 0.9394248 1.03587
vt 0.9443706 1.006194
vt 0.9443706 0.8800738
vt 0.9394248 1.03587
vt 0.9394248 0.8800738
vt 0.9443706 -0.1808236
vt 0.9443706 1.03587
vt 0.9394248 -0.1808236
vt 0.9394248 1.080383
vt 0.9443706 1.03587
vt 0.9443706 -0.1808236
vt 0.9394248 1.080383
vt 0.9394248 -0.1808236
vt 0.9443706 0.8800738
vt 0.9443706 1.006194
vt 0.9394248 0.8800738
vt 0.9394248 1.03587
vt 0.9443706 1.006194
vt 0.9443706 0.8800738
vt 0.9394248 1.03587
vt 0.9394248 0.8800738
vt 0.9443706 -0.1808236
vt 0.9443706 1.03587
vt 0.9394248 -0.1808236
vt 0.9394248 1.080383
g DSJ_GTA_diLou_27_uvDongHua_0
f 3/3/3 2/2/2 1/1/1
f 4/4/4 2/2/2 3/3/3
f 7/7/7 6/6/6 5/5/5
f 8/8/8 6/6/6 7/7/7
f 11/11/11 10/10/10 9/9/9
f 12/12/12 11/11/11 9/9/9
f 13/13/13 11/11/11 12/12/12
f 14/14/14 13/13/13 12/12/12
f 17/17/17 16/16/16 15/15/15
f 18/18/18 16/16/16 17/17/17
f 21/21/21 20/20/20 19/19/19
f 22/22/22 20/20/20 21/21/21
f 25/25/25 24/24/24 23/23/23
f 26/26/26 24/24/24 25/25/25
f 29/29/29 28/28/28 27/27/27
f 30/30/30 28/28/28 29/29/29
f 33/33/33 32/32/32 31/31/31
f 34/34/34 32/32/32 33/33/33
f 37/37/37 36/36/36 35/35/35
f 38/38/38 36/36/36 37/37/37
f 41/41/41 40/40/40 39/39/39
f 42/42/42 40/40/40 41/41/41
f 45/45/45 44/44/44 43/43/43
f 46/46/46 44/44/44 45/45/45
f 49/49/49 48/48/48 47/47/47
f 50/50/50 49/49/49 47/47/47
f 51/51/51 49/49/49 50/50/50
f 52/52/52 51/51/51 50/50/50
f 55/55/55 54/54/54 53/53/53
f 56/56/56 55/55/55 53/53/53
f 57/57/57 55/55/55 56/56/56
f 58/58/58 57/57/57 56/56/56
f 61/61/61 60/60/60 59/59/59
f 62/62/62 61/61/61 59/59/59
f 63/63/63 61/61/61 62/62/62
f 64/64/64 63/63/63 62/62/62
f 67/67/67 66/66/66 65/65/65
f 68/68/68 67/67/67 65/65/65
f 69/69/69 67/67/67 68/68/68
f 70/70/70 69/69/69 68/68/68
f 73/73/73 72/72/72 71/71/71
f 74/74/74 73/73/73 71/71/71
f 75/75/75 73/73/73 74/74/74
f 76/76/76 75/75/75 74/74/74
f 79/79/79 78/78/78 77/77/77
f 80/80/80 79/79/79 77/77/77
f 81/81/81 79/79/79 80/80/80
f 82/82/82 81/81/81 80/80/80
f 85/85/85 84/84/84 83/83/83
f 86/86/86 85/85/85 83/83/83
f 87/87/87 85/85/85 86/86/86
f 88/88/88 87/87/87 86/86/86
f 91/91/91 90/90/90 89/89/89
f 92/92/92 91/91/91 89/89/89
f 93/93/93 91/91/91 92/92/92
f 94/94/94 93/93/93 92/92/92
f 97/97/97 96/96/96 95/95/95
f 98/98/98 96/96/96 97/97/97
f 101/101/101 100/100/100 99/99/99
f 102/102/102 100/100/100 101/101/101
f 105/105/105 104/104/104 103/103/103
f 106/106/106 104/104/104 105/105/105
f 109/109/109 108/108/108 107/107/107
f 110/110/110 108/108/108 109/109/109
f 113/113/113 112/112/112 111/111/111
f 114/114/114 112/112/112 113/113/113
f 117/117/117 116/116/116 115/115/115
f 118/118/118 116/116/116 117/117/117
f 121/121/121 120/120/120 119/119/119
f 122/122/122 120/120/120 121/121/121
f 125/125/125 124/124/124 123/123/123
f 126/126/126 124/124/124 125/125/125
f 129/129/129 128/128/128 127/127/127
f 130/130/130 128/128/128 129/129/129
f 133/133/133 132/132/132 131/131/131
f 134/134/134 132/132/132 133/133/133
f 137/137/137 136/136/136 135/135/135
f 138/138/138 136/136/136 137/137/137
f 141/141/141 140/140/140 139/139/139
f 142/142/142 140/140/140 141/141/141
f 145/145/145 144/144/144 143/143/143
f 146/146/146 144/144/144 145/145/145
f 149/149/149 148/148/148 147/147/147
f 150/150/150 148/148/148 149/149/149
f 153/153/153 152/152/152 151/151/151
f 154/154/154 152/152/152 153/153/153
f 157/157/157 156/156/156 155/155/155
f 158/158/158 156/156/156 157/157/157
f 161/161/161 160/160/160 159/159/159
f 162/162/162 160/160/160 161/161/161
f 165/165/165 164/164/164 163/163/163
f 166/166/166 164/164/164 165/165/165
f 169/169/169 168/168/168 167/167/167
f 170/170/170 168/168/168 169/169/169
f 173/173/173 172/172/172 171/171/171
f 174/174/174 172/172/172 173/173/173
f 177/177/177 176/176/176 175/175/175
f 178/178/178 176/176/176 177/177/177
f 181/181/181 180/180/180 179/179/179
f 182/182/182 180/180/180 181/181/181
f 185/185/185 184/184/184 183/183/183
f 186/186/186 184/184/184 185/185/185
f 189/189/189 188/188/188 187/187/187
f 190/190/190 188/188/188 189/189/189
f 193/193/193 192/192/192 191/191/191
f 194/194/194 192/192/192 193/193/193
f 197/197/197 196/196/196 195/195/195
f 198/198/198 196/196/196 197/197/197
f 201/201/201 200/200/200 199/199/199
f 202/202/202 200/200/200 201/201/201
f 205/205/205 204/204/204 203/203/203
f 206/206/206 204/204/204 205/205/205
f 209/209/209 208/208/208 207/207/207
f 210/210/210 208/208/208 209/209/209
f 213/213/213 212/212/212 211/211/211
f 214/214/214 212/212/212 213/213/213
f 217/217/217 216/216/216 215/215/215
f 218/218/218 216/216/216 217/217/217
f 221/221/221 220/220/220 219/219/219
f 222/222/222 220/220/220 221/221/221
f 225/225/225 224/224/224 223/223/223
f 226/226/226 224/224/224 225/225/225
f 229/229/229 228/228/228 227/227/227
f 230/230/230 228/228/228 229/229/229
f 233/233/233 232/232/232 231/231/231
f 234/234/234 232/232/232 233/233/233
f 237/237/237 236/236/236 235/235/235
f 238/238/238 236/236/236 237/237/237
f 241/241/241 240/240/240 239/239/239
f 242/242/242 240/240/240 241/241/241
f 245/245/245 244/244/244 243/243/243
f 246/246/246 244/244/244 245/245/245
f 249/249/249 248/248/248 247/247/247
f 250/250/250 248/248/248 249/249/249
f 253/253/253 252/252/252 251/251/251
f 254/254/254 252/252/252 253/253/253
f 257/257/257 256/256/256 255/255/255
f 258/258/258 256/256/256 257/257/257
f 261/261/261 260/260/260 259/259/259
f 262/262/262 260/260/260 261/261/261
f 265/265/265 264/264/264 263/263/263
f 266/266/266 264/264/264 265/265/265
f 269/269/269 268/268/268 267/267/267
f 270/270/270 268/268/268 269/269/269
f 273/273/273 272/272/272 271/271/271
f 274/274/274 272/272/272 273/273/273
f 277/277/277 276/276/276 275/275/275
f 278/278/278 276/276/276 277/277/277
f 281/281/281 280/280/280 279/279/279
f 282/282/282 280/280/280 281/281/281
f 285/285/285 284/284/284 283/283/283
f 286/286/286 284/284/284 285/285/285
f 289/289/289 288/288/288 287/287/287
f 290/290/290 288/288/288 289/289/289
f 293/293/293 292/292/292 291/291/291
f 294/294/294 292/292/292 293/293/293
