g DSJ_GTA_gaoLou_24
v -21.44325 -60.43098 -21.56139
v -21.44325 -20.14366 21.44325
v -21.44325 -60.43098 21.44325
v -21.44325 -20.14366 -21.56139
v -21.44325 60.43098 -21.56139
v 21.56139 60.43098 21.44325
v -21.44325 60.43098 21.44325
v 21.56139 60.43098 -21.56139
v 21.56139 -20.14366 -21.56139
v 21.56139 -60.43098 21.44325
v 21.56139 -20.14366 21.44325
v 21.56139 -60.43098 -21.56139
v -21.44325 -60.43098 21.44325
v 21.56139 -20.14366 21.44325
v 21.56139 -60.43098 21.44325
v -21.44325 -20.14366 21.44325
v 21.56139 -60.43098 -21.56139
v -21.44325 -20.14366 -21.56139
v -21.44325 -60.43098 -21.56139
v 21.56139 -20.14366 -21.56139
v 21.56139 20.14366 -21.56139
v -21.44325 60.43098 -21.56139
v -21.44325 20.14366 -21.56139
v 21.56139 60.43098 -21.56139
v 21.56139 60.43098 -21.56139
v 21.56139 20.14366 21.44325
v 21.56139 60.43098 21.44325
v 21.56139 20.14366 -21.56139
v -21.44325 20.14366 21.44325
v 21.56139 60.43098 21.44325
v 21.56139 20.14366 21.44325
v -21.44325 60.43098 21.44325
v -21.44325 20.14366 -21.56139
v -21.44325 60.43098 21.44325
v -21.44325 20.14366 21.44325
v -21.44325 60.43098 -21.56139
v 21.56139 -20.14366 -21.56139
v -21.44325 20.14366 -21.56139
v -21.44325 -20.14366 -21.56139
v 21.56139 20.14366 -21.56139
v 21.56139 20.14366 -21.56139
v 21.56139 -20.14366 21.44325
v 21.56139 20.14366 21.44325
v 21.56139 -20.14366 -21.56139
v -21.44325 -20.14366 21.44325
v 21.56139 20.14366 21.44325
v 21.56139 -20.14366 21.44325
v -21.44325 20.14366 21.44325
v -21.44325 -20.14366 -21.56139
v -21.44325 20.14366 21.44325
v -21.44325 -20.14366 21.44325
v -21.44325 20.14366 -21.56139
vt 0.004977286 0.7554408
vt 0.2460589 0.9848572
vt 0.2460589 0.7554408
vt 0.004977286 0.9848572
vt 0.2421704 0.7554408
vt 0.004977286 0.9965224
vt 0.2421704 0.9965224
vt 0.004977286 0.7554408
vt 0.2460589 0.9848572
vt 0.004977286 0.7554408
vt 0.004977286 0.9848572
vt 0.2460589 0.7554408
vt 0.2460589 0.7554408
vt 0.004977286 0.9848572
vt 0.004977286 0.7554408
vt 0.2460589 0.9848572
vt 0.2460589 0.7554408
vt 0.004977286 0.9848572
vt 0.004977286 0.7554408
vt 0.2460589 0.9848572
vt 0.2460589 0.7554408
vt 0.004977286 0.9848572
vt 0.004977286 0.7554408
vt 0.2460589 0.9848572
vt 0.2460589 0.9848572
vt 0.004977286 0.7554408
vt 0.004977286 0.9848572
vt 0.2460589 0.7554408
vt 0.2460589 0.7554408
vt 0.004977286 0.9848572
vt 0.004977286 0.7554408
vt 0.2460589 0.9848572
vt 0.004977286 0.7554408
vt 0.2460589 0.9848572
vt 0.2460589 0.7554408
vt 0.004977286 0.9848572
vt 0.2460589 0.9848572
vt 0.004977286 0.7554408
vt 0.004977286 0.9848572
vt 0.2460589 0.7554408
vt 0.2460589 0.7554408
vt 0.004977286 0.9848572
vt 0.004977286 0.7554408
vt 0.2460589 0.9848572
vt 0.2460589 0.9848572
vt 0.004977286 0.7554408
vt 0.004977286 0.9848572
vt 0.2460589 0.7554408
vt 0.004977286 0.9848572
vt 0.2460589 0.7554408
vt 0.2460589 0.9848572
vt 0.004977286 0.7554408
vn -0.999874 -0.01587099 -0.000346655
vn -0.999874 -0.01587099 -0.000346655
vn -0.999874 -0.01587099 -0.000346655
vn -0.999874 -0.01587099 -0.000346655
vn 0.01587099 0.999874 -0.000345267
vn 0.01587099 0.999874 -0.000345267
vn 0.01587099 0.999874 -0.000345267
vn 0.01587099 0.999874 -0.000345267
vn 0.999874 -0.01587099 -0.000346655
vn 0.999874 -0.01587099 -0.000346655
vn 0.999874 -0.01587099 -0.000346655
vn 0.999874 -0.01587099 -0.000346655
vn 0.04761302 -0.04761302 0.9977304
vn 0.04761302 -0.04761302 0.9977304
vn 0.04761302 -0.04761302 0.9977304
vn 0.04761302 -0.04761302 0.9977304
vn 0.04761302 -0.04761302 -0.9977304
vn 0.04761302 -0.04761302 -0.9977304
vn 0.04761302 -0.04761302 -0.9977304
vn 0.04761302 -0.04761302 -0.9977304
vn 0.04761302 -0.04761302 -0.9977304
vn 0.04761302 -0.04761302 -0.9977304
vn 0.04761302 -0.04761302 -0.9977304
vn 0.04761302 -0.04761302 -0.9977304
vn 0.999874 -0.01587099 -0.000346655
vn 0.999874 -0.01587099 -0.000346655
vn 0.999874 -0.01587099 -0.000346655
vn 0.999874 -0.01587099 -0.000346655
vn 0.04761302 -0.04761302 0.9977304
vn 0.04761302 -0.04761302 0.9977304
vn 0.04761302 -0.04761302 0.9977304
vn 0.04761302 -0.04761302 0.9977304
vn -0.999874 -0.01587099 -0.000346655
vn -0.999874 -0.01587099 -0.000346655
vn -0.999874 -0.01587099 -0.000346655
vn -0.999874 -0.01587099 -0.000346655
vn 0.04761302 -0.04761302 -0.9977304
vn 0.04761302 -0.04761302 -0.9977304
vn 0.04761302 -0.04761302 -0.9977304
vn 0.04761302 -0.04761302 -0.9977304
vn 0.999874 -0.01587099 -0.000346655
vn 0.999874 -0.01587099 -0.000346655
vn 0.999874 -0.01587099 -0.000346655
vn 0.999874 -0.01587099 -0.000346655
vn 0.04761302 -0.04761302 0.9977304
vn 0.04761302 -0.04761302 0.9977304
vn 0.04761302 -0.04761302 0.9977304
vn 0.04761302 -0.04761302 0.9977304
vn -0.999874 -0.01587099 -0.000346655
vn -0.999874 -0.01587099 -0.000346655
vn -0.999874 -0.01587099 -0.000346655
vn -0.999874 -0.01587099 -0.000346655
g DSJ_GTA_gaoLou_24_0
f 3/3/3 2/2/2 1/1/1
f 2/2/2 4/4/4 1/1/1
f 7/7/7 6/6/6 5/5/5
f 6/6/6 8/8/8 5/5/5
f 11/11/11 10/10/10 9/9/9
f 10/10/10 12/12/12 9/9/9
f 15/15/15 14/14/14 13/13/13
f 14/14/14 16/16/16 13/13/13
f 19/19/19 18/18/18 17/17/17
f 18/18/18 20/20/20 17/17/17
f 23/23/23 22/22/22 21/21/21
f 22/22/22 24/24/24 21/21/21
f 27/27/27 26/26/26 25/25/25
f 26/26/26 28/28/28 25/25/25
f 31/31/31 30/30/30 29/29/29
f 30/30/30 32/32/32 29/29/29
f 35/35/35 34/34/34 33/33/33
f 34/34/34 36/36/36 33/33/33
f 39/39/39 38/38/38 37/37/37
f 38/38/38 40/40/40 37/37/37
f 43/43/43 42/42/42 41/41/41
f 42/42/42 44/44/44 41/41/41
f 47/47/47 46/46/46 45/45/45
f 46/46/46 48/48/48 45/45/45
f 51/51/51 50/50/50 49/49/49
f 50/50/50 52/52/52 49/49/49
