g DSJ_GTA_daoJu_youTong_04
v 0.2127614 1.222218 0.3339685
v 0.3956048 0.004039317 -0.01727399
v 0.2127614 0.004039317 0.3339701
v 0.3956048 1.222218 -0.01727399
v -0.2127631 1.222218 -0.3339745
v -0.3956096 0.004039317 0.01726952
v -0.2127631 0.004039317 -0.3339745
v -0.3956096 1.222219 0.01726952
v -0.1828466 1.222218 0.3512411
v 0.2127614 0.004039317 0.3339701
v -0.1828466 0.004039317 0.3512426
v 0.2127614 1.222218 0.3339685
v 0.182845 1.222218 -0.3512456
v -0.2127631 0.004039317 -0.3339745
v 0.182845 0.004039317 -0.3512456
v -0.2127631 1.222218 -0.3339745
v -0.1828466 0.004039317 0.3512426
v -0.3956096 1.222219 0.01726952
v -0.1828466 1.222218 0.3512411
v -0.3956096 0.004039317 0.01726952
v 0.3956048 1.222218 -0.01727399
v 0.182845 0.004039317 -0.3512456
v 0.3956048 0.004039317 -0.01727399
v 0.182845 1.222218 -0.3512456
v 0.2127614 1.222218 0.3339685
v 0.182845 1.222218 -0.3512456
v 0.3956048 1.222218 -0.01727399
v -0.3956096 1.222219 0.01726952
v -0.2127631 1.222218 -0.3339745
v -0.1828466 1.222218 0.3512411
vt 0.952697 0.8277695
vt 0.9670668 0.8782328
vt 0.952697 0.8782328
vt 0.9670668 0.8277695
vt 0.9132085 0.8277695
vt 0.9239883 0.8782328
vt 0.9132085 0.8782431
vt 0.9239883 0.8277695
vt 0.9383478 0.8277695
vt 0.952697 0.8782328
vt 0.9383478 0.8782328
vt 0.952697 0.8277695
vt 0.9814366 0.8277695
vt 0.9958063 0.8782328
vt 0.9814366 0.8782328
vt 0.9958063 0.8277695
vt 0.9383478 0.8782328
vt 0.9239883 0.8277695
vt 0.9383478 0.8277695
vt 0.9239883 0.8782328
vt 0.9670668 0.8277695
vt 0.9814366 0.8782328
vt 0.9670668 0.8782328
vt 0.9814366 0.8277695
vt 0.8957207 0.8787149
vt 0.8906128 0.8581193
vt 0.8872178 0.8698838
vt 0.9110648 0.8639964
vt 0.9025414 0.8551756
vt 0.9076493 0.8757712
vn 0.8870108 -0.006415308 0.4617042
vn 0.8870108 -0.006415308 0.4617042
vn 0.8870108 -0.006415308 0.4617042
vn 0.8870108 -0.006415308 0.4617042
vn -0.8815801 -0.006415308 -0.4719909
vn -0.8815801 -0.006415308 -0.4719909
vn -0.8815801 -0.006415308 -0.4719909
vn -0.8815801 -0.006415308 -0.4719909
vn 0.05081511 -0.006415308 0.9986875
vn 0.05081511 -0.006415308 0.9986875
vn 0.05081511 -0.006415308 0.9986875
vn 0.05081511 -0.006415308 0.9986875
vn -0.03798449 -0.006415308 -0.9992577
vn -0.03798449 -0.006415308 -0.9992577
vn -0.03798449 -0.006415308 -0.9992577
vn -0.03798449 -0.006415308 -0.9992577
vn -0.8371803 -0.006415308 0.5468894
vn -0.8371803 -0.006415308 0.5468894
vn -0.8371803 -0.006415308 0.5468894
vn -0.8371803 -0.006415308 0.5468894
vn 0.8500109 -0.006415308 -0.526726
vn 0.8500109 -0.006415308 -0.526726
vn 0.8500109 -0.006415308 -0.526726
vn 0.8500109 -0.006415308 -0.526726
vn 0.006415308 0.9999794 0
vn 0.006415308 0.9999794 0
vn 0.006415308 0.9999794 0
vn 0.006415308 0.9999794 0
vn 0.006415308 0.9999794 0
vn 0.006415308 0.9999794 0
g DSJ_GTA_daoJu_youTong_04_0
f 3/3/3 2/2/2 1/1/1
f 4/4/4 1/1/1 2/2/2
f 7/7/7 6/6/6 5/5/5
f 8/8/8 5/5/5 6/6/6
f 11/11/11 10/10/10 9/9/9
f 12/12/12 9/9/9 10/10/10
f 15/15/15 14/14/14 13/13/13
f 16/16/16 13/13/13 14/14/14
f 19/19/19 18/18/18 17/17/17
f 20/20/20 17/17/17 18/18/18
f 23/23/23 22/22/22 21/21/21
f 24/24/24 21/21/21 22/22/22
f 27/27/27 26/26/26 25/25/25
f 26/26/26 28/28/28 25/25/25
f 29/29/29 28/28/28 26/26/26
f 25/25/25 28/28/28 30/30/30
