g DSJ_GTA_gaoLou_12
v 2.518002 -62.82719 -23.64464
v 23.52181 -62.82719 -3.009315
v 2.518002 -55.58026 -23.64464
v 23.52181 -55.58026 -3.009315
v -23.27616 -55.58026 2.640835
v -23.27616 -62.82719 2.640835
v -7.799664 -55.58026 -22.53918
v -7.799664 -62.82719 -22.53918
v 2.518002 -55.58026 -23.64464
v 2.518002 -21.06522 -23.64464
v -7.799664 -21.06522 -22.53918
v 2.518002 7.554005 -23.64464
v -7.799664 7.554005 -22.53918
v -7.799664 -55.58026 -22.53918
v -2.149517 -62.82719 23.52182
v -23.27616 -62.82719 2.640835
v -2.149517 -55.58026 23.52182
v -23.27616 -55.58026 2.640835
v 8.168148 -21.06522 22.29352
v 8.168148 7.554005 22.29352
v 23.52181 -21.06522 -3.009315
v 23.52181 25.36425 -3.009315
v -2.149517 -55.58026 23.52182
v -2.149517 -21.06522 23.52182
v 8.168148 -21.06522 22.29352
v -2.149517 7.554005 23.52182
v 8.168148 7.554005 22.29352
v 8.168148 -55.58026 22.29352
v 23.52181 -21.06522 -3.009315
v 2.518002 -21.06522 -23.64464
v 23.52181 -55.58026 -3.009315
v 2.518002 -55.58026 -23.64464
v -23.27616 -21.06522 2.640835
v -23.27616 -55.58026 2.640835
v -7.799664 -21.06522 -22.53918
v -7.799664 -55.58026 -22.53918
v -7.799664 -62.82719 -22.53918
v 2.518002 -62.82719 -23.64464
v -7.799664 -55.58026 -22.53918
v 2.518002 -55.58026 -23.64464
v -23.27616 -21.06522 2.640835
v -2.149517 -21.06522 23.52182
v -23.27616 -55.58026 2.640835
v -2.149517 -55.58026 23.52182
v 8.168148 -62.82719 22.29352
v 8.168148 -55.58026 22.29352
v 23.52181 -62.82719 -3.009315
v 23.52181 -55.58026 -3.009315
v 8.168148 -62.82719 22.29352
v -2.149517 -62.82719 23.52182
v 8.168148 -55.58026 22.29352
v -2.149517 -55.58026 23.52182
v 8.168148 -55.58026 22.29352
v 8.168148 -21.06522 22.29352
v 23.52181 -55.58026 -3.009315
v 23.52181 -21.06522 -3.009315
v 23.52181 25.36425 -3.009315
v 2.518002 7.554005 -23.64464
v 23.52181 -21.06522 -3.009315
v 2.518002 -21.06522 -23.64464
v -23.27616 25.36425 2.640835
v -23.27616 -21.06522 2.640835
v -7.799664 7.554005 -22.53918
v -7.799664 -21.06522 -22.53918
v -23.27616 25.36425 2.640835
v -2.149517 7.554005 23.52182
v -23.27616 -21.06522 2.640835
v -2.149517 -21.06522 23.52182
v -19.71411 39.48962 2.149517
v -19.71411 9.764935 2.149517
v -15.04659 9.764935 -6.694195
v -15.04659 39.48962 -6.694195
v -1.658199 9.764935 -11.7302
v -1.658199 39.48962 -11.7302
v 12.34435 9.764935 -9.887756
v 12.34435 39.48962 -9.887756
v 19.09996 9.764935 -2.518002
v 19.09996 39.48962 -2.518002
v 19.09996 39.48962 -2.518002
v 19.09996 9.764935 -2.518002
v 14.43244 9.764935 6.448544
v 14.43244 39.48962 6.448544
v 0.9212189 9.764935 11.36171
v 0.9212189 39.48962 11.36171
v -13.20415 9.764935 9.642101
v -13.20415 39.48962 9.642101
v -19.71411 9.764935 2.149517
v -19.71411 39.48962 2.149517
v -19.71411 62.82719 2.149517
v -19.71411 39.48962 2.149517
v -15.04659 39.48962 -6.694195
v -15.04659 62.82719 -6.694195
v -1.658199 39.48962 -11.7302
v -1.658199 62.82719 -11.7302
v 12.34435 39.48962 -9.887756
v 12.34435 62.82719 -9.887756
v 19.09996 39.48962 -2.518002
v 19.09996 62.82719 -2.518002
v 19.09996 62.82719 -2.518002
v 19.09996 39.48962 -2.518002
v 14.43244 39.48962 6.448544
v 14.43244 62.82719 6.448544
v 0.9212189 39.48962 11.36171
v 0.9212189 62.82719 11.36171
v -13.20415 39.48962 9.642101
v -13.20415 62.82719 9.642101
v -19.71411 39.48962 2.149517
v -19.71411 62.82719 2.149517
v 19.09996 62.82719 -2.518002
v 14.43244 62.82719 6.448544
v -19.71411 62.82719 2.149517
v 0.9212189 62.82719 11.36171
v -13.20415 62.82719 9.642101
v 12.34435 62.82719 -9.887756
v -1.658199 62.82719 -11.7302
v -15.04659 62.82719 -6.694195
v 23.52181 25.36425 -3.009315
v 8.168148 7.554005 22.29352
v -23.27616 25.36425 2.640835
v -2.149517 7.554005 23.52182
v -7.799664 7.554005 -22.53918
v 2.518002 7.554005 -23.64464
v -23.27616 25.36425 2.640835
v 23.52181 25.36425 -3.009315
vt 0.5105907 0.7443441
vt 0.1248974 0.7443441
vt 0.5105907 0.6274674
vt 0.1248974 0.6274674
vt 0.1248974 0.7443441
vt 0.1248974 0.6274674
vt 0.5105907 0.7443441
vt 0.5105907 0.6274674
vt 0.8612208 0.2573577
vt 0.7910948 0.2573577
vt 0.7910948 0.319692
vt 0.7326564 0.2573577
vt 0.7326564 0.319692
vt 0.8612208 0.319692
vt 0.6274674 0.6274674
vt 0.997577 0.6274674
vt 0.6274674 0.7443441
vt 0.997577 0.7443441
vt 0.8612208 0.2963167
vt 0.7794071 0.2963167
vt 0.8612208 0.4833194
vt 0.7287605 0.4833194
vt 0.8612208 0.2573577
vt 0.7910948 0.2573577
vt 0.7910948 0.319692
vt 0.7326564 0.2573577
vt 0.7326564 0.319692
vt 0.8612208 0.319692
vt 0.8612208 0.4833194
vt 0.8612208 0.2963167
vt 0.7287605 0.4833194
vt 0.7287605 0.2963167
vt 0.8612208 0.4833194
vt 0.7287605 0.4833194
vt 0.8612208 0.2963167
vt 0.7287605 0.2963167
vt 0.4677359 0.6274674
vt 0.5963002 0.6274674
vt 0.4677359 0.7443441
vt 0.5963002 0.7443441
vt 0.8612208 0.4833194
vt 0.8612208 0.2963167
vt 0.7287605 0.4833194
vt 0.7287605 0.2963167
vt 0.5105907 0.6274674
vt 0.5105907 0.7443441
vt 0.1248974 0.6274674
vt 0.1248974 0.7443441
vt 0.6274674 0.6274674
vt 0.5027989 0.6274674
vt 0.6274674 0.7443441
vt 0.5027989 0.7443441
vt 0.7287605 0.2963167
vt 0.8612208 0.2963167
vt 0.7287605 0.4833194
vt 0.8612208 0.4833194
vt 0.7287605 0.4833194
vt 0.7794071 0.2963167
vt 0.8612208 0.4833194
vt 0.8612208 0.2963167
vt 0.7287605 0.4833194
vt 0.8612208 0.4833194
vt 0.7794071 0.2963167
vt 0.8612208 0.2963167
vt 0.7287605 0.4833194
vt 0.783303 0.2963167
vt 0.8612208 0.4833194
vt 0.8612208 0.2963167
vt 0.6157797 0.00412482
vt 0.6157797 0.2495659
vt 0.5924044 0.2495659
vt 0.5924044 0.00412482
vt 0.5573413 0.2495659
vt 0.5573413 0.00412482
vt 0.5300701 0.2495659
vt 0.5300701 0.00412482
vt 0.498903 0.2495659
vt 0.498903 0.00412482
vt 0.498903 0.00412482
vt 0.498903 0.2495659
vt 0.5300701 0.2495659
vt 0.5300701 0.00412482
vt 0.5573413 0.2495659
vt 0.5573413 0.00412482
vt 0.5924044 0.2495659
vt 0.5924044 0.00412482
vt 0.6157797 0.2495659
vt 0.6157797 0.00412482
vt 0.6157797 0.00412482
vt 0.6157797 0.2495659
vt 0.5924044 0.2495659
vt 0.5924044 0.00412482
vt 0.5573413 0.2495659
vt 0.5573413 0.00412482
vt 0.5300701 0.2495659
vt 0.5300701 0.00412482
vt 0.498903 0.2495659
vt 0.498903 0.00412482
vt 0.498903 0.00412482
vt 0.498903 0.2495659
vt 0.5300701 0.2495659
vt 0.5300701 0.00412482
vt 0.5573413 0.2495659
vt 0.5573413 0.00412482
vt 0.5924044 0.2495659
vt 0.5924044 0.00412482
vt 0.6157797 0.2495659
vt 0.6157797 0.00412482
vt 0.6157797 0.2378783
vt 0.6118838 0.2261906
vt 0.5729249 0.2378783
vt 0.5963002 0.2222947
vt 0.5768208 0.2261906
vt 0.6118838 0.2495659
vt 0.5963002 0.2495659
vt 0.5768208 0.2495659
vt 0.6157797 0.2183988
vt 0.5768208 0.00412482
vt 0.5105907 0.2183988
vt 0.5534455 0.00412482
vt 0.5768208 0.00412482
vt 0.5534455 0.00412482
vt 0.6157797 0.2183988
vt 0.5105907 0.2183988
vn 0.703155 -0.01596814 -0.7108572
vn 0.703155 -0.01596814 -0.7108572
vn 0.703155 -0.01596814 -0.7108572
vn 0.703155 -0.01596814 -0.7108572
vn -0.8504849 -0.01596814 -0.525757
vn -0.8504849 -0.01596814 -0.525757
vn -0.8504849 -0.01596814 -0.525757
vn -0.8504849 -0.01596814 -0.525757
vn -0.1035426 -0.01596814 -0.9944968
vn -0.1035426 -0.01596814 -0.9944968
vn -0.1035426 -0.01596814 -0.9944968
vn -0.1035426 -0.01596814 -0.9944968
vn -0.1035426 -0.01596814 -0.9944968
vn -0.1035426 -0.01596814 -0.9944968
vn -0.7010965 -0.01596814 0.7128876
vn -0.7010965 -0.01596814 0.7128876
vn -0.7010965 -0.01596814 0.7128876
vn -0.7010965 -0.01596814 0.7128876
vn 0.8824212 -0.01596814 0.4701892
vn 0.8824212 -0.01596814 0.4701892
vn 0.8824212 -0.01596814 0.4701892
vn 0.8824212 -0.01596814 0.4701892
vn 0.1354789 -0.01596814 0.9906515
vn 0.1354789 -0.01596814 0.9906515
vn 0.1354789 -0.01596814 0.9906515
vn 0.1354789 -0.01596814 0.9906515
vn 0.1354789 -0.01596814 0.9906515
vn 0.1354789 -0.01596814 0.9906515
vn 0.703155 -0.01596814 -0.7108572
vn 0.703155 -0.01596814 -0.7108572
vn 0.703155 -0.01596814 -0.7108572
vn 0.703155 -0.01596814 -0.7108572
vn -0.8504849 -0.01596814 -0.525757
vn -0.8504849 -0.01596814 -0.525757
vn -0.8504849 -0.01596814 -0.525757
vn -0.8504849 -0.01596814 -0.525757
vn -0.1035426 -0.01596814 -0.9944968
vn -0.1035426 -0.01596814 -0.9944968
vn -0.1035426 -0.01596814 -0.9944968
vn -0.1035426 -0.01596814 -0.9944968
vn -0.7010965 -0.01596814 0.7128876
vn -0.7010965 -0.01596814 0.7128876
vn -0.7010965 -0.01596814 0.7128876
vn -0.7010965 -0.01596814 0.7128876
vn 0.8824212 -0.01596814 0.4701892
vn 0.8824212 -0.01596814 0.4701892
vn 0.8824212 -0.01596814 0.4701892
vn 0.8824212 -0.01596814 0.4701892
vn 0.1354789 -0.01596814 0.9906515
vn 0.1354789 -0.01596814 0.9906515
vn 0.1354789 -0.01596814 0.9906515
vn 0.1354789 -0.01596814 0.9906515
vn 0.8824212 -0.01596814 0.4701892
vn 0.8824212 -0.01596814 0.4701892
vn 0.8824212 -0.01596814 0.4701892
vn 0.8824212 -0.01596814 0.4701892
vn 0.703155 -0.01596814 -0.7108572
vn 0.703155 -0.01596814 -0.7108572
vn 0.703155 -0.01596814 -0.7108572
vn 0.703155 -0.01596814 -0.7108572
vn -0.8504849 -0.01596814 -0.525757
vn -0.8504849 -0.01596814 -0.525757
vn -0.8504849 -0.01596814 -0.525757
vn -0.8504849 -0.01596814 -0.525757
vn -0.7010965 -0.01596814 0.7128876
vn -0.7010965 -0.01596814 0.7128876
vn -0.7010965 -0.01596814 0.7128876
vn -0.7010965 -0.01596814 0.7128876
vn -0.8803626 -0.01596814 -0.4740325
vn -0.8803626 -0.01596814 -0.4740325
vn -0.5815857 -0.01596814 -0.8133284
vn -0.5815857 -0.01596814 -0.8133284
vn -0.1035426 -0.01596814 -0.9944968
vn -0.1035426 -0.01596814 -0.9944968
vn 0.4342558 -0.01596814 -0.9006481
vn 0.4342558 -0.01596814 -0.9006481
vn 0.7629104 -0.01596814 -0.6463069
vn 0.7629104 -0.01596814 -0.6463069
vn 0.8824212 -0.01596814 0.4701892
vn 0.8824212 -0.01596814 0.4701892
vn 0.6135219 -0.01596814 0.7895162
vn 0.6135219 -0.01596814 0.7895162
vn 0.1354789 -0.01596814 0.9906515
vn 0.1354789 -0.01596814 0.9906515
vn -0.4023196 -0.01596814 0.91536
vn -0.4023196 -0.01596814 0.91536
vn -0.7309741 -0.01596814 0.6822183
vn -0.7309741 -0.01596814 0.6822183
vn -0.8803626 -0.01596814 -0.4740325
vn -0.8803626 -0.01596814 -0.4740325
vn -0.5815857 -0.01596814 -0.8133284
vn -0.5815857 -0.01596814 -0.8133284
vn -0.1035426 -0.01596814 -0.9944968
vn -0.1035426 -0.01596814 -0.9944968
vn 0.4342558 -0.01596814 -0.9006481
vn 0.4342558 -0.01596814 -0.9006481
vn 0.7629104 -0.01596814 -0.6463069
vn 0.7629104 -0.01596814 -0.6463069
vn 0.8824212 -0.01596814 0.4701892
vn 0.8824212 -0.01596814 0.4701892
vn 0.6135219 -0.01596814 0.7895162
vn 0.6135219 -0.01596814 0.7895162
vn 0.1354789 -0.01596814 0.9906515
vn 0.1354789 -0.01596814 0.9906515
vn -0.4023196 -0.01596814 0.91536
vn -0.4023196 -0.01596814 0.91536
vn -0.7309741 -0.01596814 0.6822183
vn -0.7309741 -0.01596814 0.6822183
vn 0.01596813 0.9998725 0
vn 0.01596813 0.9998725 0
vn 0.01596813 0.9998725 0
vn 0.01596813 0.9998725 0
vn 0.01596813 0.9998725 0
vn 0.01596813 0.9998725 0
vn 0.01596813 0.9998725 0
vn 0.01596813 0.9998725 0
vn 0.07572353 0.7608518 0.6444924
vn 0.07572353 0.7608518 0.6444924
vn 0.07572353 0.7608518 0.6444924
vn 0.07572353 0.7608518 0.6444924
vn -0.04378724 0.7608518 -0.6474467
vn -0.04378724 0.7608518 -0.6474467
vn -0.04378724 0.7608518 -0.6474467
vn -0.04378724 0.7608518 -0.6474467
g DSJ_GTA_gaoLou_12_0
f 3/3/3 2/2/2 1/1/1
f 4/4/4 2/2/2 3/3/3
f 7/7/7 6/6/6 5/5/5
f 8/8/8 6/6/6 7/7/7
f 11/11/11 10/10/10 9/9/9
f 12/12/12 10/10/10 11/11/11
f 13/13/13 12/12/12 11/11/11
f 11/11/11 9/9/9 14/14/14
f 17/17/17 16/16/16 15/15/15
f 18/18/18 16/16/16 17/17/17
f 21/21/21 20/20/20 19/19/19
f 22/22/22 20/20/20 21/21/21
f 25/25/25 24/24/24 23/23/23
f 26/26/26 24/24/24 25/25/25
f 27/27/27 26/26/26 25/25/25
f 25/25/25 23/23/23 28/28/28
f 31/31/31 30/30/30 29/29/29
f 32/32/32 30/30/30 31/31/31
f 35/35/35 34/34/34 33/33/33
f 36/36/36 34/34/34 35/35/35
f 39/39/39 38/38/38 37/37/37
f 40/40/40 38/38/38 39/39/39
f 43/43/43 42/42/42 41/41/41
f 44/44/44 42/42/42 43/43/43
f 47/47/47 46/46/46 45/45/45
f 48/48/48 46/46/46 47/47/47
f 51/51/51 50/50/50 49/49/49
f 52/52/52 50/50/50 51/51/51
f 55/55/55 54/54/54 53/53/53
f 56/56/56 54/54/54 55/55/55
f 59/59/59 58/58/58 57/57/57
f 60/60/60 58/58/58 59/59/59
f 63/63/63 62/62/62 61/61/61
f 64/64/64 62/62/62 63/63/63
f 67/67/67 66/66/66 65/65/65
f 68/68/68 66/66/66 67/67/67
f 71/71/71 70/70/70 69/69/69
f 72/72/72 71/71/71 69/69/69
f 73/73/73 71/71/71 72/72/72
f 74/74/74 73/73/73 72/72/72
f 75/75/75 73/73/73 74/74/74
f 76/76/76 75/75/75 74/74/74
f 77/77/77 75/75/75 76/76/76
f 78/78/78 77/77/77 76/76/76
f 81/81/81 80/80/80 79/79/79
f 82/82/82 81/81/81 79/79/79
f 83/83/83 81/81/81 82/82/82
f 84/84/84 83/83/83 82/82/82
f 85/85/85 83/83/83 84/84/84
f 86/86/86 85/85/85 84/84/84
f 87/87/87 85/85/85 86/86/86
f 88/88/88 87/87/87 86/86/86
f 91/91/91 90/90/90 89/89/89
f 92/92/92 91/91/91 89/89/89
f 93/93/93 91/91/91 92/92/92
f 94/94/94 93/93/93 92/92/92
f 95/95/95 93/93/93 94/94/94
f 96/96/96 95/95/95 94/94/94
f 97/97/97 95/95/95 96/96/96
f 98/98/98 97/97/97 96/96/96
f 101/101/101 100/100/100 99/99/99
f 102/102/102 101/101/101 99/99/99
f 103/103/103 101/101/101 102/102/102
f 104/104/104 103/103/103 102/102/102
f 105/105/105 103/103/103 104/104/104
f 106/106/106 105/105/105 104/104/104
f 107/107/107 105/105/105 106/106/106
f 108/108/108 107/107/107 106/106/106
f 111/111/111 110/110/110 109/109/109
f 112/112/112 110/110/110 111/111/111
f 113/113/113 112/112/112 111/111/111
f 109/109/109 114/114/114 111/111/111
f 114/114/114 115/115/115 111/111/111
f 111/111/111 115/115/115 116/116/116
f 119/119/119 118/118/118 117/117/117
f 120/120/120 118/118/118 119/119/119
f 123/123/123 122/122/122 121/121/121
f 124/124/124 122/122/122 123/123/123
