g DSJ_GTA_daoJu_che_01
v 1.548697 0.09636259 0.07140136
v 1.38622 0.800617 -0.008118629
v 1.360363 0.7976928 -0.02155423
v 1.577198 0.1092932 0.09028649
v 1.244915 1.091678 -0.02534425
v 1.38622 0.800617 -0.008118629
v 1.259911 1.109644 -0.01535296
v 1.38622 0.800617 -0.008118629
v 1.360363 0.7976928 -0.02155423
v 1.256941 1.101012 0.0109942
v 1.309849 0.8288136 0.0540657
v 1.242921 1.084345 0.001914382
v 1.309849 0.8288136 0.0540657
v 1.256941 1.101012 0.0109942
v 1.328191 0.8308413 0.06336212
v 1.548697 0.09636259 0.07140136
v 0.880026 0.8076043 0.8973284
v 1.053873 0.1055222 0.9386492
v 1.360363 0.7976928 -0.02155423
v 1.309849 0.8288136 0.0540657
v 1.244915 1.091678 -0.02534425
v 1.242921 1.084345 0.001914382
v 0.8738739 0.8352542 0.8826814
v 0.9060239 0.8105435 0.9108324
v 1.328191 0.8308413 0.06336212
v 1.38622 0.800617 -0.008118629
v 0.8938338 0.8375137 0.8930523
v 1.256941 1.101012 0.0109942
v 1.259911 1.109644 -0.01535296
v 1.094795 0.1101475 0.9599116
v 1.577198 0.1092932 0.09028649
v 0.9060239 0.8105435 0.9108324
v 0.9060239 0.8105435 0.9108324
v 1.053873 0.1055222 0.9386492
v 0.880026 0.8076043 0.8973284
v 1.094795 0.1101475 0.9599116
v 0.8738739 0.8352542 0.8826814
v 0.9060239 0.8105435 0.9108324
v 0.880026 0.8076043 0.8973284
v 0.9060239 0.8105435 0.9108324
v 0.8938338 0.8375137 0.8930523
v 1.309849 0.8288136 0.0540657
v 0.8938338 0.8375137 0.8930523
v 0.8738739 0.8352542 0.8826814
v 1.328191 0.8308413 0.06336212
v 0.1923554 0.6430349 -1.958872
v 0.1915162 0.3379116 -1.934845
v 0.206262 0.3452179 -1.9852
v 0.176178 0.6350183 -1.903629
v 0.1734627 0.7769735 -1.836789
v 1.544794 0.6908078 -1.550555
v 1.581743 0.4012923 -1.630261
v 1.569732 0.3940959 -1.579176
v 1.581743 0.4012923 -1.630261
v 1.557956 0.6987028 -1.606598
v 1.498171 0.8308187 -1.476996
v 0.176178 0.6350183 -1.903629
v 0.1734627 0.7769735 -1.836789
v 1.544794 0.6908078 -1.550555
v 0.1915162 0.3379116 -1.934845
v 1.569732 0.3940959 -1.579176
v 1.569732 0.3940959 -1.579176
v 0.206262 0.3452179 -1.9852
v 0.1915162 0.3379116 -1.934845
v 1.581743 0.4012923 -1.630261
v 1.557956 0.6987028 -1.606598
v 0.206262 0.3452179 -1.9852
v 1.581743 0.4012923 -1.630261
v 0.1923554 0.6430349 -1.958872
v 1.498171 0.8308187 -1.476996
v 0.1734627 0.7769735 -1.836789
v -0.1451304 1.143575 -0.3544375
v -0.2316911 0.7891028 -0.4925495
v -0.1290555 1.107681 -0.4247828
v -0.1451304 1.143575 -0.3544375
v -0.2470825 0.7513099 -0.4637226
v 0.06256747 0.7131941 -1.693953
v 0.1209658 0.6470869 -1.990991
v 0.1331103 0.7189891 -1.850327
v 0.1508447 0.6823847 -1.986335
v 0.06909168 0.7791648 -1.646453
v 0.1606727 1.095027 -1.510369
v 0.2017088 1.134282 -1.640548
v 0.1606727 1.095027 -1.510369
v -0.06766462 0.1056361 -1.495236
v 0.07530439 0.1153805 -1.918633
v -0.1161819 0.3020251 -1.41856
v -0.2228467 0.3697348 -1.145723
v -0.2470825 0.7513099 -0.4637226
v -0.2926831 0.2619498 -0.8869413
v -0.2896185 0.04235411 -0.7979577
v -0.3555965 0.03815794 -0.5073941
v 1.284694 1.173875 -1.19996
v 1.506784 0.747911 -1.438634
v 1.304521 1.191488 -1.345625
v 1.446354 0.8359756 -1.283858
v 1.452297 0.3837781 -0.9828705
v 1.490774 0.169013 -1.075458
v 1.558936 0.1757307 -1.519905
v 1.420087 0.4408662 -0.8618358
v 1.38897 0.4629867 -0.7171693
v 1.143464 0.8455377 -0.1216798
v 1.142294 0.8086524 -0.08888817
v 0.9820236 1.245854 -0.05641174
v 0.9996365 1.210871 -0.12989
v 1.331901 0.3460877 -0.4485705
v 1.335577 0.1084919 -0.3658224
v 1.29456 0.1052184 -0.0620662
v 1.562274 0.6810367 -1.593584
v -0.2470825 0.7513099 -0.4637226
v -0.3069808 0.04009461 -0.4938636
v -0.3555965 0.03815794 -0.5073941
v -0.2155592 0.7534404 -0.4549769
v 1.343388 0.1072426 -0.04933321
v 1.29456 0.1052184 -0.0620662
v 1.173996 0.809093 -0.08058679
v 1.142294 0.8086524 -0.08888817
v 0.07530439 0.1153805 -1.918633
v 0.1915921 0.1201274 -1.888549
v 0.1209658 0.6470869 -1.990991
v 0.1508447 0.6823847 -1.986335
v 0.1209658 0.6470869 -1.990991
v 0.174226 0.6641984 -1.975858
v 0.1874491 0.6251333 -1.964257
v 1.462741 0.333328 -0.4136598
v 1.343388 0.1072426 -0.04933321
v 1.173996 0.809093 -0.08058679
v 1.432079 0.1123614 -0.3337752
v 1.524283 0.440779 -0.674675
v 1.631297 0.7084966 -1.583798
v 1.527526 0.7727582 -1.298984
v 1.172352 0.8461947 -0.1140088
v 1.02917 1.211209 -0.1208746
v 1.008975 1.246097 -0.04915845
v 1.477 0.8364124 -1.274566
v 1.30989 1.174039 -1.192118
v 1.336454 1.212097 -1.319209
v 1.544794 0.7763886 -1.469724
v 1.600556 0.7413299 -1.595475
v 1.585066 0.3710942 -0.9473636
v 1.674601 0.1804132 -1.487451
v 1.586008 0.1728826 -1.049388
v -0.1451304 1.143575 -0.3544375
v -0.2155592 0.7534404 -0.4549769
v -0.2470825 0.7513099 -0.4637226
v -0.1182325 1.145519 -0.3471805
v 0.9820236 1.245854 -0.05641174
v 1.173996 0.809093 -0.08058679
v 1.142294 0.8086524 -0.08888817
v 1.173996 0.809093 -0.08058679
v 1.008975 1.246097 -0.04915845
v -0.001804233 0.3246469 -1.374912
v 0.1915921 0.1201274 -1.888549
v 0.02775943 0.1095209 -1.469903
v 0.1524093 0.6928432 -1.803785
v 0.1874491 0.6251333 -1.964257
v -0.08661056 0.4029858 -1.114998
v 0.1001858 0.7812381 -1.639078
v 0.244036 1.116696 -1.646932
v 0.1863402 1.096926 -1.504513
v -0.2029021 0.7907927 -0.4846773
v -0.2155592 0.7534404 -0.4549769
v -0.09905124 1.109762 -0.4177459
v -0.1182325 1.145519 -0.3471805
v -0.1633925 0.2852855 -0.8517193
v -0.1901121 0.04645562 -0.7771549
v -0.3069808 0.04009461 -0.4938636
v 1.506784 0.747911 -1.438634
v 1.516495 0.7647684 -1.486198
v 1.304521 1.191488 -1.345625
v 1.576514 0.7212183 -1.59778
v 1.516495 0.7647684 -1.486198
v 1.562274 0.6810367 -1.593584
v 1.576514 0.7212183 -1.59778
v 1.544794 0.7763886 -1.469724
v 1.576514 0.7212183 -1.59778
v 1.600556 0.7413299 -1.595475
v 1.516495 0.7647684 -1.486198
v 1.336454 1.212097 -1.319209
v 1.516495 0.7647684 -1.486198
v 1.544794 0.7763886 -1.469724
v 1.516495 0.7647684 -1.486198
v 1.304521 1.191488 -1.345625
v 1.477 0.8364124 -1.274566
v 1.284694 1.173875 -1.19996
v 1.30989 1.174039 -1.192118
v 1.284694 1.173875 -1.19996
v 1.477 0.8364124 -1.274566
v 1.446354 0.8359756 -1.283858
v 1.631297 0.7084966 -1.583798
v 1.558936 0.1757307 -1.519905
v 1.674601 0.1804132 -1.487451
v 1.600556 0.7413299 -1.595475
v 1.576514 0.7212183 -1.59778
v 1.562274 0.6810367 -1.593584
v 1.143464 0.8455377 -0.1216798
v 1.02917 1.211209 -0.1208746
v 0.9996365 1.210871 -0.12989
v 1.172352 0.8461947 -0.1140088
v 1.172352 0.8461947 -0.1140088
v 1.446354 0.8359756 -1.283858
v 1.477 0.8364124 -1.274566
v 1.143464 0.8455377 -0.1216798
v -0.2316911 0.7891028 -0.4925495
v -0.09905124 1.109762 -0.4177459
v -0.1290555 1.107681 -0.4247828
v -0.09905124 1.109762 -0.4177459
v -0.2316911 0.7891028 -0.4925495
v -0.2029021 0.7907927 -0.4846773
v -0.2029021 0.7907927 -0.4846773
v 0.06909168 0.7791648 -1.646453
v 0.1001858 0.7812381 -1.639078
v -0.2316911 0.7891028 -0.4925495
v 0.1606727 1.095027 -1.510369
v 0.1001858 0.7812381 -1.639078
v 0.06909168 0.7791648 -1.646453
v 0.1001858 0.7812381 -1.639078
v 0.1606727 1.095027 -1.510369
v 0.1863402 1.096926 -1.504513
v 0.1508447 0.6823847 -1.986335
v 0.1666462 0.7098866 -1.850137
v 0.1331103 0.7189891 -1.850327
v 0.1666462 0.7098866 -1.850137
v 0.174226 0.6641984 -1.975858
v 0.1874491 0.6251333 -1.964257
v 0.1666462 0.7098866 -1.850137
v 0.174226 0.6641984 -1.975858
v 0.1666462 0.7098866 -1.850137
v 0.1874491 0.6251333 -1.964257
v 0.1524093 0.6928432 -1.803785
v 0.244036 1.116696 -1.646932
v 0.1666462 0.7098866 -1.850137
v 0.244036 1.116696 -1.646932
v 0.1331103 0.7189891 -1.850327
v 0.1666462 0.7098866 -1.850137
v 0.244036 1.116696 -1.646932
v 0.2017088 1.134282 -1.640548
v -0.4114392 0.8526733 0.5590906
v -0.2262037 1.153752 0.3215518
v -0.4094646 0.8450174 0.5522552
v 0.91071 0.7938952 0.9231136
v 0.8515749 1.231097 0.5205951
v 0.887116 0.792532 0.9130728
v 0.7212819 1.236246 0.576582
v 0.7969021 0.894074 0.8775015
v 0.7713333 0.8695951 0.8880777
v -0.4973772 0.7362413 0.539803
v -0.3908908 0.822335 0.5747402
v -0.4094646 0.8450174 0.5522552
v -0.2262037 1.153752 0.3215518
v -0.3020401 1.128259 0.2154224
v -0.5228205 0.7356071 0.5366244
v 0.7212819 1.236246 0.576582
v 0.794578 0.9017146 0.8842382
v 0.7969021 0.894074 0.8775015
v -0.5270395 0.7464263 0.66781
v 0.7657472 0.8810673 0.9024208
v 0.8476863 0.8023181 1.038437
v -0.3941338 0.8339021 0.5897062
v -0.5228205 0.7356071 0.5366244
v -0.4114392 0.8526733 0.5590906
v -0.2262037 1.153752 0.3215518
v -0.3020401 1.128259 0.2154224
v 0.794578 0.9017146 0.8842382
v 0.91071 0.7938952 0.9231136
v 0.8009844 1.238209 0.5790923
v 0.7212819 1.236246 0.576582
v 0.8515749 1.231097 0.5205951
v 0.8515749 1.231097 0.5205951
v 0.8009844 1.238209 0.5790923
v 0.7212819 1.236246 0.576582
v -0.3908908 0.822335 0.5747402
v -0.4114392 0.8526733 0.5590906
v -0.4094646 0.8450174 0.5522552
v -0.3941338 0.8339021 0.5897062
v 0.7713333 0.8695951 0.8880777
v -0.3941338 0.8339021 0.5897062
v -0.3908908 0.822335 0.5747402
v 0.7657472 0.8810673 0.9024208
v 0.7969021 0.894074 0.8775015
v 0.7657472 0.8810673 0.9024208
v 0.7713333 0.8695951 0.8880777
v 0.794578 0.9017146 0.8842382
v 1.341725 1.224717 -1.347953
v -0.2865918 1.155256 0.2984326
v 0.2069834 1.146905 -1.661837
v 0.7945969 1.252697 0.582772
v 0.1961833 1.124276 -1.654398
v -0.2865918 1.155256 0.2984326
v -0.290359 1.127512 0.3062098
v -0.2865918 1.155256 0.2984326
v 0.1961833 1.124276 -1.654398
v 0.2069834 1.146905 -1.661837
v 0.7945969 1.252697 0.582772
v -0.290359 1.127512 0.3062098
v -0.2865918 1.155256 0.2984326
v 0.7959868 1.227618 0.5932493
v 1.341725 1.224717 -1.347953
v 0.7959868 1.227618 0.5932493
v 0.7945969 1.252697 0.582772
v 0.7959868 1.227618 0.5932493
v 1.349031 1.202816 -1.33563
v 0.2069834 1.146905 -1.661837
v 1.349031 1.202816 -1.33563
v 1.341725 1.224717 -1.347953
v 0.1961833 1.124276 -1.654398
v 0.1781718 0.3636093 -1.887281
v 1.563033 0.17537 -1.477445
v 0.1791856 0.1190984 -1.85054
v 1.563838 0.4199572 -1.513692
v 0.1886414 0.3643689 -1.922423
v 1.571593 0.1760535 -1.5131
v 1.572413 0.4206369 -1.549351
v 0.1890554 0.1205719 -1.885355
v 1.572413 0.4206369 -1.549351
v 0.1781718 0.3636093 -1.887281
v 0.1886414 0.3643689 -1.922423
v 1.563838 0.4199572 -1.513692
v 0.555577 0.6700392 1.963798
v 0.5687621 0.4998872 1.940595
v 0.5141878 0.5830112 1.939266
v 0.6646761 0.5037873 1.966464
v 0.7060653 0.5908113 1.990996
v 0.6515101 0.6739392 1.989667
v 0.7310075 0.5920494 1.928679
v 0.6515101 0.6739392 1.989667
v 0.6782333 0.6895165 1.903376
v 0.6515101 0.6739392 1.989667
v 0.7060653 0.5908113 1.990996
v 0.6810017 0.4969063 1.922135
v 0.7060653 0.5908113 1.990996
v 0.7310075 0.5920494 1.928679
v 0.6646761 0.5037873 1.966464
v 0.5774508 0.4926949 1.894212
v 0.6646761 0.5037873 1.966464
v 0.6810017 0.4969063 1.922135
v 0.5687621 0.4998872 1.940595
v 0.5238754 0.5836265 1.872836
v 0.5687621 0.4998872 1.940595
v 0.5774508 0.4926949 1.894212
v 0.5141878 0.5830112 1.939266
v 0.5744203 0.6852899 1.876405
v 0.5141878 0.5830112 1.939266
v 0.5238754 0.5836265 1.872836
v 0.555577 0.6700392 1.963798
v 0.6782333 0.6895165 1.903376
v 0.555577 0.6700392 1.963798
v 0.5744203 0.6852899 1.876405
v 0.6782333 0.6895165 1.903376
v 0.6515101 0.6739392 1.989667
v -0.6213815 0.5417132 1.61075
v 0.4959674 0.6052952 1.879083
v 0.4625301 0.5839341 1.925086
v -0.6166496 0.5576856 1.552333
v 0.5459428 0.5495856 1.897186
v 0.5042839 0.5348282 1.939896
v 0.5430946 0.303582 1.924695
v 0.5889155 0.303339 1.889686
v 0.5291083 0.2153199 1.850062
v 0.4879014 0.2411203 1.888094
v -0.6040115 0.1965945 1.599502
v -0.6087813 0.1653559 1.546484
v -0.6828063 0.2495053 1.528294
v -0.6717138 0.2555926 1.584558
v -0.6607351 0.4898582 1.599111
v -0.664115 0.4986835 1.538396
v 0.5430946 0.303582 1.924695
v 0.4625301 0.5839341 1.925086
v 0.5042839 0.5348282 1.939896
v 0.4879014 0.2411203 1.888094
v -0.6213815 0.5417132 1.61075
v -0.6040115 0.1965945 1.599502
v -0.6717138 0.2555926 1.584558
v -0.6607351 0.4898582 1.599111
v 0.8430191 0.857872 1.029984
v 0.1601828 0.8439353 0.8430808
v 0.1622525 0.8143184 0.8384895
v -0.5228205 0.7365148 0.6663668
v -0.5187991 0.7597744 0.6721961
v -0.07571173 0.6073229 1.753818
v -0.6382158 0.584538 1.585922
v -0.3227444 0.5995684 1.686731
v 0.4949306 0.6306207 1.891425
v 0.1713932 0.6196649 1.819952
v -0.7530756 0.7203448 1.503379
v 0.8430191 0.857872 1.029984
v 0.6242249 0.7535353 1.888455
v 0.1601828 0.8439353 0.8430808
v -0.5187991 0.7597744 0.6721961
v -0.5228205 0.7365148 0.6663668
v -0.7530756 0.7203448 1.503379
v -0.7574503 0.6973584 1.515945
v -0.5187991 0.7597744 0.6721961
v 0.6242249 0.7535353 1.888455
v -0.7574503 0.6973584 1.515945
v -0.7530756 0.7203448 1.503379
v 0.1713932 0.6196649 1.819952
v -0.3227444 0.5995684 1.686731
v -0.6382158 0.584538 1.585922
v -0.07571173 0.6073229 1.753818
v 0.4949306 0.6306207 1.891425
v -0.8245983 0.6150167 1.592362
v -0.8110828 0.4404485 1.568556
v -0.8670394 0.5257294 1.567185
v -0.712651 0.4444511 1.595093
v -0.6702099 0.5337307 1.620266
v -0.7261665 0.6190119 1.618896
v -0.8021586 0.4330661 1.520965
v -0.712651 0.4444511 1.595093
v -0.6959116 0.4373877 1.549613
v -0.8110828 0.4404485 1.568556
v -0.8571165 0.5263598 1.499042
v -0.8110828 0.4404485 1.568556
v -0.8021586 0.4330661 1.520965
v -0.8670394 0.5257294 1.567185
v -0.8050106 0.6306815 1.501727
v -0.8670394 0.5257294 1.567185
v -0.8571165 0.5263598 1.499042
v -0.8245983 0.6150167 1.592362
v -0.699018 0.6349804 1.531344
v -0.8245983 0.6150167 1.592362
v -0.8050106 0.6306815 1.501727
v -0.7261665 0.6190119 1.618896
v -0.6446033 0.5349991 1.556328
v -0.7261665 0.6190119 1.618896
v -0.699018 0.6349804 1.531344
v -0.7261665 0.6190119 1.618896
v -0.6702099 0.5337307 1.620266
v -0.6959116 0.4373877 1.549613
v -0.6702099 0.5337307 1.620266
v -0.6446033 0.5349991 1.556328
v -0.712651 0.4444511 1.595093
v -0.5308864 0.600347 0.5215597
v 0.9414319 0.7024243 0.7991853
v -0.4801705 0.6446147 0.4159164
v 0.9354357 0.659972 0.9168932
v 1.297199 0.2764487 -0.2689173
v 0.1666082 0.2421381 -1.873587
v 1.563717 0.2989414 -1.496922
v -0.2183921 0.2148263 -0.6775231
v -0.2812183 0.2077401 -0.5523605
v 1.289034 0.271584 -0.1290052
v -0.4994049 0.7579858 0.588624
v 0.9414319 0.7024243 0.7991853
v 0.8627244 0.8133729 0.9558558
v -0.4801705 0.6446147 0.4159164
v 1.186589 0.753087 -0.1178138
v -0.320576 0.1550381 -0.431493
v -0.235014 0.6952889 -0.501075
v 1.272002 0.2163568 0.004379034
v 1.211436 0.754967 -0.2102418
v -0.235014 0.6952889 -0.501075
v -0.2101705 0.6971686 -0.5935067
v 1.186589 0.753087 -0.1178138
v 1.272002 0.2163568 0.004379034
v -0.586843 0.1503937 0.5048316
v -0.320576 0.1550381 -0.431493
v 1.02612 0.2159808 0.9396935
v 0.9414319 0.7024243 0.7991853
v 0.9354357 0.659972 0.9168932
v 0.8627244 0.8133729 0.9558558
v 1.017876 0.1487761 1.043404
v 0.9354357 0.659972 0.9168932
v 1.02612 0.2159808 0.9396935
v 1.186589 0.753087 -0.1178138
v 1.283156 0.2208986 -0.08461595
v 1.272002 0.2163568 0.004379034
v 1.281549 0.3019111 -0.1038352
v 1.289034 0.271584 -0.1290052
v 1.211436 0.754967 -0.2102418
v 1.281549 0.3019111 -0.1038352
v -0.2812183 0.2077401 -0.5523605
v 1.289034 0.271584 -0.1290052
v -0.2896981 0.2380216 -0.527445
v -0.3084276 0.1647294 -0.5146778
v -0.235014 0.6952889 -0.501075
v -0.320576 0.1550381 -0.431493
v -0.235014 0.6952889 -0.501075
v -0.2896981 0.2380216 -0.527445
v -0.2896981 0.2380216 -0.527445
v -0.2101705 0.6971686 -0.5935067
v -0.2896981 0.2380216 -0.527445
v -0.2812183 0.2077401 -0.5523605
v -0.5308864 0.600347 0.5215597
v -0.4801705 0.6446147 0.4159164
v -0.4994049 0.7579858 0.588624
v -0.586843 0.1503937 0.5048316
v 0.9354357 0.659972 0.9168932
v -0.5308864 0.600347 0.5215597
v 1.02612 0.2159808 0.9396935
v -0.626713 0.08190155 0.6000242
v -0.5308864 0.600347 0.5215597
v -0.4994049 0.7579858 0.588624
v -0.5308864 0.600347 0.5215597
v -0.586843 0.1503937 0.5048316
v -0.2101705 0.6971686 -0.5935067
v 1.281549 0.3019111 -0.1038352
v 1.211436 0.754967 -0.2102418
v -0.2896981 0.2380216 -0.527445
v -0.6213396 0.7314677 1.052879
v -0.6375892 0.589186 0.5054469
v -0.4876478 0.7553239 0.5491297
v -0.7640922 0.5611336 1.010893
v -0.7565315 0.6785152 1.517851
v -0.8796775 0.4997659 1.476067
v -0.8329375 0.3867211 1.113692
v -0.8667886 0.2956033 1.256585
v -0.7928586 0.3950946 0.949738
v -0.7516479 0.3198962 0.7848535
v -0.8830612 0.188031 1.319837
v -0.8631773 0.06215835 1.502266
v -0.8754206 0.06301284 1.34435
v -0.7125902 0.1541836 0.7048168
v -0.6375892 0.589186 0.5054469
v -0.6318436 0.01956153 0.4950113
v -0.6835887 0.01669812 0.6856506
v 0.5271146 0.2646573 1.88007
v 0.6239135 0.7346463 1.890031
v 0.7702814 0.1285808 1.942661
v 0.4898534 0.5979545 1.851213
v 0.7645395 0.5666211 1.919359
v -0.05221629 0.229538 1.723646
v -0.04671001 0.1014817 1.722519
v 1.036317 0.6572528 0.9567406
v 1.03048 0.08714604 0.9431834
v 1.079719 0.08915496 0.9564595
v 0.8726246 0.8106349 0.9158678
v -0.73593 0.06812048 1.50456
v -0.04671001 0.1014817 1.722519
v -0.04028082 0.1019678 1.698625
v -0.8631773 0.06215835 1.502266
v 0.860032 0.1335821 1.812235
v 0.7645395 0.5666211 1.919359
v 0.869446 0.2592876 1.792317
v 0.7702814 0.1285808 1.942661
v 0.879012 0.3665943 1.727258
v 0.8949084 0.628593 1.458173
v 0.9146936 0.4577842 1.584858
v 0.9618056 0.4664426 1.422807
v 1.036317 0.6572528 0.9567406
v 0.8726246 0.8106349 0.9158678
v 0.7379416 0.7867332 1.419355
v 0.6239135 0.7346463 1.890031
v 1.036317 0.6572528 0.9567406
v 1.014755 0.3917263 1.261082
v 1.079719 0.08915496 0.9564595
v 1.033799 0.2251973 1.175653
v 1.028836 0.08632946 1.147327
v -0.7565315 0.6785152 1.517851
v -0.8631773 0.06215835 1.502266
v -0.8796775 0.4997659 1.476067
v -0.63255 0.2175074 1.567413
v -0.6111813 0.5531855 1.554364
v -0.05221629 0.229538 1.723646
v -0.04671001 0.1014817 1.722519
v 0.860032 0.1335821 1.812235
v 0.6590329 0.1248441 1.880659
v 0.7702814 0.1285808 1.942661
v 0.7459886 0.1289794 1.781483
v -0.04671001 0.1014817 1.722519
v 0.6590329 0.1248441 1.880659
v -0.04028082 0.1019678 1.698625
v 0.7702814 0.1285808 1.942661
v -0.5826049 0.02155519 0.5082836
v -0.6375892 0.589186 0.5054469
v -0.6318436 0.01956153 0.4950113
v -0.4876478 0.7553239 0.5491297
v -1.189798 0.02152109 -0.9875528
v -1.6714 0.1022904 -0.1185696
v -1.674594 0.06598997 -0.1157442
v -1.198605 0.06672287 -0.9927288
v -1.674594 0.06598997 -0.1157442
v -1.031123 0.1172755 0.2189541
v -1.025556 0.08871055 0.2222238
v -1.6714 0.1022904 -0.1185696
v -1.025556 0.08871055 0.2222238
v -0.7155221 0.1050627 0.327328
v -0.7265956 0.0823915 0.3239405
v -1.031123 0.1172755 0.2189541
v -0.7138207 0.1110969 0.3001566
v -0.954428 0.0881865 0.1575825
v -0.7239981 0.09006238 0.2968261
v -0.954428 0.0881865 0.1575825
v -0.7138207 0.1110969 0.3001566
v -0.9584913 0.1083362 0.1554368
v -0.5375283 0.1075652 -0.6928765
v -0.9584913 0.1083362 0.1554368
v -1.031123 0.1172755 0.2189541
v -0.5328801 0.09858418 -0.6338288
v -0.7138207 0.1110969 0.3001566
v -0.7155221 0.1050627 0.327328
v -0.5143824 0.09815884 -0.6690395
v -0.3429775 0.07249141 -0.2451183
v -0.3165505 0.06897473 -0.2646489
v -1.198605 0.06672287 -0.9927288
v -1.6714 0.1022904 -0.1185696
v -0.5375283 0.1075652 -0.6928765
v -0.5375283 0.1075652 -0.6928765
v -1.189798 0.02152109 -0.9875528
v -0.5319421 0.07885218 -0.6895916
v -1.198605 0.06672287 -0.9927288
v -0.3394608 0.05347705 -0.2430409
v -0.5328801 0.09858418 -0.6338288
v -0.3429775 0.07249141 -0.2451183
v -0.5328801 0.09858418 -0.6338288
v -0.3394608 0.05347705 -0.2430409
v -0.5295193 0.07655478 -0.6295907
v -0.5100875 0.07611036 -0.6665179
v -0.5375283 0.1075652 -0.6928765
v -0.5319421 0.07885218 -0.6895916
v -0.5375283 0.1075652 -0.6928765
v -0.5143824 0.09815884 -0.6690395
v -0.3165505 0.06897473 -0.2646489
v -0.3122365 0.04675555 -0.2620134
v -0.954428 0.0881865 0.1575825
v -0.5328801 0.09858418 -0.6338288
v -0.5295193 0.07655478 -0.6295907
v -0.9584913 0.1083362 0.1554368
vt 0.1902971 0.743072
vt 0.1888041 0.7157163
vt 0.1877135 0.7155995
vt 0.1916344 0.7431239
vt 0.1929717 0.7002792
vt 0.1917253 0.7143791
vt 0.1938675 0.7009544
vt 0.1917253 0.7143791
vt 0.1904529 0.7141194
vt 0.1949322 0.7015386
vt 0.1963214 0.7119122
vt 0.1957501 0.7017593
vt 0.1963214 0.7119122
vt 0.1949322 0.7015386
vt 0.1955164 0.7128211
vt 0.2923974 0.5493879
vt 0.2728966 0.536119
vt 0.2737405 0.5489335
vt 0.2922806 0.5362099
vt 0.2905928 0.5356386
vt 0.2913328 0.5305492
vt 0.2908524 0.5307699
vt 0.2730784 0.5355737
vt 0.2349595 0.7139246
vt 0.1955164 0.7128211
vt 0.1917642 0.7143142
vt 0.2328692 0.7124835
vt 0.1949451 0.7014997
vt 0.1939195 0.7009804
vt 0.2331548 0.742384
vt 0.1917253 0.743059
vt 0.2374653 0.7167161
vt 0.2374653 0.7167161
vt 0.237699 0.7419944
vt 0.2385039 0.7166511
vt 0.2356996 0.7421632
vt 0.235375 0.7124186
vt 0.2349595 0.7139246
vt 0.2359462 0.7138987
vt 0.2349595 0.7139246
vt 0.2345441 0.7124965
vt 0.1963214 0.7119122
vt 0.2328692 0.7124835
vt 0.2307529 0.7115098
vt 0.1955683 0.7128211
vt 0.2580567 0.8298261
vt 0.271793 0.8274632
vt 0.2695339 0.8294496
vt 0.2583164 0.8276709
vt 0.2506303 0.8292419
vt 0.2595238 0.8908864
vt 0.2705856 0.8888999
vt 0.2727148 0.890406
vt 0.2705856 0.8888999
vt 0.2591603 0.8887571
vt 0.3232067 0.5385469
vt 0.3502897 0.5417538
vt 0.3499132 0.5387416
vt 0.3228042 0.5417148
vt 0.3503546 0.5471678
vt 0.3226873 0.5471288
vt 0.2728576 0.8905488
vt 0.2695729 0.8296054
vt 0.271767 0.8275021
vt 0.2705985 0.8887311
vt 0.2591343 0.8887052
vt 0.2695209 0.8295794
vt 0.2706245 0.8887441
vt 0.2580567 0.829943
vt 0.2504356 0.8873938
vt 0.2506303 0.8292419
vt 0.1932443 0.7564448
vt 0.1868696 0.7721415
vt 0.1869604 0.7580937
vt 0.1932443 0.7564448
vt 0.1902971 0.7744007
vt 0.1354429 0.7761663
vt 0.1228621 0.7791914
vt 0.1283411 0.775699
vt 0.1227323 0.7774647
vt 0.1385069 0.7731672
vt 0.1433108 0.7591712
vt 0.1357934 0.7575354
vt 0.1433108 0.7591712
vt 0.1449726 0.8013409
vt 0.1263806 0.8008605
vt 0.1486339 0.7936807
vt 0.1608122 0.7911879
vt 0.1902971 0.7744007
vt 0.1719908 0.7953686
vt 0.1754703 0.8038726
vt 0.1881679 0.8038467
vt 0.3125734 0.5290821
vt 0.3186106 0.5374044
vt 0.3162087 0.5286666
vt 0.3148454 0.5357684
vt 0.3101845 0.5441167
vt 0.3119891 0.5480247
vt 0.3202724 0.547739
vt 0.3078475 0.543091
vt 0.305134 0.5427145
vt 0.2933841 0.5354049
vt 0.2927869 0.5361061
vt 0.2915145 0.527615
vt 0.2929297 0.5282252
vt 0.3000446 0.5448178
vt 0.2985775 0.5491412
vt 0.2929427 0.549336
vt 0.3216227 0.5386897
vt 0.1902971 0.7744007
vt 0.191206 0.8037688
vt 0.1881679 0.8038467
vt 0.1938805 0.7750368
vt 0.179521 0.7429032
vt 0.1814296 0.7429811
vt 0.1849221 0.7158721
vt 0.1861685 0.7158981
vt 0.1261599 0.8010553
vt 0.1215249 0.8011202
vt 0.1223688 0.7797108
vt 0.1211483 0.7784125
vt 0.1223688 0.7797108
vt 0.1202135 0.7791784
vt 0.1196942 0.7807624
vt 0.1641359 0.7348796
vt 0.1794302 0.7429162
vt 0.1797288 0.7140934
vt 0.1675375 0.743046
vt 0.1534117 0.7308418
vt 0.1170197 0.7193646
vt 0.1290551 0.7164304
vt 0.1784434 0.7125614
vt 0.1794691 0.6968387
vt 0.1824293 0.6954885
vt 0.1320023 0.7135611
vt 0.136897 0.6987862
vt 0.1296783 0.6972152
vt 0.1222389 0.716002
vt 0.1168249 0.7176898
vt 0.1422461 0.7334385
vt 0.1203693 0.7401638
vt 0.1382473 0.7406182
vt 0.1932054 0.7564577
vt 0.1895831 0.7742708
vt 0.1882198 0.7737385
vt 0.1943349 0.7563799
vt 0.2090839 0.6851538
vt 0.1797288 0.7140934
vt 0.1810271 0.7141064
vt 0.1797288 0.7140934
vt 0.2087074 0.6844397
vt 0.3817611 0.574134
vt 0.3782037 0.5640849
vt 0.3779051 0.5723034
vt 0.3884475 0.5657728
vt 0.3872011 0.5627607
vt 0.3831373 0.5791455
vt 0.3900704 0.569499
vt 0.3965231 0.5680448
vt 0.3961076 0.5716541
vt 0.390356 0.5908564
vt 0.3896809 0.5914406
vt 0.3964711 0.5909083
vt 0.3971722 0.5936998
vt 0.381047 0.584183
vt 0.3767366 0.5856372
vt 0.3765159 0.5912329
vt 0.1204602 0.7141714
vt 0.1210315 0.7153658
vt 0.1287306 0.6971503
vt 0.1159031 0.7169627
vt 0.1210315 0.7153658
vt 0.1143451 0.7173263
vt 0.1159031 0.7169627
vt 0.1223039 0.716002
vt 0.1159031 0.7169627
vt 0.1168249 0.7177027
vt 0.1210315 0.7153658
vt 0.1296524 0.6972282
vt 0.1210315 0.7153658
vt 0.1223039 0.716002
vt 0.1210315 0.7153658
vt 0.1287306 0.6971503
vt 0.1319894 0.7135221
vt 0.1374293 0.699682
vt 0.136897 0.6987991
vt 0.1374293 0.699682
vt 0.1319894 0.7135221
vt 0.1327164 0.7123536
vt 0.1163965 0.7193387
vt 0.115241 0.7401378
vt 0.1203174 0.7401378
vt 0.1151241 0.7179754
vt 0.1141504 0.7187933
vt 0.1136181 0.7205201
vt 0.177989 0.7117305
vt 0.1713286 0.6841281
vt 0.1708742 0.6850499
vt 0.1784824 0.7125614
vt 0.1784564 0.7125354
vt 0.1327424 0.7123407
vt 0.1319894 0.7135871
vt 0.1779501 0.7118084
vt 0.1869085 0.7721415
vt 0.1862593 0.759405
vt 0.1869345 0.7581326
vt 0.1862593 0.759405
vt 0.1869085 0.7721415
vt 0.1859348 0.7708822
vt 0.1859867 0.7708951
vt 0.1385199 0.7731802
vt 0.1395326 0.7718689
vt 0.1869215 0.7721286
vt 0.1433237 0.7591842
vt 0.1395456 0.7718559
vt 0.1385199 0.7731802
vt 0.1395456 0.7718559
vt 0.1433237 0.7591842
vt 0.1441676 0.7602619
vt 0.1226804 0.7773738
vt 0.127627 0.7745564
vt 0.12838 0.7757249
vt 0.127627 0.7745564
vt 0.1215898 0.7771142
vt 0.1199409 0.7784384
vt 0.127627 0.7745564
vt 0.1215898 0.7771142
vt 0.127627 0.7745564
vt 0.1199409 0.7784384
vt 0.1269129 0.7727907
vt 0.1347678 0.7574575
vt 0.127627 0.7745564
vt 0.1347678 0.7574575
vt 0.12838 0.7757249
vt 0.127627 0.7745564
vt 0.1347678 0.7574575
vt 0.1358324 0.7574834
vt 0.3605984 0.560151
vt 0.3654152 0.5728356
vt 0.3612346 0.5603328
vt 0.3630393 0.5934011
vt 0.3688817 0.5921028
vt 0.3630652 0.5931414
vt 0.3684143 0.5909863
vt 0.3639741 0.5922456
vt 0.3636884 0.5920249
vt 0.3634288 0.5788339
vt 0.3639741 0.5800154
vt 0.3642727 0.5797946
vt 0.3681677 0.5812618
vt 0.3687 0.5801582
vt 0.3634028 0.5786002
vt 0.398925 0.5736926
vt 0.4035081 0.5598913
vt 0.4027161 0.560216
vt 0.3575344 0.5544513
vt 0.4025863 0.5587618
vt 0.4063514 0.5540878
vt 0.3613904 0.5590734
vt 0.3565087 0.5581775
vt 0.3605725 0.560151
vt 0.3654152 0.5728486
vt 0.3616371 0.5753933
vt 0.4034042 0.5598264
vt 0.407429 0.557814
vt 0.4014697 0.5741729
vt 0.3988211 0.5736536
vt 0.4026382 0.5761334
vt 0.4026382 0.5761334
vt 0.4014697 0.5741729
vt 0.3988211 0.5736536
vt 0.4025863 0.5588008
vt 0.4027161 0.5602289
vt 0.4034691 0.5598654
vt 0.4021448 0.5594499
vt 0.3613904 0.5590734
vt 0.4021448 0.5594499
vt 0.4025863 0.5588008
vt 0.3618838 0.5597355
vt 0.3605984 0.560151
vt 0.3618838 0.5597355
vt 0.3613904 0.5590734
vt 0.3612216 0.5603198
vt 0.2812188 0.5063094
vt 0.2326485 0.4243072
vt 0.2323629 0.5071793
vt 0.2790896 0.4241904
vt 0.2313242 0.5080492
vt 0.2325966 0.4243072
vt 0.2319993 0.4228921
vt 0.2325966 0.4243072
vt 0.2313242 0.5080492
vt 0.2323629 0.5071923
vt 0.2791675 0.4241644
vt 0.2319993 0.4229051
vt 0.2326485 0.4242164
vt 0.2798296 0.4225934
vt 0.2813487 0.5061796
vt 0.2798426 0.4225805
vt 0.2792064 0.4243072
vt 0.2798426 0.4225805
vt 0.2823614 0.5075428
vt 0.2323758 0.5072183
vt 0.2823614 0.5075688
vt 0.2812838 0.5063744
vt 0.231493 0.5080622
vt 0.2605106 0.9271616
vt 0.2660804 0.9641768
vt 0.2653533 0.9270837
vt 0.2612116 0.9642937
vt 0.2603678 0.9643326
vt 0.2522272 0.9273693
vt 0.2596407 0.9271875
vt 0.2529673 0.9644754
vt 0.2596407 0.9271875
vt 0.2612376 0.9643586
vt 0.2603678 0.9643586
vt 0.2604846 0.9271226
vt 0.2422042 0.6254827
vt 0.2424898 0.618303
vt 0.2402827 0.6218215
vt 0.2466444 0.6184718
vt 0.248566 0.6221461
vt 0.2463458 0.6256645
vt 0.2496696 0.6220422
vt 0.2463458 0.6256645
vt 0.2468911 0.6266382
vt 0.2463458 0.6256645
vt 0.248566 0.6221461
vt 0.2472676 0.617524
vt 0.248566 0.6221461
vt 0.2496696 0.6220422
vt 0.2466444 0.6184718
vt 0.2421003 0.6173033
vt 0.2466444 0.6184718
vt 0.2472676 0.617524
vt 0.2424898 0.618303
vt 0.2393349 0.6216267
vt 0.2424898 0.618303
vt 0.2421003 0.6173033
vt 0.2402827 0.6218215
vt 0.2417368 0.6264565
vt 0.2402827 0.6218215
vt 0.2393349 0.6216267
vt 0.2422042 0.6254827
vt 0.2468911 0.6266382
vt 0.2422042 0.6254827
vt 0.2417368 0.6264565
vt 0.2468911 0.6266382
vt 0.2463458 0.6256645
vt 0.3659735 0.6152779
vt 0.4110513 0.6164334
vt 0.4104022 0.6152909
vt 0.3653763 0.6162516
vt 0.4130508 0.6137069
vt 0.4120511 0.6132784
vt 0.4129339 0.6039045
vt 0.4141673 0.6037487
vt 0.411285 0.6003212
vt 0.4102983 0.6015157
vt 0.3659216 0.6016065
vt 0.3649868 0.6002952
vt 0.3621434 0.6037487
vt 0.363299 0.6040474
vt 0.3642727 0.6132914
vt 0.3633379 0.6135511
vt 0.4129339 0.6039045
vt 0.4104022 0.6152909
vt 0.4120511 0.6132784
vt 0.4102983 0.6015157
vt 0.3659735 0.6152779
vt 0.3659216 0.6016065
vt 0.363299 0.6040474
vt 0.3642727 0.6132914
vt 0.4057801 0.5507771
vt 0.3817871 0.5502577
vt 0.3816832 0.5516859
vt 0.3576772 0.5503227
vt 0.3579499 0.5495307
vt 0.3615332 0.5859747
vt 0.3612736 0.5798336
vt 0.3614943 0.5833131
vt 0.3614943 0.5921417
vt 0.3615722 0.5886752
vt 0.3572617 0.5212662
vt 0.4057801 0.5507771
vt 0.406624 0.5200977
vt 0.3818001 0.5499851
vt 0.3579239 0.5491931
vt 0.3571968 0.5497774
vt 0.3571709 0.5211753
vt 0.3563789 0.5207338
vt 0.3578979 0.5492061
vt 0.4058191 0.5201237
vt 0.3571709 0.520591
vt 0.3572617 0.5212662
vt 0.3901743 0.5172933
vt 0.3727897 0.5174491
vt 0.3615332 0.5180203
vt 0.3814755 0.5173323
vt 0.4014178 0.5176439
vt 0.2426975 0.6132265
vt 0.2429962 0.6061247
vt 0.240802 0.6096042
vt 0.2470599 0.6062805
vt 0.2489814 0.6099158
vt 0.2467873 0.6133823
vt 0.242373 0.6048523
vt 0.2470599 0.6062805
vt 0.2478 0.605073
vt 0.2429962 0.6061247
vt 0.2394777 0.6093965
vt 0.2429962 0.6061247
vt 0.242373 0.6048523
vt 0.240802 0.6096042
vt 0.2419834 0.614447
vt 0.240802 0.6096042
vt 0.2394777 0.6093965
vt 0.2426975 0.6132265
vt 0.2474104 0.6146677
vt 0.2426975 0.6132265
vt 0.2419834 0.614447
vt 0.2467873 0.6133823
vt 0.2503317 0.6098379
vt 0.2467873 0.6133823
vt 0.2474104 0.6146677
vt 0.2467873 0.6133823
vt 0.2489814 0.6099158
vt 0.2478 0.605073
vt 0.2489814 0.6099158
vt 0.2503317 0.6098379
vt 0.2470599 0.6062805
vt 0.2620945 0.553919
vt 0.2390622 0.5563469
vt 0.261731 0.556308
vt 0.2387246 0.553932
vt 0.1761454 0.6658347
vt 0.217536 0.6156414
vt 0.2175879 0.6638353
vt 0.1760805 0.613642
vt 0.1715493 0.6126942
vt 0.1716272 0.6668863
vt 0.5988281 0.7345291
vt 0.5527765 0.7264145
vt 0.5537113 0.7345421
vt 0.5998667 0.7263756
vt 0.2390492 0.5276929
vt 0.263276 0.5324967
vt 0.2618478 0.5277318
vt 0.2375951 0.5324577
vt 0.2391531 0.5262777
vt 0.2618478 0.5276929
vt 0.2618348 0.5262257
vt 0.2391531 0.5277578
vt 0.2374653 0.5324837
vt 0.2633149 0.5468951
vt 0.263237 0.5325356
vt 0.2373354 0.5468302
vt 0.2390363 0.556269
vt 0.238465 0.5538801
vt 0.2375951 0.5564897
vt 0.2359852 0.5486738
vt 0.238465 0.5538801
vt 0.2374653 0.5471418
vt 0.2391012 0.5262257
vt 0.236881 0.519111
vt 0.2379197 0.5190201
vt 0.2366603 0.5203054
vt 0.2363617 0.5199549
vt 0.2379716 0.5256415
vt 0.1706145 0.6668993
vt 0.1715493 0.6126942
vt 0.1716272 0.6668863
vt 0.1705496 0.6126942
vt 0.2641588 0.5191629
vt 0.261731 0.5262257
vt 0.2630033 0.519059
vt 0.261731 0.5262257
vt 0.2644315 0.520643
vt 0.2644315 0.520643
vt 0.2631202 0.5257454
vt 0.2644315 0.520643
vt 0.264808 0.5202145
vt 0.5757179 0.7263756
vt 0.5666686 0.7266352
vt 0.5756919 0.7302965
vt 0.2630812 0.5468042
vt 0.2385818 0.5537113
vt 0.2619127 0.5536983
vt 0.2374133 0.5468302
vt 0.2643536 0.5483363
vt 0.2622243 0.553945
vt 0.2628216 0.5564897
vt 0.2622243 0.553945
vt 0.2631202 0.5468172
vt 0.2618089 0.5262257
vt 0.2379457 0.519059
vt 0.2391271 0.5262257
vt 0.2630033 0.519046
vt 0.2239237 0.77022
vt 0.1993465 0.7796459
vt 0.1995282 0.7695059
vt 0.2235602 0.780282
vt 0.2420613 0.7732192
vt 0.241542 0.7823334
vt 0.2263776 0.7877734
vt 0.2327004 0.7912788
vt 0.2192757 0.7875916
vt 0.2122388 0.7907595
vt 0.2356087 0.7955374
vt 0.243139 0.8010033
vt 0.2367902 0.8010423
vt 0.2088632 0.7972642
vt 0.1993465 0.7796459
vt 0.1997489 0.8024964
vt 0.2080452 0.8024834
vt 0.2931634 0.7355288
vt 0.2878143 0.7180533
vt 0.2837766 0.7409558
vt 0.2933452 0.722961
vt 0.2823614 0.7240646
vt 0.3161697 0.7360351
vt 0.3161697 0.740826
vt 0.2429442 0.7219483
vt 0.2393868 0.7418905
vt 0.2411785 0.7419944
vt 0.2391661 0.7160928
vt 0.2483063 0.8023925
vt 0.2792843 0.8010423
vt 0.2792843 0.8020679
vt 0.2431519 0.8011202
vt 0.2777783 0.740813
vt 0.2823484 0.7240775
vt 0.2767526 0.7363207
vt 0.2837376 0.7409947
vt 0.2740521 0.7323478
vt 0.2656389 0.7220652
vt 0.2682096 0.7290502
vt 0.2615882 0.7288294
vt 0.2431 0.7213381
vt 0.2432948 0.7121459
vt 0.2658597 0.712873
vt 0.2827898 0.7158202
vt 0.2431 0.7213381
vt 0.2550316 0.7317507
vt 0.2433597 0.7425657
vt 0.2518767 0.7377619
vt 0.2510717 0.7426047
vt 0.246242 0.774907
vt 0.2427754 0.8009644
vt 0.2418277 0.7825282
vt 0.2531101 0.7946675
vt 0.2527076 0.7801392
vt 0.2790247 0.7956932
vt 0.2792454 0.8010033
vt 0.261692 0.7569122
vt 0.2680928 0.7600282
vt 0.2676254 0.7571849
vt 0.2623412 0.7595218
vt 0.3161568 0.7408779
vt 0.2878793 0.7417867
vt 0.3161308 0.7418386
vt 0.2837766 0.7409298
vt 0.1978014 0.8025094
vt 0.1993594 0.7797887
vt 0.1997489 0.8026003
vt 0.1945946 0.7752835
vt 0.2332847 0.744643
vt 0.1916084 0.743098
vt 0.1915435 0.7448767
vt 0.2331938 0.7424748
vt 0.1902971 0.743072
vt 0.1888041 0.7157163
vt 0.1877135 0.7155995
vt 0.1916344 0.7431239
vt 0.1904529 0.7141194
vt 0.1938675 0.7009544
vt 0.1929717 0.7002792
vt 0.1917253 0.7143791
vt 0.1949322 0.7015386
vt 0.1963214 0.7119122
vt 0.1957501 0.7017593
vt 0.1963214 0.7119122
vt 0.1949322 0.7015386
vt 0.1955164 0.7128211
vt 0.2349595 0.7139246
vt 0.1955164 0.7128211
vt 0.1917642 0.7143142
vt 0.2327913 0.7123926
vt 0.1949451 0.7014997
vt 0.1939195 0.7009804
vt 0.2345311 0.7125224
vt 0.2222749 0.698202
vt 0.2235083 0.6975917
vt 0.2331548 0.742384
vt 0.1917253 0.743059
vt 0.2374653 0.7167161
vt 0.2374653 0.7167161
vt 0.237699 0.7419944
vt 0.2385039 0.7166511
vt 0.2356996 0.7421632
vt 0.2215738 0.698929
vt 0.2327394 0.7123666
vt 0.2222359 0.698202
vt 0.2327394 0.7123666
vt 0.2215738 0.698929
vt 0.2305063 0.7114968
vt 0.2354529 0.7123796
vt 0.2349595 0.7139246
vt 0.2359462 0.7138987
vt 0.2349595 0.7139246
vt 0.2345181 0.7125224
vt 0.2235602 0.6976047
vt 0.2242224 0.6968387
vt 0.1963214 0.7119122
vt 0.2327913 0.7123926
vt 0.2304673 0.7114578
vt 0.1955683 0.7128211
vn 0.5522552 0.01999569 -0.8334353
vn 0.4660256 0.05919099 -0.8827891
vn 0.4660256 0.08270812 -0.880897
vn 0.5522552 0.01999569 -0.8334353
vn 0.4268303 0.1375815 -0.8938049
vn 0.4660256 0.05919099 -0.8827891
vn 0.4268303 0.1375815 -0.8938049
vn 0.4660256 0.05919099 -0.8827891
vn 0.4660256 0.08270812 -0.880897
vn -0.5452123 0.01215661 0.8382099
vn -0.4511436 0.03567386 0.8917381
vn -0.5530512 0.01215661 0.8330586
vn -0.4511436 0.03567386 0.8917381
vn -0.5452123 0.01215661 0.8382099
vn -0.4433045 0.04351282 0.8953143
vn -0.8352572 -0.2778883 -0.4744719
vn -0.819579 -0.3327616 -0.4664332
vn -0.8352572 -0.2465321 -0.491495
vn -0.8352572 -0.3170835 -0.4492254
vn -0.8352572 -0.3327616 -0.4377387
vn -0.9214867 -0.3014054 -0.2449836
vn -0.9371648 -0.2935664 -0.188523
vn -0.7960619 -0.4189913 -0.4367285
vn 0.8187829 0.4041092 0.407787
vn 0.7874267 0.4354655 0.4362671
vn 0.834461 0.3178797 0.4501414
vn 0.7403924 0.5608903 0.3704338
vn 0.9050125 0.357075 0.2311922
vn 0.9128516 0.3649141 0.1831386
vn 0.8579782 0.2630063 0.4412494
vn 0.8501391 0.2865235 0.4417779
vn 0.8187829 0.4041092 0.407787
vn -0.4589826 0.08270812 0.8845871
vn -0.4433045 -0.07407296 0.8933053
vn -0.4589826 0.1532596 0.8751265
vn -0.4433045 -0.07407296 0.8933053
vn -0.4511436 0.3178797 0.8339196
vn -0.4589826 0.08270812 0.8845871
vn -0.4589826 0.1532596 0.8751265
vn -0.4589826 0.08270812 0.8845871
vn -0.4511436 0.3178797 0.8339196
vn -0.07486904 0.9841992 -0.1604574
vn -0.07486904 0.9841992 -0.1604574
vn -0.07486904 0.9841992 -0.1604574
vn -0.07486904 0.9841992 -0.1604574
vn -0.9450039 0.01999569 -0.3264473
vn -0.9450039 -0.03487766 -0.3251942
vn -0.9450039 -0.03487766 -0.3251942
vn -0.9450039 0.03567386 -0.3251078
vn -0.9450039 0.09838617 -0.31191
vn 0.983403 0.04351282 0.1761396
vn 0.983403 0.04351282 0.1761396
vn 0.983403 0.04351282 0.1761396
vn 0.983403 0.04351282 0.1761396
vn 0.983403 0.04351282 0.1761396
vn -0.1846159 -0.5130599 0.838264
vn -0.223811 -0.2778883 0.934177
vn -0.208133 -0.4268303 0.8800548
vn -0.2159721 -0.3170835 0.9234794
vn -0.2316501 -0.1289463 0.9642153
vn -0.2316501 -0.1211073 0.9652312
vn 0.08171314 -0.9966558 0
vn 0.08171314 -0.9966558 0
vn 0.08171314 -0.9966558 0
vn 0.08171314 -0.9966558 0
vn 0.223015 0.4119483 -0.8834947
vn 0.2543712 0.08270812 -0.9635635
vn 0.2543712 0.08270812 -0.9635635
vn 0.230854 0.3884312 -0.8920917
vn 0.1603025 0.7098323 -0.6858872
vn 0.1759806 0.662798 -0.7278252
vn -0.8587743 0.3413968 -0.3820405
vn -0.9371648 0.2316501 -0.2608838
vn -0.8430963 0.3413968 -0.415496
vn -0.8587743 0.3413968 -0.3820405
vn -0.9450039 0.223811 -0.2384875
vn -0.8901305 0.3022016 -0.3410892
vn -0.8587743 0.372753 -0.3515137
vn -0.7411885 0.5608903 -0.3688382
vn -0.7098323 0.6314418 -0.3121207
vn -0.8274181 0.357075 -0.4334475
vn -0.9058087 0.3257188 -0.2709574
vn -0.9058087 0.3178797 -0.2801127
vn -0.9058087 0.3257188 -0.2709574
vn -0.9136477 -0.03487766 -0.405008
vn -0.9371648 0.02783477 -0.3477749
vn -0.9136477 -0.01919955 -0.4060534
vn -0.9136477 0.2786844 -0.2959442
vn -0.9450039 0.223811 -0.2384875
vn -0.9763601 0.1140643 -0.1836037
vn -0.9763601 0.0905472 -0.1962707
vn -0.952843 0.1454206 -0.2663516
vn -0.8979696 -0.3954741 -0.1930048
vn -0.9293258 -0.223015 -0.2943091
vn -0.8979696 -0.3876351 -0.2083019
vn -0.9214867 -0.3014054 -0.2449836
vn -0.960682 -0.1367853 -0.2416191
vn -0.968521 -0.08975106 -0.2321892
vn -0.968521 -0.07407296 -0.2376558
vn -0.960682 -0.1524634 -0.2320451
vn -0.9371648 -0.2073368 -0.2805951
vn -0.9058087 -0.2700493 -0.326472
vn -0.9214867 -0.230854 -0.3123598
vn -0.9136477 -0.3719569 -0.164
vn -0.9136477 -0.379796 -0.1449241
vn -0.9293258 -0.1603025 -0.3326509
vn -0.952843 -0.1916587 -0.2352812
vn -0.952843 -0.223015 -0.2058024
vn -0.9136477 0.08270812 -0.3980042
vn -0.2473282 -0.1054292 0.9631788
vn -0.2551672 -0.02703863 0.9665188
vn -0.2551672 -0.02703863 0.9665188
vn -0.2473282 -0.1367853 0.9592281
vn -0.2394892 -0.02703863 0.9705225
vn -0.2394892 -0.02703863 0.9705225
vn -0.2394892 -0.08975106 0.9667418
vn -0.2394892 -0.1132682 0.9642693
vn 0.2622102 -0.1603025 -0.9516034
vn 0.2700493 -0.1603025 -0.9494085
vn 0.3170835 -0.1524634 -0.9360625
vn 0.3249226 -0.1524634 -0.9333704
vn 0.3170835 -0.1524634 -0.9360625
vn 0.3327616 -0.1524634 -0.9306045
vn 0.4111522 -0.1446244 -0.900021
vn 0.9128516 0.2159721 0.346494
vn 0.9206906 0.1375815 0.3652399
vn 0.9050125 0.3022016 0.2993769
vn 0.9677249 -0.03487766 0.2495836
vn 0.9050125 0.3649141 0.2186095
vn 0.8814954 0.4511436 0.1394109
vn 0.8971735 0.4041092 0.1782569
vn 0.9128516 0.3022016 0.2745473
vn 0.9428937 0.3330936 0
vn 0.9428937 0.3330936 0
vn 0.6698409 0.2394892 0.7028215
vn 0.8814954 0.372753 0.289864
vn 0.8893344 0.3805921 0.2534442
vn 0.7795877 0.6236027 0.05798815
vn 0.7168753 0.6863152 0.1227247
vn 0.9912421 0.1062253 0.07845549
vn 0.9986817 0.05133137 0
vn 0.9912421 -0.1054292 0.07952205
vn -0.2316501 -0.2151759 0.9487031
vn -0.2473282 -0.1367853 0.9592281
vn -0.2473282 -0.1054292 0.9631788
vn -0.2316501 -0.2151759 0.9487031
vn -0.2394892 -0.1759806 0.9548171
vn -0.2394892 -0.08975106 0.9667418
vn -0.2394892 -0.1132682 0.9642693
vn -0.2394892 -0.08975106 0.9667418
vn -0.2394892 -0.1759806 0.9548171
vn 0.9520468 -0.02703863 0.3047553
vn 0.9598859 -0.003521442 0.2803688
vn 0.9442078 -0.04271674 0.3265684
vn 0.9598859 -0.1367853 0.2447628
vn 0.9935457 0.1134324 0
vn 0.9677249 -0.1054292 0.2288955
vn 0.9206906 -0.1994978 0.3354542
vn 0.8814954 -0.3719569 0.2908849
vn 0.8893344 -0.379796 0.2546357
vn 0.9731251 -0.2302768 0
vn 0.975564 -0.1838197 0.1203545
vn 0.8814954 -0.3327616 0.3350159
vn 0.8736563 -0.3327616 0.3549569
vn 0.983403 -0.08191198 0.1618918
vn 0.9598859 -0.1132682 0.2564944
vn 0.9285297 -0.1524634 0.3385078
vn -0.9293258 -0.223015 -0.2943091
vn -0.8666134 -0.379796 -0.3236298
vn -0.8979696 -0.3876351 -0.2083019
vn -0.8744525 0.1767768 -0.4517553
vn -0.8666134 -0.379796 -0.3236298
vn -0.9136477 0.08270812 -0.3980042
vn -0.8744525 0.1767768 -0.4517553
vn -0.1846159 0.8744525 -0.4486088
vn -0.4824998 0.7333494 -0.4789494
vn -0.5373732 0.6941543 -0.4789362
vn -0.1140643 0.8901305 -0.4411995
vn 0.3876351 0.4433045 -0.8082204
vn 0.3249226 0.4276264 -0.8435407
vn 0.3249226 0.4276264 -0.8435407
vn 0.3249226 0.4276264 -0.8435407
vn 0.3876351 0.4433045 -0.8082204
vn -0.2551672 -0.3641179 0.8957164
vn -0.2630063 -0.3641179 0.893446
vn -0.2630063 -0.3641179 0.893446
vn -0.2630063 -0.3641179 0.893446
vn -0.2551672 -0.3641179 0.8957164
vn -0.2551672 -0.3641179 0.8957164
vn 0.230854 -0.1603025 -0.9596924
vn 0.2778883 -0.1603025 -0.9471437
vn 0.2857274 -0.1603025 -0.9448084
vn 0.223015 -0.1524634 -0.9628184
vn 0.2151759 -0.1603025 -0.9633288
vn 0.1289463 -0.1524634 -0.9798611
vn 0.2700493 0.06702995 -0.9605105
vn 0.3014054 0.08270812 -0.9499022
vn 0.3014054 0.08270812 -0.9499022
vn 0.2622102 0.06702995 -0.96268
vn -0.004317641 0.9841992 -0.1770122
vn 0.003521442 0.9841992 -0.1770299
vn 0.003521442 0.9920382 -0.1258878
vn -0.004317641 0.9841992 -0.1770122
vn 0.2622102 0.1062253 -0.9591465
vn 0.230854 0.1219034 -0.9653217
vn 0.230854 0.1219034 -0.9653217
vn 0.230854 0.1219034 -0.9653217
vn 0.2622102 0.1062253 -0.9591465
vn 0.2700493 0.1062253 -0.956969
vn -0.04351282 0.9841992 -0.1716352
vn -0.0513519 0.9841992 -0.1694549
vn -0.0513519 0.9841992 -0.1694549
vn -0.04351282 0.9841992 -0.1716352
vn -0.1767768 -0.3562788 0.917505
vn -0.1846159 -0.3484398 0.9189705
vn -0.1846159 -0.3484398 0.9189705
vn -0.1846159 -0.3484398 0.9189705
vn -0.1767768 -0.3562788 0.917505
vn -0.1767768 -0.3562788 0.917505
vn 0.6149676 0.7568666 -0.2212868
vn 0.3249226 0.9136477 -0.2442811
vn 0.2700493 0.9293258 -0.2518469
vn 0.3249226 0.9136477 -0.2442811
vn 0.6698409 0.7098323 -0.2178331
vn 0.9935457 0.1134324 0
vn 0.975564 -0.1524634 0.158208
vn 0.9560549 0.2931877 0
vn 0.975564 -0.1524634 0.158208
vn 0.9935457 0.1134324 0
vn 0.9598859 -0.1367853 0.2447628
vn 0.8814954 -0.3719569 0.2908849
vn 0.975564 -0.1524634 0.158208
vn 0.06623387 0.4276264 -0.9015258
vn 0.1289463 0.4119483 -0.9020374
vn 0.1289463 0.4119483 -0.9020374
vn 0.06623387 0.4276264 -0.9015258
vn 0.05839485 0.4354655 -0.8983095
vn 0.8814954 -0.1916587 0.4315471
vn 0.8814954 -0.1916587 0.4315471
vn 0.8814954 -0.1916587 0.4315471
vn 0.3484398 -0.6228066 -0.700501
vn -0.2943625 -0.6620018 -0.6892781
vn 0.1603025 -0.536577 -0.8284855
vn -0.3257188 -0.6541628 -0.682626
vn -0.3178797 -0.5757723 -0.7532853
vn 0.1681415 -0.09759009 -0.9809203
vn 0.3484398 -0.5679332 -0.7456819
vn 0.379796 -0.08975106 -0.9207061
vn 0.7325534 -0.5444161 -0.4086278
vn 0.7168753 -0.6384847 -0.2800485
vn 0.6933581 -0.6463238 -0.3186222
vn 0.1211073 -0.67768 -0.7253157
vn -0.952843 -0.2622102 -0.1527617
vn -0.952843 -0.2622102 -0.1527617
vn -0.952843 -0.2622102 -0.1527617
vn -0.4276264 0.8587743 0.2822099
vn -0.1846159 0.7803838 0.5974262
vn 0.223015 0.8430963 0.4893394
vn -0.4041092 0.7411885 0.5360366
vn -0.6471199 0.7333494 0.2084095
vn -0.6863152 0.5687294 0.4533413
vn -0.6784761 0.6392808 0.3619258
vn -0.670637 0.6392808 0.3762527
vn 0.2622102 0.7255105 0.6363021
vn 0.5600942 0.7098323 0.4271212
vn 0.3719569 0.6392808 0.6730291
vn -0.02783477 0.662798 0.7482806
vn 0.6698409 0.5452123 0.5040404
vn -0.01215661 0.9763601 -0.2158083
vn -0.01215661 0.9763601 -0.2158083
vn -0.01215661 0.9763601 -0.2158083
vn 0.8658172 0.4668217 -0.1801056
vn 0.8658172 0.4433045 -0.2320379
vn 0.8658172 0.4354655 -0.2464352
vn 0.8658172 0.4746608 -0.1582961
vn 0.1367853 0.7882228 -0.5999955
vn 0.1367853 0.7882228 -0.5999955
vn 0.1367853 0.7882228 -0.5999955
vn 0.1367853 0.7882228 -0.5999955
vn -0.654959 0.372753 -0.6573309
vn -0.654959 0.4119483 -0.633504
vn -0.654959 0.4197874 -0.628337
vn -0.654959 0.357075 -0.6659777
vn -0.05919099 0.9841992 -0.1668785
vn -0.05919099 0.9841992 -0.1668785
vn -0.0513519 0.9841992 -0.1694549
vn -0.06702995 0.9841992 -0.1638871
vn -0.8979696 0.3413968 -0.2776667
vn -0.952843 0.0513519 -0.2990874
vn -0.960682 0.0513519 -0.2728608
vn -0.952843 0.0513519 -0.2990874
vn -0.8979696 0.3413968 -0.2776667
vn -0.8901305 0.3413968 -0.301854
vn -0.2551672 0.3492359 0.901623
vn -0.2551672 0.2865235 0.9234685
vn -0.2551672 0.2786844 0.9258643
vn -0.2551672 0.3492359 0.901623
vn 0.8814954 0.4119483 0.2307911
vn 0.9598859 0.1532596 0.234799
vn 0.9598859 0.1532596 0.234799
vn 0.9598859 0.1532596 0.234799
vn 0.8814954 0.4197874 0.2162047
vn 0.2778883 -0.4268303 -0.8605777
vn 0.2778883 -0.4111522 -0.8681774
vn 0.2778883 -0.4111522 -0.8681774
vn 0.2778883 -0.4268303 -0.8605777
vn -0.2551672 0.1297424 0.9581527
vn -0.2551672 0.1297424 0.9581527
vn -0.2551672 0.1297424 0.9581527
vn -0.2551672 0.1297424 0.9581527
vn 0.2778883 -0.1524634 -0.9484371
vn 0.2778883 -0.1524634 -0.9484371
vn 0.2778883 -0.1524634 -0.9484371
vn 0.2778883 -0.1524634 -0.9484371
vn -0.02783477 0.9841992 0.1748633
vn -0.02783477 0.9841992 0.1748633
vn -0.02783477 0.9841992 0.1748633
vn -0.02783477 0.9841992 0.1748633
vn -0.2394892 -0.1603025 0.9575741
vn -0.2394892 -0.1603025 0.9575741
vn -0.2394892 -0.1603025 0.9575741
vn -0.2394892 -0.1603025 0.9575741
vn -0.2394892 -0.1603025 0.9575741
vn -0.2394892 -0.1603025 0.9575741
vn 0.8031048 0.506017 0.3145942
vn 0.8031048 0.506017 0.3145942
vn 0.8031048 0.506017 0.3145942
vn 0.8031048 0.506017 0.3145942
vn 0.8031048 0.5138561 0.30162
vn 0.8187829 -0.4817036 0.3123397
vn 0.834461 -0.4738646 0.2812954
vn 0.8423001 -0.4660256 0.2708335
vn 0.8031048 -0.4895427 0.3396625
vn 0.01136053 -0.9990811 0.04132617
vn 0.01136053 -0.9990811 0.04132617
vn 0.01136053 -0.9990811 0.04132617
vn 0.01136053 -0.9990811 0.04132617
vn -0.819579 -0.5522552 -0.1526582
vn -0.8352572 -0.536577 -0.1201271
vn -0.8352572 -0.528738 -0.1509356
vn -0.819579 -0.5600942 -0.1207672
vn -0.8744525 0.4354655 -0.2137818
vn -0.8744525 0.4354655 -0.2137818
vn -0.8744525 0.4354655 -0.2137818
vn -0.8744525 0.4433045 -0.1970125
vn -0.06702995 0.9763601 0.2054945
vn -0.06702995 0.9763601 0.2054945
vn -0.06702995 0.9763601 0.2054945
vn -0.06702995 0.9763601 0.2054945
vn -0.06702995 0.9763601 0.2054945
vn -0.4746608 0.8352572 0.2775656
vn 0.223015 0.81174 0.5397615
vn 0.1681415 0.8352572 0.5235206
vn -0.4981779 0.8274181 0.259226
vn 0.6149676 0.3413968 0.7108186
vn 0.6228066 0.3335578 0.7077084
vn 0.5679332 -0.3092445 0.762771
vn 0.5914504 -0.2857274 0.7540201
vn 0.1681415 -0.7795877 0.6033005
vn 0.08191198 -0.8031048 0.5901806
vn -0.4041092 -0.7952658 0.4519381
vn -0.4511436 -0.7560705 0.4741591
vn -0.8979696 -0.3406007 0.2786427
vn -0.8901305 -0.3876351 0.239597
vn -0.9214867 0.3335578 0.199001
vn -0.9214867 0.3413968 0.1852308
vn -0.4354655 -0.1367853 0.8897526
vn -0.3178797 -0.1367853 0.9382123
vn -0.4589826 -0.1446244 0.876595
vn -0.3178797 -0.1289463 0.9393218
vn -0.2394892 -0.06623387 0.9686372
vn -0.2394892 -0.05839485 0.9691414
vn -0.2394892 -0.05839485 0.9691414
vn -0.208133 -0.05839485 0.9763558
vn 0.2700493 0.1532596 -0.9505708
vn 0.2543712 0.1532596 -0.9548857
vn 0.2543712 0.1532596 -0.9548857
vn 0.230854 0.1924548 -0.9537649
vn 0.230854 0.1924548 -0.9537649
vn -0.04351282 -0.9598859 0.2769941
vn -0.04351282 -0.9598859 0.2769941
vn -0.04351282 -0.9598859 0.2769941
vn -0.02783477 -0.9598859 0.2790059
vn -0.02783477 -0.9598859 0.2790059
vn -0.07486904 0.9841992 0.1604574
vn -0.04351282 0.9841992 0.1716352
vn -0.04351282 0.9841992 0.1716352
vn -0.05919099 0.9841992 0.1668785
vn -0.1140643 0.9763601 0.1836036
vn -0.9293258 0.208133 -0.305015
vn -0.952843 0.02783477 -0.3021846
vn -0.952843 0.02783477 -0.3021846
vn -0.9293258 0.2159721 -0.2995155
vn -0.2159721 0.3022016 0.9284558
vn -0.2473282 0.4276264 0.8694622
vn -0.2316501 0.4903388 0.8401822
vn -0.2394892 0.3805921 0.8931935
vn -0.2473282 0.3805921 0.8910546
vn -0.2943625 0.2394892 0.9252003
vn -0.2473282 0.1924548 0.9496262
vn -0.208133 0.2394892 0.9483278
vn -0.2394892 -0.1603025 0.9575741
vn -0.2394892 -0.1603025 0.9575741
vn -0.2394892 -0.1603025 0.9575741
vn -0.2394892 -0.1603025 0.9575741
vn -0.2394892 -0.1603025 0.9575741
vn -0.2394892 -0.1603025 0.9575741
vn 0.01136053 -0.9990811 0.04132617
vn 0.01136053 -0.9990811 0.04132617
vn 0.01136053 -0.9990811 0.04132617
vn 0.01136053 -0.9990811 0.04132617
vn -0.8274181 -0.5522552 -0.1019488
vn -0.8352572 -0.536577 -0.1201271
vn -0.8352572 -0.528738 -0.1509356
vn -0.819579 -0.5600942 -0.1207672
vn -0.8744525 0.4354655 -0.2137818
vn -0.8744525 0.4354655 -0.2137818
vn -0.8744525 0.4354655 -0.2137818
vn -0.8744525 0.4433045 -0.1970125
vn -0.06702995 0.9763601 0.2054945
vn -0.06702995 0.9763601 0.2054945
vn -0.06702995 0.9763601 0.2054945
vn -0.06702995 0.9763601 0.2054945
vn 0.8031048 0.506017 0.3145942
vn 0.8031048 0.506017 0.3145942
vn 0.8031048 0.4981779 0.3268661
vn 0.8031048 0.506017 0.3145942
vn 0.8031048 0.5138561 0.30162
vn 0.8187829 -0.4817036 0.3123397
vn 0.834461 -0.4738646 0.2812954
vn 0.8423001 -0.4660256 0.2708335
vn 0.8031048 -0.4895427 0.3396625
vn 0.1367853 -0.9442078 -0.299602
vn 0.1367853 -0.9442078 -0.299602
vn 0.1367853 -0.9442078 -0.299602
vn 0.1367853 -0.9442078 -0.299602
vn -0.03567386 0.9841992 0.173434
vn -0.02783477 0.9841992 0.1748633
vn -0.02783477 0.9841992 0.1748633
vn -0.03567386 0.9841992 0.173434
vn -0.03567386 0.9841992 0.173434
vn -0.03567386 0.9841992 0.173434
vn 0.1211073 0.8274181 -0.5483724
vn 0.1211073 0.8274181 -0.5483724
vn 0.1211073 0.8274181 -0.5483724
vn 0.1211073 0.8274181 -0.5483724
vn -0.2551672 0.1610986 0.9533818
vn -0.2551672 0.1532596 0.9546733
vn -0.2551672 0.1532596 0.9546733
vn -0.2551672 0.1610986 0.9533818
vn -0.02783477 0.9841992 0.1748633
vn -0.02783477 0.9841992 0.1748633
vn -0.02783477 0.9841992 0.1748633
vn -0.02783477 0.9841992 0.1748633
vn -0.02783477 0.9841992 -0.1748633
vn -0.02783477 0.9841992 -0.1748633
vn -0.02783477 0.9841992 -0.1748633
vn -0.02783477 0.9841992 -0.1748633
vn 0.9206906 0.372753 0.1156894
vn 0.8814954 0.2943625 0.3692109
vn 0.8971735 0.3257188 0.298307
vn 0.9520468 0.2002939 0.2312774
vn 0.8814954 0.2943625 0.3692109
vn 0.9677249 0.1924548 0.1626948
vn 0.9598859 0.1924548 0.2039123
vn 0.975564 0.1532596 0.1574368
vn 0.983403 0.1767768 0.04084712
vn 0.826622 0.1454206 0.5436441
vn 0.983403 0.05919099 0.1715079
vn 0.9520468 0.1924548 0.2378404
vn 0.1838197 0.6392808 -0.7466796
vn 0.1838197 0.6392808 -0.7466796
vn 0.1838197 0.6392808 -0.7466796
vn 0.1838197 0.6392808 -0.7466796
vn -0.9450039 0.1297424 -0.3002242
vn -0.9450039 0.1219034 -0.3034917
vn -0.968521 0.1297424 -0.2124476
vn -0.9450039 0.1219034 -0.3034917
vn -0.8509352 0.1219034 -0.5109293
vn -0.8509352 0.1219034 -0.5109293
vn -0.9450039 0.1140643 -0.3065241
vn -0.8509352 0.1219034 -0.5109293
vn -0.8587743 0.1297424 -0.4956548
vn -0.952843 0.2159721 -0.2131816
vn -0.8901305 0.2943625 -0.3478769
vn -0.9371648 0.2551672 -0.2379324
vn 0.2700493 -0.01136053 -0.9627795
vn 0.2700493 -0.01136053 -0.9627795
vn 0.2700493 -0.01136053 -0.9627795
vn 0.2700493 -0.01136053 -0.9627795
vn -0.9450039 0.1297424 -0.3002242
vn -0.952843 0.2159721 -0.2131816
vn -0.9371648 0.2551672 -0.2379324
vn -0.952843 0.2159721 -0.2131816
vn -0.9293258 0.1140643 -0.351202
vn 0.2778883 -0.1916587 -0.9412996
vn 0.2778883 -0.1916587 -0.9412996
vn 0.2778883 -0.1916587 -0.9412996
vn 0.2778883 -0.1916587 -0.9412996
vn -0.7255105 0.6471199 -0.2342443
vn -0.8744525 0.3884312 -0.2906098
vn -0.7019932 0.670637 -0.2396904
vn -0.8587743 0.4433045 -0.2568809
vn -0.7725447 0.5922465 -0.2289513
vn -0.9214867 0.3257188 -0.2115881
vn -0.9450039 0.208133 -0.2522863
vn -0.9763601 0.08270812 -0.1997007
vn -0.8979696 0.2551672 -0.3585251
vn -0.9293258 0.07486904 -0.3615911
vn -0.9841992 -0.01919955 0.1760209
vn -0.9841992 -0.05055577 0.1696941
vn -0.9841992 -0.05839485 0.1671587
vn -0.9214867 -0.05839485 -0.3839951
vn -0.8744525 0.3884312 -0.2906098
vn -0.9293258 -0.07407296 -0.361755
vn -0.9371648 -0.1759806 -0.3012524
vn -0.2394892 -0.01136053 0.9708326
vn -0.2316501 0.02783477 0.9724008
vn -0.2159721 0.004317641 0.97639
vn -0.3100406 0.03567386 0.9500538
vn -0.1375815 0.03567386 0.9898478
vn -0.2473282 -0.03487766 0.9683038
vn -0.2473282 -0.03487766 0.9683038
vn 0.2700493 0.01215661 -0.9627697
vn 0.2700493 0.01215661 -0.9627697
vn 0.2700493 0.01215661 -0.9627697
vn 0.2700493 0.01215661 -0.9627697
vn 0.05834898 -0.9982963 0
vn 0.05834898 -0.9982963 0
vn 0.05834898 -0.9982963 0
vn 0.05834898 -0.9982963 0
vn 0.826622 0.02783477 0.5620688
vn 0.8501391 0.3884312 0.3555062
vn 0.8579782 0.05919099 0.5102644
vn 0.834461 0.02783477 0.5503635
vn 0.9206906 0.2002939 0.3349794
vn 0.8187829 0.5138561 0.2560204
vn 0.8187829 0.3962703 0.4154087
vn 0.9285297 0.2708454 0.2539201
vn 0.8658172 0.4668217 0.1801056
vn 0.6541628 0.7176714 0.2387859
vn 0.67768 0.7019932 0.218987
vn 0.7090362 0.654959 0.2613358
vn 0.8658172 0.4668217 0.1801056
vn 0.983403 0.1140643 0.1410951
vn 0.9912421 -0.003521442 0.1320101
vn 0.9912421 -0.02703863 0.1292593
vn 0.975564 -0.09759009 0.1968529
vn -0.2708454 0.02783477 0.9622203
vn -0.2786844 0.004317641 0.960373
vn -0.3649141 0.02783477 0.930625
vn -0.2551672 -0.01136053 0.9668302
vn -0.1924548 0.03567386 0.9806572
vn -0.2473282 -0.03487766 0.9683038
vn -0.2473282 -0.03487766 0.9683038
vn 0.0505376 -0.9987222 0
vn 0.0505376 -0.9987222 0
vn 0.0505376 -0.9987222 0
vn 0.0505376 -0.9987222 0
vn 0.05834898 -0.9982963 0
vn 0.0505376 -0.9987222 0
vn 0.05834898 -0.9982963 0
vn 0.0505376 -0.9987222 0
vn 0.2700493 0.01215661 -0.9627697
vn 0.2700493 0.01215661 -0.9627697
vn 0.2700493 0.01215661 -0.9627697
vn 0.2700493 0.01215661 -0.9627697
vn -0.8509352 -0.223015 -0.4755771
vn -0.8587743 0.01999569 -0.5119638
vn -0.8587743 0.02783477 -0.5115975
vn -0.8509352 -0.230854 -0.4718217
vn -0.4511436 0.09838617 0.8870116
vn -0.3962703 0.01215661 0.9180534
vn -0.372753 0.01999569 0.9277151
vn -0.4511436 0.09838617 0.8870116
vn -0.372753 0.01999569 0.9277151
vn -0.3100406 0.004317641 0.9507135
vn -0.3100406 0.004317641 0.9507135
vn -0.3962703 0.01215661 0.9180534
vn 0.528738 -0.1211073 -0.8401006
vn 0.5208989 -0.003521442 -0.8536111
vn 0.528738 -0.1289463 -0.8389332
vn 0.5208989 -0.003521442 -0.8536111
vn 0.528738 -0.1211073 -0.8401006
vn 0.5208989 -0.003521442 -0.8536111
vn 0.1054292 0.9841992 0.1422556
vn 0.1524634 0.9763601 0.1532184
vn 0.04271674 0.9841992 -0.1718349
vn 0.1916587 0.968521 0.1588521
vn -0.01215661 0.9763601 0.2158083
vn -0.02783477 0.960682 0.2762521
vn 0.2151759 0.960682 0.175469
vn 0.1446244 0.9763601 0.1606386
vn 0.1446244 0.9763601 0.1606386
vn -0.01999569 0.9841992 -0.1759322
vn 0.01136053 0.9841992 -0.1767001
vn 0.1054292 0.9841992 0.1422556
vn 0.5600942 -0.003521442 -0.8284214
vn 0.4268303 -0.03487766 -0.9036589
vn 0.6149676 0.01215661 -0.7884587
vn 0.4268303 -0.03487766 -0.9036589
vn -0.8822914 -0.1289463 0.4526971
vn -0.8822914 -0.06623387 0.4660203
vn -0.8822914 -0.1289463 0.4526971
vn -0.8822914 -0.06623387 0.4660203
vn -0.8822914 -0.1289463 0.4526971
vn -0.8822914 -0.06623387 0.4660203
vn 0.8501391 0.0905472 -0.5187144
vn 0.5600942 -0.003521442 -0.8284214
vn 0.6149676 0.01215661 -0.7884587
vn 0.5600942 -0.003521442 -0.8284214
vn 0.8109438 0.07486904 -0.5803143
vn 0.9050125 0.1140643 -0.4098069
vn 0.9050125 0.1140643 -0.4098069
vn 0.8736563 0.208133 0.4397788
vn 0.8736563 0.208133 0.4397788
vn 0.8736563 0.208133 0.4397788
vn 0.8736563 0.208133 0.4397788
g DSJ_GTA_daoJu_che_01_0
f 3/3/3 2/2/2 1/1/1
f 4/4/4 1/1/1 2/2/2
f 7/7/7 6/6/6 5/5/5
f 9/9/9 5/5/5 8/8/8
f 12/12/12 11/11/11 10/10/10
f 15/15/15 14/14/14 13/13/13
f 18/18/18 17/17/17 16/16/16
f 16/16/16 17/17/17 19/19/19
f 20/20/20 19/19/19 17/17/17
f 19/19/19 20/20/20 21/21/21
f 22/22/22 21/21/21 20/20/20
f 20/20/20 17/17/17 23/23/23
f 26/26/26 25/25/25 24/24/24
f 27/27/27 24/24/24 25/25/25
f 25/25/25 26/26/26 28/28/28
f 29/29/29 28/28/28 26/26/26
f 31/31/31 26/26/26 30/30/30
f 32/32/32 30/30/30 26/26/26
f 35/35/35 34/34/34 33/33/33
f 36/36/36 33/33/33 34/34/34
f 39/39/39 38/38/38 37/37/37
f 41/41/41 37/37/37 40/40/40
f 44/44/44 43/43/43 42/42/42
f 45/45/45 42/42/42 43/43/43
f 48/48/48 47/47/47 46/46/46
f 49/49/49 46/46/46 47/47/47
f 49/49/49 50/50/50 46/46/46
f 53/53/53 52/52/52 51/51/51
f 55/55/55 51/51/51 54/54/54
f 58/58/58 57/57/57 56/56/56
f 59/59/59 56/56/56 57/57/57
f 57/57/57 60/60/60 59/59/59
f 61/61/61 59/59/59 60/60/60
f 64/64/64 63/63/63 62/62/62
f 65/65/65 62/62/62 63/63/63
f 68/68/68 67/67/67 66/66/66
f 69/69/69 66/66/66 67/67/67
f 66/66/66 69/69/69 70/70/70
f 71/71/71 70/70/70 69/69/69
f 74/74/74 73/73/73 72/72/72
f 76/76/76 75/75/75 73/73/73
f 76/76/76 73/73/73 77/77/77
f 77/77/77 78/78/78 76/76/76
f 77/77/77 79/79/79 78/78/78
f 80/80/80 78/78/78 79/79/79
f 81/81/81 77/77/77 73/73/73
f 81/81/81 82/82/82 77/77/77
f 83/83/83 79/79/79 77/77/77
f 84/84/84 83/83/83 77/77/77
f 86/86/86 85/85/85 78/78/78
f 87/87/87 78/78/78 85/85/85
f 87/87/87 88/88/88 78/78/78
f 88/88/88 89/89/89 78/78/78
f 88/88/88 90/90/90 76/76/76
f 90/90/90 91/91/91 76/76/76
f 92/92/92 76/76/76 91/91/91
f 95/95/95 94/94/94 93/93/93
f 96/96/96 93/93/93 94/94/94
f 94/94/94 97/97/97 96/96/96
f 97/97/97 94/94/94 98/98/98
f 99/99/99 98/98/98 94/94/94
f 100/100/100 96/96/96 97/97/97
f 100/100/100 101/101/101 96/96/96
f 102/102/102 96/96/96 101/101/101
f 103/103/103 102/102/102 101/101/101
f 103/103/103 104/104/104 102/102/102
f 105/105/105 102/102/102 104/104/104
f 106/106/106 103/103/103 101/101/101
f 106/106/106 107/107/107 103/103/103
f 108/108/108 103/103/103 107/107/107
f 109/109/109 99/99/99 94/94/94
f 112/112/112 111/111/111 110/110/110
f 113/113/113 110/110/110 111/111/111
f 116/116/116 115/115/115 114/114/114
f 116/116/116 117/117/117 115/115/115
f 120/120/120 119/119/119 118/118/118
f 122/122/122 121/121/121 119/119/119
f 123/123/123 119/119/119 121/121/121
f 123/123/123 124/124/124 119/119/119
f 127/127/127 126/126/126 125/125/125
f 128/128/128 125/125/125 126/126/126
f 127/127/127 125/125/125 129/129/129
f 129/129/129 130/130/130 127/127/127
f 131/131/131 127/127/127 130/130/130
f 127/127/127 131/131/131 132/132/132
f 132/132/132 133/133/133 127/127/127
f 134/134/134 127/127/127 133/133/133
f 135/135/135 132/132/132 131/131/131
f 136/136/136 135/135/135 131/131/131
f 137/137/137 136/136/136 131/131/131
f 138/138/138 137/137/137 131/131/131
f 131/131/131 130/130/130 138/138/138
f 139/139/139 138/138/138 130/130/130
f 129/129/129 140/140/140 130/130/130
f 130/130/130 140/140/140 141/141/141
f 142/142/142 141/141/141 140/140/140
f 145/145/145 144/144/144 143/143/143
f 146/146/146 143/143/143 144/144/144
f 149/149/149 148/148/148 147/147/147
f 151/151/151 147/147/147 150/150/150
f 154/154/154 153/153/153 152/152/152
f 155/155/155 152/152/152 153/153/153
f 156/156/156 155/155/155 153/153/153
f 152/152/152 155/155/155 157/157/157
f 158/158/158 157/157/157 155/155/155
f 155/155/155 159/159/159 158/158/158
f 160/160/160 158/158/158 159/159/159
f 161/161/161 157/157/157 158/158/158
f 161/161/161 162/162/162 157/157/157
f 161/161/161 163/163/163 162/162/162
f 164/164/164 162/162/162 163/163/163
f 165/165/165 157/157/157 162/162/162
f 165/165/165 162/162/162 166/166/166
f 167/167/167 166/166/166 162/162/162
f 170/170/170 169/169/169 168/168/168
f 168/168/168 172/172/172 171/171/171
f 168/168/168 174/174/174 173/173/173
f 177/177/177 176/176/176 175/175/175
f 178/178/178 175/175/175 176/176/176
f 181/181/181 180/180/180 179/179/179
f 183/183/183 179/179/179 182/182/182
f 186/186/186 185/185/185 184/184/184
f 189/189/189 188/188/188 187/187/187
f 192/192/192 191/191/191 190/190/190
f 190/190/190 191/191/191 193/193/193
f 194/194/194 193/193/193 191/191/191
f 194/194/194 191/191/191 195/195/195
f 198/198/198 197/197/197 196/196/196
f 199/199/199 196/196/196 197/197/197
f 202/202/202 201/201/201 200/200/200
f 203/203/203 200/200/200 201/201/201
f 206/206/206 205/205/205 204/204/204
f 209/209/209 208/208/208 207/207/207
f 212/212/212 211/211/211 210/210/210
f 213/213/213 210/210/210 211/211/211
f 216/216/216 215/215/215 214/214/214
f 219/219/219 218/218/218 217/217/217
f 222/222/222 221/221/221 220/220/220
f 224/224/224 220/220/220 223/223/223
f 227/227/227 226/226/226 225/225/225
f 230/230/230 229/229/229 228/228/228
f 230/230/230 232/232/232 231/231/231
f 235/235/235 234/234/234 233/233/233
f 237/237/237 236/236/236 234/234/234
f 240/240/240 239/239/239 238/238/238
f 243/243/243 242/242/242 241/241/241
f 242/242/242 243/243/243 244/244/244
f 245/245/245 244/244/244 243/243/243
f 243/243/243 246/246/246 245/245/245
f 243/243/243 247/247/247 246/246/246
f 248/248/248 246/246/246 247/247/247
f 247/247/247 249/249/249 248/248/248
f 249/249/249 247/247/247 250/250/250
f 250/250/250 247/247/247 251/251/251
f 252/252/252 251/251/251 247/247/247
f 255/255/255 254/254/254 253/253/253
f 258/258/258 257/257/257 256/256/256
f 259/259/259 256/256/256 257/257/257
f 256/256/256 259/259/259 260/260/260
f 261/261/261 260/260/260 259/259/259
f 261/261/261 262/262/262 260/260/260
f 263/263/263 260/260/260 262/262/262
f 257/257/257 258/258/258 264/264/264
f 265/265/265 264/264/264 258/258/258
f 264/264/264 265/265/265 266/266/266
f 267/267/267 264/264/264 266/266/266
f 265/265/265 268/268/268 266/266/266
f 271/271/271 270/270/270 269/269/269
f 274/274/274 273/273/273 272/272/272
f 275/275/275 272/272/272 273/273/273
f 278/278/278 277/277/277 276/276/276
f 279/279/279 276/276/276 277/277/277
f 282/282/282 281/281/281 280/280/280
f 283/283/283 280/280/280 281/281/281
f 286/286/286 285/285/285 284/284/284
f 287/287/287 284/284/284 285/285/285
f 290/290/290 289/289/289 288/288/288
f 293/293/293 292/292/292 291/291/291
f 296/296/296 295/295/295 294/294/294
f 297/297/297 294/294/294 295/295/295
f 300/300/300 299/299/299 298/298/298
f 302/302/302 298/298/298 301/301/301
f 305/305/305 304/304/304 303/303/303
f 306/306/306 303/303/303 304/304/304
f 309/309/309 308/308/308 307/307/307
f 310/310/310 307/307/307 308/308/308
f 313/313/313 312/312/312 311/311/311
f 314/314/314 311/311/311 312/312/312
f 317/317/317 316/316/316 315/315/315
f 318/318/318 315/315/315 316/316/316
f 321/321/321 320/320/320 319/319/319
f 320/320/320 322/322/322 319/319/319
f 322/322/322 323/323/323 319/319/319
f 323/323/323 324/324/324 319/319/319
f 327/327/327 326/326/326 325/325/325
f 329/329/329 325/325/325 328/328/328
f 332/332/332 331/331/331 330/330/330
f 333/333/333 330/330/330 331/331/331
f 336/336/336 335/335/335 334/334/334
f 337/337/337 334/334/334 335/335/335
f 340/340/340 339/339/339 338/338/338
f 341/341/341 338/338/338 339/339/339
f 344/344/344 343/343/343 342/342/342
f 345/345/345 342/342/342 343/343/343
f 348/348/348 347/347/347 346/346/346
f 350/350/350 349/349/349 347/347/347
f 353/353/353 352/352/352 351/351/351
f 354/354/354 351/351/351 352/352/352
f 352/352/352 353/353/353 355/355/355
f 356/356/356 355/355/355 353/353/353
f 356/356/356 357/357/357 355/355/355
f 358/358/358 355/355/355 357/357/357
f 358/358/358 357/357/357 359/359/359
f 360/360/360 359/359/359 357/357/357
f 360/360/360 361/361/361 359/359/359
f 362/362/362 359/359/359 361/361/361
f 362/362/362 361/361/361 363/363/363
f 364/364/364 363/363/363 361/361/361
f 364/364/364 365/365/365 363/363/363
f 351/351/351 354/354/354 365/365/365
f 366/366/366 363/363/363 365/365/365
f 366/366/366 365/365/365 354/354/354
f 369/369/369 368/368/368 367/367/367
f 370/370/370 367/367/367 368/368/368
f 368/368/368 371/371/371 370/370/370
f 372/372/372 370/370/370 371/371/371
f 372/372/372 371/371/371 373/373/373
f 374/374/374 373/373/373 371/371/371
f 377/377/377 376/376/376 375/375/375
f 377/377/377 378/378/378 376/376/376
f 379/379/379 376/376/376 378/378/378
f 382/382/382 381/381/381 380/380/380
f 384/384/384 380/380/380 383/383/383
f 387/387/387 386/386/386 385/385/385
f 386/386/386 388/388/388 385/385/385
f 388/388/388 389/389/389 385/385/385
f 392/392/392 391/391/391 390/390/390
f 393/393/393 390/390/390 391/391/391
f 396/396/396 395/395/395 394/394/394
f 395/395/395 397/397/397 394/394/394
f 398/398/398 397/397/397 395/395/395
f 399/399/399 398/398/398 395/395/395
f 400/400/400 397/397/397 398/398/398
f 394/394/394 397/397/397 401/401/401
f 404/404/404 403/403/403 402/402/402
f 403/403/403 405/405/405 402/402/402
f 405/405/405 406/406/406 402/402/402
f 406/406/406 407/407/407 402/402/402
f 410/410/410 409/409/409 408/408/408
f 411/411/411 408/408/408 409/409/409
f 414/414/414 413/413/413 412/412/412
f 415/415/415 412/412/412 413/413/413
f 418/418/418 417/417/417 416/416/416
f 419/419/419 416/416/416 417/417/417
f 422/422/422 421/421/421 420/420/420
f 423/423/423 420/420/420 421/421/421
f 426/426/426 425/425/425 424/424/424
f 428/428/428 424/424/424 427/427/427
f 431/431/431 430/430/430 429/429/429
f 432/432/432 429/429/429 430/430/430
f 435/435/435 434/434/434 433/433/433
f 436/436/436 433/433/433 434/434/434
f 439/439/439 438/438/438 437/437/437
f 438/438/438 440/440/440 437/437/437
f 440/440/440 441/441/441 437/437/437
f 441/441/441 442/442/442 437/437/437
f 445/445/445 444/444/444 443/443/443
f 446/446/446 443/443/443 444/444/444
f 449/449/449 448/448/448 447/447/447
f 450/450/450 447/447/447 448/448/448
f 453/453/453 452/452/452 451/451/451
f 454/454/454 451/451/451 452/452/452
f 457/457/457 456/456/456 455/455/455
f 458/458/458 455/455/455 456/456/456
f 461/461/461 460/460/460 459/459/459
f 461/461/461 462/462/462 460/460/460
f 464/464/464 463/463/463 462/462/462
f 467/467/467 466/466/466 465/465/465
f 468/468/468 465/465/465 466/466/466
f 469/469/469 468/468/468 466/466/466
f 470/470/470 465/465/465 468/468/468
f 473/473/473 472/472/472 471/471/471
f 474/474/474 471/471/471 472/472/472
f 477/477/477 476/476/476 475/475/475
f 479/479/479 475/475/475 478/478/478
f 481/481/481 480/480/480 476/476/476
f 483/483/483 475/475/475 482/482/482
f 486/486/486 485/485/485 484/484/484
f 489/489/489 488/488/488 487/487/487
f 490/490/490 487/487/487 488/488/488
f 493/493/493 492/492/492 491/491/491
f 495/495/495 491/491/491 494/494/494
f 498/498/498 497/497/497 496/496/496
f 499/499/499 496/496/496 497/497/497
f 502/502/502 501/501/501 500/500/500
f 503/503/503 500/500/500 501/501/501
f 500/500/500 503/503/503 504/504/504
f 505/505/505 504/504/504 503/503/503
f 503/503/503 506/506/506 505/505/505
f 507/507/507 505/505/505 506/506/506
f 508/508/508 506/506/506 503/503/503
f 501/501/501 509/509/509 503/503/503
f 508/508/508 503/503/503 509/509/509
f 507/507/507 510/510/510 505/505/505
f 505/505/505 510/510/510 511/511/511
f 512/512/512 511/511/511 510/510/510
f 509/509/509 514/514/514 513/513/513
f 515/515/515 513/513/513 514/514/514
f 516/516/516 513/513/513 515/515/515
f 519/519/519 518/518/518 517/517/517
f 520/520/520 517/517/517 518/518/518
f 521/521/521 518/518/518 519/519/519
f 517/517/517 522/522/522 519/519/519
f 523/523/523 519/519/519 522/522/522
f 526/526/526 525/525/525 524/524/524
f 527/527/527 524/524/524 525/525/525
f 530/530/530 529/529/529 528/528/528
f 531/531/531 528/528/528 529/529/529
f 534/534/534 533/533/533 532/532/532
f 535/535/535 532/532/532 533/533/533
f 536/536/536 533/533/533 534/534/534
f 533/533/533 536/536/536 537/537/537
f 538/538/538 537/537/537 536/536/536
f 539/539/539 537/537/537 538/538/538
f 537/537/537 539/539/539 540/540/540
f 540/540/540 541/541/541 537/537/537
f 542/542/542 537/537/537 541/541/541
f 533/533/533 537/537/537 543/543/543
f 542/542/542 543/543/543 537/537/537
f 545/545/545 544/544/544 539/539/539
f 544/544/544 545/545/545 546/546/546
f 547/547/547 546/546/546 545/545/545
f 548/548/548 546/546/546 547/547/547
f 551/551/551 550/550/550 549/549/549
f 550/550/550 552/552/552 549/549/549
f 552/552/552 553/553/553 549/549/549
f 552/552/552 550/550/550 554/554/554
f 555/555/555 554/554/554 550/550/550
f 558/558/558 557/557/557 556/556/556
f 559/559/559 556/556/556 557/557/557
f 562/562/562 561/561/561 560/560/560
f 563/563/563 560/560/560 561/561/561
f 566/566/566 565/565/565 564/564/564
f 567/567/567 564/564/564 565/565/565
f 570/570/570 569/569/569 568/568/568
f 571/571/571 568/568/568 569/569/569
f 574/574/574 573/573/573 572/572/572
f 575/575/575 572/572/572 573/573/573
f 578/578/578 577/577/577 576/576/576
f 579/579/579 576/576/576 577/577/577
f 582/582/582 581/581/581 580/580/580
f 585/585/585 584/584/584 583/583/583
f 588/588/588 587/587/587 586/586/586
f 589/589/589 586/586/586 587/587/587
f 587/587/587 588/588/588 590/590/590
f 591/591/591 590/590/590 588/588/588
f 589/589/589 592/592/592 586/586/586
f 589/589/589 593/593/593 592/592/592
f 594/594/594 592/592/592 593/593/593
f 596/596/596 588/588/588 595/595/595
f 597/597/597 595/595/595 588/588/588
f 600/600/600 599/599/599 598/598/598
f 601/601/601 598/598/598 599/599/599
f 604/604/604 603/603/603 602/602/602
f 607/607/607 606/606/606 605/605/605
f 610/610/610 609/609/609 608/608/608
f 612/612/612 608/608/608 611/611/611
f 612/612/612 613/613/613 608/608/608
f 614/614/614 608/608/608 613/613/613
f 617/617/617 616/616/616 615/615/615
f 618/618/618 615/615/615 616/616/616
