g DSJ_GTA_diLou_19
v 0.001771331 1.812034 -0.005313873
v 0.2426673 1.606564 -0.3631153
v 0.4375097 1.606564 0.01948428
v 0.001771331 1.812034 -0.005313873
v -0.1895285 1.606564 -0.3879135
v 0.2426673 1.606564 -0.3631153
v 0.001771331 1.812034 -0.005313873
v -0.426882 1.606564 -0.03011203
v -0.1895285 1.606564 -0.3879135
v 0.001771331 1.812034 -0.005313873
v -0.2320397 1.610107 0.3560302
v -0.426882 1.606564 -0.03011203
v 0.001771331 1.812034 -0.005313873
v 0.1966137 1.610107 0.3843708
v -0.2320397 1.610107 0.3560302
v 0.001771331 1.812034 -0.005313873
v 0.4375097 1.606564 0.01948428
v 0.1966137 1.610107 0.3843708
v 0.1045064 -0.529617 -0.1470175
v 0.2532951 -0.8767907 -0.3772857
v 0.4587653 -0.8732481 0.03365457
v 0.2532951 -1.812034 -0.3737431
v 0.4587653 -1.812034 0.03719723
v 0.1859859 -0.529617 0.01239908
v 0.1045064 0.614639 -0.15056
v 0.1859859 0.614639 0.008856535
v 0.2958062 1.287731 -0.4410523
v 0.529617 1.287731 0.02656949
v 0.2426673 1.606564 -0.3631153
v 0.4375097 1.606564 0.01948428
v -0.07970822 -0.529617 -0.1576452
v -0.2072415 -0.8767907 -0.409169
v 0.2532951 -0.8767907 -0.3772857
v -0.2072415 -1.812034 -0.4056264
v 0.2532951 -1.812034 -0.3737431
v 0.1045064 -0.529617 -0.1470175
v -0.07616568 0.614639 -0.1611878
v 0.1045064 0.614639 -0.15056
v -0.228497 1.287731 -0.4729356
v 0.2958062 1.287731 -0.4410523
v 0.2426673 1.606564 -0.3631153
v -0.1895285 1.606564 -0.3879135
v -0.1824434 -0.529617 -0.005313873
v -0.4587653 -0.8732481 -0.02302682
v -0.2072415 -0.8767907 -0.409169
v -0.4587653 -1.812034 -0.01948428
v -0.2072415 -1.812034 -0.4056264
v -0.07970822 -0.529617 -0.1576452
v -0.1824434 0.614639 -0.008856416
v -0.07616568 0.614639 -0.1611878
v -0.5189893 1.287731 -0.03365457
v -0.228497 1.287731 -0.4729356
v -0.1895285 1.606564 -0.3879135
v -0.426882 1.606564 -0.03011203
v -0.09742117 -0.529617 0.1576452
v -0.2532952 -0.8732481 0.3914561
v -0.4587653 -0.8732481 -0.02302682
v -0.2568376 -1.812034 0.3949986
v -0.4587653 -1.812034 -0.01948428
v -0.1824434 -0.529617 -0.005313873
v -0.09742117 0.614639 0.1541026
v -0.1824434 0.614639 -0.008856416
v -0.2851784 1.294816 0.4339671
v -0.5189893 1.287731 -0.03365457
v -0.426882 1.606564 -0.03011203
v -0.2320397 1.610107 0.3560302
v 0.08325088 -0.529617 0.168273
v 0.2072414 -0.8732481 0.4197967
v -0.2532952 -0.8732481 0.3914561
v 0.2072414 -1.812034 0.426882
v -0.2568376 -1.812034 0.3949986
v -0.09742117 -0.529617 0.1576452
v 0.08325088 0.614639 0.1647304
v -0.09742117 0.614639 0.1541026
v 0.2355821 1.287731 0.4658504
v -0.2851784 1.294816 0.4339671
v -0.2320397 1.610107 0.3560302
v 0.1966137 1.610107 0.3843708
v 0.1859859 -0.529617 0.01239908
v 0.4587653 -0.8732481 0.03365457
v 0.2072414 -0.8732481 0.4197967
v 0.4587653 -1.812034 0.03719723
v 0.2072414 -1.812034 0.426882
v 0.08325088 -0.529617 0.168273
v 0.1859859 0.614639 0.008856535
v 0.08325088 0.614639 0.1647304
v 0.529617 1.287731 0.02656949
v 0.2355821 1.287731 0.4658504
v 0.4375097 1.606564 0.01948428
v 0.1966137 1.610107 0.3843708
vt 0.9247603 0.4910656
vt 0.9399776 0.4720439
vt 0.9019343 0.4720439
vt 0.9247603 0.4910656
vt 0.9399776 0.4720439
vt 0.9019343 0.4720439
vt 0.9247603 0.4910656
vt 0.9399776 0.4720439
vt 0.9019343 0.4720439
vt 0.9247603 0.4910656
vt 0.9399776 0.4720439
vt 0.9019343 0.4720439
vt 0.9247603 0.4910656
vt 0.9399776 0.4720439
vt 0.9019343 0.4720439
vt 0.9247603 0.4910656
vt 0.9399776 0.4720439
vt 0.9019343 0.4720439
vt 0.9399776 0.3274789
vt 0.9399776 0.2894356
vt 0.9019343 0.2894356
vt 0.9399776 0.2513922
vt 0.9019343 0.2513922
vt 0.9019343 0.3274789
vt 0.9399776 0.4340005
vt 0.9019343 0.4340005
vt 0.9399776 0.4568265
vt 0.9019343 0.4568265
vt 0.9399776 0.4720439
vt 0.9019343 0.4720439
vt 0.9399776 0.3274789
vt 0.9399776 0.2894356
vt 0.9019343 0.2894356
vt 0.9399776 0.2513922
vt 0.9019343 0.2513922
vt 0.9019343 0.3274789
vt 0.9399776 0.4340005
vt 0.9019343 0.4340005
vt 0.9399776 0.4568265
vt 0.9019343 0.4568265
vt 0.9019343 0.4720439
vt 0.9399776 0.4720439
vt 0.9399776 0.3274789
vt 0.9399776 0.2894356
vt 0.9019343 0.2894356
vt 0.9399776 0.2513922
vt 0.9019343 0.2513922
vt 0.9019343 0.3274789
vt 0.9399776 0.4340005
vt 0.9019343 0.4340005
vt 0.9399776 0.4568265
vt 0.9019343 0.4568265
vt 0.9019343 0.4720439
vt 0.9399776 0.4720439
vt 0.9399776 0.3274789
vt 0.9399776 0.2894356
vt 0.9019343 0.2894356
vt 0.9399776 0.2513922
vt 0.9019343 0.2513922
vt 0.9019343 0.3274789
vt 0.9399776 0.4340005
vt 0.9019343 0.4340005
vt 0.9399776 0.4568265
vt 0.9019343 0.4568265
vt 0.9019343 0.4720439
vt 0.9399776 0.4720439
vt 0.9399776 0.3274789
vt 0.9399776 0.2894356
vt 0.9019343 0.2894356
vt 0.9399776 0.2513922
vt 0.9019343 0.2513922
vt 0.9019343 0.3274789
vt 0.9399776 0.4340005
vt 0.9019343 0.4340005
vt 0.9399776 0.4568265
vt 0.9019343 0.4568265
vt 0.9019343 0.4720439
vt 0.9399776 0.4720439
vt 0.9399776 0.3274789
vt 0.9399776 0.2894356
vt 0.9019343 0.2894356
vt 0.9399776 0.2513922
vt 0.9019343 0.2513922
vt 0.9019343 0.3274789
vt 0.9399776 0.4340005
vt 0.9019343 0.4340005
vt 0.9399776 0.4568265
vt 0.9019343 0.4568265
vt 0.9399776 0.4720439
vt 0.9019343 0.4720439
vn 0.4410112 0.8677946 -0.2290016
vn 0.4410112 0.8677946 -0.2290016
vn 0.4410112 0.8677946 -0.2290016
vn 0.04267895 0.8677946 -0.4950869
vn 0.04267895 0.8677946 -0.4950869
vn 0.04267895 0.8677946 -0.4950869
vn -0.3841055 0.8677946 -0.3152705
vn -0.3841055 0.8677946 -0.3152705
vn -0.3841055 0.8677946 -0.3152705
vn -0.4125578 0.8677946 0.2769994
vn -0.4125578 0.8677946 0.2769994
vn -0.4125578 0.8677946 0.2769994
vn -0.0142256 0.8677946 0.4967194
vn -0.0142256 0.8677946 0.4967194
vn -0.0142256 0.8677946 0.4967194
vn 0.4125589 0.8677946 0.2769977
vn 0.4125589 0.8677946 0.2769977
vn 0.4125589 0.8677946 0.2769977
vn 0.8962479 0.241844 -0.3718214
vn 0.8962479 0.1280348 -0.4246725
vn 0.8962479 0.1280348 -0.4246725
vn 0.8962479 -0.01422668 -0.4433253
vn 0.8962479 -0.01422668 -0.4433253
vn 0.8962479 0.1564872 -0.4150319
vn 0.8962479 -0.1849405 -0.4031584
vn 0.8962479 -0.2418451 -0.3718207
vn 0.8962479 -0.2133927 -0.3888486
vn 0.8962479 -0.2418451 -0.3718207
vn 0.8962479 0.2133917 -0.3888491
vn 0.8962479 0.2133917 -0.3888491
vn 0.07113129 0.241844 -0.9677044
vn 0.07113129 0.1280348 -0.9892156
vn 0.07113129 0.1280348 -0.9892156
vn 0.07113129 -0.01422668 -0.9973655
vn 0.07113129 -0.01422668 -0.9973655
vn 0.07113129 0.1564872 -0.9851153
vn 0.07113129 -0.1849405 -0.9801721
vn 0.07113129 -0.2418451 -0.9677041
vn 0.07113129 -0.2133927 -0.9743736
vn 0.07113129 -0.2133927 -0.9743736
vn 0.07113129 0.2133917 -0.9743738
vn 0.07113129 0.2133917 -0.9743738
vn -0.7824377 0.241844 -0.573849
vn -0.81089 0.1280348 -0.5710205
vn -0.81089 0.1280348 -0.5710205
vn -0.81089 -0.01422668 -0.5850256
vn -0.81089 -0.01422668 -0.5850256
vn -0.81089 0.1564872 -0.5638875
vn -0.81089 -0.1849405 -0.5552066
vn -0.7824377 -0.2418451 -0.5738485
vn -0.81089 -0.2133927 -0.5449045
vn -0.81089 -0.2133927 -0.5449045
vn -0.7824377 0.241844 -0.573849
vn -0.7824377 0.241844 -0.573849
vn -0.8393423 0.2702963 0.4716402
vn -0.8677946 0.1564872 0.4716401
vn -0.8677946 0.1280348 0.4801455
vn -0.8962469 -0.01422668 0.4433274
vn -0.8677946 -0.01422668 0.4967194
vn -0.8677946 0.1849394 0.4612266
vn -0.8677946 -0.1849405 0.4612262
vn -0.8677946 -0.2418451 0.4341008
vn -0.8677946 -0.2133927 0.4487718
vn -0.8677946 -0.2133927 0.4487718
vn -0.8677946 0.241844 0.4341014
vn -0.8677946 0.241844 0.4341014
vn -0.04267794 0.2702963 0.9618308
vn -0.04267794 0.1564872 0.9867575
vn -0.04267794 0.1280348 0.990851
vn -0.04267794 -0.01422668 0.9989876
vn -0.04267794 -0.01422668 0.9989876
vn -0.04267794 0.1849394 0.9818228
vn -0.04267794 -0.1849405 0.9818226
vn -0.04267794 -0.2418451 0.9693758
vn -0.04267794 -0.2133927 0.9760339
vn -0.04267794 -0.2133927 0.9760339
vn -0.04267794 0.241844 0.9693761
vn -0.04267794 0.241844 0.9693761
vn 0.8393433 0.241844 0.4868411
vn 0.8393433 0.1564872 0.5205905
vn 0.8393433 0.1280348 0.5283085
vn 0.8393433 -0.01422668 0.5434155
vn 0.8393433 -0.01422668 0.5434155
vn 0.8393433 0.1849394 0.5111753
vn 0.8393433 -0.1849405 0.5111749
vn 0.8393433 -0.2418451 0.4868406
vn 0.8393433 -0.2133927 0.4999663
vn 0.8393433 -0.2418451 0.4868406
vn 0.8393433 0.241844 0.4868411
vn 0.8393433 0.241844 0.4868411
g DSJ_GTA_diLou_19_0
f 3/3/3 2/2/2 1/1/1
f 6/6/6 5/5/5 4/4/4
f 9/9/9 8/8/8 7/7/7
f 12/12/12 11/11/11 10/10/10
f 15/15/15 14/14/14 13/13/13
f 18/18/18 17/17/17 16/16/16
f 21/21/21 20/20/20 19/19/19
f 22/22/22 20/20/20 21/21/21
f 23/23/23 22/22/22 21/21/21
f 21/21/21 19/19/19 24/24/24
f 19/19/19 25/25/25 24/24/24
f 24/24/24 25/25/25 26/26/26
f 25/25/25 27/27/27 26/26/26
f 26/26/26 27/27/27 28/28/28
f 27/27/27 29/29/29 28/28/28
f 28/28/28 29/29/29 30/30/30
f 33/33/33 32/32/32 31/31/31
f 34/34/34 32/32/32 33/33/33
f 35/35/35 34/34/34 33/33/33
f 36/36/36 33/33/33 31/31/31
f 37/37/37 36/36/36 31/31/31
f 38/38/38 36/36/36 37/37/37
f 39/39/39 38/38/38 37/37/37
f 39/39/39 40/40/40 38/38/38
f 41/41/41 40/40/40 39/39/39
f 42/42/42 41/41/41 39/39/39
f 45/45/45 44/44/44 43/43/43
f 46/46/46 44/44/44 45/45/45
f 47/47/47 46/46/46 45/45/45
f 48/48/48 45/45/45 43/43/43
f 49/49/49 48/48/48 43/43/43
f 50/50/50 48/48/48 49/49/49
f 51/51/51 50/50/50 49/49/49
f 51/51/51 52/52/52 50/50/50
f 53/53/53 52/52/52 51/51/51
f 54/54/54 53/53/53 51/51/51
f 57/57/57 56/56/56 55/55/55
f 58/58/58 56/56/56 57/57/57
f 59/59/59 58/58/58 57/57/57
f 60/60/60 57/57/57 55/55/55
f 61/61/61 60/60/60 55/55/55
f 62/62/62 60/60/60 61/61/61
f 63/63/63 62/62/62 61/61/61
f 63/63/63 64/64/64 62/62/62
f 65/65/65 64/64/64 63/63/63
f 66/66/66 65/65/65 63/63/63
f 69/69/69 68/68/68 67/67/67
f 70/70/70 68/68/68 69/69/69
f 71/71/71 70/70/70 69/69/69
f 72/72/72 69/69/69 67/67/67
f 73/73/73 72/72/72 67/67/67
f 74/74/74 72/72/72 73/73/73
f 75/75/75 74/74/74 73/73/73
f 75/75/75 76/76/76 74/74/74
f 77/77/77 76/76/76 75/75/75
f 78/78/78 77/77/77 75/75/75
f 81/81/81 80/80/80 79/79/79
f 82/82/82 80/80/80 81/81/81
f 83/83/83 82/82/82 81/81/81
f 81/81/81 79/79/79 84/84/84
f 79/79/79 85/85/85 84/84/84
f 84/84/84 85/85/85 86/86/86
f 85/85/85 87/87/87 86/86/86
f 86/86/86 87/87/87 88/88/88
f 87/87/87 89/89/89 88/88/88
f 88/88/88 89/89/89 90/90/90
