g DSJ_GTA_daoJu_jiaZi_03
v 2.074259 0.3475811 -1.373633
v 0.01052594 0.3475811 1.415284
v 0.01052594 0.3475811 -1.373633
v 2.074259 0.3475811 1.415277
v 1.578276 0.139282 -1.373633
v 0.01052594 0.3475811 -1.373633
v 0.5865052 0.1394153 -1.373633
v 2.074259 0.3475811 -1.373633
v 1.578276 0.02782965 -1.373633
v 2.074259 0.02782965 -1.373633
v 0.01052594 0.02782965 -1.373633
v 0.5865052 0.02782965 -1.373633
v 0.5865052 0.02782965 -1.104288
v 0.01052594 0.1393452 -1.104288
v 0.5865052 0.1393452 -1.104288
v 0.01052594 0.02782965 -1.104288
v 2.074259 0.02782965 -0.5744405
v 2.074259 0.1393452 0.6160843
v 2.074259 0.1393452 -0.5744405
v 2.074259 0.02782965 0.6160843
v 2.074259 0.3475811 1.415277
v 2.074259 0.1393452 1.145931
v 2.074259 0.02782965 1.145931
v 2.074259 0.02782965 1.415277
v 2.074259 0.3475811 -1.373633
v 2.074259 0.1393452 -1.104288
v 2.074259 0.02782965 -1.104288
v 2.074259 0.02782965 -1.373633
v 0.01052594 0.3475811 1.415284
v 0.5865122 0.02782965 1.415277
v 0.01052594 0.02782965 1.415284
v 0.5865122 0.1396399 1.415284
v 1.578276 0.1343691 1.415277
v 2.074259 0.3475811 1.415277
v 2.074259 0.02782965 1.415277
v 1.578276 0.02782965 1.415277
v 0.01052594 0.1393452 1.145939
v 0.5865122 0.02782965 1.145931
v 0.5865122 0.1393452 1.145931
v 0.01052594 0.02782965 1.145939
v 2.074259 0.1393452 -1.104288
v 1.578276 0.02782965 -1.104288
v 1.578276 0.1393452 -1.104288
v 2.074259 0.02782965 -1.104288
v 1.578276 0.02782965 1.145931
v 2.074259 0.1393452 1.145931
v 1.578276 0.1393452 1.145931
v 2.074259 0.02782965 1.145931
v 0.5865122 0.02782965 1.145931
v 0.5865122 0.1396399 1.415284
v 0.5865122 0.1393452 1.145931
v 0.5865122 0.02782965 1.415277
v 0.5865052 0.02782965 -1.104288
v 0.5865052 0.1394153 -1.373633
v 0.5865052 0.02782965 -1.373633
v 0.5865052 0.1393452 -1.104288
v 1.578276 0.1343691 1.415277
v 1.578276 0.02782965 1.145931
v 1.578276 0.1393452 1.145931
v 1.578276 0.02782965 1.415277
v 1.578276 0.1393452 -1.104288
v 1.578276 0.02782965 -1.373633
v 1.578276 0.139282 -1.373633
v 1.578276 0.02782965 -1.104288
v 2.322451 2.450583 -1.518816
v -2.322433 2.450583 1.518812
v 2.322339 2.450583 1.518812
v -2.322314 2.450583 -1.518816
v -2.322314 2.566442 -1.518809
v 2.322339 2.566442 1.518812
v -2.322433 2.566442 1.518812
v 2.322451 2.566442 -1.518809
v 2.322451 2.566442 -1.518809
v -2.322314 2.450583 -1.518816
v 2.322451 2.450583 -1.518816
v -2.322314 2.566442 -1.518809
v 2.322339 2.566442 1.518812
v 2.322451 2.450583 -1.518816
v 2.322339 2.450583 1.518812
v 2.322451 2.566442 -1.518809
v -2.322433 2.566442 1.518812
v -2.322314 2.450583 -1.518816
v -2.322314 2.566442 -1.518809
v -2.322433 2.450583 1.518812
v -2.322433 2.566442 1.518812
v 2.322339 2.450583 1.518812
v -2.322433 2.450583 1.518812
v 2.322339 2.566442 1.518812
v 2.167892 4.942355 1.361368
v 2.240764 2.546826 1.361382
v 2.240764 4.942361 1.361368
v 2.167892 2.546826 1.361382
v 2.167892 2.546826 1.453155
v 2.240764 4.942361 1.453148
v 2.240764 2.546826 1.453155
v 2.167892 4.942355 1.453148
v 2.240764 4.942361 1.361368
v 2.240764 2.546826 1.453155
v 2.240764 4.942361 1.453148
v 2.240764 2.546826 1.361382
v 2.167892 4.942355 1.453148
v 2.167892 2.546826 1.361382
v 2.167892 4.942355 1.361368
v 2.167892 2.546826 1.453155
v 2.167892 4.942355 -1.448358
v 2.240764 2.546826 -1.448344
v 2.240764 4.942361 -1.448358
v 2.167892 2.546826 -1.448344
v 2.167892 2.546826 -1.356578
v 2.240764 4.942361 -1.356578
v 2.240764 2.546826 -1.356578
v 2.167892 4.942355 -1.356578
v 2.240764 4.942361 -1.448358
v 2.240764 2.546826 -1.356578
v 2.240764 4.942361 -1.356578
v 2.240764 2.546826 -1.448344
v 2.167892 4.942355 -1.356578
v 2.167892 2.546826 -1.448344
v 2.167892 4.942355 -1.448358
v 2.167892 2.546826 -1.356578
v 2.271175 2.56061 -1.351911
v 2.250428 4.934557 1.358722
v 2.274193 2.625649 -1.386315
v 2.247396 4.869517 1.392692
v 2.274193 2.625649 -1.386315
v 2.191867 4.938445 1.358737
v 2.215652 2.629538 -1.386315
v 2.250428 4.934557 1.358722
v 2.215652 2.629538 -1.386315
v 2.188849 4.873392 1.392692
v 2.21262 2.564484 -1.351925
v 2.191867 4.938445 1.358737
v 2.21262 2.564484 -1.351925
v 2.247396 4.869517 1.392692
v 2.271175 2.56061 -1.351911
v 2.188849 4.873392 1.392692
v 2.167892 2.490896 1.36139
v 2.240764 0.2408383 1.361382
v 2.240764 2.490896 1.36139
v 2.167892 0.2408383 1.361382
v 2.278081 0.1669905 1.313784
v 2.125971 0.1702051 1.31377
v 2.278081 0.01055741 1.313784
v 2.125971 0.01055741 1.313784
v 2.167892 0.2408383 1.453155
v 2.240764 2.490896 1.453169
v 2.240764 0.2408383 1.453155
v 2.167892 2.490896 1.453169
v 2.125971 0.1700716 1.499224
v 2.278081 0.1668572 1.499224
v 2.125971 0.01055741 1.499231
v 2.278081 0.01055741 1.499231
v 2.240764 2.490896 1.36139
v 2.240764 0.2408383 1.453155
v 2.240764 2.490896 1.453169
v 2.240764 0.2408383 1.361382
v 2.278081 0.1669905 1.313784
v 2.278081 0.1668572 1.499224
v 2.278081 0.01055741 1.499231
v 2.278081 0.01055741 1.313784
v 2.167892 2.490896 1.453169
v 2.167892 0.2408383 1.361382
v 2.167892 2.490896 1.36139
v 2.167892 0.2408383 1.453155
v 2.125971 0.1702051 1.31377
v 2.125971 0.1700716 1.499224
v 2.125971 0.01055741 1.313784
v 2.125971 0.01055741 1.499231
v 2.167892 2.490896 -1.448316
v 2.240764 0.2408383 -1.448337
v 2.240764 2.490896 -1.448316
v 2.167892 0.2408383 -1.448337
v 2.278081 0.1669905 -1.49595
v 2.125971 0.1702051 -1.495957
v 2.278081 0.01055741 -1.49595
v 2.125971 0.01055741 -1.49595
v 2.167892 0.2408383 -1.356564
v 2.240764 2.490896 -1.35655
v 2.240764 0.2408383 -1.356564
v 2.167892 2.490896 -1.35655
v 2.125971 0.1700716 -1.310489
v 2.278081 0.1668572 -1.310489
v 2.125971 0.01055741 -1.310475
v 2.278081 0.01055741 -1.310475
v 2.240764 2.490896 -1.448316
v 2.240764 0.2408383 -1.356564
v 2.240764 2.490896 -1.35655
v 2.240764 0.2408383 -1.448337
v 2.278081 0.1669905 -1.49595
v 2.278081 0.1668572 -1.310489
v 2.278081 0.01055741 -1.310475
v 2.278081 0.01055741 -1.49595
v 2.167892 2.490896 -1.35655
v 2.167892 0.2408383 -1.448337
v 2.167892 2.490896 -1.448316
v 2.167892 0.2408383 -1.356564
v 2.125971 0.1702051 -1.495957
v 2.125971 0.1700716 -1.310489
v 2.125971 0.01055741 -1.49595
v 2.125971 0.01055741 -1.310475
v 2.170117 0.08208203 1.375854
v 2.202247 2.456036 -1.334793
v 2.1654 0.1471286 1.410245
v 2.206935 2.390989 -1.368755
v 2.1654 0.1471286 1.410245
v 2.292925 2.459924 -1.334786
v 2.256106 0.1510167 1.410238
v 2.202247 2.456036 -1.334793
v 2.256106 0.1510167 1.410238
v 2.297627 2.39487 -1.368755
v 2.260794 0.08596325 1.375854
v 2.292925 2.459924 -1.334786
v 2.260794 0.08596325 1.375854
v 2.206935 2.390989 -1.368755
v 2.170117 0.08208203 1.375854
v 2.297627 2.39487 -1.368755
v -2.25326 4.942355 1.361368
v -2.180395 2.546826 1.361382
v -2.180395 4.942355 1.361368
v -2.25326 2.546826 1.361382
v -2.25326 2.546826 1.453155
v -2.180395 4.942355 1.453148
v -2.180395 2.546826 1.453155
v -2.25326 4.942355 1.453148
v -2.180395 4.942355 1.361368
v -2.180395 2.546826 1.453155
v -2.180395 4.942355 1.453148
v -2.180395 2.546826 1.361382
v -2.25326 4.942355 1.453148
v -2.25326 2.546826 1.361382
v -2.25326 4.942355 1.361368
v -2.25326 2.546826 1.453155
v -2.25326 4.942355 -1.448358
v -2.180395 2.546826 -1.448344
v -2.180395 4.942355 -1.448358
v -2.253246 2.546826 -1.448344
v -2.253246 2.546826 -1.356578
v -2.180395 4.942355 -1.356578
v -2.180395 2.546826 -1.356578
v -2.25326 4.942355 -1.356578
v -2.180395 4.942355 -1.448358
v -2.180395 2.546826 -1.356578
v -2.180395 4.942355 -1.356578
v -2.180395 2.546826 -1.448344
v -2.25326 4.942355 -1.356578
v -2.253246 2.546826 -1.448344
v -2.25326 4.942355 -1.448358
v -2.253246 2.546826 -1.356578
v -2.149977 2.56061 -1.351911
v -2.170731 4.934557 1.358722
v -2.146953 2.625649 -1.386315
v -2.173756 4.869517 1.392692
v -2.146953 2.625649 -1.386315
v -2.229271 4.938445 1.358737
v -2.205493 2.629538 -1.386315
v -2.170731 4.934557 1.358722
v -2.205493 2.629538 -1.386315
v -2.23231 4.873392 1.392692
v -2.208532 2.564484 -1.351925
v -2.229271 4.938445 1.358737
v -2.208532 2.564484 -1.351925
v -2.173756 4.869517 1.392692
v -2.149977 2.56061 -1.351911
v -2.23231 4.873392 1.392692
v 2.322451 4.921004 -1.518837
v -2.322433 4.921004 1.518805
v 2.322339 4.921004 1.518805
v -2.322314 4.921004 -1.518837
v -2.322314 5.036871 -1.518837
v 2.322339 5.036871 1.518805
v -2.322433 5.036871 1.518805
v 2.322451 5.036871 -1.518837
v 2.322451 5.036871 -1.518837
v -2.322314 4.921004 -1.518837
v 2.322451 4.921004 -1.518837
v -2.322314 5.036871 -1.518837
v 2.322339 5.036871 1.518805
v 2.322451 4.921004 -1.518837
v 2.322339 4.921004 1.518805
v 2.322451 5.036871 -1.518837
v -2.322433 5.036871 1.518805
v -2.322314 4.921004 -1.518837
v -2.322314 5.036871 -1.518837
v -2.322433 4.921004 1.518805
v -2.322433 5.036871 1.518805
v 2.322339 4.921004 1.518805
v -2.322433 4.921004 1.518805
v 2.322339 5.036871 1.518805
v -2.25326 2.490896 1.36139
v -2.180395 0.2408383 1.361382
v -2.180395 2.490896 1.36139
v -2.253246 0.2408383 1.361382
v -2.143071 0.1669905 1.31377
v -2.295174 0.1702051 1.31377
v -2.143071 0.01055741 1.313784
v -2.295174 0.01055741 1.313784
v -2.253246 0.2408383 1.453155
v -2.180395 2.490896 1.453169
v -2.180395 0.2408383 1.453155
v -2.25326 2.490896 1.453169
v -2.295174 0.1700716 1.499224
v -2.143071 0.1668572 1.499231
v -2.295174 0.01055741 1.499231
v -2.143071 0.01055741 1.499231
v -2.180395 2.490896 1.36139
v -2.180395 0.2408383 1.453155
v -2.180395 2.490896 1.453169
v -2.180395 0.2408383 1.361382
v -2.143071 0.1669905 1.31377
v -2.143071 0.1668572 1.499231
v -2.143071 0.01055741 1.499231
v -2.143071 0.01055741 1.313784
v -2.25326 2.490896 1.453169
v -2.253246 0.2408383 1.361382
v -2.25326 2.490896 1.36139
v -2.253246 0.2408383 1.453155
v -2.295174 0.1702051 1.31377
v -2.295174 0.1700716 1.499224
v -2.295174 0.01055741 1.313784
v -2.295174 0.01055741 1.499231
v -2.253246 2.490896 -1.448316
v -2.180395 0.2408383 -1.448337
v -2.180395 2.490896 -1.448316
v -2.253246 0.2408383 -1.448337
v -2.143071 0.1669905 -1.495957
v -2.295174 0.1702051 -1.495957
v -2.143071 0.01055741 -1.49595
v -2.295174 0.01055741 -1.49595
v -2.253246 0.2408383 -1.356564
v -2.180395 2.490896 -1.35655
v -2.180395 0.2408383 -1.356564
v -2.253246 2.490896 -1.35655
v -2.295174 0.1700716 -1.310489
v -2.143071 0.1668572 -1.310475
v -2.295174 0.01055741 -1.310475
v -2.143071 0.01055741 -1.310475
v -2.180395 2.490896 -1.448316
v -2.180395 0.2408383 -1.356564
v -2.180395 2.490896 -1.35655
v -2.180395 0.2408383 -1.448337
v -2.143071 0.1669905 -1.495957
v -2.143071 0.1668572 -1.310475
v -2.143071 0.01055741 -1.310475
v -2.143071 0.01055741 -1.49595
v -2.253246 2.490896 -1.35655
v -2.253246 0.2408383 -1.448337
v -2.253246 2.490896 -1.448316
v -2.253246 0.2408383 -1.356564
v -2.295174 0.1702051 -1.495957
v -2.295174 0.1700716 -1.310489
v -2.295174 0.01055741 -1.49595
v -2.295174 0.01055741 -1.310475
v -2.251042 0.08208203 1.375854
v -2.218912 2.456036 -1.334786
v -2.255731 0.1471286 1.410245
v -2.214203 2.390982 -1.368755
v -2.255731 0.1471286 1.410245
v -2.128213 2.459924 -1.334793
v -2.165046 0.1510098 1.410238
v -2.218912 2.456036 -1.334786
v -2.165046 0.1510098 1.410238
v -2.123525 2.39487 -1.368755
v -2.160336 0.08596325 1.375854
v -2.128213 2.459924 -1.334793
v -2.160336 0.08596325 1.375854
v -2.214203 2.390982 -1.368755
v -2.251042 0.08208203 1.375854
v -2.123525 2.39487 -1.368755
v -2.053229 0.02782965 -1.373626
v -2.053229 0.1393452 -1.104281
v -2.053229 0.02782965 -1.104281
v -2.053229 0.3475811 -1.373626
v -2.053229 0.1393452 -0.5744265
v -2.053229 0.3475811 1.415298
v -2.053229 0.1393452 0.6160982
v -2.053229 0.02782965 -0.5744265
v -2.053229 0.02782965 0.6160982
v -2.053229 0.1393452 1.145953
v -2.053229 0.02782965 1.415298
v -2.053229 0.02782965 1.145953
v 0.01052594 0.3475811 -1.373633
v -2.053229 0.3475811 1.415298
v -2.053229 0.3475811 -1.373626
v 0.01052594 0.3475811 1.415284
v -0.5654745 0.139282 -1.373626
v -2.053229 0.3475811 -1.373626
v -1.557252 0.1394153 -1.373626
v 0.01052594 0.3475811 -1.373633
v -0.5654745 0.02782965 -1.373626
v 0.01052594 0.02782965 -1.373633
v -2.053229 0.02782965 -1.373626
v -1.557252 0.02782965 -1.373626
v -1.557245 0.02782965 -1.104281
v -2.053229 0.1393452 -1.104281
v -1.557245 0.1393452 -1.104281
v -2.053229 0.02782965 -1.104281
v -2.053229 0.3475811 1.415298
v -1.557224 0.02782965 1.415298
v -2.053229 0.02782965 1.415298
v -1.557224 0.1396399 1.415298
v -0.5654676 0.1343691 1.415284
v 0.01052594 0.3475811 1.415284
v 0.01052594 0.02782965 1.415284
v -0.5654676 0.02782965 1.415284
v -2.053229 0.1393452 1.145953
v -1.557245 0.02782965 1.145953
v -1.557245 0.1393452 1.145953
v -2.053229 0.02782965 1.145953
v 0.01052594 0.1393452 -1.104288
v -0.5654745 0.02782965 -1.104281
v -0.5654745 0.1393452 -1.104281
v 0.01052594 0.02782965 -1.104288
v 2.074259 0.1393452 -0.5744405
v -2.053229 0.02782965 -0.5744265
v 2.074259 0.02782965 -0.5744405
v -2.053229 0.1393452 -0.5744265
v 2.074259 0.02782965 0.6160843
v -2.053229 0.1393452 0.6160982
v 2.074259 0.1393452 0.6160843
v -2.053229 0.02782965 0.6160982
v -0.5654745 0.02782965 1.145939
v 0.01052594 0.1393452 1.145939
v -0.5654745 0.1393452 1.145939
v 0.01052594 0.02782965 1.145939
v -1.557245 0.02782965 1.145953
v -1.557224 0.1396399 1.415298
v -1.557245 0.1393452 1.145953
v -1.557224 0.02782965 1.415298
v -1.557245 0.02782965 -1.104281
v -1.557252 0.1394153 -1.373626
v -1.557252 0.02782965 -1.373626
v -1.557245 0.1393452 -1.104281
v -0.5654676 0.1343691 1.415284
v -0.5654745 0.02782965 1.145939
v -0.5654745 0.1393452 1.145939
v -0.5654676 0.02782965 1.415284
v -0.5654745 0.1393452 -1.104281
v -0.5654745 0.02782965 -1.373626
v -0.5654745 0.139282 -1.373626
v -0.5654745 0.02782965 -1.104281
vt 0.9200584 0.3930109
vt 0.8522185 0.2053399
vt 0.8522185 0.3930109
vt 0.9200584 0.2053399
vt 0.8947273 0.2351463
vt 0.9144309 0.3052164
vt 0.8947273 0.2818499
vt 0.9144309 0.2117649
vt 0.8849051 0.2351463
vt 0.8849051 0.2117649
vt 0.8849051 0.3052164
vt 0.8849051 0.2818499
vt 0.9018762 0.3435895
vt 0.914874 0.3561147
vt 0.9018762 0.3561147
vt 0.914874 0.3435895
vt 0.8832508 0.3038132
vt 0.8757918 0.2480259
vt 0.8757918 0.3038132
vt 0.8832508 0.2480259
vt 0.8618635 0.2105833
vt 0.8757918 0.2231971
vt 0.8832508 0.2231971
vt 0.8832508 0.2105833
vt 0.8618635 0.3412706
vt 0.8757918 0.3286421
vt 0.8832508 0.3286421
vt 0.8832508 0.3412706
vt 0.9144309 0.3052164
vt 0.8849051 0.2818499
vt 0.8849051 0.3052164
vt 0.8947273 0.2818499
vt 0.8947273 0.2351463
vt 0.9144309 0.2117649
vt 0.8849051 0.2117649
vt 0.8849051 0.2351463
vt 0.914874 0.3561147
vt 0.9018762 0.3435895
vt 0.9018762 0.3561147
vt 0.914874 0.3435895
vt 0.914874 0.3561147
vt 0.9018762 0.3435895
vt 0.9018762 0.3561147
vt 0.914874 0.3435895
vt 0.9018762 0.3435895
vt 0.914874 0.3561147
vt 0.9018762 0.3561147
vt 0.914874 0.3435895
vt 0.873207 0.3425852
vt 0.8608887 0.3554353
vt 0.873207 0.3554058
vt 0.8608887 0.3425852
vt 0.873207 0.3425852
vt 0.8608887 0.3554353
vt 0.8608887 0.3425852
vt 0.873207 0.3554058
vt 0.8608887 0.3554353
vt 0.873207 0.3425852
vt 0.873207 0.3554058
vt 0.8608887 0.3425852
vt 0.873207 0.3554058
vt 0.8608887 0.3425852
vt 0.8608887 0.3554353
vt 0.873207 0.3425852
vt 0.8810796 0.3864381
vt 0.9113734 0.5397239
vt 0.911595 0.3864381
vt 0.8808581 0.5397239
vt 0.880474 0.3864381
vt 0.9111814 0.5397239
vt 0.9109598 0.3864381
vt 0.8806956 0.5397239
vt 0.9002957 0.5392808
vt 0.8883909 0.385995
vt 0.8883909 0.5392808
vt 0.9002957 0.385995
vt 0.8773428 0.2093131
vt 0.976791 0.391268
vt 0.976791 0.2093131
vt 0.8773428 0.391268
vt 0.9767762 0.2093131
vt 0.8773428 0.3912827
vt 0.9767762 0.3912827
vt 0.8773428 0.2093131
vt 0.9002957 0.5392808
vt 0.8883909 0.385995
vt 0.8883909 0.5392808
vt 0.9002957 0.385995
vt 0.9465266 0.0493806
vt 0.6261153 0.03170059
vt 0.9464233 0.03170059
vt 0.6263072 0.0493806
vt 0.6261005 0.03170059
vt 0.9463347 0.008821443
vt 0.6259676 0.008821443
vt 0.9464381 0.03170059
vt 0.9464233 0.03170059
vt 0.6259676 0.008821443
vt 0.9463347 0.008821443
vt 0.6261153 0.03170059
vt 0.9464381 0.03170059
vt 0.626263 0.0493806
vt 0.9464233 0.0493806
vt 0.6261005 0.03170059
vt 0.9465266 0.0493806
vt 0.6261153 0.03170059
vt 0.9464233 0.03170059
vt 0.6263072 0.0493806
vt 0.6261005 0.03170059
vt 0.9463347 0.008821443
vt 0.6259676 0.008821443
vt 0.9464381 0.03170059
vt 0.9464233 0.03170059
vt 0.6259676 0.008821443
vt 0.9463347 0.008821443
vt 0.6261153 0.03170059
vt 0.9464381 0.03170059
vt 0.626263 0.0493806
vt 0.9464233 0.0493806
vt 0.6261005 0.03170059
vt 0.9734676 0.02164204
vt 0.5654242 0.0104314
vt 0.9734676 0.0104314
vt 0.5654242 0.02164204
vt 0.9734676 0.02164204
vt 0.5654242 0.0104314
vt 0.9734676 0.0104314
vt 0.5654242 0.02164204
vt 0.9734676 0.02164204
vt 0.5654242 0.0104314
vt 0.9734676 0.0104314
vt 0.5654242 0.02164204
vt 0.9734676 0.02164204
vt 0.5654242 0.0104314
vt 0.9734676 0.0104314
vt 0.5654242 0.02164204
vt 0.9465266 0.0493806
vt 0.6261153 0.03170059
vt 0.9464233 0.03170059
vt 0.6263072 0.0493806
vt 0.6165441 0.03170059
vt 0.6165441 0.06125589
vt 0.5994106 0.03170059
vt 0.5994106 0.06125589
vt 0.6261005 0.03170059
vt 0.9463347 0.008821443
vt 0.6259676 0.008821443
vt 0.9464381 0.03170059
vt 0.6165441 0.03170059
vt 0.6165441 0.008821443
vt 0.5994106 0.03170059
vt 0.5994106 0.008821443
vt 0.9464233 0.03170059
vt 0.6259676 0.008821443
vt 0.9463347 0.008821443
vt 0.6261153 0.03170059
vt 0.6165441 0.03170059
vt 0.6165441 0.008821443
vt 0.5994106 0.008821443
vt 0.5994106 0.03170059
vt 0.9464381 0.03170059
vt 0.626263 0.0493806
vt 0.9464233 0.0493806
vt 0.6261005 0.03170059
vt 0.6165441 0.06125589
vt 0.6165441 0.03170059
vt 0.5994106 0.06125589
vt 0.5994106 0.03170059
vt 0.9465266 0.0493806
vt 0.6261153 0.03170059
vt 0.9464233 0.03170059
vt 0.6263072 0.0493806
vt 0.6165441 0.03170059
vt 0.6165441 0.06125589
vt 0.5994106 0.03170059
vt 0.5994106 0.06125589
vt 0.6261005 0.03170059
vt 0.9463347 0.008821443
vt 0.6259676 0.008821443
vt 0.9464381 0.03170059
vt 0.6165441 0.03170059
vt 0.6165441 0.008821443
vt 0.5994106 0.03170059
vt 0.5994106 0.008821443
vt 0.9464233 0.03170059
vt 0.6259676 0.008821443
vt 0.9463347 0.008821443
vt 0.6261153 0.03170059
vt 0.6165441 0.03170059
vt 0.6165441 0.008821443
vt 0.5994106 0.008821443
vt 0.5994106 0.03170059
vt 0.9464381 0.03170059
vt 0.626263 0.0493806
vt 0.9464233 0.0493806
vt 0.6261005 0.03170059
vt 0.6165441 0.06125589
vt 0.6165441 0.03170059
vt 0.5994106 0.06125589
vt 0.5994106 0.03170059
vt 0.9734676 0.02164204
vt 0.5654242 0.0104314
vt 0.9734676 0.0104314
vt 0.5654242 0.02164204
vt 0.9734676 0.02164204
vt 0.5654242 0.0104314
vt 0.9734676 0.0104314
vt 0.5654242 0.02164204
vt 0.9734676 0.02164204
vt 0.5654242 0.0104314
vt 0.9734676 0.0104314
vt 0.5654242 0.02164204
vt 0.9734676 0.02164204
vt 0.5654242 0.0104314
vt 0.9734676 0.0104314
vt 0.5654242 0.02164204
vt 0.9465266 0.0493806
vt 0.6261153 0.03170059
vt 0.9464233 0.03170059
vt 0.6263072 0.0493806
vt 0.6261005 0.03170059
vt 0.9463347 0.008821443
vt 0.6259676 0.008821443
vt 0.9464381 0.03170059
vt 0.9464233 0.03170059
vt 0.6259676 0.008821443
vt 0.9463347 0.008821443
vt 0.6261153 0.03170059
vt 0.9464381 0.03170059
vt 0.626263 0.0493806
vt 0.9464233 0.0493806
vt 0.6261005 0.03170059
vt 0.9465266 0.0493806
vt 0.6261153 0.03170059
vt 0.9464233 0.03170059
vt 0.6263072 0.0493806
vt 0.6261005 0.03170059
vt 0.9463347 0.008821443
vt 0.6259676 0.008821443
vt 0.9464381 0.03170059
vt 0.9464233 0.03170059
vt 0.6259676 0.008821443
vt 0.9463347 0.008821443
vt 0.6261153 0.03170059
vt 0.9464381 0.03170059
vt 0.626263 0.0493806
vt 0.9464233 0.0493806
vt 0.6261005 0.03170059
vt 0.9734676 0.02164204
vt 0.5654242 0.0104314
vt 0.9734676 0.0104314
vt 0.5654242 0.02164204
vt 0.9734676 0.02164204
vt 0.5654242 0.0104314
vt 0.9734676 0.0104314
vt 0.5654242 0.02164204
vt 0.9734676 0.02164204
vt 0.5654242 0.0104314
vt 0.9734676 0.0104314
vt 0.5654242 0.02164204
vt 0.9734676 0.02164204
vt 0.5654242 0.0104314
vt 0.9734676 0.0104314
vt 0.5654242 0.02164204
vt 0.8810796 0.3864381
vt 0.9113734 0.5397239
vt 0.911595 0.3864381
vt 0.8808581 0.5397239
vt 0.880474 0.3864381
vt 0.9111814 0.5397239
vt 0.9109598 0.3864381
vt 0.8806956 0.5397239
vt 0.9002957 0.5392808
vt 0.8883909 0.385995
vt 0.8883909 0.5392808
vt 0.9002957 0.385995
vt 0.8773428 0.2093131
vt 0.976791 0.391268
vt 0.976791 0.2093131
vt 0.8773428 0.391268
vt 0.9767762 0.2093131
vt 0.8773428 0.3912827
vt 0.9767762 0.3912827
vt 0.8773428 0.2093131
vt 0.9002957 0.5392808
vt 0.8883909 0.385995
vt 0.8883909 0.5392808
vt 0.9002957 0.385995
vt 0.9465266 0.0493806
vt 0.6261153 0.03170059
vt 0.9464233 0.03170059
vt 0.6263072 0.0493806
vt 0.6165441 0.03170059
vt 0.6165441 0.06125589
vt 0.5994106 0.03170059
vt 0.5994106 0.06125589
vt 0.6261005 0.03170059
vt 0.9463347 0.008821443
vt 0.6259676 0.008821443
vt 0.9464381 0.03170059
vt 0.6165441 0.03170059
vt 0.6165441 0.008821443
vt 0.5994106 0.03170059
vt 0.5994106 0.008821443
vt 0.9464233 0.03170059
vt 0.6259676 0.008821443
vt 0.9463347 0.008821443
vt 0.6261153 0.03170059
vt 0.6165441 0.03170059
vt 0.6165441 0.008821443
vt 0.5994106 0.008821443
vt 0.5994106 0.03170059
vt 0.9464381 0.03170059
vt 0.626263 0.0493806
vt 0.9464233 0.0493806
vt 0.6261005 0.03170059
vt 0.6165441 0.06125589
vt 0.6165441 0.03170059
vt 0.5994106 0.06125589
vt 0.5994106 0.03170059
vt 0.9465266 0.0493806
vt 0.6261153 0.03170059
vt 0.9464233 0.03170059
vt 0.6263072 0.0493806
vt 0.6165441 0.03170059
vt 0.6165441 0.06125589
vt 0.5994106 0.03170059
vt 0.5994106 0.06125589
vt 0.6261005 0.03170059
vt 0.9463347 0.008821443
vt 0.6259676 0.008821443
vt 0.9464381 0.03170059
vt 0.6165441 0.03170059
vt 0.6165441 0.008821443
vt 0.5994106 0.03170059
vt 0.5994106 0.008821443
vt 0.9464233 0.03170059
vt 0.6259676 0.008821443
vt 0.9463347 0.008821443
vt 0.6261153 0.03170059
vt 0.6165441 0.03170059
vt 0.6165441 0.008821443
vt 0.5994106 0.008821443
vt 0.5994106 0.03170059
vt 0.9464381 0.03170059
vt 0.626263 0.0493806
vt 0.9464233 0.0493806
vt 0.6261005 0.03170059
vt 0.6165441 0.06125589
vt 0.6165441 0.03170059
vt 0.5994106 0.06125589
vt 0.5994106 0.03170059
vt 0.9734676 0.02164204
vt 0.5654242 0.0104314
vt 0.9734676 0.0104314
vt 0.5654242 0.02164204
vt 0.9734676 0.02164204
vt 0.5654242 0.0104314
vt 0.9734676 0.0104314
vt 0.5654242 0.02164204
vt 0.9734676 0.02164204
vt 0.5654242 0.0104314
vt 0.9734676 0.0104314
vt 0.5654242 0.02164204
vt 0.9734676 0.02164204
vt 0.5654242 0.0104314
vt 0.9734676 0.0104314
vt 0.5654242 0.02164204
vt 0.8832508 0.3412706
vt 0.8757918 0.3286421
vt 0.8832508 0.3286421
vt 0.8618635 0.3412706
vt 0.8757918 0.3038132
vt 0.8618635 0.2105833
vt 0.8757918 0.2480259
vt 0.8832508 0.3038132
vt 0.8832508 0.2480259
vt 0.8757918 0.2231971
vt 0.8832508 0.2105833
vt 0.8832508 0.2231971
vt 0.9200584 0.3930109
vt 0.8522185 0.2053399
vt 0.8522185 0.3930109
vt 0.9200584 0.2053399
vt 0.8947273 0.2351463
vt 0.9144309 0.3052164
vt 0.8947273 0.2818499
vt 0.9144309 0.2117649
vt 0.8849051 0.2351463
vt 0.8849051 0.2117649
vt 0.8849051 0.3052164
vt 0.8849051 0.2818499
vt 0.9018762 0.3435895
vt 0.914874 0.3561147
vt 0.9018762 0.3561147
vt 0.914874 0.3435895
vt 0.9144309 0.3052164
vt 0.8849051 0.2818499
vt 0.8849051 0.3052164
vt 0.8947273 0.2818499
vt 0.8947273 0.2351463
vt 0.9144309 0.2117649
vt 0.8849051 0.2117649
vt 0.8849051 0.2351463
vt 0.914874 0.3561147
vt 0.9018762 0.3435895
vt 0.9018762 0.3561147
vt 0.914874 0.3435895
vt 0.914874 0.3561147
vt 0.9018762 0.3435895
vt 0.9018762 0.3561147
vt 0.914874 0.3435895
vt 0.9189063 0.3841044
vt 0.8527502 0.390175
vt 0.9189063 0.390175
vt 0.8527502 0.3841044
vt 0.9189063 0.390175
vt 0.8527502 0.3841044
vt 0.9189063 0.3841339
vt 0.8527502 0.390175
vt 0.9018762 0.3435895
vt 0.914874 0.3561147
vt 0.9018762 0.3561147
vt 0.914874 0.3435895
vt 0.873207 0.3425852
vt 0.8608887 0.3554353
vt 0.873207 0.3554058
vt 0.8608887 0.3425852
vt 0.873207 0.3425852
vt 0.8608887 0.3554353
vt 0.8608887 0.3425852
vt 0.873207 0.3554058
vt 0.8608887 0.3554353
vt 0.873207 0.3425852
vt 0.873207 0.3554058
vt 0.8608887 0.3425852
vt 0.873207 0.3554058
vt 0.8608887 0.3425852
vt 0.8608887 0.3554353
vt 0.873207 0.3425852
vn 0.003921568 0.9999923 -0.000345267
vn 0.003921568 0.9999923 -0.000345267
vn 0.003921568 0.9999923 -0.000345267
vn 0.003921568 0.9999923 -0.000345267
vn 0.01176465 -0.01176465 -0.9998616
vn 0.01176465 -0.01176465 -0.9998616
vn 0.01176465 -0.01176465 -0.9998616
vn 0.01176465 -0.01176465 -0.9998616
vn 0.01176465 -0.01176465 -0.9998616
vn 0.01176465 -0.01176465 -0.9998616
vn 0.01176465 -0.01176465 -0.9998616
vn 0.01176465 -0.01176465 -0.9998616
vn 0.01176465 -0.01176465 0.9998616
vn 0.01176465 -0.01176465 0.9998616
vn 0.01176465 -0.01176465 0.9998616
vn 0.01176465 -0.01176465 0.9998616
vn 0.9999924 -0.003921568 0
vn 0.9999924 -0.003921568 0
vn 0.9999924 -0.003921568 0
vn 0.9999924 -0.003921568 0
vn 0.9999924 -0.003921568 0
vn 0.9999924 -0.003921568 0
vn 0.9999924 -0.003921568 0
vn 0.9999924 -0.003921568 0
vn 0.9999924 -0.003921568 0
vn 0.9999924 -0.003921568 0
vn 0.9999924 -0.003921568 0
vn 0.9999924 -0.003921568 0
vn 0.01176465 -0.01176465 0.9998616
vn 0.01176465 -0.01176465 0.9998616
vn 0.01176465 -0.01176465 0.9998616
vn 0.01176465 -0.01176465 0.9998616
vn 0.01176465 -0.01176465 0.9998616
vn 0.01176465 -0.01176465 0.9998616
vn 0.01176465 -0.01176465 0.9998616
vn 0.01176465 -0.01176465 0.9998616
vn 0.01176465 -0.01176465 -0.9998616
vn 0.01176465 -0.01176465 -0.9998616
vn 0.01176465 -0.01176465 -0.9998616
vn 0.01176465 -0.01176465 -0.9998616
vn 0.01176465 -0.01176465 0.9998616
vn 0.01176465 -0.01176465 0.9998616
vn 0.01176465 -0.01176465 0.9998616
vn 0.01176465 -0.01176465 0.9998616
vn 0.01176465 -0.01176465 -0.9998616
vn 0.01176465 -0.01176465 -0.9998616
vn 0.01176465 -0.01176465 -0.9998616
vn 0.01176465 -0.01176465 -0.9998616
vn 0.9999924 -0.003921568 0
vn 0.9999924 -0.003921568 0
vn 0.9999924 -0.003921568 0
vn 0.9999924 -0.003921568 0
vn 0.9999924 -0.003921568 0
vn 0.9999924 -0.003921568 0
vn 0.9999924 -0.003921568 0
vn 0.9999924 -0.003921568 0
vn -0.9999923 -0.003921568 -0.0003442513
vn -0.9999923 -0.003921568 -0.0003442513
vn -0.9999923 -0.003921568 -0.0003442513
vn -0.9999923 -0.003921568 -0.0003442513
vn -0.9999923 -0.003921568 -0.0003442513
vn -0.9999923 -0.003921568 -0.0003442513
vn -0.9999923 -0.003921568 -0.0003442513
vn -0.9999923 -0.003921568 -0.0003442513
vn 0.003921568 -0.9999924 0
vn 0.003921568 -0.9999924 0
vn 0.003921568 -0.9999924 0
vn 0.003921568 -0.9999924 0
vn 0.003921568 0.9999923 -0.000345267
vn 0.003921568 0.9999923 -0.000345267
vn 0.003921568 0.9999923 -0.000345267
vn 0.003921568 0.9999923 -0.000345267
vn 0.01176465 -0.01176465 -0.9998616
vn 0.01176465 -0.01176465 -0.9998616
vn 0.01176465 -0.01176465 -0.9998616
vn 0.01176465 -0.01176465 -0.9998616
vn 0.9999924 -0.003921568 0
vn 0.9999924 -0.003921568 0
vn 0.9999924 -0.003921568 0
vn 0.9999924 -0.003921568 0
vn -0.9999923 -0.003921568 -0.0003442513
vn -0.9999923 -0.003921568 -0.0003442513
vn -0.9999923 -0.003921568 -0.0003442513
vn -0.9999923 -0.003921568 -0.0003442513
vn 0.01176465 -0.01176465 0.9998616
vn 0.01176465 -0.01176465 0.9998616
vn 0.01176465 -0.01176465 0.9998616
vn 0.01176465 -0.01176465 0.9998616
vn 0.01176465 -0.01176465 -0.9998616
vn 0.01176465 -0.01176465 -0.9998616
vn 0.01176465 -0.01176465 -0.9998616
vn 0.01176465 -0.01176465 -0.9998616
vn 0.01176465 -0.01176465 0.9998616
vn 0.01176465 -0.01176465 0.9998616
vn 0.01176465 -0.01176465 0.9998616
vn 0.01176465 -0.01176465 0.9998616
vn 0.9999924 -0.003921568 0
vn 0.9999924 -0.003921568 0
vn 0.9999924 -0.003921568 0
vn 0.9999924 -0.003921568 0
vn -0.9999923 -0.003921568 -0.0003442513
vn -0.9999923 -0.003921568 -0.0003442513
vn -0.9999923 -0.003921568 -0.0003442513
vn -0.9999923 -0.003921568 -0.0003442513
vn 0.01176465 -0.01176465 -0.9998616
vn 0.01176465 -0.01176465 -0.9998616
vn 0.01176465 -0.01176465 -0.9998616
vn 0.01176465 -0.01176465 -0.9998616
vn 0.01176465 -0.01176465 0.9998616
vn 0.01176465 -0.01176465 0.9998616
vn 0.01176465 -0.01176465 0.9998616
vn 0.01176465 -0.01176465 0.9998616
vn 0.9999924 -0.003921568 0
vn 0.9999924 -0.003921568 0
vn 0.9999924 -0.003921568 0
vn 0.9999924 -0.003921568 0
vn -0.9999923 -0.003921568 -0.0003442513
vn -0.9999923 -0.003921568 -0.0003442513
vn -0.9999923 -0.003921568 -0.0003442513
vn -0.9999923 -0.003921568 -0.0003442513
vn 0.9993777 -0.03527218 0
vn 0.9993777 -0.03527218 0
vn 0.9993777 -0.03527218 0
vn 0.9993777 -0.03527218 0
vn 0.05882311 0.7568569 -0.6509281
vn 0.05882311 0.7568569 -0.6509281
vn 0.05882311 0.7568569 -0.6509281
vn 0.05882311 0.7568569 -0.6509281
vn -0.9921492 0.02745068 -0.1220097
vn -0.9921492 0.02745068 -0.1220097
vn -0.9921492 0.02745068 -0.1220097
vn -0.9921492 0.02745068 -0.1220097
vn -0.04313684 -0.7725431 0.6334953
vn -0.04313684 -0.7725431 0.6334953
vn -0.04313684 -0.7725431 0.6334953
vn -0.04313684 -0.7725431 0.6334953
vn 0.01176465 -0.01176465 -0.9998616
vn 0.01176465 0.3098015 -0.9507285
vn 0.01176465 -0.01176465 -0.9998616
vn 0.01960772 0.3176446 -0.9480071
vn 0.01176465 0.2392138 -0.9708956
vn 0.01960772 0.2392138 -0.9707689
vn 0.01176465 -0.01176465 -0.9998616
vn 0.01176465 -0.01176465 -0.9998616
vn 0.01176465 0.3176446 0.9481369
vn 0.01176465 -0.01176465 0.9998616
vn 0.01960772 0.3098015 0.9505991
vn 0.01176465 -0.01176465 0.9998616
vn 0.01176465 0.2313707 0.9727945
vn 0.01960772 0.2313707 0.9726681
vn 0.01176465 -0.01176465 0.9998616
vn 0.01176465 -0.01176465 0.9998616
vn 0.9999924 -0.003921568 0
vn 0.9670746 0.2544933 0
vn 0.9999924 -0.003921568 0
vn 0.9670746 0.2544933 0
vn 0.9843062 0.1764692 0
vn 0.9843062 0.1764692 0
vn 0.9999924 -0.003921568 0
vn 0.9999924 -0.003921568 0
vn -0.9999923 -0.003921568 -0.0003442513
vn -0.9529338 0.3019584 -0.02717196
vn -0.9999923 -0.003921568 -0.0003442513
vn -0.9529338 0.2941153 0.07357585
vn -0.9764631 0.2078415 0.0576349
vn -0.9764631 0.2078415 0.0576349
vn -0.9999923 -0.003921568 -0.0003442513
vn -0.9999923 -0.003921568 -0.0003442513
vn 0.01176465 -0.01176465 -0.9998616
vn 0.01176465 0.3098015 -0.9507285
vn 0.01176465 -0.01176465 -0.9998616
vn 0.01960772 0.3176446 -0.9480071
vn 0.01176465 0.2392138 -0.9708956
vn 0.01960772 0.2392138 -0.9707689
vn 0.01176465 -0.01176465 -0.9998616
vn 0.01176465 -0.01176465 -0.9998616
vn 0.01176465 0.3176446 0.9481369
vn 0.01176465 -0.01176465 0.9998616
vn 0.01960772 0.3098015 0.9505991
vn 0.01176465 -0.01176465 0.9998616
vn 0.01176465 0.2313707 0.9727945
vn 0.01960772 0.2313707 0.9726681
vn 0.01176465 -0.01176465 0.9998616
vn 0.01176465 -0.01176465 0.9998616
vn 0.9999924 -0.003921568 0
vn 0.9670746 0.2544933 0
vn 0.9999924 -0.003921568 0
vn 0.9670746 0.2544933 0
vn 0.9843062 0.1764692 0
vn 0.9843062 0.1764692 0
vn 0.9999924 -0.003921568 0
vn 0.9999924 -0.003921568 0
vn -0.9999923 -0.003921568 -0.0003442513
vn -0.9529338 0.3019584 -0.02717196
vn -0.9999923 -0.003921568 -0.0003442513
vn -0.9529338 0.2941153 0.07357585
vn -0.9764631 0.2078415 0.0576349
vn -0.9764631 0.2078415 0.0576349
vn -0.9999923 -0.003921568 -0.0003442513
vn -0.9999923 -0.003921568 -0.0003442513
vn -0.9921492 -0.05882311 -0.1103619
vn -0.9921492 -0.05882311 -0.1103619
vn -0.9921492 -0.05882311 -0.1103619
vn -0.9921492 -0.05882311 -0.1103619
vn -0.02745068 0.7646999 0.6438016
vn -0.02745068 0.7646999 0.6438016
vn -0.02745068 0.7646999 0.6438016
vn -0.02745068 0.7646999 0.6438016
vn 0.9993777 0.03527213 0
vn 0.9993777 0.03527213 0
vn 0.9993777 0.03527213 0
vn 0.9993777 0.03527213 0
vn 0.04313695 -0.7803862 -0.6238081
vn 0.04313695 -0.7803862 -0.6238081
vn 0.04313695 -0.7803862 -0.6238081
vn 0.04313695 -0.7803862 -0.6238081
vn 0.01176465 -0.01176465 -0.9998616
vn 0.01176465 -0.01176465 -0.9998616
vn 0.01176465 -0.01176465 -0.9998616
vn 0.01176465 -0.01176465 -0.9998616
vn 0.01176465 -0.01176465 0.9998616
vn 0.01176465 -0.01176465 0.9998616
vn 0.01176465 -0.01176465 0.9998616
vn 0.01176465 -0.01176465 0.9998616
vn 0.9999924 -0.003921568 0
vn 0.9999924 -0.003921568 0
vn 0.9999924 -0.003921568 0
vn 0.9999924 -0.003921568 0
vn -0.9999923 -0.003921568 -0.0003442513
vn -0.9999923 -0.003921568 -0.0003442513
vn -0.9999923 -0.003921568 -0.0003442513
vn -0.9999923 -0.003921568 -0.0003442513
vn 0.01176465 -0.01176465 -0.9998616
vn 0.01176465 -0.01176465 -0.9998616
vn 0.01176465 -0.01176465 -0.9998616
vn 0.01176465 -0.01176465 -0.9998616
vn 0.01176465 -0.01176465 0.9998616
vn 0.01176465 -0.01176465 0.9998616
vn 0.01176465 -0.01176465 0.9998616
vn 0.01176465 -0.01176465 0.9998616
vn 0.9999924 -0.003921568 0
vn 0.9999924 -0.003921568 0
vn 0.9999924 -0.003921568 0
vn 0.9999924 -0.003921568 0
vn -0.9999923 -0.003921568 -0.0003442513
vn -0.9999923 -0.003921568 -0.0003442513
vn -0.9999923 -0.003921568 -0.0003442513
vn -0.9999923 -0.003921568 -0.0003442513
vn 0.9993777 -0.03527218 0
vn 0.9993777 -0.03527218 0
vn 0.9993777 -0.03527218 0
vn 0.9993777 -0.03527218 0
vn 0.05882311 0.7568569 -0.6509281
vn 0.05882311 0.7568569 -0.6509281
vn 0.05882311 0.7568569 -0.6509281
vn 0.05882311 0.7568569 -0.6509281
vn -0.9921492 0.02745068 -0.1220097
vn -0.9921492 0.02745068 -0.1220097
vn -0.9921492 0.02745068 -0.1220097
vn -0.9921492 0.02745068 -0.1220097
vn -0.04313684 -0.7725431 0.6334953
vn -0.04313684 -0.7725431 0.6334953
vn -0.04313684 -0.7725431 0.6334953
vn -0.04313684 -0.7725431 0.6334953
vn 0.003921568 -0.9999924 0
vn 0.003921568 -0.9999924 0
vn 0.003921568 -0.9999924 0
vn 0.003921568 -0.9999924 0
vn 0.003921568 0.9999923 -0.000345267
vn 0.003921568 0.9999923 -0.000345267
vn 0.003921568 0.9999923 -0.000345267
vn 0.003921568 0.9999923 -0.000345267
vn 0.01176465 -0.01176465 -0.9998616
vn 0.01176465 -0.01176465 -0.9998616
vn 0.01176465 -0.01176465 -0.9998616
vn 0.01176465 -0.01176465 -0.9998616
vn 0.9999924 -0.003921568 0
vn 0.9999924 -0.003921568 0
vn 0.9999924 -0.003921568 0
vn 0.9999924 -0.003921568 0
vn -0.9999923 -0.003921568 -0.0003442513
vn -0.9999923 -0.003921568 -0.0003442513
vn -0.9999923 -0.003921568 -0.0003442513
vn -0.9999923 -0.003921568 -0.0003442513
vn 0.01176465 -0.01176465 0.9998616
vn 0.01176465 -0.01176465 0.9998616
vn 0.01176465 -0.01176465 0.9998616
vn 0.01176465 -0.01176465 0.9998616
vn 0.01176465 -0.01176465 -0.9998616
vn 0.01176465 0.3098015 -0.9507285
vn 0.01176465 -0.01176465 -0.9998616
vn 0.01960772 0.3176446 -0.9480071
vn 0.01176465 0.2392138 -0.9708956
vn 0.01960772 0.2392138 -0.9707689
vn 0.01176465 -0.01176465 -0.9998616
vn 0.01176465 -0.01176465 -0.9998616
vn 0.01176465 0.3176446 0.9481369
vn 0.01176465 -0.01176465 0.9998616
vn 0.01960772 0.3098015 0.9505991
vn 0.01176465 -0.01176465 0.9998616
vn 0.01176465 0.2313707 0.9727945
vn 0.01960772 0.2313707 0.9726681
vn 0.01176465 -0.01176465 0.9998616
vn 0.01176465 -0.01176465 0.9998616
vn 0.9999924 -0.003921568 0
vn 0.9670746 0.2544933 0
vn 0.9999924 -0.003921568 0
vn 0.9670746 0.2544933 0
vn 0.9843062 0.1764692 0
vn 0.9843062 0.1764692 0
vn 0.9999924 -0.003921568 0
vn 0.9999924 -0.003921568 0
vn -0.9999923 -0.003921568 -0.0003442513
vn -0.9529338 0.3019584 -0.02717196
vn -0.9999923 -0.003921568 -0.0003442513
vn -0.9529338 0.2941153 0.07357585
vn -0.9764631 0.2078415 0.0576349
vn -0.9764631 0.2078415 0.0576349
vn -0.9999923 -0.003921568 -0.0003442513
vn -0.9999923 -0.003921568 -0.0003442513
vn 0.01176465 -0.01176465 -0.9998616
vn 0.01176465 0.3098015 -0.9507285
vn 0.01176465 -0.01176465 -0.9998616
vn 0.01960772 0.3176446 -0.9480071
vn 0.01176465 0.2392138 -0.9708956
vn 0.01960772 0.2392138 -0.9707689
vn 0.01176465 -0.01176465 -0.9998616
vn 0.01176465 -0.01176465 -0.9998616
vn 0.01176465 0.3176446 0.9481369
vn 0.01176465 -0.01176465 0.9998616
vn 0.01960772 0.3098015 0.9505991
vn 0.01176465 -0.01176465 0.9998616
vn 0.01176465 0.2313707 0.9727945
vn 0.01960772 0.2313707 0.9726681
vn 0.01176465 -0.01176465 0.9998616
vn 0.01176465 -0.01176465 0.9998616
vn 0.9999924 -0.003921568 0
vn 0.9670746 0.2544933 0
vn 0.9999924 -0.003921568 0
vn 0.9670746 0.2544933 0
vn 0.9843062 0.1764692 0
vn 0.9843062 0.1764692 0
vn 0.9999924 -0.003921568 0
vn 0.9999924 -0.003921568 0
vn -0.9999923 -0.003921568 -0.0003442513
vn -0.9529338 0.3019584 -0.02717196
vn -0.9999923 -0.003921568 -0.0003442513
vn -0.9529338 0.2941153 0.07357585
vn -0.9764631 0.2078415 0.0576349
vn -0.9764631 0.2078415 0.0576349
vn -0.9999923 -0.003921568 -0.0003442513
vn -0.9999923 -0.003921568 -0.0003442513
vn -0.9921492 -0.05882311 -0.1103619
vn -0.9921492 -0.05882311 -0.1103619
vn -0.9921492 -0.05882311 -0.1103619
vn -0.9921492 -0.05882311 -0.1103619
vn -0.02745068 0.7646999 0.6438016
vn -0.02745068 0.7646999 0.6438016
vn -0.02745068 0.7646999 0.6438016
vn -0.02745068 0.7646999 0.6438016
vn 0.9993777 0.03527213 0
vn 0.9993777 0.03527213 0
vn 0.9993777 0.03527213 0
vn 0.9993777 0.03527213 0
vn 0.04313695 -0.7803862 -0.6238081
vn 0.04313695 -0.7803862 -0.6238081
vn 0.04313695 -0.7803862 -0.6238081
vn 0.04313695 -0.7803862 -0.6238081
vn -0.9999923 -0.003921568 -0.0003442513
vn -0.9999923 -0.003921568 -0.0003442513
vn -0.9999923 -0.003921568 -0.0003442513
vn -0.9999923 -0.003921568 -0.0003442513
vn -0.9999923 -0.003921568 -0.0003442513
vn -0.9999923 -0.003921568 -0.0003442513
vn -0.9999923 -0.003921568 -0.0003442513
vn -0.9999923 -0.003921568 -0.0003442513
vn -0.9999923 -0.003921568 -0.0003442513
vn -0.9999923 -0.003921568 -0.0003442513
vn -0.9999923 -0.003921568 -0.0003442513
vn -0.9999923 -0.003921568 -0.0003442513
vn 0.003921568 0.9999923 -0.000345267
vn 0.003921568 0.9999923 -0.000345267
vn 0.003921568 0.9999923 -0.000345267
vn 0.003921568 0.9999923 -0.000345267
vn 0.01176465 -0.01176465 -0.9998616
vn 0.01176465 -0.01176465 -0.9998616
vn 0.01176465 -0.01176465 -0.9998616
vn 0.01176465 -0.01176465 -0.9998616
vn 0.01176465 -0.01176465 -0.9998616
vn 0.01176465 -0.01176465 -0.9998616
vn 0.01176465 -0.01176465 -0.9998616
vn 0.01176465 -0.01176465 -0.9998616
vn 0.01176465 -0.01176465 0.9998616
vn 0.01176465 -0.01176465 0.9998616
vn 0.01176465 -0.01176465 0.9998616
vn 0.01176465 -0.01176465 0.9998616
vn 0.01176465 -0.01176465 0.9998616
vn 0.01176465 -0.01176465 0.9998616
vn 0.01176465 -0.01176465 0.9998616
vn 0.01176465 -0.01176465 0.9998616
vn 0.01176465 -0.01176465 0.9998616
vn 0.01176465 -0.01176465 0.9998616
vn 0.01176465 -0.01176465 0.9998616
vn 0.01176465 -0.01176465 0.9998616
vn 0.01176465 -0.01176465 -0.9998616
vn 0.01176465 -0.01176465 -0.9998616
vn 0.01176465 -0.01176465 -0.9998616
vn 0.01176465 -0.01176465 -0.9998616
vn 0.01176465 -0.01176465 0.9998616
vn 0.01176465 -0.01176465 0.9998616
vn 0.01176465 -0.01176465 0.9998616
vn 0.01176465 -0.01176465 0.9998616
vn 0.01176465 -0.01176465 -0.9998616
vn 0.01176465 -0.01176465 -0.9998616
vn 0.01176465 -0.01176465 -0.9998616
vn 0.01176465 -0.01176465 -0.9998616
vn 0.01176465 -0.01176465 0.9998616
vn 0.01176465 -0.01176465 0.9998616
vn 0.01176465 -0.01176465 0.9998616
vn 0.01176465 -0.01176465 0.9998616
vn 0.01176465 -0.01176465 -0.9998616
vn 0.01176465 -0.01176465 -0.9998616
vn 0.01176465 -0.01176465 -0.9998616
vn 0.01176465 -0.01176465 -0.9998616
vn 0.9999924 -0.003921568 0
vn 0.9999924 -0.003921568 0
vn 0.9999924 -0.003921568 0
vn 0.9999924 -0.003921568 0
vn 0.9999924 -0.003921568 0
vn 0.9999924 -0.003921568 0
vn 0.9999924 -0.003921568 0
vn 0.9999924 -0.003921568 0
vn -0.9999923 -0.003921568 -0.0003442513
vn -0.9999923 -0.003921568 -0.0003442513
vn -0.9999923 -0.003921568 -0.0003442513
vn -0.9999923 -0.003921568 -0.0003442513
vn -0.9999923 -0.003921568 -0.0003442513
vn -0.9999923 -0.003921568 -0.0003442513
vn -0.9999923 -0.003921568 -0.0003442513
vn -0.9999923 -0.003921568 -0.0003442513
g DSJ_GTA_daoJu_jiaZi_03_0
f 3/3/3 2/2/2 1/1/1
f 4/4/4 1/1/1 2/2/2
f 7/7/7 6/6/6 5/5/5
f 8/8/8 5/5/5 6/6/6
f 5/5/5 8/8/8 9/9/9
f 10/10/10 9/9/9 8/8/8
f 6/6/6 7/7/7 11/11/11
f 12/12/12 11/11/11 7/7/7
f 15/15/15 14/14/14 13/13/13
f 16/16/16 13/13/13 14/14/14
f 19/19/19 18/18/18 17/17/17
f 20/20/20 17/17/17 18/18/18
f 18/18/18 19/19/19 21/21/21
f 22/22/22 18/18/18 21/21/21
f 22/22/22 21/21/21 23/23/23
f 24/24/24 23/23/23 21/21/21
f 25/25/25 21/21/21 19/19/19
f 25/25/25 19/19/19 26/26/26
f 26/26/26 27/27/27 25/25/25
f 28/28/28 25/25/25 27/27/27
f 31/31/31 30/30/30 29/29/29
f 32/32/32 29/29/29 30/30/30
f 32/32/32 33/33/33 29/29/29
f 34/34/34 29/29/29 33/33/33
f 34/34/34 33/33/33 35/35/35
f 36/36/36 35/35/35 33/33/33
f 39/39/39 38/38/38 37/37/37
f 40/40/40 37/37/37 38/38/38
f 43/43/43 42/42/42 41/41/41
f 44/44/44 41/41/41 42/42/42
f 47/47/47 46/46/46 45/45/45
f 48/48/48 45/45/45 46/46/46
f 51/51/51 50/50/50 49/49/49
f 52/52/52 49/49/49 50/50/50
f 55/55/55 54/54/54 53/53/53
f 56/56/56 53/53/53 54/54/54
f 59/59/59 58/58/58 57/57/57
f 60/60/60 57/57/57 58/58/58
f 63/63/63 62/62/62 61/61/61
f 64/64/64 61/61/61 62/62/62
f 67/67/67 66/66/66 65/65/65
f 68/68/68 65/65/65 66/66/66
f 71/71/71 70/70/70 69/69/69
f 72/72/72 69/69/69 70/70/70
f 75/75/75 74/74/74 73/73/73
f 76/76/76 73/73/73 74/74/74
f 79/79/79 78/78/78 77/77/77
f 80/80/80 77/77/77 78/78/78
f 83/83/83 82/82/82 81/81/81
f 84/84/84 81/81/81 82/82/82
f 87/87/87 86/86/86 85/85/85
f 88/88/88 85/85/85 86/86/86
f 91/91/91 90/90/90 89/89/89
f 92/92/92 89/89/89 90/90/90
f 95/95/95 94/94/94 93/93/93
f 96/96/96 93/93/93 94/94/94
f 99/99/99 98/98/98 97/97/97
f 100/100/100 97/97/97 98/98/98
f 103/103/103 102/102/102 101/101/101
f 104/104/104 101/101/101 102/102/102
f 107/107/107 106/106/106 105/105/105
f 108/108/108 105/105/105 106/106/106
f 111/111/111 110/110/110 109/109/109
f 112/112/112 109/109/109 110/110/110
f 115/115/115 114/114/114 113/113/113
f 116/116/116 113/113/113 114/114/114
f 119/119/119 118/118/118 117/117/117
f 120/120/120 117/117/117 118/118/118
f 123/123/123 122/122/122 121/121/121
f 124/124/124 121/121/121 122/122/122
f 127/127/127 126/126/126 125/125/125
f 128/128/128 125/125/125 126/126/126
f 131/131/131 130/130/130 129/129/129
f 132/132/132 129/129/129 130/130/130
f 135/135/135 134/134/134 133/133/133
f 136/136/136 133/133/133 134/134/134
f 139/139/139 138/138/138 137/137/137
f 140/140/140 137/137/137 138/138/138
f 138/138/138 141/141/141 140/140/140
f 142/142/142 140/140/140 141/141/141
f 141/141/141 143/143/143 142/142/142
f 144/144/144 142/142/142 143/143/143
f 147/147/147 146/146/146 145/145/145
f 148/148/148 145/145/145 146/146/146
f 145/145/145 149/149/149 147/147/147
f 150/150/150 147/147/147 149/149/149
f 149/149/149 151/151/151 150/150/150
f 152/152/152 150/150/150 151/151/151
f 155/155/155 154/154/154 153/153/153
f 156/156/156 153/153/153 154/154/154
f 156/156/156 154/154/154 157/157/157
f 158/158/158 157/157/157 154/154/154
f 158/158/158 159/159/159 157/157/157
f 160/160/160 157/157/157 159/159/159
f 163/163/163 162/162/162 161/161/161
f 164/164/164 161/161/161 162/162/162
f 162/162/162 165/165/165 164/164/164
f 166/166/166 164/164/164 165/165/165
f 165/165/165 167/167/167 166/166/166
f 168/168/168 166/166/166 167/167/167
f 171/171/171 170/170/170 169/169/169
f 172/172/172 169/169/169 170/170/170
f 170/170/170 173/173/173 172/172/172
f 174/174/174 172/172/172 173/173/173
f 173/173/173 175/175/175 174/174/174
f 176/176/176 174/174/174 175/175/175
f 179/179/179 178/178/178 177/177/177
f 180/180/180 177/177/177 178/178/178
f 177/177/177 181/181/181 179/179/179
f 182/182/182 179/179/179 181/181/181
f 181/181/181 183/183/183 182/182/182
f 184/184/184 182/182/182 183/183/183
f 187/187/187 186/186/186 185/185/185
f 188/188/188 185/185/185 186/186/186
f 188/188/188 186/186/186 189/189/189
f 190/190/190 189/189/189 186/186/186
f 190/190/190 191/191/191 189/189/189
f 192/192/192 189/189/189 191/191/191
f 195/195/195 194/194/194 193/193/193
f 196/196/196 193/193/193 194/194/194
f 194/194/194 197/197/197 196/196/196
f 198/198/198 196/196/196 197/197/197
f 197/197/197 199/199/199 198/198/198
f 200/200/200 198/198/198 199/199/199
f 203/203/203 202/202/202 201/201/201
f 204/204/204 201/201/201 202/202/202
f 207/207/207 206/206/206 205/205/205
f 208/208/208 205/205/205 206/206/206
f 211/211/211 210/210/210 209/209/209
f 212/212/212 209/209/209 210/210/210
f 215/215/215 214/214/214 213/213/213
f 216/216/216 213/213/213 214/214/214
f 219/219/219 218/218/218 217/217/217
f 220/220/220 217/217/217 218/218/218
f 223/223/223 222/222/222 221/221/221
f 224/224/224 221/221/221 222/222/222
f 227/227/227 226/226/226 225/225/225
f 228/228/228 225/225/225 226/226/226
f 231/231/231 230/230/230 229/229/229
f 232/232/232 229/229/229 230/230/230
f 235/235/235 234/234/234 233/233/233
f 236/236/236 233/233/233 234/234/234
f 239/239/239 238/238/238 237/237/237
f 240/240/240 237/237/237 238/238/238
f 243/243/243 242/242/242 241/241/241
f 244/244/244 241/241/241 242/242/242
f 247/247/247 246/246/246 245/245/245
f 248/248/248 245/245/245 246/246/246
f 251/251/251 250/250/250 249/249/249
f 252/252/252 249/249/249 250/250/250
f 255/255/255 254/254/254 253/253/253
f 256/256/256 253/253/253 254/254/254
f 259/259/259 258/258/258 257/257/257
f 260/260/260 257/257/257 258/258/258
f 263/263/263 262/262/262 261/261/261
f 264/264/264 261/261/261 262/262/262
f 267/267/267 266/266/266 265/265/265
f 268/268/268 265/265/265 266/266/266
f 271/271/271 270/270/270 269/269/269
f 272/272/272 269/269/269 270/270/270
f 275/275/275 274/274/274 273/273/273
f 276/276/276 273/273/273 274/274/274
f 279/279/279 278/278/278 277/277/277
f 280/280/280 277/277/277 278/278/278
f 283/283/283 282/282/282 281/281/281
f 284/284/284 281/281/281 282/282/282
f 287/287/287 286/286/286 285/285/285
f 288/288/288 285/285/285 286/286/286
f 291/291/291 290/290/290 289/289/289
f 292/292/292 289/289/289 290/290/290
f 290/290/290 293/293/293 292/292/292
f 294/294/294 292/292/292 293/293/293
f 293/293/293 295/295/295 294/294/294
f 296/296/296 294/294/294 295/295/295
f 299/299/299 298/298/298 297/297/297
f 300/300/300 297/297/297 298/298/298
f 297/297/297 301/301/301 299/299/299
f 302/302/302 299/299/299 301/301/301
f 301/301/301 303/303/303 302/302/302
f 304/304/304 302/302/302 303/303/303
f 307/307/307 306/306/306 305/305/305
f 308/308/308 305/305/305 306/306/306
f 308/308/308 306/306/306 309/309/309
f 310/310/310 309/309/309 306/306/306
f 310/310/310 311/311/311 309/309/309
f 312/312/312 309/309/309 311/311/311
f 315/315/315 314/314/314 313/313/313
f 316/316/316 313/313/313 314/314/314
f 314/314/314 317/317/317 316/316/316
f 318/318/318 316/316/316 317/317/317
f 317/317/317 319/319/319 318/318/318
f 320/320/320 318/318/318 319/319/319
f 323/323/323 322/322/322 321/321/321
f 324/324/324 321/321/321 322/322/322
f 322/322/322 325/325/325 324/324/324
f 326/326/326 324/324/324 325/325/325
f 325/325/325 327/327/327 326/326/326
f 328/328/328 326/326/326 327/327/327
f 331/331/331 330/330/330 329/329/329
f 332/332/332 329/329/329 330/330/330
f 329/329/329 333/333/333 331/331/331
f 334/334/334 331/331/331 333/333/333
f 333/333/333 335/335/335 334/334/334
f 336/336/336 334/334/334 335/335/335
f 339/339/339 338/338/338 337/337/337
f 340/340/340 337/337/337 338/338/338
f 340/340/340 338/338/338 341/341/341
f 342/342/342 341/341/341 338/338/338
f 342/342/342 343/343/343 341/341/341
f 344/344/344 341/341/341 343/343/343
f 347/347/347 346/346/346 345/345/345
f 348/348/348 345/345/345 346/346/346
f 346/346/346 349/349/349 348/348/348
f 350/350/350 348/348/348 349/349/349
f 349/349/349 351/351/351 350/350/350
f 352/352/352 350/350/350 351/351/351
f 355/355/355 354/354/354 353/353/353
f 356/356/356 353/353/353 354/354/354
f 359/359/359 358/358/358 357/357/357
f 360/360/360 357/357/357 358/358/358
f 363/363/363 362/362/362 361/361/361
f 364/364/364 361/361/361 362/362/362
f 367/367/367 366/366/366 365/365/365
f 368/368/368 365/365/365 366/366/366
f 371/371/371 370/370/370 369/369/369
f 372/372/372 369/369/369 370/370/370
f 370/370/370 373/373/373 372/372/372
f 372/372/372 373/373/373 374/374/374
f 375/375/375 374/374/374 373/373/373
f 373/373/373 376/376/376 375/375/375
f 377/377/377 375/375/375 376/376/376
f 374/374/374 375/375/375 378/378/378
f 374/374/374 378/378/378 379/379/379
f 380/380/380 379/379/379 378/378/378
f 383/383/383 382/382/382 381/381/381
f 384/384/384 381/381/381 382/382/382
f 387/387/387 386/386/386 385/385/385
f 388/388/388 385/385/385 386/386/386
f 385/385/385 388/388/388 389/389/389
f 390/390/390 389/389/389 388/388/388
f 386/386/386 387/387/387 391/391/391
f 392/392/392 391/391/391 387/387/387
f 395/395/395 394/394/394 393/393/393
f 396/396/396 393/393/393 394/394/394
f 399/399/399 398/398/398 397/397/397
f 400/400/400 397/397/397 398/398/398
f 400/400/400 401/401/401 397/397/397
f 402/402/402 397/397/397 401/401/401
f 402/402/402 401/401/401 403/403/403
f 404/404/404 403/403/403 401/401/401
f 407/407/407 406/406/406 405/405/405
f 408/408/408 405/405/405 406/406/406
f 411/411/411 410/410/410 409/409/409
f 412/412/412 409/409/409 410/410/410
f 415/415/415 414/414/414 413/413/413
f 416/416/416 413/413/413 414/414/414
f 419/419/419 418/418/418 417/417/417
f 420/420/420 417/417/417 418/418/418
f 423/423/423 422/422/422 421/421/421
f 424/424/424 421/421/421 422/422/422
f 427/427/427 426/426/426 425/425/425
f 428/428/428 425/425/425 426/426/426
f 431/431/431 430/430/430 429/429/429
f 432/432/432 429/429/429 430/430/430
f 435/435/435 434/434/434 433/433/433
f 436/436/436 433/433/433 434/434/434
f 439/439/439 438/438/438 437/437/437
f 440/440/440 437/437/437 438/438/438
