g DSJ_GTA_diLou_23_uvDongHua
v 15.6482 1.850861 0.1988516
v 15.6482 -0.81071 0.1988516
v 0.01529789 1.850861 0.2906303
v 0.01529789 -0.81071 0.2906303
v 0.01529789 -0.81071 0.2906303
v -15.61761 -0.81071 0.413002
v 0.01529789 1.850861 0.2906303
v -15.61761 1.850861 0.413002
v 15.6482 -0.81071 0.1988516
v 15.6482 -1.912049 -0.4741888
v 0.01529789 -0.81071 0.2906303
v 7.847046 -1.912049 -0.4130039
v 0.01529789 -1.912049 -0.3518181
v 0.01529789 -1.912049 -0.3518181
v -7.816452 -1.912049 -0.3212252
v 0.01529789 -0.81071 0.2906303
v -15.6482 -1.912049 -0.2600393
v -15.61761 -0.81071 0.413002
vt 0.2709621 0.9933376
vt 0.3412472 0.9933376
vt 0.2709621 0.00544023
vt 0.3412472 0.00544023
vt 0.3412472 0.9933376
vt 0.3412472 0.00544023
vt 0.2709621 0.9933376
vt 0.2709621 0.00544023
vt 0.2241053 0.9894328
vt 0.2670573 0.9894328
vt 0.2241053 -0.002369236
vt 0.2670573 0.4935318
vt 0.2670573 -0.002369236
vt 0.2670573 0.9894328
vt 0.2670573 0.4935318
vt 0.2241053 0.9894328
vt 0.2670573 -0.002369236
vt 0.2241053 -0.002369236
g DSJ_GTA_diLou_23_uvDongHua_0
f 3/3/3 2/2/2 1/1/1
f 4/4/4 2/2/2 3/3/3
f 7/7/7 6/6/6 5/5/5
f 8/8/8 6/6/6 7/7/7
f 11/11/11 10/10/10 9/9/9
f 12/12/12 10/10/10 11/11/11
f 13/13/13 12/12/12 11/11/11
f 16/16/16 15/15/15 14/14/14
f 17/17/17 15/15/15 16/16/16
f 18/18/18 17/17/17 16/16/16
