g DSJ_GTA_gaoLou_16
v -13.12048 37.80914 -13.78574
v 13.26831 37.80914 13.6379
v -13.12048 37.80914 13.6379
v 13.26831 37.80914 -13.78574
v -13.12048 -37.80914 -13.78574
v -13.12048 37.80914 13.6379
v -13.12048 -37.80914 13.6379
v -13.12048 37.80914 -13.78574
v -13.12048 -37.80914 13.6379
v 13.26831 37.80914 13.6379
v 13.26831 -37.80914 13.6379
v -13.12048 37.80914 13.6379
v 13.26831 -37.80914 13.6379
v 13.26831 37.80914 -13.78574
v 13.26831 -37.80914 -13.78574
v 13.26831 37.80914 13.6379
v 13.26831 -37.80914 -13.78574
v -13.12048 37.80914 -13.78574
v -13.12048 -37.80914 -13.78574
v 13.26831 37.80914 -13.78574
vt 0.8248793 0.9100676
vt 0.8713456 0.999128
vt 0.8713456 0.9100676
vt 0.8248793 0.999128
vt 0.1240124 0.2595391
vt 0.2440503 0.4841263
vt 0.2440503 0.2595391
vt 0.1240124 0.4841263
vt 0.2440503 0.2595391
vt 0.1240124 0.4841263
vt 0.1240124 0.2595391
vt 0.2440503 0.4841263
vt 0.1240124 0.2595391
vt 0.2440503 0.4841263
vt 0.2440503 0.2595391
vt 0.1240124 0.4841263
vt 0.2440503 0.2595391
vt 0.1240124 0.4841263
vt 0.1240124 0.2595391
vt 0.2440503 0.4841263
vn 0.01587099 0.999874 -0.000345267
vn 0.01587099 0.999874 -0.000345267
vn 0.01587099 0.999874 -0.000345267
vn 0.01587099 0.999874 -0.000345267
vn -0.999874 -0.01587099 -0.000346655
vn -0.999874 -0.01587099 -0.000346655
vn -0.999874 -0.01587099 -0.000346655
vn -0.999874 -0.01587099 -0.000346655
vn 0.04761302 -0.04761302 0.9977304
vn 0.04761302 -0.04761302 0.9977304
vn 0.04761302 -0.04761302 0.9977304
vn 0.04761302 -0.04761302 0.9977304
vn 0.999874 -0.01587099 -0.000346655
vn 0.999874 -0.01587099 -0.000346655
vn 0.999874 -0.01587099 -0.000346655
vn 0.999874 -0.01587099 -0.000346655
vn 0.04761302 -0.04761302 -0.9977304
vn 0.04761302 -0.04761302 -0.9977304
vn 0.04761302 -0.04761302 -0.9977304
vn 0.04761302 -0.04761302 -0.9977304
g DSJ_GTA_gaoLou_16_0
f 3/3/3 2/2/2 1/1/1
f 2/2/2 4/4/4 1/1/1
f 7/7/7 6/6/6 5/5/5
f 6/6/6 8/8/8 5/5/5
f 11/11/11 10/10/10 9/9/9
f 10/10/10 12/12/12 9/9/9
f 15/15/15 14/14/14 13/13/13
f 14/14/14 16/16/16 13/13/13
f 19/19/19 18/18/18 17/17/17
f 18/18/18 20/20/20 17/17/17
