g DSJ_GTA_diLou_30
v -15.24403 -0.5315704 16.58153
v -7.116169 -6.32739 16.30717
v -15.24403 -6.32739 16.58153
v -7.116169 -0.5315704 16.30717
v 0.9431076 -0.5315704 16.1014
v 0.737339 -6.32739 8.007833
v 0.9431076 -6.32739 16.1014
v 0.737339 -0.5315704 8.007833
v 0.01714706 -0.5315704 -16.16999
v -8.007833 -6.32739 -15.96423
v 0.01714706 -6.32739 -16.16999
v -8.007833 -0.5315704 -15.96423
v -16.06711 -0.5315704 -15.72416
v -15.86134 -6.32739 -7.699182
v -16.06711 -6.32739 -15.72416
v -15.86134 -0.5315704 -7.699182
v 15.92993 -0.5315704 -0.4629803
v 15.68987 -6.32739 -8.556551
v 15.92993 -6.32739 -0.4629803
v 15.68987 -0.5315704 -8.556551
v -15.62128 -0.5315704 0.3943901
v -15.41551 -6.32739 8.487961
v -15.62128 -6.32739 0.3943901
v -15.41551 -0.5315704 8.487961
v 7.767771 -6.32739 -16.37576
v 0.01714706 -0.5315704 -16.16999
v 0.01714706 -6.32739 -16.16999
v 7.767771 -0.5315704 -16.37576
v 8.247898 5.504314 -0.2229176
v 0.4629803 -0.5315704 -0.01714706
v 0.4629803 5.504314 -0.01714706
v 8.247898 -0.5315704 -0.2229176
v -7.116169 -0.5315704 16.30717
v 0.9431076 5.504314 16.1014
v 0.9431076 -0.5315704 16.1014
v -7.116169 5.504314 16.30717
v 0.737339 -0.5315704 8.007833
v 0.4629803 5.504314 -0.01714706
v 0.4629803 -0.5315704 -0.01714706
v 0.737339 5.504314 8.007833
v -8.007833 -0.5315704 -15.96423
v -16.06711 5.504314 -15.72416
v -16.06711 -0.5315704 -15.72416
v -8.007833 5.504314 -15.96423
v -15.86134 -0.5315704 -7.699182
v -15.62128 5.504314 0.3943901
v -15.62128 -0.5315704 0.3943901
v -15.86134 5.504314 -7.699182
v 15.68987 -0.5315704 -8.556551
v 15.4841 5.504314 -16.58153
v 15.4841 -0.5315704 -16.58153
v 15.68987 5.504314 -8.556551
v -15.41551 -0.5315704 8.487961
v -15.24403 5.504314 16.58153
v -15.24403 -0.5315704 16.58153
v -15.41551 5.504314 8.487961
v 7.767771 -0.5315704 -16.37576
v 0.01714706 5.504314 -16.16999
v 0.01714706 -0.5315704 -16.16999
v 7.767771 5.504314 -16.37576
v 8.247898 -0.5315704 -0.2229176
v 0.4629803 -6.32739 -0.01714706
v 0.4629803 -0.5315704 -0.01714706
v 8.247898 -6.32739 -0.2229176
v -15.86134 -0.5315704 -7.699182
v -15.62128 -6.32739 0.3943901
v -15.86134 -6.32739 -7.699182
v -15.62128 -0.5315704 0.3943901
v 15.68987 -0.5315704 -8.556551
v 15.4841 -6.32739 -16.58153
v 15.68987 -6.32739 -8.556551
v 15.4841 -0.5315704 -16.58153
v -15.86134 -0.5315704 -7.699182
v -16.06711 5.504314 -15.72416
v -15.86134 5.504314 -7.699182
v -16.06711 -0.5315704 -15.72416
v 15.68987 -0.5315704 -8.556551
v 15.92993 5.504314 -0.4629803
v 15.68987 5.504314 -8.556551
v 15.92993 -0.5315704 -0.4629803
v -7.116169 -0.5315704 16.30717
v 0.9431076 -6.32739 16.1014
v -7.116169 -6.32739 16.30717
v 0.9431076 -0.5315704 16.1014
v -8.007833 -0.5315704 -15.96423
v -16.06711 -6.32739 -15.72416
v -8.007833 -6.32739 -15.96423
v -16.06711 -0.5315704 -15.72416
v -7.116169 -0.5315704 16.30717
v -15.24403 5.504314 16.58153
v -7.116169 5.504314 16.30717
v -15.24403 -0.5315704 16.58153
v -8.007833 -0.5315704 -15.96423
v 0.01714706 5.504314 -16.16999
v -8.007833 5.504314 -15.96423
v 0.01714706 -0.5315704 -16.16999
v 7.767771 -6.32739 -16.37576
v 15.4841 -0.5315704 -16.58153
v 7.767771 -0.5315704 -16.37576
v 15.4841 -6.32739 -16.58153
v 8.247898 5.504314 -0.2229176
v 15.92993 -0.5315704 -0.4629803
v 8.247898 -0.5315704 -0.2229176
v 15.92993 5.504314 -0.4629803
v 7.767771 -0.5315704 -16.37576
v 15.4841 5.504314 -16.58153
v 7.767771 5.504314 -16.37576
v 15.4841 -0.5315704 -16.58153
v 8.247898 -0.5315704 -0.2229176
v 15.92993 -6.32739 -0.4629803
v 8.247898 -6.32739 -0.2229176
v 15.92993 -0.5315704 -0.4629803
v 0.737339 -0.5315704 8.007833
v 0.4629803 -6.32739 -0.01714706
v 0.737339 -6.32739 8.007833
v 0.4629803 -0.5315704 -0.01714706
v -15.41551 -0.5315704 8.487961
v -15.24403 -6.32739 16.58153
v -15.41551 -6.32739 8.487961
v -15.24403 -0.5315704 16.58153
v 0.737339 -0.5315704 8.007833
v 0.9431076 5.504314 16.1014
v 0.737339 5.504314 8.007833
v 0.9431076 -0.5315704 16.1014
v -15.41551 -0.5315704 8.487961
v -15.62128 5.504314 0.3943901
v -15.41551 5.504314 8.487961
v -15.62128 -0.5315704 0.3943901
v 1.766182 5.470018 17.02736
v -16.37576 5.470018 1.251759
v -15.89563 5.470018 17.50749
v 1.286055 5.470018 0.7373371
v -16.37576 6.258799 1.251759
v 1.766182 6.258799 17.02736
v -15.89563 6.258799 17.50749
v 1.286055 6.258799 0.7373371
v 1.766182 6.258799 17.02736
v -15.89563 5.470018 17.50749
v -15.89563 6.258799 17.50749
v 1.766182 5.470018 17.02736
v 1.766182 6.258799 17.02736
v 1.286055 5.470018 0.7373371
v 1.766182 5.470018 17.02736
v 1.286055 6.258799 0.7373371
v -16.85589 6.258799 -16.68442
v 0.8059273 5.470018 -17.16454
v 0.8059273 6.258799 -17.16454
v -16.85589 5.470018 -16.68442
v -16.85589 6.258799 -16.68442
v -16.37576 5.470018 1.251759
v -16.85589 5.470018 -16.68442
v -16.37576 6.258799 1.251759
v 1.286055 5.470018 0.7373371
v -16.85589 5.470018 -16.68442
v -16.37576 5.470018 1.251759
v 0.8059273 5.470018 -17.16454
v -16.37576 6.258799 1.251759
v 0.8059273 6.258799 -17.16454
v 1.286055 6.258799 0.7373371
v -16.85589 6.258799 -16.68442
v 16.89018 6.258799 0.3257999
v 16.44435 5.470018 -17.54179
v 16.89018 5.470018 0.3257999
v 16.44435 6.258799 -17.54179
v -16.37576 6.258799 1.251759
v -15.89563 5.470018 17.50749
v -16.37576 5.470018 1.251759
v -15.89563 6.258799 17.50749
v 16.44435 5.470018 -17.54179
v 1.286055 5.470018 0.7373371
v 16.89018 5.470018 0.3257999
v 0.8059273 5.470018 -17.16454
v 16.44435 6.258799 -17.54179
v 0.8059273 5.470018 -17.16454
v 16.44435 5.470018 -17.54179
v 0.8059273 6.258799 -17.16454
v 16.89018 6.258799 0.3257999
v 0.8059273 6.258799 -17.16454
v 16.44435 6.258799 -17.54179
v 1.286055 6.258799 0.7373371
v 16.89018 5.470018 0.3257999
v 1.286055 6.258799 0.7373371
v 16.89018 6.258799 0.3257999
v 1.286055 5.470018 0.7373371
v 4.887009 -3.515217 10.8543
v 9.139563 -6.32739 8.830908
v 4.887009 -6.32739 10.8543
v 9.139563 -3.515217 8.830908
v 0.7716331 -3.515217 11.19725
v 0.7716331 -6.32739 11.19725
v 11.5402 -3.515217 3.926754
v 11.74597 -6.32739 -0.3943901
v 11.5402 -6.32739 3.926754
v 11.74597 -3.515217 -0.3943901
v 9.139563 -3.515217 8.830908
v 9.139563 -6.32739 8.830908
v 0.737339 2.726435 12.1575
v 12.67193 2.726435 -0.4629803
v 0.360096 2.726435 -0.1200314
v 4.269702 2.726435 11.95173
v 10.92289 2.726435 8.213602
v 12.32898 2.726435 4.989891
v 8.007834 2.726435 10.61424
v 12.67193 3.378036 -0.4629803
v 0.737339 3.378036 12.1575
v 0.360096 3.378036 -0.1200314
v 4.269702 3.378036 11.95173
v 10.92289 3.378036 8.213602
v 8.007834 3.378036 10.61424
v 12.32898 3.378036 4.989891
v 4.269702 3.378036 11.95173
v 8.007834 2.726435 10.61424
v 4.269702 2.726435 11.95173
v 8.007834 3.378036 10.61424
v 10.92289 2.726435 8.213602
v 10.92289 3.378036 8.213602
v 0.737339 3.378036 12.1575
v 0.737339 2.726435 12.1575
v 12.67193 3.378036 -0.4629803
v 12.32898 2.726435 4.989891
v 12.32898 3.378036 4.989891
v 12.67193 2.726435 -0.4629803
v 12.32898 2.726435 4.989891
v 10.92289 3.378036 8.213602
v 12.32898 3.378036 4.989891
v 10.92289 2.726435 8.213602
v 0.737339 -3.549511 12.1575
v 12.67193 -3.549511 -0.4629803
v 0.360096 -3.549511 -0.1200314
v 4.269702 -3.549511 11.95173
v 10.92289 -3.549511 8.213602
v 12.32898 -3.549511 4.989891
v 8.007834 -3.549511 10.61424
v 12.67193 -3.069385 -0.4629803
v 0.737339 -3.069385 12.1575
v 0.360096 -3.069385 -0.1200314
v 4.269702 -3.069385 11.95173
v 10.92289 -3.069385 8.213602
v 8.007834 -3.069385 10.61424
v 12.32898 -3.069385 4.989891
v 4.269702 -3.069385 11.95173
v 8.007834 -3.549511 10.61424
v 4.269702 -3.549511 11.95173
v 8.007834 -3.069385 10.61424
v 10.92289 -3.549511 8.213602
v 10.92289 -3.069385 8.213602
v 0.737339 -3.069385 12.1575
v 0.737339 -3.549511 12.1575
v 12.67193 -3.069385 -0.4629803
v 12.32898 -3.549511 4.989891
v 12.32898 -3.069385 4.989891
v 12.67193 -3.549511 -0.4629803
v 10.92289 -3.069385 8.213602
v 10.92289 -3.549511 8.213602
v 1.320351 5.847261 16.41006
v 0.4286861 -6.32739 16.47865
v 0.4286861 5.847261 16.47865
v 1.320351 -6.32739 16.41006
v 1.286055 5.847261 15.55269
v 1.320351 -6.32739 16.41006
v 1.320351 5.847261 16.41006
v 1.286055 -6.32739 15.55269
v 0.3943901 5.847261 15.55269
v 1.286055 -6.32739 15.55269
v 1.286055 5.847261 15.55269
v 0.3943901 -6.32739 15.55269
v 0.4286861 5.847261 16.47865
v 0.3943901 -6.32739 15.55269
v 0.3943901 5.847261 15.55269
v 0.4286861 -6.32739 16.47865
v -14.31808 5.847261 16.89018
v -15.20974 -6.32739 16.92448
v -15.20974 5.847261 16.92448
v -14.31808 -6.32739 16.89018
v -14.31808 5.847261 15.96423
v -14.31808 -6.32739 16.89018
v -14.31808 5.847261 16.89018
v -14.31808 -6.32739 15.96423
v -15.24403 5.847261 15.99852
v -14.31808 -6.32739 15.96423
v -14.31808 5.847261 15.96423
v -15.24403 -6.32739 15.99852
v -15.20974 5.847261 16.92448
v -15.24403 -6.32739 15.99852
v -15.24403 5.847261 15.99852
v -15.20974 -6.32739 16.92448
v -14.38667 5.847261 1.629002
v -15.96423 -6.32739 1.663298
v -15.96423 5.847261 1.663298
v -14.38667 -6.32739 1.629002
v -15.99852 5.847261 0.01714706
v -14.42096 -6.32739 -0.01714706
v -14.42096 5.847261 -0.01714706
v -15.99852 -6.32739 0.01714706
v -15.96423 5.847261 1.663298
v -15.99852 -6.32739 0.01714706
v -15.99852 5.847261 0.01714706
v -15.96423 -6.32739 1.663298
v -15.20974 5.847261 -15.03827
v -16.06711 -6.32739 -15.00397
v -16.06711 5.847261 -15.00397
v -15.20974 -6.32739 -15.03827
v -15.24403 5.847261 -15.89564
v -15.20974 -6.32739 -15.03827
v -15.20974 5.847261 -15.03827
v -15.24403 -6.32739 -15.89564
v -16.1014 5.847261 -15.89564
v -15.24403 -6.32739 -15.89564
v -15.24403 5.847261 -15.89564
v -16.1014 -6.32739 -15.89564
v -16.06711 5.847261 -15.00397
v -16.1014 -6.32739 -15.89564
v -16.1014 5.847261 -15.89564
v -16.06711 -6.32739 -15.00397
v 0.703043 5.847261 -16.68442
v 0.7716331 -6.32739 -15.10686
v 0.7716331 5.847261 -15.10686
v 0.703043 -6.32739 -16.68442
v -0.9088116 5.847261 -16.68442
v 0.703043 -6.32739 -16.68442
v 0.703043 5.847261 -16.68442
v -0.9088116 -6.32739 -16.68442
v -0.8402214 5.847261 -15.03827
v -0.9088116 -6.32739 -16.68442
v -0.9088116 5.847261 -16.68442
v -0.8402214 -6.32739 -15.03827
v 16.03282 5.847261 -15.89564
v 15.14115 -6.32739 -15.82705
v 15.14115 5.847261 -15.82705
v 16.03282 -6.32739 -15.89564
v 15.96423 5.847261 -16.75301
v 16.03282 -6.32739 -15.89564
v 16.03282 5.847261 -15.89564
v 15.96423 -6.32739 -16.75301
v 15.10686 5.847261 -16.75301
v 15.96423 -6.32739 -16.75301
v 15.96423 5.847261 -16.75301
v 15.10686 -6.32739 -16.75301
v 15.14115 5.847261 -15.82705
v 15.10686 -6.32739 -16.75301
v 15.10686 5.847261 -16.75301
v 15.14115 -6.32739 -15.82705
v 16.44435 5.847261 -0.1886215
v 15.58698 -6.32739 -0.1886215
v 15.58698 5.847261 -0.1886215
v 16.44435 -6.32739 -0.1886215
v 16.44435 5.847261 -1.114582
v 16.44435 -6.32739 -0.1886215
v 16.44435 5.847261 -0.1886215
v 16.44435 -6.32739 -1.114582
v 15.51839 5.847261 -1.114582
v 16.44435 -6.32739 -1.114582
v 16.44435 5.847261 -1.114582
v 15.51839 -6.32739 -1.114582
v 15.58698 5.847261 -0.1886215
v 15.51839 -6.32739 -1.114582
v 15.51839 5.847261 -1.114582
v 15.58698 -6.32739 -0.1886215
v 1.25176 5.847261 0.703043
v -0.3257999 -6.32739 0.7373371
v -0.3257999 5.847261 0.7373371
v 1.25176 -6.32739 0.703043
v 1.217466 5.847261 -0.9088116
v 1.25176 -6.32739 0.703043
v 1.25176 5.847261 0.703043
v 1.217466 -6.32739 -0.9088116
v 1.766182 -0.9088116 17.02736
v -16.37576 -0.9088116 1.251759
v -15.89563 -0.9088116 17.54179
v 1.286055 -0.9088116 0.7373371
v -16.37576 -0.1200314 1.251759
v 1.766182 -0.1200314 17.02736
v -15.89563 -0.1200314 17.50749
v 1.286055 -0.1200314 0.7373371
v 1.766182 -0.1200314 17.02736
v -15.89563 -0.9088116 17.54179
v -15.89563 -0.1200314 17.50749
v 1.766182 -0.9088116 17.02736
v 1.766182 -0.1200314 17.02736
v 1.286055 -0.9088116 0.7373371
v 1.766182 -0.9088116 17.02736
v 1.286055 -0.1200314 0.7373371
v -16.85589 -0.1200314 -16.68442
v 0.8059273 -0.9088116 -17.16454
v 0.8059273 -0.1200314 -17.16454
v -16.85589 -0.9088116 -16.68442
v -16.85589 -0.1200314 -16.68442
v -16.37576 -0.9088116 1.251759
v -16.85589 -0.9088116 -16.68442
v -16.37576 -0.1200314 1.251759
v 1.286055 -0.9088116 0.7373371
v -16.85589 -0.9088116 -16.68442
v -16.37576 -0.9088116 1.251759
v 0.8059273 -0.9088116 -17.16454
v -16.37576 -0.1200314 1.251759
v 0.8059273 -0.1200314 -17.16454
v 1.286055 -0.1200314 0.7373371
v -16.85589 -0.1200314 -16.68442
v 16.89018 -0.1200314 0.3257999
v 16.44435 -0.9088116 -17.54179
v 16.89018 -0.9088116 0.3257999
v 16.44435 -0.1200314 -17.54179
v -16.37576 -0.1200314 1.251759
v -15.89563 -0.9088116 17.54179
v -16.37576 -0.9088116 1.251759
v -15.89563 -0.1200314 17.50749
v 16.44435 -0.9088116 -17.54179
v 1.286055 -0.9088116 0.7373371
v 16.89018 -0.9088116 0.3257999
v 0.8059273 -0.9088116 -17.16454
v 16.44435 -0.1200314 -17.54179
v 0.8059273 -0.9088116 -17.16454
v 16.44435 -0.9088116 -17.54179
v 0.8059273 -0.1200314 -17.16454
v 16.89018 -0.1200314 0.3257999
v 0.8059273 -0.1200314 -17.16454
v 16.44435 -0.1200314 -17.54179
v 1.286055 -0.1200314 0.7373371
v 16.89018 -0.9088116 0.3257999
v 1.286055 -0.1200314 0.7373371
v 16.89018 -0.1200314 0.3257999
v 1.286055 -0.9088116 0.7373371
v 9.139563 -3.343742 8.830908
v 4.887009 2.726435 10.8543
v 9.139563 2.726435 8.830908
v 4.887009 -3.343742 10.8543
v 0.7716331 2.726435 11.19725
v 0.7716331 -3.343742 11.19725
v 11.78026 2.726435 4.098227
v 11.74597 -3.343742 -0.3943901
v 11.78026 -3.343742 4.098227
v 11.74597 2.726435 -0.3943901
v 9.139563 2.726435 8.830908
v 9.139563 -3.343742 8.830908
v 9.036678 2.932203 9.448214
v 7.390528 5.298544 10.27129
v 9.036678 5.298544 9.448214
v 7.390528 2.932203 10.27129
v 10.30559 2.932203 8.453665
v 10.30559 5.298544 8.453665
v 11.09437 2.932203 7.013285
v 11.09437 5.298544 7.013285
v 11.5402 2.932203 5.641493
v 11.5402 5.298544 5.641493
v 7.390528 2.932203 10.27129
v 7.11617 5.298544 9.996931
v 7.390528 5.298544 10.27129
v 7.11617 2.932203 9.996931
v 9.036678 2.932203 9.448214
v 7.11617 2.932203 9.996931
v 7.390528 2.932203 10.27129
v 8.796615 2.932203 9.173857
v 10.30559 2.932203 8.453665
v 10.06552 2.932203 8.179308
v 11.09437 2.932203 7.013285
v 10.8543 2.932203 6.738926
v 11.5402 2.932203 5.641493
v 11.30013 2.932203 5.298544
v 7.390528 5.298544 10.27129
v 8.796615 5.298544 9.173857
v 9.036678 5.298544 9.448214
v 7.11617 5.298544 9.996931
v 10.06552 5.298544 8.179308
v 10.30559 5.298544 8.453665
v 10.8543 5.298544 6.738926
v 11.09437 5.298544 7.013285
v 11.30013 5.298544 5.298544
v 11.5402 5.298544 5.641493
v 11.5402 5.298544 5.641493
v 11.30013 2.932203 5.298544
v 11.5402 2.932203 5.641493
v 11.30013 5.298544 5.298544
v -10.03123 0.3257999 16.71871
v -4.098227 4.749828 16.51294
v -4.098227 0.3257999 16.51294
v -10.03123 4.749828 16.71871
v -10.03123 4.749828 16.71871
v -4.098227 4.749828 16.16999
v -4.098227 4.749828 16.51294
v -10.03123 4.749828 16.37576
v -10.03123 0.3257999 16.71871
v -10.03123 4.749828 16.37576
v -10.03123 4.749828 16.71871
v -10.03123 0.3257999 16.37576
v -4.098227 0.3257999 16.51294
v -10.03123 0.3257999 16.37576
v -10.03123 0.3257999 16.71871
v -4.098227 0.3257999 16.16999
v -4.098227 4.749828 16.51294
v -4.098227 0.3257999 16.16999
v -4.098227 0.3257999 16.51294
v -4.098227 4.749828 16.16999
v 16.37576 0.3257999 -5.470019
v 16.27288 4.749828 -11.40302
v 16.27288 0.3257999 -11.40302
v 16.37576 4.749828 -5.470019
v 16.37576 4.749828 -5.470019
v 15.89564 4.749828 -11.33443
v 16.27288 4.749828 -11.40302
v 16.06711 4.749828 -5.470019
v 16.37576 0.3257999 -5.470019
v 16.06711 4.749828 -5.470019
v 16.37576 4.749828 -5.470019
v 16.06711 0.3257999 -5.470019
v 16.27288 0.3257999 -11.40302
v 16.06711 0.3257999 -5.470019
v 16.37576 0.3257999 -5.470019
v 15.89564 0.3257999 -11.33443
v 16.27288 4.749828 -11.40302
v 15.89564 0.3257999 -11.33443
v 16.27288 0.3257999 -11.40302
v 15.89564 4.749828 -11.33443
vt 0.2347257 0.05191349
vt 0.08303047 0.1997191
vt 0.2347257 0.1997191
vt 0.08303047 0.05191349
vt 0.2347257 0.05191349
vt 0.09858896 0.1997191
vt 0.2347257 0.1997191
vt 0.09858896 0.05191349
vt 0.01301726 0.05191349
vt 0.1647125 0.1997191
vt 0.01301726 0.1997191
vt 0.1647125 0.05191349
vt 0.01301726 0.05191349
vt 0.1647125 0.1997191
vt 0.01301726 0.1997191
vt 0.1647125 0.05191349
vt 0.2347257 0.05191349
vt 0.08303047 0.1997191
vt 0.2347257 0.1997191
vt 0.08303047 0.05191349
vt 0.01301726 0.05191349
vt 0.1647125 0.1997191
vt 0.01301726 0.1997191
vt 0.1647125 0.05191349
vt 0.1647125 0.1997191
vt 0.01301726 0.05191349
vt 0.01301726 0.1997191
vt 0.1647125 0.05191349
vt 0.1141474 0.05969273
vt 0.01301726 0.1997191
vt 0.01301726 0.05969273
vt 0.1141474 0.1997191
vt 0.1141474 0.1997191
vt 0.01301726 0.05969273
vt 0.01301726 0.1997191
vt 0.1141474 0.05969273
vt 0.1647125 0.1997191
vt 0.01301726 0.05969273
vt 0.01301726 0.1997191
vt 0.1647125 0.05969273
vt 0.1141474 0.1997191
vt 0.01301726 0.05969273
vt 0.01301726 0.1997191
vt 0.1141474 0.05969273
vt 0.1141474 0.1997191
vt 0.01301726 0.05969273
vt 0.01301726 0.1997191
vt 0.1141474 0.05969273
vt 0.1141474 0.1997191
vt 0.01301726 0.05969273
vt 0.01301726 0.1997191
vt 0.1141474 0.05969273
vt 0.1141474 0.1997191
vt 0.01301726 0.05969273
vt 0.01301726 0.1997191
vt 0.1141474 0.05969273
vt 0.1141474 0.1997191
vt 0.01301726 0.05969273
vt 0.01301726 0.1997191
vt 0.1141474 0.05969273
vt 0.1647125 0.05191349
vt 0.01301726 0.1997191
vt 0.01301726 0.05191349
vt 0.1647125 0.1997191
vt 0.1647125 0.05191349
vt 0.01301726 0.1997191
vt 0.1647125 0.1997191
vt 0.01301726 0.05191349
vt 0.08303047 0.05191349
vt 0.2347257 0.1997191
vt 0.08303047 0.1997191
vt 0.2347257 0.05191349
vt 0.1141474 0.1997191
vt 0.01301726 0.05969273
vt 0.1141474 0.05969273
vt 0.01301726 0.1997191
vt 0.1141474 0.1997191
vt 0.01301726 0.05969273
vt 0.1141474 0.05969273
vt 0.01301726 0.1997191
vt 0.08303047 0.05191349
vt 0.2347257 0.1997191
vt 0.08303047 0.1997191
vt 0.2347257 0.05191349
vt 0.1647125 0.05191349
vt 0.01301726 0.1997191
vt 0.1647125 0.1997191
vt 0.01301726 0.05191349
vt 0.1141474 0.1997191
vt 0.01301726 0.05969273
vt 0.1141474 0.05969273
vt 0.01301726 0.1997191
vt 0.1141474 0.1997191
vt 0.01301726 0.05969273
vt 0.1141474 0.05969273
vt 0.01301726 0.1997191
vt 0.1647125 0.1997191
vt 0.01301726 0.05191349
vt 0.1647125 0.05191349
vt 0.01301726 0.1997191
vt 0.1141474 0.05969273
vt 0.01301726 0.1997191
vt 0.1141474 0.1997191
vt 0.01301726 0.05969273
vt 0.1141474 0.1997191
vt 0.01301726 0.05969273
vt 0.1141474 0.05969273
vt 0.01301726 0.1997191
vt 0.09858896 0.05191349
vt 0.2347257 0.1997191
vt 0.09858896 0.1997191
vt 0.2347257 0.05191349
vt 0.1647125 0.05191349
vt 0.01301726 0.1997191
vt 0.1647125 0.1997191
vt 0.01301726 0.05191349
vt 0.1647125 0.05191349
vt 0.01301726 0.1997191
vt 0.1647125 0.1997191
vt 0.01301726 0.05191349
vt 0.1647125 0.1997191
vt 0.01301726 0.05969273
vt 0.1647125 0.05969273
vt 0.01301726 0.1997191
vt 0.1141474 0.1997191
vt 0.01301726 0.05969273
vt 0.1141474 0.05969273
vt 0.01301726 0.1997191
vt 0.4758824 0.1452644
vt 0.3669729 0.1063682
vt 0.3669729 0.1452644
vt 0.4758824 0.1063682
vt 0.3669729 0.1063682
vt 0.4758824 0.1452644
vt 0.3669729 0.1452644
vt 0.4758824 0.1063682
vt 0.4953305 0.3980899
vt 0.3708625 0.3786418
vt 0.3708625 0.3980899
vt 0.4953305 0.3786418
vt 0.3708625 0.3980899
vt 0.4953305 0.3786418
vt 0.3708625 0.3786418
vt 0.4953305 0.3980899
vt 0.3708625 0.3980899
vt 0.4953305 0.3786418
vt 0.4953305 0.3980899
vt 0.3708625 0.3786418
vt 0.3708625 0.3980899
vt 0.4953305 0.3786418
vt 0.3708625 0.3786418
vt 0.4953305 0.3980899
vt 0.4758824 0.1063682
vt 0.3669729 0.1452644
vt 0.3669729 0.1063682
vt 0.4758824 0.1452644
vt 0.3669729 0.1063682
vt 0.4758824 0.1452644
vt 0.4758824 0.1063682
vt 0.3669729 0.1452644
vt 0.4953305 0.3980899
vt 0.3708625 0.3786418
vt 0.4953305 0.3786418
vt 0.3708625 0.3980899
vt 0.4953305 0.3980899
vt 0.3708625 0.3786418
vt 0.4953305 0.3786418
vt 0.3708625 0.3980899
vt 0.3669729 0.1452644
vt 0.4758824 0.1063682
vt 0.3669729 0.1063682
vt 0.4758824 0.1452644
vt 0.3708625 0.3980899
vt 0.4953305 0.3786418
vt 0.3708625 0.3786418
vt 0.4953305 0.3980899
vt 0.3669729 0.1063682
vt 0.4758824 0.1452644
vt 0.3669729 0.1452644
vt 0.4758824 0.1063682
vt 0.3708625 0.3786418
vt 0.4953305 0.3980899
vt 0.3708625 0.3980899
vt 0.4953305 0.3786418
vt 0.08303047 0.4214276
vt 0.2152776 0.3280767
vt 0.08303047 0.3280767
vt 0.2152776 0.4214276
vt 0.001348397 0.4214276
vt 0.001348397 0.3280767
vt 0.1102578 0.4214276
vt 0.001348397 0.3280767
vt 0.1102578 0.3280767
vt 0.001348397 0.4214276
vt 0.2463946 0.4214276
vt 0.2463946 0.3280767
vt 0.3669729 0.1063682
vt 0.4564342 0.1452644
vt 0.3669729 0.1452644
vt 0.3942003 0.1102578
vt 0.4408757 0.1219267
vt 0.4525446 0.1258163
vt 0.4214276 0.1141474
vt 0.4564342 0.1452644
vt 0.3669729 0.1063682
vt 0.3669729 0.1452644
vt 0.3942003 0.1102578
vt 0.4408757 0.1219267
vt 0.4214276 0.1141474
vt 0.4525446 0.1258163
vt 0.3241871 0.3436352
vt 0.4253173 0.3164078
vt 0.3241871 0.3164078
vt 0.4253173 0.3436352
vt 0.4953305 0.3164078
vt 0.4953305 0.3436352
vt 0.2463946 0.3436352
vt 0.2463946 0.3164078
vt 0.2463946 0.3436352
vt 0.3747522 0.3164078
vt 0.3747522 0.3436352
vt 0.2463946 0.3164078
vt 0.3747522 0.3164078
vt 0.4758824 0.3436352
vt 0.3747522 0.3436352
vt 0.4758824 0.3164078
vt 0.3669729 0.1063682
vt 0.4564342 0.1452644
vt 0.3669729 0.1452644
vt 0.3942003 0.1102578
vt 0.4408757 0.1219267
vt 0.4525446 0.1258163
vt 0.4214276 0.1141474
vt 0.4564342 0.1452644
vt 0.3669729 0.1063682
vt 0.3669729 0.1452644
vt 0.3942003 0.1102578
vt 0.4408757 0.1219267
vt 0.4214276 0.1141474
vt 0.4525446 0.1258163
vt 0.3241871 0.3436352
vt 0.4253173 0.3164078
vt 0.3241871 0.3164078
vt 0.4253173 0.3436352
vt 0.4953305 0.3164078
vt 0.4953305 0.3436352
vt 0.2463946 0.3436352
vt 0.2463946 0.3164078
vt 0.2463946 0.3436352
vt 0.3747522 0.3164078
vt 0.3747522 0.3436352
vt 0.2463946 0.3164078
vt 0.4758824 0.3436352
vt 0.4758824 0.3164078
vt 0.3241871 0.3125182
vt 0.4914408 0.2814012
vt 0.3241871 0.2814012
vt 0.4914408 0.3125182
vt 0.3241871 0.2814012
vt 0.4914408 0.3125182
vt 0.3241871 0.3125182
vt 0.4914408 0.2814012
vt 0.3241871 0.3125182
vt 0.4914408 0.2814012
vt 0.3241871 0.2814012
vt 0.4914408 0.3125182
vt 0.3241871 0.3125182
vt 0.4914408 0.2814012
vt 0.3241871 0.2814012
vt 0.4914408 0.3125182
vt 0.3241871 0.3125182
vt 0.4914408 0.2814012
vt 0.3241871 0.2814012
vt 0.4914408 0.3125182
vt 0.3241871 0.2814012
vt 0.4914408 0.3125182
vt 0.3241871 0.3125182
vt 0.4914408 0.2814012
vt 0.3241871 0.3125182
vt 0.4914408 0.2814012
vt 0.3241871 0.2814012
vt 0.4914408 0.3125182
vt 0.3241871 0.3125182
vt 0.4914408 0.2814012
vt 0.3241871 0.2814012
vt 0.4914408 0.3125182
vt 0.3241871 0.3125182
vt 0.4914408 0.2814012
vt 0.3241871 0.2814012
vt 0.4914408 0.3125182
vt 0.3241871 0.3125182
vt 0.4914408 0.2814012
vt 0.3241871 0.2814012
vt 0.4914408 0.3125182
vt 0.3241871 0.3125182
vt 0.4914408 0.2814012
vt 0.3241871 0.2814012
vt 0.4914408 0.3125182
vt 0.3241871 0.3125182
vt 0.4914408 0.2814012
vt 0.3241871 0.2814012
vt 0.4914408 0.3125182
vt 0.3241871 0.3125182
vt 0.4914408 0.2814012
vt 0.3241871 0.2814012
vt 0.4914408 0.3125182
vt 0.3241871 0.3125182
vt 0.4914408 0.2814012
vt 0.3241871 0.2814012
vt 0.4914408 0.3125182
vt 0.3241871 0.3125182
vt 0.4914408 0.2814012
vt 0.3241871 0.2814012
vt 0.4914408 0.3125182
vt 0.3241871 0.3125182
vt 0.4914408 0.2814012
vt 0.3241871 0.2814012
vt 0.4914408 0.3125182
vt 0.3241871 0.3125182
vt 0.4914408 0.2814012
vt 0.3241871 0.2814012
vt 0.4914408 0.3125182
vt 0.3241871 0.3125182
vt 0.4914408 0.2814012
vt 0.3241871 0.2814012
vt 0.4914408 0.3125182
vt 0.3241871 0.3125182
vt 0.4914408 0.2814012
vt 0.3241871 0.2814012
vt 0.4914408 0.3125182
vt 0.3241871 0.2814012
vt 0.4914408 0.3125182
vt 0.3241871 0.3125182
vt 0.4914408 0.2814012
vt 0.3241871 0.3125182
vt 0.4914408 0.2814012
vt 0.3241871 0.2814012
vt 0.4914408 0.3125182
vt 0.3241871 0.3125182
vt 0.4914408 0.2814012
vt 0.3241871 0.2814012
vt 0.4914408 0.3125182
vt 0.3241871 0.3125182
vt 0.4914408 0.2814012
vt 0.3241871 0.2814012
vt 0.4914408 0.3125182
vt 0.3241871 0.2814012
vt 0.4914408 0.3125182
vt 0.3241871 0.3125182
vt 0.4914408 0.2814012
vt 0.3241871 0.3125182
vt 0.4914408 0.2814012
vt 0.3241871 0.2814012
vt 0.4914408 0.3125182
vt 0.3241871 0.3125182
vt 0.4914408 0.2814012
vt 0.3241871 0.2814012
vt 0.4914408 0.3125182
vt 0.3241871 0.3125182
vt 0.4914408 0.2814012
vt 0.3241871 0.2814012
vt 0.4914408 0.3125182
vt 0.3241871 0.2814012
vt 0.4914408 0.3125182
vt 0.3241871 0.3125182
vt 0.4914408 0.2814012
vt 0.4758824 0.1452644
vt 0.3669729 0.1063682
vt 0.3669729 0.1452644
vt 0.4758824 0.1063682
vt 0.3669729 0.1063682
vt 0.4758824 0.1452644
vt 0.3669729 0.1452644
vt 0.4758824 0.1063682
vt 0.4953305 0.3980899
vt 0.3708625 0.3786418
vt 0.3708625 0.3980899
vt 0.4953305 0.3786418
vt 0.3708625 0.3980899
vt 0.4953305 0.3786418
vt 0.3708625 0.3786418
vt 0.4953305 0.3980899
vt 0.3708625 0.3980899
vt 0.4953305 0.3786418
vt 0.4953305 0.3980899
vt 0.3708625 0.3786418
vt 0.3708625 0.3980899
vt 0.4953305 0.3786418
vt 0.3708625 0.3786418
vt 0.4953305 0.3980899
vt 0.4758824 0.1063682
vt 0.3669729 0.1452644
vt 0.3669729 0.1063682
vt 0.4758824 0.1452644
vt 0.3669729 0.1063682
vt 0.4758824 0.1452644
vt 0.4758824 0.1063682
vt 0.3669729 0.1452644
vt 0.4953305 0.3980899
vt 0.3708625 0.3786418
vt 0.4953305 0.3786418
vt 0.3708625 0.3980899
vt 0.4953305 0.3980899
vt 0.3708625 0.3786418
vt 0.4953305 0.3786418
vt 0.3708625 0.3980899
vt 0.3669729 0.1452644
vt 0.4758824 0.1063682
vt 0.3669729 0.1063682
vt 0.4758824 0.1452644
vt 0.3708625 0.3980899
vt 0.4953305 0.3786418
vt 0.3708625 0.3786418
vt 0.4953305 0.3980899
vt 0.3669729 0.1063682
vt 0.4758824 0.1452644
vt 0.3669729 0.1452644
vt 0.4758824 0.1063682
vt 0.3708625 0.3786418
vt 0.4953305 0.3980899
vt 0.3708625 0.3980899
vt 0.4953305 0.3786418
vt 0.2152776 0.2074984
vt 0.09080972 0.3241871
vt 0.2152776 0.3241871
vt 0.09080972 0.2074984
vt 0.001348397 0.3241871
vt 0.001348397 0.2074984
vt 0.09080972 0.3241871
vt 0.2463946 0.2074984
vt 0.09080972 0.2074984
vt 0.2463946 0.3241871
vt 0.001348397 0.3241871
vt 0.001348397 0.2074984
vt 0.2814012 0.4292069
vt 0.2463946 0.4953305
vt 0.2814012 0.4953305
vt 0.2463946 0.4292069
vt 0.3125182 0.4292069
vt 0.3125182 0.4953305
vt 0.3397456 0.4292069
vt 0.3397456 0.4953305
vt 0.3669729 0.4292069
vt 0.3669729 0.4953305
vt 0.2580635 0.4758824
vt 0.2697324 0.4875512
vt 0.2697324 0.4758824
vt 0.2580635 0.4875512
vt 0.3397456 0.4758824
vt 0.3436352 0.4875512
vt 0.3436352 0.4758824
vt 0.3397456 0.4875512
vt 0.3319663 0.4758824
vt 0.3319663 0.4875512
vt 0.3241871 0.4758824
vt 0.3241871 0.4875512
vt 0.3164078 0.4758824
vt 0.3164078 0.4875512
vt 0.2697324 0.4758824
vt 0.2775116 0.4875512
vt 0.2775116 0.4758824
vt 0.2697324 0.4875512
vt 0.2814012 0.4875512
vt 0.2814012 0.4758824
vt 0.2891805 0.4875512
vt 0.2891805 0.4758824
vt 0.3008493 0.4875512
vt 0.3008493 0.4758824
vt 0.3008493 0.4758824
vt 0.3164078 0.4875512
vt 0.3164078 0.4758824
vt 0.3008493 0.4875512
vt 0.2463946 0.3708625
vt 0.3669729 0.4953305
vt 0.3669729 0.3708625
vt 0.2463946 0.4953305
vt 0.2463946 0.4953305
vt 0.3669729 0.4953305
vt 0.3669729 0.4953305
vt 0.2463946 0.4953305
vt 0.2463946 0.3708625
vt 0.2463946 0.4953305
vt 0.2463946 0.4953305
vt 0.2463946 0.3708625
vt 0.3669729 0.3708625
vt 0.2463946 0.3708625
vt 0.2463946 0.3708625
vt 0.3669729 0.3708625
vt 0.3669729 0.4953305
vt 0.3669729 0.3708625
vt 0.3669729 0.3708625
vt 0.3669729 0.4953305
vt 0.2463946 0.3708625
vt 0.3669729 0.4953305
vt 0.3669729 0.3708625
vt 0.2463946 0.4953305
vt 0.2463946 0.4953305
vt 0.3669729 0.4953305
vt 0.3669729 0.4953305
vt 0.2463946 0.4953305
vt 0.2463946 0.3708625
vt 0.2463946 0.4953305
vt 0.2463946 0.4953305
vt 0.2463946 0.3708625
vt 0.3669729 0.3708625
vt 0.2463946 0.3708625
vt 0.2463946 0.3708625
vt 0.3669729 0.3708625
vt 0.3669729 0.4953305
vt 0.3669729 0.3708625
vt 0.3669729 0.3708625
vt 0.3669729 0.4953305
vn 0.07935506 -0.04761302 0.9957087
vn 0.07935506 -0.04761302 0.9957087
vn 0.07935506 -0.04761302 0.9957087
vn 0.07935506 -0.04761302 0.9957087
vn 0.999874 -0.01587099 -0.000346655
vn 0.999874 -0.01587099 -0.000346655
vn 0.999874 -0.01587099 -0.000346655
vn 0.999874 -0.01587099 -0.000346655
vn -0.01587105 -0.04761302 -0.9987398
vn -0.01587105 -0.04761302 -0.9987398
vn -0.01587105 -0.04761302 -0.9987398
vn -0.01587105 -0.04761302 -0.9987398
vn -0.968132 -0.04761302 0.2458728
vn -0.968132 -0.04761302 0.2458728
vn -0.968132 -0.04761302 0.2458728
vn -0.968132 -0.04761302 0.2458728
vn 0.999874 -0.01587099 -0.000346655
vn 0.999874 -0.01587099 -0.000346655
vn 0.999874 -0.01587099 -0.000346655
vn 0.999874 -0.01587099 -0.000346655
vn -0.968132 -0.04761302 0.2458728
vn -0.968132 -0.04761302 0.2458728
vn -0.968132 -0.04761302 0.2458728
vn -0.968132 -0.04761302 0.2458728
vn -0.01587105 -0.04761302 -0.9987398
vn -0.01587105 -0.04761302 -0.9987398
vn -0.01587105 -0.04761302 -0.9987398
vn -0.01587105 -0.04761302 -0.9987398
vn 0.07935506 -0.04761302 0.9957087
vn 0.07935506 -0.04761302 0.9957087
vn 0.07935506 -0.04761302 0.9957087
vn 0.07935506 -0.04761302 0.9957087
vn 0.07935506 -0.04761302 0.9957087
vn 0.07935506 -0.04761302 0.9957087
vn 0.07935506 -0.04761302 0.9957087
vn 0.07935506 -0.04761302 0.9957087
vn 0.999874 -0.01587099 -0.000346655
vn 0.999874 -0.01587099 -0.000346655
vn 0.999874 -0.01587099 -0.000346655
vn 0.999874 -0.01587099 -0.000346655
vn -0.01587105 -0.04761302 -0.9987398
vn -0.01587105 -0.04761302 -0.9987398
vn -0.01587105 -0.04761302 -0.9987398
vn -0.01587105 -0.04761302 -0.9987398
vn -0.968132 -0.04761302 0.2458728
vn -0.968132 -0.04761302 0.2458728
vn -0.968132 -0.04761302 0.2458728
vn -0.968132 -0.04761302 0.2458728
vn 0.999874 -0.01587099 -0.000346655
vn 0.999874 -0.01587099 -0.000346655
vn 0.999874 -0.01587099 -0.000346655
vn 0.999874 -0.01587099 -0.000346655
vn -0.968132 -0.04761302 0.2458728
vn -0.968132 -0.04761302 0.2458728
vn -0.968132 -0.04761302 0.2458728
vn -0.968132 -0.04761302 0.2458728
vn -0.01587105 -0.04761302 -0.9987398
vn -0.01587105 -0.04761302 -0.9987398
vn -0.01587105 -0.04761302 -0.9987398
vn -0.01587105 -0.04761302 -0.9987398
vn 0.07935506 -0.04761302 0.9957087
vn 0.07935506 -0.04761302 0.9957087
vn 0.07935506 -0.04761302 0.9957087
vn 0.07935506 -0.04761302 0.9957087
vn -0.968132 -0.04761302 0.2458728
vn -0.968132 -0.04761302 0.2458728
vn -0.968132 -0.04761302 0.2458728
vn -0.968132 -0.04761302 0.2458728
vn 0.999874 -0.01587099 -0.000346655
vn 0.999874 -0.01587099 -0.000346655
vn 0.999874 -0.01587099 -0.000346655
vn 0.999874 -0.01587099 -0.000346655
vn -0.968132 -0.04761302 0.2458728
vn -0.968132 -0.04761302 0.2458728
vn -0.968132 -0.04761302 0.2458728
vn -0.968132 -0.04761302 0.2458728
vn 0.999874 -0.01587099 -0.000346655
vn 0.999874 -0.01587099 -0.000346655
vn 0.999874 -0.01587099 -0.000346655
vn 0.999874 -0.01587099 -0.000346655
vn 0.07935506 -0.04761302 0.9957087
vn 0.07935506 -0.04761302 0.9957087
vn 0.07935506 -0.04761302 0.9957087
vn 0.07935506 -0.04761302 0.9957087
vn -0.01587105 -0.04761302 -0.9987398
vn -0.01587105 -0.04761302 -0.9987398
vn -0.01587105 -0.04761302 -0.9987398
vn -0.01587105 -0.04761302 -0.9987398
vn 0.07935506 -0.04761302 0.9957087
vn 0.07935506 -0.04761302 0.9957087
vn 0.07935506 -0.04761302 0.9957087
vn 0.07935506 -0.04761302 0.9957087
vn -0.01587105 -0.04761302 -0.9987398
vn -0.01587105 -0.04761302 -0.9987398
vn -0.01587105 -0.04761302 -0.9987398
vn -0.01587105 -0.04761302 -0.9987398
vn -0.01587105 -0.04761302 -0.9987398
vn -0.01587105 -0.04761302 -0.9987398
vn -0.01587105 -0.04761302 -0.9987398
vn -0.01587105 -0.04761302 -0.9987398
vn 0.07935506 -0.04761302 0.9957087
vn 0.07935506 -0.04761302 0.9957087
vn 0.07935506 -0.04761302 0.9957087
vn 0.07935506 -0.04761302 0.9957087
vn -0.01587105 -0.04761302 -0.9987398
vn -0.01587105 -0.04761302 -0.9987398
vn -0.01587105 -0.04761302 -0.9987398
vn -0.01587105 -0.04761302 -0.9987398
vn 0.07935506 -0.04761302 0.9957087
vn 0.07935506 -0.04761302 0.9957087
vn 0.07935506 -0.04761302 0.9957087
vn 0.07935506 -0.04761302 0.9957087
vn 0.999874 -0.01587099 -0.000346655
vn 0.999874 -0.01587099 -0.000346655
vn 0.999874 -0.01587099 -0.000346655
vn 0.999874 -0.01587099 -0.000346655
vn -0.968132 -0.04761302 0.2458728
vn -0.968132 -0.04761302 0.2458728
vn -0.968132 -0.04761302 0.2458728
vn -0.968132 -0.04761302 0.2458728
vn 0.999874 -0.01587099 -0.000346655
vn 0.999874 -0.01587099 -0.000346655
vn 0.999874 -0.01587099 -0.000346655
vn 0.999874 -0.01587099 -0.000346655
vn -0.968132 -0.04761302 0.2458728
vn -0.968132 -0.04761302 0.2458728
vn -0.968132 -0.04761302 0.2458728
vn -0.968132 -0.04761302 0.2458728
vn 0.01587099 -0.999874 -0.000345267
vn 0.01587099 -0.999874 -0.000345267
vn 0.01587099 -0.999874 -0.000345267
vn 0.01587099 -0.999874 -0.000345267
vn 0.01587099 0.999874 -0.000345267
vn 0.01587099 0.999874 -0.000345267
vn 0.01587099 0.999874 -0.000345267
vn 0.01587099 0.999874 -0.000345267
vn 0.07935506 -0.04761302 0.9957087
vn 0.07935506 -0.04761302 0.9957087
vn 0.07935506 -0.04761302 0.9957087
vn 0.07935506 -0.04761302 0.9957087
vn 0.999874 -0.01587099 -0.000346655
vn 0.999874 -0.01587099 -0.000346655
vn 0.999874 -0.01587099 -0.000346655
vn 0.999874 -0.01587099 -0.000346655
vn -0.01587105 -0.04761302 -0.9987398
vn -0.01587105 -0.04761302 -0.9987398
vn -0.01587105 -0.04761302 -0.9987398
vn -0.01587105 -0.04761302 -0.9987398
vn -0.968132 -0.04761302 0.2458728
vn -0.968132 -0.04761302 0.2458728
vn -0.968132 -0.04761302 0.2458728
vn -0.968132 -0.04761302 0.2458728
vn 0.01587099 -0.999874 -0.000345267
vn 0.01587099 -0.999874 -0.000345267
vn 0.01587099 -0.999874 -0.000345267
vn 0.01587099 -0.999874 -0.000345267
vn 0.01587099 0.999874 -0.000345267
vn 0.01587099 0.999874 -0.000345267
vn 0.01587099 0.999874 -0.000345267
vn 0.01587099 0.999874 -0.000345267
vn 0.999874 -0.01587099 -0.000346655
vn 0.999874 -0.01587099 -0.000346655
vn 0.999874 -0.01587099 -0.000346655
vn 0.999874 -0.01587099 -0.000346655
vn -0.968132 -0.04761302 0.2458728
vn -0.968132 -0.04761302 0.2458728
vn -0.968132 -0.04761302 0.2458728
vn -0.968132 -0.04761302 0.2458728
vn 0.01587099 -0.999874 -0.000345267
vn 0.01587099 -0.999874 -0.000345267
vn 0.01587099 -0.999874 -0.000345267
vn 0.01587099 -0.999874 -0.000345267
vn -0.01587105 -0.04761302 -0.9987398
vn -0.01587105 -0.04761302 -0.9987398
vn -0.01587105 -0.04761302 -0.9987398
vn -0.01587105 -0.04761302 -0.9987398
vn 0.01587099 0.999874 -0.000345267
vn 0.01587099 0.999874 -0.000345267
vn 0.01587099 0.999874 -0.000345267
vn 0.01587099 0.999874 -0.000345267
vn 0.07935506 -0.04761302 0.9957087
vn 0.07935506 -0.04761302 0.9957087
vn 0.07935506 -0.04761302 0.9957087
vn 0.07935506 -0.04761302 0.9957087
vn 0.3015493 -0.04761302 0.952261
vn 0.7459377 -0.04761302 0.6643116
vn 0.3015493 -0.04761302 0.952261
vn 0.7459377 -0.04761302 0.6643116
vn 0.1428391 -0.04761302 0.9886
vn 0.1428391 -0.04761302 0.9886
vn 0.999874 -0.01587099 -0.000346655
vn 0.999874 -0.01587099 -0.000346655
vn 0.999874 -0.01587099 -0.000346655
vn 0.999874 -0.01587099 -0.000346655
vn 0.7459377 -0.04761302 0.6643116
vn 0.7459377 -0.04761302 0.6643116
vn 0.01587099 -0.999874 -0.000345267
vn 0.01587099 -0.999874 -0.000345267
vn 0.01587099 -0.999874 -0.000345267
vn 0.01587099 -0.999874 -0.000345267
vn 0.01587099 -0.999874 -0.000345267
vn 0.01587099 -0.999874 -0.000345267
vn 0.01587099 -0.999874 -0.000345267
vn 0.01587099 0.999874 -0.000345267
vn 0.01587099 0.999874 -0.000345267
vn 0.01587099 0.999874 -0.000345267
vn 0.01587099 0.999874 -0.000345267
vn 0.01587099 0.999874 -0.000345267
vn 0.01587099 0.999874 -0.000345267
vn 0.01587099 0.999874 -0.000345267
vn 0.2380652 -0.04761302 0.9700814
vn 0.5554855 -0.04761302 0.8301619
vn 0.2380652 -0.04761302 0.9700814
vn 0.5554855 -0.04761302 0.8301619
vn 0.8411638 -0.04761302 0.5386803
vn 0.8411638 -0.04761302 0.5386803
vn 0.1110971 -0.04761302 0.9926683
vn 0.1110971 -0.04761302 0.9926683
vn 0.999874 -0.01587099 -0.000346655
vn 0.999874 -0.01587099 -0.000346655
vn 0.999874 -0.01587099 -0.000346655
vn 0.999874 -0.01587099 -0.000346655
vn 0.999874 -0.01587099 -0.000346655
vn 0.8411638 -0.04761302 0.5386803
vn 0.999874 -0.01587099 -0.000346655
vn 0.8411638 -0.04761302 0.5386803
vn 0.01587099 -0.999874 -0.000345267
vn 0.01587099 -0.999874 -0.000345267
vn 0.01587099 -0.999874 -0.000345267
vn 0.01587099 -0.999874 -0.000345267
vn 0.01587099 -0.999874 -0.000345267
vn 0.01587099 -0.999874 -0.000345267
vn 0.01587099 -0.999874 -0.000345267
vn 0.01587099 0.999874 -0.000345267
vn 0.01587099 0.999874 -0.000345267
vn 0.01587099 0.999874 -0.000345267
vn 0.01587099 0.999874 -0.000345267
vn 0.01587099 0.999874 -0.000345267
vn 0.01587099 0.999874 -0.000345267
vn 0.01587099 0.999874 -0.000345267
vn 0.2380652 -0.04761302 0.9700814
vn 0.5554855 -0.04761302 0.8301619
vn 0.2380652 -0.04761302 0.9700814
vn 0.5554855 -0.04761302 0.8301619
vn 0.8411638 -0.04761302 0.5386803
vn 0.8411638 -0.04761302 0.5386803
vn 0.1110971 -0.04761302 0.9926683
vn 0.1110971 -0.04761302 0.9926683
vn 0.999874 -0.01587099 -0.000346655
vn 0.999874 -0.01587099 -0.000346655
vn 0.999874 -0.01587099 -0.000346655
vn 0.999874 -0.01587099 -0.000346655
vn 0.8411638 -0.04761302 0.5386803
vn 0.8411638 -0.04761302 0.5386803
vn 0.07935506 -0.04761302 0.9957087
vn 0.07935506 -0.04761302 0.9957087
vn 0.07935506 -0.04761302 0.9957087
vn 0.07935506 -0.04761302 0.9957087
vn 0.999874 -0.01587099 -0.000346655
vn 0.999874 -0.01587099 -0.000346655
vn 0.999874 -0.01587099 -0.000346655
vn 0.999874 -0.01587099 -0.000346655
vn -0.01587105 -0.04761302 -0.9987398
vn -0.01587105 -0.04761302 -0.9987398
vn -0.01587105 -0.04761302 -0.9987398
vn -0.01587105 -0.04761302 -0.9987398
vn -0.968132 -0.04761302 0.2458728
vn -0.968132 -0.04761302 0.2458728
vn -0.968132 -0.04761302 0.2458728
vn -0.968132 -0.04761302 0.2458728
vn 0.07935506 -0.04761302 0.9957087
vn 0.07935506 -0.04761302 0.9957087
vn 0.07935506 -0.04761302 0.9957087
vn 0.07935506 -0.04761302 0.9957087
vn 0.999874 -0.01587099 -0.000346655
vn 0.999874 -0.01587099 -0.000346655
vn 0.999874 -0.01587099 -0.000346655
vn 0.999874 -0.01587099 -0.000346655
vn -0.01587105 -0.04761302 -0.9987398
vn -0.01587105 -0.04761302 -0.9987398
vn -0.01587105 -0.04761302 -0.9987398
vn -0.01587105 -0.04761302 -0.9987398
vn -0.968132 -0.04761302 0.2458728
vn -0.968132 -0.04761302 0.2458728
vn -0.968132 -0.04761302 0.2458728
vn -0.968132 -0.04761302 0.2458728
vn 0.07935506 -0.04761302 0.9957087
vn 0.07935506 -0.04761302 0.9957087
vn 0.07935506 -0.04761302 0.9957087
vn 0.07935506 -0.04761302 0.9957087
vn -0.01587105 -0.04761302 -0.9987398
vn -0.01587105 -0.04761302 -0.9987398
vn -0.01587105 -0.04761302 -0.9987398
vn -0.01587105 -0.04761302 -0.9987398
vn -0.968132 -0.04761302 0.2458728
vn -0.968132 -0.04761302 0.2458728
vn -0.968132 -0.04761302 0.2458728
vn -0.968132 -0.04761302 0.2458728
vn 0.07935506 -0.04761302 0.9957087
vn 0.07935506 -0.04761302 0.9957087
vn 0.07935506 -0.04761302 0.9957087
vn 0.07935506 -0.04761302 0.9957087
vn 0.999874 -0.01587099 -0.000346655
vn 0.999874 -0.01587099 -0.000346655
vn 0.999874 -0.01587099 -0.000346655
vn 0.999874 -0.01587099 -0.000346655
vn -0.01587105 -0.04761302 -0.9987398
vn -0.01587105 -0.04761302 -0.9987398
vn -0.01587105 -0.04761302 -0.9987398
vn -0.01587105 -0.04761302 -0.9987398
vn -0.968132 -0.04761302 0.2458728
vn -0.968132 -0.04761302 0.2458728
vn -0.968132 -0.04761302 0.2458728
vn -0.968132 -0.04761302 0.2458728
vn 0.999874 -0.01587099 -0.000346655
vn 0.999874 -0.01587099 -0.000346655
vn 0.999874 -0.01587099 -0.000346655
vn 0.999874 -0.01587099 -0.000346655
vn -0.01587105 -0.04761302 -0.9987398
vn -0.01587105 -0.04761302 -0.9987398
vn -0.01587105 -0.04761302 -0.9987398
vn -0.01587105 -0.04761302 -0.9987398
vn -0.968132 -0.04761302 0.2458728
vn -0.968132 -0.04761302 0.2458728
vn -0.968132 -0.04761302 0.2458728
vn -0.968132 -0.04761302 0.2458728
vn 0.07935506 -0.04761302 0.9957087
vn 0.07935506 -0.04761302 0.9957087
vn 0.07935506 -0.04761302 0.9957087
vn 0.07935506 -0.04761302 0.9957087
vn 0.999874 -0.01587099 -0.000346655
vn 0.999874 -0.01587099 -0.000346655
vn 0.999874 -0.01587099 -0.000346655
vn 0.999874 -0.01587099 -0.000346655
vn -0.01587105 -0.04761302 -0.9987398
vn -0.01587105 -0.04761302 -0.9987398
vn -0.01587105 -0.04761302 -0.9987398
vn -0.01587105 -0.04761302 -0.9987398
vn -0.968132 -0.04761302 0.2458728
vn -0.968132 -0.04761302 0.2458728
vn -0.968132 -0.04761302 0.2458728
vn -0.968132 -0.04761302 0.2458728
vn 0.07935506 -0.04761302 0.9957087
vn 0.07935506 -0.04761302 0.9957087
vn 0.07935506 -0.04761302 0.9957087
vn 0.07935506 -0.04761302 0.9957087
vn 0.999874 -0.01587099 -0.000346655
vn 0.999874 -0.01587099 -0.000346655
vn 0.999874 -0.01587099 -0.000346655
vn 0.999874 -0.01587099 -0.000346655
vn -0.01587105 -0.04761302 -0.9987398
vn -0.01587105 -0.04761302 -0.9987398
vn -0.01587105 -0.04761302 -0.9987398
vn -0.01587105 -0.04761302 -0.9987398
vn -0.968132 -0.04761302 0.2458728
vn -0.968132 -0.04761302 0.2458728
vn -0.968132 -0.04761302 0.2458728
vn -0.968132 -0.04761302 0.2458728
vn 0.07935506 -0.04761302 0.9957087
vn 0.07935506 -0.04761302 0.9957087
vn 0.07935506 -0.04761302 0.9957087
vn 0.07935506 -0.04761302 0.9957087
vn 0.999874 -0.01587099 -0.000346655
vn 0.999874 -0.01587099 -0.000346655
vn 0.999874 -0.01587099 -0.000346655
vn 0.999874 -0.01587099 -0.000346655
vn 0.01587099 -0.999874 -0.000345267
vn 0.01587099 -0.999874 -0.000345267
vn 0.01587099 -0.999874 -0.000345267
vn 0.01587099 -0.999874 -0.000345267
vn 0.01587099 0.999874 -0.000345267
vn 0.01587099 0.999874 -0.000345267
vn 0.01587099 0.999874 -0.000345267
vn 0.01587099 0.999874 -0.000345267
vn 0.07935506 -0.04761302 0.9957087
vn 0.07935506 -0.04761302 0.9957087
vn 0.07935506 -0.04761302 0.9957087
vn 0.07935506 -0.04761302 0.9957087
vn 0.999874 -0.01587099 -0.000346655
vn 0.999874 -0.01587099 -0.000346655
vn 0.999874 -0.01587099 -0.000346655
vn 0.999874 -0.01587099 -0.000346655
vn -0.01587105 -0.04761302 -0.9987398
vn -0.01587105 -0.04761302 -0.9987398
vn -0.01587105 -0.04761302 -0.9987398
vn -0.01587105 -0.04761302 -0.9987398
vn -0.968132 -0.04761302 0.2458728
vn -0.968132 -0.04761302 0.2458728
vn -0.968132 -0.04761302 0.2458728
vn -0.968132 -0.04761302 0.2458728
vn 0.01587099 -0.999874 -0.000345267
vn 0.01587099 -0.999874 -0.000345267
vn 0.01587099 -0.999874 -0.000345267
vn 0.01587099 -0.999874 -0.000345267
vn 0.01587099 0.999874 -0.000345267
vn 0.01587099 0.999874 -0.000345267
vn 0.01587099 0.999874 -0.000345267
vn 0.01587099 0.999874 -0.000345267
vn 0.999874 -0.01587099 -0.000346655
vn 0.999874 -0.01587099 -0.000346655
vn 0.999874 -0.01587099 -0.000346655
vn 0.999874 -0.01587099 -0.000346655
vn -0.968132 -0.04761302 0.2458728
vn -0.968132 -0.04761302 0.2458728
vn -0.968132 -0.04761302 0.2458728
vn -0.968132 -0.04761302 0.2458728
vn 0.01587099 -0.999874 -0.000345267
vn 0.01587099 -0.999874 -0.000345267
vn 0.01587099 -0.999874 -0.000345267
vn 0.01587099 -0.999874 -0.000345267
vn -0.01587105 -0.04761302 -0.9987398
vn -0.01587105 -0.04761302 -0.9987398
vn -0.01587105 -0.04761302 -0.9987398
vn -0.01587105 -0.04761302 -0.9987398
vn 0.01587099 0.999874 -0.000345267
vn 0.01587099 0.999874 -0.000345267
vn 0.01587099 0.999874 -0.000345267
vn 0.01587099 0.999874 -0.000345267
vn 0.07935506 -0.04761302 0.9957087
vn 0.07935506 -0.04761302 0.9957087
vn 0.07935506 -0.04761302 0.9957087
vn 0.07935506 -0.04761302 0.9957087
vn 0.7141957 -0.04761302 0.6983248
vn 0.3015493 -0.04761302 0.952261
vn 0.7141957 -0.04761302 0.6983248
vn 0.3015493 -0.04761302 0.952261
vn 0.1428391 -0.04761302 0.9886
vn 0.1428391 -0.04761302 0.9886
vn 0.999874 -0.01587099 -0.000346655
vn 0.999874 -0.01587099 -0.000346655
vn 0.999874 -0.01587099 -0.000346655
vn 0.999874 -0.01587099 -0.000346655
vn 0.7141957 -0.04761302 0.6983248
vn 0.7141957 -0.04761302 0.6983248
vn 0.5872276 -0.04761302 0.8080203
vn -0.2063233 -0.04761302 0.9773248
vn 0.5872276 -0.04761302 0.8080203
vn -0.2063233 -0.04761302 0.9773248
vn 0.8094218 -0.04761302 0.5852943
vn 0.8094218 -0.04761302 0.5852943
vn 0.968132 -0.04761302 0.245873
vn 0.968132 -0.04761302 0.245873
vn 0.999874 -0.01587099 -0.000346655
vn 0.999874 -0.01587099 -0.000346655
vn -0.2063233 -0.04761302 0.9773248
vn -0.7459378 -0.04761302 0.6643115
vn -0.2063233 -0.04761302 0.9773248
vn -0.7459378 -0.04761302 0.6643115
vn 0.01587099 -0.999874 -0.000345267
vn 0.01587099 -0.999874 -0.000345267
vn 0.01587099 -0.999874 -0.000345267
vn 0.01587099 -0.999874 -0.000345267
vn 0.01587099 -0.999874 -0.000345267
vn 0.01587099 -0.999874 -0.000345267
vn 0.01587099 -0.999874 -0.000345267
vn 0.01587099 -0.999874 -0.000345267
vn 0.01587099 -0.999874 -0.000345267
vn 0.01587099 -0.999874 -0.000345267
vn 0.01587099 0.999874 -0.000345267
vn 0.01587099 0.999874 -0.000345267
vn 0.01587099 0.999874 -0.000345267
vn 0.01587099 0.999874 -0.000345267
vn 0.01587099 0.999874 -0.000345267
vn 0.01587099 0.999874 -0.000345267
vn 0.01587099 0.999874 -0.000345267
vn 0.01587099 0.999874 -0.000345267
vn 0.01587099 0.999874 -0.000345267
vn 0.01587099 0.999874 -0.000345267
vn 0.999874 -0.01587099 -0.000346655
vn 0.8094218 -0.04761302 -0.5852943
vn 0.999874 -0.01587099 -0.000346655
vn 0.8094218 -0.04761302 -0.5852943
vn 0.07935506 -0.04761302 0.9957087
vn 0.07935506 -0.04761302 0.9957087
vn 0.07935506 -0.04761302 0.9957087
vn 0.07935506 -0.04761302 0.9957087
vn 0.01587099 0.999874 -0.000345267
vn 0.01587099 0.999874 -0.000345267
vn 0.01587099 0.999874 -0.000345267
vn 0.01587099 0.999874 -0.000345267
vn -0.968132 -0.04761302 0.2458728
vn -0.968132 -0.04761302 0.2458728
vn -0.968132 -0.04761302 0.2458728
vn -0.968132 -0.04761302 0.2458728
vn 0.01587099 -0.999874 -0.000345267
vn 0.01587099 -0.999874 -0.000345267
vn 0.01587099 -0.999874 -0.000345267
vn 0.01587099 -0.999874 -0.000345267
vn 0.999874 -0.01587099 -0.000346655
vn 0.999874 -0.01587099 -0.000346655
vn 0.999874 -0.01587099 -0.000346655
vn 0.999874 -0.01587099 -0.000346655
vn 0.999874 -0.01587099 -0.000346655
vn 0.999874 -0.01587099 -0.000346655
vn 0.999874 -0.01587099 -0.000346655
vn 0.999874 -0.01587099 -0.000346655
vn 0.01587099 0.999874 -0.000345267
vn 0.01587099 0.999874 -0.000345267
vn 0.01587099 0.999874 -0.000345267
vn 0.01587099 0.999874 -0.000345267
vn 0.07935506 -0.04761302 0.9957087
vn 0.07935506 -0.04761302 0.9957087
vn 0.07935506 -0.04761302 0.9957087
vn 0.07935506 -0.04761302 0.9957087
vn 0.01587099 -0.999874 -0.000345267
vn 0.01587099 -0.999874 -0.000345267
vn 0.01587099 -0.999874 -0.000345267
vn 0.01587099 -0.999874 -0.000345267
vn -0.01587105 -0.04761302 -0.9987398
vn -0.01587105 -0.04761302 -0.9987398
vn -0.01587105 -0.04761302 -0.9987398
vn -0.01587105 -0.04761302 -0.9987398
g DSJ_GTA_diLou_30_0
f 3/3/3 2/2/2 1/1/1
f 4/4/4 1/1/1 2/2/2
f 7/7/7 6/6/6 5/5/5
f 8/8/8 5/5/5 6/6/6
f 11/11/11 10/10/10 9/9/9
f 12/12/12 9/9/9 10/10/10
f 15/15/15 14/14/14 13/13/13
f 16/16/16 13/13/13 14/14/14
f 19/19/19 18/18/18 17/17/17
f 20/20/20 17/17/17 18/18/18
f 23/23/23 22/22/22 21/21/21
f 24/24/24 21/21/21 22/22/22
f 27/27/27 26/26/26 25/25/25
f 28/28/28 25/25/25 26/26/26
f 31/31/31 30/30/30 29/29/29
f 32/32/32 29/29/29 30/30/30
f 35/35/35 34/34/34 33/33/33
f 36/36/36 33/33/33 34/34/34
f 39/39/39 38/38/38 37/37/37
f 40/40/40 37/37/37 38/38/38
f 43/43/43 42/42/42 41/41/41
f 44/44/44 41/41/41 42/42/42
f 47/47/47 46/46/46 45/45/45
f 48/48/48 45/45/45 46/46/46
f 51/51/51 50/50/50 49/49/49
f 52/52/52 49/49/49 50/50/50
f 55/55/55 54/54/54 53/53/53
f 56/56/56 53/53/53 54/54/54
f 59/59/59 58/58/58 57/57/57
f 60/60/60 57/57/57 58/58/58
f 63/63/63 62/62/62 61/61/61
f 64/64/64 61/61/61 62/62/62
f 67/67/67 66/66/66 65/65/65
f 68/68/68 65/65/65 66/66/66
f 71/71/71 70/70/70 69/69/69
f 72/72/72 69/69/69 70/70/70
f 75/75/75 74/74/74 73/73/73
f 76/76/76 73/73/73 74/74/74
f 79/79/79 78/78/78 77/77/77
f 80/80/80 77/77/77 78/78/78
f 83/83/83 82/82/82 81/81/81
f 84/84/84 81/81/81 82/82/82
f 87/87/87 86/86/86 85/85/85
f 88/88/88 85/85/85 86/86/86
f 91/91/91 90/90/90 89/89/89
f 92/92/92 89/89/89 90/90/90
f 95/95/95 94/94/94 93/93/93
f 96/96/96 93/93/93 94/94/94
f 99/99/99 98/98/98 97/97/97
f 100/100/100 97/97/97 98/98/98
f 103/103/103 102/102/102 101/101/101
f 104/104/104 101/101/101 102/102/102
f 107/107/107 106/106/106 105/105/105
f 108/108/108 105/105/105 106/106/106
f 111/111/111 110/110/110 109/109/109
f 112/112/112 109/109/109 110/110/110
f 115/115/115 114/114/114 113/113/113
f 116/116/116 113/113/113 114/114/114
f 119/119/119 118/118/118 117/117/117
f 120/120/120 117/117/117 118/118/118
f 123/123/123 122/122/122 121/121/121
f 124/124/124 121/121/121 122/122/122
f 127/127/127 126/126/126 125/125/125
f 128/128/128 125/125/125 126/126/126
f 131/131/131 130/130/130 129/129/129
f 132/132/132 129/129/129 130/130/130
f 135/135/135 134/134/134 133/133/133
f 136/136/136 133/133/133 134/134/134
f 139/139/139 138/138/138 137/137/137
f 140/140/140 137/137/137 138/138/138
f 143/143/143 142/142/142 141/141/141
f 144/144/144 141/141/141 142/142/142
f 147/147/147 146/146/146 145/145/145
f 148/148/148 145/145/145 146/146/146
f 151/151/151 150/150/150 149/149/149
f 152/152/152 149/149/149 150/150/150
f 155/155/155 154/154/154 153/153/153
f 156/156/156 153/153/153 154/154/154
f 159/159/159 158/158/158 157/157/157
f 160/160/160 157/157/157 158/158/158
f 163/163/163 162/162/162 161/161/161
f 164/164/164 161/161/161 162/162/162
f 167/167/167 166/166/166 165/165/165
f 168/168/168 165/165/165 166/166/166
f 171/171/171 170/170/170 169/169/169
f 172/172/172 169/169/169 170/170/170
f 175/175/175 174/174/174 173/173/173
f 176/176/176 173/173/173 174/174/174
f 179/179/179 178/178/178 177/177/177
f 180/180/180 177/177/177 178/178/178
f 183/183/183 182/182/182 181/181/181
f 184/184/184 181/181/181 182/182/182
f 187/187/187 186/186/186 185/185/185
f 188/188/188 185/185/185 186/186/186
f 185/185/185 189/189/189 187/187/187
f 190/190/190 187/187/187 189/189/189
f 193/193/193 192/192/192 191/191/191
f 194/194/194 191/191/191 192/192/192
f 191/191/191 195/195/195 193/193/193
f 196/196/196 193/193/193 195/195/195
f 199/199/199 198/198/198 197/197/197
f 197/197/197 198/198/198 200/200/200
f 198/198/198 201/201/201 200/200/200
f 202/202/202 201/201/201 198/198/198
f 200/200/200 201/201/201 203/203/203
f 206/206/206 205/205/205 204/204/204
f 205/205/205 207/207/207 204/204/204
f 207/207/207 208/208/208 204/204/204
f 209/209/209 208/208/208 207/207/207
f 208/208/208 210/210/210 204/204/204
f 213/213/213 212/212/212 211/211/211
f 214/214/214 211/211/211 212/212/212
f 212/212/212 215/215/215 214/214/214
f 216/216/216 214/214/214 215/215/215
f 211/211/211 217/217/217 213/213/213
f 218/218/218 213/213/213 217/217/217
f 221/221/221 220/220/220 219/219/219
f 222/222/222 219/219/219 220/220/220
f 225/225/225 224/224/224 223/223/223
f 226/226/226 223/223/223 224/224/224
f 229/229/229 228/228/228 227/227/227
f 227/227/227 228/228/228 230/230/230
f 228/228/228 231/231/231 230/230/230
f 232/232/232 231/231/231 228/228/228
f 230/230/230 231/231/231 233/233/233
f 236/236/236 235/235/235 234/234/234
f 235/235/235 237/237/237 234/234/234
f 237/237/237 238/238/238 234/234/234
f 239/239/239 238/238/238 237/237/237
f 238/238/238 240/240/240 234/234/234
f 243/243/243 242/242/242 241/241/241
f 244/244/244 241/241/241 242/242/242
f 242/242/242 245/245/245 244/244/244
f 246/246/246 244/244/244 245/245/245
f 241/241/241 247/247/247 243/243/243
f 248/248/248 243/243/243 247/247/247
f 251/251/251 250/250/250 249/249/249
f 252/252/252 249/249/249 250/250/250
f 251/251/251 253/253/253 250/250/250
f 254/254/254 250/250/250 253/253/253
f 257/257/257 256/256/256 255/255/255
f 258/258/258 255/255/255 256/256/256
f 261/261/261 260/260/260 259/259/259
f 262/262/262 259/259/259 260/260/260
f 265/265/265 264/264/264 263/263/263
f 266/266/266 263/263/263 264/264/264
f 269/269/269 268/268/268 267/267/267
f 270/270/270 267/267/267 268/268/268
f 273/273/273 272/272/272 271/271/271
f 274/274/274 271/271/271 272/272/272
f 277/277/277 276/276/276 275/275/275
f 278/278/278 275/275/275 276/276/276
f 281/281/281 280/280/280 279/279/279
f 282/282/282 279/279/279 280/280/280
f 285/285/285 284/284/284 283/283/283
f 286/286/286 283/283/283 284/284/284
f 289/289/289 288/288/288 287/287/287
f 290/290/290 287/287/287 288/288/288
f 293/293/293 292/292/292 291/291/291
f 294/294/294 291/291/291 292/292/292
f 297/297/297 296/296/296 295/295/295
f 298/298/298 295/295/295 296/296/296
f 301/301/301 300/300/300 299/299/299
f 302/302/302 299/299/299 300/300/300
f 305/305/305 304/304/304 303/303/303
f 306/306/306 303/303/303 304/304/304
f 309/309/309 308/308/308 307/307/307
f 310/310/310 307/307/307 308/308/308
f 313/313/313 312/312/312 311/311/311
f 314/314/314 311/311/311 312/312/312
f 317/317/317 316/316/316 315/315/315
f 318/318/318 315/315/315 316/316/316
f 321/321/321 320/320/320 319/319/319
f 322/322/322 319/319/319 320/320/320
f 325/325/325 324/324/324 323/323/323
f 326/326/326 323/323/323 324/324/324
f 329/329/329 328/328/328 327/327/327
f 330/330/330 327/327/327 328/328/328
f 333/333/333 332/332/332 331/331/331
f 334/334/334 331/331/331 332/332/332
f 337/337/337 336/336/336 335/335/335
f 338/338/338 335/335/335 336/336/336
f 341/341/341 340/340/340 339/339/339
f 342/342/342 339/339/339 340/340/340
f 345/345/345 344/344/344 343/343/343
f 346/346/346 343/343/343 344/344/344
f 349/349/349 348/348/348 347/347/347
f 350/350/350 347/347/347 348/348/348
f 353/353/353 352/352/352 351/351/351
f 354/354/354 351/351/351 352/352/352
f 357/357/357 356/356/356 355/355/355
f 358/358/358 355/355/355 356/356/356
f 361/361/361 360/360/360 359/359/359
f 362/362/362 359/359/359 360/360/360
f 365/365/365 364/364/364 363/363/363
f 366/366/366 363/363/363 364/364/364
f 369/369/369 368/368/368 367/367/367
f 370/370/370 367/367/367 368/368/368
f 373/373/373 372/372/372 371/371/371
f 374/374/374 371/371/371 372/372/372
f 377/377/377 376/376/376 375/375/375
f 378/378/378 375/375/375 376/376/376
f 381/381/381 380/380/380 379/379/379
f 382/382/382 379/379/379 380/380/380
f 385/385/385 384/384/384 383/383/383
f 386/386/386 383/383/383 384/384/384
f 389/389/389 388/388/388 387/387/387
f 390/390/390 387/387/387 388/388/388
f 393/393/393 392/392/392 391/391/391
f 394/394/394 391/391/391 392/392/392
f 397/397/397 396/396/396 395/395/395
f 398/398/398 395/395/395 396/396/396
f 401/401/401 400/400/400 399/399/399
f 402/402/402 399/399/399 400/400/400
f 405/405/405 404/404/404 403/403/403
f 406/406/406 403/403/403 404/404/404
f 409/409/409 408/408/408 407/407/407
f 410/410/410 407/407/407 408/408/408
f 413/413/413 412/412/412 411/411/411
f 414/414/414 411/411/411 412/412/412
f 417/417/417 416/416/416 415/415/415
f 418/418/418 415/415/415 416/416/416
f 421/421/421 420/420/420 419/419/419
f 422/422/422 419/419/419 420/420/420
f 425/425/425 424/424/424 423/423/423
f 426/426/426 423/423/423 424/424/424
f 424/424/424 427/427/427 426/426/426
f 428/428/428 426/426/426 427/427/427
f 431/431/431 430/430/430 429/429/429
f 432/432/432 429/429/429 430/430/430
f 429/429/429 433/433/433 431/431/431
f 434/434/434 431/431/431 433/433/433
f 437/437/437 436/436/436 435/435/435
f 438/438/438 435/435/435 436/436/436
f 435/435/435 439/439/439 437/437/437
f 440/440/440 437/437/437 439/439/439
f 439/439/439 441/441/441 440/440/440
f 442/442/442 440/440/440 441/441/441
f 441/441/441 443/443/443 442/442/442
f 444/444/444 442/442/442 443/443/443
f 447/447/447 446/446/446 445/445/445
f 448/448/448 445/445/445 446/446/446
f 451/451/451 450/450/450 449/449/449
f 452/452/452 449/449/449 450/450/450
f 449/449/449 452/452/452 453/453/453
f 454/454/454 453/453/453 452/452/452
f 453/453/453 454/454/454 455/455/455
f 456/456/456 455/455/455 454/454/454
f 455/455/455 456/456/456 457/457/457
f 458/458/458 457/457/457 456/456/456
f 461/461/461 460/460/460 459/459/459
f 462/462/462 459/459/459 460/460/460
f 460/460/460 461/461/461 463/463/463
f 464/464/464 463/463/463 461/461/461
f 463/463/463 464/464/464 465/465/465
f 466/466/466 465/465/465 464/464/464
f 465/465/465 466/466/466 467/467/467
f 468/468/468 467/467/467 466/466/466
f 471/471/471 470/470/470 469/469/469
f 472/472/472 469/469/469 470/470/470
f 475/475/475 474/474/474 473/473/473
f 476/476/476 473/473/473 474/474/474
f 479/479/479 478/478/478 477/477/477
f 480/480/480 477/477/477 478/478/478
f 483/483/483 482/482/482 481/481/481
f 484/484/484 481/481/481 482/482/482
f 487/487/487 486/486/486 485/485/485
f 488/488/488 485/485/485 486/486/486
f 491/491/491 490/490/490 489/489/489
f 492/492/492 489/489/489 490/490/490
f 495/495/495 494/494/494 493/493/493
f 496/496/496 493/493/493 494/494/494
f 499/499/499 498/498/498 497/497/497
f 500/500/500 497/497/497 498/498/498
f 503/503/503 502/502/502 501/501/501
f 504/504/504 501/501/501 502/502/502
f 507/507/507 506/506/506 505/505/505
f 508/508/508 505/505/505 506/506/506
f 511/511/511 510/510/510 509/509/509
f 512/512/512 509/509/509 510/510/510
