g DSJ_GTA_daoJu_zaWu_01
v -0.3544901 4.849169 -0.3545023
v 0.3545023 4.849169 0.3544901
v -0.3544901 4.849169 0.3544901
v 0.3545023 4.849169 -0.3545023
v 0.2137683 2.469166 -0.2137683
v 0.2573817 0.007402927 0.2573695
v 0.2137683 2.469166 0.2137511
v 0.2573817 0.007402927 -0.2573817
v 0.2626195 2.659443 -0.2626195
v 0.2626195 2.659443 0.2626074
v 0.2626195 2.659443 0.2626074
v 0.3666144 4.647343 -0.3666144
v 0.2626195 2.659443 -0.2626195
v 0.3666144 4.647343 0.3666122
v 0.3545023 4.849169 -0.3545023
v 0.3425046 4.675825 0.3424974
v 0.3545023 4.849169 0.3544901
v 0.3424996 4.675825 -0.3424996
v -0.2137511 2.469166 -0.2137683
v 0.2573817 0.007402927 -0.2573817
v 0.2137683 2.469166 -0.2137683
v -0.2573695 0.007402927 -0.2573817
v -0.2626074 2.659443 -0.2626195
v 0.2626195 2.659443 -0.2626195
v -0.2626074 2.659443 -0.2626195
v 0.3666144 4.647343 -0.3666144
v -0.3666072 4.647343 -0.3666144
v 0.2626195 2.659443 -0.2626195
v -0.3544901 4.849169 -0.3545023
v 0.3424996 4.675825 -0.3424996
v 0.3545023 4.849169 -0.3545023
v -0.3424924 4.675825 -0.3424996
v -0.2137511 2.469166 0.2137511
v -0.2573695 0.007402927 -0.2573817
v -0.2137511 2.469166 -0.2137683
v -0.2573695 0.007402927 0.2573695
v -0.2626074 2.659443 0.2626074
v -0.2626074 2.659443 -0.2626195
v -0.2626074 2.659443 -0.2626195
v -0.3666072 4.647343 0.3666122
v -0.2626074 2.659443 0.2626074
v -0.3666072 4.647343 -0.3666144
v -0.3544901 4.849169 0.3544901
v -0.3424924 4.675825 -0.3424996
v -0.3544901 4.849169 -0.3545023
v -0.3424924 4.675825 0.3424974
v 0.2137683 2.469166 0.2137511
v -0.2573695 0.007402927 0.2573695
v -0.2137511 2.469166 0.2137511
v 0.2573817 0.007402927 0.2573695
v 0.2626195 2.659443 0.2626074
v -0.2626074 2.659443 0.2626074
v -0.2626074 2.659443 0.2626074
v 0.3666144 4.647343 0.3666122
v 0.2626195 2.659443 0.2626074
v -0.3666072 4.647343 0.3666122
v 0.3545023 4.849169 0.3544901
v -0.3424924 4.675825 0.3424974
v -0.3544901 4.849169 0.3544901
v 0.3425046 4.675825 0.3424974
v 0.3666144 4.647343 0.3666122
v 0.3424996 4.675825 -0.3424996
v 0.3666144 4.647343 -0.3666144
v 0.3425046 4.675825 0.3424974
v 0.3666144 4.647343 -0.3666144
v -0.3424924 4.675825 -0.3424996
v -0.3666072 4.647343 -0.3666144
v 0.3424996 4.675825 -0.3424996
v -0.3666072 4.647343 -0.3666144
v -0.3424924 4.675825 0.3424974
v -0.3666072 4.647343 0.3666122
v -0.3424924 4.675825 -0.3424996
v -0.3666072 4.647343 0.3666122
v 0.3425046 4.675825 0.3424974
v 0.3666144 4.647343 0.3666122
v -0.3424924 4.675825 0.3424974
vt 0.08230921 0.745472
vt 0.05606684 0.7241387
vt 0.05606684 0.745472
vt 0.08230921 0.7241387
vt 0.08381362 0.7400877
vt 0.05252638 0.6454116
vt 0.05542209 0.7400877
vt 0.08669802 0.6454116
vt 0.08639261 0.746999
vt 0.0528431 0.746999
vt 0.09582629 0.6430023
vt 0.1343528 0.7461393
vt 0.1278262 0.6429684
vt 0.08967291 0.7461959
vt 0.08232052 0.745472
vt 0.05657585 0.7404158
vt 0.05614602 0.745472
vt 0.08187938 0.7404158
vt 0.08381362 0.7400877
vt 0.05272999 0.6454116
vt 0.05560308 0.7400877
vt 0.08669802 0.6454116
vt 0.0863813 0.746999
vt 0.05304671 0.746999
vt 0.04406548 0.643828
vt 0.005731266 0.7456642
vt 0.05039985 0.7456642
vt 0.01206563 0.643828
vt 0.05614602 0.7404158
vt 0.08187938 0.745472
vt 0.08232052 0.7404158
vt 0.05657585 0.745472
vt 0.05542209 0.7400877
vt 0.08669802 0.6454116
vt 0.08381362 0.7400877
vt 0.05252638 0.6454116
vt 0.0528431 0.746999
vt 0.08639261 0.746999
vt 0.09582629 0.6430023
vt 0.1343528 0.7461393
vt 0.1278262 0.6429684
vt 0.08967291 0.7461959
vt 0.05614602 0.7404158
vt 0.08187938 0.745472
vt 0.08232052 0.7404158
vt 0.05657585 0.745472
vt 0.08363264 0.7400877
vt 0.05254901 0.6454116
vt 0.05542209 0.7400877
vt 0.08651704 0.6454116
vt 0.08620032 0.746999
vt 0.05285442 0.746999
vt 0.01206563 0.643828
vt 0.05039985 0.7456642
vt 0.04406548 0.643828
vt 0.005731266 0.7456642
vt 0.08232052 0.745472
vt 0.05657585 0.7404158
vt 0.05614602 0.745472
vt 0.08187938 0.7404158
vt 0.08967291 0.742022
vt 0.132871 0.7439562
vt 0.1343415 0.742022
vt 0.09113207 0.7439562
vt 0.005708644 0.7413093
vt 0.04890675 0.743221
vt 0.05038854 0.7413093
vt 0.007156499 0.743221
vt 0.08967291 0.742022
vt 0.132871 0.7439562
vt 0.1343415 0.742022
vt 0.09113207 0.7439562
vt 0.005708644 0.7413093
vt 0.04890675 0.743221
vt 0.05038854 0.7413093
vt 0.007156499 0.743221
vn 0.003846526 0.9999925 -0.0004882813
vn 0.003846526 0.9999925 -0.0004882813
vn 0.003846526 0.9999925 -0.0004882813
vn 0.003846526 0.9999925 -0.0004882813
vn 0.9916088 -0.1292753 0
vn 0.999843 0.01183844 -0.01318517
vn 0.9916088 -0.1292753 0
vn 0.999843 0.01183844 -0.01318517
vn 0.9894838 -0.1446435 0
vn 0.9894838 -0.1446435 0
vn 0.9894838 -0.1446435 0
vn 0.9730366 0.230651 0
vn 0.9894838 -0.1446435 0
vn 0.9730366 0.230651 0
vn 0.9972408 -0.07423527 0
vn 0.9370989 0.3490641 0
vn 0.9972408 -0.07423527 0
vn 0.9370989 0.3490641 0
vn 0.003846526 -0.1293264 -0.9915946
vn 0.003846526 0.01183844 -0.9999225
vn 0.003846526 -0.1293264 -0.9915946
vn 0.003846526 0.01183844 -0.9999225
vn 0.003846526 -0.1450114 -0.9894225
vn 0.003846526 -0.1450114 -0.9894225
vn 0.003846526 -0.1450114 -0.9894225
vn 0.003846526 0.2392707 -0.9709453
vn 0.003846526 0.2392707 -0.9709453
vn 0.003846526 -0.1450114 -0.9894225
vn 0.003846526 -0.07442898 -0.9972189
vn 0.003846526 0.3569081 -0.9341316
vn 0.003846526 -0.07442898 -0.9972189
vn 0.003846526 0.3569081 -0.9341316
vn -0.9843075 -0.1293264 -0.1200558
vn -0.9921499 0.01183844 -0.1244923
vn -0.9843075 -0.1293264 -0.1200558
vn -0.9921499 0.01183844 -0.1244923
vn -0.9843075 -0.1450114 -0.1005506
vn -0.9843075 -0.1450114 -0.1005506
vn -0.9843075 -0.1450114 -0.1005506
vn -0.9686224 0.2392707 -0.06723166
vn -0.9843075 -0.1450114 -0.1005506
vn -0.9686224 0.2392707 -0.06723166
vn -0.9921499 -0.07442898 -0.1004928
vn -0.92941 0.3569081 -0.09388135
vn -0.9921499 -0.07442898 -0.1004928
vn -0.92941 0.3569081 -0.09388135
vn 0.003846526 -0.1293264 0.9915946
vn 0.003846526 0.01183844 0.9999225
vn 0.003846526 -0.1293264 0.9915946
vn 0.003846526 0.01183844 0.9999225
vn 0.003846526 -0.1450114 0.9894225
vn 0.003846526 -0.1450114 0.9894225
vn 0.003846526 -0.1450114 0.9894225
vn 0.003846526 0.2392707 0.9709453
vn 0.003846526 -0.1450114 0.9894225
vn 0.003846526 0.2392707 0.9709453
vn 0.003846526 -0.07442898 0.9972189
vn 0.003846526 0.3569081 0.9341316
vn 0.003846526 -0.07442898 0.9972189
vn 0.003846526 0.3569081 0.9341316
vn 0.9730366 0.230651 0
vn 0.9370989 0.3490641 0
vn 0.9730366 0.230651 0
vn 0.9370989 0.3490641 0
vn 0.003846526 0.2392707 -0.9709453
vn 0.003846526 0.3569081 -0.9341316
vn 0.003846526 0.2392707 -0.9709453
vn 0.003846526 0.3569081 -0.9341316
vn -0.9686224 0.2392707 -0.06723166
vn -0.92941 0.3569081 -0.09388135
vn -0.9686224 0.2392707 -0.06723166
vn -0.92941 0.3569081 -0.09388135
vn 0.003846526 0.2392707 0.9709453
vn 0.003846526 0.3569081 0.9341316
vn 0.003846526 0.2392707 0.9709453
vn 0.003846526 0.3569081 0.9341316
g DSJ_GTA_daoJu_zaWu_01_0
f 3/3/3 2/2/2 1/1/1
f 4/4/4 1/1/1 2/2/2
f 7/7/7 6/6/6 5/5/5
f 8/8/8 5/5/5 6/6/6
f 5/5/5 9/9/9 7/7/7
f 10/10/10 7/7/7 9/9/9
f 13/13/13 12/12/12 11/11/11
f 14/14/14 11/11/11 12/12/12
f 17/17/17 16/16/16 15/15/15
f 18/18/18 15/15/15 16/16/16
f 21/21/21 20/20/20 19/19/19
f 22/22/22 19/19/19 20/20/20
f 19/19/19 23/23/23 21/21/21
f 24/24/24 21/21/21 23/23/23
f 27/27/27 26/26/26 25/25/25
f 28/28/28 25/25/25 26/26/26
f 31/31/31 30/30/30 29/29/29
f 32/32/32 29/29/29 30/30/30
f 35/35/35 34/34/34 33/33/33
f 36/36/36 33/33/33 34/34/34
f 33/33/33 37/37/37 35/35/35
f 38/38/38 35/35/35 37/37/37
f 41/41/41 40/40/40 39/39/39
f 42/42/42 39/39/39 40/40/40
f 45/45/45 44/44/44 43/43/43
f 46/46/46 43/43/43 44/44/44
f 49/49/49 48/48/48 47/47/47
f 50/50/50 47/47/47 48/48/48
f 47/47/47 51/51/51 49/49/49
f 52/52/52 49/49/49 51/51/51
f 55/55/55 54/54/54 53/53/53
f 56/56/56 53/53/53 54/54/54
f 59/59/59 58/58/58 57/57/57
f 60/60/60 57/57/57 58/58/58
f 63/63/63 62/62/62 61/61/61
f 64/64/64 61/61/61 62/62/62
f 67/67/67 66/66/66 65/65/65
f 68/68/68 65/65/65 66/66/66
f 71/71/71 70/70/70 69/69/69
f 72/72/72 69/69/69 70/70/70
f 75/75/75 74/74/74 73/73/73
f 76/76/76 73/73/73 74/74/74
