g DSJ_GTA_daoJu_huaTan_03
v -12.52796 0.3307552 -5.567198
v -6.827766 0.3307552 -5.718036
v -6.931084 0.3307552 -5.567198
v -12.6471 0.3307552 -5.718036
v -12.64713 0.3307552 5.71801
v -12.52796 0.3307552 5.567173
v -12.6471 0.026474 -5.718036
v -6.827766 0.3307552 -5.718036
v -12.6471 0.3307552 -5.718036
v -6.827766 0.026474 -5.718036
v -11.94526 1.060316 -4.869406
v -12.52799 1.067456 0.1280298
v -12.52796 1.060316 -5.567198
v -11.94526 1.067456 0.1280298
v -12.52796 1.060316 -5.567198
v -12.52799 0.2356882 0.1280298
v -12.52796 0.2356882 -5.567198
v -12.52799 1.067456 0.1280298
v -11.94526 0.2356882 -4.869406
v -11.94526 1.067456 0.1280298
v -11.94526 1.060316 -4.869406
v -11.94526 0.2356882 0.1280298
v -11.94526 0.2356882 -4.869406
v -7.529634 1.060316 -4.869406
v -7.529634 0.2356882 -4.869406
v -11.94526 1.060316 -4.869406
v -6.931107 1.067456 0.1245079
v -7.529634 1.060316 -4.869406
v -6.931084 1.060316 -5.567198
v -7.529659 1.067456 0.6211176
v -6.931107 0.2356882 0.1245079
v -6.931084 1.060316 -5.567198
v -6.931084 0.2356882 -5.567198
v -6.931107 1.067456 0.1245079
v -7.529659 1.067456 0.6211176
v -7.529634 0.2356882 -4.869406
v -7.529634 1.060316 -4.869406
v -7.529659 0.2356882 0.6211176
v -12.52796 1.060316 -5.567198
v -7.529634 1.060316 -4.869406
v -11.94526 1.060316 -4.869406
v -6.931084 1.060316 -5.567198
v -12.52796 0.2356882 -5.567198
v -6.931084 1.060316 -5.567198
v -12.52796 1.060316 -5.567198
v -6.931084 0.2356882 -5.567198
v -12.64713 0.3307552 5.71801
v -12.6471 0.026474 -5.718036
v -12.6471 0.3307552 -5.718036
v -12.64713 0.026474 5.71801
v -6.827766 0.3307552 -5.718036
v -6.827766 0.026474 0.0411644
v -6.827766 0.3307552 0.0411644
v -6.827766 0.026474 -5.718036
v -6.931084 0.3307552 -5.567198
v -6.827766 0.3307552 0.0411644
v -6.931107 0.3307552 0.1245079
v -6.827766 0.3307552 -5.718036
v -6.931107 0.2530804 0.1245079
v -12.52796 0.2530804 -5.567198
v -6.931084 0.2530804 -5.567198
v -12.52799 0.2530804 0.1280298
v 1.239777E-05 0.3307552 5.71801
v -12.52796 0.3307552 5.567173
v 1.239777E-05 0.3307552 5.567173
v -12.64713 0.3307552 5.71801
v 1.239777E-05 0.026474 5.71801
v -12.64713 0.3307552 5.71801
v 1.239777E-05 0.3307552 5.71801
v -12.64713 0.026474 5.71801
v -11.94528 1.060316 4.869356
v -12.52799 1.067456 0.1280298
v -11.94526 1.067456 0.1280298
v -12.52796 1.060316 5.567173
v -12.52796 1.060316 5.567173
v -12.52799 0.2356882 0.1280298
v -12.52799 1.067456 0.1280298
v -12.52796 0.2356882 5.567173
v -11.94528 0.2356882 4.869356
v -11.94526 1.067456 0.1280298
v -11.94526 0.2356882 0.1280298
v -11.94528 1.060316 4.869356
v -6.931107 1.060316 4.869356
v -11.94528 0.2356882 4.869356
v -6.931107 0.2356882 4.869356
v -11.94528 1.060316 4.869356
v -6.931107 1.060316 4.869356
v -12.52796 1.060316 5.567173
v -11.94528 1.060316 4.869356
v -6.931107 1.060316 5.567173
v -6.931107 0.2356882 5.567173
v -12.52796 1.060316 5.567173
v -6.931107 1.060316 5.567173
v -12.52796 0.2356882 5.567173
v -12.52796 0.2530804 5.567173
v -6.931107 0.2530804 0.1245079
v -6.931107 0.2530804 5.567173
v -12.52799 0.2530804 0.1280298
v -6.931107 0.2530804 0.1245079
v 1.239777E-05 0.2530804 5.567173
v -6.931107 0.2530804 5.567173
v 1.239777E-05 0.2530804 0.1244831
v -6.827766 0.026474 0.0411644
v 1.239777E-05 0.3307552 0.0411644
v -6.827766 0.3307552 0.0411644
v 1.239777E-05 0.026474 0.0411644
v -6.827766 0.3307552 0.0411644
v 1.239777E-05 0.3307552 0.1244831
v -6.931107 0.3307552 0.1245079
v 1.239777E-05 0.3307552 0.0411644
v -7.529659 1.067456 0.6211176
v 1.239777E-05 0.2356882 0.6211176
v -7.529659 0.2356882 0.6211176
v 1.239777E-05 1.067456 0.6211176
v -6.931107 1.067456 0.1245079
v 1.239777E-05 1.067456 0.6211176
v -7.529659 1.067456 0.6211176
v 1.239777E-05 1.067456 0.1244831
v -6.931107 1.060316 4.869356
v 1.239777E-05 1.060316 5.567173
v -6.931107 1.060316 5.567173
v 1.239777E-05 1.060316 4.869356
v -6.931107 0.2356882 0.1245079
v 1.239777E-05 1.067456 0.1244831
v -6.931107 1.067456 0.1245079
v 1.239777E-05 0.2356882 0.1244831
v -6.931107 1.060316 5.567173
v 1.239777E-05 0.2356882 5.567173
v -6.931107 0.2356882 5.567173
v 1.239777E-05 1.060316 5.567173
v -6.931107 0.2356882 4.869356
v 1.239777E-05 1.060316 4.869356
v -6.931107 1.060316 4.869356
v 1.239777E-05 0.2356882 4.869356
v 12.52801 0.3307552 -5.567198
v 6.827816 0.3307552 -5.718036
v 12.64713 0.3307552 -5.718036
v 6.931157 0.3307552 -5.567198
v 12.64713 0.3307552 5.71801
v 12.52801 0.3307552 5.567173
v 12.64713 0.026474 -5.718036
v 6.827816 0.3307552 -5.718036
v 6.827816 0.026474 -5.718036
v 12.64713 0.3307552 -5.718036
v 11.94531 1.060316 -4.869406
v 12.52804 1.067456 0.1280298
v 11.94531 1.067456 0.1280298
v 12.52801 1.060316 -5.567198
v 12.52801 1.060316 -5.567198
v 12.52804 0.2356882 0.1280298
v 12.52804 1.067456 0.1280298
v 12.52801 0.2356882 -5.567198
v 11.94531 0.2356882 -4.869406
v 11.94531 1.067456 0.1280298
v 11.94531 0.2356882 0.1280298
v 11.94531 1.060316 -4.869406
v 11.94531 0.2356882 -4.869406
v 7.52966 1.060316 -4.869406
v 11.94531 1.060316 -4.869406
v 7.52966 0.2356882 -4.869406
v 6.93118 1.067456 0.1245079
v 7.52966 1.060316 -4.869406
v 7.529684 1.067456 0.6211176
v 6.931157 1.060316 -5.567198
v 6.93118 0.2356882 0.1245079
v 6.931157 1.060316 -5.567198
v 6.93118 1.067456 0.1245079
v 6.931157 0.2356882 -5.567198
v 7.529684 1.067456 0.6211176
v 7.52966 0.2356882 -4.869406
v 7.529684 0.2356882 0.6211176
v 7.52966 1.060316 -4.869406
v 12.52801 1.060316 -5.567198
v 7.52966 1.060316 -4.869406
v 6.931157 1.060316 -5.567198
v 11.94531 1.060316 -4.869406
v 12.52801 0.2356882 -5.567198
v 6.931157 1.060316 -5.567198
v 6.931157 0.2356882 -5.567198
v 12.52801 1.060316 -5.567198
v 12.64713 0.026474 -5.718036
v 12.64713 0.3307552 5.71801
v 12.64713 0.3307552 -5.718036
v 12.64713 0.026474 5.71801
v 6.827816 0.3307552 -5.718036
v 6.827816 0.026474 0.0411644
v 6.827816 0.026474 -5.718036
v 6.827816 0.3307552 0.0411644
v 6.931157 0.3307552 -5.567198
v 6.827816 0.3307552 0.0411644
v 6.827816 0.3307552 -5.718036
v 6.93118 0.3307552 0.1245079
v 6.93118 0.2530804 0.1245079
v 12.52801 0.2530804 -5.567198
v 12.52804 0.2530804 0.1280298
v 6.931157 0.2530804 -5.567198
v 12.52801 0.3307552 5.567173
v 1.239777E-05 0.3307552 5.71801
v 1.239777E-05 0.3307552 5.567173
v 12.64713 0.3307552 5.71801
v 12.64713 0.026474 5.71801
v 1.239777E-05 0.3307552 5.71801
v 12.64713 0.3307552 5.71801
v 1.239777E-05 0.026474 5.71801
v 11.94531 1.060316 4.869356
v 12.52804 1.067456 0.1280298
v 12.52801 1.060316 5.567173
v 11.94531 1.067456 0.1280298
v 12.52801 1.060316 5.567173
v 12.52804 0.2356882 0.1280298
v 12.52801 0.2356882 5.567173
v 12.52804 1.067456 0.1280298
v 11.94531 0.2356882 4.869356
v 11.94531 1.067456 0.1280298
v 11.94531 1.060316 4.869356
v 11.94531 0.2356882 0.1280298
v 6.93118 1.060316 4.869356
v 11.94531 0.2356882 4.869356
v 11.94531 1.060316 4.869356
v 6.93118 0.2356882 4.869356
v 6.93118 1.060316 4.869356
v 12.52801 1.060316 5.567173
v 6.93118 1.060316 5.567173
v 11.94531 1.060316 4.869356
v 6.93118 0.2356882 5.567173
v 12.52801 1.060316 5.567173
v 12.52801 0.2356882 5.567173
v 6.93118 1.060316 5.567173
v 12.52801 0.2530804 5.567173
v 6.93118 0.2530804 0.1245079
v 12.52804 0.2530804 0.1280298
v 6.93118 0.2530804 5.567173
v 6.93118 0.2530804 0.1245079
v 1.239777E-05 0.2530804 5.567173
v 1.239777E-05 0.2530804 0.1244831
v 6.93118 0.2530804 5.567173
v 6.827816 0.026474 0.0411644
v 1.239777E-05 0.3307552 0.0411644
v 1.239777E-05 0.026474 0.0411644
v 6.827816 0.3307552 0.0411644
v 6.827816 0.3307552 0.0411644
v 1.239777E-05 0.3307552 0.1244831
v 1.239777E-05 0.3307552 0.0411644
v 6.93118 0.3307552 0.1245079
v 7.529684 1.067456 0.6211176
v 1.239777E-05 0.2356882 0.6211176
v 1.239777E-05 1.067456 0.6211176
v 7.529684 0.2356882 0.6211176
v 6.93118 1.067456 0.1245079
v 1.239777E-05 1.067456 0.6211176
v 1.239777E-05 1.067456 0.1244831
v 7.529684 1.067456 0.6211176
v 6.93118 1.060316 4.869356
v 1.239777E-05 1.060316 5.567173
v 1.239777E-05 1.060316 4.869356
v 6.93118 1.060316 5.567173
v 6.93118 0.2356882 0.1245079
v 1.239777E-05 1.067456 0.1244831
v 1.239777E-05 0.2356882 0.1244831
v 6.93118 1.067456 0.1245079
v 6.93118 1.060316 5.567173
v 1.239777E-05 0.2356882 5.567173
v 1.239777E-05 1.060316 5.567173
v 6.93118 0.2356882 5.567173
v 6.93118 0.2356882 4.869356
v 1.239777E-05 1.060316 4.869356
v 1.239777E-05 0.2356882 4.869356
v 6.93118 1.060316 4.869356
vt 0.0206592 0.01741964
vt 0.01574041 0.01741964
vt 0.0206592 0.01741964
vt 0.01574041 0.01741964
vt 0.01574041 0.01741964
vt 0.0206592 0.01741964
vt 0.02810427 0.01741964
vt 0.0206592 0.01741964
vt 0.0206592 0.01741964
vt 0.02810427 0.01741964
vt 0.4826544 0.5106068
vt 0.2357933 0.4736044
vt 0.4826544 0.4736044
vt 0.2357933 0.5106068
vt 0.4826544 0.4736044
vt 0.2357933 0.4245353
vt 0.4826544 0.4245353
vt 0.2357933 0.4736044
vt 0.4826544 0.4245353
vt 0.2357933 0.4736044
vt 0.4826544 0.4736044
vt 0.2357933 0.4245353
vt 0.4826544 0.4245353
vt 0.2388248 0.4736044
vt 0.2388248 0.4245353
vt 0.4826544 0.4736044
vt 0.2357933 0.4736044
vt 0.4826544 0.5106068
vt 0.4826544 0.4736044
vt 0.2357933 0.5106068
vt 0.2357933 0.4245353
vt 0.4826544 0.4736044
vt 0.4826544 0.4245353
vt 0.2357933 0.4736044
vt 0.2357933 0.4736044
vt 0.4826544 0.4245353
vt 0.4826544 0.4736044
vt 0.2357933 0.4245353
vt 0.4826544 0.4736044
vt 0.2388248 0.5106068
vt 0.4826544 0.5106068
vt 0.2388248 0.4736044
vt 0.4826544 0.4245353
vt 0.2388248 0.4736044
vt 0.4826544 0.4736044
vt 0.2388248 0.4245353
vt 0.0206592 0.01741964
vt 0.02810427 0.01741964
vt 0.0206592 0.01741964
vt 0.02810427 0.01741964
vt 0.0206592 0.01741964
vt 0.02810427 0.2600603
vt 0.0206592 0.2600603
vt 0.02810427 0.01741964
vt 0.0206592 0.01741964
vt 0.01574041 0.2600603
vt 0.0206592 0.2600603
vt 0.01574041 0.01741964
vt 0.9873434 0.2595848
vt 0.7428898 0.01455158
vt 0.9873434 0.01455158
vt 0.7428898 0.2594213
vt 0.01574041 0.2600603
vt 0.0206592 0.01741964
vt 0.0206592 0.2600603
vt 0.01574041 0.01741964
vt 0.02810427 0.2600603
vt 0.0206592 0.01741964
vt 0.0206592 0.2600603
vt 0.02810427 0.01741964
vt 0.4826544 0.5106068
vt 0.2357933 0.4736044
vt 0.2357933 0.5106068
vt 0.4826544 0.4736044
vt 0.4826544 0.4736044
vt 0.2357933 0.4245353
vt 0.2357933 0.4736044
vt 0.4826544 0.4245353
vt 0.4826544 0.4245353
vt 0.2357933 0.4736044
vt 0.2357933 0.4245353
vt 0.4826544 0.4736044
vt 0.2388248 0.4736044
vt 0.4826544 0.4245353
vt 0.2388248 0.4245353
vt 0.4826544 0.4736044
vt 0.2388248 0.5106068
vt 0.4826544 0.4736044
vt 0.4826544 0.5106068
vt 0.2388248 0.4736044
vt 0.2388248 0.4245353
vt 0.4826544 0.4736044
vt 0.2388248 0.4736044
vt 0.4826544 0.4245353
vt 0.9873434 0.01455158
vt 0.7428898 0.2595848
vt 0.7428898 0.01455158
vt 0.9873434 0.2597185
vt 0.7483138 0.2595848
vt 0.9884282 0.01455158
vt 0.7483138 0.01455158
vt 0.9884282 0.2595848
vt 0.02810427 0.2600603
vt 0.0206592 0.01741964
vt 0.0206592 0.2600603
vt 0.02810427 0.01741964
vt 0.01574041 0.2600603
vt 0.0206592 0.01741964
vt 0.0206592 0.2600603
vt 0.01574041 0.01741964
vt 0.2357933 0.4736044
vt 0.4826544 0.4245353
vt 0.2357933 0.4245353
vt 0.4826544 0.4736044
vt 0.2357933 0.4736044
vt 0.4826544 0.5106068
vt 0.2357933 0.5106068
vt 0.4826544 0.4736044
vt 0.4826544 0.5106068
vt 0.2357933 0.4736044
vt 0.4826544 0.4736044
vt 0.2357933 0.5106068
vt 0.2357933 0.4245353
vt 0.4826544 0.4736044
vt 0.2357933 0.4736044
vt 0.4826544 0.4245353
vt 0.4826544 0.4736044
vt 0.2357933 0.4245353
vt 0.4826544 0.4245353
vt 0.2357933 0.4736044
vt 0.4826544 0.4245353
vt 0.2357933 0.4736044
vt 0.4826544 0.4736044
vt 0.2357933 0.4245353
vt 0.0206592 0.01741964
vt 0.01574041 0.01741964
vt 0.01574041 0.01741964
vt 0.0206592 0.01741964
vt 0.01574041 0.01741964
vt 0.0206592 0.01741964
vt 0.02810427 0.01741964
vt 0.0206592 0.01741964
vt 0.02810427 0.01741964
vt 0.0206592 0.01741964
vt 0.4826544 0.5106068
vt 0.2357933 0.4736044
vt 0.2357933 0.5106068
vt 0.4826544 0.4736044
vt 0.4826544 0.4736044
vt 0.2357933 0.4245353
vt 0.2357933 0.4736044
vt 0.4826544 0.4245353
vt 0.4826544 0.4245353
vt 0.2357933 0.4736044
vt 0.2357933 0.4245353
vt 0.4826544 0.4736044
vt 0.4826544 0.4245353
vt 0.2388248 0.4736044
vt 0.4826544 0.4736044
vt 0.2388248 0.4245353
vt 0.2357933 0.4736044
vt 0.4826544 0.5106068
vt 0.2357933 0.5106068
vt 0.4826544 0.4736044
vt 0.2357933 0.4245353
vt 0.4826544 0.4736044
vt 0.2357933 0.4736044
vt 0.4826544 0.4245353
vt 0.2357933 0.4736044
vt 0.4826544 0.4245353
vt 0.2357933 0.4245353
vt 0.4826544 0.4736044
vt 0.4826544 0.4736044
vt 0.2388248 0.5106068
vt 0.2388248 0.4736044
vt 0.4826544 0.5106068
vt 0.4826544 0.4245353
vt 0.2388248 0.4736044
vt 0.2388248 0.4245353
vt 0.4826544 0.4736044
vt 0.02810427 0.01741964
vt 0.0206592 0.01741964
vt 0.0206592 0.01741964
vt 0.02810427 0.01741964
vt 0.0206592 0.01741964
vt 0.02810427 0.2600603
vt 0.02810427 0.01741964
vt 0.0206592 0.2600603
vt 0.0206592 0.01741964
vt 0.01574041 0.2600603
vt 0.01574041 0.01741964
vt 0.0206592 0.2600603
vt 0.9873434 0.2595848
vt 0.7428898 0.01455158
vt 0.7428898 0.2594213
vt 0.9873434 0.01455158
vt 0.0206592 0.01741964
vt 0.01574041 0.2600603
vt 0.0206592 0.2600603
vt 0.01574041 0.01741964
vt 0.02810427 0.01741964
vt 0.0206592 0.2600603
vt 0.0206592 0.01741964
vt 0.02810427 0.2600603
vt 0.4826544 0.5106068
vt 0.2357933 0.4736044
vt 0.4826544 0.4736044
vt 0.2357933 0.5106068
vt 0.4826544 0.4736044
vt 0.2357933 0.4245353
vt 0.4826544 0.4245353
vt 0.2357933 0.4736044
vt 0.4826544 0.4245353
vt 0.2357933 0.4736044
vt 0.4826544 0.4736044
vt 0.2357933 0.4245353
vt 0.2388248 0.4736044
vt 0.4826544 0.4245353
vt 0.4826544 0.4736044
vt 0.2388248 0.4245353
vt 0.2388248 0.5106068
vt 0.4826544 0.4736044
vt 0.2388248 0.4736044
vt 0.4826544 0.5106068
vt 0.2388248 0.4245353
vt 0.4826544 0.4736044
vt 0.4826544 0.4245353
vt 0.2388248 0.4736044
vt 0.9873434 0.01455158
vt 0.7428898 0.2595848
vt 0.9873434 0.2597185
vt 0.7428898 0.01455158
vt 0.7483138 0.2595848
vt 0.9884282 0.01455158
vt 0.9884282 0.2595848
vt 0.7483138 0.01455158
vt 0.02810427 0.2600603
vt 0.0206592 0.01741964
vt 0.02810427 0.01741964
vt 0.0206592 0.2600603
vt 0.01574041 0.2600603
vt 0.0206592 0.01741964
vt 0.01574041 0.01741964
vt 0.0206592 0.2600603
vt 0.2357933 0.4736044
vt 0.4826544 0.4245353
vt 0.4826544 0.4736044
vt 0.2357933 0.4245353
vt 0.2357933 0.4736044
vt 0.4826544 0.5106068
vt 0.4826544 0.4736044
vt 0.2357933 0.5106068
vt 0.4826544 0.5106068
vt 0.2357933 0.4736044
vt 0.2357933 0.5106068
vt 0.4826544 0.4736044
vt 0.2357933 0.4245353
vt 0.4826544 0.4736044
vt 0.4826544 0.4245353
vt 0.2357933 0.4736044
vt 0.4826544 0.4736044
vt 0.2357933 0.4245353
vt 0.2357933 0.4736044
vt 0.4826544 0.4245353
vt 0.4826544 0.4245353
vt 0.2357933 0.4736044
vt 0.2357933 0.4245353
vt 0.4826544 0.4736044
vn 0.003921568 0.9999923 -0.000345267
vn 0.003921568 0.9999923 -0.000345267
vn 0.003921568 0.9999923 -0.000345267
vn 0.003921568 0.9999923 -0.000345267
vn 0.003921568 0.9999923 -0.000345267
vn 0.003921568 0.9999923 -0.000345267
vn 0.01176465 -0.01176465 -0.9998616
vn 0.01176465 -0.01176465 -0.9998616
vn 0.01176465 -0.01176465 -0.9998616
vn 0.01176465 -0.01176465 -0.9998616
vn 0.01176465 0.9921492 -0.124505
vn 0.003921568 0.9999923 -0.000345267
vn 0.01176465 0.9921492 -0.124505
vn 0.003921568 0.9999923 -0.000345267
vn -0.9999923 -0.003921568 -0.0003442513
vn -0.9999923 -0.003921568 -0.0003442513
vn -0.9999923 -0.003921568 -0.0003442513
vn -0.9999923 -0.003921568 -0.0003442513
vn 0.9999924 -0.003921568 0
vn 0.9999924 -0.003921568 0
vn 0.9999924 -0.003921568 0
vn 0.9999924 -0.003921568 0
vn 0.01176465 -0.01176465 0.9998616
vn 0.01176465 -0.01176465 0.9998616
vn 0.01176465 -0.01176465 0.9998616
vn 0.01176465 -0.01176465 0.9998616
vn 0.01176465 0.9921492 -0.124505
vn 0.01176465 0.9921492 -0.124505
vn 0.01176465 0.9921492 -0.124505
vn 0.01176465 0.9921492 -0.124505
vn 0.9999924 -0.003921568 0
vn 0.9999924 -0.003921568 0
vn 0.9999924 -0.003921568 0
vn 0.9999924 -0.003921568 0
vn -0.9999923 -0.003921568 -0.0003442513
vn -0.9999923 -0.003921568 -0.0003442513
vn -0.9999923 -0.003921568 -0.0003442513
vn -0.9999923 -0.003921568 -0.0003442513
vn 0.01176465 0.9921492 -0.124505
vn 0.01176465 0.9921492 -0.124505
vn 0.01176465 0.9921492 -0.124505
vn 0.01176465 0.9921492 -0.124505
vn 0.01176465 -0.01176465 -0.9998616
vn 0.01176465 -0.01176465 -0.9998616
vn 0.01176465 -0.01176465 -0.9998616
vn 0.01176465 -0.01176465 -0.9998616
vn -0.9999923 -0.003921568 -0.0003442513
vn -0.9999923 -0.003921568 -0.0003442513
vn -0.9999923 -0.003921568 -0.0003442513
vn -0.9999923 -0.003921568 -0.0003442513
vn 0.9999924 -0.003921568 0
vn 0.9999924 -0.003921568 0
vn 0.9999924 -0.003921568 0
vn 0.9999924 -0.003921568 0
vn 0.003921568 0.9999923 -0.000345267
vn 0.003921568 0.9999923 -0.000345267
vn 0.003921568 0.9999923 -0.000345267
vn 0.003921568 0.9999923 -0.000345267
vn 0.003921568 0.9999923 -0.000345267
vn 0.003921568 0.9999923 -0.000345267
vn 0.003921568 0.9999923 -0.000345267
vn 0.003921568 0.9999923 -0.000345267
vn 0.003921568 0.9999923 -0.000345267
vn 0.003921568 0.9999923 -0.000345267
vn 0.003921568 0.9999923 -0.000345267
vn 0.003921568 0.9999923 -0.000345267
vn 0.01176465 -0.01176465 0.9998616
vn 0.01176465 -0.01176465 0.9998616
vn 0.01176465 -0.01176465 0.9998616
vn 0.01176465 -0.01176465 0.9998616
vn 0.01176465 0.9921492 0.124505
vn 0.003921568 0.9999923 -0.000345267
vn 0.003921568 0.9999923 -0.000345267
vn 0.01176465 0.9921492 0.124505
vn -0.9999923 -0.003921568 -0.0003442513
vn -0.9999923 -0.003921568 -0.0003442513
vn -0.9999923 -0.003921568 -0.0003442513
vn -0.9999923 -0.003921568 -0.0003442513
vn 0.9999924 -0.003921568 0
vn 0.9999924 -0.003921568 0
vn 0.9999924 -0.003921568 0
vn 0.9999924 -0.003921568 0
vn 0.01176465 -0.01176465 -0.9998616
vn 0.01176465 -0.01176465 -0.9998616
vn 0.01176465 -0.01176465 -0.9998616
vn 0.01176465 -0.01176465 -0.9998616
vn 0.003921568 0.9999923 -0.000345267
vn 0.01176465 0.9921492 0.124505
vn 0.01176465 0.9921492 0.124505
vn 0.003921568 0.9999923 -0.000345267
vn 0.01176465 -0.01176465 0.9998616
vn 0.01176465 -0.01176465 0.9998616
vn 0.01176465 -0.01176465 0.9998616
vn 0.01176465 -0.01176465 0.9998616
vn 0.003921568 0.9999923 -0.000345267
vn 0.003921568 0.9999923 -0.000345267
vn 0.003921568 0.9999923 -0.000345267
vn 0.003921568 0.9999923 -0.000345267
vn 0.003921568 0.9999923 -0.000345267
vn 0.003921568 0.9999923 -0.000345267
vn 0.003921568 0.9999923 -0.000345267
vn 0.003921568 0.9999923 -0.000345267
vn 0.01176465 -0.01176465 -0.9998616
vn 0.01176465 -0.01176465 -0.9998616
vn 0.01176465 -0.01176465 -0.9998616
vn 0.01176465 -0.01176465 -0.9998616
vn 0.003921568 0.9999923 -0.000345267
vn 0.003921568 0.9999923 -0.000345267
vn 0.003921568 0.9999923 -0.000345267
vn 0.003921568 0.9999923 -0.000345267
vn 0.01176465 -0.01176465 0.9998616
vn 0.01176465 -0.01176465 0.9998616
vn 0.01176465 -0.01176465 0.9998616
vn 0.01176465 -0.01176465 0.9998616
vn 0.01176465 0.9921492 -0.124505
vn 0.003921568 0.9999923 -0.000345267
vn 0.01176465 0.9921492 -0.124505
vn 0.003921568 0.9999923 -0.000345267
vn 0.003921568 0.9999923 -0.000345267
vn 0.003921568 0.9999923 -0.000345267
vn 0.003921568 0.9999923 -0.000345267
vn 0.003921568 0.9999923 -0.000345267
vn 0.01176465 -0.01176465 -0.9998616
vn 0.01176465 -0.01176465 -0.9998616
vn 0.01176465 -0.01176465 -0.9998616
vn 0.01176465 -0.01176465 -0.9998616
vn 0.01176465 -0.01176465 0.9998616
vn 0.01176465 -0.01176465 0.9998616
vn 0.01176465 -0.01176465 0.9998616
vn 0.01176465 -0.01176465 0.9998616
vn 0.01176465 -0.01176465 -0.9998616
vn 0.01176465 -0.01176465 -0.9998616
vn 0.01176465 -0.01176465 -0.9998616
vn 0.01176465 -0.01176465 -0.9998616
vn 0.003921568 0.9999923 -0.000345267
vn 0.003921568 0.9999923 -0.000345267
vn 0.003921568 0.9999923 -0.000345267
vn 0.003921568 0.9999923 -0.000345267
vn 0.003921568 0.9999923 -0.000345267
vn 0.003921568 0.9999923 -0.000345267
vn 0.01176465 -0.01176465 -0.9998616
vn 0.01176465 -0.01176465 -0.9998616
vn 0.01176465 -0.01176465 -0.9998616
vn 0.01176465 -0.01176465 -0.9998616
vn 0.01176465 0.9921492 -0.124505
vn 0.003921568 0.9999923 -0.000345267
vn 0.003921568 0.9999923 -0.000345267
vn 0.01176465 0.9921492 -0.124505
vn 0.9999924 -0.003921568 0
vn 0.9999924 -0.003921568 0
vn 0.9999924 -0.003921568 0
vn 0.9999924 -0.003921568 0
vn -0.9999923 -0.003921568 -0.0003442513
vn -0.9999923 -0.003921568 -0.0003442513
vn -0.9999923 -0.003921568 -0.0003442513
vn -0.9999923 -0.003921568 -0.0003442513
vn 0.01176465 -0.01176465 0.9998616
vn 0.01176465 -0.01176465 0.9998616
vn 0.01176465 -0.01176465 0.9998616
vn 0.01176465 -0.01176465 0.9998616
vn 0.01176465 0.9921492 -0.124505
vn 0.01176465 0.9921492 -0.124505
vn 0.01176465 0.9921492 -0.124505
vn 0.01176465 0.9921492 -0.124505
vn -0.9999923 -0.003921568 -0.0003442513
vn -0.9999923 -0.003921568 -0.0003442513
vn -0.9999923 -0.003921568 -0.0003442513
vn -0.9999923 -0.003921568 -0.0003442513
vn 0.9999924 -0.003921568 0
vn 0.9999924 -0.003921568 0
vn 0.9999924 -0.003921568 0
vn 0.9999924 -0.003921568 0
vn 0.01176465 0.9921492 -0.124505
vn 0.01176465 0.9921492 -0.124505
vn 0.01176465 0.9921492 -0.124505
vn 0.01176465 0.9921492 -0.124505
vn 0.01176465 -0.01176465 -0.9998616
vn 0.01176465 -0.01176465 -0.9998616
vn 0.01176465 -0.01176465 -0.9998616
vn 0.01176465 -0.01176465 -0.9998616
vn 0.9999924 -0.003921568 0
vn 0.9999924 -0.003921568 0
vn 0.9999924 -0.003921568 0
vn 0.9999924 -0.003921568 0
vn -0.9999923 -0.003921568 -0.0003442513
vn -0.9999923 -0.003921568 -0.0003442513
vn -0.9999923 -0.003921568 -0.0003442513
vn -0.9999923 -0.003921568 -0.0003442513
vn 0.003921568 0.9999923 -0.000345267
vn 0.003921568 0.9999923 -0.000345267
vn 0.003921568 0.9999923 -0.000345267
vn 0.003921568 0.9999923 -0.000345267
vn 0.003921568 0.9999923 -0.000345267
vn 0.003921568 0.9999923 -0.000345267
vn 0.003921568 0.9999923 -0.000345267
vn 0.003921568 0.9999923 -0.000345267
vn 0.003921568 0.9999923 -0.000345267
vn 0.003921568 0.9999923 -0.000345267
vn 0.003921568 0.9999923 -0.000345267
vn 0.003921568 0.9999923 -0.000345267
vn 0.01176465 -0.01176465 0.9998616
vn 0.01176465 -0.01176465 0.9998616
vn 0.01176465 -0.01176465 0.9998616
vn 0.01176465 -0.01176465 0.9998616
vn 0.01176465 0.9921492 0.124505
vn 0.003921568 0.9999923 -0.000345267
vn 0.01176465 0.9921492 0.124505
vn 0.003921568 0.9999923 -0.000345267
vn 0.9999924 -0.003921568 0
vn 0.9999924 -0.003921568 0
vn 0.9999924 -0.003921568 0
vn 0.9999924 -0.003921568 0
vn -0.9999923 -0.003921568 -0.0003442513
vn -0.9999923 -0.003921568 -0.0003442513
vn -0.9999923 -0.003921568 -0.0003442513
vn -0.9999923 -0.003921568 -0.0003442513
vn 0.01176465 -0.01176465 -0.9998616
vn 0.01176465 -0.01176465 -0.9998616
vn 0.01176465 -0.01176465 -0.9998616
vn 0.01176465 -0.01176465 -0.9998616
vn 0.003921568 0.9999923 -0.000345267
vn 0.01176465 0.9921492 0.124505
vn 0.003921568 0.9999923 -0.000345267
vn 0.01176465 0.9921492 0.124505
vn 0.01176465 -0.01176465 0.9998616
vn 0.01176465 -0.01176465 0.9998616
vn 0.01176465 -0.01176465 0.9998616
vn 0.01176465 -0.01176465 0.9998616
vn 0.003921568 0.9999923 -0.000345267
vn 0.003921568 0.9999923 -0.000345267
vn 0.003921568 0.9999923 -0.000345267
vn 0.003921568 0.9999923 -0.000345267
vn 0.003921568 0.9999923 -0.000345267
vn 0.003921568 0.9999923 -0.000345267
vn 0.003921568 0.9999923 -0.000345267
vn 0.003921568 0.9999923 -0.000345267
vn 0.01176465 -0.01176465 -0.9998616
vn 0.01176465 -0.01176465 -0.9998616
vn 0.01176465 -0.01176465 -0.9998616
vn 0.01176465 -0.01176465 -0.9998616
vn 0.003921568 0.9999923 -0.000345267
vn 0.003921568 0.9999923 -0.000345267
vn 0.003921568 0.9999923 -0.000345267
vn 0.003921568 0.9999923 -0.000345267
vn 0.01176465 -0.01176465 0.9998616
vn 0.01176465 -0.01176465 0.9998616
vn 0.01176465 -0.01176465 0.9998616
vn 0.01176465 -0.01176465 0.9998616
vn 0.01176465 0.9921492 -0.124505
vn 0.003921568 0.9999923 -0.000345267
vn 0.003921568 0.9999923 -0.000345267
vn 0.01176465 0.9921492 -0.124505
vn 0.003921568 0.9999923 -0.000345267
vn 0.003921568 0.9999923 -0.000345267
vn 0.003921568 0.9999923 -0.000345267
vn 0.003921568 0.9999923 -0.000345267
vn 0.01176465 -0.01176465 -0.9998616
vn 0.01176465 -0.01176465 -0.9998616
vn 0.01176465 -0.01176465 -0.9998616
vn 0.01176465 -0.01176465 -0.9998616
vn 0.01176465 -0.01176465 0.9998616
vn 0.01176465 -0.01176465 0.9998616
vn 0.01176465 -0.01176465 0.9998616
vn 0.01176465 -0.01176465 0.9998616
vn 0.01176465 -0.01176465 -0.9998616
vn 0.01176465 -0.01176465 -0.9998616
vn 0.01176465 -0.01176465 -0.9998616
vn 0.01176465 -0.01176465 -0.9998616
g DSJ_GTA_daoJu_huaTan_03_0
f 3/3/3 2/2/2 1/1/1
f 4/4/4 1/1/1 2/2/2
f 4/4/4 5/5/5 1/1/1
f 6/6/6 1/1/1 5/5/5
f 9/9/9 8/8/8 7/7/7
f 10/10/10 7/7/7 8/8/8
f 13/13/13 12/12/12 11/11/11
f 14/14/14 11/11/11 12/12/12
f 17/17/17 16/16/16 15/15/15
f 18/18/18 15/15/15 16/16/16
f 21/21/21 20/20/20 19/19/19
f 22/22/22 19/19/19 20/20/20
f 25/25/25 24/24/24 23/23/23
f 26/26/26 23/23/23 24/24/24
f 29/29/29 28/28/28 27/27/27
f 30/30/30 27/27/27 28/28/28
f 33/33/33 32/32/32 31/31/31
f 34/34/34 31/31/31 32/32/32
f 37/37/37 36/36/36 35/35/35
f 38/38/38 35/35/35 36/36/36
f 41/41/41 40/40/40 39/39/39
f 42/42/42 39/39/39 40/40/40
f 45/45/45 44/44/44 43/43/43
f 46/46/46 43/43/43 44/44/44
f 49/49/49 48/48/48 47/47/47
f 50/50/50 47/47/47 48/48/48
f 53/53/53 52/52/52 51/51/51
f 54/54/54 51/51/51 52/52/52
f 57/57/57 56/56/56 55/55/55
f 58/58/58 55/55/55 56/56/56
f 61/61/61 60/60/60 59/59/59
f 62/62/62 59/59/59 60/60/60
f 65/65/65 64/64/64 63/63/63
f 66/66/66 63/63/63 64/64/64
f 69/69/69 68/68/68 67/67/67
f 70/70/70 67/67/67 68/68/68
f 73/73/73 72/72/72 71/71/71
f 74/74/74 71/71/71 72/72/72
f 77/77/77 76/76/76 75/75/75
f 78/78/78 75/75/75 76/76/76
f 81/81/81 80/80/80 79/79/79
f 82/82/82 79/79/79 80/80/80
f 85/85/85 84/84/84 83/83/83
f 86/86/86 83/83/83 84/84/84
f 89/89/89 88/88/88 87/87/87
f 90/90/90 87/87/87 88/88/88
f 93/93/93 92/92/92 91/91/91
f 94/94/94 91/91/91 92/92/92
f 97/97/97 96/96/96 95/95/95
f 98/98/98 95/95/95 96/96/96
f 101/101/101 100/100/100 99/99/99
f 102/102/102 99/99/99 100/100/100
f 105/105/105 104/104/104 103/103/103
f 106/106/106 103/103/103 104/104/104
f 109/109/109 108/108/108 107/107/107
f 110/110/110 107/107/107 108/108/108
f 113/113/113 112/112/112 111/111/111
f 114/114/114 111/111/111 112/112/112
f 117/117/117 116/116/116 115/115/115
f 118/118/118 115/115/115 116/116/116
f 121/121/121 120/120/120 119/119/119
f 122/122/122 119/119/119 120/120/120
f 125/125/125 124/124/124 123/123/123
f 126/126/126 123/123/123 124/124/124
f 129/129/129 128/128/128 127/127/127
f 130/130/130 127/127/127 128/128/128
f 133/133/133 132/132/132 131/131/131
f 134/134/134 131/131/131 132/132/132
f 137/137/137 136/136/136 135/135/135
f 138/138/138 135/135/135 136/136/136
f 137/137/137 135/135/135 139/139/139
f 140/140/140 139/139/139 135/135/135
f 143/143/143 142/142/142 141/141/141
f 144/144/144 141/141/141 142/142/142
f 147/147/147 146/146/146 145/145/145
f 148/148/148 145/145/145 146/146/146
f 151/151/151 150/150/150 149/149/149
f 152/152/152 149/149/149 150/150/150
f 155/155/155 154/154/154 153/153/153
f 156/156/156 153/153/153 154/154/154
f 159/159/159 158/158/158 157/157/157
f 160/160/160 157/157/157 158/158/158
f 163/163/163 162/162/162 161/161/161
f 164/164/164 161/161/161 162/162/162
f 167/167/167 166/166/166 165/165/165
f 168/168/168 165/165/165 166/166/166
f 171/171/171 170/170/170 169/169/169
f 172/172/172 169/169/169 170/170/170
f 175/175/175 174/174/174 173/173/173
f 176/176/176 173/173/173 174/174/174
f 179/179/179 178/178/178 177/177/177
f 180/180/180 177/177/177 178/178/178
f 183/183/183 182/182/182 181/181/181
f 184/184/184 181/181/181 182/182/182
f 187/187/187 186/186/186 185/185/185
f 188/188/188 185/185/185 186/186/186
f 191/191/191 190/190/190 189/189/189
f 192/192/192 189/189/189 190/190/190
f 195/195/195 194/194/194 193/193/193
f 196/196/196 193/193/193 194/194/194
f 199/199/199 198/198/198 197/197/197
f 200/200/200 197/197/197 198/198/198
f 203/203/203 202/202/202 201/201/201
f 204/204/204 201/201/201 202/202/202
f 207/207/207 206/206/206 205/205/205
f 208/208/208 205/205/205 206/206/206
f 211/211/211 210/210/210 209/209/209
f 212/212/212 209/209/209 210/210/210
f 215/215/215 214/214/214 213/213/213
f 216/216/216 213/213/213 214/214/214
f 219/219/219 218/218/218 217/217/217
f 220/220/220 217/217/217 218/218/218
f 223/223/223 222/222/222 221/221/221
f 224/224/224 221/221/221 222/222/222
f 227/227/227 226/226/226 225/225/225
f 228/228/228 225/225/225 226/226/226
f 231/231/231 230/230/230 229/229/229
f 232/232/232 229/229/229 230/230/230
f 235/235/235 234/234/234 233/233/233
f 236/236/236 233/233/233 234/234/234
f 239/239/239 238/238/238 237/237/237
f 240/240/240 237/237/237 238/238/238
f 243/243/243 242/242/242 241/241/241
f 244/244/244 241/241/241 242/242/242
f 247/247/247 246/246/246 245/245/245
f 248/248/248 245/245/245 246/246/246
f 251/251/251 250/250/250 249/249/249
f 252/252/252 249/249/249 250/250/250
f 255/255/255 254/254/254 253/253/253
f 256/256/256 253/253/253 254/254/254
f 259/259/259 258/258/258 257/257/257
f 260/260/260 257/257/257 258/258/258
f 263/263/263 262/262/262 261/261/261
f 264/264/264 261/261/261 262/262/262
f 267/267/267 266/266/266 265/265/265
f 268/268/268 265/265/265 266/266/266
