g DSJ_GTA_daoJu_laJiTong_03
v -0.1020178 0.01632702 -0.2432864
v 0.2155468 0.01632702 -0.2264721
v -0.07268927 0.1030322 -0.2642222
v -0.1064089 0.1946592 -0.2678348
v 0.2713327 1.169541 -0.2994027
v -0.2601792 1.176484 -0.295908
v -0.2291235 0.2289096 -0.2500617
v 0.3448716 1.165547 -0.3364939
v -0.3065007 1.244069 -0.3518524
v -0.3065007 1.177807 -0.3518524
v 0.3374021 1.244244 -0.3419515
v -0.3065007 1.244069 -0.3518524
v 0.3448716 1.165547 -0.3364939
v -0.2601792 1.176484 -0.295908
v 0.2713327 1.169541 -0.2994027
v -0.3065007 1.177807 -0.3518524
v -0.3015183 1.177809 0.3518517
v -0.2559955 1.176486 0.295262
v 0.275525 1.169542 0.2912265
v 0.3448716 1.165547 -0.3364939
v 0.3495676 1.165547 0.3272579
v -0.2823888 1.244069 -0.3175346
v 0.3374021 1.244244 -0.3419515
v 0.2877966 1.244202 -0.3082117
v -0.3065007 1.244069 -0.3518524
v -0.3015183 1.244069 0.3518517
v -0.2778866 1.244069 0.317197
v 0.342179 1.244246 0.3328267
v 0.2877966 1.244202 0.2999479
v 0.3374021 1.244244 -0.3419515
v 0.3495676 1.165547 0.3272579
v 0.342179 1.244246 0.3328267
v 0.3448716 1.165547 -0.3364939
v -0.3065007 1.177807 -0.3518524
v -0.3065007 1.244069 -0.3518524
v -0.3015183 1.177809 0.3518517
v -0.3015183 1.244069 0.3518517
v 0.2155468 0.01632702 -0.2264721
v 0.275525 1.169542 0.2912265
v 0.2713327 1.169541 -0.2994027
v 0.2186977 0.01632702 0.2190862
v -0.07268927 0.1030322 -0.2642222
v -0.1125843 0.01632702 -0.2159225
v -0.1020178 0.01632702 -0.2432864
v -0.08628359 0.10268 -0.226371
v -0.1064089 0.1946592 -0.2678348
v -0.1194421 0.1824751 -0.229864
v -0.2291235 0.2289096 -0.2500617
v -0.1194421 0.1824751 -0.229864
v -0.1125843 0.01632702 -0.2159225
v -0.08628359 0.10268 -0.226371
v -0.2241933 0.01632702 -0.2151356
v -0.2291235 0.2289096 -0.2500617
v -0.3260683 1.366281 0.298337
v -0.3035554 1.393013 -0.2981929
v -0.2993261 1.393013 0.2981467
v -0.3302909 1.366279 -0.2980092
v -0.2993261 1.393013 0.2981467
v -0.2768284 1.366279 -0.298385
v -0.2726076 1.366281 0.297958
v -0.3035554 1.393013 -0.2981929
v -0.2726076 1.366281 0.297958
v -0.3035554 1.339551 -0.2981929
v -0.2993261 1.339553 0.2981467
v -0.2768284 1.366279 -0.298385
v -0.2993261 1.339553 0.2981467
v -0.3302909 1.366279 -0.2980092
v -0.3260683 1.366281 0.298337
v -0.3035554 1.339551 -0.2981929
v -0.3035554 1.393013 -0.2981929
v -0.3035554 1.339551 -0.2981929
v -0.2768284 1.366279 -0.298385
v -0.3302909 1.366279 -0.2980092
v -0.06896883 0.1030322 0.2609206
v 0.2186977 0.01632702 0.2190862
v -0.09859735 0.01632702 0.240396
v -0.1026413 0.1946608 0.2650117
v 0.275525 1.169542 0.2912265
v -0.2559955 1.176486 0.295262
v -0.2255834 0.2289096 0.2489759
v 0.3495676 1.165547 0.3272579
v -0.3015183 1.244069 0.3518517
v 0.342179 1.244246 0.3328267
v -0.3015183 1.177809 0.3518517
v -0.2211503 0.01632702 0.2139791
v -0.2291235 0.2289096 -0.2500617
v -0.2255834 0.2289096 0.2489759
v -0.2241933 0.01632702 -0.2151356
v -0.2559955 1.176486 0.295262
v -0.2601792 1.176484 -0.295908
v -0.06896883 0.1030322 0.2609206
v -0.1095395 0.01632702 0.213182
v -0.08310404 0.1026817 0.2232632
v -0.09859735 0.01632702 0.240396
v -0.1026413 0.1946608 0.2650117
v -0.1161969 0.1824768 0.227233
v -0.2255834 0.2289096 0.2489759
v -0.1095395 0.01632702 0.213182
v -0.1161969 0.1824768 0.227233
v -0.08310404 0.1026817 0.2232632
v -0.2211503 0.01632702 0.2139791
v -0.2255834 0.2289096 0.2489759
v -0.2993261 1.393013 0.2981467
v -0.2993261 1.339553 0.2981467
v -0.3260683 1.366281 0.298337
v -0.2726076 1.366281 0.297958
v -0.2211503 0.01632702 0.2139791
v -0.1095395 0.01632702 0.213182
v -0.1793714 0.01632702 0.2136875
v -0.3039076 0.1048857 -0.2316045
v -0.2741106 0.177646 -0.2788831
v -0.2737719 0.177646 -0.2318101
v -0.304253 0.1048857 -0.2786674
v -0.2737719 0.177646 -0.2318101
v -0.2013485 0.2077834 -0.2793936
v -0.2010183 0.2077834 -0.2323274
v -0.2741106 0.177646 -0.2788831
v -0.2010183 0.2077834 -0.2323274
v -0.1285915 0.177646 -0.2799109
v -0.1282663 0.177646 -0.2328329
v -0.2013485 0.2077834 -0.2793936
v -0.1282663 0.177646 -0.2328329
v -0.09845752 0.1048857 -0.2801232
v -0.09812051 0.1048857 -0.2330435
v -0.1285915 0.177646 -0.2799109
v -0.09812051 0.1048857 -0.2330435
v -0.1285915 0.03212866 -0.2799076
v -0.1282663 0.03212866 -0.2328312
v -0.09845752 0.1048857 -0.2801232
v -0.2013485 0.001991272 -0.279397
v -0.2010183 0.001991272 -0.2323274
v -0.2010183 0.001991272 -0.2323274
v -0.2741106 0.03212866 -0.2788831
v -0.2737719 0.03212866 -0.2318101
v -0.2013485 0.001991272 -0.279397
v -0.304253 0.1048857 -0.2786674
v -0.3039076 0.1048857 -0.2316045
v -0.1282663 0.03212866 -0.2328312
v -0.2010183 0.001991272 -0.2323274
v -0.09812051 0.1048857 -0.2330435
v -0.3039076 0.1048857 -0.2316045
v -0.2010183 0.2077834 -0.2323274
v -0.1282663 0.177646 -0.2328329
v -0.2737719 0.177646 -0.2318101
v -0.2737719 0.03212866 -0.2318101
v -0.2013485 0.2077834 -0.2793936
v -0.2741106 0.177646 -0.2788831
v -0.1285915 0.177646 -0.2799109
v -0.2741106 0.03212866 -0.2788831
v -0.1285915 0.03212866 -0.2799076
v -0.09845752 0.1048857 -0.2801232
v -0.2013485 0.001991272 -0.279397
v -0.304253 0.1048857 -0.2786674
v -0.300295 0.1048857 0.2791672
v -0.2704862 0.177646 0.231865
v -0.2701542 0.177646 0.2789447
v -0.3006286 0.1048857 0.2320824
v -0.1977359 0.2077834 0.2313527
v -0.1974074 0.2077834 0.2784241
v -0.1974074 0.2077834 0.2784241
v -0.1249823 0.177646 0.2308456
v -0.1246369 0.177646 0.2778984
v -0.1977359 0.2077834 0.2313527
v -0.0948348 0.1048857 0.2306316
v -0.09450287 0.1048857 0.2777013
v -0.09450287 0.1048857 0.2777013
v -0.1249823 0.03212866 0.2308456
v -0.1246369 0.03212866 0.2778984
v -0.0948348 0.1048857 0.2306316
v -0.1246369 0.03212866 0.2778984
v -0.1977376 0.001991272 0.2313527
v -0.1974074 0.001991272 0.2784241
v -0.1249823 0.03212866 0.2308456
v -0.1974074 0.001991272 0.2784241
v -0.2704862 0.03212866 0.231865
v -0.2701542 0.03212866 0.2789447
v -0.1977376 0.001991272 0.2313527
v -0.3006286 0.1048857 0.2320824
v -0.300295 0.1048857 0.2791672
v -0.1246369 0.03212866 0.2778984
v -0.1974074 0.001991272 0.2784241
v -0.09450287 0.1048857 0.2777013
v -0.300295 0.1048857 0.2791672
v -0.1974074 0.2077834 0.2784241
v -0.1246369 0.177646 0.2778984
v -0.2701542 0.177646 0.2789447
v -0.2701542 0.03212866 0.2789447
v -0.1977359 0.2077834 0.2313527
v -0.2704862 0.177646 0.231865
v -0.1249823 0.177646 0.2308456
v -0.2704862 0.03212866 0.231865
v -0.1249823 0.03212866 0.2308456
v -0.0948348 0.1048857 0.2306316
v -0.1977376 0.001991272 0.2313527
v -0.3006286 0.1048857 0.2320824
v -0.1747395 1.311424 0.2323216
v -0.2812464 1.414965 0.2330782
v -0.2767273 1.283999 0.2330445
v -0.3431185 1.406154 0.2335163
v -0.3459628 1.35026 0.2335348
v -0.2778866 1.244069 0.317197
v -0.27191 1.319552 -0.3072058
v -0.2675611 1.319552 0.3067181
v -0.2823888 1.244069 -0.3175346
v -0.1783537 1.311424 -0.2768696
v -0.2848489 1.414963 -0.2761096
v -0.2803248 1.283996 -0.2761467
v -0.346721 1.406154 -0.2756715
v -0.3495601 1.35026 -0.2756564
v -0.346721 1.406154 -0.2756715
v -0.2845607 1.414963 -0.2348768
v -0.3464261 1.406154 -0.2344437
v -0.2848489 1.414963 -0.2761096
v -0.1783537 1.311424 -0.2768696
v -0.2845607 1.414963 -0.2348768
v -0.2848489 1.414963 -0.2761096
v -0.1780555 1.311424 -0.2356417
v -0.3495601 1.35026 -0.2756564
v -0.28004 1.283996 -0.2349172
v -0.2803248 1.283996 -0.2761467
v -0.3492754 1.35026 -0.2344336
v -0.1780555 1.311424 -0.2356417
v -0.28004 1.283996 -0.2349172
v -0.2845607 1.414963 -0.2348768
v -0.3464261 1.406154 -0.2344437
v -0.3492754 1.35026 -0.2344336
v -0.3495601 1.35026 -0.2756564
v -0.3464261 1.406154 -0.2344437
v -0.3492754 1.35026 -0.2344336
v -0.346721 1.406154 -0.2756715
v 0.2877966 1.263301 0.08950356
v 0.2877966 1.263301 -0.0980083
v 0.2877966 1.244202 0.2999479
v 0.2877966 1.244202 -0.3082117
v 0.2877966 1.299208 -0.09800664
v 0.2765107 1.325854 -0.2990859
v 0.2877966 1.299209 0.08951369
v 0.278536 1.325855 0.2908895
v 0.2877966 1.299209 0.08951369
v 0.2877966 1.263301 -0.0980083
v 0.2877966 1.263301 0.08950356
v 0.2877966 1.299208 -0.09800664
v 0.278536 1.325855 0.2908895
v -0.27191 1.319552 -0.3072058
v 0.2765107 1.325854 -0.2990859
v -0.2675611 1.319552 0.3067181
v 0.2765107 1.325854 -0.2990859
v -0.2823888 1.244069 -0.3175346
v 0.2877966 1.244202 -0.3082117
v -0.27191 1.319552 -0.3072058
v -0.2778866 1.244069 0.317197
v 0.278536 1.325855 0.2908895
v 0.2877966 1.244202 0.2999479
v -0.2675611 1.319552 0.3067181
v -0.3431185 1.406154 0.2335163
v -0.28096 1.414965 0.2743043
v -0.3428118 1.406154 0.2747526
v -0.2812464 1.414965 0.2330782
v -0.1747395 1.311424 0.2323216
v -0.28096 1.414965 0.2743043
v -0.2812464 1.414965 0.2330782
v -0.174448 1.311424 0.2735562
v -0.3459628 1.35026 0.2335348
v -0.2764308 1.283999 0.2742707
v -0.2767273 1.283999 0.2330445
v -0.3456527 1.350259 0.2747711
v -0.174448 1.311424 0.2735562
v -0.2764308 1.283999 0.2742707
v -0.28096 1.414965 0.2743043
v -0.3428118 1.406154 0.2747526
v -0.3456527 1.350259 0.2747711
v -0.3459628 1.35026 0.2335348
v -0.3428118 1.406154 0.2747526
v -0.3456527 1.350259 0.2747711
v -0.3431185 1.406154 0.2335163
vt 0.6110343 0.5039761
vt 0.6750171 0.5096421
vt 0.6141931 0.5203791
vt 0.607054 0.5345439
vt 0.6750171 0.6799465
vt 0.5901694 0.6799465
vt 0.5901694 0.5399549
vt 0.8538488 0.5818688
vt 0.783761 0.5786959
vt 0.7822312 0.5795741
vt 0.8681554 0.6750171
vt 0.7732931 0.6751446
vt 0.8696427 0.6870289
vt 0.7872597 0.5860475
vt 0.8457465 0.5860758
vt 0.7822312 0.5795741
vt 0.7822312 0.6604415
vt 0.7872597 0.6539681
vt 0.8457465 0.6539397
vt 0.8538488 0.5818688
vt 0.8538488 0.6581467
vt 0.7770893 0.6685438
vt 0.8671213 0.6716884
vt 0.8584524 0.6666173
vt 0.7736331 0.6738839
vt 0.7736331 0.5666841
vt 0.7770893 0.57201
vt 0.8672346 0.5688654
vt 0.8584524 0.5739506
vt 0.8714841 0.6683596
vt 0.8832126 0.5738373
vt 0.8714841 0.57218
vt 0.8832126 0.6667165
vt 0.8873488 0.7032335
vt 0.8873488 0.6986442
vt 0.7780525 0.7032335
vt 0.7780525 0.6986442
vt 0.7592132 0.5039761
vt 0.6750171 0.6799465
vt 0.7592132 0.6799465
vt 0.6750171 0.5096421
vt 0.6141931 0.5203791
vt 0.6056517 0.5039761
vt 0.6110343 0.5039761
vt 0.6083288 0.5190051
vt 0.607054 0.5345439
vt 0.6027479 0.530082
vt 0.5870107 0.5379152
vt 0.6027479 0.530082
vt 0.6056517 0.5039761
vt 0.6083288 0.5190051
vt 0.5945322 0.5039761
vt 0.5838236 0.5358896
vt 0.7822312 0.7474563
vt 0.9094035 0.7535331
vt 0.7822312 0.7535331
vt 0.9094035 0.7474563
vt 0.7822312 0.7535331
vt 0.9094035 0.7474563
vt 0.7822312 0.7474563
vt 0.9094035 0.7535331
vt 0.7822312 0.7474563
vt 0.9094035 0.740898
vt 0.7822312 0.740898
vt 0.9094035 0.7474563
vt 0.7822312 0.740898
vt 0.9094035 0.7474563
vt 0.7822312 0.7474563
vt 0.9094035 0.740898
vt 0.7741855 0.7474563
vt 0.7822312 0.740898
vt 0.7822312 0.7474563
vt 0.7741855 0.740898
vt 0.6141931 0.5203791
vt 0.6699036 0.5039761
vt 0.6110343 0.5096421
vt 0.607054 0.5345439
vt 0.6699036 0.6799465
vt 0.5870107 0.6799465
vt 0.5870107 0.5379577
vt 0.8696427 0.6870289
vt 0.7732931 0.6751446
vt 0.8681554 0.6750596
vt 0.7732931 0.6809947
vt 0.5838236 0.5042169
vt 0.5090613 0.5361446
vt 0.5838236 0.5361446
vt 0.5090613 0.5042169
vt 0.5838236 0.6799465
vt 0.5090613 0.6799465
vt 0.6141931 0.5203791
vt 0.6056517 0.5096421
vt 0.6083288 0.5190051
vt 0.6110343 0.5096421
vt 0.607054 0.5345439
vt 0.6027479 0.530082
vt 0.5870107 0.5379577
vt 0.6056517 0.5096421
vt 0.6027479 0.530082
vt 0.6083288 0.5190051
vt 0.5838236 0.5039761
vt 0.5838236 0.5359179
vt 0.7741855 0.7474563
vt 0.7822312 0.740898
vt 0.7741855 0.740898
vt 0.7822312 0.7474563
vt 0.5838236 0.5039761
vt 0.6056517 0.5096421
vt 0.5949997 0.5039761
vt 0.450617 0.5052084
vt 0.4325992 0.5154638
vt 0.4325992 0.5052084
vt 0.450617 0.5154638
vt 0.4325992 0.5052084
vt 0.4145956 0.5154638
vt 0.4145956 0.5052084
vt 0.4325992 0.5154638
vt 0.4145956 0.5052084
vt 0.4325992 0.5154638
vt 0.4325992 0.5052084
vt 0.4145956 0.5154638
vt 0.4325992 0.5052084
vt 0.450617 0.5154638
vt 0.450617 0.5052084
vt 0.4325992 0.5154638
vt 0.450617 0.5052084
vt 0.4686347 0.5154638
vt 0.4686347 0.5052084
vt 0.450617 0.5154638
vt 0.4866524 0.5154638
vt 0.4866524 0.5052084
vt 0.4866524 0.5052084
vt 0.4686347 0.5154638
vt 0.4686347 0.5052084
vt 0.4866524 0.5154638
vt 0.450617 0.5154638
vt 0.450617 0.5052084
vt 0.1216091 0.8979583
vt 0.1305897 0.8768668
vt 0.09969604 0.9064006
vt 0.09969604 0.8473046
vt 0.06875993 0.8768668
vt 0.07782546 0.8979583
vt 0.07782546 0.8559877
vt 0.1216091 0.8559877
vt 0.06875993 0.8768668
vt 0.07782546 0.8979583
vt 0.07782546 0.8559877
vt 0.1216091 0.8979583
vt 0.1216091 0.8559877
vt 0.09969604 0.8473471
vt 0.1307596 0.8768668
vt 0.09969604 0.9064431
vt 0.450617 0.5052084
vt 0.4325992 0.5154638
vt 0.4325992 0.5052084
vt 0.450617 0.5154638
vt 0.4145956 0.5154638
vt 0.4145956 0.5052084
vt 0.4145956 0.5052084
vt 0.4325992 0.5154638
vt 0.4325992 0.5052084
vt 0.4145956 0.5154638
vt 0.450617 0.5154638
vt 0.450617 0.5052084
vt 0.450617 0.5052084
vt 0.4686347 0.5154638
vt 0.4686347 0.5052084
vt 0.450617 0.5154638
vt 0.4686347 0.5052084
vt 0.4866524 0.5154638
vt 0.4866524 0.5052084
vt 0.4686347 0.5154638
vt 0.4866524 0.5052084
vt 0.4686347 0.5154638
vt 0.4686347 0.5052084
vt 0.4866524 0.5154638
vt 0.450617 0.5154638
vt 0.450617 0.5052084
vt 0.1216091 0.8979583
vt 0.1305897 0.8768668
vt 0.09969604 0.9064006
vt 0.09969604 0.8473046
vt 0.06875993 0.8768668
vt 0.07782546 0.8979583
vt 0.07782546 0.8559877
vt 0.1216091 0.8559877
vt 0.06875993 0.8768668
vt 0.07782546 0.8979583
vt 0.07782546 0.8559877
vt 0.1216091 0.8979583
vt 0.1216091 0.8559877
vt 0.09969604 0.8473471
vt 0.1307596 0.8768668
vt 0.09969604 0.9064431
vt 0.9970416 0.7530231
vt 0.9717999 0.7530231
vt 0.9878203 0.7677688
vt 0.9652556 0.7609555
vt 0.9715449 0.7677971
vt 0.885394 0.6905702
vt 0.9848457 0.6803856
vt 0.885394 0.6803856
vt 0.9848457 0.6905702
vt 0.9970416 0.7530231
vt 0.9717999 0.7530231
vt 0.9878203 0.7677688
vt 0.9652556 0.7609555
vt 0.9715449 0.7677971
vt 0.9612328 0.7529523
vt 0.9717999 0.7462382
vt 0.9612328 0.7462382
vt 0.9717999 0.7529523
vt 0.9970558 0.7529523
vt 0.9717999 0.7462382
vt 0.9717999 0.7529523
vt 0.9970558 0.7462382
vt 0.9517424 0.7529523
vt 0.9354527 0.7462382
vt 0.9354527 0.7529523
vt 0.9517424 0.7462382
vt 0.9970416 0.7530231
vt 0.9878203 0.7677688
vt 0.9717999 0.7530231
vt 0.9652556 0.7609555
vt 0.9715449 0.7677971
vt 0.9517424 0.7529523
vt 0.9612328 0.7462382
vt 0.9517424 0.7462382
vt 0.9612328 0.7529523
vt 0.9208629 0.5814297
vt 0.9494759 0.5814297
vt 0.8907908 0.5784551
vt 0.979548 0.5784551
vt 0.9494759 0.5870107
vt 0.9783581 0.5907502
vt 0.9208629 0.5870107
vt 0.8919807 0.5907502
vt 0.1056453 0.2258627
vt 0.1482249 0.214035
vt 0.1056453 0.214035
vt 0.1482249 0.2258627
vt 0.8884111 0.5948864
vt 0.982721 0.6787567
vt 0.9818711 0.5948864
vt 0.8897285 0.6771418
vt 0.9848457 0.5920392
vt 0.9963759 0.6803573
vt 0.99656 0.5920392
vt 0.9848457 0.6803856
vt 0.9963759 0.6803573
vt 0.9848457 0.594858
vt 0.9963759 0.594858
vt 0.9831034 0.6787567
vt 0.9612328 0.7529523
vt 0.9717999 0.7462382
vt 0.9612328 0.7462382
vt 0.9717999 0.7529523
vt 0.9970558 0.7529523
vt 0.9717999 0.7462382
vt 0.9717999 0.7529523
vt 0.9970558 0.7462382
vt 0.9517424 0.7529523
vt 0.9354527 0.7462382
vt 0.9354527 0.7529523
vt 0.9517424 0.7462382
vt 0.9970416 0.7530231
vt 0.9878203 0.7677688
vt 0.9717999 0.7530231
vt 0.9652556 0.7609555
vt 0.9715449 0.7677971
vt 0.9517424 0.7529523
vt 0.9612328 0.7462382
vt 0.9517424 0.7462382
vt 0.9612328 0.7529523
vn 0.06666619 -0.2627431 -0.96256
vn 0.09803849 -0.1058816 -0.989534
vn 0.1137246 -0.1137246 -0.9869819
vn 0.0274508 -0.05882311 -0.9978909
vn 0.0274508 -0.05098003 -0.9983224
vn -0.01176453 -0.04313695 -0.9989999
vn -0.1529399 -0.06666619 -0.9859843
vn 0.0274508 -0.07450926 -0.9968424
vn 0.03529388 -0.01960772 -0.9991846
vn 0.03529388 -0.01176465 -0.9993077
vn 0.0274508 -0.08235234 -0.9962251
vn 0.03529388 -0.01960772 -0.9991846
vn 0.0274508 -0.07450926 -0.9968424
vn -0.0117638 -0.9999309 0
vn -0.01960405 -0.9998079 0
vn -0.0117638 -0.9999309 0
vn -0.0117638 -0.9999309 0
vn -0.0117638 -0.9999309 0
vn -0.01960405 -0.9998079 0
vn -0.03527213 -0.9993777 0
vn -0.03527213 -0.9993777 0
vn 0.003921568 0.9999923 -0.000345267
vn 0.01176465 0.9921492 0.124505
vn 0.01176465 0.9921492 0.124505
vn 0.003921568 0.9999923 -0.000345267
vn 0.003921568 0.9999923 -0.000345267
vn 0.003921568 0.9999923 -0.000345267
vn 0.01176465 0.9921492 -0.124505
vn 0.01176465 0.9921492 -0.124505
vn 0.9966261 0.08207506 0
vn 0.9966261 0.08207506 0
vn 0.9966261 0.08207506 0
vn 0.9966261 0.08207506 0
vn -0.9921492 -0.01176465 0.124505
vn -0.9921492 -0.01176465 0.124505
vn -0.9921492 -0.01176465 0.124505
vn -0.9921492 -0.01176465 0.124505
vn 0.998703 -0.0509143 0
vn 0.998703 -0.0509143 0
vn 0.998703 -0.0509143 0
vn 0.998703 -0.0509143 0
vn -0.9294046 -0.09019542 -0.3578712
vn -0.9058753 0.2235277 -0.3597572
vn -0.9058753 0.2156845 -0.3645135
vn -0.9294046 -0.05882311 -0.3643445
vn -0.6392107 -0.6627401 -0.3901094
vn -0.6235245 -0.6627401 -0.4147201
vn -0.2941153 -0.8823462 -0.3673709
vn 0.05882311 -0.145097 -0.9876673
vn -0.01960766 -0.09803849 -0.9949895
vn -0.1058815 -0.09803849 -0.989534
vn 0.05098003 -0.1215677 -0.9912731
vn 0.1215677 -0.1686262 -0.9781546
vn -0.7019553 0.7019553 0.1204887
vn -0.7019553 0.7019553 0.1204887
vn -0.7019553 0.7019553 0.1204887
vn -0.7019553 0.7019553 0.1204887
vn 0.7148765 0.6992507 0
vn 0.7148765 0.6992507 0
vn 0.7148765 0.6992507 0
vn 0.7148765 0.6992507 0
vn 0.7071068 -0.7071068 0
vn 0.7071068 -0.7071068 0
vn 0.7071068 -0.7071068 0
vn 0.7071068 -0.7071068 0
vn -0.6992507 -0.7148765 0
vn -0.6992507 -0.7148765 0
vn -0.6992507 -0.7148765 0
vn -0.6992507 -0.7148765 0
vn -0.003921509 -0.01176465 -0.9999231
vn -0.003921509 -0.01176465 -0.9999231
vn -0.003921509 -0.01176465 -0.9999231
vn -0.003921509 -0.01176465 -0.9999231
vn 0.1294108 -0.1137246 0.985048
vn 0.1137246 -0.1058816 0.9878541
vn 0.07450926 -0.2627431 0.9619846
vn 0.04313695 -0.05882311 0.997336
vn 0.04313695 -0.05098003 0.9977676
vn -0.003921509 -0.04313695 0.9990615
vn -0.1372538 -0.06666619 0.98829
vn 0.04313695 -0.07450926 0.9962869
vn 0.05098003 -0.01960772 0.9985072
vn 0.04313695 -0.08235234 0.9956692
vn 0.05098003 -0.01176465 0.9986304
vn -0.9921492 -0.03529388 0.119976
vn -0.9921492 -0.04313695 0.1173844
vn -0.9921492 -0.04313695 0.1173844
vn -0.9921492 -0.03529388 0.119976
vn -0.9921492 -0.04313695 0.1173844
vn -0.9921492 -0.04313695 0.1173844
vn -0.9294046 -0.09019542 0.3578712
vn -0.9058753 0.2235277 0.3597572
vn -0.9294046 -0.05882311 0.3643445
vn -0.8980323 0.2156845 0.3834294
vn -0.6313677 -0.6627401 0.4026791
vn -0.6156815 -0.6627401 0.4262768
vn -0.2862723 -0.8823462 0.3735149
vn -0.003921509 -0.09803849 0.9951749
vn 0.07450926 -0.145097 0.986608
vn -0.0901953 -0.09803849 0.9910869
vn 0.06666619 -0.1215677 0.9903418
vn 0.1372539 -0.1686262 0.9760771
vn 0.01960772 -0.01176465 0.9997385
vn 0.01960772 -0.01176465 0.9997385
vn 0.01960772 -0.01176465 0.9997385
vn 0.01960772 -0.01176465 0.9997385
vn 0.003921568 0.9999923 -0.000345267
vn 0.003921568 0.9999923 -0.000345267
vn 0.003921568 0.9999923 -0.000345267
vn -0.9215615 0.3803892 0.07764315
vn -0.9215615 0.3803892 0.07764315
vn -0.9215615 0.3803892 0.07764315
vn -0.9215615 0.3803892 0.07764315
vn -0.3803892 0.9215615 0.07764325
vn -0.3803892 0.9215615 0.07764325
vn -0.3803892 0.9215615 0.07764325
vn -0.3803892 0.9215615 0.07764325
vn 0.3948628 0.9187401 0
vn 0.3948628 0.9187401 0
vn 0.3948628 0.9187401 0
vn 0.3948628 0.9187401 0
vn 0.9282063 0.3720657 0
vn 0.9282063 0.3720657 0
vn 0.9282063 0.3720657 0
vn 0.9282063 0.3720657 0
vn 0.922731 -0.3854446 0
vn 0.7071068 -0.7071068 0
vn 0.7071068 -0.7071068 0
vn 0.922731 -0.3854446 0
vn 0.003921568 -0.9999924 0
vn 0.003921568 -0.9999924 0
vn 0.003921568 -0.9999924 0
vn -0.6992507 -0.7148765 0
vn -0.6992507 -0.7148765 0
vn 0.003921568 -0.9999924 0
vn -0.9187401 -0.3948628 0
vn -0.9187401 -0.3948628 0
vn 0.01960772 -0.01176465 0.9997385
vn 0.01960772 -0.01176465 0.9997385
vn 0.01960772 -0.01176465 0.9997385
vn 0.01960772 -0.01176465 0.9997385
vn 0.01960772 -0.01176465 0.9997385
vn 0.01960772 -0.01176465 0.9997385
vn 0.01960772 -0.01176465 0.9997385
vn 0.01960772 -0.01176465 0.9997385
vn -0.003921509 -0.01176465 -0.9999231
vn -0.003921509 -0.01176465 -0.9999231
vn -0.003921509 -0.01176465 -0.9999231
vn -0.003921509 -0.01176465 -0.9999231
vn -0.003921509 -0.01176465 -0.9999231
vn -0.003921509 -0.01176465 -0.9999231
vn -0.003921509 -0.01176465 -0.9999231
vn -0.003921509 -0.01176465 -0.9999231
vn -0.9215615 0.3803892 0.07764315
vn -0.7019553 0.7019553 0.1204887
vn -0.7019553 0.7019553 0.1204887
vn -0.9215615 0.3803892 0.07764315
vn -0.3803892 0.9215615 0.07764325
vn -0.3803892 0.9215615 0.07764325
vn 0.3948628 0.9187401 0
vn 0.7148765 0.6992507 0
vn 0.7148765 0.6992507 0
vn 0.3948628 0.9187401 0
vn 0.9282063 0.3720657 0
vn 0.9282063 0.3720657 0
vn 0.922731 -0.3854446 0
vn 0.922731 -0.3854446 0
vn 0.922731 -0.3854446 0
vn 0.922731 -0.3854446 0
vn 0.3854446 -0.922731 0
vn 0.003921568 -0.9999924 0
vn 0.003921568 -0.9999924 0
vn 0.3854446 -0.922731 0
vn 0.003921568 -0.9999924 0
vn -0.6992507 -0.7148765 0
vn -0.6992507 -0.7148765 0
vn 0.003921568 -0.9999924 0
vn -0.9187401 -0.3948628 0
vn -0.9187401 -0.3948628 0
vn 0.01960772 -0.01176465 0.9997385
vn 0.01960772 -0.01176465 0.9997385
vn 0.01960772 -0.01176465 0.9997385
vn 0.01960772 -0.01176465 0.9997385
vn 0.01960772 -0.01176465 0.9997385
vn 0.01960772 -0.01176465 0.9997385
vn 0.01960772 -0.01176465 0.9997385
vn 0.01960772 -0.01176465 0.9997385
vn -0.003921509 -0.01176465 -0.9999231
vn -0.003921509 -0.01176465 -0.9999231
vn -0.003921509 -0.01176465 -0.9999231
vn -0.003921509 -0.01176465 -0.9999231
vn -0.003921509 -0.01176465 -0.9999231
vn -0.003921509 -0.01176465 -0.9999231
vn -0.003921509 -0.01176465 -0.9999231
vn -0.003921509 -0.01176465 -0.9999231
vn -0.003921509 -0.01176465 -0.9999231
vn -0.003921509 -0.01176465 -0.9999231
vn -0.003921509 -0.01176465 -0.9999231
vn -0.003921509 -0.01176465 -0.9999231
vn -0.003921509 -0.01176465 -0.9999231
vn -0.9843061 0.1294107 0.1199766
vn -0.9843061 0.1294107 0.1199766
vn -0.9843061 0.1294107 0.1199766
vn -0.9843061 0.1294107 0.1199766
vn -0.003921509 -0.01176465 -0.9999231
vn -0.003921509 -0.01176465 -0.9999231
vn -0.003921509 -0.01176465 -0.9999231
vn -0.003921509 -0.01176465 -0.9999231
vn -0.003921509 -0.01176465 -0.9999231
vn -0.1372538 0.9843061 0.1109186
vn -0.1372538 0.9843061 0.1109186
vn -0.1372538 0.9843061 0.1109186
vn -0.1372538 0.9843061 0.1109186
vn 0.7071068 0.7071068 0
vn 0.7071068 0.7071068 0
vn 0.7071068 0.7071068 0
vn 0.7071068 0.7071068 0
vn -0.6832914 -0.7301458 0
vn -0.6832914 -0.7301458 0
vn -0.6832914 -0.7301458 0
vn -0.6832914 -0.7301458 0
vn 0.01960772 -0.01176465 0.9997385
vn 0.01960772 -0.01176465 0.9997385
vn 0.01960772 -0.01176465 0.9997385
vn 0.01960772 -0.01176465 0.9997385
vn 0.01960772 -0.01176465 0.9997385
vn -0.9921492 0.04313684 0.1173845
vn -0.9921492 0.04313684 0.1173845
vn -0.9921492 0.04313684 0.1173845
vn -0.9921492 0.04313684 0.1173845
vn 0.9999924 -0.003921568 0
vn 0.9999924 -0.003921568 0
vn 0.9966261 0.08207506 0
vn 0.9944412 0.1052937 0
vn 0.9829165 0.184052 0
vn 0.9894748 0.1447058 0
vn 0.9845476 0.1751171 0
vn 0.9921493 0.1215676 -0.02934449
vn 0.9845476 0.1751171 0
vn 0.9999924 -0.003921568 0
vn 0.9999924 -0.003921568 0
vn 0.9829165 0.184052 0
vn -0.003921509 0.9921492 0.1249981
vn -0.003921509 0.9921492 0.1249981
vn -0.003921509 0.9921492 0.1249981
vn -0.003921509 0.9921492 0.1249981
vn 0.0274508 0.1137246 -0.993133
vn 0.0274508 0.1294107 -0.9912111
vn 0.0274508 0.1058815 -0.9939998
vn 0.0274508 0.1294107 -0.9912111
vn 0.04313695 0.1294107 0.9906524
vn 0.04313695 0.1137246 0.9925754
vn 0.04313695 0.1058815 0.9934427
vn 0.03529388 0.1294107 0.9909627
vn -0.1372538 0.9843061 0.1109186
vn -0.1372538 0.9843061 0.1109186
vn -0.1372538 0.9843061 0.1109186
vn -0.1372538 0.9843061 0.1109186
vn 0.7071068 0.7071068 0
vn 0.7071068 0.7071068 0
vn 0.7071068 0.7071068 0
vn 0.7071068 0.7071068 0
vn -0.6832914 -0.7301458 0
vn -0.6832914 -0.7301458 0
vn -0.6832914 -0.7301458 0
vn -0.6832914 -0.7301458 0
vn 0.01960772 -0.01176465 0.9997385
vn 0.01960772 -0.01176465 0.9997385
vn 0.01960772 -0.01176465 0.9997385
vn 0.01960772 -0.01176465 0.9997385
vn 0.01960772 -0.01176465 0.9997385
vn -0.9921492 0.04313684 0.1173845
vn -0.9921492 0.04313684 0.1173845
vn -0.9921492 0.04313684 0.1173845
vn -0.9921492 0.04313684 0.1173845
g DSJ_GTA_daoJu_laJiTong_03_0
f 3/3/3 2/2/2 1/1/1
f 3/3/3 4/4/4 2/2/2
f 5/5/5 2/2/2 4/4/4
f 5/5/5 4/4/4 6/6/6
f 7/7/7 6/6/6 4/4/4
f 10/10/10 9/9/9 8/8/8
f 13/13/13 12/12/12 11/11/11
f 16/16/16 15/15/15 14/14/14
f 14/14/14 17/17/17 16/16/16
f 17/17/17 14/14/14 18/18/18
f 18/18/18 19/19/19 17/17/17
f 15/15/15 20/20/20 19/19/19
f 15/15/15 16/16/16 20/20/20
f 21/21/21 19/19/19 20/20/20
f 21/21/21 17/17/17 19/19/19
f 24/24/24 23/23/23 22/22/22
f 25/25/25 22/22/22 23/23/23
f 26/26/26 22/22/22 25/25/25
f 27/27/27 22/22/22 26/26/26
f 26/26/26 28/28/28 27/27/27
f 23/23/23 29/29/29 28/28/28
f 29/29/29 27/27/27 28/28/28
f 23/23/23 24/24/24 29/29/29
f 32/32/32 31/31/31 30/30/30
f 33/33/33 30/30/30 31/31/31
f 36/36/36 35/35/35 34/34/34
f 36/36/36 37/37/37 35/35/35
f 40/40/40 39/39/39 38/38/38
f 41/41/41 38/38/38 39/39/39
f 44/44/44 43/43/43 42/42/42
f 45/45/45 42/42/42 43/43/43
f 42/42/42 45/45/45 46/46/46
f 47/47/47 46/46/46 45/45/45
f 48/48/48 46/46/46 47/47/47
f 51/51/51 50/50/50 49/49/49
f 52/52/52 49/49/49 50/50/50
f 49/49/49 52/52/52 53/53/53
f 56/56/56 55/55/55 54/54/54
f 57/57/57 54/54/54 55/55/55
f 60/60/60 59/59/59 58/58/58
f 61/61/61 58/58/58 59/59/59
f 64/64/64 63/63/63 62/62/62
f 65/65/65 62/62/62 63/63/63
f 68/68/68 67/67/67 66/66/66
f 69/69/69 66/66/66 67/67/67
f 72/72/72 71/71/71 70/70/70
f 73/73/73 70/70/70 71/71/71
f 76/76/76 75/75/75 74/74/74
f 74/74/74 75/75/75 77/77/77
f 78/78/78 77/77/77 75/75/75
f 78/78/78 79/79/79 77/77/77
f 80/80/80 77/77/77 79/79/79
f 83/83/83 82/82/82 81/81/81
f 84/84/84 81/81/81 82/82/82
f 87/87/87 86/86/86 85/85/85
f 88/88/88 85/85/85 86/86/86
f 87/87/87 89/89/89 86/86/86
f 90/90/90 86/86/86 89/89/89
f 93/93/93 92/92/92 91/91/91
f 94/94/94 91/91/91 92/92/92
f 91/91/91 95/95/95 93/93/93
f 96/96/96 93/93/93 95/95/95
f 95/95/95 97/97/97 96/96/96
f 100/100/100 99/99/99 98/98/98
f 101/101/101 98/98/98 99/99/99
f 102/102/102 101/101/101 99/99/99
f 105/105/105 104/104/104 103/103/103
f 106/106/106 103/103/103 104/104/104
f 109/109/109 108/108/108 107/107/107
f 112/112/112 111/111/111 110/110/110
f 113/113/113 110/110/110 111/111/111
f 116/116/116 115/115/115 114/114/114
f 117/117/117 114/114/114 115/115/115
f 120/120/120 119/119/119 118/118/118
f 121/121/121 118/118/118 119/119/119
f 124/124/124 123/123/123 122/122/122
f 125/125/125 122/122/122 123/123/123
f 128/128/128 127/127/127 126/126/126
f 129/129/129 126/126/126 127/127/127
f 127/127/127 128/128/128 130/130/130
f 131/131/131 130/130/130 128/128/128
f 134/134/134 133/133/133 132/132/132
f 135/135/135 132/132/132 133/133/133
f 133/133/133 134/134/134 136/136/136
f 137/137/137 136/136/136 134/134/134
f 140/140/140 139/139/139 138/138/138
f 139/139/139 140/140/140 141/141/141
f 142/142/142 141/141/141 140/140/140
f 142/142/142 140/140/140 143/143/143
f 141/141/141 142/142/142 144/144/144
f 141/141/141 145/145/145 139/139/139
f 148/148/148 147/147/147 146/146/146
f 147/147/147 148/148/148 149/149/149
f 150/150/150 149/149/149 148/148/148
f 150/150/150 148/148/148 151/151/151
f 149/149/149 150/150/150 152/152/152
f 149/149/149 153/153/153 147/147/147
f 156/156/156 155/155/155 154/154/154
f 157/157/157 154/154/154 155/155/155
f 155/155/155 156/156/156 158/158/158
f 159/159/159 158/158/158 156/156/156
f 162/162/162 161/161/161 160/160/160
f 163/163/163 160/160/160 161/161/161
f 161/161/161 162/162/162 164/164/164
f 165/165/165 164/164/164 162/162/162
f 168/168/168 167/167/167 166/166/166
f 169/169/169 166/166/166 167/167/167
f 172/172/172 171/171/171 170/170/170
f 173/173/173 170/170/170 171/171/171
f 176/176/176 175/175/175 174/174/174
f 177/177/177 174/174/174 175/175/175
f 175/175/175 176/176/176 178/178/178
f 179/179/179 178/178/178 176/176/176
f 182/182/182 181/181/181 180/180/180
f 181/181/181 182/182/182 183/183/183
f 184/184/184 183/183/183 182/182/182
f 184/184/184 182/182/182 185/185/185
f 183/183/183 184/184/184 186/186/186
f 183/183/183 187/187/187 181/181/181
f 190/190/190 189/189/189 188/188/188
f 189/189/189 190/190/190 191/191/191
f 192/192/192 191/191/191 190/190/190
f 192/192/192 190/190/190 193/193/193
f 191/191/191 192/192/192 194/194/194
f 191/191/191 195/195/195 189/189/189
f 198/198/198 197/197/197 196/196/196
f 197/197/197 198/198/198 199/199/199
f 200/200/200 199/199/199 198/198/198
f 203/203/203 202/202/202 201/201/201
f 204/204/204 201/201/201 202/202/202
f 207/207/207 206/206/206 205/205/205
f 206/206/206 207/207/207 208/208/208
f 209/209/209 208/208/208 207/207/207
f 212/212/212 211/211/211 210/210/210
f 213/213/213 210/210/210 211/211/211
f 216/216/216 215/215/215 214/214/214
f 217/217/217 214/214/214 215/215/215
f 220/220/220 219/219/219 218/218/218
f 221/221/221 218/218/218 219/219/219
f 224/224/224 223/223/223 222/222/222
f 224/224/224 225/225/225 223/223/223
f 226/226/226 223/223/223 225/225/225
f 229/229/229 228/228/228 227/227/227
f 230/230/230 227/227/227 228/228/228
f 233/233/233 232/232/232 231/231/231
f 234/234/234 232/232/232 233/233/233
f 232/232/232 234/234/234 235/235/235
f 236/236/236 235/235/235 234/234/234
f 236/236/236 237/237/237 235/235/235
f 231/231/231 237/237/237 233/233/233
f 238/238/238 233/233/233 237/237/237
f 237/237/237 236/236/236 238/238/238
f 241/241/241 240/240/240 239/239/239
f 242/242/242 239/239/239 240/240/240
f 245/245/245 244/244/244 243/243/243
f 246/246/246 243/243/243 244/244/244
f 249/249/249 248/248/248 247/247/247
f 250/250/250 247/247/247 248/248/248
f 253/253/253 252/252/252 251/251/251
f 254/254/254 251/251/251 252/252/252
f 257/257/257 256/256/256 255/255/255
f 258/258/258 255/255/255 256/256/256
f 261/261/261 260/260/260 259/259/259
f 262/262/262 259/259/259 260/260/260
f 265/265/265 264/264/264 263/263/263
f 266/266/266 263/263/263 264/264/264
f 269/269/269 268/268/268 267/267/267
f 269/269/269 270/270/270 268/268/268
f 271/271/271 268/268/268 270/270/270
f 274/274/274 273/273/273 272/272/272
f 275/275/275 272/272/272 273/273/273
