g DSJ_GTA_daoJu_gongYe_06
v 3.041208 0.7572007 1.345692
v 3.101998 6.100951 -1.198883
v 3.101998 0.7572007 -1.198883
v 3.041208 6.100951 1.345692
v 1.345701 6.100951 -3.041169
v 1.345701 0.7572007 -3.041169
v 2.520056 6.882281 1.115082
v 1.955032E-05 7.100135 -9.775162E-06
v 2.570445 6.882281 -0.9934337
v 2.570445 6.882281 -0.9934337
v 1.955032E-05 7.100135 -9.775162E-06
v 1.115102 6.882281 -2.520036
v 3.101998 6.100951 -1.198883
v 1.115102 6.882281 -2.520036
v 1.345701 6.100951 -3.041169
v 2.570445 6.882281 -0.9934337
v 3.041208 6.100951 1.345692
v 2.570445 6.882281 -0.9934337
v 3.101998 6.100951 -1.198883
v 2.520056 6.882281 1.115082
v -3.041179 0.7572007 -1.345721
v -1.198902 6.100951 -3.101979
v -3.041179 6.100951 -1.345721
v -1.198902 0.7572007 -3.101979
v 1.345701 0.7572007 -3.041169
v 1.345701 6.100951 -3.041169
v -2.520026 6.882281 -1.115111
v -0.993453 6.882281 -2.570426
v 1.955032E-05 7.100135 -9.775162E-06
v -0.993453 6.882281 -2.570426
v 1.115102 6.882281 -2.520036
v 1.955032E-05 7.100135 -9.775162E-06
v -1.198902 6.100951 -3.101979
v 1.115102 6.882281 -2.520036
v -0.993453 6.882281 -2.570426
v 1.345701 6.100951 -3.041169
v -3.041179 6.100951 -1.345721
v -0.993453 6.882281 -2.570426
v -2.520026 6.882281 -1.115111
v -1.198902 6.100951 -3.101979
v 3.041208 0.7572007 1.345692
v 1.198931 6.100951 3.101959
v 3.041208 6.100951 1.345692
v 1.198931 0.7572007 3.101959
v -1.345662 6.100951 3.04115
v -1.345662 0.7572007 3.04115
v 2.520056 6.882281 1.115082
v 0.9934824 6.882281 2.570396
v 1.955032E-05 7.100135 -9.775162E-06
v 0.9934824 6.882281 2.570396
v -1.115063 6.882281 2.520007
v 1.955032E-05 7.100135 -9.775162E-06
v 1.198931 6.100951 3.101959
v -1.115063 6.882281 2.520007
v 0.9934824 6.882281 2.570396
v -1.345662 6.100951 3.04115
v 3.041208 6.100951 1.345692
v 0.9934824 6.882281 2.570396
v 2.520056 6.882281 1.115082
v 1.198931 6.100951 3.101959
v -3.041179 0.7572007 -1.345721
v -3.101989 6.100951 1.198853
v -3.101989 0.7572007 1.198853
v -3.041179 6.100951 -1.345721
v -1.345662 6.100951 3.04115
v -1.345662 0.7572007 3.04115
v -2.520026 6.882281 -1.115111
v 1.955032E-05 7.100135 -9.775162E-06
v -2.570415 6.882281 0.9934044
v -2.570415 6.882281 0.9934044
v 1.955032E-05 7.100135 -9.775162E-06
v -1.115063 6.882281 2.520007
v -3.101989 6.100951 1.198853
v -1.115063 6.882281 2.520007
v -1.345662 6.100951 3.04115
v -2.570415 6.882281 0.9934044
v -3.041179 6.100951 -1.345721
v -2.570415 6.882281 0.9934044
v -3.101989 6.100951 1.198853
v -2.520026 6.882281 -1.115111
v -3.041179 0.05626583 -1.345721
v -1.198902 0.7572007 -3.101979
v -3.041179 0.7572007 -1.345721
v -1.198902 0.05626583 -3.101979
v 1.345701 0.7572007 -3.041169
v 1.345701 0.05626583 -3.041169
v -3.041179 0.05626583 -1.345721
v -3.101989 0.7572007 1.198853
v -3.101989 0.05626583 1.198853
v -3.041179 0.7572007 -1.345721
v -1.345662 0.7572007 3.04115
v -1.345662 0.05626583 3.04115
v 1.198931 0.05626583 3.101959
v -1.345662 0.7572007 3.04115
v 1.198931 0.7572007 3.101959
v -1.345662 0.05626583 3.04115
v 3.041208 0.05626583 1.345692
v 3.041208 0.7572007 1.345692
v 3.041208 0.05626583 1.345692
v 3.101998 0.7572007 -1.198883
v 3.101998 0.05626583 -1.198883
v 3.041208 0.7572007 1.345692
v 1.345701 0.7572007 -3.041169
v 1.345701 0.05626583 -3.041169
vt 0.02119074 0.8221006
vt 0.2336033 0.9043567
vt 0.02119074 0.9043567
vt 0.2336033 0.8221006
vt 0.2336033 0.9866128
vt 0.02119074 0.9866128
vt 0.1518041 0.9616751
vt 0.09730084 0.8247094
vt 0.04452194 0.9623384
vt 0.04452194 0.9623384
vt 0.09730084 0.8247094
vt 0.1518041 0.9616751
vt 0.02085175 0.9864359
vt 0.1956957 0.9044304
vt 0.2119229 0.9867308
vt 0.0373295 0.9041799
vt 0.2119229 0.9867455
vt 0.0373295 0.9041799
vt 0.02085175 0.9864359
vt 0.1956957 0.9044304
vt 0.02119074 0.8221006
vt 0.2336033 0.9043567
vt 0.2336033 0.8221006
vt 0.02119074 0.9043567
vt 0.02119074 0.9866128
vt 0.2336033 0.9866128
vt 0.1518041 0.9616751
vt 0.04452194 0.9623384
vt 0.09730084 0.8247094
vt 0.04452194 0.9623384
vt 0.1518041 0.9616751
vt 0.09730084 0.8247094
vt 0.02085175 0.9864359
vt 0.1956957 0.9044304
vt 0.0373295 0.9041799
vt 0.2119229 0.9867308
vt 0.2119229 0.9867455
vt 0.0373295 0.9041799
vt 0.1956957 0.9044304
vt 0.02085175 0.9864359
vt 0.02119074 0.9862738
vt 0.2336033 0.9040177
vt 0.2336033 0.9862738
vt 0.02119074 0.9040177
vt 0.2336033 0.8217764
vt 0.02119074 0.8217764
vt 0.04574524 0.9646376
vt 0.152998 0.9621025
vt 0.09615123 0.8261095
vt 0.152998 0.9621025
vt 0.04574524 0.9646376
vt 0.09615123 0.8261095
vt 0.02085175 0.9864065
vt 0.1956957 0.9044009
vt 0.0373295 0.9041504
vt 0.2119229 0.9867013
vt 0.2119229 0.9867013
vt 0.0373295 0.9041504
vt 0.1956957 0.9044009
vt 0.02085175 0.9864065
vt 0.02119074 0.9862738
vt 0.2336033 0.9040177
vt 0.02119074 0.9040177
vt 0.2336033 0.9862738
vt 0.2336033 0.8217764
vt 0.02119074 0.8217764
vt 0.04574524 0.9646376
vt 0.09615123 0.8261095
vt 0.152998 0.9621025
vt 0.152998 0.9621025
vt 0.09615123 0.8261095
vt 0.04574524 0.9646376
vt 0.02085175 0.9864065
vt 0.1956957 0.9044009
vt 0.2119229 0.9867013
vt 0.0373295 0.9041504
vt 0.2119229 0.9867013
vt 0.0373295 0.9041504
vt 0.02085175 0.9864065
vt 0.1956957 0.9044009
vt 0.7897052 0.7017895
vt 0.8719613 0.7296454
vt 0.7897052 0.7296454
vt 0.8719613 0.7017895
vt 0.9542027 0.7296454
vt 0.9542027 0.7017895
vt 0.9538342 0.7017895
vt 0.8715928 0.7296454
vt 0.8715928 0.7017895
vt 0.9538342 0.7296454
vt 0.7893515 0.7296454
vt 0.7893515 0.7017895
vt 0.8715928 0.7017895
vt 0.7893515 0.7296454
vt 0.8715928 0.7296454
vt 0.7893515 0.7017895
vt 0.9538342 0.7017895
vt 0.9538342 0.7296454
vt 0.7897052 0.7017895
vt 0.8719613 0.7296454
vt 0.8719613 0.7017895
vt 0.7897052 0.7296454
vt 0.9542027 0.7296454
vt 0.9542027 0.7017895
vn 0.9175981 -0.0004859567 0.3975092
vn 0.9024392 0.2875327 -0.3208247
vn 0.932757 -0.0004859567 -0.3605055
vn 0.8872803 0.2875327 0.3606362
vn 0.4021962 0.2875327 -0.8692313
vn 0.4097757 -0.0004859567 -0.9121862
vn 0.07628036 0.9924206 0.0963465
vn 0.0004859567 0.9924206 -0.1228864
vn 0.07628036 0.9924206 -0.0963465
vn 0.07628036 0.9924206 -0.0963465
vn 0.0004859567 0.9924206 -0.1228864
vn 0.03838313 0.9924206 -0.1167393
vn 0.9024392 0.2875327 -0.3208247
vn 0.3415607 0.5831309 -0.7370852
vn 0.4021962 0.2875327 -0.8692313
vn 0.7660093 0.5831309 -0.2705329
vn 0.8872803 0.2875327 0.3606362
vn 0.7660093 0.5831309 -0.2705329
vn 0.9024392 0.2875327 -0.3208247
vn 0.7508504 0.5831309 0.3101322
vn -0.9090467 -0.0004859567 -0.4166939
vn -0.3405889 0.2875327 -0.8951671
vn -0.8711496 0.2875327 -0.3980243
vn -0.3557478 -0.0004859567 -0.9345819
vn 0.4097757 -0.0004859567 -0.9121862
vn 0.4021962 0.2875327 -0.8692313
vn -0.06772906 0.9924206 -0.1025382
vn -0.02225238 0.9924206 -0.1208558
vn 0.0004859567 0.9924206 -0.1228864
vn -0.02225238 0.9924206 -0.1208558
vn 0.03838313 0.9924206 -0.1167393
vn 0.0004859567 0.9924206 -0.1228864
vn -0.3405889 0.2875327 -0.8951671
vn 0.3415607 0.5831309 -0.7370852
vn -0.2875327 0.5831309 -0.7597916
vn 0.4021962 0.2875327 -0.8692313
vn -0.8711496 0.2875327 -0.3980243
vn -0.2875327 0.5831309 -0.7597916
vn -0.7347197 0.5831309 -0.3466198
vn -0.3405889 0.2875327 -0.8951671
vn 0.9175981 -0.0004859567 0.3975092
vn 0.3491402 0.2875327 0.8918666
vn 0.8872803 0.2875327 0.3606362
vn 0.3718784 -0.0004859567 0.9282813
vn -0.3860654 0.2875327 0.8765149
vn -0.4012243 -0.0004859567 0.9159797
vn 0.07628036 0.9924206 0.0963465
vn 0.03080368 0.9924206 0.1189641
vn 0.0004859567 0.9924206 -0.1228864
vn 0.03080368 0.9924206 0.1189641
vn -0.02983183 0.9924206 0.1192114
vn 0.0004859567 0.9924206 -0.1228864
vn 0.3491402 0.2875327 0.8918666
vn -0.32543 0.5831309 0.7443478
vn 0.3036635 0.5831309 0.7534898
vn -0.3860654 0.2875327 0.8765149
vn 0.8872803 0.2875327 0.3606362
vn 0.3036635 0.5831309 0.7534898
vn 0.7508504 0.5831309 0.3101322
vn 0.3491402 0.2875327 0.8918666
vn -0.9090467 -0.0004859567 -0.4166939
vn -0.8863085 0.2875327 0.3630182
vn -0.931785 -0.0004859567 0.3630102
vn -0.8711496 0.2875327 -0.3980243
vn -0.3860654 0.2875327 0.8765149
vn -0.4012243 -0.0004859567 0.9159797
vn -0.06772906 0.9924206 -0.1025382
vn 0.0004859567 0.9924206 -0.1228864
vn -0.06772906 0.9924206 0.1025382
vn -0.06772906 0.9924206 0.1025382
vn 0.0004859567 0.9924206 -0.1228864
vn -0.02983183 0.9924206 0.1192114
vn -0.8863085 0.2875327 0.3630182
vn -0.32543 0.5831309 0.7443478
vn -0.3860654 0.2875327 0.8765149
vn -0.7498786 0.5831309 0.3124747
vn -0.8711496 0.2875327 -0.3980243
vn -0.7498786 0.5831309 0.3124747
vn -0.8863085 0.2875327 0.3630182
vn -0.7347197 0.5831309 -0.3466198
vn -0.9090467 -0.0004859567 -0.4166939
vn -0.3557478 -0.0004859567 -0.9345819
vn -0.9090467 -0.0004859567 -0.4166939
vn -0.3557478 -0.0004859567 -0.9345819
vn 0.4097757 -0.0004859567 -0.9121862
vn 0.4097757 -0.0004859567 -0.9121862
vn -0.9090467 -0.0004859567 -0.4166939
vn -0.931785 -0.0004859567 0.3630102
vn -0.931785 -0.0004859567 0.3630102
vn -0.9090467 -0.0004859567 -0.4166939
vn -0.4012243 -0.0004859567 0.9159797
vn -0.4012243 -0.0004859567 0.9159797
vn 0.3718784 -0.0004859567 0.9282813
vn -0.4012243 -0.0004859567 0.9159797
vn 0.3718784 -0.0004859567 0.9282813
vn -0.4012243 -0.0004859567 0.9159797
vn 0.9175981 -0.0004859567 0.3975092
vn 0.9175981 -0.0004859567 0.3975092
vn 0.9175981 -0.0004859567 0.3975092
vn 0.932757 -0.0004859567 -0.3605055
vn 0.932757 -0.0004859567 -0.3605055
vn 0.9175981 -0.0004859567 0.3975092
vn 0.4097757 -0.0004859567 -0.9121862
vn 0.4097757 -0.0004859567 -0.9121862
g DSJ_GTA_daoJu_gongYe_06_0
f 3/3/3 2/2/2 1/1/1
f 2/2/2 4/4/4 1/1/1
f 5/5/5 2/2/2 3/3/3
f 6/6/6 5/5/5 3/3/3
f 9/9/9 8/8/8 7/7/7
f 12/12/12 11/11/11 10/10/10
f 15/15/15 14/14/14 13/13/13
f 14/14/14 16/16/16 13/13/13
f 19/19/19 18/18/18 17/17/17
f 18/18/18 20/20/20 17/17/17
f 23/23/23 22/22/22 21/21/21
f 22/22/22 24/24/24 21/21/21
f 24/24/24 22/22/22 25/25/25
f 22/22/22 26/26/26 25/25/25
f 29/29/29 28/28/28 27/27/27
f 32/32/32 31/31/31 30/30/30
f 35/35/35 34/34/34 33/33/33
f 34/34/34 36/36/36 33/33/33
f 39/39/39 38/38/38 37/37/37
f 38/38/38 40/40/40 37/37/37
f 43/43/43 42/42/42 41/41/41
f 42/42/42 44/44/44 41/41/41
f 42/42/42 45/45/45 44/44/44
f 45/45/45 46/46/46 44/44/44
f 49/49/49 48/48/48 47/47/47
f 52/52/52 51/51/51 50/50/50
f 55/55/55 54/54/54 53/53/53
f 54/54/54 56/56/56 53/53/53
f 59/59/59 58/58/58 57/57/57
f 58/58/58 60/60/60 57/57/57
f 63/63/63 62/62/62 61/61/61
f 62/62/62 64/64/64 61/61/61
f 65/65/65 62/62/62 63/63/63
f 66/66/66 65/65/65 63/63/63
f 69/69/69 68/68/68 67/67/67
f 72/72/72 71/71/71 70/70/70
f 75/75/75 74/74/74 73/73/73
f 74/74/74 76/76/76 73/73/73
f 79/79/79 78/78/78 77/77/77
f 78/78/78 80/80/80 77/77/77
f 83/83/83 82/82/82 81/81/81
f 82/82/82 84/84/84 81/81/81
f 82/82/82 85/85/85 84/84/84
f 85/85/85 86/86/86 84/84/84
f 89/89/89 88/88/88 87/87/87
f 88/88/88 90/90/90 87/87/87
f 91/91/91 88/88/88 89/89/89
f 92/92/92 91/91/91 89/89/89
f 95/95/95 94/94/94 93/93/93
f 94/94/94 96/96/96 93/93/93
f 95/95/95 93/93/93 97/97/97
f 98/98/98 95/95/95 97/97/97
f 101/101/101 100/100/100 99/99/99
f 100/100/100 102/102/102 99/99/99
f 103/103/103 100/100/100 101/101/101
f 104/104/104 103/103/103 101/101/101
