g DSJ_GTA_diLou_24
v 6.538977 6.49591 -7.34289
v 6.582043 6.49591 7.299823
v -6.538977 6.49591 -7.314179
v -6.49591 6.49591 7.34289
v 6.538977 -6.538977 -7.34289
v 6.582043 -6.538977 7.299823
v 6.538977 6.49591 -7.34289
v 6.582043 6.49591 7.299823
v -6.538977 -6.538977 -7.314179
v 6.538977 -6.538977 -7.34289
v -6.538977 6.49591 -7.314179
v 6.538977 6.49591 -7.34289
v -6.49591 -6.538977 7.34289
v -6.538977 -6.538977 -7.314179
v -6.49591 6.49591 7.34289
v -6.538977 6.49591 -7.314179
v 6.582043 -6.538977 7.299823
v -6.49591 -6.538977 7.34289
v 6.582043 6.49591 7.299823
v -6.49591 6.49591 7.34289
vt 0.4563691 0.2549463
vt 0.3005515 0.2549463
vt 0.4563691 0.490573
vt 0.3005515 0.490573
vt 0.2587467 0.2549463
vt 0.2587467 0.490573
vt 0.4563691 0.2549463
vt 0.4563691 0.490573
vt 0.2587467 0.2549463
vt 0.2587467 0.490573
vt 0.4563691 0.2549463
vt 0.4563691 0.490573
vt 0.2587467 0.2549463
vt 0.2587467 0.490573
vt 0.4563691 0.2549463
vt 0.4563691 0.490573
vt 0.2587467 0.2549463
vt 0.2587467 0.490573
vt 0.4563691 0.2549463
vt 0.4563691 0.490573
vn 0.01587099 0.9998741 0
vn 0.01587099 0.9998741 0
vn 0.01587099 0.9998741 0
vn 0.01587099 0.9998741 0
vn 0.9998741 -0.01587099 0
vn 0.9998741 -0.01587099 0
vn 0.9998741 -0.01587099 0
vn 0.9998741 -0.01587099 0
vn 0.04761302 -0.04761302 -0.9977304
vn 0.04761302 -0.04761302 -0.9977304
vn 0.04761302 -0.04761302 -0.9977304
vn 0.04761302 -0.04761302 -0.9977304
vn -0.9681321 -0.04761302 0.2458723
vn -0.9681321 -0.04761302 0.2458723
vn -0.9681321 -0.04761302 0.2458723
vn -0.9681321 -0.04761302 0.2458723
vn 0.04761302 -0.04761302 0.9977304
vn 0.04761302 -0.04761302 0.9977304
vn 0.04761302 -0.04761302 0.9977304
vn 0.04761302 -0.04761302 0.9977304
g DSJ_GTA_diLou_24_0
f 3/3/3 2/2/2 1/1/1
f 4/4/4 2/2/2 3/3/3
f 7/7/7 6/6/6 5/5/5
f 8/8/8 6/6/6 7/7/7
f 11/11/11 10/10/10 9/9/9
f 12/12/12 10/10/10 11/11/11
f 15/15/15 14/14/14 13/13/13
f 16/16/16 14/14/14 15/15/15
f 19/19/19 18/18/18 17/17/17
f 20/20/20 18/18/18 19/19/19
