g DSJ_GTA_diLou_15
v -0.007376194 -2.544796 -0.4794545
v -0.007376194 -7.545875 -0.4794545
v 0.5532165 -2.544796 -0.2729201
v 0.5532165 -7.545875 -0.2729201
v -0.5974746 -2.544796 -0.228663
v -0.5974746 -7.545875 -0.228663
v -0.007376194 -2.544796 -0.4794545
v -0.007376194 -7.545875 -0.4794545
v 0.5532165 -2.544796 -0.2729201
v 0.5532165 -7.545875 -0.2729201
v 0.5532165 -2.544796 -0.1253958
v 0.5532165 -7.545875 -0.1253958
v -0.5974746 -2.544796 -0.228663
v -0.5974746 2.677569 -0.228663
v -0.5827212 -2.544796 -0.09589052
v -0.5827212 2.677569 -0.09589052
v 0.5532165 -2.544796 -0.1253958
v -0.5827212 -2.544796 -0.09589052
v 0.5532165 2.677569 -0.1253958
v -0.5827212 2.677569 -0.09589052
v 0.5532165 2.677569 -0.2729201
v -0.007376194 2.677569 -0.4794545
v 0.5532165 -2.544796 -0.2729201
v -0.007376194 -2.544796 -0.4794545
v -0.007376194 2.677569 -0.4794545
v -0.5974746 2.677569 -0.228663
v -0.007376194 -2.544796 -0.4794545
v -0.5974746 -2.544796 -0.228663
v 0.5532165 2.677569 -0.1253958
v 0.5532165 2.677569 -0.2729201
v 0.5532165 -2.544796 -0.1253958
v 0.5532165 -2.544796 -0.2729201
v -0.5827212 -7.545875 -0.09589052
v -0.5974746 -7.545875 -0.228663
v -0.5827212 -2.544796 -0.09589052
v -0.5974746 -2.544796 -0.228663
v 0.5532165 -7.545875 -0.1253958
v -0.5827212 -7.545875 -0.09589052
v 0.5532165 -2.544796 -0.1253958
v -0.5827212 -2.544796 -0.09589052
v 0.5679688 -7.545875 0.1991582
v 0.007376194 -7.545875 0.4647021
v 0.5679688 -2.544796 0.1991582
v 0.007376194 -2.544796 0.4647021
v 0.007376194 -7.545875 0.4647021
v -0.5827212 -7.545875 0.228663
v 0.007376194 -2.544796 0.4647021
v -0.5827212 -2.544796 0.228663
v 0.5532165 -7.545875 0.08113861
v 0.5679688 -7.545875 0.1991582
v 0.5532165 -2.544796 0.08113861
v 0.5679688 -2.544796 0.1991582
v -0.5827212 2.677569 0.1106434
v -0.5827212 2.677569 0.228663
v -0.5827212 -2.544796 0.1106434
v -0.5827212 -2.544796 0.228663
v -0.5827212 2.677569 0.1106434
v -0.5827212 -2.544796 0.1106434
v 0.5532165 2.677569 0.08113861
v 0.5532165 -2.544796 0.08113861
v 0.007376194 -2.544796 0.4647021
v 0.007376194 2.677569 0.4647021
v 0.5679688 -2.544796 0.1991582
v 0.5679688 2.677569 0.1991582
v -0.5827212 -2.544796 0.228663
v -0.5827212 2.677569 0.228663
v 0.007376194 -2.544796 0.4647021
v 0.007376194 2.677569 0.4647021
v 0.5679688 -2.544796 0.1991582
v 0.5679688 2.677569 0.1991582
v 0.5532165 -2.544796 0.08113861
v 0.5532165 2.677569 0.08113861
v -0.5827212 -2.544796 0.228663
v -0.5827212 -7.545875 0.228663
v -0.5827212 -2.544796 0.1106434
v -0.5827212 -7.545875 0.1106434
v -0.5827212 -2.544796 0.1106434
v -0.5827212 -7.545875 0.1106434
v 0.5532165 -2.544796 0.08113861
v 0.5532165 -7.545875 0.08113861
v 1.895689 6.42469 -0.5679688
v 0.007376194 7.545875 -0.5237117
v 1.895689 5.111722 -0.5679688
v 0.007376194 2.648064 -0.5237117
v 4.167565 3.887269 -0.6269789
v 2.500539 3.223409 -0.5827212
v 3.784002 3.223409 -0.6122265
v 2.500539 2.648064 -0.5827212
v -1.880937 5.111722 -0.4794545
v -4.167566 3.887269 -0.4351969
v -2.500539 3.223409 -0.4794545
v -3.784002 3.223409 -0.4499493
v -1.880937 6.42469 -0.4794545
v -2.500539 2.648064 -0.4794545
v -1.866185 6.42469 0.5532165
v 0.02212858 7.545875 0.5089593
v -1.866185 5.111722 0.5532165
v 0.02212858 2.648064 0.5089593
v -4.123309 3.887269 0.612227
v -2.485787 3.223409 0.5679688
v -3.769249 3.223409 0.5974746
v -2.485787 2.648064 0.5679688
v 1.910441 5.111722 0.4499497
v 4.182318 3.887269 0.3909397
v 2.530044 3.223409 0.4351974
v 3.813507 3.223409 0.4056926
v 1.910441 6.42469 0.4499497
v 2.530044 2.648064 0.4351974
v -1.748165 -2.087471 -0.4794545
v 1.703907 -2.087471 -0.5679688
v -1.748165 -1.276086 -0.4794545
v 1.703907 -1.276086 -0.5679688
v -1.231829 -0.804008 -0.4942069
v 1.172819 -0.804008 -0.5532165
v -2.32351 0.3466825 -0.4794545
v 2.294005 0.3466825 -0.5827212
v 1.733412 -2.087471 0.4499497
v -1.733412 -2.087471 0.5532165
v 1.733412 -1.276086 0.4499497
v -1.733412 -1.276086 0.5532165
v 1.217076 -0.804008 0.4647021
v -1.202324 -0.804008 0.5384641
v 2.308757 0.3466825 0.4351974
v -2.308757 0.3466825 0.5679688
vt 0.9692971 0.4932868
vt 0.9692971 0.2474782
vt 0.9497885 0.4932868
vt 0.9497885 0.2474782
vt 0.9888057 0.4932868
vt 0.9888057 0.2474782
vt 0.9692971 0.4932868
vt 0.9692971 0.2474782
vt 0.9888057 0.4932868
vt 0.9888057 0.2474782
vt 0.9966092 0.4932868
vt 0.9966092 0.2474782
vt 0.9888057 0.2474782
vt 0.9888057 0.4932868
vt 0.9966092 0.2474782
vt 0.9966092 0.4932868
vt 0.9966092 0.2474782
vt 0.9888057 0.2474782
vt 0.9966092 0.4932868
vt 0.9888057 0.4932868
vt 0.9497885 0.4932868
vt 0.9692971 0.4932868
vt 0.9497885 0.2474782
vt 0.9692971 0.2474782
vt 0.9692971 0.4932868
vt 0.9888057 0.4932868
vt 0.9692971 0.2474782
vt 0.9888057 0.2474782
vt 0.9966092 0.4932868
vt 0.9888057 0.4932868
vt 0.9966092 0.2474782
vt 0.9888057 0.2474782
vt 0.9966092 0.2474782
vt 0.9888057 0.2474782
vt 0.9966092 0.4932868
vt 0.9888057 0.4932868
vt 0.9966092 0.2474782
vt 0.9888057 0.2474782
vt 0.9966092 0.4932868
vt 0.9888057 0.4932868
vt 0.9497885 0.2474782
vt 0.9692971 0.2474782
vt 0.9497885 0.4932868
vt 0.9692971 0.4932868
vt 0.9692971 0.2474782
vt 0.9888057 0.2474782
vt 0.9692971 0.4932868
vt 0.9888057 0.4932868
vt 0.9966092 0.2474782
vt 0.9888057 0.2474782
vt 0.9966092 0.4932868
vt 0.9888057 0.4932868
vt 0.9966092 0.4932868
vt 0.9888057 0.4932868
vt 0.9966092 0.2474782
vt 0.9888057 0.2474782
vt 0.9888057 0.4932868
vt 0.9888057 0.2474782
vt 0.9966092 0.4932868
vt 0.9966092 0.2474782
vt 0.9692971 0.2474782
vt 0.9692971 0.4932868
vt 0.9497885 0.2474782
vt 0.9497885 0.4932868
vt 0.9888057 0.2474782
vt 0.9888057 0.4932868
vt 0.9692971 0.2474782
vt 0.9692971 0.4932868
vt 0.9888057 0.2474782
vt 0.9888057 0.4932868
vt 0.9966092 0.2474782
vt 0.9966092 0.4932868
vt 0.9888057 0.4932868
vt 0.9888057 0.2474782
vt 0.9966092 0.4932868
vt 0.9966092 0.2474782
vt 0.9888057 0.4932868
vt 0.9888057 0.2474782
vt 0.9966092 0.4932868
vt 0.9966092 0.2474782
vt 0.532304 0.4425644
vt 0.5791247 0.4737782
vt 0.532304 0.4074489
vt 0.5791247 0.3450213
vt 0.4698765 0.3762351
vt 0.5127954 0.3645299
vt 0.4815816 0.3645299
vt 0.5127954 0.3450213
vt 0.6298471 0.4074489
vt 0.6961765 0.3762351
vt 0.645454 0.3645299
vt 0.6844712 0.3645299
vt 0.6298471 0.4425644
vt 0.645454 0.3450213
vt 0.532304 0.4425644
vt 0.5791247 0.4737782
vt 0.532304 0.4074489
vt 0.5791247 0.3450213
vt 0.4698765 0.3762351
vt 0.5127954 0.3645299
vt 0.4815816 0.3645299
vt 0.5127954 0.3450213
vt 0.6298471 0.4074489
vt 0.6961765 0.3762351
vt 0.645454 0.3645299
vt 0.6844712 0.3645299
vt 0.6298471 0.4425644
vt 0.645454 0.3450213
vt 0.2708885 0.001669593
vt 0.1460334 0.001669593
vt 0.2708885 0.03288338
vt 0.1460334 0.03288338
vt 0.2474782 0.05629373
vt 0.165542 0.05629373
vt 0.2864954 0.1031144
vt 0.122623 0.1031144
vt 0.2708885 0.001669593
vt 0.1460334 0.001669593
vt 0.2708885 0.03288338
vt 0.1460334 0.03288338
vt 0.2474782 0.05629373
vt 0.165542 0.05629373
vt 0.2864954 0.1031144
vt 0.122623 0.1031144
vn 0.3967171 -0.01586539 -0.9178038
vn 0.3967171 -0.01586539 -0.9178038
vn 0.3967171 -0.01586539 -0.9178038
vn 0.3967171 -0.01586539 -0.9178038
vn -0.396724 -0.01586539 -0.9178008
vn -0.396724 -0.01586539 -0.9178008
vn -0.396724 -0.01586539 -0.9178008
vn -0.396724 -0.01586539 -0.9178008
vn 0.9997323 -0.01586539 -0.01684039
vn 0.9997323 -0.01586539 -0.01684039
vn 0.9997323 -0.01586539 -0.01684039
vn 0.9997323 -0.01586539 -0.01684039
vn -0.9680015 -0.01586539 0.2504422
vn -0.9680015 -0.01586539 0.2504422
vn -0.9680015 -0.01586539 0.2504422
vn -0.9680015 -0.01586539 0.2504422
vn 0.04760301 -0.01586539 0.9987403
vn 0.04760301 -0.01586539 0.9987403
vn 0.04760301 -0.01586539 0.9987403
vn 0.04760301 -0.01586539 0.9987403
vn 0.3967171 -0.01586539 -0.9178038
vn 0.3967171 -0.01586539 -0.9178038
vn 0.3967171 -0.01586539 -0.9178038
vn 0.3967171 -0.01586539 -0.9178038
vn -0.396724 -0.01586539 -0.9178008
vn -0.396724 -0.01586539 -0.9178008
vn -0.396724 -0.01586539 -0.9178008
vn -0.396724 -0.01586539 -0.9178008
vn 0.9997323 -0.01586539 -0.01684039
vn 0.9997323 -0.01586539 -0.01684039
vn 0.9997323 -0.01586539 -0.01684039
vn 0.9997323 -0.01586539 -0.01684039
vn -0.9680015 -0.01586539 0.2504422
vn -0.9680015 -0.01586539 0.2504422
vn -0.9680015 -0.01586539 0.2504422
vn -0.9680015 -0.01586539 0.2504422
vn 0.04760301 -0.01586539 0.9987403
vn 0.04760301 -0.01586539 0.9987403
vn 0.04760301 -0.01586539 0.9987403
vn 0.04760301 -0.01586539 0.9987403
vn 0.4284548 -0.01586539 0.9034239
vn 0.4284548 -0.01586539 0.9034239
vn 0.4284548 -0.01586539 0.9034239
vn 0.4284548 -0.01586539 0.9034239
vn -0.3649864 -0.01586539 0.9308777
vn -0.3649864 -0.01586539 0.9308777
vn -0.3649864 -0.01586539 0.9308777
vn -0.3649864 -0.01586539 0.9308777
vn 0.9997323 -0.01586539 -0.01684039
vn 0.9997323 -0.01586539 -0.01684039
vn 0.9997323 -0.01586539 -0.01684039
vn 0.9997323 -0.01586539 -0.01684039
vn -0.9680015 -0.01586539 0.2504422
vn -0.9680015 -0.01586539 0.2504422
vn -0.9680015 -0.01586539 0.2504422
vn -0.9997392 -0.01586539 0.0164247
vn -0.0158723 -0.01586539 -0.9997481
vn -0.0158723 -0.01586539 -0.9997481
vn -0.0158723 -0.01586539 -0.9997481
vn -0.0158723 -0.01586539 -0.9997481
vn 0.4284548 -0.01586539 0.9034239
vn 0.4284548 -0.01586539 0.9034239
vn 0.4284548 -0.01586539 0.9034239
vn 0.4284548 -0.01586539 0.9034239
vn -0.3649864 -0.01586539 0.9308777
vn -0.3649864 -0.01586539 0.9308777
vn -0.3649864 -0.01586539 0.9308777
vn -0.3649864 -0.01586539 0.9308777
vn 0.9997323 -0.01586539 -0.01684039
vn 0.9997323 -0.01586539 -0.01684039
vn 0.9997323 -0.01586539 -0.01684039
vn 0.9997323 -0.01586539 -0.01684039
vn -0.9997392 -0.01586539 0.0164247
vn -0.9997392 -0.01586539 0.0164247
vn -0.9997392 -0.01586539 0.0164247
vn -0.9997392 -0.01586539 0.0164247
vn -0.0158723 -0.01586539 -0.9997481
vn -0.0158723 -0.01586539 -0.9997481
vn -0.0158723 -0.01586539 -0.9997481
vn -0.0158723 -0.01586539 -0.9997481
vn -0.0158723 -0.01586539 -0.9997481
vn -0.0158723 -0.01586539 -0.9997481
vn -0.0158723 -0.01586539 -0.9997481
vn -0.0158723 -0.01586539 -0.9997481
vn -0.0158723 -0.01586539 -0.9997481
vn -0.0158723 -0.01586539 -0.9997481
vn -0.0158723 -0.01586539 -0.9997481
vn -0.0158723 -0.01586539 -0.9997481
vn -0.0158723 -0.01586539 -0.9997481
vn -0.0158723 -0.01586539 -0.9997481
vn -0.0158723 -0.01586539 -0.9997481
vn -0.0158723 -0.01586539 -0.9997481
vn -0.0158723 -0.01586539 -0.9997481
vn -0.0158723 -0.01586539 -0.9997481
vn 0.04760301 -0.01586539 0.9987403
vn 0.04760301 -0.01586539 0.9987403
vn 0.04760301 -0.01586539 0.9987403
vn 0.04760301 -0.01586539 0.9987403
vn 0.04760301 -0.01586539 0.9987403
vn 0.04760301 -0.01586539 0.9987403
vn 0.04760301 -0.01586539 0.9987403
vn 0.04760301 -0.01586539 0.9987403
vn 0.04760301 -0.01586539 0.9987403
vn 0.04760301 -0.01586539 0.9987403
vn 0.04760301 -0.01586539 0.9987403
vn 0.04760301 -0.01586539 0.9987403
vn 0.04760301 -0.01586539 0.9987403
vn 0.04760301 -0.01586539 0.9987403
vn -0.0158723 -0.01586539 -0.9997481
vn -0.0158723 -0.01586539 -0.9997481
vn -0.0158723 -0.01586539 -0.9997481
vn -0.0158723 -0.01586539 -0.9997481
vn -0.0158723 -0.01586539 -0.9997481
vn -0.0158723 -0.01586539 -0.9997481
vn -0.0158723 -0.01586539 -0.9997481
vn -0.0158723 -0.01586539 -0.9997481
vn 0.04760301 -0.01586539 0.9987403
vn 0.04760301 -0.01586539 0.9987403
vn 0.04760301 -0.01586539 0.9987403
vn 0.04760301 -0.01586539 0.9987403
vn 0.04760301 -0.01586539 0.9987403
vn 0.04760301 -0.01586539 0.9987403
vn 0.04760301 -0.01586539 0.9987403
vn 0.04760301 -0.01586539 0.9987403
g DSJ_GTA_diLou_15_0
f 3/3/3 2/2/2 1/1/1
f 4/4/4 2/2/2 3/3/3
f 7/7/7 6/6/6 5/5/5
f 8/8/8 6/6/6 7/7/7
f 11/11/11 10/10/10 9/9/9
f 12/12/12 10/10/10 11/11/11
f 15/15/15 14/14/14 13/13/13
f 16/16/16 14/14/14 15/15/15
f 19/19/19 18/18/18 17/17/17
f 20/20/20 18/18/18 19/19/19
f 23/23/23 22/22/22 21/21/21
f 24/24/24 22/22/22 23/23/23
f 27/27/27 26/26/26 25/25/25
f 28/28/28 26/26/26 27/27/27
f 31/31/31 30/30/30 29/29/29
f 32/32/32 30/30/30 31/31/31
f 35/35/35 34/34/34 33/33/33
f 36/36/36 34/34/34 35/35/35
f 39/39/39 38/38/38 37/37/37
f 40/40/40 38/38/38 39/39/39
f 43/43/43 42/42/42 41/41/41
f 44/44/44 42/42/42 43/43/43
f 47/47/47 46/46/46 45/45/45
f 48/48/48 46/46/46 47/47/47
f 51/51/51 50/50/50 49/49/49
f 52/52/52 50/50/50 51/51/51
f 55/55/55 54/54/54 53/53/53
f 56/56/56 54/54/54 55/55/55
f 59/59/59 58/58/58 57/57/57
f 60/60/60 58/58/58 59/59/59
f 63/63/63 62/62/62 61/61/61
f 64/64/64 62/62/62 63/63/63
f 67/67/67 66/66/66 65/65/65
f 68/68/68 66/66/66 67/67/67
f 71/71/71 70/70/70 69/69/69
f 72/72/72 70/70/70 71/71/71
f 75/75/75 74/74/74 73/73/73
f 76/76/76 74/74/74 75/75/75
f 79/79/79 78/78/78 77/77/77
f 80/80/80 78/78/78 79/79/79
f 83/83/83 82/82/82 81/81/81
f 84/84/84 82/82/82 83/83/83
f 85/85/85 84/84/84 83/83/83
f 86/86/86 84/84/84 85/85/85
f 87/87/87 86/86/86 85/85/85
f 84/84/84 86/86/86 88/88/88
f 82/82/82 84/84/84 89/89/89
f 89/89/89 84/84/84 90/90/90
f 84/84/84 91/91/91 90/90/90
f 90/90/90 91/91/91 92/92/92
f 93/93/93 82/82/82 89/89/89
f 94/94/94 91/91/91 84/84/84
f 97/97/97 96/96/96 95/95/95
f 98/98/98 96/96/96 97/97/97
f 99/99/99 98/98/98 97/97/97
f 100/100/100 98/98/98 99/99/99
f 101/101/101 100/100/100 99/99/99
f 98/98/98 100/100/100 102/102/102
f 96/96/96 98/98/98 103/103/103
f 103/103/103 98/98/98 104/104/104
f 98/98/98 105/105/105 104/104/104
f 104/104/104 105/105/105 106/106/106
f 107/107/107 96/96/96 103/103/103
f 108/108/108 105/105/105 98/98/98
f 111/111/111 110/110/110 109/109/109
f 112/112/112 110/110/110 111/111/111
f 113/113/113 112/112/112 111/111/111
f 114/114/114 112/112/112 113/113/113
f 115/115/115 114/114/114 113/113/113
f 116/116/116 114/114/114 115/115/115
f 119/119/119 118/118/118 117/117/117
f 120/120/120 118/118/118 119/119/119
f 121/121/121 120/120/120 119/119/119
f 122/122/122 120/120/120 121/121/121
f 123/123/123 122/122/122 121/121/121
f 124/124/124 122/122/122 123/123/123
