g DSJ_GTA_diLou_14
v 4.592254 3.614097 -4.31278
v 0.006351948 -3.118668 -0.006351948
v 4.592254 3.614097 4.300076
v -4.57955 3.614097 4.300076
v 0.006351948 -3.118668 -0.006351948
v -4.57955 3.614097 -4.31278
v 2.153214 -2.153214 -2.013478
v 2.153214 -2.153214 1.98807
v -2.115104 -2.153214 -2.026181
v -2.115104 -2.153214 1.975368
v 3.601394 -4.439814 -3.398141
v 3.601394 -6.497753 -3.398141
v 3.601394 -4.439814 3.36003
v 3.601394 -6.497753 3.36003
v -3.575987 -4.439814 -3.398141
v -3.575987 -6.497753 -3.398141
v 3.601394 -4.439814 -3.398141
v 3.601394 -6.497753 -3.398141
v -3.575987 -4.439814 3.36003
v -3.575987 -6.497753 3.36003
v -3.575987 -4.439814 -3.398141
v -3.575987 -6.497753 -3.398141
v 3.601394 -4.439814 3.36003
v 3.601394 -6.497753 3.36003
v -3.575987 -4.439814 3.36003
v -3.575987 -6.497753 3.36003
v -2.801084 6.497753 -2.661348
v 0.006351948 6.497753 -2.661348
v 0.006351948 6.497753 2.623238
v 2.826491 6.497753 -2.661348
v 2.826491 6.497753 2.623238
v -2.801084 6.497753 2.623238
v 4.592254 3.614097 -4.31278
v 0.006351948 3.614097 -4.31278
v 0.006351948 -3.118668 -0.006351948
v -4.57955 3.614097 -4.31278
v -4.57955 3.614097 4.300076
v 0.006351948 3.614097 4.300076
v 0.006351948 -3.118668 -0.006351948
v 4.592254 3.614097 4.300076
v 2.826491 6.497753 2.623238
v 2.826491 6.497753 -2.661348
v 4.592254 3.614097 4.300076
v 4.592254 3.614097 -4.31278
v 2.826491 6.497753 -2.661348
v 0.006351948 6.497753 -2.661348
v 0.006351948 3.614097 -4.31278
v -2.801084 6.497753 -2.661348
v -4.57955 3.614097 -4.31278
v 4.592254 3.614097 -4.31278
v -2.801084 6.497753 -2.661348
v -2.801084 6.497753 2.623238
v -4.57955 3.614097 -4.31278
v -4.57955 3.614097 4.300076
v -2.801084 6.497753 2.623238
v 0.006351948 6.497753 2.623238
v 0.006351948 3.614097 4.300076
v 2.826491 6.497753 2.623238
v 4.592254 3.614097 4.300076
v -4.57955 3.614097 4.300076
v 2.153214 -3.182184 1.975368
v 2.153214 -3.182184 -2.013478
v 3.601394 -4.439814 3.36003
v 3.601394 -4.439814 -3.398141
v 2.153214 -3.182184 -2.013478
v -2.115104 -3.182184 -2.013478
v 3.601394 -4.439814 -3.398141
v -3.575987 -4.439814 -3.398141
v -2.115104 -3.182184 -2.013478
v -2.115104 -3.182184 1.975368
v -3.575987 -4.439814 -3.398141
v -3.575987 -4.439814 3.36003
v -2.115104 -3.182184 1.975368
v 2.153214 -3.182184 1.975368
v -3.575987 -4.439814 3.36003
v 3.601394 -4.439814 3.36003
vt 0.1860075 0.2054405
vt 0.08884224 0.1160485
vt -0.0005497932 0.2054405
vt 0.1860075 0.2054405
vt 0.08884224 0.1160485
vt -0.0005497932 0.2054405
vt 0.1860075 0.9400098
vt 0.1665744 0.9400098
vt 0.1860075 0.9905357
vt 0.1665744 0.9905357
vt 0.24042 0.9749893
vt 0.24042 0.7651123
vt 0.1238217 0.9749893
vt 0.1238217 0.7651123
vt 0.24042 0.9749893
vt 0.24042 0.7651123
vt 0.1238217 0.9749893
vt 0.1238217 0.7651123
vt 0.24042 0.9749893
vt 0.24042 0.7651123
vt 0.1238217 0.9749893
vt 0.1238217 0.7651123
vt 0.24042 0.9749893
vt 0.24042 0.7651123
vt 0.1238217 0.9749893
vt 0.1238217 0.7651123
vt 0.1005021 0.2481932
vt 0.1005021 0.2443066
vt 0.09661546 0.2443066
vt 0.1005021 0.24042
vt 0.09661546 0.24042
vt 0.09661546 0.2481932
vt -0.0005497932 0.2054405
vt 0.08884224 0.2054405
vt 0.08884224 0.1160485
vt 0.1860075 0.2054405
vt -0.0005497932 0.2054405
vt 0.08884224 0.2054405
vt 0.08884224 0.1160485
vt 0.1860075 0.2054405
vt 0.03831631 0.2443066
vt 0.1471414 0.2443066
vt -0.0005497932 0.2054405
vt 0.1860075 0.2054405
vt 0.03831631 0.2443066
vt 0.08884224 0.2443066
vt 0.08884224 0.2054405
vt 0.1471414 0.2443066
vt 0.1860075 0.2054405
vt -0.0005497932 0.2054405
vt 0.03831631 0.2443066
vt 0.1471414 0.2443066
vt -0.0005497932 0.2054405
vt 0.1860075 0.2054405
vt 0.03831631 0.2443066
vt 0.08884224 0.2443066
vt 0.08884224 0.2054405
vt 0.1471414 0.2443066
vt 0.1860075 0.2054405
vt -0.0005497932 0.2054405
vt 0.8039784 0.7417927
vt 0.9400098 0.7417927
vt 0.7573391 0.6601739
vt 0.9866491 0.6601739
vt 0.8039784 0.7417927
vt 0.9400098 0.7417927
vt 0.7573391 0.6601739
vt 0.9866491 0.6601739
vt 0.8039784 0.7417927
vt 0.9400098 0.7417927
vt 0.7573391 0.6601739
vt 0.9866491 0.6601739
vt 0.8039784 0.7417927
vt 0.9400098 0.7417927
vt 0.7573391 0.6601739
vt 0.9866491 0.6601739
vn 0.819958 -0.5724236 0
vn 0.819958 -0.5724236 0
vn 0.819958 -0.5724236 0
vn -0.7943578 -0.6074501 0
vn -0.7943578 -0.6074501 0
vn -0.7943578 -0.6074501 0
vn 0.01587099 0.999874 -0.000345267
vn 0.01587099 0.999874 -0.000345267
vn 0.01587099 0.999874 -0.000345267
vn 0.01587099 0.999874 -0.000345267
vn 0.999874 -0.01587099 -0.000346655
vn 0.999874 -0.01587099 -0.000346655
vn 0.999874 -0.01587099 -0.000346655
vn 0.999874 -0.01587099 -0.000346655
vn 0.04761302 -0.04761302 -0.9977304
vn 0.04761302 -0.04761302 -0.9977304
vn 0.04761302 -0.04761302 -0.9977304
vn 0.04761302 -0.04761302 -0.9977304
vn -0.999874 -0.01587099 -0.000346655
vn -0.999874 -0.01587099 -0.000346655
vn -0.999874 -0.01587099 -0.000346655
vn -0.999874 -0.01587099 -0.000346655
vn 0.04761302 -0.04761302 0.9977304
vn 0.04761302 -0.04761302 0.9977304
vn 0.04761302 -0.04761302 0.9977304
vn 0.04761302 -0.04761302 0.9977304
vn 0.01587099 0.999874 -0.000345267
vn 0.01587099 0.999874 -0.000345267
vn 0.01587099 0.999874 -0.000345267
vn 0.01587099 0.999874 -0.000345267
vn 0.01587099 0.999874 -0.000345267
vn 0.01587099 0.999874 -0.000345267
vn 0.04761302 -0.5872276 -0.8080203
vn 0.04761302 -0.5872276 -0.8080203
vn 0.04761302 -0.5872276 -0.8080203
vn 0.04761302 -0.5872276 -0.8080203
vn 0.04761302 -0.5872276 0.8080203
vn 0.04761302 -0.5872276 0.8080203
vn 0.04761302 -0.5872276 0.8080203
vn 0.04761302 -0.5872276 0.8080203
vn 0.8711522 0.4910131 0
vn 0.8711522 0.4910131 0
vn 0.8711522 0.4910131 0
vn 0.8711522 0.4910131 0
vn 0.04761302 0.4920015 -0.8692914
vn 0.04761302 0.4920015 -0.8692914
vn 0.04761302 0.4920015 -0.8692914
vn 0.04761302 0.4920015 -0.8692914
vn 0.04761302 0.4920015 -0.8692914
vn 0.04761302 0.4920015 -0.8692914
vn -0.8411639 0.5237435 -0.1346703
vn -0.8411639 0.5237435 -0.1346703
vn -0.8411639 0.5237435 -0.1346703
vn -0.8411639 0.5237435 -0.1346703
vn 0.04761302 0.4920015 0.8692914
vn 0.04761302 0.4920015 0.8692914
vn 0.04761302 0.4920015 0.8692914
vn 0.04761302 0.4920015 0.8692914
vn 0.04761302 0.4920015 0.8692914
vn 0.04761302 0.4920015 0.8692914
vn 0.6824536 0.7141957 -0.1555042
vn 0.6824536 0.7141957 -0.1555042
vn 0.6824536 0.7141957 -0.1555042
vn 0.6824536 0.7141957 -0.1555042
vn 0.04761302 0.7141957 -0.6983248
vn 0.04761302 0.7141957 -0.6983248
vn 0.04761302 0.7141957 -0.6983248
vn 0.04761302 0.7141957 -0.6983248
vn -0.6507117 0.7459378 -0.1419545
vn -0.6507117 0.7459378 -0.1419545
vn -0.6507117 0.7459378 -0.1419545
vn -0.6507117 0.7459378 -0.1419545
vn 0.04761302 0.7141957 0.6983248
vn 0.04761302 0.7141957 0.6983248
vn 0.04761302 0.7141957 0.6983248
vn 0.04761302 0.7141957 0.6983248
g DSJ_GTA_diLou_14_0
f 3/3/3 2/2/2 1/1/1
f 6/6/6 5/5/5 4/4/4
f 9/9/9 8/8/8 7/7/7
f 10/10/10 8/8/8 9/9/9
f 13/13/13 12/12/12 11/11/11
f 14/14/14 12/12/12 13/13/13
f 17/17/17 16/16/16 15/15/15
f 18/18/18 16/16/16 17/17/17
f 21/21/21 20/20/20 19/19/19
f 22/22/22 20/20/20 21/21/21
f 25/25/25 24/24/24 23/23/23
f 26/26/26 24/24/24 25/25/25
f 29/29/29 28/28/28 27/27/27
f 30/30/30 28/28/28 29/29/29
f 31/31/31 30/30/30 29/29/29
f 29/29/29 27/27/27 32/32/32
f 35/35/35 34/34/34 33/33/33
f 36/36/36 34/34/34 35/35/35
f 39/39/39 38/38/38 37/37/37
f 40/40/40 38/38/38 39/39/39
f 43/43/43 42/42/42 41/41/41
f 44/44/44 42/42/42 43/43/43
f 47/47/47 46/46/46 45/45/45
f 48/48/48 46/46/46 47/47/47
f 49/49/49 48/48/48 47/47/47
f 47/47/47 45/45/45 50/50/50
f 53/53/53 52/52/52 51/51/51
f 54/54/54 52/52/52 53/53/53
f 57/57/57 56/56/56 55/55/55
f 58/58/58 56/56/56 57/57/57
f 59/59/59 58/58/58 57/57/57
f 57/57/57 55/55/55 60/60/60
f 63/63/63 62/62/62 61/61/61
f 64/64/64 62/62/62 63/63/63
f 67/67/67 66/66/66 65/65/65
f 68/68/68 66/66/66 67/67/67
f 71/71/71 70/70/70 69/69/69
f 72/72/72 70/70/70 71/71/71
f 75/75/75 74/74/74 73/73/73
f 76/76/76 74/74/74 75/75/75
