g FB_saiDao_luzhang1
v -0.7045272 0 0.4269508
v 0.7037603 0.2556616 0.4267817
v 0.7039123 0 0.4269508
v -0.7041987 0.2556616 0.4267817
v -0.7022415 1.392648 0.1610979
v 0.7028566 1.392648 -0.1610979
v 0.7028566 1.392648 0.1610979
v -0.7022415 1.392648 -0.1610979
v -0.7041987 0.2556617 -0.4262983
v 0.7039123 0 -0.4274342
v 0.7037603 0.2556617 -0.4262983
v -0.7045272 0 -0.4274342
v 0.7039123 0 0.4269508
v 0.7037603 0.2556617 -0.4262983
v 0.7039123 0 -0.4274342
v 0.7037603 0.2556616 0.4267817
v 0.7037041 0.3460916 -0.2249209
v 0.7037041 0.3460915 0.2249209
v 0.7028566 1.392648 0.1610979
v 0.7028566 1.392648 -0.1610979
v -0.7045272 0 -0.4274342
v -0.7041987 0.2556616 0.4267817
v -0.7045272 0 0.4269508
v -0.7041987 0.2556617 -0.4262983
v -0.7040769 0.3460915 0.2249209
v -0.7040769 0.3460916 -0.2249209
v -0.7022415 1.392648 0.1610979
v -0.7022415 1.392648 -0.1610979
v -0.7040769 0.3460916 -0.2249209
v 0.7037603 0.2556617 -0.4262983
v 0.7037041 0.3460916 -0.2249209
v -0.7041987 0.2556617 -0.4262983
v -0.7041987 0.2556616 0.4267817
v 0.7037041 0.3460915 0.2249209
v 0.7037603 0.2556616 0.4267817
v -0.7040769 0.3460915 0.2249209
v 0.7037041 0.3460916 -0.2249209
v -0.7022415 1.392648 -0.1610979
v -0.7040769 0.3460916 -0.2249209
v 0.7028566 1.392648 -0.1610979
v -0.7040769 0.3460915 0.2249209
v 0.7028566 1.392648 0.1610979
v 0.7037041 0.3460915 0.2249209
v -0.7022415 1.392648 0.1610979
vt 0.8963613 0.5647352
vt 0.9738774 0.5242698
vt 0.9148867 0.5057447
vt 0.955352 0.5832607
vt 0.9036304 0.5951452
vt 0.9693549 0.5596616
vt 0.9187509 0.5445417
vt 0.9542344 0.6102656
vt 0.9125555 0.5768229
vt 0.9781582 0.5425765
vt 0.9282338 0.5268987
vt 0.96248 0.5925011
vt 0.5161665 0.6041275
vt 0.6060507 0.62081
vt 0.6057115 0.6034225
vt 0.5166423 0.621514
vt 0.5850268 0.6274135
vt 0.5378804 0.6277846
vt 0.5460989 0.7022263
vt 0.5798672 0.7019603
vt 0.5161665 0.6041275
vt 0.6060509 0.62081
vt 0.6057115 0.6034223
vt 0.5166423 0.6215139
vt 0.5850268 0.6274135
vt 0.5378804 0.6277846
vt 0.579867 0.7019604
vt 0.5460989 0.7022263
vt 0.9027697 0.6170728
vt 0.9692427 0.5742216
vt 0.9145806 0.5624108
vt 0.9574317 0.6288836
vt 0.89751 0.6135803
vt 0.9639828 0.5707291
vt 0.9093209 0.5589181
vt 0.952172 0.6253909
vt 0.8861852 0.5834889
vt 0.994037 0.5834889
vt 0.9401111 0.5295632
vt 0.9401111 0.6374148
vt 0.8861852 0.5756716
vt 0.994037 0.5756716
vt 0.9401111 0.5217459
vt 0.9401111 0.6295974
g FB_saiDao_luzhang1_0
f 3/3/3 2/2/2 1/1/1
f 2/2/2 4/4/4 1/1/1
f 7/7/7 6/6/6 5/5/5
f 6/6/6 8/8/8 5/5/5
f 11/11/11 10/10/10 9/9/9
f 10/10/10 12/12/12 9/9/9
f 15/15/15 14/14/14 13/13/13
f 14/14/14 16/16/16 13/13/13
f 14/14/14 17/17/17 16/16/16
f 17/17/17 18/18/18 16/16/16
f 18/18/18 17/17/17 19/19/19
f 17/17/17 20/20/20 19/19/19
f 23/23/23 22/22/22 21/21/21
f 22/22/22 24/24/24 21/21/21
f 22/22/22 25/25/25 24/24/24
f 25/25/25 26/26/26 24/24/24
f 25/25/25 27/27/27 26/26/26
f 27/27/27 28/28/28 26/26/26
f 31/31/31 30/30/30 29/29/29
f 30/30/30 32/32/32 29/29/29
f 35/35/35 34/34/34 33/33/33
f 34/34/34 36/36/36 33/33/33
f 39/39/39 38/38/38 37/37/37
f 38/38/38 40/40/40 37/37/37
f 43/43/43 42/42/42 41/41/41
f 42/42/42 44/44/44 41/41/41
