g FB_saiDao_muTou01
v -0.5 0.001181946 0.5
v 0.5 0.1709372 0.5
v 0.5 0.001181946 0.5
v -0.5 0.1709372 0.5
v -0.5 1.001182 -0.5
v 0.5 1.001182 -0.5
v 0 1.123564 0
v -0.5 1.001182 0.5
v 0.5 1.001182 0.5
v -0.5 0.1709372 -0.5
v 0.5 0.001181946 -0.5
v 0.5 0.1709372 -0.5
v -0.5 0.001181946 -0.5
v -0.5 0.001181946 -0.5
v 0.5 0.001181946 0.5
v 0.5 0.001181946 -0.5
v -0.5 0.001181946 0.5
v 0.5 0.001181946 0.5
v 0.5 0.1709372 -0.5
v 0.5 0.001181946 -0.5
v 0.5 0.1709372 0.5
v -0.5 0.001181946 -0.5
v -0.5 0.1709372 0.5
v -0.5 0.001181946 0.5
v -0.5 0.1709372 -0.5
v -0.5 0.8260755 -0.5
v -0.5 1.001182 0.5
v -0.5 0.8260755 0.5
v -0.5 1.001182 -0.5
v -0.5 1.001182 -0.5
v 0.5 0.8260755 -0.5
v 0.5 1.001182 -0.5
v -0.5 0.8260755 -0.5
v 0.5 0.8260755 0.5
v 0.5 1.001182 -0.5
v 0.5 0.8260755 -0.5
v 0.5 1.001182 0.5
v -0.5 0.8260755 0.5
v 0.5 1.001182 0.5
v 0.5 0.8260755 0.5
v -0.5 1.001182 0.5
v -0.5 0.1709372 -0.5
v -0.5 0.8260755 0.5
v -0.5 0.1709372 0.5
v -0.5 0.8260755 -0.5
v -0.5 0.8260755 -0.5
v 0.5 0.1709372 -0.5
v 0.5 0.8260755 -0.5
v -0.5 0.1709372 -0.5
v 0.5 0.1709372 0.5
v 0.5 0.8260755 -0.5
v 0.5 0.1709372 -0.5
v 0.5 0.8260755 0.5
v -0.5 0.1709372 0.5
v 0.5 0.8260755 0.5
v 0.5 0.1709372 0.5
v -0.5 0.8260755 0.5
vt 0.3520909 0.06700993
vt 0.297038 0.03225148
vt 0.297038 0.06700999
vt 0.3520909 0.03225149
vt 0.2941659 0.07798508
vt 0.3545507 0.07798508
vt 0.3201004 0.04779267
vt 0.3026817 0.01760026
vt 0.3460348 0.01760026
vt 0.3520909 0.03225145
vt 0.2970378 0.06700991
vt 0.297038 0.03225148
vt 0.3520909 0.06700993
vt 0.3545506 0.07798519
vt 0.3026817 0.01760026
vt 0.2941657 0.07798508
vt 0.3460348 0.01760026
vt 0.297038 0.06700988
vt 0.3520904 0.03225142
vt 0.3520913 0.06700998
vt 0.297038 0.03225143
vt 0.3520909 0.06700993
vt 0.297038 0.03225148
vt 0.297038 0.06700999
vt 0.3520909 0.03225149
vt 0.3520909 0.06700999
vt 0.2970378 0.03225153
vt 0.297038 0.06700996
vt 0.3520909 0.03225151
vt 0.3520909 0.03225151
vt 0.297038 0.06700996
vt 0.297038 0.03225145
vt 0.3520909 0.06700999
vt 0.2970382 0.06700991
vt 0.3520913 0.03225148
vt 0.3520911 0.06700988
vt 0.297038 0.03225148
vt 0.3520909 0.06700999
vt 0.2970378 0.03225153
vt 0.297038 0.06700996
vt 0.3520909 0.03225151
vt 0.29704 0.09734793
vt 0.3520278 0.005667193
vt 0.29704 0.005667368
vt 0.3520278 0.09734784
vt 0.2976009 0.0973481
vt 0.3525885 0.005667283
vt 0.2976009 0.005667368
vt 0.3525885 0.09734801
vt 0.29704 0.09734793
vt 0.3520278 0.005667193
vt 0.29704 0.005667283
vt 0.3520278 0.09734801
vt 0.2971517 0.09734793
vt 0.3521395 0.005667193
vt 0.2971517 0.005667368
vt 0.3521395 0.09734801
g FB_saiDao_muTou01_0
f 3/3/3 2/2/2 1/1/1
f 2/2/2 4/4/4 1/1/1
f 7/7/7 6/6/6 5/5/5
f 7/7/7 5/5/5 8/8/8
f 9/9/9 7/7/7 8/8/8
f 7/7/7 9/9/9 6/6/6
f 12/12/12 11/11/11 10/10/10
f 11/11/11 13/13/13 10/10/10
f 16/16/16 15/15/15 14/14/14
f 15/15/15 17/17/17 14/14/14
f 20/20/20 19/19/19 18/18/18
f 19/19/19 21/21/21 18/18/18
f 24/24/24 23/23/23 22/22/22
f 23/23/23 25/25/25 22/22/22
f 28/28/28 27/27/27 26/26/26
f 27/27/27 29/29/29 26/26/26
f 32/32/32 31/31/31 30/30/30
f 31/31/31 33/33/33 30/30/30
f 36/36/36 35/35/35 34/34/34
f 35/35/35 37/37/37 34/34/34
f 40/40/40 39/39/39 38/38/38
f 39/39/39 41/41/41 38/38/38
f 44/44/44 43/43/43 42/42/42
f 43/43/43 45/45/45 42/42/42
f 48/48/48 47/47/47 46/46/46
f 47/47/47 49/49/49 46/46/46
f 52/52/52 51/51/51 50/50/50
f 51/51/51 53/53/53 50/50/50
f 56/56/56 55/55/55 54/54/54
f 55/55/55 57/57/57 54/54/54
