g gangShu
v -0.1028913 -0.7592036 0.9097616
v 0.6355427 4.148366 2.923871
v 0.3027333 -0.7592036 0.9097616
v -0.4356997 4.148366 2.923872
v -1.15266 2.878376 -2.402658
v 0.4364533 -0.7592036 -0.9097639
v 1.15266 2.878376 -2.402658
v -0.4364532 -0.7592036 -0.9097639
v 0.9097632 -0.7592036 0.357643
v 2.744954 3.712414 -0.944527
v 0.9097632 -0.7592036 -0.3576442
v 2.744953 3.712414 0.9445257
v -0.9097632 -0.7592036 -0.25905
v -2.98238 3.827742 0.6841426
v -0.9097632 -0.7592036 0.2590493
v -2.982379 3.827742 -0.6841429
v 0.967194 -0.7592036 -0.3385537
v 1.502617 4.699901 -2.875875
v 0.4354226 -0.7592036 -0.8198829
v 2.907009 4.699901 -1.604698
v 0.3687779 -0.6478385 1.160114
v 3.040901 4.599568 1.205075
v 0.9026338 -0.6478385 0.4028835
v 1.842732 4.599568 2.904578
v -0.3347459 -0.7592036 -0.9926729
v -2.308358 3.368084 -1.068751
v -0.7235718 -0.7592036 -0.3975027
v -1.371536 3.368084 -2.50273
v -1.055379 -0.7592036 0.2855977
v -0.921334 4.011996 2.860096
v -0.325557 -0.7592036 0.8475119
v -2.848773 4.011996 1.376099
vt 0.3106756 5.960464E-08
vt 0.9999999 1
vt 0.6893244 5.960464E-08
vt 0 1
vt 1.192093E-07 1
vt 0.6893244 5.960464E-08
vt 1 1
vt 0.3106756 5.960464E-08
vt 0.3106755 5.960464E-08
vt 0.9999999 1
vt 0.6893243 5.960464E-08
vt 0 1
vt 0.6893243 5.960464E-08
vt -1.192093E-07 1
vt 0.3106755 5.960464E-08
vt 0.9999998 1
vt 0.3106755 5.960464E-08
vt 0.9999999 1
vt 0.6893243 5.960464E-08
vt 0 1
vt 0.3106755 5.960464E-08
vt 0.9999999 1
vt 0.6893243 5.960464E-08
vt 0 1
vt 0.6893243 5.960464E-08
vt -1.192093E-07 1
vt 0.3106755 5.960464E-08
vt 0.9999998 1
vt 0.3106756 5.960464E-08
vt 0.9999999 1
vt 0.6893244 5.960464E-08
vt 0 1
g gangShu_0
f 3/3/3 2/2/2 1/1/1
f 2/2/2 4/4/4 1/1/1
f 7/7/7 6/6/6 5/5/5
f 6/6/6 8/8/8 5/5/5
f 11/11/11 10/10/10 9/9/9
f 10/10/10 12/12/12 9/9/9
f 15/15/15 14/14/14 13/13/13
f 14/14/14 16/16/16 13/13/13
f 19/19/19 18/18/18 17/17/17
f 18/18/18 20/20/20 17/17/17
f 23/23/23 22/22/22 21/21/21
f 22/22/22 24/24/24 21/21/21
f 27/27/27 26/26/26 25/25/25
f 26/26/26 28/28/28 25/25/25
f 31/31/31 30/30/30 29/29/29
f 30/30/30 32/32/32 29/29/29
