g hai
v 65.00829 1.967917 -49.73306
v 129.8272 1.967917 -39.41389
v 95.67049 1.967917 -12.79293
v 71.33769 1.967917 -83.57075
v 60.29808 1.967917 67.65052
v 90.00407 1.967917 45.5983
v -52.16117 1.967917 -43.76882
v 69.87401 1.967917 -83.87274
v -2.890363 1.967917 -98.88571
v -86.21117 1.967917 -71.14983
v -32.48558 1.967917 96.54134
v -104.7172 1.967917 140.9294
v -23.21702 1.967917 -235.502
v -81.05083 1.967917 -231.7137
v -454.0602 1.967917 -34.61168
v -429.687 1.967917 -257.3506
v -482.9704 1.967917 165.1906
v -149.2898 1.967917 178.7256
v -85.69359 1.967917 196.1733
v -16.30473 1.967917 148.7272
v 55.04918 1.967917 132.3779
v -109.7367 1.967917 281.6433
v -183.3266 1.967917 283.5142
v -103.0489 1.967917 384.747
v -175.0264 1.967917 414.4369
v -439.2517 1.967917 533.4225
v -476.479 1.967917 285.0958
v -370.8535 1.967917 770.8118
v -101.6184 1.967917 545.2059
v -39.99284 1.967917 491.7809
v 46.02706 1.967917 517.6436
v -3.174237 1.967917 591.3877
v 159.7918 1.967917 524.1692
v 124.0166 1.967917 585.6169
v 263.0835 1.967917 575.1024
v 291.2792 1.967917 630.9646
v 235.0231 1.967917 641.4999
v -151.1384 1.967917 919.7137
v 71.59151 1.967917 940.3431
v 161.7873 1.967917 908.6572
v -257.0415 1.967917 847.9427
v -73.5432 2.159458 -541.3789
v 24.21459 1.967917 -583.1501
v -11.79869 1.967917 -487.2346
v 14.84075 2.261662 -652.0703
v 150.0633 2.18158 -675.0106
v 130.4016 2.033257 -608.3485
v 165.3427 1.967917 -940.3431
v -48.82493 1.967917 -936.1052
v -291.7304 -2.261662 -718.0718
v 289.6992 2.089744 -673.1526
v 322.5485 2.033257 -621.1173
v 314.3837 1.967917 -931.8672
v 326.546 2.063931 -667.4797
v 422.3863 1.987716 -795.5088
v -110.0628 1.967917 -369.6965
v -24.97502 1.967917 -386.4862
v -413.0232 1.967917 -375.5352
v 371.0373 2.003463 -646.3793
v 351.8593 2.003463 -626.347
v 482.9704 1.967909 -797.1012
v 405.8352 1.967909 -931.8673
v 457.7793 1.973308 -931.8673
v 121.6155 1.967917 80.55304
vt 0.515522 0.4698305
vt 0.5523637 0.4950624
vt 0.5481218 0.4660328
vt 0.5035719 0.4896226
vt 0.5687916 0.4098706
vt 0.5729539 0.4347366
vt 0.4605586 0.4146098
vt 0.5027796 0.4891387
vt 0.4599432 0.4655856
vt 0.42956 0.4123911
vt 0.5365613 0.3515639
vt 0.5210751 0.2940004
vt 0.3831897 0.5291192
vt 0.3543598 0.4988853
vt 0.2567801 0.2159038
vt 0.1611528 0.3420202
vt 0.3380281 0.0995681
vt 0.5162714 0.2530231
vt 0.5575631 0.2747877
vt 0.5697905 0.3329821
vt 0.5971526 0.37543
vt 0.5862268 0.2187158
vt 0.5490012 0.1824941
vt 0.6388274 0.1684504
vt 0.6158037 0.1188263
vt 0.5365626 -0.06856191
vt 0.3988431 0.04119322
vt 0.6847533 -0.1580402
vt 0.7158761 0.08636394
vt 0.7221962 0.1432033
vt 0.7787132 0.1708393
vt 0.7885337 0.1094532
vt 0.8404223 0.2217491
vt 0.851293 0.1730153
vt 0.9179665 0.2447099
vt 0.9591283 0.2293344
vt 0.9351346 0.1971076
vt 0.8686591 -0.1301067
vt 0.9932086 -0.03472072
vt 1.024606 0.02454597
vt 0.7799964 -0.1435409
vt 0.2042582 0.6644717
vt 0.2334836 0.7353292
vt 0.2634891 0.6674638
vt 0.1939098 0.7659024
vt 0.2513017 0.8456841
vt 0.2748599 0.8018534
vt 0.1258216 0.9886588
vt 0.01891735 0.8791187
vt 0.003990173 0.6464427
vt 0.3232718 0.9149362
vt 0.3660876 0.9049814
vt 0.2059347 1.059219
vt 0.3448764 0.930552
vt 0.3294763 1.043972
vt 0.2711191 0.5570629
vt 0.3073088 0.6082211
vt 0.1117384 0.4107006
vt 0.3781381 0.9421148
vt 0.3783619 0.9223129
vt 0.359594 1.075213
vt 0.2525375 1.105231
vt 0.2790478 1.13136
vt 0.6050177 0.4325885
vn 0 1 0
vn 0 1 0
vn 0 1 0
vn 0 1 0
vn 0 1 0
vn 0 1 0
vn 0 1 0
vn 0 1 0
vn 0 1 0
vn 0 1 0
vn 0 1 0
vn 0 1 0
vn 0 1 0
vn 0 1 0
vn 0 1 0
vn 0 1 0
vn 0 1 0
vn 0 1 0
vn 0 1 0
vn 0 1 0
vn 0 1 0
vn 0 1 0
vn 0 1 0
vn 0 1 0
vn 0 1 0
vn 0 1 0
vn 0 1 0
vn 0 1 0
vn 0 1 0
vn 0 1 0
vn 0 1 0
vn 0 1 0
vn 0 1 0
vn 0 1 0
vn 0 1 0
vn 0 1 0
vn 0 1 0
vn 0 1 0
vn 0 1 0
vn 0 1 0
vn 0 1 0
vn -0.004055254 0.9999893 -0.002263979
vn 0.002333756 0.9999969 0.0008762571
vn 0.00170473 0.9999982 0.0008877829
vn 0.002147489 0.9999914 0.0035457
vn 0.0007221571 0.9999943 0.003315298
vn 0.0007221571 0.9999943 0.003315298
vn 0.0001562868 0.9999995 -0.0009373866
vn -0.007148891 0.9999738 -0.001163879
vn -0.009815169 0.9999372 -0.005415701
vn 0.0003323249 0.9999986 0.001688558
vn 0.0003323249 0.9999986 0.001688558
vn 0.0003401168 0.9999998 -0.0006142532
vn 0.0005908541 0.9999996 0.0007125686
vn 0.0004163918 0.9999999 -0.0003823095
vn -0.002050327 0.9999888 -0.004270868
vn 0.001075702 0.999999 0.0008993083
vn -0.005176281 0.9999421 -0.009440889
vn 0.001045208 0.9999992 0.0008268234
vn 0.001045208 0.9999992 0.0008268234
vn 0.0007364891 0.9999998 0.0001479972
vn 0.0001270068 1 -7.269767E-05
vn 0.0001270068 1 -7.269767E-05
vn 0 1 0
g hai_0
f 3/3/3 2/2/2 1/1/1
f 2/2/2 4/4/4 1/1/1
f 3/3/3 1/1/1 5/5/5
f 6/6/6 3/3/3 5/5/5
f 2/2/2 3/3/3 6/6/6
f 7/7/7 1/1/1 4/4/4
f 7/7/7 4/4/4 8/8/8
f 8/8/8 9/9/9 7/7/7
f 7/7/7 9/9/9 10/10/10
f 11/11/11 7/7/7 10/10/10
f 5/5/5 1/1/1 11/11/11
f 1/1/1 7/7/7 11/11/11
f 12/12/12 11/11/11 10/10/10
f 9/9/9 13/13/13 10/10/10
f 13/13/13 14/14/14 10/10/10
f 10/10/10 14/14/14 15/15/15
f 12/12/12 10/10/10 15/15/15
f 14/14/14 16/16/16 15/15/15
f 15/15/15 17/17/17 12/12/12
f 17/17/17 18/18/18 12/12/12
f 18/18/18 19/19/19 12/12/12
f 12/12/12 19/19/19 11/11/11
f 19/19/19 20/20/20 11/11/11
f 5/5/5 11/11/11 20/20/20
f 21/21/21 5/5/5 20/20/20
f 22/22/22 19/19/19 18/18/18
f 23/23/23 22/22/22 18/18/18
f 24/24/24 22/22/22 23/23/23
f 25/25/25 24/24/24 23/23/23
f 25/25/25 23/23/23 26/26/26
f 23/23/23 27/27/27 26/26/26
f 23/23/23 18/18/18 27/27/27
f 18/18/18 17/17/17 27/27/27
f 25/25/25 26/26/26 28/28/28
f 29/29/29 25/25/25 28/28/28
f 24/24/24 25/25/25 29/29/29
f 30/30/30 24/24/24 29/29/29
f 31/31/31 30/30/30 29/29/29
f 32/32/32 31/31/31 29/29/29
f 32/32/32 29/29/29 28/28/28
f 33/33/33 31/31/31 32/32/32
f 34/34/34 33/33/33 32/32/32
f 35/35/35 33/33/33 34/34/34
f 34/34/34 36/36/36 35/35/35
f 34/34/34 37/37/37 36/36/36
f 37/37/37 34/34/34 38/38/38
f 39/39/39 37/37/37 38/38/38
f 36/36/36 37/37/37 39/39/39
f 40/40/40 36/36/36 39/39/39
f 38/38/38 34/34/34 41/41/41
f 34/34/34 32/32/32 41/41/41
f 41/41/41 32/32/32 28/28/28
f 44/44/44 43/43/43 42/42/42
f 43/43/43 45/45/45 42/42/42
f 46/46/46 45/45/45 43/43/43
f 47/47/47 46/46/46 43/43/43
f 46/46/46 48/48/48 45/45/45
f 48/48/48 49/49/49 45/45/45
f 45/45/45 49/49/49 42/42/42
f 49/49/49 50/50/50 42/42/42
f 51/51/51 46/46/46 47/47/47
f 46/46/46 51/51/51 48/48/48
f 52/52/52 51/51/51 47/47/47
f 51/51/51 53/53/53 48/48/48
f 54/54/54 51/51/51 52/52/52
f 51/51/51 54/54/54 53/53/53
f 54/54/54 55/55/55 53/53/53
f 44/44/44 42/42/42 56/56/56
f 57/57/57 44/44/44 56/56/56
f 56/56/56 42/42/42 58/58/58
f 42/42/42 50/50/50 58/58/58
f 57/57/57 56/56/56 14/14/14
f 13/13/13 57/57/57 14/14/14
f 14/14/14 56/56/56 16/16/16
f 56/56/56 58/58/58 16/16/16
f 59/59/59 54/54/54 52/52/52
f 60/60/60 59/59/59 52/52/52
f 55/55/55 54/54/54 61/61/61
f 54/54/54 59/59/59 61/61/61
f 55/55/55 61/61/61 62/62/62
f 55/55/55 62/62/62 53/53/53
f 61/61/61 63/63/63 62/62/62
f 64/64/64 5/5/5 21/21/21
f 64/64/64 6/6/6 5/5/5
f 64/64/64 2/2/2 6/6/6
