g mx_jingChe_chemen
v -0.1501712 0.2669729 -0.2187703
v -0.143811 0.3687329 -1.52919
v -0.0746454 0.1769984 -1.55368
v -0.09563649 0.08955145 -0.01811969
v -0.003476501 0.06314313 -1.522795
v -0.02160823 0.002628565 0.005573034
v 0.02214873 -0.275108 -1.42487
v 0.003666878 -0.2781616 0.03085005
v -0.2503852 0.4547633 -0.6212493
v -0.2997515 0.533693 -0.923745
v -0.2973636 0.5682443 -1.503042
v 0.01175535 -0.6054468 -1.420523
v -0.0348103 -0.63245 -0.0131011
v -0.07480526 0.1737485 -0.171383
v -0.1492909 0.2636298 -0.2553554
v -0.1024764 0.108278 -0.04333806
v -0.07974291 0.1850181 -0.2191446
v -0.07974291 0.1850181 -0.2191446
v -0.07212198 0.1265231 -0.2585366
v -0.07480526 0.1737485 -0.171383
v -0.1024764 0.108278 -0.04333806
v -0.0393858 0.1111759 -0.2124909
v -0.02940524 0.2558571 -0.2057301
v -0.07480526 0.1737485 -0.171383
v -0.0393858 0.1111759 -0.2124909
v -0.02940524 0.2558571 -0.2057301
v -0.0393858 0.1111759 -0.2124909
v 0.04035926 0.1194404 -0.239646
v 0.0369252 0.2625108 -0.241793
v 0.1124854 0.1401542 -0.2753873
v 0.1221461 0.2041231 -0.273562
v 0.1120564 0.2534956 -0.2819337
v 0.1120564 0.2534956 -0.2819337
v 0.1189265 0.2547846 -0.3034004
v 0.04025209 0.2637452 -0.2825773
v 0.0369252 0.2625108 -0.241793
v -0.04249811 0.2595603 -0.2618634
v -0.02940524 0.2558571 -0.2057301
v 0.1248295 0.2054121 -0.3010387
v 0.1189265 0.2547846 -0.3034004
v 0.1120564 0.2534956 -0.2819337
v 0.1221461 0.2041231 -0.273562
v 0.1189265 0.1411215 -0.2987845
v 0.1124854 0.1401542 -0.2753873
v 0.02061069 0.1236253 -0.2780706
v -0.07212198 0.1265231 -0.2585366
v -0.04249811 0.2595603 -0.2618634
v 0.04025209 0.2637452 -0.2825773
v 0.1189265 0.1411215 -0.2987845
v 0.1248295 0.2054121 -0.3010387
v 0.1189265 0.2547846 -0.3034004
v 0.02061069 0.1236253 -0.2780706
v 0.1189265 0.1411215 -0.2987845
v 0.1124854 0.1401542 -0.2753873
v 0.04035926 0.1194404 -0.239646
v -0.0393858 0.1111759 -0.2124909
v -0.07212198 0.1265231 -0.2585366
v -0.1024764 0.108278 -0.04333806
v -0.07974291 0.1850181 -0.2191446
v -0.04249811 0.2595603 -0.2618634
v -0.07212198 0.1265231 -0.2585366
v -0.07974291 0.1850181 -0.2191446
v -0.07480526 0.1737485 -0.171383
v -0.02940524 0.2558571 -0.2057301
v -0.04249811 0.2595603 -0.2618634
v -0.08796489 0.06877887 -0.07156563
v -0.08611941 0.07275128 -0.2437236
v -0.1024764 0.108278 -0.04333806
v -0.07212198 0.1265231 -0.2585366
v -0.1492909 0.2636298 -0.2553554
v -0.07212198 0.1265231 -0.2585366
v -0.08611941 0.07275128 -0.2437236
v -0.09563649 0.08955145 -0.01811969
v -0.09563649 0.08955145 -0.01811969
v -0.0990504 0.002628565 0.005573034
v -0.02160823 0.002628565 0.005573034
v -0.1245481 -0.2727566 0.03036439
v -0.0990504 0.002628565 0.005573034
v -0.02160823 0.002628565 0.005573034
v 0.003666878 -0.2781616 0.03085005
v 0.003666878 -0.2781616 0.03085005
v -0.0348103 -0.63245 -0.0131011
v -0.1129365 -0.5648913 -0.01274288
v -0.1245481 -0.2727566 0.03036439
v -0.0672673 -0.5384101 -1.386884
v -0.1129365 -0.5648913 -0.01274288
v -0.0348103 -0.63245 -0.0131011
v 0.01175535 -0.6054468 -1.420523
v -0.0672673 -0.5384101 -1.386884
v 0.02214873 -0.275108 -1.42487
v -0.1182789 -0.2555618 -1.391148
v 0.01175535 -0.6054468 -1.420523
v -0.1182789 -0.2555618 -1.391148
v -0.003476501 0.06314313 -1.522795
v -0.1227025 0.06139672 -1.480708
v 0.02214873 -0.275108 -1.42487
v -0.003476501 0.06314313 -1.522795
v -0.0746454 0.1769984 -1.55368
v -0.1227025 0.06139672 -1.480708
v -0.0672673 -0.5384101 -1.386884
v -0.1182789 -0.2555618 -1.391148
v -0.1129365 -0.5648913 -0.01274288
v -0.1245481 -0.2727566 0.03036439
v -0.1182789 -0.2555618 -1.391148
v -0.1227025 0.06139672 -1.480708
v -0.0990504 0.002628565 0.005573034
v -0.1245481 -0.2727566 0.03036439
v -0.1227025 0.06139672 -1.480708
v -0.0746454 0.1769984 -1.55368
v -0.09563649 0.08955145 -0.01811969
v -0.0990504 0.002628565 0.005573034
v -0.08796489 0.06877887 -0.07156563
v -0.1024764 0.108278 -0.04333806
v -0.08611941 0.07275128 -0.2437236
v -0.1492909 0.2636298 -0.2553554
vt 0.6352003 0.3515551
vt 0.4615169 0.376053
vt 0.467344 0.308778
vt 0.6713071 0.2989156
vt 0.4685185 0.2653383
vt 0.6758844 0.2604749
vt 0.4751887 0.1609326
vt 0.681847 0.1675728
vt 0.5685576 0.4185139
vt 0.5110246 0.452046
vt 0.4542293 0.4618482
vt 0.4774021 0.04758297
vt 0.6799649 0.05252168
vt 0.167904 0.9731261
vt 0.1716683 0.9850513
vt 0.1739118 0.9628421
vt 0.1665338 0.9768301
vt 0.1665338 0.9768301
vt 0.1619264 0.9768602
vt 0.05907151 0.6135933
vt 0.08441256 0.6111541
vt 0.06242924 0.589231
vt 0.04545992 0.6289064
vt 0.05907151 0.6135933
vt 0.06242924 0.589231
vt 0.04043086 0.6415393
vt 0.04280987 0.5664647
vt 0.02537378 0.570771
vt 0.0260363 0.6449723
vt 0.009699374 0.5815218
vt 0.007546212 0.6146473
vt 0.009895115 0.6402444
vt 0.1489923 0.9734875
vt 0.1478329 0.9748727
vt 0.1536751 0.9763935
vt 0.1552561 0.9734573
vt 0.1597582 0.9780498
vt 0.160782 0.973367
vt 0.1677836 0.9736983
vt 0.1681299 0.9834552
vt 0.1644409 0.9832143
vt 0.1629653 0.9734724
vt 0.1674071 0.9610202
vt 0.1633116 0.9608697
vt 0.02227203 0.5058751
vt 0.03684727 0.5069591
vt 0.0318935 0.5569336
vt 0.01917027 0.5583038
vt 0.006913815 0.5123797
vt 0.005995334 0.5364409
vt 0.006913815 0.5549009
vt 0.1642452 0.9844339
vt 0.1663682 0.9927605
vt 0.167648 0.9913301
vt 0.1674373 0.9842382
vt 0.1663381 0.9771313
vt 0.1619264 0.9768602
vt 0.1739118 0.9628421
vt 0.1732342 0.970717
vt 0.165254 0.9855482
vt 0.1663682 0.9591682
vt 0.1665338 0.9768301
vt 0.167904 0.9731261
vt 0.160782 0.973367
vt 0.1597582 0.9780498
vt 0.1700421 0.9621194
vt 0.1602851 0.9717709
vt 0.1739118 0.9628421
vt 0.1619264 0.9768602
vt 0.05008244 0.5590566
vt 0.03684727 0.5069591
vt 0.03966295 0.4867827
vt 0.6713071 0.2989156
vt 0.6713071 0.2989156
vt 0.6758844 0.2604749
vt 0.6758844 0.2604749
vt 0.681847 0.1675728
vt 0.6758844 0.2604749
vt 0.6758844 0.2604749
vt 0.681847 0.1675728
vt 0.681847 0.1675728
vt 0.6799649 0.05252168
vt 0.6799649 0.05252168
vt 0.681847 0.1675728
vt 0.4774021 0.04758297
vt 0.6799649 0.05252168
vt 0.6799649 0.05252168
vt 0.4774021 0.04758297
vt 0.4774021 0.04758297
vt 0.4751887 0.1609326
vt 0.4751887 0.1609326
vt 0.4774021 0.04758297
vt 0.4751887 0.1609326
vt 0.4685185 0.2653383
vt 0.4685185 0.2653383
vt 0.4751887 0.1609326
vt 0.4685185 0.2653383
vt 0.467344 0.308778
vt 0.4685185 0.2653383
vt 0.4774021 0.04758297
vt 0.4751887 0.1609326
vt 0.4774021 0.04758297
vt 0.4751887 0.1609326
vt 0.4751887 0.1609326
vt 0.4685185 0.2653383
vt 0.4685185 0.2653383
vt 0.4751887 0.1609326
vt 0.4685185 0.2653383
vt 0.467344 0.308778
vt 0.467344 0.308778
vt 0.4685185 0.2653383
vt 0.1700421 0.9621194
vt 0.1700421 0.9621194
vt 0.1602851 0.9717709
vt 0.1602851 0.9717709
vn 0.9291329 0.3637944 -0.06607331
vn 0.8664455 0.4970051 0.04751876
vn 0.8971053 0.4418168 0
vn 0.8507737 0.5205128 -0.07246064
vn 0.921297 0.3873022 0.03477012
vn 0.9512291 0.3084852 0
vn 0.9996562 0.01901376 -0.01805427
vn 0.9996562 -0.01232994 0.02313985
vn 0.81943 0.5675284 -0.0802872
vn 0.7779346 0.6283453 0
vn 0.7915192 0.6111443 0
vn 0.9986751 -0.05145895 0
vn 0.9935382 -0.113498 0
vn -0.4813333 -0.7880863 -0.3837165
vn -0.6907245 -0.7231181 0
vn -0.395138 -0.7959222 -0.4586652
vn -0.7712624 -0.5921882 0.2333825
vn -0.7712624 -0.5921882 0.2333825
vn -0.7477546 -0.4433057 0.4943108
vn -0.8888012 -0.2865872 -0.3576313
vn -0.8888012 -0.2865872 -0.3576313
vn -0.8888012 -0.2865872 -0.3576313
vn -0.4970051 0.01901376 -0.8675393
vn -0.6850672 0.07386529 -0.7247254
vn -0.4578254 0.06602931 -0.8865867
vn -0.4970051 0.01901376 -0.8675393
vn -0.4578254 0.06602931 -0.8865867
vn -0.402974 0.003341913 -0.9152053
vn -0.4421536 -0.0515095 -0.8954591
vn -0.3873022 0.0111779 -0.9218851
vn -0.3559585 -0.02800179 -0.9340822
vn -0.4734973 -0.2474076 -0.8453342
vn -0.128699 -0.9916837 0
vn -0.128699 -0.9916837 0
vn -0.05811507 -0.9983099 0
vn -0.0111779 -0.9996562 -0.02371811
vn 0.3095255 -0.9508911 0
vn 0.0592615 -0.9982425 0
vn -0.9828323 -0.06718135 -0.1718351
vn -0.9358168 -0.1298687 -0.3276905
vn -0.9514886 -0.1612124 -0.2620686
vn -0.9906682 -0.0515095 -0.1261877
vn -0.9593245 0.1287167 -0.2512539
vn -0.9514886 0.1443886 -0.2717009
vn 0.2160639 -0.01232994 0.9763014
vn 0.208228 -0.02800179 0.9776794
vn 0.2317358 -0.01232994 0.9727006
vn 0.2395717 0.0111779 0.9708143
vn 0.2160639 0.003341913 0.9763735
vn 0.2395717 0.02684975 0.9705073
vn 0.2709154 0.07386529 0.959765
vn -0.07386529 0.9749963 0.2095854
vn -0.1757323 0.9828323 -0.05620327
vn -0.1757323 0.9828323 0.05620327
vn -0.1130449 0.9749963 0.1913192
vn 0.1768843 0.9671605 0.1825175
vn 0.1690484 0.9593245 0.2260956
vn 0.2787513 0.9514886 0.1302579
vn 0.8821173 -0.1847202 0.4332983
vn 0.3095255 -0.9508911 0
vn 0.8821173 -0.1847202 0.4332983
vn 0.8272659 -0.5451727 -0.1357123
vn 0.8272659 -0.5451727 -0.1357123
vn 0.8272659 -0.5451727 -0.1357123
vn 0.8272659 -0.5451727 -0.1357123
vn -0.9358168 -0.3336027 -0.1138252
vn -0.9749963 0.1600604 -0.1541519
vn -0.9749963 -0.2003921 -0.09604775
vn -0.9671605 0.2149118 -0.1356966
vn 0.3414387 0.1600604 0.9261751
vn 0.3414387 0.1600604 0.9261751
vn 0.3414387 0.1600604 0.9261751
vn 0.004494011 0.2619274 0.9650771
vn 0.004494011 0.2619274 0.9650771
vn 0.004494011 0.2619274 0.9650771
vn 0.004494011 0.2619274 0.9650771
vn 0.004494011 0.08953714 0.9959733
vn 0.004494011 0.08953714 0.9959733
vn 0.004494011 0.08953714 0.9959733
vn 0.004494011 0.08953714 0.9959733
vn -0.0425216 -0.1377047 0.9895602
vn -0.0425216 -0.1377047 0.9895602
vn -0.0425216 -0.1377047 0.9895602
vn -0.0425216 -0.1377047 0.9895602
vn -0.6453228 -0.7639099 0
vn -0.6453228 -0.7639099 0
vn -0.6453228 -0.7639099 0
vn -0.6453228 -0.7639099 0
vn -0.207076 -0.02800179 -0.977924
vn -0.207076 -0.02800179 -0.977924
vn -0.207076 -0.02800179 -0.977924
vn -0.207076 -0.02800179 -0.977924
vn -0.207076 -0.1612124 -0.9649508
vn -0.207076 -0.1612124 -0.9649508
vn -0.207076 -0.1612124 -0.9649508
vn -0.207076 -0.1612124 -0.9649508
vn -0.2462555 -0.404126 -0.8809316
vn -0.2462555 -0.404126 -0.8809316
vn -0.2462555 -0.404126 -0.8809316
vn -0.9906682 -0.1141969 -0.07440183
vn -0.9906682 -0.1141969 -0.07440183
vn -0.9906682 -0.1141969 -0.07440183
vn -0.9906682 -0.1141969 -0.07440183
vn -0.9906682 0.09737301 -0.09536802
vn -0.9906682 0.09737301 -0.09536802
vn -0.9906682 0.09737301 -0.09536802
vn -0.9906682 0.09737301 -0.09536802
vn -0.9985042 0.05035746 -0.02129642
vn -0.9985042 0.05035746 -0.02129642
vn -0.9985042 0.05035746 -0.02129642
vn -0.9985042 0.05035746 -0.02129642
vn 0.9448047 0.3246148 -0.04437663
vn 0.9448047 0.3246148 -0.04437663
vn 0.9448047 0.3246148 -0.04437663
vn 0.9526407 0.301107 -0.04254785
g mx_jingChe_chemen_0
f 3/3/3 2/2/2 1/1/1
f 1/1/1 4/4/4 3/3/3
f 5/5/5 3/3/3 4/4/4
f 4/4/4 6/6/6 5/5/5
f 6/6/6 7/7/7 5/5/5
f 7/7/7 6/6/6 8/8/8
f 1/1/1 2/2/2 9/9/9
f 9/9/9 2/2/2 10/10/10
f 2/2/2 11/11/11 10/10/10
f 7/7/7 8/8/8 12/12/12
f 8/8/8 13/13/13 12/12/12
f 16/16/16 15/15/15 14/14/14
f 15/15/15 17/17/17 14/14/14
f 15/15/15 19/19/19 18/18/18
f 22/22/22 21/21/21 20/20/20
f 25/25/25 24/24/24 23/23/23
f 28/28/28 27/27/27 26/26/26
f 28/28/28 26/26/26 29/29/29
f 30/30/30 28/28/28 29/29/29
f 31/31/31 30/30/30 29/29/29
f 29/29/29 32/32/32 31/31/31
f 35/35/35 34/34/34 33/33/33
f 35/35/35 33/33/33 36/36/36
f 37/37/37 35/35/35 36/36/36
f 36/36/36 38/38/38 37/37/37
f 41/41/41 40/40/40 39/39/39
f 42/42/42 41/41/41 39/39/39
f 42/42/42 39/39/39 43/43/43
f 44/44/44 42/42/42 43/43/43
f 47/47/47 46/46/46 45/45/45
f 48/48/48 47/47/47 45/45/45
f 48/48/48 45/45/45 49/49/49
f 48/48/48 49/49/49 50/50/50
f 50/50/50 51/51/51 48/48/48
f 54/54/54 53/53/53 52/52/52
f 55/55/55 54/54/54 52/52/52
f 52/52/52 56/56/56 55/55/55
f 52/52/52 57/57/57 56/56/56
f 58/58/58 56/56/56 57/57/57
f 61/61/61 60/60/60 59/59/59
f 64/64/64 63/63/63 62/62/62
f 62/62/62 65/65/65 64/64/64
f 68/68/68 67/67/67 66/66/66
f 69/69/69 67/67/67 68/68/68
f 72/72/72 71/71/71 70/70/70
f 75/75/75 74/74/74 73/73/73
f 74/74/74 75/75/75 76/76/76
f 79/79/79 78/78/78 77/77/77
f 77/77/77 80/80/80 79/79/79
f 83/83/83 82/82/82 81/81/81
f 81/81/81 84/84/84 83/83/83
f 87/87/87 86/86/86 85/85/85
f 85/85/85 88/88/88 87/87/87
f 91/91/91 90/90/90 89/89/89
f 92/92/92 89/89/89 90/90/90
f 95/95/95 94/94/94 93/93/93
f 96/96/96 93/93/93 94/94/94
f 99/99/99 98/98/98 97/97/97
f 102/102/102 101/101/101 100/100/100
f 101/101/101 102/102/102 103/103/103
f 106/106/106 105/105/105 104/104/104
f 104/104/104 107/107/107 106/106/106
f 110/110/110 109/109/109 108/108/108
f 108/108/108 111/111/111 110/110/110
f 114/114/114 113/113/113 112/112/112
f 115/115/115 113/113/113 114/114/114
