g mx_jiaoChe5_qianlun-R
v 0.1153795 0.2838354 -0.2838371
v -0.1455225 0.1038899 -0.3877256
v 0.1153795 0.1038899 -0.3877256
v -0.1455225 0.2838354 -0.2838371
v 0.1455234 0.09640363 -0.3597869
v 0.1455234 0.2633852 -0.2633861
v 0.1153795 0.3877232 -0.1038901
v -0.1455225 0.2838354 -0.2838371
v 0.1153795 0.2838354 -0.2838371
v -0.1455225 0.3877232 -0.1038901
v 0.1455234 0.2633852 -0.2633861
v 0.1455234 0.3597896 -0.09640235
v 0.1153795 0.3877232 0.1038892
v -0.1455225 0.3877232 -0.1038901
v 0.1153795 0.3877232 -0.1038901
v -0.1455225 0.3877232 0.1038892
v 0.1455234 0.3597896 -0.09640235
v 0.1455234 0.3597896 0.09640437
v 0.1153795 0.2838332 0.283834
v -0.1455225 0.3877232 0.1038892
v 0.1153795 0.3877232 0.1038892
v -0.1455225 0.2838332 0.283834
v 0.1455234 0.3597896 0.09640437
v 0.1455234 0.2633852 0.263383
v 0.1153795 0.1038906 0.3877262
v -0.1455225 0.2838332 0.283834
v 0.1153795 0.2838332 0.283834
v -0.1455225 0.1038906 0.3877262
v 0.1455234 0.2633852 0.263383
v 0.1455234 0.09640583 0.3597896
v 0.1153795 -0.1038908 0.3877254
v -0.1455225 0.1038906 0.3877262
v 0.1153795 0.1038906 0.3877262
v -0.1455225 -0.1038908 0.3877254
v 0.1455234 0.09640583 0.3597896
v 0.1455234 -0.0964053 0.3597874
v 0.1153795 -0.2838349 0.2838354
v -0.1455225 -0.1038908 0.3877254
v 0.1153795 -0.1038908 0.3877254
v -0.1455225 -0.2838349 0.2838354
v 0.1455234 -0.0964053 0.3597874
v 0.1455234 -0.2633839 0.2633844
v 0.1153795 -0.3877249 0.1038906
v -0.1455225 -0.2838349 0.2838354
v 0.1153795 -0.2838349 0.2838354
v -0.1455225 -0.3877249 0.1038906
v 0.1455234 -0.2633839 0.2633844
v 0.1455234 -0.3597899 0.09640363
v 0.1153795 -0.3877242 -0.1038908
v -0.1455225 -0.3877249 0.1038906
v 0.1153795 -0.3877249 0.1038906
v -0.1455225 -0.3877242 -0.1038908
v 0.1455234 -0.3597899 0.09640363
v 0.1455234 -0.3597899 -0.09640604
v 0.1153795 -0.2838349 -0.2838327
v -0.1455225 -0.3877242 -0.1038908
v 0.1153795 -0.3877242 -0.1038908
v -0.1455225 -0.2838349 -0.2838327
v 0.1455234 -0.3597899 -0.09640604
v 0.1455234 -0.2633854 -0.2633817
v 0.1153795 -0.1038908 -0.3877271
v -0.1455225 -0.2838349 -0.2838327
v 0.1153795 -0.2838349 -0.2838327
v -0.1455225 -0.1038908 -0.3877271
v 0.1455234 -0.2633854 -0.2633817
v 0.1455234 -0.09640458 -0.3597913
v 0.1153795 0.1038899 -0.3877256
v -0.1455225 -0.1038908 -0.3877271
v 0.1153795 -0.1038908 -0.3877271
v -0.1455225 0.1038899 -0.3877256
v 0.1455234 -0.09640458 -0.3597913
v 0.1455234 0.09640363 -0.3597869
v -0.1455225 -0.3877249 0.1038906
v -0.1455225 -0.2838349 -0.2838327
v -0.1455225 -0.2838349 0.2838354
v -0.1455225 -0.3877242 -0.1038908
v -0.1455225 -0.1038908 0.3877254
v -0.1455225 0.1038906 0.3877262
v -0.1455225 0.2838332 0.283834
v -0.1455225 0.3877232 0.1038892
v -0.1455225 0.3877232 -0.1038901
v -0.1455225 0.2838354 -0.2838371
v -0.1455225 0.1038899 -0.3877256
v -0.1455225 -0.1038908 -0.3877271
v 0.1455234 0.09640363 -0.3597869
v 0.08684835 -8.940697E-08 -8.34465E-07
v 0.1455234 0.2633852 -0.2633861
v 0.1455234 0.3597896 -0.09640235
v 0.1455234 0.3597896 0.09640437
v 0.1455234 0.2633852 0.263383
v 0.1455234 0.09640583 0.3597896
v 0.1455234 -0.0964053 0.3597874
v 0.1455234 -0.2633839 0.2633844
v 0.1455234 -0.3597899 0.09640363
v 0.1455234 -0.3597899 -0.09640604
v 0.1455234 -0.2633854 -0.2633817
v 0.1455234 -0.09640458 -0.3597913
vt 0.09237318 0.5182864
vt 0.03097229 0.4342242
vt 0.03097229 0.5182864
vt 0.09237318 0.4342242
vt 0.03097229 0.5336999
vt 0.09237318 0.5337079
vt 0.09237318 0.5182864
vt 0.03097229 0.4342242
vt 0.03097229 0.5182864
vt 0.09237318 0.4342242
vt 0.03097229 0.5336999
vt 0.09237318 0.5337079
vt 0.09237318 0.5182864
vt 0.03097229 0.4342242
vt 0.03097229 0.5182864
vt 0.09237318 0.4342242
vt 0.03097229 0.5336999
vt 0.09237318 0.5337079
vt 0.09237318 0.5182864
vt 0.03097229 0.4342242
vt 0.03097229 0.5182864
vt 0.09237318 0.4342242
vt 0.03097229 0.5336999
vt 0.09237318 0.5337079
vt 0.09237318 0.5182864
vt 0.03097229 0.4342242
vt 0.03097229 0.5182864
vt 0.09237318 0.4342242
vt 0.03097229 0.5336999
vt 0.09237318 0.5337079
vt 0.09237318 0.5182864
vt 0.03097229 0.4342242
vt 0.03097229 0.5182864
vt 0.09237318 0.4342242
vt 0.03097229 0.5336999
vt 0.09237318 0.5337079
vt 0.09237318 0.5182864
vt 0.03097229 0.4342242
vt 0.03097229 0.5182864
vt 0.09237318 0.4342242
vt 0.03097229 0.5336999
vt 0.09237318 0.5337079
vt 0.09237318 0.5182864
vt 0.03097229 0.4342242
vt 0.03097229 0.5182864
vt 0.09237318 0.4342242
vt 0.03097229 0.5336999
vt 0.09237318 0.5337079
vt 0.09237318 0.5182864
vt 0.03097229 0.4342242
vt 0.03097229 0.5182864
vt 0.09237318 0.4342242
vt 0.03097229 0.5336999
vt 0.09237318 0.5337079
vt 0.09237318 0.5182864
vt 0.03097229 0.4342242
vt 0.03097229 0.5182864
vt 0.09237318 0.4342242
vt 0.03097229 0.5336999
vt 0.09237318 0.5337079
vt 0.09237318 0.5182864
vt 0.03097229 0.4342242
vt 0.03097229 0.5182864
vt 0.09237318 0.4342242
vt 0.03097229 0.5336999
vt 0.09237318 0.5337079
vt 0.09237318 0.5182864
vt 0.03097229 0.4342242
vt 0.03097229 0.5182864
vt 0.09237318 0.4342242
vt 0.03097229 0.5336999
vt 0.09237318 0.5337079
vt 0.04609305 0.2851371
vt 0.1079529 0.2851371
vt 0.0234396 0.3077827
vt 0.07702295 0.2768528
vt 0.01516314 0.3387047
vt 0.0234396 0.3696504
vt 0.04609305 0.392296
vt 0.07702295 0.4005803
vt 0.1079529 0.392296
vt 0.1305984 0.3696504
vt 0.1388907 0.3387047
vt 0.1305984 0.3077827
vt 0.1388907 0.3387047
vt 0.07702295 0.3387047
vt 0.1305984 0.3696504
vt 0.1079529 0.392296
vt 0.07702295 0.4005803
vt 0.04609305 0.392296
vt 0.0234396 0.3696504
vt 0.01516314 0.3387047
vt 0.0234396 0.3077827
vt 0.04609305 0.2851371
vt 0.07702295 0.2768528
vt 0.1079529 0.2851371
vt 0.1305984 0.3077827
vn 0.3604967 0.6507707 -0.6682363
vn -0.6433349 0.1897517 -0.7416971
vn 0.3604967 0.2343664 -0.9028369
vn -0.6433349 0.5243622 -0.5578212
vn 0.9256167 0.09308648 -0.3668359
vn 0.9256167 0.2641096 -0.2710715
vn 0.3604967 0.888716 -0.283242
vn -0.6433349 0.5243622 -0.5578212
vn 0.3604967 0.6507707 -0.6682363
vn -0.6433349 0.7176927 -0.2665285
vn 0.9256167 0.2641096 -0.2710715
vn 0.9256167 0.3607749 -0.1143466
vn 0.3604967 0.888716 0.283242
vn -0.6433349 0.7176927 -0.2665285
vn 0.3604967 0.888716 -0.283242
vn -0.6433349 0.7176927 0.2665285
vn 0.9256167 0.3607749 -0.1143466
vn 0.9256167 0.3607749 0.1143466
vn 0.3604967 0.6507707 0.6682363
vn -0.6433349 0.7176927 0.2665285
vn 0.3604967 0.888716 0.283242
vn -0.6433349 0.5243622 0.5578212
vn 0.9256167 0.3607749 0.1143466
vn 0.9256167 0.2641096 0.2710715
vn 0.3604967 0.2343664 0.9028369
vn -0.6433349 0.5243622 0.5578212
vn 0.3604967 0.6507707 0.6682363
vn -0.6433349 0.1897517 0.7416971
vn 0.9256167 0.2641096 0.2710715
vn 0.9256167 0.09308648 0.3668359
vn 0.3604967 -0.2489598 0.8989222
vn -0.6433349 0.1897517 0.7416971
vn 0.3604967 0.2343664 0.9028369
vn -0.6433349 -0.2043451 0.7378098
vn 0.9256167 0.09308648 0.3668359
vn 0.9256167 -0.1076798 0.3628205
vn 0.3604967 -0.6653641 0.653707
vn -0.6433349 -0.2043451 0.7378098
vn 0.3604967 -0.2489598 0.8989222
vn -0.6433349 -0.5389557 0.5437343
vn 0.9256167 -0.1076798 0.3628205
vn 0.9256167 -0.278703 0.2560435
vn 0.3604967 -0.9107451 0.2014582
vn -0.6433349 -0.5389557 0.5437343
vn 0.3604967 -0.6653641 0.653707
vn -0.6433349 -0.739722 0.1973109
vn 0.9256167 -0.278703 0.2560435
vn 0.9256167 -0.3753683 0.04829389
vn 0.3604967 -0.9107451 -0.2014582
vn -0.6433349 -0.739722 0.1973109
vn 0.3604967 -0.9107451 0.2014582
vn -0.6433349 -0.739722 -0.1973109
vn 0.9256167 -0.3753683 0.04829389
vn 0.9256167 -0.3753683 -0.04829389
vn 0.3604967 -0.6653641 -0.653707
vn -0.6433349 -0.739722 -0.1973109
vn 0.3604967 -0.9107451 -0.2014582
vn -0.6433349 -0.5389557 -0.5437343
vn 0.9256167 -0.3753683 -0.04829389
vn 0.9256167 -0.278703 -0.2560435
vn 0.3604967 -0.2489598 -0.8989222
vn -0.6433349 -0.5389557 -0.5437343
vn 0.3604967 -0.6653641 -0.653707
vn -0.6433349 -0.2043451 -0.7378098
vn 0.9256167 -0.278703 -0.2560435
vn 0.9256167 -0.1076798 -0.3628205
vn 0.3604967 0.2343664 -0.9028369
vn -0.6433349 -0.2043451 -0.7378098
vn 0.3604967 -0.2489598 -0.8989222
vn -0.6433349 0.1897517 -0.7416971
vn 0.9256167 -0.1076798 -0.3628205
vn 0.9256167 0.09308648 -0.3668359
vn -0.6433349 -0.739722 0.1973109
vn -0.6433349 -0.5389557 -0.5437343
vn -0.6433349 -0.5389557 0.5437343
vn -0.6433349 -0.739722 -0.1973109
vn -0.6433349 -0.2043451 0.7378098
vn -0.6433349 0.1897517 0.7416971
vn -0.6433349 0.5243622 0.5578212
vn -0.6433349 0.7176927 0.2665285
vn -0.6433349 0.7176927 -0.2665285
vn -0.6433349 0.5243622 -0.5578212
vn -0.6433349 0.1897517 -0.7416971
vn -0.6433349 -0.2043451 -0.7378098
vn 0.9256167 0.09308648 -0.3668359
vn 0.9999393 -0.01101419 0
vn 0.9256167 0.2641096 -0.2710715
vn 0.9256167 0.3607749 -0.1143466
vn 0.9256167 0.3607749 0.1143466
vn 0.9256167 0.2641096 0.2710715
vn 0.9256167 0.09308648 0.3668359
vn 0.9256167 -0.1076798 0.3628205
vn 0.9256167 -0.278703 0.2560435
vn 0.9256167 -0.3753683 0.04829389
vn 0.9256167 -0.3753683 -0.04829389
vn 0.9256167 -0.278703 -0.2560435
vn 0.9256167 -0.1076798 -0.3628205
g mx_jiaoChe5_qianlun-R_0
f 3/3/3 2/2/2 1/1/1
f 2/2/2 4/4/4 1/1/1
f 3/3/3 1/1/1 5/5/5
f 1/1/1 6/6/6 5/5/5
f 9/9/9 8/8/8 7/7/7
f 8/8/8 10/10/10 7/7/7
f 9/9/9 7/7/7 11/11/11
f 7/7/7 12/12/12 11/11/11
f 15/15/15 14/14/14 13/13/13
f 14/14/14 16/16/16 13/13/13
f 15/15/15 13/13/13 17/17/17
f 13/13/13 18/18/18 17/17/17
f 21/21/21 20/20/20 19/19/19
f 20/20/20 22/22/22 19/19/19
f 21/21/21 19/19/19 23/23/23
f 19/19/19 24/24/24 23/23/23
f 27/27/27 26/26/26 25/25/25
f 26/26/26 28/28/28 25/25/25
f 27/27/27 25/25/25 29/29/29
f 25/25/25 30/30/30 29/29/29
f 33/33/33 32/32/32 31/31/31
f 32/32/32 34/34/34 31/31/31
f 33/33/33 31/31/31 35/35/35
f 31/31/31 36/36/36 35/35/35
f 39/39/39 38/38/38 37/37/37
f 38/38/38 40/40/40 37/37/37
f 39/39/39 37/37/37 41/41/41
f 37/37/37 42/42/42 41/41/41
f 45/45/45 44/44/44 43/43/43
f 44/44/44 46/46/46 43/43/43
f 45/45/45 43/43/43 47/47/47
f 43/43/43 48/48/48 47/47/47
f 51/51/51 50/50/50 49/49/49
f 50/50/50 52/52/52 49/49/49
f 51/51/51 49/49/49 53/53/53
f 49/49/49 54/54/54 53/53/53
f 57/57/57 56/56/56 55/55/55
f 56/56/56 58/58/58 55/55/55
f 57/57/57 55/55/55 59/59/59
f 55/55/55 60/60/60 59/59/59
f 63/63/63 62/62/62 61/61/61
f 62/62/62 64/64/64 61/61/61
f 63/63/63 61/61/61 65/65/65
f 61/61/61 66/66/66 65/65/65
f 69/69/69 68/68/68 67/67/67
f 68/68/68 70/70/70 67/67/67
f 69/69/69 67/67/67 71/71/71
f 67/67/67 72/72/72 71/71/71
f 75/75/75 74/74/74 73/73/73
f 74/74/74 76/76/76 73/73/73
f 74/74/74 75/75/75 77/77/77
f 78/78/78 74/74/74 77/77/77
f 74/74/74 78/78/78 79/79/79
f 80/80/80 74/74/74 79/79/79
f 74/74/74 80/80/80 81/81/81
f 82/82/82 74/74/74 81/81/81
f 74/74/74 82/82/82 83/83/83
f 84/84/84 74/74/74 83/83/83
f 87/87/87 86/86/86 85/85/85
f 88/88/88 86/86/86 87/87/87
f 89/89/89 86/86/86 88/88/88
f 90/90/90 86/86/86 89/89/89
f 91/91/91 86/86/86 90/90/90
f 92/92/92 86/86/86 91/91/91
f 93/93/93 86/86/86 92/92/92
f 94/94/94 86/86/86 93/93/93
f 95/95/95 86/86/86 94/94/94
f 96/96/96 86/86/86 95/95/95
f 97/97/97 86/86/86 96/96/96
f 85/85/85 86/86/86 97/97/97
