g mx_jingChe2_cheli
v -0.9295903 -0.2360371 0.1732665
v 0.9139366 -0.2405025 -0.8234689
v 0.9139366 -0.2360371 0.1732665
v -0.9295903 -0.2405025 -0.8234689
v -0.9295903 -0.5307303 0.1346669
v 0.9139366 -0.5555723 0.1346669
v 0.9139366 -0.5555723 0.1346669
v 0.9139366 -0.2405025 -0.8234689
v 0.9139366 -0.5376784 -0.678183
v 0.9139366 -0.2360371 0.1732665
v 0.2765697 0.2553685 -0.6846353
v 0.2411995 -0.2919182 -0.5509771
v 0.6872219 0.2558165 -0.6846353
v 0.7322934 -0.2919182 -0.5509771
v 0.6872219 0.3298858 -0.5660161
v 0.2765697 0.3295872 -0.5660161
v 0.2411995 -0.2686043 -0.3121607
v 0.7322934 -0.2686043 -0.3121607
v 0.6872219 0.3298858 -0.5660161
v 0.6872219 0.2558165 -0.6846353
v 0.7322934 -0.2686043 -0.3121607
v 0.7322934 -0.2919182 -0.5509771
v 0.2411995 -0.2686043 -0.3121607
v 0.2765697 0.2553685 -0.6846353
v 0.2765697 0.3295872 -0.5660161
v 0.2411995 -0.2919182 -0.5509771
v 0.6206742 0.4877822 -0.6981916
v 0.3597711 0.4877822 -0.6981916
v 0.6066655 0.2603945 -0.6637673
v 0.3715006 0.2603945 -0.6637673
v 0.3597711 0.5418429 -0.5957888
v 0.6206742 0.5418408 -0.5957888
v 0.6066655 0.3124356 -0.5705615
v 0.3715006 0.3124356 -0.5705615
v 0.6066655 0.3124356 -0.5705615
v 0.6206742 0.5418408 -0.5957888
v 0.6206742 0.4877822 -0.6981916
v 0.6066655 0.2603945 -0.6637673
v 0.6066655 0.3124356 -0.5705615
v 0.3715006 0.2603945 -0.6637673
v 0.3715006 0.3124356 -0.5705615
v 0.6066655 0.2603945 -0.6637673
v 0.3597711 0.4877822 -0.6981916
v 0.3597711 0.5418429 -0.5957888
v 0.8935361 0.2087082 0.6665055
v 0.03179443 0.1945436 0.8831748
v 0.7494947 0.248113 0.4499813
v 0.7494947 0.05291355 0.3561846
v -0.6862437 0.05290926 0.3562841
v -0.6862437 0.2481109 0.4493427
v -0.9899021 0.1592687 0.7618974
v -0.8095794 -0.3521131 0.5397671
v 0.8681378 -0.3521131 0.5397671
v -0.8095794 -0.3521131 0.5397671
v 0.8681378 -0.3521131 0.5397671
v -1.134822 -0.5551979 0.6701072
v 1.062976 -0.5723689 0.6209253
v -1.134822 -0.5551979 0.6701072
v 0.9139366 -0.5555723 0.1346669
v -0.9295903 -0.5307303 0.1346669
v 0.9139366 -0.5376784 -0.678183
v 1.005277 -0.6102651 -0.8831789
v -0.9295903 -0.479951 -0.678183
v -0.8765036 -0.5071502 -0.8831768
v 1.134824 -1.014383 0.679261
v 1.134824 -1.014376 -0.8232936
v 1.062976 -0.5723689 0.6209253
v 1.0488 0.01991999 0.6662761
v 1.079891 -0.07569492 0.6661202
v 1.115134 -0.5205117 0.6658475
v 1.006631 0.1456908 0.6664232
v 1.134824 -1.014383 0.679261
v 0.5021026 0.07451534 0.3848925
v 0.5579165 0.1731951 0.4325593
v 0.5450161 0.2462363 0.2885178
v 0.5450161 0.2462363 0.2885178
v 0.5476611 0.1515262 0.2468728
v 0.5450161 0.2462363 0.2885178
v 0.456544 0.264942 0.2917992
v 0.456544 0.264942 0.2917992
v 0.456544 0.1942384 0.4426068
v 0.456544 0.1100111 0.2169571
v 0.5021026 0.07451534 0.3848925
v 0.3551716 0.1731951 0.4325593
v 0.368072 0.2462363 0.2885178
v 0.368072 0.2462363 0.2885178
v 0.365427 0.08924699 0.3924725
v 0.365427 0.1515262 0.2468728
v 0.368072 0.2462363 0.2885178
v 0.5021026 0.07451534 0.3848925
v 0.456544 0.264942 0.2917992
v 0.456544 0.1942384 0.4426068
v 0.456544 0.382585 0.3578708
v 0.456544 0.3600028 0.3327669
v 0.5410225 0.3395764 0.3230135
v 0.5566199 0.3583881 0.3463167
v 0.6028646 0.2837689 0.2963663
v 0.6298798 0.2922776 0.3147495
v 0.3720655 0.3395764 0.3230135
v 0.3564681 0.3583881 0.3463167
v 0.3102235 0.2837689 0.2963663
v 0.2832083 0.2922776 0.3147495
v 0.2953749 0.2340437 0.2697386
v 0.2563943 0.201968 0.2716281
v 0.2971325 0.1756952 0.2447623
v 0.2632125 0.1552211 0.2493056
v 0.326046 0.0869894 0.2095675
v 0.3570071 0.1719592 0.2428944
v 0.368072 0.2462363 0.2885178
v 0.456544 0.05609536 0.1875004
v 0.4128145 0.06026638 0.1896476
v 0.456544 0.02135074 0.1853856
v 0.5002735 0.06026638 0.1896476
v 0.5083472 0.02750659 0.1883229
v 0.5980724 0.07425344 0.2106454
v 0.5760139 0.09972751 0.2084895
v 0.6498734 0.1552211 0.2493056
v 0.6159555 0.1756952 0.2447623
v 0.6566958 0.201968 0.2716281
v 0.6177132 0.2340437 0.2697386
v 0.556081 0.1719592 0.2428944
v 0.5450161 0.2462363 0.2885178
v 0.456544 0.264942 0.2917992
v 0.4047409 0.02750659 0.1883229
v 0.326046 0.0869894 0.2095675
v -0.7191051 0.2553685 -0.6846353
v -0.7544754 -0.2919182 -0.5509771
v -0.308453 0.2558165 -0.6846353
v -0.2633815 -0.2919182 -0.5509771
v -0.308453 0.3298858 -0.5660161
v -0.7191051 0.3295872 -0.5660161
v -0.7544754 -0.2686043 -0.3121607
v -0.2633815 -0.2686043 -0.3121607
v -0.308453 0.3298858 -0.5660161
v -0.308453 0.2558165 -0.6846353
v -0.2633815 -0.2686043 -0.3121607
v -0.2633815 -0.2919182 -0.5509771
v -0.7544754 -0.2686043 -0.3121607
v -0.7191051 0.2553685 -0.6846353
v -0.7191051 0.3295872 -0.5660161
v -0.7544754 -0.2919182 -0.5509771
v -0.3750007 0.4877822 -0.6981916
v -0.6359016 0.4877822 -0.6981916
v -0.3890094 0.2603945 -0.6637673
v -0.6241742 0.2603945 -0.6637673
v -0.6359016 0.5418429 -0.5957888
v -0.3750007 0.5418408 -0.5957888
v -0.3890094 0.3124356 -0.5705615
v -0.6241742 0.3124356 -0.5705615
v -0.3890094 0.3124356 -0.5705615
v -0.3750007 0.5418408 -0.5957888
v -0.3750007 0.4877822 -0.6981916
v -0.3890094 0.2603945 -0.6637673
v -0.3890094 0.3124356 -0.5705615
v -0.6241742 0.2603945 -0.6637673
v -0.6241742 0.3124356 -0.5705615
v -0.3890094 0.2603945 -0.6637673
v -0.6359016 0.4877822 -0.6981916
v -0.6359016 0.5418429 -0.5957888
v -0.9295903 -0.479951 -0.678183
v -1.134822 -0.5551979 0.6701072
v -0.8765036 -0.5071502 -0.8831768
v -0.02433336 1.003731 -0.8165771
v -0.9777418 0.3302625 -0.7489861
v -0.9392203 1.014378 -0.8004559
v -0.02754986 0.2185199 -0.754012
v -0.8724235 0.2195307 -0.7625186
v 0.9913891 0.2195307 -0.7625186
v 1.050419 1.004257 -0.8232871
v -1.00666 -0.03147399 -0.7489774
v -0.6395921 -0.1733596 -0.6868517
v -0.02754986 -0.5621243 -0.6254924
v -0.6596527 -0.5536675 -0.6266049
v -1.00666 -0.5366957 -0.7489666
v 0.9139366 -0.5376784 -0.678183
v 1.098632 0.3345568 -0.8233412
v 1.134824 -0.1181755 -0.8233325
v 1.134824 -0.7504861 -0.8233174
v 1.134824 -1.014376 -0.8232936
v -0.08305001 1.013913 0.390624
v 1.098632 0.3345677 0.67375
v 1.050419 1.00387 0.3539119
v -0.08305001 0.3302668 0.7049147
v -0.9777418 0.3302711 0.6297089
v -0.9392203 1.014099 0.3226413
v 1.098632 0.3345677 0.67375
v -0.08305001 -0.03441989 0.7049147
v 1.134824 -0.1200197 0.6763669
v -0.08305001 0.3302668 0.7049147
v -0.9777418 0.3302711 0.6297089
v -1.00666 -0.03294802 0.6317998
v -1.00666 -0.03147399 -0.7489774
v -1.00666 -0.5366762 0.6334275
v -1.00666 -0.03294802 0.6317998
v -1.00666 -0.5366957 -0.7489666
v -0.9777418 0.3302625 -0.7489861
v -0.9777418 0.3302711 0.6297089
v -0.9392203 1.014099 0.3226413
v -0.9392203 1.014378 -0.8004559
v -0.02433336 1.003731 -0.8165771
v 1.050419 1.00387 0.3539119
v 1.050419 1.004257 -0.8232871
v -0.08305001 1.013913 0.390624
v -0.9392203 1.014099 0.3226413
v -0.9392203 1.014378 -0.8004559
vt 0.08165485 0.1734884
vt 0.1279007 0.1990941
vt 0.1279007 0.1734884
vt 0.08165485 0.1990941
vt 0.08165485 0.1655764
vt 0.1279007 0.1655764
vt 0.1610296 0.1783044
vt 0.1424684 0.2014124
vt 0.1603715 0.2012778
vt 0.1414663 0.1783194
vt 0.1069016 0.1732342
vt 0.1066922 0.1662644
vt 0.1119719 0.1733987
vt 0.1127496 0.1664588
vt 0.1119121 0.1751187
vt 0.1068567 0.1749542
vt 0.1061538 0.182956
vt 0.1122112 0.1831654
vt 0.09178048 0.1767938
vt 0.09505598 0.1951755
vt 0.1745653 0.1766592
vt 0.1792019 0.2058844
vt 0.5091446 0.09655163
vt 0.2998269 0.02148443
vt 0.2862163 0.06784991
vt 0.4946815 0.01494839
vt 0.106408 0.1729949
vt 0.1119869 0.1728902
vt 0.1066174 0.1680741
vt 0.1116429 0.1679844
vt 0.1120317 0.175373
vt 0.106438 0.1754627
vt 0.1068268 0.1803984
vt 0.1118522 0.1803086
vt 0.1231295 0.1920645
vt 0.1239671 0.1763302
vt 0.1164888 0.1788279
vt 0.1162794 0.1945174
vt 0.4060188 0.118134
vt 0.4956388 0.158816
vt 0.4956388 0.118134
vt 0.4060188 0.158816
vt 0.5778253 0.1280203
vt 0.5767933 0.08389835
vt 0.2149481 0.02443088
vt 0.1425432 0.006647476
vt 0.2001112 0.04562439
vt 0.2029978 0.06191214
vt 0.08069763 0.06427528
vt 0.08291121 0.0463124
vt 0.05108355 0.02236687
vt 0.0338685 0.08546879
vt 0.2129888 0.1110296
vt 0.07250141 0.1138116
vt 0.252923 0.0747449
vt 0.007888875 0.0737129
vt 0.2295607 0.1193754
vt 0.04528039 0.1210805
vt 0.2148734 0.1456243
vt 0.05990795 0.1537756
vt 0.1940089 0.222247
vt 0.2011282 0.2411671
vt 0.05585471 0.2331503
vt 0.04381464 0.2511282
vt 0.24534 0.1287682
vt 0.2190462 0.2357528
vt 0.2707961 0.07134975
vt 0.2341973 0.02695855
vt 0.2406586 0.02869352
vt 0.2673561 0.05416461
vt 0.2256421 0.01780511
vt 0.282881 0.08527435
vt 0.774744 0.1775865
vt 0.7540441 0.2216637
vt 0.7837927 0.214993
vt 0.7837927 0.214993
vt 0.7829701 0.2062883
vt 0.7837927 0.214993
vt 0.7903288 0.2157857
vt 0.7903288 0.2157857
vt 0.7903288 0.2406586
vt 0.7903288 0.2061237
vt 0.774744 0.1775865
vt 0.8265985 0.2216637
vt 0.7968498 0.214993
vt 0.7968498 0.214993
vt 0.8214983 0.186052
vt 0.7976874 0.2062883
vt 0.7968498 0.214993
vt 0.774744 0.1775865
vt 0.7903288 0.2157857
vt 0.7903288 0.2406586
vt 0.5469698 0.07816996
vt 0.5473737 0.07296507
vt 0.5352289 0.06868748
vt 0.532432 0.07300994
vt 0.5267186 0.05871142
vt 0.5222167 0.06102969
vt 0.5600269 0.07058696
vt 0.5621209 0.0752983
vt 0.570003 0.0620617
vt 0.5740712 0.06506798
vt 0.5728747 0.05370096
vt 0.5794107 0.04991694
vt 0.5734281 0.04400908
vt 0.5789171 0.04176559
vt 0.5703171 0.02899265
vt 0.5646635 0.04264803
vt 0.5619713 0.05589958
vt 0.5514119 0.02193313
vt 0.5577685 0.02312966
vt 0.5518457 0.01656371
vt 0.5450105 0.02214252
vt 0.5440384 0.01708719
vt 0.5303082 0.02432619
vt 0.5334939 0.02828969
vt 0.5211099 0.03717391
vt 0.5261652 0.04035966
vt 0.519345 0.04522057
vt 0.5252379 0.05000668
vt 0.5350943 0.04034471
vt 0.5357524 0.05388044
vt 0.548645 0.05772429
vt 0.5594736 0.01826876
vt 0.5703171 0.02899265
vt 0.1069016 0.1732342
vt 0.1066922 0.1662644
vt 0.1119719 0.1733987
vt 0.1127496 0.1664588
vt 0.1119121 0.1751187
vt 0.1068567 0.1749542
vt 0.1061538 0.182956
vt 0.1122112 0.1831654
vt 0.09178048 0.1767938
vt 0.09505598 0.1951755
vt 0.1745653 0.1766592
vt 0.1792019 0.2058844
vt 0.5091446 0.09655163
vt 0.2998269 0.02148443
vt 0.2862163 0.06784991
vt 0.4946815 0.01494839
vt 0.106408 0.1729949
vt 0.1119869 0.1728902
vt 0.1066174 0.1680741
vt 0.1116429 0.1679844
vt 0.1120317 0.175373
vt 0.106438 0.1754627
vt 0.1068268 0.1803984
vt 0.1118522 0.1803086
vt 0.1231295 0.1920645
vt 0.1239671 0.1763302
vt 0.1164888 0.1788279
vt 0.1162794 0.1945174
vt 0.4060188 0.118134
vt 0.4956388 0.158816
vt 0.4956388 0.118134
vt 0.4060188 0.158816
vt 0.5778253 0.1280203
vt 0.5767933 0.08389835
vt 0.05585471 0.2331503
vt 0.04528039 0.1210805
vt 0.04381464 0.2511282
vt 0.3749988 0.1827615
vt 0.3486901 0.2550767
vt 0.3755073 0.2462972
vt 0.3241164 0.1846161
vt 0.327018 0.2509786
vt 0.3221571 0.1181639
vt 0.3721421 0.1139013
vt 0.3112687 0.2614781
vt 0.2934703 0.2340328
vt 0.2586513 0.1871289
vt 0.2613136 0.2368745
vt 0.2632131 0.2606406
vt 0.2574399 0.1255375
vt 0.3436946 0.1066922
vt 0.3062732 0.1010087
vt 0.282552 0.0936351
vt 0.239477 0.09176552
vt 0.8384442 0.6146634
vt 0.985677 0.5283189
vt 0.9868287 0.6183278
vt 0.8391472 0.5247294
vt 0.6925874 0.525881
vt 0.6894913 0.6160694
vt 0.7396558 0.2588607
vt 0.6521746 0.2244306
vt 0.7396558 0.2244306
vt 0.6521746 0.2588607
vt 0.564499 0.2588607
vt 0.564499 0.2244306
vt 0.1719928 0.3789473
vt 0.00747009 0.3022498
vt 0.007844005 0.3789473
vt 0.1719928 0.3019507
vt 0.1719928 0.4347354
vt 0.00826279 0.4347354
vt 0.04804736 0.5162191
vt 0.1719928 0.5162191
vt 0.4595335 0.252235
vt 0.5295753 0.1781998
vt 0.5295902 0.252235
vt 0.4595335 0.1749093
vt 0.3894768 0.1781998
vt 0.3894618 0.252235
vn 0.01176578 0.6470519 0.7623551
vn 0.5843098 0.8039134 -0.1109299
vn 0.5843098 0.537249 0.6082315
vn 0.01176508 0.9999309 0
vn 0.04313803 0.9137163 0.4040564
vn 0.3647038 0.8666579 0.340434
vn 0.3647038 0.8666579 0.340434
vn 0.5843098 0.8039134 -0.1109299
vn 0.6627405 0.7333257 -0.1516852
vn 0.5843098 0.537249 0.6082315
vn -0.5607783 0.301957 -0.7709408
vn -0.7411687 -0.1215687 -0.6602196
vn 0.5843098 0.3098 -0.7500707
vn 0.7647003 -0.1058826 -0.6356275
vn 0.5607805 0.7882272 0.2534227
vn -0.5450921 0.7882272 0.2856089
vn -0.6235228 0.3254862 0.7108292
vn 0.6470543 0.3333292 0.6857203
vn 0.5607805 0.7882272 0.2534227
vn 0.5843098 0.3098 -0.7500707
vn 0.6470543 0.3333292 0.6857203
vn 0.7647003 -0.1058826 -0.6356275
vn -0.6235228 0.3254862 0.7108292
vn -0.5607783 0.301957 -0.7709408
vn -0.5450921 0.7882272 0.2856089
vn -0.7411687 -0.1215687 -0.6602196
vn 0.6313682 0.3333292 -0.7001899
vn -0.6078366 0.3333292 -0.7207124
vn 0.5529375 -0.7647003 -0.3308981
vn -0.537249 -0.7647003 -0.3558047
vn -0.5607783 0.7097965 0.4262823
vn 0.5921528 0.7097965 0.3815022
vn 0.5921528 -0.3960761 0.7017683
vn -0.5686213 -0.3960761 0.7209671
vn 0.5921528 -0.3960761 0.7017683
vn 0.5921528 0.7097965 0.3815022
vn 0.6313682 0.3333292 -0.7001899
vn 0.5529375 -0.7647003 -0.3308981
vn 0.5921528 -0.3960761 0.7017683
vn -0.537249 -0.7647003 -0.3558047
vn -0.5686213 -0.3960761 0.7209671
vn 0.5529375 -0.7647003 -0.3308981
vn -0.6078366 0.3333292 -0.7207124
vn -0.5607783 0.7097965 0.4262823
vn 0.5529375 0.5921504 -0.5861894
vn 0.003922701 0.9764608 0.2156592
vn 0.38039 0.7803842 -0.4962902
vn 0.4431345 0.02744961 -0.8960348
vn -0.3568585 0.02744961 -0.9337551
vn -0.301957 0.8039134 -0.5123917
vn -0.6392089 0.537249 -0.5502504
vn -0.2705847 -0.270587 -0.9238867
vn 0.2784301 -0.1921563 -0.941038
vn -0.2705847 -0.270587 -0.9238867
vn 0.2784301 -0.1921563 -0.941038
vn -0.2313694 0.6705812 -0.7048327
vn 0.7019558 0.2705847 -0.6588186
vn -0.2313694 0.6705812 -0.7048327
vn 0.3647038 0.8666579 0.340434
vn 0.04313803 0.9137163 0.4040564
vn 0.6627405 0.7333257 -0.1516852
vn 0.6705835 0.7254827 -0.1548954
vn -0.9529316 -0.003922701 -0.3031598
vn -0.01960647 0.9764608 -0.214802
vn 0.9871224 0.1599671 0
vn 0.9562005 0.2927129 0
vn 0.7019558 0.2705847 -0.6588186
vn 0.3882331 0.1058803 -0.9154586
vn 0.270587 0.06666493 -0.9603845
vn 0.6470543 0.02744961 -0.7619497
vn 0.1999994 0.1843109 -0.9623044
vn 0.9871224 0.1599671 0
vn 0.5137222 -0.8352879 -0.1959173
vn 0.9215617 0.3803877 0.07764804
vn 0.4745068 0.7097965 -0.5206075
vn 0.4745068 0.7097965 -0.5206075
vn 0.8636369 -0.5041143 0
vn 0.4745068 0.7097965 -0.5206075
vn 0.01176578 0.9450885 -0.3266026
vn 0.01176578 0.9450885 -0.3266026
vn 0.01176578 0.890187 0.4554433
vn -0.05097878 -0.9921493 -0.114197
vn 0.5137222 -0.8352879 -0.1959173
vn -0.8117564 0.5137198 0.2777473
vn -0.419603 0.7333257 -0.5349455
vn -0.419603 0.7333257 -0.5349455
vn -0.7254827 -0.615682 -0.3075882
vn -0.7882272 -0.5999959 -0.1367584
vn -0.419603 0.7333257 -0.5349455
vn 0.5137222 -0.8352879 -0.1959173
vn 0.01176578 0.9450885 -0.3266026
vn 0.01176578 0.890187 0.4554433
vn 0.01176578 0.7333257 -0.6797757
vn 0.01176578 0.7333257 -0.6797757
vn 0.1999994 0.6862673 -0.6993122
vn 0.1999994 0.6862673 -0.6993122
vn 0.3333316 0.5764643 -0.7460422
vn 0.3490177 0.5686213 -0.7448869
vn -0.1764679 0.6862673 -0.7056177
vn -0.1764679 0.6862673 -0.7056177
vn -0.3098 0.5764643 -0.7561169
vn -0.3254862 0.5686213 -0.7554658
vn -0.2313694 0.4588183 -0.8578776
vn -0.3568585 0.3882307 -0.849664
vn -0.2078401 0.3411723 -0.9167355
vn -0.301957 0.301957 -0.9042366
vn -0.2784277 0.2627416 -0.9238208
vn 0.1058826 0.4745045 -0.8738618
vn -0.419603 0.7333257 -0.5349455
vn 0.01176578 0.2392124 -0.9708959
vn -0.06666493 0.1999971 -0.9775259
vn 0.01176578 0.04313576 -0.999
vn 0.09019643 0.1999971 -0.9756361
vn 0.1294118 0.0588218 -0.9898447
vn 0.2862732 0.1450956 -0.9470982
vn 0.2784301 0.1529387 -0.9482017
vn 0.3333316 0.301957 -0.8931472
vn 0.2313717 0.3411723 -0.911081
vn 0.38039 0.3882307 -0.8393929
vn 0.2549009 0.4588183 -0.8511823
vn -0.08235109 0.4745045 -0.8763925
vn 0.4745068 0.7097965 -0.5206075
vn 0.01176578 0.9450885 -0.3266026
vn -0.1058803 0.0588218 -0.9926376
vn -0.1843109 0.07450795 -0.9800398
vn -0.5607783 0.301957 -0.7709408
vn -0.7411687 -0.1215687 -0.6602196
vn 0.5843098 0.3098 -0.7500707
vn 0.7647003 -0.1058826 -0.6356275
vn 0.5607805 0.7882272 0.2534227
vn -0.5450921 0.7882272 0.2856089
vn -0.6235228 0.3254862 0.7108292
vn 0.6470543 0.3333292 0.6857203
vn 0.5607805 0.7882272 0.2534227
vn 0.5843098 0.3098 -0.7500707
vn 0.6470543 0.3333292 0.6857203
vn 0.7647003 -0.1058826 -0.6356275
vn -0.6235228 0.3254862 0.7108292
vn -0.5607783 0.301957 -0.7709408
vn -0.5450921 0.7882272 0.2856089
vn -0.7411687 -0.1215687 -0.6602196
vn 0.6313682 0.3333292 -0.7001899
vn -0.6078366 0.3333292 -0.7207124
vn 0.5529375 -0.7647003 -0.3308981
vn -0.537249 -0.7647003 -0.3558047
vn -0.5607783 0.7097965 0.4262823
vn 0.5921528 0.7097965 0.3815022
vn 0.5921528 -0.3960761 0.7017683
vn -0.5686213 -0.3960761 0.7209671
vn 0.5921528 -0.3960761 0.7017683
vn 0.5921528 0.7097965 0.3815022
vn 0.6313682 0.3333292 -0.7001899
vn 0.5529375 -0.7647003 -0.3308981
vn 0.5921528 -0.3960761 0.7017683
vn -0.537249 -0.7647003 -0.3558047
vn -0.5686213 -0.3960761 0.7209671
vn 0.5529375 -0.7647003 -0.3308981
vn -0.6078366 0.3333292 -0.7207124
vn -0.5607783 0.7097965 0.4262823
vn -0.9529316 -0.003922701 -0.3031598
vn -0.2313694 0.6705812 -0.7048327
vn -0.01960647 0.9764608 -0.214802
vn 0.01960886 -0.6862696 0.7270828
vn 0.733328 -0.0509811 0.6779609
vn 0.5686236 -0.5843098 0.5790072
vn 0.01960886 0.1058803 0.9941855
vn 0.01960886 -0.01176578 0.9997385
vn 0.2627439 0.0588218 0.9630709
vn 0.0509811 -0.6705835 0.7400802
vn 0.6941127 -0.003922701 0.7198557
vn -0.07450795 0.1215664 0.9897829
vn 0.02745193 0.1372526 0.9901556
vn -0.1529387 0.1529387 0.9763296
vn 0.607839 0.0588218 0.7918786
vn 0.3647038 0.03529263 0.9304545
vn 0.4745068 0.01960647 0.8800335
vn 0.505879 0.02744961 0.8621676
vn 0.5607805 -0.01176578 0.8278809
vn 0.5607805 -0.01176578 0.8278809
vn 0.02745193 -0.8509741 -0.5244898
vn -0.01176345 -0.2235286 -0.9746264
vn -0.01176345 -0.8588172 -0.5121471
vn 0.04313803 -0.2235286 -0.9737423
vn 0.6941127 -0.2078425 -0.689209
vn 0.607839 -0.7019558 -0.3712005
vn -0.01176345 -0.2235286 -0.9746264
vn 0.03529495 -0.01176578 -0.9993076
vn -0.01176345 -0.01960886 -0.9997385
vn 0.04313803 -0.2235286 -0.9737423
vn 0.6941127 -0.2078425 -0.689209
vn 0.9215617 -0.0509811 -0.38487
vn 0.6941127 -0.003922701 0.7198557
vn 0.9999309 -0.01176505 0
vn 0.9215617 -0.0509811 -0.38487
vn 0.607839 0.0588218 0.7918786
vn 0.733328 -0.0509811 0.6779609
vn 0.6941127 -0.2078425 -0.689209
vn 0.607839 -0.7019558 -0.3712005
vn 0.5686236 -0.5843098 0.5790072
vn 0.01960886 -0.6862696 0.7270828
vn -0.01176345 -0.8588172 -0.5121471
vn 0.0509811 -0.6705835 0.7400802
vn 0.02745193 -0.8509741 -0.5244898
vn 0.607839 -0.7019558 -0.3712005
vn 0.5686236 -0.5843098 0.5790072
g mx_jingChe2_cheli_0
f 3/3/3 2/2/2 1/1/1
f 4/4/4 1/1/1 2/2/2
f 1/1/1 5/5/5 3/3/3
f 6/6/6 3/3/3 5/5/5
f 9/9/9 8/8/8 7/7/7
f 10/10/10 7/7/7 8/8/8
f 13/13/13 12/12/12 11/11/11
f 14/14/14 12/12/12 13/13/13
f 15/15/15 13/13/13 11/11/11
f 11/11/11 16/16/16 15/15/15
f 16/16/16 17/17/17 15/15/15
f 17/17/17 18/18/18 15/15/15
f 21/21/21 20/20/20 19/19/19
f 21/21/21 22/22/22 20/20/20
f 25/25/25 24/24/24 23/23/23
f 26/26/26 23/23/23 24/24/24
f 29/29/29 28/28/28 27/27/27
f 29/29/29 30/30/30 28/28/28
f 27/27/27 28/28/28 31/31/31
f 31/31/31 32/32/32 27/27/27
f 31/31/31 33/33/33 32/32/32
f 34/34/34 33/33/33 31/31/31
f 37/37/37 36/36/36 35/35/35
f 35/35/35 38/38/38 37/37/37
f 41/41/41 40/40/40 39/39/39
f 40/40/40 42/42/42 39/39/39
f 40/40/40 41/41/41 43/43/43
f 41/41/41 44/44/44 43/43/43
f 47/47/47 46/46/46 45/45/45
f 47/47/47 45/45/45 48/48/48
f 48/48/48 49/49/49 47/47/47
f 50/50/50 47/47/47 49/49/49
f 50/50/50 46/46/46 47/47/47
f 50/50/50 49/49/49 51/51/51
f 51/51/51 46/46/46 50/50/50
f 52/52/52 51/51/51 49/49/49
f 48/48/48 53/53/53 49/49/49
f 54/54/54 49/49/49 53/53/53
f 55/55/55 48/48/48 45/45/45
f 56/56/56 51/51/51 52/52/52
f 53/53/53 57/57/57 54/54/54
f 58/58/58 54/54/54 57/57/57
f 57/57/57 59/59/59 58/58/58
f 60/60/60 58/58/58 59/59/59
f 59/59/59 57/57/57 61/61/61
f 62/62/62 61/61/61 57/57/57
f 61/61/61 62/62/62 63/63/63
f 60/60/60 63/63/63 58/58/58
f 64/64/64 63/63/63 62/62/62
f 57/57/57 65/65/65 62/62/62
f 66/66/66 62/62/62 65/65/65
f 68/68/68 67/67/67 55/55/55
f 68/68/68 69/69/69 67/67/67
f 69/69/69 70/70/70 67/67/67
f 71/71/71 68/68/68 55/55/55
f 70/70/70 72/72/72 67/67/67
f 45/45/45 71/71/71 55/55/55
f 75/75/75 74/74/74 73/73/73
f 73/73/73 77/77/77 76/76/76
f 79/79/79 74/74/74 78/78/78
f 81/81/81 74/74/74 80/80/80
f 83/83/83 82/82/82 77/77/77
f 85/85/85 84/84/84 79/79/79
f 87/87/87 84/84/84 86/86/86
f 89/89/89 88/88/88 87/87/87
f 88/88/88 82/82/82 90/90/90
f 90/90/90 87/87/87 88/88/88
f 84/84/84 92/92/92 91/91/91
f 95/95/95 94/94/94 93/93/93
f 93/93/93 96/96/96 95/95/95
f 97/97/97 95/95/95 96/96/96
f 96/96/96 98/98/98 97/97/97
f 93/93/93 94/94/94 99/99/99
f 99/99/99 100/100/100 93/93/93
f 100/100/100 99/99/99 101/101/101
f 101/101/101 102/102/102 100/100/100
f 102/102/102 101/101/101 103/103/103
f 104/104/104 102/102/102 103/103/103
f 104/104/104 103/103/103 105/105/105
f 105/105/105 106/106/106 104/104/104
f 106/106/106 105/105/105 107/107/107
f 108/108/108 105/105/105 103/103/103
f 108/108/108 103/103/103 109/109/109
f 110/110/110 108/108/108 109/109/109
f 110/110/110 111/111/111 108/108/108
f 111/111/111 110/110/110 112/112/112
f 112/112/112 110/110/110 113/113/113
f 113/113/113 114/114/114 112/112/112
f 115/115/115 114/114/114 113/113/113
f 113/113/113 116/116/116 115/115/115
f 115/115/115 116/116/116 117/117/117
f 116/116/116 118/118/118 117/117/117
f 117/117/117 118/118/118 119/119/119
f 118/118/118 120/120/120 119/119/119
f 120/120/120 98/98/98 119/119/119
f 120/120/120 118/118/118 121/121/121
f 110/110/110 121/121/121 113/113/113
f 122/122/122 120/120/120 121/121/121
f 121/121/121 110/110/110 122/122/122
f 122/122/122 110/110/110 123/123/123
f 123/123/123 110/110/110 109/109/109
f 112/112/112 124/124/124 111/111/111
f 111/111/111 124/124/124 125/125/125
f 97/97/97 98/98/98 120/120/120
f 128/128/128 127/127/127 126/126/126
f 129/129/129 127/127/127 128/128/128
f 130/130/130 128/128/128 126/126/126
f 126/126/126 131/131/131 130/130/130
f 131/131/131 132/132/132 130/130/130
f 132/132/132 133/133/133 130/130/130
f 136/136/136 135/135/135 134/134/134
f 136/136/136 137/137/137 135/135/135
f 140/140/140 139/139/139 138/138/138
f 141/141/141 138/138/138 139/139/139
f 144/144/144 143/143/143 142/142/142
f 144/144/144 145/145/145 143/143/143
f 142/142/142 143/143/143 146/146/146
f 146/146/146 147/147/147 142/142/142
f 146/146/146 148/148/148 147/147/147
f 149/149/149 148/148/148 146/146/146
f 152/152/152 151/151/151 150/150/150
f 150/150/150 153/153/153 152/152/152
f 156/156/156 155/155/155 154/154/154
f 155/155/155 157/157/157 154/154/154
f 155/155/155 156/156/156 158/158/158
f 156/156/156 159/159/159 158/158/158
f 162/162/162 161/161/161 160/160/160
f 165/165/165 164/164/164 163/163/163
f 166/166/166 163/163/163 164/164/164
f 164/164/164 167/167/167 166/166/166
f 166/166/166 168/168/168 163/163/163
f 169/169/169 163/163/163 168/168/168
f 167/167/167 164/164/164 170/170/170
f 171/171/171 166/166/166 167/167/167
f 170/170/170 171/171/171 167/167/167
f 166/166/166 171/171/171 172/172/172
f 166/166/166 172/172/172 168/168/168
f 173/173/173 172/172/172 171/171/171
f 173/173/173 171/171/171 174/174/174
f 170/170/170 174/174/174 171/171/171
f 175/175/175 168/168/168 172/172/172
f 169/169/169 168/168/168 176/176/176
f 177/177/177 176/176/176 168/168/168
f 177/177/177 168/168/168 175/175/175
f 175/175/175 178/178/178 177/177/177
f 175/175/175 179/179/179 178/178/178
f 182/182/182 181/181/181 180/180/180
f 183/183/183 180/180/180 181/181/181
f 183/183/183 184/184/184 180/180/180
f 185/185/185 180/180/180 184/184/184
f 188/188/188 187/187/187 186/186/186
f 189/189/189 186/186/186 187/187/187
f 189/189/189 187/187/187 190/190/190
f 191/191/191 190/190/190 187/187/187
f 194/194/194 193/193/193 192/192/192
f 195/195/195 192/192/192 193/193/193
f 192/192/192 196/196/196 194/194/194
f 197/197/197 194/194/194 196/196/196
f 197/197/197 196/196/196 198/198/198
f 199/199/199 198/198/198 196/196/196
f 202/202/202 201/201/201 200/200/200
f 203/203/203 200/200/200 201/201/201
f 203/203/203 204/204/204 200/200/200
f 205/205/205 200/200/200 204/204/204
