g mx_jiaoChe5_chemen-L
v -0.1243362 0.1024286 -0.02492976
v 0.01514816 -0.007603049 -0.3552467
v 8.34465E-07 -8.34465E-07 -8.34465E-07
v -0.09547663 0.1042552 -0.3645207
v 0.013291 0.02415955 -1.196652
v -0.1059942 0.1408577 -1.201249
v 0.003896713 0.04254031 -1.57118
v -0.1140205 0.1581681 -1.620687
v 0.03620565 -0.07030666 -1.180799
v 0.03901291 -0.06382573 -1.517864
v -0.01617002 -0.09125614 -1.500764
v 0.00278151 -0.08904827 -1.178304
v 0.03630149 -0.08121765 -0.3493243
v 0.05270469 -0.2335436 -0.3643025
v 0.05606246 -0.2405914 0.009320021
v 0.02694607 -0.5413822 -0.4168108
v 0.04107606 -0.5689797 -0.01030433
v 0.06388283 -0.6009666 -0.4179137
v 0.0389334 -0.6132416 -0.009097338
v -0.006755352 -0.1921768 -1.467735
v 0.01621234 -0.2193626 -1.167542
v 0.01241636 -0.4812982 -1.34757
v 0.06178904 -0.5854115 -1.254602
v -0.1886851 0.1531142 -1.633757
v -0.1375448 0.1385316 -1.20317
v -0.236068 0.2808334 -1.209164
v -0.199594 0.2458088 -0.4060383
v -0.3213725 0.4554095 -0.656961
v -0.3347442 0.4523678 -1.214664
v -0.3237414 0.3672652 -1.682298
v -0.2575495 0.2625219 -1.674459
v -0.1242281 0.1107301 -0.3699354
v -0.2270387 0.2843236 -0.2588049
v -0.2962804 0.4092906 -0.4829333
v -0.01304674 0.1735601 -0.1471139
v 0.06679201 0.1179571 -0.1747584
v -0.01987433 0.117056 -0.1413608
v 0.06741178 0.1743022 -0.1701754
v 0.09678304 0.2005135 -0.2324021
v -0.01241684 0.213084 -0.2097768
v 0.08533585 0.224894 -0.3061676
v 0.1558701 0.1769463 -0.2805088
v 0.1552727 0.1863406 -0.330546
v 0.1593786 0.1176473 -0.2908428
v 0.1278096 0.1171151 -0.226392
v 0.1228679 0.1756986 -0.2211648
v 0.1648769 0.1179755 -0.3367028
v -0.01403749 0.2359946 -0.2740115
v -0.0451988 0.1727182 -0.1473218
v -0.05221593 0.1196901 -0.1474278
v -0.0451988 0.1727182 -0.1473218
v -0.04506624 0.2056366 -0.2101641
v -0.04448116 0.2256402 -0.2645561
v -0.06415844 0.170759 -0.260126
v -0.06478226 0.1588674 -0.2311422
v -0.06206071 0.1495363 -0.1855389
v -0.0451988 0.1727182 -0.1473218
v -0.05221593 0.1196901 -0.1474278
v 0.1452913 0.100455 -0.3332269
v -0.05303955 0.09656322 -0.1823647
v -0.05228722 0.08887541 -0.2678097
v -0.05303955 0.09656322 -0.1823647
v 0.03096831 0.0958966 -0.2071162
v -0.05228722 0.08887541 -0.2678097
v 0.05334687 0.0870651 -0.3035479
v 0.1648769 0.1179755 -0.3367028
v 0.1552727 0.1863406 -0.330546
v 0.1452913 0.100455 -0.3332269
v 0.08533585 0.224894 -0.3061676
v 0.05334687 0.0870651 -0.3035479
v -0.01403749 0.2359946 -0.2740115
v -0.06415844 0.170759 -0.260126
v -0.05228722 0.08887541 -0.2678097
v -0.04448116 0.2256402 -0.2645561
v 0.02140284 0.1118717 -0.2313133
v -0.05200589 0.0176909 -0.2392744
v -0.03645492 -0.001906991 -0.2130346
v 0.00579679 0.1217593 -0.1835349
v 0.02140284 0.1118717 -0.2313133
v -0.05739009 0.01523423 -0.1544511
v -0.08712006 0.04029977 -0.1420641
v -0.02311373 0.1429514 -0.1755514
v 0.02140284 0.1118717 -0.2313133
v -0.017699 0.1330638 -0.2274195
v -0.07658827 0.03750682 -0.2230078
v -0.017699 0.1330638 -0.2274195
v -0.08712006 0.04029977 -0.1420641
v -0.07658827 0.03750682 -0.2230078
v -0.02311373 0.1429514 -0.1755514
v 0.05606246 -0.2405914 0.009320021
v -0.09286916 -0.0273639 -8.34465E-07
v 8.34465E-07 -8.34465E-07 -8.34465E-07
v -0.03681362 -0.2679526 0.009320021
v 8.34465E-07 -8.34465E-07 -8.34465E-07
v -0.2172061 0.0750674 -0.02492976
v -0.1243362 0.1024286 -0.02492976
v -0.09286916 -0.0273639 -8.34465E-07
v 0.04107606 -0.5689797 -0.01030433
v -0.03681362 -0.2679526 0.009320021
v 0.05606246 -0.2405914 0.009320021
v -0.05179799 -0.5963409 -0.01030433
v 0.0389334 -0.6132416 -0.009097338
v -0.05179799 -0.5963409 -0.01030433
v 0.04107606 -0.5689797 -0.01030433
v -0.05394268 -0.6405985 -0.009097338
v 0.06388283 -0.6009666 -0.4179137
v -0.05394268 -0.6405985 -0.009097338
v 0.0389334 -0.6132416 -0.009097338
v -0.02899122 -0.6283257 -0.4179137
v 0.06178904 -0.5854115 -1.254602
v -0.03108704 -0.6127726 -1.254602
v -0.1140205 0.1581681 -1.620687
v -0.08897328 0.01517916 -1.57118
v 0.003896713 0.04254031 -1.57118
v -0.2068925 0.1308069 -1.620687
v 0.003896713 0.04254031 -1.57118
v -0.05386317 -0.09118474 -1.517864
v 0.03901291 -0.06382573 -1.517864
v -0.08897328 0.01517916 -1.57118
v 0.03901291 -0.06382573 -1.517864
v -0.109042 -0.1186173 -1.500764
v -0.01617002 -0.09125614 -1.500764
v -0.05386317 -0.09118474 -1.517864
v -0.01617002 -0.09125614 -1.500764
v -0.09962535 -0.2195359 -1.467735
v -0.006755352 -0.1921768 -1.467735
v -0.109042 -0.1186173 -1.500764
v -0.006755352 -0.1921768 -1.467735
v -0.08045566 -0.5086594 -1.34757
v 0.01241636 -0.4812982 -1.34757
v -0.09962535 -0.2195359 -1.467735
v 0.01241636 -0.4812982 -1.34757
v -0.03108704 -0.6127726 -1.254602
v 0.06178904 -0.5854115 -1.254602
v -0.08045566 -0.5086594 -1.34757
v -0.1243362 0.1024286 -0.02492976
v -0.3199148 0.2569624 -0.2588049
v -0.2270387 0.2843236 -0.2588049
v -0.2172061 0.0750674 -0.02492976
v -0.2962804 0.4092906 -0.4829333
v -0.4142444 0.4280484 -0.656961
v -0.3213725 0.4554095 -0.656961
v -0.3891525 0.3819294 -0.4829333
v -0.1886851 0.1531142 -1.633757
v -0.2068925 0.1308069 -1.620687
v -0.1140205 0.1581681 -1.620687
v -0.2815611 0.125751 -1.633757
v -0.3237414 0.3672652 -1.682298
v -0.3504195 0.2351608 -1.674459
v -0.2575495 0.2625219 -1.674459
v -0.4166155 0.3399041 -1.682298
v -0.3347442 0.4523678 -1.214664
v -0.4166155 0.3399041 -1.682298
v -0.3237414 0.3672652 -1.682298
v -0.4276183 0.4250066 -1.214664
v -0.3213725 0.4554095 -0.656961
v -0.4276183 0.4250066 -1.214664
v -0.3347442 0.4523678 -1.214664
v -0.4142444 0.4280484 -0.656961
v -0.2575495 0.2625219 -1.674459
v -0.2815611 0.125751 -1.633757
v -0.1886851 0.1531142 -1.633757
v -0.3504195 0.2351608 -1.674459
v -0.2270387 0.2843236 -0.2588049
v -0.3891525 0.3819294 -0.4829333
v -0.2962804 0.4092906 -0.4829333
v -0.3199148 0.2569624 -0.2588049
v -0.2172061 0.0750674 -0.02492976
v -0.07772386 -0.03496623 -0.3552467
v -0.1883487 0.07689404 -0.3645207
v -0.09286916 -0.0273639 -8.34465E-07
v -0.07958317 -0.003201485 -1.196652
v -0.1988662 0.1134945 -1.201249
v -0.08897328 0.01517916 -1.57118
v -0.2068925 0.1308069 -1.620687
v -0.05666637 -0.09766376 -1.180799
v -0.05386317 -0.09118474 -1.517864
v -0.109042 -0.1186173 -1.500764
v -0.09008837 -0.1164093 -1.178304
v -0.05657256 -0.1085788 -0.3493243
v -0.04017138 -0.2609048 -0.3643025
v -0.03681362 -0.2679526 0.009320021
v -0.06592596 -0.5687412 -0.4168108
v -0.05179799 -0.5963409 -0.01030433
v -0.02899122 -0.6283257 -0.4179137
v -0.05394268 -0.6405985 -0.009097338
v -0.09962535 -0.2195359 -1.467735
v -0.07665968 -0.2467238 -1.167542
v -0.08045566 -0.5086594 -1.34757
v -0.03108704 -0.6127726 -1.254602
v -0.2815611 0.125751 -1.633757
v -0.2304147 0.1111684 -1.20317
v -0.3289421 0.2534742 -1.209164
v -0.2924701 0.2184477 -0.4060383
v -0.4142444 0.4280484 -0.656961
v -0.4276183 0.4250066 -1.214664
v -0.4166155 0.3399041 -1.682298
v -0.3504195 0.2351608 -1.674459
v -0.2171001 0.0833689 -0.3699354
v -0.3199148 0.2569624 -0.2588049
v -0.3891525 0.3819294 -0.4829333
vt 0.2488959 0.3472219
vt 0.2511708 0.4113739
vt 0.2234929 0.3589502
vt 0.273945 0.3991526
vt 0.3246499 0.5313366
vt 0.3469817 0.5180411
vt 0.3608333 0.5834822
vt 0.3889409 0.5767839
vt 0.3102043 0.5362149
vt 0.3402835 0.5856686
vt 0.3328016 0.5819783
vt 0.3053259 0.5379211
vt 0.2404282 0.4169474
vt 0.2196888 0.4321259
vt 0.187221 0.3799171
vt 0.1804595 0.4664895
vt 0.1421402 0.4114118
vt 0.1712588 0.4734532
vt 0.1358969 0.4152285
vt 0.3163844 0.5849735
vt 0.2865959 0.5464393
vt 0.2658944 0.5936687
vt 0.2425641 0.5940605
vt 0.3957782 0.5693273
vt 0.3500149 0.5149321
vt 0.3745459 0.5006382
vt 0.301585 0.3900404
vt 0.3558664 0.4071653
vt 0.4027419 0.4851815
vt 0.4326568 0.5563352
vt 0.4156961 0.563817
vt 0.2777112 0.3971052
vt 0.2972753 0.3650419
vt 0.334811 0.3872853
vt 0.3143876 0.9340938
vt 0.3019515 0.9296452
vt 0.3090921 0.9397053
vt 0.3071837 0.9258158
vt 0.3058441 0.9163117
vt 0.3185709 0.9246531
vt 0.3087382 0.9066182
vt 0.2961884 0.9111553
vt 0.2946339 0.9048488
vt 0.288656 0.9155535
vt 0.2954301 0.921544
vt 0.3016229 0.9179042
vt 0.2845359 0.9112564
vt 0.3224002 0.9158568
vt 0.3176482 0.9367985
vt 0.3108615 0.9433451
vt 0.3176482 0.9367985
vt 0.3220337 0.9273703
vt 0.3260527 0.9201285
vt 0.3308805 0.9270543
vt 0.3287067 0.9308711
vt 0.3244855 0.9358
vt 0.3176482 0.9367985
vt 0.3226277 0.942334
vt 0.2823495 0.9166151
vt 0.3285045 0.9420307
vt 0.338691 0.9357242
vt 0.3037461 0.9453672
vt 0.2984001 0.934612
vt 0.2909435 0.9463783
vt 0.2853321 0.9310228
vt 0.8812658 0.9569565
vt 0.8876734 0.9641477
vt 0.8822642 0.9534178
vt 0.8992121 0.963124
vt 0.8925644 0.9446468
vt 0.9122675 0.956628
vt 0.9134681 0.9451018
vt 0.9057462 0.9365457
vt 0.9152249 0.9530386
vt 0.709486 0.9369627
vt 0.6991352 0.9499297
vt 0.7026866 0.9535063
vt 0.7157799 0.9402866
vt 0.709486 0.9369627
vt 0.7108383 0.9572472
vt 0.7163612 0.958372
vt 0.7207088 0.9414999
vt 0.709486 0.9369627
vt 0.7041021 0.9339043
vt 0.6953437 0.946808
vt 0.728039 0.9421824
vt 0.7163612 0.958372
vt 0.7276852 0.9577528
vt 0.7207088 0.9414999
vt 0.187221 0.3799171
vt 0.2234929 0.3589502
vt 0.2234929 0.3589502
vt 0.187221 0.3799171
vt 0.2234929 0.3589502
vt 0.2488959 0.3472219
vt 0.2488959 0.3472219
vt 0.2234929 0.3589502
vt 0.1421402 0.4114118
vt 0.187221 0.3799171
vt 0.187221 0.3799171
vt 0.1421402 0.4114118
vt 0.1358969 0.4152285
vt 0.1421402 0.4114118
vt 0.1421402 0.4114118
vt 0.1358969 0.4152285
vt 0.1712588 0.4734532
vt 0.1358969 0.4152285
vt 0.1358969 0.4152285
vt 0.1712588 0.4734532
vt 0.2425641 0.5940605
vt 0.2425641 0.5940605
vt 0.3889409 0.5767839
vt 0.3608333 0.5834822
vt 0.3608333 0.5834822
vt 0.3889409 0.5767839
vt 0.3608333 0.5834822
vt 0.3402835 0.5856686
vt 0.3402835 0.5856686
vt 0.3608333 0.5834822
vt 0.3402835 0.5856686
vt 0.3328016 0.5819783
vt 0.3328016 0.5819783
vt 0.3402835 0.5856686
vt 0.3328016 0.5819783
vt 0.3163844 0.5849735
vt 0.3163844 0.5849735
vt 0.3328016 0.5819783
vt 0.3163844 0.5849735
vt 0.2658944 0.5936687
vt 0.2658944 0.5936687
vt 0.3163844 0.5849735
vt 0.2658944 0.5936687
vt 0.2425641 0.5940605
vt 0.2425641 0.5940605
vt 0.2658944 0.5936687
vt 0.2488959 0.3472219
vt 0.2972753 0.3650419
vt 0.2972753 0.3650419
vt 0.2488959 0.3472219
vt 0.334811 0.3872853
vt 0.3558664 0.4071653
vt 0.3558664 0.4071653
vt 0.334811 0.3872853
vt 0.3957782 0.5693273
vt 0.3889409 0.5767839
vt 0.3889409 0.5767839
vt 0.3957782 0.5693273
vt 0.4326568 0.5563352
vt 0.4156961 0.563817
vt 0.4156961 0.563817
vt 0.4326568 0.5563352
vt 0.4027419 0.4851815
vt 0.4326568 0.5563352
vt 0.4326568 0.5563352
vt 0.4027419 0.4851815
vt 0.3558664 0.4071653
vt 0.4027419 0.4851815
vt 0.4027419 0.4851815
vt 0.3558664 0.4071653
vt 0.4156961 0.563817
vt 0.3957782 0.5693273
vt 0.3957782 0.5693273
vt 0.4156961 0.563817
vt 0.2972753 0.3650419
vt 0.334811 0.3872853
vt 0.334811 0.3872853
vt 0.2972753 0.3650419
vt 0.2488959 0.3472219
vt 0.2511708 0.4113739
vt 0.273945 0.3991526
vt 0.2234929 0.3589502
vt 0.3246499 0.5313366
vt 0.3469817 0.5180411
vt 0.3608333 0.5834822
vt 0.3889409 0.5767839
vt 0.3102043 0.5362149
vt 0.3402835 0.5856686
vt 0.3328016 0.5819783
vt 0.3053259 0.5379211
vt 0.2404282 0.4169474
vt 0.2196888 0.4321259
vt 0.187221 0.3799171
vt 0.1804595 0.4664895
vt 0.1421402 0.4114118
vt 0.1712588 0.4734532
vt 0.1358969 0.4152285
vt 0.3163844 0.5849735
vt 0.2865959 0.5464393
vt 0.2658944 0.5936687
vt 0.2425641 0.5940605
vt 0.3957782 0.5693273
vt 0.3500149 0.5149321
vt 0.3745459 0.5006382
vt 0.301585 0.3900404
vt 0.3558664 0.4071653
vt 0.4027419 0.4851815
vt 0.4326568 0.5563352
vt 0.4156961 0.563817
vt 0.2777112 0.3971052
vt 0.2972753 0.3650419
vt 0.334811 0.3872853
vn 0.7175297 0.6940042 -0.05923996
vn 0.8665249 0.4979578 -0.03424241
vn 0.858683 0.5057997 -0.08264457
vn 0.4901159 0.8665251 0.09444961
vn 0.8743668 0.4822741 -0.05380047
vn 0.3558327 0.9345497 0
vn 0.8116319 0.5763763 -0.0950999
vn 0.2705439 0.9606273 0.06325457
vn 0.9158888 -0.4014321 0
vn 0.9768238 -0.214045 0
vn 0.8041762 -0.5943911 0
vn 0.8856788 -0.4642986 0
vn 0.9829166 0.1840521 0
vn 0.9998364 0.01176286 -0.01373847
vn 0.9982744 0.05872205 0
vn 0.9730572 0.2305638 0
vn 0.9998078 -0.019604 0
vn 0.8665249 0.4979578 -0.03424241
vn 0.9987031 -0.05091421 0
vn 0.9987031 0.05091432 0
vn 0.9993778 0.03527215 0
vn 0.9916004 0.1293392 0
vn 0.9013403 0.4331116 0
vn 0.5685344 0.8194739 -0.07232705
vn 0.427381 0.8978925 -0.1055204
vn 0.8508412 0.5214834 -0.06422035
vn 0.8689615 0.4948795 0
vn 0.8743668 0.4822741 -0.05380047
vn 0.8743668 0.4822741 -0.05380047
vn 0.8581836 0.5133427 0
vn 0.8547256 0.51908 0
vn 0.5981218 0.8014052 0
vn 0.858683 0.5057997 -0.08264457
vn 0.858683 0.5057997 -0.08264457
vn 0.1450742 0.490116 0.8594998
vn 0.4352229 -0.537167 0.7225183
vn 0.09018129 -0.4822741 0.8713663
vn 0.4195392 0.435223 0.7965977
vn 0.3803299 0.8508413 0.3625166
vn 0.01176274 0.8978925 0.4400577
vn 0.0666557 0.8273157 -0.5577686
vn 0.8743668 0.4273812 0.2298436
vn 0.5685344 0.5057997 -0.6487952
vn 0.8429993 -0.4979578 0.2034458
vn 0.6626367 -0.5685344 0.4875256
vn 0.7175297 0.3881719 0.578337
vn 0.701846 -0.2548602 -0.6651755
vn -0.2078092 0.8508413 -0.482581
vn -0.5057997 0.4665904 0.7255757
vn -0.6312693 -0.3568044 0.6886143
vn -0.5057997 0.4665904 0.7255757
vn -0.6312693 0.701846 0.330017
vn -0.6312693 0.6626368 -0.4030032
vn -0.8508413 0.1293906 -0.5092418
vn -0.9919946 0.0744977 0.1019646
vn -0.9841528 0.08233953 0.1570462
vn -0.5057997 0.4665904 0.7255757
vn -0.6312693 -0.3568044 0.6886143
vn 0.1842836 -0.7488971 -0.6365476
vn -0.5920601 -0.7802645 0.2016238
vn -0.5920601 -0.646953 -0.4805379
vn -0.5920601 -0.7802645 0.2016238
vn 0.1450742 -0.968469 0.202537
vn -0.5920601 -0.646953 -0.4805379
vn -0.1372325 -0.7645808 -0.6297488
vn 0.701846 -0.2548602 -0.6651755
vn 0.5685344 0.5057997 -0.6487952
vn 0.1842836 -0.7488971 -0.6365476
vn 0.0666557 0.8273157 -0.5577686
vn -0.1372325 -0.7645808 -0.6297488
vn -0.2078092 0.8508413 -0.482581
vn -0.8508413 0.1293906 -0.5092418
vn -0.5920601 -0.646953 -0.4805379
vn -0.6312693 0.6626368 -0.4030032
vn 0.7645808 -0.2862276 -0.5774859
vn 0.1999673 -0.160758 -0.9665247
vn 0.8807223 -0.4736328 0
vn 0.6861622 -0.1842836 0.7037194
vn 0.7645808 -0.2862276 -0.5774859
vn 0.6626367 -0.1999673 0.7217518
vn -0.2862277 0.4430648 0.8495689
vn -0.5371671 0.5450089 0.6437522
vn 0.7645808 -0.2862276 -0.5774859
vn -0.5920601 0.38033 -0.7105026
vn -0.701846 0.4038556 -0.5867818
vn -0.5920601 0.38033 -0.7105026
vn -0.2862277 0.4430648 0.8495689
vn -0.701846 0.4038556 -0.5867818
vn -0.5371671 0.5450089 0.6437522
vn -0.003920913 0.03528833 0.9993695
vn -0.003920913 0.03528833 0.9993695
vn -0.003920913 0.03528833 0.9993695
vn -0.003920913 0.03528833 0.9993695
vn -0.0509721 0.1686 0.9843658
vn -0.0509721 0.1686 0.9843658
vn -0.0509721 0.1686 0.9843658
vn -0.0509721 0.1686 0.9843658
vn 0.01960456 -0.0666557 0.9975834
vn 0.01960456 -0.0666557 0.9975834
vn 0.01960456 -0.0666557 0.9975834
vn 0.01960456 -0.0666557 0.9975834
vn -0.003920913 0.02744651 0.9996156
vn -0.003920913 0.02744651 0.9996156
vn -0.003920913 0.02744651 0.9996156
vn -0.003920913 0.02744651 0.9996156
vn 0.285553 -0.9583629 0
vn 0.285553 -0.9583629 0
vn 0.285553 -0.9583629 0
vn 0.285553 -0.9583629 0
vn 0.285553 -0.9583629 0
vn 0.285553 -0.9583629 0
vn 0.09802312 -0.3175951 -0.9431463
vn 0.09802312 -0.3175951 -0.9431463
vn 0.09802312 -0.3175951 -0.9431463
vn 0.09802312 -0.3175951 -0.9431463
vn 0.1215487 -0.427381 -0.8958635
vn 0.1215487 -0.427381 -0.8958635
vn 0.1215487 -0.427381 -0.8958635
vn 0.1215487 -0.427381 -0.8958635
vn 0.2470184 -0.8273156 -0.5045104
vn 0.2470184 -0.8273156 -0.5045104
vn 0.2470184 -0.8273156 -0.5045104
vn 0.2470184 -0.8273156 -0.5045104
vn 0.09018129 -0.3097532 -0.9465306
vn 0.09018129 -0.3097532 -0.9465306
vn 0.09018129 -0.3097532 -0.9465306
vn 0.09018129 -0.3097532 -0.9465306
vn 0.1137068 -0.3881718 -0.9145455
vn 0.1137068 -0.3881718 -0.9145455
vn 0.1137068 -0.3881718 -0.9145455
vn 0.1137068 -0.3881718 -0.9145455
vn 0.1842836 -0.6155856 -0.7662206
vn 0.1842836 -0.6155856 -0.7662206
vn 0.1842836 -0.6155856 -0.7662206
vn 0.1842836 -0.6155856 -0.7662206
vn -0.2078092 0.7175298 0.6648055
vn -0.2078092 0.7175298 0.6648055
vn -0.2078092 0.7175298 0.6648055
vn -0.2078092 0.7175298 0.6648055
vn -0.2705441 0.9135761 0.3036192
vn -0.2705441 0.9135761 0.3036192
vn -0.2705441 0.9135761 0.3036192
vn -0.2705441 0.9135761 0.3036192
vn 0.1842836 -0.6155856 -0.7662206
vn 0.1842836 -0.6155856 -0.7662206
vn 0.1842836 -0.6155856 -0.7662206
vn 0.1842836 -0.6155856 -0.7662206
vn 0.01960456 -0.0666557 -0.9975834
vn 0.01960456 -0.0666557 -0.9975834
vn 0.01960456 -0.0666557 -0.9975834
vn 0.01960456 -0.0666557 -0.9975834
vn -0.2705441 0.9371017 -0.220559
vn -0.2705441 0.9371017 -0.220559
vn -0.2705441 0.9371017 -0.220559
vn -0.2705441 0.9371017 -0.220559
vn -0.2783859 0.9527854 0.1212492
vn -0.2783859 0.9527854 0.1212492
vn -0.2783859 0.9527854 0.1212492
vn -0.2783859 0.9527854 0.1212492
vn 0.09018129 -0.3019114 -0.949061
vn 0.09018129 -0.3019114 -0.949061
vn 0.09018129 -0.3019114 -0.949061
vn 0.09018129 -0.3019114 -0.949061
vn -0.2391766 0.811632 0.5329615
vn -0.2391766 0.811632 0.5329615
vn -0.2391766 0.811632 0.5329615
vn -0.2391766 0.811632 0.5329615
vn -0.701846 -0.7096878 -0.06128124
vn -0.8508413 -0.5136415 -0.1106415
vn -0.4822741 -0.8743668 -0.0538002
vn -0.8508413 -0.5214833 -0.06422058
vn -0.8665251 -0.4979578 -0.0342398
vn -0.3326155 -0.9430626 0
vn -0.8014052 -0.5981218 0
vn -0.2544933 -0.9670746 0
vn -0.9135761 0.3960137 0.09247597
vn -0.976311 0.2078092 0.06026788
vn -0.8037902 0.5920601 0.05819055
vn -0.8822087 0.4587486 0.1061016
vn -0.976311 -0.1999673 -0.08264367
vn -0.9919946 -0.01960456 0.1247491
vn -0.9919946 -0.07449758 -0.1019647
vn -0.9684691 -0.2470184 0.03239478
vn -0.9998366 0.01176286 -0.01372979
vn -0.8508413 -0.5136415 -0.1106415
vn -0.9919946 0.04313028 -0.1186864
vn -0.9919946 -0.0666557 0.1072553
vn -0.9919946 -0.05097198 0.1155359
vn -0.9841528 -0.1450742 0.1019645
vn -0.8900505 -0.4430647 -0.1072551
vn -0.5606927 -0.8273156 0.03424328
vn -0.4108527 -0.9117017 0
vn -0.8429995 -0.537167 0.02834661
vn -0.8586831 -0.5057996 -0.08264422
vn -0.8665251 -0.4979578 0.0342398
vn -0.8665251 -0.4979578 0.0342398
vn -0.8429995 -0.5293251 -0.0957436
vn -0.8429995 -0.537167 0.02834661
vn -0.5763763 -0.8116319 -0.0950999
vn -0.8508413 -0.5214833 -0.06422058
vn -0.8508413 -0.5214833 -0.06422058
g mx_jiaoChe5_chemen-L_0
f 3/3/3 2/2/2 1/1/1
f 4/4/4 1/1/1 2/2/2
f 2/2/2 5/5/5 4/4/4
f 6/6/6 4/4/4 5/5/5
f 5/5/5 7/7/7 6/6/6
f 8/8/8 6/6/6 7/7/7
f 5/5/5 2/2/2 9/9/9
f 5/5/5 9/9/9 10/10/10
f 10/10/10 7/7/7 5/5/5
f 10/10/10 9/9/9 11/11/11
f 12/12/12 11/11/11 9/9/9
f 9/9/9 13/13/13 12/12/12
f 13/13/13 9/9/9 2/2/2
f 2/2/2 3/3/3 13/13/13
f 14/14/14 12/12/12 13/13/13
f 13/13/13 15/15/15 14/14/14
f 3/3/3 15/15/15 13/13/13
f 14/14/14 15/15/15 16/16/16
f 17/17/17 16/16/16 15/15/15
f 16/16/16 17/17/17 18/18/18
f 19/19/19 18/18/18 17/17/17
f 11/11/11 12/12/12 20/20/20
f 21/21/21 20/20/20 12/12/12
f 14/14/14 16/16/16 21/21/21
f 21/21/21 12/12/12 14/14/14
f 21/21/21 22/22/22 20/20/20
f 22/22/22 21/21/21 16/16/16
f 18/18/18 23/23/23 16/16/16
f 22/22/22 16/16/16 23/23/23
f 24/24/24 6/6/6 8/8/8
f 6/6/6 24/24/24 25/25/25
f 25/25/25 24/24/24 26/26/26
f 26/26/26 27/27/27 25/25/25
f 27/27/27 26/26/26 28/28/28
f 29/29/29 28/28/28 26/26/26
f 29/29/29 26/26/26 30/30/30
f 31/31/31 30/30/30 26/26/26
f 31/31/31 26/26/26 24/24/24
f 32/32/32 25/25/25 27/27/27
f 25/25/25 32/32/32 6/6/6
f 32/32/32 27/27/27 1/1/1
f 1/1/1 27/27/27 33/33/33
f 33/33/33 27/27/27 34/34/34
f 28/28/28 34/34/34 27/27/27
f 4/4/4 32/32/32 1/1/1
f 4/4/4 6/6/6 32/32/32
f 37/37/37 36/36/36 35/35/35
f 38/38/38 35/35/35 36/36/36
f 38/38/38 39/39/39 35/35/35
f 40/40/40 35/35/35 39/39/39
f 39/39/39 41/41/41 40/40/40
f 39/39/39 42/42/42 41/41/41
f 43/43/43 41/41/41 42/42/42
f 42/42/42 44/44/44 43/43/43
f 44/44/44 42/42/42 45/45/45
f 46/46/46 45/45/45 42/42/42
f 42/42/42 39/39/39 46/46/46
f 38/38/38 46/46/46 39/39/39
f 38/38/38 36/36/36 46/46/46
f 45/45/45 46/46/46 36/36/36
f 47/47/47 43/43/43 44/44/44
f 48/48/48 40/40/40 41/41/41
f 35/35/35 49/49/49 37/37/37
f 50/50/50 37/37/37 49/49/49
f 35/35/35 40/40/40 51/51/51
f 52/52/52 51/51/51 40/40/40
f 40/40/40 53/53/53 52/52/52
f 48/48/48 53/53/53 40/40/40
f 53/53/53 54/54/54 52/52/52
f 55/55/55 52/52/52 54/54/54
f 55/55/55 56/56/56 52/52/52
f 52/52/52 56/56/56 57/57/57
f 58/58/58 57/57/57 56/56/56
f 59/59/59 47/47/47 44/44/44
f 56/56/56 60/60/60 58/58/58
f 55/55/55 61/61/61 56/56/56
f 60/60/60 56/56/56 61/61/61
f 54/54/54 61/61/61 55/55/55
f 50/50/50 62/62/62 37/37/37
f 63/63/63 37/37/37 62/62/62
f 36/36/36 37/37/37 63/63/63
f 45/45/45 36/36/36 63/63/63
f 45/45/45 63/63/63 44/44/44
f 63/63/63 59/59/59 44/44/44
f 64/64/64 63/63/63 62/62/62
f 65/65/65 63/63/63 64/64/64
f 65/65/65 59/59/59 63/63/63
f 68/68/68 67/67/67 66/66/66
f 69/69/69 67/67/67 68/68/68
f 70/70/70 69/69/69 68/68/68
f 71/71/71 69/69/69 70/70/70
f 72/72/72 71/71/71 70/70/70
f 73/73/73 72/72/72 70/70/70
f 74/74/74 71/71/71 72/72/72
f 77/77/77 76/76/76 75/75/75
f 79/79/79 78/78/78 77/77/77
f 80/80/80 77/77/77 78/78/78
f 80/80/80 78/78/78 81/81/81
f 82/82/82 81/81/81 78/78/78
f 84/84/84 83/83/83 76/76/76
f 85/85/85 84/84/84 76/76/76
f 88/88/88 87/87/87 86/86/86
f 89/89/89 86/86/86 87/87/87
f 92/92/92 91/91/91 90/90/90
f 93/93/93 90/90/90 91/91/91
f 96/96/96 95/95/95 94/94/94
f 97/97/97 94/94/94 95/95/95
f 100/100/100 99/99/99 98/98/98
f 101/101/101 98/98/98 99/99/99
f 104/104/104 103/103/103 102/102/102
f 105/105/105 102/102/102 103/103/103
f 108/108/108 107/107/107 106/106/106
f 109/109/109 106/106/106 107/107/107
f 106/106/106 109/109/109 110/110/110
f 111/111/111 110/110/110 109/109/109
f 114/114/114 113/113/113 112/112/112
f 115/115/115 112/112/112 113/113/113
f 118/118/118 117/117/117 116/116/116
f 119/119/119 116/116/116 117/117/117
f 122/122/122 121/121/121 120/120/120
f 123/123/123 120/120/120 121/121/121
f 126/126/126 125/125/125 124/124/124
f 127/127/127 124/124/124 125/125/125
f 130/130/130 129/129/129 128/128/128
f 131/131/131 128/128/128 129/129/129
f 134/134/134 133/133/133 132/132/132
f 135/135/135 132/132/132 133/133/133
f 138/138/138 137/137/137 136/136/136
f 139/139/139 136/136/136 137/137/137
f 142/142/142 141/141/141 140/140/140
f 143/143/143 140/140/140 141/141/141
f 146/146/146 145/145/145 144/144/144
f 147/147/147 144/144/144 145/145/145
f 150/150/150 149/149/149 148/148/148
f 151/151/151 148/148/148 149/149/149
f 154/154/154 153/153/153 152/152/152
f 155/155/155 152/152/152 153/153/153
f 158/158/158 157/157/157 156/156/156
f 159/159/159 156/156/156 157/157/157
f 162/162/162 161/161/161 160/160/160
f 163/163/163 160/160/160 161/161/161
f 166/166/166 165/165/165 164/164/164
f 167/167/167 164/164/164 165/165/165
f 170/170/170 169/169/169 168/168/168
f 171/171/171 168/168/168 169/169/169
f 169/169/169 170/170/170 172/172/172
f 173/173/173 172/172/172 170/170/170
f 174/174/174 172/172/172 173/173/173
f 173/173/173 175/175/175 174/174/174
f 172/172/172 176/176/176 169/169/169
f 176/176/176 172/172/172 177/177/177
f 174/174/174 177/177/177 172/172/172
f 177/177/177 178/178/178 176/176/176
f 179/179/179 176/176/176 178/178/178
f 180/180/180 176/176/176 179/179/179
f 180/180/180 169/169/169 176/176/176
f 171/171/171 169/169/169 180/180/180
f 179/179/179 181/181/181 180/180/180
f 182/182/182 180/180/180 181/181/181
f 182/182/182 171/171/171 180/180/180
f 181/181/181 183/183/183 182/182/182
f 184/184/184 182/182/182 183/183/183
f 183/183/183 185/185/185 184/184/184
f 186/186/186 184/184/184 185/185/185
f 178/178/178 187/187/187 179/179/179
f 188/188/188 179/179/179 187/187/187
f 181/181/181 188/188/188 183/183/183
f 179/179/179 188/188/188 181/181/181
f 189/189/189 188/188/188 187/187/187
f 189/189/189 183/183/183 188/188/188
f 189/189/189 190/190/190 183/183/183
f 185/185/185 183/183/183 190/190/190
f 173/173/173 191/191/191 175/175/175
f 191/191/191 173/173/173 192/192/192
f 192/192/192 193/193/193 191/191/191
f 193/193/193 192/192/192 194/194/194
f 194/194/194 195/195/195 193/193/193
f 196/196/196 193/193/193 195/195/195
f 196/196/196 197/197/197 193/193/193
f 198/198/198 193/193/193 197/197/197
f 198/198/198 191/191/191 193/193/193
f 199/199/199 194/194/194 192/192/192
f 192/192/192 173/173/173 199/199/199
f 194/194/194 199/199/199 168/168/168
f 194/194/194 168/168/168 200/200/200
f 194/194/194 200/200/200 201/201/201
f 201/201/201 195/195/195 194/194/194
f 199/199/199 170/170/170 168/168/168
f 170/170/170 199/199/199 173/173/173
