g mx_jingChe2_qianlun-R
v -0.1854111 0.2462927 0.426596
v 0.1377426 1.311302E-06 0.4925916
v -0.1854111 1.311302E-06 0.4925916
v 0.1377426 0.2462927 0.426596
v -0.1854111 0.4265913 0.2462946
v 0.1377426 0.2462927 0.426596
v -0.1854111 0.2462927 0.426596
v 0.1377426 0.4265913 0.2462946
v -0.1854111 0.4925878 -5.662441E-07
v 0.1377426 0.4265913 0.2462946
v -0.1854111 0.4265913 0.2462946
v 0.1377426 0.4925878 -5.662441E-07
v -0.1854111 0.4265904 -0.2462967
v 0.1377426 0.4925878 -5.662441E-07
v -0.1854111 0.4925878 -5.662441E-07
v 0.1377426 0.4265904 -0.2462948
v -0.1854111 0.2462898 -0.4265972
v 0.1377426 0.4265904 -0.2462948
v -0.1854111 0.4265904 -0.2462967
v 0.1377426 0.2462898 -0.4265972
v -0.1854111 1.311302E-06 -0.4925918
v 0.1377426 0.2462898 -0.4265972
v -0.1854111 0.2462898 -0.4265972
v 0.1377426 1.311302E-06 -0.492589
v -0.1854111 -0.2462948 -0.4265972
v 0.1377426 1.311302E-06 -0.492589
v -0.1854111 1.311302E-06 -0.4925918
v 0.1377426 -0.2462948 -0.4265972
v -0.1854111 -0.4265972 -0.2462948
v 0.1377426 -0.2462948 -0.4265972
v -0.1854111 -0.2462948 -0.4265972
v 0.1377426 -0.4265972 -0.2462948
v -0.1854111 -0.492589 -5.662441E-07
v 0.1377426 -0.4265972 -0.2462948
v -0.1854111 -0.4265972 -0.2462948
v 0.1377426 -0.492589 -5.662441E-07
v -0.1854111 -0.4265953 0.2462955
v 0.1377426 -0.492589 -5.662441E-07
v -0.1854111 -0.492589 -5.662441E-07
v 0.1377426 -0.4265953 0.2462955
v -0.1854111 -0.2462985 0.4265989
v 0.1377426 -0.4265953 0.2462955
v -0.1854111 -0.4265953 0.2462955
v 0.1377426 -0.2462985 0.4265989
v -0.1854111 1.311302E-06 0.4925916
v 0.1377426 -0.2462985 0.4265989
v -0.1854111 -0.2462985 0.4265989
v 0.1377426 1.311302E-06 0.4925916
v -0.1854111 0.2462927 0.426596
v -0.1854111 0.4265904 -0.2462967
v -0.1854111 0.4265913 0.2462946
v -0.1854111 0.2462898 -0.4265972
v -0.1854111 1.311302E-06 -0.4925918
v -0.1854111 1.311302E-06 0.4925916
v -0.1854111 -0.2462948 -0.4265972
v -0.1854111 -0.2462985 0.4265989
v -0.1854111 -0.4265972 -0.2462948
v -0.1854111 -0.4265953 0.2462955
v -0.1854111 0.4925878 -5.662441E-07
v -0.1854111 -0.492589 -5.662441E-07
v 0.1377426 0.2462927 0.426596
v 0.1854123 -0.1066643 0.3980649
v 0.1377426 1.311302E-06 0.4925916
v 0.1854123 0.2914021 0.2913993
v 0.03481919 -1.519918E-06 -5.662441E-07
v 0.1854123 0.3980649 -0.1066662
v 0.1377426 0.4925878 -5.662441E-07
v 0.1377426 0.4265913 0.2462946
v 0.1854123 0.1066603 -0.3980642
v 0.1377426 0.2462898 -0.4265972
v 0.1377426 0.4265904 -0.2462948
v 0.1854123 -0.291407 -0.291407
v 0.1377426 -0.2462948 -0.4265972
v 0.1377426 1.311302E-06 -0.492589
v 0.1854123 -0.398066 0.1066575
v 0.1377426 -0.492589 -5.662441E-07
v 0.1377426 -0.4265972 -0.2462948
v 0.1377426 -0.2462985 0.4265989
v 0.1377426 -0.4265953 0.2462955
vt 0.8329326 0.07922415
vt 0.740025 0.006993443
vt 0.8329326 0.006993443
vt 0.740025 0.07922415
vt 0.8329326 0.07922415
vt 0.740025 0.006993443
vt 0.8329326 0.006993443
vt 0.740025 0.07922415
vt 0.8329326 0.07922415
vt 0.740025 0.006993443
vt 0.8329326 0.006993443
vt 0.740025 0.07922415
vt 0.8329326 0.07922415
vt 0.740025 0.006993443
vt 0.8329326 0.006993443
vt 0.740025 0.07922415
vt 0.8329326 0.07922415
vt 0.740025 0.006993443
vt 0.8329326 0.006993443
vt 0.740025 0.07922415
vt 0.8329326 0.07922415
vt 0.740025 0.006993443
vt 0.8329326 0.006993443
vt 0.740025 0.07922415
vt 0.8329326 0.07922415
vt 0.740025 0.006993443
vt 0.8329326 0.006993443
vt 0.740025 0.07922415
vt 0.8329326 0.07922415
vt 0.740025 0.006993443
vt 0.8329326 0.006993443
vt 0.740025 0.07922415
vt 0.8329326 0.07922415
vt 0.740025 0.006993443
vt 0.8329326 0.006993443
vt 0.740025 0.07922415
vt 0.8329326 0.07922415
vt 0.740025 0.006993443
vt 0.8329326 0.006993443
vt 0.740025 0.07922415
vt 0.8329326 0.07922415
vt 0.740025 0.006993443
vt 0.8329326 0.006993443
vt 0.740025 0.07922415
vt 0.8329326 0.07922415
vt 0.740025 0.006993443
vt 0.8329326 0.006993443
vt 0.740025 0.07922415
vt 0.9010979 0.100105
vt 0.9525059 0.100105
vt 0.9173743 0.1094891
vt 0.9619337 0.08378501
vt 0.9619337 0.06497326
vt 0.8916556 0.08378501
vt 0.9525059 0.0486678
vt 0.8916556 0.06497326
vt 0.936186 0.03926922
vt 0.9010979 0.0486678
vt 0.936186 0.1094891
vt 0.9173743 0.03926922
vt 0.6822784 0.008946017
vt 0.6357808 0.02883605
vt 0.6446694 0.009120875
vt 0.6902198 0.02938977
vt 0.6624175 0.07587271
vt 0.7164339 0.07711128
vt 0.7303059 0.06009182
vt 0.7117273 0.02737891
vt 0.6883255 0.1231716
vt 0.7099349 0.1268874
vt 0.7287904 0.09487388
vt 0.634688 0.1221517
vt 0.6423817 0.1426828
vt 0.6793932 0.142814
vt 0.6084448 0.0753627
vt 0.5946602 0.09241131
vt 0.6132679 0.1244102
vt 0.6140403 0.02567405
vt 0.5956948 0.05799353
vn 0.01176465 0.4980353 0.8670769
vn 0.5137216 0.01960766 0.8577329
vn 0.01176465 -0.01176465 0.9998616
vn 0.5137216 0.4039184 0.756928
vn 0.01176465 0.8588169 0.5121476
vn 0.5137216 0.4039184 0.756928
vn 0.01176465 0.4980353 0.8670769
vn 0.5137216 0.7568569 0.4040516
vn 0.003921568 0.9999923 -0.000345267
vn 0.5137216 0.7568569 0.4040516
vn 0.01176465 0.8588169 0.5121476
vn 0.5133428 0.8581836 0
vn 0.01176465 0.8588169 -0.5121476
vn 0.5133428 0.8581836 0
vn 0.003921568 0.9999923 -0.000345267
vn 0.5137216 0.7333276 -0.4453321
vn 0.01176465 0.4980353 -0.8670769
vn 0.5137216 0.7333276 -0.4453321
vn 0.01176465 0.8588169 -0.5121476
vn 0.5137216 0.4509768 -0.7298698
vn 0.01176465 -0.01176465 -0.9998616
vn 0.5137216 0.4509768 -0.7298698
vn 0.01176465 0.4980353 -0.8670769
vn 0.5137216 -0.03529388 -0.8572307
vn 0.01176465 -0.5137216 -0.8578763
vn 0.5137216 -0.03529388 -0.8572307
vn 0.01176465 -0.01176465 -0.9998616
vn 0.5137216 -0.4196047 -0.7483462
vn 0.01176465 -0.8745031 -0.4848772
vn 0.5137216 -0.4196047 -0.7483462
vn 0.01176465 -0.5137216 -0.8578763
vn 0.5137216 -0.7725431 -0.3731852
vn 0.003921568 -0.9999924 0
vn 0.5137216 -0.7725431 -0.3731852
vn 0.01176465 -0.8745031 -0.4848772
vn 0.504114 -0.8636371 0
vn 0.01176465 -0.8745031 0.4848772
vn 0.504114 -0.8636371 0
vn 0.003921568 -0.9999924 0
vn 0.5137216 -0.7490139 0.4184117
vn 0.01176465 -0.5137216 0.8578763
vn 0.5137216 -0.7490139 0.4184117
vn 0.01176465 -0.8745031 0.4848772
vn 0.5137216 -0.4666631 0.7199414
vn 0.01176465 -0.01176465 0.9998616
vn 0.5137216 -0.4666631 0.7199414
vn 0.01176465 -0.5137216 0.8578763
vn 0.5137216 0.01960766 0.8577329
vn -0.9999923 -0.003921568 -0.0003442513
vn -0.9999923 -0.003921568 -0.0003442513
vn -0.9999923 -0.003921568 -0.0003442513
vn -0.9999923 -0.003921568 -0.0003442513
vn -0.9999923 -0.003921568 -0.0003442513
vn -0.9999923 -0.003921568 -0.0003442513
vn -0.9999923 -0.003921568 -0.0003442513
vn -0.9999923 -0.003921568 -0.0003442513
vn -0.9999923 -0.003921568 -0.0003442513
vn -0.9999923 -0.003921568 -0.0003442513
vn -0.9999923 -0.003921568 -0.0003442513
vn -0.9999923 -0.003921568 -0.0003442513
vn 0.5137216 0.4039184 0.756928
vn 0.9921493 -0.06666619 0.1058083
vn 0.5137216 0.01960766 0.8577329
vn 0.9905663 0.1370348 0
vn 0.9999924 -0.003921568 0
vn 0.9829165 0.184052 0
vn 0.5133428 0.8581836 0
vn 0.5137216 0.7568569 0.4040516
vn 0.9921493 0.05097997 -0.1141964
vn 0.5137216 0.4509768 -0.7298698
vn 0.5137216 0.7333276 -0.4453321
vn 0.9883265 -0.1523507 0
vn 0.5137216 -0.4196047 -0.7483462
vn 0.5137216 -0.03529388 -0.8572307
vn 0.9799753 -0.1991185 0
vn 0.504114 -0.8636371 0
vn 0.5137216 -0.7725431 -0.3731852
vn 0.5137216 -0.4666631 0.7199414
vn 0.5137216 -0.7490139 0.4184117
g mx_jingChe2_qianlun-R_0
f 3/3/3 2/2/2 1/1/1
f 2/2/2 4/4/4 1/1/1
f 7/7/7 6/6/6 5/5/5
f 6/6/6 8/8/8 5/5/5
f 11/11/11 10/10/10 9/9/9
f 10/10/10 12/12/12 9/9/9
f 15/15/15 14/14/14 13/13/13
f 14/14/14 16/16/16 13/13/13
f 19/19/19 18/18/18 17/17/17
f 18/18/18 20/20/20 17/17/17
f 23/23/23 22/22/22 21/21/21
f 22/22/22 24/24/24 21/21/21
f 27/27/27 26/26/26 25/25/25
f 26/26/26 28/28/28 25/25/25
f 31/31/31 30/30/30 29/29/29
f 30/30/30 32/32/32 29/29/29
f 35/35/35 34/34/34 33/33/33
f 34/34/34 36/36/36 33/33/33
f 39/39/39 38/38/38 37/37/37
f 38/38/38 40/40/40 37/37/37
f 43/43/43 42/42/42 41/41/41
f 42/42/42 44/44/44 41/41/41
f 47/47/47 46/46/46 45/45/45
f 46/46/46 48/48/48 45/45/45
f 51/51/51 50/50/50 49/49/49
f 50/50/50 52/52/52 49/49/49
f 49/49/49 52/52/52 53/53/53
f 54/54/54 49/49/49 53/53/53
f 54/54/54 53/53/53 55/55/55
f 56/56/56 54/54/54 55/55/55
f 56/56/56 55/55/55 57/57/57
f 58/58/58 56/56/56 57/57/57
f 59/59/59 50/50/50 51/51/51
f 60/60/60 58/58/58 57/57/57
f 63/63/63 62/62/62 61/61/61
f 62/62/62 64/64/64 61/61/61
f 64/64/64 62/62/62 65/65/65
f 66/66/66 64/64/64 65/65/65
f 64/64/64 66/66/66 67/67/67
f 68/68/68 64/64/64 67/67/67
f 68/68/68 61/61/61 64/64/64
f 69/69/69 66/66/66 65/65/65
f 66/66/66 69/69/69 70/70/70
f 71/71/71 66/66/66 70/70/70
f 71/71/71 67/67/67 66/66/66
f 72/72/72 69/69/69 65/65/65
f 69/69/69 72/72/72 73/73/73
f 74/74/74 69/69/69 73/73/73
f 74/74/74 70/70/70 69/69/69
f 75/75/75 72/72/72 65/65/65
f 62/62/62 75/75/75 65/65/65
f 72/72/72 75/75/75 76/76/76
f 77/77/77 72/72/72 76/76/76
f 77/77/77 73/73/73 72/72/72
f 75/75/75 62/62/62 78/78/78
f 79/79/79 75/75/75 78/78/78
f 79/79/79 76/76/76 75/75/75
f 63/63/63 78/78/78 62/62/62
