g mx_qingJieChe1_chemen-L
v -0.05138659 1.163527 -1.508546
v -0.04816675 1.119467 -1.510713
v -0.0779053 1.106492 -0.1850739
v -0.06105888 1.181658 -1.479595
v -0.09739637 1.163646 -0.1925868
v -0.05225194 0.8106909 -0.1146302
v -0.003366351 0.3929077 -1.50009
v 2.503395E-06 0.3633617 -0.000197649
v 2.503395E-06 -0.5607756 -1.510592
v 2.503395E-06 -2.503395E-06 -2.503395E-06
v 2.503395E-06 -0.5289598 -0.02083385
v -0.1217455 1.163527 -1.508551
v -0.1463565 1.106492 -0.1850431
v -0.1185281 1.119467 -1.51072
v -0.1313716 1.181658 -1.479588
v -0.1658808 1.163643 -0.2067808
v -0.1192266 0.8106909 -0.1145301
v -0.07034099 0.3929077 -1.49999
v -0.06797624 0.3633617 -0.0002849102
v -0.07035899 -0.5607756 -1.510679
v -0.06797624 -2.503395E-06 -8.97646E-05
v -0.06672835 -0.5289598 -0.02092373
v -0.07034099 0.3929077 -1.49999
v -0.04816675 1.119467 -1.510713
v -0.1185281 1.119467 -1.51072
v -0.003366351 0.3929077 -1.50009
v 2.503395E-06 -0.5607756 -1.510592
v -0.07035899 -0.5607756 -1.510679
v 2.503395E-06 -0.5289598 -0.02083385
v -0.06672835 -0.5289598 -0.02092373
v -0.05138659 1.163527 -1.508546
v -0.1217455 1.163527 -1.508551
v -0.06105888 1.181658 -1.479595
v -0.1313716 1.181658 -1.479588
v -0.1658808 1.163643 -0.2067808
v -0.09739637 1.163646 -0.1925868
v -0.1463565 1.106492 -0.1850431
v -0.0779053 1.106492 -0.1850739
v -0.1192266 0.8106909 -0.1145301
v -0.05225194 0.8106909 -0.1146302
v -0.06797624 0.3633617 -0.0002849102
v 2.503395E-06 0.3633617 -0.000197649
v 0.1115183 0.416792 -0.09910369
v 0.2866759 0.9635253 -0.2185227
v 0.2791167 0.4109302 -0.2044005
v 0.1225874 0.968224 -0.1154083
v 0.1061776 0.4314097 -0.11984
v 0.1145198 0.9588959 -0.1319542
v 0.2762256 0.9601848 -0.2337258
v 0.2691697 0.4207386 -0.220071
v 0.1145198 0.9588959 -0.1319542
v 0.1061776 0.4314097 -0.11984
v 0.1115183 0.416792 -0.09910369
v 0.2691697 0.4207386 -0.220071
v 0.1061776 0.4314097 -0.11984
v 0.2791167 0.4109302 -0.2044005
v 0.2866759 0.9635253 -0.2185227
v 0.1145198 0.9588959 -0.1319542
v 0.2762256 0.9601848 -0.2337258
v 0.1225874 0.968224 -0.1154083
v 0.1289167 1.124723 -0.1202688
v -0.121861 1.122825 -0.3957858
v -0.1193113 1.139435 -0.3981096
v 0.1161785 1.110046 -0.1218659
v 0.09889054 0.3430849 -0.107826
v 0.09889054 0.3430849 -0.107826
v 0.1117134 0.3224667 -0.1112717
v -0.0424614 0.3514247 -0.1848505
v 0.1117134 0.3224667 -0.1112717
v -0.04154217 0.2908204 -0.1513709
v 0.1107659 0.3262848 -0.09644866
v 0.1117134 0.3224667 -0.1112717
v -0.04176307 0.3070582 -0.02638257
v 0.1289167 1.124723 -0.1202688
v -0.1144558 1.126751 -0.4082288
v -0.1193113 1.139435 -0.3981096
v 0.1293455 1.113679 -0.1333818
v 0.09889054 0.3430849 -0.107826
v 0.09889054 0.3430849 -0.107826
v 0.1107659 0.3262848 -0.09644866
v -0.04176307 0.3070582 -0.02638257
v -0.04268217 0.36766 -0.05985188
v -0.0424614 0.3514247 -0.1848505
v 0.1293455 1.113679 -0.1333818
v 0.1161785 1.110046 -0.1218659
v -0.1144558 1.126751 -0.4082288
v -0.121861 1.122825 -0.3957858
vt 0.03021952 0.8791705
vt 0.02990324 0.872313
vt 0.2179888 0.8708466
vt 0.03470493 0.8821176
vt 0.2145672 0.8799611
vt 0.2372674 0.8239941
vt 0.0316284 0.7592144
vt 0.2644243 0.7553759
vt 0.02996075 0.6118139
vt 0.2645105 0.698575
vt 0.2617359 0.6154224
vt 0.03021952 0.8791705
vt 0.2179888 0.8708466
vt 0.02990324 0.872313
vt 0.03470493 0.8821176
vt 0.2145672 0.8799611
vt 0.2372674 0.8239941
vt 0.0316284 0.7592144
vt 0.2644243 0.7553759
vt 0.02996075 0.6118139
vt 0.2645105 0.698575
vt 0.2617359 0.6154224
vt 0.9303215 0.9051485
vt 0.8864305 0.904444
vt 0.8854529 0.90811
vt 0.9289269 0.9018131
vt 0.9684906 0.8622064
vt 0.9718403 0.8636153
vt 0.9682462 0.7733176
vt 0.9720559 0.7733176
vt 0.8848779 0.9037827
vt 0.8822182 0.9064423
vt 0.8838428 0.9031214
vt 0.8802056 0.9041134
vt 0.8781785 0.8345607
vt 0.8816288 0.8332956
vt 0.8776466 0.8320161
vt 0.8791273 0.8287814
vt 0.8592017 0.8307797
vt 0.8592161 0.8268694
vt 0.8302047 0.8278182
vt 0.8302047 0.8239079
vt 0.6575738 0.8313835
vt 0.726767 0.784833
vt 0.6579763 0.7841142
vt 0.7262351 0.8311248
vt 0.6594714 0.8365015
vt 0.7251568 0.8355958
vt 0.726422 0.780362
vt 0.6581632 0.778608
vt 0.7261632 0.7347459
vt 0.6583644 0.7354791
vt 0.6575738 0.8313835
vt 0.6533471 0.7840423
vt 0.6523551 0.8297446
vt 0.6579763 0.7841142
vt 0.726767 0.784833
vt 0.7308211 0.8305354
vt 0.7312524 0.7849049
vt 0.7262351 0.8311248
vt 0.7405396 0.5907238
vt 0.7460456 0.5234282
vt 0.7405396 0.5234282
vt 0.7460456 0.5907238
vt 0.748044 0.8249717
vt 0.7350478 0.8249717
vt 0.7386994 0.8249717
vt 0.7350478 0.8422089
vt 0.7386994 0.8249717
vt 0.7386994 0.8422089
vt 0.7424085 0.8249717
vt 0.7386994 0.8249717
vt 0.7424085 0.8422089
vt 0.7405396 0.5907238
vt 0.7350478 0.5234282
vt 0.7405396 0.5234282
vt 0.7350478 0.5907238
vt 0.7350478 0.8249717
vt 0.748044 0.8249717
vt 0.7424085 0.8249717
vt 0.7424085 0.8422089
vt 0.7460456 0.8422089
vt 0.750071 0.8422089
vt 0.750071 0.5907238
vt 0.7460456 0.5907238
vt 0.750071 0.5234282
vt 0.7460456 0.5234282
vn 0.9858624 0.1675575 0
vn 0.9982743 0.05872193 0
vn 0.9829165 0.184052 0
vn 0.9087569 0.417326 0
vn 0.9463209 0.3232288 0
vn 0.995957 0.08983131 0
vn 0.9996234 0.02744055 0
vn 0.9990709 0.04309709 0
vn 0.9999309 -0.01176392 0
vn 0.9999309 -0.01176392 0
vn 0.9999309 -0.01176392 0
vn -0.9764631 -0.1921554 -0.09796004
vn -0.9764631 -0.1999985 -0.08074947
vn -0.9921492 -0.08235234 -0.09411691
vn -0.8980323 -0.4352908 -0.06371696
vn -0.9371324 -0.3489741 0
vn -0.9921492 -0.1137246 -0.05202504
vn -0.9921492 -0.05098003 -0.1141969
vn -0.9921492 -0.06666619 0.1058089
vn -0.9999309 -0.01176392 0
vn -0.9921492 -0.01176465 0.124505
vn -0.9921492 -0.01176465 0.124505
vn 0.01176465 -0.01176465 -0.9998616
vn 0.01176465 0.003921509 -0.9999231
vn 0.01176465 0.003921509 -0.9999231
vn 0.01176465 -0.01176465 -0.9998616
vn 0.01176465 -0.7254847 -0.6881378
vn 0.01176465 -0.7254847 -0.6881378
vn 0.01176392 -0.9999309 0
vn 0.01176392 -0.9999309 0
vn 0.01176465 0.4509768 -0.8924581
vn 0.01176465 0.5450938 -0.8382925
vn 0.01176465 0.9529338 -0.3029502
vn 0.01176465 0.9686199 -0.248268
vn -0.0901953 0.86666 0.4906784
vn -0.05882299 0.6784261 0.7323099
vn -0.05097997 0.2235277 0.9733635
vn 0.01176465 0.1843122 0.9827973
vn 0.01176465 0.2313707 0.9727945
vn 0.01176465 0.2392138 0.9708956
vn 0.01176465 0.2470568 0.9689296
vn 0.01176465 0.2470568 0.9689296
vn -0.3490169 -0.7019554 0.6208428
vn 0.7803862 0.6235245 0.04705838
vn 0.6913113 -0.722557 0
vn -0.262743 0.7097985 0.6535689
vn -0.8509738 -0.349017 -0.3924674
vn -0.8431307 0.4196045 -0.3362479
vn 0.1607831 0.5058784 -0.8474879
vn 0.15294 -0.4431339 -0.8833129
vn -0.8431307 0.4196045 -0.3362479
vn -0.8509738 -0.349017 -0.3924674
vn -0.3490169 -0.7019554 0.6208428
vn 0.15294 -0.4431339 -0.8833129
vn -0.8509738 -0.349017 -0.3924674
vn 0.6913113 -0.722557 0
vn 0.7803862 0.6235245 0.04705838
vn -0.8431307 0.4196045 -0.3362479
vn 0.1607831 0.5058784 -0.8474879
vn -0.262743 0.7097985 0.6535689
vn 0.450977 0.7176415 0.5306699
vn -0.4509768 -0.8196016 0.3533739
vn -0.01176453 0.9921492 0.124505
vn -0.7882292 -0.145097 0.5980314
vn -0.2078415 0.9372476 -0.2799442
vn -0.2078415 0.9372476 -0.2799442
vn 0.7333277 -0.5686231 -0.3726905
vn 0.3960754 0.3882322 -0.8321058
vn 0.7333277 -0.5686231 -0.3726905
vn 0.3098016 -0.8431308 -0.4394922
vn 0.6470539 -0.35686 0.6737745
vn 0.7333277 -0.5686231 -0.3726905
vn 0.45882 -0.3725462 0.8066558
vn 0.450977 0.7176415 0.5306699
vn 0.7254847 -0.2784293 -0.6294038
vn -0.01176453 0.9921492 0.124505
vn 0.8039154 -0.09019542 -0.5878646
vn -0.2078415 0.9372476 -0.2799442
vn -0.2078415 0.9372476 -0.2799442
vn 0.6470539 -0.35686 0.6737745
vn 0.45882 -0.3725462 0.8066558
vn 0.3176447 0.8196015 0.4768178
vn 0.3960754 0.3882322 -0.8321058
vn 0.8039154 -0.09019542 -0.5878646
vn -0.7882292 -0.145097 0.5980314
vn 0.7254847 -0.2784293 -0.6294038
vn -0.4509768 -0.8196016 0.3533739
g mx_qingJieChe1_chemen-L_0
f 3/3/3 2/2/2 1/1/1
f 1/1/1 4/4/4 3/3/3
f 5/5/5 3/3/3 4/4/4
f 3/3/3 6/6/6 2/2/2
f 2/2/2 6/6/6 7/7/7
f 7/7/7 6/6/6 8/8/8
f 8/8/8 9/9/9 7/7/7
f 8/8/8 10/10/10 9/9/9
f 10/10/10 11/11/11 9/9/9
f 14/14/14 13/13/13 12/12/12
f 12/12/12 13/13/13 15/15/15
f 16/16/16 15/15/15 13/13/13
f 13/13/13 14/14/14 17/17/17
f 17/17/17 14/14/14 18/18/18
f 19/19/19 17/17/17 18/18/18
f 19/19/19 18/18/18 20/20/20
f 21/21/21 19/19/19 20/20/20
f 22/22/22 21/21/21 20/20/20
f 25/25/25 24/24/24 23/23/23
f 26/26/26 23/23/23 24/24/24
f 26/26/26 27/27/27 23/23/23
f 28/28/28 23/23/23 27/27/27
f 27/27/27 29/29/29 28/28/28
f 30/30/30 28/28/28 29/29/29
f 24/24/24 25/25/25 31/31/31
f 32/32/32 31/31/31 25/25/25
f 31/31/31 32/32/32 33/33/33
f 34/34/34 33/33/33 32/32/32
f 34/34/34 35/35/35 33/33/33
f 36/36/36 33/33/33 35/35/35
f 35/35/35 37/37/37 36/36/36
f 38/38/38 36/36/36 37/37/37
f 37/37/37 39/39/39 38/38/38
f 40/40/40 38/38/38 39/39/39
f 39/39/39 41/41/41 40/40/40
f 42/42/42 40/40/40 41/41/41
f 45/45/45 44/44/44 43/43/43
f 46/46/46 43/43/43 44/44/44
f 43/43/43 46/46/46 47/47/47
f 48/48/48 47/47/47 46/46/46
f 44/44/44 45/45/45 49/49/49
f 50/50/50 49/49/49 45/45/45
f 49/49/49 50/50/50 51/51/51
f 52/52/52 51/51/51 50/50/50
f 55/55/55 54/54/54 53/53/53
f 56/56/56 53/53/53 54/54/54
f 59/59/59 58/58/58 57/57/57
f 60/60/60 57/57/57 58/58/58
f 63/63/63 62/62/62 61/61/61
f 64/64/64 61/61/61 62/62/62
f 64/64/64 65/65/65 61/61/61
f 67/67/67 66/66/66 61/61/61
f 66/66/66 67/67/67 68/68/68
f 70/70/70 68/68/68 69/69/69
f 72/72/72 71/71/71 70/70/70
f 73/73/73 70/70/70 71/71/71
f 74/74/74 71/71/71 72/72/72
f 76/76/76 74/74/74 75/75/75
f 77/77/77 75/75/75 74/74/74
f 77/77/77 74/74/74 78/78/78
f 80/80/80 74/74/74 79/79/79
f 80/80/80 79/79/79 81/81/81
f 82/82/82 81/81/81 79/79/79
f 83/83/83 82/82/82 79/79/79
f 85/85/85 84/84/84 79/79/79
f 84/84/84 85/85/85 86/86/86
f 87/87/87 86/86/86 85/85/85
