g mx_xiaoFangChe1_qianlun-L
v 0.1897618 0.3640609 -0.1182909
v 0.1189109 0.5641577 0.1833047
v 0.1189109 0.5641577 -0.1833081
v 0.1897618 0.3640609 0.1182908
v 0.1630726 0.225001 -0.3096904
v 0.1189109 0.3486691 -0.4799029
v 0.1630715 -5.960464E-07 -0.3827973
v 0.1189109 -5.960464E-07 -0.5931911
v 0.1630715 -0.2250034 -0.3096904
v 0.1189098 -0.3486713 -0.4799029
v 0.1630715 -0.3640632 -0.1182909
v 0.1189098 -0.5641588 -0.1833081
v 0.1630715 -0.3640632 0.1182908
v 0.1189098 -0.5641588 0.1833047
v 0.1630715 -0.2250034 0.3096881
v 0.1189098 -0.3486702 0.4799006
v 0.1897618 -5.960464E-07 0.3827962
v 0.1189098 -5.960464E-07 0.5931911
v 0.1897618 0.225001 0.3096881
v 0.1189098 0.3486679 0.4799006
v 0.06508571 -0.1480519 -0.2037745
v 0.06508571 -5.960464E-07 -0.2518792
v 0.06508571 0.1480496 -0.2037745
v 0.09177601 0.2395489 0.07783341
v 0.09177601 0.2395489 -0.07783461
v 0.09177601 -5.960464E-07 0.2518769
v 0.06508571 -0.1480519 0.2037745
v 0.06508571 -0.2395523 0.07783341
v 0.06508571 -0.2395523 -0.07783461
v 0.1879594 0.006827593 0.002216995
v 0.09177601 0.1480496 0.2037745
v -0.1897606 0.5641577 -0.1833081
v 0.1189109 0.5641577 0.1833047
v -0.1897606 0.5641577 0.1833047
v 0.1189109 0.5641577 -0.1833081
v 0.1189098 0.3486679 0.4799006
v -0.1897606 0.3486691 0.4798994
v 0.1189098 -5.960464E-07 0.5931911
v -0.1897606 -5.960464E-07 0.59319
v 0.1189098 -0.3486702 0.4799006
v -0.1897606 -0.3486702 0.4799006
v 0.1189098 -0.5641588 0.1833047
v -0.1897606 -0.5641588 0.1833047
v -0.1897606 0.3486679 -0.479904
v 0.1189109 0.3486691 -0.4799029
v -0.1897606 -5.960464E-07 -0.5931911
v 0.1189109 -5.960464E-07 -0.5931911
v -0.1897606 -0.3486702 -0.479904
v 0.1189098 -0.3486713 -0.4799029
v -0.1897606 -0.5641588 -0.1833081
v 0.1189098 -0.5641588 -0.1833081
v -0.1897606 -0.5641588 0.1833047
v 0.1189098 -0.5641588 0.1833047
v -0.1897606 0.5641577 0.1833047
v -0.1897606 -0.5641588 0.1833047
v -0.1897606 0.5641577 -0.1833081
v -0.1897606 0.3486679 -0.479904
v -0.1897606 -5.960464E-07 -0.5931911
v -0.1897606 -0.3486702 -0.479904
v -0.1897606 -0.5641588 -0.1833081
v -0.1897606 0.3486691 0.4798994
v -0.1897606 -5.960464E-07 0.59319
v -0.1897606 -0.3486702 0.4799006
vt 0.2964398 0.2179705
vt 0.354897 0.2387722
vt 0.3148468 0.1897257
vt 0.322497 0.25094
vt 0.2576711 0.2071877
vt 0.2576711 0.1712539
vt 0.2174915 0.2219574
vt 0.1957448 0.1932595
vt 0.1939585 0.2567262
vt 0.1579988 0.2463965
vt 0.1949423 0.3000901
vt 0.1594486 0.3120767
vt 0.2204688 0.333681
vt 0.2008838 0.363518
vt 0.2576711 0.3437647
vt 0.2576711 0.3814719
vt 0.298964 0.3295258
vt 0.3217721 0.3596346
vt 0.3236232 0.2940451
vt 0.3582496 0.3040123
vt 0.219252 0.2640139
vt 0.23252 0.2422802
vt 0.2576711 0.2324035
vt 0.2978378 0.2598588
vt 0.2820973 0.2398337
vt 0.2827575 0.3079345
vt 0.2577617 0.315261
vt 0.2368565 0.3088017
vt 0.2205464 0.2903818
vt 0.26004 0.2746284
vt 0.298265 0.2867444
vt 0.4337805 0.1512806
vt 0.3489166 0.06907039
vt 0.3489166 0.15119
vt 0.4339358 0.06907039
vt 0.2637291 0.06921278
vt 0.263768 0.1512806
vt 0.1789041 0.06917395
vt 0.1789041 0.1512806
vt 0.09426031 0.06917395
vt 0.09426031 0.1512418
vt 0.009978943 0.06913511
vt 0.009771831 0.1512806
vt 0.5188644 0.1512418
vt 0.5188644 0.06917395
vt 0.6039742 0.15119
vt 0.6039742 0.06913511
vt 0.6888769 0.15119
vt 0.6887475 0.06921278
vt 0.7735078 0.1512418
vt 0.773456 0.06917395
vt 0.8580868 0.15119
vt 0.8580868 0.06907039
vt 0.2576711 0.1712539
vt 0.2008838 0.363518
vt 0.3148468 0.1897257
vt 0.354897 0.2387722
vt 0.3582496 0.3040123
vt 0.3217721 0.3596346
vt 0.2576711 0.3814719
vt 0.1957448 0.1932595
vt 0.1579988 0.2463965
vt 0.1594486 0.3120767
vn 0.9956745 -0.09290961 0
vn 0.538305 0.7891399 0.2957802
vn 0.5461135 0.7813314 -0.302128
vn 0.9975684 -0.0696946 0
vn 0.9949253 -0.1006163 0
vn 0.5773475 0.4689915 -0.6683688
vn 0.9911979 -0.00732702 0.1321853
vn 0.5773475 -0.00732702 -0.8164656
vn 0.9911979 0.07075793 0.1118926
vn 0.5773475 -0.4836455 -0.6578426
vn 0.9911979 0.117609 0.06078452
vn 0.5773475 -0.7803684 -0.2401977
vn 0.9911979 0.117609 -0.06078452
vn 0.5773475 -0.7803684 0.2401977
vn 0.9911979 0.01609844 -0.1314057
vn 0.569539 -0.4992625 0.6529643
vn 0.9990065 -0.03856105 -0.02234126
vn 0.538305 -0.00732702 0.8427182
vn 0.9989245 -0.04636575 0
vn 0.538305 0.4846084 0.6894799
vn 0.9833894 0.1098004 0.1445306
vn 0.9833894 -0.00732702 0.1813602
vn 0.9833894 -0.1713055 0.05999691
vn 0.9755809 -0.2181565 -0.02548698
vn 0.9664518 -0.2568481 0
vn 0.9677725 -0.07760352 -0.2395707
vn 0.9833894 0.0395239 -0.1771527
vn 0.9833894 0.1800769 -0.02274925
vn 0.9833894 0.1800769 -0.02274925
vn 0.9990065 -0.03856105 -0.02234126
vn 0.9755809 -0.1400715 -0.1691799
vn 0.00732702 0.9375014 -0.3479044
vn 0.538305 0.7891399 0.2957802
vn 0.00732702 0.9375014 0.3479044
vn 0.5461135 0.7813314 -0.302128
vn 0.538305 0.4846084 0.6894799
vn 0.00732702 0.5783104 0.8157839
vn 0.538305 -0.00732702 0.8427182
vn 0.00732702 -0.00732702 0.9999463
vn 0.569539 -0.4992625 0.6529643
vn 0.00732702 -0.5929645 0.8051953
vn 0.5773475 -0.7803684 0.2401977
vn 0.00732702 -0.9521555 0.3055262
vn 0.00732702 0.5783104 -0.8157839
vn 0.5773475 0.4689915 -0.6683688
vn 0.00732702 -0.00732702 -0.9999463
vn 0.5773475 -0.00732702 -0.8164656
vn 0.00732702 -0.5929645 -0.8051953
vn 0.5773475 -0.4836455 -0.6578426
vn 0.00732702 -0.9521555 -0.3055262
vn 0.5773475 -0.7803684 -0.2401977
vn 0.00732702 -0.9521555 0.3055262
vn 0.5773475 -0.7803684 0.2401977
vn -0.9843524 -0.00732702 -0.1760586
vn -0.9843524 -0.00732702 -0.1760586
vn -0.9843524 -0.00732702 -0.1760586
vn -0.9843524 -0.00732702 -0.1760586
vn -0.9843524 -0.00732702 -0.1760586
vn -0.9843524 -0.00732702 -0.1760586
vn -0.9843524 -0.00732702 0.1760586
vn -0.9843524 -0.00732702 -0.1760586
vn -0.9843524 -0.00732702 -0.1760586
vn -0.9843524 -0.00732702 -0.1760586
g mx_xiaoFangChe1_qianlun-L_0
f 3/3/3 2/2/2 1/1/1
f 4/4/4 1/1/1 2/2/2
f 1/1/1 5/5/5 3/3/3
f 6/6/6 3/3/3 5/5/5
f 5/5/5 7/7/7 6/6/6
f 8/8/8 6/6/6 7/7/7
f 7/7/7 9/9/9 8/8/8
f 10/10/10 8/8/8 9/9/9
f 9/9/9 11/11/11 10/10/10
f 12/12/12 10/10/10 11/11/11
f 11/11/11 13/13/13 12/12/12
f 14/14/14 12/12/12 13/13/13
f 13/13/13 15/15/15 14/14/14
f 16/16/16 14/14/14 15/15/15
f 15/15/15 17/17/17 16/16/16
f 18/18/18 16/16/16 17/17/17
f 17/17/17 19/19/19 18/18/18
f 20/20/20 18/18/18 19/19/19
f 20/20/20 19/19/19 2/2/2
f 4/4/4 2/2/2 19/19/19
f 9/9/9 7/7/7 21/21/21
f 22/22/22 21/21/21 7/7/7
f 7/7/7 5/5/5 22/22/22
f 23/23/23 22/22/22 5/5/5
f 5/5/5 1/1/1 23/23/23
f 4/4/4 24/24/24 1/1/1
f 4/4/4 19/19/19 24/24/24
f 25/25/25 1/1/1 24/24/24
f 25/25/25 23/23/23 1/1/1
f 17/17/17 15/15/15 26/26/26
f 27/27/27 26/26/26 15/15/15
f 15/15/15 13/13/13 27/27/27
f 28/28/28 27/27/27 13/13/13
f 13/13/13 11/11/11 28/28/28
f 29/29/29 28/28/28 11/11/11
f 11/11/11 9/9/9 29/29/29
f 21/21/21 29/29/29 9/9/9
f 26/26/26 27/27/27 30/30/30
f 28/28/28 30/30/30 27/27/27
f 29/29/29 30/30/30 28/28/28
f 24/24/24 30/30/30 25/25/25
f 25/25/25 30/30/30 23/23/23
f 23/23/23 30/30/30 22/22/22
f 21/21/21 30/30/30 29/29/29
f 22/22/22 30/30/30 21/21/21
f 31/31/31 26/26/26 30/30/30
f 24/24/24 31/31/31 30/30/30
f 26/26/26 31/31/31 17/17/17
f 19/19/19 17/17/17 31/31/31
f 31/31/31 24/24/24 19/19/19
f 34/34/34 33/33/33 32/32/32
f 35/35/35 32/32/32 33/33/33
f 33/33/33 34/34/34 36/36/36
f 37/37/37 36/36/36 34/34/34
f 36/36/36 37/37/37 38/38/38
f 39/39/39 38/38/38 37/37/37
f 38/38/38 39/39/39 40/40/40
f 41/41/41 40/40/40 39/39/39
f 40/40/40 41/41/41 42/42/42
f 43/43/43 42/42/42 41/41/41
f 32/32/32 35/35/35 44/44/44
f 45/45/45 44/44/44 35/35/35
f 44/44/44 45/45/45 46/46/46
f 47/47/47 46/46/46 45/45/45
f 46/46/46 47/47/47 48/48/48
f 49/49/49 48/48/48 47/47/47
f 48/48/48 49/49/49 50/50/50
f 51/51/51 50/50/50 49/49/49
f 50/50/50 51/51/51 52/52/52
f 53/53/53 52/52/52 51/51/51
f 56/56/56 55/55/55 54/54/54
f 57/57/57 55/55/55 56/56/56
f 58/58/58 55/55/55 57/57/57
f 59/59/59 55/55/55 58/58/58
f 60/60/60 55/55/55 59/59/59
f 54/54/54 55/55/55 61/61/61
f 61/61/61 55/55/55 62/62/62
f 62/62/62 55/55/55 63/63/63
