g mx_xiaoFangChe1_cheli
v -0.9385124 -0.8422693 0.3119676
v 0.9463133 -0.7627848 -0.3203557
v -0.9784509 -0.7627848 -0.3203557
v 0.9463133 -0.8422693 0.3119676
v -0.9385124 -0.5804625 0.3505706
v 0.9463133 -0.5849267 -0.4656395
v 0.9463133 -0.5804625 0.3505706
v -0.9784509 -0.5849267 -0.4656395
v -0.9385124 -0.8422693 0.3119676
v 0.9463133 -0.8422693 0.3119676
v 0.9463133 -0.7627848 -0.3203557
v -0.9784509 -0.7627848 -0.3203557
v 0.9463133 -0.8422693 0.3119676
v 0.9463133 -0.5849267 -0.4656395
v 0.9463133 -0.7627848 -0.3203557
v 0.9463133 -0.5804625 0.3505706
v -0.9784509 -0.7627848 -0.3203557
v -0.9385124 -0.5804625 0.3505706
v -0.9385124 -0.8422693 0.3119676
v -0.9784509 -0.5849267 -0.4656395
v 0.2808625 -0.08905637 -0.5644901
v 0.24393 -0.6363414 -0.430831
v 0.7096087 -0.0886091 -0.5644901
v 0.7566693 -0.6363414 -0.430831
v 0.7096087 -0.01453841 -0.4458686
v 0.2808625 -0.01483727 -0.4458686
v 0.24393 -0.6130304 -0.1920129
v 0.7566693 -0.6130304 -0.1920129
v 0.7096087 -0.01453841 -0.4458686
v 0.7096087 -0.0886091 -0.5644901
v 0.7566693 -0.6130304 -0.1920129
v 0.7566693 -0.6363414 -0.430831
v 0.24393 -0.6130304 -0.1920129
v 0.2808625 -0.08905637 -0.5644901
v 0.2808625 -0.01483727 -0.4458686
v 0.24393 -0.6363414 -0.430831
v 0.6401315 0.143358 -0.578046
v 0.3677301 0.143358 -0.578046
v 0.6255009 -0.08403039 -0.543619
v 0.3799738 -0.08403039 -0.543619
v 0.3677301 0.1974181 -0.4756426
v 0.6401315 0.1974161 -0.4756426
v 0.6255009 -0.03198612 -0.4504133
v 0.3799738 -0.03198612 -0.4504133
v 0.6255009 -0.03198612 -0.4504133
v 0.6401315 0.1974161 -0.4756426
v 0.6401315 0.143358 -0.578046
v 0.6255009 -0.08403039 -0.543619
v 0.6255009 -0.03198612 -0.4504133
v 0.3799738 -0.08403039 -0.543619
v 0.3799738 -0.03198612 -0.4504133
v 0.6255009 -0.08403039 -0.543619
v 0.3677301 0.143358 -0.578046
v 0.3677301 0.1974181 -0.4756426
v 0.9678606 -0.2594126 0.6739075
v -0.7243789 -0.09631443 0.5303662
v 0.7746258 -0.09631228 0.5310042
v -1.05147 -0.4425914 0.5787708
v -0.7243789 -0.2915164 0.4373068
v 0.7746258 -0.2915121 0.4372092
v -0.7243789 -0.2915164 0.4373068
v 1.11169 -0.8740296 0.5243948
v 0.7746258 -0.2915121 0.4372092
v -1.05147 -0.8729125 0.5788746
v 0.5638987 -0.2551774 0.4734994
v 0.5746077 -0.1712266 0.5135862
v 0.5611367 -0.09819031 0.3695424
v 0.5611367 -0.09819031 0.3695424
v 0.5638987 -0.1928989 0.3278955
v 0.4687662 -0.284642 0.458339
v 0.5611367 -0.09819031 0.3695424
v 0.4687662 -0.07948351 0.3728259
v 0.4687662 -0.07948351 0.3728259
v 0.4687662 -0.150188 0.5236317
v 0.4687662 -0.2344144 0.2979794
v 0.4687662 -0.284642 0.458339
v 0.3736357 -0.1928989 0.3278955
v 0.3736357 -0.2551774 0.4734994
v 0.3763956 -0.09819031 0.3695424
v 0.4687662 -0.284642 0.458339
v 0.3763956 -0.09819031 0.3695424
v 0.3629267 -0.1712266 0.5135862
v 0.3763956 -0.09819031 0.3695424
v 0.4687662 -0.07948351 0.3728259
v 0.4687662 -0.150188 0.5236317
v 0.4687662 0.0381608 0.4388944
v 0.4687662 0.01557696 0.4137901
v 0.5569671 -0.004848957 0.4040371
v 0.5732532 0.01396382 0.4273397
v 0.6215327 -0.06065369 0.377394
v 0.6497425 -0.052145 0.3957722
v 0.6370367 -0.110379 0.3507634
v 0.6777381 -0.1424572 0.3526542
v 0.6352009 -0.1687274 0.3257885
v 0.6706157 -0.1892021 0.3303311
v 0.593499 -0.2446952 0.2895131
v 0.6165323 -0.2701725 0.2916689
v 0.5144236 -0.2841609 0.2706705
v 0.5228518 -0.3169174 0.2693478
v 0.4687662 -0.3230711 0.2664099
v 0.4687662 -0.2883283 0.2685232
v 0.5726894 -0.1724645 0.323921
v 0.6370367 -0.110379 0.3507634
v 0.5611367 -0.09819031 0.3695424
v 0.6352009 -0.1687274 0.3257885
v 0.5611367 -0.09819031 0.3695424
v 0.4687662 -0.2883283 0.2685232
v 0.5726894 -0.1724645 0.323921
v 0.5144236 -0.2841609 0.2706705
v 0.4687662 -0.07948351 0.3728259
v 0.3805652 -0.004848957 0.4040371
v 0.4687662 0.01557696 0.4137901
v 0.4687662 0.0381608 0.4388944
v 0.3642834 0.01396382 0.4273397
v 0.3159974 -0.06065369 0.377394
v 0.287792 -0.052145 0.3957722
v 0.3004978 -0.110379 0.3507634
v 0.2597942 -0.1424572 0.3526542
v 0.3023314 -0.1687274 0.3257885
v 0.2669145 -0.1892021 0.3303311
v 0.3440312 -0.2446952 0.2895131
v 0.321 -0.2701725 0.2916689
v 0.4231088 -0.2841609 0.2706705
v 0.4146785 -0.3169174 0.2693478
v 0.4687662 -0.3230711 0.2664099
v 0.4687662 -0.2883283 0.2685232
v 0.3763956 -0.09819031 0.3695424
v 0.3004978 -0.110379 0.3507634
v 0.364843 -0.1724645 0.323921
v 0.3023314 -0.1687274 0.3257885
v 0.3763956 -0.09819031 0.3695424
v 0.364843 -0.1724645 0.323921
v 0.4687662 -0.2883283 0.2685232
v 0.4231088 -0.2841609 0.2706705
v 0.4687662 -0.07948351 0.3728259
v 0.7746258 -0.2915121 0.4372092
v 0.9678606 -0.2594126 0.6739075
v 0.7746258 -0.09631228 0.5310042
v 1.11169 -0.8740296 0.5243948
v -0.7586914 -0.08905637 -0.5644901
v -0.7956219 -0.6363414 -0.430831
v -0.3299432 -0.0886091 -0.5644901
v -0.2828825 -0.6363414 -0.430831
v -0.3299432 -0.01453841 -0.4458686
v -0.7586914 -0.01483727 -0.4458686
v -0.7956219 -0.6130304 -0.1920129
v -0.2828825 -0.6130304 -0.1920129
v -0.3299432 -0.01453841 -0.4458686
v -0.3299432 -0.0886091 -0.5644901
v -0.2828825 -0.6130304 -0.1920129
v -0.2828825 -0.6363414 -0.430831
v -0.7956219 -0.6130304 -0.1920129
v -0.7586914 -0.08905637 -0.5644901
v -0.7586914 -0.01483727 -0.4458686
v -0.7956219 -0.6363414 -0.430831
v -0.3994203 0.143358 -0.578046
v -0.6718196 0.143358 -0.578046
v -0.4140488 -0.08403039 -0.543619
v -0.659578 -0.08403039 -0.543619
v -0.6718196 0.1974181 -0.4756426
v -0.3994203 0.1974161 -0.4756426
v -0.4140488 -0.03198612 -0.4504133
v -0.659578 -0.03198612 -0.4504133
v -0.4140488 -0.03198612 -0.4504133
v -0.3994203 0.1974161 -0.4756426
v -0.3994203 0.143358 -0.578046
v -0.4140488 -0.08403039 -0.543619
v -0.4140488 -0.03198612 -0.4504133
v -0.659578 -0.08403039 -0.543619
v -0.659578 -0.03198612 -0.4504133
v -0.4140488 -0.08403039 -0.543619
v -0.6718196 0.143358 -0.578046
v -0.6718196 0.1974181 -0.4756426
v 1.140405 -0.8521219 -0.2440868
v -1.082319 -0.4391108 -0.5068921
v 1.093806 -0.5086769 -0.5379401
v -0.9775816 -0.8521219 -0.2440868
v -1.05147 -0.8729125 0.5788746
v 1.11169 -0.8740296 0.5243948
v 1.121621 -0.4422607 -0.6719915
v -1.05466 -0.4422607 -0.6719915
v 1.121575 0.07252848 -0.6739056
v -1.080354 0.07252848 -0.6719956
v 1.121573 0.7686013 -0.6739141
v -0.9775816 0.8543921 -0.6729093
v 1.052927 0.8543921 -0.6640551
v -0.7243789 -0.2915164 0.4373068
v -1.05147 -0.4425914 0.5787708
v -1.05147 -0.8729125 0.5788746
v -0.7243789 -0.09631443 0.5303662
v 1.121867 -0.2679722 0.5203757
v 0.9624531 0.7700936 0.6331595
v 0.9678606 -0.2594126 0.6739075
v 1.121592 0.756754 0.5083864
v 0.0001028776 0.7532034 0.656021
v 0.0001028776 -0.3228019 0.6242608
v 0.0001028776 0.7532034 0.656021
v -1.05147 -0.4425914 0.5787708
v 0.0001028776 -0.3228019 0.6242608
v -1.008948 0.7228506 0.5565112
v 1.052927 0.8543921 -0.6640551
v 1.121592 0.756754 0.5083864
v 1.121573 0.7686013 -0.6739141
v 1.001823 0.8740252 0.5719663
v 1.121592 0.756754 0.5083864
v 1.001823 0.8740252 0.5719663
v 0.9624531 0.7700936 0.6331595
v 0.0001028776 0.7532034 0.656021
v 0.0001028776 0.8608574 0.6212549
v -1.033942 -0.4235412 -0.1894056
v -1.05147 -0.8729125 0.5788746
v -1.05147 -0.4425914 0.5787708
v -0.9775816 -0.8521219 -0.2440868
v -1.082319 -0.4391108 -0.5068921
v -1.080354 0.07252848 -0.6719956
v -0.9775816 0.8543921 -0.6729093
v -1.05466 -0.4422607 -0.6719915
v -1.008948 0.7228506 0.5565112
v -0.9718498 0.8740252 0.6089221
v -0.9718498 0.8740252 0.6089221
v -1.008948 0.7228506 0.5565112
v 0.0001028776 0.7532034 0.656021
v 0.0001028776 0.8608574 0.6212549
v 0.9678606 -0.2594126 0.6739075
v 1.11169 -0.8740296 0.5243948
v 1.121867 -0.2679722 0.5203757
v 0.0001028776 0.8608574 0.6212549
v -0.9775816 0.8543921 -0.6729093
v -0.9718498 0.8740252 0.6089221
v 1.052927 0.8543921 -0.6640551
v 1.001823 0.8740252 0.5719663
vt 0.6594832 0.2094213
vt 0.543615 0.2695532
vt 0.6594832 0.2695532
vt 0.543615 0.2094213
vt 0.982105 0.2147288
vt 0.8374118 0.2948647
vt 0.8374118 0.2147288
vt 0.982105 0.2948647
vt 0.982105 0.1899555
vt 0.8374118 0.1899555
vt 0.8374118 0.316349
vt 0.982105 0.316349
vt 0.7336986 0.2297842
vt 0.791827 0.3021009
vt 0.7357618 0.3016973
vt 0.7949667 0.229844
vt 0.6594832 0.2695532
vt 0.679263 0.2078515
vt 0.6594832 0.2094213
vt 0.676527 0.2719752
vt 0.9031053 0.2139065
vt 0.903808 0.1921233
vt 0.8872426 0.2144148
vt 0.8848355 0.1927064
vt 0.887422 0.219827
vt 0.9032847 0.2193187
vt 0.9054526 0.2443612
vt 0.8864802 0.2449891
vt 0.9504244 0.2250299
vt 0.9401832 0.2826052
vt 0.6913581 0.2246262
vt 0.676841 0.3161097
vt 0.5996952 0.2352113
vt 0.5833989 0.2806317
vt 0.5934757 0.2836068
vt 0.5819935 0.238351
vt 0.9046752 0.2131739
vt 0.8872277 0.21286
vt 0.9040173 0.1977597
vt 0.8882742 0.1974757
vt 0.8870782 0.2206045
vt 0.9045406 0.2209184
vt 0.9033595 0.2363625
vt 0.8876014 0.2360785
vt 0.8523327 0.2728423
vt 0.8496864 0.2236096
vt 0.8731291 0.2314138
vt 0.8737421 0.280542
vt 0.5598664 0.2825453
vt 0.5774934 0.2905589
vt 0.5774934 0.2825453
vt 0.5598664 0.2905589
vt 0.5936551 0.2844889
vt 0.5934607 0.2758175
vt 0.9711611 0.258056
vt 0.8789898 0.2171807
vt 0.9604564 0.2172107
vt 0.8656986 0.2321763
vt 0.8789898 0.2021254
vt 0.9604713 0.2021403
vt 0.9044061 0.2171359
vt 0.9515308 0.2430754
vt 0.9471801 0.2171209
vt 0.8999208 0.2430754
vt 0.4746473 0.2215464
vt 0.470177 0.2526289
vt 0.4961764 0.246828
vt 0.4961764 0.246828
vt 0.4954587 0.2392181
vt 0.5018875 0.206775
vt 0.4961764 0.246828
vt 0.5018576 0.2475158
vt 0.5018576 0.2475158
vt 0.5018576 0.2692242
vt 0.5018576 0.2390836
vt 0.5018875 0.206775
vt 0.5083014 0.2392181
vt 0.5290979 0.2215464
vt 0.5075688 0.246828
vt 0.5018875 0.206775
vt 0.5075688 0.246828
vt 0.5335382 0.2526289
vt 0.5075688 0.246828
vt 0.5018576 0.2475158
vt 0.5018576 0.2692242
vt 0.9840336 0.1515022
vt 0.9796082 0.1515022
vt 0.9767078 0.1624162
vt 0.9804903 0.164614
vt 0.9686792 0.1703999
vt 0.970877 0.1741824
vt 0.9613833 0.1722089
vt 0.9577951 0.1777258
vt 0.9532052 0.1721491
vt 0.9509477 0.1768287
vt 0.9423361 0.1669014
vt 0.9392263 0.1700112
vt 0.9366249 0.1571237
vt 0.9324237 0.1582898
vt 0.9314669 0.1515022
vt 0.9360119 0.1515022
vt 0.8708118 0.1080853
vt 0.9166657 0.1743917
vt 0.8657584 0.1776361
vt 0.9171889 0.1170557
vt 0.8306242 0.3126561
vt 0.7382735 0.2745766
vt 0.7932324 0.3175002
vt 0.7357917 0.3238392
vt 0.8384434 0.2746065
vt 0.9763938 0.1625807
vt 0.9793242 0.1516517
vt 0.9837197 0.1516517
vt 0.9802063 0.1647635
vt 0.9683952 0.1705494
vt 0.970578 0.1743469
vt 0.9610992 0.1723734
vt 0.9575111 0.1778902
vt 0.9529212 0.1723136
vt 0.9506636 0.1770081
vt 0.942052 0.1670808
vt 0.9389423 0.1702055
vt 0.9363408 0.157318
vt 0.9321098 0.1584991
vt 0.9311529 0.1516965
vt 0.9356979 0.1516965
vt 0.8655043 0.1776959
vt 0.9172039 0.174302
vt 0.8706024 0.10816
vt 0.9169946 0.1171604
vt 0.8306541 0.3125216
vt 0.7932473 0.3173805
vt 0.7382735 0.2745317
vt 0.7358066 0.3237645
vt 0.8384434 0.2744869
vt 0.9175926 0.1167417
vt 0.8615423 0.1699663
vt 0.9198502 0.1750496
vt 0.8733385 0.1085188
vt 0.9031053 0.2139065
vt 0.903808 0.1921233
vt 0.8872426 0.2144148
vt 0.8848355 0.1927064
vt 0.887422 0.219827
vt 0.9032847 0.2193187
vt 0.9054526 0.2443612
vt 0.8864802 0.2449891
vt 0.9504244 0.2250299
vt 0.9401832 0.2826052
vt 0.6913581 0.2246262
vt 0.676841 0.3161097
vt 0.5996952 0.2352113
vt 0.5833989 0.2806317
vt 0.5934757 0.2836068
vt 0.5819935 0.238351
vt 0.9046752 0.2131739
vt 0.8872277 0.21286
vt 0.9040173 0.1977597
vt 0.8882742 0.1974757
vt 0.8870782 0.2206045
vt 0.9045406 0.2209184
vt 0.9033595 0.2363625
vt 0.8876014 0.2360785
vt 0.8523327 0.2728423
vt 0.8496864 0.2236096
vt 0.8731291 0.2314138
vt 0.8737421 0.280542
vt 0.5598664 0.2825453
vt 0.5774934 0.2905589
vt 0.5774934 0.2825453
vt 0.5598664 0.2905589
vt 0.5936551 0.2844889
vt 0.5934607 0.2758175
vt 0.6571807 0.292981
vt 0.6185331 0.2967635
vt 0.6571807 0.2967635
vt 0.6185331 0.292981
vt 0.6177258 0.2795851
vt 0.6571807 0.2765202
vt 0.6571807 0.2986024
vt 0.6185331 0.2986024
vt 0.6571509 0.3014281
vt 0.6185331 0.3019664
vt 0.6571807 0.3052406
vt 0.6185331 0.3223741
vt 0.6571807 0.3223741
vt 0.9175926 0.1167417
vt 0.8748933 0.1486167
vt 0.8733385 0.1085188
vt 0.9198502 0.1750496
vt 0.9139596 0.9922715
vt 0.8019038 0.9554179
vt 0.917757 0.9542667
vt 0.8009619 0.9841682
vt 0.801545 0.808527
vt 0.9181458 0.8082429
vt 0.8015898 0.8122946
vt 0.9207173 0.9821947
vt 0.9181308 0.8139093
vt 0.8052977 0.9707873
vt 0.2719004 0.8094839
vt 0.09877095 0.7405012
vt 0.2716313 0.7405012
vt 0.09877095 0.8094839
vt 0.01247533 0.8094839
vt 0.07555246 0.8217285
vt 0.01247533 0.834003
vt 0.01247533 0.9893113
vt 0.07576177 0.9893711
vt 0.4078175 0.4744679
vt 0.541492 0.5382925
vt 0.541492 0.475335
vt 0.4038705 0.5382925
vt 0.3607825 0.4805827
vt 0.3397768 0.4369714
vt 0.3393731 0.3468484
vt 0.3393731 0.475335
vt 0.5436449 0.3681084
vt 0.5534377 0.3474016
vt 0.07555246 0.8217285
vt 0.01247533 0.8217285
vt 0.01253513 0.9858427
vt 0.07568702 0.985768
vt 0.164913 0.4728981
vt 0.04228709 0.4282103
vt 0.1602484 0.4174458
vt 0.6397183 0.3223741
vt 0.6185331 0.3223741
vt 0.6185331 0.3223741
vt 0.6571807 0.3223741
vt 0.6571807 0.3223741
vn -0.5512109 -0.6686766 0.4990372
vn 0.6456599 -0.6840211 -0.3394678
vn -0.6509501 -0.6686766 -0.3593544
vn 0.5842819 -0.6610044 0.4708373
vn -0.5512109 0.5358664 0.6395419
vn 0.5535929 0.3517324 -0.7548637
vn 0.5766097 0.5358664 0.6167402
vn -0.5588831 0.3517324 -0.7509555
vn -0.5512109 -0.6686766 0.4990372
vn 0.5842819 -0.6610044 0.4708373
vn 0.6456599 -0.6840211 -0.3394678
vn -0.6509501 -0.6686766 -0.3593544
vn 0.5842819 -0.6610044 0.4708373
vn 0.5535929 0.3517324 -0.7548637
vn 0.6456599 -0.6840211 -0.3394678
vn 0.5766097 0.5358664 0.6167402
vn -0.6509501 -0.6686766 -0.3593544
vn -0.5512109 0.5358664 0.6395419
vn -0.5512109 -0.6686766 0.4990372
vn -0.5588831 0.3517324 -0.7509555
vn -0.5742276 0.3133712 -0.7563472
vn -0.7506893 -0.1086025 -0.651668
vn 0.5766097 0.3210434 -0.7513005
vn 0.7607436 -0.09325802 -0.6423177
vn 0.5535929 0.7967228 0.2424204
vn -0.5512109 0.7967228 0.247789
vn -0.6356056 0.3363879 0.6948732
vn 0.6456599 0.3440602 0.6817227
vn 0.5535929 0.7967228 0.2424204
vn 0.5766097 0.3210434 -0.7513005
vn 0.6456599 0.3440602 0.6817227
vn 0.7607436 -0.09325802 -0.6423177
vn -0.6356056 0.3363879 0.6948732
vn -0.5742276 0.3133712 -0.7563472
vn -0.5512109 0.7967228 0.247789
vn -0.7506893 -0.1086025 -0.651668
vn 0.6303154 0.3363879 -0.6996754
vn -0.6125889 0.3440602 -0.711588
vn 0.5459207 -0.7607436 -0.3510552
vn -0.5435386 -0.7607436 -0.3547322
vn -0.5742276 0.7200003 0.3896952
vn 0.5842819 0.7123281 0.3888487
vn 0.5842819 -0.3924757 0.7103361
vn -0.5742276 -0.3924757 0.7184883
vn 0.5842819 -0.3924757 0.7103361
vn 0.5842819 0.7123281 0.3888487
vn 0.6303154 0.3363879 -0.6996754
vn 0.5459207 -0.7607436 -0.3510552
vn 0.5842819 -0.3924757 0.7103361
vn -0.5435386 -0.7607436 -0.3547322
vn -0.5742276 -0.3924757 0.7184883
vn 0.5459207 -0.7607436 -0.3510552
vn -0.6125889 0.3440602 -0.711588
vn -0.5742276 0.7200003 0.3896952
vn -0.09087598 0.2519932 -0.9634526
vn -0.3594047 0.927151 0.1059216
vn 0.3310977 0.927151 -0.1754007
vn 0.6226431 0.06785917 -0.779558
vn -0.2059597 0.152254 -0.9666433
vn 0.3234255 0.2059597 -0.9235674
vn -0.2059597 0.152254 -0.9666433
vn 0.03955227 0.7200003 -0.6928458
vn 0.3234255 0.2059597 -0.9235674
vn 0.5612652 0.5435386 -0.6241372
vn 0.8144494 -0.5382484 -0.2167046
vn 0.8374661 0.5281941 0.1402195
vn 0.4308369 0.7430171 -0.5121574
vn 0.4308369 0.7430171 -0.5121574
vn 0.8451384 -0.5229039 -0.1109624
vn 0.00119102 -0.9372053 -0.3487761
vn 0.4308369 0.7430171 -0.5121574
vn 0.00119102 0.95784 -0.2872998
vn 0.00119102 0.95784 -0.2872998
vn 0.00119102 0.9041343 0.4272467
vn 0.00119102 -0.9602221 -0.279235
vn 0.00119102 -0.9372053 -0.3487761
vn -0.8274118 -0.5229039 -0.2048445
vn -0.7967228 -0.5382484 -0.2748117
vn -0.4284549 0.7430171 -0.5141518
vn 0.00119102 -0.9372053 -0.3487761
vn -0.4284549 0.7430171 -0.5141518
vn -0.8197396 0.5281941 0.2214453
vn -0.4284549 0.7430171 -0.5141518
vn 0.00119102 0.95784 -0.2872998
vn 0.00119102 0.9041343 0.4272467
vn 0.00119102 0.7430171 -0.6692714
vn 0.00119102 0.7430171 -0.6692714
vn 0.185325 0.6969836 -0.6927255
vn 0.1929972 0.6969836 -0.6906272
vn 0.3157532 0.5895721 -0.7434411
vn 0.3310977 0.5818999 -0.7428101
vn 0.2390307 0.4668161 -0.8514382
vn 0.3541145 0.3977659 -0.8463954
vn 0.216014 0.3517324 -0.910836
vn 0.308081 0.3133712 -0.8982676
vn 0.2620475 0.1599262 -0.9517115
vn 0.2620475 0.152254 -0.952969
vn 0.07791352 0.2059597 -0.9754538
vn 0.123947 0.06785917 -0.9899658
vn 0.00119102 0.05251467 -0.9986194
vn 0.00119102 0.2443209 -0.9696937
vn -0.08320367 0.4821606 -0.8721229
vn 0.2390307 0.4668161 -0.8514382
vn 0.4308369 0.7430171 -0.5121574
vn 0.216014 0.3517324 -0.910836
vn 0.4308369 0.7430171 -0.5121574
vn 0.00119102 0.2443209 -0.9696937
vn -0.08320367 0.4821606 -0.8721229
vn 0.07791352 0.2059597 -0.9754538
vn 0.00119102 0.95784 -0.2872998
vn -0.1752707 0.6969836 -0.6953374
vn 0.00119102 0.7430171 -0.6692714
vn 0.00119102 0.7430171 -0.6692714
vn -0.1829429 0.6969836 -0.6933584
vn -0.3056989 0.5895721 -0.7476316
vn -0.3210434 0.5818999 -0.7472106
vn -0.2289764 0.4668161 -0.8541971
vn -0.3517324 0.3977659 -0.8473881
vn -0.2059597 0.3517324 -0.9131621
vn -0.3056989 0.3133712 -0.8990811
vn -0.2519932 0.1599262 -0.9544229
vn -0.2596654 0.152254 -0.9536208
vn -0.07553148 0.2059597 -0.9756411
vn -0.1138927 0.06785917 -0.9911729
vn 0.00119102 0.05251467 -0.9986194
vn 0.00119102 0.2443209 -0.9696937
vn -0.4284549 0.7430171 -0.5141518
vn -0.2289764 0.4668161 -0.8541971
vn 0.09325802 0.4821606 -0.8711051
vn -0.2059597 0.3517324 -0.9131621
vn -0.4284549 0.7430171 -0.5141518
vn 0.09325802 0.4821606 -0.8711051
vn 0.00119102 0.2443209 -0.9696937
vn -0.07553148 0.2059597 -0.9756411
vn 0.00119102 0.95784 -0.2872998
vn 0.3234255 0.2059597 -0.9235674
vn -0.09087598 0.2519932 -0.9634526
vn 0.3310977 0.927151 -0.1754007
vn 0.03955227 0.7200003 -0.6928458
vn -0.5742276 0.3133712 -0.7563472
vn -0.7506893 -0.1086025 -0.651668
vn 0.5766097 0.3210434 -0.7513005
vn 0.7607436 -0.09325802 -0.6423177
vn 0.5535929 0.7967228 0.2424204
vn -0.5512109 0.7967228 0.247789
vn -0.6356056 0.3363879 0.6948732
vn 0.6456599 0.3440602 0.6817227
vn 0.5535929 0.7967228 0.2424204
vn 0.5766097 0.3210434 -0.7513005
vn 0.6456599 0.3440602 0.6817227
vn 0.7607436 -0.09325802 -0.6423177
vn -0.6356056 0.3363879 0.6948732
vn -0.5742276 0.3133712 -0.7563472
vn -0.5512109 0.7967228 0.247789
vn -0.7506893 -0.1086025 -0.651668
vn 0.6303154 0.3363879 -0.6996754
vn -0.6125889 0.3440602 -0.711588
vn 0.5459207 -0.7607436 -0.3510552
vn -0.5435386 -0.7607436 -0.3547322
vn -0.5742276 0.7200003 0.3896952
vn 0.5842819 0.7123281 0.3888487
vn 0.5842819 -0.3924757 0.7103361
vn -0.5742276 -0.3924757 0.7184883
vn 0.5842819 -0.3924757 0.7103361
vn 0.5842819 0.7123281 0.3888487
vn 0.6303154 0.3363879 -0.6996754
vn 0.5459207 -0.7607436 -0.3510552
vn 0.5842819 -0.3924757 0.7103361
vn -0.5435386 -0.7607436 -0.3547322
vn -0.5742276 -0.3924757 0.7184883
vn 0.5459207 -0.7607436 -0.3510552
vn -0.6125889 0.3440602 -0.711588
vn -0.5742276 0.7200003 0.3896952
vn 0.02420777 0.896462 0.4424589
vn 0.8681551 0.4668161 0.1684916
vn 0.03955227 0.7890506 0.6130537
vn 0.5459207 0.7353448 0.4015454
vn 0.5612652 0.5435386 -0.6241372
vn 0.03955227 0.7200003 -0.6928458
vn 0.02420777 0.4975051 0.8671232
vn 0.5152317 0.5972444 0.6146832
vn 0.00119102 -0.00119102 0.9999986
vn 0.7837604 -0.08558577 0.615138
vn -0.3977659 -0.3617867 0.8431445
vn 0.5612652 -0.6072986 0.5622898
vn -0.3363879 -0.7453991 0.5755201
vn -0.2059597 0.152254 -0.9666433
vn 0.6226431 0.06785917 -0.779558
vn 0.5612652 0.5435386 -0.6241372
vn -0.3594047 0.927151 0.1059216
vn -0.6969836 -0.02420777 -0.7166784
vn -0.2903544 -0.2313585 -0.9285298
vn -0.09087598 0.2519932 -0.9634526
vn -0.7583616 -0.4154924 -0.5022487
vn 0.02420777 -0.1469638 -0.9888456
vn 0.04722452 0.02182567 -0.9986458
vn 0.02420777 -0.1469638 -0.9888456
vn 0.6226431 0.06785917 -0.779558
vn 0.04722452 0.02182567 -0.9986458
vn 0.8067771 -0.03188002 -0.5899952
vn -0.3363879 -0.7453991 0.5755201
vn -0.7583616 -0.4154924 -0.5022487
vn -0.3977659 -0.3617867 0.8431445
vn -0.3824214 -0.7837604 -0.4893604
vn -0.7583616 -0.4154924 -0.5022487
vn -0.3824214 -0.7837604 -0.4893604
vn -0.2903544 -0.2313585 -0.9285298
vn 0.02420777 -0.1469638 -0.9888456
vn -0.006481171 -0.8144494 -0.5801984
vn 0.9985833 0.02182567 -0.04852813
vn 0.5612652 0.5435386 -0.6241372
vn 0.6226431 0.06785917 -0.779558
vn 0.5459207 0.7353448 0.4015454
vn 0.8681551 0.4668161 0.1684916
vn 0.7837604 -0.08558577 0.615138
vn 0.5612652 -0.6072986 0.5622898
vn 0.5152317 0.5972444 0.6146832
vn 0.8067771 -0.03188002 -0.5899952
vn 0.5152317 -0.5459207 -0.6606867
vn 0.5152317 -0.5459207 -0.6606867
vn 0.8067771 -0.03188002 -0.5899952
vn 0.02420777 -0.1469638 -0.9888456
vn -0.006481171 -0.8144494 -0.5801984
vn -0.09087598 0.2519932 -0.9634526
vn 0.03955227 0.7200003 -0.6928458
vn -0.6969836 -0.02420777 -0.7166784
vn -0.006481171 -0.8144494 -0.5801984
vn 0.5612652 -0.6072986 0.5622898
vn 0.5152317 -0.5459207 -0.6606867
vn -0.3363879 -0.7453991 0.5755201
vn -0.3824214 -0.7837604 -0.4893604
g mx_xiaoFangChe1_cheli_0
f 3/3/3 2/2/2 1/1/1
f 4/4/4 1/1/1 2/2/2
f 7/7/7 6/6/6 5/5/5
f 8/8/8 5/5/5 6/6/6
f 5/5/5 9/9/9 7/7/7
f 10/10/10 7/7/7 9/9/9
f 6/6/6 11/11/11 8/8/8
f 12/12/12 8/8/8 11/11/11
f 15/15/15 14/14/14 13/13/13
f 16/16/16 13/13/13 14/14/14
f 19/19/19 18/18/18 17/17/17
f 20/20/20 17/17/17 18/18/18
f 23/23/23 22/22/22 21/21/21
f 24/24/24 22/22/22 23/23/23
f 25/25/25 23/23/23 21/21/21
f 21/21/21 26/26/26 25/25/25
f 26/26/26 27/27/27 25/25/25
f 27/27/27 28/28/28 25/25/25
f 31/31/31 30/30/30 29/29/29
f 31/31/31 32/32/32 30/30/30
f 35/35/35 34/34/34 33/33/33
f 36/36/36 33/33/33 34/34/34
f 39/39/39 38/38/38 37/37/37
f 39/39/39 40/40/40 38/38/38
f 37/37/37 38/38/38 41/41/41
f 41/41/41 42/42/42 37/37/37
f 41/41/41 43/43/43 42/42/42
f 44/44/44 43/43/43 41/41/41
f 47/47/47 46/46/46 45/45/45
f 45/45/45 48/48/48 47/47/47
f 51/51/51 50/50/50 49/49/49
f 50/50/50 52/52/52 49/49/49
f 50/50/50 51/51/51 53/53/53
f 51/51/51 54/54/54 53/53/53
f 57/57/57 56/56/56 55/55/55
f 58/58/58 55/55/55 56/56/56
f 56/56/56 57/57/57 59/59/59
f 60/60/60 59/59/59 57/57/57
f 63/63/63 62/62/62 61/61/61
f 64/64/64 61/61/61 62/62/62
f 67/67/67 66/66/66 65/65/65
f 65/65/65 69/69/69 68/68/68
f 69/69/69 65/65/65 70/70/70
f 72/72/72 66/66/66 71/71/71
f 74/74/74 66/66/66 73/73/73
f 76/76/76 75/75/75 69/69/69
f 77/77/77 75/75/75 76/76/76
f 79/79/79 77/77/77 78/78/78
f 80/80/80 78/78/78 77/77/77
f 78/78/78 82/82/82 81/81/81
f 83/83/83 82/82/82 72/72/72
f 82/82/82 85/85/85 84/84/84
f 88/88/88 87/87/87 86/86/86
f 86/86/86 89/89/89 88/88/88
f 90/90/90 88/88/88 89/89/89
f 89/89/89 91/91/91 90/90/90
f 90/90/90 91/91/91 92/92/92
f 92/92/92 91/91/91 93/93/93
f 94/94/94 92/92/92 93/93/93
f 95/95/95 94/94/94 93/93/93
f 96/96/96 94/94/94 95/95/95
f 97/97/97 96/96/96 95/95/95
f 98/98/98 96/96/96 97/97/97
f 97/97/97 99/99/99 98/98/98
f 98/98/98 99/99/99 100/100/100
f 100/100/100 101/101/101 98/98/98
f 104/104/104 103/103/103 102/102/102
f 103/103/103 105/105/105 102/102/102
f 108/108/108 107/107/107 106/106/106
f 107/107/107 108/108/108 109/109/109
f 106/106/106 107/107/107 110/110/110
f 113/113/113 112/112/112 111/111/111
f 111/111/111 114/114/114 113/113/113
f 114/114/114 111/111/111 115/115/115
f 115/115/115 116/116/116 114/114/114
f 116/116/116 115/115/115 117/117/117
f 118/118/118 116/116/116 117/117/117
f 118/118/118 117/117/117 119/119/119
f 119/119/119 120/120/120 118/118/118
f 120/120/120 119/119/119 121/121/121
f 121/121/121 122/122/122 120/120/120
f 122/122/122 121/121/121 123/123/123
f 123/123/123 124/124/124 122/122/122
f 125/125/125 124/124/124 123/123/123
f 123/123/123 126/126/126 125/125/125
f 129/129/129 128/128/128 127/127/127
f 129/129/129 130/130/130 128/128/128
f 133/133/133 132/132/132 131/131/131
f 133/133/133 134/134/134 132/132/132
f 135/135/135 133/133/133 131/131/131
f 138/138/138 137/137/137 136/136/136
f 139/139/139 136/136/136 137/137/137
f 142/142/142 141/141/141 140/140/140
f 143/143/143 141/141/141 142/142/142
f 144/144/144 142/142/142 140/140/140
f 140/140/140 145/145/145 144/144/144
f 145/145/145 146/146/146 144/144/144
f 146/146/146 147/147/147 144/144/144
f 150/150/150 149/149/149 148/148/148
f 150/150/150 151/151/151 149/149/149
f 154/154/154 153/153/153 152/152/152
f 155/155/155 152/152/152 153/153/153
f 158/158/158 157/157/157 156/156/156
f 158/158/158 159/159/159 157/157/157
f 156/156/156 157/157/157 160/160/160
f 160/160/160 161/161/161 156/156/156
f 160/160/160 162/162/162 161/161/161
f 163/163/163 162/162/162 160/160/160
f 166/166/166 165/165/165 164/164/164
f 164/164/164 167/167/167 166/166/166
f 170/170/170 169/169/169 168/168/168
f 169/169/169 171/171/171 168/168/168
f 169/169/169 170/170/170 172/172/172
f 170/170/170 173/173/173 172/172/172
f 176/176/176 175/175/175 174/174/174
f 177/177/177 174/174/174 175/175/175
f 177/177/177 178/178/178 174/174/174
f 179/179/179 174/174/174 178/178/178
f 176/176/176 180/180/180 175/175/175
f 181/181/181 175/175/175 180/180/180
f 180/180/180 182/182/182 181/181/181
f 183/183/183 181/181/181 182/182/182
f 182/182/182 184/184/184 183/183/183
f 185/185/185 183/183/183 184/184/184
f 186/186/186 185/185/185 184/184/184
f 189/189/189 188/188/188 187/187/187
f 190/190/190 187/187/187 188/188/188
f 193/193/193 192/192/192 191/191/191
f 194/194/194 191/191/191 192/192/192
f 192/192/192 193/193/193 195/195/195
f 196/196/196 195/195/195 193/193/193
f 199/199/199 198/198/198 197/197/197
f 200/200/200 197/197/197 198/198/198
f 203/203/203 202/202/202 201/201/201
f 204/204/204 201/201/201 202/202/202
f 207/207/207 206/206/206 205/205/205
f 207/207/207 208/208/208 206/206/206
f 208/208/208 209/209/209 206/206/206
f 212/212/212 211/211/211 210/210/210
f 213/213/213 210/210/210 211/211/211
f 214/214/214 210/210/210 213/213/213
f 214/214/214 215/215/215 210/210/210
f 216/216/216 210/210/210 215/215/215
f 217/217/217 215/215/215 214/214/214
f 212/212/212 210/210/210 218/218/218
f 218/218/218 210/210/210 216/216/216
f 219/219/219 218/218/218 216/216/216
f 222/222/222 221/221/221 220/220/220
f 223/223/223 222/222/222 220/220/220
f 226/226/226 225/225/225 224/224/224
f 229/229/229 228/228/228 227/227/227
f 230/230/230 227/227/227 228/228/228
f 230/230/230 231/231/231 227/227/227
