g Object09
v 0.18038 -0.095181 -0.001295996
v -0.18038 -0.095181 0.269454
v 0.18038 -0.095181 0.269454
v -0.18038 -0.095181 -0.001295996
v 0.18038 0 0.269454
v -0.18038 -0.095181 0.269454
v -0.18038 0 0.269454
v 0.18038 -0.095181 0.269454
v 0.18038 0 -0.001296
v 0.18038 -0.095181 0.269454
v 0.18038 0 0.269454
v 0.18038 -0.095181 -0.001295996
v -0.18038 0 -0.001296
v 0.18038 -0.095181 -0.001295996
v 0.18038 0 -0.001296
v -0.18038 -0.095181 -0.001295996
v -0.18038 0 0.269454
v -0.18038 -0.095181 -0.001295996
v -0.18038 0 -0.001296
v -0.18038 -0.095181 0.269454
v 0.1679219 -0.08394776 0.01457951
v -0.1679219 -0.08394777 0.2535785
v -0.1679219 -0.08394776 0.01457951
v 0.1679219 -0.08394777 0.2535785
v -0.1679219 -0.003566227 0.2535785
v 0.1679219 -0.08394777 0.2535785
v 0.1679219 -0.003566227 0.2535785
v -0.1679219 -0.08394777 0.2535785
v 0.1679219 -0.08394777 0.2535785
v 0.1679219 -0.003566231 0.01457951
v 0.1679219 -0.003566227 0.2535785
v 0.1679219 -0.08394776 0.01457951
v 0.1679219 -0.08394776 0.01457951
v -0.1679219 -0.003566231 0.01457951
v 0.1679219 -0.003566231 0.01457951
v -0.1679219 -0.08394776 0.01457951
v -0.1679219 -0.003566231 0.01457951
v -0.1679219 -0.08394777 0.2535785
v -0.1679219 -0.003566227 0.2535785
v -0.1679219 -0.08394776 0.01457951
v -0.1679219 -0.003566227 0.2535785
v 0.18038 0 0.269454
v -0.18038 0 0.269454
v 0.1679219 -0.003566227 0.2535785
v 0.18038 0 0.269454
v 0.1679219 -0.003566231 0.01457951
v 0.18038 0 -0.001296
v 0.1679219 -0.003566227 0.2535785
v -0.1679219 -0.003566231 0.01457951
v 0.18038 0 -0.001296
v 0.1679219 -0.003566231 0.01457951
v -0.18038 0 -0.001296
v -0.1679219 -0.003566231 0.01457951
v -0.18038 0 0.269454
v -0.18038 0 -0.001296
v -0.1679219 -0.003566227 0.2535785
vt 0.0101 0.0075
vt 0.3566 0.5157
vt 0.3572 0.008
vt 0.0092 0.5162
vt 0.5199 0.8302
vt 0.0086 0.6825
vt 0.0092 0.8302
vt 0.5179 0.6831
vt 0.3592 0.5365
vt 0.007 0.6636
vt 0.007 0.5362
vt 0.3592 0.6633
vt 0.0086 0.6825
vt 0.5199 0.8302
vt 0.5179 0.6831
vt 0.0092 0.8302
vt 0.007 0.5362
vt 0.3592 0.6633
vt 0.3592 0.5365
vt 0.007 0.6636
vt 0.0101 0.0075
vt 0.3566 0.5157
vt 0.0092 0.5162
vt 0.3572 0.008
vt 0.723 0.9922
vt 0.8477 0.9675
vt 0.8482 0.9922
vt 0.7228 0.9674
vt 0.663 0.7761
vt 0.8009 0.7468
vt 0.663 0.7468
vt 0.8009 0.7761
vt 0.8482 0.9922
vt 0.7228 0.9674
vt 0.8477 0.9675
vt 0.723 0.9922
vt 0.8009 0.7468
vt 0.663 0.7761
vt 0.663 0.7468
vt 0.8009 0.7761
vt 0.0321 0.944
vt 0.7011 0.9908
vt 0.0085 0.9908
vt 0.6776 0.944
vt 0.9946 0.0105
vt 0.9611 0.7139
vt 0.9946 0.7529
vt 0.9611 0.0495
vt 0.0321 0.944
vt 0.7011 0.9908
vt 0.6776 0.944
vt 0.0085 0.9908
vt 0.9611 0.7139
vt 0.9946 0.0105
vt 0.9946 0.7529
vt 0.9611 0.0495
g Object09_0
f 3/3/3 2/2/2 1/1/1
f 4/4/4 1/1/1 2/2/2
f 7/7/7 6/6/6 5/5/5
f 8/8/8 5/5/5 6/6/6
f 11/11/11 10/10/10 9/9/9
f 12/12/12 9/9/9 10/10/10
f 15/15/15 14/14/14 13/13/13
f 16/16/16 13/13/13 14/14/14
f 19/19/19 18/18/18 17/17/17
f 20/20/20 17/17/17 18/18/18
f 23/23/23 22/22/22 21/21/21
f 24/24/24 21/21/21 22/22/22
f 27/27/27 26/26/26 25/25/25
f 28/28/28 25/25/25 26/26/26
f 31/31/31 30/30/30 29/29/29
f 32/32/32 29/29/29 30/30/30
f 35/35/35 34/34/34 33/33/33
f 36/36/36 33/33/33 34/34/34
f 39/39/39 38/38/38 37/37/37
f 40/40/40 37/37/37 38/38/38
f 43/43/43 42/42/42 41/41/41
f 44/44/44 41/41/41 42/42/42
f 47/47/47 46/46/46 45/45/45
f 48/48/48 45/45/45 46/46/46
f 51/51/51 50/50/50 49/49/49
f 52/52/52 49/49/49 50/50/50
f 55/55/55 54/54/54 53/53/53
f 56/56/56 53/53/53 54/54/54
