g polySurface1
v -526.3665 0 343.5566
v -418.6051 0 401.4989
v -528.3497 0 347.5944
v -416.6213 0 397.4598
v -605.2241 0 316.1841
v -549.5812 0 343.2882
v -606.8955 0 320.3621
v -547.9104 0 339.1116
v -536.3696 0 272.7386
v -602.0447 0 199.9289
v -533.1699 0 269.5744
v -605.2443 0 203.0931
v -524.6908 0 271.3926
v -496.2753 0 267.028
v -523.3198 0 275.6786
v -497.6463 0 262.7419
v 214.2789 0 -32.12585
v 228.6287 0 -54.43785
v 218.4217 0 -30.36895
v 224.4858 0 -56.19475
v 1.497728 0 500.6519
v 76.65953 0 501.6423
v 1.707929 0 505.147
v 76.44933 0 497.1472
v -21.81437 0 511.01
v -109.6356 0 512.5149
v -22.12187 0 506.5207
v -109.3281 0 517.0042
v -22.12187 0 506.5207
v -109.9431 0 508.0255
v -22.42937 0 502.0312
v -109.6356 0 512.5149
v 244.1698 0 -82.06236
v 353.0731 0 -116.7056
v 245.7018 0 -77.83115
v 351.5411 0 -120.9368
v 245.7018 0 -77.83115
v 354.605 0 -112.4743
v 247.2337 0 -73.59995
v 353.0731 0 -116.7056
v 490.889 0 -210.847
v 384.1651 0 -134.0556
v 488.1372 0 -214.4077
v 386.9169 0 -130.4949
v 541.1589 0 -151.9025
v 592.5155 0 -145.2229
v 540.9684 0 -147.4064
v 592.7059 0 -149.7189
v 507.2118 0 -212.7982
v 530.229 0 -154.4839
v 503.1562 0 -210.8503
v 534.2854 0 -156.4322
v 503.1562 0 -210.8503
v 526.1726 0 -152.5357
v 499.1003 0 -208.9024
v 530.229 0 -154.4839
v 424.9023 0 -458.9892
v 409.0755 0 -574.2184
v 429.3333 0 -459.7735
v 404.6444 0 -573.434
v 449.3885 0 -289.107
v 343.2936 0 -262.0941
v 448.0999 0 -293.4185
v 344.5822 0 -257.7827
v 318.6667 0 124.0546
v 162.4698 0 141.2785
v 318.0457 0 119.5976
v 163.0909 0 145.7355
v 180.0738 0 289.0865
v 372.2481 0 184.6626
v 182.3032 0 292.9955
v 370.0187 0 180.7536
v 182.3032 0 292.9955
v 374.4775 0 188.5714
v 184.5326 0 296.9044
v 372.2481 0 184.6626
v 275.2417 0 361.1725
v 406.0212 0 247.3183
v 278.2835 0 364.4887
v 402.9793 0 244.0022
v 252.1935 0 370.7003
v 181.115 0 308.7377
v 254.9851 0 367.1711
v 178.3252 0 312.2647
v 257.8544 0 496.39
v 111.6106 0 499.8702
v 257.609 0 491.8966
v 111.856 0 504.3636
v 275.6385 0 496.281
v 302.6727 0 558.9362
v 271.6332 0 498.3325
v 306.678 0 556.8848
v 271.6332 0 498.3325
v 298.6675 0 560.9875
v 267.628 0 500.3838
v 302.6727 0 558.9362
v -537.4165 0 -487.9764
v -496.2436 0 -454.5886
v -539.9437 0 -484.2533
v -493.7162 0 -458.3118
v -539.9437 0 -484.2533
v -498.7709 0 -450.8654
v -542.4712 0 -480.5301
v -496.2436 0 -454.5886
v -444.5178 0 -401.4525
v -538.1121 0 -345.9247
v -446.972 0 -405.2244
v -535.658 0 -342.1527
v -446.972 0 -405.2244
v -540.5663 0 -349.6966
v -449.4261 0 -408.9962
v -538.1121 0 -345.9247
v -425.865 0 -412.2531
v -410.3149 0 -396.2585
v -428.3925 0 -408.5299
v -407.7875 0 -399.9817
v -338.7472 0 471.5384
v -259.7477 0 447.0757
v -337.1987 0 475.7289
v -261.3071 0 442.8557
v -142.6129 0 481.3655
v -201.6705 0 556.5591
v -146.2787 0 478.7556
v -198.0047 0 559.1689
v -303.6944 0 -386.3709
v -317.895 0 -304.0858
v -308.1636 0 -386.8961
v -313.4257 0 -303.5605
v -194.9621 0 -420.4132
v -207.1629 0 -300.8452
v -199.4528 0 -420.7021
v -202.6722 0 -300.5562
v -188.0833 0 -527.3472
v -197.8925 0 -444.9575
v -192.574 0 -527.6361
v -193.4018 0 -444.6686
v -192.574 0 -527.6361
v -202.3832 0 -445.2463
v -197.0647 0 -527.9249
v -197.8925 0 -444.9575
v -182.3996 0 -615.7015
v -191.2133 0 -548.7893
v -186.8903 0 -615.9904
v -186.7225 0 -548.5005
v 153.816 0 -475.7816
v 168.8018 0 -543.4247
v 158.2634 0 -475.0956
v 164.3544 0 -544.1106
v -329.0688 0 -96.04495
v -195.3175 0 -127.1392
v -327.9068 0 -91.69756
v -196.4796 0 -131.4865
v -315.0016 0 -397.1207
v -376.4399 0 -391.295
v -315.7519 0 -401.5576
v -375.6895 0 -386.8579
v -527.0913 0 286.5229
v -534.6512 0 330.7864
v -531.5807 0 286.2136
v -530.1619 0 331.0957
v -531.5807 0 286.2136
v -539.1406 0 330.4772
v -536.0701 0 285.9042
v -534.6512 0 330.7864
v 267.5427 0 480.8871
v 267.459 0 385.5312
v 272.0375 0 480.6708
v 262.9642 0 385.7476
v -203.1422 0 -533.807
v -277.7902 0 -531.0701
v -203.5777 0 -538.2859
v -277.3547 0 -526.5913
v -203.5777 0 -538.2859
v -278.2257 0 -535.5491
v -204.0132 0 -542.7648
v -277.7902 0 -531.0701
v 489.3951 0 -228.0036
v 461.9582 0 -287.6988
v 493.3449 0 -230.1582
v 458.0078 0 -285.5439
v 608.444 0 -398.0967
v 469.5149 0 -304.8394
v 605.8363 0 -401.7643
v 472.1225 0 -301.172
v -15.07977 0 140.6798
v -147.8335 0 130.2121
v -14.87787 0 136.1843
v -148.0355 0 134.7076
v -14.87787 0 136.1843
v -147.6316 0 125.7166
v -14.67597 0 131.6888
v -147.8335 0 130.2121
v 99.54393 0 404.0874
v 13.62523 0 399.2379
v 99.56223 0 399.5874
v 13.60693 0 403.7379
v -13.16997 0 493.3188
v 1.790829 0 410.5751
v -8.705271 0 493.8813
v -2.673871 0 410.0126
v -84.48687 0 -600.7644
v -98.46747 0 -436.3543
v -88.97947 0 -601.0233
v -93.97487 0 -436.0955
v -13.52467 0 -446.1713
v -85.93347 0 -426.7625
v -14.94857 0 -450.4401
v -84.50957 0 -422.4937
v -472.8146 0 269.3488
v -371.9393 0 330.1458
v -474.9885 0 273.2889
v -369.7654 0 326.2057
v 467.0532 0 -31.92985
v 393.9568 0 156.9039
v 462.8215 0 -33.46055
v 398.1885 0 158.4346
v 437.0253 0 415.3473
v 279.4488 0 376.6918
v 437.9757 0 410.9489
v 278.4983 0 381.0903
v -27.20467 0 620.8368
v -11.48347 0 517.589
v -22.73097 0 621.3219
v -15.95727 0 517.104
v -22.73097 0 621.3219
v -7.009671 0 518.0741
v -18.25717 0 621.8071
v -11.48347 0 517.589
v 7.831429 0 -459.1059
v 143.5981 0 -466.231
v 8.215828 0 -454.6223
v 143.2136 0 -470.7145
v -251.5507 0 307.4577
v -149.6509 0 288.8188
v -250.5495 0 311.8451
v -150.6521 0 284.4315
v -335.1658 0 331.1555
v -273.7999 0 321.7668
v -334.1646 0 335.5428
v -274.8011 0 317.3796
v -257.9816 0 325.902
v -252.714 0 431.3238
v -262.4624 0 326.3181
v -248.2333 0 430.9077
v -262.4624 0 326.3181
v -257.1947 0 431.7397
v -266.9431 0 326.734
v -252.714 0 431.3238
v -255.614 0 226.1602
v -266.8286 0 301.145
v -260.0961 0 225.7599
v -262.3465 0 301.5453
v -238.2563 0 108.0232
v -181.973 0 128.9964
v -239.5072 0 112.3458
v -180.7221 0 124.6737
v -319.1436 0 79.92975
v -258.8751 0 102.0561
v -320.3946 0 84.25235
v -257.6241 0 97.73354
v -320.3946 0 84.25235
v -260.1261 0 106.3788
v -321.6456 0 88.57505
v -258.8751 0 102.0561
v -250.8258 0 117.1227
v -258.0785 0 193.7204
v -255.3228 0 116.9613
v -253.5814 0 193.8819
v -478.3248 0 -536.7457
v -470.9937 0 -582.2734
v -473.8297 0 -536.5387
v -475.4921 0 -582.385
v -486.4106 0 -461.9637
v -479.8204 0 -506.0117
v -481.9157 0 -461.7509
v -484.3153 0 -506.2245
v 53.09463 0 143.7422
v 8.625328 0 137.2401
v 53.29663 0 139.2467
v 8.423328 0 141.7356
v 53.29663 0 139.2467
v 8.827229 0 132.7446
v 53.49853 0 134.7513
v 8.625328 0 137.2401
v 131.156 0 142.7441
v 74.57793 0 135.6982
v 131.3579 0 138.2486
v 74.37593 0 140.1936
v 62.16063 0 285.3322
v 12.55463 0 281.9207
v 62.06243 0 280.8334
v 12.64283 0 286.4199
v 120.418 0 279.5518
v 82.97623 0 275.8728
v 120.3192 0 275.0529
v 83.07503 0 280.3719
v 67.67783 0 270.0652
v 63.77283 0 151.0732
v 72.16663 0 269.7477
v 59.28403 0 151.3906
v -73.31078 0 288.3077
v -118.3318 0 284.7953
v -73.40958 0 283.8088
v -118.233 0 289.2943
v -75.66908 0 398.8748
v -113.4608 0 394.221
v -75.65077 0 394.3749
v -113.4791 0 398.721
v -69.56067 0 388.1623
v -62.81947 0 294.4194
v -65.06197 0 388.2697
v -67.31818 0 294.312
v -65.06197 0 388.2697
v -58.32077 0 294.5269
v -60.56327 0 388.3773
v -62.81947 0 294.4194
v -528.3497 0 347.5944
v -420.5889 0 405.5379
v -530.3329 0 351.632
v -418.6051 0 401.4989
v -603.5526 0 312.0061
v -547.9104 0 339.1116
v -605.2241 0 316.1841
v -546.2395 0 334.9351
v -539.5692 0 275.9028
v -605.2443 0 203.0931
v -536.3696 0 272.7386
v -608.444 0 206.2574
v -523.3198 0 275.6786
v -494.9044 0 271.3141
v -521.9489 0 279.9648
v -496.2753 0 267.028
v -32.50967 0 -107.566
v 133.7635 0 -82.74506
v -33.05467 0 -103.0991
v 134.3085 0 -87.21185
v -33.05467 0 -103.0991
v 133.2185 0 -78.27815
v -33.59977 0 -98.63226
v 133.7635 0 -82.74506
v -36.46857 0 -146.3392
v -44.74197 0 -115.6872
v -40.93547 0 -146.8842
v -40.27507 0 -115.1421
v -40.93547 0 -146.8842
v -49.20877 0 -116.2322
v -45.40237 0 -147.4292
v -44.74197 0 -115.6872
v 133.3038 0 -145.2543
v -26.89147 0 -159.2223
v 133.569 0 -149.7464
v -27.15677 0 -154.7301
v 133.569 0 -149.7464
v -26.62617 0 -163.7144
v 133.8343 0 -154.2386
v -26.89147 0 -159.2223
v 210.136 0 -33.88275
v 224.4858 0 -56.19475
v 214.2789 0 -32.12585
v 220.3429 0 -57.95165
v 1.707929 0 505.147
v 76.86973 0 506.1375
v 1.918129 0 509.6422
v 76.65953 0 501.6423
v 488.1372 0 -214.4077
v 381.4134 0 -137.6161
v 485.3855 0 -217.9682
v 384.1651 0 -134.0556
v 540.9684 0 -147.4064
v 592.3251 0 -140.7269
v 540.7781 0 -142.9106
v 592.5155 0 -145.2229
v 533.1896 0 -139.2384
v 488.8842 0 -81.73895
v 529.4301 0 -141.7115
v 492.6443 0 -79.26675
v 529.4301 0 -141.7115
v 485.1242 0 -84.21115
v 525.6704 0 -144.1848
v 488.8842 0 -81.73895
v 429.3333 0 -459.7735
v 413.5066 0 -575.0028
v 433.7643 0 -460.5577
v 409.0755 0 -574.2184
v 450.3909 0 -310.1594
v 436.0253 0 -421.4851
v 454.8272 0 -310.9138
v 431.589 0 -420.7309
v 454.8272 0 -310.9138
v 440.4616 0 -422.2396
v 459.2635 0 -311.6682
v 436.0253 0 -421.4851
v 448.0999 0 -293.4185
v 342.005 0 -266.4056
v 446.8112 0 -297.73
v 343.2936 0 -262.0941
v 318.0457 0 119.5976
v 161.8487 0 136.8216
v 317.4245 0 115.1407
v 162.4698 0 141.2785
v 151.1525 0 293.3807
v 163.7028 0 295.9793
v 161.3023 0 299.7824
v 153.5541 0 289.576
v 153.249 0 289.3834
v 165.7983 0 291.9836
v 163.3977 0 295.7868
v 155.6507 0 285.5785
v 272.1998 0 357.8564
v 402.9793 0 244.0022
v 275.2417 0 361.1725
v 399.9374 0 240.6859
v 254.9851 0 367.1711
v 183.9048 0 305.2108
v 257.7767 0 363.6418
v 181.115 0 308.7377
v 257.609 0 491.8966
v 111.3652 0 495.3769
v 257.3636 0 487.4034
v 111.6106 0 499.8702
v -428.3925 0 -408.5299
v -412.8423 0 -392.5352
v -430.9198 0 -404.8068
v -410.3149 0 -396.2585
v -474.2027 0 -445.0656
v -446.8174 0 -421.0371
v -476.7301 0 -441.3424
v -444.29 0 -424.7603
v -476.7301 0 -441.3424
v -449.3448 0 -417.314
v -479.2574 0 -437.6193
v -446.8174 0 -421.0371
v -241.115 0 435.3918
v -145.7992 0 404.968
v -239.5552 0 439.6129
v -147.359 0 400.7469
v -239.5552 0 439.6129
v -144.2394 0 409.1891
v -237.9954 0 443.834
v -145.7992 0 404.968
v -337.1987 0 475.7289
v -258.1883 0 451.2957
v -335.6502 0 479.9196
v -259.7477 0 447.0757
v -146.2787 0 478.7556
v -205.3364 0 553.9491
v -149.9446 0 476.1458
v -201.6705 0 556.5591
v -342.8623 0 -621.8071
v -290.9612 0 -536.4043
v -346.5986 0 -619.2994
v -287.2248 0 -538.9121
v -346.5986 0 -619.2994
v -294.6976 0 -533.8965
v -350.335 0 -616.7915
v -290.9612 0 -536.4043
v -299.2252 0 -385.8459
v -313.4257 0 -303.5605
v -303.6944 0 -386.3709
v -308.9565 0 -303.0353
v -283.3799 0 -520.6858
v -300.4342 0 -414.1158
v -287.8492 0 -521.2109
v -295.965 0 -413.5905
v -287.8492 0 -521.2109
v -304.9034 0 -414.641
v -292.3184 0 -521.7362
v -300.4342 0 -414.1158
v -199.4528 0 -420.7021
v -211.6536 0 -301.1339
v -203.9435 0 -420.9911
v -207.1629 0 -300.8452
v -186.8903 0 -615.9904
v -195.704 0 -549.0782
v -191.3811 0 -616.2793
v -191.2133 0 -548.7893
v 149.3686 0 -476.4674
v 164.3544 0 -544.1106
v 153.816 0 -475.7816
v 159.907 0 -544.7965
v 161.5403 0 -466.5479
v 213.9944 0 -427.8456
v 159.1249 0 -462.7511
v 216.4098 0 -431.6425
v 159.1249 0 -462.7511
v 211.5791 0 -424.0488
v 156.7096 0 -458.9542
v 213.9944 0 -427.8456
v -327.9068 0 -91.69756
v -194.1555 0 -122.7918
v -326.7447 0 -87.35015
v -195.3175 0 -127.1392
v -160.9573 0 -132.0621
v -56.95197 0 -106.8446
v -161.8329 0 -127.6481
v -56.07647 0 -111.2586
v -161.8329 0 -127.6481
v -57.82747 0 -102.4305
v -162.7084 0 -123.2341
v -56.95197 0 -106.8446
v -314.2512 0 -392.6836
v -375.6895 0 -386.8579
v -315.0016 0 -397.1207
v -374.9392 0 -382.421
v 263.0479 0 481.1035
v 262.9642 0 385.7476
v 267.5427 0 480.8871
v 258.4694 0 385.9638
v 493.3449 0 -230.1582
v 465.9086 0 -289.8537
v 497.2947 0 -232.3128
v 461.9582 0 -287.6988
v 605.8363 0 -401.7643
v 466.9073 0 -308.507
v 603.2288 0 -405.4318
v 469.5149 0 -304.8394
v -2.691571 0 271.7242
v -2.109571 0 147.8336
v 1.806129 0 271.5818
v -6.607371 0 147.976
v 1.806129 0 271.5818
v 2.388129 0 147.6913
v 6.303928 0 271.4395
v -2.109571 0 147.8336
v 99.56223 0 399.5874
v 13.64353 0 394.7379
v 99.58053 0 395.0876
v 13.62523 0 399.2379
v -1.373371 0 388.6371
v 2.238729 0 292.7449
v 3.126429 0 388.5955
v -2.261171 0 292.7866
v 3.126429 0 388.5955
v 6.738529 0 292.7032
v 7.626228 0 388.5538
v 2.238729 0 292.7449
v -8.705271 0 493.8813
v 6.255529 0 411.1378
v -4.240571 0 494.4438
v 1.790829 0 410.5751
v -9.137271 0 125.3328
v -24.67827 0 16.09105
v -4.711671 0 124.5178
v -29.10387 0 16.90605
v -4.711671 0 124.5178
v -20.25267 0 15.27605
v -0.2860708 0 123.7029
v -24.67827 0 16.09105
v -210.5573 0 -426.0388
v -288.0596 0 -404.1442
v -212.0207 0 -430.2941
v -286.5962 0 -399.8889
v -212.0207 0 -430.2941
v -289.5231 0 -408.3996
v -213.4842 0 -434.5494
v -288.0596 0 -404.1442
v -95.35927 0 -412.0692
v -107.03 0 -287.7475
v -99.85187 0 -412.3281
v -102.5375 0 -287.4886
v -99.85187 0 -412.3281
v -111.5225 0 -288.0063
v -104.3444 0 -412.5869
v -107.03 0 -287.7475
v -88.97947 0 -601.0233
v -102.96 0 -436.6132
v -93.47197 0 -601.2821
v -98.46747 0 -436.3543
v -110.7914 0 -419.2396
v -187.6434 0 -433.546
v -110.2239 0 -423.7036
v -188.211 0 -429.0818
v -110.2239 0 -423.7036
v -187.0759 0 -438.01
v -109.6563 0 -428.1677
v -187.6434 0 -433.546
v -9.149871 0 -578.8955
v -6.730371 0 -464.0685
v -13.64167 0 -578.6245
v -2.238571 0 -464.3395
v -13.64167 0 -578.6245
v -11.22217 0 -463.7975
v -18.13357 0 -578.3535
v -6.730371 0 -464.0685
v -14.94857 0 -450.4401
v -87.35737 0 -431.0313
v -16.37247 0 -454.7089
v -85.93347 0 -426.7625
v -470.6406 0 265.4088
v -369.7654 0 326.2057
v -472.8146 0 269.3488
v -367.5915 0 322.2655
v -34.97667 0 -15.69255
v -43.80687 0 -91.76205
v -30.54487 0 -16.47325
v -48.23867 0 -90.98145
v -30.54487 0 -16.47325
v -39.37507 0 -92.54266
v -26.11307 0 -17.25385
v -43.80687 0 -91.76205
v 462.8215 0 -33.46055
v 389.7252 0 155.373
v 458.5899 0 -34.99135
v 393.9568 0 156.9039
v 437.9757 0 410.9489
v 280.3993 0 372.2933
v 438.9262 0 406.5504
v 279.4488 0 376.6918
v 86.93463 0 -268.9423
v 0.6549292 0 -440.7226
v 90.90753 0 -271.0557
v -3.317871 0 -438.6093
v 90.90753 0 -271.0557
v 4.627829 0 -442.836
v 94.88043 0 -273.1689
v 0.6549292 0 -440.7226
v 8.215828 0 -454.6223
v 143.9825 0 -461.7473
v 8.600328 0 -450.1388
v 143.5981 0 -466.231
v -250.5495 0 311.8451
v -148.6497 0 293.2059
v -249.5483 0 316.2322
v -149.6509 0 288.8188
v -336.1671 0 326.7683
v -274.8011 0 317.3796
v -335.1658 0 331.1555
v -275.8023 0 312.9925
v -251.1318 0 226.5605
v -262.3465 0 301.5453
v -255.614 0 226.1602
v -257.8643 0 301.9454
v -237.0053 0 103.7006
v -180.7221 0 124.6737
v -238.2563 0 108.0232
v -179.4711 0 120.3512
v -246.3287 0 117.284
v -253.5814 0 193.8819
v -250.8258 0 117.1227
v -249.0843 0 194.0432
v -482.8199 0 -536.9528
v -475.4921 0 -582.385
v -478.3248 0 -536.7457
v -479.9906 0 -582.4967
v -481.9157 0 -461.7509
v -475.3255 0 -505.799
v -477.4207 0 -461.5381
v -479.8204 0 -506.0117
v 130.954 0 147.2395
v 74.37593 0 140.1936
v 131.156 0 142.7441
v 74.17403 0 144.689
v 62.06243 0 280.8334
v 12.46643 0 277.4215
v 61.96423 0 276.3345
v 12.55463 0 281.9207
v 120.5168 0 284.0507
v 83.07503 0 280.3719
v 120.418 0 279.5518
v 83.17393 0 284.8708
v 72.16663 0 269.7477
v 68.26163 0 150.7556
v 76.65543 0 269.4302
v 63.77283 0 151.0732
v -73.40958 0 283.8088
v -118.4306 0 280.2964
v -73.50837 0 279.3098
v -118.3318 0 284.7953
v -8.353271 0 286.881
v -52.39887 0 283.3473
v -8.441271 0 282.382
v -52.30077 0 287.8462
v -8.441271 0 282.382
v -52.49697 0 278.8484
v -8.529271 0 277.8828
v -52.39887 0 283.3473
v -75.68737 0 403.3748
v -113.4791 0 398.721
v -75.66908 0 398.8748
v -113.4974 0 403.221
v -8.263171 0 403.649
v -54.66627 0 398.9602
v -8.244871 0 399.149
v -54.68457 0 403.4602
v -8.244871 0 399.149
v -54.64797 0 394.4602
v -8.226571 0 394.649
v -54.66627 0 398.9602
vt 9.976563 0
vt 0 1
vt 9.976563 1
vt 0 0
vt 0 1
vt 4.964844 0
vt 0 0
vt 4.964844 0.9995117
vt 0 1
vt 7.976563 0
vt 0 0
vt 7.976563 1
vt 2.597656 0
vt 0 1
vt 2.597656 1
vt 0 0
vt 0 1
vt 1.847656 0
vt 0 0
vt 1.847656 1
vt 6.546875 0
vt 0 1
vt 6.546875 1
vt 0 0
vt 7.527344 0
vt 0 1
vt 7.527344 1
vt 0 0
vt 0 1
vt 7.527344 0
vt 0 0
vt 7.527344 1
vt 9.492188 0
vt 0 1
vt 9.492188 1
vt 0 0
vt 0 1
vt 9.492188 0
vt 0 0
vt 9.492188 1
vt 11 0
vt 0 1
vt 11 1
vt 0 0
vt 4.558594 0
vt 0 1
vt 4.558594 1
vt 0 0
vt 4.949219 0
vt 0 1
vt 4.949219 1
vt 0 0
vt 0 1
vt 4.949219 0
vt 0 0
vt 4.949219 1
vt 9.476563 0
vt 0 1
vt 9.476563 1
vt 0 0
vt 8.984375 0
vt 0 1
vt 8.984375 1
vt 0 0
vt 12.99219 0
vt 0 1
vt 12.99219 1
vt 0 0
vt 17.98438 0
vt 0 1
vt 17.98438 1
vt 0 0
vt 0 1
vt 17.98438 0
vt 0 0
vt 17.98438 1
vt 0 1
vt 14.5 0
vt 0 0
vt 14.5 1
vt 8.015625 0
vt 0 1
vt 8.015625 1
vt 0 0
vt 8.984375 0
vt -3.044922 1
vt 8.984375 1
vt -3.044922 0
vt 5.460938 0
vt 0 1
vt 5.460938 1
vt 0 0
vt 0 1
vt 5.460938 0
vt 0 0
vt 5.460938 1
vt 4.527344 0
vt 0 1
vt 4.527344 1
vt 0 0
vt 0 1
vt 4.527344 0
vt 0 0
vt 4.527344 1
vt 8.992188 0
vt 0 1
vt 8.992188 1
vt 0 0
vt 0 1
vt 8.992188 0
vt 0 0
vt 8.992188 1
vt 1 0
vt -0.8203125 1
vt 1 1
vt -0.8203125 0
vt 7.019531 0
vt 0 1
vt 7.019531 0.9985352
vt 0 0
vt 8 0
vt 0 1
vt 8 1
vt 0 0
vt 0 1
vt 7.007813 0
vt 0 0
vt 7.007813 1
vt 9.992188 0
vt 0 1
vt 9.992188 1
vt 0 0
vt 7.015625 0
vt 0 1
vt 7.015625 1
vt 0 0
vt 0 1
vt 7.015625 0
vt 0 0
vt 7.015625 1
vt 5.472656 0
vt 0 1
vt 5.472656 1
vt 0 0
vt 0 1
vt 6.046875 0
vt 0 0
vt 6.046875 1
vt 11.5 0
vt 0 1
vt 11.5 1
vt 0 0
vt 0 1
vt 4.964844 0
vt 0 0
vt 4.964844 1
vt 3.417969 0
vt 0 1
vt 3.417969 1
vt 0 0
vt 0 1
vt 3.417969 0
vt 0 0
vt 3.417969 1
vt 0 1
vt 8.007813 0
vt 0 0
vt 8.007813 1
vt 5.957031 0
vt 0 1
vt 5.957031 1
vt 0 0
vt 0 1
vt 5.957031 0
vt 0 0
vt 5.957031 1
vt 5.507813 0
vt 0 1
vt 5.507813 1
vt 0 0
vt 14 0
vt 0 1
vt 14 1
vt 0 0
vt 10.98438 0
vt 0 1
vt 10.98438 1
vt 0 0
vt 0 1
vt 10.98438 0
vt 0 0
vt 10.98438 1
vt 6.972656 0
vt 0 1
vt 6.972656 1
vt 0 0
vt 7 0
vt 0 1
vt 7 1
vt 0 0
vt 13.47656 0
vt 0 1
vt 13.47656 1
vt 0 0
vt 5.953125 0
vt 0 1
vt 5.953125 1
vt 0 0
vt 0 1
vt 10.01563 0
vt 0 0
vt 10.01563 1
vt 17 0
vt 0 1
vt 17 1
vt 0 0
vt 13.49219 0
vt 0 1
vt 13.49219 1
vt 0 0
vt 8.46875 0
vt 0 1
vt 8.46875 1
vt 0 0
vt 0 1
vt 8.46875 0
vt 0 0
vt 8.46875 1
vt 11.51563 0
vt 0 1
vt 11.51563 1
vt 0 0
vt 8.476563 0
vt 0 1
vt 8.476563 1
vt 0 0
vt 0 1
vt 4.960938 0
vt 0 0
vt 4.960938 1
vt 9.023438 0
vt 0 1
vt 9.023438 1
vt 0 0
vt 0 1
vt 9.023438 0
vt 0 0
vt 9.023438 1
vt 0 1
vt 6.535156 0
vt 0 0
vt 6.535156 1
vt 0 1
vt 5 0
vt 0 0
vt 5 1
vt 5.535156 0
vt 0 1
vt 5.535156 1
vt 0 0
vt 0 1
vt 5.535156 0
vt 0 0
vt 5.535156 1
vt 0 1
vt 6.515625 0
vt 0 0
vt 6.515625 1
vt 0 1
vt 4.0625 0
vt 0 0
vt 4.0625 0.9995117
vt 3.427734 0
vt 0 1
vt 3.427734 1
vt 0 0
vt 3.416016 0
vt 0 1
vt 3.416016 1
vt 0 0
vt 0 1
vt 3.416016 0
vt 0 0
vt 3.416016 1
vt 0 1
vt 4.433594 0
vt 0 0
vt 4.433594 1
vt 3.958984 0
vt 0 1
vt 3.958984 1
vt 0 0
vt 0 1
vt 2.945313 0
vt 0 0
vt 2.945313 1
vt 10.00781 0
vt 0 1
vt 10.00781 1
vt 0 0
vt 3.410156 0
vt 0 1
vt 3.410156 1
vt 0 0
vt 0 1
vt 2.929688 0
vt 0 0
vt 2.929688 1
vt 8.023438 0
vt 0 1
vt 8.023438 1
vt 0 0
vt 0 1
vt 8.023438 0
vt 0 0
vt 8.023438 1
vt 0 1
vt 9.976563 0
vt 0 0
vt 9.976563 1
vt 4.964844 0
vt 0 1
vt 4.964844 1
vt 0 0
vt 7.976563 0
vt 0 1
vt 7.976563 1
vt 0 0
vt 0 1
vt 2.597656 0
vt 0 0
vt 2.597656 1
vt 13.99219 0
vt 0 1
vt 13.99219 1
vt 0 0
vt 0 1
vt 13.99219 0
vt 0 0
vt 13.99219 1
vt 2.425781 0
vt 0 1
vt 2.425781 1
vt 0 0
vt 0 1
vt 2.425781 0
vt 0 0
vt 2.425781 1
vt 13.50781 0
vt 0 1
vt 13.50781 1
vt 0 0
vt 0 1
vt 13.50781 0
vt 0 0
vt 13.50781 1
vt 1.847656 0
vt 0 1
vt 1.847656 1
vt 0 0
vt 0 1
vt 6.546875 0
vt 0 0
vt 6.546875 1
vt 0 1
vt 11 0
vt 0 0
vt 11 1
vt 0 1
vt 4.558594 0
vt 0 0
vt 4.558594 1
vt 5.992188 0
vt 0 1
vt 5.992188 1
vt 0 0
vt 0 1
vt 5.992188 0
vt 0 0
vt 5.992188 1
vt 0 1
vt 9.476563 0
vt 0 0
vt 9.476563 1
vt 9.515625 0
vt 0 1
vt 9.515625 1
vt 0 0
vt 0 1
vt 9.515625 0
vt 0 0
vt 9.515625 1
vt 0 1
vt 8.984375 0
vt 0 0
vt 8.984375 1
vt 0 1
vt 12.99219 0
vt 0 0
vt 12.99219 1
vt 0 0
vt 1 1
vt 1 0
vt 0 1
vt 1 1
vt 0 0
vt 0 1
vt 1 0
vt 14.5 0
vt 0 1
vt 14.5 1
vt 0 0
vt 0 1
vt 8.015625 0
vt 0 0
vt 8.015625 0.9995117
vt 0 1
vt 12.04688 0
vt 0 0
vt 12.04688 1
vt -0.8203125 1
vt 1 0
vt -0.8203125 0
vt 1 1
vt 2.992188 0
vt 0 1
vt 2.992188 1
vt 0 0
vt 0 1
vt 2.992188 0
vt 0 0
vt 2.992188 1
vt 8.515625 0
vt 0 1
vt 8.515625 1
vt 0 0
vt 0 1
vt 8.515625 0
vt 0 0
vt 8.515625 1
vt 0 1
vt 7.019531 0
vt 0 0
vt 7.019531 1.000977
vt 0 1
vt 8 0
vt 0 0
vt 8 1
vt 8.523438 0
vt 0 1
vt 8.523438 1
vt 0 0
vt 0 1
vt 8.523438 0
vt 0 0
vt 8.523438 1
vt 7.007813 0
vt 0 1
vt 7.007813 1
vt 0 0
vt 9 0
vt 0 1
vt 9 1
vt 0 0
vt 0 1
vt 9 0
vt 0 0
vt 9 1
vt 0 1
vt 9.992188 0
vt 0 0
vt 9.992188 1
vt 0 1
vt 5.472656 0
vt 0 0
vt 5.472656 1
vt 6.046875 0
vt 0 1
vt 6.046875 1
vt 0 0
vt 5.515625 0
vt 0 1
vt 5.515625 1
vt 0 0
vt 0 1
vt 5.515625 0
vt 0 0
vt 5.515625 1
vt 0 1
vt 11.5 0
vt 0 0
vt 11.5 1
vt 9.007813 0
vt 0 1
vt 9.007813 1
vt 0 0
vt 0 1
vt 9.007813 0
vt 0 0
vt 9.007813 1
vt 4.964844 0
vt 0 1
vt 4.964844 1
vt 0 0
vt 8.007813 0
vt 0 1
vt 8.007813 1
vt 0 0
vt 0 1
vt 5.507813 0
vt 0 0
vt 5.507813 1
vt 0 1
vt 14 0
vt 0 0
vt 14 1
vt 10.51563 0
vt 0 1
vt 10.51563 1
vt 0 0
vt 0 1
vt 10.51563 0
vt 0 0
vt 10.51563 1
vt 0 1
vt 6.972656 0
vt 0 0
vt 6.972656 1
vt 8 0
vt 0 1
vt 8 1
vt 0 0
vt 0 1
vt 8 0
vt 0 0
vt 8 1
vt 0 1
vt 7 0
vt 0 0
vt 7 1
vt 8.976563 0
vt 0 1
vt 8.976563 1
vt 0 0
vt 0 1
vt 8.976563 0
vt 0 0
vt 8.976563 1
vt 6.460938 0
vt 0 1
vt 6.460938 1
vt 0 0
vt 0 1
vt 6.460938 0
vt 0 0
vt 6.460938 1
vt 10.50781 0
vt 0 1
vt 10.50781 1
vt 0 0
vt 0 1
vt 10.50781 0
vt 0 0
vt 10.50781 1
vt 0 1
vt 13.47656 0
vt 0 0
vt 13.47656 1
vt 6.496094 0
vt 0 1
vt 6.496094 1
vt 0 0
vt 0 1
vt 6.496094 0
vt 0 0
vt 6.496094 1
vt 9.492188 0
vt 0 1
vt 9.492188 1
vt 0 0
vt 0 1
vt 9.492188 0
vt 0 0
vt 9.492188 1
vt 0 1
vt 5.953125 0
vt 0 0
vt 5.953125 1
vt 10.01563 0
vt 0 1
vt 10.01563 1
vt 0 0
vt 6.523438 0
vt 0 1
vt 6.523438 1
vt 0 0
vt 0 1
vt 6.523438 0
vt 0 0
vt 6.523438 1
vt 0 1
vt 17 0
vt 0 0
vt 17 1
vt 0 1
vt 13.49219 0
vt 0 0
vt 13.49219 1
vt 15.99219 0
vt 0 1
vt 15.99219 1
vt 0 0
vt 0 1
vt 15.99219 0
vt 0 0
vt 15.99219 1
vt 0 1
vt 11.51563 0
vt 0 0
vt 11.51563 1
vt 0 1
vt 8.476563 0
vt 0 0
vt 8.476563 1
vt 4.960938 0
vt 0 1
vt 4.960938 1
vt 0 0
vt 6.535156 0
vt 0 1
vt 6.535156 1
vt 0 0
vt 5 0
vt 0 1
vt 5 1
vt 0 0
vt 6.515625 0
vt 0 1
vt 6.515625 1
vt 0 0
vt 4.066406 0
vt 0 1
vt 4.070313 1
vt 0 0
vt 0 1
vt 3.427734 0
vt 0 0
vt 3.427734 1
vt 4.433594 0
vt 0 1
vt 4.433594 1
vt 0 0
vt 0 1
vt 3.958984 0
vt 0 0
vt 3.958984 1
vt 2.945313 0
vt 0 1
vt 2.945313 1
vt 0 0
vt 0 1
vt 10.00781 0
vt 0 0
vt 10.00781 1
vt 0 1
vt 3.410156 0
vt 0 0
vt 3.410156 1
vt 3.4375 0
vt 0 1
vt 3.4375 1
vt 0 0
vt 0 1
vt 3.4375 0
vt 0 0
vt 3.4375 1
vt 2.929688 0
vt 0 1
vt 2.929688 1
vt 0 0
vt 4.042969 0
vt 0 1
vt 4.042969 1
vt 0 0
vt 0 1
vt 4.042969 0
vt 0 0
vt 4.042969 1
vn 0 1 0
vn 0 1 0
vn 0 1 0
vn 0 1 0
vn 0 1 0
vn 0 1 0
vn 0 1 0
vn 0 1 0
vn 0 1 0
vn 0 1 0
vn 0 1 0
vn 0 1 0
vn 0 1 0
vn 0 1 0
vn 0 1 0
vn 0 1 0
vn 0 1 0
vn 0 1 0
vn 0 1 0
vn 0 1 0
vn 0 1 0
vn 0 1 0
vn 0 1 0
vn 0 1 0
vn 0 1 0
vn 0 1 0
vn 0 1 0
vn 0 1 0
vn 0 1 0
vn 0 1 0
vn 0 1 0
vn 0 1 0
vn 0 1 0
vn 0 1 0
vn 0 1 0
vn 0 1 0
vn 0 1 0
vn 0 1 0
vn 0 1 0
vn 0 1 0
vn 0 1 0
vn 0 1 0
vn 0 1 0
vn 0 1 0
vn 0 1 0
vn 0 1 0
vn 0 1 0
vn 0 1 0
vn 0 1 0
vn 0 1 0
vn 0 1 0
vn 0 1 0
vn 0 1 0
vn 0 1 0
vn 0 1 0
vn 0 1 0
vn 0 1 0
vn 0 1 0
vn 0 1 0
vn 0 1 0
vn 0 1 0
vn 0 1 0
vn 0 1 0
vn 0 1 0
vn 0 1 0
vn 0 1 0
vn 0 1 0
vn 0 1 0
vn 0 1 0
vn 0 1 0
vn 0 1 0
vn 0 1 0
vn 0 1 0
vn 0 1 0
vn 0 1 0
vn 0 1 0
vn 0 1 0
vn 0 1 0
vn 0 1 0
vn 0 1 0
vn 0 1 0
vn 0 1 0
vn 0 1 0
vn 0 1 0
vn 0 1 0
vn 0 1 0
vn 0 1 0
vn 0 1 0
vn 0 1 0
vn 0 1 0
vn 0 1 0
vn 0 1 0
vn 0 1 0
vn 0 1 0
vn 0 1 0
vn 0 1 0
vn 0 1 0
vn 0 1 0
vn 0 1 0
vn 0 1 0
vn 0 1 0
vn 0 1 0
vn 0 1 0
vn 0 1 0
vn 0 1 0
vn 0 1 0
vn 0 1 0
vn 0 1 0
vn 0 1 0
vn 0 1 0
vn 0 1 0
vn 0 1 0
vn 0 1 0
vn 0 1 0
vn 0 1 0
vn 0 1 0
vn 0 1 0
vn 0 1 0
vn 0 1 0
vn 0 1 0
vn 0 1 0
vn 0 1 0
vn 0 1 0
vn 0 1 0
vn 0 1 0
vn 0 1 0
vn 0 1 0
vn 0 1 0
vn 0 1 0
vn 0 1 0
vn 0 1 0
vn 0 1 0
vn 0 1 0
vn 0 1 0
vn 0 1 0
vn 0 1 0
vn 0 1 0
vn 0 1 0
vn 0 1 0
vn 0 1 0
vn 0 1 0
vn 0 1 0
vn 0 1 0
vn 0 1 0
vn 0 1 0
vn 0 1 0
vn 0 1 0
vn 0 1 0
vn 0 1 0
vn 0 1 0
vn 0 1 0
vn 0 1 0
vn 0 1 0
vn 0 1 0
vn 0 1 0
vn 0 1 0
vn 0 1 0
vn 0 1 0
vn 0 1 0
vn 0 1 0
vn 0 1 0
vn 0 1 0
vn 0 1 0
vn 0 1 0
vn 0 1 0
vn 0 1 0
vn 0 1 0
vn 0 1 0
vn 0 1 0
vn 0 1 0
vn 0 1 0
vn 0 1 0
vn 0 1 0
vn 0 1 0
vn 0 1 0
vn 0 1 0
vn 0 1 0
vn 0 1 0
vn 0 1 0
vn 0 1 0
vn 0 1 0
vn 0 1 0
vn 0 1 0
vn 0 1 0
vn 0 1 0
vn 0 1 0
vn 0 1 0
vn 0 1 0
vn 0 1 0
vn 0 1 0
vn 0 1 0
vn 0 1 0
vn 0 1 0
vn 0 1 0
vn 0 1 0
vn 0 1 0
vn 0 1 0
vn 0 1 0
vn 0 1 0
vn 0 1 0
vn 0 1 0
vn 0 1 0
vn 0 1 0
vn 0 1 0
vn 0 1 0
vn 0 1 0
vn 0 1 0
vn 0 1 0
vn 0 1 0
vn 0 1 0
vn 0 1 0
vn 0 1 0
vn 0 1 0
vn 0 1 0
vn 0 1 0
vn 0 1 0
vn 0 1 0
vn 0 1 0
vn 0 1 0
vn 0 1 0
vn 0 1 0
vn 0 1 0
vn 0 1 0
vn 0 1 0
vn 0 1 0
vn 0 1 0
vn 0 1 0
vn 0 1 0
vn 0 1 0
vn 0 1 0
vn 0 1 0
vn 0 1 0
vn 0 1 0
vn 0 1 0
vn 0 1 0
vn 0 1 0
vn 0 1 0
vn 0 1 0
vn 0 1 0
vn 0 1 0
vn 0 1 0
vn 0 1 0
vn 0 1 0
vn 0 1 0
vn 0 1 0
vn 0 1 0
vn 0 1 0
vn 0 1 0
vn 0 1 0
vn 0 1 0
vn 0 1 0
vn 0 1 0
vn 0 1 0
vn 0 1 0
vn 0 1 0
vn 0 1 0
vn 0 1 0
vn 0 1 0
vn 0 1 0
vn 0 1 0
vn 0 1 0
vn 0 1 0
vn 0 1 0
vn 0 1 0
vn 0 1 0
vn 0 1 0
vn 0 1 0
vn 0 1 0
vn 0 1 0
vn 0 1 0
vn 0 1 0
vn 0 1 0
vn 0 1 0
vn 0 1 0
vn 0 1 0
vn 0 1 0
vn 0 1 0
vn 0 1 0
vn 0 1 0
vn 0 1 0
vn 0 1 0
vn 0 1 0
vn 0 1 0
vn 0 1 0
vn 0 1 0
vn 0 1 0
vn 0 1 0
vn 0 1 0
vn 0 1 0
vn 0 1 0
vn 0 1 0
vn 0 1 0
vn 0 1 0
vn 0 1 0
vn 0 1 0
vn 0 1 0
vn 0 1 0
vn 0 1 0
vn 0 1 0
vn 0 1 0
vn 0 1 0
vn 0 1 0
vn 0 1 0
vn 0 1 0
vn 0 1 0
vn 0 1 0
vn 0 1 0
vn 0 1 0
vn 0 1 0
vn 0 1 0
vn 0 1 0
vn 0 1 0
vn 0 1 0
vn 0 1 0
vn 0 1 0
vn 0 1 0
vn 0 1 0
vn 0 1 0
vn 0 1 0
vn 0 1 0
vn 0 1 0
vn 0 1 0
vn 0 1 0
vn 0 1 0
vn 0 1 0
vn 0 1 0
vn 0 1 0
vn 0 1 0
vn 0 1 0
vn 0 1 0
vn 0 1 0
vn 0 1 0
vn 0 1 0
vn 0 1 0
vn 0 1 0
vn 0 1 0
vn 0 1 0
vn 0 1 0
vn 0 1 0
vn 0 1 0
vn 0 1 0
vn 0 1 0
vn 0 1 0
vn 0 1 0
vn 0 1 0
vn 0 1 0
vn 0 1 0
vn 0 1 0
vn 0 1 0
vn 0 1 0
vn 0 1 0
vn 0 1 0
vn 0 1 0
vn 0 1 0
vn 0 1 0
vn 0 1 0
vn 0 1 0
vn 0 1 0
vn 0 1 0
vn 0 1 0
vn 0 1 0
vn 0 1 0
vn 0 1 0
vn 0 1 0
vn 0 1 0
vn 0 1 0
vn 0 1 0
vn 0 1 0
vn 0 1 0
vn 0 1 0
vn 0 1 0
vn 0 1 0
vn 0 1 0
vn 0 1 0
vn 0 1 0
vn 0 1 0
vn 0 1 0
vn 0 1 0
vn 0 1 0
vn 0 1 0
vn 0 1 0
vn 0 1 0
vn 0 1 0
vn 0 1 0
vn 0 1 0
vn 0 1 0
vn 0 1 0
vn 0 1 0
vn 0 1 0
vn 0 1 0
vn 0 1 0
vn 0 1 0
vn 0 1 0
vn 0 1 0
vn 0 1 0
vn 0 1 0
vn 0 1 0
vn 0 1 0
vn 0 1 0
vn 0 1 0
vn 0 1 0
vn 0 1 0
vn 0 1 0
vn 0 1 0
vn 0 1 0
vn 0 1 0
vn 0 1 0
vn 0 1 0
vn 0 1 0
vn 0 1 0
vn 0 1 0
vn 0 1 0
vn 0 1 0
vn 0 1 0
vn 0 1 0
vn 0 1 0
vn 0 1 0
vn 0 1 0
vn 0 1 0
vn 0 1 0
vn 0 1 0
vn 0 1 0
vn 0 1 0
vn 0 1 0
vn 0 1 0
vn 0 1 0
vn 0 1 0
vn 0 1 0
vn 0 1 0
vn 0 1 0
vn 0 1 0
vn 0 1 0
vn 0 1 0
vn 0 1 0
vn 0 1 0
vn 0 1 0
vn 0 1 0
vn 0 1 0
vn 0 1 0
vn 0 1 0
vn 0 1 0
vn 0 1 0
vn 0 1 0
vn 0 1 0
vn 0 1 0
vn 0 1 0
vn 0 1 0
vn 0 1 0
vn 0 1 0
vn 0 1 0
vn 0 1 0
vn 0 1 0
vn 0 1 0
vn 0 1 0
vn 0 1 0
vn 0 1 0
vn 0 1 0
vn 0 1 0
vn 0 1 0
vn 0 1 0
vn 0 1 0
vn 0 1 0
vn 0 1 0
vn 0 1 0
vn 0 1 0
vn 0 1 0
vn 0 1 0
vn 0 1 0
vn 0 1 0
vn 0 1 0
vn 0 1 0
vn 0 1 0
vn 0 1 0
vn 0 1 0
vn 0 1 0
vn 0 1 0
vn 0 1 0
vn 0 1 0
vn 0 1 0
vn 0 1 0
vn 0 1 0
vn 0 1 0
vn 0 1 0
vn 0 1 0
vn 0 1 0
vn 0 1 0
vn 0 1 0
vn 0 1 0
vn 0 1 0
vn 0 1 0
vn 0 1 0
vn 0 1 0
vn 0 1 0
vn 0 1 0
vn 0 1 0
vn 0 1 0
vn 0 1 0
vn 0 1 0
vn 0 1 0
vn 0 1 0
vn 0 1 0
vn 0 1 0
vn 0 1 0
vn 0 1 0
vn 0 1 0
vn 0 1 0
vn 0 1 0
vn 0 1 0
vn 0 1 0
vn 0 1 0
vn 0 1 0
vn 0 1 0
vn 0 1 0
vn 0 1 0
vn 0 1 0
vn 0 1 0
vn 0 1 0
vn 0 1 0
vn 0 1 0
vn 0 1 0
vn 0 1 0
vn 0 1 0
vn 0 1 0
vn 0 1 0
vn 0 1 0
vn 0 1 0
vn 0 1 0
vn 0 1 0
vn 0 1 0
vn 0 1 0
vn 0 1 0
vn 0 1 0
vn 0 1 0
vn 0 1 0
vn 0 1 0
vn 0 1 0
vn 0 1 0
vn 0 1 0
vn 0 1 0
vn 0 1 0
vn 0 1 0
vn 0 1 0
vn 0 1 0
vn 0 1 0
vn 0 1 0
vn 0 1 0
vn 0 1 0
vn 0 1 0
vn 0 1 0
vn 0 1 0
vn 0 1 0
vn 0 1 0
vn 0 1 0
vn 0 1 0
vn 0 1 0
vn 0 1 0
vn 0 1 0
vn 0 1 0
vn 0 1 0
vn 0 1 0
vn 0 1 0
vn 0 1 0
vn 0 1 0
vn 0 1 0
vn 0 1 0
vn 0 1 0
vn 0 1 0
vn 0 1 0
vn 0 1 0
vn 0 1 0
vn 0 1 0
vn 0 1 0
vn 0 1 0
vn 0 1 0
vn 0 1 0
vn 0 1 0
vn 0 1 0
vn 0 1 0
vn 0 1 0
vn 0 1 0
vn 0 1 0
vn 0 1 0
vn 0 1 0
vn 0 1 0
vn 0 1 0
vn 0 1 0
vn 0 1 0
vn 0 1 0
vn 0 1 0
vn 0 1 0
vn 0 1 0
vn 0 1 0
vn 0 1 0
vn 0 1 0
vn 0 1 0
vn 0 1 0
vn 0 1 0
vn 0 1 0
vn 0 1 0
vn 0 1 0
vn 0 1 0
vn 0 1 0
vn 0 1 0
vn 0 1 0
vn 0 1 0
vn 0 1 0
vn 0 1 0
vn 0 1 0
vn 0 1 0
vn 0 1 0
vn 0 1 0
vn 0 1 0
vn 0 1 0
vn 0 1 0
vn 0 1 0
vn 0 1 0
vn 0 1 0
vn 0 1 0
vn 0 1 0
vn 0 1 0
vn 0 1 0
vn 0 1 0
vn 0 1 0
vn 0 1 0
vn 0 1 0
vn 0 1 0
vn 0 1 0
vn 0 1 0
vn 0 1 0
vn 0 1 0
vn 0 1 0
vn 0 1 0
vn 0 1 0
vn 0 1 0
vn 0 1 0
vn 0 1 0
vn 0 1 0
vn 0 1 0
vn 0 1 0
vn 0 1 0
vn 0 1 0
vn 0 1 0
vn 0 1 0
vn 0 1 0
vn 0 1 0
vn 0 1 0
vn 0 1 0
vn 0 1 0
vn 0 1 0
vn 0 1 0
vn 0 1 0
vn 0 1 0
vn 0 1 0
vn 0 1 0
vn 0 1 0
vn 0 1 0
vn 0 1 0
vn 0 1 0
vn 0 1 0
vn 0 1 0
vn 0 1 0
vn 0 1 0
vn 0 1 0
vn 0 1 0
vn 0 1 0
vn 0 1 0
vn 0 1 0
vn 0 1 0
vn 0 1 0
vn 0 1 0
vn 0 1 0
vn 0 1 0
vn 0 1 0
vn 0 1 0
vn 0 1 0
vn 0 1 0
vn 0 1 0
vn 0 1 0
vn 0 1 0
vn 0 1 0
vn 0 1 0
vn 0 1 0
vn 0 1 0
vn 0 1 0
vn 0 1 0
vn 0 1 0
vn 0 1 0
vn 0 1 0
g polySurface1_0
f 3/3/3 2/2/2 1/1/1
f 2/2/2 4/4/4 1/1/1
f 7/7/7 6/6/6 5/5/5
f 6/6/6 8/8/8 5/5/5
f 11/11/11 10/10/10 9/9/9
f 10/10/10 12/12/12 9/9/9
f 15/15/15 14/14/14 13/13/13
f 14/14/14 16/16/16 13/13/13
f 19/19/19 18/18/18 17/17/17
f 18/18/18 20/20/20 17/17/17
f 23/23/23 22/22/22 21/21/21
f 22/22/22 24/24/24 21/21/21
f 27/27/27 26/26/26 25/25/25
f 26/26/26 28/28/28 25/25/25
f 31/31/31 30/30/30 29/29/29
f 30/30/30 32/32/32 29/29/29
f 35/35/35 34/34/34 33/33/33
f 34/34/34 36/36/36 33/33/33
f 39/39/39 38/38/38 37/37/37
f 38/38/38 40/40/40 37/37/37
f 43/43/43 42/42/42 41/41/41
f 42/42/42 44/44/44 41/41/41
f 47/47/47 46/46/46 45/45/45
f 46/46/46 48/48/48 45/45/45
f 51/51/51 50/50/50 49/49/49
f 50/50/50 52/52/52 49/49/49
f 55/55/55 54/54/54 53/53/53
f 54/54/54 56/56/56 53/53/53
f 59/59/59 58/58/58 57/57/57
f 58/58/58 60/60/60 57/57/57
f 63/63/63 62/62/62 61/61/61
f 62/62/62 64/64/64 61/61/61
f 67/67/67 66/66/66 65/65/65
f 66/66/66 68/68/68 65/65/65
f 71/71/71 70/70/70 69/69/69
f 70/70/70 72/72/72 69/69/69
f 75/75/75 74/74/74 73/73/73
f 74/74/74 76/76/76 73/73/73
f 79/79/79 78/78/78 77/77/77
f 78/78/78 80/80/80 77/77/77
f 83/83/83 82/82/82 81/81/81
f 82/82/82 84/84/84 81/81/81
f 87/87/87 86/86/86 85/85/85
f 86/86/86 88/88/88 85/85/85
f 91/91/91 90/90/90 89/89/89
f 90/90/90 92/92/92 89/89/89
f 95/95/95 94/94/94 93/93/93
f 94/94/94 96/96/96 93/93/93
f 99/99/99 98/98/98 97/97/97
f 98/98/98 100/100/100 97/97/97
f 103/103/103 102/102/102 101/101/101
f 102/102/102 104/104/104 101/101/101
f 107/107/107 106/106/106 105/105/105
f 106/106/106 108/108/108 105/105/105
f 111/111/111 110/110/110 109/109/109
f 110/110/110 112/112/112 109/109/109
f 115/115/115 114/114/114 113/113/113
f 114/114/114 116/116/116 113/113/113
f 119/119/119 118/118/118 117/117/117
f 118/118/118 120/120/120 117/117/117
f 123/123/123 122/122/122 121/121/121
f 122/122/122 124/124/124 121/121/121
f 127/127/127 126/126/126 125/125/125
f 126/126/126 128/128/128 125/125/125
f 131/131/131 130/130/130 129/129/129
f 130/130/130 132/132/132 129/129/129
f 135/135/135 134/134/134 133/133/133
f 134/134/134 136/136/136 133/133/133
f 139/139/139 138/138/138 137/137/137
f 138/138/138 140/140/140 137/137/137
f 143/143/143 142/142/142 141/141/141
f 142/142/142 144/144/144 141/141/141
f 147/147/147 146/146/146 145/145/145
f 146/146/146 148/148/148 145/145/145
f 151/151/151 150/150/150 149/149/149
f 150/150/150 152/152/152 149/149/149
f 155/155/155 154/154/154 153/153/153
f 154/154/154 156/156/156 153/153/153
f 159/159/159 158/158/158 157/157/157
f 158/158/158 160/160/160 157/157/157
f 163/163/163 162/162/162 161/161/161
f 162/162/162 164/164/164 161/161/161
f 167/167/167 166/166/166 165/165/165
f 166/166/166 168/168/168 165/165/165
f 171/171/171 170/170/170 169/169/169
f 170/170/170 172/172/172 169/169/169
f 175/175/175 174/174/174 173/173/173
f 174/174/174 176/176/176 173/173/173
f 179/179/179 178/178/178 177/177/177
f 178/178/178 180/180/180 177/177/177
f 183/183/183 182/182/182 181/181/181
f 182/182/182 184/184/184 181/181/181
f 187/187/187 186/186/186 185/185/185
f 186/186/186 188/188/188 185/185/185
f 191/191/191 190/190/190 189/189/189
f 190/190/190 192/192/192 189/189/189
f 195/195/195 194/194/194 193/193/193
f 194/194/194 196/196/196 193/193/193
f 199/199/199 198/198/198 197/197/197
f 198/198/198 200/200/200 197/197/197
f 203/203/203 202/202/202 201/201/201
f 202/202/202 204/204/204 201/201/201
f 207/207/207 206/206/206 205/205/205
f 206/206/206 208/208/208 205/205/205
f 211/211/211 210/210/210 209/209/209
f 210/210/210 212/212/212 209/209/209
f 215/215/215 214/214/214 213/213/213
f 214/214/214 216/216/216 213/213/213
f 219/219/219 218/218/218 217/217/217
f 218/218/218 220/220/220 217/217/217
f 223/223/223 222/222/222 221/221/221
f 222/222/222 224/224/224 221/221/221
f 227/227/227 226/226/226 225/225/225
f 226/226/226 228/228/228 225/225/225
f 231/231/231 230/230/230 229/229/229
f 230/230/230 232/232/232 229/229/229
f 235/235/235 234/234/234 233/233/233
f 234/234/234 236/236/236 233/233/233
f 239/239/239 238/238/238 237/237/237
f 238/238/238 240/240/240 237/237/237
f 243/243/243 242/242/242 241/241/241
f 242/242/242 244/244/244 241/241/241
f 247/247/247 246/246/246 245/245/245
f 246/246/246 248/248/248 245/245/245
f 251/251/251 250/250/250 249/249/249
f 250/250/250 252/252/252 249/249/249
f 255/255/255 254/254/254 253/253/253
f 254/254/254 256/256/256 253/253/253
f 259/259/259 258/258/258 257/257/257
f 258/258/258 260/260/260 257/257/257
f 263/263/263 262/262/262 261/261/261
f 262/262/262 264/264/264 261/261/261
f 267/267/267 266/266/266 265/265/265
f 266/266/266 268/268/268 265/265/265
f 271/271/271 270/270/270 269/269/269
f 270/270/270 272/272/272 269/269/269
f 275/275/275 274/274/274 273/273/273
f 274/274/274 276/276/276 273/273/273
f 279/279/279 278/278/278 277/277/277
f 278/278/278 280/280/280 277/277/277
f 283/283/283 282/282/282 281/281/281
f 282/282/282 284/284/284 281/281/281
f 287/287/287 286/286/286 285/285/285
f 286/286/286 288/288/288 285/285/285
f 291/291/291 290/290/290 289/289/289
f 290/290/290 292/292/292 289/289/289
f 295/295/295 294/294/294 293/293/293
f 294/294/294 296/296/296 293/293/293
f 299/299/299 298/298/298 297/297/297
f 298/298/298 300/300/300 297/297/297
f 303/303/303 302/302/302 301/301/301
f 302/302/302 304/304/304 301/301/301
f 307/307/307 306/306/306 305/305/305
f 306/306/306 308/308/308 305/305/305
f 311/311/311 310/310/310 309/309/309
f 310/310/310 312/312/312 309/309/309
f 315/315/315 314/314/314 313/313/313
f 314/314/314 316/316/316 313/313/313
f 319/319/319 318/318/318 317/317/317
f 318/318/318 320/320/320 317/317/317
f 323/323/323 322/322/322 321/321/321
f 322/322/322 324/324/324 321/321/321
f 327/327/327 326/326/326 325/325/325
f 326/326/326 328/328/328 325/325/325
f 331/331/331 330/330/330 329/329/329
f 330/330/330 332/332/332 329/329/329
f 335/335/335 334/334/334 333/333/333
f 334/334/334 336/336/336 333/333/333
f 339/339/339 338/338/338 337/337/337
f 338/338/338 340/340/340 337/337/337
f 343/343/343 342/342/342 341/341/341
f 342/342/342 344/344/344 341/341/341
f 347/347/347 346/346/346 345/345/345
f 346/346/346 348/348/348 345/345/345
f 351/351/351 350/350/350 349/349/349
f 350/350/350 352/352/352 349/349/349
f 355/355/355 354/354/354 353/353/353
f 354/354/354 356/356/356 353/353/353
f 359/359/359 358/358/358 357/357/357
f 358/358/358 360/360/360 357/357/357
f 363/363/363 362/362/362 361/361/361
f 362/362/362 364/364/364 361/361/361
f 367/367/367 366/366/366 365/365/365
f 366/366/366 368/368/368 365/365/365
f 371/371/371 370/370/370 369/369/369
f 370/370/370 372/372/372 369/369/369
f 375/375/375 374/374/374 373/373/373
f 374/374/374 376/376/376 373/373/373
f 379/379/379 378/378/378 377/377/377
f 378/378/378 380/380/380 377/377/377
f 383/383/383 382/382/382 381/381/381
f 382/382/382 384/384/384 381/381/381
f 387/387/387 386/386/386 385/385/385
f 386/386/386 388/388/388 385/385/385
f 391/391/391 390/390/390 389/389/389
f 390/390/390 392/392/392 389/389/389
f 395/395/395 394/394/394 393/393/393
f 394/394/394 396/396/396 393/393/393
f 399/399/399 398/398/398 397/397/397
f 398/398/398 400/400/400 397/397/397
f 403/403/403 402/402/402 401/401/401
f 402/402/402 404/404/404 401/401/401
f 407/407/407 406/406/406 405/405/405
f 406/406/406 408/408/408 405/405/405
f 411/411/411 410/410/410 409/409/409
f 410/410/410 412/412/412 409/409/409
f 415/415/415 414/414/414 413/413/413
f 414/414/414 416/416/416 413/413/413
f 419/419/419 418/418/418 417/417/417
f 418/418/418 420/420/420 417/417/417
f 423/423/423 422/422/422 421/421/421
f 422/422/422 424/424/424 421/421/421
f 427/427/427 426/426/426 425/425/425
f 426/426/426 428/428/428 425/425/425
f 431/431/431 430/430/430 429/429/429
f 430/430/430 432/432/432 429/429/429
f 435/435/435 434/434/434 433/433/433
f 434/434/434 436/436/436 433/433/433
f 439/439/439 438/438/438 437/437/437
f 438/438/438 440/440/440 437/437/437
f 443/443/443 442/442/442 441/441/441
f 442/442/442 444/444/444 441/441/441
f 447/447/447 446/446/446 445/445/445
f 446/446/446 448/448/448 445/445/445
f 451/451/451 450/450/450 449/449/449
f 450/450/450 452/452/452 449/449/449
f 455/455/455 454/454/454 453/453/453
f 454/454/454 456/456/456 453/453/453
f 459/459/459 458/458/458 457/457/457
f 458/458/458 460/460/460 457/457/457
f 463/463/463 462/462/462 461/461/461
f 462/462/462 464/464/464 461/461/461
f 467/467/467 466/466/466 465/465/465
f 466/466/466 468/468/468 465/465/465
f 471/471/471 470/470/470 469/469/469
f 470/470/470 472/472/472 469/469/469
f 475/475/475 474/474/474 473/473/473
f 474/474/474 476/476/476 473/473/473
f 479/479/479 478/478/478 477/477/477
f 478/478/478 480/480/480 477/477/477
f 483/483/483 482/482/482 481/481/481
f 482/482/482 484/484/484 481/481/481
f 487/487/487 486/486/486 485/485/485
f 486/486/486 488/488/488 485/485/485
f 491/491/491 490/490/490 489/489/489
f 490/490/490 492/492/492 489/489/489
f 495/495/495 494/494/494 493/493/493
f 494/494/494 496/496/496 493/493/493
f 499/499/499 498/498/498 497/497/497
f 498/498/498 500/500/500 497/497/497
f 503/503/503 502/502/502 501/501/501
f 502/502/502 504/504/504 501/501/501
f 507/507/507 506/506/506 505/505/505
f 506/506/506 508/508/508 505/505/505
f 511/511/511 510/510/510 509/509/509
f 510/510/510 512/512/512 509/509/509
f 515/515/515 514/514/514 513/513/513
f 514/514/514 516/516/516 513/513/513
f 519/519/519 518/518/518 517/517/517
f 518/518/518 520/520/520 517/517/517
f 523/523/523 522/522/522 521/521/521
f 522/522/522 524/524/524 521/521/521
f 527/527/527 526/526/526 525/525/525
f 526/526/526 528/528/528 525/525/525
f 531/531/531 530/530/530 529/529/529
f 530/530/530 532/532/532 529/529/529
f 535/535/535 534/534/534 533/533/533
f 534/534/534 536/536/536 533/533/533
f 539/539/539 538/538/538 537/537/537
f 538/538/538 540/540/540 537/537/537
f 543/543/543 542/542/542 541/541/541
f 542/542/542 544/544/544 541/541/541
f 547/547/547 546/546/546 545/545/545
f 546/546/546 548/548/548 545/545/545
f 551/551/551 550/550/550 549/549/549
f 550/550/550 552/552/552 549/549/549
f 555/555/555 554/554/554 553/553/553
f 554/554/554 556/556/556 553/553/553
f 559/559/559 558/558/558 557/557/557
f 558/558/558 560/560/560 557/557/557
f 563/563/563 562/562/562 561/561/561
f 562/562/562 564/564/564 561/561/561
f 567/567/567 566/566/566 565/565/565
f 566/566/566 568/568/568 565/565/565
f 571/571/571 570/570/570 569/569/569
f 570/570/570 572/572/572 569/569/569
f 575/575/575 574/574/574 573/573/573
f 574/574/574 576/576/576 573/573/573
f 579/579/579 578/578/578 577/577/577
f 578/578/578 580/580/580 577/577/577
f 583/583/583 582/582/582 581/581/581
f 582/582/582 584/584/584 581/581/581
f 587/587/587 586/586/586 585/585/585
f 586/586/586 588/588/588 585/585/585
f 591/591/591 590/590/590 589/589/589
f 590/590/590 592/592/592 589/589/589
f 595/595/595 594/594/594 593/593/593
f 594/594/594 596/596/596 593/593/593
f 599/599/599 598/598/598 597/597/597
f 598/598/598 600/600/600 597/597/597
f 603/603/603 602/602/602 601/601/601
f 602/602/602 604/604/604 601/601/601
f 607/607/607 606/606/606 605/605/605
f 606/606/606 608/608/608 605/605/605
f 611/611/611 610/610/610 609/609/609
f 610/610/610 612/612/612 609/609/609
f 615/615/615 614/614/614 613/613/613
f 614/614/614 616/616/616 613/613/613
f 619/619/619 618/618/618 617/617/617
f 618/618/618 620/620/620 617/617/617
f 623/623/623 622/622/622 621/621/621
f 622/622/622 624/624/624 621/621/621
f 627/627/627 626/626/626 625/625/625
f 626/626/626 628/628/628 625/625/625
f 631/631/631 630/630/630 629/629/629
f 630/630/630 632/632/632 629/629/629
f 635/635/635 634/634/634 633/633/633
f 634/634/634 636/636/636 633/633/633
f 639/639/639 638/638/638 637/637/637
f 638/638/638 640/640/640 637/637/637
f 643/643/643 642/642/642 641/641/641
f 642/642/642 644/644/644 641/641/641
f 647/647/647 646/646/646 645/645/645
f 646/646/646 648/648/648 645/645/645
f 651/651/651 650/650/650 649/649/649
f 650/650/650 652/652/652 649/649/649
f 655/655/655 654/654/654 653/653/653
f 654/654/654 656/656/656 653/653/653
f 659/659/659 658/658/658 657/657/657
f 658/658/658 660/660/660 657/657/657
f 663/663/663 662/662/662 661/661/661
f 662/662/662 664/664/664 661/661/661
f 667/667/667 666/666/666 665/665/665
f 666/666/666 668/668/668 665/665/665
f 671/671/671 670/670/670 669/669/669
f 670/670/670 672/672/672 669/669/669
f 675/675/675 674/674/674 673/673/673
f 674/674/674 676/676/676 673/673/673
f 679/679/679 678/678/678 677/677/677
f 678/678/678 680/680/680 677/677/677
f 683/683/683 682/682/682 681/681/681
f 682/682/682 684/684/684 681/681/681
f 687/687/687 686/686/686 685/685/685
f 686/686/686 688/688/688 685/685/685
