g TY_qianDiaoLuo_mx
v -0.3139076 -0.1544749 0.03137146
v 0.3139076 0.1544749 0.03137146
v 0.3139076 -0.1544749 0.03137146
v -0.3139076 0.1544749 0.03137146
v -0.3139076 0.1544749 0.03137146
v 0.3139076 0.1544749 -0.03137146
v 0.3139076 0.1544749 0.03137146
v -0.3139076 0.1544749 -0.03137146
v -0.3139076 0.1544749 -0.03137146
v 0.3139076 -0.1544749 -0.03137146
v 0.3139076 0.1544749 -0.03137146
v -0.3139076 -0.1544749 -0.03137146
v -0.3139076 -0.1544749 -0.03137146
v 0.3139076 -0.1544749 0.03137146
v 0.3139076 -0.1544749 -0.03137146
v -0.3139076 -0.1544749 0.03137146
v 0.3139076 -0.1544749 0.03137146
v 0.3139076 0.1544749 -0.03137146
v 0.3139076 -0.1544749 -0.03137146
v 0.3139076 0.1544749 0.03137146
v -0.3139076 -0.1544749 -0.03137146
v -0.3139076 0.1544749 0.03137146
v -0.3139076 -0.1544749 0.03137146
v -0.3139076 0.1544749 -0.03137146
vt 0.005523825 0.2598683
vt 0.8646663 0.9872495
vt 0.8646663 0.2598683
vt 0.005523825 0.9872495
vt 0.005115178 0.02165604
vt 0.8659836 0.2411498
vt 0.8659836 0.02165604
vt 0.005115178 0.2411498
vt 0.005523825 0.9872495
vt 0.8646663 0.2598683
vt 0.8646663 0.9872495
vt 0.005523825 0.2598683
vt 0.005115178 0.2411498
vt 0.8659836 0.0216561
vt 0.8659836 0.2411498
vt 0.005115178 0.0216561
vt 0.8963516 0.02477789
vt 0.9891978 0.9740165
vt 0.9891978 0.02477789
vt 0.8963516 0.9740165
vt 0.9891978 0.02477789
vt 0.8963517 0.9740165
vt 0.8963517 0.02477789
vt 0.9891978 0.9740165
vn 0 0 1
vn 0 0 1
vn 0 0 1
vn 0 0 1
vn 0 1 0
vn 0 1 0
vn 0 1 0
vn 0 1 0
vn 0 0 -1
vn 0 0 -1
vn 0 0 -1
vn 0 0 -1
vn 0 -1 0
vn 0 -1 0
vn 0 -1 0
vn 0 -1 0
vn 1 0 0
vn 1 0 0
vn 1 0 0
vn 1 0 0
vn -1 0 0
vn -1 0 0
vn -1 0 0
vn -1 0 0
g TY_qianDiaoLuo_mx_0
f 3/3/3 2/2/2 1/1/1
f 2/2/2 4/4/4 1/1/1
f 7/7/7 6/6/6 5/5/5
f 6/6/6 8/8/8 5/5/5
f 11/11/11 10/10/10 9/9/9
f 10/10/10 12/12/12 9/9/9
f 15/15/15 14/14/14 13/13/13
f 14/14/14 16/16/16 13/13/13
f 19/19/19 18/18/18 17/17/17
f 18/18/18 20/20/20 17/17/17
f 23/23/23 22/22/22 21/21/21
f 22/22/22 24/24/24 21/21/21
