g XD_A_WQ
v -0.5120328 0.1654235 0.9624653
v -0.5012167 0.140981 0.988785
v -0.4971209 0.1708096 0.9829495
v -0.5115851 0.1372359 0.9745419
v -0.5376164 0.1626646 0.9654373
v -0.529375 0.1353175 0.9766085
v -0.548288 0.165292 0.9888933
v -0.5367951 0.1371443 0.9929181
v -0.46105 -0.1602674 1.039849
v -0.4724143 -0.1643722 1.024239
v -0.4919101 -0.1664745 1.026504
v -0.500043 -0.1644723 1.044379
v -0.4724143 -0.1643722 1.024239
v -0.4114583 -0.3750587 1.074236
v -0.46105 -0.1602674 1.039849
v -0.4355789 -0.383771 1.041104
v -0.4919101 -0.1664745 1.026504
v -0.4769606 -0.3882334 1.045911
v -0.500043 -0.1644723 1.044379
v -0.4942217 -0.3839836 1.083851
v -0.3519731 -0.7998615 1.14597
v -0.3791319 -0.8096712 1.108663
v -0.3629429 -0.8333308 1.153132
v -0.3813389 -0.8399754 1.127863
v -0.4257254 -0.8146957 1.114076
v -0.4128993 -0.8433787 1.131529
v -0.4451616 -0.8099105 1.156795
v -0.4260647 -0.8401375 1.160465
v -0.4971209 0.1708096 0.9829495
v -0.5376164 0.1626646 0.9654373
v -0.5120328 0.1654235 0.9624653
v -0.548288 0.165292 0.9888933
v -0.5333763 0.1706781 1.009377
v -0.5077927 0.173437 1.006405
v -0.3813389 -0.8399754 1.127863
v -0.4260647 -0.8401375 1.160465
v -0.3629429 -0.8333308 1.153132
v -0.4128993 -0.8433787 1.131529
v -0.3761081 -0.8300896 1.182068
v -0.4076685 -0.8334929 1.185735
v -0.5077927 0.173437 1.006405
v -0.5012167 0.140981 0.988785
v -0.5086368 0.1428079 1.005094
v -0.4971209 0.1708096 0.9829495
v -0.5333763 0.1706781 1.009377
v -0.5264267 0.1408895 1.007161
v -0.548288 0.165292 0.9888933
v -0.5367951 0.1371443 0.9929181
v -0.46105 -0.1602674 1.039849
v -0.4691831 -0.1582654 1.057724
v -0.4886788 -0.1603677 1.059989
v -0.500043 -0.1644723 1.044379
v -0.4691831 -0.1582654 1.057724
v -0.4114583 -0.3750587 1.074236
v -0.4287205 -0.370809 1.112176
v -0.46105 -0.1602674 1.039849
v -0.4886788 -0.1603677 1.059989
v -0.4701022 -0.3752715 1.116983
v -0.500043 -0.1644723 1.044379
v -0.4942217 -0.3839836 1.083851
v -0.3519731 -0.7998615 1.14597
v -0.3714095 -0.7950764 1.188689
v -0.3629429 -0.8333308 1.153132
v -0.3761081 -0.8300896 1.182068
v -0.418003 -0.8001009 1.194102
v -0.4076685 -0.8334929 1.185735
v -0.4451616 -0.8099105 1.156795
v -0.4260647 -0.8401375 1.160465
vt 0.8455643 0.1810092
vt 0.9025769 0.2271479
vt 0.9421352 0.1875542
vt 0.8311124 0.2253877
vt 0.7483323 0.1803673
vt 0.7591435 0.2254218
vt 0.6486924 0.1862999
vt 0.6876519 0.2272407
vt 0.9139695 0.6686947
vt 0.8357349 0.6688523
vt 0.7577868 0.6688666
vt 0.6798332 0.6687695
vt 0.4108302 0.02728125
vt 0.6146893 0.3249885
vt 0.4843919 0.02448773
vt 0.457686 0.3280097
vt 0.3368473 0.02747703
vt 0.3007112 0.3284441
vt 0.2634699 0.02509946
vt 0.1448853 0.3261521
vt 0.6496134 0.9186957
vt 0.4771951 0.9124493
vt 0.5834036 0.9654471
vt 0.4597539 0.957992
vt 0.3046088 0.9128248
vt 0.3246734 0.9591674
vt 0.1307407 0.9200085
vt 0.1993809 0.968412
vt 0.855099 0.846234
vt 0.6784039 0.8251668
vt 0.7499849 0.8542017
vt 0.7119371 0.7881642
vt 0.8170496 0.7801967
vt 0.8886304 0.8092315
vt 0.7061828 0.6918432
vt 0.764908 0.767332
vt 0.8263407 0.6795446
vt 0.675467 0.7357361
vt 0.915782 0.7111405
vt 0.885066 0.7550334
vt 0.8455643 0.1810092
vt 0.9025769 0.2271479
vt 0.8311124 0.2253877
vt 0.9421352 0.1875542
vt 0.7483323 0.1803673
vt 0.7591435 0.2254218
vt 0.6486924 0.1862999
vt 0.6876519 0.2272407
vt 0.9139695 0.6686947
vt 0.8357349 0.6688523
vt 0.7577868 0.6688666
vt 0.6798332 0.6687695
vt 0.4108302 0.02728125
vt 0.6146893 0.3249885
vt 0.457686 0.3280097
vt 0.4843919 0.02448773
vt 0.3368473 0.02747703
vt 0.3007112 0.3284441
vt 0.2634699 0.02509946
vt 0.1448853 0.3261521
vt 0.6496134 0.9186957
vt 0.4771951 0.9124493
vt 0.5834036 0.9654471
vt 0.4597539 0.957992
vt 0.3046088 0.9128248
vt 0.3246734 0.9591674
vt 0.1307407 0.9200085
vt 0.1993809 0.968412
vn 0.2999271 0.3861657 -0.8723071
vn 0.9945062 -0.06256196 -0.08392458
vn 0.8030926 0.5675061 -0.1816019
vn 0.427271 -0.2673305 -0.8636978
vn -0.5639189 0.2926426 -0.7722408
vn -0.5458271 -0.3722762 -0.7506552
vn -0.9243222 0.381097 0.01983688
vn -0.951758 -0.2724622 0.1411425
vn 0.9824517 0.1423124 -0.120565
vn 0.4070778 -0.06523927 -0.9110606
vn -0.5797666 -0.1720229 -0.7964162
vn -0.9916033 -0.07058354 0.1083553
vn 0.4070778 -0.06523927 -0.9110606
vn 0.9818074 0.1460886 -0.1212955
vn 0.9824517 0.1423124 -0.120565
vn 0.4065653 -0.06178573 -0.9115302
vn -0.5797666 -0.1720229 -0.7964162
vn -0.5800435 -0.1681783 -0.7970355
vn -0.9916033 -0.07058354 0.1083553
vn -0.9919511 -0.06676594 0.1075886
vn 0.9892335 0.09308638 -0.1129245
vn 0.413461 -0.1151893 -0.9032062
vn 0.86127 -0.5080653 0.009154331
vn 0.4031879 -0.6728699 -0.6202304
vn -0.5738495 -0.2220614 -0.78828
vn -0.3823093 -0.7577506 -0.5288229
vn -0.9857301 -0.1205459 0.1174941
vn -0.7102307 -0.6774274 0.19148
vn 0.8030926 0.5675061 -0.1816019
vn -0.5639189 0.2926426 -0.7722408
vn 0.2999271 0.3861657 -0.8723071
vn -0.9243222 0.381097 0.01983688
vn -0.4207853 0.5632725 0.7111005
vn 0.4430123 0.6565052 0.6105251
vn 0.4031879 -0.6728699 -0.6202304
vn -0.7102307 -0.6774274 0.19148
vn 0.86127 -0.5080653 0.009154331
vn -0.3823093 -0.7577506 -0.5288229
vn 0.5335578 -0.4271514 0.7299711
vn -0.2524643 -0.5125559 0.8206998
vn 0.4430123 0.6565052 0.6105251
vn 0.9945062 -0.06256196 -0.08392458
vn 0.5881667 0.0374756 0.807871
vn 0.8030926 0.5675061 -0.1816019
vn -0.4207853 0.5632725 0.7111005
vn -0.384442 -0.06750619 0.9206777
vn -0.9243222 0.381097 0.01983688
vn -0.951758 -0.2724622 0.1411425
vn 0.9824517 0.1423124 -0.120565
vn 0.5706419 0.2435527 0.7842512
vn -0.4162238 0.1373424 0.8988298
vn -0.9916033 -0.07058354 0.1083553
vn 0.5706419 0.2435527 0.7842512
vn 0.9818074 0.1460886 -0.1212955
vn 0.5701647 0.2475163 0.7833568
vn 0.9824517 0.1423124 -0.120565
vn -0.4162238 0.1373424 0.8988298
vn -0.4166034 0.1411568 0.8980626
vn -0.9916033 -0.07058354 0.1083553
vn -0.9919511 -0.06676594 0.1075886
vn 0.9892335 0.09308638 -0.1129245
vn 0.5773473 0.1937202 0.7931852
vn 0.86127 -0.5080653 0.009154331
vn 0.5335578 -0.4271514 0.7299711
vn -0.4100781 0.0869747 0.9078939
vn -0.2524643 -0.5125559 0.8206998
vn -0.9857301 -0.1205459 0.1174941
vn -0.7102307 -0.6774274 0.19148
g XD_A_WQ_0
f 3/3/3 2/2/2 1/1/1
f 2/2/2 4/4/4 1/1/1
f 1/1/1 4/4/4 5/5/5
f 4/4/4 6/6/6 5/5/5
f 5/5/5 6/6/6 7/7/7
f 6/6/6 8/8/8 7/7/7
f 2/2/2 9/9/9 4/4/4
f 9/9/9 10/10/10 4/4/4
f 4/4/4 10/10/10 6/6/6
f 10/10/10 11/11/11 6/6/6
f 6/6/6 11/11/11 8/8/8
f 11/11/11 12/12/12 8/8/8
f 15/15/15 14/14/14 13/13/13
f 14/14/14 16/16/16 13/13/13
f 13/13/13 16/16/16 17/17/17
f 16/16/16 18/18/18 17/17/17
f 17/17/17 18/18/18 19/19/19
f 18/18/18 20/20/20 19/19/19
f 14/14/14 21/21/21 16/16/16
f 21/21/21 22/22/22 16/16/16
f 16/16/16 22/22/22 18/18/18
f 21/21/21 23/23/23 22/22/22
f 23/23/23 24/24/24 22/22/22
f 22/22/22 24/24/24 25/25/25
f 18/18/18 25/25/25 20/20/20
f 22/22/22 25/25/25 18/18/18
f 24/24/24 26/26/26 25/25/25
f 25/25/25 26/26/26 27/27/27
f 25/25/25 27/27/27 20/20/20
f 26/26/26 28/28/28 27/27/27
f 31/31/31 30/30/30 29/29/29
f 30/30/30 32/32/32 29/29/29
f 29/29/29 32/32/32 33/33/33
f 34/34/34 29/29/29 33/33/33
f 37/37/37 36/36/36 35/35/35
f 36/36/36 38/38/38 35/35/35
f 36/36/36 37/37/37 39/39/39
f 40/40/40 36/36/36 39/39/39
f 43/43/43 42/42/42 41/41/41
f 42/42/42 44/44/44 41/41/41
f 43/43/43 41/41/41 45/45/45
f 46/46/46 43/43/43 45/45/45
f 46/46/46 45/45/45 47/47/47
f 48/48/48 46/46/46 47/47/47
f 49/49/49 42/42/42 43/43/43
f 50/50/50 49/49/49 43/43/43
f 50/50/50 43/43/43 46/46/46
f 51/51/51 50/50/50 46/46/46
f 51/51/51 46/46/46 48/48/48
f 52/52/52 51/51/51 48/48/48
f 55/55/55 54/54/54 53/53/53
f 54/54/54 56/56/56 53/53/53
f 55/55/55 53/53/53 57/57/57
f 58/58/58 55/55/55 57/57/57
f 58/58/58 57/57/57 59/59/59
f 60/60/60 58/58/58 59/59/59
f 61/61/61 54/54/54 55/55/55
f 62/62/62 61/61/61 55/55/55
f 62/62/62 55/55/55 58/58/58
f 63/63/63 61/61/61 62/62/62
f 64/64/64 63/63/63 62/62/62
f 64/64/64 62/62/62 65/65/65
f 65/65/65 58/58/58 60/60/60
f 65/65/65 62/62/62 58/58/58
f 66/66/66 64/64/64 65/65/65
f 66/66/66 65/65/65 67/67/67
f 67/67/67 65/65/65 60/60/60
f 68/68/68 66/66/66 67/67/67
