g XuanJueSe_diMian02
v 12.37003 56.45387 -0.03672373
v 13.07264 47.21258 -0.03672373
v 12.37003 47.21258 -0.03672373
v 13.07264 56.45387 -0.03672373
v -1.726473 44.59151 -0.409512
v -1.726474 34.47652 -0.03672373
v -1.726474 44.59151 -0.03672373
v -1.726473 34.47652 -0.409512
v 35.2032 16.0801 -0.05386148
v 21.79839 15.49631 -0.05386148
v 21.79839 16.08012 -0.05386148
v 35.2032 15.49631 -0.05386148
v -2.40332 44.59151 -0.2021028
v -13.46216 34.47652 -0.2021028
v -13.46216 44.59151 -0.2021028
v -2.40332 34.47652 -0.2021028
v 35.2032 16.0801 -0.05386148
v 21.79839 16.08011 -0.4095119
v 35.2032 16.08011 -0.409512
v 21.79839 16.08012 -0.05386148
v 21.79839 15.49631 -0.2021028
v 13.07264 4.249756 -0.2021028
v 13.07264 15.49631 -0.2021028
v 21.79839 4.249756 -0.2021028
v 12.37003 16.0801 -0.05386148
v 12.37003 4.249746 -0.409512
v 12.37003 16.08011 -0.409512
v 12.37003 4.249746 -0.05386148
v 21.79839 16.08012 -0.05386148
v 12.37003 16.08011 -0.409512
v 21.79839 16.08011 -0.4095119
v 12.37003 16.0801 -0.05386148
v 21.79839 16.08012 -0.05386148
v 13.07264 15.49631 -0.05386148
v 12.37003 16.0801 -0.05386148
v 21.79839 15.49631 -0.05386148
v 12.37003 4.249746 -0.05386148
v 13.07264 15.49631 -0.05386148
v 13.07264 4.249756 -0.05386148
v 12.37003 16.0801 -0.05386148
v 21.79839 4.249756 -0.2021028
v 35.2032 15.49631 -0.2021028
v 35.2032 4.167675 -0.2021028
v 21.79839 15.49631 -0.2021028
v 35.2032 15.49631 -0.05386148
v 21.79839 15.49631 -0.2021028
v 21.79839 15.49631 -0.05386148
v 35.2032 15.49631 -0.2021028
v 21.79839 15.49631 -0.05386148
v 13.07264 15.49631 -0.2021028
v 13.07264 15.49631 -0.05386148
v 21.79839 15.49631 -0.2021028
v 13.07264 15.49631 -0.05386148
v 13.07264 4.249756 -0.2021028
v 13.07264 4.249756 -0.05386148
v 13.07264 15.49631 -0.2021028
v 13.07264 47.21258 -0.03672373
v 13.07264 56.45387 -0.2021028
v 13.07264 47.21258 -0.2021028
v 13.07264 56.45387 -0.03672373
v 22.89773 28.26319 -0.03672373
v 35.2032 28.26319 -0.4095119
v 22.89773 28.26319 -0.4095119
v 35.2032 28.26319 -0.03672373
v 22.89773 56.45387 -0.2021028
v 22.89773 74.93647 -0.2021028
v 35.2032 74.93647 -0.2021028
v 22.89773 47.21258 -0.2021028
v 35.2032 28.96338 -0.2021028
v 22.89773 37.97129 -0.2021028
v 22.89773 28.96338 -0.2021028
v -1.726474 44.59151 -0.03672373
v -2.40332 34.47652 -0.03672373
v -2.40332 44.59151 -0.03672373
v -1.726474 34.47652 -0.03672373
v -2.40332 44.59151 -0.03672373
v -2.40332 34.47652 -0.2021028
v -2.40332 44.59151 -0.2021028
v -2.40332 34.47652 -0.03672373
v -1.726473 74.93648 -0.409512
v -1.726474 54.7065 -0.03672373
v -1.726474 74.93647 -0.03672373
v -1.726473 54.7065 -0.409512
v -1.726473 54.7065 -0.409512
v -1.726474 44.59151 -0.03672373
v -1.726474 54.7065 -0.03672373
v -1.726473 44.59151 -0.409512
v -1.726474 4.131553 -0.03672373
v -1.726473 14.24654 -0.409512
v -1.726473 4.131553 -0.409512
v -1.726474 14.24654 -0.03672373
v -1.726474 14.24654 -0.03672373
v -1.726473 24.36153 -0.409512
v -1.726473 14.24654 -0.409512
v -1.726474 24.36153 -0.03672373
v -1.726474 24.36153 -0.03672373
v -1.726473 34.47652 -0.409512
v -1.726473 24.36153 -0.409512
v -1.726474 34.47652 -0.03672373
v -2.40332 74.93647 -0.2021028
v -13.46216 54.7065 -0.2021028
v -13.46216 74.93647 -0.2021028
v -2.40332 54.7065 -0.2021028
v -2.40332 54.7065 -0.2021028
v -13.46216 44.59151 -0.2021028
v -13.46216 54.7065 -0.2021028
v -2.40332 44.59151 -0.2021028
v -13.46216 4.131562 -0.2021028
v -2.403321 14.24655 -0.2021028
v -2.403321 4.131562 -0.2021028
v -13.46216 14.24655 -0.2021028
v -13.46216 24.36154 -0.2021028
v -2.403321 14.24655 -0.2021028
v -13.46216 14.24655 -0.2021028
v -2.403321 24.36154 -0.2021028
v -13.46216 24.36154 -0.2021028
v -2.40332 34.47652 -0.2021028
v -2.403321 24.36154 -0.2021028
v -13.46216 34.47652 -0.2021028
v -1.726474 54.7065 -0.03672373
v -2.403319 74.93647 -0.03672373
v -1.726474 74.93647 -0.03672373
v -2.40332 54.7065 -0.03672373
v -1.726474 54.7065 -0.03672373
v -2.40332 44.59151 -0.03672373
v -2.40332 54.7065 -0.03672373
v -1.726474 44.59151 -0.03672373
v -2.403321 4.131562 -0.03672373
v -1.726474 14.24654 -0.03672373
v -1.726474 4.131553 -0.03672373
v -2.403321 14.24655 -0.03672373
v -2.403321 14.24655 -0.03672373
v -1.726474 24.36153 -0.03672373
v -1.726474 14.24654 -0.03672373
v -2.40332 24.36154 -0.03672373
v -2.40332 24.36154 -0.03672373
v -1.726474 34.47652 -0.03672373
v -1.726474 24.36153 -0.03672373
v -2.40332 34.47652 -0.03672373
v -2.403319 74.93647 -0.03672373
v -2.40332 54.7065 -0.2021028
v -2.40332 74.93647 -0.2021028
v -2.40332 54.7065 -0.03672373
v -2.40332 54.7065 -0.03672373
v -2.40332 44.59151 -0.2021028
v -2.40332 54.7065 -0.2021028
v -2.40332 44.59151 -0.03672373
v -2.403321 4.131562 -0.2021028
v -2.403321 14.24655 -0.03672373
v -2.403321 4.131562 -0.03672373
v -2.403321 14.24655 -0.2021028
v -2.403321 14.24655 -0.2021028
v -2.40332 24.36154 -0.03672373
v -2.403321 14.24655 -0.03672373
v -2.403321 24.36154 -0.2021028
v -2.403321 24.36154 -0.2021028
v -2.40332 34.47652 -0.03672373
v -2.40332 24.36154 -0.03672373
v -2.40332 34.47652 -0.2021028
v 22.89773 28.26319 -0.03672373
v 13.07264 28.96338 -0.03672373
v 22.89773 28.96338 -0.03672373
v 12.37003 28.26319 -0.03672373
v 22.89773 28.96338 -0.03672373
v 13.07264 28.96338 -0.2021028
v 22.89773 28.96338 -0.2021028
v 13.07264 28.96338 -0.03672373
v 12.37003 56.45387 -0.03672373
v 12.37003 47.21258 -0.409512
v 12.37003 56.45387 -0.409512
v 12.37003 47.21258 -0.03672373
v 12.37003 28.26319 -0.03672373
v 22.89773 28.26319 -0.4095119
v 12.37003 28.26319 -0.409512
v 22.89773 28.26319 -0.03672373
v 13.07264 47.21258 -0.2021028
v 22.89773 56.45387 -0.2021028
v 22.89773 47.21258 -0.2021028
v 13.07264 56.45387 -0.2021028
v 35.2032 28.26319 -0.03672373
v 22.89773 28.96338 -0.03672373
v 35.2032 28.96338 -0.03672373
v 22.89773 28.26319 -0.03672373
v 35.2032 28.96338 -0.03672373
v 22.89773 28.96338 -0.2021028
v 35.2032 28.96338 -0.2021028
v 22.89773 28.96338 -0.03672373
v 12.37003 37.97129 -0.03672373
v 13.07264 28.96338 -0.03672373
v 12.37003 28.26319 -0.03672373
v 13.07264 37.97129 -0.03672373
v 12.37003 47.21258 -0.03672373
v 13.07264 37.97129 -0.03672373
v 12.37003 37.97129 -0.03672373
v 13.07264 47.21258 -0.03672373
v 13.07264 56.45387 -0.03672373
v 12.37003 74.93647 -0.03672373
v 13.07264 74.93648 -0.03672373
v 12.37003 56.45387 -0.03672373
v 13.07264 28.96338 -0.03672373
v 13.07264 37.97129 -0.2021028
v 13.07264 28.96338 -0.2021028
v 13.07264 37.97129 -0.03672373
v 13.07264 37.97129 -0.03672373
v 13.07264 47.21258 -0.2021028
v 13.07264 37.97129 -0.2021028
v 13.07264 47.21258 -0.03672373
v 13.07264 74.93647 -0.2021028
v 13.07264 56.45387 -0.03672373
v 13.07264 74.93648 -0.03672373
v 13.07264 56.45387 -0.2021028
v 12.37003 74.93647 -0.03672373
v 12.37003 56.45387 -0.409512
v 12.37003 74.93648 -0.409512
v 12.37003 56.45387 -0.03672373
v 12.37003 28.26319 -0.409512
v 12.37003 37.97129 -0.03672373
v 12.37003 28.26319 -0.03672373
v 12.37003 37.97129 -0.409512
v 12.37003 37.97129 -0.409512
v 12.37003 47.21258 -0.03672373
v 12.37003 37.97129 -0.03672373
v 12.37003 47.21258 -0.409512
v 13.07264 28.96338 -0.2021028
v 22.89773 37.97129 -0.2021028
v 22.89773 28.96338 -0.2021028
v 13.07264 37.97129 -0.2021028
v 13.07264 37.97129 -0.2021028
v 22.89773 47.21258 -0.2021028
v 22.89773 37.97129 -0.2021028
v 13.07264 47.21258 -0.2021028
v 22.89773 74.93647 -0.2021028
v 13.07264 56.45387 -0.2021028
v 13.07264 74.93647 -0.2021028
v 22.89773 56.45387 -0.2021028
vt 0.7514379 0.2326877
vt 0.9983295 0.2492514
vt 0.9983295 0.2326877
vt 0.7514379 0.2492514
vt 0.7514379 0.2326877
vt 0.9983295 0.2286247
vt 0.7514379 0.2286247
vt 0.9983295 0.2326877
vt 0.7514379 0.2326877
vt 0.9983295 0.2492514
vt 0.9983295 0.2326877
vt 0.7514379 0.2492514
vt 0.7529492 0.2267755
vt 0.9985815 0.001816591
vt 0.7529492 0.001816591
vt 0.9985815 0.2267755
vt 0.7514379 0.2326877
vt 0.9983295 0.2286247
vt 0.7514379 0.2286247
vt 0.9983295 0.2326877
vt 0.9985815 0.001816591
vt 0.7529492 0.2267755
vt 0.9985815 0.2267755
vt 0.7529492 0.001816591
vt 0.7514379 0.2326877
vt 0.9983295 0.2286247
vt 0.7514379 0.2286247
vt 0.9983295 0.2326877
vt 0.7514379 0.2326877
vt 0.9983295 0.2286247
vt 0.7514379 0.2286247
vt 0.9983295 0.2326877
vt 0.7514379 0.2326877
vt 0.9983295 0.2492514
vt 0.9983295 0.2326877
vt 0.7514379 0.2492514
vt 0.9983295 0.2326877
vt 0.7514379 0.2492514
vt 0.9983295 0.2492514
vt 0.7514379 0.2326877
vt 0.9985815 0.001816591
vt 0.7529492 0.2267755
vt 0.9985815 0.2267755
vt 0.7529492 0.001816591
vt 0.7514379 0.2286247
vt 0.9983295 0.2326877
vt 0.9983295 0.2286247
vt 0.7514379 0.2326877
vt 0.7514379 0.2286247
vt 0.9983295 0.2326877
vt 0.9983295 0.2286247
vt 0.7514379 0.2326877
vt 0.7514379 0.2286247
vt 0.9983295 0.2326877
vt 0.9983295 0.2286247
vt 0.7514379 0.2326877
vt 0.9983295 0.2286247
vt 0.7514379 0.2326877
vt 0.9983295 0.2326877
vt 0.7514379 0.2286247
vt 0.7514379 0.2326877
vt 0.9983295 0.2286247
vt 0.7514379 0.2286247
vt 0.9983295 0.2326877
vt 0.8517256 0.001816591
vt 0.7529492 0.001816591
vt 0.7529492 0.2267755
vt 0.9011694 0.001816591
vt 0.9985815 0.2267755
vt 0.9506131 0.001816591
vt 0.9985815 0.001816591
vt 0.7514379 0.2492514
vt 0.9983295 0.2326877
vt 0.7514379 0.2326877
vt 0.9983295 0.2492514
vt 0.7514379 0.2326877
vt 0.9983295 0.2286247
vt 0.7514379 0.2286247
vt 0.9983295 0.2326877
vt 0.7514379 0.2326877
vt 0.9983295 0.2286247
vt 0.7514379 0.2286247
vt 0.9983295 0.2326877
vt 0.7514379 0.2326877
vt 0.9983295 0.2286247
vt 0.7514379 0.2286247
vt 0.9983295 0.2326877
vt 0.9983295 0.2286247
vt 0.7514379 0.2326877
vt 0.9983295 0.2326877
vt 0.7514379 0.2286247
vt 0.9983295 0.2286247
vt 0.7514379 0.2326877
vt 0.9983295 0.2326877
vt 0.7514379 0.2286247
vt 0.9983295 0.2286247
vt 0.7514379 0.2326877
vt 0.9983295 0.2326877
vt 0.7514379 0.2286247
vt 0.7529492 0.2267755
vt 0.9985815 0.001816591
vt 0.7529492 0.001816591
vt 0.9985815 0.2267755
vt 0.7529492 0.2267755
vt 0.9985815 0.001816591
vt 0.7529492 0.001816591
vt 0.9985815 0.2267755
vt 0.9985815 0.001816591
vt 0.7529492 0.2267755
vt 0.9985815 0.2267755
vt 0.7529492 0.001816591
vt 0.7529492 0.001816591
vt 0.9985815 0.2267755
vt 0.9985815 0.001816591
vt 0.7529492 0.2267755
vt 0.9985815 0.001816591
vt 0.7529492 0.2267755
vt 0.9985815 0.2267755
vt 0.7529492 0.001816591
vt 0.9983295 0.2492514
vt 0.7514379 0.2326877
vt 0.7514379 0.2492514
vt 0.9983295 0.2326877
vt 0.7514379 0.2492514
vt 0.9983295 0.2326877
vt 0.7514379 0.2326877
vt 0.9983295 0.2492514
vt 0.9983295 0.2326877
vt 0.7514379 0.2492514
vt 0.9983295 0.2492514
vt 0.7514379 0.2326877
vt 0.9983295 0.2326877
vt 0.7514379 0.2492514
vt 0.9983295 0.2492514
vt 0.7514379 0.2326877
vt 0.9983295 0.2326877
vt 0.7514379 0.2492514
vt 0.9983295 0.2492514
vt 0.7514379 0.2326877
vt 0.7514379 0.2326877
vt 0.9983295 0.2286247
vt 0.7514379 0.2286247
vt 0.9983295 0.2326877
vt 0.7514379 0.2326877
vt 0.9983295 0.2286247
vt 0.7514379 0.2286247
vt 0.9983295 0.2326877
vt 0.9983295 0.2286247
vt 0.7514379 0.2326877
vt 0.9983295 0.2326877
vt 0.7514379 0.2286247
vt 0.9983295 0.2286247
vt 0.7514379 0.2326877
vt 0.9983295 0.2326877
vt 0.7514379 0.2286247
vt 0.9983295 0.2286247
vt 0.7514379 0.2326877
vt 0.9983295 0.2326877
vt 0.7514379 0.2286247
vt 0.9983295 0.2326877
vt 0.7514379 0.2492514
vt 0.9983295 0.2492514
vt 0.7514379 0.2326877
vt 0.9983295 0.2286247
vt 0.7514379 0.2326877
vt 0.9983295 0.2326877
vt 0.7514379 0.2286247
vt 0.7514379 0.2326877
vt 0.9983295 0.2286247
vt 0.7514379 0.2286247
vt 0.9983295 0.2326877
vt 0.7514379 0.2326877
vt 0.9983295 0.2286247
vt 0.7514379 0.2286247
vt 0.9983295 0.2326877
vt 0.7529492 0.2267755
vt 0.9985815 0.001816591
vt 0.7529492 0.001816591
vt 0.9985815 0.2267755
vt 0.9983295 0.2326877
vt 0.7514379 0.2492514
vt 0.9983295 0.2492514
vt 0.7514379 0.2326877
vt 0.9983295 0.2286247
vt 0.7514379 0.2326877
vt 0.9983295 0.2326877
vt 0.7514379 0.2286247
vt 0.7514379 0.2326877
vt 0.9983295 0.2492514
vt 0.9983295 0.2326877
vt 0.7514379 0.2492514
vt 0.7514379 0.2326877
vt 0.9983295 0.2492514
vt 0.9983295 0.2326877
vt 0.7514379 0.2492514
vt 0.9983295 0.2492514
vt 0.7514379 0.2326877
vt 0.7514379 0.2492514
vt 0.9983295 0.2326877
vt 0.9983295 0.2286247
vt 0.7514379 0.2326877
vt 0.9983295 0.2326877
vt 0.7514379 0.2286247
vt 0.9983295 0.2286247
vt 0.7514379 0.2326877
vt 0.9983295 0.2326877
vt 0.7514379 0.2286247
vt 0.7514379 0.2326877
vt 0.9983295 0.2286247
vt 0.7514379 0.2286247
vt 0.9983295 0.2326877
vt 0.7514379 0.2326877
vt 0.9983295 0.2286247
vt 0.7514379 0.2286247
vt 0.9983295 0.2326877
vt 0.9983295 0.2286247
vt 0.7514379 0.2326877
vt 0.9983295 0.2326877
vt 0.7514379 0.2286247
vt 0.9983295 0.2286247
vt 0.7514379 0.2326877
vt 0.9983295 0.2326877
vt 0.7514379 0.2286247
vt 0.7529492 0.2267755
vt 0.9985815 0.001816591
vt 0.7529492 0.001816591
vt 0.9985815 0.2267755
vt 0.7529492 0.2267755
vt 0.9985815 0.001816591
vt 0.7529492 0.001816591
vt 0.9985815 0.2267755
vt 0.9985815 0.001816591
vt 0.7529492 0.2267755
vt 0.9985815 0.2267755
vt 0.7529492 0.001816591
vn 0 0 1
vn 0 0 1
vn 0 0 1
vn 0 0 1
vn 1 0 1.227946E-06
vn 1 0 1.227946E-06
vn 1 0 1.227946E-06
vn 1 0 1.227946E-06
vn 0 0 1
vn 0 0 1
vn 0 0 1
vn 0 0 1
vn 0 0 1
vn 0 0 1
vn 0 0 1
vn 0 0 1
vn 0 1 1.372925E-05
vn 0 1 1.372925E-05
vn 0 1 1.372925E-05
vn 1.457033E-06 1 -4.118774E-05
vn 0 0 1
vn 0 0 1
vn 0 0 1
vn 0 0 1
vn -1 0 0
vn -1 0 0
vn -1 0 0
vn -1 0 0
vn 0 1 -4.118774E-05
vn 0 1 -4.118774E-05
vn 0 1 -4.118773E-05
vn -2.071543E-06 1 1.372925E-05
vn 0 0 1
vn 0 0 1
vn 0 0 1
vn 0 0 1
vn 0 0 1
vn 0 0 1
vn 0 0 1
vn 0 0 1
vn 0 0 1
vn 0 0 1
vn 0 0 1
vn 0 0 1
vn 0 -1 0
vn 0 -1 0
vn 0 -1 0
vn 0 -1 0
vn 0 -1 0
vn 0 -1 0
vn 0 -1 0
vn 0 -1 0
vn 1 0 0
vn 1 0 0
vn 1 0 0
vn 1 0 0
vn 1 0 0
vn 1 0 0
vn 1 0 0
vn 1 0 0
vn 0 -1 0
vn 0 -1 0
vn 0 -1 0
vn 0 -1 0
vn 0 0 1
vn 0 0 1
vn 0 0 1
vn 0 0 1
vn 0 0 1
vn 0 0 1
vn 0 0 1
vn 0 0 1
vn 0 0 1
vn 0 0 1
vn 0 0 1
vn -1 0 1.845311E-06
vn -1 0 1.845311E-06
vn -1 0 1.845311E-06
vn -1 0 1.845311E-06
vn 1 0 1.637261E-06
vn 1 0 1.637261E-06
vn 1 0 1.637261E-06
vn 1 0 1.227946E-06
vn 1 0 1.227946E-06
vn 1 0 1.227946E-06
vn 1 0 1.227946E-06
vn 1 0 1.227946E-06
vn 1 0 8.186303E-07
vn 1 0 8.186304E-07
vn 1 0 8.186304E-07
vn 1 0 8.186304E-07
vn 1 0 8.186303E-07
vn 1 0 8.186304E-07
vn 1 0 8.186304E-07
vn 1 0 1.227946E-06
vn 1 0 1.227946E-06
vn 1 0 1.227946E-06
vn 1 0 1.227946E-06
vn 1 0 1.227946E-06
vn 0 0 1
vn 0 0 1
vn 0 0 1
vn 0 0 1
vn 0 0 1
vn 0 0 1
vn 0 0 1
vn 0 0 1
vn 0 0 1
vn 0 0 1
vn 0 0 1
vn 0 0 1
vn 0 0 1
vn 0 0 1
vn 0 0 1
vn 0 0 1
vn 0 0 1
vn 0 0 1
vn 0 0 1
vn 0 0 1
vn 0 0 1
vn 0 0 1
vn 0 0 1
vn 0 0 1
vn 0 0 1
vn 0 0 1
vn 0 0 1
vn 0 0 1
vn 0 0 1
vn 0 0 1
vn 0 0 1
vn 0 0 1
vn 0 0 1
vn 0 0 1
vn 0 0 1
vn 0 0 1
vn 0 0 1
vn 0 0 1
vn 0 0 1
vn 0 0 1
vn -1 0 3.690621E-06
vn -1 0 3.690621E-06
vn -1 0 3.690621E-06
vn -1 0 0
vn -1 0 0
vn -1 0 0
vn -1 0 0
vn -1 0 1.845311E-06
vn -1 0 0
vn -1 0 0
vn -1 0 0
vn -1 0 1.845311E-06
vn -1 0 1.845311E-06
vn -1 0 1.845311E-06
vn -1 0 1.845311E-06
vn -1 0 3.690621E-06
vn -1 0 3.690621E-06
vn -1 0 3.690621E-06
vn -1 0 3.690621E-06
vn -1 0 1.845311E-06
vn 0 0 1
vn 0 0 1
vn 0 0 1
vn 0 0 1
vn 0 1 0
vn 0 1 0
vn 0 1 0
vn 0 1 0
vn -1 0 0
vn -1 0 0
vn -1 0 0
vn -1 0 0
vn 0 -1 0
vn 0 -1 0
vn 0 -1 0
vn 0 -1 0
vn 0 0 1
vn 0 0 1
vn 0 0 1
vn 0 0 1
vn 0 0 1
vn 0 0 1
vn 0 0 1
vn 0 0 1
vn 0 1 0
vn 0 1 0
vn 0 1 0
vn 0 1 0
vn 0 0 1
vn 0 0 1
vn 0 0 1
vn 0 0 1
vn 0 0 1
vn 0 0 1
vn 0 0 1
vn 0 0 1
vn 0 0 1
vn 0 0 1
vn 0 0 1
vn 0 0 1
vn 1 0 0
vn 1 0 0
vn 1 0 0
vn 1 0 0
vn 1 0 0
vn 1 0 0
vn 1 0 0
vn 1 0 0
vn 1 0 0
vn 1 0 0
vn 1 0 0
vn 1 0 0
vn -1 0 0
vn -1 0 0
vn -1 0 0
vn -1 0 0
vn -1 0 0
vn -1 0 0
vn -1 0 0
vn -1 0 0
vn -1 0 0
vn -1 0 0
vn -1 0 0
vn -1 0 0
vn 0 0 1
vn 0 0 1
vn 0 0 1
vn 0 0 1
vn 0 0 1
vn 0 0 1
vn 0 0 1
vn 0 0 1
vn 0 0 1
vn 0 0 1
vn 0 0 1
vn 0 0 1
g XuanJueSe_diMian02_0
f 3/3/3 2/2/2 1/1/1
f 4/4/4 1/1/1 2/2/2
f 7/7/7 6/6/6 5/5/5
f 8/8/8 5/5/5 6/6/6
f 11/11/11 10/10/10 9/9/9
f 12/12/12 9/9/9 10/10/10
f 15/15/15 14/14/14 13/13/13
f 16/16/16 13/13/13 14/14/14
f 19/19/19 18/18/18 17/17/17
f 20/20/20 17/17/17 18/18/18
f 23/23/23 22/22/22 21/21/21
f 24/24/24 21/21/21 22/22/22
f 27/27/27 26/26/26 25/25/25
f 28/28/28 25/25/25 26/26/26
f 31/31/31 30/30/30 29/29/29
f 32/32/32 29/29/29 30/30/30
f 35/35/35 34/34/34 33/33/33
f 36/36/36 33/33/33 34/34/34
f 39/39/39 38/38/38 37/37/37
f 40/40/40 37/37/37 38/38/38
f 43/43/43 42/42/42 41/41/41
f 44/44/44 41/41/41 42/42/42
f 47/47/47 46/46/46 45/45/45
f 48/48/48 45/45/45 46/46/46
f 51/51/51 50/50/50 49/49/49
f 52/52/52 49/49/49 50/50/50
f 55/55/55 54/54/54 53/53/53
f 56/56/56 53/53/53 54/54/54
f 59/59/59 58/58/58 57/57/57
f 60/60/60 57/57/57 58/58/58
f 63/63/63 62/62/62 61/61/61
f 64/64/64 61/61/61 62/62/62
f 67/67/67 66/66/66 65/65/65
f 68/68/68 67/67/67 65/65/65
f 69/69/69 67/67/67 68/68/68
f 70/70/70 69/69/69 68/68/68
f 71/71/71 69/69/69 70/70/70
f 74/74/74 73/73/73 72/72/72
f 75/75/75 72/72/72 73/73/73
f 78/78/78 77/77/77 76/76/76
f 79/79/79 76/76/76 77/77/77
f 82/82/82 81/81/81 80/80/80
f 83/83/83 80/80/80 81/81/81
f 86/86/86 85/85/85 84/84/84
f 87/87/87 84/84/84 85/85/85
f 90/90/90 89/89/89 88/88/88
f 91/91/91 88/88/88 89/89/89
f 94/94/94 93/93/93 92/92/92
f 95/95/95 92/92/92 93/93/93
f 98/98/98 97/97/97 96/96/96
f 99/99/99 96/96/96 97/97/97
f 102/102/102 101/101/101 100/100/100
f 103/103/103 100/100/100 101/101/101
f 106/106/106 105/105/105 104/104/104
f 107/107/107 104/104/104 105/105/105
f 110/110/110 109/109/109 108/108/108
f 111/111/111 108/108/108 109/109/109
f 114/114/114 113/113/113 112/112/112
f 115/115/115 112/112/112 113/113/113
f 118/118/118 117/117/117 116/116/116
f 119/119/119 116/116/116 117/117/117
f 122/122/122 121/121/121 120/120/120
f 123/123/123 120/120/120 121/121/121
f 126/126/126 125/125/125 124/124/124
f 127/127/127 124/124/124 125/125/125
f 130/130/130 129/129/129 128/128/128
f 131/131/131 128/128/128 129/129/129
f 134/134/134 133/133/133 132/132/132
f 135/135/135 132/132/132 133/133/133
f 138/138/138 137/137/137 136/136/136
f 139/139/139 136/136/136 137/137/137
f 142/142/142 141/141/141 140/140/140
f 143/143/143 140/140/140 141/141/141
f 146/146/146 145/145/145 144/144/144
f 147/147/147 144/144/144 145/145/145
f 150/150/150 149/149/149 148/148/148
f 151/151/151 148/148/148 149/149/149
f 154/154/154 153/153/153 152/152/152
f 155/155/155 152/152/152 153/153/153
f 158/158/158 157/157/157 156/156/156
f 159/159/159 156/156/156 157/157/157
f 162/162/162 161/161/161 160/160/160
f 163/163/163 160/160/160 161/161/161
f 166/166/166 165/165/165 164/164/164
f 167/167/167 164/164/164 165/165/165
f 170/170/170 169/169/169 168/168/168
f 171/171/171 168/168/168 169/169/169
f 174/174/174 173/173/173 172/172/172
f 175/175/175 172/172/172 173/173/173
f 178/178/178 177/177/177 176/176/176
f 179/179/179 176/176/176 177/177/177
f 182/182/182 181/181/181 180/180/180
f 183/183/183 180/180/180 181/181/181
f 186/186/186 185/185/185 184/184/184
f 187/187/187 184/184/184 185/185/185
f 190/190/190 189/189/189 188/188/188
f 191/191/191 188/188/188 189/189/189
f 194/194/194 193/193/193 192/192/192
f 195/195/195 192/192/192 193/193/193
f 198/198/198 197/197/197 196/196/196
f 199/199/199 196/196/196 197/197/197
f 202/202/202 201/201/201 200/200/200
f 203/203/203 200/200/200 201/201/201
f 206/206/206 205/205/205 204/204/204
f 207/207/207 204/204/204 205/205/205
f 210/210/210 209/209/209 208/208/208
f 211/211/211 208/208/208 209/209/209
f 214/214/214 213/213/213 212/212/212
f 215/215/215 212/212/212 213/213/213
f 218/218/218 217/217/217 216/216/216
f 219/219/219 216/216/216 217/217/217
f 222/222/222 221/221/221 220/220/220
f 223/223/223 220/220/220 221/221/221
f 226/226/226 225/225/225 224/224/224
f 227/227/227 224/224/224 225/225/225
f 230/230/230 229/229/229 228/228/228
f 231/231/231 228/228/228 229/229/229
f 234/234/234 233/233/233 232/232/232
f 235/235/235 232/232/232 233/233/233
