g XuanJueSe_dianHua
v 0.3061493 0.2034664 2.66414
v -0.3061423 0.2034664 1.178688
v 0.3061493 0.2034664 1.178688
v -0.3061423 0.2034664 2.66414
v 0.3306716 -0.09645039 -3.486872E-06
v -0.3306674 0.286621 -3.486872E-06
v -0.3306674 -0.09645039 -3.486872E-06
v 0.3306716 0.286621 -3.486872E-06
v 0.3061493 -0.2866309 2.66414
v 0.3061493 0.2034664 1.178688
v 0.3061493 -0.2866309 1.178688
v 0.3061493 0.2034664 2.66414
v -0.3061423 -0.2866309 2.66414
v 0.3061493 0.2034664 2.66414
v 0.3061493 -0.2866309 2.66414
v -0.3061423 0.2034664 2.66414
v -0.3061423 -0.2866309 1.178688
v -0.3061423 0.2034664 2.66414
v -0.3061423 -0.2866309 2.66414
v -0.3061423 0.2034664 1.178688
v -0.2574405 -0.2866309 1.225705
v -0.3061423 -0.2866309 1.178688
v -0.3061423 -0.2866309 2.66414
v 0.3061493 -0.2866309 1.178688
v 0.2574446 -0.2866309 1.225705
v 0.3061493 -0.2866309 2.66414
v -0.2574405 -0.2866309 2.326597
v 0.2574446 -0.2866309 2.326597
v 0.1486823 -0.09719297 2.00257
v -0.1486753 -0.09719297 1.325259
v -0.1486753 -0.09719297 2.00257
v 0.1486823 -0.09719297 1.325259
v 0.2574446 -0.2866309 2.326597
v 0.2574446 0.1388047 1.225705
v 0.2574446 0.1388047 2.326597
v 0.2574446 -0.2866309 1.225705
v 0.2574446 -0.2866309 1.225705
v -0.2574405 0.1388047 1.225705
v 0.2574446 0.1388047 1.225705
v -0.2574405 -0.2866309 1.225705
v -0.2574405 -0.2866309 1.225705
v -0.2574405 0.1388047 2.326597
v -0.2574405 0.1388047 1.225705
v -0.2574405 -0.2866309 2.326597
v -0.2574405 -0.2866309 2.326597
v 0.2574446 0.1388047 2.326597
v -0.2574405 0.1388047 2.326597
v 0.2574446 -0.2866309 2.326597
v -0.1486753 0.1388047 1.325259
v -0.2574405 0.1388047 2.326597
v -0.1486753 0.1388047 2.00257
v -0.2574405 0.1388047 1.225705
v 0.1486823 0.1388047 1.325259
v 0.2574446 0.1388047 1.225705
v 0.1486823 0.1388047 2.00257
v 0.2574446 0.1388047 2.326597
v -0.1486753 -0.09719297 1.325259
v -0.1486753 0.1388047 2.00257
v -0.1486753 -0.09719297 2.00257
v -0.1486753 0.1388047 1.325259
v 0.1486823 -0.09719297 1.325259
v -0.1486753 0.1388047 1.325259
v -0.1486753 -0.09719297 1.325259
v 0.1486823 0.1388047 1.325259
v 0.1486823 -0.09719297 2.00257
v 0.1486823 0.1388047 1.325259
v 0.1486823 -0.09719297 1.325259
v 0.1486823 0.1388047 2.00257
v -0.1486753 -0.09719297 2.00257
v 0.1486823 0.1388047 2.00257
v 0.1486823 -0.09719297 2.00257
v -0.1486753 0.1388047 2.00257
v 0.119816 0.1370911 1.178688
v -0.3061423 0.2034664 1.178688
v -0.119809 0.1370911 1.178688
v 0.3061493 0.2034664 1.178688
v 0.119816 0.05308241 1.178688
v 0.3061493 -0.2866309 1.178688
v -0.119809 0.05308241 1.178688
v -0.3061423 -0.2866309 1.178688
v 0.119816 0.1370911 0.1666715
v -0.119809 0.1370911 1.178688
v -0.119809 0.1370911 0.1666715
v 0.119816 0.1370911 1.178688
v 0.119816 0.05308241 0.1666715
v 0.119816 0.1370911 1.178688
v 0.119816 0.1370911 0.1666715
v 0.119816 0.05308241 1.178688
v -0.119809 0.05308241 0.1666715
v 0.119816 0.05308241 1.178688
v 0.119816 0.05308241 0.1666715
v -0.119809 0.05308241 1.178688
v -0.119809 0.1370911 0.1666715
v -0.119809 0.05308241 1.178688
v -0.119809 0.05308241 0.1666715
v -0.119809 0.1370911 1.178688
v 0.3306716 0.286621 0.1659118
v -0.119809 0.1370911 0.1666715
v -0.3306674 0.286621 0.1659118
v 0.119816 0.1370911 0.1666715
v 0.3306716 -0.09645039 0.1659118
v 0.119816 0.05308241 0.1666715
v -0.3306674 -0.09645039 0.1659118
v -0.119809 0.05308241 0.1666715
v 0.3306716 0.286621 -3.486872E-06
v -0.3306674 0.286621 0.1659118
v -0.3306674 0.286621 -3.486872E-06
v 0.3306716 0.286621 0.1659118
v 0.3306716 -0.09645039 -3.486872E-06
v 0.3306716 0.286621 0.1659118
v 0.3306716 0.286621 -3.486872E-06
v 0.3306716 -0.09645039 0.1659118
v -0.3306674 -0.09645039 -3.486872E-06
v 0.3306716 -0.09645039 0.1659118
v 0.3306716 -0.09645039 -3.486872E-06
v -0.3306674 -0.09645039 0.1659118
v -0.3306674 0.286621 -3.486872E-06
v -0.3306674 -0.09645039 0.1659118
v -0.3306674 -0.09645039 -3.486872E-06
v -0.3306674 0.286621 0.1659118
v 0.1290325 -0.133608 1.87275
v 0.1567622 -0.1023054 1.824716
v 0.1567622 -0.133608 1.824716
v 0.1290325 -0.1023054 1.776685
v 0.1290325 -0.133608 1.87275
v 0.1290325 -0.1023054 1.87275
v 0.1114162 -0.1905239 1.820909
v 0.1215296 -0.177106 1.806748
v 0.1290325 -0.133608 1.776685
v 0.1290325 -0.1023054 1.776685
v 0.1114162 -0.1636882 1.792591
v 0.07357034 -0.133608 1.776685
v 0.07357034 -0.1023054 1.776685
v 0.1290325 -0.1023054 1.776685
v 0.09118949 -0.1636882 1.792591
v 0.07357034 -0.133608 1.87275
v 0.1290325 -0.1023054 1.87275
v 0.1290325 -0.133608 1.87275
v 0.07357034 -0.1023054 1.87275
v 0.04584354 -0.133608 1.824716
v 0.04584354 -0.1023054 1.824716
v 0.07357034 -0.133608 1.776685
v 0.07357034 -0.1023054 1.776685
v 0.09118949 -0.1905239 1.820909
v 0.08107327 -0.177106 1.806748
v 0.09118949 -0.1636882 1.792591
v 0.1290325 -0.133608 1.87275
v 0.1114162 -0.1905239 1.820909
v 0.07357034 -0.1023054 1.776685
v 0.07357034 -0.1023054 1.87275
v 0.04584354 -0.1023054 1.824716
v 0.1567622 -0.1023054 1.824716
v 0.1290325 -0.1023054 1.87275
v 0.1290325 -0.1023054 1.776685
v 0.1114162 -0.2172453 1.703953
v 0.1215296 -0.177106 1.806748
v 0.1215296 -0.199729 1.703953
v 0.1114162 -0.1905239 1.820909
v 0.1114162 -0.1905239 1.586996
v 0.1215296 -0.177106 1.601156
v 0.09118949 -0.2172453 1.703953
v 0.1114162 -0.1905239 1.820909
v 0.1114162 -0.2172453 1.703953
v 0.09118949 -0.1905239 1.820909
v 0.08107327 -0.199729 1.703953
v 0.08107327 -0.177106 1.806748
v 0.09118949 -0.1822098 1.703953
v 0.09118949 -0.1636882 1.792591
v 0.08107327 -0.177106 1.601156
v 0.09118949 -0.1905239 1.586996
v 0.1114162 -0.1905239 1.586996
v 0.09118949 -0.1636882 1.615308
v 0.1114162 -0.1822098 1.703953
v 0.09118949 -0.1636882 1.792591
v 0.09118949 -0.1822098 1.703953
v 0.1114162 -0.1636882 1.792591
v 0.1114162 -0.1636882 1.615308
v 0.09118949 -0.1636882 1.615308
v 0.1215296 -0.199729 1.703953
v 0.1114162 -0.1636882 1.792591
v 0.1114162 -0.1822098 1.703953
v 0.1215296 -0.177106 1.806748
v 0.1215296 -0.177106 1.601156
v 0.1114162 -0.1636882 1.615308
v 0.07357034 -0.133608 1.535155
v 0.04584354 -0.1023054 1.583183
v 0.04584354 -0.133608 1.583183
v 0.07357034 -0.1023054 1.631214
v 0.07357034 -0.133608 1.535155
v 0.07357034 -0.1023054 1.535155
v 0.09118949 -0.1905239 1.586996
v 0.08107327 -0.177106 1.601156
v 0.07357034 -0.133608 1.631214
v 0.07357034 -0.1023054 1.631214
v 0.1290325 -0.1023054 1.631214
v 0.1290325 -0.133608 1.631214
v 0.09118949 -0.1636882 1.615308
v 0.1114162 -0.1636882 1.615308
v 0.1290325 -0.133608 1.535155
v 0.07357034 -0.1023054 1.535155
v 0.07357034 -0.133608 1.535155
v 0.1290325 -0.1023054 1.535155
v 0.1567622 -0.133608 1.583183
v 0.1567622 -0.1023054 1.583183
v 0.1290325 -0.133608 1.631214
v 0.1114162 -0.1905239 1.586996
v 0.1215296 -0.177106 1.601156
v 0.1114162 -0.1636882 1.615308
v 0.1290325 -0.133608 1.631214
v 0.1290325 -0.1023054 1.631214
v 0.07357034 -0.133608 1.535155
v 0.09118949 -0.1905239 1.586996
v 0.1290325 -0.1023054 1.631214
v 0.1290325 -0.1023054 1.535155
v 0.1567622 -0.1023054 1.583183
v 0.04584354 -0.1023054 1.583183
v 0.07357034 -0.1023054 1.535155
v 0.07357034 -0.1023054 1.631214
v 0.08107327 -0.199729 1.703953
v 0.09118949 -0.1636882 1.615308
v 0.09118949 -0.1822098 1.703953
vt 0.3328671 0.4840973
vt 0.356413 0.4394449
vt 0.3328671 0.4394449
vt 0.356413 0.4840973
vt 0.3738224 0.4648999
vt 0.3804135 0.4509451
vt 0.3738224 0.4509451
vt 0.3804135 0.4648999
vt 0.3178214 0.4840973
vt 0.3328671 0.4394449
vt 0.3178214 0.4394449
vt 0.3328671 0.4840973
vt 0.356413 0.4988248
vt 0.3328671 0.4840973
vt 0.3328671 0.4988248
vt 0.356413 0.4840973
vt 0.3714587 0.4394449
vt 0.356413 0.4840973
vt 0.3714587 0.4840973
vt 0.356413 0.4394449
vt 0.3733224 0.4408692
vt 0.3714587 0.4394449
vt 0.3714587 0.4840973
vt 0.3950047 0.4394449
vt 0.3931258 0.4408692
vt 0.3950047 0.4840973
vt 0.3733224 0.4739607
vt 0.3931258 0.4739607
vt 0.4294902 0.4898247
vt 0.4156263 0.4643545
vt 0.4156263 0.4898247
vt 0.4294902 0.4643545
vt 0.4386116 0.4368843
vt 0.4227325 0.3961259
vt 0.4227325 0.4368843
vt 0.4386116 0.3961259
vt 0.4227325 0.380368
vt 0.3986259 0.3961259
vt 0.4227325 0.3961259
vt 0.3986259 0.380368
vt 0.3827468 0.3961259
vt 0.3986259 0.4368843
vt 0.3986259 0.3961259
vt 0.3827468 0.4368843
vt 0.3986259 0.452627
vt 0.4227325 0.4368843
vt 0.3986259 0.4368843
vt 0.4227325 0.452627
vt 0.403717 0.3998078
vt 0.3986259 0.4368843
vt 0.403717 0.424884
vt 0.3986259 0.3961259
vt 0.4176415 0.3998078
vt 0.4227325 0.3961259
vt 0.4176415 0.424884
vt 0.4227325 0.4368843
vt 0.4156263 0.4643545
vt 0.4068231 0.4898247
vt 0.4156263 0.4898247
vt 0.4068231 0.4643545
vt 0.4294902 0.4643545
vt 0.4156263 0.4554755
vt 0.4156263 0.4643545
vt 0.4294902 0.4554755
vt 0.4294902 0.4898247
vt 0.4386116 0.4643545
vt 0.4294902 0.4643545
vt 0.4386116 0.4898247
vt 0.4156263 0.4898247
vt 0.4294902 0.4987036
vt 0.4294902 0.4898247
vt 0.4156263 0.4987036
vt 0.3400339 0.43746
vt 0.356413 0.4394449
vt 0.3492462 0.43746
vt 0.3328671 0.4394449
vt 0.3400339 0.4349297
vt 0.3328671 0.4247173
vt 0.3492462 0.4349297
vt 0.356413 0.4247173
vt 0.3746406 0.4013684
vt 0.3184426 0.4175051
vt 0.3746406 0.4175051
vt 0.3184426 0.4013684
vt 0.3746406 0.3968532
vt 0.3184426 0.4013684
vt 0.3746406 0.4013684
vt 0.3184426 0.3968532
vt 0.3746406 0.3807317
vt 0.3184426 0.3968532
vt 0.3746406 0.3968532
vt 0.3184426 0.3807317
vt 0.3746406 0.4175051
vt 0.3184426 0.4220052
vt 0.3746406 0.4220052
vt 0.3184426 0.4175051
vt 0.383262 0.4648999
vt 0.3858378 0.4553998
vt 0.383262 0.4509451
vt 0.3858378 0.4604453
vt 0.389853 0.4648999
vt 0.3872772 0.4604453
vt 0.389853 0.4509451
vt 0.3872772 0.4553998
vt 0.3804135 0.4648999
vt 0.383262 0.4509451
vt 0.3804135 0.4509451
vt 0.383262 0.4648999
vt 0.389853 0.4676879
vt 0.383262 0.4648999
vt 0.383262 0.4676879
vt 0.389853 0.4648999
vt 0.3927016 0.4509451
vt 0.389853 0.4648999
vt 0.3927016 0.4648999
vt 0.389853 0.4509451
vt 0.383262 0.4481572
vt 0.389853 0.4509451
vt 0.389853 0.4481572
vt 0.383262 0.4509451
vt 0.4346418 0.4517027
vt 0.4368236 0.4499451
vt 0.435566 0.4498693
vt 0.4350357 0.4469299
vt 0.4346418 0.4517027
vt 0.4351266 0.4527633
vt 0.4337327 0.4503087
vt 0.4339902 0.4498693
vt 0.43446 0.4480663
vt 0.4350357 0.4469299
vt 0.4337781 0.4494754
vt 0.4322023 0.4480966
vt 0.4314296 0.4470814
vt 0.4350357 0.4469299
vt 0.4331266 0.4494602
vt 0.4321417 0.451627
vt 0.4351266 0.4527633
vt 0.4346418 0.4517027
vt 0.4314599 0.4525512
vt 0.4312781 0.4498542
vt 0.4300205 0.4497936
vt 0.4322023 0.4480966
vt 0.4314296 0.4470814
vt 0.4331569 0.4503239
vt 0.4328993 0.44993
vt 0.4331266 0.4494602
vt 0.4346418 0.4517027
vt 0.4337327 0.4503087
vt 0.4314296 0.4470814
vt 0.4312175 0.4412631
vt 0.4293689 0.4446117
vt 0.4368691 0.4442935
vt 0.43496 0.4411116
vt 0.4350357 0.4469299
vt 0.3858984 0.3860045
vt 0.3932622 0.3831863
vt 0.3858984 0.3847772
vt 0.3942774 0.3850651
vt 0.3775195 0.3850651
vt 0.3785346 0.3831863
vt 0.3858984 0.3877924
vt 0.3942774 0.3850651
vt 0.3858984 0.3860045
vt 0.3942774 0.3887318
vt 0.3858984 0.3890197
vt 0.3932622 0.3906258
vt 0.3858227 0.3902622
vt 0.3922167 0.3909137
vt 0.3785346 0.3906258
vt 0.3775195 0.3887318
vt 0.3775195 0.3850651
vt 0.3794438 0.3909137
vt 0.3858227 0.3920501
vt 0.3922167 0.3909137
vt 0.3858227 0.3902622
vt 0.3921864 0.3920501
vt 0.379474 0.3920501
vt 0.3794438 0.3909137
vt 0.3858984 0.3847772
vt 0.392247 0.3822317
vt 0.3858984 0.3835347
vt 0.3932622 0.3831863
vt 0.3785346 0.3831863
vt 0.3795498 0.3822317
vt 0.4327933 0.3920652
vt 0.4349903 0.3901258
vt 0.43396 0.3900349
vt 0.4333236 0.3871409
vt 0.4327933 0.3920652
vt 0.4333084 0.3930349
vt 0.4318236 0.3904894
vt 0.4321417 0.39005
vt 0.4327933 0.3880197
vt 0.4333236 0.3871409
vt 0.4295962 0.3873227
vt 0.4302174 0.3881106
vt 0.4318539 0.3895803
vt 0.4312629 0.3895803
vt 0.4301872 0.3920046
vt 0.4333084 0.3930349
vt 0.4327933 0.3920652
vt 0.4294599 0.3930349
vt 0.4292629 0.3901106
vt 0.4282023 0.390247
vt 0.4302174 0.3881106
vt 0.4312629 0.3904894
vt 0.4309902 0.39005
vt 0.4312629 0.3895803
vt 0.4302174 0.3881106
vt 0.4295962 0.3873227
vt 0.4327933 0.3920652
vt 0.4318236 0.3904894
vt 0.4295962 0.3873227
vt 0.4293387 0.3822317
vt 0.427581 0.3848681
vt 0.4350812 0.3845045
vt 0.4330812 0.3820499
vt 0.4333236 0.3871409
vt 0.3858984 0.3890197
vt 0.3794438 0.3909137
vt 0.3858227 0.3902622
vn 0.5905199 0.5748771 0.5663943
vn -0.5748771 0.5748771 -0.582265
vn 0.5905199 0.5748771 -0.5663943
vn -0.5748771 0.5748771 0.582265
vn 0.5905199 -0.5905199 -0.5500659
vn -0.5748771 0.5748771 -0.582265
vn -0.5748771 -0.5905199 -0.5663943
vn 0.5905199 0.5748771 -0.5663943
vn 0.5905199 -0.5905199 0.5500659
vn 0.5905199 0.5748771 -0.5663943
vn 0.5905199 -0.5905199 -0.5500659
vn 0.5905199 0.5748771 0.5663943
vn -0.5748771 -0.5905199 0.5663943
vn 0.5905199 0.5748771 0.5663943
vn 0.5905199 -0.5905199 0.5500659
vn -0.5748771 0.5748771 0.582265
vn -0.5748771 -0.5905199 -0.5663943
vn -0.5748771 0.5748771 0.582265
vn -0.5748771 -0.5905199 0.5663943
vn -0.5748771 0.5748771 -0.582265
vn 0.3167689 -0.9190211 0.2346438
vn -0.5748771 -0.5905199 -0.5663943
vn -0.5748771 -0.5905199 0.5663943
vn 0.5905199 -0.5905199 -0.5500659
vn -0.3011261 -0.9190211 0.2544078
vn 0.5905199 -0.5905199 0.5500659
vn 0.3167689 -0.9190211 -0.2346438
vn -0.3011261 -0.9190211 -0.2544078
vn 0.5905199 -0.5905199 0.5500659
vn -0.5748771 -0.5905199 -0.5663943
vn -0.5748771 -0.5905199 0.5663943
vn 0.5905199 -0.5905199 -0.5500659
vn -0.3011261 -0.9190211 -0.2544078
vn -0.5748771 -0.5905199 0.5663943
vn -0.5748771 -0.5905199 -0.5663943
vn -0.3011261 -0.9190211 0.2544078
vn -0.3011261 -0.9190211 0.2544078
vn 0.5905199 -0.5905199 0.5500659
vn -0.5748771 -0.5905199 0.5663943
vn 0.3167689 -0.9190211 0.2346438
vn 0.3167689 -0.9190211 0.2346438
vn 0.5905199 -0.5905199 -0.5500659
vn 0.5905199 -0.5905199 0.5500659
vn 0.3167689 -0.9190211 -0.2346438
vn 0.3167689 -0.9190211 -0.2346438
vn -0.5748771 -0.5905199 -0.5663943
vn 0.5905199 -0.5905199 -0.5500659
vn -0.3011261 -0.9190211 -0.2544078
vn -0.3011261 -0.9190211 -0.2544078
vn 0.5905199 -0.5905199 -0.5500659
vn -0.3011261 -0.9190211 0.2544078
vn 0.5905199 -0.5905199 0.5500659
vn 0.3167689 -0.9190211 -0.2346438
vn -0.5748771 -0.5905199 0.5663943
vn 0.3167689 -0.9190211 0.2346438
vn -0.5748771 -0.5905199 -0.5663943
vn -0.5748771 -0.5905199 -0.5663943
vn -0.3011261 -0.9190211 0.2544078
vn -0.5748771 -0.5905199 0.5663943
vn -0.3011261 -0.9190211 -0.2544078
vn 0.5905199 -0.5905199 -0.5500659
vn -0.3011261 -0.9190211 -0.2544078
vn -0.5748771 -0.5905199 -0.5663943
vn 0.3167689 -0.9190211 -0.2346438
vn 0.5905199 -0.5905199 0.5500659
vn 0.3167689 -0.9190211 -0.2346438
vn 0.5905199 -0.5905199 -0.5500659
vn 0.3167689 -0.9190211 0.2346438
vn -0.5748771 -0.5905199 0.5663943
vn 0.3167689 -0.9190211 0.2346438
vn 0.5905199 -0.5905199 0.5500659
vn -0.3011261 -0.9190211 0.2544078
vn 0.3167689 0.3011261 -0.8994334
vn -0.5748771 0.5748771 -0.582265
vn -0.3011261 0.3011261 -0.9047906
vn 0.5905199 0.5748771 -0.5663943
vn 0.3167689 -0.3167689 -0.8940441
vn 0.5905199 -0.5905199 -0.5500659
vn -0.3011261 -0.3167689 -0.8994334
vn -0.5748771 -0.5905199 -0.5663943
vn 0.3167689 0.3011261 0.8994334
vn -0.3011261 0.3011261 -0.9047906
vn -0.3011261 0.3011261 0.9047906
vn 0.3167689 0.3011261 -0.8994334
vn 0.3167689 -0.3167689 0.8940441
vn 0.3167689 0.3011261 -0.8994334
vn 0.3167689 0.3011261 0.8994334
vn 0.3167689 -0.3167689 -0.8940441
vn -0.3011261 -0.3167689 0.8994334
vn 0.3167689 -0.3167689 -0.8940441
vn 0.3167689 -0.3167689 0.8940441
vn -0.3011261 -0.3167689 -0.8994334
vn -0.3011261 0.3011261 0.9047906
vn -0.3011261 -0.3167689 -0.8994334
vn -0.3011261 -0.3167689 0.8994334
vn -0.3011261 0.3011261 -0.9047906
vn 0.5905199 0.5748771 0.5663943
vn -0.3011261 0.3011261 0.9047906
vn -0.5748771 0.5748771 0.582265
vn 0.3167689 0.3011261 0.8994334
vn 0.5905199 -0.5905199 0.5500659
vn 0.3167689 -0.3167689 0.8940441
vn -0.5748771 -0.5905199 0.5663943
vn -0.3011261 -0.3167689 0.8994334
vn 0.5905199 0.5748771 -0.5663943
vn -0.5748771 0.5748771 0.582265
vn -0.5748771 0.5748771 -0.582265
vn 0.5905199 0.5748771 0.5663943
vn 0.5905199 -0.5905199 -0.5500659
vn 0.5905199 0.5748771 0.5663943
vn 0.5905199 0.5748771 -0.5663943
vn 0.5905199 -0.5905199 0.5500659
vn -0.5748771 -0.5905199 -0.5663943
vn 0.5905199 -0.5905199 0.5500659
vn 0.5905199 -0.5905199 -0.5500659
vn -0.5748771 -0.5905199 0.5663943
vn -0.5748771 0.5748771 -0.582265
vn -0.5748771 -0.5905199 0.5663943
vn -0.5748771 -0.5905199 -0.5663943
vn -0.5748771 0.5748771 0.582265
vn 0.4731981 -0.3480548 0.8092845
vn 0.7976593 0.6031083 0
vn 0.9589937 -0.2834273 0
vn 0.4106264 0.6061629 -0.6811406
vn 0.4731981 -0.3480548 0.8092845
vn 0.4106264 0.6061629 0.6811406
vn 0.402805 -0.832985 0.3793205
vn 0.8905047 -0.454974 0
vn 0.4966624 -0.2620187 -0.8274494
vn 0.4106264 0.6061629 -0.6811406
vn 0.5279483 0.08994675 -0.8444999
vn -0.4888411 -0.301126 -0.8187537
vn -0.3949836 0.6061629 -0.6903293
vn 0.4106264 0.6061629 -0.6811406
vn -0.6609131 0.144697 -0.7363808
vn -0.4653767 -0.3558762 0.8104175
vn 0.4106264 0.6061629 0.6811406
vn 0.4731981 -0.3480548 0.8092845
vn -0.3949836 0.6061629 0.6903293
vn -0.9405885 -0.3395485 0
vn -0.7860564 0.6061629 0.1211689
vn -0.4888411 -0.301126 -0.8187537
vn -0.3949836 0.6061629 -0.6903293
vn -0.4340909 -0.8095207 0.3952738
vn -0.9268427 -0.3715191 -0.05418602
vn -0.6609131 0.144697 -0.7363808
vn 0.4731981 -0.3480548 0.8092845
vn 0.402805 -0.832985 0.3793205
vn -0.3949836 0.6061629 -0.6903293
vn -0.3949836 0.6061629 0.6903293
vn -0.7860564 0.6061629 0.1211689
vn 0.7976593 0.6031083 0
vn 0.4106264 0.6061629 0.6811406
vn 0.4106264 0.6061629 -0.6811406
vn 0.4703864 -0.8824605 0
vn 0.8905047 -0.454974 0
vn 0.9972357 -0.07430381 -5.709316E-05
vn 0.402805 -0.832985 0.3793205
vn 0.4497337 -0.8095207 -0.3773802
vn 0.9319316 -0.3626344 0
vn -0.4575553 -0.8877352 -0.05068785
vn 0.402805 -0.832985 0.3793205
vn 0.4703864 -0.8824605 0
vn -0.4340909 -0.8095207 0.3952738
vn -0.9972357 -0.0743038 0
vn -0.9268427 -0.3715191 -0.05418602
vn -0.5279484 0.8408066 -0.1196444
vn -0.6609131 0.144697 -0.7363808
vn -0.8799139 -0.4575552 0.1280419
vn -0.3871622 -0.832985 -0.3952737
vn 0.4497337 -0.8095207 -0.3773802
vn -0.5123055 0.08994675 0.85408
vn 0.5429272 0.8397797 0
vn -0.6609131 0.144697 -0.7363808
vn -0.5279484 0.8408066 -0.1196444
vn 0.5279483 0.08994675 -0.8444999
vn 0.6765559 0.144697 0.7220352
vn -0.5123055 0.08994675 0.85408
vn 0.9972357 -0.07430381 -5.709316E-05
vn 0.5279483 0.08994675 -0.8444999
vn 0.5429272 0.8397797 0
vn 0.8905047 -0.454974 0
vn 0.9319316 -0.3626344 0
vn 0.6765559 0.144697 0.7220352
vn -0.4575553 -0.3480548 -0.8182305
vn -0.7860564 0.6061629 0.1211689
vn -0.9562 -0.2927142 0
vn -0.3949836 0.6061629 0.6903293
vn -0.4575553 -0.3480548 -0.8182305
vn -0.3949836 0.6061629 -0.6903293
vn -0.3871622 -0.832985 -0.3952737
vn -0.8799139 -0.4575552 0.1280419
vn -0.4810196 -0.2620187 0.8366399
vn -0.3949836 0.6061629 0.6903293
vn 0.4106264 0.6061629 0.6811406
vn 0.5044839 -0.301126 0.8092089
vn -0.5123055 0.08994675 0.85408
vn 0.6765559 0.144697 0.7220352
vn 0.4810195 -0.3558762 -0.8012318
vn -0.3949836 0.6061629 -0.6903293
vn -0.4575553 -0.3480548 -0.8182305
vn 0.4106264 0.6061629 -0.6811406
vn 0.9439189 -0.3301773 0
vn 0.7976593 0.6031083 0
vn 0.5044839 -0.301126 0.8092089
vn 0.4497337 -0.8095207 -0.3773802
vn 0.9319316 -0.3626344 0
vn 0.6765559 0.144697 0.7220352
vn 0.5044839 -0.301126 0.8092089
vn 0.4106264 0.6061629 0.6811406
vn -0.4575553 -0.3480548 -0.8182305
vn -0.3871622 -0.832985 -0.3952737
vn 0.4106264 0.6061629 0.6811406
vn 0.4106264 0.6061629 -0.6811406
vn 0.7976593 0.6031083 0
vn -0.7860564 0.6061629 0.1211689
vn -0.3949836 0.6061629 -0.6903293
vn -0.3949836 0.6061629 0.6903293
vn -0.9972357 -0.0743038 0
vn -0.5123055 0.08994675 0.85408
vn -0.5279484 0.8408066 -0.1196444
g XuanJueSe_dianHua_0
f 3/3/3 2/2/2 1/1/1
f 4/4/4 1/1/1 2/2/2
f 7/7/7 6/6/6 5/5/5
f 8/8/8 5/5/5 6/6/6
f 11/11/11 10/10/10 9/9/9
f 12/12/12 9/9/9 10/10/10
f 15/15/15 14/14/14 13/13/13
f 16/16/16 13/13/13 14/14/14
f 19/19/19 18/18/18 17/17/17
f 20/20/20 17/17/17 18/18/18
f 23/23/23 22/22/22 21/21/21
f 22/22/22 24/24/24 21/21/21
f 21/21/21 24/24/24 25/25/25
f 24/24/24 26/26/26 25/25/25
f 21/21/21 27/27/27 23/23/23
f 27/27/27 28/28/28 23/23/23
f 23/23/23 28/28/28 26/26/26
f 26/26/26 28/28/28 25/25/25
f 31/31/31 30/30/30 29/29/29
f 32/32/32 29/29/29 30/30/30
f 35/35/35 34/34/34 33/33/33
f 36/36/36 33/33/33 34/34/34
f 39/39/39 38/38/38 37/37/37
f 40/40/40 37/37/37 38/38/38
f 43/43/43 42/42/42 41/41/41
f 44/44/44 41/41/41 42/42/42
f 47/47/47 46/46/46 45/45/45
f 48/48/48 45/45/45 46/46/46
f 51/51/51 50/50/50 49/49/49
f 52/52/52 49/49/49 50/50/50
f 49/49/49 52/52/52 53/53/53
f 54/54/54 53/53/53 52/52/52
f 53/53/53 54/54/54 55/55/55
f 56/56/56 55/55/55 54/54/54
f 55/55/55 56/56/56 51/51/51
f 50/50/50 51/51/51 56/56/56
f 59/59/59 58/58/58 57/57/57
f 60/60/60 57/57/57 58/58/58
f 63/63/63 62/62/62 61/61/61
f 64/64/64 61/61/61 62/62/62
f 67/67/67 66/66/66 65/65/65
f 68/68/68 65/65/65 66/66/66
f 71/71/71 70/70/70 69/69/69
f 72/72/72 69/69/69 70/70/70
f 75/75/75 74/74/74 73/73/73
f 76/76/76 73/73/73 74/74/74
f 73/73/73 76/76/76 77/77/77
f 78/78/78 77/77/77 76/76/76
f 77/77/77 78/78/78 79/79/79
f 80/80/80 79/79/79 78/78/78
f 79/79/79 80/80/80 75/75/75
f 74/74/74 75/75/75 80/80/80
f 83/83/83 82/82/82 81/81/81
f 84/84/84 81/81/81 82/82/82
f 87/87/87 86/86/86 85/85/85
f 88/88/88 85/85/85 86/86/86
f 91/91/91 90/90/90 89/89/89
f 92/92/92 89/89/89 90/90/90
f 95/95/95 94/94/94 93/93/93
f 96/96/96 93/93/93 94/94/94
f 99/99/99 98/98/98 97/97/97
f 100/100/100 97/97/97 98/98/98
f 97/97/97 100/100/100 101/101/101
f 102/102/102 101/101/101 100/100/100
f 101/101/101 102/102/102 103/103/103
f 104/104/104 103/103/103 102/102/102
f 103/103/103 104/104/104 99/99/99
f 98/98/98 99/99/99 104/104/104
f 107/107/107 106/106/106 105/105/105
f 108/108/108 105/105/105 106/106/106
f 111/111/111 110/110/110 109/109/109
f 112/112/112 109/109/109 110/110/110
f 115/115/115 114/114/114 113/113/113
f 116/116/116 113/113/113 114/114/114
f 119/119/119 118/118/118 117/117/117
f 120/120/120 117/117/117 118/118/118
f 123/123/123 122/122/122 121/121/121
f 122/122/122 123/123/123 124/124/124
f 126/126/126 125/125/125 122/122/122
f 125/125/125 127/127/127 123/123/123
f 128/128/128 123/123/123 127/127/127
f 123/123/123 128/128/128 129/129/129
f 129/129/129 130/130/130 123/123/123
f 131/131/131 129/129/129 128/128/128
f 129/129/129 131/131/131 132/132/132
f 132/132/132 133/133/133 129/129/129
f 134/134/134 129/129/129 133/133/133
f 135/135/135 132/132/132 131/131/131
f 138/138/138 137/137/137 136/136/136
f 139/139/139 136/136/136 137/137/137
f 136/136/136 139/139/139 140/140/140
f 141/141/141 140/140/140 139/139/139
f 140/140/140 141/141/141 142/142/142
f 143/143/143 142/142/142 141/141/141
f 136/136/136 144/144/144 138/138/138
f 144/144/144 136/136/136 145/145/145
f 140/140/140 145/145/145 136/136/136
f 145/145/145 140/140/140 146/146/146
f 142/142/142 146/146/146 140/140/140
f 148/148/148 147/147/147 144/144/144
f 151/151/151 150/150/150 149/149/149
f 150/150/150 152/152/152 149/149/149
f 153/153/153 152/152/152 150/150/150
f 152/152/152 154/154/154 149/149/149
f 157/157/157 156/156/156 155/155/155
f 158/158/158 155/155/155 156/156/156
f 155/155/155 159/159/159 157/157/157
f 160/160/160 157/157/157 159/159/159
f 163/163/163 162/162/162 161/161/161
f 164/164/164 161/161/161 162/162/162
f 161/161/161 164/164/164 165/165/165
f 166/166/166 165/165/165 164/164/164
f 165/165/165 166/166/166 167/167/167
f 168/168/168 167/167/167 166/166/166
f 165/165/165 169/169/169 161/161/161
f 170/170/170 161/161/161 169/169/169
f 161/161/161 170/170/170 163/163/163
f 171/171/171 163/163/163 170/170/170
f 169/169/169 165/165/165 172/172/172
f 175/175/175 174/174/174 173/173/173
f 176/176/176 173/173/173 174/174/174
f 173/173/173 177/177/177 175/175/175
f 178/178/178 175/175/175 177/177/177
f 181/181/181 180/180/180 179/179/179
f 182/182/182 179/179/179 180/180/180
f 179/179/179 183/183/183 181/181/181
f 184/184/184 181/181/181 183/183/183
f 187/187/187 186/186/186 185/185/185
f 186/186/186 187/187/187 188/188/188
f 190/190/190 189/189/189 186/186/186
f 189/189/189 191/191/191 187/187/187
f 192/192/192 187/187/187 191/191/191
f 187/187/187 192/192/192 193/193/193
f 193/193/193 194/194/194 187/187/187
f 194/194/194 193/193/193 195/195/195
f 196/196/196 195/195/195 193/193/193
f 193/193/193 197/197/197 196/196/196
f 197/197/197 193/193/193 192/192/192
f 198/198/198 196/196/196 197/197/197
f 201/201/201 200/200/200 199/199/199
f 202/202/202 199/199/199 200/200/200
f 199/199/199 202/202/202 203/203/203
f 204/204/204 203/203/203 202/202/202
f 203/203/203 204/204/204 205/205/205
f 199/199/199 206/206/206 201/201/201
f 206/206/206 199/199/199 207/207/207
f 203/203/203 207/207/207 199/199/199
f 207/207/207 203/203/203 208/208/208
f 209/209/209 208/208/208 203/203/203
f 210/210/210 209/209/209 204/204/204
f 212/212/212 211/211/211 206/206/206
f 215/215/215 214/214/214 213/213/213
f 214/214/214 216/216/216 213/213/213
f 217/217/217 216/216/216 214/214/214
f 216/216/216 218/218/218 213/213/213
f 221/221/221 220/220/220 219/219/219
