g XuanJueSe_lieChe
v -24.28715 1.678467E-06 2.785432
v -11.45511 3.051758E-07 2.41482
v -24.28715 2.441406E-06 2.41482
v -11.45511 3.051758E-07 2.785432
v -27.05937 3.356934E-06 -2.785425
v -27.05937 3.356934E-06 2.41482
v -9.092418 -1.525879E-07 -2.785425
v -9.092418 -1.525879E-07 2.41482
v -6.208295 -4.577637E-07 2.785432
v 6.623741 -2.593994E-06 2.41482
v -6.208295 0 2.41482
v 6.623741 -2.13623E-06 2.785432
v -8.980523 4.577637E-07 -2.78543
v -8.980523 4.577637E-07 2.41482
v 8.986433 -2.441406E-06 -2.78543
v 8.986433 -2.441406E-06 2.41482
v 11.86463 -2.746582E-06 2.785432
v 24.69667 -4.425049E-06 2.414818
v 11.86463 -2.441406E-06 2.414818
v 24.69667 -4.119873E-06 2.785432
v 9.092414 -1.220703E-06 -2.785432
v 9.092414 -1.831055E-06 2.414818
v 27.05937 -4.272461E-06 -2.785432
v 27.05937 -4.272461E-06 2.414818
vt 0.5392131 0.2483007
vt 0.7165218 0.2457218
vt 0.5392131 0.2457218
vt 0.7165218 0.2483007
vt 0.5017188 0.1945373
vt 0.5017188 0.2457218
vt 0.7479059 0.1945375
vt 0.7479059 0.2457218
vt 0.5392131 0.2483007
vt 0.7165218 0.2457218
vt 0.5392131 0.2457218
vt 0.7165218 0.2483007
vt 0.5017188 0.1945373
vt 0.5017188 0.2457218
vt 0.7479059 0.1945375
vt 0.7479059 0.2457218
vt 0.5392131 0.2483007
vt 0.7165218 0.2457218
vt 0.5392131 0.2457218
vt 0.7165218 0.2483007
vt 0.5017188 0.1945373
vt 0.5017188 0.2457218
vt 0.7479059 0.1945375
vt 0.7479059 0.2457218
vn -1.664763E-07 -1 -2.058596E-06
vn -1.664763E-07 -1 -2.058596E-06
vn -1.664763E-07 -1 -2.058596E-06
vn -1.070205E-07 -1 0
vn -3.302504E-07 -1 0
vn -3.302504E-07 -1 0
vn -1.937469E-07 -1 0
vn -1.937469E-07 -1 0
vn -2.021498E-07 -1 -1.235157E-06
vn -2.021498E-07 -1 -1.235158E-06
vn -2.021498E-07 -1 -1.235158E-06
vn -1.308028E-07 -1 1.235158E-06
vn -1.651248E-07 -1 0
vn -1.651248E-07 -1 0
vn 0 -1 0
vn 0 -1 0
vn -1.545852E-07 -1 -8.23433E-07
vn -1.545852E-07 -1 -8.234331E-07
vn -1.545851E-07 -1 -8.23433E-07
vn -1.070205E-07 -1 8.23433E-07
vn -2.201671E-07 -1 -1.173696E-07
vn -2.201671E-07 -1 -1.173696E-07
vn 0 -1 0
vn 0 -1 0
g XuanJueSe_lieChe_0
f 3/3/3 2/2/2 1/1/1
f 4/4/4 1/1/1 2/2/2
f 5/5/5 2/2/2 3/3/3
f 6/6/6 5/5/5 3/3/3
f 7/7/7 2/2/2 5/5/5
f 8/8/8 2/2/2 7/7/7
f 11/11/11 10/10/10 9/9/9
f 12/12/12 9/9/9 10/10/10
f 13/13/13 10/10/10 11/11/11
f 14/14/14 13/13/13 11/11/11
f 15/15/15 10/10/10 13/13/13
f 16/16/16 10/10/10 15/15/15
f 19/19/19 18/18/18 17/17/17
f 20/20/20 17/17/17 18/18/18
f 21/21/21 18/18/18 19/19/19
f 22/22/22 21/21/21 19/19/19
f 23/23/23 18/18/18 21/21/21
f 24/24/24 18/18/18 23/23/23
