g XuanJueSe_jianZhu03_a
v 5.435772 -10.04776 5.31776
v -6.589321 -11.12701 4.35815
v -6.415233 -10.04776 5.31776
v 6.515022 -11.12701 4.35815
v 5.435771 10.44931 5.31776
v 6.515022 -11.12701 4.35815
v 5.435772 -10.04776 5.31776
v 6.535693 10.44931 4.35815
v 5.435772 -10.04776 5.31776
v -6.589321 -11.12701 6.277372
v 6.515022 -11.12701 6.277372
v -6.415233 -10.04776 5.31776
v 5.435771 10.44931 5.31776
v 6.515022 -11.12701 6.277372
v 6.535693 10.44931 6.277372
v 5.435772 -10.04776 5.31776
vt 0.7170787 1.619195
vt 0.8516614 0.1324522
vt 0.7170787 0.1324522
vt 0.8516614 1.619195
vt 0.7170787 1.619195
vt 0.8516614 0.1324522
vt 0.7170787 0.1324522
vt 0.8516614 1.619195
vt 0.7170787 1.619195
vt 0.8516614 0.1324522
vt 0.8516614 1.619195
vt 0.7170787 0.1324522
vt 0.7170787 1.619195
vt 0.8516614 0.1324522
vt 0.8516614 1.619195
vt 0.7170787 0.1324522
vn 0 -0.664471 0.7473142
vn 0 -0.664471 0.7473142
vn 0 -0.664471 0.7473142
vn 0 -0.6644709 0.7473142
vn 0.6608381 -0.0003246415 0.7505283
vn 0.6608381 -0.0003246415 0.7505283
vn 0.6608381 -0.0003246415 0.7505283
vn 0.6608381 -0.0003246415 0.7505283
vn 0 -0.6644711 -0.7473139
vn 0 -0.6644711 -0.747314
vn 0 -0.6644711 -0.7473139
vn 0 -0.6644711 -0.7473139
vn 0.6608384 -0.0003246526 -0.7505282
vn 0.6608382 -0.0003246526 -0.7505282
vn 0.6608384 -0.0003246526 -0.7505282
vn 0.6608384 -0.0003246526 -0.7505282
g XuanJueSe_jianZhu03_a_0
f 3/3/3 2/2/2 1/1/1
f 2/2/2 4/4/4 1/1/1
f 7/7/7 6/6/6 5/5/5
f 6/6/6 8/8/8 5/5/5
f 11/11/11 10/10/10 9/9/9
f 10/10/10 12/12/12 9/9/9
f 15/15/15 14/14/14 13/13/13
f 14/14/14 16/16/16 13/13/13
