g XuanJueSe_jianZhu02
v -6.039919 14.53513 -0.06156349
v -6.039919 17.53657 3.58628
v -6.039919 14.53513 3.58628
v -6.039919 17.53657 -0.06156349
v -5.923235 11.79784 9.559552
v -2.947732 17.53657 9.559552
v -5.767693 8.153176 9.559552
v -7.393092 15.32708 9.559552
v -7.273589 13.37496 9.559552
v -5.776756 17.53657 9.559552
v -2.947732 -9.729638 9.559552
v -5.767728 -8.153232 9.559552
v -6.477357 -7.260192 9.559552
v -6.477357 7.260137 9.559552
v -8.409951 5.967518 9.559552
v -8.409951 -5.967609 9.559552
v -9.537858 -4.577637E-05 9.559552
v -9.53147 3.505601 9.559552
v -9.53147 -3.505656 9.559552
v -5.923235 -9.729638 9.559552
v -6.540694 0.5037632 -0.06156349
v -6.540694 6.20613 3.58628
v -6.540694 0.5037632 3.58628
v -6.540694 6.20613 -0.06156349
v -6.039919 -7.275571 3.58628
v -6.039919 -9.729638 -0.06156349
v -6.039919 -7.275571 -0.06156349
v -6.039919 -9.729638 3.58628
v -7.273589 13.37496 9.559552
v -5.923235 11.79784 9.389737
v -7.273589 13.37496 9.389737
v -5.923235 11.79784 9.559552
v -5.923235 11.79784 8.500266
v -7.273589 13.37496 8.670045
v -5.923235 11.79784 8.670045
v -7.273589 13.37496 8.500266
v -6.477357 7.260137 9.559552
v -8.409951 5.967518 9.389737
v -6.477357 7.260137 9.389737
v -8.409951 5.967518 9.559552
v -8.409951 5.967518 8.500266
v -6.477357 7.260137 8.670045
v -8.409951 5.967518 8.670045
v -6.477357 7.260137 8.500266
v -9.53147 3.505601 9.559552
v -9.537858 -4.577637E-05 9.389737
v -9.53147 3.505601 9.389737
v -9.537858 -4.577637E-05 9.559552
v -9.537858 -4.577637E-05 8.500266
v -9.53147 3.505601 8.670045
v -9.537858 -4.577637E-05 8.670045
v -9.53147 3.505601 8.500266
v -8.409951 5.967518 9.559552
v -9.53147 3.505601 9.389737
v -8.409951 5.967518 9.389737
v -9.53147 3.505601 9.559552
v -9.53147 3.505601 8.500266
v -8.409951 5.967518 8.670045
v -9.53147 3.505601 8.670045
v -8.409951 5.967518 8.500266
v -5.776756 17.53657 9.559552
v -7.393092 15.32708 9.389737
v -5.776756 17.53657 9.389737
v -7.393092 15.32708 9.559552
v -7.393092 15.32708 8.500266
v -5.776756 17.53657 8.670045
v -7.393092 15.32708 8.670045
v -5.776756 17.53657 8.500266
v -7.393092 15.32708 9.559552
v -7.273589 13.37496 9.389737
v -7.393092 15.32708 9.389737
v -7.273589 13.37496 9.559552
v -7.273589 13.37496 8.500266
v -7.393092 15.32708 8.670045
v -7.273589 13.37496 8.670045
v -7.393092 15.32708 8.500266
v -5.767728 8.153176 8.500266
v -5.923235 11.79784 8.670045
v -5.767728 8.153176 8.670045
v -5.923235 11.79784 8.500266
v -5.923235 11.79784 9.559552
v -5.767693 8.153176 9.389737
v -5.923235 11.79784 9.389737
v -5.767693 8.153176 9.559552
v -6.477357 7.260137 8.500266
v -5.767728 8.153176 8.670045
v -6.477357 7.260137 8.670045
v -5.767728 8.153176 8.500266
v -5.767693 8.153176 9.559552
v -6.477357 7.260137 9.389737
v -5.767693 8.153176 9.389737
v -6.477357 7.260137 9.559552
v -8.409951 -5.967609 9.559552
v -6.477357 -7.260192 9.389737
v -8.409951 -5.967609 9.389737
v -6.477357 -7.260192 9.559552
v -6.552541 -7.260192 8.500266
v -8.409951 -5.967609 8.670045
v -6.552541 -7.260192 8.670045
v -8.409951 -5.967609 8.500266
v -9.537858 -4.577637E-05 9.559552
v -9.53147 -3.505656 9.389737
v -9.537858 -4.577637E-05 9.389737
v -9.53147 -3.505656 9.559552
v -9.53147 -3.505656 8.500266
v -9.537858 -4.577637E-05 8.670045
v -9.53147 -3.505656 8.670045
v -9.537858 -4.577637E-05 8.500266
v -9.53147 -3.505656 9.559552
v -8.409951 -5.967609 9.389737
v -9.53147 -3.505656 9.389737
v -8.409951 -5.967609 9.559552
v -8.409951 -5.967609 8.500266
v -9.53147 -3.505656 8.670045
v -8.409951 -5.967609 8.670045
v -9.53147 -3.505656 8.500266
v -5.923235 -9.729638 8.500266
v -5.842913 -8.153232 8.670045
v -5.923235 -9.729638 8.670045
v -5.842913 -8.153232 8.500266
v -5.767728 -8.153232 9.559552
v -5.923235 -9.729638 9.389737
v -5.767728 -8.153232 9.389737
v -5.923235 -9.729638 9.559552
v -5.842913 -8.153232 8.500266
v -6.552541 -7.260192 8.670045
v -5.842913 -8.153232 8.670045
v -6.552541 -7.260192 8.500266
v -6.477357 -7.260192 9.559552
v -5.767728 -8.153232 9.389737
v -6.477357 -7.260192 9.389737
v -5.767728 -8.153232 9.559552
v -7.273589 13.37496 9.389737
v -5.653792 11.89854 9.389737
v -7.003432 13.42082 9.389737
v -5.923235 11.79784 9.389737
v -5.923235 11.79784 9.389737
v -5.49907 8.049945 9.389737
v -5.653792 11.89854 9.389737
v -5.767693 8.153176 9.389737
v -5.767693 8.153176 9.389737
v -6.294232 7.02049 9.389737
v -5.49907 8.049945 9.389737
v -6.477357 7.260137 9.389737
v -6.477357 7.260137 9.389737
v -8.200742 5.75531 9.389737
v -6.294232 7.02049 9.389737
v -8.409951 5.967518 9.389737
v -8.409951 5.967518 9.389737
v -9.254642 3.433164 9.389737
v -8.200742 5.75531 9.389737
v -9.53147 3.505601 9.389737
v -9.53147 3.505601 9.389737
v -9.253285 -4.577637E-05 9.389737
v -9.254642 3.433164 9.389737
v -9.537858 -4.577637E-05 9.389737
v -9.537858 -4.577637E-05 9.389737
v -9.254642 -3.433256 9.389737
v -9.253285 -4.577637E-05 9.389737
v -9.53147 -3.505656 9.389737
v -9.53147 -3.505656 9.389737
v -8.200742 -5.755438 9.389737
v -9.254642 -3.433256 9.389737
v -8.409951 -5.967609 9.389737
v -8.409951 -5.967609 9.389737
v -6.294232 -7.020545 9.389737
v -8.200742 -5.755438 9.389737
v -6.477357 -7.260192 9.389737
v -6.477357 -7.260192 9.389737
v -5.49907 -8.050036 9.389737
v -6.294232 -7.020545 9.389737
v -5.767728 -8.153232 9.389737
v -5.767728 -8.153232 9.389737
v -5.653792 -9.729638 9.389737
v -5.49907 -8.050036 9.389737
v -5.923235 -9.729638 9.389737
v -5.776756 17.53657 9.389737
v -7.112372 15.30328 9.389737
v -5.614719 17.41661 9.389737
v -7.393092 15.32708 9.389737
v -7.393092 15.32708 9.389737
v -7.003432 13.42082 9.389737
v -7.112372 15.30328 9.389737
v -7.273589 13.37496 9.389737
v -5.923235 11.79784 8.670045
v -7.003432 13.42082 8.670045
v -5.653828 11.89858 8.670045
v -7.273589 13.37496 8.670045
v -7.112372 15.30328 8.670045
v -7.393092 15.32708 8.670045
v -5.614719 17.41661 8.670045
v -5.776756 17.53657 8.670045
v -5.767728 8.153176 8.670045
v -5.49907 8.049981 8.670045
v -6.477357 7.260137 8.670045
v -6.294232 7.02049 8.670045
v -8.409951 5.967518 8.670045
v -8.200742 5.75531 8.670045
v -9.53147 3.505601 8.670045
v -9.254642 3.433164 8.670045
v -9.537858 -4.577637E-05 8.670045
v -9.253285 -4.577637E-05 8.670045
v -9.53147 -3.505656 8.670045
v -9.254642 -3.433256 8.670045
v -8.409951 -5.967609 8.670045
v -8.200742 -5.755438 8.670045
v -6.552541 -7.260192 8.670045
v -6.294232 -7.020545 8.670045
v -5.842913 -8.153232 8.670045
v -5.49907 -8.050108 8.670045
v -5.923235 -9.729638 8.670045
v -5.653828 -9.729638 8.670045
v -6.010408 17.27137 5.152303
v -6.856704 15.29346 8.667262
v -7.536572 15.29346 5.152303
v -5.310486 17.27137 8.667262
v -5.755846 11.77636 5.152303
v -4.80325 8.671437 8.667262
v -5.483085 9.307845 5.152303
v -5.076083 11.77636 8.667262
v -9.7496 3.293358 5.152303
v -9.069766 -4.577637E-05 8.667262
v -9.7496 -4.577637E-05 5.152303
v -9.069766 3.293358 8.667262
v -7.536572 15.29346 5.152303
v -6.77192 13.40433 8.667262
v -7.451791 13.40433 5.152303
v -6.856704 15.29346 8.667262
v -7.451791 13.40433 5.152303
v -5.076083 11.77636 8.667262
v -5.755846 11.77636 5.152303
v -6.77192 13.40433 8.667262
v -9.069766 3.293358 8.667262
v -7.928123 6.913903 5.152303
v -7.248324 6.277495 8.667262
v -7.928123 6.913903 5.152303
v -9.069766 3.293358 8.667262
v -9.7496 3.293358 5.152303
v -7.248324 6.277495 8.667262
v -5.483085 9.307845 5.152303
v -4.80325 8.671437 8.667262
v -7.928123 6.913903 5.152303
v -9.7496 -3.293485 5.152303
v -9.069766 -4.577637E-05 8.667262
v -9.069766 -3.293485 8.667262
v -9.7496 -4.577637E-05 5.152303
v -9.069766 -3.293485 8.667262
v -7.928123 -6.913995 5.152303
v -9.7496 -3.293485 5.152303
v -7.928123 -6.913995 5.152303
v -9.069766 -3.293485 8.667262
v -7.248324 -6.277516 8.667262
v -7.248324 -6.277516 8.667262
v -5.19498 -9.729638 5.152303
v -7.928123 -6.913995 5.152303
v -5.19498 -9.729638 5.152303
v -7.248324 -6.277516 8.667262
v -4.515145 -9.729638 8.667262
v -5.845089 14.63907 3.730618
v -7.16347 14.63907 -0.06156349
v -5.845089 14.63907 -0.06156349
v -7.16347 14.63907 3.730618
v -7.16347 13.42142 3.730618
v -5.845089 13.42142 -0.06156349
v -7.16347 13.42142 -0.06156349
v -5.845089 13.42142 3.730618
v -7.014745 13.58656 3.557769
v -7.014745 14.4739 -0.06156349
v -7.014745 14.4739 3.557769
v -7.014745 13.58656 -0.06156349
v -7.16347 13.42142 3.730618
v -7.16347 14.4739 3.557769
v -7.16347 14.63907 3.730618
v -7.16347 13.58656 3.557769
v -7.16347 13.42142 3.730618
v -7.16347 13.58656 -0.06156349
v -7.16347 13.58656 3.557769
v -7.16347 13.42142 -0.06156349
v -7.16347 14.4739 -0.06156349
v -7.16347 14.63907 3.730618
v -7.16347 14.4739 3.557769
v -7.16347 14.63907 -0.06156349
v -7.16347 14.4739 -0.06156349
v -7.014745 14.4739 3.557769
v -7.014745 14.4739 -0.06156349
v -7.16347 14.4739 3.557769
v -7.16347 14.4739 3.557769
v -7.014745 13.58656 3.557769
v -7.014745 14.4739 3.557769
v -7.16347 13.58656 3.557769
v -7.16347 13.58656 3.557769
v -7.014745 13.58656 -0.06156349
v -7.014745 13.58656 3.557769
v -7.16347 13.58656 -0.06156349
v -5.923235 11.79784 8.500266
v -2.947732 17.53229 8.500266
v -7.273589 13.37496 8.500266
v -7.393092 15.32708 8.500266
v -5.776756 17.53657 8.500266
v -5.767728 8.153176 8.500266
v -2.947732 -9.729638 8.500266
v -6.552541 -7.260192 8.500266
v -5.842913 -8.153232 8.500266
v -5.923235 -9.729638 8.500266
v -8.409951 -5.967609 8.500266
v -6.477357 7.260137 8.500266
v -9.53147 -3.505656 8.500266
v -9.53147 3.505601 8.500266
v -9.537858 -4.577637E-05 8.500266
v -8.409951 5.967518 8.500266
v -7.20679 11.41025 5.170536
v -7.962415 15.53729 5.170536
v -4.800289 17.53657 5.170536
v -8.038812 14.03474 5.170536
v -7.28176 9.818397 5.170536
v -6.791047 17.53657 5.170536
v -4.800289 -9.729638 5.156085
v -8.012336 8.527671 5.170536
v -9.547742 6.984378 5.170536
v -10.40967 4.008089 5.170536
v -10.72632 -4.577637E-05 5.170536
v -10.40967 -4.008145 5.170536
v -9.547778 -6.984469 5.170536
v -8.012336 -8.52769 5.170536
v -7.28176 -9.729638 5.170536
v -6.039919 14.03474 3.58628
v -7.20679 11.41029 3.58628
v -6.039919 11.41029 3.58628
v -8.038812 14.03474 3.58628
v -6.039919 15.53729 3.58628
v -7.962415 15.53729 3.58628
v -6.039919 17.53657 3.58628
v -6.791047 17.53657 3.58628
v -6.039919 9.080115 3.58628
v -7.28176 9.818397 3.58628
v -8.012336 8.527671 3.58628
v -6.039919 6.749976 3.58628
v -6.039919 3.810548 3.58628
v -9.547742 6.984378 3.58628
v -10.40967 4.008089 3.58628
v -10.72632 -4.577637E-05 3.58628
v -6.039919 -4.577637E-05 3.58628
v -6.039919 -3.810675 3.58628
v -10.40967 -4.008145 3.58628
v -9.547778 -6.984469 3.58628
v -8.012336 -8.52769 3.58628
v -6.039919 -6.750103 3.58628
v -6.039919 -9.729638 3.58628
v -7.28176 -9.729638 3.58628
v -8.038812 14.03474 5.170536
v -7.20679 11.41029 4.966002
v -8.038812 14.03474 4.966002
v -7.20679 11.41025 5.170536
v -7.20679 11.41029 3.58628
v -8.038812 14.03474 3.790815
v -7.20679 11.41029 3.790815
v -8.038812 14.03474 3.58628
v -8.012336 8.527671 5.170536
v -9.547742 6.984378 4.966002
v -8.012336 8.527671 4.966002
v -9.547742 6.984378 5.170536
v -9.547742 6.984378 3.58628
v -8.012336 8.527671 3.790815
v -9.547742 6.984378 3.790815
v -8.012336 8.527671 3.58628
v -10.40967 4.008089 5.170536
v -10.72632 -4.577637E-05 4.966002
v -10.40967 4.008089 4.966002
v -10.72632 -4.577637E-05 5.170536
v -10.72632 -4.577637E-05 3.58628
v -10.40967 4.008089 3.790815
v -10.72632 -4.577637E-05 3.790815
v -10.40967 4.008089 3.58628
v -9.547742 6.984378 5.170536
v -10.40967 4.008089 4.966002
v -9.547742 6.984378 4.966002
v -10.40967 4.008089 5.170536
v -10.40967 4.008089 3.58628
v -9.547742 6.984378 3.790815
v -10.40967 4.008089 3.790815
v -9.547742 6.984378 3.58628
v -6.791047 17.53657 5.170536
v -7.962415 15.53729 4.966002
v -6.791047 17.53657 4.966002
v -7.962415 15.53729 5.170536
v -7.962415 15.53729 3.58628
v -6.791047 17.53657 3.790815
v -7.962415 15.53729 3.790815
v -6.791047 17.53657 3.58628
v -7.962415 15.53729 5.170536
v -8.038812 14.03474 4.966002
v -7.962415 15.53729 4.966002
v -8.038812 14.03474 5.170536
v -8.038812 14.03474 3.58628
v -7.962415 15.53729 3.790815
v -8.038812 14.03474 3.790815
v -7.962415 15.53729 3.58628
v -7.28176 9.818397 3.58628
v -7.20679 11.41029 3.790815
v -7.28176 9.818397 3.790815
v -7.20679 11.41029 3.58628
v -7.20679 11.41025 5.170536
v -7.28176 9.818397 4.966002
v -7.20679 11.41029 4.966002
v -7.28176 9.818397 5.170536
v -8.012336 8.527671 3.58628
v -7.28176 9.818397 3.790815
v -8.012336 8.527671 3.790815
v -7.28176 9.818397 3.58628
v -7.28176 9.818397 5.170536
v -8.012336 8.527671 4.966002
v -7.28176 9.818397 4.966002
v -8.012336 8.527671 5.170536
v -9.547778 -6.984469 5.170536
v -8.012336 -8.52769 4.966002
v -9.547778 -6.984469 4.966002
v -8.012336 -8.52769 5.170536
v -8.012336 -8.52769 3.58628
v -9.547778 -6.984469 3.790815
v -8.012336 -8.52769 3.790815
v -9.547778 -6.984469 3.58628
v -10.72632 -4.577637E-05 5.170536
v -10.40967 -4.008145 4.966002
v -10.72632 -4.577637E-05 4.966002
v -10.40967 -4.008145 5.170536
v -10.40967 -4.008145 3.58628
v -10.72632 -4.577637E-05 3.790815
v -10.40967 -4.008145 3.790815
v -10.72632 -4.577637E-05 3.58628
v -10.40967 -4.008145 5.170536
v -9.547778 -6.984469 4.966002
v -10.40967 -4.008145 4.966002
v -9.547778 -6.984469 5.170536
v -9.547778 -6.984469 3.58628
v -10.40967 -4.008145 3.790815
v -9.547778 -6.984469 3.790815
v -10.40967 -4.008145 3.58628
v -7.28176 -9.729638 3.58628
v -8.012336 -8.52769 3.790815
v -7.28176 -9.729638 3.790815
v -8.012336 -8.52769 3.58628
v -8.012336 -8.52769 5.170536
v -7.28176 -9.729638 4.966002
v -8.012336 -8.52769 4.966002
v -7.28176 -9.729638 5.170536
v -8.038812 14.03474 4.966002
v -6.923324 11.43787 4.966002
v -7.755774 14.04948 4.966002
v -7.20679 11.41029 4.966002
v -7.20679 11.41029 4.966002
v -7.01032 9.724515 4.966002
v -6.923324 11.43787 4.966002
v -7.28176 9.818397 4.966002
v -7.28176 9.818397 4.966002
v -7.793597 8.327416 4.966002
v -7.01032 9.724515 4.966002
v -8.012336 8.527671 4.966002
v -8.012336 8.527671 4.966002
v -9.308129 6.815526 4.966002
v -7.793597 8.327416 4.966002
v -9.547742 6.984378 4.966002
v -9.547742 6.984378 4.966002
v -10.13062 3.946643 4.966002
v -9.308129 6.815526 4.966002
v -10.40967 4.008089 4.966002
v -10.40967 4.008089 4.966002
v -10.44178 -4.577637E-05 4.966002
v -10.13062 3.946643 4.966002
v -10.72632 -4.577637E-05 4.966002
v -10.72632 -4.577637E-05 4.966002
v -10.13062 -3.946663 4.966002
v -10.44178 -4.577637E-05 4.966002
v -10.40967 -4.008145 4.966002
v -10.40967 -4.008145 4.966002
v -9.308129 -6.815653 4.966002
v -10.13062 -3.946663 4.966002
v -9.547778 -6.984469 4.966002
v -9.547778 -6.984469 4.966002
v -7.793597 -8.327508 4.966002
v -9.308129 -6.815653 4.966002
v -8.012336 -8.52769 4.966002
v -8.012336 -8.52769 4.966002
v -7.01032 -9.729638 4.966002
v -7.793597 -8.327508 4.966002
v -7.28176 -9.729638 4.966002
v -6.791047 17.53657 4.966002
v -7.681518 15.51416 4.966002
v -6.621266 17.41946 4.966002
v -7.962415 15.53729 4.966002
v -7.962415 15.53729 4.966002
v -7.755774 14.04948 4.966002
v -7.681518 15.51416 4.966002
v -8.038812 14.03474 4.966002
v -7.20679 11.41029 3.790815
v -7.755774 14.04948 3.790815
v -6.923324 11.43787 3.790815
v -8.038812 14.03474 3.790815
v -7.681518 15.51416 3.790815
v -7.962415 15.53729 3.790815
v -6.621303 17.41946 3.790815
v -6.791047 17.53657 3.790815
v -7.28176 9.818397 3.790815
v -7.01032 9.724551 3.790815
v -8.012336 8.527671 3.790815
v -7.793597 8.327416 3.790815
v -9.547742 6.984378 3.790815
v -9.308129 6.815526 3.790815
v -10.40967 4.008089 3.790815
v -10.13062 3.946643 3.790815
v -10.72632 -4.577637E-05 3.790815
v -10.44178 -4.577637E-05 3.790815
v -10.40967 -4.008145 3.790815
v -10.13062 -3.946663 3.790815
v -9.547778 -6.984469 3.790815
v -9.308129 -6.815653 3.790815
v -8.012336 -8.52769 3.790815
v -7.793597 -8.327508 3.790815
v -7.28176 -9.729638 3.790815
v -7.01032 -9.729638 3.790815
v -5.845089 7.358014 -0.06156349
v -7.397515 7.358014 3.730618
v -6.645389 7.358014 -0.06156349
v -5.845089 7.358014 3.730618
v -7.16347 7.358014 -0.06156349
v -7.915563 7.358014 3.730618
v -7.16347 6.140367 -0.06156349
v -7.397515 6.140367 3.730618
v -6.645389 6.140367 -0.06156349
v -7.915563 6.140367 3.730618
v -5.845089 6.140367 -0.06156349
v -5.845089 6.140367 3.730618
v -7.766835 6.305507 3.557769
v -7.014745 7.192874 -0.06156349
v -7.766835 7.192874 3.557769
v -7.014745 6.305507 -0.06156349
v -7.915563 6.140367 3.730618
v -7.915563 7.192874 3.557769
v -7.915563 7.358014 3.730618
v -7.915563 6.305507 3.557769
v -7.915563 6.140367 3.730618
v -7.16347 6.305507 -0.06156349
v -7.915563 6.305507 3.557769
v -7.16347 6.140367 -0.06156349
v -7.16347 7.192874 -0.06156349
v -7.915563 7.358014 3.730618
v -7.915563 7.192874 3.557769
v -7.16347 7.358014 -0.06156349
v -7.16347 7.192874 -0.06156349
v -7.766835 7.192874 3.557769
v -7.014745 7.192874 -0.06156349
v -7.915563 7.192874 3.557769
v -7.915563 7.192874 3.557769
v -7.766835 6.305507 3.557769
v -7.766835 7.192874 3.557769
v -7.915563 6.305507 3.557769
v -7.915563 6.305507 3.557769
v -7.014745 6.305507 -0.06156349
v -7.766835 6.305507 3.557769
v -7.16347 6.305507 -0.06156349
v -5.845089 0.5343437 -0.06156349
v -7.397515 0.5343437 3.730618
v -6.645389 0.5343437 -0.06156349
v -5.845089 0.5343437 3.730618
v -7.16347 0.5343437 -0.06156349
v -7.915563 0.5343437 3.730618
v -7.16347 -0.6833048 -0.06156349
v -7.397515 -0.6833048 3.730618
v -6.645389 -0.6833048 -0.06156349
v -7.915563 -0.6833048 3.730618
v -5.845089 -0.6833048 -0.06156349
v -5.845089 -0.6833048 3.730618
v -7.766835 -0.5181284 3.557769
v -7.014745 0.3692026 -0.06156349
v -7.766835 0.3692026 3.557769
v -7.014745 -0.5181284 -0.06156349
v -7.915563 -0.6833048 3.730618
v -7.915563 0.3692026 3.557769
v -7.915563 0.5343437 3.730618
v -7.915563 -0.5181284 3.557769
v -7.915563 -0.6833048 3.730618
v -7.16347 -0.5181284 -0.06156349
v -7.915563 -0.5181284 3.557769
v -7.16347 -0.6833048 -0.06156349
v -7.16347 0.3692026 -0.06156349
v -7.915563 0.5343437 3.730618
v -7.915563 0.3692026 3.557769
v -7.16347 0.5343437 -0.06156349
v -7.16347 0.3692026 -0.06156349
v -7.766835 0.3692026 3.557769
v -7.014745 0.3692026 -0.06156349
v -7.915563 0.3692026 3.557769
v -7.915563 0.3692026 3.557769
v -7.766835 -0.5181284 3.557769
v -7.766835 0.3692026 3.557769
v -7.915563 -0.5181284 3.557769
v -7.915563 -0.5181284 3.557769
v -7.014745 -0.5181284 -0.06156349
v -7.766835 -0.5181284 3.557769
v -7.16347 -0.5181284 -0.06156349
v -5.845089 -6.099458 3.730618
v -7.16347 -6.099458 -0.06156349
v -5.845089 -6.099458 -0.06156349
v -7.16347 -6.099458 3.730618
v -7.16347 -7.317142 3.730618
v -5.845089 -7.317142 -0.06156349
v -7.16347 -7.317142 -0.06156349
v -5.845089 -7.317142 3.730618
v -7.014745 -7.152001 3.557769
v -7.014745 -6.264635 -0.06156349
v -7.014745 -6.264635 3.557769
v -7.014745 -7.152001 -0.06156349
v -7.16347 -7.317142 3.730618
v -7.16347 -6.264635 3.557769
v -7.16347 -6.099458 3.730618
v -7.16347 -7.152001 3.557769
v -7.16347 -7.317142 3.730618
v -7.16347 -7.152001 -0.06156349
v -7.16347 -7.152001 3.557769
v -7.16347 -7.317142 -0.06156349
v -7.16347 -6.264635 -0.06156349
v -7.16347 -6.099458 3.730618
v -7.16347 -6.264635 3.557769
v -7.16347 -6.099458 -0.06156349
v -7.16347 -6.264635 -0.06156349
v -7.014745 -6.264635 3.557769
v -7.014745 -6.264635 -0.06156349
v -7.16347 -6.264635 3.557769
v -7.16347 -6.264635 3.557769
v -7.014745 -7.152001 3.557769
v -7.014745 -6.264635 3.557769
v -7.16347 -7.152001 3.557769
v -7.16347 -7.152001 3.557769
v -7.014745 -7.152001 -0.06156349
v -7.014745 -7.152001 3.557769
v -7.16347 -7.152001 -0.06156349
v -6.540694 7.34028 -0.06156349
v -6.540694 13.43944 3.58628
v -6.540694 7.34028 3.58628
v -6.540694 13.43944 -0.06156349
v -6.540694 -6.169861 -0.06156349
v -6.540694 -0.6031609 3.58628
v -6.540694 -6.169861 3.58628
v -6.540694 -0.6031609 -0.06156349
v -5.401798 0.6569862 21.69561
v 4.286223 8.89228 21.69561
v 4.286223 0.6569862 21.69561
v -5.401798 8.89228 21.69561
v -5.401798 8.89228 21.69561
v -5.401798 0.6569862 20.93902
v -5.401798 8.89228 20.93902
v -5.401798 0.6569862 21.69561
v -5.998062 16.82491 14.90502
v -5.038973 6.498553 14.90502
v -5.998062 6.498553 14.90502
v -5.038973 16.82491 14.90502
v -5.998062 16.82491 9.458426
v -5.038973 16.82491 14.90502
v -5.998062 16.82491 14.90502
v -5.038973 16.82491 9.458426
v -5.038973 6.498553 9.458426
v -5.998062 6.498553 14.90502
v -5.038973 6.498553 14.90502
v -5.998062 6.498553 9.458426
v -5.998062 6.498553 9.458426
v -5.998062 16.82491 14.90502
v -5.998062 6.498553 14.90502
v -5.998062 16.82491 9.458426
v -7.402404 2.532131 15.18463
v -5.038973 6.819915 15.18463
v -6.151214 0.6678343 15.18463
v -5.038973 -6.735865 15.18463
v -6.151214 -1.416342 15.18463
v -7.402404 -3.280603 15.18463
v -7.402404 4.396393 15.18463
v -6.532523 6.260725 15.18463
v -7.402404 -4.598165 15.18463
v -6.836864 -6.294751 15.18463
v -6.532523 6.260725 9.450292
v -5.038973 6.819915 15.18463
v -6.532523 6.260725 15.18463
v -5.038973 6.819915 9.450292
v -7.402404 4.396393 15.18463
v -7.402404 4.396393 9.450292
v -7.402404 2.532131 15.18463
v -7.402404 2.532131 9.450292
v -6.151214 0.6678343 15.18463
v -6.151214 0.6678696 9.450292
v -6.151214 -1.416342 15.18463
v -6.151214 -1.416342 9.450292
v -7.402404 -3.280603 15.18463
v -7.402404 -3.280603 9.450292
v -7.402404 -4.598165 15.18463
v -7.402404 -4.598165 9.450292
v -6.836864 -6.294751 15.18463
v -6.836864 -6.294751 9.450292
v -5.038973 -6.735865 9.450292
v -5.038973 -6.735865 15.18463
v -5.401798 -7.578378 21.69561
v 4.286223 0.6569862 21.69561
v 4.286223 -7.578378 21.69561
v -5.401798 0.6569862 21.69561
v 4.286223 17.12754 21.69561
v -5.401798 8.89228 21.69561
v -5.401798 17.12754 21.69561
v 4.286223 8.89228 21.69561
v -5.401798 17.12754 21.69561
v -5.401798 8.89228 20.93902
v -5.401798 17.12754 20.93902
v -5.401798 8.89228 21.69561
v 4.286223 -7.578378 20.93902
v -5.401798 -7.578378 14.88454
v -5.401798 -7.578378 20.93902
v 4.286223 -7.578378 14.88454
v -5.401798 -7.578378 20.93902
v -5.401798 0.6569862 14.88454
v -5.401798 0.6569862 20.93902
v -5.401798 -7.578378 14.88454
v -5.401798 8.89228 14.88454
v -5.401798 0.6569862 20.93902
v -5.401798 0.6569862 14.88454
v -5.401798 8.89228 20.93902
v -5.401798 17.12754 14.88454
v -5.401798 8.89228 20.93902
v -5.401798 8.89228 14.88454
v -5.401798 17.12754 20.93902
v 4.286223 -7.578378 21.69561
v -5.401798 -7.578378 20.93902
v -5.401798 -7.578378 21.69561
v 4.286223 -7.578378 20.93902
v -5.401798 -7.578378 21.69561
v -5.401798 0.6569862 20.93902
v -5.401798 0.6569862 21.69561
v -5.401798 -7.578378 20.93902
v 3.364316 16.32999 27.68673
v -4.127664 7.929265 27.68673
v -4.127664 16.32999 27.68673
v 3.364316 7.929265 27.68673
v -4.127664 16.32999 21.6059
v -4.127664 7.929265 27.68673
v -4.127664 7.929265 21.6059
v -4.127664 16.32999 27.68673
v -4.127664 7.929265 21.6059
v 3.364316 7.929265 27.68673
v 3.364316 7.929265 21.6059
v -4.127664 7.929265 27.68673
vt 0.7500934 0.9938129
vt 0.5738453 0.8285765
vt 0.7500934 0.8285765
vt 0.5738453 0.9938129
vt 0.3059701 0.7921298
vt 0.2582071 0.8046341
vt 0.337208 0.7922516
vt 0.2755547 0.7907133
vt 0.2922931 0.7907895
vt 0.2567906 0.7923735
vt 0.4927121 0.8042685
vt 0.4769789 0.7920384
vt 0.4692266 0.7913378
vt 0.3447928 0.7915205
vt 0.3556522 0.7895558
vt 0.4579255 0.7894035
vt 0.4066594 0.7883678
vt 0.3766095 0.7884135
vt 0.4366941 0.7883222
vt 0.4912957 0.7918404
vt 0.501622 0.5474051
vt 0.645627 0.643053
vt 0.501622 0.643053
vt 0.645627 0.5474051
vt 0.7500934 0.8285765
vt 0.5738453 0.9938129
vt 0.7500934 0.9938129
vt 0.5738453 0.8285765
vt 0.5042721 0.7877586
vt 0.7492862 0.7704262
vt 0.5042721 0.7704262
vt 0.7492862 0.7877586
vt 0.7492862 0.7704262
vt 0.5042721 0.7877586
vt 0.7492862 0.7877586
vt 0.5042721 0.7704262
vt 0.5042721 0.7877586
vt 0.7492862 0.7704262
vt 0.5042721 0.7704262
vt 0.7492862 0.7877586
vt 0.7492862 0.7704262
vt 0.5042721 0.7877586
vt 0.7492862 0.7877586
vt 0.5042721 0.7704262
vt 0.5042721 0.7877586
vt 0.7492862 0.7704262
vt 0.5042721 0.7704262
vt 0.7492862 0.7877586
vt 0.7492862 0.7704262
vt 0.5042721 0.7877586
vt 0.7492862 0.7877586
vt 0.5042721 0.7704262
vt 0.5042721 0.7877586
vt 0.7492862 0.7704262
vt 0.5042721 0.7704262
vt 0.7492862 0.7877586
vt 0.7492862 0.7704262
vt 0.5042721 0.7877586
vt 0.7492862 0.7877586
vt 0.5042721 0.7704262
vt 0.5042721 0.7877586
vt 0.7492862 0.7704262
vt 0.5042721 0.7704262
vt 0.7492862 0.7877586
vt 0.7492862 0.7704262
vt 0.5042721 0.7877586
vt 0.7492862 0.7877586
vt 0.5042721 0.7704262
vt 0.5042721 0.7877586
vt 0.7492862 0.7704262
vt 0.5042721 0.7704262
vt 0.7492862 0.7877586
vt 0.7492862 0.7704262
vt 0.5042721 0.7877586
vt 0.7492862 0.7877586
vt 0.5042721 0.7704262
vt 0.7492862 0.7704262
vt 0.5042721 0.7877586
vt 0.7492862 0.7877586
vt 0.5042721 0.7704262
vt 0.5042721 0.7877586
vt 0.7492862 0.7704262
vt 0.5042721 0.7704262
vt 0.7492862 0.7877586
vt 0.7492862 0.7704262
vt 0.5042721 0.7877586
vt 0.7492862 0.7877586
vt 0.5042721 0.7704262
vt 0.5042721 0.7877586
vt 0.7492862 0.7704262
vt 0.5042721 0.7704262
vt 0.7492862 0.7877586
vt 0.5042721 0.7877586
vt 0.7492862 0.7704262
vt 0.5042721 0.7704262
vt 0.7492862 0.7877586
vt 0.7492862 0.7704262
vt 0.5042721 0.7877586
vt 0.7492862 0.7877586
vt 0.5042721 0.7704262
vt 0.5042721 0.7877586
vt 0.7492862 0.7704262
vt 0.5042721 0.7704262
vt 0.7492862 0.7877586
vt 0.7492862 0.7704262
vt 0.5042721 0.7877586
vt 0.7492862 0.7877586
vt 0.5042721 0.7704262
vt 0.5042721 0.7877586
vt 0.7492862 0.7704262
vt 0.5042721 0.7704262
vt 0.7492862 0.7877586
vt 0.7492862 0.7704262
vt 0.5042721 0.7877586
vt 0.7492862 0.7877586
vt 0.5042721 0.7704262
vt 0.7492862 0.7704262
vt 0.5042721 0.7877586
vt 0.7492862 0.7877586
vt 0.5042721 0.7704262
vt 0.5042721 0.7877586
vt 0.7492862 0.7704262
vt 0.5042721 0.7704262
vt 0.7492862 0.7877586
vt 0.7492862 0.7704262
vt 0.5042721 0.7877586
vt 0.7492862 0.7877586
vt 0.5042721 0.7704262
vt 0.5042721 0.7877586
vt 0.7492862 0.7704262
vt 0.5042721 0.7704262
vt 0.7492862 0.7877586
vt 0.3771578 0.7999126
vt 0.4815633 0.789434
vt 0.3771578 0.789434
vt 0.4815633 0.7999126
vt 0.3771578 0.7999126
vt 0.4815633 0.789434
vt 0.3771578 0.789434
vt 0.4815633 0.7999126
vt 0.3771578 0.7999126
vt 0.4815633 0.789434
vt 0.3771578 0.789434
vt 0.4815633 0.7999126
vt 0.3771578 0.7999126
vt 0.4815633 0.789434
vt 0.3771578 0.789434
vt 0.4815633 0.7999126
vt 0.3771578 0.7999126
vt 0.4815633 0.789434
vt 0.3771578 0.789434
vt 0.4815633 0.7999126
vt 0.3771578 0.7999126
vt 0.4815633 0.789434
vt 0.3771578 0.789434
vt 0.4815633 0.7999126
vt 0.3771578 0.7999126
vt 0.4815633 0.789434
vt 0.3771578 0.789434
vt 0.4815633 0.7999126
vt 0.3771578 0.7999126
vt 0.4815633 0.789434
vt 0.3771578 0.789434
vt 0.4815633 0.7999126
vt 0.3771578 0.7999126
vt 0.4815633 0.789434
vt 0.3771578 0.789434
vt 0.4815633 0.7999126
vt 0.3771578 0.7999126
vt 0.4815633 0.789434
vt 0.3771578 0.789434
vt 0.4815633 0.7999126
vt 0.3771578 0.7999126
vt 0.4815633 0.789434
vt 0.3771578 0.789434
vt 0.4815633 0.7999126
vt 0.3771578 0.7999126
vt 0.4815633 0.789434
vt 0.3771578 0.789434
vt 0.4815633 0.7999126
vt 0.3771578 0.7999126
vt 0.4815633 0.789434
vt 0.3771578 0.789434
vt 0.4815633 0.7999126
vt 0.5586909 0.7764118
vt 0.5439782 0.7859614
vt 0.5586909 0.7859614
vt 0.5439782 0.7764118
vt 0.52692 0.7859614
vt 0.52692 0.7764118
vt 0.5077751 0.7859614
vt 0.5077751 0.7764118
vt 0.5863801 0.7764118
vt 0.5863801 0.7859614
vt 0.6046263 0.7764118
vt 0.6046263 0.7859614
vt 0.617359 0.7764118
vt 0.617359 0.7859614
vt 0.6354529 0.7764118
vt 0.6354529 0.7859614
vt 0.6581008 0.7764118
vt 0.6581008 0.7859614
vt 0.6836882 0.7764118
vt 0.6836882 0.7859614
vt 0.7060771 0.7764118
vt 0.7060771 0.7859614
vt 0.7244299 0.7764118
vt 0.7244299 0.7859614
vt 0.7377414 0.7764118
vt 0.7377414 0.7859614
vt 0.7486465 0.7764118
vt 0.7486465 0.7859614
vt 0.7528349 0.7533985
vt 0.9224425 0.9975444
vt 0.9224425 0.7533985
vt 0.7528349 0.9975444
vt 0.7528349 0.7533985
vt 0.9224425 0.9975444
vt 0.9224425 0.7533985
vt 0.7528349 0.9975444
vt 0.7528349 0.7533985
vt 0.9224425 0.9975444
vt 0.9224425 0.7533985
vt 0.7528349 0.9975444
vt 0.7528349 0.7533985
vt 0.9224425 0.9975444
vt 0.9224425 0.7533985
vt 0.7528349 0.9975444
vt 0.7528349 0.7533985
vt 0.9224425 0.9975444
vt 0.9224425 0.7533985
vt 0.7528349 0.9975444
vt 0.9224425 0.9975444
vt 0.7528349 0.7533985
vt 0.7528349 0.9975444
vt 0.7528349 0.7533985
vt 0.9224425 0.9975444
vt 0.9224425 0.7533985
vt 0.9224425 0.9975444
vt 0.7528349 0.7533985
vt 0.7528349 0.9975444
vt 0.9224425 0.7533985
vt 0.9224425 0.7533985
vt 0.7528349 0.9975444
vt 0.9224425 0.9975444
vt 0.7528349 0.7533985
vt 0.7528349 0.9975444
vt 0.9224425 0.7533985
vt 0.7528349 0.7533985
vt 0.9224425 0.7533985
vt 0.7528349 0.9975444
vt 0.9224425 0.9975444
vt 0.7528349 0.9975444
vt 0.9224425 0.7533985
vt 0.7528349 0.7533985
vt 0.9224425 0.7533985
vt 0.7528349 0.9975444
vt 0.9224425 0.9975444
vt 0.4989109 0.9992198
vt 0.2517341 0.9788108
vt 0.2517341 0.9992198
vt 0.4989109 0.9788108
vt 0.2517341 0.9788108
vt 0.4989109 0.9992198
vt 0.4989109 0.9788108
vt 0.2517341 0.9992198
vt 0.5029623 0.7506874
vt 0.6144043 0.7683549
vt 0.5029623 0.7683549
vt 0.6144043 0.7506874
vt 0.2517341 0.9992198
vt 0.4601949 0.9788108
vt 0.4989109 0.9992198
vt 0.2517341 0.9788108
vt 0.4989109 0.948502
vt 0.2517341 0.9524162
vt 0.4989109 0.9524162
vt 0.2517341 0.948502
vt 0.4989109 0.9524162
vt 0.2517341 0.948502
vt 0.2517341 0.9524162
vt 0.4989109 0.948502
vt 0.4989109 0.948502
vt 0.2517341 0.9524162
vt 0.4989109 0.9524162
vt 0.2517341 0.948502
vt 0.4601949 0.9788108
vt 0.2517341 0.9788108
vt 0.4601949 0.9788108
vt 0.2517341 0.9788108
vt 0.4989109 0.948502
vt 0.2517341 0.9524162
vt 0.4989109 0.9524162
vt 0.2517341 0.948502
vt 0.3028479 0.7983743
vt 0.2561053 0.7902716
vt 0.290237 0.8002781
vt 0.274519 0.8004457
vt 0.2565622 0.7982525
vt 0.3322124 0.7981154
vt 0.4767505 0.7898604
vt 0.4564938 0.7988617
vt 0.463637 0.7978565
vt 0.4771464 0.7980545
vt 0.4462589 0.8015575
vt 0.3394622 0.7990749
vt 0.4264896 0.8031415
vt 0.3699842 0.8032481
vt 0.3982521 0.8032024
vt 0.3500474 0.801725
vt 0.4386741 0.7959222
vt 0.4746182 0.797826
vt 0.4921181 0.7899823
vt 0.4615047 0.7979935
vt 0.4248142 0.7960897
vt 0.4920572 0.7949322
vt 0.2546584 0.7897233
vt 0.4135588 0.7978717
vt 0.4000798 0.8016946
vt 0.3741269 0.8038116
vt 0.3392032 0.8045579
vt 0.30431 0.8037355
vt 0.2784028 0.8015575
vt 0.2650152 0.7977346
vt 0.2545822 0.7958917
vt 0.2838858 0.7912616
vt 0.3051477 0.7943534
vt 0.3050563 0.7912007
vt 0.2840686 0.7966685
vt 0.2717927 0.7913226
vt 0.2719603 0.7965162
vt 0.2556788 0.7913835
vt 0.2557397 0.7933939
vt 0.3238356 0.7911398
vt 0.3179871 0.794521
vt 0.3284504 0.7964553
vt 0.3425997 0.7910637
vt 0.3663136 0.7909722
vt 0.3410309 0.8005675
vt 0.36508 0.8028064
vt 0.3974144 0.8035679
vt 0.3970032 0.7908504
vt 0.4277385 0.790759
vt 0.4297032 0.8025932
vt 0.4536 0.8001715
vt 0.4659063 0.7959679
vt 0.4514068 0.7906524
vt 0.4753949 0.7905915
vt 0.4755016 0.7939422
vt 0.5042721 0.7877586
vt 0.7492862 0.7704262
vt 0.5042721 0.7704262
vt 0.7492862 0.7877586
vt 0.7492862 0.7704262
vt 0.5042721 0.7877586
vt 0.7492862 0.7877586
vt 0.5042721 0.7704262
vt 0.5042721 0.7877586
vt 0.7492862 0.7704262
vt 0.5042721 0.7704262
vt 0.7492862 0.7877586
vt 0.7492862 0.7704262
vt 0.5042721 0.7877586
vt 0.7492862 0.7877586
vt 0.5042721 0.7704262
vt 0.5042721 0.7877586
vt 0.7492862 0.7704262
vt 0.5042721 0.7704262
vt 0.7492862 0.7877586
vt 0.7492862 0.7704262
vt 0.5042721 0.7877586
vt 0.7492862 0.7877586
vt 0.5042721 0.7704262
vt 0.5042721 0.7877586
vt 0.7492862 0.7704262
vt 0.5042721 0.7704262
vt 0.7492862 0.7877586
vt 0.7492862 0.7704262
vt 0.5042721 0.7877586
vt 0.7492862 0.7877586
vt 0.5042721 0.7704262
vt 0.5042721 0.7877586
vt 0.7492862 0.7704262
vt 0.5042721 0.7704262
vt 0.7492862 0.7877586
vt 0.7492862 0.7704262
vt 0.5042721 0.7877586
vt 0.7492862 0.7877586
vt 0.5042721 0.7704262
vt 0.5042721 0.7877586
vt 0.7492862 0.7704262
vt 0.5042721 0.7704262
vt 0.7492862 0.7877586
vt 0.7492862 0.7704262
vt 0.5042721 0.7877586
vt 0.7492862 0.7877586
vt 0.5042721 0.7704262
vt 0.7492862 0.7704262
vt 0.5042721 0.7877586
vt 0.7492862 0.7877586
vt 0.5042721 0.7704262
vt 0.5042721 0.7877586
vt 0.7492862 0.7704262
vt 0.5042721 0.7704262
vt 0.7492862 0.7877586
vt 0.7492862 0.7704262
vt 0.5042721 0.7877586
vt 0.7492862 0.7877586
vt 0.5042721 0.7704262
vt 0.5042721 0.7877586
vt 0.7492862 0.7704262
vt 0.5042721 0.7704262
vt 0.7492862 0.7877586
vt 0.5042721 0.7877586
vt 0.7492862 0.7704262
vt 0.5042721 0.7704262
vt 0.7492862 0.7877586
vt 0.7492862 0.7704262
vt 0.5042721 0.7877586
vt 0.7492862 0.7877586
vt 0.5042721 0.7704262
vt 0.5042721 0.7877586
vt 0.7492862 0.7704262
vt 0.5042721 0.7704262
vt 0.7492862 0.7877586
vt 0.7492862 0.7704262
vt 0.5042721 0.7877586
vt 0.7492862 0.7877586
vt 0.5042721 0.7704262
vt 0.5042721 0.7877586
vt 0.7492862 0.7704262
vt 0.5042721 0.7704262
vt 0.7492862 0.7877586
vt 0.7492862 0.7704262
vt 0.5042721 0.7877586
vt 0.7492862 0.7877586
vt 0.5042721 0.7704262
vt 0.7492862 0.7704262
vt 0.5042721 0.7877586
vt 0.7492862 0.7877586
vt 0.5042721 0.7704262
vt 0.5042721 0.7877586
vt 0.7492862 0.7704262
vt 0.5042721 0.7704262
vt 0.7492862 0.7877586
vt 0.3771578 0.7999126
vt 0.4815633 0.789434
vt 0.3771578 0.789434
vt 0.4815633 0.7999126
vt 0.3771578 0.7999126
vt 0.4815633 0.789434
vt 0.3771578 0.789434
vt 0.4815633 0.7999126
vt 0.3771578 0.7999126
vt 0.4815633 0.789434
vt 0.3771578 0.789434
vt 0.4815633 0.7999126
vt 0.3771578 0.7999126
vt 0.4815633 0.789434
vt 0.3771578 0.789434
vt 0.4815633 0.7999126
vt 0.3771578 0.7999126
vt 0.4815633 0.789434
vt 0.3771578 0.789434
vt 0.4815633 0.7999126
vt 0.3771578 0.7999126
vt 0.4815633 0.789434
vt 0.3771578 0.789434
vt 0.4815633 0.7999126
vt 0.3771578 0.7999126
vt 0.4815633 0.789434
vt 0.3771578 0.789434
vt 0.4815633 0.7999126
vt 0.3771578 0.7999126
vt 0.4815633 0.789434
vt 0.3771578 0.789434
vt 0.4815633 0.7999126
vt 0.3771578 0.7999126
vt 0.4815633 0.789434
vt 0.3771578 0.789434
vt 0.4815633 0.7999126
vt 0.3771578 0.7999126
vt 0.4815633 0.789434
vt 0.3771578 0.789434
vt 0.4815633 0.7999126
vt 0.3771578 0.7999126
vt 0.4815633 0.789434
vt 0.3771578 0.789434
vt 0.4815633 0.7999126
vt 0.3771578 0.7999126
vt 0.4815633 0.789434
vt 0.3771578 0.789434
vt 0.4815633 0.7999126
vt 0.5538933 0.7761529
vt 0.5382515 0.7858396
vt 0.5538933 0.7858396
vt 0.5382515 0.7761529
vt 0.5243003 0.7858396
vt 0.5243003 0.7761529
vt 0.5081863 0.7858396
vt 0.5081863 0.7761529
vt 0.5661082 0.7761529
vt 0.5661082 0.7858396
vt 0.5779271 0.7761529
vt 0.5779271 0.7858396
vt 0.59133 0.7761529
vt 0.59133 0.7858396
vt 0.6104291 0.7761529
vt 0.6104291 0.7858396
vt 0.6365191 0.7761529
vt 0.6365191 0.7858396
vt 0.665975 0.7761529
vt 0.665975 0.7858396
vt 0.6917908 0.7761529
vt 0.6917908 0.7858396
vt 0.7110727 0.7761529
vt 0.7110727 0.7858396
vt 0.7238207 0.7761529
vt 0.7238207 0.7858396
vt 0.2517341 0.9992198
vt 0.4989109 0.9870049
vt 0.2517341 0.9870049
vt 0.4989109 0.9992198
vt 0.2517341 0.9788108
vt 0.4989109 0.9788108
vt 0.4989109 0.9788108
vt 0.2517341 0.9870049
vt 0.4989109 0.9870049
vt 0.2517341 0.9788108
vt 0.4989109 0.9992198
vt 0.2517341 0.9992198
vt 0.5029623 0.7506874
vt 0.6144043 0.7683549
vt 0.5029623 0.7683549
vt 0.6144043 0.7506874
vt 0.2517341 0.9992198
vt 0.4601949 0.9788108
vt 0.4989109 0.9992198
vt 0.2517341 0.9788108
vt 0.4989109 0.948502
vt 0.2517341 0.9524162
vt 0.4989109 0.9524162
vt 0.2517341 0.948502
vt 0.4989109 0.9524162
vt 0.2517341 0.948502
vt 0.2517341 0.9524162
vt 0.4989109 0.948502
vt 0.4989109 0.948502
vt 0.2517341 0.9524162
vt 0.4989109 0.9524162
vt 0.2517341 0.948502
vt 0.4601949 0.9788108
vt 0.2517341 0.9788108
vt 0.4601949 0.9788108
vt 0.2517341 0.9788108
vt 0.4989109 0.948502
vt 0.2517341 0.9524162
vt 0.4989109 0.9524162
vt 0.2517341 0.948502
vt 0.2517341 0.9992198
vt 0.4989109 0.9870049
vt 0.2517341 0.9870049
vt 0.4989109 0.9992198
vt 0.2517341 0.9788108
vt 0.4989109 0.9788108
vt 0.4989109 0.9788108
vt 0.2517341 0.9870049
vt 0.4989109 0.9870049
vt 0.2517341 0.9788108
vt 0.4989109 0.9992198
vt 0.2517341 0.9992198
vt 0.5029623 0.7506874
vt 0.6144043 0.7683549
vt 0.5029623 0.7683549
vt 0.6144043 0.7506874
vt 0.2517341 0.9992198
vt 0.4601949 0.9788108
vt 0.4989109 0.9992198
vt 0.2517341 0.9788108
vt 0.4989109 0.948502
vt 0.2517341 0.9524162
vt 0.4989109 0.9524162
vt 0.2517341 0.948502
vt 0.4989109 0.9524162
vt 0.2517341 0.948502
vt 0.2517341 0.9524162
vt 0.4989109 0.948502
vt 0.4989109 0.948502
vt 0.2517341 0.9524162
vt 0.4989109 0.9524162
vt 0.2517341 0.948502
vt 0.4601949 0.9788108
vt 0.2517341 0.9788108
vt 0.4601949 0.9788108
vt 0.2517341 0.9788108
vt 0.4989109 0.948502
vt 0.2517341 0.9524162
vt 0.4989109 0.9524162
vt 0.2517341 0.948502
vt 0.4989109 0.9992198
vt 0.2517341 0.9788108
vt 0.2517341 0.9992198
vt 0.4989109 0.9788108
vt 0.2517341 0.9788108
vt 0.4989109 0.9992198
vt 0.4989109 0.9788108
vt 0.2517341 0.9992198
vt 0.5029623 0.7506874
vt 0.6144043 0.7683549
vt 0.5029623 0.7683549
vt 0.6144043 0.7506874
vt 0.2517341 0.9992198
vt 0.4601949 0.9788108
vt 0.4989109 0.9992198
vt 0.2517341 0.9788108
vt 0.4989109 0.948502
vt 0.2517341 0.9524162
vt 0.4989109 0.9524162
vt 0.2517341 0.948502
vt 0.4989109 0.9524162
vt 0.2517341 0.948502
vt 0.2517341 0.9524162
vt 0.4989109 0.948502
vt 0.4989109 0.948502
vt 0.2517341 0.9524162
vt 0.4989109 0.9524162
vt 0.2517341 0.948502
vt 0.4601949 0.9788108
vt 0.2517341 0.9788108
vt 0.4601949 0.9788108
vt 0.2517341 0.9788108
vt 0.4989109 0.948502
vt 0.2517341 0.9524162
vt 0.4989109 0.9524162
vt 0.2517341 0.948502
vt 0.5025206 0.646358
vt 0.6440734 0.7480068
vt 0.5025206 0.7480068
vt 0.6440734 0.646358
vt 0.6456879 0.548197
vt 0.5009366 0.6423981
vt 0.6456879 0.6423981
vt 0.5009366 0.548197
vt 0.4978753 0.5011498
vt 0.2518864 0.7479764
vt 0.4978753 0.7479764
vt 0.2518864 0.5011498
vt 0.516487 0.7882155
vt 0.7461334 0.7506722
vt 0.516487 0.7506722
vt 0.7461334 0.7882155
vt 0.4464569 0.9389067
vt 0.2833223 0.9329211
vt 0.2833223 0.9389067
vt 0.4464569 0.9329211
vt 0.4464569 0.9389067
vt 0.2833223 0.9329211
vt 0.2833223 0.9389067
vt 0.4464569 0.9329211
vt 0.2833223 0.9329211
vt 0.4464569 0.9389067
vt 0.4464569 0.9329211
vt 0.2833223 0.9389067
vt 0.2491297 0.627792
vt 0.001084692 0.7487836
vt 0.2491297 0.7487836
vt 0.001084692 0.627792
vt 0.07844073 0.6074439
vt 0.003338815 0.6256444
vt 0.1132121 0.6169326
vt 0.2477285 0.6251419
vt 0.1508011 0.6168565
vt 0.1832422 0.6072459
vt 0.04482688 0.6075048
vt 0.01203547 0.6142216
vt 0.2069715 0.607185
vt 0.2380875 0.6114343
vt 0.0254536 0.5015154
vt 0.002364059 0.6238777
vt 0.0254536 0.6238777
vt 0.002364059 0.5015154
vt 0.05527505 0.6238777
vt 0.05527505 0.5015154
vt 0.08229407 0.6238777
vt 0.08229407 0.5015154
vt 0.1148113 0.6238777
vt 0.1148113 0.5015154
vt 0.1450288 0.6238777
vt 0.1450288 0.5015154
vt 0.177546 0.6238777
vt 0.177546 0.5015154
vt 0.1966451 0.6238777
vt 0.1966451 0.5015154
vt 0.2225371 0.6238777
vt 0.2225371 0.5015154
vt 0.2493734 0.5015154
vt 0.2493734 0.6238777
vt 0.4978753 0.5011498
vt 0.2518864 0.7479764
vt 0.4978753 0.7479764
vt 0.2518864 0.5011498
vt 0.2518864 0.7479764
vt 0.4978753 0.5011498
vt 0.2518864 0.5011498
vt 0.4978753 0.7479764
vt 0.516487 0.7882155
vt 0.7461334 0.7506722
vt 0.516487 0.7506722
vt 0.7461334 0.7882155
vt 0.497129 0.7451283
vt 0.2554351 0.5035563
vt 0.2554351 0.7451283
vt 0.497129 0.5035563
vt 0.497129 0.7451283
vt 0.2554351 0.5035563
vt 0.2554351 0.7451283
vt 0.497129 0.5035563
vt 0.2554351 0.5035563
vt 0.497129 0.7451283
vt 0.497129 0.5035563
vt 0.2554351 0.7451283
vt 0.2554351 0.5035563
vt 0.497129 0.7451283
vt 0.497129 0.5035563
vt 0.2554351 0.7451283
vt 0.7461334 0.7882155
vt 0.516487 0.7506722
vt 0.516487 0.7882155
vt 0.7461334 0.7506722
vt 0.7461334 0.7882155
vt 0.516487 0.7506722
vt 0.516487 0.7882155
vt 0.7461334 0.7506722
vt 0.4977991 0.7403458
vt 0.2552676 0.5018048
vt 0.2552676 0.7403458
vt 0.4977991 0.5018048
vt 0.2552676 0.5018048
vt 0.4977991 0.7403458
vt 0.4977991 0.5018048
vt 0.2552676 0.7403458
vt 0.2552676 0.5018048
vt 0.4977991 0.7403458
vt 0.4977991 0.5018048
vt 0.2552676 0.7403458
vn -0.9999923 -0.003921568 -0.0003442513
vn -0.9999923 -0.003921568 -0.0003442513
vn -0.9999923 -0.003921568 -0.0003442513
vn -0.9999923 -0.003921568 -0.0003442513
vn 0.01176465 -0.01176465 0.9998616
vn 0.01176465 -0.01176465 0.9998616
vn 0.01176465 -0.01176465 0.9998616
vn 0.01176465 -0.01176465 0.9998616
vn 0.01176465 -0.01176465 0.9998616
vn 0.01176465 -0.01176465 0.9998616
vn 0.01176465 -0.01176465 0.9998616
vn 0.01176465 -0.01176465 0.9998616
vn 0.01176465 -0.01176465 0.9998616
vn 0.01176465 -0.01176465 0.9998616
vn 0.01176465 -0.01176465 0.9998616
vn 0.01176465 -0.01176465 0.9998616
vn 0.01176465 -0.01176465 0.9998616
vn 0.01176465 -0.01176465 0.9998616
vn 0.01176465 -0.01176465 0.9998616
vn 0.01176465 -0.01176465 0.9998616
vn -0.9999923 -0.003921568 -0.0003442513
vn -0.9999923 -0.003921568 -0.0003442513
vn -0.9999923 -0.003921568 -0.0003442513
vn -0.9999923 -0.003921568 -0.0003442513
vn -0.9999923 -0.003921568 -0.0003442513
vn -0.9999923 -0.003921568 -0.0003442513
vn -0.9999923 -0.003921568 -0.0003442513
vn -0.9999923 -0.003921568 -0.0003442513
vn -0.9215615 -0.3882324 -0.0002441406
vn -0.9215615 -0.3725462 -0.1092417
vn -0.9215615 -0.3882324 -0.0002441406
vn -0.9215615 -0.3725462 -0.1092417
vn -0.9215615 -0.3725462 -0.1092417
vn -0.9215615 -0.3882324 -0.0002441406
vn -0.9215615 -0.3725462 -0.1092417
vn -0.9215615 -0.3882324 -0.0002441406
vn -0.670583 0.7333276 -0.1120222
vn -0.7568569 0.6470538 -0.09213535
vn -0.670583 0.7333276 0.1120222
vn -0.7568569 0.6470538 -0.09213535
vn -0.7568569 0.6470538 -0.09213535
vn -0.670583 0.7333276 -0.1120222
vn -0.7568569 0.6470538 -0.09213535
vn -0.670583 0.7333276 0.1120222
vn -0.9764631 0.2078415 -0.0576349
vn -0.9999923 -0.003921568 -0.0003442513
vn -0.9764631 0.2078415 -0.0576349
vn -0.9999923 -0.003921568 -0.0003442513
vn -0.9999923 -0.003921568 -0.0003442513
vn -0.9764631 0.2078415 0.0576349
vn -0.9999923 -0.003921568 -0.0003442513
vn -0.9764631 0.2078415 0.0576349
vn -0.7568569 0.6470538 -0.09213535
vn -0.9764631 0.2078415 -0.0576349
vn -0.7568569 0.6470538 -0.09213535
vn -0.9764631 0.2078415 -0.0576349
vn -0.9764631 0.2078415 0.0576349
vn -0.7568569 0.6470538 -0.09213535
vn -0.9764631 0.2078415 0.0576349
vn -0.7568569 0.6470538 -0.09213535
vn -0.8039154 0.5843092 -0.1109181
vn -0.9529338 0.2784292 -0.1199768
vn -0.8039154 0.5843092 -0.1109181
vn -0.9529338 0.2784292 -0.1199768
vn -0.9529338 0.2784292 -0.1199768
vn -0.8039154 0.5843092 -0.1109181
vn -0.9529338 0.2784292 -0.1199768
vn -0.8039154 0.5843092 -0.1109181
vn -0.9529338 0.2784292 -0.1199768
vn -0.9215615 -0.3882324 -0.0002441406
vn -0.9529338 0.2784292 -0.1199768
vn -0.9215615 -0.3882324 -0.0002441406
vn -0.9215615 -0.3882324 -0.0002441406
vn -0.9529338 0.2784292 -0.1199768
vn -0.9215615 -0.3882324 -0.0002441406
vn -0.9529338 0.2784292 -0.1199768
vn -0.9450908 0.3019584 0.1249981
vn -0.9215615 -0.3725462 -0.1092417
vn -0.9450908 0.3019584 0.1249981
vn -0.9215615 -0.3725462 -0.1092417
vn -0.9215615 -0.3725462 -0.1092417
vn -0.9450908 0.3019584 0.1249981
vn -0.9215615 -0.3725462 -0.1092417
vn -0.9450908 0.3019584 0.1249981
vn -0.670583 0.7333276 0.1120222
vn -0.9450908 0.3019584 0.1249981
vn -0.670583 0.7333276 -0.1120222
vn -0.9450908 0.3019584 0.1249981
vn -0.9450908 0.3019584 0.1249981
vn -0.670583 0.7333276 0.1120222
vn -0.9450908 0.3019584 0.1249981
vn -0.670583 0.7333276 -0.1120222
vn -0.7490138 -0.654897 -0.1004407
vn -0.6670228 -0.7450373 0
vn -0.7490138 -0.654897 -0.1004407
vn -0.6670228 -0.7450373 0
vn -0.6751943 -0.73764 0
vn -0.7568569 -0.6470539 -0.09213487
vn -0.6751943 -0.73764 0
vn -0.7568569 -0.6470539 -0.09213487
vn -0.9999923 -0.003921568 -0.0003442513
vn -0.9764631 -0.2156847 -8.631674E-05
vn -0.9999923 -0.003921568 -0.0003442513
vn -0.9764631 -0.2156847 -8.631674E-05
vn -0.9764631 -0.2156847 -8.631674E-05
vn -0.9999923 -0.003921568 -0.0003442513
vn -0.9764631 -0.2156847 -8.631674E-05
vn -0.9999923 -0.003921568 -0.0003442513
vn -0.9764631 -0.2156847 -8.631674E-05
vn -0.7490138 -0.654897 -0.1004407
vn -0.9764631 -0.2156847 -8.631674E-05
vn -0.7490138 -0.654897 -0.1004407
vn -0.7568569 -0.6470539 -0.09213487
vn -0.9764631 -0.2156847 -8.631674E-05
vn -0.7568569 -0.6470539 -0.09213487
vn -0.9764631 -0.2156847 -8.631674E-05
vn -0.9921492 0.04313684 -0.1173845
vn -0.9450908 -0.3176447 0.07684591
vn -0.9921492 0.04313684 -0.1173845
vn -0.9450908 -0.3176447 0.07684591
vn -0.9529338 -0.2941154 0.07357534
vn -0.9921492 0.09803843 -0.07764255
vn -0.9529338 -0.2941154 0.07357534
vn -0.9921492 0.09803843 -0.07764255
vn -0.9450908 -0.3176447 0.07684591
vn -0.6751943 -0.73764 0
vn -0.9450908 -0.3176447 0.07684591
vn -0.6751943 -0.73764 0
vn -0.6670228 -0.7450373 0
vn -0.9529338 -0.2941154 0.07357534
vn -0.6670228 -0.7450373 0
vn -0.9529338 -0.2941154 0.07357534
vn 0.01176465 -0.01176465 -0.9998616
vn 0.01176465 -0.01176465 -0.9998616
vn 0.01176465 -0.01176465 -0.9998616
vn 0.01176465 -0.01176465 -0.9998616
vn 0.01176465 -0.01176465 -0.9998616
vn 0.01176465 -0.01176465 -0.9998616
vn 0.01176465 -0.01176465 -0.9998616
vn 0.01176465 -0.01176465 -0.9998616
vn 0.01176465 -0.01176465 -0.9998616
vn 0.01176465 -0.01176465 -0.9998616
vn 0.01176465 -0.01176465 -0.9998616
vn 0.01176465 -0.01176465 -0.9998616
vn 0.01176465 -0.01176465 -0.9998616
vn 0.01176465 -0.01176465 -0.9998616
vn 0.01176465 -0.01176465 -0.9998616
vn 0.01176465 -0.01176465 -0.9998616
vn 0.01176465 -0.01176465 -0.9998616
vn 0.01176465 -0.01176465 -0.9998616
vn 0.01176465 -0.01176465 -0.9998616
vn 0.01176465 -0.01176465 -0.9998616
vn 0.01176465 -0.01176465 -0.9998616
vn 0.01176465 -0.01176465 -0.9998616
vn 0.01176465 -0.01176465 -0.9998616
vn 0.01176465 -0.01176465 -0.9998616
vn 0.01176465 -0.01176465 -0.9998616
vn 0.01176465 -0.01176465 -0.9998616
vn 0.01176465 -0.01176465 -0.9998616
vn 0.01176465 -0.01176465 -0.9998616
vn 0.01176465 -0.01176465 -0.9998616
vn 0.01176465 -0.01176465 -0.9998616
vn 0.01176465 -0.01176465 -0.9998616
vn 0.01176465 -0.01176465 -0.9998616
vn 0.01176465 -0.01176465 -0.9998616
vn 0.01176465 -0.01176465 -0.9998616
vn 0.01176465 -0.01176465 -0.9998616
vn 0.01176465 -0.01176465 -0.9998616
vn 0.01176465 -0.01176465 -0.9998616
vn 0.01176465 -0.01176465 -0.9998616
vn 0.01176465 -0.01176465 -0.9998616
vn 0.01176465 -0.01176465 -0.9998616
vn 0.01176465 -0.01176465 -0.9998616
vn 0.01176465 -0.01176465 -0.9998616
vn 0.01176465 -0.01176465 -0.9998616
vn 0.01176465 -0.01176465 -0.9998616
vn 0.01176465 -0.01176465 -0.9998616
vn 0.01176465 -0.01176465 -0.9998616
vn 0.01176465 -0.01176465 -0.9998616
vn 0.01176465 -0.01176465 -0.9998616
vn 0.01176465 -0.01176465 -0.9998616
vn 0.01176465 -0.01176465 -0.9998616
vn 0.01176465 -0.01176465 -0.9998616
vn 0.01176465 -0.01176465 -0.9998616
vn 0.01176465 -0.01176465 0.9998616
vn 0.01176465 -0.01176465 0.9998616
vn 0.01176465 -0.01176465 0.9998616
vn 0.01176465 -0.01176465 0.9998616
vn 0.01176465 -0.01176465 0.9998616
vn 0.01176465 -0.01176465 0.9998616
vn 0.01176465 -0.01176465 0.9998616
vn 0.01176465 -0.01176465 0.9998616
vn 0.01176465 -0.01176465 0.9998616
vn 0.01176465 -0.01176465 0.9998616
vn 0.01176465 -0.01176465 0.9998616
vn 0.01176465 -0.01176465 0.9998616
vn 0.01176465 -0.01176465 0.9998616
vn 0.01176465 -0.01176465 0.9998616
vn 0.01176465 -0.01176465 0.9998616
vn 0.01176465 -0.01176465 0.9998616
vn 0.01176465 -0.01176465 0.9998616
vn 0.01176465 -0.01176465 0.9998616
vn 0.01176465 -0.01176465 0.9998616
vn 0.01176465 -0.01176465 0.9998616
vn 0.01176465 -0.01176465 0.9998616
vn 0.01176465 -0.01176465 0.9998616
vn 0.01176465 -0.01176465 0.9998616
vn 0.01176465 -0.01176465 0.9998616
vn 0.01176465 -0.01176465 0.9998616
vn 0.01176465 -0.01176465 0.9998616
vn 0.01176465 -0.01176465 0.9998616
vn 0.01176465 -0.01176465 0.9998616
vn -0.7803861 0.5999954 0.1760769
vn -0.7803861 0.5999954 0.1760769
vn -0.7803861 0.5999954 0.1760769
vn -0.7725431 0.6078384 0.183602
vn -0.9764631 -0.1215677 0.1781605
vn -0.9764631 -0.1215677 0.1781605
vn -0.9764631 -0.1215677 0.1781605
vn -0.9764631 -0.09803849 0.1921154
vn -0.9764631 -0.01176465 0.2153636
vn -0.9764631 -0.01176465 0.2153636
vn -0.9764631 -0.01176465 0.2153636
vn -0.9764631 -0.01176465 0.2153636
vn -0.9764631 -0.05882311 0.2075084
vn -0.9764631 -0.05882311 0.2075084
vn -0.9764631 -0.05882311 0.2075084
vn -0.9764631 -0.05882311 0.2075084
vn -0.6862692 -0.7254847 0.05202487
vn -0.6862692 -0.7254847 0.05202487
vn -0.6862692 -0.7254847 0.05202487
vn -0.6862692 -0.7254847 0.05202487
vn -0.8196015 0.4980353 0.283221
vn -0.8196015 0.4980353 0.283221
vn -0.8196015 0.4980353 0.283221
vn -0.874503 0.4352907 0.213931
vn -0.874503 0.4352907 0.213931
vn -0.874503 0.4352907 0.213931
vn -0.670583 0.6862692 0.2816968
vn -0.670583 0.6862692 0.2816968
vn -0.670583 0.6862692 0.2816968
vn -0.670583 0.6862692 0.2816968
vn -0.9764631 -0.01176465 0.2153636
vn -0.9764631 -0.01176465 0.2153636
vn -0.9764631 -0.01176465 0.2153636
vn -0.9764631 -0.01176465 0.2153636
vn -0.874503 -0.450977 0.1785055
vn -0.874503 -0.450977 0.1785055
vn -0.874503 -0.450977 0.1785055
vn -0.8196015 -0.5137216 0.2536601
vn -0.8196015 -0.5137216 0.2536601
vn -0.8196015 -0.5137216 0.2536601
vn -0.6862692 -0.6862693 0.2409753
vn -0.6862692 -0.6862693 0.2409753
vn -0.6862692 -0.6862693 0.2409753
vn -0.7725431 -0.6235247 0.1199758
vn -0.7725431 -0.6235247 0.1199758
vn -0.7725431 -0.6235247 0.1199758
vn 0.003921568 0.9999923 -0.000345267
vn 0.003921568 0.9999923 -0.000345267
vn 0.003921568 0.9999923 -0.000345267
vn 0.003921568 0.9999923 -0.000345267
vn 0.003921568 -0.9999924 0
vn 0.003921568 -0.9999924 0
vn 0.003921568 -0.9999924 0
vn 0.003921568 -0.9999924 0
vn -0.9999923 -0.003921568 -0.0003442513
vn -0.9999923 -0.003921568 -0.0003442513
vn -0.9999923 -0.003921568 -0.0003442513
vn -0.9999923 -0.003921568 -0.0003442513
vn -0.9999923 -0.003921568 -0.0003442513
vn -0.9999923 -0.003921568 -0.0003442513
vn -0.9999923 -0.003921568 -0.0003442513
vn -0.9999923 -0.003921568 -0.0003442513
vn -0.9999923 -0.003921568 -0.0003442513
vn -0.9999923 -0.003921568 -0.0003442513
vn -0.9999923 -0.003921568 -0.0003442513
vn -0.9999923 -0.003921568 -0.0003442513
vn -0.9999923 -0.003921568 -0.0003442513
vn -0.9999923 -0.003921568 -0.0003442513
vn -0.9999923 -0.003921568 -0.0003442513
vn -0.9999923 -0.003921568 -0.0003442513
vn 0.003921568 -0.9999924 0
vn 0.003921568 -0.9999924 0
vn 0.003921568 -0.9999924 0
vn 0.003921568 -0.9999924 0
vn 0.01176465 -0.01176465 -0.9998616
vn 0.01176465 -0.01176465 -0.9998616
vn 0.01176465 -0.01176465 -0.9998616
vn 0.01176465 -0.01176465 -0.9998616
vn 0.003921568 0.9999923 -0.000345267
vn 0.003921568 0.9999923 -0.000345267
vn 0.003921568 0.9999923 -0.000345267
vn 0.003921568 0.9999923 -0.000345267
vn 0.01176465 -0.01176465 -0.9998616
vn 0.01176465 -0.01176465 -0.9998616
vn 0.01176465 -0.01176465 -0.9998616
vn 0.01176465 -0.01176465 -0.9998616
vn 0.01176465 -0.01176465 -0.9998616
vn 0.01176465 -0.01176465 -0.9998616
vn 0.01176465 -0.01176465 -0.9998616
vn 0.01176465 -0.01176465 -0.9998616
vn 0.01176465 -0.01176465 -0.9998616
vn 0.01176465 -0.01176465 -0.9998616
vn 0.01176465 -0.01176465 -0.9998616
vn 0.01176465 -0.01176465 -0.9998616
vn 0.01176465 -0.01176465 -0.9998616
vn 0.01176465 -0.01176465 -0.9998616
vn 0.01176465 -0.01176465 -0.9998616
vn 0.01176465 -0.01176465 -0.9998616
vn 0.01176465 -0.01176465 0.9998616
vn 0.01176465 -0.01176465 0.9998616
vn 0.01176465 -0.01176465 0.9998616
vn 0.01176465 -0.01176465 0.9998616
vn 0.01176465 -0.01176465 0.9998616
vn 0.01176465 -0.01176465 0.9998616
vn 0.01176465 -0.01176465 0.9998616
vn 0.01176465 -0.01176465 0.9998616
vn 0.01176465 -0.01176465 0.9998616
vn 0.01176465 -0.01176465 0.9998616
vn 0.01176465 -0.01176465 0.9998616
vn 0.01176465 -0.01176465 0.9998616
vn 0.01960772 0.003921509 0.9998001
vn 0.01960772 0.003921509 0.9998001
vn 0.01960772 -0.01176465 0.9997385
vn 0.01176465 -0.01176465 -0.9998616
vn 0.01176465 -0.01176465 -0.9998616
vn 0.01176465 -0.01176465 -0.9998616
vn 0.01176465 -0.01176465 -0.9998616
vn 0.01176465 -0.01176465 -0.9998616
vn 0.01176465 -0.01176465 -0.9998616
vn 0.01176465 -0.01176465 -0.9998616
vn 0.01176465 -0.01176465 -0.9998616
vn 0.01176465 -0.01176465 -0.9998616
vn 0.01176465 -0.01176465 -0.9998616
vn 0.01176465 -0.01176465 -0.9998616
vn 0.01176465 -0.01176465 -0.9998616
vn 0.01176465 -0.01176465 -0.9998616
vn 0.01176465 -0.01176465 -0.9998616
vn 0.01176465 -0.01176465 -0.9998616
vn 0.01176465 -0.01176465 -0.9998616
vn 0.01176465 -0.01176465 -0.9998616
vn 0.01176465 -0.01176465 -0.9998616
vn 0.01176465 -0.01176465 -0.9998616
vn 0.01176465 -0.01176465 -0.9998616
vn 0.01176465 -0.01176465 -0.9998616
vn 0.01176465 -0.01176465 -0.9998616
vn 0.01176465 -0.01176465 -0.9998616
vn 0.01176465 -0.01176465 -0.9998616
vn -0.9843061 -0.1372539 0.1109184
vn -0.9843061 -0.145097 -0.100441
vn -0.9843061 -0.1372539 0.1109184
vn -0.9843061 -0.145097 -0.100441
vn -0.9843061 -0.145097 -0.100441
vn -0.9843061 -0.1372539 -0.1109184
vn -0.9843061 -0.145097 -0.100441
vn -0.9843061 -0.1372539 -0.1109184
vn -0.7960722 0.5999954 -0.07921206
vn -0.8588169 0.5058784 0.08075004
vn -0.7960722 0.5999954 0.07921206
vn -0.8588169 0.5058784 0.08075004
vn -0.8588169 0.5058784 -0.08075004
vn -0.7960722 0.5999954 -0.07921206
vn -0.8588169 0.5058784 -0.08075004
vn -0.7960722 0.5999954 -0.07921206
vn -0.9764631 0.1764692 0.1240101
vn -0.9999923 -0.003921568 -0.0003442513
vn -0.9764631 0.1764692 0.1240101
vn -0.9999923 -0.003921568 -0.0003442513
vn -0.9999923 -0.003921568 -0.0003442513
vn -0.9764631 0.1764692 -0.1240101
vn -0.9999923 -0.003921568 -0.0003442513
vn -0.9764631 0.1764692 -0.1240101
vn -0.8588169 0.5058784 0.08075004
vn -0.9764631 0.1764692 0.1240101
vn -0.8588169 0.5058784 0.08075004
vn -0.9764631 0.1764692 0.1240101
vn -0.9764631 0.1764692 -0.1240101
vn -0.8588169 0.5058784 -0.08075004
vn -0.9764631 0.1764692 -0.1240101
vn -0.8588169 0.5058784 -0.08075004
vn -0.8588169 0.4980353 -0.1199767
vn -0.9529338 0.2862723 -0.09982684
vn -0.8588169 0.4980353 -0.1199767
vn -0.9529338 0.2862723 -0.09982684
vn -0.9529338 0.2862723 -0.09982684
vn -0.8588169 0.4980353 -0.1199767
vn -0.9529338 0.2862723 -0.09982684
vn -0.8588169 0.4980353 -0.1199767
vn -0.9529338 0.2862723 -0.09982684
vn -0.9843061 -0.1372539 0.1109184
vn -0.9529338 0.2862723 -0.09982684
vn -0.9843061 -0.1372539 0.1109184
vn -0.9843061 -0.1372539 -0.1109184
vn -0.9529338 0.2862723 -0.09982684
vn -0.9843061 -0.1372539 -0.1109184
vn -0.9529338 0.2862723 -0.09982684
vn -0.9529338 0.2705861 -0.1367493
vn -0.9843061 -0.145097 -0.100441
vn -0.9529338 0.2705861 -0.1367493
vn -0.9843061 -0.145097 -0.100441
vn -0.9843061 -0.145097 -0.100441
vn -0.9529338 0.2705861 0.1367493
vn -0.9843061 -0.145097 -0.100441
vn -0.9529338 0.2705861 0.1367493
vn -0.7960722 0.5999954 -0.07921206
vn -0.9529338 0.2705861 -0.1367493
vn -0.7960722 0.5999954 -0.07921206
vn -0.9529338 0.2705861 -0.1367493
vn -0.9529338 0.2705861 0.1367493
vn -0.7960722 0.5999954 0.07921206
vn -0.9529338 0.2705861 0.1367493
vn -0.7960722 0.5999954 -0.07921206
vn -0.8509738 -0.5137216 -0.1092411
vn -0.7774267 -0.6289735 0
vn -0.8509738 -0.5137216 -0.1092411
vn -0.7774267 -0.6289735 0
vn -0.7774267 -0.6289735 0
vn -0.8509738 -0.5137216 -0.1092411
vn -0.7774267 -0.6289735 0
vn -0.8509738 -0.5137216 -0.1092411
vn -0.9999923 -0.003921568 -0.0003442513
vn -0.9764631 -0.1921554 0.09796004
vn -0.9999923 -0.003921568 -0.0003442513
vn -0.9764631 -0.1921554 0.09796004
vn -0.9764631 -0.1921554 -0.09796004
vn -0.9999923 -0.003921568 -0.0003442513
vn -0.9764631 -0.1921554 -0.09796004
vn -0.9999923 -0.003921568 -0.0003442513
vn -0.9764631 -0.1921554 0.09796004
vn -0.8509738 -0.5137216 -0.1092411
vn -0.9764631 -0.1921554 0.09796004
vn -0.8509738 -0.5137216 -0.1092411
vn -0.8509738 -0.5137216 -0.1092411
vn -0.9764631 -0.1921554 -0.09796004
vn -0.8509738 -0.5137216 -0.1092411
vn -0.9764631 -0.1921554 -0.09796004
vn -0.8490956 -0.5282393 0
vn -0.7774267 -0.6289735 0
vn -0.8490956 -0.5282393 0
vn -0.7774267 -0.6289735 0
vn -0.7774267 -0.6289735 0
vn -0.8490956 -0.5282393 0
vn -0.7774267 -0.6289735 0
vn -0.8490956 -0.5282393 0
vn 0.01176465 -0.01176465 -0.9998616
vn 0.01176465 -0.01176465 -0.9998616
vn 0.01176465 -0.01176465 -0.9998616
vn 0.01176465 -0.01176465 -0.9998616
vn 0.01176465 -0.01176465 -0.9998616
vn 0.01176465 -0.01176465 -0.9998616
vn 0.01176465 -0.01176465 -0.9998616
vn 0.01176465 -0.01176465 -0.9998616
vn 0.01176465 -0.01176465 -0.9998616
vn 0.01176465 -0.01176465 -0.9998616
vn 0.01176465 -0.01176465 -0.9998616
vn 0.01176465 -0.01176465 -0.9998616
vn 0.01176465 -0.01176465 -0.9998616
vn 0.01176465 -0.01176465 -0.9998616
vn 0.01176465 -0.01176465 -0.9998616
vn 0.01176465 -0.01176465 -0.9998616
vn 0.01176465 -0.01176465 -0.9998616
vn 0.01176465 -0.01176465 -0.9998616
vn 0.01176465 -0.01176465 -0.9998616
vn 0.01176465 -0.01176465 -0.9998616
vn 0.01176465 -0.01176465 -0.9998616
vn 0.01176465 -0.01176465 -0.9998616
vn 0.01176465 -0.01176465 -0.9998616
vn 0.01176465 -0.01176465 -0.9998616
vn 0.01176465 -0.01176465 -0.9998616
vn 0.01176465 -0.01176465 -0.9998616
vn 0.01176465 -0.01176465 -0.9998616
vn 0.01176465 -0.01176465 -0.9998616
vn 0.01176465 -0.01176465 -0.9998616
vn 0.01176465 -0.01176465 -0.9998616
vn 0.01176465 -0.01176465 -0.9998616
vn 0.01176465 -0.01176465 -0.9998616
vn 0.01176465 -0.01176465 -0.9998616
vn 0.01176465 -0.01176465 -0.9998616
vn 0.01176465 -0.01176465 -0.9998616
vn 0.01176465 -0.01176465 -0.9998616
vn 0.01176465 -0.01176465 -0.9998616
vn 0.01176465 -0.01176465 -0.9998616
vn 0.01176465 -0.01176465 -0.9998616
vn 0.01176465 -0.01176465 -0.9998616
vn 0.01176465 -0.01176465 -0.9998616
vn 0.01176465 -0.01176465 -0.9998616
vn 0.01176465 -0.01176465 -0.9998616
vn 0.01176465 -0.01176465 -0.9998616
vn 0.01176465 -0.01176465 -0.9998616
vn 0.01176465 -0.01176465 -0.9998616
vn 0.01176465 -0.01176465 -0.9998616
vn 0.01176465 -0.01176465 -0.9998616
vn 0.01176465 -0.01176465 0.9998616
vn 0.01176465 -0.01176465 0.9998616
vn 0.01176465 -0.01176465 0.9998616
vn 0.01176465 -0.01176465 0.9998616
vn 0.01176465 -0.01176465 0.9998616
vn 0.01176465 -0.01176465 0.9998616
vn 0.01176465 -0.01176465 0.9998616
vn 0.01176465 -0.01176465 0.9998616
vn 0.01176465 -0.01176465 0.9998616
vn 0.01176465 -0.01176465 0.9998616
vn 0.01176465 -0.01176465 0.9998616
vn 0.01176465 -0.01176465 0.9998616
vn 0.01176465 -0.01176465 0.9998616
vn 0.01176465 -0.01176465 0.9998616
vn 0.01176465 -0.01176465 0.9998616
vn 0.01176465 -0.01176465 0.9998616
vn 0.01176465 -0.01176465 0.9998616
vn 0.01176465 -0.01176465 0.9998616
vn 0.01176465 -0.01176465 0.9998616
vn 0.01176465 -0.01176465 0.9998616
vn 0.01176465 -0.01176465 0.9998616
vn 0.01176465 -0.01176465 0.9998616
vn 0.01176465 -0.01176465 0.9998616
vn 0.01176465 -0.01176465 0.9998616
vn 0.01176465 -0.01176465 0.9998616
vn 0.01176465 -0.01176465 0.9998616
vn 0.003921568 0.9999923 -0.000345267
vn 0.003921568 0.9999923 -0.000345267
vn 0.003921568 0.9999923 -0.000345267
vn 0.003921568 0.9999923 -0.000345267
vn 0.003921568 0.9999923 -0.000345267
vn 0.003921568 0.9999923 -0.000345267
vn 0.003921568 -0.9999924 0
vn 0.003921568 -0.9999924 0
vn 0.003921568 -0.9999924 0
vn 0.003921568 -0.9999924 0
vn 0.003921568 -0.9999924 0
vn 0.003921568 -0.9999924 0
vn -0.9764631 -0.01176465 -0.2153636
vn -0.9764631 -0.01176465 -0.2153636
vn -0.9764631 -0.01176465 -0.2153636
vn -0.9764631 -0.01176465 -0.2153636
vn -0.9843061 -0.1058816 -0.1411758
vn -0.9843061 0.09803843 -0.146731
vn -0.9843061 0.0901953 -0.1516784
vn -0.9843061 -0.1137246 -0.1349379
vn -0.9843061 -0.1058816 -0.1411758
vn -0.9764631 -0.01960772 -0.2147916
vn -0.9843061 -0.1137246 -0.1349379
vn -0.9764631 -0.01176465 -0.2153636
vn -0.9764631 0.003921509 -0.215649
vn -0.9843061 0.0901953 -0.1516784
vn -0.9843061 0.09803843 -0.146731
vn -0.9764631 -0.01176465 -0.2153636
vn 0.003921568 -0.9999924 0
vn 0.003921568 -0.9999924 0
vn 0.003921568 -0.9999924 0
vn 0.003921568 -0.9999924 0
vn 0.01176465 -0.01176465 -0.9998616
vn 0.01176465 -0.01176465 -0.9998616
vn 0.01176465 -0.01176465 -0.9998616
vn 0.01176465 -0.01176465 -0.9998616
vn 0.003921568 0.9999923 -0.000345267
vn 0.003921568 0.9999923 -0.000345267
vn 0.003921568 0.9999923 -0.000345267
vn 0.003921568 0.9999923 -0.000345267
vn 0.003921568 0.9999923 -0.000345267
vn 0.003921568 0.9999923 -0.000345267
vn 0.003921568 0.9999923 -0.000345267
vn 0.003921568 0.9999923 -0.000345267
vn 0.003921568 0.9999923 -0.000345267
vn 0.003921568 0.9999923 -0.000345267
vn 0.003921568 -0.9999924 0
vn 0.003921568 -0.9999924 0
vn 0.003921568 -0.9999924 0
vn 0.003921568 -0.9999924 0
vn 0.003921568 -0.9999924 0
vn 0.003921568 -0.9999924 0
vn -0.9764631 -0.01176465 -0.2153636
vn -0.9764631 -0.01176465 -0.2153636
vn -0.9764631 -0.01176465 -0.2153636
vn -0.9764631 -0.01176465 -0.2153636
vn -0.9843061 -0.1058816 -0.1411758
vn -0.9843061 0.09803843 -0.146731
vn -0.9843061 0.0901953 -0.1516784
vn -0.9843061 -0.1137246 -0.1349379
vn -0.9843061 -0.1058816 -0.1411758
vn -0.9764631 -0.01960772 -0.2147916
vn -0.9843061 -0.1137246 -0.1349379
vn -0.9764631 -0.01176465 -0.2153636
vn -0.9764631 0.003921509 -0.215649
vn -0.9843061 0.0901953 -0.1516784
vn -0.9843061 0.09803843 -0.146731
vn -0.9764631 -0.01176465 -0.2153636
vn 0.003921568 -0.9999924 0
vn 0.003921568 -0.9999924 0
vn 0.003921568 -0.9999924 0
vn 0.003921568 -0.9999924 0
vn 0.01176465 -0.01176465 -0.9998616
vn 0.01176465 -0.01176465 -0.9998616
vn 0.01176465 -0.01176465 -0.9998616
vn 0.01176465 -0.01176465 -0.9998616
vn 0.003921568 0.9999923 -0.000345267
vn 0.003921568 0.9999923 -0.000345267
vn 0.003921568 0.9999923 -0.000345267
vn 0.003921568 0.9999923 -0.000345267
vn 0.003921568 0.9999923 -0.000345267
vn 0.003921568 0.9999923 -0.000345267
vn 0.003921568 0.9999923 -0.000345267
vn 0.003921568 0.9999923 -0.000345267
vn 0.003921568 -0.9999924 0
vn 0.003921568 -0.9999924 0
vn 0.003921568 -0.9999924 0
vn 0.003921568 -0.9999924 0
vn -0.9999923 -0.003921568 -0.0003442513
vn -0.9999923 -0.003921568 -0.0003442513
vn -0.9999923 -0.003921568 -0.0003442513
vn -0.9999923 -0.003921568 -0.0003442513
vn -0.9999923 -0.003921568 -0.0003442513
vn -0.9999923 -0.003921568 -0.0003442513
vn -0.9999923 -0.003921568 -0.0003442513
vn -0.9999923 -0.003921568 -0.0003442513
vn -0.9999923 -0.003921568 -0.0003442513
vn -0.9999923 -0.003921568 -0.0003442513
vn -0.9999923 -0.003921568 -0.0003442513
vn -0.9999923 -0.003921568 -0.0003442513
vn -0.9999923 -0.003921568 -0.0003442513
vn -0.9999923 -0.003921568 -0.0003442513
vn -0.9999923 -0.003921568 -0.0003442513
vn -0.9999923 -0.003921568 -0.0003442513
vn 0.003921568 -0.9999924 0
vn 0.003921568 -0.9999924 0
vn 0.003921568 -0.9999924 0
vn 0.003921568 -0.9999924 0
vn 0.01176465 -0.01176465 -0.9998616
vn 0.01176465 -0.01176465 -0.9998616
vn 0.01176465 -0.01176465 -0.9998616
vn 0.01176465 -0.01176465 -0.9998616
vn 0.003921568 0.9999923 -0.000345267
vn 0.003921568 0.9999923 -0.000345267
vn 0.003921568 0.9999923 -0.000345267
vn 0.003921568 0.9999923 -0.000345267
vn -0.9999923 -0.003921568 -0.0003442513
vn -0.9999923 -0.003921568 -0.0003442513
vn -0.9999923 -0.003921568 -0.0003442513
vn -0.9999923 -0.003921568 -0.0003442513
vn -0.9999923 -0.003921568 -0.0003442513
vn -0.9999923 -0.003921568 -0.0003442513
vn -0.9999923 -0.003921568 -0.0003442513
vn -0.9999923 -0.003921568 -0.0003442513
vn 0.01176465 -0.01176465 0.9998616
vn 0.01176465 -0.01176465 0.9998616
vn 0.01176465 -0.01176465 0.9998616
vn 0.01176465 -0.01176465 0.9998616
vn -0.9999923 -0.003921568 -0.0003442513
vn -0.9999923 -0.003921568 -0.0003442513
vn -0.9999923 -0.003921568 -0.0003442513
vn -0.9999923 -0.003921568 -0.0003442513
vn 0.01176465 -0.01176465 0.9998616
vn 0.01176465 -0.01176465 0.9998616
vn 0.01176465 -0.01176465 0.9998616
vn 0.01176465 -0.01176465 0.9998616
vn 0.003921568 0.9999923 -0.000345267
vn 0.003921568 0.9999923 -0.000345267
vn 0.003921568 0.9999923 -0.000345267
vn 0.003921568 0.9999923 -0.000345267
vn 0.003921568 -0.9999924 0
vn 0.003921568 -0.9999924 0
vn 0.003921568 -0.9999924 0
vn 0.003921568 -0.9999924 0
vn -0.9999923 -0.003921568 -0.0003442513
vn -0.9999923 -0.003921568 -0.0003442513
vn -0.9999923 -0.003921568 -0.0003442513
vn -0.9999923 -0.003921568 -0.0003442513
vn 0.01176465 -0.01176465 0.9998616
vn 0.01176465 -0.01176465 0.9998616
vn 0.01176465 -0.01176465 0.9998616
vn 0.01176465 -0.01176465 0.9998616
vn 0.01176465 -0.01176465 0.9998616
vn 0.01176465 -0.01176465 0.9998616
vn 0.01176465 -0.01176465 0.9998616
vn 0.01176465 -0.01176465 0.9998616
vn 0.01176465 -0.01176465 0.9998616
vn 0.01176465 -0.01176465 0.9998616
vn -0.6784261 0.7333276 -0.04436782
vn -0.3490169 0.9294046 -0.1199759
vn -0.6784261 0.7333276 -0.04436782
vn -0.3490169 0.9294046 -0.1199759
vn -0.9686199 0.2156845 -0.1235134
vn -0.9686199 0.2156845 -0.1235134
vn -0.9529338 -0.3019585 -0.02717127
vn -0.9529338 -0.3019585 -0.02717127
vn -0.9529338 -0.3019585 -0.02717127
vn -0.9529338 -0.3019585 -0.02717127
vn -0.9529338 0.2862723 -0.09982684
vn -0.9529338 0.2862723 -0.09982684
vn -0.9529338 0.2862723 -0.09982684
vn -0.9529338 0.2862723 -0.09982684
vn -0.9843061 -0.1686262 -0.05202622
vn -0.9843061 -0.1686262 -0.05202622
vn -0.6670228 -0.7450373 0
vn -0.6670228 -0.7450373 0
vn -0.2231436 -0.9747855 0
vn -0.2231436 -0.9747855 0
vn 0.01176465 -0.01176465 0.9998616
vn 0.01176465 -0.01176465 0.9998616
vn 0.01176465 -0.01176465 0.9998616
vn 0.01176465 -0.01176465 0.9998616
vn 0.01176465 -0.01176465 0.9998616
vn 0.01176465 -0.01176465 0.9998616
vn 0.01176465 -0.01176465 0.9998616
vn 0.01176465 -0.01176465 0.9998616
vn -0.9999923 -0.003921568 -0.0003442513
vn -0.9999923 -0.003921568 -0.0003442513
vn -0.9999923 -0.003921568 -0.0003442513
vn -0.9999923 -0.003921568 -0.0003442513
vn 0.003921568 -0.9999924 0
vn 0.003921568 -0.9999924 0
vn 0.003921568 -0.9999924 0
vn 0.003921568 -0.9999924 0
vn -0.9999923 -0.003921568 -0.0003442513
vn -0.9999923 -0.003921568 -0.0003442513
vn -0.9999923 -0.003921568 -0.0003442513
vn -0.9999923 -0.003921568 -0.0003442513
vn -0.9999923 -0.003921568 -0.0003442513
vn -0.9999923 -0.003921568 -0.0003442513
vn -0.9999923 -0.003921568 -0.0003442513
vn -0.9999923 -0.003921568 -0.0003442513
vn -0.9999923 -0.003921568 -0.0003442513
vn -0.9999923 -0.003921568 -0.0003442513
vn -0.9999923 -0.003921568 -0.0003442513
vn -0.9999923 -0.003921568 -0.0003442513
vn 0.003921568 -0.9999924 0
vn 0.003921568 -0.9999924 0
vn 0.003921568 -0.9999924 0
vn 0.003921568 -0.9999924 0
vn -0.9999923 -0.003921568 -0.0003442513
vn -0.9999923 -0.003921568 -0.0003442513
vn -0.9999923 -0.003921568 -0.0003442513
vn -0.9999923 -0.003921568 -0.0003442513
vn 0.01176465 -0.01176465 0.9998616
vn 0.01176465 -0.01176465 0.9998616
vn 0.01176465 -0.01176465 0.9998616
vn 0.01176465 -0.01176465 0.9998616
vn -0.9999923 -0.003921568 -0.0003442513
vn -0.9999923 -0.003921568 -0.0003442513
vn -0.9999923 -0.003921568 -0.0003442513
vn -0.9999923 -0.003921568 -0.0003442513
vn 0.003921568 -0.9999924 0
vn 0.003921568 -0.9999924 0
vn 0.003921568 -0.9999924 0
vn 0.003921568 -0.9999924 0
g XuanJueSe_jianZhu02_0
f 3/3/3 2/2/2 1/1/1
f 4/4/4 1/1/1 2/2/2
f 7/7/7 6/6/6 5/5/5
f 6/6/6 8/8/8 5/5/5
f 9/9/9 5/5/5 8/8/8
f 6/6/6 10/10/10 8/8/8
f 6/6/6 7/7/7 11/11/11
f 12/12/12 11/11/11 7/7/7
f 12/12/12 7/7/7 13/13/13
f 14/14/14 13/13/13 7/7/7
f 14/14/14 15/15/15 13/13/13
f 16/16/16 13/13/13 15/15/15
f 17/17/17 16/16/16 15/15/15
f 18/18/18 17/17/17 15/15/15
f 17/17/17 19/19/19 16/16/16
f 20/20/20 11/11/11 12/12/12
f 23/23/23 22/22/22 21/21/21
f 24/24/24 21/21/21 22/22/22
f 27/27/27 26/26/26 25/25/25
f 28/28/28 25/25/25 26/26/26
f 31/31/31 30/30/30 29/29/29
f 32/32/32 29/29/29 30/30/30
f 35/35/35 34/34/34 33/33/33
f 36/36/36 33/33/33 34/34/34
f 39/39/39 38/38/38 37/37/37
f 40/40/40 37/37/37 38/38/38
f 43/43/43 42/42/42 41/41/41
f 44/44/44 41/41/41 42/42/42
f 47/47/47 46/46/46 45/45/45
f 48/48/48 45/45/45 46/46/46
f 51/51/51 50/50/50 49/49/49
f 52/52/52 49/49/49 50/50/50
f 55/55/55 54/54/54 53/53/53
f 56/56/56 53/53/53 54/54/54
f 59/59/59 58/58/58 57/57/57
f 60/60/60 57/57/57 58/58/58
f 63/63/63 62/62/62 61/61/61
f 64/64/64 61/61/61 62/62/62
f 67/67/67 66/66/66 65/65/65
f 68/68/68 65/65/65 66/66/66
f 71/71/71 70/70/70 69/69/69
f 72/72/72 69/69/69 70/70/70
f 75/75/75 74/74/74 73/73/73
f 76/76/76 73/73/73 74/74/74
f 79/79/79 78/78/78 77/77/77
f 80/80/80 77/77/77 78/78/78
f 83/83/83 82/82/82 81/81/81
f 84/84/84 81/81/81 82/82/82
f 87/87/87 86/86/86 85/85/85
f 88/88/88 85/85/85 86/86/86
f 91/91/91 90/90/90 89/89/89
f 92/92/92 89/89/89 90/90/90
f 95/95/95 94/94/94 93/93/93
f 96/96/96 93/93/93 94/94/94
f 99/99/99 98/98/98 97/97/97
f 100/100/100 97/97/97 98/98/98
f 103/103/103 102/102/102 101/101/101
f 104/104/104 101/101/101 102/102/102
f 107/107/107 106/106/106 105/105/105
f 108/108/108 105/105/105 106/106/106
f 111/111/111 110/110/110 109/109/109
f 112/112/112 109/109/109 110/110/110
f 115/115/115 114/114/114 113/113/113
f 116/116/116 113/113/113 114/114/114
f 119/119/119 118/118/118 117/117/117
f 120/120/120 117/117/117 118/118/118
f 123/123/123 122/122/122 121/121/121
f 124/124/124 121/121/121 122/122/122
f 127/127/127 126/126/126 125/125/125
f 128/128/128 125/125/125 126/126/126
f 131/131/131 130/130/130 129/129/129
f 132/132/132 129/129/129 130/130/130
f 135/135/135 134/134/134 133/133/133
f 136/136/136 133/133/133 134/134/134
f 139/139/139 138/138/138 137/137/137
f 140/140/140 137/137/137 138/138/138
f 143/143/143 142/142/142 141/141/141
f 144/144/144 141/141/141 142/142/142
f 147/147/147 146/146/146 145/145/145
f 148/148/148 145/145/145 146/146/146
f 151/151/151 150/150/150 149/149/149
f 152/152/152 149/149/149 150/150/150
f 155/155/155 154/154/154 153/153/153
f 156/156/156 153/153/153 154/154/154
f 159/159/159 158/158/158 157/157/157
f 160/160/160 157/157/157 158/158/158
f 163/163/163 162/162/162 161/161/161
f 164/164/164 161/161/161 162/162/162
f 167/167/167 166/166/166 165/165/165
f 168/168/168 165/165/165 166/166/166
f 171/171/171 170/170/170 169/169/169
f 172/172/172 169/169/169 170/170/170
f 175/175/175 174/174/174 173/173/173
f 176/176/176 173/173/173 174/174/174
f 179/179/179 178/178/178 177/177/177
f 180/180/180 177/177/177 178/178/178
f 183/183/183 182/182/182 181/181/181
f 184/184/184 181/181/181 182/182/182
f 187/187/187 186/186/186 185/185/185
f 188/188/188 185/185/185 186/186/186
f 186/186/186 189/189/189 188/188/188
f 190/190/190 188/188/188 189/189/189
f 189/189/189 191/191/191 190/190/190
f 192/192/192 190/190/190 191/191/191
f 185/185/185 193/193/193 187/187/187
f 194/194/194 187/187/187 193/193/193
f 193/193/193 195/195/195 194/194/194
f 196/196/196 194/194/194 195/195/195
f 195/195/195 197/197/197 196/196/196
f 198/198/198 196/196/196 197/197/197
f 197/197/197 199/199/199 198/198/198
f 200/200/200 198/198/198 199/199/199
f 199/199/199 201/201/201 200/200/200
f 202/202/202 200/200/200 201/201/201
f 201/201/201 203/203/203 202/202/202
f 204/204/204 202/202/202 203/203/203
f 203/203/203 205/205/205 204/204/204
f 206/206/206 204/204/204 205/205/205
f 205/205/205 207/207/207 206/206/206
f 208/208/208 206/206/206 207/207/207
f 207/207/207 209/209/209 208/208/208
f 210/210/210 208/208/208 209/209/209
f 209/209/209 211/211/211 210/210/210
f 212/212/212 210/210/210 211/211/211
f 215/215/215 214/214/214 213/213/213
f 216/216/216 213/213/213 214/214/214
f 219/219/219 218/218/218 217/217/217
f 220/220/220 217/217/217 218/218/218
f 223/223/223 222/222/222 221/221/221
f 224/224/224 221/221/221 222/222/222
f 227/227/227 226/226/226 225/225/225
f 228/228/228 225/225/225 226/226/226
f 231/231/231 230/230/230 229/229/229
f 232/232/232 229/229/229 230/230/230
f 235/235/235 234/234/234 233/233/233
f 238/238/238 237/237/237 236/236/236
f 241/241/241 240/240/240 239/239/239
f 242/242/242 239/239/239 240/240/240
f 245/245/245 244/244/244 243/243/243
f 246/246/246 243/243/243 244/244/244
f 249/249/249 248/248/248 247/247/247
f 252/252/252 251/251/251 250/250/250
f 255/255/255 254/254/254 253/253/253
f 258/258/258 257/257/257 256/256/256
f 261/261/261 260/260/260 259/259/259
f 262/262/262 259/259/259 260/260/260
f 265/265/265 264/264/264 263/263/263
f 266/266/266 263/263/263 264/264/264
f 269/269/269 268/268/268 267/267/267
f 270/270/270 267/267/267 268/268/268
f 273/273/273 272/272/272 271/271/271
f 274/274/274 271/271/271 272/272/272
f 277/277/277 276/276/276 275/275/275
f 278/278/278 275/275/275 276/276/276
f 281/281/281 280/280/280 279/279/279
f 282/282/282 279/279/279 280/280/280
f 285/285/285 284/284/284 283/283/283
f 286/286/286 283/283/283 284/284/284
f 289/289/289 288/288/288 287/287/287
f 290/290/290 287/287/287 288/288/288
f 293/293/293 292/292/292 291/291/291
f 294/294/294 291/291/291 292/292/292
f 297/297/297 296/296/296 295/295/295
f 298/298/298 296/296/296 297/297/297
f 299/299/299 296/296/296 298/298/298
f 295/295/295 296/296/296 300/300/300
f 296/296/296 301/301/301 300/300/300
f 300/300/300 301/301/301 302/302/302
f 302/302/302 301/301/301 303/303/303
f 303/303/303 301/301/301 304/304/304
f 302/302/302 305/305/305 300/300/300
f 306/306/306 300/300/300 305/305/305
f 307/307/307 306/306/306 305/305/305
f 308/308/308 306/306/306 307/307/307
f 309/309/309 308/308/308 307/307/307
f 310/310/310 306/306/306 308/308/308
f 313/313/313 312/312/312 311/311/311
f 314/314/314 311/311/311 312/312/312
f 315/315/315 313/313/313 311/311/311
f 316/316/316 312/312/312 313/313/313
f 317/317/317 313/313/313 315/315/315
f 315/315/315 318/318/318 317/317/317
f 319/319/319 317/317/317 318/318/318
f 319/319/319 320/320/320 317/317/317
f 321/321/321 317/317/317 320/320/320
f 321/321/321 322/322/322 317/317/317
f 322/322/322 323/323/323 317/317/317
f 317/317/317 323/323/323 324/324/324
f 324/324/324 325/325/325 317/317/317
f 328/328/328 327/327/327 326/326/326
f 329/329/329 326/326/326 327/327/327
f 326/326/326 329/329/329 330/330/330
f 331/331/331 330/330/330 329/329/329
f 330/330/330 331/331/331 332/332/332
f 333/333/333 332/332/332 331/331/331
f 328/328/328 334/334/334 327/327/327
f 335/335/335 327/327/327 334/334/334
f 335/335/335 334/334/334 336/336/336
f 337/337/337 336/336/336 334/334/334
f 336/336/336 337/337/337 338/338/338
f 339/339/339 336/336/336 338/338/338
f 340/340/340 339/339/339 338/338/338
f 340/340/340 338/338/338 341/341/341
f 342/342/342 341/341/341 338/338/338
f 342/342/342 343/343/343 341/341/341
f 344/344/344 341/341/341 343/343/343
f 345/345/345 344/344/344 343/343/343
f 346/346/346 345/345/345 343/343/343
f 347/347/347 346/346/346 343/343/343
f 347/347/347 348/348/348 346/346/346
f 349/349/349 346/346/346 348/348/348
f 352/352/352 351/351/351 350/350/350
f 353/353/353 350/350/350 351/351/351
f 356/356/356 355/355/355 354/354/354
f 357/357/357 354/354/354 355/355/355
f 360/360/360 359/359/359 358/358/358
f 361/361/361 358/358/358 359/359/359
f 364/364/364 363/363/363 362/362/362
f 365/365/365 362/362/362 363/363/363
f 368/368/368 367/367/367 366/366/366
f 369/369/369 366/366/366 367/367/367
f 372/372/372 371/371/371 370/370/370
f 373/373/373 370/370/370 371/371/371
f 376/376/376 375/375/375 374/374/374
f 377/377/377 374/374/374 375/375/375
f 380/380/380 379/379/379 378/378/378
f 381/381/381 378/378/378 379/379/379
f 384/384/384 383/383/383 382/382/382
f 385/385/385 382/382/382 383/383/383
f 388/388/388 387/387/387 386/386/386
f 389/389/389 386/386/386 387/387/387
f 392/392/392 391/391/391 390/390/390
f 393/393/393 390/390/390 391/391/391
f 396/396/396 395/395/395 394/394/394
f 397/397/397 394/394/394 395/395/395
f 400/400/400 399/399/399 398/398/398
f 401/401/401 398/398/398 399/399/399
f 404/404/404 403/403/403 402/402/402
f 405/405/405 402/402/402 403/403/403
f 408/408/408 407/407/407 406/406/406
f 409/409/409 406/406/406 407/407/407
f 412/412/412 411/411/411 410/410/410
f 413/413/413 410/410/410 411/411/411
f 416/416/416 415/415/415 414/414/414
f 417/417/417 414/414/414 415/415/415
f 420/420/420 419/419/419 418/418/418
f 421/421/421 418/418/418 419/419/419
f 424/424/424 423/423/423 422/422/422
f 425/425/425 422/422/422 423/423/423
f 428/428/428 427/427/427 426/426/426
f 429/429/429 426/426/426 427/427/427
f 432/432/432 431/431/431 430/430/430
f 433/433/433 430/430/430 431/431/431
f 436/436/436 435/435/435 434/434/434
f 437/437/437 434/434/434 435/435/435
f 440/440/440 439/439/439 438/438/438
f 441/441/441 438/438/438 439/439/439
f 444/444/444 443/443/443 442/442/442
f 445/445/445 442/442/442 443/443/443
f 448/448/448 447/447/447 446/446/446
f 449/449/449 446/446/446 447/447/447
f 452/452/452 451/451/451 450/450/450
f 453/453/453 450/450/450 451/451/451
f 456/456/456 455/455/455 454/454/454
f 457/457/457 454/454/454 455/455/455
f 460/460/460 459/459/459 458/458/458
f 461/461/461 458/458/458 459/459/459
f 464/464/464 463/463/463 462/462/462
f 465/465/465 462/462/462 463/463/463
f 468/468/468 467/467/467 466/466/466
f 469/469/469 466/466/466 467/467/467
f 472/472/472 471/471/471 470/470/470
f 473/473/473 470/470/470 471/471/471
f 476/476/476 475/475/475 474/474/474
f 477/477/477 474/474/474 475/475/475
f 480/480/480 479/479/479 478/478/478
f 481/481/481 478/478/478 479/479/479
f 484/484/484 483/483/483 482/482/482
f 485/485/485 482/482/482 483/483/483
f 488/488/488 487/487/487 486/486/486
f 489/489/489 486/486/486 487/487/487
f 492/492/492 491/491/491 490/490/490
f 493/493/493 490/490/490 491/491/491
f 496/496/496 495/495/495 494/494/494
f 497/497/497 494/494/494 495/495/495
f 495/495/495 498/498/498 497/497/497
f 499/499/499 497/497/497 498/498/498
f 498/498/498 500/500/500 499/499/499
f 501/501/501 499/499/499 500/500/500
f 494/494/494 502/502/502 496/496/496
f 503/503/503 496/496/496 502/502/502
f 502/502/502 504/504/504 503/503/503
f 505/505/505 503/503/503 504/504/504
f 504/504/504 506/506/506 505/505/505
f 507/507/507 505/505/505 506/506/506
f 506/506/506 508/508/508 507/507/507
f 509/509/509 507/507/507 508/508/508
f 508/508/508 510/510/510 509/509/509
f 511/511/511 509/509/509 510/510/510
f 510/510/510 512/512/512 511/511/511
f 513/513/513 511/511/511 512/512/512
f 512/512/512 514/514/514 513/513/513
f 515/515/515 513/513/513 514/514/514
f 514/514/514 516/516/516 515/515/515
f 517/517/517 515/515/515 516/516/516
f 516/516/516 518/518/518 517/517/517
f 519/519/519 517/517/517 518/518/518
f 522/522/522 521/521/521 520/520/520
f 523/523/523 520/520/520 521/521/521
f 522/522/522 524/524/524 521/521/521
f 525/525/525 521/521/521 524/524/524
f 528/528/528 527/527/527 526/526/526
f 529/529/529 526/526/526 527/527/527
f 528/528/528 530/530/530 527/527/527
f 531/531/531 527/527/527 530/530/530
f 534/534/534 533/533/533 532/532/532
f 535/535/535 532/532/532 533/533/533
f 538/538/538 537/537/537 536/536/536
f 539/539/539 536/536/536 537/537/537
f 542/542/542 541/541/541 540/540/540
f 543/543/543 540/540/540 541/541/541
f 546/546/546 545/545/545 544/544/544
f 547/547/547 544/544/544 545/545/545
f 550/550/550 549/549/549 548/548/548
f 551/551/551 548/548/548 549/549/549
f 554/554/554 553/553/553 552/552/552
f 555/555/555 552/552/552 553/553/553
f 558/558/558 557/557/557 556/556/556
f 559/559/559 556/556/556 557/557/557
f 562/562/562 561/561/561 560/560/560
f 563/563/563 560/560/560 561/561/561
f 562/562/562 564/564/564 561/561/561
f 565/565/565 561/561/561 564/564/564
f 568/568/568 567/567/567 566/566/566
f 569/569/569 566/566/566 567/567/567
f 568/568/568 570/570/570 567/567/567
f 571/571/571 567/567/567 570/570/570
f 574/574/574 573/573/573 572/572/572
f 575/575/575 572/572/572 573/573/573
f 578/578/578 577/577/577 576/576/576
f 579/579/579 576/576/576 577/577/577
f 582/582/582 581/581/581 580/580/580
f 583/583/583 580/580/580 581/581/581
f 586/586/586 585/585/585 584/584/584
f 587/587/587 584/584/584 585/585/585
f 590/590/590 589/589/589 588/588/588
f 591/591/591 588/588/588 589/589/589
f 594/594/594 593/593/593 592/592/592
f 595/595/595 592/592/592 593/593/593
f 598/598/598 597/597/597 596/596/596
f 599/599/599 596/596/596 597/597/597
f 602/602/602 601/601/601 600/600/600
f 603/603/603 600/600/600 601/601/601
f 606/606/606 605/605/605 604/604/604
f 607/607/607 604/604/604 605/605/605
f 610/610/610 609/609/609 608/608/608
f 611/611/611 608/608/608 609/609/609
f 614/614/614 613/613/613 612/612/612
f 615/615/615 612/612/612 613/613/613
f 618/618/618 617/617/617 616/616/616
f 619/619/619 616/616/616 617/617/617
f 622/622/622 621/621/621 620/620/620
f 623/623/623 620/620/620 621/621/621
f 626/626/626 625/625/625 624/624/624
f 627/627/627 624/624/624 625/625/625
f 630/630/630 629/629/629 628/628/628
f 631/631/631 628/628/628 629/629/629
f 634/634/634 633/633/633 632/632/632
f 635/635/635 632/632/632 633/633/633
f 638/638/638 637/637/637 636/636/636
f 639/639/639 636/636/636 637/637/637
f 642/642/642 641/641/641 640/640/640
f 643/643/643 640/640/640 641/641/641
f 646/646/646 645/645/645 644/644/644
f 647/647/647 644/644/644 645/645/645
f 650/650/650 649/649/649 648/648/648
f 651/651/651 648/648/648 649/649/649
f 654/654/654 653/653/653 652/652/652
f 655/655/655 652/652/652 653/653/653
f 658/658/658 657/657/657 656/656/656
f 659/659/659 656/656/656 657/657/657
f 662/662/662 661/661/661 660/660/660
f 663/663/663 660/660/660 661/661/661
f 666/666/666 665/665/665 664/664/664
f 667/667/667 664/664/664 665/665/665
f 670/670/670 669/669/669 668/668/668
f 669/669/669 670/670/670 671/671/671
f 672/672/672 671/671/671 670/670/670
f 673/673/673 671/671/671 672/672/672
f 669/669/669 674/674/674 668/668/668
f 669/669/669 675/675/675 674/674/674
f 676/676/676 671/671/671 673/673/673
f 677/677/677 671/671/671 676/676/676
f 680/680/680 679/679/679 678/678/678
f 681/681/681 678/678/678 679/679/679
f 680/680/680 678/678/678 682/682/682
f 683/683/683 682/682/682 678/678/678
f 682/682/682 683/683/683 684/684/684
f 685/685/685 684/684/684 683/683/683
f 684/684/684 685/685/685 686/686/686
f 687/687/687 686/686/686 685/685/685
f 686/686/686 687/687/687 688/688/688
f 689/689/689 688/688/688 687/687/687
f 688/688/688 689/689/689 690/690/690
f 691/691/691 690/690/690 689/689/689
f 690/690/690 691/691/691 692/692/692
f 693/693/693 692/692/692 691/691/691
f 692/692/692 693/693/693 694/694/694
f 695/695/695 694/694/694 693/693/693
f 695/695/695 696/696/696 694/694/694
f 697/697/697 694/694/694 696/696/696
f 700/700/700 699/699/699 698/698/698
f 701/701/701 698/698/698 699/699/699
f 704/704/704 703/703/703 702/702/702
f 705/705/705 702/702/702 703/703/703
f 708/708/708 707/707/707 706/706/706
f 709/709/709 706/706/706 707/707/707
f 712/712/712 711/711/711 710/710/710
f 713/713/713 710/710/710 711/711/711
f 716/716/716 715/715/715 714/714/714
f 717/717/717 714/714/714 715/715/715
f 720/720/720 719/719/719 718/718/718
f 721/721/721 718/718/718 719/719/719
f 724/724/724 723/723/723 722/722/722
f 725/725/725 722/722/722 723/723/723
f 728/728/728 727/727/727 726/726/726
f 729/729/729 726/726/726 727/727/727
f 732/732/732 731/731/731 730/730/730
f 733/733/733 730/730/730 731/731/731
f 736/736/736 735/735/735 734/734/734
f 737/737/737 734/734/734 735/735/735
f 740/740/740 739/739/739 738/738/738
f 741/741/741 738/738/738 739/739/739
f 744/744/744 743/743/743 742/742/742
f 745/745/745 742/742/742 743/743/743
