g XuanJueSe_jianZhu06
v -4.794572 19.59842 17.25463
v -22.11591 8.092603 -0.0007136553
v -22.11289 19.59842 -0.0007302819
v -4.794572 8.092603 17.25462
v 5.014317 19.59842 17.25463
v 22.11586 8.092603 0.000748271
v 5.014317 8.092603 17.25462
v 22.11116 19.59842 0.0007707805
v 5.014317 74.25127 17.25461
v -4.794572 119.4345 17.25461
v 5.014317 119.4345 17.25461
v -4.794572 74.25127 17.25461
v -4.794572 19.59842 17.25463
v 5.014317 19.59842 17.25463
v -22.11289 19.59842 -0.0007302819
v -4.794572 74.25127 17.25461
v -4.794572 19.59842 17.25463
v -22.11138 74.25127 -0.000746562
v 5.014317 74.25127 17.25461
v 22.11116 19.59842 0.0007707805
v 5.014317 19.59842 17.25463
v 22.10882 74.25127 0.0007740686
v 5.014317 19.59842 17.25463
v -4.794572 8.092603 17.25462
v -4.794572 19.59842 17.25463
v 5.014317 8.092603 17.25462
v -22.11138 74.25127 -0.000746562
v -4.794572 119.4345 17.25461
v -4.794572 74.25127 17.25461
v -22.10987 147.8433 -0.0007628421
v 5.014317 119.4345 17.25461
v 22.10882 74.25127 0.0007740686
v 5.014317 74.25127 17.25461
v 22.10647 147.8433 0.0007773566
v -12.50816 170.1054 6.135566
v -17.87773 123.1715 0.0245221
v -17.87773 170.1054 0.02451635
v -12.50816 123.1715 6.135572
v 0.455166 170.1054 8.666852
v 0.455166 123.1715 8.666835
v 13.41849 170.1054 6.135566
v 13.41849 123.1715 6.135572
v 18.78801 170.1054 0.02453883
v 18.78801 123.1715 0.02454458
v -12.50816 206.6738 6.135563
v -17.87773 170.1054 0.02451635
v -17.87773 206.6738 0.02451319
v -12.50816 170.1054 6.135566
v 0.455166 206.6738 8.666848
v 0.455166 170.1054 8.666852
v 13.41849 206.6738 6.135563
v 13.41849 170.1054 6.135566
v 18.78801 206.6738 0.02453567
v 18.78801 170.1054 0.02453883
v 18.78801 206.6738 0.02453567
v 0.455166 206.6738 -8.617758
v 13.41849 206.6738 -6.086495
v -12.50816 206.6738 -6.086515
v -17.87773 206.6738 0.02451319
v -12.50816 206.6738 6.135563
v 0.455166 206.6738 8.666848
v 13.41849 206.6738 6.135563
v 22.10647 147.8433 0.0007773566
v -4.794572 119.4345 17.25461
v -22.10987 147.8433 -0.0007628421
v 5.014317 119.4345 17.25461
vt 0.3128521 0.2525749
vt 0.3045706 0.4951051
vt 0.3128521 0.4951051
vt 0.3045706 0.2525749
vt 0.3045706 0.2525749
vt 0.3128521 0.4951051
vt 0.3128521 0.2525749
vt 0.3045706 0.4951051
vt 0.2411798 0.2896886
vt 0.1800652 0.2594697
vt 0.1800652 0.2896886
vt 0.2411798 0.2594697
vt 0.3137496 0.2594697
vt 0.3137496 0.2896887
vt 0.1808607 0.4951051
vt 0.3128521 0.2525749
vt 0.1808607 0.2525749
vt 0.3128521 0.4951051
vt 0.3128521 0.2525749
vt 0.1808607 0.4951051
vt 0.1808607 0.2525749
vt 0.3128521 0.4951051
vt 0.3051671 0.2897449
vt 0.3137496 0.2592542
vt 0.3051671 0.2592542
vt 0.3137496 0.2897449
vt 0.3128521 0.4951051
vt 0.2322498 0.2525749
vt 0.3128521 0.2525749
vt 0.1808607 0.4951051
vt 0.2322163 0.2525749
vt 0.3128521 0.4951051
vt 0.3128521 0.2525749
vt 0.1808607 0.4951051
vt 0.04794901 0.2490113
vt 0.006052632 0.4958949
vt 0.006052632 0.2490113
vt 0.04794901 0.4958949
vt 0.08984531 0.2490113
vt 0.08984531 0.4958949
vt 0.1317416 0.2490113
vt 0.1317416 0.4958949
vt 0.1738035 0.2490113
vt 0.1738035 0.4958949
vt 0.04794901 0.2490113
vt 0.006052632 0.4958949
vt 0.006052632 0.2490113
vt 0.04794901 0.4958949
vt 0.08984531 0.2490113
vt 0.08984531 0.4958949
vt 0.1317416 0.2490113
vt 0.1317416 0.4958949
vt 0.1738035 0.2490113
vt 0.1738035 0.4958949
vt 0.1077588 0.4753602
vt 0.1374378 0.4596338
vt 0.1164515 0.4642399
vt 0.1584242 0.4642399
vt 0.167117 0.4753602
vt 0.1584242 0.4864804
vt 0.1374378 0.4910865
vt 0.1164515 0.4864804
vt 0.1685992 0.49345
vt 0.07871846 0.2489718
vt 0.02086526 0.4934717
vt 0.1114915 0.2489718
vn -0.7057956 2.599642E-05 0.7084156
vn -0.7058005 0.0001339029 0.7084106
vn -0.7058221 9.576279E-05 0.7083891
vn -0.7057557 -3.758157E-07 0.7084552
vn 0.7102968 4.055154E-05 0.7039024
vn 0.7103042 0.000207116 0.7038948
vn 0.7102351 -3.734335E-07 0.7039646
vn 0.7103378 0.000148353 0.7038609
vn 0 1.621002E-07 1
vn 0 1.621002E-07 1
vn 0 1.621002E-07 1
vn 0 1.621002E-07 1
vn 0 2.010203E-07 1
vn 0 2.010202E-07 1
vn -0.7058221 9.576279E-05 0.7083891
vn -0.7058447 7.28786E-06 0.7083666
vn -0.7057956 2.599642E-05 0.7084156
vn -0.705852 1.219723E-05 0.7083595
vn 0.710373 1.124856E-05 0.7038254
vn 0.7103378 0.000148353 0.7038609
vn 0.7102968 4.055154E-05 0.7039024
vn 0.710384 1.882059E-05 0.7038143
vn 0 -5.30472E-07 1
vn 0 -5.30472E-07 1
vn 0 -5.30472E-07 1
vn 0 -5.30472E-07 1
vn -0.705852 1.219723E-05 0.7083595
vn -0.705864 1.166761E-05 0.7083474
vn -0.7058447 7.28786E-06 0.7083666
vn -0.7058679 1.462845E-05 0.7083436
vn 0.7104029 1.807633E-05 0.7037953
vn 0.710384 1.882059E-05 0.7038143
vn 0.710373 1.124856E-05 0.7038254
vn 0.7104089 2.26407E-05 0.7037892
vn -0.4980653 0 0.8671395
vn -1 0 -1.666912E-06
vn -1 0 -7.829439E-07
vn -0.4980648 0 0.8671399
vn 0 0 1
vn 1.38942E-07 -1.579205E-07 1
vn 0.4980665 0 0.8671388
vn 0.4980659 1.031943E-07 0.8671393
vn 1 0 0
vn 1 0 -5.808915E-07
vn -0.4980655 0 0.8671395
vn -1 0 -7.829439E-07
vn -1 0 -1.035506E-06
vn -0.4980653 0 0.8671395
vn 0 0 1
vn 0 0 1
vn 0.4980665 0 0.8671388
vn 0.4980665 0 0.8671388
vn 1 0 2.020493E-07
vn 1 0 0
vn 0 1 0
vn 0 1 0
vn 0 1 0
vn 0 1 0
vn 0 1 0
vn 0 1 0
vn 0 1 0
vn 0 1 0
vn -1.053197E-07 0.9999921 0.003959398
vn -1.684771E-05 0.5191139 0.8547052
vn 1.380911E-07 0.9999921 -0.003964404
vn 0 0.5191022 0.8547122
g XuanJueSe_jianZhu06_0
f 3/3/3 2/2/2 1/1/1
f 4/4/4 1/1/1 2/2/2
f 7/7/7 6/6/6 5/5/5
f 8/8/8 5/5/5 6/6/6
f 11/11/11 10/10/10 9/9/9
f 12/12/12 9/9/9 10/10/10
f 12/12/12 13/13/13 9/9/9
f 14/14/14 9/9/9 13/13/13
f 17/17/17 16/16/16 15/15/15
f 18/18/18 15/15/15 16/16/16
f 21/21/21 20/20/20 19/19/19
f 22/22/22 19/19/19 20/20/20
f 25/25/25 24/24/24 23/23/23
f 26/26/26 23/23/23 24/24/24
f 29/29/29 28/28/28 27/27/27
f 30/30/30 27/27/27 28/28/28
f 33/33/33 32/32/32 31/31/31
f 34/34/34 31/31/31 32/32/32
f 37/37/37 36/36/36 35/35/35
f 38/38/38 35/35/35 36/36/36
f 35/35/35 38/38/38 39/39/39
f 40/40/40 39/39/39 38/38/38
f 39/39/39 40/40/40 41/41/41
f 42/42/42 41/41/41 40/40/40
f 41/41/41 42/42/42 43/43/43
f 44/44/44 43/43/43 42/42/42
f 47/47/47 46/46/46 45/45/45
f 48/48/48 45/45/45 46/46/46
f 45/45/45 48/48/48 49/49/49
f 50/50/50 49/49/49 48/48/48
f 49/49/49 50/50/50 51/51/51
f 52/52/52 51/51/51 50/50/50
f 51/51/51 52/52/52 53/53/53
f 54/54/54 53/53/53 52/52/52
f 57/57/57 56/56/56 55/55/55
f 56/56/56 58/58/58 55/55/55
f 58/58/58 59/59/59 55/55/55
f 59/59/59 60/60/60 55/55/55
f 60/60/60 61/61/61 55/55/55
f 61/61/61 62/62/62 55/55/55
f 65/65/65 64/64/64 63/63/63
f 66/66/66 63/63/63 64/64/64
