g yeDi
v 73.90948 23.33894 642.9147
v 77.26702 16.23488 835.5928
v 55.01198 23.33894 646.6696
v 110.5313 16.95345 828.9816
v 52.44111 15.6986 836.6289
v 44.84726 23.33894 647.0938
v -18.3254 19.91185 839.5812
v -25.93581 23.33894 650.0461
v -59.13332 21.79375 840.6342
v -36.26276 23.33894 650.477
v -82.37047 21.29179 837.9421
v -44.73512 23.33894 649.4957
v -130.752 24.12432 830.5695
v -108.7091 23.33894 642.1231
v -156.8597 23.9829 829.811
v -115.2046 23.33894 641.3707
v -179.1902 22.16421 824.9584
v -119.9104 23.33894 640.8257
v -216.0973 23.3751 804.5472
v -124.0562 23.33894 638.5335
v -236.1159 23.2948 793.4763
v -144.0795 23.33894 627.4625
v -252.0187 22.95127 784.6814
v -159.9858 23.33894 618.6677
v -312.269 23.6181 771.7673
v -220.2502 23.33894 585.3468
v -321.138 23.42652 766.8624
v -228.1182 23.33894 580.9965
v -327.6863 18.39658 775.285
v -233.6715 23.33894 577.8378
v -408.5536 -8.087573 730.7137
v -360.6271 23.33894 505.6257
v -375.1249 23.33894 497.3794
v -378.7076 23.33894 497.4077
v -477.646 -9.580087 704.2787
v -478.8875 23.33894 498.2485
v -512.9612 -10.34295 688.1795
v -514.049 23.33894 498.4838
v -564.5394 -11.45713 688.5246
v -519.8429 23.33894 498.5225
v -612.5281 -12.49377 664.3182
v -526.9512 23.33894 494.9378
v -682.0383 -13.99531 629.2558
v -583.0023 23.33894 466.6711
v -724.517 -18.2479 598.5452
v -589.0962 23.33894 462.2665
v -755.5286 -18.9178 556.2825
v -593.5452 23.33894 456.2048
v -813.6704 -20.17376 443.0281
v -637.8734 23.33894 369.8778
v -811.0957 -20.11815 406.9033
v -640.236 23.33894 362.62
v -816.057 -20.22532 370.9615
v -645.8441 23.33894 326.7293
v -808.1842 -20.05526 333.4778
v -648.4133 23.33894 310.287
v -783.0527 -19.51237 286.6017
v -653.2389 23.33894 278.8999
v -788.158 -19.62265 237.47
v -647.9601 23.33894 205.4782
v -785.9246 -19.57441 206.8549
v -646.9658 23.33894 191.8522
v -767.2614 -19.17126 167.4073
v -644.937 23.33894 183.9362
v -737.9285 -18.53761 134.0369
v -640.3992 23.33894 177.1183
v -703.5276 3.745368 116.6557
v -633.8796 23.33894 172.1913
v -651.0988 12.64691 133.4995
v -629.4652 23.33894 169.9539
v -599.7839 21.46943 107.4766
v -570.9041 23.33894 140.3683
v -524.4965 21.46943 90.35583
v -500.1268 23.33894 123.7214
v -484.4221 23.33894 120.0406
v -472.8891 21.46943 71.702
v -463.3084 23.33894 111.8679
v -369.3683 23.33894 75.47484
v -426.8928 21.46943 50.65551
v -357.9597 23.33894 71.05882
v -412.1661 21.46943 23.48771
v -356.7713 23.33894 67.99231
v -322.6528 23.33894 -20.04091
v -403.2456 21.46943 0.02029753
v -321.5966 23.33894 -22.76633
v -398.148 21.46943 -34.52139
v -417.7287 21.46943 -74.66522
v -358.5852 23.33894 -67.40411
v -366.437 23.33894 -76.8476
v -463.2967 21.46943 -115.7923
v -454.5227 23.33894 -140.0842
v -458.2994 23.33894 -142.8006
v -513.1157 21.46943 -119.9369
v -516.781 23.33894 -137.7065
v -549.3943 21.46943 -119.7616
v -528.5137 23.33894 -139.6415
v -593.6624 21.46943 -120.6826
v -579.5798 23.33894 -162.0672
v -605.8754 16.95369 -137.3603
v -586.443 23.33894 -166.8068
v -651.3772 -10.82805 -155.3892
v -591.2892 23.33894 -173.6408
v -661.4154 -9.175382 -188.2466
v -593.6805 23.33894 -181.6701
v -651.3964 -8.958955 -230.69
v -593.1796 23.33894 -189.9957
v -622.8467 -8.342244 -260.736
v -564.8258 23.33894 -300.712
v -563.6224 23.33894 -305.4111
v -619.8798 -4.462123 -294.2133
v -573.3834 23.33894 -320.413
v -644.5017 -8.810018 -311.5695
v -579.2751 23.33894 -329.4681
v -682.9265 -19.28907 -321.884
v -579.5367 23.33894 -336.069
v -715.655 -19.99607 -363.1089
v -580.0348 23.33894 -348.6335
v -727.2209 -20.24591 -409.1441
v -582.2351 23.33894 -404.209
v -710.3129 -19.88067 -477.1035
v -581.9747 23.33894 -478.8266
v -698.3286 -19.62178 -501.2225
v -581.9276 23.33894 -492.1963
v -683.4084 -19.29948 -542.9594
v -581.9011 23.33894 -499.7107
v -673.5197 -19.08587 -594.9041
v -576.4727 23.33894 -507.471
v -658.327 -28.58045 -707.0329
v -513.4728 23.33894 -598.7864
v -640.5841 -28.19717 -745.5114
v -498.1493 23.33894 -619.615
v -598.7399 -21.86832 -785.5132
v -492.1284 23.33894 -625.3436
v -546.0287 -11.21251 -809.001
v -484.5273 23.33894 -628.7034
v -482.978 -9.850511 -824.4036
v -437.7199 23.33894 -640.1353
v -456.083 -9.269536 -830.9929
v -424.3469 23.33894 -643.4109
v -428.4519 -8.672654 -833.5696
v -410.5737 23.33894 -644.6951
v -387.021 -7.77768 -837.46
v -372.0427 23.33894 -648.3143
v -360.2721 -7.199861 -838.5692
v -354.1501 23.33894 -648.9611
v -291.8534 -5.721898 -840.6342
v -309.2409 23.33894 -650.3162
v -241.126 -4.6261 -829.5644
v -251.6305 23.33894 -637.7473
v -227.9521 -4.341519 -830.9243
v -208.0248 23.33894 -642.2478
v -193.1599 -3.589952 -834.5922
v -196.9189 23.33894 -643.4183
v -159.5547 -2.86402 -829.6151
v -186.9977 23.33894 -641.9493
v -76.54817 21.68211 -817.3932
v -103.9724 23.33894 -629.7276
v -57.44859 22.0947 -814.5644
v -96.83757 23.33894 -628.6711
v -35.25607 22.57409 -808.336
v -86.17896 23.33894 -625.6804
v 24.40464 23.86287 -791.6151
v -26.50499 23.33894 -608.9597
v 31.64436 24.01926 -789.5831
v -22.65618 23.33894 -607.8797
v 47.33558 24.35821 -784.5497
v -10.34423 23.33894 -603.9312
v 83.01157 25.12888 -773.0793
v 39.49876 23.33894 -587.9095
v 154.8786 14.18589 -759.3553
v 149.7009 23.33894 -570.8178
v 155.3645 23.33894 -569.9443
v 157.7522 23.33894 -570.288
v 251.7845 16.27922 -775.6613
v 279.2703 23.33894 -587.9108
v 276.2386 16.80747 -779.182
v 301.9535 23.33894 -591.1757
v 284.5277 16.98653 -780.2246
v 308.4597 23.33894 -591.9939
v 362.348 18.66758 -789.9256
v 386.299 23.33894 -601.695
v 393.3849 19.33803 -793.8298
v 394.5884 23.33894 -602.7375
v 428.9539 20.10638 -789.6619
v 407.3833 23.33894 -601.2386
v 526.0851 22.20458 -778.3856
v 489.0551 23.33894 -591.7592
v 578.1724 23.32975 -763.3724
v 496.5101 23.33894 -589.611
v 622.7595 24.29291 -732.7167
v 502.9037 23.33894 -585.2161
v 748.923 27.01825 -611.2889
v 599.8103 23.33894 -491.9688
v 781.2793 27.71721 -557.5396
v 606.2393 23.33894 -481.2918
v 805.373 28.23767 -472.9787
v 623.4701 23.33894 -420.8315
v 806.6869 28.26606 -468.3973
v 624.8263 23.33894 -416.1031
v 813.7999 28.41971 -443.5847
v 624.936 23.33894 -415.7202
v 814.3748 28.43213 -399.2446
v 625.1826 23.33894 -396.7091
v 816.057 28.46846 -277.0262
v 626.7285 23.33894 -284.4197
v 810.199 28.34192 -213.2567
v 621.7872 23.33894 -230.6427
v 802.4896 28.17539 -129.6126
v 614.0787 23.33894 -147.0276
v 797.9476 28.07727 -80.33588
v 613.3951 23.33894 -139.6132
v 774.089 27.56188 -39.42883
v 610.7151 23.33894 -135.0191
v 767.8534 27.42718 -28.73799
v 604.5889 23.33894 -124.518
v 762.7184 27.31626 -20.23964
v 587.3204 23.33894 -95.06152
v 760.2981 27.26398 -14.53376
v 579.954 23.33894 -71.88641
v 640.9663 24.68621 362.6521
v 460.5247 23.33894 305.4691
v 449.3723 23.33894 339.2541
v 643.5614 28.4678 386.2818
v 455.0606 23.33894 403.1132
v 644.3403 28.48462 395.0273
v 455.8397 23.33894 411.8588
v 648.7764 28.58045 444.8397
v 456.338 23.33894 417.4531
v 630.6536 28.18896 491.4484
v 454.3022 23.33894 422.6876
v 628.177 28.13547 497.8176
v 451.8737 23.33894 428.9317
v 596.8226 27.45816 578.1193
v 428.9278 23.33894 487.6848
v 529.915 26.01284 673.1337
v 389.8879 23.33894 543.1116
v 481.1098 24.95857 713.483
v 380.1936 23.33894 551.1245
v 388.0966 22.94933 755.6108
v 310.2016 23.33894 582.8181
v 368.4957 22.52591 764.4982
v 303.0943 23.33894 586.0399
v 344.8707 22.01557 771.3131
v 292.67 23.33894 589.0462
v 221.1657 19.34333 807.0208
v 176.675 23.33894 622.5206
v -658.4651 9.292173 77.85522
v -675.208 8.930498 90.55382
v -608.1763 10.3785 74.12534
v -533.8389 15.86774 56.87584
v -498.3811 16.63368 42.50265
v -469.1686 17.26472 28.05579
v -459.2318 17.47937 6.927997
v -453.2962 17.60759 -8.690683
v -449.0566 17.69917 -32.56182
v -453.6683 17.59956 -61.72369
v -476.996 17.09564 -87.93317
v -515.5194 16.26347 -98.8674
v -551.094 15.49499 -99.45366
v -593.1654 8.231721 -102.6267
v -605.2703 7.970233 -107.4207
v -621.2239 2.119624 -114.2321
v -737.9285 -18.53761 134.0369
v -700.208 -10.2387 -11.48264
v -703.5276 3.745368 116.6557
v -675.208 8.930498 90.55382
v -658.4651 9.292173 77.85522
v -533.8389 15.86774 56.87584
v -498.3811 16.63368 42.50265
v -608.1763 10.3785 74.12534
v -533.8389 15.86774 56.87584
v -498.3811 16.63368 42.50265
v -469.1686 17.26472 28.05579
v -703.5276 3.745368 116.6557
v -700.208 -10.2387 -11.48264
v -675.208 8.930498 90.55382
v -658.4651 9.292173 77.85522
v -700.208 -10.2387 -11.48264
v -608.1763 10.3785 74.12534
v -469.1686 17.26472 28.05579
v -700.208 -10.2387 -11.48264
v -459.2318 17.47937 6.927997
v -593.1654 8.231721 -102.6267
v -700.208 -10.2387 -11.48264
v -605.2703 7.970233 -107.4207
v -476.996 17.09564 -87.93317
v -515.5194 16.26347 -98.8674
v -621.2239 2.119624 -114.2321
v -700.208 -10.2387 -11.48264
v -651.3772 -10.82805 -155.3892
v -605.2703 7.970233 -107.4207
v -700.208 -10.2387 -11.48264
v -621.2239 2.119624 -114.2321
v -453.6683 17.59956 -61.72369
v -700.208 -10.2387 -11.48264
v -476.996 17.09564 -87.93317
v -449.0566 17.69917 -32.56182
v -700.208 -10.2387 -11.48264
v -453.6683 17.59956 -61.72369
v -515.5194 16.26347 -98.8674
v -700.208 -10.2387 -11.48264
v -551.094 15.49499 -99.45366
v -551.094 15.49499 -99.45366
v -593.1654 8.231721 -102.6267
v -453.2962 17.60759 -8.690683
v -700.208 -10.2387 -11.48264
v -449.0566 17.69917 -32.56182
v -459.2318 17.47937 6.927997
v -700.208 -10.2387 -11.48264
v -453.2962 17.60759 -8.690683
vt 0.5341797 0.1534424
vt 0.5366211 0.04705811
vt 0.5239258 0.1512451
vt 0.5551758 0.05075073
vt 0.5229492 0.0463562
vt 0.5180664 0.1508789
vt 0.4841309 0.04440308
vt 0.4790039 0.1490479
vt 0.4616699 0.04360962
vt 0.4733887 0.1486816
vt 0.4489746 0.04495239
vt 0.46875 0.149292
vt 0.4221191 0.04870605
vt 0.4331055 0.1529541
vt 0.4077148 0.04891968
vt 0.4294434 0.1533203
vt 0.3952637 0.05145264
vt 0.427002 0.1536865
vt 0.3747559 0.06243896
vt 0.4245605 0.1549072
vt 0.3637695 0.06842041
vt 0.4133301 0.1608887
vt 0.3549805 0.07312012
vt 0.404541 0.1656494
vt 0.3215332 0.07971191
vt 0.3708496 0.1835938
vt 0.3166504 0.08233643
vt 0.3664551 0.1860352
vt 0.3112793 0.07830811
vt 0.3632813 0.1877441
vt 0.2646484 0.1034546
vt 0.293457 0.2286377
vt 0.2854004 0.2333984
vt 0.2834473 0.2333984
vt 0.2266846 0.1185303
vt 0.2280273 0.2338867
vt 0.2072754 0.1275635
vt 0.2084961 0.2341309
vt 0.1787109 0.1278076
vt 0.2053223 0.2341309
vt 0.1523438 0.1412354
vt 0.2012939 0.236084
vt 0.1141357 0.1608887
vt 0.1704102 0.2519531
vt 0.0904541 0.1776123
vt 0.1669922 0.2543945
vt 0.07324219 0.2008057
vt 0.1645508 0.2578125
vt 0.04071045 0.2629395
vt 0.1396484 0.3051758
vt 0.04171753 0.2827148
vt 0.1383057 0.3093262
vt 0.03866577 0.3024902
vt 0.1348877 0.3288574
vt 0.04248047 0.3232422
vt 0.1333008 0.3378906
vt 0.05535889 0.3496094
vt 0.1303711 0.3552246
vt 0.05218506 0.3764648
vt 0.1322021 0.395752
vt 0.05303955 0.3933105
vt 0.1325684 0.4030762
vt 0.06243896 0.4152832
vt 0.1335449 0.4074707
vt 0.07751465 0.4343262
vt 0.1357422 0.411377
vt 0.1001587 0.4445801
vt 0.1392822 0.4140625
vt 0.1291504 0.4355469
vt 0.1416016 0.4155273
vt 0.1572266 0.4494629
vt 0.1730957 0.4318848
vt 0.1973877 0.4594727
vt 0.2108154 0.4418945
vt 0.2191162 0.4438477
vt 0.2247314 0.4697266
vt 0.2302246 0.4484863
vt 0.2797852 0.46875
vt 0.2489014 0.4814453
vt 0.2856445 0.4711914
vt 0.2563477 0.4960938
vt 0.286377 0.4729004
vt 0.3034668 0.5200195
vt 0.2609863 0.5083008
vt 0.3041992 0.5214844
vt 0.2634277 0.5268555
vt 0.2526855 0.5478516
vt 0.2841797 0.5444336
vt 0.2797852 0.5498047
vt 0.2282715 0.5698242
vt 0.2329102 0.5825195
vt 0.2299805 0.5839844
vt 0.2017822 0.5717773
vt 0.1999512 0.581543
vt 0.1826172 0.5722656
vt 0.1937256 0.5825195
vt 0.15979 0.5732422
vt 0.1671143 0.5947266
vt 0.1529541 0.581543
vt 0.1634521 0.5976563
vt 0.1239014 0.5908203
vt 0.1607666 0.6010742
vt 0.1185303 0.6083984
vt 0.1595459 0.6054688
vt 0.1230469 0.6318359
vt 0.15979 0.6103516
vt 0.137207 0.6499023
vt 0.1738281 0.6713867
vt 0.1743164 0.6743164
vt 0.1397705 0.6679688
vt 0.1696777 0.6826172
vt 0.1263428 0.6787109
vt 0.1668701 0.6879883
vt 0.1044922 0.6850586
vt 0.166748 0.6914063
vt 0.08789063 0.7094727
vt 0.166748 0.6987305
vt 0.08251953 0.7353516
vt 0.166626 0.7294922
vt 0.09289551 0.7729492
vt 0.168335 0.7709961
vt 0.09973145 0.7861328
vt 0.1685791 0.7788086
vt 0.1084595 0.809082
vt 0.1688232 0.7827148
vt 0.1146851 0.8378906
vt 0.171875 0.7871094
vt 0.1229858 0.9008789
vt 0.2070313 0.8378906
vt 0.1330566 0.9223633
vt 0.2156982 0.8496094
vt 0.1571045 0.9443359
vt 0.2189941 0.8530273
vt 0.1872559 0.956543
vt 0.2231445 0.8549805
vt 0.2224121 0.9658203
vt 0.2492676 0.8613281
vt 0.2374268 0.9692383
vt 0.2565918 0.8632813
vt 0.2526855 0.9711914
vt 0.2644043 0.8642578
vt 0.2758789 0.9736328
vt 0.2858887 0.8666992
vt 0.2907715 0.9741211
vt 0.2958984 0.8671875
vt 0.3288574 0.9755859
vt 0.3208008 0.8681641
vt 0.3571777 0.9702148
vt 0.3530273 0.8618164
vt 0.364502 0.9707031
vt 0.3774414 0.8647461
vt 0.3840332 0.9731445
vt 0.3835449 0.8657227
vt 0.402832 0.9707031
vt 0.3891602 0.8647461
vt 0.4506836 0.9624023
vt 0.4353027 0.8579102
vt 0.4614258 0.9609375
vt 0.439209 0.8574219
vt 0.4736328 0.9575195
vt 0.4453125 0.8554688
vt 0.5068359 0.9477539
vt 0.4785156 0.8461914
vt 0.5107422 0.9467773
vt 0.4807129 0.8457031
vt 0.5195313 0.9438477
vt 0.4875488 0.84375
vt 0.5395508 0.9375
vt 0.5151367 0.8344727
vt 0.5795898 0.9296875
vt 0.5761719 0.824707
vt 0.5795898 0.8242188
vt 0.5810547 0.824707
vt 0.6337891 0.9384766
vt 0.6484375 0.8339844
vt 0.6474609 0.9404297
vt 0.6611328 0.8359375
vt 0.6518555 0.940918
vt 0.6645508 0.8359375
vt 0.6953125 0.9458008
vt 0.7080078 0.8413086
vt 0.7124023 0.9477539
vt 0.7124023 0.8417969
vt 0.7319336 0.9453125
vt 0.7197266 0.8413086
vt 0.7861328 0.9389648
vt 0.7646484 0.8354492
vt 0.8149414 0.9306641
vt 0.769043 0.8344727
vt 0.8393555 0.9130859
vt 0.7724609 0.8320313
vt 0.9086914 0.8457031
vt 0.8256836 0.7802734
vt 0.9262695 0.815918
vt 0.8295898 0.7739258
vt 0.9394531 0.769043
vt 0.8388672 0.7407227
vt 0.9404297 0.7666016
vt 0.8393555 0.7382813
vt 0.9443359 0.7529297
vt 0.8398438 0.737793
vt 0.9443359 0.7280273
vt 0.8398438 0.7275391
vt 0.9448242 0.6606445
vt 0.840332 0.6650391
vt 0.9414063 0.6254883
vt 0.8374023 0.6357422
vt 0.9370117 0.5795898
vt 0.8330078 0.5893555
vt 0.9345703 0.5522461
vt 0.8325195 0.5854492
vt 0.9213867 0.5297852
vt 0.8310547 0.5830078
vt 0.9179688 0.5239258
vt 0.8276367 0.5771484
vt 0.9150391 0.519043
vt 0.8188477 0.5615234
vt 0.9135742 0.5161133
vt 0.8139648 0.5478516
vt 0.847168 0.3083496
vt 0.7475586 0.3400879
vt 0.7416992 0.3215332
vt 0.8486328 0.295166
vt 0.7446289 0.2861328
vt 0.8491211 0.2902832
vt 0.7451172 0.2814941
vt 0.8515625 0.2629395
vt 0.7451172 0.2783203
vt 0.8413086 0.2374268
vt 0.7441406 0.2753906
vt 0.8398438 0.2338867
vt 0.7426758 0.2719727
vt 0.8227539 0.1896973
vt 0.7299805 0.239624
vt 0.7856445 0.1373291
vt 0.7084961 0.2089844
vt 0.7587891 0.1151733
vt 0.703125 0.2045898
vt 0.7075195 0.09185791
vt 0.6645508 0.1870117
vt 0.6967773 0.0869751
vt 0.6606445 0.1853027
vt 0.684082 0.08319092
vt 0.6547852 0.1835938
vt 0.6157227 0.06323242
vt 0.5908203 0.164917
vt 0.1248169 0.4655762
vt 0.1157837 0.4587402
vt 0.1519775 0.4685059
vt 0.1920166 0.4775391
vt 0.2108154 0.4853516
vt 0.2261963 0.4931641
vt 0.2312012 0.5043945
vt 0.2342529 0.5126953
vt 0.2363281 0.5253906
vt 0.2335205 0.5410156
vt 0.2209473 0.5546875
vt 0.2003174 0.5600586
vt 0.1812744 0.5605469
vt 0.1582031 0.5615234
vt 0.1513672 0.5644531
vt 0.1417236 0.5683594
vt 0 0
vt 0.5 1
vt 1 0
vt 0 0
vt 1 0
vt 0 0
vt 1 0
vt 0 0
vt 1 0
vt 0 0
vt 1 0
vt 0 0
vt 0.5 1
vt 1 0
vt 0 0
vt 0.5 1
vt 1 0
vt 0 0
vt 0.5 1
vt 1 0
vt 0 0
vt 0.5 1
vt 1 0
vt 0 0
vt 1 0
vt 0 0
vt 0.5 1
vt 1 0
vt 0 0
vt 0.5 1
vt 1 0
vt 0 0
vt 0.5 1
vt 1 0
vt 0 0
vt 0.5 1
vt 1 0
vt 0 0
vt 0.5 1
vt 1 0
vt 0 0
vt 1 0
vt 0 0
vt 0.5 1
vt 1 0
vt 0 0
vt 0.5 1
vt 1 0
vn 0 1 0
vn -0.009292603 0.9990234 0.03814697
vn 0 1 0
vn -0.005599976 0.9995117 0.03070068
vn 0.02207947 0.9990234 0.03031921
vn 0 1 0
vn 0.03253174 0.9990234 0.02441406
vn 0 1 0
vn 0.01511383 0.9995117 0.01139832
vn 0 1 0
vn 0.01580811 0.9995117 0.00711441
vn 0 1 0
vn 0.01777649 0.9995117 0.004520416
vn 0 1 0
vn -0.03372192 0.9990234 -0.01013184
vn 0 1 0
vn -0.01130676 0.9995117 0.001677513
vn 0 1 0
vn 0.01054382 0.9995117 0.006118774
vn 0 1 0
vn -0.004764557 0.9995117 -0.002052307
vn 0 1 0
vn 0.002038956 0.9995117 0.001503944
vn 0 1 0
vn 0.002523422 0.9995117 0.001461983
vn 0 1 0
vn -0.2225342 0.9692383 -0.1038818
vn 0 1 0
vn -0.1500244 0.987793 0.03302002
vn 0 1 0
vn -0.1062012 0.9912109 0.07330322
vn -0.1390381 0.9892578 0.04418945
vn -0.05499268 0.9902344 0.1254883
vn -0.02952576 0.9892578 0.1425781
vn -0.0335083 0.9882813 0.1470947
vn 0 1 0
vn -0.03652954 0.984375 0.1695557
vn 0 1 0
vn -0.05963135 0.9838867 0.1662598
vn 0 1 0
vn -0.09545898 0.9819336 0.1619873
vn 0 1 0
vn -0.1184692 0.980957 0.1512451
vn 0 1 0
vn -0.177124 0.9765625 0.1204224
vn 0 1 0
vn -0.1947021 0.9755859 0.100647
vn 0 1 0
vn -0.2038574 0.9750977 0.08459473
vn 0 1 0
vn -0.2407227 0.9702148 0.01911926
vn 0 1 0
vn -0.2452393 0.9692383 0.01602173
vn 0 1 0
vn -0.2717285 0.9614258 -0.0406189
vn 0 1 0
vn -0.2978516 0.9536133 -0.03268433
vn 0 1 0
vn -0.3017578 0.953125 -0.005527496
vn 0 1 0
vn -0.3015137 0.9511719 -0.06103516
vn 0 1 0
vn -0.3032227 0.9389648 -0.1610107
vn 0 1 0
vn -0.3950195 0.9086914 -0.1346436
vn 0 1 0
vn -0.4301758 0.9023438 -0.01477814
vn 0 1 0
vn -0.1219482 0.9848633 -0.1209106
vn 0 1 0
vn -0.0960083 0.9868164 -0.1278076
vn 0 1 0
vn -0.04248047 0.9921875 -0.1135254
vn 0 1 0
vn 0 1 0
vn -0.03515625 0.9960938 -0.07513428
vn 0 1 0
vn -0.01646423 0.9990234 -0.03805542
vn -0.03878784 0.9980469 -0.0425415
vn -0.02127075 0.9995117 -0.02041626
vn -0.03909302 0.9990234 -0.01577759
vn 0 1 0
vn -0.02493286 0.9995117 -0.007240295
vn -0.03829956 0.9990234 -0.01079559
vn 0 1 0
vn -0.04507446 0.9985352 0.01141357
vn -0.05383301 0.9970703 0.04449463
vn 0 1 0
vn 0 1 0
vn -0.04217529 0.9956055 0.08203125
vn -0.03982544 0.9975586 0.05117798
vn 0 1 0
vn -0.01501465 0.9882813 0.1491699
vn 0 1 0
vn -0.02952576 0.9838867 0.1745605
vn 0 1 0
vn -0.1419678 0.9643555 0.22229
vn 0 1 0
vn -0.4543457 0.8876953 0.07049561
vn 0 1 0
vn -0.3813477 0.9238281 0.02545166
vn 0 1 0
vn -0.4389648 0.8979492 0.01849365
vn 0 1 0
vn -0.4624023 0.871582 -0.1612549
vn 0 1 0
vn -0.4697266 0.8681641 -0.1580811
vn -0.4785156 0.8583984 -0.1837158
vn 0 1 0
vn -0.3977051 0.8964844 0.1931152
vn 0 1 0
vn -0.3564453 0.8984375 0.2558594
vn 0 1 0
vn -0.3334961 0.921875 0.1962891
vn 0 1 0
vn -0.3044434 0.9501953 0.06451416
vn 0 1 0
vn -0.3005371 0.9536133 -0.004619598
vn 0 1 0
vn -0.3054199 0.9511719 -0.04229736
vn 0 1 0
vn -0.3349609 0.9370117 -0.09838867
vn 0 1 0
vn -0.3439941 0.9345703 -0.0904541
vn 0 1 0
vn -0.2653809 0.9541016 -0.1376953
vn 0 1 0
vn -0.2507324 0.9580078 -0.1374512
vn 0 1 0
vn -0.2404785 0.9624023 -0.1225586
vn 0 1 0
vn -0.2314453 0.965332 -0.1170044
vn 0 1 0
vn -0.1177368 0.9814453 -0.1486816
vn 0 1 0
vn -0.05337524 0.984375 -0.1661377
vn 0 1 0
vn -0.04190063 0.9853516 -0.1641846
vn 0 1 0
vn -0.0274353 0.9858398 -0.1633301
vn 0 1 0
vn -0.02372742 0.9863281 -0.161377
vn 0 1 0
vn -0.01799011 0.9873047 -0.1566162
vn 0 1 0
vn 0.001843452 0.9882813 -0.1507568
vn 0 1 0
vn 0.007728577 0.9892578 -0.1453857
vn 0 1 0
vn -0.02484131 0.9892578 -0.1427002
vn 0 1 0
vn -0.01400757 0.9897461 -0.1397705
vn 0 1 0
vn -0.1035767 0.9892578 -0.102478
vn 0 1 0
vn -0.1165161 0.9897461 -0.081604
vn 0 1 0
vn -0.01308441 0.9995117 -0.009254456
vn 0 1 0
vn -0.01035309 0.9995117 -0.004493713
vn 0 1 0
vn -0.01018524 0.9995117 -0.003173828
vn 0 1 0
vn -0.01280212 0.9995117 0.000420332
vn 0 1 0
vn -0.01099396 0.9995117 0.003799438
vn 0 1 0
vn 0.03775024 0.9990234 -0.006134033
vn 0 1 0
vn 0.01947021 0.9990234 -0.02799988
vn 0.06002808 0.9980469 -0.01287079
vn 0.003143311 0.9985352 -0.04824829
vn -0.01593018 0.9985352 -0.04174805
vn -0.01605225 0.9990234 -0.0402832
vn 0 1 0
vn -0.01608276 0.9990234 -0.03341675
vn 0 1 0
vn -0.01438141 0.9990234 -0.02786255
vn 0 1 0
vn -0.01532745 0.9995117 -0.02626038
vn 0 1 0
vn -0.01634216 0.9995117 -0.02056885
vn 0 1 0
vn -0.01091003 0.9995117 -0.01462555
vn 0 1 0
vn -0.01177979 0.9995117 -0.01203918
vn 0 1 0
vn -0.01551056 0.9995117 -0.007404327
vn 0 1 0
vn -0.0146637 0.9995117 0.001094818
vn 0 1 0
vn -0.01629639 0.9995117 0.002651215
vn 0 1 0
vn -0.02415466 0.9995117 0.003313065
vn 0 1 0
vn -0.02479553 0.9995117 0.003513336
vn 0 1 0
vn -0.02639771 0.9995117 0.002298355
vn 0 1 0
vn -0.02680969 0.9995117 0.0005598068
vn 0 1 0
vn -0.02696228 0.9995117 0.0002031326
vn 0 1 0
vn -0.02690125 0.9995117 -0.0003173351
vn 0 1 0
vn -0.02627563 0.9995117 -0.001390457
vn 0 1 0
vn -0.02584839 0.9995117 -0.001202583
vn 0 1 0
vn -0.02500916 0.9995117 -0.00173378
vn 0 1 0
vn -0.02357483 0.9995117 -0.004009247
vn 0 1 0
vn -0.02029419 0.9995117 -0.007766724
vn 0 1 0
vn -0.01980591 0.9995117 -0.007213593
vn 0 1 0
vn -0.01449585 0.9995117 -0.001253128
vn 0 1 0
vn -0.0144577 0.9995117 -0.005653381
vn 0 1 0
vn 0 1 0
vn -0.01812744 0.9990234 -0.03436279
vn 0 1 0
vn -0.02723694 0.9995117 0.0008807182
vn 0 1 0
vn -0.02694702 0.9995117 -0.001051903
vn 0 1 0
vn -0.02633667 0.9995117 -0.003339767
vn 0 1 0
vn -0.02394104 0.9995117 -0.00453186
vn 0 1 0
vn -0.02128601 0.9995117 -0.004161835
vn 0 1 0
vn -0.0188446 0.9995117 -0.002758026
vn 0 1 0
vn -0.01324463 0.9995117 0.001673698
vn 0 1 0
vn -0.01137543 0.9995117 0.00318718
vn 0 1 0
vn -0.01210022 0.9995117 0.009185791
vn 0 1 0
vn -0.007171631 0.9995117 0.01541901
vn 0 1 0
vn -0.005970001 0.9995117 0.02226257
vn 0 1 0
vn -0.09588623 0.984375 -0.1463623
vn 0 1 0
vn -0.09936523 0.9824219 -0.1567383
vn -0.08428955 0.9819336 -0.1679688
vn -0.07702637 0.9873047 -0.1361084
vn -0.08654785 0.9936523 -0.07006836
vn -0.09838867 0.9941406 -0.0352478
vn -0.09844971 0.9946289 -0.02000427
vn -0.09899902 0.9946289 0.00415802
vn -0.09851074 0.9936523 0.04473877
vn -0.08508301 0.9912109 0.09881592
vn -0.05178833 0.9819336 0.1807861
vn -0.05923462 0.9672852 0.2463379
vn 0 1 0
vn -0.3259277 0.9379883 0.1139526
vn -0.3510742 0.9355469 -0.0291748
vn -0.3950195 0.9086914 -0.1346436
vn -0.182251 0.9799805 -0.07818604
vn -0.4301758 0.9023438 -0.01477814
vn 0 1 0
vn -0.09588623 0.984375 -0.1463623
vn -0.08428955 0.9819336 -0.1679688
vn -0.07702637 0.9873047 -0.1361084
vn -0.09936523 0.9824219 -0.1567383
vn -0.08428955 0.9819336 -0.1679688
vn -0.07702637 0.9873047 -0.1361084
vn -0.08654785 0.9936523 -0.07006836
vn -0.4301758 0.9023438 -0.01477814
vn -0.182251 0.9799805 -0.07818604
vn 0 1 0
vn -0.09588623 0.984375 -0.1463623
vn -0.182251 0.9799805 -0.07818604
vn -0.09936523 0.9824219 -0.1567383
vn -0.08654785 0.9936523 -0.07006836
vn -0.182251 0.9799805 -0.07818604
vn -0.09838867 0.9941406 -0.0352478
vn 0 1 0
vn -0.182251 0.9799805 -0.07818604
vn -0.3259277 0.9379883 0.1139526
vn -0.08508301 0.9912109 0.09881592
vn -0.05178833 0.9819336 0.1807861
vn -0.3510742 0.9355469 -0.0291748
vn -0.182251 0.9799805 -0.07818604
vn -0.3813477 0.9238281 0.02545166
vn -0.3259277 0.9379883 0.1139526
vn -0.182251 0.9799805 -0.07818604
vn -0.3510742 0.9355469 -0.0291748
vn -0.09851074 0.9936523 0.04473877
vn -0.182251 0.9799805 -0.07818604
vn -0.08508301 0.9912109 0.09881592
vn -0.09899902 0.9946289 0.00415802
vn -0.182251 0.9799805 -0.07818604
vn -0.09851074 0.9936523 0.04473877
vn -0.05178833 0.9819336 0.1807861
vn -0.182251 0.9799805 -0.07818604
vn -0.05923462 0.9672852 0.2463379
vn -0.05923462 0.9672852 0.2463379
vn 0 1 0
vn -0.09844971 0.9946289 -0.02000427
vn -0.182251 0.9799805 -0.07818604
vn -0.09899902 0.9946289 0.00415802
vn -0.09838867 0.9941406 -0.0352478
vn -0.182251 0.9799805 -0.07818604
vn -0.09844971 0.9946289 -0.02000427
g yeDi_0
f 3/3/3 2/2/2 1/1/1
f 2/2/2 4/4/4 1/1/1
f 5/5/5 2/2/2 3/3/3
f 6/6/6 5/5/5 3/3/3
f 7/7/7 5/5/5 6/6/6
f 8/8/8 7/7/7 6/6/6
f 9/9/9 7/7/7 8/8/8
f 10/10/10 9/9/9 8/8/8
f 11/11/11 9/9/9 10/10/10
f 12/12/12 11/11/11 10/10/10
f 13/13/13 11/11/11 12/12/12
f 14/14/14 13/13/13 12/12/12
f 15/15/15 13/13/13 14/14/14
f 16/16/16 15/15/15 14/14/14
f 17/17/17 15/15/15 16/16/16
f 18/18/18 17/17/17 16/16/16
f 19/19/19 17/17/17 18/18/18
f 20/20/20 19/19/19 18/18/18
f 21/21/21 19/19/19 20/20/20
f 22/22/22 21/21/21 20/20/20
f 23/23/23 21/21/21 22/22/22
f 24/24/24 23/23/23 22/22/22
f 25/25/25 23/23/23 24/24/24
f 26/26/26 25/25/25 24/24/24
f 27/27/27 25/25/25 26/26/26
f 28/28/28 27/27/27 26/26/26
f 29/29/29 27/27/27 28/28/28
f 30/30/30 29/29/29 28/28/28
f 31/31/31 29/29/29 30/30/30
f 32/32/32 31/31/31 30/30/30
f 33/33/33 31/31/31 32/32/32
f 34/34/34 31/31/31 33/33/33
f 35/35/35 31/31/31 34/34/34
f 36/36/36 35/35/35 34/34/34
f 37/37/37 35/35/35 36/36/36
f 38/38/38 37/37/37 36/36/36
f 39/39/39 37/37/37 38/38/38
f 40/40/40 39/39/39 38/38/38
f 41/41/41 39/39/39 40/40/40
f 42/42/42 41/41/41 40/40/40
f 43/43/43 41/41/41 42/42/42
f 44/44/44 43/43/43 42/42/42
f 45/45/45 43/43/43 44/44/44
f 46/46/46 45/45/45 44/44/44
f 47/47/47 45/45/45 46/46/46
f 48/48/48 47/47/47 46/46/46
f 49/49/49 47/47/47 48/48/48
f 50/50/50 49/49/49 48/48/48
f 51/51/51 49/49/49 50/50/50
f 52/52/52 51/51/51 50/50/50
f 53/53/53 51/51/51 52/52/52
f 54/54/54 53/53/53 52/52/52
f 55/55/55 53/53/53 54/54/54
f 56/56/56 55/55/55 54/54/54
f 57/57/57 55/55/55 56/56/56
f 58/58/58 57/57/57 56/56/56
f 59/59/59 57/57/57 58/58/58
f 60/60/60 59/59/59 58/58/58
f 61/61/61 59/59/59 60/60/60
f 62/62/62 61/61/61 60/60/60
f 63/63/63 61/61/61 62/62/62
f 64/64/64 63/63/63 62/62/62
f 65/65/65 63/63/63 64/64/64
f 66/66/66 65/65/65 64/64/64
f 67/67/67 65/65/65 66/66/66
f 68/68/68 67/67/67 66/66/66
f 69/69/69 67/67/67 68/68/68
f 70/70/70 69/69/69 68/68/68
f 71/71/71 69/69/69 70/70/70
f 72/72/72 71/71/71 70/70/70
f 73/73/73 71/71/71 72/72/72
f 74/74/74 73/73/73 72/72/72
f 75/75/75 73/73/73 74/74/74
f 76/76/76 73/73/73 75/75/75
f 77/77/77 76/76/76 75/75/75
f 78/78/78 76/76/76 77/77/77
f 79/79/79 76/76/76 78/78/78
f 80/80/80 79/79/79 78/78/78
f 79/79/79 80/80/80 81/81/81
f 80/80/80 82/82/82 81/81/81
f 82/82/82 83/83/83 81/81/81
f 83/83/83 84/84/84 81/81/81
f 83/83/83 85/85/85 84/84/84
f 85/85/85 86/86/86 84/84/84
f 87/87/87 86/86/86 85/85/85
f 88/88/88 87/87/87 85/85/85
f 89/89/89 87/87/87 88/88/88
f 90/90/90 87/87/87 89/89/89
f 91/91/91 90/90/90 89/89/89
f 92/92/92 90/90/90 91/91/91
f 93/93/93 90/90/90 92/92/92
f 94/94/94 93/93/93 92/92/92
f 95/95/95 93/93/93 94/94/94
f 96/96/96 95/95/95 94/94/94
f 97/97/97 95/95/95 96/96/96
f 98/98/98 97/97/97 96/96/96
f 99/99/99 97/97/97 98/98/98
f 100/100/100 99/99/99 98/98/98
f 101/101/101 99/99/99 100/100/100
f 102/102/102 101/101/101 100/100/100
f 103/103/103 101/101/101 102/102/102
f 104/104/104 103/103/103 102/102/102
f 105/105/105 103/103/103 104/104/104
f 106/106/106 105/105/105 104/104/104
f 107/107/107 105/105/105 106/106/106
f 108/108/108 107/107/107 106/106/106
f 109/109/109 107/107/107 108/108/108
f 110/110/110 107/107/107 109/109/109
f 111/111/111 110/110/110 109/109/109
f 112/112/112 110/110/110 111/111/111
f 113/113/113 112/112/112 111/111/111
f 114/114/114 112/112/112 113/113/113
f 115/115/115 114/114/114 113/113/113
f 116/116/116 114/114/114 115/115/115
f 117/117/117 116/116/116 115/115/115
f 118/118/118 116/116/116 117/117/117
f 119/119/119 118/118/118 117/117/117
f 120/120/120 118/118/118 119/119/119
f 121/121/121 120/120/120 119/119/119
f 122/122/122 120/120/120 121/121/121
f 123/123/123 122/122/122 121/121/121
f 124/124/124 122/122/122 123/123/123
f 125/125/125 124/124/124 123/123/123
f 126/126/126 124/124/124 125/125/125
f 127/127/127 126/126/126 125/125/125
f 128/128/128 126/126/126 127/127/127
f 129/129/129 128/128/128 127/127/127
f 130/130/130 128/128/128 129/129/129
f 131/131/131 130/130/130 129/129/129
f 132/132/132 130/130/130 131/131/131
f 133/133/133 132/132/132 131/131/131
f 134/134/134 132/132/132 133/133/133
f 135/135/135 134/134/134 133/133/133
f 136/136/136 134/134/134 135/135/135
f 137/137/137 136/136/136 135/135/135
f 138/138/138 136/136/136 137/137/137
f 139/139/139 138/138/138 137/137/137
f 140/140/140 138/138/138 139/139/139
f 141/141/141 140/140/140 139/139/139
f 142/142/142 140/140/140 141/141/141
f 143/143/143 142/142/142 141/141/141
f 144/144/144 142/142/142 143/143/143
f 145/145/145 144/144/144 143/143/143
f 146/146/146 144/144/144 145/145/145
f 147/147/147 146/146/146 145/145/145
f 148/148/148 146/146/146 147/147/147
f 149/149/149 148/148/148 147/147/147
f 150/150/150 148/148/148 149/149/149
f 151/151/151 150/150/150 149/149/149
f 152/152/152 150/150/150 151/151/151
f 153/153/153 152/152/152 151/151/151
f 154/154/154 152/152/152 153/153/153
f 155/155/155 154/154/154 153/153/153
f 156/156/156 154/154/154 155/155/155
f 157/157/157 156/156/156 155/155/155
f 158/158/158 156/156/156 157/157/157
f 159/159/159 158/158/158 157/157/157
f 160/160/160 158/158/158 159/159/159
f 161/161/161 160/160/160 159/159/159
f 162/162/162 160/160/160 161/161/161
f 163/163/163 162/162/162 161/161/161
f 164/164/164 162/162/162 163/163/163
f 165/165/165 164/164/164 163/163/163
f 166/166/166 164/164/164 165/165/165
f 167/167/167 166/166/166 165/165/165
f 168/168/168 166/166/166 167/167/167
f 169/169/169 168/168/168 167/167/167
f 170/170/170 168/168/168 169/169/169
f 171/171/171 170/170/170 169/169/169
f 172/172/172 170/170/170 171/171/171
f 173/173/173 170/170/170 172/172/172
f 174/174/174 170/170/170 173/173/173
f 175/175/175 174/174/174 173/173/173
f 176/176/176 174/174/174 175/175/175
f 177/177/177 176/176/176 175/175/175
f 178/178/178 176/176/176 177/177/177
f 179/179/179 178/178/178 177/177/177
f 180/180/180 178/178/178 179/179/179
f 181/181/181 180/180/180 179/179/179
f 182/182/182 180/180/180 181/181/181
f 183/183/183 182/182/182 181/181/181
f 184/184/184 182/182/182 183/183/183
f 185/185/185 184/184/184 183/183/183
f 186/186/186 184/184/184 185/185/185
f 187/187/187 186/186/186 185/185/185
f 188/188/188 186/186/186 187/187/187
f 189/189/189 188/188/188 187/187/187
f 190/190/190 188/188/188 189/189/189
f 191/191/191 190/190/190 189/189/189
f 192/192/192 190/190/190 191/191/191
f 193/193/193 192/192/192 191/191/191
f 194/194/194 192/192/192 193/193/193
f 195/195/195 194/194/194 193/193/193
f 196/196/196 194/194/194 195/195/195
f 197/197/197 196/196/196 195/195/195
f 198/198/198 196/196/196 197/197/197
f 199/199/199 198/198/198 197/197/197
f 200/200/200 198/198/198 199/199/199
f 201/201/201 200/200/200 199/199/199
f 202/202/202 200/200/200 201/201/201
f 203/203/203 202/202/202 201/201/201
f 204/204/204 202/202/202 203/203/203
f 205/205/205 204/204/204 203/203/203
f 206/206/206 204/204/204 205/205/205
f 207/207/207 206/206/206 205/205/205
f 208/208/208 206/206/206 207/207/207
f 209/209/209 208/208/208 207/207/207
f 210/210/210 208/208/208 209/209/209
f 211/211/211 210/210/210 209/209/209
f 212/212/212 210/210/210 211/211/211
f 213/213/213 212/212/212 211/211/211
f 214/214/214 212/212/212 213/213/213
f 215/215/215 214/214/214 213/213/213
f 216/216/216 214/214/214 215/215/215
f 217/217/217 216/216/216 215/215/215
f 218/218/218 216/216/216 217/217/217
f 219/219/219 218/218/218 217/217/217
f 220/220/220 218/218/218 219/219/219
f 221/221/221 220/220/220 219/219/219
f 222/222/222 220/220/220 221/221/221
f 223/223/223 220/220/220 222/222/222
f 224/224/224 223/223/223 222/222/222
f 225/225/225 223/223/223 224/224/224
f 226/226/226 225/225/225 224/224/224
f 227/227/227 225/225/225 226/226/226
f 228/228/228 227/227/227 226/226/226
f 229/229/229 227/227/227 228/228/228
f 230/230/230 229/229/229 228/228/228
f 231/231/231 229/229/229 230/230/230
f 232/232/232 231/231/231 230/230/230
f 233/233/233 231/231/231 232/232/232
f 234/234/234 233/233/233 232/232/232
f 235/235/235 233/233/233 234/234/234
f 236/236/236 235/235/235 234/234/234
f 237/237/237 235/235/235 236/236/236
f 238/238/238 237/237/237 236/236/236
f 239/239/239 237/237/237 238/238/238
f 240/240/240 239/239/239 238/238/238
f 241/241/241 239/239/239 240/240/240
f 242/242/242 241/241/241 240/240/240
f 243/243/243 241/241/241 242/242/242
f 244/244/244 243/243/243 242/242/242
f 245/245/245 243/243/243 244/244/244
f 246/246/246 245/245/245 244/244/244
f 4/4/4 245/245/245 246/246/246
f 1/1/1 4/4/4 246/246/246
f 69/69/69 247/247/247 67/67/67
f 247/247/247 248/248/248 67/67/67
f 249/249/249 247/247/247 69/69/69
f 71/71/71 249/249/249 69/69/69
f 250/250/250 249/249/249 71/71/71
f 73/73/73 250/250/250 71/71/71
f 251/251/251 250/250/250 73/73/73
f 76/76/76 251/251/251 73/73/73
f 252/252/252 251/251/251 76/76/76
f 79/79/79 252/252/252 76/76/76
f 253/253/253 252/252/252 79/79/79
f 81/81/81 253/253/253 79/79/79
f 254/254/254 253/253/253 81/81/81
f 84/84/84 254/254/254 81/81/81
f 255/255/255 254/254/254 84/84/84
f 86/86/86 255/255/255 84/84/84
f 256/256/256 255/255/255 86/86/86
f 87/87/87 256/256/256 86/86/86
f 257/257/257 256/256/256 87/87/87
f 90/90/90 257/257/257 87/87/87
f 258/258/258 257/257/257 90/90/90
f 93/93/93 258/258/258 90/90/90
f 259/259/259 258/258/258 93/93/93
f 95/95/95 259/259/259 93/93/93
f 260/260/260 259/259/259 95/95/95
f 97/97/97 260/260/260 95/95/95
f 261/261/261 260/260/260 97/97/97
f 99/99/99 261/261/261 97/97/97
f 262/262/262 261/261/261 99/99/99
f 101/101/101 262/262/262 99/99/99
f 265/265/265 264/264/264 263/263/263
f 267/267/267 264/264/264 266/266/266
f 269/269/269 264/264/264 268/268/268
f 271/271/271 264/264/264 270/270/270
f 273/273/273 264/264/264 272/272/272
f 276/276/276 275/275/275 274/274/274
f 279/279/279 278/278/278 277/277/277
f 282/282/282 281/281/281 280/280/280
f 285/285/285 284/284/284 283/283/283
f 287/287/287 284/284/284 286/286/286
f 290/290/290 289/289/289 288/288/288
f 293/293/293 292/292/292 291/291/291
f 296/296/296 295/295/295 294/294/294
f 299/299/299 298/298/298 297/297/297
f 302/302/302 301/301/301 300/300/300
f 304/304/304 301/301/301 303/303/303
f 307/307/307 306/306/306 305/305/305
f 310/310/310 309/309/309 308/308/308
