g buff_dunpa
v 1.053945 -0.3033656 -1.944098E-06
v 0.6689929 -0.3574584 0.4284885
v 0.6689928 0.1851636 0.4284885
v 1.053944 0.2242366 -1.959E-06
v 0.2893581 -0.4173617 0.6899094
v 0.289358 0.1252603 0.6899094
v -1.053944 -0.5018185 0.6899095
v -1.053945 0.0006014922 0.6899095
v -1.053945 0.3311751 -2.061818E-06
v -1.053945 0.0006014922 0.6899095
v -1.053944 -0.5018185 0.6899095
v -1.053944 -0.3082063 -2.042446E-06
v 0.6689928 0.1851636 0.4284885
v -0.1505025 0.5671445 -2.108011E-06
v 1.053944 0.2242366 -1.959E-06
v 0.289358 0.1252603 0.6899094
v 0.6689928 0.1851636 0.4284885
v -1.053945 0.0006014922 0.6899095
v 0.289358 0.1252603 0.6899094
v -1.053945 0.3311751 -2.061818E-06
v -1.053945 0.0006014922 0.6899095
v 0.6689928 0.1851636 -0.4284886
v 1.053944 0.2242366 -1.959E-06
v 0.289358 0.1252603 -0.6899093
v 0.6689928 0.1851636 -0.4284886
v -1.053945 0.0006014511 -0.6899093
v 0.289358 0.1252603 -0.6899093
v -1.053945 0.3311751 -2.061818E-06
v -1.053945 0.0006014511 -0.6899093
v -0.2129413 0.00912354 -1.897905E-06
v -1.053944 -0.5018185 0.6899095
v 0.2893581 -0.4173617 0.6899094
v 0.6689929 -0.3574584 0.4284885
v 0.2893581 -0.4173617 0.6899094
v 0.6689929 -0.3574584 0.4284885
v 1.053945 -0.3033656 -1.944098E-06
v -1.053944 -0.3082063 -2.042446E-06
v -1.053944 -0.5018185 0.6899095
v 1.053945 -0.3033656 -1.944098E-06
v 1.053944 0.2242366 -1.959E-06
v 0.6689928 0.1851636 -0.4284886
v 0.6689929 -0.3574584 -0.4284886
v 0.289358 -0.4173617 -0.6899093
v 0.289358 0.1252603 -0.6899093
v -1.053944 -0.5018185 -0.6899093
v -1.053945 0.0006014511 -0.6899093
v -1.053945 0.3311751 -2.061818E-06
v -1.053944 -0.3082063 -2.042446E-06
v -1.053944 -0.5018185 -0.6899093
v -1.053945 0.0006014511 -0.6899093
v -1.053944 -0.5018185 -0.6899093
v -0.2129413 0.00912354 -1.897905E-06
v 0.289358 -0.4173617 -0.6899093
v 0.6689929 -0.3574584 -0.4284886
v 0.289358 -0.4173617 -0.6899093
v 1.053945 -0.3033656 -1.944098E-06
v 0.6689929 -0.3574584 -0.4284886
v -1.053944 -0.5018185 -0.6899093
v -1.053944 -0.3082063 -2.042446E-06
vt 0.3725 0.6036
vt 0.3115 0.6036
vt 0.3117 0.5768
vt 0.3725 0.5768
vt 0.2567 0.6036
vt 0.2567 0.5768
vt 0.0746 0.6036
vt 0.0746 0.5768
vt 0.0085 0.5768
vt 0.0746 0.5768
vt 0.0746 0.6036
vt 0.0085 0.6036
vt 0.048 0.7013
vt 0.1078 0.8388
vt 0.1078 0.6369
vt 0.0101 0.764
vt 0.048 0.7013
vt 0.0102 0.9924
vt 0.0101 0.764
vt 0.1078 0.9924
vt 0.0102 0.9924
vt 0.1685 0.702
vt 0.1078 0.6369
vt 0.206 0.764
vt 0.1685 0.702
vt 0.206 0.9924
vt 0.206 0.764
vt 0.1078 0.9924
vt 0.206 0.9924
vt 0.7469 0.4895
vt 0.6589 0.604
vt 0.6586 0.4211
vt 0.6917 0.3694
vt 0.6586 0.4211
vt 0.6917 0.3694
vt 0.7469 0.3168
vt 0.7469 0.604
vt 0.6589 0.604
vt 0.3725 0.6036
vt 0.3725 0.5768
vt 0.3117 0.5768
vt 0.3115 0.6036
vt 0.2567 0.6036
vt 0.2567 0.5768
vt 0.0746 0.6036
vt 0.0746 0.5768
vt 0.0085 0.5768
vt 0.0085 0.6036
vt 0.0746 0.6036
vt 0.0746 0.5768
vt 0.6589 0.604
vt 0.7469 0.4895
vt 0.6586 0.4211
vt 0.6917 0.3694
vt 0.6586 0.4211
vt 0.7469 0.3168
vt 0.6917 0.3694
vt 0.6589 0.604
vt 0.7469 0.604
vn 1 0 -2.203461E-06
vn 0.6601034 0 0.7511747
vn 0.6601034 0 0.7511747
vn 1 0 -2.203461E-06
vn 0.393853 0 0.9191734
vn 0.1969265 0 0.9804183
vn -0.7071068 0 0.7071068
vn -0.7071068 0 0.7071068
vn -1 0 0
vn -0.7071068 0 0.7071068
vn -0.7071068 0 0.7071068
vn -1 0 0
vn 0.2597403 0.912325 0.3165408
vn 0.03644849 0.9993355 -1.295506E-06
vn 0.2597403 0.912325 0.3165408
vn 0.1723777 0.8757228 0.4509939
vn 0.1723777 0.8757228 0.4509939
vn -0.07581821 0.8170044 0.5716251
vn -0.07581821 0.8170044 0.5716251
vn -0.2292714 0.8777984 0.4206003
vn -0.2292714 0.8777984 0.4206003
vn 0.2597401 0.9123241 -0.3165435
vn 0.2597401 0.9123241 -0.3165435
vn 0.1723788 0.8757219 -0.4509954
vn 0.1723788 0.8757219 -0.4509954
vn -0.07581814 0.8170027 -0.5716276
vn -0.07581814 0.8170027 -0.5716276
vn -0.2292712 0.8777974 -0.4206026
vn -0.2292712 0.8777974 -0.4206026
vn 0.002412678 -0.9999971 1.051144E-06
vn 0.05230691 -0.8319533 -0.5523748
vn 0.05230691 -0.8319533 -0.5523748
vn -0.158318 -0.8872727 -0.4332234
vn -0.158318 -0.8872727 -0.4332234
vn -0.2268923 -0.9198612 -0.3199615
vn -0.2268923 -0.9198612 -0.3199615
vn 0.3414544 -0.9049393 -0.2539561
vn 0.3414544 -0.9049393 -0.2539561
vn 1 0 -2.203461E-06
vn 1 0 -2.203461E-06
vn 0.6601017 0 -0.7511762
vn 0.6601017 0 -0.7511763
vn 0.3938529 0 -0.9191735
vn 0.1969264 0 -0.9804183
vn -0.7071068 0 -0.7071068
vn -0.7071068 0 -0.7071068
vn -1 0 0
vn -1 0 0
vn -0.7071068 0 -0.7071068
vn -0.7071068 0 -0.7071068
vn 0.05230687 -0.8319519 0.5523768
vn 0.002412678 -0.9999971 1.051144E-06
vn 0.05230687 -0.8319519 0.5523768
vn -0.158319 -0.8872719 0.4332247
vn -0.158319 -0.8872719 0.4332247
vn -0.226892 -0.9198603 0.3199642
vn -0.226892 -0.9198603 0.3199642
vn 0.3414543 -0.904939 0.2539576
vn 0.3414543 -0.904939 0.2539576
g buff_dunpa_0
f 3/3/3 2/2/2 1/1/1
f 1/1/1 4/4/4 3/3/3
f 5/5/5 2/2/2 3/3/3
f 3/3/3 6/6/6 5/5/5
f 7/7/7 5/5/5 6/6/6
f 6/6/6 8/8/8 7/7/7
f 11/11/11 10/10/10 9/9/9
f 9/9/9 12/12/12 11/11/11
f 15/15/15 14/14/14 13/13/13
f 17/17/17 14/14/14 16/16/16
f 19/19/19 14/14/14 18/18/18
f 21/21/21 14/14/14 20/20/20
f 23/23/23 22/22/22 14/14/14
f 25/25/25 24/24/24 14/14/14
f 27/27/27 26/26/26 14/14/14
f 29/29/29 28/28/28 14/14/14
f 32/32/32 31/31/31 30/30/30
f 34/34/34 30/30/30 33/33/33
f 30/30/30 36/36/36 35/35/35
f 30/30/30 38/38/38 37/37/37
f 41/41/41 40/40/40 39/39/39
f 39/39/39 42/42/42 41/41/41
f 41/41/41 42/42/42 43/43/43
f 43/43/43 44/44/44 41/41/41
f 44/44/44 43/43/43 45/45/45
f 45/45/45 46/46/46 44/44/44
f 49/49/49 48/48/48 47/47/47
f 47/47/47 50/50/50 49/49/49
f 53/53/53 52/52/52 51/51/51
f 55/55/55 54/54/54 52/52/52
f 52/52/52 57/57/57 56/56/56
f 52/52/52 59/59/59 58/58/58
