g NQS_A_WQ
v 0.1204895 0.01036846 0.07549354
v 0.1667853 0.009388504 0.02434113
v 0.169118 0.009388542 0.07549354
v 0.1204895 0.01036842 0.02434113
v 0.07419189 0.01036846 0.07549354
v 0.07419189 0.009388504 0.02434113
v 0.04777252 0.009388504 0.02434113
v 0.008599549 0.01036846 0.07887001
v 0.01099945 0.009388504 0.02397392
v -0.01397308 0.01036846 0.08594497
v 0.09500518 0.009388504 0.005714645
v 0.1272134 0.009388504 0.006014557
v 0.1569998 0.009388504 0.006130066
v 0.1357242 0.01036846 0.08679084
v 0.1652612 0.009388542 0.08663543
v -0.009196167 0.01036842 0.0240097
v -0.03055969 0.009388504 -0.0004373169
v 0.01011932 0.009388504 -0.001459198
v 0.01099945 0.009388504 0.02397392
v -0.01397308 0.01036846 0.08594497
v -0.07124023 0.01036842 0.0260865
v -0.07124023 0.009388504 0.0005844879
v -0.09922577 0.01036842 0.02419678
v -0.08627563 0.009388465 -0.00802658
v -0.07124023 0.009388542 0.08672615
v -0.07987732 0.009388542 0.07996208
v -0.1280493 0.009388504 0.02185173
v -0.09391967 0.009388542 0.09010269
v -0.09596069 0.009388542 0.08664223
v -0.1257663 0.009388504 0.006942825
v -0.09768707 0.009388465 -0.01903221
v -0.1280493 0.009388504 0.02185173
v -0.1076733 0.009388465 -0.03447472
v -0.1446909 0.009388465 -0.01414696
v -0.1585025 0.009388465 -0.03727493
v -0.1129315 0.009388465 -0.05515602
v -0.1411771 0.009387054 -0.08601776
v -0.1756753 0.009388427 -0.06998787
v -0.09125854 0.009388427 -0.09010254
v -0.1078604 0.009388504 0.04775253
v -0.09922577 0.01036842 0.02419678
v -0.07124023 0.01036842 0.0260865
v -0.08851318 0.009388542 0.07319809
v -0.1025281 0.005476799 0.06269165
v -0.08851318 0.009388542 0.07319809
v -0.09649169 0.006942711 0.06732529
v -0.1078604 0.009388504 0.04775253
v -0.09649169 0.006942711 0.06732529
v -0.1077341 0.006942711 0.06835549
v -0.1025281 0.005476799 0.06269165
v -0.09776092 0.006942711 0.07587455
v -0.108566 0.006942711 0.05805946
v -0.1077341 0.006942711 0.06835549
v -0.1134348 0.006942711 0.06117058
v -0.1025281 0.005476799 0.06269165
v -0.1025281 0.005476799 0.06269165
v -0.108566 0.006942711 0.05805946
v -0.1078604 0.009388504 0.04775253
v -0.1134348 0.006942711 0.06117058
v -0.1228668 0.006942711 0.06882995
v -0.1220718 0.006942711 0.06151993
v -0.1077341 0.006942711 0.06835549
v -0.01266754 0.003831215 -0.01959618
v -0.02039154 -1.335144E-06 -0.03213524
v -0.01266754 -1.335144E-06 -0.01959618
v -0.02039154 0.003831215 -0.03213524
v -0.01266754 0.003831215 -0.01959618
v -0.0278833 0.003831215 -0.02322708
v -0.02039154 0.003831215 -0.03213524
v -0.01412414 0.003831215 -0.006519165
v -0.02575561 0.003831215 -0.009529877
v -0.04535583 0.003831215 -0.03176941
v -0.04937317 0.003831215 -0.02518005
v -0.06781983 0.003831215 -0.03747169
v -0.07178741 0.003831215 -0.03271019
v -0.0742865 0.003831215 -0.03840828
v -0.07911132 0.003831215 -0.03390114
v -0.07690796 0.003831215 -0.01764999
v -0.08419739 0.003831215 -0.01924126
v -0.01628357 0.003831253 0.0006313324
v -0.0325647 0.003831253 0.001398773
v -0.0862918 0.003831253 -0.003117905
v -0.07899719 0.003831253 -0.0010672
v -0.0742865 0.003831215 -0.03840828
v -0.07911132 -1.335144E-06 -0.03390114
v -0.0742865 -1.335144E-06 -0.03840828
v -0.07911132 0.003831215 -0.03390114
v -0.02039154 0.003831215 -0.03213524
v -0.04535583 -1.335144E-06 -0.03176941
v -0.02039154 -1.335144E-06 -0.03213524
v -0.04535583 0.003831215 -0.03176941
v -0.07911132 0.003831215 -0.03390114
v -0.08419739 3.814697E-08 -0.01924126
v -0.07911132 -1.335144E-06 -0.03390114
v -0.08419739 0.003831215 -0.01924126
v -0.04937317 0.003831215 -0.02518005
v -0.07178741 -1.335144E-06 -0.03271019
v -0.07178741 0.003831215 -0.03271019
v -0.04937317 -1.335144E-06 -0.02518005
v -0.01412414 0.003831215 -0.006519165
v -0.01628357 -1.296997E-06 0.0006313324
v -0.01628357 0.003831253 0.0006313324
v -0.01412414 -1.335144E-06 -0.006519165
v -0.01266754 -1.335144E-06 -0.01959618
v -0.01266754 0.003831215 -0.01959618
v -0.02575561 -1.335144E-06 -0.009529877
v -0.0278833 0.003831215 -0.02322708
v -0.02575561 0.003831215 -0.009529877
v -0.0278833 -1.335144E-06 -0.02322708
v -0.0325647 -1.296997E-06 0.001398773
v -0.0325647 0.003831253 0.001398773
v -0.0278833 -1.335144E-06 -0.02322708
v -0.04937317 0.003831215 -0.02518005
v -0.0278833 0.003831215 -0.02322708
v -0.04937317 -1.335144E-06 -0.02518005
v -0.0742865 -1.335144E-06 -0.03840828
v -0.06781983 0.003831215 -0.03747169
v -0.0742865 0.003831215 -0.03840828
v -0.06781983 -1.335144E-06 -0.03747169
v -0.07690796 3.814697E-08 -0.01764999
v -0.07178741 0.003831215 -0.03271019
v -0.07178741 -1.335144E-06 -0.03271019
v -0.07690796 0.003831215 -0.01764999
v -0.06781983 -1.335144E-06 -0.03747169
v -0.04535583 0.003831215 -0.03176941
v -0.06781983 0.003831215 -0.03747169
v -0.04535583 -1.335144E-06 -0.03176941
v -0.009353027 7.629394E-08 0.01698158
v -0.05916595 0.01704029 0.02491745
v -0.05916595 7.629394E-08 0.01698158
v -0.009353027 0.01704029 0.02491745
v -0.05916595 0.02409382 0.04407753
v -0.009353027 0.02409382 0.04407753
v -0.05916595 0.01704033 0.06323776
v -0.009353027 0.01704033 0.06323776
v -0.05916595 1.144409E-07 0.07117485
v -0.009353027 1.144409E-07 0.07117485
v -0.05916595 0.02409382 0.04407753
v -0.05916595 7.629394E-08 0.01698158
v -0.05916595 0.01704029 0.02491745
v -0.05916595 1.144409E-07 0.07117485
v -0.05916595 0.01704033 0.06323776
v -0.009353027 0.02409382 0.04407753
v -0.009353027 7.629394E-08 0.01698158
v -0.009353027 0.01704033 0.06323776
v -0.009353027 0.01704029 0.02491745
v -0.009353027 1.144409E-07 0.07117485
v -0.08419739 0.003831215 -0.01924126
v -0.0862918 -1.296997E-06 -0.003117905
v -0.08419739 3.814697E-08 -0.01924126
v -0.0862918 0.003831253 -0.003117905
v -0.07690796 0.003831215 -0.01764999
v -0.07899719 -1.296997E-06 -0.0010672
v -0.07899719 0.003831253 -0.0010672
v -0.07690796 3.814697E-08 -0.01764999
v 0.007553101 0.005841255 0.02481972
v 0.08447967 -1.296997E-06 0.01621963
v 0.08447967 0.005841255 0.02481972
v 0.007553101 -1.296997E-06 0.01621963
v 0.08447967 -0.005842476 0.02481972
v 0.007553101 -0.005842476 0.02481972
v -0.0619223 0.002535629 -0.008789825
v -0.07237335 0.002535667 0.0008885193
v -0.06725006 0.002535629 -0.01413185
v -0.06363709 0.002535667 0.003277512
v -0.05574127 0.002535629 -0.01831703
v -0.06725006 0.002535629 -0.01413185
v -0.07237335 -0.002527656 0.0008885193
v -0.06725006 -0.002517128 -0.01413185
v -0.07237335 0.002535667 0.0008885193
v -0.0619223 0.002535629 -0.008789825
v -0.05574127 -0.002517128 -0.01831703
v -0.0619223 -0.002517128 -0.008789825
v -0.05574127 0.002535629 -0.01831703
v -0.0619223 -0.002517128 -0.008789825
v -0.06363709 0.002535667 0.003277512
v -0.0619223 0.002535629 -0.008789825
v -0.06363709 -0.002527656 0.003277512
v -0.06725006 -0.002517128 -0.01413185
v -0.05574127 0.002535629 -0.01831703
v -0.06725006 0.002535629 -0.01413185
v -0.05574127 -0.002517128 -0.01831703
v 0.1569998 0.009388504 0.006130066
v 0.1272134 -0.01036964 0.006014557
v 0.1569998 -0.01036964 0.006130066
v 0.1272134 0.009388504 0.006014557
v 0.09500518 -0.01036964 0.005714645
v 0.09500518 0.009388504 0.005714645
v 0.1357242 -0.01036961 0.08679084
v 0.1652612 0.009388542 0.08663543
v 0.1652612 -0.01036961 0.08663543
v 0.1357242 0.01036846 0.08679084
v 0.1667853 -0.01036964 0.02434113
v 0.1204895 -0.01036961 0.07549354
v 0.169118 -0.01036961 0.07549354
v 0.1204895 -0.01036964 0.02434113
v 0.07419189 -0.01036964 0.02434113
v 0.09500518 -0.01036964 0.005714645
v 0.1272134 -0.01036964 0.006014557
v 0.07419189 -0.01036961 0.07549354
v 0.04777252 -0.01036964 0.02434113
v 0.008599549 -0.01036961 0.07887001
v 0.01099945 -0.01036964 0.02397392
v -0.01397308 -0.01036961 0.08594497
v 0.1569998 -0.01036964 0.006130066
v 0.1357242 -0.01036961 0.08679084
v 0.1652612 -0.01036961 0.08663543
v -0.01397308 -0.01036961 0.08594497
v 0.008599549 0.01036846 0.07887001
v 0.008599549 -0.01036961 0.07887001
v -0.01397308 0.01036846 0.08594497
v -0.07124023 0.009388542 0.08672615
v -0.07124023 -0.01036961 0.08672615
v 0.07419189 0.01036846 0.07549354
v 0.07419189 -0.01036961 0.07549354
v 0.1204895 0.01036846 0.07549354
v 0.1204895 -0.01036961 0.07549354
v 0.01011932 -0.01036964 -0.001459198
v -0.03055969 -0.01036964 -0.0004373169
v -0.009196167 -0.01036964 0.0240097
v 0.01099945 -0.01036964 0.02397392
v -0.01397308 -0.01036961 0.08594497
v -0.07124023 -0.01036964 0.0260865
v -0.07124023 -0.01036964 0.0005844879
v -0.09922577 -0.01036964 0.02419678
v -0.08627563 -0.01036968 -0.00802658
v -0.07124023 -0.01036961 0.08672615
v -0.07987732 -0.01036961 0.07996208
v -0.1078604 -0.01036964 0.04775253
v -0.1280493 -0.01036964 0.02185173
v -0.08851318 -0.01036961 0.07319809
v -0.1257663 -0.01036964 0.006942825
v -0.09768707 -0.01036968 -0.01903221
v -0.1076733 -0.01036968 -0.03447472
v -0.1446909 -0.01036968 -0.01414696
v -0.1585025 -0.01036968 -0.03727493
v -0.1129315 -0.01036968 -0.05515602
v -0.09391967 -0.01036961 0.09010269
v -0.09596069 -0.01036961 0.08664223
v -0.1411771 -0.01036972 -0.08601776
v -0.1756753 -0.01036972 -0.06998787
v -0.09125854 -0.01036972 -0.09010254
v 0.1667853 0.009388504 0.02434113
v 0.1569998 -0.01036964 0.006130066
v 0.1667853 -0.01036964 0.02434113
v 0.1569998 0.009388504 0.006130066
v 0.1204895 0.01036846 0.07549354
v 0.1357242 -0.01036961 0.08679084
v 0.1204895 -0.01036961 0.07549354
v 0.1357242 0.01036846 0.08679084
v -0.07124023 0.009388504 0.0005844879
v -0.08627563 -0.01036968 -0.00802658
v -0.07124023 -0.01036964 0.0005844879
v -0.08627563 0.009388465 -0.00802658
v -0.1280493 -0.01036964 0.02185173
v -0.1078604 0.009388504 0.04775253
v -0.1078604 -0.01036964 0.04775253
v -0.1280493 0.009388504 0.02185173
v -0.08851318 -0.01036961 0.07319809
v -0.1025281 -0.005477943 0.06269165
v -0.09649169 -0.005477943 0.06732529
v -0.1078604 -0.01036964 0.04775253
v -0.108566 -0.005477943 0.05805946
v -0.1078604 0.009388504 0.04775253
v -0.108566 0.006942711 0.05805946
v -0.1078604 -0.01036964 0.04775253
v -0.1077341 -0.005477943 0.06835549
v -0.09649169 -0.005477943 0.06732529
v -0.1025281 -0.005477943 0.06269165
v -0.09776092 -0.005477943 0.07587455
v -0.108566 -0.005477943 0.05805946
v -0.1134348 -0.005477943 0.06117058
v -0.1228668 -0.005477943 0.06882995
v -0.1220718 -0.005477943 0.06151993
v -0.108566 0.006942711 0.05805946
v -0.1134348 -0.005477943 0.06117058
v -0.108566 -0.005477943 0.05805946
v -0.1134348 0.006942711 0.06117058
v -0.1078604 -0.01036964 0.04775253
v -0.108566 -0.005477943 0.05805946
v -0.1025281 -0.005477943 0.06269165
v -0.1134348 0.006942711 0.06117058
v -0.1220718 -0.005477943 0.06151993
v -0.1134348 -0.005477943 0.06117058
v -0.1220718 0.006942711 0.06151993
v -0.1077341 -0.005477943 0.06835549
v -0.09776092 0.006942711 0.07587455
v -0.09776092 -0.005477943 0.07587455
v -0.1077341 0.006942711 0.06835549
v -0.1228668 -0.005477943 0.06882995
v -0.1077341 0.006942711 0.06835549
v -0.1077341 -0.005477943 0.06835549
v -0.1228668 0.006942711 0.06882995
v -0.1220718 -0.005477943 0.06151993
v -0.1228668 0.006942711 0.06882995
v -0.1228668 -0.005477943 0.06882995
v -0.1220718 0.006942711 0.06151993
v -0.08627563 0.009388465 -0.00802658
v -0.09768707 -0.01036968 -0.01903221
v -0.08627563 -0.01036968 -0.00802658
v -0.09768707 0.009388465 -0.01903221
v -0.09768707 0.009388465 -0.01903221
v -0.1076733 -0.01036968 -0.03447472
v -0.09768707 -0.01036968 -0.01903221
v -0.1076733 0.009388465 -0.03447472
v -0.1129315 0.009388465 -0.05515602
v -0.09125854 -0.01036972 -0.09010254
v -0.1129315 -0.01036968 -0.05515602
v -0.09125854 0.009388427 -0.09010254
v -0.1585025 -0.01036968 -0.03727493
v -0.1446909 0.009388465 -0.01414696
v -0.1446909 -0.01036968 -0.01414696
v -0.1585025 0.009388465 -0.03727493
v -0.08851318 -0.01036961 0.07319809
v -0.07987732 0.009388542 0.07996208
v -0.07987732 -0.01036961 0.07996208
v -0.08851318 0.009388542 0.07319809
v -0.09649169 -0.005477943 0.06732529
v -0.09649169 0.006942711 0.06732529
v -0.07987732 0.009388542 0.07996208
v -0.09596069 -0.01036961 0.08664223
v -0.07987732 -0.01036961 0.07996208
v -0.09596069 0.009388542 0.08664223
v 0.1667853 -0.01036964 0.02434113
v 0.169118 0.009388542 0.07549354
v 0.1667853 0.009388504 0.02434113
v 0.169118 -0.01036961 0.07549354
v 0.01099945 -0.01036964 0.02397392
v 0.04777252 0.009388504 0.02434113
v 0.01099945 0.009388504 0.02397392
v 0.04777252 -0.01036964 0.02434113
v 0.01011932 -0.01036964 -0.001459198
v 0.01011932 0.009388504 -0.001459198
v -0.03055969 -0.01036964 -0.0004373169
v -0.03055969 0.009388504 -0.0004373169
v 0.07419189 0.009388504 0.02434113
v 0.07419189 -0.01036964 0.02434113
v -0.07124023 -0.01036964 0.0005844879
v -0.07124023 0.009388504 0.0005844879
v 0.07419189 -0.01036964 0.02434113
v 0.09500518 0.009388504 0.005714645
v 0.07419189 0.009388504 0.02434113
v 0.09500518 -0.01036964 0.005714645
v 0.169118 -0.01036961 0.07549354
v 0.1652612 0.009388542 0.08663543
v 0.169118 0.009388542 0.07549354
v 0.1652612 -0.01036961 0.08663543
v -0.09391967 -0.01036961 0.09010269
v -0.09596069 0.009388542 0.08664223
v -0.09391967 0.009388542 0.09010269
v -0.09596069 -0.01036961 0.08664223
v -0.09649169 -0.005477943 0.06732529
v -0.09776092 0.006942711 0.07587455
v -0.09649169 0.006942711 0.06732529
v -0.09776092 -0.005477943 0.07587455
v -0.1280493 -0.01036964 0.02185173
v -0.1257663 0.009388504 0.006942825
v -0.1280493 0.009388504 0.02185173
v -0.1257663 -0.01036964 0.006942825
v -0.1257663 -0.01036964 0.006942825
v -0.1446909 0.009388465 -0.01414696
v -0.1257663 0.009388504 0.006942825
v -0.1446909 -0.01036968 -0.01414696
v -0.1585025 -0.01036968 -0.03727493
v -0.1756753 0.009388427 -0.06998787
v -0.1585025 0.009388465 -0.03727493
v -0.1756753 -0.01036972 -0.06998787
v -0.1129315 -0.01036968 -0.05515602
v -0.1076733 0.009388465 -0.03447472
v -0.1129315 0.009388465 -0.05515602
v -0.1076733 -0.01036968 -0.03447472
v -0.07124023 -0.01036961 0.08672615
v -0.09391967 0.009388542 0.09010269
v -0.07124023 0.009388542 0.08672615
v -0.09391967 -0.01036961 0.09010269
v -0.01266754 -1.335144E-06 -0.01959618
v -0.02039154 -0.003832512 -0.03213524
v -0.01266754 -0.003832512 -0.01959618
v -0.02039154 -1.335144E-06 -0.03213524
v -0.0278833 -0.003832512 -0.02322708
v -0.01266754 -0.003832512 -0.01959618
v -0.02039154 -0.003832512 -0.03213524
v -0.01412414 -0.003832512 -0.006519165
v -0.02575561 -0.003832512 -0.009529877
v -0.04535583 -0.003832512 -0.03176941
v -0.04937317 -0.003832512 -0.02518005
v -0.06781983 -0.003832512 -0.03747169
v -0.07178741 -0.003832512 -0.03271019
v -0.0742865 -0.003832512 -0.03840828
v -0.07911132 -0.003832512 -0.03390114
v -0.07690796 -0.003832512 -0.01764999
v -0.08419739 -0.003832512 -0.01924126
v -0.01628357 -0.003832474 0.0006313324
v -0.0325647 -0.003832474 0.001398773
v -0.0862918 -0.003832474 -0.003117905
v -0.07899719 -0.003832474 -0.0010672
v -0.0742865 -1.335144E-06 -0.03840828
v -0.07911132 -0.003832512 -0.03390114
v -0.0742865 -0.003832512 -0.03840828
v -0.07911132 -1.335144E-06 -0.03390114
v -0.02039154 -1.335144E-06 -0.03213524
v -0.04535583 -0.003832512 -0.03176941
v -0.02039154 -0.003832512 -0.03213524
v -0.04535583 -1.335144E-06 -0.03176941
v -0.07911132 -1.335144E-06 -0.03390114
v -0.08419739 -0.003832512 -0.01924126
v -0.07911132 -0.003832512 -0.03390114
v -0.08419739 3.814697E-08 -0.01924126
v -0.07178741 -0.003832512 -0.03271019
v -0.04937317 -1.335144E-06 -0.02518005
v -0.04937317 -0.003832512 -0.02518005
v -0.07178741 -1.335144E-06 -0.03271019
v -0.01412414 -0.003832512 -0.006519165
v -0.01628357 -1.296997E-06 0.0006313324
v -0.01412414 -1.335144E-06 -0.006519165
v -0.01628357 -0.003832474 0.0006313324
v -0.01266754 -0.003832512 -0.01959618
v -0.01266754 -1.335144E-06 -0.01959618
v -0.02575561 -0.003832512 -0.009529877
v -0.0278833 -1.335144E-06 -0.02322708
v -0.02575561 -1.335144E-06 -0.009529877
v -0.0278833 -0.003832512 -0.02322708
v -0.0325647 -0.003832474 0.001398773
v -0.0325647 -1.296997E-06 0.001398773
v -0.0278833 -0.003832512 -0.02322708
v -0.04937317 -1.335144E-06 -0.02518005
v -0.0278833 -1.335144E-06 -0.02322708
v -0.04937317 -0.003832512 -0.02518005
v -0.0742865 -0.003832512 -0.03840828
v -0.06781983 -1.335144E-06 -0.03747169
v -0.0742865 -1.335144E-06 -0.03840828
v -0.06781983 -0.003832512 -0.03747169
v -0.07178741 -1.335144E-06 -0.03271019
v -0.07690796 -0.003832512 -0.01764999
v -0.07690796 3.814697E-08 -0.01764999
v -0.07178741 -0.003832512 -0.03271019
v -0.06781983 -0.003832512 -0.03747169
v -0.04535583 -1.335144E-06 -0.03176941
v -0.06781983 -1.335144E-06 -0.03747169
v -0.04535583 -0.003832512 -0.03176941
v -0.05916595 7.629394E-08 0.01698158
v -0.009353027 -0.01704151 0.02491745
v -0.009353027 7.629394E-08 0.01698158
v -0.05916595 -0.01704151 0.02491745
v -0.009353027 -0.02409374 0.04407753
v -0.05916595 -0.02409374 0.04407753
v -0.009353027 -0.01704147 0.06323776
v -0.05916595 -0.01704147 0.06323776
v -0.009353027 1.144409E-07 0.07117485
v -0.05916595 1.144409E-07 0.07117485
v -0.05916595 7.629394E-08 0.01698158
v -0.05916595 -0.02409374 0.04407753
v -0.05916595 -0.01704151 0.02491745
v -0.05916595 1.144409E-07 0.07117485
v -0.05916595 -0.01704147 0.06323776
v -0.009353027 7.629394E-08 0.01698158
v -0.009353027 -0.02409374 0.04407753
v -0.009353027 -0.01704147 0.06323776
v -0.009353027 -0.01704151 0.02491745
v -0.009353027 1.144409E-07 0.07117485
v -0.08419739 3.814697E-08 -0.01924126
v -0.0862918 -0.003832474 -0.003117905
v -0.08419739 -0.003832512 -0.01924126
v -0.0862918 -1.296997E-06 -0.003117905
v -0.07899719 -0.003832474 -0.0010672
v -0.07690796 3.814697E-08 -0.01764999
v -0.07690796 -0.003832512 -0.01764999
v -0.07899719 -1.296997E-06 -0.0010672
v -0.1411771 -0.01036972 -0.08601776
v -0.09125854 0.009388427 -0.09010254
v -0.1411771 0.009387054 -0.08601776
v -0.09125854 -0.01036972 -0.09010254
v -0.1756753 -0.01036972 -0.06998787
v -0.1411771 0.009387054 -0.08601776
v -0.1756753 0.009388427 -0.06998787
v -0.1411771 -0.01036972 -0.08601776
v -0.07237335 -0.002527656 0.0008885193
v -0.0619223 -0.002536926 -0.008789825
v -0.06725006 -0.002536926 -0.01413185
v -0.06363709 -0.002527656 0.003277512
v -0.05574127 -0.002536926 -0.01831703
v -0.06725006 0.002517128 -0.01413185
v -0.07237335 -0.002527656 0.0008885193
v -0.06725006 -0.002536926 -0.01413185
v -0.07237335 0.002517166 0.0008885193
v -0.0619223 0.002517128 -0.008789825
v -0.05574127 -0.002536926 -0.01831703
v -0.0619223 -0.002536926 -0.008789825
v -0.05574127 0.002517128 -0.01831703
v -0.0619223 -0.002536926 -0.008789825
v -0.06363709 0.002517166 0.003277512
v -0.0619223 0.002517128 -0.008789825
v -0.06363709 -0.002527656 0.003277512
v -0.06725006 -0.002536926 -0.01413185
v -0.05574127 0.002517128 -0.01831703
v -0.06725006 0.002517128 -0.01413185
v -0.05574127 -0.002536926 -0.01831703
v 0.00243927 0.01036854 0.1811664
v 0.04873504 0.00938858 0.130014
v 0.05106781 0.009388618 0.1811664
v 0.00243927 0.0103685 0.130014
v -0.04385834 0.01036854 0.1811664
v -0.04385834 0.00938858 0.130014
v -0.07027771 0.00938858 0.130014
v -0.1094507 0.01036854 0.1845428
v -0.1070508 0.00938858 0.1296467
v -0.1320236 0.01036854 0.1916177
v -0.02304535 0.009388542 0.1113874
v 0.009163207 0.009388542 0.1116874
v 0.03894958 0.009388542 0.1118028
v 0.01767395 0.01036854 0.1924636
v 0.047211 0.009388618 0.1923083
v -0.1272467 0.0103685 0.1296825
v -0.1486099 0.009388542 0.1052355
v -0.1079309 0.009388542 0.1042136
v -0.1070508 0.00938858 0.1296467
v -0.1320236 0.01036854 0.1916177
v -0.1892908 0.0103685 0.1317593
v -0.1892908 0.009388542 0.1062573
v -0.217276 0.0103685 0.1298695
v -0.2043262 0.009388542 0.09764618
v -0.1892908 0.009388618 0.192399
v -0.1979278 0.009388618 0.1856348
v -0.2460998 0.00938858 0.1275246
v -0.2119702 0.009388618 0.1957754
v -0.2140109 0.009388618 0.192315
v -0.2438165 0.009388542 0.1126157
v -0.2157373 0.009388542 0.08664063
v -0.2460998 0.00938858 0.1275246
v -0.2257239 0.009388542 0.07119804
v -0.2627411 0.009388542 0.09152588
v -0.2765527 0.009388542 0.0683979
v -0.2309818 0.009388504 0.05051674
v -0.2592273 0.009387131 0.019655
v -0.2937259 0.009388504 0.03568497
v -0.2093088 0.009388504 0.01557022
v -0.2259106 0.00938858 0.1534254
v -0.217276 0.0103685 0.1298695
v -0.1892908 0.0103685 0.1317593
v -0.2065637 0.009388618 0.1788708
v -0.2205783 0.005476837 0.1683645
v -0.2065637 0.009388618 0.1788708
v -0.2145419 0.006942749 0.1729981
v -0.2259106 0.00938858 0.1534254
v -0.2145419 0.006942749 0.1729981
v -0.2257843 0.006942749 0.1740282
v -0.2205783 0.005476837 0.1683645
v -0.2158111 0.006942787 0.1815473
v -0.2266162 0.006942749 0.1637323
v -0.2257843 0.006942749 0.1740282
v -0.231485 0.006942749 0.1668434
v -0.2205783 0.005476837 0.1683645
v -0.2205783 0.005476837 0.1683645
v -0.2266162 0.006942749 0.1637323
v -0.2259106 0.00938858 0.1534254
v -0.231485 0.006942749 0.1668434
v -0.240917 0.006942749 0.1745028
v -0.2401221 0.006942749 0.1671927
v -0.2257843 0.006942749 0.1740282
v -0.1307178 0.003831291 0.08607674
v -0.1384418 -1.25885E-06 0.0735376
v -0.1307178 -1.25885E-06 0.08607674
v -0.1384418 0.003831291 0.0735376
v -0.1307178 0.003831291 0.08607674
v -0.1459335 0.003831291 0.08244583
v -0.1384418 0.003831291 0.0735376
v -0.1321744 0.003831291 0.09915374
v -0.1438058 0.003831291 0.09614304
v -0.1634061 0.003831291 0.0739035
v -0.1674234 0.003831291 0.08049278
v -0.1858701 0.003831291 0.06820121
v -0.1898376 0.003831291 0.07296272
v -0.1923367 0.003831291 0.06726463
v -0.1971616 0.003831291 0.0717717
v -0.1949582 0.003831291 0.08802292
v -0.2022476 0.003831291 0.08643165
v -0.1343338 0.003831291 0.1063042
v -0.1506149 0.003831291 0.1070717
v -0.204342 0.003831291 0.102555
v -0.1970474 0.003831291 0.1046057
v -0.1923367 0.003831291 0.06726463
v -0.1971616 -1.25885E-06 0.0717717
v -0.1923367 -1.25885E-06 0.06726463
v -0.1971616 0.003831291 0.0717717
v -0.1384418 0.003831291 0.0735376
v -0.1634061 -1.25885E-06 0.0739035
v -0.1384418 -1.25885E-06 0.0735376
v -0.1634061 0.003831291 0.0739035
v -0.1971616 0.003831291 0.0717717
v -0.2022476 1.144409E-07 0.08643165
v -0.1971616 -1.25885E-06 0.0717717
v -0.2022476 0.003831291 0.08643165
v -0.1674234 0.003831291 0.08049278
v -0.1898376 -1.25885E-06 0.07296272
v -0.1898376 0.003831291 0.07296272
v -0.1674234 -1.25885E-06 0.08049278
v -0.1321744 0.003831291 0.09915374
v -0.1343338 -1.25885E-06 0.1063042
v -0.1343338 0.003831291 0.1063042
v -0.1321744 -1.25885E-06 0.09915374
v -0.1307178 -1.25885E-06 0.08607674
v -0.1307178 0.003831291 0.08607674
v -0.1438058 -1.25885E-06 0.09614304
v -0.1459335 0.003831291 0.08244583
v -0.1438058 0.003831291 0.09614304
v -0.1459335 -1.25885E-06 0.08244583
v -0.1506149 -1.25885E-06 0.1070717
v -0.1506149 0.003831291 0.1070717
v -0.1459335 -1.25885E-06 0.08244583
v -0.1674234 0.003831291 0.08049278
v -0.1459335 0.003831291 0.08244583
v -0.1674234 -1.25885E-06 0.08049278
v -0.1923367 -1.25885E-06 0.06726463
v -0.1858701 0.003831291 0.06820121
v -0.1923367 0.003831291 0.06726463
v -0.1858701 -1.25885E-06 0.06820121
v -0.1949582 1.144409E-07 0.08802292
v -0.1898376 0.003831291 0.07296272
v -0.1898376 -1.25885E-06 0.07296272
v -0.1949582 0.003831291 0.08802292
v -0.1858701 -1.25885E-06 0.06820121
v -0.1634061 0.003831291 0.0739035
v -0.1858701 0.003831291 0.06820121
v -0.1634061 -1.25885E-06 0.0739035
v -0.1274033 1.525879E-07 0.1226545
v -0.1772159 0.01704037 0.1305904
v -0.1772159 1.525879E-07 0.1226545
v -0.1274033 0.01704037 0.1305904
v -0.1772159 0.02409389 0.1497504
v -0.1274033 0.02409389 0.1497504
v -0.1772159 0.01704037 0.1689107
v -0.1274033 0.01704037 0.1689107
v -0.1772159 1.525879E-07 0.1768478
v -0.1274033 1.525879E-07 0.1768478
v -0.1772159 0.02409389 0.1497504
v -0.1772159 1.525879E-07 0.1226545
v -0.1772159 0.01704037 0.1305904
v -0.1772159 1.525879E-07 0.1768478
v -0.1772159 0.01704037 0.1689107
v -0.1274033 0.02409389 0.1497504
v -0.1274033 1.525879E-07 0.1226545
v -0.1274033 0.01704037 0.1689107
v -0.1274033 0.01704037 0.1305904
v -0.1274033 1.525879E-07 0.1768478
v -0.2022476 0.003831291 0.08643165
v -0.204342 -1.25885E-06 0.102555
v -0.2022476 1.144409E-07 0.08643165
v -0.204342 0.003831291 0.102555
v -0.1949582 0.003831291 0.08802292
v -0.1970474 -1.25885E-06 0.1046057
v -0.1970474 0.003831291 0.1046057
v -0.1949582 1.144409E-07 0.08802292
v -0.1104971 0.005841332 0.1304926
v -0.03357055 -1.220703E-06 0.1218925
v -0.03357055 0.005841332 0.1304926
v -0.1104971 -1.220703E-06 0.1218925
v -0.03357055 -0.005842399 0.1304926
v -0.1104971 -0.005842399 0.1304926
v -0.1799722 0.002535705 0.09688301
v -0.1904236 0.002535705 0.1065614
v -0.1853003 0.002535705 0.09154106
v -0.1816873 0.002535705 0.1089503
v -0.1737915 0.002535705 0.08735588
v -0.1853003 0.002535705 0.09154106
v -0.1904237 -0.002527618 0.1065614
v -0.1853003 -0.002517052 0.09154106
v -0.1904236 0.002535705 0.1065614
v -0.1799722 0.002535705 0.09688301
v -0.1737915 -0.002517052 0.08735588
v -0.1799722 -0.002517052 0.09688301
v -0.1737915 0.002535705 0.08735588
v -0.1799722 -0.002517052 0.09688301
v -0.1816873 0.002535705 0.1089503
v -0.1799722 0.002535705 0.09688301
v -0.1816873 -0.002527618 0.1089503
v -0.1853003 -0.002517052 0.09154106
v -0.1737915 0.002535705 0.08735588
v -0.1853003 0.002535705 0.09154106
v -0.1737915 -0.002517052 0.08735588
v 0.03894958 0.009388542 0.1118028
v 0.009163207 -0.01036961 0.1116874
v 0.03894958 -0.01036961 0.1118028
v 0.009163207 0.009388542 0.1116874
v -0.02304535 -0.01036961 0.1113874
v -0.02304535 0.009388542 0.1113874
v 0.01767395 -0.01036953 0.1924636
v 0.047211 0.009388618 0.1923083
v 0.047211 -0.01036953 0.1923083
v 0.01767395 0.01036854 0.1924636
v 0.04873504 -0.01036957 0.130014
v 0.00243927 -0.01036953 0.1811664
v 0.05106781 -0.01036953 0.1811664
v 0.00243927 -0.01036957 0.130014
v -0.04385834 -0.01036957 0.130014
v -0.02304535 -0.01036961 0.1113874
v 0.009163207 -0.01036961 0.1116874
v -0.04385834 -0.01036953 0.1811664
v -0.07027771 -0.01036957 0.130014
v -0.1094507 -0.01036953 0.1845428
v -0.1070508 -0.01036957 0.1296467
v -0.1320236 -0.01036953 0.1916177
v 0.03894958 -0.01036961 0.1118028
v 0.01767395 -0.01036953 0.1924636
v 0.047211 -0.01036953 0.1923083
v -0.1320236 -0.01036953 0.1916177
v -0.1094507 0.01036854 0.1845428
v -0.1094507 -0.01036953 0.1845428
v -0.1320236 0.01036854 0.1916177
v -0.1892908 0.009388618 0.192399
v -0.1892908 -0.01036953 0.192399
v -0.04385834 0.01036854 0.1811664
v -0.04385834 -0.01036953 0.1811664
v 0.00243927 0.01036854 0.1811664
v 0.00243927 -0.01036953 0.1811664
v -0.1079309 -0.01036961 0.1042136
v -0.1486099 -0.01036961 0.1052355
v -0.1272467 -0.01036957 0.1296825
v -0.1070508 -0.01036957 0.1296467
v -0.1320236 -0.01036953 0.1916177
v -0.1892908 -0.01036957 0.1317593
v -0.1892908 -0.01036961 0.1062573
v -0.217276 -0.01036957 0.1298695
v -0.2043262 -0.01036961 0.09764618
v -0.1892908 -0.01036953 0.192399
v -0.1979278 -0.01036953 0.1856348
v -0.2259106 -0.01036957 0.1534254
v -0.2460998 -0.01036957 0.1275246
v -0.2065637 -0.01036953 0.1788708
v -0.2438165 -0.01036961 0.1126157
v -0.2157373 -0.01036961 0.08664063
v -0.2257239 -0.01036961 0.07119804
v -0.2627411 -0.01036961 0.09152588
v -0.2765527 -0.01036961 0.0683979
v -0.2309818 -0.01036964 0.05051674
v -0.2119702 -0.01036953 0.1957754
v -0.2140109 -0.01036953 0.192315
v -0.2592273 -0.01036964 0.019655
v -0.2937259 -0.01036964 0.03568489
v -0.2093088 -0.01036964 0.01557022
v 0.04873504 0.00938858 0.130014
v 0.03894958 -0.01036961 0.1118028
v 0.04873504 -0.01036957 0.130014
v 0.03894958 0.009388542 0.1118028
v 0.00243927 0.01036854 0.1811664
v 0.01767395 -0.01036953 0.1924636
v 0.00243927 -0.01036953 0.1811664
v 0.01767395 0.01036854 0.1924636
v -0.1892908 0.009388542 0.1062573
v -0.2043262 -0.01036961 0.09764618
v -0.1892908 -0.01036961 0.1062573
v -0.2043262 0.009388542 0.09764618
v -0.2460998 -0.01036957 0.1275246
v -0.2259106 0.00938858 0.1534254
v -0.2259106 -0.01036957 0.1534254
v -0.2460998 0.00938858 0.1275246
v -0.2065637 -0.01036953 0.1788708
v -0.2205783 -0.005477905 0.1683645
v -0.2145419 -0.005477905 0.1729981
v -0.2259106 -0.01036957 0.1534254
v -0.2266162 -0.005477905 0.1637323
v -0.2259106 0.00938858 0.1534254
v -0.2266162 0.006942749 0.1637323
v -0.2259106 -0.01036957 0.1534254
v -0.2257843 -0.005477905 0.1740282
v -0.2145419 -0.005477905 0.1729981
v -0.2205783 -0.005477905 0.1683645
v -0.2158111 -0.005477867 0.1815473
v -0.2266162 -0.005477905 0.1637323
v -0.231485 -0.005477905 0.1668434
v -0.240917 -0.005477905 0.1745028
v -0.2401221 -0.005477905 0.1671927
v -0.2266162 0.006942749 0.1637323
v -0.231485 -0.005477905 0.1668434
v -0.2266162 -0.005477905 0.1637323
v -0.231485 0.006942749 0.1668434
v -0.2259106 -0.01036957 0.1534254
v -0.2266162 -0.005477905 0.1637323
v -0.2205783 -0.005477905 0.1683645
v -0.231485 0.006942749 0.1668434
v -0.2401221 -0.005477905 0.1671927
v -0.231485 -0.005477905 0.1668434
v -0.2401221 0.006942749 0.1671927
v -0.2257843 -0.005477905 0.1740282
v -0.2158111 0.006942787 0.1815473
v -0.2158111 -0.005477867 0.1815473
v -0.2257843 0.006942749 0.1740282
v -0.240917 -0.005477905 0.1745028
v -0.2257843 0.006942749 0.1740282
v -0.2257843 -0.005477905 0.1740282
v -0.240917 0.006942749 0.1745028
v -0.2401221 -0.005477905 0.1671927
v -0.240917 0.006942749 0.1745028
v -0.240917 -0.005477905 0.1745028
v -0.2401221 0.006942749 0.1671927
v -0.2043262 0.009388542 0.09764618
v -0.2157373 -0.01036961 0.08664063
v -0.2043262 -0.01036961 0.09764618
v -0.2157373 0.009388542 0.08664063
v -0.2157373 0.009388542 0.08664063
v -0.2257239 -0.01036961 0.07119804
v -0.2157373 -0.01036961 0.08664063
v -0.2257239 0.009388542 0.07119804
v -0.2309818 0.009388504 0.05051674
v -0.2093088 -0.01036964 0.01557022
v -0.2309818 -0.01036964 0.05051674
v -0.2093088 0.009388504 0.01557022
v -0.2765527 -0.01036961 0.0683979
v -0.2627411 0.009388542 0.09152588
v -0.2627411 -0.01036961 0.09152588
v -0.2765527 0.009388542 0.0683979
v -0.2065637 -0.01036953 0.1788708
v -0.1979278 0.009388618 0.1856348
v -0.1979278 -0.01036953 0.1856348
v -0.2065637 0.009388618 0.1788708
v -0.2145419 -0.005477905 0.1729981
v -0.2145419 0.006942749 0.1729981
v -0.1979278 0.009388618 0.1856348
v -0.2140109 -0.01036953 0.192315
v -0.1979278 -0.01036953 0.1856348
v -0.2140109 0.009388618 0.192315
v 0.04873504 -0.01036957 0.130014
v 0.05106781 0.009388618 0.1811664
v 0.04873504 0.00938858 0.130014
v 0.05106781 -0.01036953 0.1811664
v -0.1070508 -0.01036957 0.1296467
v -0.07027771 0.00938858 0.130014
v -0.1070508 0.00938858 0.1296467
v -0.07027771 -0.01036957 0.130014
v -0.1079309 -0.01036961 0.1042136
v -0.1079309 0.009388542 0.1042136
v -0.1486099 -0.01036961 0.1052355
v -0.1486099 0.009388542 0.1052355
v -0.04385834 0.00938858 0.130014
v -0.04385834 -0.01036957 0.130014
v -0.1892908 -0.01036961 0.1062573
v -0.1892908 0.009388542 0.1062573
v -0.04385834 -0.01036957 0.130014
v -0.02304535 0.009388542 0.1113874
v -0.04385834 0.00938858 0.130014
v -0.02304535 -0.01036961 0.1113874
v 0.05106781 -0.01036953 0.1811664
v 0.047211 0.009388618 0.1923083
v 0.05106781 0.009388618 0.1811664
v 0.047211 -0.01036953 0.1923083
v -0.2119702 -0.01036953 0.1957754
v -0.2140109 0.009388618 0.192315
v -0.2119702 0.009388618 0.1957754
v -0.2140109 -0.01036953 0.192315
v -0.2145419 -0.005477905 0.1729981
v -0.2158111 0.006942787 0.1815473
v -0.2145419 0.006942749 0.1729981
v -0.2158111 -0.005477867 0.1815473
v -0.2460998 -0.01036957 0.1275246
v -0.2438165 0.009388542 0.1126157
v -0.2460998 0.00938858 0.1275246
v -0.2438165 -0.01036961 0.1126157
v -0.2438165 -0.01036961 0.1126157
v -0.2627411 0.009388542 0.09152588
v -0.2438165 0.009388542 0.1126157
v -0.2627411 -0.01036961 0.09152588
v -0.2765527 -0.01036961 0.0683979
v -0.2937259 0.009388504 0.03568497
v -0.2765527 0.009388542 0.0683979
v -0.2937259 -0.01036964 0.03568489
v -0.2309818 -0.01036964 0.05051674
v -0.2257239 0.009388542 0.07119804
v -0.2309818 0.009388504 0.05051674
v -0.2257239 -0.01036961 0.07119804
v -0.1892908 -0.01036953 0.192399
v -0.2119702 0.009388618 0.1957754
v -0.1892908 0.009388618 0.192399
v -0.2119702 -0.01036953 0.1957754
v -0.1307178 -1.25885E-06 0.08607674
v -0.1384418 -0.003832435 0.0735376
v -0.1307178 -0.003832435 0.08607674
v -0.1384418 -1.25885E-06 0.0735376
v -0.1459335 -0.003832435 0.08244583
v -0.1307178 -0.003832435 0.08607674
v -0.1384418 -0.003832435 0.0735376
v -0.1321744 -0.003832435 0.09915374
v -0.1438058 -0.003832435 0.09614304
v -0.1634061 -0.003832435 0.0739035
v -0.1674234 -0.003832435 0.08049278
v -0.1858701 -0.003832435 0.06820121
v -0.1898376 -0.003832435 0.07296272
v -0.1923367 -0.003832435 0.06726463
v -0.1971616 -0.003832435 0.0717717
v -0.1949582 -0.003832435 0.08802292
v -0.2022476 -0.003832435 0.08643165
v -0.1343338 -0.003832435 0.1063042
v -0.1506149 -0.003832435 0.1070717
v -0.204342 -0.003832435 0.102555
v -0.1970474 -0.003832435 0.1046057
v -0.1923367 -1.25885E-06 0.06726463
v -0.1971616 -0.003832435 0.0717717
v -0.1923367 -0.003832435 0.06726463
v -0.1971616 -1.25885E-06 0.0717717
v -0.1384418 -1.25885E-06 0.0735376
v -0.1634061 -0.003832435 0.0739035
v -0.1384418 -0.003832435 0.0735376
v -0.1634061 -1.25885E-06 0.0739035
v -0.1971616 -1.25885E-06 0.0717717
v -0.2022476 -0.003832435 0.08643165
v -0.1971616 -0.003832435 0.0717717
v -0.2022476 1.144409E-07 0.08643165
v -0.1898376 -0.003832435 0.07296272
v -0.1674234 -1.25885E-06 0.08049278
v -0.1674234 -0.003832435 0.08049278
v -0.1898376 -1.25885E-06 0.07296272
v -0.1321744 -0.003832435 0.09915374
v -0.1343338 -1.25885E-06 0.1063042
v -0.1321744 -1.25885E-06 0.09915374
v -0.1343338 -0.003832435 0.1063042
v -0.1307178 -0.003832435 0.08607674
v -0.1307178 -1.25885E-06 0.08607674
v -0.1438058 -0.003832435 0.09614304
v -0.1459335 -1.25885E-06 0.08244583
v -0.1438058 -1.25885E-06 0.09614304
v -0.1459335 -0.003832435 0.08244583
v -0.1506149 -0.003832435 0.1070717
v -0.1506149 -1.25885E-06 0.1070717
v -0.1459335 -0.003832435 0.08244583
v -0.1674234 -1.25885E-06 0.08049278
v -0.1459335 -1.25885E-06 0.08244583
v -0.1674234 -0.003832435 0.08049278
v -0.1923367 -0.003832435 0.06726463
v -0.1858701 -1.25885E-06 0.06820121
v -0.1923367 -1.25885E-06 0.06726463
v -0.1858701 -0.003832435 0.06820121
v -0.1898376 -1.25885E-06 0.07296272
v -0.1949582 -0.003832435 0.08802292
v -0.1949582 1.144409E-07 0.08802292
v -0.1898376 -0.003832435 0.07296272
v -0.1858701 -0.003832435 0.06820121
v -0.1634061 -1.25885E-06 0.0739035
v -0.1858701 -1.25885E-06 0.06820121
v -0.1634061 -0.003832435 0.0739035
v -0.1772159 1.525879E-07 0.1226545
v -0.1274033 -0.01704144 0.1305904
v -0.1274033 1.525879E-07 0.1226545
v -0.1772159 -0.01704144 0.1305904
v -0.1274033 -0.02409367 0.1497504
v -0.1772159 -0.02409367 0.1497504
v -0.1274033 -0.01704144 0.1689107
v -0.1772159 -0.01704144 0.1689107
v -0.1274033 1.525879E-07 0.1768478
v -0.1772159 1.525879E-07 0.1768478
v -0.1772159 1.525879E-07 0.1226545
v -0.1772159 -0.02409367 0.1497504
v -0.1772159 -0.01704144 0.1305904
v -0.1772159 1.525879E-07 0.1768478
v -0.1772159 -0.01704144 0.1689107
v -0.1274033 1.525879E-07 0.1226545
v -0.1274033 -0.02409367 0.1497504
v -0.1274033 -0.01704144 0.1689107
v -0.1274033 -0.01704144 0.1305904
v -0.1274033 1.525879E-07 0.1768478
v -0.2022476 1.144409E-07 0.08643165
v -0.204342 -0.003832435 0.102555
v -0.2022476 -0.003832435 0.08643165
v -0.204342 -1.25885E-06 0.102555
v -0.1970474 -0.003832435 0.1046057
v -0.1949582 1.144409E-07 0.08802292
v -0.1949582 -0.003832435 0.08802292
v -0.1970474 -1.25885E-06 0.1046057
v -0.2592273 -0.01036964 0.019655
v -0.2093088 0.009388504 0.01557022
v -0.2592273 0.009387131 0.019655
v -0.2093088 -0.01036964 0.01557022
v -0.2937259 -0.01036964 0.03568489
v -0.2592273 0.009387131 0.019655
v -0.2937259 0.009388504 0.03568497
v -0.2592273 -0.01036964 0.019655
v -0.1904237 -0.002527618 0.1065614
v -0.1799728 -0.002536812 0.09688301
v -0.1853003 -0.002536812 0.09154106
v -0.1816873 -0.002527618 0.1089503
v -0.1737918 -0.002536812 0.08735588
v -0.1853003 0.002517204 0.09154106
v -0.1904237 -0.002527618 0.1065614
v -0.1853003 -0.002536812 0.09154106
v -0.1904239 0.002517204 0.1065614
v -0.1799728 0.002517204 0.09688301
v -0.1737918 -0.002536812 0.08735588
v -0.1799728 -0.002536812 0.09688301
v -0.1737918 0.002517204 0.08735588
v -0.1799728 -0.002536812 0.09688301
v -0.1816873 0.002517204 0.1089503
v -0.1799728 0.002517204 0.09688301
v -0.1816873 -0.002527618 0.1089503
v -0.1853003 -0.002536812 0.09154106
v -0.1737918 0.002517204 0.08735588
v -0.1853003 0.002517204 0.09154106
v -0.1737918 -0.002536812 0.08735588
vt 0.0586 0.1979
vt 0.2562 0.0167
vt 0.0586 0.0179
vt 0.2562 0.1881
vt 0.0586 0.3693
vt 0.2562 0.3595
vt 0.2562 0.4573
vt 0.0586 0.6127
vt 0.2562 0.5934
vt 0.0586 0.6976
vt 0.3158 0.2788
vt 0.3158 0.1596
vt 0.3158 0.0494
vt 0.0122 0.1437
vt 0.0122 0.0343
vt 0.4156 0.7228
vt 0.4901 0.6283
vt 0.3393 0.6321
vt 0.3408 0.7265
vt 0.445 0.9411
vt 0.6457 0.7188
vt 0.6409 0.6244
vt 0.749 0.7066
vt 0.6951 0.5897
vt 0.6571 0.9332
vt 0.6877 0.9065
vt 0.8552 0.6927
vt 0.7417 0.9413
vt 0.7486 0.9281
vt 0.844 0.6379
vt 0.7354 0.5468
vt 0.8552 0.6927
vt 0.7696 0.4878
vt 0.9103 0.5564
vt 0.9573 0.4454
vt 0.7768 0.426
vt 0.8477 0.288
vt 0.9867 0.3116
vt 0.6652 0.3222
vt 0.7853 0.7922
vt 0.749 0.7066
vt 0.6457 0.7188
vt 0.7171 0.8837
vt 0.5244 0.5603
vt 0.4406 0.5791
vt 0.5068 0.5821
vt 0.5071 0.4812
vt 0.5068 0.5821
vt 0.548 0.5764
vt 0.5244 0.5603
vt 0.5185 0.6119
vt 0.5425 0.5386
vt 0.548 0.5764
vt 0.5626 0.5457
vt 0.5244 0.5603
vt 0.5244 0.5603
vt 0.5425 0.5386
vt 0.5071 0.4812
vt 0.5626 0.5457
vt 0.6031 0.5654
vt 0.594 0.5397
vt 0.548 0.5764
vt 0.6087 0.9929
vt 0.6607 0.9522
vt 0.6085 0.9525
vt 0.6609 0.9926
vt 0.2755 0.4678
vt 0.3593 0.4591
vt 0.3256 0.4062
vt 0.274 0.5387
vt 0.3383 0.5308
vt 0.4588 0.4258
vt 0.4755 0.4639
vt 0.5828 0.4112
vt 0.6007 0.4394
vt 0.618 0.4107
vt 0.6407 0.4382
vt 0.6175 0.5235
vt 0.6576 0.5201
vt 0.2805 0.5784
vt 0.3669 0.594
vt 0.6575 0.6078
vt 0.6171 0.6136
vt 0.8549 0.9919
vt 0.8782 0.9515
vt 0.8548 0.9515
vt 0.8783 0.9919
vt 0.6609 0.9926
vt 0.7493 0.9519
vt 0.6607 0.9522
vt 0.7495 0.9923
vt 0.8783 0.9919
vt 0.9333 0.9526
vt 0.8782 0.9515
vt 0.9334 0.9918
vt 0.1741 0.8497
vt 0.2562 0.8892
vt 0.2559 0.8491
vt 0.1744 0.8898
vt 0.562 0.9931
vt 0.5353 0.9513
vt 0.5355 0.9932
vt 0.5618 0.9527
vt 0.6085 0.9525
vt 0.6087 0.9929
vt 0.0546 0.8907
vt 0.1004 0.8503
vt 0.0543 0.8506
vt 0.1007 0.8904
vt 0.0092 0.8925
vt 0.0089 0.851
vt 0.1007 0.8904
vt 0.1741 0.8497
vt 0.1004 0.8503
vt 0.1744 0.8898
vt 0.8548 0.9515
vt 0.8317 0.992
vt 0.8549 0.9919
vt 0.8316 0.9516
vt 0.3103 0.8876
vt 0.2559 0.8491
vt 0.2562 0.8892
vt 0.31 0.8487
vt 0.8316 0.9516
vt 0.7495 0.9923
vt 0.8317 0.992
vt 0.7493 0.9519
vt 0.9933 0.018
vt 0.7798 0.2191
vt 0.9933 0.2191
vt 0.7798 0.018
vt 0.663 0.2191
vt 0.663 0.018
vt 0.5463 0.2191
vt 0.5463 0.018
vt 0.3328 0.2191
vt 0.3328 0.018
vt 0.3145 0.3162
vt 0.5424 0.2394
vt 0.3822 0.2594
vt 0.5381 0.4048
vt 0.3791 0.3764
vt 0.0534 0.7471
vt 0.3135 0.6518
vt 0.1296 0.8145
vt 0.1296 0.6797
vt 0.3135 0.8424
vt 0.9334 0.9918
vt 0.991 0.9498
vt 0.9333 0.9526
vt 0.991 0.9916
vt 0.31 0.8487
vt 0.3691 0.8898
vt 0.3688 0.8483
vt 0.3103 0.8876
vt 0.0071 0.8974
vt 0.351 0.9863
vt 0.351 0.8974
vt 0.0071 0.9863
vt 0.351 0.8974
vt 0.0071 0.8974
vt 0.4098 0.5376
vt 0.4516 0.5313
vt 0.4116 0.519
vt 0.44 0.5552
vt 0.3805 0.5215
vt 0.4116 0.519
vt 0.4619 0.4882
vt 0.4176 0.4784
vt 0.4516 0.5313
vt 0.4098 0.5376
vt 0.3608 0.5598
vt 0.3885 0.5748
vt 0.3805 0.5215
vt 0.3885 0.5748
vt 0.44 0.5552
vt 0.4098 0.5376
vt 0.4177 0.592
vt 0.4176 0.4784
vt 0.3805 0.5215
vt 0.4116 0.519
vt 0.3823 0.4764
vt 0.9653 0.8785
vt 0.9934 0.8527
vt 0.9932 0.8788
vt 0.9655 0.8524
vt 0.9937 0.8245
vt 0.9657 0.8243
vt 0.9606 0.614
vt 0.9183 0.5743
vt 0.961 0.5746
vt 0.918 0.6136
vt 0.2562 0.0167
vt 0.0586 0.1979
vt 0.0586 0.0179
vt 0.2562 0.1881
vt 0.2562 0.3595
vt 0.3158 0.2788
vt 0.3158 0.1596
vt 0.0586 0.3693
vt 0.2562 0.4573
vt 0.0586 0.6127
vt 0.2562 0.5934
vt 0.0586 0.6976
vt 0.3158 0.0494
vt 0.0122 0.1437
vt 0.0122 0.0343
vt 0.9588 0.8234
vt 0.9164 0.791
vt 0.9591 0.7914
vt 0.9162 0.823
vt 0.9155 0.9
vt 0.9581 0.9003
vt 0.9172 0.7018
vt 0.9599 0.7021
vt 0.9178 0.639
vt 0.9604 0.6394
vt 0.3393 0.6321
vt 0.4901 0.6283
vt 0.4156 0.7228
vt 0.3408 0.7265
vt 0.445 0.9411
vt 0.6457 0.7188
vt 0.6409 0.6244
vt 0.749 0.7066
vt 0.6951 0.5897
vt 0.6571 0.9332
vt 0.6877 0.9065
vt 0.7853 0.7922
vt 0.8552 0.6927
vt 0.7171 0.8837
vt 0.844 0.6379
vt 0.7354 0.5468
vt 0.7696 0.4878
vt 0.9103 0.5564
vt 0.9573 0.4454
vt 0.7768 0.426
vt 0.7417 0.9413
vt 0.7486 0.9281
vt 0.8477 0.288
vt 0.9867 0.3116
vt 0.6652 0.3222
vt 0.7958542 0.8330718
vt 0.8602729 0.7920362
vt 0.8600435 0.8335302
vt 0.7963127 0.7913485
vt 0.9178 0.639
vt 0.9606 0.614
vt 0.9604 0.6394
vt 0.918 0.6136
vt 0.9673 0.651
vt 0.9953 0.6361
vt 0.9952 0.6513
vt 0.9674 0.6358
vt 0.9062 0.8008
vt 0.8733 0.7568
vt 0.9062 0.7568
vt 0.8733 0.8008
vt 0.4406 0.5791
vt 0.5244 0.5603
vt 0.5068 0.5821
vt 0.5071 0.4812
vt 0.9062 0.7428
vt 0.8733 0.7568
vt 0.8733 0.7428
vt 0.9062 0.7568
vt 0.548 0.5764
vt 0.5068 0.5821
vt 0.5244 0.5603
vt 0.5185 0.6119
vt 0.5425 0.5386
vt 0.5626 0.5457
vt 0.6031 0.5654
vt 0.594 0.5397
vt 0.8733 0.7428
vt 0.9062 0.7351
vt 0.9062 0.7428
vt 0.8733 0.7351
vt 0.5071 0.4812
vt 0.5425 0.5386
vt 0.5244 0.5603
vt 0.8733 0.7351
vt 0.9062 0.7235
vt 0.9062 0.7351
vt 0.8733 0.7235
vt 0.9062 0.6937
vt 0.8733 0.6774
vt 0.9062 0.6774
vt 0.8733 0.6937
vt 0.9062 0.7137
vt 0.8733 0.6937
vt 0.9062 0.6937
vt 0.8733 0.7137
vt 0.9062 0.7235
vt 0.8733 0.7137
vt 0.9062 0.7137
vt 0.8733 0.7235
vt 0.9674 0.6358
vt 0.9955 0.6221
vt 0.9953 0.6361
vt 0.9675 0.6219
vt 0.9675 0.6219
vt 0.9956 0.606
vt 0.9955 0.6221
vt 0.9677 0.6057
vt 0.9678 0.587
vt 0.9961 0.551
vt 0.9958 0.5872
vt 0.9681 0.5508
vt 0.9062 0.8949
vt 0.8733 0.8589
vt 0.9062 0.8589
vt 0.8733 0.8949
vt 0.9062 0.6503
vt 0.8733 0.637
vt 0.9062 0.637
vt 0.8733 0.6503
vt 0.9062 0.6663
vt 0.8733 0.6663
vt 0.8733 0.637
vt 0.9062 0.6167
vt 0.9062 0.637
vt 0.8733 0.6167
vt 0.8600435 0.8335302
vt 0.7949371 0.9362332
vt 0.7958542 0.8330718
vt 0.8591266 0.9366919
vt 0.9944 0.7449
vt 0.9662 0.7768
vt 0.9664 0.7446
vt 0.9941 0.777
vt 0.9946 0.7226
vt 0.9666 0.7224
vt 0.9949 0.687
vt 0.9669 0.6867
vt 0.966 0.7999
vt 0.9939 0.8001
vt 0.9952 0.6513
vt 0.9673 0.651
vt 0.9939 0.8001
vt 0.9657 0.8243
vt 0.966 0.7999
vt 0.9937 0.8245
vt 0.9611 0.5592
vt 0.9183 0.5743
vt 0.9185 0.5588
vt 0.961 0.5746
vt 0.9062 0.6122
vt 0.8733 0.6167
vt 0.8733 0.6122
vt 0.9062 0.6167
vt 0.9062 0.6663
vt 0.8733 0.6774
vt 0.8733 0.6663
vt 0.9062 0.6774
vt 0.9062 0.8008
vt 0.8733 0.8209
vt 0.8733 0.8008
vt 0.9062 0.8209
vt 0.9062 0.8209
vt 0.8733 0.8589
vt 0.8733 0.8209
vt 0.9062 0.8589
vt 0.9062 0.8949
vt 0.8733 0.9444
vt 0.8733 0.8949
vt 0.9062 0.9444
vt 0.9958 0.5872
vt 0.9677 0.6057
vt 0.9678 0.587
vt 0.9956 0.606
vt 0.9581 0.9003
vt 0.9152 0.9303
vt 0.9155 0.9
vt 0.9579 0.9306
vt 0.6085 0.9525
vt 0.6609 0.9926
vt 0.6087 0.9929
vt 0.6607 0.9522
vt 0.3593 0.4591
vt 0.2755 0.4678
vt 0.3256 0.4062
vt 0.274 0.5387
vt 0.3383 0.5308
vt 0.4588 0.4258
vt 0.4755 0.4639
vt 0.5828 0.4112
vt 0.6007 0.4394
vt 0.618 0.4107
vt 0.6407 0.4382
vt 0.6175 0.5235
vt 0.6576 0.5201
vt 0.2805 0.5784
vt 0.3669 0.594
vt 0.6575 0.6078
vt 0.6171 0.6136
vt 0.8548 0.9515
vt 0.8783 0.9919
vt 0.8549 0.9919
vt 0.8782 0.9515
vt 0.6607 0.9522
vt 0.7495 0.9923
vt 0.6609 0.9926
vt 0.7493 0.9519
vt 0.8782 0.9515
vt 0.9334 0.9918
vt 0.8783 0.9919
vt 0.9333 0.9526
vt 0.2559 0.8491
vt 0.1744 0.8898
vt 0.1741 0.8497
vt 0.2562 0.8892
vt 0.562 0.9931
vt 0.5353 0.9513
vt 0.5618 0.9527
vt 0.5355 0.9932
vt 0.6087 0.9929
vt 0.6085 0.9525
vt 0.0543 0.8506
vt 0.1007 0.8904
vt 0.0546 0.8907
vt 0.1004 0.8503
vt 0.0089 0.851
vt 0.0092 0.8925
vt 0.1004 0.8503
vt 0.1744 0.8898
vt 0.1007 0.8904
vt 0.1741 0.8497
vt 0.8549 0.9919
vt 0.8316 0.9516
vt 0.8548 0.9515
vt 0.8317 0.992
vt 0.2562 0.8892
vt 0.31 0.8487
vt 0.3103 0.8876
vt 0.2559 0.8491
vt 0.8317 0.992
vt 0.7493 0.9519
vt 0.8316 0.9516
vt 0.7495 0.9923
vt 0.9933 0.2191
vt 0.7798 0.018
vt 0.9933 0.018
vt 0.7798 0.2191
vt 0.663 0.018
vt 0.663 0.2191
vt 0.5463 0.018
vt 0.5463 0.2191
vt 0.3328 0.018
vt 0.3328 0.2191
vt 0.5424 0.2394
vt 0.3145 0.3162
vt 0.3822 0.2594
vt 0.5381 0.4048
vt 0.3791 0.3764
vt 0.3135 0.6518
vt 0.0534 0.7471
vt 0.1296 0.8145
vt 0.1296 0.6797
vt 0.3135 0.8424
vt 0.9333 0.9526
vt 0.991 0.9916
vt 0.9334 0.9918
vt 0.991 0.9498
vt 0.3688 0.8483
vt 0.3103 0.8876
vt 0.31 0.8487
vt 0.3691 0.8898
vt 0.6686 0.4629
vt 0.6883 0.3612
vt 0.7211 0.4422
vt 0.6366 0.3816
vt 0.6929 0.5246
vt 0.7211 0.4422
vt 0.7446 0.5043
vt 0.6686 0.4629
vt 0.4516 0.5313
vt 0.4098 0.5376
vt 0.4116 0.519
vt 0.44 0.5552
vt 0.3805 0.5215
vt 0.4176 0.4784
vt 0.4516 0.5313
vt 0.4116 0.519
vt 0.4619 0.4882
vt 0.3885 0.5748
vt 0.3805 0.5215
vt 0.4098 0.5376
vt 0.3608 0.5598
vt 0.4098 0.5376
vt 0.4177 0.592
vt 0.3885 0.5748
vt 0.44 0.5552
vt 0.4116 0.519
vt 0.3823 0.4764
vt 0.4176 0.4784
vt 0.3805 0.5215
vt 0.0586 0.1979
vt 0.2562 0.0167
vt 0.0586 0.0179
vt 0.2562 0.1881
vt 0.0586 0.3693
vt 0.2562 0.3595
vt 0.2562 0.4573
vt 0.0586 0.6127
vt 0.2562 0.5934
vt 0.0586 0.6976
vt 0.3158 0.2788
vt 0.3158 0.1596
vt 0.3158 0.0494
vt 0.0122 0.1437
vt 0.0122 0.0343
vt 0.4156 0.7228
vt 0.4901 0.6283
vt 0.3393 0.6321
vt 0.3408 0.7265
vt 0.445 0.9411
vt 0.6457 0.7188
vt 0.6409 0.6244
vt 0.749 0.7066
vt 0.6951 0.5897
vt 0.6571 0.9332
vt 0.6877 0.9065
vt 0.8552 0.6927
vt 0.7417 0.9413
vt 0.7486 0.9281
vt 0.844 0.6379
vt 0.7354 0.5468
vt 0.8552 0.6927
vt 0.7696 0.4878
vt 0.9103 0.5564
vt 0.9573 0.4454
vt 0.7768 0.426
vt 0.8477 0.288
vt 0.9867 0.3116
vt 0.6652 0.3222
vt 0.7853 0.7922
vt 0.749 0.7066
vt 0.6457 0.7188
vt 0.7171 0.8837
vt 0.5244 0.5603
vt 0.4406 0.5791
vt 0.5068 0.5821
vt 0.5071 0.4812
vt 0.5068 0.5821
vt 0.548 0.5764
vt 0.5244 0.5603
vt 0.5185 0.6119
vt 0.5425 0.5386
vt 0.548 0.5764
vt 0.5626 0.5457
vt 0.5244 0.5603
vt 0.5244 0.5603
vt 0.5425 0.5386
vt 0.5071 0.4812
vt 0.5626 0.5457
vt 0.6031 0.5654
vt 0.594 0.5397
vt 0.548 0.5764
vt 0.6087 0.9929
vt 0.6607 0.9522
vt 0.6085 0.9525
vt 0.6609 0.9926
vt 0.2755 0.4678
vt 0.3593 0.4591
vt 0.3256 0.4062
vt 0.274 0.5387
vt 0.3383 0.5308
vt 0.4588 0.4258
vt 0.4755 0.4639
vt 0.5828 0.4112
vt 0.6007 0.4394
vt 0.618 0.4107
vt 0.6407 0.4382
vt 0.6175 0.5235
vt 0.6576 0.5201
vt 0.2805 0.5784
vt 0.3669 0.594
vt 0.6575 0.6078
vt 0.6171 0.6136
vt 0.8549 0.9919
vt 0.8782 0.9515
vt 0.8548 0.9515
vt 0.8783 0.9919
vt 0.6609 0.9926
vt 0.7493 0.9519
vt 0.6607 0.9522
vt 0.7495 0.9923
vt 0.8783 0.9919
vt 0.9333 0.9526
vt 0.8782 0.9515
vt 0.9334 0.9918
vt 0.1741 0.8497
vt 0.2562 0.8892
vt 0.2559 0.8491
vt 0.1744 0.8898
vt 0.562 0.9931
vt 0.5353 0.9513
vt 0.5355 0.9932
vt 0.5618 0.9527
vt 0.6085 0.9525
vt 0.6087 0.9929
vt 0.0546 0.8907
vt 0.1004 0.8503
vt 0.0543 0.8506
vt 0.1007 0.8904
vt 0.0092 0.8925
vt 0.0089 0.851
vt 0.1007 0.8904
vt 0.1741 0.8497
vt 0.1004 0.8503
vt 0.1744 0.8898
vt 0.8548 0.9515
vt 0.8317 0.992
vt 0.8549 0.9919
vt 0.8316 0.9516
vt 0.3103 0.8876
vt 0.2559 0.8491
vt 0.2562 0.8892
vt 0.31 0.8487
vt 0.8316 0.9516
vt 0.7495 0.9923
vt 0.8317 0.992
vt 0.7493 0.9519
vt 0.9933 0.018
vt 0.7798 0.2191
vt 0.9933 0.2191
vt 0.7798 0.018
vt 0.663 0.2191
vt 0.663 0.018
vt 0.5463 0.2191
vt 0.5463 0.018
vt 0.3328 0.2191
vt 0.3328 0.018
vt 0.3145 0.3162
vt 0.5424 0.2394
vt 0.3822 0.2594
vt 0.5381 0.4048
vt 0.3791 0.3764
vt 0.0534 0.7471
vt 0.3135 0.6518
vt 0.1296 0.8145
vt 0.1296 0.6797
vt 0.3135 0.8424
vt 0.9334 0.9918
vt 0.991 0.9498
vt 0.9333 0.9526
vt 0.991 0.9916
vt 0.31 0.8487
vt 0.3691 0.8898
vt 0.3688 0.8483
vt 0.3103 0.8876
vt 0.0071 0.8974
vt 0.351 0.9863
vt 0.351 0.8974
vt 0.0071 0.9863
vt 0.351 0.8974
vt 0.0071 0.8974
vt 0.4098 0.5376
vt 0.4516 0.5313
vt 0.4116 0.519
vt 0.44 0.5552
vt 0.3805 0.5215
vt 0.4116 0.519
vt 0.4619 0.4882
vt 0.4176 0.4784
vt 0.4516 0.5313
vt 0.4098 0.5376
vt 0.3608 0.5598
vt 0.3885 0.5748
vt 0.3805 0.5215
vt 0.3885 0.5748
vt 0.44 0.5552
vt 0.4098 0.5376
vt 0.4177 0.592
vt 0.4176 0.4784
vt 0.3805 0.5215
vt 0.4116 0.519
vt 0.3823 0.4764
vt 0.9653 0.8785
vt 0.9934 0.8527
vt 0.9932 0.8788
vt 0.9655 0.8524
vt 0.9937 0.8245
vt 0.9657 0.8243
vt 0.9606 0.614
vt 0.9183 0.5743
vt 0.961 0.5746
vt 0.918 0.6136
vt 0.2562 0.0167
vt 0.0586 0.1979
vt 0.0586 0.0179
vt 0.2562 0.1881
vt 0.2562 0.3595
vt 0.3158 0.2788
vt 0.3158 0.1596
vt 0.0586 0.3693
vt 0.2562 0.4573
vt 0.0586 0.6127
vt 0.2562 0.5934
vt 0.0586 0.6976
vt 0.3158 0.0494
vt 0.0122 0.1437
vt 0.0122 0.0343
vt 0.9588 0.8234
vt 0.9164 0.791
vt 0.9591 0.7914
vt 0.9162 0.823
vt 0.9155 0.9
vt 0.9581 0.9003
vt 0.9172 0.7018
vt 0.9599 0.7021
vt 0.9178 0.639
vt 0.9604 0.6394
vt 0.3393 0.6321
vt 0.4901 0.6283
vt 0.4156 0.7228
vt 0.3408 0.7265
vt 0.445 0.9411
vt 0.6457 0.7188
vt 0.6409 0.6244
vt 0.749 0.7066
vt 0.6951 0.5897
vt 0.6571 0.9332
vt 0.6877 0.9065
vt 0.7853 0.7922
vt 0.8552 0.6927
vt 0.7171 0.8837
vt 0.844 0.6379
vt 0.7354 0.5468
vt 0.7696 0.4878
vt 0.9103 0.5564
vt 0.9573 0.4454
vt 0.7768 0.426
vt 0.7417 0.9413
vt 0.7486 0.9281
vt 0.8477 0.288
vt 0.9867 0.3116
vt 0.6652 0.3222
vt 0.7958542 0.8330718
vt 0.8602729 0.7920362
vt 0.8600435 0.8335302
vt 0.7963127 0.7913485
vt 0.9178 0.639
vt 0.9606 0.614
vt 0.9604 0.6394
vt 0.918 0.6136
vt 0.9673 0.651
vt 0.9953 0.6361
vt 0.9952 0.6513
vt 0.9674 0.6358
vt 0.9062 0.8008
vt 0.8733 0.7568
vt 0.9062 0.7568
vt 0.8733 0.8008
vt 0.4406 0.5791
vt 0.5244 0.5603
vt 0.5068 0.5821
vt 0.5071 0.4812
vt 0.9062 0.7428
vt 0.8733 0.7568
vt 0.8733 0.7428
vt 0.9062 0.7568
vt 0.548 0.5764
vt 0.5068 0.5821
vt 0.5244 0.5603
vt 0.5185 0.6119
vt 0.5425 0.5386
vt 0.5626 0.5457
vt 0.6031 0.5654
vt 0.594 0.5397
vt 0.8733 0.7428
vt 0.9062 0.7351
vt 0.9062 0.7428
vt 0.8733 0.7351
vt 0.5071 0.4812
vt 0.5425 0.5386
vt 0.5244 0.5603
vt 0.8733 0.7351
vt 0.9062 0.7235
vt 0.9062 0.7351
vt 0.8733 0.7235
vt 0.9062 0.6937
vt 0.8733 0.6774
vt 0.9062 0.6774
vt 0.8733 0.6937
vt 0.9062 0.7137
vt 0.8733 0.6937
vt 0.9062 0.6937
vt 0.8733 0.7137
vt 0.9062 0.7235
vt 0.8733 0.7137
vt 0.9062 0.7137
vt 0.8733 0.7235
vt 0.9674 0.6358
vt 0.9955 0.6221
vt 0.9953 0.6361
vt 0.9675 0.6219
vt 0.9675 0.6219
vt 0.9956 0.606
vt 0.9955 0.6221
vt 0.9677 0.6057
vt 0.9678 0.587
vt 0.9961 0.551
vt 0.9958 0.5872
vt 0.9681 0.5508
vt 0.9062 0.8949
vt 0.8733 0.8589
vt 0.9062 0.8589
vt 0.8733 0.8949
vt 0.9062 0.6503
vt 0.8733 0.637
vt 0.9062 0.637
vt 0.8733 0.6503
vt 0.9062 0.6663
vt 0.8733 0.6663
vt 0.8733 0.637
vt 0.9062 0.6167
vt 0.9062 0.637
vt 0.8733 0.6167
vt 0.8600435 0.8335302
vt 0.7949371 0.9362332
vt 0.7958542 0.8330718
vt 0.8591266 0.9366919
vt 0.9944 0.7449
vt 0.9662 0.7768
vt 0.9664 0.7446
vt 0.9941 0.777
vt 0.9946 0.7226
vt 0.9666 0.7224
vt 0.9949 0.687
vt 0.9669 0.6867
vt 0.966 0.7999
vt 0.9939 0.8001
vt 0.9952 0.6513
vt 0.9673 0.651
vt 0.9939 0.8001
vt 0.9657 0.8243
vt 0.966 0.7999
vt 0.9937 0.8245
vt 0.9611 0.5592
vt 0.9183 0.5743
vt 0.9185 0.5588
vt 0.961 0.5746
vt 0.9062 0.6122
vt 0.8733 0.6167
vt 0.8733 0.6122
vt 0.9062 0.6167
vt 0.9062 0.6663
vt 0.8733 0.6774
vt 0.8733 0.6663
vt 0.9062 0.6774
vt 0.9062 0.8008
vt 0.8733 0.8209
vt 0.8733 0.8008
vt 0.9062 0.8209
vt 0.9062 0.8209
vt 0.8733 0.8589
vt 0.8733 0.8209
vt 0.9062 0.8589
vt 0.9062 0.8949
vt 0.8733 0.9444
vt 0.8733 0.8949
vt 0.9062 0.9444
vt 0.9958 0.5872
vt 0.9677 0.6057
vt 0.9678 0.587
vt 0.9956 0.606
vt 0.9581 0.9003
vt 0.9152 0.9303
vt 0.9155 0.9
vt 0.9579 0.9306
vt 0.6085 0.9525
vt 0.6609 0.9926
vt 0.6087 0.9929
vt 0.6607 0.9522
vt 0.3593 0.4591
vt 0.2755 0.4678
vt 0.3256 0.4062
vt 0.274 0.5387
vt 0.3383 0.5308
vt 0.4588 0.4258
vt 0.4755 0.4639
vt 0.5828 0.4112
vt 0.6007 0.4394
vt 0.618 0.4107
vt 0.6407 0.4382
vt 0.6175 0.5235
vt 0.6576 0.5201
vt 0.2805 0.5784
vt 0.3669 0.594
vt 0.6575 0.6078
vt 0.6171 0.6136
vt 0.8548 0.9515
vt 0.8783 0.9919
vt 0.8549 0.9919
vt 0.8782 0.9515
vt 0.6607 0.9522
vt 0.7495 0.9923
vt 0.6609 0.9926
vt 0.7493 0.9519
vt 0.8782 0.9515
vt 0.9334 0.9918
vt 0.8783 0.9919
vt 0.9333 0.9526
vt 0.2559 0.8491
vt 0.1744 0.8898
vt 0.1741 0.8497
vt 0.2562 0.8892
vt 0.562 0.9931
vt 0.5353 0.9513
vt 0.5618 0.9527
vt 0.5355 0.9932
vt 0.6087 0.9929
vt 0.6085 0.9525
vt 0.0543 0.8506
vt 0.1007 0.8904
vt 0.0546 0.8907
vt 0.1004 0.8503
vt 0.0089 0.851
vt 0.0092 0.8925
vt 0.1004 0.8503
vt 0.1744 0.8898
vt 0.1007 0.8904
vt 0.1741 0.8497
vt 0.8549 0.9919
vt 0.8316 0.9516
vt 0.8548 0.9515
vt 0.8317 0.992
vt 0.2562 0.8892
vt 0.31 0.8487
vt 0.3103 0.8876
vt 0.2559 0.8491
vt 0.8317 0.992
vt 0.7493 0.9519
vt 0.8316 0.9516
vt 0.7495 0.9923
vt 0.9933 0.2191
vt 0.7798 0.018
vt 0.9933 0.018
vt 0.7798 0.2191
vt 0.663 0.018
vt 0.663 0.2191
vt 0.5463 0.018
vt 0.5463 0.2191
vt 0.3328 0.018
vt 0.3328 0.2191
vt 0.5424 0.2394
vt 0.3145 0.3162
vt 0.3822 0.2594
vt 0.5381 0.4048
vt 0.3791 0.3764
vt 0.3135 0.6518
vt 0.0534 0.7471
vt 0.1296 0.8145
vt 0.1296 0.6797
vt 0.3135 0.8424
vt 0.9333 0.9526
vt 0.991 0.9916
vt 0.9334 0.9918
vt 0.991 0.9498
vt 0.3688 0.8483
vt 0.3103 0.8876
vt 0.31 0.8487
vt 0.3691 0.8898
vt 0.6686 0.4629
vt 0.6883 0.3612
vt 0.7211 0.4422
vt 0.6366 0.3816
vt 0.6929 0.5246
vt 0.7211 0.4422
vt 0.7446 0.5043
vt 0.6686 0.4629
vt 0.4516 0.5313
vt 0.4098 0.5376
vt 0.4116 0.519
vt 0.44 0.5552
vt 0.3805 0.5215
vt 0.4176 0.4784
vt 0.4516 0.5313
vt 0.4116 0.519
vt 0.4619 0.4882
vt 0.3885 0.5748
vt 0.3805 0.5215
vt 0.4098 0.5376
vt 0.3608 0.5598
vt 0.4098 0.5376
vt 0.4177 0.592
vt 0.3885 0.5748
vt 0.44 0.5552
vt 0.4116 0.519
vt 0.3823 0.4764
vt 0.4176 0.4784
vt 0.3805 0.5215
vn 0.005054472 0.9999747 -0.005006787
vn 0.02059931 0.9997877 -0.0004768359
vn 0.02059931 0.9997877 -0.0004768359
vn 0.005054471 0.9999746 -0.005030629
vn -0.005579012 0.9998828 -0.01425747
vn -0.005626666 0.9998835 -0.01418587
vn -0.001096727 0.9998277 -0.01852515
vn -0.001674893 0.9998336 -0.01816752
vn 0.02744194 0.9995983 -0.007081022
vn -9.53675E-05 0.9999998 -0.0006675725
vn -0.01230237 0.9992872 -0.03569117
vn -0.01230237 0.9992872 -0.03569117
vn 0.0128746 0.9995281 -0.02788901
vn 0.02508162 0.999605 -0.01268386
vn 0.02498631 0.9996074 -0.01268389
vn 0.01758924 0.9997793 -0.01149172
vn -0.0009775173 0.9992312 -0.03919233
vn 0.02042054 0.9995275 -0.0229746
vn 0.02744194 0.9995983 -0.007081022
vn -9.53675E-05 0.9999998 -0.0006675725
vn -0.00472068 0.9998782 -0.0148773
vn -0.001192093 0.9992544 -0.03858955
vn 0.00782014 0.9994521 -0.03216271
vn 0.007820136 0.9994517 -0.03217462
vn -0.01263618 0.9997903 0.01611709
vn -0.01263617 0.9997895 0.01616476
vn -0.03051766 0.9986248 -0.04262936
vn 0 1 0
vn 0 1 0
vn 0 1 0
vn 0 1 0
vn -0.03623961 0.9989437 0.02825259
vn 0 1 0
vn 0 1 0
vn 0 1 -2.384188E-05
vn 0 1 0
vn 0 1 0
vn 0 1 0
vn 0 1 0
vn -0.03623959 0.998943 0.02827641
vn -0.03623983 0.9989437 0.02825276
vn -0.002717964 0.9991736 0.04055488
vn -0.01840594 0.9997323 0.01401903
vn -0.5072574 0.7681817 0.3906235
vn -0.5072574 0.7681817 0.3906235
vn -0.5072574 0.7681817 0.3906235
vn -0.5072574 0.7681817 0.3906235
vn -0.009822834 0.9942102 -0.1070021
vn -0.009822834 0.9942102 -0.1070021
vn -0.009822834 0.9942102 -0.1070021
vn -0.009822834 0.9942102 -0.1070021
vn 0.1346589 0.9908324 -0.01087189
vn 0.1346589 0.9908324 -0.01087189
vn 0.1346589 0.9908324 -0.01087189
vn 0.1346589 0.9908324 -0.01087189
vn 0.05598083 0.9705927 0.2341277
vn 0.05598083 0.9705927 0.2341277
vn 0.05598083 0.9705927 0.2341277
vn 0 1 0
vn 0 1 0
vn 0 1 0
vn 0 1 0
vn 0.8514274 0 -0.5244725
vn 0.8514241 0 -0.5244778
vn 0.8514274 0 -0.5244725
vn 0.8514241 0 -0.5244778
vn 0 1 0
vn 0 1 0
vn 0 1 0
vn 0 1 0
vn 0 1 0
vn 0 1 0
vn 0 1 0
vn 0 1 0
vn 0 1 0
vn 0 1 0
vn 0 1 0
vn 0 1 0
vn 0 1 0
vn 0 1 -3.725294E-06
vn 0 1 -4.470353E-06
vn 0 1 -2.980235E-06
vn 0 1 -2.235176E-06
vn -0.682641 0 -0.730754
vn -0.682641 0 -0.730754
vn -0.682641 0 -0.730754
vn -0.682641 0 -0.730754
vn -0.01466258 0 -0.9998925
vn -0.01463874 0 -0.9998928
vn -0.01466258 0 -0.9998925
vn -0.01463874 0 -0.9998928
vn -0.9447551 0 -0.327777
vn -0.94475 0 -0.3277918
vn -0.9447551 0 -0.327777
vn -0.94475 0 -0.3277918
vn -0.3184799 0 0.9479296
vn -0.3184799 0 0.9479296
vn -0.3184799 0 0.9479296
vn -0.3184799 0 0.9479296
vn 0.9796454 0 0.2007356
vn 0.9572988 0 0.2891006
vn 0.9572988 0 0.2891006
vn 0.9796454 0 0.2007356
vn 0.9938542 0 0.1106971
vn 0.9938542 0 0.1106971
vn -0.9797586 0 -0.2001825
vn -0.9881496 0 0.1534939
vn -0.9797586 0 -0.2001825
vn -0.9881496 0 0.1534939
vn -0.8487435 0 -0.5288047
vn -0.8487435 0 -0.5288047
vn -0.09050351 0 0.9958961
vn -0.09050351 0 0.9958961
vn -0.09050351 0 0.9958961
vn -0.09050351 0 0.9958961
vn 0.143337 0 -0.989674
vn 0.143337 0 -0.989674
vn 0.143337 0 -0.989674
vn 0.143337 0 -0.989674
vn 0.9467685 0 0.3219156
vn 0.9467685 0 0.3219156
vn 0.9467685 0 0.3219156
vn 0.9467685 0 0.3219156
vn 0.2460458 0 -0.9692582
vn 0.2460458 0 -0.9692582
vn 0.2460458 0 -0.9692582
vn 0.2460458 0 -0.9692582
vn 0 1.542486E-05 -1
vn 0 0.7358638 -0.6771297
vn 0 1.542486E-05 -1
vn 0 0.7358638 -0.6771297
vn 0 1 0
vn 0 1 0
vn 0 0.7358866 0.6771048
vn 0 0.7358866 0.6771048
vn 0 1.54245E-05 1
vn 0 1.54245E-05 1
vn -1 0 0
vn -1 0 0
vn -1 0 0
vn -1 0 0
vn -1 0 0
vn 1 0 0
vn 1 0 0
vn 1 0 0
vn 1 0 0
vn 1 0 0
vn -0.9916677 0 -0.1288224
vn -0.991667 0 -0.1288282
vn -0.9916677 0 -0.1288224
vn -0.991667 0 -0.1288282
vn 0.9921564 0 0.125003
vn 0.9921567 0 0.1250001
vn 0.9921567 0 0.1250001
vn 0.9921564 0 0.125003
vn 0 0.8271694 -0.5619526
vn 0 -5.463231E-05 -1
vn 0 0.8271694 -0.5619526
vn 0 -5.463231E-05 -1
vn 0 -0.8272344 -0.5618569
vn 0 -0.8272344 -0.5618569
vn 0 1 0
vn 0 1 -2.235176E-06
vn 0 1 0
vn 0 1 -2.980235E-06
vn 0 1 0
vn -0.9464586 0 -0.3228254
vn -0.946458 0 -0.322827
vn -0.9464586 0 -0.3228254
vn -0.9464613 0 -0.3228174
vn 0.8389053 0 0.5442775
vn 0.8389053 0 0.5442775
vn 0.8389053 0 0.5442775
vn 0.8389053 0 0.5442775
vn 0.9900537 0 0.1406903
vn 0.990054 0 0.1406874
vn 0.9900537 0 0.1406903
vn 0.990054 0 0.1406874
vn -0.3417507 0 -0.9397907
vn -0.3417507 0 -0.9397907
vn -0.3417507 0 -0.9397907
vn -0.3417507 0 -0.9397907
vn 0.003910062 0 -0.9999924
vn 0.006580335 0 -0.9999784
vn 0.003910062 0 -0.9999924
vn 0.006580335 0 -0.9999784
vn 0.009345999 0 -0.9999564
vn 0.009345999 0 -0.9999564
vn 0.005245017 0 0.9999863
vn 0.005340378 0 0.9999858
vn 0.005340378 0 0.9999858
vn 0.005245017 0 0.9999863
vn 0 -1 0
vn 0 -1 0
vn 0 -1 0
vn 0 -1 0
vn 0 -1 0
vn 0 -1 0
vn 0 -1 0
vn 0 -1 0
vn 0 -1 0
vn 0 -1 0
vn 0 -1 0
vn 0 -1 0
vn 0 -1 0
vn 0 -1 0
vn 0 -1 0
vn 0.158024 0 0.9874352
vn 0.1766479 0 0.9842741
vn 0.1766479 0 0.9842741
vn 0.1588059 0 0.9873099
vn 0.01363726 0 0.999907
vn 0.01363726 0 0.999907
vn 0.02570103 0 0.9996697
vn 0.02570103 0 0.9996697
vn 0 0 1
vn 0 0 1
vn 0 -1 0
vn 0 -1 0
vn 0 -1 0
vn 0 -1 0
vn 0 -1 0
vn 0 -1 0
vn 0 -1 0
vn 0 -1 0
vn 0 -1 0
vn 0 -1 0
vn 0 -1 0
vn 0 -1 0
vn 0 -1 0
vn 0 -1 0
vn 0 -1 0
vn 0 -1 0
vn 0 -1 0
vn 0 -1 0
vn 0 -1 0
vn 0 -1 0
vn 0 -1 0
vn 0 -1 0
vn 0 -1 0
vn 0 -1 0
vn 0 -1 0
vn 0.8808582 0 -0.4733802
vn 0.8808944 0 -0.4733127
vn 0.8808582 0 -0.4733802
vn 0.8808944 0 -0.4733127
vn -0.5956653 0 0.8032327
vn -0.5956425 0 0.8032496
vn -0.5956653 0 0.8032327
vn -0.5956425 0 0.8032496
vn 0.4969611 0 -0.8677728
vn 0.4969604 0 -0.8677733
vn 0.4969611 0 -0.8677728
vn 0.4969604 0 -0.8677733
vn -0.7887034 0 0.6147739
vn -0.7886919 0 0.6147886
vn -0.7886919 0 0.6147886
vn -0.7887034 0 0.6147739
vn -0.5954784 -0.626783 0.5025422
vn -0.5954784 -0.626783 0.5025422
vn -0.5954784 -0.626783 0.5025422
vn -0.5954784 -0.626783 0.5025422
vn -0.9976659 0 -0.06828495
vn -0.9976659 0 -0.06828495
vn -0.9976659 0 -0.06828495
vn -0.9976659 0 -0.06828495
vn 0 -1 0
vn 0 -1 0
vn 0 -1 0
vn 0 -1 0
vn 0 -1 0
vn 0 -1 0
vn 0 -1 0
vn 0 -1 0
vn -0.538442 0 -0.8426626
vn -0.538442 0 -0.8426626
vn -0.538442 0 -0.8426626
vn -0.538442 0 -0.8426626
vn -0.3007905 -0.8693982 0.39201
vn -0.300789 -0.8693997 0.392008
vn -0.300789 -0.8693997 0.392008
vn -0.04043649 0 -0.999182
vn -0.04043649 0 -0.999182
vn -0.04043649 0 -0.999182
vn -0.04043649 0 -0.999182
vn -0.6020504 0 0.7984582
vn -0.6020504 0 0.7984582
vn -0.6020504 0 0.7984582
vn -0.6020504 0 0.7984582
vn 0.03137618 0 0.9995077
vn 0.03137618 0 0.9995077
vn 0.03137618 0 0.9995077
vn 0.03137618 0 0.9995077
vn -0.9941398 0 -0.1081022
vn -0.9941398 0 -0.1081022
vn -0.9941398 0 -0.1081022
vn -0.9941398 0 -0.1081022
vn 0.6941816 0 -0.7197999
vn 0.6941816 0 -0.7197999
vn 0.6941816 0 -0.7197999
vn 0.6941816 0 -0.7197999
vn 0.839716 0 -0.5430259
vn 0.839716 0 -0.5430259
vn 0.839716 0 -0.5430259
vn 0.839716 0 -0.5430259
vn 0.8498309 0 0.5270554
vn 0.8498523 0 0.527021
vn 0.8498309 0 0.5270554
vn 0.8498523 0 0.527021
vn -0.8585765 0 0.5126855
vn -0.8585713 0 0.5126943
vn -0.8585713 0 0.5126943
vn -0.8585765 0 0.5126855
vn -0.6166373 0 0.7872474
vn -0.6166078 0 0.7872705
vn -0.6166078 0 0.7872705
vn -0.6166373 0 0.7872474
vn -0.5928119 0 0.805341
vn -0.5928119 0 0.805341
vn -0.3835757 0 -0.9235095
vn -0.3835588 0 -0.9235165
vn -0.3835757 0 -0.9235095
vn -0.3835588 0 -0.9235165
vn 0.9989613 0 -0.04556557
vn 0.9989624 0 -0.04554177
vn 0.9989613 0 -0.04556557
vn 0.9989624 0 -0.04554177
vn 0.698351 0 -0.7157555
vn 0.005006732 0 -0.9999875
vn 0.698351 0 -0.7157555
vn 0.005006732 0 -0.9999875
vn 0.6856811 0 -0.7279021
vn 0.6856811 0 -0.7279021
vn -0.02510548 0 -0.9996848
vn -0.02510548 0 -0.9996848
vn 0 0 -1
vn 0 0 -1
vn -0.02512932 0 -0.9996842
vn -0.02512932 0 -0.9996842
vn -0.6668611 0 -0.7451821
vn -0.6668994 0 -0.7451478
vn -0.6668611 0 -0.7451821
vn -0.6668994 0 -0.7451478
vn 0.9449623 0 0.3271794
vn 0.944977 0 0.3271368
vn 0.9449623 0 0.3271794
vn 0.944977 0 0.3271368
vn -0.8613477 0 0.5080159
vn -0.8613477 0 0.5080159
vn -0.8613477 0 0.5080159
vn -0.8613477 0 0.5080159
vn 0.9891562 0 0.1468666
vn 0.9891562 0 0.1468666
vn 0.9891562 0 0.1468666
vn 0.9891562 0 0.1468666
vn -0.988477 0 -0.151371
vn -0.9884779 0 -0.1513651
vn -0.988477 0 -0.151371
vn -0.9884779 0 -0.1513651
vn -0.7442554 0 0.6678951
vn -0.7442584 0 0.6678917
vn -0.7442554 0 0.6678951
vn -0.7442584 0 0.6678917
vn -0.8854117 0 0.4648077
vn -0.8854018 0 0.4648264
vn -0.8854117 0 0.4648077
vn -0.8854018 0 0.4648264
vn 0.9691585 0 -0.2464382
vn 0.9691641 0 -0.2464158
vn 0.9691585 0 -0.2464382
vn 0.9691641 0 -0.2464158
vn 0.1472537 0 0.9890988
vn 0.1472537 0 0.9890988
vn 0.1472537 0 0.9890988
vn 0.1472537 0 0.9890988
vn 0.8514274 0 -0.5244725
vn 0.8514241 0 -0.5244778
vn 0.8514274 0 -0.5244725
vn 0.8514241 0 -0.5244778
vn 0 -1 0
vn 0 -1 0
vn 0 -1 0
vn 0 -1 0
vn 0 -1 0
vn 0 -1 0
vn 0 -1 0
vn 0 -1 0
vn 0 -1 0
vn 0 -1 0
vn 0 -1 0
vn 0 -1 0
vn 0 -1 0
vn 0 -1 3.725294E-06
vn 0 -1 4.470353E-06
vn 0 -1 2.980235E-06
vn 0 -1 2.235176E-06
vn -0.682641 0 -0.730754
vn -0.682641 0 -0.730754
vn -0.682641 0 -0.730754
vn -0.682641 0 -0.730754
vn -0.01466258 0 -0.9998925
vn -0.01463874 0 -0.9998928
vn -0.01466258 0 -0.9998925
vn -0.01463874 0 -0.9998928
vn -0.9447551 0 -0.327777
vn -0.94475 0 -0.3277918
vn -0.9447551 0 -0.327777
vn -0.94475 0 -0.3277918
vn -0.3184799 0 0.9479296
vn -0.3184799 0 0.9479296
vn -0.3184799 0 0.9479296
vn -0.3184799 0 0.9479296
vn 0.9796454 0 0.2007356
vn 0.9572988 0 0.2891006
vn 0.9796454 0 0.2007356
vn 0.9572988 0 0.2891006
vn 0.9938542 0 0.1106971
vn 0.9938542 0 0.1106971
vn -0.9797586 0 -0.2001825
vn -0.9881496 0 0.1534939
vn -0.9797586 0 -0.2001825
vn -0.9881496 0 0.1534939
vn -0.8487435 0 -0.5288047
vn -0.8487435 0 -0.5288047
vn -0.09050351 0 0.9958961
vn -0.09050351 0 0.9958961
vn -0.09050351 0 0.9958961
vn -0.09050351 0 0.9958961
vn 0.143337 0 -0.989674
vn 0.143337 0 -0.989674
vn 0.143337 0 -0.989674
vn 0.143337 0 -0.989674
vn 0.9467685 0 0.3219156
vn 0.9467685 0 0.3219156
vn 0.9467685 0 0.3219156
vn 0.9467685 0 0.3219156
vn 0.2460458 0 -0.9692582
vn 0.2460458 0 -0.9692582
vn 0.2460458 0 -0.9692582
vn 0.2460458 0 -0.9692582
vn 0 1.542486E-05 -1
vn 0 -0.7358811 -0.6771108
vn 0 1.542486E-05 -1
vn 0 -0.7358811 -0.6771108
vn 0 -1 0
vn 0 -1 0
vn 0 -0.7358866 0.6771048
vn 0 -0.7358866 0.6771048
vn 0 1.54245E-05 1
vn 0 1.54245E-05 1
vn -1 0 0
vn -1 0 0
vn -1 0 0
vn -1 0 0
vn -1 0 0
vn 1 0 0
vn 1 0 0
vn 1 0 0
vn 1 0 0
vn 1 0 0
vn -0.9916677 0 -0.1288224
vn -0.991667 0 -0.1288282
vn -0.9916677 0 -0.1288224
vn -0.991667 0 -0.1288282
vn 0.9921567 0 0.1250001
vn 0.9921564 0 0.125003
vn 0.9921564 0 0.125003
vn 0.9921567 0 0.1250001
vn -0.08153795 0 -0.9966703
vn -0.08153795 0 -0.9966703
vn -0.08153795 0 -0.9966703
vn -0.08153795 0 -0.9966703
vn -0.4213368 0 -0.9069042
vn -0.4214335 0 -0.9068593
vn -0.4213368 0 -0.9069042
vn -0.4214335 0 -0.9068593
vn -0.0003337862 -0.9999998 0.0006012623
vn -0.0003337862 -0.9999998 0.0006020073
vn -0.0003337862 -0.9999998 0.0005960469
vn -0.0003303816 -0.9999998 0.00060102
vn 0 -1 0
vn -0.9464586 0 -0.3228254
vn -0.9464613 0 -0.3228174
vn -0.9464586 0 -0.3228254
vn -0.9464613 0 -0.3228174
vn 0.8389053 0 0.5442775
vn 0.8389053 0 0.5442775
vn 0.8389053 0 0.5442775
vn 0.8389053 0 0.5442775
vn 0.9900537 0 0.1406903
vn 0.990054 0 0.1406874
vn 0.9900537 0 0.1406903
vn 0.990054 0 0.1406878
vn -0.3417507 0 -0.9397907
vn -0.3417507 0 -0.9397907
vn -0.3417507 0 -0.9397907
vn -0.3417507 0 -0.9397907
vn 0.005030631 0.9999751 -0.004959106
vn 0.0206471 0.9997867 -0.0004768382
vn 0.0206471 0.9997868 -0.0003814706
vn 0.005030629 0.9999746 -0.005054471
vn -0.005579007 0.9998821 -0.01430515
vn -0.005626664 0.9998832 -0.01420971
vn -0.001096728 0.9998282 -0.01850132
vn -0.001716617 0.9998343 -0.01811985
vn 0.02746577 0.9995978 -0.007057177
vn -9.53675E-05 0.9999998 -0.00076294
vn -0.01232622 0.9992878 -0.03566735
vn -0.01233813 0.9992875 -0.03566734
vn 0.01292229 0.9995286 -0.0278473
vn 0.02503394 0.999605 -0.01277923
vn 0.02503394 0.999605 -0.01277923
vn 0.01754754 0.9997806 -0.01144405
vn -0.0009536751 0.9992311 -0.03919605
vn 0.02040862 0.9995275 -0.02298354
vn 0.02746577 0.9995978 -0.007057177
vn -9.53675E-05 0.9999998 -0.00076294
vn -0.004768362 0.9998779 -0.01487729
vn -0.001144408 0.9992531 -0.03862377
vn 0.007820145 0.9994528 -0.03213889
vn 0.007820145 0.9994528 -0.03213889
vn -0.01258849 0.9997893 0.01621245
vn -0.01258849 0.9997893 0.01621245
vn -0.03051766 0.9986248 -0.04262936
vn 0 1 0
vn 0 1 0
vn 0 1 0
vn 0 1 0
vn -0.03623964 0.9989443 0.02822877
vn 0 1 0
vn 0 1 0
vn 0 1 0
vn 0 1 0
vn 0 1 -1.192094E-05
vn 0 1 -2.384188E-05
vn 0 1 -2.384188E-05
vn -0.03623964 0.9989443 0.02822877
vn -0.03623942 0.9989443 0.0282286
vn -0.002670283 0.9991747 0.04053108
vn -0.01850125 0.9997292 0.01411436
vn -0.5073468 0.768125 0.3906189
vn -0.5073468 0.768125 0.3906189
vn -0.5073468 0.768125 0.3906189
vn -0.5073468 0.768125 0.3906189
vn -0.009727475 0.9942111 -0.1070022
vn -0.009727475 0.9942111 -0.1070022
vn -0.009727475 0.9942111 -0.1070022
vn -0.009727475 0.9942111 -0.1070022
vn 0.1346589 0.9908324 -0.01087189
vn 0.1346589 0.9908324 -0.01087189
vn 0.1346589 0.9908324 -0.01087189
vn 0.1346589 0.9908324 -0.01087189
vn 0.05607595 0.9705645 0.234222
vn 0.05607595 0.9705645 0.234222
vn 0.05607591 0.9705876 0.2341264
vn 0 1 0
vn 0 1 0
vn 0 1 0
vn 0 1 0
vn 0.851452 0 -0.5244326
vn 0.8514307 0 -0.5244671
vn 0.851452 0 -0.5244326
vn 0.8514307 0 -0.5244671
vn 0 1 0
vn 0 1 0
vn 0 1 0
vn 0 1 0
vn 0 1 0
vn 0 1 0
vn 0 1 0
vn 0 1 0
vn 0 1 0
vn 0 1 0
vn 0 1 0
vn 0 1 0
vn 0 1 0
vn 0 1 0
vn 0 1 0
vn 0 1 0
vn 0 1 0
vn -0.682641 0 -0.730754
vn -0.682641 0 -0.730754
vn -0.682641 0 -0.730754
vn -0.682641 0 -0.730754
vn -0.01468677 0 -0.9998921
vn -0.01468677 0 -0.9998921
vn -0.01468677 0 -0.9998921
vn -0.01468677 0 -0.9998921
vn -0.94475 0 -0.3277918
vn -0.94475 0 -0.3277918
vn -0.94475 0 -0.3277918
vn -0.94475 0 -0.3277918
vn -0.3185156 0 0.9479176
vn -0.31853 0 0.9479128
vn -0.31853 0 0.9479128
vn -0.3185156 0 0.9479176
vn 0.9796417 0 0.2007541
vn 0.9573103 0 0.2890623
vn 0.9573103 0 0.2890623
vn 0.9796417 0 0.2007541
vn 0.9938512 0 0.1107246
vn 0.9938512 0 0.1107246
vn -0.9797617 0 -0.2001674
vn -0.9881413 0 0.1535477
vn -0.9797617 0 -0.2001674
vn -0.9881413 0 0.1535477
vn -0.8487475 0 -0.5287983
vn -0.8487475 0 -0.5287983
vn -0.09050136 0 0.9958963
vn -0.09059595 0 0.9958878
vn -0.09050136 0 0.9958963
vn -0.09059595 0 0.9958878
vn 0.1432436 0 -0.9896875
vn 0.1432436 0 -0.9896875
vn 0.1432436 0 -0.9896875
vn 0.1432436 0 -0.9896875
vn 0.9467879 0 0.3218583
vn 0.9467734 0 0.321901
vn 0.9467734 0 0.321901
vn 0.9467879 0 0.3218583
vn 0.2460458 0 -0.9692582
vn 0.2460458 0 -0.9692582
vn 0.2460458 0 -0.9692582
vn 0.2460458 0 -0.9692582
vn 0 1.546597E-05 -1
vn 0 0.7358811 -0.6771108
vn 0 1.546597E-05 -1
vn 0 0.7358811 -0.6771108
vn 0 1 0
vn 0 1 0
vn 0 0.7358866 0.6771048
vn 0 0.7358866 0.6771048
vn 0 1.544541E-05 1
vn 0 1.544541E-05 1
vn -1 0 0
vn -1 0 0
vn -1 0 0
vn -1 0 0
vn -1 0 0
vn 1 0 0
vn 1 0 0
vn 1 0 0
vn 1 0 0
vn 1 0 0
vn -0.9916646 0 -0.1288458
vn -0.9916646 0 -0.1288458
vn -0.9916646 0 -0.1288458
vn -0.9916646 0 -0.1288458
vn 0.9921542 0 0.1250206
vn 0.9921542 0 0.1250206
vn 0.9921542 0 0.1250206
vn 0.9921542 0 0.1250206
vn 0 0.8271991 -0.5619089
vn 0 -5.462955E-05 -1
vn 0 0.8271991 -0.5619089
vn 0 -5.462955E-05 -1
vn 0 -0.8272048 -0.5619006
vn 0 -0.8272048 -0.5619006
vn 0 1 0
vn 0 1 0
vn 0 1 0
vn 0 1 0
vn 0 1 0
vn -0.9464571 0 -0.3228293
vn -0.9464566 1.427527E-05 -0.3228312
vn -0.9464571 0 -0.3228293
vn -0.9464571 0 -0.3228293
vn 0.8388965 0 0.5442909
vn 0.8388965 0 0.5442909
vn 0.8388965 0 0.5442909
vn 0.8388965 0 0.5442909
vn 0.9900579 0 0.1406603
vn 0.9900579 0 0.1406603
vn 0.9900579 0 0.1406603
vn 0.9900506 0 0.1407124
vn -0.3418043 0 -0.9397712
vn -0.3418043 0 -0.9397712
vn -0.3418043 0 -0.9397712
vn -0.3418043 0 -0.9397712
vn 0.003886105 0 -0.9999925
vn 0.00659198 0 -0.9999783
vn 0.003886105 0 -0.9999925
vn 0.00659198 0 -0.9999783
vn 0.009322438 0 -0.9999566
vn 0.009322438 0 -0.9999566
vn 0.005256937 0 0.9999862
vn 0.005245017 0 0.9999863
vn 0.005245017 0 0.9999863
vn 0.005256937 0 0.9999862
vn 0 -1 0
vn 0 -1 0
vn 0 -1 0
vn 0 -1 0
vn 0 -1 0
vn 0 -1 0
vn 0 -1 0
vn 0 -1 0
vn 0 -1 0
vn 0 -1 0
vn 0 -1 0
vn 0 -1 0
vn 0 -1 0
vn 0 -1 0
vn 0 -1 0
vn 0.158024 0 0.9874352
vn 0.1766356 0 0.9842763
vn 0.1766356 0 0.9842763
vn 0.1587976 0 0.9873111
vn 0.01373392 0 0.9999057
vn 0.01373392 0 0.9999057
vn 0.02570225 0 0.9996697
vn 0.02570225 0 0.9996697
vn 0 0 1
vn 0 0 1
vn 0 -1 0
vn 0 -1 0
vn 0 -1 0
vn 0 -1 0
vn 0 -1 0
vn 0 -1 0
vn 0 -1 0
vn 0 -1 0
vn 0 -1 0
vn 0 -1 0
vn 0 -1 0
vn 0 -1 0
vn 0 -1 0
vn 0 -1 0
vn 0 -1 0
vn 0 -1 0
vn 0 -1 0
vn 0 -1 0
vn 0 -1 0
vn 0 -1 0
vn 0 -1 0
vn 0 -1 0
vn 0 -1 0
vn 0 -1 0
vn 0 -1 0
vn 0.8808994 0 -0.4733034
vn 0.8808941 0 -0.4733134
vn 0.8808994 0 -0.4733034
vn 0.8808941 0 -0.4733134
vn -0.5956949 0 0.8032109
vn -0.5956959 0 0.8032101
vn -0.5956949 0 0.8032109
vn -0.5956959 0 0.8032101
vn 0.4970424 0 -0.8677262
vn 0.4970424 0 -0.8677262
vn 0.4970424 0 -0.8677262
vn 0.4970424 0 -0.8677262
vn -0.788715 0 0.614759
vn -0.788715 0 0.614759
vn -0.788715 0 0.614759
vn -0.788715 0 0.614759
vn -0.595473 -0.6267534 0.5025853
vn -0.5954708 -0.6267571 0.5025835
vn -0.5954708 -0.6267571 0.5025835
vn -0.5954882 -0.6268052 0.5025027
vn -0.9976664 0 -0.06827845
vn -0.9976664 0 -0.06827845
vn -0.9976664 0 -0.06827845
vn -0.9976664 0 -0.06827845
vn 0 -1 0
vn 0 -1 0
vn 0 -1 0
vn 0 -1 0
vn 0 -1 0
vn 0 -1 0
vn 0 -1 0
vn 0 -1 0
vn -0.538442 0 -0.8426626
vn -0.538442 0 -0.8426626
vn -0.538442 0 -0.8426626
vn -0.538442 0 -0.8426626
vn -0.300788 -0.869379 0.3920544
vn -0.3007899 -0.8694202 0.3919615
vn -0.3007899 -0.8694202 0.3919615
vn -0.04043265 0 -0.9991823
vn -0.04043265 0 -0.9991823
vn -0.04043265 0 -0.9991823
vn -0.04043265 0 -0.9991823
vn -0.6020124 0 0.7984866
vn -0.6020124 0 0.7984866
vn -0.6020124 0 0.7984866
vn -0.6020124 0 0.7984866
vn 0.0312824 0 0.9995106
vn 0.0312824 0 0.9995106
vn 0.0312824 0 0.9995106
vn 0.0312824 0 0.9995106
vn -0.9941347 0 -0.1081493
vn -0.9941347 0 -0.1081493
vn -0.9941347 0 -0.1081493
vn -0.9941347 0 -0.1081493
vn 0.6942609 0 -0.7197235
vn 0.6942609 0 -0.7197235
vn 0.6942609 0 -0.7197235
vn 0.6942609 0 -0.7197235
vn 0.8397442 0 -0.5429824
vn 0.8397658 0 -0.5429487
vn 0.8397442 0 -0.5429824
vn 0.8397658 0 -0.5429487
vn 0.8498788 0 0.5269783
vn 0.8498735 0 0.5269868
vn 0.8498788 0 0.5269783
vn 0.8498735 0 0.5269868
vn -0.8585304 0 0.5127626
vn -0.8585514 0 0.5127274
vn -0.8585514 0 0.5127274
vn -0.8585304 0 0.5127626
vn -0.616591 0 0.7872837
vn -0.616591 0 0.7872837
vn -0.616591 0 0.7872837
vn -0.616591 0 0.7872837
vn -0.5928346 0 0.8053243
vn -0.5928346 0 0.8053243
vn -0.3835588 0 -0.9235165
vn -0.3835588 0 -0.9235165
vn -0.3835588 0 -0.9235165
vn -0.3835588 0 -0.9235165
vn 0.9989605 0 -0.04558503
vn 0.9989605 0 -0.04558503
vn 0.9989605 0 -0.04558503
vn 0.9989605 0 -0.04558503
vn 0.698375 0 -0.7157319
vn 0.005006613 0 -0.9999875
vn 0.698375 0 -0.7157319
vn 0.005006613 0 -0.9999875
vn 0.6856681 0 -0.7279143
vn 0.6856681 0 -0.7279143
vn -0.02508274 0 -0.9996854
vn -0.02508274 0 -0.9996854
vn 0 0 -1
vn 0 0 -1
vn -0.02517805 0 -0.999683
vn -0.02517805 0 -0.999683
vn -0.6668493 0 -0.7451927
vn -0.6668493 0 -0.7451927
vn -0.6668493 0 -0.7451927
vn -0.6668493 0 -0.7451927
vn 0.9449872 0 0.3271073
vn 0.9449872 0 0.3271073
vn 0.9449872 0 0.3271073
vn 0.9449872 0 0.3271073
vn -0.8613894 0 0.5079451
vn -0.8613894 0 0.5079451
vn -0.8613894 0 0.5079451
vn -0.8613894 0 0.5079451
vn 0.9891562 0 0.1468666
vn 0.9891562 0 0.1468666
vn 0.9891562 0 0.1468666
vn 0.9891562 0 0.1468666
vn -0.9884784 0 -0.1513619
vn -0.9884784 0 -0.1513619
vn -0.9884784 0 -0.1513619
vn -0.9884784 0 -0.1513619
vn -0.7442702 0 0.6678786
vn -0.7442702 0 0.6678786
vn -0.7442702 0 0.6678786
vn -0.7442702 0 0.6678786
vn -0.8854018 0 0.4648264
vn -0.8854018 0 0.4648264
vn -0.8854018 0 0.4648264
vn -0.8854018 0 0.4648264
vn 0.9691699 0 -0.2463935
vn 0.9691699 0 -0.2463935
vn 0.9691699 0 -0.2463935
vn 0.9691699 0 -0.2463935
vn 0.1472398 0 0.9891008
vn 0.1472398 0 0.9891008
vn 0.1472398 0 0.9891008
vn 0.1472398 0 0.9891008
vn 0.851452 0 -0.5244326
vn 0.8514307 0 -0.5244671
vn 0.851452 0 -0.5244326
vn 0.8514307 0 -0.5244671
vn 0 -1 0
vn 0 -1 0
vn 0 -1 0
vn 0 -1 0
vn 0 -1 0
vn 0 -1 0
vn 0 -1 0
vn 0 -1 0
vn 0 -1 0
vn 0 -1 0
vn 0 -1 0
vn 0 -1 0
vn 0 -1 0
vn 0 -1 0
vn 0 -1 0
vn 0 -1 0
vn 0 -1 0
vn -0.682641 0 -0.730754
vn -0.682641 0 -0.730754
vn -0.682641 0 -0.730754
vn -0.682641 0 -0.730754
vn -0.01468677 0 -0.9998921
vn -0.01468677 0 -0.9998921
vn -0.01468677 0 -0.9998921
vn -0.01468677 0 -0.9998921
vn -0.94475 0 -0.3277918
vn -0.94475 0 -0.3277918
vn -0.94475 0 -0.3277918
vn -0.94475 0 -0.3277918
vn -0.31853 0 0.9479128
vn -0.3185156 0 0.9479176
vn -0.3185156 0 0.9479176
vn -0.31853 0 0.9479128
vn 0.9796417 0 0.2007541
vn 0.9573103 0 0.2890623
vn 0.9796417 0 0.2007541
vn 0.9573103 0 0.2890623
vn 0.9938512 0 0.1107246
vn 0.9938512 0 0.1107246
vn -0.9797617 0 -0.2001674
vn -0.9881413 0 0.1535477
vn -0.9797617 0 -0.2001674
vn -0.9881413 0 0.1535477
vn -0.8487475 0 -0.5287983
vn -0.8487475 0 -0.5287983
vn -0.09050136 0 0.9958963
vn -0.09059595 0 0.9958878
vn -0.09050136 0 0.9958963
vn -0.09059595 0 0.9958878
vn 0.1432436 0 -0.9896875
vn 0.1432436 0 -0.9896875
vn 0.1432436 0 -0.9896875
vn 0.1432436 0 -0.9896875
vn 0.9467734 0 0.321901
vn 0.9467879 0 0.3218583
vn 0.9467879 0 0.3218583
vn 0.9467734 0 0.321901
vn 0.2460458 0 -0.9692582
vn 0.2460458 0 -0.9692582
vn 0.2460458 0 -0.9692582
vn 0.2460458 0 -0.9692582
vn 0 1.546597E-05 -1
vn 0 -0.7358811 -0.6771108
vn 0 1.546597E-05 -1
vn 0 -0.7358811 -0.6771108
vn 0 -1 0
vn 0 -1 0
vn 0 -0.7358866 0.6771048
vn 0 -0.7358866 0.6771048
vn 0 1.544541E-05 1
vn 0 1.544541E-05 1
vn -1 0 0
vn -1 0 0
vn -1 0 0
vn -1 0 0
vn -1 0 0
vn 1 0 0
vn 1 0 0
vn 1 0 0
vn 1 0 0
vn 1 0 0
vn -0.9916646 0 -0.1288458
vn -0.9916646 0 -0.1288458
vn -0.9916646 0 -0.1288458
vn -0.9916646 0 -0.1288458
vn 0.9921542 0 0.1250206
vn 0.9921542 0 0.1250206
vn 0.9921542 0 0.1250206
vn 0.9921542 0 0.1250206
vn -0.08163463 0 -0.9966624
vn -0.08163463 0 -0.9966624
vn -0.08163463 0 -0.9966624
vn -0.08163463 0 -0.9966624
vn -0.4213368 0 -0.9069042
vn -0.4213368 0 -0.9069042
vn -0.4213368 0 -0.9069042
vn -0.4213368 0 -0.9069042
vn -0.00038147 -0.9999998 0.000572205
vn -0.00038147 -0.9999998 0.000572205
vn -0.00038147 -0.9999998 0.000572205
vn -0.00038147 -0.9999998 0.000572205
vn 0 -1 0
vn -0.9464571 0 -0.3228293
vn -0.9464571 0 -0.3228293
vn -0.9464571 0 -0.3228293
vn -0.9464571 0 -0.3228293
vn 0.8388965 0 0.5442909
vn 0.8388965 0 0.5442909
vn 0.8388965 0 0.5442909
vn 0.8388965 0 0.5442909
vn 0.9900579 0 0.1406603
vn 0.9900579 0 0.1406603
vn 0.9900579 0 0.1406603
vn 0.9900579 0 0.1406603
vn -0.3418043 0 -0.9397712
vn -0.3418043 0 -0.9397712
vn -0.3418043 0 -0.9397712
vn -0.3418043 0 -0.9397712
g NQS_A_WQ_0
f 3/3/3 2/2/2 1/1/1
f 2/2/2 4/4/4 1/1/1
f 5/5/5 1/1/1 4/4/4
f 6/6/6 5/5/5 4/4/4
f 5/5/5 6/6/6 7/7/7
f 8/8/8 5/5/5 7/7/7
f 8/8/8 7/7/7 9/9/9
f 10/10/10 8/8/8 9/9/9
f 11/11/11 6/6/6 4/4/4
f 12/12/12 11/11/11 4/4/4
f 2/2/2 13/13/13 4/4/4
f 13/13/13 12/12/12 4/4/4
f 1/1/1 14/14/14 3/3/3
f 14/14/14 15/15/15 3/3/3
f 18/18/18 17/17/17 16/16/16
f 19/19/19 18/18/18 16/16/16
f 19/19/19 16/16/16 20/20/20
f 20/20/20 16/16/16 21/21/21
f 22/22/22 21/21/21 16/16/16
f 17/17/17 22/22/22 16/16/16
f 23/23/23 21/21/21 22/22/22
f 24/24/24 23/23/23 22/22/22
f 25/25/25 20/20/20 21/21/21
f 25/25/25 21/21/21 26/26/26
f 24/24/24 27/27/27 23/23/23
f 28/28/28 25/25/25 26/26/26
f 29/29/29 28/28/28 26/26/26
f 31/31/31 30/30/30 24/24/24
f 30/30/30 32/32/32 24/24/24
f 30/30/30 31/31/31 33/33/33
f 34/34/34 30/30/30 33/33/33
f 34/34/34 33/33/33 35/35/35
f 33/33/33 36/36/36 35/35/35
f 35/35/35 36/36/36 37/37/37
f 35/35/35 37/37/37 38/38/38
f 36/36/36 39/39/39 37/37/37
f 41/41/41 32/32/32 40/40/40
f 42/42/42 41/41/41 40/40/40
f 42/42/42 40/40/40 43/43/43
f 42/42/42 43/43/43 26/26/26
f 46/46/46 45/45/45 44/44/44
f 45/45/45 47/47/47 44/44/44
f 50/50/50 49/49/49 48/48/48
f 49/49/49 51/51/51 48/48/48
f 54/54/54 53/53/53 52/52/52
f 53/53/53 55/55/55 52/52/52
f 58/58/58 57/57/57 56/56/56
f 61/61/61 60/60/60 59/59/59
f 60/60/60 62/62/62 59/59/59
f 65/65/65 64/64/64 63/63/63
f 64/64/64 66/66/66 63/63/63
f 69/69/69 68/68/68 67/67/67
f 68/68/68 70/70/70 67/67/67
f 68/68/68 71/71/71 70/70/70
f 69/69/69 72/72/72 68/68/68
f 72/72/72 73/73/73 68/68/68
f 73/73/73 72/72/72 74/74/74
f 75/75/75 73/73/73 74/74/74
f 75/75/75 74/74/74 76/76/76
f 77/77/77 75/75/75 76/76/76
f 78/78/78 75/75/75 77/77/77
f 79/79/79 78/78/78 77/77/77
f 80/80/80 70/70/70 71/71/71
f 81/81/81 80/80/80 71/71/71
f 78/78/78 79/79/79 82/82/82
f 83/83/83 78/78/78 82/82/82
f 86/86/86 85/85/85 84/84/84
f 85/85/85 87/87/87 84/84/84
f 90/90/90 89/89/89 88/88/88
f 89/89/89 91/91/91 88/88/88
f 94/94/94 93/93/93 92/92/92
f 93/93/93 95/95/95 92/92/92
f 98/98/98 97/97/97 96/96/96
f 97/97/97 99/99/99 96/96/96
f 102/102/102 101/101/101 100/100/100
f 101/101/101 103/103/103 100/100/100
f 100/100/100 103/103/103 104/104/104
f 105/105/105 100/100/100 104/104/104
f 108/108/108 107/107/107 106/106/106
f 107/107/107 109/109/109 106/106/106
f 108/108/108 106/106/106 110/110/110
f 111/111/111 108/108/108 110/110/110
f 114/114/114 113/113/113 112/112/112
f 113/113/113 115/115/115 112/112/112
f 118/118/118 117/117/117 116/116/116
f 117/117/117 119/119/119 116/116/116
f 122/122/122 121/121/121 120/120/120
f 121/121/121 123/123/123 120/120/120
f 126/126/126 125/125/125 124/124/124
f 125/125/125 127/127/127 124/124/124
f 130/130/130 129/129/129 128/128/128
f 129/129/129 131/131/131 128/128/128
f 129/129/129 132/132/132 131/131/131
f 132/132/132 133/133/133 131/131/131
f 132/132/132 134/134/134 133/133/133
f 134/134/134 135/135/135 133/133/133
f 134/134/134 136/136/136 135/135/135
f 136/136/136 137/137/137 135/135/135
f 140/140/140 139/139/139 138/138/138
f 139/139/139 141/141/141 138/138/138
f 142/142/142 138/138/138 141/141/141
f 145/145/145 144/144/144 143/143/143
f 144/144/144 146/146/146 143/143/143
f 147/147/147 144/144/144 145/145/145
f 150/150/150 149/149/149 148/148/148
f 149/149/149 151/151/151 148/148/148
f 154/154/154 153/153/153 152/152/152
f 153/153/153 155/155/155 152/152/152
f 158/158/158 157/157/157 156/156/156
f 157/157/157 159/159/159 156/156/156
f 159/159/159 157/157/157 160/160/160
f 161/161/161 159/159/159 160/160/160
f 164/164/164 163/163/163 162/162/162
f 163/163/163 165/165/165 162/162/162
f 164/164/164 162/162/162 166/166/166
f 169/169/169 168/168/168 167/167/167
f 168/168/168 170/170/170 167/167/167
f 173/173/173 172/172/172 171/171/171
f 172/172/172 174/174/174 171/171/171
f 177/177/177 176/176/176 175/175/175
f 176/176/176 178/178/178 175/175/175
f 181/181/181 180/180/180 179/179/179
f 180/180/180 182/182/182 179/179/179
f 185/185/185 184/184/184 183/183/183
f 184/184/184 186/186/186 183/183/183
f 186/186/186 184/184/184 187/187/187
f 188/188/188 186/186/186 187/187/187
f 191/191/191 190/190/190 189/189/189
f 190/190/190 192/192/192 189/189/189
f 195/195/195 194/194/194 193/193/193
f 194/194/194 196/196/196 193/193/193
f 196/196/196 194/194/194 197/197/197
f 196/196/196 197/197/197 198/198/198
f 199/199/199 196/196/196 198/198/198
f 194/194/194 200/200/200 197/197/197
f 201/201/201 197/197/197 200/200/200
f 202/202/202 201/201/201 200/200/200
f 203/203/203 201/201/201 202/202/202
f 204/204/204 203/203/203 202/202/202
f 193/193/193 196/196/196 205/205/205
f 196/196/196 199/199/199 205/205/205
f 194/194/194 195/195/195 206/206/206
f 195/195/195 207/207/207 206/206/206
f 210/210/210 209/209/209 208/208/208
f 209/209/209 211/211/211 208/208/208
f 211/211/211 212/212/212 208/208/208
f 212/212/212 213/213/213 208/208/208
f 214/214/214 209/209/209 210/210/210
f 215/215/215 214/214/214 210/210/210
f 216/216/216 214/214/214 215/215/215
f 217/217/217 216/216/216 215/215/215
f 220/220/220 219/219/219 218/218/218
f 220/220/220 218/218/218 221/221/221
f 222/222/222 220/220/220 221/221/221
f 223/223/223 220/220/220 222/222/222
f 220/220/220 223/223/223 224/224/224
f 220/220/220 224/224/224 219/219/219
f 224/224/224 223/223/223 225/225/225
f 226/226/226 224/224/224 225/225/225
f 227/227/227 223/223/223 222/222/222
f 228/228/228 223/223/223 227/227/227
f 229/229/229 225/225/225 223/223/223
f 229/229/229 230/230/230 225/225/225
f 225/225/225 230/230/230 226/226/226
f 231/231/231 229/229/229 223/223/223
f 228/228/228 231/231/231 223/223/223
f 226/226/226 230/230/230 232/232/232
f 233/233/233 226/226/226 232/232/232
f 234/234/234 233/233/233 232/232/232
f 235/235/235 234/234/234 232/232/232
f 235/235/235 236/236/236 234/234/234
f 236/236/236 237/237/237 234/234/234
f 228/228/228 227/227/227 238/238/238
f 239/239/239 228/228/228 238/238/238
f 240/240/240 237/237/237 236/236/236
f 241/241/241 240/240/240 236/236/236
f 240/240/240 242/242/242 237/237/237
f 245/245/245 244/244/244 243/243/243
f 244/244/244 246/246/246 243/243/243
f 249/249/249 248/248/248 247/247/247
f 248/248/248 250/250/250 247/247/247
f 253/253/253 252/252/252 251/251/251
f 252/252/252 254/254/254 251/251/251
f 257/257/257 256/256/256 255/255/255
f 256/256/256 258/258/258 255/255/255
f 261/261/261 260/260/260 259/259/259
f 260/260/260 262/262/262 259/259/259
f 265/265/265 264/264/264 263/263/263
f 264/264/264 266/266/266 263/263/263
f 269/269/269 268/268/268 267/267/267
f 268/268/268 270/270/270 267/267/267
f 271/271/271 269/269/269 267/267/267
f 272/272/272 271/271/271 267/267/267
f 272/272/272 267/267/267 273/273/273
f 274/274/274 272/272/272 273/273/273
f 277/277/277 276/276/276 275/275/275
f 276/276/276 278/278/278 275/275/275
f 281/281/281 280/280/280 279/279/279
f 284/284/284 283/283/283 282/282/282
f 283/283/283 285/285/285 282/282/282
f 288/288/288 287/287/287 286/286/286
f 287/287/287 289/289/289 286/286/286
f 292/292/292 291/291/291 290/290/290
f 291/291/291 293/293/293 290/290/290
f 296/296/296 295/295/295 294/294/294
f 295/295/295 297/297/297 294/294/294
f 300/300/300 299/299/299 298/298/298
f 299/299/299 301/301/301 298/298/298
f 304/304/304 303/303/303 302/302/302
f 303/303/303 305/305/305 302/302/302
f 308/308/308 307/307/307 306/306/306
f 307/307/307 309/309/309 306/306/306
f 312/312/312 311/311/311 310/310/310
f 311/311/311 313/313/313 310/310/310
f 316/316/316 315/315/315 314/314/314
f 315/315/315 317/317/317 314/314/314
f 314/314/314 317/317/317 318/318/318
f 317/317/317 319/319/319 318/318/318
f 322/322/322 321/321/321 320/320/320
f 321/321/321 323/323/323 320/320/320
f 326/326/326 325/325/325 324/324/324
f 325/325/325 327/327/327 324/324/324
f 330/330/330 329/329/329 328/328/328
f 329/329/329 331/331/331 328/328/328
f 330/330/330 328/328/328 332/332/332
f 333/333/333 330/330/330 332/332/332
f 333/333/333 332/332/332 334/334/334
f 335/335/335 333/333/333 334/334/334
f 329/329/329 336/336/336 331/331/331
f 336/336/336 337/337/337 331/331/331
f 335/335/335 334/334/334 338/338/338
f 339/339/339 335/335/335 338/338/338
f 342/342/342 341/341/341 340/340/340
f 341/341/341 343/343/343 340/340/340
f 346/346/346 345/345/345 344/344/344
f 345/345/345 347/347/347 344/344/344
f 350/350/350 349/349/349 348/348/348
f 349/349/349 351/351/351 348/348/348
f 354/354/354 353/353/353 352/352/352
f 353/353/353 355/355/355 352/352/352
f 358/358/358 357/357/357 356/356/356
f 357/357/357 359/359/359 356/356/356
f 362/362/362 361/361/361 360/360/360
f 361/361/361 363/363/363 360/360/360
f 366/366/366 365/365/365 364/364/364
f 365/365/365 367/367/367 364/364/364
f 370/370/370 369/369/369 368/368/368
f 369/369/369 371/371/371 368/368/368
f 374/374/374 373/373/373 372/372/372
f 373/373/373 375/375/375 372/372/372
f 378/378/378 377/377/377 376/376/376
f 377/377/377 379/379/379 376/376/376
f 382/382/382 381/381/381 380/380/380
f 381/381/381 383/383/383 380/380/380
f 383/383/383 384/384/384 380/380/380
f 382/382/382 380/380/380 385/385/385
f 380/380/380 386/386/386 385/385/385
f 387/387/387 385/385/385 386/386/386
f 388/388/388 387/387/387 386/386/386
f 389/389/389 387/387/387 388/388/388
f 390/390/390 389/389/389 388/388/388
f 390/390/390 388/388/388 391/391/391
f 392/392/392 390/390/390 391/391/391
f 384/384/384 383/383/383 393/393/393
f 394/394/394 384/384/384 393/393/393
f 395/395/395 392/392/392 391/391/391
f 396/396/396 395/395/395 391/391/391
f 399/399/399 398/398/398 397/397/397
f 398/398/398 400/400/400 397/397/397
f 403/403/403 402/402/402 401/401/401
f 402/402/402 404/404/404 401/401/401
f 407/407/407 406/406/406 405/405/405
f 406/406/406 408/408/408 405/405/405
f 411/411/411 410/410/410 409/409/409
f 410/410/410 412/412/412 409/409/409
f 415/415/415 414/414/414 413/413/413
f 414/414/414 416/416/416 413/413/413
f 415/415/415 413/413/413 417/417/417
f 418/418/418 415/415/415 417/417/417
f 421/421/421 420/420/420 419/419/419
f 420/420/420 422/422/422 419/419/419
f 421/421/421 419/419/419 423/423/423
f 424/424/424 421/421/421 423/423/423
f 427/427/427 426/426/426 425/425/425
f 426/426/426 428/428/428 425/425/425
f 431/431/431 430/430/430 429/429/429
f 430/430/430 432/432/432 429/429/429
f 435/435/435 434/434/434 433/433/433
f 434/434/434 436/436/436 433/433/433
f 439/439/439 438/438/438 437/437/437
f 438/438/438 440/440/440 437/437/437
f 443/443/443 442/442/442 441/441/441
f 442/442/442 444/444/444 441/441/441
f 442/442/442 445/445/445 444/444/444
f 445/445/445 446/446/446 444/444/444
f 445/445/445 447/447/447 446/446/446
f 447/447/447 448/448/448 446/446/446
f 447/447/447 449/449/449 448/448/448
f 449/449/449 450/450/450 448/448/448
f 453/453/453 452/452/452 451/451/451
f 452/452/452 454/454/454 451/451/451
f 454/454/454 452/452/452 455/455/455
f 458/458/458 457/457/457 456/456/456
f 457/457/457 459/459/459 456/456/456
f 458/458/458 456/456/456 460/460/460
f 463/463/463 462/462/462 461/461/461
f 462/462/462 464/464/464 461/461/461
f 467/467/467 466/466/466 465/465/465
f 466/466/466 468/468/468 465/465/465
f 471/471/471 470/470/470 469/469/469
f 470/470/470 472/472/472 469/469/469
f 475/475/475 474/474/474 473/473/473
f 474/474/474 476/476/476 473/473/473
f 479/479/479 478/478/478 477/477/477
f 478/478/478 480/480/480 477/477/477
f 481/481/481 478/478/478 479/479/479
f 484/484/484 483/483/483 482/482/482
f 483/483/483 485/485/485 482/482/482
f 488/488/488 487/487/487 486/486/486
f 487/487/487 489/489/489 486/486/486
f 492/492/492 491/491/491 490/490/490
f 491/491/491 493/493/493 490/490/490
f 496/496/496 495/495/495 494/494/494
f 495/495/495 497/497/497 494/494/494
f 500/500/500 499/499/499 498/498/498
f 499/499/499 501/501/501 498/498/498
f 502/502/502 498/498/498 501/501/501
f 503/503/503 502/502/502 501/501/501
f 502/502/502 503/503/503 504/504/504
f 505/505/505 502/502/502 504/504/504
f 505/505/505 504/504/504 506/506/506
f 507/507/507 505/505/505 506/506/506
f 508/508/508 503/503/503 501/501/501
f 509/509/509 508/508/508 501/501/501
f 499/499/499 510/510/510 501/501/501
f 510/510/510 509/509/509 501/501/501
f 498/498/498 511/511/511 500/500/500
f 511/511/511 512/512/512 500/500/500
f 515/515/515 514/514/514 513/513/513
f 516/516/516 515/515/515 513/513/513
f 516/516/516 513/513/513 517/517/517
f 517/517/517 513/513/513 518/518/518
f 519/519/519 518/518/518 513/513/513
f 514/514/514 519/519/519 513/513/513
f 520/520/520 518/518/518 519/519/519
f 521/521/521 520/520/520 519/519/519
f 522/522/522 517/517/517 518/518/518
f 522/522/522 518/518/518 523/523/523
f 521/521/521 524/524/524 520/520/520
f 525/525/525 522/522/522 523/523/523
f 526/526/526 525/525/525 523/523/523
f 528/528/528 527/527/527 521/521/521
f 527/527/527 529/529/529 521/521/521
f 527/527/527 528/528/528 530/530/530
f 531/531/531 527/527/527 530/530/530
f 531/531/531 530/530/530 532/532/532
f 530/530/530 533/533/533 532/532/532
f 532/532/532 533/533/533 534/534/534
f 532/532/532 534/534/534 535/535/535
f 533/533/533 536/536/536 534/534/534
f 538/538/538 529/529/529 537/537/537
f 539/539/539 538/538/538 537/537/537
f 539/539/539 537/537/537 540/540/540
f 539/539/539 540/540/540 523/523/523
f 543/543/543 542/542/542 541/541/541
f 542/542/542 544/544/544 541/541/541
f 547/547/547 546/546/546 545/545/545
f 546/546/546 548/548/548 545/545/545
f 551/551/551 550/550/550 549/549/549
f 550/550/550 552/552/552 549/549/549
f 555/555/555 554/554/554 553/553/553
f 558/558/558 557/557/557 556/556/556
f 557/557/557 559/559/559 556/556/556
f 562/562/562 561/561/561 560/560/560
f 561/561/561 563/563/563 560/560/560
f 566/566/566 565/565/565 564/564/564
f 565/565/565 567/567/567 564/564/564
f 565/565/565 568/568/568 567/567/567
f 566/566/566 569/569/569 565/565/565
f 569/569/569 570/570/570 565/565/565
f 570/570/570 569/569/569 571/571/571
f 572/572/572 570/570/570 571/571/571
f 572/572/572 571/571/571 573/573/573
f 574/574/574 572/572/572 573/573/573
f 575/575/575 572/572/572 574/574/574
f 576/576/576 575/575/575 574/574/574
f 577/577/577 567/567/567 568/568/568
f 578/578/578 577/577/577 568/568/568
f 575/575/575 576/576/576 579/579/579
f 580/580/580 575/575/575 579/579/579
f 583/583/583 582/582/582 581/581/581
f 582/582/582 584/584/584 581/581/581
f 587/587/587 586/586/586 585/585/585
f 586/586/586 588/588/588 585/585/585
f 591/591/591 590/590/590 589/589/589
f 590/590/590 592/592/592 589/589/589
f 595/595/595 594/594/594 593/593/593
f 594/594/594 596/596/596 593/593/593
f 599/599/599 598/598/598 597/597/597
f 598/598/598 600/600/600 597/597/597
f 597/597/597 600/600/600 601/601/601
f 602/602/602 597/597/597 601/601/601
f 605/605/605 604/604/604 603/603/603
f 604/604/604 606/606/606 603/603/603
f 605/605/605 603/603/603 607/607/607
f 608/608/608 605/605/605 607/607/607
f 611/611/611 610/610/610 609/609/609
f 610/610/610 612/612/612 609/609/609
f 615/615/615 614/614/614 613/613/613
f 614/614/614 616/616/616 613/613/613
f 619/619/619 618/618/618 617/617/617
f 618/618/618 620/620/620 617/617/617
f 623/623/623 622/622/622 621/621/621
f 622/622/622 624/624/624 621/621/621
f 627/627/627 626/626/626 625/625/625
f 626/626/626 628/628/628 625/625/625
f 626/626/626 629/629/629 628/628/628
f 629/629/629 630/630/630 628/628/628
f 629/629/629 631/631/631 630/630/630
f 631/631/631 632/632/632 630/630/630
f 631/631/631 633/633/633 632/632/632
f 633/633/633 634/634/634 632/632/632
f 637/637/637 636/636/636 635/635/635
f 636/636/636 638/638/638 635/635/635
f 639/639/639 635/635/635 638/638/638
f 642/642/642 641/641/641 640/640/640
f 641/641/641 643/643/643 640/640/640
f 644/644/644 641/641/641 642/642/642
f 647/647/647 646/646/646 645/645/645
f 646/646/646 648/648/648 645/645/645
f 651/651/651 650/650/650 649/649/649
f 650/650/650 652/652/652 649/649/649
f 655/655/655 654/654/654 653/653/653
f 654/654/654 656/656/656 653/653/653
f 656/656/656 654/654/654 657/657/657
f 658/658/658 656/656/656 657/657/657
f 661/661/661 660/660/660 659/659/659
f 660/660/660 662/662/662 659/659/659
f 661/661/661 659/659/659 663/663/663
f 666/666/666 665/665/665 664/664/664
f 665/665/665 667/667/667 664/664/664
f 670/670/670 669/669/669 668/668/668
f 669/669/669 671/671/671 668/668/668
f 674/674/674 673/673/673 672/672/672
f 673/673/673 675/675/675 672/672/672
f 678/678/678 677/677/677 676/676/676
f 677/677/677 679/679/679 676/676/676
f 682/682/682 681/681/681 680/680/680
f 681/681/681 683/683/683 680/680/680
f 683/683/683 681/681/681 684/684/684
f 685/685/685 683/683/683 684/684/684
f 688/688/688 687/687/687 686/686/686
f 687/687/687 689/689/689 686/686/686
f 692/692/692 691/691/691 690/690/690
f 691/691/691 693/693/693 690/690/690
f 693/693/693 691/691/691 694/694/694
f 693/693/693 694/694/694 695/695/695
f 696/696/696 693/693/693 695/695/695
f 691/691/691 697/697/697 694/694/694
f 698/698/698 694/694/694 697/697/697
f 699/699/699 698/698/698 697/697/697
f 700/700/700 698/698/698 699/699/699
f 701/701/701 700/700/700 699/699/699
f 690/690/690 693/693/693 702/702/702
f 693/693/693 696/696/696 702/702/702
f 691/691/691 692/692/692 703/703/703
f 692/692/692 704/704/704 703/703/703
f 707/707/707 706/706/706 705/705/705
f 706/706/706 708/708/708 705/705/705
f 708/708/708 709/709/709 705/705/705
f 709/709/709 710/710/710 705/705/705
f 711/711/711 706/706/706 707/707/707
f 712/712/712 711/711/711 707/707/707
f 713/713/713 711/711/711 712/712/712
f 714/714/714 713/713/713 712/712/712
f 717/717/717 716/716/716 715/715/715
f 717/717/717 715/715/715 718/718/718
f 719/719/719 717/717/717 718/718/718
f 720/720/720 717/717/717 719/719/719
f 717/717/717 720/720/720 721/721/721
f 717/717/717 721/721/721 716/716/716
f 721/721/721 720/720/720 722/722/722
f 723/723/723 721/721/721 722/722/722
f 724/724/724 720/720/720 719/719/719
f 725/725/725 720/720/720 724/724/724
f 726/726/726 722/722/722 720/720/720
f 726/726/726 727/727/727 722/722/722
f 722/722/722 727/727/727 723/723/723
f 728/728/728 726/726/726 720/720/720
f 725/725/725 728/728/728 720/720/720
f 723/723/723 727/727/727 729/729/729
f 730/730/730 723/723/723 729/729/729
f 731/731/731 730/730/730 729/729/729
f 732/732/732 731/731/731 729/729/729
f 732/732/732 733/733/733 731/731/731
f 733/733/733 734/734/734 731/731/731
f 725/725/725 724/724/724 735/735/735
f 736/736/736 725/725/725 735/735/735
f 737/737/737 734/734/734 733/733/733
f 738/738/738 737/737/737 733/733/733
f 737/737/737 739/739/739 734/734/734
f 742/742/742 741/741/741 740/740/740
f 741/741/741 743/743/743 740/740/740
f 746/746/746 745/745/745 744/744/744
f 745/745/745 747/747/747 744/744/744
f 750/750/750 749/749/749 748/748/748
f 749/749/749 751/751/751 748/748/748
f 754/754/754 753/753/753 752/752/752
f 753/753/753 755/755/755 752/752/752
f 758/758/758 757/757/757 756/756/756
f 757/757/757 759/759/759 756/756/756
f 762/762/762 761/761/761 760/760/760
f 761/761/761 763/763/763 760/760/760
f 766/766/766 765/765/765 764/764/764
f 765/765/765 767/767/767 764/764/764
f 768/768/768 766/766/766 764/764/764
f 769/769/769 768/768/768 764/764/764
f 769/769/769 764/764/764 770/770/770
f 771/771/771 769/769/769 770/770/770
f 774/774/774 773/773/773 772/772/772
f 773/773/773 775/775/775 772/772/772
f 778/778/778 777/777/777 776/776/776
f 781/781/781 780/780/780 779/779/779
f 780/780/780 782/782/782 779/779/779
f 785/785/785 784/784/784 783/783/783
f 784/784/784 786/786/786 783/783/783
f 789/789/789 788/788/788 787/787/787
f 788/788/788 790/790/790 787/787/787
f 793/793/793 792/792/792 791/791/791
f 792/792/792 794/794/794 791/791/791
f 797/797/797 796/796/796 795/795/795
f 796/796/796 798/798/798 795/795/795
f 801/801/801 800/800/800 799/799/799
f 800/800/800 802/802/802 799/799/799
f 805/805/805 804/804/804 803/803/803
f 804/804/804 806/806/806 803/803/803
f 809/809/809 808/808/808 807/807/807
f 808/808/808 810/810/810 807/807/807
f 813/813/813 812/812/812 811/811/811
f 812/812/812 814/814/814 811/811/811
f 811/811/811 814/814/814 815/815/815
f 814/814/814 816/816/816 815/815/815
f 819/819/819 818/818/818 817/817/817
f 818/818/818 820/820/820 817/817/817
f 823/823/823 822/822/822 821/821/821
f 822/822/822 824/824/824 821/821/821
f 827/827/827 826/826/826 825/825/825
f 826/826/826 828/828/828 825/825/825
f 827/827/827 825/825/825 829/829/829
f 830/830/830 827/827/827 829/829/829
f 830/830/830 829/829/829 831/831/831
f 832/832/832 830/830/830 831/831/831
f 826/826/826 833/833/833 828/828/828
f 833/833/833 834/834/834 828/828/828
f 832/832/832 831/831/831 835/835/835
f 836/836/836 832/832/832 835/835/835
f 839/839/839 838/838/838 837/837/837
f 838/838/838 840/840/840 837/837/837
f 843/843/843 842/842/842 841/841/841
f 842/842/842 844/844/844 841/841/841
f 847/847/847 846/846/846 845/845/845
f 846/846/846 848/848/848 845/845/845
f 851/851/851 850/850/850 849/849/849
f 850/850/850 852/852/852 849/849/849
f 855/855/855 854/854/854 853/853/853
f 854/854/854 856/856/856 853/853/853
f 859/859/859 858/858/858 857/857/857
f 858/858/858 860/860/860 857/857/857
f 863/863/863 862/862/862 861/861/861
f 862/862/862 864/864/864 861/861/861
f 867/867/867 866/866/866 865/865/865
f 866/866/866 868/868/868 865/865/865
f 871/871/871 870/870/870 869/869/869
f 870/870/870 872/872/872 869/869/869
f 875/875/875 874/874/874 873/873/873
f 874/874/874 876/876/876 873/873/873
f 879/879/879 878/878/878 877/877/877
f 878/878/878 880/880/880 877/877/877
f 880/880/880 881/881/881 877/877/877
f 879/879/879 877/877/877 882/882/882
f 877/877/877 883/883/883 882/882/882
f 884/884/884 882/882/882 883/883/883
f 885/885/885 884/884/884 883/883/883
f 886/886/886 884/884/884 885/885/885
f 887/887/887 886/886/886 885/885/885
f 887/887/887 885/885/885 888/888/888
f 889/889/889 887/887/887 888/888/888
f 881/881/881 880/880/880 890/890/890
f 891/891/891 881/881/881 890/890/890
f 892/892/892 889/889/889 888/888/888
f 893/893/893 892/892/892 888/888/888
f 896/896/896 895/895/895 894/894/894
f 895/895/895 897/897/897 894/894/894
f 900/900/900 899/899/899 898/898/898
f 899/899/899 901/901/901 898/898/898
f 904/904/904 903/903/903 902/902/902
f 903/903/903 905/905/905 902/902/902
f 908/908/908 907/907/907 906/906/906
f 907/907/907 909/909/909 906/906/906
f 912/912/912 911/911/911 910/910/910
f 911/911/911 913/913/913 910/910/910
f 912/912/912 910/910/910 914/914/914
f 915/915/915 912/912/912 914/914/914
f 918/918/918 917/917/917 916/916/916
f 917/917/917 919/919/919 916/916/916
f 918/918/918 916/916/916 920/920/920
f 921/921/921 918/918/918 920/920/920
f 924/924/924 923/923/923 922/922/922
f 923/923/923 925/925/925 922/922/922
f 928/928/928 927/927/927 926/926/926
f 927/927/927 929/929/929 926/926/926
f 932/932/932 931/931/931 930/930/930
f 931/931/931 933/933/933 930/930/930
f 936/936/936 935/935/935 934/934/934
f 935/935/935 937/937/937 934/934/934
f 940/940/940 939/939/939 938/938/938
f 939/939/939 941/941/941 938/938/938
f 939/939/939 942/942/942 941/941/941
f 942/942/942 943/943/943 941/941/941
f 942/942/942 944/944/944 943/943/943
f 944/944/944 945/945/945 943/943/943
f 944/944/944 946/946/946 945/945/945
f 946/946/946 947/947/947 945/945/945
f 950/950/950 949/949/949 948/948/948
f 949/949/949 951/951/951 948/948/948
f 951/951/951 949/949/949 952/952/952
f 955/955/955 954/954/954 953/953/953
f 954/954/954 956/956/956 953/953/953
f 955/955/955 953/953/953 957/957/957
f 960/960/960 959/959/959 958/958/958
f 959/959/959 961/961/961 958/958/958
f 964/964/964 963/963/963 962/962/962
f 963/963/963 965/965/965 962/962/962
f 968/968/968 967/967/967 966/966/966
f 967/967/967 969/969/969 966/966/966
f 972/972/972 971/971/971 970/970/970
f 971/971/971 973/973/973 970/970/970
f 976/976/976 975/975/975 974/974/974
f 975/975/975 977/977/977 974/974/974
f 978/978/978 975/975/975 976/976/976
f 981/981/981 980/980/980 979/979/979
f 980/980/980 982/982/982 979/979/979
f 985/985/985 984/984/984 983/983/983
f 984/984/984 986/986/986 983/983/983
f 989/989/989 988/988/988 987/987/987
f 988/988/988 990/990/990 987/987/987
f 993/993/993 992/992/992 991/991/991
f 992/992/992 994/994/994 991/991/991
