g NQS_A_S
v 0.4303822 0.1042762 1.341538
v 0.5448511 0.04344692 1.274554
v 0.452156 0.06201417 1.375663
v 0.5328407 0.07305724 1.252786
v 0.5351258 0.01449591 1.270952
v 0.4395026 0.02537023 1.364188
v 0.4013119 0.07325859 1.299446
v 0.5094257 0.04948601 1.232706
v 0.5189011 0.0100352 1.253182
v 0.4169903 0.01872524 1.336535
v 0.5094257 0.04948601 1.232706
v 0.4002762 0.04400761 1.308463
v 0.4013119 0.07325859 1.299446
v 0.5465683 -0.003312302 1.222374
v 0.5668156 0.0002977037 1.239902
v 0.5352015 0.02805926 1.201617
v 0.5827029 0.03714205 1.245134
v 0.5464646 0.04956523 1.202812
v 0.5780057 0.06984298 1.232063
v 0.5438897 0.005621214 1.172341
v 0.5616631 -0.01575709 1.184819
v 0.5889991 -0.02212862 1.14105
v 0.5724319 -0.005182695 1.127229
v 0.6091233 -0.0003919124 1.103838
v 0.6138233 -0.01312528 1.115545
v 0.6430851 0.0687903 1.188143
v 0.5814045 -0.01689829 1.194838
v 0.6283044 -0.02907897 1.174122
v 0.6392284 -0.008189973 1.179314
v 0.6621735 -0.02764156 1.129961
v 0.6678777 -0.01104074 1.134331
v 0.6880097 -0.02306768 1.090068
v 0.6917918 -0.01002941 1.092191
v 0.6278554 0.0411984 1.176036
v 0.6670005 0.02774512 1.133216
v 0.6709026 0.06333676 1.141545
v 0.6744903 0.02856403 1.139186
v 0.6471154 0.03179596 1.185569
v 0.6709822 -0.006151056 1.13643
v 0.6921621 0.05678232 1.100605
v 0.6998646 0.02579436 1.089255
v 0.6943577 -0.001126442 1.092782
v 0.6207278 0.004881673 1.164704
v 0.6709822 -0.006151056 1.13643
v 0.6392284 -0.008189973 1.179314
v 0.5837908 -0.0044382 1.177485
v 0.6143934 -0.01339574 1.167407
v 0.5814045 -0.01689829 1.194838
v 0.6283044 -0.02907897 1.174122
v 0.6621735 -0.02764156 1.129961
v 0.6537492 -0.01322129 1.120889
v 0.6849474 -0.01570237 1.083122
v 0.6678777 -0.01104074 1.134331
v 0.6917918 -0.01002941 1.092191
v 0.6880097 -0.02306768 1.090068
v 0.6392284 -0.008189973 1.179314
v 0.6943577 -0.001126442 1.092782
v 0.6998646 0.02579436 1.089255
v 0.5352015 0.02805926 1.201617
v 0.5856521 0.004130201 1.141594
v 0.6091233 -0.0003919124 1.103838
v 0.611014 0.004688997 1.121057
v 0.5724319 -0.005182695 1.127229
v 0.5889991 -0.02212862 1.14105
v 0.6138233 -0.01312528 1.115545
v 0.5464646 0.04956523 1.202812
v 0.5438897 0.005621214 1.172341
v 0.5352015 0.02805926 1.201617
v 0.5837908 -0.0044382 1.177485
v 0.5464646 0.04956523 1.202812
v 0.5616631 -0.01575709 1.184819
v 0.5814045 -0.01689829 1.194838
v 0.6849474 -0.01570237 1.083122
v 0.6880097 -0.02306768 1.090068
v 0.6917918 -0.01002941 1.092191
v 0.6392284 -0.008189973 1.179314
v 0.6207278 0.004881673 1.164704
v 0.6537492 -0.01322129 1.120889
v 0.07732517 -0.08337107 1.584786
v 0 -0.08269722 1.584319
v 0.07720789 -0.07085276 1.600496
v 0 -0.07169472 1.600865
v 0.03969589 -0.1356085 1.321164
v 0.04721992 -0.1351651 1.272797
v 0.0471239 -0.1189744 1.273385
v 0.03994453 -0.1202278 1.420711
v 0.0394945 -0.145378 1.42199
v 0.1353572 -0.07361138 1.433761
v 0.1503661 -0.04486229 1.441816
v 0.1414329 -0.01224609 1.404948
v 0.1010162 -0.0973806 1.352897
v 0.09123281 -0.1347442 1.423733
v 0.03969589 -0.1356085 1.321164
v 0.04721992 -0.1351651 1.272797
v 0.1228522 -0.08832172 1.272827
v 0.0394945 -0.145378 1.42199
v 0.1470235 -0.01553253 1.337119
v 0.09400488 0.06066985 1.37989
v 0.1119303 0.08343095 1.463526
v 0.1545571 0.0124987 1.478177
v 0 0.1035164 1.46781
v 0 0.09165053 1.374743
v 0.156375 -0.05873664 1.520588
v 0.1604717 0.05238757 1.532705
v 0.1602642 -0.03518153 1.547096
v 0.1482349 0.1002374 1.553767
v 0.119347 0.07523906 1.271548
v 0.1641697 -0.02100194 1.270321
v 0 0.1059772 1.264982
v 0.159004 0.05317079 1.538017
v 0.06660375 0.1254282 1.581329
v 0 0.1282348 1.580466
v 0.1270808 0.1133266 1.577573
v 0.1713317 0.05226538 1.513767
v 0.1988544 0.1099844 1.532341
v 0.1744537 0.1138025 1.562465
v 0.1558045 -0.07489993 1.485285
v 0.07781518 -0.06811229 1.566045
v 0.07763428 -0.1200316 1.558335
v 0.05607331 -0.1281895 1.482571
v 0.07733655 -0.08337202 1.584787
v 0.07577965 -0.1562976 1.533526
v 0.07089402 -0.1795353 1.504647
v 0.05994118 -0.1862986 1.466505
v 0.049369 -0.1734077 1.437969
v 0.0394945 -0.145378 1.42199
v 0.03994453 -0.1202278 1.420711
v 0.07908196 -0.05562888 1.581641
v 0.07721259 -0.07084883 1.600497
v 0.07768532 -0.0615021 1.633783
v 0.07630884 -0.01817235 1.664387
v 0.07790574 -0.05408372 1.665352
v 0.08811353 0.0222634 1.734497
v 0.09355901 -0.02747436 1.705186
v 0.07630884 -0.01817235 1.664387
v 0.05411087 0.04567218 1.703894
v 0.05835168 0.07427123 1.762984
v 0 0.08922125 1.768658
v 0 0.06078145 1.701542
v 0.08963125 -0.01888092 1.685967
v 0.07790574 -0.05408372 1.665352
v 0.082882 0.02696263 1.699214
v 0.05980126 0.07340724 1.705197
v 0 0.08978712 1.707834
v 0.07790574 -0.05408372 1.665352
v 0.08963125 -0.01888092 1.685967
v 0.1303014 -0.02831001 1.657234
v 0.07790574 -0.05408372 1.665352
v 0.082882 0.02696263 1.699214
v 0.1219516 0.03230073 1.688175
v 0.1540582 0.03349012 1.674462
v 0.1530119 -0.02673688 1.639916
v 0.1466051 0.1036663 1.663202
v 0.05980126 0.07340724 1.705197
v 0.05953949 0.1089091 1.670819
v 0 0.1100116 1.672327
v 0 0.08978712 1.707834
v 0 0.1282348 1.580466
v 0.06660375 0.1254282 1.581329
v 0.07768532 -0.0615021 1.633783
v 0.1240913 -0.05253009 1.612343
v 0.07721259 -0.07084883 1.600497
v 0.1228145 -0.07422129 1.584951
v 0.07733655 -0.08337202 1.584787
v 0.1157672 -0.1123413 1.554942
v 0.1270808 0.1133266 1.577573
v 0.152006 0.1140966 1.571945
v 0.1482349 0.1002374 1.553767
v 0.1767971 0.1055268 1.624895
v 0.07763428 -0.1200316 1.558335
v 0.1188141 -0.1412666 1.534137
v 0.07577965 -0.1562976 1.533526
v 0.1214218 -0.1619039 1.506657
v 0.07089402 -0.1795353 1.504647
v 0.1539748 -0.1106149 1.488379
v 0.1191643 -0.1686438 1.470231
v 0.110832 -0.1592031 1.442094
v 0.05994118 -0.1862986 1.466505
v 0.049369 -0.1734077 1.437969
v 0.09123281 -0.1347442 1.423733
v 0.0394945 -0.145378 1.42199
v 0.1333315 -0.1126957 1.441061
v 0.1353572 -0.07361138 1.433761
v 0.1486785 -0.09866842 1.529559
v 0.156375 -0.05873664 1.520588
v 0.1437934 -0.05469495 1.578816
v 0.1602642 -0.03518153 1.547096
v 0.1558045 -0.07489993 1.485285
v 0.1483238 -0.04562816 1.592727
v 0.1800018 -0.02486733 1.619335
v 0.1634055 -0.01437228 1.553917
v 0.1948486 0.03500119 1.65704
v 0.2241647 0.04086427 1.616294
v 0.2061938 -0.01821174 1.589406
v 0.1634055 -0.01437228 1.553917
v 0.2323859 -0.01155615 1.559476
v 0.2534808 0.04672734 1.575547
v 0.203497 0.107172 1.591019
v 0.1744537 0.1138025 1.562465
v 0.230197 0.1088173 1.557143
v 0.1988544 0.1099844 1.532341
v 0.1870182 0.0005562237 1.522198
v 0.159004 0.05317079 1.538017
v 0.1602642 -0.03518153 1.547096
v 0.1713317 0.05226538 1.513767
v 0.1634055 -0.01437228 1.553917
v 0.159004 0.05317079 1.538017
v 0.1604717 0.05238757 1.532705
v 0.04892747 -0.01572158 1.768805
v 0.05630128 0.01639528 1.797105
v 0.05207811 0.0167848 1.775971
v 0 -0.04726326 1.625935
v 0.04283253 -0.02269145 1.679888
v 0.03558842 -0.05001622 1.631105
v 0 -0.03514263 1.672297
v 0.08191322 -0.01894134 1.664584
v 0.04922726 0.03666726 1.711383
v 0.07687569 -0.05366401 1.629002
v 0.07839356 -0.06902914 1.595904
v 0.03581315 -0.08153606 1.582987
v 0 -0.07295644 1.58121
v 0 -0.04273609 1.714915
v 0.030038 -0.0228247 1.7235
v 0.03916623 0.02965559 1.743467
v 0.04922726 0.03666726 1.711383
v 0.07536072 0.04713272 1.695962
v 0 0.06735795 1.711597
v 0 0.08052316 1.689761
v 0 -0.05495312 1.732261
v 0.03415667 -0.03194875 1.756962
v 0.04892747 -0.01572158 1.768805
v 0.05207811 0.0167848 1.775971
v 0.03284236 0.04560326 1.787762
v 0 0.05980841 1.79031
v 0.04922726 0.03666726 1.711383
v 0 0.0543243 1.749006
v 0.03916623 0.02965559 1.743467
v 0 0.05980841 1.79031
v -0.04922726 0.03666726 1.711383
v -0.03916623 0.02965559 1.743467
v 0 0.06735795 1.711597
v -0.07536072 0.04713272 1.695962
v 0 0.08052316 1.689761
v -0.04922726 0.03666726 1.711383
v -0.08191322 -0.01894134 1.664584
v -0.04283253 -0.02269145 1.679888
v -0.04922726 0.03666726 1.711383
v -0.03558842 -0.05001622 1.631105
v 0 -0.04726326 1.625935
v 0 -0.03514263 1.672297
v -0.07687569 -0.05366401 1.629002
v -0.07839356 -0.06902914 1.595904
v -0.03581315 -0.08153606 1.582987
v 0 -0.07295644 1.58121
v 0 -0.04273609 1.714915
v -0.030038 -0.0228247 1.7235
v 0 -0.05495312 1.732261
v -0.03415667 -0.03194875 1.756962
v -0.04892747 -0.01572158 1.768805
v -0.05207811 0.0167848 1.775971
v -0.03284236 0.04560326 1.787762
v 0 0.05980841 1.79031
v 0 -0.1086696 1.544131
v 0.03581315 -0.08153606 1.582987
v 0.009416279 -0.1093934 1.545307
v 0 -0.07295644 1.58121
v 0 -0.1169708 1.522199
v 0.005518446 -0.1229421 1.521611
v 0.02343991 -0.1389265 1.529501
v 0.026335 -0.1131616 1.550916
v 0.06057793 -0.08792841 1.576574
v 0.07839356 -0.06902914 1.595904
v 0.05555809 -0.1179567 1.554716
v 0.08541511 -0.1156888 1.555531
v 0.08392223 -0.1547143 1.530812
v 0.04723469 -0.1516382 1.530473
v 0.08016761 -0.1738081 1.502701
v 0.04393242 -0.1731116 1.505031
v 0.06605347 -0.1803218 1.466828
v 0.02895878 -0.1715956 1.472777
v 0.01859947 -0.1573238 1.50519
v 0.005163883 -0.1394085 1.498856
v 0 -0.139119 1.469977
v 0 -0.1281897 1.498404
v -0.005163883 -0.1394085 1.498856
v -0.02895878 -0.1715956 1.472777
v -0.01859947 -0.1573238 1.50519
v -0.04393242 -0.1731116 1.505031
v -0.06605347 -0.1803218 1.466828
v -0.08016761 -0.1738081 1.502701
v -0.04723469 -0.1516382 1.530473
v -0.08392223 -0.1547143 1.530812
v -0.05555809 -0.1179567 1.554716
v -0.08541511 -0.1156888 1.555531
v -0.06057793 -0.08792841 1.576574
v -0.026335 -0.1131616 1.550916
v -0.03581315 -0.08153606 1.582987
v -0.07839356 -0.06902914 1.595904
v -0.02343991 -0.1389265 1.529501
v -0.009416279 -0.1093934 1.545307
v 0 -0.1086696 1.544131
v 0 -0.07295644 1.58121
v 0 -0.1169708 1.522199
v -0.005518446 -0.1229421 1.521611
v 0 -0.1281897 1.498404
v 0.2858764 0.08310195 1.389945
v 0.235709 0.02002554 1.468559
v 0.302051 0.04764084 1.391548
v 0.2232125 0.06549515 1.4585
v 0.2683893 0.01376121 1.502102
v 0.3275327 0.02952054 1.412158
v 0.3437263 0.04152426 1.440899
v 0.2905371 0.06511323 1.520929
v 0.3467937 0.07694763 1.458585
v 0.2702777 0.1071486 1.502148
v 0.3284692 0.1108575 1.442109
v 0.3712438 0.07820294 1.44658
v 0.375721 0.041309 1.421878
v 0.3527185 0.1141761 1.424421
v 0.3946076 0.07347291 1.430222
v 0.375071 0.111248 1.405284
v 0.3497106 0.03140175 1.390471
v 0.326196 0.04834867 1.362918
v 0.3041582 0.08696394 1.362323
v 0.3276452 0.08633173 1.337991
v 0.4002762 0.04400761 1.308463
v 0.4013119 0.07325859 1.299446
v 0.4169903 0.01872524 1.336535
v 0.4395026 0.02537023 1.364188
v 0.452156 0.06201417 1.375663
v 0.4303822 0.1042762 1.341538
v 0.3293629 0.1188005 1.395169
v 0.3526768 0.1167762 1.374551
v 0.3041582 0.08696394 1.362323
v 0.2858764 0.08310195 1.389945
v 0.3046308 0.11545 1.415441
v 0.2232125 0.06549515 1.4585
v 0.2425345 0.1011527 1.476991
v 0.3276452 0.08633173 1.337991
v 0.4013119 0.07325859 1.299446
v 0.1755602 0.0522339 1.520299
v 0.1975352 0.09995966 1.531636
v 0.2242765 0.09968582 1.556036
v 0.2445424 0.04747682 1.571177
v 0.2259159 -0.001316634 1.556324
v 0.1909268 0.007456753 1.526186
v 0.1755602 0.0522339 1.520299
v 0.05549126 -0.1219173 1.337017
v 0 -0.1420778 1.414461
v 0.04452107 -0.129608 1.421969
v 0 -0.1294963 1.334767
v 0.03644451 -0.175175 1.439017
v 0 -0.1751951 1.437794
v 0.03711532 -0.1870109 1.470854
v 0 -0.183134 1.471333
v 0 -0.1768865 1.501105
v 0.0374965 -0.1807616 1.50655
v 0.07416504 -0.1785637 1.470854
v 0.07898957 -0.1698864 1.511042
v 0.05987728 -0.1692899 1.439017
v 0 -0.1249378 1.151708
v 0.0622322 -0.1199774 1.247306
v 0.06618908 -0.1161361 1.15372
v 0 -0.1288386 1.243593
v 0.05549126 -0.1219173 1.337017
v 0 -0.1294963 1.334767
v 0.09164005 -0.09372055 1.34146
v 0.1060552 -0.08224853 1.257942
v 0.1331155 -0.08470671 1.170923
v 0.1382103 -0.01089096 1.264139
v 0.1665208 -0.01141115 1.192534
v 0.1159535 -0.05256559 1.350704
v 0.1229225 -0.007400031 1.359948
v 0.1513677 0.05274658 1.19409
v 0.1665208 -0.01141115 1.192534
v 0.1382103 -0.01089096 1.264139
v 0.1144473 0.06181118 1.243772
v 0.1216743 0.1004664 1.19528
v 0.06368551 0.07805871 1.246857
v 0.06020839 0.1137612 1.19524
v 0.08926719 0.0407218 1.353855
v 0.1229225 -0.007400031 1.359948
v 0 0.07687213 1.246767
v 0 0.05790604 1.354625
v 0 0.106203 1.192119
v 0 -0.1743672 1.501105
v 0.03711532 -0.1844916 1.470854
v 0.0374965 -0.1782424 1.50655
v 0 -0.1806147 1.471333
v 0 -0.1726758 1.437794
v 0.03644451 -0.1726557 1.439017
v 0 -0.1395585 1.414461
v 0.07416504 -0.1760444 1.470854
v 0.07898957 -0.1673671 1.511042
v 0.05987728 -0.1667707 1.439017
v 0.04452107 -0.1270887 1.421969
v 0.2445424 0.04747682 1.571177
v 0.230197 0.1088173 1.557143
v 0.2242765 0.09968582 1.556036
v 0.2534808 0.04672734 1.575547
v 0.2259159 -0.001316634 1.556324
v 0.2323859 -0.01155615 1.559476
v 0.1909268 0.007456753 1.526186
v 0.1870182 0.0005562237 1.522198
v 0.1713317 0.05226538 1.513767
v 0.1755602 0.0522339 1.520299
v 0.1975352 0.09995966 1.531636
v 0.1988544 0.1099844 1.532341
v 0.1713317 0.05226538 1.513767
v 0.1755602 0.0522339 1.520299
v 0.1744537 0.1138025 1.562465
v 0.1767971 0.1055268 1.624895
v 0.152006 0.1140966 1.571945
v 0.1602642 -0.03518153 1.547096
v 0.1602642 -0.03518153 1.547096
v -0.4303822 0.1042762 1.341538
v -0.5448511 0.04344692 1.274554
v -0.5328407 0.07305724 1.252786
v -0.452156 0.06201417 1.375663
v -0.5351258 0.01449591 1.270952
v -0.4395026 0.02537023 1.364188
v -0.4013119 0.07325859 1.299446
v -0.5094257 0.04948601 1.232706
v -0.5189011 0.0100352 1.253182
v -0.4169903 0.01872524 1.336535
v -0.5094257 0.04948601 1.232706
v -0.4002762 0.04400761 1.308463
v -0.4013119 0.07325859 1.299446
v -0.5465683 -0.003312302 1.222374
v -0.5668156 0.0002977037 1.239902
v -0.5352015 0.02805926 1.201617
v -0.5827029 0.03714205 1.245134
v -0.5464646 0.04956523 1.202812
v -0.5780057 0.06984298 1.232063
v -0.5438897 0.005621214 1.172341
v -0.5616631 -0.01575709 1.184819
v -0.5889991 -0.02212862 1.14105
v -0.5724319 -0.005182695 1.127229
v -0.6091233 -0.0003919124 1.103838
v -0.6138233 -0.01312528 1.115545
v -0.6430851 0.0687903 1.188143
v -0.5814045 -0.01689829 1.194838
v -0.6283044 -0.02907897 1.174122
v -0.6392284 -0.008189973 1.179314
v -0.6621735 -0.02764156 1.129961
v -0.6678777 -0.01104074 1.134331
v -0.6880097 -0.02306768 1.090068
v -0.6917918 -0.01002941 1.092191
v -0.6278554 0.0411984 1.176036
v -0.6670005 0.02774512 1.133216
v -0.6709026 0.06333676 1.141545
v -0.6744903 0.02856403 1.139186
v -0.6471154 0.03179596 1.185569
v -0.6709822 -0.006151056 1.13643
v -0.6921621 0.05678232 1.100605
v -0.6998646 0.02579436 1.089255
v -0.6943577 -0.001126442 1.092782
v -0.6207278 0.004881673 1.164704
v -0.6709822 -0.006151056 1.13643
v -0.6392284 -0.008189973 1.179314
v -0.5837908 -0.0044382 1.177485
v -0.6143934 -0.01339574 1.167407
v -0.5814045 -0.01689829 1.194838
v -0.6283044 -0.02907897 1.174122
v -0.6621735 -0.02764156 1.129961
v -0.6537492 -0.01322129 1.120889
v -0.6849474 -0.01570237 1.083122
v -0.6678777 -0.01104074 1.134331
v -0.6917918 -0.01002941 1.092191
v -0.6880097 -0.02306768 1.090068
v -0.6392284 -0.008189973 1.179314
v -0.6943577 -0.001126442 1.092782
v -0.6998646 0.02579436 1.089255
v -0.5352015 0.02805926 1.201617
v -0.5856521 0.004130201 1.141594
v -0.6091233 -0.0003919124 1.103838
v -0.5724319 -0.005182695 1.127229
v -0.611014 0.004688997 1.121057
v -0.5889991 -0.02212862 1.14105
v -0.6138233 -0.01312528 1.115545
v -0.5464646 0.04956523 1.202812
v -0.5438897 0.005621214 1.172341
v -0.5352015 0.02805926 1.201617
v -0.5837908 -0.0044382 1.177485
v -0.5464646 0.04956523 1.202812
v -0.5616631 -0.01575709 1.184819
v -0.5814045 -0.01689829 1.194838
v -0.6849474 -0.01570237 1.083122
v -0.6917918 -0.01002941 1.092191
v -0.6880097 -0.02306768 1.090068
v -0.6392284 -0.008189973 1.179314
v -0.6537492 -0.01322129 1.120889
v -0.6207278 0.004881673 1.164704
v -0.07732517 -0.08337107 1.584786
v -0.07720789 -0.07085276 1.600496
v 0 -0.08269722 1.584319
v 0 -0.07169472 1.600865
v -0.03969589 -0.1356085 1.321164
v -0.0471239 -0.1189744 1.273385
v -0.04721992 -0.1351651 1.272797
v -0.03994453 -0.1202278 1.420711
v -0.0394945 -0.145378 1.42199
v -0.1353572 -0.07361138 1.433761
v -0.1414329 -0.01224609 1.404948
v -0.1503661 -0.04486229 1.441816
v -0.1010162 -0.0973806 1.352897
v -0.09123281 -0.1347442 1.423733
v -0.03969589 -0.1356085 1.321164
v -0.04721992 -0.1351651 1.272797
v -0.1228522 -0.08832172 1.272827
v -0.0394945 -0.145378 1.42199
v -0.1470235 -0.01553253 1.337119
v -0.09400488 0.06066985 1.37989
v -0.1119303 0.08343095 1.463526
v -0.1545571 0.0124987 1.478177
v 0 0.1035164 1.46781
v 0 0.09165053 1.374743
v -0.156375 -0.05873664 1.520588
v -0.1604717 0.05238757 1.532705
v -0.1602642 -0.03518153 1.547096
v -0.1482349 0.1002374 1.553767
v -0.119347 0.07523906 1.271548
v -0.1641697 -0.02100194 1.270321
v 0 0.1059772 1.264982
v -0.159004 0.05317079 1.538017
v -0.06660375 0.1254282 1.581329
v 0 0.1282348 1.580466
v -0.1270808 0.1133266 1.577573
v -0.1713317 0.05226538 1.513767
v -0.1988544 0.1099844 1.532341
v -0.1744537 0.1138025 1.562465
v -0.1558045 -0.07489993 1.485285
v -0.07781518 -0.06811229 1.566045
v -0.07763428 -0.1200316 1.558335
v -0.07733655 -0.08337202 1.584787
v -0.05607331 -0.1281895 1.482571
v -0.07577965 -0.1562976 1.533526
v -0.07089402 -0.1795353 1.504647
v -0.05994118 -0.1862986 1.466505
v -0.049369 -0.1734077 1.437969
v -0.0394945 -0.145378 1.42199
v -0.03994453 -0.1202278 1.420711
v -0.07908196 -0.05562888 1.581641
v -0.07721259 -0.07084883 1.600497
v -0.07768532 -0.0615021 1.633783
v -0.07630884 -0.01817235 1.664387
v -0.07790574 -0.05408372 1.665352
v -0.08811353 0.0222634 1.734497
v -0.07630884 -0.01817235 1.664387
v -0.09355901 -0.02747436 1.705186
v -0.05411087 0.04567218 1.703894
v -0.05835168 0.07427123 1.762984
v 0 0.08922125 1.768658
v 0 0.06078145 1.701542
v -0.08963125 -0.01888092 1.685967
v -0.07790574 -0.05408372 1.665352
v -0.082882 0.02696263 1.699214
v -0.05980126 0.07340724 1.705197
v 0 0.08978712 1.707834
v -0.07790574 -0.05408372 1.665352
v -0.08963125 -0.01888092 1.685967
v -0.07790574 -0.05408372 1.665352
v -0.1303014 -0.02831001 1.657234
v -0.082882 0.02696263 1.699214
v -0.1219516 0.03230073 1.688175
v -0.1540582 0.03349012 1.674462
v -0.1530119 -0.02673688 1.639916
v -0.1466051 0.1036663 1.663202
v -0.05980126 0.07340724 1.705197
v -0.05953949 0.1089091 1.670819
v 0 0.1100116 1.672327
v 0 0.08978712 1.707834
v 0 0.1282348 1.580466
v -0.06660375 0.1254282 1.581329
v -0.07768532 -0.0615021 1.633783
v -0.1240913 -0.05253009 1.612343
v -0.07721259 -0.07084883 1.600497
v -0.1228145 -0.07422129 1.584951
v -0.07733655 -0.08337202 1.584787
v -0.1157672 -0.1123413 1.554942
v -0.1270808 0.1133266 1.577573
v -0.152006 0.1140966 1.571945
v -0.1482349 0.1002374 1.553767
v -0.1767971 0.1055268 1.624895
v -0.07763428 -0.1200316 1.558335
v -0.1188141 -0.1412666 1.534137
v -0.07577965 -0.1562976 1.533526
v -0.1214218 -0.1619039 1.506657
v -0.07089402 -0.1795353 1.504647
v -0.1539748 -0.1106149 1.488379
v -0.1191643 -0.1686438 1.470231
v -0.110832 -0.1592031 1.442094
v -0.05994118 -0.1862986 1.466505
v -0.049369 -0.1734077 1.437969
v -0.09123281 -0.1347442 1.423733
v -0.0394945 -0.145378 1.42199
v -0.1333315 -0.1126957 1.441061
v -0.1353572 -0.07361138 1.433761
v -0.1486785 -0.09866842 1.529559
v -0.156375 -0.05873664 1.520588
v -0.1437934 -0.05469495 1.578816
v -0.1602642 -0.03518153 1.547096
v -0.1558045 -0.07489993 1.485285
v -0.1483238 -0.04562816 1.592727
v -0.1800018 -0.02486733 1.619335
v -0.1634055 -0.01437228 1.553917
v -0.1948486 0.03500119 1.65704
v -0.2241647 0.04086427 1.616294
v -0.2061938 -0.01821174 1.589406
v -0.1634055 -0.01437228 1.553917
v -0.2323859 -0.01155615 1.559476
v -0.2534808 0.04672734 1.575547
v -0.203497 0.107172 1.591019
v -0.1744537 0.1138025 1.562465
v -0.230197 0.1088173 1.557143
v -0.1988544 0.1099844 1.532341
v -0.1870182 0.0005562237 1.522198
v -0.159004 0.05317079 1.538017
v -0.1602642 -0.03518153 1.547096
v -0.1634055 -0.01437228 1.553917
v -0.1713317 0.05226538 1.513767
v -0.1604717 0.05238757 1.532705
v -0.159004 0.05317079 1.538017
v -0.04892747 -0.01572158 1.768805
v -0.05207811 0.0167848 1.775971
v -0.05630128 0.01639528 1.797105
v 0 0.05980841 1.79031
v -0.03916623 0.02965559 1.743467
v -0.2858764 0.08310195 1.389945
v -0.235709 0.02002554 1.468559
v -0.2232125 0.06549515 1.4585
v -0.302051 0.04764084 1.391548
v -0.2683893 0.01376121 1.502102
v -0.3275327 0.02952054 1.412158
v -0.3437263 0.04152426 1.440899
v -0.2905371 0.06511323 1.520929
v -0.3467937 0.07694763 1.458585
v -0.2702777 0.1071486 1.502148
v -0.3284692 0.1108575 1.442109
v -0.3712438 0.07820294 1.44658
v -0.375721 0.041309 1.421878
v -0.3527185 0.1141761 1.424421
v -0.3946076 0.07347291 1.430222
v -0.375071 0.111248 1.405284
v -0.3497106 0.03140175 1.390471
v -0.326196 0.04834867 1.362918
v -0.3041582 0.08696394 1.362323
v -0.3276452 0.08633173 1.337991
v -0.4002762 0.04400761 1.308463
v -0.4013119 0.07325859 1.299446
v -0.4169903 0.01872524 1.336535
v -0.4395026 0.02537023 1.364188
v -0.452156 0.06201417 1.375663
v -0.4303822 0.1042762 1.341538
v -0.3293629 0.1188005 1.395169
v -0.3526768 0.1167762 1.374551
v -0.3041582 0.08696394 1.362323
v -0.2858764 0.08310195 1.389945
v -0.3046308 0.11545 1.415441
v -0.2232125 0.06549515 1.4585
v -0.2425345 0.1011527 1.476991
v -0.3276452 0.08633173 1.337991
v -0.4013119 0.07325859 1.299446
v -0.1755602 0.0522339 1.520299
v -0.1975352 0.09995966 1.531636
v -0.2242765 0.09968582 1.556036
v -0.2445424 0.04747682 1.571177
v -0.2259159 -0.001316634 1.556324
v -0.1909268 0.007456753 1.526186
v -0.1755602 0.0522339 1.520299
v -0.05549126 -0.1219173 1.337017
v 0 -0.1420778 1.414461
v 0 -0.1294963 1.334767
v -0.04452107 -0.129608 1.421969
v -0.03644451 -0.175175 1.439017
v 0 -0.1751951 1.437794
v -0.03711532 -0.1870109 1.470854
v 0 -0.183134 1.471333
v 0 -0.1768865 1.501105
v -0.0374965 -0.1807616 1.50655
v -0.07416504 -0.1785637 1.470854
v -0.07898957 -0.1698864 1.511042
v -0.05987728 -0.1692899 1.439017
v 0 -0.1249378 1.151708
v -0.0622322 -0.1199774 1.247306
v 0 -0.1288386 1.243593
v -0.06618908 -0.1161361 1.15372
v -0.05549126 -0.1219173 1.337017
v 0 -0.1294963 1.334767
v -0.09164005 -0.09372055 1.34146
v -0.1060552 -0.08224853 1.257942
v -0.1331155 -0.08470671 1.170923
v -0.1382103 -0.01089096 1.264139
v -0.1665208 -0.01141115 1.192534
v -0.1159535 -0.05256559 1.350704
v -0.1229225 -0.007400031 1.359948
v -0.1513677 0.05274658 1.19409
v -0.1382103 -0.01089096 1.264139
v -0.1665208 -0.01141115 1.192534
v -0.1144473 0.06181118 1.243772
v -0.1216743 0.1004664 1.19528
v -0.06368551 0.07805871 1.246857
v -0.06020839 0.1137612 1.19524
v -0.08926719 0.0407218 1.353855
v -0.1229225 -0.007400031 1.359948
v 0 0.07687213 1.246767
v 0 0.05790604 1.354625
v 0 0.106203 1.192119
v 0 -0.1743672 1.501105
v -0.03711532 -0.1844916 1.470854
v 0 -0.1806147 1.471333
v -0.0374965 -0.1782424 1.50655
v 0 -0.1726758 1.437794
v -0.03644451 -0.1726557 1.439017
v 0 -0.1395585 1.414461
v -0.07416504 -0.1760444 1.470854
v -0.07898957 -0.1673671 1.511042
v -0.05987728 -0.1667707 1.439017
v -0.04452107 -0.1270887 1.421969
v -0.2445424 0.04747682 1.571177
v -0.230197 0.1088173 1.557143
v -0.2534808 0.04672734 1.575547
v -0.2242765 0.09968582 1.556036
v -0.2259159 -0.001316634 1.556324
v -0.2323859 -0.01155615 1.559476
v -0.1909268 0.007456753 1.526186
v -0.1870182 0.0005562237 1.522198
v -0.1713317 0.05226538 1.513767
v -0.1755602 0.0522339 1.520299
v -0.1975352 0.09995966 1.531636
v -0.1988544 0.1099844 1.532341
v -0.1713317 0.05226538 1.513767
v -0.1755602 0.0522339 1.520299
v -0.1744537 0.1138025 1.562465
v -0.152006 0.1140966 1.571945
v -0.1767971 0.1055268 1.624895
v -0.1602642 -0.03518153 1.547096
v -0.1602642 -0.03518153 1.547096
vt 0.1561361 0.4197033
vt 0.2176205 0.4483858
vt 0.1557426 0.4379367
vt 0.2213452 0.4160537
vt 0.2172481 0.4724438
vt 0.1569592 0.4617276
vt 0.1572616 0.3994401
vt 0.2134309 0.4067284
vt 0.215261 0.4950927
vt 0.1561419 0.4842132
vt 0.2119852 0.5123525
vt 0.1551932 0.5024883
vt 0.1531708 0.5264924
vt 0.2386984 0.4981997
vt 0.239952 0.4791974
vt 0.2343446 0.5194441
vt 0.2397763 0.4545604
vt 0.2430695 0.4075517
vt 0.2384585 0.4206209
vt 0.2483934 0.5200019
vt 0.2480731 0.5077637
vt 0.2643011 0.507339
vt 0.2646216 0.519577
vt 0.2802435 0.5191681
vt 0.2799233 0.5069299
vt 0.2693779 0.4514992
vt 0.2478858 0.5006143
vt 0.2753811 0.4957677
vt 0.2750778 0.4841833
vt 0.2992193 0.4951438
vt 0.298969 0.4855886
vt 0.3308908 0.4943142
vt 0.3306404 0.4847593
vt 0.2713545 0.4360709
vt 0.3013935 0.4374352
vt 0.3022801 0.4508727
vt 0.301043 0.4664265
vt 0.2702669 0.467
vt 0.298901 0.48299
vt 0.3296538 0.4470787
vt 0.330165 0.4666011
vt 0.3305724 0.4821606
vt 0.2742774 0.4207916
vt 0.2973219 0.422685
vt 0.2837215 0.41952
vt 0.2539336 0.4078282
vt 0.2733226 0.4107224
vt 0.2600271 0.4054642
vt 0.2796914 0.4026613
vt 0.2968457 0.4045
vt 0.3025709 0.4104511
vt 0.3275261 0.4094219
vt 0.2971906 0.4176706
vt 0.328862 0.4168413
vt 0.328517 0.4036707
vt 0.2837215 0.41952
vt 0.3289934 0.4218588
vt 0.3292829 0.4329182
vt 0.2244745 0.4062787
vt 0.3133032 0.5078341
vt 0.3309761 0.4975764
vt 0.3303708 0.5077692
vt 0.3082415 0.4981718
vt 0.3086907 0.514614
vt 0.3314068 0.5140189
vt 0.2918805 0.5045401
vt 0.2917396 0.498604
vt 0.2743979 0.4990582
vt 0.2920684 0.5108582
vt 0.2918805 0.5045401
vt 0.2948161 0.5178427
vt 0.2836459 0.5143958
vt 0.3275261 0.4094219
vt 0.328517 0.4036707
vt 0.328862 0.4168413
vt 0.2837215 0.41952
vt 0.2742774 0.4207916
vt 0.3025709 0.4104511
vt 0.3826986 0.9201325
vt 0.4771146 0.9171354
vt 0.3829893 0.9476562
vt 0.4755745 0.9452389
vt 0.3967826 0.4487861
vt 0.384469 0.3924064
vt 0.3538091 0.4087556
vt 0.3765118 0.5174726
vt 0.4103569 0.5369216
vt 0.5097688 0.5396556
vt 0.5356237 0.5481651
vt 0.5651187 0.4995976
vt 0.4505469 0.4743669
vt 0.4520767 0.5332575
vt 0.3967826 0.4487861
vt 0.384469 0.3924064
vt 0.450713 0.3896798
vt 0.4103569 0.5369216
vt 0.560717 0.4483517
vt 0.6449057 0.4896604
vt 0.6710503 0.5623569
vt 0.5845163 0.5841812
vt 0.7619305 0.5374207
vt 0.7598705 0.4764369
vt 0.5316693 0.6164403
vt 0.601024 0.6254391
vt 0.5457428 0.6396626
vt 0.6435797 0.6445558
vt 0.6362473 0.3982705
vt 0.5498275 0.3770855
vt 0.7606688 0.4085812
vt 0.6021138 0.628413
vt 0.7391503 0.6518371
vt 0.7619305 0.6334116
vt 0.6857395 0.6565564
vt 0.5758001 0.6330353
vt 0.5907373 0.6484853
vt 0.6497609 0.6516703
vt 0.5186837 0.5860188
vt 0.9509013 0.8564735
vt 0.9550335 0.8533198
vt 0.9519303 0.8461384
vt 0.9530666 0.8572358
vt 0.9570194 0.8494507
vt 0.9576356 0.8458045
vt 0.9562892 0.842057
vt 0.9536997 0.8400832
vt 0.9503266 0.8400254
vt 0.948184 0.8410366
vt 0.9505919 0.8584298
vt 0.952821 0.8592976
vt 0.9531651 0.8628993
vt 0.9520639 0.8682942
vt 0.9534923 0.8663217
vt 0.9145021 0.7061391
vt 0.8855771 0.7061391
vt 0.8867159 0.7282355
vt 0.9389599 0.7282355
vt 0.9529153 0.7061391
vt 0.9786448 0.7061391
vt 0.9786448 0.7282355
vt 0.8821862 0.6895624
vt 0.871989 0.6904842
vt 0.9114541 0.6895624
vt 0.9467123 0.6895624
vt 0.9786448 0.6895624
vt 0.8723277 0.7282355
vt 0.7749346 0.990903
vt 0.757987 0.9518906
vt 0.7496613 0.9909928
vt 0.8150459 0.9930116
vt 0.8144731 0.9660772
vt 0.8108064 0.9408739
vt 0.752673 0.9245178
vt 0.8532536 0.9277834
vt 0.8991705 0.9937972
vt 0.9402323 0.9648036
vt 0.9871293 0.967275
vt 0.9850456 0.9946901
vt 0.9938006 0.8910903
vt 0.9374662 0.88876
vt 0.7242349 0.9824252
vt 0.7200773 0.9413643
vt 0.6978032 0.9751909
vt 0.6984755 0.9299247
vt 0.6836463 0.9734676
vt 0.6513606 0.9416584
vt 0.9155404 0.8907201
vt 0.8722008 0.8713502
vt 0.9045777 0.8553362
vt 0.8536953 0.8910572
vt 0.6478806 0.9754223
vt 0.6180764 0.9383029
vt 0.6027245 0.9782343
vt 0.5884198 0.9316627
vt 0.5600351 0.9728922
vt 0.6102964 0.8768439
vt 0.5598847 0.9161925
vt 0.5398935 0.8985772
vt 0.5189588 0.9557984
vt 0.4909511 0.9312908
vt 0.5152687 0.8750786
vt 0.4712476 0.8999887
vt 0.5652035 0.8558861
vt 0.5756175 0.8207487
vt 0.645982 0.8960241
vt 0.6659589 0.8634436
vt 0.7053162 0.9098384
vt 0.6905344 0.8904799
vt 0.6272892 0.8476018
vt 0.733196 0.916716
vt 0.7463576 0.891987
vt 0.6974651 0.8740738
vt 0.8061479 0.9088539
vt 0.7978472 0.8682562
vt 0.743371 0.8657818
vt 0.6974651 0.8740738
vt 0.7403845 0.8395766
vt 0.7895464 0.8276585
vt 0.8540858 0.8585787
vt 0.893176 0.8505001
vt 0.8544763 0.8261003
vt 0.9141511 0.82965
vt 0.6977631 0.8397836
vt 0.6672843 0.8410642
vt 0.6905344 0.8904799
vt 0.6879311 0.8333447
vt 0.6974651 0.8740738
vt 0.6672843 0.8410642
vt 0.6653914 0.8425628
vt 0.7369016 0.1251125
vt 0.714673 0.1783737
vt 0.741485 0.1691924
vt 0.4398336 0.5954129
vt 0.4805359 0.6467135
vt 0.4732156 0.5956745
vt 0.4398336 0.6339418
vt 0.5222622 0.6369976
vt 0.530325 0.6913684
vt 0.5136648 0.5937651
vt 0.5032047 0.5465887
vt 0.4781105 0.5439086
vt 0.4398336 0.5439086
vt 0.4398336 0.679153
vt 0.4654692 0.6898368
vt 0.5167053 0.7079083
vt 0.530325 0.6913684
vt 0.5470065 0.6829804
vt 0.5590643 0.7170869
vt 0.5699531 0.711041
vt 0.4398336 0.7271458
vt 0.4722215 0.7278178
vt 0.4897292 0.7281235
vt 0.5099751 0.7284768
vt 0.5191645 0.7318459
vt 0.5344129 0.737394
vt 0.530325 0.6913684
vt 0.5445022 0.7290002
vt 0.5167053 0.7079083
vt 0.5344129 0.737394
vt 0.530325 0.6913684
vt 0.5167053 0.7079083
vt 0.5590643 0.7170869
vt 0.5470065 0.6829804
vt 0.5699531 0.711041
vt 0.530325 0.6913684
vt 0.5222622 0.6369976
vt 0.4805359 0.6467135
vt 0.530325 0.6913684
vt 0.4732156 0.5956745
vt 0.4398336 0.5954129
vt 0.4398336 0.6339418
vt 0.5136648 0.5937651
vt 0.5032047 0.5465887
vt 0.4781105 0.5439086
vt 0.4398336 0.5439086
vt 0.4398336 0.679153
vt 0.4654692 0.6898368
vt 0.4398336 0.7271458
vt 0.4722215 0.7278178
vt 0.4897292 0.7281235
vt 0.5099751 0.7284768
vt 0.5191645 0.7318459
vt 0.5344129 0.737394
vt 0.1217912 0.9959532
vt 0.02325964 0.9257598
vt 0.1176916 0.9753823
vt 0.006486073 0.993883
vt 0.1754026 0.996421
vt 0.1857443 0.9774479
vt 0.1793384 0.9281589
vt 0.1091437 0.9369727
vt 0.03346078 0.8748528
vt 0.01157002 0.8531579
vt 0.1027748 0.8760984
vt 0.0927946 0.8288501
vt 0.1668449 0.8195187
vt 0.1811868 0.87505
vt 0.2315143 0.816099
vt 0.2428264 0.8643868
vt 0.3103389 0.8139823
vt 0.3070931 0.8802009
vt 0.2429751 0.9193491
vt 0.2490036 0.9637079
vt 0.3145079 0.975269
vt 0.2413501 0.9929857
vt 0.2490036 0.9637079
vt 0.3070931 0.8802009
vt 0.2429751 0.9193491
vt 0.2428264 0.8643868
vt 0.3103389 0.8139823
vt 0.2315143 0.816099
vt 0.1811868 0.87505
vt 0.1668449 0.8195187
vt 0.1027748 0.8760984
vt 0.0927946 0.8288501
vt 0.03346078 0.8748528
vt 0.1091437 0.9369727
vt 0.02325964 0.9257598
vt 0.01157002 0.8531579
vt 0.1793384 0.9281589
vt 0.1176916 0.9753823
vt 0.1217912 0.9959532
vt 0.006486073 0.993883
vt 0.1754026 0.996421
vt 0.1857443 0.9774479
vt 0.2413501 0.9929857
vt 0.5210528 0.2446257
vt 0.5639112 0.2653183
vt 0.5184459 0.2616819
vt 0.5600452 0.2448556
vt 0.5658582 0.2857375
vt 0.518041 0.2785259
vt 0.5215596 0.2946749
vt 0.5628693 0.3116823
vt 0.5251755 0.3134438
vt 0.5614011 0.3338799
vt 0.5251527 0.3333007
vt 0.513044 0.3132782
vt 0.5044087 0.295944
vt 0.512508 0.3329849
vt 0.5008755 0.3117042
vt 0.5001845 0.3325487
vt 0.5035256 0.2778237
vt 0.5024692 0.2605094
vt 0.5085821 0.2423666
vt 0.494963 0.2420358
vt 0.4626955 0.261774
vt 0.4594269 0.2490306
vt 0.4648081 0.2787717
vt 0.4657969 0.293461
vt 0.4664011 0.3099521
vt 0.463628 0.3361004
vt 0.5106491 0.3490013
vt 0.4976234 0.3487844
vt 0.5077607 0.3714446
vt 0.5222546 0.3697749
vt 0.5239184 0.3498627
vt 0.5628513 0.3726667
vt 0.5611734 0.3480023
vt 0.4923115 0.3714715
vt 0.455618 0.3619622
vt 0.6005509 0.373391
vt 0.595751 0.3461373
vt 0.5981944 0.3341367
vt 0.6064416 0.3096234
vt 0.6101373 0.2842036
vt 0.6016363 0.2629734
vt 0.5961722 0.2485843
vt 0.9645599 0.735913
vt 0.7892377 0.8151226
vt 0.7918329 0.7376884
vt 0.9681932 0.8151226
vt 0.7093547 0.7514078
vt 0.7070431 0.8151226
vt 0.6447448 0.7484931
vt 0.639421 0.8151226
vt 0.5844749 0.8151226
vt 0.5786707 0.7470717
vt 0.6466937 0.6698977
vt 0.5797141 0.6672341
vt 0.7122684 0.6720815
vt 0.005582581 0.38705
vt 0.04705219 0.4462256
vt 0.04812996 0.3859397
vt 0.008896467 0.4461587
vt 0.04859262 0.5088418
vt 0.01229971 0.5078927
vt 0.07847018 0.5111421
vt 0.08945455 0.4502788
vt 0.09551778 0.3931486
vt 0.1445493 0.4549727
vt 0.1511469 0.4084822
vt 0.1119875 0.5168234
vt 0.1430083 0.5223551
vt 0.4729034 0.7335519
vt 0.4333177 0.7338104
vt 0.4384057 0.7777464
vt 0.4881958 0.7735427
vt 0.506785 0.7383584
vt 0.5174032 0.7846134
vt 0.536447 0.7512261
vt 0.4721501 0.8464873
vt 0.4366862 0.839396
vt 0.5507667 0.8009492
vt 0.5233294 0.8631321
vt 0.5690856 0.7665601
vt 0.5844749 0.8151226
vt 0.6447448 0.7484931
vt 0.5786707 0.7470717
vt 0.639421 0.8151226
vt 0.7070431 0.8151226
vt 0.7093547 0.7514078
vt 0.7892377 0.8151226
vt 0.6466937 0.6698977
vt 0.5797141 0.6672341
vt 0.7122684 0.6720815
vt 0.7918329 0.7376884
vt 0.6064416 0.3096234
vt 0.5981944 0.3341367
vt 0.5981944 0.3341367
vt 0.6064416 0.3096234
vt 0.6101373 0.2842036
vt 0.6101373 0.2842036
vt 0.6016363 0.2629734
vt 0.6016363 0.2629734
vt 0.5961722 0.2485843
vt 0.5961722 0.2485843
vt 0.595751 0.3461373
vt 0.595751 0.3461373
vt 0.6005509 0.373391
vt 0.6005509 0.373391
vt 0.893176 0.8505001
vt 0.8536953 0.8910572
vt 0.8722008 0.8713502
vt 0.6905344 0.8904799
vt 0.6905344 0.8904799
vt 0.1561361 0.4197033
vt 0.2176205 0.4483858
vt 0.2213452 0.4160537
vt 0.1557426 0.4379367
vt 0.2172481 0.4724438
vt 0.1569592 0.4617276
vt 0.1572616 0.3994401
vt 0.2134309 0.4067284
vt 0.215261 0.4950927
vt 0.1561419 0.4842132
vt 0.2119852 0.5123525
vt 0.1551932 0.5024883
vt 0.1531708 0.5264924
vt 0.2386984 0.4981997
vt 0.239952 0.4791974
vt 0.2343446 0.5194441
vt 0.2397763 0.4545604
vt 0.2430695 0.4075517
vt 0.2384585 0.4206209
vt 0.2483934 0.5200019
vt 0.2480731 0.5077637
vt 0.2643011 0.507339
vt 0.2646216 0.519577
vt 0.2802435 0.5191681
vt 0.2799233 0.5069299
vt 0.2693779 0.4514992
vt 0.2478858 0.5006143
vt 0.2753811 0.4957677
vt 0.2750778 0.4841833
vt 0.2992193 0.4951438
vt 0.298969 0.4855886
vt 0.3308908 0.4943142
vt 0.3306404 0.4847593
vt 0.2713545 0.4360709
vt 0.3013935 0.4374352
vt 0.3022801 0.4508727
vt 0.301043 0.4664265
vt 0.2702669 0.467
vt 0.298901 0.48299
vt 0.3296538 0.4470787
vt 0.330165 0.4666011
vt 0.3305724 0.4821606
vt 0.2742774 0.4207916
vt 0.2973219 0.422685
vt 0.2837215 0.41952
vt 0.2539336 0.4078282
vt 0.2733226 0.4107224
vt 0.2600271 0.4054642
vt 0.2796914 0.4026613
vt 0.2968457 0.4045
vt 0.3025709 0.4104511
vt 0.3275261 0.4094219
vt 0.2971906 0.4176706
vt 0.328862 0.4168413
vt 0.328517 0.4036707
vt 0.2837215 0.41952
vt 0.3289934 0.4218588
vt 0.3292829 0.4329182
vt 0.2244745 0.4062787
vt 0.3133032 0.5078341
vt 0.3309761 0.4975764
vt 0.3082415 0.4981718
vt 0.3303708 0.5077692
vt 0.3086907 0.514614
vt 0.3314068 0.5140189
vt 0.2918805 0.5045401
vt 0.2917396 0.498604
vt 0.2743979 0.4990582
vt 0.2920684 0.5108582
vt 0.2918805 0.5045401
vt 0.2948161 0.5178427
vt 0.2836459 0.5143958
vt 0.3275261 0.4094219
vt 0.328862 0.4168413
vt 0.328517 0.4036707
vt 0.2837215 0.41952
vt 0.3025709 0.4104511
vt 0.2742774 0.4207916
vt 0.3826986 0.9201325
vt 0.3829893 0.9476562
vt 0.4771146 0.9171354
vt 0.4755745 0.9452389
vt 0.3967826 0.4487861
vt 0.3538091 0.4087556
vt 0.384469 0.3924064
vt 0.3765118 0.5174726
vt 0.4103569 0.5369216
vt 0.5097688 0.5396556
vt 0.5651187 0.4995976
vt 0.5356237 0.5481651
vt 0.4505469 0.4743669
vt 0.4520767 0.5332575
vt 0.3967826 0.4487861
vt 0.384469 0.3924064
vt 0.450713 0.3896798
vt 0.4103569 0.5369216
vt 0.560717 0.4483517
vt 0.6449057 0.4896604
vt 0.6710503 0.5623569
vt 0.5845163 0.5841812
vt 0.7619305 0.5374207
vt 0.7598705 0.4764369
vt 0.5316693 0.6164403
vt 0.601024 0.6254391
vt 0.5457428 0.6396626
vt 0.6435797 0.6445558
vt 0.6362473 0.3982705
vt 0.5498275 0.3770855
vt 0.7606688 0.4085812
vt 0.6021138 0.628413
vt 0.7391503 0.6518371
vt 0.7619305 0.6334116
vt 0.6857395 0.6565564
vt 0.5758001 0.6330353
vt 0.5907373 0.6484853
vt 0.6497609 0.6516703
vt 0.5186837 0.5860188
vt 0.9509013 0.8564735
vt 0.9550335 0.8533198
vt 0.9530666 0.8572358
vt 0.9519303 0.8461384
vt 0.9570194 0.8494507
vt 0.9576356 0.8458045
vt 0.9562892 0.842057
vt 0.9536997 0.8400832
vt 0.9503266 0.8400254
vt 0.948184 0.8410366
vt 0.9505919 0.8584298
vt 0.952821 0.8592976
vt 0.9531651 0.8628993
vt 0.9520639 0.8682942
vt 0.9534923 0.8663217
vt 0.9145021 0.7061391
vt 0.8867159 0.7282355
vt 0.8855771 0.7061391
vt 0.9389599 0.7282355
vt 0.9529153 0.7061391
vt 0.9786448 0.7061391
vt 0.9786448 0.7282355
vt 0.8821862 0.6895624
vt 0.871989 0.6904842
vt 0.9114541 0.6895624
vt 0.9467123 0.6895624
vt 0.9786448 0.6895624
vt 0.8723277 0.7282355
vt 0.7749346 0.990903
vt 0.7496613 0.9909928
vt 0.757987 0.9518906
vt 0.8150459 0.9930116
vt 0.8144731 0.9660772
vt 0.8108064 0.9408739
vt 0.752673 0.9245178
vt 0.8532536 0.9277834
vt 0.8991705 0.9937972
vt 0.9402323 0.9648036
vt 0.9871293 0.967275
vt 0.9850456 0.9946901
vt 0.9938006 0.8910903
vt 0.9374662 0.88876
vt 0.7242349 0.9824252
vt 0.7200773 0.9413643
vt 0.6978032 0.9751909
vt 0.6984755 0.9299247
vt 0.6836463 0.9734676
vt 0.6513606 0.9416584
vt 0.9155404 0.8907201
vt 0.8722008 0.8713502
vt 0.9045777 0.8553362
vt 0.8536953 0.8910572
vt 0.6478806 0.9754223
vt 0.6180764 0.9383029
vt 0.6027245 0.9782343
vt 0.5884198 0.9316627
vt 0.5600351 0.9728922
vt 0.6102964 0.8768439
vt 0.5598847 0.9161925
vt 0.5398935 0.8985772
vt 0.5189588 0.9557984
vt 0.4909511 0.9312908
vt 0.5152687 0.8750786
vt 0.4712476 0.8999887
vt 0.5652035 0.8558861
vt 0.5756175 0.8207487
vt 0.645982 0.8960241
vt 0.6659589 0.8634436
vt 0.7053162 0.9098384
vt 0.6905344 0.8904799
vt 0.6272892 0.8476018
vt 0.733196 0.916716
vt 0.7463576 0.891987
vt 0.6974651 0.8740738
vt 0.8061479 0.9088539
vt 0.7978472 0.8682562
vt 0.743371 0.8657818
vt 0.6974651 0.8740738
vt 0.7403845 0.8395766
vt 0.7895464 0.8276585
vt 0.8540858 0.8585787
vt 0.893176 0.8505001
vt 0.8544763 0.8261003
vt 0.9141511 0.82965
vt 0.6977631 0.8397836
vt 0.6672843 0.8410642
vt 0.6905344 0.8904799
vt 0.6974651 0.8740738
vt 0.6879311 0.8333447
vt 0.6653914 0.8425628
vt 0.6672843 0.8410642
vt 0.7369016 0.1251125
vt 0.741485 0.1691924
vt 0.714673 0.1783737
vt 0.5344129 0.737394
vt 0.5167053 0.7079083
vt 0.5210528 0.2446257
vt 0.5639112 0.2653183
vt 0.5600452 0.2448556
vt 0.5184459 0.2616819
vt 0.5658582 0.2857375
vt 0.518041 0.2785259
vt 0.5215596 0.2946749
vt 0.5628693 0.3116823
vt 0.5251755 0.3134438
vt 0.5614011 0.3338799
vt 0.5251527 0.3333007
vt 0.513044 0.3132782
vt 0.5044087 0.295944
vt 0.512508 0.3329849
vt 0.5008755 0.3117042
vt 0.5001845 0.3325487
vt 0.5035256 0.2778237
vt 0.5024692 0.2605094
vt 0.5085821 0.2423666
vt 0.494963 0.2420358
vt 0.4626955 0.261774
vt 0.4594269 0.2490306
vt 0.4648081 0.2787717
vt 0.4657969 0.293461
vt 0.4664011 0.3099521
vt 0.463628 0.3361004
vt 0.5106491 0.3490013
vt 0.4976234 0.3487844
vt 0.5077607 0.3714446
vt 0.5222546 0.3697749
vt 0.5239184 0.3498627
vt 0.5628513 0.3726667
vt 0.5611734 0.3480023
vt 0.4923115 0.3714715
vt 0.455618 0.3619622
vt 0.6005509 0.373391
vt 0.595751 0.3461373
vt 0.5981944 0.3341367
vt 0.6064416 0.3096234
vt 0.6101373 0.2842036
vt 0.6016363 0.2629734
vt 0.5961722 0.2485843
vt 0.9645599 0.735913
vt 0.7892377 0.8151226
vt 0.9681932 0.8151226
vt 0.7918329 0.7376884
vt 0.7093547 0.7514078
vt 0.7070431 0.8151226
vt 0.6447448 0.7484931
vt 0.639421 0.8151226
vt 0.5844749 0.8151226
vt 0.5786707 0.7470717
vt 0.6466937 0.6698977
vt 0.5797141 0.6672341
vt 0.7122684 0.6720815
vt 0.005582581 0.38705
vt 0.04705219 0.4462256
vt 0.008896467 0.4461587
vt 0.04812996 0.3859397
vt 0.04859262 0.5088418
vt 0.01229971 0.5078927
vt 0.07847018 0.5111421
vt 0.08945455 0.4502788
vt 0.09551778 0.3931486
vt 0.1445493 0.4549727
vt 0.1511469 0.4084822
vt 0.1119875 0.5168234
vt 0.1430083 0.5223551
vt 0.4729034 0.7335519
vt 0.4384057 0.7777464
vt 0.4333177 0.7338104
vt 0.4881958 0.7735427
vt 0.506785 0.7383584
vt 0.5174032 0.7846134
vt 0.536447 0.7512261
vt 0.4721501 0.8464873
vt 0.4366862 0.839396
vt 0.5507667 0.8009492
vt 0.5233294 0.8631321
vt 0.5690856 0.7665601
vt 0.5844749 0.8151226
vt 0.6447448 0.7484931
vt 0.639421 0.8151226
vt 0.5786707 0.7470717
vt 0.7070431 0.8151226
vt 0.7093547 0.7514078
vt 0.7892377 0.8151226
vt 0.6466937 0.6698977
vt 0.5797141 0.6672341
vt 0.7122684 0.6720815
vt 0.7918329 0.7376884
vt 0.6064416 0.3096234
vt 0.5981944 0.3341367
vt 0.6064416 0.3096234
vt 0.5981944 0.3341367
vt 0.6101373 0.2842036
vt 0.6101373 0.2842036
vt 0.6016363 0.2629734
vt 0.6016363 0.2629734
vt 0.5961722 0.2485843
vt 0.5961722 0.2485843
vt 0.595751 0.3461373
vt 0.595751 0.3461373
vt 0.6005509 0.373391
vt 0.6005509 0.373391
vt 0.893176 0.8505001
vt 0.8722008 0.8713502
vt 0.8536953 0.8910572
vt 0.6905344 0.8904799
vt 0.6905344 0.8904799
vn 0.2873151 0.9572679 -0.03298641
vn 0.6853669 0.1841152 0.7045379
vn 0.7179502 0.1450877 0.6808063
vn 0.1879443 0.9821705 -0.00425278
vn 0.3758399 -0.7289342 0.5721881
vn 0.3457547 -0.7910959 0.5045999
vn -0.4111645 0.3785307 -0.8292517
vn -0.6342573 0.2305417 -0.7379487
vn -0.4276491 -0.8880469 -0.1687866
vn -0.1921432 -0.9696973 -0.1508908
vn -0.6342573 0.2305417 -0.7379487
vn -0.4622531 -0.5632527 -0.6848857
vn -0.4111645 0.3785307 -0.8292517
vn -0.4977496 -0.8645931 0.06873102
vn 0.2678106 -0.7393594 0.6177582
vn -0.8706372 -0.0001223127 -0.4919256
vn 0.5892001 0.0257648 0.8075764
vn -0.33561 0.6858082 -0.645781
vn 0.2530034 0.9347693 0.2493908
vn -0.8984965 -0.1843935 -0.3983757
vn -0.3338335 -0.9402717 -0.06666446
vn 0.319401 -0.946595 0.04405643
vn -0.6598135 -0.02912892 -0.7508646
vn 0.2197141 0.2282842 -0.9484788
vn 0.6826272 -0.7010813 -0.2061675
vn 0.3958449 0.9159381 0.06606236
vn -0.1275363 -0.9910581 -0.03922139
vn 0.1084284 -0.9813427 0.1587761
vn 0.7188895 -0.3743112 0.5857379
vn 0.1807273 -0.9831768 0.02647975
vn 0.7129999 0.5840781 0.3879227
vn 0.4359476 -0.8513239 -0.2918858
vn 0.7266293 0.6805449 -0.09417222
vn -0.456701 0.4936818 -0.7400691
vn -0.7638881 0.09997889 -0.6375571
vn 0.1405829 0.9884136 -0.05722655
vn 0.8751492 -0.03402884 0.4826551
vn 0.7683362 -0.08972374 0.6337264
vn 0.3708509 -0.8812758 -0.2929549
vn 0.3241722 0.7562472 -0.5683332
vn 0.554805 0.07364359 -0.8287147
vn 0.3135244 -0.6910321 -0.6512888
vn -0.4816952 0.2329359 -0.8448139
vn 0.3708509 -0.8812758 -0.2929549
vn 0.7188895 -0.3743112 0.5857379
vn 0.4842257 -0.4812813 -0.7306803
vn -0.5467452 -0.3927656 -0.7394626
vn -0.1275363 -0.9910581 -0.03922139
vn 0.1084284 -0.9813427 0.1587761
vn 0.1807273 -0.9831768 0.02647975
vn -0.6658133 0.3685556 -0.6487368
vn -0.1055708 0.1261029 -0.9863837
vn 0.7129999 0.5840781 0.3879227
vn 0.7266293 0.6805449 -0.09417222
vn 0.4359476 -0.8513239 -0.2918858
vn 0.7188895 -0.3743112 0.5857379
vn 0.3135244 -0.6910321 -0.6512888
vn 0.554805 0.07364359 -0.8287147
vn -0.8706372 -0.0001223127 -0.4919256
vn 0.5701405 0.8202475 -0.04619296
vn 0.2197141 0.2282842 -0.9484788
vn 0.6282913 0.7453147 0.223061
vn -0.6598135 -0.02912892 -0.7508646
vn 0.319401 -0.946595 0.04405643
vn 0.6826272 -0.7010813 -0.2061675
vn -0.33561 0.6858082 -0.645781
vn -0.8984965 -0.1843935 -0.3983757
vn -0.8706372 -0.0001223127 -0.4919256
vn 0.4842257 -0.4812813 -0.7306803
vn -0.33561 0.6858082 -0.645781
vn -0.3338335 -0.9402717 -0.06666446
vn -0.1275363 -0.9910581 -0.03922139
vn -0.1055708 0.1261029 -0.9863837
vn 0.4359476 -0.8513239 -0.2918858
vn 0.7266293 0.6805449 -0.09417222
vn 0.7188895 -0.3743112 0.5857379
vn -0.4816952 0.2329359 -0.8448139
vn -0.6658133 0.3685556 -0.6487368
vn -0.01057662 -0.7820746 0.6230951
vn 0 -0.8249214 0.5652476
vn -0.007014601 -0.7905782 0.6123208
vn 0 -0.832702 0.5537214
vn -0.6461532 -0.7522019 -0.1291443
vn -0.4036919 -0.9108567 -0.08586519
vn -0.9892606 0.06318761 -0.1317983
vn -0.9923745 0.03974763 0.1166747
vn -0.8148405 -0.55633 -0.1628858
vn 0.8657171 -0.292769 -0.4059807
vn 0.9445208 -0.1572324 -0.2883718
vn 0.9766856 0.1119767 -0.1831566
vn 0.7653699 -0.6384065 -0.0815229
vn 0.4738852 -0.6164808 -0.628796
vn -0.6461532 -0.7522019 -0.1291443
vn -0.4036919 -0.9108567 -0.08586519
vn 0.7444544 -0.650469 0.1505912
vn -0.8148405 -0.55633 -0.1628858
vn 0.9818645 0.00258372 0.1895668
vn 0.6005427 0.7987891 -0.03583984
vn 0.5343688 0.7718309 -0.344568
vn 0.9555299 0.1960835 -0.2202588
vn 0 0.9721449 -0.2343808
vn 0 0.9999825 0.005925862
vn 0.9934368 -0.09998202 0.05556158
vn 0.9753184 0.2048889 -0.08230827
vn 0.9762 -0.2102781 0.05307188
vn 0.02817343 0.825147 -0.564215
vn 0.6206175 0.749597 0.2300834
vn 0.9651679 -0.06606288 0.2531533
vn 0 0.9868464 0.1616608
vn 0.4064455 -0.2368183 -0.8824506
vn 0.1286035 0.9913195 -0.027329
vn 0 0.9998893 -0.01488352
vn 0.09782825 0.9897677 -0.1038724
vn -0.8156906 -0.05695566 -0.5756778
vn -0.1826178 0.891811 -0.4139128
vn -0.08096226 0.9865133 -0.1422549
vn 0.9873602 -0.04068831 -0.1531806
vn -0.9968402 0.02052031 0.07673711
vn -0.5370474 -0.4373205 0.7213396
vn -0.9511401 -0.1164483 0.2859586
vn -0.6995556 -0.4889366 0.521117
vn -0.4501092 -0.5916465 0.6688469
vn -0.4047924 -0.8142883 0.4160259
vn -0.4663223 -0.8844088 0.01909033
vn -0.576317 -0.7059308 -0.4117285
vn -0.8148405 -0.55633 -0.1628858
vn -0.9923745 0.03974763 0.1166747
vn -0.9983246 0.05646865 -0.01262393
vn -0.7189658 -0.5955188 0.3583929
vn -0.5664381 -0.790516 0.2328784
vn -0.9476253 -0.1680466 0.2716
vn -0.4475238 -0.747669 0.4906257
vn 0.4883794 -0.3073664 0.8167077
vn 0.3446808 -0.662047 0.665499
vn -0.9476253 -0.1680466 0.2716
vn -0.563754 -0.7162246 0.411344
vn 0.4448971 0.1649251 0.8802649
vn 0 0.3339383 0.942595
vn 0 -0.9207482 0.3901574
vn 0.9101225 -0.1922931 0.3670156
vn -0.4475238 -0.747669 0.4906257
vn 0.817661 0.1265837 0.561611
vn 0.4606484 0.722246 0.5159106
vn 0 0.9642324 0.265058
vn -0.4475238 -0.747669 0.4906257
vn 0.9101225 -0.1922931 0.3670156
vn 0.4622796 -0.6219561 0.6320351
vn -0.4475238 -0.747669 0.4906257
vn 0.817661 0.1265837 0.561611
vn 0.3577618 -0.1163387 0.9265375
vn 0.4503675 -0.07667629 0.8895448
vn 0.4346482 -0.7185893 0.5428723
vn 0.4203617 0.6819561 0.5985247
vn 0.4606484 0.722246 0.5159106
vn 0.07359058 0.8811336 0.4671059
vn 0 0.9130417 0.4078663
vn 0 0.9642324 0.265058
vn 0 0.9998893 -0.01488352
vn 0.1286035 0.9913195 -0.027329
vn -0.5664381 -0.790516 0.2328784
vn 0.4193678 -0.8052053 0.4192553
vn -0.7189658 -0.5955188 0.3583929
vn 0.4374092 -0.6620946 0.6085261
vn -0.6995556 -0.4889366 0.521117
vn 0.4127831 -0.5504612 0.7256739
vn 0.09782825 0.9897677 -0.1038724
vn -0.07239549 0.9722905 -0.2222841
vn 0.02817343 0.825147 -0.564215
vn 0.4380061 0.7861949 0.4359453
vn -0.5370474 -0.4373205 0.7213396
vn 0.5180767 -0.5854805 0.6235455
vn -0.4501092 -0.5916465 0.6688469
vn 0.596169 -0.7329075 0.327764
vn -0.4047924 -0.8142883 0.4160259
vn 0.9497646 -0.3057297 -0.06690693
vn 0.6140839 -0.7735801 -0.1564438
vn 0.5088922 -0.5900863 -0.626759
vn -0.4663223 -0.8844088 0.01909033
vn -0.576317 -0.7059308 -0.4117285
vn 0.4738852 -0.6164808 -0.628796
vn -0.8148405 -0.55633 -0.1628858
vn 0.7372563 -0.2566034 -0.6249862
vn 0.8657171 -0.292769 -0.4059807
vn 0.863096 -0.3656383 0.3483874
vn 0.9934368 -0.09998202 0.05556158
vn 0.7710744 -0.5537211 0.3143838
vn 0.9762 -0.2102781 0.05307188
vn 0.9873602 -0.04068831 -0.1531806
vn 0.634184 -0.7562307 0.1610148
vn 0.5482479 -0.7695752 0.3273807
vn 0.6555825 -0.6243367 -0.4247531
vn 0.6250408 -0.0315621 0.7799538
vn 0.8054277 -0.009656673 0.5926155
vn 0.4610505 -0.8617138 0.2118531
vn 0.6555825 -0.6243367 -0.4247531
vn 0.5093825 -0.8416715 0.1792164
vn 0.8073488 0.04340016 0.5884764
vn 0.4506273 0.8017153 0.3926674
vn -0.08096226 0.9865133 -0.1422549
vn 0.4498492 0.8234548 0.3457714
vn -0.1826178 0.891811 -0.4139128
vn -0.4824632 -0.6385304 -0.5995901
vn 0.4064455 -0.2368183 -0.8824506
vn 0.9762 -0.2102781 0.05307188
vn -0.8156906 -0.05695566 -0.5756778
vn 0.6555825 -0.6243367 -0.4247531
vn 0.4064455 -0.2368183 -0.8824506
vn 0.9753184 0.2048889 -0.08230827
vn 0.9331152 -0.1437856 -0.3295781
vn 0.9791262 -0.05155716 -0.1966056
vn 0.9590873 0.1517163 -0.2390267
vn 0 -0.882475 0.4703593
vn 0.4492834 -0.7815899 0.4327374
vn -0.04508743 -0.8432845 0.5355729
vn 0 -0.9978497 0.06554275
vn 0.2834051 -0.661885 0.6939667
vn 0.6906772 0.1924567 0.6970834
vn -0.04433059 -0.8258013 0.5622163
vn -0.01024283 -0.803316 0.5954649
vn -0.08789147 -0.7697748 0.6322356
vn 0 -0.8042796 0.594251
vn 0 -0.957575 -0.2881843
vn 0.8324676 -0.5509939 -0.05834082
vn 0.8939878 0.4478264 0.01540216
vn 0.6906772 0.1924567 0.6970834
vn 0.5313761 0.04388421 0.8459986
vn 0 0.8709568 0.4913595
vn 0 0.8563897 0.5163299
vn 0 -0.871885 -0.4897106
vn 0.7542774 -0.603944 -0.2575212
vn 0.9331152 -0.1437856 -0.3295781
vn 0.9590873 0.1517163 -0.2390267
vn 0.5251751 0.8218225 -0.2209047
vn 0 0.9769721 -0.2133667
vn 0.6906772 0.1924567 0.6970834
vn 0 0.9945268 0.1044823
vn 0.8939878 0.4478264 0.01540216
vn 0 0.9769721 -0.2133667
vn -0.6906772 0.1924567 0.6970834
vn -0.8939878 0.4478265 0.01540216
vn 0 0.8709568 0.4913595
vn -0.5313761 0.04388421 0.8459986
vn 0 0.8563897 0.5163299
vn -0.6906772 0.1924567 0.6970834
vn -0.2834051 -0.661885 0.6939667
vn -0.4492834 -0.7815899 0.4327374
vn -0.6906772 0.1924567 0.6970834
vn 0.04508743 -0.8432845 0.5355729
vn 0 -0.882475 0.4703593
vn 0 -0.9978497 0.06554275
vn 0.04433059 -0.8258013 0.5622163
vn 0.01024285 -0.803316 0.5954649
vn 0.08789146 -0.7697748 0.6322356
vn 0 -0.8042796 0.594251
vn 0 -0.957575 -0.2881843
vn -0.8324676 -0.5509939 -0.05834081
vn 0 -0.871885 -0.4897106
vn -0.7542774 -0.6039441 -0.2575212
vn -0.9331152 -0.1437856 -0.3295781
vn -0.9590873 0.1517163 -0.2390267
vn -0.5251751 0.8218225 -0.2209047
vn 0 0.9769721 -0.2133667
vn 0 -0.8569179 0.5154528
vn -0.08789147 -0.7697748 0.6322356
vn -0.312844 -0.7261556 0.6122308
vn 0 -0.8042796 0.594251
vn 0 -0.8645205 0.5025976
vn -0.7068598 -0.5785266 0.4070089
vn -0.5040655 -0.5944192 0.6265649
vn -0.2846423 -0.5914782 0.7544086
vn -0.05160178 -0.6690984 0.7413802
vn -0.01024283 -0.803316 0.5954649
vn -0.09527729 -0.5617107 0.8218292
vn -0.001784778 -0.577233 0.8165776
vn -0.05102296 -0.7005216 0.7118048
vn -0.1935354 -0.6727066 0.7141498
vn -0.01872233 -0.9027204 0.4298202
vn -0.2359387 -0.8849254 0.401547
vn -0.1135799 -0.9862111 0.1203627
vn -0.5098358 -0.8538778 0.1046902
vn -0.6604097 -0.674134 0.3307602
vn -0.8383725 -0.5009833 0.2148195
vn 0 -0.9758411 0.2184814
vn 0 -0.8678714 0.4967889
vn 0.8383725 -0.5009833 0.2148195
vn 0.5098359 -0.8538778 0.1046902
vn 0.6604097 -0.674134 0.3307602
vn 0.2359387 -0.8849254 0.401547
vn 0.1135799 -0.9862111 0.1203627
vn 0.01872233 -0.9027204 0.4298202
vn 0.1935354 -0.6727065 0.7141498
vn 0.05102296 -0.7005216 0.7118048
vn 0.09527729 -0.5617107 0.8218292
vn 0.001784791 -0.577233 0.8165776
vn 0.0516018 -0.6690984 0.7413802
vn 0.2846422 -0.5914783 0.7544085
vn 0.08789146 -0.7697748 0.6322356
vn 0.01024285 -0.803316 0.5954649
vn 0.5040655 -0.5944192 0.6265649
vn 0.312844 -0.7261556 0.6122308
vn 0 -0.8569179 0.5154528
vn 0 -0.8042796 0.594251
vn 0 -0.8645205 0.5025976
vn 0.7068598 -0.5785266 0.4070089
vn 0 -0.8678714 0.4967889
vn -0.7709807 0.23326 -0.5926033
vn -0.367071 -0.7653074 -0.5287377
vn -0.5376447 -0.6599356 -0.5248078
vn -0.7666543 0.1522376 -0.6237506
vn 0.4382079 -0.8858504 0.152456
vn -0.003273705 -0.9939486 -0.1097969
vn 0.4844671 -0.7341145 0.475781
vn 0.7359543 0.04485121 0.6755439
vn 0.5985017 0.1186158 0.7922916
vn 0.2572292 0.915717 0.3086995
vn 0.2329244 0.8739907 0.4264815
vn 0.5300261 0.1257952 0.8385987
vn 0.3164726 -0.7647599 0.5612373
vn 0.2941759 0.876024 0.3821551
vn 0.6400242 0.09515595 0.7624397
vn 0.4018751 0.8627682 0.3068019
vn -0.1159093 -0.9926646 -0.0343785
vn -0.5262486 -0.670362 -0.5231417
vn -0.7455561 0.2711737 -0.6087784
vn -0.553646 0.2865906 -0.7818836
vn -0.4622531 -0.5632527 -0.6848857
vn -0.4111645 0.3785307 -0.8292517
vn -0.1921432 -0.9696973 -0.1508908
vn 0.3457547 -0.7910959 0.5045999
vn 0.7179502 0.1450877 0.6808063
vn 0.2873151 0.9572679 -0.03298641
vn -0.2021698 0.9618418 -0.1843574
vn -0.06789891 0.9581082 -0.2782416
vn -0.7455561 0.2711737 -0.6087784
vn -0.7709807 0.23326 -0.5926033
vn -0.3344001 0.9274028 -0.1676324
vn -0.7666543 0.1522376 -0.6237506
vn -0.4444824 0.843499 -0.3015706
vn -0.553646 0.2865906 -0.7818836
vn -0.4111645 0.3785307 -0.8292517
vn -0.7773177 0.05369623 -0.6268126
vn -0.4573583 0.8322103 -0.3134477
vn 0.3179196 0.8428779 0.4341474
vn 0.7618846 -0.08706085 0.6418352
vn 0.4513228 -0.882544 0.1319993
vn -0.4152728 -0.7676156 -0.4881749
vn -0.7773177 0.05369623 -0.6268126
vn 0.3249698 -0.9451925 -0.03171449
vn 0 -0.8306831 -0.5567456
vn 0.2815711 -0.7625824 -0.5823966
vn 0 -0.996761 -0.08042093
vn 0.133361 -0.7469923 -0.6513197
vn 0 -0.8082908 -0.5887836
vn 0.07108414 -0.9946526 -0.07492062
vn 0 -0.9999377 -0.01116678
vn 0 -0.9817816 0.1900131
vn 0.06692673 -0.9822563 0.1751957
vn 0.2261824 -0.9727986 -0.05004359
vn 0.231301 -0.9563261 0.1787186
vn 0.1775143 -0.7337891 -0.655776
vn 0 -0.9992772 -0.03801569
vn 0.4113477 -0.9114202 -0.01031275
vn 0.3100401 -0.9503674 0.02601866
vn 0 -0.999647 -0.02657054
vn 0.3249698 -0.9451925 -0.03171449
vn 0 -0.996761 -0.08042093
vn 0.7456104 -0.664645 0.04808459
vn 0.7669332 -0.6335644 0.1020279
vn 0.6446652 -0.7271535 0.2359125
vn 0.9606121 -0.01541531 0.2774646
vn 0.9168314 -0.164781 0.3636858
vn 0.9275417 -0.3596692 0.1015113
vn 0.9583493 0.2466782 0.1439316
vn 0.815267 0.3618095 0.4521432
vn 0.9168314 -0.164781 0.3636858
vn 0.9606121 -0.01541531 0.2774646
vn 0.6202564 0.6323162 0.4641749
vn 0.4612631 0.6806983 0.56911
vn 0.1441801 0.8950256 0.422068
vn 0.04267496 0.8404904 0.5401432
vn 0.5725926 0.7819121 0.2464773
vn 0.9583493 0.2466782 0.1439316
vn 0 0.9353049 0.3538426
vn 0 0.9679126 0.2512874
vn 0 0.8811063 0.4729182
vn 0 0.9817817 -0.1900125
vn -0.07108415 0.9946526 0.07492089
vn -0.06692677 0.9822563 -0.1751952
vn 0 0.9999377 0.0111671
vn 0 0.8082908 0.5887836
vn -0.1333609 0.7469923 0.6513197
vn 0 0.4729867 0.8810696
vn -0.2261824 0.9727986 0.05004388
vn -0.231301 0.9563261 -0.1787181
vn -0.1775143 0.7337891 0.655776
vn -0.2080524 0.3748721 0.9034297
vn 0.4366451 -0.006167971 -0.8996126
vn 0.5200445 -0.1994919 -0.8305159
vn 0.5081771 -0.2288566 -0.8302895
vn 0.4446077 0.002184632 -0.8957227
vn 0.5945464 0.1351031 -0.7926297
vn 0.578001 0.1084797 -0.8087936
vn 0.6541838 0.08324029 -0.7517411
vn 0.6457657 0.07339034 -0.7600003
vn 0.8236818 -0.003595462 -0.5670409
vn 0.8390943 -0.02639797 -0.543345
vn 0.6096466 -0.04573964 -0.7913525
vn 0.6141251 -0.02533358 -0.788802
vn 0.8236818 -0.003595462 -0.5670409
vn 0.8390943 -0.02639797 -0.543345
vn -0.08096226 0.9865133 -0.1422549
vn 0.4380061 0.7861949 0.4359453
vn -0.07239549 0.9722905 -0.2222841
vn 0.9762 -0.2102781 0.05307188
vn 0.9762 -0.2102781 0.05307188
vn -0.2873151 0.9572679 -0.03298641
vn -0.6853669 0.1841152 0.7045379
vn -0.1879443 0.9821705 -0.004252761
vn -0.7179501 0.1450877 0.6808063
vn -0.3758399 -0.7289342 0.5721881
vn -0.3457547 -0.7910959 0.5045999
vn 0.4111645 0.3785307 -0.8292517
vn 0.6342573 0.2305417 -0.7379487
vn 0.4276491 -0.8880469 -0.1687866
vn 0.1921432 -0.9696973 -0.1508908
vn 0.6342573 0.2305417 -0.7379487
vn 0.4622531 -0.5632528 -0.6848857
vn 0.4111645 0.3785307 -0.8292517
vn 0.4977496 -0.8645931 0.06873103
vn -0.2678106 -0.7393594 0.6177583
vn 0.8706372 -0.0001223075 -0.4919256
vn -0.5892001 0.02576481 0.8075762
vn 0.33561 0.6858082 -0.6457809
vn -0.2530034 0.9347693 0.2493908
vn 0.8984964 -0.1843935 -0.3983757
vn 0.3338335 -0.9402717 -0.06666446
vn -0.319401 -0.946595 0.04405642
vn 0.6598135 -0.02912891 -0.7508646
vn -0.2197141 0.2282842 -0.9484788
vn -0.6826272 -0.7010813 -0.2061674
vn -0.395845 0.9159381 0.06606244
vn 0.1275363 -0.9910581 -0.03922141
vn -0.1084284 -0.9813427 0.1587761
vn -0.7188895 -0.3743112 0.5857379
vn -0.1807273 -0.9831768 0.02647973
vn -0.7129999 0.584078 0.3879227
vn -0.4359476 -0.8513238 -0.2918859
vn -0.7266293 0.6805449 -0.09417225
vn 0.4567012 0.4936818 -0.7400692
vn 0.7638882 0.0999789 -0.6375571
vn -0.1405829 0.9884136 -0.05722662
vn -0.8751492 -0.03402884 0.4826551
vn -0.7683362 -0.08972374 0.6337264
vn -0.3708509 -0.8812758 -0.2929547
vn -0.3241716 0.7562472 -0.5683336
vn -0.5548049 0.07364356 -0.8287148
vn -0.3135252 -0.691032 -0.6512885
vn 0.4816952 0.2329359 -0.8448139
vn -0.3708509 -0.8812758 -0.2929547
vn -0.7188895 -0.3743112 0.5857379
vn -0.4842256 -0.4812813 -0.7306804
vn 0.5467452 -0.3927656 -0.7394626
vn 0.1275363 -0.9910581 -0.03922141
vn -0.1084284 -0.9813427 0.1587761
vn -0.1807273 -0.9831768 0.02647973
vn 0.6658133 0.3685555 -0.6487368
vn 0.1055709 0.1261029 -0.9863837
vn -0.7129999 0.584078 0.3879227
vn -0.7266293 0.6805449 -0.09417225
vn -0.4359476 -0.8513238 -0.2918859
vn -0.7188895 -0.3743112 0.5857379
vn -0.3135252 -0.691032 -0.6512885
vn -0.5548049 0.07364356 -0.8287148
vn 0.8706372 -0.0001223075 -0.4919256
vn -0.5701405 0.8202475 -0.04619296
vn -0.2197141 0.2282842 -0.9484788
vn 0.6598135 -0.02912891 -0.7508646
vn -0.6282914 0.7453146 0.2230611
vn -0.319401 -0.946595 0.04405642
vn -0.6826272 -0.7010813 -0.2061674
vn 0.33561 0.6858082 -0.6457809
vn 0.8984964 -0.1843935 -0.3983757
vn 0.8706372 -0.0001223075 -0.4919256
vn -0.4842256 -0.4812813 -0.7306804
vn 0.33561 0.6858082 -0.6457809
vn 0.3338335 -0.9402717 -0.06666446
vn 0.1275363 -0.9910581 -0.03922141
vn 0.1055709 0.1261029 -0.9863837
vn -0.7266293 0.6805449 -0.09417225
vn -0.4359476 -0.8513238 -0.2918859
vn -0.7188895 -0.3743112 0.5857379
vn 0.6658133 0.3685555 -0.6487368
vn 0.4816952 0.2329359 -0.8448139
vn 0.01057661 -0.7820746 0.623095
vn 0.007014598 -0.7905783 0.6123208
vn 0 -0.8249214 0.5652476
vn 0 -0.832702 0.5537214
vn 0.6461532 -0.7522019 -0.1291443
vn 0.9892606 0.06318761 -0.1317983
vn 0.4036919 -0.9108567 -0.08586521
vn 0.9923745 0.03974763 0.1166747
vn 0.8148405 -0.55633 -0.1628858
vn -0.8657171 -0.292769 -0.4059807
vn -0.9766856 0.1119767 -0.1831566
vn -0.9445208 -0.1572324 -0.2883718
vn -0.7653699 -0.6384065 -0.0815229
vn -0.4738852 -0.6164808 -0.628796
vn 0.6461532 -0.7522019 -0.1291443
vn 0.4036919 -0.9108567 -0.08586521
vn -0.7444544 -0.650469 0.1505912
vn 0.8148405 -0.55633 -0.1628858
vn -0.9818645 0.002583714 0.1895668
vn -0.6005427 0.7987891 -0.03583983
vn -0.5343688 0.7718309 -0.344568
vn -0.9555299 0.1960835 -0.2202588
vn 0 0.9721449 -0.2343808
vn 0 0.9999825 0.005925862
vn -0.9934368 -0.09998202 0.05556158
vn -0.9753184 0.2048889 -0.08230827
vn -0.9762 -0.2102781 0.05307189
vn -0.02817343 0.8251471 -0.564215
vn -0.6206175 0.749597 0.2300834
vn -0.9651679 -0.06606288 0.2531534
vn 0 0.9868464 0.1616608
vn -0.4064459 -0.2368183 -0.8824504
vn -0.1286035 0.9913195 -0.027329
vn 0 0.9998893 -0.01488352
vn -0.09782825 0.9897677 -0.1038724
vn 0.8156906 -0.05695565 -0.5756778
vn 0.1826178 0.891811 -0.4139128
vn 0.08096226 0.9865133 -0.1422549
vn -0.9873602 -0.04068832 -0.1531806
vn 0.9968402 0.02052031 0.07673711
vn 0.5370473 -0.4373205 0.7213396
vn 0.6995556 -0.4889366 0.521117
vn 0.9511401 -0.1164483 0.2859586
vn 0.4501093 -0.5916466 0.6688468
vn 0.4047924 -0.8142883 0.4160259
vn 0.4663224 -0.8844088 0.01909032
vn 0.576317 -0.7059308 -0.4117285
vn 0.8148405 -0.55633 -0.1628858
vn 0.9923745 0.03974763 0.1166747
vn 0.9983246 0.05646865 -0.01262393
vn 0.7189658 -0.5955188 0.3583928
vn 0.5664381 -0.790516 0.2328784
vn 0.9476253 -0.1680466 0.2716
vn 0.4475238 -0.747669 0.4906257
vn -0.4883796 -0.3073664 0.8167076
vn 0.9476253 -0.1680466 0.2716
vn -0.3446808 -0.662047 0.665499
vn 0.563754 -0.7162246 0.4113439
vn -0.4448971 0.1649251 0.8802649
vn 0 0.3339383 0.942595
vn 0 -0.9207482 0.3901574
vn -0.9101225 -0.1922931 0.3670156
vn 0.4475238 -0.747669 0.4906257
vn -0.817661 0.1265838 0.5616111
vn -0.4606483 0.722246 0.5159106
vn 0 0.9642324 0.265058
vn 0.4475238 -0.747669 0.4906257
vn -0.9101225 -0.1922931 0.3670156
vn 0.4475238 -0.747669 0.4906257
vn -0.4622796 -0.6219561 0.632035
vn -0.817661 0.1265838 0.5616111
vn -0.3577618 -0.1163387 0.9265375
vn -0.4503675 -0.07667628 0.8895448
vn -0.4346482 -0.7185893 0.5428724
vn -0.4203617 0.6819561 0.5985247
vn -0.4606483 0.722246 0.5159106
vn -0.07359057 0.8811336 0.4671059
vn 0 0.9130417 0.4078663
vn 0 0.9642324 0.265058
vn 0 0.9998893 -0.01488352
vn -0.1286035 0.9913195 -0.027329
vn 0.5664381 -0.790516 0.2328784
vn -0.4193678 -0.8052053 0.4192553
vn 0.7189658 -0.5955188 0.3583928
vn -0.4374092 -0.6620946 0.6085261
vn 0.6995556 -0.4889366 0.521117
vn -0.4127831 -0.5504612 0.7256739
vn -0.09782825 0.9897677 -0.1038724
vn 0.07239546 0.9722905 -0.2222842
vn -0.02817343 0.8251471 -0.564215
vn -0.4380061 0.7861949 0.4359453
vn 0.5370473 -0.4373205 0.7213396
vn -0.5180767 -0.5854806 0.6235455
vn 0.4501093 -0.5916466 0.6688468
vn -0.596169 -0.7329075 0.3277639
vn 0.4047924 -0.8142883 0.4160259
vn -0.9497646 -0.3057297 -0.06690693
vn -0.6140839 -0.7735801 -0.1564438
vn -0.5088922 -0.5900863 -0.6267591
vn 0.4663224 -0.8844088 0.01909032
vn 0.576317 -0.7059308 -0.4117285
vn -0.4738852 -0.6164808 -0.628796
vn 0.8148405 -0.55633 -0.1628858
vn -0.7372564 -0.2566034 -0.6249862
vn -0.8657171 -0.292769 -0.4059807
vn -0.863096 -0.3656383 0.3483874
vn -0.9934368 -0.09998202 0.05556158
vn -0.7710744 -0.5537211 0.3143838
vn -0.9762 -0.2102781 0.05307189
vn -0.9873602 -0.04068832 -0.1531806
vn -0.6341839 -0.7562308 0.1610148
vn -0.5482479 -0.7695752 0.3273807
vn -0.6555825 -0.6243367 -0.4247531
vn -0.6250409 -0.03156209 0.7799537
vn -0.8054277 -0.009656673 0.5926155
vn -0.4610505 -0.8617138 0.2118531
vn -0.6555825 -0.6243367 -0.4247531
vn -0.5093825 -0.8416715 0.1792164
vn -0.8073488 0.04340015 0.5884764
vn -0.4506272 0.8017153 0.3926674
vn 0.08096226 0.9865133 -0.1422549
vn -0.4498492 0.8234548 0.3457714
vn 0.1826178 0.891811 -0.4139128
vn 0.4824632 -0.6385304 -0.5995901
vn -0.4064459 -0.2368183 -0.8824504
vn -0.9762 -0.2102781 0.05307189
vn -0.6555825 -0.6243367 -0.4247531
vn 0.8156906 -0.05695565 -0.5756778
vn -0.9753184 0.2048889 -0.08230827
vn -0.4064459 -0.2368183 -0.8824504
vn -0.9331152 -0.1437856 -0.3295781
vn -0.9590873 0.1517163 -0.2390267
vn -0.9791262 -0.05155716 -0.1966056
vn 0 0.9769721 -0.2133667
vn -0.8939878 0.4478265 0.01540216
vn 0.7709807 0.23326 -0.5926033
vn 0.367071 -0.7653074 -0.5287377
vn 0.7666543 0.1522377 -0.6237507
vn 0.5376447 -0.6599356 -0.5248078
vn -0.4382079 -0.8858504 0.152456
vn 0.003273705 -0.9939486 -0.1097969
vn -0.4844671 -0.7341145 0.4757809
vn -0.7359543 0.04485121 0.6755439
vn -0.5985017 0.1186158 0.7922916
vn -0.2572292 0.915717 0.3086995
vn -0.2329244 0.8739907 0.4264815
vn -0.5300261 0.1257952 0.8385987
vn -0.3164726 -0.7647599 0.5612373
vn -0.2941759 0.876024 0.3821551
vn -0.6400242 0.09515596 0.7624397
vn -0.4018752 0.8627682 0.3068019
vn 0.1159093 -0.9926646 -0.03437851
vn 0.5262486 -0.670362 -0.5231417
vn 0.7455561 0.2711737 -0.6087784
vn 0.553646 0.2865907 -0.7818836
vn 0.4622531 -0.5632528 -0.6848857
vn 0.4111645 0.3785307 -0.8292517
vn 0.1921432 -0.9696973 -0.1508908
vn -0.3457547 -0.7910959 0.5045999
vn -0.7179501 0.1450877 0.6808063
vn -0.2873151 0.9572679 -0.03298641
vn 0.2021698 0.9618418 -0.1843574
vn 0.06789891 0.9581082 -0.2782416
vn 0.7455561 0.2711737 -0.6087784
vn 0.7709807 0.23326 -0.5926033
vn 0.3344001 0.9274028 -0.1676324
vn 0.7666543 0.1522377 -0.6237507
vn 0.4444824 0.843499 -0.3015706
vn 0.553646 0.2865907 -0.7818836
vn 0.4111645 0.3785307 -0.8292517
vn 0.7773177 0.05369623 -0.6268126
vn 0.4573583 0.8322103 -0.3134477
vn -0.3179196 0.8428779 0.4341474
vn -0.7618846 -0.08706085 0.6418352
vn -0.4513228 -0.882544 0.1319993
vn 0.4152728 -0.7676156 -0.4881749
vn 0.7773177 0.05369623 -0.6268126
vn -0.3249698 -0.9451925 -0.03171449
vn 0 -0.8306831 -0.5567456
vn 0 -0.996761 -0.08042093
vn -0.2815711 -0.7625824 -0.5823966
vn -0.1333609 -0.7469923 -0.6513197
vn 0 -0.8082908 -0.5887836
vn -0.07108413 -0.9946526 -0.07492062
vn 0 -0.9999377 -0.01116678
vn 0 -0.9817816 0.1900131
vn -0.06692673 -0.9822563 0.1751957
vn -0.2261824 -0.9727986 -0.05004359
vn -0.231301 -0.9563261 0.1787186
vn -0.1775143 -0.7337891 -0.655776
vn 0 -0.9992772 -0.03801569
vn -0.4113477 -0.9114202 -0.01031275
vn 0 -0.999647 -0.02657054
vn -0.3100401 -0.9503674 0.02601866
vn -0.3249698 -0.9451925 -0.03171449
vn 0 -0.996761 -0.08042093
vn -0.7456104 -0.664645 0.04808459
vn -0.7669331 -0.6335644 0.1020279
vn -0.6446652 -0.7271535 0.2359125
vn -0.9606121 -0.01541532 0.2774646
vn -0.9168314 -0.164781 0.3636858
vn -0.9275416 -0.3596693 0.1015113
vn -0.9583493 0.2466782 0.1439316
vn -0.815267 0.3618095 0.4521433
vn -0.9606121 -0.01541532 0.2774646
vn -0.9168314 -0.164781 0.3636858
vn -0.6202564 0.6323162 0.4641749
vn -0.4612631 0.6806983 0.56911
vn -0.1441801 0.8950256 0.422068
vn -0.04267496 0.8404904 0.5401432
vn -0.5725927 0.7819121 0.2464772
vn -0.9583493 0.2466782 0.1439316
vn 0 0.9353049 0.3538426
vn 0 0.9679126 0.2512874
vn 0 0.8811063 0.4729182
vn 0 0.9817817 -0.1900125
vn 0.07108415 0.9946526 0.07492089
vn 0 0.9999377 0.0111671
vn 0.06692676 0.9822563 -0.1751952
vn 0 0.8082908 0.5887836
vn 0.133361 0.7469923 0.6513197
vn 0 0.4729867 0.8810696
vn 0.2261824 0.9727986 0.05004388
vn 0.231301 0.9563261 -0.1787181
vn 0.1775143 0.7337891 0.655776
vn 0.2080524 0.3748721 0.9034297
vn -0.4366451 -0.006167971 -0.8996126
vn -0.5200445 -0.1994919 -0.8305159
vn -0.4446077 0.002184632 -0.8957227
vn -0.5081771 -0.2288566 -0.8302895
vn -0.5945464 0.1351031 -0.7926297
vn -0.578001 0.1084797 -0.8087936
vn -0.6541838 0.08324029 -0.7517411
vn -0.6457657 0.07339034 -0.7600003
vn -0.8236818 -0.00359546 -0.5670409
vn -0.8390943 -0.02639797 -0.543345
vn -0.6096466 -0.04573963 -0.7913526
vn -0.6141251 -0.02533358 -0.788802
vn -0.8236818 -0.00359546 -0.5670409
vn -0.8390943 -0.02639797 -0.543345
vn 0.08096226 0.9865133 -0.1422549
vn 0.07239546 0.9722905 -0.2222842
vn -0.4380061 0.7861949 0.4359453
vn -0.9762 -0.2102781 0.05307189
vn -0.9762 -0.2102781 0.05307189
g NQS_A_S_0
f 3/3/3 2/2/2 1/1/1
f 4/4/4 1/1/1 2/2/2
f 2/2/2 3/3/3 5/5/5
f 6/6/6 5/5/5 3/3/3
f 1/1/1 4/4/4 7/7/7
f 8/8/8 7/7/7 4/4/4
f 5/5/5 6/6/6 9/9/9
f 10/10/10 9/9/9 6/6/6
f 9/9/9 10/10/10 11/11/11
f 12/12/12 11/11/11 10/10/10
f 13/13/13 11/11/11 12/12/12
f 9/9/9 14/14/14 5/5/5
f 15/15/15 5/5/5 14/14/14
f 5/5/5 15/15/15 2/2/2
f 11/11/11 16/16/16 9/9/9
f 14/14/14 9/9/9 16/16/16
f 17/17/17 2/2/2 15/15/15
f 2/2/2 17/17/17 4/4/4
f 18/18/18 8/8/8 4/4/4
f 19/19/19 4/4/4 17/17/17
f 19/19/19 18/18/18 4/4/4
f 16/16/16 20/20/20 14/14/14
f 21/21/21 14/14/14 20/20/20
f 21/21/21 20/20/20 22/22/22
f 23/23/23 22/22/22 20/20/20
f 23/23/23 24/24/24 22/22/22
f 25/25/25 22/22/22 24/24/24
f 26/26/26 19/19/19 17/17/17
f 14/14/14 21/21/21 27/27/27
f 15/15/15 14/14/14 27/27/27
f 27/27/27 28/28/28 15/15/15
f 29/29/29 15/15/15 28/28/28
f 17/17/17 15/15/15 29/29/29
f 28/28/28 30/30/30 29/29/29
f 31/31/31 29/29/29 30/30/30
f 30/30/30 32/32/32 31/31/31
f 33/33/33 31/31/31 32/32/32
f 34/34/34 19/19/19 26/26/26
f 34/34/34 26/26/26 35/35/35
f 36/36/36 35/35/35 26/26/26
f 36/36/36 26/26/26 37/37/37
f 38/38/38 37/37/37 26/26/26
f 37/37/37 38/38/38 39/39/39
f 29/29/29 39/39/39 38/38/38
f 36/36/36 37/37/37 40/40/40
f 35/35/35 36/36/36 40/40/40
f 37/37/37 41/41/41 40/40/40
f 37/37/37 42/42/42 41/41/41
f 39/39/39 42/42/42 37/37/37
f 38/38/38 17/17/17 29/29/29
f 34/34/34 35/35/35 43/43/43
f 44/44/44 43/43/43 35/35/35
f 43/43/43 44/44/44 45/45/45
f 34/34/34 43/43/43 46/46/46
f 46/46/46 43/43/43 47/47/47
f 47/47/47 48/48/48 46/46/46
f 49/49/49 48/48/48 47/47/47
f 47/47/47 50/50/50 49/49/49
f 51/51/51 47/47/47 43/43/43
f 51/51/51 50/50/50 47/47/47
f 51/51/51 52/52/52 50/50/50
f 51/51/51 53/53/53 52/52/52
f 54/54/54 52/52/52 53/53/53
f 55/55/55 50/50/50 52/52/52
f 56/56/56 53/53/53 51/51/51
f 44/44/44 35/35/35 57/57/57
f 57/57/57 35/35/35 58/58/58
f 58/58/58 35/35/35 40/40/40
f 46/46/46 18/18/18 34/34/34
f 34/34/34 18/18/18 19/19/19
f 59/59/59 8/8/8 18/18/18
f 62/62/62 61/61/61 60/60/60
f 63/63/63 60/60/60 61/61/61
f 60/60/60 64/64/64 62/62/62
f 65/65/65 62/62/62 64/64/64
f 61/61/61 62/62/62 65/65/65
f 60/60/60 63/63/63 66/66/66
f 66/66/66 63/63/63 67/67/67
f 66/66/66 67/67/67 68/68/68
f 60/60/60 69/69/69 64/64/64
f 70/70/70 69/69/69 60/60/60
f 64/64/64 69/69/69 71/71/71
f 69/69/69 72/72/72 71/71/71
f 75/75/75 74/74/74 73/73/73
f 78/78/78 77/77/77 76/76/76
f 38/38/38 26/26/26 17/17/17
f 81/81/81 80/80/80 79/79/79
f 82/82/82 80/80/80 81/81/81
f 85/85/85 84/84/84 83/83/83
f 85/85/85 83/83/83 86/86/86
f 87/87/87 86/86/86 83/83/83
f 90/90/90 89/89/89 88/88/88
f 90/90/90 88/88/88 91/91/91
f 92/92/92 91/91/91 88/88/88
f 91/91/91 92/92/92 93/93/93
f 93/93/93 94/94/94 91/91/91
f 95/95/95 91/91/91 94/94/94
f 96/96/96 93/93/93 92/92/92
f 97/97/97 90/90/90 91/91/91
f 91/91/91 95/95/95 97/97/97
f 90/90/90 97/97/97 98/98/98
f 98/98/98 99/99/99 90/90/90
f 100/100/100 90/90/90 99/99/99
f 90/90/90 100/100/100 89/89/89
f 99/99/99 98/98/98 101/101/101
f 102/102/102 101/101/101 98/98/98
f 89/89/89 100/100/100 103/103/103
f 100/100/100 104/104/104 103/103/103
f 100/100/100 99/99/99 104/104/104
f 104/104/104 105/105/105 103/103/103
f 106/106/106 104/104/104 99/99/99
f 98/98/98 97/97/97 107/107/107
f 108/108/108 97/97/97 95/95/95
f 97/97/97 108/108/108 107/107/107
f 102/102/102 98/98/98 109/109/109
f 107/107/107 109/109/109 98/98/98
f 106/106/106 110/110/110 104/104/104
f 99/99/99 101/101/101 111/111/111
f 101/101/101 112/112/112 111/111/111
f 113/113/113 99/99/99 111/111/111
f 106/106/106 99/99/99 113/113/113
f 110/110/110 106/106/106 114/114/114
f 115/115/115 114/114/114 106/106/106
f 116/116/116 115/115/115 106/106/106
f 103/103/103 117/117/117 89/89/89
f 89/89/89 117/117/117 88/88/88
f 120/120/120 119/119/119 118/118/118
f 121/121/121 118/118/118 119/119/119
f 122/122/122 119/119/119 120/120/120
f 123/123/123 122/122/122 120/120/120
f 124/124/124 123/123/123 120/120/120
f 124/124/124 120/120/120 125/125/125
f 126/126/126 125/125/125 120/120/120
f 127/127/127 126/126/126 120/120/120
f 118/118/118 121/121/121 128/128/128
f 129/129/129 128/128/128 121/121/121
f 130/130/130 128/128/128 129/129/129
f 130/130/130 131/131/131 128/128/128
f 130/130/130 132/132/132 131/131/131
f 135/135/135 134/134/134 133/133/133
f 135/135/135 133/133/133 136/136/136
f 137/137/137 136/136/136 133/133/133
f 137/137/137 138/138/138 136/136/136
f 139/139/139 136/136/136 138/138/138
f 134/134/134 140/140/140 133/133/133
f 140/140/140 134/134/134 141/141/141
f 142/142/142 133/133/133 140/140/140
f 133/133/133 142/142/142 137/137/137
f 143/143/143 137/137/137 142/142/142
f 137/137/137 143/143/143 138/138/138
f 144/144/144 138/138/138 143/143/143
f 134/134/134 135/135/135 145/145/145
f 148/148/148 147/147/147 146/146/146
f 146/146/146 147/147/147 149/149/149
f 150/150/150 149/149/149 147/147/147
f 150/150/150 147/147/147 151/151/151
f 147/147/147 152/152/152 151/151/151
f 150/150/150 151/151/151 153/153/153
f 153/153/153 154/154/154 150/150/150
f 154/154/154 149/149/149 150/150/150
f 155/155/155 154/154/154 153/153/153
f 154/154/154 155/155/155 156/156/156
f 154/154/154 156/156/156 157/157/157
f 156/156/156 155/155/155 158/158/158
f 159/159/159 158/158/158 155/155/155
f 148/148/148 160/160/160 147/147/147
f 161/161/161 147/147/147 160/160/160
f 160/160/160 162/162/162 161/161/161
f 161/161/161 162/162/162 163/163/163
f 164/164/164 163/163/163 162/162/162
f 165/165/165 163/163/163 164/164/164
f 166/166/166 155/155/155 153/153/153
f 159/159/159 155/155/155 166/166/166
f 167/167/167 166/166/166 153/153/153
f 168/168/168 166/166/166 167/167/167
f 153/153/153 169/169/169 167/167/167
f 164/164/164 170/170/170 165/165/165
f 165/165/165 170/170/170 171/171/171
f 172/172/172 171/171/171 170/170/170
f 171/171/171 172/172/172 173/173/173
f 174/174/174 173/173/173 172/172/172
f 173/173/173 175/175/175 171/171/171
f 173/173/173 176/176/176 175/175/175
f 176/176/176 177/177/177 175/175/175
f 176/176/176 178/178/178 177/177/177
f 176/176/176 173/173/173 178/178/178
f 174/174/174 178/178/178 173/173/173
f 179/179/179 177/177/177 178/178/178
f 177/177/177 179/179/179 180/180/180
f 181/181/181 180/180/180 179/179/179
f 182/182/182 177/177/177 180/180/180
f 182/182/182 175/175/175 177/177/177
f 183/183/183 182/182/182 180/180/180
f 175/175/175 182/182/182 183/183/183
f 184/184/184 171/171/171 175/175/175
f 184/184/184 175/175/175 185/185/185
f 186/186/186 184/184/184 185/185/185
f 185/185/185 187/187/187 186/186/186
f 184/184/184 186/186/186 165/165/165
f 165/165/165 171/171/171 184/184/184
f 185/185/185 175/175/175 188/188/188
f 188/188/188 175/175/175 183/183/183
f 165/165/165 186/186/186 163/163/163
f 163/163/163 186/186/186 161/161/161
f 186/186/186 189/189/189 161/161/161
f 161/161/161 189/189/189 147/147/147
f 152/152/152 147/147/147 189/189/189
f 152/152/152 189/189/189 190/190/190
f 191/191/191 190/190/190 189/189/189
f 190/190/190 192/192/192 152/152/152
f 192/192/192 190/190/190 193/193/193
f 194/194/194 193/193/193 190/190/190
f 195/195/195 194/194/194 190/190/190
f 194/194/194 196/196/196 193/193/193
f 194/194/194 195/195/195 196/196/196
f 197/197/197 193/193/193 196/196/196
f 193/193/193 197/197/197 198/198/198
f 193/193/193 198/198/198 192/192/192
f 198/198/198 169/169/169 192/192/192
f 169/169/169 198/198/198 199/199/199
f 198/198/198 200/200/200 199/199/199
f 200/200/200 198/198/198 197/197/197
f 201/201/201 199/199/199 200/200/200
f 202/202/202 196/196/196 195/195/195
f 192/192/192 169/169/169 151/151/151
f 151/151/151 152/152/152 192/192/192
f 153/153/153 151/151/151 169/169/169
f 195/195/195 204/204/204 203/203/203
f 205/205/205 202/202/202 203/203/203
f 206/206/206 203/203/203 202/202/202
f 208/208/208 207/207/207 204/204/204
f 167/167/167 199/199/199 168/168/168
f 211/211/211 210/210/210 209/209/209
f 214/214/214 213/213/213 212/212/212
f 215/215/215 212/212/212 213/213/213
f 213/213/213 214/214/214 216/216/216
f 213/213/213 216/216/216 217/217/217
f 218/218/218 216/216/216 214/214/214
f 218/218/218 214/214/214 219/219/219
f 220/220/220 219/219/219 214/214/214
f 214/214/214 212/212/212 220/220/220
f 221/221/221 220/220/220 212/212/212
f 215/215/215 213/213/213 222/222/222
f 223/223/223 222/222/222 213/213/213
f 223/223/223 213/213/213 224/224/224
f 225/225/225 224/224/224 213/213/213
f 226/226/226 225/225/225 216/216/216
f 225/225/225 226/226/226 227/227/227
f 228/228/228 227/227/227 226/226/226
f 222/222/222 223/223/223 229/229/229
f 230/230/230 229/229/229 223/223/223
f 230/230/230 223/223/223 231/231/231
f 231/231/231 223/223/223 224/224/224
f 231/231/231 224/224/224 232/232/232
f 232/232/232 224/224/224 233/233/233
f 233/233/233 224/224/224 234/234/234
f 227/227/227 236/236/236 235/235/235
f 224/224/224 235/235/235 236/236/236
f 236/236/236 238/238/238 237/237/237
f 240/240/240 236/236/236 239/239/239
f 241/241/241 239/239/239 236/236/236
f 243/243/243 242/242/242 241/241/241
f 244/244/244 241/241/241 242/242/242
f 242/242/242 245/245/245 244/244/244
f 244/244/244 246/246/246 240/240/240
f 246/246/246 247/247/247 245/245/245
f 246/246/246 245/245/245 248/248/248
f 248/248/248 249/249/249 246/246/246
f 250/250/250 246/246/246 249/249/249
f 251/251/251 248/248/248 245/245/245
f 251/251/251 252/252/252 248/248/248
f 253/253/253 248/248/248 252/252/252
f 248/248/248 253/253/253 249/249/249
f 254/254/254 249/249/249 253/253/253
f 250/250/250 255/255/255 246/246/246
f 256/256/256 246/246/246 255/255/255
f 256/256/256 240/240/240 246/246/246
f 255/255/255 257/257/257 256/256/256
f 258/258/258 256/256/256 257/257/257
f 256/256/256 258/258/258 259/259/259
f 256/256/256 259/259/259 240/240/240
f 240/240/240 259/259/259 260/260/260
f 240/240/240 260/260/260 261/261/261
f 261/261/261 262/262/262 240/240/240
f 265/265/265 264/264/264 263/263/263
f 266/266/266 263/263/263 264/264/264
f 263/263/263 267/267/267 265/265/265
f 268/268/268 265/265/265 267/267/267
f 268/268/268 269/269/269 265/265/265
f 269/269/269 270/270/270 265/265/265
f 270/270/270 264/264/264 265/265/265
f 264/264/264 270/270/270 271/271/271
f 271/271/271 272/272/272 264/264/264
f 273/273/273 271/271/271 270/270/270
f 273/273/273 274/274/274 271/271/271
f 274/274/274 272/272/272 271/271/271
f 274/274/274 273/273/273 275/275/275
f 276/276/276 275/275/275 273/273/273
f 269/269/269 276/276/276 270/270/270
f 273/273/273 270/270/270 276/276/276
f 275/275/275 276/276/276 277/277/277
f 278/278/278 277/277/277 276/276/276
f 276/276/276 269/269/269 278/278/278
f 277/277/277 278/278/278 279/279/279
f 280/280/280 279/279/279 278/278/278
f 278/278/278 281/281/281 280/280/280
f 281/281/281 278/278/278 269/269/269
f 269/269/269 268/268/268 281/281/281
f 282/282/282 281/281/281 268/268/268
f 281/281/281 282/282/282 280/280/280
f 283/283/283 280/280/280 282/282/282
f 282/282/282 284/284/284 283/283/283
f 268/268/268 284/284/284 282/282/282
f 284/284/284 268/268/268 267/267/267
f 284/284/284 285/285/285 283/283/283
f 283/283/283 285/285/285 286/286/286
f 287/287/287 286/286/286 285/285/285
f 287/287/287 288/288/288 286/286/286
f 286/286/286 288/288/288 289/289/289
f 290/290/290 289/289/289 288/288/288
f 288/288/288 291/291/291 290/290/290
f 292/292/292 290/290/290 291/291/291
f 291/291/291 293/293/293 292/292/292
f 294/294/294 292/292/292 293/293/293
f 294/294/294 293/293/293 295/295/295
f 293/293/293 296/296/296 295/295/295
f 293/293/293 291/291/291 296/296/296
f 297/297/297 295/295/295 296/296/296
f 298/298/298 295/295/295 297/297/297
f 298/298/298 294/294/294 295/295/295
f 299/299/299 296/296/296 291/291/291
f 287/287/287 299/299/299 288/288/288
f 291/291/291 288/288/288 299/299/299
f 296/296/296 299/299/299 300/300/300
f 297/297/297 296/296/296 300/300/300
f 300/300/300 301/301/301 297/297/297
f 302/302/302 297/297/297 301/301/301
f 301/301/301 300/300/300 303/303/303
f 304/304/304 303/303/303 300/300/300
f 299/299/299 304/304/304 300/300/300
f 299/299/299 287/287/287 304/304/304
f 285/285/285 304/304/304 287/287/287
f 284/284/284 304/304/304 285/285/285
f 304/304/304 305/305/305 303/303/303
f 308/308/308 307/307/307 306/306/306
f 309/309/309 306/306/306 307/307/307
f 307/307/307 308/308/308 310/310/310
f 311/311/311 310/310/310 308/308/308
f 310/310/310 311/311/311 312/312/312
f 310/310/310 312/312/312 313/313/313
f 314/314/314 313/313/313 312/312/312
f 313/313/313 314/314/314 315/315/315
f 316/316/316 315/315/315 314/314/314
f 314/314/314 312/312/312 317/317/317
f 314/314/314 317/317/317 316/316/316
f 318/318/318 317/317/317 312/312/312
f 319/319/319 316/316/316 317/317/317
f 317/317/317 320/320/320 319/319/319
f 318/318/318 320/320/320 317/317/317
f 321/321/321 319/319/319 320/320/320
f 311/311/311 322/322/322 312/312/312
f 318/318/318 312/312/312 322/322/322
f 308/308/308 323/323/323 311/311/311
f 322/322/322 311/311/311 323/323/323
f 323/323/323 308/308/308 324/324/324
f 324/324/324 325/325/325 323/323/323
f 323/323/323 325/325/325 326/326/326
f 327/327/327 326/326/326 325/325/325
f 306/306/306 324/324/324 308/308/308
f 322/322/322 323/323/323 328/328/328
f 326/326/326 328/328/328 323/323/323
f 318/318/318 322/322/322 329/329/329
f 328/328/328 329/329/329 322/322/322
f 318/318/318 329/329/329 320/320/320
f 330/330/330 320/320/320 329/329/329
f 320/320/320 330/330/330 321/321/321
f 331/331/331 321/321/321 330/330/330
f 319/319/319 321/321/321 332/332/332
f 333/333/333 332/332/332 321/321/321
f 321/321/321 331/331/331 333/333/333
f 332/332/332 333/333/333 334/334/334
f 334/334/334 335/335/335 332/332/332
f 336/336/336 332/332/332 335/335/335
f 335/335/335 337/337/337 336/336/336
f 338/338/338 336/336/336 337/337/337
f 339/339/339 334/334/334 333/333/333
f 333/333/333 331/331/331 339/339/339
f 340/340/340 339/339/339 331/331/331
f 337/337/337 341/341/341 338/338/338
f 342/342/342 338/338/338 341/341/341
f 336/336/336 338/338/338 316/316/316
f 315/315/315 316/316/316 338/338/338
f 338/338/338 342/342/342 315/315/315
f 332/332/332 336/336/336 319/319/319
f 316/316/316 319/319/319 336/336/336
f 343/343/343 315/315/315 342/342/342
f 315/315/315 343/343/343 313/313/313
f 344/344/344 313/313/313 343/343/343
f 313/313/313 344/344/344 310/310/310
f 345/345/345 310/310/310 344/344/344
f 310/310/310 345/345/345 307/307/307
f 346/346/346 307/307/307 345/345/345
f 307/307/307 346/346/346 309/309/309
f 347/347/347 309/309/309 346/346/346
f 350/350/350 349/349/349 348/348/348
f 351/351/351 348/348/348 349/349/349
f 349/349/349 350/350/350 352/352/352
f 353/353/353 349/349/349 352/352/352
f 352/352/352 354/354/354 353/353/353
f 355/355/355 353/353/353 354/354/354
f 355/355/355 354/354/354 356/356/356
f 357/357/357 356/356/356 354/354/354
f 354/354/354 358/358/358 357/357/357
f 359/359/359 357/357/357 358/358/358
f 352/352/352 360/360/360 354/354/354
f 358/358/358 354/354/354 360/360/360
f 360/360/360 352/352/352 350/350/350
f 363/363/363 362/362/362 361/361/361
f 364/364/364 361/361/361 362/362/362
f 362/362/362 365/365/365 364/364/364
f 366/366/366 364/364/364 365/365/365
f 365/365/365 362/362/362 367/367/367
f 368/368/368 367/367/367 362/362/362
f 362/362/362 363/363/363 368/368/368
f 369/369/369 368/368/368 363/363/363
f 368/368/368 369/369/369 370/370/370
f 369/369/369 371/371/371 370/370/370
f 367/367/367 368/368/368 372/372/372
f 368/368/368 370/370/370 372/372/372
f 372/372/372 370/370/370 373/373/373
f 376/376/376 375/375/375 374/374/374
f 376/376/376 374/374/374 377/377/377
f 377/377/377 374/374/374 378/378/378
f 377/377/377 378/378/378 379/379/379
f 380/380/380 379/379/379 378/378/378
f 381/381/381 376/376/376 377/377/377
f 377/377/377 379/379/379 381/381/381
f 382/382/382 376/376/376 381/381/381
f 379/379/379 380/380/380 383/383/383
f 384/384/384 379/379/379 383/383/383
f 381/381/381 379/379/379 384/384/384
f 385/385/385 383/383/383 380/380/380
f 388/388/388 387/387/387 386/386/386
f 389/389/389 386/386/386 387/387/387
f 389/389/389 387/387/387 390/390/390
f 391/391/391 390/390/390 387/387/387
f 392/392/392 390/390/390 391/391/391
f 387/387/387 388/388/388 393/393/393
f 394/394/394 393/393/393 388/388/388
f 393/393/393 395/395/395 387/387/387
f 391/391/391 387/387/387 395/395/395
f 395/395/395 396/396/396 391/391/391
f 392/392/392 391/391/391 396/396/396
f 399/399/399 398/398/398 397/397/397
f 400/400/400 397/397/397 398/398/398
f 397/397/397 400/400/400 401/401/401
f 402/402/402 401/401/401 400/400/400
f 401/401/401 402/402/402 403/403/403
f 404/404/404 403/403/403 402/402/402
f 404/404/404 405/405/405 403/403/403
f 406/406/406 403/403/403 405/405/405
f 399/399/399 407/407/407 398/398/398
f 408/408/408 398/398/398 407/407/407
f 408/408/408 407/407/407 409/409/409
f 410/410/410 409/409/409 407/407/407
f 413/413/413 412/412/412 411/411/411
f 414/414/414 189/189/189 186/186/186
f 191/191/191 189/189/189 415/415/415
f 418/418/418 417/417/417 416/416/416
f 419/419/419 416/416/416 417/417/417
f 417/417/417 420/420/420 419/419/419
f 421/421/421 419/419/419 420/420/420
f 416/416/416 422/422/422 418/418/418
f 423/423/423 418/418/418 422/422/422
f 420/420/420 424/424/424 421/421/421
f 425/425/425 421/421/421 424/424/424
f 424/424/424 426/426/426 425/425/425
f 427/427/427 425/425/425 426/426/426
f 426/426/426 428/428/428 427/427/427
f 424/424/424 420/420/420 429/429/429
f 430/430/430 429/429/429 420/420/420
f 420/420/420 417/417/417 430/430/430
f 429/429/429 431/431/431 424/424/424
f 426/426/426 424/424/424 431/431/431
f 432/432/432 430/430/430 417/417/417
f 417/417/417 418/418/418 432/432/432
f 423/423/423 433/433/433 418/418/418
f 434/434/434 432/432/432 418/418/418
f 431/431/431 429/429/429 435/435/435
f 436/436/436 435/435/435 429/429/429
f 436/436/436 437/437/437 435/435/435
f 438/438/438 435/435/435 437/437/437
f 438/438/438 437/437/437 439/439/439
f 440/440/440 439/439/439 437/437/437
f 434/434/434 441/441/441 432/432/432
f 436/436/436 429/429/429 442/442/442
f 429/429/429 430/430/430 442/442/442
f 443/443/443 442/442/442 430/430/430
f 430/430/430 444/444/444 443/443/443
f 430/430/430 432/432/432 444/444/444
f 443/443/443 444/444/444 445/445/445
f 446/446/446 445/445/445 444/444/444
f 445/445/445 446/446/446 447/447/447
f 448/448/448 447/447/447 446/446/446
f 434/434/434 449/449/449 441/441/441
f 449/449/449 450/450/450 441/441/441
f 451/451/451 441/441/441 450/450/450
f 451/451/451 452/452/452 441/441/441
f 453/453/453 441/441/441 452/452/452
f 444/444/444 453/453/453 454/454/454
f 452/452/452 454/454/454 453/453/453
f 452/452/452 451/451/451 455/455/455
f 451/451/451 450/450/450 455/455/455
f 456/456/456 452/452/452 455/455/455
f 457/457/457 452/452/452 456/456/456
f 457/457/457 454/454/454 452/452/452
f 432/432/432 453/453/453 444/444/444
f 449/449/449 458/458/458 450/450/450
f 459/459/459 450/450/450 458/458/458
f 459/459/459 458/458/458 460/460/460
f 458/458/458 449/449/449 461/461/461
f 458/458/458 461/461/461 462/462/462
f 463/463/463 462/462/462 461/461/461
f 463/463/463 464/464/464 462/462/462
f 465/465/465 462/462/462 464/464/464
f 462/462/462 466/466/466 458/458/458
f 465/465/465 466/466/466 462/462/462
f 466/466/466 465/465/465 467/467/467
f 466/466/466 467/467/467 468/468/468
f 469/469/469 468/468/468 467/467/467
f 470/470/470 467/467/467 465/465/465
f 468/468/468 471/471/471 466/466/466
f 450/450/450 459/459/459 472/472/472
f 450/450/450 472/472/472 473/473/473
f 450/450/450 473/473/473 455/455/455
f 433/433/433 461/461/461 449/449/449
f 433/433/433 449/449/449 434/434/434
f 433/433/433 434/434/434 418/418/418
f 423/423/423 474/474/474 433/433/433
f 477/477/477 476/476/476 475/475/475
f 478/478/478 475/475/475 476/476/476
f 475/475/475 478/478/478 479/479/479
f 480/480/480 479/479/479 478/478/478
f 478/478/478 476/476/476 480/480/480
f 477/477/477 475/475/475 481/481/481
f 477/477/477 481/481/481 482/482/482
f 482/482/482 481/481/481 483/483/483
f 484/484/484 475/475/475 479/479/479
f 484/484/484 485/485/485 475/475/475
f 484/484/484 479/479/479 486/486/486
f 487/487/487 484/484/484 486/486/486
f 490/490/490 489/489/489 488/488/488
f 493/493/493 492/492/492 491/491/491
f 441/441/441 453/453/453 432/432/432
f 496/496/496 495/495/495 494/494/494
f 496/496/496 497/497/497 495/495/495
f 500/500/500 499/499/499 498/498/498
f 499/499/499 501/501/501 498/498/498
f 502/502/502 498/498/498 501/501/501
f 505/505/505 504/504/504 503/503/503
f 504/504/504 506/506/506 503/503/503
f 507/507/507 503/503/503 506/506/506
f 506/506/506 508/508/508 507/507/507
f 508/508/508 506/506/506 509/509/509
f 510/510/510 509/509/509 506/506/506
f 511/511/511 507/507/507 508/508/508
f 504/504/504 512/512/512 506/506/506
f 510/510/510 506/506/506 512/512/512
f 512/512/512 504/504/504 513/513/513
f 513/513/513 504/504/504 514/514/514
f 515/515/515 514/514/514 504/504/504
f 515/515/515 504/504/504 505/505/505
f 514/514/514 516/516/516 513/513/513
f 517/517/517 513/513/513 516/516/516
f 515/515/515 505/505/505 518/518/518
f 519/519/519 515/515/515 518/518/518
f 515/515/515 519/519/519 514/514/514
f 520/520/520 519/519/519 518/518/518
f 521/521/521 514/514/514 519/519/519
f 512/512/512 513/513/513 522/522/522
f 512/512/512 523/523/523 510/510/510
f 523/523/523 512/512/512 522/522/522
f 522/522/522 513/513/513 524/524/524
f 517/517/517 524/524/524 513/513/513
f 525/525/525 521/521/521 519/519/519
f 516/516/516 514/514/514 526/526/526
f 527/527/527 516/516/516 526/526/526
f 514/514/514 528/528/528 526/526/526
f 514/514/514 521/521/521 528/528/528
f 525/525/525 529/529/529 521/521/521
f 530/530/530 521/521/521 529/529/529
f 530/530/530 531/531/531 521/521/521
f 532/532/532 518/518/518 505/505/505
f 532/532/532 505/505/505 503/503/503
f 535/535/535 534/534/534 533/533/533
f 536/536/536 533/533/533 534/534/534
f 534/534/534 537/537/537 536/536/536
f 537/537/537 538/538/538 536/536/536
f 538/538/538 539/539/539 536/536/536
f 539/539/539 540/540/540 536/536/536
f 541/541/541 536/536/536 540/540/540
f 541/541/541 542/542/542 536/536/536
f 533/533/533 543/543/543 535/535/535
f 544/544/544 535/535/535 543/543/543
f 543/543/543 545/545/545 544/544/544
f 546/546/546 545/545/545 543/543/543
f 547/547/547 545/545/545 546/546/546
f 550/550/550 549/549/549 548/548/548
f 549/549/549 551/551/551 548/548/548
f 552/552/552 548/548/548 551/551/551
f 552/552/552 551/551/551 553/553/553
f 554/554/554 553/553/553 551/551/551
f 550/550/550 548/548/548 555/555/555
f 550/550/550 555/555/555 556/556/556
f 557/557/557 555/555/555 548/548/548
f 548/548/548 552/552/552 557/557/557
f 558/558/558 557/557/557 552/552/552
f 552/552/552 553/553/553 558/558/558
f 559/559/559 558/558/558 553/553/553
f 549/549/549 550/550/550 560/560/560
f 563/563/563 562/562/562 561/561/561
f 561/561/561 564/564/564 563/563/563
f 565/565/565 563/563/563 564/564/564
f 563/563/563 565/565/565 566/566/566
f 567/567/567 563/563/563 566/566/566
f 566/566/566 565/565/565 568/568/568
f 569/569/569 568/568/568 565/565/565
f 564/564/564 569/569/569 565/565/565
f 569/569/569 570/570/570 568/568/568
f 570/570/570 569/569/569 571/571/571
f 571/571/571 569/569/569 572/572/572
f 571/571/571 573/573/573 570/570/570
f 574/574/574 570/570/570 573/573/573
f 562/562/562 563/563/563 575/575/575
f 576/576/576 575/575/575 563/563/563
f 577/577/577 575/575/575 576/576/576
f 576/576/576 578/578/578 577/577/577
f 579/579/579 577/577/577 578/578/578
f 578/578/578 580/580/580 579/579/579
f 570/570/570 581/581/581 568/568/568
f 570/570/570 574/574/574 581/581/581
f 581/581/581 582/582/582 568/568/568
f 581/581/581 583/583/583 582/582/582
f 584/584/584 568/568/568 582/582/582
f 585/585/585 579/579/579 580/580/580
f 580/580/580 586/586/586 585/585/585
f 587/587/587 585/585/585 586/586/586
f 586/586/586 588/588/588 587/587/587
f 589/589/589 587/587/587 588/588/588
f 588/588/588 586/586/586 590/590/590
f 591/591/591 588/588/588 590/590/590
f 591/591/591 590/590/590 592/592/592
f 591/591/591 592/592/592 593/593/593
f 589/589/589 588/588/588 593/593/593
f 591/591/591 593/593/593 588/588/588
f 594/594/594 593/593/593 592/592/592
f 592/592/592 595/595/595 594/594/594
f 596/596/596 594/594/594 595/595/595
f 592/592/592 597/597/597 595/595/595
f 597/597/597 592/592/592 590/590/590
f 597/597/597 598/598/598 595/595/595
f 597/597/597 590/590/590 598/598/598
f 599/599/599 590/590/590 586/586/586
f 590/590/590 599/599/599 600/600/600
f 599/599/599 601/601/601 600/600/600
f 602/602/602 600/600/600 601/601/601
f 601/601/601 599/599/599 580/580/580
f 586/586/586 580/580/580 599/599/599
f 590/590/590 600/600/600 603/603/603
f 590/590/590 603/603/603 598/598/598
f 601/601/601 580/580/580 578/578/578
f 601/601/601 578/578/578 576/576/576
f 604/604/604 601/601/601 576/576/576
f 576/576/576 563/563/563 604/604/604
f 567/567/567 604/604/604 563/563/563
f 567/567/567 605/605/605 604/604/604
f 606/606/606 604/604/604 605/605/605
f 605/605/605 567/567/567 607/607/607
f 607/607/607 608/608/608 605/605/605
f 609/609/609 605/605/605 608/608/608
f 609/609/609 610/610/610 605/605/605
f 609/609/609 608/608/608 611/611/611
f 609/609/609 611/611/611 610/610/610
f 612/612/612 611/611/611 608/608/608
f 608/608/608 613/613/613 612/612/612
f 613/613/613 608/608/608 607/607/607
f 584/584/584 613/613/613 607/607/607
f 613/613/613 584/584/584 614/614/614
f 613/613/613 614/614/614 615/615/615
f 615/615/615 612/612/612 613/613/613
f 616/616/616 615/615/615 614/614/614
f 617/617/617 610/610/610 611/611/611
f 566/566/566 607/607/607 567/567/567
f 584/584/584 607/607/607 566/566/566
f 568/568/568 584/584/584 566/566/566
f 619/619/619 610/610/610 618/618/618
f 620/620/620 617/617/617 618/618/618
f 621/621/621 618/618/618 617/617/617
f 623/623/623 622/622/622 619/619/619
f 614/614/614 582/582/582 583/583/583
f 626/626/626 625/625/625 624/624/624
f 236/236/236 628/628/628 627/627/627
f 631/631/631 630/630/630 629/629/629
f 632/632/632 629/629/629 630/630/630
f 630/630/630 633/633/633 632/632/632
f 634/634/634 632/632/632 633/633/633
f 634/634/634 633/633/633 635/635/635
f 633/633/633 636/636/636 635/635/635
f 637/637/637 635/635/635 636/636/636
f 636/636/636 638/638/638 637/637/637
f 639/639/639 637/637/637 638/638/638
f 637/637/637 640/640/640 635/635/635
f 637/637/637 639/639/639 640/640/640
f 641/641/641 635/635/635 640/640/640
f 642/642/642 640/640/640 639/639/639
f 640/640/640 642/642/642 643/643/643
f 643/643/643 641/641/641 640/640/640
f 644/644/644 643/643/643 642/642/642
f 641/641/641 645/645/645 635/635/635
f 634/634/634 635/635/635 645/645/645
f 645/645/645 646/646/646 634/634/634
f 632/632/632 634/634/634 646/646/646
f 646/646/646 647/647/647 632/632/632
f 648/648/648 647/647/647 646/646/646
f 646/646/646 649/649/649 648/648/648
f 650/650/650 648/648/648 649/649/649
f 649/649/649 646/646/646 651/651/651
f 645/645/645 651/651/651 646/646/646
f 651/651/651 645/645/645 652/652/652
f 641/641/641 652/652/652 645/645/645
f 641/641/641 643/643/643 652/652/652
f 653/653/653 652/652/652 643/643/643
f 643/643/643 644/644/644 653/653/653
f 654/654/654 653/653/653 644/644/644
f 642/642/642 655/655/655 644/644/644
f 656/656/656 644/644/644 655/655/655
f 654/654/654 644/644/644 656/656/656
f 655/655/655 657/657/657 656/656/656
f 657/657/657 655/655/655 658/658/658
f 659/659/659 658/658/658 655/655/655
f 658/658/658 659/659/659 660/660/660
f 661/661/661 660/660/660 659/659/659
f 662/662/662 656/656/656 657/657/657
f 656/656/656 662/662/662 654/654/654
f 663/663/663 654/654/654 662/662/662
f 660/660/660 661/661/661 664/664/664
f 665/665/665 664/664/664 661/661/661
f 659/659/659 639/639/639 661/661/661
f 638/638/638 661/661/661 639/639/639
f 661/661/661 638/638/638 665/665/665
f 639/639/639 659/659/659 642/642/642
f 655/655/655 642/642/642 659/659/659
f 666/666/666 665/665/665 638/638/638
f 638/638/638 636/636/636 666/666/666
f 667/667/667 666/666/666 636/636/636
f 636/636/636 633/633/633 667/667/667
f 668/668/668 667/667/667 633/633/633
f 633/633/633 630/630/630 668/668/668
f 669/669/669 668/668/668 630/630/630
f 630/630/630 631/631/631 669/669/669
f 670/670/670 669/669/669 631/631/631
f 629/629/629 632/632/632 647/647/647
f 673/673/673 672/672/672 671/671/671
f 674/674/674 671/671/671 672/672/672
f 672/672/672 675/675/675 674/674/674
f 672/672/672 676/676/676 675/675/675
f 675/675/675 676/676/676 677/677/677
f 678/678/678 677/677/677 676/676/676
f 678/678/678 679/679/679 677/677/677
f 680/680/680 677/677/677 679/679/679
f 677/677/677 680/680/680 681/681/681
f 682/682/682 681/681/681 680/680/680
f 681/681/681 683/683/683 677/677/677
f 675/675/675 677/677/677 683/683/683
f 683/683/683 674/674/674 675/675/675
f 686/686/686 685/685/685 684/684/684
f 687/687/687 684/684/684 685/685/685
f 685/685/685 686/686/686 688/688/688
f 689/689/689 688/688/688 686/686/686
f 688/688/688 690/690/690 685/685/685
f 691/691/691 685/685/685 690/690/690
f 685/685/685 691/691/691 687/687/687
f 692/692/692 687/687/687 691/691/691
f 692/692/692 691/691/691 693/693/693
f 694/694/694 692/692/692 693/693/693
f 691/691/691 690/690/690 695/695/695
f 693/693/693 691/691/691 695/695/695
f 693/693/693 695/695/695 696/696/696
f 699/699/699 698/698/698 697/697/697
f 697/697/697 698/698/698 700/700/700
f 697/697/697 700/700/700 701/701/701
f 700/700/700 702/702/702 701/701/701
f 703/703/703 701/701/701 702/702/702
f 698/698/698 704/704/704 700/700/700
f 702/702/702 700/700/700 704/704/704
f 698/698/698 705/705/705 704/704/704
f 702/702/702 706/706/706 703/703/703
f 702/702/702 707/707/707 706/706/706
f 702/702/702 704/704/704 707/707/707
f 708/708/708 703/703/703 706/706/706
f 711/711/711 710/710/710 709/709/709
f 712/712/712 709/709/709 710/710/710
f 711/711/711 713/713/713 710/710/710
f 714/714/714 710/710/710 713/713/713
f 713/713/713 715/715/715 714/714/714
f 710/710/710 716/716/716 712/712/712
f 717/717/717 712/712/712 716/716/716
f 714/714/714 718/718/718 710/710/710
f 716/716/716 710/710/710 718/718/718
f 715/715/715 719/719/719 714/714/714
f 718/718/718 714/714/714 719/719/719
f 722/722/722 721/721/721 720/720/720
f 723/723/723 720/720/720 721/721/721
f 720/720/720 724/724/724 722/722/722
f 725/725/725 722/722/722 724/724/724
f 724/724/724 726/726/726 725/725/725
f 727/727/727 725/725/725 726/726/726
f 727/727/727 726/726/726 728/728/728
f 729/729/729 728/728/728 726/726/726
f 723/723/723 721/721/721 730/730/730
f 731/731/731 730/730/730 721/721/721
f 731/731/731 732/732/732 730/730/730
f 733/733/733 730/730/730 732/732/732
f 736/736/736 735/735/735 734/734/734
f 604/604/604 737/737/737 601/601/601
f 606/606/606 738/738/738 604/604/604
