g qibo007
v -0.4997743 0.004884565 0.1982004
v -0.402493 -0.2434745 0.05139316
v -0.4647587 0.004918416 0.05139322
v -0.4328174 -0.1918167 0.1982004
v -0.2323795 -0.413588 0.05139316
v -0.2498873 -0.3747468 0.1982004
v -1.82519E-07 -0.475854 0.05139316
v -1.916403E-07 -0.4417039 0.1982004
v 0.2323792 -0.4135883 0.05139316
v 0.249887 -0.374747 0.1982004
v 0.4024928 -0.2434749 0.05139316
v 0.4328171 -0.191817 0.1982004
v 0.4647587 0.00477956 0.05139322
v 0.4997742 0.004884601 0.1982004
v -0.3507481 -0.2290114 -0.0673475
v -0.4050089 0.004956354 -0.06734739
v -0.2025046 -0.3772548 -0.06734743
v -1.558498E-07 -0.4315159 -0.06734745
v 0.2025043 -0.3772551 -0.06734743
v 0.3507479 -0.2290117 -0.0673475
v 0.4050089 0.00481783 -0.06734739
v -0.2543671 -0.2007348 -0.1482926
v -0.2937177 0.005183728 -0.1482926
v -0.146859 -0.2920014 -0.1482925
v -1.121221E-07 -0.3254073 -0.1482925
v 0.1468587 -0.2920016 -0.1482925
v 0.2543669 -0.200735 -0.1482926
v 0.2937177 0.005183748 -0.1482926
vt 0.01412269 0.9863451
vt 0.1793241 0.6590287
vt 0.01412269 0.6590287
vt 0.1793241 0.9863451
vt 0.3445255 0.6590287
vt 0.3445255 0.9863451
vt 0.509727 0.6590287
vt 0.509727 0.9863451
vt 0.6749284 0.6590287
vt 0.6749284 0.9863451
vt 0.8401297 0.6590287
vt 0.8401297 0.9863451
vt 1.005331 0.6590287
vt 1.005331 0.9863451
vt 0.1793241 0.3317123
vt 0.01412269 0.3317123
vt 0.3445255 0.3317123
vt 0.509727 0.3317123
vt 0.6749284 0.3317123
vt 0.8401297 0.3317123
vt 1.005331 0.3317123
vt 0.1793241 0.004395861
vt 0.01412269 0.004395861
vt 0.3445255 0.004395861
vt 0.509727 0.004395861
vt 0.6749284 0.004395861
vt 0.8401297 0.004395861
vt 1.005331 0.004395861
vn -0.9475806 -0.2751077 -0.1625013
vn -0.8347122 -0.5118842 -0.2030519
vn -0.9243779 -0.2478821 -0.2899658
vn -0.888122 -0.4550948 -0.06425011
vn -0.4852656 -0.8692762 -0.09421232
vn -0.5267854 -0.8351583 0.1581377
vn -5.798918E-07 -0.9981067 -0.06150569
vn -5.670653E-07 -0.973995 0.2265693
vn 0.4852649 -0.8692768 -0.09421199
vn 0.5267847 -0.8351588 0.1581383
vn 0.8346947 -0.5119256 -0.2030194
vn 0.8881049 -0.4551418 -0.06415454
vn 0.9243843 -0.2479953 -0.2898484
vn 0.9475806 -0.275194 -0.1623553
vn -0.6981127 -0.3946674 -0.5973912
vn -0.773455 -0.1788106 -0.608107
vn -0.4029765 -0.7162611 -0.5697193
vn -5.358734E-07 -0.8223439 -0.5689908
vn 0.4029758 -0.7162614 -0.5697193
vn 0.6980832 -0.3947023 -0.5974027
vn 0.7733776 -0.1788777 -0.6081857
vn -0.525343 -0.3263158 -0.7858324
vn -0.5988573 -0.1274416 -0.7906508
vn -0.2971107 -0.5556128 -0.7765434
vn -4.399571E-07 -0.6191521 -0.7852712
vn 0.2971101 -0.5556126 -0.7765439
vn 0.5253138 -0.3263271 -0.7858474
vn 0.598799 -0.1274697 -0.7906904
g qibo007_0
f 3/3/3 2/2/2 1/1/1
f 2/2/2 4/4/4 1/1/1
f 2/2/2 5/5/5 4/4/4
f 5/5/5 6/6/6 4/4/4
f 5/5/5 7/7/7 6/6/6
f 7/7/7 8/8/8 6/6/6
f 7/7/7 9/9/9 8/8/8
f 9/9/9 10/10/10 8/8/8
f 9/9/9 11/11/11 10/10/10
f 11/11/11 12/12/12 10/10/10
f 11/11/11 13/13/13 12/12/12
f 13/13/13 14/14/14 12/12/12
f 15/15/15 2/2/2 3/3/3
f 16/16/16 15/15/15 3/3/3
f 15/15/15 17/17/17 2/2/2
f 17/17/17 5/5/5 2/2/2
f 17/17/17 18/18/18 5/5/5
f 18/18/18 7/7/7 5/5/5
f 18/18/18 19/19/19 7/7/7
f 19/19/19 9/9/9 7/7/7
f 19/19/19 20/20/20 9/9/9
f 20/20/20 11/11/11 9/9/9
f 20/20/20 21/21/21 11/11/11
f 21/21/21 13/13/13 11/11/11
f 22/22/22 15/15/15 16/16/16
f 23/23/23 22/22/22 16/16/16
f 22/22/22 24/24/24 15/15/15
f 24/24/24 17/17/17 15/15/15
f 24/24/24 25/25/25 17/17/17
f 25/25/25 18/18/18 17/17/17
f 25/25/25 26/26/26 18/18/18
f 26/26/26 19/19/19 18/18/18
f 26/26/26 27/27/27 19/19/19
f 27/27/27 20/20/20 19/19/19
f 27/27/27 28/28/28 20/20/20
f 28/28/28 21/21/21 20/20/20
