g qibo003
v 0.437633 1.57553E-09 -0.0383475
v 0.236092 0.0859304 0.0383475
v 0.411241 0.149679 -0.0383475
v 0.251243 1.72967E-08 0.0383475
v 0.411241 0.149679 -0.0383475
v 0.192464 0.161496 0.0383475
v 0.335246 0.281305 -0.0383475
v 0.236092 0.0859304 0.0383475
v 0.335246 0.281305 -0.0383475
v 0.125622 0.217583 0.0383475
v 0.218817 0.379001 -0.0383475
v 0.192464 0.161496 0.0383475
v 0.218817 0.379001 -0.0383475
v 0.043628 0.247427 0.0383475
v 0.0759942 0.430984 -0.0383475
v 0.125622 0.217583 0.0383475
v 0.0759942 0.430984 -0.0383475
v -0.043628 0.247427 0.0383475
v -0.0759942 0.430984 -0.0383475
v 0.043628 0.247427 0.0383475
v -0.0759942 0.430984 -0.0383475
v -0.125622 0.217583 0.0383475
v -0.218817 0.379001 -0.0383475
v -0.043628 0.247427 0.0383475
v -0.218817 0.379001 -0.0383475
v -0.192464 0.161496 0.0383475
v -0.335246 0.281305 -0.0383475
v -0.125622 0.217583 0.0383475
v -0.335246 0.281305 -0.0383475
v -0.236092 0.0859303 0.0383475
v -0.411241 0.149679 -0.0383475
v -0.192464 0.161496 0.0383475
v -0.411241 0.149679 -0.0383475
v -0.251244 -2.71306E-08 0.0383475
v -0.437633 -7.581099E-08 -0.0383475
v -0.236092 0.0859303 0.0383475
v -0.437633 -7.581099E-08 -0.0383475
v -0.236092 -0.0859304 0.0383475
v -0.411241 -0.149679 -0.0383475
v -0.251244 -2.71306E-08 0.0383475
v -0.411241 -0.149679 -0.0383475
v -0.192464 -0.161496 0.0383475
v -0.335246 -0.281305 -0.0383475
v -0.236092 -0.0859304 0.0383475
v -0.335246 -0.281305 -0.0383475
v -0.125622 -0.217583 0.0383475
v -0.218816 -0.379001 -0.0383475
v -0.192464 -0.161496 0.0383475
v -0.218816 -0.379001 -0.0383475
v -0.0436279 -0.247427 0.0383475
v -0.0759941 -0.430985 -0.0383475
v -0.125622 -0.217583 0.0383475
v -0.0759941 -0.430985 -0.0383475
v 0.0436281 -0.247427 0.0383475
v 0.0759943 -0.430984 -0.0383475
v -0.0436279 -0.247427 0.0383475
v 0.0759943 -0.430984 -0.0383475
v 0.125622 -0.217583 0.0383475
v 0.218817 -0.379001 -0.0383475
v 0.0436281 -0.247427 0.0383475
v 0.218817 -0.379001 -0.0383475
v 0.192464 -0.161496 0.0383475
v 0.335247 -0.281305 -0.0383475
v 0.125622 -0.217583 0.0383475
v 0.335247 -0.281305 -0.0383475
v 0.236092 -0.0859303 0.0383475
v 0.411241 -0.149679 -0.0383475
v 0.192464 -0.161496 0.0383475
v 0.411241 -0.149679 -0.0383475
v 0.251243 1.72967E-08 0.0383475
v 0.437633 1.57553E-09 -0.0383475
v 0.236092 -0.0859303 0.0383475
vt 0.999501 0.5
vt 0.769467 0.599591
vt 0.969377 0.673475
vt 0.786761 0.5
vt 0.969377 0.673475
vt 0.719672 0.68717
vt 0.88264 0.826026
vt 0.769467 0.599591
vt 0.88264 0.826026
vt 0.643381 0.752174
vt 0.74975 0.9392532
vt 0.719672 0.68717
vt 0.74975 0.9392532
vt 0.549796 0.786761
vt 0.586737 0.9995004
vt 0.643381 0.752174
vt 0.586737 0.9995004
vt 0.450204 0.786761
vt 0.413263 0.9995004
vt 0.549796 0.786761
vt 0.413263 0.9995004
vt 0.356619 0.752174
vt 0.25025 0.9392533
vt 0.450204 0.786761
vt 0.25025 0.9392533
vt 0.280328 0.68717
vt 0.11736 0.826026
vt 0.356619 0.752174
vt 0.11736 0.826026
vt 0.230533 0.599591
vt 0.0306231 0.673475
vt 0.280328 0.68717
vt 0.0306231 0.673475
vt 0.213239 0.5
vt 0.000499517 0.5
vt 0.230533 0.599591
vt 0.000499517 0.5
vt 0.230532 0.400409
vt 0.0306231 0.326525
vt 0.213239 0.5
vt 0.0306231 0.326525
vt 0.280328 0.31283
vt 0.11736 0.173974
vt 0.230532 0.400409
vt 0.11736 0.173974
vt 0.356619 0.247826
vt 0.25025 0.06074703
vt 0.280328 0.31283
vt 0.25025 0.06074703
vt 0.450204 0.213239
vt 0.413263 0.0005000234
vt 0.356619 0.247826
vt 0.413263 0.0005000234
vt 0.549796 0.213239
vt 0.586737 0.0005000234
vt 0.450204 0.213239
vt 0.586737 0.0005000234
vt 0.643381 0.247826
vt 0.74975 0.06074703
vt 0.549796 0.213239
vt 0.74975 0.06074703
vt 0.719672 0.31283
vt 0.88264 0.173974
vt 0.643381 0.247826
vt 0.88264 0.173974
vt 0.769467 0.400409
vt 0.969377 0.326525
vt 0.719672 0.31283
vt 0.969377 0.326525
vt 0.786761 0.5
vt 0.999501 0.5
vt 0.769467 0.400409
vn 0.3796688 0.06694478 0.9226971
vn 0.3796688 0.06694477 0.9226971
vn 0.3796689 0.06694478 0.9226971
vn 0.3796679 0.06694198 0.9226978
vn 0.3338748 0.1927644 0.9226968
vn 0.3338748 0.1927644 0.9226968
vn 0.3338748 0.1927644 0.9226968
vn 0.3338749 0.1927635 0.9226971
vn 0.2478117 0.2953291 0.9226971
vn 0.2478117 0.2953291 0.9226971
vn 0.2478117 0.2953291 0.9226971
vn 0.2478112 0.2953304 0.9226968
vn 0.1318574 0.3622771 0.9226965
vn 0.1318574 0.3622771 0.9226965
vn 0.1318574 0.362277 0.9226965
vn 0.1318598 0.3622743 0.9226972
vn 0 0.3855271 0.9226965
vn 0 0.3855272 0.9226965
vn 0 0.3855271 0.9226965
vn 0 0.3855271 0.9226965
vn -0.131857 0.3622758 0.9226971
vn -0.131857 0.3622758 0.9226971
vn -0.131857 0.3622758 0.9226971
vn -0.1318606 0.3622764 0.9226964
vn -0.2478121 0.2953295 0.9226969
vn -0.2478121 0.2953295 0.9226969
vn -0.2478121 0.2953295 0.9226969
vn -0.2478107 0.2953298 0.9226972
vn -0.3338745 0.1927642 0.9226971
vn -0.3338745 0.1927643 0.9226971
vn -0.3338745 0.1927642 0.9226971
vn -0.3338754 0.1927636 0.9226968
vn -0.3796695 0.06694487 0.9226968
vn -0.3796695 0.06694487 0.9226968
vn -0.3796695 0.06694487 0.9226968
vn -0.3796683 0.06694647 0.9226972
vn -0.3796688 -0.0669448 0.9226971
vn -0.3796688 -0.06694481 0.9226971
vn -0.3796688 -0.06694481 0.9226971
vn -0.3796695 -0.06694666 0.9226968
vn -0.3338748 -0.1927644 0.9226968
vn -0.3338748 -0.1927644 0.9226968
vn -0.3338748 -0.1927644 0.9226968
vn -0.3338749 -0.1927635 0.9226971
vn -0.2478111 -0.2953309 0.9226968
vn -0.2478111 -0.2953309 0.9226968
vn -0.2478111 -0.2953309 0.9226968
vn -0.2478112 -0.2953304 0.9226968
vn -0.13186 -0.3622748 0.9226971
vn -0.13186 -0.3622749 0.9226971
vn -0.13186 -0.3622749 0.9226971
vn -0.1318599 -0.3622749 0.9226971
vn 2.515808E-06 -0.3855268 0.9226967
vn 2.515808E-06 -0.3855267 0.9226967
vn 2.515808E-06 -0.3855268 0.9226967
vn 0 -0.3855254 0.9226972
vn 0.131857 -0.3622758 0.9226971
vn 0.131857 -0.3622757 0.9226971
vn 0.131857 -0.3622758 0.9226971
vn 0.1318607 -0.3622764 0.9226964
vn 0.2478103 -0.2953299 0.9226974
vn 0.2478103 -0.2953299 0.9226974
vn 0.2478103 -0.2953299 0.9226974
vn 0.2478107 -0.2953298 0.9226972
vn 0.3338753 -0.1927622 0.9226971
vn 0.3338753 -0.1927622 0.9226971
vn 0.3338753 -0.1927622 0.9226971
vn 0.3338741 -0.1927628 0.9226975
vn 0.3796678 -0.06694459 0.9226975
vn 0.3796678 -0.06694459 0.9226975
vn 0.3796678 -0.06694458 0.9226975
vn 0.3796697 -0.06694233 0.9226969
g qibo003_0
f 3/3/3 2/2/2 1/1/1
f 4/4/4 1/1/1 2/2/2
f 7/7/7 6/6/6 5/5/5
f 8/8/8 5/5/5 6/6/6
f 11/11/11 10/10/10 9/9/9
f 12/12/12 9/9/9 10/10/10
f 15/15/15 14/14/14 13/13/13
f 16/16/16 13/13/13 14/14/14
f 19/19/19 18/18/18 17/17/17
f 20/20/20 17/17/17 18/18/18
f 23/23/23 22/22/22 21/21/21
f 24/24/24 21/21/21 22/22/22
f 27/27/27 26/26/26 25/25/25
f 28/28/28 25/25/25 26/26/26
f 31/31/31 30/30/30 29/29/29
f 32/32/32 29/29/29 30/30/30
f 35/35/35 34/34/34 33/33/33
f 36/36/36 33/33/33 34/34/34
f 39/39/39 38/38/38 37/37/37
f 40/40/40 37/37/37 38/38/38
f 43/43/43 42/42/42 41/41/41
f 44/44/44 41/41/41 42/42/42
f 47/47/47 46/46/46 45/45/45
f 48/48/48 45/45/45 46/46/46
f 51/51/51 50/50/50 49/49/49
f 52/52/52 49/49/49 50/50/50
f 55/55/55 54/54/54 53/53/53
f 56/56/56 53/53/53 54/54/54
f 59/59/59 58/58/58 57/57/57
f 60/60/60 57/57/57 58/58/58
f 63/63/63 62/62/62 61/61/61
f 64/64/64 61/61/61 62/62/62
f 67/67/67 66/66/66 65/65/65
f 68/68/68 65/65/65 66/66/66
f 71/71/71 70/70/70 69/69/69
f 72/72/72 69/69/69 70/70/70
