g QJ_A_S
v 8.899998E-07 0.1302929 1.801668
v -0.07331438 0.1081569 1.887099
v -0.07125371 0.1133317 1.813239
v -0.09041289 0.08991657 1.814575
v -0.1259342 0.0266735 1.837895
v -0.09485348 0.05317482 1.781949
v -0.08892899 0.01636116 1.752962
v -0.1471943 -0.07128349 1.776853
v -0.07880773 -0.04071378 1.711035
v 8.899998E-07 0.1302929 1.801668
v 1.032562E-06 0.1267354 1.896048
v 0.07331642 0.108157 1.887098
v 8.899998E-07 0.1302929 1.801668
v 0.07125553 0.1133317 1.813239
v 0.09041473 0.08991661 1.814574
v 0.1259362 0.02667356 1.837894
v 0.09485525 0.05317486 1.781949
v 0.0889307 0.0163612 1.752962
v 0.1471961 -0.07128344 1.776853
v 0.07880933 -0.04071375 1.711034
v 8.90478E-07 0.1280069 1.801668
v -0.07099116 0.1078052 1.887099
v 1.033041E-06 0.1244495 1.896048
v -0.06893048 0.1129799 1.813239
v -0.08808967 0.08956479 1.814575
v -0.123611 0.02632173 1.837895
v -0.09253025 0.05282304 1.781949
v -0.08660576 0.01600938 1.752962
v -0.1448711 -0.07163531 1.776853
v -0.0764845 -0.04106554 1.711035
v 8.90478E-07 0.1280069 1.801668
v 0.0709932 0.1078052 1.887098
v 0.06893231 0.11298 1.813239
v 1.033041E-06 0.1244495 1.896048
v 0.08809149 0.08956483 1.814574
v 0.123613 0.02632178 1.837894
v 0.09253202 0.05282307 1.781949
v 0.08660747 0.01600942 1.752962
v 0.1448729 -0.07163525 1.776853
v 0.0764861 -0.04106551 1.711034
v 3.51429E-07 -0.1593194 1.39814
v 0.0866113 -0.1299591 1.298444
v 1.053941E-07 -0.1408206 1.282764
v 0.09629574 -0.135843 1.395444
v 4.783421E-07 -0.1655089 1.482564
v 0.1129204 -0.139241 1.482332
v 0.2027828 -0.02661613 1.378594
v 0.2085007 -0.03385713 1.29855
v 0.1986873 0.03225623 1.337852
v 0.1921031 0.05346995 1.448857
v 0.2127111 -0.02616454 1.464601
v 0.2352041 0.01598091 1.548947
v 0.2186171 -0.03523597 1.536888
v 0.2142672 0.1180808 1.533277
v 0.06957699 -0.1186744 1.200775
v 3.042566E-08 -0.1348919 1.195075
v 0.139365 -0.09625088 1.207587
v 0.2340201 0.1190261 1.536478
v 0.2898849 0.01303059 1.571796
v 0.2246738 -0.03858553 1.586159
v 0.114517 -0.1425299 1.549426
v 5.903656E-07 -0.1615689 1.558673
v 0.1161135 -0.1201904 1.633869
v 0.2096241 -0.05148844 1.65883
v 0.102663 -0.03897291 1.713711
v 7.041E-07 -0.1391989 1.638522
v 7.983397E-07 -0.07412203 1.711203
v 0.05124404 -0.009733424 1.748373
v 0.113754 0.0163612 1.741983
v 0.07215361 0.0542512 1.804599
v 0.04262159 0.003785329 1.782806
v 0.06827103 0.05828658 1.882506
v 8.695063E-07 -0.01024798 1.768257
v 8.434969E-07 -0.02045397 1.74919
v 0.05961794 0.02057859 1.852233
v 9.055766E-07 -0.02227123 1.789221
v 0.1914347 -0.02111731 1.712953
v 0.06592619 0.08932197 1.830691
v 0.126853 0.04653868 1.786037
v 0.1343908 0.1007076 1.805728
v 0.1878458 0.03443909 1.746395
v 0.1925699 0.1036202 1.767068
v 9.363162E-07 -0.02409547 1.809634
v 0.03651391 -0.008861433 1.821509
v 9.363162E-07 -0.02409547 1.809634
v 5.581342E-07 0.2377268 1.593218
v 0.1387371 0.2132018 1.574804
v 0.1072783 0.2331954 1.703089
v 7.439863E-07 0.2332456 1.717838
v 0.07905406 0.1726851 1.788967
v 8.888701E-07 0.1513456 1.80395
v 0.06592619 0.08932197 1.830691
v 9.209001E-07 0.1192493 1.820202
v 0.2623491 0.2147099 1.657966
v 0.1343908 0.1007076 1.805728
v 0.1925699 0.1036202 1.767068
v 0.2150771 0.198892 1.734379
v 0.2341284 0.1896643 1.573904
v 0.03953203 0.09911858 1.891475
v 1.000263E-06 0.1102886 1.891346
v 0.2142672 0.1180808 1.533277
v 0.2340201 0.1190261 1.536478
v 0.06827103 0.05828658 1.882506
v 0.1921031 0.05346995 1.448857
v 0.1077072 0.1431476 1.466016
v 4.261543E-07 0.1972529 1.498394
v 1.046693E-07 0.1441464 1.359865
v 0.1986873 0.03225623 1.337852
v 0.08887186 0.1268911 1.358545
v 0.3107777 0.01959173 1.682929
v 0.2246738 -0.03858553 1.586159
v 0.2096241 -0.05148844 1.65883
v 0.2898849 0.01303059 1.571796
v 0.1914347 -0.02111731 1.712953
v 0.2509055 0.03031907 1.730277
v 0.2682021 0.1067325 1.750301
v 0.1878458 0.03443909 1.746395
v 0.1925699 0.1036202 1.767068
v 0.2150771 0.198892 1.734379
v 0.362416 0.1189774 1.618374
v 0.3591577 0.1159312 1.667137
v 0.2623491 0.2147099 1.657966
v 0.3224332 0.1134422 1.720751
v 0.3002377 0.1916076 1.59273
v 0.2341284 0.1896643 1.573904
v 0.3958963 0.1152219 1.579676
v 0.3562769 0.1956444 1.48912
v 0.2340201 0.1190261 1.536478
v 0.275361 0.1136611 1.444674
v 0.3431335 0.1292555 1.369849
v 0.3943175 0.1756264 1.405006
v 0.423261 0.1128328 1.520402
v 0.3461229 0.01839717 1.485783
v 0.4374369 0.1065757 1.441313
v 0.3912956 0.04180158 1.404844
v 0.410239 0.02008365 1.33807
v 0.3431335 0.1292555 1.369849
v 0.3554513 0.1122337 1.293058
v 0.275361 0.1136611 1.444674
v 0.2340201 0.1190261 1.536478
v 0.4200688 0.1843718 1.32383
v 0.4811566 0.09633522 1.367171
v 0.3554513 0.1122337 1.293058
v 0.4904639 0.08459701 1.224555
v 0.4446314 0.1422002 1.200805
v 0.3927411 0.08653416 1.203517
v 0.4369614 0.0265095 1.222657
v 0.3927411 0.08653416 1.203517
v 0.4874666 0.07819697 1.183289
v 0.4471607 0.126813 1.162924
v 0.4064175 0.08029561 1.165917
v 0.4410776 0.02683559 1.182562
v 0.4064175 0.08029561 1.165917
v -3.829512E-08 0.1961995 1.176242
v 0.08887186 0.1268911 1.358545
v 1.046693E-07 0.1441464 1.359865
v 0.126703 0.1599579 1.177488
v 0.1986873 0.03225623 1.337852
v 0.2456803 0.06710944 1.186172
v 0.2085007 -0.03385713 1.29855
v 0.2344934 -0.06931946 1.173874
v 0.0866113 -0.1299591 1.298444
v 0.09486519 -0.150105 1.142112
v 3.51429E-07 -0.1593194 1.39814
v 1.053941E-07 -0.1408206 1.282764
v -0.08661107 -0.1299592 1.298444
v -0.0962952 -0.1358431 1.395444
v 4.783421E-07 -0.1655089 1.482564
v -0.1129195 -0.1392411 1.482333
v -0.2027822 -0.02661621 1.378595
v -0.2085006 -0.03385722 1.29855
v -0.1986871 0.03225615 1.337852
v -0.1921024 0.05346987 1.448858
v -0.2127103 -0.02616464 1.464601
v -0.2352031 0.01598107 1.548948
v -0.218751 -0.03537699 1.538259
v -0.2142662 0.118081 1.533278
v -0.06957694 -0.1186744 1.200775
v 3.042566E-08 -0.1348919 1.195075
v -0.1393649 -0.09625093 1.207587
v -0.234019 0.1190265 1.536479
v -0.2898838 0.01303105 1.571797
v -0.2246727 -0.03858541 1.58616
v 5.903656E-07 -0.1615689 1.558673
v -0.1145158 -0.1425299 1.549426
v -0.1161121 -0.1201904 1.633869
v 7.041E-07 -0.1391989 1.638522
v -0.1026613 -0.03897295 1.713711
v 7.983397E-07 -0.07412203 1.711203
v -0.2096227 -0.05148843 1.658831
v -0.05124236 -0.009733445 1.748373
v -0.1137523 0.01636117 1.741983
v -0.07215178 0.05425118 1.804599
v -0.04261981 0.003785311 1.782806
v -0.06826892 0.05828655 1.882506
v 8.695063E-07 -0.01024798 1.768257
v 8.434969E-07 -0.02045397 1.74919
v -0.05961599 0.02057853 1.852233
v 9.055766E-07 -0.02227123 1.789221
v -0.1914331 -0.02111736 1.712954
v -0.06592431 0.08932196 1.830691
v -0.1268512 0.04653865 1.786037
v -0.1343889 0.1007076 1.805728
v -0.1878441 0.034439 1.746396
v -0.1925681 0.1036201 1.767068
v 9.363162E-07 -0.02409547 1.809634
v -0.03651204 -0.008861479 1.821509
v 9.363162E-07 -0.02409547 1.809634
v 5.581342E-07 0.2377268 1.593218
v -0.1072769 0.2331954 1.703089
v -0.1387361 0.2132017 1.574805
v 7.439863E-07 0.2332456 1.717838
v -0.07905233 0.1726851 1.788967
v 8.888701E-07 0.1513456 1.80395
v -0.06592431 0.08932196 1.830691
v 9.209001E-07 0.1192493 1.820202
v -0.2623477 0.2147099 1.657967
v -0.1343889 0.1007076 1.805728
v -0.1925681 0.1036201 1.767068
v -0.2150754 0.1988919 1.73438
v -0.2341272 0.1896644 1.573905
v -0.03952994 0.09911855 1.891475
v 1.000263E-06 0.1102886 1.891346
v -0.2142662 0.118081 1.533278
v -0.234019 0.1190265 1.536479
v -0.06826892 0.05828655 1.882506
v -0.1921024 0.05346987 1.448858
v -0.1077064 0.1431475 1.466017
v 4.261543E-07 0.1972529 1.498394
v 1.046693E-07 0.1441464 1.359865
v -0.1986871 0.03225615 1.337852
v -0.08887167 0.126891 1.358545
v -0.3107761 0.01959186 1.682929
v -0.2096227 -0.05148843 1.658831
v -0.2246727 -0.03858541 1.58616
v -0.2898838 0.01303105 1.571797
v -0.1914331 -0.02111736 1.712954
v -0.2509039 0.030319 1.730277
v -0.2682003 0.1067324 1.750302
v -0.1878441 0.034439 1.746396
v -0.1925681 0.1036201 1.767068
v -0.2150754 0.1988919 1.73438
v -0.3624146 0.1189777 1.618375
v -0.3591563 0.1159314 1.667138
v -0.2623477 0.2147099 1.657967
v -0.3224315 0.1134421 1.720752
v -0.3002364 0.191608 1.592732
v -0.2341272 0.1896644 1.573905
v -0.395895 0.1152224 1.579677
v -0.3562759 0.195645 1.489122
v -0.234019 0.1190265 1.536479
v -0.2753602 0.1136618 1.444675
v -0.343133 0.1292564 1.369851
v -0.3943169 0.1756273 1.405007
v -0.4232599 0.1128335 1.520403
v -0.3461221 0.01839793 1.485784
v -0.4374361 0.1065767 1.441315
v -0.3912949 0.04180253 1.404845
v -0.4102383 0.02008407 1.338072
v -0.343133 0.1292564 1.369851
v -0.355451 0.112234 1.293059
v -0.2753602 0.1136618 1.444675
v -0.234019 0.1190265 1.536479
v -0.4200686 0.1843721 1.323831
v -0.481156 0.09633557 1.367173
v -0.355451 0.112234 1.293059
v -0.4904638 0.0845965 1.224557
v -0.4446315 0.1421997 1.200807
v -0.392741 0.0865338 1.203519
v -0.4369611 0.02650915 1.222659
v -0.392741 0.0865338 1.203519
v -0.4874666 0.0781966 1.18329
v -0.4471608 0.1268126 1.162925
v -0.4064175 0.08029531 1.165918
v -0.4410775 0.02683529 1.182563
v -0.4064175 0.08029531 1.165918
v -3.829512E-08 0.1961995 1.176242
v -0.08887167 0.126891 1.358545
v -0.1267031 0.1599578 1.177488
v 1.046693E-07 0.1441464 1.359865
v -0.1986871 0.03225615 1.337852
v -0.2456803 0.06710934 1.186172
v -0.2085006 -0.03385722 1.29855
v -0.2344934 -0.06931955 1.173874
v -0.08661107 -0.1299592 1.298444
v -0.09486513 -0.150105 1.142112
v 0.4471607 0.126813 1.162924
v 0.484465 0.07237473 1.149643
v 0.4874666 0.07819697 1.183289
v 0.448881 0.1146527 1.13619
v 0.4064175 0.08029561 1.165917
v 0.416485 0.07528673 1.139708
v 0.4410776 0.02683559 1.182562
v 0.444293 0.02708973 1.151243
v 0.4064175 0.08029561 1.165917
v 0.416485 0.07528673 1.139708
v 0.399976 0.02264873 1.103062
v 0.41247 0.0002707347 1.107204
v 0.393096 0.008507734 1.064228
v 0.400586 -0.01792927 1.066734
v 0.450443 0.001085735 1.090236
v 0.431135 -0.01593827 1.057
v 0.390198 -0.002516265 1.014358
v 0.393341 -0.01896126 1.00497
v 0.411027 -0.01591226 0.9970563
v 0.4779675 0.01330343 1.083282
v 0.4301461 0.0243961 1.072472
v 0.4225325 0.008089704 1.047847
v 0.4807732 0.01129623 1.051382
v 0.450443 0.001085735 1.090236
v 0.4452779 0.02544616 1.041386
v 0.4529364 0.01336473 0.9958889
v 0.4723597 0.001613735 0.991933
v 0.4426012 -0.006738729 0.9469226
v 0.4710913 0.02531134 0.9844981
v 0.4423324 0.01156238 0.9434134
v 0.4301456 0.001555734 0.9527937
v 0.4854732 0.03965648 1.041055
v 0.4606806 0.05094078 1.037241
v 0.4936797 0.07129999 1.085292
v 0.4960543 0.06879862 1.038492
v 0.485479 0.1207337 1.044316
v 0.4763966 0.1070037 0.983784
v 0.48243 0.06653469 0.9806179
v 0.4622113 0.1203807 1.038822
v 0.4560742 0.1079557 0.992088
v 0.44573 0.09175573 0.9427581
v 0.441911 0.05488483 0.9360031
v 0.4358425 0.09036473 0.9541526
v 0.424389 0.04905273 0.9419816
v 0.4341603 0.02945539 0.9396436
v 0.467831 0.03532704 0.9842117
v 0.4606806 0.05094078 1.037241
v 0.467831 0.03532704 0.9842117
v 0.4606806 0.05094078 1.037241
v 0.424389 0.04905273 0.9419816
v 0.4341603 0.02945539 0.9396436
v 0.4766252 0.1226008 1.07732
v 0.4576193 0.1224591 1.072364
v 0.448704 0.06407356 1.067067
v 0.4301461 0.0243961 1.072472
v 0.4452779 0.02544616 1.041386
v 0.4710913 0.02531134 0.9844981
v 0.4529364 0.01336473 0.9958889
v 0.4423324 0.01156238 0.9434134
v 0.4301456 0.001555734 0.9527937
v 0.399976 0.02264873 1.103062
v 0.393096 0.008507734 1.064228
v 0.4225325 0.008089704 1.047847
v 0.390198 -0.002516265 1.014358
v 0.407023 0.004054734 1.005812
v 0.393341 -0.01896126 1.00497
v 0.411027 -0.01591226 0.9970563
v 0.4426012 -0.006738729 0.9469226
v 0.4423324 0.01156238 0.9434134
v 0.4301456 0.001555734 0.9527937
v 0.407023 0.004054734 1.005812
v -0.4471608 0.1268126 1.162925
v -0.484465 0.07237473 1.149643
v -0.448881 0.1146527 1.13619
v -0.4874666 0.0781966 1.18329
v -0.4064175 0.08029531 1.165918
v -0.416485 0.07528673 1.139708
v -0.4410775 0.02683529 1.182563
v -0.444293 0.02708973 1.151243
v -0.4064175 0.08029531 1.165918
v -0.416485 0.07528673 1.139708
v -0.399976 0.02264873 1.103062
v -0.41247 0.0002707347 1.107204
v -0.393096 0.008507734 1.064228
v -0.400586 -0.01792927 1.066734
v -0.450443 0.001085735 1.090236
v -0.431135 -0.01593827 1.057
v -0.390198 -0.002516265 1.014358
v -0.393341 -0.01896126 1.00497
v -0.411027 -0.01591226 0.9970563
v -0.4779675 0.01330343 1.083282
v -0.4301461 0.0243961 1.072472
v -0.4225325 0.008089704 1.047847
v -0.4807732 0.01129623 1.051382
v -0.450443 0.001085735 1.090236
v -0.4452779 0.02544616 1.041386
v -0.4529364 0.01336473 0.9958889
v -0.4723597 0.001613735 0.991933
v -0.4426012 -0.006738729 0.9469226
v -0.4710913 0.02531134 0.9844981
v -0.4423324 0.01156238 0.9434134
v -0.4301456 0.001555734 0.9527937
v -0.4854732 0.03965648 1.041055
v -0.4606806 0.05094078 1.037241
v -0.4936797 0.07129999 1.085292
v -0.4960543 0.06879862 1.038492
v -0.485479 0.1207337 1.044316
v -0.4763966 0.1070037 0.983784
v -0.48243 0.06653469 0.9806179
v -0.4622113 0.1203807 1.038822
v -0.4560742 0.1079557 0.992088
v -0.44573 0.09175573 0.9427581
v -0.441911 0.05488483 0.9360031
v -0.4358425 0.09036473 0.9541526
v -0.424389 0.04905273 0.9419816
v -0.4341603 0.02945539 0.9396436
v -0.467831 0.03532704 0.9842117
v -0.4606806 0.05094078 1.037241
v -0.467831 0.03532704 0.9842117
v -0.4606806 0.05094078 1.037241
v -0.424389 0.04905273 0.9419816
v -0.4341603 0.02945539 0.9396436
v -0.4766252 0.1226008 1.07732
v -0.4576193 0.1224591 1.072364
v -0.448704 0.06407356 1.067067
v -0.4301461 0.0243961 1.072472
v -0.4452779 0.02544616 1.041386
v -0.4710913 0.02531134 0.9844981
v -0.4529364 0.01336473 0.9958889
v -0.4423324 0.01156238 0.9434134
v -0.4301456 0.001555734 0.9527937
v -0.399976 0.02264873 1.103062
v -0.393096 0.008507734 1.064228
v -0.4225325 0.008089704 1.047847
v -0.390198 -0.002516265 1.014358
v -0.407023 0.004054734 1.005812
v -0.393341 -0.01896126 1.00497
v -0.411027 -0.01591226 0.9970563
v -0.4426012 -0.006738729 0.9469226
v -0.4301456 0.001555734 0.9527937
v -0.4423324 0.01156238 0.9434134
v -0.407023 0.004054734 1.005812
v -3.631015E-08 0.1915021 1.17834
v 0.08636512 0.1241486 1.355501
v 0.1231292 0.1562827 1.179551
v 1.026218E-07 0.1409172 1.356784
v 0.1930831 0.03218304 1.335392
v 0.2387505 0.06605317 1.187991
v 0.2026197 -0.03206551 1.297199
v 0.2278793 -0.06652758 1.176039
v 0.08416831 -0.1254569 1.297096
v 0.09218939 -0.1450344 1.145173
v -3.631015E-08 0.1915021 1.17834
v -0.08636492 0.1241485 1.355502
v 1.026218E-07 0.1409172 1.356784
v -0.1231292 0.1562826 1.179551
v -0.1930829 0.03218296 1.335392
v -0.2387506 0.06605307 1.187991
v -0.2026196 -0.03206559 1.297199
v -0.2278792 -0.06652767 1.176039
v -0.08416809 -0.1254569 1.297096
v -0.09218934 -0.1450345 1.145173
vt 0.808944 0.5662992
vt 0.8169257 0.6338705
vt 0.8435846 0.6008354
vt 0.8600864 0.6161227
vt 0.8806639 0.6624755
vt 0.89661 0.6190995
vt 0.932705 0.6210104
vt 0.9663138 0.6810011
vt 0.9839036 0.6318946
vt 0.808944 0.5662992
vt 0.7766496 0.6039843
vt 0.8169257 0.6338705
vt 0.808944 0.5662992
vt 0.8435846 0.6008354
vt 0.8600864 0.6161227
vt 0.8806639 0.6624755
vt 0.89661 0.6190995
vt 0.932705 0.6210104
vt 0.9663138 0.6810011
vt 0.9839036 0.6318946
vt 0.01537448 0.3444495
vt 0.06841476 0.3128659
vt 0.05853439 0.3572831
vt 0.03119056 0.3029838
vt 0.03775948 0.2836612
vt 0.06856365 0.2494816
vt 0.02672963 0.2522976
vt 0.01497497 0.221683
vt 0.0522642 0.1716659
vt 0.005074139 0.1752373
vt 0.01537448 0.3444495
vt 0.06841476 0.3128659
vt 0.03119056 0.3029838
vt 0.05853439 0.3572831
vt 0.03775948 0.2836612
vt 0.06856365 0.2494816
vt 0.02672963 0.2522976
vt 0.01497497 0.221683
vt 0.0522642 0.1716659
vt 0.005074139 0.1752373
vt 0.621084 0.01894789
vt 0.57823 0.08875614
vt 0.5594311 0.02199719
vt 0.6407545 0.07679112
vt 0.702096 0.02149202
vt 0.6977721 0.08806724
vt 0.613149 0.1736537
vt 0.58074 0.1722427
vt 0.6018723 0.2174269
vt 0.6577821 0.2357132
vt 0.6819566 0.1890921
vt 0.7334126 0.2173925
vt 0.7357032 0.1887282
vt 0.7022107 0.2774357
vt 0.5221682 0.06667846
vt 0.5179685 0.02095247
vt 0.5287904 0.09193519
vt 0.7069238 0.2802724
vt 0.7709804 0.2435866
vt 0.7713355 0.1915261
vt 0.740196 0.08841513
vt 0.749148 0.01558026
vt 0.7943741 0.09014132
vt 0.8165144 0.1663558
vt 0.8735437 0.09587824
vt 0.798277 0.009442423
vt 0.8683459 0.0207057
vt 0.9098413 0.06140903
vt 0.9119214 0.1096062
vt 0.9595887 0.08724394
vt 0.9363154 0.05475456
vt 0.977763 0.061643
vt 0.9207693 0.02788115
vt 0.9026227 0.02791196
vt 0.9597257 0.04250706
vt 0.9355466 0.02128622
vt 0.8659586 0.161416
vt 0.9937238 0.09552029
vt 0.9402708 0.1247036
vt 0.9735369 0.1414849
vt 0.9017301 0.1726579
vt 0.9437395 0.1952955
vt 0.938232 0.02124423
vt 0.9460294 0.0301261
vt 0.938232 0.02124423
vt 0.9709671 0.3887514
vt 0.8806124 0.3597764
vt 0.9068124 0.4476514
vt 0.9847171 0.4680514
vt 0.9310125 0.5260514
vt 0.9858171 0.5374514
vt 0.9399124 0.5745514
vt 0.9865171 0.5678514
vt 0.8154124 0.4152514
vt 0.8856124 0.5667514
vt 0.8238124 0.5438514
vt 0.8364124 0.4850514
vt 0.8020124 0.3503514
vt 0.9745747 0.5965793
vt 0.9917917 0.5896856
vt 0.7995124 0.2971514
vt 0.7944124 0.3006514
vt 0.9377292 0.6107769
vt 0.8189301 0.2384201
vt 0.9133124 0.2793514
vt 0.982017 0.3169514
vt 0.9808538 0.2091306
vt 0.8577625 0.1823014
vt 0.9230124 0.2009514
vt 0.8851746 0.7527427
vt 0.8540463 0.6937918
vt 0.8965 0.6836
vt 0.8238 0.72005
vt 0.9594 0.69335
vt 0.9357 0.7416
vt 0.9436025 0.7921571
vt 0.9832 0.7363
vt 0.9938 0.7931
vt 0.97065 0.85515
vt 0.8411684 0.8126828
vt 0.8714406 0.8059046
vt 0.9121 0.8862
vt 0.9094996 0.7967659
vt 0.8599 0.88575
vt 0.8733 0.9352
vt 0.8102617 0.8160209
vt 0.782875 0.894975
vt 0.8429 0.9755
vt 0.78545 0.98045
vt 0.7216 0.9699
vt 0.7177 0.9003625
vt 0.7738516 0.8211504
vt 0.7531999 0.73665
vt 0.7195 0.8263
vt 0.69835 0.74525
vt 0.6561635 0.7722414
vt 0.6756 0.6533
vt 0.6167 0.66495
vt 0.736 0.63845
vt 0.7903 0.6259
vt 0.657702 0.9229574
vt 0.6605882 0.8349768
vt 0.6583 0.99145
vt 0.5762 0.8413
vt 0.573075 0.90765
vt 0.5429 0.71095
vt 0.56705 0.7737
vt 0.56805 0.97565
vt 0.5592667 0.8430334
vt 0.5564666 0.9069
vt 0.5519333 0.9705333
vt 0.5503666 0.7779666
vt 0.5279333 0.7176334
vt 0.5093371 0.2137625
vt 0.5964693 0.2912139
vt 0.6042993 0.2397045
vt 0.5020142 0.2717954
vt 0.5758555 0.3666109
vt 0.4902368 0.3635998
vt 0.5608928 0.4090768
vt 0.4994831 0.4426927
vt 0.5936034 0.486454
vt 0.517262 0.5241112
vt 0.6210976 0.01895448
vt 0.5594311 0.02199719
vt 0.57823 0.08875614
vt 0.6409237 0.07790265
vt 0.7040187 0.02126115
vt 0.6980796 0.08933142
vt 0.613149 0.1736537
vt 0.58074 0.1722427
vt 0.6018723 0.2174269
vt 0.6577821 0.2357132
vt 0.6819566 0.1890921
vt 0.7334126 0.2173925
vt 0.7367352 0.1887498
vt 0.7022107 0.2774357
vt 0.5221682 0.06667846
vt 0.5179685 0.02095247
vt 0.5287904 0.09193519
vt 0.7069238 0.2802724
vt 0.7709804 0.2435866
vt 0.7713355 0.1915261
vt 0.7501503 0.01518748
vt 0.7403498 0.08904722
vt 0.7944772 0.08985419
vt 0.7983469 0.0091406
vt 0.8735437 0.09587824
vt 0.8683459 0.0207057
vt 0.8165144 0.1663558
vt 0.9098413 0.06140903
vt 0.9119214 0.1096062
vt 0.9595887 0.08724394
vt 0.9363154 0.05475456
vt 0.977763 0.061643
vt 0.9207693 0.02788115
vt 0.9026227 0.02791196
vt 0.9597257 0.04250706
vt 0.9355466 0.02128622
vt 0.8659586 0.161416
vt 0.9937238 0.09552029
vt 0.9402708 0.1247036
vt 0.9735369 0.1414849
vt 0.9017301 0.1726579
vt 0.9437395 0.1952955
vt 0.938232 0.02124423
vt 0.9460294 0.0301261
vt 0.938232 0.02124423
vt 0.9709671 0.3887514
vt 0.9068124 0.4476514
vt 0.8806124 0.3597764
vt 0.9847171 0.4680514
vt 0.9310125 0.5260514
vt 0.9858171 0.5374514
vt 0.9399124 0.5745514
vt 0.9865171 0.5678514
vt 0.8154124 0.4152514
vt 0.8856124 0.5667514
vt 0.8238124 0.5438514
vt 0.8364124 0.4850514
vt 0.8020124 0.3503514
vt 0.9745747 0.5965793
vt 0.9917917 0.5896856
vt 0.7995124 0.2971514
vt 0.7944124 0.3006514
vt 0.9377292 0.6107769
vt 0.8189301 0.2384201
vt 0.9133124 0.2793514
vt 0.982017 0.3169514
vt 0.9808538 0.2091306
vt 0.8577625 0.1823014
vt 0.9230124 0.2009514
vt 0.8851746 0.7527427
vt 0.8965 0.6836
vt 0.8540463 0.6937918
vt 0.8238 0.72005
vt 0.9594 0.69335
vt 0.9357 0.7416
vt 0.9436025 0.7921571
vt 0.9832 0.7363
vt 0.9938 0.7931
vt 0.97065 0.85515
vt 0.8411684 0.8126828
vt 0.8714406 0.8059046
vt 0.9121 0.8862
vt 0.9094996 0.7967659
vt 0.8599 0.88575
vt 0.8733 0.9352
vt 0.8102617 0.8160209
vt 0.782875 0.894975
vt 0.8429 0.9755
vt 0.78545 0.98045
vt 0.7216 0.9699
vt 0.7177 0.9003625
vt 0.7738516 0.8211504
vt 0.7531999 0.73665
vt 0.7195 0.8263
vt 0.69835 0.74525
vt 0.6561635 0.7722414
vt 0.6756 0.6533
vt 0.6167 0.66495
vt 0.736 0.63845
vt 0.7903 0.6259
vt 0.657702 0.9229574
vt 0.6605882 0.8349768
vt 0.6583 0.99145
vt 0.5762 0.8413
vt 0.573075 0.90765
vt 0.5429 0.71095
vt 0.56705 0.7737
vt 0.56805 0.97565
vt 0.5592667 0.8430334
vt 0.5564666 0.9069
vt 0.5519333 0.9705333
vt 0.5503666 0.7779666
vt 0.5279333 0.7176334
vt 0.5093371 0.2137625
vt 0.5964693 0.2912139
vt 0.5020142 0.2717954
vt 0.6042993 0.2397045
vt 0.5758555 0.3666109
vt 0.4902368 0.3635998
vt 0.5608928 0.4090768
vt 0.4994831 0.4426927
vt 0.5936034 0.486454
vt 0.517262 0.5241112
vt 0.7889363 0.3627499
vt 0.7780021 0.3887468
vt 0.7924475 0.3866954
vt 0.7761154 0.361849
vt 0.7933094 0.3384438
vt 0.7820657 0.3390904
vt 0.7962819 0.4111086
vt 0.7843685 0.4173587
vt 0.8136361 0.4300866
vt 0.8041351 0.4356845
vt 0.7801932 0.446328
vt 0.7715594 0.4401849
vt 0.7703741 0.4623152
vt 0.761143 0.4559842
vt 0.7561885 0.4293857
vt 0.7507963 0.4489505
vt 0.7533686 0.4781058
vt 0.7447008 0.476782
vt 0.7365074 0.4728218
vt 0.7486526 0.4147648
vt 0.7419302 0.4342222
vt 0.7395092 0.4473712
vt 0.7312859 0.4125172
vt 0.7561885 0.4293857
vt 0.7343504 0.4317958
vt 0.7128818 0.4346164
vt 0.7089333 0.426147
vt 0.6919966 0.4407673
vt 0.703135 0.4199109
vt 0.684879 0.4357018
vt 0.691625 0.445469
vt 0.7218637 0.3981628
vt 0.7075409 0.3991123
vt 0.7481831 0.3876792
vt 0.7269419 0.3838279
vt 0.7348079 0.3633301
vt 0.7109331 0.3563139
vt 0.7043391 0.3711047
vt 0.7328579 0.3553883
vt 0.7120041 0.348184
vt 0.6908761 0.3510903
vt 0.6802364 0.3625138
vt 0.6916754 0.3425546
vt 0.6721922 0.3584214
vt 0.6725427 0.3707969
vt 0.697612 0.381648
vt 0.7075409 0.3991123
vt 0.7110636 0.3168105
vt 0.7351165 0.327769
vt 0.6843305 0.3235294
vt 0.6864024 0.3141811
vt 0.7496467 0.362798
vt 0.7477594 0.3576139
vt 0.7474986 0.3404739
vt 0.7532118 0.317772
vt 0.7416927 0.3179699
vt 0.7119457 0.3150718
vt 0.7203491 0.3087863
vt 0.7013924 0.295464
vt 0.7092036 0.2902711
vt 0.7703763 0.3125041
vt 0.7553242 0.3008208
vt 0.7439484 0.309781
vt 0.7354728 0.2911379
vt 0.7293923 0.2974187
vt 0.7289802 0.2858132
vt 0.722192 0.29107
vt 0.6919966 0.4407673
vt 0.684879 0.4357018
vt 0.691625 0.445469
vt 0.7302724 0.4651132
vt 0.7889363 0.3627499
vt 0.7780021 0.3887468
vt 0.7761154 0.361849
vt 0.7924475 0.3866954
vt 0.7933094 0.3384438
vt 0.7820657 0.3390904
vt 0.7962819 0.4111086
vt 0.7843685 0.4173587
vt 0.8136361 0.4300866
vt 0.8041351 0.4356845
vt 0.7801932 0.446328
vt 0.7715594 0.4401849
vt 0.7703741 0.4623152
vt 0.761143 0.4559842
vt 0.7561885 0.4293857
vt 0.7507963 0.4489505
vt 0.7533686 0.4781058
vt 0.7447008 0.476782
vt 0.7365074 0.4728218
vt 0.7486526 0.4147648
vt 0.7419302 0.4342222
vt 0.7395092 0.4473712
vt 0.7312859 0.4125172
vt 0.7561885 0.4293857
vt 0.7343504 0.4317958
vt 0.7128818 0.4346164
vt 0.7089333 0.426147
vt 0.6919966 0.4407673
vt 0.703135 0.4199109
vt 0.684879 0.4357018
vt 0.691625 0.445469
vt 0.7218637 0.3981628
vt 0.7075409 0.3991123
vt 0.7481831 0.3876792
vt 0.7269419 0.3838279
vt 0.7348079 0.3633301
vt 0.7109331 0.3563139
vt 0.7043391 0.3711047
vt 0.7328579 0.3553883
vt 0.7120041 0.348184
vt 0.6908761 0.3510903
vt 0.6802364 0.3625138
vt 0.6916754 0.3425546
vt 0.6721922 0.3584214
vt 0.6725427 0.3707969
vt 0.697612 0.381648
vt 0.7075409 0.3991123
vt 0.7110636 0.3168105
vt 0.7351165 0.327769
vt 0.6843305 0.3235294
vt 0.6864024 0.3141811
vt 0.7496467 0.362798
vt 0.7477594 0.3576139
vt 0.7474986 0.3404739
vt 0.7532118 0.317772
vt 0.7416927 0.3179699
vt 0.7119457 0.3150718
vt 0.7203491 0.3087863
vt 0.7013924 0.295464
vt 0.7092036 0.2902711
vt 0.7703763 0.3125041
vt 0.7553242 0.3008208
vt 0.7439484 0.309781
vt 0.7354728 0.2911379
vt 0.7293923 0.2974187
vt 0.7289802 0.2858132
vt 0.722192 0.29107
vt 0.6919966 0.4407673
vt 0.691625 0.445469
vt 0.684879 0.4357018
vt 0.7302724 0.4651132
vt 0.5093371 0.2137625
vt 0.5964693 0.2912139
vt 0.5020142 0.2717954
vt 0.6042993 0.2397045
vt 0.5758555 0.3666109
vt 0.4902368 0.3635998
vt 0.5608928 0.4090768
vt 0.4994831 0.4426927
vt 0.5936034 0.486454
vt 0.517262 0.5241112
vt 0.5093371 0.2137625
vt 0.5964693 0.2912139
vt 0.6042993 0.2397045
vt 0.5020142 0.2717954
vt 0.5758555 0.3666109
vt 0.4902368 0.3635998
vt 0.5608928 0.4090768
vt 0.4994831 0.4426927
vt 0.5936034 0.486454
vt 0.517262 0.5241112
vn 0 0.9987313 0.0503562
vn -0.5195552 0.8526694 0.05493094
vn -0.4969489 0.8664897 0.04730122
vn -0.8508748 0.5230944 -0.0488285
vn -0.8737819 0.406444 -0.2670366
vn -0.8904485 0.2659806 -0.3692638
vn -0.8108162 0.3295551 -0.483705
vn -0.7775902 0.3806416 -0.5004652
vn -0.7269864 0.3176006 -0.6087862
vn 0 0.9987313 0.0503562
vn -4.001826E-07 0.9992722 0.03814743
vn 0.5195552 0.8526694 0.05493094
vn 0 0.9987313 0.0503562
vn 0.4969489 0.8664897 0.04730122
vn 0.8508748 0.5230944 -0.0488285
vn 0.8737819 0.406444 -0.2670366
vn 0.8904485 0.2659806 -0.3692638
vn 0.8108162 0.3295551 -0.483705
vn 0.7775902 0.3806416 -0.5004652
vn 0.7269864 0.3176006 -0.6087862
vn 0 -0.9987313 -0.0503562
vn 0.5098075 -0.8585328 -0.05493389
vn 4.838571E-07 -0.9992722 -0.03814743
vn 0.4871385 -0.8720427 -0.04730241
vn 0.8508748 -0.5230944 0.0488285
vn 0.8737819 -0.406444 0.2670366
vn 0.8904485 -0.2659806 0.3692638
vn 0.8108162 -0.3295551 0.483705
vn 0.7775902 -0.3806416 0.5004652
vn 0.7269864 -0.3176006 0.6087862
vn 0 -0.9987313 -0.0503562
vn -0.5098075 -0.8585328 -0.05493389
vn -0.4871385 -0.8720427 -0.04730241
vn 4.838571E-07 -0.9992722 -0.03814743
vn -0.8508748 -0.5230944 0.0488285
vn -0.8737819 -0.406444 0.2670366
vn -0.8904485 -0.2659806 0.3692638
vn -0.8108162 -0.3295551 0.483705
vn -0.7775902 -0.3806416 0.5004652
vn -0.7269864 -0.3176006 0.6087862
vn 2.248313E-07 -0.9953686 -0.09613218
vn 0.396627 -0.9174204 -0.03204296
vn 1.222355E-07 -0.9911494 -0.1327509
vn 0.4845543 -0.8684022 -0.105284
vn -0.009966095 -0.9997221 -0.02136403
vn 0.5164399 -0.8515775 -0.09003127
vn 0.9427735 -0.3333466 -0.00762916
vn 0.8781192 -0.4150277 0.2380306
vn 0.9045095 0.4037342 0.1373359
vn 0.8661256 0.4272454 -0.259399
vn 0.9366465 -0.3004621 -0.1800437
vn 0.7472622 -0.2109542 -0.6301568
vn 0.850299 -0.5084771 -0.1358037
vn 0.4220723 0.391175 -0.8178247
vn 0.2456703 -0.9608419 -0.1281758
vn 3.151657E-07 -0.9977436 -0.06713931
vn 0.3162441 -0.9345223 -0.163272
vn -0.3066318 0.141493 -0.9412527
vn 0.4510904 -0.8118078 -0.3707906
vn 0.6778757 -0.7207436 -0.1449593
vn 0.4565971 -0.8867787 0.07171283
vn -0.00902736 -0.9880117 0.1541146
vn 0.3542867 -0.8246346 0.440975
vn 0.4734002 -0.8251603 0.3082251
vn 0.2038775 -0.6135636 0.762872
vn 7.479533E-07 -0.8701149 0.4928489
vn 7.6626E-07 -0.6856398 0.7279409
vn 0.2835008 -0.6816834 0.6744887
vn 0.1940875 -0.6490964 0.7355296
vn 0.6203453 -0.6000804 0.5050498
vn 0.6266578 -0.7642101 0.1525875
vn 0.9753197 0.1808638 0.1266475
vn 4.300105E-07 -0.997201 0.07476831
vn 1.1663E-06 -0.7369532 0.6759437
vn 0.9689565 -0.1411949 -0.2029468
vn 0 -0.9636886 -0.267029
vn 0.2216078 -0.6770052 0.7018217
vn 0.6464378 0.3994218 0.6500618
vn 0.2747227 -0.6301648 0.7262366
vn 0.4506737 0.0876734 0.888373
vn 0.2413062 -0.4654682 0.8515342
vn 0.3645882 0.01631203 0.9310259
vn 6.315499E-07 -0.9875724 -0.1571647
vn 0.666785 -0.7330534 -0.1342773
vn 6.315499E-07 -0.9875724 -0.1571647
vn -4.667627E-07 0.9788724 -0.2044722
vn 0.2183136 0.8803121 -0.4211764
vn 0.09994929 0.9605814 0.2594104
vn 2.837619E-07 0.925635 0.3784174
vn 0.1357672 0.6052538 0.7843692
vn 1.426368E-06 0.5647796 0.8252419
vn 0.6464378 0.3994218 0.6500618
vn 2.275283E-06 0.758583 0.6515765
vn 0.4182973 0.8959154 0.1495418
vn 0.4506737 0.0876734 0.888373
vn 0.3645882 0.01631203 0.9310259
vn 0.3729199 0.6529437 0.6592385
vn -0.01659454 0.8123694 -0.582907
vn 0.5292299 0.8349234 0.1510587
vn -3.368882E-07 0.9921408 0.1251263
vn 0.4220723 0.391175 -0.8178247
vn -0.3066318 0.141493 -0.9412527
vn 0.9753197 0.1808638 0.1266475
vn 0.8661256 0.4272454 -0.259399
vn 0.4512811 0.790791 -0.4135154
vn -6.941948E-07 0.897496 -0.4410225
vn -3.899819E-07 0.9999988 -0.001525842
vn 0.9045095 0.4037342 0.1373359
vn 0.4293471 0.9028496 0.02288834
vn 0.7068499 -0.6141665 0.3509454
vn 0.6778757 -0.7207436 -0.1449593
vn 0.4734002 -0.8251603 0.3082251
vn 0.4510904 -0.8118078 -0.3707906
vn 0.2216078 -0.6770052 0.7018217
vn 0.3677661 -0.4616151 0.8072543
vn 0.4159193 0.07097338 0.9066278
vn 0.2413062 -0.4654682 0.8515342
vn 0.3645882 0.01631203 0.9310259
vn 0.3729199 0.6529437 0.6592385
vn 0.9301348 0.1174114 0.3479421
vn 0.9429237 0.1525767 0.2959987
vn 0.4182973 0.8959154 0.1495418
vn 0.6438677 0.1696447 0.7460932
vn 0.3887075 0.9166479 0.09307619
vn -0.01659454 0.8123694 -0.582907
vn 0.8453879 0.008202094 0.5340899
vn 0.1399876 0.9869695 -0.079339
vn -0.3066318 0.141493 -0.9412527
vn -0.8476352 0.03404655 -0.5294859
vn -0.8827958 0.2364359 -0.4059182
vn 0.1857605 0.9823949 -0.0198348
vn 0.9462093 -0.00286152 0.3235425
vn 0.03929131 -0.9929998 -0.111389
vn 0.9486309 -0.0362364 0.3143031
vn 0.009918397 -0.9999462 -0.003051815
vn -0.1121524 -0.9870791 0.1144412
vn -0.8827958 0.2364359 -0.4059182
vn -0.9537224 0.0948 -0.2853537
vn -0.8476352 0.03404655 -0.5294859
vn -0.3066318 0.141493 -0.9412527
vn 0.1216995 0.9884751 -0.09003478
vn 0.9459343 -0.05940696 0.3188714
vn -0.9537224 0.0948 -0.2853537
vn 0.9991028 -0.04234456 -0.0007629651
vn 0.1209218 0.9294192 -0.3486514
vn -0.9331423 -0.009918929 -0.3593704
vn -0.003433213 -0.9989459 -0.04577618
vn -0.9331423 -0.009918929 -0.3593704
vn 0.9958149 -0.05565689 -0.07249227
vn 0.05798471 0.9177415 -0.3929227
vn -0.9408075 0.02498901 -0.3380192
vn -0.05035434 -0.9982651 -0.03051778
vn -0.9408075 0.02498901 -0.3380192
vn -2.272909E-07 0.9691585 0.2464382
vn 0.4293471 0.9028496 0.02288834
vn -3.899819E-07 0.9999988 -0.001525842
vn 0.453346 0.8474728 0.2761653
vn 0.9045095 0.4037342 0.1373359
vn 0.852242 0.3986539 0.3387605
vn 0.8781192 -0.4150277 0.2380306
vn 0.7833502 -0.5659119 0.2571113
vn 0.396627 -0.9174204 -0.03204296
vn 0.4725567 -0.8705343 0.1373323
vn 2.248313E-07 -0.9953686 -0.09613218
vn 1.222355E-07 -0.9911494 -0.1327509
vn -0.396627 -0.9174204 -0.03204296
vn -0.4845543 -0.8684022 -0.105284
vn -0.009966095 -0.9997221 -0.02136403
vn -0.5075417 -0.8578236 -0.08087097
vn -0.9427735 -0.3333466 -0.00762916
vn -0.8781192 -0.4150277 0.2380306
vn -0.9045095 0.4037342 0.1373359
vn -0.8661256 0.4272454 -0.259399
vn -0.9366465 -0.3004621 -0.1800437
vn -0.7472584 -0.210977 -0.6301536
vn -0.850299 -0.5084771 -0.1358037
vn -0.4220723 0.391175 -0.8178247
vn -0.2456703 -0.9608419 -0.1281758
vn 3.151657E-07 -0.9977436 -0.06713931
vn -0.3162441 -0.9345223 -0.163272
vn 0.3066318 0.141493 -0.9412527
vn -0.4510904 -0.8118078 -0.3707906
vn -0.6778757 -0.7207436 -0.1449593
vn -0.00902736 -0.9880117 0.1541146
vn -0.44596 -0.8929692 0.06103816
vn -0.3542867 -0.8246346 0.440975
vn 7.479533E-07 -0.8701149 0.4928489
vn -0.2038775 -0.6135636 0.762872
vn 7.6626E-07 -0.6856398 0.7279409
vn -0.4734002 -0.8251603 0.3082251
vn -0.2835008 -0.6816834 0.6744887
vn -0.1940875 -0.6490964 0.7355296
vn -0.6203453 -0.6000804 0.5050498
vn -0.6266578 -0.7642101 0.1525875
vn -0.9753197 0.1808638 0.1266475
vn 4.300105E-07 -0.997201 0.07476831
vn 1.1663E-06 -0.7369532 0.6759437
vn -0.9689626 -0.141165 -0.2029381
vn 0 -0.9636886 -0.267029
vn -0.2216078 -0.6770052 0.7018217
vn -0.6464378 0.3994218 0.6500618
vn -0.2747227 -0.6301648 0.7262366
vn -0.4506737 0.0876734 0.888373
vn -0.2413062 -0.4654682 0.8515342
vn -0.3645882 0.01631203 0.9310259
vn 6.315499E-07 -0.9875724 -0.1571647
vn -0.666785 -0.7330534 -0.1342773
vn 6.315499E-07 -0.9875724 -0.1571647
vn -4.667627E-07 0.9788724 -0.2044722
vn -0.09994929 0.9605814 0.2594104
vn -0.2183136 0.8803121 -0.4211764
vn 2.837619E-07 0.925635 0.3784174
vn -0.1357672 0.6052538 0.7843692
vn 1.426368E-06 0.5647796 0.8252419
vn -0.6464378 0.3994218 0.6500618
vn 2.275283E-06 0.758583 0.6515765
vn -0.4182973 0.8959154 0.1495418
vn -0.4506737 0.0876734 0.888373
vn -0.3645882 0.01631203 0.9310259
vn -0.3729199 0.6529437 0.6592385
vn 0.01659454 0.8123694 -0.582907
vn -0.5292299 0.8349234 0.1510587
vn -3.368882E-07 0.9921408 0.1251263
vn -0.4220723 0.391175 -0.8178247
vn 0.3066318 0.141493 -0.9412527
vn -0.9753197 0.1808638 0.1266475
vn -0.8661256 0.4272454 -0.259399
vn -0.4512811 0.790791 -0.4135154
vn -6.941948E-07 0.897496 -0.4410225
vn -3.899819E-07 0.9999988 -0.001525842
vn -0.9045095 0.4037342 0.1373359
vn -0.4294248 0.9028125 0.0228874
vn -0.7068499 -0.6141665 0.3509454
vn -0.4734002 -0.8251603 0.3082251
vn -0.6778757 -0.7207436 -0.1449593
vn -0.4510904 -0.8118078 -0.3707906
vn -0.2216078 -0.6770052 0.7018217
vn -0.3677661 -0.4616151 0.8072543
vn -0.4159193 0.07097338 0.9066278
vn -0.2413062 -0.4654682 0.8515342
vn -0.3645882 0.01631203 0.9310259
vn -0.3729199 0.6529437 0.6592385
vn -0.9301348 0.1174114 0.3479421
vn -0.9429237 0.1525767 0.2959987
vn -0.4182973 0.8959154 0.1495418
vn -0.6438677 0.1696447 0.7460932
vn -0.3887075 0.9166479 0.09307619
vn 0.01659454 0.8123694 -0.582907
vn -0.8453879 0.008202094 0.5340899
vn -0.1399876 0.9869695 -0.079339
vn 0.3066318 0.141493 -0.9412527
vn 0.8476352 0.03404655 -0.5294859
vn 0.8827958 0.2364359 -0.4059182
vn -0.1857605 0.9823949 -0.0198348
vn -0.9462093 -0.00286152 0.3235425
vn -0.03929131 -0.9929998 -0.111389
vn -0.9486309 -0.0362364 0.3143031
vn -0.009918397 -0.9999462 -0.003051815
vn 0.1121524 -0.9870791 0.1144412
vn 0.8827958 0.2364359 -0.4059182
vn 0.9532714 0.0947931 -0.2868588
vn 0.8476352 0.03404655 -0.5294859
vn 0.3066318 0.141493 -0.9412527
vn -0.1216995 0.9884751 -0.09003478
vn -0.9459343 -0.05940696 0.3188714
vn 0.9532714 0.0947931 -0.2868588
vn -0.9991028 -0.04234456 -0.0007629651
vn -0.1209218 0.9294192 -0.3486514
vn 0.9331423 -0.009918929 -0.3593704
vn 0.003433213 -0.9989459 -0.04577618
vn 0.9331423 -0.009918929 -0.3593704
vn -0.9958149 -0.05565689 -0.07249227
vn -0.05798471 0.9177415 -0.3929227
vn 0.9408075 0.02498901 -0.3380192
vn 0.05035434 -0.9982651 -0.03051778
vn 0.9408075 0.02498901 -0.3380192
vn -2.272909E-07 0.9691585 0.2464382
vn -0.4294248 0.9028125 0.0228874
vn -0.453346 0.8474728 0.2761653
vn -3.899819E-07 0.9999988 -0.001525842
vn -0.9045095 0.4037342 0.1373359
vn -0.852242 0.3986539 0.3387605
vn -0.8781192 -0.4150277 0.2380306
vn -0.7833502 -0.5659119 0.2571113
vn -0.396627 -0.9174204 -0.03204296
vn -0.4725567 -0.8705343 0.1373323
vn 0.05798471 0.9177415 -0.3929227
vn 0.9892101 -0.0298041 0.1434412
vn 0.9958149 -0.05565689 -0.07249227
vn -0.07820014 0.993714 -0.08010747
vn -0.9408075 0.02498901 -0.3380192
vn -0.966984 0.1571111 -0.2006444
vn -0.05035434 -0.9982651 -0.03051778
vn -0.0007629463 -0.9026847 0.4303017
vn -0.9408075 0.02498901 -0.3380192
vn -0.966984 0.1571111 -0.2006444
vn -0.9738723 0.1802884 0.1380892
vn -0.4104415 -0.7307493 0.5454752
vn -0.8895093 0.4556256 -0.03432926
vn -0.518414 -0.8058495 0.2861004
vn 0.4539508 -0.8867717 -0.08697545
vn 0.7339646 -0.6650005 -0.1380952
vn -0.8647 0.4359661 -0.2494547
vn -0.6172057 -0.5847576 -0.5264177
vn 0.3875938 -0.3476208 -0.8537744
vn 0.6229373 -0.7770742 0.09002646
vn -0.4280995 0.3857236 -0.8172809
vn 0.5347902 0.7092789 -0.4592635
vn 0.5340571 -0.8453242 0.01449584
vn 0.4539508 -0.8867717 -0.08697545
vn -0.9000399 -0.3110698 -0.3052276
vn -0.9824412 -0.08884893 0.1640581
vn 0.5359612 -0.8399845 -0.08468569
vn 0.07667623 -0.8305697 -0.5516111
vn 0.4535627 0.7000135 -0.5515994
vn -0.0129712 0.5707803 -0.8210005
vn -0.9880359 -0.1429094 -0.05798512
vn 0.9615777 -0.2359365 -0.1403652
vn -0.9177702 0.2072707 -0.3387282
vn 0.9936379 0.01668778 0.111379
vn 0.991913 -0.08459873 -0.09461323
vn 0.6469824 0.7587547 -0.07553214
vn 0.5668347 0.6944296 -0.4432448
vn 0.894793 -0.1247218 -0.4287073
vn -0.6527081 0.7406386 -0.1594576
vn -0.7499564 0.6608847 -0.02822827
vn 0.03585611 0.613559 -0.7888343
vn 0.2617239 -0.0355769 -0.9644868
vn -0.8533907 0.519874 0.03814889
vn -0.9715016 -0.09082797 -0.2189407
vn -0.2544431 -0.870571 -0.4211472
vn 0.03051755 -0.9973279 -0.06637567
vn -0.9177702 0.2072707 -0.3387282
vn 0.03051755 -0.9973279 -0.06637567
vn -0.9177702 0.2072707 -0.3387282
vn -0.9715016 -0.09082797 -0.2189407
vn -0.2544431 -0.870571 -0.4211472
vn 0.519561 0.8394229 0.1594541
vn -0.5912685 0.7924905 -0.1495337
vn -0.8643772 0.2458001 -0.4386734
vn -0.4280995 0.3857236 -0.8172809
vn -0.9000399 -0.3110698 -0.3052276
vn 0.4535627 0.7000135 -0.5515994
vn -0.9824412 -0.08884893 0.1640581
vn -0.0129712 0.5707803 -0.8210005
vn -0.9880359 -0.1429094 -0.05798512
vn -0.9738723 0.1802884 0.1380892
vn -0.8895093 0.4556256 -0.03432926
vn 0.5347902 0.7092789 -0.4592635
vn -0.8647 0.4359661 -0.2494547
vn 0.1586968 0.7872402 -0.595876
vn -0.6172057 -0.5847576 -0.5264177
vn 0.3875938 -0.3476208 -0.8537744
vn 0.07667623 -0.8305697 -0.5516111
vn -0.0129712 0.5707803 -0.8210005
vn -0.9880359 -0.1429094 -0.05798512
vn 0.1586968 0.7872402 -0.595876
vn -0.05798471 0.9177415 -0.3929227
vn -0.9892101 -0.0298041 0.1434412
vn 0.07820014 0.993714 -0.08010747
vn -0.9958149 -0.05565689 -0.07249227
vn 0.9408075 0.02498901 -0.3380192
vn 0.966984 0.1571111 -0.2006444
vn 0.05035434 -0.9982651 -0.03051778
vn 0.0007629463 -0.9026847 0.4303017
vn 0.9408075 0.02498901 -0.3380192
vn 0.966984 0.1571111 -0.2006444
vn 0.9738723 0.1802884 0.1380892
vn 0.4104415 -0.7307493 0.5454752
vn 0.8895093 0.4556256 -0.03432926
vn 0.518414 -0.8058495 0.2861004
vn -0.4539508 -0.8867717 -0.08697545
vn -0.7339646 -0.6650005 -0.1380952
vn 0.8647 0.4359661 -0.2494547
vn 0.6172057 -0.5847576 -0.5264177
vn -0.3875938 -0.3476208 -0.8537744
vn -0.6229373 -0.7770742 0.09002646
vn 0.4280995 0.3857236 -0.8172809
vn -0.5347902 0.7092789 -0.4592635
vn -0.5340571 -0.8453242 0.01449584
vn -0.4539508 -0.8867717 -0.08697545
vn 0.9000399 -0.3110698 -0.3052276
vn 0.9824412 -0.08884893 0.1640581
vn -0.5359612 -0.8399845 -0.08468569
vn -0.07667623 -0.8305697 -0.5516111
vn -0.4535627 0.7000135 -0.5515994
vn 0.0129712 0.5707803 -0.8210005
vn 0.9880359 -0.1429094 -0.05798512
vn -0.9615777 -0.2359365 -0.1403652
vn 0.9177702 0.2072707 -0.3387282
vn -0.9936379 0.01668778 0.111379
vn -0.991913 -0.08459873 -0.09461323
vn -0.6469824 0.7587547 -0.07553214
vn -0.5668347 0.6944296 -0.4432448
vn -0.894793 -0.1247218 -0.4287073
vn 0.6527081 0.7406386 -0.1594576
vn 0.7499564 0.6608847 -0.02822827
vn -0.03585611 0.613559 -0.7888343
vn -0.2617239 -0.0355769 -0.9644868
vn 0.8533907 0.519874 0.03814889
vn 0.9715016 -0.09082797 -0.2189407
vn 0.2544431 -0.870571 -0.4211472
vn -0.03051755 -0.9973279 -0.06637567
vn 0.9177702 0.2072707 -0.3387282
vn -0.03051755 -0.9973279 -0.06637567
vn 0.9177702 0.2072707 -0.3387282
vn 0.9715016 -0.09082797 -0.2189407
vn 0.2544431 -0.870571 -0.4211472
vn -0.519561 0.8394229 0.1594541
vn 0.5912685 0.7924905 -0.1495337
vn 0.8643772 0.2458001 -0.4386734
vn 0.4280995 0.3857236 -0.8172809
vn 0.9000399 -0.3110698 -0.3052276
vn -0.4535627 0.7000135 -0.5515994
vn 0.9824412 -0.08884893 0.1640581
vn 0.0129712 0.5707803 -0.8210005
vn 0.9880359 -0.1429094 -0.05798512
vn 0.9738723 0.1802884 0.1380892
vn 0.8895093 0.4556256 -0.03432926
vn -0.5347902 0.7092789 -0.4592635
vn 0.8647 0.4359661 -0.2494547
vn -0.1586968 0.7872402 -0.595876
vn 0.6172057 -0.5847576 -0.5264177
vn -0.3875938 -0.3476208 -0.8537744
vn -0.07667623 -0.8305697 -0.5516111
vn 0.9880359 -0.1429094 -0.05798512
vn 0.0129712 0.5707803 -0.8210005
vn -0.1586968 0.7872402 -0.595876
vn 3.048053E-07 -0.9691585 -0.2464382
vn -0.425895 -0.8644734 -0.2670188
vn -0.4534584 -0.8474093 -0.2761757
vn 0 -0.9619762 -0.2731337
vn -0.8283925 -0.4562072 -0.3250244
vn -0.852242 -0.3986539 -0.3387605
vn -0.8800227 0.3546841 -0.3158469
vn -0.7833502 0.5659119 -0.2571113
vn -0.5254648 0.8207169 -0.2243
vn -0.4725567 0.8705343 -0.1373323
vn 3.048053E-07 -0.9691585 -0.2464382
vn 0.425895 -0.8644734 -0.2670188
vn 0 -0.9619762 -0.2731337
vn 0.4534584 -0.8474093 -0.2761757
vn 0.8283925 -0.4562072 -0.3250244
vn 0.852242 -0.3986539 -0.3387605
vn 0.8800227 0.3546841 -0.3158469
vn 0.7833502 0.5659119 -0.2571113
vn 0.5254648 0.8207169 -0.2243
vn 0.4725567 0.8705343 -0.1373323
g QJ_A_S_0
f 3/3/3 2/2/2 1/1/1
f 2/2/2 3/3/3 4/4/4
f 2/2/2 4/4/4 5/5/5
f 5/5/5 4/4/4 6/6/6
f 6/6/6 7/7/7 5/5/5
f 5/5/5 7/7/7 8/8/8
f 8/8/8 7/7/7 9/9/9
f 11/11/11 10/10/10 2/2/2
f 11/11/11 12/12/12 10/10/10
f 14/14/14 13/13/13 12/12/12
f 14/14/14 12/12/12 15/15/15
f 15/15/15 12/12/12 16/16/16
f 15/15/15 16/16/16 17/17/17
f 18/18/18 17/17/17 16/16/16
f 18/18/18 16/16/16 19/19/19
f 18/18/18 19/19/19 20/20/20
f 23/23/23 22/22/22 21/21/21
f 24/24/24 21/21/21 22/22/22
f 24/24/24 22/22/22 25/25/25
f 25/25/25 22/22/22 26/26/26
f 25/25/25 26/26/26 27/27/27
f 28/28/28 27/27/27 26/26/26
f 28/28/28 26/26/26 29/29/29
f 28/28/28 29/29/29 30/30/30
f 33/33/33 32/32/32 31/31/31
f 34/34/34 31/31/31 32/32/32
f 32/32/32 33/33/33 35/35/35
f 32/32/32 35/35/35 36/36/36
f 36/36/36 35/35/35 37/37/37
f 37/37/37 38/38/38 36/36/36
f 36/36/36 38/38/38 39/39/39
f 39/39/39 38/38/38 40/40/40
f 43/43/43 42/42/42 41/41/41
f 42/42/42 44/44/44 41/41/41
f 44/44/44 45/45/45 41/41/41
f 45/45/45 44/44/44 46/46/46
f 47/47/47 44/44/44 42/42/42
f 48/48/48 47/47/47 42/42/42
f 49/49/49 47/47/47 48/48/48
f 50/50/50 47/47/47 49/49/49
f 50/50/50 51/51/51 47/47/47
f 47/47/47 51/51/51 44/44/44
f 46/46/46 44/44/44 51/51/51
f 50/50/50 52/52/52 51/51/51
f 53/53/53 51/51/51 52/52/52
f 52/52/52 50/50/50 54/54/54
f 55/55/55 42/42/42 43/43/43
f 56/56/56 55/55/55 43/43/43
f 42/42/42 55/55/55 57/57/57
f 52/52/52 54/54/54 58/58/58
f 59/59/59 52/52/52 58/58/58
f 52/52/52 59/59/59 60/60/60
f 60/60/60 53/53/53 52/52/52
f 53/53/53 60/60/60 61/61/61
f 51/51/51 53/53/53 61/61/61
f 46/46/46 51/51/51 61/61/61
f 46/46/46 61/61/61 45/45/45
f 62/62/62 45/45/45 61/61/61
f 61/61/61 63/63/63 62/62/62
f 61/61/61 60/60/60 63/63/63
f 60/60/60 64/64/64 63/63/63
f 63/63/63 64/64/64 65/65/65
f 63/63/63 65/65/65 66/66/66
f 66/66/66 62/62/62 63/63/63
f 67/67/67 66/66/66 65/65/65
f 68/68/68 67/67/67 65/65/65
f 69/69/69 68/68/68 65/65/65
f 69/69/69 70/70/70 68/68/68
f 70/70/70 71/71/71 68/68/68
f 72/72/72 71/71/71 70/70/70
f 71/71/71 73/73/73 68/68/68
f 74/74/74 68/68/68 73/73/73
f 68/68/68 74/74/74 67/67/67
f 72/72/72 75/75/75 71/71/71
f 76/76/76 73/73/73 71/71/71
f 65/65/65 77/77/77 69/69/69
f 64/64/64 77/77/77 65/65/65
f 70/70/70 78/78/78 72/72/72
f 70/70/70 79/79/79 78/78/78
f 69/69/69 79/79/79 70/70/70
f 80/80/80 78/78/78 79/79/79
f 79/79/79 81/81/81 80/80/80
f 69/69/69 81/81/81 79/79/79
f 77/77/77 81/81/81 69/69/69
f 82/82/82 80/80/80 81/81/81
f 83/83/83 76/76/76 71/71/71
f 71/71/71 75/75/75 84/84/84
f 84/84/84 85/85/85 71/71/71
f 88/88/88 87/87/87 86/86/86
f 88/88/88 86/86/86 89/89/89
f 88/88/88 89/89/89 90/90/90
f 91/91/91 90/90/90 89/89/89
f 90/90/90 91/91/91 92/92/92
f 93/93/93 92/92/92 91/91/91
f 94/94/94 87/87/87 88/88/88
f 90/90/90 92/92/92 95/95/95
f 95/95/95 96/96/96 90/90/90
f 97/97/97 90/90/90 96/96/96
f 90/90/90 97/97/97 88/88/88
f 94/94/94 88/88/88 97/97/97
f 98/98/98 87/87/87 94/94/94
f 92/92/92 93/93/93 99/99/99
f 100/100/100 99/99/99 93/93/93
f 98/98/98 101/101/101 87/87/87
f 98/98/98 102/102/102 101/101/101
f 99/99/99 103/103/103 92/92/92
f 87/87/87 101/101/101 104/104/104
f 105/105/105 87/87/87 104/104/104
f 106/106/106 87/87/87 105/105/105
f 107/107/107 106/106/106 105/105/105
f 105/105/105 104/104/104 108/108/108
f 105/105/105 108/108/108 109/109/109
f 105/105/105 109/109/109 107/107/107
f 86/86/86 87/87/87 106/106/106
f 112/112/112 111/111/111 110/110/110
f 113/113/113 110/110/110 111/111/111
f 110/110/110 114/114/114 112/112/112
f 110/110/110 115/115/115 114/114/114
f 110/110/110 116/116/116 115/115/115
f 115/115/115 117/117/117 114/114/114
f 117/117/117 115/115/115 116/116/116
f 117/117/117 116/116/116 118/118/118
f 118/118/118 116/116/116 119/119/119
f 110/110/110 113/113/113 120/120/120
f 121/121/121 110/110/110 120/120/120
f 121/121/121 120/120/120 122/122/122
f 122/122/122 119/119/119 116/116/116
f 123/123/123 122/122/122 116/116/116
f 110/110/110 123/123/123 116/116/116
f 121/121/121 123/123/123 110/110/110
f 122/122/122 123/123/123 121/121/121
f 120/120/120 124/124/124 122/122/122
f 125/125/125 122/122/122 124/124/124
f 120/120/120 126/126/126 124/124/124
f 126/126/126 120/120/120 113/113/113
f 127/127/127 125/125/125 124/124/124
f 126/126/126 127/127/127 124/124/124
f 127/127/127 128/128/128 125/125/125
f 127/127/127 129/129/129 128/128/128
f 129/129/129 127/127/127 130/130/130
f 131/131/131 130/130/130 127/127/127
f 127/127/127 132/132/132 131/131/131
f 126/126/126 132/132/132 127/127/127
f 126/126/126 133/133/133 132/132/132
f 134/134/134 131/131/131 132/132/132
f 134/134/134 132/132/132 135/135/135
f 133/133/133 135/135/135 132/132/132
f 136/136/136 134/134/134 135/135/135
f 135/135/135 137/137/137 136/136/136
f 138/138/138 136/136/136 137/137/137
f 133/133/133 139/139/139 135/135/135
f 137/137/137 135/135/135 139/139/139
f 139/139/139 133/133/133 140/140/140
f 113/113/113 140/140/140 133/133/133
f 126/126/126 113/113/113 133/133/133
f 131/131/131 141/141/141 130/130/130
f 141/141/141 131/131/131 134/134/134
f 142/142/142 141/141/141 134/134/134
f 136/136/136 142/142/142 134/134/134
f 141/141/141 143/143/143 130/130/130
f 142/142/142 144/144/144 141/141/141
f 145/145/145 141/141/141 144/144/144
f 141/141/141 145/145/145 143/143/143
f 138/138/138 146/146/146 136/136/136
f 147/147/147 136/136/136 146/146/146
f 144/144/144 142/142/142 147/147/147
f 136/136/136 147/147/147 142/142/142
f 148/148/148 143/143/143 145/145/145
f 144/144/144 149/149/149 145/145/145
f 144/144/144 147/147/147 149/149/149
f 150/150/150 145/145/145 149/149/149
f 145/145/145 150/150/150 148/148/148
f 151/151/151 148/148/148 150/150/150
f 147/147/147 146/146/146 152/152/152
f 152/152/152 149/149/149 147/147/147
f 153/153/153 152/152/152 146/146/146
f 156/156/156 155/155/155 154/154/154
f 157/157/157 154/154/154 155/155/155
f 157/157/157 155/155/155 158/158/158
f 158/158/158 159/159/159 157/157/157
f 159/159/159 158/158/158 160/160/160
f 159/159/159 160/160/160 161/161/161
f 161/161/161 160/160/160 162/162/162
f 161/161/161 162/162/162 163/163/163
f 166/166/166 165/165/165 164/164/164
f 167/167/167 166/166/166 164/164/164
f 168/168/168 167/167/167 164/164/164
f 167/167/167 168/168/168 169/169/169
f 167/167/167 170/170/170 166/166/166
f 170/170/170 171/171/171 166/166/166
f 170/170/170 172/172/172 171/171/171
f 170/170/170 173/173/173 172/172/172
f 174/174/174 173/173/173 170/170/170
f 174/174/174 170/170/170 167/167/167
f 167/167/167 169/169/169 174/174/174
f 175/175/175 173/173/173 174/174/174
f 174/174/174 176/176/176 175/175/175
f 173/173/173 175/175/175 177/177/177
f 166/166/166 178/178/178 165/165/165
f 178/178/178 179/179/179 165/165/165
f 178/178/178 166/166/166 180/180/180
f 177/177/177 175/175/175 181/181/181
f 175/175/175 182/182/182 181/181/181
f 175/175/175 183/183/183 182/182/182
f 183/183/183 175/175/175 176/176/176
f 168/168/168 184/184/184 169/169/169
f 174/174/174 185/185/185 176/176/176
f 183/183/183 176/176/176 185/185/185
f 183/183/183 185/185/185 186/186/186
f 185/185/185 184/184/184 186/186/186
f 187/187/187 186/186/186 184/184/184
f 186/186/186 187/187/187 188/188/188
f 189/189/189 188/188/188 187/187/187
f 190/190/190 186/186/186 188/188/188
f 190/190/190 183/183/183 186/186/186
f 189/189/189 191/191/191 188/188/188
f 191/191/191 192/192/192 188/188/188
f 193/193/193 192/192/192 191/191/191
f 194/194/194 193/193/193 191/191/191
f 194/194/194 195/195/195 193/193/193
f 194/194/194 191/191/191 196/196/196
f 197/197/197 196/196/196 191/191/191
f 197/197/197 191/191/191 189/189/189
f 198/198/198 195/195/195 194/194/194
f 196/196/196 199/199/199 194/194/194
f 200/200/200 188/188/188 192/192/192
f 200/200/200 190/190/190 188/188/188
f 201/201/201 193/193/193 195/195/195
f 193/193/193 201/201/201 202/202/202
f 202/202/202 192/192/192 193/193/193
f 203/203/203 202/202/202 201/201/201
f 202/202/202 203/203/203 204/204/204
f 204/204/204 192/192/192 202/202/202
f 204/204/204 200/200/200 192/192/192
f 205/205/205 204/204/204 203/203/203
f 199/199/199 206/206/206 194/194/194
f 198/198/198 194/194/194 207/207/207
f 208/208/208 207/207/207 194/194/194
f 211/211/211 210/210/210 209/209/209
f 209/209/209 210/210/210 212/212/212
f 210/210/210 213/213/213 212/212/212
f 214/214/214 212/212/212 213/213/213
f 213/213/213 215/215/215 214/214/214
f 216/216/216 214/214/214 215/215/215
f 211/211/211 217/217/217 210/210/210
f 215/215/215 213/213/213 218/218/218
f 218/218/218 213/213/213 219/219/219
f 220/220/220 219/219/219 213/213/213
f 220/220/220 213/213/213 210/210/210
f 210/210/210 217/217/217 220/220/220
f 211/211/211 221/221/221 217/217/217
f 215/215/215 222/222/222 216/216/216
f 223/223/223 216/216/216 222/222/222
f 224/224/224 221/221/221 211/211/211
f 225/225/225 221/221/221 224/224/224
f 226/226/226 222/222/222 215/215/215
f 224/224/224 211/211/211 227/227/227
f 211/211/211 228/228/228 227/227/227
f 211/211/211 229/229/229 228/228/228
f 229/229/229 230/230/230 228/228/228
f 227/227/227 228/228/228 231/231/231
f 231/231/231 228/228/228 232/232/232
f 232/232/232 228/228/228 230/230/230
f 211/211/211 209/209/209 229/229/229
f 235/235/235 234/234/234 233/233/233
f 233/233/233 236/236/236 235/235/235
f 237/237/237 233/233/233 234/234/234
f 238/238/238 233/233/233 237/237/237
f 239/239/239 233/233/233 238/238/238
f 240/240/240 238/238/238 237/237/237
f 238/238/238 240/240/240 239/239/239
f 239/239/239 240/240/240 241/241/241
f 239/239/239 241/241/241 242/242/242
f 236/236/236 233/233/233 243/243/243
f 233/233/233 244/244/244 243/243/243
f 243/243/243 244/244/244 245/245/245
f 242/242/242 245/245/245 239/239/239
f 245/245/245 246/246/246 239/239/239
f 246/246/246 233/233/233 239/239/239
f 246/246/246 244/244/244 233/233/233
f 246/246/246 245/245/245 244/244/244
f 247/247/247 243/243/243 245/245/245
f 245/245/245 248/248/248 247/247/247
f 249/249/249 243/243/243 247/247/247
f 243/243/243 249/249/249 236/236/236
f 248/248/248 250/250/250 247/247/247
f 250/250/250 249/249/249 247/247/247
f 251/251/251 250/250/250 248/248/248
f 252/252/252 250/250/250 251/251/251
f 252/252/252 253/253/253 250/250/250
f 254/254/254 250/250/250 253/253/253
f 250/250/250 254/254/254 255/255/255
f 255/255/255 249/249/249 250/250/250
f 256/256/256 249/249/249 255/255/255
f 257/257/257 255/255/255 254/254/254
f 256/256/256 255/255/255 258/258/258
f 257/257/257 258/258/258 255/255/255
f 257/257/257 259/259/259 258/258/258
f 258/258/258 259/259/259 260/260/260
f 261/261/261 260/260/260 259/259/259
f 260/260/260 262/262/262 258/258/258
f 256/256/256 258/258/258 262/262/262
f 262/262/262 263/263/263 256/256/256
f 236/236/236 256/256/256 263/263/263
f 236/236/236 249/249/249 256/256/256
f 264/264/264 254/254/254 253/253/253
f 254/254/254 264/264/264 257/257/257
f 264/264/264 265/265/265 257/257/257
f 265/265/265 259/259/259 257/257/257
f 266/266/266 264/264/264 253/253/253
f 265/265/265 264/264/264 267/267/267
f 268/268/268 267/267/267 264/264/264
f 264/264/264 266/266/266 268/268/268
f 261/261/261 259/259/259 269/269/269
f 270/270/270 269/269/269 259/259/259
f 259/259/259 265/265/265 270/270/270
f 267/267/267 270/270/270 265/265/265
f 271/271/271 268/268/268 266/266/266
f 267/267/267 268/268/268 272/272/272
f 267/267/267 272/272/272 270/270/270
f 273/273/273 272/272/272 268/268/268
f 268/268/268 271/271/271 273/273/273
f 274/274/274 273/273/273 271/271/271
f 270/270/270 275/275/275 269/269/269
f 275/275/275 270/270/270 272/272/272
f 276/276/276 269/269/269 275/275/275
f 279/279/279 278/278/278 277/277/277
f 280/280/280 277/277/277 278/278/278
f 278/278/278 279/279/279 281/281/281
f 282/282/282 281/281/281 279/279/279
f 281/281/281 282/282/282 283/283/283
f 283/283/283 282/282/282 284/284/284
f 283/283/283 284/284/284 285/285/285
f 285/285/285 284/284/284 286/286/286
f 185/185/185 169/169/169 184/184/184
f 169/169/169 185/185/185 174/174/174
f 289/289/289 288/288/288 287/287/287
f 290/290/290 287/287/287 288/288/288
f 287/287/287 290/290/290 291/291/291
f 292/292/292 291/291/291 290/290/290
f 289/289/289 293/293/293 288/288/288
f 294/294/294 288/288/288 293/293/293
f 293/293/293 295/295/295 294/294/294
f 296/296/296 294/294/294 295/295/295
f 297/297/297 294/294/294 296/296/296
f 298/298/298 294/294/294 297/297/297
f 297/297/297 299/299/299 298/298/298
f 300/300/300 298/298/298 299/299/299
f 298/298/298 300/300/300 301/301/301
f 298/298/298 301/301/301 294/294/294
f 302/302/302 301/301/301 300/300/300
f 299/299/299 303/303/303 300/300/300
f 304/304/304 300/300/300 303/303/303
f 300/300/300 304/304/304 302/302/302
f 305/305/305 302/302/302 304/304/304
f 294/294/294 301/301/301 306/306/306
f 306/306/306 288/288/288 294/294/294
f 301/301/301 307/307/307 306/306/306
f 308/308/308 307/307/307 302/302/302
f 306/306/306 307/307/307 309/309/309
f 302/302/302 307/307/307 310/310/310
f 307/307/307 311/311/311 309/309/309
f 311/311/311 312/312/312 309/309/309
f 313/313/313 309/309/309 312/312/312
f 313/313/313 312/312/312 314/314/314
f 313/313/313 314/314/314 315/315/315
f 316/316/316 315/315/315 314/314/314
f 317/317/317 314/314/314 312/312/312
f 315/315/315 318/318/318 313/313/313
f 309/309/309 313/313/313 318/318/318
f 319/319/319 318/318/318 315/315/315
f 309/309/309 320/320/320 306/306/306
f 309/309/309 318/318/318 320/320/320
f 320/320/320 288/288/288 306/306/306
f 320/320/320 318/318/318 321/321/321
f 322/322/322 320/320/320 321/321/321
f 322/322/322 321/321/321 323/323/323
f 324/324/324 323/323/323 321/321/321
f 322/322/322 323/323/323 325/325/325
f 326/326/326 325/325/325 323/323/323
f 323/323/323 324/324/324 327/327/327
f 328/328/328 327/327/327 324/324/324
f 326/326/326 323/323/323 329/329/329
f 327/327/327 329/329/329 323/323/323
f 327/327/327 328/328/328 330/330/330
f 329/329/329 327/327/327 330/330/330
f 328/328/328 331/331/331 330/330/330
f 328/328/328 324/324/324 331/331/331
f 332/332/332 331/331/331 324/324/324
f 318/318/318 332/332/332 321/321/321
f 324/324/324 321/321/321 332/332/332
f 332/332/332 318/318/318 333/333/333
f 326/326/326 334/334/334 325/325/325
f 326/326/326 329/329/329 334/334/334
f 325/325/325 334/334/334 335/335/335
f 329/329/329 336/336/336 334/334/334
f 336/336/336 337/337/337 334/334/334
f 322/322/322 325/325/325 338/338/338
f 322/322/322 338/338/338 320/320/320
f 288/288/288 320/320/320 338/338/338
f 290/290/290 288/288/288 338/338/338
f 290/290/290 338/338/338 339/339/339
f 335/335/335 340/340/340 339/339/339
f 335/335/335 341/341/341 340/340/340
f 341/341/341 335/335/335 342/342/342
f 335/335/335 343/343/343 342/342/342
f 344/344/344 342/342/342 343/343/343
f 343/343/343 345/345/345 344/344/344
f 346/346/346 344/344/344 345/345/345
f 339/339/339 338/338/338 325/325/325
f 325/325/325 335/335/335 339/339/339
f 292/292/292 340/340/340 341/341/341
f 339/339/339 340/340/340 292/292/292
f 290/290/290 339/339/339 292/292/292
f 347/347/347 292/292/292 341/341/341
f 347/347/347 341/341/341 348/348/348
f 341/341/341 349/349/349 348/348/348
f 348/348/348 349/349/349 350/350/350
f 351/351/351 350/350/350 349/349/349
f 351/351/351 352/352/352 350/350/350
f 352/352/352 351/351/351 353/353/353
f 356/356/356 355/355/355 354/354/354
f 305/305/305 357/357/357 302/302/302
f 308/308/308 302/302/302 357/357/357
f 360/360/360 359/359/359 358/358/358
f 361/361/361 358/358/358 359/359/359
f 358/358/358 362/362/362 360/360/360
f 363/363/363 360/360/360 362/362/362
f 361/361/361 359/359/359 364/364/364
f 365/365/365 364/364/364 359/359/359
f 364/364/364 365/365/365 366/366/366
f 367/367/367 366/366/366 365/365/365
f 365/365/365 368/368/368 367/367/367
f 365/365/365 369/369/369 368/368/368
f 368/368/368 369/369/369 370/370/370
f 371/371/371 370/370/370 369/369/369
f 369/369/369 372/372/372 371/371/371
f 372/372/372 369/369/369 365/365/365
f 373/373/373 371/371/371 372/372/372
f 370/370/370 371/371/371 374/374/374
f 375/375/375 374/374/374 371/371/371
f 371/371/371 373/373/373 375/375/375
f 376/376/376 375/375/375 373/373/373
f 372/372/372 365/365/365 377/377/377
f 359/359/359 377/377/377 365/365/365
f 378/378/378 372/372/372 377/377/377
f 378/378/378 379/379/379 373/373/373
f 378/378/378 377/377/377 380/380/380
f 378/378/378 373/373/373 381/381/381
f 382/382/382 378/378/378 380/380/380
f 382/382/382 380/380/380 383/383/383
f 384/384/384 383/383/383 380/380/380
f 384/384/384 385/385/385 383/383/383
f 384/384/384 386/386/386 385/385/385
f 387/387/387 385/385/385 386/386/386
f 388/388/388 383/383/383 385/385/385
f 380/380/380 389/389/389 384/384/384
f 386/386/386 384/384/384 389/389/389
f 389/389/389 390/390/390 386/386/386
f 391/391/391 380/380/380 377/377/377
f 389/389/389 380/380/380 391/391/391
f 359/359/359 391/391/391 377/377/377
f 389/389/389 391/391/391 392/392/392
f 391/391/391 393/393/393 392/392/392
f 393/393/393 394/394/394 392/392/392
f 395/395/395 392/392/392 394/394/394
f 393/393/393 396/396/396 394/394/394
f 397/397/397 394/394/394 396/396/396
f 394/394/394 398/398/398 395/395/395
f 399/399/399 395/395/395 398/398/398
f 398/398/398 394/394/394 400/400/400
f 397/397/397 400/400/400 394/394/394
f 399/399/399 398/398/398 401/401/401
f 398/398/398 400/400/400 401/401/401
f 402/402/402 399/399/399 401/401/401
f 399/399/399 402/402/402 395/395/395
f 403/403/403 395/395/395 402/402/402
f 395/395/395 403/403/403 392/392/392
f 389/389/389 392/392/392 403/403/403
f 389/389/389 403/403/403 404/404/404
f 405/405/405 397/397/397 396/396/396
f 400/400/400 397/397/397 405/405/405
f 405/405/405 396/396/396 406/406/406
f 407/407/407 400/400/400 405/405/405
f 408/408/408 407/407/407 405/405/405
f 393/393/393 409/409/409 396/396/396
f 409/409/409 393/393/393 391/391/391
f 391/391/391 359/359/359 409/409/409
f 359/359/359 360/360/360 409/409/409
f 409/409/409 360/360/360 410/410/410
f 411/411/411 406/406/406 410/410/410
f 412/412/412 406/406/406 411/411/411
f 406/406/406 412/412/412 413/413/413
f 406/406/406 413/413/413 414/414/414
f 415/415/415 414/414/414 413/413/413
f 414/414/414 415/415/415 416/416/416
f 417/417/417 416/416/416 415/415/415
f 410/410/410 396/396/396 409/409/409
f 406/406/406 396/396/396 410/410/410
f 411/411/411 363/363/363 412/412/412
f 411/411/411 410/410/410 363/363/363
f 410/410/410 360/360/360 363/363/363
f 363/363/363 418/418/418 412/412/412
f 412/412/412 418/418/418 419/419/419
f 420/420/420 412/412/412 419/419/419
f 419/419/419 421/421/421 420/420/420
f 422/422/422 420/420/420 421/421/421
f 423/423/423 422/422/422 421/421/421
f 422/422/422 423/423/423 424/424/424
f 427/427/427 426/426/426 425/425/425
f 379/379/379 428/428/428 373/373/373
f 376/376/376 373/373/373 428/428/428
f 431/431/431 430/430/430 429/429/429
f 432/432/432 429/429/429 430/430/430
f 430/430/430 431/431/431 433/433/433
f 434/434/434 433/433/433 431/431/431
f 433/433/433 434/434/434 435/435/435
f 435/435/435 434/434/434 436/436/436
f 435/435/435 436/436/436 437/437/437
f 437/437/437 436/436/436 438/438/438
f 441/441/441 440/440/440 439/439/439
f 442/442/442 439/439/439 440/440/440
f 442/442/442 440/440/440 443/443/443
f 443/443/443 444/444/444 442/442/442
f 444/444/444 443/443/443 445/445/445
f 444/444/444 445/445/445 446/446/446
f 446/446/446 445/445/445 447/447/447
f 446/446/446 447/447/447 448/448/448
