g QJ_A_T
v -0.06452665 0.09660248 2.024906
v -0.03358489 0.079486 2.061056
v -0.06323314 0.07094496 2.046609
v -0.03014303 0.117669 2.028844
v -0.03750236 0.0137578 2.066865
v -0.06468873 0.01421447 2.047486
v -0.03620957 -0.03413591 2.058446
v -1.543513E-15 -0.03275253 2.072142
v -1.895916E-15 -0.06569026 2.06099
v -0.06179808 -0.03585837 2.042455
v -0.07985621 0.01313381 2.018889
v -0.07988223 0.06181372 2.009204
v -0.05941885 0.1112203 1.989136
v 4.562526E-16 0.07949351 2.067737
v 1.291813E-15 0.1216571 2.030213
v 2.242345E-15 0.1319301 1.9854
v -7.703328E-16 0.01516232 2.07885
v -0.08095437 0.01763938 1.985895
v -0.06954641 -0.03089896 2.023252
v -0.07661021 -0.00425687 1.981567
v -0.07709341 0.02765347 1.954424
v -0.07948754 0.05492716 1.946681
v -0.07007432 0.09324431 1.954172
v -0.06826999 0.05828652 1.882506
v -0.03953102 0.09911852 1.891475
v -0.04305018 0.113134 1.956021
v 2.782313E-15 0.1264666 1.949893
v -0.06719535 0.03299562 1.901443
v -0.05961702 0.02057851 1.852233
v -2.789765E-08 0.1102885 1.891346
v -0.06791982 -0.04144239 2.006078
v -0.05386632 -0.0657125 2.015876
v -0.05599433 -0.05558328 2.03134
v -0.02762089 -0.08594165 2.01895
v -0.03034216 -0.07892172 2.036688
v -2.700614E-15 -0.09910182 2.017431
v -0.03512623 -0.06466088 2.050336
v -2.080632E-15 -0.08962042 2.039278
v -0.03651299 -0.008861466 1.821509
v -0.05377322 -0.02855966 1.828205
v -6.609684E-08 -0.02409553 1.809634
v -0.06432869 -0.006374649 1.843194
v -0.05961702 0.02057851 1.852233
v -0.07057748 0.01217505 1.863002
v -0.06605033 -0.02069602 1.86126
v -0.06719535 0.03299562 1.901443
v -0.07395539 0.02303116 1.903355
v -0.07118721 -0.01896968 1.895457
v -0.07576329 -0.02499826 1.929667
v -0.07709341 0.02765347 1.954424
v -0.06683 -0.03758664 1.893927
v -0.0713722 -0.02447221 1.950095
v -0.06500664 -0.05329073 1.943104
v -0.07661021 -0.00425687 1.981567
v -0.06637149 -0.05597644 1.956007
v -0.06055553 -0.07815848 1.951818
v -0.05283596 -0.05296312 1.861924
v -0.05715754 -0.03849014 1.846268
v -0.04678388 -0.06039327 1.831094
v -0.04252846 -0.05035757 1.818269
v -6.609684E-08 -0.02409553 1.809634
v -0.02299503 -0.08451232 1.809196
v -0.02026425 -0.0699331 1.804303
v -1.031242E-14 -0.0737897 1.799554
v -1.144694E-14 -0.08935087 1.804244
v -0.02201564 -0.08901522 1.820319
v -1.144694E-14 -0.08935087 1.804244
v -1.073861E-14 -0.09596553 1.820414
v -9.391086E-15 -0.0920339 1.834968
v -0.01812064 -0.08865336 1.838138
v -0.03340201 -0.07646689 1.841318
v -8.922778E-15 -0.09464369 1.841963
v -0.04018128 -0.07476388 1.846034
v -0.03897672 -0.08136396 1.857577
v -0.04329739 -0.07634214 1.890251
v -0.03453859 -0.09009642 1.866027
v -0.03292321 -0.09134523 1.862456
v -0.03142647 -0.08622139 1.856485
v -0.01321686 -0.09899531 1.859256
v -0.01253277 -0.1085203 1.873052
v -0.0108983 -0.1052104 1.877402
v -7.262278E-15 -0.1116532 1.872962
v -7.097414E-15 -0.1078088 1.876491
v -0.01179758 -0.1008071 1.888658
v -0.02396863 -0.08790004 1.886736
v -0.02756249 -0.09334403 1.889083
v -6.708087E-15 -0.1039085 1.887825
v -0.01287481 -0.1067112 1.863145
v -7.788766E-15 -0.1026454 1.858229
v -7.613431E-15 -0.1101027 1.862336
v -0.02274754 -0.1032587 1.892581
v -0.02405892 -0.1035416 1.899859
v -0.02982452 -0.09238968 1.899234
v -0.02774683 -0.08466806 1.897814
v -0.01722495 -0.1001281 1.910679
v -0.02102474 -0.08936794 1.908252
v -0.0156521 -0.1101638 1.900878
v -0.01633134 -0.1104694 1.894047
v -0.01004219 -0.1173527 1.894925
v -6.865199E-15 -0.1153608 1.888742
v -6.795857E-15 -0.121902 1.893532
v -0.009972023 -0.1176571 1.900277
v -6.604159E-15 -0.1223705 1.899786
v -6.093389E-15 -0.1155573 1.913701
v -0.01036775 -0.1092092 1.913309
v -0.01011811 -0.09718405 1.929993
v -0.01805236 -0.09053721 1.925193
v -0.03534847 -0.08338235 1.919602
v -0.00931888 -0.09342913 1.944799
v -0.01697198 -0.08372504 1.937478
v -0.0307659 -0.08014575 1.93013
v -0.05479738 -0.06792065 1.932902
v -0.06138691 -0.0685989 1.920515
v -5.498804E-15 -0.1103866 1.93047
v -6.093389E-15 -0.1155573 1.913701
v -0.05798829 -0.05911095 1.892536
v -0.03465849 -0.08832868 1.947842
v -0.05597324 -0.07741676 1.945395
v -0.03947865 -0.09294755 1.954634
v -0.0720113 -0.04789544 1.923449
v -0.04011141 -0.0947235 1.966286
v -0.01530279 -0.1049331 1.959075
v -0.01907715 -0.1059344 1.967603
v -0.0384734 -0.0929241 1.98593
v -0.01661944 -0.1025548 1.989592
v -3.51808E-15 -0.1068102 1.991122
v -4.274281E-15 -0.1086726 1.967681
v -4.551006E-15 -0.107179 1.958767
v -0.06082867 -0.07908602 1.963647
v -4.92085E-15 -0.1013921 1.945337
v -5.498804E-15 -0.1103866 1.93047
v -2.700614E-15 -0.09910182 2.017431
v -0.02762089 -0.08594165 2.01895
v -0.05386632 -0.0657125 2.015876
v -0.0572427 -0.07437585 1.981461
v -0.06791982 -0.04144239 2.006078
v -0.06737108 -0.05622189 1.977672
v -0.0814722 0.04028921 1.928733
v -0.07709341 0.02765347 1.954424
v -0.07395539 0.02303116 1.903355
v -0.07510662 0.03470026 1.901892
v -0.08457272 0.04942026 1.910116
v -0.09232838 0.0603844 1.936002
v -0.09350297 0.06119592 1.955261
v -0.08632658 0.04421537 1.963471
v -0.07948754 0.05492716 1.946681
v -0.07709341 0.02765347 1.954424
v -0.08632658 0.04421537 1.963471
v -0.09350297 0.06119592 1.955261
v -0.09232838 0.0603844 1.936002
v -0.08457272 0.04942026 1.910116
v -0.07510662 0.03470026 1.901892
v -0.06719535 0.03299562 1.901443
v -0.01362529 -0.1005978 1.853459
v -7.788766E-15 -0.1026454 1.858229
v -8.370187E-15 -0.1048923 1.85222
v -0.01321686 -0.09899531 1.859256
v -0.03142647 -0.08622139 1.856485
v -0.01664475 -0.09737411 1.845307
v -0.03223154 -0.08053971 1.848251
v -9.079425E-15 -0.1031368 1.843599
v -0.07510662 0.03470026 1.901892
v -0.07395539 0.02303116 1.903355
v -0.06719535 0.03299562 1.901443
v -0.02102474 -0.08936794 1.908252
v -0.02774683 -0.08466806 1.897814
v -7.703328E-16 0.01516232 2.07885
v 0.06452664 0.09660249 2.024906
v 0.03358489 0.07698308 2.061056
v 0.03014303 0.117669 2.028844
v 0.06323314 0.07094496 2.046609
v 0.03750236 0.0137578 2.066865
v 0.06468873 0.01421447 2.047485
v 0.03620957 -0.03413591 2.058446
v -1.543513E-15 -0.03275253 2.072142
v -1.895916E-15 -0.06569026 2.06099
v 0.06179808 -0.03585837 2.042455
v 0.07985621 0.01313381 2.018889
v 0.0798822 0.06181371 2.009203
v 0.05941884 0.1112203 1.989136
v 4.562526E-16 0.07949351 2.067737
v 1.291813E-15 0.1216571 2.030213
v 2.242345E-15 0.1319301 1.9854
v -7.703328E-16 0.01516232 2.07885
v 0.08095437 0.01763938 1.985895
v 0.06954641 -0.03089896 2.023252
v 0.07661022 -0.00425687 1.981567
v 0.07709341 0.02765347 1.954424
v 0.07948754 0.05492715 1.946681
v 0.07007433 0.09324431 1.954172
v 0.06826993 0.05828653 1.882506
v 0.03953095 0.09911848 1.891475
v 0.04305018 0.1131341 1.956021
v 2.782313E-15 0.1264666 1.949893
v 0.06719535 0.03299562 1.901443
v 0.05961703 0.0205785 1.852233
v -2.789765E-08 0.1102885 1.891346
v 0.06791981 -0.04144238 2.006078
v 0.05386632 -0.0657125 2.015875
v 0.05599433 -0.05558328 2.03134
v 0.02762089 -0.08594166 2.01895
v 0.03034216 -0.07892173 2.036688
v -2.700614E-15 -0.09910182 2.017431
v 0.03512623 -0.06466088 2.050336
v -2.080632E-15 -0.08962042 2.039278
v 0.03651294 -0.008861448 1.821509
v -6.609684E-08 -0.02409553 1.809634
v 0.05377322 -0.02855966 1.828205
v 0.06432869 -0.006374649 1.843194
v 0.05961703 0.0205785 1.852233
v 0.07057747 0.01217505 1.863002
v 0.06605034 -0.02069602 1.86126
v 0.06719535 0.03299562 1.901443
v 0.07395539 0.02303116 1.903355
v 0.07118722 -0.01896968 1.895457
v 0.07576329 -0.02499826 1.929667
v 0.07709341 0.02765347 1.954424
v 0.06683001 -0.03758664 1.893927
v 0.0713722 -0.02447221 1.950095
v 0.06500664 -0.05329073 1.943104
v 0.07661022 -0.00425687 1.981567
v 0.06637149 -0.05597645 1.956007
v 0.06055553 -0.07815848 1.951818
v 0.05283596 -0.05296312 1.861924
v 0.05715754 -0.03849014 1.846268
v 0.04678389 -0.06039327 1.831094
v 0.04252846 -0.05035757 1.818269
v -6.609684E-08 -0.02409553 1.809634
v 0.02299503 -0.08451232 1.809196
v 0.02026425 -0.0699331 1.804303
v -1.144694E-14 -0.08935087 1.804244
v 0.02201564 -0.08901522 1.820319
v -1.144694E-14 -0.08935087 1.804244
v -1.073861E-14 -0.09596553 1.820414
v -9.391086E-15 -0.0920339 1.834968
v 0.01812064 -0.08865336 1.838138
v 0.03340201 -0.07646689 1.841318
v -8.922778E-15 -0.09464369 1.841963
v 0.04018128 -0.07476388 1.846034
v 0.03897672 -0.08136397 1.857577
v 0.04329739 -0.07634214 1.890251
v 0.03453859 -0.09009642 1.866027
v 0.03292321 -0.09134522 1.862456
v 0.03142647 -0.08622139 1.856485
v 0.01321686 -0.09899531 1.859256
v 0.01253277 -0.1085203 1.873052
v 0.0108983 -0.1052104 1.877402
v -7.262278E-15 -0.1116532 1.872962
v -7.097414E-15 -0.1078088 1.876491
v 0.01179758 -0.1008071 1.888658
v 0.02396863 -0.08790004 1.886736
v 0.02756249 -0.09334403 1.889083
v -6.708087E-15 -0.1039085 1.887825
v 0.01287481 -0.1067112 1.863145
v -7.788766E-15 -0.1026454 1.858229
v -7.613431E-15 -0.1101027 1.862336
v 0.02274754 -0.1032587 1.892581
v 0.02405892 -0.1035416 1.899859
v 0.02982452 -0.09238967 1.899234
v 0.02774683 -0.08466807 1.897814
v 0.01722495 -0.1001281 1.910679
v 0.02102474 -0.08936794 1.908252
v 0.0156521 -0.1101638 1.900877
v 0.01633134 -0.1104694 1.894047
v 0.01004219 -0.1173527 1.894925
v -6.865199E-15 -0.1153608 1.888742
v -6.795857E-15 -0.121902 1.893532
v 0.009972021 -0.1176571 1.900277
v -6.604159E-15 -0.1223705 1.899786
v -6.093389E-15 -0.1155573 1.913701
v 0.01036775 -0.1092092 1.913309
v 0.01011811 -0.09718406 1.929993
v 0.01805236 -0.09053721 1.925193
v 0.03534848 -0.08338237 1.919602
v 0.00931888 -0.09342913 1.944799
v 0.01697198 -0.08372504 1.937478
v 0.0307659 -0.08014575 1.93013
v 0.05479738 -0.06792065 1.932901
v 0.06138691 -0.0685989 1.920515
v -6.093389E-15 -0.1155573 1.913701
v 0.05798829 -0.05911095 1.892536
v 0.03465849 -0.08832868 1.947842
v 0.05597323 -0.07741675 1.945395
v 0.03947865 -0.09294756 1.954634
v 0.07201128 -0.04789544 1.923449
v 0.04011141 -0.09472349 1.966286
v 0.01530279 -0.1049331 1.959075
v 0.01907715 -0.1059344 1.967603
v 0.0384734 -0.0929241 1.98593
v 0.01661944 -0.1025548 1.989591
v -3.51808E-15 -0.1068102 1.991122
v -4.274281E-15 -0.1086726 1.967681
v -4.551006E-15 -0.107179 1.958767
v 0.06082868 -0.07908603 1.963647
v -4.92085E-15 -0.1013921 1.945337
v -5.498804E-15 -0.1103866 1.93047
v -2.700614E-15 -0.09910182 2.017431
v 0.02762089 -0.08594166 2.01895
v 0.05386632 -0.0657125 2.015875
v 0.0572427 -0.07437585 1.981461
v 0.06791981 -0.04144238 2.006078
v 0.06737109 -0.0562219 1.977672
v 0.0814722 0.04028922 1.928733
v 0.07395539 0.02303116 1.903355
v 0.07709341 0.02765347 1.954424
v 0.07510662 0.03470025 1.901892
v 0.08457273 0.04942026 1.910116
v 0.09232839 0.0603844 1.936003
v 0.09350296 0.06119591 1.955261
v 0.08632658 0.04421536 1.963471
v 0.07948754 0.05492715 1.946681
v 0.08632658 0.04421536 1.963471
v 0.07709341 0.02765347 1.954424
v 0.09350296 0.06119591 1.955261
v 0.09232839 0.0603844 1.936003
v 0.08457273 0.04942026 1.910116
v 0.07510662 0.03470025 1.901892
v 0.06719535 0.03299562 1.901443
v 0.01362529 -0.1005978 1.853459
v -7.788766E-15 -0.1026454 1.858229
v 0.01321686 -0.09899531 1.859256
v -8.370187E-15 -0.1048923 1.85222
v 0.03142647 -0.08622139 1.856485
v 0.01664475 -0.09737412 1.845307
v 0.03223154 -0.08053971 1.848251
v -9.079425E-15 -0.1031368 1.843599
v 0.07510662 0.03470025 1.901892
v 0.06719535 0.03299562 1.901443
v 0.07395539 0.02303116 1.903355
v 0.02102474 -0.08936794 1.908252
v 0.02774683 -0.08466807 1.897814
v -7.703328E-16 0.01516232 2.07885
v 0.03322535 -0.1039624 1.959751
v 0.04165753 -0.09902052 1.940237
v 0.02529468 -0.1044154 1.94069
v 0.006977809 -0.1086135 1.944775
v -4.674998E-15 -0.1114644 1.956004
v -4.94967E-15 -0.1093387 1.947071
v 0.01017029 -0.1043953 1.932824
v 0.02016569 -0.09926119 1.920501
v 0.06028782 -0.09110601 1.960134
v 0.06357877 -0.08857126 1.946833
v 0.07015349 -0.08463575 1.952296
v 0.06620516 -0.08219498 1.930546
v 0.07015349 -0.08463575 1.952296
v 0.03337828 -0.09361826 1.920148
v 0.05691033 -0.08508516 1.92393
v 0.04540614 -0.08797535 1.920798
v 0.07363436 -0.08292349 1.949497
v 0.07245638 -0.08474793 1.956232
v 0.07362234 -0.08279655 1.956266
v 0.07245796 -0.0849774 1.948872
v 0.06511543 -0.08695307 1.955768
v 0.06511701 -0.08539262 1.947558
v 0.07608049 -0.04913163 1.952189
v 0.07607888 -0.04910723 1.9586
v 0.07889792 -0.01509349 1.954155
v 0.07889631 -0.01507226 1.961085
v 0.08182375 0.03740629 1.957816
v 0.08305696 0.03673154 1.966105
v 0.06620516 -0.07893707 1.930546
v 0.07015349 -0.08463575 1.952296
v 0.07015349 -0.08137785 1.952297
v 0.06620516 -0.08219498 1.930546
v 0.05691034 -0.08182724 1.923931
v 0.05691033 -0.08508516 1.92393
v 0.04540613 -0.08471742 1.920798
v 0.04540614 -0.08797535 1.920798
v 0.03337828 -0.09036034 1.920148
v 0.03337828 -0.09361826 1.920148
v 0.02016569 -0.09600326 1.920501
v 0.02016569 -0.09926119 1.920501
v 0.01017029 -0.1011374 1.932824
v 0.01017029 -0.1043953 1.932824
v 0.006977809 -0.1053556 1.944775
v 0.006977809 -0.1086135 1.944775
v -4.918113E-15 -0.1060808 1.947071
v -4.94967E-15 -0.1093387 1.947071
v 0.06028783 -0.08784808 1.960135
v 0.03322535 -0.1039624 1.959751
v 0.03322535 -0.1007323 1.959751
v 0.06028782 -0.09110601 1.960134
v -4.674998E-15 -0.1114644 1.956004
v 0.07015349 -0.08137785 1.952297
v 0.06028782 -0.09110601 1.960134
v 0.07015349 -0.08463575 1.952296
v -4.674998E-15 -0.1114644 1.956004
v -4.649213E-15 -0.1082065 1.956004
v 0.07108939 -0.08292461 1.948872
v 0.07608049 -0.04913163 1.952189
v 0.07402615 -0.04913165 1.952189
v 0.07363436 -0.08292349 1.949497
v 0.07889792 -0.01509349 1.954155
v 0.07685745 -0.0150935 1.954155
v 0.08182375 0.03740629 1.957816
v 0.07968213 0.03740629 1.957816
v 0.07245796 -0.0849774 1.948872
v 0.06511701 -0.08539262 1.947558
v 0.07245638 -0.08474793 1.956232
v 0.0710878 -0.08296014 1.956232
v 0.07362234 -0.08279655 1.956266
v 0.06511543 -0.08695307 1.955768
v 0.07402455 -0.04910725 1.9586
v 0.07607888 -0.04910723 1.9586
v 0.07685587 -0.01507227 1.961085
v 0.07889631 -0.01507226 1.961085
v 0.08091538 0.03673152 1.966105
v 0.08305696 0.03673154 1.966105
v 0.06028783 -0.08784808 1.960135
v 0.05691034 -0.08182724 1.923931
v 0.06620516 -0.07893707 1.930546
v 0.07015349 -0.08137785 1.952297
v 0.04540613 -0.08471742 1.920798
v 0.03322535 -0.1007323 1.959751
v 0.03337828 -0.09036034 1.920148
v 0.02016569 -0.09600326 1.920501
v 0.01017029 -0.1011374 1.932824
v 0.006977809 -0.1053556 1.944775
v -4.649213E-15 -0.1082065 1.956004
v -4.918113E-15 -0.1060808 1.947071
v 0.07685745 -0.0150935 1.954155
v 0.07402455 -0.04910725 1.9586
v 0.07402615 -0.04913165 1.952189
v 0.07685587 -0.01507227 1.961085
v 0.07968213 0.03740629 1.957816
v 0.08091538 0.03673152 1.966105
v 0.0710878 -0.08296014 1.956232
v 0.07108939 -0.08292461 1.948872
v 0.08382828 0.05177475 1.965062
v 0.08182375 0.03740629 1.957816
v 0.08305696 0.03673154 1.966105
v 0.08382995 0.05214162 1.956293
v 0.08382828 0.06387167 1.956572
v 0.08323524 0.06511261 1.942091
v 0.08213735 0.06895857 1.943303
v 0.08163418 0.06387165 1.956572
v 0.08104113 0.06511261 1.94209
v 0.08163586 0.05214162 1.956293
v 0.08163418 0.05177473 1.965062
v 0.08091538 0.03673152 1.966105
v 0.07968213 0.03740629 1.957816
v 0.08382995 0.05214162 1.956293
v 0.07968213 0.03740629 1.957816
v 0.08182375 0.03740629 1.957816
v 0.08163586 0.05214162 1.956293
v 0.08323524 0.06511261 1.942091
v 0.08104113 0.06511261 1.94209
v 0.08213735 0.06895857 1.943303
v 0.08382828 0.06387167 1.956572
v 0.08163418 0.06387165 1.956572
v 0.08382828 0.05177475 1.965062
v 0.08163418 0.05177473 1.965062
v 0.08305696 0.03673154 1.966105
v 0.08091538 0.03673152 1.966105
v -0.03322535 -0.1039624 1.959751
v -0.02529468 -0.1044154 1.94069
v -0.04165753 -0.09902052 1.940237
v -0.006977809 -0.1086135 1.944775
v -4.674998E-15 -0.1114644 1.956004
v -4.94967E-15 -0.1093387 1.947071
v -0.01017029 -0.1043953 1.932824
v -0.02016569 -0.09926119 1.920501
v -0.06028782 -0.09110601 1.960135
v -0.06357877 -0.08857127 1.946833
v -0.07015349 -0.08463576 1.952297
v -0.06620515 -0.08219497 1.930546
v -0.07015349 -0.08463576 1.952297
v -0.03337828 -0.09361826 1.920149
v -0.05691033 -0.08508516 1.92393
v -0.04540613 -0.08797534 1.920798
v -0.07363436 -0.08292349 1.949497
v -0.07245638 -0.08474793 1.956232
v -0.07245796 -0.0849774 1.948872
v -0.07362233 -0.08279654 1.956266
v -0.06511543 -0.08695307 1.955768
v -0.065117 -0.08539262 1.947558
v -0.07608049 -0.04913163 1.952189
v -0.07607888 -0.04910723 1.9586
v -0.07889792 -0.01509349 1.954155
v -0.07889631 -0.01507226 1.961085
v -0.08182374 0.03740629 1.957816
v -0.08305697 0.03673154 1.966105
v -0.06620516 -0.07893705 1.930546
v -0.07015349 -0.08463576 1.952297
v -0.06620515 -0.08219497 1.930546
v -0.07015349 -0.08137785 1.952297
v -0.05691033 -0.08182724 1.92393
v -0.05691033 -0.08508516 1.92393
v -0.04540613 -0.08471742 1.920797
v -0.04540613 -0.08797534 1.920798
v -0.03337828 -0.09036034 1.920148
v -0.03337828 -0.09361826 1.920149
v -0.02016569 -0.09600326 1.920501
v -0.02016569 -0.09926119 1.920501
v -0.01017029 -0.1011374 1.932824
v -0.01017029 -0.1043953 1.932824
v -0.006977809 -0.1053556 1.944775
v -0.006977809 -0.1086135 1.944775
v -4.918113E-15 -0.1060808 1.947071
v -4.94967E-15 -0.1093387 1.947071
v -0.06028782 -0.08784807 1.960135
v -0.03322535 -0.1039624 1.959751
v -0.06028782 -0.09110601 1.960135
v -0.03322535 -0.1007324 1.959751
v -4.674998E-15 -0.1114644 1.956004
v -0.06028782 -0.09110601 1.960135
v -0.07015349 -0.08137785 1.952297
v -0.07015349 -0.08463576 1.952297
v -4.674998E-15 -0.1114644 1.956004
v -4.649213E-15 -0.1082065 1.956004
v -0.07108939 -0.0829246 1.948872
v -0.07608049 -0.04913163 1.952189
v -0.07363436 -0.08292349 1.949497
v -0.07402615 -0.04913164 1.952189
v -0.07889792 -0.01509349 1.954155
v -0.07685745 -0.0150935 1.954155
v -0.08182374 0.03740629 1.957816
v -0.07968213 0.03740628 1.957816
v -0.07245796 -0.0849774 1.948872
v -0.065117 -0.08539262 1.947558
v -0.07245638 -0.08474793 1.956232
v -0.07362233 -0.08279654 1.956266
v -0.07108779 -0.08296014 1.956232
v -0.06511543 -0.08695307 1.955768
v -0.07402455 -0.04910725 1.9586
v -0.07607888 -0.04910723 1.9586
v -0.07685587 -0.01507227 1.961085
v -0.07889631 -0.01507226 1.961085
v -0.08091538 0.03673152 1.966105
v -0.08305697 0.03673154 1.966105
v -0.06028782 -0.08784807 1.960135
v -0.06620516 -0.07893705 1.930546
v -0.05691033 -0.08182724 1.92393
v -0.07015349 -0.08137785 1.952297
v -0.04540613 -0.08471742 1.920797
v -0.03322535 -0.1007324 1.959751
v -0.03337828 -0.09036034 1.920148
v -0.02016569 -0.09600326 1.920501
v -0.01017029 -0.1011374 1.932824
v -0.006977809 -0.1053556 1.944775
v -4.649213E-15 -0.1082065 1.956004
v -4.918113E-15 -0.1060808 1.947071
v -0.07685745 -0.0150935 1.954155
v -0.07402455 -0.04910725 1.9586
v -0.07685587 -0.01507227 1.961085
v -0.07402615 -0.04913164 1.952189
v -0.07968213 0.03740628 1.957816
v -0.08091538 0.03673152 1.966105
v -0.07108779 -0.08296014 1.956232
v -0.07108939 -0.0829246 1.948872
v -0.08382828 0.05177475 1.965062
v -0.08182374 0.03740629 1.957816
v -0.08382995 0.05214162 1.956293
v -0.08305697 0.03673154 1.966105
v -0.08382828 0.06387167 1.956572
v -0.08323524 0.06511261 1.94209
v -0.08213733 0.06895857 1.943303
v -0.08163418 0.06387165 1.956572
v -0.08104113 0.06511261 1.942091
v -0.08163586 0.05214162 1.956293
v -0.08163418 0.05177473 1.965062
v -0.08091538 0.03673152 1.966105
v -0.07968213 0.03740628 1.957816
v -0.08382995 0.05214162 1.956293
v -0.07968213 0.03740628 1.957816
v -0.08163586 0.05214162 1.956293
v -0.08182374 0.03740629 1.957816
v -0.08323524 0.06511261 1.94209
v -0.08104113 0.06511261 1.942091
v -0.08213733 0.06895857 1.943303
v -0.08382828 0.06387167 1.956572
v -0.08163418 0.06387165 1.956572
v -0.08382828 0.05177475 1.965062
v -0.08163418 0.05177473 1.965062
v -0.08305697 0.03673154 1.966105
v -0.08091538 0.03673152 1.966105
vt 0.3466997 0.7735149
vt 0.3173173 0.8217221
vt 0.3519415 0.8083047
vt 0.3018249 0.7639406
vt 0.3694768 0.8823795
vt 0.3980337 0.8539795
vt 0.4151446 0.9182432
vt 0.3820054 0.9531544
vt 0.4231541 0.9756682
vt 0.4416176 0.8922833
vt 0.4271909 0.8284056
vt 0.3936504 0.7835866
vt 0.3481884 0.7375536
vt 0.2821815 0.8389238
vt 0.2675486 0.7627501
vt 0.2833686 0.69977
vt 0.3313162 0.9113101
vt 0.4497337 0.7940258
vt 0.4577822 0.8694133
vt 0.4737135 0.8106796
vt 0.4659525 0.7569653
vt 0.4416572 0.7249668
vt 0.3918463 0.7094629
vt 0.4607901 0.6455122
vt 0.3982999 0.6264825
vt 0.3533309 0.6922158
vt 0.3106692 0.6592348
vt 0.4836708 0.6766983
vt 0.5160933 0.623797
vt 0.3554363 0.6000684
vt 0.4820134 0.8692143
vt 0.4875138 0.9088624
vt 0.4647956 0.9064461
vt 0.4909508 0.9518774
vt 0.4682275 0.9481809
vt 0.4942534 0.9901695
vt 0.4470595 0.9380068
vt 0.4641079 0.9877495
vt 0.2011263 0.6451501
vt 0.1472757 0.6413679
vt 0.0768 0.598927
vt 0.2157013 0.6807716
vt 0.2548856 0.6977224
vt 0.2441868 0.7152532
vt 0.2034186 0.7063194
vt 0.2528 0.771327
vt 0.2426 0.777427
vt 0.20457 0.7691858
vt 0.2052 0.813527
vt 0.2571 0.8506269
vt 0.1740427 0.753721
vt 0.194199 0.8745918
vt 0.1556897 0.871904
vt 0.2134 0.978027
vt 0.1597948 0.893975
vt 0.1237545 0.8788142
vt 0.13285 0.700177
vt 0.1445426 0.6614846
vt 0.09343857 0.6279033
vt 0.09692917 0.6151329
vt 0.0768 0.598927
vt 0.056 0.6031269
vt 0.0636 0.601127
vt 0.0165 0.590527
vt 0.0165 0.598727
vt 0.0529 0.617227
vt 0.0165 0.598727
vt 0.0165 0.616127
vt 0.0165 0.639827
vt 0.0497 0.643227
vt 0.0737 0.649027
vt 0.0165 0.6505269
vt 0.0854 0.665727
vt 0.07742786 0.6954437
vt 0.0865 0.743327
vt 0.0681 0.717527
vt 0.0644 0.7098269
vt 0.0619 0.703527
vt 0.0369 0.704827
vt 0.0366 0.716927
vt 0.033 0.728227
vt 0.0164 0.716227
vt 0.0165 0.727527
vt 0.0326 0.7364269
vt 0.0606 0.736227
vt 0.0503 0.750627
vt 0.0165 0.736527
vt 0.03656085 0.7098245
vt 0.0165 0.704627
vt 0.01627564 0.7093655
vt 0.04400314 0.7559913
vt 0.04251665 0.7693123
vt 0.0511 0.768527
vt 0.0657 0.764127
vt 0.0404 0.784727
vt 0.0534 0.7809269
vt 0.0365 0.770227
vt 0.03698063 0.7581034
vt 0.03 0.759127
vt 0.0165 0.749427
vt 0.0165 0.759127
vt 0.0299 0.771327
vt 0.0165 0.771027
vt 0.0165 0.788727
vt 0.0276 0.7888269
vt 0.0281 0.8222269
vt 0.0507 0.809527
vt 0.0798 0.794427
vt 0.028 0.851627
vt 0.05157905 0.8398001
vt 0.08369822 0.8262321
vt 0.1301998 0.8303883
vt 0.14435 0.800027
vt 0.0165 0.824727
vt 0.0165 0.788727
vt 0.14035 0.754477
vt 0.08137403 0.8673316
vt 0.1174983 0.8668744
vt 0.08561932 0.8746745
vt 0.1758757 0.8033271
vt 0.08924147 0.8941045
vt 0.0317 0.870927
vt 0.0414 0.907327
vt 0.082 0.9278269
vt 0.0338 0.924127
vt 0.0165 0.922227
vt 0.01784758 0.8967738
vt 0.0165 0.870827
vt 0.1351 0.902827
vt 0.0165 0.8517269
vt 0.0165 0.824727
vt 0.01459767 0.9614834
vt 0.0843 0.969127
vt 0.1300807 0.9776048
vt 0.1305207 0.9365612
vt 0.1658436 0.9874333
vt 0.1579708 0.9527732
vt 0.2857988 0.9418828
vt 0.2339023 0.9447057
vt 0.2635399 0.8861155
vt 0.3047916 0.907014
vt 0.3273959 0.9436135
vt 0.3246614 0.9741051
vt 0.3038028 0.988145
vt 0.2597663 0.9716936
vt 0.4874434 0.8088359
vt 0.4794699 0.7838243
vt 0.4949567 0.765779
vt 0.50445 0.7788355
vt 0.5113254 0.8144067
vt 0.5151911 0.8818997
vt 0.5068726 0.8939795
vt 0.4949405 0.8924434
vt 0.04427329 0.675174
vt 0.0164 0.680227
vt 0.01644956 0.6718519
vt 0.043 0.6807269
vt 0.0621 0.682227
vt 0.0466 0.665027
vt 0.0663 0.660927
vt 0.0165 0.663327
vt 0.3047916 0.907014
vt 0.2635399 0.8861155
vt 0.2635399 0.8861155
vt 0.0534 0.7809269
vt 0.0657 0.764127
vt 0.3313162 0.9113101
vt 0.3466997 0.7735149
vt 0.3173173 0.8217221
vt 0.3018249 0.7639406
vt 0.3519415 0.8083047
vt 0.3694768 0.8823795
vt 0.3980337 0.8539795
vt 0.4151446 0.9182432
vt 0.3820054 0.9531544
vt 0.4231541 0.9756682
vt 0.4416176 0.8922833
vt 0.4271909 0.8284056
vt 0.3936504 0.7835866
vt 0.3481884 0.7375536
vt 0.2821815 0.8389238
vt 0.2675486 0.7627501
vt 0.2833686 0.69977
vt 0.3313162 0.9113101
vt 0.4497337 0.7940258
vt 0.4577822 0.8694133
vt 0.4737135 0.8106796
vt 0.4659525 0.7569653
vt 0.4416572 0.7249668
vt 0.3918463 0.7094629
vt 0.4607901 0.6455122
vt 0.3982999 0.6264825
vt 0.3533309 0.6922158
vt 0.3106692 0.6592348
vt 0.4836708 0.6766983
vt 0.5160933 0.623797
vt 0.3554363 0.6000684
vt 0.4820134 0.8692143
vt 0.4875138 0.9088624
vt 0.4647956 0.9064461
vt 0.4909508 0.9518774
vt 0.4682275 0.9481809
vt 0.4942534 0.9901695
vt 0.4470595 0.9380068
vt 0.4641079 0.9877495
vt 0.2011263 0.6451501
vt 0.0768 0.598927
vt 0.1472757 0.6413679
vt 0.2157013 0.6807716
vt 0.2548856 0.6977224
vt 0.2441868 0.7152532
vt 0.2034186 0.7063194
vt 0.2528 0.771327
vt 0.2426 0.777427
vt 0.20457 0.7691858
vt 0.2052 0.813527
vt 0.2571 0.8506269
vt 0.1740427 0.753721
vt 0.194199 0.8745918
vt 0.1556897 0.871904
vt 0.2134 0.978027
vt 0.1597948 0.893975
vt 0.1237545 0.8788142
vt 0.13285 0.700177
vt 0.1445426 0.6614846
vt 0.09343857 0.6279033
vt 0.09692917 0.6151329
vt 0.0768 0.598927
vt 0.056 0.6031269
vt 0.0636 0.601127
vt 0.0165 0.598727
vt 0.0529 0.617227
vt 0.0165 0.598727
vt 0.0165 0.616127
vt 0.0165 0.639827
vt 0.0497 0.643227
vt 0.0737 0.649027
vt 0.0165 0.6505269
vt 0.0854 0.665727
vt 0.07742786 0.6954437
vt 0.0865 0.743327
vt 0.0681 0.717527
vt 0.0644 0.7098269
vt 0.0619 0.703527
vt 0.0369 0.704827
vt 0.0366 0.716927
vt 0.033 0.728227
vt 0.0164 0.716227
vt 0.0165 0.727527
vt 0.0326 0.7364269
vt 0.0606 0.736227
vt 0.0503 0.750627
vt 0.0165 0.736527
vt 0.03656085 0.7098245
vt 0.0165 0.704627
vt 0.01627564 0.7093655
vt 0.04400314 0.7559913
vt 0.04251665 0.7693123
vt 0.0511 0.768527
vt 0.0657 0.764127
vt 0.0404 0.784727
vt 0.0534 0.7809269
vt 0.0365 0.770227
vt 0.03698063 0.7581034
vt 0.03 0.759127
vt 0.0165 0.749427
vt 0.0165 0.759127
vt 0.0299 0.771327
vt 0.0165 0.771027
vt 0.0165 0.788727
vt 0.0276 0.7888269
vt 0.0281 0.8222269
vt 0.0507 0.809527
vt 0.0798 0.794427
vt 0.028 0.851627
vt 0.05157905 0.8398001
vt 0.08369822 0.8262321
vt 0.1301998 0.8303883
vt 0.14435 0.800027
vt 0.0165 0.788727
vt 0.14035 0.754477
vt 0.08137403 0.8673316
vt 0.1174983 0.8668744
vt 0.08561932 0.8746745
vt 0.1758757 0.8033271
vt 0.08924147 0.8941045
vt 0.0317 0.870927
vt 0.0414 0.907327
vt 0.082 0.9278269
vt 0.0338 0.924127
vt 0.0165 0.922227
vt 0.01784758 0.8967738
vt 0.0165 0.870827
vt 0.1351 0.902827
vt 0.0165 0.8517269
vt 0.0165 0.824727
vt 0.01459767 0.9614834
vt 0.0843 0.969127
vt 0.1300807 0.9776048
vt 0.1305207 0.9365612
vt 0.1658436 0.9874333
vt 0.1579708 0.9527732
vt 0.2857988 0.9418828
vt 0.2635399 0.8861155
vt 0.2339023 0.9447057
vt 0.3047916 0.907014
vt 0.3273959 0.9436135
vt 0.3246614 0.9741051
vt 0.3038028 0.988145
vt 0.2597663 0.9716936
vt 0.4874434 0.8088359
vt 0.4949567 0.765779
vt 0.4794699 0.7838243
vt 0.50445 0.7788355
vt 0.5113254 0.8144067
vt 0.5151911 0.8818997
vt 0.5068726 0.8939795
vt 0.4949405 0.8924434
vt 0.04427329 0.675174
vt 0.0164 0.680227
vt 0.043 0.6807269
vt 0.01644956 0.6718519
vt 0.0621 0.682227
vt 0.0466 0.665027
vt 0.0663 0.660927
vt 0.0165 0.663327
vt 0.3047916 0.907014
vt 0.2635399 0.8861155
vt 0.2635399 0.8861155
vt 0.0534 0.7809269
vt 0.0657 0.764127
vt 0.3313162 0.9113101
vt 0.9716036 0.9215992
vt 0.9443617 0.9330955
vt 0.9440346 0.9094369
vt 0.9499403 0.882953
vt 0.972649 0.8775108
vt 0.9532604 0.8732102
vt 0.9326609 0.8875691
vt 0.9140813 0.9020211
vt 0.9721394 0.9593369
vt 0.9529175 0.9647908
vt 0.9679253 0.9762859
vt 0.928254 0.9685882
vt 0.9679253 0.9762859
vt 0.9151464 0.920175
vt 0.9222327 0.9534585
vt 0.9162115 0.9383288
vt 0.9863622 0.8427635
vt 0.9928536 0.8372887
vt 0.9928537 0.8427635
vt 0.986362 0.8372887
vt 0.9928536 0.8263045
vt 0.986362 0.8263045
vt 0.9863623 0.887333
vt 0.9928538 0.887333
vt 0.9863624 0.9322935
vt 0.9928541 0.9322935
vt 0.9863626 0.9931768
vt 0.9928543 0.9909953
vt 0.8626223 0.9682564
vt 0.8487027 0.9843211
vt 0.8469393 0.9819785
vt 0.8642809 0.9706706
vt 0.8727092 0.9650229
vt 0.8741348 0.9675542
vt 0.882796 0.9617893
vt 0.8839888 0.9644378
vt 0.8953046 0.9633884
vt 0.8960633 0.9661471
vt 0.9078133 0.9649875
vt 0.9081377 0.9678564
vt 0.9225405 0.9705107
vt 0.9220642 0.9733881
vt 0.9324577 0.977142
vt 0.9316207 0.9799508
vt 0.9383757 0.9797564
vt 0.9374706 0.982545
vt 0.9757857 0.9601035
vt 0.9716036 0.9215992
vt 0.9751887 0.9238777
vt 0.9721394 0.9593369
vt 0.972649 0.8775108
vt 0.9745716 0.9771143
vt 0.9721394 0.9593369
vt 0.9679253 0.9762859
vt 0.972649 0.8775108
vt 0.977855 0.8824719
vt 0.9726142 0.989379
vt 0.912833 0.993188
vt 0.912833 0.989379
vt 0.9721895 0.993188
vt 0.8529459 0.993188
vt 0.8529459 0.989379
vt 0.7734508 0.993188
vt 0.7734508 0.989379
vt 0.9758324 0.9923236
vt 0.9783913 0.9795536
vt 0.9758324 0.9923236
vt 0.9726142 0.989379
vt 0.9721895 0.993188
vt 0.9783913 0.9795536
vt 0.912833 0.989379
vt 0.912833 0.993188
vt 0.8529459 0.989379
vt 0.8529459 0.993188
vt 0.7734508 0.989379
vt 0.7734508 0.993188
vt 0.9721394 0.9593369
vt 0.9222327 0.9534585
vt 0.928254 0.9685882
vt 0.9679253 0.9762859
vt 0.9162115 0.9383288
vt 0.9716036 0.9215992
vt 0.9151464 0.920175
vt 0.9140813 0.9020211
vt 0.9326609 0.8875691
vt 0.9499403 0.882953
vt 0.972649 0.8775108
vt 0.9532604 0.8732102
vt 0.9863624 0.9322935
vt 0.9928538 0.887333
vt 0.9863623 0.887333
vt 0.9928541 0.9322935
vt 0.9863626 0.9931768
vt 0.9928543 0.9909953
vt 0.9928537 0.8427635
vt 0.9863622 0.8427635
vt 0.9928543 0.9909953
vt 0.9863626 0.9931768
vt 0.9928543 0.9909953
vt 0.9863626 0.9931768
vt 0.9928543 0.9909953
vt 0.9863626 0.9931768
vt 0.9896085 0.9920861
vt 0.9928543 0.9909953
vt 0.9863626 0.9931768
vt 0.9863626 0.9931768
vt 0.9928543 0.9909953
vt 0.9928543 0.9909953
vt 0.9863626 0.9931768
vt 0.7734508 0.993188
vt 0.7734508 0.989379
vt 0.7734508 0.993188
vt 0.7734508 0.989379
vt 0.7734508 0.993188
vt 0.7734508 0.989379
vt 0.7734508 0.9912835
vt 0.7734508 0.993188
vt 0.7734508 0.989379
vt 0.7734508 0.993188
vt 0.7734508 0.989379
vt 0.7734508 0.993188
vt 0.7734508 0.989379
vt 0.9716036 0.9215992
vt 0.9440346 0.9094369
vt 0.9443617 0.9330955
vt 0.9499403 0.882953
vt 0.972649 0.8775108
vt 0.9532604 0.8732102
vt 0.9326609 0.8875691
vt 0.9140813 0.9020211
vt 0.9721394 0.9593369
vt 0.9529175 0.9647908
vt 0.9679253 0.9762859
vt 0.928254 0.9685882
vt 0.9679253 0.9762859
vt 0.9151464 0.920175
vt 0.9222327 0.9534585
vt 0.9162115 0.9383288
vt 0.9863622 0.8427635
vt 0.9928536 0.8372887
vt 0.986362 0.8372887
vt 0.9928537 0.8427635
vt 0.9928536 0.8263045
vt 0.986362 0.8263045
vt 0.9863623 0.887333
vt 0.9928538 0.887333
vt 0.9863624 0.9322935
vt 0.9928541 0.9322935
vt 0.9863626 0.9931768
vt 0.9928543 0.9909953
vt 0.8626223 0.9682564
vt 0.8487027 0.9843211
vt 0.8642809 0.9706706
vt 0.8469393 0.9819785
vt 0.8727092 0.9650229
vt 0.8741348 0.9675542
vt 0.882796 0.9617893
vt 0.8839888 0.9644378
vt 0.8953046 0.9633884
vt 0.8960633 0.9661471
vt 0.9078133 0.9649875
vt 0.9081377 0.9678564
vt 0.9225405 0.9705107
vt 0.9220642 0.9733881
vt 0.9324577 0.977142
vt 0.9316207 0.9799508
vt 0.9383757 0.9797564
vt 0.9374706 0.982545
vt 0.9757857 0.9601035
vt 0.9716036 0.9215992
vt 0.9721394 0.9593369
vt 0.9751887 0.9238777
vt 0.972649 0.8775108
vt 0.9721394 0.9593369
vt 0.9745716 0.9771143
vt 0.9679253 0.9762859
vt 0.972649 0.8775108
vt 0.977855 0.8824719
vt 0.9726142 0.989379
vt 0.912833 0.993188
vt 0.9721895 0.993188
vt 0.912833 0.989379
vt 0.8529459 0.993188
vt 0.8529459 0.989379
vt 0.7734508 0.993188
vt 0.7734508 0.989379
vt 0.9758324 0.9923236
vt 0.9783913 0.9795536
vt 0.9758324 0.9923236
vt 0.9721895 0.993188
vt 0.9726142 0.989379
vt 0.9783913 0.9795536
vt 0.912833 0.989379
vt 0.912833 0.993188
vt 0.8529459 0.989379
vt 0.8529459 0.993188
vt 0.7734508 0.989379
vt 0.7734508 0.993188
vt 0.9721394 0.9593369
vt 0.928254 0.9685882
vt 0.9222327 0.9534585
vt 0.9679253 0.9762859
vt 0.9162115 0.9383288
vt 0.9716036 0.9215992
vt 0.9151464 0.920175
vt 0.9140813 0.9020211
vt 0.9326609 0.8875691
vt 0.9499403 0.882953
vt 0.972649 0.8775108
vt 0.9532604 0.8732102
vt 0.9863624 0.9322935
vt 0.9928538 0.887333
vt 0.9928541 0.9322935
vt 0.9863623 0.887333
vt 0.9863626 0.9931768
vt 0.9928543 0.9909953
vt 0.9928537 0.8427635
vt 0.9863622 0.8427635
vt 0.9928543 0.9909953
vt 0.9863626 0.9931768
vt 0.9863626 0.9931768
vt 0.9928543 0.9909953
vt 0.9928543 0.9909953
vt 0.9863626 0.9931768
vt 0.9896085 0.9920861
vt 0.9928543 0.9909953
vt 0.9863626 0.9931768
vt 0.9863626 0.9931768
vt 0.9928543 0.9909953
vt 0.9928543 0.9909953
vt 0.9863626 0.9931768
vt 0.7734508 0.993188
vt 0.7734508 0.989379
vt 0.7734508 0.989379
vt 0.7734508 0.993188
vt 0.7734508 0.993188
vt 0.7734508 0.989379
vt 0.7734508 0.9912835
vt 0.7734508 0.993188
vt 0.7734508 0.989379
vt 0.7734508 0.993188
vt 0.7734508 0.989379
vt 0.7734508 0.993188
vt 0.7734508 0.989379
vn -0.7410856 0.5597597 0.3707574
vn -0.3333456 0.398594 0.8544024
vn -0.7099127 0.2556354 0.6562579
vn -0.3102819 0.8322519 0.4594366
vn -0.4405367 -0.03983539 0.8968503
vn -0.7450456 -0.04575156 0.6654425
vn -0.4267964 -0.2057313 0.8806359
vn 0 -0.2368119 0.9715556
vn 0 -0.4823435 0.8759822
vn -0.7614502 -0.2767305 0.5861859
vn -0.9685584 -0.08173836 0.2349754
vn -0.9698015 0.1811911 0.1632627
vn -0.6530311 0.7570298 0.02136239
vn 0.01053351 0.4181816 0.9083023
vn 0 0.8631037 0.5050268
vn 0 1 0
vn 0.0006617294 -0.001884538 0.9999981
vn -0.9938835 -0.101179 -0.04425313
vn -0.9405553 -0.282076 0.189179
vn -0.985558 -0.1662792 -0.03204291
vn -0.9788329 -0.2007783 -0.03967404
vn -0.5186002 0.8530486 0.0579825
vn -0.8294073 0.5411127 -0.1388544
vn -0.971631 0.1214479 -0.2029377
vn -0.532407 0.8012094 -0.2731417
vn -0.4318762 0.8828283 -0.1846538
vn 0 0.9791925 -0.2029335
vn -0.8240971 0.2706685 -0.4975969
vn -0.8127244 0.3486271 -0.4668385
vn 0 0.9636953 -0.2670044
vn -0.9382578 -0.3213192 0.1281653
vn -0.7504032 -0.5990922 0.2792553
vn -0.775794 -0.534297 0.335664
vn -0.5000371 -0.81217 0.3005706
vn -0.5038756 -0.7583526 0.4135342
vn 0 -0.9369548 0.3494506
vn -0.4728619 -0.5052922 0.7218596
vn 0 -0.8306986 0.5567225
vn -0.4589872 0.09316844 -0.8835443
vn -0.7471464 -0.03138349 -0.6639181
vn 0 0.1793824 -0.9837794
vn -0.8476143 0.07688241 -0.5250134
vn -0.8127244 0.3486271 -0.4668385
vn -0.9321365 0.2412116 -0.2700712
vn -0.9572386 -0.2239661 -0.1831214
vn -0.8240971 0.2706685 -0.4975969
vn -0.9669974 0.04773706 -0.2502738
vn -0.9816597 -0.1201383 -0.1480239
vn -0.9902325 -0.1353243 0.03356882
vn -0.9788329 -0.2007783 -0.03967404
vn -0.9365823 -0.2867872 -0.2014115
vn -0.9837312 -0.1689618 0.0610332
vn -0.9451616 -0.3265459 -0.006103662
vn -0.985558 -0.1662792 -0.03204291
vn -0.9739398 -0.2075094 -0.09154825
vn -0.7868089 -0.5488444 -0.2823146
vn -0.8963649 -0.4220038 -0.1358042
vn -0.9323825 -0.300161 -0.2014107
vn -0.860078 -0.421836 -0.2869152
vn -0.6493638 -0.03113552 -0.7598401
vn 0 0.1793824 -0.9837794
vn -0.5388307 -0.5774292 -0.6133815
vn -0.3843787 -0.02135702 -0.9229284
vn 0 -0.07158574 -0.9974344
vn 0 -0.6744976 -0.738277
vn -0.5112355 -0.8533386 -0.1022328
vn 0 -0.6744976 -0.738277
vn 0 -0.9982277 -0.05951027
vn 0 -0.9980411 -0.06256235
vn -0.4601892 -0.846235 -0.2685371
vn -0.6256656 -0.7443428 -0.2334445
vn 0 -0.6296153 -0.7769071
vn -0.703414 -0.6441009 -0.3005708
vn -0.7693502 -0.5851591 -0.2562991
vn -0.671193 -0.738236 -0.06713837
vn -0.7407159 -0.6681416 0.07019015
vn -0.6105805 -0.7030234 -0.3646224
vn -0.5560839 -0.6801853 -0.4776175
vn -0.4211968 -0.8079882 -0.4120053
vn -0.4570316 -0.8408523 0.2899819
vn -0.4202741 -0.7609887 0.4942327
vn 0 -0.9551916 0.2959883
vn 0 -0.8158033 0.5783296
vn -0.4439188 -0.7502933 -0.489894
vn -0.7485852 -0.6525443 -0.1174999
vn -0.7494419 -0.1722164 -0.6392795
vn 0 -0.8567262 -0.5157714
vn -0.3846903 -0.7572975 -0.5277441
vn 0 -0.9275001 -0.3738228
vn 0 -0.8334567 -0.5525849
vn -0.6086174 -0.5607299 -0.5613973
vn -0.7824032 -0.5791977 0.2288565
vn -0.9678195 -0.06094323 0.2441544
vn -0.8264481 -0.5622661 0.02899065
vn -0.7941617 -0.4322799 0.4271314
vn -0.7805903 -0.5384368 0.3174345
vn -0.7096263 -0.6507629 0.2700704
vn -0.5885397 -0.6374366 -0.4972883
vn -0.5672436 -0.7209041 -0.398161
vn 0 -0.3570542 -0.9340836
vn 0 -0.8851662 -0.4652748
vn -0.6016616 -0.7771159 0.1846461
vn 0 -0.9850236 0.1724196
vn 0 -0.8693206 0.4942485
vn -0.6349285 -0.6322105 0.4440446
vn -0.7321582 -0.6266175 0.2670109
vn -0.6595501 -0.6915885 0.2944471
vn -0.4487443 -0.8807978 0.1510757
vn -0.5571046 -0.786868 -0.2654678
vn -0.5273954 -0.8428789 -0.1068143
vn -0.3830506 -0.9211716 0.06866585
vn -0.666177 -0.7455689 -0.01831021
vn -0.7336397 -0.6790435 0.02593916
vn 0 -0.9386521 0.3448655
vn 0 -0.8693206 0.4942485
vn -0.8398018 -0.4801593 -0.2533379
vn -0.2442744 -0.767924 -0.5921341
vn -0.5898292 -0.6174893 -0.5203927
vn -0.3999709 -0.8171568 -0.4150637
vn -0.9508426 -0.3089368 -0.02136189
vn -0.5236983 -0.851707 -0.01831013
vn -0.2347784 -0.872419 -0.4286772
vn -0.3326679 -0.9416986 -0.05035618
vn -0.5558162 -0.7955762 0.2410953
vn -0.3557472 -0.8983132 0.2578324
vn 0 -0.9775758 0.2105841
vn 0 -0.9990869 -0.04272537
vn 0 -0.9256077 -0.3784842
vn -0.8203416 -0.5680975 0.06561207
vn 0 -0.9977436 0.06713931
vn 0 -0.9386521 0.3448655
vn 0 -0.9369548 0.3494506
vn -0.5000371 -0.81217 0.3005706
vn -0.7504032 -0.5990922 0.2792553
vn -0.7948481 -0.5463955 0.2639481
vn -0.9382578 -0.3213192 0.1281653
vn -0.9502931 -0.2989632 0.08697113
vn -0.9086859 -0.4120463 -0.06714053
vn -0.9788329 -0.2007783 -0.03967404
vn -0.9669974 0.04773706 -0.2502738
vn -0.4860601 0.3943187 -0.7799092
vn -0.3751897 0.4820258 -0.7917598
vn -0.6580548 0.6903807 -0.3005635
vn -0.5735285 0.6401414 0.5111594
vn -0.2211792 -0.1806917 0.9583477
vn -0.5186002 0.8530486 0.0579825
vn -0.9788329 -0.2007783 -0.03967404
vn -0.2211792 -0.1806917 0.9583477
vn -0.5735285 0.6401414 0.5111594
vn -0.6580548 0.6903807 -0.3005635
vn -0.3751897 0.4820258 -0.7917598
vn -0.4860601 0.3943187 -0.7799092
vn -0.8240971 0.2706685 -0.4975969
vn -0.4341217 -0.8996905 0.04577607
vn 0 -0.9275001 -0.3738228
vn 0 -0.9987313 0.0503562
vn -0.4211968 -0.8079882 -0.4120053
vn -0.5560839 -0.6801853 -0.4776175
vn -0.4539347 -0.7502714 -0.480662
vn -0.5777797 -0.7182601 -0.3876506
vn 0 -0.7384194 -0.6743417
vn -0.4860601 0.3943187 -0.7799092
vn -0.9669974 0.04773706 -0.2502738
vn -0.8240971 0.2706685 -0.4975969
vn -0.7805903 -0.5384368 0.3174345
vn -0.8264481 -0.5622661 0.02899065
vn 0.0006617294 -0.001884538 0.9999981
vn 0.738286 0.5603552 0.3754142
vn 0.3402286 0.3786676 0.8607295
vn 0.3134087 0.8269527 0.4668235
vn 0.7000102 0.2665706 0.6625147
vn 0.440367 -0.03854255 0.8969902
vn 0.7449187 -0.04574941 0.6655847
vn 0.4267985 -0.2057085 0.8806401
vn 0 -0.2368119 0.9715556
vn 0 -0.4823435 0.8759822
vn 0.7604371 -0.2763751 0.5876668
vn 0.9685593 -0.08172651 0.2349756
vn 0.9698099 0.181145 0.1632641
vn 0.6530585 0.7570062 0.02136173
vn 0.01053351 0.4181816 0.9083023
vn 0 0.8631037 0.5050268
vn 0 1 0
vn 0.0006617294 -0.001884538 0.9999981
vn 0.9938176 -0.1011484 -0.04577607
vn 0.9402695 -0.281995 0.1907144
vn 0.9855101 -0.1662613 -0.03356876
vn 0.9788905 -0.2007944 -0.03814664
vn 0.5185399 0.8529803 0.05950692
vn 0.8294073 0.5411127 -0.1388544
vn 0.9716366 0.1214009 -0.2029389
vn 0.5323321 0.8012638 -0.2731278
vn 0.4319539 0.882792 -0.1846462
vn 0 0.9791925 -0.2029335
vn 0.8240971 0.2706685 -0.4975969
vn 0.8127311 0.3486062 -0.4668424
vn 0 0.9636953 -0.2670044
vn 0.9384486 -0.3213669 0.1266395
vn 0.7500867 -0.5987722 0.2807877
vn 0.7762615 -0.5345768 0.3341343
vn 0.5002897 -0.8125745 0.2990533
vn 0.5046585 -0.7594911 0.410479
vn 0 -0.9369548 0.3494506
vn 0.4728619 -0.5052922 0.7218596
vn 0 -0.8306986 0.5567225
vn 0.4590065 0.0931556 -0.8835356
vn 0 0.1793824 -0.9837794
vn 0.7457366 -0.03129098 -0.6655057
vn 0.8476135 0.07689427 -0.5250129
vn 0.8127311 0.3486062 -0.4668424
vn 0.9321339 0.2412228 -0.2700704
vn 0.9572346 -0.2239763 -0.1831298
vn 0.8240971 0.2706685 -0.4975969
vn 0.9662025 0.04771399 -0.2533301
vn 0.9818875 -0.1201489 -0.1464963
vn 0.9902421 -0.1352541 0.03356914
vn 0.9788905 -0.2007944 -0.03814664
vn 0.9362838 -0.286688 -0.2029346
vn 0.9837232 -0.1690081 0.0610327
vn 0.9451616 -0.3265459 -0.006103662
vn 0.9855101 -0.1662613 -0.03356876
vn 0.9739494 -0.2074637 -0.09154914
vn 0.7864472 -0.5485721 -0.2838478
vn 0.8961312 -0.4220062 -0.1373308
vn 0.9323955 -0.300126 -0.2014031
vn 0.860078 -0.421836 -0.2869152
vn 0.6493638 -0.03113552 -0.7598401
vn 0 0.1793824 -0.9837794
vn 0.5388307 -0.5774292 -0.6133815
vn 0.3843791 -0.02130937 -0.9229293
vn 0 -0.6744976 -0.738277
vn 0.5113259 -0.8534655 -0.1007106
vn 0 -0.6744976 -0.738277
vn 0 -0.9982277 -0.05951027
vn 0 -0.9980411 -0.06256235
vn 0.4601892 -0.846235 -0.2685371
vn 0.6256656 -0.7443428 -0.2334445
vn 0 -0.6296153 -0.7769071
vn 0.7030731 -0.6437606 -0.3020935
vn 0.7694223 -0.5850642 -0.2562993
vn 0.6712428 -0.7381907 -0.06713859
vn 0.7407159 -0.6681416 0.07019015
vn 0.6105506 -0.7030438 -0.3646331
vn 0.5561004 -0.6801764 -0.4776112
vn 0.4212066 -0.8079842 -0.4120033
vn 0.4570316 -0.8408523 0.2899819
vn 0.4202741 -0.7609887 0.4942327
vn 0 -0.9551916 0.2959883
vn 0 -0.8158033 0.5783296
vn 0.4443308 -0.7510476 -0.4883621
vn 0.7483644 -0.6522443 -0.1205317
vn 0.7494419 -0.1722164 -0.6392795
vn 0 -0.8567262 -0.5157714
vn 0.3851325 -0.7581097 -0.5262532
vn 0 -0.9275001 -0.3738228
vn 0 -0.8334567 -0.5525849
vn 0.6078252 -0.5601087 -0.5628735
vn 0.7824649 -0.5791126 0.2288606
vn 0.9678138 -0.06103825 0.244153
vn 0.8265075 -0.5621787 0.02899106
vn 0.7941114 -0.4323738 0.42713
vn 0.7796764 -0.5379545 0.3204836
vn 0.7096263 -0.6507629 0.2700704
vn 0.589129 -0.6380532 -0.4957975
vn 0.5672436 -0.7209041 -0.398161
vn 0 -0.3570542 -0.9340836
vn 0 -0.8851662 -0.4652748
vn 0.6018552 -0.7773259 0.1831246
vn 0 -0.9850236 0.1724196
vn 0 -0.8693206 0.4942485
vn 0.6354341 -0.6327757 0.4425138
vn 0.7321582 -0.6266175 0.2670109
vn 0.6595501 -0.6915885 0.2944471
vn 0.4487443 -0.8807978 0.1510757
vn 0.5573644 -0.7871928 -0.2639551
vn 0.5273868 -0.8428842 -0.1068149
vn 0.3830303 -0.92118 0.06866649
vn 0.6662272 -0.745524 -0.01831028
vn 0.7336397 -0.6790435 0.02593916
vn 0 -0.8693206 0.4942485
vn 0.8401417 -0.4803739 -0.2517993
vn 0.244252 -0.7679284 -0.5921376
vn 0.5898292 -0.6174893 -0.5203927
vn 0.4000422 -0.8171096 -0.4150882
vn 0.9508566 -0.3088937 -0.02136221
vn 0.5236636 -0.8517283 -0.01831058
vn 0.2347784 -0.872419 -0.4286772
vn 0.3326572 -0.9417023 -0.05035637
vn 0.5558162 -0.7955762 0.2410953
vn 0.3557472 -0.8983132 0.2578324
vn 0 -0.9775758 0.2105841
vn 0 -0.9990869 -0.04272537
vn 0 -0.9256077 -0.3784842
vn 0.8203037 -0.568152 0.06561286
vn 0 -0.9977436 0.06713931
vn 0 -0.9386521 0.3448655
vn 0 -0.9369548 0.3494506
vn 0.5002897 -0.8125745 0.2990533
vn 0.7500867 -0.5987722 0.2807877
vn 0.7951275 -0.5467247 0.2624202
vn 0.9384486 -0.3213669 0.1266395
vn 0.9502931 -0.2989632 0.08697113
vn 0.9088475 -0.4121762 -0.06408663
vn 0.9662025 0.04771399 -0.2533301
vn 0.9788905 -0.2007944 -0.03814664
vn 0.4862556 0.3945165 -0.7796873
vn 0.3750992 0.4820797 -0.7917701
vn 0.6580765 0.6903557 -0.3005734
vn 0.5741953 0.6407604 0.5096329
vn 0.2210072 -0.1804686 0.9584294
vn 0.5185399 0.8529803 0.05950692
vn 0.2210072 -0.1804686 0.9584294
vn 0.9788905 -0.2007944 -0.03814664
vn 0.5741953 0.6407604 0.5096329
vn 0.6580765 0.6903557 -0.3005734
vn 0.3750992 0.4820797 -0.7917701
vn 0.4862556 0.3945165 -0.7796873
vn 0.8240971 0.2706685 -0.4975969
vn 0.4341217 -0.8996905 0.04577607
vn 0 -0.9275001 -0.3738228
vn 0.4212066 -0.8079842 -0.4120033
vn 0 -0.9987313 0.0503562
vn 0.5561004 -0.6801764 -0.4776112
vn 0.4543615 -0.7509744 -0.4791587
vn 0.5777797 -0.7182601 -0.3876506
vn 0 -0.7384194 -0.6743417
vn 0.4862556 0.3945165 -0.7796873
vn 0.8240971 0.2706685 -0.4975969
vn 0.9662025 0.04771399 -0.2533301
vn 0.7796764 -0.5379545 0.3204836
vn 0.8265075 -0.5621787 0.02899106
vn 0.0006617294 -0.001884538 0.9999981
vn 0.1891943 -0.7124459 0.6757414
vn 0.386952 -0.896275 -0.2167007
vn 0.2367879 -0.9517288 -0.1953047
vn -0.2099269 -0.819041 -0.5339499
vn 0 -0.8212471 0.5705726
vn 0 -0.7107217 -0.7034733
vn -0.5868157 -0.6329547 -0.5049907
vn -0.2277449 -0.5516409 -0.8023868
vn 0.4577121 -0.5610049 0.6897632
vn 0.5264114 -0.8380428 -0.143441
vn 0.8864948 -0.3832228 0.2593595
vn 0.7853898 -0.3880929 -0.4822309
vn 0.8864948 -0.3832228 0.2593595
vn 0.2283843 -0.5062174 -0.8316156
vn 0.4764768 -0.4723286 -0.7415359
vn 0.2840428 -0.4558794 -0.8435008
vn 0.8098083 -0.1696877 -0.5616196
vn 0.457178 -0.6102065 0.6470211
vn 0.7154823 -0.2518162 0.6516699
vn 0.5259086 -0.5793295 -0.6227338
vn 0.1778744 -0.9780706 0.108346
vn 0.1225164 -0.9091001 -0.3981544
vn 0.7105086 -0.001287931 -0.7036874
vn 0.7016737 -0.104965 0.7047244
vn 0.7089106 -0.004341242 -0.705285
vn 0.7081332 -0.1088509 0.697638
vn 0.6693294 -0.06523529 -0.7400963
vn 0.7406048 -0.0551783 0.6696715
vn 0.4875273 0.7967269 -0.3571321
vn 0.8864948 -0.3832228 0.2593595
vn 0.5766937 0.7279834 0.3707623
vn 0.7853898 -0.3880929 -0.4822309
vn 0.137927 0.7487056 -0.648395
vn 0.4764768 -0.4723286 -0.7415359
vn -0.1585924 0.7458513 -0.6469576
vn 0.2840428 -0.4558794 -0.8435008
vn -0.3012345 0.7088488 -0.6378018
vn 0.2283843 -0.5062174 -0.8316156
vn -0.4956538 0.5991247 -0.62879
vn -0.2277449 -0.5516409 -0.8023868
vn -0.7781724 0.5916943 -0.2105837
vn -0.5868157 -0.6329547 -0.5049907
vn -0.622572 0.7515169 -0.2182346
vn -0.2099269 -0.819041 -0.5339499
vn 0 0.85032 -0.526266
vn 0 -0.7107217 -0.7034733
vn 0.05574584 0.5682356 0.8209755
vn 0.1891943 -0.7124459 0.6757414
vn -0.247716 0.5455662 0.8006212
vn 0.4577121 -0.5610049 0.6897632
vn 0 -0.8212471 0.5705726
vn 0.5766937 0.7279834 0.3707623
vn 0.4577121 -0.5610049 0.6897632
vn 0.8864948 -0.3832228 0.2593595
vn 0 -0.8212471 0.5705726
vn 0 0.6182175 0.7860071
vn -0.1442091 0.1369104 -0.9800302
vn 0.7105086 -0.001287931 -0.7036874
vn -0.7057748 0.1152285 -0.6990023
vn 0.8098083 -0.1696877 -0.5616196
vn 0.7089106 -0.004341242 -0.705285
vn -0.6986407 0.09327128 -0.7093671
vn 0.6693294 -0.06523529 -0.7400963
vn -0.7824711 0.0759199 -0.6180415
vn 0.5259086 -0.5793295 -0.6227338
vn 0.1225164 -0.9091001 -0.3981544
vn 0.457178 -0.6102065 0.6470211
vn -0.3957621 -0.006769238 0.9183282
vn 0.7154823 -0.2518162 0.6516699
vn 0.1778744 -0.9780706 0.108346
vn -0.7076691 0.00972741 0.706477
vn 0.7016737 -0.104965 0.7047244
vn -0.7072786 -0.01100874 0.7068492
vn 0.7081332 -0.1088509 0.697638
vn -0.6378686 0.04421698 0.7688748
vn 0.7406048 -0.0551783 0.6696715
vn 0.05574584 0.5682356 0.8209755
vn 0.137927 0.7487056 -0.648395
vn 0.4875273 0.7967269 -0.3571321
vn 0.5766937 0.7279834 0.3707623
vn -0.1585924 0.7458513 -0.6469576
vn -0.247716 0.5455662 0.8006212
vn -0.3012345 0.7088488 -0.6378018
vn -0.4956538 0.5991247 -0.62879
vn -0.7781724 0.5916943 -0.2105837
vn -0.622572 0.7515169 -0.2182346
vn 0 0.6182175 0.7860071
vn 0 0.85032 -0.526266
vn -0.6986407 0.09327128 -0.7093671
vn -0.7076691 0.00972741 0.706477
vn -0.7057748 0.1152285 -0.6990023
vn -0.7072786 -0.01100874 0.7068492
vn -0.7824711 0.0759199 -0.6180415
vn -0.6378686 0.04421698 0.7688748
vn -0.3957621 -0.006769238 0.9183282
vn -0.1442091 0.1369104 -0.9800302
vn 0.6747749 0.2136088 0.7064348
vn 0.6693294 -0.06523529 -0.7400963
vn 0.7406048 -0.0551783 0.6696715
vn 0.798341 -0.3056492 -0.5188739
vn 0.6571346 0.604583 0.4501706
vn 0.6333274 -0.1310892 -0.7627005
vn -0.02364613 0.9433184 -0.3310458
vn -0.6365133 0.6019409 0.4822012
vn -0.66233 -0.1358601 -0.736791
vn -0.7963535 -0.2563591 -0.5478149
vn -0.6421475 0.2706691 0.7172062
vn -0.6378686 0.04421698 0.7688748
vn -0.7824711 0.0759199 -0.6180415
vn 0.798341 -0.3056492 -0.5188739
vn -0.7824711 0.0759199 -0.6180415
vn 0.6693294 -0.06523529 -0.7400963
vn -0.7963535 -0.2563591 -0.5478149
vn 0.6333274 -0.1310892 -0.7627005
vn -0.66233 -0.1358601 -0.736791
vn -0.02364613 0.9433184 -0.3310458
vn 0.6571346 0.604583 0.4501706
vn -0.6365133 0.6019409 0.4822012
vn 0.6747749 0.2136088 0.7064348
vn -0.6421475 0.2706691 0.7172062
vn 0.7406048 -0.0551783 0.6696715
vn -0.6378686 0.04421698 0.7688748
vn -0.1891713 -0.712449 0.6757445
vn -0.2367879 -0.9517288 -0.1953047
vn -0.3868011 -0.8959709 -0.2182224
vn 0.2099269 -0.819041 -0.5339499
vn 0 -0.8212471 0.5705726
vn 0 -0.7107217 -0.7034733
vn 0.5874019 -0.6336246 -0.503467
vn 0.2277449 -0.5516409 -0.8023868
vn -0.4576743 -0.561017 0.6897782
vn -0.5264114 -0.8380428 -0.143441
vn -0.8864948 -0.3832228 0.2593595
vn -0.7853608 -0.388174 -0.4822131
vn -0.8864948 -0.3832228 0.2593595
vn -0.2283733 -0.5062883 -0.8315755
vn -0.4764768 -0.4723286 -0.7415359
vn -0.2837853 -0.4556204 -0.8437274
vn -0.8107606 -0.170079 -0.5601254
vn -0.4572157 -0.6101931 0.647007
vn -0.5259086 -0.5793295 -0.6227338
vn -0.7141799 -0.2513677 0.6532698
vn -0.1778744 -0.9780706 0.108346
vn -0.1225632 -0.9097614 -0.3966262
vn -0.7105086 -0.001287931 -0.7036874
vn -0.7016737 -0.104965 0.7047244
vn -0.7089106 -0.004341242 -0.705285
vn -0.7083179 -0.1088922 0.6974441
vn -0.6695914 -0.06523821 -0.739859
vn -0.7404345 -0.05514634 0.6698624
vn -0.487898 0.7971861 -0.3555979
vn -0.8864948 -0.3832228 0.2593595
vn -0.7853608 -0.388174 -0.4822131
vn -0.5766937 0.7279834 0.3707623
vn -0.1381789 0.7499232 -0.6469327
vn -0.4764768 -0.4723286 -0.7415359
vn 0.158857 0.7470238 -0.6455384
vn -0.2837853 -0.4556204 -0.8437274
vn 0.3007544 0.7077751 -0.6392192
vn -0.2283733 -0.5062883 -0.8315755
vn 0.4964238 0.5999826 -0.6273629
vn 0.2277449 -0.5516409 -0.8023868
vn 0.7779011 0.5915057 -0.2121104
vn 0.5874019 -0.6336246 -0.503467
vn 0.622572 0.7515169 -0.2182346
vn 0.2099269 -0.819041 -0.5339499
vn 0 0.85032 -0.526266
vn 0 -0.7107217 -0.7034733
vn -0.05579337 0.5682341 0.8209733
vn -0.1891713 -0.712449 0.6757445
vn -0.4576743 -0.561017 0.6897782
vn 0.2485052 0.5472025 0.7992588
vn 0 -0.8212471 0.5705726
vn -0.4576743 -0.561017 0.6897782
vn -0.5766937 0.7279834 0.3707623
vn -0.8864948 -0.3832228 0.2593595
vn 0 -0.8212471 0.5705726
vn 0 0.6182175 0.7860071
vn 0.1440297 0.1365396 -0.9801083
vn -0.7105086 -0.001287931 -0.7036874
vn -0.8107606 -0.170079 -0.5601254
vn 0.7057748 0.1152285 -0.6990023
vn -0.7089106 -0.004341242 -0.705285
vn 0.6982333 0.09320588 -0.7097766
vn -0.6695914 -0.06523821 -0.739859
vn 0.7836075 0.0760476 -0.6165841
vn -0.5259086 -0.5793295 -0.6227338
vn -0.1225632 -0.9097614 -0.3966262
vn -0.4572157 -0.6101931 0.647007
vn -0.7141799 -0.2513677 0.6532698
vn 0.3957621 -0.006769238 0.9183282
vn -0.1778744 -0.9780706 0.108346
vn 0.7076691 0.00972741 0.706477
vn -0.7016737 -0.104965 0.7047244
vn 0.7072786 -0.01100874 0.7068492
vn -0.7083179 -0.1088922 0.6974441
vn 0.63787 0.0441694 0.7688764
vn -0.7404345 -0.05514634 0.6698624
vn -0.05579337 0.5682341 0.8209733
vn -0.487898 0.7971861 -0.3555979
vn -0.1381789 0.7499232 -0.6469327
vn -0.5766937 0.7279834 0.3707623
vn 0.158857 0.7470238 -0.6455384
vn 0.2485052 0.5472025 0.7992588
vn 0.3007544 0.7077751 -0.6392192
vn 0.4964238 0.5999826 -0.6273629
vn 0.7779011 0.5915057 -0.2121104
vn 0.622572 0.7515169 -0.2182346
vn 0 0.6182175 0.7860071
vn 0 0.85032 -0.526266
vn 0.6982333 0.09320588 -0.7097766
vn 0.7076691 0.00972741 0.706477
vn 0.7072786 -0.01100874 0.7068492
vn 0.7057748 0.1152285 -0.6990023
vn 0.7836075 0.0760476 -0.6165841
vn 0.63787 0.0441694 0.7688764
vn 0.3957621 -0.006769238 0.9183282
vn 0.1440297 0.1365396 -0.9801083
vn -0.6747817 0.2135633 0.706442
vn -0.6695914 -0.06523821 -0.739859
vn -0.7974778 -0.3053135 -0.5203969
vn -0.7404345 -0.05514634 0.6698624
vn -0.6583591 0.6055226 0.4471082
vn -0.6331639 -0.1310192 -0.7628481
vn 0.02364613 0.9433184 -0.3310458
vn 0.6371768 0.6024616 0.4806722
vn 0.6636945 -0.1361437 -0.7355097
vn 0.7972639 -0.2567096 -0.5463246
vn 0.6421475 0.2706691 0.7172062
vn 0.63787 0.0441694 0.7688764
vn 0.7836075 0.0760476 -0.6165841
vn -0.7974778 -0.3053135 -0.5203969
vn 0.7836075 0.0760476 -0.6165841
vn 0.7972639 -0.2567096 -0.5463246
vn -0.6695914 -0.06523821 -0.739859
vn -0.6331639 -0.1310192 -0.7628481
vn 0.6636945 -0.1361437 -0.7355097
vn 0.02364613 0.9433184 -0.3310458
vn -0.6583591 0.6055226 0.4471082
vn 0.6371768 0.6024616 0.4806722
vn -0.6747817 0.2135633 0.706442
vn 0.6421475 0.2706691 0.7172062
vn -0.7404345 -0.05514634 0.6698624
vn 0.63787 0.0441694 0.7688764
g QJ_A_T_0
f 3/3/3 2/2/2 1/1/1
f 4/4/4 1/1/1 2/2/2
f 5/5/5 2/2/2 3/3/3
f 5/5/5 3/3/3 6/6/6
f 5/5/5 6/6/6 7/7/7
f 8/8/8 5/5/5 7/7/7
f 9/9/9 8/8/8 7/7/7
f 10/10/10 7/7/7 6/6/6
f 10/10/10 6/6/6 11/11/11
f 3/3/3 11/11/11 6/6/6
f 11/11/11 3/3/3 12/12/12
f 12/12/12 3/3/3 1/1/1
f 13/13/13 12/12/12 1/1/1
f 4/4/4 13/13/13 1/1/1
f 2/2/2 14/14/14 4/4/4
f 15/15/15 4/4/4 14/14/14
f 15/15/15 16/16/16 4/4/4
f 13/13/13 4/4/4 16/16/16
f 5/5/5 17/17/17 2/2/2
f 17/17/17 14/14/14 2/2/2
f 11/11/11 12/12/12 18/18/18
f 19/19/19 11/11/11 18/18/18
f 19/19/19 10/10/10 11/11/11
f 19/19/19 18/18/18 20/20/20
f 18/18/18 21/21/21 20/20/20
f 22/22/22 21/21/21 18/18/18
f 12/12/12 22/22/22 18/18/18
f 12/12/12 23/23/23 22/22/22
f 23/23/23 12/12/12 13/13/13
f 24/24/24 22/22/22 23/23/23
f 23/23/23 25/25/25 24/24/24
f 26/26/26 25/25/25 23/23/23
f 26/26/26 13/13/13 16/16/16
f 26/26/26 23/23/23 13/13/13
f 27/27/27 25/25/25 26/26/26
f 26/26/26 16/16/16 27/27/27
f 24/24/24 28/28/28 22/22/22
f 28/28/28 24/24/24 29/29/29
f 30/30/30 25/25/25 27/27/27
f 31/31/31 19/19/19 20/20/20
f 19/19/19 31/31/31 32/32/32
f 19/19/19 32/32/32 33/33/33
f 32/32/32 34/34/34 33/33/33
f 35/35/35 33/33/33 34/34/34
f 35/35/35 34/34/34 36/36/36
f 37/37/37 33/33/33 35/35/35
f 10/10/10 33/33/33 37/37/37
f 7/7/7 10/10/10 37/37/37
f 10/10/10 19/19/19 33/33/33
f 9/9/9 7/7/7 37/37/37
f 9/9/9 37/37/37 38/38/38
f 37/37/37 35/35/35 38/38/38
f 38/38/38 35/35/35 36/36/36
f 41/41/41 40/40/40 39/39/39
f 39/39/39 40/40/40 42/42/42
f 42/42/42 43/43/43 39/39/39
f 43/43/43 42/42/42 44/44/44
f 40/40/40 45/45/45 42/42/42
f 45/45/45 44/44/44 42/42/42
f 43/43/43 44/44/44 46/46/46
f 44/44/44 45/45/45 47/47/47
f 46/46/46 44/44/44 47/47/47
f 45/45/45 48/48/48 47/47/47
f 48/48/48 49/49/49 47/47/47
f 49/49/49 50/50/50 47/47/47
f 51/51/51 49/49/49 48/48/48
f 48/48/48 45/45/45 51/51/51
f 52/52/52 50/50/50 49/49/49
f 52/52/52 49/49/49 53/53/53
f 50/50/50 52/52/52 54/54/54
f 55/55/55 54/54/54 52/52/52
f 53/53/53 55/55/55 52/52/52
f 56/56/56 55/55/55 53/53/53
f 45/45/45 57/57/57 51/51/51
f 45/45/45 58/58/58 57/57/57
f 59/59/59 57/57/57 58/58/58
f 59/59/59 58/58/58 40/40/40
f 58/58/58 45/45/45 40/40/40
f 60/60/60 59/59/59 40/40/40
f 61/61/61 60/60/60 40/40/40
f 62/62/62 59/59/59 60/60/60
f 62/62/62 60/60/60 63/63/63
f 61/61/61 63/63/63 60/60/60
f 64/64/64 63/63/63 61/61/61
f 65/65/65 63/63/63 64/64/64
f 65/65/65 62/62/62 63/63/63
f 62/62/62 66/66/66 59/59/59
f 62/62/62 67/67/67 66/66/66
f 67/67/67 68/68/68 66/66/66
f 68/68/68 69/69/69 66/66/66
f 66/66/66 69/69/69 70/70/70
f 70/70/70 71/71/71 66/66/66
f 71/71/71 59/59/59 66/66/66
f 69/69/69 72/72/72 70/70/70
f 71/71/71 73/73/73 59/59/59
f 71/71/71 74/74/74 73/73/73
f 74/74/74 57/57/57 73/73/73
f 57/57/57 74/74/74 75/75/75
f 75/75/75 74/74/74 76/76/76
f 76/76/76 74/74/74 77/77/77
f 74/74/74 78/78/78 77/77/77
f 79/79/79 77/77/77 78/78/78
f 77/77/77 80/80/80 76/76/76
f 80/80/80 81/81/81 76/76/76
f 81/81/81 80/80/80 82/82/82
f 83/83/83 81/81/81 82/82/82
f 84/84/84 81/81/81 83/83/83
f 85/85/85 81/81/81 84/84/84
f 85/85/85 75/75/75 76/76/76
f 76/76/76 81/81/81 85/85/85
f 84/84/84 86/86/86 85/85/85
f 83/83/83 87/87/87 84/84/84
f 80/80/80 77/77/77 88/88/88
f 79/79/79 88/88/88 77/77/77
f 79/79/79 89/89/89 88/88/88
f 90/90/90 88/88/88 89/89/89
f 80/80/80 88/88/88 90/90/90
f 82/82/82 80/80/80 90/90/90
f 91/91/91 86/86/86 84/84/84
f 92/92/92 86/86/86 91/91/91
f 93/93/93 86/86/86 92/92/92
f 93/93/93 94/94/94 86/86/86
f 94/94/94 85/85/85 86/86/86
f 95/95/95 93/93/93 92/92/92
f 96/96/96 93/93/93 95/95/95
f 95/95/95 92/92/92 97/97/97
f 97/97/97 92/92/92 98/98/98
f 84/84/84 87/87/87 98/98/98
f 98/98/98 91/91/91 84/84/84
f 98/98/98 92/92/92 91/91/91
f 97/97/97 98/98/98 99/99/99
f 99/99/99 98/98/98 100/100/100
f 98/98/98 87/87/87 100/100/100
f 101/101/101 99/99/99 100/100/100
f 102/102/102 99/99/99 101/101/101
f 102/102/102 97/97/97 99/99/99
f 102/102/102 101/101/101 103/103/103
f 104/104/104 102/102/102 103/103/103
f 105/105/105 97/97/97 102/102/102
f 105/105/105 95/95/95 97/97/97
f 105/105/105 102/102/102 104/104/104
f 105/105/105 104/104/104 106/106/106
f 106/106/106 95/95/95 105/105/105
f 107/107/107 95/95/95 106/106/106
f 96/96/96 95/95/95 107/107/107
f 108/108/108 96/96/96 107/107/107
f 108/108/108 94/94/94 96/96/96
f 75/75/75 94/94/94 108/108/108
f 109/109/109 107/107/107 106/106/106
f 109/109/109 110/110/110 107/107/107
f 110/110/110 111/111/111 107/107/107
f 107/107/107 111/111/111 108/108/108
f 111/111/111 112/112/112 108/108/108
f 112/112/112 113/113/113 108/108/108
f 75/75/75 108/108/108 113/113/113
f 112/112/112 53/53/53 113/113/113
f 106/106/106 114/114/114 109/109/109
f 115/115/115 114/114/114 106/106/106
f 113/113/113 116/116/116 75/75/75
f 117/117/117 111/111/111 110/110/110
f 117/117/117 110/110/110 109/109/109
f 112/112/112 118/118/118 53/53/53
f 118/118/118 112/112/112 111/111/111
f 118/118/118 111/111/111 117/117/117
f 117/117/117 119/119/119 118/118/118
f 117/117/117 109/109/109 119/119/119
f 56/56/56 118/118/118 119/119/119
f 118/118/118 56/56/56 53/53/53
f 57/57/57 75/75/75 116/116/116
f 116/116/116 51/51/51 57/57/57
f 116/116/116 113/113/113 51/51/51
f 120/120/120 51/51/51 113/113/113
f 113/113/113 53/53/53 120/120/120
f 49/49/49 120/120/120 53/53/53
f 51/51/51 120/120/120 49/49/49
f 119/119/119 121/121/121 56/56/56
f 119/119/119 122/122/122 121/121/121
f 121/121/121 122/122/122 123/123/123
f 121/121/121 123/123/123 124/124/124
f 123/123/123 125/125/125 124/124/124
f 125/125/125 123/123/123 126/126/126
f 127/127/127 126/126/126 123/123/123
f 123/123/123 128/128/128 127/127/127
f 123/123/123 122/122/122 128/128/128
f 121/121/121 124/124/124 129/129/129
f 129/129/129 56/56/56 121/121/121
f 128/128/128 122/122/122 109/109/109
f 109/109/109 122/122/122 119/119/119
f 130/130/130 128/128/128 109/109/109
f 130/130/130 109/109/109 131/131/131
f 125/125/125 132/132/132 124/124/124
f 125/125/125 126/126/126 132/132/132
f 133/133/133 124/124/124 132/132/132
f 133/133/133 134/134/134 124/124/124
f 134/134/134 135/135/135 124/124/124
f 135/135/135 129/129/129 124/124/124
f 134/134/134 136/136/136 135/135/135
f 137/137/137 135/135/135 136/136/136
f 137/137/137 129/129/129 135/135/135
f 54/54/54 137/137/137 136/136/136
f 55/55/55 129/129/129 137/137/137
f 54/54/54 55/55/55 137/137/137
f 129/129/129 55/55/55 56/56/56
f 140/140/140 139/139/139 138/138/138
f 140/140/140 138/138/138 141/141/141
f 138/138/138 142/142/142 141/141/141
f 142/142/142 138/138/138 143/143/143
f 144/144/144 143/143/143 138/138/138
f 144/144/144 138/138/138 145/145/145
f 138/138/138 139/139/139 145/145/145
f 148/148/148 147/147/147 146/146/146
f 146/146/146 149/149/149 148/148/148
f 146/146/146 150/150/150 149/149/149
f 151/151/151 150/150/150 146/146/146
f 152/152/152 151/151/151 146/146/146
f 152/152/152 146/146/146 153/153/153
f 156/156/156 155/155/155 154/154/154
f 157/157/157 154/154/154 155/155/155
f 157/157/157 158/158/158 154/154/154
f 159/159/159 154/154/154 158/158/158
f 154/154/154 159/159/159 156/156/156
f 158/158/158 160/160/160 159/159/159
f 159/159/159 160/160/160 70/70/70
f 70/70/70 72/72/72 159/159/159
f 72/72/72 161/161/161 159/159/159
f 161/161/161 156/156/156 159/159/159
f 70/70/70 160/160/160 71/71/71
f 160/160/160 74/74/74 71/71/71
f 158/158/158 74/74/74 160/160/160
f 164/164/164 163/163/163 162/162/162
f 85/85/85 94/94/94 75/75/75
f 166/166/166 93/93/93 165/165/165
f 59/59/59 73/73/73 57/57/57
f 167/167/167 5/5/5 8/8/8
f 170/170/170 169/169/169 168/168/168
f 171/171/171 168/168/168 169/169/169
f 169/169/169 172/172/172 171/171/171
f 171/171/171 172/172/172 173/173/173
f 172/172/172 174/174/174 173/173/173
f 172/172/172 175/175/175 174/174/174
f 175/175/175 176/176/176 174/174/174
f 177/177/177 173/173/173 174/174/174
f 173/173/173 177/177/177 178/178/178
f 178/178/178 171/171/171 173/173/173
f 171/171/171 178/178/178 179/179/179
f 171/171/171 179/179/179 168/168/168
f 179/179/179 180/180/180 168/168/168
f 180/180/180 170/170/170 168/168/168
f 169/169/169 170/170/170 181/181/181
f 182/182/182 181/181/181 170/170/170
f 183/183/183 182/182/182 170/170/170
f 170/170/170 180/180/180 183/183/183
f 184/184/184 172/172/172 169/169/169
f 181/181/181 184/184/184 169/169/169
f 179/179/179 178/178/178 185/185/185
f 178/178/178 186/186/186 185/185/185
f 177/177/177 186/186/186 178/178/178
f 185/185/185 186/186/186 187/187/187
f 188/188/188 185/185/185 187/187/187
f 188/188/188 189/189/189 185/185/185
f 189/189/189 179/179/179 185/185/185
f 190/190/190 179/179/179 189/189/189
f 179/179/179 190/190/190 180/180/180
f 189/189/189 191/191/191 190/190/190
f 192/192/192 190/190/190 191/191/191
f 192/192/192 193/193/193 190/190/190
f 180/180/180 193/193/193 183/183/183
f 190/190/190 193/193/193 180/180/180
f 192/192/192 194/194/194 193/193/193
f 183/183/183 193/193/193 194/194/194
f 195/195/195 191/191/191 189/189/189
f 191/191/191 195/195/195 196/196/196
f 192/192/192 197/197/197 194/194/194
f 186/186/186 198/198/198 187/187/187
f 198/198/198 186/186/186 199/199/199
f 199/199/199 186/186/186 200/200/200
f 199/199/199 200/200/200 201/201/201
f 202/202/202 201/201/201 200/200/200
f 201/201/201 202/202/202 203/203/203
f 200/200/200 204/204/204 202/202/202
f 200/200/200 177/177/177 204/204/204
f 177/177/177 174/174/174 204/204/204
f 186/186/186 177/177/177 200/200/200
f 174/174/174 176/176/176 204/204/204
f 204/204/204 176/176/176 205/205/205
f 202/202/202 204/204/204 205/205/205
f 202/202/202 205/205/205 203/203/203
f 208/208/208 207/207/207 206/206/206
f 208/208/208 206/206/206 209/209/209
f 210/210/210 209/209/209 206/206/206
f 209/209/209 210/210/210 211/211/211
f 212/212/212 208/208/208 209/209/209
f 211/211/211 212/212/212 209/209/209
f 211/211/211 210/210/210 213/213/213
f 212/212/212 211/211/211 214/214/214
f 211/211/211 213/213/213 214/214/214
f 215/215/215 212/212/212 214/214/214
f 216/216/216 215/215/215 214/214/214
f 217/217/217 216/216/216 214/214/214
f 216/216/216 218/218/218 215/215/215
f 212/212/212 215/215/215 218/218/218
f 217/217/217 219/219/219 216/216/216
f 216/216/216 219/219/219 220/220/220
f 219/219/219 217/217/217 221/221/221
f 221/221/221 222/222/222 219/219/219
f 222/222/222 220/220/220 219/219/219
f 222/222/222 223/223/223 220/220/220
f 224/224/224 212/212/212 218/218/218
f 225/225/225 212/212/212 224/224/224
f 224/224/224 226/226/226 225/225/225
f 225/225/225 226/226/226 208/208/208
f 212/212/212 225/225/225 208/208/208
f 226/226/226 227/227/227 208/208/208
f 227/227/227 228/228/228 208/208/208
f 226/226/226 229/229/229 227/227/227
f 227/227/227 229/229/229 230/230/230
f 230/230/230 228/228/228 227/227/227
f 230/230/230 64/64/64 228/228/228
f 230/230/230 231/231/231 64/64/64
f 229/229/229 231/231/231 230/230/230
f 232/232/232 229/229/229 226/226/226
f 233/233/233 229/229/229 232/232/232
f 234/234/234 233/233/233 232/232/232
f 235/235/235 234/234/234 232/232/232
f 235/235/235 232/232/232 236/236/236
f 237/237/237 236/236/236 232/232/232
f 226/226/226 237/237/237 232/232/232
f 238/238/238 235/235/235 236/236/236
f 239/239/239 237/237/237 226/226/226
f 240/240/240 237/237/237 239/239/239
f 224/224/224 240/240/240 239/239/239
f 240/240/240 224/224/224 241/241/241
f 240/240/240 241/241/241 242/242/242
f 240/240/240 242/242/242 243/243/243
f 244/244/244 240/240/240 243/243/243
f 243/243/243 245/245/245 244/244/244
f 246/246/246 243/243/243 242/242/242
f 247/247/247 246/246/246 242/242/242
f 246/246/246 247/247/247 248/248/248
f 247/247/247 249/249/249 248/248/248
f 247/247/247 250/250/250 249/249/249
f 247/247/247 251/251/251 250/250/250
f 241/241/241 251/251/251 242/242/242
f 247/247/247 242/242/242 251/251/251
f 252/252/252 250/250/250 251/251/251
f 253/253/253 249/249/249 250/250/250
f 243/243/243 246/246/246 254/254/254
f 254/254/254 245/245/245 243/243/243
f 245/245/245 254/254/254 255/255/255
f 256/256/256 255/255/255 254/254/254
f 254/254/254 246/246/246 256/256/256
f 246/246/246 248/248/248 256/256/256
f 252/252/252 257/257/257 250/250/250
f 252/252/252 258/258/258 257/257/257
f 252/252/252 259/259/259 258/258/258
f 260/260/260 259/259/259 252/252/252
f 251/251/251 260/260/260 252/252/252
f 259/259/259 261/261/261 258/258/258
f 259/259/259 262/262/262 261/261/261
f 258/258/258 261/261/261 263/263/263
f 258/258/258 263/263/263 264/264/264
f 253/253/253 250/250/250 264/264/264
f 257/257/257 264/264/264 250/250/250
f 258/258/258 264/264/264 257/257/257
f 264/264/264 263/263/263 265/265/265
f 264/264/264 265/265/265 266/266/266
f 253/253/253 264/264/264 266/266/266
f 265/265/265 267/267/267 266/266/266
f 265/265/265 268/268/268 267/267/267
f 263/263/263 268/268/268 265/265/265
f 267/267/267 268/268/268 269/269/269
f 268/268/268 270/270/270 269/269/269
f 263/263/263 271/271/271 268/268/268
f 261/261/261 271/271/271 263/263/263
f 268/268/268 271/271/271 270/270/270
f 270/270/270 271/271/271 272/272/272
f 261/261/261 272/272/272 271/271/271
f 261/261/261 273/273/273 272/272/272
f 261/261/261 262/262/262 273/273/273
f 262/262/262 274/274/274 273/273/273
f 260/260/260 274/274/274 262/262/262
f 260/260/260 241/241/241 274/274/274
f 273/273/273 275/275/275 272/272/272
f 276/276/276 275/275/275 273/273/273
f 277/277/277 276/276/276 273/273/273
f 277/277/277 273/273/273 274/274/274
f 278/278/278 277/277/277 274/274/274
f 279/279/279 278/278/278 274/274/274
f 274/274/274 241/241/241 279/279/279
f 220/220/220 278/278/278 279/279/279
f 114/114/114 272/272/272 275/275/275
f 114/114/114 280/280/280 272/272/272
f 281/281/281 279/279/279 241/241/241
f 277/277/277 282/282/282 276/276/276
f 276/276/276 282/282/282 275/275/275
f 283/283/283 278/278/278 220/220/220
f 278/278/278 283/283/283 277/277/277
f 277/277/277 283/283/283 282/282/282
f 282/282/282 283/283/283 284/284/284
f 275/275/275 282/282/282 284/284/284
f 223/223/223 284/284/284 283/283/283
f 223/223/223 283/283/283 220/220/220
f 241/241/241 224/224/224 281/281/281
f 218/218/218 281/281/281 224/224/224
f 281/281/281 218/218/218 279/279/279
f 285/285/285 279/279/279 218/218/218
f 220/220/220 279/279/279 285/285/285
f 285/285/285 216/216/216 220/220/220
f 285/285/285 218/218/218 216/216/216
f 284/284/284 223/223/223 286/286/286
f 287/287/287 284/284/284 286/286/286
f 287/287/287 286/286/286 288/288/288
f 288/288/288 286/286/286 289/289/289
f 290/290/290 288/288/288 289/289/289
f 290/290/290 291/291/291 288/288/288
f 292/292/292 288/288/288 291/291/291
f 293/293/293 288/288/288 292/292/292
f 287/287/287 288/288/288 293/293/293
f 289/289/289 286/286/286 294/294/294
f 294/294/294 286/286/286 223/223/223
f 287/287/287 293/293/293 275/275/275
f 287/287/287 275/275/275 284/284/284
f 293/293/293 295/295/295 275/275/275
f 275/275/275 295/295/295 296/296/296
f 290/290/290 289/289/289 297/297/297
f 291/291/291 290/290/290 297/297/297
f 298/298/298 297/297/297 289/289/289
f 299/299/299 298/298/298 289/289/289
f 300/300/300 299/299/299 289/289/289
f 294/294/294 300/300/300 289/289/289
f 299/299/299 300/300/300 301/301/301
f 302/302/302 301/301/301 300/300/300
f 294/294/294 302/302/302 300/300/300
f 302/302/302 221/221/221 301/301/301
f 294/294/294 222/222/222 302/302/302
f 222/222/222 221/221/221 302/302/302
f 222/222/222 294/294/294 223/223/223
f 305/305/305 304/304/304 303/303/303
f 303/303/303 304/304/304 306/306/306
f 307/307/307 303/303/303 306/306/306
f 303/303/303 307/307/307 308/308/308
f 308/308/308 309/309/309 303/303/303
f 303/303/303 309/309/309 310/310/310
f 305/305/305 303/303/303 310/310/310
f 313/313/313 312/312/312 311/311/311
f 314/314/314 311/311/311 312/312/312
f 315/315/315 311/311/311 314/314/314
f 315/315/315 316/316/316 311/311/311
f 316/316/316 317/317/317 311/311/311
f 311/311/311 317/317/317 318/318/318
f 321/321/321 320/320/320 319/319/319
f 322/322/322 319/319/319 320/320/320
f 323/323/323 321/321/321 319/319/319
f 319/319/319 324/324/324 323/323/323
f 319/319/319 322/322/322 324/324/324
f 325/325/325 323/323/323 324/324/324
f 325/325/325 324/324/324 236/236/236
f 238/238/238 236/236/236 324/324/324
f 326/326/326 238/238/238 324/324/324
f 326/326/326 324/324/324 322/322/322
f 325/325/325 236/236/236 237/237/237
f 240/240/240 325/325/325 237/237/237
f 240/240/240 323/323/323 325/325/325
f 329/329/329 328/328/328 327/327/327
f 260/260/260 251/251/251 241/241/241
f 259/259/259 331/331/331 330/330/330
f 239/239/239 226/226/226 224/224/224
f 172/172/172 332/332/332 175/175/175
f 335/335/335 334/334/334 333/333/333
f 335/335/335 333/333/333 336/336/336
f 336/336/336 333/333/333 337/337/337
f 337/337/337 338/338/338 336/336/336
f 339/339/339 335/335/335 336/336/336
f 339/339/339 340/340/340 335/335/335
f 340/340/340 334/334/334 335/335/335
f 333/333/333 334/334/334 341/341/341
f 341/341/341 334/334/334 342/342/342
f 341/341/341 342/342/342 343/343/343
f 344/344/344 342/342/342 334/334/334
f 344/344/344 345/345/345 342/342/342
f 346/346/346 334/334/334 340/340/340
f 347/347/347 344/344/344 334/334/334
f 348/348/348 347/347/347 334/334/334
f 346/346/346 348/348/348 334/334/334
f 351/351/351 350/350/350 349/349/349
f 352/352/352 349/349/349 350/350/350
f 350/350/350 353/353/353 352/352/352
f 354/354/354 352/352/352 353/353/353
f 349/349/349 355/355/355 351/351/351
f 356/356/356 351/351/351 355/355/355
f 355/355/355 357/357/357 356/356/356
f 358/358/358 356/356/356 357/357/357
f 357/357/357 359/359/359 358/358/358
f 360/360/360 358/358/358 359/359/359
f 363/363/363 362/362/362 361/361/361
f 364/364/364 361/361/361 362/362/362
f 361/361/361 364/364/364 365/365/365
f 366/366/366 365/365/365 364/364/364
f 365/365/365 366/366/366 367/367/367
f 368/368/368 367/367/367 366/366/366
f 367/367/367 368/368/368 369/369/369
f 370/370/370 369/369/369 368/368/368
f 369/369/369 370/370/370 371/371/371
f 372/372/372 371/371/371 370/370/370
f 371/371/371 372/372/372 373/373/373
f 374/374/374 373/373/373 372/372/372
f 373/373/373 374/374/374 375/375/375
f 376/376/376 375/375/375 374/374/374
f 375/375/375 376/376/376 377/377/377
f 378/378/378 377/377/377 376/376/376
f 381/381/381 380/380/380 379/379/379
f 382/382/382 379/379/379 380/380/380
f 380/380/380 381/381/381 383/383/383
f 379/379/379 385/385/385 384/384/384
f 386/386/386 384/384/384 385/385/385
f 388/388/388 387/387/387 381/381/381
f 391/391/391 390/390/390 389/389/389
f 392/392/392 389/389/389 390/390/390
f 390/390/390 391/391/391 393/393/393
f 394/394/394 393/393/393 391/391/391
f 393/393/393 394/394/394 395/395/395
f 396/396/396 395/395/395 394/394/394
f 397/397/397 389/389/389 392/392/392
f 398/398/398 389/389/389 397/397/397
f 401/401/401 400/400/400 399/399/399
f 400/400/400 402/402/402 399/399/399
f 400/400/400 401/401/401 403/403/403
f 404/404/404 403/403/403 401/401/401
f 403/403/403 404/404/404 405/405/405
f 406/406/406 405/405/405 404/404/404
f 405/405/405 406/406/406 407/407/407
f 408/408/408 407/407/407 406/406/406
f 411/411/411 410/410/410 409/409/409
f 411/411/411 409/409/409 412/412/412
f 410/410/410 413/413/413 409/409/409
f 413/413/413 414/414/414 409/409/409
f 413/413/413 415/415/415 414/414/414
f 415/415/415 416/416/416 414/414/414
f 416/416/416 417/417/417 414/414/414
f 417/417/417 418/418/418 414/414/414
f 418/418/418 419/419/419 414/414/414
f 420/420/420 419/419/419 418/418/418
f 423/423/423 422/422/422 421/421/421
f 424/424/424 421/421/421 422/422/422
f 421/421/421 424/424/424 425/425/425
f 426/426/426 425/425/425 424/424/424
f 422/422/422 423/423/423 427/427/427
f 428/428/428 427/427/427 423/423/423
f 431/431/431 430/430/430 429/429/429
f 432/432/432 429/429/429 430/430/430
f 433/433/433 429/429/429 432/432/432
f 434/434/434 433/433/433 432/432/432
f 435/435/435 433/433/433 434/434/434
f 435/435/435 437/437/437 436/436/436
f 436/436/436 437/437/437 438/438/438
f 436/436/436 438/438/438 439/439/439
f 439/439/439 438/438/438 440/440/440
f 441/441/441 440/440/440 438/438/438
f 444/444/444 443/443/443 442/442/442
f 445/445/445 442/442/442 443/443/443
f 442/442/442 445/445/445 446/446/446
f 447/447/447 446/446/446 445/445/445
f 448/448/448 446/446/446 447/447/447
f 448/448/448 450/450/450 449/449/449
f 449/449/449 450/450/450 451/451/451
f 452/452/452 451/451/451 450/450/450
f 451/451/451 452/452/452 453/453/453
f 454/454/454 453/453/453 452/452/452
f 457/457/457 456/456/456 455/455/455
f 455/455/455 456/456/456 458/458/458
f 455/455/455 458/458/458 459/459/459
f 460/460/460 459/459/459 458/458/458
f 456/456/456 461/461/461 458/458/458
f 462/462/462 461/461/461 456/456/456
f 457/457/457 462/462/462 456/456/456
f 457/457/457 455/455/455 463/463/463
f 457/457/457 463/463/463 464/464/464
f 464/464/464 463/463/463 465/465/465
f 464/464/464 466/466/466 457/457/457
f 467/467/467 466/466/466 464/464/464
f 457/457/457 468/468/468 462/462/462
f 466/466/466 469/469/469 457/457/457
f 469/469/469 470/470/470 457/457/457
f 470/470/470 468/468/468 457/457/457
f 473/473/473 472/472/472 471/471/471
f 474/474/474 471/471/471 472/472/472
f 472/472/472 473/473/473 475/475/475
f 476/476/476 475/475/475 473/473/473
f 471/471/471 474/474/474 477/477/477
f 478/478/478 477/477/477 474/474/474
f 477/477/477 478/478/478 479/479/479
f 480/480/480 479/479/479 478/478/478
f 479/479/479 480/480/480 481/481/481
f 482/482/482 481/481/481 480/480/480
f 485/485/485 484/484/484 483/483/483
f 486/486/486 483/483/483 484/484/484
f 483/483/483 487/487/487 485/485/485
f 488/488/488 485/485/485 487/487/487
f 487/487/487 489/489/489 488/488/488
f 490/490/490 488/488/488 489/489/489
f 489/489/489 491/491/491 490/490/490
f 492/492/492 490/490/490 491/491/491
f 491/491/491 493/493/493 492/492/492
f 494/494/494 492/492/492 493/493/493
f 493/493/493 495/495/495 494/494/494
f 496/496/496 494/494/494 495/495/495
f 495/495/495 497/497/497 496/496/496
f 498/498/498 496/496/496 497/497/497
f 497/497/497 499/499/499 498/498/498
f 500/500/500 498/498/498 499/499/499
f 503/503/503 502/502/502 501/501/501
f 504/504/504 501/501/501 502/502/502
f 502/502/502 505/505/505 504/504/504
f 501/501/501 507/507/507 506/506/506
f 508/508/508 506/506/506 507/507/507
f 510/510/510 504/504/504 509/509/509
f 513/513/513 512/512/512 511/511/511
f 514/514/514 511/511/511 512/512/512
f 512/512/512 515/515/515 514/514/514
f 516/516/516 514/514/514 515/515/515
f 515/515/515 517/517/517 516/516/516
f 518/518/518 516/516/516 517/517/517
f 511/511/511 519/519/519 513/513/513
f 511/511/511 520/520/520 519/519/519
f 523/523/523 522/522/522 521/521/521
f 524/524/524 523/523/523 521/521/521
f 523/523/523 525/525/525 522/522/522
f 526/526/526 522/522/522 525/525/525
f 525/525/525 527/527/527 526/526/526
f 528/528/528 526/526/526 527/527/527
f 527/527/527 529/529/529 528/528/528
f 530/530/530 528/528/528 529/529/529
f 533/533/533 532/532/532 531/531/531
f 531/531/531 532/532/532 534/534/534
f 535/535/535 533/533/533 531/531/531
f 536/536/536 535/535/535 531/531/531
f 537/537/537 535/535/535 536/536/536
f 538/538/538 537/537/537 536/536/536
f 539/539/539 538/538/538 536/536/536
f 540/540/540 539/539/539 536/536/536
f 541/541/541 540/540/540 536/536/536
f 541/541/541 542/542/542 540/540/540
f 545/545/545 544/544/544 543/543/543
f 546/546/546 543/543/543 544/544/544
f 543/543/543 547/547/547 545/545/545
f 548/548/548 545/545/545 547/547/547
f 544/544/544 549/549/549 546/546/546
f 550/550/550 546/546/546 549/549/549
f 553/553/553 552/552/552 551/551/551
f 554/554/554 551/551/551 552/552/552
f 551/551/551 555/555/555 553/553/553
f 555/555/555 556/556/556 553/553/553
f 555/555/555 557/557/557 556/556/556
f 559/559/559 557/557/557 558/558/558
f 559/559/559 558/558/558 560/560/560
f 560/560/560 558/558/558 561/561/561
f 561/561/561 562/562/562 560/560/560
f 563/563/563 560/560/560 562/562/562
f 566/566/566 565/565/565 564/564/564
f 567/567/567 564/564/564 565/565/565
f 564/564/564 568/568/568 566/566/566
f 569/569/569 566/566/566 568/568/568
f 568/568/568 570/570/570 569/569/569
f 572/572/572 570/570/570 571/571/571
f 571/571/571 573/573/573 572/572/572
f 574/574/574 572/572/572 573/573/573
f 573/573/573 575/575/575 574/574/574
f 576/576/576 574/574/574 575/575/575
