g QJ_A_WQ
v 0.4663429 0.2164743 1.216645
v 0.5465774 0.07428487 1.270074
v 0.4497581 0.09296233 1.185465
v 0.3357371 0.1245587 1.224705
v 0.4072275 -0.0275161 1.271104
v 0.3577685 -0.04636615 1.129636
v 0.3059185 -0.06408166 1.095256
v 0.2998422 -0.03054008 1.110058
v 0.3119469 -0.0150189 1.133194
v 0.3321575 0.01679143 1.151173
v 0.3646216 0.009954274 1.162366
v 0.3945417 -0.005594915 1.162464
v 0.4215553 -0.0261026 1.129195
v 0.3455089 -0.0711604 1.065065
v 0.4104247 -0.05341067 1.081545
v 0.2877057 0.01889134 1.014734
v 0.2838269 -0.01013698 1.000103
v 0.3159356 0.0238651 1.002888
v 0.3045389 -0.05189592 1.083677
v 0.3034163 -0.01001392 1.083123
v 0.3303173 -0.05848802 1.048477
v 0.3246971 0.001077138 1.105892
v 0.3444814 -0.05648283 1.051241
v 0.3159356 0.0238651 1.002888
v 0.3295835 0.01484888 1.034292
v 0.3809863 -0.04172602 1.033271
v 0.3303173 -0.05848802 1.048477
v 0.3303173 -0.05848802 1.048477
v 0.3108868 -0.0103439 0.9861494
v 0.3303173 -0.05848802 1.048477
v 0.3108868 -0.0103439 0.9861494
v 0.2838269 -0.01013698 1.000103
v 0.3809863 -0.04172602 1.033271
v 0.4261558 -0.01720856 1.121016
v 0.4935032 -0.02890256 1.076751
v 0.4277779 -0.06324872 1.017698
v 0.4309904 0.00990501 1.173043
v 0.5194544 0.0696094 1.162701
v 0.5183818 0.048908 1.058565
v 0.5173633 0.1400835 1.037085
v 0.4651443 0.1510039 1.136622
v 0.4025366 0.001103528 1.15097
v 0.3846563 0.02848004 1.144396
v 0.3928705 0.09944047 1.149404
v 0.3497327 0.04199155 1.126791
v 0.5535015 0.04281976 1.032197
v 0.5173633 0.1400835 1.037085
v 0.542781 0.1414349 1.016767
v 0.5252098 -0.0417752 1.052795
v 0.4605278 -0.06506603 1.021913
v 0.52771 -0.0548145 1.01729
v 0.5626405 0.02796769 0.9876869
v 0.542781 0.1414349 1.016767
v 0.5530364 0.1276134 0.9745372
v 0.553015 0.01479734 0.9442357
v 0.5253185 -0.07236992 0.983761
v 0.5352765 0.1164805 0.9339814
v 0.4861627 0.1000454 0.894488
v 0.469341 -0.06945808 0.9325339
v 0.49076 0.0070515 0.9017454
v 0.469341 -0.06945808 0.9325339
v 0.4193624 0.1011685 0.8889852
v 0.4018372 0.1403648 0.9711131
v 0.4198933 0.01499494 0.8891795
v 0.3980625 -0.0573589 0.9254848
v 0.4757991 0.1450976 0.9720308
v 0.4199663 0.1444808 0.9827295
v 0.5173633 0.1400835 1.037085
v 0.3401509 -0.03173403 0.9617233
v 0.3510662 0.004442847 0.9435706
v 0.3016787 -0.006109155 1.031302
v 0.3552527 0.04157583 0.9280928
v 0.3100515 0.06815686 1.000346
v 0.3416237 0.1186042 0.9667566
v 0.3707733 0.1098864 0.911201
v 0.3358372 0.06564508 1.018415
v 0.3016787 -0.006109155 1.031302
v 0.3574919 -0.04194563 0.9592997
v 0.368851 0.1126414 0.9792359
v 0.4018372 0.1403648 0.9711131
v 0.3980625 -0.0573589 0.9254848
v 0.469341 -0.06945808 0.9325339
v 0.469341 -0.06945808 0.9325339
v 0.469341 -0.06945808 0.9325339
v 0.3295835 0.01484888 1.034292
v 0.3574919 -0.04194563 0.9592997
v 0.4199663 0.1444808 0.9827295
v 0.4018372 0.1403648 0.9711131
v 0.3928705 0.09944047 1.149404
v 0.3497327 0.04199155 1.126791
v 0.4651443 0.1510039 1.136622
v 0.3382755 0.01436812 1.116198
v 0.3246971 0.001077138 1.105892
v 0.3034163 -0.01001392 1.083123
v 0.2877057 0.01889134 1.014734
v 0.3159356 0.0238651 1.002888
v 0.368851 0.1126414 0.9792359
v 0.3574919 -0.04194563 0.9592997
v 0.3358372 0.06564508 1.018415
v 0.3294539 -0.004673427 1.04373
v 0.3980625 -0.0573589 0.9254848
v 0.469341 -0.06945808 0.9325339
v 0.3574919 -0.04194563 0.9592997
v 0.3016787 -0.006109155 1.031302
v 0.3294539 -0.004673427 1.04373
v 0.3016787 -0.006109155 1.031302
v 0.3358372 0.06564508 1.018415
v 0.5173633 0.1400835 1.037085
v 0.542781 0.1414349 1.016767
v 0.3295835 0.01484888 1.034292
v 0.4277779 -0.06324872 1.017698
v 0.3574919 -0.04194563 0.9592997
v 0.3809863 -0.04172602 1.033271
v 0.4663429 0.2164743 1.216645
v 0.5194544 0.0696094 1.162701
v 0.5465774 0.07428487 1.270074
v 0.4651443 0.1510039 1.136622
v 0.3357371 0.1245587 1.224705
v 0.3928705 0.09944047 1.149404
v 0.4072275 -0.0275161 1.271104
v 0.4309904 0.00990501 1.173043
v 0.3357371 0.1245587 1.224705
v 0.3928705 0.09944047 1.149404
v 0.3382755 0.01436812 1.116198
v 0.3119469 -0.0150189 1.133194
v 0.3246971 0.001077138 1.105892
v 0.2998422 -0.03054008 1.110058
v 0.3045389 -0.05189592 1.083677
v 0.3497327 0.04199155 1.126791
v 0.3321575 0.01679143 1.151173
v 0.3846563 0.02848004 1.144396
v 0.3646216 0.009954274 1.162366
v 0.3059185 -0.06408166 1.095256
v 0.3945417 -0.005594915 1.162464
v 0.4025366 0.001103528 1.15097
v 0.3045389 -0.05189592 1.083677
v 0.3059185 -0.06408166 1.095256
v 0.3455089 -0.0711604 1.065065
v 0.3444814 -0.05648283 1.051241
v 0.3809863 -0.04172602 1.033271
v 0.3809863 -0.04172602 1.033271
v 0.4104247 -0.05341067 1.081545
v 0.3809863 -0.04172602 1.033271
v 0.4215553 -0.0261026 1.129195
v 0.4261558 -0.01720856 1.121016
v 0.3945417 -0.005594915 1.162464
v 0.4025366 0.001103528 1.15097
v 0.4018372 0.1403648 0.9711131
v 0.4199663 0.1444808 0.9827295
v -0.4663429 0.2164743 1.216645
v -0.4497581 0.09296233 1.185465
v -0.5465774 0.07428487 1.270074
v -0.3357371 0.1245587 1.224705
v -0.4072275 -0.0275161 1.271104
v -0.3577685 -0.04636615 1.129636
v -0.2998422 -0.03054008 1.110058
v -0.3059185 -0.06408166 1.095256
v -0.3119469 -0.0150189 1.133194
v -0.3321575 0.01679143 1.151173
v -0.3646216 0.009954274 1.162366
v -0.3945417 -0.005594915 1.162464
v -0.4215553 -0.0261026 1.129195
v -0.3455089 -0.0711604 1.065065
v -0.4104247 -0.05341067 1.081545
v -0.2877057 0.01889134 1.014734
v -0.3159356 0.0238651 1.002888
v -0.2838269 -0.01013698 1.000103
v -0.3045389 -0.05189592 1.083677
v -0.3034163 -0.01001392 1.083123
v -0.3303173 -0.05848802 1.048477
v -0.3246971 0.001077138 1.105892
v -0.3444814 -0.05648283 1.051241
v -0.3159356 0.0238651 1.002888
v -0.3295835 0.01484888 1.034292
v -0.3809863 -0.04172602 1.033271
v -0.3303173 -0.05848802 1.048477
v -0.3303173 -0.05848802 1.048477
v -0.3108868 -0.0103439 0.9861494
v -0.3303173 -0.05848802 1.048477
v -0.3108868 -0.0103439 0.9861494
v -0.2838269 -0.01013698 1.000103
v -0.3809863 -0.04172602 1.033271
v -0.4935032 -0.02890256 1.076751
v -0.4261558 -0.01720856 1.121016
v -0.4277779 -0.06324872 1.017698
v -0.4309904 0.00990501 1.173043
v -0.5194544 0.0696094 1.162701
v -0.5183818 0.048908 1.058565
v -0.5173633 0.1400835 1.037085
v -0.4651443 0.1510039 1.136622
v -0.4025366 0.001103528 1.15097
v -0.3846563 0.02848004 1.144396
v -0.3928705 0.09944047 1.149404
v -0.3497327 0.04199155 1.126791
v -0.5535015 0.04281976 1.032197
v -0.5173633 0.1400835 1.037085
v -0.542781 0.1414349 1.016767
v -0.5252098 -0.0417752 1.052795
v -0.4605278 -0.06506603 1.021913
v -0.52771 -0.0548145 1.01729
v -0.5626405 0.02796769 0.9876869
v -0.542781 0.1414349 1.016767
v -0.5530364 0.1276134 0.9745372
v -0.553015 0.01479734 0.9442357
v -0.5253185 -0.07236992 0.983761
v -0.5352765 0.1164805 0.9339814
v -0.4861627 0.1000454 0.894488
v -0.469341 -0.06945808 0.9325339
v -0.49076 0.0070515 0.9017454
v -0.469341 -0.06945808 0.9325339
v -0.4193624 0.1011685 0.8889852
v -0.4018372 0.1403648 0.9711131
v -0.4198933 0.01499494 0.8891795
v -0.3980625 -0.0573589 0.9254848
v -0.4757991 0.1450976 0.9720308
v -0.4199663 0.1444808 0.9827295
v -0.5173633 0.1400835 1.037085
v -0.3401509 -0.03173403 0.9617233
v -0.3510662 0.004442847 0.9435706
v -0.3016787 -0.006109155 1.031302
v -0.3552527 0.04157583 0.9280928
v -0.3100515 0.06815686 1.000346
v -0.3416237 0.1186042 0.9667566
v -0.3707733 0.1098864 0.911201
v -0.3358372 0.06564508 1.018415
v -0.3016787 -0.006109155 1.031302
v -0.3574919 -0.04194563 0.9592997
v -0.368851 0.1126414 0.9792359
v -0.4018372 0.1403648 0.9711131
v -0.3980625 -0.0573589 0.9254848
v -0.469341 -0.06945808 0.9325339
v -0.469341 -0.06945808 0.9325339
v -0.469341 -0.06945808 0.9325339
v -0.3295835 0.01484888 1.034292
v -0.4199663 0.1444808 0.9827295
v -0.3574919 -0.04194563 0.9592997
v -0.4018372 0.1403648 0.9711131
v -0.3928705 0.09944047 1.149404
v -0.3497327 0.04199155 1.126791
v -0.4651443 0.1510039 1.136622
v -0.3382755 0.01436812 1.116198
v -0.3246971 0.001077138 1.105892
v -0.3034163 -0.01001392 1.083123
v -0.2877057 0.01889134 1.014734
v -0.3159356 0.0238651 1.002888
v -0.368851 0.1126414 0.9792359
v -0.3574919 -0.04194563 0.9592997
v -0.3358372 0.06564508 1.018415
v -0.3294539 -0.004673427 1.04373
v -0.3980625 -0.0573589 0.9254848
v -0.469341 -0.06945808 0.9325339
v -0.3016787 -0.006109155 1.031302
v -0.3574919 -0.04194563 0.9592997
v -0.3294539 -0.004673427 1.04373
v -0.3358372 0.06564508 1.018415
v -0.3016787 -0.006109155 1.031302
v -0.5173633 0.1400835 1.037085
v -0.542781 0.1414349 1.016767
v -0.3295835 0.01484888 1.034292
v -0.4277779 -0.06324872 1.017698
v -0.3809863 -0.04172602 1.033271
v -0.3574919 -0.04194563 0.9592997
v -0.4663429 0.2164743 1.216645
v -0.5194544 0.0696094 1.162701
v -0.4651443 0.1510039 1.136622
v -0.5465774 0.07428487 1.270074
v -0.3357371 0.1245587 1.224705
v -0.3928705 0.09944047 1.149404
v -0.4072275 -0.0275161 1.271104
v -0.4309904 0.00990501 1.173043
v -0.3357371 0.1245587 1.224705
v -0.3928705 0.09944047 1.149404
v -0.3382755 0.01436812 1.116198
v -0.3246971 0.001077138 1.105892
v -0.3119469 -0.0150189 1.133194
v -0.2998422 -0.03054008 1.110058
v -0.3045389 -0.05189592 1.083677
v -0.3497327 0.04199155 1.126791
v -0.3321575 0.01679143 1.151173
v -0.3846563 0.02848004 1.144396
v -0.3646216 0.009954274 1.162366
v -0.3059185 -0.06408166 1.095256
v -0.3945417 -0.005594915 1.162464
v -0.4025366 0.001103528 1.15097
v -0.3045389 -0.05189592 1.083677
v -0.3455089 -0.0711604 1.065065
v -0.3059185 -0.06408166 1.095256
v -0.3444814 -0.05648283 1.051241
v -0.3809863 -0.04172602 1.033271
v -0.3809863 -0.04172602 1.033271
v -0.4104247 -0.05341067 1.081545
v -0.3809863 -0.04172602 1.033271
v -0.4215553 -0.0261026 1.129195
v -0.4261558 -0.01720856 1.121016
v -0.3945417 -0.005594915 1.162464
v -0.4025366 0.001103528 1.15097
v -0.4018372 0.1403648 0.9711131
v -0.4199663 0.1444808 0.9827295
vt 0.5199985 0.7710178
vt 0.5139324 0.8737637
vt 0.4710905 0.8210611
vt 0.4242399 0.7757053
vt 0.4105153 0.8794152
vt 0.8913863 0.8083189
vt 0.84108 0.8780548
vt 0.9007392 0.8832084
vt 0.9350381 0.8669805
vt 0.9762419 0.813154
vt 0.9767766 0.7747625
vt 0.9404051 0.7430531
vt 0.8804342 0.7238617
vt 0.8074832 0.8218448
vt 0.8174205 0.7605262
vt 0.03476427 0.2075426
vt 0.05130364 0.1759382
vt 0.01328799 0.1635486
vt 0.1877706 0.2216509
vt 0.1503684 0.3073742
vt 0.1507297 0.1050821
vt 0.1847717 0.3330728
vt 0.184076 0.1087619
vt 0.01328799 0.1635486
vt 0.02819073 0.01660823
vt 0.1888834 0.01317518
vt 0.1507297 0.1050821
vt 0.1507297 0.1050821
vt 0.04190844 0.1697818
vt 0.1507297 0.1050821
vt 0.04190844 0.1697818
vt 0.05130364 0.1759382
vt 0.4683626 0.2989304
vt 0.456887 0.1862374
vt 0.562232 0.2475012
vt 0.5245186 0.3745232
vt 0.4602307 0.05698663
vt 0.7099974 0.02382783
vt 0.7155665 0.2063347
vt 0.8942849 0.2001346
vt 0.950771 0.03821064
vt 0.3990934 0.1332991
vt 0.3386815 0.1217783
vt 0.2889968 0.01786122
vt 0.2863151 0.1400685
vt 0.7349653 0.2546564
vt 0.8942849 0.2001346
vt 0.897743 0.2346445
vt 0.5795714 0.3169887
vt 0.546509 0.3670664
vt 0.5746505 0.3583374
vt 0.741791 0.3142615
vt 0.897743 0.2346445
vt 0.9116048 0.2897561
vt 0.7530773 0.3528822
vt 0.5924659 0.3891585
vt 0.9103828 0.3251859
vt 0.9100712 0.3917221
vt 0.6037114 0.4550427
vt 0.7608244 0.4122463
vt 0.6037114 0.4550427
vt 0.9079768 0.4953471
vt 0.9570449 0.5161586
vt 0.7701735 0.5178379
vt 0.6162267 0.5367456
vt 0.9563758 0.2891672
vt 0.9962279 0.3239945
vt 0.8942849 0.2001346
vt 0.6301413 0.6167418
vt 0.7068776 0.6103433
vt 0.639733 0.7085907
vt 0.7710138 0.6108757
vt 0.7702981 0.7096025
vt 0.8659433 0.6459207
vt 0.885909 0.5683506
vt 0.7480221 0.7429004
vt 0.639733 0.7085907
vt 0.5377326 0.5597199
vt 0.8768279 0.6734686
vt 0.9570449 0.5161586
vt 0.6162267 0.5367456
vt 0.6037114 0.4550427
vt 0.6037114 0.4550427
vt 0.6037114 0.4550427
vt 0.2643885 0.7568611
vt 0.270258 0.5387708
vt 0.02799389 0.7438789
vt 0.02456626 0.5728674
vt 0.1711145 0.9794424
vt 0.2536456 0.9285539
vt 0.041612 0.9618267
vt 0.3071208 0.8957255
vt 0.352052 0.8476012
vt 0.3776034 0.8202342
vt 0.4488939 0.6918371
vt 0.4140635 0.6552061
vt 0.04995903 0.4470889
vt 0.270258 0.5387708
vt 0.1492096 0.3848467
vt 0.2751815 0.3774944
vt 0.6162267 0.5367456
vt 0.6037114 0.4550427
vt 0.5377326 0.5597199
vt 0.639733 0.7085907
vt 0.6179656 0.7058882
vt 0.639733 0.7085907
vt 0.7480221 0.7429004
vt 0.8942849 0.2001346
vt 0.897743 0.2346445
vt 0.4098872 0.6298261
vt 0.2937428 0.5694479
vt 0.2728518 0.7430983
vt 0.3634995 0.5301769
vt 0.3173284 0.3882913
vt 0.4848324 0.5592541
vt 0.4181933 0.602178
vt 0.3896713 0.3547643
vt 0.226251 0.1753137
vt 0.3002267 0.1543689
vt 0.5568718 0.8022965
vt 0.6178662 0.7491353
vt 0.730006 0.9668587
vt 0.7825959 0.9123759
vt 0.4930817 0.9196766
vt 0.4760346 0.8884254
vt 0.4205853 0.9196766
vt 0.4257285 0.8887553
vt 0.3411227 0.9196766
vt 0.5514334 0.9196766
vt 0.5514334 0.8932275
vt 0.5917732 0.9196766
vt 0.5917732 0.8932275
vt 0.3411227 0.8932275
vt 0.6380885 0.8932275
vt 0.6380885 0.9196766
vt 0.6427214 0.9785256
vt 0.6427214 0.9529243
vt 0.5656788 0.9529243
vt 0.5656788 0.9785256
vt 0.4965656 0.9785256
vt 0.4965656 0.9785256
vt 0.4965656 0.9529243
vt 0.4965656 0.9785256
vt 0.4082251 0.9529243
vt 0.4082251 0.9785256
vt 0.3445725 0.9529243
vt 0.3445725 0.9785256
vt 0.9570449 0.5161586
vt 0.9962279 0.3239945
vt 0.5199985 0.7710178
vt 0.4710905 0.8210611
vt 0.5139324 0.8737637
vt 0.4242399 0.7757053
vt 0.4105153 0.8794152
vt 0.8913863 0.8083189
vt 0.9007392 0.8832084
vt 0.84108 0.8780548
vt 0.9350381 0.8669805
vt 0.9762419 0.813154
vt 0.9767766 0.7747625
vt 0.9404051 0.7430531
vt 0.8804342 0.7238617
vt 0.8074832 0.8218448
vt 0.8174205 0.7605262
vt 0.03476427 0.2075426
vt 0.01328799 0.1635486
vt 0.05130364 0.1759382
vt 0.1877706 0.2216509
vt 0.1503684 0.3073742
vt 0.1507297 0.1050821
vt 0.1847717 0.3330728
vt 0.184076 0.1087619
vt 0.01328799 0.1635486
vt 0.02819073 0.01660823
vt 0.1888834 0.01317518
vt 0.1507297 0.1050821
vt 0.1507297 0.1050821
vt 0.04190844 0.1697818
vt 0.1507297 0.1050821
vt 0.04190844 0.1697818
vt 0.05130364 0.1759382
vt 0.4683626 0.2989304
vt 0.562232 0.2475012
vt 0.456887 0.1862374
vt 0.5245186 0.3745232
vt 0.4602307 0.05698663
vt 0.7099974 0.02382783
vt 0.7155665 0.2063347
vt 0.8942849 0.2001346
vt 0.950771 0.03821064
vt 0.3990934 0.1332991
vt 0.3386815 0.1217783
vt 0.2889968 0.01786122
vt 0.2863151 0.1400685
vt 0.7349653 0.2546564
vt 0.8942849 0.2001346
vt 0.897743 0.2346445
vt 0.5795714 0.3169887
vt 0.546509 0.3670664
vt 0.5746505 0.3583374
vt 0.741791 0.3142615
vt 0.897743 0.2346445
vt 0.9116048 0.2897561
vt 0.7530773 0.3528822
vt 0.5924659 0.3891585
vt 0.9103828 0.3251859
vt 0.9100712 0.3917221
vt 0.6037114 0.4550427
vt 0.7608244 0.4122463
vt 0.6037114 0.4550427
vt 0.9079768 0.4953471
vt 0.9570449 0.5161586
vt 0.7701735 0.5178379
vt 0.6162267 0.5367456
vt 0.9563758 0.2891672
vt 0.9962279 0.3239945
vt 0.8942849 0.2001346
vt 0.6301413 0.6167418
vt 0.7068776 0.6103433
vt 0.639733 0.7085907
vt 0.7710138 0.6108757
vt 0.7702981 0.7096025
vt 0.8659433 0.6459207
vt 0.885909 0.5683506
vt 0.7480221 0.7429004
vt 0.639733 0.7085907
vt 0.5377326 0.5597199
vt 0.8768279 0.6734686
vt 0.9570449 0.5161586
vt 0.6162267 0.5367456
vt 0.6037114 0.4550427
vt 0.6037114 0.4550427
vt 0.6037114 0.4550427
vt 0.2643885 0.7568611
vt 0.02799389 0.7438789
vt 0.270258 0.5387708
vt 0.02456626 0.5728674
vt 0.1711145 0.9794424
vt 0.2536456 0.9285539
vt 0.041612 0.9618267
vt 0.3071208 0.8957255
vt 0.352052 0.8476012
vt 0.3776034 0.8202342
vt 0.4488939 0.6918371
vt 0.4140635 0.6552061
vt 0.04995903 0.4470889
vt 0.270258 0.5387708
vt 0.1492096 0.3848467
vt 0.2751815 0.3774944
vt 0.6162267 0.5367456
vt 0.6037114 0.4550427
vt 0.639733 0.7085907
vt 0.5377326 0.5597199
vt 0.6179656 0.7058882
vt 0.7480221 0.7429004
vt 0.639733 0.7085907
vt 0.8942849 0.2001346
vt 0.897743 0.2346445
vt 0.4098872 0.6298261
vt 0.2937428 0.5694479
vt 0.3634995 0.5301769
vt 0.2728518 0.7430983
vt 0.3173284 0.3882913
vt 0.4848324 0.5592541
vt 0.3896713 0.3547643
vt 0.4181933 0.602178
vt 0.226251 0.1753137
vt 0.3002267 0.1543689
vt 0.5568718 0.8022965
vt 0.6178662 0.7491353
vt 0.730006 0.9668587
vt 0.7825959 0.9123759
vt 0.4930817 0.9196766
vt 0.4205853 0.9196766
vt 0.4760346 0.8884254
vt 0.4257285 0.8887553
vt 0.3411227 0.9196766
vt 0.5514334 0.9196766
vt 0.5514334 0.8932275
vt 0.5917732 0.9196766
vt 0.5917732 0.8932275
vt 0.3411227 0.8932275
vt 0.6380885 0.8932275
vt 0.6380885 0.9196766
vt 0.6427214 0.9785256
vt 0.5656788 0.9529243
vt 0.6427214 0.9529243
vt 0.5656788 0.9785256
vt 0.4965656 0.9785256
vt 0.4965656 0.9785256
vt 0.4965656 0.9529243
vt 0.4965656 0.9785256
vt 0.4082251 0.9529243
vt 0.4082251 0.9785256
vt 0.3445725 0.9529243
vt 0.3445725 0.9785256
vt 0.9570449 0.5161586
vt 0.9962279 0.3239945
vn 0.1152109 0.9335132 0.3395287
vn 0.6908705 -0.04177268 0.7217708
vn -0.1533399 0.1981594 0.9681011
vn -0.8658259 0.3049462 0.3966779
vn -0.2918212 -0.7241647 0.6248407
vn -0.03929364 -0.7542568 0.6554027
vn -0.6244527 -0.7609205 0.1762352
vn -0.9764889 0.04956349 0.2097925
vn -0.7956766 0.000655594 0.6057212
vn -0.6240273 0.3496923 0.6987885
vn -0.1419493 0.1690657 0.9753293
vn 0.3452109 -0.1264204 0.9299717
vn 0.7548903 -0.4969583 0.4279872
vn -0.1007074 -0.9558144 -0.2761825
vn 0.8301693 -0.5328287 -0.16405
vn -0.7060949 0.7034842 -0.08087093
vn -0.8279896 -0.1992606 -0.5241454
vn 0.3738365 0.7803837 -0.501246
vn -0.9013804 -0.3853182 -0.1975942
vn -0.8284957 0.3708646 0.4195881
vn -0.06599489 -0.922021 -0.3814734
vn -0.756833 0.6469469 0.09307824
vn -0.04463198 -0.8778577 -0.4768374
vn 0.3738365 0.7803837 -0.501246
vn -0.5550416 0.7713838 -0.311281
vn -0.1331336 -0.7441556 -0.6546051
vn -0.06599489 -0.922021 -0.3814734
vn -0.06599489 -0.922021 -0.3814734
vn 0.2527029 -0.1845446 -0.9497813
vn -0.06599489 -0.922021 -0.3814734
vn 0.2527029 -0.1845446 -0.9497813
vn -0.8279896 -0.1992606 -0.5241454
vn -0.1331336 -0.7441556 -0.6546051
vn 0.4505194 -0.8275577 0.3349332
vn 0.4020488 -0.6912836 0.600403
vn -0.2349811 -0.9238551 0.3021185
vn -0.1186369 -0.9576246 0.2624508
vn 0.9847148 -0.1721152 0.02670672
vn 0.8831043 -0.02617842 0.4684458
vn 0.4901906 0.8158717 0.3067029
vn 0.1850105 0.9578583 -0.2197238
vn 0.2971509 -0.1452936 0.9437114
vn -0.2726794 0.2819514 0.9198637
vn -0.9025176 0.403005 -0.1518183
vn -0.735513 0.5790543 0.3517339
vn 0.862129 0.009679878 0.5065962
vn 0.4901906 0.8158717 0.3067029
vn 0.632472 0.7151549 0.2975442
vn 0.6072533 -0.5520397 0.5713978
vn -0.03814742 -0.9361854 0.3494304
vn 0.6717501 -0.6807144 0.292198
vn 0.9908184 -0.1332473 0.02289145
vn 0.632472 0.7151549 0.2975442
vn 0.7862677 0.5822616 -0.206772
vn 0.8357949 -0.2170907 -0.5042999
vn 0.5729704 -0.8161585 -0.07476844
vn 0.5797938 0.5363094 -0.6133608
vn 0.2640225 0.430658 -0.863033
vn 0.1438182 -0.8210896 -0.5523841
vn 0.3586075 -0.2547866 -0.8980447
vn 0.1438182 -0.8210896 -0.5523841
vn -0.1251139 0.4604038 -0.8788486
vn -0.3002189 0.8978911 0.3219629
vn -0.1830612 -0.2033814 -0.961834
vn -0.338376 -0.7411273 -0.5798551
vn 0.02555862 0.9666498 -0.2548232
vn -0.3784031 0.922739 -0.0732393
vn 0.4901906 0.8158717 0.3067029
vn -0.754132 -0.5174883 -0.4043399
vn -0.7338545 -0.1582302 -0.6606216
vn -0.8352949 -0.3596713 0.4158353
vn -0.7161297 -0.07778419 -0.6936194
vn -0.9140006 0.3798004 0.1426696
vn -0.6908477 0.7220331 0.03738436
vn -0.513799 0.4890054 -0.7049001
vn 0.2349299 0.3688895 0.8992933
vn -0.8352949 -0.3596713 0.4158353
vn -0.4691965 -0.8819845 0.04424942
vn 0.1358112 0.3036678 0.9430488
vn -0.3002189 0.8978911 0.3219629
vn -0.338376 -0.7411273 -0.5798551
vn 0.1438182 -0.8210896 -0.5523841
vn 0.1438182 -0.8210896 -0.5523841
vn 0.1438182 -0.8210896 -0.5523841
vn -0.5550416 0.7713838 -0.311281
vn -0.4691965 -0.8819845 0.04424942
vn -0.3784031 0.922739 -0.0732393
vn -0.3002189 0.8978911 0.3219629
vn -0.9025176 0.403005 -0.1518183
vn -0.735513 0.5790543 0.3517339
vn 0.1850105 0.9578583 -0.2197238
vn -0.8476999 0.5215505 -0.09690179
vn -0.756833 0.6469469 0.09307824
vn -0.8284957 0.3708646 0.4195881
vn -0.7060949 0.7034842 -0.08087093
vn 0.3738365 0.7803837 -0.501246
vn 0.1358112 0.3036678 0.9430488
vn -0.4691965 -0.8819845 0.04424942
vn 0.2349299 0.3688895 0.8992933
vn 0.2876591 -0.3000374 0.9095217
vn -0.338376 -0.7411273 -0.5798551
vn 0.1438182 -0.8210896 -0.5523841
vn -0.4691965 -0.8819845 0.04424942
vn -0.8352949 -0.3596713 0.4158353
vn 0.2876591 -0.3000374 0.9095217
vn -0.8352949 -0.3596713 0.4158353
vn 0.2349299 0.3688895 0.8992933
vn 0.4901906 0.8158717 0.3067029
vn 0.632472 0.7151549 0.2975442
vn -0.5550416 0.7713838 -0.311281
vn -0.2349811 -0.9238551 0.3021185
vn -0.4691965 -0.8819845 0.04424942
vn -0.1331336 -0.7441556 -0.6546051
vn 0.1152109 0.9335132 0.3395287
vn 0.9847148 -0.1721152 0.02670672
vn 0.6908705 -0.04177268 0.7217708
vn 0.1850105 0.9578583 -0.2197238
vn -0.8658259 0.3049462 0.3966779
vn -0.9025176 0.403005 -0.1518183
vn -0.2918212 -0.7241647 0.6248407
vn -0.1186369 -0.9576246 0.2624508
vn -0.8658259 0.3049462 0.3966779
vn -0.9025176 0.403005 -0.1518183
vn -0.8476999 0.5215505 -0.09690179
vn -0.7956766 0.000655594 0.6057212
vn -0.756833 0.6469469 0.09307824
vn -0.9764889 0.04956349 0.2097925
vn -0.9013804 -0.3853182 -0.1975942
vn -0.735513 0.5790543 0.3517339
vn -0.6240273 0.3496923 0.6987885
vn -0.2726794 0.2819514 0.9198637
vn -0.1419493 0.1690657 0.9753293
vn -0.6244527 -0.7609205 0.1762352
vn 0.3452109 -0.1264204 0.9299717
vn 0.2971509 -0.1452936 0.9437114
vn -0.9013804 -0.3853182 -0.1975942
vn -0.6244527 -0.7609205 0.1762352
vn -0.1007074 -0.9558144 -0.2761825
vn -0.04463198 -0.8778577 -0.4768374
vn -0.1331336 -0.7441556 -0.6546051
vn -0.1331336 -0.7441556 -0.6546051
vn 0.8301693 -0.5328287 -0.16405
vn -0.1331336 -0.7441556 -0.6546051
vn 0.7548903 -0.4969583 0.4279872
vn 0.4505194 -0.8275577 0.3349332
vn 0.3452109 -0.1264204 0.9299717
vn 0.2971509 -0.1452936 0.9437114
vn -0.3002189 0.8978911 0.3219629
vn -0.3784031 0.922739 -0.0732393
vn -0.1152109 0.9335132 0.3395287
vn 0.1533399 0.1981594 0.9681011
vn -0.6908705 -0.04177268 0.7217708
vn 0.8658259 0.3049462 0.3966779
vn 0.2918212 -0.7241647 0.6248407
vn 0.03929364 -0.7542568 0.6554027
vn 0.9764889 0.04956349 0.2097925
vn 0.6244527 -0.7609205 0.1762352
vn 0.7956766 0.000655594 0.6057212
vn 0.6240273 0.3496923 0.6987885
vn 0.1419493 0.1690657 0.9753293
vn -0.3452109 -0.1264204 0.9299717
vn -0.7548903 -0.4969583 0.4279872
vn 0.1007074 -0.9558144 -0.2761825
vn -0.8301693 -0.5328287 -0.16405
vn 0.7060949 0.7034842 -0.08087093
vn -0.3738365 0.7803837 -0.501246
vn 0.8279896 -0.1992606 -0.5241454
vn 0.9013804 -0.3853182 -0.1975942
vn 0.8284957 0.3708646 0.4195881
vn 0.06599489 -0.922021 -0.3814734
vn 0.756833 0.6469469 0.09307824
vn 0.04463198 -0.8778577 -0.4768374
vn -0.3738365 0.7803837 -0.501246
vn 0.5550416 0.7713838 -0.311281
vn 0.1331336 -0.7441556 -0.6546051
vn 0.06599489 -0.922021 -0.3814734
vn 0.06599489 -0.922021 -0.3814734
vn -0.2527029 -0.1845446 -0.9497813
vn 0.06599489 -0.922021 -0.3814734
vn -0.2527029 -0.1845446 -0.9497813
vn 0.8279896 -0.1992606 -0.5241454
vn 0.1331336 -0.7441556 -0.6546051
vn -0.4020488 -0.6912836 0.600403
vn -0.4505194 -0.8275577 0.3349332
vn 0.2349811 -0.9238551 0.3021185
vn 0.1186369 -0.9576246 0.2624508
vn -0.9847148 -0.1721152 0.02670672
vn -0.8831043 -0.02617842 0.4684458
vn -0.4901906 0.8158717 0.3067029
vn -0.1850105 0.9578583 -0.2197238
vn -0.2971509 -0.1452936 0.9437114
vn 0.2726794 0.2819514 0.9198637
vn 0.9025176 0.403005 -0.1518183
vn 0.735513 0.5790543 0.3517339
vn -0.862129 0.009679878 0.5065962
vn -0.4901906 0.8158717 0.3067029
vn -0.632472 0.7151549 0.2975442
vn -0.6072533 -0.5520397 0.5713978
vn 0.03814742 -0.9361854 0.3494304
vn -0.6717501 -0.6807144 0.292198
vn -0.9908184 -0.1332473 0.02289145
vn -0.632472 0.7151549 0.2975442
vn -0.7862677 0.5822616 -0.206772
vn -0.8357949 -0.2170907 -0.5042999
vn -0.5729704 -0.8161585 -0.07476844
vn -0.5797938 0.5363094 -0.6133608
vn -0.2640225 0.430658 -0.863033
vn -0.1438182 -0.8210896 -0.5523841
vn -0.3586075 -0.2547866 -0.8980447
vn -0.1438182 -0.8210896 -0.5523841
vn 0.1251139 0.4604038 -0.8788486
vn 0.3002189 0.8978911 0.3219629
vn 0.1830612 -0.2033814 -0.961834
vn 0.338376 -0.7411273 -0.5798551
vn -0.02555862 0.9666498 -0.2548232
vn 0.3784031 0.922739 -0.0732393
vn -0.4901906 0.8158717 0.3067029
vn 0.754132 -0.5174883 -0.4043399
vn 0.7338545 -0.1582302 -0.6606216
vn 0.8352949 -0.3596713 0.4158353
vn 0.7161297 -0.07778419 -0.6936194
vn 0.9140006 0.3798004 0.1426696
vn 0.6908477 0.7220331 0.03738436
vn 0.513799 0.4890054 -0.7049001
vn -0.2349299 0.3688895 0.8992933
vn 0.8352949 -0.3596713 0.4158353
vn 0.4691965 -0.8819845 0.04424942
vn -0.1358112 0.3036678 0.9430488
vn 0.3002189 0.8978911 0.3219629
vn 0.338376 -0.7411273 -0.5798551
vn -0.1438182 -0.8210896 -0.5523841
vn -0.1438182 -0.8210896 -0.5523841
vn -0.1438182 -0.8210896 -0.5523841
vn 0.5550416 0.7713838 -0.311281
vn 0.3784031 0.922739 -0.0732393
vn 0.4691965 -0.8819845 0.04424942
vn 0.3002189 0.8978911 0.3219629
vn 0.9025176 0.403005 -0.1518183
vn 0.735513 0.5790543 0.3517339
vn -0.1850105 0.9578583 -0.2197238
vn 0.8476999 0.5215505 -0.09690179
vn 0.756833 0.6469469 0.09307824
vn 0.8284957 0.3708646 0.4195881
vn 0.7060949 0.7034842 -0.08087093
vn -0.3738365 0.7803837 -0.501246
vn -0.1358112 0.3036678 0.9430488
vn 0.4691965 -0.8819845 0.04424942
vn -0.2349299 0.3688895 0.8992933
vn -0.2876591 -0.3000374 0.9095217
vn 0.338376 -0.7411273 -0.5798551
vn -0.1438182 -0.8210896 -0.5523841
vn 0.8352949 -0.3596713 0.4158353
vn 0.4691965 -0.8819845 0.04424942
vn -0.2876591 -0.3000374 0.9095217
vn -0.2349299 0.3688895 0.8992933
vn 0.8352949 -0.3596713 0.4158353
vn -0.4901906 0.8158717 0.3067029
vn -0.632472 0.7151549 0.2975442
vn 0.5550416 0.7713838 -0.311281
vn 0.2349811 -0.9238551 0.3021185
vn 0.1331336 -0.7441556 -0.6546051
vn 0.4691965 -0.8819845 0.04424942
vn -0.1152109 0.9335132 0.3395287
vn -0.9847148 -0.1721152 0.02670672
vn -0.1850105 0.9578583 -0.2197238
vn -0.6908705 -0.04177268 0.7217708
vn 0.8658259 0.3049462 0.3966779
vn 0.9025176 0.403005 -0.1518183
vn 0.2918212 -0.7241647 0.6248407
vn 0.1186369 -0.9576246 0.2624508
vn 0.8658259 0.3049462 0.3966779
vn 0.9025176 0.403005 -0.1518183
vn 0.8476999 0.5215505 -0.09690179
vn 0.756833 0.6469469 0.09307824
vn 0.7956766 0.000655594 0.6057212
vn 0.9764889 0.04956349 0.2097925
vn 0.9013804 -0.3853182 -0.1975942
vn 0.735513 0.5790543 0.3517339
vn 0.6240273 0.3496923 0.6987885
vn 0.2726794 0.2819514 0.9198637
vn 0.1419493 0.1690657 0.9753293
vn 0.6244527 -0.7609205 0.1762352
vn -0.3452109 -0.1264204 0.9299717
vn -0.2971509 -0.1452936 0.9437114
vn 0.9013804 -0.3853182 -0.1975942
vn 0.1007074 -0.9558144 -0.2761825
vn 0.6244527 -0.7609205 0.1762352
vn 0.04463198 -0.8778577 -0.4768374
vn 0.1331336 -0.7441556 -0.6546051
vn 0.1331336 -0.7441556 -0.6546051
vn -0.8301693 -0.5328287 -0.16405
vn 0.1331336 -0.7441556 -0.6546051
vn -0.7548903 -0.4969583 0.4279872
vn -0.4505194 -0.8275577 0.3349332
vn -0.3452109 -0.1264204 0.9299717
vn -0.2971509 -0.1452936 0.9437114
vn 0.3002189 0.8978911 0.3219629
vn 0.3784031 0.922739 -0.0732393
g QJ_A_WQ_0
f 3/3/3 2/2/2 1/1/1
f 3/3/3 1/1/1 4/4/4
f 3/3/3 4/4/4 5/5/5
f 5/5/5 2/2/2 3/3/3
f 8/8/8 7/7/7 6/6/6
f 9/9/9 8/8/8 6/6/6
f 6/6/6 10/10/10 9/9/9
f 11/11/11 10/10/10 6/6/6
f 12/12/12 11/11/11 6/6/6
f 6/6/6 13/13/13 12/12/12
f 7/7/7 14/14/14 6/6/6
f 14/14/14 15/15/15 6/6/6
f 15/15/15 13/13/13 6/6/6
f 18/18/18 17/17/17 16/16/16
f 17/17/17 19/19/19 16/16/16
f 20/20/20 16/16/16 19/19/19
f 19/19/19 17/17/17 21/21/21
f 20/20/20 19/19/19 22/22/22
f 19/19/19 21/21/21 23/23/23
f 25/25/25 21/21/21 24/24/24
f 21/21/21 25/25/25 26/26/26
f 27/27/27 26/26/26 23/23/23
f 29/29/29 24/24/24 28/28/28
f 29/29/29 30/30/30 17/17/17
f 32/32/32 18/18/18 31/31/31
f 35/35/35 34/34/34 33/33/33
f 33/33/33 36/36/36 35/35/35
f 37/37/37 34/34/34 35/35/35
f 35/35/35 38/38/38 37/37/37
f 38/38/38 35/35/35 39/39/39
f 40/40/40 38/38/38 39/39/39
f 40/40/40 41/41/41 38/38/38
f 37/37/37 42/42/42 34/34/34
f 42/42/42 37/37/37 43/43/43
f 37/37/37 44/44/44 43/43/43
f 44/44/44 45/45/45 43/43/43
f 39/39/39 35/35/35 46/46/46
f 39/39/39 46/46/46 47/47/47
f 48/48/48 47/47/47 46/46/46
f 49/49/49 46/46/46 35/35/35
f 50/50/50 49/49/49 35/35/35
f 36/36/36 50/50/50 35/35/35
f 49/49/49 51/51/51 46/46/46
f 51/51/51 49/49/49 50/50/50
f 52/52/52 46/46/46 51/51/51
f 46/46/46 52/52/52 53/53/53
f 54/54/54 53/53/53 52/52/52
f 55/55/55 52/52/52 51/51/51
f 55/55/55 54/54/54 52/52/52
f 51/51/51 56/56/56 55/55/55
f 56/56/56 51/51/51 50/50/50
f 57/57/57 54/54/54 55/55/55
f 58/58/58 57/57/57 55/55/55
f 56/56/56 59/59/59 55/55/55
f 60/60/60 58/58/58 55/55/55
f 55/55/55 61/61/61 60/60/60
f 58/58/58 60/60/60 62/62/62
f 63/63/63 58/58/58 62/62/62
f 64/64/64 62/62/62 60/60/60
f 64/64/64 60/60/60 65/65/65
f 53/53/53 54/54/54 66/66/66
f 54/54/54 57/57/57 66/66/66
f 57/57/57 58/58/58 66/66/66
f 66/66/66 58/58/58 67/67/67
f 68/68/68 66/66/66 67/67/67
f 65/65/65 69/69/69 64/64/64
f 70/70/70 64/64/64 69/69/69
f 70/70/70 69/69/69 71/71/71
f 64/64/64 72/72/72 62/62/62
f 72/72/72 64/64/64 70/70/70
f 72/72/72 70/70/70 73/73/73
f 73/73/73 74/74/74 72/72/72
f 75/75/75 72/72/72 74/74/74
f 75/75/75 62/62/62 72/72/72
f 63/63/63 75/75/75 74/74/74
f 63/63/63 62/62/62 75/75/75
f 73/73/73 76/76/76 74/74/74
f 73/73/73 77/77/77 76/76/76
f 77/77/77 73/73/73 70/70/70
f 69/69/69 78/78/78 77/77/77
f 79/79/79 74/74/74 76/76/76
f 80/80/80 74/74/74 79/79/79
f 69/69/69 81/81/81 78/78/78
f 36/36/36 78/78/78 81/81/81
f 81/81/81 82/82/82 36/36/36
f 83/83/83 50/50/50 36/36/36
f 56/56/56 50/50/50 84/84/84
f 87/87/87 86/86/86 85/85/85
f 87/87/87 88/88/88 86/86/86
f 87/87/87 85/85/85 89/89/89
f 90/90/90 89/89/89 85/85/85
f 87/87/87 89/89/89 91/91/91
f 92/92/92 90/90/90 85/85/85
f 92/92/92 85/85/85 93/93/93
f 93/93/93 85/85/85 94/94/94
f 94/94/94 85/85/85 95/95/95
f 96/96/96 95/95/95 85/85/85
f 98/98/98 88/88/88 97/97/97
f 98/98/98 97/97/97 99/99/99
f 98/98/98 99/99/99 100/100/100
f 102/102/102 101/101/101 60/60/60
f 105/105/105 104/104/104 103/103/103
f 105/105/105 107/107/107 106/106/106
f 67/67/67 41/41/41 108/108/108
f 109/109/109 66/66/66 108/108/108
f 112/112/112 111/111/111 110/110/110
f 113/113/113 110/110/110 111/111/111
f 116/116/116 115/115/115 114/114/114
f 117/117/117 114/114/114 115/115/115
f 114/114/114 117/117/117 118/118/118
f 119/119/119 118/118/118 117/117/117
f 116/116/116 120/120/120 115/115/115
f 121/121/121 115/115/115 120/120/120
f 120/120/120 122/122/122 121/121/121
f 123/123/123 121/121/121 122/122/122
f 126/126/126 125/125/125 124/124/124
f 127/127/127 125/125/125 126/126/126
f 128/128/128 127/127/127 126/126/126
f 124/124/124 125/125/125 129/129/129
f 125/125/125 130/130/130 129/129/129
f 129/129/129 130/130/130 131/131/131
f 132/132/132 131/131/131 130/130/130
f 133/133/133 127/127/127 128/128/128
f 132/132/132 134/134/134 131/131/131
f 131/131/131 134/134/134 135/135/135
f 138/138/138 137/137/137 136/136/136
f 139/139/139 138/138/138 136/136/136
f 140/140/140 138/138/138 139/139/139
f 142/142/142 138/138/138 141/141/141
f 144/144/144 142/142/142 143/143/143
f 145/145/145 144/144/144 141/141/141
f 146/146/146 144/144/144 145/145/145
f 147/147/147 146/146/146 145/145/145
f 149/149/149 58/58/58 148/148/148
f 152/152/152 151/151/151 150/150/150
f 150/150/150 151/151/151 153/153/153
f 153/153/153 151/151/151 154/154/154
f 152/152/152 154/154/154 151/151/151
f 157/157/157 156/156/156 155/155/155
f 156/156/156 158/158/158 155/155/155
f 159/159/159 155/155/155 158/158/158
f 159/159/159 160/160/160 155/155/155
f 160/160/160 161/161/161 155/155/155
f 162/162/162 155/155/155 161/161/161
f 163/163/163 157/157/157 155/155/155
f 164/164/164 163/163/163 155/155/155
f 162/162/162 164/164/164 155/155/155
f 167/167/167 166/166/166 165/165/165
f 167/167/167 165/165/165 168/168/168
f 169/169/169 168/168/168 165/165/165
f 168/168/168 170/170/170 167/167/167
f 168/168/168 169/169/169 171/171/171
f 170/170/170 168/168/168 172/172/172
f 174/174/174 173/173/173 170/170/170
f 174/174/174 170/170/170 175/175/175
f 175/175/175 176/176/176 172/172/172
f 178/178/178 177/177/177 173/173/173
f 178/178/178 167/167/167 179/179/179
f 166/166/166 181/181/181 180/180/180
f 184/184/184 183/183/183 182/182/182
f 185/185/185 182/182/182 183/183/183
f 184/184/184 186/186/186 183/183/183
f 187/187/187 183/183/183 186/186/186
f 183/183/183 187/187/187 188/188/188
f 187/187/187 189/189/189 188/188/188
f 190/190/190 189/189/189 187/187/187
f 191/191/191 186/186/186 184/184/184
f 186/186/186 191/191/191 192/192/192
f 193/193/193 186/186/186 192/192/192
f 194/194/194 193/193/193 192/192/192
f 188/188/188 195/195/195 183/183/183
f 188/188/188 196/196/196 195/195/195
f 197/197/197 195/195/195 196/196/196
f 198/198/198 183/183/183 195/195/195
f 198/198/198 199/199/199 183/183/183
f 198/198/198 195/195/195 200/200/200
f 198/198/198 200/200/200 199/199/199
f 201/201/201 200/200/200 195/195/195
f 195/195/195 202/202/202 201/201/201
f 203/203/203 201/201/201 202/202/202
f 201/201/201 204/204/204 200/200/200
f 203/203/203 204/204/204 201/201/201
f 205/205/205 200/200/200 204/204/204
f 200/200/200 205/205/205 199/199/199
f 203/203/203 206/206/206 204/204/204
f 206/206/206 207/207/207 204/204/204
f 208/208/208 205/205/205 204/204/204
f 207/207/207 209/209/209 204/204/204
f 210/210/210 204/204/204 209/209/209
f 207/207/207 211/211/211 209/209/209
f 207/207/207 212/212/212 211/211/211
f 213/213/213 209/209/209 211/211/211
f 213/213/213 214/214/214 209/209/209
f 203/203/203 202/202/202 215/215/215
f 206/206/206 203/203/203 215/215/215
f 207/207/207 206/206/206 215/215/215
f 207/207/207 215/215/215 216/216/216
f 215/215/215 217/217/217 216/216/216
f 214/214/214 213/213/213 218/218/218
f 219/219/219 218/218/218 213/213/213
f 218/218/218 219/219/219 220/220/220
f 213/213/213 211/211/211 221/221/221
f 213/213/213 221/221/221 219/219/219
f 221/221/221 222/222/222 219/219/219
f 222/222/222 221/221/221 223/223/223
f 224/224/224 223/223/223 221/221/221
f 224/224/224 221/221/221 211/211/211
f 224/224/224 212/212/212 223/223/223
f 211/211/211 212/212/212 224/224/224
f 222/222/222 223/223/223 225/225/225
f 222/222/222 225/225/225 226/226/226
f 226/226/226 219/219/219 222/222/222
f 218/218/218 226/226/226 227/227/227
f 228/228/228 225/225/225 223/223/223
f 223/223/223 229/229/229 228/228/228
f 230/230/230 218/218/218 227/227/227
f 227/227/227 185/185/185 230/230/230
f 231/231/231 230/230/230 185/185/185
f 199/199/199 232/232/232 185/185/185
f 199/199/199 185/185/185 183/183/183
f 199/199/199 205/205/205 233/233/233
f 236/236/236 235/235/235 234/234/234
f 237/237/237 235/235/235 236/236/236
f 234/234/234 235/235/235 238/238/238
f 238/238/238 239/239/239 234/234/234
f 238/238/238 235/235/235 240/240/240
f 239/239/239 241/241/241 234/234/234
f 234/234/234 241/241/241 242/242/242
f 234/234/234 242/242/242 243/243/243
f 243/243/243 244/244/244 234/234/234
f 245/245/245 234/234/234 244/244/244
f 237/237/237 247/247/247 246/246/246
f 246/246/246 247/247/247 248/248/248
f 248/248/248 247/247/247 249/249/249
f 251/251/251 209/209/209 250/250/250
f 254/254/254 253/253/253 252/252/252
f 254/254/254 256/256/256 255/255/255
f 190/190/190 216/216/216 257/257/257
f 215/215/215 258/258/258 257/257/257
f 261/261/261 260/260/260 259/259/259
f 262/262/262 259/259/259 260/260/260
f 265/265/265 264/264/264 263/263/263
f 266/266/266 263/263/263 264/264/264
f 263/263/263 267/267/267 265/265/265
f 268/268/268 265/265/265 267/267/267
f 266/266/266 264/264/264 269/269/269
f 270/270/270 269/269/269 264/264/264
f 269/269/269 270/270/270 271/271/271
f 272/272/272 271/271/271 270/270/270
f 275/275/275 274/274/274 273/273/273
f 275/275/275 276/276/276 274/274/274
f 276/276/276 277/277/277 274/274/274
f 275/275/275 273/273/273 278/278/278
f 279/279/279 275/275/275 278/278/278
f 278/278/278 280/280/280 279/279/279
f 281/281/281 279/279/279 280/280/280
f 276/276/276 282/282/282 277/277/277
f 283/283/283 281/281/281 280/280/280
f 283/283/283 280/280/280 284/284/284
f 287/287/287 286/286/286 285/285/285
f 286/286/286 288/288/288 285/285/285
f 286/286/286 289/289/289 288/288/288
f 286/286/286 291/291/291 290/290/290
f 291/291/291 293/293/293 292/292/292
f 293/293/293 294/294/294 290/290/290
f 293/293/293 295/295/295 294/294/294
f 295/295/295 296/296/296 294/294/294
f 207/207/207 298/298/298 297/297/297
