g shouLei_mx
v -0.004241619 -0.001187847 0.1327854
v -0.03505014 -0.001306707 0.1156863
v -0.02891384 -0.001350895 0.133911
v -0.00505661 -0.001069845 0.1149391
v -0.05374815 -0.001439267 0.1171603
v -0.07084274 -0.001123804 0.04715843
v -0.0832608 -0.00119805 0.04772499
v -0.08752885 -0.000580163 -0.04573128
v -0.07437626 -0.0006122291 -0.03021507
v -0.004843674 0.0003659159 0.1333034
v -0.03565218 0.0002470982 0.1162041
v -0.005658665 0.000483959 0.115457
v -0.02951588 0.0002029085 0.1344288
v -0.05435018 0.0001145375 0.1176781
v -0.07144482 0.0004300016 0.04767624
v -0.08386288 0.0003557134 0.04824295
v -0.08813097 0.0009736276 -0.04521347
v -0.07497833 0.0009415752 -0.02969727
v 0.04716619 0.06463176 -0.04495735
v 0.04016205 0.00112978 -0.1344288
v 0.08464479 0.0008873081 -0.04709045
v 0.02317833 0.03001625 -0.1334621
v -0.02673092 0.06399687 -0.04158676
v -0.01030895 0.02972854 -0.1319347
v -0.0631496 -0.0003824973 -0.04034935
v -0.02681244 0.0005543137 -0.1313738
v 0.05065241 0.06412699 0.0313813
v 0.08813097 0.0003825092 0.0292482
v -0.02324467 0.06349214 0.03475174
v -0.05966331 -0.0008872845 0.0359893
v 0.03905641 0.04227903 0.04724464
v 0.0638756 6.590843E-05 0.04583214
v -0.009880008 0.04185859 0.0494767
v -0.03399729 -0.0007749742 0.05029617
v 0.03270323 0.02662776 0.09814842
v 0.04860582 -0.0004197276 0.09724319
v 0.001347847 0.02635837 0.09957855
v -0.01410496 -0.0009584951 0.1001036
v 0.01707348 0.02069904 0.09882301
v 0.01707348 0.02069904 0.09882301
v 0.04192225 -0.0004771686 0.09754814
v -0.00742136 -0.0009010579 0.09979866
v -0.00742136 -0.0009010579 0.09979866
v 0.01859142 0.02047927 0.1320612
v 0.04344017 -0.0006969279 0.1307865
v -0.005903473 -0.001120917 0.1330372
v 0.01894529 -0.02229705 0.1317622
v -0.00742136 -0.0009010579 0.09979866
v 0.01742737 -0.02207729 0.09852394
v -0.01410496 -0.0009584951 0.1001036
v 0.04192225 -0.0004771686 0.09754814
v 0.001797581 -0.02800605 0.09919853
v -0.03399729 -0.0007749742 0.05029617
v -0.009178123 -0.04298807 0.04888359
v -0.05966331 -0.0008872845 0.0359893
v -0.02218475 -0.06463177 0.03385612
v -0.0631496 -0.0003824973 -0.04034935
v -0.02567101 -0.06412702 -0.0424823
v -0.02681244 0.0005543137 -0.1313738
v -0.009828606 -0.02833216 -0.1323405
v 0.04822613 -0.06349213 -0.04585281
v 0.02365856 -0.02804448 -0.1338679
v 0.08464479 0.0008873081 -0.04709045
v 0.04016205 0.00112978 -0.1344288
v 0.05171238 -0.06399694 0.03048561
v 0.08813097 0.0003825092 0.0292482
v 0.03975834 -0.0425676 0.04665161
v 0.0638756 6.590843E-05 0.04583214
v 0.03315298 -0.02773664 0.09776832
v 0.04860582 -0.0004197276 0.09724319
v 0.04192225 -0.0004771686 0.09754814
v 0.04192225 -0.0004771686 0.09754814
v 0.01742737 -0.02207729 0.09852394
v 0.01894529 -0.02229705 0.1317622
v 0.01859142 0.02047927 0.1320612
v 0.04344017 -0.0006969279 0.1307865
v -0.005903473 -0.001120917 0.1330372
v 0.04016205 0.00112978 -0.1344288
v 0.02317833 0.03001625 -0.1334621
v 0.02365856 -0.02804448 -0.1338679
v -0.02681244 0.0005543137 -0.1313738
v -0.009828606 -0.02833216 -0.1323405
v -0.01030895 0.02972854 -0.1319347
vt 0.4859467 0.8878027
vt 0.3078269 0.768357
vt 0.4042022 0.8899716
vt 0.452889 0.7620226
vt 0.267575 0.7956311
vt 0.1917571 0.6388309
vt 0.1707401 0.637086
vt 0.1626263 0.4626352
vt 0.1839364 0.4958742
vt 0.4859467 0.8878027
vt 0.3078269 0.768357
vt 0.452889 0.7620226
vt 0.4042022 0.8899716
vt 0.267575 0.7956311
vt 0.1917571 0.6388309
vt 0.1707401 0.637086
vt 0.1626263 0.4626352
vt 0.1839364 0.4958742
vt 0.6651541 0.3213739
vt 0.6345679 0.05940151
vt 0.7942461 0.3179502
vt 0.5826724 0.06077856
vt 0.4069726 0.3282227
vt 0.4788815 0.06353229
vt 0.3087992 0.3252177
vt 0.4347481 0.06475872
vt 0.6721426 0.5403443
vt 0.7994192 0.5369681
vt 0.4175893 0.5470983
vt 0.3212303 0.5440435
vt 0.6150718 0.5995257
vt 0.6936961 0.5974398
vt 0.4578206 0.6036976
vt 0.3911054 0.6041049
vt 0.5980461 0.7415749
vt 0.6494491 0.7402111
vt 0.4952398 0.7443019
vt 0.4575534 0.7446764
vt 0.5365753 0.7591436
vt 0.5365753 0.7591436
vt 0.6174676 0.7569973
vt 0.4693989 0.7602998
vt 0.4693989 0.7602998
vt 0.5252811 0.9407986
vt 0.6234491 0.9381945
vt 0.4785582 0.8846877
vt 0.5252811 0.9407986
vt 0.4693989 0.7602998
vt 0.5365753 0.7591436
vt 0.4575534 0.7446764
vt 0.6174676 0.7569973
vt 0.4952398 0.7443019
vt 0.3911054 0.6041049
vt 0.4578206 0.6036966
vt 0.3212303 0.5440435
vt 0.4175893 0.5470983
vt 0.3087992 0.3252177
vt 0.4069726 0.3282227
vt 0.4347481 0.06475872
vt 0.4788815 0.06353229
vt 0.6651541 0.3213731
vt 0.5826735 0.06077766
vt 0.7942461 0.3179502
vt 0.6345679 0.05940151
vt 0.6721426 0.5403453
vt 0.7994192 0.5369681
vt 0.6150718 0.5995257
vt 0.6936961 0.5974398
vt 0.5980461 0.7415749
vt 0.6494491 0.7402111
vt 0.6174676 0.7569973
vt 0.6174676 0.7569973
vt 0.5365753 0.7591436
vt 0.2992427 0.3446735
vt 0.2992427 0.3692628
vt 0.3134394 0.3569683
vt 0.285046 0.3569683
vt 0.4560737 0.8133639
vt 0.4464391 0.8300517
vt 0.4464391 0.7966764
vt 0.4175353 0.8133639
vt 0.4271699 0.7966764
vt 0.4271699 0.8300517
vn 0.007304914 -0.9999541 -0.006210774
vn 0.006720389 -0.9999613 -0.005697266
vn 0.006467639 -0.9999685 -0.004602241
vn 0.007723175 -0.999946 -0.006964431
vn 0.006569056 -0.9999605 -0.005982786
vn 0.005766695 -0.9999629 -0.006394872
vn 0.005681595 -0.9999627 -0.006512448
vn 0.005666612 -0.9999604 -0.006870222
vn 0.005667021 -0.9999604 -0.006870296
vn -0.007304366 0.9999541 0.006212201
vn -0.006720192 0.9999613 0.005697463
vn -0.007723119 0.9999459 0.006966735
vn -0.006466363 0.9999685 0.004601875
vn -0.006569229 0.9999605 0.005982843
vn -0.005769561 0.9999629 0.006395405
vn -0.00568482 0.9999627 0.006513004
vn -0.005668193 0.9999603 0.006870356
vn -0.0056681 0.9999603 0.006870342
vn 0.4553173 0.8598152 -0.231093
vn 0.8159875 0.1060037 -0.5682674
vn 0.9652457 0.0275928 -0.2598833
vn 0.2765629 0.7214175 -0.6348777
vn -0.519771 0.8336474 -0.1867354
vn -0.5327935 0.680626 -0.5028709
vn -0.9849311 -0.02474215 -0.1711683
vn -0.8016124 -0.09016534 -0.5910058
vn 0.4991966 0.8504715 0.1658338
vn 0.9904639 -0.0006732651 0.1377707
vn -0.4829273 0.849938 0.2106812
vn -0.9737843 -0.00174144 0.2274668
vn 0.452288 0.6510308 0.6095855
vn 0.8071032 -0.04374256 0.5887877
vn -0.3262917 0.6906438 0.6454028
vn -0.7500542 0.03548303 0.6604238
vn 0.5077091 0.7366325 0.4467706
vn 0.9310378 -0.05611474 0.3605824
vn -0.3799458 0.7960845 0.4710526
vn -0.8942639 0.05079118 0.4446487
vn 0.01529087 0.8667158 0.4985678
vn 0.01529087 0.8667158 0.4985678
vn 0.9374091 0.005319923 0.3481893
vn -0.9017746 -0.01047763 0.4320794
vn -0.9017746 -0.01047763 0.4320794
vn 0.01942683 0.8148153 0.5793952
vn 0.8536438 0.003421959 0.5208458
vn -0.8026221 -0.01081245 0.5963898
vn 0.03296975 -0.8224018 0.567951
vn -0.9017746 -0.01047763 0.4320794
vn 0.02968756 -0.8732273 0.4864079
vn -0.8942639 0.05079118 0.4446487
vn 0.9374091 0.005319923 0.3481893
vn -0.46532 -0.7427695 0.4814259
vn -0.7500542 0.03548303 0.6604238
vn -0.3952394 -0.6592913 0.6396255
vn -0.9737843 -0.00174144 0.2274668
vn -0.4825175 -0.8528863 0.1994035
vn -0.9849311 -0.02474215 -0.1711683
vn -0.4750027 -0.8569651 -0.1999586
vn -0.8016124 -0.09016534 -0.5910058
vn -0.355885 -0.7761064 -0.5205812
vn 0.5000859 -0.830797 -0.2443163
vn 0.4393277 -0.6188421 -0.6511725
vn 0.9652457 0.0275928 -0.2598833
vn 0.8159875 0.1060037 -0.5682674
vn 0.4996074 -0.8523526 0.1545555
vn 0.9904639 -0.0006732651 0.1377707
vn 0.3833387 -0.6989042 0.6038084
vn 0.8071032 -0.04374256 0.5887877
vn 0.420817 -0.8020021 0.4239169
vn 0.9310378 -0.05611474 0.3605824
vn 0.9374091 0.005319923 0.3481893
vn 0.9374091 0.005319923 0.3481893
vn 0.02968756 -0.8732273 0.4864079
vn 0.03296975 -0.8224018 0.567951
vn 0.01942683 0.8148153 0.5793952
vn 0.8536438 0.003421959 0.5208458
vn -0.8026221 -0.01081245 0.5963898
vn 0.8159875 0.1060037 -0.5682674
vn 0.2765629 0.7214175 -0.6348777
vn 0.4393277 -0.6188421 -0.6511725
vn -0.8016124 -0.09016534 -0.5910058
vn -0.355885 -0.7761064 -0.5205812
vn -0.5327935 0.680626 -0.5028709
g shouLei_mx_0
f 3/3/3 2/2/2 1/1/1
f 4/4/4 1/1/1 2/2/2
f 5/5/5 2/2/2 3/3/3
f 2/2/2 5/5/5 6/6/6
f 7/7/7 6/6/6 5/5/5
f 7/7/7 8/8/8 6/6/6
f 9/9/9 6/6/6 8/8/8
f 12/12/12 11/11/11 10/10/10
f 13/13/13 10/10/10 11/11/11
f 11/11/11 14/14/14 13/13/13
f 11/11/11 15/15/15 14/14/14
f 16/16/16 14/14/14 15/15/15
f 16/16/16 15/15/15 17/17/17
f 18/18/18 17/17/17 15/15/15
f 21/21/21 20/20/20 19/19/19
f 22/22/22 19/19/19 20/20/20
f 19/19/19 22/22/22 23/23/23
f 24/24/24 23/23/23 22/22/22
f 23/23/23 24/24/24 25/25/25
f 26/26/26 25/25/25 24/24/24
f 19/19/19 27/27/27 21/21/21
f 28/28/28 21/21/21 27/27/27
f 27/27/27 19/19/19 29/29/29
f 23/23/23 29/29/29 19/19/19
f 29/29/29 23/23/23 30/30/30
f 25/25/25 30/30/30 23/23/23
f 27/27/27 31/31/31 28/28/28
f 32/32/32 28/28/28 31/31/31
f 31/31/31 27/27/27 33/33/33
f 29/29/29 33/33/33 27/27/27
f 33/33/33 29/29/29 34/34/34
f 30/30/30 34/34/34 29/29/29
f 31/31/31 35/35/35 32/32/32
f 36/36/36 32/32/32 35/35/35
f 35/35/35 31/31/31 37/37/37
f 33/33/33 37/37/37 31/31/31
f 37/37/37 33/33/33 38/38/38
f 34/34/34 38/38/38 33/33/33
f 35/35/35 39/39/39 36/36/36
f 37/37/37 40/40/40 35/35/35
f 41/41/41 36/36/36 40/40/40
f 40/40/40 37/37/37 42/42/42
f 38/38/38 43/43/43 37/37/37
f 40/40/40 44/44/44 41/41/41
f 45/45/45 41/41/41 44/44/44
f 44/44/44 40/40/40 46/46/46
f 42/42/42 46/46/46 40/40/40
f 46/46/46 48/48/48 47/47/47
f 49/49/49 47/47/47 48/48/48
f 47/47/47 49/49/49 45/45/45
f 48/48/48 50/50/50 49/49/49
f 51/51/51 45/45/45 49/49/49
f 50/50/50 53/53/53 52/52/52
f 54/54/54 52/52/52 53/53/53
f 53/53/53 55/55/55 54/54/54
f 56/56/56 54/54/54 55/55/55
f 55/55/55 57/57/57 56/56/56
f 58/58/58 56/56/56 57/57/57
f 57/57/57 59/59/59 58/58/58
f 60/60/60 58/58/58 59/59/59
f 58/58/58 60/60/60 61/61/61
f 62/62/62 61/61/61 60/60/60
f 61/61/61 62/62/62 63/63/63
f 64/64/64 63/63/63 62/62/62
f 56/56/56 58/58/58 65/65/65
f 61/61/61 65/65/65 58/58/58
f 65/65/65 61/61/61 66/66/66
f 63/63/63 66/66/66 61/61/61
f 54/54/54 56/56/56 67/67/67
f 65/65/65 67/67/67 56/56/56
f 67/67/67 65/65/65 68/68/68
f 66/66/66 68/68/68 65/65/65
f 67/67/67 69/69/69 54/54/54
f 52/52/52 54/54/54 69/69/69
f 69/69/69 67/67/67 70/70/70
f 68/68/68 70/70/70 67/67/67
f 69/69/69 49/49/49 52/52/52
f 49/49/49 69/69/69 71/71/71
f 70/70/70 72/72/72 69/69/69
f 52/52/52 73/73/73 50/50/50
f 76/76/76 75/75/75 74/74/74
f 77/77/77 74/74/74 75/75/75
f 80/80/80 79/79/79 78/78/78
f 81/81/81 79/79/79 80/80/80
f 82/82/82 81/81/81 80/80/80
f 83/83/83 79/79/79 81/81/81
