g Torus008
v 0.1613049 -0.6081716 1.090573
v -0.0917276 -0.7365271 1.318628
v 0.1952719 -0.7027863 1.260569
v -0.09213012 -0.638292 1.143731
v 0.1163403 -0.4598204 1.043103
v -0.07843719 -0.4816935 1.084428
v -0.07501343 -0.7069854 1.506668
v 0.1964438 -0.6778764 1.453509
v -0.05207641 -0.56204 1.597697
v 0.1615488 -0.5409679 1.556372
v 0.4562726 -0.4123194 1.0315
v 0.5361432 -0.4887208 1.213814
v 0.3349933 -0.2977331 0.9894035
v 0.5203198 -0.4743236 1.42955
v 0.4099298 -0.36995 1.552332
v 0.6346762 -0.05789078 0.9978664
v 0.752034 -0.115544 1.216752
v 0.460966 0.03725635 0.948242
v 0.7297911 -0.09608236 1.476679
v 0.5671373 -0.003448434 1.625386
v 0.717198 0.2797915 1.019704
v 0.8529027 0.269089 1.246967
v 0.5131341 0.3029619 0.9639032
v 0.8218025 0.2750769 1.512563
v 0.6274278 0.2963723 1.66091
v 0.6142801 0.2291445 1.10443
v 0.7249187 -0.04274001 1.232859
v 0.7083963 0.2433234 1.275373
v 0.6288783 -0.02327027 1.065505
v 0.4652131 0.1910826 1.054675
v 0.4774148 -0.003033264 1.024413
v 0.7000314 -0.04935561 1.428441
v 0.6826512 0.2217676 1.467367
v 0.5602379 -0.03787379 1.537683
v 0.5452625 0.1758029 1.567944
v 0.5008215 0.4264266 1.157144
v 0.5800528 0.4697373 1.333278
v 0.3760822 0.3347249 1.094855
v 0.5587929 0.4315604 1.52008
v 0.4454956 0.3320921 1.608124
v 0.3095938 0.5996072 1.222256
v 0.3632324 0.6648917 1.404394
v 0.2287439 0.4662901 1.145474
v 0.3528284 0.6125621 1.585193
v 0.2830057 0.4726074 1.658744
v 0.06249664 0.6866052 1.286264
v 0.08395629 0.7616047 1.474303
v 0.03960877 0.5316795 1.195234
v 0.09066681 0.6997117 1.6492
v 0.07783386 0.5393336 1.708504
v -0.2027252 0.6701648 1.339422
v -0.2144507 0.741288 1.532362
v -0.1626038 0.5184247 1.23656
v -0.1866757 0.6777876 1.702358
v -0.1381836 0.5213284 1.749829
v -0.4429544 0.5502401 1.373638
v -0.4837061 0.6052207 1.569732
v -0.3454394 0.426785 1.263159
v -0.4353204 0.5498269 1.736574
v -0.3314526 0.4213364 1.776429
v -0.6181124 0.3451716 1.383701
v -0.6800101 0.3746292 1.580724
v -0.4787106 0.2706463 1.270983
v -0.6165417 0.3359714 1.746638
v -0.4723202 0.2549153 1.784252
v -0.6990188 0.0885185 1.368082
v -0.771676 0.0865012 1.563664
v -0.540386 0.07534486 1.25884
v -0.7024371 0.06936635 1.731018
v -0.5393378 0.04755678 1.77211
v -0.6729053 -0.1772017 1.329157
v -0.7441559 -0.2126579 1.52115
v -0.5208386 -0.1270453 1.228579
v -0.6794745 -0.2087099 1.692093
v -0.522088 -0.1690211 1.741849
v -0.5457544 -0.4085732 1.272851
v -0.6028287 -0.4745117 1.459654
v -0.4244961 -0.3038342 1.184807
v -0.5510425 -0.4545547 1.635788
v -0.4230035 -0.3612967 1.698077
v -0.3406454 -0.5696616 1.207739
v -0.3724414 -0.65786 1.388538
v -0.2684494 -0.4278142 1.134188
v -0.3379743 -0.6294081 1.570675
v -0.2575977 -0.4993066 1.647457
v 0.2349002 -0.019107 0.3863628
v 0.2148624 -0.1479455 0.4856084
v 0.2565445 -0.05082369 0.5004578
v 0.1972427 -0.1074214 0.3727663
v 0.1835779 0.004301566 0.337602
v 0.1543991 -0.06431454 0.3270316
v 0.1971796 -0.1633322 0.5994561
v 0.2360211 -0.07317431 0.613052
v 0.1527954 -0.1424889 0.6476189
v 0.183168 -0.07184948 0.6581895
v 0.2276105 0.1196668 0.3920382
v 0.2508716 0.09975721 0.5188068
v 0.1727994 0.1129883 0.3346146
v 0.2289825 0.06407681 0.6406605
v 0.1721551 0.03331081 0.6862189
v 0.1459702 0.2548409 0.3777032
v 0.1697537 0.2396253 0.5308524
v 0.08775421 0.230125 0.3070329
v 0.1447879 0.1926383 0.6767687
v 0.08283111 0.1392546 0.7299758
v 0.04931336 0.3471642 0.3784156
v 0.06431884 0.3418973 0.5366476
v 0.008912048 0.3001232 0.3042487
v 0.04437866 0.2867597 0.6862545
v -0.000196228 0.2100788 0.7395986
v 0.04406463 0.2885756 0.4124081
v 0.1412906 0.2433283 0.5294623
v 0.04708832 0.288082 0.5288793
v 0.1293484 0.2480511 0.4129417
v 0.03325409 0.2446029 0.3579105
v 0.09938873 0.2131735 0.3583259
v 0.1280203 0.2010983 0.6396314
v 0.04031342 0.242765 0.6390973
v 0.09618713 0.144559 0.6789132
v 0.02751678 0.1771867 0.6784983
v -0.03923614 0.2846917 0.4064367
v -0.04579498 0.2843857 0.522383
v -0.02917145 0.2399969 0.3532077
v -0.04528229 0.2386702 0.6331264
v -0.03722992 0.1723282 0.6737951
v -0.1260141 0.2506519 0.3964447
v -0.1414535 0.2466742 0.5114699
v -0.09653534 0.2136505 0.3454398
v -0.1342462 0.2035529 0.6231346
v -0.1069168 0.1448976 0.6660272
v -0.1931979 0.1843484 0.3836789
v -0.2153079 0.1734319 0.497527
v -0.1487558 0.1622454 0.3355158
v -0.2028262 0.1354109 0.6103685
v -0.1606735 0.09158985 0.656103
v -0.2306125 0.09592897 0.3700825
v -0.2562192 0.07597931 0.4826768
v -0.1779019 0.09361475 0.3249457
v -0.2406918 0.04483506 0.5967723
v -0.190387 0.02066775 0.6455331
v -0.2326239 -0.001150575 0.3577254
v -0.2581372 -0.03080512 0.46918
v -0.1795486 0.01819613 0.3153386
v -0.2422977 -0.05431312 0.584415
v -0.1916788 -0.05701795 0.6359264
v -0.1989548 -0.09215353 0.3484886
v -0.2209085 -0.1307577 0.4590915
v -0.1534393 -0.05254185 0.3081583
v -0.2075915 -0.1470424 0.5751777
v -0.1644864 -0.1297068 0.6287456
v -0.1347226 -0.1632663 0.3437786
v -0.1502353 -0.2088185 0.4539475
v -0.103537 -0.1078309 0.3044966
v -0.1419202 -0.2194442 0.5704683
v -0.1129977 -0.1864756 0.6250838
v -0.04968109 -0.2036858 0.344312
v -0.05680389 -0.253241 0.4545308
v -0.03743439 -0.1392455 0.3049116
v -0.05519104 -0.2606921 0.5710022
v -0.04498901 -0.2188201 0.6254988
v 0.04324738 -0.2072709 0.3500088
v 0.04529816 -0.2573228 0.4607525
v 0.03479736 -0.142001 0.3093399
v 0.03958618 -0.2645901 0.5766984
v 0.02932037 -0.2218738 0.6299273
v 0.1299451 -0.1734768 0.3600011
v 0.1406674 -0.2203972 0.4716651
v 0.1021579 -0.1156862 0.3171071
v 0.1281751 -0.2304716 0.5866899
v 0.09875213 -0.1951188 0.6376954
v -0.05932617 0.2935958 0.6205667
v 0.07246948 0.3230883 0.7591558
v -0.05687286 0.3295964 0.7948887
v 0.05526398 0.2884127 0.5878498
v -0.05192566 0.2265691 0.5458645
v 0.03621735 0.2229742 0.5204305
v 0.07782929 0.3052198 0.9339997
v -0.04527741 0.3113866 0.9667161
v 0.06673828 0.2398311 1.00996
v -0.03058868 0.2442891 1.035394
v -0.207113 0.2253843 0.6454049
v -0.2255923 0.2561439 0.8406729
v -0.1624704 0.1680816 0.5536253
v -0.2044003 0.2396926 1.025045
v -0.1520474 0.1810368 1.090517
v -0.3123764 0.0733792 0.6363122
v -0.3465869 0.09625051 0.8729311
v -0.2427536 0.02304818 0.5217304
v -0.3201083 0.07488021 1.092979
v -0.2410361 0.01788087 1.167555
v -0.3677325 -0.07865183 0.6450757
v -0.4126126 -0.07690913 0.8903334
v -0.2805789 -0.09632225 0.5230345
v -0.3818747 -0.09366915 1.115138
v -0.2844284 -0.1193645 1.187804
v -0.3099106 -0.06281883 0.6908031
v -0.3365884 0.06062377 0.8702834
v -0.3412265 -0.07223146 0.871512
v -0.3058429 0.05423866 0.689678
v -0.2441788 -0.05029357 0.6006825
v -0.2410843 0.03927759 0.599808
v -0.311601 0.05385032 1.035828
v -0.3160068 -0.07257439 1.036953
v -0.2408469 0.03708002 1.089338
v -0.2442984 -0.06243064 1.090212
v -0.2650039 -0.1572666 0.6783552
v -0.2903821 -0.1806802 0.8580058
v -0.2092313 -0.1194484 0.5907904
v -0.2673819 -0.1744499 1.024505
v -0.2053363 -0.1391144 1.08032
v -0.1849679 -0.2414467 0.6560168
v -0.1993295 -0.2757123 0.8336074
v -0.1481604 -0.1842172 0.5734241
v -0.1808176 -0.2649476 1.002167
v -0.137359 -0.2106404 1.062954
v -0.07926209 -0.2878371 0.6262214
v -0.0794342 -0.3275183 0.8010649
v -0.06722443 -0.2202582 0.5502607
v -0.06674957 -0.3142976 0.972371
v -0.0475296 -0.2499484 1.039791
v 0.03554291 -0.2899491 0.5935053
v 0.05025238 -0.3290303 0.7653322
v 0.02102325 -0.2223719 0.5248266
v 0.05668365 -0.3156966 0.9396549
v 0.04999725 -0.2514746 1.014357
v 0.1420502 -0.248149 0.562849
v 0.1700137 -0.2811238 0.7318497
v 0.1031955 -0.1905684 0.500994
v 0.1706464 -0.2699766 0.9089986
v 0.1403348 -0.2156271 0.9905239
v 0.2245572 -0.1691772 0.5389196
v 0.2623874 -0.1918108 0.7057137
v 0.1670349 -0.1298613 0.4823911
v 0.2584848 -0.1848516 0.8850693
v 0.2101486 -0.148339 0.971921
v 0.2710922 -0.06497545 0.5253606
v 0.3143246 -0.07465623 0.6909038
v 0.203107 -0.04944492 0.47185
v 0.3078317 -0.0733146 0.8715103
v 0.2494369 -0.05989077 0.96138
v 0.2749466 0.04900549 0.5242351
v 0.3186209 0.05319595 0.6896761
v 0.2060962 0.03863591 0.4709759
v 0.3119119 0.04832847 0.8703851
v 0.2526883 0.03666975 0.9605054
v 0.2355637 0.1559351 0.535716
v 0.2746835 0.1732451 0.7022155
v 0.1755634 0.1212178 0.4799007
v 0.2701706 0.1625521 0.881866
v 0.2194485 0.1272705 0.9694306
v 0.1586221 0.2399608 0.5580543
v 0.1885965 0.267969 0.7266129
v 0.1160056 0.1859277 0.4972671
v 0.1883231 0.2527274 0.9042041
v 0.154371 0.1985943 0.9867967
v 0.4015831 0.35587 0.8289521
v 0.5876465 0.1907376 0.955735
v 0.466326 0.3998596 0.974862
v 0.5093472 0.1708185 0.811439
v 0.3027689 0.2716113 0.774457
v 0.3859589 0.1295786 0.7608426
v 0.5711763 0.1758842 1.109202
v 0.4559009 0.3741349 1.126715
v 0.461674 0.1325268 1.181942
v 0.3702573 0.2888748 1.195556
v 0.1469141 0.5179081 0.8468444
v 0.1832523 0.589579 1.010018
v 0.1004355 0.3846113 0.7794773
v 0.1869113 0.5505955 1.173415
v 0.1525265 0.4159465 1.241318
v -0.1959881 0.5284657 0.8504813
v -0.1851852 0.6191721 1.048612
v -0.2066 0.3610615 0.7649814
v -0.1794415 0.5685067 1.243312
v -0.1835178 0.3951827 1.320527
v -0.4898166 0.4630152 0.873795
v -0.521217 0.5499113 1.080463
v -0.4312118 0.3001275 0.7792082
v -0.5004221 0.4975949 1.278149
v -0.4371591 0.3267613 1.351051
v -0.4050522 0.3923303 0.9158591
v -0.230657 0.5682613 1.051743
v -0.4430344 0.4429571 1.06955
v -0.217485 0.5031929 0.8995546
v -0.3212576 0.296056 0.8425767
v -0.1779919 0.3811785 0.8299017
v -0.2067471 0.5317501 1.197317
v -0.4073862 0.4129197 1.213621
v -0.1583963 0.4093288 1.251002
v -0.3158514 0.3155826 1.263676
v -0.5089572 0.2260295 0.9217128
v -0.5632809 0.253809 1.076175
v -0.3947195 0.1709311 0.8465701
v -0.5185281 0.2348452 1.219475
v -0.3966 0.1779025 1.267669
v -0.5618109 0.01301278 0.9208584
v -0.6231222 0.01259483 1.075242
v -0.4351266 0.00815968 0.8459051
v -0.5751261 0.006802149 1.218621
v -0.4410672 -0.001168554 1.267005
v -0.5285944 -0.2036785 0.9109179
v -0.585422 -0.2327269 1.064385
v -0.409967 -0.1575164 0.8381781
v -0.5397434 -0.225222 1.20868
v -0.4135348 -0.1834679 1.259277
v -0.4150958 -0.3899532 0.8934055
v -0.4568027 -0.443429 1.045257
v -0.3234933 -0.3002432 0.824563
v -0.4184573 -0.4247882 1.191167
v -0.3185983 -0.34059 1.245663
v -0.2398813 -0.5172138 0.8709862
v -0.2584402 -0.5870934 1.020771
v -0.1896094 -0.3981593 0.8071338
v -0.2310129 -0.5612068 1.168748
v -0.1714563 -0.4484323 1.228234
v -0.03068542 -0.5668374 0.8470738
v -0.02189697 -0.6427526 0.9946544
v -0.02930206 -0.4367909 0.7885451
v -0.007076721 -0.6144098 1.144836
v 0.004830017 -0.4909821 1.209644
v 0.1804306 -0.5325379 0.8253093
v 0.2164929 -0.603543 0.9708831
v 0.1329025 -0.4109797 0.7716244
v 0.2189502 -0.5776163 1.123072
v 0.1832364 -0.4625314 1.192724
v 0.3620526 -0.4205643 0.8090054
v 0.4213319 -0.4767929 0.953076
v 0.2727286 -0.3252404 0.7589499
v 0.4133719 -0.4575862 1.106767
v 0.3370169 -0.3680939 1.180049
v 0.4877438 -0.2481754 0.8006442
v 0.563011 -0.2821161 0.9439442
v 0.3695816 -0.192746 0.7524501
v 0.5479102 -0.2728945 1.098407
v 0.4435362 -0.22223 1.17355
v 0.539378 -0.04092845 0.8014991
v 0.6212959 -0.0482631 0.9448773
v 0.4092917 -0.0332736 0.7531143
v 0.6032246 -0.05091966 1.099261
v 0.4872513 -0.04671284 1.174214
v -0.13258 -0.1850341 -0.01687576
v -0.08977783 -0.0645759 0.1269873
v -0.05972595 -0.09334432 0.1269875
v -0.1939963 -0.1262408 -0.01687565
v -0.1128561 -0.07722011 0.4001215
v -0.07604767 -0.1124568 0.400121
v -0.08976105 -0.06114848 0.4666495
v -0.06100189 -0.08867983 0.4666489
v -0.01860748 -0.2202181 -0.01738037
v -0.003999634 -0.1109326 0.1269869
v -0.00760498 -0.1331209 0.4156601
v -0.006968994 -0.1022389 0.4886245
v 0.1131439 -0.1904025 -0.01854134
v 0.05762054 -0.098302 0.126987
v 0.0710907 -0.114365 0.451401
v 0.06285034 -0.07810538 0.5391695
v 0.2186218 -0.1338814 -0.01874336
v 0.1087021 -0.07152258 0.126987
v 0.1337567 -0.08060881 0.4576167
v 0.1116147 -0.0492452 0.5479598
v -0.1057956 -0.02470737 0.4666494
v -0.1333786 -0.03057919 0.400121
v -0.1066638 0.01509633 0.4666497
v -0.13449 0.02036449 0.400121
v -0.09223419 0.05220265 0.4666494
v -0.1160214 0.0678561 0.4001212
v -0.06470337 0.08096205 0.4666492
v -0.08078491 0.1046649 0.4001209
v -0.02826172 0.09699652 0.4666492
v -0.03414429 0.1251869 0.4001212
v 0.01154175 0.09786522 0.4666494
v 0.01679993 0.1262984 0.4001209
v 0.04864777 0.08343513 0.4666495
v 0.06429077 0.1078301 0.4001208
v 0.07740723 0.05590402 0.4666494
v 0.1010995 0.07259347 0.4001206
v 0.09344207 0.01946275 0.4666486
v 0.1216223 0.0259527 0.4001211
v 0.0943103 -0.02034086 0.4666491
v 0.1227335 -0.02499097 0.4001214
v 0.08529937 -0.05365286 0.4666494
v 0.1096567 -0.06870733 0.4001211
v 0.05776794 -0.08241272 0.4666489
v 0.07441955 -0.1055157 0.4001209
v 0.09151794 -0.05788597 0.1269871
v 0.06274933 -0.08793809 0.1269871
v 0.1772693 -0.112038 -0.01687569
v 0.118476 -0.1734533 -0.01687569
v 0.1990878 -0.03909656 -0.01687569
v 0.1025662 -0.02193444 0.1269871
v 0.1972336 0.04590417 -0.01687569
v 0.1016586 0.01965804 0.1269871
v 0.1629919 0.1237244 -0.01687561
v 0.08490356 0.05773722 0.126987
v 0.1015759 0.1825168 -0.01687546
v 0.05485138 0.08650604 0.1269867
v 0.02233673 0.2133315 -0.01687569
v 0.01607819 0.1015842 0.1269871
v -0.06266388 0.2114768 -0.01687565
v -0.02551483 0.1006764 0.126987
v -0.1404843 0.1772359 -0.01687565
v -0.06359375 0.08392122 0.1269873
v -0.199278 0.1158198 -0.01687565
v -0.09236237 0.05386936 0.1269873
v -0.2300919 0.0365795 -0.01687569
v -0.1074405 0.01509551 0.1269875
v -0.2282382 -0.04842036 -0.0168755
v -0.1065329 -0.02649691 0.1269875
v 0.7668809 0.4800809 1.579187
v 0.9516667 0.1889712 1.828663
v 0.8275009 0.52358 1.790755
v 0.8824096 0.1776295 1.613895
v 0.610206 0.3786936 1.490999
v 0.6992605 0.1460729 1.517981
v 0.8476207 0.1707005 2.036478
v 0.7394344 0.4732718 2.00177
v 0.6531907 0.1368552 2.115604
v 0.5707194 0.3685338 2.088622
v 0.4316589 0.7780523 1.510216
v 0.4636568 0.8643251 1.737502
v 0.3414755 0.5930496 1.424969
v 0.4070785 0.7782962 1.973685
v 0.3038232 0.5867133 2.080412
v -0.05943512 0.8693017 1.422744
v -0.05666412 0.989741 1.693902
v -0.1041211 0.6275381 1.325615
v -0.09541107 0.8790042 1.980248
v -0.152775 0.6254735 2.114044
v -0.4937247 0.8400046 1.389019
v -0.5467294 0.9664214 1.665531
v -0.439024 0.5909588 1.295316
v -0.5442325 0.8550019 1.962876
v -0.4976932 0.5921211 2.106873
v -0.4034558 0.7225404 1.482992
v -0.134353 0.9278395 1.694711
v -0.4660272 0.7986639 1.685866
v -0.1059839 0.8389552 1.49109
v -0.2991238 0.5638853 1.415793
v -0.07021393 0.6533951 1.422088
v -0.1344067 0.8469452 1.913673
v -0.437905 0.7296636 1.905575
v -0.1079581 0.6547841 2.019711
v -0.341188 0.5648863 2.013416
v -0.595982 0.5088445 1.490693
v -0.6839688 0.5594902 1.694102
v -0.4383188 0.4009982 1.422203
v -0.6330328 0.5111001 1.913276
v -0.4817926 0.3984332 2.019825
v -0.7297717 0.2155983 1.509509
v -0.8316085 0.2325703 1.714653
v -0.5411209 0.1753246 1.436831
v -0.7658661 0.2120561 1.932092
v -0.5832953 0.1687112 2.034453
v -0.7436472 -0.1068876 1.538476
v -0.8447229 -0.125579 1.746291
v -0.5516513 -0.07275267 1.45935
v -0.7745852 -0.1136394 1.961058
v -0.5892895 -0.08104217 2.056972
v -0.634078 -0.4101947 1.573183
v -0.7205911 -0.4602175 1.784198
v -0.467333 -0.30605 1.486332
v -0.6585095 -0.4151258 1.995766
v -0.499718 -0.3117376 2.083954
v -0.4163916 -0.6475435 1.608348
v -0.4779977 -0.7196246 1.822605
v -0.2999536 -0.4887389 1.513669
v -0.4369241 -0.6459768 2.030931
v -0.3297107 -0.4880747 2.111291
v -0.1232962 -0.7815304 1.638616
v -0.1545438 -0.8639126 1.855664
v -0.07450622 -0.5920877 1.5372
v -0.1452847 -0.7720643 2.061199
v -0.1064423 -0.5842715 2.134822
v 0.200072 -0.7907343 1.65938
v 0.1998975 -0.8716215 1.878342
v 0.174422 -0.5994358 1.553342
v 0.1716113 -0.7764297 2.081963
v 0.1359784 -0.587501 2.150964
v 0.5035753 -0.6734099 1.667478
v 0.531582 -0.7423795 1.887186
v 0.4081618 -0.5092108 1.559637
v 0.4670995 -0.6602424 2.090061
v 0.3619846 -0.4986179 2.15726
v 0.7401679 -0.4476542 1.661677
v 0.7908195 -0.4959549 1.880851
v 0.5902774 -0.335314 1.555128
v 0.6986976 -0.4410384 2.08426
v 0.5391089 -0.3309797 2.15275
v 0.8732429 -0.1484746 1.642862
v 0.93852 -0.1691295 1.860301
v 0.6924922 -0.1048932 1.5405
v 0.8325749 -0.1500758 2.065445
v 0.6415262 -0.1084898 2.138123
vt 0.7872859 0.2792445
vt 0.7298287 0.5000089
vt 0.7872859 0.5000089
vt 0.7298287 0.2792445
vt 0.7872859 0.1878009
vt 0.7298287 0.1878009
vt 0.7298287 0.7207735
vt 0.7872859 0.7207735
vt 0.7298287 0.8122171
vt 0.7872859 0.8122171
vt 0.8447433 0.2792445
vt 0.8447433 0.500009
vt 0.8447433 0.1878009
vt 0.8447433 0.7207735
vt 0.8447433 0.8122171
vt 0.9022003 0.2792446
vt 0.9022003 0.5000091
vt 0.9022003 0.187801
vt 0.9022003 0.7207735
vt 0.9022003 0.8122171
vt 0.9596575 0.2792446
vt 0.9596575 0.5000091
vt 0.9596575 0.187801
vt 0.9596575 0.7207736
vt 0.9596575 0.8122171
vt 0.09779964 0.2792447
vt 0.04034243 0.5000091
vt 0.09779964 0.5000091
vt 0.04034243 0.2792446
vt 0.09779964 0.187801
vt 0.04034243 0.187801
vt 0.0404649 0.7207887
vt 0.0979221 0.7207887
vt 0.04058737 0.8122474
vt 0.09792209 0.8122324
vt 0.1552569 0.2792447
vt 0.1552569 0.5000091
vt 0.1552568 0.187801
vt 0.1552569 0.7207736
vt 0.1552568 0.8122172
vt 0.212714 0.2792447
vt 0.212714 0.5000091
vt 0.212714 0.187801
vt 0.212714 0.7207736
vt 0.212714 0.8122172
vt 0.2701712 0.2792447
vt 0.2701712 0.5000091
vt 0.2701712 0.1878011
vt 0.2701712 0.7207736
vt 0.2701712 0.8122172
vt 0.3276285 0.2792447
vt 0.3276285 0.5000091
vt 0.3276285 0.187801
vt 0.3276285 0.7207736
vt 0.3276285 0.8122172
vt 0.3850856 0.2792447
vt 0.3850856 0.5000091
vt 0.3850856 0.187801
vt 0.3850856 0.7207736
vt 0.3850856 0.8122172
vt 0.4425428 0.2792447
vt 0.4425428 0.5000091
vt 0.4425428 0.187801
vt 0.4425428 0.7207736
vt 0.4425428 0.8122172
vt 0.5 0.2792446
vt 0.5 0.5000091
vt 0.5 0.187801
vt 0.5 0.7207736
vt 0.5 0.8122171
vt 0.5574572 0.2792446
vt 0.5574572 0.5000091
vt 0.5574572 0.187801
vt 0.5574572 0.7207735
vt 0.5574572 0.8122171
vt 0.6149144 0.2792445
vt 0.6149144 0.500009
vt 0.6149144 0.1878009
vt 0.6149144 0.7207735
vt 0.6149144 0.8122171
vt 0.6723716 0.2792445
vt 0.6723716 0.5000089
vt 0.6723716 0.1878009
vt 0.6723716 0.7207735
vt 0.6723716 0.8122171
vt 0.7872859 0.2792445
vt 0.7298287 0.5000089
vt 0.7872859 0.5000089
vt 0.7298287 0.2792445
vt 0.7872859 0.1878009
vt 0.7298287 0.1878009
vt 0.7298287 0.7207735
vt 0.7872859 0.7207735
vt 0.7298287 0.8122171
vt 0.7872859 0.8122171
vt 0.8447433 0.2792445
vt 0.8447433 0.500009
vt 0.8447433 0.1878009
vt 0.8447433 0.7207735
vt 0.8447433 0.8122171
vt 0.9022003 0.2792446
vt 0.9022003 0.5000091
vt 0.9022003 0.187801
vt 0.9022003 0.7207735
vt 0.9022003 0.8122171
vt 0.9596575 0.2792446
vt 0.9596575 0.5000091
vt 0.9596575 0.187801
vt 0.9596575 0.7207736
vt 0.9596575 0.8122171
vt 0.09779964 0.2792447
vt 0.04034243 0.5000091
vt 0.09779964 0.5000091
vt 0.04034243 0.2792446
vt 0.09779964 0.187801
vt 0.04034243 0.187801
vt 0.0404649 0.7207887
vt 0.0979221 0.7207887
vt 0.04058737 0.8122474
vt 0.09792209 0.8122324
vt 0.1552569 0.2792447
vt 0.1552569 0.5000091
vt 0.1552568 0.187801
vt 0.1552569 0.7207736
vt 0.1552568 0.8122172
vt 0.212714 0.2792447
vt 0.212714 0.5000091
vt 0.212714 0.187801
vt 0.212714 0.7207736
vt 0.212714 0.8122172
vt 0.2701712 0.2792447
vt 0.2701712 0.5000091
vt 0.2701712 0.1878011
vt 0.2701712 0.7207736
vt 0.2701712 0.8122172
vt 0.3276285 0.2792447
vt 0.3276285 0.5000091
vt 0.3276285 0.187801
vt 0.3276285 0.7207736
vt 0.3276285 0.8122172
vt 0.3850856 0.2792447
vt 0.3850856 0.5000091
vt 0.3850856 0.187801
vt 0.3850856 0.7207736
vt 0.3850856 0.8122172
vt 0.4425428 0.2792447
vt 0.4425428 0.5000091
vt 0.4425428 0.187801
vt 0.4425428 0.7207736
vt 0.4425428 0.8122172
vt 0.5 0.2792446
vt 0.5 0.5000091
vt 0.5 0.187801
vt 0.5 0.7207736
vt 0.5 0.8122171
vt 0.5574572 0.2792446
vt 0.5574572 0.5000091
vt 0.5574572 0.187801
vt 0.5574572 0.7207735
vt 0.5574572 0.8122171
vt 0.6149144 0.2792445
vt 0.6149144 0.500009
vt 0.6149144 0.1878009
vt 0.6149144 0.7207735
vt 0.6149144 0.8122171
vt 0.6723716 0.2792445
vt 0.6723716 0.5000089
vt 0.6723716 0.1878009
vt 0.6723716 0.7207735
vt 0.6723716 0.8122171
vt 0.7872859 0.2792445
vt 0.7298287 0.5000089
vt 0.7872859 0.5000089
vt 0.7298287 0.2792445
vt 0.7872859 0.1878009
vt 0.7298287 0.1878009
vt 0.7298287 0.7207735
vt 0.7872859 0.7207735
vt 0.7298287 0.8122171
vt 0.7872859 0.8122171
vt 0.8447433 0.2792445
vt 0.8447433 0.500009
vt 0.8447433 0.1878009
vt 0.8447433 0.7207735
vt 0.8447433 0.8122171
vt 0.9022003 0.2792446
vt 0.9022003 0.5000091
vt 0.9022003 0.187801
vt 0.9022003 0.7207735
vt 0.9022003 0.8122171
vt 0.9596575 0.2792446
vt 0.9596575 0.5000091
vt 0.9596575 0.187801
vt 0.9596575 0.7207736
vt 0.9596575 0.8122171
vt 0.09779964 0.2792447
vt 0.04034243 0.5000091
vt 0.09779964 0.5000091
vt 0.04034243 0.2792446
vt 0.09779964 0.187801
vt 0.04034243 0.187801
vt 0.0404649 0.7207887
vt 0.0979221 0.7207887
vt 0.04058737 0.8122474
vt 0.09792209 0.8122324
vt 0.1552569 0.2792447
vt 0.1552569 0.5000091
vt 0.1552568 0.187801
vt 0.1552569 0.7207736
vt 0.1552568 0.8122172
vt 0.212714 0.2792447
vt 0.212714 0.5000091
vt 0.212714 0.187801
vt 0.212714 0.7207736
vt 0.212714 0.8122172
vt 0.2701712 0.2792447
vt 0.2701712 0.5000091
vt 0.2701712 0.1878011
vt 0.2701712 0.7207736
vt 0.2701712 0.8122172
vt 0.3276285 0.2792447
vt 0.3276285 0.5000091
vt 0.3276285 0.187801
vt 0.3276285 0.7207736
vt 0.3276285 0.8122172
vt 0.3850856 0.2792447
vt 0.3850856 0.5000091
vt 0.3850856 0.187801
vt 0.3850856 0.7207736
vt 0.3850856 0.8122172
vt 0.4425428 0.2792447
vt 0.4425428 0.5000091
vt 0.4425428 0.187801
vt 0.4425428 0.7207736
vt 0.4425428 0.8122172
vt 0.5 0.2792446
vt 0.5 0.5000091
vt 0.5 0.187801
vt 0.5 0.7207736
vt 0.5 0.8122171
vt 0.5574572 0.2792446
vt 0.5574572 0.5000091
vt 0.5574572 0.187801
vt 0.5574572 0.7207735
vt 0.5574572 0.8122171
vt 0.6149144 0.2792445
vt 0.6149144 0.500009
vt 0.6149144 0.1878009
vt 0.6149144 0.7207735
vt 0.6149144 0.8122171
vt 0.6723716 0.2792445
vt 0.6723716 0.5000089
vt 0.6723716 0.1878009
vt 0.6723716 0.7207735
vt 0.6723716 0.8122171
vt 0.7872859 0.2792445
vt 0.7298287 0.5000089
vt 0.7872859 0.5000089
vt 0.7298287 0.2792445
vt 0.7872859 0.1878009
vt 0.7298287 0.1878009
vt 0.7298287 0.7207735
vt 0.7872859 0.7207735
vt 0.7298287 0.8122171
vt 0.7872859 0.8122171
vt 0.8447433 0.2792445
vt 0.8447433 0.500009
vt 0.8447433 0.1878009
vt 0.8447433 0.7207735
vt 0.8447433 0.8122171
vt 0.9022003 0.2792446
vt 0.9022003 0.5000091
vt 0.9022003 0.187801
vt 0.9022003 0.7207735
vt 0.9022003 0.8122171
vt 0.9596575 0.2792446
vt 0.9596575 0.5000091
vt 0.9596575 0.187801
vt 0.9596575 0.7207736
vt 0.9596575 0.8122171
vt 0.09779964 0.2792447
vt 0.04034243 0.5000091
vt 0.09779964 0.5000091
vt 0.04034243 0.2792446
vt 0.09779964 0.187801
vt 0.04034243 0.187801
vt 0.0404649 0.7207887
vt 0.0979221 0.7207887
vt 0.04058737 0.8122474
vt 0.09792209 0.8122324
vt 0.1552569 0.2792447
vt 0.1552569 0.5000091
vt 0.1552568 0.187801
vt 0.1552569 0.7207736
vt 0.1552568 0.8122172
vt 0.212714 0.2792447
vt 0.212714 0.5000091
vt 0.212714 0.187801
vt 0.212714 0.7207736
vt 0.212714 0.8122172
vt 0.2701712 0.2792447
vt 0.2701712 0.5000091
vt 0.2701712 0.1878011
vt 0.2701712 0.7207736
vt 0.2701712 0.8122172
vt 0.3276285 0.2792447
vt 0.3276285 0.5000091
vt 0.3276285 0.187801
vt 0.3276285 0.7207736
vt 0.3276285 0.8122172
vt 0.3850856 0.2792447
vt 0.3850856 0.5000091
vt 0.3850856 0.187801
vt 0.3850856 0.7207736
vt 0.3850856 0.8122172
vt 0.4425428 0.2792447
vt 0.4425428 0.5000091
vt 0.4425428 0.187801
vt 0.4425428 0.7207736
vt 0.4425428 0.8122172
vt 0.5 0.2792446
vt 0.5 0.5000091
vt 0.5 0.187801
vt 0.5 0.7207736
vt 0.5 0.8122171
vt 0.5574572 0.2792446
vt 0.5574572 0.5000091
vt 0.5574572 0.187801
vt 0.5574572 0.7207735
vt 0.5574572 0.8122171
vt 0.6149144 0.2792445
vt 0.6149144 0.500009
vt 0.6149144 0.1878009
vt 0.6149144 0.7207735
vt 0.6149144 0.8122171
vt 0.6723716 0.2792445
vt 0.6723716 0.5000089
vt 0.6723716 0.1878009
vt 0.6723716 0.7207735
vt 0.6723716 0.8122171
vt 0.7872859 0.2792445
vt 0.7298287 0.5000089
vt 0.7872859 0.5000089
vt 0.7298287 0.2792445
vt 0.7298287 0.7207735
vt 0.7872859 0.7207735
vt 0.7298287 0.8122171
vt 0.7872859 0.8122171
vt 0.8447433 0.2792445
vt 0.8447433 0.500009
vt 0.8447433 0.7207735
vt 0.8447433 0.8122171
vt 0.9022003 0.2792446
vt 0.9022003 0.5000091
vt 0.9022003 0.7207735
vt 0.9022003 0.8122171
vt 0.9596575 0.2792446
vt 0.9596575 0.5000091
vt 0.9596575 0.7207736
vt 0.9596575 0.8122171
vt 0.6723716 0.8122171
vt 0.6723716 0.7207735
vt 0.6149144 0.8122171
vt 0.6149144 0.7207735
vt 0.5574572 0.8122171
vt 0.5574572 0.7207735
vt 0.5 0.8122171
vt 0.5 0.7207736
vt 0.4425428 0.8122172
vt 0.4425428 0.7207736
vt 0.3850856 0.8122172
vt 0.3850856 0.7207736
vt 0.3276285 0.8122172
vt 0.3276285 0.7207736
vt 0.2701712 0.8122172
vt 0.2701712 0.7207736
vt 0.212714 0.8122172
vt 0.212714 0.7207736
vt 0.1552568 0.8122172
vt 0.1552569 0.7207736
vt 0.09792209 0.8122324
vt 0.0979221 0.7207887
vt 0.04058737 0.8122474
vt 0.0404649 0.7207887
vt 0.09779964 0.5000091
vt 0.04034243 0.5000091
vt 0.09779964 0.2792447
vt 0.04034243 0.2792446
vt 0.1552569 0.2792447
vt 0.1552569 0.5000091
vt 0.212714 0.2792447
vt 0.212714 0.5000091
vt 0.2701712 0.2792447
vt 0.2701712 0.5000091
vt 0.3276285 0.2792447
vt 0.3276285 0.5000091
vt 0.3850856 0.2792447
vt 0.3850856 0.5000091
vt 0.4425428 0.2792447
vt 0.4425428 0.5000091
vt 0.5 0.2792446
vt 0.5 0.5000091
vt 0.5574572 0.2792446
vt 0.5574572 0.5000091
vt 0.6149144 0.2792445
vt 0.6149144 0.500009
vt 0.6723716 0.2792445
vt 0.6723716 0.5000089
vt 0.7872859 0.2792445
vt 0.7298287 0.5000089
vt 0.7872859 0.5000089
vt 0.7298287 0.2792445
vt 0.7872859 0.1878009
vt 0.7298287 0.1878009
vt 0.7298287 0.7207735
vt 0.7872859 0.7207735
vt 0.7298287 0.8122171
vt 0.7872859 0.8122171
vt 0.8447433 0.2792445
vt 0.8447433 0.500009
vt 0.8447433 0.1878009
vt 0.8447433 0.7207735
vt 0.8447433 0.8122171
vt 0.9022003 0.2792446
vt 0.9022003 0.5000091
vt 0.9022003 0.187801
vt 0.9022003 0.7207735
vt 0.9022003 0.8122171
vt 0.9596575 0.2792446
vt 0.9596575 0.5000091
vt 0.9596575 0.187801
vt 0.9596575 0.7207736
vt 0.9596575 0.8122171
vt 0.09779964 0.2792447
vt 0.04034243 0.5000091
vt 0.09779964 0.5000091
vt 0.04034243 0.2792446
vt 0.09779964 0.187801
vt 0.04034243 0.187801
vt 0.0404649 0.7207887
vt 0.0979221 0.7207887
vt 0.04058737 0.8122474
vt 0.09792209 0.8122324
vt 0.1552569 0.2792447
vt 0.1552569 0.5000091
vt 0.1552568 0.187801
vt 0.1552569 0.7207736
vt 0.1552568 0.8122172
vt 0.212714 0.2792447
vt 0.212714 0.5000091
vt 0.212714 0.187801
vt 0.212714 0.7207736
vt 0.212714 0.8122172
vt 0.2701712 0.2792447
vt 0.2701712 0.5000091
vt 0.2701712 0.1878011
vt 0.2701712 0.7207736
vt 0.2701712 0.8122172
vt 0.3276285 0.2792447
vt 0.3276285 0.5000091
vt 0.3276285 0.187801
vt 0.3276285 0.7207736
vt 0.3276285 0.8122172
vt 0.3850856 0.2792447
vt 0.3850856 0.5000091
vt 0.3850856 0.187801
vt 0.3850856 0.7207736
vt 0.3850856 0.8122172
vt 0.4425428 0.2792447
vt 0.4425428 0.5000091
vt 0.4425428 0.187801
vt 0.4425428 0.7207736
vt 0.4425428 0.8122172
vt 0.5 0.2792446
vt 0.5 0.5000091
vt 0.5 0.187801
vt 0.5 0.7207736
vt 0.5 0.8122171
vt 0.5574572 0.2792446
vt 0.5574572 0.5000091
vt 0.5574572 0.187801
vt 0.5574572 0.7207735
vt 0.5574572 0.8122171
vt 0.6149144 0.2792445
vt 0.6149144 0.500009
vt 0.6149144 0.1878009
vt 0.6149144 0.7207735
vt 0.6149144 0.8122171
vt 0.6723716 0.2792445
vt 0.6723716 0.5000089
vt 0.6723716 0.1878009
vt 0.6723716 0.7207735
vt 0.6723716 0.8122171
vn 0.09505762 -0.6481373 -0.7555674
vn -0.1154918 -0.9792649 -0.166439
vn 0.2922921 -0.9345304 -0.2030227
vn -0.2097587 -0.6537643 -0.7270443
vn -0.07563834 -0.3235008 -0.9431999
vn -0.2354427 -0.3246698 -0.9160547
vn 0.02932757 -0.8546609 0.5183576
vn 0.3425771 -0.8162875 0.4650974
vn 0.1250605 -0.5432618 0.8301966
vn 0.2920421 -0.5288497 0.7968874
vn 0.4083579 -0.4804321 -0.7761628
vn 0.6940695 -0.6847694 -0.2221675
vn 0.09736523 -0.24554 -0.9644844
vn 0.6446406 -0.6269321 0.4374866
vn 0.443182 -0.4445177 0.778456
vn 0.5648774 -0.2186013 -0.7956928
vn 0.9060079 -0.3640091 -0.2159793
vn 0.2333165 -0.07713311 -0.9693368
vn 0.8017402 -0.3663829 0.4722036
vn 0.5516859 -0.282739 0.7846663
vn 0.6252581 -0.1057853 -0.7732152
vn 0.9548181 -0.231665 -0.186155
vn 0.2675666 -0.0005662037 -0.9635392
vn 0.8329089 -0.250966 0.4932331
vn 0.5785778 -0.2097345 0.7882
vn 0.5942922 0.3208002 -0.7374985
vn 0.9757636 0.08708569 -0.2007528
vn 0.9355858 0.3092257 -0.1704664
vn 0.6316342 0.1545527 -0.759705
vn 0.2421074 0.2725337 -0.9311871
vn 0.2787189 0.1650075 -0.9460911
vn 0.8874744 -0.01184579 0.4607049
vn 0.850494 0.1692983 0.4979939
vn 0.6081739 -0.07266003 0.7904714
vn 0.5788041 0.03323846 0.8147889
vn 0.4365583 0.562763 -0.7019364
vn 0.7537752 0.6452888 -0.124199
vn 0.1528212 0.4110951 -0.8986915
vn 0.7108617 0.4295183 0.5569468
vn 0.499267 0.1790313 0.8477501
vn 0.2372579 0.7099836 -0.6630476
vn 0.4889205 0.8690262 -0.07582894
vn 0.03379512 0.4850496 -0.8738334
vn 0.5095145 0.6099814 0.6068918
vn 0.3892748 0.2677688 0.8813428
vn -0.0278646 0.7793483 -0.625971
vn 0.1245118 0.9919153 -0.02451409
vn -0.1193793 0.5175426 -0.8472888
vn 0.223783 0.713057 0.6644327
vn 0.2334602 0.3202856 0.9181032
vn -0.2984418 0.7449273 -0.5966706
vn -0.2640142 0.9643328 0.01894589
vn -0.2724526 0.490739 -0.8276138
vn -0.08595985 0.6958612 0.7130134
vn 0.0667788 0.3083978 0.9489106
vn -0.5376606 0.613044 -0.5788767
vn -0.6161381 0.7862813 0.04621236
vn -0.4059551 0.4110791 -0.8162197
vn -0.3703063 0.5558092 0.7442778
vn -0.08578549 0.2311975 0.9691175
vn -0.7120176 0.4022722 -0.5755069
vn -0.8738085 0.4835892 0.0509919
vn -0.5034258 0.2899761 -0.8139265
vn -0.5804034 0.3125876 0.7519448
vn -0.1987389 0.09901134 0.9750382
vn -0.7965263 0.1428848 -0.5874774
vn -0.9939436 0.1053333 0.03131909
vn -0.5529284 0.1432823 -0.8208169
vn -0.6793018 0.006576914 0.7338296
vn -0.2523884 -0.06649112 0.9653388
vn -0.779734 -0.1276282 -0.6129648
vn -0.9581918 -0.2859766 -0.009271041
vn -0.5484565 -0.0104369 -0.836114
vn -0.6509935 -0.3099497 0.6929203
vn -0.2385165 -0.2375094 0.9416471
vn -0.6649446 -0.3715277 -0.6479319
vn -0.7758479 -0.6278151 -0.06251664
vn -0.489892 -0.1520707 -0.8584173
vn -0.5029062 -0.5845974 0.6366563
vn -0.1611845 -0.387223 0.9077874
vn -0.4671412 -0.5559179 -0.6875569
vn -0.4794033 -0.8696228 -0.1180193
vn -0.3821103 -0.2629054 -0.8859303
vn -0.2625355 -0.7748465 0.5750547
vn -0.03360525 -0.4941273 0.8687399
vn 0.8741387 -0.1028581 -0.4746597
vn 0.8278499 -0.546142 -0.1280371
vn 0.9833391 -0.1768758 -0.04194415
vn 0.7311136 -0.4026676 -0.5507556
vn 0.6774781 -0.04458211 -0.7341907
vn 0.5760758 -0.2525252 -0.7774108
vn 0.7274686 -0.5690414 0.3833813
vn 0.8643577 -0.2386748 0.4426288
vn 0.5294059 -0.4830715 0.6974033
vn 0.6296138 -0.2426205 0.7380527
vn 0.875156 0.2741404 -0.3986842
vn 0.9597147 0.2748369 0.05841619
vn 0.6918494 0.2125448 -0.6900502
vn 0.8410949 0.1484325 0.5201223
vn 0.6200357 0.01613412 0.7844077
vn 0.7318931 0.5674383 -0.377288
vn 0.7860478 0.604892 0.1274144
vn 0.5889296 0.476199 -0.6529904
vn 0.6654325 0.4361743 0.6057653
vn 0.4844156 0.2640539 0.8340366
vn 0.6430608 0.6737607 -0.364032
vn 0.692532 0.7081421 0.1376021
vn 0.5272958 0.5614311 -0.6377728
vn 0.5743582 0.5554182 0.6013514
vn 0.400578 0.3548199 0.8447723
vn 0.1945868 0.927129 -0.3202619
vn 0.4198737 0.8863027 0.1953802
vn 0.1899953 0.9627123 0.1925795
vn 0.4100332 0.8588416 -0.3070242
vn 0.1589497 0.7527019 -0.6388856
vn 0.3362373 0.6991832 -0.6309416
vn 0.3244355 0.6912147 0.6457272
vn 0.1323514 0.7593611 0.6370665
vn 0.2185131 0.470853 0.8547218
vn 0.06534182 0.5007643 0.8631139
vn -0.165512 0.9271199 -0.3362358
vn -0.2175536 0.9586742 0.1833421
vn -0.1093681 0.7540655 -0.6476295
vn -0.2176977 0.7476794 0.6273621
vn -0.1939048 0.4957676 0.8465314
vn -0.4678006 0.8055442 -0.3636772
vn -0.5540662 0.8196679 0.1454484
vn -0.3324958 0.6614016 -0.6723053
vn -0.5001776 0.6344791 0.5892866
vn -0.3946062 0.4158137 0.8193808
vn -0.7175422 0.5610248 -0.4127764
vn -0.8315912 0.54963 0.07976803
vn -0.5254268 0.4773574 -0.7043129
vn -0.7426933 0.4092435 0.5300248
vn -0.5791064 0.2525543 0.7751465
vn -0.8455194 0.2503423 -0.4716203
vn -0.9783552 0.2069298 0.001105157
vn -0.624826 0.2414982 -0.7424764
vn -0.8792269 0.117104 0.4617866
vn -0.6866897 0.03637593 0.72604
vn -0.8426118 -0.07705243 -0.5329806
vn -0.9840304 -0.1591657 -0.07969009
vn -0.6221731 -0.007469465 -0.782844
vn -0.8958337 -0.20379 0.3949071
vn -0.703613 -0.2048377 0.6804191
vn -0.7143971 -0.3777631 -0.5890093
vn -0.8498823 -0.5042765 -0.1529881
vn -0.522057 -0.2347308 -0.8199744
vn -0.7877613 -0.5149323 0.3380488
vn -0.6243493 -0.4407362 0.6449338
vn -0.4773827 -0.6117642 -0.6307539
vn -0.5867382 -0.7823659 -0.2089065
vn -0.339314 -0.4092222 -0.8469965
vn -0.5598585 -0.7729226 0.2985785
vn -0.4523435 -0.6370686 0.6241227
vn -0.1630789 -0.7426264 -0.649547
vn -0.224759 -0.9450436 -0.2374361
vn -0.1002529 -0.5050859 -0.8572267
vn -0.2360746 -0.9297515 0.2825437
vn -0.20616 -0.7568452 0.6202285
vn 0.1794411 -0.7468044 -0.6403782
vn 0.1785972 -0.9562191 -0.2318363
vn 0.1580383 -0.5074192 -0.847083
vn 0.1319628 -0.9469178 0.2931421
vn 0.0747249 -0.7705313 0.6330069
vn 0.4932028 -0.625194 -0.604883
vn 0.5501117 -0.8125492 -0.1927196
vn 0.3948689 -0.4176627 -0.8183132
vn 0.474007 -0.8168383 0.3287743
vn 0.336254 -0.6718141 0.6599993
vn -0.2555126 0.8728753 -0.4156945
vn 0.2270357 0.9718569 -0.06284179
vn -0.1889318 0.981215 -0.03901247
vn 0.0950146 0.8824082 -0.4607908
vn -0.2763115 0.7024992 -0.6558557
vn -0.007341017 0.7194049 -0.6945522
vn 0.3109358 0.8753958 0.3701365
vn -0.05927932 0.9129106 0.4038319
vn 0.3284315 0.690447 0.6445276
vn 0.05635807 0.7221574 0.6894291
vn -0.6082264 0.6953771 -0.382768
vn -0.6220958 0.7827639 -0.01665651
vn -0.5314953 0.574961 -0.622039
vn -0.4549949 0.7675414 0.4515085
vn -0.2228781 0.6292179 0.7445872
vn -0.8156556 0.4239177 -0.3937001
vn -0.8750145 0.4840272 -0.008191179
vn -0.7243162 0.3482529 -0.5950512
vn -0.6984702 0.4977415 0.5141914
vn -0.4572456 0.3973784 0.7956235
vn -0.8786212 0.3004746 -0.371133
vn -0.9350098 0.3546153 0.002150955
vn -0.7748503 0.2440605 -0.5831307
vn -0.7727998 0.3486105 0.5303314
vn -0.5238852 0.2841075 0.8030114
vn -0.9100381 -0.1687211 -0.3786344
vn -0.99934 0.03474894 -0.01058497
vn -0.9799727 -0.1989174 -0.009247962
vn -0.9248759 0.02844068 -0.3792041
vn -0.7898622 -0.1442529 -0.5960779
vn -0.8093512 0.02223134 -0.586904
vn -0.8713541 0.03474897 0.4894227
vn -0.8424112 -0.1978601 0.5011933
vn -0.5986661 0.02791362 0.8005121
vn -0.5680645 -0.1679903 0.8056561
vn -0.7899215 -0.4693623 -0.3946177
vn -0.8266549 -0.5622291 -0.02324511
vn -0.7007957 -0.3774131 -0.6053469
vn -0.6821207 -0.552412 0.4791164
vn -0.4419097 -0.4513118 0.7752634
vn -0.5937223 -0.6921799 -0.4103423
vn -0.5777887 -0.8152658 -0.03875408
vn -0.5511402 -0.5495362 -0.6278969
vn -0.4382606 -0.7810859 0.4447837
vn -0.258114 -0.6226347 0.7387173
vn -0.3013106 -0.8475294 -0.4369276
vn -0.2238576 -0.9727673 -0.06009614
vn -0.3234124 -0.6799386 -0.6580942
vn -0.09820157 -0.9109092 0.4007505
vn 0.008718436 -0.7256416 0.6880175
vn 0.03439698 -0.8830145 -0.4680836
vn 0.1611828 -0.98362 -0.0806956
vn -0.05635996 -0.7165856 -0.6952184
vn 0.2548166 -0.8979866 0.358732
vn 0.2854934 -0.7148708 0.6383207
vn 0.3676844 -0.7837951 -0.5004732
vn 0.5215977 -0.8475453 -0.09799381
vn 0.2144671 -0.6430622 -0.73517
vn 0.5692691 -0.7554045 0.3244948
vn 0.5316776 -0.6008539 0.5969033
vn 0.6441595 -0.552853 -0.5285944
vn 0.8047231 -0.5833719 -0.1099911
vn 0.4433313 -0.4576148 -0.7707438
vn 0.8055265 -0.5102802 0.3012327
vn 0.715996 -0.4055486 0.5682253
vn 0.8089061 -0.2198635 -0.5452806
vn 0.9666556 -0.2288082 -0.1149944
vn 0.5815607 -0.1829051 -0.7926745
vn 0.936101 -0.1983407 0.2904753
vn 0.8170831 -0.1579861 0.5544507
vn 0.8237995 0.1567757 -0.5447712
vn 0.980396 0.1621705 -0.1119131
vn 0.5941951 0.1306777 -0.7936344
vn 0.9460358 0.1389456 0.2927636
vn 0.8239199 0.1087034 0.5561831
vn 0.6847756 0.5038337 -0.5265302
vn 0.843311 0.5278642 -0.1009246
vn 0.4774882 0.4180983 -0.7727863
vn 0.8342167 0.4575354 0.3078047
vn 0.7362421 0.3601158 0.5729434
vn 0.4240205 0.7578158 -0.4959052
vn 0.5782207 0.8115773 -0.08368485
vn 0.2610674 0.623985 -0.7365369
vn 0.6137927 0.7151666 0.3343577
vn 0.5643812 0.5635078 0.6032684
vn 0.4730204 0.5248455 -0.7076644
vn 0.9249925 0.3326896 -0.183593
vn 0.7109436 0.6858385 -0.1555144
vn 0.6245057 0.2664596 -0.7341607
vn 0.236633 0.3172409 -0.918348
vn 0.3226388 0.176497 -0.929921
vn 0.8188401 0.2505777 0.5164413
vn 0.6525584 0.5366822 0.5349203
vn 0.5139842 0.1238956 0.8488051
vn 0.4249662 0.2730243 0.8630536
vn 0.1897498 0.7102025 -0.6779435
vn 0.3120835 0.9431459 -0.1143662
vn 0.0915365 0.4211999 -0.9023368
vn 0.3434962 0.743597 0.5736497
vn 0.2799867 0.373175 0.8845043
vn -0.0978427 0.7300248 -0.6763804
vn -0.06942783 0.9941927 -0.08222392
vn -0.09878787 0.4569447 -0.8839924
vn 0.02878267 0.7704863 0.6368064
vn 0.08476382 0.4013385 0.9119992
vn -0.2105504 0.7261872 -0.6544622
vn -0.2101437 0.9761667 -0.0542054
vn -0.1728041 0.4512878 -0.8754873
vn -0.09731565 0.7494708 0.654846
vn 0.004365642 0.393863 0.9191588
vn -0.565765 0.5306318 -0.6311418
vn -0.5109916 0.8582633 -0.04766205
vn -0.6962981 0.7169897 -0.03308831
vn -0.4323267 0.6363415 -0.6388766
vn -0.3897119 0.3192439 -0.8638332
vn -0.3103734 0.3935237 -0.8653367
vn -0.3484553 0.6787626 0.6464211
vn -0.4987161 0.559004 0.6624174
vn -0.1339777 0.352269 0.9262595
vn -0.2129532 0.2765797 0.9370989
vn -0.7180253 0.2965751 -0.629669
vn -0.9191916 0.3932503 -0.02099807
vn -0.4787161 0.1861733 -0.8580037
vn -0.6713955 0.2918016 0.6812341
vn -0.309301 0.1345313 0.9414001
vn -0.7769274 0.05125558 -0.6275005
vn -0.9987004 0.04631294 -0.02127364
vn -0.5073757 0.0451317 -0.8605424
vn -0.7369814 0.0178194 0.6756781
vn -0.3400596 -0.006508351 0.9403813
vn -0.7368048 -0.2255577 -0.6373715
vn -0.9397992 -0.3396787 -0.03736152
vn -0.4852783 -0.1171001 -0.8664829
vn -0.6910101 -0.2933589 0.6606402
vn -0.3167673 -0.174039 0.9323995
vn -0.5949069 -0.4662402 -0.6547564
vn -0.7378486 -0.6718271 -0.06502178
vn -0.40401 -0.2595448 -0.8771615
vn -0.5296657 -0.5626919 0.6346904
vn -0.2314958 -0.3209738 0.9183602
vn -0.3717663 -0.6351381 -0.6770447
vn -0.4248451 -0.8997824 -0.09948977
vn -0.2741207 -0.361297 -0.8912476
vn -0.2773213 -0.7489473 0.6018063
vn -0.09573392 -0.4251731 0.9000349
vn -0.09971998 -0.7063109 -0.7008429
vn -0.04926581 -0.9896075 -0.1350925
vn -0.1134704 -0.4060347 -0.9067857
vn 0.0272242 -0.8232427 0.5670366
vn 0.07097925 -0.4697562 0.8799382
vn 0.1807565 -0.667373 -0.7224544
vn 0.331377 -0.9287181 -0.1663493
vn 0.05425448 -0.3849159 -0.9213555
vn 0.3366518 -0.7744011 0.5356945
vn 0.2432503 -0.4464291 0.8611216
vn 0.4262848 -0.5224726 -0.7384467
vn 0.6594905 -0.7276031 -0.1888543
vn 0.2025224 -0.2991816 -0.9324564
vn 0.6033796 -0.6109924 0.5124658
vn 0.393799 -0.3578306 0.8466875
vn 0.59764 -0.293159 -0.7462466
vn 0.8863409 -0.4177289 -0.1997557
vn 0.3066464 -0.1613376 -0.9380502
vn 0.7876161 -0.3590935 0.5007122
vn 0.4984583 -0.2176255 0.8391534
vn 0.6672459 -0.0155036 -0.7446761
vn 0.9791474 -0.0460063 -0.1978733
vn 0.3489572 0.006429601 -0.9371166
vn 0.8629305 -0.05705077 0.5020917
vn 0.5406225 -0.04809828 0.8398892
vn -0.4007531 -0.6670273 0.6280698
vn -0.7763444 -0.5480884 0.3112693
vn -0.4780614 -0.8237971 0.3046568
vn -0.6297457 -0.4358296 0.6430185
vn -0.8106301 -0.5667161 0.147349
vn -0.5125761 -0.8478971 0.1354115
vn -0.7543728 -0.5283864 0.3895246
vn -0.4891436 -0.7832565 0.3837288
vn -0.03317017 -0.7946337 0.6061823
vn -0.04048682 -0.9546794 0.2948696
vn -0.07365533 -0.9865758 0.1457505
vn -0.1097551 -0.9156125 0.3867915
vn 0.2898541 -0.7531258 0.5905811
vn 0.3196287 -0.9042352 0.2831892
vn 0.2948019 -0.9364468 0.1901558
vn 0.2883218 -0.8737857 0.3916239
vn 0.3797334 -0.7101228 0.5928981
vn 0.4424186 -0.8416137 0.3097613
vn 0.4546017 -0.8725694 0.1787735
vn 0.4167597 -0.8222426 0.3875932
vn -0.8987904 -0.1996683 0.3902673
vn -0.9659544 -0.2135282 0.1460744
vn -0.9062412 0.1591798 0.3916486
vn -0.9741927 0.1721652 0.1459716
vn -0.775753 0.4933567 0.3934545
vn -0.8341686 0.5315443 0.1470489
vn -0.5274188 0.7519845 0.3954095
vn -0.5673184 0.809881 0.1491394
vn -0.1992256 0.8958396 0.397216
vn -0.2143727 0.9648631 0.1519321
vn 0.1588578 0.903263 0.3985977
vn 0.1709054 0.9730192 0.1549999
vn 0.492475 0.7732965 0.3993505
vn 0.5299254 0.8332174 0.1578854
vn 0.7510728 0.5257386 0.3993603
vn 0.8081564 0.5667772 0.1601458
vn 0.8954595 0.1981087 0.3986291
vn 0.9633591 0.2141883 0.1614392
vn 0.9112664 -0.109531 0.3969843
vn 0.9782947 -0.13118 0.1604097
vn 0.7970449 -0.4526007 0.39984
vn 0.85287 -0.4974597 0.1585768
vn 0.6657769 -0.6373509 0.3879755
vn 0.71344 -0.6829859 0.1566327
vn 0.8293251 -0.484601 0.2781758
vn 0.6948163 -0.6651426 0.2735248
vn 0.7053701 -0.4131742 0.5759689
vn 0.5943182 -0.5689448 0.5684081
vn 0.8184888 -0.1128673 0.5633267
vn 0.954652 -0.1314228 0.2671473
vn 0.8036779 0.1808545 0.5669158
vn 0.9401823 0.2061831 0.2711932
vn 0.665749 0.4720448 0.5778859
vn 0.7895296 0.5480121 0.2762712
vn 0.4271281 0.681882 0.5938002
vn 0.519417 0.8059373 0.2840262
vn 0.1310347 0.780161 0.6117016
vn 0.17126 0.9406137 0.2931139
vn -0.1739244 0.7579642 0.6286816
vn -0.2016466 0.9317093 0.3020869
vn -0.4430765 0.6253007 0.6424036
vn -0.5424529 0.7809451 0.3096283
vn -0.6412342 0.4057693 0.6512834
vn -0.7995167 0.5115697 0.3147531
vn -0.7446351 0.1312382 0.6544425
vn -0.9340838 0.1646287 0.3168355
vn -0.7410497 -0.1620367 0.6516052
vn -0.9259515 -0.2073362 0.3156351
vn 0.6777188 0.370992 -0.6348719
vn 0.9833139 0.1654182 0.0757005
vn 0.8295842 0.5560572 0.05089644
vn 0.779659 0.07387409 -0.6218315
vn 0.4156892 0.1390791 -0.8988101
vn 0.4649766 -0.008349868 -0.8852836
vn 0.6778141 0.1702458 0.7152513
vn 0.5709274 0.4490417 0.6873161
vn 0.351179 0.1438748 0.9251882
vn 0.2921339 0.2908237 0.9110869
vn 0.4203252 0.6193868 -0.6630887
vn 0.4719498 0.8815686 0.01000561
vn 0.3014951 0.2705462 -0.9142786
vn 0.3253257 0.6794565 0.657649
vn 0.1786875 0.4043967 0.8969583
vn 0.131521 0.690316 -0.7114534
vn 0.09683471 0.9950252 -0.02340518
vn 0.1221427 0.3490564 -0.9291075
vn 0.04505573 0.751112 0.6586354
vn 0.01036405 0.4635278 0.8860218
vn 0.01130861 0.7041897 -0.7099219
vn -0.04542825 0.9985498 -0.02888827
vn 0.04672887 0.3624219 -0.9308419
vn -0.06698967 0.7635484 0.6422665
vn -0.06381068 0.4707216 0.8799712
vn -0.3918234 0.5704337 -0.7218586
vn -0.3614025 0.9306701 -0.05693375
vn -0.5635293 0.8233098 -0.06779135
vn -0.2389651 0.6604027 -0.7118736
vn -0.1976816 0.2691276 -0.9425987
vn -0.1029117 0.3291987 -0.9386359
vn -0.3007332 0.7335871 0.6094337
vn -0.4540733 0.6521851 0.6070189
vn -0.1980384 0.4526176 0.8694354
vn -0.2843061 0.3994434 0.8715589
vn -0.5850739 0.3518323 -0.7306864
vn -0.83452 0.5451795 -0.07972261
vn -0.3088771 0.1508907 -0.9390565
vn -0.6534626 0.4481233 0.610059
vn -0.3975078 0.289636 0.8706886
vn -0.6812136 0.1127148 -0.7233557
vn -0.9718199 0.2217615 -0.07992313
vn -0.3567286 0.01576453 -0.934075
vn -0.7610873 0.2150739 0.6119555
vn -0.4518601 0.1662456 0.8764615
vn -0.6811566 -0.1717049 -0.7117184
vn -0.9837901 -0.1655012 -0.06903964
vn -0.355111 -0.1451985 -0.9234791
vn -0.775396 -0.07320812 0.6272174
vn -0.4608406 0.008092111 0.8874461
vn -0.5749459 -0.4335511 -0.693881
vn -0.8466983 -0.5300721 -0.04610296
vn -0.2927033 -0.2914699 -0.9106975
vn -0.6756187 -0.3472952 0.6503273
vn -0.4077018 -0.1433899 0.9017863
vn -0.3789262 -0.6365818 -0.6716982
vn -0.57853 -0.8155344 -0.01438028
vn -0.1806274 -0.4028256 -0.8972766
vn -0.47465 -0.5622216 0.6772105
vn -0.2984096 -0.2644474 0.9170711
vn -0.1208752 -0.7519938 -0.6479926
vn -0.2198936 -0.9753044 0.02068854
vn -0.03570393 -0.464594 -0.8848038
vn -0.2044272 -0.6812745 0.7029044
vn -0.1485305 -0.3343927 0.9306558
vn 0.1622585 -0.7623746 -0.6264639
vn 0.1717224 -0.9837285 0.05281769
vn 0.1215534 -0.4687067 -0.8749507
vn 0.089776 -0.6850745 0.7229199
vn 0.01800182 -0.3401052 0.9402152
vn 0.429102 -0.6652732 -0.6109689
vn 0.5343731 -0.8417648 0.07666365
vn 0.2690943 -0.4145643 -0.8693243
vn 0.3597158 -0.5755512 0.7344012
vn 0.173013 -0.2799885 0.9442844
vn 0.6402753 -0.4739789 -0.6044762
vn 0.8140053 -0.5740103 0.08892486
vn 0.3859452 -0.3093687 -0.8691015
vn 0.5641326 -0.3733776 0.7364398
vn 0.2904598 -0.1649496 0.9425629
vn 0.7639535 -0.2152898 -0.6082972
vn 0.9711848 -0.2213168 0.08842476
vn 0.4549565 -0.167402 -0.8746378
vn 0.674683 -0.1116998 0.7296068
vn 0.3522832 -0.01544742 0.935766
g Torus008_0
f 3/3/3 2/2/2 1/1/1
f 4/4/4 1/1/1 2/2/2
f 1/1/1 4/4/4 5/5/5
f 6/6/6 5/5/5 4/4/4
f 2/2/2 3/3/3 7/7/7
f 8/8/8 7/7/7 3/3/3
f 7/7/7 8/8/8 9/9/9
f 10/10/10 9/9/9 8/8/8
f 1/1/1 11/11/11 3/3/3
f 12/12/12 3/3/3 11/11/11
f 3/3/3 12/12/12 8/8/8
f 11/11/11 1/1/1 13/13/13
f 5/5/5 13/13/13 1/1/1
f 8/8/8 14/14/14 10/10/10
f 14/14/14 8/8/8 12/12/12
f 15/15/15 10/10/10 14/14/14
f 11/11/11 16/16/16 12/12/12
f 17/17/17 12/12/12 16/16/16
f 12/12/12 17/17/17 14/14/14
f 16/16/16 11/11/11 18/18/18
f 13/13/13 18/18/18 11/11/11
f 14/14/14 19/19/19 15/15/15
f 19/19/19 14/14/14 17/17/17
f 20/20/20 15/15/15 19/19/19
f 16/16/16 21/21/21 17/17/17
f 22/22/22 17/17/17 21/21/21
f 17/17/17 22/22/22 19/19/19
f 21/21/21 16/16/16 23/23/23
f 18/18/18 23/23/23 16/16/16
f 19/19/19 24/24/24 20/20/20
f 24/24/24 19/19/19 22/22/22
f 25/25/25 20/20/20 24/24/24
f 28/28/28 27/27/27 26/26/26
f 29/29/29 26/26/26 27/27/27
f 26/26/26 29/29/29 30/30/30
f 31/31/31 30/30/30 29/29/29
f 27/27/27 28/28/28 32/32/32
f 33/33/33 32/32/32 28/28/28
f 32/32/32 33/33/33 34/34/34
f 35/35/35 34/34/34 33/33/33
f 26/26/26 36/36/36 28/28/28
f 37/37/37 28/28/28 36/36/36
f 28/28/28 37/37/37 33/33/33
f 36/36/36 26/26/26 38/38/38
f 30/30/30 38/38/38 26/26/26
f 33/33/33 39/39/39 35/35/35
f 39/39/39 33/33/33 37/37/37
f 40/40/40 35/35/35 39/39/39
f 36/36/36 41/41/41 37/37/37
f 42/42/42 37/37/37 41/41/41
f 37/37/37 42/42/42 39/39/39
f 41/41/41 36/36/36 43/43/43
f 38/38/38 43/43/43 36/36/36
f 39/39/39 44/44/44 40/40/40
f 44/44/44 39/39/39 42/42/42
f 45/45/45 40/40/40 44/44/44
f 41/41/41 46/46/46 42/42/42
f 47/47/47 42/42/42 46/46/46
f 42/42/42 47/47/47 44/44/44
f 46/46/46 41/41/41 48/48/48
f 43/43/43 48/48/48 41/41/41
f 44/44/44 49/49/49 45/45/45
f 49/49/49 44/44/44 47/47/47
f 50/50/50 45/45/45 49/49/49
f 46/46/46 51/51/51 47/47/47
f 52/52/52 47/47/47 51/51/51
f 47/47/47 52/52/52 49/49/49
f 51/51/51 46/46/46 53/53/53
f 48/48/48 53/53/53 46/46/46
f 49/49/49 54/54/54 50/50/50
f 54/54/54 49/49/49 52/52/52
f 55/55/55 50/50/50 54/54/54
f 51/51/51 56/56/56 52/52/52
f 57/57/57 52/52/52 56/56/56
f 52/52/52 57/57/57 54/54/54
f 56/56/56 51/51/51 58/58/58
f 53/53/53 58/58/58 51/51/51
f 54/54/54 59/59/59 55/55/55
f 59/59/59 54/54/54 57/57/57
f 60/60/60 55/55/55 59/59/59
f 56/56/56 61/61/61 57/57/57
f 62/62/62 57/57/57 61/61/61
f 57/57/57 62/62/62 59/59/59
f 61/61/61 56/56/56 63/63/63
f 58/58/58 63/63/63 56/56/56
f 59/59/59 64/64/64 60/60/60
f 64/64/64 59/59/59 62/62/62
f 65/65/65 60/60/60 64/64/64
f 61/61/61 66/66/66 62/62/62
f 67/67/67 62/62/62 66/66/66
f 62/62/62 67/67/67 64/64/64
f 66/66/66 61/61/61 68/68/68
f 63/63/63 68/68/68 61/61/61
f 64/64/64 69/69/69 65/65/65
f 69/69/69 64/64/64 67/67/67
f 70/70/70 65/65/65 69/69/69
f 66/66/66 71/71/71 67/67/67
f 72/72/72 67/67/67 71/71/71
f 67/67/67 72/72/72 69/69/69
f 71/71/71 66/66/66 73/73/73
f 68/68/68 73/73/73 66/66/66
f 69/69/69 74/74/74 70/70/70
f 74/74/74 69/69/69 72/72/72
f 75/75/75 70/70/70 74/74/74
f 71/71/71 76/76/76 72/72/72
f 77/77/77 72/72/72 76/76/76
f 72/72/72 77/77/77 74/74/74
f 76/76/76 71/71/71 78/78/78
f 73/73/73 78/78/78 71/71/71
f 74/74/74 79/79/79 75/75/75
f 79/79/79 74/74/74 77/77/77
f 80/80/80 75/75/75 79/79/79
f 76/76/76 81/81/81 77/77/77
f 82/82/82 77/77/77 81/81/81
f 77/77/77 82/82/82 79/79/79
f 81/81/81 76/76/76 83/83/83
f 78/78/78 83/83/83 76/76/76
f 79/79/79 84/84/84 80/80/80
f 84/84/84 79/79/79 82/82/82
f 85/85/85 80/80/80 84/84/84
f 81/81/81 4/4/4 82/82/82
f 2/2/2 82/82/82 4/4/4
f 82/82/82 2/2/2 84/84/84
f 4/4/4 81/81/81 6/6/6
f 83/83/83 6/6/6 81/81/81
f 84/84/84 7/7/7 85/85/85
f 7/7/7 84/84/84 2/2/2
f 9/9/9 85/85/85 7/7/7
f 88/88/88 87/87/87 86/86/86
f 89/89/89 86/86/86 87/87/87
f 86/86/86 89/89/89 90/90/90
f 91/91/91 90/90/90 89/89/89
f 87/87/87 88/88/88 92/92/92
f 93/93/93 92/92/92 88/88/88
f 92/92/92 93/93/93 94/94/94
f 95/95/95 94/94/94 93/93/93
f 86/86/86 96/96/96 88/88/88
f 97/97/97 88/88/88 96/96/96
f 88/88/88 97/97/97 93/93/93
f 96/96/96 86/86/86 98/98/98
f 90/90/90 98/98/98 86/86/86
f 93/93/93 99/99/99 95/95/95
f 99/99/99 93/93/93 97/97/97
f 100/100/100 95/95/95 99/99/99
f 96/96/96 101/101/101 97/97/97
f 102/102/102 97/97/97 101/101/101
f 97/97/97 102/102/102 99/99/99
f 101/101/101 96/96/96 103/103/103
f 98/98/98 103/103/103 96/96/96
f 99/99/99 104/104/104 100/100/100
f 104/104/104 99/99/99 102/102/102
f 105/105/105 100/100/100 104/104/104
f 101/101/101 106/106/106 102/102/102
f 107/107/107 102/102/102 106/106/106
f 102/102/102 107/107/107 104/104/104
f 106/106/106 101/101/101 108/108/108
f 103/103/103 108/108/108 101/101/101
f 104/104/104 109/109/109 105/105/105
f 109/109/109 104/104/104 107/107/107
f 110/110/110 105/105/105 109/109/109
f 113/113/113 112/112/112 111/111/111
f 114/114/114 111/111/111 112/112/112
f 111/111/111 114/114/114 115/115/115
f 116/116/116 115/115/115 114/114/114
f 112/112/112 113/113/113 117/117/117
f 118/118/118 117/117/117 113/113/113
f 117/117/117 118/118/118 119/119/119
f 120/120/120 119/119/119 118/118/118
f 111/111/111 121/121/121 113/113/113
f 122/122/122 113/113/113 121/121/121
f 113/113/113 122/122/122 118/118/118
f 121/121/121 111/111/111 123/123/123
f 115/115/115 123/123/123 111/111/111
f 118/118/118 124/124/124 120/120/120
f 124/124/124 118/118/118 122/122/122
f 125/125/125 120/120/120 124/124/124
f 121/121/121 126/126/126 122/122/122
f 127/127/127 122/122/122 126/126/126
f 122/122/122 127/127/127 124/124/124
f 126/126/126 121/121/121 128/128/128
f 123/123/123 128/128/128 121/121/121
f 124/124/124 129/129/129 125/125/125
f 129/129/129 124/124/124 127/127/127
f 130/130/130 125/125/125 129/129/129
f 126/126/126 131/131/131 127/127/127
f 132/132/132 127/127/127 131/131/131
f 127/127/127 132/132/132 129/129/129
f 131/131/131 126/126/126 133/133/133
f 128/128/128 133/133/133 126/126/126
f 129/129/129 134/134/134 130/130/130
f 134/134/134 129/129/129 132/132/132
f 135/135/135 130/130/130 134/134/134
f 131/131/131 136/136/136 132/132/132
f 137/137/137 132/132/132 136/136/136
f 132/132/132 137/137/137 134/134/134
f 136/136/136 131/131/131 138/138/138
f 133/133/133 138/138/138 131/131/131
f 134/134/134 139/139/139 135/135/135
f 139/139/139 134/134/134 137/137/137
f 140/140/140 135/135/135 139/139/139
f 136/136/136 141/141/141 137/137/137
f 142/142/142 137/137/137 141/141/141
f 137/137/137 142/142/142 139/139/139
f 141/141/141 136/136/136 143/143/143
f 138/138/138 143/143/143 136/136/136
f 139/139/139 144/144/144 140/140/140
f 144/144/144 139/139/139 142/142/142
f 145/145/145 140/140/140 144/144/144
f 141/141/141 146/146/146 142/142/142
f 147/147/147 142/142/142 146/146/146
f 142/142/142 147/147/147 144/144/144
f 146/146/146 141/141/141 148/148/148
f 143/143/143 148/148/148 141/141/141
f 144/144/144 149/149/149 145/145/145
f 149/149/149 144/144/144 147/147/147
f 150/150/150 145/145/145 149/149/149
f 146/146/146 151/151/151 147/147/147
f 152/152/152 147/147/147 151/151/151
f 147/147/147 152/152/152 149/149/149
f 151/151/151 146/146/146 153/153/153
f 148/148/148 153/153/153 146/146/146
f 149/149/149 154/154/154 150/150/150
f 154/154/154 149/149/149 152/152/152
f 155/155/155 150/150/150 154/154/154
f 151/151/151 156/156/156 152/152/152
f 157/157/157 152/152/152 156/156/156
f 152/152/152 157/157/157 154/154/154
f 156/156/156 151/151/151 158/158/158
f 153/153/153 158/158/158 151/151/151
f 154/154/154 159/159/159 155/155/155
f 159/159/159 154/154/154 157/157/157
f 160/160/160 155/155/155 159/159/159
f 156/156/156 161/161/161 157/157/157
f 162/162/162 157/157/157 161/161/161
f 157/157/157 162/162/162 159/159/159
f 161/161/161 156/156/156 163/163/163
f 158/158/158 163/163/163 156/156/156
f 159/159/159 164/164/164 160/160/160
f 164/164/164 159/159/159 162/162/162
f 165/165/165 160/160/160 164/164/164
f 161/161/161 166/166/166 162/162/162
f 167/167/167 162/162/162 166/166/166
f 162/162/162 167/167/167 164/164/164
f 166/166/166 161/161/161 168/168/168
f 163/163/163 168/168/168 161/161/161
f 164/164/164 169/169/169 165/165/165
f 169/169/169 164/164/164 167/167/167
f 170/170/170 165/165/165 169/169/169
f 166/166/166 89/89/89 167/167/167
f 87/87/87 167/167/167 89/89/89
f 167/167/167 87/87/87 169/169/169
f 89/89/89 166/166/166 91/91/91
f 168/168/168 91/91/91 166/166/166
f 169/169/169 92/92/92 170/170/170
f 92/92/92 169/169/169 87/87/87
f 94/94/94 170/170/170 92/92/92
f 173/173/173 172/172/172 171/171/171
f 174/174/174 171/171/171 172/172/172
f 171/171/171 174/174/174 175/175/175
f 176/176/176 175/175/175 174/174/174
f 172/172/172 173/173/173 177/177/177
f 178/178/178 177/177/177 173/173/173
f 177/177/177 178/178/178 179/179/179
f 180/180/180 179/179/179 178/178/178
f 171/171/171 181/181/181 173/173/173
f 182/182/182 173/173/173 181/181/181
f 173/173/173 182/182/182 178/178/178
f 181/181/181 171/171/171 183/183/183
f 175/175/175 183/183/183 171/171/171
f 178/178/178 184/184/184 180/180/180
f 184/184/184 178/178/178 182/182/182
f 185/185/185 180/180/180 184/184/184
f 181/181/181 186/186/186 182/182/182
f 187/187/187 182/182/182 186/186/186
f 182/182/182 187/187/187 184/184/184
f 186/186/186 181/181/181 188/188/188
f 183/183/183 188/188/188 181/181/181
f 184/184/184 189/189/189 185/185/185
f 189/189/189 184/184/184 187/187/187
f 190/190/190 185/185/185 189/189/189
f 186/186/186 191/191/191 187/187/187
f 192/192/192 187/187/187 191/191/191
f 187/187/187 192/192/192 189/189/189
f 191/191/191 186/186/186 193/193/193
f 188/188/188 193/193/193 186/186/186
f 189/189/189 194/194/194 190/190/190
f 194/194/194 189/189/189 192/192/192
f 195/195/195 190/190/190 194/194/194
f 198/198/198 197/197/197 196/196/196
f 199/199/199 196/196/196 197/197/197
f 196/196/196 199/199/199 200/200/200
f 201/201/201 200/200/200 199/199/199
f 197/197/197 198/198/198 202/202/202
f 203/203/203 202/202/202 198/198/198
f 202/202/202 203/203/203 204/204/204
f 205/205/205 204/204/204 203/203/203
f 196/196/196 206/206/206 198/198/198
f 207/207/207 198/198/198 206/206/206
f 198/198/198 207/207/207 203/203/203
f 206/206/206 196/196/196 208/208/208
f 200/200/200 208/208/208 196/196/196
f 203/203/203 209/209/209 205/205/205
f 209/209/209 203/203/203 207/207/207
f 210/210/210 205/205/205 209/209/209
f 206/206/206 211/211/211 207/207/207
f 212/212/212 207/207/207 211/211/211
f 207/207/207 212/212/212 209/209/209
f 211/211/211 206/206/206 213/213/213
f 208/208/208 213/213/213 206/206/206
f 209/209/209 214/214/214 210/210/210
f 214/214/214 209/209/209 212/212/212
f 215/215/215 210/210/210 214/214/214
f 211/211/211 216/216/216 212/212/212
f 217/217/217 212/212/212 216/216/216
f 212/212/212 217/217/217 214/214/214
f 216/216/216 211/211/211 218/218/218
f 213/213/213 218/218/218 211/211/211
f 214/214/214 219/219/219 215/215/215
f 219/219/219 214/214/214 217/217/217
f 220/220/220 215/215/215 219/219/219
f 216/216/216 221/221/221 217/217/217
f 222/222/222 217/217/217 221/221/221
f 217/217/217 222/222/222 219/219/219
f 221/221/221 216/216/216 223/223/223
f 218/218/218 223/223/223 216/216/216
f 219/219/219 224/224/224 220/220/220
f 224/224/224 219/219/219 222/222/222
f 225/225/225 220/220/220 224/224/224
f 221/221/221 226/226/226 222/222/222
f 227/227/227 222/222/222 226/226/226
f 222/222/222 227/227/227 224/224/224
f 226/226/226 221/221/221 228/228/228
f 223/223/223 228/228/228 221/221/221
f 224/224/224 229/229/229 225/225/225
f 229/229/229 224/224/224 227/227/227
f 230/230/230 225/225/225 229/229/229
f 226/226/226 231/231/231 227/227/227
f 232/232/232 227/227/227 231/231/231
f 227/227/227 232/232/232 229/229/229
f 231/231/231 226/226/226 233/233/233
f 228/228/228 233/233/233 226/226/226
f 229/229/229 234/234/234 230/230/230
f 234/234/234 229/229/229 232/232/232
f 235/235/235 230/230/230 234/234/234
f 231/231/231 236/236/236 232/232/232
f 237/237/237 232/232/232 236/236/236
f 232/232/232 237/237/237 234/234/234
f 236/236/236 231/231/231 238/238/238
f 233/233/233 238/238/238 231/231/231
f 234/234/234 239/239/239 235/235/235
f 239/239/239 234/234/234 237/237/237
f 240/240/240 235/235/235 239/239/239
f 236/236/236 241/241/241 237/237/237
f 242/242/242 237/237/237 241/241/241
f 237/237/237 242/242/242 239/239/239
f 241/241/241 236/236/236 243/243/243
f 238/238/238 243/243/243 236/236/236
f 239/239/239 244/244/244 240/240/240
f 244/244/244 239/239/239 242/242/242
f 245/245/245 240/240/240 244/244/244
f 241/241/241 246/246/246 242/242/242
f 247/247/247 242/242/242 246/246/246
f 242/242/242 247/247/247 244/244/244
f 246/246/246 241/241/241 248/248/248
f 243/243/243 248/248/248 241/241/241
f 244/244/244 249/249/249 245/245/245
f 249/249/249 244/244/244 247/247/247
f 250/250/250 245/245/245 249/249/249
f 246/246/246 251/251/251 247/247/247
f 252/252/252 247/247/247 251/251/251
f 247/247/247 252/252/252 249/249/249
f 251/251/251 246/246/246 253/253/253
f 248/248/248 253/253/253 246/246/246
f 249/249/249 254/254/254 250/250/250
f 254/254/254 249/249/249 252/252/252
f 255/255/255 250/250/250 254/254/254
f 251/251/251 174/174/174 252/252/252
f 172/172/172 252/252/252 174/174/174
f 252/252/252 172/172/172 254/254/254
f 174/174/174 251/251/251 176/176/176
f 253/253/253 176/176/176 251/251/251
f 254/254/254 177/177/177 255/255/255
f 177/177/177 254/254/254 172/172/172
f 179/179/179 255/255/255 177/177/177
f 258/258/258 257/257/257 256/256/256
f 259/259/259 256/256/256 257/257/257
f 256/256/256 259/259/259 260/260/260
f 261/261/261 260/260/260 259/259/259
f 257/257/257 258/258/258 262/262/262
f 263/263/263 262/262/262 258/258/258
f 262/262/262 263/263/263 264/264/264
f 265/265/265 264/264/264 263/263/263
f 256/256/256 266/266/266 258/258/258
f 267/267/267 258/258/258 266/266/266
f 258/258/258 267/267/267 263/263/263
f 266/266/266 256/256/256 268/268/268
f 260/260/260 268/268/268 256/256/256
f 263/263/263 269/269/269 265/265/265
f 269/269/269 263/263/263 267/267/267
f 270/270/270 265/265/265 269/269/269
f 266/266/266 271/271/271 267/267/267
f 272/272/272 267/267/267 271/271/271
f 267/267/267 272/272/272 269/269/269
f 271/271/271 266/266/266 273/273/273
f 268/268/268 273/273/273 266/266/266
f 269/269/269 274/274/274 270/270/270
f 274/274/274 269/269/269 272/272/272
f 275/275/275 270/270/270 274/274/274
f 271/271/271 276/276/276 272/272/272
f 277/277/277 272/272/272 276/276/276
f 272/272/272 277/277/277 274/274/274
f 276/276/276 271/271/271 278/278/278
f 273/273/273 278/278/278 271/271/271
f 274/274/274 279/279/279 275/275/275
f 279/279/279 274/274/274 277/277/277
f 280/280/280 275/275/275 279/279/279
f 283/283/283 282/282/282 281/281/281
f 284/284/284 281/281/281 282/282/282
f 281/281/281 284/284/284 285/285/285
f 286/286/286 285/285/285 284/284/284
f 282/282/282 283/283/283 287/287/287
f 288/288/288 287/287/287 283/283/283
f 287/287/287 288/288/288 289/289/289
f 290/290/290 289/289/289 288/288/288
f 281/281/281 291/291/291 283/283/283
f 292/292/292 283/283/283 291/291/291
f 283/283/283 292/292/292 288/288/288
f 291/291/291 281/281/281 293/293/293
f 285/285/285 293/293/293 281/281/281
f 288/288/288 294/294/294 290/290/290
f 294/294/294 288/288/288 292/292/292
f 295/295/295 290/290/290 294/294/294
f 291/291/291 296/296/296 292/292/292
f 297/297/297 292/292/292 296/296/296
f 292/292/292 297/297/297 294/294/294
f 296/296/296 291/291/291 298/298/298
f 293/293/293 298/298/298 291/291/291
f 294/294/294 299/299/299 295/295/295
f 299/299/299 294/294/294 297/297/297
f 300/300/300 295/295/295 299/299/299
f 296/296/296 301/301/301 297/297/297
f 302/302/302 297/297/297 301/301/301
f 297/297/297 302/302/302 299/299/299
f 301/301/301 296/296/296 303/303/303
f 298/298/298 303/303/303 296/296/296
f 299/299/299 304/304/304 300/300/300
f 304/304/304 299/299/299 302/302/302
f 305/305/305 300/300/300 304/304/304
f 301/301/301 306/306/306 302/302/302
f 307/307/307 302/302/302 306/306/306
f 302/302/302 307/307/307 304/304/304
f 306/306/306 301/301/301 308/308/308
f 303/303/303 308/308/308 301/301/301
f 304/304/304 309/309/309 305/305/305
f 309/309/309 304/304/304 307/307/307
f 310/310/310 305/305/305 309/309/309
f 306/306/306 311/311/311 307/307/307
f 312/312/312 307/307/307 311/311/311
f 307/307/307 312/312/312 309/309/309
f 311/311/311 306/306/306 313/313/313
f 308/308/308 313/313/313 306/306/306
f 309/309/309 314/314/314 310/310/310
f 314/314/314 309/309/309 312/312/312
f 315/315/315 310/310/310 314/314/314
f 311/311/311 316/316/316 312/312/312
f 317/317/317 312/312/312 316/316/316
f 312/312/312 317/317/317 314/314/314
f 316/316/316 311/311/311 318/318/318
f 313/313/313 318/318/318 311/311/311
f 314/314/314 319/319/319 315/315/315
f 319/319/319 314/314/314 317/317/317
f 320/320/320 315/315/315 319/319/319
f 316/316/316 321/321/321 317/317/317
f 322/322/322 317/317/317 321/321/321
f 317/317/317 322/322/322 319/319/319
f 321/321/321 316/316/316 323/323/323
f 318/318/318 323/323/323 316/316/316
f 319/319/319 324/324/324 320/320/320
f 324/324/324 319/319/319 322/322/322
f 325/325/325 320/320/320 324/324/324
f 321/321/321 326/326/326 322/322/322
f 327/327/327 322/322/322 326/326/326
f 322/322/322 327/327/327 324/324/324
f 326/326/326 321/321/321 328/328/328
f 323/323/323 328/328/328 321/321/321
f 324/324/324 329/329/329 325/325/325
f 329/329/329 324/324/324 327/327/327
f 330/330/330 325/325/325 329/329/329
f 326/326/326 331/331/331 327/327/327
f 332/332/332 327/327/327 331/331/331
f 327/327/327 332/332/332 329/329/329
f 331/331/331 326/326/326 333/333/333
f 328/328/328 333/333/333 326/326/326
f 329/329/329 334/334/334 330/330/330
f 334/334/334 329/329/329 332/332/332
f 335/335/335 330/330/330 334/334/334
f 331/331/331 336/336/336 332/332/332
f 337/337/337 332/332/332 336/336/336
f 332/332/332 337/337/337 334/334/334
f 336/336/336 331/331/331 338/338/338
f 333/333/333 338/338/338 331/331/331
f 334/334/334 339/339/339 335/335/335
f 339/339/339 334/334/334 337/337/337
f 340/340/340 335/335/335 339/339/339
f 336/336/336 259/259/259 337/337/337
f 257/257/257 337/337/337 259/259/259
f 337/337/337 257/257/257 339/339/339
f 259/259/259 336/336/336 261/261/261
f 338/338/338 261/261/261 336/336/336
f 339/339/339 262/262/262 340/340/340
f 262/262/262 339/339/339 257/257/257
f 264/264/264 340/340/340 262/262/262
f 343/343/343 342/342/342 341/341/341
f 344/344/344 341/341/341 342/342/342
f 342/342/342 343/343/343 345/345/345
f 346/346/346 345/345/345 343/343/343
f 345/345/345 346/346/346 347/347/347
f 348/348/348 347/347/347 346/346/346
f 341/341/341 349/349/349 343/343/343
f 350/350/350 343/343/343 349/349/349
f 343/343/343 350/350/350 346/346/346
f 346/346/346 351/351/351 348/348/348
f 351/351/351 346/346/346 350/350/350
f 352/352/352 348/348/348 351/351/351
f 349/349/349 353/353/353 350/350/350
f 354/354/354 350/350/350 353/353/353
f 350/350/350 354/354/354 351/351/351
f 351/351/351 355/355/355 352/352/352
f 355/355/355 351/351/351 354/354/354
f 356/356/356 352/352/352 355/355/355
f 353/353/353 357/357/357 354/354/354
f 358/358/358 354/354/354 357/357/357
f 354/354/354 358/358/358 355/355/355
f 355/355/355 359/359/359 356/356/356
f 359/359/359 355/355/355 358/358/358
f 360/360/360 356/356/356 359/359/359
f 347/347/347 361/361/361 345/345/345
f 361/361/361 363/363/363 362/362/362
f 364/364/364 362/362/362 363/363/363
f 363/363/363 365/365/365 364/364/364
f 366/366/366 364/364/364 365/365/365
f 365/365/365 367/367/367 366/366/366
f 368/368/368 366/366/366 367/367/367
f 367/367/367 369/369/369 368/368/368
f 370/370/370 368/368/368 369/369/369
f 369/369/369 371/371/371 370/370/370
f 372/372/372 370/370/370 371/371/371
f 371/371/371 373/373/373 372/372/372
f 374/374/374 372/372/372 373/373/373
f 373/373/373 375/375/375 374/374/374
f 376/376/376 374/374/374 375/375/375
f 375/375/375 377/377/377 376/376/376
f 378/378/378 376/376/376 377/377/377
f 377/377/377 379/379/379 378/378/378
f 380/380/380 378/378/378 379/379/379
f 379/379/379 381/381/381 380/380/380
f 382/382/382 380/380/380 381/381/381
f 381/381/381 383/383/383 382/382/382
f 384/384/384 382/382/382 383/383/383
f 382/382/382 384/384/384 385/385/385
f 386/386/386 385/385/385 384/384/384
f 385/385/385 386/386/386 387/387/387
f 388/388/388 387/387/387 386/386/386
f 387/387/387 389/389/389 385/385/385
f 390/390/390 385/385/385 389/389/389
f 380/380/380 382/382/382 390/390/390
f 385/385/385 390/390/390 382/382/382
f 389/389/389 391/391/391 390/390/390
f 392/392/392 390/390/390 391/391/391
f 378/378/378 380/380/380 392/392/392
f 390/390/390 392/392/392 380/380/380
f 391/391/391 393/393/393 392/392/392
f 394/394/394 392/392/392 393/393/393
f 392/392/392 394/394/394 378/378/378
f 376/376/376 378/378/378 394/394/394
f 393/393/393 395/395/395 394/394/394
f 396/396/396 394/394/394 395/395/395
f 394/394/394 396/396/396 376/376/376
f 374/374/374 376/376/376 396/396/396
f 395/395/395 397/397/397 396/396/396
f 398/398/398 396/396/396 397/397/397
f 396/396/396 398/398/398 374/374/374
f 372/372/372 374/374/374 398/398/398
f 397/397/397 399/399/399 398/398/398
f 400/400/400 398/398/398 399/399/399
f 398/398/398 400/400/400 372/372/372
f 370/370/370 372/372/372 400/400/400
f 399/399/399 401/401/401 400/400/400
f 402/402/402 400/400/400 401/401/401
f 400/400/400 402/402/402 370/370/370
f 368/368/368 370/370/370 402/402/402
f 401/401/401 403/403/403 402/402/402
f 404/404/404 402/402/402 403/403/403
f 402/402/402 404/404/404 368/368/368
f 366/366/366 368/368/368 404/404/404
f 403/403/403 405/405/405 404/404/404
f 406/406/406 404/404/404 405/405/405
f 404/404/404 406/406/406 366/366/366
f 364/364/364 366/366/366 406/406/406
f 405/405/405 407/407/407 406/406/406
f 408/408/408 406/406/406 407/407/407
f 406/406/406 408/408/408 364/364/364
f 362/362/362 364/364/364 408/408/408
f 407/407/407 344/344/344 408/408/408
f 342/342/342 408/408/408 344/344/344
f 408/408/408 342/342/342 362/362/362
f 345/345/345 362/362/362 342/342/342
f 362/362/362 345/345/345 361/361/361
f 411/411/411 410/410/410 409/409/409
f 412/412/412 409/409/409 410/410/410
f 409/409/409 412/412/412 413/413/413
f 414/414/414 413/413/413 412/412/412
f 410/410/410 411/411/411 415/415/415
f 416/416/416 415/415/415 411/411/411
f 415/415/415 416/416/416 417/417/417
f 418/418/418 417/417/417 416/416/416
f 409/409/409 419/419/419 411/411/411
f 420/420/420 411/411/411 419/419/419
f 411/411/411 420/420/420 416/416/416
f 419/419/419 409/409/409 421/421/421
f 413/413/413 421/421/421 409/409/409
f 416/416/416 422/422/422 418/418/418
f 422/422/422 416/416/416 420/420/420
f 423/423/423 418/418/418 422/422/422
f 419/419/419 424/424/424 420/420/420
f 425/425/425 420/420/420 424/424/424
f 420/420/420 425/425/425 422/422/422
f 424/424/424 419/419/419 426/426/426
f 421/421/421 426/426/426 419/419/419
f 422/422/422 427/427/427 423/423/423
f 427/427/427 422/422/422 425/425/425
f 428/428/428 423/423/423 427/427/427
f 424/424/424 429/429/429 425/425/425
f 430/430/430 425/425/425 429/429/429
f 425/425/425 430/430/430 427/427/427
f 429/429/429 424/424/424 431/431/431
f 426/426/426 431/431/431 424/424/424
f 427/427/427 432/432/432 428/428/428
f 432/432/432 427/427/427 430/430/430
f 433/433/433 428/428/428 432/432/432
f 436/436/436 435/435/435 434/434/434
f 437/437/437 434/434/434 435/435/435
f 434/434/434 437/437/437 438/438/438
f 439/439/439 438/438/438 437/437/437
f 435/435/435 436/436/436 440/440/440
f 441/441/441 440/440/440 436/436/436
f 440/440/440 441/441/441 442/442/442
f 443/443/443 442/442/442 441/441/441
f 434/434/434 444/444/444 436/436/436
f 445/445/445 436/436/436 444/444/444
f 436/436/436 445/445/445 441/441/441
f 444/444/444 434/434/434 446/446/446
f 438/438/438 446/446/446 434/434/434
f 441/441/441 447/447/447 443/443/443
f 447/447/447 441/441/441 445/445/445
f 448/448/448 443/443/443 447/447/447
f 444/444/444 449/449/449 445/445/445
f 450/450/450 445/445/445 449/449/449
f 445/445/445 450/450/450 447/447/447
f 449/449/449 444/444/444 451/451/451
f 446/446/446 451/451/451 444/444/444
f 447/447/447 452/452/452 448/448/448
f 452/452/452 447/447/447 450/450/450
f 453/453/453 448/448/448 452/452/452
f 449/449/449 454/454/454 450/450/450
f 455/455/455 450/450/450 454/454/454
f 450/450/450 455/455/455 452/452/452
f 454/454/454 449/449/449 456/456/456
f 451/451/451 456/456/456 449/449/449
f 452/452/452 457/457/457 453/453/453
f 457/457/457 452/452/452 455/455/455
f 458/458/458 453/453/453 457/457/457
f 454/454/454 459/459/459 455/455/455
f 460/460/460 455/455/455 459/459/459
f 455/455/455 460/460/460 457/457/457
f 459/459/459 454/454/454 461/461/461
f 456/456/456 461/461/461 454/454/454
f 457/457/457 462/462/462 458/458/458
f 462/462/462 457/457/457 460/460/460
f 463/463/463 458/458/458 462/462/462
f 459/459/459 464/464/464 460/460/460
f 465/465/465 460/460/460 464/464/464
f 460/460/460 465/465/465 462/462/462
f 464/464/464 459/459/459 466/466/466
f 461/461/461 466/466/466 459/459/459
f 462/462/462 467/467/467 463/463/463
f 467/467/467 462/462/462 465/465/465
f 468/468/468 463/463/463 467/467/467
f 464/464/464 469/469/469 465/465/465
f 470/470/470 465/465/465 469/469/469
f 465/465/465 470/470/470 467/467/467
f 469/469/469 464/464/464 471/471/471
f 466/466/466 471/471/471 464/464/464
f 467/467/467 472/472/472 468/468/468
f 472/472/472 467/467/467 470/470/470
f 473/473/473 468/468/468 472/472/472
f 469/469/469 474/474/474 470/470/470
f 475/475/475 470/470/470 474/474/474
f 470/470/470 475/475/475 472/472/472
f 474/474/474 469/469/469 476/476/476
f 471/471/471 476/476/476 469/469/469
f 472/472/472 477/477/477 473/473/473
f 477/477/477 472/472/472 475/475/475
f 478/478/478 473/473/473 477/477/477
f 474/474/474 479/479/479 475/475/475
f 480/480/480 475/475/475 479/479/479
f 475/475/475 480/480/480 477/477/477
f 479/479/479 474/474/474 481/481/481
f 476/476/476 481/481/481 474/474/474
f 477/477/477 482/482/482 478/478/478
f 482/482/482 477/477/477 480/480/480
f 483/483/483 478/478/478 482/482/482
f 479/479/479 484/484/484 480/480/480
f 485/485/485 480/480/480 484/484/484
f 480/480/480 485/485/485 482/482/482
f 484/484/484 479/479/479 486/486/486
f 481/481/481 486/486/486 479/479/479
f 482/482/482 487/487/487 483/483/483
f 487/487/487 482/482/482 485/485/485
f 488/488/488 483/483/483 487/487/487
f 484/484/484 489/489/489 485/485/485
f 490/490/490 485/485/485 489/489/489
f 485/485/485 490/490/490 487/487/487
f 489/489/489 484/484/484 491/491/491
f 486/486/486 491/491/491 484/484/484
f 487/487/487 492/492/492 488/488/488
f 492/492/492 487/487/487 490/490/490
f 493/493/493 488/488/488 492/492/492
f 489/489/489 412/412/412 490/490/490
f 410/410/410 490/490/490 412/412/412
f 490/490/490 410/410/410 492/492/492
f 412/412/412 489/489/489 414/414/414
f 491/491/491 414/414/414 489/489/489
f 492/492/492 415/415/415 493/493/493
f 415/415/415 492/492/492 410/410/410
f 417/417/417 493/493/493 415/415/415
