g cheli
v -0.6949217 0.6403522 -1.060509
v 0.7520553 0.6403522 -1.060509
v 0.7520553 0.4753208 0.3553727
v -0.6949217 0.4753208 0.3553727
v 0.8724867 0.2521079 0.3919425
v 0.7520553 0.4753208 0.3553727
v 0.7520553 0.3063116 -0.8952576
v 0.7520553 0.6403522 -1.060509
v -0.6949217 0.4753208 0.3553727
v -0.5843916 0.2835469 -0.8952576
v -0.6949217 0.6403522 -1.060509
v -0.8189623 0.2521079 0.3919425
v -0.5241992 0.9700925 -0.3196727
v -0.5581262 0.5056386 -0.2251195
v -0.1303349 0.9704211 -0.3196727
v -0.08710742 0.5056386 -0.2251195
v -0.1303349 0.9873829 -0.236065
v -0.1303349 0.9704211 -0.3196727
v -0.08710742 0.5227122 -0.1415118
v -0.08710742 0.5056386 -0.2251195
v -0.5241992 0.9700925 -0.3196727
v -0.1303349 0.9704211 -0.3196727
v -0.1303349 0.9873829 -0.236065
v -0.5241992 0.9871628 -0.236065
v -0.5581262 0.5227122 -0.1415087
v -0.5241992 0.9700925 -0.3196727
v -0.5241992 0.9871628 -0.236065
v -0.5581262 0.5056386 -0.2251195
v -0.1303349 0.9873829 -0.236065
v -0.5581262 0.5227122 -0.1415087
v -0.5241992 0.9871628 -0.236065
v -0.08710742 0.5227122 -0.1415118
v -0.2188716 1.215782 -0.3750508
v -0.418812 1.215782 -0.3750477
v -0.2071609 1.05775 -0.3429826
v -0.4327099 1.05775 -0.3429826
v -0.2071609 1.072961 -0.2685668
v -0.2188716 1.230882 -0.3007404
v -0.2188716 1.215782 -0.3750508
v -0.2071609 1.05775 -0.3429826
v -0.2071609 1.072961 -0.2685668
v -0.4327099 1.05775 -0.3429826
v -0.4327099 1.072961 -0.2685668
v -0.2071609 1.05775 -0.3429826
v -0.418812 1.215782 -0.3750477
v -0.2188716 1.215782 -0.3750508
v -0.2188716 1.230882 -0.3007404
v -0.418812 1.230882 -0.3007404
v -0.418812 1.215782 -0.3750477
v -0.4327099 1.072961 -0.2685668
v -0.4327099 1.05775 -0.3429826
v -0.2188716 1.230882 -0.3007404
v -0.2071609 1.072961 -0.2685668
v -0.418812 1.230882 -0.3007404
v -0.4327099 1.072961 -0.2685668
v 0.2680154 0.9651666 -0.3196727
v 0.2190968 0.5004959 -0.2251195
v 0.6894587 0.5004959 -0.2251195
v 0.644261 0.9651666 -0.3196727
v 0.644261 0.9822402 -0.236065
v 0.644261 0.9651666 -0.3196727
v 0.6894587 0.5174608 -0.1415118
v 0.6894587 0.5004959 -0.2251195
v 0.2680154 0.9651666 -0.3196727
v 0.644261 0.9651666 -0.3196727
v 0.644261 0.9822402 -0.236065
v 0.2680154 0.9822402 -0.236065
v 0.2190968 0.5174608 -0.1415118
v 0.2680154 0.9651666 -0.3196727
v 0.2680154 0.9822402 -0.236065
v 0.2190968 0.5004959 -0.2251195
v 0.2680154 0.9822402 -0.236065
v 0.644261 0.9822402 -0.236065
v 0.6894587 0.5174608 -0.1415118
v 0.2190968 0.5174608 -0.1415118
v 0.3578626 1.210528 -0.3743939
v 0.341449 1.052607 -0.3422173
v 0.5715926 1.052607 -0.332697
v 0.5575862 1.210528 -0.3648704
v 0.5715926 1.06771 -0.2583897
v 0.5575862 1.225739 -0.2904547
v 0.5575862 1.210528 -0.3648704
v 0.5715926 1.052607 -0.332697
v 0.341449 1.052607 -0.3422173
v 0.341449 1.06771 -0.2678016
v 0.5715926 1.052607 -0.332697
v 0.5715926 1.06771 -0.2583897
v 0.5575862 1.210528 -0.3648704
v 0.3578626 1.225739 -0.2999752
v 0.3578626 1.210528 -0.3743939
v 0.5575862 1.225739 -0.2904547
v 0.3578626 1.210528 -0.3743939
v 0.341449 1.06771 -0.2678016
v 0.341449 1.052607 -0.3422173
v 0.3578626 1.225739 -0.2999752
v 0.3578626 1.225739 -0.2999752
v 0.5575862 1.225739 -0.2904547
v 0.5715926 1.06771 -0.2583897
v 0.341449 1.06771 -0.2678016
v 0.7136424 0.5727894 -1.077254
v 0.6850812 1.096447 -1.115335
v 0.6850812 1.079486 -1.199058
v 0.7136424 0.5897543 -0.9936432
v -0.6648269 1.079157 -1.199058
v 0.6850812 1.079486 -1.199058
v 0.6850812 1.096447 -1.115335
v -0.6648269 1.096228 -1.115335
v -0.68748 0.5727894 -1.077254
v -0.6648269 1.079157 -1.199058
v -0.6648269 1.096228 -1.115335
v -0.68748 0.5897543 -0.9936432
v 0.6850812 1.096447 -1.115335
v -0.68748 0.5897543 -0.9936432
v -0.6648269 1.096228 -1.115335
v 0.7136424 0.5897543 -0.9936432
v 0.5006777 1.042386 1.211875
v 0.1566459 0.9296658 0.8272808
v 0.8556828 1.011582 0.9328041
v 0.7835752 1.016997 1.166678
v -0.0002560616 1.081344 1.205199
v -0.5115466 1.042386 1.211875
v -0.3545115 0.9296658 0.8272808
v -0.872906 1.011306 0.885859
v -0.794441 1.016997 1.166678
v 0.1566459 0.9296658 0.8272808
v 0.1566459 0.6489587 0.8272808
v -0.3545115 0.6489587 0.8272808
v -0.3545115 0.9296658 0.8272808
v 0.9564414 0.6421614 0.9822371
v 0.8556828 1.011582 0.9328041
v 0.1566459 0.6489587 0.8272808
v 0.1566459 0.9296658 0.8272808
v -0.3545115 0.6489587 0.8272808
v -0.3545115 0.9296658 0.8272808
v -0.872906 1.011306 0.885859
v -0.9692128 0.6266339 0.8727262
v 0.8724867 0.2521079 0.3919425
v -0.8189623 0.2521079 0.3919425
v -0.6949217 0.4753208 0.3553727
v 0.7520553 0.4753208 0.3553727
v -0.846055 1.045363 -1.168523
v 0.7874044 1.045363 -1.168523
v -0.5656235 1.182636 -2.01768
v 0.7229272 1.182636 -1.960818
v 0.1566459 0.6489587 0.8272808
v 0.5187364 0.2104914 1.065228
v 0.9564414 0.6421614 0.9822371
v 0.1566459 0.6489587 0.8272808
v -0.3545115 0.6489587 0.8272808
v -0.518728 0.2104914 1.065228
v 0.5187364 0.2104914 1.065228
v -0.9692128 0.6266339 0.8727262
v -0.518728 0.2104914 1.065228
v -0.3545115 0.6489587 0.8272808
v -0.9692128 0.6266339 0.8727262
v -0.872906 1.011306 0.885859
v -0.872906 1.134805 -0.9111724
v -0.9563 0.2957473 -0.9243052
v -0.9692128 0.6266339 0.8727262
v -0.9563 0.2957473 -0.9243052
v -0.8447104 0.2156806 1.047922
v -0.8447104 0.2156806 1.047922
v -0.518728 0.2104914 1.065228
v -0.9692128 0.6266339 0.8727262
v -0.8189623 0.2521079 0.3919425
v 0.8724867 0.2521079 0.3919425
v 0.8724867 0.2394583 1.068769
v -0.8189623 0.2394583 1.068769
vt 0.2990569 0.1353972
vt 0.2990569 0.02427531
vt 0.2390305 0.02427531
vt 0.2390305 0.1353972
vt 0.2990569 0.02427531
vt 0.2990569 0.1353972
vt 0.2390305 0.02427531
vt 0.2390305 0.1353972
vt 0.2990569 0.1353972
vt 0.2390305 0.02427531
vt 0.2390305 0.1353972
vt 0.2990569 0.02427531
vt 0.2649179 0.1353972
vt 0.2649179 0.02427531
vt 0.2390305 0.1353972
vt 0.2390305 0.02427531
vt 0.2516345 0.1353972
vt 0.2390305 0.1353972
vt 0.2516345 0.02427531
vt 0.2390305 0.02427531
vt 0.2499657 0.1353972
vt 0.2499657 0.02427531
vt 0.2390305 0.02427531
vt 0.2390305 0.1353972
vt 0.2516345 0.02427531
vt 0.2390305 0.1353972
vt 0.2516345 0.1353972
vt 0.2390305 0.02427531
vt 0.2649179 0.1353972
vt 0.2390305 0.02427531
vt 0.2390305 0.1353972
vt 0.2649179 0.02427531
vt 0.2390305 0.1353972
vt 0.2706874 0.1353972
vt 0.2390305 0.02427531
vt 0.2706874 0.02427531
vt 0.2390305 0.02427531
vt 0.2390305 0.1353972
vt 0.2500077 0.1353972
vt 0.2500077 0.02427531
vt 0.2500077 0.02427531
vt 0.2390305 0.1353972
vt 0.2500077 0.1353972
vt 0.2390305 0.02427531
vt 0.2500077 0.1353972
vt 0.2500077 0.02427531
vt 0.2390305 0.02427531
vt 0.2390305 0.1353972
vt 0.2500077 0.1353972
vt 0.2390305 0.02427531
vt 0.2500077 0.02427531
vt 0.2706874 0.1353972
vt 0.2706874 0.02427531
vt 0.2390305 0.1353972
vt 0.2390305 0.02427531
vt 0.2649179 0.1353972
vt 0.2649179 0.02427531
vt 0.2390305 0.02427531
vt 0.2390305 0.1353972
vt 0.2516345 0.1353972
vt 0.2390305 0.1353972
vt 0.2516345 0.02427531
vt 0.2390305 0.02427531
vt 0.2499657 0.1353972
vt 0.2499657 0.02427531
vt 0.2390305 0.02427531
vt 0.2390305 0.1353972
vt 0.2516345 0.02427531
vt 0.2390305 0.1353972
vt 0.2516345 0.1353972
vt 0.2390305 0.02427531
vt 0.2390305 0.1353972
vt 0.2649179 0.1353972
vt 0.2649179 0.02427531
vt 0.2390305 0.02427531
vt 0.2706874 0.1353972
vt 0.2706874 0.02427531
vt 0.2390305 0.02427531
vt 0.2390305 0.1353972
vt 0.2390305 0.02427531
vt 0.2390305 0.1353972
vt 0.2500077 0.1353972
vt 0.2500077 0.02427531
vt 0.2390305 0.1353972
vt 0.2500077 0.1353972
vt 0.2390305 0.02427531
vt 0.2500077 0.02427531
vt 0.2500077 0.02427531
vt 0.2390305 0.1353972
vt 0.2500077 0.1353972
vt 0.2390305 0.02427531
vt 0.2500077 0.1353972
vt 0.2390305 0.02427531
vt 0.2500077 0.02427531
vt 0.2390305 0.1353972
vt 0.2390305 0.1353972
vt 0.2706874 0.1353972
vt 0.2706874 0.02427531
vt 0.2390305 0.02427531
vt 0.2465694 0.02427531
vt 0.2390305 0.1353972
vt 0.2465694 0.1353972
vt 0.2390305 0.02427531
vt 0.2609513 0.1353301
vt 0.2609513 0.02427531
vt 0.2390305 0.02427531
vt 0.2390305 0.1353972
vt 0.2465694 0.02427531
vt 0.2465694 0.1353972
vt 0.2390305 0.1353972
vt 0.2390305 0.02427531
vt 0.2818071 0.1353972
vt 0.2390305 0.02427531
vt 0.2390305 0.1353972
vt 0.2818071 0.02427531
vt 0.2626452 0.114944
vt 0.2606662 0.07071657
vt 0.2392737 0.07890962
vt 0.2502844 0.1094847
vt 0.2688089 0.114944
vt 0.2749726 0.114944
vt 0.2769516 0.07071657
vt 0.2983441 0.07890962
vt 0.2872915 0.1094847
vt 0.2401458 0.126332
vt 0.2401458 0.08290971
vt 0.282218 0.08290971
vt 0.282218 0.126332
vt 0.2401458 0.08290971
vt 0.2401458 0.126332
vt 0.282218 0.08290971
vt 0.282218 0.126332
vt 0.2401458 0.08290971
vt 0.2401458 0.126332
vt 0.282218 0.126332
vt 0.282218 0.08290971
vt 0.2390305 0.1353972
vt 0.2990569 0.1353972
vt 0.2990569 0.02427531
vt 0.2390305 0.02427531
vt 0.2571776 0.1315816
vt 0.2571776 0.02568415
vt 0.2850441 0.1315816
vt 0.2850441 0.02568415
vt 0.282218 0.08290971
vt 0.2401458 0.08290971
vt 0.2401458 0.08290971
vt 0.2401458 0.08290971
vt 0.282218 0.08290971
vt 0.282218 0.08290971
vt 0.2401458 0.08290971
vt 0.282218 0.08290971
vt 0.2401458 0.08290971
vt 0.2401458 0.08290971
vt 0.282218 0.08290971
vt 0.282218 0.126332
vt 0.282218 0.126332
vt 0.282218 0.08290971
vt 0.282218 0.08290971
vt 0.282218 0.08290971
vt 0.282218 0.08290971
vt 0.282218 0.08290971
vt 0.282218 0.08290971
vt 0.282218 0.08290971
vt 0.2129586 0.0984069
vt 0.2310219 0.0984069
vt 0.2310219 0.02649758
vt 0.2129586 0.02649758
vn 0.003255248 0.9919888 0.126284
vn 0.003255248 0.9919888 0.126284
vn 0.003255248 0.9919888 0.126284
vn 0.003255248 0.9919888 0.126284
vn 0.9813235 0.1923644 0
vn 0.9813235 0.1923644 0
vn 0.9813235 0.1923644 0
vn 0.9813235 0.1923644 0
vn -0.9919888 -0.01109183 -0.1258381
vn -0.9919888 -0.01109183 -0.1258381
vn -0.9919888 -0.01109183 -0.1258381
vn -0.9919888 -0.01109183 -0.1258381
vn -0.553141 0.4669387 -0.6899299
vn -0.7177089 -0.08945751 -0.6905731
vn 0.5596515 0.4669387 -0.6846594
vn 0.7398926 -0.07378435 -0.6686664
vn 0.5596515 0.7020358 0.4403816
vn 0.5596515 0.4669387 -0.6846594
vn 0.7398926 0.2004955 0.642153
vn 0.7398926 -0.07378435 -0.6686664
vn -0.553141 0.4669387 -0.6899299
vn 0.5596515 0.4669387 -0.6846594
vn 0.5596515 0.7020358 0.4403816
vn -0.553141 0.6941992 0.4605676
vn -0.7177089 0.1848223 0.6713677
vn -0.553141 0.4669387 -0.6899299
vn -0.553141 0.6941992 0.4605676
vn -0.7177089 -0.08945751 -0.6905731
vn 0.5596515 0.7020358 0.4403816
vn -0.7177089 0.1848223 0.6713677
vn -0.553141 0.6941992 0.4605676
vn 0.7398926 0.2004955 0.642153
vn 0.5596515 0.4669387 -0.6846594
vn -0.5453044 0.4669387 -0.6961403
vn 0.6066709 -0.6693635 -0.428839
vn -0.6001604 -0.6693635 -0.4379042
vn 0.6066709 -0.442103 0.6606779
vn 0.5596515 0.6941992 0.4526342
vn 0.5596515 0.4669387 -0.6846594
vn 0.6066709 -0.6693635 -0.428839
vn 0.6066709 -0.442103 0.6606779
vn -0.6001604 -0.6693635 -0.4379042
vn -0.6001604 -0.442103 0.6665977
vn 0.6066709 -0.6693635 -0.428839
vn -0.5453044 0.4669387 -0.6961403
vn 0.5596515 0.4669387 -0.6846594
vn 0.5596515 0.6941992 0.4526342
vn -0.5453044 0.7020358 0.4580271
vn -0.5453044 0.4669387 -0.6961403
vn -0.6001604 -0.442103 0.6665977
vn -0.6001604 -0.6693635 -0.4379042
vn 0.5596515 0.6941992 0.4526342
vn 0.6066709 -0.442103 0.6606779
vn -0.5453044 0.7020358 0.4580271
vn -0.6001604 -0.442103 0.6665977
vn -0.5374678 0.4669387 -0.7022083
vn -0.7255455 -0.06594777 -0.685007
vn 0.7398926 -0.07378435 -0.6686664
vn 0.5596515 0.4669387 -0.6846594
vn 0.5596515 0.7020358 0.4403816
vn 0.5596515 0.4669387 -0.6846594
vn 0.7398926 0.2004955 0.642153
vn 0.7398926 -0.07378435 -0.6686664
vn -0.5374678 0.4669387 -0.7022083
vn 0.5596515 0.4669387 -0.6846594
vn 0.5596515 0.7020358 0.4403816
vn -0.5374678 0.7020358 0.4671982
vn -0.7255455 0.2083321 0.6558822
vn -0.5374678 0.4669387 -0.7022083
vn -0.5374678 0.7020358 0.4671982
vn -0.7255455 -0.06594777 -0.685007
vn -0.5374678 0.7020358 0.4671982
vn 0.5596515 0.7020358 0.4403816
vn 0.7398926 0.2004955 0.642153
vn -0.7255455 0.2083321 0.6558822
vn -0.5217948 0.4669387 -0.7139316
vn -0.5923239 -0.6615269 -0.4599288
vn 0.622344 -0.6693635 -0.4057591
vn 0.5674881 0.4669387 -0.6781781
vn 0.5988344 -0.4264299 0.6779048
vn 0.5439784 0.6941992 0.4713544
vn 0.5674881 0.4669387 -0.6781781
vn 0.622344 -0.6693635 -0.4057591
vn -0.5923239 -0.6615269 -0.4599288
vn -0.6158335 -0.442103 0.6521457
vn 0.622344 -0.6693635 -0.4057591
vn 0.5988344 -0.4264299 0.6779048
vn 0.5674881 0.4669387 -0.6781781
vn -0.553141 0.7020358 0.4485318
vn -0.5217948 0.4669387 -0.7139316
vn 0.5439784 0.6941992 0.4713544
vn -0.5217948 0.4669387 -0.7139316
vn -0.6158335 -0.442103 0.6521457
vn -0.5923239 -0.6615269 -0.4599288
vn -0.553141 0.7020358 0.4485318
vn -0.553141 0.7020358 0.4485318
vn 0.5439784 0.6941992 0.4713544
vn 0.5988344 -0.4264299 0.6779048
vn -0.6158335 -0.442103 0.6521457
vn 0.9984993 0.05160069 -0.01834543
vn 0.5674881 0.7020358 0.430236
vn 0.6928731 0.7177089 -0.06943129
vn 0.7242194 0.2004955 0.6597785
vn -0.678526 0.7098724 -0.1889011
vn 0.6928731 0.7177089 -0.06943129
vn 0.5674881 0.7020358 0.430236
vn -0.5609776 0.6941992 0.4509896
vn -0.9919888 0.03592753 -0.1211093
vn -0.678526 0.7098724 -0.1889011
vn -0.5609776 0.6941992 0.4509896
vn -0.7020358 0.1926589 0.6855861
vn 0.5674881 0.7020358 0.430236
vn -0.7020358 0.1926589 0.6855861
vn -0.5609776 0.6941992 0.4509896
vn 0.7242194 0.2004955 0.6597785
vn -0.004581332 0.968479 -0.249053
vn 0.07378435 0.5453044 -0.8349844
vn -0.04376411 0.9841522 -0.1718405
vn -0.04376411 0.9841522 -0.1718405
vn 0.01109183 0.9371328 -0.3487965
vn 0.01109183 0.968479 -0.2488481
vn -0.02809107 0.5766507 -0.8165077
vn 0.07378435 0.9763156 -0.2033807
vn 0.07378435 0.9763156 -0.2033807
vn 0.07378435 0.5453044 -0.8349844
vn 0.08945751 -0.02676493 -0.9956309
vn -0.04376411 0.01241791 -0.9989647
vn -0.02809107 0.5766507 -0.8165077
vn 0.1756597 -0.05027467 -0.9831664
vn 0.1756597 -0.05027467 -0.9831664
vn 0.08945751 -0.02676493 -0.9956309
vn 0.07378435 0.5453044 -0.8349844
vn -0.04376411 0.01241791 -0.9989647
vn -0.02809107 0.5766507 -0.8165077
vn -0.08294702 0.02809107 -0.9961579
vn -0.08294702 0.02809107 -0.9961579
vn 0.003255248 0.1613127 0.9868979
vn 0.003255248 0.1613127 0.9868979
vn 0.003255248 0.1613127 0.9868979
vn 0.003255248 0.1613127 0.9868979
vn 0.003255248 -0.9906627 -0.1362967
vn 0.003255248 -0.9906627 -0.1362967
vn 0.003255248 -0.9906627 -0.1362967
vn 0.003255248 -0.9906627 -0.1362967
vn 0.1756597 -0.3559008 -0.9178662
vn 0.1756597 -0.3559008 -0.9178662
vn 0.1756597 -0.3559008 -0.9178662
vn 0.003255248 -0.4812859 -0.8765576
vn 0.003255248 -0.4812859 -0.8765576
vn 0.003255248 -0.4812859 -0.8765576
vn 0.003255248 -0.4812859 -0.8765576
vn -0.04376411 -0.4656127 -0.8839058
vn -0.04376411 -0.4656127 -0.8839058
vn -0.04376411 -0.4656127 -0.8839058
vn 0.9884105 -0.1518041 0
vn 0.9884105 -0.1518041 0
vn 0.9884105 -0.1518041 0
vn 0.9884105 -0.1518041 0
vn 0.9649108 0.2625778 0
vn 0.9649108 0.2625778 0
vn 0.9649108 0.2625778 0
vn 0.05027467 -0.3950836 -0.9172685
vn 0.05027467 -0.3950836 -0.9172685
vn 0.05027467 -0.3950836 -0.9172685
vn 0.003255248 0.9998254 0.01840147
vn 0.003255248 0.9998254 0.01840147
vn 0.003255248 0.9998254 0.01840147
vn 0.003255248 0.9998254 0.01840147
g cheli_0
f 3/3/3 2/2/2 1/1/1
f 1/1/1 4/4/4 3/3/3
f 7/7/7 6/6/6 5/5/5
f 6/6/6 7/7/7 8/8/8
f 11/11/11 10/10/10 9/9/9
f 10/10/10 12/12/12 9/9/9
f 15/15/15 14/14/14 13/13/13
f 16/16/16 14/14/14 15/15/15
f 19/19/19 18/18/18 17/17/17
f 19/19/19 20/20/20 18/18/18
f 23/23/23 22/22/22 21/21/21
f 21/21/21 24/24/24 23/23/23
f 27/27/27 26/26/26 25/25/25
f 28/28/28 25/25/25 26/26/26
f 31/31/31 30/30/30 29/29/29
f 30/30/30 32/32/32 29/29/29
f 35/35/35 34/34/34 33/33/33
f 35/35/35 36/36/36 34/34/34
f 39/39/39 38/38/38 37/37/37
f 37/37/37 40/40/40 39/39/39
f 43/43/43 42/42/42 41/41/41
f 42/42/42 44/44/44 41/41/41
f 47/47/47 46/46/46 45/45/45
f 45/45/45 48/48/48 47/47/47
f 50/50/50 48/48/48 49/49/49
f 51/51/51 50/50/50 49/49/49
f 54/54/54 53/53/53 52/52/52
f 55/55/55 53/53/53 54/54/54
f 58/58/58 57/57/57 56/56/56
f 56/56/56 59/59/59 58/58/58
f 62/62/62 61/61/61 60/60/60
f 62/62/62 63/63/63 61/61/61
f 66/66/66 65/65/65 64/64/64
f 64/64/64 67/67/67 66/66/66
f 70/70/70 69/69/69 68/68/68
f 71/71/71 68/68/68 69/69/69
f 74/74/74 73/73/73 72/72/72
f 72/72/72 75/75/75 74/74/74
f 78/78/78 77/77/77 76/76/76
f 76/76/76 79/79/79 78/78/78
f 82/82/82 81/81/81 80/80/80
f 80/80/80 83/83/83 82/82/82
f 86/86/86 85/85/85 84/84/84
f 85/85/85 86/86/86 87/87/87
f 90/90/90 89/89/89 88/88/88
f 89/89/89 91/91/91 88/88/88
f 94/94/94 93/93/93 92/92/92
f 93/93/93 95/95/95 92/92/92
f 98/98/98 97/97/97 96/96/96
f 96/96/96 99/99/99 98/98/98
f 102/102/102 101/101/101 100/100/100
f 103/103/103 100/100/100 101/101/101
f 106/106/106 105/105/105 104/104/104
f 104/104/104 107/107/107 106/106/106
f 110/110/110 109/109/109 108/108/108
f 108/108/108 111/111/111 110/110/110
f 114/114/114 113/113/113 112/112/112
f 113/113/113 115/115/115 112/112/112
f 118/118/118 117/117/117 116/116/116
f 116/116/116 119/119/119 118/118/118
f 116/116/116 117/117/117 120/120/120
f 120/120/120 122/122/122 121/121/121
f 121/121/121 122/122/122 123/123/123
f 123/123/123 124/124/124 121/121/121
f 122/122/122 120/120/120 125/125/125
f 127/127/127 125/125/125 126/126/126
f 125/125/125 127/127/127 128/128/128
f 131/131/131 130/130/130 129/129/129
f 130/130/130 131/131/131 132/132/132
f 135/135/135 134/134/134 133/133/133
f 133/133/133 136/136/136 135/135/135
f 139/139/139 138/138/138 137/137/137
f 137/137/137 140/140/140 139/139/139
f 143/143/143 142/142/142 141/141/141
f 143/143/143 144/144/144 142/142/142
f 147/147/147 146/146/146 145/145/145
f 150/150/150 149/149/149 148/148/148
f 148/148/148 151/151/151 150/150/150
f 154/154/154 153/153/153 152/152/152
f 157/157/157 156/156/156 155/155/155
f 155/155/155 158/158/158 157/157/157
f 161/161/161 160/160/160 159/159/159
f 164/164/164 163/163/163 162/162/162
f 167/167/167 166/166/166 165/165/165
f 165/165/165 168/168/168 167/167/167
