g Concrete_jiChang
v -9.645157 -1.623055E-06 -45.52539
v 27.13213 -1.899059E-06 -1.798737
v 14.08275 -1.899059E-06 2.31781
v 3.766708 -1.899059E-06 -50.95856
v 49.35014 -1.899059E-06 44.30444
v 37.10698 -1.899059E-06 49.46039
v -42.57512 -9.453846E-07 -32.18542
v -8.129471 -1.899059E-06 8.316223
v -24.4659 -1.899059E-06 14.47842
v -27.06377 -1.237689E-06 -38.63461
v -8.082474 -1.915638E-06 8.408905
v 2.04039 -9.453846E-07 32.18542
v -15.10011 -1.29812E-06 39.12906
v 20.81352 1.915638E-06 78.52728
v -11.83876 -4.823183E-07 64.24835
v 11.26848 4.609757E-07 54.96515
v -2.775894 4.59289E-07 88.08337
v -28.55547 -4.837341E-07 -64.84943
v -9.645157 -1.623055E-06 -45.52539
v -18.6844 -1.423072E-06 -41.94946
v -5.735489 -1.416346E-06 -74.41498
v 3.766708 -1.899059E-06 -50.95856
v -28.55547 -4.837341E-07 -64.84943
v -15.00639 -9.453846E-07 -97.30042
v -5.735489 -1.416346E-06 -74.41498
v -38.44984 5.019511E-07 -87.80347
v -51.85146 4.68331E-07 -55.08432
v -38.44984 5.019511E-07 -87.80347
v -28.55547 -4.837341E-07 -64.84943
v -61.34825 1.915638E-06 -78.52728
v -51.85146 4.68331E-07 -55.08432
v -18.6844 -1.423072E-06 -41.94946
v -27.06377 -1.237689E-06 -38.63461
v -28.55547 -4.837341E-07 -64.84943
v -42.57512 -9.453846E-07 -32.18542
v 11.26848 4.609757E-07 54.96515
v -15.10011 -1.29812E-06 39.12906
v 2.04039 -9.453846E-07 32.18542
v -19.72588 -1.393315E-06 41.00293
v -11.83876 -4.823183E-07 64.24835
v -11.83876 -4.823183E-07 64.24835
v -44.30147 -1.899059E-06 50.95856
v -19.72588 -1.393315E-06 41.00293
v -35.12758 -1.433026E-06 73.60449
v -2.775894 4.59289E-07 88.08337
v -35.12758 -1.433026E-06 73.60449
v -11.83876 -4.823183E-07 64.24835
v -25.52834 -9.453846E-07 97.30042
v 37.10698 -1.899059E-06 49.46039
v 61.34825 -1.899059E-06 69.20102
v 50.51134 -1.899059E-06 76.9061
v 49.35014 -1.899059E-06 44.30444
vt 0.6921079 2.249013
vt 0.99297 1.040348
vt 0.6921079 1.040348
vt 0.99297 2.249013
vt 0.99297 -0.1457282
vt 0.6921079 -0.114118
vt 0.6937356 1.130658
vt 0.9937582 0.286645
vt 0.6937356 0.2884974
vt 0.9937582 1.137634
vt 0.9937582 0.2849082
vt 0.9937582 -0.1490924
vt 0.6937356 -0.1552014
vt 0.679207 0.3453982
vt 0.005416989 0.993083
vt 0.679207 0.9930828
vt 0.005416989 0.3453988
vt 0.005029082 0.9950061
vt 0.208511 0.319073
vt 0.005029082 0.319073
vt 0.6840017 0.9950061
vt 0.6840017 0.319073
vt 0.005029082 0.9950061
vt 0.6840017 0.319073
vt 0.6840017 0.9950061
vt 0.005029082 0.319073
vt 0.6840017 0.9950061
vt 0.005029082 0.319073
vt 0.005029082 0.9950061
vt 0.6840017 0.319073
vt 0.6840017 0.9950061
vt 0.005029082 0.319073
vt 0.208511 0.319073
vt 0.005029082 0.9950061
vt 0.6840017 0.319073
vt 0.679207 0.9930828
vt 0.1914249 0.3453986
vt 0.679207 0.3453987
vt 0.00541693 0.3453985
vt 0.005416989 0.993083
vt 0.005416989 0.993083
vt 0.679207 0.3453983
vt 0.00541693 0.3453985
vt 0.679207 0.9930826
vt 0.005416989 0.3453988
vt 0.679207 0.9930826
vt 0.005416989 0.993083
vt 0.679207 0.3453988
vt 0.6816006 0.3096875
vt 0.009488046 0.008825481
vt 0.009488046 0.3096875
vt 0.6499904 0.008825496
vn 0 1 0
vn 0 1 0
vn 0 1 0
vn 0 1 0
vn 0 1 0
vn 0 1 0
vn 0 1 0
vn 0 1 0
vn 0 1 0
vn 0 1 0
vn 0 1 0
vn 0 1 0
vn 0 1 0
vn 0 1 0
vn 0 1 0
vn 0 1 0
vn 0 1 0
vn 0 1 0
vn 0 1 0
vn 0 1 0
vn 0 1 0
vn 0 1 0
vn 0 1 0
vn 0 1 0
vn 0 1 0
vn 0 1 0
vn 0 1 0
vn 0 1 0
vn 0 1 0
vn 0 1 0
vn 0 1 0
vn 0 1 0
vn 0 1 0
vn 0 1 0
vn 0 1 0
vn 0 1 0
vn 0 1 0
vn 0 1 0
vn 0 1 0
vn 0 1 0
vn 0 1 0
vn 0 1 0
vn 0 1 0
vn 0 1 0
vn 0 1 0
vn 0 1 0
vn 0 1 0
vn 0 1 0
vn 0 1 0
vn 0 1 0
vn 0 1 0
vn 0 1 0
g Concrete_jiChang_0
f 3/3/3 2/2/2 1/1/1
f 2/2/2 4/4/4 1/1/1
f 5/5/5 2/2/2 3/3/3
f 6/6/6 5/5/5 3/3/3
f 9/9/9 8/8/8 7/7/7
f 8/8/8 10/10/10 7/7/7
f 11/11/11 8/8/8 9/9/9
f 9/9/9 12/12/12 11/11/11
f 9/9/9 13/13/13 12/12/12
f 16/16/16 15/15/15 14/14/14
f 15/15/15 17/17/17 14/14/14
f 20/20/20 19/19/19 18/18/18
f 19/19/19 21/21/21 18/18/18
f 19/19/19 22/22/22 21/21/21
f 25/25/25 24/24/24 23/23/23
f 24/24/24 26/26/26 23/23/23
f 29/29/29 28/28/28 27/27/27
f 28/28/28 30/30/30 27/27/27
f 33/33/33 32/32/32 31/31/31
f 32/32/32 34/34/34 31/31/31
f 33/33/33 31/31/31 35/35/35
f 38/38/38 37/37/37 36/36/36
f 37/37/37 39/39/39 36/36/36
f 39/39/39 40/40/40 36/36/36
f 43/43/43 42/42/42 41/41/41
f 42/42/42 44/44/44 41/41/41
f 47/47/47 46/46/46 45/45/45
f 46/46/46 48/48/48 45/45/45
f 51/51/51 50/50/50 49/49/49
f 50/50/50 52/52/52 49/49/49
