g Concrete_Lu
v -499.586 0 -319.5428
v -464.6093 0 -367.1874
v -375.5037 0 -309.4563
v -503.7995 0 -319.8854
v -513.7665 0 -335.2036
v -375.6141 0 -384.2078
v -406.3662 0 -405.0829
v 353.5806 0 125.4532
v 400.5326 0 177.549
v 205.186 0 288.9628
v 187.2981 0 148.5095
v 186.9988 0 152.2495
v 178.2301 0 273.7908
v 198.9245 0 292.5341
v 177.8381 0 279.2242
v 187.2981 0 148.5095
v 353.4871 0 125.3495
v 353.5806 0 125.4532
v 408.4534 0 187.9972
v 290.7477 0 364.5901
v 210.3397 0 300.9892
v 434.1496 0 233.0514
v 166.3883 0 -88.68819
v -10.1355 0 -110.2265
v -4.918802 0 -152.9815
v 164.8014 0 -142.9588
v -515.9618 0 -349.2849
v -518.1933 0 -405.5058
v -515.7072 0 -349.4505
v -418.0321 0 -413.002
v -457.6321 0 -439.8832
v -468.7031 0 -447.3985
v -517.9251 0 -480.8114
v -300.8634 0 -84.3969
v -161.9257 0 -121.5354
v -261.3437 0 -36.8658
v -145.6255 0 -15.02489
v -368.3033 0 -621.6949
v -264.8204 0 -528.4399
v -350.3878 0 -516.3545
v -329.8191 0 -625.2823
v -346.8965 0 -495.9039
v -279.3545 0 -404.7589
v -347.3455 0 -485.3711
v -351.2326 0 -392.6039
v 136.6907 0 493.6859
v 243.2253 0 343.5708
v 176.9188 0 491.4889
v 154.6705 0 412.4112
v 156.9404 0 402.1528
v 157.9473 0 396.2882
v 194.9988 0 305.4183
v 191.4827 0 303.199
v 175.6003 0 293.1848
v 286.739 0 418.5686
v 289.9512 0 485.3158
v 284.7092 0 376.3889
v -280.9351 0 -391.3071
v -351.5003 0 -307.157
v -351.607 0 -379.3561
v -291.6223 0 -300.3623
v 111.8282 0 494.9604
v 25.9291 0 498.977
v 37.663 0 405.8462
v 131.4618 0 406.2278
v -3.372002 0 11.90961
v 18.3758 0 130.0092
v -123.2028 0 123.6496
v -119.5827 0 11.90961
v -152.2952 0 516.451
v -186.2486 0 486.9202
v -110.372 0 457.5654
v -180.8654 0 556.5807
v -238.334 0 523.9335
v -111.1298 0 430.5676
v -211.4072 0 446.877
v -111.7061 0 410.0353
v -225.972 0 452.2591
v -309.8515 0 483.2544
v -220.5715 0 450.2635
v -176.9414 0 -425.4841
v -185.1299 0 -298.1905
v -267.4888 0 -394.3446
v -278.6232 0 -299.5936
v -170.0835 0 -532.0931
v -176.0371 0 -439.5422
v -252.2404 0 -524.1051
v -176.2667 0 -439.4632
v -265.8054 0 -408.6707
v -84.9876 0 -284.9165
v -172.1666 0 -297.203
v -77.4058 0 -416.5017
v -163.786 0 -427.4831
v -287.3316 0 -275.736
v -277.978 0 -275.5957
v -164.3311 0 -134.3488
v -183.0983 0 -214.731
v -295.3202 0 -276.6425
v -355.4582 0 -283.452
v -400.4632 0 -160.4317
v -312.4127 0 -97.1461
v -312.1258 0 -96.8952
v -310.0454 0 -95.3989
v -190.091 0 -274.2623
v -378.6667 0 399.8999
v -444.6486 0 367.4918
v -361.866 0 372.7921
v -393.3878 0 304.8831
v -338.5351 0 335.1478
v -456.0656 0 270.3009
v -496.1343 0 283.1176
v -500.0715 0 340.27
v -49.3458 0 -206.3109
v -62.8388 0 -120.2062
v -57.02361 0 -220.5267
v -21.8521 0 -155.3538
v -18.4862 0 -149.1216
v -22.9789 0 -112.2998
v -60.8991 0 -225.9254
v -85.9777 0 -260.8189
v -89.33051 0 -261.2914
v -165.6687 0 -272.05
v -159.4771 0 -218.9504
v -141.1886 0 -140.7852
v -139.9539 0 -135.5022
v -139.8387 0 -135.4794
v -139.9539 0 -135.5022
v -62.8388 0 -120.2062
v 128.1903 0 -242.805
v 183.9008 0 -233.7423
v 165.9675 0 -155.9125
v 118.1599 0 -241.2054
v -0.176302 0 -165.7241
v -28.2503 0 -217.7044
v -137.6867 0 -121.7992
v -23.0044 0 -99.0516
v -7.686401 0 -12.09039
v -120.897 0 -12.09039
v 165.9298 0 -75.6477
v 158.1748 0 -12.09039
v 5.513798 0 -12.09039
v -9.451101 0 -97.04649
v 236.5768 0 -0.7490947
v 251.4823 0 -2.475795
v 187.2197 0 135.3947
v 181.2787 0 9.755205
v 316.5914 0 -10.0104
v 348.9472 0 112.8565
v 351.1382 0 -196.0733
v 271.3423 0 -83.5058
v 249.8311 0 -85.6403
v 364.4321 0 -193.0102
v 373.0239 0 -164.2633
v 384.6947 0 -124.5459
v 384.8751 0 -124.6112
v 190.315 0 -91.5459
v 188.7225 0 -142.654
v 188.5782 0 -147.5898
v 189.487 0 -151.5341
v 207.288 0 -228.3535
v 207.4773 0 -229.1752
v 382.39 0 -123.7114
v 271.3423 0 -83.5058
v 384.6947 0 -124.5459
v 406.2211 0 -137.0014
v 387.4272 0 -199.8828
v 518.1933 0 -223.5363
v 500.5253 0 -255.9256
v 385.4278 0 -206.5723
v 379.5217 0 -226.3332
v 370.9896 0 -254.8801
v 482.8575 0 -288.315
v 297.9588 0 381.2652
v 469.9189 0 418.425
v 303.1791 0 489.7398
v 447.8308 0 475.4639
v 339.4396 0 560.5376
v 410.331 0 528.4015
v 257.8808 0 -395.3656
v 278.4422 0 -365.9765
v 230.0739 0 -334.4129
v 312.2402 0 -309.8124
v 345.027 0 -255.5256
v 212.6792 0 -252.6055
v 346.6673 0 -252.7795
v 348.3718 0 -247.0765
v 356.5271 0 -219.4605
v 24.3764 0 512.0641
v 108.9374 0 508.1099
v 83.8939 0 622.2866
v 12.1005 0 625.2823
v -72.09731 0 -282.6381
v -64.3318 0 -417.4124
v 19.4651 0 -445.3636
v -41.4223 0 -239.907
v 115.448 0 -264.924
v 207.2821 0 -341.9317
v 127.0849 0 -455.7073
v 236.0352 0 -405.3039
v 189.1219 0 -257.2123
v 162.2431 0 -261.5114
v 129.396 0 -266.7652
v 129.1747 0 -266.8006
v 85.3964 0 -349.0998
v 32.9827 0 -447.6331
v 179.5347 0 -460.1996
v 242.7223 0 -420.0026
v -431.0284 0 151.3139
v -333.8335 0 214.415
v -437.9225 0 214.1714
v -388.7961 0 292.5691
v -443.2272 0 262.537
v -334.9478 0 322.2796
v -321.6819 0 222.3041
v -439.0022 0 473.3857
v -385.3493 0 435.4365
v -339.6088 0 472.7299
v -362.3648 0 419.1549
v -338.2042 0 473.0696
v -336.6095 0 473.4553
v -333.69 0 474.9766
v -330.8177 0 476.2397
v -327.9602 0 476.1902
v -313.5343 0 470.8595
v -229.758 0 439.7989
v -281.6517 0 332.2891
v -312.9187 0 339.4246
v -240.6084 0 322.9226
v -353.5962 0 405.1669
v -353.623 0 405.0501
v -362.3648 0 419.1549
v -312.9187 0 339.4246
v -362.3648 0 419.1549
v -353.623 0 405.0501
v -301.6108 0 253.4985
v -240.8758 0 309.6493
v -308.1493 0 302.7747
v -276.0989 0 317.6876
v -311.1907 0 325.696
v -265.6347 0 225.0684
v -298.172 0 227.5826
v -233.0974 0 222.5542
v -219.955 0 221.5386
v -118.2042 0 281.6541
v -227.5524 0 306.6086
v -136.4882 0 215.089
v -231.5328 0 198.3617
v -296.7748 0 203.4031
v -228.3419 0 109.4781
v -296.6512 0 89.7093
v -147.0798 0 119.462
v -294.7102 0 76.7376
v -143.5269 0 9.795006
v -260.2289 0 -12.23169
v -215.4673 0 113.204
v -147.1068 0 132.9875
v -218.4883 0 197.3538
v -140.7995 0 191.3506
v -374.9616 0 -399.477
v -426.0534 0 -434.1592
v -371.2565 0 -486.3903
v -445.8905 0 -478.7108
v -447.3163 0 -448.5929
v -444.4648 0 -508.8287
v 32.9671 0 143.6778
v 85.6007 0 146.042
v 37.1427 0 275.6368
v 94.6775 0 274.3733
v 37.4087 0 288.6341
v 152.4628 0 286.1074
v 134.1238 0 393.2386
v 38.3739 0 392.849
v 98.6747 0 146.6293
v 163.1331 0 149.5247
v 107.6898 0 274.0873
v 154.22 0 273.0656
v 157.3538 0 11.90961
v 31.7047 0 130.6079
v 9.846598 0 11.90961
v 163.2459 0 136.5167
v -42.9533 0 392.5184
v -92.4992 0 291.4873
v -40.512 0 290.3457
v -88.2769 0 392.3339
v -87.82861 0 405.3359
v -36.6338 0 405.5441
v -86.5247 0 451.7886
v -85.7295 0 480.1153
v 12.7338 0 499.7116
v 24.5669 0 405.7931
v -84.9915 0 506.4054
v 24.4108 0 288.9198
v 25.3728 0 392.7963
v -1.545301 0 289.4898
v -27.5014 0 290.0597
v -28.8334 0 345.807
v -29.9508 0 392.5712
v 109.2848 0 618.5464
v 133.7812 0 506.8643
v 211.0517 0 598.3361
v 177.6278 0 504.4696
v 289.6681 0 498.3506
v 327.0529 0 564.8702
v 292.8933 0 498.1745
vt -183.375 98.4375
vt -170.25 114.5625
vt -140 92.625
vt -185 98.5625
vt -188.125 104.125
vt -138.625 118.875
vt -149 126.75
vt 129.875 -37
vt 144.75 -56.09375
vt 74.875 -89.3125
vt 72.3125 -40.6875
vt 72.125 -41.96875
vt 66.0625 -83.4375
vt 72.6875 -90.375
vt 65.75 -85.25
vt 72.3125 -40.6875
vt 129.875 -36.96875
vt 129.875 -37
vt 150.125 -56.0625
vt 106.875 -109.8125
vt 82.6875 -86.875
vt 157.125 -71.375
vt 61.21875 28.15625
vt 7.421875 34.375
vt 8.929688 47.40625
vt 60.625 44.6875
vt -189.375 107.5
vt -189.125 125.5625
vt -189.25 107.5625
vt -156.875 126.25
vt -169.125 135.5
vt -172.5 138.125
vt -187.75 149.75
vt -110.4375 26.85938
vt -60.96875 41.6875
vt -95.875 12.39063
vt -55.3125 3.476563
vt -135.125 190.375
vt -102 163
vt -128.625 158.375
vt -123.375 192.125
vt -127.4375 151.875
vt -104.875 123.625
vt -127.4375 148.5
vt -127.5625 119
vt 50.28125 -149.125
vt 87.4375 -101.75
vt 65.0625 -148.375
vt 58.46875 -122.5625
vt 59.3125 -119.3125
vt 59.71875 -117.4375
vt 72.625 -89.25
vt 71.5 -88.5
vt 66.625 -85.1875
vt 100.625 -126.0625
vt 101.0625 -147.375
vt 100.375 -112.625
vt -103.0625 120.25
vt -129.75 90.25
vt -129 116.625
vt -107.9375 87.125
vt 41.15625 -149.5
vt 14.71094 -149.625
vt 19.54688 -121.125
vt 48.375 -122.5
vt -1.147461 -2.457031
vt 6.839844 -45.84375
vt -45.15625 -43.5
vt -43.8125 -2.457031
vt -55.84375 -156
vt -68.3125 -147
vt -43.09375 -135
vt -65.125 -170.875
vt -85.875 -160.375
vt -43.96875 -125.8125
vt -77.625 -133.75
vt -44.65625 -118.875
vt -82.4375 -135.625
vt -110.875 -146.75
vt -80.625 -135
vt -64.875 130.625
vt -70.3125 84.9375
vt -98.125 121.1875
vt -104 87.25
vt -62.375 163.125
vt -65.125 129.375
vt -92.5625 160.625
vt -65.25 129.375
vt -98.125 118.625
vt -31.125 87.875
vt -57.625 91.9375
vt -28.34375 127.9375
vt -54.625 131.625
vt -105.4375 85.0625
vt -102.3125 85.3125
vt -60.28125 42.0625
vt -69 68.125
vt -108.125 85.125
vt -128.25 85.5
vt -139.375 43.34375
vt -108.1875 25.10938
vt -108.0625 25.03125
vt -107.3125 24.60938
vt -73.125 87.625
vt -139 -120.5625
vt -161 -111.1875
vt -132.75 -112.3125
vt -144.875 -88.9375
vt -125.0625 -98.75
vt -167.375 -78.5625
vt -180.875 -84.0625
vt -180.5 -103.625
vt -18.03125 63.96875
vt -22.98438 37.75
vt -20.84375 68.25
vt -7.933594 48.4375
vt -6.699219 46.5625
vt -8.34375 35.34375
vt -22.28125 69.9375
vt -31.48438 80.5625
vt -32.71875 80.6875
vt -60.75 83.9375
vt -58.46875 67.8125
vt -51.75 44.03125
vt -51.3125 42.40625
vt -51.28125 42.40625
vt -51.3125 42.40625
vt -22.98438 37.75
vt 47.15625 75.0625
vt 64.875 73.5
vt 61.0625 48.625
vt 44.0625 74.3125
vt 8.585938 47.875
vt -1.430664 63.59375
vt -50.46875 38.25
vt -10.65625 34.03125
vt -2.732422 4.847656
vt -41.34375 1.336914
vt 61.03125 24.1875
vt 58.6875 0.8491211
vt 2.744141 -0.3054199
vt -3.380859 30.70313
vt 87 1.394531
vt 91.875 2.054688
vt 70.75 -45.09375
vt 66.6875 -1.802734
vt 113.5 5.125
vt 125.25 -35.75
vt 129 60.84375
vt 99.75 26.57813
vt 91.875 27.23438
vt 133.875 59.90625
vt 137.125 51.15625
vt 141.375 39.0625
vt 141.375 39.09375
vt 70 29.03125
vt 69.375 44.59375
vt 69.3125 46.09375
vt 69.6875 47.28125
vt 76.1875 70.6875
vt 76.3125 70.9375
vt 140.5 38.8125
vt 99.75 26.57813
vt 141.375 39.0625
vt 149.25 42.875
vt 144.75 65.0625
vt 190.375 69.1875
vt 185.375 80.875
vt 144.25 67.375
vt 142.75 74.375
vt 140.75 84.4375
vt 180.25 92.5625
vt 109.5 -114.875
vt 162 -125.6875
vt 111.4375 -147.875
vt 155.375 -143.125
vt 122.6875 -169.375
vt 144.125 -159.375
vt 94.8125 121.5
vt 100.5625 113.125
vt 84.5625 102.9375
vt 113 96.25
vt 125.75 78.75
vt 80.6875 74.375
vt 126.4375 77.875
vt 127.1875 76
vt 130.625 66.8125
vt 9.039063 -154.625
vt 35.875 -151.25
vt 30.90625 -188.25
vt 8.109375 -191.125
vt -26.39063 87.1875
vt -20.28125 130
vt 7.242188 136.75
vt -17.73438 72.6875
vt 33.0625 76.5
vt 76.1875 105.25
vt 46.75 139.875
vt 83.6875 126.75
vt 72.875 77.125
vt 64 77.75
vt 53.1875 78.4375
vt 53.125 78.4375
vt 36.40625 103.9375
vt 16.3125 134.375
vt 63.6875 142.875
vt 85.4375 131.625
vt -158.25 -44.875
vt -126.3125 -62.9375
vt -160.75 -64
vt -142.875 -90.1875
vt -162 -80.6875
vt -123.8125 -99.0625
vt -122 -65.1875
vt -161.125 -142.875
vt -141.375 -129
vt -124.625 -142.75
vt -132.875 -123.125
vt -124.125 -142.875
vt -123.5625 -143
vt -122.5 -143.5
vt -121.4375 -144
vt -120.4375 -144
vt -115.125 -142
vt -84.5625 -130.875
vt -103.3125 -91.625
vt -114.6875 -94.1875
vt -88.3125 -88.3125
vt -129.75 -118
vt -129.625 -118
vt -132.875 -123.125
vt -114.6875 -94.1875
vt -132.875 -123.125
vt -129.625 -118
vt -110.6875 -76
vt -88.375 -93.0625
vt -111.375 -92.8125
vt -100.0625 -96.875
vt -111.75 -100.625
vt -99.4375 -65.1875
vt -110.375 -67.125
vt -88.5 -63.3125
vt -80.6875 -66.25
vt -43.3125 -84.5625
vt -81 -96.3125
vt -51.5625 -61.71875
vt -84.9375 -59.21875
vt -104.8125 -60.59375
vt -83.75 -32.15625
vt -104.5 -25.98438
vt -53.9375 -35.1875
vt -98.8125 -21.89063
vt -52.625 -1.814453
vt -88.125 5.128906
vt -79.0625 -33.28125
vt -58.28125 -39.46875
vt -80.125 -58.90625
vt -56.5 -57.25
vt -137.625 122.75
vt -153.125 133.375
vt -136.25 149.25
vt -159 147
vt -159.5 137.875
vt -158.5 156.25
vt 12.19531 -42.5625
vt 28.23438 -43.1875
vt 13.73438 -82.75
vt 31.25 -82.25
vt 13.82813 -86.6875
vt 48.84375 -85.875
vt 43.3125 -118.5
vt 14.1875 -118.4375
vt 36.3125 -43.46875
vt 56 -44.0625
vt 39.625 -82.25
vt 53.8125 -81.75
vt 57.875 -2.457031
vt 11.73438 -38.59375
vt 7.933594 2.015625
vt 55.8125 -44.84375
vt -15.6875 -118.3125
vt -33.875 -87.5625
vt -17.25 -86
vt -29.85938 -119.4375
vt -32.15625 -122.1875
vt -15.00781 -121
vt -31.6875 -136.375
vt -31.59375 -146.125
vt 2.363281 -153.25
vt 6.1875 -120.75
vt -31.45313 -155.375
vt 9.054688 -86.75
vt 7.589844 -119.8125
vt -0.4763184 -86.9375
vt -8.492188 -86.875
vt -9.265625 -104.4375
vt -9.78125 -119.0625
vt 40.21875 -187.125
vt 51.625 -147.625
vt 77.625 -181
vt 67.3125 -147.875
vt 105.625 -148.375
vt 117.0625 -171.375
vt 106.75 -148.375
vn 0 1 0
vn 0 1 0
vn 0 1 0
vn 0 1 0
vn 0 1 0
vn 0 1 0
vn 0 1 0
vn 0 1 0
vn 0 1 0
vn 0 1 0
vn 0 1 0
vn 0 1 0
vn 0 1 0
vn 0 1 0
vn 0 1 0
vn 0 1 0
vn 0 1 0
vn 0 1 0
vn 0 1 0
vn 0 1 0
vn 0 1 0
vn 0 1 0
vn 0 1 0
vn 0 1 0
vn 0 1 0
vn 0 1 0
vn 0 1 0
vn 0 1 0
vn 0 1 0
vn 0 1 0
vn 0 1 0
vn 0 1 0
vn 0 1 0
vn 0 1 0
vn 0 1 0
vn 0 1 0
vn 0 1 0
vn 0 1 0
vn 0 1 0
vn 0 1 0
vn 0 1 0
vn 0 1 0
vn 0 1 0
vn 0 1 0
vn 0 1 0
vn 0 1 0
vn 0 1 0
vn 0 1 0
vn 0 1 0
vn 0 1 0
vn 0 1 0
vn 0 1 0
vn 0 1 0
vn 0 1 0
vn 0 1 0
vn 0 1 0
vn 0 1 0
vn 0 1 0
vn 0 1 0
vn 0 1 0
vn 0 1 0
vn 0 1 0
vn 0 1 0
vn 0 1 0
vn 0 1 0
vn 0 1 0
vn 0 1 0
vn 0 1 0
vn 0 1 0
vn 0 1 0
vn 0 1 0
vn 0 1 0
vn 0 1 0
vn 0 1 0
vn 0 1 0
vn 0 1 0
vn 0 1 0
vn 0 1 0
vn 0 1 0
vn 0 1 0
vn 0 1 0
vn 0 1 0
vn 0 1 0
vn 0 1 0
vn 0 1 0
vn 0 1 0
vn 0 1 0
vn 0 1 0
vn 0 1 0
vn 0 1 0
vn 0 1 0
vn 0 1 0
vn 0 1 0
vn 0 1 0
vn 0 1 0
vn 0 1 0
vn 0 1 0
vn 0 1 0
vn 0 1 0
vn 0 1 0
vn 0 1 0
vn 0 1 0
vn 0 1 0
vn 0 1 0
vn 0 1 0
vn 0 1 0
vn 0 1 0
vn 0 1 0
vn 0 1 0
vn 0 1 0
vn 0 1 0
vn 0 1 0
vn 0 1 0
vn 0 1 0
vn 0 1 0
vn 0 1 0
vn 0 1 0
vn 0 1 0
vn 0 1 0
vn 0 1 0
vn 0 1 0
vn 0 1 0
vn 0 1 0
vn 0 1 0
vn 0 1 0
vn 0 -1 0
vn 0 -1 0
vn 0 -1 0
vn 0 1 0
vn 0 1 0
vn 0 1 0
vn 0 1 0
vn 0 1 0
vn 0 1 0
vn 0 1 0
vn 0 1 0
vn 0 1 0
vn 0 1 0
vn 0 1 0
vn 0 1 0
vn 0 1 0
vn 0 1 0
vn 0 1 0
vn 0 1 0
vn 0 1 0
vn 0 1 0
vn 0 1 0
vn 0 1 0
vn 0 1 0
vn 0 1 0
vn 0 1 0
vn 0 1 0
vn 0 1 0
vn 0 1 0
vn 0 1 0
vn 0 1 0
vn 0 1 0
vn 0 1 0
vn 0 1 0
vn 0 1 0
vn 0 1 0
vn 0.00289917 0.9995117 0.007896423
vn 0.00289917 0.9995117 0.007896423
vn 0.00289917 0.9995117 0.007896423
vn 0 1 0
vn 0 1 0
vn 0 1 0
vn 0 1 0
vn 0 1 0
vn 0 1 0
vn 0 1 0
vn 0 1 0
vn 0 1 0
vn 0 1 0
vn 0 1 0
vn 0 1 0
vn 0 1 0
vn 0 1 0
vn 0 1 0
vn 0 1 0
vn 0 1 0
vn 0 1 0
vn 0 1 0
vn 0 1 0
vn 0 1 0
vn 0 1 0
vn 0 1 0
vn 0 1 0
vn 0 1 0
vn 0 1 0
vn 0 1 0
vn 0 1 0
vn 0 1 0
vn 0 1 0
vn 0 1 0
vn 0 1 0
vn 0 1 0
vn 0 1 0
vn 0 1 0
vn 0 1 0
vn 0 1 0
vn 0 1 0
vn 0 1 0
vn 0 1 0
vn 0 1 0
vn 0 1 0
vn 0 1 0
vn 0 1 0
vn 0 1 0
vn 0 1 0
vn 0 1 0
vn 0 1 0
vn 0 1 0
vn 0 1 0
vn 0 1 0
vn 0 1 0
vn 0 1 0
vn 0 1 0
vn 0 1 0
vn 0 1 0
vn 0 1 0
vn 0 1 0
vn 0 1 0
vn 0 1 0
vn 0 1 0
vn 0 1 0
vn 0 1 0
vn 0 1 0
vn 0 -1 0
vn 0 -1 0
vn 0 -1 0
vn 0 1 0
vn 0 1 0
vn 0 1 0
vn 0 1 0
vn 0 1 0
vn 0 1 0
vn 0 1 0
vn 0 1 0
vn 0 1 0
vn 0 1 0
vn 0 1 0
vn 0 1 0
vn 0 1 0
vn 0 1 0
vn 0 1 0
vn 0 1 0
vn 0 1 0
vn 0 1 0
vn 0 1 0
vn 0 1 0
vn 0 1 0
vn 0 1 0
vn 0 1 0
vn 0 1 0
vn 0 1 0
vn 0 1 0
vn 0 1 0
vn 0 1 0
vn 0 1 0
vn 0 1 0
vn 0 1 0
vn 0 1 0
vn 0 1 0
vn 0 1 0
vn 0 1 0
vn 0 1 0
vn 0 1 0
vn 0 1 0
vn 0 1 0
vn 0 1 0
vn 0 1 0
vn 0 1 0
vn 0 1 0
vn 0 1 0
vn 0 1 0
vn 0 1 0
vn 0 1 0
vn 0 1 0
vn 0 1 0
vn 0 1 0
vn 0 1 0
vn 0 1 0
vn 0 1 0
vn 0 1 0
vn 0 1 0
vn 0 1 0
vn 0 1 0
vn 0 1 0
vn 0 1 0
vn 0 1 0
vn 0 1 0
vn 0 1 0
vn 0 1 0
vn 0 1 0
vn 0 1 0
vn 0 1 0
vn 0 1 0
vn 0 1 0
vn 0 1 0
vn 0 1 0
vn 0 1 0
vn 0 1 0
vn 0 1 0
g Concrete_Lu_0
f 3/3/3 2/2/2 1/1/1
f 4/4/4 1/1/1 2/2/2
f 2/2/2 5/5/5 4/4/4
f 6/6/6 2/2/2 3/3/3
f 7/7/7 2/2/2 6/6/6
f 10/10/10 9/9/9 8/8/8
f 10/10/10 8/8/8 11/11/11
f 12/12/12 10/10/10 11/11/11
f 10/10/10 12/12/12 13/13/13
f 14/14/14 10/10/10 13/13/13
f 15/15/15 14/14/14 13/13/13
f 18/18/18 17/17/17 16/16/16
f 21/21/21 20/20/20 19/19/19
f 19/19/19 20/20/20 22/22/22
f 25/25/25 24/24/24 23/23/23
f 23/23/23 26/26/26 25/25/25
f 29/29/29 28/28/28 27/27/27
f 30/30/30 28/28/28 29/29/29
f 30/30/30 31/31/31 28/28/28
f 31/31/31 32/32/32 28/28/28
f 28/28/28 32/32/32 33/33/33
f 36/36/36 35/35/35 34/34/34
f 35/35/35 36/36/36 37/37/37
f 40/40/40 39/39/39 38/38/38
f 39/39/39 41/41/41 38/38/38
f 42/42/42 39/39/39 40/40/40
f 43/43/43 39/39/39 42/42/42
f 44/44/44 43/43/43 42/42/42
f 45/45/45 43/43/43 44/44/44
f 48/48/48 47/47/47 46/46/46
f 47/47/47 49/49/49 46/46/46
f 49/49/49 47/47/47 50/50/50
f 50/50/50 47/47/47 51/51/51
f 52/52/52 51/51/51 47/47/47
f 52/52/52 53/53/53 51/51/51
f 51/51/51 53/53/53 54/54/54
f 55/55/55 47/47/47 48/48/48
f 56/56/56 55/55/55 48/48/48
f 47/47/47 55/55/55 57/57/57
f 60/60/60 59/59/59 58/58/58
f 59/59/59 61/61/61 58/58/58
f 64/64/64 63/63/63 62/62/62
f 65/65/65 64/64/64 62/62/62
f 68/68/68 67/67/67 66/66/66
f 69/69/69 68/68/68 66/66/66
f 72/72/72 71/71/71 70/70/70
f 70/70/70 71/71/71 73/73/73
f 73/73/73 71/71/71 74/74/74
f 71/71/71 72/72/72 75/75/75
f 76/76/76 71/71/71 75/75/75
f 77/77/77 76/76/76 75/75/75
f 74/74/74 71/71/71 78/78/78
f 79/79/79 74/74/74 78/78/78
f 80/80/80 71/71/71 76/76/76
f 78/78/78 71/71/71 80/80/80
f 83/83/83 82/82/82 81/81/81
f 83/83/83 84/84/84 82/82/82
f 87/87/87 86/86/86 85/85/85
f 87/87/87 88/88/88 86/86/86
f 88/88/88 87/87/87 89/89/89
f 92/92/92 91/91/91 90/90/90
f 91/91/91 92/92/92 93/93/93
f 96/96/96 95/95/95 94/94/94
f 95/95/95 96/96/96 97/97/97
f 96/96/96 94/94/94 98/98/98
f 96/96/96 98/98/98 99/99/99
f 96/96/96 99/99/99 100/100/100
f 101/101/101 96/96/96 100/100/100
f 102/102/102 96/96/96 101/101/101
f 103/103/103 96/96/96 102/102/102
f 104/104/104 95/95/95 97/97/97
f 107/107/107 106/106/106 105/105/105
f 108/108/108 106/106/106 107/107/107
f 109/109/109 108/108/108 107/107/107
f 110/110/110 106/106/106 108/108/108
f 111/111/111 106/106/106 110/110/110
f 106/106/106 111/111/111 112/112/112
f 115/115/115 114/114/114 113/113/113
f 114/114/114 116/116/116 113/113/113
f 114/114/114 117/117/117 116/116/116
f 118/118/118 117/117/117 114/114/114
f 115/115/115 119/119/119 114/114/114
f 120/120/120 114/114/114 119/119/119
f 114/114/114 120/120/120 121/121/121
f 122/122/122 114/114/114 121/121/121
f 123/123/123 114/114/114 122/122/122
f 124/124/124 114/114/114 123/123/123
f 114/114/114 124/124/124 125/125/125
f 128/128/128 127/127/127 126/126/126
f 131/131/131 130/130/130 129/129/129
f 131/131/131 129/129/129 132/132/132
f 131/131/131 132/132/132 133/133/133
f 133/133/133 132/132/132 134/134/134
f 137/137/137 136/136/136 135/135/135
f 137/137/137 135/135/135 138/138/138
f 141/141/141 140/140/140 139/139/139
f 142/142/142 141/141/141 139/139/139
f 145/145/145 144/144/144 143/143/143
f 146/146/146 145/145/145 143/143/143
f 147/147/147 144/144/144 145/145/145
f 145/145/145 148/148/148 147/147/147
f 151/151/151 150/150/150 149/149/149
f 149/149/149 150/150/150 152/152/152
f 150/150/150 153/153/153 152/152/152
f 153/153/153 150/150/150 154/154/154
f 153/153/153 154/154/154 155/155/155
f 151/151/151 149/149/149 156/156/156
f 149/149/149 157/157/157 156/156/156
f 158/158/158 157/157/157 149/149/149
f 149/149/149 159/159/159 158/158/158
f 159/159/159 149/149/149 160/160/160
f 160/160/160 149/149/149 161/161/161
f 164/164/164 163/163/163 162/162/162
f 167/167/167 166/166/166 165/165/165
f 168/168/168 166/166/166 167/167/167
f 166/166/166 168/168/168 169/169/169
f 170/170/170 169/169/169 168/168/168
f 168/168/168 171/171/171 170/170/170
f 171/171/171 168/168/168 172/172/172
f 175/175/175 174/174/174 173/173/173
f 174/174/174 175/175/175 176/176/176
f 175/175/175 177/177/177 176/176/176
f 177/177/177 178/178/178 176/176/176
f 181/181/181 180/180/180 179/179/179
f 180/180/180 181/181/181 182/182/182
f 182/182/182 181/181/181 183/183/183
f 183/183/183 181/181/181 184/184/184
f 185/185/185 183/183/183 184/184/184
f 186/186/186 185/185/185 184/184/184
f 186/186/186 184/184/184 187/187/187
f 190/190/190 189/189/189 188/188/188
f 190/190/190 188/188/188 191/191/191
f 194/194/194 193/193/193 192/192/192
f 194/194/194 192/192/192 195/195/195
f 195/195/195 196/196/196 194/194/194
f 199/199/199 198/198/198 197/197/197
f 197/197/197 198/198/198 200/200/200
f 200/200/200 198/198/198 201/201/201
f 201/201/201 198/198/198 202/202/202
f 202/202/202 198/198/198 203/203/203
f 203/203/203 198/198/198 204/204/204
f 204/204/204 198/198/198 205/205/205
f 198/198/198 199/199/199 206/206/206
f 199/199/199 207/207/207 206/206/206
f 210/210/210 209/209/209 208/208/208
f 211/211/211 209/209/209 210/210/210
f 212/212/212 211/211/211 210/210/210
f 209/209/209 211/211/211 213/213/213
f 214/214/214 209/209/209 213/213/213
f 217/217/217 216/216/216 215/215/215
f 217/217/217 218/218/218 216/216/216
f 218/218/218 217/217/217 219/219/219
f 219/219/219 220/220/220 218/218/218
f 218/218/218 220/220/220 221/221/221
f 218/218/218 221/221/221 222/222/222
f 218/218/218 222/222/222 223/223/223
f 218/218/218 223/223/223 224/224/224
f 225/225/225 218/218/218 224/224/224
f 218/218/218 225/225/225 226/226/226
f 227/227/227 218/218/218 226/226/226
f 226/226/226 225/225/225 228/228/228
f 231/231/231 230/230/230 229/229/229
f 234/234/234 233/233/233 232/232/232
f 237/237/237 236/236/236 235/235/235
f 237/237/237 238/238/238 236/236/236
f 239/239/239 238/238/238 237/237/237
f 235/235/235 236/236/236 240/240/240
f 241/241/241 235/235/235 240/240/240
f 240/240/240 236/236/236 242/242/242
f 245/245/245 244/244/244 243/243/243
f 243/243/243 244/244/244 246/246/246
f 249/249/249 248/248/248 247/247/247
f 249/249/249 250/250/250 248/248/248
f 253/253/253 252/252/252 251/251/251
f 254/254/254 252/252/252 253/253/253
f 257/257/257 256/256/256 255/255/255
f 256/256/256 257/257/257 258/258/258
f 261/261/261 260/260/260 259/259/259
f 260/260/260 261/261/261 262/262/262
f 263/263/263 260/260/260 262/262/262
f 262/262/262 261/261/261 264/264/264
f 267/267/267 266/266/266 265/265/265
f 267/267/267 268/268/268 266/266/266
f 271/271/271 270/270/270 269/269/269
f 272/272/272 271/271/271 269/269/269
f 275/275/275 274/274/274 273/273/273
f 274/274/274 275/275/275 276/276/276
f 279/279/279 278/278/278 277/277/277
f 277/277/277 278/278/278 280/280/280
f 283/283/283 282/282/282 281/281/281
f 282/282/282 284/284/284 281/281/281
f 287/287/287 286/286/286 285/285/285
f 288/288/288 286/286/286 287/287/287
f 289/289/289 286/286/286 288/288/288
f 290/290/290 286/286/286 289/289/289
f 291/291/291 289/289/289 288/288/288
f 294/294/294 293/293/293 292/292/292
f 293/293/293 294/294/294 295/295/295
f 296/296/296 293/293/293 295/295/295
f 297/297/297 293/293/293 296/296/296
f 300/300/300 299/299/299 298/298/298
f 299/299/299 300/300/300 301/301/301
f 302/302/302 301/301/301 300/300/300
f 302/302/302 300/300/300 303/303/303
f 304/304/304 302/302/302 303/303/303
