g daoJu_chengTie02
v -4.68409 69.94759 0.1942139
v -0.8356247 46.37576 0.1942139
v -4.68409 46.37576 0.1942139
v -0.8356247 69.94759 0.1942139
v -0.8356247 69.94759 -0.1264877
v 0.2868423 46.37576 -0.1264877
v -0.8356247 46.37576 -0.1264877
v 0.2868423 69.94759 -0.1264877
v -0.8356247 69.94759 0.1942139
v -0.8356247 46.37576 -0.1264877
v -0.8356247 46.37576 0.1942139
v -0.8356247 69.94759 -0.1264877
v -4.68409 -23.85867 0.1942139
v -0.8356247 -47.4305 0.1942139
v -4.68409 -47.4305 0.1942139
v -0.8356247 -23.85867 0.1942139
v -0.8356247 -23.85867 -0.1264877
v -0.8356247 -47.4305 0.1942139
v -0.8356247 -23.85867 0.1942139
v -0.8356247 -47.4305 -0.1264877
v 0.2868423 -23.85867 -0.1264877
v -0.8356247 -47.4305 -0.1264877
v -0.8356247 -23.85867 -0.1264877
v 0.2868423 -47.4305 -0.1264877
v -4.68409 22.80393 0.1942139
v -0.8356247 -0.6075439 0.1942139
v -4.68409 -0.6075439 0.1942139
v -0.8356247 22.80393 0.1942139
v -0.8356247 22.80393 -0.1264877
v -0.8356247 -0.6075439 0.1942139
v -0.8356247 22.80393 0.1942139
v -0.8356247 -0.6075439 -0.1264877
v 0.2868423 22.80393 -0.1264877
v -0.8356247 -0.6075439 -0.1264877
v -0.8356247 22.80393 -0.1264877
v 0.2868423 -0.6075439 -0.1264877
v -4.68409 -70.84198 0.1942139
v -0.8356247 -94.0931 0.1942139
v -4.68409 -94.0931 0.1942139
v -0.8356247 -70.84198 0.1942139
v -0.8356247 -70.84198 -0.1264877
v -0.8356247 -94.0931 0.1942139
v -0.8356247 -70.84198 0.1942139
v -0.8356247 -94.0931 -0.1264877
v 0.2868423 -70.84198 -0.1264877
v -0.8356247 -94.0931 -0.1264877
v -0.8356247 -70.84198 -0.1264877
v 0.2868423 -94.0931 -0.1264877
v -4.68409 46.37576 0.1942139
v -0.8356247 22.80393 0.1942139
v -4.68409 22.80393 0.1942139
v -0.8356247 46.37576 0.1942139
v -0.8356247 46.37576 -0.1264877
v -0.8356247 22.80393 0.1942139
v -0.8356247 46.37576 0.1942139
v -0.8356247 22.80393 -0.1264877
v 0.2868423 46.37576 -0.1264877
v -0.8356247 22.80393 -0.1264877
v -0.8356247 46.37576 -0.1264877
v 0.2868423 22.80393 -0.1264877
v -4.68409 -0.6075439 0.1942139
v -0.8356247 -23.85867 0.1942139
v -4.68409 -23.85867 0.1942139
v -0.8356247 -0.6075439 0.1942139
v -0.8356247 -0.6075439 -0.1264877
v -0.8356247 -23.85867 0.1942139
v -0.8356247 -0.6075439 0.1942139
v -0.8356247 -23.85867 -0.1264877
v 0.2868423 -0.6075439 -0.1264877
v -0.8356247 -23.85867 -0.1264877
v -0.8356247 -0.6075439 -0.1264877
v 0.2868423 -23.85867 -0.1264877
v -4.68409 -47.4305 0.1942139
v -0.8356247 -70.84198 0.1942139
v -4.68409 -70.84198 0.1942139
v -0.8356247 -47.4305 0.1942139
v -0.8356247 -47.4305 -0.1264877
v -0.8356247 -70.84198 0.1942139
v -0.8356247 -47.4305 0.1942139
v -0.8356247 -70.84198 -0.1264877
v 0.2868423 -47.4305 -0.1264877
v -0.8356247 -70.84198 -0.1264877
v -0.8356247 -47.4305 -0.1264877
v 0.2868423 -70.84198 -0.1264877
v -4.68409 46.37576 0.1942139
v -6.127266 69.94759 -0.2868423
v -4.68409 69.94759 0.1942139
v -6.127266 46.37576 -0.2868423
v -4.68409 -47.4305 0.1942139
v -6.127266 -23.85867 -0.2868423
v -4.68409 -23.85867 0.1942139
v -6.127266 -47.4305 -0.2868423
v -4.68409 -0.6075439 0.1942139
v -6.127266 22.80393 -0.2868423
v -4.68409 22.80393 0.1942139
v -6.127266 -0.6075439 -0.2868423
v -4.68409 -94.0931 0.1942139
v -6.127266 -70.84198 -0.2868423
v -4.68409 -70.84198 0.1942139
v -6.127266 -94.0931 -0.2868423
v -4.68409 22.80393 0.1942139
v -6.127266 46.37576 -0.2868423
v -4.68409 46.37576 0.1942139
v -6.127266 22.80393 -0.2868423
v -4.68409 -23.85867 0.1942139
v -6.127266 -0.6075439 -0.2868423
v -4.68409 -0.6075439 0.1942139
v -6.127266 -23.85867 -0.2868423
v -4.68409 -70.84198 0.1942139
v -6.127266 -47.4305 -0.2868423
v -4.68409 -47.4305 0.1942139
v -6.127266 -70.84198 -0.2868423
v 4.937065 69.94759 0.1942139
v 1.409309 46.37576 0.1942139
v 1.409309 69.94759 0.1942139
v 4.937065 46.37576 0.1942139
v 1.409309 69.94759 -0.1264877
v 0.2868423 46.37576 -0.1264877
v 0.2868423 69.94759 -0.1264877
v 1.409309 46.37576 -0.1264877
v 1.409309 69.94759 0.1942139
v 1.409309 46.37576 -0.1264877
v 1.409309 69.94759 -0.1264877
v 1.409309 46.37576 0.1942139
v 4.937065 -23.85867 0.1942139
v 1.409309 -47.4305 0.1942139
v 1.409309 -23.85867 0.1942139
v 4.937065 -47.4305 0.1942139
v 1.409309 -23.85867 -0.1264877
v 1.409309 -47.4305 0.1942139
v 1.409309 -47.4305 -0.1264877
v 1.409309 -23.85867 0.1942139
v 0.2868423 -23.85867 -0.1264877
v 1.409309 -47.4305 -0.1264877
v 0.2868423 -47.4305 -0.1264877
v 1.409309 -23.85867 -0.1264877
v 4.937065 22.80393 0.1942139
v 1.409309 -0.6075439 0.1942139
v 1.409309 22.80393 0.1942139
v 4.937065 -0.6075439 0.1942139
v 1.409309 22.80393 -0.1264877
v 1.409309 -0.6075439 0.1942139
v 1.409309 -0.6075439 -0.1264877
v 1.409309 22.80393 0.1942139
v 0.2868423 22.80393 -0.1264877
v 1.409309 -0.6075439 -0.1264877
v 0.2868423 -0.6075439 -0.1264877
v 1.409309 22.80393 -0.1264877
v 4.937065 -70.84198 0.1942139
v 1.409309 -94.0931 0.1942139
v 1.409309 -70.84198 0.1942139
v 4.937065 -94.0931 0.1942139
v 1.409309 -70.84198 -0.1264877
v 1.409309 -94.0931 0.1942139
v 1.409309 -94.0931 -0.1264877
v 1.409309 -70.84198 0.1942139
v 0.2868423 -70.84198 -0.1264877
v 1.409309 -94.0931 -0.1264877
v 0.2868423 -94.0931 -0.1264877
v 1.409309 -70.84198 -0.1264877
v 4.937065 46.37576 0.1942139
v 1.409309 22.80393 0.1942139
v 1.409309 46.37576 0.1942139
v 4.937065 22.80393 0.1942139
v 1.409309 46.37576 -0.1264877
v 1.409309 22.80393 0.1942139
v 1.409309 22.80393 -0.1264877
v 1.409309 46.37576 0.1942139
v 0.2868423 46.37576 -0.1264877
v 1.409309 22.80393 -0.1264877
v 0.2868423 22.80393 -0.1264877
v 1.409309 46.37576 -0.1264877
v 4.937065 -0.6075439 0.1942139
v 1.409309 -23.85867 0.1942139
v 1.409309 -0.6075439 0.1942139
v 4.937065 -23.85867 0.1942139
v 1.409309 -0.6075439 -0.1264877
v 1.409309 -23.85867 0.1942139
v 1.409309 -23.85867 -0.1264877
v 1.409309 -0.6075439 0.1942139
v 0.2868423 -0.6075439 -0.1264877
v 1.409309 -23.85867 -0.1264877
v 0.2868423 -23.85867 -0.1264877
v 1.409309 -0.6075439 -0.1264877
v 4.937065 -47.4305 0.1942139
v 1.409309 -70.84198 0.1942139
v 1.409309 -47.4305 0.1942139
v 4.937065 -70.84198 0.1942139
v 1.409309 -47.4305 -0.1264877
v 1.409309 -70.84198 0.1942139
v 1.409309 -70.84198 -0.1264877
v 1.409309 -47.4305 0.1942139
v 0.2868423 -47.4305 -0.1264877
v 1.409309 -70.84198 -0.1264877
v 0.2868423 -70.84198 -0.1264877
v 1.409309 -47.4305 -0.1264877
v 4.937065 46.37576 0.1942139
v 6.219887 69.94759 -0.2868423
v 6.219887 46.37576 -0.2868423
v 4.937065 69.94759 0.1942139
v 4.937065 -47.4305 0.1942139
v 6.219887 -23.85867 -0.2868423
v 6.219887 -47.4305 -0.2868423
v 4.937065 -23.85867 0.1942139
v 4.937065 -0.6075439 0.1942139
v 6.219887 22.80393 -0.2868423
v 6.219887 -0.6075439 -0.2868423
v 4.937065 22.80393 0.1942139
v 4.937065 -94.0931 0.1942139
v 6.219887 -70.84198 -0.2868423
v 6.219887 -94.0931 -0.2868423
v 4.937065 -70.84198 0.1942139
v 4.937065 22.80393 0.1942139
v 6.219887 46.37576 -0.2868423
v 6.219887 22.80393 -0.2868423
v 4.937065 46.37576 0.1942139
v 4.937065 -23.85867 0.1942139
v 6.219887 -0.6075439 -0.2868423
v 6.219887 -23.85867 -0.2868423
v 4.937065 -0.6075439 0.1942139
v 4.937065 -70.84198 0.1942139
v 6.219887 -47.4305 -0.2868423
v 6.219887 -70.84198 -0.2868423
v 4.937065 -47.4305 0.1942139
v -2.118446 -6.219887 6.287613
v 4.295654 -10.38905 8.051491
v -2.118446 -10.38905 8.051491
v 4.295654 -6.219887 6.287613
v 4.295654 -2.692131 5.165146
v -2.118446 -2.692131 5.165146
v -2.118446 -6.219887 5.966911
v -2.118446 -10.38905 8.051491
v -2.118446 -10.38905 7.730789
v -2.118446 -6.219887 6.287613
v -2.118446 -2.692131 4.844444
v -2.118446 -2.692131 5.165146
v 4.295654 -6.219887 5.966911
v -2.118446 -10.38905 7.730789
v 4.295654 -10.38905 7.730789
v -2.118446 -6.219887 5.966911
v -2.118446 -2.692131 4.844444
v 4.295654 -2.692131 4.844444
v 4.295654 14.30524 4.523735
v -2.118446 14.30524 4.844444
v -2.118446 14.30524 4.523735
v 4.295654 14.30524 4.844444
v -2.118446 -10.38905 7.730789
v 4.295654 -10.38905 8.051491
v 4.295654 -10.38905 7.730789
v -2.118446 -10.38905 8.051491
v -2.118446 -2.692131 5.165146
v -2.118446 0.8356247 4.68409
v -2.118446 0.8356247 5.004791
v -2.118446 -2.692131 4.844444
v -2.118446 3.080566 5.646202
v -2.118446 3.080566 5.966911
v -2.118446 5.806557 7.570435
v -2.118446 5.806557 7.249733
v 4.295654 -2.692131 4.844444
v -2.118446 0.8356247 4.68409
v -2.118446 -2.692131 4.844444
v 4.295654 0.8356247 4.68409
v -2.118446 3.080566 5.646202
v 4.295654 3.080566 5.646202
v -2.118446 5.806557 7.249733
v 4.295654 5.806557 7.249733
v -2.118446 -2.692131 5.165146
v 4.295654 0.8356247 5.004791
v 4.295654 -2.692131 5.165146
v -2.118446 0.8356247 5.004791
v 4.295654 3.080566 5.966911
v -2.118446 3.080566 5.966911
v 4.295654 5.806557 7.570435
v -2.118446 5.806557 7.570435
v -2.118446 5.806557 7.570435
v -2.118446 7.570435 7.730789
v -2.118446 7.570435 8.051491
v -2.118446 5.806557 7.249733
v -2.118446 9.173958 7.41008
v -2.118446 9.173958 7.089378
v -2.118446 11.57925 5.485855
v -2.118446 11.57925 5.806557
v -2.118446 14.30524 4.844444
v -2.118446 14.30524 4.523735
v 4.295654 5.806557 7.249733
v -2.118446 7.570435 7.730789
v -2.118446 5.806557 7.249733
v 4.295654 7.570435 7.730789
v -2.118446 9.173958 7.089378
v 4.295654 9.173958 7.089378
v -2.118446 11.57925 5.485855
v 4.295654 11.57925 5.485855
v -2.118446 14.30524 4.523735
v 4.295654 14.30524 4.523735
v -2.118446 5.806557 7.570435
v 4.295654 7.570435 8.051491
v 4.295654 5.806557 7.570435
v -2.118446 7.570435 8.051491
v 4.295654 9.173958 7.41008
v -2.118446 9.173958 7.41008
v 4.295654 11.57925 5.806557
v -2.118446 11.57925 5.806557
v 4.295654 14.30524 4.844444
v -2.118446 14.30524 4.844444
v 4.295654 11.57925 5.806557
v 4.295654 14.30524 4.523735
v 4.295654 11.57925 5.485855
v 4.295654 14.30524 4.844444
v 3.012833 -19.52915 -0.7678986
v 3.012833 -19.52915 8.211845
v 3.012833 -19.52915 -0.7678986
v 3.012833 -19.52915 8.211845
v 3.012833 -19.52915 -0.7678986
v 3.173187 -19.68951 8.211845
v 3.173187 -19.68951 -0.7678986
v 3.012833 -19.52915 8.211845
v 3.173187 -19.68951 -0.7678986
v 3.333542 -19.52915 8.211845
v 3.333542 -19.52915 -0.7678986
v 3.173187 -19.68951 8.211845
v 3.333542 -19.52915 -0.7678986
v 3.333542 -19.52915 8.211845
v 3.333542 -19.52915 -0.7678986
v 3.333542 -19.52915 8.211845
v 3.333542 -19.52915 -0.7678986
v 3.173187 -19.3688 8.211845
v 3.173187 -19.3688 -0.7678986
v 3.333542 -19.52915 8.211845
v 3.173187 -19.3688 -0.7678986
v 3.012833 -19.52915 8.211845
v 3.012833 -19.52915 -0.7678986
v 3.173187 -19.3688 8.211845
v 3.012833 -19.52915 8.211845
v 3.173187 -19.52915 8.3722
v 3.012833 -19.52915 8.211845
v 3.173187 -19.3688 8.211845
v 3.012833 -19.52915 8.211845
v 3.173187 -19.52915 8.3722
v 3.173187 -19.68951 8.211845
v 3.333542 -19.52915 8.211845
v 3.333542 -19.52915 8.211845
v 3.173187 -19.52915 8.3722
v 3.333542 -19.52915 8.211845
v 3.173187 -19.3688 8.211845
v -1.63739 -8.625175 -0.447197
v -1.63739 -8.625175 6.929024
v -1.63739 -8.625175 -0.447197
v -1.63739 -8.625175 6.929024
v -1.477036 -8.625175 6.929024
v -1.477036 -8.625175 -0.447197
v -1.477036 -8.464821 -0.447197
v -1.477036 -8.464821 6.929024
v -1.477036 -8.625175 -0.447197
v -1.477036 -8.625175 6.929024
v -1.477036 -8.625175 -0.447197
v -1.477036 -8.625175 6.929024
v -1.477036 -8.625175 6.929024
v -1.477036 -8.625175 -0.447197
v -1.477036 -8.464821 6.929024
v -1.477036 -8.464821 -0.447197
v -1.63739 5.3255 -0.2868423
v -1.63739 5.165146 6.929024
v -1.63739 5.165146 -0.2868423
v -1.63739 5.3255 6.929024
v -1.477036 5.3255 -0.2868423
v -1.477036 5.3255 6.929024
v -1.63739 5.165146 -0.2868423
v -1.477036 5.165146 6.929024
v -1.477036 5.165146 -0.2868423
v -1.63739 5.165146 6.929024
v -1.477036 5.165146 -0.2868423
v -1.477036 5.165146 6.929024
v -1.477036 5.165146 -0.2868423
v -1.477036 5.165146 6.929024
v -1.477036 5.3255 6.929024
v -1.477036 5.3255 -0.2868423
v -1.477036 5.3255 6.929024
v -1.477036 5.3255 -0.2868423
v -1.63739 12.22066 -0.2868423
v -1.63739 12.22066 5.485855
v -1.63739 12.22066 -0.2868423
v -1.63739 12.22066 5.485855
v -1.477036 12.38101 -0.2868423
v -1.477036 12.38101 5.485855
v -1.63739 12.22066 -0.2868423
v -1.477036 12.06031 5.485855
v -1.477036 12.06031 -0.2868423
v -1.63739 12.22066 5.485855
v -1.477036 12.06031 -0.2868423
v -1.477036 12.22066 5.485855
v -1.477036 12.22066 -0.2868423
v -1.477036 12.06031 5.485855
v -1.477036 12.22066 5.485855
v -1.477036 12.22066 -0.2868423
v -1.477036 12.38101 5.485855
v -1.477036 12.38101 -0.2868423
v 3.012833 -19.52915 8.211845
v 3.012833 -16.80315 12.86207
v 3.012833 -19.52915 8.211845
v 3.012833 -16.80315 12.70172
v 3.173187 -19.52915 8.211845
v 3.173187 -16.64281 12.70172
v 3.012833 -19.52915 8.211845
v 3.173187 -16.96351 12.86207
v 3.173187 -19.52915 8.3722
v 3.012833 -16.80315 12.86207
v 3.173187 -19.52915 8.3722
v 3.333542 -16.80315 12.86207
v 3.333542 -19.52915 8.211845
v 3.173187 -16.96351 12.86207
v 3.333542 -16.80315 12.70172
v 3.333542 -19.52915 8.211845
v 3.173187 -16.64281 12.70172
v 3.173187 -19.52915 8.211845
v 3.012833 -19.52915 8.051491
v 3.012833 -21.77409 12.86207
v 3.012833 -19.52915 8.051491
v 3.012833 -21.61373 12.86207
v 3.173187 -19.52915 8.051491
v 3.173187 -21.61373 13.02242
v 3.012833 -19.52915 8.051491
v 3.173187 -21.77409 12.86207
v 3.173187 -19.52915 8.051491
v 3.012833 -21.77409 12.86207
v 3.173187 -19.52915 8.051491
v 3.333542 -21.77409 12.86207
v 3.333542 -19.52915 8.051491
v 3.173187 -21.77409 12.86207
v 3.333542 -21.61373 12.86207
v 3.333542 -19.52915 8.051491
v 3.173187 -21.61373 13.02242
v 3.173187 -19.52915 8.051491
v -3.401268 -6.540588 2.920212
v -3.561623 -6.540588 3.882324
v -3.561623 -6.540588 2.920212
v -3.401268 -6.540588 3.882324
v -3.401268 -6.540588 3.882324
v -3.561623 -8.304474 3.882324
v -3.561623 -6.540588 3.882324
v -3.401268 -8.304474 3.882324
v -3.401268 -8.304474 3.882324
v -3.561623 -8.304474 2.920212
v -3.561623 -8.304474 3.882324
v -3.401268 -8.304474 2.920212
v -3.401268 -8.304474 2.920212
v -3.561623 -6.540588 2.920212
v -3.561623 -8.304474 2.920212
v -3.401268 -6.540588 2.920212
v -3.561623 -6.540588 2.920212
v -3.561623 -8.304474 3.882324
v -3.561623 -8.304474 2.920212
v -3.561623 -6.540588 3.882324
v -3.401268 -8.304474 2.920212
v -3.401268 -6.540588 3.882324
v -3.401268 -6.540588 2.920212
v -3.401268 -8.304474 3.882324
v -3.401268 -14.87893 0.1942139
v -3.721977 -14.87893 2.118446
v -3.721977 -14.87893 0.1942139
v -3.401268 -14.87893 2.118446
v -3.401268 -14.87893 2.118446
v -3.721977 -16.3221 2.118446
v -3.721977 -14.87893 2.118446
v -3.401268 -16.3221 2.118446
v -3.401268 -16.3221 2.118446
v -3.721977 -16.3221 0.1942139
v -3.721977 -16.3221 2.118446
v -3.401268 -16.3221 0.1942139
v -3.401268 -16.3221 0.1942139
v -3.721977 -14.87893 0.1942139
v -3.721977 -16.3221 0.1942139
v -3.401268 -14.87893 0.1942139
v -3.721977 -14.87893 0.1942139
v -3.721977 -16.3221 2.118446
v -3.721977 -16.3221 0.1942139
v -3.721977 -14.87893 2.118446
v -3.401268 -16.3221 0.1942139
v -3.401268 -14.87893 2.118446
v -3.401268 -14.87893 0.1942139
v -3.401268 -16.3221 2.118446
v -3.561623 -6.540588 0.1942139
v -3.401268 -6.540588 3.401268
v -3.401268 -6.540588 0.1942139
v -3.561623 -6.540588 3.401268
v -3.401268 -6.540588 0.1942139
v -3.401268 -6.380241 3.401268
v -3.401268 -6.380241 0.1942139
v -3.401268 -6.540588 3.401268
v -3.401268 -6.380241 0.1942139
v -3.561623 -6.380241 3.401268
v -3.561623 -6.380241 0.1942139
v -3.401268 -6.380241 3.401268
v -3.561623 -6.380241 0.1942139
v -3.561623 -6.540588 3.401268
v -3.561623 -6.540588 0.1942139
v -3.561623 -6.380241 3.401268
v -3.561623 -6.540588 0.1942139
v -3.561623 -6.540588 3.401268
v -3.561623 -6.540588 0.1942139
v -3.561623 -6.540588 3.401268
v -3.561623 -6.540588 3.401268
v -3.401268 -6.380241 3.401268
v -3.401268 -6.540588 3.401268
v -3.561623 -6.540588 3.401268
v -3.561623 -6.380241 3.401268
v -3.401268 -5.578476 2.920212
v -3.561623 -5.578476 3.882324
v -3.561623 -5.578476 2.920212
v -3.401268 -5.578476 3.882324
v -3.401268 -5.578476 3.882324
v -3.561623 -6.380241 3.882324
v -3.561623 -5.578476 3.882324
v -3.401268 -6.380241 3.882324
v -3.401268 -6.380241 3.882324
v -3.561623 -6.380241 2.920212
v -3.561623 -6.380241 3.882324
v -3.401268 -6.380241 2.920212
v -3.401268 -6.380241 2.920212
v -3.561623 -5.578476 2.920212
v -3.561623 -6.380241 2.920212
v -3.401268 -5.578476 2.920212
v -3.561623 -5.578476 2.920212
v -3.561623 -6.380241 3.882324
v -3.561623 -6.380241 2.920212
v -3.561623 -5.578476 3.882324
v -3.401268 -6.380241 2.920212
v -3.401268 -5.578476 3.882324
v -3.401268 -5.578476 2.920212
v -3.401268 -6.380241 3.882324
v -1.156334 1.477036 5.966911
v -1.316689 1.477036 6.929024
v -1.316689 1.477036 5.966911
v -1.156334 1.477036 6.929024
v -1.156334 1.477036 6.929024
v -1.316689 -2.531776 6.929024
v -1.316689 1.477036 6.929024
v -1.156334 -2.531776 6.929024
v -1.156334 -2.531776 6.929024
v -1.316689 -2.531776 5.966911
v -1.316689 -2.531776 6.929024
v -1.156334 -2.531776 5.966911
v -1.156334 -2.531776 5.966911
v -1.316689 1.477036 5.966911
v -1.316689 -2.531776 5.966911
v -1.156334 1.477036 5.966911
v -1.316689 1.477036 5.966911
v -1.316689 -2.531776 6.929024
v -1.316689 -2.531776 5.966911
v -1.316689 1.477036 6.929024
v -1.156334 -2.531776 5.966911
v -1.156334 1.477036 6.929024
v -1.156334 1.477036 5.966911
v -1.156334 -2.531776 6.929024
v 17.92563 -24.82079 12.70172
v 17.92563 -18.24633 13.18278
v 17.92563 -18.24633 12.86207
v 17.92563 -24.82079 13.02242
v 17.92563 -15.03928 12.22066
v 17.92563 -15.03928 12.54137
v 17.92563 -12.15293 10.93784
v 17.92563 -12.15293 11.25854
v 17.92563 -24.82079 13.02242
v 1.890366 -18.24633 13.18278
v 17.92563 -18.24633 13.18278
v 1.890366 -24.82079 13.02242
v 17.92563 -15.03928 12.54137
v 1.890366 -15.03928 12.54137
v 17.92563 -12.15293 11.25854
v 1.890366 -12.15293 11.25854
v 1.890366 -24.82079 13.02242
v 1.890366 -18.24633 12.86207
v 1.890366 -18.24633 13.18278
v 1.890366 -24.82079 12.70172
v 1.890366 -15.03928 12.22066
v 1.890366 -15.03928 12.54137
v 1.890366 -12.15293 11.25854
v 1.890366 -12.15293 10.93784
v 1.890366 -24.82079 12.70172
v 17.92563 -18.24633 12.86207
v 1.890366 -18.24633 12.86207
v 17.92563 -24.82079 12.70172
v 1.890366 -15.03928 12.22066
v 17.92563 -15.03928 12.22066
v 1.890366 -12.15293 10.93784
v 17.92563 -12.15293 10.93784
v 17.92563 16.87089 7.41008
v 1.890366 16.87089 7.730789
v 1.890366 16.87089 7.41008
v 17.92563 16.87089 7.730789
v 1.890366 -24.82079 12.70172
v 17.92563 -24.82079 13.02242
v 17.92563 -24.82079 12.70172
v 1.890366 -24.82079 13.02242
v 1.890366 -2.692131 7.891144
v 1.890366 -0.1264877 9.173958
v 1.890366 -0.1264877 9.494667
v 1.890366 -2.692131 7.570435
v 1.890366 3.882324 9.815369
v 1.890366 3.882324 10.13608
v 1.890366 -4.937065 7.41008
v 1.890366 -4.937065 7.730789
v 1.890366 -7.663063 8.3722
v 1.890366 -7.663063 8.051491
v 1.890366 -12.15293 11.25854
v 1.890366 -12.15293 10.93784
v 17.92563 -2.692131 7.570435
v 1.890366 -0.1264877 9.173958
v 1.890366 -2.692131 7.570435
v 17.92563 -0.1264877 9.173958
v 1.890366 3.882324 9.815369
v 17.92563 3.882324 9.815369
v 17.92563 -4.937065 7.41008
v 1.890366 -4.937065 7.41008
v 17.92563 -7.663063 8.051491
v 1.890366 -7.663063 8.051491
v 17.92563 -12.15293 10.93784
v 1.890366 -12.15293 10.93784
v 17.92563 -2.692131 7.891144
v 17.92563 -0.1264877 9.173958
v 17.92563 -2.692131 7.570435
v 17.92563 -0.1264877 9.494667
v 17.92563 3.882324 9.815369
v 17.92563 3.882324 10.13608
v 17.92563 -4.937065 7.730789
v 17.92563 -4.937065 7.41008
v 17.92563 -7.663063 8.3722
v 17.92563 -7.663063 8.051491
v 17.92563 -12.15293 11.25854
v 17.92563 -12.15293 10.93784
v 1.890366 -2.692131 7.891144
v 17.92563 -0.1264877 9.494667
v 17.92563 -2.692131 7.891144
v 1.890366 -0.1264877 9.494667
v 17.92563 3.882324 10.13608
v 1.890366 3.882324 10.13608
v 1.890366 -4.937065 7.730789
v 17.92563 -4.937065 7.730789
v 1.890366 -7.663063 8.3722
v 17.92563 -7.663063 8.3722
v 1.890366 -12.15293 11.25854
v 17.92563 -12.15293 11.25854
v 1.890366 3.882324 10.13608
v 1.890366 7.891144 9.013611
v 1.890366 7.891144 9.334312
v 1.890366 3.882324 9.815369
v 1.890366 10.29643 7.41008
v 1.890366 10.29643 7.730789
v 1.890366 13.66383 6.929024
v 1.890366 13.66383 7.249733
v 1.890366 16.87089 7.41008
v 1.890366 16.87089 7.730789
v 17.92563 3.882324 9.815369
v 1.890366 7.891144 9.013611
v 1.890366 3.882324 9.815369
v 17.92563 7.891144 9.013611
v 1.890366 10.29643 7.41008
v 17.92563 10.29643 7.41008
v 1.890366 13.66383 6.929024
v 17.92563 13.66383 6.929024
v 1.890366 16.87089 7.41008
v 17.92563 16.87089 7.41008
v 17.92563 3.882324 10.13608
v 17.92563 7.891144 9.013611
v 17.92563 3.882324 9.815369
v 17.92563 7.891144 9.334312
v 17.92563 10.29643 7.41008
v 17.92563 10.29643 7.730789
v 17.92563 13.66383 6.929024
v 17.92563 13.66383 7.249733
v 17.92563 16.87089 7.41008
v 17.92563 16.87089 7.730789
v 1.890366 3.882324 10.13608
v 17.92563 7.891144 9.334312
v 17.92563 3.882324 10.13608
v 1.890366 7.891144 9.334312
v 17.92563 10.29643 7.730789
v 1.890366 10.29643 7.730789
v 17.92563 13.66383 7.249733
v 1.890366 13.66383 7.249733
v 17.92563 16.87089 7.730789
v 1.890366 16.87089 7.730789
v 3.814598 -2.692131 7.730789
v 3.814598 -0.1264877 -0.2868423
v 3.814598 -0.1264877 9.173958
v 3.814598 -2.692131 -0.2868423
v 3.814598 -4.937065 7.41008
v 3.814598 -4.937065 -0.2868423
v 3.814598 -7.663063 8.051491
v 3.814598 -7.663063 -0.2868423
v 3.814598 -12.15293 -0.2868423
v 3.814598 -12.15293 10.93784
v 15.84104 -0.1264877 9.173958
v 15.84104 -2.692131 -0.2868423
v 15.84104 -2.692131 7.730789
v 15.84104 -0.1264877 -0.2868423
v 15.84104 -4.937065 -0.2868423
v 15.84104 -4.937065 7.41008
v 15.84104 -7.663063 -0.2868423
v 15.84104 -7.663063 8.051491
v 15.84104 -12.15293 10.93784
v 15.84104 -12.15293 -0.2868423
v 3.814598 3.882324 9.975723
v 3.814598 7.891144 -0.2868423
v 3.814598 7.891144 9.013611
v 3.814598 3.882324 -0.2868423
v 3.814598 -0.1264877 9.173958
v 3.814598 -0.1264877 -0.2868423
v 3.814598 10.29643 -0.2868423
v 3.814598 10.29643 7.570435
v 3.814598 13.66383 -0.2868423
v 3.814598 13.66383 6.929024
v 15.84104 7.891144 9.013611
v 15.84104 3.882324 -0.2868423
v 15.84104 3.882324 9.975723
v 15.84104 7.891144 -0.2868423
v 15.84104 -0.1264877 -0.2868423
v 15.84104 -0.1264877 9.173958
v 15.84104 10.29643 7.570435
v 15.84104 10.29643 -0.2868423
v 15.84104 13.66383 6.929024
v 15.84104 13.66383 -0.2868423
v 3.814598 13.66383 6.929024
v 15.84104 13.66383 -0.2868423
v 15.84104 13.66383 6.929024
v 3.814598 13.66383 -0.2868423
v 15.84104 -12.15293 10.93784
v 3.814598 -12.15293 -0.2868423
v 3.814598 -12.15293 10.93784
v 15.84104 -12.15293 -0.2868423
v -1.156334 0.6752777 4.844444
v -1.156334 0.6752777 5.966911
v -1.156334 0.6752777 4.844444
v -1.156334 0.6752777 5.966911
v -1.156334 0.6752777 4.844444
v -1.156334 0.6752777 5.966911
v -1.156334 0.6752777 4.844444
v -1.156334 0.6752777 5.966911
v -1.156334 0.6752777 4.844444
v -1.156334 0.6752777 5.966911
v -1.156334 0.6752777 4.844444
v -1.156334 0.6752777 5.966911
v -1.156334 0.6752777 4.844444
v -1.156334 0.6752777 5.966911
v -1.156334 0.6752777 4.844444
v -1.156334 0.6752777 5.966911
v -1.156334 0.6752777 4.844444
v -1.156334 0.6752777 5.966911
v -1.156334 0.6752777 5.966911
v -1.156334 0.6752777 4.844444
v -1.156334 -1.890366 4.844444
v -1.156334 -1.890366 5.966911
v -1.156334 -1.890366 4.844444
v -1.156334 -1.890366 5.966911
v -1.156334 -1.890366 4.844444
v -1.156334 -1.890366 5.966911
v -1.156334 -1.890366 4.844444
v -1.156334 -1.890366 5.966911
v -1.156334 -1.890366 4.844444
v -1.156334 -1.890366 5.966911
v -1.156334 -1.890366 4.844444
v -1.156334 -1.890366 5.966911
v -1.156334 -1.890366 4.844444
v -1.156334 -1.890366 5.966911
v -1.156334 -1.890366 4.844444
v -1.156334 -1.890366 5.966911
v -1.156334 -1.890366 4.844444
v -1.156334 -1.890366 5.966911
v -1.156334 -1.890366 5.966911
v -1.156334 -1.890366 4.844444
v 16.48245 -19.52915 -0.7678986
v 16.48245 -19.52915 8.211845
v 16.48245 -19.52915 -0.7678986
v 16.48245 -19.52915 8.211845
v 16.48245 -19.52915 -0.7678986
v 16.64281 -19.68951 8.211845
v 16.64281 -19.68951 -0.7678986
v 16.48245 -19.52915 8.211845
v 16.64281 -19.68951 -0.7678986
v 16.80315 -19.52915 8.211845
v 16.80315 -19.52915 -0.7678986
v 16.64281 -19.68951 8.211845
v 16.80315 -19.52915 -0.7678986
v 16.80315 -19.52915 8.211845
v 16.80315 -19.52915 -0.7678986
v 16.80315 -19.52915 8.211845
v 16.80315 -19.52915 -0.7678986
v 16.64281 -19.3688 8.211845
v 16.64281 -19.3688 -0.7678986
v 16.80315 -19.52915 8.211845
v 16.64281 -19.3688 -0.7678986
v 16.48245 -19.52915 8.211845
v 16.48245 -19.52915 -0.7678986
v 16.64281 -19.3688 8.211845
v 16.48245 -19.52915 8.211845
v 16.64281 -19.52915 8.3722
v 16.48245 -19.52915 8.211845
v 16.64281 -19.3688 8.211845
v 16.48245 -19.52915 8.211845
v 16.64281 -19.52915 8.3722
v 16.64281 -19.68951 8.211845
v 16.80315 -19.52915 8.211845
v 16.80315 -19.52915 8.211845
v 16.64281 -19.52915 8.3722
v 16.80315 -19.52915 8.211845
v 16.64281 -19.3688 8.211845
v 16.48245 -19.52915 8.211845
v 16.48245 -16.80315 12.86207
v 16.48245 -19.52915 8.211845
v 16.48245 -16.80315 12.70172
v 16.64281 -19.52915 8.211845
v 16.64281 -16.64281 12.70172
v 16.48245 -19.52915 8.211845
v 16.64281 -16.96351 12.86207
v 16.64281 -19.52915 8.3722
v 16.48245 -16.80315 12.86207
v 16.64281 -19.52915 8.3722
v 16.80315 -16.80315 12.86207
v 16.80315 -19.52915 8.211845
v 16.64281 -16.96351 12.86207
v 16.80315 -16.80315 12.70172
v 16.80315 -19.52915 8.211845
v 16.64281 -16.64281 12.70172
v 16.64281 -19.52915 8.211845
v 16.48245 -19.52915 8.051491
v 16.48245 -21.77409 12.86207
v 16.48245 -19.52915 8.051491
v 16.48245 -21.61373 12.86207
v 16.64281 -19.52915 8.051491
v 16.64281 -21.61373 13.02242
v 16.48245 -19.52915 8.051491
v 16.64281 -21.77409 12.86207
v 16.64281 -19.52915 8.051491
v 16.48245 -21.77409 12.86207
v 16.64281 -19.52915 8.051491
v 16.80315 -21.77409 12.86207
v 16.80315 -19.52915 8.051491
v 16.64281 -21.77409 12.86207
v 16.80315 -21.61373 12.86207
v 16.80315 -19.52915 8.051491
v 16.64281 -21.61373 13.02242
v 16.64281 -19.52915 8.051491
vt 0.002652377 0.07024439
vt 0.4023269 0.2612653
vt 0.4023269 0.07024439
vt 0.002652377 0.2612653
vt 0.002652377 0.2818367
vt 0.4023269 0.3406124
vt 0.4023269 0.2818367
vt 0.002652377 0.3406124
vt 0.002652377 0.2612653
vt 0.4023269 0.2818367
vt 0.4023269 0.2612653
vt 0.002652377 0.2818367
vt 0.002652377 0.07024439
vt 0.4023269 0.2612653
vt 0.4023269 0.07024439
vt 0.002652377 0.2612653
vt 0.002652377 0.2818367
vt 0.4023269 0.2612653
vt 0.002652377 0.2612653
vt 0.4023269 0.2818367
vt 0.002652377 0.3406124
vt 0.4023269 0.2818367
vt 0.002652377 0.2818367
vt 0.4023269 0.3406124
vt 0.002652377 0.07024439
vt 0.4023269 0.2612653
vt 0.4023269 0.07024439
vt 0.002652377 0.2612653
vt 0.002652377 0.2818367
vt 0.4023269 0.2612653
vt 0.002652377 0.2612653
vt 0.4023269 0.2818367
vt 0.002652377 0.3406124
vt 0.4023269 0.2818367
vt 0.002652377 0.2818367
vt 0.4023269 0.3406124
vt 0.002652377 0.07024439
vt 0.4023269 0.2612653
vt 0.4023269 0.07024439
vt 0.002652377 0.2612653
vt 0.002652377 0.2818367
vt 0.4023269 0.2612653
vt 0.002652377 0.2612653
vt 0.4023269 0.2818367
vt 0.002652377 0.3406124
vt 0.4023269 0.2818367
vt 0.002652377 0.2818367
vt 0.4023269 0.3406124
vt 0.4023269 0.07024439
vt 0.002652377 0.2612653
vt 0.002652377 0.07024439
vt 0.4023269 0.2612653
vt 0.4023269 0.2818367
vt 0.002652377 0.2612653
vt 0.4023269 0.2612653
vt 0.002652377 0.2818367
vt 0.4023269 0.3406124
vt 0.002652377 0.2818367
vt 0.4023269 0.2818367
vt 0.002652377 0.3406124
vt 0.4023269 0.07024439
vt 0.002652377 0.2612653
vt 0.002652377 0.07024439
vt 0.4023269 0.2612653
vt 0.4023269 0.2818367
vt 0.002652377 0.2612653
vt 0.4023269 0.2612653
vt 0.002652377 0.2818367
vt 0.4023269 0.3406124
vt 0.002652377 0.2818367
vt 0.4023269 0.2818367
vt 0.002652377 0.3406124
vt 0.4023269 0.07024439
vt 0.002652377 0.2612653
vt 0.002652377 0.07024439
vt 0.4023269 0.2612653
vt 0.4023269 0.2818367
vt 0.002652377 0.2612653
vt 0.4023269 0.2612653
vt 0.002652377 0.2818367
vt 0.4023269 0.3406124
vt 0.002652377 0.2818367
vt 0.4023269 0.2818367
vt 0.002652377 0.3406124
vt 0.4023269 0.07024439
vt 0.002652377 0.002652377
vt 0.002652377 0.07024439
vt 0.4023269 0.002652377
vt 0.4023269 0.07024439
vt 0.002652377 0.002652377
vt 0.002652377 0.07024439
vt 0.4023269 0.002652377
vt 0.4023269 0.07024439
vt 0.002652377 0.002652377
vt 0.002652377 0.07024439
vt 0.4023269 0.002652377
vt 0.4023269 0.07024439
vt 0.002652377 0.002652377
vt 0.002652377 0.07024439
vt 0.4023269 0.002652377
vt 0.002652377 0.07024439
vt 0.4023269 0.002652377
vt 0.4023269 0.07024439
vt 0.002652377 0.002652377
vt 0.002652377 0.07024439
vt 0.4023269 0.002652377
vt 0.4023269 0.07024439
vt 0.002652377 0.002652377
vt 0.002652377 0.07024439
vt 0.4023269 0.002652377
vt 0.4023269 0.07024439
vt 0.002652377 0.002652377
vt 0.002652377 0.07024439
vt 0.4023269 0.2612653
vt 0.002652377 0.2612653
vt 0.4023269 0.07024439
vt 0.002652377 0.2818367
vt 0.4023269 0.3406124
vt 0.002652377 0.3406124
vt 0.4023269 0.2818367
vt 0.002652377 0.2612653
vt 0.4023269 0.2818367
vt 0.002652377 0.2818367
vt 0.4023269 0.2612653
vt 0.002652377 0.07024439
vt 0.4023269 0.2612653
vt 0.002652377 0.2612653
vt 0.4023269 0.07024439
vt 0.002652377 0.2818367
vt 0.4023269 0.2612653
vt 0.4023269 0.2818367
vt 0.002652377 0.2612653
vt 0.002652377 0.3406124
vt 0.4023269 0.2818367
vt 0.4023269 0.3406124
vt 0.002652377 0.2818367
vt 0.002652377 0.07024439
vt 0.4023269 0.2612653
vt 0.002652377 0.2612653
vt 0.4023269 0.07024439
vt 0.002652377 0.2818367
vt 0.4023269 0.2612653
vt 0.4023269 0.2818367
vt 0.002652377 0.2612653
vt 0.002652377 0.3406124
vt 0.4023269 0.2818367
vt 0.4023269 0.3406124
vt 0.002652377 0.2818367
vt 0.002652377 0.07024439
vt 0.4023269 0.2612653
vt 0.002652377 0.2612653
vt 0.4023269 0.07024439
vt 0.002652377 0.2818367
vt 0.4023269 0.2612653
vt 0.4023269 0.2818367
vt 0.002652377 0.2612653
vt 0.002652377 0.3406124
vt 0.4023269 0.2818367
vt 0.4023269 0.3406124
vt 0.002652377 0.2818367
vt 0.4023269 0.07024439
vt 0.002652377 0.2612653
vt 0.4023269 0.2612653
vt 0.002652377 0.07024439
vt 0.4023269 0.2818367
vt 0.002652377 0.2612653
vt 0.002652377 0.2818367
vt 0.4023269 0.2612653
vt 0.4023269 0.3406124
vt 0.002652377 0.2818367
vt 0.002652377 0.3406124
vt 0.4023269 0.2818367
vt 0.4023269 0.07024439
vt 0.002652377 0.2612653
vt 0.4023269 0.2612653
vt 0.002652377 0.07024439
vt 0.4023269 0.2818367
vt 0.002652377 0.2612653
vt 0.002652377 0.2818367
vt 0.4023269 0.2612653
vt 0.4023269 0.3406124
vt 0.002652377 0.2818367
vt 0.002652377 0.3406124
vt 0.4023269 0.2818367
vt 0.4023269 0.07024439
vt 0.002652377 0.2612653
vt 0.4023269 0.2612653
vt 0.002652377 0.07024439
vt 0.4023269 0.2818367
vt 0.002652377 0.2612653
vt 0.002652377 0.2818367
vt 0.4023269 0.2612653
vt 0.4023269 0.3406124
vt 0.002652377 0.2818367
vt 0.002652377 0.3406124
vt 0.4023269 0.2818367
vt 0.4023269 0.07024439
vt 0.002652377 0.002652377
vt 0.4023269 0.002652377
vt 0.002652377 0.07024439
vt 0.4023269 0.07024439
vt 0.002652377 0.002652377
vt 0.4023269 0.002652377
vt 0.002652377 0.07024439
vt 0.4023269 0.07024439
vt 0.002652377 0.002652377
vt 0.4023269 0.002652377
vt 0.002652377 0.07024439
vt 0.4023269 0.07024439
vt 0.002652377 0.002652377
vt 0.4023269 0.002652377
vt 0.002652377 0.07024439
vt 0.002652377 0.07024439
vt 0.4023269 0.002652377
vt 0.002652377 0.002652377
vt 0.4023269 0.07024439
vt 0.002652377 0.07024439
vt 0.4023269 0.002652377
vt 0.002652377 0.002652377
vt 0.4023269 0.07024439
vt 0.002652377 0.07024439
vt 0.4023269 0.002652377
vt 0.002652377 0.002652377
vt 0.4023269 0.07024439
vt 0.5904089 0.02028507
vt 0.7167766 0.2201223
vt 0.7167766 0.02028507
vt 0.5904089 0.2201223
vt 0.4904903 0.2201223
vt 0.4904903 0.02028507
vt 0.5345721 0.07612195
vt 0.6638786 0.08787708
vt 0.6638786 0.07612195
vt 0.5345721 0.08787708
vt 0.4258371 0.07612195
vt 0.4258371 0.08787708
vt 0.5904089 0.2201223
vt 0.7167766 0.02028507
vt 0.7167766 0.2201223
vt 0.5904089 0.02028507
vt 0.4904903 0.02028507
vt 0.4904903 0.2201223
vt 0.5815926 0.00559116
vt 0.5698375 0.2083672
vt 0.5815926 0.2083672
vt 0.5698375 0.00559116
vt 0.6697561 0.02028507
vt 0.6580009 0.2230611
vt 0.6697561 0.2230611
vt 0.6580009 0.02028507
vt 0.7491032 0.08199952
vt 0.6344907 0.07612195
vt 0.6344907 0.08199952
vt 0.7491032 0.07612195
vt 0.56396 0.07612195
vt 0.56396 0.08199952
vt 0.481674 0.08199952
vt 0.481674 0.07612195
vt 0.7491032 0.2201223
vt 0.6374295 0.02028507
vt 0.7491032 0.02028507
vt 0.6374295 0.2201223
vt 0.5668987 0.02028507
vt 0.5668987 0.2201223
vt 0.4846128 0.02028507
vt 0.4846128 0.2201223
vt 0.7491032 0.02028507
vt 0.6374295 0.2201223
vt 0.7491032 0.2201223
vt 0.6374295 0.02028507
vt 0.5668987 0.2201223
vt 0.5668987 0.02028507
vt 0.4846128 0.2201223
vt 0.4846128 0.02028507
vt 0.7491032 0.08787708
vt 0.6962051 0.07612195
vt 0.6962051 0.08787708
vt 0.7491032 0.07612195
vt 0.6403682 0.08787708
vt 0.6403682 0.07612195
vt 0.5580823 0.07612195
vt 0.5580823 0.08787708
vt 0.481674 0.08787708
vt 0.481674 0.07612195
vt 0.7461644 0.2201223
vt 0.6932664 0.02028507
vt 0.7461644 0.02028507
vt 0.6932664 0.2201223
vt 0.6403682 0.02028507
vt 0.6403682 0.2201223
vt 0.5668987 0.02028507
vt 0.5668987 0.2201223
vt 0.4904903 0.02028507
vt 0.4904903 0.2201223
vt 0.7461644 0.02028507
vt 0.6932664 0.2201223
vt 0.7461644 0.2201223
vt 0.6932664 0.02028507
vt 0.6403682 0.2201223
vt 0.6403682 0.02028507
vt 0.5668987 0.2201223
vt 0.5668987 0.02028507
vt 0.4904903 0.2201223
vt 0.4904903 0.02028507
vt 0.56396 0.08787708
vt 0.4846128 0.07612195
vt 0.56396 0.07612195
vt 0.4846128 0.08787708
vt 0.3964493 0.4904903
vt 0.4023269 0.3523676
vt 0.4023269 0.4904903
vt 0.3964493 0.3523676
vt 0.4023269 0.4904903
vt 0.3964493 0.3523676
vt 0.3964493 0.4904903
vt 0.4023269 0.3523676
vt 0.3964493 0.4904903
vt 0.4023269 0.3523676
vt 0.4023269 0.4904903
vt 0.3964493 0.3523676
vt 0.4023269 0.4904903
vt 0.3964493 0.3523676
vt 0.3964493 0.4904903
vt 0.4023269 0.3523676
vt 0.3964493 0.4904903
vt 0.4023269 0.3523676
vt 0.4023269 0.4904903
vt 0.3964493 0.3523676
vt 0.4023269 0.4904903
vt 0.3964493 0.3523676
vt 0.3964493 0.4904903
vt 0.4023269 0.3523676
vt 0.3993881 0.3641227
vt 0.3993881 0.3553063
vt 0.3964493 0.3641227
vt 0.4023269 0.3553063
vt 0.3964493 0.3641227
vt 0.3993881 0.3553063
vt 0.3905717 0.3553063
vt 0.3964493 0.3523676
vt 0.3964493 0.3523676
vt 0.3993881 0.3553063
vt 0.3993881 0.3523676
vt 0.4023269 0.3553063
vt 0.3964493 0.3494288
vt 0.3993881 0.4904903
vt 0.3993881 0.3494288
vt 0.3964493 0.4904903
vt 0.4023269 0.4904903
vt 0.4023269 0.3494288
vt 0.3905717 0.3494288
vt 0.3905717 0.4904903
vt 0.4023269 0.3494288
vt 0.3993881 0.4904903
vt 0.3993881 0.3494288
vt 0.4023269 0.4904903
vt 0.3964493 0.4904903
vt 0.3964493 0.3494288
vt 0.3905717 0.4904903
vt 0.3905717 0.3494288
vt 0.3964493 0.3494288
vt 0.3993881 0.4904903
vt 0.3993881 0.3494288
vt 0.3964493 0.4904903
vt 0.3905717 0.3494288
vt 0.3905717 0.4904903
vt 0.3993881 0.3494288
vt 0.4023269 0.4904903
vt 0.4023269 0.3494288
vt 0.3993881 0.4904903
vt 0.4023269 0.3494288
vt 0.3993881 0.4904903
vt 0.3993881 0.3494288
vt 0.4023269 0.4904903
vt 0.3964493 0.4904903
vt 0.3964493 0.3494288
vt 0.3905717 0.4904903
vt 0.3905717 0.3494288
vt 0.3964493 0.3494288
vt 0.3993881 0.4904903
vt 0.3993881 0.3494288
vt 0.3964493 0.4904903
vt 0.3905717 0.3494288
vt 0.3905717 0.4904903
vt 0.3993881 0.3494288
vt 0.4023269 0.4904903
vt 0.4023269 0.3494288
vt 0.3993881 0.4904903
vt 0.4023269 0.3494288
vt 0.3993881 0.4904903
vt 0.3993881 0.3494288
vt 0.4023269 0.4904903
vt 0.3964493 0.4904903
vt 0.3964493 0.3494288
vt 0.3905717 0.4904903
vt 0.3905717 0.3494288
vt 0.3964493 0.3494288
vt 0.3993881 0.4904903
vt 0.3993881 0.3494288
vt 0.3964493 0.4904903
vt 0.3905717 0.3494288
vt 0.3905717 0.4904903
vt 0.3993881 0.3494288
vt 0.4023269 0.4904903
vt 0.4023269 0.3494288
vt 0.3993881 0.4904903
vt 0.4023269 0.3494288
vt 0.3993881 0.4904903
vt 0.3993881 0.3494288
vt 0.4023269 0.4904903
vt 0.3964493 0.4904903
vt 0.3964493 0.3494288
vt 0.3905717 0.4904903
vt 0.3905717 0.3494288
vt 0.3964493 0.3494288
vt 0.3993881 0.4904903
vt 0.3993881 0.3494288
vt 0.3964493 0.4904903
vt 0.3905717 0.3494288
vt 0.3905717 0.4904903
vt 0.3993881 0.3494288
vt 0.4023269 0.4904903
vt 0.4023269 0.3494288
vt 0.3993881 0.4904903
vt 0.4023269 0.3494288
vt 0.3993881 0.4904903
vt 0.3993881 0.3494288
vt 0.4023269 0.4904903
vt 0.3964493 0.4904903
vt 0.3964493 0.3494288
vt 0.3905717 0.4904903
vt 0.3905717 0.3494288
vt 0.09375465 0.4199595
vt 0.1407752 0.4023269
vt 0.09375465 0.4023269
vt 0.1407752 0.4199595
vt 0.08199952 0.4199595
vt 0.1848569 0.4023269
vt 0.08199952 0.4023269
vt 0.1848569 0.4199595
vt 0.09375465 0.4199595
vt 0.1407752 0.4023269
vt 0.09375465 0.4023269
vt 0.1407752 0.4199595
vt 0.08199952 0.4199595
vt 0.1848569 0.4023269
vt 0.08199952 0.4023269
vt 0.1848569 0.4199595
vt 0.08199952 0.3523676
vt 0.1848569 0.4023269
vt 0.1848569 0.3523676
vt 0.08199952 0.4023269
vt 0.1848569 0.3523676
vt 0.08199952 0.4023269
vt 0.08199952 0.3523676
vt 0.1848569 0.4023269
vt 0.2318774 0.3523676
vt 0.2553877 0.4904903
vt 0.2553877 0.3523676
vt 0.2318774 0.4904903
vt 0.2318774 0.3523676
vt 0.2553877 0.455225
vt 0.2553877 0.3523676
vt 0.2318774 0.455225
vt 0.2553877 0.4904903
vt 0.2318774 0.3523676
vt 0.2318774 0.4904903
vt 0.2553877 0.3523676
vt 0.2553877 0.455225
vt 0.2318774 0.3523676
vt 0.2318774 0.455225
vt 0.2553877 0.3523676
vt 0.2553877 0.3523676
vt 0.3611839 0.4904903
vt 0.3611839 0.3523676
vt 0.2553877 0.4904903
vt 0.3611839 0.3523676
vt 0.2553877 0.4904903
vt 0.2553877 0.3523676
vt 0.3611839 0.4904903
vt 0.3964493 0.4846128
vt 0.3993881 0.3523676
vt 0.3993881 0.4846128
vt 0.3964493 0.3523676
vt 0.3993881 0.4846128
vt 0.3964493 0.3523676
vt 0.3964493 0.4846128
vt 0.3993881 0.3523676
vt 0.3993881 0.4846128
vt 0.3964493 0.3523676
vt 0.3964493 0.4846128
vt 0.3993881 0.3523676
vt 0.3964493 0.4846128
vt 0.3993881 0.3523676
vt 0.3993881 0.4846128
vt 0.3964493 0.3523676
vt 0.3993881 0.4846128
vt 0.3964493 0.3523676
vt 0.3964493 0.4846128
vt 0.3993881 0.3523676
vt 0.3964493 0.3611839
vt 0.3964493 0.3523676
vt 0.3905717 0.3553063
vt 0.3993881 0.3553063
vt 0.3993881 0.3523676
vt 0.008529942 0.3553063
vt 0.02322386 0.4082044
vt 0.02322386 0.3553063
vt 0.008529942 0.4082044
vt 0.008529942 0.3553063
vt 0.02322386 0.414082
vt 0.02322386 0.3553063
vt 0.008529942 0.414082
vt 0.008529942 0.3553063
vt 0.02322386 0.4082044
vt 0.02322386 0.3553063
vt 0.008529942 0.4082044
vt 0.008529942 0.3553063
vt 0.02322386 0.414082
vt 0.02322386 0.3553063
vt 0.008529942 0.414082
vt 0.02322386 0.414082
vt 0.07906073 0.3553063
vt 0.02322386 0.3553063
vt 0.07906073 0.414082
vt 0.02322386 0.414082
vt 0.07906073 0.3553063
vt 0.02322386 0.3553063
vt 0.07906073 0.414082
vt 0.002652377 0.4934291
vt 0.05555047 0.481674
vt 0.002652377 0.481674
vt 0.05555047 0.4934291
vt 0.002652377 0.4934291
vt 0.2289387 0.481674
vt 0.002652377 0.481674
vt 0.2289387 0.4934291
vt 0.05555047 0.481674
vt 0.002652377 0.4934291
vt 0.05555047 0.4934291
vt 0.002652377 0.481674
vt 0.2289387 0.481674
vt 0.002652377 0.4934291
vt 0.2289387 0.4934291
vt 0.002652377 0.481674
vt 0.002652377 0.4258371
vt 0.2289387 0.481674
vt 0.2289387 0.4258371
vt 0.002652377 0.481674
vt 0.2289387 0.4258371
vt 0.002652377 0.481674
vt 0.002652377 0.4258371
vt 0.2289387 0.481674
vt 0.7491032 0.09375465
vt 0.6521235 0.09963221
vt 0.6521235 0.09375465
vt 0.7491032 0.09963221
vt 0.6051029 0.09375465
vt 0.6051029 0.09963221
vt 0.56396 0.09375465
vt 0.56396 0.09963221
vt 0.4846128 0.00559116
vt 0.5815926 0.2436326
vt 0.5815926 0.00559116
vt 0.4846128 0.2436326
vt 0.6286131 0.00559116
vt 0.6286131 0.2436326
vt 0.6726949 0.00559116
vt 0.6726949 0.2436326
vt 0.7491032 0.09963221
vt 0.6521235 0.09375465
vt 0.6521235 0.09963221
vt 0.7491032 0.09375465
vt 0.6051029 0.09375465
vt 0.6051029 0.09963221
vt 0.56396 0.09963221
vt 0.56396 0.09375465
vt 0.4846128 0.2436326
vt 0.5815926 0.00559116
vt 0.5815926 0.2436326
vt 0.4846128 0.00559116
vt 0.6286131 0.2436326
vt 0.6286131 0.00559116
vt 0.6726949 0.2436326
vt 0.6726949 0.00559116
vt 0.4904903 0.2348162
vt 0.4846128 0.002652377
vt 0.4904903 0.002652377
vt 0.4846128 0.2348162
vt 0.5786538 0.2436326
vt 0.5757151 0.008529942
vt 0.5786538 0.008529942
vt 0.5757151 0.2436326
vt 0.5551436 0.102571
vt 0.5169394 0.09375465
vt 0.5169394 0.102571
vt 0.5551436 0.09375465
vt 0.4581637 0.09375465
vt 0.4581637 0.102571
vt 0.5904089 0.09375465
vt 0.5904089 0.102571
vt 0.6256744 0.102571
vt 0.6256744 0.09375465
vt 0.6962051 0.102571
vt 0.6962051 0.09375465
vt 0.5933478 0.00559116
vt 0.6344907 0.2436326
vt 0.5933478 0.2436326
vt 0.6344907 0.00559116
vt 0.6932664 0.2436326
vt 0.6932664 0.00559116
vt 0.5580823 0.00559116
vt 0.5580823 0.2436326
vt 0.522817 0.00559116
vt 0.522817 0.2436326
vt 0.455225 0.00559116
vt 0.455225 0.2436326
vt 0.5551436 0.102571
vt 0.5169394 0.09375465
vt 0.5551436 0.09375465
vt 0.5169394 0.102571
vt 0.4581637 0.09375465
vt 0.4581637 0.102571
vt 0.5904089 0.102571
vt 0.5904089 0.09375465
vt 0.6256744 0.102571
vt 0.6256744 0.09375465
vt 0.6962051 0.102571
vt 0.6962051 0.09375465
vt 0.5933478 0.2436326
vt 0.6344907 0.00559116
vt 0.5933478 0.00559116
vt 0.6344907 0.2436326
vt 0.6932664 0.00559116
vt 0.6932664 0.2436326
vt 0.5580823 0.2436326
vt 0.5580823 0.00559116
vt 0.522817 0.2436326
vt 0.522817 0.00559116
vt 0.455225 0.2436326
vt 0.455225 0.00559116
vt 0.6815113 0.09963221
vt 0.616858 0.09375465
vt 0.616858 0.09963221
vt 0.6815113 0.09375465
vt 0.5815926 0.09375465
vt 0.5786538 0.09963221
vt 0.5345721 0.09375465
vt 0.5345721 0.09963221
vt 0.4904903 0.09375465
vt 0.4904903 0.09963221
vt 0.4728577 0.00559116
vt 0.5316333 0.2436326
vt 0.4728577 0.2436326
vt 0.5316333 0.00559116
vt 0.5698375 0.2436326
vt 0.5698375 0.00559116
vt 0.616858 0.2436326
vt 0.616858 0.00559116
vt 0.6609398 0.2436326
vt 0.6609398 0.00559116
vt 0.6815113 0.09963221
vt 0.616858 0.09375465
vt 0.6815113 0.09375465
vt 0.616858 0.09963221
vt 0.5815926 0.09375465
vt 0.5786538 0.09963221
vt 0.5345721 0.09375465
vt 0.5345721 0.09963221
vt 0.4904903 0.09375465
vt 0.4904903 0.09963221
vt 0.4728577 0.2436326
vt 0.5316333 0.00559116
vt 0.4728577 0.00559116
vt 0.5316333 0.2436326
vt 0.5698375 0.00559116
vt 0.5698375 0.2436326
vt 0.616858 0.00559116
vt 0.616858 0.2436326
vt 0.6609398 0.00559116
vt 0.6609398 0.2436326
vt 0.5874702 0.3876329
vt 0.5433885 0.2553877
vt 0.5433885 0.414082
vt 0.5874702 0.2553877
vt 0.6227356 0.3846942
vt 0.6227356 0.2553877
vt 0.6609398 0.3964493
vt 0.6609398 0.2553877
vt 0.7344093 0.2553877
vt 0.7344093 0.4434698
vt 0.5433885 0.414082
vt 0.5874702 0.2553877
vt 0.5874702 0.3876329
vt 0.5433885 0.2553877
vt 0.6227356 0.2553877
vt 0.6227356 0.3846942
vt 0.6609398 0.2553877
vt 0.6609398 0.3964493
vt 0.7344093 0.4434698
vt 0.7344093 0.2553877
vt 0.6873888 0.4258371
vt 0.6227356 0.2553877
vt 0.6227356 0.4111432
vt 0.6873888 0.2553877
vt 0.7461644 0.414082
vt 0.7461644 0.2553877
vt 0.5815926 0.2553877
vt 0.5815926 0.3876329
vt 0.5316333 0.2553877
vt 0.5316333 0.3758778
vt 0.6227356 0.4111432
vt 0.6873888 0.2553877
vt 0.6873888 0.4258371
vt 0.6227356 0.2553877
vt 0.7461644 0.2553877
vt 0.7461644 0.414082
vt 0.5815926 0.3876329
vt 0.5815926 0.2553877
vt 0.5316333 0.3758778
vt 0.5316333 0.2553877
vt 0.7344093 0.4346535
vt 0.5433885 0.3141634
vt 0.5433885 0.4346535
vt 0.7344093 0.3141634
vt 0.7344093 0.4434698
vt 0.5463272 0.2553877
vt 0.5463272 0.4434698
vt 0.7344093 0.2553877
vt 0.3964493 0.3494288
vt 0.3993881 0.4904903
vt 0.3993881 0.3494288
vt 0.3964493 0.4904903
vt 0.3905717 0.3494288
vt 0.3905717 0.4904903
vt 0.3993881 0.3494288
vt 0.4023269 0.4904903
vt 0.4023269 0.3494288
vt 0.3993881 0.4904903
vt 0.4023269 0.3494288
vt 0.3993881 0.4904903
vt 0.3993881 0.3494288
vt 0.4023269 0.4904903
vt 0.3993881 0.3494288
vt 0.3964493 0.4904903
vt 0.3964493 0.3494288
vt 0.3993881 0.4904903
vt 0.3905717 0.4904903
vt 0.3905717 0.3494288
vt 0.3964493 0.3494288
vt 0.3993881 0.4904903
vt 0.3993881 0.3494288
vt 0.3964493 0.4904903
vt 0.3905717 0.3494288
vt 0.3905717 0.4904903
vt 0.3993881 0.3494288
vt 0.4023269 0.4904903
vt 0.4023269 0.3494288
vt 0.3993881 0.4904903
vt 0.4023269 0.3494288
vt 0.3993881 0.4904903
vt 0.3993881 0.3494288
vt 0.4023269 0.4904903
vt 0.3993881 0.3494288
vt 0.3964493 0.4904903
vt 0.3964493 0.3494288
vt 0.3993881 0.4904903
vt 0.3905717 0.4904903
vt 0.3905717 0.3494288
vt 0.3964493 0.4904903
vt 0.4023269 0.3523676
vt 0.4023269 0.4904903
vt 0.3964493 0.3523676
vt 0.4023269 0.4904903
vt 0.3964493 0.3523676
vt 0.3964493 0.4904903
vt 0.4023269 0.3523676
vt 0.3964493 0.4904903
vt 0.4023269 0.3523676
vt 0.4023269 0.4904903
vt 0.3964493 0.3523676
vt 0.4023269 0.4904903
vt 0.3964493 0.3523676
vt 0.3964493 0.4904903
vt 0.4023269 0.3523676
vt 0.3964493 0.4904903
vt 0.4023269 0.3523676
vt 0.4023269 0.4904903
vt 0.3964493 0.3523676
vt 0.4023269 0.4904903
vt 0.3964493 0.3523676
vt 0.3964493 0.4904903
vt 0.4023269 0.3523676
vt 0.3993881 0.3641227
vt 0.3993881 0.3553063
vt 0.3964493 0.3641227
vt 0.4023269 0.3553063
vt 0.3964493 0.3641227
vt 0.3993881 0.3553063
vt 0.3905717 0.3553063
vt 0.3964493 0.3523676
vt 0.3964493 0.3523676
vt 0.3993881 0.3553063
vt 0.3993881 0.3523676
vt 0.4023269 0.3553063
vt 0.3964493 0.3494288
vt 0.3993881 0.4904903
vt 0.3993881 0.3494288
vt 0.3964493 0.4904903
vt 0.3905717 0.3494288
vt 0.3905717 0.4904903
vt 0.3993881 0.3494288
vt 0.4023269 0.4904903
vt 0.4023269 0.3494288
vt 0.3993881 0.4904903
vt 0.4023269 0.3494288
vt 0.3993881 0.4904903
vt 0.3993881 0.3494288
vt 0.4023269 0.4904903
vt 0.3964493 0.4904903
vt 0.3964493 0.3494288
vt 0.3905717 0.4904903
vt 0.3905717 0.3494288
vt 0.3964493 0.3494288
vt 0.3993881 0.4904903
vt 0.3993881 0.3494288
vt 0.3964493 0.4904903
vt 0.3905717 0.3494288
vt 0.3905717 0.4904903
vt 0.3993881 0.3494288
vt 0.4023269 0.4904903
vt 0.4023269 0.3494288
vt 0.3993881 0.4904903
vt 0.4023269 0.3494288
vt 0.3993881 0.4904903
vt 0.3993881 0.3494288
vt 0.4023269 0.4904903
vt 0.3964493 0.4904903
vt 0.3964493 0.3494288
vt 0.3905717 0.4904903
vt 0.3905717 0.3494288
vn 0.04761302 -0.04761302 0.9977304
vn 0.04761302 -0.04761302 0.9977304
vn 0.04761302 -0.04761302 0.9977304
vn 0.04761302 -0.04761302 0.9977304
vn 0.04761302 -0.04761302 0.9977304
vn 0.04761302 -0.04761302 0.9977304
vn 0.04761302 -0.04761302 0.9977304
vn 0.04761302 -0.04761302 0.9977304
vn 0.999874 -0.01587099 -0.000346655
vn 0.999874 -0.01587099 -0.000346655
vn 0.999874 -0.01587099 -0.000346655
vn 0.999874 -0.01587099 -0.000346655
vn 0.04761302 -0.04761302 0.9977304
vn 0.04761302 -0.04761302 0.9977304
vn 0.04761302 -0.04761302 0.9977304
vn 0.04761302 -0.04761302 0.9977304
vn 0.999874 -0.01587099 -0.000346655
vn 0.999874 -0.01587099 -0.000346655
vn 0.999874 -0.01587099 -0.000346655
vn 0.999874 -0.01587099 -0.000346655
vn 0.04761302 -0.04761302 0.9977304
vn 0.04761302 -0.04761302 0.9977304
vn 0.04761302 -0.04761302 0.9977304
vn 0.04761302 -0.04761302 0.9977304
vn 0.04761302 -0.04761302 0.9977304
vn 0.04761302 -0.04761302 0.9977304
vn 0.04761302 -0.04761302 0.9977304
vn 0.04761302 -0.04761302 0.9977304
vn 0.999874 -0.01587099 -0.000346655
vn 0.999874 -0.01587099 -0.000346655
vn 0.999874 -0.01587099 -0.000346655
vn 0.999874 -0.01587099 -0.000346655
vn 0.04761302 -0.04761302 0.9977304
vn 0.04761302 -0.04761302 0.9977304
vn 0.04761302 -0.04761302 0.9977304
vn 0.04761302 -0.04761302 0.9977304
vn 0.04761302 -0.04761302 0.9977304
vn 0.04761302 -0.04761302 0.9977304
vn 0.04761302 -0.04761302 0.9977304
vn 0.04761302 -0.04761302 0.9977304
vn 0.999874 -0.01587099 -0.000346655
vn 0.999874 -0.01587099 -0.000346655
vn 0.999874 -0.01587099 -0.000346655
vn 0.999874 -0.01587099 -0.000346655
vn 0.04761302 -0.04761302 0.9977304
vn 0.04761302 -0.04761302 0.9977304
vn 0.04761302 -0.04761302 0.9977304
vn 0.04761302 -0.04761302 0.9977304
vn 0.04761302 -0.04761302 0.9977304
vn 0.04761302 -0.04761302 0.9977304
vn 0.04761302 -0.04761302 0.9977304
vn 0.04761302 -0.04761302 0.9977304
vn 0.999874 -0.01587099 -0.000346655
vn 0.999874 -0.01587099 -0.000346655
vn 0.999874 -0.01587099 -0.000346655
vn 0.999874 -0.01587099 -0.000346655
vn 0.04761302 -0.04761302 0.9977304
vn 0.04761302 -0.04761302 0.9977304
vn 0.04761302 -0.04761302 0.9977304
vn 0.04761302 -0.04761302 0.9977304
vn 0.04761302 -0.04761302 0.9977304
vn 0.04761302 -0.04761302 0.9977304
vn 0.04761302 -0.04761302 0.9977304
vn 0.04761302 -0.04761302 0.9977304
vn 0.999874 -0.01587099 -0.000346655
vn 0.999874 -0.01587099 -0.000346655
vn 0.999874 -0.01587099 -0.000346655
vn 0.999874 -0.01587099 -0.000346655
vn 0.04761302 -0.04761302 0.9977304
vn 0.04761302 -0.04761302 0.9977304
vn 0.04761302 -0.04761302 0.9977304
vn 0.04761302 -0.04761302 0.9977304
vn 0.04761302 -0.04761302 0.9977304
vn 0.04761302 -0.04761302 0.9977304
vn 0.04761302 -0.04761302 0.9977304
vn 0.04761302 -0.04761302 0.9977304
vn 0.999874 -0.01587099 -0.000346655
vn 0.999874 -0.01587099 -0.000346655
vn 0.999874 -0.01587099 -0.000346655
vn 0.999874 -0.01587099 -0.000346655
vn 0.04761302 -0.04761302 0.9977304
vn 0.04761302 -0.04761302 0.9977304
vn 0.04761302 -0.04761302 0.9977304
vn 0.04761302 -0.04761302 0.9977304
vn -0.3332913 -0.04761302 0.9416209
vn -0.3332913 -0.04761302 0.9416209
vn -0.3332913 -0.04761302 0.9416209
vn -0.3332913 -0.04761302 0.9416209
vn -0.3332913 -0.04761302 0.9416209
vn -0.3332913 -0.04761302 0.9416209
vn -0.3332913 -0.04761302 0.9416209
vn -0.3332913 -0.04761302 0.9416209
vn -0.3332913 -0.04761302 0.9416209
vn -0.3332913 -0.04761302 0.9416209
vn -0.3332913 -0.04761302 0.9416209
vn -0.3332913 -0.04761302 0.9416209
vn -0.3332913 -0.04761302 0.9416209
vn -0.3332913 -0.04761302 0.9416209
vn -0.3332913 -0.04761302 0.9416209
vn -0.3332913 -0.04761302 0.9416209
vn -0.3332913 -0.04761302 0.9416209
vn -0.3332913 -0.04761302 0.9416209
vn -0.3332913 -0.04761302 0.9416209
vn -0.3332913 -0.04761302 0.9416209
vn -0.3332913 -0.04761302 0.9416209
vn -0.3332913 -0.04761302 0.9416209
vn -0.3332913 -0.04761302 0.9416209
vn -0.3332913 -0.04761302 0.9416209
vn -0.3332913 -0.04761302 0.9416209
vn -0.3332913 -0.04761302 0.9416209
vn -0.3332913 -0.04761302 0.9416209
vn -0.3332913 -0.04761302 0.9416209
vn 0.04761302 -0.04761302 0.9977304
vn 0.04761302 -0.04761302 0.9977304
vn 0.04761302 -0.04761302 0.9977304
vn 0.04761302 -0.04761302 0.9977304
vn 0.04761302 -0.04761302 0.9977304
vn 0.04761302 -0.04761302 0.9977304
vn 0.04761302 -0.04761302 0.9977304
vn 0.04761302 -0.04761302 0.9977304
vn -0.999874 -0.01587099 -0.000346655
vn -0.999874 -0.01587099 -0.000346655
vn -0.999874 -0.01587099 -0.000346655
vn -0.999874 -0.01587099 -0.000346655
vn 0.04761302 -0.04761302 0.9977304
vn 0.04761302 -0.04761302 0.9977304
vn 0.04761302 -0.04761302 0.9977304
vn 0.04761302 -0.04761302 0.9977304
vn -0.999874 -0.01587099 -0.000346655
vn -0.999874 -0.01587099 -0.000346655
vn -0.999874 -0.01587099 -0.000346655
vn -0.999874 -0.01587099 -0.000346655
vn 0.04761302 -0.04761302 0.9977304
vn 0.04761302 -0.04761302 0.9977304
vn 0.04761302 -0.04761302 0.9977304
vn 0.04761302 -0.04761302 0.9977304
vn 0.04761302 -0.04761302 0.9977304
vn 0.04761302 -0.04761302 0.9977304
vn 0.04761302 -0.04761302 0.9977304
vn 0.04761302 -0.04761302 0.9977304
vn -0.999874 -0.01587099 -0.000346655
vn -0.999874 -0.01587099 -0.000346655
vn -0.999874 -0.01587099 -0.000346655
vn -0.999874 -0.01587099 -0.000346655
vn 0.04761302 -0.04761302 0.9977304
vn 0.04761302 -0.04761302 0.9977304
vn 0.04761302 -0.04761302 0.9977304
vn 0.04761302 -0.04761302 0.9977304
vn 0.04761302 -0.04761302 0.9977304
vn 0.04761302 -0.04761302 0.9977304
vn 0.04761302 -0.04761302 0.9977304
vn 0.04761302 -0.04761302 0.9977304
vn -0.999874 -0.01587099 -0.000346655
vn -0.999874 -0.01587099 -0.000346655
vn -0.999874 -0.01587099 -0.000346655
vn -0.999874 -0.01587099 -0.000346655
vn 0.04761302 -0.04761302 0.9977304
vn 0.04761302 -0.04761302 0.9977304
vn 0.04761302 -0.04761302 0.9977304
vn 0.04761302 -0.04761302 0.9977304
vn 0.04761302 -0.04761302 0.9977304
vn 0.04761302 -0.04761302 0.9977304
vn 0.04761302 -0.04761302 0.9977304
vn 0.04761302 -0.04761302 0.9977304
vn -0.999874 -0.01587099 -0.000346655
vn -0.999874 -0.01587099 -0.000346655
vn -0.999874 -0.01587099 -0.000346655
vn -0.999874 -0.01587099 -0.000346655
vn 0.04761302 -0.04761302 0.9977304
vn 0.04761302 -0.04761302 0.9977304
vn 0.04761302 -0.04761302 0.9977304
vn 0.04761302 -0.04761302 0.9977304
vn 0.04761302 -0.04761302 0.9977304
vn 0.04761302 -0.04761302 0.9977304
vn 0.04761302 -0.04761302 0.9977304
vn 0.04761302 -0.04761302 0.9977304
vn -0.999874 -0.01587099 -0.000346655
vn -0.999874 -0.01587099 -0.000346655
vn -0.999874 -0.01587099 -0.000346655
vn -0.999874 -0.01587099 -0.000346655
vn 0.04761302 -0.04761302 0.9977304
vn 0.04761302 -0.04761302 0.9977304
vn 0.04761302 -0.04761302 0.9977304
vn 0.04761302 -0.04761302 0.9977304
vn 0.04761302 -0.04761302 0.9977304
vn 0.04761302 -0.04761302 0.9977304
vn 0.04761302 -0.04761302 0.9977304
vn 0.04761302 -0.04761302 0.9977304
vn -0.999874 -0.01587099 -0.000346655
vn -0.999874 -0.01587099 -0.000346655
vn -0.999874 -0.01587099 -0.000346655
vn -0.999874 -0.01587099 -0.000346655
vn 0.04761302 -0.04761302 0.9977304
vn 0.04761302 -0.04761302 0.9977304
vn 0.04761302 -0.04761302 0.9977304
vn 0.04761302 -0.04761302 0.9977304
vn 0.3967754 -0.04761302 0.91668
vn 0.3967754 -0.04761302 0.91668
vn 0.3967754 -0.04761302 0.91668
vn 0.3967754 -0.04761302 0.91668
vn 0.3967754 -0.04761302 0.91668
vn 0.3967754 -0.04761302 0.91668
vn 0.3967754 -0.04761302 0.91668
vn 0.3967754 -0.04761302 0.91668
vn 0.3967754 -0.04761302 0.91668
vn 0.3967754 -0.04761302 0.91668
vn 0.3967754 -0.04761302 0.91668
vn 0.3967754 -0.04761302 0.91668
vn 0.3967754 -0.04761302 0.91668
vn 0.3967754 -0.04761302 0.91668
vn 0.3967754 -0.04761302 0.91668
vn 0.3967754 -0.04761302 0.91668
vn 0.3967754 -0.04761302 0.91668
vn 0.3967754 -0.04761302 0.91668
vn 0.3967754 -0.04761302 0.91668
vn 0.3967754 -0.04761302 0.91668
vn 0.3967754 -0.04761302 0.91668
vn 0.3967754 -0.04761302 0.91668
vn 0.3967754 -0.04761302 0.91668
vn 0.3967754 -0.04761302 0.91668
vn 0.3967754 -0.04761302 0.91668
vn 0.3967754 -0.04761302 0.91668
vn 0.3967754 -0.04761302 0.91668
vn 0.3967754 -0.04761302 0.91668
vn 0.04761302 0.3332913 0.9416209
vn 0.04761302 0.3967754 0.91668
vn 0.04761302 0.3967754 0.91668
vn 0.04761302 0.3332913 0.9416209
vn 0.04761302 0.1745812 0.9834909
vn 0.04761302 0.1745812 0.9834909
vn -0.999874 -0.01587099 -0.000346655
vn -0.999874 -0.01587099 -0.000346655
vn -0.999874 -0.01587099 -0.000346655
vn -0.999874 -0.01587099 -0.000346655
vn -0.999874 -0.01587099 -0.000346655
vn -0.999874 -0.01587099 -0.000346655
vn 0.04761302 -0.3967754 -0.91668
vn 0.04761302 -0.4602594 -0.8865068
vn 0.04761302 -0.4602594 -0.8865068
vn 0.04761302 -0.3967754 -0.91668
vn 0.04761302 -0.2380652 -0.9700814
vn 0.04761302 -0.2380652 -0.9700814
vn 0.01587099 0.999874 -0.000345267
vn 0.01587099 0.999874 -0.000345267
vn 0.01587099 0.999874 -0.000345267
vn 0.01587099 0.999874 -0.000345267
vn 0.01587099 -0.999874 -0.000345267
vn 0.01587099 -0.999874 -0.000345267
vn 0.01587099 -0.999874 -0.000345267
vn 0.01587099 -0.999874 -0.000345267
vn -0.999874 -0.01587099 -0.000346655
vn -0.999874 -0.01587099 -0.000346655
vn -0.999874 -0.01587099 -0.000346655
vn -0.999874 -0.01587099 -0.000346655
vn -0.999874 -0.01587099 -0.000346655
vn -0.999874 -0.01587099 -0.000346655
vn -0.999874 -0.01587099 -0.000346655
vn -0.999874 -0.01587099 -0.000346655
vn 0.04761302 -0.2380652 -0.9700814
vn 0.04761302 0.1110971 -0.9926683
vn 0.04761302 -0.2380652 -0.9700814
vn 0.04761302 0.1110971 -0.9926683
vn 0.04761302 0.4602594 -0.8865068
vn 0.04761302 0.4602594 -0.8865068
vn 0.04761302 0.3967754 -0.91668
vn 0.04761302 0.3967754 -0.91668
vn 0.04761302 0.1745812 0.9834909
vn 0.04761302 -0.1745812 0.9834909
vn 0.04761302 0.1745812 0.9834909
vn 0.04761302 -0.1745812 0.9834909
vn 0.04761302 -0.5237435 0.8505444
vn 0.04761302 -0.5237435 0.8505444
vn 0.04761302 -0.4602594 0.8865068
vn 0.04761302 -0.4602594 0.8865068
vn -0.999874 -0.01587099 -0.000346655
vn -0.999874 -0.01587099 -0.000346655
vn -0.999874 -0.01587099 -0.000346655
vn -0.999874 -0.01587099 -0.000346655
vn -0.999874 -0.01587099 -0.000346655
vn -0.999874 -0.01587099 -0.000346655
vn -0.999874 -0.01587099 -0.000346655
vn -0.999874 -0.01587099 -0.000346655
vn -0.999874 -0.01587099 -0.000346655
vn -0.999874 -0.01587099 -0.000346655
vn 0.04761302 0.3967754 -0.91668
vn 0.04761302 -0.07935506 -0.9957087
vn 0.04761302 0.3967754 -0.91668
vn 0.04761302 -0.07935506 -0.9957087
vn 0.04761302 -0.5237435 -0.8505444
vn 0.04761302 -0.5237435 -0.8505444
vn 0.04761302 -0.5237435 -0.8505444
vn 0.04761302 -0.5237435 -0.8505444
vn 0.04761302 -0.3967754 -0.91668
vn 0.04761302 -0.3967754 -0.91668
vn 0.04761302 -0.4602594 0.8865068
vn 0.04761302 0.01587105 0.9987398
vn 0.04761302 -0.4602594 0.8865068
vn 0.04761302 0.01587105 0.9987398
vn 0.04761302 0.4602594 0.8865068
vn 0.04761302 0.4602594 0.8865068
vn 0.04761302 0.4602594 0.8865068
vn 0.04761302 0.4602594 0.8865068
vn 0.04761302 0.3332913 0.9416209
vn 0.04761302 0.3332913 0.9416209
vn 0.999874 -0.01587099 -0.000346655
vn 0.999874 -0.01587099 -0.000346655
vn 0.999874 -0.01587099 -0.000346655
vn 0.999874 -0.01587099 -0.000346655
vn -0.8411639 0.4920015 -0.2244501
vn -0.8344646 -0.5510615 0
vn -0.8344646 -0.5510615 0
vn -0.8411639 0.4920015 0.2244501
vn -0.8344646 -0.5510615 0
vn 0.01587099 -0.999874 -0.000345267
vn 0.01587099 -0.999874 -0.000345267
vn -0.8344646 -0.5510615 0
vn 0.01587099 -0.999874 -0.000345267
vn 0.857493 -0.5144958 0
vn 0.857493 -0.5144958 0
vn 0.01587099 -0.999874 -0.000345267
vn 0.857493 -0.5144958 0
vn 0.8729059 0.4602594 -0.1618537
vn 0.8729059 0.4602594 -0.1618537
vn 0.857493 -0.5144958 0
vn 0.8729059 0.4602594 -0.1618537
vn 0.04761302 0.968132 0.2458728
vn 0.01587099 0.999874 -0.000345267
vn 0.8729059 0.4602594 -0.1618537
vn 0.01587099 0.999874 -0.000345267
vn -0.8411639 0.4920015 0.2244501
vn -0.8411639 0.4920015 -0.2244501
vn 0.04761302 0.968132 0.2458728
vn -0.8411639 0.4920015 0.2244501
vn 0.04761302 -0.04761302 0.9977304
vn -0.8344646 -0.5510615 0
vn 0.04761302 0.968132 0.2458728
vn -0.8344646 -0.5510615 0
vn 0.04761302 -0.04761302 0.9977304
vn 0.01587099 -0.999874 -0.000345267
vn 0.857493 -0.5144958 0
vn 0.857493 -0.5144958 0
vn 0.04761302 -0.04761302 0.9977304
vn 0.8729059 0.4602594 -0.1618537
vn 0.04761302 0.968132 0.2458728
vn -0.8411639 0.4920015 -0.2244501
vn -0.8344646 -0.5510615 0
vn -0.8344646 -0.5510615 0
vn -0.8411639 0.4920015 -0.2244501
vn 0.01587099 -0.999874 -0.000345267
vn 0.01587099 -0.999874 -0.000345267
vn 0.01587099 0.999874 -0.000345267
vn 0.01587099 0.999874 -0.000345267
vn 0.01587099 -0.999874 -0.000345267
vn 0.857493 -0.5144958 0
vn 0.857493 -0.5144958 0
vn 0.01587099 -0.999874 -0.000345267
vn 0.8729059 0.4602594 -0.1618537
vn 0.8729059 0.4602594 -0.1618537
vn 0.01587099 0.999874 -0.000345267
vn 0.01587099 0.999874 -0.000345267
vn -0.8411639 0.4920015 -0.2244501
vn -0.8344646 -0.5510615 0
vn -0.8344646 -0.5510615 0
vn -0.8411639 0.4920015 -0.2244501
vn 0.01587099 0.999874 -0.000345267
vn 0.01587099 0.999874 -0.000345267
vn -0.8344646 -0.5510615 0
vn 0.01587099 -0.999874 -0.000345267
vn 0.01587099 -0.999874 -0.000345267
vn -0.8344646 -0.5510615 0
vn 0.01587099 -0.999874 -0.000345267
vn 0.857493 -0.5144958 0
vn 0.857493 -0.5144958 0
vn 0.01587099 -0.999874 -0.000345267
vn 0.8729059 0.4602594 -0.1618537
vn 0.8729059 0.4602594 -0.1618537
vn 0.01587099 0.999874 -0.000345267
vn 0.01587099 0.999874 -0.000345267
vn -0.8411639 0.4920015 -0.2244501
vn -0.8344646 -0.5510615 0
vn -0.8344646 -0.5510615 0
vn -0.8411639 0.4920015 -0.2244501
vn 0.01587099 0.999874 -0.000345267
vn 0.01587099 0.999874 -0.000345267
vn -0.8344646 -0.5510615 0
vn 0.01587099 -0.999874 -0.000345267
vn 0.01587099 -0.999874 -0.000345267
vn -0.8344646 -0.5510615 0
vn 0.01587099 -0.999874 -0.000345267
vn 0.857493 -0.5144958 0
vn 0.857493 -0.5144958 0
vn 0.01587099 -0.999874 -0.000345267
vn 0.8729059 0.4602594 -0.1618537
vn 0.8729059 0.4602594 -0.1618537
vn 0.01587099 0.999874 -0.000345267
vn 0.01587099 0.999874 -0.000345267
vn -0.8411639 0.3967754 -0.3674407
vn -0.8411639 -0.4602594 0.2839095
vn -0.8411639 -0.4602594 0.2839095
vn -0.8411639 0.3967754 -0.3674407
vn 0.04761302 0.8411639 -0.5386802
vn 0.04761302 0.8411639 -0.5386802
vn -0.8411639 -0.4602594 0.2839095
vn 0.04761302 -0.9046479 0.4234917
vn 0.04761302 -0.9046479 0.4234917
vn -0.8411639 -0.4602594 0.2839095
vn 0.04761302 -0.9046479 0.4234917
vn 0.891278 -0.4534572 0
vn 0.891278 -0.4534572 0
vn 0.04761302 -0.9046479 0.4234917
vn 0.9046479 0.3967754 -0.155504
vn 0.9046479 0.3967754 -0.155504
vn 0.04761302 0.8411639 -0.5386802
vn 0.04761302 0.8411639 -0.5386802
vn -0.8411639 0.4602594 0.2839095
vn -0.8411639 -0.5237435 -0.1346703
vn -0.8411639 -0.5237435 -0.1346703
vn -0.8411639 0.4602594 0.2839095
vn 0.04761302 0.9046479 0.4234915
vn 0.04761302 0.9046479 0.4234915
vn -0.8411639 -0.5237435 -0.1346703
vn 0.04761302 -0.968132 -0.245873
vn 0.04761302 -0.968132 -0.245873
vn -0.8411639 -0.5237435 -0.1346703
vn 0.04761302 -0.968132 -0.245873
vn 0.8711522 -0.491013 0
vn 0.8711522 -0.491013 0
vn 0.04761302 -0.968132 -0.245873
vn 0.891278 0.4534572 0
vn 0.891278 0.4534572 0
vn 0.04761302 0.9046479 0.4234915
vn 0.04761302 0.9046479 0.4234915
vn 0.01587099 0.999874 -0.000345267
vn 0.01587099 0.999874 -0.000345267
vn 0.01587099 0.999874 -0.000345267
vn 0.01587099 0.999874 -0.000345267
vn 0.04761302 -0.04761302 0.9977304
vn 0.04761302 -0.04761302 0.9977304
vn 0.04761302 -0.04761302 0.9977304
vn 0.04761302 -0.04761302 0.9977304
vn 0.01587099 -0.999874 -0.000345267
vn 0.01587099 -0.999874 -0.000345267
vn 0.01587099 -0.999874 -0.000345267
vn 0.01587099 -0.999874 -0.000345267
vn 0.04761302 -0.04761302 -0.9977304
vn 0.04761302 -0.04761302 -0.9977304
vn 0.04761302 -0.04761302 -0.9977304
vn 0.04761302 -0.04761302 -0.9977304
vn -0.999874 -0.01587099 -0.000346655
vn -0.999874 -0.01587099 -0.000346655
vn -0.999874 -0.01587099 -0.000346655
vn -0.999874 -0.01587099 -0.000346655
vn 0.999874 -0.01587099 -0.000346655
vn 0.999874 -0.01587099 -0.000346655
vn 0.999874 -0.01587099 -0.000346655
vn 0.999874 -0.01587099 -0.000346655
vn 0.01587099 0.999874 -0.000345267
vn 0.01587099 0.999874 -0.000345267
vn 0.01587099 0.999874 -0.000345267
vn 0.01587099 0.999874 -0.000345267
vn 0.04761302 -0.04761302 0.9977304
vn 0.04761302 -0.04761302 0.9977304
vn 0.04761302 -0.04761302 0.9977304
vn 0.04761302 -0.04761302 0.9977304
vn 0.01587099 -0.999874 -0.000345267
vn 0.01587099 -0.999874 -0.000345267
vn 0.01587099 -0.999874 -0.000345267
vn 0.01587099 -0.999874 -0.000345267
vn 0.04761302 -0.04761302 -0.9977304
vn 0.04761302 -0.04761302 -0.9977304
vn 0.04761302 -0.04761302 -0.9977304
vn 0.04761302 -0.04761302 -0.9977304
vn -0.999874 -0.01587099 -0.000346655
vn -0.999874 -0.01587099 -0.000346655
vn -0.999874 -0.01587099 -0.000346655
vn -0.999874 -0.01587099 -0.000346655
vn 0.999874 -0.01587099 -0.000346655
vn 0.999874 -0.01587099 -0.000346655
vn 0.999874 -0.01587099 -0.000346655
vn 0.999874 -0.01587099 -0.000346655
vn -0.2684583 -0.9632913 0
vn 0.819958 -0.5724236 0
vn 0.819958 -0.5724236 0
vn -0.2684583 -0.9632913 0
vn 0.819958 -0.5724236 0
vn 0.8411638 0.5237435 -0.1346707
vn 0.8411638 0.5237435 -0.1346707
vn 0.819958 -0.5724236 0
vn 0.8411638 0.5237435 -0.1346707
vn -0.3015493 0.9363899 -0.1795602
vn -0.3015493 0.9363899 -0.1795602
vn 0.8411638 0.5237435 -0.1346707
vn -0.3015493 0.9363899 -0.1795602
vn -0.999874 -0.01587099 -0.000346655
vn -0.999874 -0.01587099 -0.000346655
vn -0.3015493 0.9363899 -0.1795602
vn -0.999874 -0.01587099 -0.000346655
vn -0.2684583 -0.9632913 0
vn -0.2684583 -0.9632913 0
vn -0.999874 -0.01587099 -0.000346655
vn 0.04761302 -0.04761302 0.9977304
vn 0.04761302 -0.04761302 0.9977304
vn 0.04761302 -0.04761302 0.9977304
vn 0.04761302 -0.04761302 0.9977304
vn 0.04761302 -0.04761302 0.9977304
vn 0.01587099 0.999874 -0.000345267
vn 0.01587099 0.999874 -0.000345267
vn 0.01587099 0.999874 -0.000345267
vn 0.01587099 0.999874 -0.000345267
vn 0.04761302 -0.04761302 0.9977304
vn 0.04761302 -0.04761302 0.9977304
vn 0.04761302 -0.04761302 0.9977304
vn 0.04761302 -0.04761302 0.9977304
vn 0.01587099 -0.999874 -0.000345267
vn 0.01587099 -0.999874 -0.000345267
vn 0.01587099 -0.999874 -0.000345267
vn 0.01587099 -0.999874 -0.000345267
vn 0.04761302 -0.04761302 -0.9977304
vn 0.04761302 -0.04761302 -0.9977304
vn 0.04761302 -0.04761302 -0.9977304
vn 0.04761302 -0.04761302 -0.9977304
vn -0.999874 -0.01587099 -0.000346655
vn -0.999874 -0.01587099 -0.000346655
vn -0.999874 -0.01587099 -0.000346655
vn -0.999874 -0.01587099 -0.000346655
vn 0.999874 -0.01587099 -0.000346655
vn 0.999874 -0.01587099 -0.000346655
vn 0.999874 -0.01587099 -0.000346655
vn 0.999874 -0.01587099 -0.000346655
vn 0.01587099 0.999874 -0.000345267
vn 0.01587099 0.999874 -0.000345267
vn 0.01587099 0.999874 -0.000345267
vn 0.01587099 0.999874 -0.000345267
vn 0.04761302 -0.04761302 0.9977304
vn 0.04761302 -0.04761302 0.9977304
vn 0.04761302 -0.04761302 0.9977304
vn 0.04761302 -0.04761302 0.9977304
vn 0.01587099 -0.999874 -0.000345267
vn 0.01587099 -0.999874 -0.000345267
vn 0.01587099 -0.999874 -0.000345267
vn 0.01587099 -0.999874 -0.000345267
vn 0.04761302 -0.04761302 -0.9977304
vn 0.04761302 -0.04761302 -0.9977304
vn 0.04761302 -0.04761302 -0.9977304
vn 0.04761302 -0.04761302 -0.9977304
vn -0.999874 -0.01587099 -0.000346655
vn -0.999874 -0.01587099 -0.000346655
vn -0.999874 -0.01587099 -0.000346655
vn -0.999874 -0.01587099 -0.000346655
vn 0.999874 -0.01587099 -0.000346655
vn 0.999874 -0.01587099 -0.000346655
vn 0.999874 -0.01587099 -0.000346655
vn 0.999874 -0.01587099 -0.000346655
vn 0.999874 -0.01587099 -0.000346655
vn 0.999874 -0.01587099 -0.000346655
vn 0.999874 -0.01587099 -0.000346655
vn 0.999874 -0.01587099 -0.000346655
vn 0.999874 -0.01587099 -0.000346655
vn 0.999874 -0.01587099 -0.000346655
vn 0.999874 -0.01587099 -0.000346655
vn 0.999874 -0.01587099 -0.000346655
vn 0.04761302 -0.07935506 0.9957087
vn 0.04761302 0.04761302 0.9977304
vn 0.04761302 0.04761302 0.9977304
vn 0.04761302 -0.07935506 0.9957087
vn 0.04761302 0.3015493 0.952261
vn 0.04761302 0.3015493 0.952261
vn 0.04761302 0.4920015 0.8692914
vn 0.04761302 0.4920015 0.8692914
vn -0.999874 -0.01587099 -0.000346655
vn -0.999874 -0.01587099 -0.000346655
vn -0.999874 -0.01587099 -0.000346655
vn -0.999874 -0.01587099 -0.000346655
vn -0.999874 -0.01587099 -0.000346655
vn -0.999874 -0.01587099 -0.000346655
vn -0.999874 -0.01587099 -0.000346655
vn -0.999874 -0.01587099 -0.000346655
vn 0.04761302 0.01587105 -0.9987398
vn 0.04761302 -0.1110971 -0.9926683
vn 0.04761302 -0.1110971 -0.9926683
vn 0.04761302 0.01587105 -0.9987398
vn 0.04761302 -0.3650333 -0.9297761
vn 0.04761302 -0.3650333 -0.9297761
vn 0.04761302 -0.5554855 -0.8301619
vn 0.04761302 -0.5554855 -0.8301619
vn 0.01587099 0.999874 -0.000345267
vn 0.01587099 0.999874 -0.000345267
vn 0.01587099 0.999874 -0.000345267
vn 0.01587099 0.999874 -0.000345267
vn 0.01587099 -0.999874 -0.000345267
vn 0.01587099 -0.999874 -0.000345267
vn 0.01587099 -0.999874 -0.000345267
vn 0.01587099 -0.999874 -0.000345267
vn -0.999874 -0.01587099 -0.000346655
vn -0.999874 -0.01587099 -0.000346655
vn -0.999874 -0.01587099 -0.000346655
vn -0.999874 -0.01587099 -0.000346655
vn -0.999874 -0.01587099 -0.000346655
vn -0.999874 -0.01587099 -0.000346655
vn -0.999874 -0.01587099 -0.000346655
vn -0.999874 -0.01587099 -0.000346655
vn -0.999874 -0.01587099 -0.000346655
vn -0.999874 -0.01587099 -0.000346655
vn -0.999874 -0.01587099 -0.000346655
vn -0.999874 -0.01587099 -0.000346655
vn 0.04761302 0.3650334 -0.9297761
vn 0.04761302 0.3332913 -0.9416209
vn 0.04761302 0.3650334 -0.9297761
vn 0.04761302 0.3332913 -0.9416209
vn 0.04761302 -0.07935506 -0.9957087
vn 0.04761302 -0.07935506 -0.9957087
vn 0.04761302 -0.1428391 -0.9886
vn 0.04761302 -0.1428391 -0.9886
vn 0.04761302 -0.5237435 -0.8505444
vn 0.04761302 -0.5237435 -0.8505444
vn 0.04761302 -0.5554855 -0.8301619
vn 0.04761302 -0.5554855 -0.8301619
vn 0.999874 -0.01587099 -0.000346655
vn 0.999874 -0.01587099 -0.000346655
vn 0.999874 -0.01587099 -0.000346655
vn 0.999874 -0.01587099 -0.000346655
vn 0.999874 -0.01587099 -0.000346655
vn 0.999874 -0.01587099 -0.000346655
vn 0.999874 -0.01587099 -0.000346655
vn 0.999874 -0.01587099 -0.000346655
vn 0.999874 -0.01587099 -0.000346655
vn 0.999874 -0.01587099 -0.000346655
vn 0.999874 -0.01587099 -0.000346655
vn 0.999874 -0.01587099 -0.000346655
vn 0.04761302 -0.4285174 0.9022781
vn 0.04761302 -0.3967754 0.91668
vn 0.04761302 -0.4285174 0.9022781
vn 0.04761302 -0.3967754 0.91668
vn 0.04761302 0.01587105 0.9987398
vn 0.04761302 0.01587105 0.9987398
vn 0.04761302 0.07935512 0.9957087
vn 0.04761302 0.07935512 0.9957087
vn 0.04761302 0.4602594 0.8865068
vn 0.04761302 0.4602594 0.8865068
vn 0.04761302 0.4920015 0.8692914
vn 0.04761302 0.4920015 0.8692914
vn -0.999874 -0.01587099 -0.000346655
vn -0.999874 -0.01587099 -0.000346655
vn -0.999874 -0.01587099 -0.000346655
vn -0.999874 -0.01587099 -0.000346655
vn -0.999874 -0.01587099 -0.000346655
vn -0.999874 -0.01587099 -0.000346655
vn -0.999874 -0.01587099 -0.000346655
vn -0.999874 -0.01587099 -0.000346655
vn -0.999874 -0.01587099 -0.000346655
vn -0.999874 -0.01587099 -0.000346655
vn 0.04761302 -0.07935506 -0.9957087
vn 0.04761302 -0.3967754 -0.91668
vn 0.04761302 -0.07935506 -0.9957087
vn 0.04761302 -0.3967754 -0.91668
vn 0.04761302 -0.3967754 -0.91668
vn 0.04761302 -0.3967754 -0.91668
vn 0.04761302 -0.04761302 -0.9977304
vn 0.04761302 -0.04761302 -0.9977304
vn 0.04761302 0.1745812 -0.9834909
vn 0.04761302 0.1745812 -0.9834909
vn 0.999874 -0.01587099 -0.000346655
vn 0.999874 -0.01587099 -0.000346655
vn 0.999874 -0.01587099 -0.000346655
vn 0.999874 -0.01587099 -0.000346655
vn 0.999874 -0.01587099 -0.000346655
vn 0.999874 -0.01587099 -0.000346655
vn 0.999874 -0.01587099 -0.000346655
vn 0.999874 -0.01587099 -0.000346655
vn 0.999874 -0.01587099 -0.000346655
vn 0.999874 -0.01587099 -0.000346655
vn 0.04761302 0.01587105 0.9987398
vn 0.04761302 0.3332913 0.9416209
vn 0.04761302 0.01587105 0.9987398
vn 0.04761302 0.3332913 0.9416209
vn 0.04761302 0.3332913 0.9416209
vn 0.04761302 0.3332913 0.9416209
vn 0.04761302 -0.04761302 0.9977304
vn 0.04761302 -0.04761302 0.9977304
vn 0.04761302 -0.2380652 0.9700814
vn 0.04761302 -0.2380652 0.9700814
vn -0.999874 -0.01587099 -0.000346655
vn -0.999874 -0.01587099 -0.000346655
vn -0.999874 -0.01587099 -0.000346655
vn -0.999874 -0.01587099 -0.000346655
vn -0.999874 -0.01587099 -0.000346655
vn -0.999874 -0.01587099 -0.000346655
vn -0.999874 -0.01587099 -0.000346655
vn -0.999874 -0.01587099 -0.000346655
vn -0.999874 -0.01587099 -0.000346655
vn -0.999874 -0.01587099 -0.000346655
vn 0.999874 -0.01587099 -0.000346655
vn 0.999874 -0.01587099 -0.000346655
vn 0.999874 -0.01587099 -0.000346655
vn 0.999874 -0.01587099 -0.000346655
vn 0.999874 -0.01587099 -0.000346655
vn 0.999874 -0.01587099 -0.000346655
vn 0.999874 -0.01587099 -0.000346655
vn 0.999874 -0.01587099 -0.000346655
vn 0.999874 -0.01587099 -0.000346655
vn 0.999874 -0.01587099 -0.000346655
vn -0.999874 -0.01587099 -0.000346655
vn -0.999874 -0.01587099 -0.000346655
vn -0.999874 -0.01587099 -0.000346655
vn -0.999874 -0.01587099 -0.000346655
vn -0.999874 -0.01587099 -0.000346655
vn -0.999874 -0.01587099 -0.000346655
vn -0.999874 -0.01587099 -0.000346655
vn -0.999874 -0.01587099 -0.000346655
vn -0.999874 -0.01587099 -0.000346655
vn -0.999874 -0.01587099 -0.000346655
vn 0.999874 -0.01587099 -0.000346655
vn 0.999874 -0.01587099 -0.000346655
vn 0.999874 -0.01587099 -0.000346655
vn 0.999874 -0.01587099 -0.000346655
vn 0.999874 -0.01587099 -0.000346655
vn 0.999874 -0.01587099 -0.000346655
vn 0.999874 -0.01587099 -0.000346655
vn 0.999874 -0.01587099 -0.000346655
vn 0.999874 -0.01587099 -0.000346655
vn 0.999874 -0.01587099 -0.000346655
vn 0.01587099 0.999874 -0.000345267
vn 0.01587099 0.999874 -0.000345267
vn 0.01587099 0.999874 -0.000345267
vn 0.01587099 0.999874 -0.000345267
vn 0.01587099 -0.999874 -0.000345267
vn 0.01587099 -0.999874 -0.000345267
vn 0.01587099 -0.999874 -0.000345267
vn 0.01587099 -0.999874 -0.000345267
vn -0.8411639 0.4920015 -0.2244501
vn -0.8344646 -0.5510615 0
vn -0.8344646 -0.5510615 0
vn -0.8411639 0.4920015 -0.2244501
vn 0.01587099 0.999874 -0.000345267
vn 0.01587099 0.999874 -0.000345267
vn -0.8344646 -0.5510615 0
vn 0.01587099 -0.999874 -0.000345267
vn 0.01587099 -0.999874 -0.000345267
vn -0.8344646 -0.5510615 0
vn 0.01587099 -0.999874 -0.000345267
vn 0.857493 -0.5144958 0
vn 0.857493 -0.5144958 0
vn 0.01587099 -0.999874 -0.000345267
vn 0.857493 -0.5144958 0
vn 0.8729059 0.4602594 -0.1618537
vn 0.8729059 0.4602594 -0.1618537
vn 0.857493 -0.5144958 0
vn 0.01587099 0.999874 -0.000345267
vn 0.01587099 0.999874 -0.000345267
vn -0.8411639 0.4920015 -0.2244501
vn -0.8344646 -0.5510615 0
vn -0.8344646 -0.5510615 0
vn -0.8411639 0.4920015 -0.2244501
vn 0.01587099 0.999874 -0.000345267
vn 0.01587099 0.999874 -0.000345267
vn -0.8344646 -0.5510615 0
vn 0.01587099 -0.999874 -0.000345267
vn 0.01587099 -0.999874 -0.000345267
vn -0.8344646 -0.5510615 0
vn 0.01587099 -0.999874 -0.000345267
vn 0.857493 -0.5144958 0
vn 0.857493 -0.5144958 0
vn 0.01587099 -0.999874 -0.000345267
vn 0.857493 -0.5144958 0
vn 0.8729059 0.4602594 -0.1618537
vn 0.8729059 0.4602594 -0.1618537
vn 0.857493 -0.5144958 0
vn 0.01587099 0.999874 -0.000345267
vn 0.01587099 0.999874 -0.000345267
vn -0.8411639 0.4920015 -0.2244501
vn -0.8344646 -0.5510615 0
vn -0.8344646 -0.5510615 0
vn -0.8411639 0.4920015 0.2244501
vn -0.8344646 -0.5510615 0
vn 0.01587099 -0.999874 -0.000345267
vn 0.01587099 -0.999874 -0.000345267
vn -0.8344646 -0.5510615 0
vn 0.01587099 -0.999874 -0.000345267
vn 0.857493 -0.5144958 0
vn 0.857493 -0.5144958 0
vn 0.01587099 -0.999874 -0.000345267
vn 0.857493 -0.5144958 0
vn 0.8729059 0.4602594 -0.1618537
vn 0.8729059 0.4602594 -0.1618537
vn 0.857493 -0.5144958 0
vn 0.8729059 0.4602594 -0.1618537
vn 0.04761302 0.968132 0.2458728
vn 0.01587099 0.999874 -0.000345267
vn 0.8729059 0.4602594 -0.1618537
vn 0.01587099 0.999874 -0.000345267
vn -0.8411639 0.4920015 0.2244501
vn -0.8411639 0.4920015 -0.2244501
vn 0.04761302 0.968132 0.2458728
vn -0.8411639 0.4920015 0.2244501
vn 0.04761302 -0.04761302 0.9977304
vn -0.8344646 -0.5510615 0
vn 0.04761302 0.968132 0.2458728
vn -0.8344646 -0.5510615 0
vn 0.04761302 -0.04761302 0.9977304
vn 0.01587099 -0.999874 -0.000345267
vn 0.857493 -0.5144958 0
vn 0.857493 -0.5144958 0
vn 0.04761302 -0.04761302 0.9977304
vn 0.8729059 0.4602594 -0.1618537
vn 0.04761302 0.968132 0.2458728
vn -0.8411639 0.3967754 -0.3674407
vn -0.8411639 -0.4602594 0.2839095
vn -0.8411639 -0.4602594 0.2839095
vn -0.8411639 0.3967754 -0.3674407
vn 0.04761302 0.8411639 -0.5386802
vn 0.04761302 0.8411639 -0.5386802
vn -0.8411639 -0.4602594 0.2839095
vn 0.04761302 -0.9046479 0.4234917
vn 0.04761302 -0.9046479 0.4234917
vn -0.8411639 -0.4602594 0.2839095
vn 0.04761302 -0.9046479 0.4234917
vn 0.891278 -0.4534572 0
vn 0.891278 -0.4534572 0
vn 0.04761302 -0.9046479 0.4234917
vn 0.9046479 0.3967754 -0.155504
vn 0.9046479 0.3967754 -0.155504
vn 0.04761302 0.8411639 -0.5386802
vn 0.04761302 0.8411639 -0.5386802
vn -0.8411639 0.4602594 0.2839095
vn -0.8411639 -0.5237435 -0.1346703
vn -0.8411639 -0.5237435 -0.1346703
vn -0.8411639 0.4602594 0.2839095
vn 0.04761302 0.9046479 0.4234915
vn 0.04761302 0.9046479 0.4234915
vn -0.8411639 -0.5237435 -0.1346703
vn 0.04761302 -0.968132 -0.245873
vn 0.04761302 -0.968132 -0.245873
vn -0.8411639 -0.5237435 -0.1346703
vn 0.04761302 -0.968132 -0.245873
vn 0.8711522 -0.491013 0
vn 0.8711522 -0.491013 0
vn 0.04761302 -0.968132 -0.245873
vn 0.891278 0.4534572 0
vn 0.891278 0.4534572 0
vn 0.04761302 0.9046479 0.4234915
vn 0.04761302 0.9046479 0.4234915
g daoJu_chengTie02_0
f 3/3/3 2/2/2 1/1/1
f 2/2/2 4/4/4 1/1/1
f 7/7/7 6/6/6 5/5/5
f 6/6/6 8/8/8 5/5/5
f 11/11/11 10/10/10 9/9/9
f 10/10/10 12/12/12 9/9/9
f 15/15/15 14/14/14 13/13/13
f 14/14/14 16/16/16 13/13/13
f 19/19/19 18/18/18 17/17/17
f 18/18/18 20/20/20 17/17/17
f 23/23/23 22/22/22 21/21/21
f 22/22/22 24/24/24 21/21/21
f 27/27/27 26/26/26 25/25/25
f 26/26/26 28/28/28 25/25/25
f 31/31/31 30/30/30 29/29/29
f 30/30/30 32/32/32 29/29/29
f 35/35/35 34/34/34 33/33/33
f 34/34/34 36/36/36 33/33/33
f 39/39/39 38/38/38 37/37/37
f 38/38/38 40/40/40 37/37/37
f 43/43/43 42/42/42 41/41/41
f 42/42/42 44/44/44 41/41/41
f 47/47/47 46/46/46 45/45/45
f 46/46/46 48/48/48 45/45/45
f 51/51/51 50/50/50 49/49/49
f 50/50/50 52/52/52 49/49/49
f 55/55/55 54/54/54 53/53/53
f 54/54/54 56/56/56 53/53/53
f 59/59/59 58/58/58 57/57/57
f 58/58/58 60/60/60 57/57/57
f 63/63/63 62/62/62 61/61/61
f 62/62/62 64/64/64 61/61/61
f 67/67/67 66/66/66 65/65/65
f 66/66/66 68/68/68 65/65/65
f 71/71/71 70/70/70 69/69/69
f 70/70/70 72/72/72 69/69/69
f 75/75/75 74/74/74 73/73/73
f 74/74/74 76/76/76 73/73/73
f 79/79/79 78/78/78 77/77/77
f 78/78/78 80/80/80 77/77/77
f 83/83/83 82/82/82 81/81/81
f 82/82/82 84/84/84 81/81/81
f 87/87/87 86/86/86 85/85/85
f 86/86/86 88/88/88 85/85/85
f 91/91/91 90/90/90 89/89/89
f 90/90/90 92/92/92 89/89/89
f 95/95/95 94/94/94 93/93/93
f 94/94/94 96/96/96 93/93/93
f 99/99/99 98/98/98 97/97/97
f 98/98/98 100/100/100 97/97/97
f 103/103/103 102/102/102 101/101/101
f 102/102/102 104/104/104 101/101/101
f 107/107/107 106/106/106 105/105/105
f 106/106/106 108/108/108 105/105/105
f 111/111/111 110/110/110 109/109/109
f 110/110/110 112/112/112 109/109/109
f 115/115/115 114/114/114 113/113/113
f 114/114/114 116/116/116 113/113/113
f 119/119/119 118/118/118 117/117/117
f 118/118/118 120/120/120 117/117/117
f 123/123/123 122/122/122 121/121/121
f 122/122/122 124/124/124 121/121/121
f 127/127/127 126/126/126 125/125/125
f 126/126/126 128/128/128 125/125/125
f 131/131/131 130/130/130 129/129/129
f 130/130/130 132/132/132 129/129/129
f 135/135/135 134/134/134 133/133/133
f 134/134/134 136/136/136 133/133/133
f 139/139/139 138/138/138 137/137/137
f 138/138/138 140/140/140 137/137/137
f 143/143/143 142/142/142 141/141/141
f 142/142/142 144/144/144 141/141/141
f 147/147/147 146/146/146 145/145/145
f 146/146/146 148/148/148 145/145/145
f 151/151/151 150/150/150 149/149/149
f 150/150/150 152/152/152 149/149/149
f 155/155/155 154/154/154 153/153/153
f 154/154/154 156/156/156 153/153/153
f 159/159/159 158/158/158 157/157/157
f 158/158/158 160/160/160 157/157/157
f 163/163/163 162/162/162 161/161/161
f 162/162/162 164/164/164 161/161/161
f 167/167/167 166/166/166 165/165/165
f 166/166/166 168/168/168 165/165/165
f 171/171/171 170/170/170 169/169/169
f 170/170/170 172/172/172 169/169/169
f 175/175/175 174/174/174 173/173/173
f 174/174/174 176/176/176 173/173/173
f 179/179/179 178/178/178 177/177/177
f 178/178/178 180/180/180 177/177/177
f 183/183/183 182/182/182 181/181/181
f 182/182/182 184/184/184 181/181/181
f 187/187/187 186/186/186 185/185/185
f 186/186/186 188/188/188 185/185/185
f 191/191/191 190/190/190 189/189/189
f 190/190/190 192/192/192 189/189/189
f 195/195/195 194/194/194 193/193/193
f 194/194/194 196/196/196 193/193/193
f 199/199/199 198/198/198 197/197/197
f 198/198/198 200/200/200 197/197/197
f 203/203/203 202/202/202 201/201/201
f 202/202/202 204/204/204 201/201/201
f 207/207/207 206/206/206 205/205/205
f 206/206/206 208/208/208 205/205/205
f 211/211/211 210/210/210 209/209/209
f 210/210/210 212/212/212 209/209/209
f 215/215/215 214/214/214 213/213/213
f 214/214/214 216/216/216 213/213/213
f 219/219/219 218/218/218 217/217/217
f 218/218/218 220/220/220 217/217/217
f 223/223/223 222/222/222 221/221/221
f 222/222/222 224/224/224 221/221/221
f 227/227/227 226/226/226 225/225/225
f 226/226/226 228/228/228 225/225/225
f 228/228/228 229/229/229 225/225/225
f 229/229/229 230/230/230 225/225/225
f 233/233/233 232/232/232 231/231/231
f 232/232/232 234/234/234 231/231/231
f 235/235/235 231/231/231 234/234/234
f 236/236/236 235/235/235 234/234/234
f 239/239/239 238/238/238 237/237/237
f 238/238/238 240/240/240 237/237/237
f 240/240/240 241/241/241 237/237/237
f 241/241/241 242/242/242 237/237/237
f 245/245/245 244/244/244 243/243/243
f 244/244/244 246/246/246 243/243/243
f 249/249/249 248/248/248 247/247/247
f 248/248/248 250/250/250 247/247/247
f 253/253/253 252/252/252 251/251/251
f 252/252/252 254/254/254 251/251/251
f 255/255/255 252/252/252 253/253/253
f 256/256/256 255/255/255 253/253/253
f 256/256/256 257/257/257 255/255/255
f 257/257/257 258/258/258 255/255/255
f 261/261/261 260/260/260 259/259/259
f 260/260/260 262/262/262 259/259/259
f 260/260/260 263/263/263 262/262/262
f 263/263/263 264/264/264 262/262/262
f 263/263/263 265/265/265 264/264/264
f 265/265/265 266/266/266 264/264/264
f 269/269/269 268/268/268 267/267/267
f 268/268/268 270/270/270 267/267/267
f 268/268/268 271/271/271 270/270/270
f 271/271/271 272/272/272 270/270/270
f 271/271/271 273/273/273 272/272/272
f 273/273/273 274/274/274 272/272/272
f 277/277/277 276/276/276 275/275/275
f 276/276/276 278/278/278 275/275/275
f 277/277/277 279/279/279 276/276/276
f 279/279/279 280/280/280 276/276/276
f 281/281/281 280/280/280 279/279/279
f 282/282/282 281/281/281 279/279/279
f 282/282/282 283/283/283 281/281/281
f 283/283/283 284/284/284 281/281/281
f 287/287/287 286/286/286 285/285/285
f 286/286/286 288/288/288 285/285/285
f 286/286/286 289/289/289 288/288/288
f 289/289/289 290/290/290 288/288/288
f 289/289/289 291/291/291 290/290/290
f 291/291/291 292/292/292 290/290/290
f 291/291/291 293/293/293 292/292/292
f 293/293/293 294/294/294 292/292/292
f 297/297/297 296/296/296 295/295/295
f 296/296/296 298/298/298 295/295/295
f 296/296/296 299/299/299 298/298/298
f 299/299/299 300/300/300 298/298/298
f 299/299/299 301/301/301 300/300/300
f 301/301/301 302/302/302 300/300/300
f 301/301/301 303/303/303 302/302/302
f 303/303/303 304/304/304 302/302/302
f 307/307/307 306/306/306 305/305/305
f 306/306/306 308/308/308 305/305/305
f 311/311/311 310/310/310 309/309/309
f 310/310/310 312/312/312 309/309/309
f 315/315/315 314/314/314 313/313/313
f 314/314/314 316/316/316 313/313/313
f 319/319/319 318/318/318 317/317/317
f 318/318/318 320/320/320 317/317/317
f 323/323/323 322/322/322 321/321/321
f 322/322/322 324/324/324 321/321/321
f 327/327/327 326/326/326 325/325/325
f 326/326/326 328/328/328 325/325/325
f 331/331/331 330/330/330 329/329/329
f 330/330/330 332/332/332 329/329/329
f 335/335/335 334/334/334 333/333/333
f 333/333/333 334/334/334 336/336/336
f 339/339/339 338/338/338 337/337/337
f 340/340/340 338/338/338 339/339/339
f 343/343/343 342/342/342 341/341/341
f 344/344/344 342/342/342 343/343/343
f 347/347/347 346/346/346 345/345/345
f 346/346/346 348/348/348 345/345/345
f 349/349/349 346/346/346 347/347/347
f 350/350/350 349/349/349 347/347/347
f 345/345/345 348/348/348 351/351/351
f 348/348/348 352/352/352 351/351/351
f 355/355/355 354/354/354 353/353/353
f 354/354/354 356/356/356 353/353/353
f 357/357/357 354/354/354 355/355/355
f 358/358/358 357/357/357 355/355/355
f 359/359/359 357/357/357 358/358/358
f 360/360/360 359/359/359 358/358/358
f 363/363/363 362/362/362 361/361/361
f 362/362/362 364/364/364 361/361/361
f 361/361/361 364/364/364 365/365/365
f 364/364/364 366/366/366 365/365/365
f 369/369/369 368/368/368 367/367/367
f 368/368/368 370/370/370 367/367/367
f 373/373/373 372/372/372 371/371/371
f 372/372/372 374/374/374 371/371/371
f 375/375/375 372/372/372 373/373/373
f 376/376/376 375/375/375 373/373/373
f 377/377/377 375/375/375 376/376/376
f 378/378/378 377/377/377 376/376/376
f 381/381/381 380/380/380 379/379/379
f 380/380/380 382/382/382 379/379/379
f 379/379/379 382/382/382 383/383/383
f 382/382/382 384/384/384 383/383/383
f 387/387/387 386/386/386 385/385/385
f 386/386/386 388/388/388 385/385/385
f 391/391/391 390/390/390 389/389/389
f 390/390/390 392/392/392 389/389/389
f 393/393/393 390/390/390 391/391/391
f 394/394/394 393/393/393 391/391/391
f 395/395/395 393/393/393 394/394/394
f 396/396/396 395/395/395 394/394/394
f 399/399/399 398/398/398 397/397/397
f 398/398/398 400/400/400 397/397/397
f 397/397/397 400/400/400 401/401/401
f 400/400/400 402/402/402 401/401/401
f 405/405/405 404/404/404 403/403/403
f 404/404/404 406/406/406 403/403/403
f 409/409/409 408/408/408 407/407/407
f 408/408/408 410/410/410 407/407/407
f 411/411/411 408/408/408 409/409/409
f 412/412/412 411/411/411 409/409/409
f 413/413/413 411/411/411 412/412/412
f 414/414/414 413/413/413 412/412/412
f 417/417/417 416/416/416 415/415/415
f 416/416/416 418/418/418 415/415/415
f 415/415/415 418/418/418 419/419/419
f 418/418/418 420/420/420 419/419/419
f 423/423/423 422/422/422 421/421/421
f 422/422/422 424/424/424 421/421/421
f 427/427/427 426/426/426 425/425/425
f 426/426/426 428/428/428 425/425/425
f 429/429/429 426/426/426 427/427/427
f 430/430/430 429/429/429 427/427/427
f 431/431/431 429/429/429 430/430/430
f 432/432/432 431/431/431 430/430/430
f 435/435/435 434/434/434 433/433/433
f 434/434/434 436/436/436 433/433/433
f 439/439/439 438/438/438 437/437/437
f 438/438/438 440/440/440 437/437/437
f 443/443/443 442/442/442 441/441/441
f 442/442/442 444/444/444 441/441/441
f 447/447/447 446/446/446 445/445/445
f 446/446/446 448/448/448 445/445/445
f 451/451/451 450/450/450 449/449/449
f 450/450/450 452/452/452 449/449/449
f 455/455/455 454/454/454 453/453/453
f 454/454/454 456/456/456 453/453/453
f 459/459/459 458/458/458 457/457/457
f 458/458/458 460/460/460 457/457/457
f 463/463/463 462/462/462 461/461/461
f 462/462/462 464/464/464 461/461/461
f 467/467/467 466/466/466 465/465/465
f 466/466/466 468/468/468 465/465/465
f 471/471/471 470/470/470 469/469/469
f 470/470/470 472/472/472 469/469/469
f 475/475/475 474/474/474 473/473/473
f 474/474/474 476/476/476 473/473/473
f 479/479/479 478/478/478 477/477/477
f 478/478/478 480/480/480 477/477/477
f 483/483/483 482/482/482 481/481/481
f 482/482/482 484/484/484 481/481/481
f 487/487/487 486/486/486 485/485/485
f 486/486/486 488/488/488 485/485/485
f 491/491/491 490/490/490 489/489/489
f 490/490/490 492/492/492 489/489/489
f 495/495/495 494/494/494 493/493/493
f 494/494/494 496/496/496 493/493/493
f 499/499/499 498/498/498 497/497/497
f 498/498/498 500/500/500 497/497/497
f 503/503/503 502/502/502 501/501/501
f 501/501/501 502/502/502 504/504/504
f 504/504/504 502/502/502 505/505/505
f 508/508/508 507/507/507 506/506/506
f 507/507/507 509/509/509 506/506/506
f 512/512/512 511/511/511 510/510/510
f 511/511/511 513/513/513 510/510/510
f 516/516/516 515/515/515 514/514/514
f 515/515/515 517/517/517 514/514/514
f 520/520/520 519/519/519 518/518/518
f 519/519/519 521/521/521 518/518/518
f 524/524/524 523/523/523 522/522/522
f 523/523/523 525/525/525 522/522/522
f 528/528/528 527/527/527 526/526/526
f 527/527/527 529/529/529 526/526/526
f 532/532/532 531/531/531 530/530/530
f 531/531/531 533/533/533 530/530/530
f 536/536/536 535/535/535 534/534/534
f 535/535/535 537/537/537 534/534/534
f 540/540/540 539/539/539 538/538/538
f 539/539/539 541/541/541 538/538/538
f 544/544/544 543/543/543 542/542/542
f 543/543/543 545/545/545 542/542/542
f 548/548/548 547/547/547 546/546/546
f 547/547/547 549/549/549 546/546/546
f 552/552/552 551/551/551 550/550/550
f 551/551/551 553/553/553 550/550/550
f 556/556/556 555/555/555 554/554/554
f 555/555/555 557/557/557 554/554/554
f 556/556/556 558/558/558 555/555/555
f 558/558/558 559/559/559 555/555/555
f 558/558/558 560/560/560 559/559/559
f 560/560/560 561/561/561 559/559/559
f 564/564/564 563/563/563 562/562/562
f 563/563/563 565/565/565 562/562/562
f 564/564/564 566/566/566 563/563/563
f 566/566/566 567/567/567 563/563/563
f 566/566/566 568/568/568 567/567/567
f 568/568/568 569/569/569 567/567/567
f 572/572/572 571/571/571 570/570/570
f 571/571/571 573/573/573 570/570/570
f 574/574/574 571/571/571 572/572/572
f 575/575/575 574/574/574 572/572/572
f 575/575/575 576/576/576 574/574/574
f 576/576/576 577/577/577 574/574/574
f 580/580/580 579/579/579 578/578/578
f 579/579/579 581/581/581 578/578/578
f 580/580/580 582/582/582 579/579/579
f 582/582/582 583/583/583 579/579/579
f 582/582/582 584/584/584 583/583/583
f 584/584/584 585/585/585 583/583/583
f 588/588/588 587/587/587 586/586/586
f 587/587/587 589/589/589 586/586/586
f 592/592/592 591/591/591 590/590/590
f 591/591/591 593/593/593 590/590/590
f 596/596/596 595/595/595 594/594/594
f 595/595/595 597/597/597 594/594/594
f 598/598/598 595/595/595 596/596/596
f 599/599/599 598/598/598 596/596/596
f 594/594/594 597/597/597 600/600/600
f 601/601/601 594/594/594 600/600/600
f 601/601/601 600/600/600 602/602/602
f 600/600/600 603/603/603 602/602/602
f 602/602/602 603/603/603 604/604/604
f 603/603/603 605/605/605 604/604/604
f 608/608/608 607/607/607 606/606/606
f 607/607/607 609/609/609 606/606/606
f 607/607/607 610/610/610 609/609/609
f 610/610/610 611/611/611 609/609/609
f 608/608/608 606/606/606 612/612/612
f 613/613/613 608/608/608 612/612/612
f 613/613/613 612/612/612 614/614/614
f 615/615/615 613/613/613 614/614/614
f 615/615/615 614/614/614 616/616/616
f 617/617/617 615/615/615 616/616/616
f 620/620/620 619/619/619 618/618/618
f 619/619/619 621/621/621 618/618/618
f 619/619/619 622/622/622 621/621/621
f 622/622/622 623/623/623 621/621/621
f 620/620/620 618/618/618 624/624/624
f 625/625/625 620/620/620 624/624/624
f 625/625/625 624/624/624 626/626/626
f 627/627/627 625/625/625 626/626/626
f 627/627/627 626/626/626 628/628/628
f 629/629/629 627/627/627 628/628/628
f 632/632/632 631/631/631 630/630/630
f 631/631/631 633/633/633 630/630/630
f 631/631/631 634/634/634 633/633/633
f 634/634/634 635/635/635 633/633/633
f 632/632/632 630/630/630 636/636/636
f 637/637/637 632/632/632 636/636/636
f 637/637/637 636/636/636 638/638/638
f 639/639/639 637/637/637 638/638/638
f 639/639/639 638/638/638 640/640/640
f 641/641/641 639/639/639 640/640/640
f 644/644/644 643/643/643 642/642/642
f 643/643/643 645/645/645 642/642/642
f 646/646/646 643/643/643 644/644/644
f 647/647/647 646/646/646 644/644/644
f 648/648/648 646/646/646 647/647/647
f 649/649/649 648/648/648 647/647/647
f 650/650/650 648/648/648 649/649/649
f 651/651/651 650/650/650 649/649/649
f 654/654/654 653/653/653 652/652/652
f 653/653/653 655/655/655 652/652/652
f 653/653/653 656/656/656 655/655/655
f 656/656/656 657/657/657 655/655/655
f 656/656/656 658/658/658 657/657/657
f 658/658/658 659/659/659 657/657/657
f 658/658/658 660/660/660 659/659/659
f 660/660/660 661/661/661 659/659/659
f 664/664/664 663/663/663 662/662/662
f 663/663/663 665/665/665 662/662/662
f 663/663/663 666/666/666 665/665/665
f 666/666/666 667/667/667 665/665/665
f 666/666/666 668/668/668 667/667/667
f 668/668/668 669/669/669 667/667/667
f 668/668/668 670/670/670 669/669/669
f 670/670/670 671/671/671 669/669/669
f 674/674/674 673/673/673 672/672/672
f 673/673/673 675/675/675 672/672/672
f 673/673/673 676/676/676 675/675/675
f 676/676/676 677/677/677 675/675/675
f 676/676/676 678/678/678 677/677/677
f 678/678/678 679/679/679 677/677/677
f 678/678/678 680/680/680 679/679/679
f 680/680/680 681/681/681 679/679/679
f 684/684/684 683/683/683 682/682/682
f 683/683/683 685/685/685 682/682/682
f 682/682/682 685/685/685 686/686/686
f 685/685/685 687/687/687 686/686/686
f 686/686/686 687/687/687 688/688/688
f 687/687/687 689/689/689 688/688/688
f 689/689/689 690/690/690 688/688/688
f 690/690/690 691/691/691 688/688/688
f 694/694/694 693/693/693 692/692/692
f 693/693/693 695/695/695 692/692/692
f 696/696/696 693/693/693 694/694/694
f 697/697/697 696/696/696 694/694/694
f 698/698/698 696/696/696 697/697/697
f 699/699/699 698/698/698 697/697/697
f 699/699/699 700/700/700 698/698/698
f 700/700/700 701/701/701 698/698/698
f 704/704/704 703/703/703 702/702/702
f 703/703/703 705/705/705 702/702/702
f 702/702/702 705/705/705 706/706/706
f 705/705/705 707/707/707 706/706/706
f 708/708/708 703/703/703 704/704/704
f 709/709/709 708/708/708 704/704/704
f 710/710/710 708/708/708 709/709/709
f 711/711/711 710/710/710 709/709/709
f 714/714/714 713/713/713 712/712/712
f 713/713/713 715/715/715 712/712/712
f 716/716/716 713/713/713 714/714/714
f 717/717/717 716/716/716 714/714/714
f 712/712/712 715/715/715 718/718/718
f 715/715/715 719/719/719 718/718/718
f 718/718/718 719/719/719 720/720/720
f 719/719/719 721/721/721 720/720/720
f 724/724/724 723/723/723 722/722/722
f 723/723/723 725/725/725 722/722/722
f 728/728/728 727/727/727 726/726/726
f 727/727/727 729/729/729 726/726/726
f 732/732/732 731/731/731 730/730/730
f 731/731/731 733/733/733 730/730/730
f 730/730/730 733/733/733 734/734/734
f 733/733/733 735/735/735 734/734/734
f 738/738/738 737/737/737 736/736/736
f 737/737/737 739/739/739 736/736/736
f 742/742/742 741/741/741 740/740/740
f 741/741/741 743/743/743 740/740/740
f 746/746/746 745/745/745 744/744/744
f 745/745/745 747/747/747 744/744/744
f 748/748/748 745/745/745 746/746/746
f 749/749/749 748/748/748 746/746/746
f 752/752/752 751/751/751 750/750/750
f 751/751/751 753/753/753 750/750/750
f 750/750/750 753/753/753 754/754/754
f 753/753/753 755/755/755 754/754/754
f 758/758/758 757/757/757 756/756/756
f 757/757/757 759/759/759 756/756/756
f 762/762/762 761/761/761 760/760/760
f 761/761/761 763/763/763 760/760/760
f 766/766/766 765/765/765 764/764/764
f 765/765/765 767/767/767 764/764/764
f 768/768/768 765/765/765 766/766/766
f 769/769/769 768/768/768 766/766/766
f 772/772/772 771/771/771 770/770/770
f 771/771/771 773/773/773 770/770/770
f 776/776/776 775/775/775 774/774/774
f 775/775/775 777/777/777 774/774/774
f 780/780/780 779/779/779 778/778/778
f 779/779/779 781/781/781 778/778/778
f 784/784/784 783/783/783 782/782/782
f 783/783/783 785/785/785 782/782/782
f 788/788/788 787/787/787 786/786/786
f 787/787/787 789/789/789 786/786/786
f 792/792/792 791/791/791 790/790/790
f 791/791/791 793/793/793 790/790/790
f 796/796/796 795/795/795 794/794/794
f 794/794/794 795/795/795 797/797/797
f 800/800/800 799/799/799 798/798/798
f 801/801/801 799/799/799 800/800/800
f 804/804/804 803/803/803 802/802/802
f 805/805/805 803/803/803 804/804/804
f 808/808/808 807/807/807 806/806/806
f 807/807/807 809/809/809 806/806/806
f 806/806/806 809/809/809 810/810/810
f 809/809/809 811/811/811 810/810/810
f 814/814/814 813/813/813 812/812/812
f 813/813/813 815/815/815 812/812/812
f 818/818/818 817/817/817 816/816/816
f 817/817/817 819/819/819 816/816/816
f 820/820/820 817/817/817 818/818/818
f 821/821/821 820/820/820 818/818/818
f 822/822/822 820/820/820 821/821/821
f 823/823/823 822/822/822 821/821/821
f 826/826/826 825/825/825 824/824/824
f 825/825/825 827/827/827 824/824/824
f 824/824/824 827/827/827 828/828/828
f 827/827/827 829/829/829 828/828/828
f 832/832/832 831/831/831 830/830/830
f 831/831/831 833/833/833 830/830/830
f 836/836/836 835/835/835 834/834/834
f 835/835/835 837/837/837 834/834/834
f 838/838/838 835/835/835 836/836/836
f 839/839/839 838/838/838 836/836/836
f 840/840/840 838/838/838 839/839/839
f 841/841/841 840/840/840 839/839/839
