g DSJ_GTA_diLou_16_uvDongHua
v -5.089083 -4.875087 -1.049916
v -3.75161 -4.875087 -2.320515
v -3.75161 -2.400763 -2.320515
v 6.801048 -4.875087 -2.467637
v 6.801048 -2.400763 -2.467637
v -5.089083 -2.400763 -1.049916
v 6.841172 -4.875087 2.30714
v -3.684737 -4.875087 2.440888
v 6.841172 -2.400763 2.30714
v -3.684737 -2.400763 2.440888
v 6.801048 -4.875087 -2.467637
v 6.841172 -4.875087 2.30714
v 6.801048 -2.400763 -2.467637
v 6.841172 -2.400763 2.30714
v -3.684737 -2.400763 2.440888
v -3.684737 -4.875087 2.440888
v -5.062334 -2.400763 1.197038
v -5.062334 -4.875087 1.197038
v -5.089083 -2.400763 -1.049916
v -5.089083 -4.875087 -1.049916
v -0.367805 -2.467637 -1.477907
v -0.3276811 -2.467637 1.518032
v -0.367805 4.808214 -1.477907
v -0.3276811 4.808214 1.518032
v -5.24958 4.808214 -1.411033
v -5.209456 4.808214 1.571531
v -6.841172 3.604489 -1.397658
v -6.801048 3.604489 1.598279
v -5.209456 -2.467637 1.571531
v -5.24958 -2.467637 -1.411033
v -6.801048 -1.263911 1.598279
v -6.841172 -1.263911 -1.397658
v 6.052063 -2.654883 -1.424408
v 6.092187 -2.654883 1.290661
v 6.052063 4.848339 -1.424408
v 6.092187 4.848339 1.290661
v -6.841172 3.604489 -1.397658
v -6.801048 3.604489 1.598279
v -6.841172 -1.263911 -1.397658
v -6.801048 -1.263911 1.598279
v -0.367805 4.808214 -1.477907
v -0.3276811 4.808214 1.518032
v -5.24958 4.808214 -1.411033
v -5.209456 4.808214 1.571531
v 0.4346786 4.848339 -1.357534
v 0.4480529 4.848339 1.370909
v 0.4346786 -2.654883 -1.357534
v 0.4480529 -2.654883 1.370909
vt 0.9990776 0.7586293
vt 0.9990776 0.6500397
vt 0.948661 0.6500397
vt 0.9951994 0.01013708
vt 0.948661 0.01013708
vt 0.948661 0.7586293
vt 0.9990776 0.7314819
vt 0.9951994 0.01013708
vt 0.948661 0.7314819
vt 0.948661 0.01013708
vt 0.9990776 0.9951994
vt 0.9990776 0.7314819
vt 0.948661 0.9951994
vt 0.948661 0.7314819
vt 0.948661 0.9951994
vt 0.9990776 0.9951994
vt 0.948661 0.890488
vt 0.9990776 0.890488
vt 0.948661 0.7586293
vt 0.9990776 0.7586293
vt 0.4057133 0.5996232
vt 0.3824441 0.5996232
vt 0.4057133 0.987443
vt 0.3824441 0.987443
vt 0.4057133 0.5996232
vt 0.3824441 0.5996232
vt 0.4057133 0.7043345
vt 0.3824441 0.7043345
vt 0.3824441 0.7043345
vt 0.4057133 0.7043345
vt 0.3824441 0.5996232
vt 0.4057133 0.5996232
vt 0.4057133 0.987443
vt 0.3824441 0.987443
vt 0.4057133 0.595745
vt 0.3824441 0.595745
vt 0.4057133 0.5996232
vt 0.3824441 0.5996232
vt 0.4057133 0.8555843
vt 0.3824441 0.8555843
vt 0.4057133 0.5996232
vt 0.3824441 0.5996232
vt 0.4057133 0.8594624
vt 0.3824441 0.8594624
vt 0.4057133 0.595745
vt 0.3824441 0.595745
vt 0.4057133 0.987443
vt 0.3824441 0.987443
g DSJ_GTA_diLou_16_uvDongHua_0
f 3/3/3 2/2/2 1/1/1
f 4/4/4 2/2/2 3/3/3
f 5/5/5 4/4/4 3/3/3
f 3/3/3 1/1/1 6/6/6
f 9/9/9 8/8/8 7/7/7
f 10/10/10 8/8/8 9/9/9
f 13/13/13 12/12/12 11/11/11
f 14/14/14 12/12/12 13/13/13
f 17/17/17 16/16/16 15/15/15
f 18/18/18 16/16/16 17/17/17
f 19/19/19 18/18/18 17/17/17
f 20/20/20 18/18/18 19/19/19
f 23/23/23 22/22/22 21/21/21
f 24/24/24 22/22/22 23/23/23
f 27/27/27 26/26/26 25/25/25
f 28/28/28 26/26/26 27/27/27
f 31/31/31 30/30/30 29/29/29
f 32/32/32 30/30/30 31/31/31
f 35/35/35 34/34/34 33/33/33
f 36/36/36 34/34/34 35/35/35
f 39/39/39 38/38/38 37/37/37
f 40/40/40 38/38/38 39/39/39
f 43/43/43 42/42/42 41/41/41
f 44/44/44 42/42/42 43/43/43
f 47/47/47 46/46/46 45/45/45
f 48/48/48 46/46/46 47/47/47
