g DSJ_GTA_daoJu_zhuangShi_07
v 0.6847583 0.6257317 -0.9399875
v -0.6957493 0.6257317 0.3721871
v -0.6957684 0.6257317 -0.9399912
v 0.6847583 0.6257317 0.3721871
v -0.6957684 0.2597504 -0.9399912
v 0.7117108 0.4579999 -0.9831017
v -0.7227018 0.4579999 -0.9831017
v 0.6847583 0.2597504 -0.9399875
v -0.6957684 0.6257317 -0.9399912
v 0.6847583 0.6257317 -0.9399875
v -0.6957493 0.2597504 0.3721871
v -0.7227018 0.4579999 -0.9831017
v -0.7227018 0.4579999 0.4691534
v -0.7227018 0.4579999 -0.9831017
v -0.6957493 0.6257317 0.3721871
v -0.7227018 0.4579999 -0.9831017
v -0.6957684 0.6257317 -0.9399912
v -0.6957493 0.2597504 0.3721871
v -0.6957684 0.2597504 -0.9399912
v 0.6847583 0.2597504 0.3721871
v -0.7227018 0.4579999 0.4691534
v 0.7117108 0.4579999 0.4691534
v -0.6957493 0.2597504 0.3721871
v 0.6847583 0.2597504 -0.9399875
v 0.7117108 0.4579999 0.4691534
v 0.7117108 0.4579999 -0.9831017
v 0.6847583 0.6257317 -0.9399875
v 0.7117108 0.4579999 0.4691534
v 0.6847583 0.6257317 0.3721871
v 0.7117108 0.4579999 0.4691534
v 0.6847583 0.2597504 -0.9399875
v 0.6847583 0.2597504 0.3721871
v 0.6847583 0.6257317 0.3721871
v -0.7227018 0.4579999 0.4691534
v -0.6957493 0.6257317 0.3721871
v 0.7117108 0.4579999 0.4691534
v -0.6957493 0.5841284 -0.8207445
v 0.6847583 2.060499 -1.393969
v 0.6847583 0.5841284 -0.8207445
v -0.6957493 2.060499 -1.39398
v 0.6847583 0.4411697 -1.127322
v -0.7227018 0.475646 -0.9513864
v 0.7117108 0.475646 -0.9513864
v -0.6957493 0.4411697 -1.127322
v 0.6847583 1.917537 -1.700546
v 0.7117108 0.475646 -0.9513864
v 0.7117108 2.041025 -1.566116
v 0.6847583 0.4411697 -1.127322
v -0.6957684 1.917537 -1.700557
v 0.7117108 2.041025 -1.566116
v -0.7227018 2.041025 -1.566127
v 0.6847583 1.917537 -1.700546
v -0.6957493 0.4411697 -1.127322
v -0.7227018 2.041025 -1.566127
v -0.7227018 0.475646 -0.9513864
v -0.6957684 1.917537 -1.700557
v 0.6847583 0.5841284 -0.8207445
v -0.7227018 0.475646 -0.9513864
v -0.6957493 0.5841284 -0.8207445
v 0.7117108 0.475646 -0.9513864
v 0.6847583 2.060499 -1.393969
v 0.7117108 0.475646 -0.9513864
v 0.6847583 0.5841284 -0.8207445
v 0.7117108 2.041025 -1.566116
v -0.6957493 2.060499 -1.39398
v 0.7117108 2.041025 -1.566116
v 0.6847583 2.060499 -1.393969
v -0.7227018 2.041025 -1.566127
v -0.6957493 0.5841284 -0.8207445
v -0.7227018 2.041025 -1.566127
v -0.6957493 2.060499 -1.39398
v -0.7227018 0.475646 -0.9513864
v -0.6957493 0.4411697 -1.127322
v 0.6847583 1.917537 -1.700546
v -0.6957684 1.917537 -1.700557
v 0.6847583 0.4411697 -1.127322
v -0.7441249 0.119987 -1.614276
v 0.7516712 0.119987 0.5501544
v 0.7516712 0.119987 -1.614276
v -0.7441061 0.119987 0.5501544
v -0.7441249 0.2587304 -1.614276
v 0.7516712 0.119987 -1.614276
v 0.7516712 0.2587304 -1.614276
v -0.7441249 0.119987 -1.614276
v 0.7516712 0.2587304 -1.614276
v 0.7516712 0.119987 0.5501544
v 0.7516712 0.2587304 0.5501544
v 0.7516712 0.119987 -1.614276
v 0.7516712 0.2587304 0.5501544
v -0.7441061 0.119987 0.5501544
v -0.7441061 0.2587304 0.5501544
v 0.7516712 0.119987 0.5501544
v -0.7441061 0.2587304 0.5501544
v -0.7441249 0.119987 -1.614276
v -0.7441249 0.2587304 -1.614276
v -0.7441061 0.119987 0.5501544
v 0.7516712 0.2587304 0.5501544
v -0.7441249 0.2587304 -1.614276
v 0.7516712 0.2587304 -1.614276
v -0.7441061 0.2587304 0.5501544
v 0.8628653 0.3418767 -1.341491
v -0.8628578 0.3418767 -1.471737
v 0.8628653 0.3418767 -1.471737
v -0.8628578 0.3418767 -1.341491
v 0.8628653 0.3418767 -1.471737
v -0.8628578 0.04524446 -1.471737
v 0.8628653 0.04524446 -1.471737
v -0.8628578 0.3418767 -1.471737
v 0.8628653 0.04524446 -1.471737
v -0.8628578 0.04524446 -1.341491
v 0.8628653 0.04524446 -1.341491
v -0.8628578 0.04524446 -1.471737
v 0.8628653 0.04524446 -1.341491
v -0.8628578 0.3418767 -1.341491
v 0.8628653 0.3418767 -1.341491
v -0.8628578 0.04524446 -1.341491
v 0.8628653 0.04524446 -1.341491
v 0.8628653 0.3418767 -1.471737
v 0.8628653 0.04524446 -1.471737
v 0.8628653 0.3418767 -1.341491
v -0.8628578 0.3418767 -1.341491
v -0.8628578 0.04524446 -1.471737
v -0.8628578 0.3418767 -1.471737
v -0.8628578 0.04524446 -1.341491
v 0.8628653 0.3418767 -0.8924919
v -0.8628578 0.3418767 -1.022733
v 0.8628653 0.3418767 -1.022733
v -0.8628578 0.3418767 -0.8924919
v 0.8628653 0.3418767 -1.022733
v -0.8628578 0.04524446 -1.022733
v 0.8628653 0.04524446 -1.022733
v -0.8628578 0.3418767 -1.022733
v 0.8628653 0.04524446 -1.022733
v -0.8628578 0.04524446 -0.8924919
v 0.8628653 0.04524446 -0.8924919
v -0.8628578 0.04524446 -1.022733
v 0.8628653 0.04524446 -0.8924919
v -0.8628578 0.3418767 -0.8924919
v 0.8628653 0.3418767 -0.8924919
v -0.8628578 0.04524446 -0.8924919
v 0.8628653 0.04524446 -0.8924919
v 0.8628653 0.3418767 -1.022733
v 0.8628653 0.04524446 -1.022733
v 0.8628653 0.3418767 -0.8924919
v -0.8628578 0.3418767 -0.8924919
v -0.8628578 0.04524446 -1.022733
v -0.8628578 0.3418767 -1.022733
v -0.8628578 0.04524446 -0.8924919
v 0.8628653 0.3418767 -0.4434887
v -0.8628578 0.3418767 -0.5737302
v 0.8628653 0.3418767 -0.5737302
v -0.8628578 0.3418767 -0.4434887
v 0.8628653 0.3418767 -0.5737302
v -0.8628578 0.04524446 -0.5737302
v 0.8628653 0.04524446 -0.5737302
v -0.8628578 0.3418767 -0.5737302
v 0.8628653 0.04524446 -0.5737302
v -0.8628578 0.04524446 -0.4434887
v 0.8628653 0.04524446 -0.4434887
v -0.8628578 0.04524446 -0.5737302
v 0.8628653 0.04524446 -0.4434887
v -0.8628578 0.3418767 -0.4434887
v 0.8628653 0.3418767 -0.4434887
v -0.8628578 0.04524446 -0.4434887
v 0.8628653 0.04524446 -0.4434887
v 0.8628653 0.3418767 -0.5737302
v 0.8628653 0.04524446 -0.5737302
v 0.8628653 0.3418767 -0.4434887
v -0.8628578 0.3418767 -0.4434887
v -0.8628578 0.04524446 -0.5737302
v -0.8628578 0.3418767 -0.5737302
v -0.8628578 0.04524446 -0.4434887
v 0.8628653 0.3418767 0.005514383
v -0.8628578 0.3418767 -0.1247308
v 0.8628653 0.3418767 -0.1247308
v -0.8628578 0.3418767 0.005514383
v 0.8628653 0.3418767 -0.1247308
v -0.8628578 0.04524446 -0.1247308
v 0.8628653 0.04524446 -0.1247308
v -0.8628578 0.3418767 -0.1247308
v 0.8628653 0.04524446 -0.1247308
v -0.8628578 0.04524446 0.005514383
v 0.8628653 0.04524446 0.005514383
v -0.8628578 0.04524446 -0.1247308
v 0.8628653 0.04524446 0.005514383
v -0.8628578 0.3418767 0.005514383
v 0.8628653 0.3418767 0.005514383
v -0.8628578 0.04524446 0.005514383
v 0.8628653 0.04524446 0.005514383
v 0.8628653 0.3418767 -0.1247308
v 0.8628653 0.04524446 -0.1247308
v 0.8628653 0.3418767 0.005514383
v -0.8628578 0.3418767 0.005514383
v -0.8628578 0.04524446 -0.1247308
v -0.8628578 0.3418767 -0.1247308
v -0.8628578 0.04524446 0.005514383
v 0.8628653 0.3418767 0.4544308
v -0.8628578 0.3418767 0.3241892
v 0.8628653 0.3418767 0.3241892
v -0.8628578 0.3418767 0.4544308
v 0.8628653 0.3418767 0.3241892
v -0.8628578 0.04524446 0.3241892
v 0.8628653 0.04524446 0.3241892
v -0.8628578 0.3418767 0.3241892
v 0.8628653 0.04524446 0.3241892
v -0.8628578 0.04524446 0.4544308
v 0.8628653 0.04524446 0.4544308
v -0.8628578 0.04524446 0.3241892
v 0.8628653 0.04524446 0.4544308
v -0.8628578 0.3418767 0.4544308
v 0.8628653 0.3418767 0.4544308
v -0.8628578 0.04524446 0.4544308
v 0.8628653 0.04524446 0.4544308
v 0.8628653 0.3418767 0.3241892
v 0.8628653 0.04524446 0.3241892
v 0.8628653 0.3418767 0.4544308
v -0.8628578 0.3418767 0.4544308
v -0.8628578 0.04524446 0.3241892
v -0.8628578 0.3418767 0.3241892
v -0.8628578 0.04524446 0.4544308
v 0.6847583 0.6373272 0.5413277
v -0.6957684 0.4094696 1.833571
v -0.6957684 0.6373272 0.5413277
v 0.6847583 0.4094696 1.833571
v -0.6957684 0.2769053 0.4777763
v 0.7116919 0.4796307 0.4697425
v -0.7227018 0.4796307 0.4697464
v 0.6847583 0.2769053 0.4777725
v -0.6957684 0.6373272 0.5413277
v 0.6847583 0.6373272 0.5413277
v -0.6957684 0.04904783 1.77002
v -0.7227018 0.4796307 0.4697464
v -0.7227018 0.2274497 1.89994
v -0.7227018 0.4796307 0.4697464
v -0.6957684 0.4094696 1.833571
v -0.7227018 0.4796307 0.4697464
v -0.6957684 0.6373272 0.5413277
v -0.6957684 0.04904783 1.77002
v -0.6957684 0.2769053 0.4777763
v 0.6847583 0.04904783 1.770016
v -0.7227018 0.2274497 1.89994
v 0.7116919 0.2274497 1.899936
v -0.6957684 0.04904783 1.77002
v 0.6847583 0.2769053 0.4777725
v 0.7116919 0.2274497 1.899936
v 0.7116919 0.4796307 0.4697425
v 0.6847583 0.6373272 0.5413277
v 0.7116919 0.2274497 1.899936
v 0.6847583 0.4094696 1.833571
v 0.7116919 0.2274497 1.899936
v 0.6847583 0.2769053 0.4777725
v 0.6847583 0.04904783 1.770016
v 0.6847583 0.4094696 1.833571
v -0.7227018 0.2274497 1.89994
v -0.6957684 0.4094696 1.833571
v 0.7116919 0.2274497 1.899936
v 0.6049545 0.01098347 -1.603311
v 0.7352073 1.746157 -1.603311
v 0.7352073 0.01098347 -1.603311
v 0.6049545 1.746157 -1.603311
v 0.7352073 0.01098347 -1.603311
v 0.7352073 1.746157 -1.899944
v 0.7352073 0.01098347 -1.899944
v 0.7352073 1.746157 -1.603311
v 0.7352073 0.01098347 -1.899944
v 0.6049545 1.746157 -1.899944
v 0.6049545 0.01098347 -1.899944
v 0.7352073 1.746157 -1.899944
v 0.6049545 0.01098347 -1.899944
v 0.6049545 1.746157 -1.603311
v 0.6049545 0.01098347 -1.603311
v 0.6049545 1.746157 -1.899944
v 0.6049545 0.01098347 -1.899944
v 0.7352073 0.01098347 -1.603311
v 0.7352073 0.01098347 -1.899944
v 0.6049545 0.01098347 -1.603311
v 0.6049545 1.746157 -1.603311
v 0.7352073 1.746157 -1.899944
v 0.7352073 1.746157 -1.603311
v 0.6049545 1.746157 -1.899944
v -0.6739297 1.520607 -1.800662
v 0.6570051 1.520611 -1.702578
v -0.6739297 1.520607 -1.702582
v 0.6570051 1.520611 -1.800666
v -0.6739297 1.520607 -1.702582
v 0.6570051 1.271013 -1.702582
v -0.6739297 1.271013 -1.702578
v 0.6570051 1.520611 -1.702578
v -0.6739297 1.271013 -1.702578
v 0.6570051 1.271013 -1.800662
v -0.6739297 1.271013 -1.800666
v 0.6570051 1.271013 -1.702582
v -0.6739297 1.271013 -1.800666
v 0.6570051 1.520611 -1.800666
v -0.6739297 1.520607 -1.800662
v 0.6570051 1.271013 -1.800662
v -0.6739297 0.974124 -1.800662
v 0.6570051 0.9741275 -1.702574
v -0.6739297 0.974124 -1.702578
v 0.6570051 0.9741275 -1.800666
v -0.6739297 0.974124 -1.702578
v 0.6570051 0.72453 -1.702574
v -0.6739297 0.72453 -1.702574
v 0.6570051 0.9741275 -1.702574
v -0.6739297 0.72453 -1.702574
v 0.6570051 0.72453 -1.800658
v -0.6739297 0.72453 -1.800666
v 0.6570051 0.72453 -1.702574
v -0.6739297 0.72453 -1.800666
v 0.6570051 0.9741275 -1.800666
v -0.6739297 0.974124 -1.800662
v 0.6570051 0.72453 -1.800658
v -0.6739297 0.3862526 -1.800662
v 0.6570051 0.3862526 -1.702574
v -0.6739297 0.3862488 -1.702578
v 0.6570051 0.3862526 -1.800666
v -0.6739297 0.3862488 -1.702578
v 0.6570051 0.1366549 -1.702574
v -0.6739297 0.1366549 -1.702574
v 0.6570051 0.3862526 -1.702574
v -0.6739297 0.1366549 -1.702574
v 0.6570051 0.1366549 -1.800658
v -0.6739297 0.1366549 -1.800666
v 0.6570051 0.1366549 -1.702574
v -0.6739297 0.1366549 -1.800666
v 0.6570051 0.3862526 -1.800666
v -0.6739297 0.3862526 -1.800662
v 0.6570051 0.1366549 -1.800658
v -0.7382479 0.01098347 -1.603308
v -0.6080139 1.746157 -1.603308
v -0.6080139 0.01098347 -1.603308
v -0.7382479 1.746157 -1.603308
v -0.6080139 0.01098347 -1.603308
v -0.6080139 1.746157 -1.89994
v -0.6080139 0.01098347 -1.89994
v -0.6080139 1.746157 -1.603308
v -0.6080139 0.01098347 -1.89994
v -0.7382479 1.746157 -1.89994
v -0.7382479 0.01098347 -1.89994
v -0.6080139 1.746157 -1.89994
v -0.7382479 0.01098347 -1.89994
v -0.7382479 1.746157 -1.603308
v -0.7382479 0.01098347 -1.603308
v -0.7382479 1.746157 -1.89994
v -0.7382479 0.01098347 -1.89994
v -0.6080139 0.01098347 -1.603308
v -0.6080139 0.01098347 -1.89994
v -0.7382479 0.01098347 -1.603308
v -0.7382479 1.746157 -1.603308
v -0.6080139 1.746157 -1.89994
v -0.6080139 1.746157 -1.603308
v -0.7382479 1.746157 -1.89994
vt 0.7627707 0.4422259
vt 0.8397398 0.4926862
vt 0.8397398 0.4422259
vt 0.7627707 0.4926862
vt 0.8584431 0.4256549
vt 0.7525967 0.4341528
vt 0.8495596 0.4341528
vt 0.7410773 0.4256549
vt 0.8397398 0.4422259
vt 0.7627707 0.4422259
vt 0.8584431 0.5105397
vt 0.8495596 0.4341528
vt 0.8495596 0.5013258
vt 0.8495596 0.4341528
vt 0.8397398 0.4926862
vt 0.8495596 0.4341528
vt 0.8397398 0.4422259
vt 0.8584431 0.5105397
vt 0.8584431 0.4256549
vt 0.7410773 0.5105397
vt 0.8495596 0.5013258
vt 0.7525967 0.5013258
vt 0.8584431 0.5105397
vt 0.7410773 0.4256549
vt 0.7525967 0.5013258
vt 0.7525967 0.4341528
vt 0.7627707 0.4422259
vt 0.7525967 0.5013258
vt 0.7627707 0.4926862
vt 0.7525967 0.5013258
vt 0.7410773 0.4256549
vt 0.7410773 0.5105397
vt 0.7627707 0.4926862
vt 0.8495596 0.5013258
vt 0.8397398 0.4926862
vt 0.7525967 0.5013258
vt 0.7707413 0.4256549
vt 0.834523 0.4893579
vt 0.834523 0.4256549
vt 0.7707413 0.4893579
vt 0.8427927 0.4256549
vt 0.7624087 0.4363403
vt 0.8427927 0.4363403
vt 0.7624087 0.4256549
vt 0.834523 0.4893579
vt 0.8426983 0.4256549
vt 0.8426983 0.4943071
vt 0.834523 0.4256549
vt 0.7707413 0.4893579
vt 0.8426983 0.4943071
vt 0.7624717 0.4943071
vt 0.834523 0.4893579
vt 0.7707413 0.4256549
vt 0.7624717 0.4943071
vt 0.7624717 0.4256549
vt 0.7707413 0.4893579
vt 0.8427927 0.4256549
vt 0.7624087 0.4363403
vt 0.7624087 0.4256549
vt 0.8427927 0.4363403
vt 0.834523 0.4893579
vt 0.8426983 0.4256549
vt 0.834523 0.4256549
vt 0.8426983 0.4943071
vt 0.7707413 0.4893579
vt 0.8426983 0.4943071
vt 0.834523 0.4893579
vt 0.7624717 0.4943071
vt 0.7707413 0.4256549
vt 0.7624717 0.4943071
vt 0.7707413 0.4893579
vt 0.7624717 0.4256549
vt 0.7707413 0.4256549
vt 0.834523 0.4893579
vt 0.7707413 0.4893579
vt 0.834523 0.4256549
vt 0.8421633 0.4061727
vt 0.7595367 0.3427845
vt 0.7595367 0.4061727
vt 0.8421633 0.3427845
vt 0.5412975 0.6368362
vt 0.5246164 0.5242072
vt 0.5412975 0.5242072
vt 0.5246164 0.6368362
vt 0.5412975 0.5242072
vt 0.5246164 0.6368362
vt 0.5412975 0.6368362
vt 0.5246164 0.5242072
vt 0.5412975 0.6368362
vt 0.5246164 0.5242072
vt 0.5412975 0.5242072
vt 0.5246164 0.6368362
vt 0.5412975 0.5242072
vt 0.5246164 0.6368362
vt 0.5412975 0.6368362
vt 0.5246164 0.5242072
vt 0.5412975 0.5242072
vt 0.5246164 0.6368362
vt 0.5412975 0.6368362
vt 0.5246164 0.5242072
vt 0.5412975 0.6773744
vt 0.5246164 0.5683571
vt 0.5246164 0.6773744
vt 0.5412975 0.5683571
vt 0.5246164 0.6773744
vt 0.5412975 0.5683571
vt 0.5412975 0.6773744
vt 0.5246164 0.5683571
vt 0.5412975 0.6773744
vt 0.5246164 0.5683571
vt 0.5246164 0.6773744
vt 0.5412975 0.5683571
vt 0.5246164 0.6773744
vt 0.5412975 0.5683571
vt 0.5412975 0.6773744
vt 0.5246164 0.5683571
vt 0.5093359 0.6526911
vt 0.5246164 0.6774452
vt 0.5246164 0.6526911
vt 0.5093359 0.6774452
vt 0.5093359 0.6774452
vt 0.5246164 0.6526911
vt 0.5246164 0.6774452
vt 0.5093359 0.6526911
vt 0.5412975 0.6773744
vt 0.5246164 0.5683571
vt 0.5246164 0.6773744
vt 0.5412975 0.5683571
vt 0.5246164 0.6773744
vt 0.5412975 0.5683571
vt 0.5412975 0.6773744
vt 0.5246164 0.5683571
vt 0.5412975 0.6773744
vt 0.5246164 0.5683571
vt 0.5246164 0.6773744
vt 0.5412975 0.5683571
vt 0.5246164 0.6773744
vt 0.5412975 0.5683571
vt 0.5412975 0.6773744
vt 0.5246164 0.5683571
vt 0.5093359 0.6526911
vt 0.5246164 0.6774452
vt 0.5246164 0.6526911
vt 0.5093359 0.6774452
vt 0.5093359 0.6774452
vt 0.5246164 0.6526911
vt 0.5246164 0.6774452
vt 0.5093359 0.6526911
vt 0.5412975 0.6773744
vt 0.5246164 0.5683571
vt 0.5246164 0.6773744
vt 0.5412975 0.5683571
vt 0.5246164 0.6773744
vt 0.5412975 0.5683571
vt 0.5412975 0.6773744
vt 0.5246164 0.5683571
vt 0.5412975 0.6773744
vt 0.5246164 0.5683571
vt 0.5246164 0.6773744
vt 0.5412975 0.5683571
vt 0.5246164 0.6773744
vt 0.5412975 0.5683571
vt 0.5412975 0.6773744
vt 0.5246164 0.5683571
vt 0.5093359 0.6526911
vt 0.5246164 0.6774452
vt 0.5246164 0.6526911
vt 0.5093359 0.6774452
vt 0.5093359 0.6774452
vt 0.5246164 0.6526911
vt 0.5246164 0.6774452
vt 0.5093359 0.6526911
vt 0.5412975 0.6773744
vt 0.5246164 0.5683571
vt 0.5246164 0.6773744
vt 0.5412975 0.5683571
vt 0.5246164 0.6773744
vt 0.5412975 0.5683571
vt 0.5412975 0.6773744
vt 0.5246164 0.5683571
vt 0.5412975 0.6773744
vt 0.5246164 0.5683571
vt 0.5246164 0.6773744
vt 0.5412975 0.5683571
vt 0.5246164 0.6773744
vt 0.5412975 0.5683571
vt 0.5412975 0.6773744
vt 0.5246164 0.5683571
vt 0.5093359 0.6526911
vt 0.5246164 0.6774452
vt 0.5246164 0.6526911
vt 0.5093359 0.6774452
vt 0.5093359 0.6774452
vt 0.5246164 0.6526911
vt 0.5246164 0.6774452
vt 0.5093359 0.6526911
vt 0.5412975 0.6773744
vt 0.5246164 0.5683571
vt 0.5246164 0.6773744
vt 0.5412975 0.5683571
vt 0.5246164 0.6773744
vt 0.5412975 0.5683571
vt 0.5412975 0.6773744
vt 0.5246164 0.5683571
vt 0.5412975 0.6773744
vt 0.5246164 0.5683571
vt 0.5246164 0.6773744
vt 0.5412975 0.5683571
vt 0.5246164 0.6773744
vt 0.5412975 0.5683571
vt 0.5412975 0.6773744
vt 0.5246164 0.5683571
vt 0.5093359 0.6526911
vt 0.5246164 0.6774452
vt 0.5246164 0.6526911
vt 0.5093359 0.6774452
vt 0.5093359 0.6774452
vt 0.5246164 0.6526911
vt 0.5246164 0.6774452
vt 0.5093359 0.6526911
vt 0.7627707 0.4422259
vt 0.8397398 0.4926862
vt 0.8397398 0.4422259
vt 0.7627707 0.4926862
vt 0.8584431 0.4256549
vt 0.7525967 0.4341528
vt 0.8495596 0.4341528
vt 0.7410773 0.4256549
vt 0.8397398 0.4422259
vt 0.7627707 0.4422259
vt 0.8584431 0.5105397
vt 0.8495596 0.4341528
vt 0.8495596 0.5013258
vt 0.8495596 0.4341528
vt 0.8397398 0.4926862
vt 0.8495596 0.4341528
vt 0.8397398 0.4422259
vt 0.8584431 0.5105397
vt 0.8584431 0.4256549
vt 0.7410773 0.5105397
vt 0.8495596 0.5013258
vt 0.7525967 0.5013258
vt 0.8584431 0.5105397
vt 0.7410773 0.4256549
vt 0.7525967 0.5013258
vt 0.7525967 0.4341528
vt 0.7627707 0.4422259
vt 0.7525967 0.5013258
vt 0.7627707 0.4926862
vt 0.7525967 0.5013258
vt 0.7410773 0.4256549
vt 0.7410773 0.5105397
vt 0.7627707 0.4926862
vt 0.8495596 0.5013258
vt 0.8397398 0.4926862
vt 0.7525967 0.5013258
vt 0.5412975 0.6773744
vt 0.5246164 0.5683571
vt 0.5246164 0.6773744
vt 0.5412975 0.5683571
vt 0.5246164 0.6773744
vt 0.5412975 0.5683571
vt 0.5412975 0.6773744
vt 0.5246164 0.5683571
vt 0.5412975 0.6773744
vt 0.5246164 0.5683571
vt 0.5246164 0.6773744
vt 0.5412975 0.5683571
vt 0.5246164 0.6773744
vt 0.5412975 0.5683571
vt 0.5412975 0.6773744
vt 0.5246164 0.5683571
vt 0.5093359 0.6526911
vt 0.5246164 0.6774452
vt 0.5246164 0.6526911
vt 0.5093359 0.6774452
vt 0.5093359 0.6774452
vt 0.5246164 0.6526911
vt 0.5246164 0.6774452
vt 0.5093359 0.6526911
vt 0.5412975 0.6773744
vt 0.5246164 0.5683571
vt 0.5246164 0.6773744
vt 0.5412975 0.5683571
vt 0.5246164 0.6773744
vt 0.5412975 0.5683571
vt 0.5412975 0.6773744
vt 0.5246164 0.5683571
vt 0.5412975 0.6773744
vt 0.5246164 0.5683571
vt 0.5246164 0.6773744
vt 0.5412975 0.5683571
vt 0.5246164 0.6773744
vt 0.5412975 0.5683571
vt 0.5412975 0.6773744
vt 0.5246164 0.5683571
vt 0.5412975 0.6773744
vt 0.5246164 0.5683571
vt 0.5246164 0.6773744
vt 0.5412975 0.5683571
vt 0.5246164 0.6773744
vt 0.5412975 0.5683571
vt 0.5412975 0.6773744
vt 0.5246164 0.5683571
vt 0.5412975 0.6773744
vt 0.5246164 0.5683571
vt 0.5246164 0.6773744
vt 0.5412975 0.5683571
vt 0.5246164 0.6773744
vt 0.5412975 0.5683571
vt 0.5412975 0.6773744
vt 0.5246164 0.5683571
vt 0.5412975 0.6773744
vt 0.5246164 0.5683571
vt 0.5246164 0.6773744
vt 0.5412975 0.5683571
vt 0.5246164 0.6773744
vt 0.5412975 0.5683571
vt 0.5412975 0.6773744
vt 0.5246164 0.5683571
vt 0.5412975 0.6773744
vt 0.5246164 0.5683571
vt 0.5246164 0.6773744
vt 0.5412975 0.5683571
vt 0.5246164 0.6773744
vt 0.5412975 0.5683571
vt 0.5412975 0.6773744
vt 0.5246164 0.5683571
vt 0.5412975 0.6773744
vt 0.5246164 0.5683571
vt 0.5246164 0.6773744
vt 0.5412975 0.5683571
vt 0.5246164 0.6773744
vt 0.5412975 0.5683571
vt 0.5412975 0.6773744
vt 0.5246164 0.5683571
vt 0.5412975 0.6773744
vt 0.5246164 0.5683571
vt 0.5246164 0.6773744
vt 0.5412975 0.5683571
vt 0.5246164 0.6773744
vt 0.5412975 0.5683571
vt 0.5412975 0.6773744
vt 0.5246164 0.5683571
vt 0.5093359 0.6526911
vt 0.5246164 0.6774452
vt 0.5246164 0.6526911
vt 0.5093359 0.6774452
vt 0.5093359 0.6774452
vt 0.5246164 0.6526911
vt 0.5246164 0.6774452
vt 0.5093359 0.6526911
vn 0.003921568 0.9999923 -0.000345267
vn 0.003921568 0.9999923 -0.000345267
vn 0.003921568 0.9999923 -0.000345267
vn 0.003921568 0.9999923 -0.000345267
vn 0.01176465 -0.2235277 -0.9746265
vn 0.01176465 0.01176453 -0.9998616
vn 0.01176465 0.01176453 -0.9998616
vn 0.01176465 -0.2235277 -0.9746265
vn 0.01176465 0.2470568 -0.9689296
vn 0.01176465 0.2470568 -0.9689296
vn -0.9843061 -0.145097 0.100441
vn -0.9921492 0.003921509 0.1249981
vn -0.9921492 0.003921509 -0.1249981
vn -0.9921492 0.003921509 0.1249981
vn -0.9843061 0.1529399 0.08803921
vn -0.9921492 0.003921509 0.1249981
vn -0.9843061 0.1529399 0.08803921
vn -0.9843061 -0.145097 0.100441
vn -0.9843061 -0.145097 0.100441
vn 0.01176465 -0.450977 0.892458
vn 0.01176465 -0.450977 0.892458
vn 0.01176465 -0.450977 0.892458
vn 0.01176465 -0.450977 0.892458
vn 0.9905663 -0.1370349 0
vn 0.9999924 0.003921509 0
vn 0.9999924 0.003921509 0
vn 0.9894748 0.1447058 0
vn 0.9999924 0.003921509 0
vn 0.9894748 0.1447058 0
vn 0.9999924 0.003921509 0
vn 0.9905663 -0.1370349 0
vn 0.9905663 -0.1370349 0
vn 0.01176465 0.4980353 0.8670769
vn 0.01176465 0.4980353 0.8670769
vn 0.01176465 0.4980353 0.8670769
vn 0.01176465 0.4980353 0.8670769
vn 0.01176465 0.3568599 0.9340838
vn 0.01176465 0.3568599 0.9340838
vn 0.01176465 0.3568599 0.9340838
vn 0.01176465 0.3568599 0.9340838
vn 0.01176465 -0.9921493 0.1245045
vn 0.01176465 -0.9137185 0.4061774
vn 0.01176465 -0.9137185 0.4061774
vn 0.01176465 -0.9921493 0.1245045
vn 0.9977852 -0.06651904 0
vn 0.9999924 -0.003921568 0
vn 0.9999924 -0.003921568 0
vn 0.9977852 -0.06651904 0
vn 0.01176465 0.7333276 -0.6797736
vn 0.01176465 0.9058753 -0.423381
vn 0.01176465 0.9058753 -0.423381
vn 0.01176465 0.7333276 -0.6797736
vn -0.9843061 -0.06666619 -0.1633926
vn -0.9921492 -0.01176465 0.124505
vn -0.9921492 -0.01176465 -0.124505
vn -0.9843061 -0.06666619 -0.1633926
vn 0.01176465 -0.7803862 0.6251872
vn 0.01176465 -0.9137185 0.4061774
vn 0.01176465 -0.7803862 0.6251872
vn 0.01176465 -0.9137185 0.4061774
vn 0.998703 0.05091424 0
vn 0.9999924 -0.003921568 0
vn 0.9982743 0.05872193 0
vn 0.9999924 -0.003921568 0
vn 0.01176465 0.9921492 -0.124505
vn 0.01176465 0.9058753 -0.423381
vn 0.01176465 0.9921492 -0.124505
vn 0.01176465 0.9058753 -0.423381
vn -0.9843061 0.05882299 0.1663772
vn -0.9921492 -0.01176465 0.124505
vn -0.9843061 0.05097997 0.1689454
vn -0.9921492 -0.01176465 -0.124505
vn 0.01176465 -0.3725462 -0.9279391
vn 0.01176465 -0.3725462 -0.9279391
vn 0.01176465 -0.3725462 -0.9279391
vn 0.01176465 -0.3725462 -0.9279391
vn 0.003921568 -0.9999924 0
vn 0.003921568 -0.9999924 0
vn 0.003921568 -0.9999924 0
vn 0.003921568 -0.9999924 0
vn 0.01176465 -0.01176465 -0.9998616
vn 0.01176465 -0.01176465 -0.9998616
vn 0.01176465 -0.01176465 -0.9998616
vn 0.01176465 -0.01176465 -0.9998616
vn 0.9999924 -0.003921568 0
vn 0.9999924 -0.003921568 0
vn 0.9999924 -0.003921568 0
vn 0.9999924 -0.003921568 0
vn 0.01176465 -0.01176465 0.9998616
vn 0.01176465 -0.01176465 0.9998616
vn 0.01176465 -0.01176465 0.9998616
vn 0.01176465 -0.01176465 0.9998616
vn -0.9999923 -0.003921568 -0.0003442513
vn -0.9999923 -0.003921568 -0.0003442513
vn -0.9999923 -0.003921568 -0.0003442513
vn -0.9999923 -0.003921568 -0.0003442513
vn 0.003921568 0.9999923 -0.000345267
vn 0.003921568 0.9999923 -0.000345267
vn 0.003921568 0.9999923 -0.000345267
vn 0.003921568 0.9999923 -0.000345267
vn 0.003921568 0.9999923 -0.000345267
vn 0.003921568 0.9999923 -0.000345267
vn 0.003921568 0.9999923 -0.000345267
vn 0.003921568 0.9999923 -0.000345267
vn 0.01176465 -0.01176465 -0.9998616
vn 0.01176465 -0.01176465 -0.9998616
vn 0.01176465 -0.01176465 -0.9998616
vn 0.01176465 -0.01176465 -0.9998616
vn 0.003921568 -0.9999924 0
vn 0.003921568 -0.9999924 0
vn 0.003921568 -0.9999924 0
vn 0.003921568 -0.9999924 0
vn 0.01176465 -0.01176465 0.9998616
vn 0.01176465 -0.01176465 0.9998616
vn 0.01176465 -0.01176465 0.9998616
vn 0.01176465 -0.01176465 0.9998616
vn 0.9999924 -0.003921568 0
vn 0.9999924 -0.003921568 0
vn 0.9999924 -0.003921568 0
vn 0.9999924 -0.003921568 0
vn -0.9999923 -0.003921568 -0.0003442513
vn -0.9999923 -0.003921568 -0.0003442513
vn -0.9999923 -0.003921568 -0.0003442513
vn -0.9999923 -0.003921568 -0.0003442513
vn 0.003921568 0.9999923 -0.000345267
vn 0.003921568 0.9999923 -0.000345267
vn 0.003921568 0.9999923 -0.000345267
vn 0.003921568 0.9999923 -0.000345267
vn 0.01176465 -0.01176465 -0.9998616
vn 0.01176465 -0.01176465 -0.9998616
vn 0.01176465 -0.01176465 -0.9998616
vn 0.01176465 -0.01176465 -0.9998616
vn 0.003921568 -0.9999924 0
vn 0.003921568 -0.9999924 0
vn 0.003921568 -0.9999924 0
vn 0.003921568 -0.9999924 0
vn 0.01176465 -0.01176465 0.9998616
vn 0.01176465 -0.01176465 0.9998616
vn 0.01176465 -0.01176465 0.9998616
vn 0.01176465 -0.01176465 0.9998616
vn 0.9999924 -0.003921568 0
vn 0.9999924 -0.003921568 0
vn 0.9999924 -0.003921568 0
vn 0.9999924 -0.003921568 0
vn -0.9999923 -0.003921568 -0.0003442513
vn -0.9999923 -0.003921568 -0.0003442513
vn -0.9999923 -0.003921568 -0.0003442513
vn -0.9999923 -0.003921568 -0.0003442513
vn 0.003921568 0.9999923 -0.000345267
vn 0.003921568 0.9999923 -0.000345267
vn 0.003921568 0.9999923 -0.000345267
vn 0.003921568 0.9999923 -0.000345267
vn 0.01176465 -0.01176465 -0.9998616
vn 0.01176465 -0.01176465 -0.9998616
vn 0.01176465 -0.01176465 -0.9998616
vn 0.01176465 -0.01176465 -0.9998616
vn 0.003921568 -0.9999924 0
vn 0.003921568 -0.9999924 0
vn 0.003921568 -0.9999924 0
vn 0.003921568 -0.9999924 0
vn 0.01176465 -0.01176465 0.9998616
vn 0.01176465 -0.01176465 0.9998616
vn 0.01176465 -0.01176465 0.9998616
vn 0.01176465 -0.01176465 0.9998616
vn 0.9999924 -0.003921568 0
vn 0.9999924 -0.003921568 0
vn 0.9999924 -0.003921568 0
vn 0.9999924 -0.003921568 0
vn -0.9999923 -0.003921568 -0.0003442513
vn -0.9999923 -0.003921568 -0.0003442513
vn -0.9999923 -0.003921568 -0.0003442513
vn -0.9999923 -0.003921568 -0.0003442513
vn 0.003921568 0.9999923 -0.000345267
vn 0.003921568 0.9999923 -0.000345267
vn 0.003921568 0.9999923 -0.000345267
vn 0.003921568 0.9999923 -0.000345267
vn 0.01176465 -0.01176465 -0.9998616
vn 0.01176465 -0.01176465 -0.9998616
vn 0.01176465 -0.01176465 -0.9998616
vn 0.01176465 -0.01176465 -0.9998616
vn 0.003921568 -0.9999924 0
vn 0.003921568 -0.9999924 0
vn 0.003921568 -0.9999924 0
vn 0.003921568 -0.9999924 0
vn 0.01176465 -0.01176465 0.9998616
vn 0.01176465 -0.01176465 0.9998616
vn 0.01176465 -0.01176465 0.9998616
vn 0.01176465 -0.01176465 0.9998616
vn 0.9999924 -0.003921568 0
vn 0.9999924 -0.003921568 0
vn 0.9999924 -0.003921568 0
vn 0.9999924 -0.003921568 0
vn -0.9999923 -0.003921568 -0.0003442513
vn -0.9999923 -0.003921568 -0.0003442513
vn -0.9999923 -0.003921568 -0.0003442513
vn -0.9999923 -0.003921568 -0.0003442513
vn 0.003921568 0.9999923 -0.000345267
vn 0.003921568 0.9999923 -0.000345267
vn 0.003921568 0.9999923 -0.000345267
vn 0.003921568 0.9999923 -0.000345267
vn 0.01176465 -0.01176465 -0.9998616
vn 0.01176465 -0.01176465 -0.9998616
vn 0.01176465 -0.01176465 -0.9998616
vn 0.01176465 -0.01176465 -0.9998616
vn 0.003921568 -0.9999924 0
vn 0.003921568 -0.9999924 0
vn 0.003921568 -0.9999924 0
vn 0.003921568 -0.9999924 0
vn 0.01176465 -0.01176465 0.9998616
vn 0.01176465 -0.01176465 0.9998616
vn 0.01176465 -0.01176465 0.9998616
vn 0.01176465 -0.01176465 0.9998616
vn 0.9999924 -0.003921568 0
vn 0.9999924 -0.003921568 0
vn 0.9999924 -0.003921568 0
vn 0.9999924 -0.003921568 0
vn -0.9999923 -0.003921568 -0.0003442513
vn -0.9999923 -0.003921568 -0.0003442513
vn -0.9999923 -0.003921568 -0.0003442513
vn -0.9999923 -0.003921568 -0.0003442513
vn 0.01176465 0.9843061 0.176077
vn 0.01176465 0.9843061 0.176077
vn 0.01176465 0.9843061 0.176077
vn 0.01176465 0.9843061 0.176077
vn 0.01176465 -0.05098003 -0.9986304
vn 0.01176465 0.1843122 -0.9827973
vn 0.01176465 0.1843122 -0.9827973
vn 0.01176465 -0.05098003 -0.9986304
vn 0.01176465 0.4117615 -0.9112157
vn 0.01176465 0.4117615 -0.9112157
vn -0.9843061 -0.145097 -0.100441
vn -0.9921492 0.003921509 0.1249981
vn -0.9921492 0.003921509 0.1249981
vn -0.9921492 0.003921509 0.1249981
vn -0.9843061 0.1529399 0.08803921
vn -0.9921492 0.003921509 0.1249981
vn -0.9843061 0.1529399 0.08803921
vn -0.9843061 -0.145097 -0.100441
vn -0.9843061 -0.145097 -0.100441
vn 0.01176465 -0.5999954 0.7999169
vn 0.01176465 -0.5999954 0.7999169
vn 0.01176465 -0.5999954 0.7999169
vn 0.01176465 -0.5999954 0.7999169
vn 0.9905663 -0.1370349 0
vn 0.9999924 0.003921509 0
vn 0.9999924 0.003921509 0
vn 0.9894748 0.1447058 0
vn 0.9999924 0.003921509 0
vn 0.9894748 0.1447058 0
vn 0.9999924 0.003921509 0
vn 0.9905663 -0.1370349 0
vn 0.9905663 -0.1370349 0
vn 0.01176465 0.3411738 0.9399266
vn 0.01176465 0.3411738 0.9399266
vn 0.01176465 0.3411738 0.9399266
vn 0.01176465 0.3411738 0.9399266
vn 0.01176465 -0.01176465 0.9998616
vn 0.01176465 -0.01176465 0.9998616
vn 0.01176465 -0.01176465 0.9998616
vn 0.01176465 -0.01176465 0.9998616
vn 0.9999924 -0.003921568 0
vn 0.9999924 -0.003921568 0
vn 0.9999924 -0.003921568 0
vn 0.9999924 -0.003921568 0
vn 0.01176465 -0.01176465 -0.9998616
vn 0.01176465 -0.01176465 -0.9998616
vn 0.01176465 -0.01176465 -0.9998616
vn 0.01176465 -0.01176465 -0.9998616
vn -0.9999923 -0.003921568 -0.0003442513
vn -0.9999923 -0.003921568 -0.0003442513
vn -0.9999923 -0.003921568 -0.0003442513
vn -0.9999923 -0.003921568 -0.0003442513
vn 0.003921568 -0.9999924 0
vn 0.003921568 -0.9999924 0
vn 0.003921568 -0.9999924 0
vn 0.003921568 -0.9999924 0
vn 0.003921568 0.9999923 -0.000345267
vn 0.003921568 0.9999923 -0.000345267
vn 0.003921568 0.9999923 -0.000345267
vn 0.003921568 0.9999923 -0.000345267
vn 0.003921568 0.9999923 -0.000345267
vn 0.003921568 0.9999923 -0.000345267
vn 0.003921568 0.9999923 -0.000345267
vn 0.003921568 0.9999923 -0.000345267
vn 0.01176465 -0.01176465 0.9998616
vn 0.01176465 -0.01176465 0.9998616
vn 0.01176465 -0.01176465 0.9998616
vn 0.01176465 -0.01176465 0.9998616
vn 0.003921568 -0.9999924 0
vn 0.003921568 -0.9999924 0
vn 0.003921568 -0.9999924 0
vn 0.003921568 -0.9999924 0
vn 0.01176465 -0.01176465 -0.9998616
vn 0.01176465 -0.01176465 -0.9998616
vn 0.01176465 -0.01176465 -0.9998616
vn 0.01176465 -0.01176465 -0.9998616
vn 0.003921568 0.9999923 -0.000345267
vn 0.003921568 0.9999923 -0.000345267
vn 0.003921568 0.9999923 -0.000345267
vn 0.003921568 0.9999923 -0.000345267
vn 0.01176465 -0.01176465 0.9998616
vn 0.01176465 -0.01176465 0.9998616
vn 0.01176465 -0.01176465 0.9998616
vn 0.01176465 -0.01176465 0.9998616
vn 0.003921568 -0.9999924 0
vn 0.003921568 -0.9999924 0
vn 0.003921568 -0.9999924 0
vn 0.003921568 -0.9999924 0
vn 0.01176465 -0.01176465 -0.9998616
vn 0.01176465 -0.01176465 -0.9998616
vn 0.01176465 -0.01176465 -0.9998616
vn 0.01176465 -0.01176465 -0.9998616
vn 0.003921568 0.9999923 -0.000345267
vn 0.003921568 0.9999923 -0.000345267
vn 0.003921568 0.9999923 -0.000345267
vn 0.003921568 0.9999923 -0.000345267
vn 0.01176465 -0.01176465 0.9998616
vn 0.01176465 -0.01176465 0.9998616
vn 0.01176465 -0.01176465 0.9998616
vn 0.01176465 -0.01176465 0.9998616
vn 0.003921568 -0.9999924 0
vn 0.003921568 -0.9999924 0
vn 0.003921568 -0.9999924 0
vn 0.003921568 -0.9999924 0
vn 0.01176465 -0.01176465 -0.9998616
vn 0.01176465 -0.01176465 -0.9998616
vn 0.01176465 -0.01176465 -0.9998616
vn 0.01176465 -0.01176465 -0.9998616
vn 0.01176465 -0.01176465 0.9998616
vn 0.01176465 -0.01176465 0.9998616
vn 0.01176465 -0.01176465 0.9998616
vn 0.01176465 -0.01176465 0.9998616
vn 0.9999924 -0.003921568 0
vn 0.9999924 -0.003921568 0
vn 0.9999924 -0.003921568 0
vn 0.9999924 -0.003921568 0
vn 0.01176465 -0.01176465 -0.9998616
vn 0.01176465 -0.01176465 -0.9998616
vn 0.01176465 -0.01176465 -0.9998616
vn 0.01176465 -0.01176465 -0.9998616
vn -0.9999923 -0.003921568 -0.0003442513
vn -0.9999923 -0.003921568 -0.0003442513
vn -0.9999923 -0.003921568 -0.0003442513
vn -0.9999923 -0.003921568 -0.0003442513
vn 0.003921568 -0.9999924 0
vn 0.003921568 -0.9999924 0
vn 0.003921568 -0.9999924 0
vn 0.003921568 -0.9999924 0
vn 0.003921568 0.9999923 -0.000345267
vn 0.003921568 0.9999923 -0.000345267
vn 0.003921568 0.9999923 -0.000345267
vn 0.003921568 0.9999923 -0.000345267
g DSJ_GTA_daoJu_zhuangShi_07_0
f 3/3/3 2/2/2 1/1/1
f 4/4/4 1/1/1 2/2/2
f 7/7/7 6/6/6 5/5/5
f 8/8/8 5/5/5 6/6/6
f 7/7/7 9/9/9 6/6/6
f 10/10/10 6/6/6 9/9/9
f 13/13/13 12/12/12 11/11/11
f 13/13/13 15/15/15 14/14/14
f 17/17/17 16/16/16 15/15/15
f 19/19/19 18/18/18 16/16/16
f 22/22/22 21/21/21 20/20/20
f 23/23/23 20/20/20 21/21/21
f 26/26/26 25/25/25 24/24/24
f 26/26/26 27/27/27 25/25/25
f 29/29/29 28/28/28 27/27/27
f 32/32/32 31/31/31 30/30/30
f 35/35/35 34/34/34 33/33/33
f 36/36/36 33/33/33 34/34/34
f 39/39/39 38/38/38 37/37/37
f 40/40/40 37/37/37 38/38/38
f 43/43/43 42/42/42 41/41/41
f 44/44/44 41/41/41 42/42/42
f 47/47/47 46/46/46 45/45/45
f 48/48/48 45/45/45 46/46/46
f 51/51/51 50/50/50 49/49/49
f 52/52/52 49/49/49 50/50/50
f 55/55/55 54/54/54 53/53/53
f 56/56/56 53/53/53 54/54/54
f 59/59/59 58/58/58 57/57/57
f 60/60/60 57/57/57 58/58/58
f 63/63/63 62/62/62 61/61/61
f 64/64/64 61/61/61 62/62/62
f 67/67/67 66/66/66 65/65/65
f 68/68/68 65/65/65 66/66/66
f 71/71/71 70/70/70 69/69/69
f 72/72/72 69/69/69 70/70/70
f 75/75/75 74/74/74 73/73/73
f 76/76/76 73/73/73 74/74/74
f 79/79/79 78/78/78 77/77/77
f 80/80/80 77/77/77 78/78/78
f 83/83/83 82/82/82 81/81/81
f 84/84/84 81/81/81 82/82/82
f 87/87/87 86/86/86 85/85/85
f 88/88/88 85/85/85 86/86/86
f 91/91/91 90/90/90 89/89/89
f 92/92/92 89/89/89 90/90/90
f 95/95/95 94/94/94 93/93/93
f 96/96/96 93/93/93 94/94/94
f 99/99/99 98/98/98 97/97/97
f 100/100/100 97/97/97 98/98/98
f 103/103/103 102/102/102 101/101/101
f 104/104/104 101/101/101 102/102/102
f 107/107/107 106/106/106 105/105/105
f 108/108/108 105/105/105 106/106/106
f 111/111/111 110/110/110 109/109/109
f 112/112/112 109/109/109 110/110/110
f 115/115/115 114/114/114 113/113/113
f 116/116/116 113/113/113 114/114/114
f 119/119/119 118/118/118 117/117/117
f 120/120/120 117/117/117 118/118/118
f 123/123/123 122/122/122 121/121/121
f 124/124/124 121/121/121 122/122/122
f 127/127/127 126/126/126 125/125/125
f 128/128/128 125/125/125 126/126/126
f 131/131/131 130/130/130 129/129/129
f 132/132/132 129/129/129 130/130/130
f 135/135/135 134/134/134 133/133/133
f 136/136/136 133/133/133 134/134/134
f 139/139/139 138/138/138 137/137/137
f 140/140/140 137/137/137 138/138/138
f 143/143/143 142/142/142 141/141/141
f 144/144/144 141/141/141 142/142/142
f 147/147/147 146/146/146 145/145/145
f 148/148/148 145/145/145 146/146/146
f 151/151/151 150/150/150 149/149/149
f 152/152/152 149/149/149 150/150/150
f 155/155/155 154/154/154 153/153/153
f 156/156/156 153/153/153 154/154/154
f 159/159/159 158/158/158 157/157/157
f 160/160/160 157/157/157 158/158/158
f 163/163/163 162/162/162 161/161/161
f 164/164/164 161/161/161 162/162/162
f 167/167/167 166/166/166 165/165/165
f 168/168/168 165/165/165 166/166/166
f 171/171/171 170/170/170 169/169/169
f 172/172/172 169/169/169 170/170/170
f 175/175/175 174/174/174 173/173/173
f 176/176/176 173/173/173 174/174/174
f 179/179/179 178/178/178 177/177/177
f 180/180/180 177/177/177 178/178/178
f 183/183/183 182/182/182 181/181/181
f 184/184/184 181/181/181 182/182/182
f 187/187/187 186/186/186 185/185/185
f 188/188/188 185/185/185 186/186/186
f 191/191/191 190/190/190 189/189/189
f 192/192/192 189/189/189 190/190/190
f 195/195/195 194/194/194 193/193/193
f 196/196/196 193/193/193 194/194/194
f 199/199/199 198/198/198 197/197/197
f 200/200/200 197/197/197 198/198/198
f 203/203/203 202/202/202 201/201/201
f 204/204/204 201/201/201 202/202/202
f 207/207/207 206/206/206 205/205/205
f 208/208/208 205/205/205 206/206/206
f 211/211/211 210/210/210 209/209/209
f 212/212/212 209/209/209 210/210/210
f 215/215/215 214/214/214 213/213/213
f 216/216/216 213/213/213 214/214/214
f 219/219/219 218/218/218 217/217/217
f 220/220/220 217/217/217 218/218/218
f 223/223/223 222/222/222 221/221/221
f 224/224/224 221/221/221 222/222/222
f 227/227/227 226/226/226 225/225/225
f 228/228/228 225/225/225 226/226/226
f 227/227/227 229/229/229 226/226/226
f 230/230/230 226/226/226 229/229/229
f 233/233/233 232/232/232 231/231/231
f 233/233/233 235/235/235 234/234/234
f 237/237/237 236/236/236 235/235/235
f 239/239/239 238/238/238 236/236/236
f 242/242/242 241/241/241 240/240/240
f 243/243/243 240/240/240 241/241/241
f 246/246/246 245/245/245 244/244/244
f 246/246/246 247/247/247 245/245/245
f 249/249/249 248/248/248 247/247/247
f 252/252/252 251/251/251 250/250/250
f 255/255/255 254/254/254 253/253/253
f 256/256/256 253/253/253 254/254/254
f 259/259/259 258/258/258 257/257/257
f 260/260/260 257/257/257 258/258/258
f 263/263/263 262/262/262 261/261/261
f 264/264/264 261/261/261 262/262/262
f 267/267/267 266/266/266 265/265/265
f 268/268/268 265/265/265 266/266/266
f 271/271/271 270/270/270 269/269/269
f 272/272/272 269/269/269 270/270/270
f 275/275/275 274/274/274 273/273/273
f 276/276/276 273/273/273 274/274/274
f 279/279/279 278/278/278 277/277/277
f 280/280/280 277/277/277 278/278/278
f 283/283/283 282/282/282 281/281/281
f 284/284/284 281/281/281 282/282/282
f 287/287/287 286/286/286 285/285/285
f 288/288/288 285/285/285 286/286/286
f 291/291/291 290/290/290 289/289/289
f 292/292/292 289/289/289 290/290/290
f 295/295/295 294/294/294 293/293/293
f 296/296/296 293/293/293 294/294/294
f 299/299/299 298/298/298 297/297/297
f 300/300/300 297/297/297 298/298/298
f 303/303/303 302/302/302 301/301/301
f 304/304/304 301/301/301 302/302/302
f 307/307/307 306/306/306 305/305/305
f 308/308/308 305/305/305 306/306/306
f 311/311/311 310/310/310 309/309/309
f 312/312/312 309/309/309 310/310/310
f 315/315/315 314/314/314 313/313/313
f 316/316/316 313/313/313 314/314/314
f 319/319/319 318/318/318 317/317/317
f 320/320/320 317/317/317 318/318/318
f 323/323/323 322/322/322 321/321/321
f 324/324/324 321/321/321 322/322/322
f 327/327/327 326/326/326 325/325/325
f 328/328/328 325/325/325 326/326/326
f 331/331/331 330/330/330 329/329/329
f 332/332/332 329/329/329 330/330/330
f 335/335/335 334/334/334 333/333/333
f 336/336/336 333/333/333 334/334/334
f 339/339/339 338/338/338 337/337/337
f 340/340/340 337/337/337 338/338/338
f 343/343/343 342/342/342 341/341/341
f 344/344/344 341/341/341 342/342/342
f 347/347/347 346/346/346 345/345/345
f 348/348/348 345/345/345 346/346/346
f 351/351/351 350/350/350 349/349/349
f 352/352/352 349/349/349 350/350/350
