g DSJ_GTA_daoJu_che_03
v 0.5861368 0.5133731 -1.033802
v 0.7848833 0.3040774 -0.9452857
v 0.5874637 0.3027549 -0.9454646
v 0.7835608 0.5146956 -1.033631
v 0.5874637 0.3027549 -0.9454646
v 0.7863672 0.09269094 -1.03175
v 0.5889478 0.09136844 -1.031925
v 0.7848833 0.3040774 -0.9452857
v 0.7871485 0.004353762 -1.242369
v 0.589729 0.003031254 -1.242548
v 0.7867644 0.09081411 -1.453768
v 0.5893362 0.08949161 -1.453938
v 0.5893362 0.08949161 -1.453938
v 0.7854375 0.3014281 -1.542105
v 0.5880094 0.3001056 -1.542275
v 0.7867644 0.09081411 -1.453768
v 0.5880094 0.3001056 -1.542275
v 0.7839273 0.5128233 -1.455636
v 0.5865253 0.5114963 -1.455815
v 0.7854375 0.3014281 -1.542105
v 0.7831504 0.601156 -1.245022
v 0.585744 0.599829 -1.245201
v 0.585744 0.599829 -1.245201
v 0.7835608 0.5146956 -1.033631
v 0.5861368 0.5133731 -1.033802
v 0.7831504 0.601156 -1.245022
v 0.7831504 0.601156 -1.245022
v 0.7848833 0.3040774 -0.9452857
v 0.7835608 0.5146956 -1.033631
v 0.7863672 0.09269094 -1.03175
v 0.7871485 0.004353762 -1.242369
v 0.7867644 0.09081411 -1.453768
v 0.7854375 0.3014281 -1.542105
v 0.7839273 0.5128233 -1.455636
v 0.5861368 0.5133731 1.612333
v 0.7848833 0.3040774 1.700849
v 0.5874637 0.3027549 1.70067
v 0.7835608 0.5146956 1.612508
v 0.585744 0.599829 1.400942
v 0.7831504 0.601156 1.401117
v 0.5874637 0.3027549 1.70067
v 0.7863672 0.09269094 1.614389
v 0.5889478 0.09136844 1.61421
v 0.7848833 0.3040774 1.700849
v 0.5889478 0.09136844 1.61421
v 0.7871485 0.004353762 1.403766
v 0.589729 0.003031254 1.403596
v 0.7863672 0.09269094 1.614389
v 0.7867644 0.09081411 1.192371
v 0.5893362 0.08949161 1.192197
v 0.5893362 0.08949161 1.192197
v 0.7854375 0.3014281 1.104034
v 0.5880094 0.3001056 1.103859
v 0.7867644 0.09081411 1.192371
v 0.5880094 0.3001056 1.103859
v 0.7839273 0.5128233 1.19049
v 0.5865253 0.5114963 1.190315
v 0.7854375 0.3014281 1.104034
v 0.5865253 0.5114963 1.190315
v 0.7831504 0.601156 1.401117
v 0.585744 0.599829 1.400942
v 0.7839273 0.5128233 1.19049
v 0.7831504 0.601156 1.401117
v 0.7848833 0.3040774 1.700849
v 0.7835608 0.5146956 1.612508
v 0.7863672 0.09269094 1.614389
v 0.7871485 0.004353762 1.403766
v 0.7867644 0.09081411 1.192371
v 0.7854375 0.3014281 1.104034
v 0.7839273 0.5128233 1.19049
v 0.9766853 0.8666296 0.5187898
v 0.7958866 0.9317815 0.6166637
v 0.9586766 0.9437888 0.5238309
v 0.786747 0.8658876 0.6418786
v 0.9591873 0.8374386 0.5242543
v 0.7869172 0.8384948 0.6446109
v 0.9591873 0.8374386 0.5242543
v 0.7881087 0.8157504 0.5733049
v 0.7869172 0.8384948 0.6446109
v 0.7876242 0.8886802 0.5729904
v 0.7958866 0.9317815 0.6166637
v 0.786747 0.8658876 0.6418786
v 0.7947693 0.9465735 0.5703673
v 0.7869172 0.8384948 0.6446109
v 0.7521917 0.838089 0.6038795
v 0.7521523 0.8382723 0.647186
v 0.7869172 0.8384948 0.6446109
v 0.7881087 0.8157504 0.5733049
v 0.786747 0.8658876 0.6418786
v 0.7521523 0.8382723 0.647186
v 0.735453 0.865556 0.6446893
v 0.7869172 0.8384948 0.6446109
v 0.786747 0.8658876 0.6418786
v 0.7214074 0.8883398 0.6034298
v 0.7876242 0.8886802 0.5729904
v 0.735453 0.865556 0.6446893
v 0.7521917 0.838089 0.6038795
v 0.7876242 0.8886802 0.5729904
v 0.7214074 0.8883398 0.6034298
v 0.7881087 0.8157504 0.5733049
v 0.8440292 0.9647131 0.5566099
v 0.7958866 0.9317815 0.6166637
v 0.7947693 0.9465735 0.5703673
v 0.9586766 0.9437888 0.5238309
v 0.8440292 0.9647131 0.5566099
v 0.9591873 0.8374386 0.5242543
v 0.9586766 0.9437888 0.5238309
v 0.7881087 0.8157504 0.5733049
v 0.7876242 0.8886802 0.5729904
v 0.9766853 0.8666296 0.5187898
v 0.7947693 0.9465735 0.5703673
v -0.2141778 1.241867 0.04542994
v -0.214335 1.251565 0.1355653
v -0.2141559 1.225281 0.1356788
v -0.214313 1.260377 0.04534698
v -0.2141559 1.225281 0.1356788
v -0.159977 1.251927 0.1356132
v -0.1598024 1.225643 0.1357267
v -0.214335 1.251565 0.1355653
v -0.1598418 1.242229 0.04547811
v -0.214313 1.260377 0.04534698
v -0.2141778 1.241867 0.04542994
v -0.1599596 1.26074 0.04539514
v -0.159977 1.251927 0.1356132
v -0.1598418 1.242229 0.04547811
v -0.1598024 1.225643 0.1357267
v -0.1599596 1.26074 0.04539514
v 0.2097476 1.254406 0.1359494
v 0.2098873 1.244704 0.04580545
v 0.2099221 1.228122 0.1360586
v 0.2097692 1.263219 0.04572678
v 0.1553938 1.25404 0.1359015
v 0.2099221 1.228122 0.1360586
v 0.1555686 1.22776 0.1360104
v 0.2097476 1.254406 0.1359494
v 0.2097692 1.263219 0.04572678
v 0.1555512 1.244342 0.045753
v 0.2098873 1.244704 0.04580545
v 0.1554115 1.262856 0.04567885
v 0.1555512 1.244342 0.045753
v 0.1553938 1.25404 0.1359015
v 0.1555686 1.22776 0.1360104
v 0.1554115 1.262856 0.04567885
v -0.9597199 0.9309347 0.5221331
v -0.7869523 0.8553426 0.6404817
v -0.9766724 0.8535442 0.5170569
v -0.7969298 0.9211054 0.6152451
v -0.7867732 0.8279498 0.643214
v -0.9587815 0.824589 0.5225565
v -0.9587815 0.824589 0.5225565
v -0.7867732 0.8279498 0.643214
v -0.7875371 0.8051922 0.5719125
v -0.7880259 0.8781219 0.5715938
v -0.7969298 0.9211054 0.6152451
v -0.7959347 0.9359148 0.5689619
v -0.7869523 0.8553426 0.6404817
v -0.7519691 0.8280065 0.6025481
v -0.7867732 0.8279498 0.643214
v -0.7520084 0.8281941 0.6458547
v -0.7867732 0.8279498 0.643214
v -0.7875371 0.8051922 0.5719125
v -0.7520084 0.8281941 0.6458547
v -0.7869523 0.8553426 0.6404817
v -0.7356758 0.8557005 0.6433799
v -0.7867732 0.8279498 0.643214
v -0.7880259 0.8781219 0.5715938
v -0.7356758 0.8557005 0.6433799
v -0.7869523 0.8553426 0.6404817
v -0.7218747 0.8786719 0.6021512
v -0.7880259 0.8781219 0.5715938
v -0.7519691 0.8280065 0.6025481
v -0.7218747 0.8786719 0.6021512
v -0.7875371 0.8051922 0.5719125
v -0.9597199 0.9309347 0.5221331
v -0.7959347 0.9359148 0.5689619
v -0.7969298 0.9211054 0.6152451
v -0.8454261 0.9533911 0.5551171
v -0.7875371 0.8051922 0.5719125
v -0.9597199 0.9309347 0.5221331
v -0.9587815 0.824589 0.5225565
v -0.8454261 0.9533911 0.5551171
v -0.7880259 0.8781219 0.5715938
v -0.9766724 0.8535442 0.5170569
v -0.7959347 0.9359148 0.5689619
v 0.2418017 1.265196 0.02203965
v 0.2263944 1.374322 0.1177967
v 0.2263727 1.381284 0.07841825
v 0.2417624 1.253027 0.1596191
v -0.2464023 1.261923 0.02160311
v 0.2417624 1.253027 0.1596191
v 0.2418017 1.265196 0.02203965
v -0.2464416 1.249754 0.1591871
v -0.232636 1.371245 0.1173863
v -0.2464023 1.261923 0.02160311
v -0.232636 1.378207 0.07801247
v -0.2464416 1.249754 0.1591871
v 0.2417624 1.253027 0.1596191
v -0.232636 1.371245 0.1173863
v 0.2263944 1.374322 0.1177967
v -0.2464416 1.249754 0.1591871
v -0.232636 1.378207 0.07801247
v 0.2418017 1.265196 0.02203965
v 0.2263727 1.381284 0.07841825
v -0.2464023 1.261923 0.02160311
v 0.2263944 1.374322 0.1177967
v -0.232636 1.378207 0.07801247
v 0.2263727 1.381284 0.07841825
v -0.232636 1.371245 0.1173863
v -0.6199546 0.5133731 -1.453938
v -0.8187096 0.3040774 -1.542454
v -0.6212814 0.3027549 -1.542275
v -0.8173828 0.5146956 -1.454109
v -0.6195619 0.599829 -1.242534
v -0.8169899 0.601156 -1.242718
v -0.6212814 0.3027549 -1.542275
v -0.8201938 0.09269094 -1.455985
v -0.6227872 0.09136844 -1.455806
v -0.8187096 0.3040774 -1.542454
v -0.8209751 0.004353762 -1.245371
v -0.6235468 0.003031254 -1.245193
v -0.8205822 0.09081411 -1.033972
v -0.6231582 0.08949161 -1.033802
v -0.6231582 0.08949161 -1.033802
v -0.8192554 0.3014281 -0.9456306
v -0.6218314 0.3001056 -0.9454559
v -0.8205822 0.09081411 -1.033972
v -0.6218314 0.3001056 -0.9454559
v -0.8177538 0.5128233 -1.032095
v -0.6203432 0.5114963 -1.031921
v -0.8192554 0.3014281 -0.9456306
v -0.6203432 0.5114963 -1.031921
v -0.8169899 0.601156 -1.242718
v -0.6195619 0.599829 -1.242534
v -0.8177538 0.5128233 -1.032095
v -0.8169899 0.601156 -1.242718
v -0.8187096 0.3040774 -1.542454
v -0.8173828 0.5146956 -1.454109
v -0.8201938 0.09269094 -1.455985
v -0.8209751 0.004353762 -1.245371
v -0.8205822 0.09081411 -1.033972
v -0.8192554 0.3014281 -0.9456306
v -0.8177538 0.5128233 -1.032095
v -0.6199546 0.5133731 1.192201
v -0.8187096 0.3040774 1.103689
v -0.6212814 0.3027549 1.103864
v -0.8173828 0.5146956 1.192026
v -0.6212814 0.3027549 1.103864
v -0.8201938 0.09269094 1.190145
v -0.6227872 0.09136844 1.19032
v -0.8187096 0.3040774 1.103689
v -0.6227872 0.09136844 1.19032
v -0.8209751 0.004353762 1.400768
v -0.6235468 0.003031254 1.400942
v -0.8201938 0.09269094 1.190145
v -0.8205822 0.09081411 1.612163
v -0.6231582 0.08949161 1.612333
v -0.6231582 0.08949161 1.612333
v -0.8192554 0.3014281 1.700505
v -0.6218314 0.3001056 1.700675
v -0.8205822 0.09081411 1.612163
v -0.6218314 0.3001056 1.700675
v -0.8177538 0.5128233 1.614044
v -0.6203432 0.5114963 1.614214
v -0.8192554 0.3014281 1.700505
v -0.6203432 0.5114963 1.614214
v -0.8169899 0.601156 1.403426
v -0.6195619 0.599829 1.403596
v -0.8177538 0.5128233 1.614044
v -0.8173828 0.5146956 1.192026
v -0.6199546 0.5133731 1.192201
v -0.8169899 0.601156 1.403426
v -0.8187096 0.3040774 1.103689
v -0.8173828 0.5146956 1.192026
v -0.8201938 0.09269094 1.190145
v -0.8209751 0.004353762 1.400768
v -0.8205822 0.09081411 1.612163
v -0.8192554 0.3014281 1.700505
v -0.8177538 0.5128233 1.614044
v 0.7292027 0.5337563 -2.259395
v 0.8003386 0.4925056 -1.577664
v 0.7163488 0.5673993 -2.200637
v 0.6824481 0.7307525 -2.168535
v 0.808697 0.6066291 -1.45245
v 0.6406475 0.900862 -1.435917
v 0.6171131 0.8125818 -2.137668
v 0.7506073 0.2725074 -1.642663
v 0.633245 0.277169 -2.232626
v 0.6406475 0.900862 -1.435917
v 0.8113725 0.6422756 -1.2517
v 0.7505898 0.8577824 -1.118411
v 0.8133279 0.5935919 -1.060208
v 0.7476175 0.8595152 -0.7459545
v 0.7483988 0.8594499 -0.7920108
v 0.5472518 1.203938 -0.7683454
v 0.5469986 1.205125 -0.7269113
v 0.8127998 0.4943168 -0.2429976
v 0.7440253 0.8586249 -0.3351495
v 0.7443178 0.858747 -0.2509983
v 0.8138909 0.4727466 -0.9078497
v 0.7445927 0.8588693 -0.1657426
v 0.5414904 1.208726 -0.2983769
v 0.5414337 1.208957 -0.2444162
v 0.7451994 0.8562679 0.601038
v 0.7068818 0.8772097 0.728282
v 0.8151393 0.4956961 0.7361252
v 0.7034423 0.9206603 0.5995278
v 0.8283075 0.4832175 1.097003
v 0.8300447 0.6048789 1.211052
v 0.8168633 0.6547806 1.412976
v 0.7179724 0.8172476 1.411754
v 0.8133453 0.6142673 1.610753
v 0.7576213 0.6349168 1.762968
v 0.6464089 0.6716633 2.093475
v 0.7772887 0.5382257 1.763395
v 0.7893963 0.4899828 1.776092
v 0.809714 0.4899216 1.729814
v 0.6343973 0.9471147 0.645261
v 0.5815845 1.138524 0.248554
v 0.502038 1.187513 0.247319
v 0.6648716 0.8927872 0.7456143
v 0.4518178 1.252198 0.01020265
v 0.4519531 1.202362 0.2290266
v 2.145767E-06 1.204736 0.241025
v 2.145767E-06 1.252202 0.009792328
v 2.145767E-06 1.255323 -0.3089919
v 0.452071 1.255153 -0.3085729
v 0.5009031 1.236559 -0.3084507
v 0.5426034 1.204942 0.01048613
v 2.145767E-06 1.250125 -0.795616
v 0.4525598 1.24655 -0.7951882
v 0.4561344 1.185025 -1.084642
v 0.5716068 1.172228 -0.8627625
v 0.4852775 1.174406 -1.097989
v 2.145767E-06 1.188591 -1.093153
v 0.5415515 1.208407 -0.3721796
v 2.145767E-06 0.887733 -1.471257
v 0.6171131 0.8125818 -2.137668
v 0.6406475 0.900862 -1.435917
v 2.145767E-06 0.8078504 -2.137353
v 0.004707336 0.5287805 -2.288354
v 2.145767E-06 0.5624933 -2.225525
v 2.145767E-06 0.5296054 -2.286766
v 2.145767E-06 0.5287499 -2.288354
v -0.189801 0.5637679 -2.225354
v -0.6026878 0.5327873 -2.287817
v -0.004698753 0.5287805 -2.288354
v -0.5182006 0.5659678 -2.225062
v -0.7163446 0.5673993 -2.200637
v -0.7291985 0.5337563 -2.259395
v 0.004707336 0.5287805 -2.288354
v 0.1898053 0.5637679 -2.225354
v 2.145767E-06 0.5624933 -2.225525
v 0.5182048 0.5659678 -2.225062
v 0.6026965 0.5327873 -2.287817
v 0.7163488 0.5673993 -2.200637
v 0.7292027 0.5337563 -2.259395
v 0.4101218 0.4893498 2.271537
v 0.6498833 0.5389984 2.143176
v 0.6560986 0.4907248 2.208223
v 0.4098294 0.5365977 2.188739
v 0.3656107 0.5363359 2.196107
v 2.145767E-06 0.4866743 2.288354
v 2.145767E-06 0.5339746 2.216455
v 0.6601185 0.8856685 0.7735221
v 0.6648716 0.8927872 0.7456143
v 0.7068818 0.8772097 0.728282
v 0.7179724 0.8172476 1.411754
v 0.5647149 0.8299227 1.411994
v 0.6464089 0.6716633 2.093475
v 0.458068 0.6670191 2.138737
v 0.4073677 0.6790133 2.145153
v 2.145767E-06 0.8509996 1.411391
v 2.145767E-06 0.7264183 2.125551
v 2.145767E-06 0.9054406 0.8163178
v 0.6360996 0.8934245 0.7831376
v 0.6648716 0.8927872 0.7456143
v 0.6601185 0.8856685 0.7735221
v 0.651018 0.8904085 0.7642515
v 0.6360996 0.8934245 0.7831376
v 0.5647149 0.8299227 1.411994
v 0.4098294 0.5365977 2.188739
v 0.6464089 0.6716633 2.093475
v 0.6498833 0.5389984 2.143176
v 0.458068 0.6670191 2.138737
v 2.145767E-06 0.5339746 2.216455
v 0.4073677 0.6790133 2.145153
v 0.3656107 0.5363359 2.196107
v 2.145767E-06 0.7264183 2.125551
v 0.6560986 0.4907248 2.208223
v 0.7772887 0.5382257 1.763395
v 0.7893963 0.4899828 1.776092
v 0.6498833 0.5389984 2.143176
v 0.5949448 0.2721541 2.172376
v 0.7887765 0.2569036 1.758778
v 0.809714 0.4899216 1.729814
v 0.6464089 0.6716633 2.093475
v 0.7772887 0.5382257 1.763395
v 0.6498833 0.5389984 2.143176
v 0.7576213 0.6349168 1.762968
v 2.145767E-06 0.2698712 2.232094
v 0.4101218 0.4893498 2.271537
v 0.4116452 0.2720711 2.204823
v 2.145767E-06 0.4866743 2.288354
v 0.6560986 0.4907248 2.208223
v 0.5949448 0.2721541 2.172376
v 0.458068 0.6670191 2.138737
v 0.3656107 0.5363359 2.196107
v 0.4073677 0.6790133 2.145153
v 0.4098294 0.5365977 2.188739
v 0.8133847 0.2655983 1.043116
v 0.8034812 0.2642016 0.7313504
v 0.7816228 0.259876 -0.2417495
v 0.7848439 0.2571874 -0.8741586
v 0.5836533 0.7300017 -2.190027
v 0.7163488 0.5673993 -2.200637
v 0.6824481 0.7307525 -2.168535
v 0.5182048 0.5659678 -2.225062
v 0.6171131 0.8125818 -2.137668
v 0.7292027 0.5337563 -2.259395
v 0.6026965 0.5327873 -2.287817
v 0.633245 0.277169 -2.232626
v 0.004707336 0.5287805 -2.288354
v 2.145767E-06 0.5287499 -2.288354
v 2.145767E-06 0.2739174 -2.240709
v -0.004698753 0.5287805 -2.288354
v 0.633245 0.277169 -2.232626
v 0.004707336 0.5287805 -2.288354
v 2.145767E-06 0.5287499 -2.288354
v 2.145767E-06 0.8078504 -2.137353
v 0.5836533 0.7300017 -2.190027
v 0.6171131 0.8125818 -2.137668
v 0.1886747 0.7273436 -2.191973
v 2.145767E-06 0.7260778 -2.193082
v 0.5182048 0.5659678 -2.225062
v 0.1898053 0.5637679 -2.225354
v 0.1898053 0.5637679 -2.225354
v 2.145767E-06 0.7260778 -2.193082
v 2.145767E-06 0.5624933 -2.225525
v 0.1886747 0.7273436 -2.191973
v 0.8133453 0.6142673 1.610753
v 0.515826 0.6527641 1.41271
v 0.5159221 0.612277 1.610491
v 0.8168633 0.6547806 1.412976
v 0.809714 0.4899216 1.729814
v 0.5166466 0.4879575 1.729547
v 0.7887765 0.2569036 1.758778
v 0.5181873 0.2550924 1.758533
v 0.5163367 0.6027751 1.210781
v 0.8300447 0.6048789 1.211052
v 0.8283075 0.4832175 1.097003
v 0.5172533 0.4811311 1.096732
v 0.8133847 0.2655983 1.043116
v 0.5187547 0.2636211 1.042854
v 0.5041068 0.470669 -0.9081204
v 0.7848439 0.2571874 -0.8741586
v 0.8138909 0.4727466 -0.9078497
v 0.5055341 0.2553151 -0.8744031
v 0.5034391 0.5915143 -1.060479
v 0.8133279 0.5935919 -1.060208
v 0.5032862 0.6402111 -1.251971
v 0.8113725 0.6422756 -1.2517
v 0.518698 0.604687 -1.452716
v 0.808697 0.6066291 -1.45245
v 0.8003386 0.4925056 -1.577664
v 0.5195578 0.4906244 -1.577909
v 0.7506073 0.2725074 -1.642663
v 0.5211772 0.2567511 -1.642799
v 0.5163367 0.6027751 1.210781
v 0.5166466 0.4879575 1.729547
v 0.5159221 0.612277 1.610491
v 0.5172533 0.4811311 1.096732
v 0.5187547 0.2636211 1.042854
v 0.5181873 0.2550924 1.758533
v 0.515826 0.6527641 1.41271
v 0.5195578 0.4906244 -1.577909
v 0.5034391 0.5915143 -1.060479
v 0.518698 0.604687 -1.452716
v 0.5041068 0.470669 -0.9081204
v 0.5211772 0.2567511 -1.642799
v 0.5055341 0.2553151 -0.8744031
v 0.5032862 0.6402111 -1.251971
v -0.7163446 0.5673993 -2.200637
v -0.8003299 0.4925056 -1.577664
v -0.7291985 0.5337563 -2.259395
v -0.6824353 0.7307525 -2.168535
v -0.6406388 0.900862 -1.435917
v -0.6171045 0.8125818 -2.137668
v -0.8086884 0.6066291 -1.45245
v -0.750603 0.2725074 -1.642663
v -0.6332364 0.277169 -2.232626
v -0.4852734 1.174406 -1.097989
v -0.6406388 0.900862 -1.435917
v -0.7505856 0.8577824 -1.118411
v -0.5715983 1.172228 -0.8627625
v -0.4561303 1.185025 -1.084642
v -0.4525554 1.24655 -0.7951882
v -0.5472431 1.203938 -0.7683454
v 2.145767E-06 1.188591 -1.093153
v 2.145767E-06 1.250125 -0.795616
v -0.4520667 1.255153 -0.3085729
v 2.145767E-06 1.255323 -0.3089919
v -0.4518135 1.252198 0.01020265
v 2.145767E-06 1.252202 0.009792328
v -0.5008945 1.236559 -0.3084507
v -0.541425 1.208957 -0.2444162
v -0.5425949 1.204942 0.01048613
v -0.5469902 1.205125 -0.7269113
v -0.541543 1.208407 -0.3721796
v -0.7483945 0.8594499 -0.7920108
v -0.7476132 0.8595152 -0.7459545
v -0.4519489 1.202362 0.2290266
v 2.145767E-06 1.204736 0.241025
v -0.5815759 1.138524 0.248554
v -0.5020294 1.187513 0.247319
v -0.7034295 0.9206603 0.5995278
v -0.6343887 0.9471147 0.645261
v -0.7325549 0.8571408 0.6911297
v -0.7451952 0.8562679 0.601038
v -0.815135 0.4956961 0.7361252
v -0.8127911 0.4943168 -0.2429976
v -0.7443135 0.858747 -0.2509983
v -0.7445884 0.8588693 -0.1657426
v -0.5414817 1.208726 -0.2983769
v -0.828299 0.4832175 1.097003
v -0.7179682 0.8172476 1.411754
v -0.8300362 0.6048789 1.211052
v -0.8168328 0.6547806 1.412976
v -0.8133368 0.6142673 1.610753
v -0.757617 0.6349168 1.762968
v -0.6464002 0.6716633 2.093475
v -0.8097053 0.4899216 1.729814
v -0.7772844 0.5382257 1.763395
v -0.789392 0.4899828 1.776092
v -0.7440212 0.8586249 -0.3351495
v -0.7068689 0.8772097 0.728282
v -0.6648586 0.8927872 0.7456143
v -0.8113639 0.6422756 -1.2517
v -0.8133192 0.5935919 -1.060208
v -0.8128304 0.4890399 -0.8766073
v -0.8138866 0.4727466 -0.9078497
v -0.7848396 0.2571874 -0.8741586
v -0.7816186 0.259876 -0.2417495
v -0.8034725 0.2642016 0.7313504
v -0.8133759 0.2655983 1.043116
v -0.6171045 0.8125818 -2.137668
v 2.145767E-06 0.887733 -1.471257
v -0.6406388 0.900862 -1.435917
v 2.145767E-06 0.8078504 -2.137353
v -0.189801 0.5637679 -2.225354
v -0.004698753 0.5287805 -2.288354
v 2.145767E-06 0.5296054 -2.286766
v 2.145767E-06 0.5287499 -2.288354
v -0.6560855 0.4907248 2.208223
v -0.4098165 0.5365977 2.188739
v -0.4101088 0.4893498 2.271537
v -0.6498747 0.5389984 2.143176
v -0.3655977 0.5363359 2.196107
v 2.145767E-06 0.5339746 2.216455
v 2.145767E-06 0.4866743 2.288354
v -0.6648586 0.8927872 0.7456143
v -0.6601098 0.8856685 0.7735221
v -0.7068689 0.8772097 0.728282
v -0.7179682 0.8172476 1.411754
v -0.5647063 0.8299227 1.411994
v -0.4580638 0.6670191 2.138737
v -0.4073548 0.6790133 2.145153
v 2.145767E-06 0.7264183 2.125551
v 2.145767E-06 0.8509996 1.411391
v -0.6464002 0.6716633 2.093475
v -0.6360865 0.8934245 0.7831376
v 2.145767E-06 0.9054406 0.8163178
v -0.6601098 0.8856685 0.7735221
v -0.6648586 0.8927872 0.7456143
v -0.6510093 0.8904085 0.7642515
v -0.6360865 0.8934245 0.7831376
v -0.5647063 0.8299227 1.411994
v -0.4580638 0.6670191 2.138737
v -0.6498747 0.5389984 2.143176
v -0.6464002 0.6716633 2.093475
v -0.4098165 0.5365977 2.188739
v -0.6560855 0.4907248 2.208223
v -0.7772844 0.5382257 1.763395
v -0.6498747 0.5389984 2.143176
v -0.789392 0.4899828 1.776092
v -0.6235862 0.265249 2.144403
v -0.7887678 0.2569036 1.758778
v -0.8097053 0.4899216 1.729814
v -0.6498747 0.5389984 2.143176
v -0.757617 0.6349168 1.762968
v -0.6464002 0.6716633 2.093475
v -0.7772844 0.5382257 1.763395
v -0.4116321 0.2720711 2.204823
v -0.6560855 0.4907248 2.208223
v -0.4101088 0.4893498 2.271537
v -0.6235862 0.265249 2.144403
v 2.145767E-06 0.2698712 2.232094
v 2.145767E-06 0.4866743 2.288354
v -0.4073548 0.6790133 2.145153
v -0.4098165 0.5365977 2.188739
v -0.4580638 0.6670191 2.138737
v -0.3655977 0.5363359 2.196107
v -0.7163446 0.5673993 -2.200637
v -0.5836449 0.7300017 -2.190027
v -0.6824353 0.7307525 -2.168535
v -0.5182006 0.5659678 -2.225062
v -0.6171045 0.8125818 -2.137668
v -0.6332364 0.277169 -2.232626
v -0.6026878 0.5327873 -2.287817
v -0.7291985 0.5337563 -2.259395
v 2.145767E-06 0.2739174 -2.240709
v -0.004698753 0.5287805 -2.288354
v -0.1886704 0.7273436 -2.191973
v -0.6171045 0.8125818 -2.137668
v -0.5836449 0.7300017 -2.190027
v 2.145767E-06 0.8078504 -2.137353
v 2.145767E-06 0.7260778 -2.193082
v -0.5182006 0.5659678 -2.225062
v -0.189801 0.5637679 -2.225354
v -0.1886704 0.7273436 -2.191973
v 2.145767E-06 0.5624933 -2.225525
v 2.145767E-06 0.7260778 -2.193082
v -0.189801 0.5637679 -2.225354
v -0.8133368 0.6142673 1.610753
v -0.5158174 0.6527641 1.41271
v -0.8168328 0.6547806 1.412976
v -0.5159178 0.612277 1.610491
v -0.8097053 0.4899216 1.729814
v -0.516638 0.4879575 1.729547
v -0.7887678 0.2569036 1.758778
v -0.518183 0.2550924 1.758533
v -0.5163281 0.6027751 1.210781
v -0.8300362 0.6048789 1.211052
v -0.828299 0.4832175 1.097003
v -0.5172446 0.4811311 1.096732
v -0.8133759 0.2655983 1.043116
v -0.5187461 0.2636211 1.042854
v -0.7848396 0.2571874 -0.8741586
v -0.5040982 0.470669 -0.9081204
v -0.8138866 0.4727466 -0.9078497
v -0.5055254 0.2553151 -0.8744031
v -0.5034347 0.5915143 -1.060479
v -0.8133192 0.5935919 -1.060208
v -0.5032775 0.6402111 -1.251971
v -0.8113639 0.6422756 -1.2517
v -0.5186894 0.604687 -1.452716
v -0.8086884 0.6066291 -1.45245
v -0.8003299 0.4925056 -1.577664
v -0.5195491 0.4906244 -1.577909
v -0.750603 0.2725074 -1.642663
v -0.5211685 0.2567511 -1.642799
v -0.5163281 0.6027751 1.210781
v -0.516638 0.4879575 1.729547
v -0.5172446 0.4811311 1.096732
v -0.5159178 0.612277 1.610491
v -0.518183 0.2550924 1.758533
v -0.5187461 0.2636211 1.042854
v -0.5158174 0.6527641 1.41271
v -0.5195491 0.4906244 -1.577909
v -0.5034347 0.5915143 -1.060479
v -0.5040982 0.470669 -0.9081204
v -0.5186894 0.604687 -1.452716
v -0.5055254 0.2553151 -0.8744031
v -0.5211685 0.2567511 -1.642799
v -0.5032775 0.6402111 -1.251971
v 2.145767E-06 0.5339746 2.216455
v -0.4073548 0.6790133 2.145153
v 2.145767E-06 0.7264183 2.125551
v -0.3655977 0.5363359 2.196107
vt 0.3528444 0.9385642
vt 0.3645056 0.9514958
vt 0.3645056 0.9385642
vt 0.3528444 0.9514958
vt 0.2825831 0.9465879
vt 0.2955148 0.9310353
vt 0.2825831 0.9310353
vt 0.2955148 0.9465879
vt 0.2955148 0.9154825
vt 0.2825831 0.9154825
vt 0.2955148 0.8999299
vt 0.2825831 0.8999299
vt 0.2825831 0.8999299
vt 0.2955148 0.8882687
vt 0.2825831 0.8882687
vt 0.2955148 0.8999299
vt 0.3061997 0.9385642
vt 0.3217524 0.9514958
vt 0.3217524 0.9385642
vt 0.3061997 0.9514958
vt 0.3373051 0.9514958
vt 0.3373051 0.9385642
vt 0.3373051 0.9385642
vt 0.3528444 0.9514958
vt 0.3528444 0.9385642
vt 0.3373051 0.9514958
vt 0.1127874 0.6406827
vt 0.1359359 0.617093
vt 0.1193267 0.6241672
vt 0.152545 0.6241806
vt 0.159071 0.6406962
vt 0.1521439 0.6568907
vt 0.1359091 0.663537
vt 0.1196878 0.6568773
vt 0.3528444 0.9385642
vt 0.3645056 0.9514958
vt 0.3645056 0.9385642
vt 0.3528444 0.9514958
vt 0.3373051 0.9385642
vt 0.3373051 0.9514958
vt 0.2825831 0.9465879
vt 0.2955148 0.9310353
vt 0.2825831 0.9310353
vt 0.2955148 0.9465879
vt 0.2825831 0.9310353
vt 0.2955148 0.9154825
vt 0.2825831 0.9154825
vt 0.2955148 0.9310353
vt 0.2955148 0.8999299
vt 0.2825831 0.8999299
vt 0.2825831 0.8999299
vt 0.2955148 0.8882687
vt 0.2825831 0.8882687
vt 0.2955148 0.8999299
vt 0.3061997 0.9385642
vt 0.3217524 0.9514958
vt 0.3217524 0.9385642
vt 0.3061997 0.9514958
vt 0.3217524 0.9385642
vt 0.3373051 0.9514958
vt 0.3373051 0.9385642
vt 0.3217524 0.9514958
vt 0.1127874 0.6406827
vt 0.1359359 0.617093
vt 0.1193267 0.6241672
vt 0.152545 0.6241806
vt 0.159071 0.6406962
vt 0.1521439 0.6568907
vt 0.1359091 0.663537
vt 0.1196878 0.6568773
vt 0.5122494 0.7579497
vt 0.4953059 0.7696911
vt 0.5109522 0.7709215
vt 0.4953059 0.7561311
vt 0.5109389 0.7527477
vt 0.4953059 0.7503138
vt 0.5109389 0.7527477
vt 0.4964292 0.7347745
vt 0.4953059 0.7503138
vt 0.4892346 0.7599423
vt 0.4953059 0.7696911
vt 0.4953059 0.7561311
vt 0.4893951 0.7710686
vt 0.4287757 0.8478023
vt 0.4330417 0.8405141
vt 0.4285216 0.8405007
vt 0.4287757 0.8478023
vt 0.4342319 0.8486983
vt 0.4259139 0.8482569
vt 0.4285216 0.8405007
vt 0.4255127 0.8375051
vt 0.4287757 0.8478023
vt 0.4259139 0.8482569
vt 0.4204043 0.8357265
vt 0.4205247 0.8500489
vt 0.4255127 0.8375051
vt 0.4152825 0.8425333
vt 0.4205247 0.8500489
vt 0.4204043 0.8357265
vt 0.4139051 0.8501425
vt 0.5013505 0.7822617
vt 0.4953059 0.7696911
vt 0.4953059 0.7799749
vt 0.5109522 0.7709215
vt 0.4529539 0.8188499
vt 0.4654309 0.8457963
vt 0.4654442 0.8233833
vt 0.4467489 0.8501693
vt 0.4467489 0.8348038
vt 0.4673699 0.8396715
vt 0.447578 0.8226078
vt 0.4694962 0.9886725
vt 0.4601753 0.9830692
vt 0.4601753 0.9886725
vt 0.4694962 0.9830692
vt 0.4601753 0.9886725
vt 0.4538633 0.9830692
vt 0.4538633 0.9886725
vt 0.4601753 0.9830692
vt 0.4753 0.9886725
vt 0.4694962 0.9830692
vt 0.4694962 0.9886725
vt 0.4752733 0.9830692
vt 0.4538633 0.9830692
vt 0.4445558 0.9886725
vt 0.4538633 0.9886725
vt 0.4445558 0.9830692
vt 0.4601753 0.9886725
vt 0.4694962 0.9830692
vt 0.4601753 0.9830692
vt 0.4694962 0.9886725
vt 0.4538633 0.9886725
vt 0.4601753 0.9830692
vt 0.4538633 0.9830692
vt 0.4601753 0.9886725
vt 0.4694962 0.9886725
vt 0.4752733 0.9830692
vt 0.4694962 0.9830692
vt 0.4753 0.9886725
vt 0.4445558 0.9830692
vt 0.4538633 0.9886725
vt 0.4538633 0.9830692
vt 0.4445558 0.9886725
vt 0.5131855 0.7731547
vt 0.4953059 0.7561578
vt 0.5154188 0.7584312
vt 0.4953059 0.7697313
vt 0.4953059 0.7503539
vt 0.5143356 0.750929
vt 0.5143356 0.750929
vt 0.4953059 0.7503539
vt 0.4953059 0.7397492
vt 0.4912272 0.7596614
vt 0.4953059 0.7697313
vt 0.4913342 0.7694906
vt 0.4953059 0.7561578
vt 0.4330417 0.8405141
vt 0.4287757 0.8478023
vt 0.4285216 0.8405007
vt 0.4287757 0.8478023
vt 0.4342319 0.8486983
vt 0.4285216 0.8405007
vt 0.4259139 0.8482569
vt 0.4255127 0.8375051
vt 0.4287757 0.8478023
vt 0.4205247 0.8500489
vt 0.4255127 0.8375051
vt 0.4259139 0.8482569
vt 0.4204043 0.8357265
vt 0.4205247 0.8500489
vt 0.4152825 0.8425333
vt 0.4204043 0.8357265
vt 0.4139051 0.8501425
vt 0.5131855 0.7731547
vt 0.4953059 0.7753747
vt 0.4953059 0.7697313
vt 0.5006952 0.7775143
vt 0.4467489 0.8501693
vt 0.4654442 0.8233833
vt 0.4654309 0.8457963
vt 0.4529539 0.8188499
vt 0.4467489 0.8348038
vt 0.4673699 0.8396715
vt 0.447578 0.8226078
vt 0.4802079 0.9604288
vt 0.4914545 0.9778404
vt 0.4914545 0.9697632
vt 0.4801945 0.988445
vt 0.4802079 0.9604288
vt 0.4801945 0.988445
vt 0.4802079 0.9604288
vt 0.4801945 0.988445
vt 0.4914545 0.9778404
vt 0.4802079 0.9604288
vt 0.4914545 0.9697632
vt 0.4801945 0.988445
vt 0.5482492 0.9891806
vt 0.5007621 0.9671421
vt 0.5482492 0.9671421
vt 0.5007621 0.9891806
vt 0.5007621 0.9598404
vt 0.5482492 0.9368792
vt 0.5482492 0.9598404
vt 0.5007621 0.9368792
vt 0.5482492 0.9671421
vt 0.5007621 0.9598404
vt 0.5482492 0.9598404
vt 0.5007621 0.9671421
vt 0.3528444 0.9385642
vt 0.3645056 0.9514958
vt 0.3645056 0.9385642
vt 0.3528444 0.9514958
vt 0.3373051 0.9385642
vt 0.3373051 0.9514958
vt 0.2825831 0.9465879
vt 0.2955148 0.9310353
vt 0.2825831 0.9310353
vt 0.2955148 0.9465879
vt 0.2955148 0.9154825
vt 0.2825831 0.9154825
vt 0.2955148 0.8999299
vt 0.2825831 0.8999299
vt 0.2825831 0.8999299
vt 0.2955148 0.8882687
vt 0.2825831 0.8882687
vt 0.2955148 0.8999299
vt 0.3061997 0.9385642
vt 0.3217524 0.9514958
vt 0.3217524 0.9385642
vt 0.3061997 0.9514958
vt 0.3217524 0.9385642
vt 0.3373051 0.9514958
vt 0.3373051 0.9385642
vt 0.3217524 0.9514958
vt 0.1127874 0.6406827
vt 0.1359359 0.617093
vt 0.1193267 0.6241672
vt 0.152545 0.6241806
vt 0.159071 0.6406962
vt 0.1521439 0.6568907
vt 0.1359091 0.663537
vt 0.1196878 0.6568773
vt 0.3528444 0.9385642
vt 0.3645056 0.9514958
vt 0.3645056 0.9385642
vt 0.3528444 0.9514958
vt 0.2825831 0.9465879
vt 0.2955148 0.9310353
vt 0.2825831 0.9310353
vt 0.2955148 0.9465879
vt 0.2825831 0.9310353
vt 0.2955148 0.9154825
vt 0.2825831 0.9154825
vt 0.2955148 0.9310353
vt 0.2955148 0.8999299
vt 0.2825831 0.8999299
vt 0.2825831 0.8999299
vt 0.2955148 0.8882687
vt 0.2825831 0.8882687
vt 0.2955148 0.8999299
vt 0.3061997 0.9385642
vt 0.3217524 0.9514958
vt 0.3217524 0.9385642
vt 0.3061997 0.9514958
vt 0.3217524 0.9385642
vt 0.3373051 0.9514958
vt 0.3373051 0.9385642
vt 0.3217524 0.9514958
vt 0.3528444 0.9514958
vt 0.3528444 0.9385642
vt 0.1127874 0.6406827
vt 0.1359359 0.617093
vt 0.1193267 0.6241672
vt 0.152545 0.6241806
vt 0.159071 0.6406962
vt 0.1521439 0.6568907
vt 0.1359091 0.663537
vt 0.1196878 0.6568773
vt 0.5638956 0.774599
vt 0.5215703 0.7689824
vt 0.5605924 0.7788248
vt 0.5593889 0.8006361
vt 0.5136937 0.783278
vt 0.5145228 0.8276494
vt 0.5580649 0.8168975
vt 0.5260101 0.7401236
vt 0.5648584 0.748348
vt 0.512343 0.8291069
vt 0.5010964 0.7876643
vt 0.4926848 0.8147845
vt 0.4891143 0.7814192
vt 0.469309 0.814798
vt 0.4722243 0.8148113
vt 0.4705928 0.8581395
vt 0.4681589 0.8587681
vt 0.4379228 0.7684742
vt 0.4434993 0.8145572
vt 0.4383641 0.8147712
vt 0.4795928 0.7661206
vt 0.433162 0.8149852
vt 0.4414666 0.8586878
vt 0.4380565 0.8586744
vt 0.3848725 0.8139287
vt 0.373091 0.8168975
vt 0.3755783 0.7681131
vt 0.384819 0.8226078
vt 0.353941 0.7663479
vt 0.3467597 0.7816064
vt 0.3340822 0.7877847
vt 0.3337479 0.811428
vt 0.3216989 0.7825826
vt 0.3121507 0.7851502
vt 0.2898714 0.7951264
vt 0.3121507 0.7717506
vt 0.311375 0.7656659
vt 0.3142769 0.7656659
vt 0.3815961 0.83126
vt 0.4069244 0.8495407
vt 0.4068977 0.8612956
vt 0.375458 0.8230222
vt 0.4218218 0.8683832
vt 0.408128 0.8683698
vt 0.408128 0.9250842
vt 0.4218218 0.9250842
vt 0.4418009 0.9251244
vt 0.4418009 0.8683965
vt 0.4416672 0.8622584
vt 0.4218218 0.8586744
vt 0.4722911 0.9252046
vt 0.4723045 0.8684099
vt 0.4905719 0.8678616
vt 0.4765705 0.8543952
vt 0.4912406 0.8644917
vt 0.490251 0.9252715
vt 0.4458128 0.8587146
vt 0.5661556 0.8393908
vt 0.51697 0.9261541
vt 0.5654736 0.931851
vt 0.51697 0.8395779
vt 0.4296985 0.9754065
vt 0.4293508 0.9862653
vt 0.4293374 0.9756874
vt 0.4293374 0.9754065
vt 0.4154563 0.9862653
vt 0.3837893 0.9752861
vt 0.4296985 0.9754065
vt 0.3901949 0.9862653
vt 0.3738265 0.9862653
vt 0.3738265 0.9759014
vt 0.4296985 0.9754065
vt 0.4154563 0.9862653
vt 0.4293508 0.9862653
vt 0.3901949 0.9862653
vt 0.3837893 0.9752861
vt 0.3738265 0.9862653
vt 0.3738265 0.9759014
vt 0.3200808 0.9728122
vt 0.3390837 0.986827
vt 0.3376929 0.9728122
vt 0.3200808 0.986827
vt 0.3173527 0.986827
vt 0.2904999 0.9728122
vt 0.2904865 0.986827
vt 0.3851399 0.8553847
vt 0.3880953 0.8509851
vt 0.3849527 0.8429345
vt 0.3462783 0.8438706
vt 0.3462515 0.8631544
vt 0.3019872 0.8516804
vt 0.2988446 0.875658
vt 0.2988179 0.8822776
vt 0.3462382 0.9328673
vt 0.3015192 0.9328673
vt 0.3835352 0.9329743
vt 0.3856615 0.8545021
vt 0.3880953 0.8509851
vt 0.3851399 0.8553847
vt 0.3868517 0.8526165
vt 0.3856615 0.8545021
vt 0.3462515 0.8631544
vt 0.4304206 0.9303265
vt 0.4572867 0.9599875
vt 0.4550134 0.9303265
vt 0.4366122 0.9599875
vt 0.3874267 0.9351407
vt 0.4013345 0.8684901
vt 0.3883628 0.8746818
vt 0.4055737 0.9351674
vt 0.3376929 0.9728122
vt 0.3693599 0.986827
vt 0.3687448 0.9728122
vt 0.3390837 0.986827
vt 0.3335473 0.9564036
vt 0.3699617 0.9564036
vt 0.3727432 0.9728122
vt 0.4572867 0.9599875
vt 0.4980072 0.9303265
vt 0.4550134 0.9303265
vt 0.4980072 0.9519104
vt 0.2906069 0.9564036
vt 0.3200808 0.9728122
vt 0.3200808 0.9564036
vt 0.2904999 0.9728122
vt 0.3376929 0.9728122
vt 0.3335473 0.9564036
vt 0.2988446 0.875658
vt 0.2889888 0.8839493
vt 0.2988179 0.8822776
vt 0.2896708 0.8784664
vt 0.3573778 0.7389736
vt 0.3758725 0.7389736
vt 0.437896 0.7389736
vt 0.4775333 0.7389736
vt 0.3117227 0.8164696
vt 0.2892161 0.8528839
vt 0.3117227 0.8438038
vt 0.2892027 0.7985632
vt 0.324895 0.8272749
vt 0.3738265 0.9759014
vt 0.3837893 0.9752861
vt 0.3813287 0.9419743
vt 0.4296985 0.9754065
vt 0.4293374 0.9754065
vt 0.4292438 0.9419743
vt 0.4296985 0.9754065
vt 0.3813287 0.9419743
vt 0.4296985 0.9754065
vt 0.4293374 0.9754065
vt 0.51697 0.8395779
vt 0.5099225 0.9211794
vt 0.51697 0.9261541
vt 0.5098957 0.8657488
vt 0.5098824 0.8395379
vt 0.4980607 0.9123266
vt 0.4980741 0.8655615
vt 0.5497738 0.9387648
vt 0.5670649 0.9750054
vt 0.5497738 0.9748583
vt 0.5670649 0.9391124
vt 0.4555349 0.9667944
vt 0.4525126 0.9700841
vt 0.4520713 0.967931
vt 0.4561367 0.9701109
vt 0.4539435 0.9644675
vt 0.4506538 0.9665135
vt 0.4512556 0.9625285
vt 0.4478856 0.9651093
vt 0.451844 0.9723575
vt 0.4553744 0.9733739
vt 0.4540772 0.975567
vt 0.4503462 0.9738954
vt 0.4521115 0.9776933
vt 0.4478054 0.9755536
vt 0.4661129 0.9655106
vt 0.4675839 0.9622743
vt 0.4699242 0.9646012
vt 0.4633848 0.963732
vt 0.4670757 0.9675699
vt 0.4708469 0.9673293
vt 0.4671693 0.9696963
vt 0.4711678 0.9701911
vt 0.4671426 0.9718895
vt 0.4703922 0.9730662
vt 0.4691619 0.9751658
vt 0.4661129 0.9734675
vt 0.4662867 0.9768374
vt 0.4632912 0.9750054
vt 0.3257241 0.7454728
vt 0.3333868 0.7613732
vt 0.325684 0.7559171
vt 0.3332932 0.7413272
vt 0.3472679 0.740244
vt 0.3484581 0.7628977
vt 0.3229024 0.7505946
vt 0.3332932 0.7413272
vt 0.325684 0.7559171
vt 0.3257241 0.7454728
vt 0.3333868 0.7613732
vt 0.3472679 0.740244
vt 0.3484581 0.7628977
vt 0.3229024 0.7505946
vt 0.5605924 0.7788248
vt 0.5215703 0.7689824
vt 0.5638956 0.774599
vt 0.5593889 0.8006361
vt 0.5145228 0.8276494
vt 0.5580649 0.8168975
vt 0.5136937 0.783278
vt 0.5260101 0.7401236
vt 0.5648584 0.748348
vt 0.4912673 0.8639166
vt 0.512343 0.8291069
vt 0.4926848 0.8147845
vt 0.4765705 0.8543952
vt 0.4905719 0.8678616
vt 0.4723045 0.8684099
vt 0.4705928 0.8581395
vt 0.490251 0.9252715
vt 0.4722911 0.9252046
vt 0.4418009 0.8683965
vt 0.4418009 0.9251244
vt 0.4218218 0.8683832
vt 0.4218218 0.9250842
vt 0.4416672 0.8622584
vt 0.4380565 0.8586744
vt 0.4218218 0.8586744
vt 0.4681589 0.8587681
vt 0.4458128 0.8587146
vt 0.4722243 0.8148113
vt 0.469309 0.814798
vt 0.408128 0.8683698
vt 0.408128 0.9250842
vt 0.4069244 0.8495407
vt 0.4068977 0.8612956
vt 0.384819 0.8226078
vt 0.3815961 0.83126
vt 0.3792692 0.8136612
vt 0.3848725 0.8139287
vt 0.3755783 0.7681131
vt 0.4379228 0.7684742
vt 0.4383641 0.8147712
vt 0.433162 0.8149852
vt 0.4414666 0.8586878
vt 0.353941 0.7663479
vt 0.3337479 0.811428
vt 0.3467597 0.7816064
vt 0.3340822 0.7877847
vt 0.3216989 0.7825826
vt 0.3121507 0.7851502
vt 0.2898714 0.7951264
vt 0.3142769 0.7656659
vt 0.3121507 0.7717506
vt 0.311375 0.7656659
vt 0.4434993 0.8145572
vt 0.373091 0.8168975
vt 0.375458 0.8230222
vt 0.5010964 0.7876643
vt 0.4891143 0.7814192
vt 0.4776269 0.7681533
vt 0.4795928 0.7661206
vt 0.4775333 0.7389736
vt 0.437896 0.7389736
vt 0.3758725 0.7389736
vt 0.3573778 0.7389736
vt 0.51697 0.9261541
vt 0.5661556 0.8393908
vt 0.5654736 0.931851
vt 0.51697 0.8395779
vt 0.4154563 0.9862653
vt 0.4296985 0.9754065
vt 0.4293374 0.9756874
vt 0.4293374 0.9754065
vt 0.3376929 0.9728122
vt 0.3200808 0.986827
vt 0.3200808 0.9728122
vt 0.3390837 0.986827
vt 0.3173527 0.986827
vt 0.2904865 0.986827
vt 0.2904999 0.9728122
vt 0.3880953 0.8509851
vt 0.3851399 0.8553847
vt 0.3849527 0.8429345
vt 0.3462783 0.8438706
vt 0.3462515 0.8631544
vt 0.2988446 0.875658
vt 0.2988179 0.8822776
vt 0.3015192 0.9328673
vt 0.3462382 0.9328673
vt 0.3019872 0.8516804
vt 0.3856615 0.8545021
vt 0.3835352 0.9329743
vt 0.3851399 0.8553847
vt 0.3880953 0.8509851
vt 0.3868517 0.8526165
vt 0.3856615 0.8545021
vt 0.3462515 0.8631544
vt 0.4366122 0.9599875
vt 0.4550134 0.9303265
vt 0.4572867 0.9599875
vt 0.4304206 0.9303265
vt 0.3376929 0.9728122
vt 0.3693599 0.986827
vt 0.3390837 0.986827
vt 0.3687448 0.9728122
vt 0.3425205 0.9564036
vt 0.3699617 0.9564036
vt 0.3727432 0.9728122
vt 0.4550134 0.9303265
vt 0.4980072 0.9519104
vt 0.4572867 0.9599875
vt 0.4980072 0.9303265
vt 0.3200808 0.9564036
vt 0.3376929 0.9728122
vt 0.3200808 0.9728122
vt 0.3425205 0.9564036
vt 0.2906069 0.9564036
vt 0.2904999 0.9728122
vt 0.2988179 0.8822776
vt 0.2896708 0.8784664
vt 0.2988446 0.875658
vt 0.2889888 0.8839493
vt 0.2892161 0.8528839
vt 0.3117227 0.8164696
vt 0.3117227 0.8438038
vt 0.2892027 0.7985632
vt 0.324895 0.8272749
vt 0.3813287 0.9419743
vt 0.3837893 0.9752861
vt 0.3738265 0.9759014
vt 0.4292438 0.9419743
vt 0.4296985 0.9754065
vt 0.5098957 0.8656952
vt 0.51697 0.9261541
vt 0.5099225 0.9211794
vt 0.51697 0.8395779
vt 0.5098824 0.839471
vt 0.4980607 0.9123266
vt 0.4980741 0.8655615
vt 0.5670649 0.9391124
vt 0.5497738 0.9748583
vt 0.5670649 0.9750054
vt 0.5497738 0.9387648
vt 0.4555349 0.9667944
vt 0.4525126 0.9700841
vt 0.4561367 0.9701109
vt 0.4520713 0.967931
vt 0.4539435 0.9644675
vt 0.4506538 0.9665135
vt 0.4512556 0.9625285
vt 0.4478856 0.9651093
vt 0.451844 0.9723575
vt 0.4553744 0.9733739
vt 0.4540772 0.975567
vt 0.4503462 0.9738954
vt 0.4521115 0.9776933
vt 0.4478054 0.9755536
vt 0.4675839 0.9622743
vt 0.4661129 0.9655106
vt 0.4699242 0.9646012
vt 0.4633848 0.963732
vt 0.4670757 0.9675699
vt 0.4708469 0.9673293
vt 0.4671693 0.9696963
vt 0.4711678 0.9701911
vt 0.4671426 0.9718895
vt 0.4703922 0.9730662
vt 0.4691619 0.9751658
vt 0.4661129 0.9734675
vt 0.4662867 0.9768374
vt 0.4632912 0.9750054
vt 0.3257241 0.7454728
vt 0.3333868 0.7613732
vt 0.3332932 0.7413272
vt 0.325684 0.7559171
vt 0.3484581 0.7628977
vt 0.3472679 0.740244
vt 0.3229024 0.7505946
vt 0.3332932 0.7413272
vt 0.325684 0.7559171
vt 0.3333868 0.7613732
vt 0.3257241 0.7454728
vt 0.3484581 0.7628977
vt 0.3472679 0.740244
vt 0.3229024 0.7505946
vt 0.3874267 0.9351407
vt 0.4013345 0.8684901
vt 0.4055737 0.9351674
vt 0.3883628 0.8746818
vn 0.003915191 0.3803931 0.9248166
vn 0.003915191 0.3803931 0.9248166
vn 0.003915191 0.3803931 0.9248166
vn 0.003915191 0.3803931 0.9248166
vn 0.003915191 -0.3803805 0.9248218
vn 0.01175821 -0.7097876 0.7043176
vn 0.01175821 -0.7097876 0.7043176
vn 0.003915191 -0.3803805 0.9248218
vn 0.01175763 -0.9999309 0
vn 0.01175763 -0.9999309 0
vn 0.01175821 -0.9293924 -0.3689058
vn 0.01175821 -0.9293924 -0.3689058
vn 0.003915191 -0.3882235 -0.9215569
vn 0.003915191 -0.3882235 -0.9215569
vn 0.003915191 -0.3882235 -0.9215569
vn 0.003915191 -0.3882235 -0.9215569
vn 0.003915191 0.3725501 -0.9280038
vn -0.003927827 0.7019572 -0.7122083
vn -0.003927827 0.7019572 -0.7122083
vn 0.003915191 0.3725501 -0.9280038
vn -0.003927827 0.921562 -0.3882115
vn -0.003927827 0.921562 -0.3882115
vn -0.003927827 0.921562 0.3882115
vn -0.003927827 0.921562 0.3882115
vn -0.003927827 0.921562 0.3882115
vn -0.003927827 0.921562 0.3882115
vn 0.9999796 0.003927827 0.005034059
vn 0.9999796 0.003927827 0.005034059
vn 0.9999796 0.003927827 0.005034059
vn 0.9999796 0.003927827 0.005034059
vn 0.9999796 0.003927827 0.005034059
vn 0.9999796 0.003927827 0.005034059
vn 0.9999796 0.003927827 0.005034059
vn 0.9999796 0.003927827 0.005034059
vn -0.003927827 0.7098002 0.7043921
vn 0.003915191 0.003927827 0.9999846
vn 0.003915191 0.003927827 0.9999846
vn -0.003927827 0.7098002 0.7043921
vn -0.003927827 0.921562 0.3882115
vn -0.003927827 0.921562 0.3882115
vn 0.003915191 0.003927827 0.9999846
vn 0.003915191 -0.3803805 0.9248218
vn 0.003915191 -0.3803805 0.9248218
vn 0.003915191 0.003927827 0.9999846
vn 0.01175821 -0.9293924 0.3689058
vn 0.01175763 -0.9999309 0
vn 0.01175763 -0.9999309 0
vn 0.01175821 -0.9293924 0.3689058
vn 0.01175821 -0.9293924 -0.3689058
vn 0.01175821 -0.9293924 -0.3689058
vn 0.003915191 -0.3882235 -0.9215569
vn 0.003915191 -0.01175821 -0.9999232
vn 0.003915191 -0.01175821 -0.9999232
vn 0.003915191 -0.3882235 -0.9215569
vn 0.003915191 -0.01175821 -0.9999232
vn 0.003915191 0.3725501 -0.9280038
vn 0.003915191 0.3725501 -0.9280038
vn 0.003915191 -0.01175821 -0.9999232
vn -0.003927827 0.921562 -0.3882115
vn -0.003927827 0.921562 -0.3882115
vn -0.003927827 0.921562 -0.3882115
vn -0.003927827 0.921562 -0.3882115
vn 0.9999796 0.003927827 0.005034059
vn 0.9999796 0.003927827 0.005034059
vn 0.9999796 0.003927827 0.005034059
vn 0.9999796 0.003927827 0.005034059
vn 0.9999796 0.003927827 0.005034059
vn 0.9999796 0.003927827 0.005034059
vn 0.9999796 0.003927827 0.005034059
vn 0.9999796 0.003927827 0.005034059
vn 0.5215549 -0.01960123 0.8529925
vn 0.529398 0.2000035 0.8244613
vn 0.4980259 0.05098605 0.8656619
vn 0.3960665 0.1294162 0.9090559
vn 0.5450841 -0.1529327 0.8243148
vn 0.3333223 0.09020114 0.9384881
vn 0.2078339 -0.9372354 0.2799908
vn 0.05097336 -0.9529215 0.298902
vn -0.01177084 -0.9842936 0.1761464
vn -0.9843062 0.1372592 0.1109107
vn -0.9843062 0.1372592 0.1109107
vn -0.9843062 0.1451023 0.1004321
vn -0.9843062 0.1215732 0.127911
vn -0.01177084 -0.9842936 0.1761464
vn -0.2235326 -0.9607645 0.1642098
vn 0.01175763 -0.9999309 0
vn -0.01177084 -0.9842936 0.1761464
vn 0.05097336 -0.9529215 0.298902
vn 0.3960665 0.1294162 0.9090559
vn 0.06665939 0.1137302 0.9912729
vn 0.05881637 0.1215732 0.9908383
vn 0.3333223 0.09020114 0.9384881
vn 0.09803152 0.9137189 0.3943444
vn 0.09803152 0.9137189 0.3943444
vn 0.1450897 0.937248 0.3170413
vn 0.02744424 0.8745039 0.4842415
vn -0.5372536 -0.1372467 -0.832179
vn -0.3568641 -0.05881637 -0.9323028
vn -0.3960792 -0.2548921 -0.8821288
vn -0.4431373 -0.01175821 -0.8963766
vn 0.2078339 0.7725445 0.5999834
vn -0.01177084 0.8745039 0.4848757
vn -0.2470617 0.9137189 0.3226115
vn 0.3176363 0.7019572 0.6374663
vn -0.2705908 -0.01175821 -0.9626226
vn -0.2784338 -0.01175821 -0.9603834
vn -0.2705908 -0.01175821 -0.9626226
vn -0.4431373 -0.01175821 -0.8963766
vn -0.3568641 -0.05881637 -0.9323028
vn -0.2862768 -0.01175821 -0.9580748
vn -0.2627478 -0.01175821 -0.9647929
vn -0.9921492 -0.01175821 -0.1245056
vn -0.9921492 -0.01175821 -0.1245056
vn -0.9921492 -0.01175821 -0.1245056
vn -0.9921492 -0.01175821 -0.1245056
vn 0.003915191 0.003927827 0.9999846
vn 0.003915191 0.003927827 0.9999846
vn 0.003915191 0.003927827 0.9999846
vn 0.003915191 0.003927827 0.9999846
vn 0.003915191 -0.01175821 -0.9999232
vn 0.003915191 -0.01175821 -0.9999232
vn 0.003915191 -0.01175821 -0.9999232
vn 0.003915191 -0.01175821 -0.9999232
vn 0.9999796 0.003927827 0.005034059
vn 0.9999796 0.003927827 0.005034059
vn 0.9999796 0.003927827 0.005034059
vn 0.9999796 0.003927827 0.005034059
vn 0.9999796 0.003927827 0.005034059
vn 0.9999796 0.003927827 0.005034059
vn 0.9999796 0.003927827 0.005034059
vn 0.9999796 0.003927827 0.005034059
vn 0.003915191 0.003927827 0.9999846
vn 0.003915191 0.003927827 0.9999846
vn 0.003915191 0.003927827 0.9999846
vn 0.003915191 0.003927827 0.9999846
vn 0.003915191 -0.01175821 -0.9999232
vn 0.003915191 -0.01175821 -0.9999232
vn 0.003915191 -0.01175821 -0.9999232
vn 0.003915191 -0.01175821 -0.9999232
vn -0.9921492 -0.01175821 -0.1245056
vn -0.9921492 -0.01175821 -0.1245056
vn -0.9921492 -0.01175821 -0.1245056
vn -0.9921492 -0.01175821 -0.1245056
vn -0.5294106 0.09020114 0.8435568
vn -0.3647071 0.1215732 0.9231515
vn -0.5529398 -0.03528732 0.8324737
vn -0.4666665 0.2470617 0.8492249
vn -0.3098059 0.0745151 0.9478754
vn -0.5607828 -0.1999909 0.8034465
vn -0.1921605 -0.9372354 0.290971
vn 0.03528732 -0.9842936 0.1729767
vn -0.02745688 -0.9529215 0.3019716
vn 0.9894736 0.1447128 0
vn 0.9905652 0.1370419 0
vn 0.9915994 0.1293462 0
vn 0.9883255 0.1523579 0
vn 0.239206 -0.9529215 0.1863362
vn 0.03528732 -0.9842936 0.1729767
vn 0.01175763 -0.9999309 0
vn 0.03528732 -0.9842936 0.1729767
vn -0.02745688 -0.9529215 0.3019716
vn -0.05882907 0.1137302 0.9917684
vn -0.3647071 0.1215732 0.9231515
vn -0.05098605 0.1215732 0.9912721
vn -0.3098059 0.0745151 0.9478754
vn -0.1058872 0.921562 0.3735123
vn -0.1137302 0.9137189 0.3901065
vn -0.01961386 0.9450911 0.3262178
vn -0.2000035 0.8823469 0.4259843
vn 0.3725374 -0.05097336 -0.9266162
vn 0.5450841 -0.1294037 -0.8283345
vn 0.4117526 -0.2548921 -0.8749228
vn 0.4509677 -0.003915191 -0.8925317
vn -0.2078465 0.7019572 0.6812165
vn -0.1529454 0.8745039 0.4602724
vn -0.1137302 0.9450911 0.3063792
vn -0.2705908 -0.01960123 0.9624949
vn 0.4509677 -0.003915191 -0.8925317
vn 0.2862642 -0.003915191 -0.9581427
vn 0.2862642 -0.003915191 -0.9581427
vn 0.2784212 -0.003915191 -0.9604511
vn 0.3725374 -0.05097336 -0.9266162
vn 0.2941072 -0.003915191 -0.9557644
vn 0.2705781 -0.01175821 -0.9626262
vn 0.9921366 0.1215732 0.0297481
vn 0.9921366 0.1215732 0.0297481
vn 0.9935945 0.113004 0
vn 0.9921366 0.1215732 -0.0297481
vn 0.01175763 -0.9999309 0
vn 0.01175763 -0.9999309 0
vn 0.01175763 -0.9999309 0
vn 0.01175763 -0.9999309 0
vn -0.9921492 0.1058872 0.06654177
vn -0.9921492 0.1137302 0.05201293
vn -0.9921492 0.1058872 0.06654177
vn -0.9921492 0.1137302 0.05201293
vn 0.003915191 0.3254919 0.9455367
vn 0.003915191 0.3254919 0.9455367
vn 0.003915191 0.3254919 0.9455367
vn 0.003915191 0.3254919 0.9455367
vn 0.003915191 0.4352943 -0.9002798
vn 0.003915191 0.4352943 -0.9002798
vn 0.003915191 0.4352943 -0.9002798
vn 0.003915191 0.4352943 -0.9002798
vn -0.003927827 0.9843062 0.1764252
vn -0.003927827 0.9843062 0.1764252
vn -0.003927827 0.9843062 0.1764252
vn -0.003927827 0.9843062 0.1764252
vn 0.01175821 0.7098002 -0.7043049
vn 0.003915191 0.3803931 -0.9248166
vn 0.003915191 0.3803931 -0.9248166
vn 0.01175821 0.7098002 -0.7043049
vn 0.01175821 0.921562 -0.3880532
vn 0.01175821 0.921562 -0.3880532
vn 0.003915191 -0.3803805 -0.9248218
vn -0.003927827 -0.7097876 -0.7044048
vn -0.003927827 -0.7097876 -0.7044048
vn 0.003915191 -0.3803805 -0.9248218
vn -0.003927827 -0.9999796 -0.005033088
vn -0.003927827 -0.9999796 -0.005033088
vn -0.003927827 -0.9293924 0.3690722
vn -0.003927827 -0.9293924 0.3690722
vn 0.003915191 -0.3882235 0.9215569
vn 0.003915191 -0.01175821 0.9999232
vn 0.003915191 -0.01175821 0.9999232
vn 0.003915191 -0.3882235 0.9215569
vn 0.003915191 -0.01175821 0.9999232
vn 0.003915191 0.3725501 0.9280038
vn 0.003915191 0.3725501 0.9280038
vn 0.003915191 -0.01175821 0.9999232
vn 0.01175821 0.921562 0.3880532
vn 0.01175821 0.921562 0.3880532
vn 0.01175821 0.921562 0.3880532
vn 0.01175821 0.921562 0.3880532
vn -0.9921492 0.003927827 -0.1249979
vn -0.9921492 0.003927827 -0.1249979
vn -0.9921492 0.003927827 -0.1249979
vn -0.9921492 0.003927827 -0.1249979
vn -0.9921492 0.003927827 -0.1249979
vn -0.9921492 0.003927827 -0.1249979
vn -0.9921492 0.003927827 -0.1249979
vn -0.9921492 0.003927827 -0.1249979
vn 0.003915191 0.3803931 -0.9248166
vn 0.003915191 0.003927827 -0.9999846
vn 0.003915191 0.003927827 -0.9999846
vn 0.003915191 0.3803931 -0.9248166
vn 0.003915191 0.003927827 -0.9999846
vn 0.003915191 -0.3803805 -0.9248218
vn 0.003915191 -0.3803805 -0.9248218
vn 0.003915191 0.003927827 -0.9999846
vn -0.003927827 -0.9293924 -0.3690722
vn -0.003927827 -0.9999796 -0.005033088
vn -0.003927827 -0.9999796 -0.005033088
vn -0.003927827 -0.9293924 -0.3690722
vn -0.003927827 -0.9293924 0.3690722
vn -0.003927827 -0.9293924 0.3690722
vn 0.003915191 -0.3882235 0.9215569
vn 0.003915191 -0.01175821 0.9999232
vn 0.003915191 -0.01175821 0.9999232
vn 0.003915191 -0.3882235 0.9215569
vn 0.003915191 -0.01175821 0.9999232
vn 0.003915191 0.3725501 0.9280038
vn 0.003915191 0.3725501 0.9280038
vn 0.003915191 -0.01175821 0.9999232
vn 0.01175821 0.921562 0.3880532
vn 0.01175821 0.9921492 0.1245055
vn 0.01175821 0.9921492 0.1245055
vn 0.01175821 0.921562 0.3880532
vn 0.01175821 0.921562 -0.3880532
vn 0.01175821 0.921562 -0.3880532
vn -0.9921492 0.003927827 -0.1249979
vn -0.9921492 0.003927827 -0.1249979
vn -0.9921492 0.003927827 -0.1249979
vn -0.9921492 0.003927827 -0.1249979
vn -0.9921492 0.003927827 -0.1249979
vn -0.9921492 0.003927827 -0.1249979
vn -0.9921492 0.003927827 -0.1249979
vn -0.9921492 0.003927827 -0.1249979
vn 0.9921366 -0.0901885 -0.08678149
vn 0.9921366 0.003927827 -0.1250982
vn 0.9293924 0.3647071 -0.05673158
vn 0.9058633 0.4117652 -0.09930313
vn 0.9137063 0.4039222 -0.04458325
vn 0.8431191 0.5215676 -0.1308339
vn 0.7646888 0.639213 -0.08159576
vn 0.9686075 -0.231363 -0.09094332
vn 0.9215493 -0.3646944 -0.1332096
vn 0.8431191 0.5215676 -0.1308339
vn 0.9215493 0.3803931 -0.07776808
vn 0.9058633 0.4117652 -0.09930313
vn 0.9829152 0.1840594 0
vn 0.9529215 0.3019629 -0.02755249
vn 0.7301459 -0.6832913 0
vn 0.5999852 0.7960736 -0.07927581
vn 0.5842992 0.8039166 -0.1109621
vn 0.9998077 0.01961049 0
vn 0.9583606 0.2855605 0
vn 0.9430599 0.332623 0
vn 0.9987033 -0.0509083 0
vn 0.9607645 0.2705908 -0.0609285
vn 0.7411597 0.6705852 -0.03158768
vn 0.6862586 0.7254863 0.05214217
vn 0.9293924 -0.247049 0.2742198
vn 0.7725319 0.6156839 0.1553313
vn 0.9944404 0.1053006 0
vn 0.6235143 0.7411723 0.2487841
vn 0.9921366 0.09020114 -0.08676837
vn 0.9604793 0.2783512 0
vn 0.8666481 0.4901955 0.09289423
vn 0.5215549 0.8352886 0.1739923
vn 0.8509621 0.4823525 0.2078451
vn 0.8901772 0.3882362 0.2384473
vn 0.6313573 0.7098002 0.3123645
vn 0.9137063 0.2549047 0.3164876
vn 0.9293924 0.1215732 0.3484963
vn 0.8980203 0.1921605 0.3957701
vn 0.4980259 0.8117596 0.3049862
vn 0.5058689 0.8274456 0.2437834
vn 0.4431247 0.8745039 0.197189
vn 0.4195956 0.8588178 0.2938904
vn 0.231363 0.9607772 0.1528999
vn 0.1215606 0.9607772 0.2492594
vn 0.003915191 0.9764632 0.2156486
vn 0.003915191 0.9921492 0.1249983
vn 0.003915191 0.9999923 -0.000422864
vn 0.1843048 0.9764632 -0.1120329
vn 0.4666538 0.8823469 -0.06081307
vn 0.4666538 0.8745039 0.1322016
vn 0.003915191 0.9921492 -0.1249983
vn 0.2235199 0.9607772 -0.1641526
vn 0.1999909 0.9607772 -0.1921221
vn 0.5450841 0.8196026 -0.1764508
vn 0.5450841 0.8117596 -0.2095943
vn 0.003915191 0.9764632 -0.2156486
vn 0.6548864 0.7490155 -0.100497
vn 0.003915191 0.9921492 -0.1249983
vn -0.003927827 0.9921492 -0.1249979
vn -0.01177084 0.9843062 -0.1760758
vn 0.003915191 0.9921492 -0.1249983
vn -0.003927827 0.8745039 -0.4850027
vn 0.003915191 0.8745039 -0.4850028
vn 0.003915191 0.8745039 -0.4850028
vn 0.003915191 0.8745039 -0.4850028
vn 0.01175821 0.8745039 -0.484876
vn -0.0352999 0.8901899 -0.4542201
vn 0.01175821 0.8745039 -0.484876
vn -0.003927827 0.8823469 -0.4705832
vn -0.0745151 0.8823469 -0.4646627
vn -0.09804416 0.8666608 -0.489169
vn -0.003927827 0.8745039 -0.4850027
vn -0.003927827 0.8745039 -0.4850027
vn 0.003915191 0.8745039 -0.4850028
vn 0.01175821 0.8823469 -0.4704526
vn 0.04313034 0.8901899 -0.4535436
vn 0.08234549 0.8823469 -0.4633391
vn 0.1058745 0.8666608 -0.4875342
vn 0.06665939 0.8509748 0.5209591
vn 0.1607757 0.5999979 0.7836796
vn 0.1450897 0.7960736 0.5875508
vn 0.1372467 0.6235269 0.7696607
vn 0.07450241 0.6235269 0.7782439
vn 0.003915191 0.8352886 0.5497978
vn 0.003915191 0.6470561 0.7624324
vn 0.3019502 0.937248 0.1743337
vn 0.4195956 0.8588178 0.2938904
vn 0.7725319 0.6156839 0.1553313
vn 0.5215549 0.8352886 0.1739923
vn 0.06665939 0.9843062 0.1633947
vn 0.6313573 0.7098002 0.3123645
vn 0.1686187 0.9529341 0.2519608
vn 0.1607757 0.9607772 0.2259611
vn 0.01175821 0.9843062 0.1760767
vn 0.01960123 0.9764632 0.2147916
vn 0.003915191 0.9921492 0.1249983
vn 0.239206 0.9607772 0.1403129
vn 0.4195956 0.8588178 0.2938904
vn 0.3019502 0.937248 0.1743337
vn 0.2784212 0.937248 0.2098757
vn 0.239206 0.9607772 0.1403129
vn 0.06665939 0.9843062 0.1633947
vn 0.1372467 0.6235269 0.7696607
vn 0.1921479 0.3254919 0.9258155
vn 0.1607757 0.5999979 0.7836796
vn 0.2078339 0.2784338 0.9376991
vn 0.003915191 0.6470561 0.7624324
vn 0.1215606 0.3176489 0.9403841
vn 0.07450241 0.6235269 0.7782439
vn 0.003915191 0.4196082 0.9076968
vn 0.9529215 -0.05881637 0.2974581
vn 0.9137063 0.2549047 0.3164876
vn 0.9293924 0.1215732 0.3484963
vn 0.8823342 0.3647071 0.2974476
vn 0.9215493 -0.231363 0.311798
vn 0.9137063 -0.03528732 0.4048402
vn 0.8980203 0.1921605 0.3957701
vn 0.6313573 0.7098002 0.3123645
vn 0.9137063 0.2549047 0.3164876
vn 0.8823342 0.3647071 0.2974476
vn 0.8901772 0.3882362 0.2384473
vn 0.003915191 -0.2705781 0.9626901
vn 0.1529327 -0.2862642 0.945867
vn 0.1450897 -0.2705781 0.9517019
vn 0.003915191 -0.2548921 0.9669616
vn 0.2156769 -0.2548921 0.94261
vn 0.1764618 -0.2078339 0.9621155
vn 0.2078339 0.2784338 0.9376991
vn 0.07450241 0.6235269 0.7782439
vn 0.1215606 0.3176489 0.9403841
vn 0.1372467 0.6235269 0.7696607
vn 0.9982748 -0.0587161 0
vn 0.9982748 -0.0587161 0
vn 0.990567 -0.1370295 0
vn 0.990567 -0.1370295 0
vn 0.0901885 0.3568641 -0.9297925
vn 0.1529327 0.1843175 -0.9708958
vn 0.1999909 0.3176489 -0.926878
vn 0.05097336 0.1843175 -0.9815441
vn 0.08234549 0.5058815 -0.8586635
vn 0.2235199 -0.1843048 -0.9571158
vn 0.1058745 -0.1999909 -0.9740607
vn 0.05881637 -0.1999909 -0.9780308
vn 0.003915191 -0.2156769 -0.9764569
vn 0.01175821 -0.1921479 -0.9812955
vn 0.01175821 -0.1921479 -0.9812955
vn 0.003915191 -0.1843048 -0.9828613
vn 0.05881637 -0.1999909 -0.9780308
vn 0.003915191 -0.2156769 -0.9764569
vn 0.01175821 -0.1921479 -0.9812955
vn 0.003915191 0.5529398 -0.833212
vn 0.0901885 0.3568641 -0.9297925
vn 0.08234549 0.5058815 -0.8586635
vn 0.003915191 0.3882362 -0.9215516
vn 0.003915191 0.3803931 -0.9248166
vn 0.05097336 0.1843175 -0.9815441
vn 0.003915191 0.1921605 -0.9813557
vn 0.003915191 0.1921605 -0.9813557
vn 0.003915191 0.3803931 -0.9248166
vn 0.003915191 0.1921605 -0.9813557
vn 0.003915191 0.3882362 -0.9215516
vn 0.01175821 -0.8823342 -0.4704764
vn 0.01175763 -0.9999309 0
vn 0.01175821 -0.8823342 -0.4704764
vn 0.01175763 -0.9999309 0
vn 0.003915191 -0.4431247 -0.8964514
vn 0.003915191 -0.4352817 -0.9002858
vn 0.003915191 -0.1294037 -0.9915842
vn 0.003915191 -0.1294037 -0.9915842
vn 0.01175821 -0.8666481 0.4987812
vn 0.01175821 -0.8666481 0.4987812
vn 0.003915191 -0.4901829 0.8716108
vn 0.003915191 -0.4823399 0.8759754
vn 0.003915191 -0.247049 0.968995
vn 0.003915191 -0.247049 0.968995
vn 0.01175821 -0.5058689 -0.8625302
vn 0.003915191 -0.1607757 -0.9869832
vn 0.01175821 -0.5215549 -0.8531367
vn 0.003915191 -0.1607757 -0.9869832
vn 0.01175821 -0.8980203 -0.4397969
vn 0.01175821 -0.8980203 -0.4397969
vn 0.01175763 -0.9999309 0
vn 0.01175763 -0.9999309 0
vn 0.01175821 -0.9058633 0.4234069
vn 0.01175821 -0.9058633 0.4234069
vn 0.003915191 -0.5529271 0.8332204
vn 0.01175821 -0.529398 0.8482921
vn 0.01175821 -0.2784212 0.9603871
vn 0.01960123 -0.2705781 0.9624985
vn 0.9999796 0.003927827 0.005034059
vn 0.9999796 0.003927827 0.005034059
vn 0.9999796 0.003927827 0.005034059
vn 0.9999796 0.003927827 0.005034059
vn 0.9999796 0.003927827 0.005034059
vn 0.9999796 0.003927827 0.005034059
vn 0.9999796 0.003927827 0.005034059
vn 0.9999796 -0.003915191 0.005043893
vn 0.9996233 0.0274471 0
vn 0.999808 -0.01959786 0
vn 0.9999307 0.01177027 0
vn 0.9999796 -0.003915191 0.005043893
vn 0.9999796 0.003927827 0.005034059
vn 0.9842936 0.1764745 0.004785911
vn -0.921562 0.3647071 -0.1330875
vn -0.9686202 0.1843175 -0.1667394
vn -0.9843062 -0.0901885 -0.1516816
vn -0.9058759 0.4039222 -0.1274193
vn -0.8745039 0.4666665 -0.1321569
vn -0.7568585 0.639213 -0.1362794
vn -0.8039166 0.4745095 -0.3585511
vn -0.9607772 -0.231363 -0.1528999
vn -0.9137189 -0.3646944 -0.1792084
vn -0.5921549 0.7803875 -0.200868
vn -0.8745039 0.4666665 -0.1321569
vn -0.8745039 0.4431373 -0.1971608
vn -0.5372536 0.8117596 -0.2289212
vn -0.2000035 0.9607772 -0.1921089
vn -0.2156895 0.9607772 -0.1743137
vn -0.5921549 0.7960736 -0.1249781
vn 0.003915191 0.9764632 -0.2156486
vn 0.003915191 0.9921492 -0.1249983
vn -0.1764745 0.9764632 -0.1240016
vn 0.003915191 0.9999923 -0.000422864
vn -0.2235326 0.9607772 0.1641353
vn 0.003915191 0.9921492 0.1249983
vn -0.4588234 0.8823469 0.1046185
vn -0.6627421 0.7411723 0.1069417
vn -0.4588234 0.8823469 0.1046185
vn -0.5843118 0.8039166 -0.1108958
vn -0.6705852 0.7333293 -0.1119986
vn -0.9450911 0.3098059 0.1040341
vn -0.5843118 0.8039166 0.1108958
vn -0.2392186 0.9529341 0.1862551
vn 0.003915191 0.9764632 0.2156486
vn -0.4666665 0.8431318 0.2671164
vn -0.4823525 0.7803875 -0.3979088
vn -0.5999979 0.7411723 0.3011082
vn -0.5294106 0.7882305 0.3137149
vn -0.8509748 0.5058815 0.1411586
vn -0.937248 0.3176489 0.1437545
vn -0.9921492 0.0745151 -0.1004361
vn -0.9921492 0.01961386 0.1235119
vn -0.937248 0.3411779 -0.07185951
vn -0.9843062 -0.1764618 -0.001590431
vn -0.7333293 0.6784282 -0.04430968
vn -0.9764632 0.1843175 -0.1120121
vn -0.5372536 0.8274456 0.1633777
vn -0.1607884 0.7176433 -0.6775952
vn -0.8509748 0.5137246 0.1092198
vn -0.8431318 0.4823525 0.2376233
vn -0.8745039 0.3960792 0.2799362
vn -0.6235269 0.7098002 0.327716
vn -0.9058759 0.1529454 0.3949639
vn -0.8745039 0.2235326 0.4304372
vn -0.921562 0.1215732 0.3687052
vn -0.9529341 0.2941198 0.07355286
vn -0.5607828 0.8117596 0.1630002
vn -0.4117652 0.8588178 0.3047645
vn -0.9058759 0.4039222 -0.1274193
vn -0.9921492 0.06667209 0.1058052
vn -0.9921492 -0.05097336 0.1141999
vn -0.9921492 -0.05097336 0.1141999
vn -0.9843062 -0.1294037 -0.1199832
vn -0.9843062 -0.1294037 0.1199832
vn -0.9921492 -0.05881637 -0.1103655
vn -0.9921492 -0.06665939 -0.1058132
vn 0.01175821 0.9921492 -0.1245055
vn 0.003915191 0.9921492 -0.1249983
vn 0.01960123 0.9843062 -0.1753769
vn 0.003915191 0.9921492 -0.1249983
vn 0.01175821 0.8745039 -0.484876
vn 0.01175821 0.8745039 -0.484876
vn 0.003915191 0.8745039 -0.4850028
vn 0.003915191 0.8745039 -0.4850028
vn -0.1058872 0.8117596 0.574312
vn -0.1372592 0.6156839 0.7759467
vn -0.0745151 0.8588178 0.5068328
vn -0.1529454 0.5764688 0.8026776
vn -0.06667209 0.6235269 0.7789538
vn 0.003915191 0.6470561 0.7624324
vn 0.003915191 0.8352886 0.5497978
vn -0.4117652 0.8588178 0.3047645
vn -0.2941198 0.937248 0.1872423
vn -0.5607828 0.8117596 0.1630002
vn -0.5372536 0.8274456 0.1633777
vn -0.06667209 0.9843062 0.1633894
vn -0.1607884 0.9529341 0.2570284
vn -0.1607884 0.9529341 0.2570284
vn 0.01960123 0.9764632 0.2147916
vn 0.01175821 0.9843062 0.1760767
vn -0.6235269 0.7098002 0.327716
vn -0.2392186 0.9607772 0.1402915
vn 0.003915191 0.9921492 0.1249983
vn -0.2941198 0.937248 0.1872423
vn -0.4117652 0.8588178 0.3047645
vn -0.2705908 0.937248 0.2198791
vn -0.2392186 0.9607772 0.1402915
vn -0.06667209 0.9843062 0.1633894
vn -0.1843175 0.3019629 0.9353318
vn -0.1529454 0.5764688 0.8026776
vn -0.2078465 0.3411779 0.9167319
vn -0.1372592 0.6156839 0.7759467
vn -0.9529341 0.01961386 0.3025422
vn -0.8745039 0.2235326 0.4304372
vn -0.8745039 0.3725501 0.3105631
vn -0.921562 0.1215732 0.3687052
vn -0.929405 -0.1686187 0.3282897
vn -0.9137189 -0.03528732 0.4048117
vn -0.9058759 0.1529454 0.3949639
vn -0.8745039 0.3725501 0.3105631
vn -0.8745039 0.3960792 0.2799362
vn -0.6235269 0.7098002 0.327716
vn -0.8745039 0.2235326 0.4304372
vn -0.1529454 -0.2941072 0.9434557
vn -0.2392186 -0.2941072 0.9253515
vn -0.1451023 -0.2862642 0.9470999
vn -0.2470617 -0.3019502 0.9207532
vn 0.003915191 -0.2705781 0.9626901
vn 0.003915191 -0.2548921 0.9669616
vn -0.1137302 0.3176489 0.9413632
vn -0.1372592 0.6156839 0.7759467
vn -0.1843175 0.3019629 0.9353318
vn -0.06667209 0.6235269 0.7789538
vn -0.1451023 0.1843175 -0.9720969
vn -0.08235812 0.3568641 -0.9305187
vn -0.1921605 0.3176489 -0.928533
vn -0.04314291 0.1843175 -0.9819194
vn -0.0745151 0.5058815 -0.8593785
vn -0.05882907 -0.2078339 -0.9763935
vn -0.09804416 -0.1999909 -0.97488
vn -0.2156895 -0.1843048 -0.9589107
vn 0.01175821 -0.1921479 -0.9812955
vn 0.003915191 -0.1843048 -0.9828613
vn 0.003915191 0.3803931 -0.9248166
vn -0.0745151 0.5058815 -0.8593785
vn -0.08235812 0.3568641 -0.9305187
vn 0.003915191 0.5529398 -0.833212
vn 0.003915191 0.3803931 -0.9248166
vn -0.04314291 0.1843175 -0.9819194
vn 0.003915191 0.1921605 -0.9813557
vn 0.003915191 0.3803931 -0.9248166
vn 0.003915191 0.1921605 -0.9813557
vn 0.003915191 0.3803931 -0.9248166
vn 0.003915191 0.1921605 -0.9813557
vn -0.003927827 -0.8823342 -0.470607
vn -0.003927827 -0.9999796 0.005033088
vn -0.003927827 -0.9999796 0.005033088
vn -0.003927827 -0.8823342 -0.470607
vn 0.003915191 -0.4431247 -0.8964514
vn 0.003915191 -0.4352817 -0.9002858
vn 0.003915191 -0.1294037 -0.9915842
vn 0.003915191 -0.1294037 -0.9915842
vn -0.003927827 -0.8666481 0.4989043
vn -0.003927827 -0.8666481 0.4989043
vn 0.003915191 -0.4901829 0.8716108
vn 0.003915191 -0.4823399 0.8759754
vn 0.003915191 -0.247049 0.968995
vn 0.003915191 -0.247049 0.968995
vn 0.003915191 -0.1607757 -0.9869832
vn -0.003927827 -0.5058689 -0.8626014
vn -0.003927827 -0.5215549 -0.8532087
vn 0.003915191 -0.1607757 -0.9869832
vn -0.003927827 -0.8980203 -0.4399365
vn -0.003927827 -0.8980203 -0.4399365
vn -0.003927827 -0.9999796 -0.005033088
vn -0.003927827 -0.9999796 -0.005033088
vn -0.003927827 -0.9058633 0.423552
vn -0.003927827 -0.9058633 0.423552
vn 0.003915191 -0.5529271 0.8332204
vn -0.003927827 -0.529398 0.8483645
vn -0.003927827 -0.2784212 0.9604511
vn -0.01177084 -0.2705781 0.962626
vn -0.9921492 0.003927827 0.1249979
vn -0.9921492 0.003927827 0.1249979
vn -0.9921492 0.003927827 0.1249979
vn -0.9921492 0.003927827 0.1249979
vn -0.9921492 0.003927827 0.1249979
vn -0.9921492 0.003927827 0.1249979
vn -0.9921492 0.003927827 0.1249979
vn -0.9921492 -0.003915191 0.1249983
vn -0.9921492 0.0352999 0.1199742
vn -0.9921492 0.01177084 0.1245044
vn -0.9921492 -0.01960123 0.1235139
vn -0.9921492 0.003927827 0.1249979
vn -0.9921492 -0.003915191 0.1249983
vn -0.9764632 0.1764745 0.1240016
vn 0.003915191 0.6470561 0.7624324
vn -0.1137302 0.3176489 0.9413632
vn 0.003915191 0.4196082 0.9076968
vn -0.06667209 0.6235269 0.7789538
g DSJ_GTA_daoJu_che_03_0
f 3/3/3 2/2/2 1/1/1
f 4/4/4 1/1/1 2/2/2
f 7/7/7 6/6/6 5/5/5
f 8/8/8 5/5/5 6/6/6
f 6/6/6 7/7/7 9/9/9
f 10/10/10 9/9/9 7/7/7
f 9/9/9 10/10/10 11/11/11
f 12/12/12 11/11/11 10/10/10
f 15/15/15 14/14/14 13/13/13
f 16/16/16 13/13/13 14/14/14
f 19/19/19 18/18/18 17/17/17
f 20/20/20 17/17/17 18/18/18
f 18/18/18 19/19/19 21/21/21
f 22/22/22 21/21/21 19/19/19
f 25/25/25 24/24/24 23/23/23
f 26/26/26 23/23/23 24/24/24
f 29/29/29 28/28/28 27/27/27
f 28/28/28 30/30/30 27/27/27
f 30/30/30 31/31/31 27/27/27
f 31/31/31 32/32/32 27/27/27
f 32/32/32 33/33/33 27/27/27
f 33/33/33 34/34/34 27/27/27
f 37/37/37 36/36/36 35/35/35
f 38/38/38 35/35/35 36/36/36
f 35/35/35 38/38/38 39/39/39
f 40/40/40 39/39/39 38/38/38
f 43/43/43 42/42/42 41/41/41
f 44/44/44 41/41/41 42/42/42
f 47/47/47 46/46/46 45/45/45
f 48/48/48 45/45/45 46/46/46
f 46/46/46 47/47/47 49/49/49
f 50/50/50 49/49/49 47/47/47
f 53/53/53 52/52/52 51/51/51
f 54/54/54 51/51/51 52/52/52
f 57/57/57 56/56/56 55/55/55
f 58/58/58 55/55/55 56/56/56
f 61/61/61 60/60/60 59/59/59
f 62/62/62 59/59/59 60/60/60
f 65/65/65 64/64/64 63/63/63
f 64/64/64 66/66/66 63/63/63
f 66/66/66 67/67/67 63/63/63
f 67/67/67 68/68/68 63/63/63
f 68/68/68 69/69/69 63/63/63
f 69/69/69 70/70/70 63/63/63
f 73/73/73 72/72/72 71/71/71
f 74/74/74 71/71/71 72/72/72
f 71/71/71 74/74/74 75/75/75
f 76/76/76 75/75/75 74/74/74
f 79/79/79 78/78/78 77/77/77
f 82/82/82 81/81/81 80/80/80
f 83/83/83 80/80/80 81/81/81
f 86/86/86 85/85/85 84/84/84
f 88/88/88 87/87/87 85/85/85
f 91/91/91 90/90/90 89/89/89
f 92/92/92 89/89/89 90/90/90
f 95/95/95 94/94/94 93/93/93
f 96/96/96 93/93/93 94/94/94
f 99/99/99 98/98/98 97/97/97
f 100/100/100 97/97/97 98/98/98
f 103/103/103 102/102/102 101/101/101
f 104/104/104 101/101/101 102/102/102
f 107/107/107 106/106/106 105/105/105
f 106/106/106 108/108/108 105/105/105
f 108/108/108 109/109/109 105/105/105
f 107/107/107 110/110/110 106/106/106
f 111/111/111 105/105/105 109/109/109
f 114/114/114 113/113/113 112/112/112
f 115/115/115 112/112/112 113/113/113
f 118/118/118 117/117/117 116/116/116
f 119/119/119 116/116/116 117/117/117
f 122/122/122 121/121/121 120/120/120
f 123/123/123 120/120/120 121/121/121
f 126/126/126 125/125/125 124/124/124
f 127/127/127 124/124/124 125/125/125
f 130/130/130 129/129/129 128/128/128
f 131/131/131 128/128/128 129/129/129
f 134/134/134 133/133/133 132/132/132
f 135/135/135 132/132/132 133/133/133
f 138/138/138 137/137/137 136/136/136
f 139/139/139 136/136/136 137/137/137
f 142/142/142 141/141/141 140/140/140
f 143/143/143 140/140/140 141/141/141
f 146/146/146 145/145/145 144/144/144
f 147/147/147 144/144/144 145/145/145
f 145/145/145 146/146/146 148/148/148
f 149/149/149 148/148/148 146/146/146
f 152/152/152 151/151/151 150/150/150
f 155/155/155 154/154/154 153/153/153
f 156/156/156 153/153/153 154/154/154
f 159/159/159 158/158/158 157/157/157
f 161/161/161 157/157/157 160/160/160
f 164/164/164 163/163/163 162/162/162
f 165/165/165 162/162/162 163/163/163
f 168/168/168 167/167/167 166/166/166
f 169/169/169 166/166/166 167/167/167
f 172/172/172 171/171/171 170/170/170
f 173/173/173 170/170/170 171/171/171
f 176/176/176 175/175/175 174/174/174
f 177/177/177 174/174/174 175/175/175
f 180/180/180 179/179/179 178/178/178
f 179/179/179 181/181/181 178/178/178
f 181/181/181 182/182/182 178/178/178
f 183/183/183 179/179/179 180/180/180
f 184/184/184 182/182/182 181/181/181
f 187/187/187 186/186/186 185/185/185
f 188/188/188 185/185/185 186/186/186
f 191/191/191 190/190/190 189/189/189
f 192/192/192 189/189/189 190/190/190
f 195/195/195 194/194/194 193/193/193
f 196/196/196 193/193/193 194/194/194
f 199/199/199 198/198/198 197/197/197
f 200/200/200 197/197/197 198/198/198
f 203/203/203 202/202/202 201/201/201
f 204/204/204 201/201/201 202/202/202
f 207/207/207 206/206/206 205/205/205
f 208/208/208 205/205/205 206/206/206
f 211/211/211 210/210/210 209/209/209
f 212/212/212 209/209/209 210/210/210
f 209/209/209 212/212/212 213/213/213
f 214/214/214 213/213/213 212/212/212
f 217/217/217 216/216/216 215/215/215
f 218/218/218 215/215/215 216/216/216
f 216/216/216 217/217/217 219/219/219
f 220/220/220 219/219/219 217/217/217
f 219/219/219 220/220/220 221/221/221
f 222/222/222 221/221/221 220/220/220
f 225/225/225 224/224/224 223/223/223
f 226/226/226 223/223/223 224/224/224
f 229/229/229 228/228/228 227/227/227
f 230/230/230 227/227/227 228/228/228
f 233/233/233 232/232/232 231/231/231
f 234/234/234 231/231/231 232/232/232
f 237/237/237 236/236/236 235/235/235
f 236/236/236 238/238/238 235/235/235
f 238/238/238 239/239/239 235/235/235
f 239/239/239 240/240/240 235/235/235
f 240/240/240 241/241/241 235/235/235
f 241/241/241 242/242/242 235/235/235
f 245/245/245 244/244/244 243/243/243
f 246/246/246 243/243/243 244/244/244
f 249/249/249 248/248/248 247/247/247
f 250/250/250 247/247/247 248/248/248
f 253/253/253 252/252/252 251/251/251
f 254/254/254 251/251/251 252/252/252
f 252/252/252 253/253/253 255/255/255
f 256/256/256 255/255/255 253/253/253
f 259/259/259 258/258/258 257/257/257
f 260/260/260 257/257/257 258/258/258
f 263/263/263 262/262/262 261/261/261
f 264/264/264 261/261/261 262/262/262
f 267/267/267 266/266/266 265/265/265
f 268/268/268 265/265/265 266/266/266
f 266/266/266 267/267/267 269/269/269
f 270/270/270 269/269/269 267/267/267
f 273/273/273 272/272/272 271/271/271
f 272/272/272 274/274/274 271/271/271
f 274/274/274 275/275/275 271/271/271
f 275/275/275 276/276/276 271/271/271
f 276/276/276 277/277/277 271/271/271
f 277/277/277 278/278/278 271/271/271
f 281/281/281 280/280/280 279/279/279
f 282/282/282 280/280/280 281/281/281
f 283/283/283 280/280/280 282/282/282
f 284/284/284 283/283/283 282/282/282
f 285/285/285 284/284/284 282/282/282
f 280/280/280 286/286/286 279/279/279
f 287/287/287 279/279/279 286/286/286
f 289/289/289 283/283/283 288/288/288
f 290/290/290 289/289/289 288/288/288
f 291/291/291 289/289/289 290/290/290
f 292/292/292 291/291/291 290/290/290
f 293/293/293 292/292/292 290/290/290
f 293/293/293 294/294/294 292/292/292
f 295/295/295 292/292/292 294/294/294
f 296/296/296 291/291/291 292/292/292
f 297/297/297 296/296/296 292/292/292
f 298/298/298 296/296/296 297/297/297
f 299/299/299 291/291/291 296/296/296
f 298/298/298 300/300/300 296/296/296
f 298/298/298 301/301/301 300/300/300
f 298/298/298 297/297/297 301/301/301
f 302/302/302 300/300/300 301/301/301
f 300/300/300 303/303/303 296/296/296
f 296/296/296 303/303/303 304/304/304
f 305/305/305 296/296/296 304/304/304
f 303/303/303 306/306/306 304/304/304
f 307/307/307 305/305/305 304/304/304
f 308/308/308 307/307/307 304/304/304
f 309/309/309 308/308/308 304/304/304
f 310/310/310 309/309/309 304/304/304
f 311/311/311 309/309/309 310/310/310
f 312/312/312 311/311/311 310/310/310
f 313/313/313 312/312/312 310/310/310
f 312/312/312 314/314/314 311/311/311
f 314/314/314 315/315/315 311/311/311
f 315/315/315 316/316/316 311/311/311
f 306/306/306 317/317/317 304/304/304
f 306/306/306 318/318/318 317/317/317
f 319/319/319 317/317/317 318/318/318
f 320/320/320 304/304/304 317/317/317
f 319/319/319 318/318/318 321/321/321
f 322/322/322 319/319/319 321/321/321
f 322/322/322 321/321/321 323/323/323
f 324/324/324 323/323/323 321/321/321
f 324/324/324 321/321/321 325/325/325
f 326/326/326 325/325/325 321/321/321
f 326/326/326 321/321/321 327/327/327
f 321/321/321 328/328/328 327/327/327
f 318/318/318 328/328/328 321/321/321
f 328/328/328 302/302/302 327/327/327
f 325/325/325 326/326/326 329/329/329
f 330/330/330 329/329/329 326/326/326
f 326/326/326 327/327/327 330/330/330
f 330/330/330 331/331/331 329/329/329
f 330/330/330 294/294/294 331/331/331
f 294/294/294 332/332/332 331/331/331
f 332/332/332 333/333/333 331/331/331
f 334/334/334 329/329/329 331/331/331
f 327/327/327 335/335/335 330/330/330
f 335/335/335 295/295/295 330/330/330
f 295/295/295 294/294/294 330/330/330
f 302/302/302 301/301/301 327/327/327
f 301/301/301 335/335/335 327/327/327
f 333/333/333 332/332/332 288/288/288
f 332/332/332 290/290/290 288/288/288
f 335/335/335 301/301/301 297/297/297
f 338/338/338 337/337/337 336/336/336
f 339/339/339 336/336/336 337/337/337
f 342/342/342 341/341/341 340/340/340
f 340/340/340 343/343/343 342/342/342
f 341/341/341 342/342/342 344/344/344
f 346/346/346 345/345/345 344/344/344
f 345/345/345 347/347/347 344/344/344
f 347/347/347 345/345/345 348/348/348
f 349/349/349 348/348/348 345/345/345
f 352/352/352 351/351/351 350/350/350
f 351/351/351 353/353/353 350/350/350
f 353/353/353 354/354/354 350/350/350
f 353/353/353 355/355/355 354/354/354
f 356/356/356 354/354/354 355/355/355
f 359/359/359 358/358/358 357/357/357
f 360/360/360 357/357/357 358/358/358
f 357/357/357 360/360/360 361/361/361
f 362/362/362 357/357/357 361/361/361
f 363/363/363 362/362/362 361/361/361
f 366/366/366 365/365/365 364/364/364
f 366/366/366 364/364/364 367/367/367
f 368/368/368 367/367/367 364/364/364
f 367/367/367 368/368/368 369/369/369
f 370/370/370 369/369/369 368/368/368
f 370/370/370 368/368/368 371/371/371
f 368/368/368 372/372/372 371/371/371
f 372/372/372 373/373/373 371/371/371
f 372/372/372 368/368/368 374/374/374
f 375/375/375 374/374/374 368/368/368
f 378/378/378 377/377/377 376/376/376
f 378/378/378 379/379/379 377/377/377
f 380/380/380 377/377/377 379/379/379
f 383/383/383 382/382/382 381/381/381
f 384/384/384 381/381/381 382/382/382
f 387/387/387 386/386/386 385/385/385
f 388/388/388 385/385/385 386/386/386
f 391/391/391 390/390/390 389/389/389
f 392/392/392 389/389/389 390/390/390
f 389/389/389 393/393/393 391/391/391
f 394/394/394 391/391/391 393/393/393
f 391/391/391 394/394/394 395/395/395
f 398/398/398 397/397/397 396/396/396
f 399/399/399 396/396/396 397/397/397
f 402/402/402 401/401/401 400/400/400
f 403/403/403 400/400/400 401/401/401
f 401/401/401 402/402/402 404/404/404
f 405/405/405 404/404/404 402/402/402
f 408/408/408 407/407/407 406/406/406
f 409/409/409 406/406/406 407/407/407
f 307/307/307 410/410/410 305/305/305
f 411/411/411 305/305/305 410/410/410
f 305/305/305 411/411/411 296/296/296
f 412/412/412 296/296/296 411/411/411
f 296/296/296 412/412/412 299/299/299
f 413/413/413 299/299/299 412/412/412
f 416/416/416 415/415/415 414/414/414
f 417/417/417 414/414/414 415/415/415
f 414/414/414 418/418/418 416/416/416
f 421/421/421 420/420/420 419/419/419
f 422/422/422 420/420/420 421/421/421
f 424/424/424 423/423/423 421/421/421
f 424/424/424 425/425/425 423/423/423
f 428/428/428 427/427/427 426/426/426
f 431/431/431 430/430/430 429/429/429
f 430/430/430 432/432/432 429/429/429
f 432/432/432 433/433/433 429/429/429
f 430/430/430 434/434/434 432/432/432
f 435/435/435 432/432/432 434/434/434
f 438/438/438 437/437/437 436/436/436
f 439/439/439 436/436/436 437/437/437
f 442/442/442 441/441/441 440/440/440
f 443/443/443 440/440/440 441/441/441
f 440/440/440 444/444/444 442/442/442
f 445/445/445 442/442/442 444/444/444
f 444/444/444 446/446/446 445/445/445
f 447/447/447 445/445/445 446/446/446
f 441/441/441 448/448/448 443/443/443
f 449/449/449 443/443/443 448/448/448
f 449/449/449 448/448/448 450/450/450
f 451/451/451 450/450/450 448/448/448
f 450/450/450 451/451/451 452/452/452
f 453/453/453 452/452/452 451/451/451
f 456/456/456 455/455/455 454/454/454
f 457/457/457 454/454/454 455/455/455
f 454/454/454 458/458/458 456/456/456
f 459/459/459 456/456/456 458/458/458
f 458/458/458 460/460/460 459/459/459
f 461/461/461 459/459/459 460/460/460
f 460/460/460 462/462/462 461/461/461
f 463/463/463 461/461/461 462/462/462
f 463/463/463 462/462/462 464/464/464
f 465/465/465 464/464/464 462/462/462
f 464/464/464 465/465/465 466/466/466
f 467/467/467 466/466/466 465/465/465
f 470/470/470 469/469/469 468/468/468
f 471/471/471 468/468/468 469/469/469
f 471/471/471 469/469/469 472/472/472
f 473/473/473 472/472/472 469/469/469
f 474/474/474 470/470/470 468/468/468
f 477/477/477 476/476/476 475/475/475
f 478/478/478 475/475/475 476/476/476
f 475/475/475 478/478/478 479/479/479
f 480/480/480 479/479/479 478/478/478
f 481/481/481 476/476/476 477/477/477
f 484/484/484 483/483/483 482/482/482
f 482/482/482 483/483/483 485/485/485
f 485/485/485 483/483/483 486/486/486
f 487/487/487 485/485/485 486/486/486
f 483/483/483 488/488/488 486/486/486
f 483/483/483 484/484/484 489/489/489
f 490/490/490 489/489/489 484/484/484
f 492/492/492 488/488/488 491/491/491
f 491/491/491 488/488/488 493/493/493
f 494/494/494 491/491/491 493/493/493
f 495/495/495 491/491/491 494/494/494
f 496/496/496 495/495/495 494/494/494
f 497/497/497 496/496/496 494/494/494
f 495/495/495 496/496/496 498/498/498
f 499/499/499 498/498/498 496/496/496
f 496/496/496 500/500/500 499/499/499
f 501/501/501 499/499/499 500/500/500
f 500/500/500 502/502/502 501/501/501
f 503/503/503 501/501/501 502/502/502
f 500/500/500 504/504/504 502/502/502
f 500/500/500 496/496/496 504/504/504
f 504/504/504 505/505/505 502/502/502
f 505/505/505 506/506/506 502/502/502
f 496/496/496 507/507/507 504/504/504
f 497/497/497 507/507/507 496/496/496
f 507/507/507 508/508/508 504/504/504
f 497/497/497 509/509/509 507/507/507
f 510/510/510 507/507/507 509/509/509
f 502/502/502 511/511/511 503/503/503
f 512/512/512 503/503/503 511/511/511
f 511/511/511 502/502/502 513/513/513
f 502/502/502 506/506/506 513/513/513
f 514/514/514 511/511/511 513/513/513
f 513/513/513 515/515/515 514/514/514
f 516/516/516 514/514/514 515/515/515
f 515/515/515 517/517/517 516/516/516
f 517/517/517 515/515/515 518/518/518
f 519/519/519 517/517/517 518/518/518
f 520/520/520 519/519/519 518/518/518
f 521/521/521 520/520/520 518/518/518
f 522/522/522 521/521/521 518/518/518
f 522/522/522 505/505/505 521/521/521
f 523/523/523 521/521/521 505/505/505
f 519/519/519 524/524/524 517/517/517
f 524/524/524 525/525/525 517/517/517
f 526/526/526 525/525/525 524/524/524
f 527/527/527 525/525/525 526/526/526
f 527/527/527 528/528/528 525/525/525
f 528/528/528 529/529/529 525/525/525
f 525/525/525 529/529/529 530/530/530
f 529/529/529 528/528/528 531/531/531
f 532/532/532 529/529/529 531/531/531
f 533/533/533 532/532/532 531/531/531
f 523/523/523 505/505/505 504/504/504
f 521/521/521 534/534/534 520/520/520
f 508/508/508 523/523/523 504/504/504
f 523/523/523 508/508/508 521/521/521
f 534/534/534 521/521/521 508/508/508
f 525/525/525 535/535/535 517/517/517
f 517/517/517 535/535/535 516/516/516
f 535/535/535 536/536/536 516/516/516
f 510/510/510 509/509/509 534/534/534
f 534/534/534 509/509/509 520/520/520
f 520/520/520 509/509/509 537/537/537
f 538/538/538 520/520/520 537/537/537
f 539/539/539 520/520/520 538/538/538
f 537/537/537 509/509/509 488/488/488
f 488/488/488 509/509/509 493/493/493
f 539/539/539 538/538/538 540/540/540
f 520/520/520 539/539/539 541/541/541
f 539/539/539 540/540/540 541/541/541
f 542/542/542 520/520/520 541/541/541
f 520/520/520 542/542/542 519/519/519
f 543/543/543 519/519/519 542/542/542
f 519/519/519 543/543/543 524/524/524
f 544/544/544 524/524/524 543/543/543
f 547/547/547 546/546/546 545/545/545
f 548/548/548 545/545/545 546/546/546
f 551/551/551 550/550/550 549/549/549
f 552/552/552 550/550/550 551/551/551
f 555/555/555 554/554/554 553/553/553
f 556/556/556 553/553/553 554/554/554
f 557/557/557 554/554/554 555/555/555
f 558/558/558 557/557/557 555/555/555
f 559/559/559 558/558/558 555/555/555
f 562/562/562 561/561/561 560/560/560
f 562/562/562 563/563/563 561/561/561
f 564/564/564 561/561/561 563/563/563
f 564/564/564 563/563/563 565/565/565
f 565/565/565 566/566/566 564/564/564
f 566/566/566 567/567/567 564/564/564
f 567/567/567 568/568/568 564/564/564
f 569/569/569 565/565/565 563/563/563
f 564/564/564 568/568/568 570/570/570
f 571/571/571 570/570/570 568/568/568
f 574/574/574 573/573/573 572/572/572
f 574/574/574 572/572/572 575/575/575
f 576/576/576 575/575/575 572/572/572
f 579/579/579 578/578/578 577/577/577
f 580/580/580 577/577/577 578/578/578
f 583/583/583 582/582/582 581/581/581
f 584/584/584 581/581/581 582/582/582
f 581/581/581 584/584/584 585/585/585
f 586/586/586 585/585/585 584/584/584
f 587/587/587 586/586/586 584/584/584
f 590/590/590 589/589/589 588/588/588
f 591/591/591 588/588/588 589/589/589
f 594/594/594 593/593/593 592/592/592
f 595/595/595 592/592/592 593/593/593
f 592/592/592 596/596/596 594/594/594
f 597/597/597 594/594/594 596/596/596
f 600/600/600 599/599/599 598/598/598
f 601/601/601 598/598/598 599/599/599
f 604/604/604 603/603/603 602/602/602
f 605/605/605 602/602/602 603/603/603
f 604/604/604 606/606/606 603/603/603
f 609/609/609 608/608/608 607/607/607
f 607/607/607 608/608/608 610/610/610
f 608/608/608 611/611/611 610/610/610
f 614/614/614 613/613/613 612/612/612
f 613/613/613 615/615/615 612/612/612
f 615/615/615 616/616/616 612/612/612
f 614/614/614 612/612/612 617/617/617
f 618/618/618 617/617/617 612/612/612
f 621/621/621 620/620/620 619/619/619
f 622/622/622 619/619/619 620/620/620
f 625/625/625 624/624/624 623/623/623
f 626/626/626 623/623/623 624/624/624
f 623/623/623 626/626/626 627/627/627
f 628/628/628 627/627/627 626/626/626
f 627/627/627 628/628/628 629/629/629
f 630/630/630 629/629/629 628/628/628
f 624/624/624 625/625/625 631/631/631
f 632/632/632 631/631/631 625/625/625
f 632/632/632 633/633/633 631/631/631
f 634/634/634 631/631/631 633/633/633
f 633/633/633 635/635/635 634/634/634
f 636/636/636 634/634/634 635/635/635
f 639/639/639 638/638/638 637/637/637
f 640/640/640 637/637/637 638/638/638
f 638/638/638 639/639/639 641/641/641
f 642/642/642 641/641/641 639/639/639
f 641/641/641 642/642/642 643/643/643
f 644/644/644 643/643/643 642/642/642
f 643/643/643 644/644/644 645/645/645
f 646/646/646 645/645/645 644/644/644
f 646/646/646 647/647/647 645/645/645
f 648/648/648 645/645/645 647/647/647
f 647/647/647 649/649/649 648/648/648
f 650/650/650 648/648/648 649/649/649
f 653/653/653 652/652/652 651/651/651
f 654/654/654 651/651/651 652/652/652
f 652/652/652 653/653/653 655/655/655
f 656/656/656 655/655/655 653/653/653
f 654/654/654 657/657/657 651/651/651
f 660/660/660 659/659/659 658/658/658
f 661/661/661 658/658/658 659/659/659
f 660/660/660 658/658/658 662/662/662
f 663/663/663 662/662/662 658/658/658
f 659/659/659 664/664/664 661/661/661
f 667/667/667 666/666/666 665/665/665
f 668/668/668 665/665/665 666/666/666
