g DSJ_GTA_daoJu_gongYe_04
v -2.092105 1.336327 -0.3326979
v 2.181389 1.336327 0.3326895
v -2.092105 1.336327 0.3326895
v 2.181389 1.336327 -0.3326979
v -2.092105 0.7600782 -0.6653978
v 2.181389 1.336327 -0.3326979
v -2.092105 1.336327 -0.3326979
v 2.181389 0.7600782 -0.6653978
v -2.092105 0.1838291 -0.3326979
v 2.181389 0.7600782 -0.6653978
v -2.092105 0.7600782 -0.6653978
v 2.181389 0.1838291 -0.3326979
v -2.092105 0.1838291 0.3326895
v 2.181389 0.1838291 -0.3326979
v -2.092105 0.1838291 -0.3326979
v 2.181389 0.1838291 0.3326895
v -2.092105 0.7600782 0.6653852
v 2.181389 0.1838291 0.3326895
v -2.092105 0.1838291 0.3326895
v 2.181389 0.7600782 0.6653852
v -2.092105 1.336327 0.3326895
v 2.181389 0.7600782 0.6653852
v -2.092105 0.7600782 0.6653852
v 2.181389 1.336327 0.3326895
v -2.181389 0.7600782 0.8671322
v -2.181389 0.009109735 0.4335735
v -2.181389 0.009109735 -0.4335775
v -2.181389 0.7600782 -0.8671405
v -2.181389 1.511038 0.4335735
v -2.181389 1.511038 -0.433565
v -2.002834 0.7600782 -0.8671405
v -2.002834 0.009109735 -0.4335775
v -2.002834 0.009109735 0.4335735
v -2.002834 0.7600782 0.8671322
v -2.002834 1.511038 -0.433565
v -2.002834 1.511038 0.4335735
v -2.181389 1.511038 -0.433565
v -2.002834 1.511038 0.4335735
v -2.181389 1.511038 0.4335735
v -2.002834 1.511038 -0.433565
v -2.181389 1.511038 0.4335735
v -2.002834 0.7600782 0.8671322
v -2.181389 0.7600782 0.8671322
v -2.002834 1.511038 0.4335735
v -2.181389 0.7600782 0.8671322
v -2.002834 0.009109735 0.4335735
v -2.181389 0.009109735 0.4335735
v -2.002834 0.7600782 0.8671322
v -2.181389 0.009109735 0.4335735
v -2.002834 0.009109735 -0.4335775
v -2.181389 0.009109735 -0.4335775
v -2.002834 0.009109735 0.4335735
v -2.181389 0.009109735 -0.4335775
v -2.002834 0.7600782 -0.8671405
v -2.181389 0.7600782 -0.8671405
v -2.002834 0.009109735 -0.4335775
v -2.181389 0.7600782 -0.8671405
v -2.002834 1.511038 -0.433565
v -2.181389 1.511038 -0.433565
v -2.002834 0.7600782 -0.8671405
vt 0.7338772 0.5301573
vt 0.4914638 0.4904767
vt 0.7338772 0.4904767
vt 0.4914638 0.5301442
vt 0.7338772 0.4905162
vt 0.4914638 0.5301442
vt 0.7338772 0.5301573
vt 0.4914638 0.4905162
vt 0.7338772 0.4508356
vt 0.4914638 0.4905162
vt 0.7338772 0.4905162
vt 0.4914638 0.4508356
vt 0.7338772 0.411155
vt 0.4914638 0.4508356
vt 0.7338772 0.4508356
vt 0.4914638 0.4111814
vt 0.7338772 0.4507962
vt 0.4914638 0.4111156
vt 0.7338772 0.4111156
vt 0.4914638 0.4507962
vt 0.7338772 0.4904767
vt 0.4914638 0.4507962
vt 0.7338772 0.4507962
vt 0.4914638 0.4904767
vt 0.7158992 0.4571661
vt 0.665216 0.364894
vt 0.5638496 0.364894
vt 0.5131927 0.4571661
vt 0.665216 0.5494646
vt 0.5638496 0.5494646
vt 0.5131927 0.4571661
vt 0.5638496 0.364894
vt 0.665216 0.364894
vt 0.7158992 0.4571661
vt 0.5638496 0.5494646
vt 0.665216 0.5494646
vt 0.7354039 0.3562866
vt 0.4944777 0.3041557
vt 0.4944777 0.3562866
vt 0.7353776 0.3041557
vt 0.4944777 0.3562866
vt 0.7354039 0.3041557
vt 0.7354039 0.3562866
vt 0.4944777 0.3041557
vt 0.7354039 0.3562866
vt 0.4944777 0.3041557
vt 0.4944777 0.3562866
vt 0.7354039 0.3041557
vt 0.4944777 0.3562866
vt 0.7354039 0.3041557
vt 0.7354039 0.3562866
vt 0.4944777 0.3041557
vt 0.7354039 0.3562866
vt 0.4944777 0.3041557
vt 0.4944777 0.3562866
vt 0.7354039 0.3041557
vt 0.4944777 0.3562866
vt 0.7354039 0.3041557
vt 0.7354039 0.3562866
vt 0.4944777 0.3041557
vn 0.003921568 0.9999923 -0.000345267
vn 0.003921568 0.9999923 -0.000345267
vn 0.003921568 0.9999923 -0.000345267
vn 0.003921568 0.9999923 -0.000345267
vn 0.01176465 0.4980353 -0.8670769
vn 0.01176465 0.4980353 -0.8670769
vn 0.01176465 0.4980353 -0.8670769
vn 0.01176465 0.4980353 -0.8670769
vn 0.01176465 -0.5137216 -0.8578763
vn 0.01176465 -0.5137216 -0.8578763
vn 0.01176465 -0.5137216 -0.8578763
vn 0.01176465 -0.5137216 -0.8578763
vn 0.003921568 -0.9999924 0
vn 0.003921568 -0.9999924 0
vn 0.003921568 -0.9999924 0
vn 0.003921568 -0.9999924 0
vn 0.01176465 -0.5137216 0.8578763
vn 0.01176465 -0.5137216 0.8578763
vn 0.01176465 -0.5137216 0.8578763
vn 0.01176465 -0.5137216 0.8578763
vn 0.01176465 0.4980353 0.8670769
vn 0.01176465 0.4980353 0.8670769
vn 0.01176465 0.4980353 0.8670769
vn 0.01176465 0.4980353 0.8670769
vn -0.9999923 -0.003921568 -0.0003442513
vn -0.9999923 -0.003921568 -0.0003442513
vn -0.9999923 -0.003921568 -0.0003442513
vn -0.9999923 -0.003921568 -0.0003442513
vn -0.9999923 -0.003921568 -0.0003442513
vn -0.9999923 -0.003921568 -0.0003442513
vn 0.9999924 -0.003921568 0
vn 0.9999924 -0.003921568 0
vn 0.9999924 -0.003921568 0
vn 0.9999924 -0.003921568 0
vn 0.9999924 -0.003921568 0
vn 0.9999924 -0.003921568 0
vn 0.003921568 0.9999923 -0.000345267
vn 0.003921568 0.9999923 -0.000345267
vn 0.003921568 0.9999923 -0.000345267
vn 0.003921568 0.9999923 -0.000345267
vn 0.01176465 0.4980353 0.8670769
vn 0.01176465 0.4980353 0.8670769
vn 0.01176465 0.4980353 0.8670769
vn 0.01176465 0.4980353 0.8670769
vn 0.01176465 -0.5137216 0.8578763
vn 0.01176465 -0.5137216 0.8578763
vn 0.01176465 -0.5137216 0.8578763
vn 0.01176465 -0.5137216 0.8578763
vn 0.003921568 -0.9999924 0
vn 0.003921568 -0.9999924 0
vn 0.003921568 -0.9999924 0
vn 0.003921568 -0.9999924 0
vn 0.01176465 -0.5137216 -0.8578763
vn 0.01176465 -0.5137216 -0.8578763
vn 0.01176465 -0.5137216 -0.8578763
vn 0.01176465 -0.5137216 -0.8578763
vn 0.01176465 0.4980353 -0.8670769
vn 0.01176465 0.4980353 -0.8670769
vn 0.01176465 0.4980353 -0.8670769
vn 0.01176465 0.4980353 -0.8670769
g DSJ_GTA_daoJu_gongYe_04_0
f 3/3/3 2/2/2 1/1/1
f 2/2/2 4/4/4 1/1/1
f 7/7/7 6/6/6 5/5/5
f 6/6/6 8/8/8 5/5/5
f 11/11/11 10/10/10 9/9/9
f 10/10/10 12/12/12 9/9/9
f 15/15/15 14/14/14 13/13/13
f 14/14/14 16/16/16 13/13/13
f 19/19/19 18/18/18 17/17/17
f 18/18/18 20/20/20 17/17/17
f 23/23/23 22/22/22 21/21/21
f 22/22/22 24/24/24 21/21/21
f 27/27/27 26/26/26 25/25/25
f 25/25/25 28/28/28 27/27/27
f 25/25/25 29/29/29 28/28/28
f 29/29/29 30/30/30 28/28/28
f 33/33/33 32/32/32 31/31/31
f 31/31/31 34/34/34 33/33/33
f 31/31/31 35/35/35 34/34/34
f 35/35/35 36/36/36 34/34/34
f 39/39/39 38/38/38 37/37/37
f 38/38/38 40/40/40 37/37/37
f 43/43/43 42/42/42 41/41/41
f 42/42/42 44/44/44 41/41/41
f 47/47/47 46/46/46 45/45/45
f 46/46/46 48/48/48 45/45/45
f 51/51/51 50/50/50 49/49/49
f 50/50/50 52/52/52 49/49/49
f 55/55/55 54/54/54 53/53/53
f 54/54/54 56/56/56 53/53/53
f 59/59/59 58/58/58 57/57/57
f 58/58/58 60/60/60 57/57/57
