g DSJ_GTA_diLou_jianYu_3
v 1.081421 3.880394 56.93359
v 1.463097 3.117035 65.07605
v 1.081421 3.880394 65.07605
v 1.463097 3.117035 56.93359
v 1.208645 -4.134842 56.93359
v 1.208645 2.480904 65.07605
v 1.208645 2.480904 56.93359
v 1.208645 -4.134842 65.07605
v 1.463097 3.117035 56.93359
v 1.463097 3.117035 65.07605
v 1.208645 2.480904 56.93359
v 1.208645 -4.134842 -8.20607
v 1.208645 2.480904 -0.06361389
v 1.208645 2.480904 -8.20607
v 1.208645 -4.134842 -0.06361389
v 1.463097 3.117035 -8.20607
v 1.208645 2.480904 -0.06361389
v 1.463097 3.117035 -0.06361389
v 1.208645 2.480904 -8.20607
v 1.081421 3.880394 -8.20607
v 1.463097 3.117035 -0.06361389
v 1.081421 3.880394 -0.06361389
v 1.463097 3.117035 -8.20607
v 1.208645 -4.134842 -40.7759
v 1.208645 2.480904 -32.63345
v 1.208645 2.480904 -40.7759
v 1.208645 -4.134842 -32.63345
v 1.463097 3.117035 -40.7759
v 1.208645 2.480904 -32.63345
v 1.463097 3.117035 -32.63345
v 1.208645 2.480904 -40.7759
v 1.081421 3.880394 -40.7759
v 1.463097 3.117035 -32.63345
v 1.081421 3.880394 -32.63345
v 1.463097 3.117035 -40.7759
v 1.208645 -4.134842 -32.63345
v 1.208645 2.480904 -24.49099
v 1.208645 2.480904 -32.63345
v 1.208645 -4.134842 -24.49099
v 1.463097 3.117035 -32.63345
v 1.208645 2.480904 -24.49099
v 1.463097 3.117035 -24.49099
v 1.208645 2.480904 -32.63345
v 1.081421 3.880394 -32.63345
v 1.463097 3.117035 -24.49099
v 1.081421 3.880394 -24.49099
v 1.463097 3.117035 -32.63345
v 1.208645 -4.134842 -65.07605
v 1.208645 2.480904 -57.06082
v 1.208645 2.480904 -65.07605
v 1.208645 -4.134842 -57.06082
v 1.463097 3.117035 -65.07605
v 1.208645 2.480904 -57.06082
v 1.463097 3.117035 -57.06082
v 1.208645 2.480904 -65.07605
v 1.081421 3.880394 -65.07605
v 1.463097 3.117035 -57.06082
v 1.081421 3.880394 -57.06082
v 1.463097 3.117035 -65.07605
v 1.208645 -4.134842 24.36376
v 1.208645 2.480904 32.50622
v 1.208645 2.480904 24.36376
v 1.208645 -4.134842 32.50622
v 1.463097 3.117035 24.36376
v 1.208645 2.480904 32.50622
v 1.463097 3.117035 32.50622
v 1.208645 2.480904 24.36376
v 1.081421 3.880394 24.36376
v 1.463097 3.117035 32.50622
v 1.081421 3.880394 32.50622
v 1.463097 3.117035 24.36376
v 1.208645 -4.134842 -0.06361389
v 1.208645 2.480904 8.078842
v 1.208645 2.480904 -0.06361389
v 1.208645 -4.134842 8.078842
v 1.463097 3.117035 -0.06361389
v 1.208645 2.480904 8.078842
v 1.463097 3.117035 8.078842
v 1.208645 2.480904 -0.06361389
v 1.081421 3.880394 -0.06361389
v 1.463097 3.117035 8.078842
v 1.081421 3.880394 8.078842
v 1.463097 3.117035 -0.06361389
v 1.208645 -4.134842 32.50622
v 1.208645 2.480904 40.64867
v 1.208645 2.480904 32.50622
v 1.208645 -4.134842 40.64867
v 1.463097 3.117035 32.50622
v 1.208645 2.480904 40.64867
v 1.463097 3.117035 40.64867
v 1.208645 2.480904 32.50622
v 1.081421 3.880394 32.50622
v 1.463097 3.117035 40.64867
v 1.081421 3.880394 40.64867
v 1.463097 3.117035 32.50622
v 1.208645 -4.134842 48.79114
v 1.208645 2.480904 56.93359
v 1.208645 2.480904 48.79114
v 1.208645 -4.134842 56.93359
v 1.463097 3.117035 48.79114
v 1.208645 2.480904 56.93359
v 1.463097 3.117035 56.93359
v 1.208645 2.480904 48.79114
v 1.081421 3.880394 48.79114
v 1.463097 3.117035 56.93359
v 1.081421 3.880394 56.93359
v 1.463097 3.117035 48.79114
v 1.081421 3.880394 40.64867
v 1.463097 3.117035 48.79114
v 1.081421 3.880394 48.79114
v 1.463097 3.117035 40.64867
v 1.208645 2.480904 40.64867
v 1.463097 3.117035 48.79114
v 1.463097 3.117035 40.64867
v 1.208645 2.480904 48.79114
v 1.208645 -4.134842 40.64867
v 1.208645 2.480904 48.79114
v 1.208645 2.480904 40.64867
v 1.208645 -4.134842 48.79114
v 1.208645 -4.134842 16.22131
v 1.208645 2.480904 24.36376
v 1.208645 2.480904 16.22131
v 1.208645 -4.134842 24.36376
v 1.463097 3.117035 16.22131
v 1.208645 2.480904 24.36376
v 1.463097 3.117035 24.36376
v 1.208645 2.480904 16.22131
v 1.081421 3.880394 16.22131
v 1.463097 3.117035 24.36376
v 1.081421 3.880394 24.36376
v 1.463097 3.117035 16.22131
v 1.081421 3.880394 8.078842
v 1.463097 3.117035 16.22131
v 1.081421 3.880394 16.22131
v 1.463097 3.117035 8.078842
v 1.208645 2.480904 8.078842
v 1.463097 3.117035 16.22131
v 1.463097 3.117035 8.078842
v 1.208645 2.480904 16.22131
v 1.208645 -4.134842 8.078842
v 1.208645 2.480904 16.22131
v 1.208645 2.480904 8.078842
v 1.208645 -4.134842 16.22131
v 1.208645 -4.134842 -16.34853
v 1.208645 2.480904 -8.20607
v 1.208645 2.480904 -16.34853
v 1.208645 -4.134842 -8.20607
v 1.463097 3.117035 -16.34853
v 1.208645 2.480904 -8.20607
v 1.463097 3.117035 -8.20607
v 1.208645 2.480904 -16.34853
v 1.081421 3.880394 -16.34853
v 1.463097 3.117035 -8.20607
v 1.081421 3.880394 -8.20607
v 1.463097 3.117035 -16.34853
v 1.081421 3.880394 -24.49099
v 1.463097 3.117035 -16.34853
v 1.081421 3.880394 -16.34853
v 1.463097 3.117035 -24.49099
v 1.208645 2.480904 -24.49099
v 1.463097 3.117035 -16.34853
v 1.463097 3.117035 -24.49099
v 1.208645 2.480904 -16.34853
v 1.208645 -4.134842 -24.49099
v 1.208645 2.480904 -16.34853
v 1.208645 2.480904 -24.49099
v 1.208645 -4.134842 -16.34853
v 1.208645 -4.134842 -49.04559
v 1.208645 2.480904 -40.7759
v 1.208645 2.480904 -49.04559
v 1.208645 -4.134842 -40.7759
v 1.463097 3.117035 -49.04559
v 1.208645 2.480904 -40.7759
v 1.463097 3.117035 -40.7759
v 1.208645 2.480904 -49.04559
v 1.081421 3.880394 -49.04559
v 1.463097 3.117035 -40.7759
v 1.081421 3.880394 -40.7759
v 1.463097 3.117035 -49.04559
v 1.081421 3.880394 -57.06082
v 1.463097 3.117035 -49.04559
v 1.081421 3.880394 -49.04559
v 1.463097 3.117035 -57.06082
v 1.208645 2.480904 -57.06082
v 1.463097 3.117035 -49.04559
v 1.463097 3.117035 -57.06082
v 1.208645 2.480904 -49.04559
v 1.208645 -4.134842 -57.06082
v 1.208645 2.480904 -49.04559
v 1.208645 2.480904 -57.06082
v 1.208645 -4.134842 -49.04559
v 1.081421 3.880394 -57.06082
v -0.8269653 3.880394 -65.07605
v 1.081421 3.880394 -65.07605
v -0.8269653 3.880394 -57.06082
v 1.081421 3.880394 8.078842
v -0.8269653 3.880394 -0.06361389
v 1.081421 3.880394 -0.06361389
v -0.8269653 3.880394 8.078842
v 1.081421 3.880394 -24.49099
v -0.8269653 3.880394 -32.63345
v 1.081421 3.880394 -32.63345
v -0.8269653 3.880394 -24.49099
v 1.081421 3.880394 -8.20607
v -0.8269653 3.880394 -16.34853
v 1.081421 3.880394 -16.34853
v -0.8269653 3.880394 -8.20607
v 1.081421 3.880394 -40.7759
v -0.8269653 3.880394 -49.04559
v 1.081421 3.880394 -49.04559
v -0.8269653 3.880394 -40.7759
v 1.081421 3.880394 40.64867
v -0.8269653 3.880394 32.50622
v 1.081421 3.880394 32.50622
v -0.8269653 3.880394 40.64867
v 1.081421 3.880394 24.36376
v -0.8269653 3.880394 16.22131
v 1.081421 3.880394 16.22131
v -0.8269653 3.880394 24.36376
v 1.081421 3.880394 56.93359
v -0.8269653 3.880394 48.79114
v 1.081421 3.880394 48.79114
v -0.8269653 3.880394 56.93359
v 1.081421 3.880394 65.07605
v -0.8269653 3.880394 56.93359
v 1.081421 3.880394 56.93359
v -0.8269653 3.880394 65.07605
v 1.081421 3.880394 48.79114
v -0.8269653 3.880394 40.64867
v 1.081421 3.880394 40.64867
v -0.8269653 3.880394 48.79114
v 1.081421 3.880394 32.50622
v -0.8269653 3.880394 24.36376
v 1.081421 3.880394 24.36376
v -0.8269653 3.880394 32.50622
v 1.081421 3.880394 16.22131
v -0.8269653 3.880394 8.078842
v 1.081421 3.880394 8.078842
v -0.8269653 3.880394 16.22131
v 1.081421 3.880394 -0.06361389
v -0.8269653 3.880394 -8.20607
v 1.081421 3.880394 -8.20607
v -0.8269653 3.880394 -0.06361389
v 1.081421 3.880394 -16.34853
v -0.8269653 3.880394 -24.49099
v 1.081421 3.880394 -24.49099
v -0.8269653 3.880394 -16.34853
v 1.081421 3.880394 -32.63345
v -0.8269653 3.880394 -40.7759
v 1.081421 3.880394 -40.7759
v -0.8269653 3.880394 -32.63345
v 1.081421 3.880394 -49.04559
v -0.8269653 3.880394 -57.06082
v 1.081421 3.880394 -57.06082
v -0.8269653 3.880394 -49.04559
v -0.8269653 3.880394 -57.06082
v -1.208649 3.117035 -65.07605
v -0.8269653 3.880394 -65.07605
v -1.208649 3.117035 -57.06082
v -0.9541931 -4.134842 -57.06082
v -0.9541931 2.480904 -65.07605
v -0.9541931 2.480904 -57.06082
v -0.9541931 -4.134842 -65.07605
v -1.208649 3.117035 -57.06082
v -1.208649 3.117035 -65.07605
v -0.9541931 2.480904 -57.06082
v -0.9541931 -4.134842 8.078842
v -0.9541931 2.480904 -0.06361389
v -0.9541931 2.480904 8.078842
v -0.9541931 -4.134842 -0.06361389
v -1.208649 3.117035 8.078842
v -0.9541931 2.480904 -0.06361389
v -1.208649 3.117035 -0.06361389
v -0.9541931 2.480904 8.078842
v -0.8269653 3.880394 8.078842
v -1.208649 3.117035 -0.06361389
v -0.8269653 3.880394 -0.06361389
v -1.208649 3.117035 8.078842
v -0.9541931 -4.134842 40.64867
v -0.9541931 2.480904 32.50622
v -0.9541931 2.480904 40.64867
v -0.9541931 -4.134842 32.50622
v -1.208649 3.117035 40.64867
v -0.9541931 2.480904 32.50622
v -1.208649 3.117035 32.50622
v -0.9541931 2.480904 40.64867
v -0.8269653 3.880394 40.64867
v -1.208649 3.117035 32.50622
v -0.8269653 3.880394 32.50622
v -1.208649 3.117035 40.64867
v -0.9541931 -4.134842 32.50622
v -0.9541931 2.480904 24.36376
v -0.9541931 2.480904 32.50622
v -0.9541931 -4.134842 24.36376
v -1.208649 3.117035 32.50622
v -0.9541931 2.480904 24.36376
v -1.208649 3.117035 24.36376
v -0.9541931 2.480904 32.50622
v -0.8269653 3.880394 32.50622
v -1.208649 3.117035 24.36376
v -0.8269653 3.880394 24.36376
v -1.208649 3.117035 32.50622
v -0.9541931 -4.134842 65.07605
v -0.9541931 2.480904 56.93359
v -0.9541931 2.480904 65.07605
v -0.9541931 -4.134842 56.93359
v -1.208649 3.117035 65.07605
v -0.9541931 2.480904 56.93359
v -1.208649 3.117035 56.93359
v -0.9541931 2.480904 65.07605
v -0.8269653 3.880394 65.07605
v -1.208649 3.117035 56.93359
v -0.8269653 3.880394 56.93359
v -1.208649 3.117035 65.07605
v -0.9541931 -4.134842 -24.49099
v -0.9541931 2.480904 -32.63345
v -0.9541931 2.480904 -24.49099
v -0.9541931 -4.134842 -32.63345
v -1.208649 3.117035 -24.49099
v -0.9541931 2.480904 -32.63345
v -1.208649 3.117035 -32.63345
v -0.9541931 2.480904 -24.49099
v -0.8269653 3.880394 -24.49099
v -1.208649 3.117035 -32.63345
v -0.8269653 3.880394 -32.63345
v -1.208649 3.117035 -24.49099
v -0.9541931 -4.134842 -0.06361389
v -0.9541931 2.480904 -8.20607
v -0.9541931 2.480904 -0.06361389
v -0.9541931 -4.134842 -8.20607
v -1.208649 3.117035 -0.06361389
v -0.9541931 2.480904 -8.20607
v -1.208649 3.117035 -8.20607
v -0.9541931 2.480904 -0.06361389
v -0.8269653 3.880394 -0.06361389
v -1.208649 3.117035 -8.20607
v -0.8269653 3.880394 -8.20607
v -1.208649 3.117035 -0.06361389
v -0.9541931 -4.134842 -32.63345
v -0.9541931 2.480904 -40.7759
v -0.9541931 2.480904 -32.63345
v -0.9541931 -4.134842 -40.7759
v -1.208649 3.117035 -32.63345
v -0.9541931 2.480904 -40.7759
v -1.208649 3.117035 -40.7759
v -0.9541931 2.480904 -32.63345
v -0.8269653 3.880394 -32.63345
v -1.208649 3.117035 -40.7759
v -0.8269653 3.880394 -40.7759
v -1.208649 3.117035 -32.63345
v -0.9541931 -4.134842 -49.04559
v -0.9541931 2.480904 -57.06082
v -0.9541931 2.480904 -49.04559
v -0.9541931 -4.134842 -57.06082
v -1.208649 3.117035 -49.04559
v -0.9541931 2.480904 -57.06082
v -1.208649 3.117035 -57.06082
v -0.9541931 2.480904 -49.04559
v -0.8269653 3.880394 -49.04559
v -1.208649 3.117035 -57.06082
v -0.8269653 3.880394 -57.06082
v -1.208649 3.117035 -49.04559
v -0.8269653 3.880394 -40.7759
v -1.208649 3.117035 -49.04559
v -0.8269653 3.880394 -49.04559
v -1.208649 3.117035 -40.7759
v -0.9541931 2.480904 -40.7759
v -1.208649 3.117035 -49.04559
v -1.208649 3.117035 -40.7759
v -0.9541931 2.480904 -49.04559
v -0.9541931 -4.134842 -40.7759
v -0.9541931 2.480904 -49.04559
v -0.9541931 2.480904 -40.7759
v -0.9541931 -4.134842 -49.04559
v -0.9541931 -4.134842 -16.34853
v -0.9541931 2.480904 -24.49099
v -0.9541931 2.480904 -16.34853
v -0.9541931 -4.134842 -24.49099
v -1.208649 3.117035 -16.34853
v -0.9541931 2.480904 -24.49099
v -1.208649 3.117035 -24.49099
v -0.9541931 2.480904 -16.34853
v -0.8269653 3.880394 -16.34853
v -1.208649 3.117035 -24.49099
v -0.8269653 3.880394 -24.49099
v -1.208649 3.117035 -16.34853
v -0.8269653 3.880394 -8.20607
v -1.208649 3.117035 -16.34853
v -0.8269653 3.880394 -16.34853
v -1.208649 3.117035 -8.20607
v -0.9541931 2.480904 -8.20607
v -1.208649 3.117035 -16.34853
v -1.208649 3.117035 -8.20607
v -0.9541931 2.480904 -16.34853
v -0.9541931 -4.134842 -8.20607
v -0.9541931 2.480904 -16.34853
v -0.9541931 2.480904 -8.20607
v -0.9541931 -4.134842 -16.34853
v -0.9541931 -4.134842 16.22131
v -0.9541931 2.480904 8.078842
v -0.9541931 2.480904 16.22131
v -0.9541931 -4.134842 8.078842
v -1.208649 3.117035 16.22131
v -0.9541931 2.480904 8.078842
v -1.208649 3.117035 8.078842
v -0.9541931 2.480904 16.22131
v -0.8269653 3.880394 16.22131
v -1.208649 3.117035 8.078842
v -0.8269653 3.880394 8.078842
v -1.208649 3.117035 16.22131
v -0.8269653 3.880394 24.36376
v -1.208649 3.117035 16.22131
v -0.8269653 3.880394 16.22131
v -1.208649 3.117035 24.36376
v -0.9541931 2.480904 24.36376
v -1.208649 3.117035 16.22131
v -1.208649 3.117035 24.36376
v -0.9541931 2.480904 16.22131
v -0.9541931 -4.134842 24.36376
v -0.9541931 2.480904 16.22131
v -0.9541931 2.480904 24.36376
v -0.9541931 -4.134842 16.22131
v -0.9541931 -4.134842 48.79114
v -0.9541931 2.480904 40.64867
v -0.9541931 2.480904 48.79114
v -0.9541931 -4.134842 40.64867
v -1.208649 3.117035 48.79114
v -0.9541931 2.480904 40.64867
v -1.208649 3.117035 40.64867
v -0.9541931 2.480904 48.79114
v -0.8269653 3.880394 48.79114
v -1.208649 3.117035 40.64867
v -0.8269653 3.880394 40.64867
v -1.208649 3.117035 48.79114
v -0.8269653 3.880394 56.93359
v -1.208649 3.117035 48.79114
v -0.8269653 3.880394 48.79114
v -1.208649 3.117035 56.93359
v -0.9541931 2.480904 56.93359
v -1.208649 3.117035 48.79114
v -1.208649 3.117035 56.93359
v -0.9541931 2.480904 48.79114
v -0.9541931 -4.134842 56.93359
v -0.9541931 2.480904 48.79114
v -0.9541931 2.480904 56.93359
v -0.9541931 -4.134842 48.79114
vt 0.2477849 0.7427624
vt 0.4952737 0.7199173
vt 0.4952737 0.7427624
vt 0.2477849 0.7199173
vt 0.2477849 0.4952737
vt 0.4952737 0.7008797
vt 0.2477849 0.7008797
vt 0.4952737 0.4952737
vt 0.2477849 0.7199173
vt 0.4952737 0.7199173
vt 0.2477849 0.7008797
vt 0.2477849 0.4952737
vt 0.4952737 0.7008797
vt 0.2477849 0.7008797
vt 0.4952737 0.4952737
vt 0.2477849 0.7199173
vt 0.4952737 0.7008797
vt 0.4952737 0.7199173
vt 0.2477849 0.7008797
vt 0.2477849 0.7427624
vt 0.4952737 0.7199173
vt 0.4952737 0.7427624
vt 0.2477849 0.7199173
vt 0.2477849 0.4952737
vt 0.4952737 0.7008797
vt 0.2477849 0.7008797
vt 0.4952737 0.4952737
vt 0.2477849 0.7199173
vt 0.4952737 0.7008797
vt 0.4952737 0.7199173
vt 0.2477849 0.7008797
vt 0.2477849 0.7427624
vt 0.4952737 0.7199173
vt 0.4952737 0.7427624
vt 0.2477849 0.7199173
vt 0.4952737 0.4952737
vt 0.2477849 0.7008797
vt 0.4952737 0.7008797
vt 0.2477849 0.4952737
vt 0.4952737 0.7199173
vt 0.2477849 0.7008797
vt 0.2477849 0.7199173
vt 0.4952737 0.7008797
vt 0.4952737 0.7427624
vt 0.2477849 0.7199173
vt 0.2477849 0.7427624
vt 0.4952737 0.7199173
vt 0.4952737 0.4952737
vt 0.2477849 0.7008797
vt 0.4952737 0.7008797
vt 0.2477849 0.4952737
vt 0.4952737 0.7199173
vt 0.2477849 0.7008797
vt 0.2477849 0.7199173
vt 0.4952737 0.7008797
vt 0.4952737 0.7427624
vt 0.2477849 0.7199173
vt 0.2477849 0.7427624
vt 0.4952737 0.7199173
vt 0.2477849 0.4952737
vt 0.4952737 0.7008797
vt 0.2477849 0.7008797
vt 0.4952737 0.4952737
vt 0.2477849 0.7199173
vt 0.4952737 0.7008797
vt 0.4952737 0.7199173
vt 0.2477849 0.7008797
vt 0.2477849 0.7427624
vt 0.4952737 0.7199173
vt 0.4952737 0.7427624
vt 0.2477849 0.7199173
vt 0.4952737 0.4952737
vt 0.2477849 0.7008797
vt 0.4952737 0.7008797
vt 0.2477849 0.4952737
vt 0.4952737 0.7199173
vt 0.2477849 0.7008797
vt 0.2477849 0.7199173
vt 0.4952737 0.7008797
vt 0.4952737 0.7427624
vt 0.2477849 0.7199173
vt 0.2477849 0.7427624
vt 0.4952737 0.7199173
vt 0.4952737 0.4952737
vt 0.2477849 0.7008797
vt 0.4952737 0.7008797
vt 0.2477849 0.4952737
vt 0.4952737 0.7199173
vt 0.2477849 0.7008797
vt 0.2477849 0.7199173
vt 0.4952737 0.7008797
vt 0.4952737 0.7427624
vt 0.2477849 0.7199173
vt 0.2477849 0.7427624
vt 0.4952737 0.7199173
vt 0.4952737 0.4952737
vt 0.2477849 0.7008797
vt 0.4952737 0.7008797
vt 0.2477849 0.4952737
vt 0.4952737 0.7199173
vt 0.2477849 0.7008797
vt 0.2477849 0.7199173
vt 0.4952737 0.7008797
vt 0.4952737 0.7427624
vt 0.2477849 0.7199173
vt 0.2477849 0.7427624
vt 0.4952737 0.7199173
vt 0.2477849 0.7427624
vt 0.4952737 0.7199173
vt 0.4952737 0.7427624
vt 0.2477849 0.7199173
vt 0.2477849 0.7008797
vt 0.4952737 0.7199173
vt 0.2477849 0.7199173
vt 0.4952737 0.7008797
vt 0.2477849 0.4952737
vt 0.4952737 0.7008797
vt 0.2477849 0.7008797
vt 0.4952737 0.4952737
vt 0.4952737 0.4952737
vt 0.2477849 0.7008797
vt 0.4952737 0.7008797
vt 0.2477849 0.4952737
vt 0.4952737 0.7199173
vt 0.2477849 0.7008797
vt 0.2477849 0.7199173
vt 0.4952737 0.7008797
vt 0.4952737 0.7427624
vt 0.2477849 0.7199173
vt 0.2477849 0.7427624
vt 0.4952737 0.7199173
vt 0.2477849 0.7427624
vt 0.4952737 0.7199173
vt 0.4952737 0.7427624
vt 0.2477849 0.7199173
vt 0.2477849 0.7008797
vt 0.4952737 0.7199173
vt 0.2477849 0.7199173
vt 0.4952737 0.7008797
vt 0.2477849 0.4952737
vt 0.4952737 0.7008797
vt 0.2477849 0.7008797
vt 0.4952737 0.4952737
vt 0.4952737 0.4952737
vt 0.2477849 0.7008797
vt 0.4952737 0.7008797
vt 0.2477849 0.4952737
vt 0.4952737 0.7199173
vt 0.2477849 0.7008797
vt 0.2477849 0.7199173
vt 0.4952737 0.7008797
vt 0.4952737 0.7427624
vt 0.2477849 0.7199173
vt 0.2477849 0.7427624
vt 0.4952737 0.7199173
vt 0.2477849 0.7427624
vt 0.4952737 0.7199173
vt 0.4952737 0.7427624
vt 0.2477849 0.7199173
vt 0.2477849 0.7008797
vt 0.4952737 0.7199173
vt 0.2477849 0.7199173
vt 0.4952737 0.7008797
vt 0.2477849 0.4952737
vt 0.4952737 0.7008797
vt 0.2477849 0.7008797
vt 0.4952737 0.4952737
vt 0.4952737 0.4952737
vt 0.2477849 0.7008797
vt 0.4952737 0.7008797
vt 0.2477849 0.4952737
vt 0.4952737 0.7199173
vt 0.2477849 0.7008797
vt 0.2477849 0.7199173
vt 0.4952737 0.7008797
vt 0.4952737 0.7427624
vt 0.2477849 0.7199173
vt 0.2477849 0.7427624
vt 0.4952737 0.7199173
vt 0.2477849 0.7427624
vt 0.4952737 0.7199173
vt 0.4952737 0.7427624
vt 0.2477849 0.7199173
vt 0.2477849 0.7008797
vt 0.4952737 0.7199173
vt 0.2477849 0.7199173
vt 0.4952737 0.7008797
vt 0.2477849 0.4952737
vt 0.4952737 0.7008797
vt 0.2477849 0.7008797
vt 0.4952737 0.4952737
vt 0.2515925 0.5828466
vt 0.4876586 0.6437669
vt 0.4876586 0.5828466
vt 0.2515925 0.6437669
vt 0.2515925 0.5828466
vt 0.4876586 0.6437669
vt 0.4876586 0.5828466
vt 0.2515925 0.6437669
vt 0.2515925 0.5828466
vt 0.4876586 0.6437669
vt 0.4876586 0.5828466
vt 0.2515925 0.6437669
vt 0.2515925 0.5828466
vt 0.4876586 0.6437669
vt 0.4876586 0.5828466
vt 0.2515925 0.6437669
vt 0.2515925 0.5828466
vt 0.4876586 0.6437669
vt 0.4876586 0.5828466
vt 0.2515925 0.6437669
vt 0.2515925 0.5828466
vt 0.4876586 0.6437669
vt 0.4876586 0.5828466
vt 0.2515925 0.6437669
vt 0.2515925 0.5828466
vt 0.4876586 0.6437669
vt 0.4876586 0.5828466
vt 0.2515925 0.6437669
vt 0.2515925 0.5828466
vt 0.4876586 0.6437669
vt 0.4876586 0.5828466
vt 0.2515925 0.6437669
vt 0.2515925 0.5828466
vt 0.4876586 0.6437669
vt 0.4876586 0.5828466
vt 0.2515925 0.6437669
vt 0.2515925 0.5828466
vt 0.4876586 0.6437669
vt 0.4876586 0.5828466
vt 0.2515925 0.6437669
vt 0.2515925 0.5828466
vt 0.4876586 0.6437669
vt 0.4876586 0.5828466
vt 0.2515925 0.6437669
vt 0.2515925 0.5828466
vt 0.4876586 0.6437669
vt 0.4876586 0.5828466
vt 0.2515925 0.6437669
vt 0.2515925 0.5828466
vt 0.4876586 0.6437669
vt 0.4876586 0.5828466
vt 0.2515925 0.6437669
vt 0.2515925 0.5828466
vt 0.4876586 0.6437669
vt 0.4876586 0.5828466
vt 0.2515925 0.6437669
vt 0.2515925 0.5828466
vt 0.4876586 0.6437669
vt 0.4876586 0.5828466
vt 0.2515925 0.6437669
vt 0.2515925 0.5828466
vt 0.4876586 0.6437669
vt 0.4876586 0.5828466
vt 0.2515925 0.6437669
vt 0.2477849 0.7427624
vt 0.4952737 0.7199173
vt 0.4952737 0.7427624
vt 0.2477849 0.7199173
vt 0.2477849 0.4952737
vt 0.4952737 0.7008797
vt 0.2477849 0.7008797
vt 0.4952737 0.4952737
vt 0.2477849 0.7199173
vt 0.4952737 0.7199173
vt 0.2477849 0.7008797
vt 0.2477849 0.4952737
vt 0.4952737 0.7008797
vt 0.2477849 0.7008797
vt 0.4952737 0.4952737
vt 0.2477849 0.7199173
vt 0.4952737 0.7008797
vt 0.4952737 0.7199173
vt 0.2477849 0.7008797
vt 0.2477849 0.7427624
vt 0.4952737 0.7199173
vt 0.4952737 0.7427624
vt 0.2477849 0.7199173
vt 0.2477849 0.4952737
vt 0.4952737 0.7008797
vt 0.2477849 0.7008797
vt 0.4952737 0.4952737
vt 0.2477849 0.7199173
vt 0.4952737 0.7008797
vt 0.4952737 0.7199173
vt 0.2477849 0.7008797
vt 0.2477849 0.7427624
vt 0.4952737 0.7199173
vt 0.4952737 0.7427624
vt 0.2477849 0.7199173
vt 0.4952737 0.4952737
vt 0.2477849 0.7008797
vt 0.4952737 0.7008797
vt 0.2477849 0.4952737
vt 0.4952737 0.7199173
vt 0.2477849 0.7008797
vt 0.2477849 0.7199173
vt 0.4952737 0.7008797
vt 0.4952737 0.7427624
vt 0.2477849 0.7199173
vt 0.2477849 0.7427624
vt 0.4952737 0.7199173
vt 0.4952737 0.4952737
vt 0.2477849 0.7008797
vt 0.4952737 0.7008797
vt 0.2477849 0.4952737
vt 0.4952737 0.7199173
vt 0.2477849 0.7008797
vt 0.2477849 0.7199173
vt 0.4952737 0.7008797
vt 0.4952737 0.7427624
vt 0.2477849 0.7199173
vt 0.2477849 0.7427624
vt 0.4952737 0.7199173
vt 0.2477849 0.4952737
vt 0.4952737 0.7008797
vt 0.2477849 0.7008797
vt 0.4952737 0.4952737
vt 0.2477849 0.7199173
vt 0.4952737 0.7008797
vt 0.4952737 0.7199173
vt 0.2477849 0.7008797
vt 0.2477849 0.7427624
vt 0.4952737 0.7199173
vt 0.4952737 0.7427624
vt 0.2477849 0.7199173
vt 0.4952737 0.4952737
vt 0.2477849 0.7008797
vt 0.4952737 0.7008797
vt 0.2477849 0.4952737
vt 0.4952737 0.7199173
vt 0.2477849 0.7008797
vt 0.2477849 0.7199173
vt 0.4952737 0.7008797
vt 0.4952737 0.7427624
vt 0.2477849 0.7199173
vt 0.2477849 0.7427624
vt 0.4952737 0.7199173
vt 0.4952737 0.4952737
vt 0.2477849 0.7008797
vt 0.4952737 0.7008797
vt 0.2477849 0.4952737
vt 0.4952737 0.7199173
vt 0.2477849 0.7008797
vt 0.2477849 0.7199173
vt 0.4952737 0.7008797
vt 0.4952737 0.7427624
vt 0.2477849 0.7199173
vt 0.2477849 0.7427624
vt 0.4952737 0.7199173
vt 0.4952737 0.4952737
vt 0.2477849 0.7008797
vt 0.4952737 0.7008797
vt 0.2477849 0.4952737
vt 0.4952737 0.7199173
vt 0.2477849 0.7008797
vt 0.2477849 0.7199173
vt 0.4952737 0.7008797
vt 0.4952737 0.7427624
vt 0.2477849 0.7199173
vt 0.2477849 0.7427624
vt 0.4952737 0.7199173
vt 0.2477849 0.7427624
vt 0.4952737 0.7199173
vt 0.4952737 0.7427624
vt 0.2477849 0.7199173
vt 0.2477849 0.7008797
vt 0.4952737 0.7199173
vt 0.2477849 0.7199173
vt 0.4952737 0.7008797
vt 0.2477849 0.4952737
vt 0.4952737 0.7008797
vt 0.2477849 0.7008797
vt 0.4952737 0.4952737
vt 0.4952737 0.4952737
vt 0.2477849 0.7008797
vt 0.4952737 0.7008797
vt 0.2477849 0.4952737
vt 0.4952737 0.7199173
vt 0.2477849 0.7008797
vt 0.2477849 0.7199173
vt 0.4952737 0.7008797
vt 0.4952737 0.7427624
vt 0.2477849 0.7199173
vt 0.2477849 0.7427624
vt 0.4952737 0.7199173
vt 0.2477849 0.7427624
vt 0.4952737 0.7199173
vt 0.4952737 0.7427624
vt 0.2477849 0.7199173
vt 0.2477849 0.7008797
vt 0.4952737 0.7199173
vt 0.2477849 0.7199173
vt 0.4952737 0.7008797
vt 0.2477849 0.4952737
vt 0.4952737 0.7008797
vt 0.2477849 0.7008797
vt 0.4952737 0.4952737
vt 0.4952737 0.4952737
vt 0.2477849 0.7008797
vt 0.4952737 0.7008797
vt 0.2477849 0.4952737
vt 0.4952737 0.7199173
vt 0.2477849 0.7008797
vt 0.2477849 0.7199173
vt 0.4952737 0.7008797
vt 0.4952737 0.7427624
vt 0.2477849 0.7199173
vt 0.2477849 0.7427624
vt 0.4952737 0.7199173
vt 0.2477849 0.7427624
vt 0.4952737 0.7199173
vt 0.4952737 0.7427624
vt 0.2477849 0.7199173
vt 0.2477849 0.7008797
vt 0.4952737 0.7199173
vt 0.2477849 0.7199173
vt 0.4952737 0.7008797
vt 0.2477849 0.4952737
vt 0.4952737 0.7008797
vt 0.2477849 0.7008797
vt 0.4952737 0.4952737
vt 0.4952737 0.4952737
vt 0.2477849 0.7008797
vt 0.4952737 0.7008797
vt 0.2477849 0.4952737
vt 0.4952737 0.7199173
vt 0.2477849 0.7008797
vt 0.2477849 0.7199173
vt 0.4952737 0.7008797
vt 0.4952737 0.7427624
vt 0.2477849 0.7199173
vt 0.2477849 0.7427624
vt 0.4952737 0.7199173
vt 0.2477849 0.7427624
vt 0.4952737 0.7199173
vt 0.4952737 0.7427624
vt 0.2477849 0.7199173
vt 0.2477849 0.7008797
vt 0.4952737 0.7199173
vt 0.2477849 0.7199173
vt 0.4952737 0.7008797
vt 0.2477849 0.4952737
vt 0.4952737 0.7008797
vt 0.2477849 0.7008797
vt 0.4952737 0.4952737
vn 0.9037378 0.4280864 0
vn 0.9037378 0.4280864 0
vn 0.9037378 0.4280864 0
vn 0.9037378 0.4280864 0
vn 0.999874 -0.01587099 -0.000346655
vn 0.9632913 -0.2684582 0
vn 0.999874 -0.01587099 -0.000346655
vn 0.999874 -0.01587099 -0.000346655
vn 0.8784839 -0.4777719 0
vn 0.8784839 -0.4777719 0
vn 0.8784839 -0.4777719 0
vn 0.999874 -0.01587099 -0.000346655
vn 0.999874 -0.01587099 -0.000346655
vn 0.999874 -0.01587099 -0.000346655
vn 0.999874 -0.01587099 -0.000346655
vn 0.8784839 -0.4777719 0
vn 0.8784839 -0.4777719 0
vn 0.8784839 -0.4777719 0
vn 0.8784839 -0.4777719 0
vn 0.9037378 0.4280864 0
vn 0.9037378 0.4280864 0
vn 0.9037378 0.4280864 0
vn 0.9037378 0.4280864 0
vn 0.999874 -0.01587099 -0.000346655
vn 0.999874 -0.01587099 -0.000346655
vn 0.999874 -0.01587099 -0.000346655
vn 0.999874 -0.01587099 -0.000346655
vn 0.8784839 -0.4777719 0
vn 0.8784839 -0.4777719 0
vn 0.8784839 -0.4777719 0
vn 0.8784839 -0.4777719 0
vn 0.9037378 0.4280864 0
vn 0.9037378 0.4280864 0
vn 0.9037378 0.4280864 0
vn 0.9037378 0.4280864 0
vn 0.999874 -0.01587099 -0.000346655
vn 0.999874 -0.01587099 -0.000346655
vn 0.999874 -0.01587099 -0.000346655
vn 0.999874 -0.01587099 -0.000346655
vn 0.8784839 -0.4777719 0
vn 0.8784839 -0.4777719 0
vn 0.8784839 -0.4777719 0
vn 0.8784839 -0.4777719 0
vn 0.9037378 0.4280864 0
vn 0.9037378 0.4280864 0
vn 0.9037378 0.4280864 0
vn 0.9037378 0.4280864 0
vn 0.999874 -0.01587099 -0.000346655
vn 0.999874 -0.01587099 -0.000346655
vn 0.999874 -0.01587099 -0.000346655
vn 0.999874 -0.01587099 -0.000346655
vn 0.8784839 -0.4777719 0
vn 0.8784839 -0.4777719 0
vn 0.8784839 -0.4777719 0
vn 0.8784839 -0.4777719 0
vn 0.9037378 0.4280864 0
vn 0.9037378 0.4280864 0
vn 0.9037378 0.4280864 0
vn 0.9037378 0.4280864 0
vn 0.999874 -0.01587099 -0.000346655
vn 0.999874 -0.01587099 -0.000346655
vn 0.999874 -0.01587099 -0.000346655
vn 0.999874 -0.01587099 -0.000346655
vn 0.8784839 -0.4777719 0
vn 0.8784839 -0.4777719 0
vn 0.8784839 -0.4777719 0
vn 0.8784839 -0.4777719 0
vn 0.9037378 0.4280864 0
vn 0.9037378 0.4280864 0
vn 0.9037378 0.4280864 0
vn 0.9037378 0.4280864 0
vn 0.999874 -0.01587099 -0.000346655
vn 0.999874 -0.01587099 -0.000346655
vn 0.999874 -0.01587099 -0.000346655
vn 0.999874 -0.01587099 -0.000346655
vn 0.8784839 -0.4777719 0
vn 0.8784839 -0.4777719 0
vn 0.8784839 -0.4777719 0
vn 0.8784839 -0.4777719 0
vn 0.9037378 0.4280864 0
vn 0.9037378 0.4280864 0
vn 0.9037378 0.4280864 0
vn 0.9037378 0.4280864 0
vn 0.999874 -0.01587099 -0.000346655
vn 0.999874 -0.01587099 -0.000346655
vn 0.999874 -0.01587099 -0.000346655
vn 0.999874 -0.01587099 -0.000346655
vn 0.8784839 -0.4777719 0
vn 0.8784839 -0.4777719 0
vn 0.8784839 -0.4777719 0
vn 0.8784839 -0.4777719 0
vn 0.9037378 0.4280864 0
vn 0.9037378 0.4280864 0
vn 0.9037378 0.4280864 0
vn 0.9037378 0.4280864 0
vn 0.999874 -0.01587099 -0.000346655
vn 0.999874 -0.01587099 -0.000346655
vn 0.999874 -0.01587099 -0.000346655
vn 0.999874 -0.01587099 -0.000346655
vn 0.8784839 -0.4777719 0
vn 0.8784839 -0.4777719 0
vn 0.8784839 -0.4777719 0
vn 0.8784839 -0.4777719 0
vn 0.9037378 0.4280864 0
vn 0.9037378 0.4280864 0
vn 0.9037378 0.4280864 0
vn 0.9037378 0.4280864 0
vn 0.9037378 0.4280864 0
vn 0.9037378 0.4280864 0
vn 0.9037378 0.4280864 0
vn 0.9037378 0.4280864 0
vn 0.8784839 -0.4777719 0
vn 0.8784839 -0.4777719 0
vn 0.8784839 -0.4777719 0
vn 0.8784839 -0.4777719 0
vn 0.999874 -0.01587099 -0.000346655
vn 0.999874 -0.01587099 -0.000346655
vn 0.999874 -0.01587099 -0.000346655
vn 0.999874 -0.01587099 -0.000346655
vn 0.999874 -0.01587099 -0.000346655
vn 0.999874 -0.01587099 -0.000346655
vn 0.999874 -0.01587099 -0.000346655
vn 0.999874 -0.01587099 -0.000346655
vn 0.8784839 -0.4777719 0
vn 0.8784839 -0.4777719 0
vn 0.8784839 -0.4777719 0
vn 0.8784839 -0.4777719 0
vn 0.9037378 0.4280864 0
vn 0.9037378 0.4280864 0
vn 0.9037378 0.4280864 0
vn 0.9037378 0.4280864 0
vn 0.9037378 0.4280864 0
vn 0.9037378 0.4280864 0
vn 0.9037378 0.4280864 0
vn 0.9037378 0.4280864 0
vn 0.8784839 -0.4777719 0
vn 0.8784839 -0.4777719 0
vn 0.8784839 -0.4777719 0
vn 0.8784839 -0.4777719 0
vn 0.999874 -0.01587099 -0.000346655
vn 0.999874 -0.01587099 -0.000346655
vn 0.999874 -0.01587099 -0.000346655
vn 0.999874 -0.01587099 -0.000346655
vn 0.999874 -0.01587099 -0.000346655
vn 0.999874 -0.01587099 -0.000346655
vn 0.999874 -0.01587099 -0.000346655
vn 0.999874 -0.01587099 -0.000346655
vn 0.8784839 -0.4777719 0
vn 0.8784839 -0.4777719 0
vn 0.8784839 -0.4777719 0
vn 0.8784839 -0.4777719 0
vn 0.9037378 0.4280864 0
vn 0.9037378 0.4280864 0
vn 0.9037378 0.4280864 0
vn 0.9037378 0.4280864 0
vn 0.9037378 0.4280864 0
vn 0.9037378 0.4280864 0
vn 0.9037378 0.4280864 0
vn 0.9037378 0.4280864 0
vn 0.8784839 -0.4777719 0
vn 0.8784839 -0.4777719 0
vn 0.8784839 -0.4777719 0
vn 0.8784839 -0.4777719 0
vn 0.999874 -0.01587099 -0.000346655
vn 0.999874 -0.01587099 -0.000346655
vn 0.999874 -0.01587099 -0.000346655
vn 0.999874 -0.01587099 -0.000346655
vn 0.999874 -0.01587099 -0.000346655
vn 0.999874 -0.01587099 -0.000346655
vn 0.999874 -0.01587099 -0.000346655
vn 0.999874 -0.01587099 -0.000346655
vn 0.8784839 -0.4777719 0
vn 0.8784839 -0.4777719 0
vn 0.8784839 -0.4777719 0
vn 0.8784839 -0.4777719 0
vn 0.9037378 0.4280864 0
vn 0.9037378 0.4280864 0
vn 0.9037378 0.4280864 0
vn 0.9037378 0.4280864 0
vn 0.9037378 0.4280864 0
vn 0.9037378 0.4280864 0
vn 0.9037378 0.4280864 0
vn 0.9037378 0.4280864 0
vn 0.8784839 -0.4777719 0
vn 0.8784839 -0.4777719 0
vn 0.8784839 -0.4777719 0
vn 0.8784839 -0.4777719 0
vn 0.999874 -0.01587099 -0.000346655
vn 0.999874 -0.01587099 -0.000346655
vn 0.999874 -0.01587099 -0.000346655
vn 0.999874 -0.01587099 -0.000346655
vn 0.01587099 0.999874 -0.000345267
vn 0.01587099 0.999874 -0.000345267
vn 0.01587099 0.999874 -0.000345267
vn 0.01587099 0.999874 -0.000345267
vn 0.01587099 0.999874 -0.000345267
vn 0.01587099 0.999874 -0.000345267
vn 0.01587099 0.999874 -0.000345267
vn 0.01587099 0.999874 -0.000345267
vn 0.01587099 0.999874 -0.000345267
vn 0.01587099 0.999874 -0.000345267
vn 0.01587099 0.999874 -0.000345267
vn 0.01587099 0.999874 -0.000345267
vn 0.01587099 0.999874 -0.000345267
vn 0.01587099 0.999874 -0.000345267
vn 0.01587099 0.999874 -0.000345267
vn 0.01587099 0.999874 -0.000345267
vn 0.01587099 0.999874 -0.000345267
vn 0.01587099 0.999874 -0.000345267
vn 0.01587099 0.999874 -0.000345267
vn 0.01587099 0.999874 -0.000345267
vn 0.01587099 0.999874 -0.000345267
vn 0.01587099 0.999874 -0.000345267
vn 0.01587099 0.999874 -0.000345267
vn 0.01587099 0.999874 -0.000345267
vn 0.01587099 0.999874 -0.000345267
vn 0.01587099 0.999874 -0.000345267
vn 0.01587099 0.999874 -0.000345267
vn 0.01587099 0.999874 -0.000345267
vn 0.01587099 0.999874 -0.000345267
vn 0.01587099 0.999874 -0.000345267
vn 0.01587099 0.999874 -0.000345267
vn 0.01587099 0.999874 -0.000345267
vn 0.01587099 0.999874 -0.000345267
vn 0.01587099 0.999874 -0.000345267
vn 0.01587099 0.999874 -0.000345267
vn 0.01587099 0.999874 -0.000345267
vn 0.01587099 0.999874 -0.000345267
vn 0.01587099 0.999874 -0.000345267
vn 0.01587099 0.999874 -0.000345267
vn 0.01587099 0.999874 -0.000345267
vn 0.01587099 0.999874 -0.000345267
vn 0.01587099 0.999874 -0.000345267
vn 0.01587099 0.999874 -0.000345267
vn 0.01587099 0.999874 -0.000345267
vn 0.01587099 0.999874 -0.000345267
vn 0.01587099 0.999874 -0.000345267
vn 0.01587099 0.999874 -0.000345267
vn 0.01587099 0.999874 -0.000345267
vn 0.01587099 0.999874 -0.000345267
vn 0.01587099 0.999874 -0.000345267
vn 0.01587099 0.999874 -0.000345267
vn 0.01587099 0.999874 -0.000345267
vn 0.01587099 0.999874 -0.000345267
vn 0.01587099 0.999874 -0.000345267
vn 0.01587099 0.999874 -0.000345267
vn 0.01587099 0.999874 -0.000345267
vn 0.01587099 0.999874 -0.000345267
vn 0.01587099 0.999874 -0.000345267
vn 0.01587099 0.999874 -0.000345267
vn 0.01587099 0.999874 -0.000345267
vn 0.01587099 0.999874 -0.000345267
vn 0.01587099 0.999874 -0.000345267
vn 0.01587099 0.999874 -0.000345267
vn 0.01587099 0.999874 -0.000345267
vn -0.8729059 0.4602594 -0.1618537
vn -0.8729059 0.4602594 -0.1618537
vn -0.8729059 0.4602594 -0.1618537
vn -0.8729059 0.4602594 -0.1618537
vn -0.999874 -0.01587099 -0.000346655
vn -0.9363899 -0.2698073 -0.2244503
vn -0.999874 -0.01587099 -0.000346655
vn -0.999874 -0.01587099 -0.000346655
vn -0.8411639 -0.4920015 -0.2244502
vn -0.8411639 -0.4920015 -0.2244502
vn -0.8411639 -0.4920015 -0.2244502
vn -0.999874 -0.01587099 -0.000346655
vn -0.999874 -0.01587099 -0.000346655
vn -0.999874 -0.01587099 -0.000346655
vn -0.999874 -0.01587099 -0.000346655
vn -0.8411639 -0.4920015 -0.2244502
vn -0.8411639 -0.4920015 -0.2244502
vn -0.8411639 -0.4920015 -0.2244502
vn -0.8411639 -0.4920015 -0.2244502
vn -0.8729059 0.4602594 -0.1618537
vn -0.8729059 0.4602594 -0.1618537
vn -0.8729059 0.4602594 -0.1618537
vn -0.8729059 0.4602594 -0.1618537
vn -0.999874 -0.01587099 -0.000346655
vn -0.999874 -0.01587099 -0.000346655
vn -0.999874 -0.01587099 -0.000346655
vn -0.999874 -0.01587099 -0.000346655
vn -0.8411639 -0.4920015 -0.2244502
vn -0.8411639 -0.4920015 -0.2244502
vn -0.8411639 -0.4920015 -0.2244502
vn -0.8411639 -0.4920015 -0.2244502
vn -0.8729059 0.4602594 -0.1618537
vn -0.8729059 0.4602594 -0.1618537
vn -0.8729059 0.4602594 -0.1618537
vn -0.8729059 0.4602594 -0.1618537
vn -0.999874 -0.01587099 -0.000346655
vn -0.999874 -0.01587099 -0.000346655
vn -0.999874 -0.01587099 -0.000346655
vn -0.999874 -0.01587099 -0.000346655
vn -0.8411639 -0.4920015 -0.2244502
vn -0.8411639 -0.4920015 -0.2244502
vn -0.8411639 -0.4920015 -0.2244502
vn -0.8411639 -0.4920015 -0.2244502
vn -0.8729059 0.4602594 -0.1618537
vn -0.8729059 0.4602594 -0.1618537
vn -0.8729059 0.4602594 -0.1618537
vn -0.8729059 0.4602594 -0.1618537
vn -0.999874 -0.01587099 -0.000346655
vn -0.999874 -0.01587099 -0.000346655
vn -0.999874 -0.01587099 -0.000346655
vn -0.999874 -0.01587099 -0.000346655
vn -0.8411639 -0.4920015 -0.2244502
vn -0.8411639 -0.4920015 -0.2244502
vn -0.8411639 -0.4920015 -0.2244502
vn -0.8411639 -0.4920015 -0.2244502
vn -0.8729059 0.4602594 -0.1618537
vn -0.8729059 0.4602594 -0.1618537
vn -0.8729059 0.4602594 -0.1618537
vn -0.8729059 0.4602594 -0.1618537
vn -0.999874 -0.01587099 -0.000346655
vn -0.999874 -0.01587099 -0.000346655
vn -0.999874 -0.01587099 -0.000346655
vn -0.999874 -0.01587099 -0.000346655
vn -0.8411639 -0.4920015 -0.2244502
vn -0.8411639 -0.4920015 -0.2244502
vn -0.8411639 -0.4920015 -0.2244502
vn -0.8411639 -0.4920015 -0.2244502
vn -0.8729059 0.4602594 -0.1618537
vn -0.8729059 0.4602594 -0.1618537
vn -0.8729059 0.4602594 -0.1618537
vn -0.8729059 0.4602594 -0.1618537
vn -0.999874 -0.01587099 -0.000346655
vn -0.999874 -0.01587099 -0.000346655
vn -0.999874 -0.01587099 -0.000346655
vn -0.999874 -0.01587099 -0.000346655
vn -0.8411639 -0.4920015 -0.2244502
vn -0.8411639 -0.4920015 -0.2244502
vn -0.8411639 -0.4920015 -0.2244502
vn -0.8411639 -0.4920015 -0.2244502
vn -0.8729059 0.4602594 -0.1618537
vn -0.8729059 0.4602594 -0.1618537
vn -0.8729059 0.4602594 -0.1618537
vn -0.8729059 0.4602594 -0.1618537
vn -0.999874 -0.01587099 -0.000346655
vn -0.999874 -0.01587099 -0.000346655
vn -0.999874 -0.01587099 -0.000346655
vn -0.999874 -0.01587099 -0.000346655
vn -0.8411639 -0.4920015 -0.2244502
vn -0.8411639 -0.4920015 -0.2244502
vn -0.8411639 -0.4920015 -0.2244502
vn -0.8411639 -0.4920015 -0.2244502
vn -0.8729059 0.4602594 -0.1618537
vn -0.8729059 0.4602594 -0.1618537
vn -0.8729059 0.4602594 -0.1618537
vn -0.8729059 0.4602594 -0.1618537
vn -0.999874 -0.01587099 -0.000346655
vn -0.999874 -0.01587099 -0.000346655
vn -0.999874 -0.01587099 -0.000346655
vn -0.999874 -0.01587099 -0.000346655
vn -0.8411639 -0.4920015 -0.2244502
vn -0.8411639 -0.4920015 -0.2244502
vn -0.8411639 -0.4920015 -0.2244502
vn -0.8411639 -0.4920015 -0.2244502
vn -0.8729059 0.4602594 -0.1618537
vn -0.8729059 0.4602594 -0.1618537
vn -0.8729059 0.4602594 -0.1618537
vn -0.8729059 0.4602594 -0.1618537
vn -0.8729059 0.4602594 -0.1618537
vn -0.8729059 0.4602594 -0.1618537
vn -0.8729059 0.4602594 -0.1618537
vn -0.8729059 0.4602594 -0.1618537
vn -0.8411639 -0.4920015 -0.2244502
vn -0.8411639 -0.4920015 -0.2244502
vn -0.8411639 -0.4920015 -0.2244502
vn -0.8411639 -0.4920015 -0.2244502
vn -0.999874 -0.01587099 -0.000346655
vn -0.999874 -0.01587099 -0.000346655
vn -0.999874 -0.01587099 -0.000346655
vn -0.999874 -0.01587099 -0.000346655
vn -0.999874 -0.01587099 -0.000346655
vn -0.999874 -0.01587099 -0.000346655
vn -0.999874 -0.01587099 -0.000346655
vn -0.999874 -0.01587099 -0.000346655
vn -0.8411639 -0.4920015 -0.2244502
vn -0.8411639 -0.4920015 -0.2244502
vn -0.8411639 -0.4920015 -0.2244502
vn -0.8411639 -0.4920015 -0.2244502
vn -0.8729059 0.4602594 -0.1618537
vn -0.8729059 0.4602594 -0.1618537
vn -0.8729059 0.4602594 -0.1618537
vn -0.8729059 0.4602594 -0.1618537
vn -0.8729059 0.4602594 -0.1618537
vn -0.8729059 0.4602594 -0.1618537
vn -0.8729059 0.4602594 -0.1618537
vn -0.8729059 0.4602594 -0.1618537
vn -0.8411639 -0.4920015 -0.2244502
vn -0.8411639 -0.4920015 -0.2244502
vn -0.8411639 -0.4920015 -0.2244502
vn -0.8411639 -0.4920015 -0.2244502
vn -0.999874 -0.01587099 -0.000346655
vn -0.999874 -0.01587099 -0.000346655
vn -0.999874 -0.01587099 -0.000346655
vn -0.999874 -0.01587099 -0.000346655
vn -0.999874 -0.01587099 -0.000346655
vn -0.999874 -0.01587099 -0.000346655
vn -0.999874 -0.01587099 -0.000346655
vn -0.999874 -0.01587099 -0.000346655
vn -0.8411639 -0.4920015 -0.2244502
vn -0.8411639 -0.4920015 -0.2244502
vn -0.8411639 -0.4920015 -0.2244502
vn -0.8411639 -0.4920015 -0.2244502
vn -0.8729059 0.4602594 -0.1618537
vn -0.8729059 0.4602594 -0.1618537
vn -0.8729059 0.4602594 -0.1618537
vn -0.8729059 0.4602594 -0.1618537
vn -0.8729059 0.4602594 -0.1618537
vn -0.8729059 0.4602594 -0.1618537
vn -0.8729059 0.4602594 -0.1618537
vn -0.8729059 0.4602594 -0.1618537
vn -0.8411639 -0.4920015 -0.2244502
vn -0.8411639 -0.4920015 -0.2244502
vn -0.8411639 -0.4920015 -0.2244502
vn -0.8411639 -0.4920015 -0.2244502
vn -0.999874 -0.01587099 -0.000346655
vn -0.999874 -0.01587099 -0.000346655
vn -0.999874 -0.01587099 -0.000346655
vn -0.999874 -0.01587099 -0.000346655
vn -0.999874 -0.01587099 -0.000346655
vn -0.999874 -0.01587099 -0.000346655
vn -0.999874 -0.01587099 -0.000346655
vn -0.999874 -0.01587099 -0.000346655
vn -0.8411639 -0.4920015 -0.2244502
vn -0.8411639 -0.4920015 -0.2244502
vn -0.8411639 -0.4920015 -0.2244502
vn -0.8411639 -0.4920015 -0.2244502
vn -0.8729059 0.4602594 -0.1618537
vn -0.8729059 0.4602594 -0.1618537
vn -0.8729059 0.4602594 -0.1618537
vn -0.8729059 0.4602594 -0.1618537
vn -0.8729059 0.4602594 -0.1618537
vn -0.8729059 0.4602594 -0.1618537
vn -0.8729059 0.4602594 -0.1618537
vn -0.8729059 0.4602594 -0.1618537
vn -0.8411639 -0.4920015 -0.2244502
vn -0.8411639 -0.4920015 -0.2244502
vn -0.8411639 -0.4920015 -0.2244502
vn -0.8411639 -0.4920015 -0.2244502
vn -0.999874 -0.01587099 -0.000346655
vn -0.999874 -0.01587099 -0.000346655
vn -0.999874 -0.01587099 -0.000346655
vn -0.999874 -0.01587099 -0.000346655
g DSJ_GTA_diLou_jianYu_3_0
f 3/3/3 2/2/2 1/1/1
f 2/2/2 4/4/4 1/1/1
f 7/7/7 6/6/6 5/5/5
f 6/6/6 8/8/8 5/5/5
f 10/10/10 6/6/6 9/9/9
f 6/6/6 11/11/11 9/9/9
f 14/14/14 13/13/13 12/12/12
f 13/13/13 15/15/15 12/12/12
f 18/18/18 17/17/17 16/16/16
f 17/17/17 19/19/19 16/16/16
f 22/22/22 21/21/21 20/20/20
f 21/21/21 23/23/23 20/20/20
f 26/26/26 25/25/25 24/24/24
f 25/25/25 27/27/27 24/24/24
f 30/30/30 29/29/29 28/28/28
f 29/29/29 31/31/31 28/28/28
f 34/34/34 33/33/33 32/32/32
f 33/33/33 35/35/35 32/32/32
f 38/38/38 37/37/37 36/36/36
f 37/37/37 39/39/39 36/36/36
f 42/42/42 41/41/41 40/40/40
f 41/41/41 43/43/43 40/40/40
f 46/46/46 45/45/45 44/44/44
f 45/45/45 47/47/47 44/44/44
f 50/50/50 49/49/49 48/48/48
f 49/49/49 51/51/51 48/48/48
f 54/54/54 53/53/53 52/52/52
f 53/53/53 55/55/55 52/52/52
f 58/58/58 57/57/57 56/56/56
f 57/57/57 59/59/59 56/56/56
f 62/62/62 61/61/61 60/60/60
f 61/61/61 63/63/63 60/60/60
f 66/66/66 65/65/65 64/64/64
f 65/65/65 67/67/67 64/64/64
f 70/70/70 69/69/69 68/68/68
f 69/69/69 71/71/71 68/68/68
f 74/74/74 73/73/73 72/72/72
f 73/73/73 75/75/75 72/72/72
f 78/78/78 77/77/77 76/76/76
f 77/77/77 79/79/79 76/76/76
f 82/82/82 81/81/81 80/80/80
f 81/81/81 83/83/83 80/80/80
f 86/86/86 85/85/85 84/84/84
f 85/85/85 87/87/87 84/84/84
f 90/90/90 89/89/89 88/88/88
f 89/89/89 91/91/91 88/88/88
f 94/94/94 93/93/93 92/92/92
f 93/93/93 95/95/95 92/92/92
f 98/98/98 97/97/97 96/96/96
f 97/97/97 99/99/99 96/96/96
f 102/102/102 101/101/101 100/100/100
f 101/101/101 103/103/103 100/100/100
f 106/106/106 105/105/105 104/104/104
f 105/105/105 107/107/107 104/104/104
f 110/110/110 109/109/109 108/108/108
f 109/109/109 111/111/111 108/108/108
f 114/114/114 113/113/113 112/112/112
f 113/113/113 115/115/115 112/112/112
f 118/118/118 117/117/117 116/116/116
f 117/117/117 119/119/119 116/116/116
f 122/122/122 121/121/121 120/120/120
f 121/121/121 123/123/123 120/120/120
f 126/126/126 125/125/125 124/124/124
f 125/125/125 127/127/127 124/124/124
f 130/130/130 129/129/129 128/128/128
f 129/129/129 131/131/131 128/128/128
f 134/134/134 133/133/133 132/132/132
f 133/133/133 135/135/135 132/132/132
f 138/138/138 137/137/137 136/136/136
f 137/137/137 139/139/139 136/136/136
f 142/142/142 141/141/141 140/140/140
f 141/141/141 143/143/143 140/140/140
f 146/146/146 145/145/145 144/144/144
f 145/145/145 147/147/147 144/144/144
f 150/150/150 149/149/149 148/148/148
f 149/149/149 151/151/151 148/148/148
f 154/154/154 153/153/153 152/152/152
f 153/153/153 155/155/155 152/152/152
f 158/158/158 157/157/157 156/156/156
f 157/157/157 159/159/159 156/156/156
f 162/162/162 161/161/161 160/160/160
f 161/161/161 163/163/163 160/160/160
f 166/166/166 165/165/165 164/164/164
f 165/165/165 167/167/167 164/164/164
f 170/170/170 169/169/169 168/168/168
f 169/169/169 171/171/171 168/168/168
f 174/174/174 173/173/173 172/172/172
f 173/173/173 175/175/175 172/172/172
f 178/178/178 177/177/177 176/176/176
f 177/177/177 179/179/179 176/176/176
f 182/182/182 181/181/181 180/180/180
f 181/181/181 183/183/183 180/180/180
f 186/186/186 185/185/185 184/184/184
f 185/185/185 187/187/187 184/184/184
f 190/190/190 189/189/189 188/188/188
f 189/189/189 191/191/191 188/188/188
f 194/194/194 193/193/193 192/192/192
f 193/193/193 195/195/195 192/192/192
f 198/198/198 197/197/197 196/196/196
f 197/197/197 199/199/199 196/196/196
f 202/202/202 201/201/201 200/200/200
f 201/201/201 203/203/203 200/200/200
f 206/206/206 205/205/205 204/204/204
f 205/205/205 207/207/207 204/204/204
f 210/210/210 209/209/209 208/208/208
f 209/209/209 211/211/211 208/208/208
f 214/214/214 213/213/213 212/212/212
f 213/213/213 215/215/215 212/212/212
f 218/218/218 217/217/217 216/216/216
f 217/217/217 219/219/219 216/216/216
f 222/222/222 221/221/221 220/220/220
f 221/221/221 223/223/223 220/220/220
f 226/226/226 225/225/225 224/224/224
f 225/225/225 227/227/227 224/224/224
f 230/230/230 229/229/229 228/228/228
f 229/229/229 231/231/231 228/228/228
f 234/234/234 233/233/233 232/232/232
f 233/233/233 235/235/235 232/232/232
f 238/238/238 237/237/237 236/236/236
f 237/237/237 239/239/239 236/236/236
f 242/242/242 241/241/241 240/240/240
f 241/241/241 243/243/243 240/240/240
f 246/246/246 245/245/245 244/244/244
f 245/245/245 247/247/247 244/244/244
f 250/250/250 249/249/249 248/248/248
f 249/249/249 251/251/251 248/248/248
f 254/254/254 253/253/253 252/252/252
f 253/253/253 255/255/255 252/252/252
f 258/258/258 257/257/257 256/256/256
f 257/257/257 259/259/259 256/256/256
f 262/262/262 261/261/261 260/260/260
f 261/261/261 263/263/263 260/260/260
f 265/265/265 261/261/261 264/264/264
f 261/261/261 266/266/266 264/264/264
f 269/269/269 268/268/268 267/267/267
f 268/268/268 270/270/270 267/267/267
f 273/273/273 272/272/272 271/271/271
f 272/272/272 274/274/274 271/271/271
f 277/277/277 276/276/276 275/275/275
f 276/276/276 278/278/278 275/275/275
f 281/281/281 280/280/280 279/279/279
f 280/280/280 282/282/282 279/279/279
f 285/285/285 284/284/284 283/283/283
f 284/284/284 286/286/286 283/283/283
f 289/289/289 288/288/288 287/287/287
f 288/288/288 290/290/290 287/287/287
f 293/293/293 292/292/292 291/291/291
f 292/292/292 294/294/294 291/291/291
f 297/297/297 296/296/296 295/295/295
f 296/296/296 298/298/298 295/295/295
f 301/301/301 300/300/300 299/299/299
f 300/300/300 302/302/302 299/299/299
f 305/305/305 304/304/304 303/303/303
f 304/304/304 306/306/306 303/303/303
f 309/309/309 308/308/308 307/307/307
f 308/308/308 310/310/310 307/307/307
f 313/313/313 312/312/312 311/311/311
f 312/312/312 314/314/314 311/311/311
f 317/317/317 316/316/316 315/315/315
f 316/316/316 318/318/318 315/315/315
f 321/321/321 320/320/320 319/319/319
f 320/320/320 322/322/322 319/319/319
f 325/325/325 324/324/324 323/323/323
f 324/324/324 326/326/326 323/323/323
f 329/329/329 328/328/328 327/327/327
f 328/328/328 330/330/330 327/327/327
f 333/333/333 332/332/332 331/331/331
f 332/332/332 334/334/334 331/331/331
f 337/337/337 336/336/336 335/335/335
f 336/336/336 338/338/338 335/335/335
f 341/341/341 340/340/340 339/339/339
f 340/340/340 342/342/342 339/339/339
f 345/345/345 344/344/344 343/343/343
f 344/344/344 346/346/346 343/343/343
f 349/349/349 348/348/348 347/347/347
f 348/348/348 350/350/350 347/347/347
f 353/353/353 352/352/352 351/351/351
f 352/352/352 354/354/354 351/351/351
f 357/357/357 356/356/356 355/355/355
f 356/356/356 358/358/358 355/355/355
f 361/361/361 360/360/360 359/359/359
f 360/360/360 362/362/362 359/359/359
f 365/365/365 364/364/364 363/363/363
f 364/364/364 366/366/366 363/363/363
f 369/369/369 368/368/368 367/367/367
f 368/368/368 370/370/370 367/367/367
f 373/373/373 372/372/372 371/371/371
f 372/372/372 374/374/374 371/371/371
f 377/377/377 376/376/376 375/375/375
f 376/376/376 378/378/378 375/375/375
f 381/381/381 380/380/380 379/379/379
f 380/380/380 382/382/382 379/379/379
f 385/385/385 384/384/384 383/383/383
f 384/384/384 386/386/386 383/383/383
f 389/389/389 388/388/388 387/387/387
f 388/388/388 390/390/390 387/387/387
f 393/393/393 392/392/392 391/391/391
f 392/392/392 394/394/394 391/391/391
f 397/397/397 396/396/396 395/395/395
f 396/396/396 398/398/398 395/395/395
f 401/401/401 400/400/400 399/399/399
f 400/400/400 402/402/402 399/399/399
f 405/405/405 404/404/404 403/403/403
f 404/404/404 406/406/406 403/403/403
f 409/409/409 408/408/408 407/407/407
f 408/408/408 410/410/410 407/407/407
f 413/413/413 412/412/412 411/411/411
f 412/412/412 414/414/414 411/411/411
f 417/417/417 416/416/416 415/415/415
f 416/416/416 418/418/418 415/415/415
f 421/421/421 420/420/420 419/419/419
f 420/420/420 422/422/422 419/419/419
f 425/425/425 424/424/424 423/423/423
f 424/424/424 426/426/426 423/423/423
f 429/429/429 428/428/428 427/427/427
f 428/428/428 430/430/430 427/427/427
f 433/433/433 432/432/432 431/431/431
f 432/432/432 434/434/434 431/431/431
f 437/437/437 436/436/436 435/435/435
f 436/436/436 438/438/438 435/435/435
f 441/441/441 440/440/440 439/439/439
f 440/440/440 442/442/442 439/439/439
f 445/445/445 444/444/444 443/443/443
f 444/444/444 446/446/446 443/443/443
