g DSJ_GTA_diLou_29_uvDongHua
v 25.32986 -2.028389 11.03231
v 25.32986 1.929398 11.03231
v 25.32986 -2.028389 3.611458
v 25.32986 1.929398 3.611458
v 25.32986 -2.028389 -3.809393
v 25.32986 1.929398 -3.809393
v -25.23087 1.929398 11.13125
v -25.23087 -2.028389 11.13125
v -25.23087 1.929398 3.710403
v -25.23087 -2.028389 3.710403
v -25.23087 1.929398 -3.710449
v -25.23087 -2.028389 -3.710449
v -25.23087 -2.028389 -11.1313
v -9.647085 -2.028389 -11.1313
v -25.23087 1.929398 -11.1313
v -9.647085 1.929398 -11.1313
v 25.32986 1.929398 -11.23024
v 9.696602 1.929398 -11.18077
v 25.32986 -2.028389 -11.23024
v 9.696602 -2.028389 -11.18077
v -9.647085 -2.028389 -11.1313
v 9.696602 -2.028389 -11.18077
v -9.647085 1.929398 -11.1313
v 9.696602 1.929398 -11.18077
v 9.746075 -1.978916 8.014498
v -9.597612 -1.978916 8.063971
v 9.746075 1.929398 8.014498
v -9.597612 1.929398 8.063971
v -9.597612 -1.978916 8.063971
v -9.597612 -1.978916 11.08178
v -9.597612 1.929398 8.063971
v -9.597612 1.929398 11.08178
v 9.746075 -1.978916 11.03231
v 9.746075 -1.978916 8.014498
v 9.746075 1.929398 11.03231
v 9.746075 1.929398 8.014498
v 25.32986 -2.028389 11.03231
v 9.746075 -1.978916 11.03231
v 25.32986 1.929398 11.03231
v 9.746075 1.929398 11.03231
v -9.597612 1.929398 11.08178
v -9.597612 -1.978916 11.08178
v -25.23087 1.929398 11.13125
v -25.23087 -2.028389 11.13125
v 25.32986 -2.028389 -3.809393
v 25.32986 1.929398 -3.809393
v 25.32986 -2.028389 -11.23024
v 25.32986 1.929398 -11.23024
v -25.23087 1.929398 -3.710449
v -25.23087 -2.028389 -3.710449
v -25.23087 1.929398 -11.1313
v -25.23087 -2.028389 -11.1313
vt 0.4870459 0.9868409
vt 0.5370254 0.9868409
vt 0.4870459 0.4870459
vt 0.5370254 0.4870459
vt 0.4870459 0.006473707
vt 0.5370254 0.006473707
vt 0.5370254 0.006473707
vt 0.4870459 0.006473707
vt 0.5370254 0.4870459
vt 0.4870459 0.4870459
vt 0.5370254 0.9868409
vt 0.4870459 0.9868409
vt 0.4870459 0.4870459
vt 0.4870459 0.9868409
vt 0.5370254 0.4870459
vt 0.5370254 0.9868409
vt 0.5370254 0.4870459
vt 0.5370254 0.006473707
vt 0.4870459 0.4870459
vt 0.4870459 0.006473707
vt 0.4870459 0.4870459
vt 0.4870459 0.9868409
vt 0.5370254 0.4870459
vt 0.5370254 0.9868409
vt 0.4870459 0.006473707
vt 0.4870459 0.9868409
vt 0.5370254 0.006473707
vt 0.5370254 0.9868409
vt 0.4870459 0.006473707
vt 0.4870459 0.2717496
vt 0.5370254 0.006473707
vt 0.5370254 0.2717496
vt 0.4870459 0.740788
vt 0.4870459 0.9868409
vt 0.5370254 0.740788
vt 0.5370254 0.9868409
vt 0.4870459 0.006473707
vt 0.4870459 0.740788
vt 0.5370254 0.006473707
vt 0.5370254 0.740788
vt 0.5370254 0.2717496
vt 0.4870459 0.2717496
vt 0.5370254 0.9868409
vt 0.4870459 0.9868409
vt 0.4870459 0.9868409
vt 0.5370254 0.9868409
vt 0.4870459 0.4870459
vt 0.5370254 0.4870459
vt 0.5370254 0.006473707
vt 0.4870459 0.006473707
vt 0.5370254 0.4870459
vt 0.4870459 0.4870459
g DSJ_GTA_diLou_29_uvDongHua_0
f 3/3/3 2/2/2 1/1/1
f 4/4/4 2/2/2 3/3/3
f 5/5/5 4/4/4 3/3/3
f 6/6/6 4/4/4 5/5/5
f 9/9/9 8/8/8 7/7/7
f 10/10/10 8/8/8 9/9/9
f 11/11/11 10/10/10 9/9/9
f 12/12/12 10/10/10 11/11/11
f 15/15/15 14/14/14 13/13/13
f 16/16/16 14/14/14 15/15/15
f 19/19/19 18/18/18 17/17/17
f 20/20/20 18/18/18 19/19/19
f 23/23/23 22/22/22 21/21/21
f 24/24/24 22/22/22 23/23/23
f 27/27/27 26/26/26 25/25/25
f 28/28/28 26/26/26 27/27/27
f 31/31/31 30/30/30 29/29/29
f 32/32/32 30/30/30 31/31/31
f 35/35/35 34/34/34 33/33/33
f 36/36/36 34/34/34 35/35/35
f 39/39/39 38/38/38 37/37/37
f 40/40/40 38/38/38 39/39/39
f 43/43/43 42/42/42 41/41/41
f 44/44/44 42/42/42 43/43/43
f 47/47/47 46/46/46 45/45/45
f 48/48/48 46/46/46 47/47/47
f 51/51/51 50/50/50 49/49/49
f 52/52/52 50/50/50 51/51/51
