g DSJ_GTA_diLou_17
v -3.609032 -8.016862 -1.414741
v 3.62828 -8.016862 -1.510982
v -3.609032 -6.707987 -1.414741
v 3.62828 -6.707987 -1.510982
v 3.666776 -8.016862 1.376245
v -3.570536 -8.016862 1.472485
v 3.666776 -6.707987 1.376245
v -3.570536 -6.707987 1.472485
v -4.629185 3.147076 -1.241507
v -3.743769 3.147076 -1.607222
v -3.705273 3.147076 1.664967
v 3.763017 3.147076 -1.722711
v 3.801513 3.147076 1.549478
v 4.629184 3.147076 -1.337748
v 4.667681 3.147076 1.203011
v 5.148885 3.147076 -0.08661652
v -4.590689 3.147076 1.299252
v -5.110389 3.147076 0.0481205
v 3.763017 -1.934441 -1.722711
v 3.763017 3.147076 -1.722711
v 0.009623528 -1.934441 -1.664967
v -3.743769 3.147076 -1.607222
v -3.743769 -1.934441 -1.607222
v 3.801513 -1.934441 1.549478
v 4.667681 -1.934441 1.203011
v 3.763017 -1.934441 -1.722711
v 0.02887249 -1.934441 1.607223
v 0.009623528 -1.934441 -1.664967
v -3.705273 -1.934441 1.664967
v -3.743769 -1.934441 -1.607222
v -4.590689 -1.934441 1.299252
v -4.629185 -1.934441 -1.241507
v -5.110389 -1.934441 0.0481205
v 4.629184 -1.934441 -1.337748
v 5.148885 -1.934441 -0.08661652
v 3.801513 -1.934441 1.549478
v 0.02887249 -1.934441 1.607223
v 3.801513 3.147076 1.549478
v -3.705273 -1.934441 1.664967
v -3.705273 3.147076 1.664967
v -0.0481205 -4.301966 -1.10677
v 2.454141 -6.784979 -1.145266
v 2.454141 -1.818952 -1.145266
v 4.956403 -4.301966 -1.164515
v 2.47339 -6.784979 1.029778
v -0.009624481 -4.301966 1.068274
v 4.956403 -4.301966 1.010529
v 2.47339 -1.818952 1.029778
v -2.511886 -6.784979 -1.068274
v -0.02887249 -4.301966 -1.10677
v -5.014148 -4.301966 -1.049026
v -2.511886 -1.818952 -1.068274
v 0.009623528 -4.301966 1.068274
v -2.492638 -6.784979 1.10677
v -2.492638 -1.818952 1.10677
v -4.9949 -4.301966 1.145267
v -4.513696 -9.845438 -2.146171
v 4.494447 -9.845438 -2.280908
v -4.513696 -8.016862 -2.146171
v 4.494447 -8.016862 -2.280908
v -4.455951 -9.845438 2.242412
v -4.513696 -9.845438 -2.146171
v -4.455951 -8.016862 2.242412
v -4.513696 -8.016862 -2.146171
v 4.552192 -9.845438 2.126923
v -4.455951 -9.845438 2.242412
v 4.552192 -8.016862 2.126923
v -4.455951 -8.016862 2.242412
v 4.494447 -9.845438 -2.280908
v 4.552192 -9.845438 2.126923
v 4.494447 -8.016862 -2.280908
v 4.552192 -8.016862 2.126923
v -5.264374 7.381672 -1.241507
v -5.225878 6.342272 -1.241507
v -1.587974 8.536562 -1.280004
v -4.455951 5.052645 -1.241507
v -0.3753395 8.344082 -1.299252
v -3.801514 4.167229 -1.260755
v 0.009623528 2.877602 -1.299252
v -4.244222 3.705273 -1.241507
v -4.282718 2.877602 -1.241507
v -4.956404 8.093855 -1.241507
v -3.127828 8.57506 -1.260755
v -4.244222 8.478819 -1.241507
v -0.2983465 8.594307 -1.299252
v 0.009623528 9.845438 -1.299252
v -0.3945875 8.825285 -1.299252
v -0.7025585 9.171753 -1.299252
v -0.5485725 9.691452 -1.299252
v 0.3175945 8.594307 -1.299252
v 0.4138355 8.825285 -1.3185
v 0.6833096 9.171753 -1.3185
v 0.5678205 9.691452 -1.3185
v 0.3945875 8.344082 -1.3185
v 3.820761 4.167229 -1.356996
v 4.455951 5.052645 -1.356996
v 1.626471 8.536562 -1.3185
v 5.245126 6.342272 -1.376244
v 5.30287 7.381672 -1.376244
v 4.956403 8.093855 -1.376244
v 3.127827 8.57506 -1.337748
v 4.282717 8.478819 -1.356996
v 4.263469 3.705273 -1.356996
v 4.282717 2.877602 -1.356996
v -4.224973 2.877602 0.7410545
v -4.224973 3.705273 0.7410545
v 0.02887249 2.877602 0.6833105
v -3.782266 4.167229 0.7218065
v -0.3368435 8.344082 0.6833105
v -4.417455 5.052645 0.7410545
v -1.568726 8.536562 0.7025585
v -5.187382 6.342272 0.7410545
v -5.245126 7.381672 0.7410545
v -4.917907 8.093855 0.7410545
v -3.089331 8.57506 0.7218065
v -4.224973 8.478819 0.7410545
v -0.2790985 8.594307 0.6833105
v 0.02887249 9.845438 0.6833105
v -0.3560915 8.825285 0.6833105
v -0.6640615 9.171753 0.6833105
v -0.5100765 9.691452 0.6833105
v 0.3560905 8.594307 0.6833105
v 0.4523315 8.825285 0.6833105
v 0.7218065 9.171753 0.6640615
v 0.6063175 9.691452 0.6640615
v 0.4330835 8.344082 0.6833105
v 3.84001 4.167229 0.6063175
v 4.494447 5.052645 0.6063175
v 1.645719 8.536562 0.6640615
v 5.264374 6.342272 0.6063175
v 5.30287 7.381672 0.6063175
v 4.301966 3.705273 0.6063175
v 4.321214 2.877602 0.6063175
v 5.014148 8.093855 0.6063175
v 3.147076 8.57506 0.6448135
v 4.301966 8.478819 0.6063175
v -4.455951 -8.016862 2.242412
v -4.513696 -8.016862 -2.146171
v 0.009623528 -8.016862 -0.009623528
v 4.494447 -8.016862 -2.280908
v 4.552192 -8.016862 2.126923
vt 0.9953564 0.1535103
vt 0.8013827 0.1535103
vt 0.9953564 0.2504972
vt 0.8013827 0.2504972
vt 0.9953564 0.1535103
vt 0.8013827 0.1535103
vt 0.9953564 0.2504972
vt 0.8013827 0.2504972
vt 0.2233408 0.9798385
vt 0.2194614 0.9875975
vt 0.2194614 0.9410437
vt 0.1496308 0.9875975
vt 0.1496308 0.9410437
vt 0.1457513 0.9798385
vt 0.1457513 0.9488027
vt 0.1418718 0.9643207
vt 0.2233408 0.9488027
vt 0.2310998 0.9643207
vt 0.5492167 0.009969682
vt 0.5492167 0.1379924
vt 0.6694804 0.009969682
vt 0.7897443 0.1379924
vt 0.7897443 0.009969682
vt 0.1496308 0.9410437
vt 0.1457513 0.9488027
vt 0.1496308 0.9875975
vt 0.1845461 0.9410437
vt 0.1845461 0.9875975
vt 0.2194614 0.9410437
vt 0.2194614 0.9875975
vt 0.2233408 0.9488027
vt 0.2233408 0.9798385
vt 0.2310998 0.9643207
vt 0.1457513 0.9798385
vt 0.1418718 0.9643207
vt 0.7897443 0.009969682
vt 0.6694804 0.009969682
vt 0.7897443 0.1379924
vt 0.5492167 0.009969682
vt 0.5492167 0.1379924
vt 0.7897443 0.1418718
vt 0.6617216 0.1418718
vt 0.7897443 0.2504972
vt 0.6617216 0.2504972
vt 0.7897443 0.1418718
vt 0.6617216 0.1418718
vt 0.7897443 0.2504972
vt 0.6617216 0.2504972
vt 0.6617216 0.2504972
vt 0.6617216 0.1418718
vt 0.5492167 0.2504972
vt 0.5492167 0.1418718
vt 0.6617216 0.2504972
vt 0.6617216 0.1418718
vt 0.5492167 0.2504972
vt 0.5492167 0.1418718
vt 0.9914769 0.6345652
vt 0.74707 0.6345652
vt 0.9914769 0.6617216
vt 0.74707 0.6617216
vt 0.9914769 0.6345652
vt 0.74707 0.6345652
vt 0.9914769 0.6617216
vt 0.74707 0.6617216
vt 0.9914769 0.6345652
vt 0.74707 0.6345652
vt 0.9914769 0.6617216
vt 0.74707 0.6617216
vt 0.9914769 0.6345652
vt 0.74707 0.6345652
vt 0.9914769 0.6617216
vt 0.74707 0.6617216
vt 0.9992359 0.09919761
vt 0.9953564 0.07980024
vt 0.9410437 0.1147155
vt 0.983718 0.05652339
vt 0.9216464 0.1147155
vt 0.9759591 0.03712601
vt 0.9177669 0.01772863
vt 0.9798385 0.02936706
vt 0.983718 0.01772863
vt 0.9914769 0.110836
vt 0.9643207 0.1147155
vt 0.9798385 0.1147155
vt 0.9216464 0.1147155
vt 0.9177669 0.1418718
vt 0.9216464 0.1224745
vt 0.9255259 0.1302334
vt 0.9255259 0.1379924
vt 0.9138874 0.1147155
vt 0.910008 0.1224745
vt 0.902249 0.1302334
vt 0.910008 0.1379924
vt 0.910008 0.1147155
vt 0.8595748 0.03712601
vt 0.8479364 0.05652339
vt 0.8906106 0.1147155
vt 0.8362979 0.07980024
vt 0.8362979 0.09919761
vt 0.8401774 0.110836
vt 0.8673338 0.1147155
vt 0.8479364 0.1147155
vt 0.8479364 0.02936706
vt 0.8479364 0.01772863
vt 0.8479364 0.01772863
vt 0.8479364 0.02936706
vt 0.9177669 0.01772863
vt 0.8595748 0.03712601
vt 0.910008 0.1147155
vt 0.8479364 0.05652339
vt 0.8906106 0.1147155
vt 0.8362979 0.07980024
vt 0.8362979 0.09919761
vt 0.8401774 0.110836
vt 0.8673338 0.1147155
vt 0.8479364 0.1147155
vt 0.910008 0.1147155
vt 0.9177669 0.1418718
vt 0.910008 0.1224745
vt 0.902249 0.1302334
vt 0.902249 0.1379924
vt 0.9216464 0.1147155
vt 0.9216464 0.1224745
vt 0.9255259 0.1302334
vt 0.9255259 0.1379924
vt 0.9216464 0.1147155
vt 0.9759591 0.03712601
vt 0.983718 0.05652339
vt 0.9410437 0.1147155
vt 0.9953564 0.07980024
vt 0.9953564 0.09919761
vt 0.9798385 0.02936706
vt 0.9798385 0.01772863
vt 0.9914769 0.110836
vt 0.9643207 0.1147155
vt 0.9798385 0.1147155
vt 0.1651487 0.9449233
vt 0.1651487 0.9875975
vt 0.1884255 0.9643207
vt 0.2155819 0.9875975
vt 0.2155819 0.9449233
vn 0.04761302 -0.04761302 -0.9977304
vn 0.04761302 -0.04761302 -0.9977304
vn 0.04761302 -0.04761302 -0.9977304
vn 0.04761302 -0.04761302 -0.9977304
vn 0.04761302 -0.04761302 0.9977304
vn 0.04761302 -0.04761302 0.9977304
vn 0.04761302 -0.04761302 0.9977304
vn 0.04761302 -0.04761302 0.9977304
vn 0.01587099 0.999874 -0.000345267
vn 0.01587099 0.999874 -0.000345267
vn 0.01587099 0.999874 -0.000345267
vn 0.01587099 0.999874 -0.000345267
vn 0.01587099 0.999874 -0.000345267
vn 0.01587099 0.999874 -0.000345267
vn 0.01587099 0.999874 -0.000345267
vn 0.01587099 0.999874 -0.000345267
vn 0.01587099 0.999874 -0.000345267
vn 0.01587099 0.999874 -0.000345267
vn 0.04761302 -0.04761302 -0.9977304
vn 0.04761302 -0.04761302 -0.9977304
vn 0.04761302 -0.04761302 -0.9977304
vn 0.04761302 -0.04761302 -0.9977304
vn 0.04761302 -0.04761302 -0.9977304
vn 0.01587099 -0.999874 -0.000345267
vn 0.01587099 -0.999874 -0.000345267
vn 0.01587099 -0.999874 -0.000345267
vn 0.01587099 -0.999874 -0.000345267
vn 0.01587099 -0.999874 -0.000345267
vn 0.01587099 -0.999874 -0.000345267
vn 0.01587099 -0.999874 -0.000345267
vn 0.01587099 -0.999874 -0.000345267
vn 0.01587099 -0.999874 -0.000345267
vn 0.01587099 -0.999874 -0.000345267
vn 0.01587099 -0.999874 -0.000345267
vn 0.01587099 -0.999874 -0.000345267
vn 0.04761302 -0.04761302 0.9977304
vn 0.04761302 -0.04761302 0.9977304
vn 0.04761302 -0.04761302 0.9977304
vn 0.04761302 -0.04761302 0.9977304
vn 0.04761302 -0.04761302 0.9977304
vn 0.04761302 -0.04761302 -0.9977304
vn 0.04761302 -0.04761302 -0.9977304
vn 0.04761302 -0.04761302 -0.9977304
vn 0.04761302 -0.04761302 -0.9977304
vn 0.04761302 -0.04761302 0.9977304
vn 0.04761302 -0.04761302 0.9977304
vn 0.04761302 -0.04761302 0.9977304
vn 0.04761302 -0.04761302 0.9977304
vn 0.04761302 -0.04761302 -0.9977304
vn 0.04761302 -0.04761302 -0.9977304
vn 0.04761302 -0.04761302 -0.9977304
vn 0.04761302 -0.04761302 -0.9977304
vn 0.04761302 -0.04761302 0.9977304
vn 0.04761302 -0.04761302 0.9977304
vn 0.04761302 -0.04761302 0.9977304
vn 0.04761302 -0.04761302 0.9977304
vn 0.04761302 -0.04761302 -0.9977304
vn 0.04761302 -0.04761302 -0.9977304
vn 0.04761302 -0.04761302 -0.9977304
vn 0.04761302 -0.04761302 -0.9977304
vn -0.968132 -0.04761302 0.2458728
vn -0.968132 -0.04761302 0.2458728
vn -0.968132 -0.04761302 0.2458728
vn -0.968132 -0.04761302 0.2458728
vn 0.04761302 -0.04761302 0.9977304
vn 0.04761302 -0.04761302 0.9977304
vn 0.04761302 -0.04761302 0.9977304
vn 0.04761302 -0.04761302 0.9977304
vn 0.999874 -0.01587099 -0.000346655
vn 0.999874 -0.01587099 -0.000346655
vn 0.999874 -0.01587099 -0.000346655
vn 0.999874 -0.01587099 -0.000346655
vn 0.04761302 -0.04761302 -0.9977304
vn 0.04761302 -0.04761302 -0.9977304
vn 0.04761302 -0.04761302 -0.9977304
vn 0.04761302 -0.04761302 -0.9977304
vn 0.04761302 -0.04761302 -0.9977304
vn 0.04761302 -0.04761302 -0.9977304
vn 0.04761302 -0.04761302 -0.9977304
vn 0.04761302 -0.04761302 -0.9977304
vn 0.04761302 -0.04761302 -0.9977304
vn 0.04761302 -0.04761302 -0.9977304
vn 0.04761302 -0.04761302 -0.9977304
vn 0.04761302 -0.04761302 -0.9977304
vn 0.04761302 -0.04761302 -0.9977304
vn 0.04761302 -0.04761302 -0.9977304
vn 0.04761302 -0.04761302 -0.9977304
vn 0.04761302 -0.04761302 -0.9977304
vn 0.04761302 -0.04761302 -0.9977304
vn 0.04761302 -0.04761302 -0.9977304
vn 0.04761302 -0.04761302 -0.9977304
vn 0.04761302 -0.04761302 -0.9977304
vn 0.04761302 -0.04761302 -0.9977304
vn 0.04761302 -0.04761302 -0.9977304
vn 0.04761302 -0.04761302 -0.9977304
vn 0.04761302 -0.04761302 -0.9977304
vn 0.04761302 -0.04761302 -0.9977304
vn 0.04761302 -0.04761302 -0.9977304
vn 0.04761302 -0.04761302 -0.9977304
vn 0.04761302 -0.04761302 -0.9977304
vn 0.04761302 -0.04761302 -0.9977304
vn 0.04761302 -0.04761302 -0.9977304
vn 0.04761302 -0.04761302 -0.9977304
vn 0.04761302 -0.04761302 -0.9977304
vn 0.04761302 -0.04761302 0.9977304
vn 0.04761302 -0.04761302 0.9977304
vn 0.04761302 -0.04761302 0.9977304
vn 0.04761302 -0.04761302 0.9977304
vn 0.04761302 -0.04761302 0.9977304
vn 0.04761302 -0.04761302 0.9977304
vn 0.04761302 -0.04761302 0.9977304
vn 0.04761302 -0.04761302 0.9977304
vn 0.04761302 -0.04761302 0.9977304
vn 0.04761302 -0.04761302 0.9977304
vn 0.04761302 -0.04761302 0.9977304
vn 0.04761302 -0.04761302 0.9977304
vn 0.04761302 -0.04761302 0.9977304
vn 0.04761302 -0.04761302 0.9977304
vn 0.04761302 -0.04761302 0.9977304
vn 0.04761302 -0.04761302 0.9977304
vn 0.04761302 -0.04761302 0.9977304
vn 0.04761302 -0.04761302 0.9977304
vn 0.04761302 -0.04761302 0.9977304
vn 0.04761302 -0.04761302 0.9977304
vn 0.04761302 -0.04761302 0.9977304
vn 0.04761302 -0.04761302 0.9977304
vn 0.04761302 -0.04761302 0.9977304
vn 0.04761302 -0.04761302 0.9977304
vn 0.04761302 -0.04761302 0.9977304
vn 0.04761302 -0.04761302 0.9977304
vn 0.04761302 -0.04761302 0.9977304
vn 0.04761302 -0.04761302 0.9977304
vn 0.04761302 -0.04761302 0.9977304
vn 0.04761302 -0.04761302 0.9977304
vn 0.04761302 -0.04761302 0.9977304
vn 0.04761302 -0.04761302 0.9977304
vn 0.01587099 0.999874 -0.000345267
vn 0.01587099 0.999874 -0.000345267
vn 0.01587099 0.999874 -0.000345267
vn 0.01587099 0.999874 -0.000345267
vn 0.01587099 0.999874 -0.000345267
g DSJ_GTA_diLou_17_0
f 3/3/3 2/2/2 1/1/1
f 4/4/4 2/2/2 3/3/3
f 7/7/7 6/6/6 5/5/5
f 8/8/8 6/6/6 7/7/7
f 11/11/11 10/10/10 9/9/9
f 12/12/12 10/10/10 11/11/11
f 13/13/13 12/12/12 11/11/11
f 14/14/14 12/12/12 13/13/13
f 15/15/15 14/14/14 13/13/13
f 16/16/16 14/14/14 15/15/15
f 11/11/11 9/9/9 17/17/17
f 17/17/17 9/9/9 18/18/18
f 21/21/21 20/20/20 19/19/19
f 22/22/22 20/20/20 21/21/21
f 23/23/23 22/22/22 21/21/21
f 26/26/26 25/25/25 24/24/24
f 27/27/27 26/26/26 24/24/24
f 28/28/28 26/26/26 27/27/27
f 29/29/29 28/28/28 27/27/27
f 30/30/30 28/28/28 29/29/29
f 31/31/31 30/30/30 29/29/29
f 32/32/32 30/30/30 31/31/31
f 33/33/33 32/32/32 31/31/31
f 26/26/26 34/34/34 25/25/25
f 25/25/25 34/34/34 35/35/35
f 38/38/38 37/37/37 36/36/36
f 39/39/39 37/37/37 38/38/38
f 40/40/40 39/39/39 38/38/38
f 43/43/43 42/42/42 41/41/41
f 44/44/44 42/42/42 43/43/43
f 47/47/47 46/46/46 45/45/45
f 48/48/48 46/46/46 47/47/47
f 51/51/51 50/50/50 49/49/49
f 52/52/52 50/50/50 51/51/51
f 55/55/55 54/54/54 53/53/53
f 56/56/56 54/54/54 55/55/55
f 59/59/59 58/58/58 57/57/57
f 60/60/60 58/58/58 59/59/59
f 63/63/63 62/62/62 61/61/61
f 64/64/64 62/62/62 63/63/63
f 67/67/67 66/66/66 65/65/65
f 68/68/68 66/66/66 67/67/67
f 71/71/71 70/70/70 69/69/69
f 72/72/72 70/70/70 71/71/71
f 75/75/75 74/74/74 73/73/73
f 76/76/76 74/74/74 75/75/75
f 77/77/77 76/76/76 75/75/75
f 78/78/78 76/76/76 77/77/77
f 79/79/79 78/78/78 77/77/77
f 80/80/80 78/78/78 79/79/79
f 81/81/81 80/80/80 79/79/79
f 82/82/82 75/75/75 73/73/73
f 83/83/83 75/75/75 82/82/82
f 84/84/84 83/83/83 82/82/82
f 77/77/77 85/85/85 79/79/79
f 85/85/85 86/86/86 79/79/79
f 85/85/85 87/87/87 86/86/86
f 87/87/87 88/88/88 86/86/86
f 86/86/86 88/88/88 89/89/89
f 79/79/79 86/86/86 90/90/90
f 86/86/86 91/91/91 90/90/90
f 92/92/92 91/91/91 86/86/86
f 93/93/93 92/92/92 86/86/86
f 79/79/79 90/90/90 94/94/94
f 94/94/94 95/95/95 79/79/79
f 96/96/96 95/95/95 94/94/94
f 97/97/97 96/96/96 94/94/94
f 98/98/98 96/96/96 97/97/97
f 99/99/99 98/98/98 97/97/97
f 99/99/99 97/97/97 100/100/100
f 97/97/97 101/101/101 100/100/100
f 100/100/100 101/101/101 102/102/102
f 95/95/95 103/103/103 79/79/79
f 79/79/79 103/103/103 104/104/104
f 107/107/107 106/106/106 105/105/105
f 108/108/108 106/106/106 107/107/107
f 109/109/109 108/108/108 107/107/107
f 110/110/110 108/108/108 109/109/109
f 111/111/111 110/110/110 109/109/109
f 112/112/112 110/110/110 111/111/111
f 113/113/113 112/112/112 111/111/111
f 113/113/113 111/111/111 114/114/114
f 111/111/111 115/115/115 114/114/114
f 114/114/114 115/115/115 116/116/116
f 107/107/107 117/117/117 109/109/109
f 118/118/118 117/117/117 107/107/107
f 118/118/118 119/119/119 117/117/117
f 120/120/120 119/119/119 118/118/118
f 121/121/121 120/120/120 118/118/118
f 122/122/122 118/118/118 107/107/107
f 122/122/122 123/123/123 118/118/118
f 123/123/123 124/124/124 118/118/118
f 118/118/118 124/124/124 125/125/125
f 126/126/126 122/122/122 107/107/107
f 107/107/107 127/127/127 126/126/126
f 127/127/127 128/128/128 126/126/126
f 126/126/126 128/128/128 129/129/129
f 128/128/128 130/130/130 129/129/129
f 129/129/129 130/130/130 131/131/131
f 132/132/132 127/127/127 107/107/107
f 133/133/133 132/132/132 107/107/107
f 134/134/134 129/129/129 131/131/131
f 135/135/135 129/129/129 134/134/134
f 136/136/136 135/135/135 134/134/134
f 139/139/139 138/138/138 137/137/137
f 140/140/140 138/138/138 139/139/139
f 141/141/141 140/140/140 139/139/139
f 139/139/139 137/137/137 141/141/141
