g DSJ_GTA_daoJu_xiangZi_04
v -2.000001 0.00982523 0.8499942
v 2 0.00982523 -0.8500048
v -2.000001 0.00982523 -0.8500048
v 2 0.00982523 0.8499942
v -2.000001 1.409828 0.8499942
v 2 1.409828 -0.8500048
v 2 1.409828 0.8499942
v -2.000001 1.409828 -0.8500048
v -2.000001 0.00982523 0.8499942
v 2 1.409828 0.8499942
v 2 0.00982523 0.8499942
v -2.000001 1.409828 0.8499942
v 2 0.00982523 0.8499942
v 2 1.409828 -0.8500048
v 2 0.00982523 -0.8500048
v 2 1.409828 0.8499942
v 2 0.00982523 -0.8500048
v -2.000001 1.409828 -0.8500048
v -2.000001 0.00982523 -0.8500048
v 2 1.409828 -0.8500048
v -2.000001 0.00982523 -0.8500048
v -2.000001 1.409828 0.8499942
v -2.000001 0.00982523 0.8499942
v -2.000001 1.409828 -0.8500048
vt 0.7684299 0.7691396
vt 0.5008885 0.8442467
vt 0.7684299 0.8442467
vt 0.5008885 0.7691396
vt 0.5008885 0.7691396
vt 0.7684299 0.8442467
vt 0.7684299 0.7691396
vt 0.5008885 0.8442467
vt 0.5008885 0.7691396
vt 0.7684299 0.8442467
vt 0.7684299 0.7691396
vt 0.5008885 0.8442467
vt 0.772032 0.8818203
vt 0.8297315 0.9396538
vt 0.8297315 0.8818203
vt 0.772032 0.9396538
vt 0.5008885 0.7691396
vt 0.7684299 0.8442467
vt 0.7684299 0.7691396
vt 0.5008885 0.8442467
vt 0.772032 0.8818203
vt 0.8297315 0.9396538
vt 0.8297315 0.8818203
vt 0.772032 0.9396538
vn 0.003921568 -0.9999924 0
vn 0.003921568 -0.9999924 0
vn 0.003921568 -0.9999924 0
vn 0.003921568 -0.9999924 0
vn 0.003921568 0.9999923 -0.000345267
vn 0.003921568 0.9999923 -0.000345267
vn 0.003921568 0.9999923 -0.000345267
vn 0.003921568 0.9999923 -0.000345267
vn 0.01176465 -0.01176465 0.9998616
vn 0.01176465 -0.01176465 0.9998616
vn 0.01176465 -0.01176465 0.9998616
vn 0.01176465 -0.01176465 0.9998616
vn 0.9999924 -0.003921568 0
vn 0.9999924 -0.003921568 0
vn 0.9999924 -0.003921568 0
vn 0.9999924 -0.003921568 0
vn 0.01176465 -0.01176465 -0.9998616
vn 0.01176465 -0.01176465 -0.9998616
vn 0.01176465 -0.01176465 -0.9998616
vn 0.01176465 -0.01176465 -0.9998616
vn -0.9999923 -0.003921568 -0.0003442513
vn -0.9999923 -0.003921568 -0.0003442513
vn -0.9999923 -0.003921568 -0.0003442513
vn -0.9999923 -0.003921568 -0.0003442513
g DSJ_GTA_daoJu_xiangZi_04_0
f 3/3/3 2/2/2 1/1/1
f 4/4/4 1/1/1 2/2/2
f 7/7/7 6/6/6 5/5/5
f 8/8/8 5/5/5 6/6/6
f 11/11/11 10/10/10 9/9/9
f 12/12/12 9/9/9 10/10/10
f 15/15/15 14/14/14 13/13/13
f 16/16/16 13/13/13 14/14/14
f 19/19/19 18/18/18 17/17/17
f 20/20/20 17/17/17 18/18/18
f 23/23/23 22/22/22 21/21/21
f 24/24/24 21/21/21 22/22/22
