g DSJ_GTA_diLou_16
v 2.462284 -11.93799 -1.131951
v 5.309662 -11.93799 -1.17863
v 2.462284 -7.410187 -1.131951
v 5.309662 -7.410187 -1.17863
v 2.485623 -11.93799 1.085269
v 2.462284 -11.93799 -1.131951
v 2.485623 -7.410187 1.085269
v 2.462284 -7.410187 -1.131951
v 5.333001 -11.93799 1.038591
v 2.485623 -11.93799 1.085269
v 5.333001 -7.410187 1.038591
v 2.485623 -7.410187 1.085269
v 5.309662 -11.93799 -1.17863
v 5.333001 -11.93799 1.038591
v 5.309662 -7.410187 -1.17863
v 5.333001 -7.410187 1.038591
v -5.099607 -7.643579 -1.061934
v -5.052928 -7.643579 1.201965
v 6.78003 -7.643579 -2.462284
v -3.699256 -7.643579 2.438941
v 6.850047 -7.643579 2.298906
v -3.745934 -7.643579 -2.322248
v -3.699256 -5.169627 2.438941
v -5.052928 -5.169627 1.201965
v 6.78003 -5.169627 -2.462284
v -5.099607 -5.169627 -1.061934
v -3.745934 -5.169627 -2.322248
v 6.850047 -5.169627 2.298906
v -4.002666 -11.93799 -0.5951509
v -1.948818 -11.93799 -0.6184893
v -4.002666 -7.410187 -0.5951509
v -1.948818 -7.410187 -0.6184893
v -3.979326 -11.93799 0.7118425
v -4.002666 -11.93799 -0.5951509
v -3.979326 -7.410187 0.7118425
v -4.002666 -7.410187 -0.5951509
v -1.92548 -11.93799 0.6885033
v -3.979326 -11.93799 0.7118425
v -1.92548 -7.410187 0.6885033
v -3.979326 -7.410187 0.7118425
v -1.948818 -11.93799 -0.6184893
v -1.92548 -11.93799 0.6885033
v -1.948818 -7.410187 -0.6184893
v -1.92548 -7.410187 0.6885033
v -0.3617554 -5.239645 -1.482038
v -0.3617554 2.018836 -1.482038
v -5.26298 -5.239645 -1.412022
v -6.826705 0.8285389 -1.388682
v -6.826705 -4.049347 -1.388682
v -5.26298 2.018836 -1.412022
v -5.216302 -5.239645 1.575392
v -6.780026 -4.049347 1.598731
v -0.3384161 -5.239645 1.505374
v -5.216302 2.018836 1.575392
v -0.3384161 2.018836 1.505374
v -6.780026 0.8285389 1.598731
v 0.431776 -5.449697 -1.365343
v 6.056516 -5.449697 -1.435361
v 0.431776 2.065515 -1.365343
v 6.056516 2.065515 -1.435361
v 6.103194 -5.449697 1.295321
v 0.4551153 -5.449697 1.365339
v 6.103194 2.065515 1.295321
v 0.4551153 2.065515 1.365339
v 6.756691 1.855462 1.715427
v 6.710012 1.855462 -1.878805
v -4.656161 1.855462 1.878801
v -4.70284 1.855462 -1.73877
v -4.70284 6.663331 -1.73877
v 6.710012 6.663331 -1.878805
v -4.656161 6.663331 1.878801
v 6.756691 6.663331 1.715427
v -4.70284 1.855462 -1.73877
v 6.710012 1.855462 -1.878805
v -4.70284 6.663331 -1.73877
v 6.710012 6.663331 -1.878805
v -4.656161 1.855462 1.878801
v -4.70284 1.855462 -1.73877
v -4.656161 6.663331 1.878801
v -4.70284 6.663331 -1.73877
v 6.756691 1.855462 1.715427
v -4.656161 1.855462 1.878801
v 6.756691 6.663331 1.715427
v -4.656161 6.663331 1.878801
v 6.710012 1.855462 -1.878805
v 6.756691 1.855462 1.715427
v 6.710012 6.663331 -1.878805
v 6.756691 6.663331 1.715427
v -2.835707 10.51429 -1.17863
v -3.885969 10.51429 -1.155291
v -3.885969 6.569974 -1.155291
v 3.932652 10.51429 -1.271986
v 5.893141 6.569974 -1.295325
v -2.508959 10.72435 -1.17863
v -2.578976 11.12111 -1.17863
v -2.135532 11.49454 -1.17863
v -1.365339 11.75127 -1.201969
v 0.175046 11.93798 -1.201969
v 1.71543 11.91464 -1.225308
v 2.695676 11.77461 -1.248647
v 4.306078 10.77102 -1.271986
v 3.839294 11.49454 -1.248647
v 4.352757 11.14445 -1.271986
v 3.932652 10.51429 -1.271986
v 5.893141 6.569974 -1.295325
v 5.893141 10.51429 -1.295325
v -3.885969 6.569974 -1.155291
v -3.885969 10.51429 -1.155291
v -3.86263 6.569974 1.085269
v -3.86263 10.51429 1.085269
v 5.893141 10.51429 -1.295325
v 5.893141 6.569974 -1.295325
v 5.916481 10.51429 0.9685736
v 5.916481 10.51429 0.9685736
v 5.893141 6.569974 -1.295325
v 5.916481 6.569974 0.9685736
v -3.885969 10.51429 -1.155291
v -2.835707 10.51429 -1.17863
v -3.86263 10.51429 1.085269
v -2.812367 10.51429 1.085269
v 3.932652 10.51429 -1.271986
v 3.95599 10.51429 0.9919128
v 4.329417 10.77102 0.9919128
v 4.306078 10.77102 -1.271986
v 4.306078 10.77102 -1.271986
v 4.329417 10.77102 0.9919128
v 4.376095 11.14445 0.9919128
v 4.352757 11.14445 -1.271986
v 4.352757 11.14445 -1.271986
v 4.376095 11.14445 0.9919128
v 3.862634 11.49454 0.9919128
v 3.839294 11.49454 -1.248647
v 0.1983843 11.93798 1.038591
v 0.175046 11.93798 -1.201969
v 1.71543 11.91464 -1.225308
v 1.73877 11.91464 1.015252
v 1.73877 11.91464 1.015252
v 1.71543 11.91464 -1.225308
v 2.695676 11.77461 -1.248647
v 2.742353 11.77461 1.015252
v 2.742353 11.77461 1.015252
v 2.695676 11.77461 -1.248647
v 3.839294 11.49454 -1.248647
v 3.862634 11.49454 0.9919128
v 3.932652 10.51429 -1.271986
v 5.893141 10.51429 -1.295325
v 3.95599 10.51429 0.9919128
v 5.916481 10.51429 0.9685736
v -2.812367 10.51429 1.085269
v -2.835707 10.51429 -1.17863
v -2.508959 10.72435 -1.17863
v -2.46228 10.72435 1.061931
v -2.46228 10.72435 1.061931
v -2.508959 10.72435 -1.17863
v -2.578976 11.12111 -1.17863
v -2.46228 10.72435 1.061931
v -2.578976 11.12111 -1.17863
v -2.555637 11.12111 1.085269
v -2.555637 11.12111 1.085269
v -2.578976 11.12111 -1.17863
v -2.135532 11.49454 -1.17863
v -2.112193 11.49454 1.061931
v -2.112193 11.49454 1.061931
v -2.135532 11.49454 -1.17863
v -1.365339 11.75127 -1.201969
v -1.342 11.75127 1.061931
v -1.342 11.75127 1.061931
v -1.365339 11.75127 -1.201969
v 0.175046 11.93798 -1.201969
v 0.1983843 11.93798 1.038591
v 3.95599 10.51429 0.9919128
v 5.916481 10.51429 0.9685736
v 5.916481 6.569974 0.9685736
v -2.812367 10.51429 1.085269
v -3.86263 6.569974 1.085269
v -3.86263 10.51429 1.085269
v -2.46228 10.72435 1.061931
v -2.555637 11.12111 1.085269
v -2.112193 11.49454 1.061931
v -1.342 11.75127 1.061931
v 0.1983843 11.93798 1.038591
v 1.73877 11.91464 1.015252
v 2.742353 11.77461 1.015252
v 3.862634 11.49454 0.9919128
v 4.376095 11.14445 0.9919128
v 4.329417 10.77102 0.9919128
v -0.3384161 -5.239645 1.505374
v -0.3617554 -5.239645 -1.482038
v -5.216302 -5.239645 1.575392
v -5.26298 -5.239645 -1.412022
vt 0.2390558 0.4750996
vt 0.2390558 0.4867083
vt 0.006881624 0.4750996
vt 0.006881624 0.4867083
vt 0.2390558 0.4867083
vt 0.2390558 0.4750996
vt 0.006881624 0.4867083
vt 0.006881624 0.4750996
vt 0.2390558 0.4750996
vt 0.2390558 0.4867083
vt 0.006881624 0.4750996
vt 0.006881624 0.4867083
vt 0.2390558 0.4867083
vt 0.2390558 0.4750996
vt 0.006881624 0.4867083
vt 0.006881624 0.4750996
vt 0.1887514 0.9742742
vt 0.1887514 0.9510567
vt 0.1616644 0.9897524
vt 0.1848819 0.9355785
vt 0.1616644 0.9355785
vt 0.1848819 0.9897524
vt 0.1848819 0.9897524
vt 0.1887514 0.9742742
vt 0.1616644 0.9355785
vt 0.1887514 0.9510567
vt 0.1848819 0.9355785
vt 0.1616644 0.9897524
vt 0.2390558 0.4750996
vt 0.2390558 0.4867083
vt 0.006881624 0.4750996
vt 0.006881624 0.4867083
vt 0.2390558 0.4867083
vt 0.2390558 0.4750996
vt 0.006881624 0.4867083
vt 0.006881624 0.4750996
vt 0.2390558 0.4750996
vt 0.2390558 0.4867083
vt 0.006881624 0.4750996
vt 0.006881624 0.4867083
vt 0.2390558 0.4867083
vt 0.2390558 0.4750996
vt 0.006881624 0.4867083
vt 0.006881624 0.4750996
vt 0.6105345 0.8272305
vt 0.6105345 0.9820133
vt 0.6917956 0.8272305
vt 0.7188826 0.9549264
vt 0.7188826 0.8504479
vt 0.6917956 0.9820133
vt 0.6917956 0.8272305
vt 0.7188826 0.8504479
vt 0.6105345 0.8272305
vt 0.6917956 0.9820133
vt 0.6105345 0.9820133
vt 0.7188826 0.9549264
vt 0.660839 0.2506645
vt 0.660839 0.1461861
vt 0.5524911 0.2506645
vt 0.5524911 0.1461861
vt 0.660839 0.2506645
vt 0.660839 0.1461861
vt 0.5524911 0.2506645
vt 0.5524911 0.1461861
vt 0.3203168 0.4596213
vt 0.3396647 0.4596213
vt 0.3203168 0.2816211
vt 0.3396647 0.2816211
vt 0.3396647 0.4596213
vt 0.3396647 0.2816211
vt 0.3203168 0.4596213
vt 0.3203168 0.2816211
vt 0.5408823 0.08427303
vt 0.3009689 0.08427303
vt 0.5408823 0.2506645
vt 0.3009689 0.2506645
vt 0.3203168 0.4596213
vt 0.3396647 0.4596213
vt 0.3203168 0.2816211
vt 0.3396647 0.2816211
vt 0.5408823 0.08427303
vt 0.3009689 0.08427303
vt 0.5408823 0.2506645
vt 0.3009689 0.2506645
vt 0.3396647 0.2816211
vt 0.3203168 0.2816211
vt 0.3396647 0.4596213
vt 0.3203168 0.4596213
vt 0.219708 0.6801869
vt 0.246795 0.6801869
vt 0.246795 0.498317
vt 0.0494469 0.6801869
vt 0.006881624 0.498317
vt 0.2119688 0.6917956
vt 0.2158384 0.7111434
vt 0.2042297 0.7227521
vt 0.1848819 0.7382303
vt 0.1461861 0.7421
vt 0.1036209 0.7421
vt 0.08427303 0.7382303
vt 0.04557732 0.6917956
vt 0.05331647 0.7227521
vt 0.04170775 0.7111434
vt 0.0494469 0.6801869
vt 0.006881624 0.498317
vt 0.006881624 0.6801869
vt 0.3203168 0.273882
vt 0.3203168 0.4557518
vt 0.3396647 0.273882
vt 0.3396647 0.4557518
vt 0.3203168 0.273882
vt 0.3203168 0.4557518
vt 0.3396647 0.273882
vt 0.3396647 0.273882
vt 0.3203168 0.4557518
vt 0.3396647 0.4557518
vt 0.3203168 0.4054474
vt 0.3203168 0.4557518
vt 0.3396647 0.4054474
vt 0.3396647 0.4557518
vt 0.3203168 0.3667516
vt 0.3396647 0.3667516
vt 0.3396647 0.3474038
vt 0.3203168 0.3474038
vt 0.3203168 0.3474038
vt 0.3396647 0.3474038
vt 0.3396647 0.3241864
vt 0.3203168 0.3241864
vt 0.3203168 0.3241864
vt 0.3396647 0.3241864
vt 0.3396647 0.3009689
vt 0.3203168 0.3009689
vt 0.3396647 0.2854907
vt 0.3203168 0.2854907
vt 0.3203168 0.355143
vt 0.3396647 0.355143
vt 0.3396647 0.355143
vt 0.3203168 0.355143
vt 0.3203168 0.4015778
vt 0.3396647 0.4015778
vt 0.3396647 0.4015778
vt 0.3203168 0.4015778
vt 0.3203168 0.4557518
vt 0.3396647 0.4557518
vt 0.3203168 0.3667516
vt 0.3203168 0.4557518
vt 0.3396647 0.3667516
vt 0.3396647 0.4557518
vt 0.3396647 0.2854907
vt 0.3203168 0.2854907
vt 0.3203168 0.3048385
vt 0.3396647 0.3048385
vt 0.3396647 0.3048385
vt 0.3203168 0.3048385
vt 0.3203168 0.3203168
vt 0.3396647 0.3048385
vt 0.3203168 0.3203168
vt 0.3396647 0.3203168
vt 0.3396647 0.3203168
vt 0.3203168 0.3203168
vt 0.3203168 0.3512734
vt 0.3396647 0.3512734
vt 0.3396647 0.3512734
vt 0.3203168 0.3512734
vt 0.3203168 0.3860995
vt 0.3396647 0.3860995
vt 0.3396647 0.3860995
vt 0.3203168 0.3860995
vt 0.3203168 0.4557518
vt 0.3396647 0.4557518
vt 0.05331647 0.6801869
vt 0.006881624 0.6801869
vt 0.006881624 0.5021866
vt 0.2235776 0.6801869
vt 0.246795 0.5099257
vt 0.246795 0.6801869
vt 0.2119688 0.6917956
vt 0.2158384 0.7072738
vt 0.2042297 0.7227521
vt 0.1848819 0.7343608
vt 0.1461861 0.7421
vt 0.11136 0.7421
vt 0.08427303 0.7382303
vt 0.05331647 0.7227521
vt 0.04557732 0.7072738
vt 0.04557732 0.6917956
vt 0.1887514 0.5292736
vt 0.1887514 0.5215344
vt 0.1694036 0.5292736
vt 0.1694036 0.5215344
vn 0.04761302 -0.04761302 -0.9977304
vn 0.04761302 -0.04761302 -0.9977304
vn 0.04761302 -0.04761302 -0.9977304
vn 0.04761302 -0.04761302 -0.9977304
vn -0.968132 -0.04761302 0.2458728
vn -0.968132 -0.04761302 0.2458728
vn -0.968132 -0.04761302 0.2458728
vn -0.968132 -0.04761302 0.2458728
vn 0.04761302 -0.04761302 0.9977304
vn 0.04761302 -0.04761302 0.9977304
vn 0.04761302 -0.04761302 0.9977304
vn 0.04761302 -0.04761302 0.9977304
vn 0.999874 -0.01587099 -0.000346655
vn 0.999874 -0.01587099 -0.000346655
vn 0.999874 -0.01587099 -0.000346655
vn 0.999874 -0.01587099 -0.000346655
vn 0.01587099 -0.999874 -0.000345267
vn 0.01587099 -0.999874 -0.000345267
vn 0.01587099 -0.999874 -0.000345267
vn 0.01587099 -0.999874 -0.000345267
vn 0.01587099 -0.999874 -0.000345267
vn 0.01587099 -0.999874 -0.000345267
vn 0.01587099 0.999874 -0.000345267
vn 0.01587099 0.999874 -0.000345267
vn 0.01587099 0.999874 -0.000345267
vn 0.01587099 0.999874 -0.000345267
vn 0.01587099 0.999874 -0.000345267
vn 0.01587099 0.999874 -0.000345267
vn 0.04761302 -0.04761302 -0.9977304
vn 0.04761302 -0.04761302 -0.9977304
vn 0.04761302 -0.04761302 -0.9977304
vn 0.04761302 -0.04761302 -0.9977304
vn -0.968132 -0.04761302 0.2458728
vn -0.968132 -0.04761302 0.2458728
vn -0.968132 -0.04761302 0.2458728
vn -0.968132 -0.04761302 0.2458728
vn 0.04761302 -0.04761302 0.9977304
vn 0.04761302 -0.04761302 0.9977304
vn 0.04761302 -0.04761302 0.9977304
vn 0.04761302 -0.04761302 0.9977304
vn 0.999874 -0.01587099 -0.000346655
vn 0.999874 -0.01587099 -0.000346655
vn 0.999874 -0.01587099 -0.000346655
vn 0.999874 -0.01587099 -0.000346655
vn 0.04761302 -0.04761302 -0.9977304
vn 0.04761302 -0.04761302 -0.9977304
vn 0.04761302 -0.04761302 -0.9977304
vn 0.04761302 -0.04761302 -0.9977304
vn 0.04761302 -0.04761302 -0.9977304
vn 0.04761302 -0.04761302 -0.9977304
vn 0.04761302 -0.04761302 0.9977304
vn 0.04761302 -0.04761302 0.9977304
vn 0.04761302 -0.04761302 0.9977304
vn 0.04761302 -0.04761302 0.9977304
vn 0.04761302 -0.04761302 0.9977304
vn 0.04761302 -0.04761302 0.9977304
vn 0.04761302 -0.04761302 -0.9977304
vn 0.04761302 -0.04761302 -0.9977304
vn 0.04761302 -0.04761302 -0.9977304
vn 0.04761302 -0.04761302 -0.9977304
vn 0.04761302 -0.04761302 0.9977304
vn 0.04761302 -0.04761302 0.9977304
vn 0.04761302 -0.04761302 0.9977304
vn 0.04761302 -0.04761302 0.9977304
vn 0.01587099 -0.999874 -0.000345267
vn 0.01587099 -0.999874 -0.000345267
vn 0.01587099 -0.999874 -0.000345267
vn 0.01587099 -0.999874 -0.000345267
vn 0.01587099 0.999874 -0.000345267
vn 0.01587099 0.999874 -0.000345267
vn 0.01587099 0.999874 -0.000345267
vn 0.01587099 0.999874 -0.000345267
vn 0.04761302 -0.04761302 -0.9977304
vn 0.04761302 -0.04761302 -0.9977304
vn 0.04761302 -0.04761302 -0.9977304
vn 0.04761302 -0.04761302 -0.9977304
vn -0.968132 -0.04761302 0.2458728
vn -0.968132 -0.04761302 0.2458728
vn -0.968132 -0.04761302 0.2458728
vn -0.968132 -0.04761302 0.2458728
vn 0.04761302 -0.04761302 0.9977304
vn 0.04761302 -0.04761302 0.9977304
vn 0.04761302 -0.04761302 0.9977304
vn 0.04761302 -0.04761302 0.9977304
vn 0.999874 -0.01587099 -0.000346655
vn 0.999874 -0.01587099 -0.000346655
vn 0.999874 -0.01587099 -0.000346655
vn 0.999874 -0.01587099 -0.000346655
vn 0.04761302 -0.04761302 -0.9977304
vn 0.04761302 -0.04761302 -0.9977304
vn 0.04761302 -0.04761302 -0.9977304
vn 0.04761302 -0.04761302 -0.9977304
vn 0.04761302 -0.04761302 -0.9977304
vn 0.04761302 -0.04761302 -0.9977304
vn 0.04761302 -0.04761302 -0.9977304
vn 0.04761302 -0.04761302 -0.9977304
vn 0.04761302 -0.04761302 -0.9977304
vn 0.04761302 -0.04761302 -0.9977304
vn 0.04761302 -0.04761302 -0.9977304
vn 0.04761302 -0.04761302 -0.9977304
vn 0.04761302 -0.04761302 -0.9977304
vn 0.04761302 -0.04761302 -0.9977304
vn 0.04761302 -0.04761302 -0.9977304
vn 0.04761302 -0.04761302 -0.9977304
vn 0.04761302 -0.04761302 -0.9977304
vn 0.04761302 -0.04761302 -0.9977304
vn -0.968132 -0.04761302 0.2458728
vn -0.968132 -0.04761302 0.2458728
vn -0.968132 -0.04761302 0.2458728
vn -0.968132 -0.04761302 0.2458728
vn 0.999874 -0.01587099 -0.000346655
vn 0.999874 -0.01587099 -0.000346655
vn 0.999874 -0.01587099 -0.000346655
vn 0.999874 -0.01587099 -0.000346655
vn 0.999874 -0.01587099 -0.000346655
vn 0.999874 -0.01587099 -0.000346655
vn 0.01587099 0.999874 -0.000345267
vn 0.01587099 0.999874 -0.000345267
vn 0.01587099 0.999874 -0.000345267
vn 0.01587099 0.999874 -0.000345267
vn 0.5724236 -0.819958 0
vn 0.5724236 -0.819958 0
vn 0.5724236 -0.819958 0
vn 0.5724236 -0.819958 0
vn 0.9938838 -0.1104315 0
vn 0.9938838 -0.1104315 0
vn 0.9938838 -0.1104315 0
vn 0.9938838 -0.1104315 0
vn 0.6074501 0.7943578 0
vn 0.6074501 0.7943578 0
vn 0.6074501 0.7943578 0
vn 0.6074501 0.7943578 0
vn 0.04761302 0.968132 -0.2458728
vn 0.04761302 0.968132 -0.2458728
vn 0.04761302 0.968132 -0.2458728
vn 0.04761302 0.968132 -0.2458728
vn 0.2063232 0.968132 -0.1419547
vn 0.2063232 0.968132 -0.1419547
vn 0.2063232 0.968132 -0.1419547
vn 0.2063232 0.968132 -0.1419547
vn 0.2684582 0.9632913 0
vn 0.2684582 0.9632913 0
vn 0.2684582 0.9632913 0
vn 0.2684582 0.9632913 0
vn 0.01587099 0.999874 -0.000345267
vn 0.01587099 0.999874 -0.000345267
vn 0.01587099 0.999874 -0.000345267
vn 0.01587099 0.999874 -0.000345267
vn -0.5237435 0.8411639 0.1346703
vn -0.5237435 0.8411639 0.1346703
vn -0.5237435 0.8411639 0.1346703
vn -0.5237435 0.8411639 0.1346703
vn -0.9632913 -0.2684582 0
vn -0.9632913 -0.2684582 0
vn -0.9632913 -0.2684582 0
vn -0.9632913 -0.2684582 0
vn -0.9632913 -0.2684582 0
vn -0.9632913 -0.2684582 0
vn -0.6189697 0.7776798 0.1099576
vn -0.6189697 0.7776798 0.1099576
vn -0.6189697 0.7776798 0.1099576
vn -0.6189697 0.7776798 0.1099576
vn -0.3015493 0.9363899 0.1795602
vn -0.3015493 0.9363899 0.1795602
vn -0.3015493 0.9363899 0.1795602
vn -0.3015493 0.9363899 0.1795602
vn -0.1110971 0.968132 0.2244501
vn -0.1110971 0.968132 0.2244501
vn -0.1110971 0.968132 0.2244501
vn -0.1110971 0.968132 0.2244501
vn 0.04761302 -0.04761302 0.9977304
vn 0.04761302 -0.04761302 0.9977304
vn 0.04761302 -0.04761302 0.9977304
vn 0.04761302 -0.04761302 0.9977304
vn 0.04761302 -0.04761302 0.9977304
vn 0.04761302 -0.04761302 0.9977304
vn 0.04761302 -0.04761302 0.9977304
vn 0.04761302 -0.04761302 0.9977304
vn 0.04761302 -0.04761302 0.9977304
vn 0.04761302 -0.04761302 0.9977304
vn 0.04761302 -0.04761302 0.9977304
vn 0.04761302 -0.04761302 0.9977304
vn 0.04761302 -0.04761302 0.9977304
vn 0.04761302 -0.04761302 0.9977304
vn 0.04761302 -0.04761302 0.9977304
vn 0.04761302 -0.04761302 0.9977304
vn 0.01587099 -0.999874 -0.000345267
vn 0.01587099 -0.999874 -0.000345267
vn 0.01587099 -0.999874 -0.000345267
vn 0.01587099 -0.999874 -0.000345267
g DSJ_GTA_diLou_16_0
f 3/3/3 2/2/2 1/1/1
f 4/4/4 2/2/2 3/3/3
f 7/7/7 6/6/6 5/5/5
f 8/8/8 6/6/6 7/7/7
f 11/11/11 10/10/10 9/9/9
f 12/12/12 10/10/10 11/11/11
f 15/15/15 14/14/14 13/13/13
f 16/16/16 14/14/14 15/15/15
f 19/19/19 18/18/18 17/17/17
f 20/20/20 18/18/18 19/19/19
f 21/21/21 20/20/20 19/19/19
f 22/22/22 19/19/19 17/17/17
f 25/25/25 24/24/24 23/23/23
f 26/26/26 24/24/24 25/25/25
f 27/27/27 26/26/26 25/25/25
f 28/28/28 25/25/25 23/23/23
f 31/31/31 30/30/30 29/29/29
f 32/32/32 30/30/30 31/31/31
f 35/35/35 34/34/34 33/33/33
f 36/36/36 34/34/34 35/35/35
f 39/39/39 38/38/38 37/37/37
f 40/40/40 38/38/38 39/39/39
f 43/43/43 42/42/42 41/41/41
f 44/44/44 42/42/42 43/43/43
f 47/47/47 46/46/46 45/45/45
f 48/48/48 46/46/46 47/47/47
f 49/49/49 48/48/48 47/47/47
f 46/46/46 48/48/48 50/50/50
f 53/53/53 52/52/52 51/51/51
f 54/54/54 52/52/52 53/53/53
f 55/55/55 54/54/54 53/53/53
f 52/52/52 54/54/54 56/56/56
f 59/59/59 58/58/58 57/57/57
f 60/60/60 58/58/58 59/59/59
f 63/63/63 62/62/62 61/61/61
f 64/64/64 62/62/62 63/63/63
f 67/67/67 66/66/66 65/65/65
f 68/68/68 66/66/66 67/67/67
f 71/71/71 70/70/70 69/69/69
f 72/72/72 70/70/70 71/71/71
f 75/75/75 74/74/74 73/73/73
f 76/76/76 74/74/74 75/75/75
f 79/79/79 78/78/78 77/77/77
f 80/80/80 78/78/78 79/79/79
f 83/83/83 82/82/82 81/81/81
f 84/84/84 82/82/82 83/83/83
f 87/87/87 86/86/86 85/85/85
f 88/88/88 86/86/86 87/87/87
f 91/91/91 90/90/90 89/89/89
f 92/92/92 91/91/91 89/89/89
f 93/93/93 91/91/91 92/92/92
f 89/89/89 94/94/94 92/92/92
f 94/94/94 95/95/95 92/92/92
f 92/92/92 95/95/95 96/96/96
f 96/96/96 97/97/97 92/92/92
f 92/92/92 97/97/97 98/98/98
f 98/98/98 99/99/99 92/92/92
f 99/99/99 100/100/100 92/92/92
f 92/92/92 100/100/100 101/101/101
f 100/100/100 102/102/102 101/101/101
f 101/101/101 102/102/102 103/103/103
f 106/106/106 105/105/105 104/104/104
f 109/109/109 108/108/108 107/107/107
f 110/110/110 108/108/108 109/109/109
f 113/113/113 112/112/112 111/111/111
f 116/116/116 115/115/115 114/114/114
f 119/119/119 118/118/118 117/117/117
f 120/120/120 118/118/118 119/119/119
f 123/123/123 122/122/122 121/121/121
f 124/124/124 123/123/123 121/121/121
f 127/127/127 126/126/126 125/125/125
f 128/128/128 127/127/127 125/125/125
f 131/131/131 130/130/130 129/129/129
f 132/132/132 131/131/131 129/129/129
f 135/135/135 134/134/134 133/133/133
f 136/136/136 135/135/135 133/133/133
f 139/139/139 138/138/138 137/137/137
f 140/140/140 139/139/139 137/137/137
f 143/143/143 142/142/142 141/141/141
f 144/144/144 143/143/143 141/141/141
f 147/147/147 146/146/146 145/145/145
f 148/148/148 146/146/146 147/147/147
f 151/151/151 150/150/150 149/149/149
f 152/152/152 151/151/151 149/149/149
f 155/155/155 154/154/154 153/153/153
f 158/158/158 157/157/157 156/156/156
f 161/161/161 160/160/160 159/159/159
f 162/162/162 161/161/161 159/159/159
f 165/165/165 164/164/164 163/163/163
f 166/166/166 165/165/165 163/163/163
f 169/169/169 168/168/168 167/167/167
f 170/170/170 169/169/169 167/167/167
f 173/173/173 172/172/172 171/171/171
f 174/174/174 173/173/173 171/171/171
f 175/175/175 173/173/173 174/174/174
f 176/176/176 175/175/175 174/174/174
f 171/171/171 177/177/177 174/174/174
f 178/178/178 177/177/177 171/171/171
f 179/179/179 178/178/178 171/171/171
f 171/171/171 180/180/180 179/179/179
f 181/181/181 180/180/180 171/171/171
f 182/182/182 181/181/181 171/171/171
f 182/182/182 171/171/171 183/183/183
f 171/171/171 184/184/184 183/183/183
f 185/185/185 184/184/184 171/171/171
f 186/186/186 185/185/185 171/171/171
f 189/189/189 188/188/188 187/187/187
f 190/190/190 188/188/188 189/189/189
