g DSJ_GTA_daoJu_cheLun_02
v -0.4520742 0.05775511 0.06579238
v -0.2514677 0.005849868 0.2869484
v -0.384867 0.005724847 0.05519503
v -0.2949865 0.05842078 0.3378077
v -0.4520742 0.1818928 0.06579238
v -0.2949865 0.05842078 0.3378077
v -0.4520742 0.05775511 0.06579238
v -0.2949865 0.1812271 0.3378077
v -0.3974493 0.05787498 -0.2433369
v -0.384867 0.005724847 0.05519503
v -0.3383967 0.005528241 -0.2081149
v -0.4520742 0.05775511 0.06579238
v -0.3974493 0.05787498 -0.2433369
v -0.4520742 0.1818928 0.06579238
v -0.4520742 0.05775511 0.06579238
v -0.3974493 0.1817729 -0.2433369
v -0.237273 0.01350427 -0.1511196
v -0.384867 0.005724847 0.05519503
v -0.2700212 0.01328695 0.03348997
v -0.3383967 0.005528241 -0.2081149
v -0.1764131 0.01363015 0.1961418
v -0.2514677 0.005849868 0.2869484
v -0.09356093 0.01363015 -0.2716237
v -0.1334841 0.005849868 -0.3799948
v 0.09410456 0.01328695 -0.2713624
v 0.1339199 0.005724847 -0.3796455
v -0.0001968145 0.01350427 0.2603499
v -0.0001597404 0.005528241 0.3784673
v 0.2511094 0.005724847 0.2870562
v 0.1760522 0.01328695 0.1964057
v 0.2701104 0.01363015 0.03401336
v 0.3851132 0.005849868 0.05565375
v 0.2376088 0.01350427 -0.150698
v 0.3387178 0.005528241 -0.2077449
v -0.2700212 0.01328695 0.03348997
v -0.1764131 0.2260195 0.1961418
v -0.2700212 0.226361 0.03348997
v -0.1764131 0.01363015 0.1961418
v -0.384867 0.2339231 0.05519503
v -0.2949865 0.1812271 0.3378077
v -0.4520742 0.1818928 0.06579238
v -0.2514677 0.233798 0.2869484
v -0.3383976 0.2341197 -0.2081149
v -0.4520742 0.1818928 0.06579238
v -0.3974493 0.1817729 -0.2433369
v -0.384867 0.2339231 0.05519503
v -0.2700212 0.226361 0.03348997
v -0.3383976 0.2341197 -0.2081149
v -0.237273 0.2261437 -0.1511196
v -0.384867 0.2339231 0.05519503
v -0.1764131 0.2260195 0.1961418
v -0.2514677 0.233798 0.2869484
v -0.09356093 0.2260195 -0.2716246
v -0.1334841 0.233798 -0.3799948
v 0.09410456 0.226361 -0.2713633
v 0.1339199 0.2339231 -0.3796447
v -0.0001597404 0.2341197 0.3784673
v -0.0001968145 0.2261437 0.2603499
v 0.1760522 0.226361 0.1964057
v 0.2511094 0.2339231 0.2870562
v 0.2701104 0.2260195 0.03401336
v 0.3851132 0.233798 0.05565375
v 0.237608 0.2261437 -0.150698
v 0.3387178 0.2341197 -0.2077458
v -0.237273 0.2261437 -0.1511196
v -0.2700212 0.01328695 0.03348997
v -0.2700212 0.226361 0.03348997
v -0.237273 0.01350427 -0.1511196
v -0.3383967 0.005528241 -0.2081149
v -0.1569585 0.05842078 -0.4451436
v -0.3974493 0.05787498 -0.2433369
v -0.1334841 0.005849868 -0.3799948
v -0.3974493 0.05787498 -0.2433369
v -0.1569585 0.1812271 -0.4451436
v -0.3974493 0.1817729 -0.2433369
v -0.1569585 0.05842078 -0.4451436
v -0.1334841 0.005849868 -0.3799948
v 0.1571564 0.05775511 -0.4451764
v -0.1569585 0.05842078 -0.4451436
v 0.1339199 0.005724847 -0.3796455
v -0.09356093 0.01363015 -0.2716237
v -0.237273 0.2261437 -0.1511196
v -0.09356093 0.2260195 -0.2716246
v -0.237273 0.01350427 -0.1511196
v -0.09356093 0.01363015 -0.2716237
v 0.09410456 0.226361 -0.2713633
v 0.09410456 0.01328695 -0.2713624
v -0.09356093 0.2260195 -0.2716246
v -0.1569585 0.1812271 -0.4451436
v -0.3383976 0.2341197 -0.2081149
v -0.3974493 0.1817729 -0.2433369
v -0.1334841 0.233798 -0.3799948
v -0.1569585 0.1812271 -0.4451436
v 0.1339199 0.2339231 -0.3796447
v -0.1334841 0.233798 -0.3799948
v 0.1571564 0.1818928 -0.4451772
v -0.1569585 0.05842078 -0.4451436
v 0.1571564 0.1818928 -0.4451772
v -0.1569585 0.1812271 -0.4451436
v 0.1571564 0.05775511 -0.4451764
v 0.2950533 0.05775511 0.3379164
v 0.3851132 0.005849868 0.05565375
v 0.2511094 0.005724847 0.2870562
v 0.4520814 0.05842078 0.06586736
v 0.2950533 0.1818928 0.3379164
v 0.4520814 0.05842078 0.06586736
v 0.2950533 0.05775511 0.3379164
v 0.4520814 0.1812271 0.06586736
v 2.735853E-05 0.05787498 0.445176
v 0.2511094 0.005724847 0.2870562
v -0.0001597404 0.005528241 0.3784673
v 0.2950533 0.05775511 0.3379164
v 2.735853E-05 0.05787498 0.445176
v 0.2950533 0.1818928 0.3379164
v 0.2950533 0.05775511 0.3379164
v 2.735853E-05 0.1817729 0.445176
v 0.1760522 0.01328695 0.1964057
v 0.2701104 0.2260195 0.03401336
v 0.1760522 0.226361 0.1964057
v 0.2701104 0.01363015 0.03401336
v 0.2511094 0.2339231 0.2870562
v 0.4520814 0.1812271 0.06586736
v 0.2950533 0.1818928 0.3379164
v 0.3851132 0.233798 0.05565375
v -0.0001597404 0.2341197 0.3784673
v 0.2950533 0.1818928 0.3379164
v 2.735853E-05 0.1817729 0.445176
v 0.2511094 0.2339231 0.2870562
v -0.0001968145 0.2261437 0.2603499
v 0.1760522 0.01328695 0.1964057
v 0.1760522 0.226361 0.1964057
v -0.0001968145 0.01350427 0.2603499
v -0.0001597404 0.005528241 0.3784673
v -0.2949865 0.05842078 0.3378077
v 2.735853E-05 0.05787498 0.445176
v -0.2514677 0.005849868 0.2869484
v 2.735853E-05 0.05787498 0.445176
v -0.2949865 0.1812271 0.3378077
v 2.735853E-05 0.1817729 0.445176
v -0.2949865 0.05842078 0.3378077
v -0.1764131 0.01363015 0.1961418
v -0.0001968145 0.2261437 0.2603499
v -0.1764131 0.2260195 0.1961418
v -0.0001968145 0.01350427 0.2603499
v -0.2949865 0.1812271 0.3378077
v -0.0001597404 0.2341197 0.3784673
v 2.735853E-05 0.1817729 0.445176
v -0.2514677 0.233798 0.2869484
v 0.3387178 0.005528241 -0.2077449
v 0.4520814 0.05842078 0.06586736
v 0.3975583 0.05787498 -0.2433067
v 0.3851132 0.005849868 0.05565375
v 0.3975583 0.05787498 -0.2433067
v 0.4520814 0.1812271 0.06586736
v 0.3975583 0.1817729 -0.2433067
v 0.4520814 0.05842078 0.06586736
v 0.2376088 0.01350427 -0.150698
v 0.2701104 0.2260195 0.03401336
v 0.2701104 0.01363015 0.03401336
v 0.237608 0.2261437 -0.150698
v 0.4520814 0.1812271 0.06586736
v 0.3387178 0.2341197 -0.2077458
v 0.3975583 0.1817729 -0.2433067
v 0.3851132 0.233798 0.05565375
v 0.3975583 0.05787498 -0.2433067
v 0.1339199 0.005724847 -0.3796455
v 0.3387178 0.005528241 -0.2077449
v 0.1571564 0.05775511 -0.4451764
v 0.3975583 0.05787498 -0.2433067
v 0.1571564 0.1818928 -0.4451772
v 0.1571564 0.05775511 -0.4451764
v 0.3975583 0.1817729 -0.2433067
v 0.3387178 0.2341197 -0.2077458
v 0.1571564 0.1818928 -0.4451772
v 0.3975583 0.1817729 -0.2433067
v 0.1339199 0.2339231 -0.3796447
v 0.09410456 0.226361 -0.2713633
v 0.2376088 0.01350427 -0.150698
v 0.09410456 0.01328695 -0.2713624
v 0.237608 0.2261437 -0.150698
vt 0.1561549 0.4199091
vt 0.1665001 0.3897337
vt 0.1665001 0.4199091
vt 0.1561549 0.3897337
vt 0.1339536 0.4199091
vt 0.1561549 0.3897337
vt 0.1561549 0.4199091
vt 0.1339536 0.3897337
vt 0.1561549 0.3898338
vt 0.1665001 0.4199091
vt 0.1665001 0.3898338
vt 0.1561549 0.4199091
vt 0.1561549 0.3898338
vt 0.1339536 0.4199091
vt 0.1561549 0.4199091
vt 0.1339536 0.3898338
vt 0.4306145 0.3218692
vt 0.4007393 0.3307437
vt 0.419829 0.3326247
vt 0.4181082 0.3134149
vt 0.423641 0.3448309
vt 0.4068924 0.3503937
vt 0.4509449 0.317587
vt 0.4508848 0.3065214
vt 0.4713252 0.3217992
vt 0.4837216 0.3133048
vt 0.4402894 0.3527649
vt 0.4337161 0.3631802
vt 0.4686539 0.3631302
vt 0.4619505 0.3527349
vt 0.4785289 0.3447408
vt 0.4953274 0.3502436
vt 0.4822108 0.3325146
vt 0.5012805 0.3305536
vt 0.2792975 0.7418128
vt 0.2859809 0.7779112
vt 0.2792775 0.7780013
vt 0.2858809 0.7418329
vt 0.1236583 0.4199091
vt 0.1339536 0.3897337
vt 0.1339536 0.4199091
vt 0.1236583 0.3897337
vt 0.1236583 0.3898338
vt 0.1339536 0.4199091
vt 0.1339536 0.3898338
vt 0.1236583 0.4199091
vt 0.419829 0.3326247
vt 0.4069124 0.3503937
vt 0.423661 0.3448309
vt 0.4007393 0.3307437
vt 0.4306045 0.3218692
vt 0.4180982 0.3134049
vt 0.4402894 0.3527749
vt 0.4337161 0.3631902
vt 0.4619705 0.3527349
vt 0.4686539 0.3631302
vt 0.4508848 0.3065214
vt 0.4509248 0.317597
vt 0.4713152 0.3217992
vt 0.4837216 0.3133048
vt 0.4822208 0.3325146
vt 0.5013005 0.3305536
vt 0.4785189 0.3447308
vt 0.4953174 0.3502436
vt 0.2926443 0.7791119
vt 0.2792975 0.7418128
vt 0.2792775 0.7780013
vt 0.2924442 0.7404922
vt 0.1665001 0.419829
vt 0.1561549 0.3897337
vt 0.1561549 0.419829
vt 0.1665001 0.3897337
vt 0.1561549 0.419829
vt 0.1339536 0.3897337
vt 0.1339536 0.419829
vt 0.1561549 0.3897337
vt 0.1665001 0.3897337
vt 0.1561549 0.4199091
vt 0.1561549 0.3897337
vt 0.1665001 0.4199091
vt 0.2858809 0.7418329
vt 0.2727342 0.7793419
vt 0.2859809 0.7779112
vt 0.2728443 0.7404221
vt 0.2858809 0.7418329
vt 0.2792775 0.7780013
vt 0.2792975 0.7418128
vt 0.2859809 0.7779112
vt 0.1339536 0.3897337
vt 0.1236583 0.419829
vt 0.1339536 0.419829
vt 0.1236583 0.3897337
vt 0.1339536 0.3897337
vt 0.1236583 0.4199091
vt 0.1236583 0.3897337
vt 0.1339536 0.4199091
vt 0.1561549 0.3897337
vt 0.1339536 0.4199091
vt 0.1339536 0.3897337
vt 0.1561549 0.4199091
vt 0.1561549 0.4199091
vt 0.1665001 0.3897337
vt 0.1665001 0.4199091
vt 0.1561549 0.3897337
vt 0.1339536 0.4199091
vt 0.1561549 0.3897337
vt 0.1561549 0.4199091
vt 0.1339536 0.3897337
vt 0.1561549 0.3898338
vt 0.1665001 0.4199091
vt 0.1665001 0.3898338
vt 0.1561549 0.4199091
vt 0.1561549 0.3898338
vt 0.1339536 0.4199091
vt 0.1561549 0.4199091
vt 0.1339536 0.3898338
vt 0.2792975 0.7418128
vt 0.2859809 0.7779112
vt 0.2792775 0.7780013
vt 0.2858809 0.7418329
vt 0.1236583 0.4199091
vt 0.1339536 0.3897337
vt 0.1339536 0.4199091
vt 0.1236583 0.3897337
vt 0.1236583 0.3898338
vt 0.1339536 0.4199091
vt 0.1339536 0.3898338
vt 0.1236583 0.4199091
vt 0.2926443 0.7791119
vt 0.2792975 0.7418128
vt 0.2792775 0.7780013
vt 0.2924442 0.7404922
vt 0.1665001 0.419829
vt 0.1561549 0.3897337
vt 0.1561549 0.419829
vt 0.1665001 0.3897337
vt 0.1561549 0.419829
vt 0.1339536 0.3897337
vt 0.1339536 0.419829
vt 0.1561549 0.3897337
vt 0.2858809 0.7418329
vt 0.2727342 0.7793419
vt 0.2859809 0.7779112
vt 0.2728443 0.7404221
vt 0.1339536 0.3897337
vt 0.1236583 0.419829
vt 0.1339536 0.419829
vt 0.1236583 0.3897337
vt 0.1665001 0.419829
vt 0.1561549 0.3897337
vt 0.1561549 0.419829
vt 0.1665001 0.3897337
vt 0.1561549 0.419829
vt 0.1339536 0.3897337
vt 0.1339536 0.419829
vt 0.1561549 0.3897337
vt 0.2728443 0.7404221
vt 0.2859809 0.7779112
vt 0.2858809 0.7418329
vt 0.2727342 0.7793419
vt 0.1339536 0.3897337
vt 0.1236583 0.419829
vt 0.1339536 0.419829
vt 0.1236583 0.3897337
vt 0.1561549 0.3898338
vt 0.1665001 0.4199091
vt 0.1665001 0.3898338
vt 0.1561549 0.4199091
vt 0.1561549 0.3898338
vt 0.1339536 0.4199091
vt 0.1561549 0.4199091
vt 0.1339536 0.3898338
vt 0.1236583 0.3898338
vt 0.1339536 0.4199091
vt 0.1339536 0.3898338
vt 0.1236583 0.4199091
vt 0.2792775 0.7780013
vt 0.2924442 0.7404922
vt 0.2792975 0.7418128
vt 0.2926443 0.7791119
vn -0.5981039 -0.8014186 0
vn -0.2308767 -0.9431542 0.2390735
vn -0.3464075 -0.9380841 0
vn -0.3952411 -0.7866167 0.4743613
vn -0.9822565 -0.003929436 0.1875014
vn -0.6378741 -0.003929436 0.7701306
vn -0.9822565 -0.003929436 0.1875014
vn -0.6378741 -0.003929436 0.7701306
vn -0.520471 -0.8100973 -0.2699115
vn -0.3464075 -0.9380841 0
vn -0.3013186 -0.9431542 -0.1402403
vn -0.5981039 -0.8014186 0
vn -0.8648534 -0.003929436 -0.502009
vn -0.9822565 -0.003929436 0.1875014
vn -0.9822565 -0.003929436 0.1875014
vn -0.8648534 -0.003929436 -0.502009
vn 0.06653387 -0.9977841 0
vn -0.3464075 -0.9380841 0
vn 0.06653387 -0.9977841 0
vn -0.3013186 -0.9431542 -0.1402403
vn 0.04306382 -0.9979423 -0.04750527
vn -0.2308767 -0.9431542 0.2390735
vn 0.02741009 -0.9979423 0.05796476
vn -0.1213005 -0.9431542 -0.3094291
vn -0.0195511 -0.9979423 0.06106542
vn 0.1213325 -0.9431542 -0.3094166
vn 0.003929436 -0.9979423 -0.06399838
vn 0.003929436 -0.9431542 0.3323323
vn 0.2309088 -0.9431542 0.2390426
vn -0.03520495 -0.9979423 -0.05358984
vn -0.05868548 -0.9979423 -0.02583165
vn 0.3558413 -0.9345464 0
vn -0.05085868 -0.9979423 0.03904647
vn 0.3091775 -0.9431542 -0.1219406
vn 0.9979423 -0.003929436 -0.06399836
vn 0.645733 -0.003929436 -0.7635532
vn 0.9979423 -0.003929436 -0.06399836
vn 0.645733 -0.003929436 -0.7635532
vn -0.3482798 0.9274684 0.1360282
vn -0.3952411 0.7865847 0.4744143
vn -0.5909129 0.7865847 0.1791829
vn -0.2308767 0.9274684 0.2941061
vn -0.3013186 0.9274684 -0.221381
vn -0.5909129 0.7865847 0.1791829
vn -0.520471 0.7944115 -0.3130819
vn -0.3482798 0.9274684 0.1360282
vn 0.06654441 0.9900834 -0.1237203
vn -0.3013186 0.9274684 -0.221381
vn 0.06654441 0.9900834 0.1237203
vn -0.3482798 0.9274684 0.1360282
vn 0.04306382 0.9900834 -0.1337175
vn -0.2308767 0.9274684 0.2941061
vn 0.02741009 0.9900834 0.1377808
vn -0.1134736 0.9274684 -0.356267
vn -0.0195511 0.9900834 0.1391137
vn 0.1213325 0.9352953 -0.3324172
vn 0.003929436 0.9274684 0.373881
vn 0.003929436 0.9900834 -0.1404259
vn -0.03520495 0.9979102 -0.05418382
vn 0.2387356 0.9274684 0.2877634
vn -0.05868548 0.9900834 -0.1276358
vn 0.3561387 0.9274684 0.1138758
vn -0.05085868 0.9900834 0.1309513
vn 0.3091775 0.9274684 -0.2102659
vn 0.8805392 -0.003929436 0.4739571
vn 0.9979423 -0.003929436 -0.06399836
vn 0.9979423 -0.003929436 -0.06399836
vn 0.8805392 -0.003929436 0.4739571
vn -0.3013186 -0.9431542 -0.1402403
vn -0.1995692 -0.8100973 -0.5512844
vn -0.520471 -0.8100973 -0.2699115
vn -0.1213005 -0.9431542 -0.3094291
vn -0.8648534 -0.003929436 -0.502009
vn -0.340453 -0.003929436 -0.9402534
vn -0.8648534 -0.003929436 -0.502009
vn -0.340453 -0.003929436 -0.9402534
vn -0.1213005 -0.9431542 -0.3094291
vn 0.2074282 -0.8100973 -0.5483757
vn -0.1995692 -0.8100973 -0.5512844
vn 0.1213325 -0.9431542 -0.3094166
vn 0.3483118 -0.003929436 0.9373705
vn 0.8805392 -0.003929436 0.4739571
vn 0.3483118 -0.003929436 0.9373705
vn 0.8805392 -0.003929436 0.4739571
vn 0.3483118 -0.003929436 0.9373705
vn -0.340453 -0.003929436 0.9402534
vn -0.340453 -0.003929436 0.9402534
vn 0.3483118 -0.003929436 0.9373705
vn -0.1995692 0.7944115 -0.5736572
vn -0.3013186 0.9274684 -0.221381
vn -0.520471 0.7944115 -0.3130819
vn -0.1134736 0.9274684 -0.356267
vn -0.1995692 0.7944115 -0.5736572
vn 0.1213325 0.9352953 -0.3324172
vn -0.1134736 0.9274684 -0.356267
vn 0.2074282 0.7944115 -0.5708624
vn -0.340453 -0.003929436 -0.9402534
vn 0.3483118 -0.003929436 -0.9373705
vn -0.340453 -0.003929436 -0.9402534
vn 0.3483118 -0.003929436 -0.9373705
vn 0.4031 -0.8022705 0.4403096
vn 0.3558413 -0.9345464 0
vn 0.2309088 -0.9431542 0.2390426
vn 0.6031107 -0.7976575 0
vn 0.645733 -0.003929436 0.7635532
vn 0.9979423 -0.003929436 0.06399836
vn 0.645733 -0.003929436 0.7635532
vn 0.9979423 -0.003929436 0.06399836
vn 0.003929436 -0.8022705 0.5969478
vn 0.2309088 -0.9431542 0.2390426
vn 0.003929436 -0.9431542 0.3323323
vn 0.4031 -0.8022705 0.4403096
vn 0.003929436 -0.003929436 0.9999846
vn 0.645733 -0.003929436 0.7635532
vn 0.645733 -0.003929436 0.7635532
vn 0.003929436 -0.003929436 0.9999846
vn -0.6378741 -0.003929436 -0.7701306
vn -0.9822565 -0.003929436 -0.1875014
vn -0.6378741 -0.003929436 -0.7701306
vn -0.9822565 -0.003929436 -0.1875014
vn 0.2387356 0.9274684 0.2877634
vn 0.6065986 0.7865847 0.1154238
vn 0.4031 0.7865847 0.4677552
vn 0.3561387 0.9274684 0.1138758
vn 0.003929436 0.9274684 0.373881
vn 0.4031 0.7865847 0.4677552
vn 0.003929436 0.7865847 0.6174699
vn 0.2387356 0.9274684 0.2877634
vn 0.003929436 -0.003929436 -0.9999846
vn -0.6378741 -0.003929436 -0.7701306
vn -0.6378741 -0.003929436 -0.7701306
vn 0.003929436 -0.003929436 -0.9999846
vn 0.003929436 -0.9431542 0.3323323
vn -0.3952411 -0.7866167 0.4743613
vn 0.003929436 -0.8022705 0.5969478
vn -0.2308767 -0.9431542 0.2390735
vn 0.003929436 -0.003929436 0.9999846
vn -0.6378741 -0.003929436 0.7701306
vn 0.003929436 -0.003929436 0.9999846
vn -0.6378741 -0.003929436 0.7701306
vn 0.645733 -0.003929436 -0.7635532
vn 0.003929436 -0.003929436 -0.9999846
vn 0.645733 -0.003929436 -0.7635532
vn 0.003929436 -0.003929436 -0.9999846
vn -0.3952411 0.7865847 0.4744143
vn 0.003929436 0.9274684 0.373881
vn 0.003929436 0.7865847 0.6174699
vn -0.2308767 0.9274684 0.2941061
vn 0.3091775 -0.9431542 -0.1219406
vn 0.6031107 -0.7976575 0
vn 0.5283299 -0.8100973 -0.2541846
vn 0.3558413 -0.9345464 0
vn 0.8805392 -0.003929436 -0.4739571
vn 0.9979423 -0.003929436 0.06399836
vn 0.8805392 -0.003929436 -0.4739571
vn 0.9979423 -0.003929436 0.06399836
vn -0.8648534 -0.003929436 0.502009
vn -0.9822565 -0.003929436 -0.1875014
vn -0.9822565 -0.003929436 -0.1875014
vn -0.8648534 -0.003929436 0.502009
vn 0.6065986 0.7865847 0.1154238
vn 0.3091775 0.9274684 -0.2102659
vn 0.5283299 0.7944115 -0.2996296
vn 0.3561387 0.9274684 0.1138758
vn 0.5283299 -0.8100973 -0.2541846
vn 0.1213325 -0.9431542 -0.3094166
vn 0.3091775 -0.9431542 -0.1219406
vn 0.2074282 -0.8100973 -0.5483757
vn 0.8805392 -0.003929436 -0.4739571
vn 0.3483118 -0.003929436 -0.9373705
vn 0.3483118 -0.003929436 -0.9373705
vn 0.8805392 -0.003929436 -0.4739571
vn 0.3091775 0.9274684 -0.2102659
vn 0.2074282 0.7944115 -0.5708624
vn 0.5283299 0.7944115 -0.2996296
vn 0.1213325 0.9352953 -0.3324172
vn -0.340453 -0.003929436 0.9402534
vn -0.8648534 -0.003929436 0.502009
vn -0.340453 -0.003929436 0.9402534
vn -0.8648534 -0.003929436 0.502009
g DSJ_GTA_daoJu_cheLun_02_0
f 3/3/3 2/2/2 1/1/1
f 4/4/4 1/1/1 2/2/2
f 7/7/7 6/6/6 5/5/5
f 8/8/8 5/5/5 6/6/6
f 11/11/11 10/10/10 9/9/9
f 12/12/12 9/9/9 10/10/10
f 15/15/15 14/14/14 13/13/13
f 16/16/16 13/13/13 14/14/14
f 19/19/19 18/18/18 17/17/17
f 20/20/20 17/17/17 18/18/18
f 19/19/19 21/21/21 18/18/18
f 22/22/22 18/18/18 21/21/21
f 17/17/17 20/20/20 23/23/23
f 24/24/24 23/23/23 20/20/20
f 23/23/23 24/24/24 25/25/25
f 26/26/26 25/25/25 24/24/24
f 21/21/21 27/27/27 22/22/22
f 28/28/28 22/22/22 27/27/27
f 28/28/28 27/27/27 29/29/29
f 30/30/30 29/29/29 27/27/27
f 30/30/30 31/31/31 29/29/29
f 32/32/32 29/29/29 31/31/31
f 31/31/31 33/33/33 32/32/32
f 34/34/34 32/32/32 33/33/33
f 33/33/33 25/25/25 34/34/34
f 26/26/26 34/34/34 25/25/25
f 37/37/37 36/36/36 35/35/35
f 38/38/38 35/35/35 36/36/36
f 41/41/41 40/40/40 39/39/39
f 42/42/42 39/39/39 40/40/40
f 45/45/45 44/44/44 43/43/43
f 46/46/46 43/43/43 44/44/44
f 49/49/49 48/48/48 47/47/47
f 50/50/50 47/47/47 48/48/48
f 47/47/47 50/50/50 51/51/51
f 52/52/52 51/51/51 50/50/50
f 49/49/49 53/53/53 48/48/48
f 54/54/54 48/48/48 53/53/53
f 53/53/53 55/55/55 54/54/54
f 56/56/56 54/54/54 55/55/55
f 52/52/52 57/57/57 51/51/51
f 58/58/58 51/51/51 57/57/57
f 58/58/58 57/57/57 59/59/59
f 60/60/60 59/59/59 57/57/57
f 59/59/59 60/60/60 61/61/61
f 62/62/62 61/61/61 60/60/60
f 61/61/61 62/62/62 63/63/63
f 64/64/64 63/63/63 62/62/62
f 63/63/63 64/64/64 55/55/55
f 56/56/56 55/55/55 64/64/64
f 67/67/67 66/66/66 65/65/65
f 68/68/68 65/65/65 66/66/66
f 71/71/71 70/70/70 69/69/69
f 72/72/72 69/69/69 70/70/70
f 75/75/75 74/74/74 73/73/73
f 76/76/76 73/73/73 74/74/74
f 79/79/79 78/78/78 77/77/77
f 80/80/80 77/77/77 78/78/78
f 83/83/83 82/82/82 81/81/81
f 84/84/84 81/81/81 82/82/82
f 87/87/87 86/86/86 85/85/85
f 88/88/88 85/85/85 86/86/86
f 91/91/91 90/90/90 89/89/89
f 92/92/92 89/89/89 90/90/90
f 95/95/95 94/94/94 93/93/93
f 96/96/96 93/93/93 94/94/94
f 99/99/99 98/98/98 97/97/97
f 100/100/100 97/97/97 98/98/98
f 103/103/103 102/102/102 101/101/101
f 104/104/104 101/101/101 102/102/102
f 107/107/107 106/106/106 105/105/105
f 108/108/108 105/105/105 106/106/106
f 111/111/111 110/110/110 109/109/109
f 112/112/112 109/109/109 110/110/110
f 115/115/115 114/114/114 113/113/113
f 116/116/116 113/113/113 114/114/114
f 119/119/119 118/118/118 117/117/117
f 120/120/120 117/117/117 118/118/118
f 123/123/123 122/122/122 121/121/121
f 124/124/124 121/121/121 122/122/122
f 127/127/127 126/126/126 125/125/125
f 128/128/128 125/125/125 126/126/126
f 131/131/131 130/130/130 129/129/129
f 132/132/132 129/129/129 130/130/130
f 135/135/135 134/134/134 133/133/133
f 136/136/136 133/133/133 134/134/134
f 139/139/139 138/138/138 137/137/137
f 140/140/140 137/137/137 138/138/138
f 143/143/143 142/142/142 141/141/141
f 144/144/144 141/141/141 142/142/142
f 147/147/147 146/146/146 145/145/145
f 148/148/148 145/145/145 146/146/146
f 151/151/151 150/150/150 149/149/149
f 152/152/152 149/149/149 150/150/150
f 155/155/155 154/154/154 153/153/153
f 156/156/156 153/153/153 154/154/154
f 159/159/159 158/158/158 157/157/157
f 160/160/160 157/157/157 158/158/158
f 163/163/163 162/162/162 161/161/161
f 164/164/164 161/161/161 162/162/162
f 167/167/167 166/166/166 165/165/165
f 168/168/168 165/165/165 166/166/166
f 171/171/171 170/170/170 169/169/169
f 172/172/172 169/169/169 170/170/170
f 175/175/175 174/174/174 173/173/173
f 176/176/176 173/173/173 174/174/174
f 179/179/179 178/178/178 177/177/177
f 180/180/180 177/177/177 178/178/178
