g DSJ_GTA_gaoLou_23
v 27.34543 -83.83733 -26.03547
v 27.34543 -6.877342 25.70784
v 27.34543 -6.877342 -26.03547
v 27.34543 -83.83733 25.70784
v 17.68449 -83.83733 31.11141
v -27.0178 -6.877342 5.403503
v 17.68449 -6.877342 31.11141
v -27.0178 -83.83733 5.403503
v -27.0178 -83.83733 -5.731133
v 17.68449 -6.877342 -31.43904
v -27.0178 -6.877342 -5.731133
v 17.68449 -83.83733 -31.43904
v -27.0178 70.24639 -5.731133
v 17.68449 70.24639 -31.43904
v 27.34543 70.24639 -26.03547
v 27.34543 70.24639 25.70784
v -27.0178 70.24639 5.403503
v 17.68449 70.24639 31.11141
v 27.34543 -6.877342 25.70784
v 17.68449 -83.83733 31.11141
v 17.68449 -6.877342 31.11141
v 27.34543 -83.83733 25.70784
v 17.68449 -6.877342 -31.43904
v 27.34543 -83.83733 -26.03547
v 27.34543 -6.877342 -26.03547
v 17.68449 -83.83733 -31.43904
v -27.0178 -6.877342 5.403503
v -27.0178 -83.83733 -5.731133
v -27.0178 -6.877342 -5.731133
v -27.0178 -83.83733 5.403503
v 27.34543 -6.877342 -26.03547
v 27.34543 70.24639 25.70784
v 27.34543 70.24639 -26.03547
v 27.34543 -6.877342 25.70784
v 27.34543 70.24639 25.70784
v 17.68449 -6.877342 31.11141
v 17.68449 70.24639 31.11141
v 27.34543 -6.877342 25.70784
v -27.0178 -6.877342 5.403503
v 17.68449 70.24639 31.11141
v 17.68449 -6.877342 31.11141
v -27.0178 70.24639 5.403503
v -27.0178 70.24639 5.403503
v -27.0178 -6.877342 -5.731133
v -27.0178 70.24639 -5.731133
v -27.0178 -6.877342 5.403503
v 17.68449 -6.877342 -31.43904
v -27.0178 70.24639 -5.731133
v -27.0178 -6.877342 -5.731133
v 17.68449 70.24639 -31.43904
v 17.68449 70.24639 -31.43904
v 27.34543 -6.877342 -26.03547
v 27.34543 70.24639 -26.03547
v 17.68449 -6.877342 -31.43904
v 9.333511 68.77268 -12.60841
v 9.333511 83.50971 13.59074
v 9.333511 83.50971 -12.60841
v 9.333511 68.77268 13.59074
v 4.421173 68.77268 16.3744
v -18.17559 83.50971 3.274826
v 4.421173 83.50971 16.3744
v -18.17559 68.77268 3.274826
v -18.17559 68.77268 -2.292496
v 4.421173 83.50971 -15.39207
v -18.17559 83.50971 -2.292496
v 4.421173 68.77268 -15.39207
v -18.17559 83.50971 -2.292496
v 4.421173 83.50971 -15.39207
v 9.333511 83.50971 -12.60841
v 9.333511 83.50971 13.59074
v -18.17559 83.50971 3.274826
v 4.421173 83.50971 16.3744
v 9.333511 83.50971 13.59074
v 4.421173 68.77268 16.3744
v 4.421173 83.50971 16.3744
v 9.333511 68.77268 13.59074
v 4.421173 83.50971 -15.39207
v 9.333511 68.77268 -12.60841
v 9.333511 83.50971 -12.60841
v 4.421173 68.77268 -15.39207
v -18.17559 83.50971 3.274826
v -18.17559 68.77268 -2.292496
v -18.17559 83.50971 -2.292496
v -18.17559 68.77268 3.274826
vt 0.9338313 0.9958221
vt 0.7788544 0.7633567
vt 0.9338313 0.7633567
vt 0.7788544 0.9958221
vt 0.9338313 0.9958221
vt 0.7788544 0.7633567
vt 0.9338313 0.7633567
vt 0.7788544 0.9958221
vt 0.9338313 0.9958221
vt 0.77498 0.7633567
vt 0.9338313 0.7633567
vt 0.77498 0.9958221
vt 0.527017 0.9919477
vt 0.527017 0.9725756
vt 0.5231426 0.9687012
vt 0.5076449 0.9803244
vt 0.5231426 0.9958221
vt 0.5076449 0.9841989
vt 0.9687012 0.7633567
vt 0.9338313 0.9958221
vt 0.9338313 0.7633567
vt 0.9687012 0.9958221
vt 0.9687012 0.7633567
vt 0.9338313 0.9958221
vt 0.9338313 0.7633567
vt 0.9687012 0.9958221
vt 0.9687012 0.7633567
vt 0.9338313 0.9958221
vt 0.9338313 0.7633567
vt 0.9687012 0.9958221
vt 0.9338313 0.7633567
vt 0.7788544 0.9996966
vt 0.9338313 0.9996966
vt 0.7788544 0.7633567
vt 0.9687012 0.9996966
vt 0.9338313 0.7633567
vt 0.9338313 0.9996966
vt 0.9687012 0.7633567
vt 0.7788544 0.7633567
vt 0.9338313 0.9996966
vt 0.9338313 0.7633567
vt 0.7788544 0.9996966
vt 0.9687012 0.9996966
vt 0.9338313 0.7633567
vt 0.9338313 0.9996966
vt 0.9687012 0.7633567
vt 0.77498 0.7633567
vt 0.9338313 0.9996966
vt 0.9338313 0.7633567
vt 0.77498 0.9996966
vt 0.9687012 0.9996966
vt 0.9338313 0.7633567
vt 0.9338313 0.9996966
vt 0.9687012 0.7633567
vt 0.8834639 0.9609523
vt 0.9260825 0.9338313
vt 0.8834639 0.9338313
vt 0.9260825 0.9609523
vt 0.9377058 0.9609523
vt 0.97645 0.9338313
vt 0.9377058 0.9338313
vt 0.97645 0.9609523
vt 0.8330964 0.9609523
vt 0.8718406 0.9338313
vt 0.8330964 0.9338313
vt 0.8718406 0.9609523
vt 0.5192682 0.9841989
vt 0.5386403 0.9958221
vt 0.5425147 0.9958221
vt 0.5425147 0.9725756
vt 0.5192682 0.9803244
vt 0.5386403 0.9687012
vt 0.9260825 0.9338313
vt 0.9377058 0.9609523
vt 0.9377058 0.9338313
vt 0.9260825 0.9609523
vt 0.8718406 0.9338313
vt 0.8834639 0.9609523
vt 0.8834639 0.9338313
vt 0.8718406 0.9609523
vt 0.97645 0.9338313
vt 0.9841989 0.9609523
vt 0.9841989 0.9338313
vt 0.97645 0.9609523
vn 0.999874 -0.01587099 -0.000346655
vn 0.999874 -0.01587099 -0.000346655
vn 0.999874 -0.01587099 -0.000346655
vn 0.999874 -0.01587099 -0.000346655
vn -0.4920015 -0.04761302 0.8692914
vn -0.4920015 -0.04761302 0.8692914
vn -0.4920015 -0.04761302 0.8692914
vn -0.4920015 -0.04761302 0.8692914
vn -0.4920015 -0.04761302 -0.8692914
vn -0.4920015 -0.04761302 -0.8692914
vn -0.4920015 -0.04761302 -0.8692914
vn -0.4920015 -0.04761302 -0.8692914
vn 0.01587099 0.999874 -0.000345267
vn 0.01587099 0.999874 -0.000345267
vn 0.01587099 0.999874 -0.000345267
vn 0.01587099 0.999874 -0.000345267
vn 0.01587099 0.999874 -0.000345267
vn 0.01587099 0.999874 -0.000345267
vn 0.5554855 -0.04761302 0.8301619
vn 0.5554855 -0.04761302 0.8301619
vn 0.5554855 -0.04761302 0.8301619
vn 0.5554855 -0.04761302 0.8301619
vn 0.5554855 -0.04761302 -0.8301619
vn 0.5554855 -0.04761302 -0.8301619
vn 0.5554855 -0.04761302 -0.8301619
vn 0.5554855 -0.04761302 -0.8301619
vn -0.999874 -0.01587099 -0.000346655
vn -0.999874 -0.01587099 -0.000346655
vn -0.999874 -0.01587099 -0.000346655
vn -0.999874 -0.01587099 -0.000346655
vn 0.999874 -0.01587099 -0.000346655
vn 0.999874 -0.01587099 -0.000346655
vn 0.999874 -0.01587099 -0.000346655
vn 0.999874 -0.01587099 -0.000346655
vn 0.5554855 -0.04761302 0.8301619
vn 0.5554855 -0.04761302 0.8301619
vn 0.5554855 -0.04761302 0.8301619
vn 0.5554855 -0.04761302 0.8301619
vn -0.4920015 -0.04761302 0.8692914
vn -0.4920015 -0.04761302 0.8692914
vn -0.4920015 -0.04761302 0.8692914
vn -0.4920015 -0.04761302 0.8692914
vn -0.999874 -0.01587099 -0.000346655
vn -0.999874 -0.01587099 -0.000346655
vn -0.999874 -0.01587099 -0.000346655
vn -0.999874 -0.01587099 -0.000346655
vn -0.4920015 -0.04761302 -0.8692914
vn -0.4920015 -0.04761302 -0.8692914
vn -0.4920015 -0.04761302 -0.8692914
vn -0.4920015 -0.04761302 -0.8692914
vn 0.5554855 -0.04761302 -0.8301619
vn 0.5554855 -0.04761302 -0.8301619
vn 0.5554855 -0.04761302 -0.8301619
vn 0.5554855 -0.04761302 -0.8301619
vn 0.999874 -0.01587099 -0.000346655
vn 0.999874 -0.01587099 -0.000346655
vn 0.999874 -0.01587099 -0.000346655
vn 0.999874 -0.01587099 -0.000346655
vn -0.4920015 -0.04761302 0.8692914
vn -0.4920015 -0.04761302 0.8692914
vn -0.4920015 -0.04761302 0.8692914
vn -0.4920015 -0.04761302 0.8692914
vn -0.4920015 -0.04761302 -0.8692914
vn -0.4920015 -0.04761302 -0.8692914
vn -0.4920015 -0.04761302 -0.8692914
vn -0.4920015 -0.04761302 -0.8692914
vn 0.01587099 0.999874 -0.000345267
vn 0.01587099 0.999874 -0.000345267
vn 0.01587099 0.999874 -0.000345267
vn 0.01587099 0.999874 -0.000345267
vn 0.01587099 0.999874 -0.000345267
vn 0.01587099 0.999874 -0.000345267
vn 0.5554855 -0.04761302 0.8301619
vn 0.5554855 -0.04761302 0.8301619
vn 0.5554855 -0.04761302 0.8301619
vn 0.5554855 -0.04761302 0.8301619
vn 0.5554855 -0.04761302 -0.8301619
vn 0.5554855 -0.04761302 -0.8301619
vn 0.5554855 -0.04761302 -0.8301619
vn 0.5554855 -0.04761302 -0.8301619
vn -0.999874 -0.01587099 -0.000346655
vn -0.999874 -0.01587099 -0.000346655
vn -0.999874 -0.01587099 -0.000346655
vn -0.999874 -0.01587099 -0.000346655
g DSJ_GTA_gaoLou_23_0
f 3/3/3 2/2/2 1/1/1
f 2/2/2 4/4/4 1/1/1
f 7/7/7 6/6/6 5/5/5
f 6/6/6 8/8/8 5/5/5
f 11/11/11 10/10/10 9/9/9
f 10/10/10 12/12/12 9/9/9
f 15/15/15 14/14/14 13/13/13
f 13/13/13 16/16/16 15/15/15
f 13/13/13 17/17/17 16/16/16
f 17/17/17 18/18/18 16/16/16
f 21/21/21 20/20/20 19/19/19
f 20/20/20 22/22/22 19/19/19
f 25/25/25 24/24/24 23/23/23
f 24/24/24 26/26/26 23/23/23
f 29/29/29 28/28/28 27/27/27
f 28/28/28 30/30/30 27/27/27
f 33/33/33 32/32/32 31/31/31
f 32/32/32 34/34/34 31/31/31
f 37/37/37 36/36/36 35/35/35
f 36/36/36 38/38/38 35/35/35
f 41/41/41 40/40/40 39/39/39
f 40/40/40 42/42/42 39/39/39
f 45/45/45 44/44/44 43/43/43
f 44/44/44 46/46/46 43/43/43
f 49/49/49 48/48/48 47/47/47
f 48/48/48 50/50/50 47/47/47
f 53/53/53 52/52/52 51/51/51
f 52/52/52 54/54/54 51/51/51
f 57/57/57 56/56/56 55/55/55
f 56/56/56 58/58/58 55/55/55
f 61/61/61 60/60/60 59/59/59
f 60/60/60 62/62/62 59/59/59
f 65/65/65 64/64/64 63/63/63
f 64/64/64 66/66/66 63/63/63
f 69/69/69 68/68/68 67/67/67
f 67/67/67 70/70/70 69/69/69
f 67/67/67 71/71/71 70/70/70
f 71/71/71 72/72/72 70/70/70
f 75/75/75 74/74/74 73/73/73
f 74/74/74 76/76/76 73/73/73
f 79/79/79 78/78/78 77/77/77
f 78/78/78 80/80/80 77/77/77
f 83/83/83 82/82/82 81/81/81
f 82/82/82 84/84/84 81/81/81
