g DSJ_GTA_diLou_20
v 38.67553 -9.700653 -13.85203
v 38.50608 -9.700653 15.46174
v 38.67553 -3.177071 -13.85203
v 38.50608 -3.177071 15.46174
v 13.25897 -3.177071 -13.93675
v 13.17425 -3.177071 15.37701
v 0.4659729 -3.177071 -14.02147
v 0.3812485 -3.177071 15.29229
v -12.24231 -9.700653 15.29229
v -12.24231 -3.177071 15.29229
v 0.3812485 -9.700653 15.29229
v 0.3812485 -3.177071 15.29229
v 13.17425 -9.700653 15.37701
v 13.17425 -3.177071 15.37701
v -11.98814 -3.007629 -19.35895
v -11.98814 -9.700653 -19.35895
v -12.07286 -3.007629 16.90201
v -12.07286 -9.700653 16.90201
v -29.18668 -3.007629 -19.44367
v -29.18668 -9.700653 -19.44367
v -11.98814 -3.007629 -19.35895
v -11.98814 -9.700653 -19.35895
v -11.98814 9.531208 -19.35895
v -12.07286 9.531208 16.90201
v -29.18668 9.531208 -19.44367
v -29.18668 9.531208 16.81729
v -12.07286 -3.007629 16.90201
v -12.07286 -9.700653 16.90201
v -29.18668 -3.007629 16.81729
v -29.18668 -9.700653 16.81729
v -29.18668 -3.007629 -19.44367
v -29.18668 -3.007629 16.81729
v -29.18668 -9.700653 -19.44367
v -29.18668 -9.700653 16.81729
v 14.44508 -3.600681 4.024288
v -2.41457 -3.600681 4.024288
v 14.44508 4.786785 4.024288
v -2.41457 4.786785 4.024288
v -2.41457 -3.600681 4.024288
v -2.329849 -3.600681 -19.35895
v -2.41457 4.786785 4.024288
v -2.329849 4.786785 -19.35895
v 31.30473 -9.700653 4.109009
v 31.30473 -3.600681 4.109009
v 31.47417 -9.700653 -19.1895
v 31.47417 -9.700653 -19.1895
v 31.30473 -3.600681 4.109009
v 31.47417 -3.600681 -19.1895
v 14.44508 4.786785 4.024288
v 14.5298 4.786785 -19.27422
v 31.30473 4.786785 4.109009
v 31.47417 4.786785 -19.1895
v 12.41175 -1.652077 15.37701
v 12.41175 -3.431236 15.37701
v -0.2118034 -1.652077 15.29229
v -0.2118034 -3.431236 15.29229
v 38.42136 -3.431236 15.46174
v 38.42136 -1.652077 15.46174
v 38.42136 -3.431236 1.652073
v 38.42136 -1.652077 1.652073
v 13.59786 -3.007629 19.27422
v 13.59786 -3.685402 19.27422
v 1.567356 -3.007629 19.10478
v 1.567356 -3.685402 19.10478
v -10.54787 -3.685402 14.61452
v -10.54787 -3.007629 14.61452
v -10.54787 -3.685402 19.10478
v -10.54787 -3.007629 19.10478
v 37.65887 -3.007629 14.78396
v 37.65887 -3.685402 14.78396
v 37.65887 -3.007629 19.35894
v 37.65887 -3.685402 19.35894
v 13.59786 -3.007629 19.27422
v 13.59786 -3.007629 14.69924
v 25.71309 -3.007629 19.27422
v 25.71309 -3.007629 14.69924
v -28.25474 6.311775 -16.39368
v -28.42418 6.311775 13.85202
v -35.54082 6.311775 -16.39368
v -35.79499 6.311775 13.85202
v -28.42418 -9.700653 13.85202
v -35.79499 -9.700653 13.85202
v -28.42418 6.311775 13.85202
v -35.79499 6.311775 13.85202
v -35.54082 -9.700653 -16.39368
v -35.54082 6.311775 -16.39368
v -35.79499 -9.700653 13.85202
v -35.79499 6.311775 13.85202
v -35.54082 -9.700653 -16.39368
v -28.25474 -9.700653 -16.39368
v -35.54082 6.311775 -16.39368
v -28.25474 6.311775 -16.39368
v -43.33523 -3.770123 13.42841
v -43.33523 -9.700653 13.42841
v -43.16578 -3.770123 -16.13951
v -43.16578 -9.700653 -16.13951
v -43.16578 -3.770123 -16.13951
v -43.16578 -9.700653 -16.13951
v -35.03249 -3.770123 -16.13951
v -35.03249 -9.700653 -16.13951
v -35.28666 2.075684 13.51313
v -43.33523 2.075684 13.42841
v -35.03249 2.075684 -16.13951
v -43.16578 2.075684 -16.13951
v -35.28666 -3.770123 13.51313
v -35.28666 -9.700653 13.51313
v -43.33523 -3.770123 13.42841
v -43.33523 -9.700653 13.42841
v -12.83536 3.177067 1.567352
v -12.75064 3.177067 -16.64785
v -2.160404 3.177067 1.567352
v -2.075684 3.177067 -16.56313
v -2.160404 -3.346516 1.567352
v -12.83536 -3.346516 1.567352
v -2.160404 3.177067 1.567352
v -12.83536 3.177067 1.567352
v -2.075684 -3.346516 -16.56313
v -2.075684 3.177067 -16.56313
v -12.75064 -3.346516 -16.64785
v -12.75064 3.177067 -16.64785
v 30.96584 3.177067 1.736797
v 31.13528 3.177067 -16.4784
v 43.33523 3.177067 1.736797
v 43.33523 3.177067 -16.39368
v 43.33523 -3.346516 1.736797
v 30.96584 -3.346516 1.736797
v 43.33523 3.177067 1.736797
v 30.96584 3.177067 1.736797
v 43.33523 -3.346516 -16.39368
v 43.33523 3.177067 -16.39368
v 31.13528 -3.346516 -16.4784
v 31.13528 3.177067 -16.4784
v 43.33523 -3.346516 1.736797
v 43.33523 -3.346516 -16.39368
v 43.33523 -9.700653 1.736797
v 43.33523 -9.700653 -16.39368
v -12.07286 9.531208 16.90201
v -11.98814 9.531208 -19.35895
v -12.07286 3.092346 16.90201
v -11.98814 3.092346 -19.35895
v -11.98814 9.531208 -19.35895
v -29.18668 9.531208 -19.44367
v -11.98814 3.092346 -19.35895
v -29.18668 3.092346 -19.44367
v -29.18668 9.531208 16.81729
v -12.07286 9.531208 16.90201
v -29.18668 3.092346 16.81729
v -12.07286 3.092346 16.90201
v -29.18668 9.531208 -19.44367
v -29.18668 9.531208 16.81729
v -29.18668 3.092346 -19.44367
v -29.18668 3.092346 16.81729
v -43.16578 2.075684 -16.13951
v -43.33523 2.075684 13.42841
v -43.16578 -3.770123 -16.13951
v -43.33523 -3.770123 13.42841
v -35.03249 2.075684 -16.13951
v -43.16578 2.075684 -16.13951
v -35.03249 -3.770123 -16.13951
v -43.16578 -3.770123 -16.13951
v -43.33523 2.075684 13.42841
v -35.28666 2.075684 13.51313
v -43.33523 -3.770123 13.42841
v -35.28666 -3.770123 13.51313
v -12.07286 3.092346 16.90201
v -11.98814 3.092346 -19.35895
v -12.07286 -3.007629 16.90201
v -11.98814 -3.007629 -19.35895
v -11.98814 3.092346 -19.35895
v -29.18668 3.092346 -19.44367
v -11.98814 -3.007629 -19.35895
v -29.18668 -3.007629 -19.44367
v -29.18668 3.092346 16.81729
v -12.07286 3.092346 16.90201
v -29.18668 -3.007629 16.81729
v -12.07286 -3.007629 16.90201
v -29.18668 3.092346 -19.44367
v -29.18668 3.092346 16.81729
v -29.18668 -3.007629 -19.44367
v -29.18668 -3.007629 16.81729
v 14.5298 -3.600681 -19.27422
v -2.329849 -3.600681 -19.35895
v 14.5298 -9.700653 -19.27422
v -2.329849 -9.700653 -19.35895
v 31.47417 -9.700653 -19.1895
v 31.47417 -3.600681 -19.1895
v -2.41457 -9.700653 4.024288
v -2.329849 -9.700653 -19.35895
v -2.41457 -3.600681 4.024288
v -2.329849 -3.600681 -19.35895
v 31.30473 4.786785 4.109009
v 31.30473 -3.600681 4.109009
v 14.44508 4.786785 4.024288
v 14.44508 -3.600681 4.024288
v -2.41457 4.786785 4.024288
v -2.329849 4.786785 -19.35895
v 14.44508 4.786785 4.024288
v 14.5298 4.786785 -19.27422
v 31.47417 -3.600681 -19.1895
v 31.47417 4.786785 -19.1895
v 14.5298 -3.600681 -19.27422
v 14.5298 4.786785 -19.27422
v 43.33523 -9.700653 1.736797
v 30.96584 -9.700653 1.736797
v 43.33523 -3.346516 1.736797
v 30.96584 -3.346516 1.736797
v 31.13528 -9.700653 -16.4784
v 43.33523 -9.700653 -16.39368
v 31.13528 -3.346516 -16.4784
v 43.33523 -3.346516 -16.39368
v 43.33523 3.177067 1.736797
v 43.33523 3.177067 -16.39368
v 43.33523 -3.346516 1.736797
v 43.33523 -3.346516 -16.39368
v -12.75064 -9.700653 -16.64785
v -2.075684 -9.700653 -16.56313
v -12.75064 -3.346516 -16.64785
v -2.075684 -3.346516 -16.56313
v 14.5298 4.786785 -19.27422
v -2.329849 4.786785 -19.35895
v 14.5298 -3.600681 -19.27422
v -2.329849 -3.600681 -19.35895
v 31.30473 4.786785 4.109009
v 31.47417 4.786785 -19.1895
v 31.30473 -3.600681 4.109009
v 31.47417 -3.600681 -19.1895
v 38.67553 -3.177071 -13.85203
v 38.50608 -3.177071 15.46174
v 25.88253 -3.177071 -13.93675
v 25.79781 -3.177071 15.37701
v 25.88253 -3.177071 -13.93675
v 25.79781 -3.177071 15.37701
v 13.25897 -3.177071 -13.93675
v 13.17425 -3.177071 15.37701
v -12.24231 -3.177071 15.29229
v -12.15759 -3.177071 -14.02147
v 0.3812485 -3.177071 15.29229
v 0.4659729 -3.177071 -14.02147
v 13.17425 -9.700653 15.37701
v 13.17425 -3.177071 15.37701
v 25.79781 -9.700653 15.37701
v 25.79781 -3.177071 15.37701
v 38.50608 -9.700653 15.46174
v 38.50608 -3.177071 15.46174
v 38.42136 -1.652077 15.46174
v 38.42136 -3.431236 15.46174
v 25.12003 -1.652077 15.37701
v 25.12003 -3.431236 15.37701
v 25.12003 -1.652077 15.37701
v 25.12003 -3.431236 15.37701
v 12.41175 -1.652077 15.37701
v 12.41175 -3.431236 15.37701
v -12.92008 -3.431236 15.29229
v -12.92008 -1.652077 15.29229
v -0.2118034 -3.431236 15.29229
v -0.2118034 -1.652077 15.29229
v 37.65887 -3.007629 19.35894
v 37.65887 -3.685402 19.35894
v 25.71309 -3.007629 19.27422
v 25.71309 -3.685402 19.27422
v 25.71309 -3.007629 19.27422
v 25.71309 -3.685402 19.27422
v 13.59786 -3.007629 19.27422
v 13.59786 -3.685402 19.27422
v -10.54787 -3.685402 19.10478
v -10.54787 -3.007629 19.10478
v 1.567356 -3.685402 19.10478
v 1.567356 -3.007629 19.10478
v -10.54787 -3.007629 19.10478
v -10.54787 -3.007629 14.61452
v 1.567356 -3.007629 19.10478
v 1.567356 -3.007629 14.61452
v 1.567356 -3.007629 19.10478
v 1.567356 -3.007629 14.61452
v 13.59786 -3.007629 19.27422
v 13.59786 -3.007629 14.69924
v 37.65887 -3.007629 14.78396
v 37.65887 -3.007629 19.35894
v 25.71309 -3.007629 14.69924
v 25.71309 -3.007629 19.27422
vt 0.2426984 0.7652828
vt 0.1311354 0.7652828
vt 0.2426984 0.9805797
vt 0.1311354 0.9805797
vt 0.8768457 0.4658243
vt 0.8768457 0.6008742
vt 0.9981949 0.4658243
vt 0.9981949 0.6008742
vt 0.9981949 0.6243611
vt 0.9981949 0.7476676
vt 0.8122566 0.6243611
vt 0.8122566 0.7476676
vt 0.6302329 0.6243611
vt 0.6302329 0.7476676
vt 0.7652828 0.7457103
vt 0.7652828 0.6282756
vt 0.6243611 0.7457103
vt 0.6243611 0.6282756
vt 0.2446556 0.7476676
vt 0.2446556 0.6243611
vt 0.001957245 0.7476676
vt 0.001957245 0.6243611
vt 0.1291782 0.9884087
vt 0.2446556 0.9884087
vt 0.1291782 0.7652828
vt 0.2446556 0.7652828
vt 0.7652828 0.7457103
vt 0.7652828 0.6282756
vt 0.6243611 0.7457103
vt 0.6243611 0.6282756
vt 0.6243611 0.7457103
vt 0.7652828 0.7457103
vt 0.6243611 0.6282756
vt 0.7652828 0.6282756
vt 0.8729312 0.751582
vt 0.7926842 0.751582
vt 0.8729312 0.847487
vt 0.7926842 0.847487
vt 0.2446556 0.7652828
vt 0.1311354 0.7652828
vt 0.2446556 0.9786224
vt 0.1311354 0.9786224
vt 0.1311354 0.7633255
vt 0.1311354 0.9884087
vt 0.2446556 0.7633255
vt 0.8592305 0.6243611
vt 0.8592305 0.7378813
vt 0.8592305 0.7378813
vt 0.2446556 0.9786224
vt 0.2446556 0.7652828
vt 0.1311354 0.9786224
vt 0.1311354 0.7652828
vt 0.9981949 0.5695583
vt 0.9981949 0.5010547
vt 0.8748885 0.5695583
vt 0.8748885 0.5010547
vt 0.8748885 0.5010547
vt 0.8748885 0.5695583
vt 0.9414348 0.5010547
vt 0.9414348 0.5695583
vt 0.1820238 0.95905
vt 0.1820238 0.9473065
vt 0.1507079 0.95905
vt 0.1507079 0.9473065
vt 0.1507079 0.9218624
vt 0.1546223 0.9218624
vt 0.1507079 0.9062044
vt 0.1546223 0.9062044
vt 0.1507079 0.9218624
vt 0.1546223 0.9218624
vt 0.1507079 0.9062044
vt 0.1546223 0.9062044
vt 0.1507079 0.9531782
vt 0.1507079 0.9805797
vt 0.1820238 0.9531782
vt 0.1820238 0.9805797
vt 0.751582 0.8161711
vt 0.8729312 0.8161711
vt 0.751582 0.7613683
vt 0.8729312 0.7613683
vt 0.8181283 0.6224039
vt 0.7652828 0.6224039
vt 0.8181283 0.8455298
vt 0.7652828 0.8455298
vt 0.7652828 0.6224039
vt 0.751582 0.8455298
vt 0.8729312 0.6224039
vt 0.8729312 0.8455298
vt 0.8181283 0.6224039
vt 0.7652828 0.6224039
vt 0.8181283 0.8455298
vt 0.7652828 0.8455298
vt 0.6243611 0.7457103
vt 0.6243611 0.6243611
vt 0.2505274 0.7457103
vt 0.2505274 0.6243611
vt 0 0.7359241
vt 0 0.6243611
vt 0.09003326 0.7359241
vt 0.09003326 0.6243611
vt 0.2426984 0.7691972
vt 0.1330927 0.7691972
vt 0.2426984 0.9727507
vt 0.1330927 0.9727507
vt 0.9903659 0.8592305
vt 0.9903659 0.7437531
vt 0.8768457 0.8592305
vt 0.8768457 0.7437531
vt 0.1311354 0.7652828
vt 0.1311354 0.9766652
vt 0.2446556 0.7652828
vt 0.2446556 0.9766652
vt 0.8729312 0.759411
vt 0.7926842 0.759411
vt 0.8729312 0.847487
vt 0.7926842 0.847487
vt 0.2446556 0.9159906
vt 0.2446556 0.7652828
vt 0.1291782 0.9159906
vt 0.1291782 0.7652828
vt 0.1311354 0.7652828
vt 0.1311354 0.9766652
vt 0.2446556 0.7652828
vt 0.2446556 0.9766652
vt 0.8729312 0.759411
vt 0.7926842 0.759411
vt 0.8729312 0.847487
vt 0.7926842 0.847487
vt 0.2446556 0.9766652
vt 0.2446556 0.7652828
vt 0.1291782 0.9766652
vt 0.1291782 0.7652828
vt 0.1291782 0.9766652
vt 0.2172542 0.9766652
vt 0.1291782 0.7652828
vt 0.2172542 0.7652828
vt 0.8729312 0.751582
vt 0.7496248 0.751582
vt 0.8729312 0.847487
vt 0.7496248 0.847487
vt 0.7496248 0.847487
vt 0.8729312 0.847487
vt 0.7496248 0.751582
vt 0.8729312 0.751582
vt 0.7496248 0.847487
vt 0.8729312 0.847487
vt 0.7496248 0.751582
vt 0.8729312 0.751582
vt 0.7496248 0.847487
vt 0.8729312 0.847487
vt 0.7496248 0.751582
vt 0.8729312 0.751582
vt 0.7496248 0.847487
vt 0.8729312 0.847487
vt 0.7496248 0.751582
vt 0.8729312 0.751582
vt 0.7926842 0.847487
vt 0.8298718 0.847487
vt 0.7926842 0.751582
vt 0.8298718 0.751582
vt 0.7926842 0.847487
vt 0.8298718 0.847487
vt 0.7926842 0.751582
vt 0.8298718 0.751582
vt 0.7496248 0.847487
vt 0.8729312 0.847487
vt 0.7496248 0.751582
vt 0.8729312 0.751582
vt 0.7496248 0.847487
vt 0.8729312 0.847487
vt 0.7496248 0.751582
vt 0.8729312 0.751582
vt 0.7496248 0.847487
vt 0.8729312 0.847487
vt 0.7496248 0.751582
vt 0.8729312 0.751582
vt 0.7496248 0.847487
vt 0.8729312 0.847487
vt 0.7496248 0.751582
vt 0.8729312 0.751582
vt 0.5617293 0.7378813
vt 0.375791 0.7378813
vt 0.5617293 0.6243611
vt 0.375791 0.6243611
vt 0.7496248 0.6243611
vt 0.7496248 0.7378813
vt 0.2426984 0.7633255
vt 0.1291782 0.7633255
vt 0.2426984 0.9884087
vt 0.1291782 0.9884087
vt 0.8298718 0.847487
vt 0.8298718 0.751582
vt 0.7496248 0.847487
vt 0.7496248 0.751582
vt 0.2446556 0.9786224
vt 0.2446556 0.7652828
vt 0.1311354 0.9786224
vt 0.1311354 0.7652828
vt 0.7496248 0.751582
vt 0.7496248 0.847487
vt 0.8298718 0.751582
vt 0.8298718 0.847487
vt 0.2446556 0.7652828
vt 0.1291782 0.7652828
vt 0.2446556 0.9766652
vt 0.1291782 0.9766652
vt 0.8729312 0.6282756
vt 1.000152 0.6282756
vt 0.8729312 0.7437531
vt 1.000152 0.7437531
vt 0.1291782 0.9766652
vt 0.2172542 0.9766652
vt 0.1291782 0.7652828
vt 0.2172542 0.7652828
vt 0.2505274 0.6243611
vt 0.3738338 0.6243611
vt 0.2505274 0.7457103
vt 0.3738338 0.7457103
vt 0.7926842 0.847487
vt 0.8729312 0.847487
vt 0.7926842 0.751582
vt 0.8729312 0.751582
vt 0.1311354 0.9786224
vt 0.2446556 0.9786224
vt 0.1311354 0.7652828
vt 0.2446556 0.7652828
vt 0.8768457 0.4658243
vt 0.8768457 0.6008742
vt 0.9981949 0.4658243
vt 0.9981949 0.6008742
vt 0.8768457 0.4658243
vt 0.8768457 0.6008742
vt 0.9981949 0.4658243
vt 0.9981949 0.6008742
vt 0.9981949 0.6008742
vt 0.9981949 0.4658243
vt 0.8768457 0.6008742
vt 0.8768457 0.4658243
vt 0.6282756 0.6224039
vt 0.6282756 0.7476676
vt 0.4364656 0.6224039
vt 0.4364656 0.7476676
vt 0.2485701 0.6224039
vt 0.2485701 0.7476676
vt 0.9981949 0.5695583
vt 0.9981949 0.5010547
vt 0.8748885 0.5695583
vt 0.8748885 0.5010547
vt 0.9981949 0.5695583
vt 0.9981949 0.5010547
vt 0.8748885 0.5695583
vt 0.8748885 0.5010547
vt 0.8748885 0.5010547
vt 0.8748885 0.5695583
vt 0.9981949 0.5010547
vt 0.9981949 0.5695583
vt 0.1820238 0.95905
vt 0.1820238 0.9473065
vt 0.1507079 0.95905
vt 0.1507079 0.9473065
vt 0.1820238 0.95905
vt 0.1820238 0.9473065
vt 0.1507079 0.95905
vt 0.1507079 0.9473065
vt 0.1507079 0.9473065
vt 0.1507079 0.95905
vt 0.1820238 0.9473065
vt 0.1820238 0.95905
vt 0.1507079 0.9531782
vt 0.1507079 0.9805797
vt 0.1820238 0.9531782
vt 0.1820238 0.9805797
vt 0.1507079 0.9531782
vt 0.1507079 0.9805797
vt 0.1820238 0.9531782
vt 0.1820238 0.9805797
vt 0.1820238 0.9805797
vt 0.1820238 0.9531782
vt 0.1507079 0.9805797
vt 0.1507079 0.9531782
vn 0.9998741 -0.01587099 0
vn 0.9998741 -0.01587099 0
vn 0.9998741 -0.01587099 0
vn 0.9998741 -0.01587099 0
vn 0.01587099 0.9998741 0
vn 0.01587099 0.9998741 0
vn 0.01587099 0.9998741 0
vn 0.01587099 0.9998741 0
vn 0.01587099 -0.01587099 0.9997481
vn 0.01587099 -0.01587099 0.9997481
vn 0.01587099 -0.01587099 0.9997481
vn 0.01587099 -0.01587099 0.9997481
vn 0.01587099 -0.01587099 0.9997481
vn 0.01587099 -0.01587099 0.9997481
vn 0.9998741 -0.01587099 0
vn 0.9998741 -0.01587099 0
vn 0.9998741 -0.01587099 0
vn 0.9998741 -0.01587099 0
vn 0.01587099 -0.01587099 -0.9997481
vn 0.01587099 -0.01587099 -0.9997481
vn 0.01587099 -0.01587099 -0.9997481
vn 0.01587099 -0.01587099 -0.9997481
vn 0.01587099 0.9998741 0
vn 0.01587099 0.9998741 0
vn 0.01587099 0.9998741 0
vn 0.01587099 0.9998741 0
vn 0.01587099 -0.01587099 0.9997481
vn 0.01587099 -0.01587099 0.9997481
vn 0.01587099 -0.01587099 0.9997481
vn 0.01587099 -0.01587099 0.9997481
vn -0.9681321 -0.01587099 -0.2499366
vn -0.9681321 -0.01587099 -0.2499366
vn -0.9681321 -0.01587099 -0.2499366
vn -0.9681321 -0.01587099 -0.2499366
vn 0.01587099 -0.01587099 0.9997481
vn 0.01587099 -0.01587099 0.9997481
vn 0.01587099 -0.01587099 0.9997481
vn 0.01587099 -0.01587099 0.9997481
vn -0.9681321 -0.01587099 -0.2499366
vn -0.9681321 -0.01587099 -0.2499366
vn -0.9681321 -0.01587099 -0.2499366
vn -0.9681321 -0.01587099 -0.2499366
vn 0.9998741 -0.01587099 0
vn 0.9998741 -0.01587099 0
vn 0.9998741 -0.01587099 0
vn 0.9998741 -0.01587099 0
vn 0.9998741 -0.01587099 0
vn 0.9998741 -0.01587099 0
vn 0.01587099 0.9998741 0
vn 0.01587099 0.9998741 0
vn 0.01587099 0.9998741 0
vn 0.01587099 0.9998741 0
vn 0.01587099 -0.01587099 0.9997481
vn 0.01587099 -0.01587099 0.9997481
vn 0.01587099 -0.01587099 0.9997481
vn 0.01587099 -0.01587099 0.9997481
vn 0.9998741 -0.01587099 0
vn 0.9998741 -0.01587099 0
vn 0.9998741 -0.01587099 0
vn 0.9998741 -0.01587099 0
vn 0.01587099 -0.01587099 0.9997481
vn 0.01587099 -0.01587099 0.9997481
vn 0.01587099 -0.01587099 0.9997481
vn 0.01587099 -0.01587099 0.9997481
vn -0.9681321 -0.01587099 -0.2499366
vn -0.9681321 -0.01587099 -0.2499366
vn -0.9681321 -0.01587099 -0.2499366
vn -0.9681321 -0.01587099 -0.2499366
vn 0.9998741 -0.01587099 0
vn 0.9998741 -0.01587099 0
vn 0.9998741 -0.01587099 0
vn 0.9998741 -0.01587099 0
vn 0.01587099 0.9998741 0
vn 0.01587099 0.9998741 0
vn 0.01587099 0.9998741 0
vn 0.01587099 0.9998741 0
vn 0.01587099 0.9998741 0
vn 0.01587099 0.9998741 0
vn 0.01587099 0.9998741 0
vn 0.01587099 0.9998741 0
vn 0.01587099 -0.01587099 0.9997481
vn 0.01587099 -0.01587099 0.9997481
vn 0.01587099 -0.01587099 0.9997481
vn 0.01587099 -0.01587099 0.9997481
vn -0.9681321 -0.01587099 -0.2499366
vn -0.9681321 -0.01587099 -0.2499366
vn -0.9681321 -0.01587099 -0.2499366
vn -0.9681321 -0.01587099 -0.2499366
vn 0.01587099 -0.01587099 -0.9997481
vn 0.01587099 -0.01587099 -0.9997481
vn 0.01587099 -0.01587099 -0.9997481
vn 0.01587099 -0.01587099 -0.9997481
vn -0.9681321 -0.01587099 -0.2499366
vn -0.9681321 -0.01587099 -0.2499366
vn -0.9681321 -0.01587099 -0.2499366
vn -0.9681321 -0.01587099 -0.2499366
vn 0.01587099 -0.01587099 -0.9997481
vn 0.01587099 -0.01587099 -0.9997481
vn 0.01587099 -0.01587099 -0.9997481
vn 0.01587099 -0.01587099 -0.9997481
vn 0.01587099 0.9998741 0
vn 0.01587099 0.9998741 0
vn 0.01587099 0.9998741 0
vn 0.01587099 0.9998741 0
vn 0.01587099 -0.01587099 0.9997481
vn 0.01587099 -0.01587099 0.9997481
vn 0.01587099 -0.01587099 0.9997481
vn 0.01587099 -0.01587099 0.9997481
vn 0.01587099 0.9998741 0
vn 0.01587099 0.9998741 0
vn 0.01587099 0.9998741 0
vn 0.01587099 0.9998741 0
vn 0.01587099 -0.01587099 0.9997481
vn 0.01587099 -0.01587099 0.9997481
vn 0.01587099 -0.01587099 0.9997481
vn 0.01587099 -0.01587099 0.9997481
vn 0.01587099 -0.01587099 -0.9997481
vn 0.01587099 -0.01587099 -0.9997481
vn 0.01587099 -0.01587099 -0.9997481
vn 0.01587099 -0.01587099 -0.9997481
vn 0.01587099 0.9998741 0
vn 0.01587099 0.9998741 0
vn 0.01587099 0.9998741 0
vn 0.01587099 0.9998741 0
vn 0.01587099 -0.01587099 0.9997481
vn 0.01587099 -0.01587099 0.9997481
vn 0.01587099 -0.01587099 0.9997481
vn 0.01587099 -0.01587099 0.9997481
vn 0.01587099 -0.01587099 -0.9997481
vn 0.01587099 -0.01587099 -0.9997481
vn 0.01587099 -0.01587099 -0.9997481
vn 0.01587099 -0.01587099 -0.9997481
vn 0.9998741 -0.01587099 0
vn 0.9998741 -0.01587099 0
vn 0.9998741 -0.01587099 0
vn 0.9998741 -0.01587099 0
vn 0.9998741 -0.01587099 0
vn 0.9998741 -0.01587099 0
vn 0.9998741 -0.01587099 0
vn 0.9998741 -0.01587099 0
vn 0.01587099 -0.01587099 -0.9997481
vn 0.01587099 -0.01587099 -0.9997481
vn 0.01587099 -0.01587099 -0.9997481
vn 0.01587099 -0.01587099 -0.9997481
vn 0.01587099 -0.01587099 0.9997481
vn 0.01587099 -0.01587099 0.9997481
vn 0.01587099 -0.01587099 0.9997481
vn 0.01587099 -0.01587099 0.9997481
vn -0.9681321 -0.01587099 -0.2499366
vn -0.9681321 -0.01587099 -0.2499366
vn -0.9681321 -0.01587099 -0.2499366
vn -0.9681321 -0.01587099 -0.2499366
vn -0.9681321 -0.01587099 -0.2499366
vn -0.9681321 -0.01587099 -0.2499366
vn -0.9681321 -0.01587099 -0.2499366
vn -0.9681321 -0.01587099 -0.2499366
vn 0.01587099 -0.01587099 -0.9997481
vn 0.01587099 -0.01587099 -0.9997481
vn 0.01587099 -0.01587099 -0.9997481
vn 0.01587099 -0.01587099 -0.9997481
vn 0.01587099 -0.01587099 0.9997481
vn 0.01587099 -0.01587099 0.9997481
vn 0.01587099 -0.01587099 0.9997481
vn 0.01587099 -0.01587099 0.9997481
vn 0.9998741 -0.01587099 0
vn 0.9998741 -0.01587099 0
vn 0.9998741 -0.01587099 0
vn 0.9998741 -0.01587099 0
vn 0.01587099 -0.01587099 -0.9997481
vn 0.01587099 -0.01587099 -0.9997481
vn 0.01587099 -0.01587099 -0.9997481
vn 0.01587099 -0.01587099 -0.9997481
vn 0.01587099 -0.01587099 0.9997481
vn 0.01587099 -0.01587099 0.9997481
vn 0.01587099 -0.01587099 0.9997481
vn 0.01587099 -0.01587099 0.9997481
vn -0.9681321 -0.01587099 -0.2499366
vn -0.9681321 -0.01587099 -0.2499366
vn -0.9681321 -0.01587099 -0.2499366
vn -0.9681321 -0.01587099 -0.2499366
vn 0.01587099 -0.01587099 -0.9997481
vn 0.01587099 -0.01587099 -0.9997481
vn 0.01587099 -0.01587099 -0.9997481
vn 0.01587099 -0.01587099 -0.9997481
vn 0.01587099 -0.01587099 -0.9997481
vn 0.01587099 -0.01587099 -0.9997481
vn -0.9681321 -0.01587099 -0.2499366
vn -0.9681321 -0.01587099 -0.2499366
vn -0.9681321 -0.01587099 -0.2499366
vn -0.9681321 -0.01587099 -0.2499366
vn 0.01587099 -0.01587099 0.9997481
vn 0.01587099 -0.01587099 0.9997481
vn 0.01587099 -0.01587099 0.9997481
vn 0.01587099 -0.01587099 0.9997481
vn 0.01587099 0.9998741 0
vn 0.01587099 0.9998741 0
vn 0.01587099 0.9998741 0
vn 0.01587099 0.9998741 0
vn 0.01587099 -0.01587099 -0.9997481
vn 0.01587099 -0.01587099 -0.9997481
vn 0.01587099 -0.01587099 -0.9997481
vn 0.01587099 -0.01587099 -0.9997481
vn 0.01587099 -0.01587099 0.9997481
vn 0.01587099 -0.01587099 0.9997481
vn 0.01587099 -0.01587099 0.9997481
vn 0.01587099 -0.01587099 0.9997481
vn 0.01587099 -0.01587099 -0.9997481
vn 0.01587099 -0.01587099 -0.9997481
vn 0.01587099 -0.01587099 -0.9997481
vn 0.01587099 -0.01587099 -0.9997481
vn 0.9998741 -0.01587099 0
vn 0.9998741 -0.01587099 0
vn 0.9998741 -0.01587099 0
vn 0.9998741 -0.01587099 0
vn 0.01587099 -0.01587099 -0.9997481
vn 0.01587099 -0.01587099 -0.9997481
vn 0.01587099 -0.01587099 -0.9997481
vn 0.01587099 -0.01587099 -0.9997481
vn 0.01587099 -0.01587099 -0.9997481
vn 0.01587099 -0.01587099 -0.9997481
vn 0.01587099 -0.01587099 -0.9997481
vn 0.01587099 -0.01587099 -0.9997481
vn 0.9998741 -0.01587099 0
vn 0.9998741 -0.01587099 0
vn 0.9998741 -0.01587099 0
vn 0.9998741 -0.01587099 0
vn 0.01587099 0.9998741 0
vn 0.01587099 0.9998741 0
vn 0.01587099 0.9998741 0
vn 0.01587099 0.9998741 0
vn 0.01587099 0.9998741 0
vn 0.01587099 0.9998741 0
vn 0.01587099 0.9998741 0
vn 0.01587099 0.9998741 0
vn 0.01587099 0.9998741 0
vn 0.01587099 0.9998741 0
vn 0.01587099 0.9998741 0
vn 0.01587099 0.9998741 0
vn 0.01587099 -0.01587099 0.9997481
vn 0.01587099 -0.01587099 0.9997481
vn 0.01587099 -0.01587099 0.9997481
vn 0.01587099 -0.01587099 0.9997481
vn 0.01587099 -0.01587099 0.9997481
vn 0.01587099 -0.01587099 0.9997481
vn 0.01587099 -0.01587099 0.9997481
vn 0.01587099 -0.01587099 0.9997481
vn 0.01587099 -0.01587099 0.9997481
vn 0.01587099 -0.01587099 0.9997481
vn 0.01587099 -0.01587099 0.9997481
vn 0.01587099 -0.01587099 0.9997481
vn 0.01587099 -0.01587099 0.9997481
vn 0.01587099 -0.01587099 0.9997481
vn 0.01587099 -0.01587099 0.9997481
vn 0.01587099 -0.01587099 0.9997481
vn 0.01587099 -0.01587099 0.9997481
vn 0.01587099 -0.01587099 0.9997481
vn 0.01587099 -0.01587099 0.9997481
vn 0.01587099 -0.01587099 0.9997481
vn 0.01587099 -0.01587099 0.9997481
vn 0.01587099 -0.01587099 0.9997481
vn 0.01587099 -0.01587099 0.9997481
vn 0.01587099 -0.01587099 0.9997481
vn 0.01587099 -0.01587099 0.9997481
vn 0.01587099 -0.01587099 0.9997481
vn 0.01587099 -0.01587099 0.9997481
vn 0.01587099 -0.01587099 0.9997481
vn 0.01587099 -0.01587099 0.9997481
vn 0.01587099 -0.01587099 0.9997481
vn 0.01587099 0.9998741 0
vn 0.01587099 0.9998741 0
vn 0.01587099 0.9998741 0
vn 0.01587099 0.9998741 0
vn 0.01587099 0.9998741 0
vn 0.01587099 0.9998741 0
vn 0.01587099 0.9998741 0
vn 0.01587099 0.9998741 0
vn 0.01587099 0.9998741 0
vn 0.01587099 0.9998741 0
vn 0.01587099 0.9998741 0
vn 0.01587099 0.9998741 0
g DSJ_GTA_diLou_20_0
f 3/3/3 2/2/2 1/1/1
f 4/4/4 2/2/2 3/3/3
f 7/7/7 6/6/6 5/5/5
f 8/8/8 6/6/6 7/7/7
f 11/11/11 10/10/10 9/9/9
f 12/12/12 10/10/10 11/11/11
f 13/13/13 12/12/12 11/11/11
f 14/14/14 12/12/12 13/13/13
f 17/17/17 16/16/16 15/15/15
f 18/18/18 16/16/16 17/17/17
f 21/21/21 20/20/20 19/19/19
f 22/22/22 20/20/20 21/21/21
f 25/25/25 24/24/24 23/23/23
f 26/26/26 24/24/24 25/25/25
f 29/29/29 28/28/28 27/27/27
f 30/30/30 28/28/28 29/29/29
f 33/33/33 32/32/32 31/31/31
f 34/34/34 32/32/32 33/33/33
f 37/37/37 36/36/36 35/35/35
f 38/38/38 36/36/36 37/37/37
f 41/41/41 40/40/40 39/39/39
f 42/42/42 40/40/40 41/41/41
f 45/45/45 44/44/44 43/43/43
f 48/48/48 47/47/47 46/46/46
f 51/51/51 50/50/50 49/49/49
f 52/52/52 50/50/50 51/51/51
f 55/55/55 54/54/54 53/53/53
f 56/56/56 54/54/54 55/55/55
f 59/59/59 58/58/58 57/57/57
f 60/60/60 58/58/58 59/59/59
f 63/63/63 62/62/62 61/61/61
f 64/64/64 62/62/62 63/63/63
f 67/67/67 66/66/66 65/65/65
f 68/68/68 66/66/66 67/67/67
f 71/71/71 70/70/70 69/69/69
f 72/72/72 70/70/70 71/71/71
f 75/75/75 74/74/74 73/73/73
f 76/76/76 74/74/74 75/75/75
f 79/79/79 78/78/78 77/77/77
f 80/80/80 78/78/78 79/79/79
f 83/83/83 82/82/82 81/81/81
f 84/84/84 82/82/82 83/83/83
f 87/87/87 86/86/86 85/85/85
f 88/88/88 86/86/86 87/87/87
f 91/91/91 90/90/90 89/89/89
f 92/92/92 90/90/90 91/91/91
f 95/95/95 94/94/94 93/93/93
f 96/96/96 94/94/94 95/95/95
f 99/99/99 98/98/98 97/97/97
f 100/100/100 98/98/98 99/99/99
f 103/103/103 102/102/102 101/101/101
f 104/104/104 102/102/102 103/103/103
f 107/107/107 106/106/106 105/105/105
f 108/108/108 106/106/106 107/107/107
f 111/111/111 110/110/110 109/109/109
f 112/112/112 110/110/110 111/111/111
f 115/115/115 114/114/114 113/113/113
f 116/116/116 114/114/114 115/115/115
f 119/119/119 118/118/118 117/117/117
f 120/120/120 118/118/118 119/119/119
f 123/123/123 122/122/122 121/121/121
f 124/124/124 122/122/122 123/123/123
f 127/127/127 126/126/126 125/125/125
f 128/128/128 126/126/126 127/127/127
f 131/131/131 130/130/130 129/129/129
f 132/132/132 130/130/130 131/131/131
f 135/135/135 134/134/134 133/133/133
f 136/136/136 134/134/134 135/135/135
f 139/139/139 138/138/138 137/137/137
f 140/140/140 138/138/138 139/139/139
f 143/143/143 142/142/142 141/141/141
f 144/144/144 142/142/142 143/143/143
f 147/147/147 146/146/146 145/145/145
f 148/148/148 146/146/146 147/147/147
f 151/151/151 150/150/150 149/149/149
f 152/152/152 150/150/150 151/151/151
f 155/155/155 154/154/154 153/153/153
f 156/156/156 154/154/154 155/155/155
f 159/159/159 158/158/158 157/157/157
f 160/160/160 158/158/158 159/159/159
f 163/163/163 162/162/162 161/161/161
f 164/164/164 162/162/162 163/163/163
f 167/167/167 166/166/166 165/165/165
f 168/168/168 166/166/166 167/167/167
f 171/171/171 170/170/170 169/169/169
f 172/172/172 170/170/170 171/171/171
f 175/175/175 174/174/174 173/173/173
f 176/176/176 174/174/174 175/175/175
f 179/179/179 178/178/178 177/177/177
f 180/180/180 178/178/178 179/179/179
f 183/183/183 182/182/182 181/181/181
f 184/184/184 182/182/182 183/183/183
f 181/181/181 185/185/185 183/183/183
f 186/186/186 185/185/185 181/181/181
f 189/189/189 188/188/188 187/187/187
f 190/190/190 188/188/188 189/189/189
f 193/193/193 192/192/192 191/191/191
f 194/194/194 192/192/192 193/193/193
f 197/197/197 196/196/196 195/195/195
f 198/198/198 196/196/196 197/197/197
f 201/201/201 200/200/200 199/199/199
f 202/202/202 200/200/200 201/201/201
f 205/205/205 204/204/204 203/203/203
f 206/206/206 204/204/204 205/205/205
f 209/209/209 208/208/208 207/207/207
f 210/210/210 208/208/208 209/209/209
f 213/213/213 212/212/212 211/211/211
f 214/214/214 212/212/212 213/213/213
f 217/217/217 216/216/216 215/215/215
f 218/218/218 216/216/216 217/217/217
f 221/221/221 220/220/220 219/219/219
f 222/222/222 220/220/220 221/221/221
f 225/225/225 224/224/224 223/223/223
f 226/226/226 224/224/224 225/225/225
f 229/229/229 228/228/228 227/227/227
f 230/230/230 228/228/228 229/229/229
f 233/233/233 232/232/232 231/231/231
f 234/234/234 232/232/232 233/233/233
f 237/237/237 236/236/236 235/235/235
f 238/238/238 236/236/236 237/237/237
f 241/241/241 240/240/240 239/239/239
f 242/242/242 240/240/240 241/241/241
f 243/243/243 242/242/242 241/241/241
f 244/244/244 242/242/242 243/243/243
f 247/247/247 246/246/246 245/245/245
f 248/248/248 246/246/246 247/247/247
f 251/251/251 250/250/250 249/249/249
f 252/252/252 250/250/250 251/251/251
f 255/255/255 254/254/254 253/253/253
f 256/256/256 254/254/254 255/255/255
f 259/259/259 258/258/258 257/257/257
f 260/260/260 258/258/258 259/259/259
f 263/263/263 262/262/262 261/261/261
f 264/264/264 262/262/262 263/263/263
f 267/267/267 266/266/266 265/265/265
f 268/268/268 266/266/266 267/267/267
f 271/271/271 270/270/270 269/269/269
f 272/272/272 270/270/270 271/271/271
f 275/275/275 274/274/274 273/273/273
f 276/276/276 274/274/274 275/275/275
f 279/279/279 278/278/278 277/277/277
f 280/280/280 278/278/278 279/279/279
