g DSJ_GTA_daoJu_gongYe_03
v -5.531665 0.2448668 0.3954802
v -0.6484194 0.2448668 -0.3901958
v -5.531665 0.2448668 -0.3901958
v -0.6484194 0.2448668 0.3954802
v -5.531665 0.2448668 -0.3901958
v -0.6484194 0.925292 -0.7830496
v -5.531665 0.925292 -0.7830496
v -0.6484194 0.2448668 -0.3901958
v -5.531665 0.925292 -0.7830496
v -0.6484194 1.605728 -0.3901958
v -5.531665 1.605728 -0.3901958
v -0.6484194 0.925292 -0.7830496
v -5.531665 1.605728 -0.3901958
v -0.6484194 1.605728 0.3954802
v -5.531665 1.605728 0.3954802
v -0.6484194 1.605728 -0.3901958
v -5.531665 1.605728 0.3954802
v -0.6484194 0.925292 0.7883234
v -5.531665 0.925292 0.7883234
v -0.6484194 1.605728 0.3954802
v -5.531665 0.925292 0.7883234
v -0.6484194 0.2448668 0.3954802
v -5.531665 0.2448668 0.3954802
v -0.6484194 0.925292 0.7883234
v -5.637088 0.925292 1.023887
v -5.637088 0.03856993 0.5119448
v -5.637099 0.03856993 -0.511961
v -5.637088 0.925292 -1.023925
v -5.637088 1.812036 0.5119448
v -5.637088 1.812036 -0.511961
v -5.426243 0.925292 -1.023925
v -5.426243 0.03856993 -0.511961
v -5.426243 0.03856993 0.5119448
v -5.426243 0.925292 1.023887
v -5.426243 1.812036 -0.511961
v -5.426243 1.812036 0.5119448
v -5.637088 1.812036 -0.511961
v -5.426243 1.812036 0.5119448
v -5.637088 1.812036 0.5119448
v -5.426243 1.812036 -0.511961
v -5.637088 1.812036 0.5119448
v -5.426243 0.925292 1.023887
v -5.637088 0.925292 1.023887
v -5.426243 1.812036 0.5119448
v -5.637088 0.925292 1.023887
v -5.426243 0.03856993 0.5119448
v -5.637088 0.03856993 0.5119448
v -5.426243 0.925292 1.023887
v -5.637088 0.03856993 0.5119448
v -5.426243 0.03856993 -0.511961
v -5.637099 0.03856993 -0.511961
v -5.426243 0.03856993 0.5119448
v -5.637099 0.03856993 -0.511961
v -5.426243 0.925292 -1.023925
v -5.637088 0.925292 -1.023925
v -5.426243 0.03856993 -0.511961
v -5.637088 0.925292 -1.023925
v -5.426243 1.812036 -0.511961
v -5.637088 1.812036 -0.511961
v -5.426243 0.925292 -1.023925
v -0.6484194 0.925292 -0.7830496
v 5.637105 1.605728 -0.3901958
v -0.6484194 1.605728 -0.3901958
v 5.637105 0.925292 -0.7830496
v -0.6484194 0.2448668 -0.3901958
v 5.637105 0.925292 -0.7830496
v -0.6484194 0.925292 -0.7830496
v 5.637105 0.2448668 -0.3901958
v -0.6484194 0.2448668 0.3954802
v 5.637105 0.2448668 -0.3901958
v -0.6484194 0.2448668 -0.3901958
v 5.637105 0.2448668 0.3954802
v -0.6484194 0.925292 0.7883234
v 5.637105 0.2448668 0.3954802
v -0.6484194 0.2448668 0.3954802
v 5.637105 0.925292 0.7883234
v -0.6484194 1.605728 0.3954802
v 5.637105 0.925292 0.7883234
v -0.6484194 0.925292 0.7883234
v 5.637105 1.605728 0.3954802
v -0.6484194 1.605728 -0.3901958
v 5.637105 1.605728 0.3954802
v -0.6484194 1.605728 0.3954802
v 5.637105 1.605728 -0.3901958
vt 0.4941471 0.425787
vt 0.7352937 0.3849979
vt 0.4941471 0.3849979
vt 0.7352937 0.425787
vt 0.4941471 0.3849979
vt 0.7352937 0.3442088
vt 0.4941471 0.3442088
vt 0.7352937 0.3849979
vt 0.4941471 0.3442088
vt 0.7352937 0.3034856
vt 0.4941471 0.3034724
vt 0.7352937 0.3442088
vt 0.4941471 0.3034724
vt 0.7352937 0.3442484
vt 0.4941471 0.3442484
vt 0.7352937 0.3034856
vt 0.4941471 0.3442484
vt 0.7352937 0.3850375
vt 0.4941471 0.3850639
vt 0.7352937 0.3442484
vt 0.4941471 0.3850639
vt 0.7352937 0.4258266
vt 0.4941471 0.425853
vt 0.7352937 0.3850375
vt 0.7158753 0.4571704
vt 0.6652187 0.3648936
vt 0.5638659 0.3648936
vt 0.5131829 0.4571704
vt 0.6652187 0.5494472
vt 0.5638659 0.5494472
vt 0.5131829 0.4571704
vt 0.5638659 0.3648936
vt 0.6652187 0.3648936
vt 0.7158753 0.4571704
vt 0.5638659 0.5494472
vt 0.6652187 0.5494472
vt 0.7353992 0.3562925
vt 0.4944769 0.3041452
vt 0.4944769 0.3562925
vt 0.7353992 0.3041452
vt 0.4944769 0.3562925
vt 0.7353992 0.3041452
vt 0.7353992 0.3562925
vt 0.4944769 0.3041452
vt 0.7353992 0.3562925
vt 0.4944769 0.3041452
vt 0.4944769 0.3562925
vt 0.7353992 0.3041452
vt 0.4944769 0.3562925
vt 0.7353992 0.3041452
vt 0.7353992 0.3562925
vt 0.4944769 0.3041452
vt 0.7353992 0.3562925
vt 0.4944769 0.3041452
vt 0.4944769 0.3562925
vt 0.7353992 0.3041452
vt 0.4944769 0.3562925
vt 0.7353992 0.3041452
vt 0.7353992 0.3562925
vt 0.4944769 0.3041452
vt 0.7357026 0.3442088
vt 0.4941471 0.3034856
vt 0.7357026 0.3034856
vt 0.4941471 0.3442088
vt 0.735729 0.3849979
vt 0.4941471 0.3442088
vt 0.7357026 0.3442088
vt 0.4941471 0.3849979
vt 0.7357026 0.425787
vt 0.4941471 0.3849979
vt 0.735729 0.3849979
vt 0.4941471 0.425787
vt 0.7357026 0.3850375
vt 0.4941471 0.4258266
vt 0.7357026 0.4258266
vt 0.4941471 0.3850375
vt 0.7357026 0.3442484
vt 0.4941471 0.3850375
vt 0.7357026 0.3850375
vt 0.4941471 0.3442484
vt 0.7357026 0.3034856
vt 0.4941471 0.3442484
vt 0.7357026 0.3442484
vt 0.4941471 0.3034856
vn 0.003921568 -0.9999924 0
vn 0.003921568 -0.9999924 0
vn 0.003921568 -0.9999924 0
vn 0.003921568 -0.9999924 0
vn 0.01176465 -0.5137216 -0.8578763
vn 0.01176465 -0.5137216 -0.8578763
vn 0.01176465 -0.5137216 -0.8578763
vn 0.01176465 -0.5137216 -0.8578763
vn 0.01176465 0.4980353 -0.8670769
vn 0.01176465 0.4980353 -0.8670769
vn 0.01176465 0.4980353 -0.8670769
vn 0.01176465 0.4980353 -0.8670769
vn 0.003921568 0.9999923 -0.000345267
vn 0.003921568 0.9999923 -0.000345267
vn 0.003921568 0.9999923 -0.000345267
vn 0.003921568 0.9999923 -0.000345267
vn 0.01176465 0.4980353 0.8670769
vn 0.01176465 0.4980353 0.8670769
vn 0.01176465 0.4980353 0.8670769
vn 0.01176465 0.4980353 0.8670769
vn 0.01176465 -0.5137216 0.8578763
vn 0.01176465 -0.5137216 0.8578763
vn 0.01176465 -0.5137216 0.8578763
vn 0.01176465 -0.5137216 0.8578763
vn -0.9999923 -0.003921568 -0.0003442513
vn -0.9999923 -0.003921568 -0.0003442513
vn -0.9999923 -0.003921568 -0.0003442513
vn -0.9999923 -0.003921568 -0.0003442513
vn -0.9999923 -0.003921568 -0.0003442513
vn -0.9999923 -0.003921568 -0.0003442513
vn 0.9999924 -0.003921568 0
vn 0.9999924 -0.003921568 0
vn 0.9999924 -0.003921568 0
vn 0.9999924 -0.003921568 0
vn 0.9999924 -0.003921568 0
vn 0.9999924 -0.003921568 0
vn 0.003921568 0.9999923 -0.000345267
vn 0.003921568 0.9999923 -0.000345267
vn 0.003921568 0.9999923 -0.000345267
vn 0.003921568 0.9999923 -0.000345267
vn 0.01176465 0.4980353 0.8670769
vn 0.01176465 0.4980353 0.8670769
vn 0.01176465 0.4980353 0.8670769
vn 0.01176465 0.4980353 0.8670769
vn 0.01176465 -0.5137216 0.8578763
vn 0.01176465 -0.5137216 0.8578763
vn 0.01176465 -0.5137216 0.8578763
vn 0.01176465 -0.5137216 0.8578763
vn 0.003921568 -0.9999924 0
vn 0.003921568 -0.9999924 0
vn 0.003921568 -0.9999924 0
vn 0.003921568 -0.9999924 0
vn 0.01176465 -0.5137216 -0.8578763
vn 0.01176465 -0.5137216 -0.8578763
vn 0.01176465 -0.5137216 -0.8578763
vn 0.01176465 -0.5137216 -0.8578763
vn 0.01176465 0.4980353 -0.8670769
vn 0.01176465 0.4980353 -0.8670769
vn 0.01176465 0.4980353 -0.8670769
vn 0.01176465 0.4980353 -0.8670769
vn 0.01176465 0.4980353 -0.8670769
vn 0.01176465 0.4980353 -0.8670769
vn 0.01176465 0.4980353 -0.8670769
vn 0.01176465 0.4980353 -0.8670769
vn 0.01176465 -0.5137216 -0.8578763
vn 0.01176465 -0.5137216 -0.8578763
vn 0.01176465 -0.5137216 -0.8578763
vn 0.01176465 -0.5137216 -0.8578763
vn 0.003921568 -0.9999924 0
vn 0.003921568 -0.9999924 0
vn 0.003921568 -0.9999924 0
vn 0.003921568 -0.9999924 0
vn 0.01176465 -0.5137216 0.8578763
vn 0.01176465 -0.5137216 0.8578763
vn 0.01176465 -0.5137216 0.8578763
vn 0.01176465 -0.5137216 0.8578763
vn 0.01176465 0.4980353 0.8670769
vn 0.01176465 0.4980353 0.8670769
vn 0.01176465 0.4980353 0.8670769
vn 0.01176465 0.4980353 0.8670769
vn 0.003921568 0.9999923 -0.000345267
vn 0.003921568 0.9999923 -0.000345267
vn 0.003921568 0.9999923 -0.000345267
vn 0.003921568 0.9999923 -0.000345267
g DSJ_GTA_daoJu_gongYe_03_0
f 3/3/3 2/2/2 1/1/1
f 2/2/2 4/4/4 1/1/1
f 7/7/7 6/6/6 5/5/5
f 6/6/6 8/8/8 5/5/5
f 11/11/11 10/10/10 9/9/9
f 10/10/10 12/12/12 9/9/9
f 15/15/15 14/14/14 13/13/13
f 14/14/14 16/16/16 13/13/13
f 19/19/19 18/18/18 17/17/17
f 18/18/18 20/20/20 17/17/17
f 23/23/23 22/22/22 21/21/21
f 22/22/22 24/24/24 21/21/21
f 27/27/27 26/26/26 25/25/25
f 25/25/25 28/28/28 27/27/27
f 25/25/25 29/29/29 28/28/28
f 29/29/29 30/30/30 28/28/28
f 33/33/33 32/32/32 31/31/31
f 31/31/31 34/34/34 33/33/33
f 31/31/31 35/35/35 34/34/34
f 35/35/35 36/36/36 34/34/34
f 39/39/39 38/38/38 37/37/37
f 38/38/38 40/40/40 37/37/37
f 43/43/43 42/42/42 41/41/41
f 42/42/42 44/44/44 41/41/41
f 47/47/47 46/46/46 45/45/45
f 46/46/46 48/48/48 45/45/45
f 51/51/51 50/50/50 49/49/49
f 50/50/50 52/52/52 49/49/49
f 55/55/55 54/54/54 53/53/53
f 54/54/54 56/56/56 53/53/53
f 59/59/59 58/58/58 57/57/57
f 58/58/58 60/60/60 57/57/57
f 63/63/63 62/62/62 61/61/61
f 62/62/62 64/64/64 61/61/61
f 67/67/67 66/66/66 65/65/65
f 66/66/66 68/68/68 65/65/65
f 71/71/71 70/70/70 69/69/69
f 70/70/70 72/72/72 69/69/69
f 75/75/75 74/74/74 73/73/73
f 74/74/74 76/76/76 73/73/73
f 79/79/79 78/78/78 77/77/77
f 78/78/78 80/80/80 77/77/77
f 83/83/83 82/82/82 81/81/81
f 82/82/82 84/84/84 81/81/81
