g DSJ_GTA_gaoLou_4
v 33.40692 2.279228 -47.60323
v -45.25889 2.279228 47.34275
v -40.30972 33.27668 -55.15723
v 28.45774 33.27668 54.89675
v -45.25889 2.279228 47.34275
v 33.40692 2.279228 -47.60323
v 28.45774 -50.07782 54.89675
v 28.45774 -66.61848 54.89675
v -45.25889 -50.07782 47.34275
v -45.25889 -66.61848 47.34275
v 33.40692 -50.07782 -47.60323
v 33.40692 -66.61848 -47.60323
v 28.45774 -50.07782 54.89675
v 28.45774 -66.61848 54.89675
v -40.30972 -50.07782 -55.15723
v -40.30972 -66.61848 -55.15723
v 33.40692 -50.07782 -47.60323
v 33.40692 -66.61848 -47.60323
v -45.25889 -50.07782 47.34275
v -45.25889 -66.61848 47.34275
v -40.30972 -50.07782 -55.15723
v -40.30972 -66.61848 -55.15723
v 22.07592 66.61848 44.60768
v -38.09561 66.61848 38.61658
v 25.98316 66.61848 -38.87706
v -33.92789 66.61848 -44.99841
v -38.09561 66.61848 38.61658
v 22.07592 66.61848 44.60768
v -38.09561 0.06512451 38.61658
v 22.07592 23.37833 44.60768
v 22.07592 66.61848 44.60768
v 25.98316 66.61848 -38.87706
v 22.07592 23.37833 44.60768
v 25.98316 0.06512451 -38.87706
v 25.98316 66.61848 -38.87706
v -33.92789 66.61848 -44.99841
v 25.98316 0.06512451 -38.87706
v -33.92789 23.37833 -44.99841
v -33.92789 66.61848 -44.99841
v -38.09561 66.61848 38.61658
v -33.92789 23.37833 -44.99841
v -38.09561 0.06512451 38.61658
v 31.97426 -50.72903 -45.9101
v 27.28557 -50.72903 52.81289
v 45.51937 -50.72903 -44.60768
v 40.83068 -50.72903 54.24554
v 40.83068 -49.03589 54.24554
v 27.28557 -49.03589 52.81289
v 45.51937 -49.03589 -44.60768
v 31.97426 -49.03589 -45.9101
v 40.83068 -50.72903 54.24554
v 27.28557 -50.72903 52.81289
v 40.83068 -49.03589 54.24554
v 27.28557 -49.03589 52.81289
v 45.51937 -50.72903 -44.60768
v 40.83068 -50.72903 54.24554
v 45.51937 -49.03589 -44.60768
v 40.83068 -49.03589 54.24554
v 31.97426 -50.72903 -45.9101
v 45.51937 -50.72903 -44.60768
v 31.97426 -49.03589 -45.9101
v 45.51937 -49.03589 -44.60768
v -45.25889 2.279228 47.34275
v 28.45774 33.27668 54.89675
v -45.25889 -16.21505 47.34275
v 28.45774 -16.21505 54.89675
v 28.45774 33.27668 54.89675
v 33.40692 2.279228 -47.60323
v 28.45774 -16.21505 54.89675
v 33.40692 -16.21505 -47.60323
v 33.40692 2.279228 -47.60323
v -40.30972 33.27668 -55.15723
v 33.40692 -16.21505 -47.60323
v -40.30972 -16.21505 -55.15723
v -40.30972 33.27668 -55.15723
v -45.25889 2.279228 47.34275
v -40.30972 -16.21505 -55.15723
v -45.25889 -16.21505 47.34275
v -45.25889 -16.21505 47.34275
v 28.45774 -16.21505 54.89675
v -45.25889 -50.07782 47.34275
v 28.45774 -50.07782 54.89675
v 28.45774 -16.21505 54.89675
v 33.40692 -16.21505 -47.60323
v 28.45774 -50.07782 54.89675
v 33.40692 -50.07782 -47.60323
v 33.40692 -16.21505 -47.60323
v -40.30972 -16.21505 -55.15723
v 33.40692 -50.07782 -47.60323
v -40.30972 -50.07782 -55.15723
v -40.30972 -16.21505 -55.15723
v -45.25889 -16.21505 47.34275
v -40.30972 -50.07782 -55.15723
v -45.25889 -50.07782 47.34275
vt 0.2685454 0.2957281
vt 0.3733928 0.4898899
vt 0.2491292 0.4898899
vt 0.3733928 0.2568957
vt 0.3733928 0.4898899
vt 0.2685454 0.2957281
vt 0.9947107 0.7461835
vt 0.9947107 0.62192
vt 0.6258032 0.7461835
vt 0.6258032 0.62192
vt 0.62192 0.7423003
vt 0.62192 0.62192
vt 0.2491292 0.7423003
vt 0.2491292 0.62192
vt 0.9947107 0.7461835
vt 0.9947107 0.62192
vt 0.6258032 0.7461835
vt 0.6258032 0.62192
vt 0.3733928 0.7461835
vt 0.3733928 0.62192
vt 0.004485279 0.7461835
vt 0.004485279 0.62192
vt 0.2685454 0.3966922
vt 0.3539766 0.3966922
vt 0.2685454 0.2918448
vt 0.3539766 0.2918448
vt 0.2801951 0.4471743
vt 0.3423269 0.4471743
vt 0.2801951 0.2607789
vt 0.3423269 0.3267939
vt 0.3423269 0.2996113
vt 0.2801951 0.2996113
vt 0.3423269 0.4161084
vt 0.2801951 0.4821234
vt 0.3423269 0.2996113
vt 0.2801951 0.2996113
vt 0.3423269 0.4821234
vt 0.2801951 0.4199916
vt 0.2801951 0.4471743
vt 0.3423269 0.4471743
vt 0.2801951 0.3267939
vt 0.3423269 0.2607789
vt 0.4083419 0.05108412
vt 0.4937731 0.05108412
vt 0.4083419 0.04720088
vt 0.4937731 0.04720088
vt 0.4937731 0.05108412
vt 0.4937731 0.04720088
vt 0.4083419 0.05108412
vt 0.4083419 0.04720088
vt 0.458824 0.04720088
vt 0.4432911 0.04720088
vt 0.458824 0.05108412
vt 0.4432911 0.05108412
vt 0.4937731 0.04720088
vt 0.4083419 0.04720088
vt 0.4937731 0.05108412
vt 0.4083419 0.05108412
vt 0.458824 0.04720088
vt 0.4432911 0.04720088
vt 0.458824 0.05108412
vt 0.4432911 0.05108412
vt 0.3617431 0.4005755
vt 0.2607789 0.2646621
vt 0.3617431 0.4821234
vt 0.2607789 0.4821234
vt 0.3617431 0.2646621
vt 0.2607789 0.4005755
vt 0.3617431 0.4821234
vt 0.2607789 0.4821234
vt 0.3617431 0.4005755
vt 0.2607789 0.2646621
vt 0.3617431 0.4821234
vt 0.2607789 0.4821234
vt 0.3617431 0.2646621
vt 0.2607789 0.4005755
vt 0.3617431 0.4821234
vt 0.2607789 0.4821234
vt 0.3617431 0.2646621
vt 0.2607789 0.2646621
vt 0.3617431 0.4122252
vt 0.2607789 0.4122252
vt 0.3617431 0.2646621
vt 0.2607789 0.2646621
vt 0.3617431 0.4122252
vt 0.2607789 0.4122252
vt 0.3617431 0.2646621
vt 0.2607789 0.2646621
vt 0.3617431 0.4122252
vt 0.2607789 0.4122252
vt 0.3617431 0.2646621
vt 0.2607789 0.2646621
vt 0.3617431 0.4122252
vt 0.2607789 0.4122252
vn 0.3967754 0.8729059 0.2839096
vn 0.3967754 0.8729059 0.2839096
vn 0.3967754 0.8729059 0.2839096
vn -0.3332913 0.8729059 -0.3563037
vn -0.3332913 0.8729059 -0.3563037
vn -0.3332913 0.8729059 -0.3563037
vn -0.07935512 -0.04761302 0.9957087
vn -0.07935512 -0.04761302 0.9957087
vn -0.07935512 -0.04761302 0.9957087
vn -0.07935512 -0.04761302 0.9957087
vn 0.999874 -0.01587099 -0.000346655
vn 0.999874 -0.01587099 -0.000346655
vn 0.999874 -0.01587099 -0.000346655
vn 0.999874 -0.01587099 -0.000346655
vn 0.1428391 -0.04761302 -0.9886
vn 0.1428391 -0.04761302 -0.9886
vn 0.1428391 -0.04761302 -0.9886
vn 0.1428391 -0.04761302 -0.9886
vn -0.968132 -0.04761302 -0.2458728
vn -0.968132 -0.04761302 -0.2458728
vn -0.968132 -0.04761302 -0.2458728
vn -0.968132 -0.04761302 -0.2458728
vn 0.01587099 0.999874 -0.000345267
vn 0.01587099 0.999874 -0.000345267
vn 0.01587099 0.999874 -0.000345267
vn 0.01587099 0.999874 -0.000345267
vn -0.07935512 -0.04761302 0.9957087
vn -0.07935512 -0.04761302 0.9957087
vn -0.07935512 -0.04761302 0.9957087
vn -0.07935512 -0.04761302 0.9957087
vn 0.999874 -0.01587099 -0.000346655
vn 0.999874 -0.01587099 -0.000346655
vn 0.999874 -0.01587099 -0.000346655
vn 0.999874 -0.01587099 -0.000346655
vn 0.1428391 -0.04761302 -0.9886
vn 0.1428391 -0.04761302 -0.9886
vn 0.1428391 -0.04761302 -0.9886
vn 0.1428391 -0.04761302 -0.9886
vn -0.968132 -0.04761302 -0.2458728
vn -0.968132 -0.04761302 -0.2458728
vn -0.968132 -0.04761302 -0.2458728
vn -0.968132 -0.04761302 -0.2458728
vn 0.01587099 -0.999874 -0.000345267
vn 0.01587099 -0.999874 -0.000345267
vn 0.01587099 -0.999874 -0.000345267
vn 0.01587099 -0.999874 -0.000345267
vn 0.01587099 0.999874 -0.000345267
vn 0.01587099 0.999874 -0.000345267
vn 0.01587099 0.999874 -0.000345267
vn 0.01587099 0.999874 -0.000345267
vn -0.07935512 -0.04761302 0.9957087
vn -0.07935512 -0.04761302 0.9957087
vn -0.07935512 -0.04761302 0.9957087
vn -0.07935512 -0.04761302 0.9957087
vn 0.999874 -0.01587099 -0.000346655
vn 0.999874 -0.01587099 -0.000346655
vn 0.999874 -0.01587099 -0.000346655
vn 0.999874 -0.01587099 -0.000346655
vn 0.1428391 -0.04761302 -0.9886
vn 0.1428391 -0.04761302 -0.9886
vn 0.1428391 -0.04761302 -0.9886
vn 0.1428391 -0.04761302 -0.9886
vn -0.07935512 -0.04761302 0.9957087
vn -0.07935512 -0.04761302 0.9957087
vn -0.07935512 -0.04761302 0.9957087
vn -0.07935512 -0.04761302 0.9957087
vn 0.999874 -0.01587099 -0.000346655
vn 0.999874 -0.01587099 -0.000346655
vn 0.999874 -0.01587099 -0.000346655
vn 0.999874 -0.01587099 -0.000346655
vn 0.1428391 -0.04761302 -0.9886
vn 0.1428391 -0.04761302 -0.9886
vn 0.1428391 -0.04761302 -0.9886
vn 0.1428391 -0.04761302 -0.9886
vn -0.968132 -0.04761302 -0.2458728
vn -0.968132 -0.04761302 -0.2458728
vn -0.968132 -0.04761302 -0.2458728
vn -0.968132 -0.04761302 -0.2458728
vn -0.07935512 -0.04761302 0.9957087
vn -0.07935512 -0.04761302 0.9957087
vn -0.07935512 -0.04761302 0.9957087
vn -0.07935512 -0.04761302 0.9957087
vn 0.999874 -0.01587099 -0.000346655
vn 0.999874 -0.01587099 -0.000346655
vn 0.999874 -0.01587099 -0.000346655
vn 0.999874 -0.01587099 -0.000346655
vn 0.1428391 -0.04761302 -0.9886
vn 0.1428391 -0.04761302 -0.9886
vn 0.1428391 -0.04761302 -0.9886
vn 0.1428391 -0.04761302 -0.9886
vn -0.968132 -0.04761302 -0.2458728
vn -0.968132 -0.04761302 -0.2458728
vn -0.968132 -0.04761302 -0.2458728
vn -0.968132 -0.04761302 -0.2458728
g DSJ_GTA_gaoLou_4_0
f 3/3/3 2/2/2 1/1/1
f 6/6/6 5/5/5 4/4/4
f 9/9/9 8/8/8 7/7/7
f 10/10/10 8/8/8 9/9/9
f 13/13/13 12/12/12 11/11/11
f 14/14/14 12/12/12 13/13/13
f 17/17/17 16/16/16 15/15/15
f 18/18/18 16/16/16 17/17/17
f 21/21/21 20/20/20 19/19/19
f 22/22/22 20/20/20 21/21/21
f 25/25/25 24/24/24 23/23/23
f 26/26/26 24/24/24 25/25/25
f 29/29/29 28/28/28 27/27/27
f 30/30/30 28/28/28 29/29/29
f 33/33/33 32/32/32 31/31/31
f 34/34/34 32/32/32 33/33/33
f 37/37/37 36/36/36 35/35/35
f 38/38/38 36/36/36 37/37/37
f 41/41/41 40/40/40 39/39/39
f 42/42/42 40/40/40 41/41/41
f 45/45/45 44/44/44 43/43/43
f 46/46/46 44/44/44 45/45/45
f 49/49/49 48/48/48 47/47/47
f 50/50/50 48/48/48 49/49/49
f 53/53/53 52/52/52 51/51/51
f 54/54/54 52/52/52 53/53/53
f 57/57/57 56/56/56 55/55/55
f 58/58/58 56/56/56 57/57/57
f 61/61/61 60/60/60 59/59/59
f 62/62/62 60/60/60 61/61/61
f 65/65/65 64/64/64 63/63/63
f 66/66/66 64/64/64 65/65/65
f 69/69/69 68/68/68 67/67/67
f 70/70/70 68/68/68 69/69/69
f 73/73/73 72/72/72 71/71/71
f 74/74/74 72/72/72 73/73/73
f 77/77/77 76/76/76 75/75/75
f 78/78/78 76/76/76 77/77/77
f 81/81/81 80/80/80 79/79/79
f 82/82/82 80/80/80 81/81/81
f 85/85/85 84/84/84 83/83/83
f 86/86/86 84/84/84 85/85/85
f 89/89/89 88/88/88 87/87/87
f 90/90/90 88/88/88 89/89/89
f 93/93/93 92/92/92 91/91/91
f 94/94/94 92/92/92 93/93/93
