g DSJ_GTA_daoJu_gongYe_02
v -0.2500614 0.3518252 0.3928382
v 0.498202 0.01087093 0.7856798
v -0.1822386 0.01087093 0.3928382
v 0.3785824 0.6122144 0.7856798
v -0.4432054 0.6408714 0.3928382
v 0.03793764 1.122007 0.7856798
v -0.7322376 0.8340049 0.3928382
v -0.4718379 1.462638 0.7856798
v -1.073185 0.9018278 0.3928382
v -1.073185 1.582254 0.7856798
v 0.3785824 0.6122144 0.7856798
v 1.178618 0.01087093 0.3928382
v 0.498202 0.01087093 0.7856798
v 1.007223 0.8726003 0.3928382
v 0.03793764 1.122007 0.7856798
v 0.5190703 1.60314 0.3928382
v -0.4718379 1.462638 0.7856798
v -0.2114661 2.091272 0.3928382
v -1.073185 1.582254 0.7856798
v -1.073185 2.262681 0.3928382
v 1.007223 0.8726003 0.3928382
v 1.178618 0.01087093 -0.3928552
v 1.178618 0.01087093 0.3928382
v 1.007223 0.8726003 -0.3928552
v 0.5190703 1.60314 0.3928382
v 0.5190703 1.60314 -0.3928552
v -0.2114661 2.091272 0.3928382
v -0.2114661 2.091272 -0.3928552
v -1.073185 2.262681 0.3928382
v -1.073185 2.262681 -0.3928552
v 1.007223 0.8726003 -0.3928552
v 0.498202 0.01087093 -0.7856967
v 1.178618 0.01087093 -0.3928552
v 0.3785824 0.6122144 -0.7856967
v 0.5190703 1.60314 -0.3928552
v 0.03793764 1.122007 -0.7856967
v -0.2114661 2.091272 -0.3928552
v -0.4718379 1.462638 -0.7856967
v -1.073185 2.262681 -0.3928552
v -1.073185 1.582254 -0.7856967
v 0.3785824 0.6122144 -0.7856967
v -0.1822386 0.01087093 -0.3928552
v 0.498202 0.01087093 -0.7856967
v -0.2500614 0.3518252 -0.3928552
v 0.03793764 1.122007 -0.7856967
v -0.4432054 0.6408714 -0.3928552
v -0.4718379 1.462638 -0.7856967
v -0.7322376 0.8340049 -0.3928552
v -1.073185 1.582254 -0.7856967
v -1.073185 0.9018278 -0.3928552
v -0.2500614 0.3518252 0.3928382
v -0.1822386 0.01087093 -0.3928552
v -0.2500614 0.3518252 -0.3928552
v -0.1822386 0.01087093 0.3928382
v -0.4432054 0.6408714 0.3928382
v -0.4432054 0.6408714 -0.3928552
v -0.7322376 0.8340049 0.3928382
v -0.7322376 0.8340049 -0.3928552
v -1.073185 0.9018278 0.3928382
v -1.073185 0.9018278 -0.3928552
v -1.178615 1.582254 1.023903
v -1.178605 0.6955242 0.51195
v -1.178605 0.6955242 -0.5119565
v -1.178605 1.582254 -1.02391
v -1.178605 2.468985 0.51195
v -1.178605 2.468985 -0.5119565
v -0.9677651 1.582254 -1.02391
v -0.9677756 0.6955242 -0.5119565
v -0.9677756 0.6955242 0.51195
v -0.9677756 1.582254 1.023903
v -0.9677756 2.468985 -0.5119565
v -0.9677756 2.468985 0.51195
v -1.178605 2.468985 -0.5119565
v -0.9677756 2.468985 0.51195
v -1.178605 2.468985 0.51195
v -0.9677756 2.468985 -0.5119565
v -1.178605 2.468985 0.51195
v -0.9677756 1.582254 1.023903
v -1.178615 1.582254 1.023903
v -0.9677756 2.468985 0.51195
v -1.178615 1.582254 1.023903
v -0.9677756 0.6955242 0.51195
v -1.178605 0.6955242 0.51195
v -0.9677756 1.582254 1.023903
v -1.178605 0.6955242 0.51195
v -0.9677756 0.6955242 -0.5119565
v -1.178605 0.6955242 -0.5119565
v -0.9677756 0.6955242 0.51195
v -1.178605 0.6955242 -0.5119565
v -0.9677651 1.582254 -1.02391
v -1.178605 1.582254 -1.02391
v -0.9677756 0.6955242 -0.5119565
v -1.178605 1.582254 -1.02391
v -0.9677756 2.468985 -0.5119565
v -1.178605 2.468985 -0.5119565
v -0.9677651 1.582254 -1.02391
vt 0.554571 0.3755281
vt 0.4949251 0.4172486
vt 0.4950963 0.3755281
vt 0.5548738 0.4172486
vt 0.614796 0.3755281
vt 0.614796 0.4172486
vt 0.6750342 0.3755281
vt 0.6747578 0.4172486
vt 0.7345353 0.3755281
vt 0.7346932 0.4172486
vt 0.5548738 0.4172486
vt 0.4949251 0.4586928
vt 0.4949251 0.4172486
vt 0.5548738 0.4586928
vt 0.614796 0.4172486
vt 0.614796 0.4586928
vt 0.6747578 0.4172486
vt 0.6747578 0.4586928
vt 0.7346932 0.4172486
vt 0.7346932 0.4586928
vt 0.5548738 0.4586928
vt 0.4949251 0.5002422
vt 0.4949251 0.4586928
vt 0.5548738 0.5002422
vt 0.614796 0.4586928
vt 0.614796 0.5002422
vt 0.6747578 0.4586928
vt 0.6747578 0.5002422
vt 0.7346932 0.4586928
vt 0.7346932 0.5002422
vt 0.5548738 0.5002422
vt 0.4949251 0.4587981
vt 0.4949251 0.5002422
vt 0.5548738 0.4587981
vt 0.614796 0.5002422
vt 0.614796 0.4587981
vt 0.6747578 0.5002422
vt 0.6747578 0.4587981
vt 0.7346932 0.5002422
vt 0.7346932 0.4587981
vt 0.5548738 0.4587981
vt 0.4949251 0.4172486
vt 0.4949251 0.4587981
vt 0.5548738 0.4172486
vt 0.614796 0.4587981
vt 0.614796 0.4172486
vt 0.6747578 0.4587981
vt 0.6747578 0.4172486
vt 0.7346932 0.4587981
vt 0.7346932 0.4172486
vt 0.5548738 0.3755281
vt 0.4949251 0.4172486
vt 0.5548738 0.4172486
vt 0.4949251 0.3755281
vt 0.614796 0.3755281
vt 0.614796 0.4172486
vt 0.6747578 0.3755281
vt 0.6747578 0.4172486
vt 0.7346932 0.3755281
vt 0.7346932 0.4172486
vt 0.7158992 0.4571661
vt 0.665216 0.364894
vt 0.5638496 0.364894
vt 0.5131927 0.4571661
vt 0.665216 0.5494646
vt 0.5638496 0.5494646
vt 0.5131927 0.4571661
vt 0.5638496 0.364894
vt 0.665216 0.364894
vt 0.7158992 0.4571661
vt 0.5638496 0.5494646
vt 0.665216 0.5494646
vt 0.7354039 0.3562866
vt 0.4944777 0.3041557
vt 0.4944777 0.3562866
vt 0.7353776 0.3041557
vt 0.4944777 0.3562866
vt 0.7354039 0.3041557
vt 0.7354039 0.3562866
vt 0.4944777 0.3041557
vt 0.7354039 0.3562866
vt 0.4944777 0.3041557
vt 0.4944777 0.3562866
vt 0.7354039 0.3041557
vt 0.4944777 0.3562866
vt 0.7354039 0.3041557
vt 0.7354039 0.3562866
vt 0.4944777 0.3041557
vt 0.7354039 0.3562866
vt 0.4944777 0.3041557
vt 0.4944777 0.3562866
vt 0.7354039 0.3041557
vt 0.4944777 0.3562866
vt 0.7354039 0.3041557
vt 0.7354039 0.3562866
vt 0.4944777 0.3041557
vn -0.45882 -0.1999985 0.8657279
vn -0.4901923 -0.1137246 0.8641633
vn -0.4901923 -0.1137246 0.8641633
vn -0.45882 -0.1999985 0.8657279
vn -0.3490169 -0.3647031 0.8632374
vn -0.3490169 -0.3647031 0.8632374
vn -0.1843122 -0.4745062 0.8607397
vn -0.1843122 -0.4745062 0.8607397
vn -0.09803843 -0.5058785 0.8570154
vn -0.09803843 -0.5058785 0.8570154
vn 0.4745062 0.1843122 0.8607397
vn 0.5058785 0.09803843 0.8570154
vn 0.5058785 0.09803843 0.8570154
vn 0.4745062 0.1843122 0.8607397
vn 0.3647031 0.3490169 0.8632374
vn 0.3647031 0.3490169 0.8632374
vn 0.1999985 0.45882 0.8657279
vn 0.1999985 0.45882 0.8657279
vn 0.1137246 0.4901923 0.8641633
vn 0.1137246 0.4901923 0.8641633
vn 0.9282063 0.3720657 0
vn 0.9829165 0.184052 0
vn 0.9829165 0.184052 0
vn 0.9282063 0.3720657 0
vn 0.7148765 0.6992507 0
vn 0.7148765 0.6992507 0
vn 0.3948628 0.9187401 0
vn 0.3948628 0.9187401 0
vn 0.2078416 0.9764631 -0.05763477
vn 0.2078416 0.9764631 -0.05763477
vn 0.4745062 0.1843122 -0.8607397
vn 0.5058785 0.09803843 -0.8570154
vn 0.5058785 0.09803843 -0.8570154
vn 0.4745062 0.1843122 -0.8607397
vn 0.3647031 0.3490169 -0.8632374
vn 0.3647031 0.3490169 -0.8632374
vn 0.1999985 0.45882 -0.8657279
vn 0.1999985 0.45882 -0.8657279
vn 0.1137246 0.4901923 -0.8641633
vn 0.1137246 0.4901923 -0.8641633
vn -0.45882 -0.1999985 -0.8657279
vn -0.4901923 -0.1137246 -0.8641633
vn -0.4901923 -0.1137246 -0.8641633
vn -0.45882 -0.1999985 -0.8657279
vn -0.3490169 -0.3647031 -0.8632374
vn -0.3490169 -0.3647031 -0.8632374
vn -0.1843122 -0.4745062 -0.8607397
vn -0.1843122 -0.4745062 -0.8607397
vn -0.09803843 -0.5058785 -0.8570154
vn -0.09803843 -0.5058785 -0.8570154
vn -0.9187401 -0.3948628 0
vn -0.9764631 -0.2078416 -0.05763467
vn -0.9187401 -0.3948628 0
vn -0.9764631 -0.2078416 -0.05763467
vn -0.6992507 -0.7148765 0
vn -0.6992507 -0.7148765 0
vn -0.3720657 -0.9282063 0
vn -0.3720657 -0.9282063 0
vn -0.184052 -0.9829165 0
vn -0.184052 -0.9829165 0
vn -0.9999923 -0.003921568 -0.0003442513
vn -0.9999923 -0.003921568 -0.0003442513
vn -0.9999923 -0.003921568 -0.0003442513
vn -0.9999923 -0.003921568 -0.0003442513
vn -0.9999923 -0.003921568 -0.0003442513
vn -0.9999923 -0.003921568 -0.0003442513
vn 0.9999924 -0.003921568 0
vn 0.9999924 -0.003921568 0
vn 0.9999924 -0.003921568 0
vn 0.9999924 -0.003921568 0
vn 0.9999924 -0.003921568 0
vn 0.9999924 -0.003921568 0
vn 0.003921568 0.9999923 -0.000345267
vn 0.003921568 0.9999923 -0.000345267
vn 0.003921568 0.9999923 -0.000345267
vn 0.003921568 0.9999923 -0.000345267
vn 0.01176465 0.4980353 0.8670769
vn 0.01176465 0.4980353 0.8670769
vn 0.01176465 0.4980353 0.8670769
vn 0.01176465 0.4980353 0.8670769
vn 0.01176465 -0.5137216 0.8578763
vn 0.01176465 -0.5137216 0.8578763
vn 0.01176465 -0.5137216 0.8578763
vn 0.01176465 -0.5137216 0.8578763
vn 0.003921568 -0.9999924 0
vn 0.003921568 -0.9999924 0
vn 0.003921568 -0.9999924 0
vn 0.003921568 -0.9999924 0
vn 0.01176465 -0.5137216 -0.8578763
vn 0.01176465 -0.5137216 -0.8578763
vn 0.01176465 -0.5137216 -0.8578763
vn 0.01176465 -0.5137216 -0.8578763
vn 0.01176465 0.4980353 -0.8670769
vn 0.01176465 0.4980353 -0.8670769
vn 0.01176465 0.4980353 -0.8670769
vn 0.01176465 0.4980353 -0.8670769
g DSJ_GTA_daoJu_gongYe_02_0
f 3/3/3 2/2/2 1/1/1
f 2/2/2 4/4/4 1/1/1
f 1/1/1 4/4/4 5/5/5
f 4/4/4 6/6/6 5/5/5
f 5/5/5 6/6/6 7/7/7
f 6/6/6 8/8/8 7/7/7
f 7/7/7 8/8/8 9/9/9
f 8/8/8 10/10/10 9/9/9
f 13/13/13 12/12/12 11/11/11
f 12/12/12 14/14/14 11/11/11
f 11/11/11 14/14/14 15/15/15
f 14/14/14 16/16/16 15/15/15
f 15/15/15 16/16/16 17/17/17
f 16/16/16 18/18/18 17/17/17
f 17/17/17 18/18/18 19/19/19
f 18/18/18 20/20/20 19/19/19
f 23/23/23 22/22/22 21/21/21
f 22/22/22 24/24/24 21/21/21
f 21/21/21 24/24/24 25/25/25
f 24/24/24 26/26/26 25/25/25
f 25/25/25 26/26/26 27/27/27
f 26/26/26 28/28/28 27/27/27
f 27/27/27 28/28/28 29/29/29
f 28/28/28 30/30/30 29/29/29
f 33/33/33 32/32/32 31/31/31
f 32/32/32 34/34/34 31/31/31
f 31/31/31 34/34/34 35/35/35
f 34/34/34 36/36/36 35/35/35
f 35/35/35 36/36/36 37/37/37
f 36/36/36 38/38/38 37/37/37
f 37/37/37 38/38/38 39/39/39
f 38/38/38 40/40/40 39/39/39
f 43/43/43 42/42/42 41/41/41
f 42/42/42 44/44/44 41/41/41
f 41/41/41 44/44/44 45/45/45
f 44/44/44 46/46/46 45/45/45
f 45/45/45 46/46/46 47/47/47
f 46/46/46 48/48/48 47/47/47
f 47/47/47 48/48/48 49/49/49
f 48/48/48 50/50/50 49/49/49
f 53/53/53 52/52/52 51/51/51
f 52/52/52 54/54/54 51/51/51
f 53/53/53 51/51/51 55/55/55
f 56/56/56 53/53/53 55/55/55
f 56/56/56 55/55/55 57/57/57
f 58/58/58 56/56/56 57/57/57
f 58/58/58 57/57/57 59/59/59
f 60/60/60 58/58/58 59/59/59
f 63/63/63 62/62/62 61/61/61
f 61/61/61 64/64/64 63/63/63
f 61/61/61 65/65/65 64/64/64
f 65/65/65 66/66/66 64/64/64
f 69/69/69 68/68/68 67/67/67
f 67/67/67 70/70/70 69/69/69
f 67/67/67 71/71/71 70/70/70
f 71/71/71 72/72/72 70/70/70
f 75/75/75 74/74/74 73/73/73
f 74/74/74 76/76/76 73/73/73
f 79/79/79 78/78/78 77/77/77
f 78/78/78 80/80/80 77/77/77
f 83/83/83 82/82/82 81/81/81
f 82/82/82 84/84/84 81/81/81
f 87/87/87 86/86/86 85/85/85
f 86/86/86 88/88/88 85/85/85
f 91/91/91 90/90/90 89/89/89
f 90/90/90 92/92/92 89/89/89
f 95/95/95 94/94/94 93/93/93
f 94/94/94 96/96/96 93/93/93
