g DSJ_GTA_gaoLou_18
v 38.85115 -47.3614 -20.16562
v 38.85115 -14.43046 1.202492
v 38.85115 -14.43046 -20.16562
v 38.85115 -47.3614 1.202492
v 38.85115 -14.43046 -20.16562
v 25.71578 -14.43046 1.202492
v 27.65833 -14.43046 -25.34577
v 38.85115 -14.43046 1.202492
v 16.28051 -14.43046 1.202492
v 16.28051 -14.43046 -14.89297
v 38.85115 -47.3614 22.4781
v 23.77322 -14.43046 22.4781
v 38.85115 -14.43046 22.4781
v 23.77322 -47.3614 22.4781
v 16.28051 -47.3614 22.4781
v 16.28051 -14.43046 22.4781
v 23.77322 -47.3614 -20.16562
v 38.85115 -14.43046 -20.16562
v 27.65833 -14.43046 -25.34577
v 38.85115 -47.3614 -20.16562
v 16.28051 -47.3614 -18.31557
v 23.77322 -47.3614 -20.16562
v 16.28051 -14.43046 -14.89297
v 27.65833 -14.43046 -25.34577
v 38.85115 -14.43046 1.202492
v 23.77322 -14.43046 22.4781
v 25.71578 -14.43046 1.202492
v 38.85115 -14.43046 22.4781
v 16.28051 -14.43046 1.202492
v 16.28051 -14.43046 22.4781
v 38.85115 -14.43046 1.202492
v 38.85115 -47.3614 22.4781
v 38.85115 -14.43046 22.4781
v 38.85115 -47.3614 1.202492
v -6.382637 -47.3614 -20.16562
v -6.382637 -14.43046 1.202492
v -6.382637 -47.3614 1.202492
v -6.382637 -14.43046 -20.16562
v -6.382637 -14.43046 -20.16562
v 6.752735 -14.43046 1.202492
v -6.382637 -14.43046 1.202492
v 4.902683 -14.43046 -25.34577
v 16.28051 -14.43046 1.202492
v 16.28051 -14.43046 -14.89297
v -6.382637 -47.3614 22.4781
v 8.695293 -14.43046 22.4781
v 8.695293 -47.3614 22.4781
v -6.382637 -14.43046 22.4781
v 16.28051 -47.3614 22.4781
v 16.28051 -14.43046 22.4781
v 8.695293 -47.3614 -20.16562
v -6.382637 -14.43046 -20.16562
v -6.382637 -47.3614 -20.16562
v 4.902683 -14.43046 -25.34577
v 16.28051 -47.3614 -18.31557
v 16.28051 -14.43046 -14.89297
v 8.695293 -47.3614 -20.16562
v 4.902683 -14.43046 -25.34577
v -6.382637 -14.43046 1.202492
v 8.695293 -14.43046 22.4781
v -6.382637 -14.43046 22.4781
v 6.752735 -14.43046 1.202492
v 16.28051 -14.43046 1.202492
v 16.28051 -14.43046 22.4781
v -6.382637 -14.43046 1.202492
v -6.382637 -47.3614 22.4781
v -6.382637 -47.3614 1.202492
v -6.382637 -14.43046 22.4781
v -32.56088 -33.02349 25.16068
v -38.66606 -47.26889 -20.16562
v -32.56088 -33.02349 -20.16562
v -38.66606 -47.26889 25.16068
v -5.920124 -33.02349 -20.16562
v -32.56088 -33.02349 25.16068
v -32.56088 -33.02349 -20.16562
v -5.920124 -33.02349 25.16068
v -5.920124 -47.26889 -20.16562
v -5.920124 -33.02349 25.16068
v -5.920124 -33.02349 -20.16562
v -5.920124 -47.26889 25.16068
v -32.56088 -33.02349 25.16068
v -10.17525 -34.87354 25.16068
v -31.54336 -34.87354 25.16068
v -5.920124 -33.02349 25.16068
v -10.17525 -34.87354 -20.16562
v -32.56088 -33.02349 -20.16562
v -31.54336 -34.87354 -20.16562
v -5.920124 -33.02349 -20.16562
v -31.54336 -34.87354 25.16068
v -38.66606 -47.26889 25.16068
v -32.56088 -33.02349 25.16068
v -36.446 -47.26889 25.16068
v -11.00777 -47.26889 -18.59307
v -31.54336 -34.87354 -18.59307
v -36.446 -47.26889 -18.59307
v -10.17525 -34.87354 -18.59307
v -36.446 -47.26889 23.58813
v -10.17525 -34.87354 23.58813
v -11.00777 -47.26889 23.58813
v -31.54336 -34.87354 23.58813
v -10.17525 -34.87354 -20.16562
v -5.920124 -47.26889 -20.16562
v -5.920124 -33.02349 -20.16562
v -11.00777 -47.26889 -20.16562
v -5.920124 -47.26889 25.16068
v -10.17525 -34.87354 25.16068
v -5.920124 -33.02349 25.16068
v -11.00777 -47.26889 25.16068
v -36.446 -47.26889 -20.16562
v -31.54336 -34.87354 -18.59307
v -31.54336 -34.87354 -20.16562
v -36.446 -47.26889 -18.59307
v -31.54336 -34.87354 -20.16562
v -10.17525 -34.87354 -18.59307
v -10.17525 -34.87354 -20.16562
v -31.54336 -34.87354 -18.59307
v -10.17525 -34.87354 -20.16562
v -11.00777 -47.26889 -18.59307
v -11.00777 -47.26889 -20.16562
v -10.17525 -34.87354 -18.59307
v -11.00777 -47.26889 25.16068
v -10.17525 -34.87354 23.58813
v -10.17525 -34.87354 25.16068
v -11.00777 -47.26889 23.58813
v -10.17525 -34.87354 25.16068
v -31.54336 -34.87354 23.58813
v -31.54336 -34.87354 25.16068
v -10.17525 -34.87354 23.58813
v -31.54336 -34.87354 25.16068
v -36.446 -47.26889 23.58813
v -36.446 -47.26889 25.16068
v -31.54336 -34.87354 23.58813
v -32.56088 -33.02349 -20.16562
v -36.446 -47.26889 -20.16562
v -31.54336 -34.87354 -20.16562
v -38.66606 -47.26889 -20.16562
v -0.7399788 -47.3614 -12.11789
v -0.7399788 -15.9105 21.55307
v -0.7399788 -47.3614 21.55307
v -0.7399788 -15.9105 -12.11789
v -0.7399788 47.26881 -12.11789
v 32.93098 47.26881 21.55307
v -0.7399788 47.26881 21.55307
v 32.93098 47.26881 -12.11789
v 32.93098 -15.9105 -12.11789
v 32.93098 -47.3614 21.55307
v 32.93098 -15.9105 21.55307
v 32.93098 -47.3614 -12.11789
v -0.7399788 -47.3614 21.55307
v 32.93098 -15.9105 21.55307
v 32.93098 -47.3614 21.55307
v -0.7399788 -15.9105 21.55307
v 32.93098 -47.3614 -12.11789
v -0.7399788 -15.9105 -12.11789
v -0.7399788 -47.3614 -12.11789
v 32.93098 -15.9105 -12.11789
v 32.93098 15.72541 -12.11789
v -0.7399788 47.26881 -12.11789
v -0.7399788 15.72541 -12.11789
v 32.93098 47.26881 -12.11789
v 32.93098 47.26881 -12.11789
v 32.93098 15.72541 21.55307
v 32.93098 47.26881 21.55307
v 32.93098 15.72541 -12.11789
v -0.7399788 15.72541 21.55307
v 32.93098 47.26881 21.55307
v 32.93098 15.72541 21.55307
v -0.7399788 47.26881 21.55307
v -0.7399788 15.72541 -12.11789
v -0.7399788 47.26881 21.55307
v -0.7399788 15.72541 21.55307
v -0.7399788 47.26881 -12.11789
v 32.93098 -15.9105 -12.11789
v -0.7399788 15.72541 -12.11789
v -0.7399788 -15.9105 -12.11789
v 32.93098 15.72541 -12.11789
v 32.93098 15.72541 -12.11789
v 32.93098 -15.9105 21.55307
v 32.93098 15.72541 21.55307
v 32.93098 -15.9105 -12.11789
v -0.7399788 -15.9105 21.55307
v 32.93098 15.72541 21.55307
v 32.93098 -15.9105 21.55307
v -0.7399788 15.72541 21.55307
v -0.7399788 -15.9105 -12.11789
v -0.7399788 15.72541 21.55307
v -0.7399788 -15.9105 21.55307
v -0.7399788 15.72541 -12.11789
vt 0.7963271 0.7654201
vt 0.9354085 0.981769
vt 0.7963271 0.981769
vt 0.9354085 0.7654201
vt 0.8465509 0.8195073
vt 0.8658678 0.7886003
vt 0.8620044 0.8272341
vt 0.8504143 0.7886003
vt 0.8774579 0.7886003
vt 0.8774579 0.8117806
vt 0.784737 0.7576934
vt 0.889048 0.981769
vt 0.784737 0.981769
vt 0.889048 0.7576934
vt 0.9392719 0.7576934
vt 0.9392719 0.981769
vt 0.8388242 0.7654201
vt 0.950862 0.981769
vt 0.8735945 0.981769
vt 0.9315451 0.7654201
vt 0.7886003 0.7654201
vt 0.8388242 0.7654201
vt 0.7770102 0.981769
vt 0.8735945 0.981769
vt 0.8504143 0.7886003
vt 0.8697312 0.8195073
vt 0.8658678 0.7886003
vt 0.8504143 0.8195073
vt 0.8774579 0.7886003
vt 0.8774579 0.8195073
vt 0.9354085 0.981769
vt 0.7963271 0.7654201
vt 0.7963271 0.981769
vt 0.9354085 0.7654201
vt 0.7963271 0.7654201
vt 0.9354085 0.981769
vt 0.9354085 0.7654201
vt 0.7963271 0.981769
vt 0.8465509 0.8195073
vt 0.8658678 0.7886003
vt 0.8504143 0.7886003
vt 0.8620044 0.8272341
vt 0.8774579 0.7886003
vt 0.8774579 0.8117806
vt 0.784737 0.7576934
vt 0.889048 0.981769
vt 0.889048 0.7576934
vt 0.784737 0.981769
vt 0.9392719 0.7576934
vt 0.9392719 0.981769
vt 0.8388242 0.7654201
vt 0.950862 0.981769
vt 0.9315451 0.7654201
vt 0.8735945 0.981769
vt 0.7886003 0.7654201
vt 0.7770102 0.981769
vt 0.8388242 0.7654201
vt 0.8735945 0.981769
vt 0.8504143 0.7886003
vt 0.8697312 0.8195073
vt 0.8504143 0.8195073
vt 0.8658678 0.7886003
vt 0.8774579 0.7886003
vt 0.8774579 0.8195073
vt 0.9354085 0.981769
vt 0.7963271 0.7654201
vt 0.9354085 0.7654201
vt 0.7963271 0.981769
vt 0.8349608 0.7422399
vt 0.9160916 0.4988474
vt 0.8349608 0.4988474
vt 0.9160916 0.7422399
vt 0.8079172 0.4988474
vt 0.9469986 0.7422399
vt 0.9469986 0.4988474
vt 0.8079172 0.7422399
vt 0.8349608 0.4988474
vt 0.9122283 0.7422399
vt 0.9122283 0.4988474
vt 0.8349608 0.7422399
vt 0.784737 0.722923
vt 0.9431353 0.7074695
vt 0.7886003 0.7074695
vt 0.9740422 0.722923
vt 0.9431353 0.7074695
vt 0.784737 0.722923
vt 0.7886003 0.7074695
vt 0.9740422 0.722923
vt 0.7654201 0.6649724
vt 0.7461032 0.5683881
vt 0.75383 0.6804259
vt 0.7654201 0.5722515
vt 0.2322747 0.3172689
vt 0.05069623 0.4254434
vt 0.004335761 0.3172689
vt 0.2400015 0.4254434
vt 0.004335761 0.3172689
vt 0.2400015 0.4254434
vt 0.2322747 0.3172689
vt 0.05069623 0.4254434
vt 0.8310974 0.7074695
vt 0.919955 0.7383765
vt 0.8195073 0.7383765
vt 0.919955 0.7036061
vt 0.919955 0.7383765
vt 0.8310974 0.7074695
vt 0.8195073 0.7383765
vt 0.919955 0.7036061
vt 0.7963271 0.4988474
vt 0.7654201 0.7383765
vt 0.7963271 0.7383765
vt 0.7654201 0.4988474
vt 0.7731469 0.7383765
vt 0.7886003 0.4988474
vt 0.7731469 0.4988474
vt 0.7886003 0.7383765
vt 0.7963271 0.4988474
vt 0.7654201 0.7383765
vt 0.7963271 0.7383765
vt 0.7654201 0.4988474
vt 0.7963271 0.4988474
vt 0.7654201 0.7383765
vt 0.7963271 0.7383765
vt 0.7654201 0.4988474
vt 0.7886003 0.7383765
vt 0.7731469 0.4988474
vt 0.7886003 0.4988474
vt 0.7731469 0.7383765
vt 0.7963271 0.4988474
vt 0.7654201 0.7383765
vt 0.7963271 0.7383765
vt 0.7654201 0.4988474
vt 0.75383 0.6804259
vt 0.7654201 0.5722515
vt 0.7654201 0.6649724
vt 0.7461032 0.5683881
vt 0.4949841 0.004335761
vt 0.7267864 0.2284114
vt 0.7267864 0.004335761
vt 0.4949841 0.2284114
vt 0.7267864 0.004335761
vt 0.4988474 0.2400015
vt 0.7267864 0.2400015
vt 0.4988474 0.004335761
vt 0.7267864 0.2284114
vt 0.4949841 0.004335761
vt 0.4949841 0.2284114
vt 0.7267864 0.004335761
vt 0.7267864 0.004335761
vt 0.4949841 0.2284114
vt 0.4949841 0.004335761
vt 0.7267864 0.2284114
vt 0.7267864 0.004335761
vt 0.4949841 0.2284114
vt 0.4949841 0.004335761
vt 0.7267864 0.2284114
vt 0.7267864 0.004335761
vt 0.4949841 0.2284114
vt 0.4949841 0.004335761
vt 0.7267864 0.2284114
vt 0.7267864 0.2284114
vt 0.4949841 0.004335761
vt 0.4949841 0.2284114
vt 0.7267864 0.004335761
vt 0.7267864 0.004335761
vt 0.4949841 0.2284114
vt 0.4949841 0.004335761
vt 0.7267864 0.2284114
vt 0.4949841 0.004335761
vt 0.7267864 0.2284114
vt 0.7267864 0.004335761
vt 0.4949841 0.2284114
vt 0.7267864 0.2284114
vt 0.4949841 0.004335761
vt 0.4949841 0.2284114
vt 0.7267864 0.004335761
vt 0.7267864 0.004335761
vt 0.4949841 0.2284114
vt 0.4949841 0.004335761
vt 0.7267864 0.2284114
vt 0.7267864 0.2284114
vt 0.4949841 0.004335761
vt 0.4949841 0.2284114
vt 0.7267864 0.004335761
vt 0.4949841 0.2284114
vt 0.7267864 0.004335761
vt 0.7267864 0.2284114
vt 0.4949841 0.004335761
vn 0.999874 -0.01587099 -0.000346655
vn 0.999874 -0.01587099 -0.000346655
vn 0.999874 -0.01587099 -0.000346655
vn 0.999874 -0.01587099 -0.000346655
vn 0.01587099 0.999874 -0.000345267
vn 0.01587099 0.999874 -0.000345267
vn 0.01587099 0.999874 -0.000345267
vn 0.01587099 0.999874 -0.000345267
vn 0.01587099 0.999874 -0.000345267
vn 0.01587099 0.999874 -0.000345267
vn 0.04761302 -0.04761302 0.9977304
vn 0.04761302 -0.04761302 0.9977304
vn 0.04761302 -0.04761302 0.9977304
vn 0.04761302 -0.04761302 0.9977304
vn 0.04761302 -0.04761302 0.9977304
vn 0.04761302 -0.04761302 0.9977304
vn 0.2380652 -0.1428391 -0.9606882
vn 0.2380652 -0.1428391 -0.9606882
vn 0.2380652 -0.1428391 -0.9606882
vn 0.2380652 -0.1428391 -0.9606882
vn -0.2063233 0.07935512 -0.9752607
vn -0.3967754 0.01587105 -0.9177785
vn -0.6189697 -0.07935506 -0.7813957
vn -0.6507117 -0.07935506 -0.7551669
vn 0.01587099 0.999874 -0.000345267
vn 0.01587099 0.999874 -0.000345267
vn 0.01587099 0.999874 -0.000345267
vn 0.01587099 0.999874 -0.000345267
vn 0.01587099 0.999874 -0.000345267
vn 0.01587099 0.999874 -0.000345267
vn 0.999874 -0.01587099 -0.000346655
vn 0.999874 -0.01587099 -0.000346655
vn 0.999874 -0.01587099 -0.000346655
vn 0.999874 -0.01587099 -0.000346655
vn -0.999874 -0.01587099 -0.000346655
vn -0.999874 -0.01587099 -0.000346655
vn -0.999874 -0.01587099 -0.000346655
vn -0.999874 -0.01587099 -0.000346655
vn 0.01587099 0.999874 -0.000345267
vn 0.01587099 0.999874 -0.000345267
vn 0.01587099 0.999874 -0.000345267
vn 0.01587099 0.999874 -0.000345267
vn 0.01587099 0.999874 -0.000345267
vn 0.01587099 0.999874 -0.000345267
vn 0.04761302 -0.04761302 0.9977304
vn 0.04761302 -0.04761302 0.9977304
vn 0.04761302 -0.04761302 0.9977304
vn 0.04761302 -0.04761302 0.9977304
vn 0.04761302 -0.04761302 0.9977304
vn 0.04761302 -0.04761302 0.9977304
vn -0.1745812 -0.1428391 -0.9742271
vn -0.1745812 -0.1428391 -0.9742271
vn -0.1745812 -0.1428391 -0.9742271
vn -0.1745812 -0.1428391 -0.9742271
vn 0.2698073 0.07935512 -0.9596389
vn 0.6824536 -0.07935506 -0.7266085
vn 0.4602594 0.01587105 -0.8876426
vn 0.7141957 -0.07935506 -0.6954331
vn 0.01587099 0.999874 -0.000345267
vn 0.01587099 0.999874 -0.000345267
vn 0.01587099 0.999874 -0.000345267
vn 0.01587099 0.999874 -0.000345267
vn 0.01587099 0.999874 -0.000345267
vn 0.01587099 0.999874 -0.000345267
vn -0.999874 -0.01587099 -0.000346655
vn -0.999874 -0.01587099 -0.000346655
vn -0.999874 -0.01587099 -0.000346655
vn -0.999874 -0.01587099 -0.000346655
vn -0.9046479 0.3650334 -0.2199152
vn -0.9046479 0.3650334 -0.2199152
vn -0.9046479 0.3650334 -0.2199152
vn -0.9046479 0.3650334 -0.2199152
vn 0.01587099 0.999874 -0.000345267
vn 0.01587099 0.999874 -0.000345267
vn 0.01587099 0.999874 -0.000345267
vn 0.01587099 0.999874 -0.000345267
vn 0.999874 -0.01587099 -0.000346655
vn 0.999874 -0.01587099 -0.000346655
vn 0.999874 -0.01587099 -0.000346655
vn 0.999874 -0.01587099 -0.000346655
vn 0.04761302 -0.04761302 0.9977304
vn 0.04761302 -0.04761302 0.9977304
vn 0.04761302 -0.04761302 0.9977304
vn 0.04761302 -0.04761302 0.9977304
vn 0.04761302 -0.04761302 -0.9977304
vn 0.04761302 -0.04761302 -0.9977304
vn 0.04761302 -0.04761302 -0.9977304
vn 0.04761302 -0.04761302 -0.9977304
vn 0.04761302 -0.04761302 0.9977304
vn 0.04761302 -0.04761302 0.9977304
vn 0.04761302 -0.04761302 0.9977304
vn 0.04761302 -0.04761302 0.9977304
vn 0.04761302 -0.04761302 -0.9977304
vn 0.04761302 -0.04761302 -0.9977304
vn 0.04761302 -0.04761302 -0.9977304
vn 0.04761302 -0.04761302 -0.9977304
vn 0.04761302 -0.04761302 0.9977304
vn 0.04761302 -0.04761302 0.9977304
vn 0.04761302 -0.04761302 0.9977304
vn 0.04761302 -0.04761302 0.9977304
vn 0.04761302 -0.04761302 -0.9977304
vn 0.04761302 -0.04761302 -0.9977304
vn 0.04761302 -0.04761302 -0.9977304
vn 0.04761302 -0.04761302 -0.9977304
vn 0.04761302 -0.04761302 0.9977304
vn 0.04761302 -0.04761302 0.9977304
vn 0.04761302 -0.04761302 0.9977304
vn 0.04761302 -0.04761302 0.9977304
vn 0.9207517 -0.390149 0
vn 0.9207517 -0.390149 0
vn 0.9207517 -0.390149 0
vn 0.9207517 -0.390149 0
vn 0.01587099 -0.999874 -0.000345267
vn 0.01587099 -0.999874 -0.000345267
vn 0.01587099 -0.999874 -0.000345267
vn 0.01587099 -0.999874 -0.000345267
vn -0.968132 0.04761302 -0.2458728
vn -0.968132 0.04761302 -0.2458728
vn -0.968132 0.04761302 -0.2458728
vn -0.968132 0.04761302 -0.2458728
vn -0.968132 0.04761302 -0.2458728
vn -0.968132 0.04761302 -0.2458728
vn -0.968132 0.04761302 -0.2458728
vn -0.968132 0.04761302 -0.2458728
vn 0.01587099 -0.999874 -0.000345267
vn 0.01587099 -0.999874 -0.000345267
vn 0.01587099 -0.999874 -0.000345267
vn 0.01587099 -0.999874 -0.000345267
vn 0.9207517 -0.390149 0
vn 0.9207517 -0.390149 0
vn 0.9207517 -0.390149 0
vn 0.9207517 -0.390149 0
vn 0.04761302 -0.04761302 -0.9977304
vn 0.04761302 -0.04761302 -0.9977304
vn 0.04761302 -0.04761302 -0.9977304
vn 0.04761302 -0.04761302 -0.9977304
vn -0.999874 -0.01587099 -0.000346655
vn -0.999874 -0.01587099 -0.000346655
vn -0.999874 -0.01587099 -0.000346655
vn -0.999874 -0.01587099 -0.000346655
vn 0.01587099 0.999874 -0.000345267
vn 0.01587099 0.999874 -0.000345267
vn 0.01587099 0.999874 -0.000345267
vn 0.01587099 0.999874 -0.000345267
vn 0.999874 -0.01587099 -0.000346655
vn 0.999874 -0.01587099 -0.000346655
vn 0.999874 -0.01587099 -0.000346655
vn 0.999874 -0.01587099 -0.000346655
vn 0.04761302 -0.04761302 0.9977304
vn 0.04761302 -0.04761302 0.9977304
vn 0.04761302 -0.04761302 0.9977304
vn 0.04761302 -0.04761302 0.9977304
vn 0.04761302 -0.04761302 -0.9977304
vn 0.04761302 -0.04761302 -0.9977304
vn 0.04761302 -0.04761302 -0.9977304
vn 0.04761302 -0.04761302 -0.9977304
vn 0.04761302 -0.04761302 -0.9977304
vn 0.04761302 -0.04761302 -0.9977304
vn 0.04761302 -0.04761302 -0.9977304
vn 0.04761302 -0.04761302 -0.9977304
vn 0.999874 -0.01587099 -0.000346655
vn 0.999874 -0.01587099 -0.000346655
vn 0.999874 -0.01587099 -0.000346655
vn 0.999874 -0.01587099 -0.000346655
vn 0.04761302 -0.04761302 0.9977304
vn 0.04761302 -0.04761302 0.9977304
vn 0.04761302 -0.04761302 0.9977304
vn 0.04761302 -0.04761302 0.9977304
vn -0.999874 -0.01587099 -0.000346655
vn -0.999874 -0.01587099 -0.000346655
vn -0.999874 -0.01587099 -0.000346655
vn -0.999874 -0.01587099 -0.000346655
vn 0.04761302 -0.04761302 -0.9977304
vn 0.04761302 -0.04761302 -0.9977304
vn 0.04761302 -0.04761302 -0.9977304
vn 0.04761302 -0.04761302 -0.9977304
vn 0.999874 -0.01587099 -0.000346655
vn 0.999874 -0.01587099 -0.000346655
vn 0.999874 -0.01587099 -0.000346655
vn 0.999874 -0.01587099 -0.000346655
vn 0.04761302 -0.04761302 0.9977304
vn 0.04761302 -0.04761302 0.9977304
vn 0.04761302 -0.04761302 0.9977304
vn 0.04761302 -0.04761302 0.9977304
vn -0.999874 -0.01587099 -0.000346655
vn -0.999874 -0.01587099 -0.000346655
vn -0.999874 -0.01587099 -0.000346655
vn -0.999874 -0.01587099 -0.000346655
g DSJ_GTA_gaoLou_18_0
f 3/3/3 2/2/2 1/1/1
f 2/2/2 4/4/4 1/1/1
f 7/7/7 6/6/6 5/5/5
f 6/6/6 8/8/8 5/5/5
f 9/9/9 6/6/6 7/7/7
f 10/10/10 9/9/9 7/7/7
f 13/13/13 12/12/12 11/11/11
f 12/12/12 14/14/14 11/11/11
f 15/15/15 14/14/14 12/12/12
f 16/16/16 15/15/15 12/12/12
f 19/19/19 18/18/18 17/17/17
f 18/18/18 20/20/20 17/17/17
f 23/23/23 22/22/22 21/21/21
f 24/24/24 22/22/22 23/23/23
f 27/27/27 26/26/26 25/25/25
f 26/26/26 28/28/28 25/25/25
f 26/26/26 27/27/27 29/29/29
f 30/30/30 26/26/26 29/29/29
f 33/33/33 32/32/32 31/31/31
f 32/32/32 34/34/34 31/31/31
f 37/37/37 36/36/36 35/35/35
f 36/36/36 38/38/38 35/35/35
f 41/41/41 40/40/40 39/39/39
f 40/40/40 42/42/42 39/39/39
f 40/40/40 43/43/43 42/42/42
f 43/43/43 44/44/44 42/42/42
f 47/47/47 46/46/46 45/45/45
f 46/46/46 48/48/48 45/45/45
f 47/47/47 49/49/49 46/46/46
f 49/49/49 50/50/50 46/46/46
f 53/53/53 52/52/52 51/51/51
f 52/52/52 54/54/54 51/51/51
f 57/57/57 56/56/56 55/55/55
f 57/57/57 58/58/58 56/56/56
f 61/61/61 60/60/60 59/59/59
f 60/60/60 62/62/62 59/59/59
f 62/62/62 60/60/60 63/63/63
f 60/60/60 64/64/64 63/63/63
f 67/67/67 66/66/66 65/65/65
f 66/66/66 68/68/68 65/65/65
f 71/71/71 70/70/70 69/69/69
f 70/70/70 72/72/72 69/69/69
f 75/75/75 74/74/74 73/73/73
f 74/74/74 76/76/76 73/73/73
f 79/79/79 78/78/78 77/77/77
f 78/78/78 80/80/80 77/77/77
f 83/83/83 82/82/82 81/81/81
f 82/82/82 84/84/84 81/81/81
f 87/87/87 86/86/86 85/85/85
f 86/86/86 88/88/88 85/85/85
f 91/91/91 90/90/90 89/89/89
f 90/90/90 92/92/92 89/89/89
f 95/95/95 94/94/94 93/93/93
f 94/94/94 96/96/96 93/93/93
f 99/99/99 98/98/98 97/97/97
f 98/98/98 100/100/100 97/97/97
f 103/103/103 102/102/102 101/101/101
f 102/102/102 104/104/104 101/101/101
f 107/107/107 106/106/106 105/105/105
f 106/106/106 108/108/108 105/105/105
f 111/111/111 110/110/110 109/109/109
f 110/110/110 112/112/112 109/109/109
f 115/115/115 114/114/114 113/113/113
f 114/114/114 116/116/116 113/113/113
f 119/119/119 118/118/118 117/117/117
f 118/118/118 120/120/120 117/117/117
f 123/123/123 122/122/122 121/121/121
f 122/122/122 124/124/124 121/121/121
f 127/127/127 126/126/126 125/125/125
f 126/126/126 128/128/128 125/125/125
f 131/131/131 130/130/130 129/129/129
f 130/130/130 132/132/132 129/129/129
f 135/135/135 134/134/134 133/133/133
f 134/134/134 136/136/136 133/133/133
f 139/139/139 138/138/138 137/137/137
f 138/138/138 140/140/140 137/137/137
f 143/143/143 142/142/142 141/141/141
f 142/142/142 144/144/144 141/141/141
f 147/147/147 146/146/146 145/145/145
f 146/146/146 148/148/148 145/145/145
f 151/151/151 150/150/150 149/149/149
f 150/150/150 152/152/152 149/149/149
f 155/155/155 154/154/154 153/153/153
f 154/154/154 156/156/156 153/153/153
f 159/159/159 158/158/158 157/157/157
f 158/158/158 160/160/160 157/157/157
f 163/163/163 162/162/162 161/161/161
f 162/162/162 164/164/164 161/161/161
f 167/167/167 166/166/166 165/165/165
f 166/166/166 168/168/168 165/165/165
f 171/171/171 170/170/170 169/169/169
f 170/170/170 172/172/172 169/169/169
f 175/175/175 174/174/174 173/173/173
f 174/174/174 176/176/176 173/173/173
f 179/179/179 178/178/178 177/177/177
f 178/178/178 180/180/180 177/177/177
f 183/183/183 182/182/182 181/181/181
f 182/182/182 184/184/184 181/181/181
f 187/187/187 186/186/186 185/185/185
f 186/186/186 188/188/188 185/185/185
