g DSJ_GTA_daoJu_zhuangShi_03
v 0.01586461 0.4913442 -0.03831762
v 0.1264982 0.01564616 0.05239165
v 0.03833181 0.4913442 0.0158661
v 0.05239373 0.01564616 -0.1264982
v -0.03832614 0.4913442 -0.01587528
v 0.05239373 0.01564616 -0.1264982
v 0.01586461 0.4913442 -0.03831762
v -0.1264926 0.01564616 -0.05239731
v -0.01585901 0.4913442 0.03830844
v -0.1264926 0.01564616 -0.05239731
v -0.03832614 0.4913442 -0.01587528
v -0.05238813 0.01564616 0.1264926
v 0.03833181 0.4913442 0.0158661
v -0.05238813 0.01564616 0.1264926
v -0.01585901 0.4913442 0.03830844
v 0.1264982 0.01564616 0.05239165
v 0.01586461 2.453104 -0.03829992
v 0.03833181 0.4913442 0.0158661
v 0.03831053 2.453104 0.01586252
v 0.01586461 0.4913442 -0.03831762
v -0.03830487 2.453104 -0.01586819
v 0.01586461 0.4913442 -0.03831762
v 0.01586461 2.453104 -0.03829992
v -0.03832614 0.4913442 -0.01587528
v -0.01585901 2.453104 0.03829068
v -0.03832614 0.4913442 -0.01587528
v -0.03830487 2.453104 -0.01586819
v -0.01585901 0.4913442 0.03830844
v -0.01585901 2.453104 0.03829068
v 0.03833181 0.4913442 0.0158661
v -0.01585901 0.4913442 0.03830844
v 0.03831053 2.453104 0.01586252
v 0.130747 2.814771 -0.0749957
v 0.07441056 2.504465 0.04284799
v 0.130747 2.814771 0.07537663
v 0.07441056 2.504465 -0.04246706
v 0.0005188584 2.814771 -0.1501783
v 0.07441056 2.504465 -0.04246706
v 0.130747 2.814771 -0.0749957
v 0.0005188584 2.504465 -0.08513165
v -0.1297057 2.814771 -0.0749957
v 0.0005188584 2.504465 -0.08513165
v 0.0005188584 2.814771 -0.1501783
v -0.07336575 2.504465 -0.04246706
v -0.1297057 2.814771 0.07537663
v -0.07336575 2.504465 -0.04246706
v -0.1297057 2.814771 -0.0749957
v -0.07336575 2.504465 0.04284799
v 0.0005188584 2.814771 0.1505557
v -0.07336575 2.504465 0.04284799
v -0.1297057 2.814771 0.07537663
v 0.0005188584 2.504465 0.08550549
v 0.130747 2.814771 0.07537663
v 0.0005188584 2.504465 0.08550549
v 0.0005188584 2.814771 0.1505557
v 0.07441056 2.504465 0.04284799
v 0.03878224 2.449745 -0.02190435
v 0.0005188584 2.449745 0.04436946
v 0.03878224 2.449745 0.02228171
v -0.03773743 2.449745 -0.02190435
v -0.03773743 2.449745 0.02228171
v 0.0005188584 2.449745 -0.04398853
v 0.130747 2.814771 0.07537663
v 0.0005188584 2.988614 0.0001940131
v 0.130747 2.814771 -0.0749957
v 0.0005188584 2.814771 -0.1501783
v 0.0005188584 2.988614 0.0001940131
v -0.1297057 2.814771 -0.0749957
v 0.0005188584 2.988614 0.0001940131
v 0.0005188584 2.814771 -0.1501783
v 0.130747 2.814771 -0.0749957
v -0.1297057 2.814771 -0.0749957
v 0.0005188584 2.988614 0.0001940131
v -0.1297057 2.814771 0.07537663
v 0.0005188584 2.814771 0.1505557
v 0.0005188584 2.988614 0.0001940131
v 0.130747 2.814771 0.07537663
v 0.0005188584 2.988614 0.0001940131
v 0.0005188584 2.814771 0.1505557
v -0.1297057 2.814771 0.07537663
v 0.03878224 2.449745 0.02228171
v 0.07441056 2.504465 -0.04246706
v 0.03878224 2.449745 -0.02190435
v 0.07441056 2.504465 0.04284799
v 0.03878224 2.449745 -0.02190435
v 0.0005188584 2.504465 -0.08513165
v 0.0005188584 2.449745 -0.04398853
v 0.07441056 2.504465 -0.04246706
v 0.0005188584 2.449745 -0.04398853
v -0.07336575 2.504465 -0.04246706
v -0.03773743 2.449745 -0.02190435
v 0.0005188584 2.504465 -0.08513165
v -0.03773743 2.449745 -0.02190435
v -0.07336575 2.504465 0.04284799
v -0.03773743 2.449745 0.02228171
v -0.07336575 2.504465 -0.04246706
v -0.03773743 2.449745 0.02228171
v 0.0005188584 2.504465 0.08550549
v 0.0005188584 2.449745 0.04436946
v -0.07336575 2.504465 0.04284799
v 0.0005188584 2.449745 0.04436946
v 0.07441056 2.504465 0.04284799
v 0.03878224 2.449745 0.02228171
v 0.0005188584 2.504465 0.08550549
v -0.469721 2.681808 -0.0749957
v -0.5260646 2.371502 0.04284799
v -0.469721 2.681808 0.07537663
v -0.5260646 2.371502 -0.04246706
v -0.5999456 2.681808 -0.1501783
v -0.5260646 2.371502 -0.04246706
v -0.469721 2.681808 -0.0749957
v -0.5999456 2.371502 -0.08513165
v -0.7301736 2.681808 -0.0749957
v -0.5999456 2.371502 -0.08513165
v -0.5999456 2.681808 -0.1501783
v -0.6738337 2.371502 -0.04246706
v -0.7301736 2.681808 0.07537663
v -0.6738337 2.371502 -0.04246706
v -0.7301736 2.681808 -0.0749957
v -0.6738337 2.371502 0.04284799
v -0.5999456 2.681808 0.1505557
v -0.6738337 2.371502 0.04284799
v -0.7301736 2.681808 0.07537663
v -0.5999456 2.371502 0.08550549
v -0.469721 2.681808 0.07537663
v -0.5999456 2.371502 0.08550549
v -0.5999456 2.681808 0.1505557
v -0.5260646 2.371502 0.04284799
v -0.5616857 2.316783 -0.02190435
v -0.5999456 2.316783 0.04436946
v -0.5616857 2.316783 0.02228171
v -0.6382125 2.316783 -0.02190435
v -0.6382125 2.316783 0.02228171
v -0.5999456 2.316783 -0.04398853
v -0.469721 2.681808 0.07537663
v -0.5999456 2.855651 0.0001940131
v -0.469721 2.681808 -0.0749957
v -0.5999456 2.681808 -0.1501783
v -0.5999456 2.855651 0.0001940131
v -0.7301736 2.681808 -0.0749957
v -0.5999456 2.855651 0.0001940131
v -0.5999456 2.681808 -0.1501783
v -0.469721 2.681808 -0.0749957
v -0.7301736 2.681808 -0.0749957
v -0.5999456 2.855651 0.0001940131
v -0.7301736 2.681808 0.07537663
v -0.5999456 2.681808 0.1505557
v -0.5999456 2.855651 0.0001940131
v -0.469721 2.681808 0.07537663
v -0.5999456 2.855651 0.0001940131
v -0.5999456 2.681808 0.1505557
v -0.7301736 2.681808 0.07537663
v -0.5616857 2.316783 0.02228171
v -0.5260646 2.371502 -0.04246706
v -0.5616857 2.316783 -0.02190435
v -0.5260646 2.371502 0.04284799
v -0.5616857 2.316783 -0.02190435
v -0.5999456 2.371502 -0.08513165
v -0.5999456 2.316783 -0.04398853
v -0.5260646 2.371502 -0.04246706
v -0.5999456 2.316783 -0.04398853
v -0.6738337 2.371502 -0.04246706
v -0.6382125 2.316783 -0.02190435
v -0.5999456 2.371502 -0.08513165
v -0.6382125 2.316783 -0.02190435
v -0.6738337 2.371502 0.04284799
v -0.6382125 2.316783 0.02228171
v -0.6738337 2.371502 -0.04246706
v -0.6382125 2.316783 0.02228171
v -0.5999456 2.371502 0.08550549
v -0.5999456 2.316783 0.04436946
v -0.6738337 2.371502 0.04284799
v -0.5999456 2.316783 0.04436946
v -0.5260646 2.371502 0.04284799
v -0.5616857 2.316783 0.02228171
v -0.5999456 2.371502 0.08550549
v -0.1932026 2.135605 0.001906991
v -0.01968569 2.284676 0.001906991
v -0.01968569 2.180348 0.001906991
v -0.1196868 2.281403 0.001906991
v -0.3769335 2.0973 0.001906991
v -0.3803807 2.05699 0.001906991
v -0.5599834 2.145983 0.001906991
v -0.6238846 2.125558 0.001906991
v -0.6303853 2.31696 0.001906991
v -0.5669381 2.316996 0.001906991
v -0.01968569 2.284676 6.276369E-05
v -0.1932026 2.135605 6.276369E-05
v -0.01968569 2.180348 6.276369E-05
v -0.1196868 2.281403 6.276369E-05
v -0.3769335 2.0973 6.276369E-05
v -0.3803807 2.05699 6.276369E-05
v -0.5599834 2.145983 6.276369E-05
v -0.6238846 2.125558 6.276369E-05
v -0.6303853 2.31696 6.276369E-05
v -0.5669381 2.316996 6.276369E-05
v 0.0749957 2.681808 -0.4697267
v -0.04284799 2.371502 -0.5260666
v -0.07538021 2.681808 -0.4697267
v 0.04247415 2.371502 -0.5260666
v 0.1501783 2.681808 -0.5999512
v 0.04247415 2.371502 -0.5260666
v 0.0749957 2.681808 -0.4697267
v 0.08513165 2.371502 -0.5999512
v 0.0749957 2.681808 -0.7301758
v 0.08513165 2.371502 -0.5999512
v 0.1501783 2.681808 -0.5999512
v 0.04247415 2.371502 -0.6738429
v -0.07538021 2.681808 -0.7301758
v 0.04247415 2.371502 -0.6738429
v 0.0749957 2.681808 -0.7301758
v -0.04284799 2.371502 -0.6738429
v -0.1505628 2.681808 -0.5999512
v -0.04284799 2.371502 -0.6738429
v -0.07538021 2.681808 -0.7301758
v -0.08550197 2.371502 -0.5999512
v -0.07538021 2.681808 -0.4697267
v -0.08550197 2.371502 -0.5999512
v -0.1505628 2.681808 -0.5999512
v -0.04284799 2.371502 -0.5260666
v 0.02190077 2.316783 -0.5616949
v -0.04436946 2.316783 -0.5999512
v -0.02228171 2.316783 -0.5616949
v 0.02190077 2.316783 -0.6382146
v -0.02228171 2.316783 -0.6382146
v 0.04398495 2.316783 -0.5999512
v -0.07538021 2.681808 -0.4697267
v -0.0001940131 2.855651 -0.5999512
v 0.0749957 2.681808 -0.4697267
v 0.1501783 2.681808 -0.5999512
v -0.0001940131 2.855651 -0.5999512
v 0.0749957 2.681808 -0.7301758
v -0.0001940131 2.855651 -0.5999512
v 0.1501783 2.681808 -0.5999512
v 0.0749957 2.681808 -0.4697267
v 0.0749957 2.681808 -0.7301758
v -0.0001940131 2.855651 -0.5999512
v -0.07538021 2.681808 -0.7301758
v -0.1505628 2.681808 -0.5999512
v -0.0001940131 2.855651 -0.5999512
v -0.07538021 2.681808 -0.4697267
v -0.0001940131 2.855651 -0.5999512
v -0.1505628 2.681808 -0.5999512
v -0.07538021 2.681808 -0.7301758
v -0.02228171 2.316783 -0.5616949
v 0.04247415 2.371502 -0.5260666
v 0.02190077 2.316783 -0.5616949
v -0.04284799 2.371502 -0.5260666
v 0.02190077 2.316783 -0.5616949
v 0.08513165 2.371502 -0.5999512
v 0.04398495 2.316783 -0.5999512
v 0.04247415 2.371502 -0.5260666
v 0.04398495 2.316783 -0.5999512
v 0.04247415 2.371502 -0.6738429
v 0.02190077 2.316783 -0.6382146
v 0.08513165 2.371502 -0.5999512
v 0.02190077 2.316783 -0.6382146
v -0.04284799 2.371502 -0.6738429
v -0.02228171 2.316783 -0.6382146
v 0.04247415 2.371502 -0.6738429
v -0.02228171 2.316783 -0.6382146
v -0.08550197 2.371502 -0.5999512
v -0.04436946 2.316783 -0.5999512
v -0.04284799 2.371502 -0.6738429
v -0.04436946 2.316783 -0.5999512
v -0.04284799 2.371502 -0.5260666
v -0.02228171 2.316783 -0.5616949
v -0.08550197 2.371502 -0.5999512
v -0.001914084 2.135605 -0.1932082
v -0.001914084 2.284676 -0.01968777
v -0.001914084 2.180348 -0.01968777
v -0.001914084 2.281403 -0.1196854
v -0.0009849072 2.09731 -0.3822057
v -0.0009849072 2.09731 -0.3822057
v -0.001914084 2.135605 -0.1932082
v -0.001914084 2.05699 -0.3803828
v -0.001914084 2.145983 -0.5599926
v -0.001914084 2.125558 -0.6238937
v -0.001914084 2.31696 -0.6303945
v -0.001914084 2.316996 -0.5669438
v -0.0009849072 2.09731 -0.3822057
v -6.633997E-05 2.284676 -0.01968777
v -6.633997E-05 2.135605 -0.1932082
v -6.633997E-05 2.180348 -0.01968777
v -6.633997E-05 2.281403 -0.1196854
v -0.0009849072 2.09731 -0.3822057
v -0.0009849072 2.09731 -0.3822057
v -6.633997E-05 2.05699 -0.3803828
v -6.633997E-05 2.145983 -0.5599926
v -6.633997E-05 2.125558 -0.6238937
v -6.633997E-05 2.31696 -0.6303945
v -6.633997E-05 2.316996 -0.5669438
v 0.4697267 2.681808 0.07499009
v 0.5260666 2.371502 -0.04285359
v 0.4697267 2.681808 -0.07538229
v 0.5260666 2.371502 0.04245788
v 0.5999512 2.681808 0.1501727
v 0.5260666 2.371502 0.04245788
v 0.4697267 2.681808 0.07499009
v 0.5999512 2.371502 0.08511889
v 0.7301758 2.681808 0.07499009
v 0.5999512 2.371502 0.08511889
v 0.5999512 2.681808 0.1501727
v 0.6738429 2.371502 0.04245788
v 0.7301758 2.681808 -0.07538229
v 0.6738429 2.371502 0.04245788
v 0.7301758 2.681808 0.07499009
v 0.6738429 2.371502 -0.04285359
v 0.5999512 2.681808 -0.1505649
v 0.6738429 2.371502 -0.04285359
v 0.7301758 2.681808 -0.07538229
v 0.5999512 2.371502 -0.08551824
v 0.4697267 2.681808 -0.07538229
v 0.5999512 2.371502 -0.08551824
v 0.5999512 2.681808 -0.1505649
v 0.5260666 2.371502 -0.04285359
v 0.5616949 2.316783 0.02189517
v 0.5999512 2.316783 -0.04437506
v 0.5616949 2.316783 -0.02229089
v 0.6382146 2.316783 0.02189517
v 0.6382146 2.316783 -0.02229089
v 0.5999512 2.316783 0.04398286
v 0.4697267 2.681808 0.07499009
v 0.5999512 2.855651 -0.0001960993
v 0.5999512 2.681808 0.1501727
v 0.5999512 2.855651 -0.0001960993
v 0.4697267 2.681808 0.07499009
v 0.4697267 2.681808 -0.07538229
v 0.7301758 2.681808 0.07499009
v 0.5999512 2.855651 -0.0001960993
v 0.7301758 2.681808 -0.07538229
v 0.5999512 2.855651 -0.0001960993
v 0.7301758 2.681808 0.07499009
v 0.5999512 2.681808 0.1501727
v 0.5999512 2.681808 -0.1505649
v 0.5999512 2.855651 -0.0001960993
v 0.4697267 2.681808 -0.07538229
v 0.5999512 2.855651 -0.0001960993
v 0.5999512 2.681808 -0.1505649
v 0.7301758 2.681808 -0.07538229
v 0.5616949 2.316783 -0.02229089
v 0.5260666 2.371502 0.04245788
v 0.5616949 2.316783 0.02189517
v 0.5260666 2.371502 -0.04285359
v 0.5616949 2.316783 0.02189517
v 0.5999512 2.371502 0.08511889
v 0.5999512 2.316783 0.04398286
v 0.5260666 2.371502 0.04245788
v 0.5999512 2.316783 0.04398286
v 0.6738429 2.371502 0.04245788
v 0.6382146 2.316783 0.02189517
v 0.5999512 2.371502 0.08511889
v 0.6382146 2.316783 0.02189517
v 0.6738429 2.371502 -0.04285359
v 0.6382146 2.316783 -0.02229089
v 0.6738429 2.371502 0.04245788
v 0.6382146 2.316783 -0.02229089
v 0.5999512 2.371502 -0.08551824
v 0.5999512 2.316783 -0.04437506
v 0.6738429 2.371502 -0.04285359
v 0.5999512 2.316783 -0.04437506
v 0.5260666 2.371502 -0.04285359
v 0.5616949 2.316783 -0.02229089
v 0.5999512 2.371502 -0.08551824
v 0.1932082 2.135605 -0.001912594
v 0.01969129 2.284676 -0.001912594
v 0.01969129 2.180348 -0.001912594
v 0.1196889 2.281403 -0.001912594
v 0.3769391 2.0973 -0.001912594
v 0.3803863 2.05699 -0.001912594
v 0.5599926 2.145983 -0.001912594
v 0.6238937 2.125558 -0.001912594
v 0.6303945 2.31696 -0.001912594
v 0.5669438 2.316996 -0.001912594
v 0.01969129 2.284676 -6.490946E-05
v 0.1932082 2.135605 -6.490946E-05
v 0.01969129 2.180348 -6.490946E-05
v 0.1196889 2.281403 -6.490946E-05
v 0.3769391 2.0973 -6.490946E-05
v 0.3803863 2.05699 -6.490946E-05
v 0.5599926 2.145983 -6.490946E-05
v 0.6238937 2.125558 -6.490946E-05
v 0.6303945 2.31696 -6.490946E-05
v 0.5669438 2.316996 -6.490946E-05
v -0.07499009 2.681808 0.469721
v 0.04285359 2.371502 0.5260574
v 0.07538581 2.681808 0.469721
v -0.04246497 2.371502 0.5260574
v -0.1501691 2.681808 0.5999456
v -0.04246497 2.371502 0.5260574
v -0.07499009 2.681808 0.469721
v -0.08512247 2.371502 0.5999456
v -0.07499009 2.681808 0.7301736
v -0.08512247 2.371502 0.5999456
v -0.1501691 2.681808 0.5999456
v -0.04246497 2.371502 0.6738302
v 0.07538581 2.681808 0.7301736
v -0.04246497 2.371502 0.6738302
v -0.07499009 2.681808 0.7301736
v 0.04285359 2.371502 0.6738302
v 0.1505684 2.681808 0.5999456
v 0.04285359 2.371502 0.6738302
v 0.07538581 2.681808 0.7301736
v 0.08551466 2.371502 0.5999456
v 0.07538581 2.681808 0.469721
v 0.08551466 2.371502 0.5999456
v 0.1505684 2.681808 0.5999456
v 0.04285359 2.371502 0.5260574
v -0.02189159 2.316783 0.5616822
v 0.04437506 2.316783 0.5999456
v 0.02229089 2.316783 0.5616822
v -0.02189159 2.316783 0.6382089
v 0.02229089 2.316783 0.6382089
v -0.04397929 2.316783 0.5999456
v 0.07538581 2.681808 0.469721
v 0.0001960993 2.855651 0.5999456
v -0.07499009 2.681808 0.469721
v -0.1501691 2.681808 0.5999456
v 0.0001960993 2.855651 0.5999456
v -0.07499009 2.681808 0.7301736
v 0.0001960993 2.855651 0.5999456
v -0.1501691 2.681808 0.5999456
v -0.07499009 2.681808 0.469721
v -0.07499009 2.681808 0.7301736
v 0.0001960993 2.855651 0.5999456
v 0.07538581 2.681808 0.7301736
v 0.1505684 2.681808 0.5999456
v 0.0001960993 2.855651 0.5999456
v 0.07538581 2.681808 0.469721
v 0.0001960993 2.855651 0.5999456
v 0.1505684 2.681808 0.5999456
v 0.07538581 2.681808 0.7301736
v 0.02229089 2.316783 0.5616822
v -0.04246497 2.371502 0.5260574
v -0.02189159 2.316783 0.5616822
v 0.04285359 2.371502 0.5260574
v -0.02189159 2.316783 0.5616822
v -0.08512247 2.371502 0.5999456
v -0.04397929 2.316783 0.5999456
v -0.04246497 2.371502 0.5260574
v -0.04397929 2.316783 0.5999456
v -0.04246497 2.371502 0.6738302
v -0.02189159 2.316783 0.6382089
v -0.08512247 2.371502 0.5999456
v -0.02189159 2.316783 0.6382089
v 0.04285359 2.371502 0.6738302
v 0.02229089 2.316783 0.6382089
v -0.04246497 2.371502 0.6738302
v 0.02229089 2.316783 0.6382089
v 0.08551466 2.371502 0.5999456
v 0.04437506 2.316783 0.5999456
v 0.04285359 2.371502 0.6738302
v 0.04437506 2.316783 0.5999456
v 0.04285359 2.371502 0.5260574
v 0.02229089 2.316783 0.5616822
v 0.08551466 2.371502 0.5999456
v 0.00191617 2.135605 0.1932026
v 0.00191617 2.284676 0.01968211
v 0.00191617 2.180348 0.01968211
v 0.00191617 2.281403 0.1196833
v 0.00191617 2.0973 0.3769299
v 0.00191617 2.05699 0.3803771
v 0.00191617 2.145983 0.559987
v 0.00191617 2.125558 0.6238846
v 0.00191617 2.31696 0.6303853
v 0.00191617 2.316996 0.5669346
v 6.842613E-05 2.284676 0.01968211
v 6.842613E-05 2.135605 0.1932026
v 6.842613E-05 2.180348 0.01968211
v 6.842613E-05 2.281403 0.1196833
v 6.842613E-05 2.0973 0.3769299
v 6.842613E-05 2.05699 0.3803771
v 6.842613E-05 2.145983 0.559987
v 6.842613E-05 2.125558 0.6238846
v 6.842613E-05 2.31696 0.6303853
v 6.842613E-05 2.316996 0.5669346
vt 0.5789356 0.8153083
vt 0.5373266 0.8248812
vt 0.577194 0.8241585
vt 0.5411534 0.8079153
vt 0.577194 0.8241585
vt 0.5430728 0.8420959
vt 0.5806891 0.8324755
vt 0.5373266 0.8248812
vt 0.578746 0.8152727
vt 0.5373266 0.8248812
vt 0.577194 0.8241585
vt 0.5411534 0.8079153
vt 0.577194 0.8241585
vt 0.5430728 0.8420959
vt 0.5806891 0.8324755
vt 0.5373266 0.8248812
vt 0.5047574 0.7481794
vt 0.508288 0.8530076
vt 0.508288 0.7481794
vt 0.5047574 0.8530076
vt 0.508288 0.7481794
vt 0.5124821 0.8530076
vt 0.5124821 0.7481794
vt 0.508288 0.8530076
vt 0.5047574 0.7481794
vt 0.508288 0.8530076
vt 0.508288 0.7481794
vt 0.5047574 0.8530076
vt 0.5124821 0.7481794
vt 0.508288 0.8530076
vt 0.5124821 0.8530076
vt 0.508288 0.7481794
vt 0.5492217 0.8707316
vt 0.5801204 0.8781601
vt 0.5517571 0.8771294
vt 0.5807957 0.8738002
vt 0.5517571 0.8771294
vt 0.5807957 0.8738002
vt 0.5492217 0.8707316
vt 0.5801204 0.8781601
vt 0.5516149 0.8832427
vt 0.5801204 0.8781601
vt 0.5517571 0.8771294
vt 0.5801204 0.8827096
vt 0.5492217 0.8895931
vt 0.5801204 0.8827096
vt 0.5516149 0.8832427
vt 0.5807957 0.8870932
vt 0.5516149 0.8832427
vt 0.5807957 0.8870932
vt 0.5492217 0.8895931
vt 0.5801204 0.8827096
vt 0.5517571 0.8771294
vt 0.5801204 0.8827096
vt 0.5516149 0.8832427
vt 0.5801204 0.8781601
vt 0.5583799 0.8608152
vt 0.5585814 0.8515977
vt 0.5550981 0.8563012
vt 0.5686637 0.8563012
vt 0.5653582 0.8515977
vt 0.5651805 0.8608152
vt 0.5517571 0.8771294
vt 0.532007 0.8800202
vt 0.5492217 0.8707316
vt 0.5517571 0.8771294
vt 0.532007 0.8800202
vt 0.5516149 0.8832427
vt 0.532007 0.8800202
vt 0.5517571 0.8771294
vt 0.5492217 0.8707316
vt 0.5516149 0.8832427
vt 0.532007 0.8800202
vt 0.5492217 0.8895931
vt 0.5516149 0.8832427
vt 0.532007 0.8800202
vt 0.5517571 0.8771294
vt 0.532007 0.8800202
vt 0.5516149 0.8832427
vt 0.5492217 0.8895931
vt 0.5550981 0.8563012
vt 0.5545887 0.8661703
vt 0.5583799 0.8608152
vt 0.5473024 0.8563012
vt 0.5583799 0.8608152
vt 0.569102 0.8661703
vt 0.5651805 0.8608152
vt 0.5545887 0.8661703
vt 0.5651805 0.8608152
vt 0.5764595 0.8563012
vt 0.5686637 0.8563012
vt 0.569102 0.8661703
vt 0.5686637 0.8563012
vt 0.569102 0.846361
vt 0.5653582 0.8515977
vt 0.5764595 0.8563012
vt 0.5653582 0.8515977
vt 0.5545887 0.846361
vt 0.5585814 0.8515977
vt 0.569102 0.846361
vt 0.5585814 0.8515977
vt 0.5473024 0.8563012
vt 0.5550981 0.8563012
vt 0.5545887 0.846361
vt 0.5492217 0.8707316
vt 0.5801204 0.8781601
vt 0.5517571 0.8771294
vt 0.5807957 0.8738002
vt 0.5517571 0.8771294
vt 0.5807957 0.8738002
vt 0.5492217 0.8707316
vt 0.5801204 0.8781601
vt 0.5516149 0.8832427
vt 0.5801204 0.8781601
vt 0.5517571 0.8771294
vt 0.5801204 0.8827096
vt 0.5492217 0.8895931
vt 0.5801204 0.8827096
vt 0.5516149 0.8832427
vt 0.5807957 0.8870932
vt 0.5516149 0.8832427
vt 0.5807957 0.8870932
vt 0.5492217 0.8895931
vt 0.5801204 0.8827096
vt 0.5517571 0.8771294
vt 0.5801204 0.8827096
vt 0.5516149 0.8832427
vt 0.5801204 0.8781601
vt 0.5585814 0.8515977
vt 0.5686637 0.8563012
vt 0.5653582 0.8515977
vt 0.5583799 0.8608152
vt 0.5651805 0.8608152
vt 0.5550981 0.8563012
vt 0.5517571 0.8771294
vt 0.532007 0.8800202
vt 0.5492217 0.8707316
vt 0.5517571 0.8771294
vt 0.532007 0.8800202
vt 0.5516149 0.8832427
vt 0.532007 0.8800202
vt 0.5517571 0.8771294
vt 0.5492217 0.8707316
vt 0.5516149 0.8832427
vt 0.532007 0.8800202
vt 0.5492217 0.8895931
vt 0.5516149 0.8832427
vt 0.532007 0.8800202
vt 0.5517571 0.8771294
vt 0.532007 0.8800202
vt 0.5516149 0.8832427
vt 0.5492217 0.8895931
vt 0.5653582 0.8515977
vt 0.5545887 0.846361
vt 0.5585814 0.8515977
vt 0.569102 0.846361
vt 0.5585814 0.8515977
vt 0.5473024 0.8563012
vt 0.5550981 0.8563012
vt 0.5545887 0.846361
vt 0.5550981 0.8563012
vt 0.5545887 0.8661703
vt 0.5583799 0.8608152
vt 0.5473024 0.8563012
vt 0.5583799 0.8608152
vt 0.569102 0.8661703
vt 0.5651805 0.8608152
vt 0.5545887 0.8661703
vt 0.5651805 0.8608152
vt 0.5764595 0.8563012
vt 0.5686637 0.8563012
vt 0.569102 0.8661703
vt 0.5686637 0.8563012
vt 0.569102 0.846361
vt 0.5653582 0.8515977
vt 0.5764595 0.8563012
vt 0.5237018 0.8485883
vt 0.5374333 0.8411243
vt 0.5288556 0.836326
vt 0.5363077 0.8492281
vt 0.5189391 0.8610995
vt 0.515835 0.86168
vt 0.521427 0.8792975
vt 0.5192115 0.8836219
vt 0.5348623 0.8929697
vt 0.5354192 0.8877212
vt 0.5374333 0.8411243
vt 0.5237018 0.8485883
vt 0.5288556 0.836326
vt 0.5363077 0.8492281
vt 0.5176003 0.8639073
vt 0.5156691 0.8603886
vt 0.521427 0.8792975
vt 0.5192115 0.8836219
vt 0.5348623 0.8929697
vt 0.5354192 0.8877212
vt 0.5492217 0.8707316
vt 0.5801204 0.8781601
vt 0.5517571 0.8771294
vt 0.5807957 0.8738002
vt 0.5517571 0.8771294
vt 0.5807957 0.8738002
vt 0.5492217 0.8707316
vt 0.5801204 0.8781601
vt 0.5516149 0.8832427
vt 0.5801204 0.8781601
vt 0.5517571 0.8771294
vt 0.5801204 0.8827096
vt 0.5492217 0.8895931
vt 0.5801204 0.8827096
vt 0.5516149 0.8832427
vt 0.5807957 0.8870932
vt 0.5516149 0.8832427
vt 0.5807957 0.8870932
vt 0.5492217 0.8895931
vt 0.5801204 0.8827096
vt 0.5517571 0.8771294
vt 0.5801204 0.8827096
vt 0.5516149 0.8832427
vt 0.5801204 0.8781601
vt 0.5585814 0.8515977
vt 0.5686637 0.8563012
vt 0.5653582 0.8515977
vt 0.5583799 0.8608152
vt 0.5651805 0.8608152
vt 0.5550981 0.8563012
vt 0.5517571 0.8771294
vt 0.532007 0.8800202
vt 0.5492217 0.8707316
vt 0.5517571 0.8771294
vt 0.532007 0.8800202
vt 0.5516149 0.8832427
vt 0.532007 0.8800202
vt 0.5517571 0.8771294
vt 0.5492217 0.8707316
vt 0.5516149 0.8832427
vt 0.532007 0.8800202
vt 0.5492217 0.8895931
vt 0.5516149 0.8832427
vt 0.532007 0.8800202
vt 0.5517571 0.8771294
vt 0.532007 0.8800202
vt 0.5516149 0.8832427
vt 0.5492217 0.8895931
vt 0.5653582 0.8515977
vt 0.5545887 0.846361
vt 0.5585814 0.8515977
vt 0.569102 0.846361
vt 0.5585814 0.8515977
vt 0.5473024 0.8563012
vt 0.5550981 0.8563012
vt 0.5545887 0.846361
vt 0.5550981 0.8563012
vt 0.5545887 0.8661703
vt 0.5583799 0.8608152
vt 0.5473024 0.8563012
vt 0.5583799 0.8608152
vt 0.569102 0.8661703
vt 0.5651805 0.8608152
vt 0.5545887 0.8661703
vt 0.5651805 0.8608152
vt 0.5764595 0.8563012
vt 0.5686637 0.8563012
vt 0.569102 0.8661703
vt 0.5686637 0.8563012
vt 0.569102 0.846361
vt 0.5653582 0.8515977
vt 0.5764595 0.8563012
vt 0.5237018 0.8485883
vt 0.5374333 0.8411243
vt 0.5288556 0.836326
vt 0.5363077 0.8492281
vt 0.5189391 0.8610995
vt 0.5189391 0.8610995
vt 0.5237018 0.8485883
vt 0.5146146 0.8646182
vt 0.521427 0.8792975
vt 0.5192115 0.8836219
vt 0.5348623 0.8929697
vt 0.5354192 0.8877212
vt 0.5189391 0.8610995
vt 0.5374333 0.8411243
vt 0.5237018 0.8485883
vt 0.5288556 0.836326
vt 0.5363077 0.8492281
vt 0.5189983 0.8619525
vt 0.5189983 0.8619525
vt 0.5156691 0.8603886
vt 0.521427 0.8792975
vt 0.5192115 0.8836219
vt 0.5348623 0.8929697
vt 0.5354192 0.8877212
vt 0.5492217 0.8707316
vt 0.5801204 0.8781601
vt 0.5517571 0.8771294
vt 0.5807957 0.8738002
vt 0.5517571 0.8771294
vt 0.5807957 0.8738002
vt 0.5492217 0.8707316
vt 0.5801204 0.8781601
vt 0.5516149 0.8832427
vt 0.5801204 0.8781601
vt 0.5517571 0.8771294
vt 0.5801204 0.8827096
vt 0.5492217 0.8895931
vt 0.5801204 0.8827096
vt 0.5516149 0.8832427
vt 0.5807957 0.8870932
vt 0.5516149 0.8832427
vt 0.5807957 0.8870932
vt 0.5492217 0.8895931
vt 0.5801204 0.8827096
vt 0.5517571 0.8771294
vt 0.5801204 0.8827096
vt 0.5516149 0.8832427
vt 0.5801204 0.8781601
vt 0.5585814 0.8515977
vt 0.5686637 0.8563012
vt 0.5653582 0.8515977
vt 0.5583799 0.8608152
vt 0.5651805 0.8608152
vt 0.5550981 0.8563012
vt 0.5492217 0.8707316
vt 0.532007 0.8800202
vt 0.5517571 0.8771294
vt 0.532007 0.8800202
vt 0.5492217 0.8707316
vt 0.5517571 0.8771294
vt 0.5516149 0.8832427
vt 0.532007 0.8800202
vt 0.5492217 0.8895931
vt 0.532007 0.8800202
vt 0.5516149 0.8832427
vt 0.5517571 0.8771294
vt 0.5516149 0.8832427
vt 0.532007 0.8800202
vt 0.5517571 0.8771294
vt 0.532007 0.8800202
vt 0.5516149 0.8832427
vt 0.5492217 0.8895931
vt 0.5653582 0.8515977
vt 0.5545887 0.846361
vt 0.5585814 0.8515977
vt 0.569102 0.846361
vt 0.5585814 0.8515977
vt 0.5473024 0.8563012
vt 0.5550981 0.8563012
vt 0.5545887 0.846361
vt 0.5550981 0.8563012
vt 0.5545887 0.8661703
vt 0.5583799 0.8608152
vt 0.5473024 0.8563012
vt 0.5583799 0.8608152
vt 0.569102 0.8661703
vt 0.5651805 0.8608152
vt 0.5545887 0.8661703
vt 0.5651805 0.8608152
vt 0.5764595 0.8563012
vt 0.5686637 0.8563012
vt 0.569102 0.8661703
vt 0.5686637 0.8563012
vt 0.569102 0.846361
vt 0.5653582 0.8515977
vt 0.5764595 0.8563012
vt 0.5237018 0.8485883
vt 0.5374333 0.8411243
vt 0.5288556 0.836326
vt 0.5363077 0.8492281
vt 0.5189983 0.8619525
vt 0.5146146 0.8646182
vt 0.521427 0.8792975
vt 0.5192115 0.8836219
vt 0.5348623 0.8929697
vt 0.5354192 0.8877212
vt 0.5374333 0.8411243
vt 0.5237018 0.8485883
vt 0.5288556 0.836326
vt 0.5363077 0.8492281
vt 0.5190575 0.8628292
vt 0.5156691 0.8603886
vt 0.521427 0.8792975
vt 0.5192115 0.8836219
vt 0.5348623 0.8929697
vt 0.5354192 0.8877212
vt 0.5492217 0.8707316
vt 0.5801204 0.8781601
vt 0.5517571 0.8771294
vt 0.5807957 0.8738002
vt 0.5517571 0.8771294
vt 0.5807957 0.8738002
vt 0.5492217 0.8707316
vt 0.5801204 0.8781601
vt 0.5516149 0.8832427
vt 0.5801204 0.8781601
vt 0.5517571 0.8771294
vt 0.5801204 0.8827096
vt 0.5492217 0.8895931
vt 0.5801204 0.8827096
vt 0.5516149 0.8832427
vt 0.5807957 0.8870932
vt 0.5516149 0.8832427
vt 0.5807957 0.8870932
vt 0.5492217 0.8895931
vt 0.5801204 0.8827096
vt 0.5517571 0.8771294
vt 0.5801204 0.8827096
vt 0.5516149 0.8832427
vt 0.5801204 0.8781601
vt 0.5585814 0.8515977
vt 0.5686637 0.8563012
vt 0.5653582 0.8515977
vt 0.5583799 0.8608152
vt 0.5651805 0.8608152
vt 0.5550981 0.8563012
vt 0.5517571 0.8771294
vt 0.532007 0.8800202
vt 0.5492217 0.8707316
vt 0.5517571 0.8771294
vt 0.532007 0.8800202
vt 0.5516149 0.8832427
vt 0.532007 0.8800202
vt 0.5517571 0.8771294
vt 0.5492217 0.8707316
vt 0.5516149 0.8832427
vt 0.532007 0.8800202
vt 0.5492217 0.8895931
vt 0.5516149 0.8832427
vt 0.532007 0.8800202
vt 0.5517571 0.8771294
vt 0.532007 0.8800202
vt 0.5516149 0.8832427
vt 0.5492217 0.8895931
vt 0.5653582 0.8515977
vt 0.5545887 0.846361
vt 0.5585814 0.8515977
vt 0.569102 0.846361
vt 0.5585814 0.8515977
vt 0.5473024 0.8563012
vt 0.5550981 0.8563012
vt 0.5545887 0.846361
vt 0.5550981 0.8563012
vt 0.5545887 0.8661703
vt 0.5583799 0.8608152
vt 0.5473024 0.8563012
vt 0.5583799 0.8608152
vt 0.569102 0.8661703
vt 0.5651805 0.8608152
vt 0.5545887 0.8661703
vt 0.5651805 0.8608152
vt 0.5764595 0.8563012
vt 0.5686637 0.8563012
vt 0.569102 0.8661703
vt 0.5686637 0.8563012
vt 0.569102 0.846361
vt 0.5653582 0.8515977
vt 0.5764595 0.8563012
vt 0.5237018 0.8485883
vt 0.5374333 0.8411243
vt 0.5288556 0.836326
vt 0.5363077 0.8492281
vt 0.5189983 0.8619525
vt 0.514354 0.8627108
vt 0.521427 0.8792975
vt 0.5192115 0.8836219
vt 0.5348623 0.8929697
vt 0.5354192 0.8877212
vt 0.5374333 0.8411243
vt 0.5237018 0.8485883
vt 0.5288556 0.836326
vt 0.5363077 0.8492281
vt 0.5190575 0.8628292
vt 0.5154914 0.8590972
vt 0.521427 0.8792975
vt 0.5192115 0.8836219
vt 0.5348623 0.8929697
vt 0.5354192 0.8877212
vn 0.9294047 0.06666613 -0.3629911
vn 0.9294047 0.1372538 -0.3425906
vn 0.9294047 0.06666613 -0.3629911
vn 0.9294047 0.1372538 -0.3425906
vn -0.3803892 0.06666613 -0.9224206
vn -0.3725461 0.1372538 -0.9178076
vn -0.3803892 0.06666613 -0.9224206
vn -0.3725461 0.1372538 -0.9178076
vn -0.9137185 0.06666613 0.4008419
vn -0.9137185 0.1372538 0.3824657
vn -0.9137185 0.06666613 0.4008419
vn -0.9137185 0.1372538 0.3824657
vn 0.3960754 0.06666613 0.9157947
vn 0.3882324 0.1372538 0.9112832
vn 0.3960754 0.06666613 0.9157947
vn 0.3882324 0.1372538 0.9112832
vn 0.9372478 -0.01176465 -0.3484656
vn 0.9294047 0.06666613 -0.3629911
vn 0.9372478 -0.01176465 -0.3484656
vn 0.9294047 0.06666613 -0.3629911
vn -0.3803892 -0.01176465 -0.9247517
vn -0.3803892 0.06666613 -0.9224206
vn -0.3803892 -0.01176465 -0.9247517
vn -0.3803892 0.06666613 -0.9224206
vn -0.9215615 -0.01176465 0.3880541
vn -0.9137185 0.06666613 0.4008419
vn -0.9215615 -0.01176465 0.3880541
vn -0.9137185 0.06666613 0.4008419
vn 0.3960754 -0.01176465 0.9181426
vn 0.3960754 0.06666613 0.9157947
vn 0.3960754 0.06666613 0.9157947
vn 0.3960754 -0.01176465 0.9181426
vn 0.9829164 -0.1840521 0
vn 0.938077 -0.3464268 0
vn 0.9829164 -0.1840521 0
vn 0.938077 -0.3464268 0
vn 0.5058785 -0.1921554 -0.84093
vn 0.4823493 -0.35686 -0.7999938
vn 0.5058785 -0.1921554 -0.84093
vn 0.4823493 -0.35686 -0.7999938
vn -0.4901923 -0.1921554 -0.8501693
vn -0.466663 -0.35686 -0.8092444
vn -0.4901923 -0.1921554 -0.8501693
vn -0.466663 -0.35686 -0.8092444
vn -0.9764631 -0.1921554 -0.09796004
vn -0.9294046 -0.349017 -0.1199758
vn -0.9764631 -0.1921554 -0.09796004
vn -0.9294046 -0.349017 -0.1199758
vn -0.4901923 -0.1921554 0.8501693
vn -0.466663 -0.35686 0.8092444
vn -0.4901923 -0.1921554 0.8501693
vn -0.466663 -0.35686 0.8092444
vn 0.5058785 -0.1921554 0.84093
vn 0.4823493 -0.35686 0.7999938
vn 0.5058785 -0.1921554 0.84093
vn 0.4823493 -0.35686 0.7999938
vn 0.003921568 -0.9999924 0
vn 0.003921568 -0.9999924 0
vn 0.003921568 -0.9999924 0
vn 0.003921568 -0.9999924 0
vn 0.003921568 -0.9999924 0
vn 0.003921568 -0.9999924 0
vn 0.8078915 0.5893313 0
vn 0.8078915 0.5893313 0
vn 0.8078915 0.5893313 0
vn -0.3960754 0.5921522 -0.7017692
vn -0.3960754 0.5921522 -0.7017692
vn -0.3960754 0.5921522 -0.7017692
vn 0.4117616 0.5921522 -0.6926818
vn 0.4117616 0.5921522 -0.6926818
vn 0.4117616 0.5921522 -0.6926818
vn -0.7960722 0.5921522 -0.1249989
vn -0.7960722 0.5921522 -0.1249989
vn -0.7960722 0.5921522 -0.1249989
vn 0.4117616 0.5921522 0.6926818
vn 0.4117616 0.5921522 0.6926818
vn 0.4117616 0.5921522 0.6926818
vn -0.3960754 0.5921522 0.7017692
vn -0.3960754 0.5921522 0.7017692
vn -0.3960754 0.5921522 0.7017692
vn 0.8362151 -0.5484015 0
vn 0.938077 -0.3464268 0
vn 0.8362151 -0.5484015 0
vn 0.938077 -0.3464268 0
vn 0.4274477 -0.56078 -0.7090939
vn 0.4823493 -0.35686 -0.7999938
vn 0.4274477 -0.56078 -0.7090939
vn 0.4823493 -0.35686 -0.7999938
vn -0.4117615 -0.56078 -0.7183163
vn -0.466663 -0.35686 -0.8092444
vn -0.4117615 -0.56078 -0.7183163
vn -0.466663 -0.35686 -0.8092444
vn -0.8274446 -0.552937 -0.09796035
vn -0.9294046 -0.349017 -0.1199758
vn -0.8274446 -0.552937 -0.09796035
vn -0.9294046 -0.349017 -0.1199758
vn -0.4117615 -0.56078 0.7183163
vn -0.466663 -0.35686 0.8092444
vn -0.4117615 -0.56078 0.7183163
vn -0.466663 -0.35686 0.8092444
vn 0.4274477 -0.56078 0.7090939
vn 0.4823493 -0.35686 0.7999938
vn 0.4274477 -0.56078 0.7090939
vn 0.4823493 -0.35686 0.7999938
vn 0.9829164 -0.1840521 0
vn 0.938077 -0.3464268 0
vn 0.9829164 -0.1840521 0
vn 0.938077 -0.3464268 0
vn 0.5058785 -0.1921554 -0.84093
vn 0.4823493 -0.35686 -0.7999938
vn 0.5058785 -0.1921554 -0.84093
vn 0.4823493 -0.35686 -0.7999938
vn -0.4901923 -0.1921554 -0.8501693
vn -0.466663 -0.35686 -0.8092444
vn -0.4901923 -0.1921554 -0.8501693
vn -0.466663 -0.35686 -0.8092444
vn -0.9764631 -0.1921554 -0.09796004
vn -0.9294046 -0.349017 -0.1199758
vn -0.9764631 -0.1921554 -0.09796004
vn -0.9294046 -0.349017 -0.1199758
vn -0.4901923 -0.1921554 0.8501693
vn -0.466663 -0.35686 0.8092444
vn -0.4901923 -0.1921554 0.8501693
vn -0.466663 -0.35686 0.8092444
vn 0.5058785 -0.1921554 0.84093
vn 0.4823493 -0.35686 0.7999938
vn 0.5058785 -0.1921554 0.84093
vn 0.4823493 -0.35686 0.7999938
vn 0.003921568 -0.9999924 0
vn 0.003921568 -0.9999924 0
vn 0.003921568 -0.9999924 0
vn 0.003921568 -0.9999924 0
vn 0.003921568 -0.9999924 0
vn 0.003921568 -0.9999924 0
vn 0.8078915 0.5893313 0
vn 0.8078915 0.5893313 0
vn 0.8078915 0.5893313 0
vn -0.3960754 0.5921522 -0.7017692
vn -0.3960754 0.5921522 -0.7017692
vn -0.3960754 0.5921522 -0.7017692
vn 0.4117616 0.5921522 -0.6926818
vn 0.4117616 0.5921522 -0.6926818
vn 0.4117616 0.5921522 -0.6926818
vn -0.7960722 0.5921522 -0.1249989
vn -0.7960722 0.5921522 -0.1249989
vn -0.7960722 0.5921522 -0.1249989
vn 0.4117616 0.5921522 0.6926818
vn 0.4117616 0.5921522 0.6926818
vn 0.4117616 0.5921522 0.6926818
vn -0.3960754 0.5921522 0.7017692
vn -0.3960754 0.5921522 0.7017692
vn -0.3960754 0.5921522 0.7017692
vn 0.8362151 -0.5484015 0
vn 0.938077 -0.3464268 0
vn 0.8362151 -0.5484015 0
vn 0.938077 -0.3464268 0
vn 0.4274477 -0.56078 -0.7090939
vn 0.4823493 -0.35686 -0.7999938
vn 0.4274477 -0.56078 -0.7090939
vn 0.4823493 -0.35686 -0.7999938
vn -0.4117615 -0.56078 -0.7183163
vn -0.466663 -0.35686 -0.8092444
vn -0.4117615 -0.56078 -0.7183163
vn -0.466663 -0.35686 -0.8092444
vn -0.8274446 -0.552937 -0.09796035
vn -0.9294046 -0.349017 -0.1199758
vn -0.8274446 -0.552937 -0.09796035
vn -0.9294046 -0.349017 -0.1199758
vn -0.4117615 -0.56078 0.7183163
vn -0.466663 -0.35686 0.8092444
vn -0.4117615 -0.56078 0.7183163
vn -0.466663 -0.35686 0.8092444
vn 0.4274477 -0.56078 0.7090939
vn 0.4823493 -0.35686 0.7999938
vn 0.4274477 -0.56078 0.7090939
vn 0.4823493 -0.35686 0.7999938
vn 0.01176465 -0.01176465 0.9998616
vn 0.01176465 -0.01176465 0.9998616
vn 0.01176465 -0.01176465 0.9998616
vn 0.01176465 -0.01176465 0.9998616
vn 0.01176465 -0.01176465 0.9998616
vn 0.01176465 -0.01176465 0.9998616
vn 0.01176465 -0.01176465 0.9998616
vn 0.01176465 -0.01176465 0.9998616
vn 0.01176465 -0.01176465 0.9998616
vn 0.01176465 -0.01176465 0.9998616
vn 0.01176465 -0.01176465 -0.9998616
vn 0.01176465 -0.01176465 -0.9998616
vn 0.01176465 -0.01176465 -0.9998616
vn 0.01176465 -0.01176465 -0.9998616
vn 0.01176465 -0.01176465 -0.9998616
vn 0.01176465 -0.01176465 -0.9998616
vn 0.01176465 -0.01176465 -0.9998616
vn 0.01176465 -0.01176465 -0.9998616
vn 0.01176465 -0.01176465 -0.9998616
vn 0.01176465 -0.01176465 -0.9998616
vn 0.01176465 -0.1921554 0.981294
vn 0.01176465 -0.35686 0.9340838
vn 0.01176465 -0.1921554 0.981294
vn 0.01176465 -0.35686 0.9340838
vn 0.8666601 -0.1921554 0.4604092
vn 0.8274447 -0.35686 0.4335738
vn 0.8666601 -0.1921554 0.4604092
vn 0.8274447 -0.35686 0.4335738
vn 0.8666601 -0.1921554 -0.4604092
vn 0.8274447 -0.35686 -0.4335738
vn 0.8666601 -0.1921554 -0.4604092
vn 0.8274447 -0.35686 -0.4335738
vn 0.01176465 -0.1921554 -0.981294
vn 0.01176465 -0.35686 -0.9340838
vn 0.01176465 -0.1921554 -0.981294
vn 0.01176465 -0.35686 -0.9340838
vn -0.8509738 -0.1921554 -0.4887942
vn -0.8117584 -0.35686 -0.4622761
vn -0.8509738 -0.1921554 -0.4887942
vn -0.8117584 -0.35686 -0.4622761
vn -0.8509738 -0.1921554 0.4887942
vn -0.8117584 -0.35686 0.4622761
vn -0.8509738 -0.1921554 0.4887942
vn -0.8117584 -0.35686 0.4622761
vn 0.003921568 -0.9999924 0
vn 0.003921568 -0.9999924 0
vn 0.003921568 -0.9999924 0
vn 0.003921568 -0.9999924 0
vn 0.003921568 -0.9999924 0
vn 0.003921568 -0.9999924 0
vn 0.01176465 0.5921522 0.8057402
vn 0.01176465 0.5921522 0.8057402
vn 0.01176465 0.5921522 0.8057402
vn 0.7019554 0.5921522 -0.3957452
vn 0.7019554 0.5921522 -0.3957452
vn 0.7019554 0.5921522 -0.3957452
vn 0.7019554 0.5921522 0.3957452
vn 0.7019554 0.5921522 0.3957452
vn 0.7019554 0.5921522 0.3957452
vn 0.01176465 0.5921522 -0.8057402
vn 0.01176465 0.5921522 -0.8057402
vn 0.01176465 0.5921522 -0.8057402
vn -0.6862692 0.5921522 0.4223628
vn -0.6862692 0.5921522 0.4223628
vn -0.6862692 0.5921522 0.4223628
vn -0.6862692 0.5921522 -0.4223628
vn -0.6862692 0.5921522 -0.4223628
vn -0.6862692 0.5921522 -0.4223628
vn 0.01176465 -0.56078 0.8278813
vn 0.01176465 -0.35686 0.9340838
vn 0.01176465 -0.56078 0.8278813
vn 0.01176465 -0.35686 0.9340838
vn 0.7411708 -0.56078 0.3690414
vn 0.8274447 -0.35686 0.4335738
vn 0.7411708 -0.56078 0.3690414
vn 0.8274447 -0.35686 0.4335738
vn 0.7411708 -0.56078 -0.3690414
vn 0.8274447 -0.35686 -0.4335738
vn 0.7411708 -0.56078 -0.3690414
vn 0.8274447 -0.35686 -0.4335738
vn 0.01176465 -0.56078 -0.8278813
vn 0.01176465 -0.35686 -0.9340838
vn 0.01176465 -0.56078 -0.8278813
vn 0.01176465 -0.35686 -0.9340838
vn -0.7254846 -0.56078 -0.398996
vn -0.8117584 -0.35686 -0.4622761
vn -0.7254846 -0.56078 -0.398996
vn -0.8117584 -0.35686 -0.4622761
vn -0.7254846 -0.56078 0.398996
vn -0.8117584 -0.35686 0.4622761
vn -0.7254846 -0.56078 0.398996
vn -0.8117584 -0.35686 0.4622761
vn -0.9921492 -0.01176465 -0.124505
vn -0.9999923 -0.003921568 -0.0003442513
vn -0.9999923 -0.003921568 -0.0003442513
vn -0.9921492 -0.01176465 -0.124505
vn -0.9921492 0.01960766 0.1235129
vn -0.9921492 0.01960766 0.1235129
vn -0.9921492 -0.01176465 -0.124505
vn -0.9921492 0.01960766 0.1235129
vn -0.9921492 -0.01176465 0.124505
vn -0.9999923 -0.003921568 -0.0003442513
vn -0.9999923 -0.003921568 -0.0003442513
vn -0.9999923 -0.003921568 -0.0003442513
vn -0.9921492 0.01960766 0.1235129
vn 0.9999924 -0.003921568 0
vn 0.9999924 -0.003921568 0
vn 0.9999924 -0.003921568 0
vn 0.9999924 -0.003921568 0
vn 0.9999309 0.0117638 0
vn 0.9999309 0.0117638 0
vn 0.9999309 0.0117638 0
vn 0.9999924 -0.003921568 0
vn 0.9999924 -0.003921568 0
vn 0.9999924 -0.003921568 0
vn 0.9999924 -0.003921568 0
vn -0.9764631 -0.1921554 0.09796004
vn -0.9294046 -0.349017 -0.1199758
vn -0.9764631 -0.1921554 -0.09796004
vn -0.9294046 -0.349017 -0.1199758
vn -0.4901923 -0.1921554 0.8501693
vn -0.466663 -0.35686 0.8092444
vn -0.4901923 -0.1921554 0.8501693
vn -0.466663 -0.35686 0.8092444
vn 0.5058785 -0.1921554 0.84093
vn 0.4823493 -0.35686 0.7999938
vn 0.5058785 -0.1921554 0.84093
vn 0.4823493 -0.35686 0.7999938
vn 0.9829164 -0.1840521 0
vn 0.938077 -0.3464268 0
vn 0.9829164 -0.1840521 0
vn 0.938077 -0.3464268 0
vn 0.5058785 -0.1921554 -0.84093
vn 0.4823493 -0.35686 -0.7999938
vn 0.5058785 -0.1921554 -0.84093
vn 0.4823493 -0.35686 -0.7999938
vn -0.4901923 -0.1921554 -0.8501693
vn -0.466663 -0.35686 -0.8092444
vn -0.4901923 -0.1921554 -0.8501693
vn -0.466663 -0.35686 -0.8092444
vn 0.003921568 -0.9999924 0
vn 0.003921568 -0.9999924 0
vn 0.003921568 -0.9999924 0
vn 0.003921568 -0.9999924 0
vn 0.003921568 -0.9999924 0
vn 0.003921568 -0.9999924 0
vn -0.3960754 0.5921522 0.7017692
vn -0.3960754 0.5921522 0.7017692
vn -0.3960754 0.5921522 0.7017692
vn -0.7960722 0.5921522 -0.1249989
vn -0.7960722 0.5921522 -0.1249989
vn -0.7960722 0.5921522 -0.1249989
vn 0.8078915 0.5893313 0
vn 0.8078915 0.5893313 0
vn 0.8078915 0.5893313 0
vn 0.4117616 0.5921522 0.6926818
vn 0.4117616 0.5921522 0.6926818
vn 0.4117616 0.5921522 0.6926818
vn -0.3960754 0.5921522 -0.7017692
vn -0.3960754 0.5921522 -0.7017692
vn -0.3960754 0.5921522 -0.7017692
vn 0.4117616 0.5921522 -0.6926818
vn 0.4117616 0.5921522 -0.6926818
vn 0.4117616 0.5921522 -0.6926818
vn -0.8274446 -0.552937 -0.09796035
vn -0.9294046 -0.349017 -0.1199758
vn -0.8274446 -0.552937 -0.09796035
vn -0.9294046 -0.349017 -0.1199758
vn -0.4117615 -0.56078 0.7183163
vn -0.466663 -0.35686 0.8092444
vn -0.4117615 -0.56078 0.7183163
vn -0.466663 -0.35686 0.8092444
vn 0.4274477 -0.56078 0.7090939
vn 0.4823493 -0.35686 0.7999938
vn 0.4274477 -0.56078 0.7090939
vn 0.4823493 -0.35686 0.7999938
vn 0.8362151 -0.5484015 0
vn 0.938077 -0.3464268 0
vn 0.8362151 -0.5484015 0
vn 0.938077 -0.3464268 0
vn 0.4274477 -0.56078 -0.7090939
vn 0.4823493 -0.35686 -0.7999938
vn 0.4274477 -0.56078 -0.7090939
vn 0.4823493 -0.35686 -0.7999938
vn -0.4117615 -0.56078 -0.7183163
vn -0.466663 -0.35686 -0.8092444
vn -0.4117615 -0.56078 -0.7183163
vn -0.466663 -0.35686 -0.8092444
vn 0.01176465 -0.01176465 -0.9998616
vn 0.01176465 -0.01176465 -0.9998616
vn 0.01176465 -0.01176465 -0.9998616
vn 0.01176465 -0.01176465 -0.9998616
vn 0.01176465 -0.01176465 -0.9998616
vn 0.01176465 -0.01176465 -0.9998616
vn 0.01176465 -0.01176465 -0.9998616
vn 0.01176465 -0.01176465 -0.9998616
vn 0.01176465 -0.01176465 -0.9998616
vn 0.01176465 -0.01176465 -0.9998616
vn 0.01176465 -0.01176465 0.9998616
vn 0.01176465 -0.01176465 0.9998616
vn 0.01176465 -0.01176465 0.9998616
vn 0.01176465 -0.01176465 0.9998616
vn 0.01176465 -0.01176465 0.9998616
vn 0.01176465 -0.01176465 0.9998616
vn 0.01176465 -0.01176465 0.9998616
vn 0.01176465 -0.01176465 0.9998616
vn 0.01176465 -0.01176465 0.9998616
vn 0.01176465 -0.01176465 0.9998616
vn 0.01176465 -0.1921554 -0.981294
vn 0.01176465 -0.35686 -0.9340838
vn 0.01176465 -0.1921554 -0.981294
vn 0.01176465 -0.35686 -0.9340838
vn -0.8509738 -0.1921554 -0.4887942
vn -0.8117584 -0.35686 -0.4622761
vn -0.8509738 -0.1921554 -0.4887942
vn -0.8117584 -0.35686 -0.4622761
vn -0.8509738 -0.1921554 0.4887942
vn -0.8117584 -0.35686 0.4622761
vn -0.8509738 -0.1921554 0.4887942
vn -0.8117584 -0.35686 0.4622761
vn 0.01176465 -0.1921554 0.981294
vn 0.01176465 -0.35686 0.9340838
vn 0.01176465 -0.1921554 0.981294
vn 0.01176465 -0.35686 0.9340838
vn 0.8666601 -0.1921554 0.4604092
vn 0.8274447 -0.35686 0.4335738
vn 0.8666601 -0.1921554 0.4604092
vn 0.8274447 -0.35686 0.4335738
vn 0.8666601 -0.1921554 -0.4604092
vn 0.8274447 -0.35686 -0.4335738
vn 0.8666601 -0.1921554 -0.4604092
vn 0.8274447 -0.35686 -0.4335738
vn 0.003921568 -0.9999924 0
vn 0.003921568 -0.9999924 0
vn 0.003921568 -0.9999924 0
vn 0.003921568 -0.9999924 0
vn 0.003921568 -0.9999924 0
vn 0.003921568 -0.9999924 0
vn 0.01176465 0.5921522 -0.8057402
vn 0.01176465 0.5921522 -0.8057402
vn 0.01176465 0.5921522 -0.8057402
vn -0.6862692 0.5921522 0.4223628
vn -0.6862692 0.5921522 0.4223628
vn -0.6862692 0.5921522 0.4223628
vn -0.6862692 0.5921522 -0.4223628
vn -0.6862692 0.5921522 -0.4223628
vn -0.6862692 0.5921522 -0.4223628
vn 0.01176465 0.5921522 0.8057402
vn 0.01176465 0.5921522 0.8057402
vn 0.01176465 0.5921522 0.8057402
vn 0.7019554 0.5921522 -0.3957452
vn 0.7019554 0.5921522 -0.3957452
vn 0.7019554 0.5921522 -0.3957452
vn 0.7019554 0.5921522 0.3957452
vn 0.7019554 0.5921522 0.3957452
vn 0.7019554 0.5921522 0.3957452
vn 0.01176465 -0.56078 -0.8278813
vn 0.01176465 -0.35686 -0.9340838
vn 0.01176465 -0.56078 -0.8278813
vn 0.01176465 -0.35686 -0.9340838
vn -0.7254846 -0.56078 -0.398996
vn -0.8117584 -0.35686 -0.4622761
vn -0.7254846 -0.56078 -0.398996
vn -0.8117584 -0.35686 -0.4622761
vn -0.7254846 -0.56078 0.398996
vn -0.8117584 -0.35686 0.4622761
vn -0.7254846 -0.56078 0.398996
vn -0.8117584 -0.35686 0.4622761
vn 0.01176465 -0.56078 0.8278813
vn 0.01176465 -0.35686 0.9340838
vn 0.01176465 -0.56078 0.8278813
vn 0.01176465 -0.35686 0.9340838
vn 0.7411708 -0.56078 0.3690414
vn 0.8274447 -0.35686 0.4335738
vn 0.7411708 -0.56078 0.3690414
vn 0.8274447 -0.35686 0.4335738
vn 0.7411708 -0.56078 -0.3690414
vn 0.8274447 -0.35686 -0.4335738
vn 0.7411708 -0.56078 -0.3690414
vn 0.8274447 -0.35686 -0.4335738
vn 0.9999924 -0.003921568 0
vn 0.9999924 -0.003921568 0
vn 0.9999924 -0.003921568 0
vn 0.9999924 -0.003921568 0
vn 0.9999924 -0.003921568 0
vn 0.9999924 -0.003921568 0
vn 0.9999924 -0.003921568 0
vn 0.9999924 -0.003921568 0
vn 0.9999924 -0.003921568 0
vn 0.9999924 -0.003921568 0
vn -0.9999923 -0.003921568 -0.0003442513
vn -0.9999923 -0.003921568 -0.0003442513
vn -0.9999923 -0.003921568 -0.0003442513
vn -0.9999923 -0.003921568 -0.0003442513
vn -0.9999923 -0.003921568 -0.0003442513
vn -0.9999923 -0.003921568 -0.0003442513
vn -0.9999923 -0.003921568 -0.0003442513
vn -0.9999923 -0.003921568 -0.0003442513
vn -0.9999923 -0.003921568 -0.0003442513
vn -0.9999923 -0.003921568 -0.0003442513
g DSJ_GTA_daoJu_zhuangShi_03_0
f 3/3/3 2/2/2 1/1/1
f 4/4/4 1/1/1 2/2/2
f 7/7/7 6/6/6 5/5/5
f 8/8/8 5/5/5 6/6/6
f 11/11/11 10/10/10 9/9/9
f 12/12/12 9/9/9 10/10/10
f 15/15/15 14/14/14 13/13/13
f 16/16/16 13/13/13 14/14/14
f 19/19/19 18/18/18 17/17/17
f 20/20/20 17/17/17 18/18/18
f 23/23/23 22/22/22 21/21/21
f 24/24/24 21/21/21 22/22/22
f 27/27/27 26/26/26 25/25/25
f 28/28/28 25/25/25 26/26/26
f 31/31/31 30/30/30 29/29/29
f 32/32/32 29/29/29 30/30/30
f 35/35/35 34/34/34 33/33/33
f 36/36/36 33/33/33 34/34/34
f 39/39/39 38/38/38 37/37/37
f 40/40/40 37/37/37 38/38/38
f 43/43/43 42/42/42 41/41/41
f 44/44/44 41/41/41 42/42/42
f 47/47/47 46/46/46 45/45/45
f 48/48/48 45/45/45 46/46/46
f 51/51/51 50/50/50 49/49/49
f 52/52/52 49/49/49 50/50/50
f 55/55/55 54/54/54 53/53/53
f 56/56/56 53/53/53 54/54/54
f 59/59/59 58/58/58 57/57/57
f 58/58/58 60/60/60 57/57/57
f 61/61/61 60/60/60 58/58/58
f 60/60/60 62/62/62 57/57/57
f 65/65/65 64/64/64 63/63/63
f 68/68/68 67/67/67 66/66/66
f 71/71/71 70/70/70 69/69/69
f 74/74/74 73/73/73 72/72/72
f 77/77/77 76/76/76 75/75/75
f 80/80/80 79/79/79 78/78/78
f 83/83/83 82/82/82 81/81/81
f 84/84/84 81/81/81 82/82/82
f 87/87/87 86/86/86 85/85/85
f 88/88/88 85/85/85 86/86/86
f 91/91/91 90/90/90 89/89/89
f 92/92/92 89/89/89 90/90/90
f 95/95/95 94/94/94 93/93/93
f 96/96/96 93/93/93 94/94/94
f 99/99/99 98/98/98 97/97/97
f 100/100/100 97/97/97 98/98/98
f 103/103/103 102/102/102 101/101/101
f 104/104/104 101/101/101 102/102/102
f 107/107/107 106/106/106 105/105/105
f 108/108/108 105/105/105 106/106/106
f 111/111/111 110/110/110 109/109/109
f 112/112/112 109/109/109 110/110/110
f 115/115/115 114/114/114 113/113/113
f 116/116/116 113/113/113 114/114/114
f 119/119/119 118/118/118 117/117/117
f 120/120/120 117/117/117 118/118/118
f 123/123/123 122/122/122 121/121/121
f 124/124/124 121/121/121 122/122/122
f 127/127/127 126/126/126 125/125/125
f 128/128/128 125/125/125 126/126/126
f 131/131/131 130/130/130 129/129/129
f 130/130/130 132/132/132 129/129/129
f 133/133/133 132/132/132 130/130/130
f 132/132/132 134/134/134 129/129/129
f 137/137/137 136/136/136 135/135/135
f 140/140/140 139/139/139 138/138/138
f 143/143/143 142/142/142 141/141/141
f 146/146/146 145/145/145 144/144/144
f 149/149/149 148/148/148 147/147/147
f 152/152/152 151/151/151 150/150/150
f 155/155/155 154/154/154 153/153/153
f 156/156/156 153/153/153 154/154/154
f 159/159/159 158/158/158 157/157/157
f 160/160/160 157/157/157 158/158/158
f 163/163/163 162/162/162 161/161/161
f 164/164/164 161/161/161 162/162/162
f 167/167/167 166/166/166 165/165/165
f 168/168/168 165/165/165 166/166/166
f 171/171/171 170/170/170 169/169/169
f 172/172/172 169/169/169 170/170/170
f 175/175/175 174/174/174 173/173/173
f 176/176/176 173/173/173 174/174/174
f 179/179/179 178/178/178 177/177/177
f 180/180/180 177/177/177 178/178/178
f 180/180/180 181/181/181 177/177/177
f 182/182/182 177/177/177 181/181/181
f 181/181/181 183/183/183 182/182/182
f 184/184/184 182/182/182 183/183/183
f 184/184/184 183/183/183 185/185/185
f 186/186/186 185/185/185 183/183/183
f 189/189/189 188/188/188 187/187/187
f 190/190/190 187/187/187 188/188/188
f 190/190/190 188/188/188 191/191/191
f 192/192/192 191/191/191 188/188/188
f 191/191/191 192/192/192 193/193/193
f 194/194/194 193/193/193 192/192/192
f 194/194/194 195/195/195 193/193/193
f 196/196/196 193/193/193 195/195/195
f 199/199/199 198/198/198 197/197/197
f 200/200/200 197/197/197 198/198/198
f 203/203/203 202/202/202 201/201/201
f 204/204/204 201/201/201 202/202/202
f 207/207/207 206/206/206 205/205/205
f 208/208/208 205/205/205 206/206/206
f 211/211/211 210/210/210 209/209/209
f 212/212/212 209/209/209 210/210/210
f 215/215/215 214/214/214 213/213/213
f 216/216/216 213/213/213 214/214/214
f 219/219/219 218/218/218 217/217/217
f 220/220/220 217/217/217 218/218/218
f 223/223/223 222/222/222 221/221/221
f 222/222/222 224/224/224 221/221/221
f 225/225/225 224/224/224 222/222/222
f 224/224/224 226/226/226 221/221/221
f 229/229/229 228/228/228 227/227/227
f 232/232/232 231/231/231 230/230/230
f 235/235/235 234/234/234 233/233/233
f 238/238/238 237/237/237 236/236/236
f 241/241/241 240/240/240 239/239/239
f 244/244/244 243/243/243 242/242/242
f 247/247/247 246/246/246 245/245/245
f 248/248/248 245/245/245 246/246/246
f 251/251/251 250/250/250 249/249/249
f 252/252/252 249/249/249 250/250/250
f 255/255/255 254/254/254 253/253/253
f 256/256/256 253/253/253 254/254/254
f 259/259/259 258/258/258 257/257/257
f 260/260/260 257/257/257 258/258/258
f 263/263/263 262/262/262 261/261/261
f 264/264/264 261/261/261 262/262/262
f 267/267/267 266/266/266 265/265/265
f 268/268/268 265/265/265 266/266/266
f 271/271/271 270/270/270 269/269/269
f 272/272/272 269/269/269 270/270/270
f 272/272/272 273/273/273 269/269/269
f 276/276/276 275/275/275 274/274/274
f 278/278/278 276/276/276 277/277/277
f 278/278/278 277/277/277 279/279/279
f 280/280/280 279/279/279 277/277/277
f 281/281/281 277/277/277 276/276/276
f 284/284/284 283/283/283 282/282/282
f 285/285/285 282/282/282 283/283/283
f 285/285/285 283/283/283 286/286/286
f 288/288/288 287/287/287 283/283/283
f 287/287/287 288/288/288 289/289/289
f 290/290/290 289/289/289 288/288/288
f 290/290/290 291/291/291 289/289/289
f 292/292/292 289/289/289 291/291/291
f 295/295/295 294/294/294 293/293/293
f 296/296/296 293/293/293 294/294/294
f 299/299/299 298/298/298 297/297/297
f 300/300/300 297/297/297 298/298/298
f 303/303/303 302/302/302 301/301/301
f 304/304/304 301/301/301 302/302/302
f 307/307/307 306/306/306 305/305/305
f 308/308/308 305/305/305 306/306/306
f 311/311/311 310/310/310 309/309/309
f 312/312/312 309/309/309 310/310/310
f 315/315/315 314/314/314 313/313/313
f 316/316/316 313/313/313 314/314/314
f 319/319/319 318/318/318 317/317/317
f 318/318/318 320/320/320 317/317/317
f 321/321/321 320/320/320 318/318/318
f 320/320/320 322/322/322 317/317/317
f 325/325/325 324/324/324 323/323/323
f 328/328/328 327/327/327 326/326/326
f 331/331/331 330/330/330 329/329/329
f 334/334/334 333/333/333 332/332/332
f 337/337/337 336/336/336 335/335/335
f 340/340/340 339/339/339 338/338/338
f 343/343/343 342/342/342 341/341/341
f 344/344/344 341/341/341 342/342/342
f 347/347/347 346/346/346 345/345/345
f 348/348/348 345/345/345 346/346/346
f 351/351/351 350/350/350 349/349/349
f 352/352/352 349/349/349 350/350/350
f 355/355/355 354/354/354 353/353/353
f 356/356/356 353/353/353 354/354/354
f 359/359/359 358/358/358 357/357/357
f 360/360/360 357/357/357 358/358/358
f 363/363/363 362/362/362 361/361/361
f 364/364/364 361/361/361 362/362/362
f 367/367/367 366/366/366 365/365/365
f 368/368/368 365/365/365 366/366/366
f 368/368/368 369/369/369 365/365/365
f 370/370/370 365/365/365 369/369/369
f 369/369/369 371/371/371 370/370/370
f 372/372/372 370/370/370 371/371/371
f 372/372/372 371/371/371 373/373/373
f 374/374/374 373/373/373 371/371/371
f 377/377/377 376/376/376 375/375/375
f 378/378/378 375/375/375 376/376/376
f 378/378/378 376/376/376 379/379/379
f 380/380/380 379/379/379 376/376/376
f 379/379/379 380/380/380 381/381/381
f 382/382/382 381/381/381 380/380/380
f 382/382/382 383/383/383 381/381/381
f 384/384/384 381/381/381 383/383/383
f 387/387/387 386/386/386 385/385/385
f 388/388/388 385/385/385 386/386/386
f 391/391/391 390/390/390 389/389/389
f 392/392/392 389/389/389 390/390/390
f 395/395/395 394/394/394 393/393/393
f 396/396/396 393/393/393 394/394/394
f 399/399/399 398/398/398 397/397/397
f 400/400/400 397/397/397 398/398/398
f 403/403/403 402/402/402 401/401/401
f 404/404/404 401/401/401 402/402/402
f 407/407/407 406/406/406 405/405/405
f 408/408/408 405/405/405 406/406/406
f 411/411/411 410/410/410 409/409/409
f 410/410/410 412/412/412 409/409/409
f 413/413/413 412/412/412 410/410/410
f 412/412/412 414/414/414 409/409/409
f 417/417/417 416/416/416 415/415/415
f 420/420/420 419/419/419 418/418/418
f 423/423/423 422/422/422 421/421/421
f 426/426/426 425/425/425 424/424/424
f 429/429/429 428/428/428 427/427/427
f 432/432/432 431/431/431 430/430/430
f 435/435/435 434/434/434 433/433/433
f 436/436/436 433/433/433 434/434/434
f 439/439/439 438/438/438 437/437/437
f 440/440/440 437/437/437 438/438/438
f 443/443/443 442/442/442 441/441/441
f 444/444/444 441/441/441 442/442/442
f 447/447/447 446/446/446 445/445/445
f 448/448/448 445/445/445 446/446/446
f 451/451/451 450/450/450 449/449/449
f 452/452/452 449/449/449 450/450/450
f 455/455/455 454/454/454 453/453/453
f 456/456/456 453/453/453 454/454/454
f 459/459/459 458/458/458 457/457/457
f 460/460/460 457/457/457 458/458/458
f 460/460/460 461/461/461 457/457/457
f 462/462/462 457/457/457 461/461/461
f 461/461/461 463/463/463 462/462/462
f 464/464/464 462/462/462 463/463/463
f 464/464/464 463/463/463 465/465/465
f 466/466/466 465/465/465 463/463/463
f 469/469/469 468/468/468 467/467/467
f 470/470/470 467/467/467 468/468/468
f 470/470/470 468/468/468 471/471/471
f 472/472/472 471/471/471 468/468/468
f 471/471/471 472/472/472 473/473/473
f 474/474/474 473/473/473 472/472/472
f 474/474/474 475/475/475 473/473/473
f 476/476/476 473/473/473 475/475/475
