g DSJ_GTA_gaoLou_11
v -16.70155 2.259945 15.92986
v -18.57565 2.259945 17.47324
v -16.48107 2.259945 -16.48107
v 17.03228 2.259945 -16.15034
v 18.68589 2.259945 -17.69373
v 16.81179 2.259945 16.15034
v -15.04794 40.73415 -14.93769
v -15.15817 40.73415 14.49673
v -16.48107 40.73415 -16.48107
v 17.03228 40.73415 -16.15034
v 15.37866 40.73415 -14.71721
v -16.48107 40.73415 -16.48107
v 15.26842 40.73415 14.71721
v 15.37866 40.73415 -14.71721
v 16.81179 40.73415 16.15034
v -16.70155 40.73415 15.92986
v -15.15817 40.73415 14.49673
v 16.81179 40.73415 16.15034
v 18.68589 2.259945 -17.69373
v -18.24493 2.259945 -18.02445
v 18.68589 -50.43538 -17.69373
v -18.24493 -50.43538 -18.02445
v -18.24493 2.259945 -18.02445
v -18.57565 2.259945 17.47324
v -18.24493 -50.43538 -18.02445
v -18.57565 -50.43538 17.47324
v -18.57565 2.259945 17.47324
v 18.35517 2.259945 17.91421
v -18.57565 -50.43538 17.47324
v 18.35517 -50.43538 17.91421
v 18.35517 2.259945 17.91421
v 18.68589 2.259945 -17.69373
v 18.35517 -50.43538 17.91421
v 18.68589 -50.43538 -17.69373
v -15.15817 56.38841 14.49673
v -15.04794 56.27818 -14.93769
v 15.26842 56.38841 14.71721
v 15.37866 56.27818 -14.71721
v 18.68589 2.259945 -17.69373
v 17.03228 2.259945 -16.15034
v -18.24493 2.259945 -18.02445
v -16.48107 2.259945 -16.48107
v -18.57565 2.259945 17.47324
v -18.57565 2.259945 17.47324
v -16.70155 2.259945 15.92986
v 18.35517 2.259945 17.91421
v 16.81179 2.259945 16.15034
v 18.68589 2.259945 -17.69373
v 17.363 -50.43538 -16.59131
v 18.68589 -50.43538 -17.69373
v -16.8118 -50.43538 -16.81179
v -18.24493 -50.43538 -18.02445
v -16.8118 -50.43538 -16.81179
v -18.24493 -50.43538 -18.02445
v -17.03228 -50.43538 16.26059
v -18.57565 -50.43538 17.47324
v -17.03228 -50.43538 16.26059
v -18.57565 -50.43538 17.47324
v 17.14252 -50.43538 16.48107
v 18.35517 -50.43538 17.91421
v 17.14252 -50.43538 16.48107
v 18.35517 -50.43538 17.91421
v 17.363 -50.43538 -16.59131
v 18.68589 -50.43538 -17.69373
v 16.81179 40.73415 16.15034
v 15.37866 40.73415 -14.71721
v 17.03228 40.73415 -16.15034
v -16.48107 40.73415 -16.48107
v -15.15817 40.73415 14.49673
v -16.70155 40.73415 15.92986
v 15.37866 56.27818 -14.71721
v -15.04794 56.27818 -14.93769
v 15.37866 40.73415 -14.71721
v -15.04794 40.73415 -14.93769
v -16.48107 2.259945 -16.48107
v 17.03228 2.259945 -16.15034
v -16.48107 40.73415 -16.48107
v 17.03228 40.73415 -16.15034
v -15.04794 56.27818 -14.93769
v -15.15817 56.38841 14.49673
v -15.04794 40.73415 -14.93769
v -15.15817 40.73415 14.49673
v -16.70155 2.259945 15.92986
v -16.48107 2.259945 -16.48107
v -16.70155 40.73415 15.92986
v -16.48107 40.73415 -16.48107
v -15.15817 56.38841 14.49673
v 15.26842 56.38841 14.71721
v -15.15817 40.73415 14.49673
v 15.26842 40.73415 14.71721
v 16.81179 2.259945 16.15034
v -16.70155 2.259945 15.92986
v 16.81179 40.73415 16.15034
v -16.70155 40.73415 15.92986
v 15.26842 56.38841 14.71721
v 15.37866 56.27818 -14.71721
v 15.26842 40.73415 14.71721
v 15.37866 40.73415 -14.71721
v 17.03228 2.259945 -16.15034
v 16.81179 2.259945 16.15034
v 17.03228 40.73415 -16.15034
v 16.81179 40.73415 16.15034
v -16.8118 -56.38841 -16.81179
v 17.363 -56.38841 -16.59131
v -16.8118 -50.43538 -16.81179
v 17.363 -50.43538 -16.59131
v -17.03228 -56.38841 16.26059
v -16.8118 -56.38841 -16.81179
v -17.03228 -50.43538 16.26059
v -16.8118 -50.43538 -16.81179
v 17.14252 -56.38841 16.48107
v -17.03228 -56.38841 16.26059
v 17.14252 -50.43538 16.48107
v 17.14252 -50.43538 16.48107
v -17.03228 -56.38841 16.26059
v -17.03228 -50.43538 16.26059
v 17.363 -56.38841 -16.59131
v 17.14252 -56.38841 16.48107
v 17.363 -50.43538 -16.59131
v 17.14252 -50.43538 16.48107
vt 0.6795311 0.3513491
vt 0.6833472 0.3551651
vt 0.6795311 0.3399008
vt 0.671899 0.3399008
vt 0.671899 0.3360848
vt 0.671899 0.3513491
vt 0.6795311 0.3437169
vt 0.6795311 0.347533
vt 0.6795311 0.3399008
vt 0.671899 0.3399008
vt 0.675715 0.3437169
vt 0.6795311 0.3399008
vt 0.675715 0.347533
vt 0.675715 0.3437169
vt 0.671899 0.3513491
vt 0.6795311 0.3513491
vt 0.6795311 0.347533
vt 0.671899 0.3513491
vt 0.6261061 0.2902919
vt 0.7215079 0.2902919
vt 0.6261061 0.4810954
vt 0.7215079 0.4810954
vt 0.7215079 0.2902919
vt 0.6261061 0.2902919
vt 0.7215079 0.4810954
vt 0.6261061 0.4810954
vt 0.6261061 0.2902919
vt 0.7215079 0.2902919
vt 0.6261061 0.4810954
vt 0.7215079 0.4810954
vt 0.7215079 0.2902919
vt 0.6261061 0.2902919
vt 0.7215079 0.4810954
vt 0.6261061 0.4810954
vt 0.6871633 0.2826598
vt 0.6871633 0.2826598
vt 0.6833472 0.2826598
vt 0.6833472 0.2826598
vt 0.671899 0.3360848
vt 0.671899 0.3399008
vt 0.6833472 0.3360848
vt 0.6795311 0.3399008
vt 0.6833472 0.3551651
vt 0.6833472 0.3551651
vt 0.6795311 0.3513491
vt 0.671899 0.3551651
vt 0.671899 0.3513491
vt 0.671899 0.3360848
vt 0.6261061 0.2864758
vt 0.6261061 0.2902919
vt 0.7215079 0.2864758
vt 0.7215079 0.2902919
vt 0.7215079 0.2864758
vt 0.7215079 0.2902919
vt 0.6261061 0.2864758
vt 0.6261061 0.2902919
vt 0.6261061 0.2864758
vt 0.6261061 0.2902919
vt 0.7215079 0.2864758
vt 0.7215079 0.2902919
vt 0.7215079 0.2864758
vt 0.7215079 0.2902919
vt 0.6261061 0.2864758
vt 0.6261061 0.2902919
vt 0.671899 0.3513491
vt 0.675715 0.3437169
vt 0.671899 0.3399008
vt 0.6795311 0.3399008
vt 0.6795311 0.347533
vt 0.6795311 0.3513491
vt 0.6261061 0.4925437
vt 0.7215079 0.4925437
vt 0.6261061 0.4353026
vt 0.7215079 0.4353026
vt 0.7215079 0.294108
vt 0.6261061 0.294108
vt 0.7215079 0.4314865
vt 0.6261061 0.4314865
vt 0.7215079 0.4925437
vt 0.6261061 0.4925437
vt 0.7215079 0.4353026
vt 0.6261061 0.4353026
vt 0.6261061 0.294108
vt 0.7215079 0.294108
vt 0.6261061 0.4314865
vt 0.7215079 0.4314865
vt 0.6261061 0.4925437
vt 0.7215079 0.4925437
vt 0.6261061 0.4353026
vt 0.7215079 0.4353026
vt 0.7215079 0.294108
vt 0.6261061 0.294108
vt 0.7215079 0.4314865
vt 0.6261061 0.4314865
vt 0.7215079 0.4925437
vt 0.6261061 0.4925437
vt 0.7215079 0.4353026
vt 0.6261061 0.4353026
vt 0.6261061 0.294108
vt 0.7215079 0.294108
vt 0.6261061 0.4314865
vt 0.7215079 0.4314865
vt 0.7558525 0.618474
vt 0.3780615 0.618474
vt 0.7558525 0.7444043
vt 0.3780615 0.7444043
vt 0.3704294 0.618474
vt 0.01171875 0.618474
vt 0.3704294 0.7444043
vt 0.01171875 0.7444043
vt 0.7558525 0.618474
vt 0.3780615 0.618474
vt 0.7558525 0.7444043
vt 0.7558525 0.7444043
vt 0.3780615 0.618474
vt 0.3780615 0.7444043
vt 0.3704294 0.618474
vt 0.01171875 0.618474
vt 0.3704294 0.7444043
vt 0.01171875 0.7444043
vn 0.01587099 0.9681323 0.2499361
vn 0.01587099 0.9681323 0.2499361
vn 0.01587099 0.9681323 0.2499361
vn 0.01587099 0.9681323 -0.2499361
vn 0.01587099 0.9681323 -0.2499361
vn 0.01587099 0.9681323 -0.2499361
vn 0.01587099 0.9681323 -0.2499361
vn 0.01587099 0.9681323 -0.2499361
vn 0.01587099 0.9681323 -0.2499361
vn 0.01587099 0.9681323 -0.2499361
vn 0.01587099 0.9681323 -0.2499361
vn 0.01587099 0.9681323 -0.2499361
vn 0.01587099 0.9681323 0.2499361
vn 0.01587099 0.9681323 0.2499361
vn 0.01587099 0.9681323 0.2499361
vn 0.01587099 0.9681323 0.2499361
vn 0.01587099 0.9681323 0.2499361
vn 0.01587099 0.9681323 0.2499361
vn 0.01587099 -0.01587099 -0.9997481
vn 0.01587099 -0.01587099 -0.9997481
vn 0.01587099 -0.01587099 -0.9997481
vn 0.01587099 -0.01587099 -0.9997481
vn -0.9681323 -0.01587099 -0.2499361
vn -0.9681323 -0.01587099 -0.2499361
vn -0.9681323 -0.01587099 -0.2499361
vn -0.9681323 -0.01587099 -0.2499361
vn 0.01587099 -0.01587099 0.9997481
vn 0.01587099 -0.01587099 0.9997481
vn 0.01587099 -0.01587099 0.9997481
vn 0.01587099 -0.01587099 0.9997481
vn 0.9998741 -0.01587099 0
vn 0.9998741 -0.01587099 0
vn 0.9998741 -0.01587099 0
vn 0.9998741 -0.01587099 0
vn 0.01587099 0.9998741 0
vn 0.01587099 0.9998741 0
vn 0.01587099 0.9998741 0
vn 0.01587099 0.9998741 0
vn 0.01587099 0.9681323 0.2499361
vn 0.01587099 0.9681323 0.2499361
vn 0.01587099 0.9681323 0.2499361
vn 0.01587099 0.9681323 0.2499361
vn 0.01587099 0.9681323 0.2499361
vn 0.01587099 0.9681323 -0.2499361
vn 0.01587099 0.9681323 -0.2499361
vn 0.01587099 0.9681323 -0.2499361
vn 0.01587099 0.9681323 -0.2499361
vn 0.01587099 0.9681323 -0.2499361
vn 0.01587099 -0.9998741 0
vn 0.01587099 -0.9998741 0
vn 0.01587099 -0.9998741 0
vn 0.01587099 -0.9998741 0
vn -0.01587105 -0.9998741 0
vn -0.01587105 -0.9998741 0
vn -0.01587105 -0.9998741 0
vn -0.01587105 -0.9998741 0
vn 0.01587099 -0.9998741 0
vn 0.01587099 -0.9998741 0
vn 0.01587099 -0.9998741 0
vn 0.01587099 -0.9998741 0
vn 0.04756512 -0.9988682 0
vn 0.04756512 -0.9988682 0
vn 0.04756512 -0.9988682 0
vn 0.04756512 -0.9988682 0
vn 0.01587099 0.9681323 0.2499361
vn 0.01587099 0.9681323 -0.2499361
vn 0.01587099 0.9681323 -0.2499361
vn 0.01587099 0.9681323 -0.2499361
vn 0.01587099 0.9681323 0.2499361
vn 0.01587099 0.9681323 0.2499361
vn 0.01587099 -0.01587099 -0.9997481
vn 0.01587099 -0.01587099 -0.9997481
vn 0.01587099 -0.01587099 -0.9997481
vn 0.01587099 -0.01587099 -0.9997481
vn 0.01587099 -0.01587099 -0.9997481
vn 0.01587099 -0.01587099 -0.9997481
vn 0.01587099 -0.01587099 -0.9997481
vn 0.01587099 -0.01587099 -0.9997481
vn -0.9681323 -0.01587099 -0.2499361
vn -0.9681323 -0.01587099 -0.2499361
vn -0.9681323 -0.01587099 -0.2499361
vn -0.9681323 -0.01587099 -0.2499361
vn -0.9681323 -0.01587099 -0.2499361
vn -0.9681323 -0.01587099 -0.2499361
vn -0.9681323 -0.01587099 -0.2499361
vn -0.9681323 -0.01587099 -0.2499361
vn 0.01587099 -0.01587099 0.9997481
vn 0.01587099 -0.01587099 0.9997481
vn 0.01587099 -0.01587099 0.9997481
vn 0.01587099 -0.01587099 0.9997481
vn 0.01587099 -0.01587099 0.9997481
vn 0.01587099 -0.01587099 0.9997481
vn 0.01587099 -0.01587099 0.9997481
vn 0.01587099 -0.01587099 0.9997481
vn 0.9998741 -0.01587099 0
vn 0.9998741 -0.01587099 0
vn 0.9998741 -0.01587099 0
vn 0.9998741 -0.01587099 0
vn 0.9998741 -0.01587099 0
vn 0.9998741 -0.01587099 0
vn 0.9998741 -0.01587099 0
vn 0.9998741 -0.01587099 0
vn 0.01587099 -0.01587099 -0.9997481
vn 0.01587099 -0.01587099 -0.9997481
vn 0.01587099 -0.01587099 -0.9997481
vn 0.01587099 -0.01587099 -0.9997481
vn -0.9681323 -0.01587099 -0.2499361
vn -0.9681323 -0.01587099 -0.2499361
vn -0.9681323 -0.01587099 -0.2499361
vn -0.9681323 -0.01587099 -0.2499361
vn 0.01587099 -0.01587099 0.9997481
vn 0.01587099 -0.01587099 0.9997481
vn 0.01587099 -0.01587099 0.9997481
vn 0.01587099 -0.01587099 0.9997481
vn 0.01587099 -0.01587099 0.9997481
vn 0.01587099 -0.01587099 0.9997481
vn 0.9998741 -0.01587099 0
vn 0.9998741 -0.01587099 0
vn 0.9998741 -0.01587099 0
vn 0.9998741 -0.01587099 0
g DSJ_GTA_gaoLou_11_0
f 3/3/3 2/2/2 1/1/1
f 6/6/6 5/5/5 4/4/4
f 9/9/9 8/8/8 7/7/7
f 7/7/7 11/11/11 10/10/10
f 12/12/12 7/7/7 10/10/10
f 15/15/15 14/14/14 13/13/13
f 13/13/13 17/17/17 16/16/16
f 18/18/18 13/13/13 16/16/16
f 21/21/21 20/20/20 19/19/19
f 22/22/22 20/20/20 21/21/21
f 25/25/25 24/24/24 23/23/23
f 26/26/26 24/24/24 25/25/25
f 29/29/29 28/28/28 27/27/27
f 30/30/30 28/28/28 29/29/29
f 33/33/33 32/32/32 31/31/31
f 34/34/34 32/32/32 33/33/33
f 37/37/37 36/36/36 35/35/35
f 38/38/38 36/36/36 37/37/37
f 41/41/41 40/40/40 39/39/39
f 42/42/42 40/40/40 41/41/41
f 43/43/43 42/42/42 41/41/41
f 46/46/46 45/45/45 44/44/44
f 47/47/47 45/45/45 46/46/46
f 48/48/48 47/47/47 46/46/46
f 51/51/51 50/50/50 49/49/49
f 52/52/52 50/50/50 51/51/51
f 55/55/55 54/54/54 53/53/53
f 56/56/56 54/54/54 55/55/55
f 59/59/59 58/58/58 57/57/57
f 60/60/60 58/58/58 59/59/59
f 63/63/63 62/62/62 61/61/61
f 64/64/64 62/62/62 63/63/63
f 67/67/67 66/66/66 65/65/65
f 70/70/70 69/69/69 68/68/68
f 73/73/73 72/72/72 71/71/71
f 74/74/74 72/72/72 73/73/73
f 77/77/77 76/76/76 75/75/75
f 78/78/78 76/76/76 77/77/77
f 81/81/81 80/80/80 79/79/79
f 82/82/82 80/80/80 81/81/81
f 85/85/85 84/84/84 83/83/83
f 86/86/86 84/84/84 85/85/85
f 89/89/89 88/88/88 87/87/87
f 90/90/90 88/88/88 89/89/89
f 93/93/93 92/92/92 91/91/91
f 94/94/94 92/92/92 93/93/93
f 97/97/97 96/96/96 95/95/95
f 98/98/98 96/96/96 97/97/97
f 101/101/101 100/100/100 99/99/99
f 102/102/102 100/100/100 101/101/101
f 105/105/105 104/104/104 103/103/103
f 106/106/106 104/104/104 105/105/105
f 109/109/109 108/108/108 107/107/107
f 110/110/110 108/108/108 109/109/109
f 113/113/113 112/112/112 111/111/111
f 116/116/116 115/115/115 114/114/114
f 119/119/119 118/118/118 117/117/117
f 120/120/120 118/118/118 119/119/119
