g DSJ_GTA_daoJu_gongYe_01
v 1.614438 0.04040432 1.614409
v 1.292729 23.38741 -1.454353E-05
v 2.283147 0.04040432 -1.454353E-05
v 0.9140998 23.38741 0.9140708
v 0.9140754 23.38741 -0.9140998
v 1.614438 0.04040432 -1.614438
v 1.454353E-05 23.38741 -1.292704
v 1.454353E-05 0.04040432 -2.283147
v -0.9140708 23.38741 -0.9140998
v -1.614409 0.04040432 -1.614438
v -1.2927 23.38741 -1.454353E-05
v -2.283118 0.04040432 -1.454353E-05
v -0.9140463 23.38741 0.9140708
v -1.614409 0.04040432 1.614409
v 1.454353E-05 23.38741 1.292675
v 1.454353E-05 0.04040432 2.283118
v 0.9140998 23.38741 0.9140708
v 1.614438 0.04040432 1.614409
vt 0.5761293 0.7446707
vt 0.5965257 0.9902102
vt 0.5965257 0.7446707
vt 0.5761293 0.9902102
vt 0.616922 0.9902102
vt 0.616922 0.7446707
vt 0.6373309 0.9902102
vt 0.6373309 0.7446707
vt 0.6577526 0.9902102
vt 0.6577526 0.7446707
vt 0.6781489 0.9902102
vt 0.6781489 0.7446707
vt 0.6985579 0.9902102
vt 0.6985579 0.7446707
vt 0.7189795 0.9902102
vt 0.7189795 0.7446707
vt 0.7393758 0.9902102
vt 0.7393758 0.7446707
vn 0.7170022 0.03526235 0.6961785
vn 0.9991014 0.03526235 -0.0235145
vn 0.9991014 0.03526235 -0.0235145
vn 0.7170022 0.03526235 0.6961785
vn 0.7170022 0.03526235 -0.6961785
vn 0.7170022 0.03526235 -0.6961785
vn 0.003918052 0.03526235 -0.9993704
vn 0.003918052 0.03526235 -0.9993704
vn -0.7013299 0.03526235 -0.7119641
vn -0.7013299 0.03526235 -0.7119641
vn -0.9991014 0.03526235 0.0235145
vn -0.9991014 0.03526235 0.0235145
vn -0.7013299 0.03526235 0.7119641
vn -0.7013299 0.03526235 0.7119641
vn 0.003918052 0.03526235 0.9993704
vn 0.003918052 0.03526235 0.9993704
vn 0.7170022 0.03526235 0.6961785
vn 0.7170022 0.03526235 0.6961785
g DSJ_GTA_daoJu_gongYe_01_0
f 3/3/3 2/2/2 1/1/1
f 2/2/2 4/4/4 1/1/1
f 5/5/5 2/2/2 3/3/3
f 6/6/6 5/5/5 3/3/3
f 7/7/7 5/5/5 6/6/6
f 8/8/8 7/7/7 6/6/6
f 9/9/9 7/7/7 8/8/8
f 10/10/10 9/9/9 8/8/8
f 11/11/11 9/9/9 10/10/10
f 12/12/12 11/11/11 10/10/10
f 13/13/13 11/11/11 12/12/12
f 14/14/14 13/13/13 12/12/12
f 15/15/15 13/13/13 14/14/14
f 16/16/16 15/15/15 14/14/14
f 17/17/17 15/15/15 16/16/16
f 18/18/18 17/17/17 16/16/16
