g DSJ_GTA_daoJu_xiangZi_07
v 2 0.0112977 -0.8500048
v -2.000001 0.0112977 0.8499942
v 2 0.0112977 0.8499942
v -1.999997 0.0112977 -0.8500086
v 2 1.73457 -0.8500048
v -2.000001 1.73457 0.8499942
v -1.999997 1.73457 -0.8500086
v 2 1.73457 0.8499942
v 2 1.73457 0.8499942
v -2.000001 0.0112977 0.8499942
v -2.000001 1.73457 0.8499942
v 2 0.0112977 0.8499942
v 2 1.73457 -0.8500048
v 2 0.0112977 0.8499942
v 2 1.73457 0.8499942
v 2 0.0112977 -0.8500048
v -1.999997 1.73457 -0.8500086
v 2 0.0112977 -0.8500048
v 2 1.73457 -0.8500048
v -1.999997 0.0112977 -0.8500086
v -2.000001 1.73457 0.8499942
v -1.999997 0.0112977 -0.8500086
v -1.999997 1.73457 -0.8500086
v -2.000001 0.0112977 0.8499942
vt 0.4987226 0.997743
vt 0.7700381 0.9231914
vt 0.4987226 0.9231914
vt 0.7700381 0.997743
vt 0.7700381 0.997743
vt 0.4987226 0.9231914
vt 0.4987226 0.997743
vt 0.7700381 0.9231914
vt 0.7700381 0.997743
vt 0.4987226 0.9231914
vt 0.4987226 0.997743
vt 0.7700381 0.9231914
vt 0.8291155 0.9995158
vt 0.7738436 0.9424254
vt 0.7738436 0.9995158
vt 0.8291155 0.9424254
vt 0.7700381 0.997743
vt 0.4987226 0.9231914
vt 0.4987226 0.997743
vt 0.7700381 0.9231914
vt 0.8869931 0.938574
vt 0.8312246 0.8814834
vt 0.8312246 0.938574
vt 0.8869931 0.8814834
vn 0.003921568 -0.9999924 0
vn 0.003921568 -0.9999924 0
vn 0.003921568 -0.9999924 0
vn 0.003921568 -0.9999924 0
vn 0.003921568 0.9999923 -0.000345267
vn 0.003921568 0.9999923 -0.000345267
vn 0.003921568 0.9999923 -0.000345267
vn 0.003921568 0.9999923 -0.000345267
vn 0.01176465 -0.01176465 0.9998616
vn 0.01176465 -0.01176465 0.9998616
vn 0.01176465 -0.01176465 0.9998616
vn 0.01176465 -0.01176465 0.9998616
vn 0.9999924 -0.003921568 0
vn 0.9999924 -0.003921568 0
vn 0.9999924 -0.003921568 0
vn 0.9999924 -0.003921568 0
vn 0.01176465 -0.01176465 -0.9998616
vn 0.01176465 -0.01176465 -0.9998616
vn 0.01176465 -0.01176465 -0.9998616
vn 0.01176465 -0.01176465 -0.9998616
vn -0.9999923 -0.003921568 -0.0003442513
vn -0.9999923 -0.003921568 -0.0003442513
vn -0.9999923 -0.003921568 -0.0003442513
vn -0.9999923 -0.003921568 -0.0003442513
g DSJ_GTA_daoJu_xiangZi_07_0
f 3/3/3 2/2/2 1/1/1
f 4/4/4 1/1/1 2/2/2
f 7/7/7 6/6/6 5/5/5
f 8/8/8 5/5/5 6/6/6
f 11/11/11 10/10/10 9/9/9
f 12/12/12 9/9/9 10/10/10
f 15/15/15 14/14/14 13/13/13
f 16/16/16 13/13/13 14/14/14
f 19/19/19 18/18/18 17/17/17
f 20/20/20 17/17/17 18/18/18
f 23/23/23 22/22/22 21/21/21
f 24/24/24 21/21/21 22/22/22
