g DSJ_GTA_daoJu_gongYe_07
v -0.6857753 0.0451088 4.902783
v 2.245878 1.959459 5.548279
v 1.857494 0.0451088 4.588804
v -0.8291531 1.959459 5.927875
v 1.857494 0.0451088 4.588804
v 4.719136 1.959459 3.682007
v 3.903065 0.0451088 3.045287
v 2.245878 1.959459 5.548279
v 3.903065 0.0451088 3.045287
v 5.927896 1.959459 0.8291402
v 4.902804 0.0451088 0.6857753
v 4.719136 1.959459 3.682007
v 4.902804 0.0451088 0.6857753
v 5.5483 1.959459 -2.245891
v 4.588851 0.0451088 -1.857507
v 5.927896 1.959459 0.8291402
v 4.588851 0.0451088 -1.857507
v 3.682028 1.959459 -4.719136
v 3.045308 0.0451088 -3.903065
v 5.5483 1.959459 -2.245891
v 3.045308 0.0451088 -3.903065
v 0.8291869 1.959459 -5.927896
v 0.6857963 0.0451088 -4.902804
v 3.682028 1.959459 -4.719136
v 0.6857963 0.0451088 -4.902804
v -2.24587 1.959459 -5.5483
v -1.857486 0.0451088 -4.588851
v 0.8291869 1.959459 -5.927896
v -1.857486 0.0451088 -4.588851
v -4.719115 1.959459 -3.682041
v -3.903044 0.0451088 -3.045308
v -2.24587 1.959459 -5.5483
v -3.903044 0.0451088 -3.045308
v -5.927875 1.959459 -0.8291869
v -4.902796 0.0451088 -0.6858091
v -4.719115 1.959459 -3.682041
v -4.902796 0.0451088 -0.6858091
v -5.548291 1.959459 2.24587
v -4.588817 0.0451088 1.85746
v -5.927875 1.959459 -0.8291869
v -4.588817 0.0451088 1.85746
v -3.682007 1.959459 4.719115
v -3.045287 0.0451088 3.903031
v -5.548291 1.959459 2.24587
v -3.045287 0.0451088 3.903031
v -0.8291531 1.959459 5.927875
v -0.6857753 0.0451088 4.902783
v -3.682007 1.959459 4.719115
v -0.8291531 7.505148 5.927875
v 2.336502E-05 7.505148 -2.336502E-05
v 2.245878 7.505148 5.548279
v 2.245878 7.505148 5.548279
v 2.336502E-05 7.505148 -2.336502E-05
v 4.719136 7.505148 3.682007
v 4.719136 7.505148 3.682007
v 2.336502E-05 7.505148 -2.336502E-05
v 5.927896 7.505148 0.8291402
v 5.927896 7.505148 0.8291402
v 2.336502E-05 7.505148 -2.336502E-05
v 5.5483 7.505148 -2.245891
v 5.5483 7.505148 -2.245891
v 2.336502E-05 7.505148 -2.336502E-05
v 3.682028 7.505148 -4.719136
v 3.682028 7.505148 -4.719136
v 2.336502E-05 7.505148 -2.336502E-05
v 0.8291869 7.505148 -5.927896
v 0.8291869 7.505148 -5.927896
v 2.336502E-05 7.505148 -2.336502E-05
v -2.24587 7.505148 -5.5483
v -2.24587 7.505148 -5.5483
v 2.336502E-05 7.505148 -2.336502E-05
v -4.719115 7.505148 -3.682041
v -4.719115 7.505148 -3.682041
v 2.336502E-05 7.505148 -2.336502E-05
v -5.927875 7.505148 -0.8291869
v -5.927875 7.505148 -0.8291869
v 2.336502E-05 7.505148 -2.336502E-05
v -5.548291 7.505148 2.24587
v -5.548291 7.505148 2.24587
v 2.336502E-05 7.505148 -2.336502E-05
v -3.682007 7.505148 4.719115
v -3.682007 7.505148 4.719115
v 2.336502E-05 7.505148 -2.336502E-05
v -0.8291531 7.505148 5.927875
v 5.927896 1.959459 0.8291402
v 5.5483 7.505148 -2.245891
v 5.5483 1.959459 -2.245891
v 5.927896 7.505148 0.8291402
v 4.719136 1.959459 3.682007
v 5.927896 7.505148 0.8291402
v 5.927896 1.959459 0.8291402
v 4.719136 7.505148 3.682007
v 2.245878 1.959459 5.548279
v 4.719136 7.505148 3.682007
v 4.719136 1.959459 3.682007
v 2.245878 7.505148 5.548279
v -0.8291531 1.959459 5.927875
v 2.245878 7.505148 5.548279
v 2.245878 1.959459 5.548279
v -0.8291531 7.505148 5.927875
v -3.682007 1.959459 4.719115
v -0.8291531 7.505148 5.927875
v -0.8291531 1.959459 5.927875
v -3.682007 7.505148 4.719115
v -5.548291 1.959459 2.24587
v -3.682007 7.505148 4.719115
v -3.682007 1.959459 4.719115
v -5.548291 7.505148 2.24587
v -5.927875 1.959459 -0.8291869
v -5.548291 7.505148 2.24587
v -5.548291 1.959459 2.24587
v -5.927875 7.505148 -0.8291869
v -4.719115 1.959459 -3.682041
v -5.927875 7.505148 -0.8291869
v -5.927875 1.959459 -0.8291869
v -4.719115 7.505148 -3.682041
v -2.24587 1.959459 -5.5483
v -4.719115 7.505148 -3.682041
v -4.719115 1.959459 -3.682041
v -2.24587 7.505148 -5.5483
v 0.8291869 1.959459 -5.927896
v -2.24587 7.505148 -5.5483
v -2.24587 1.959459 -5.5483
v 0.8291869 7.505148 -5.927896
v 3.682028 1.959459 -4.719136
v 0.8291869 7.505148 -5.927896
v 0.8291869 1.959459 -5.927896
v 3.682028 7.505148 -4.719136
v 5.5483 1.959459 -2.245891
v 3.682028 7.505148 -4.719136
v 3.682028 1.959459 -4.719136
v 5.5483 7.505148 -2.245891
vt 0.4160014 0.5016864
vt 0.4822262 0.5439304
vt 0.4822262 0.5016864
vt 0.4160014 0.5439304
vt 0.4822262 0.5016864
vt 0.4160014 0.5439304
vt 0.4160014 0.5016864
vt 0.4822262 0.5439304
vt 0.4160014 0.5016864
vt 0.4822262 0.5439304
vt 0.4822262 0.5016864
vt 0.4160014 0.5439304
vt 0.4822262 0.5016864
vt 0.4160014 0.5439304
vt 0.4160014 0.5016864
vt 0.4822262 0.5439304
vt 0.4160014 0.5016864
vt 0.4822262 0.5439304
vt 0.4822262 0.5016864
vt 0.4160014 0.5439304
vt 0.4822262 0.5016864
vt 0.4160014 0.5439304
vt 0.4160014 0.5016864
vt 0.4822262 0.5439304
vt 0.4160014 0.5016864
vt 0.4822262 0.5439304
vt 0.4822262 0.5016864
vt 0.4160014 0.5439304
vt 0.4822262 0.5016864
vt 0.4160014 0.5439304
vt 0.4160014 0.5016864
vt 0.4822262 0.5439304
vt 0.4160014 0.5016864
vt 0.4822262 0.5439304
vt 0.4822262 0.5016864
vt 0.4160014 0.5439304
vt 0.4822262 0.5016864
vt 0.4160014 0.5439304
vt 0.4160014 0.5016864
vt 0.4822262 0.5439304
vt 0.4160014 0.5016864
vt 0.4822262 0.5439304
vt 0.4822262 0.5016864
vt 0.4160014 0.5439304
vt 0.4822262 0.5016864
vt 0.4160014 0.5439304
vt 0.4160014 0.5016864
vt 0.4822262 0.5439304
vt 0.4215615 0.542056
vt 0.4477553 0.4440302
vt 0.4740908 0.5420088
vt 0.4740908 0.5420088
vt 0.4477553 0.4440302
vt 0.4215615 0.542056
vt 0.4215615 0.542056
vt 0.4477553 0.4440302
vt 0.4740908 0.5420088
vt 0.4740908 0.5420088
vt 0.4477553 0.4440302
vt 0.4215615 0.542056
vt 0.4215615 0.542056
vt 0.4477553 0.4440302
vt 0.4740908 0.5420088
vt 0.4740908 0.5420088
vt 0.4477553 0.4440302
vt 0.4215615 0.542056
vt 0.4215615 0.542056
vt 0.4477553 0.4440302
vt 0.4740908 0.5420088
vt 0.4740908 0.5420088
vt 0.4477553 0.4440302
vt 0.4215615 0.542056
vt 0.4215615 0.542056
vt 0.4477553 0.4440302
vt 0.4740908 0.5420088
vt 0.4740908 0.5420088
vt 0.4477553 0.4440302
vt 0.4215615 0.542056
vt 0.4215615 0.542056
vt 0.4477553 0.4440302
vt 0.4740908 0.5420088
vt 0.4740908 0.5420088
vt 0.4477553 0.4440302
vt 0.4215615 0.542056
vt 0.4822262 0.4226641
vt 0.4160014 0.5450251
vt 0.4160014 0.4226641
vt 0.4822262 0.5450251
vt 0.4160014 0.4226641
vt 0.4822262 0.5450251
vt 0.4822262 0.4226641
vt 0.4160014 0.5450251
vt 0.4822262 0.4226641
vt 0.4160014 0.5450251
vt 0.4160014 0.4226641
vt 0.4822262 0.5450251
vt 0.4160014 0.4226641
vt 0.4822262 0.5450251
vt 0.4822262 0.4226641
vt 0.4160014 0.5450251
vt 0.4822262 0.4226641
vt 0.4160014 0.5450251
vt 0.4160014 0.4226641
vt 0.4822262 0.5450251
vt 0.4160014 0.4226641
vt 0.4822262 0.5450251
vt 0.4822262 0.4226641
vt 0.4160014 0.5450251
vt 0.4822262 0.4226641
vt 0.4160014 0.5450251
vt 0.4160014 0.4226641
vt 0.4822262 0.5450251
vt 0.4160014 0.4226641
vt 0.4822262 0.5450251
vt 0.4822262 0.4226641
vt 0.4160014 0.5450251
vt 0.4822262 0.4226641
vt 0.4160014 0.5450251
vt 0.4160014 0.4226641
vt 0.4822262 0.5450251
vt 0.4160014 0.4226641
vt 0.4822262 0.5450251
vt 0.4822262 0.4226641
vt 0.4160014 0.5450251
vt 0.4822262 0.4226641
vt 0.4160014 0.5450251
vt 0.4160014 0.4226641
vt 0.4822262 0.5450251
vt 0.4160014 0.4226641
vt 0.4822262 0.5450251
vt 0.4822262 0.4226641
vt 0.4160014 0.5450251
vn -0.1179846 -0.4830185 0.8676248
vn 0.36594 -0.2410562 0.898877
vn 0.334719 -0.4830185 0.8091083
vn -0.133595 -0.2410562 0.9612722
vn 0.334719 -0.4830185 0.8091083
vn 0.7718122 -0.2410562 0.5883858
vn 0.6937598 -0.4830185 0.5342195
vn 0.36594 -0.2410562 0.898877
vn 0.6937598 -0.4830185 0.5342195
vn 0.9669431 -0.2410562 0.08314447
vn 0.8732802 -0.4830185 0.06383379
vn 0.7718122 -0.2410562 0.5883858
vn 0.8732802 -0.4830185 0.06383379
vn 0.9045012 -0.2410562 -0.3518088
vn 0.8186436 -0.4830185 -0.31067
vn 0.9669431 -0.2410562 0.08314447
vn 0.8186436 -0.4830185 -0.31067
vn 0.6000971 -0.2410562 -0.762742
vn 0.5454603 -0.4830185 -0.684957
vn 0.9045012 -0.2410562 -0.3518088
vn 0.5454603 -0.4830185 -0.684957
vn 0.1395882 -0.2410562 -0.9604203
vn 0.1239777 -0.4830185 -0.8667887
vn 0.6000971 -0.2410562 -0.762742
vn 0.1239777 -0.4830185 -0.8667887
vn -0.3599469 -0.2410562 -0.9012936
vn -0.328726 -0.4830185 -0.8115616
vn 0.1395882 -0.2410562 -0.9604203
vn -0.328726 -0.4830185 -0.8115616
vn -0.7658191 -0.2410562 -0.5961652
vn -0.6877667 -0.4830185 -0.5419133
vn -0.3599469 -0.2410562 -0.9012936
vn -0.6877667 -0.4830185 -0.5419133
vn -0.96095 -0.2410562 -0.1358936
vn -0.8672872 -0.4830185 -0.1204408
vn -0.7658191 -0.2410562 -0.5961652
vn -0.8672872 -0.4830185 -0.1204408
vn -0.8985081 -0.2410562 0.3668447
vn -0.8126505 -0.4830185 0.3260249
vn -0.96095 -0.2410562 -0.1358936
vn -0.8126505 -0.4830185 0.3260249
vn -0.594104 -0.2410562 0.7674193
vn -0.5394673 -0.4830185 0.689687
vn -0.8985081 -0.2410562 0.3668447
vn -0.5394673 -0.4830185 0.689687
vn -0.133595 -0.2410562 0.9612722
vn -0.1179846 -0.4830185 0.8676248
vn -0.594104 -0.2410562 0.7674193
vn 0.006899178 0.9999761 -0.000422864
vn 0.006899178 0.9999761 -0.000422864
vn 0.006899178 0.9999761 -0.000422864
vn 0.006899178 0.9999761 -0.000422864
vn 0.006899178 0.9999761 -0.000422864
vn 0.006899178 0.9999761 -0.000422864
vn 0.006899178 0.9999761 -0.000422864
vn 0.006899178 0.9999761 -0.000422864
vn 0.006899178 0.9999761 -0.000422864
vn 0.006899178 0.9999761 -0.000422864
vn 0.006899178 0.9999761 -0.000422864
vn 0.006899178 0.9999761 -0.000422864
vn 0.006899178 0.9999761 -0.000422864
vn 0.006899178 0.9999761 -0.000422864
vn 0.006899178 0.9999761 -0.000422864
vn 0.006899178 0.9999761 -0.000422864
vn 0.006899178 0.9999761 -0.000422864
vn 0.006899178 0.9999761 -0.000422864
vn 0.006899178 0.9999761 -0.000422864
vn 0.006899178 0.9999761 -0.000422864
vn 0.006899178 0.9999761 -0.000422864
vn 0.006899178 0.9999761 -0.000422864
vn 0.006899178 0.9999761 -0.000422864
vn 0.006899178 0.9999761 -0.000422864
vn 0.006899178 0.9999761 -0.000422864
vn 0.006899178 0.9999761 -0.000422864
vn 0.006899178 0.9999761 -0.000422864
vn 0.006899178 0.9999761 -0.000422864
vn 0.006899178 0.9999761 -0.000422864
vn 0.006899178 0.9999761 -0.000422864
vn 0.006899178 0.9999761 -0.000422864
vn 0.006899178 0.9999761 -0.000422864
vn 0.006899178 0.9999761 -0.000422864
vn 0.006899178 0.9999761 -0.000422864
vn 0.006899178 0.9999761 -0.000422864
vn 0.006899178 0.9999761 -0.000422864
vn 0.9669431 -0.2410562 0.08314447
vn 0.9279169 -0.006899178 -0.3727233
vn 0.9045012 -0.2410562 -0.3518088
vn 0.9903588 -0.006899178 0.1383544
vn 0.7718122 -0.2410562 0.5883858
vn 0.9903588 -0.006899178 0.1383544
vn 0.9669431 -0.2410562 0.08314447
vn 0.7952279 -0.006899178 0.6062714
vn 0.36594 -0.2410562 0.898877
vn 0.7952279 -0.006899178 0.6062714
vn 0.7718122 -0.2410562 0.5883858
vn 0.3815504 -0.006899178 0.9243222
vn -0.133595 -0.2410562 0.9612722
vn 0.3815504 -0.006899178 0.9243222
vn 0.36594 -0.2410562 0.898877
vn -0.133595 -0.006899178 0.991012
vn -0.594104 -0.2410562 0.7674193
vn -0.133595 -0.006899178 0.991012
vn -0.133595 -0.2410562 0.9612722
vn -0.6097144 -0.006899178 0.7925912
vn -0.8985081 -0.2410562 0.3668447
vn -0.6097144 -0.006899178 0.7925912
vn -0.594104 -0.2410562 0.7674193
vn -0.9219238 -0.006899178 0.3873098
vn -0.96095 -0.2410562 -0.1358936
vn -0.9219238 -0.006899178 0.3873098
vn -0.8985081 -0.2410562 0.3668447
vn -0.9843656 -0.006899178 -0.1760019
vn -0.7658191 -0.2410562 -0.5961652
vn -0.9843656 -0.006899178 -0.1760019
vn -0.96095 -0.2410562 -0.1358936
vn -0.7814296 -0.006899178 -0.6239553
vn -0.3599469 -0.2410562 -0.9012936
vn -0.7814296 -0.006899178 -0.6239553
vn -0.7658191 -0.2410562 -0.5961652
vn -0.3677521 -0.006899178 -0.9298983
vn 0.1395882 -0.2410562 -0.9604203
vn -0.3677521 -0.006899178 -0.9298983
vn -0.3599469 -0.2410562 -0.9012936
vn 0.1395882 -0.006899178 -0.9901856
vn 0.6000971 -0.2410562 -0.762742
vn 0.1395882 -0.006899178 -0.9901856
vn 0.1395882 -0.2410562 -0.9604203
vn 0.6157075 -0.006899178 -0.7879446
vn 0.9045012 -0.2410562 -0.3518088
vn 0.6157075 -0.006899178 -0.7879446
vn 0.6000971 -0.2410562 -0.762742
vn 0.9279169 -0.006899178 -0.3727233
g DSJ_GTA_daoJu_gongYe_07_0
f 3/3/3 2/2/2 1/1/1
f 2/2/2 4/4/4 1/1/1
f 7/7/7 6/6/6 5/5/5
f 6/6/6 8/8/8 5/5/5
f 11/11/11 10/10/10 9/9/9
f 10/10/10 12/12/12 9/9/9
f 15/15/15 14/14/14 13/13/13
f 14/14/14 16/16/16 13/13/13
f 19/19/19 18/18/18 17/17/17
f 18/18/18 20/20/20 17/17/17
f 23/23/23 22/22/22 21/21/21
f 22/22/22 24/24/24 21/21/21
f 27/27/27 26/26/26 25/25/25
f 26/26/26 28/28/28 25/25/25
f 31/31/31 30/30/30 29/29/29
f 30/30/30 32/32/32 29/29/29
f 35/35/35 34/34/34 33/33/33
f 34/34/34 36/36/36 33/33/33
f 39/39/39 38/38/38 37/37/37
f 38/38/38 40/40/40 37/37/37
f 43/43/43 42/42/42 41/41/41
f 42/42/42 44/44/44 41/41/41
f 47/47/47 46/46/46 45/45/45
f 46/46/46 48/48/48 45/45/45
f 51/51/51 50/50/50 49/49/49
f 54/54/54 53/53/53 52/52/52
f 57/57/57 56/56/56 55/55/55
f 60/60/60 59/59/59 58/58/58
f 63/63/63 62/62/62 61/61/61
f 66/66/66 65/65/65 64/64/64
f 69/69/69 68/68/68 67/67/67
f 72/72/72 71/71/71 70/70/70
f 75/75/75 74/74/74 73/73/73
f 78/78/78 77/77/77 76/76/76
f 81/81/81 80/80/80 79/79/79
f 84/84/84 83/83/83 82/82/82
f 87/87/87 86/86/86 85/85/85
f 86/86/86 88/88/88 85/85/85
f 91/91/91 90/90/90 89/89/89
f 90/90/90 92/92/92 89/89/89
f 95/95/95 94/94/94 93/93/93
f 94/94/94 96/96/96 93/93/93
f 99/99/99 98/98/98 97/97/97
f 98/98/98 100/100/100 97/97/97
f 103/103/103 102/102/102 101/101/101
f 102/102/102 104/104/104 101/101/101
f 107/107/107 106/106/106 105/105/105
f 106/106/106 108/108/108 105/105/105
f 111/111/111 110/110/110 109/109/109
f 110/110/110 112/112/112 109/109/109
f 115/115/115 114/114/114 113/113/113
f 114/114/114 116/116/116 113/113/113
f 119/119/119 118/118/118 117/117/117
f 118/118/118 120/120/120 117/117/117
f 123/123/123 122/122/122 121/121/121
f 122/122/122 124/124/124 121/121/121
f 127/127/127 126/126/126 125/125/125
f 126/126/126 128/128/128 125/125/125
f 131/131/131 130/130/130 129/129/129
f 130/130/130 132/132/132 129/129/129
