g DSJ_GTA_daoJu_xiangZi_02
v 1.119148 0.3743175 -0.1055837
v -0.8059092 0.01032174 0.410316
v -0.8059092 0.3743175 0.410316
v 1.119148 0.01032174 -0.1055837
v 0.9479828 0.3743175 -0.7443417
v 1.119148 0.01032174 -0.1055837
v 1.119148 0.3743175 -0.1055837
v 0.9479828 0.01032174 -0.7443417
v -0.9770855 0.3743175 -0.2284226
v 0.9479828 0.01032174 -0.7443417
v 0.9479828 0.3743175 -0.7443417
v -0.9770855 0.01032174 -0.2284226
v -0.8059092 0.3743175 0.410316
v -0.9770855 0.01032174 -0.2284226
v -0.9770855 0.3743175 -0.2284226
v -0.8059092 0.01032174 0.410316
v 0.9479828 0.3743175 -0.7443417
v -0.8059092 0.3743175 0.410316
v -0.9770855 0.3743175 -0.2284226
v 1.119148 0.3743175 -0.1055837
v 0.9239131 0.7424327 0.04620588
v -1.061494 0.3773855 0.2199816
v -1.061494 0.7424327 0.2199844
v 0.9239131 0.3773855 0.04620588
v 0.8662603 0.7424327 -0.6125749
v 0.9239131 0.3773855 0.04620588
v 0.9239131 0.7424327 0.04620588
v 0.8662603 0.3773855 -0.6125749
v -1.119147 0.7424327 -0.4387741
v 0.8662603 0.3773855 -0.6125749
v 0.8662603 0.7424327 -0.6125749
v -1.119147 0.3773855 -0.4387741
v -1.061494 0.7424327 0.2199844
v -1.119147 0.3773855 -0.4387741
v -1.119147 0.7424327 -0.4387741
v -1.061494 0.3773855 0.2199816
v 0.8662603 0.7424327 -0.6125749
v -1.061494 0.7424327 0.2199844
v -1.119147 0.7424327 -0.4387741
v 0.9239131 0.7424327 0.04620588
v 0.03546083 1.394612 -0.6178212
v 0.6508549 0.7384974 -0.3757579
v 0.6508549 1.394612 -0.3757523
v 0.03546083 0.7384974 -0.6178212
v -0.2066108 1.394612 -0.002438307
v 0.03546083 0.7384974 -0.6178212
v 0.03546083 1.394612 -0.6178212
v -0.2066108 0.7384974 -0.002435446
v 0.4087833 1.394612 0.2396389
v -0.2066108 0.7384974 -0.002435446
v -0.2066108 1.394612 -0.002438307
v 0.4087833 0.7384974 0.2396362
v 0.6508549 1.394612 -0.3757523
v 0.4087833 0.7384974 0.2396362
v 0.4087833 1.394612 0.2396389
v 0.6508549 0.7384974 -0.3757579
v -0.2066108 1.394612 -0.002438307
v 0.6508549 1.394612 -0.3757523
v 0.4087833 1.394612 0.2396389
v 0.03546083 1.394612 -0.6178212
v 0.2083357 1.805397 0.1291361
v -0.008070946 1.395613 -0.1974834
v -0.008070946 1.805397 -0.1974862
v 0.2083357 1.395613 0.1291388
v 0.5349635 1.8054 -0.08727336
v 0.2083357 1.395613 0.1291388
v 0.2083357 1.805397 0.1291361
v 0.5349635 1.395613 -0.08727336
v 0.3185458 1.8054 -0.4138984
v 0.5349635 1.395613 -0.08727336
v 0.5349635 1.8054 -0.08727336
v 0.3185458 1.395613 -0.4138984
v -0.008070946 1.805397 -0.1974862
v 0.3185458 1.395613 -0.4138984
v 0.3185458 1.8054 -0.4138984
v -0.008070946 1.395613 -0.1974834
v 0.5349635 1.8054 -0.08727336
v -0.008070946 1.805397 -0.1974862
v 0.3185458 1.8054 -0.4138984
v 0.2083357 1.805397 0.1291361
v -0.07850051 0.6182662 0.7424076
v 1.02309 0.01035798 0.6480228
v -0.07940412 0.01038587 0.7443377
v 1.024002 0.6163055 0.6461011
v -0.1228857 0.6167127 0.234376
v -0.07940412 0.01038587 0.7443377
v -0.1237866 0.01036358 0.2363005
v -0.07850051 0.6182662 0.7424076
v 0.9787127 0.01033568 0.1399856
v 1.024002 0.6163055 0.6461011
v 0.9796164 0.6147575 0.1380639
v 1.02309 0.01035798 0.6480228
v 0.9796164 0.6147575 0.1380639
v -0.07850051 0.6182662 0.7424076
v -0.1228857 0.6167127 0.234376
v 1.024002 0.6163055 0.6461011
v -0.1228857 0.6167127 0.234376
v 0.9787127 0.01033568 0.1399856
v 0.9796164 0.6147575 0.1380639
v -0.1237866 0.01036358 0.2363005
vt 0.585564 0.4007332
vt 0.6031297 0.341303
vt 0.585564 0.341303
vt 0.6031297 0.4007332
vt 0.585564 0.3711598
vt 0.6031297 0.4007332
vt 0.585564 0.4007332
vt 0.6031297 0.3711598
vt 0.585564 0.4007332
vt 0.6031297 0.341303
vt 0.585564 0.341303
vt 0.6031297 0.4007332
vt 0.585564 0.3711598
vt 0.6031297 0.4007332
vt 0.585564 0.4007332
vt 0.6031297 0.3711598
vt 0.5168396 0.3779229
vt 0.5746599 0.3441176
vt 0.5746499 0.3779229
vt 0.5168498 0.3441176
vt 0.585564 0.4007332
vt 0.6031297 0.341303
vt 0.585564 0.341303
vt 0.6031297 0.4007332
vt 0.585564 0.3711598
vt 0.6031297 0.4007332
vt 0.585564 0.4007332
vt 0.6031297 0.3711598
vt 0.585564 0.4007332
vt 0.6031297 0.341303
vt 0.585564 0.341303
vt 0.6031297 0.4007332
vt 0.585564 0.3711598
vt 0.6031297 0.4007332
vt 0.585564 0.4007332
vt 0.6031297 0.3711598
vt 0.5168396 0.3779229
vt 0.5746599 0.3441176
vt 0.5746499 0.3779229
vt 0.5168498 0.3441176
vt 0.3527841 0.326572
vt 0.3276654 0.2941639
vt 0.3276654 0.326572
vt 0.3530068 0.2941639
vt 0.3778521 0.3265822
vt 0.3530068 0.2941639
vt 0.3527841 0.326572
vt 0.3778521 0.2941639
vt 0.3527841 0.326572
vt 0.3276654 0.2941639
vt 0.3276654 0.326572
vt 0.3530068 0.2941639
vt 0.3778521 0.3265822
vt 0.3530068 0.2941639
vt 0.3527841 0.326572
vt 0.3778521 0.2941639
vt 0.3276654 0.2941639
vt 0.3530068 0.271384
vt 0.3530068 0.2941639
vt 0.3276553 0.271384
vt 0.3527841 0.326572
vt 0.3276654 0.2941639
vt 0.3276654 0.326572
vt 0.3530068 0.2941639
vt 0.3778521 0.3265822
vt 0.3530068 0.2941639
vt 0.3527841 0.326572
vt 0.3778521 0.2941639
vt 0.3527841 0.326572
vt 0.3276654 0.2941639
vt 0.3276654 0.326572
vt 0.3530068 0.2941639
vt 0.3778521 0.3265822
vt 0.3530068 0.2941639
vt 0.3527841 0.326572
vt 0.3778521 0.2941639
vt 0.3276654 0.2941639
vt 0.3530068 0.271384
vt 0.3530068 0.2941639
vt 0.3276553 0.271384
vt 0.3225324 0.3586056
vt 0.358717 0.3462943
vt 0.3225324 0.3462943
vt 0.358717 0.3586056
vt 0.3688414 0.3786823
vt 0.4030314 0.3627869
vt 0.4030314 0.3786823
vt 0.3688414 0.3627869
vt 0.4030314 0.3786823
vt 0.3688414 0.3627869
vt 0.3688414 0.3786823
vt 0.4030314 0.3627869
vt 0.4258619 0.2796961
vt 0.4008344 0.2901344
vt 0.4008344 0.2796961
vt 0.4258619 0.2901344
vt 0.3225324 0.3586056
vt 0.358717 0.3462943
vt 0.358717 0.3586056
vt 0.3225324 0.3462943
vn 0.2603495 -0.002017379 0.9655123
vn 0.2603495 -0.002017379 0.9655123
vn 0.2603495 -0.002017379 0.9655123
vn 0.2603495 -0.002017379 0.9655123
vn 0.9727199 -0.002017379 -0.2319739
vn 0.9727199 -0.002017379 -0.2319739
vn 0.9727199 -0.002017379 -0.2319739
vn 0.9727199 -0.002017379 -0.2319739
vn -0.2563147 -0.002017379 -0.9665913
vn -0.2563147 -0.002017379 -0.9665913
vn -0.2563147 -0.002017379 -0.9665913
vn -0.2563147 -0.002017379 -0.9665913
vn -0.9608569 -0.002017379 0.2770379
vn -0.9608569 -0.002017379 0.2770379
vn -0.9608569 -0.002017379 0.2770379
vn -0.9608569 -0.002017379 0.2770379
vn 0.002017379 0.9921699 -0.1248791
vn 0.002017379 0.9921699 -0.1248791
vn 0.002017379 0.9921699 -0.1248791
vn 0.002017379 0.9921699 -0.1248791
vn 0.08812809 -0.002017379 0.9961071
vn 0.08812809 -0.002017379 0.9961071
vn 0.08812809 -0.002017379 0.9961071
vn 0.08812809 -0.002017379 0.9961071
vn 0.9962047 -0.002017379 -0.08701815
vn 0.9962047 -0.002017379 -0.08701815
vn 0.9962047 -0.002017379 -0.08701815
vn 0.9962047 -0.002017379 -0.08701815
vn -0.08409327 -0.002017379 -0.9964558
vn -0.08409327 -0.002017379 -0.9964558
vn -0.08409327 -0.002017379 -0.9964558
vn -0.08409327 -0.002017379 -0.9964558
vn -0.9921699 -0.002017379 0.124879
vn -0.9921699 -0.002017379 0.124879
vn -0.9921699 -0.002017379 0.124879
vn -0.9921699 -0.002017379 0.124879
vn 0.002017379 0.9921699 -0.1248791
vn 0.002017379 0.9921699 -0.1248791
vn 0.002017379 0.9921699 -0.1248791
vn 0.002017379 0.9921699 -0.1248791
vn 0.369945 -0.002017379 -0.9290515
vn 0.369945 -0.002017379 -0.9290515
vn 0.369945 -0.002017379 -0.9290515
vn 0.369945 -0.002017379 -0.9290515
vn -0.9295439 -0.002017379 -0.3687059
vn -0.9295439 -0.002017379 -0.3687059
vn -0.9295439 -0.002017379 -0.3687059
vn -0.9295439 -0.002017379 -0.3687059
vn -0.3659102 -0.002017379 0.930648
vn -0.3659102 -0.002017379 0.930648
vn -0.3659102 -0.002017379 0.930648
vn -0.3659102 -0.002017379 0.930648
vn 0.9335787 -0.002017379 0.3583667
vn 0.9335787 -0.002017379 0.3583667
vn 0.9335787 -0.002017379 0.3583667
vn 0.9335787 -0.002017379 0.3583667
vn 0.002017379 0.9921699 -0.1248791
vn 0.002017379 0.9921699 -0.1248791
vn 0.002017379 0.9921699 -0.1248791
vn 0.002017379 0.9921699 -0.1248791
vn -0.8277767 -0.002017379 0.561054
vn -0.8277767 -0.002017379 0.561054
vn -0.8277767 -0.002017379 0.561054
vn -0.8277767 -0.002017379 0.561054
vn 0.5578229 -0.002017379 0.8299575
vn 0.5578229 -0.002017379 0.8299575
vn 0.5578229 -0.002017379 0.8299575
vn 0.5578229 -0.002017379 0.8299575
vn 0.8396398 -0.002017379 -0.5431399
vn 0.8396398 -0.002017379 -0.5431399
vn 0.8396398 -0.002017379 -0.5431399
vn 0.8396398 -0.002017379 -0.5431399
vn -0.5459599 -0.002017379 -0.8378089
vn -0.5459599 -0.002017379 -0.8378089
vn -0.5459599 -0.002017379 -0.8378089
vn -0.5459599 -0.002017379 -0.8378089
vn 0.002017379 0.9921699 -0.1248791
vn 0.002017379 0.9921699 -0.1248791
vn 0.002017379 0.9921699 -0.1248791
vn 0.002017379 0.9921699 -0.1248791
vn 0.08812809 -0.002017379 0.9961071
vn 0.08812809 -0.002017379 0.9961071
vn 0.08812809 -0.002017379 0.9961071
vn 0.08812809 -0.002017379 0.9961071
vn -0.9921699 -0.002017379 0.124879
vn -0.9921699 -0.002017379 0.124879
vn -0.9921699 -0.002017379 0.124879
vn -0.9921699 -0.002017379 0.124879
vn 0.9962047 -0.002017379 -0.08701815
vn 0.9962047 -0.002017379 -0.08701815
vn 0.9962047 -0.002017379 -0.08701815
vn 0.9962047 -0.002017379 -0.08701815
vn 0.002017379 0.9921699 -0.1248791
vn 0.002017379 0.9921699 -0.1248791
vn 0.002017379 0.9921699 -0.1248791
vn 0.002017379 0.9921699 -0.1248791
vn -0.08409327 -0.009845614 -0.9964092
vn -0.08409327 -0.009845614 -0.9964092
vn -0.08409327 -0.009845614 -0.9964092
vn -0.08409327 -0.009845614 -0.9964092
g DSJ_GTA_daoJu_xiangZi_02_0
f 3/3/3 2/2/2 1/1/1
f 4/4/4 1/1/1 2/2/2
f 7/7/7 6/6/6 5/5/5
f 8/8/8 5/5/5 6/6/6
f 11/11/11 10/10/10 9/9/9
f 12/12/12 9/9/9 10/10/10
f 15/15/15 14/14/14 13/13/13
f 16/16/16 13/13/13 14/14/14
f 19/19/19 18/18/18 17/17/17
f 20/20/20 17/17/17 18/18/18
f 23/23/23 22/22/22 21/21/21
f 24/24/24 21/21/21 22/22/22
f 27/27/27 26/26/26 25/25/25
f 28/28/28 25/25/25 26/26/26
f 31/31/31 30/30/30 29/29/29
f 32/32/32 29/29/29 30/30/30
f 35/35/35 34/34/34 33/33/33
f 36/36/36 33/33/33 34/34/34
f 39/39/39 38/38/38 37/37/37
f 40/40/40 37/37/37 38/38/38
f 43/43/43 42/42/42 41/41/41
f 44/44/44 41/41/41 42/42/42
f 47/47/47 46/46/46 45/45/45
f 48/48/48 45/45/45 46/46/46
f 51/51/51 50/50/50 49/49/49
f 52/52/52 49/49/49 50/50/50
f 55/55/55 54/54/54 53/53/53
f 56/56/56 53/53/53 54/54/54
f 59/59/59 58/58/58 57/57/57
f 60/60/60 57/57/57 58/58/58
f 63/63/63 62/62/62 61/61/61
f 64/64/64 61/61/61 62/62/62
f 67/67/67 66/66/66 65/65/65
f 68/68/68 65/65/65 66/66/66
f 71/71/71 70/70/70 69/69/69
f 72/72/72 69/69/69 70/70/70
f 75/75/75 74/74/74 73/73/73
f 76/76/76 73/73/73 74/74/74
f 79/79/79 78/78/78 77/77/77
f 80/80/80 77/77/77 78/78/78
f 83/83/83 82/82/82 81/81/81
f 84/84/84 81/81/81 82/82/82
f 87/87/87 86/86/86 85/85/85
f 88/88/88 85/85/85 86/86/86
f 91/91/91 90/90/90 89/89/89
f 92/92/92 89/89/89 90/90/90
f 95/95/95 94/94/94 93/93/93
f 96/96/96 93/93/93 94/94/94
f 99/99/99 98/98/98 97/97/97
f 100/100/100 97/97/97 98/98/98
