g DSJ_GTA_daoJu_cheLun_03
v -0.0884524 0.1859305 -0.4091645
v 0.1437932 0.0103125 -0.4388625
v 0.1131452 0.157733 -0.4132313
v -0.1483501 0.05117446 -0.4329688
v 0.2932512 0.06305158 -0.3078688
v 0.2162813 0.1941267 -0.3228367
v 0.2891219 0.2055418 -0.04954457
v 0.2134325 0.2924546 -0.1445763
v 0.06728417 0.3203904 0.1074579
v 0.06034869 0.3717072 -0.03623468
v -0.2096639 0.2764294 -0.2728891
v -0.3240036 0.1823194 -0.2354881
v 0.06034869 0.3717072 -0.03623468
v -0.2102479 0.3020325 0.009013176
v -0.1311653 0.3590386 -0.104168
v 0.06728417 0.3203904 0.1074579
v -0.3240036 0.1823194 -0.2354881
v -0.2096639 0.2764294 -0.2728891
v 0.004137158 0.1693567 -0.1821765
v 0.1437932 0.0103125 -0.4388625
v -0.1483501 0.05117446 -0.4329688
v 0.2932512 0.06305158 -0.3078688
v 0.2891219 0.2055418 -0.04954457
v 0.06728417 0.3203904 0.1074579
v -0.2102479 0.3020325 0.009013176
v -0.3240036 0.1823194 -0.2354881
v 0.1131452 0.157733 -0.4132313
v -0.1230755 0.2474278 -0.5408183
v -0.0884524 0.1859305 -0.4091645
v 0.1690678 0.2065669 -0.546711
v 0.2162813 0.1941267 -0.3228367
v 0.3185259 0.259305 -0.4157183
v 0.2134325 0.2924546 -0.1445763
v 0.3143965 0.4017963 -0.1573941
v 0.06034869 0.3717072 -0.03623468
v 0.09255776 0.5166448 -0.0003915429
v -0.2987289 0.3785738 -0.3433375
v -0.2096639 0.2764294 -0.2728891
v -0.1311653 0.3590386 -0.104168
v 0.09255776 0.5166448 -0.0003915429
v 0.06034869 0.3717072 -0.03623468
v -0.1849732 0.4982859 -0.09883627
v -0.2096639 0.2764294 -0.2728891
v -0.2987289 0.3785738 -0.3433375
v 0.02941179 0.3656111 -0.290026
v -0.1230755 0.2474278 -0.5408183
v 0.1690678 0.2065669 -0.546711
v 0.3185259 0.259305 -0.4157183
v 0.3143965 0.4017963 -0.1573941
v 0.09255776 0.5166448 -0.0003915429
v -0.1849732 0.4982859 -0.09883627
v -0.2987289 0.3785738 -0.3433375
v 0.07505801 0.1164831 0.03812522
v 0.3239973 0.003801465 0.2457844
v 0.2259311 0.116481 0.2457844
v 0.1053619 0.003803492 -0.05514216
v 0.2259311 0.116481 0.2457844
v 0.2031382 0.003802478 0.514941
v 0.1425304 0.1164821 0.4315194
v 0.3239973 0.003801465 0.2457844
v 0.1425304 0.1164821 0.4315194
v -0.09019178 0.003805578 0.546711
v -0.05988681 0.1164842 0.4534426
v 0.2031382 0.003802478 0.514941
v -0.3088272 0.003807664 0.3485932
v -0.2107599 0.1164852 0.3167292
v -0.2483987 0.003806651 0.05980128
v -0.2107599 0.1164852 0.1748396
v -0.2107599 0.1164852 0.1748396
v -0.2483987 0.003806651 0.05980128
v -0.1273592 0.1164842 0.0600484
v 0.1053619 0.003803492 -0.05514216
v 0.07505801 0.1164831 0.03812522
v 0.007584572 0.003804564 0.2457844
v 0.3239973 0.003801465 0.2457844
v 0.1053619 0.003803492 -0.05514216
v 0.2031382 0.003802478 0.514941
v -0.09019178 0.003805578 0.546711
v -0.3088272 0.003807664 0.3485932
v -0.2483987 0.003806651 0.05980128
v 0.2259311 0.116481 0.2457844
v 0.105364 0.2291616 -0.05514216
v 0.07505801 0.1164831 0.03812522
v 0.3239994 0.2291595 0.2457844
v 0.1425304 0.1164821 0.4315194
v 0.3239994 0.2291595 0.2457844
v 0.2259311 0.116481 0.2457844
v 0.2031403 0.2291606 0.514941
v -0.05988681 0.1164842 0.4534426
v 0.2031403 0.2291606 0.514941
v 0.1425304 0.1164821 0.4315194
v -0.0901897 0.2291627 0.546711
v -0.2107599 0.1164852 0.3167292
v -0.3088261 0.2291648 0.3485932
v -0.2107599 0.1164852 0.1748396
v -0.2483966 0.2291637 0.05980128
v -0.1273592 0.1164842 0.0600484
v -0.2483966 0.2291637 0.05980128
v -0.2107599 0.1164852 0.1748396
v 0.07505801 0.1164831 0.03812522
v 0.105364 0.2291616 -0.05514216
v 0.3239994 0.2291595 0.2457844
v 0.007586658 0.2291616 0.2457844
v 0.105364 0.2291616 -0.05514216
v 0.2031403 0.2291606 0.514941
v -0.0901897 0.2291627 0.546711
v -0.3088261 0.2291648 0.3485932
v -0.2483966 0.2291637 0.05980128
vt 0.2229286 0.9275984
vt 0.2049646 0.9160841
vt 0.2055581 0.9275984
vt 0.2218734 0.9160841
vt 0.1945318 0.9160841
vt 0.1948747 0.9275984
vt 0.1793508 0.9160841
vt 0.1798256 0.9275984
vt 0.1646182 0.9160841
vt 0.1647897 0.9275984
vt 0.239323 0.9275984
vt 0.2394417 0.9160841
vt 0.1647897 0.9275984
vt 0.1495296 0.9160841
vt 0.1493713 0.9275984
vt 0.1646182 0.9160841
vt 0.1328977 0.9160841
vt 0.1359049 0.9275984
vt 0.1610043 0.9707805
vt 0.1395848 0.9871354
vt 0.1370656 0.9626163
vt 0.1528137 0.9972648
vt 0.175816 0.9922001
vt 0.1874886 0.9707805
vt 0.175816 0.9493873
vt 0.1528137 0.9443225
vt 0.2055581 0.9275984
vt 0.2218734 0.9389017
vt 0.2229286 0.9275984
vt 0.2049646 0.9389017
vt 0.1948747 0.9275984
vt 0.1945318 0.9389017
vt 0.1798256 0.9275984
vt 0.1793508 0.9389017
vt 0.1647897 0.9275984
vt 0.1646182 0.9389017
vt 0.2394417 0.9389017
vt 0.239323 0.9275984
vt 0.1493713 0.9275984
vt 0.1646182 0.9389017
vt 0.1647897 0.9275984
vt 0.1495296 0.9389017
vt 0.1359049 0.9275984
vt 0.1328977 0.9389017
vt 0.1608593 0.9707805
vt 0.1368941 0.9626163
vt 0.1394265 0.9871354
vt 0.1526686 0.9972648
vt 0.175671 0.9922001
vt 0.1873436 0.9707805
vt 0.175671 0.9493873
vt 0.1526686 0.9443225
vt 0.2112823 0.9275984
vt 0.1894011 0.9160841
vt 0.1898232 0.9275984
vt 0.2105701 0.9160841
vt 0.1898232 0.9275984
vt 0.1744311 0.9160841
vt 0.1748796 0.9275984
vt 0.1894011 0.9160841
vt 0.1748796 0.9275984
vt 0.1596063 0.9160841
vt 0.1596195 0.9275984
vt 0.1744311 0.9160841
vt 0.144478 0.9160841
vt 0.144267 0.9275984
vt 0.1328977 0.9160841
vt 0.1359049 0.9275984
vt 0.239323 0.9275984
vt 0.2334801 0.9160841
vt 0.2288506 0.9275984
vt 0.2105701 0.9160841
vt 0.2112823 0.9275984
vt 0.1610043 0.9707805
vt 0.1610043 0.9972516
vt 0.1370656 0.9789711
vt 0.1824503 0.9871354
vt 0.1849695 0.9626163
vt 0.169195 0.9443225
vt 0.1462058 0.9493873
vt 0.1898232 0.9275984
vt 0.2105701 0.9389017
vt 0.2112823 0.9275984
vt 0.1894011 0.9389017
vt 0.1748796 0.9275984
vt 0.1894011 0.9389017
vt 0.1898232 0.9275984
vt 0.1744311 0.9389017
vt 0.1596195 0.9275984
vt 0.1744311 0.9389017
vt 0.1748796 0.9275984
vt 0.1596063 0.9389017
vt 0.144267 0.9275984
vt 0.144478 0.9389017
vt 0.1359049 0.9275984
vt 0.1328977 0.9389017
vt 0.2288506 0.9275984
vt 0.2334801 0.9389017
vt 0.239323 0.9275984
vt 0.2112823 0.9275984
vt 0.2105701 0.9389017
vt 0.1608593 0.9972648
vt 0.1608593 0.9707805
vt 0.1368941 0.9789711
vt 0.182292 0.9871354
vt 0.1848244 0.9626163
vt 0.1690499 0.9443225
vt 0.1460476 0.9493873
vn -0.2862723 0.2862723 -0.9143831
vn 0.3411739 0.2235277 -0.9130365
vn 0.3098016 0.2156845 -0.9260147
vn -0.2862723 0.2862723 -0.9143831
vn 0.756857 0.3725461 -0.5370074
vn 0.7725431 0.3803892 -0.5084104
vn 0.756857 0.6470538 -0.09213503
vn 0.756857 0.6470538 -0.09213503
vn 0.5921524 0.7725431 0.2292003
vn 0.5921524 0.7725431 0.2292003
vn -0.5529369 0.3725461 -0.7452987
vn -0.5529369 0.3725461 -0.7452987
vn -0.1764692 0.9215615 0.3458078
vn -0.4352907 0.8823462 0.17885
vn -0.4352907 0.8823462 0.17885
vn -0.1764692 0.9215615 0.3458078
vn -0.6470538 0.7568569 -0.09213551
vn -0.6470538 0.7568569 -0.09213551
vn -0.1058815 -0.8823462 0.458535
vn -0.1058815 -0.8823462 0.458535
vn -0.1058815 -0.8823462 0.458535
vn -0.1058815 -0.8823462 0.458535
vn -0.1058815 -0.8823462 0.458535
vn -0.1058815 -0.8823462 0.458535
vn -0.1058815 -0.8823462 0.458535
vn -0.1058815 -0.8823462 0.458535
vn 0.1607831 -0.960777 -0.2259566
vn -0.4352907 -0.8666601 -0.2437671
vn -0.4352907 -0.8666601 -0.2437671
vn 0.1843123 -0.960777 -0.2072113
vn 0.615568 -0.7880839 0
vn 0.5981219 -0.8014051 0
vn 0.6156816 -0.4980354 0.6106528
vn 0.6156816 -0.4980354 0.6106528
vn 0.450977 -0.3176447 0.8340993
vn 0.450977 -0.3176447 0.8340993
vn -0.6862692 -0.7176416 -0.1184278
vn -0.6862692 -0.7176416 -0.1184278
vn -0.5843092 -0.2705862 0.7650921
vn -0.3176446 -0.1686262 0.9330955
vn -0.3176446 -0.1686262 0.9330955
vn -0.5843092 -0.2705862 0.7650921
vn -0.7803861 -0.3333308 0.5290445
vn -0.7803861 -0.3333308 0.5290445
vn 0.1215677 0.86666 -0.4838613
vn 0.1215677 0.86666 -0.4838613
vn 0.1215677 0.86666 -0.4838613
vn 0.1215677 0.86666 -0.4838613
vn 0.1215677 0.86666 -0.4838613
vn 0.1215677 0.86666 -0.4838613
vn 0.1215677 0.86666 -0.4838613
vn 0.1215677 0.86666 -0.4838613
vn 0.6705831 0.5686231 -0.4764305
vn 0.6705831 0.5686231 -0.4764305
vn 0.6705831 0.5686231 -0.4764305
vn 0.6705831 0.5686231 -0.4764305
vn 0.7254847 0.6156815 0.3075845
vn 0.7254847 0.6156815 0.3075845
vn 0.7254847 0.6156815 0.3075845
vn 0.7254847 0.6156815 0.3075845
vn 0.09803849 0.6156815 0.7818725
vn -0.2313707 0.6548969 0.7194287
vn -0.2313707 0.6548969 0.7194287
vn 0.09803849 0.6156815 0.7818725
vn -0.7333276 0.6235245 0.2710124
vn -0.7254846 0.6313677 0.2739469
vn -0.6078384 0.5999954 -0.5201327
vn -0.7725431 0.5843092 -0.2485155
vn -0.7725431 0.5843092 -0.2485155
vn -0.6078384 0.5999954 -0.5201327
vn -0.3490169 0.5294076 -0.7732495
vn -0.2078415 0.4431338 -0.8720288
vn -0.2078415 0.4431338 -0.8720288
vn 0.003921568 -0.9999924 0
vn 0.003921568 -0.9999924 0
vn 0.003921568 -0.9999924 0
vn 0.003921568 -0.9999924 0
vn 0.003921568 -0.9999924 0
vn 0.003921568 -0.9999924 0
vn 0.003921568 -0.9999924 0
vn 0.6705831 -0.5843093 -0.4570568
vn 0.6705831 -0.5843093 -0.4570568
vn 0.6705831 -0.5843093 -0.4570568
vn 0.6705831 -0.5843093 -0.4570568
vn 0.7254847 -0.6313677 0.2739466
vn 0.7254847 -0.6313677 0.2739466
vn 0.7254847 -0.6313677 0.2739466
vn 0.7254847 -0.6313677 0.2739466
vn -0.2313707 -0.6705831 0.7048303
vn 0.09803849 -0.6313677 0.7692615
vn 0.09803849 -0.6313677 0.7692615
vn -0.2313707 -0.6705831 0.7048303
vn -0.7254846 -0.6470539 0.2345066
vn -0.7333276 -0.6392108 0.2316033
vn -0.7725431 -0.5999954 -0.2078044
vn -0.6078384 -0.6156816 -0.5014665
vn -0.3490169 -0.5450939 -0.7622728
vn -0.6078384 -0.6156816 -0.5014665
vn -0.7725431 -0.5999954 -0.2078044
vn -0.2078415 -0.45882 -0.8638785
vn -0.2078415 -0.45882 -0.8638785
vn 0.003921568 0.9999923 -0.000345267
vn 0.003921568 0.9999923 -0.000345267
vn 0.003921568 0.9999923 -0.000345267
vn 0.003921568 0.9999923 -0.000345267
vn 0.003921568 0.9999923 -0.000345267
vn 0.003921568 0.9999923 -0.000345267
vn 0.003921568 0.9999923 -0.000345267
g DSJ_GTA_daoJu_cheLun_03_0
f 3/3/3 2/2/2 1/1/1
f 2/2/2 4/4/4 1/1/1
f 5/5/5 2/2/2 3/3/3
f 6/6/6 5/5/5 3/3/3
f 7/7/7 5/5/5 6/6/6
f 8/8/8 7/7/7 6/6/6
f 9/9/9 7/7/7 8/8/8
f 10/10/10 9/9/9 8/8/8
f 1/1/1 4/4/4 11/11/11
f 4/4/4 12/12/12 11/11/11
f 15/15/15 14/14/14 13/13/13
f 14/14/14 16/16/16 13/13/13
f 17/17/17 14/14/14 15/15/15
f 18/18/18 17/17/17 15/15/15
f 21/21/21 20/20/20 19/19/19
f 20/20/20 22/22/22 19/19/19
f 23/23/23 19/19/19 22/22/22
f 24/24/24 19/19/19 23/23/23
f 25/25/25 19/19/19 24/24/24
f 26/26/26 19/19/19 25/25/25
f 21/21/21 19/19/19 26/26/26
f 29/29/29 28/28/28 27/27/27
f 28/28/28 30/30/30 27/27/27
f 27/27/27 30/30/30 31/31/31
f 30/30/30 32/32/32 31/31/31
f 31/31/31 32/32/32 33/33/33
f 32/32/32 34/34/34 33/33/33
f 33/33/33 34/34/34 35/35/35
f 34/34/34 36/36/36 35/35/35
f 37/37/37 28/28/28 29/29/29
f 38/38/38 37/37/37 29/29/29
f 41/41/41 40/40/40 39/39/39
f 40/40/40 42/42/42 39/39/39
f 39/39/39 42/42/42 43/43/43
f 42/42/42 44/44/44 43/43/43
f 47/47/47 46/46/46 45/45/45
f 48/48/48 47/47/47 45/45/45
f 49/49/49 48/48/48 45/45/45
f 50/50/50 49/49/49 45/45/45
f 50/50/50 45/45/45 51/51/51
f 51/51/51 45/45/45 52/52/52
f 52/52/52 45/45/45 46/46/46
f 55/55/55 54/54/54 53/53/53
f 54/54/54 56/56/56 53/53/53
f 59/59/59 58/58/58 57/57/57
f 58/58/58 60/60/60 57/57/57
f 63/63/63 62/62/62 61/61/61
f 62/62/62 64/64/64 61/61/61
f 65/65/65 62/62/62 63/63/63
f 66/66/66 65/65/65 63/63/63
f 67/67/67 65/65/65 66/66/66
f 68/68/68 67/67/67 66/66/66
f 71/71/71 70/70/70 69/69/69
f 72/72/72 70/70/70 71/71/71
f 73/73/73 72/72/72 71/71/71
f 76/76/76 75/75/75 74/74/74
f 77/77/77 74/74/74 75/75/75
f 78/78/78 74/74/74 77/77/77
f 79/79/79 74/74/74 78/78/78
f 79/79/79 80/80/80 74/74/74
f 80/80/80 76/76/76 74/74/74
f 83/83/83 82/82/82 81/81/81
f 82/82/82 84/84/84 81/81/81
f 87/87/87 86/86/86 85/85/85
f 86/86/86 88/88/88 85/85/85
f 91/91/91 90/90/90 89/89/89
f 90/90/90 92/92/92 89/89/89
f 89/89/89 92/92/92 93/93/93
f 92/92/92 94/94/94 93/93/93
f 93/93/93 94/94/94 95/95/95
f 94/94/94 96/96/96 95/95/95
f 99/99/99 98/98/98 97/97/97
f 97/97/97 98/98/98 100/100/100
f 98/98/98 101/101/101 100/100/100
f 104/104/104 103/103/103 102/102/102
f 102/102/102 103/103/103 105/105/105
f 105/105/105 103/103/103 106/106/106
f 106/106/106 103/103/103 107/107/107
f 103/103/103 108/108/108 107/107/107
f 104/104/104 108/108/108 103/103/103
