g DSJ_GTA_daoJu_xiangZi_06
v -2 0.006364107 0.8499968
v 2.000001 0.006364107 -0.850006
v -2 0.006364107 -0.850006
v 2.000001 0.006364107 0.8499968
v -2 1.406367 0.8499968
v 2.000001 1.406367 -0.850006
v 2.000001 1.406367 0.8499968
v -2 1.406367 -0.850006
v -2 0.006364107 0.8499968
v 2.000001 1.406367 0.8499968
v 2.000001 0.006364107 0.8499968
v -2 1.406367 0.8499968
v 2.000001 0.006364107 0.8499968
v 2.000001 1.406367 -0.850006
v 2.000001 0.006364107 -0.850006
v 2.000001 1.406367 0.8499968
v 2.000001 0.006364107 -0.850006
v -2 1.406367 -0.850006
v -2 0.006364107 -0.850006
v 2.000001 1.406367 -0.850006
v -2 0.006364107 -0.850006
v -2 1.406367 0.8499968
v -2 0.006364107 0.8499968
v -2 1.406367 -0.850006
vt 0.7695551 0.8464024
vt 0.5003837 0.9219849
vt 0.7695551 0.9219849
vt 0.5003837 0.8464024
vt 0.5003837 0.8464024
vt 0.7695551 0.9219849
vt 0.7695551 0.8464024
vt 0.5003837 0.9219849
vt 0.5003837 0.8464024
vt 0.7695551 0.9219849
vt 0.7695551 0.8464024
vt 0.5003837 0.9219849
vt 0.8305849 0.9418558
vt 0.8868147 0.9994418
vt 0.8868147 0.9417796
vt 0.8305849 0.999518
vt 0.5003837 0.8464024
vt 0.7695551 0.9219849
vt 0.7695551 0.8464024
vt 0.5003837 0.9219849
vt 0.9429835 0.8813746
vt 0.9997009 0.9408805
vt 0.9997009 0.8813136
vt 0.9429835 0.9409416
vn 0.003921568 -0.9999924 0
vn 0.003921568 -0.9999924 0
vn 0.003921568 -0.9999924 0
vn 0.003921568 -0.9999924 0
vn 0.003921568 0.9999923 -0.000345267
vn 0.003921568 0.9999923 -0.000345267
vn 0.003921568 0.9999923 -0.000345267
vn 0.003921568 0.9999923 -0.000345267
vn 0.01176465 -0.01176465 0.9998616
vn 0.01176465 -0.01176465 0.9998616
vn 0.01176465 -0.01176465 0.9998616
vn 0.01176465 -0.01176465 0.9998616
vn 0.9999924 -0.003921568 0
vn 0.9999924 -0.003921568 0
vn 0.9999924 -0.003921568 0
vn 0.9999924 -0.003921568 0
vn 0.01176465 -0.01176465 -0.9998616
vn 0.01176465 -0.01176465 -0.9998616
vn 0.01176465 -0.01176465 -0.9998616
vn 0.01176465 -0.01176465 -0.9998616
vn -0.9999923 -0.003921568 -0.0003442513
vn -0.9999923 -0.003921568 -0.0003442513
vn -0.9999923 -0.003921568 -0.0003442513
vn -0.9999923 -0.003921568 -0.0003442513
g DSJ_GTA_daoJu_xiangZi_06_0
f 3/3/3 2/2/2 1/1/1
f 4/4/4 1/1/1 2/2/2
f 7/7/7 6/6/6 5/5/5
f 8/8/8 5/5/5 6/6/6
f 11/11/11 10/10/10 9/9/9
f 12/12/12 9/9/9 10/10/10
f 15/15/15 14/14/14 13/13/13
f 16/16/16 13/13/13 14/14/14
f 19/19/19 18/18/18 17/17/17
f 20/20/20 17/17/17 18/18/18
f 23/23/23 22/22/22 21/21/21
f 24/24/24 21/21/21 22/22/22
