g DSJ_GTA_gaoLou_22
v 0.4260445 -17.18369 21.91749
v 28.63948 -19.55059 29.77559
v 0.4260445 -19.55059 29.77559
v 24.28439 -17.18369 21.91749
v 28.63948 -19.55059 -6.485306
v 24.28439 -17.18369 21.91749
v 24.28439 -17.18369 -6.485306
v 28.63948 -19.55059 29.77559
v 24.28439 -17.18369 -6.485306
v 0.4260445 -17.18369 21.91749
v 0.4260445 -17.18369 -6.485306
v 24.28439 -17.18369 21.91749
v 0.4260445 -17.18369 21.91749
v -27.69272 -19.55059 29.77559
v -23.33762 -17.18369 21.91749
v 0.4260445 -19.55059 29.77559
v -27.69272 -19.55059 -6.485306
v -23.33762 -17.18369 21.91749
v -27.69272 -19.55059 29.77559
v -23.33762 -17.18369 -6.485306
v -23.33762 -17.18369 -6.485306
v 0.4260445 -17.18369 21.91749
v -23.33762 -17.18369 21.91749
v 0.4260445 -17.18369 -6.485306
v 48.42676 -17.37304 -29.96494
v 48.42676 -18.88786 8.662849
v 48.42676 -17.37304 8.662849
v 48.42676 -18.88786 -29.96494
v 31.76379 -18.88786 8.662849
v 31.76379 -17.37304 13.68068
v 31.76379 -17.37304 8.662849
v 31.76379 -18.88786 13.68068
v 31.76379 -17.37304 8.662849
v 48.42676 -18.88786 8.662849
v 31.76379 -18.88786 8.662849
v 48.42676 -17.37304 8.662849
v 46.05986 -17.37304 -28.63948
v 48.42676 -17.37304 8.662849
v 46.05986 -17.37304 7.526737
v 48.42676 -17.37304 -29.96494
v 29.58624 -17.37304 7.526737
v 31.76379 -17.37304 13.68068
v 29.58624 -17.37304 12.26054
v 31.76379 -17.37304 8.662849
v 46.05986 -17.37304 7.526737
v 31.76379 -17.37304 8.662849
v 29.58624 -17.37304 7.526737
v 48.42676 -17.37304 8.662849
v 31.76379 -17.37304 13.68068
v 0.04734039 -18.88786 13.68068
v 0.04734039 -17.37304 13.68068
v 31.76379 -18.88786 13.68068
v 29.58624 -17.37304 12.26054
v 0.04734039 -17.37304 13.68068
v 0.04734039 -17.37304 12.26054
v 31.76379 -17.37304 13.68068
v 0.04734039 -17.37304 -29.96494
v 46.05986 -17.37304 -28.63948
v 0.04734039 -17.37304 -28.63948
v 48.42676 -17.37304 -29.96494
v 0.04734039 -18.88786 -29.96494
v 48.42676 -17.37304 -29.96494
v 0.04734039 -17.37304 -29.96494
v 48.42676 -18.88786 -29.96494
v -48.42676 -17.37304 -29.96494
v -48.42676 -18.88786 8.662849
v -48.42676 -18.88786 -29.96494
v -48.42676 -17.37304 8.662849
v -31.47976 -18.88786 8.662849
v -31.47976 -17.37304 13.68068
v -31.47976 -18.88786 13.68068
v -31.47976 -17.37304 8.662849
v -31.47976 -17.37304 8.662849
v -48.42676 -18.88786 8.662849
v -48.42676 -17.37304 8.662849
v -31.47976 -18.88786 8.662849
v -45.87051 -17.37304 -28.63948
v -48.42676 -17.37304 8.662849
v -48.42676 -17.37304 -29.96494
v -45.87051 -17.37304 7.526737
v -29.49156 -17.37304 7.526737
v -31.47976 -17.37304 13.68068
v -31.47976 -17.37304 8.662849
v -29.49156 -17.37304 12.26054
v -45.87051 -17.37304 7.526737
v -31.47976 -17.37304 8.662849
v -48.42676 -17.37304 8.662849
v -29.49156 -17.37304 7.526737
v -31.47976 -17.37304 13.68068
v 0.04734039 -18.88786 13.68068
v -31.47976 -18.88786 13.68068
v 0.04734039 -17.37304 13.68068
v -29.49156 -17.37304 12.26054
v 0.04734039 -17.37304 13.68068
v -31.47976 -17.37304 13.68068
v 0.04734039 -17.37304 12.26054
v 0.04734039 -17.37304 -29.96494
v -45.87051 -17.37304 -28.63948
v -48.42676 -17.37304 -29.96494
v 0.04734039 -17.37304 -28.63948
v 0.04734039 -18.88786 -29.96494
v -48.42676 -17.37304 -29.96494
v -48.42676 -18.88786 -29.96494
v 0.04734039 -17.37304 -29.96494
v -45.87051 -2.887619 -10.74572
v -45.87051 -19.07721 -28.82883
v -45.87051 -2.887619 -28.82883
v -45.87051 -19.07721 -10.74572
v -29.87027 -19.07721 12.54456
v -29.87027 -2.887619 7.810768
v -29.87027 -2.887619 12.54456
v -29.87027 -19.07721 7.810768
v -29.87027 -2.887619 7.810768
v -45.87051 -19.07721 7.810768
v -45.87051 -2.887619 7.810768
v -29.87027 -19.07721 7.810768
v -43.40893 -2.130211 -27.50337
v -45.87051 -2.887619 -10.74572
v -45.87051 -2.887619 -28.82883
v -43.40893 -2.130211 -10.74572
v -45.87051 -2.887619 7.810768
v -43.40893 -2.130211 6.769329
v -27.97675 -2.130211 6.769329
v -29.87027 -2.887619 12.54456
v -29.87027 -2.887619 7.810768
v -27.97675 -2.130211 11.31378
v -43.40893 -2.130211 6.769329
v -29.87027 -2.887619 7.810768
v -45.87051 -2.887619 7.810768
v -27.97675 -2.130211 6.769329
v -9.704285 -7.337387 11.40845
v -7.337387 -8.852203 11.40845
v -10.27234 -8.852203 11.40845
v -7.337387 -6.106602 11.40845
v -7.337387 -19.07721 11.40845
v -10.27234 -19.07721 11.40845
v -4.591782 -8.852203 11.40845
v -4.591782 -19.07721 11.40845
v -5.15984 -7.337387 11.40845
v -45.87051 -2.887619 7.810768
v -45.87051 -19.07721 -10.74572
v -45.87051 -2.887619 -10.74572
v -45.87051 -19.07721 7.810768
v 0.1420135 -2.887619 -28.73416
v -22.95892 -2.130211 -27.50337
v -22.95892 -2.887619 -28.82883
v 0.1420135 -2.130211 -27.31402
v -22.95892 -2.887619 -28.82883
v 0.1420135 -19.07721 -28.73416
v 0.1420135 -2.887619 -28.73416
v -22.95892 -19.07721 -28.82883
v -22.95892 -2.887619 -28.82883
v -43.40893 -2.130211 -27.50337
v -45.87051 -2.887619 -28.82883
v -22.95892 -2.130211 -27.50337
v -45.87051 -2.887619 -28.82883
v -22.95892 -19.07721 -28.82883
v -22.95892 -2.887619 -28.82883
v -45.87051 -19.07721 -28.82883
v -7.337387 -2.130211 11.31378
v 0.1420135 -2.887619 12.54456
v -7.337387 -2.887619 12.54456
v 0.1420135 -2.130211 11.31378
v -29.87027 -2.887619 12.54456
v -27.97675 -2.130211 11.31378
v -5.15984 -7.337387 12.54456
v -2.414238 -8.852203 12.54456
v -4.591782 -8.852203 12.54456
v -1.84618 -7.337387 12.54456
v -4.591782 -19.07721 12.54456
v -2.414238 -19.07721 12.54456
v 0.1420135 -6.106602 12.54456
v -7.337387 -6.106602 12.54456
v -7.337387 -2.887619 12.54456
v 0.1420135 -2.887619 12.54456
v -2.414238 -8.852203 11.31378
v 0.1420135 -6.106602 11.31378
v 0.1420135 -8.852203 11.31378
v -1.84618 -7.337387 11.31378
v -2.414238 -19.07721 11.31378
v 0.1420135 -19.07721 11.31378
v -2.414238 -8.852203 12.54456
v -1.84618 -7.337387 11.31378
v -2.414238 -8.852203 11.31378
v -1.84618 -7.337387 12.54456
v -1.84618 -7.337387 12.54456
v 0.1420135 -6.106602 11.31378
v -1.84618 -7.337387 11.31378
v 0.1420135 -6.106602 12.54456
v -2.414238 -19.07721 12.54456
v -2.414238 -8.852203 11.31378
v -2.414238 -19.07721 11.31378
v -2.414238 -8.852203 12.54456
v -7.337387 -6.106602 12.54456
v -29.87027 -2.887619 12.54456
v -7.337387 -2.887619 12.54456
v -9.704285 -7.337387 12.54456
v -10.27234 -8.852203 12.54456
v -29.87027 -19.07721 12.54456
v -10.27234 -19.07721 12.54456
v -9.704285 -7.337387 12.54456
v -7.337387 -6.106602 11.40845
v -9.704285 -7.337387 11.40845
v -7.337387 -6.106602 12.54456
v -10.27234 -19.07721 12.54456
v -10.27234 -8.852203 11.40845
v -10.27234 -19.07721 11.40845
v -10.27234 -8.852203 12.54456
v -9.704285 -7.337387 11.40845
v -9.704285 -7.337387 12.54456
v -4.591782 -8.852203 12.54456
v -4.591782 -19.07721 11.40845
v -4.591782 -8.852203 11.40845
v -4.591782 -19.07721 12.54456
v -5.15984 -7.337387 12.54456
v -5.15984 -7.337387 11.40845
v -7.337387 -6.106602 12.54456
v -5.15984 -7.337387 11.40845
v -7.337387 -6.106602 11.40845
v -5.15984 -7.337387 12.54456
v 46.15453 -2.887619 -10.74572
v 46.15453 -19.07721 -28.82883
v 46.15453 -19.07721 -10.74572
v 46.15453 -2.887619 -28.82883
v 30.1543 -19.07721 12.54456
v 30.1543 -2.887619 7.810768
v 30.1543 -19.07721 7.810768
v 30.1543 -2.887619 12.54456
v 30.1543 -2.887619 7.810768
v 46.15453 -19.07721 7.810768
v 30.1543 -19.07721 7.810768
v 46.15453 -2.887619 7.810768
v 43.69296 -2.130211 -27.50337
v 46.15453 -2.887619 -10.74572
v 43.69296 -2.130211 -10.74572
v 46.15453 -2.887619 -28.82883
v 46.15453 -2.887619 7.810768
v 43.69296 -2.130211 6.769329
v 28.1661 -2.130211 6.769329
v 30.1543 -2.887619 12.54456
v 28.1661 -2.130211 11.31378
v 30.1543 -2.887619 7.810768
v 43.69296 -2.130211 6.769329
v 30.1543 -2.887619 7.810768
v 28.1661 -2.130211 6.769329
v 46.15453 -2.887619 7.810768
v 9.893639 -7.337387 11.40845
v 7.716091 -8.852203 11.40845
v 7.716091 -6.106602 11.40845
v 10.4617 -8.852203 11.40845
v 7.716091 -19.07721 11.40845
v 10.4617 -19.07721 11.40845
v 4.875813 -8.852203 11.40845
v 4.875813 -19.07721 11.40845
v 5.443871 -7.337387 11.40845
v 46.15453 -2.887619 7.810768
v 46.15453 -19.07721 -10.74572
v 46.15453 -19.07721 7.810768
v 46.15453 -2.887619 -10.74572
v 0.1420135 -2.887619 -28.73416
v 23.24295 -2.130211 -27.50337
v 0.1420135 -2.130211 -27.31402
v 23.24295 -2.887619 -28.82883
v 23.24295 -2.887619 -28.82883
v 0.1420135 -19.07721 -28.73416
v 23.24295 -19.07721 -28.82883
v 0.1420135 -2.887619 -28.73416
v 23.24295 -2.887619 -28.82883
v 43.69296 -2.130211 -27.50337
v 23.24295 -2.130211 -27.50337
v 46.15453 -2.887619 -28.82883
v 46.15453 -2.887619 -28.82883
v 23.24295 -19.07721 -28.82883
v 46.15453 -19.07721 -28.82883
v 23.24295 -2.887619 -28.82883
v 7.716091 -2.130211 11.31378
v 0.1420135 -2.887619 12.54456
v 0.1420135 -2.130211 11.31378
v 7.716091 -2.887619 12.54456
v 30.1543 -2.887619 12.54456
v 28.1661 -2.130211 11.31378
v 5.443871 -7.337387 12.54456
v 2.792942 -8.852203 12.54456
v 2.224888 -7.337387 12.54456
v 4.875813 -8.852203 12.54456
v 4.875813 -19.07721 12.54456
v 2.792942 -19.07721 12.54456
v 0.1420135 -6.106602 12.54456
v 7.716091 -6.106602 12.54456
v 7.716091 -2.887619 12.54456
v 0.1420135 -2.887619 12.54456
v 2.792942 -8.852203 11.31378
v 0.1420135 -6.106602 11.31378
v 2.224888 -7.337387 11.31378
v 0.1420135 -8.852203 11.31378
v 2.792942 -19.07721 11.31378
v 0.1420135 -19.07721 11.31378
v 2.792942 -8.852203 12.54456
v 2.224888 -7.337387 11.31378
v 2.224888 -7.337387 12.54456
v 2.792942 -8.852203 11.31378
v 2.224888 -7.337387 12.54456
v 0.1420135 -6.106602 11.31378
v 0.1420135 -6.106602 12.54456
v 2.224888 -7.337387 11.31378
v 2.792942 -19.07721 12.54456
v 2.792942 -8.852203 11.31378
v 2.792942 -8.852203 12.54456
v 2.792942 -19.07721 11.31378
v 7.716091 -6.106602 12.54456
v 30.1543 -2.887619 12.54456
v 9.893639 -7.337387 12.54456
v 7.716091 -2.887619 12.54456
v 10.4617 -8.852203 12.54456
v 30.1543 -19.07721 12.54456
v 10.4617 -19.07721 12.54456
v 9.893639 -7.337387 12.54456
v 7.716091 -6.106602 11.40845
v 7.716091 -6.106602 12.54456
v 9.893639 -7.337387 11.40845
v 10.4617 -19.07721 12.54456
v 10.4617 -8.852203 11.40845
v 10.4617 -8.852203 12.54456
v 10.4617 -19.07721 11.40845
v 9.893639 -7.337387 11.40845
v 9.893639 -7.337387 12.54456
v 4.875813 -8.852203 12.54456
v 4.875813 -19.07721 11.40845
v 4.875813 -19.07721 12.54456
v 4.875813 -8.852203 11.40845
v 5.443871 -7.337387 12.54456
v 5.443871 -7.337387 11.40845
v 7.716091 -6.106602 12.54456
v 5.443871 -7.337387 11.40845
v 5.443871 -7.337387 12.54456
v 7.716091 -6.106602 11.40845
v 44.45037 15.10081 -27.97675
v 44.45037 -2.508915 -10.27234
v 44.45037 15.10081 -10.27234
v 44.45037 -2.508915 -27.97675
v 28.82883 -2.508915 7.148033
v 28.82883 15.10081 11.78716
v 28.82883 15.10081 7.148033
v 28.82883 -2.508915 11.78716
v 28.82883 15.10081 7.148033
v 44.45037 -2.508915 7.148033
v 28.82883 -2.508915 7.148033
v 44.45037 15.10081 7.148033
v 28.82883 -2.508915 -27.97675
v 44.45037 15.10081 -27.97675
v 28.82883 15.10081 -27.97675
v 44.45037 -2.508915 -27.97675
v 0.1420135 -2.508915 -27.97675
v 14.53276 15.10081 -27.97675
v 0.1420135 15.10081 -27.97675
v 14.53276 -2.508915 -27.97675
v 28.82883 15.10081 11.78716
v 14.53276 -2.508915 11.78716
v 14.53276 15.10081 11.78716
v 28.82883 -2.508915 11.78716
v 14.53276 15.10081 11.78716
v 0.1420135 -2.508915 11.78716
v 0.1420135 15.10081 11.78716
v 14.53276 -2.508915 11.78716
v 44.45037 15.10081 -10.27234
v 44.45037 -2.508915 7.148033
v 44.45037 15.10081 7.148033
v 44.45037 -2.508915 -10.27234
v 14.53276 -2.508915 -27.97675
v 28.82883 15.10081 -27.97675
v 14.53276 15.10081 -27.97675
v 28.82883 -2.508915 -27.97675
v -44.16634 15.10081 -27.97675
v -44.16634 -2.508915 -10.27234
v -44.16634 -2.508915 -27.97675
v -44.16634 15.10081 -10.27234
v -28.5448 -2.508915 7.148033
v -28.5448 15.10081 11.78716
v -28.5448 -2.508915 11.78716
v -28.5448 15.10081 7.148033
v -28.5448 15.10081 7.148033
v -44.16634 -2.508915 7.148033
v -44.16634 15.10081 7.148033
v -28.5448 -2.508915 7.148033
v -28.5448 -2.508915 -27.97675
v -44.16634 15.10081 -27.97675
v -44.16634 -2.508915 -27.97675
v -28.5448 15.10081 -27.97675
v 0.1420135 -2.508915 -27.97675
v -14.15406 15.10081 -27.97675
v -14.15406 -2.508915 -27.97675
v 0.1420135 15.10081 -27.97675
v -28.5448 15.10081 11.78716
v -14.15406 -2.508915 11.78716
v -28.5448 -2.508915 11.78716
v -14.15406 15.10081 11.78716
v -14.15406 15.10081 11.78716
v 0.1420135 -2.508915 11.78716
v -14.15406 -2.508915 11.78716
v 0.1420135 15.10081 11.78716
v -44.16634 15.10081 -10.27234
v -44.16634 -2.508915 7.148033
v -44.16634 -2.508915 -10.27234
v -44.16634 15.10081 7.148033
v -14.15406 -2.508915 -27.97675
v -28.5448 15.10081 -27.97675
v -28.5448 -2.508915 -27.97675
v -14.15406 15.10081 -27.97675
v 46.15453 17.37304 -28.82883
v 46.15453 16.52096 -10.4617
v 46.15453 17.37304 -10.4617
v 46.15453 16.52096 -28.82883
v 14.72211 17.37304 12.54456
v 0.04734039 16.52096 12.54456
v 0.04734039 17.37304 12.54456
v 14.72211 16.52096 12.54456
v 30.1543 16.52096 7.810768
v 30.1543 17.37304 12.54456
v 30.1543 17.37304 7.810768
v 30.1543 16.52096 12.54456
v 30.1543 17.37304 7.810768
v 46.15453 16.52096 7.810768
v 30.1543 16.52096 7.810768
v 46.15453 17.37304 7.810768
v 43.69296 18.03577 -27.50337
v 46.15453 17.37304 -10.4617
v 43.69296 18.03577 -10.27234
v 46.15453 17.37304 -28.82883
v 46.15453 17.37304 7.810768
v 43.69296 18.03577 6.769329
v 43.69296 14.34341 -10.27234
v 46.15453 16.52096 -28.82883
v 43.69296 14.34341 -27.50337
v 46.15453 16.52096 -10.4617
v 14.72211 18.03577 11.31378
v 0.04734039 17.37304 12.54456
v 0.04734039 18.03577 11.31378
v 14.72211 17.37304 12.54456
v 28.1661 18.03577 11.31378
v 30.1543 17.37304 12.54456
v 0.04734039 14.34341 11.31378
v 14.72211 16.52096 12.54456
v 14.72211 14.34341 11.31378
v 0.04734039 16.52096 12.54456
v 28.1661 18.03577 6.769329
v 30.1543 17.37304 12.54456
v 28.1661 18.03577 11.31378
v 30.1543 17.37304 7.810768
v 28.1661 14.34341 11.31378
v 30.1543 16.52096 7.810768
v 28.1661 14.34341 6.769329
v 30.1543 16.52096 12.54456
v 28.1661 14.34341 6.769329
v 46.15453 16.52096 7.810768
v 43.69296 14.34341 6.769329
v 30.1543 16.52096 7.810768
v 43.69296 18.03577 6.769329
v 30.1543 17.37304 7.810768
v 28.1661 18.03577 6.769329
v 46.15453 17.37304 7.810768
v 0.04734039 17.37304 -28.82883
v 15.10082 18.03577 -27.50337
v 0.04734039 18.03577 -27.50337
v 15.10082 17.37304 -28.82883
v 29.96494 18.03577 -27.50337
v 29.96494 17.37304 -28.82883
v 43.69296 18.03577 -27.50337
v 46.15453 17.37304 -28.82883
v 0.04734039 16.52096 -28.82883
v 15.10082 17.37304 -28.82883
v 0.04734039 17.37304 -28.82883
v 15.10082 16.52096 -28.82883
v 0.04734039 14.34341 -27.50337
v 15.10082 16.52096 -28.82883
v 0.04734039 16.52096 -28.82883
v 15.10082 14.34341 -27.50337
v 14.72211 14.34341 11.31378
v 30.1543 16.52096 12.54456
v 28.1661 14.34341 11.31378
v 14.72211 16.52096 12.54456
v 30.1543 17.37304 12.54456
v 14.72211 16.52096 12.54456
v 14.72211 17.37304 12.54456
v 30.1543 16.52096 12.54456
v 29.96494 16.52096 -28.82883
v 46.15453 17.37304 -28.82883
v 29.96494 17.37304 -28.82883
v 46.15453 16.52096 -28.82883
v 29.96494 14.34341 -27.50337
v 46.15453 16.52096 -28.82883
v 29.96494 16.52096 -28.82883
v 43.69296 14.34341 -27.50337
v 15.10082 16.52096 -28.82883
v 29.96494 17.37304 -28.82883
v 15.10082 17.37304 -28.82883
v 29.96494 16.52096 -28.82883
v 15.10082 14.34341 -27.50337
v 29.96494 16.52096 -28.82883
v 15.10082 16.52096 -28.82883
v 29.96494 14.34341 -27.50337
v 46.15453 16.52096 -10.4617
v 46.15453 17.37304 7.810768
v 46.15453 17.37304 -10.4617
v 46.15453 16.52096 7.810768
v 43.69296 14.34341 6.769329
v 46.15453 16.52096 -10.4617
v 43.69296 14.34341 -10.27234
v 46.15453 16.52096 7.810768
v -46.05986 17.37304 -28.82883
v -46.05986 16.52096 -10.4617
v -46.05986 16.52096 -28.82883
v -46.05986 17.37304 -10.4617
v -14.43808 17.37304 12.54456
v 0.04734039 16.52096 12.54456
v -14.43808 16.52096 12.54456
v 0.04734039 17.37304 12.54456
v -29.96494 16.52096 7.810768
v -29.96494 17.37304 12.54456
v -29.96494 16.52096 12.54456
v -29.96494 17.37304 7.810768
v -29.96494 17.37304 7.810768
v -46.05986 16.52096 7.810768
v -46.05986 17.37304 7.810768
v -29.96494 16.52096 7.810768
v -43.50361 18.03577 -27.50337
v -46.05986 17.37304 -10.4617
v -46.05986 17.37304 -28.82883
v -43.50361 18.03577 -10.27234
v -46.05986 17.37304 7.810768
v -43.50361 18.03577 6.769329
v -43.50361 14.34341 -10.27234
v -46.05986 16.52096 -28.82883
v -46.05986 16.52096 -10.4617
v -43.50361 14.34341 -27.50337
v -14.43808 18.03577 11.31378
v 0.04734039 17.37304 12.54456
v -14.43808 17.37304 12.54456
v 0.04734039 18.03577 11.31378
v -28.07143 18.03577 11.31378
v -29.96494 17.37304 12.54456
v 0.04734039 14.34341 11.31378
v -14.43808 16.52096 12.54456
v 0.04734039 16.52096 12.54456
v -14.43808 14.34341 11.31378
v -28.07143 18.03577 6.769329
v -29.96494 17.37304 12.54456
v -29.96494 17.37304 7.810768
v -28.07143 18.03577 11.31378
v -28.07143 14.34341 11.31378
v -29.96494 16.52096 7.810768
v -29.96494 16.52096 12.54456
v -28.07143 14.34341 6.769329
v -28.07143 14.34341 6.769329
v -46.05986 16.52096 7.810768
v -29.96494 16.52096 7.810768
v -43.50361 14.34341 6.769329
v -43.50361 18.03577 6.769329
v -29.96494 17.37304 7.810768
v -46.05986 17.37304 7.810768
v -28.07143 18.03577 6.769329
v 0.04734039 17.37304 -28.82883
v -14.91146 18.03577 -27.50337
v -14.91146 17.37304 -28.82883
v 0.04734039 18.03577 -27.50337
v -29.87027 18.03577 -27.50337
v -29.87027 17.37304 -28.82883
v -43.50361 18.03577 -27.50337
v -46.05986 17.37304 -28.82883
v 0.04734039 16.52096 -28.82883
v -14.91146 17.37304 -28.82883
v -14.91146 16.52096 -28.82883
v 0.04734039 17.37304 -28.82883
v 0.04734039 14.34341 -27.50337
v -14.91146 16.52096 -28.82883
v -14.91146 14.34341 -27.50337
v 0.04734039 16.52096 -28.82883
v -14.43808 14.34341 11.31378
v -29.96494 16.52096 12.54456
v -14.43808 16.52096 12.54456
v -28.07143 14.34341 11.31378
v -29.96494 17.37304 12.54456
v -14.43808 16.52096 12.54456
v -29.96494 16.52096 12.54456
v -14.43808 17.37304 12.54456
v -29.87027 16.52096 -28.82883
v -46.05986 17.37304 -28.82883
v -46.05986 16.52096 -28.82883
v -29.87027 17.37304 -28.82883
v -29.87027 14.34341 -27.50337
v -46.05986 16.52096 -28.82883
v -43.50361 14.34341 -27.50337
v -29.87027 16.52096 -28.82883
v -14.91146 16.52096 -28.82883
v -29.87027 17.37304 -28.82883
v -29.87027 16.52096 -28.82883
v -14.91146 17.37304 -28.82883
v -14.91146 14.34341 -27.50337
v -29.87027 16.52096 -28.82883
v -29.87027 14.34341 -27.50337
v -14.91146 16.52096 -28.82883
v -46.05986 16.52096 -10.4617
v -46.05986 17.37304 7.810768
v -46.05986 16.52096 7.810768
v -46.05986 17.37304 -10.4617
v -43.50361 14.34341 6.769329
v -46.05986 16.52096 -10.4617
v -46.05986 16.52096 7.810768
v -43.50361 14.34341 -10.27234
v 28.82883 19.36124 -27.97675
v 44.63972 19.36124 -10.36702
v 28.82883 19.36124 -10.36702
v 44.63972 19.36124 -27.97675
v 0.04734039 19.36124 7.05336
v 14.53276 19.36124 11.78716
v 0.04734039 19.36124 11.78716
v 14.53276 19.36124 7.05336
v 0.04734039 19.36124 -27.97675
v 14.53276 19.36124 -10.36702
v 0.04734039 19.36124 -10.36702
v 14.53276 19.36124 -27.97675
v 14.53276 17.08901 -27.97675
v 0.04734039 19.36124 -27.97675
v 0.04734039 17.08901 -27.97675
v 14.53276 19.36124 -27.97675
v 44.63972 17.08901 -27.97675
v 28.82883 19.36124 -27.97675
v 28.82883 17.08901 -27.97675
v 44.63972 19.36124 -27.97675
v 44.63972 19.36124 -27.97675
v 44.63972 17.08901 -10.36702
v 44.63972 19.36124 -10.36702
v 44.63972 17.08901 -27.97675
v 28.82883 19.36124 7.05336
v 44.63972 17.08901 7.05336
v 28.82883 17.08901 7.05336
v 44.63972 19.36124 7.05336
v 28.82883 17.08901 11.78716
v 28.82883 19.36124 7.05336
v 28.82883 17.08901 7.05336
v 28.82883 19.36124 11.78716
v 14.53276 19.36124 11.78716
v 0.04734039 17.08901 11.78716
v 0.04734039 19.36124 11.78716
v 14.53276 17.08901 11.78716
v 28.82883 19.36124 11.78716
v 28.82883 17.08901 11.78716
v 0.04734039 19.36124 -10.36702
v 14.53276 19.36124 7.05336
v 0.04734039 19.36124 7.05336
v 14.53276 19.36124 -10.36702
v 44.63972 19.36124 -10.36702
v 28.82883 19.36124 7.05336
v 28.82883 19.36124 -10.36702
v 44.63972 19.36124 7.05336
v 44.63972 17.08901 -10.36702
v 44.63972 19.36124 7.05336
v 44.63972 19.36124 -10.36702
v 44.63972 17.08901 7.05336
v 14.53276 19.36124 7.05336
v 28.82883 19.36124 11.78716
v 14.53276 19.36124 11.78716
v 28.82883 19.36124 7.05336
v 14.53276 19.36124 -10.36702
v 28.82883 19.36124 7.05336
v 14.53276 19.36124 7.05336
v 28.82883 19.36124 -10.36702
v 14.53276 19.36124 -27.97675
v 28.82883 19.36124 -10.36702
v 14.53276 19.36124 -10.36702
v 28.82883 19.36124 -27.97675
v 28.82883 17.08901 -27.97675
v 14.53276 19.36124 -27.97675
v 14.53276 17.08901 -27.97675
v 28.82883 19.36124 -27.97675
v -28.63948 19.36124 -27.97675
v -44.45036 19.36124 -10.36702
v -44.45036 19.36124 -27.97675
v -28.63948 19.36124 -10.36702
v 0.04734039 19.36124 7.05336
v -14.24873 19.36124 11.78716
v -14.24873 19.36124 7.05336
v 0.04734039 19.36124 11.78716
v 0.04734039 19.36124 -27.97675
v -14.24873 19.36124 -10.36702
v -14.24873 19.36124 -27.97675
v 0.04734039 19.36124 -10.36702
v -14.24873 17.08901 -27.97675
v 0.04734039 19.36124 -27.97675
v -14.24873 19.36124 -27.97675
v 0.04734039 17.08901 -27.97675
v -44.45036 17.08901 -27.97675
v -28.63948 19.36124 -27.97675
v -44.45036 19.36124 -27.97675
v -28.63948 17.08901 -27.97675
v -44.45036 19.36124 -27.97675
v -44.45036 17.08901 -10.36702
v -44.45036 17.08901 -27.97675
v -44.45036 19.36124 -10.36702
v -28.63948 19.36124 7.05336
v -44.45036 17.08901 7.05336
v -44.45036 19.36124 7.05336
v -28.63948 17.08901 7.05336
v -28.63948 17.08901 11.78716
v -28.63948 19.36124 7.05336
v -28.63948 19.36124 11.78716
v -28.63948 17.08901 7.05336
v -14.24873 19.36124 11.78716
v 0.04734039 17.08901 11.78716
v -14.24873 17.08901 11.78716
v 0.04734039 19.36124 11.78716
v -28.63948 19.36124 11.78716
v -28.63948 17.08901 11.78716
v 0.04734039 19.36124 -10.36702
v -14.24873 19.36124 7.05336
v -14.24873 19.36124 -10.36702
v 0.04734039 19.36124 7.05336
v -44.45036 19.36124 -10.36702
v -28.63948 19.36124 7.05336
v -44.45036 19.36124 7.05336
v -28.63948 19.36124 -10.36702
v -44.45036 17.08901 -10.36702
v -44.45036 19.36124 7.05336
v -44.45036 17.08901 7.05336
v -44.45036 19.36124 -10.36702
v -14.24873 19.36124 7.05336
v -28.63948 19.36124 11.78716
v -28.63948 19.36124 7.05336
v -14.24873 19.36124 11.78716
v -14.24873 19.36124 -10.36702
v -28.63948 19.36124 7.05336
v -28.63948 19.36124 -10.36702
v -14.24873 19.36124 7.05336
v -14.24873 19.36124 -27.97675
v -28.63948 19.36124 -10.36702
v -28.63948 19.36124 -27.97675
v -14.24873 19.36124 -10.36702
v -28.63948 17.08901 -27.97675
v -14.24873 19.36124 -27.97675
v -28.63948 19.36124 -27.97675
v -14.24873 17.08901 -27.97675
vt 0.8050265 0.09051032
vt 0.9448231 0.005079034
vt 0.8050265 0.005079034
vt 0.9254069 0.09051032
vt 0.7700773 0.005079034
vt 0.9448231 0.09051032
vt 0.7700773 0.09051032
vt 0.9953053 0.005079034
vt 0.7817271 0.4671846
vt 0.9564729 0.2885556
vt 0.9564729 0.4671846
vt 0.7817271 0.2885556
vt 0.8050265 0.09051032
vt 0.9448231 0.005079034
vt 0.9254069 0.09051032
vt 0.8050265 0.005079034
vt 0.7700773 0.005079034
vt 0.9448231 0.09051032
vt 0.9953053 0.005079034
vt 0.7700773 0.09051032
vt 0.7817271 0.4671846
vt 0.9564729 0.2885556
vt 0.7817271 0.2885556
vt 0.9564729 0.4671846
vt 0.4982505 0.4594181
vt 0.6846461 0.4671846
vt 0.6846461 0.4594181
vt 0.4982505 0.4671846
vt 0.4982505 0.4633014
vt 0.52155 0.4516517
vt 0.4982505 0.4516517
vt 0.52155 0.4633014
vt 0.4982505 0.4671846
vt 0.5797986 0.4594181
vt 0.4982505 0.4594181
vt 0.5797986 0.4671846
vt 0.5021338 0.4516517
vt 0.6846461 0.4671846
vt 0.6846461 0.4516517
vt 0.4982505 0.4671846
vt 0.4982505 0.4516517
vt 0.5293165 0.4671846
vt 0.5176668 0.4516517
vt 0.5021338 0.4671846
vt 0.5797986 0.4633014
vt 0.506017 0.4594181
vt 0.4982505 0.4633014
vt 0.5875651 0.4594181
vt 0.6574634 0.4671846
vt 0.4982505 0.4594181
vt 0.4982505 0.4671846
vt 0.6574634 0.4594181
vt 0.6458136 0.4633014
vt 0.4982505 0.4594181
vt 0.4982505 0.4633014
vt 0.6535801 0.4594181
vt 0.4982505 0.4671846
vt 0.7273617 0.4594181
vt 0.4982505 0.4594181
vt 0.7390114 0.4671846
vt 0.4982505 0.4671846
vt 0.7390114 0.4594181
vt 0.4982505 0.4594181
vt 0.7390114 0.4671846
vt 0.4982505 0.4594181
vt 0.6846461 0.4671846
vt 0.4982505 0.4671846
vt 0.6846461 0.4594181
vt 0.4982505 0.4633014
vt 0.52155 0.4516517
vt 0.52155 0.4633014
vt 0.4982505 0.4516517
vt 0.4982505 0.4671846
vt 0.5797986 0.4594181
vt 0.5797986 0.4671846
vt 0.4982505 0.4594181
vt 0.5021338 0.4516517
vt 0.6846461 0.4671846
vt 0.4982505 0.4671846
vt 0.6846461 0.4516517
vt 0.4982505 0.4516517
vt 0.5293165 0.4671846
vt 0.5021338 0.4671846
vt 0.5176668 0.4516517
vt 0.5797986 0.4633014
vt 0.506017 0.4594181
vt 0.5875651 0.4594181
vt 0.4982505 0.4633014
vt 0.6574634 0.4671846
vt 0.4982505 0.4594181
vt 0.6574634 0.4594181
vt 0.4982505 0.4671846
vt 0.6458136 0.4633014
vt 0.4982505 0.4594181
vt 0.6535801 0.4594181
vt 0.4982505 0.4633014
vt 0.4982505 0.4671846
vt 0.7273617 0.4594181
vt 0.7390114 0.4671846
vt 0.4982505 0.4594181
vt 0.4982505 0.4671846
vt 0.7390114 0.4594181
vt 0.7390114 0.4671846
vt 0.4982505 0.4594181
vt 0.7195953 0.4516517
vt 0.5176668 0.2769058
vt 0.5176668 0.4516517
vt 0.7195953 0.2769058
vt 0.6419304 0.2769058
vt 0.6885293 0.4516517
vt 0.6419304 0.4516517
vt 0.6885293 0.2769058
vt 0.7040623 0.4516517
vt 0.5331997 0.2769058
vt 0.5331997 0.4516517
vt 0.7040623 0.2769058
vt 0.700179 0.4671846
vt 0.6302807 0.4594181
vt 0.7040623 0.4594181
vt 0.6302807 0.4671846
vt 0.5526159 0.4594181
vt 0.5564991 0.4671846
vt 0.6458136 0.4671846
vt 0.6108645 0.4594181
vt 0.6380472 0.4594181
vt 0.6225142 0.4671846
vt 0.5681489 0.4710678
vt 0.6885293 0.4594181
vt 0.5487326 0.4594181
vt 0.7079455 0.4710678
vt 0.3972863 0.6419304
vt 0.3739868 0.6263974
vt 0.4011695 0.6263974
vt 0.3739868 0.6535801
vt 0.3739868 0.5099003
vt 0.4011695 0.5099003
vt 0.3429209 0.6263974
vt 0.3429209 0.5099003
vt 0.3468042 0.6419304
vt 0.5176668 0.4516517
vt 0.7195953 0.2769058
vt 0.7195953 0.4516517
vt 0.5176668 0.2769058
vt 0.7234784 0.4594181
vt 0.5526159 0.4671846
vt 0.5526159 0.4594181
vt 0.7234784 0.4710678
vt 0.7467779 0.4516517
vt 0.4982505 0.2807891
vt 0.4982505 0.4516517
vt 0.7467779 0.2807891
vt 0.5526159 0.4594181
vt 0.700179 0.4710678
vt 0.7195953 0.4594181
vt 0.5526159 0.4671846
vt 0.4982505 0.4516517
vt 0.7467779 0.2807891
vt 0.7467779 0.4516517
vt 0.4982505 0.2807891
vt 0.6846461 0.4710678
vt 0.7390114 0.4594181
vt 0.6846461 0.4594181
vt 0.7390114 0.4710678
vt 0.5176668 0.4594181
vt 0.5331997 0.4710678
vt 0.52155 0.4011695
vt 0.5564991 0.3895198
vt 0.5331997 0.3895198
vt 0.5603824 0.4011695
vt 0.5331997 0.2807891
vt 0.5564991 0.2807891
vt 0.5797986 0.4205857
vt 0.4982505 0.4205857
vt 0.4982505 0.4516517
vt 0.5797986 0.4516517
vt 0.3972863 0.6263974
vt 0.3739868 0.6535801
vt 0.3739868 0.6263974
vt 0.3972863 0.6419304
vt 0.3972863 0.5099003
vt 0.3739868 0.5099003
vt 0.715712 0.327388
vt 0.700179 0.311855
vt 0.700179 0.327388
vt 0.715712 0.311855
vt 0.715712 0.311855
vt 0.700179 0.296322
vt 0.700179 0.311855
vt 0.715712 0.296322
vt 0.715712 0.4400019
vt 0.700179 0.327388
vt 0.700179 0.4400019
vt 0.715712 0.327388
vt 0.4982505 0.4205857
vt 0.7428946 0.4516517
vt 0.4982505 0.4516517
vt 0.52155 0.4011695
vt 0.5331997 0.3895198
vt 0.7428946 0.2807891
vt 0.5331997 0.2807891
vt 0.6729963 0.311855
vt 0.6613466 0.296322
vt 0.6613466 0.311855
vt 0.6729963 0.296322
vt 0.6729963 0.4400019
vt 0.6613466 0.327388
vt 0.6613466 0.4400019
vt 0.6729963 0.327388
vt 0.6613466 0.311855
vt 0.6729963 0.311855
vt 0.6885293 0.4128192
vt 0.6846461 0.296322
vt 0.6846461 0.4128192
vt 0.6885293 0.296322
vt 0.6885293 0.424469
vt 0.6846461 0.424469
vt 0.6885293 0.4400019
vt 0.6846461 0.424469
vt 0.6846461 0.4400019
vt 0.6885293 0.424469
vt 0.7195953 0.4516517
vt 0.5176668 0.2769058
vt 0.7195953 0.2769058
vt 0.5176668 0.4516517
vt 0.6419304 0.2769058
vt 0.6885293 0.4516517
vt 0.6885293 0.2769058
vt 0.6419304 0.4516517
vt 0.7040623 0.4516517
vt 0.5331997 0.2769058
vt 0.7040623 0.2769058
vt 0.5331997 0.4516517
vt 0.700179 0.4671846
vt 0.6302807 0.4594181
vt 0.6302807 0.4671846
vt 0.7040623 0.4594181
vt 0.5526159 0.4594181
vt 0.5564991 0.4671846
vt 0.6458136 0.4671846
vt 0.6108645 0.4594181
vt 0.6225142 0.4671846
vt 0.6380472 0.4594181
vt 0.5681489 0.4710678
vt 0.6885293 0.4594181
vt 0.7079455 0.4710678
vt 0.5487326 0.4594181
vt 0.3972863 0.6419304
vt 0.3739868 0.6263974
vt 0.3739868 0.6535801
vt 0.4011695 0.6263974
vt 0.3739868 0.5099003
vt 0.4011695 0.5099003
vt 0.3429209 0.6263974
vt 0.3429209 0.5099003
vt 0.3468042 0.6419304
vt 0.5176668 0.4516517
vt 0.7195953 0.2769058
vt 0.5176668 0.2769058
vt 0.7195953 0.4516517
vt 0.7234784 0.4594181
vt 0.5526159 0.4671846
vt 0.7234784 0.4710678
vt 0.5526159 0.4594181
vt 0.7467779 0.4516517
vt 0.4982505 0.2807891
vt 0.7467779 0.2807891
vt 0.4982505 0.4516517
vt 0.5526159 0.4594181
vt 0.700179 0.4710678
vt 0.5526159 0.4671846
vt 0.7195953 0.4594181
vt 0.4982505 0.4516517
vt 0.7467779 0.2807891
vt 0.4982505 0.2807891
vt 0.7467779 0.4516517
vt 0.6846461 0.4710678
vt 0.7390114 0.4594181
vt 0.7390114 0.4710678
vt 0.6846461 0.4594181
vt 0.5176668 0.4594181
vt 0.5331997 0.4710678
vt 0.52155 0.4011695
vt 0.5564991 0.3895198
vt 0.5603824 0.4011695
vt 0.5331997 0.3895198
vt 0.5331997 0.2807891
vt 0.5564991 0.2807891
vt 0.5797986 0.4205857
vt 0.4982505 0.4205857
vt 0.4982505 0.4516517
vt 0.5797986 0.4516517
vt 0.3972863 0.6263974
vt 0.3739868 0.6535801
vt 0.3972863 0.6419304
vt 0.3739868 0.6263974
vt 0.3972863 0.5099003
vt 0.3739868 0.5099003
vt 0.715712 0.327388
vt 0.700179 0.311855
vt 0.715712 0.311855
vt 0.700179 0.327388
vt 0.715712 0.311855
vt 0.700179 0.296322
vt 0.715712 0.296322
vt 0.700179 0.311855
vt 0.715712 0.4400019
vt 0.700179 0.327388
vt 0.715712 0.327388
vt 0.700179 0.4400019
vt 0.4982505 0.4205857
vt 0.7428946 0.4516517
vt 0.52155 0.4011695
vt 0.4982505 0.4516517
vt 0.5331997 0.3895198
vt 0.7428946 0.2807891
vt 0.5331997 0.2807891
vt 0.6729963 0.311855
vt 0.6613466 0.296322
vt 0.6729963 0.296322
vt 0.6613466 0.311855
vt 0.6729963 0.4400019
vt 0.6613466 0.327388
vt 0.6729963 0.327388
vt 0.6613466 0.4400019
vt 0.6613466 0.311855
vt 0.6729963 0.311855
vt 0.6885293 0.4128192
vt 0.6846461 0.296322
vt 0.6885293 0.296322
vt 0.6846461 0.4128192
vt 0.6885293 0.424469
vt 0.6846461 0.424469
vt 0.6885293 0.4400019
vt 0.6846461 0.424469
vt 0.6885293 0.424469
vt 0.6846461 0.4400019
vt 0.2497232 0.7467779
vt 0.4904841 0.5021338
vt 0.4904841 0.7467779
vt 0.2497232 0.5021338
vt 0.4943673 0.4982505
vt 0.4322354 0.7467779
vt 0.4943673 0.7467779
vt 0.4322354 0.4982505
vt 0.4827176 0.7506611
vt 0.2574897 0.4982505
vt 0.4827176 0.4982505
vt 0.2574897 0.7506611
vt 0.2769058 0.5021338
vt 0.4749511 0.7467779
vt 0.2769058 0.7467779
vt 0.4749511 0.5021338
vt 0.2769058 0.5021338
vt 0.4749511 0.7467779
vt 0.2769058 0.7467779
vt 0.4749511 0.5021338
vt 0.2730226 0.7467779
vt 0.4710678 0.5021338
vt 0.4710678 0.7467779
vt 0.2730226 0.5021338
vt 0.4710678 0.7467779
vt 0.2730226 0.5021338
vt 0.2730226 0.7467779
vt 0.4710678 0.5021338
vt 0.4904841 0.7467779
vt 0.2497232 0.5021338
vt 0.2497232 0.7467779
vt 0.4904841 0.5021338
vt 0.4749511 0.5021338
vt 0.2769058 0.7467779
vt 0.4749511 0.7467779
vt 0.2769058 0.5021338
vt 0.2497232 0.7467779
vt 0.4904841 0.5021338
vt 0.2497232 0.5021338
vt 0.4904841 0.7467779
vt 0.4943673 0.4982505
vt 0.4322354 0.7467779
vt 0.4322354 0.4982505
vt 0.4943673 0.7467779
vt 0.4827176 0.7506611
vt 0.2574897 0.4982505
vt 0.2574897 0.7506611
vt 0.4827176 0.4982505
vt 0.2769058 0.5021338
vt 0.4749511 0.7467779
vt 0.4749511 0.5021338
vt 0.2769058 0.7467779
vt 0.2769058 0.5021338
vt 0.4749511 0.7467779
vt 0.4749511 0.5021338
vt 0.2769058 0.7467779
vt 0.2730226 0.7467779
vt 0.4710678 0.5021338
vt 0.2730226 0.5021338
vt 0.4710678 0.7467779
vt 0.4710678 0.7467779
vt 0.2730226 0.5021338
vt 0.4710678 0.5021338
vt 0.2730226 0.7467779
vt 0.4904841 0.7467779
vt 0.2497232 0.5021338
vt 0.4904841 0.5021338
vt 0.2497232 0.7467779
vt 0.4749511 0.5021338
vt 0.2769058 0.7467779
vt 0.2769058 0.5021338
vt 0.4749511 0.7467779
vt 0.04391143 0.4982505
vt 0.117693 0.4904841
vt 0.1798248 0.4982505
vt 0.04391143 0.4904841
vt 0.1720584 0.4982505
vt 0.06332763 0.4904841
vt 0.06332763 0.4982505
vt 0.117693 0.4904841
vt 0.08662707 0.4904841
vt 0.1565254 0.4982505
vt 0.08662707 0.4982505
vt 0.1565254 0.4904841
vt 0.005079034 0.4982505
vt 0.2419567 0.4904841
vt 0.005079034 0.4904841
vt 0.2419567 0.4982505
vt 0.506017 0.4516517
vt 0.6147478 0.4710678
vt 0.6225142 0.4516517
vt 0.4982505 0.4710678
vt 0.7428946 0.4710678
vt 0.7351282 0.4516517
vt 0.6652299 0.4749511
vt 0.5720321 0.4594181
vt 0.5797986 0.4749511
vt 0.6652299 0.4594181
vt 0.6108645 0.4671846
vt 0.4982505 0.4516517
vt 0.4982505 0.4671846
vt 0.6108645 0.4516517
vt 0.7273617 0.4671846
vt 0.7428946 0.4516517
vt 0.6729963 0.4749511
vt 0.5720321 0.4594181
vt 0.5720321 0.4749511
vt 0.6729963 0.4594181
vt 0.5914483 0.4516517
vt 0.6458136 0.4710678
vt 0.6341639 0.4516517
vt 0.5992148 0.4710678
vt 0.6341639 0.4749511
vt 0.6069813 0.4594181
vt 0.603098 0.4749511
vt 0.6419304 0.4594181
vt 0.5564991 0.4749511
vt 0.6846461 0.4594181
vt 0.6729963 0.4749511
vt 0.5720321 0.4594181
vt 0.7040623 0.4710678
vt 0.52155 0.4516517
vt 0.4982505 0.4710678
vt 0.7428946 0.4516517
vt 0.4982505 0.4671846
vt 0.5797986 0.4594181
vt 0.4982505 0.4594181
vt 0.5797986 0.4671846
vt 0.6574634 0.4594181
vt 0.6574634 0.4671846
vt 0.7273617 0.4594181
vt 0.7428946 0.4671846
vt 0.1720584 0.4904841
vt 0.06332763 0.4982505
vt 0.1720584 0.4982505
vt 0.117693 0.4904841
vt 0.6729963 0.4749511
vt 0.5642656 0.4594181
vt 0.6729963 0.4594181
vt 0.5642656 0.4749511
vt 0.5720321 0.4749511
vt 0.6768796 0.4594181
vt 0.6652299 0.4749511
vt 0.5720321 0.4594181
vt 0.06332763 0.4982505
vt 0.117693 0.4904841
vt 0.1720584 0.4982505
vt 0.06332763 0.4904841
vt 0.117693 0.4904841
vt 0.06332763 0.4982505
vt 0.1720584 0.4982505
vt 0.06332763 0.4904841
vt 0.6729963 0.4749511
vt 0.5564991 0.4594181
vt 0.6729963 0.4594181
vt 0.5759153 0.4749511
vt 0.117693 0.4904841
vt 0.1720584 0.4982505
vt 0.06332763 0.4982505
vt 0.117693 0.4904841
vt 0.5642656 0.4749511
vt 0.6729963 0.4594181
vt 0.5642656 0.4594181
vt 0.6729963 0.4749511
vt 0.117693 0.4904841
vt 0.04391143 0.4982505
vt 0.1798248 0.4982505
vt 0.04391143 0.4904841
vt 0.5797986 0.4749511
vt 0.6652299 0.4594181
vt 0.6652299 0.4749511
vt 0.5720321 0.4594181
vt 0.04391143 0.4982505
vt 0.117693 0.4904841
vt 0.04391143 0.4904841
vt 0.1798248 0.4982505
vt 0.1720584 0.4982505
vt 0.06332763 0.4904841
vt 0.117693 0.4904841
vt 0.06332763 0.4982505
vt 0.08662707 0.4904841
vt 0.1565254 0.4982505
vt 0.1565254 0.4904841
vt 0.08662707 0.4982505
vt 0.005079034 0.4982505
vt 0.2419567 0.4904841
vt 0.2419567 0.4982505
vt 0.005079034 0.4904841
vt 0.506017 0.4516517
vt 0.6147478 0.4710678
vt 0.4982505 0.4710678
vt 0.6225142 0.4516517
vt 0.7428946 0.4710678
vt 0.7351282 0.4516517
vt 0.6652299 0.4749511
vt 0.5720321 0.4594181
vt 0.6652299 0.4594181
vt 0.5797986 0.4749511
vt 0.6108645 0.4671846
vt 0.4982505 0.4516517
vt 0.6108645 0.4516517
vt 0.4982505 0.4671846
vt 0.7273617 0.4671846
vt 0.7428946 0.4516517
vt 0.6729963 0.4749511
vt 0.5720321 0.4594181
vt 0.6729963 0.4594181
vt 0.5720321 0.4749511
vt 0.5914483 0.4516517
vt 0.6458136 0.4710678
vt 0.5992148 0.4710678
vt 0.6341639 0.4516517
vt 0.6341639 0.4749511
vt 0.6069813 0.4594181
vt 0.6419304 0.4594181
vt 0.603098 0.4749511
vt 0.5564991 0.4749511
vt 0.6846461 0.4594181
vt 0.5720321 0.4594181
vt 0.6729963 0.4749511
vt 0.7040623 0.4710678
vt 0.52155 0.4516517
vt 0.7428946 0.4516517
vt 0.4982505 0.4710678
vt 0.4982505 0.4671846
vt 0.5797986 0.4594181
vt 0.5797986 0.4671846
vt 0.4982505 0.4594181
vt 0.6574634 0.4594181
vt 0.6574634 0.4671846
vt 0.7273617 0.4594181
vt 0.7428946 0.4671846
vt 0.1720584 0.4904841
vt 0.06332763 0.4982505
vt 0.117693 0.4904841
vt 0.1720584 0.4982505
vt 0.6729963 0.4749511
vt 0.5642656 0.4594181
vt 0.5642656 0.4749511
vt 0.6729963 0.4594181
vt 0.5720321 0.4749511
vt 0.6768796 0.4594181
vt 0.5720321 0.4594181
vt 0.6652299 0.4749511
vt 0.06332763 0.4982505
vt 0.117693 0.4904841
vt 0.06332763 0.4904841
vt 0.1720584 0.4982505
vt 0.117693 0.4904841
vt 0.06332763 0.4982505
vt 0.06332763 0.4904841
vt 0.1720584 0.4982505
vt 0.6729963 0.4749511
vt 0.5564991 0.4594181
vt 0.5759153 0.4749511
vt 0.6729963 0.4594181
vt 0.117693 0.4904841
vt 0.1720584 0.4982505
vt 0.117693 0.4904841
vt 0.06332763 0.4982505
vt 0.5642656 0.4749511
vt 0.6729963 0.4594181
vt 0.6729963 0.4749511
vt 0.5642656 0.4594181
vt 0.117693 0.4904841
vt 0.04391143 0.4982505
vt 0.04391143 0.4904841
vt 0.1798248 0.4982505
vt 0.5797986 0.4749511
vt 0.6652299 0.4594181
vt 0.5720321 0.4594181
vt 0.6652299 0.4749511
vt 0.7623109 0.2458399
vt 0.9797723 0.4904841
vt 0.7623109 0.4904841
vt 0.9797723 0.2458399
vt 0.7623109 0.2458399
vt 0.9603561 0.3079718
vt 0.7623109 0.3079718
vt 0.9603561 0.2458399
vt 0.7623109 0.2458399
vt 0.9603561 0.4904841
vt 0.7623109 0.4904841
vt 0.9603561 0.2458399
vt 0.6419304 0.4516517
vt 0.5836818 0.4710678
vt 0.5836818 0.4516517
vt 0.6962958 0.4710678
vt 0.6962958 0.4516517
vt 0.5836818 0.4710678
vt 0.6419304 0.4516517
vt 0.6962958 0.4710678
vt 0.6885293 0.4710678
vt 0.6496969 0.4516517
vt 0.603098 0.4710678
vt 0.6885293 0.4516517
vt 0.5797986 0.4710678
vt 0.6885293 0.4516517
vt 0.5797986 0.4516517
vt 0.6885293 0.4710678
vt 0.6885293 0.4516517
vt 0.6691131 0.4710678
vt 0.6691131 0.4516517
vt 0.6885293 0.4710678
vt 0.6302807 0.4710678
vt 0.5293165 0.4516517
vt 0.5293165 0.4710678
vt 0.6302807 0.4516517
vt 0.7312449 0.4710678
vt 0.7312449 0.4516517
vt 0.7623109 0.4904841
vt 0.9603561 0.2458399
vt 0.7623109 0.2458399
vt 0.9603561 0.4904841
vt 0.9797723 0.4904841
vt 0.7623109 0.2458399
vt 0.7623109 0.4904841
vt 0.9797723 0.2458399
vt 0.6496969 0.4516517
vt 0.6885293 0.4710678
vt 0.603098 0.4710678
vt 0.6885293 0.4516517
vt 0.9603561 0.2458399
vt 0.7623109 0.3079718
vt 0.9603561 0.3079718
vt 0.7623109 0.2458399
vt 0.9603561 0.4904841
vt 0.7623109 0.2458399
vt 0.9603561 0.2458399
vt 0.7623109 0.4904841
vt 0.9603561 0.2458399
vt 0.7623109 0.4904841
vt 0.9603561 0.4904841
vt 0.7623109 0.2458399
vt 0.6419304 0.4516517
vt 0.6962958 0.4710678
vt 0.6419304 0.4516517
vt 0.5836818 0.4710678
vt 0.7623109 0.2458399
vt 0.9797723 0.4904841
vt 0.9797723 0.2458399
vt 0.7623109 0.4904841
vt 0.7623109 0.2458399
vt 0.9603561 0.3079718
vt 0.9603561 0.2458399
vt 0.7623109 0.3079718
vt 0.7623109 0.2458399
vt 0.9603561 0.4904841
vt 0.9603561 0.2458399
vt 0.7623109 0.4904841
vt 0.6419304 0.4516517
vt 0.5836818 0.4710678
vt 0.6962958 0.4710678
vt 0.5836818 0.4516517
vt 0.6962958 0.4516517
vt 0.5836818 0.4710678
vt 0.6962958 0.4710678
vt 0.6419304 0.4516517
vt 0.6885293 0.4710678
vt 0.6496969 0.4516517
vt 0.6885293 0.4516517
vt 0.603098 0.4710678
vt 0.5797986 0.4710678
vt 0.6885293 0.4516517
vt 0.6885293 0.4710678
vt 0.5797986 0.4516517
vt 0.6885293 0.4516517
vt 0.6691131 0.4710678
vt 0.6885293 0.4710678
vt 0.6691131 0.4516517
vt 0.6302807 0.4710678
vt 0.5293165 0.4516517
vt 0.6302807 0.4516517
vt 0.5293165 0.4710678
vt 0.7312449 0.4710678
vt 0.7312449 0.4516517
vt 0.7623109 0.4904841
vt 0.9603561 0.2458399
vt 0.9603561 0.4904841
vt 0.7623109 0.2458399
vt 0.9797723 0.4904841
vt 0.7623109 0.2458399
vt 0.9797723 0.2458399
vt 0.7623109 0.4904841
vt 0.6496969 0.4516517
vt 0.6885293 0.4710678
vt 0.6885293 0.4516517
vt 0.603098 0.4710678
vt 0.9603561 0.2458399
vt 0.7623109 0.3079718
vt 0.7623109 0.2458399
vt 0.9603561 0.3079718
vt 0.9603561 0.4904841
vt 0.7623109 0.2458399
vt 0.7623109 0.4904841
vt 0.9603561 0.2458399
vt 0.9603561 0.2458399
vt 0.7623109 0.4904841
vt 0.7623109 0.2458399
vt 0.9603561 0.4904841
vt 0.6419304 0.4516517
vt 0.6962958 0.4710678
vt 0.5836818 0.4710678
vt 0.6419304 0.4516517
vn 0.04761302 0.9363899 0.3477167
vn 0.04761302 0.9363899 0.3477167
vn 0.04761302 0.9363899 0.3477167
vn 0.04761302 0.9363899 0.3477167
vn 0.5510615 0.8344646 0
vn 0.5510615 0.8344646 0
vn 0.5510615 0.8344646 0
vn 0.5510615 0.8344646 0
vn 0.01587099 0.999874 -0.000345267
vn 0.01587099 0.999874 -0.000345267
vn 0.01587099 0.999874 -0.000345267
vn 0.01587099 0.999874 -0.000345267
vn 0.04761302 0.9363899 0.3477167
vn 0.04761302 0.9363899 0.3477167
vn 0.04761302 0.9363899 0.3477167
vn 0.04761302 0.9363899 0.3477167
vn -0.4920015 0.8411639 -0.2244501
vn -0.4920015 0.8411639 -0.2244501
vn -0.4920015 0.8411639 -0.2244501
vn -0.4920015 0.8411639 -0.2244501
vn 0.01587099 0.999874 -0.000345267
vn 0.01587099 0.999874 -0.000345267
vn 0.01587099 0.999874 -0.000345267
vn 0.01587099 0.999874 -0.000345267
vn 0.999874 -0.01587099 -0.000346655
vn 0.999874 -0.01587099 -0.000346655
vn 0.999874 -0.01587099 -0.000346655
vn 0.999874 -0.01587099 -0.000346655
vn 0.999874 -0.01587099 -0.000346655
vn 0.999874 -0.01587099 -0.000346655
vn 0.999874 -0.01587099 -0.000346655
vn 0.999874 -0.01587099 -0.000346655
vn 0.04761302 -0.04761302 0.9977304
vn 0.04761302 -0.04761302 0.9977304
vn 0.04761302 -0.04761302 0.9977304
vn 0.04761302 -0.04761302 0.9977304
vn 0.01587099 0.999874 -0.000345267
vn 0.01587099 0.999874 -0.000345267
vn 0.01587099 0.999874 -0.000345267
vn 0.01587099 0.999874 -0.000345267
vn 0.01587099 0.999874 -0.000345267
vn 0.01587099 0.999874 -0.000345267
vn 0.01587099 0.999874 -0.000345267
vn 0.01587099 0.999874 -0.000345267
vn 0.01587099 0.999874 -0.000345267
vn 0.01587099 0.999874 -0.000345267
vn 0.01587099 0.999874 -0.000345267
vn 0.01587099 0.999874 -0.000345267
vn 0.04761302 -0.04761302 0.9977304
vn 0.04761302 -0.04761302 0.9977304
vn 0.04761302 -0.04761302 0.9977304
vn 0.04761302 -0.04761302 0.9977304
vn 0.01587099 0.999874 -0.000345267
vn 0.01587099 0.999874 -0.000345267
vn 0.01587099 0.999874 -0.000345267
vn 0.01587099 0.999874 -0.000345267
vn 0.01587099 0.999874 -0.000345267
vn 0.01587099 0.999874 -0.000345267
vn 0.01587099 0.999874 -0.000345267
vn 0.01587099 0.999874 -0.000345267
vn 0.04761302 -0.04761302 -0.9977304
vn 0.04761302 -0.04761302 -0.9977304
vn 0.04761302 -0.04761302 -0.9977304
vn 0.04761302 -0.04761302 -0.9977304
vn -0.999874 -0.01587099 -0.000346655
vn -0.999874 -0.01587099 -0.000346655
vn -0.999874 -0.01587099 -0.000346655
vn -0.999874 -0.01587099 -0.000346655
vn -0.999874 -0.01587099 -0.000346655
vn -0.999874 -0.01587099 -0.000346655
vn -0.999874 -0.01587099 -0.000346655
vn -0.999874 -0.01587099 -0.000346655
vn 0.04761302 -0.04761302 0.9977304
vn 0.04761302 -0.04761302 0.9977304
vn 0.04761302 -0.04761302 0.9977304
vn 0.04761302 -0.04761302 0.9977304
vn 0.01587099 0.999874 -0.000345267
vn 0.01587099 0.999874 -0.000345267
vn 0.01587099 0.999874 -0.000345267
vn 0.01587099 0.999874 -0.000345267
vn 0.01587099 0.999874 -0.000345267
vn 0.01587099 0.999874 -0.000345267
vn 0.01587099 0.999874 -0.000345267
vn 0.01587099 0.999874 -0.000345267
vn 0.01587099 0.999874 -0.000345267
vn 0.01587099 0.999874 -0.000345267
vn 0.01587099 0.999874 -0.000345267
vn 0.01587099 0.999874 -0.000345267
vn 0.04761302 -0.04761302 0.9977304
vn 0.04761302 -0.04761302 0.9977304
vn 0.04761302 -0.04761302 0.9977304
vn 0.04761302 -0.04761302 0.9977304
vn 0.01587099 0.999874 -0.000345267
vn 0.01587099 0.999874 -0.000345267
vn 0.01587099 0.999874 -0.000345267
vn 0.01587099 0.999874 -0.000345267
vn 0.01587099 0.999874 -0.000345267
vn 0.01587099 0.999874 -0.000345267
vn 0.01587099 0.999874 -0.000345267
vn 0.01587099 0.999874 -0.000345267
vn 0.04761302 -0.04761302 -0.9977304
vn 0.04761302 -0.04761302 -0.9977304
vn 0.04761302 -0.04761302 -0.9977304
vn 0.04761302 -0.04761302 -0.9977304
vn -0.999874 -0.01587099 -0.000346655
vn -0.999874 -0.01587099 -0.000346655
vn -0.999874 -0.01587099 -0.000346655
vn -0.999874 -0.01587099 -0.000346655
vn -0.999874 -0.01587099 -0.000346655
vn -0.999874 -0.01587099 -0.000346655
vn -0.999874 -0.01587099 -0.000346655
vn -0.999874 -0.01587099 -0.000346655
vn 0.04761302 -0.04761302 0.9977304
vn 0.04761302 -0.04761302 0.9977304
vn 0.04761302 -0.04761302 0.9977304
vn 0.04761302 -0.04761302 0.9977304
vn -0.2380652 0.9363899 -0.2578737
vn -0.2380652 0.9363899 -0.2578737
vn -0.2380652 0.9363899 -0.2578737
vn -0.2380652 0.9363899 -0.2578737
vn -0.2380652 0.9363899 -0.2578737
vn -0.2380652 0.9363899 -0.2578737
vn -0.3332913 0.9363899 -0.1099582
vn -0.3332913 0.9363899 -0.1099582
vn -0.3332913 0.9363899 -0.1099582
vn -0.3332913 0.9363899 -0.1099582
vn 0.04761302 0.8094218 0.5852943
vn 0.04761302 0.8094218 0.5852943
vn 0.04761302 0.8094218 0.5852943
vn 0.04761302 0.8094218 0.5852943
vn 0.04761302 -0.04761302 0.9977304
vn 0.04761302 -0.04761302 0.9977304
vn 0.04761302 -0.04761302 0.9977304
vn 0.04761302 -0.04761302 0.9977304
vn 0.04761302 -0.04761302 0.9977304
vn 0.04761302 -0.04761302 0.9977304
vn 0.04761302 -0.04761302 0.9977304
vn 0.04761302 -0.04761302 0.9977304
vn 0.04761302 -0.04761302 0.9977304
vn -0.999874 -0.01587099 -0.000346655
vn -0.999874 -0.01587099 -0.000346655
vn -0.999874 -0.01587099 -0.000346655
vn -0.999874 -0.01587099 -0.000346655
vn 0.04761302 0.8729059 -0.4855599
vn 0.04761302 0.8729059 -0.4855599
vn 0.04761302 0.8729059 -0.4855599
vn 0.04761302 0.8729059 -0.4855599
vn 0.04761302 -0.04761302 -0.9977304
vn 0.04761302 -0.04761302 -0.9977304
vn 0.04761302 -0.04761302 -0.9977304
vn 0.04761302 -0.04761302 -0.9977304
vn 0.04761302 0.8729059 -0.4855599
vn 0.04761302 0.8729059 -0.4855599
vn 0.04761302 0.8729059 -0.4855599
vn 0.04761302 0.8729059 -0.4855599
vn 0.04761302 -0.04761302 -0.9977304
vn 0.04761302 -0.04761302 -0.9977304
vn 0.04761302 -0.04761302 -0.9977304
vn 0.04761302 -0.04761302 -0.9977304
vn 0.04761302 0.8729059 0.4855599
vn 0.04761302 0.8729059 0.4855599
vn 0.04761302 0.8729059 0.4855599
vn 0.04761302 0.8729059 0.4855599
vn 0.04761302 0.8729059 0.4855599
vn 0.04761302 0.8729059 0.4855599
vn 0.04761302 -0.04761302 0.9977304
vn 0.04761302 -0.04761302 0.9977304
vn 0.04761302 -0.04761302 0.9977304
vn 0.04761302 -0.04761302 0.9977304
vn 0.04761302 -0.04761302 0.9977304
vn 0.04761302 -0.04761302 0.9977304
vn 0.04761302 -0.04761302 0.9977304
vn 0.04761302 -0.04761302 0.9977304
vn 0.04761302 -0.04761302 0.9977304
vn 0.04761302 -0.04761302 0.9977304
vn 0.04761302 -0.04761302 0.9977304
vn 0.04761302 -0.04761302 0.9977304
vn 0.04761302 -0.04761302 0.9977304
vn 0.04761302 -0.04761302 0.9977304
vn 0.04761302 -0.04761302 0.9977304
vn 0.04761302 -0.04761302 0.9977304
vn 0.9093079 -0.4161239 0
vn 0.9093079 -0.4161239 0
vn 0.9093079 -0.4161239 0
vn 0.9093079 -0.4161239 0
vn 0.5368755 -0.8436615 0
vn 0.5368755 -0.8436615 0
vn 0.5368755 -0.8436615 0
vn 0.5368755 -0.8436615 0
vn 0.999874 -0.01587099 -0.000346655
vn 0.999874 -0.01587099 -0.000346655
vn 0.999874 -0.01587099 -0.000346655
vn 0.999874 -0.01587099 -0.000346655
vn 0.04761302 -0.04761302 0.9977304
vn 0.04761302 -0.04761302 0.9977304
vn 0.04761302 -0.04761302 0.9977304
vn 0.04761302 -0.04761302 0.9977304
vn 0.04761302 -0.04761302 0.9977304
vn 0.04761302 -0.04761302 0.9977304
vn 0.04761302 -0.04761302 0.9977304
vn 0.491013 -0.8711522 0
vn 0.491013 -0.8711522 0
vn 0.491013 -0.8711522 0
vn 0.491013 -0.8711522 0
vn 0.999874 -0.01587099 -0.000346655
vn 0.9968654 -0.07911628 0
vn 0.999874 -0.01587099 -0.000346655
vn 0.9968654 -0.07911628 0
vn 0.9207517 -0.390149 0
vn 0.9207517 -0.390149 0
vn -0.968132 -0.1110971 -0.2244501
vn -0.999874 -0.01587099 -0.000346655
vn -0.968132 -0.1110971 -0.2244501
vn -0.999874 -0.01587099 -0.000346655
vn -0.9037378 -0.4280863 0
vn -0.9037378 -0.4280863 0
vn -0.4534572 -0.891278 0
vn -0.4534572 -0.891278 0
vn -0.4534572 -0.891278 0
vn -0.4534572 -0.891278 0
vn 0.999874 -0.01587099 -0.000346655
vn 0.999874 -0.01587099 -0.000346655
vn 0.999874 -0.01587099 -0.000346655
vn 0.999874 -0.01587099 -0.000346655
vn 0.999874 -0.01587099 -0.000346655
vn 0.999874 -0.01587099 -0.000346655
vn 0.999874 -0.01587099 -0.000346655
vn 0.999874 -0.01587099 -0.000346655
vn 0.04761302 -0.04761302 0.9977304
vn 0.04761302 -0.04761302 0.9977304
vn 0.04761302 -0.04761302 0.9977304
vn 0.04761302 -0.04761302 0.9977304
vn 0.3015493 0.9363899 -0.1795602
vn 0.3015493 0.9363899 -0.1795602
vn 0.3015493 0.9363899 -0.1795602
vn 0.3015493 0.9363899 -0.1795602
vn 0.3015493 0.9363899 -0.1795602
vn 0.3015493 0.9363899 -0.1795602
vn 0.3650333 0.9046479 -0.2199153
vn 0.3650333 0.9046479 -0.2199153
vn 0.3650333 0.9046479 -0.2199153
vn 0.3650333 0.9046479 -0.2199153
vn 0.04761302 0.8094218 0.5852943
vn 0.04761302 0.8094218 0.5852943
vn 0.04761302 0.8094218 0.5852943
vn 0.04761302 0.8094218 0.5852943
vn 0.04761302 -0.04761302 0.9977304
vn 0.04761302 -0.04761302 0.9977304
vn 0.04761302 -0.04761302 0.9977304
vn 0.04761302 -0.04761302 0.9977304
vn 0.04761302 -0.04761302 0.9977304
vn 0.04761302 -0.04761302 0.9977304
vn 0.04761302 -0.04761302 0.9977304
vn 0.04761302 -0.04761302 0.9977304
vn 0.04761302 -0.04761302 0.9977304
vn 0.999874 -0.01587099 -0.000346655
vn 0.999874 -0.01587099 -0.000346655
vn 0.999874 -0.01587099 -0.000346655
vn 0.999874 -0.01587099 -0.000346655
vn 0.04761302 0.8729059 -0.4855599
vn 0.04761302 0.8729059 -0.4855599
vn 0.04761302 0.8729059 -0.4855599
vn 0.04761302 0.8729059 -0.4855599
vn 0.04761302 -0.04761302 -0.9977304
vn 0.04761302 -0.04761302 -0.9977304
vn 0.04761302 -0.04761302 -0.9977304
vn 0.04761302 -0.04761302 -0.9977304
vn 0.04761302 0.8729059 -0.4855599
vn 0.04761302 0.8729059 -0.4855599
vn 0.04761302 0.8729059 -0.4855599
vn 0.04761302 0.8729059 -0.4855599
vn 0.04761302 -0.04761302 -0.9977304
vn 0.04761302 -0.04761302 -0.9977304
vn 0.04761302 -0.04761302 -0.9977304
vn 0.04761302 -0.04761302 -0.9977304
vn 0.04761302 0.8729059 0.4855599
vn 0.04761302 0.8729059 0.4855599
vn 0.04761302 0.8729059 0.4855599
vn 0.04761302 0.8729059 0.4855599
vn 0.04761302 0.8729059 0.4855599
vn 0.04761302 0.8729059 0.4855599
vn 0.04761302 -0.04761302 0.9977304
vn 0.04761302 -0.04761302 0.9977304
vn 0.04761302 -0.04761302 0.9977304
vn 0.04761302 -0.04761302 0.9977304
vn 0.04761302 -0.04761302 0.9977304
vn 0.04761302 -0.04761302 0.9977304
vn 0.04761302 -0.04761302 0.9977304
vn 0.04761302 -0.04761302 0.9977304
vn 0.04761302 -0.04761302 0.9977304
vn 0.04761302 -0.04761302 0.9977304
vn 0.04761302 -0.04761302 0.9977304
vn 0.04761302 -0.04761302 0.9977304
vn 0.04761302 -0.04761302 0.9977304
vn 0.04761302 -0.04761302 0.9977304
vn 0.04761302 -0.04761302 0.9977304
vn 0.04761302 -0.04761302 0.9977304
vn -0.8729059 -0.4285174 -0.2332557
vn -0.8729059 -0.4285174 -0.2332557
vn -0.8729059 -0.4285174 -0.2332557
vn -0.8729059 -0.4285174 -0.2332557
vn -0.4910131 -0.8711522 0
vn -0.4910131 -0.8711522 0
vn -0.4910131 -0.8711522 0
vn -0.4910131 -0.8711522 0
vn -0.999874 -0.01587099 -0.000346655
vn -0.999874 -0.01587099 -0.000346655
vn -0.999874 -0.01587099 -0.000346655
vn -0.999874 -0.01587099 -0.000346655
vn 0.04761302 -0.04761302 0.9977304
vn 0.04761302 -0.04761302 0.9977304
vn 0.04761302 -0.04761302 0.9977304
vn 0.04761302 -0.04761302 0.9977304
vn 0.04761302 -0.04761302 0.9977304
vn 0.04761302 -0.04761302 0.9977304
vn 0.04761302 -0.04761302 0.9977304
vn -0.4534572 -0.891278 0
vn -0.4534572 -0.891278 0
vn -0.4534572 -0.891278 0
vn -0.4534572 -0.891278 0
vn -0.999874 -0.01587099 -0.000346655
vn -0.968132 -0.1110971 -0.2244501
vn -0.968132 -0.1110971 -0.2244501
vn -0.999874 -0.01587099 -0.000346655
vn -0.9037378 -0.4280863 0
vn -0.9037378 -0.4280863 0
vn 0.9968654 -0.07911628 0
vn 0.999874 -0.01587099 -0.000346655
vn 0.999874 -0.01587099 -0.000346655
vn 0.9968654 -0.07911628 0
vn 0.9207517 -0.390149 0
vn 0.9207517 -0.390149 0
vn 0.491013 -0.8711522 0
vn 0.491013 -0.8711522 0
vn 0.491013 -0.8711522 0
vn 0.491013 -0.8711522 0
vn 0.999874 -0.01587099 -0.000346655
vn 0.999874 -0.01587099 -0.000346655
vn 0.999874 -0.01587099 -0.000346655
vn 0.999874 -0.01587099 -0.000346655
vn 0.999874 -0.01587099 -0.000346655
vn 0.999874 -0.01587099 -0.000346655
vn 0.999874 -0.01587099 -0.000346655
vn 0.999874 -0.01587099 -0.000346655
vn 0.04761302 -0.04761302 0.9977304
vn 0.04761302 -0.04761302 0.9977304
vn 0.04761302 -0.04761302 0.9977304
vn 0.04761302 -0.04761302 0.9977304
vn 0.04761302 -0.04761302 -0.9977304
vn 0.04761302 -0.04761302 -0.9977304
vn 0.04761302 -0.04761302 -0.9977304
vn 0.04761302 -0.04761302 -0.9977304
vn 0.04761302 -0.04761302 -0.9977304
vn 0.04761302 -0.04761302 -0.9977304
vn 0.04761302 -0.04761302 -0.9977304
vn 0.04761302 -0.04761302 -0.9977304
vn 0.04761302 -0.04761302 0.9977304
vn 0.04761302 -0.04761302 0.9977304
vn 0.04761302 -0.04761302 0.9977304
vn 0.04761302 -0.04761302 0.9977304
vn 0.04761302 -0.04761302 0.9977304
vn 0.04761302 -0.04761302 0.9977304
vn 0.04761302 -0.04761302 0.9977304
vn 0.04761302 -0.04761302 0.9977304
vn 0.999874 -0.01587099 -0.000346655
vn 0.999874 -0.01587099 -0.000346655
vn 0.999874 -0.01587099 -0.000346655
vn 0.999874 -0.01587099 -0.000346655
vn 0.04761302 -0.04761302 -0.9977304
vn 0.04761302 -0.04761302 -0.9977304
vn 0.04761302 -0.04761302 -0.9977304
vn 0.04761302 -0.04761302 -0.9977304
vn -0.999874 -0.01587099 -0.000346655
vn -0.999874 -0.01587099 -0.000346655
vn -0.999874 -0.01587099 -0.000346655
vn -0.999874 -0.01587099 -0.000346655
vn -0.999874 -0.01587099 -0.000346655
vn -0.999874 -0.01587099 -0.000346655
vn -0.999874 -0.01587099 -0.000346655
vn -0.999874 -0.01587099 -0.000346655
vn 0.04761302 -0.04761302 0.9977304
vn 0.04761302 -0.04761302 0.9977304
vn 0.04761302 -0.04761302 0.9977304
vn 0.04761302 -0.04761302 0.9977304
vn 0.04761302 -0.04761302 -0.9977304
vn 0.04761302 -0.04761302 -0.9977304
vn 0.04761302 -0.04761302 -0.9977304
vn 0.04761302 -0.04761302 -0.9977304
vn 0.04761302 -0.04761302 -0.9977304
vn 0.04761302 -0.04761302 -0.9977304
vn 0.04761302 -0.04761302 -0.9977304
vn 0.04761302 -0.04761302 -0.9977304
vn 0.04761302 -0.04761302 0.9977304
vn 0.04761302 -0.04761302 0.9977304
vn 0.04761302 -0.04761302 0.9977304
vn 0.04761302 -0.04761302 0.9977304
vn 0.04761302 -0.04761302 0.9977304
vn 0.04761302 -0.04761302 0.9977304
vn 0.04761302 -0.04761302 0.9977304
vn 0.04761302 -0.04761302 0.9977304
vn -0.999874 -0.01587099 -0.000346655
vn -0.999874 -0.01587099 -0.000346655
vn -0.999874 -0.01587099 -0.000346655
vn -0.999874 -0.01587099 -0.000346655
vn 0.04761302 -0.04761302 -0.9977304
vn 0.04761302 -0.04761302 -0.9977304
vn 0.04761302 -0.04761302 -0.9977304
vn 0.04761302 -0.04761302 -0.9977304
vn 0.999874 -0.01587099 -0.000346655
vn 0.999874 -0.01587099 -0.000346655
vn 0.999874 -0.01587099 -0.000346655
vn 0.999874 -0.01587099 -0.000346655
vn 0.04761302 -0.04761302 0.9977304
vn 0.04761302 -0.04761302 0.9977304
vn 0.04761302 -0.04761302 0.9977304
vn 0.04761302 -0.04761302 0.9977304
vn 0.999874 -0.01587099 -0.000346655
vn 0.999874 -0.01587099 -0.000346655
vn 0.999874 -0.01587099 -0.000346655
vn 0.999874 -0.01587099 -0.000346655
vn 0.04761302 -0.04761302 0.9977304
vn 0.04761302 -0.04761302 0.9977304
vn 0.04761302 -0.04761302 0.9977304
vn 0.04761302 -0.04761302 0.9977304
vn 0.2698073 0.9363899 -0.2244502
vn 0.2698073 0.9363899 -0.2244502
vn 0.2698073 0.9363899 -0.2244502
vn 0.2698073 0.9363899 -0.2244502
vn 0.2698073 0.9363899 -0.2244502
vn 0.2698073 0.9363899 -0.2244502
vn 0.6417226 -0.7669368 0
vn 0.6417226 -0.7669368 0
vn 0.6417226 -0.7669368 0
vn 0.6417226 -0.7669368 0
vn 0.04761302 0.9046479 0.4234915
vn 0.04761302 0.9046479 0.4234915
vn 0.04761302 0.9046479 0.4234915
vn 0.04761302 0.9046479 0.4234915
vn 0.04761302 0.9046479 0.4234915
vn 0.04761302 0.9046479 0.4234915
vn 0.04761302 -0.5872276 0.8080203
vn 0.04761302 -0.5872276 0.8080203
vn 0.04761302 -0.5872276 0.8080203
vn 0.04761302 -0.5872276 0.8080203
vn 0.3632082 0.931708 0
vn 0.3632082 0.931708 0
vn 0.3632082 0.931708 0
vn 0.3632082 0.931708 0
vn 0.7378055 -0.6750135 0
vn 0.7378055 -0.6750135 0
vn 0.7378055 -0.6750135 0
vn 0.7378055 -0.6750135 0
vn 0.04761302 -0.4920015 0.8692914
vn 0.04761302 -0.4920015 0.8692914
vn 0.04761302 -0.4920015 0.8692914
vn 0.04761302 -0.4920015 0.8692914
vn 0.04761302 0.8411639 0.5386802
vn 0.04761302 0.8411639 0.5386802
vn 0.04761302 0.8411639 0.5386802
vn 0.04761302 0.8411639 0.5386802
vn 0.04761302 0.9046479 -0.4234915
vn 0.04761302 0.9046479 -0.4234915
vn 0.04761302 0.9046479 -0.4234915
vn 0.04761302 0.9046479 -0.4234915
vn 0.04761302 0.9046479 -0.4234915
vn 0.04761302 0.9046479 -0.4234915
vn 0.04761302 0.9046479 -0.4234915
vn 0.04761302 0.9046479 -0.4234915
vn 0.04761302 -0.04761302 -0.9977304
vn 0.04761302 -0.04761302 -0.9977304
vn 0.04761302 -0.04761302 -0.9977304
vn 0.04761302 -0.04761302 -0.9977304
vn 0.04761302 -0.5872276 -0.8080203
vn 0.04761302 -0.5872276 -0.8080203
vn 0.04761302 -0.5872276 -0.8080203
vn 0.04761302 -0.5872276 -0.8080203
vn 0.04761302 -0.5872276 0.8080203
vn 0.04761302 -0.5872276 0.8080203
vn 0.04761302 -0.5872276 0.8080203
vn 0.04761302 -0.5872276 0.8080203
vn 0.04761302 -0.04761302 0.9977304
vn 0.04761302 -0.04761302 0.9977304
vn 0.04761302 -0.04761302 0.9977304
vn 0.04761302 -0.04761302 0.9977304
vn 0.04761302 -0.04761302 -0.9977304
vn 0.04761302 -0.04761302 -0.9977304
vn 0.04761302 -0.04761302 -0.9977304
vn 0.04761302 -0.04761302 -0.9977304
vn 0.04761302 -0.5872276 -0.8080203
vn 0.04761302 -0.5872276 -0.8080203
vn 0.04761302 -0.5872276 -0.8080203
vn 0.04761302 -0.5872276 -0.8080203
vn 0.04761302 -0.04761302 -0.9977304
vn 0.04761302 -0.04761302 -0.9977304
vn 0.04761302 -0.04761302 -0.9977304
vn 0.04761302 -0.04761302 -0.9977304
vn 0.04761302 -0.5872276 -0.8080203
vn 0.04761302 -0.5872276 -0.8080203
vn 0.04761302 -0.5872276 -0.8080203
vn 0.04761302 -0.5872276 -0.8080203
vn 0.999874 -0.01587099 -0.000346655
vn 0.999874 -0.01587099 -0.000346655
vn 0.999874 -0.01587099 -0.000346655
vn 0.999874 -0.01587099 -0.000346655
vn 0.6417226 -0.7669368 0
vn 0.6417226 -0.7669368 0
vn 0.6417226 -0.7669368 0
vn 0.6417226 -0.7669368 0
vn -0.999874 -0.01587099 -0.000346655
vn -0.999874 -0.01587099 -0.000346655
vn -0.999874 -0.01587099 -0.000346655
vn -0.999874 -0.01587099 -0.000346655
vn 0.04761302 -0.04761302 0.9977304
vn 0.04761302 -0.04761302 0.9977304
vn 0.04761302 -0.04761302 0.9977304
vn 0.04761302 -0.04761302 0.9977304
vn -0.999874 -0.01587099 -0.000346655
vn -0.999874 -0.01587099 -0.000346655
vn -0.999874 -0.01587099 -0.000346655
vn -0.999874 -0.01587099 -0.000346655
vn 0.04761302 -0.04761302 0.9977304
vn 0.04761302 -0.04761302 0.9977304
vn 0.04761302 -0.04761302 0.9977304
vn 0.04761302 -0.04761302 0.9977304
vn -0.2380652 0.968132 -0.07775179
vn -0.2380652 0.968132 -0.07775179
vn -0.2380652 0.968132 -0.07775179
vn -0.2380652 0.968132 -0.07775179
vn -0.2380652 0.968132 -0.07775179
vn -0.2380652 0.968132 -0.07775179
vn -0.6074502 -0.7943578 0
vn -0.6074502 -0.7943578 0
vn -0.6074502 -0.7943578 0
vn -0.6074502 -0.7943578 0
vn 0.04761302 0.9046479 0.4234915
vn 0.04761302 0.9046479 0.4234915
vn 0.04761302 0.9046479 0.4234915
vn 0.04761302 0.9046479 0.4234915
vn 0.04761302 0.9046479 0.4234915
vn 0.04761302 0.9046479 0.4234915
vn 0.04761302 -0.5872276 0.8080203
vn 0.04761302 -0.5872276 0.8080203
vn 0.04761302 -0.5872276 0.8080203
vn 0.04761302 -0.5872276 0.8080203
vn -0.3015493 0.9363899 -0.1795602
vn -0.3015493 0.9363899 -0.1795602
vn -0.3015493 0.9363899 -0.1795602
vn -0.3015493 0.9363899 -0.1795602
vn -0.7071068 -0.7071068 0
vn -0.7071068 -0.7071068 0
vn -0.7071068 -0.7071068 0
vn -0.7071068 -0.7071068 0
vn 0.04761302 -0.4920015 0.8692914
vn 0.04761302 -0.4920015 0.8692914
vn 0.04761302 -0.4920015 0.8692914
vn 0.04761302 -0.4920015 0.8692914
vn 0.04761302 0.8411639 0.5386802
vn 0.04761302 0.8411639 0.5386802
vn 0.04761302 0.8411639 0.5386802
vn 0.04761302 0.8411639 0.5386802
vn 0.04761302 0.9046479 -0.4234915
vn 0.04761302 0.9046479 -0.4234915
vn 0.04761302 0.9046479 -0.4234915
vn 0.04761302 0.9046479 -0.4234915
vn 0.04761302 0.9046479 -0.4234915
vn 0.04761302 0.9046479 -0.4234915
vn 0.04761302 0.9046479 -0.4234915
vn 0.04761302 0.9046479 -0.4234915
vn 0.04761302 -0.04761302 -0.9977304
vn 0.04761302 -0.04761302 -0.9977304
vn 0.04761302 -0.04761302 -0.9977304
vn 0.04761302 -0.04761302 -0.9977304
vn 0.04761302 -0.5872276 -0.8080203
vn 0.04761302 -0.5872276 -0.8080203
vn 0.04761302 -0.5872276 -0.8080203
vn 0.04761302 -0.5872276 -0.8080203
vn 0.04761302 -0.5872276 0.8080203
vn 0.04761302 -0.5872276 0.8080203
vn 0.04761302 -0.5872276 0.8080203
vn 0.04761302 -0.5872276 0.8080203
vn 0.04761302 -0.04761302 0.9977304
vn 0.04761302 -0.04761302 0.9977304
vn 0.04761302 -0.04761302 0.9977304
vn 0.04761302 -0.04761302 0.9977304
vn 0.04761302 -0.04761302 -0.9977304
vn 0.04761302 -0.04761302 -0.9977304
vn 0.04761302 -0.04761302 -0.9977304
vn 0.04761302 -0.04761302 -0.9977304
vn 0.04761302 -0.5872276 -0.8080203
vn 0.04761302 -0.5872276 -0.8080203
vn 0.04761302 -0.5872276 -0.8080203
vn 0.04761302 -0.5872276 -0.8080203
vn 0.04761302 -0.04761302 -0.9977304
vn 0.04761302 -0.04761302 -0.9977304
vn 0.04761302 -0.04761302 -0.9977304
vn 0.04761302 -0.04761302 -0.9977304
vn 0.04761302 -0.5872276 -0.8080203
vn 0.04761302 -0.5872276 -0.8080203
vn 0.04761302 -0.5872276 -0.8080203
vn 0.04761302 -0.5872276 -0.8080203
vn -0.999874 -0.01587099 -0.000346655
vn -0.999874 -0.01587099 -0.000346655
vn -0.999874 -0.01587099 -0.000346655
vn -0.999874 -0.01587099 -0.000346655
vn -0.6074502 -0.7943578 0
vn -0.6074502 -0.7943578 0
vn -0.6074502 -0.7943578 0
vn -0.6074502 -0.7943578 0
vn 0.01587099 0.999874 -0.000345267
vn 0.01587099 0.999874 -0.000345267
vn 0.01587099 0.999874 -0.000345267
vn 0.01587099 0.999874 -0.000345267
vn 0.01587099 0.999874 -0.000345267
vn 0.01587099 0.999874 -0.000345267
vn 0.01587099 0.999874 -0.000345267
vn 0.01587099 0.999874 -0.000345267
vn 0.01587099 0.999874 -0.000345267
vn 0.01587099 0.999874 -0.000345267
vn 0.01587099 0.999874 -0.000345267
vn 0.01587099 0.999874 -0.000345267
vn 0.04761302 -0.04761302 -0.9977304
vn 0.04761302 -0.04761302 -0.9977304
vn 0.04761302 -0.04761302 -0.9977304
vn 0.04761302 -0.04761302 -0.9977304
vn 0.04761302 -0.04761302 -0.9977304
vn 0.04761302 -0.04761302 -0.9977304
vn 0.04761302 -0.04761302 -0.9977304
vn 0.04761302 -0.04761302 -0.9977304
vn 0.999874 -0.01587099 -0.000346655
vn 0.999874 -0.01587099 -0.000346655
vn 0.999874 -0.01587099 -0.000346655
vn 0.999874 -0.01587099 -0.000346655
vn 0.04761302 -0.04761302 0.9977304
vn 0.04761302 -0.04761302 0.9977304
vn 0.04761302 -0.04761302 0.9977304
vn 0.04761302 -0.04761302 0.9977304
vn 0.999874 -0.01587099 -0.000346655
vn 0.999874 -0.01587099 -0.000346655
vn 0.999874 -0.01587099 -0.000346655
vn 0.999874 -0.01587099 -0.000346655
vn 0.04761302 -0.04761302 0.9977304
vn 0.04761302 -0.04761302 0.9977304
vn 0.04761302 -0.04761302 0.9977304
vn 0.04761302 -0.04761302 0.9977304
vn 0.04761302 -0.04761302 0.9977304
vn 0.04761302 -0.04761302 0.9977304
vn 0.01587099 0.999874 -0.000345267
vn 0.01587099 0.999874 -0.000345267
vn 0.01587099 0.999874 -0.000345267
vn 0.01587099 0.999874 -0.000345267
vn 0.01587099 0.999874 -0.000345267
vn 0.01587099 0.999874 -0.000345267
vn 0.01587099 0.999874 -0.000345267
vn 0.01587099 0.999874 -0.000345267
vn 0.999874 -0.01587099 -0.000346655
vn 0.999874 -0.01587099 -0.000346655
vn 0.999874 -0.01587099 -0.000346655
vn 0.999874 -0.01587099 -0.000346655
vn 0.01587099 0.999874 -0.000345267
vn 0.01587099 0.999874 -0.000345267
vn 0.01587099 0.999874 -0.000345267
vn 0.01587099 0.999874 -0.000345267
vn 0.01587099 0.999874 -0.000345267
vn 0.01587099 0.999874 -0.000345267
vn 0.01587099 0.999874 -0.000345267
vn 0.01587099 0.999874 -0.000345267
vn 0.01587099 0.999874 -0.000345267
vn 0.01587099 0.999874 -0.000345267
vn 0.01587099 0.999874 -0.000345267
vn 0.01587099 0.999874 -0.000345267
vn 0.04761302 -0.04761302 -0.9977304
vn 0.04761302 -0.04761302 -0.9977304
vn 0.04761302 -0.04761302 -0.9977304
vn 0.04761302 -0.04761302 -0.9977304
vn 0.01587099 0.999874 -0.000345267
vn 0.01587099 0.999874 -0.000345267
vn 0.01587099 0.999874 -0.000345267
vn 0.01587099 0.999874 -0.000345267
vn 0.01587099 0.999874 -0.000345267
vn 0.01587099 0.999874 -0.000345267
vn 0.01587099 0.999874 -0.000345267
vn 0.01587099 0.999874 -0.000345267
vn 0.01587099 0.999874 -0.000345267
vn 0.01587099 0.999874 -0.000345267
vn 0.01587099 0.999874 -0.000345267
vn 0.01587099 0.999874 -0.000345267
vn 0.04761302 -0.04761302 -0.9977304
vn 0.04761302 -0.04761302 -0.9977304
vn 0.04761302 -0.04761302 -0.9977304
vn 0.04761302 -0.04761302 -0.9977304
vn 0.04761302 -0.04761302 -0.9977304
vn 0.04761302 -0.04761302 -0.9977304
vn 0.04761302 -0.04761302 -0.9977304
vn 0.04761302 -0.04761302 -0.9977304
vn -0.999874 -0.01587099 -0.000346655
vn -0.999874 -0.01587099 -0.000346655
vn -0.999874 -0.01587099 -0.000346655
vn -0.999874 -0.01587099 -0.000346655
vn 0.04761302 -0.04761302 0.9977304
vn 0.04761302 -0.04761302 0.9977304
vn 0.04761302 -0.04761302 0.9977304
vn 0.04761302 -0.04761302 0.9977304
vn -0.999874 -0.01587099 -0.000346655
vn -0.999874 -0.01587099 -0.000346655
vn -0.999874 -0.01587099 -0.000346655
vn -0.999874 -0.01587099 -0.000346655
vn 0.04761302 -0.04761302 0.9977304
vn 0.04761302 -0.04761302 0.9977304
vn 0.04761302 -0.04761302 0.9977304
vn 0.04761302 -0.04761302 0.9977304
vn 0.04761302 -0.04761302 0.9977304
vn 0.04761302 -0.04761302 0.9977304
vn 0.01587099 0.999874 -0.000345267
vn 0.01587099 0.999874 -0.000345267
vn 0.01587099 0.999874 -0.000345267
vn 0.01587099 0.999874 -0.000345267
vn 0.01587099 0.999874 -0.000345267
vn 0.01587099 0.999874 -0.000345267
vn 0.01587099 0.999874 -0.000345267
vn 0.01587099 0.999874 -0.000345267
vn -0.999874 -0.01587099 -0.000346655
vn -0.999874 -0.01587099 -0.000346655
vn -0.999874 -0.01587099 -0.000346655
vn -0.999874 -0.01587099 -0.000346655
vn 0.01587099 0.999874 -0.000345267
vn 0.01587099 0.999874 -0.000345267
vn 0.01587099 0.999874 -0.000345267
vn 0.01587099 0.999874 -0.000345267
vn 0.01587099 0.999874 -0.000345267
vn 0.01587099 0.999874 -0.000345267
vn 0.01587099 0.999874 -0.000345267
vn 0.01587099 0.999874 -0.000345267
vn 0.01587099 0.999874 -0.000345267
vn 0.01587099 0.999874 -0.000345267
vn 0.01587099 0.999874 -0.000345267
vn 0.01587099 0.999874 -0.000345267
vn 0.04761302 -0.04761302 -0.9977304
vn 0.04761302 -0.04761302 -0.9977304
vn 0.04761302 -0.04761302 -0.9977304
vn 0.04761302 -0.04761302 -0.9977304
g DSJ_GTA_gaoLou_22_0
f 3/3/3 2/2/2 1/1/1
f 2/2/2 4/4/4 1/1/1
f 7/7/7 6/6/6 5/5/5
f 6/6/6 8/8/8 5/5/5
f 11/11/11 10/10/10 9/9/9
f 10/10/10 12/12/12 9/9/9
f 15/15/15 14/14/14 13/13/13
f 14/14/14 16/16/16 13/13/13
f 19/19/19 18/18/18 17/17/17
f 18/18/18 20/20/20 17/17/17
f 23/23/23 22/22/22 21/21/21
f 22/22/22 24/24/24 21/21/21
f 27/27/27 26/26/26 25/25/25
f 26/26/26 28/28/28 25/25/25
f 31/31/31 30/30/30 29/29/29
f 30/30/30 32/32/32 29/29/29
f 35/35/35 34/34/34 33/33/33
f 34/34/34 36/36/36 33/33/33
f 39/39/39 38/38/38 37/37/37
f 38/38/38 40/40/40 37/37/37
f 43/43/43 42/42/42 41/41/41
f 42/42/42 44/44/44 41/41/41
f 47/47/47 46/46/46 45/45/45
f 46/46/46 48/48/48 45/45/45
f 51/51/51 50/50/50 49/49/49
f 50/50/50 52/52/52 49/49/49
f 55/55/55 54/54/54 53/53/53
f 54/54/54 56/56/56 53/53/53
f 59/59/59 58/58/58 57/57/57
f 58/58/58 60/60/60 57/57/57
f 63/63/63 62/62/62 61/61/61
f 62/62/62 64/64/64 61/61/61
f 67/67/67 66/66/66 65/65/65
f 66/66/66 68/68/68 65/65/65
f 71/71/71 70/70/70 69/69/69
f 70/70/70 72/72/72 69/69/69
f 75/75/75 74/74/74 73/73/73
f 74/74/74 76/76/76 73/73/73
f 79/79/79 78/78/78 77/77/77
f 78/78/78 80/80/80 77/77/77
f 83/83/83 82/82/82 81/81/81
f 82/82/82 84/84/84 81/81/81
f 87/87/87 86/86/86 85/85/85
f 86/86/86 88/88/88 85/85/85
f 91/91/91 90/90/90 89/89/89
f 90/90/90 92/92/92 89/89/89
f 95/95/95 94/94/94 93/93/93
f 94/94/94 96/96/96 93/93/93
f 99/99/99 98/98/98 97/97/97
f 98/98/98 100/100/100 97/97/97
f 103/103/103 102/102/102 101/101/101
f 102/102/102 104/104/104 101/101/101
f 107/107/107 106/106/106 105/105/105
f 106/106/106 108/108/108 105/105/105
f 111/111/111 110/110/110 109/109/109
f 110/110/110 112/112/112 109/109/109
f 115/115/115 114/114/114 113/113/113
f 114/114/114 116/116/116 113/113/113
f 119/119/119 118/118/118 117/117/117
f 118/118/118 120/120/120 117/117/117
f 118/118/118 121/121/121 120/120/120
f 121/121/121 122/122/122 120/120/120
f 125/125/125 124/124/124 123/123/123
f 124/124/124 126/126/126 123/123/123
f 129/129/129 128/128/128 127/127/127
f 128/128/128 130/130/130 127/127/127
f 133/133/133 132/132/132 131/131/131
f 132/132/132 134/134/134 131/131/131
f 132/132/132 133/133/133 135/135/135
f 133/133/133 136/136/136 135/135/135
f 137/137/137 132/132/132 135/135/135
f 138/138/138 137/137/137 135/135/135
f 137/137/137 139/139/139 132/132/132
f 139/139/139 134/134/134 132/132/132
f 142/142/142 141/141/141 140/140/140
f 141/141/141 143/143/143 140/140/140
f 146/146/146 145/145/145 144/144/144
f 145/145/145 147/147/147 144/144/144
f 150/150/150 149/149/149 148/148/148
f 149/149/149 151/151/151 148/148/148
f 154/154/154 153/153/153 152/152/152
f 153/153/153 155/155/155 152/152/152
f 158/158/158 157/157/157 156/156/156
f 157/157/157 159/159/159 156/156/156
f 162/162/162 161/161/161 160/160/160
f 161/161/161 163/163/163 160/160/160
f 162/162/162 160/160/160 164/164/164
f 160/160/160 165/165/165 164/164/164
f 168/168/168 167/167/167 166/166/166
f 167/167/167 169/169/169 166/166/166
f 167/167/167 168/168/168 170/170/170
f 171/171/171 167/167/167 170/170/170
f 166/166/166 169/169/169 172/172/172
f 173/173/173 166/166/166 172/172/172
f 174/174/174 173/173/173 172/172/172
f 175/175/175 174/174/174 172/172/172
f 178/178/178 177/177/177 176/176/176
f 177/177/177 179/179/179 176/176/176
f 178/178/178 176/176/176 180/180/180
f 181/181/181 178/178/178 180/180/180
f 184/184/184 183/183/183 182/182/182
f 183/183/183 185/185/185 182/182/182
f 188/188/188 187/187/187 186/186/186
f 187/187/187 189/189/189 186/186/186
f 192/192/192 191/191/191 190/190/190
f 191/191/191 193/193/193 190/190/190
f 196/196/196 195/195/195 194/194/194
f 195/195/195 197/197/197 194/194/194
f 198/198/198 197/197/197 195/195/195
f 199/199/199 198/198/198 195/195/195
f 200/200/200 198/198/198 199/199/199
f 203/203/203 202/202/202 201/201/201
f 202/202/202 204/204/204 201/201/201
f 207/207/207 206/206/206 205/205/205
f 206/206/206 208/208/208 205/205/205
f 206/206/206 209/209/209 208/208/208
f 209/209/209 210/210/210 208/208/208
f 213/213/213 212/212/212 211/211/211
f 212/212/212 214/214/214 211/211/211
f 213/213/213 211/211/211 215/215/215
f 216/216/216 213/213/213 215/215/215
f 219/219/219 218/218/218 217/217/217
f 218/218/218 220/220/220 217/217/217
f 223/223/223 222/222/222 221/221/221
f 222/222/222 224/224/224 221/221/221
f 227/227/227 226/226/226 225/225/225
f 226/226/226 228/228/228 225/225/225
f 231/231/231 230/230/230 229/229/229
f 230/230/230 232/232/232 229/229/229
f 235/235/235 234/234/234 233/233/233
f 234/234/234 236/236/236 233/233/233
f 237/237/237 234/234/234 235/235/235
f 238/238/238 237/237/237 235/235/235
f 241/241/241 240/240/240 239/239/239
f 240/240/240 242/242/242 239/239/239
f 245/245/245 244/244/244 243/243/243
f 244/244/244 246/246/246 243/243/243
f 249/249/249 248/248/248 247/247/247
f 248/248/248 250/250/250 247/247/247
f 250/250/250 248/248/248 251/251/251
f 252/252/252 250/250/250 251/251/251
f 248/248/248 253/253/253 251/251/251
f 253/253/253 254/254/254 251/251/251
f 249/249/249 255/255/255 248/248/248
f 255/255/255 253/253/253 248/248/248
f 258/258/258 257/257/257 256/256/256
f 257/257/257 259/259/259 256/256/256
f 262/262/262 261/261/261 260/260/260
f 261/261/261 263/263/263 260/260/260
f 266/266/266 265/265/265 264/264/264
f 265/265/265 267/267/267 264/264/264
f 270/270/270 269/269/269 268/268/268
f 269/269/269 271/271/271 268/268/268
f 274/274/274 273/273/273 272/272/272
f 273/273/273 275/275/275 272/272/272
f 278/278/278 277/277/277 276/276/276
f 277/277/277 279/279/279 276/276/276
f 276/276/276 279/279/279 280/280/280
f 281/281/281 276/276/276 280/280/280
f 284/284/284 283/283/283 282/282/282
f 283/283/283 285/285/285 282/282/282
f 285/285/285 283/283/283 286/286/286
f 283/283/283 287/287/287 286/286/286
f 284/284/284 282/282/282 288/288/288
f 282/282/282 289/289/289 288/288/288
f 289/289/289 290/290/290 288/288/288
f 290/290/290 291/291/291 288/288/288
f 294/294/294 293/293/293 292/292/292
f 293/293/293 295/295/295 292/292/292
f 292/292/292 295/295/295 296/296/296
f 295/295/295 297/297/297 296/296/296
f 300/300/300 299/299/299 298/298/298
f 299/299/299 301/301/301 298/298/298
f 304/304/304 303/303/303 302/302/302
f 303/303/303 305/305/305 302/302/302
f 308/308/308 307/307/307 306/306/306
f 307/307/307 309/309/309 306/306/306
f 312/312/312 311/311/311 310/310/310
f 311/311/311 313/313/313 310/310/310
f 312/312/312 314/314/314 311/311/311
f 314/314/314 315/315/315 311/311/311
f 314/314/314 316/316/316 315/315/315
f 319/319/319 318/318/318 317/317/317
f 318/318/318 320/320/320 317/317/317
f 323/323/323 322/322/322 321/321/321
f 322/322/322 324/324/324 321/321/321
f 325/325/325 322/322/322 323/323/323
f 326/326/326 325/325/325 323/323/323
f 329/329/329 328/328/328 327/327/327
f 328/328/328 330/330/330 327/327/327
f 327/327/327 330/330/330 331/331/331
f 330/330/330 332/332/332 331/331/331
f 335/335/335 334/334/334 333/333/333
f 334/334/334 336/336/336 333/333/333
f 339/339/339 338/338/338 337/337/337
f 338/338/338 340/340/340 337/337/337
f 343/343/343 342/342/342 341/341/341
f 342/342/342 344/344/344 341/341/341
f 347/347/347 346/346/346 345/345/345
f 346/346/346 348/348/348 345/345/345
f 351/351/351 350/350/350 349/349/349
f 350/350/350 352/352/352 349/349/349
f 355/355/355 354/354/354 353/353/353
f 354/354/354 356/356/356 353/353/353
f 359/359/359 358/358/358 357/357/357
f 358/358/358 360/360/360 357/357/357
f 363/363/363 362/362/362 361/361/361
f 362/362/362 364/364/364 361/361/361
f 367/367/367 366/366/366 365/365/365
f 366/366/366 368/368/368 365/365/365
f 371/371/371 370/370/370 369/369/369
f 370/370/370 372/372/372 369/369/369
f 375/375/375 374/374/374 373/373/373
f 374/374/374 376/376/376 373/373/373
f 379/379/379 378/378/378 377/377/377
f 378/378/378 380/380/380 377/377/377
f 383/383/383 382/382/382 381/381/381
f 382/382/382 384/384/384 381/381/381
f 387/387/387 386/386/386 385/385/385
f 386/386/386 388/388/388 385/385/385
f 391/391/391 390/390/390 389/389/389
f 390/390/390 392/392/392 389/389/389
f 395/395/395 394/394/394 393/393/393
f 394/394/394 396/396/396 393/393/393
f 399/399/399 398/398/398 397/397/397
f 398/398/398 400/400/400 397/397/397
f 403/403/403 402/402/402 401/401/401
f 402/402/402 404/404/404 401/401/401
f 407/407/407 406/406/406 405/405/405
f 406/406/406 408/408/408 405/405/405
f 411/411/411 410/410/410 409/409/409
f 410/410/410 412/412/412 409/409/409
f 415/415/415 414/414/414 413/413/413
f 414/414/414 416/416/416 413/413/413
f 419/419/419 418/418/418 417/417/417
f 418/418/418 420/420/420 417/417/417
f 423/423/423 422/422/422 421/421/421
f 422/422/422 424/424/424 421/421/421
f 427/427/427 426/426/426 425/425/425
f 426/426/426 428/428/428 425/425/425
f 429/429/429 426/426/426 427/427/427
f 430/430/430 429/429/429 427/427/427
f 433/433/433 432/432/432 431/431/431
f 432/432/432 434/434/434 431/431/431
f 437/437/437 436/436/436 435/435/435
f 436/436/436 438/438/438 435/435/435
f 435/435/435 438/438/438 439/439/439
f 438/438/438 440/440/440 439/439/439
f 443/443/443 442/442/442 441/441/441
f 442/442/442 444/444/444 441/441/441
f 447/447/447 446/446/446 445/445/445
f 446/446/446 448/448/448 445/445/445
f 451/451/451 450/450/450 449/449/449
f 450/450/450 452/452/452 449/449/449
f 455/455/455 454/454/454 453/453/453
f 454/454/454 456/456/456 453/453/453
f 459/459/459 458/458/458 457/457/457
f 458/458/458 460/460/460 457/457/457
f 463/463/463 462/462/462 461/461/461
f 462/462/462 464/464/464 461/461/461
f 462/462/462 465/465/465 464/464/464
f 465/465/465 466/466/466 464/464/464
f 465/465/465 467/467/467 466/466/466
f 467/467/467 468/468/468 466/466/466
f 471/471/471 470/470/470 469/469/469
f 470/470/470 472/472/472 469/469/469
f 475/475/475 474/474/474 473/473/473
f 474/474/474 476/476/476 473/473/473
f 479/479/479 478/478/478 477/477/477
f 478/478/478 480/480/480 477/477/477
f 483/483/483 482/482/482 481/481/481
f 482/482/482 484/484/484 481/481/481
f 487/487/487 486/486/486 485/485/485
f 486/486/486 488/488/488 485/485/485
f 491/491/491 490/490/490 489/489/489
f 490/490/490 492/492/492 489/489/489
f 495/495/495 494/494/494 493/493/493
f 494/494/494 496/496/496 493/493/493
f 499/499/499 498/498/498 497/497/497
f 498/498/498 500/500/500 497/497/497
f 503/503/503 502/502/502 501/501/501
f 502/502/502 504/504/504 501/501/501
f 507/507/507 506/506/506 505/505/505
f 506/506/506 508/508/508 505/505/505
f 511/511/511 510/510/510 509/509/509
f 510/510/510 512/512/512 509/509/509
f 515/515/515 514/514/514 513/513/513
f 514/514/514 516/516/516 513/513/513
f 519/519/519 518/518/518 517/517/517
f 518/518/518 520/520/520 517/517/517
f 523/523/523 522/522/522 521/521/521
f 522/522/522 524/524/524 521/521/521
f 527/527/527 526/526/526 525/525/525
f 526/526/526 528/528/528 525/525/525
f 526/526/526 529/529/529 528/528/528
f 529/529/529 530/530/530 528/528/528
f 533/533/533 532/532/532 531/531/531
f 532/532/532 534/534/534 531/531/531
f 537/537/537 536/536/536 535/535/535
f 536/536/536 538/538/538 535/535/535
f 537/537/537 535/535/535 539/539/539
f 540/540/540 537/537/537 539/539/539
f 543/543/543 542/542/542 541/541/541
f 542/542/542 544/544/544 541/541/541
f 547/547/547 546/546/546 545/545/545
f 546/546/546 548/548/548 545/545/545
f 551/551/551 550/550/550 549/549/549
f 550/550/550 552/552/552 549/549/549
f 555/555/555 554/554/554 553/553/553
f 554/554/554 556/556/556 553/553/553
f 559/559/559 558/558/558 557/557/557
f 558/558/558 560/560/560 557/557/557
f 563/563/563 562/562/562 561/561/561
f 562/562/562 564/564/564 561/561/561
f 565/565/565 562/562/562 563/563/563
f 566/566/566 565/565/565 563/563/563
f 567/567/567 565/565/565 566/566/566
f 568/568/568 567/567/567 566/566/566
f 571/571/571 570/570/570 569/569/569
f 570/570/570 572/572/572 569/569/569
f 575/575/575 574/574/574 573/573/573
f 574/574/574 576/576/576 573/573/573
f 579/579/579 578/578/578 577/577/577
f 578/578/578 580/580/580 577/577/577
f 583/583/583 582/582/582 581/581/581
f 582/582/582 584/584/584 581/581/581
f 587/587/587 586/586/586 585/585/585
f 586/586/586 588/588/588 585/585/585
f 591/591/591 590/590/590 589/589/589
f 590/590/590 592/592/592 589/589/589
f 595/595/595 594/594/594 593/593/593
f 594/594/594 596/596/596 593/593/593
f 599/599/599 598/598/598 597/597/597
f 598/598/598 600/600/600 597/597/597
f 603/603/603 602/602/602 601/601/601
f 602/602/602 604/604/604 601/601/601
f 607/607/607 606/606/606 605/605/605
f 606/606/606 608/608/608 605/605/605
f 611/611/611 610/610/610 609/609/609
f 610/610/610 612/612/612 609/609/609
f 615/615/615 614/614/614 613/613/613
f 614/614/614 616/616/616 613/613/613
f 619/619/619 618/618/618 617/617/617
f 618/618/618 620/620/620 617/617/617
f 623/623/623 622/622/622 621/621/621
f 622/622/622 624/624/624 621/621/621
f 627/627/627 626/626/626 625/625/625
f 626/626/626 628/628/628 625/625/625
f 631/631/631 630/630/630 629/629/629
f 630/630/630 632/632/632 629/629/629
f 635/635/635 634/634/634 633/633/633
f 634/634/634 636/636/636 633/633/633
f 639/639/639 638/638/638 637/637/637
f 638/638/638 640/640/640 637/637/637
f 643/643/643 642/642/642 641/641/641
f 642/642/642 644/644/644 641/641/641
f 641/641/641 644/644/644 645/645/645
f 644/644/644 646/646/646 645/645/645
f 649/649/649 648/648/648 647/647/647
f 648/648/648 650/650/650 647/647/647
f 653/653/653 652/652/652 651/651/651
f 652/652/652 654/654/654 651/651/651
f 657/657/657 656/656/656 655/655/655
f 656/656/656 658/658/658 655/655/655
f 661/661/661 660/660/660 659/659/659
f 660/660/660 662/662/662 659/659/659
f 665/665/665 664/664/664 663/663/663
f 664/664/664 666/666/666 663/663/663
f 669/669/669 668/668/668 667/667/667
f 668/668/668 670/670/670 667/667/667
f 673/673/673 672/672/672 671/671/671
f 672/672/672 674/674/674 671/671/671
f 677/677/677 676/676/676 675/675/675
f 676/676/676 678/678/678 675/675/675
f 681/681/681 680/680/680 679/679/679
f 680/680/680 682/682/682 679/679/679
f 685/685/685 684/684/684 683/683/683
f 684/684/684 686/686/686 683/683/683
f 689/689/689 688/688/688 687/687/687
f 688/688/688 690/690/690 687/687/687
f 693/693/693 692/692/692 691/691/691
f 692/692/692 694/694/694 691/691/691
f 697/697/697 696/696/696 695/695/695
f 696/696/696 698/698/698 695/695/695
f 701/701/701 700/700/700 699/699/699
f 700/700/700 702/702/702 699/699/699
f 705/705/705 704/704/704 703/703/703
f 704/704/704 706/706/706 703/703/703
f 709/709/709 708/708/708 707/707/707
f 708/708/708 710/710/710 707/707/707
f 709/709/709 707/707/707 711/711/711
f 712/712/712 709/709/709 711/711/711
f 715/715/715 714/714/714 713/713/713
f 714/714/714 716/716/716 713/713/713
f 719/719/719 718/718/718 717/717/717
f 718/718/718 720/720/720 717/717/717
f 723/723/723 722/722/722 721/721/721
f 722/722/722 724/724/724 721/721/721
f 727/727/727 726/726/726 725/725/725
f 726/726/726 728/728/728 725/725/725
f 731/731/731 730/730/730 729/729/729
f 730/730/730 732/732/732 729/729/729
f 735/735/735 734/734/734 733/733/733
f 734/734/734 736/736/736 733/733/733
f 739/739/739 738/738/738 737/737/737
f 738/738/738 740/740/740 737/737/737
