g DSJ_GTA_diLou_2
v 1.272582 3.488523 1.487846
v -1.234595 3.488523 -1.525832
v 1.25992 3.488523 -1.538495
v -1.221933 3.488523 1.487846
v -1.221933 0.2342567 4.640811
v 1.272582 0.2342567 4.640811
v -0.3482194 -0.411531 4.640811
v 1.272582 -0.411531 4.640811
v -0.3482194 -2.830071 4.640811
v -1.221933 -3.526509 4.640811
v 1.272582 -3.526509 4.640811
v 1.272582 -2.830071 4.640811
v -1.221933 0.2342567 4.514186
v 1.272582 3.032672 4.514186
v 1.272582 0.2342567 4.514186
v -1.221933 3.032672 4.514186
v -1.221933 3.133973 4.818086
v 1.272582 3.488523 4.818086
v 1.272582 3.133973 4.818086
v -1.221933 3.488523 4.818086
v -3.703785 3.133973 4.818086
v -3.703785 3.488523 4.818086
v -6.438888 3.133973 4.830749
v -6.438888 3.488523 4.830749
v 6.362912 -3.526509 1.475183
v 6.362912 0.2342567 -1.538495
v 6.362912 -3.526509 -1.538495
v 6.362912 0.2342567 1.475183
v 6.24895 0.2342567 1.475183
v 6.24895 3.032672 -1.538495
v 6.24895 0.2342567 -1.538495
v 6.24895 3.032672 1.475183
v 6.476875 3.133973 1.475183
v 6.476875 3.488523 -1.538495
v 6.476875 3.133973 -1.538495
v 6.476875 3.488523 1.475183
v 6.476875 3.488523 -4.868736
v 6.476875 3.133973 -4.868736
v 6.476875 3.133973 4.805424
v 6.476875 3.488523 4.805424
v 1.25992 -3.526509 -4.64081
v -1.234595 0.2342567 -4.64081
v -1.234595 -3.526509 -4.64081
v 1.25992 0.2342567 -4.64081
v 1.25992 0.2342567 -4.53951
v -1.234595 3.032672 -4.53951
v -1.234595 0.2342567 -4.53951
v 1.25992 3.032672 -4.53951
v 1.25992 3.133973 -4.856073
v -1.234595 3.488523 -4.856073
v -1.234595 3.133973 -4.856073
v 1.25992 3.488523 -4.856073
v 3.754435 3.133973 -4.868736
v 3.754435 3.488523 -4.868736
v 6.476875 3.133973 -4.868736
v 6.476875 3.488523 -4.868736
v -6.324926 -2.602146 1.500508
v -6.324926 -0.6901064 0.7280951
v -6.324926 -0.6901064 1.500508
v -6.324926 -2.602146 0.7280951
v -6.324926 -2.602146 2.982022
v -6.324926 -0.6901064 2.982022
v -6.210963 0.2342567 -1.525832
v -6.210963 3.032672 1.500508
v -6.210963 0.2342567 1.500508
v -6.210963 3.032672 -1.525832
v -6.451551 3.133973 -1.51317
v -6.451551 3.488523 1.500508
v -6.451551 3.133973 1.500508
v -6.451551 3.488523 -1.51317
v -6.438888 3.488523 4.830749
v -6.438888 3.133973 4.830749
v -6.464213 3.133973 -4.84341
v -6.464213 3.488523 -4.84341
v 3.754435 3.488523 1.487846
v 1.25992 3.488523 -1.538495
v 3.754435 3.488523 -1.538495
v 1.272582 3.488523 1.487846
v -3.716448 3.488523 -1.525832
v -1.221933 3.488523 1.487846
v -3.716448 3.488523 1.500508
v -1.234595 3.488523 -1.525832
v 3.767097 0.2342567 4.628149
v 4.108985 -2.589483 4.628149
v 3.767097 -3.526509 4.628149
v 4.108985 -0.7027688 4.628149
v 5.945049 -0.7027688 4.628149
v 6.362912 0.2342567 4.628149
v 5.945049 -2.589483 4.628149
v 6.362912 -3.526509 4.628149
v 1.893045 -2.830071 4.628149
v 3.767097 0.2342567 4.628149
v 3.767097 -3.526509 4.628149
v 1.893045 -0.411531 4.628149
v 1.272582 0.2342567 4.640811
v 1.272582 -0.411531 4.640811
v 1.272582 -3.526509 4.640811
v 1.272582 -2.830071 4.640811
v -5.197962 -0.5128312 4.653474
v -3.703785 0.2342567 4.640811
v -3.716448 -0.5128312 4.640811
v -6.324926 0.2342567 4.653474
v -5.197962 -1.601808 4.653474
v -6.324926 -3.526509 4.653474
v -3.703785 -3.526509 4.640811
v -3.716448 -1.601808 4.640811
v -3.07066 -0.5128312 4.640811
v -3.703785 0.2342567 4.640811
v -1.221933 0.2342567 4.640811
v -3.716448 -0.5128312 4.640811
v -3.07066 -1.601808 4.640811
v -1.221933 -3.526509 4.640811
v -3.703785 -3.526509 4.640811
v -3.716448 -1.601808 4.640811
v 3.767097 0.2342567 4.501523
v 6.24895 3.032672 4.501523
v 6.24895 0.2342567 4.501523
v 3.767097 3.032672 4.501523
v 1.272582 0.2342567 4.514186
v 3.767097 3.032672 4.501523
v 3.767097 0.2342567 4.501523
v 1.272582 3.032672 4.514186
v -3.716448 3.032672 4.526849
v -6.198301 0.2342567 4.526849
v -6.198301 3.032672 4.526849
v -3.716448 0.2342567 4.526849
v -1.221933 3.032672 4.514186
v -3.716448 0.2342567 4.526849
v -3.716448 3.032672 4.526849
v -1.221933 0.2342567 4.514186
v 3.767097 3.133973 4.805424
v 6.476875 3.488523 4.805424
v 6.476875 3.133973 4.805424
v 3.767097 3.488523 4.805424
v 1.272582 3.133973 4.818086
v 1.272582 3.488523 4.818086
v -3.72911 -3.526509 -4.628148
v -6.337588 0.2342567 -4.628148
v -6.337588 -3.526509 -4.628148
v -3.72911 0.2342567 -4.628148
v -1.234595 -3.526509 -4.64081
v -3.72911 0.2342567 -4.628148
v -3.72911 -3.526509 -4.628148
v -1.234595 0.2342567 -4.64081
v 3.754435 0.2342567 -4.653473
v 6.362912 -3.526509 -4.653473
v 6.362912 0.2342567 -4.653473
v 3.754435 -3.526509 -4.653473
v 1.25992 0.2342567 -4.64081
v 3.754435 -3.526509 -4.653473
v 3.754435 0.2342567 -4.653473
v 1.25992 -3.526509 -4.64081
v -3.72911 0.2342567 -4.53951
v -6.223626 3.032672 -4.53951
v -6.223626 0.2342567 -4.53951
v -3.72911 3.032672 -4.53951
v -1.234595 0.2342567 -4.53951
v -3.72911 3.032672 -4.53951
v -3.72911 0.2342567 -4.53951
v -1.234595 3.032672 -4.53951
v 3.754435 3.032672 -4.564836
v 6.236287 0.2342567 -4.564836
v 6.236287 3.032672 -4.564836
v 6.236287 0.2342567 -4.564836
v 3.754435 3.032672 -4.564836
v 3.754435 0.2342567 -4.564836
v 1.25992 3.032672 -4.53951
v 3.754435 0.2342567 -4.564836
v 3.754435 3.032672 -4.564836
v 1.25992 0.2342567 -4.53951
v -3.72911 3.133973 -4.84341
v -6.464213 3.488523 -4.84341
v -6.464213 3.133973 -4.84341
v -3.72911 3.488523 -4.84341
v -1.234595 3.133973 -4.856073
v -1.234595 3.488523 -4.856073
v 6.362912 -3.526509 -1.538495
v 6.362912 0.2342567 -4.653473
v 6.362912 -3.526509 -4.653473
v 6.362912 0.2342567 -1.538495
v 6.362912 0.2342567 1.475183
v 6.362912 -3.526509 4.628149
v 6.362912 0.2342567 4.628149
v 6.362912 -3.526509 1.475183
v 6.24895 0.2342567 -1.538495
v 6.236287 3.032672 -4.564836
v 6.236287 0.2342567 -4.564836
v 6.24895 3.032672 -1.538495
v 6.24895 3.032672 1.475183
v 6.24895 0.2342567 4.501523
v 6.24895 3.032672 4.501523
v 6.24895 0.2342567 1.475183
v -6.324926 -3.526509 4.653474
v -6.324926 -0.6901064 2.982022
v -6.324926 0.2342567 4.653474
v -6.324926 -2.602146 2.982022
v -6.324926 0.2342567 1.500508
v -6.324926 -0.6901064 1.500508
v -6.324926 -3.526509 1.500508
v -6.324926 -2.602146 1.500508
v -6.337588 0.2342567 -1.51317
v -6.337588 -3.526509 -4.628148
v -6.337588 0.2342567 -4.628148
v -6.337588 -3.526509 -1.51317
v -6.210963 0.2342567 1.500508
v -6.198301 3.032672 4.526849
v -6.198301 0.2342567 4.526849
v -6.210963 3.032672 1.500508
v -6.210963 3.032672 -1.525832
v -6.223626 0.2342567 -4.53951
v -6.223626 3.032672 -4.53951
v -6.210963 0.2342567 -1.525832
v -6.451551 3.488523 1.500508
v -3.703785 3.488523 4.818086
v -6.438888 3.488523 4.830749
v -3.716448 3.488523 1.500508
v -3.716448 3.488523 1.500508
v -6.451551 3.488523 -1.51317
v -3.716448 3.488523 -1.525832
v -6.451551 3.488523 1.500508
v -6.464213 3.488523 -4.84341
v -3.716448 3.488523 -1.525832
v -6.451551 3.488523 -1.51317
v -3.72911 3.488523 -4.84341
v -3.72911 3.488523 -4.84341
v -1.234595 3.488523 -1.525832
v -3.716448 3.488523 -1.525832
v -1.234595 3.488523 -4.856073
v -1.234595 3.488523 -4.856073
v 1.25992 3.488523 -1.538495
v -1.234595 3.488523 -1.525832
v 1.25992 3.488523 -4.856073
v 1.25992 3.488523 -4.856073
v 3.754435 3.488523 -1.538495
v 1.25992 3.488523 -1.538495
v 3.754435 3.488523 -4.868736
v 6.476875 3.488523 -1.538495
v 3.754435 3.488523 -4.868736
v 6.476875 3.488523 -4.868736
v 3.754435 3.488523 -1.538495
v 3.754435 3.488523 -1.538495
v 6.476875 3.488523 1.475183
v 3.754435 3.488523 1.487846
v 6.476875 3.488523 -1.538495
v 6.476875 3.488523 4.805424
v 3.754435 3.488523 1.487846
v 6.476875 3.488523 1.475183
v 3.767097 3.488523 4.805424
v 3.767097 3.488523 4.805424
v 1.272582 3.488523 1.487846
v 3.754435 3.488523 1.487846
v 1.272582 3.488523 4.818086
v 1.272582 3.488523 4.818086
v -1.221933 3.488523 1.487846
v 1.272582 3.488523 1.487846
v -1.221933 3.488523 4.818086
v -1.221933 3.488523 4.818086
v -3.716448 3.488523 1.500508
v -1.221933 3.488523 1.487846
v -3.703785 3.488523 4.818086
v 3.767097 3.133973 4.805424
v 6.24895 2.86806 4.501523
v 3.767097 2.86806 4.501523
v 6.476875 3.133973 4.805424
v 1.272582 3.133973 4.818086
v 1.272582 2.86806 4.514186
v 6.476875 3.133973 1.475183
v 6.24895 2.86806 4.501523
v 6.476875 3.133973 4.805424
v 6.24895 2.86806 1.475183
v 6.24895 2.86806 -1.538495
v 6.476875 3.133973 -1.538495
v 6.236287 2.86806 -4.564836
v 6.476875 3.133973 -4.868736
v 3.754435 3.133973 -4.868736
v 6.236287 2.86806 -4.564836
v 6.476875 3.133973 -4.868736
v 3.754435 2.86806 -4.564836
v 1.25992 2.86806 -4.53951
v 1.25992 3.133973 -4.856073
v -1.234595 2.86806 -4.53951
v -1.234595 3.133973 -4.856073
v -1.234595 3.133973 -4.856073
v -3.72911 2.86806 -4.53951
v -1.234595 2.86806 -4.53951
v -3.72911 3.133973 -4.84341
v -6.223626 2.86806 -4.53951
v -6.464213 3.133973 -4.84341
v -6.451551 3.133973 -1.51317
v -6.223626 2.86806 -4.53951
v -6.464213 3.133973 -4.84341
v -6.210963 2.86806 -1.525832
v -6.210963 2.86806 1.500508
v -6.451551 3.133973 1.500508
v -6.198301 2.86806 4.526849
v -6.438888 3.133973 4.830749
v -3.703785 3.133973 4.818086
v -6.198301 2.86806 4.526849
v -6.438888 3.133973 4.830749
v -3.716448 2.86806 4.526849
v -1.221933 2.86806 4.514186
v -1.221933 3.133973 4.818086
v 1.272582 2.86806 4.514186
v 1.272582 3.133973 4.818086
v 3.767097 0.2342567 4.628149
v 6.24895 0.2342567 4.501523
v 6.362912 0.2342567 4.628149
v 3.767097 0.2342567 4.501523
v 3.767097 0.2342567 4.628149
v 1.272582 0.2342567 4.514186
v 3.767097 0.2342567 4.501523
v 1.272582 0.2342567 4.640811
v 1.272582 0.2342567 4.640811
v -1.221933 0.2342567 4.514186
v 1.272582 0.2342567 4.514186
v -1.221933 0.2342567 4.640811
v -1.221933 0.2342567 4.640811
v -3.716448 0.2342567 4.526849
v -1.221933 0.2342567 4.514186
v -3.703785 0.2342567 4.640811
v -3.703785 0.2342567 4.640811
v -6.198301 0.2342567 4.526849
v -3.716448 0.2342567 4.526849
v -6.324926 0.2342567 4.653474
v -6.324926 0.2342567 1.500508
v -6.198301 0.2342567 4.526849
v -6.324926 0.2342567 4.653474
v -6.210963 0.2342567 1.500508
v -6.324926 0.2342567 1.500508
v -6.210963 0.2342567 -1.525832
v -6.210963 0.2342567 1.500508
v -6.337588 0.2342567 -1.51317
v -6.337588 0.2342567 -1.51317
v -6.223626 0.2342567 -4.53951
v -6.210963 0.2342567 -1.525832
v -6.337588 0.2342567 -4.628148
v -3.72911 0.2342567 -4.628148
v -6.223626 0.2342567 -4.53951
v -6.337588 0.2342567 -4.628148
v -3.72911 0.2342567 -4.53951
v -3.72911 0.2342567 -4.628148
v -1.234595 0.2342567 -4.53951
v -3.72911 0.2342567 -4.53951
v -1.234595 0.2342567 -4.64081
v -1.234595 0.2342567 -4.64081
v 1.25992 0.2342567 -4.53951
v -1.234595 0.2342567 -4.53951
v 1.25992 0.2342567 -4.64081
v 1.25992 0.2342567 -4.64081
v 3.754435 0.2342567 -4.564836
v 1.25992 0.2342567 -4.53951
v 3.754435 0.2342567 -4.653473
v 6.236287 0.2342567 -4.564836
v 6.362912 0.2342567 -4.653473
v 6.362912 0.2342567 -1.538495
v 6.236287 0.2342567 -4.564836
v 6.362912 0.2342567 -4.653473
v 6.24895 0.2342567 -1.538495
v 6.362912 0.2342567 -1.538495
v 6.24895 0.2342567 1.475183
v 6.24895 0.2342567 -1.538495
v 6.362912 0.2342567 1.475183
v 6.362912 0.2342567 1.475183
v 6.24895 0.2342567 4.501523
v 6.24895 0.2342567 1.475183
v 6.362912 0.2342567 4.628149
v -3.07066 -0.5128312 4.640811
v -3.716448 -1.601808 4.640811
v -3.716448 -0.5128312 4.640811
v -3.07066 -1.601808 4.640811
v -5.197962 -0.5128312 4.653474
v -5.197962 -1.601808 4.653474
v 1.272582 -0.411531 4.640811
v -0.3482194 -2.830071 4.640811
v -0.3482194 -0.411531 4.640811
v 1.272582 -2.830071 4.640811
v 1.893045 -2.830071 4.628149
v 1.893045 -0.411531 4.628149
v 5.945049 -2.589483 4.628149
v 4.108985 -0.7027688 4.628149
v 5.945049 -0.7027688 4.628149
v 4.108985 -2.589483 4.628149
v -6.324926 -2.602146 0.7280951
v -6.324926 -3.526509 1.500508
v -6.337588 -3.526509 -1.51317
v -6.324926 -2.602146 1.500508
v -6.324926 -0.6901064 0.7280951
v -6.337588 0.2342567 -1.51317
v -6.324926 0.2342567 1.500508
v -6.324926 -0.6901064 1.500508
v -6.021025 0.2342567 4.678799
v -6.375576 -3.526509 4.691461
v -6.375576 0.2342567 4.691461
v -6.021025 -3.526509 4.678799
v -6.375576 0.2342567 4.691461
v -6.375576 -3.526509 4.336911
v -6.375576 0.2342567 4.336911
v -6.375576 -3.526509 4.691461
v -6.375576 0.2342567 4.336911
v -6.021025 -3.526509 4.336911
v -6.021025 0.2342567 4.336911
v -6.375576 -3.526509 4.336911
v -6.021025 0.2342567 4.336911
v -6.021025 -3.526509 4.678799
v -6.021025 0.2342567 4.678799
v -6.021025 -3.526509 4.336911
v -6.021025 3.032672 4.678799
v -6.375576 0.2342567 4.691461
v -6.375576 3.032672 4.691461
v -6.021025 0.2342567 4.678799
v -6.375576 3.032672 4.691461
v -6.375576 0.2342567 4.336911
v -6.375576 3.032672 4.336911
v -6.375576 0.2342567 4.691461
v -6.375576 3.032672 4.336911
v -6.021025 0.2342567 4.336911
v -6.021025 3.032672 4.336911
v -6.375576 0.2342567 4.336911
v -6.021025 3.032672 4.336911
v -6.021025 0.2342567 4.678799
v -6.021025 3.032672 4.678799
v -6.021025 0.2342567 4.336911
v -1.031995 0.2342567 4.577499
v -1.386546 -3.526509 4.590162
v -1.386546 0.2342567 4.590162
v -1.031995 -3.526509 4.577499
v -1.386546 -3.526509 4.590162
v -1.386546 0.2342567 4.412886
v -1.386546 0.2342567 4.590162
v -1.386546 -3.526509 4.412886
v -1.031995 3.032672 4.577499
v -1.386546 0.2342567 4.590162
v -1.386546 3.032672 4.590162
v -1.031995 0.2342567 4.577499
v -1.386546 0.2342567 4.590162
v -1.386546 3.032672 4.412886
v -1.386546 3.032672 4.590162
v -1.386546 0.2342567 4.412886
v -1.031995 0.2342567 4.412886
v -1.031995 -3.526509 4.577499
v -1.031995 0.2342567 4.577499
v -1.031995 -3.526509 4.412886
v -1.031995 3.032672 4.412886
v -1.031995 0.2342567 4.577499
v -1.031995 3.032672 4.577499
v -1.031995 0.2342567 4.412886
v 3.919047 0.2342567 4.666136
v 3.564497 -3.526509 4.666136
v 3.564497 0.2342567 4.666136
v 3.919047 -3.526509 4.666136
v 3.564497 0.2342567 4.666136
v 3.564497 -3.526509 4.324249
v 3.564497 0.2342567 4.324249
v 3.564497 -3.526509 4.666136
v 3.564497 0.2342567 4.324249
v 3.919047 -3.526509 4.324249
v 3.919047 0.2342567 4.324249
v 3.564497 -3.526509 4.324249
v 3.919047 0.2342567 4.324249
v 3.919047 -3.526509 4.666136
v 3.919047 0.2342567 4.666136
v 3.919047 -3.526509 4.324249
v 3.919047 3.032672 4.666136
v 3.564497 0.2342567 4.666136
v 3.564497 3.032672 4.666136
v 3.919047 0.2342567 4.666136
v 3.564497 3.032672 4.666136
v 3.564497 0.2342567 4.324249
v 3.564497 3.032672 4.324249
v 3.564497 0.2342567 4.666136
v 3.564497 3.032672 4.324249
v 3.919047 0.2342567 4.324249
v 3.919047 3.032672 4.324249
v 3.564497 0.2342567 4.324249
v 3.919047 3.032672 4.324249
v 3.919047 0.2342567 4.666136
v 3.919047 3.032672 4.666136
v 3.919047 0.2342567 4.324249
v 6.426225 0.2342567 4.666136
v 6.071674 -3.526509 4.666136
v 6.071674 0.2342567 4.666136
v 6.426225 -3.526509 4.666136
v 6.071674 0.2342567 4.666136
v 6.071674 -3.526509 4.311586
v 6.071674 0.2342567 4.311586
v 6.071674 -3.526509 4.666136
v 6.071674 0.2342567 4.311586
v 6.426225 -3.526509 4.311586
v 6.426225 0.2342567 4.311586
v 6.071674 -3.526509 4.311586
v 6.426225 0.2342567 4.311586
v 6.426225 -3.526509 4.666136
v 6.426225 0.2342567 4.666136
v 6.426225 -3.526509 4.311586
v 6.426225 3.032672 4.666136
v 6.071674 0.2342567 4.666136
v 6.071674 3.032672 4.666136
v 6.426225 0.2342567 4.666136
v 6.071674 3.032672 4.666136
v 6.071674 0.2342567 4.311586
v 6.071674 3.032672 4.311586
v 6.071674 0.2342567 4.666136
v 6.071674 3.032672 4.311586
v 6.426225 0.2342567 4.311586
v 6.426225 3.032672 4.311586
v 6.071674 0.2342567 4.311586
v 6.426225 3.032672 4.311586
v 6.426225 0.2342567 4.666136
v 6.426225 3.032672 4.666136
v 6.426225 0.2342567 4.311586
v -6.4009 -3.526509 -4.691461
v -6.04635 0.2342567 -4.691461
v -6.4009 0.2342567 -4.691461
v -6.04635 -3.526509 -4.691461
v -6.4009 -3.526509 -4.349573
v -6.4009 0.2342567 -4.691461
v -6.4009 0.2342567 -4.349573
v -6.4009 -3.526509 -4.691461
v -6.04635 -3.526509 -4.349573
v -6.4009 0.2342567 -4.349573
v -6.04635 0.2342567 -4.349573
v -6.4009 -3.526509 -4.349573
v -6.04635 -3.526509 -4.691461
v -6.04635 0.2342567 -4.349573
v -6.04635 0.2342567 -4.691461
v -6.04635 -3.526509 -4.349573
v -6.4009 0.2342567 -4.691461
v -6.04635 3.032672 -4.691461
v -6.4009 3.032672 -4.691461
v -6.04635 0.2342567 -4.691461
v -6.4009 0.2342567 -4.349573
v -6.4009 3.032672 -4.691461
v -6.4009 3.032672 -4.349573
v -6.4009 0.2342567 -4.691461
v -6.04635 0.2342567 -4.349573
v -6.4009 3.032672 -4.349573
v -6.04635 3.032672 -4.349573
v -6.4009 0.2342567 -4.349573
v -6.04635 0.2342567 -4.691461
v -6.04635 3.032672 -4.349573
v -6.04635 3.032672 -4.691461
v -6.04635 0.2342567 -4.349573
v 6.059012 -3.526509 -4.716785
v 6.413562 0.2342567 -4.716785
v 6.059012 0.2342567 -4.716785
v 6.413562 -3.526509 -4.716785
v 6.059012 -3.526509 -4.362235
v 6.059012 0.2342567 -4.716785
v 6.059012 0.2342567 -4.362235
v 6.059012 -3.526509 -4.716785
v 6.413562 -3.526509 -4.362235
v 6.059012 0.2342567 -4.362235
v 6.413562 0.2342567 -4.362235
v 6.059012 -3.526509 -4.362235
v 6.413562 -3.526509 -4.716785
v 6.413562 0.2342567 -4.362235
v 6.413562 0.2342567 -4.716785
v 6.413562 -3.526509 -4.362235
v 6.059012 0.2342567 -4.716785
v 6.413562 3.032672 -4.716785
v 6.059012 3.032672 -4.716785
v 6.413562 0.2342567 -4.716785
v 6.059012 0.2342567 -4.362235
v 6.059012 3.032672 -4.716785
v 6.059012 3.032672 -4.362235
v 6.059012 0.2342567 -4.716785
v 6.413562 0.2342567 -4.362235
v 6.059012 3.032672 -4.362235
v 6.413562 3.032672 -4.362235
v 6.059012 0.2342567 -4.362235
v 6.413562 0.2342567 -4.716785
v 6.413562 3.032672 -4.362235
v 6.413562 3.032672 -4.716785
v 6.413562 0.2342567 -4.362235
vt 0.2443406 0.4103492
vt 0.1748486 0.4914232
vt 0.2443406 0.4914232
vt 0.1748486 0.4103492
vt 0.02814326 0.3678819
vt 0.1169386 0.3678819
vt 0.05902859 0.3485786
vt 0.1169386 0.3485786
vt 0.05902859 0.2675046
vt 0.02814326 0.2443406
vt 0.1169386 0.2443406
vt 0.1169386 0.2675046
vt 0.05902859 0.3678819
vt 0.1285206 0.4759806
vt 0.1285206 0.3678819
vt 0.05902859 0.4759806
vt 0.1014959 0.4875626
vt 0.1555452 0.4991446
vt 0.1555452 0.4875626
vt 0.1014959 0.4991446
vt 0.05516792 0.4875626
vt 0.05516792 0.4991446
vt 0.001118595 0.4875626
vt 0.001118595 0.4991446
vt 0.02814326 0.2443406
vt 0.1169386 0.3678819
vt 0.1169386 0.2443406
vt 0.02814326 0.3678819
vt 0.05902859 0.3678819
vt 0.1323813 0.4759806
vt 0.1323813 0.3678819
vt 0.05902859 0.4759806
vt 0.1092172 0.4875626
vt 0.05516792 0.4991446
vt 0.05516792 0.4875626
vt 0.1092172 0.4991446
vt 0.001118595 0.4991446
vt 0.001118595 0.4875626
vt 0.1671273 0.4875626
vt 0.1671273 0.4991446
vt 0.1169386 0.2443406
vt 0.02814326 0.3678819
vt 0.02814326 0.2443406
vt 0.1169386 0.3678819
vt 0.07447125 0.3678819
vt 0.001118595 0.4759806
vt 0.001118595 0.3678819
vt 0.07447125 0.4759806
vt 0.1014959 0.4875626
vt 0.1555452 0.4991446
vt 0.1555452 0.4875626
vt 0.1014959 0.4991446
vt 0.05516792 0.4875626
vt 0.05516792 0.4991446
vt 0.001118595 0.4875626
vt 0.001118595 0.4991446
vt 0.2057339 0.2443406
vt 0.1787093 0.3099719
vt 0.2057339 0.3099719
vt 0.1787093 0.2443406
vt 0.2443406 0.2443406
vt 0.2443406 0.3099719
vt 0.001118595 0.3678819
vt 0.07061059 0.4759806
vt 0.07061059 0.3678819
vt 0.001118595 0.4759806
vt 0.05516792 0.4875626
vt 0.1092172 0.4991446
vt 0.1092172 0.4875626
vt 0.05516792 0.4991446
vt 0.1671273 0.4991446
vt 0.1671273 0.4875626
vt 0.001118595 0.4875626
vt 0.001118595 0.4991446
vt 0.2443406 0.4103492
vt 0.1748486 0.4914232
vt 0.2443406 0.4914232
vt 0.1748486 0.4103492
vt 0.1748486 0.4914232
vt 0.2443406 0.4103492
vt 0.1748486 0.4103492
vt 0.2443406 0.4914232
vt 0.02814326 0.3678819
vt 0.04358593 0.2752259
vt 0.02814326 0.2443406
vt 0.04358593 0.3331359
vt 0.1014959 0.3331359
vt 0.1169386 0.3678819
vt 0.1014959 0.2752259
vt 0.1169386 0.2443406
vt 0.05130726 0.2675046
vt 0.1169386 0.3678819
vt 0.1169386 0.2443406
vt 0.05130726 0.3447179
vt 0.02814326 0.3678819
vt 0.02814326 0.3447179
vt 0.02814326 0.2443406
vt 0.02814326 0.2675046
vt 0.06674992 0.3447179
vt 0.1169386 0.3678819
vt 0.1169386 0.3447179
vt 0.02814326 0.3678819
vt 0.06674992 0.3099719
vt 0.02814326 0.2443406
vt 0.1169386 0.2443406
vt 0.1169386 0.3099719
vt 0.05516792 0.3447179
vt 0.02814326 0.3678819
vt 0.1169386 0.3678819
vt 0.02814326 0.3447179
vt 0.05516792 0.3099719
vt 0.1169386 0.2443406
vt 0.02814326 0.2443406
vt 0.02814326 0.3099719
vt 0.05902859 0.3678819
vt 0.1285206 0.4759806
vt 0.1285206 0.3678819
vt 0.05902859 0.4759806
vt 0.001118595 0.3678819
vt 0.07447125 0.4759806
vt 0.07447125 0.3678819
vt 0.001118595 0.4759806
vt 0.1285206 0.4759806
vt 0.05902859 0.3678819
vt 0.05902859 0.4759806
vt 0.1285206 0.3678819
vt 0.07447125 0.4759806
vt 0.001118595 0.3678819
vt 0.001118595 0.4759806
vt 0.07447125 0.3678819
vt 0.1014959 0.4875626
vt 0.1632666 0.4991446
vt 0.1632666 0.4875626
vt 0.1014959 0.4991446
vt 0.05516792 0.4875626
vt 0.05516792 0.4991446
vt 0.1169386 0.2443406
vt 0.02814326 0.3678819
vt 0.02814326 0.2443406
vt 0.1169386 0.3678819
vt 0.1169386 0.2443406
vt 0.02814326 0.3678819
vt 0.02814326 0.2443406
vt 0.1169386 0.3678819
vt 0.02814326 0.3678819
vt 0.1169386 0.2443406
vt 0.1169386 0.3678819
vt 0.02814326 0.2443406
vt 0.02814326 0.3678819
vt 0.1169386 0.2443406
vt 0.1169386 0.3678819
vt 0.02814326 0.2443406
vt 0.07447125 0.3678819
vt 0.001118595 0.4759806
vt 0.001118595 0.3678819
vt 0.07447125 0.4759806
vt 0.1285206 0.3678819
vt 0.05902859 0.4759806
vt 0.05902859 0.3678819
vt 0.1285206 0.4759806
vt 0.001118595 0.4759806
vt 0.07447125 0.3678819
vt 0.07447125 0.4759806
vt 0.07447125 0.3678819
vt 0.001118595 0.4759806
vt 0.001118595 0.3678819
vt 0.05902859 0.4759806
vt 0.1285206 0.3678819
vt 0.1285206 0.4759806
vt 0.05902859 0.3678819
vt 0.1014959 0.4875626
vt 0.1632666 0.4991446
vt 0.1632666 0.4875626
vt 0.1014959 0.4991446
vt 0.05516792 0.4875626
vt 0.05516792 0.4991446
vt 0.02814326 0.2443406
vt 0.1169386 0.3678819
vt 0.1169386 0.2443406
vt 0.02814326 0.3678819
vt 0.1169386 0.3678819
vt 0.02814326 0.2443406
vt 0.02814326 0.3678819
vt 0.1169386 0.2443406
vt 0.1207993 0.3678819
vt 0.1709879 0.4759806
vt 0.1709879 0.3678819
vt 0.1207993 0.4759806
vt 0.1709879 0.4759806
vt 0.1207993 0.3678819
vt 0.1207993 0.4759806
vt 0.1709879 0.3678819
vt 0.1169386 0.2443406
vt 0.07061059 0.3331359
vt 0.1169386 0.3678819
vt 0.07061059 0.2752259
vt 0.02814326 0.3678819
vt 0.02814326 0.3331359
vt 0.02814326 0.2443406
vt 0.02814326 0.2752259
vt 0.1169386 0.3678819
vt 0.02814326 0.2443406
vt 0.02814326 0.3678819
vt 0.1169386 0.2443406
vt 0.1207993 0.3678819
vt 0.1709879 0.4759806
vt 0.1709879 0.3678819
vt 0.1207993 0.4759806
vt 0.1709879 0.4759806
vt 0.1207993 0.3678819
vt 0.1207993 0.4759806
vt 0.1709879 0.3678819
vt 0.1748486 0.4914232
vt 0.2443406 0.4103492
vt 0.1748486 0.4103492
vt 0.2443406 0.4914232
vt 0.2443406 0.4103492
vt 0.1748486 0.4914232
vt 0.2443406 0.4914232
vt 0.1748486 0.4103492
vt 0.1748486 0.4914232
vt 0.2443406 0.4103492
vt 0.1748486 0.4103492
vt 0.2443406 0.4914232
vt 0.1748486 0.4914232
vt 0.2443406 0.4103492
vt 0.1748486 0.4103492
vt 0.2443406 0.4914232
vt 0.1748486 0.4914232
vt 0.2443406 0.4103492
vt 0.1748486 0.4103492
vt 0.2443406 0.4914232
vt 0.1748486 0.4914232
vt 0.2443406 0.4103492
vt 0.1748486 0.4103492
vt 0.2443406 0.4914232
vt 0.2443406 0.4103492
vt 0.1748486 0.4914232
vt 0.2443406 0.4914232
vt 0.1748486 0.4103492
vt 0.1748486 0.4914232
vt 0.2443406 0.4103492
vt 0.1748486 0.4103492
vt 0.2443406 0.4914232
vt 0.2443406 0.4103492
vt 0.1748486 0.4914232
vt 0.2443406 0.4914232
vt 0.1748486 0.4103492
vt 0.2443406 0.4103492
vt 0.1748486 0.4914232
vt 0.2443406 0.4914232
vt 0.1748486 0.4103492
vt 0.2443406 0.4103492
vt 0.1748486 0.4914232
vt 0.2443406 0.4914232
vt 0.1748486 0.4103492
vt 0.2443406 0.4103492
vt 0.1748486 0.4914232
vt 0.2443406 0.4914232
vt 0.1748486 0.4103492
vt 0.1014959 0.4875626
vt 0.1555452 0.4759806
vt 0.1014959 0.4759806
vt 0.1632666 0.4875626
vt 0.05516792 0.4875626
vt 0.05516792 0.4759806
vt 0.1092172 0.4875626
vt 0.1594059 0.4759806
vt 0.1671273 0.4875626
vt 0.1092172 0.4759806
vt 0.05516792 0.4759806
vt 0.05516792 0.4875626
vt 0.004979262 0.4759806
vt 0.001118595 0.4875626
vt 0.05516792 0.4875626
vt 0.004979262 0.4759806
vt 0.001118595 0.4875626
vt 0.05516792 0.4759806
vt 0.1014959 0.4759806
vt 0.1014959 0.4875626
vt 0.1555452 0.4759806
vt 0.1555452 0.4875626
vt 0.05516792 0.4875626
vt 0.1014959 0.4759806
vt 0.05516792 0.4759806
vt 0.1014959 0.4875626
vt 0.1555452 0.4759806
vt 0.1632666 0.4875626
vt 0.05516792 0.4875626
vt 0.004979262 0.4759806
vt 0.001118595 0.4875626
vt 0.05516792 0.4759806
vt 0.1092172 0.4759806
vt 0.1092172 0.4875626
vt 0.1594059 0.4759806
vt 0.1671273 0.4875626
vt 0.05516792 0.4875626
vt 0.004979262 0.4759806
vt 0.001118595 0.4875626
vt 0.05516792 0.4759806
vt 0.1014959 0.4759806
vt 0.1014959 0.4875626
vt 0.1555452 0.4759806
vt 0.1555452 0.4875626
vt 0.02814326 0.3601606
vt 0.1169386 0.3562999
vt 0.1169386 0.3601606
vt 0.02814326 0.3562999
vt 0.1169386 0.3601606
vt 0.02814326 0.3562999
vt 0.1169386 0.3562999
vt 0.02814326 0.3601606
vt 0.1169386 0.3601606
vt 0.02814326 0.3562999
vt 0.1169386 0.3562999
vt 0.02814326 0.3601606
vt 0.1169386 0.3601606
vt 0.02814326 0.3562999
vt 0.1169386 0.3562999
vt 0.02814326 0.3601606
vt 0.1169386 0.3601606
vt 0.02814326 0.3562999
vt 0.1169386 0.3562999
vt 0.02814326 0.3601606
vt 0.1130779 0.3601606
vt 0.04358593 0.3562999
vt 0.04358593 0.3601606
vt 0.1130779 0.3562999
vt 0.04744659 0.3601606
vt 0.1130779 0.3562999
vt 0.04744659 0.3562999
vt 0.1130779 0.3601606
vt 0.04358593 0.3601606
vt 0.1130779 0.3562999
vt 0.04358593 0.3562999
vt 0.1169386 0.3601606
vt 0.08219258 0.3601606
vt 0.04744659 0.3562999
vt 0.04358593 0.3601606
vt 0.08219258 0.3562999
vt 0.07061059 0.3601606
vt 0.1130779 0.3562999
vt 0.07061059 0.3562999
vt 0.1130779 0.3601606
vt 0.05902859 0.3601606
vt 0.1014959 0.3562999
vt 0.05902859 0.3562999
vt 0.1014959 0.3601606
vt 0.02814326 0.3601606
vt 0.07447125 0.3562999
vt 0.02814326 0.3562999
vt 0.07447125 0.3601606
vt 0.1130779 0.3562999
vt 0.1169386 0.3601606
vt 0.04358593 0.3601606
vt 0.1130779 0.3562999
vt 0.1169386 0.3601606
vt 0.04358593 0.3562999
vt 0.1130779 0.3601606
vt 0.04744659 0.3562999
vt 0.1130779 0.3562999
vt 0.04744659 0.3601606
vt 0.1130779 0.3601606
vt 0.04358593 0.3562999
vt 0.1130779 0.3562999
vt 0.04358593 0.3601606
vt 0.2443406 0.3447179
vt 0.2250372 0.3099719
vt 0.2250372 0.3447179
vt 0.2443406 0.3099719
vt 0.1825699 0.3447179
vt 0.1825699 0.3099719
vt 0.1632666 0.3678819
vt 0.1169386 0.3061112
vt 0.1169386 0.3678819
vt 0.1632666 0.3061112
vt 0.1787093 0.3061112
vt 0.1787093 0.3678819
vt 0.1709879 0.2443406
vt 0.1169386 0.3061112
vt 0.1709879 0.3061112
vt 0.1169386 0.2443406
vt 0.09377459 0.2752259
vt 0.1169386 0.2443406
vt 0.02814326 0.2443406
vt 0.1169386 0.2752259
vt 0.09377459 0.3331359
vt 0.02814326 0.3678819
vt 0.1169386 0.3678819
vt 0.1169386 0.3331359
vt 0.01656126 0.3678819
vt 0.001118595 0.2443406
vt 0.001118595 0.3678819
vt 0.01656126 0.2443406
vt 0.01656126 0.3678819
vt 0.02814326 0.2443406
vt 0.02814326 0.3678819
vt 0.01656126 0.2443406
vt 0.001118595 0.3678819
vt 0.01656126 0.2443406
vt 0.01656126 0.3678819
vt 0.001118595 0.2443406
vt 0.02814326 0.3678819
vt 0.01656126 0.2443406
vt 0.01656126 0.3678819
vt 0.02814326 0.2443406
vt 0.01656126 0.3678819
vt 0.001118595 0.2675046
vt 0.001118595 0.3678819
vt 0.01656126 0.2675046
vt 0.01656126 0.3678819
vt 0.02814326 0.2675046
vt 0.02814326 0.3678819
vt 0.01656126 0.2675046
vt 0.001118595 0.3678819
vt 0.01656126 0.2675046
vt 0.01656126 0.3678819
vt 0.001118595 0.2675046
vt 0.02814326 0.3678819
vt 0.01656126 0.2675046
vt 0.01656126 0.3678819
vt 0.02814326 0.2675046
vt 0.01656126 0.3678819
vt 0.001118595 0.2443406
vt 0.001118595 0.3678819
vt 0.01656126 0.2443406
vt 0.01656126 0.2443406
vt 0.02428259 0.3678819
vt 0.01656126 0.3678819
vt 0.02428259 0.2443406
vt 0.01656126 0.3678819
vt 0.001118595 0.2675046
vt 0.001118595 0.3678819
vt 0.01656126 0.2675046
vt 0.01656126 0.2675046
vt 0.02428259 0.3678819
vt 0.01656126 0.3678819
vt 0.02428259 0.2675046
vt 0.02428259 0.3678819
vt 0.01656126 0.2443406
vt 0.01656126 0.3678819
vt 0.02428259 0.2443406
vt 0.02428259 0.3678819
vt 0.01656126 0.2675046
vt 0.01656126 0.3678819
vt 0.02428259 0.2675046
vt 0.01656126 0.3678819
vt 0.001118595 0.2443406
vt 0.001118595 0.3678819
vt 0.01656126 0.2443406
vt 0.01656126 0.3678819
vt 0.02814326 0.2443406
vt 0.02814326 0.3678819
vt 0.01656126 0.2443406
vt 0.001118595 0.3678819
vt 0.01656126 0.2443406
vt 0.01656126 0.3678819
vt 0.001118595 0.2443406
vt 0.02814326 0.3678819
vt 0.01656126 0.2443406
vt 0.01656126 0.3678819
vt 0.02814326 0.2443406
vt 0.01656126 0.3678819
vt 0.001118595 0.2675046
vt 0.001118595 0.3678819
vt 0.01656126 0.2675046
vt 0.01656126 0.3678819
vt 0.02814326 0.2675046
vt 0.02814326 0.3678819
vt 0.01656126 0.2675046
vt 0.001118595 0.3678819
vt 0.01656126 0.2675046
vt 0.01656126 0.3678819
vt 0.001118595 0.2675046
vt 0.02814326 0.3678819
vt 0.01656126 0.2675046
vt 0.01656126 0.3678819
vt 0.02814326 0.2675046
vt 0.01656126 0.3678819
vt 0.001118595 0.2443406
vt 0.001118595 0.3678819
vt 0.01656126 0.2443406
vt 0.01656126 0.3678819
vt 0.02814326 0.2443406
vt 0.02814326 0.3678819
vt 0.01656126 0.2443406
vt 0.001118595 0.3678819
vt 0.01656126 0.2443406
vt 0.01656126 0.3678819
vt 0.001118595 0.2443406
vt 0.02814326 0.3678819
vt 0.01656126 0.2443406
vt 0.01656126 0.3678819
vt 0.02814326 0.2443406
vt 0.01656126 0.3678819
vt 0.001118595 0.2675046
vt 0.001118595 0.3678819
vt 0.01656126 0.2675046
vt 0.01656126 0.3678819
vt 0.02814326 0.2675046
vt 0.02814326 0.3678819
vt 0.01656126 0.2675046
vt 0.001118595 0.3678819
vt 0.01656126 0.2675046
vt 0.01656126 0.3678819
vt 0.001118595 0.2675046
vt 0.02814326 0.3678819
vt 0.01656126 0.2675046
vt 0.01656126 0.3678819
vt 0.02814326 0.2675046
vt 0.001118595 0.2443406
vt 0.01656126 0.3678819
vt 0.001118595 0.3678819
vt 0.01656126 0.2443406
vt 0.02814326 0.2443406
vt 0.01656126 0.3678819
vt 0.02814326 0.3678819
vt 0.01656126 0.2443406
vt 0.01656126 0.2443406
vt 0.001118595 0.3678819
vt 0.01656126 0.3678819
vt 0.001118595 0.2443406
vt 0.01656126 0.2443406
vt 0.02814326 0.3678819
vt 0.01656126 0.3678819
vt 0.02814326 0.2443406
vt 0.001118595 0.2675046
vt 0.01656126 0.3678819
vt 0.001118595 0.3678819
vt 0.01656126 0.2675046
vt 0.02814326 0.2675046
vt 0.01656126 0.3678819
vt 0.02814326 0.3678819
vt 0.01656126 0.2675046
vt 0.01656126 0.2675046
vt 0.001118595 0.3678819
vt 0.01656126 0.3678819
vt 0.001118595 0.2675046
vt 0.01656126 0.2675046
vt 0.02814326 0.3678819
vt 0.01656126 0.3678819
vt 0.02814326 0.2675046
vt 0.001118595 0.2443406
vt 0.01656126 0.3678819
vt 0.001118595 0.3678819
vt 0.01656126 0.2443406
vt 0.02814326 0.2443406
vt 0.01656126 0.3678819
vt 0.02814326 0.3678819
vt 0.01656126 0.2443406
vt 0.01656126 0.2443406
vt 0.001118595 0.3678819
vt 0.01656126 0.3678819
vt 0.001118595 0.2443406
vt 0.01656126 0.2443406
vt 0.02814326 0.3678819
vt 0.01656126 0.3678819
vt 0.02814326 0.2443406
vt 0.001118595 0.2675046
vt 0.01656126 0.3678819
vt 0.001118595 0.3678819
vt 0.01656126 0.2675046
vt 0.02814326 0.2675046
vt 0.01656126 0.3678819
vt 0.02814326 0.3678819
vt 0.01656126 0.2675046
vt 0.01656126 0.2675046
vt 0.001118595 0.3678819
vt 0.01656126 0.3678819
vt 0.001118595 0.2675046
vt 0.01656126 0.2675046
vt 0.02814326 0.3678819
vt 0.01656126 0.3678819
vt 0.02814326 0.2675046
vn 0.01587099 0.9998741 0
vn 0.01587099 0.9998741 0
vn 0.01587099 0.9998741 0
vn 0.01587099 0.9998741 0
vn 0.04761302 -0.04761302 0.9977304
vn 0.04761302 -0.04761302 0.9977304
vn 0.04761302 -0.04761302 0.9977304
vn 0.04761302 -0.04761302 0.9977304
vn 0.04761302 -0.04761302 0.9977304
vn 0.04761302 -0.04761302 0.9977304
vn 0.04761302 -0.04761302 0.9977304
vn 0.04761302 -0.04761302 0.9977304
vn 0.04761302 -0.04761302 0.9977304
vn 0.04761302 -0.04761302 0.9977304
vn 0.04761302 -0.04761302 0.9977304
vn 0.04761302 -0.04761302 0.9977304
vn 0.04761302 -0.04761302 0.9977304
vn 0.04761302 -0.04761302 0.9977304
vn 0.04761302 -0.04761302 0.9977304
vn 0.04761302 -0.04761302 0.9977304
vn 0.04761302 -0.04761302 0.9977304
vn 0.04761302 -0.04761302 0.9977304
vn 0.04761302 -0.04761302 0.9977304
vn 0.04761302 -0.04761302 0.9977304
vn 0.9998741 -0.01587099 0
vn 0.9998741 -0.01587099 0
vn 0.9998741 -0.01587099 0
vn 0.9998741 -0.01587099 0
vn 0.9998741 -0.01587099 0
vn 0.9998741 -0.01587099 0
vn 0.9998741 -0.01587099 0
vn 0.9998741 -0.01587099 0
vn 0.9998741 -0.01587099 0
vn 0.9998741 -0.01587099 0
vn 0.9998741 -0.01587099 0
vn 0.9998741 -0.01587099 0
vn 0.9998741 -0.01587099 0
vn 0.9998741 -0.01587099 0
vn 0.9998741 -0.01587099 0
vn 0.9998741 -0.01587099 0
vn 0.04761302 -0.04761302 -0.9977304
vn 0.04761302 -0.04761302 -0.9977304
vn 0.04761302 -0.04761302 -0.9977304
vn 0.04761302 -0.04761302 -0.9977304
vn 0.04761302 -0.04761302 -0.9977304
vn 0.04761302 -0.04761302 -0.9977304
vn 0.04761302 -0.04761302 -0.9977304
vn 0.04761302 -0.04761302 -0.9977304
vn 0.04761302 -0.04761302 -0.9977304
vn 0.04761302 -0.04761302 -0.9977304
vn 0.04761302 -0.04761302 -0.9977304
vn 0.04761302 -0.04761302 -0.9977304
vn 0.04761302 -0.04761302 -0.9977304
vn 0.04761302 -0.04761302 -0.9977304
vn 0.04761302 -0.04761302 -0.9977304
vn 0.04761302 -0.04761302 -0.9977304
vn -0.9681321 -0.04761302 0.2458723
vn -0.9681321 -0.04761302 0.2458723
vn -0.9681321 -0.04761302 0.2458723
vn -0.9681321 -0.04761302 0.2458723
vn -0.9681321 -0.04761302 0.2458723
vn -0.9681321 -0.04761302 0.2458723
vn -0.9681321 -0.04761302 0.2458723
vn -0.9681321 -0.04761302 0.2458723
vn -0.9681321 -0.04761302 0.2458723
vn -0.9681321 -0.04761302 0.2458723
vn -0.9681321 -0.04761302 0.2458723
vn -0.9681321 -0.04761302 0.2458723
vn -0.9681321 -0.04761302 0.2458723
vn -0.9681321 -0.04761302 0.2458723
vn -0.9681321 -0.04761302 0.2458723
vn -0.9681321 -0.04761302 0.2458723
vn -0.9681321 -0.04761302 0.2458723
vn -0.9681321 -0.04761302 0.2458723
vn 0.01587099 0.9998741 0
vn 0.01587099 0.9998741 0
vn 0.01587099 0.9998741 0
vn 0.01587099 0.9998741 0
vn 0.01587099 0.9998741 0
vn 0.01587099 0.9998741 0
vn 0.01587099 0.9998741 0
vn 0.01587099 0.9998741 0
vn 0.04761302 -0.04761302 0.9977304
vn 0.04761302 -0.04761302 0.9977304
vn 0.04761302 -0.04761302 0.9977304
vn 0.04761302 -0.04761302 0.9977304
vn 0.04761302 -0.04761302 0.9977304
vn 0.04761302 -0.04761302 0.9977304
vn 0.04761302 -0.04761302 0.9977304
vn 0.04761302 -0.04761302 0.9977304
vn 0.04761302 -0.04761302 0.9977304
vn 0.04761302 -0.04761302 0.9977304
vn 0.04761302 -0.04761302 0.9977304
vn 0.04761302 -0.04761302 0.9977304
vn 0.04761302 -0.04761302 0.9977304
vn 0.04761302 -0.04761302 0.9977304
vn 0.04761302 -0.04761302 0.9977304
vn 0.04761302 -0.04761302 0.9977304
vn 0.04761302 -0.04761302 0.9977304
vn 0.04761302 -0.04761302 0.9977304
vn 0.04761302 -0.04761302 0.9977304
vn 0.04761302 -0.04761302 0.9977304
vn 0.04761302 -0.04761302 0.9977304
vn 0.04761302 -0.04761302 0.9977304
vn 0.04761302 -0.04761302 0.9977304
vn 0.04761302 -0.04761302 0.9977304
vn 0.04761302 -0.04761302 0.9977304
vn 0.04761302 -0.04761302 0.9977304
vn 0.04761302 -0.04761302 0.9977304
vn 0.04761302 -0.04761302 0.9977304
vn 0.04761302 -0.04761302 0.9977304
vn 0.04761302 -0.04761302 0.9977304
vn 0.04761302 -0.04761302 0.9977304
vn 0.04761302 -0.04761302 0.9977304
vn 0.04761302 -0.04761302 0.9977304
vn 0.04761302 -0.04761302 0.9977304
vn 0.04761302 -0.04761302 0.9977304
vn 0.04761302 -0.04761302 0.9977304
vn 0.04761302 -0.04761302 0.9977304
vn 0.04761302 -0.04761302 0.9977304
vn 0.04761302 -0.04761302 0.9977304
vn 0.04761302 -0.04761302 0.9977304
vn 0.04761302 -0.04761302 0.9977304
vn 0.04761302 -0.04761302 0.9977304
vn 0.04761302 -0.04761302 0.9977304
vn 0.04761302 -0.04761302 0.9977304
vn 0.04761302 -0.04761302 0.9977304
vn 0.04761302 -0.04761302 0.9977304
vn 0.04761302 -0.04761302 0.9977304
vn 0.04761302 -0.04761302 0.9977304
vn 0.04761302 -0.04761302 0.9977304
vn 0.04761302 -0.04761302 0.9977304
vn 0.04761302 -0.04761302 0.9977304
vn 0.04761302 -0.04761302 0.9977304
vn 0.04761302 -0.04761302 0.9977304
vn 0.04761302 -0.04761302 0.9977304
vn 0.04761302 -0.04761302 -0.9977304
vn 0.04761302 -0.04761302 -0.9977304
vn 0.04761302 -0.04761302 -0.9977304
vn 0.04761302 -0.04761302 -0.9977304
vn 0.04761302 -0.04761302 -0.9977304
vn 0.04761302 -0.04761302 -0.9977304
vn 0.04761302 -0.04761302 -0.9977304
vn 0.04761302 -0.04761302 -0.9977304
vn 0.04761302 -0.04761302 -0.9977304
vn 0.04761302 -0.04761302 -0.9977304
vn 0.04761302 -0.04761302 -0.9977304
vn 0.04761302 -0.04761302 -0.9977304
vn 0.04761302 -0.04761302 -0.9977304
vn 0.04761302 -0.04761302 -0.9977304
vn 0.04761302 -0.04761302 -0.9977304
vn 0.04761302 -0.04761302 -0.9977304
vn 0.04761302 -0.04761302 -0.9977304
vn 0.04761302 -0.04761302 -0.9977304
vn 0.04761302 -0.04761302 -0.9977304
vn 0.04761302 -0.04761302 -0.9977304
vn 0.04761302 -0.04761302 -0.9977304
vn 0.04761302 -0.04761302 -0.9977304
vn 0.04761302 -0.04761302 -0.9977304
vn 0.04761302 -0.04761302 -0.9977304
vn 0.04761302 -0.04761302 -0.9977304
vn 0.04761302 -0.04761302 -0.9977304
vn 0.04761302 -0.04761302 -0.9977304
vn 0.04761302 -0.04761302 -0.9977304
vn 0.04761302 -0.04761302 -0.9977304
vn 0.04761302 -0.04761302 -0.9977304
vn 0.04761302 -0.04761302 -0.9977304
vn 0.04761302 -0.04761302 -0.9977304
vn 0.04761302 -0.04761302 -0.9977304
vn 0.04761302 -0.04761302 -0.9977304
vn 0.04761302 -0.04761302 -0.9977304
vn 0.04761302 -0.04761302 -0.9977304
vn 0.04761302 -0.04761302 -0.9977304
vn 0.04761302 -0.04761302 -0.9977304
vn 0.04761302 -0.04761302 -0.9977304
vn 0.04761302 -0.04761302 -0.9977304
vn 0.9998741 -0.01587099 0
vn 0.9998741 -0.01587099 0
vn 0.9998741 -0.01587099 0
vn 0.9998741 -0.01587099 0
vn 0.9998741 -0.01587099 0
vn 0.9998741 -0.01587099 0
vn 0.9998741 -0.01587099 0
vn 0.9998741 -0.01587099 0
vn 0.9998741 -0.01587099 0
vn 0.9998741 -0.01587099 0
vn 0.9998741 -0.01587099 0
vn 0.9998741 -0.01587099 0
vn 0.9998741 -0.01587099 0
vn 0.9998741 -0.01587099 0
vn 0.9998741 -0.01587099 0
vn 0.9998741 -0.01587099 0
vn -0.9681321 -0.04761302 0.2458723
vn -0.9681321 -0.04761302 0.2458723
vn -0.9681321 -0.04761302 0.2458723
vn -0.9681321 -0.04761302 0.2458723
vn -0.9681321 -0.04761302 0.2458723
vn -0.9681321 -0.04761302 0.2458723
vn -0.9681321 -0.04761302 0.2458723
vn -0.9681321 -0.04761302 0.2458723
vn -0.9681321 -0.04761302 0.2458723
vn -0.9681321 -0.04761302 0.2458723
vn -0.9681321 -0.04761302 0.2458723
vn -0.9681321 -0.04761302 0.2458723
vn -0.9681321 -0.04761302 0.2458723
vn -0.9681321 -0.04761302 0.2458723
vn -0.9681321 -0.04761302 0.2458723
vn -0.9681321 -0.04761302 0.2458723
vn -0.9681321 -0.04761302 0.2458723
vn -0.9681321 -0.04761302 0.2458723
vn -0.9681321 -0.04761302 0.2458723
vn -0.9681321 -0.04761302 0.2458723
vn 0.01587099 0.9998741 0
vn 0.01587099 0.9998741 0
vn 0.01587099 0.9998741 0
vn 0.01587099 0.9998741 0
vn 0.01587099 0.9998741 0
vn 0.01587099 0.9998741 0
vn 0.01587099 0.9998741 0
vn 0.01587099 0.9998741 0
vn 0.01587099 0.9998741 0
vn 0.01587099 0.9998741 0
vn 0.01587099 0.9998741 0
vn 0.01587099 0.9998741 0
vn 0.01587099 0.9998741 0
vn 0.01587099 0.9998741 0
vn 0.01587099 0.9998741 0
vn 0.01587099 0.9998741 0
vn 0.01587099 0.9998741 0
vn 0.01587099 0.9998741 0
vn 0.01587099 0.9998741 0
vn 0.01587099 0.9998741 0
vn 0.01587099 0.9998741 0
vn 0.01587099 0.9998741 0
vn 0.01587099 0.9998741 0
vn 0.01587099 0.9998741 0
vn 0.01587099 0.9998741 0
vn 0.01587099 0.9998741 0
vn 0.01587099 0.9998741 0
vn 0.01587099 0.9998741 0
vn 0.01587099 0.9998741 0
vn 0.01587099 0.9998741 0
vn 0.01587099 0.9998741 0
vn 0.01587099 0.9998741 0
vn 0.01587099 0.9998741 0
vn 0.01587099 0.9998741 0
vn 0.01587099 0.9998741 0
vn 0.01587099 0.9998741 0
vn 0.01587099 0.9998741 0
vn 0.01587099 0.9998741 0
vn 0.01587099 0.9998741 0
vn 0.01587099 0.9998741 0
vn 0.01587099 0.9998741 0
vn 0.01587099 0.9998741 0
vn 0.01587099 0.9998741 0
vn 0.01587099 0.9998741 0
vn 0.01587099 0.9998741 0
vn 0.01587099 0.9998741 0
vn 0.01587099 0.9998741 0
vn 0.01587099 0.9998741 0
vn 0.04761302 -0.8094219 0.5852941
vn 0.04761302 -0.8094219 0.5852941
vn 0.04761302 -0.8094219 0.5852941
vn 0.04761302 -0.8094219 0.5852941
vn 0.04761302 -0.8094219 0.5852941
vn 0.04761302 -0.8094219 0.5852941
vn 0.7378054 -0.6750134 0
vn 0.7378054 -0.6750134 0
vn 0.7378054 -0.6750134 0
vn 0.7378054 -0.6750134 0
vn 0.7378054 -0.6750134 0
vn 0.7378054 -0.6750134 0
vn 0.7378054 -0.6750134 0
vn 0.7378054 -0.6750134 0
vn 0.04761302 -0.8094219 -0.5852941
vn 0.04761302 -0.8094219 -0.5852941
vn 0.04761302 -0.8094219 -0.5852941
vn 0.04761302 -0.8094219 -0.5852941
vn 0.04761302 -0.8094219 -0.5852941
vn 0.04761302 -0.8094219 -0.5852941
vn 0.04761302 -0.8094219 -0.5852941
vn 0.04761302 -0.8094219 -0.5852941
vn 0.04761302 -0.8094219 -0.5852941
vn 0.04761302 -0.8094219 -0.5852941
vn 0.04761302 -0.8094219 -0.5852941
vn 0.04761302 -0.8094219 -0.5852941
vn 0.04761302 -0.8094219 -0.5852941
vn 0.04761302 -0.8094219 -0.5852941
vn -0.7071068 -0.7071068 0
vn -0.7071068 -0.7071068 0
vn -0.7071068 -0.7071068 0
vn -0.7071068 -0.7071068 0
vn -0.7071068 -0.7071068 0
vn -0.7071068 -0.7071068 0
vn -0.7071068 -0.7071068 0
vn -0.7071068 -0.7071068 0
vn 0.04761302 -0.8094219 0.5852941
vn 0.04761302 -0.8094219 0.5852941
vn 0.04761302 -0.8094219 0.5852941
vn 0.04761302 -0.8094219 0.5852941
vn 0.04761302 -0.8094219 0.5852941
vn 0.04761302 -0.8094219 0.5852941
vn 0.04761302 -0.8094219 0.5852941
vn 0.04761302 -0.8094219 0.5852941
vn 0.01587099 0.9998741 0
vn 0.01587099 0.9998741 0
vn 0.01587099 0.9998741 0
vn 0.01587099 0.9998741 0
vn 0.01587099 0.9998741 0
vn 0.01587099 0.9998741 0
vn 0.01587099 0.9998741 0
vn 0.01587099 0.9998741 0
vn 0.01587099 0.9998741 0
vn 0.01587099 0.9998741 0
vn 0.01587099 0.9998741 0
vn 0.01587099 0.9998741 0
vn 0.01587099 0.9998741 0
vn 0.01587099 0.9998741 0
vn 0.01587099 0.9998741 0
vn 0.01587099 0.9998741 0
vn 0.01587099 0.9998741 0
vn 0.01587099 0.9998741 0
vn 0.01587099 0.9998741 0
vn 0.01587099 0.9998741 0
vn 0.01587099 0.9998741 0
vn 0.01587099 0.9998741 0
vn 0.01587099 0.9998741 0
vn 0.01587099 0.9998741 0
vn 0.01587099 0.9998741 0
vn 0.01587099 0.9998741 0
vn 0.01587099 0.9998741 0
vn 0.01587099 0.9998741 0
vn 0.01587099 0.9998741 0
vn 0.01587099 0.9998741 0
vn 0.01587099 0.9998741 0
vn 0.01587099 0.9998741 0
vn 0.01587099 0.9998741 0
vn 0.01587099 0.9998741 0
vn 0.01587099 0.9998741 0
vn 0.01587099 0.9998741 0
vn 0.01587099 0.9998741 0
vn 0.01587099 0.9998741 0
vn 0.01587099 0.9998741 0
vn 0.01587099 0.9998741 0
vn 0.01587099 0.9998741 0
vn 0.01587099 0.9998741 0
vn 0.01587099 0.9998741 0
vn 0.01587099 0.9998741 0
vn 0.01587099 0.9998741 0
vn 0.01587099 0.9998741 0
vn 0.01587099 0.9998741 0
vn 0.01587099 0.9998741 0
vn 0.01587099 0.9998741 0
vn 0.01587099 0.9998741 0
vn 0.01587099 0.9998741 0
vn 0.01587099 0.9998741 0
vn 0.01587099 0.9998741 0
vn 0.01587099 0.9998741 0
vn 0.01587099 0.9998741 0
vn 0.01587099 0.9998741 0
vn 0.01587099 0.9998741 0
vn 0.01587099 0.9998741 0
vn 0.01587099 0.9998741 0
vn 0.01587099 0.9998741 0
vn 0.01587099 0.9998741 0
vn 0.01587099 0.9998741 0
vn 0.04761302 -0.04761302 0.9977304
vn 0.04761302 -0.04761302 0.9977304
vn 0.04761302 -0.04761302 0.9977304
vn 0.04761302 -0.04761302 0.9977304
vn 0.04761302 -0.04761302 0.9977304
vn 0.04761302 -0.04761302 0.9977304
vn 0.04761302 -0.04761302 0.9977304
vn 0.04761302 -0.04761302 0.9977304
vn 0.04761302 -0.04761302 0.9977304
vn 0.04761302 -0.04761302 0.9977304
vn 0.04761302 -0.04761302 0.9977304
vn 0.04761302 -0.04761302 0.9977304
vn 0.04761302 -0.04761302 0.9977304
vn 0.04761302 -0.04761302 0.9977304
vn 0.04761302 -0.04761302 0.9977304
vn 0.04761302 -0.04761302 0.9977304
vn -0.9681321 -0.04761302 0.2458723
vn -0.9681321 -0.04761302 0.2458723
vn -0.9681321 -0.04761302 0.2458723
vn -0.9681321 -0.04761302 0.2458723
vn -0.9681321 -0.04761302 0.2458723
vn -0.9681321 -0.04761302 0.2458723
vn -0.9681321 -0.04761302 0.2458723
vn -0.9681321 -0.04761302 0.2458723
vn 0.04761302 -0.04761302 0.9977304
vn 0.04761302 -0.04761302 0.9977304
vn 0.04761302 -0.04761302 0.9977304
vn 0.04761302 -0.04761302 0.9977304
vn -0.9681321 -0.04761302 0.2458723
vn -0.9681321 -0.04761302 0.2458723
vn -0.9681321 -0.04761302 0.2458723
vn -0.9681321 -0.04761302 0.2458723
vn 0.04761302 -0.04761302 -0.9977304
vn 0.04761302 -0.04761302 -0.9977304
vn 0.04761302 -0.04761302 -0.9977304
vn 0.04761302 -0.04761302 -0.9977304
vn 0.9998741 -0.01587099 0
vn 0.9998741 -0.01587099 0
vn 0.9998741 -0.01587099 0
vn 0.9998741 -0.01587099 0
vn 0.04761302 -0.04761302 0.9977304
vn 0.04761302 -0.04761302 0.9977304
vn 0.04761302 -0.04761302 0.9977304
vn 0.04761302 -0.04761302 0.9977304
vn -0.9681321 -0.04761302 0.2458723
vn -0.9681321 -0.04761302 0.2458723
vn -0.9681321 -0.04761302 0.2458723
vn -0.9681321 -0.04761302 0.2458723
vn 0.04761302 -0.04761302 -0.9977304
vn 0.04761302 -0.04761302 -0.9977304
vn 0.04761302 -0.04761302 -0.9977304
vn 0.04761302 -0.04761302 -0.9977304
vn 0.9998741 -0.01587099 0
vn 0.9998741 -0.01587099 0
vn 0.9998741 -0.01587099 0
vn 0.9998741 -0.01587099 0
vn 0.04761302 -0.04761302 0.9977304
vn 0.04761302 -0.04761302 0.9977304
vn 0.04761302 -0.04761302 0.9977304
vn 0.04761302 -0.04761302 0.9977304
vn -0.9681321 -0.04761302 0.2458723
vn -0.9681321 -0.04761302 0.2458723
vn -0.9681321 -0.04761302 0.2458723
vn -0.9681321 -0.04761302 0.2458723
vn 0.04761302 -0.04761302 0.9977304
vn 0.04761302 -0.04761302 0.9977304
vn 0.04761302 -0.04761302 0.9977304
vn 0.04761302 -0.04761302 0.9977304
vn -0.9681321 -0.04761302 0.2458723
vn -0.9681321 -0.04761302 0.2458723
vn -0.9681321 -0.04761302 0.2458723
vn -0.9681321 -0.04761302 0.2458723
vn 0.9998741 -0.01587099 0
vn 0.9998741 -0.01587099 0
vn 0.9998741 -0.01587099 0
vn 0.9998741 -0.01587099 0
vn 0.9998741 -0.01587099 0
vn 0.9998741 -0.01587099 0
vn 0.9998741 -0.01587099 0
vn 0.9998741 -0.01587099 0
vn 0.04761302 -0.04761302 0.9977304
vn 0.04761302 -0.04761302 0.9977304
vn 0.04761302 -0.04761302 0.9977304
vn 0.04761302 -0.04761302 0.9977304
vn -0.9681321 -0.04761302 0.2458723
vn -0.9681321 -0.04761302 0.2458723
vn -0.9681321 -0.04761302 0.2458723
vn -0.9681321 -0.04761302 0.2458723
vn 0.04761302 -0.04761302 -0.9977304
vn 0.04761302 -0.04761302 -0.9977304
vn 0.04761302 -0.04761302 -0.9977304
vn 0.04761302 -0.04761302 -0.9977304
vn 0.9998741 -0.01587099 0
vn 0.9998741 -0.01587099 0
vn 0.9998741 -0.01587099 0
vn 0.9998741 -0.01587099 0
vn 0.04761302 -0.04761302 0.9977304
vn 0.04761302 -0.04761302 0.9977304
vn 0.04761302 -0.04761302 0.9977304
vn 0.04761302 -0.04761302 0.9977304
vn -0.9681321 -0.04761302 0.2458723
vn -0.9681321 -0.04761302 0.2458723
vn -0.9681321 -0.04761302 0.2458723
vn -0.9681321 -0.04761302 0.2458723
vn 0.04761302 -0.04761302 -0.9977304
vn 0.04761302 -0.04761302 -0.9977304
vn 0.04761302 -0.04761302 -0.9977304
vn 0.04761302 -0.04761302 -0.9977304
vn 0.9998741 -0.01587099 0
vn 0.9998741 -0.01587099 0
vn 0.9998741 -0.01587099 0
vn 0.9998741 -0.01587099 0
vn 0.04761302 -0.04761302 0.9977304
vn 0.04761302 -0.04761302 0.9977304
vn 0.04761302 -0.04761302 0.9977304
vn 0.04761302 -0.04761302 0.9977304
vn -0.9681321 -0.04761302 0.2458723
vn -0.9681321 -0.04761302 0.2458723
vn -0.9681321 -0.04761302 0.2458723
vn -0.9681321 -0.04761302 0.2458723
vn 0.04761302 -0.04761302 -0.9977304
vn 0.04761302 -0.04761302 -0.9977304
vn 0.04761302 -0.04761302 -0.9977304
vn 0.04761302 -0.04761302 -0.9977304
vn 0.9998741 -0.01587099 0
vn 0.9998741 -0.01587099 0
vn 0.9998741 -0.01587099 0
vn 0.9998741 -0.01587099 0
vn 0.04761302 -0.04761302 0.9977304
vn 0.04761302 -0.04761302 0.9977304
vn 0.04761302 -0.04761302 0.9977304
vn 0.04761302 -0.04761302 0.9977304
vn -0.9681321 -0.04761302 0.2458723
vn -0.9681321 -0.04761302 0.2458723
vn -0.9681321 -0.04761302 0.2458723
vn -0.9681321 -0.04761302 0.2458723
vn 0.04761302 -0.04761302 -0.9977304
vn 0.04761302 -0.04761302 -0.9977304
vn 0.04761302 -0.04761302 -0.9977304
vn 0.04761302 -0.04761302 -0.9977304
vn 0.9998741 -0.01587099 0
vn 0.9998741 -0.01587099 0
vn 0.9998741 -0.01587099 0
vn 0.9998741 -0.01587099 0
vn 0.04761302 -0.04761302 -0.9977304
vn 0.04761302 -0.04761302 -0.9977304
vn 0.04761302 -0.04761302 -0.9977304
vn 0.04761302 -0.04761302 -0.9977304
vn -0.9681321 -0.04761302 0.2458723
vn -0.9681321 -0.04761302 0.2458723
vn -0.9681321 -0.04761302 0.2458723
vn -0.9681321 -0.04761302 0.2458723
vn 0.04761302 -0.04761302 0.9977304
vn 0.04761302 -0.04761302 0.9977304
vn 0.04761302 -0.04761302 0.9977304
vn 0.04761302 -0.04761302 0.9977304
vn 0.9998741 -0.01587099 0
vn 0.9998741 -0.01587099 0
vn 0.9998741 -0.01587099 0
vn 0.9998741 -0.01587099 0
vn 0.04761302 -0.04761302 -0.9977304
vn 0.04761302 -0.04761302 -0.9977304
vn 0.04761302 -0.04761302 -0.9977304
vn 0.04761302 -0.04761302 -0.9977304
vn -0.9681321 -0.04761302 0.2458723
vn -0.9681321 -0.04761302 0.2458723
vn -0.9681321 -0.04761302 0.2458723
vn -0.9681321 -0.04761302 0.2458723
vn 0.04761302 -0.04761302 0.9977304
vn 0.04761302 -0.04761302 0.9977304
vn 0.04761302 -0.04761302 0.9977304
vn 0.04761302 -0.04761302 0.9977304
vn 0.9998741 -0.01587099 0
vn 0.9998741 -0.01587099 0
vn 0.9998741 -0.01587099 0
vn 0.9998741 -0.01587099 0
vn 0.04761302 -0.04761302 -0.9977304
vn 0.04761302 -0.04761302 -0.9977304
vn 0.04761302 -0.04761302 -0.9977304
vn 0.04761302 -0.04761302 -0.9977304
vn -0.9681321 -0.04761302 0.2458723
vn -0.9681321 -0.04761302 0.2458723
vn -0.9681321 -0.04761302 0.2458723
vn -0.9681321 -0.04761302 0.2458723
vn 0.04761302 -0.04761302 0.9977304
vn 0.04761302 -0.04761302 0.9977304
vn 0.04761302 -0.04761302 0.9977304
vn 0.04761302 -0.04761302 0.9977304
vn 0.9998741 -0.01587099 0
vn 0.9998741 -0.01587099 0
vn 0.9998741 -0.01587099 0
vn 0.9998741 -0.01587099 0
vn 0.04761302 -0.04761302 -0.9977304
vn 0.04761302 -0.04761302 -0.9977304
vn 0.04761302 -0.04761302 -0.9977304
vn 0.04761302 -0.04761302 -0.9977304
vn -0.9681321 -0.04761302 0.2458723
vn -0.9681321 -0.04761302 0.2458723
vn -0.9681321 -0.04761302 0.2458723
vn -0.9681321 -0.04761302 0.2458723
vn 0.04761302 -0.04761302 0.9977304
vn 0.04761302 -0.04761302 0.9977304
vn 0.04761302 -0.04761302 0.9977304
vn 0.04761302 -0.04761302 0.9977304
vn 0.9998741 -0.01587099 0
vn 0.9998741 -0.01587099 0
vn 0.9998741 -0.01587099 0
vn 0.9998741 -0.01587099 0
g DSJ_GTA_diLou_2_0
f 3/3/3 2/2/2 1/1/1
f 4/4/4 1/1/1 2/2/2
f 7/7/7 6/6/6 5/5/5
f 6/6/6 7/7/7 8/8/8
f 7/7/7 5/5/5 9/9/9
f 10/10/10 9/9/9 5/5/5
f 10/10/10 11/11/11 9/9/9
f 12/12/12 9/9/9 11/11/11
f 15/15/15 14/14/14 13/13/13
f 16/16/16 13/13/13 14/14/14
f 19/19/19 18/18/18 17/17/17
f 20/20/20 17/17/17 18/18/18
f 17/17/17 20/20/20 21/21/21
f 22/22/22 21/21/21 20/20/20
f 21/21/21 22/22/22 23/23/23
f 24/24/24 23/23/23 22/22/22
f 27/27/27 26/26/26 25/25/25
f 28/28/28 25/25/25 26/26/26
f 31/31/31 30/30/30 29/29/29
f 32/32/32 29/29/29 30/30/30
f 35/35/35 34/34/34 33/33/33
f 36/36/36 33/33/33 34/34/34
f 34/34/34 35/35/35 37/37/37
f 38/38/38 37/37/37 35/35/35
f 33/33/33 36/36/36 39/39/39
f 40/40/40 39/39/39 36/36/36
f 43/43/43 42/42/42 41/41/41
f 44/44/44 41/41/41 42/42/42
f 47/47/47 46/46/46 45/45/45
f 48/48/48 45/45/45 46/46/46
f 51/51/51 50/50/50 49/49/49
f 52/52/52 49/49/49 50/50/50
f 49/49/49 52/52/52 53/53/53
f 54/54/54 53/53/53 52/52/52
f 53/53/53 54/54/54 55/55/55
f 56/56/56 55/55/55 54/54/54
f 59/59/59 58/58/58 57/57/57
f 60/60/60 57/57/57 58/58/58
f 57/57/57 61/61/61 59/59/59
f 62/62/62 59/59/59 61/61/61
f 65/65/65 64/64/64 63/63/63
f 66/66/66 63/63/63 64/64/64
f 69/69/69 68/68/68 67/67/67
f 70/70/70 67/67/67 68/68/68
f 68/68/68 69/69/69 71/71/71
f 72/72/72 71/71/71 69/69/69
f 67/67/67 70/70/70 73/73/73
f 74/74/74 73/73/73 70/70/70
f 77/77/77 76/76/76 75/75/75
f 78/78/78 75/75/75 76/76/76
f 81/81/81 80/80/80 79/79/79
f 82/82/82 79/79/79 80/80/80
f 85/85/85 84/84/84 83/83/83
f 86/86/86 83/83/83 84/84/84
f 86/86/86 87/87/87 83/83/83
f 88/88/88 83/83/83 87/87/87
f 84/84/84 85/85/85 89/89/89
f 90/90/90 89/89/89 85/85/85
f 88/88/88 87/87/87 90/90/90
f 89/89/89 90/90/90 87/87/87
f 93/93/93 92/92/92 91/91/91
f 94/94/94 91/91/91 92/92/92
f 92/92/92 95/95/95 94/94/94
f 96/96/96 94/94/94 95/95/95
f 93/93/93 91/91/91 97/97/97
f 98/98/98 97/97/97 91/91/91
f 101/101/101 100/100/100 99/99/99
f 102/102/102 99/99/99 100/100/100
f 99/99/99 102/102/102 103/103/103
f 104/104/104 103/103/103 102/102/102
f 104/104/104 105/105/105 103/103/103
f 106/106/106 103/103/103 105/105/105
f 109/109/109 108/108/108 107/107/107
f 110/110/110 107/107/107 108/108/108
f 107/107/107 111/111/111 109/109/109
f 112/112/112 109/109/109 111/111/111
f 112/112/112 111/111/111 113/113/113
f 114/114/114 113/113/113 111/111/111
f 117/117/117 116/116/116 115/115/115
f 118/118/118 115/115/115 116/116/116
f 121/121/121 120/120/120 119/119/119
f 122/122/122 119/119/119 120/120/120
f 125/125/125 124/124/124 123/123/123
f 126/126/126 123/123/123 124/124/124
f 129/129/129 128/128/128 127/127/127
f 130/130/130 127/127/127 128/128/128
f 133/133/133 132/132/132 131/131/131
f 134/134/134 131/131/131 132/132/132
f 131/131/131 134/134/134 135/135/135
f 136/136/136 135/135/135 134/134/134
f 139/139/139 138/138/138 137/137/137
f 140/140/140 137/137/137 138/138/138
f 143/143/143 142/142/142 141/141/141
f 144/144/144 141/141/141 142/142/142
f 147/147/147 146/146/146 145/145/145
f 148/148/148 145/145/145 146/146/146
f 151/151/151 150/150/150 149/149/149
f 152/152/152 149/149/149 150/150/150
f 155/155/155 154/154/154 153/153/153
f 156/156/156 153/153/153 154/154/154
f 159/159/159 158/158/158 157/157/157
f 160/160/160 157/157/157 158/158/158
f 163/163/163 162/162/162 161/161/161
f 166/166/166 165/165/165 164/164/164
f 169/169/169 168/168/168 167/167/167
f 170/170/170 167/167/167 168/168/168
f 173/173/173 172/172/172 171/171/171
f 174/174/174 171/171/171 172/172/172
f 171/171/171 174/174/174 175/175/175
f 176/176/176 175/175/175 174/174/174
f 179/179/179 178/178/178 177/177/177
f 180/180/180 177/177/177 178/178/178
f 183/183/183 182/182/182 181/181/181
f 184/184/184 181/181/181 182/182/182
f 187/187/187 186/186/186 185/185/185
f 188/188/188 185/185/185 186/186/186
f 191/191/191 190/190/190 189/189/189
f 192/192/192 189/189/189 190/190/190
f 195/195/195 194/194/194 193/193/193
f 196/196/196 193/193/193 194/194/194
f 195/195/195 197/197/197 194/194/194
f 198/198/198 194/194/194 197/197/197
f 193/193/193 196/196/196 199/199/199
f 200/200/200 199/199/199 196/196/196
f 203/203/203 202/202/202 201/201/201
f 204/204/204 201/201/201 202/202/202
f 207/207/207 206/206/206 205/205/205
f 208/208/208 205/205/205 206/206/206
f 211/211/211 210/210/210 209/209/209
f 212/212/212 209/209/209 210/210/210
f 215/215/215 214/214/214 213/213/213
f 216/216/216 213/213/213 214/214/214
f 219/219/219 218/218/218 217/217/217
f 220/220/220 217/217/217 218/218/218
f 223/223/223 222/222/222 221/221/221
f 224/224/224 221/221/221 222/222/222
f 227/227/227 226/226/226 225/225/225
f 228/228/228 225/225/225 226/226/226
f 231/231/231 230/230/230 229/229/229
f 232/232/232 229/229/229 230/230/230
f 235/235/235 234/234/234 233/233/233
f 236/236/236 233/233/233 234/234/234
f 239/239/239 238/238/238 237/237/237
f 240/240/240 237/237/237 238/238/238
f 243/243/243 242/242/242 241/241/241
f 244/244/244 241/241/241 242/242/242
f 247/247/247 246/246/246 245/245/245
f 248/248/248 245/245/245 246/246/246
f 251/251/251 250/250/250 249/249/249
f 252/252/252 249/249/249 250/250/250
f 255/255/255 254/254/254 253/253/253
f 256/256/256 253/253/253 254/254/254
f 259/259/259 258/258/258 257/257/257
f 260/260/260 257/257/257 258/258/258
f 263/263/263 262/262/262 261/261/261
f 264/264/264 261/261/261 262/262/262
f 261/261/261 265/265/265 263/263/263
f 266/266/266 263/263/263 265/265/265
f 269/269/269 268/268/268 267/267/267
f 270/270/270 267/267/267 268/268/268
f 270/270/270 271/271/271 267/267/267
f 272/272/272 267/267/267 271/271/271
f 271/271/271 273/273/273 272/272/272
f 274/274/274 272/272/272 273/273/273
f 277/277/277 276/276/276 275/275/275
f 278/278/278 275/275/275 276/276/276
f 278/278/278 279/279/279 275/275/275
f 280/280/280 275/275/275 279/279/279
f 279/279/279 281/281/281 280/280/280
f 282/282/282 280/280/280 281/281/281
f 285/285/285 284/284/284 283/283/283
f 286/286/286 283/283/283 284/284/284
f 284/284/284 287/287/287 286/286/286
f 288/288/288 286/286/286 287/287/287
f 291/291/291 290/290/290 289/289/289
f 292/292/292 289/289/289 290/290/290
f 292/292/292 293/293/293 289/289/289
f 294/294/294 289/289/289 293/293/293
f 293/293/293 295/295/295 294/294/294
f 296/296/296 294/294/294 295/295/295
f 299/299/299 298/298/298 297/297/297
f 300/300/300 297/297/297 298/298/298
f 300/300/300 301/301/301 297/297/297
f 302/302/302 297/297/297 301/301/301
f 301/301/301 303/303/303 302/302/302
f 304/304/304 302/302/302 303/303/303
f 307/307/307 306/306/306 305/305/305
f 308/308/308 305/305/305 306/306/306
f 311/311/311 310/310/310 309/309/309
f 312/312/312 309/309/309 310/310/310
f 315/315/315 314/314/314 313/313/313
f 316/316/316 313/313/313 314/314/314
f 319/319/319 318/318/318 317/317/317
f 320/320/320 317/317/317 318/318/318
f 323/323/323 322/322/322 321/321/321
f 324/324/324 321/321/321 322/322/322
f 327/327/327 326/326/326 325/325/325
f 328/328/328 325/325/325 326/326/326
f 331/331/331 330/330/330 329/329/329
f 332/332/332 329/329/329 330/330/330
f 335/335/335 334/334/334 333/333/333
f 336/336/336 333/333/333 334/334/334
f 339/339/339 338/338/338 337/337/337
f 340/340/340 337/337/337 338/338/338
f 343/343/343 342/342/342 341/341/341
f 344/344/344 341/341/341 342/342/342
f 347/347/347 346/346/346 345/345/345
f 348/348/348 345/345/345 346/346/346
f 351/351/351 350/350/350 349/349/349
f 352/352/352 349/349/349 350/350/350
f 350/350/350 353/353/353 352/352/352
f 354/354/354 352/352/352 353/353/353
f 357/357/357 356/356/356 355/355/355
f 358/358/358 355/355/355 356/356/356
f 361/361/361 360/360/360 359/359/359
f 362/362/362 359/359/359 360/360/360
f 365/365/365 364/364/364 363/363/363
f 366/366/366 363/363/363 364/364/364
f 369/369/369 368/368/368 367/367/367
f 370/370/370 367/367/367 368/368/368
f 369/369/369 371/371/371 368/368/368
f 372/372/372 368/368/368 371/371/371
f 375/375/375 374/374/374 373/373/373
f 376/376/376 373/373/373 374/374/374
f 376/376/376 377/377/377 373/373/373
f 378/378/378 373/373/373 377/377/377
f 381/381/381 380/380/380 379/379/379
f 382/382/382 379/379/379 380/380/380
f 385/385/385 384/384/384 383/383/383
f 386/386/386 383/383/383 384/384/384
f 383/383/383 387/387/387 385/385/385
f 388/388/388 385/385/385 387/387/387
f 388/388/388 387/387/387 389/389/389
f 390/390/390 389/389/389 387/387/387
f 393/393/393 392/392/392 391/391/391
f 394/394/394 391/391/391 392/392/392
f 397/397/397 396/396/396 395/395/395
f 398/398/398 395/395/395 396/396/396
f 401/401/401 400/400/400 399/399/399
f 402/402/402 399/399/399 400/400/400
f 405/405/405 404/404/404 403/403/403
f 406/406/406 403/403/403 404/404/404
f 409/409/409 408/408/408 407/407/407
f 410/410/410 407/407/407 408/408/408
f 413/413/413 412/412/412 411/411/411
f 414/414/414 411/411/411 412/412/412
f 417/417/417 416/416/416 415/415/415
f 418/418/418 415/415/415 416/416/416
f 421/421/421 420/420/420 419/419/419
f 422/422/422 419/419/419 420/420/420
f 425/425/425 424/424/424 423/423/423
f 426/426/426 423/423/423 424/424/424
f 429/429/429 428/428/428 427/427/427
f 430/430/430 427/427/427 428/428/428
f 433/433/433 432/432/432 431/431/431
f 434/434/434 431/431/431 432/432/432
f 437/437/437 436/436/436 435/435/435
f 438/438/438 435/435/435 436/436/436
f 441/441/441 440/440/440 439/439/439
f 442/442/442 439/439/439 440/440/440
f 445/445/445 444/444/444 443/443/443
f 446/446/446 443/443/443 444/444/444
f 449/449/449 448/448/448 447/447/447
f 450/450/450 447/447/447 448/448/448
f 453/453/453 452/452/452 451/451/451
f 454/454/454 451/451/451 452/452/452
f 457/457/457 456/456/456 455/455/455
f 458/458/458 455/455/455 456/456/456
f 461/461/461 460/460/460 459/459/459
f 462/462/462 459/459/459 460/460/460
f 465/465/465 464/464/464 463/463/463
f 466/466/466 463/463/463 464/464/464
f 469/469/469 468/468/468 467/467/467
f 470/470/470 467/467/467 468/468/468
f 473/473/473 472/472/472 471/471/471
f 474/474/474 471/471/471 472/472/472
f 477/477/477 476/476/476 475/475/475
f 478/478/478 475/475/475 476/476/476
f 481/481/481 480/480/480 479/479/479
f 482/482/482 479/479/479 480/480/480
f 485/485/485 484/484/484 483/483/483
f 486/486/486 483/483/483 484/484/484
f 489/489/489 488/488/488 487/487/487
f 490/490/490 487/487/487 488/488/488
f 493/493/493 492/492/492 491/491/491
f 494/494/494 491/491/491 492/492/492
f 497/497/497 496/496/496 495/495/495
f 498/498/498 495/495/495 496/496/496
f 501/501/501 500/500/500 499/499/499
f 502/502/502 499/499/499 500/500/500
f 505/505/505 504/504/504 503/503/503
f 506/506/506 503/503/503 504/504/504
f 509/509/509 508/508/508 507/507/507
f 510/510/510 507/507/507 508/508/508
f 513/513/513 512/512/512 511/511/511
f 514/514/514 511/511/511 512/512/512
f 517/517/517 516/516/516 515/515/515
f 518/518/518 515/515/515 516/516/516
f 521/521/521 520/520/520 519/519/519
f 522/522/522 519/519/519 520/520/520
f 525/525/525 524/524/524 523/523/523
f 526/526/526 523/523/523 524/524/524
f 529/529/529 528/528/528 527/527/527
f 530/530/530 527/527/527 528/528/528
f 533/533/533 532/532/532 531/531/531
f 534/534/534 531/531/531 532/532/532
f 537/537/537 536/536/536 535/535/535
f 538/538/538 535/535/535 536/536/536
f 541/541/541 540/540/540 539/539/539
f 542/542/542 539/539/539 540/540/540
f 545/545/545 544/544/544 543/543/543
f 546/546/546 543/543/543 544/544/544
f 549/549/549 548/548/548 547/547/547
f 550/550/550 547/547/547 548/548/548
f 553/553/553 552/552/552 551/551/551
f 554/554/554 551/551/551 552/552/552
f 557/557/557 556/556/556 555/555/555
f 558/558/558 555/555/555 556/556/556
f 561/561/561 560/560/560 559/559/559
f 562/562/562 559/559/559 560/560/560
f 565/565/565 564/564/564 563/563/563
f 566/566/566 563/563/563 564/564/564
f 569/569/569 568/568/568 567/567/567
f 570/570/570 567/567/567 568/568/568
f 573/573/573 572/572/572 571/571/571
f 574/574/574 571/571/571 572/572/572
