g DSJ_GTA_gaoLou_26
v -9.736732 -67.59671 35.51454
v 9.876823 -27.38892 35.37444
v 9.876823 -67.59671 35.37444
v -9.736732 -27.38892 35.51454
v -9.736732 52.74645 35.51454
v 9.736725 52.74645 7.355087
v 9.876823 52.74645 35.37444
v -9.876831 52.74645 7.495178
v 9.876823 -67.59671 35.37444
v 9.736725 -27.38892 7.355087
v 9.736725 -67.59671 7.355087
v 9.876823 -27.38892 35.37444
v -9.876831 -67.59671 7.495178
v -9.736732 -27.38892 35.51454
v -9.736732 -67.59671 35.51454
v -9.876831 -27.38892 7.495178
v 9.876823 12.53867 35.37444
v 9.736725 52.74645 7.355087
v 9.736725 12.53867 7.355087
v 9.876823 52.74645 35.37444
v -9.736732 12.53867 35.51454
v 9.876823 52.74645 35.37444
v 9.876823 12.53867 35.37444
v -9.736732 52.74645 35.51454
v -9.876831 12.53867 7.495178
v -9.736732 52.74645 35.51454
v -9.736732 12.53867 35.51454
v -9.876831 52.74645 7.495178
v 9.876823 -27.38892 35.37444
v 9.736725 12.53867 7.355087
v 9.736725 -27.38892 7.355087
v 9.876823 12.53867 35.37444
v -9.736732 -27.38892 35.51454
v 9.876823 12.53867 35.37444
v 9.876823 -27.38892 35.37444
v -9.736732 12.53867 35.51454
v -9.876831 -27.38892 7.495178
v -9.736732 12.53867 35.51454
v -9.736732 -27.38892 35.51454
v -9.876831 12.53867 7.495178
v 41.81889 -67.59671 3.292274
v 41.5387 -27.38892 -16.32128
v 41.5387 -67.59671 -16.32128
v 41.81889 -27.38892 3.292274
v 41.81889 52.74645 3.292274
v 13.51934 52.74645 -16.32128
v 41.5387 52.74645 -16.32128
v 13.65944 52.74645 3.432373
v 41.5387 -67.59671 -16.32128
v 13.51934 -27.38892 -16.32128
v 13.51934 -67.59671 -16.32128
v 41.5387 -27.38892 -16.32128
v 13.65944 -67.59671 3.432373
v 41.81889 -27.38892 3.292274
v 41.81889 -67.59671 3.292274
v 13.65944 -27.38892 3.432373
v 41.5387 12.53867 -16.32128
v 13.51934 52.74645 -16.32128
v 13.51934 12.53867 -16.32128
v 41.5387 52.74645 -16.32128
v 41.81889 12.53867 3.292274
v 41.5387 52.74645 -16.32128
v 41.5387 12.53867 -16.32128
v 41.81889 52.74645 3.292274
v 13.65944 12.53867 3.432373
v 41.81889 52.74645 3.292274
v 41.81889 12.53867 3.292274
v 13.65944 52.74645 3.432373
v 41.5387 -27.38892 -16.32128
v 13.51934 12.53867 -16.32128
v 13.51934 -27.38892 -16.32128
v 41.5387 12.53867 -16.32128
v 41.81889 -27.38892 3.292274
v 41.5387 12.53867 -16.32128
v 41.5387 -27.38892 -16.32128
v 41.81889 12.53867 3.292274
v 13.65944 -27.38892 3.432373
v 41.81889 12.53867 3.292274
v 41.81889 -27.38892 3.292274
v 13.65944 12.53867 3.432373
v 10.01692 -67.59671 -47.98315
v -9.596634 -27.38892 -47.70296
v -9.596634 -67.59671 -47.70296
v 10.01692 -27.38892 -47.98315
v 10.01692 52.74645 -47.98315
v -9.456535 52.74645 -19.6836
v -9.596634 52.74645 -47.70296
v 10.15702 52.74645 -19.8237
v -9.596634 -67.59671 -47.70296
v -9.456535 -27.38892 -19.6836
v -9.456535 -67.59671 -19.6836
v -9.596634 -27.38892 -47.70296
v 10.15702 -67.59671 -19.8237
v 10.01692 -27.38892 -47.98315
v 10.01692 -67.59671 -47.98315
v 10.15702 -27.38892 -19.8237
v -9.596634 12.53867 -47.70296
v -9.456535 52.74645 -19.6836
v -9.456535 12.53867 -19.6836
v -9.596634 52.74645 -47.70296
v 10.01692 12.53867 -47.98315
v -9.596634 52.74645 -47.70296
v -9.596634 12.53867 -47.70296
v 10.01692 52.74645 -47.98315
v 10.15702 12.53867 -19.8237
v 10.01692 52.74645 -47.98315
v 10.01692 12.53867 -47.98315
v 10.15702 52.74645 -19.8237
v -9.596634 -27.38892 -47.70296
v -9.456535 12.53867 -19.6836
v -9.456535 -27.38892 -19.6836
v -9.596634 12.53867 -47.70296
v 10.01692 -27.38892 -47.98315
v -9.596634 12.53867 -47.70296
v -9.596634 -27.38892 -47.70296
v 10.01692 12.53867 -47.98315
v 10.15702 -27.38892 -19.8237
v 10.01692 12.53867 -47.98315
v 10.01692 -27.38892 -47.98315
v 10.15702 12.53867 -19.8237
v -41.959 -67.59671 -16.04108
v -41.8189 -27.38892 3.572472
v -41.8189 -67.59671 3.572472
v -41.959 -27.38892 -16.04108
v -41.959 52.74645 -16.04108
v -13.79954 52.74645 3.572472
v -41.8189 52.74645 3.572472
v -13.93964 52.74645 -16.04108
v -41.8189 -67.59671 3.572472
v -13.79954 -27.38892 3.572472
v -13.79954 -67.59671 3.572472
v -41.8189 -27.38892 3.572472
v -13.93964 -67.59671 -16.04108
v -41.959 -27.38892 -16.04108
v -41.959 -67.59671 -16.04108
v -13.93964 -27.38892 -16.04108
v -41.8189 12.53867 3.572472
v -13.79954 52.74645 3.572472
v -13.79954 12.53867 3.572472
v -41.8189 52.74645 3.572472
v -41.959 12.53867 -16.04108
v -41.8189 52.74645 3.572472
v -41.8189 12.53867 3.572472
v -41.959 52.74645 -16.04108
v -13.93964 12.53867 -16.04108
v -41.959 52.74645 -16.04108
v -41.959 12.53867 -16.04108
v -13.93964 52.74645 -16.04108
v -41.8189 -27.38892 3.572472
v -13.79954 12.53867 3.572472
v -13.79954 -27.38892 3.572472
v -41.8189 12.53867 3.572472
v -41.959 -27.38892 -16.04108
v -41.8189 12.53867 3.572472
v -41.8189 -27.38892 3.572472
v -41.959 12.53867 -16.04108
v -13.93964 -27.38892 -16.04108
v -41.959 12.53867 -16.04108
v -41.959 -27.38892 -16.04108
v -13.93964 12.53867 -16.04108
v 41.5387 -67.59671 37.3358
v 55.26819 -27.52902 23.46622
v 55.26819 -67.59671 23.46622
v 41.5387 -27.52902 37.3358
v 41.5387 -27.52902 37.3358
v 13.79953 -27.52902 -17.86234
v 55.26819 -27.52902 23.46622
v 0.07004547 -27.52902 -3.852661
v 55.26819 -67.59671 23.46622
v 13.79953 -27.52902 -17.86234
v 13.79953 -67.59671 -17.86234
v 55.26819 -27.52902 23.46622
v 0.07004547 -67.59671 -3.852661
v 41.5387 -27.52902 37.3358
v 41.5387 -67.59671 37.3358
v 0.07004547 -27.52902 -3.852661
v -54.988 -67.59671 23.88651
v -40.97832 -27.52902 37.616
v -40.97832 -67.59671 37.616
v -54.988 -27.52902 23.88651
v -54.988 -27.52902 23.88651
v 0.07004547 -27.52902 -3.852661
v -40.97832 -27.52902 37.616
v -13.93964 -27.52902 -17.72224
v -40.97832 -67.59671 37.616
v 0.07004547 -27.52902 -3.852661
v 0.07004547 -67.59671 -3.852661
v -40.97832 -27.52902 37.616
v -13.93964 -67.59671 -17.72224
v -54.988 -27.52902 23.88651
v -54.988 -67.59671 23.88651
v -13.93964 -27.52902 -17.72224
v 16.88166 -71.65952 -17.30195
v 10.29711 -4.272949 -23.60631
v 10.29711 -71.65952 -23.60631
v 16.88166 -4.272949 -17.30195
v -7.635277 -4.272949 -23.60631
v 10.29711 -71.65952 -23.60631
v 10.29711 -4.272949 -23.60631
v -7.635277 -71.65952 -23.60631
v -7.635277 -71.65952 -23.60631
v -14.21983 -4.272949 -17.16186
v -14.21983 -71.65952 -17.16186
v -7.635277 -4.272949 -23.60631
v -14.07973 -4.272949 0.6304398
v -14.21983 -71.65952 -17.16186
v -14.21983 -4.272949 -17.16186
v -14.07973 -71.65952 0.6304398
v -14.07973 -71.65952 0.6304398
v -7.495178 -4.272949 7.355087
v -7.495178 -71.65952 7.355087
v -14.07973 -4.272949 0.6304398
v 10.29711 -4.272949 7.214989
v -7.495178 -71.65952 7.355087
v -7.495178 -4.272949 7.355087
v 10.29711 -71.65952 7.214989
v 10.29711 -71.65952 7.214989
v 17.02176 -4.272949 0.6304398
v 17.02176 -71.65952 0.6304398
v 10.29711 -4.272949 7.214989
v 16.88166 -4.272949 -17.30195
v 17.02176 -71.65952 0.6304398
v 17.02176 -4.272949 0.6304398
v 16.88166 -71.65952 -17.30195
v -7.635277 63.39381 -23.60631
v 10.29711 63.39381 -23.60631
v 16.88166 63.39381 -17.30195
v -14.21983 63.39381 -17.16186
v 17.02176 63.39381 0.6304398
v -14.07973 63.39381 0.6304398
v 10.29711 63.39381 7.214989
v -7.495178 63.39381 7.355087
v -14.07973 -4.272949 0.6304398
v -7.495178 63.39381 7.355087
v -7.495178 -4.272949 7.355087
v -14.07973 63.39381 0.6304398
v -14.07973 63.39381 0.6304398
v -14.21983 -4.272949 -17.16186
v -14.21983 63.39381 -17.16186
v -14.07973 -4.272949 0.6304398
v -7.635277 -4.272949 -23.60631
v -14.21983 63.39381 -17.16186
v -14.21983 -4.272949 -17.16186
v -7.635277 63.39381 -23.60631
v -7.635277 63.39381 -23.60631
v 10.29711 -4.272949 -23.60631
v 10.29711 63.39381 -23.60631
v -7.635277 -4.272949 -23.60631
v 16.88166 -4.272949 -17.30195
v 10.29711 63.39381 -23.60631
v 10.29711 -4.272949 -23.60631
v 16.88166 63.39381 -17.30195
v 16.88166 63.39381 -17.30195
v 17.02176 -4.272949 0.6304398
v 17.02176 63.39381 0.6304398
v 16.88166 -4.272949 -17.30195
v 10.29711 -4.272949 7.214989
v 17.02176 63.39381 0.6304398
v 17.02176 -4.272949 0.6304398
v 10.29711 63.39381 7.214989
v 10.29711 63.39381 7.214989
v -7.495178 -4.272949 7.355087
v -7.495178 63.39381 7.355087
v 10.29711 -4.272949 7.214989
v -5.814018 71.65952 -20.66428
v 1.330917 71.65952 -22.48553
v 8.615952 71.65952 -20.66428
v 13.65944 71.65952 -15.3406
v -10.85751 71.65952 -15.3406
v 15.62079 71.65952 -8.335758
v -12.81886 71.65952 -8.19566
v 13.79953 71.65952 -1.05072
v -10.85751 71.65952 -0.9106293
v 8.615952 71.65952 3.99276
v -5.814018 71.65952 4.132858
v 1.471016 71.65952 6.094215
v -8.055573 62.83342 -2.871979
v -5.814018 71.65952 4.132858
v -3.852661 62.83342 1.190826
v -10.85751 71.65952 -0.9106293
v -9.456535 62.83342 -8.335758
v -10.85751 71.65952 -0.9106293
v -8.055573 62.83342 -2.871979
v -12.81886 71.65952 -8.19566
v -8.055573 62.83342 -13.51934
v -12.81886 71.65952 -8.19566
v -9.456535 62.83342 -8.335758
v -10.85751 71.65952 -15.3406
v -3.99276 62.83342 -17.72224
v -10.85751 71.65952 -15.3406
v -8.055573 62.83342 -13.51934
v -5.814018 71.65952 -20.66428
v 1.330917 62.83342 -18.98312
v -5.814018 71.65952 -20.66428
v -3.99276 62.83342 -17.72224
v 1.330917 71.65952 -22.48553
v 6.934792 62.83342 -17.72224
v 1.330917 71.65952 -22.48553
v 1.330917 62.83342 -18.98312
v 8.615952 71.65952 -20.66428
v 10.7174 62.83342 -13.65944
v 8.615952 71.65952 -20.66428
v 6.934792 62.83342 -17.72224
v 13.65944 71.65952 -15.3406
v 12.39856 62.83342 -8.335758
v 13.65944 71.65952 -15.3406
v 10.7174 62.83342 -13.65944
v 15.62079 71.65952 -8.335758
v 10.8575 62.83342 -2.871979
v 15.62079 71.65952 -8.335758
v 12.39856 62.83342 -8.335758
v 13.79953 71.65952 -1.05072
v 6.934792 62.83342 1.050728
v 13.79953 71.65952 -1.05072
v 10.8575 62.83342 -2.871979
v 8.615952 71.65952 3.99276
v 1.330917 62.83342 2.591797
v 8.615952 71.65952 3.99276
v 6.934792 62.83342 1.050728
v 1.471016 71.65952 6.094215
v -3.852661 62.83342 1.190826
v 1.471016 71.65952 6.094215
v 1.330917 62.83342 2.591797
v -5.814018 71.65952 4.132858
v -34.11358 -67.59671 30.33096
v -25.42757 -42.65948 37.05561
v -25.42757 -67.59671 37.05561
v -34.11358 -42.65948 30.33096
v -24.44689 -67.59671 40.69813
v -22.34544 -42.65948 41.5387
v -22.34544 -67.59671 41.5387
v -24.44689 -42.65948 40.69813
v -22.34544 -37.61599 41.5387
v -13.93964 -37.61599 44.76093
v -13.93964 -42.65948 44.76093
v -11.55799 -37.61599 45.74161
v -11.55799 -42.65948 45.74161
v -13.93964 -67.59671 44.76093
v -11.55799 -67.59671 45.74161
v -24.44689 -37.61599 40.69813
v -11.55799 -67.59671 45.74161
v -9.596634 -42.65948 46.0218
v -9.596634 -67.59671 46.0218
v -11.55799 -42.65948 45.74161
v -9.596634 -37.61599 46.0218
v -0.4903412 -37.61599 47.14258
v -0.4903412 -42.65948 47.14258
v 2.031403 -37.61599 47.56287
v 2.031403 -42.65948 47.56287
v -0.4903412 -67.59671 47.14258
v 2.031403 -67.59671 47.56287
v -11.55799 -37.61599 45.74161
v 2.031403 -67.59671 47.56287
v 4.693237 -42.65948 47.14258
v 4.693237 -67.59671 47.14258
v 2.031403 -42.65948 47.56287
v 4.693237 -37.61599 47.14258
v 13.79953 -37.61599 45.88171
v 13.79953 -42.65948 45.88171
v 15.90099 -37.61599 45.60152
v 15.90099 -42.65948 45.60152
v 13.79953 -67.59671 45.88171
v 15.90099 -67.59671 45.60152
v 2.031403 -37.61599 47.56287
v 15.90099 -67.59671 45.60152
v 18.00244 -42.65948 44.76093
v 18.00244 -67.59671 44.76093
v 15.90099 -42.65948 45.60152
v 18.00244 -37.61599 44.76093
v 26.54834 -37.61599 41.39861
v 26.54834 -42.65948 41.39861
v 28.5097 -37.61599 40.41793
v 28.5097 -42.65948 40.41793
v 26.54834 -67.59671 41.39861
v 28.5097 -67.59671 40.41793
v 15.90099 -37.61599 45.60152
v 28.5097 -67.59671 40.41793
v 30.89134 -42.65948 38.59667
v 30.89134 -67.59671 38.59667
v 28.5097 -42.65948 40.41793
v 30.89134 -37.61599 38.59667
v 39.43725 -37.61599 32.01212
v 39.43725 -42.65948 32.01212
v 28.5097 -37.61599 40.41793
v -35.51454 -37.61599 32.29232
v 1.891304 -37.61599 -5.393723
v 39.43725 -37.61599 32.01212
v 39.43725 -37.61599 32.01212
v 39.43725 -37.61599 32.01212
v -35.51454 -37.61599 32.29232
v 30.89134 -37.61599 38.59667
v -35.51454 -37.61599 32.29232
v 39.43725 -37.61599 32.01212
v 30.89134 -37.61599 38.59667
v -35.51454 -37.61599 32.29232
v 30.89134 -37.61599 38.59667
v -26.82854 -37.61599 38.73677
v -35.51454 -37.61599 32.29232
v 28.5097 -37.61599 40.41793
v -24.44689 -37.61599 40.69813
v 26.54834 -37.61599 41.39861
v -22.34544 -37.61599 41.5387
v 18.00244 -37.61599 44.76093
v -13.93964 -37.61599 44.76093
v 15.90099 -37.61599 45.60152
v -11.55799 -37.61599 45.74161
v 13.79953 -37.61599 45.88171
v -9.596634 -37.61599 46.0218
v 4.693237 -37.61599 47.14258
v -0.4903412 -37.61599 47.14258
v 4.693237 -37.61599 47.14258
v 2.031403 -37.61599 47.56287
v -0.4903412 -37.61599 47.14258
v 4.553146 -67.59671 45.04113
v 13.51934 -42.65948 43.92035
v 13.51934 -67.59671 43.92035
v 4.553146 -42.65948 45.04113
v -9.316437 -67.59671 43.92035
v -0.210144 -42.65948 45.04113
v -0.210144 -67.59671 45.04113
v -9.316437 -42.65948 43.92035
v -26.82854 -67.59671 38.73677
v -24.44689 -42.65948 40.69813
v -24.44689 -67.59671 40.69813
v -26.82854 -42.65948 38.73677
v -24.44689 -37.61599 40.69813
v -26.82854 -37.61599 38.73677
v -35.51454 -42.65948 32.29232
v -35.51454 -37.61599 32.29232
v -21.50486 -67.59671 39.57735
v -13.09905 -42.65948 42.93967
v -13.09905 -67.59671 42.93967
v -21.50486 -42.65948 39.57735
v 17.30195 -67.59671 42.79958
v 25.70776 -42.65948 39.15706
v 25.70776 -67.59671 39.15706
v 17.30195 -42.65948 42.79958
v 29.63047 -67.59671 36.77541
v 38.31647 -42.65948 30.19086
v 38.31647 -67.59671 30.19086
v 29.63047 -42.65948 36.77541
v -26.82854 -67.59671 38.73677
v -25.42757 -42.65948 37.05561
v -26.82854 -42.65948 38.73677
v -25.42757 -67.59671 37.05561
v -26.82854 -42.65948 38.73677
v -34.11358 -42.65948 30.33096
v -35.51454 -42.65948 32.29232
v -25.42757 -42.65948 37.05561
v 13.79953 -67.59671 45.88171
v 13.51934 -42.65948 43.92035
v 13.79953 -42.65948 45.88171
v 13.51934 -67.59671 43.92035
v 13.79953 -42.65948 45.88171
v 4.553146 -42.65948 45.04113
v 4.693237 -42.65948 47.14258
v 13.51934 -42.65948 43.92035
v 4.693237 -42.65948 47.14258
v 4.553146 -67.59671 45.04113
v 4.693237 -67.59671 47.14258
v 4.553146 -42.65948 45.04113
v -0.4903412 -67.59671 47.14258
v -0.210144 -42.65948 45.04113
v -0.4903412 -42.65948 47.14258
v -0.210144 -67.59671 45.04113
v -0.4903412 -42.65948 47.14258
v -9.316437 -42.65948 43.92035
v -9.596634 -42.65948 46.0218
v -0.210144 -42.65948 45.04113
v -9.596634 -42.65948 46.0218
v -9.316437 -67.59671 43.92035
v -9.596634 -67.59671 46.0218
v -9.316437 -42.65948 43.92035
v -13.93964 -67.59671 44.76093
v -13.09905 -42.65948 42.93967
v -13.93964 -42.65948 44.76093
v -13.09905 -67.59671 42.93967
v -13.93964 -42.65948 44.76093
v -21.50486 -42.65948 39.57735
v -22.34544 -42.65948 41.5387
v -13.09905 -42.65948 42.93967
v -22.34544 -42.65948 41.5387
v -21.50486 -67.59671 39.57735
v -22.34544 -67.59671 41.5387
v -21.50486 -42.65948 39.57735
v 26.54834 -67.59671 41.39861
v 25.70776 -42.65948 39.15706
v 26.54834 -42.65948 41.39861
v 25.70776 -67.59671 39.15706
v 26.54834 -42.65948 41.39861
v 17.30195 -42.65948 42.79958
v 18.00244 -42.65948 44.76093
v 25.70776 -42.65948 39.15706
v 18.00244 -42.65948 44.76093
v 17.30195 -67.59671 42.79958
v 18.00244 -67.59671 44.76093
v 17.30195 -42.65948 42.79958
v 39.43725 -42.65948 32.01212
v 29.63047 -42.65948 36.77541
v 30.89134 -42.65948 38.59667
v 38.31647 -42.65948 30.19086
v 30.89134 -42.65948 38.59667
v 29.63047 -67.59671 36.77541
v 30.89134 -67.59671 38.59667
v 29.63047 -42.65948 36.77541
vt 0.08539581 0.7530357
vt 0.1746732 0.9354722
vt 0.1746732 0.7530357
vt 0.08539581 0.9354722
vt 0.08539581 0.791852
vt 0.1746732 0.9199457
vt 0.1746732 0.791852
vt 0.08539581 0.9199457
vt 0.1746732 0.7530357
vt 0.05046116 0.9354722
vt 0.05046116 0.7530357
vt 0.1746732 0.9354722
vt 0.2134895 0.7530357
vt 0.08539581 0.9354722
vt 0.08539581 0.7530357
vt 0.2134895 0.9354722
vt 0.1746732 0.7530357
vt 0.05046116 0.9354722
vt 0.05046116 0.7530357
vt 0.1746732 0.9354722
vt 0.08539581 0.7530357
vt 0.1746732 0.9354722
vt 0.1746732 0.7530357
vt 0.08539581 0.9354722
vt 0.2134895 0.7530357
vt 0.08539581 0.9354722
vt 0.08539581 0.7530357
vt 0.2134895 0.9354722
vt 0.1746732 0.9354722
vt 0.05046116 0.7530357
vt 0.05046116 0.9354722
vt 0.1746732 0.7530357
vt 0.08539581 0.9354722
vt 0.1746732 0.7530357
vt 0.1746732 0.9354722
vt 0.08539581 0.7530357
vt 0.2134895 0.9354722
vt 0.08539581 0.7530357
vt 0.08539581 0.9354722
vt 0.2134895 0.7530357
vt 0.08539581 0.7530357
vt 0.1746732 0.9354722
vt 0.1746732 0.7530357
vt 0.08539581 0.9354722
vt 0.08539581 0.791852
vt 0.1746732 0.9199457
vt 0.1746732 0.791852
vt 0.08539581 0.9199457
vt 0.1746732 0.7530357
vt 0.05046116 0.9354722
vt 0.05046116 0.7530357
vt 0.1746732 0.9354722
vt 0.2134895 0.7530357
vt 0.08539581 0.9354722
vt 0.08539581 0.7530357
vt 0.2134895 0.9354722
vt 0.1746732 0.7530357
vt 0.05046116 0.9354722
vt 0.05046116 0.7530357
vt 0.1746732 0.9354722
vt 0.08539581 0.7530357
vt 0.1746732 0.9354722
vt 0.1746732 0.7530357
vt 0.08539581 0.9354722
vt 0.2134895 0.7530357
vt 0.08539581 0.9354722
vt 0.08539581 0.7530357
vt 0.2134895 0.9354722
vt 0.1746732 0.9354722
vt 0.05046116 0.7530357
vt 0.05046116 0.9354722
vt 0.1746732 0.7530357
vt 0.08539581 0.9354722
vt 0.1746732 0.7530357
vt 0.1746732 0.9354722
vt 0.08539581 0.7530357
vt 0.2134895 0.9354722
vt 0.08539581 0.7530357
vt 0.08539581 0.9354722
vt 0.2134895 0.7530357
vt 0.08539581 0.7530357
vt 0.1746732 0.9354722
vt 0.1746732 0.7530357
vt 0.08539581 0.9354722
vt 0.08539581 0.791852
vt 0.1746732 0.9199457
vt 0.1746732 0.791852
vt 0.08539581 0.9199457
vt 0.1746732 0.7530357
vt 0.05046116 0.9354722
vt 0.05046116 0.7530357
vt 0.1746732 0.9354722
vt 0.2134895 0.7530357
vt 0.08539581 0.9354722
vt 0.08539581 0.7530357
vt 0.2134895 0.9354722
vt 0.1746732 0.7530357
vt 0.05046116 0.9354722
vt 0.05046116 0.7530357
vt 0.1746732 0.9354722
vt 0.08539581 0.7530357
vt 0.1746732 0.9354722
vt 0.1746732 0.7530357
vt 0.08539581 0.9354722
vt 0.2134895 0.7530357
vt 0.08539581 0.9354722
vt 0.08539581 0.7530357
vt 0.2134895 0.9354722
vt 0.1746732 0.9354722
vt 0.05046116 0.7530357
vt 0.05046116 0.9354722
vt 0.1746732 0.7530357
vt 0.08539581 0.9354722
vt 0.1746732 0.7530357
vt 0.1746732 0.9354722
vt 0.08539581 0.7530357
vt 0.2134895 0.9354722
vt 0.08539581 0.7530357
vt 0.08539581 0.9354722
vt 0.2134895 0.7530357
vt 0.08539581 0.7530357
vt 0.1746732 0.9354722
vt 0.1746732 0.7530357
vt 0.08539581 0.9354722
vt 0.08539581 0.791852
vt 0.1746732 0.9199457
vt 0.1746732 0.791852
vt 0.08539581 0.9199457
vt 0.1746732 0.7530357
vt 0.05046116 0.9354722
vt 0.05046116 0.7530357
vt 0.1746732 0.9354722
vt 0.2134895 0.7530357
vt 0.08539581 0.9354722
vt 0.08539581 0.7530357
vt 0.2134895 0.9354722
vt 0.1746732 0.7530357
vt 0.05046116 0.9354722
vt 0.05046116 0.7530357
vt 0.1746732 0.9354722
vt 0.08539581 0.7530357
vt 0.1746732 0.9354722
vt 0.1746732 0.7530357
vt 0.08539581 0.9354722
vt 0.2134895 0.7530357
vt 0.08539581 0.9354722
vt 0.08539581 0.7530357
vt 0.2134895 0.9354722
vt 0.1746732 0.9354722
vt 0.05046116 0.7530357
vt 0.05046116 0.9354722
vt 0.1746732 0.7530357
vt 0.08539581 0.9354722
vt 0.1746732 0.7530357
vt 0.1746732 0.9354722
vt 0.08539581 0.7530357
vt 0.2134895 0.9354722
vt 0.08539581 0.7530357
vt 0.08539581 0.9354722
vt 0.2134895 0.7530357
vt 0.08151417 0.7685623
vt 0.1630283 0.9354722
vt 0.1630283 0.7685623
vt 0.08151417 0.9354722
vt 0.03493465 0.8578396
vt 0.2018446 0.8694845
vt 0.03493465 0.8694845
vt 0.2018446 0.8578396
vt 0 0.7685623
vt 0.2445425 0.9393538
vt 0.2445425 0.7685623
vt 0 0.9393538
vt 0.2445425 0.7685623
vt 0 0.9393538
vt 0 0.7685623
vt 0.2445425 0.9393538
vt 0.08151417 0.7685623
vt 0.1630283 0.9354722
vt 0.1630283 0.7685623
vt 0.08151417 0.9354722
vt 0.03493465 0.8578396
vt 0.2018446 0.8694845
vt 0.03493465 0.8694845
vt 0.2018446 0.8578396
vt 0 0.7685623
vt 0.2445425 0.9393538
vt 0.2445425 0.7685623
vt 0 0.9393538
vt 0.2445425 0.7685623
vt 0 0.9393538
vt 0 0.7685623
vt 0.2445425 0.9393538
vt 0.4929667 0.260069
vt 0.3299383 0.2406609
vt 0.4929667 0.2406609
vt 0.3299383 0.260069
vt 0.2872404 0.3299383
vt 0.4929667 0.2678323
vt 0.2872404 0.2678323
vt 0.4929667 0.3299383
vt 0.4929667 0.260069
vt 0.3299383 0.2406609
vt 0.4929667 0.2406609
vt 0.3299383 0.260069
vt 0.2872404 0.2678323
vt 0.4929667 0.3299383
vt 0.2872404 0.3299383
vt 0.4929667 0.2678323
vt 0.4929667 0.260069
vt 0.3299383 0.2406609
vt 0.4929667 0.2406609
vt 0.3299383 0.260069
vt 0.2872404 0.3299383
vt 0.4929667 0.2678323
vt 0.2872404 0.2678323
vt 0.4929667 0.3299383
vt 0.4929667 0.260069
vt 0.3299383 0.2406609
vt 0.4929667 0.2406609
vt 0.3299383 0.260069
vt 0.2872404 0.2678323
vt 0.4929667 0.3299383
vt 0.2872404 0.3299383
vt 0.4929667 0.2678323
vt 0.2678323 0.2988853
vt 0.2678323 0.2988853
vt 0.2678323 0.2988853
vt 0.2678323 0.2988853
vt 0.2678323 0.291122
vt 0.2678323 0.291122
vt 0.2678323 0.291122
vt 0.2678323 0.291122
vt 0.3299383 0.260069
vt 0.4929667 0.2406609
vt 0.3299383 0.2406609
vt 0.4929667 0.260069
vt 0.4929667 0.2678323
vt 0.2872404 0.3299383
vt 0.4929667 0.3299383
vt 0.2872404 0.2678323
vt 0.3299383 0.260069
vt 0.4929667 0.2406609
vt 0.3299383 0.2406609
vt 0.4929667 0.260069
vt 0.4929667 0.3299383
vt 0.2872404 0.2678323
vt 0.4929667 0.2678323
vt 0.2872404 0.3299383
vt 0.3299383 0.260069
vt 0.4929667 0.2406609
vt 0.3299383 0.2406609
vt 0.4929667 0.260069
vt 0.4929667 0.2678323
vt 0.2872404 0.3299383
vt 0.4929667 0.3299383
vt 0.2872404 0.2678323
vt 0.3299383 0.260069
vt 0.4929667 0.2406609
vt 0.3299383 0.2406609
vt 0.4929667 0.260069
vt 0.4929667 0.3299383
vt 0.2872404 0.2678323
vt 0.4929667 0.2678323
vt 0.2872404 0.3299383
vt 0.2678323 0.291122
vt 0.2678323 0.291122
vt 0.2678323 0.291122
vt 0.2678323 0.291122
vt 0.2678323 0.291122
vt 0.2678323 0.2988853
vt 0.2678323 0.291122
vt 0.2678323 0.2988853
vt 0.2678323 0.2988853
vt 0.2678323 0.2988853
vt 0.2678323 0.2988853
vt 0.2678323 0.2988853
vt 0.4541504 0.2523058
vt 0.395926 0.2445425
vt 0.4541504 0.2445425
vt 0.395926 0.2523058
vt 0.4541504 0.2445425
vt 0.395926 0.2523058
vt 0.4541504 0.2523058
vt 0.395926 0.2445425
vt 0.4541504 0.2523058
vt 0.395926 0.2445425
vt 0.4541504 0.2445425
vt 0.395926 0.2523058
vt 0.4541504 0.2445425
vt 0.395926 0.2523058
vt 0.4541504 0.2523058
vt 0.395926 0.2445425
vt 0.4541504 0.2523058
vt 0.395926 0.2445425
vt 0.4541504 0.2445425
vt 0.395926 0.2523058
vt 0.4541504 0.2445425
vt 0.395926 0.2523058
vt 0.4541504 0.2523058
vt 0.395926 0.2445425
vt 0.4541504 0.2523058
vt 0.395926 0.2445425
vt 0.4541504 0.2445425
vt 0.395926 0.2523058
vt 0.4541504 0.2445425
vt 0.395926 0.2523058
vt 0.4541504 0.2523058
vt 0.395926 0.2445425
vt 0.4541504 0.2523058
vt 0.395926 0.2445425
vt 0.4541504 0.2445425
vt 0.395926 0.2523058
vt 0.4541504 0.2445425
vt 0.395926 0.2523058
vt 0.4541504 0.2523058
vt 0.395926 0.2445425
vt 0.4541504 0.2523058
vt 0.395926 0.2445425
vt 0.4541504 0.2445425
vt 0.395926 0.2523058
vt 0.4541504 0.2445425
vt 0.395926 0.2523058
vt 0.4541504 0.2523058
vt 0.395926 0.2445425
vt 0.2484242 0.3454648
vt 0.4541504 0.2678323
vt 0.2484242 0.2678323
vt 0.4541504 0.3454648
vt 0.2484242 0.2523058
vt 0.4541504 0.2678323
vt 0.2484242 0.2678323
vt 0.4541504 0.2523058
vt 0.4929667 0.2678323
vt 0.4929667 0.3299383
vt 0.4541504 0.3299383
vt 0.4929667 0.3454648
vt 0.4541504 0.3454648
vt 0.2484242 0.3299383
vt 0.2484242 0.3454648
vt 0.4929667 0.2523058
vt 0.2484242 0.3454648
vt 0.4541504 0.3299383
vt 0.2484242 0.3299383
vt 0.4541504 0.3454648
vt 0.4929667 0.3299383
vt 0.4929667 0.2678323
vt 0.4541504 0.2678323
vt 0.4929667 0.2523058
vt 0.4541504 0.2523058
vt 0.2484242 0.2678323
vt 0.2484242 0.2523058
vt 0.4929667 0.3454648
vt 0.2484242 0.2523058
vt 0.4541504 0.2678323
vt 0.2484242 0.2678323
vt 0.4541504 0.2523058
vt 0.4929667 0.2678323
vt 0.4929667 0.3299383
vt 0.4541504 0.3299383
vt 0.4929667 0.3454648
vt 0.4541504 0.3454648
vt 0.2484242 0.3299383
vt 0.2484242 0.3454648
vt 0.4929667 0.2523058
vt 0.2484242 0.3454648
vt 0.4541504 0.3299383
vt 0.2484242 0.3299383
vt 0.4541504 0.3454648
vt 0.4929667 0.3299383
vt 0.4929667 0.2678323
vt 0.4541504 0.2678323
vt 0.4929667 0.2523058
vt 0.4541504 0.2523058
vt 0.2484242 0.2678323
vt 0.2484242 0.2523058
vt 0.4929667 0.3454648
vt 0.2484242 0.2523058
vt 0.4541504 0.2678323
vt 0.2484242 0.2678323
vt 0.4541504 0.2523058
vt 0.4929667 0.2678323
vt 0.4929667 0.3454648
vt 0.4541504 0.3454648
vt 0.4929667 0.2523058
vt 0.2678323 0.2988853
vt 0.2678323 0.291122
vt 0.2678323 0.291122
vt 0.2678323 0.291122
vt 0.2678323 0.291122
vt 0.2678323 0.2988853
vt 0.2678323 0.291122
vt 0.2678323 0.2988853
vt 0.2678323 0.291122
vt 0.2678323 0.291122
vt 0.2678323 0.2988853
vt 0.2678323 0.291122
vt 0.2678323 0.2988853
vt 0.2678323 0.2988853
vt 0.2678323 0.291122
vt 0.2678323 0.2988853
vt 0.2678323 0.291122
vt 0.2678323 0.2988853
vt 0.2678323 0.2988853
vt 0.2678323 0.2988853
vt 0.2678323 0.2988853
vt 0.2678323 0.2988853
vt 0.2678323 0.2988853
vt 0.2678323 0.2988853
vt 0.2678323 0.2988853
vt 0.2678323 0.2988853
vt 0.2678323 0.2988853
vt 0.2678323 0.2988853
vt 0.2678323 0.2988853
vt 0.2484242 0.2678323
vt 0.4541504 0.3299383
vt 0.2484242 0.3299383
vt 0.4541504 0.2678323
vt 0.2484242 0.3299383
vt 0.4541504 0.2678323
vt 0.2484242 0.2678323
vt 0.4541504 0.3299383
vt 0.2484242 0.2678323
vt 0.4541504 0.2523058
vt 0.2484242 0.2523058
vt 0.4541504 0.2678323
vt 0.4929667 0.2523058
vt 0.4929667 0.2678323
vt 0.4541504 0.3454648
vt 0.4929667 0.3454648
vt 0.2484242 0.2678323
vt 0.4541504 0.3299383
vt 0.2484242 0.3299383
vt 0.4541504 0.2678323
vt 0.2484242 0.3299383
vt 0.4541504 0.2678323
vt 0.2484242 0.2678323
vt 0.4541504 0.3299383
vt 0.2484242 0.2678323
vt 0.4541504 0.3454648
vt 0.2484242 0.3454648
vt 0.4541504 0.2678323
vt 0.2445425 0.2328976
vt 0.458032 0.2678323
vt 0.458032 0.2328976
vt 0.2445425 0.2678323
vt 0.3415832 0.2523058
vt 0.4075709 0.2678323
vt 0.4075709 0.2523058
vt 0.3415832 0.2678323
vt 0.2445425 0.2328976
vt 0.458032 0.2678323
vt 0.458032 0.2328976
vt 0.2445425 0.2678323
vt 0.3415832 0.2523058
vt 0.4075709 0.2678323
vt 0.4075709 0.2523058
vt 0.3415832 0.2678323
vt 0.458032 0.2678323
vt 0.2445425 0.2328976
vt 0.2445425 0.2678323
vt 0.458032 0.2328976
vt 0.2445425 0.2328976
vt 0.458032 0.2678323
vt 0.458032 0.2328976
vt 0.2445425 0.2678323
vt 0.3415832 0.2523058
vt 0.4075709 0.2678323
vt 0.4075709 0.2523058
vt 0.3415832 0.2678323
vt 0.458032 0.2678323
vt 0.2445425 0.2328976
vt 0.2445425 0.2678323
vt 0.458032 0.2328976
vt 0.2445425 0.2328976
vt 0.458032 0.2678323
vt 0.458032 0.2328976
vt 0.2445425 0.2678323
vt 0.3415832 0.2523058
vt 0.4075709 0.2678323
vt 0.4075709 0.2523058
vt 0.3415832 0.2678323
vt 0.458032 0.2678323
vt 0.2445425 0.2328976
vt 0.2445425 0.2678323
vt 0.458032 0.2328976
vt 0.2445425 0.2328976
vt 0.458032 0.2678323
vt 0.458032 0.2328976
vt 0.2445425 0.2678323
vt 0.3415832 0.2523058
vt 0.4075709 0.2678323
vt 0.4075709 0.2523058
vt 0.3415832 0.2678323
vt 0.458032 0.2678323
vt 0.2445425 0.2328976
vt 0.2445425 0.2678323
vt 0.458032 0.2328976
vt 0.3415832 0.2523058
vt 0.4075709 0.2678323
vt 0.4075709 0.2523058
vt 0.3415832 0.2678323
vt 0.458032 0.2678323
vt 0.2445425 0.2328976
vt 0.2445425 0.2678323
vt 0.458032 0.2328976
vn 0.04761302 -0.04761302 0.9977304
vn 0.04761302 -0.04761302 0.9977304
vn 0.04761302 -0.04761302 0.9977304
vn 0.04761302 -0.04761302 0.9977304
vn 0.01587099 0.999874 -0.000345267
vn 0.01587099 0.999874 -0.000345267
vn 0.01587099 0.999874 -0.000345267
vn 0.01587099 0.999874 -0.000345267
vn 0.999874 -0.01587099 -0.000346655
vn 0.999874 -0.01587099 -0.000346655
vn 0.999874 -0.01587099 -0.000346655
vn 0.999874 -0.01587099 -0.000346655
vn -0.968132 -0.04761302 0.2458728
vn -0.968132 -0.04761302 0.2458728
vn -0.968132 -0.04761302 0.2458728
vn -0.968132 -0.04761302 0.2458728
vn 0.999874 -0.01587099 -0.000346655
vn 0.999874 -0.01587099 -0.000346655
vn 0.999874 -0.01587099 -0.000346655
vn 0.999874 -0.01587099 -0.000346655
vn 0.04761302 -0.04761302 0.9977304
vn 0.04761302 -0.04761302 0.9977304
vn 0.04761302 -0.04761302 0.9977304
vn 0.04761302 -0.04761302 0.9977304
vn -0.968132 -0.04761302 0.2458728
vn -0.968132 -0.04761302 0.2458728
vn -0.968132 -0.04761302 0.2458728
vn -0.968132 -0.04761302 0.2458728
vn 0.999874 -0.01587099 -0.000346655
vn 0.999874 -0.01587099 -0.000346655
vn 0.999874 -0.01587099 -0.000346655
vn 0.999874 -0.01587099 -0.000346655
vn 0.04761302 -0.04761302 0.9977304
vn 0.04761302 -0.04761302 0.9977304
vn 0.04761302 -0.04761302 0.9977304
vn 0.04761302 -0.04761302 0.9977304
vn -0.968132 -0.04761302 0.2458728
vn -0.968132 -0.04761302 0.2458728
vn -0.968132 -0.04761302 0.2458728
vn -0.968132 -0.04761302 0.2458728
vn 0.999874 -0.01587099 -0.000346655
vn 0.999874 -0.01587099 -0.000346655
vn 0.999874 -0.01587099 -0.000346655
vn 0.999874 -0.01587099 -0.000346655
vn 0.01587099 0.999874 -0.000345267
vn 0.01587099 0.999874 -0.000345267
vn 0.01587099 0.999874 -0.000345267
vn 0.01587099 0.999874 -0.000345267
vn 0.04761302 -0.04761302 -0.9977304
vn 0.04761302 -0.04761302 -0.9977304
vn 0.04761302 -0.04761302 -0.9977304
vn 0.04761302 -0.04761302 -0.9977304
vn 0.04761302 -0.04761302 0.9977304
vn 0.04761302 -0.04761302 0.9977304
vn 0.04761302 -0.04761302 0.9977304
vn 0.04761302 -0.04761302 0.9977304
vn 0.04761302 -0.04761302 -0.9977304
vn 0.04761302 -0.04761302 -0.9977304
vn 0.04761302 -0.04761302 -0.9977304
vn 0.04761302 -0.04761302 -0.9977304
vn 0.999874 -0.01587099 -0.000346655
vn 0.999874 -0.01587099 -0.000346655
vn 0.999874 -0.01587099 -0.000346655
vn 0.999874 -0.01587099 -0.000346655
vn 0.04761302 -0.04761302 0.9977304
vn 0.04761302 -0.04761302 0.9977304
vn 0.04761302 -0.04761302 0.9977304
vn 0.04761302 -0.04761302 0.9977304
vn 0.04761302 -0.04761302 -0.9977304
vn 0.04761302 -0.04761302 -0.9977304
vn 0.04761302 -0.04761302 -0.9977304
vn 0.04761302 -0.04761302 -0.9977304
vn 0.999874 -0.01587099 -0.000346655
vn 0.999874 -0.01587099 -0.000346655
vn 0.999874 -0.01587099 -0.000346655
vn 0.999874 -0.01587099 -0.000346655
vn 0.04761302 -0.04761302 0.9977304
vn 0.04761302 -0.04761302 0.9977304
vn 0.04761302 -0.04761302 0.9977304
vn 0.04761302 -0.04761302 0.9977304
vn 0.04761302 -0.04761302 -0.9977304
vn 0.04761302 -0.04761302 -0.9977304
vn 0.04761302 -0.04761302 -0.9977304
vn 0.04761302 -0.04761302 -0.9977304
vn 0.01587099 0.999874 -0.000345267
vn 0.01587099 0.999874 -0.000345267
vn 0.01587099 0.999874 -0.000345267
vn 0.01587099 0.999874 -0.000345267
vn -0.968132 -0.04761302 0.2458728
vn -0.968132 -0.04761302 0.2458728
vn -0.968132 -0.04761302 0.2458728
vn -0.968132 -0.04761302 0.2458728
vn 0.999874 -0.01587099 -0.000346655
vn 0.999874 -0.01587099 -0.000346655
vn 0.999874 -0.01587099 -0.000346655
vn 0.999874 -0.01587099 -0.000346655
vn -0.968132 -0.04761302 0.2458728
vn -0.968132 -0.04761302 0.2458728
vn -0.968132 -0.04761302 0.2458728
vn -0.968132 -0.04761302 0.2458728
vn 0.04761302 -0.04761302 -0.9977304
vn 0.04761302 -0.04761302 -0.9977304
vn 0.04761302 -0.04761302 -0.9977304
vn 0.04761302 -0.04761302 -0.9977304
vn 0.999874 -0.01587099 -0.000346655
vn 0.999874 -0.01587099 -0.000346655
vn 0.999874 -0.01587099 -0.000346655
vn 0.999874 -0.01587099 -0.000346655
vn -0.968132 -0.04761302 0.2458728
vn -0.968132 -0.04761302 0.2458728
vn -0.968132 -0.04761302 0.2458728
vn -0.968132 -0.04761302 0.2458728
vn 0.04761302 -0.04761302 -0.9977304
vn 0.04761302 -0.04761302 -0.9977304
vn 0.04761302 -0.04761302 -0.9977304
vn 0.04761302 -0.04761302 -0.9977304
vn 0.999874 -0.01587099 -0.000346655
vn 0.999874 -0.01587099 -0.000346655
vn 0.999874 -0.01587099 -0.000346655
vn 0.999874 -0.01587099 -0.000346655
vn -0.968132 -0.04761302 0.2458728
vn -0.968132 -0.04761302 0.2458728
vn -0.968132 -0.04761302 0.2458728
vn -0.968132 -0.04761302 0.2458728
vn 0.01587099 0.999874 -0.000345267
vn 0.01587099 0.999874 -0.000345267
vn 0.01587099 0.999874 -0.000345267
vn 0.01587099 0.999874 -0.000345267
vn 0.04761302 -0.04761302 0.9977304
vn 0.04761302 -0.04761302 0.9977304
vn 0.04761302 -0.04761302 0.9977304
vn 0.04761302 -0.04761302 0.9977304
vn 0.04761302 -0.04761302 -0.9977304
vn 0.04761302 -0.04761302 -0.9977304
vn 0.04761302 -0.04761302 -0.9977304
vn 0.04761302 -0.04761302 -0.9977304
vn 0.04761302 -0.04761302 0.9977304
vn 0.04761302 -0.04761302 0.9977304
vn 0.04761302 -0.04761302 0.9977304
vn 0.04761302 -0.04761302 0.9977304
vn -0.968132 -0.04761302 0.2458728
vn -0.968132 -0.04761302 0.2458728
vn -0.968132 -0.04761302 0.2458728
vn -0.968132 -0.04761302 0.2458728
vn 0.04761302 -0.04761302 -0.9977304
vn 0.04761302 -0.04761302 -0.9977304
vn 0.04761302 -0.04761302 -0.9977304
vn 0.04761302 -0.04761302 -0.9977304
vn 0.04761302 -0.04761302 0.9977304
vn 0.04761302 -0.04761302 0.9977304
vn 0.04761302 -0.04761302 0.9977304
vn 0.04761302 -0.04761302 0.9977304
vn -0.968132 -0.04761302 0.2458728
vn -0.968132 -0.04761302 0.2458728
vn -0.968132 -0.04761302 0.2458728
vn -0.968132 -0.04761302 0.2458728
vn 0.04761302 -0.04761302 -0.9977304
vn 0.04761302 -0.04761302 -0.9977304
vn 0.04761302 -0.04761302 -0.9977304
vn 0.04761302 -0.04761302 -0.9977304
vn 0.7459377 -0.04761302 0.6643116
vn 0.7459377 -0.04761302 0.6643116
vn 0.7459377 -0.04761302 0.6643116
vn 0.7459377 -0.04761302 0.6643116
vn 0.01587099 0.999874 -0.000345267
vn 0.01587099 0.999874 -0.000345267
vn 0.01587099 0.999874 -0.000345267
vn 0.01587099 0.999874 -0.000345267
vn 0.7459377 -0.04761302 -0.6643116
vn 0.7459377 -0.04761302 -0.6643116
vn 0.7459377 -0.04761302 -0.6643116
vn 0.7459377 -0.04761302 -0.6643116
vn -0.6824538 -0.04761302 0.7293764
vn -0.6824538 -0.04761302 0.7293764
vn -0.6824538 -0.04761302 0.7293764
vn -0.6824538 -0.04761302 0.7293764
vn -0.6824538 -0.04761302 0.7293764
vn -0.6824538 -0.04761302 0.7293764
vn -0.6824538 -0.04761302 0.7293764
vn -0.6824538 -0.04761302 0.7293764
vn 0.01587099 0.999874 -0.000345267
vn 0.01587099 0.999874 -0.000345267
vn 0.01587099 0.999874 -0.000345267
vn 0.01587099 0.999874 -0.000345267
vn 0.7459377 -0.04761302 0.6643116
vn 0.7459377 -0.04761302 0.6643116
vn 0.7459377 -0.04761302 0.6643116
vn 0.7459377 -0.04761302 0.6643116
vn -0.6824538 -0.04761302 -0.7293764
vn -0.6824538 -0.04761302 -0.7293764
vn -0.6824538 -0.04761302 -0.7293764
vn -0.6824538 -0.04761302 -0.7293764
vn 0.7459377 -0.04761302 -0.6643116
vn 0.7459377 -0.04761302 -0.6643116
vn 0.7459377 -0.04761302 -0.6643116
vn 0.7459377 -0.04761302 -0.6643116
vn 0.04761302 -0.04761302 -0.9977304
vn 0.04761302 -0.04761302 -0.9977304
vn 0.04761302 -0.04761302 -0.9977304
vn 0.04761302 -0.04761302 -0.9977304
vn -0.6824538 -0.04761302 -0.7293764
vn -0.6824538 -0.04761302 -0.7293764
vn -0.6824538 -0.04761302 -0.7293764
vn -0.6824538 -0.04761302 -0.7293764
vn -0.968132 -0.04761302 0.2458728
vn -0.968132 -0.04761302 0.2458728
vn -0.968132 -0.04761302 0.2458728
vn -0.968132 -0.04761302 0.2458728
vn -0.6824538 -0.04761302 0.7293764
vn -0.6824538 -0.04761302 0.7293764
vn -0.6824538 -0.04761302 0.7293764
vn -0.6824538 -0.04761302 0.7293764
vn 0.04761302 -0.04761302 0.9977304
vn 0.04761302 -0.04761302 0.9977304
vn 0.04761302 -0.04761302 0.9977304
vn 0.04761302 -0.04761302 0.9977304
vn 0.7459377 -0.04761302 0.6643116
vn 0.7459377 -0.04761302 0.6643116
vn 0.7459377 -0.04761302 0.6643116
vn 0.7459377 -0.04761302 0.6643116
vn 0.999874 -0.01587099 -0.000346655
vn 0.999874 -0.01587099 -0.000346655
vn 0.999874 -0.01587099 -0.000346655
vn 0.999874 -0.01587099 -0.000346655
vn 0.01587099 0.999874 -0.000345267
vn 0.01587099 0.999874 -0.000345267
vn 0.01587099 0.999874 -0.000345267
vn 0.01587099 0.999874 -0.000345267
vn 0.01587099 0.999874 -0.000345267
vn 0.01587099 0.999874 -0.000345267
vn 0.01587099 0.999874 -0.000345267
vn 0.01587099 0.999874 -0.000345267
vn -0.6824538 -0.04761302 0.7293764
vn -0.6824538 -0.04761302 0.7293764
vn -0.6824538 -0.04761302 0.7293764
vn -0.6824538 -0.04761302 0.7293764
vn -0.968132 -0.04761302 0.2458728
vn -0.968132 -0.04761302 0.2458728
vn -0.968132 -0.04761302 0.2458728
vn -0.968132 -0.04761302 0.2458728
vn -0.6824538 -0.04761302 -0.7293764
vn -0.6824538 -0.04761302 -0.7293764
vn -0.6824538 -0.04761302 -0.7293764
vn -0.6824538 -0.04761302 -0.7293764
vn 0.04761302 -0.04761302 -0.9977304
vn 0.04761302 -0.04761302 -0.9977304
vn 0.04761302 -0.04761302 -0.9977304
vn 0.04761302 -0.04761302 -0.9977304
vn 0.7459377 -0.04761302 -0.6643116
vn 0.7459377 -0.04761302 -0.6643116
vn 0.7459377 -0.04761302 -0.6643116
vn 0.7459377 -0.04761302 -0.6643116
vn 0.999874 -0.01587099 -0.000346655
vn 0.999874 -0.01587099 -0.000346655
vn 0.999874 -0.01587099 -0.000346655
vn 0.999874 -0.01587099 -0.000346655
vn 0.7459377 -0.04761302 0.6643116
vn 0.7459377 -0.04761302 0.6643116
vn 0.7459377 -0.04761302 0.6643116
vn 0.7459377 -0.04761302 0.6643116
vn 0.04761302 -0.04761302 0.9977304
vn 0.04761302 -0.04761302 0.9977304
vn 0.04761302 -0.04761302 0.9977304
vn 0.04761302 -0.04761302 0.9977304
vn 0.01587099 0.999874 -0.000345267
vn 0.01587099 0.999874 -0.000345267
vn 0.01587099 0.999874 -0.000345267
vn 0.01587099 0.999874 -0.000345267
vn 0.01587099 0.999874 -0.000345267
vn 0.01587099 0.999874 -0.000345267
vn 0.01587099 0.999874 -0.000345267
vn 0.01587099 0.999874 -0.000345267
vn 0.01587099 0.999874 -0.000345267
vn 0.01587099 0.999874 -0.000345267
vn 0.01587099 0.999874 -0.000345267
vn 0.01587099 0.999874 -0.000345267
vn -0.7776798 -0.4285174 0.4599859
vn -0.4602594 -0.4285174 0.7775179
vn -0.4602594 -0.4285174 0.7775179
vn -0.7776798 -0.4285174 0.4599859
vn -0.9037378 -0.4280863 0
vn -0.7776798 -0.4285174 0.4599859
vn -0.7776798 -0.4285174 0.4599859
vn -0.9037378 -0.4280863 0
vn -0.7776798 -0.4285174 -0.4599859
vn -0.9037378 -0.4280863 0
vn -0.9037378 -0.4280863 0
vn -0.7776798 -0.4285174 -0.4599859
vn -0.4602594 -0.4285174 -0.7775179
vn -0.7776798 -0.4285174 -0.4599859
vn -0.7776798 -0.4285174 -0.4599859
vn -0.4602594 -0.4285174 -0.7775179
vn 0.04761302 -0.4285174 -0.9022781
vn -0.4602594 -0.4285174 -0.7775179
vn -0.4602594 -0.4285174 -0.7775179
vn 0.04761302 -0.4285174 -0.9022781
vn 0.5237435 -0.4285174 -0.7362511
vn 0.04761302 -0.4285174 -0.9022781
vn 0.04761302 -0.4285174 -0.9022781
vn 0.5237435 -0.4285174 -0.7362511
vn 0.8411638 -0.4285174 -0.3298731
vn 0.5237435 -0.4285174 -0.7362511
vn 0.5237435 -0.4285174 -0.7362511
vn 0.8411638 -0.4285174 -0.3298731
vn 0.9207517 -0.390149 0
vn 0.8411638 -0.4285174 -0.3298731
vn 0.8411638 -0.4285174 -0.3298731
vn 0.9207517 -0.390149 0
vn 0.8411638 -0.4285174 0.3298731
vn 0.9207517 -0.390149 0
vn 0.9207517 -0.390149 0
vn 0.8411638 -0.4285174 0.3298731
vn 0.5237435 -0.4285174 0.7362511
vn 0.8411638 -0.4285174 0.3298731
vn 0.8411638 -0.4285174 0.3298731
vn 0.5237435 -0.4285174 0.7362511
vn 0.04761302 -0.4285174 0.9022781
vn 0.5237435 -0.4285174 0.7362511
vn 0.5237435 -0.4285174 0.7362511
vn 0.04761302 -0.4285174 0.9022781
vn -0.4602594 -0.4285174 0.7775179
vn 0.04761302 -0.4285174 0.9022781
vn 0.04761302 -0.4285174 0.9022781
vn -0.4602594 -0.4285174 0.7775179
vn -0.5872276 -0.04761302 0.8080203
vn -0.5872276 -0.04761302 0.8080203
vn -0.5872276 -0.04761302 0.8080203
vn -0.5872276 -0.04761302 0.8080203
vn -0.4920015 -0.04761302 0.8692914
vn -0.3650334 -0.04761302 0.9297761
vn -0.3650334 -0.04761302 0.9297761
vn -0.4920015 -0.04761302 0.8692914
vn -0.3650334 -0.04761302 0.9297761
vn -0.3650334 -0.04761302 0.9297761
vn -0.3650334 -0.04761302 0.9297761
vn -0.2380652 -0.04761302 0.9700814
vn -0.2380652 -0.04761302 0.9700814
vn -0.3650334 -0.04761302 0.9297761
vn -0.2380652 -0.04761302 0.9700814
vn -0.4920015 -0.04761302 0.8692914
vn -0.2380652 -0.04761302 0.9700814
vn -0.1110971 -0.04761302 0.9926683
vn -0.1110971 -0.04761302 0.9926683
vn -0.2380652 -0.04761302 0.9700814
vn -0.1110971 -0.04761302 0.9926683
vn -0.1110971 -0.04761302 0.9926683
vn -0.1110971 -0.04761302 0.9926683
vn 0.04761302 -0.04761302 0.9977304
vn 0.04761302 -0.04761302 0.9977304
vn -0.1110971 -0.04761302 0.9926683
vn 0.04761302 -0.04761302 0.9977304
vn -0.2380652 -0.04761302 0.9700814
vn 0.04761302 -0.04761302 0.9977304
vn 0.1745812 -0.04761302 0.9834909
vn 0.1745812 -0.04761302 0.9834909
vn 0.04761302 -0.04761302 0.9977304
vn 0.1745812 -0.04761302 0.9834909
vn 0.1745812 -0.04761302 0.9834909
vn 0.1745812 -0.04761302 0.9834909
vn 0.3332914 -0.04761302 0.9416209
vn 0.3332914 -0.04761302 0.9416209
vn 0.1745812 -0.04761302 0.9834909
vn 0.3332914 -0.04761302 0.9416209
vn 0.04761302 -0.04761302 0.9977304
vn 0.3332914 -0.04761302 0.9416209
vn 0.4285174 -0.04761302 0.9022781
vn 0.4285174 -0.04761302 0.9022781
vn 0.3332914 -0.04761302 0.9416209
vn 0.4285174 -0.04761302 0.9022781
vn 0.4285174 -0.04761302 0.9022781
vn 0.4285174 -0.04761302 0.9022781
vn 0.5554855 -0.04761302 0.8301619
vn 0.5554855 -0.04761302 0.8301619
vn 0.4285174 -0.04761302 0.9022781
vn 0.5554855 -0.04761302 0.8301619
vn 0.3332914 -0.04761302 0.9416209
vn 0.5554855 -0.04761302 0.8301619
vn 0.6507117 -0.04761302 0.7578307
vn 0.6507117 -0.04761302 0.7578307
vn 0.5554855 -0.04761302 0.8301619
vn 0.6507117 -0.04761302 0.7578307
vn 0.6507117 -0.04761302 0.7578307
vn 0.6507117 -0.04761302 0.7578307
vn 0.5554855 -0.04761302 0.8301619
vn 0.01587099 0.999874 -0.000345267
vn 0.01587099 0.999874 -0.000345267
vn 0.01587099 0.999874 -0.000345267
vn 0.01587099 0.999874 -0.000345267
vn 0.01587099 0.999874 -0.000345267
vn 0.01587099 0.999874 -0.000345267
vn 0.01587099 0.999874 -0.000345267
vn 0.01587099 0.999874 -0.000345267
vn 0.01587099 0.999874 -0.000345267
vn 0.01587099 0.999874 -0.000345267
vn 0.01587099 0.999874 -0.000345267
vn 0.01587099 0.999874 -0.000345267
vn 0.01587099 0.999874 -0.000345267
vn 0.01587099 0.999874 -0.000345267
vn 0.01587099 0.999874 -0.000345267
vn 0.01587099 0.999874 -0.000345267
vn 0.01587099 0.999874 -0.000345267
vn 0.01587099 0.999874 -0.000345267
vn 0.01587099 0.999874 -0.000345267
vn 0.01587099 0.999874 -0.000345267
vn 0.01587099 0.999874 -0.000345267
vn 0.01587099 0.999874 -0.000345267
vn 0.01587099 0.999874 -0.000345267
vn 0.01587099 0.999874 -0.000345267
vn 0.01587099 0.999874 -0.000345267
vn 0.01587099 0.999874 -0.000345267
vn 0.01587099 0.999874 -0.000345267
vn 0.01587099 0.999874 -0.000345267
vn 0.01587099 0.999874 -0.000345267
vn 0.1745812 -0.04761302 0.9834909
vn 0.1745812 -0.04761302 0.9834909
vn 0.1745812 -0.04761302 0.9834909
vn 0.1745812 -0.04761302 0.9834909
vn -0.1110971 -0.04761302 0.9926683
vn -0.1110971 -0.04761302 0.9926683
vn -0.1110971 -0.04761302 0.9926683
vn -0.1110971 -0.04761302 0.9926683
vn -0.5872276 -0.04761302 0.8080203
vn -0.4920015 -0.04761302 0.8692914
vn -0.4920015 -0.04761302 0.8692914
vn -0.5872276 -0.04761302 0.8080203
vn -0.4920015 -0.04761302 0.8692914
vn -0.5872276 -0.04761302 0.8080203
vn -0.5872276 -0.04761302 0.8080203
vn -0.5872276 -0.04761302 0.8080203
vn -0.3650334 -0.04761302 0.9297761
vn -0.3650334 -0.04761302 0.9297761
vn -0.3650334 -0.04761302 0.9297761
vn -0.3650334 -0.04761302 0.9297761
vn 0.4285174 -0.04761302 0.9022781
vn 0.4285174 -0.04761302 0.9022781
vn 0.4285174 -0.04761302 0.9022781
vn 0.4285174 -0.04761302 0.9022781
vn 0.6507117 -0.04761302 0.7578307
vn 0.6507117 -0.04761302 0.7578307
vn 0.6507117 -0.04761302 0.7578307
vn 0.6507117 -0.04761302 0.7578307
vn -0.7776798 -0.04761302 -0.626855
vn -0.7776798 -0.04761302 -0.626855
vn -0.7776798 -0.04761302 -0.626855
vn -0.7776798 -0.04761302 -0.626855
vn 0.01587099 -0.999874 -0.000345267
vn 0.01587099 -0.999874 -0.000345267
vn 0.01587099 -0.999874 -0.000345267
vn 0.01587099 -0.999874 -0.000345267
vn -0.968132 -0.04761302 0.2458728
vn -0.968132 -0.04761302 0.2458728
vn -0.968132 -0.04761302 0.2458728
vn -0.968132 -0.04761302 0.2458728
vn 0.01587099 -0.999874 -0.000345267
vn 0.01587099 -0.999874 -0.000345267
vn 0.01587099 -0.999874 -0.000345267
vn 0.01587099 -0.999874 -0.000345267
vn 0.999874 -0.01587099 -0.000346655
vn 0.999874 -0.01587099 -0.000346655
vn 0.999874 -0.01587099 -0.000346655
vn 0.999874 -0.01587099 -0.000346655
vn -0.968132 -0.04761302 -0.2458728
vn -0.968132 -0.04761302 -0.2458728
vn -0.968132 -0.04761302 -0.2458728
vn -0.968132 -0.04761302 -0.2458728
vn 0.01587099 -0.999874 -0.000345267
vn 0.01587099 -0.999874 -0.000345267
vn 0.01587099 -0.999874 -0.000345267
vn 0.01587099 -0.999874 -0.000345267
vn 0.999874 -0.01587099 -0.000346655
vn 0.999874 -0.01587099 -0.000346655
vn 0.999874 -0.01587099 -0.000346655
vn 0.999874 -0.01587099 -0.000346655
vn -0.9046479 -0.04761302 -0.4234915
vn -0.9046479 -0.04761302 -0.4234915
vn -0.9046479 -0.04761302 -0.4234915
vn -0.9046479 -0.04761302 -0.4234915
vn 0.01587099 -0.999874 -0.000345267
vn 0.01587099 -0.999874 -0.000345267
vn 0.01587099 -0.999874 -0.000345267
vn 0.01587099 -0.999874 -0.000345267
vn 0.968132 -0.04761302 0.245873
vn 0.968132 -0.04761302 0.245873
vn 0.968132 -0.04761302 0.245873
vn 0.968132 -0.04761302 0.245873
vn -0.9046479 -0.04761302 0.4234915
vn -0.9046479 -0.04761302 0.4234915
vn -0.9046479 -0.04761302 0.4234915
vn -0.9046479 -0.04761302 0.4234915
vn 0.01587099 -0.999874 -0.000345267
vn 0.01587099 -0.999874 -0.000345267
vn 0.01587099 -0.999874 -0.000345267
vn 0.01587099 -0.999874 -0.000345267
vn 0.968132 -0.04761302 -0.245873
vn 0.968132 -0.04761302 -0.245873
vn 0.968132 -0.04761302 -0.245873
vn 0.968132 -0.04761302 -0.245873
vn 0.01587099 -0.999874 -0.000345267
vn 0.01587099 -0.999874 -0.000345267
vn 0.01587099 -0.999874 -0.000345267
vn 0.01587099 -0.999874 -0.000345267
vn 0.8411638 -0.04761302 -0.5386803
vn 0.8411638 -0.04761302 -0.5386803
vn 0.8411638 -0.04761302 -0.5386803
vn 0.8411638 -0.04761302 -0.5386803
g DSJ_GTA_gaoLou_26_0
f 3/3/3 2/2/2 1/1/1
f 2/2/2 4/4/4 1/1/1
f 7/7/7 6/6/6 5/5/5
f 6/6/6 8/8/8 5/5/5
f 11/11/11 10/10/10 9/9/9
f 10/10/10 12/12/12 9/9/9
f 15/15/15 14/14/14 13/13/13
f 14/14/14 16/16/16 13/13/13
f 19/19/19 18/18/18 17/17/17
f 18/18/18 20/20/20 17/17/17
f 23/23/23 22/22/22 21/21/21
f 22/22/22 24/24/24 21/21/21
f 27/27/27 26/26/26 25/25/25
f 26/26/26 28/28/28 25/25/25
f 31/31/31 30/30/30 29/29/29
f 30/30/30 32/32/32 29/29/29
f 35/35/35 34/34/34 33/33/33
f 34/34/34 36/36/36 33/33/33
f 39/39/39 38/38/38 37/37/37
f 38/38/38 40/40/40 37/37/37
f 43/43/43 42/42/42 41/41/41
f 42/42/42 44/44/44 41/41/41
f 47/47/47 46/46/46 45/45/45
f 46/46/46 48/48/48 45/45/45
f 51/51/51 50/50/50 49/49/49
f 50/50/50 52/52/52 49/49/49
f 55/55/55 54/54/54 53/53/53
f 54/54/54 56/56/56 53/53/53
f 59/59/59 58/58/58 57/57/57
f 58/58/58 60/60/60 57/57/57
f 63/63/63 62/62/62 61/61/61
f 62/62/62 64/64/64 61/61/61
f 67/67/67 66/66/66 65/65/65
f 66/66/66 68/68/68 65/65/65
f 71/71/71 70/70/70 69/69/69
f 70/70/70 72/72/72 69/69/69
f 75/75/75 74/74/74 73/73/73
f 74/74/74 76/76/76 73/73/73
f 79/79/79 78/78/78 77/77/77
f 78/78/78 80/80/80 77/77/77
f 83/83/83 82/82/82 81/81/81
f 82/82/82 84/84/84 81/81/81
f 87/87/87 86/86/86 85/85/85
f 86/86/86 88/88/88 85/85/85
f 91/91/91 90/90/90 89/89/89
f 90/90/90 92/92/92 89/89/89
f 95/95/95 94/94/94 93/93/93
f 94/94/94 96/96/96 93/93/93
f 99/99/99 98/98/98 97/97/97
f 98/98/98 100/100/100 97/97/97
f 103/103/103 102/102/102 101/101/101
f 102/102/102 104/104/104 101/101/101
f 107/107/107 106/106/106 105/105/105
f 106/106/106 108/108/108 105/105/105
f 111/111/111 110/110/110 109/109/109
f 110/110/110 112/112/112 109/109/109
f 115/115/115 114/114/114 113/113/113
f 114/114/114 116/116/116 113/113/113
f 119/119/119 118/118/118 117/117/117
f 118/118/118 120/120/120 117/117/117
f 123/123/123 122/122/122 121/121/121
f 122/122/122 124/124/124 121/121/121
f 127/127/127 126/126/126 125/125/125
f 126/126/126 128/128/128 125/125/125
f 131/131/131 130/130/130 129/129/129
f 130/130/130 132/132/132 129/129/129
f 135/135/135 134/134/134 133/133/133
f 134/134/134 136/136/136 133/133/133
f 139/139/139 138/138/138 137/137/137
f 138/138/138 140/140/140 137/137/137
f 143/143/143 142/142/142 141/141/141
f 142/142/142 144/144/144 141/141/141
f 147/147/147 146/146/146 145/145/145
f 146/146/146 148/148/148 145/145/145
f 151/151/151 150/150/150 149/149/149
f 150/150/150 152/152/152 149/149/149
f 155/155/155 154/154/154 153/153/153
f 154/154/154 156/156/156 153/153/153
f 159/159/159 158/158/158 157/157/157
f 158/158/158 160/160/160 157/157/157
f 163/163/163 162/162/162 161/161/161
f 162/162/162 164/164/164 161/161/161
f 167/167/167 166/166/166 165/165/165
f 166/166/166 168/168/168 165/165/165
f 171/171/171 170/170/170 169/169/169
f 170/170/170 172/172/172 169/169/169
f 175/175/175 174/174/174 173/173/173
f 174/174/174 176/176/176 173/173/173
f 179/179/179 178/178/178 177/177/177
f 178/178/178 180/180/180 177/177/177
f 183/183/183 182/182/182 181/181/181
f 182/182/182 184/184/184 181/181/181
f 187/187/187 186/186/186 185/185/185
f 186/186/186 188/188/188 185/185/185
f 191/191/191 190/190/190 189/189/189
f 190/190/190 192/192/192 189/189/189
f 195/195/195 194/194/194 193/193/193
f 194/194/194 196/196/196 193/193/193
f 199/199/199 198/198/198 197/197/197
f 198/198/198 200/200/200 197/197/197
f 203/203/203 202/202/202 201/201/201
f 202/202/202 204/204/204 201/201/201
f 207/207/207 206/206/206 205/205/205
f 206/206/206 208/208/208 205/205/205
f 211/211/211 210/210/210 209/209/209
f 210/210/210 212/212/212 209/209/209
f 215/215/215 214/214/214 213/213/213
f 214/214/214 216/216/216 213/213/213
f 219/219/219 218/218/218 217/217/217
f 218/218/218 220/220/220 217/217/217
f 223/223/223 222/222/222 221/221/221
f 222/222/222 224/224/224 221/221/221
f 227/227/227 226/226/226 225/225/225
f 225/225/225 228/228/228 227/227/227
f 228/228/228 229/229/229 227/227/227
f 228/228/228 230/230/230 229/229/229
f 230/230/230 231/231/231 229/229/229
f 230/230/230 232/232/232 231/231/231
f 235/235/235 234/234/234 233/233/233
f 234/234/234 236/236/236 233/233/233
f 239/239/239 238/238/238 237/237/237
f 238/238/238 240/240/240 237/237/237
f 243/243/243 242/242/242 241/241/241
f 242/242/242 244/244/244 241/241/241
f 247/247/247 246/246/246 245/245/245
f 246/246/246 248/248/248 245/245/245
f 251/251/251 250/250/250 249/249/249
f 250/250/250 252/252/252 249/249/249
f 255/255/255 254/254/254 253/253/253
f 254/254/254 256/256/256 253/253/253
f 259/259/259 258/258/258 257/257/257
f 258/258/258 260/260/260 257/257/257
f 263/263/263 262/262/262 261/261/261
f 262/262/262 264/264/264 261/261/261
f 267/267/267 266/266/266 265/265/265
f 265/265/265 268/268/268 267/267/267
f 265/265/265 269/269/269 268/268/268
f 269/269/269 270/270/270 268/268/268
f 269/269/269 271/271/271 270/270/270
f 271/271/271 272/272/272 270/270/270
f 271/271/271 273/273/273 272/272/272
f 273/273/273 274/274/274 272/272/272
f 273/273/273 275/275/275 274/274/274
f 275/275/275 276/276/276 274/274/274
f 279/279/279 278/278/278 277/277/277
f 278/278/278 280/280/280 277/277/277
f 283/283/283 282/282/282 281/281/281
f 282/282/282 284/284/284 281/281/281
f 287/287/287 286/286/286 285/285/285
f 286/286/286 288/288/288 285/285/285
f 291/291/291 290/290/290 289/289/289
f 290/290/290 292/292/292 289/289/289
f 295/295/295 294/294/294 293/293/293
f 294/294/294 296/296/296 293/293/293
f 299/299/299 298/298/298 297/297/297
f 298/298/298 300/300/300 297/297/297
f 303/303/303 302/302/302 301/301/301
f 302/302/302 304/304/304 301/301/301
f 307/307/307 306/306/306 305/305/305
f 306/306/306 308/308/308 305/305/305
f 311/311/311 310/310/310 309/309/309
f 310/310/310 312/312/312 309/309/309
f 315/315/315 314/314/314 313/313/313
f 314/314/314 316/316/316 313/313/313
f 319/319/319 318/318/318 317/317/317
f 318/318/318 320/320/320 317/317/317
f 323/323/323 322/322/322 321/321/321
f 322/322/322 324/324/324 321/321/321
f 327/327/327 326/326/326 325/325/325
f 326/326/326 328/328/328 325/325/325
f 331/331/331 330/330/330 329/329/329
f 330/330/330 332/332/332 329/329/329
f 330/330/330 333/333/333 332/332/332
f 334/334/334 333/333/333 330/330/330
f 335/335/335 334/334/334 330/330/330
f 336/336/336 334/334/334 335/335/335
f 337/337/337 336/336/336 335/335/335
f 337/337/337 335/335/335 338/338/338
f 339/339/339 337/337/337 338/338/338
f 333/333/333 340/340/340 332/332/332
f 343/343/343 342/342/342 341/341/341
f 342/342/342 344/344/344 341/341/341
f 342/342/342 345/345/345 344/344/344
f 346/346/346 345/345/345 342/342/342
f 347/347/347 346/346/346 342/342/342
f 348/348/348 346/346/346 347/347/347
f 349/349/349 348/348/348 347/347/347
f 349/349/349 347/347/347 350/350/350
f 351/351/351 349/349/349 350/350/350
f 345/345/345 352/352/352 344/344/344
f 355/355/355 354/354/354 353/353/353
f 354/354/354 356/356/356 353/353/353
f 354/354/354 357/357/357 356/356/356
f 358/358/358 357/357/357 354/354/354
f 359/359/359 358/358/358 354/354/354
f 360/360/360 358/358/358 359/359/359
f 361/361/361 360/360/360 359/359/359
f 361/361/361 359/359/359 362/362/362
f 363/363/363 361/361/361 362/362/362
f 357/357/357 364/364/364 356/356/356
f 367/367/367 366/366/366 365/365/365
f 366/366/366 368/368/368 365/365/365
f 366/366/366 369/369/369 368/368/368
f 370/370/370 369/369/369 366/366/366
f 371/371/371 370/370/370 366/366/366
f 372/372/372 370/370/370 371/371/371
f 373/373/373 372/372/372 371/371/371
f 373/373/373 371/371/371 374/374/374
f 375/375/375 373/373/373 374/374/374
f 369/369/369 376/376/376 368/368/368
f 379/379/379 378/378/378 377/377/377
f 378/378/378 380/380/380 377/377/377
f 378/378/378 381/381/381 380/380/380
f 382/382/382 381/381/381 378/378/378
f 383/383/383 382/382/382 378/378/378
f 381/381/381 384/384/384 380/380/380
f 387/387/387 386/386/386 385/385/385
f 390/390/390 389/389/389 388/388/388
f 390/390/390 392/392/392 391/391/391
f 395/395/395 394/394/394 393/393/393
f 398/398/398 397/397/397 396/396/396
f 397/397/397 399/399/399 396/396/396
f 397/397/397 400/400/400 399/399/399
f 400/400/400 401/401/401 399/399/399
f 400/400/400 402/402/402 401/401/401
f 402/402/402 403/403/403 401/401/401
f 402/402/402 404/404/404 403/403/403
f 404/404/404 405/405/405 403/403/403
f 404/404/404 406/406/406 405/405/405
f 406/406/406 407/407/407 405/405/405
f 406/406/406 408/408/408 407/407/407
f 408/408/408 409/409/409 407/407/407
f 408/408/408 410/410/410 409/409/409
f 413/413/413 412/412/412 411/411/411
f 416/416/416 415/415/415 414/414/414
f 415/415/415 417/417/417 414/414/414
f 420/420/420 419/419/419 418/418/418
f 419/419/419 421/421/421 418/418/418
f 424/424/424 423/423/423 422/422/422
f 423/423/423 425/425/425 422/422/422
f 423/423/423 426/426/426 425/425/425
f 426/426/426 427/427/427 425/425/425
f 425/425/425 427/427/427 428/428/428
f 427/427/427 429/429/429 428/428/428
f 432/432/432 431/431/431 430/430/430
f 431/431/431 433/433/433 430/430/430
f 436/436/436 435/435/435 434/434/434
f 435/435/435 437/437/437 434/434/434
f 440/440/440 439/439/439 438/438/438
f 439/439/439 441/441/441 438/438/438
f 444/444/444 443/443/443 442/442/442
f 443/443/443 445/445/445 442/442/442
f 448/448/448 447/447/447 446/446/446
f 447/447/447 449/449/449 446/446/446
f 452/452/452 451/451/451 450/450/450
f 451/451/451 453/453/453 450/450/450
f 456/456/456 455/455/455 454/454/454
f 455/455/455 457/457/457 454/454/454
f 460/460/460 459/459/459 458/458/458
f 459/459/459 461/461/461 458/458/458
f 464/464/464 463/463/463 462/462/462
f 463/463/463 465/465/465 462/462/462
f 468/468/468 467/467/467 466/466/466
f 467/467/467 469/469/469 466/466/466
f 472/472/472 471/471/471 470/470/470
f 471/471/471 473/473/473 470/470/470
f 476/476/476 475/475/475 474/474/474
f 475/475/475 477/477/477 474/474/474
f 480/480/480 479/479/479 478/478/478
f 479/479/479 481/481/481 478/478/478
f 484/484/484 483/483/483 482/482/482
f 483/483/483 485/485/485 482/482/482
f 488/488/488 487/487/487 486/486/486
f 487/487/487 489/489/489 486/486/486
f 492/492/492 491/491/491 490/490/490
f 491/491/491 493/493/493 490/490/490
f 496/496/496 495/495/495 494/494/494
f 495/495/495 497/497/497 494/494/494
f 500/500/500 499/499/499 498/498/498
f 499/499/499 501/501/501 498/498/498
f 504/504/504 503/503/503 502/502/502
f 503/503/503 505/505/505 502/502/502
