g DSJ_GTA_diLou_3
v 2.809401 2.646413 3.521402
v -2.792244 4.387813 -3.744438
v 2.792244 4.387813 -3.770173
v -2.76651 2.646413 3.538558
v -2.76651 -1.385399 3.753016
v 2.809401 -1.316773 3.727282
v 2.809401 -1.385399 3.727282
v -2.76651 -1.316773 3.753016
v -2.792244 -4.387813 -3.744438
v 2.792244 4.387813 -3.770173
v -2.792244 4.387813 -3.744438
v 2.792244 -4.387813 -3.770173
v -2.76651 2.329015 3.392727
v 2.809401 2.500581 3.401305
v 2.809401 2.329015 3.37557
v -2.76651 2.500581 3.418462
v -2.76651 -1.153785 3.392727
v 2.809401 -1.316773 3.727282
v -2.76651 -1.316773 3.753016
v 2.809401 -1.153785 3.37557
v 2.809401 -1.385399 3.366992
v -2.76651 -1.385399 3.753016
v 2.809401 -1.385399 3.727282
v -2.76651 -1.385399 3.392727
v -2.76651 2.500581 3.418462
v 2.809401 2.646413 3.521402
v 2.809401 2.500581 3.401305
v -2.76651 2.646413 3.538558
v 1.273881 -0.2101688 3.195426
v 2.243232 -0.2101688 3.37557
v 1.273881 -0.2101688 3.37557
v 2.243232 -0.2101688 3.186847
v 2.243232 -0.2101688 3.37557
v 2.243232 1.728532 3.186847
v 2.243232 1.728532 3.37557
v 2.243232 -0.2101688 3.186847
v 2.243232 -0.2101688 3.186847
v 1.273881 1.728532 3.195426
v 2.243232 1.728532 3.186847
v 1.273881 -0.2101688 3.195426
v -0.4246268 -0.2101688 3.195426
v 0.5533018 -0.2101688 3.384149
v -0.4160485 -0.2101688 3.384149
v 0.5533018 -0.2101688 3.195426
v 0.5533018 1.728532 3.384149
v -0.4246268 1.728532 3.195426
v -0.4160485 1.728532 3.384149
v 0.5533018 1.728532 3.195426
v 0.5533018 -0.2101688 3.195426
v -0.4246268 1.728532 3.195426
v 0.5533018 1.728532 3.195426
v -0.4246268 -0.2101688 3.195426
v -1.136628 1.728532 3.384149
v -2.105978 1.728532 3.204004
v -2.105978 1.728532 3.392727
v -1.136628 1.728532 3.204004
v -2.105978 1.728532 3.204004
v -2.105978 -0.2101688 3.392727
v -2.105978 1.728532 3.392727
v -2.105978 -0.2101688 3.204004
v -2.105978 1.728532 3.204004
v -1.136628 -0.2101688 3.204004
v -2.105978 -0.2101688 3.204004
v -1.136628 1.728532 3.204004
v -0.4160485 -3.761595 3.384149
v 2.243232 -3.761595 3.186847
v 2.243232 -3.761595 3.37557
v -0.4246268 -3.761595 3.195426
v 2.243232 -1.805737 3.186847
v -0.4160485 -1.805737 3.384149
v 2.243232 -1.805737 3.37557
v -0.4246268 -1.805737 3.195426
v 2.243232 -3.761595 3.186847
v -0.4246268 -1.805737 3.195426
v 2.243232 -1.805737 3.186847
v -0.4246268 -3.761595 3.195426
v 2.243232 -3.761595 3.186847
v 2.243232 -1.805737 3.37557
v 2.243232 -3.761595 3.37557
v 2.243232 -1.805737 3.186847
v -1.033688 -4.327765 3.204004
v -2.191761 -4.327765 3.392727
v -2.20034 -4.327765 3.212582
v -1.033688 -4.327765 3.384149
v -1.033688 -1.822894 3.204004
v -2.20034 -4.327765 3.212582
v -2.20034 -1.822894 3.212582
v -1.033688 -4.327765 3.204004
v -1.033688 -1.822894 3.204004
v -2.191761 -1.822894 3.392727
v -1.033688 -1.822894 3.384149
v -2.20034 -1.822894 3.212582
v 2.809401 -1.385399 3.366992
v 2.792244 -4.387813 -3.770173
v 2.809401 -4.387813 3.366992
v 2.809401 -1.153785 3.37557
v 2.809401 2.329015 3.37557
v 2.809401 2.500581 3.401305
v 2.792244 4.387813 -3.770173
v 2.809401 2.646413 3.521402
v 2.809401 -1.316773 3.727282
v 2.809401 -1.385399 3.727282
v -2.76651 2.500581 3.418462
v -2.792244 4.387813 -3.744438
v -2.76651 2.646413 3.538558
v -2.792244 -4.387813 -3.744438
v -2.76651 2.329015 3.392727
v -2.76651 -1.153785 3.392727
v -2.76651 -1.385399 3.392727
v -2.76651 -1.316773 3.753016
v -2.76651 -1.385399 3.753016
v -2.792244 -4.387813 -3.744438
v -2.76651 -1.385399 3.392727
v -2.76651 -4.387813 3.392727
v 1.273881 -0.2101688 3.195426
v 1.273881 1.728532 3.37557
v 1.273881 1.728532 3.195426
v 1.273881 -0.2101688 3.37557
v 2.243232 1.728532 3.186847
v 1.273881 1.728532 3.37557
v 2.243232 1.728532 3.37557
v 1.273881 1.728532 3.195426
v -0.4246268 1.728532 3.195426
v -0.4160485 -0.2101688 3.384149
v -0.4160485 1.728532 3.384149
v -0.4246268 -0.2101688 3.195426
v 0.5533018 1.728532 3.384149
v 0.5533018 -0.2101688 3.195426
v 0.5533018 1.728532 3.195426
v 0.5533018 -0.2101688 3.384149
v -1.136628 1.728532 3.384149
v -2.76651 2.329015 3.392727
v -0.4160485 1.728532 3.384149
v -2.105978 1.728532 3.392727
v -2.105978 -0.2101688 3.392727
v -2.76651 -1.153785 3.392727
v -1.136628 -0.2101688 3.384149
v 2.809401 -1.153785 3.37557
v 0.5533018 1.728532 3.384149
v 1.273881 1.728532 3.37557
v 2.809401 2.329015 3.37557
v 2.243232 1.728532 3.37557
v 2.243232 -0.2101688 3.37557
v 1.273881 -0.2101688 3.37557
v 0.5533018 -0.2101688 3.384149
v -0.4160485 -0.2101688 3.384149
v -1.136628 -0.2101688 3.384149
v -1.136628 1.728532 3.204004
v -1.136628 1.728532 3.384149
v -1.136628 -0.2101688 3.204004
v -1.136628 -0.2101688 3.384149
v -2.105978 -0.2101688 3.204004
v -1.136628 -0.2101688 3.204004
v -2.105978 -0.2101688 3.392727
v -0.4160485 -3.761595 3.384149
v -0.4246268 -1.805737 3.195426
v -0.4246268 -3.761595 3.195426
v -0.4160485 -1.805737 3.384149
v -2.191761 -4.327765 3.392727
v -2.20034 -1.822894 3.212582
v -2.20034 -4.327765 3.212582
v -2.191761 -1.822894 3.392727
v -1.033688 -1.822894 3.204004
v -1.033688 -4.327765 3.384149
v -1.033688 -4.327765 3.204004
v -1.033688 -1.822894 3.384149
v -2.14887 1.745689 3.435618
v -1.093736 2.011617 3.435618
v -1.093736 1.745689 3.435618
v -2.14887 2.011617 3.435618
v -2.14887 1.745689 3.435618
v -1.093736 1.745689 3.366992
v -2.14887 1.745689 3.366992
v -1.093736 1.745689 3.435618
v -1.093736 1.745689 3.435618
v -1.093736 2.011617 3.366992
v -1.093736 1.745689 3.366992
v -1.093736 2.011617 3.435618
v -1.093736 2.011617 3.435618
v -2.14887 2.011617 3.366992
v -1.093736 2.011617 3.366992
v -2.14887 2.011617 3.435618
v -2.14887 2.011617 3.435618
v -2.14887 1.745689 3.366992
v -2.14887 2.011617 3.366992
v -2.14887 1.745689 3.435618
v -0.4589405 1.745689 3.42704
v 0.5876153 2.011617 3.42704
v 0.5876153 1.745689 3.42704
v -0.4589405 2.011617 3.42704
v -0.4589405 1.745689 3.42704
v 0.5876153 1.745689 3.358414
v -0.4589405 1.745689 3.358414
v 0.5876153 1.745689 3.42704
v 0.5876153 1.745689 3.42704
v 0.5876153 2.011617 3.358414
v 0.5876153 1.745689 3.358414
v 0.5876153 2.011617 3.42704
v 0.5876153 2.011617 3.42704
v -0.4589405 2.011617 3.358414
v 0.5876153 2.011617 3.358414
v -0.4589405 2.011617 3.42704
v -0.4589405 2.011617 3.42704
v -0.4589405 1.745689 3.358414
v -0.4589405 2.011617 3.358414
v -0.4589405 1.745689 3.42704
v 1.230989 1.745689 3.42704
v 2.286123 2.011617 3.418462
v 2.286123 1.745689 3.418462
v 1.230989 2.011617 3.42704
v 1.230989 1.745689 3.42704
v 2.286123 1.745689 3.349835
v 1.230989 1.745689 3.349835
v 2.286123 1.745689 3.418462
v 2.286123 1.745689 3.418462
v 2.286123 2.011617 3.349835
v 2.286123 1.745689 3.349835
v 2.286123 2.011617 3.418462
v 2.286123 2.011617 3.418462
v 1.230989 2.011617 3.349835
v 2.286123 2.011617 3.349835
v 1.230989 2.011617 3.42704
v 1.230989 2.011617 3.42704
v 1.230989 1.745689 3.349835
v 1.230989 2.011617 3.349835
v 1.230989 1.745689 3.42704
v 2.243232 -3.761595 3.37557
v 2.809401 -4.387813 3.366992
v -1.033688 -4.327765 3.384149
v 2.243232 -1.805737 3.37557
v 2.809401 -1.385399 3.366992
v -2.76651 -1.385399 3.392727
v -2.191761 -4.327765 3.392727
v -2.76651 -4.387813 3.392727
v -0.4160485 -3.761595 3.384149
v -1.033688 -1.822894 3.384149
v -2.191761 -1.822894 3.392727
v -0.4160485 -1.805737 3.384149
v -2.76651 -4.387813 3.392727
v -2.191761 -1.822894 3.392727
v -2.191761 -4.327765 3.392727
v -2.76651 -1.385399 3.392727
v -2.191761 -1.822894 3.392727
v -2.76651 -4.387813 3.392727
vt 0.1109582 0.9981946
vt 0.001519337 0.9082984
vt 0.001519337 0.9981946
vt 0.1109582 0.9082984
vt 0.1383179 0.8105851
vt 0.2477568 0.8144937
vt 0.2477568 0.8105851
vt 0.1383179 0.8144937
vt 0.2477568 0.7480487
vt 0.1383179 0.9122069
vt 0.2477568 0.9122069
vt 0.1383179 0.7480487
vt 0.1383179 0.8731216
vt 0.2477568 0.8770301
vt 0.2477568 0.8731216
vt 0.1383179 0.8770301
vt 0.1187753 0.9981946
vt 0.1109582 0.9082984
vt 0.1109582 0.9981946
vt 0.1187753 0.9082984
vt 0.2477568 0.8066766
vt 0.1383179 0.8105851
vt 0.2477568 0.8105851
vt 0.1383179 0.8066766
vt 0.1383179 0.8770301
vt 0.2477568 0.8809387
vt 0.2477568 0.8770301
vt 0.1383179 0.8809387
vt 0.1891288 0.9903775
vt 0.1813117 0.9630178
vt 0.1813117 0.9903775
vt 0.1891288 0.9630178
vt 0.1891288 0.9591093
vt 0.2399397 0.9630178
vt 0.2399397 0.9591093
vt 0.1891288 0.9630178
vt 0.1891288 0.9630178
vt 0.2399397 0.9903775
vt 0.2399397 0.9630178
vt 0.1891288 0.9903775
vt 0.1891288 0.9903775
vt 0.1813117 0.9630178
vt 0.1813117 0.9903775
vt 0.1891288 0.9630178
vt 0.2477568 0.9630178
vt 0.2399397 0.9903775
vt 0.2477568 0.9903775
vt 0.2399397 0.9630178
vt 0.1891288 0.9630178
vt 0.2399397 0.9903775
vt 0.2399397 0.9630178
vt 0.1891288 0.9903775
vt 0.2477568 0.9630178
vt 0.2399397 0.9903775
vt 0.2477568 0.9903775
vt 0.2399397 0.9630178
vt 0.2399397 0.9903775
vt 0.1891288 0.9981946
vt 0.2399397 0.9981946
vt 0.1891288 0.9903775
vt 0.2399397 0.9903775
vt 0.1891288 0.9630178
vt 0.1891288 0.9903775
vt 0.2399397 0.9630178
vt 0.1813117 0.920024
vt 0.1774032 0.9903775
vt 0.1813117 0.9903775
vt 0.1774032 0.920024
vt 0.1226838 0.9903775
vt 0.1187753 0.920024
vt 0.1187753 0.9903775
vt 0.1226838 0.920024
vt 0.1774032 0.9903775
vt 0.1226838 0.920024
vt 0.1226838 0.9903775
vt 0.1774032 0.920024
vt 0.1774032 0.9903775
vt 0.1226838 0.9942861
vt 0.1813117 0.9942861
vt 0.1226838 0.9903775
vt 0.1891288 0.9278411
vt 0.1852203 0.9512922
vt 0.1891288 0.9512922
vt 0.1852203 0.9278411
vt 0.2438482 0.9278411
vt 0.1891288 0.9512922
vt 0.2438482 0.9512922
vt 0.1891288 0.9278411
vt 0.2438482 0.9278411
vt 0.2477568 0.9512922
vt 0.2477568 0.9278411
vt 0.2438482 0.9512922
vt 0.01324493 0.8066766
vt 0.1383179 0.7480487
vt 0.01324493 0.7480487
vt 0.01324493 0.8105851
vt 0.01324493 0.8731216
vt 0.01324493 0.8770301
vt 0.1383179 0.9122069
vt 0.005427868 0.8809387
vt 0.001519337 0.8066766
vt 0.001519337 0.8066766
vt 0.01324493 0.8770301
vt 0.1383179 0.9122069
vt 0.005427868 0.8809387
vt 0.1383179 0.7480487
vt 0.01324493 0.8731216
vt 0.01324493 0.8105851
vt 0.01324493 0.8066766
vt 0.001519337 0.8066766
vt 0.001519337 0.8066766
vt 0.1383179 0.7480487
vt 0.01324493 0.8066766
vt 0.01324493 0.7480487
vt 0.1891288 0.9903775
vt 0.2399397 0.9981946
vt 0.2399397 0.9903775
vt 0.1891288 0.9981946
vt 0.2399397 0.9630178
vt 0.2477568 0.9903775
vt 0.2477568 0.9630178
vt 0.2399397 0.9903775
vt 0.2399397 0.9903775
vt 0.1891288 0.9981946
vt 0.2399397 0.9981946
vt 0.1891288 0.9903775
vt 0.2399397 0.9591093
vt 0.1891288 0.9630178
vt 0.2399397 0.9630178
vt 0.1891288 0.9591093
vt 0.1734947 0.861396
vt 0.1383179 0.8731216
vt 0.1852203 0.861396
vt 0.1500435 0.861396
vt 0.1500435 0.8262193
vt 0.1383179 0.8105851
vt 0.1734947 0.8262193
vt 0.2477568 0.8105851
vt 0.2047629 0.861396
vt 0.2164885 0.861396
vt 0.2477568 0.8731216
vt 0.2360312 0.861396
vt 0.2360312 0.8262193
vt 0.2164885 0.8262193
vt 0.2047629 0.8262193
vt 0.1852203 0.8262193
vt 0.1891288 0.9591093
vt 0.2399397 0.9630178
vt 0.2399397 0.9591093
vt 0.1891288 0.9630178
vt 0.1813117 0.9630178
vt 0.1891288 0.9903775
vt 0.1891288 0.9630178
vt 0.1813117 0.9903775
vt 0.1774032 0.9122069
vt 0.1226838 0.920024
vt 0.1774032 0.920024
vt 0.1226838 0.9122069
vt 0.1891288 0.9512922
vt 0.2438482 0.9512922
vt 0.1891288 0.9512922
vt 0.2438482 0.9512922
vt 0.2438482 0.9278411
vt 0.1891288 0.9239326
vt 0.1891288 0.9278411
vt 0.2438482 0.9239326
vt 0.0484217 0.9043899
vt 0.001519337 0.8926643
vt 0.001519337 0.9043899
vt 0.0484217 0.8926643
vt 0.0484217 0.9043899
vt 0.001519337 0.9082984
vt 0.0484217 0.9082984
vt 0.001519337 0.9043899
vt 0.001519337 0.9043899
vt 0.001519337 0.8926643
vt 0.001519337 0.9043899
vt 0.001519337 0.8926643
vt 0.001519337 0.8926643
vt 0.0484217 0.8887557
vt 0.001519337 0.8887557
vt 0.0484217 0.8926643
vt 0.0484217 0.8926643
vt 0.05233023 0.9043899
vt 0.05233023 0.8926643
vt 0.0484217 0.9043899
vt 0.0484217 0.9043899
vt 0.001519337 0.8926643
vt 0.001519337 0.9043899
vt 0.0484217 0.8926643
vt 0.0484217 0.9043899
vt 0.001519337 0.9082984
vt 0.0484217 0.9082984
vt 0.001519337 0.9043899
vt 0.001519337 0.9043899
vt 0.001519337 0.8926643
vt 0.001519337 0.9043899
vt 0.001519337 0.8926643
vt 0.001519337 0.8926643
vt 0.0484217 0.8887557
vt 0.001519337 0.8887557
vt 0.0484217 0.8926643
vt 0.0484217 0.8926643
vt 0.05233023 0.9043899
vt 0.05233023 0.8926643
vt 0.0484217 0.9043899
vt 0.0484217 0.9043899
vt 0.001519337 0.8926643
vt 0.001519337 0.9043899
vt 0.0484217 0.8926643
vt 0.0484217 0.9043899
vt 0.001519337 0.9082984
vt 0.0484217 0.9082984
vt 0.001519337 0.9043899
vt 0.001519337 0.9043899
vt 0.001519337 0.8926643
vt 0.001519337 0.9043899
vt 0.001519337 0.8926643
vt 0.001519337 0.8926643
vt 0.0484217 0.8887557
vt 0.001519337 0.8887557
vt 0.0484217 0.8926643
vt 0.0484217 0.8926643
vt 0.05233023 0.9043899
vt 0.05233023 0.8926643
vt 0.0484217 0.9043899
vt 0.1500435 0.7597743
vt 0.1383179 0.7480487
vt 0.21258 0.7519572
vt 0.1500435 0.7988595
vt 0.1383179 0.8066766
vt 0.2477568 0.8066766
vt 0.2360312 0.7519572
vt 0.2477568 0.7480487
vt 0.2008544 0.7597743
vt 0.21258 0.7988595
vt 0.2360312 0.7988595
vt 0.2008544 0.7988595
vt 0.2477568 0.7480487
vt 0.2360312 0.7988595
vt 0.2360312 0.7519572
vt 0.2477568 0.8066766
vt 0.2360312 0.7988595
vt 0.2477568 0.7480487
vn 0.04761302 0.968132 0.2458728
vn 0.04761302 0.968132 0.2458728
vn 0.04761302 0.968132 0.2458728
vn 0.04761302 0.968132 0.2458728
vn 0.04761302 -0.04761302 0.9977304
vn 0.04761302 -0.04761302 0.9977304
vn 0.04761302 -0.04761302 0.9977304
vn 0.04761302 -0.04761302 0.9977304
vn 0.04761302 -0.04761302 -0.9977304
vn 0.04761302 -0.04761302 -0.9977304
vn 0.04761302 -0.04761302 -0.9977304
vn 0.04761302 -0.04761302 -0.9977304
vn 0.04761302 -0.2063232 0.9773248
vn 0.04761302 -0.2063232 0.9773248
vn 0.04761302 -0.2063232 0.9773248
vn 0.04761302 -0.2063232 0.9773248
vn 0.04761302 0.9046479 0.4234915
vn 0.04761302 0.9046479 0.4234915
vn 0.04761302 0.9046479 0.4234915
vn 0.04761302 0.9046479 0.4234915
vn 0.01587099 -0.999874 -0.000345267
vn 0.01587099 -0.999874 -0.000345267
vn 0.01587099 -0.999874 -0.000345267
vn 0.01587099 -0.999874 -0.000345267
vn 0.04761302 -0.7141957 0.6983248
vn 0.04761302 -0.7141957 0.6983248
vn 0.04761302 -0.7141957 0.6983248
vn 0.04761302 -0.7141957 0.6983248
vn 0.01587099 0.999874 -0.000345267
vn 0.01587099 0.999874 -0.000345267
vn 0.01587099 0.999874 -0.000345267
vn 0.01587099 0.999874 -0.000345267
vn -0.968132 -0.04761302 0.2458728
vn -0.968132 -0.04761302 0.2458728
vn -0.968132 -0.04761302 0.2458728
vn -0.968132 -0.04761302 0.2458728
vn 0.04761302 -0.04761302 0.9977304
vn 0.04761302 -0.04761302 0.9977304
vn 0.04761302 -0.04761302 0.9977304
vn 0.04761302 -0.04761302 0.9977304
vn 0.01587099 0.999874 -0.000345267
vn 0.01587099 0.999874 -0.000345267
vn 0.01587099 0.999874 -0.000345267
vn 0.01587099 0.999874 -0.000345267
vn 0.01587099 -0.999874 -0.000345267
vn 0.01587099 -0.999874 -0.000345267
vn 0.01587099 -0.999874 -0.000345267
vn 0.01587099 -0.999874 -0.000345267
vn 0.04761302 -0.04761302 0.9977304
vn 0.04761302 -0.04761302 0.9977304
vn 0.04761302 -0.04761302 0.9977304
vn 0.04761302 -0.04761302 0.9977304
vn 0.01587099 -0.999874 -0.000345267
vn 0.01587099 -0.999874 -0.000345267
vn 0.01587099 -0.999874 -0.000345267
vn 0.01587099 -0.999874 -0.000345267
vn 0.999874 -0.01587099 -0.000346655
vn 0.999874 -0.01587099 -0.000346655
vn 0.999874 -0.01587099 -0.000346655
vn 0.999874 -0.01587099 -0.000346655
vn 0.04761302 -0.04761302 0.9977304
vn 0.04761302 -0.04761302 0.9977304
vn 0.04761302 -0.04761302 0.9977304
vn 0.04761302 -0.04761302 0.9977304
vn 0.01587099 0.999874 -0.000345267
vn 0.01587099 0.999874 -0.000345267
vn 0.01587099 0.999874 -0.000345267
vn 0.01587099 0.999874 -0.000345267
vn 0.01587099 -0.999874 -0.000345267
vn 0.01587099 -0.999874 -0.000345267
vn 0.01587099 -0.999874 -0.000345267
vn 0.01587099 -0.999874 -0.000345267
vn 0.04761302 -0.04761302 0.9977304
vn 0.04761302 -0.04761302 0.9977304
vn 0.04761302 -0.04761302 0.9977304
vn 0.04761302 -0.04761302 0.9977304
vn -0.968132 -0.04761302 0.2458728
vn -0.968132 -0.04761302 0.2458728
vn -0.968132 -0.04761302 0.2458728
vn -0.968132 -0.04761302 0.2458728
vn 0.01587099 0.999874 -0.000345267
vn 0.01587099 0.999874 -0.000345267
vn 0.01587099 0.999874 -0.000345267
vn 0.01587099 0.999874 -0.000345267
vn 0.04761302 -0.04761302 0.9977304
vn 0.04761302 -0.04761302 0.9977304
vn 0.04761302 -0.04761302 0.9977304
vn 0.04761302 -0.04761302 0.9977304
vn 0.01587099 -0.999874 -0.000345267
vn 0.01587099 -0.999874 -0.000345267
vn 0.01587099 -0.999874 -0.000345267
vn 0.01587099 -0.999874 -0.000345267
vn 0.999874 -0.01587099 -0.000346655
vn 0.999874 -0.01587099 -0.000346655
vn 0.999874 -0.01587099 -0.000346655
vn 0.999874 -0.01587099 -0.000346655
vn 0.999874 -0.01587099 -0.000346655
vn 0.999874 -0.01587099 -0.000346655
vn 0.999874 -0.01587099 -0.000346655
vn 0.999874 -0.01587099 -0.000346655
vn 0.999874 -0.01587099 -0.000346655
vn 0.999874 -0.01587099 -0.000346655
vn -0.968132 -0.04761302 0.2458728
vn -0.968132 -0.04761302 0.2458728
vn -0.968132 -0.04761302 0.2458728
vn -0.968132 -0.04761302 0.2458728
vn -0.968132 -0.04761302 0.2458728
vn -0.968132 -0.04761302 0.2458728
vn -0.968132 -0.04761302 0.2458728
vn -0.968132 -0.04761302 0.2458728
vn -0.968132 -0.04761302 0.2458728
vn -0.968132 -0.04761302 0.2458728
vn -0.968132 -0.04761302 0.2458728
vn -0.968132 -0.04761302 0.2458728
vn 0.999874 -0.01587099 -0.000346655
vn 0.999874 -0.01587099 -0.000346655
vn 0.999874 -0.01587099 -0.000346655
vn 0.999874 -0.01587099 -0.000346655
vn 0.01587099 -0.999874 -0.000345267
vn 0.01587099 -0.999874 -0.000345267
vn 0.01587099 -0.999874 -0.000345267
vn 0.01587099 -0.999874 -0.000345267
vn 0.999874 -0.01587099 -0.000346655
vn 0.999874 -0.01587099 -0.000346655
vn 0.999874 -0.01587099 -0.000346655
vn 0.999874 -0.01587099 -0.000346655
vn -0.968132 -0.04761302 0.2458728
vn -0.968132 -0.04761302 0.2458728
vn -0.968132 -0.04761302 0.2458728
vn -0.968132 -0.04761302 0.2458728
vn 0.04761302 -0.04761302 0.9977304
vn 0.04761302 -0.04761302 0.9977304
vn 0.04761302 -0.04761302 0.9977304
vn 0.04761302 -0.04761302 0.9977304
vn 0.04761302 -0.04761302 0.9977304
vn 0.04761302 -0.04761302 0.9977304
vn 0.04761302 -0.04761302 0.9977304
vn 0.04761302 -0.04761302 0.9977304
vn 0.04761302 -0.04761302 0.9977304
vn 0.04761302 -0.04761302 0.9977304
vn 0.04761302 -0.04761302 0.9977304
vn 0.04761302 -0.04761302 0.9977304
vn 0.04761302 -0.04761302 0.9977304
vn 0.04761302 -0.04761302 0.9977304
vn 0.04761302 -0.04761302 0.9977304
vn 0.04761302 -0.04761302 0.9977304
vn -0.968132 -0.04761302 0.2458728
vn -0.968132 -0.04761302 0.2458728
vn -0.968132 -0.04761302 0.2458728
vn -0.968132 -0.04761302 0.2458728
vn 0.01587099 0.999874 -0.000345267
vn 0.01587099 0.999874 -0.000345267
vn 0.01587099 0.999874 -0.000345267
vn 0.01587099 0.999874 -0.000345267
vn 0.999874 -0.01587099 -0.000346655
vn 0.999874 -0.01587099 -0.000346655
vn 0.999874 -0.01587099 -0.000346655
vn 0.999874 -0.01587099 -0.000346655
vn 0.999874 -0.01587099 -0.000346655
vn 0.999874 -0.01587099 -0.000346655
vn 0.999874 -0.01587099 -0.000346655
vn 0.999874 -0.01587099 -0.000346655
vn -0.968132 -0.04761302 0.2458728
vn -0.968132 -0.04761302 0.2458728
vn -0.968132 -0.04761302 0.2458728
vn -0.968132 -0.04761302 0.2458728
vn 0.04761302 -0.04761302 0.9977304
vn 0.04761302 -0.04761302 0.9977304
vn 0.04761302 -0.04761302 0.9977304
vn 0.04761302 -0.04761302 0.9977304
vn 0.01587099 -0.999874 -0.000345267
vn 0.01587099 -0.999874 -0.000345267
vn 0.01587099 -0.999874 -0.000345267
vn 0.01587099 -0.999874 -0.000345267
vn 0.999874 -0.01587099 -0.000346655
vn 0.999874 -0.01587099 -0.000346655
vn 0.999874 -0.01587099 -0.000346655
vn 0.999874 -0.01587099 -0.000346655
vn 0.01587099 0.999874 -0.000345267
vn 0.01587099 0.999874 -0.000345267
vn 0.01587099 0.999874 -0.000345267
vn 0.01587099 0.999874 -0.000345267
vn -0.968132 -0.04761302 0.2458728
vn -0.968132 -0.04761302 0.2458728
vn -0.968132 -0.04761302 0.2458728
vn -0.968132 -0.04761302 0.2458728
vn 0.04761302 -0.04761302 0.9977304
vn 0.04761302 -0.04761302 0.9977304
vn 0.04761302 -0.04761302 0.9977304
vn 0.04761302 -0.04761302 0.9977304
vn 0.01587099 -0.999874 -0.000345267
vn 0.01587099 -0.999874 -0.000345267
vn 0.01587099 -0.999874 -0.000345267
vn 0.01587099 -0.999874 -0.000345267
vn 0.999874 -0.01587099 -0.000346655
vn 0.999874 -0.01587099 -0.000346655
vn 0.999874 -0.01587099 -0.000346655
vn 0.999874 -0.01587099 -0.000346655
vn 0.01587099 0.999874 -0.000345267
vn 0.01587099 0.999874 -0.000345267
vn 0.01587099 0.999874 -0.000345267
vn 0.01587099 0.999874 -0.000345267
vn -0.968132 -0.04761302 0.2458728
vn -0.968132 -0.04761302 0.2458728
vn -0.968132 -0.04761302 0.2458728
vn -0.968132 -0.04761302 0.2458728
vn 0.04761302 -0.04761302 0.9977304
vn 0.04761302 -0.04761302 0.9977304
vn 0.04761302 -0.04761302 0.9977304
vn 0.04761302 -0.04761302 0.9977304
vn 0.01587099 -0.999874 -0.000345267
vn 0.01587099 -0.999874 -0.000345267
vn 0.01587099 -0.999874 -0.000345267
vn 0.01587099 -0.999874 -0.000345267
vn 0.999874 -0.01587099 -0.000346655
vn 0.999874 -0.01587099 -0.000346655
vn 0.999874 -0.01587099 -0.000346655
vn 0.999874 -0.01587099 -0.000346655
vn 0.01587099 0.999874 -0.000345267
vn 0.01587099 0.999874 -0.000345267
vn 0.01587099 0.999874 -0.000345267
vn 0.01587099 0.999874 -0.000345267
vn -0.968132 -0.04761302 0.2458728
vn -0.968132 -0.04761302 0.2458728
vn -0.968132 -0.04761302 0.2458728
vn -0.968132 -0.04761302 0.2458728
vn 0.04761302 -0.04761302 0.9977304
vn 0.04761302 -0.04761302 0.9977304
vn 0.04761302 -0.04761302 0.9977304
vn 0.04761302 -0.04761302 0.9977304
vn 0.04761302 -0.04761302 0.9977304
vn 0.04761302 -0.04761302 0.9977304
vn 0.04761302 -0.04761302 0.9977304
vn 0.04761302 -0.04761302 0.9977304
vn 0.04761302 -0.04761302 0.9977304
vn 0.04761302 -0.04761302 0.9977304
vn 0.04761302 -0.04761302 0.9977304
vn 0.04761302 -0.04761302 0.9977304
vn 0.04761302 -0.04761302 0.9977304
vn 0.04761302 -0.04761302 0.9977304
vn 0.04761302 -0.04761302 0.9977304
vn 0.04761302 -0.04761302 0.9977304
vn 0.04761302 -0.04761302 0.9977304
vn 0.04761302 -0.04761302 0.9977304
g DSJ_GTA_diLou_3_0
f 3/3/3 2/2/2 1/1/1
f 4/4/4 1/1/1 2/2/2
f 7/7/7 6/6/6 5/5/5
f 8/8/8 5/5/5 6/6/6
f 11/11/11 10/10/10 9/9/9
f 12/12/12 9/9/9 10/10/10
f 15/15/15 14/14/14 13/13/13
f 16/16/16 13/13/13 14/14/14
f 19/19/19 18/18/18 17/17/17
f 20/20/20 17/17/17 18/18/18
f 23/23/23 22/22/22 21/21/21
f 24/24/24 21/21/21 22/22/22
f 27/27/27 26/26/26 25/25/25
f 28/28/28 25/25/25 26/26/26
f 31/31/31 30/30/30 29/29/29
f 32/32/32 29/29/29 30/30/30
f 35/35/35 34/34/34 33/33/33
f 36/36/36 33/33/33 34/34/34
f 39/39/39 38/38/38 37/37/37
f 40/40/40 37/37/37 38/38/38
f 43/43/43 42/42/42 41/41/41
f 44/44/44 41/41/41 42/42/42
f 47/47/47 46/46/46 45/45/45
f 48/48/48 45/45/45 46/46/46
f 51/51/51 50/50/50 49/49/49
f 52/52/52 49/49/49 50/50/50
f 55/55/55 54/54/54 53/53/53
f 56/56/56 53/53/53 54/54/54
f 59/59/59 58/58/58 57/57/57
f 60/60/60 57/57/57 58/58/58
f 63/63/63 62/62/62 61/61/61
f 64/64/64 61/61/61 62/62/62
f 67/67/67 66/66/66 65/65/65
f 68/68/68 65/65/65 66/66/66
f 71/71/71 70/70/70 69/69/69
f 72/72/72 69/69/69 70/70/70
f 75/75/75 74/74/74 73/73/73
f 76/76/76 73/73/73 74/74/74
f 79/79/79 78/78/78 77/77/77
f 80/80/80 77/77/77 78/78/78
f 83/83/83 82/82/82 81/81/81
f 84/84/84 81/81/81 82/82/82
f 87/87/87 86/86/86 85/85/85
f 88/88/88 85/85/85 86/86/86
f 91/91/91 90/90/90 89/89/89
f 92/92/92 89/89/89 90/90/90
f 95/95/95 94/94/94 93/93/93
f 94/94/94 96/96/96 93/93/93
f 97/97/97 96/96/96 94/94/94
f 98/98/98 97/97/97 94/94/94
f 99/99/99 98/98/98 94/94/94
f 100/100/100 98/98/98 99/99/99
f 96/96/96 101/101/101 93/93/93
f 101/101/101 102/102/102 93/93/93
f 105/105/105 104/104/104 103/103/103
f 104/104/104 106/106/106 103/103/103
f 103/103/103 106/106/106 107/107/107
f 107/107/107 106/106/106 108/108/108
f 106/106/106 109/109/109 108/108/108
f 108/108/108 109/109/109 110/110/110
f 109/109/109 111/111/111 110/110/110
f 114/114/114 113/113/113 112/112/112
f 117/117/117 116/116/116 115/115/115
f 118/118/118 115/115/115 116/116/116
f 121/121/121 120/120/120 119/119/119
f 122/122/122 119/119/119 120/120/120
f 125/125/125 124/124/124 123/123/123
f 126/126/126 123/123/123 124/124/124
f 129/129/129 128/128/128 127/127/127
f 130/130/130 127/127/127 128/128/128
f 133/133/133 132/132/132 131/131/131
f 131/131/131 132/132/132 134/134/134
f 134/134/134 132/132/132 135/135/135
f 132/132/132 136/136/136 135/135/135
f 135/135/135 136/136/136 137/137/137
f 136/136/136 138/138/138 137/137/137
f 133/133/133 139/139/139 132/132/132
f 139/139/139 140/140/140 132/132/132
f 132/132/132 140/140/140 141/141/141
f 140/140/140 142/142/142 141/141/141
f 141/141/141 142/142/142 138/138/138
f 142/142/142 143/143/143 138/138/138
f 143/143/143 144/144/144 138/138/138
f 140/140/140 139/139/139 144/144/144
f 139/139/139 145/145/145 144/144/144
f 144/144/144 145/145/145 138/138/138
f 145/145/145 146/146/146 138/138/138
f 138/138/138 146/146/146 137/137/137
f 133/133/133 131/131/131 146/146/146
f 146/146/146 131/131/131 137/137/137
f 149/149/149 148/148/148 147/147/147
f 150/150/150 147/147/147 148/148/148
f 153/153/153 152/152/152 151/151/151
f 154/154/154 151/151/151 152/152/152
f 157/157/157 156/156/156 155/155/155
f 158/158/158 155/155/155 156/156/156
f 161/161/161 160/160/160 159/159/159
f 162/162/162 159/159/159 160/160/160
f 165/165/165 164/164/164 163/163/163
f 166/166/166 163/163/163 164/164/164
f 169/169/169 168/168/168 167/167/167
f 170/170/170 167/167/167 168/168/168
f 173/173/173 172/172/172 171/171/171
f 174/174/174 171/171/171 172/172/172
f 177/177/177 176/176/176 175/175/175
f 178/178/178 175/175/175 176/176/176
f 181/181/181 180/180/180 179/179/179
f 182/182/182 179/179/179 180/180/180
f 185/185/185 184/184/184 183/183/183
f 186/186/186 183/183/183 184/184/184
f 189/189/189 188/188/188 187/187/187
f 190/190/190 187/187/187 188/188/188
f 193/193/193 192/192/192 191/191/191
f 194/194/194 191/191/191 192/192/192
f 197/197/197 196/196/196 195/195/195
f 198/198/198 195/195/195 196/196/196
f 201/201/201 200/200/200 199/199/199
f 202/202/202 199/199/199 200/200/200
f 205/205/205 204/204/204 203/203/203
f 206/206/206 203/203/203 204/204/204
f 209/209/209 208/208/208 207/207/207
f 210/210/210 207/207/207 208/208/208
f 213/213/213 212/212/212 211/211/211
f 214/214/214 211/211/211 212/212/212
f 217/217/217 216/216/216 215/215/215
f 218/218/218 215/215/215 216/216/216
f 221/221/221 220/220/220 219/219/219
f 222/222/222 219/219/219 220/220/220
f 225/225/225 224/224/224 223/223/223
f 226/226/226 223/223/223 224/224/224
f 229/229/229 228/228/228 227/227/227
f 227/227/227 228/228/228 230/230/230
f 228/228/228 231/231/231 230/230/230
f 231/231/231 232/232/232 230/230/230
f 229/229/229 233/233/233 228/228/228
f 228/228/228 233/233/233 234/234/234
f 227/227/227 235/235/235 229/229/229
f 229/229/229 235/235/235 236/236/236
f 237/237/237 236/236/236 232/232/232
f 235/235/235 238/238/238 236/236/236
f 236/236/236 238/238/238 232/232/232
f 232/232/232 238/238/238 230/230/230
f 241/241/241 240/240/240 239/239/239
f 244/244/244 243/243/243 242/242/242
