g DSJ_GTA_daoJu_weiQiang_10
v -0.5700434 3.237279 -0.09037566
v -1.2605 0.01151812 -0.09037566
v -0.2030326 2.46498 -0.0903815
v -1.2605 4.202208 -0.09037566
v -0.794696 4.202208 -0.09037566
v -0.2343363 3.654742 -0.09037566
v 0.07271636 1.852527 -0.09037566
v 1.248629 0.01151812 -0.09037566
v 0.7258267 1.85966 -0.09037566
v -1.2605 0.01151812 0.08701384
v -0.4326261 3.237279 0.08701384
v -0.2030326 2.46498 0.08701384
v -1.2605 4.202208 0.08701384
v -0.7481712 4.202208 0.08701384
v -0.2343363 3.654742 0.08701384
v 0.2561719 1.91184 0.08701384
v 1.499053 0.01151812 0.08701384
v 0.7258267 1.85966 0.08701384
v -0.4326261 3.237279 0.08701384
v -0.2030326 2.46498 -0.0903815
v -0.2030326 2.46498 0.08701384
v -0.5700434 3.237279 -0.09037566
v -0.2343363 3.654742 0.08701384
v -0.2343363 3.654742 -0.09037566
v 0.07271636 1.852527 -0.09037566
v -0.7481712 4.202208 0.08701384
v -0.2343363 3.654742 -0.09037566
v -0.2343363 3.654742 0.08701384
v -0.794696 4.202208 -0.09037566
v -0.2030326 2.46498 0.08701384
v 0.07271636 1.852527 -0.09037566
v 0.2561719 1.91184 0.08701384
v 0.2561719 1.91184 0.08701384
v 0.7258267 1.85966 -0.09037566
v 0.7258267 1.85966 0.08701384
v 0.07271636 1.852527 -0.09037566
v 0.7258267 1.85966 0.08701384
v 1.248629 0.01151812 -0.09037566
v 1.499053 0.01151812 0.08701384
v 1.248629 0.01151812 -0.09037566
v 0.7258267 1.85966 0.08701384
v 0.7258267 1.85966 -0.09037566
v -1.408831 4.485564 0.1284688
v -0.9662596 0.01151228 0.1284688
v -1.408831 0.01151228 0.1284688
v -0.9662596 4.485564 0.1284688
v -1.408831 4.485564 -0.1284839
v -1.408831 0.01151228 0.1284688
v -1.408831 0.01151228 -0.1284839
v -1.408831 4.485564 0.1284688
v -1.408831 4.485564 -0.1284839
v -0.9662596 0.01151228 -0.1284839
v -0.9662596 4.485564 -0.1284839
v -1.408831 0.01151228 -0.1284839
v -0.9662596 0.01151228 -0.1284839
v -0.9662596 4.485564 0.1284688
v -0.9662596 4.485564 -0.1284839
v -0.9662596 0.01151228 0.1284688
v -1.408831 4.485564 0.1284688
v -0.9662596 4.485564 -0.1284839
v -0.9662596 4.485564 0.1284688
v -1.408831 4.485564 -0.1284839
v -1.499049 4.646654 0.1808546
v -0.876047 4.402736 0.1808546
v -1.499049 4.402736 0.1808546
v -0.876047 4.646654 0.1808546
v -1.499049 4.64666 -0.1808404
v -1.499049 4.402736 0.1808546
v -1.499049 4.402736 -0.1808404
v -1.499049 4.646654 0.1808546
v -1.499049 4.64666 -0.1808404
v -0.876047 4.402736 -0.1808404
v -0.876047 4.64666 -0.1808404
v -1.499049 4.402736 -0.1808404
v -0.876047 4.402736 -0.1808404
v -0.876047 4.646654 0.1808546
v -0.876047 4.64666 -0.1808404
v -0.876047 4.402736 0.1808546
v -1.499049 4.646654 0.1808546
v -0.876047 4.64666 -0.1808404
v -0.876047 4.646654 0.1808546
v -1.499049 4.64666 -0.1808404
v -1.499049 4.402736 0.1808546
v -0.876047 4.402736 -0.1808404
v -1.499049 4.402736 -0.1808404
v -0.876047 4.402736 0.1808546
v -1.415887 4.306217 0.3054304
v -0.6299723 4.098192 0.3054304
v -1.415887 4.098192 0.3054304
v -0.725835 4.306217 0.3054304
v -1.415887 4.306217 -0.3054514
v -0.725835 4.306217 0.3054304
v -1.415887 4.306217 0.3054304
v -0.8707603 4.306217 -0.3054514
v -1.415887 4.098192 -0.3054514
v -0.8707603 4.306217 -0.3054514
v -1.415887 4.306217 -0.3054514
v -0.5770179 4.098192 -0.3054514
v -1.415887 4.098192 0.3054304
v -0.5770179 4.098192 -0.3054514
v -1.415887 4.098192 -0.3054514
v -0.6299723 4.098192 0.3054304
v -0.6299723 4.098192 0.3054304
v -0.725835 4.306217 0.3054304
v -0.8707603 4.306217 -0.3054514
v -0.5770179 4.098192 -0.3054514
vt 0.2745343 0.2168709
vt 0.2592974 0.1539796
vt 0.2826331 0.2018127
vt 0.2592974 0.2356936
vt 0.2695745 0.2356936
vt 0.2819405 0.2250144
vt 0.2887099 0.1898712
vt 0.3146484 0.1539796
vt 0.3031202 0.1900164
vt 0.2592974 0.1539796
vt 0.2775615 0.2168709
vt 0.2826331 0.2018127
vt 0.2592974 0.2356936
vt 0.2706022 0.2356936
vt 0.2819405 0.2250144
vt 0.2927538 0.191033
vt 0.3201779 0.1539796
vt 0.3031202 0.1900164
vt 0.3206024 0.2451999
vt 0.3355153 0.2555328
vt 0.3355153 0.2451999
vt 0.3206024 0.2555328
vt 0.3060693 0.2451999
vt 0.3060693 0.2555328
vt 0.3544721 0.2555328
vt 0.288062 0.2451999
vt 0.3060693 0.2555328
vt 0.3060693 0.2451999
vt 0.288062 0.2555328
vt 0.3355153 0.2451999
vt 0.3544721 0.2555328
vt 0.3544721 0.2451999
vt 0.3544721 0.2451999
vt 0.3701446 0.2555328
vt 0.3701446 0.2451999
vt 0.3544721 0.2555328
vt 0.3701446 0.2451999
vt 0.403735 0.2555328
vt 0.403735 0.2451999
vt 0.403735 0.2555328
vt 0.3701446 0.2451999
vt 0.3701446 0.2555328
vt 0.4759874 0.2940831
vt 0.49147 0.1375363
vt 0.4759874 0.1375363
vt 0.49147 0.2940831
vt 0.4669949 0.2940831
vt 0.4759874 0.1375363
vt 0.4669949 0.1375363
vt 0.4759874 0.2940831
vt 0.4669949 0.2940831
vt 0.4515011 0.1375363
vt 0.4515011 0.2940831
vt 0.4669949 0.1375363
vt 0.5004625 0.1375363
vt 0.49147 0.2940831
vt 0.5004625 0.2940831
vt 0.49147 0.1375363
vt 0.4435029 0.2035107
vt 0.4631299 0.2149048
vt 0.4631299 0.2035107
vt 0.4435029 0.2149048
vt 0.4753172 0.2360399
vt 0.4927882 0.2275725
vt 0.4753172 0.2275725
vt 0.4927882 0.2360399
vt 0.4669949 0.2360399
vt 0.4753172 0.2275725
vt 0.4669949 0.2275725
vt 0.4753172 0.2360399
vt 0.4669949 0.2360399
vt 0.4470775 0.2275725
vt 0.4470775 0.2360399
vt 0.4669949 0.2275725
vt 0.5035568 0.2275725
vt 0.4927882 0.2360399
vt 0.5035568 0.2360399
vt 0.4927882 0.2275725
vt 0.4395038 0.2011872
vt 0.467129 0.2172284
vt 0.467129 0.2011872
vt 0.4395038 0.2172284
vt 0.4395038 0.2011872
vt 0.467129 0.2172284
vt 0.4395038 0.2172284
vt 0.467129 0.2011872
vt 0.494408 0.2939937
vt 0.5005965 0.2706133
vt 0.5005965 0.2939937
vt 0.494408 0.2734619
vt 0.4762332 0.2939937
vt 0.494408 0.2734619
vt 0.494408 0.2939937
vt 0.4762332 0.2777738
vt 0.4700334 0.2940049
vt 0.4762332 0.2777738
vt 0.4762332 0.2939937
vt 0.4700334 0.2690383
vt 0.4518586 0.2940049
vt 0.4700334 0.2690383
vt 0.4700334 0.2940049
vt 0.4518586 0.2706133
vt 0.3724681 0.2485846
vt 0.3733618 0.2543488
vt 0.3885764 0.2519359
vt 0.387504 0.2454792
vn 0.01176465 -0.01176465 -0.9998616
vn 0.01176465 -0.01176465 -0.9998616
vn 0.01176465 -0.01176465 -0.9998616
vn 0.01176465 -0.01176465 -0.9998616
vn 0.01176465 -0.01176465 -0.9998616
vn 0.01176465 -0.01176465 -0.9998616
vn 0.01176465 -0.01176465 -0.9998616
vn 0.01176465 -0.01176465 -0.9998616
vn 0.01176465 -0.01176465 -0.9998616
vn 0.01176465 -0.01176465 0.9998616
vn 0.01176465 -0.01176465 0.9998616
vn 0.01176465 -0.01176465 0.9998616
vn 0.01176465 -0.01176465 0.9998616
vn 0.01176465 -0.01176465 0.9998616
vn 0.01176465 -0.01176465 0.9998616
vn 0.01176465 -0.01176465 0.9998616
vn 0.01176465 -0.01176465 0.9998616
vn 0.01176465 -0.01176465 0.9998616
vn 0.8274447 -0.01960772 -0.5612049
vn 0.9371325 0.348974 0
vn 0.9430625 0.3326154 0
vn 0.8431308 -0.03529388 -0.5365489
vn 0.8078914 -0.5893314 0
vn 0.7774268 -0.6289734 0
vn 0.9158888 0.401432 0
vn 0.7097985 0.7019553 -0.05869259
vn 0.7301458 0.6832914 0
vn 0.73764 0.6751943 0
vn 0.7019554 0.7019553 -0.1204877
vn 0.552937 0.4431338 -0.7056154
vn 0.552937 0.4431338 -0.7056154
vn 0.552937 0.4431338 -0.7056154
vn 0.01960772 0.9607769 -0.2766283
vn 0.09803849 0.9921492 -0.07764248
vn 0.1215677 0.9921492 -0.02934566
vn -0.003921509 0.9450908 -0.3267844
vn 0.5764662 0.2313707 -0.78368
vn 0.5764662 0.2313707 -0.78368
vn 0.5764662 0.2313707 -0.78368
vn 0.9651236 0.2617946 0
vn 0.9651236 0.2617946 0
vn 0.9651236 0.2617946 0
vn 0.01176465 -0.01176465 0.9998616
vn 0.01176465 -0.01176465 0.9998616
vn 0.01176465 -0.01176465 0.9998616
vn 0.01176465 -0.01176465 0.9998616
vn -0.9999923 -0.003921568 -0.0003442513
vn -0.9999923 -0.003921568 -0.0003442513
vn -0.9999923 -0.003921568 -0.0003442513
vn -0.9999923 -0.003921568 -0.0003442513
vn 0.01176465 -0.01176465 -0.9998616
vn 0.01176465 -0.01176465 -0.9998616
vn 0.01176465 -0.01176465 -0.9998616
vn 0.01176465 -0.01176465 -0.9998616
vn 0.9999924 -0.003921568 0
vn 0.9999924 -0.003921568 0
vn 0.9999924 -0.003921568 0
vn 0.9999924 -0.003921568 0
vn 0.003921568 0.9999923 -0.000345267
vn 0.003921568 0.9999923 -0.000345267
vn 0.003921568 0.9999923 -0.000345267
vn 0.003921568 0.9999923 -0.000345267
vn 0.01176465 -0.01176465 0.9998616
vn 0.01176465 -0.01176465 0.9998616
vn 0.01176465 -0.01176465 0.9998616
vn 0.01176465 -0.01176465 0.9998616
vn -0.9999923 -0.003921568 -0.0003442513
vn -0.9999923 -0.003921568 -0.0003442513
vn -0.9999923 -0.003921568 -0.0003442513
vn -0.9999923 -0.003921568 -0.0003442513
vn 0.01176465 -0.01176465 -0.9998616
vn 0.01176465 -0.01176465 -0.9998616
vn 0.01176465 -0.01176465 -0.9998616
vn 0.01176465 -0.01176465 -0.9998616
vn 0.9999924 -0.003921568 0
vn 0.9999924 -0.003921568 0
vn 0.9999924 -0.003921568 0
vn 0.9999924 -0.003921568 0
vn 0.003921568 0.9999923 -0.000345267
vn 0.003921568 0.9999923 -0.000345267
vn 0.003921568 0.9999923 -0.000345267
vn 0.003921568 0.9999923 -0.000345267
vn 0.003921568 -0.9999924 0
vn 0.003921568 -0.9999924 0
vn 0.003921568 -0.9999924 0
vn 0.003921568 -0.9999924 0
vn 0.01176465 -0.01176465 0.9998616
vn 0.01176465 -0.01176465 0.9998616
vn 0.01176465 -0.01176465 0.9998616
vn 0.01176465 -0.01176465 0.9998616
vn 0.003921568 0.9999923 -0.000345267
vn 0.003921568 0.9999923 -0.000345267
vn 0.003921568 0.9999923 -0.000345267
vn 0.003921568 0.9999923 -0.000345267
vn 0.01176465 -0.01176465 -0.9998616
vn 0.01176465 -0.01176465 -0.9998616
vn 0.01176465 -0.01176465 -0.9998616
vn 0.01176465 -0.01176465 -0.9998616
vn 0.003921568 -0.9999924 0
vn 0.003921568 -0.9999924 0
vn 0.003921568 -0.9999924 0
vn 0.003921568 -0.9999924 0
vn 0.8274447 0.5607799 -0.02934617
vn 0.8980324 0.4039184 -0.1743211
vn 0.6784262 0.7333276 -0.04436714
vn 0.5843093 0.8039154 -0.1109178
g DSJ_GTA_daoJu_weiQiang_10_0
f 3/3/3 2/2/2 1/1/1
f 4/4/4 1/1/1 2/2/2
f 4/4/4 5/5/5 1/1/1
f 6/6/6 1/1/1 5/5/5
f 7/7/7 2/2/2 3/3/3
f 2/2/2 7/7/7 8/8/8
f 9/9/9 8/8/8 7/7/7
f 12/12/12 11/11/11 10/10/10
f 13/13/13 10/10/10 11/11/11
f 13/13/13 11/11/11 14/14/14
f 15/15/15 14/14/14 11/11/11
f 16/16/16 12/12/12 10/10/10
f 10/10/10 17/17/17 16/16/16
f 18/18/18 16/16/16 17/17/17
f 21/21/21 20/20/20 19/19/19
f 22/22/22 19/19/19 20/20/20
f 19/19/19 22/22/22 23/23/23
f 24/24/24 23/23/23 22/22/22
f 20/20/20 21/21/21 25/25/25
f 28/28/28 27/27/27 26/26/26
f 29/29/29 26/26/26 27/27/27
f 32/32/32 31/31/31 30/30/30
f 35/35/35 34/34/34 33/33/33
f 36/36/36 33/33/33 34/34/34
f 39/39/39 38/38/38 37/37/37
f 42/42/42 41/41/41 40/40/40
f 45/45/45 44/44/44 43/43/43
f 46/46/46 43/43/43 44/44/44
f 49/49/49 48/48/48 47/47/47
f 50/50/50 47/47/47 48/48/48
f 53/53/53 52/52/52 51/51/51
f 54/54/54 51/51/51 52/52/52
f 57/57/57 56/56/56 55/55/55
f 58/58/58 55/55/55 56/56/56
f 61/61/61 60/60/60 59/59/59
f 62/62/62 59/59/59 60/60/60
f 65/65/65 64/64/64 63/63/63
f 66/66/66 63/63/63 64/64/64
f 69/69/69 68/68/68 67/67/67
f 70/70/70 67/67/67 68/68/68
f 73/73/73 72/72/72 71/71/71
f 74/74/74 71/71/71 72/72/72
f 77/77/77 76/76/76 75/75/75
f 78/78/78 75/75/75 76/76/76
f 81/81/81 80/80/80 79/79/79
f 82/82/82 79/79/79 80/80/80
f 85/85/85 84/84/84 83/83/83
f 86/86/86 83/83/83 84/84/84
f 89/89/89 88/88/88 87/87/87
f 90/90/90 87/87/87 88/88/88
f 93/93/93 92/92/92 91/91/91
f 94/94/94 91/91/91 92/92/92
f 97/97/97 96/96/96 95/95/95
f 98/98/98 95/95/95 96/96/96
f 101/101/101 100/100/100 99/99/99
f 102/102/102 99/99/99 100/100/100
f 105/105/105 104/104/104 103/103/103
f 106/106/106 105/105/105 103/103/103
