g DSJ_GTA_daoJu_huaTan_24
v -1.195244 0.008619785 6.8792
v 1.195258 1.464554 6.8792
v 1.195258 0.008619785 6.8792
v -1.195244 1.464554 6.8792
v -1.097148 1.705142 6.71173
v 1.097176 1.705142 -1.382828E-05
v 1.097176 1.705142 6.71173
v -1.097148 1.705142 -1.382828E-05
v -1.195244 1.464554 -6.879228
v 1.195258 0.008619785 -6.879228
v 1.195258 1.464554 -6.879228
v -1.195244 0.008619785 -6.879228
v 1.195258 0.008619785 6.8792
v 1.195258 1.464554 -1.382828E-05
v 1.195258 0.008619785 -1.382828E-05
v 1.195258 1.464554 6.8792
v -1.195244 0.008619785 -1.382828E-05
v -1.195244 1.464554 6.8792
v -1.195244 0.008619785 6.8792
v -1.195244 1.464554 -1.382828E-05
v -1.195244 1.464554 6.8792
v 1.591022 1.464554 7.324195
v 1.195258 1.464554 6.8792
v -1.590995 1.464554 7.324195
v 1.591022 1.464554 -1.382828E-05
v 1.195258 1.464554 -1.382828E-05
v -1.195244 1.464554 -1.382828E-05
v -1.590995 1.464554 -1.382828E-05
v 1.195258 1.464554 -6.879228
v 1.591022 1.464554 -7.324209
v -1.590995 1.464554 -7.324209
v -1.195244 1.464554 -6.879228
v -1.590995 1.464554 7.324195
v 1.591022 1.983673 7.324195
v 1.591022 1.464554 7.324195
v -1.590995 1.983673 7.324195
v 1.591022 1.464554 7.324195
v 1.591022 1.983673 -1.382828E-05
v 1.591022 1.464554 -1.382828E-05
v 1.591022 1.983673 7.324195
v 1.591022 1.464554 -7.324209
v -1.590995 1.983673 -7.324209
v -1.590995 1.464554 -7.324209
v 1.591022 1.983673 -7.324209
v -1.590995 1.464554 -1.382828E-05
v -1.590995 1.983673 7.324195
v -1.590995 1.464554 7.324195
v -1.590995 1.983673 -1.382828E-05
v -1.590995 1.983673 7.324195
v 1.097176 1.983673 6.71173
v 1.591022 1.983673 7.324195
v -1.097148 1.983673 6.71173
v 1.591022 1.983673 7.324195
v 1.097176 1.983673 -1.382828E-05
v 1.591022 1.983673 -1.382828E-05
v 1.097176 1.983673 6.71173
v 1.591022 1.983673 -7.324209
v -1.097148 1.983673 -6.711758
v -1.590995 1.983673 -7.324209
v 1.097176 1.983673 -6.711758
v -1.590995 1.983673 -1.382828E-05
v -1.097148 1.983673 6.71173
v -1.590995 1.983673 7.324195
v -1.097148 1.983673 -1.382828E-05
v -1.097148 1.983673 6.71173
v 1.097176 1.705142 6.71173
v 1.097176 1.983673 6.71173
v -1.097148 1.705142 6.71173
v 1.097176 1.983673 6.71173
v 1.097176 1.705142 -1.382828E-05
v 1.097176 1.983673 -1.382828E-05
v 1.097176 1.705142 6.71173
v 1.097176 1.983673 -6.711758
v 1.097176 1.705142 -6.711758
v 1.097176 1.983673 -6.711758
v -1.097148 1.705142 -6.711758
v -1.097148 1.983673 -6.711758
v 1.097176 1.705142 -6.711758
v -1.097148 1.983673 -1.382828E-05
v -1.097148 1.705142 6.71173
v -1.097148 1.983673 6.71173
v -1.097148 1.705142 -1.382828E-05
v -1.097148 1.983673 -6.711758
v -1.097148 1.705142 -6.711758
v 1.195258 0.008619785 -1.382828E-05
v 1.195258 1.464554 -6.879228
v 1.195258 0.008619785 -6.879228
v 1.195258 1.464554 -1.382828E-05
v 1.591022 1.983673 -1.382828E-05
v 1.591022 1.464554 -7.324209
v 1.591022 1.464554 -1.382828E-05
v 1.591022 1.983673 -7.324209
v 1.097176 1.983673 -1.382828E-05
v 1.591022 1.983673 -7.324209
v 1.591022 1.983673 -1.382828E-05
v 1.097176 1.983673 -6.711758
v -1.097148 1.705142 -1.382828E-05
v 1.097176 1.705142 -6.711758
v 1.097176 1.705142 -1.382828E-05
v -1.097148 1.705142 -6.711758
v -1.590995 1.983673 -7.324209
v -1.097148 1.983673 -1.382828E-05
v -1.590995 1.983673 -1.382828E-05
v -1.097148 1.983673 -6.711758
v -1.590995 1.464554 -7.324209
v -1.590995 1.983673 -1.382828E-05
v -1.590995 1.464554 -1.382828E-05
v -1.590995 1.983673 -7.324209
v -1.195244 0.008619785 -6.879228
v -1.195244 1.464554 -1.382828E-05
v -1.195244 0.008619785 -1.382828E-05
v -1.195244 1.464554 -6.879228
vt 0.3077573 0.8268068
vt 0.2867835 0.7815186
vt 0.3077455 0.7815186
vt 0.2868071 0.8268068
vt 0.2374018 0.4230833
vt 0.4830519 0.509025
vt 0.2374018 0.509025
vt 0.4830519 0.4230833
vt 0.2868071 0.8268068
vt 0.3077573 0.8720832
vt 0.2868071 0.8720832
vt 0.3077573 0.8268068
vt 0.3077455 0.8720832
vt 0.2868071 0.9710938
vt 0.3077573 0.971082
vt 0.2867835 0.8720832
vt 0.3077573 0.9257938
vt 0.2868071 0.8268068
vt 0.3077573 0.8268068
vt 0.2868071 0.9257938
vt 0.2327318 0.7317134
vt 0.2001949 0.7356541
vt 0.204806 0.7317134
vt 0.237343 0.7356541
vt 0.2001949 0.6706626
vt 0.204806 0.6706626
vt 0.2327318 0.6706626
vt 0.237343 0.6706626
vt 0.204806 0.6096353
vt 0.2001949 0.6056947
vt 0.237343 0.6056947
vt 0.2327318 0.6096353
vt 0.2233095 0.6400666
vt 0.2184748 0.6010011
vt 0.2233213 0.6010247
vt 0.2184631 0.6400666
vt 0.2233448 0.6791086
vt 0.2184631 0.7473937
vt 0.2233095 0.7473937
vt 0.2185219 0.6790968
vt 0.223286 0.6790968
vt 0.218416 0.6400666
vt 0.2232624 0.6400666
vt 0.2184395 0.6791086
vt 0.2232624 0.7083518
vt 0.2184631 0.6400666
vt 0.2233095 0.6400666
vt 0.218416 0.7083518
vt 0.2043473 0.6259861
vt 0.2166163 0.696918
vt 0.2043473 0.709928
vt 0.2166163 0.6390079
vt 0.2042414 0.7456293
vt 0.217275 0.598825
vt 0.2042414 0.598825
vt 0.217275 0.7333485
vt 0.2040179 0.709928
vt 0.2162987 0.6390079
vt 0.2040179 0.6259861
vt 0.2162987 0.696918
vt 0.2039473 0.598825
vt 0.2169574 0.7333485
vt 0.2039473 0.7456293
vt 0.2169574 0.598825
vt 0.2196041 0.6233512
vt 0.2222038 0.5964252
vt 0.2196041 0.5964252
vt 0.2222038 0.6233512
vt 0.219557 0.5964252
vt 0.2221802 0.6589935
vt 0.2195806 0.6589935
vt 0.2221685 0.5964252
vt 0.2196041 0.7215618
vt 0.2222038 0.7215618
vt 0.2196041 0.7215618
vt 0.2222038 0.7484877
vt 0.2196041 0.7484877
vt 0.2222038 0.7215618
vt 0.2196041 0.6859077
vt 0.2222038 0.6233512
vt 0.2196041 0.6233512
vt 0.2222038 0.6859077
vt 0.2196041 0.7484877
vt 0.2222038 0.7484877
vt 0.3077573 0.971082
vt 0.2868071 0.8720832
vt 0.3077573 0.8720832
vt 0.2868071 0.9710938
vt 0.2184631 0.7473937
vt 0.223286 0.6790968
vt 0.2233095 0.7473937
vt 0.2184395 0.6791086
vt 0.217275 0.598825
vt 0.2042414 0.7456293
vt 0.2042414 0.598825
vt 0.217275 0.7333485
vt 0.4830519 0.4230833
vt 0.2374018 0.509025
vt 0.4830519 0.509025
vt 0.2374018 0.4230833
vt 0.2039473 0.7456293
vt 0.2169574 0.598825
vt 0.2039473 0.598825
vt 0.2169574 0.7333485
vt 0.2232624 0.6400666
vt 0.218416 0.7083518
vt 0.2232624 0.7083518
vt 0.218416 0.6400666
vt 0.3077573 0.8268068
vt 0.2868071 0.9257938
vt 0.3077573 0.9257938
vt 0.2868071 0.8268068
vn 0.01176465 -0.01176465 0.9998616
vn 0.01176465 -0.01176465 0.9998616
vn 0.01176465 -0.01176465 0.9998616
vn 0.01176465 -0.01176465 0.9998616
vn 0.003921568 0.9999923 -0.000345267
vn 0.003921568 0.9999923 -0.000345267
vn 0.003921568 0.9999923 -0.000345267
vn 0.003921568 0.9999923 -0.000345267
vn 0.01176465 -0.01176465 -0.9998616
vn 0.01176465 -0.01176465 -0.9998616
vn 0.01176465 -0.01176465 -0.9998616
vn 0.01176465 -0.01176465 -0.9998616
vn 0.9999924 -0.003921568 0
vn 0.9999924 -0.003921568 0
vn 0.9999924 -0.003921568 0
vn 0.9999924 -0.003921568 0
vn -0.9999923 -0.003921568 -0.0003442513
vn -0.9999923 -0.003921568 -0.0003442513
vn -0.9999923 -0.003921568 -0.0003442513
vn -0.9999923 -0.003921568 -0.0003442513
vn 0.003921568 -0.9999924 0
vn 0.003921568 -0.9999924 0
vn 0.003921568 -0.9999924 0
vn 0.003921568 -0.9999924 0
vn 0.003921568 -0.9999924 0
vn 0.003921568 -0.9999924 0
vn 0.003921568 -0.9999924 0
vn 0.003921568 -0.9999924 0
vn 0.003921568 -0.9999924 0
vn 0.003921568 -0.9999924 0
vn 0.003921568 -0.9999924 0
vn 0.003921568 -0.9999924 0
vn 0.01176465 -0.01176465 0.9998616
vn 0.01176465 -0.01176465 0.9998616
vn 0.01176465 -0.01176465 0.9998616
vn 0.01176465 -0.01176465 0.9998616
vn 0.9999924 -0.003921568 0
vn 0.9999924 -0.003921568 0
vn 0.9999924 -0.003921568 0
vn 0.9999924 -0.003921568 0
vn 0.01176465 -0.01176465 -0.9998616
vn 0.01176465 -0.01176465 -0.9998616
vn 0.01176465 -0.01176465 -0.9998616
vn 0.01176465 -0.01176465 -0.9998616
vn -0.9999923 -0.003921568 -0.0003442513
vn -0.9999923 -0.003921568 -0.0003442513
vn -0.9999923 -0.003921568 -0.0003442513
vn -0.9999923 -0.003921568 -0.0003442513
vn 0.003921568 0.9999923 -0.000345267
vn 0.003921568 0.9999923 -0.000345267
vn 0.003921568 0.9999923 -0.000345267
vn 0.003921568 0.9999923 -0.000345267
vn 0.003921568 0.9999923 -0.000345267
vn 0.003921568 0.9999923 -0.000345267
vn 0.003921568 0.9999923 -0.000345267
vn 0.003921568 0.9999923 -0.000345267
vn 0.003921568 0.9999923 -0.000345267
vn 0.003921568 0.9999923 -0.000345267
vn 0.003921568 0.9999923 -0.000345267
vn 0.003921568 0.9999923 -0.000345267
vn 0.003921568 0.9999923 -0.000345267
vn 0.003921568 0.9999923 -0.000345267
vn 0.003921568 0.9999923 -0.000345267
vn 0.003921568 0.9999923 -0.000345267
vn 0.01176465 -0.01176465 -0.9998616
vn 0.01176465 -0.01176465 -0.9998616
vn 0.01176465 -0.01176465 -0.9998616
vn 0.01176465 -0.01176465 -0.9998616
vn -0.9999923 -0.003921568 -0.0003442513
vn -0.9999923 -0.003921568 -0.0003442513
vn -0.9999923 -0.003921568 -0.0003442513
vn -0.9999923 -0.003921568 -0.0003442513
vn -0.9999923 -0.003921568 -0.0003442513
vn -0.9999923 -0.003921568 -0.0003442513
vn 0.01176465 -0.01176465 0.9998616
vn 0.01176465 -0.01176465 0.9998616
vn 0.01176465 -0.01176465 0.9998616
vn 0.01176465 -0.01176465 0.9998616
vn 0.9999924 -0.003921568 0
vn 0.9999924 -0.003921568 0
vn 0.9999924 -0.003921568 0
vn 0.9999924 -0.003921568 0
vn 0.9999924 -0.003921568 0
vn 0.9999924 -0.003921568 0
vn 0.9999924 -0.003921568 0
vn 0.9999924 -0.003921568 0
vn 0.9999924 -0.003921568 0
vn 0.9999924 -0.003921568 0
vn 0.9999924 -0.003921568 0
vn 0.9999924 -0.003921568 0
vn 0.9999924 -0.003921568 0
vn 0.9999924 -0.003921568 0
vn 0.003921568 0.9999923 -0.000345267
vn 0.003921568 0.9999923 -0.000345267
vn 0.003921568 0.9999923 -0.000345267
vn 0.003921568 0.9999923 -0.000345267
vn 0.003921568 0.9999923 -0.000345267
vn 0.003921568 0.9999923 -0.000345267
vn 0.003921568 0.9999923 -0.000345267
vn 0.003921568 0.9999923 -0.000345267
vn 0.003921568 0.9999923 -0.000345267
vn 0.003921568 0.9999923 -0.000345267
vn 0.003921568 0.9999923 -0.000345267
vn 0.003921568 0.9999923 -0.000345267
vn -0.9999923 -0.003921568 -0.0003442513
vn -0.9999923 -0.003921568 -0.0003442513
vn -0.9999923 -0.003921568 -0.0003442513
vn -0.9999923 -0.003921568 -0.0003442513
vn -0.9999923 -0.003921568 -0.0003442513
vn -0.9999923 -0.003921568 -0.0003442513
vn -0.9999923 -0.003921568 -0.0003442513
vn -0.9999923 -0.003921568 -0.0003442513
g DSJ_GTA_daoJu_huaTan_24_0
f 3/3/3 2/2/2 1/1/1
f 2/2/2 4/4/4 1/1/1
f 7/7/7 6/6/6 5/5/5
f 6/6/6 8/8/8 5/5/5
f 11/11/11 10/10/10 9/9/9
f 10/10/10 12/12/12 9/9/9
f 15/15/15 14/14/14 13/13/13
f 14/14/14 16/16/16 13/13/13
f 19/19/19 18/18/18 17/17/17
f 18/18/18 20/20/20 17/17/17
f 23/23/23 22/22/22 21/21/21
f 22/22/22 24/24/24 21/21/21
f 25/25/25 22/22/22 23/23/23
f 26/26/26 25/25/25 23/23/23
f 21/21/21 24/24/24 27/27/27
f 24/24/24 28/28/28 27/27/27
f 26/26/26 29/29/29 25/25/25
f 29/29/29 30/30/30 25/25/25
f 31/31/31 30/30/30 29/29/29
f 32/32/32 31/31/31 29/29/29
f 27/27/27 28/28/28 32/32/32
f 28/28/28 31/31/31 32/32/32
f 35/35/35 34/34/34 33/33/33
f 34/34/34 36/36/36 33/33/33
f 39/39/39 38/38/38 37/37/37
f 38/38/38 40/40/40 37/37/37
f 43/43/43 42/42/42 41/41/41
f 42/42/42 44/44/44 41/41/41
f 47/47/47 46/46/46 45/45/45
f 46/46/46 48/48/48 45/45/45
f 51/51/51 50/50/50 49/49/49
f 50/50/50 52/52/52 49/49/49
f 55/55/55 54/54/54 53/53/53
f 54/54/54 56/56/56 53/53/53
f 59/59/59 58/58/58 57/57/57
f 58/58/58 60/60/60 57/57/57
f 63/63/63 62/62/62 61/61/61
f 62/62/62 64/64/64 61/61/61
f 67/67/67 66/66/66 65/65/65
f 66/66/66 68/68/68 65/65/65
f 71/71/71 70/70/70 69/69/69
f 70/70/70 72/72/72 69/69/69
f 71/71/71 73/73/73 70/70/70
f 73/73/73 74/74/74 70/70/70
f 77/77/77 76/76/76 75/75/75
f 76/76/76 78/78/78 75/75/75
f 81/81/81 80/80/80 79/79/79
f 80/80/80 82/82/82 79/79/79
f 79/79/79 82/82/82 83/83/83
f 82/82/82 84/84/84 83/83/83
f 87/87/87 86/86/86 85/85/85
f 86/86/86 88/88/88 85/85/85
f 91/91/91 90/90/90 89/89/89
f 90/90/90 92/92/92 89/89/89
f 95/95/95 94/94/94 93/93/93
f 94/94/94 96/96/96 93/93/93
f 99/99/99 98/98/98 97/97/97
f 98/98/98 100/100/100 97/97/97
f 103/103/103 102/102/102 101/101/101
f 102/102/102 104/104/104 101/101/101
f 107/107/107 106/106/106 105/105/105
f 106/106/106 108/108/108 105/105/105
f 111/111/111 110/110/110 109/109/109
f 110/110/110 112/112/112 109/109/109
