g DSJ_GTA_daoJu_zhuangShi_11
v 0.02781057 0.7736375 -1.588552
v -0.338517 0.01662898 -2.257808
v 0.5247028 0.01662898 -1.296373
v -2.516661 0.4800746 -0.1487293
v -1.901013 0.01662898 0.6078098
v -2.755177 0.01662898 0.1713278
v -1.686449 0.4271691 0.3805206
v -1.889257 0.7869151 0.2279174
v -2.763318 0.01662898 1.341464
v -2.270624 0.7480738 0.9984529
v -1.469653 0.01662898 1.996248
v 0.2564843 0.01662898 -0.003457308
v 0.4176364 0.5765646 0.176934
v -0.5341828 0.7296898 0.3799531
v 0.8031197 0.4103286 -0.06622791
v 0.7160487 0.01662898 -0.2950001
v -2.400902 0.01662898 3.56668
v -2.052421 0.01662898 2.620769
v -2.275822 1.047916 3.517096
v -2.150545 1.170129 2.910201
v -2.074573 1.791253 3.257502
v -2.029256 1.744582 2.927731
v -1.941367 0.9968641 -0.04344821
v -1.175939 0.5058577 -0.4507127
v -1.155043 1.584565 -0.2619238
v -2.419044 0.3432758 0.3097761
v -0.6457055 0.9842603 -0.3346584
v -2.270624 0.7480738 0.9984529
v -2.195703 0.01662898 -0.1976023
v -0.9934599 0.01662898 -0.7212765
v -0.4377534 0.1702158 -0.3562653
v -0.3661764 0.6361654 -0.1091545
v -2.817033 0.01662898 0.6131737
v -2.763318 0.01662898 1.341464
v -0.5494573 0.01662898 -0.6246276
v -1.333006 1.357669 0.9924309
v -1.754334 0.5195057 1.663503
v 0.4176364 0.5765646 0.176934
v -0.4293559 0.4826543 1.158046
v -0.5341828 0.7296898 0.3799531
v 0.6537471 0.01662898 0.4215252
v 0.1416178 0.01662898 1.285994
v 0.8031197 0.4103286 -0.06622791
v 1.029819 0.01662898 0.03613305
v 0.09195042 0.01662898 -0.3361185
v 0.2564843 0.01662898 -0.003457308
v -0.3661764 0.6361654 -0.1091545
v -0.2503569 0.3636119 -0.1815407
v 0.05019665 0.3269799 0.2540033
v -0.9390867 0.4331992 0.4246047
v -1.26879 0.5539134 0.06970096
v -0.7823455 0.7436631 -0.3271382
v -1.471991 1.227263 -0.04310036
v -1.889257 0.7869151 0.2279174
v -1.686449 0.4271691 0.3805206
v -1.446662 0.01662898 0.3205793
v -1.901013 0.01662898 0.6078098
v -1.39561 1.438748 -0.6100717
v -2.149728 1.427809 -0.3141029
v 0.4668498 0.6490037 -3.408198
v 2.226381 0.7340624 -2.605434
v 1.202122 0.8986495 -2.450009
v 1.331326 0.01662159 -3.966484
v -0.4249604 0.01662159 -3.637122
v 2.090135 0.6515234 -1.596457
v 2.20398 0.01662159 -3.654008
v 2.862713 0.01662159 -2.51368
v 2.633176 0.4235303 -1.832894
v 2.828161 0.01662159 -1.745338
v -1.369418 0.3344543 2.656365
v -1.160974 0.3434045 3.391698
v -1.616779 1.598984 3.187536
v -1.663359 1.275501 2.783245
v -1.616779 1.598984 3.187536
v -1.745467 1.711937 2.841621
v -1.616779 1.598984 3.187536
v -1.607344 0.895396 3.789778
v -1.654182 0.01662898 3.966477
v -1.499317 0.7615249 -1.488793
v -2.383751 0.2645724 -1.301745
v -2.776505 0.248647 -2.401756
v -1.725896 1.216429 -0.9083252
v -2.383751 0.2645724 -1.301745
v -2.650487 0.01662898 -1.295397
v -2.383751 0.2645724 -1.301745
v -2.516661 0.4800746 -0.1487293
v -2.755177 0.01662898 0.1713278
v -2.862698 0.01662898 -2.473583
v 0.6295073 0.01662898 -0.2737789
v 0.05019665 0.3269799 0.2540033
v -0.2503569 0.3636119 -0.1815407
v 0.3935554 0.4056985 -0.5271769
v 0.009373426 0.7016594 -0.629462
v -0.7823455 0.7436631 -0.3271382
v -0.6457055 1.246532 -0.6421945
v -0.0484798 1.274721 -1.17932
v -0.7044737 0.01662898 3.284571
v -1.654182 0.01662898 3.966477
v -1.160974 0.3434045 3.391698
v -0.6070688 0.3332288 2.90284
v -0.9196889 0.5164874 3.024327
v -0.04834342 0.02616167 2.775309
v 0.09543061 0.01681066 2.129044
v -0.06258178 0.6783202 1.988349
v -0.06258178 0.6783202 1.988349
v -0.9762938 0.8431413 2.832308
v -2.400902 0.01662898 3.56668
v -2.275822 1.047916 3.517096
v -1.607344 0.895396 3.789778
v -1.616779 1.598984 3.187536
v -1.654182 0.01662898 3.966477
v -1.499317 0.7615249 -1.488793
v -0.7951386 1.279631 -1.405376
v -0.6457055 1.246532 -0.6421945
v -0.0484798 1.274721 -1.17932
v -1.471991 1.227263 -0.04310036
v -1.39561 1.438748 -0.6100717
v -0.7823455 0.7436631 -0.3271382
v -1.745467 1.711937 2.841621
v -1.616779 1.598984 3.187536
v -2.074573 1.791253 3.257502
v -2.074573 1.791253 3.257502
v -2.029256 1.744582 2.927731
v -1.155043 1.584565 -0.2619238
v -0.6261714 1.224396 0.416888
v -1.333006 1.357669 0.9924309
v -1.754334 0.5195057 1.663503
v -0.4293559 0.4826543 1.158046
v -1.045782 0.01662898 1.939514
v 0.1416178 0.01662898 1.285994
v -1.469653 0.01662898 1.996248
v -0.6261714 1.224396 0.416888
v -0.5341828 0.7296898 0.3799531
v -1.155043 1.584565 -0.2619238
v -0.6457055 0.9842603 -0.3346584
v -0.6261714 1.224396 0.416888
v -0.5341828 0.7296898 0.3799531
v -0.3661764 0.6361654 -0.1091545
v -0.7951386 1.279631 -1.405376
v -0.7481644 0.7069552 -1.681236
v 0.02781057 0.7736375 -1.588552
v -0.338517 0.01662898 -2.257808
v -0.7916434 0.4383433 -1.961317
v -0.7951386 1.279631 -1.405376
v -0.0484798 1.274721 -1.17932
v -1.074221 0.6290691 2.221941
v -0.9762938 0.8431413 2.832308
v -1.364765 0.01662898 2.276934
v -1.369418 0.3344543 2.656365
v -2.052421 0.01662898 2.620769
v -0.5405076 0.01662898 1.672491
v -0.1452949 0.01662898 1.754054
v -0.06258178 0.6783202 1.988349
v -0.5394561 0.6331995 1.842427
v -1.725896 1.216429 -0.9083252
v -1.499317 0.7615249 -1.488793
v -0.7823455 0.7436631 -0.3271382
v -1.39561 1.438748 -0.6100717
v -0.9390867 0.4331992 0.4246047
v 0.05019665 0.3269799 0.2540033
v -0.7223055 0.01662898 0.6438668
v 0.06405663 0.01662898 0.2999408
v -1.446662 0.01662898 0.3205793
v -1.26879 0.5539134 0.06970096
v 0.05019665 0.3269799 0.2540033
v 0.6295073 0.01662898 -0.2737789
v 0.06405663 0.01662898 0.2999408
v -1.369418 0.3344543 2.656365
v -0.9762938 0.8431413 2.832308
v -0.9196889 0.5164874 3.024327
v 0.5247028 0.01662898 -1.296373
v 0.3935554 0.4056985 -0.5271769
v 0.009373426 0.7016594 -0.629462
v 0.02781057 0.7736375 -1.588552
v 0.6295073 0.01662898 -0.2737789
v -0.0484798 1.274721 -1.17932
v -0.7916434 0.4383433 -1.961317
v -2.433827 0.01662898 -2.738102
v -0.8127358 0.01662898 -1.974655
v -0.3661764 0.6361654 -0.1091545
v -0.2221525 0.01662898 -0.5705571
v 0.09195042 0.01662898 -0.3361185
v -1.663359 1.275501 2.783245
v -2.052421 0.01662898 2.620769
v -1.369418 0.3344543 2.656365
v -2.150545 1.170129 2.910201
v -2.029256 1.744582 2.927731
v -1.745467 1.711937 2.841621
v 1.202122 0.8986495 -2.450009
v 0.6444492 0.01662159 -2.134816
v 0.1795056 0.01762009 -2.590242
v 0.4668498 0.6490037 -3.408198
v -0.4249604 0.01662159 -3.637122
v 2.090135 0.6515234 -1.596457
v 1.505309 0.01662159 -1.44598
v -2.516661 0.4800746 -0.1487293
v -2.149728 1.427809 -0.3141029
v -1.471991 1.227263 -0.04310036
v -1.074221 0.6290691 2.221941
v -0.06258178 0.6783202 1.988349
v -0.9762938 0.8431413 2.832308
v -0.5394561 0.6331995 1.842427
v -1.616779 1.598984 3.187536
v -2.275822 1.047916 3.517096
v -2.074573 1.791253 3.257502
v 0.8031197 0.4103286 -0.06622791
v 0.7160487 0.01662898 -0.2950001
v 1.029819 0.01662898 0.03613305
v -2.516661 0.4800746 -0.1487293
v -1.471991 1.227263 -0.04310036
v -1.889257 0.7869151 0.2279174
v 2.828161 0.01662159 -1.745338
v 2.090135 0.6515234 -1.596457
v 2.633176 0.4235303 -1.832894
v 1.505309 0.01662159 -1.44598
v -0.7916434 0.4383433 -1.961317
v -2.776505 0.248647 -2.401756
v -2.433827 0.01662898 -2.738102
v -2.862698 0.01662898 -2.473583
v -1.499317 0.7615249 -1.488793
v -0.7481644 0.7069552 -1.681236
v -1.364765 0.01662898 2.276934
v -0.986038 0.01662898 2.183508
v -1.074221 0.6290691 2.221941
v -0.6918547 0.01662898 1.857799
v -0.5394561 0.6331995 1.842427
v -0.5405076 0.01662898 1.672491
v -1.469653 0.01662898 1.996248
v -2.270624 0.7480738 0.9984529
v -1.754334 0.5195057 1.663503
v -1.39561 1.438748 -0.6100717
v -2.149728 1.427809 -0.3141029
v -1.725896 1.216429 -0.9083252
v -0.2221525 0.01662898 -0.5705571
v -0.3661764 0.6361654 -0.1091545
v -0.4377534 0.1702158 -0.3562653
v -0.5494573 0.01662898 -0.6246276
v -1.160974 0.3434045 3.391698
v -1.369418 0.3344543 2.656365
v -0.9196889 0.5164874 3.024327
v -0.6457055 1.246532 -0.6421945
v -0.7823455 0.7436631 -0.3271382
v -1.499317 0.7615249 -1.488793
v 0.09543061 0.01681066 2.129044
v -0.06258178 0.6783202 1.988349
v -0.1452949 0.01662898 1.754054
v -0.7481644 0.7069552 -1.681236
v -0.7951386 1.279631 -1.405376
v -1.499317 0.7615249 -1.488793
v -0.8127358 0.01662898 -1.974655
v -0.338517 0.01662898 -2.257808
v -0.7916434 0.4383433 -1.961317
v -2.516661 0.4800746 -0.1487293
v -1.725896 1.216429 -0.9083252
v -2.149728 1.427809 -0.3141029
v -2.383751 0.2645724 -1.301745
v -1.725896 1.216429 -0.9083252
v -2.516661 0.4800746 -0.1487293
vt 0.6002952 0.1969386
vt 0.545993 0.2258631
vt 0.6240207 0.251307
vt 0.6785212 0.1452799
vt 0.6345397 0.2013996
vt 0.6771224 0.1835999
vt 0.6160791 0.1734003
vt 0.6278979 0.1452469
vt 0.6596311 0.02520923
vt 0.6392099 0.06131525
vt 0.7003303 0.0663159
vt 0.5186325 0.1703052
vt 0.5450126 0.1997914
vt 0.5871987 0.1515583
vt 0.5211328 0.2139453
vt 0.4980572 0.2028976
vt 0.5837291 0.01324732
vt 0.52501 0.03243484
vt 0.5921112 0.082177
vt 0.5601248 0.1004173
vt 0.5932899 0.1362259
vt 0.5667225 0.1382085
vt 0.5909767 0.06035698
vt 0.5582633 0.03663142
vt 0.5585717 0.08520603
vt 0.6166409 0.03374558
vt 0.5387123 0.05966305
vt 0.6392099 0.06131525
vt 0.5978059 0.01448096
vt 0.549044 0.01231107
vt 0.5273561 0.02725795
vt 0.5285457 0.04467212
vt 0.6345948 0.01756506
vt 0.6596311 0.02520923
vt 0.5320594 0.01427168
vt 0.651293 0.1181839
vt 0.6775739 0.07696707
vt 0.5450126 0.1997914
vt 0.6253204 0.200199
vt 0.5871987 0.1515583
vt 0.5492202 0.2520009
vt 0.6083579 0.2479585
vt 0.5211328 0.2139453
vt 0.5091269 0.2417352
vt 0.5153282 0.1476261
vt 0.5186325 0.1703052
vt 0.5593207 0.1365674
vt 0.5279509 0.1735876
vt 0.5204169 0.2263808
vt 0.5687271 0.2022697
vt 0.5845112 0.1645996
vt 0.5471054 0.1461941
vt 0.5945675 0.1156065
vt 0.6278979 0.1452469
vt 0.6160791 0.1734003
vt 0.6041723 0.2013886
vt 0.6345397 0.2013996
vt 0.5832114 0.07049046
vt 0.6404105 0.08455616
vt 0.5632529 0.1911449
vt 0.6539035 0.122017
vt 0.5917368 0.1247817
vt 0.6290765 0.2394882
vt 0.5150638 0.2348951
vt 0.633339 0.06539068
vt 0.6820239 0.19869
vt 0.7064213 0.1033802
vt 0.6691368 0.06688866
vt 0.6863747 0.04405529
vt 0.7074897 0.1015628
vt 0.6706457 0.06783593
vt 0.6277988 0.1465686
vt 0.6657883 0.1441344
vt 0.6277988 0.1465686
vt 0.6476802 0.1645666
vt 0.6277988 0.1465686
vt 0.6321164 0.07447776
vt 0.644486 0.01899697
vt 0.5726373 0.1265661
vt 0.585833 0.05492675
vt 0.5237653 0.02732404
vt 0.6801293 0.04651156
vt 0.585833 0.05492675
vt 0.5877715 0.03718215
vt 0.585833 0.05492675
vt 0.6446621 0.05310934
vt 0.6696213 0.02031872
vt 0.5180708 0.01337949
vt 0.6820239 0.2455133
vt 0.7167311 0.203988
vt 0.6932919 0.1818265
vt 0.6656781 0.2175911
vt 0.657285 0.1869484
vt 0.6800963 0.1425703
vt 0.6627262 0.1093171
vt 0.6181059 0.1637185
vt 0.7298164 0.08995334
vt 0.7313254 0.01903001
vt 0.7165658 0.07850912
vt 0.7052758 0.1077861
vt 0.6895689 0.08724374
vt 0.7140104 0.1630245
vt 0.6742805 0.1986239
vt 0.6555005 0.1595219
vt 0.6555005 0.1595219
vt 0.6714277 0.09709084
vt 0.5837291 0.01324732
vt 0.5921112 0.082177
vt 0.6321164 0.07447776
vt 0.6277988 0.1465686
vt 0.644486 0.01899697
vt 0.582936 0.08334456
vt 0.5929815 0.1266542
vt 0.6347049 0.1199462
vt 0.6181059 0.1637185
vt 0.6299907 0.03380065
vt 0.5996232 0.03017684
vt 0.6146032 0.06217439
vt 0.6050315 0.1690495
vt 0.6277988 0.1465686
vt 0.5932899 0.1362259
vt 0.5932899 0.1362259
vt 0.5907896 0.1587178
vt 0.6077851 0.1566581
vt 0.6407079 0.1577155
vt 0.651293 0.1181839
vt 0.6775739 0.07696707
vt 0.6937985 0.1365013
vt 0.7117524 0.08194569
vt 0.7341563 0.1360276
vt 0.7003303 0.0663159
vt 0.6510177 0.1307186
vt 0.6660416 0.1570766
vt 0.5585717 0.08520603
vt 0.5387123 0.05966305
vt 0.5172226 0.091198
vt 0.5071442 0.06204222
vt 0.5285457 0.04467212
vt 0.5929815 0.1266542
vt 0.5587699 0.159577
vt 0.6002952 0.1969386
vt 0.545993 0.2258631
vt 0.5447813 0.1832474
vt 0.5929815 0.1266542
vt 0.6181059 0.1637185
vt 0.6370951 0.1040301
vt 0.6714277 0.09709084
vt 0.6199453 0.06414601
vt 0.6538043 0.06243875
vt 0.6361479 0.01591286
vt 0.6075978 0.1708009
vt 0.6352446 0.194912
vt 0.6555005 0.1595219
vt 0.6346608 0.1447733
vt 0.5818015 0.0230063
vt 0.5524365 0.07410327
vt 0.6146032 0.06217439
vt 0.5996232 0.03017684
vt 0.5687271 0.2022697
vt 0.5204169 0.2263808
vt 0.5674164 0.2353137
vt 0.5229943 0.2476391
vt 0.6041723 0.2013886
vt 0.5845112 0.1645996
vt 0.7167311 0.203988
vt 0.6820239 0.2455133
vt 0.7248819 0.2224816
vt 0.6538043 0.06243875
vt 0.6714277 0.09709084
vt 0.6895689 0.08724374
vt 0.6240207 0.251307
vt 0.6656781 0.2175911
vt 0.657285 0.1869484
vt 0.6002952 0.1969386
vt 0.6820239 0.2455133
vt 0.6181059 0.1637185
vt 0.5269486 0.1586517
vt 0.4969337 0.04042046
vt 0.5029697 0.1585196
vt 0.5593207 0.1365674
vt 0.5163525 0.1225127
vt 0.5153282 0.1476261
vt 0.5358264 0.1192413
vt 0.52501 0.03243484
vt 0.4975395 0.07087597
vt 0.5601248 0.1004173
vt 0.5667225 0.1382085
vt 0.5503438 0.1435837
vt 0.5917368 0.1247817
vt 0.5342623 0.09258585
vt 0.5145351 0.1437379
vt 0.5632529 0.1911449
vt 0.5150638 0.2348951
vt 0.633339 0.06539068
vt 0.5954376 0.03164178
vt 0.6785212 0.1452799
vt 0.6404105 0.08455616
vt 0.5945675 0.1156065
vt 0.6370951 0.1040301
vt 0.6555005 0.1595219
vt 0.6714277 0.09709084
vt 0.6346608 0.1447733
vt 0.6277988 0.1465686
vt 0.5921112 0.082177
vt 0.5932899 0.1362259
vt 0.5211328 0.2139453
vt 0.4980572 0.2028976
vt 0.5091269 0.2417352
vt 0.6785212 0.1452799
vt 0.5945675 0.1156065
vt 0.6278979 0.1452469
vt 0.6863747 0.04405529
vt 0.633339 0.06539068
vt 0.6691368 0.06688866
vt 0.5954376 0.03164178
vt 0.5269486 0.1586517
vt 0.5237653 0.02732404
vt 0.4969337 0.04042046
vt 0.5180708 0.01337949
vt 0.5726373 0.1265661
vt 0.5578116 0.1615486
vt 0.6199453 0.06414601
vt 0.6041392 0.09971233
vt 0.6370951 0.1040301
vt 0.6006587 0.1410834
vt 0.6346608 0.1447733
vt 0.6075978 0.1708009
vt 0.7003303 0.0663159
vt 0.6392099 0.06131525
vt 0.6775739 0.07696707
vt 0.5832114 0.07049046
vt 0.6404105 0.08455616
vt 0.5884434 0.05041075
vt 0.5163525 0.1225127
vt 0.5593207 0.1365674
vt 0.533326 0.1118064
vt 0.5171236 0.1007918
vt 0.6706457 0.06783593
vt 0.7074897 0.1015628
vt 0.6945915 0.0727044
vt 0.6043155 0.0798419
vt 0.6146032 0.06217439
vt 0.5524365 0.07410327
vt 0.6742805 0.1986239
vt 0.6555005 0.1595219
vt 0.6352446 0.194912
vt 0.5669538 0.103193
vt 0.5929815 0.1266542
vt 0.582936 0.08334456
vt 0.5282153 0.205453
vt 0.545993 0.2258631
vt 0.5447813 0.1832474
vt 0.6785212 0.1452799
vt 0.6801293 0.04651156
vt 0.6404105 0.08455616
vt 0.585833 0.05492675
vt 0.6801293 0.04651156
vt 0.6785212 0.1452799
vn 0.7338373 0.2184298 -0.6432505
vn 0.7338373 0.2184298 -0.6432505
vn 0.7338373 0.2184298 -0.6432505
vn -0.4135666 0.5150377 0.7507988
vn -0.3823446 0.6087033 0.6951927
vn -0.3433173 0.6399251 0.6874802
vn -0.4682049 0.4057611 0.7849472
vn -0.5306486 0.054515 0.8458369
vn -0.3589282 0.5852869 0.7270555
vn -0.3589282 0.5852869 0.7270555
vn -0.3589282 0.5852869 0.7270555
vn -0.3042899 0.4057611 -0.8618385
vn -0.2496517 0.3589282 -0.8993579
vn -0.1403751 0.3355118 -0.9315185
vn -0.4057611 0.4447885 -0.7984492
vn -0.4525939 0.5150377 -0.7279388
vn -0.9287274 0.09354234 -0.3587691
vn -0.9521439 0.04670954 -0.3020599
vn -0.9677548 0.08573687 -0.2368539
vn -0.9755603 0.09354234 -0.1988263
vn -0.9599494 0.2028189 -0.1932917
vn -0.9599494 0.2028189 -0.1932917
vn -0.6867579 0.4682049 -0.5560106
vn -0.1091533 0.2808735 -0.9535175
vn -0.4525939 0.5462595 -0.7048115
vn -0.7335907 0.4916213 -0.4692048
vn 0.2498983 -0.03915066 -0.9674802
vn -0.6789525 0.7179798 0.1533901
vn -0.5072322 0.5462595 -0.6665703
vn 0.04695612 0.554065 -0.8311481
vn -0.01548767 0.6165087 -0.7871958
vn 0.2655092 0.1794025 -0.9472696
vn -0.788229 0.5774814 -0.2126271
vn -0.8116454 0.5696759 0.1292327
vn 0.1093999 0.8428673 -0.5268838
vn -0.5384541 0.8038399 0.2528016
vn -0.436983 0.6789525 0.589974
vn 0.5543115 0.6243142 0.5504276
vn 0.4762568 0.6867579 0.5491293
vn 0.827503 0.554065 -0.0908341
vn 0.6245607 0.5618705 0.5424256
vn 0.5074787 0.7335907 0.4520066
vn 0.6245607 0.5150377 0.5870776
vn 0.6245607 0.5072322 0.5938345
vn 0.6557826 0.7413962 -0.1424108
vn 0.5699224 0.7726181 -0.2797316
vn 0.7884756 0.5930923 0.1629348
vn 0.2967311 0.8740891 0.3846023
vn 0.2498983 0.9599494 -0.1266808
vn 0.1874545 0.9755603 0.1146424
vn 0.445035 0.5072322 0.7380104
vn 0.3982022 0.5696759 0.7189606
vn 0.4528404 0.6399251 0.6208312
vn 0.3669803 0.3823446 0.8480201
vn 0.4918678 0.3277063 0.806644
vn 0.5387006 0.1872079 0.8214346
vn 0.5308951 0.1794025 0.8282301
vn 0.3982022 0.8350618 0.379614
vn 0.1328163 0.9209219 0.3664186
vn 0.007928729 0.7101743 -0.7039812
vn 0.4528404 0.8662837 -0.2109221
vn 0.1328163 0.9677548 -0.2140336
vn 0.1328163 0.7492017 -0.6488888
vn -0.1559861 0.5228431 -0.8380355
vn 0.3201475 0.9365329 0.1428698
vn 0.3591748 0.7648126 -0.5348412
vn 0.7806701 0.5852869 -0.2190741
vn 0.7149554 0.6991701 0
vn 0.9006228 0.4346017 0
vn 0.9211686 0.2964845 -0.2520822
vn 0.7650592 0.4135666 0.4936063
vn 0.9523904 0.2964845 -0.0710595
vn 0.9055576 0.288679 -0.3108534
vn 0.9523904 0.2964845 -0.0710595
vn 0.944585 0.2106243 -0.2517869
vn 0.9523904 0.2964845 -0.0710595
vn 0.811892 0.2730681 0.5160089
vn 0.6870045 0.2262353 0.6905378
vn -0.5072322 0.7492017 -0.4259253
vn -0.6399251 0.7570071 -0.1320456
vn -0.8272563 0.5150377 0.224462
vn -0.6945634 0.4916213 -0.5252525
vn -0.6399251 0.7570071 -0.1320456
vn -0.7335907 0.671147 0.1068004
vn -0.6399251 0.7570071 -0.1320456
vn -0.8506727 0.4682049 -0.23904
vn -0.8975055 0.4135666 -0.1531225
vn -0.9365329 0.2964845 0.1870913
vn 0.3747858 0.8428673 0.3861482
vn 0.2498983 0.9599494 -0.1266808
vn 0.2967311 0.8740891 0.3846023
vn 0.327953 0.6477306 0.6876714
vn 0.3747858 0.6165087 0.6924252
vn 0.3982022 0.5696759 0.7189606
vn 0.4372295 0.5228431 0.7317551
vn 0.5074787 0.6165087 0.6019821
vn 0.5230896 0.5618705 0.6408423
vn 0.6870045 0.2262353 0.6905378
vn 0.7650592 0.4135666 0.4936063
vn 0.5699224 0.5930923 0.568709
vn 0.5933388 0.5306486 0.6052777
vn 0.5152842 0.8194509 0.250963
vn 0.7338373 0.5072322 0.4518831
vn 0.7338373 0.3745391 0.566748
vn 0.7338373 0.3745391 0.566748
vn 0.6557826 0.4603994 0.5983156
vn -0.4135666 0.1481806 0.8983347
vn -0.1872079 0.3355118 0.923247
vn -0.3199009 0.3433173 0.8830609
vn 0.07817799 0.436983 0.8960659
vn -0.4603994 0.1950134 0.8660267
vn -0.671147 0.6789525 0.2976328
vn -0.3901501 0.905311 0.1679134
vn -0.5228431 0.7960345 0.3049004
vn 0.0001232624 0.9989767 0.04522734
vn 0.4528404 0.6399251 0.6208312
vn 0.3982022 0.8350618 0.379614
vn 0.3982022 0.5696759 0.7189606
vn 0.2967311 0.9521439 0.07329872
vn 0.4060076 0.8975055 0.1721674
vn 0.2811201 0.9521439 -0.1199727
vn 0.2811201 0.9521439 -0.1199727
vn 0.07817799 0.9833658 -0.1639511
vn 0.5855334 0.8038399 -0.1048427
vn 0.7650592 0.6321197 0.1229195
vn 0.4372295 0.6867579 0.580684
vn 0.2655092 0.6008978 0.7539408
vn 0.4762568 0.6867579 0.5491293
vn 0.2498983 0.671147 0.6979345
vn 0.5074787 0.7335907 0.4520066
vn 0.1093999 0.5852869 0.8034121
vn 0.7650592 0.6321197 0.1229195
vn 0.827503 0.554065 -0.0908341
vn 0.5855334 0.8038399 -0.1048427
vn 0.827503 0.554065 -0.0908341
vn 0.7650592 0.6321197 0.1229195
vn 0.827503 0.554065 -0.0908341
vn 0.7884756 0.5930923 0.1629348
vn 0.0157342 0.4916213 -0.870667
vn -0.0310986 0.5852869 -0.8102297
vn 0.1172053 0.5930923 -0.7965578
vn 0.08598346 0.6633415 -0.7433605
vn 0.08598346 0.7492017 -0.6567371
vn 0.0157342 0.4916213 -0.870667
vn 0.2342873 0.6321197 -0.7386028
vn -0.8975055 0.4213721 -0.130113
vn -0.8272563 0.5150377 -0.224462
vn -0.5618705 0.671147 -0.4835942
vn -0.4760103 0.6633415 -0.5774013
vn -0.3042899 0.7257853 -0.6169631
vn 0.2264819 0.2808735 -0.9326392
vn 0.19526 0.3042899 -0.9323525
vn 0.2420928 0.2730681 -0.9310343
vn 0.2655092 0.2496517 -0.9312244
vn 0.6323662 0.5618705 -0.5333053
vn 0.5855334 0.7335907 -0.3449569
vn 0.6323662 0.5462595 -0.5492846
vn 0.5855334 0.1872079 -0.7887356
vn -0.2652626 0.436983 0.8594659
vn 0.5152842 0.2184298 0.8287162
vn 0.02353972 0.4135666 0.9101695
vn 0.562117 0.1403751 0.8150579
vn -0.4760103 0.3901501 0.7881606
vn -0.5384541 0.4916213 0.6843799
vn 0.5152842 0.2184298 0.8287162
vn 0.7182264 0.1325697 0.6830638
vn 0.562117 0.1403751 0.8150579
vn -0.671147 0.2808735 0.6860552
vn -0.671147 0.2808735 0.6860552
vn -0.671147 0.2808735 0.6860552
vn 0.811892 0.5774814 -0.08571249
vn 0.7650592 0.6165087 -0.1860147
vn 0.8509194 0.5228431 -0.05070813
vn 0.928974 0.3667337 -0.05013629
vn 0.8849953 0.4655999 0
vn 0.9914178 0.1247642 0.03904729
vn 0.4372295 -0.0001232624 -0.89935
vn 0.4372295 -0.0001232624 -0.89935
vn 0.4372295 -0.0001232624 -0.89935
vn 0.4840623 0.5852869 -0.650479
vn 0.4840623 0.5852869 -0.650479
vn 0.4840623 0.5852869 -0.650479
vn -0.2262353 0.1325697 -0.9650093
vn -0.09354234 0.1559861 -0.98332
vn -0.007682204 0.1247642 -0.9921567
vn -0.2808735 0.1559861 -0.9469839
vn -0.2730681 0.0779314 -0.9588329
vn -0.2808735 0.07012594 -0.9571794
vn -0.554065 0.6008978 0.576137
vn -0.5384541 0.5696759 0.6209159
vn -0.6087033 0.671147 0.4231336
vn -0.6165087 0.7023689 0.3558019
vn -0.5930923 0.7179798 0.3643439
vn -0.4916213 0.5774814 0.6517851
vn -0.4916213 0.6008978 0.6302621
vn -0.2808735 0.2652626 0.9223588
vn -0.2808735 0.2652626 0.9223588
vn -0.2808735 0.2652626 0.9223588
vn -0.1013478 0.9521439 -0.2883585
vn -0.09354234 0.9677548 -0.2338812
vn -0.1169587 0.9365329 -0.3304949
vn -0.06232047 0.9911712 -0.1170287
vn 0.07817799 0.436983 0.8960659
vn -0.1872079 0.3355118 0.923247
vn 0.2577037 0.2574571 0.9312919
vn 0.7182264 0.2262353 -0.6580034
vn 0.7182264 0.2262353 -0.6580034
vn 0.7182264 0.2262353 -0.6580034
vn -0.5696759 0.7413962 0.3546844
vn -0.5696759 0.7413962 0.3546844
vn -0.5696759 0.7413962 0.3546844
vn 0.3591748 0.1950134 0.9126682
vn 0.2811201 0.09354234 0.9551028
vn 0.5074787 0.3979557 0.7642622
vn 0.2264819 0.02329314 0.9737368
vn 0.08598346 0.7492017 -0.6567371
vn -0.1950134 0.6945634 -0.6924965
vn -0.07012594 0.7804235 -0.6213063
vn -0.4760103 0.4135666 -0.7761294
vn -0.04670954 0.7413962 -0.66944
vn -0.0310986 0.5852869 -0.8102297
vn -0.2340407 0.02329314 -0.9719477
vn -0.5306486 -0.03134519 -0.8470121
vn -0.5306486 0.03890407 -0.8466986
vn -0.7101743 0.09354234 -0.6977838
vn -0.6165087 0.1325697 -0.7761071
vn -0.7570071 0.171597 -0.6304718
vn -0.7960345 -0.05476159 0.6027688
vn -0.7960345 -0.05476159 0.6027688
vn -0.7960345 -0.05476159 0.6027688
vn -0.1872079 0.8740891 -0.4482426
vn -0.1872079 0.8740891 -0.4482426
vn -0.1872079 0.8740891 -0.4482426
vn -0.1013478 0.7492017 -0.6545422
vn 0.2655092 0.1794025 -0.9472696
vn -0.01548767 0.6165087 -0.7871958
vn 0.1093999 0.8428673 -0.5268838
vn -0.4525939 0.8818946 0.1319873
vn -0.4525939 0.8818946 0.1319873
vn -0.4525939 0.8818946 0.1319873
vn -0.5228431 0.7960345 0.3049004
vn -0.7335907 0.4838158 0.4772493
vn -0.671147 0.6789525 0.2976328
vn 0.8431139 0.08573687 -0.530856
vn 0.8431139 0.08573687 -0.530856
vn 0.8431139 0.08573687 -0.530856
vn -0.0310986 0.5852869 -0.8102297
vn 0.0157342 0.4916213 -0.870667
vn -0.04670954 0.7413962 -0.66944
vn -0.5072322 0.04670954 -0.8605427
vn -0.5072322 0.04670954 -0.8605427
vn -0.5072322 0.04670954 -0.8605427
vn -0.8506727 0.4682049 -0.23904
vn -0.6945634 0.4916213 -0.5252525
vn -0.7648126 0.1872079 -0.6164535
vn -0.6399251 0.7570071 -0.1320456
vn -0.6945634 0.4916213 -0.5252525
vn -0.8506727 0.4682049 -0.23904
g DSJ_GTA_daoJu_zhuangShi_11_0
f 3/3/3 2/2/2 1/1/1
f 6/6/6 5/5/5 4/4/4
f 7/7/7 4/4/4 5/5/5
f 4/4/4 7/7/7 8/8/8
f 11/11/11 10/10/10 9/9/9
f 14/14/14 13/13/13 12/12/12
f 13/13/13 15/15/15 12/12/12
f 15/15/15 16/16/16 12/12/12
f 19/19/19 18/18/18 17/17/17
f 20/20/20 18/18/18 19/19/19
f 21/21/21 20/20/20 19/19/19
f 21/21/21 22/22/22 20/20/20
f 25/25/25 24/24/24 23/23/23
f 24/24/24 26/26/26 23/23/23
f 27/27/27 24/24/24 25/25/25
f 26/26/26 28/28/28 23/23/23
f 26/26/26 24/24/24 29/29/29
f 30/30/30 29/29/29 24/24/24
f 30/30/30 24/24/24 31/31/31
f 32/32/32 31/31/31 24/24/24
f 27/27/27 32/32/32 24/24/24
f 29/29/29 33/33/33 26/26/26
f 26/26/26 33/33/33 28/28/28
f 34/34/34 28/28/28 33/33/33
f 31/31/31 35/35/35 30/30/30
f 25/25/25 23/23/23 36/36/36
f 36/36/36 23/23/23 28/28/28
f 37/37/37 36/36/36 28/28/28
f 40/40/40 39/39/39 38/38/38
f 38/38/38 39/39/39 41/41/41
f 39/39/39 42/42/42 41/41/41
f 43/43/43 38/38/38 41/41/41
f 41/41/41 44/44/44 43/43/43
f 46/46/46 45/45/45 40/40/40
f 45/45/45 47/47/47 40/40/40
f 50/50/50 49/49/49 48/48/48
f 51/51/51 50/50/50 48/48/48
f 52/52/52 51/51/51 48/48/48
f 51/51/51 52/52/52 53/53/53
f 51/51/51 53/53/53 54/54/54
f 54/54/54 55/55/55 51/51/51
f 51/51/51 55/55/55 56/56/56
f 55/55/55 57/57/57 56/56/56
f 59/59/59 53/53/53 58/58/58
f 62/62/62 61/61/61 60/60/60
f 60/60/60 61/61/61 63/63/63
f 60/60/60 63/63/63 64/64/64
f 61/61/61 62/62/62 65/65/65
f 63/63/63 61/61/61 66/66/66
f 61/61/61 67/67/67 66/66/66
f 61/61/61 65/65/65 68/68/68
f 68/68/68 67/67/67 61/61/61
f 68/68/68 69/69/69 67/67/67
f 72/72/72 71/71/71 70/70/70
f 74/74/74 70/70/70 73/73/73
f 75/75/75 74/74/74 73/73/73
f 77/77/77 71/71/71 76/76/76
f 78/78/78 71/71/71 77/77/77
f 81/81/81 80/80/80 79/79/79
f 83/83/83 82/82/82 79/79/79
f 85/85/85 81/81/81 84/84/84
f 86/86/86 80/80/80 84/84/84
f 84/84/84 87/87/87 86/86/86
f 88/88/88 84/84/84 81/81/81
f 91/91/91 90/90/90 89/89/89
f 91/91/91 89/89/89 92/92/92
f 92/92/92 93/93/93 91/91/91
f 94/94/94 91/91/91 93/93/93
f 94/94/94 93/93/93 95/95/95
f 95/95/95 93/93/93 96/96/96
f 99/99/99 98/98/98 97/97/97
f 99/99/99 97/97/97 100/100/100
f 101/101/101 99/99/99 100/100/100
f 100/100/100 97/97/97 102/102/102
f 103/103/103 100/100/100 102/102/102
f 104/104/104 100/100/100 103/103/103
f 101/101/101 100/100/100 104/104/104
f 106/106/106 101/101/101 105/105/105
f 109/109/109 108/108/108 107/107/107
f 110/110/110 108/108/108 109/109/109
f 107/107/107 111/111/111 109/109/109
f 114/114/114 113/113/113 112/112/112
f 115/115/115 113/113/113 114/114/114
f 118/118/118 117/117/117 116/116/116
f 121/121/121 120/120/120 119/119/119
f 123/123/123 122/122/122 119/119/119
f 126/126/126 125/125/125 124/124/124
f 128/128/128 126/126/126 127/127/127
f 128/128/128 127/127/127 129/129/129
f 128/128/128 129/129/129 130/130/130
f 129/129/129 127/127/127 131/131/131
f 126/126/126 128/128/128 132/132/132
f 132/132/132 128/128/128 133/133/133
f 136/136/136 135/135/135 134/134/134
f 136/136/136 137/137/137 135/135/135
f 138/138/138 135/135/135 137/137/137
f 141/141/141 140/140/140 139/139/139
f 141/141/141 142/142/142 140/140/140
f 140/140/140 142/142/142 143/143/143
f 145/145/145 141/141/141 144/144/144
f 148/148/148 147/147/147 146/146/146
f 148/148/148 149/149/149 147/147/147
f 149/149/149 148/148/148 150/150/150
f 153/153/153 152/152/152 151/151/151
f 153/153/153 151/151/151 154/154/154
f 157/157/157 156/156/156 155/155/155
f 157/157/157 155/155/155 158/158/158
f 161/161/161 160/160/160 159/159/159
f 161/161/161 162/162/162 160/160/160
f 163/163/163 161/161/161 159/159/159
f 163/163/163 159/159/159 164/164/164
f 167/167/167 166/166/166 165/165/165
f 170/170/170 169/169/169 168/168/168
f 173/173/173 172/172/172 171/171/171
f 173/173/173 171/171/171 174/174/174
f 175/175/175 171/171/171 172/172/172
f 173/173/173 174/174/174 176/176/176
f 179/179/179 178/178/178 177/177/177
f 182/182/182 181/181/181 180/180/180
f 185/185/185 184/184/184 183/183/183
f 184/184/184 186/186/186 183/183/183
f 183/183/183 186/186/186 187/187/187
f 187/187/187 188/188/188 183/183/183
f 191/191/191 190/190/190 189/189/189
f 191/191/191 189/189/189 192/192/192
f 191/191/191 192/192/192 193/193/193
f 189/189/189 190/190/190 194/194/194
f 194/194/194 190/190/190 195/195/195
f 198/198/198 197/197/197 196/196/196
f 201/201/201 200/200/200 199/199/199
f 202/202/202 199/199/199 200/200/200
f 205/205/205 204/204/204 203/203/203
f 208/208/208 207/207/207 206/206/206
f 211/211/211 210/210/210 209/209/209
f 214/214/214 213/213/213 212/212/212
f 215/215/215 212/212/212 213/213/213
f 218/218/218 217/217/217 216/216/216
f 217/217/217 218/218/218 219/219/219
f 216/216/216 217/217/217 220/220/220
f 221/221/221 216/216/216 220/220/220
f 224/224/224 223/223/223 222/222/222
f 223/223/223 224/224/224 225/225/225
f 226/226/226 225/225/225 224/224/224
f 226/226/226 227/227/227 225/225/225
f 230/230/230 229/229/229 228/228/228
f 233/233/233 232/232/232 231/231/231
f 236/236/236 235/235/235 234/234/234
f 234/234/234 237/237/237 236/236/236
f 240/240/240 239/239/239 238/238/238
f 243/243/243 242/242/242 241/241/241
f 246/246/246 245/245/245 244/244/244
f 249/249/249 248/248/248 247/247/247
f 252/252/252 251/251/251 250/250/250
f 255/255/255 254/254/254 253/253/253
f 258/258/258 257/257/257 256/256/256
