g DSJ_GTA_diLou_jianYu_1
v -0.1240454 -3.861145 -0.6047635
v -0.0465126 -0.9614148 -0.7133098
v -0.0465126 -3.892158 -0.7133098
v -0.1240454 -0.9304018 -0.6047635
v -0.1395521 -3.892158 -0.5737505
v -3.039282 -3.861145 -0.6047635
v -0.1240454 -3.861145 -0.6047635
v -3.039282 -3.892158 -0.5737505
v 0.0155139 -0.9304018 -0.6047635
v -0.0465126 -3.892158 -0.7133098
v -0.0465126 -0.9614148 -0.7133098
v 0.0155139 -3.861145 -0.6047635
v 2.946257 -3.892158 -0.5737505
v 2.124408 -3.861145 -0.6047635
v 2.946257 -3.861145 -0.6047635
v 2.124408 -3.892158 -0.5737505
v 0.9304018 -1.922823 -0.5272307
v 0.9769216 -1.984849 -0.5272307
v 0.9148951 -3.861145 -0.5272307
v 0.9614148 -4.124757 -0.5272307
v 0.9148951 -4.124757 -0.5272307
v 2.124408 -1.922823 -0.5272307
v 2.077888 -1.984849 -0.5272307
v 2.124408 -3.861145 -0.5272307
v 2.077888 -4.124757 -0.5272307
v 2.124408 -4.124757 -0.5272307
v 0.9304018 -1.922823 -0.6047635
v 0.9148951 -3.861145 -0.5272307
v 0.9148951 -3.861145 -0.6047635
v 0.9304018 -1.922823 -0.5272307
v 0.9148951 -3.892158 -0.5737505
v 0.9148951 -4.124757 -0.5272307
v 0.9148951 -4.124757 -0.5737505
v 0.9614148 -4.124757 -0.6047635
v 0.9614148 -4.124757 -0.5272307
v 0.9769216 -3.861145 -0.6047635
v 0.9769216 -1.984849 -0.5272307
v 0.9769216 -1.984849 -0.6047635
v 0.9769216 -1.984849 -0.6047635
v 0.9769216 -1.984849 -0.5272307
v 2.077888 -1.984849 -0.6047635
v 2.077888 -1.984849 -0.5272307
v 2.077888 -1.984849 -0.6047635
v 2.077888 -1.984849 -0.5272307
v 2.077888 -4.124757 -0.5272307
v 2.077888 -3.861145 -0.6047635
v 2.077888 -4.124757 -0.6047635
v 2.124408 -3.861145 -0.6047635
v 2.124408 -3.861145 -0.5272307
v 2.124408 -1.922823 -0.5272307
v 2.124408 -3.892158 -0.5737505
v 2.124408 -4.124757 -0.5272307
v 2.124408 -1.922823 -0.6047635
v 2.124408 -4.124757 -0.5737505
v 2.124408 -1.922823 -0.6047635
v 2.124408 -1.922823 -0.5272307
v 0.9304018 -1.922823 -0.6047635
v 0.9304018 -1.922823 -0.5272307
v 0.04652691 -3.892158 -0.5737505
v 0.9148951 -3.861145 -0.6047635
v 0.9148951 -3.892158 -0.5737505
v 0.0155139 -3.861145 -0.6047635
v 2.124408 -1.922823 -0.6047635
v 2.946257 -3.861145 -0.6047635
v 2.124408 -3.861145 -0.6047635
v 2.946257 -0.9304018 -0.6047635
v 0.9304018 -1.922823 -0.6047635
v 0.0155139 -0.9304018 -0.6047635
v 0.9148951 -3.861145 -0.6047635
v 0.4031782 -2.636126 -0.6047635
v 0.4031782 -3.039296 -0.6047635
v 0.0155139 -3.861145 -0.6047635
v -0.3256311 -3.039296 -0.6822968
v -0.5582294 -2.620619 -0.6822968
v -0.3256311 -2.620619 -0.6822968
v -0.5582294 -3.039296 -0.6822968
v 0.1860862 -3.039296 -0.6822968
v 0.4031782 -2.636126 -0.6822968
v 0.4031782 -3.039296 -0.6822968
v 0.4031782 -2.636126 -0.6822968
v 0.1860862 -3.039296 -0.6822968
v 0.1860862 -2.636126 -0.6822968
v 0.0155139 -0.9304018 -0.6047635
v 0.1860862 -3.039296 -0.6047635
v 0.0155139 -3.861145 -0.6047635
v 0.1860862 -2.636126 -0.6047635
v 0.4031782 -3.039296 -0.6047635
v 0.9304018 -1.922823 -0.6047635
v 0.4031782 -2.636126 -0.6047635
v -3.039282 -3.861145 -0.6047635
v -0.3256311 -3.039296 -0.6047635
v -0.1240454 -3.861145 -0.6047635
v -0.5582294 -3.039296 -0.6047635
v -0.3256311 -2.620619 -0.6047635
v -0.1240454 -0.9304018 -0.6047635
v -3.054789 -0.9304018 -0.6047635
v -0.5582294 -2.620619 -0.6047635
v -0.1240454 -0.9304018 -0.6047635
v -0.5582294 -2.620619 -0.6047635
v -3.054789 -0.9304018 -0.6047635
v -0.3256311 -2.620619 -0.6047635
v -0.5582294 -3.039296 -0.6047635
v -0.3256311 -3.039296 -0.6822968
v -0.3256311 -3.039296 -0.6047635
v -0.5582294 -3.039296 -0.6822968
v -0.3256311 -3.039296 -0.6047635
v -0.3256311 -2.620619 -0.6822968
v -0.3256311 -2.620619 -0.6047635
v -0.3256311 -3.039296 -0.6822968
v -0.3256311 -2.620619 -0.6047635
v -0.5582294 -2.620619 -0.6822968
v -0.5582294 -2.620619 -0.6047635
v -0.5582294 -2.620619 -0.6822968
v -0.3256311 -2.620619 -0.6047635
v -0.3256311 -2.620619 -0.6822968
v -0.5582294 -2.620619 -0.6047635
v -0.5582294 -3.039296 -0.6822968
v -0.5582294 -3.039296 -0.6047635
v -0.5582294 -3.039296 -0.6822968
v -0.5582294 -2.620619 -0.6047635
v -0.5582294 -2.620619 -0.6822968
v 0.1860862 -2.636126 -0.6047635
v 0.1860862 -3.039296 -0.6822968
v 0.1860862 -3.039296 -0.6047635
v 0.1860862 -2.636126 -0.6822968
v 0.1860862 -3.039296 -0.6047635
v 0.4031782 -3.039296 -0.6822968
v 0.4031782 -3.039296 -0.6047635
v 0.1860862 -3.039296 -0.6822968
v 0.4031782 -3.039296 -0.6047635
v 0.4031782 -2.636126 -0.6822968
v 0.4031782 -2.636126 -0.6047635
v 0.4031782 -3.039296 -0.6822968
v 0.4031782 -2.636126 -0.6047635
v 0.1860862 -2.636126 -0.6822968
v 0.1860862 -2.636126 -0.6047635
v 0.1860862 -2.636126 -0.6822968
v 0.4031782 -2.636126 -0.6047635
v 0.4031782 -2.636126 -0.6822968
v -0.1240454 0.8838682 -0.6047635
v -0.1240454 -0.1085529 -0.6047635
v -1.023427 0.8063345 -0.6047635
v -1.984835 0.5427227 -0.6047635
v -3.054789 -0.1240597 -0.6047635
v -0.0465126 0.8838682 -0.7133098
v -0.1240454 -0.1085529 -0.6047635
v -0.1240454 0.8838682 -0.6047635
v -0.0465126 -0.1395664 -0.7133098
v 0.0155139 -0.1085529 -0.6047635
v -0.0465126 0.8838682 -0.7133098
v 0.0155139 0.8838682 -0.6047635
v -0.0465126 -0.1395664 -0.7133098
v 2.946257 -0.1240597 -0.6047635
v 0.0155139 -0.1085529 -0.6047635
v 1.876303 0.5427227 -0.6047635
v 0.9148951 0.8063345 -0.6047635
v 0.0155139 0.8838682 -0.6047635
v 7.939375 4.093729 0.6047497
v 6.838408 -4.124757 0.6047497
v 6.838408 4.093729 0.6047497
v 7.939375 -4.124757 0.6047497
v 4.760527 4.093729 0.3566446
v 6.838408 -4.124757 0.3566446
v 4.760527 -4.124757 0.3566446
v 6.838408 4.093729 0.3566446
v -7.923854 4.093729 0.6047497
v -6.931433 -4.124757 0.6047497
v -7.923854 -4.124757 0.6047497
v -6.931433 4.093729 0.6047497
v 6.838408 -4.124757 0.6047497
v 6.838408 4.093729 0.3566446
v 6.838408 4.093729 0.6047497
v 6.838408 -4.124757 0.3566446
v -6.931433 4.093729 0.6047497
v -6.931433 -4.124757 0.3566446
v -6.931433 -4.124757 0.6047497
v -6.931433 4.093729 0.3566446
v -6.931433 4.093729 0.3566446
v -4.853552 -4.124757 0.3566446
v -6.931433 -4.124757 0.3566446
v -4.853552 4.093729 0.3566446
v -3.892144 4.093729 0.6047497
v -4.853552 -4.124757 0.6047497
v -4.853552 4.093729 0.6047497
v -3.892144 -4.124757 0.6047497
v 4.760527 4.093729 0.6047497
v 3.799119 -4.124757 0.6047497
v 3.799119 4.093729 0.6047497
v 4.760527 -4.124757 0.6047497
v -4.853552 4.093729 0.3566446
v -4.853552 -4.124757 0.6047497
v -4.853552 -4.124757 0.3566446
v -4.853552 4.093729 0.6047497
v 4.760527 -4.124757 0.3566446
v 4.760527 4.093729 0.6047497
v 4.760527 4.093729 0.3566446
v 4.760527 -4.124757 0.6047497
v 3.799119 -4.124757 -0.1240597
v 2.946257 -4.124757 -0.1240597
v 2.946257 0.1860714 -0.1240597
v 3.799119 2.791177 -0.1240597
v 2.946257 2.791177 -0.1240597
v 2.946257 3.442453 -0.1240597
v 3.799119 4.093729 -0.1240597
v 2.946257 4.093729 -0.1240597
v -3.892144 -4.124757 -0.1240597
v -3.892144 4.093729 0.6047497
v -3.892144 2.791177 -0.1240597
v -3.892144 -4.124757 0.6047497
v -3.892144 4.093729 -0.1240597
v 2.946257 0.1860714 -0.1240597
v 2.946257 -4.124757 -0.7443228
v 2.946257 0.1860714 -0.7443228
v 2.946257 -4.124757 -0.1240597
v 2.946257 2.791177 -0.7443228
v 2.946257 2.791177 -0.1240597
v -3.039282 -4.124757 -0.1240597
v -3.039282 0.1860714 -0.7443228
v -3.039282 -4.124757 -0.7443228
v -3.039282 0.1860714 -0.1240597
v -3.039282 2.791177 -0.1240597
v -3.039282 2.791177 -0.7443228
v -3.892144 -4.124757 -0.1240597
v -3.892144 2.791177 -0.1240597
v -3.039282 0.1860714 -0.1240597
v -3.039282 -4.124757 -0.1240597
v -3.039282 2.791177 -0.1240597
v -3.039282 3.442453 -0.1240597
v -3.892144 4.093729 -0.1240597
v -3.039282 4.093729 -0.1240597
v 3.799119 -4.124757 -0.1240597
v 3.799119 4.093729 0.6047497
v 3.799119 -4.124757 0.6047497
v 3.799119 2.791177 -0.1240597
v 3.799119 4.093729 -0.1240597
v 1.116481 1.038934 -0.7443228
v -0.0465126 1.14748 -0.7443228
v -0.0465126 2.791177 -0.7443228
v 2.946257 2.791177 -0.7443228
v 2.155421 0.713295 -0.7443228
v 2.946257 0.1860714 -0.7443228
v -0.0465126 1.14748 -0.7443228
v -1.209506 1.038934 -0.7443228
v -0.0465126 2.791177 -0.7443228
v -3.039282 2.791177 -0.7443228
v -2.248446 0.713295 -0.7443228
v -3.039282 0.1860714 -0.7443228
v -3.039282 3.442453 -0.1240597
v 2.946257 4.093729 -0.1240597
v 2.946257 3.442453 -0.1240597
v -3.039282 4.093729 -0.1240597
v 7.939375 2.77567 -0.1395664
v 7.939375 3.442453 0.7598152
v 7.939375 3.442453 -0.1395664
v 7.939375 2.77567 0.7598152
v -3.039282 2.77567 0.7598152
v -7.923854 3.442453 0.7598152
v -3.039282 3.442453 0.7598152
v -7.923854 2.77567 0.7598152
v -3.039282 2.77567 -0.1395664
v -7.923854 2.77567 0.7598152
v -3.039282 2.77567 0.7598152
v -7.923854 2.77567 -0.1395664
v 2.946257 2.77567 -0.7598295
v -3.039282 2.77567 -0.7443228
v 2.946257 2.77567 -0.1395664
v 2.946257 2.77567 0.7598152
v 7.939375 2.77567 -0.1395664
v 7.939375 2.77567 0.7598152
v 6.838408 1.64369 0.3566446
v 6.838408 1.876288 0.5427227
v 6.838408 1.876288 0.3566446
v 6.838408 1.64369 0.5427227
v 4.760527 1.876288 0.3566446
v 6.838408 1.876288 0.5427227
v 4.760527 1.876288 0.5427227
v 6.838408 1.876288 0.3566446
v -4.853552 1.64369 0.5427227
v -6.931433 1.876288 0.5427227
v -4.853552 1.876288 0.5427227
v -6.931433 1.64369 0.5427227
v -4.853552 1.64369 0.3566446
v -6.931433 1.64369 0.5427227
v -4.853552 1.64369 0.5427227
v -6.931433 1.64369 0.3566446
v -6.931433 1.876288 0.3566446
v -4.853552 1.876288 0.5427227
v -6.931433 1.876288 0.5427227
v -4.853552 1.876288 0.3566446
v 6.838408 1.64369 0.5427227
v 4.760527 1.876288 0.5427227
v 6.838408 1.876288 0.5427227
v 4.760527 1.64369 0.5427227
v 6.838408 1.64369 0.3566446
v 4.760527 1.64369 0.5427227
v 6.838408 1.64369 0.5427227
v 4.760527 1.64369 0.3566446
v 7.939375 2.77567 0.7598152
v 2.946257 3.442453 0.7598152
v 7.939375 3.442453 0.7598152
v 2.946257 2.77567 0.7598152
v -3.039282 3.442453 0.7598152
v -3.039282 2.77567 -0.1395664
v -3.039282 2.77567 0.7598152
v -3.039282 3.442453 -0.1395664
v 2.946257 2.77567 0.7598152
v 2.946257 3.442453 -0.1240597
v 2.946257 3.442453 0.7598152
v 2.946257 2.77567 -0.1395664
v -3.039282 3.442453 -0.1395664
v 2.946257 2.77567 -0.1395664
v -3.039282 2.77567 -0.1395664
v 2.946257 3.442453 -0.1240597
v 2.946257 -0.1240597 -0.1240597
v 1.876303 0.5427227 -0.7443228
v 1.876303 0.5427227 -0.1240597
v 2.946257 -0.1240597 -0.7443228
v 0.9148951 0.8063345 -0.1240597
v 1.876303 0.5427227 -0.7443228
v 0.9148951 0.8063345 -0.7443228
v 1.876303 0.5427227 -0.1240597
v -1.00792 0.8063345 -0.1240597
v -0.0465126 0.8838682 -0.7443228
v -1.00792 0.8063345 -0.7443228
v -0.0465126 0.8838682 -0.1240597
v -1.969328 0.5427227 -0.1240597
v -3.039282 -0.1240597 -0.7443228
v -3.039282 -0.1240597 -0.1240597
v -1.969328 0.5427227 -0.7443228
v -1.969328 0.5427227 -0.1240597
v -1.00792 0.8063345 -0.7443228
v -1.969328 0.5427227 -0.7443228
v -1.00792 0.8063345 -0.1240597
v -0.0465126 0.8838682 -0.1240597
v 0.9148951 0.8063345 -0.7443228
v -0.0465126 0.8838682 -0.7443228
v 0.9148951 0.8063345 -0.1240597
v 0.9148951 0.8063345 -0.1240597
v -0.0465126 1.14748 -0.1240597
v 1.116481 1.038934 -0.1240597
v -0.0465126 0.8838682 -0.1240597
v -1.00792 0.8063345 -0.1240597
v -1.209506 1.038934 -0.1240597
v 1.876303 0.5427227 -0.1240597
v 2.155421 0.713295 -0.1240597
v -1.969328 0.5427227 -0.1240597
v -2.248446 0.713295 -0.1240597
v -3.039282 0.1860714 -0.1240597
v -3.039282 -0.1240597 -0.1240597
v 2.946257 0.1860714 -0.1240597
v 2.946257 -0.1240597 -0.1240597
v -3.039282 0.1860714 -0.1240597
v -2.248446 0.713295 -0.7443228
v -2.248446 0.713295 -0.1240597
v -3.039282 0.1860714 -0.7443228
v -2.248446 0.713295 -0.1240597
v -1.209506 1.038934 -0.7443228
v -1.209506 1.038934 -0.1240597
v -2.248446 0.713295 -0.7443228
v -1.209506 1.038934 -0.1240597
v -0.0465126 1.14748 -0.7443228
v -0.0465126 1.14748 -0.1240597
v -1.209506 1.038934 -0.7443228
v -0.0465126 1.14748 -0.1240597
v 1.116481 1.038934 -0.7443228
v 1.116481 1.038934 -0.1240597
v -0.0465126 1.14748 -0.7443228
v 1.116481 1.038934 -0.1240597
v 2.155421 0.713295 -0.7443228
v 2.155421 0.713295 -0.1240597
v 1.116481 1.038934 -0.7443228
v 2.155421 0.713295 -0.1240597
v 2.946257 0.1860714 -0.7443228
v 2.946257 0.1860714 -0.1240597
v 2.155421 0.713295 -0.7443228
v -0.0465126 -0.1395664 -0.7133098
v -0.1240454 -0.9304018 -0.6047635
v -0.1240454 -0.1085529 -0.6047635
v -0.0465126 -0.9614148 -0.7133098
v 0.0155139 -0.9304018 -0.6047635
v -0.0465126 -0.1395664 -0.7133098
v 0.0155139 -0.1085529 -0.6047635
v -0.0465126 -0.9614148 -0.7133098
v -1.535144 -0.1240597 -0.6047635
v -1.628183 -0.9304018 -0.6047635
v -1.628183 -0.1240597 -0.6047635
v -1.535144 -0.9304018 -0.6047635
v -2.263953 -0.1240597 -0.6047635
v -2.372499 -0.9304018 -0.6047635
v -2.372499 -0.1240597 -0.6047635
v -2.263953 -0.9304018 -0.6047635
v -0.8063345 -0.1240597 -0.6047635
v -0.899374 -0.9304018 -0.6047635
v -0.899374 -0.1240597 -0.6047635
v -0.8063345 -0.9304018 -0.6047635
v 1.535158 -0.1240597 -0.6047635
v 1.442119 -0.9304018 -0.6047635
v 1.442119 -0.1240597 -0.6047635
v 1.535158 -0.9304018 -0.6047635
v 0.8063493 -0.1240597 -0.6047635
v 0.697803 -0.9304018 -0.6047635
v 0.697803 -0.1240597 -0.6047635
v 0.8063493 -0.9304018 -0.6047635
v 2.263968 -0.1240597 -0.6047635
v 2.170928 -0.9304018 -0.6047635
v 2.170928 -0.1240597 -0.6047635
v 2.263968 -0.9304018 -0.6047635
v 2.263968 -0.1240597 -0.6047635
v 2.263968 -0.9304018 -0.7908425
v 2.263968 -0.9304018 -0.6047635
v 2.263968 -0.1240597 -0.7908425
v -0.1240454 -0.9304018 -0.6047635
v -0.1240454 -0.1085529 -0.7908425
v -0.1240454 -0.1085529 -0.6047635
v -0.1240454 -0.9304018 -0.7908425
v -0.8063345 -0.1240597 -0.6047635
v -0.8063345 -0.9304018 -0.7908425
v -0.8063345 -0.9304018 -0.6047635
v -0.8063345 -0.1240597 -0.7908425
v -2.263953 -0.1240597 -0.6047635
v -2.263953 -0.9304018 -0.7908425
v -2.263953 -0.9304018 -0.6047635
v -2.263953 -0.1240597 -0.7908425
v -1.628183 -0.9304018 -0.6047635
v -1.628183 -0.1240597 -0.7908425
v -1.628183 -0.1240597 -0.6047635
v -1.628183 -0.9304018 -0.7908425
v -2.372499 -0.9304018 -0.6047635
v -2.372499 -0.1240597 -0.7908425
v -2.372499 -0.1240597 -0.6047635
v -2.372499 -0.9304018 -0.7908425
v -1.535144 -0.1240597 -0.6047635
v -1.535144 -0.9304018 -0.7908425
v -1.535144 -0.9304018 -0.6047635
v -1.535144 -0.1240597 -0.7908425
v -0.899374 -0.9304018 -0.6047635
v -0.899374 -0.1240597 -0.7908425
v -0.899374 -0.1240597 -0.6047635
v -0.899374 -0.9304018 -0.7908425
v 0.8063493 -0.1240597 -0.6047635
v 0.8063493 -0.9304018 -0.7908425
v 0.8063493 -0.9304018 -0.6047635
v 0.8063493 -0.1240597 -0.7908425
v 1.442119 -0.9304018 -0.6047635
v 1.442119 -0.1240597 -0.7908425
v 1.442119 -0.1240597 -0.6047635
v 1.442119 -0.9304018 -0.7908425
v 0.0155139 -0.1085529 -0.6047635
v 0.0155139 -0.9304018 -0.7908425
v 0.0155139 -0.9304018 -0.6047635
v 0.0155139 -0.1085529 -0.7908425
v 0.697803 -0.9304018 -0.6047635
v 0.697803 -0.1240597 -0.7908425
v 0.697803 -0.1240597 -0.6047635
v 0.697803 -0.9304018 -0.7908425
v 1.535158 -0.1240597 -0.6047635
v 1.535158 -0.9304018 -0.7908425
v 1.535158 -0.9304018 -0.6047635
v 1.535158 -0.1240597 -0.7908425
v 2.170928 -0.9304018 -0.6047635
v 2.170928 -0.1240597 -0.7908425
v 2.170928 -0.1240597 -0.6047635
v 2.170928 -0.9304018 -0.7908425
v -3.039282 -4.124757 -0.5737505
v -0.1395521 -3.892158 -0.5737505
v -0.1395521 -4.124757 -0.5737505
v -3.039282 -3.892158 -0.5737505
v -0.0465126 -4.124757 -0.7133098
v -0.1395521 -4.124757 -0.5737505
v -0.1395521 -3.892158 -0.5737505
v -0.1240454 -3.861145 -0.6047635
v -0.0465126 -3.892158 -0.7133098
v 2.946257 -3.892158 -0.5737505
v 2.124408 -4.124757 -0.5737505
v 2.124408 -3.892158 -0.5737505
v 2.946257 -4.124757 -0.5737505
v -0.0465126 -4.124757 -0.7133098
v 0.04652691 -3.892158 -0.5737505
v 0.04652691 -4.124757 -0.5737505
v 0.0155139 -3.861145 -0.6047635
v -0.0465126 -3.892158 -0.7133098
v 0.04652691 -3.892158 -0.5737505
v 0.9148951 -4.124757 -0.5737505
v 0.04652691 -4.124757 -0.5737505
v 0.9148951 -3.892158 -0.5737505
v 0.4186845 -2.946257 -0.6512833
v 0.1860862 -2.992776 -0.6512833
v 0.1860862 -2.946257 -0.6512833
v 0.4186845 -2.992776 -0.6512833
v 0.1860862 -2.946257 -0.6512833
v 0.4186845 -2.946257 -0.6822968
v 0.4186845 -2.946257 -0.6512833
v 0.1860862 -2.946257 -0.6822968
v 0.4186845 -2.992776 -0.6512833
v 0.1860862 -2.992776 -0.6822968
v 0.1860862 -2.992776 -0.6512833
v 0.4186845 -2.992776 -0.6822968
v -0.3256311 -2.946257 -0.6512833
v -0.5582294 -2.992776 -0.6512833
v -0.5582294 -2.946257 -0.6512833
v -0.3256311 -2.992776 -0.6512833
v -0.5582294 -2.946257 -0.6512833
v -0.3256311 -2.946257 -0.6822968
v -0.3256311 -2.946257 -0.6512833
v -0.5582294 -2.946257 -0.6822968
v -0.3256311 -2.992776 -0.6512833
v -0.5582294 -2.992776 -0.6822968
v -0.5582294 -2.992776 -0.6512833
v -0.3256311 -2.992776 -0.6822968
v 0.4186845 -2.853218 -0.6512833
v 0.1860862 -2.884231 -0.6512833
v 0.1860862 -2.853218 -0.6512833
v 0.4186845 -2.884231 -0.6512833
v 0.1860862 -2.853218 -0.6512833
v 0.4186845 -2.837711 -0.6822968
v 0.4186845 -2.853218 -0.6512833
v 0.1860862 -2.837711 -0.6822968
v 0.4186845 -2.884231 -0.6512833
v 0.1860862 -2.899737 -0.6822968
v 0.1860862 -2.884231 -0.6512833
v 0.4186845 -2.899737 -0.6822968
v -0.3256311 -2.853218 -0.6512833
v -0.5582294 -2.884231 -0.6512833
v -0.5582294 -2.853218 -0.6512833
v -0.3256311 -2.884231 -0.6512833
v -0.5582294 -2.853218 -0.6512833
v -0.3256311 -2.837711 -0.6822968
v -0.3256311 -2.853218 -0.6512833
v -0.5582294 -2.837711 -0.6822968
v -0.3256311 -2.884231 -0.6512833
v -0.5582294 -2.899737 -0.6822968
v -0.5582294 -2.884231 -0.6512833
v -0.3256311 -2.899737 -0.6822968
v 2.310487 -0.9769216 -0.7908425
v 3.101323 0.1085386 -0.7908425
v 3.085816 -0.9769216 -0.7908425
v 2.310487 0.1085386 -0.7908425
v 1.519652 -0.9769216 -0.7908425
v 1.519652 0.1085386 -0.7908425
v -0.837348 -0.9769216 -0.7908425
v -0.0465126 0.1085386 -0.7908425
v -0.06201935 -0.9769216 -0.7908425
v -0.837348 0.1085386 -0.7908425
v -1.628183 -0.9769216 -0.7908425
v -1.628183 0.1085386 -0.7908425
v -2.419019 -0.9769216 -0.7908425
v -1.628183 0.1085386 -0.7908425
v -1.628183 -0.9769216 -0.7908425
v -2.419019 0.1085386 -0.7908425
v -3.194348 -0.9769216 -0.7908425
v -3.194348 0.1085386 -0.7908425
v 0.7288165 -0.9769216 -0.7908425
v 1.519652 0.1085386 -0.7908425
v 1.519652 -0.9769216 -0.7908425
v 0.7443228 0.1085386 -0.7908425
v -0.06201935 -0.9769216 -0.7908425
v -0.0465126 0.1085386 -0.7908425
v 1.271546 -2.899737 -0.5737505
v 1.038948 -3.054803 -0.5737505
v 1.038948 -2.899737 -0.5737505
v 1.271546 -3.054803 -0.5737505
v 1.271546 -2.899737 -0.5427375
v 1.287053 -3.07031 -0.5427375
v 1.271546 -3.054803 -0.5427375
v 1.287053 -2.884231 -0.5427375
v 1.038948 -2.899737 -0.5427375
v 1.023441 -2.884231 -0.5427375
v 1.038948 -3.054803 -0.5427375
v 1.023441 -3.07031 -0.5427375
v 1.287053 -2.884231 -0.5427375
v 1.287053 -3.07031 -0.5892572
v 1.287053 -3.07031 -0.5427375
v 1.287053 -2.884231 -0.5892572
v 1.023441 -2.884231 -0.5427375
v 1.287053 -2.884231 -0.5892572
v 1.287053 -2.884231 -0.5427375
v 1.023441 -2.884231 -0.5892572
v 1.023441 -3.07031 -0.5427375
v 1.023441 -2.884231 -0.5892572
v 1.023441 -2.884231 -0.5427375
v 1.023441 -3.07031 -0.5892572
v 1.287053 -3.07031 -0.5427375
v 1.023441 -3.07031 -0.5892572
v 1.023441 -3.07031 -0.5427375
v 1.287053 -3.07031 -0.5892572
v 1.271546 -3.054803 -0.5427375
v 1.271546 -2.899737 -0.5737505
v 1.271546 -2.899737 -0.5427375
v 1.271546 -3.054803 -0.5737505
v 1.271546 -2.899737 -0.5427375
v 1.038948 -2.899737 -0.5737505
v 1.038948 -2.899737 -0.5427375
v 1.271546 -2.899737 -0.5737505
v 1.038948 -2.899737 -0.5427375
v 1.038948 -3.054803 -0.5737505
v 1.038948 -3.054803 -0.5427375
v 1.038948 -2.899737 -0.5737505
v 1.038948 -3.054803 -0.5427375
v 1.271546 -3.054803 -0.5737505
v 1.271546 -3.054803 -0.5427375
v 1.038948 -3.054803 -0.5737505
v 1.271546 -2.946257 -0.5582438
v 1.038948 -2.992776 -0.5582438
v 1.038948 -2.946257 -0.5582438
v 1.271546 -2.992776 -0.5582438
v 1.038948 -2.946257 -0.5582438
v 1.271546 -2.946257 -0.5892572
v 1.271546 -2.946257 -0.5582438
v 1.038948 -2.946257 -0.5892572
v 1.271546 -2.992776 -0.5582438
v 1.038948 -2.992776 -0.5892572
v 1.038948 -2.992776 -0.5582438
v 1.271546 -2.992776 -0.5892572
v 2.077888 -2.000356 -0.5737505
v 0.9769216 -3.861145 -0.5737505
v 0.9769216 -2.000356 -0.5737505
v 2.077888 -3.861145 -0.5737505
v 2.077888 -2.000356 -0.635777
v 0.9769216 -2.000356 -0.635777
v 0.9769216 -3.861145 -0.635777
v 2.077888 -3.861145 -0.635777
v 2.077888 -2.000356 -0.635777
v 0.9769216 -2.000356 -0.5737505
v 0.9769216 -2.000356 -0.635777
v 2.077888 -2.000356 -0.5737505
v 0.9769216 -2.000356 -0.635777
v 0.9769216 -3.861145 -0.5737505
v 0.9769216 -3.861145 -0.635777
v 2.077888 -3.861145 -0.635777
v 2.077888 -2.000356 -0.5737505
v 2.077888 -2.000356 -0.635777
v 2.077888 -3.861145 -0.5737505
v 2.077888 -4.124757 -0.5737505
v 0.9769216 -3.861145 -0.5737505
v 2.077888 -3.861145 -0.5737505
v 0.9769216 -4.124757 -0.5737505
v 2.077888 -4.124757 -0.635777
v 2.077888 -3.861145 -0.635777
v 0.9769216 -3.861145 -0.635777
v 0.9769216 -4.124757 -0.635777
v 2.077888 -4.124757 -0.635777
v 2.077888 -3.861145 -0.5737505
v 2.077888 -3.861145 -0.635777
v 2.077888 -4.124757 -0.5737505
v 0.9769216 -3.861145 -0.635777
v 0.9769216 -4.124757 -0.5737505
v 0.9769216 -4.124757 -0.635777
v 0.9769216 -3.861145 -0.5737505
v 0.9769216 -4.124757 -0.635777
v 2.077888 -4.124757 -0.5737505
v 2.077888 -4.124757 -0.635777
v 0.9769216 -4.124757 -0.5737505
vt 0.1868673 0.4524429
vt 0.2200643 0.4524429
vt 0.1868673 0.4524429
vt 0.2200643 0.4524429
vt 0.1868673 0.4524429
vt 0.1868673 0.4897894
vt 0.1868673 0.4524429
vt 0.1868673 0.4897894
vt 0.2200643 0.4524429
vt 0.1868673 0.4524429
vt 0.2200643 0.4524429
vt 0.1868673 0.4524429
vt 0.1868673 0.4171711
vt 0.1868673 0.4275451
vt 0.1868673 0.4171711
vt 0.1868673 0.4275451
vt 0.2076154 0.4399939
vt 0.2076154 0.4399939
vt 0.1868673 0.4399939
vt 0.1827177 0.4399939
vt 0.1827177 0.4399939
vt 0.2076154 0.4275451
vt 0.2076154 0.4275451
vt 0.1868673 0.4275451
vt 0.1827177 0.4275451
vt 0.1827177 0.4275451
vt 0.2076154 0.4524429
vt 0.1868673 0.4524429
vt 0.1868673 0.4524429
vt 0.2076154 0.4524429
vt 0.1868673 0.4524429
vt 0.1827177 0.4524429
vt 0.1827177 0.4524429
vt 0.1827177 0.4524429
vt 0.1827177 0.4524429
vt 0.1868673 0.4524429
vt 0.2076154 0.4524429
vt 0.2076154 0.4524429
vt 0.211765 0.4399939
vt 0.2138398 0.4399939
vt 0.211765 0.4275451
vt 0.2138398 0.4275451
vt 0.2076154 0.4524429
vt 0.2076154 0.4524429
vt 0.1827177 0.4524429
vt 0.1868673 0.4524429
vt 0.1827177 0.4524429
vt 0.1868673 0.4524429
vt 0.1868673 0.4524429
vt 0.2076154 0.4524429
vt 0.1868673 0.4524429
vt 0.1827177 0.4524429
vt 0.2076154 0.4524429
vt 0.1827177 0.4524429
vt 0.211765 0.4773405
vt 0.2138398 0.4773405
vt 0.211765 0.4628169
vt 0.2138398 0.4628169
vt 0.1868673 0.4524429
vt 0.1868673 0.4399939
vt 0.1868673 0.4399939
vt 0.1868673 0.4524429
vt 0.2076154 0.4275451
vt 0.1868673 0.4171711
vt 0.1868673 0.4275451
vt 0.2200643 0.4171711
vt 0.2076154 0.4399939
vt 0.2200643 0.4524429
vt 0.1868673 0.4399939
vt 0.1993162 0.4462184
vt 0.1951666 0.4462184
vt 0.1868673 0.4524429
vt 0.1951666 0.4545176
vt 0.1993162 0.4586672
vt 0.1993162 0.4545176
vt 0.1951666 0.4586672
vt 0.1951666 0.4482932
vt 0.1993162 0.4462184
vt 0.1951666 0.4462184
vt 0.1993162 0.4462184
vt 0.1951666 0.4482932
vt 0.1993162 0.4482932
vt 0.2200643 0.4524429
vt 0.1951666 0.4482932
vt 0.1868673 0.4524429
vt 0.1993162 0.4482932
vt 0.1951666 0.4462184
vt 0.2076154 0.4399939
vt 0.1993162 0.4462184
vt 0.1868673 0.4897894
vt 0.1951666 0.4545176
vt 0.1868673 0.4524429
vt 0.1951666 0.4586672
vt 0.1993162 0.4545176
vt 0.2200643 0.4524429
vt 0.2200643 0.4897894
vt 0.1993162 0.4586672
vt 0.2200643 0.4524429
vt 0.1993162 0.4586672
vt 0.2200643 0.4897894
vt 0.1993162 0.4545176
vt 0.211765 0.4462184
vt 0.211765 0.4482932
vt 0.211765 0.4482932
vt 0.211765 0.4462184
vt 0.1951666 0.4524429
vt 0.1993162 0.4524429
vt 0.1993162 0.4524429
vt 0.1951666 0.4524429
vt 0.211765 0.4545176
vt 0.211765 0.4586672
vt 0.211765 0.4586672
vt 0.211765 0.4586672
vt 0.211765 0.4545176
vt 0.211765 0.4545176
vt 0.1993162 0.4524429
vt 0.1951666 0.4524429
vt 0.1951666 0.4524429
vt 0.1951666 0.4524429
vt 0.1993162 0.4524429
vt 0.1993162 0.4524429
vt 0.1993162 0.4524429
vt 0.1951666 0.4524429
vt 0.1951666 0.4524429
vt 0.1993162 0.4524429
vt 0.211765 0.4545176
vt 0.211765 0.4565925
vt 0.211765 0.4565925
vt 0.211765 0.4545176
vt 0.1951666 0.4524429
vt 0.1993162 0.4524429
vt 0.1993162 0.4524429
vt 0.1951666 0.4524429
vt 0.211765 0.4462184
vt 0.211765 0.4482932
vt 0.211765 0.4482932
vt 0.211765 0.4482932
vt 0.211765 0.4462184
vt 0.211765 0.4462184
vt 0.2408124 0.4524429
vt 0.2304383 0.4524429
vt 0.2408124 0.4628169
vt 0.2366627 0.4773405
vt 0.2304383 0.4897894
vt 0.2408124 0.4524429
vt 0.2304383 0.4524429
vt 0.2408124 0.4524429
vt 0.2304383 0.4524429
vt 0.2304383 0.4524429
vt 0.2408124 0.4524429
vt 0.2408124 0.4524429
vt 0.2304383 0.4524429
vt 0.2304383 0.4171711
vt 0.2304383 0.4524429
vt 0.2366627 0.4296199
vt 0.2408124 0.4399939
vt 0.2408124 0.4524429
vt 0.493939 0.7408412
vt 0.4628169 0.5105374
vt 0.4628169 0.7408412
vt 0.493939 0.5105374
vt 0.4047222 0.7408412
vt 0.4628169 0.5105374
vt 0.4047222 0.5105374
vt 0.4628169 0.7408412
vt 0.2532612 0.7408412
vt 0.2823085 0.5105374
vt 0.2532612 0.5105374
vt 0.2823085 0.7408412
vt 0.493939 0.5105374
vt 0.4897894 0.7408412
vt 0.493939 0.7408412
vt 0.4897894 0.5105374
vt 0.4565925 0.7408412
vt 0.4628169 0.5105374
vt 0.4565925 0.5105374
vt 0.4628169 0.7408412
vt 0.2823085 0.7408412
vt 0.3383284 0.5105374
vt 0.2823085 0.5105374
vt 0.3383284 0.7408412
vt 0.3653009 0.7408412
vt 0.3383284 0.5105374
vt 0.3383284 0.7408412
vt 0.3653009 0.5105374
vt 0.4047222 0.7408412
vt 0.3798245 0.5105374
vt 0.3798245 0.7408412
vt 0.4047222 0.5105374
vt 0.4897894 0.7408412
vt 0.493939 0.5105374
vt 0.4897894 0.5105374
vt 0.493939 0.7408412
vt 0.4628169 0.5105374
vt 0.4565925 0.7408412
vt 0.4628169 0.7408412
vt 0.4565925 0.5105374
vt 0.3798245 0.5105374
vt 0.352852 0.5105374
vt 0.352852 0.6308764
vt 0.3798245 0.7055694
vt 0.352852 0.7055694
vt 0.2864581 0.7221679
vt 0.3798245 0.7408412
vt 0.2864581 0.7408412
vt 0.4773405 0.5105374
vt 0.4565925 0.7408412
vt 0.4773405 0.7055694
vt 0.4565925 0.5105374
vt 0.4773405 0.7408412
vt 0.4752657 0.6308764
vt 0.4565925 0.5105374
vt 0.4565925 0.6308764
vt 0.4752657 0.5105374
vt 0.4565925 0.7055694
vt 0.4752657 0.7055694
vt 0.4773405 0.5105374
vt 0.493939 0.6308764
vt 0.493939 0.5105374
vt 0.4773405 0.6308764
vt 0.4773405 0.7055694
vt 0.493939 0.7055694
vt 0.3653009 0.5105374
vt 0.3653009 0.7055694
vt 0.3901986 0.6308764
vt 0.3901986 0.5105374
vt 0.3901986 0.7055694
vt 0.4565925 0.7221679
vt 0.3653009 0.7408412
vt 0.4565925 0.7408412
vt 0.4752657 0.5105374
vt 0.493939 0.7408412
vt 0.493939 0.5105374
vt 0.4752657 0.7055694
vt 0.4752657 0.7408412
vt 0.4275451 0.6557741
vt 0.4752657 0.6578488
vt 0.4752657 0.7055694
vt 0.352852 0.7055694
vt 0.3549268 0.6433252
vt 0.352852 0.6308764
vt 0.4752657 0.6578488
vt 0.4399939 0.6557741
vt 0.4752657 0.7055694
vt 0.3901986 0.7055694
vt 0.4109467 0.6433252
vt 0.3901986 0.6308764
vt 0.4565925 0.7221679
vt 0.2864581 0.7408412
vt 0.2864581 0.7221679
vt 0.4565925 0.7408412
vt 0.6682229 0.0831269
vt 0.6765221 0.07690246
vt 0.6682229 0.07690246
vt 0.6765221 0.0831269
vt 0.6723725 0.05615438
vt 0.6640733 0.0125834
vt 0.6640733 0.05615438
vt 0.6723725 0.0125834
vt 0.6682229 0.1204734
vt 0.6765221 0.1661192
vt 0.6765221 0.1204734
vt 0.6682229 0.1661192
vt 0.6640733 0.07067803
vt 0.6640733 0.1204734
vt 0.6682229 0.07067803
vt 0.6765221 0.07067803
vt 0.6682229 0.02295744
vt 0.6765221 0.02295744
vt 0.6723725 0.09557574
vt 0.6765221 0.09142613
vt 0.6723725 0.09142613
vt 0.6765221 0.09557574
vt 0.6682229 0.05200476
vt 0.6640733 0.03333148
vt 0.6640733 0.05200476
vt 0.6682229 0.03333148
vt 0.6785969 0.03955591
vt 0.6765221 0.02088263
vt 0.6765221 0.03955591
vt 0.6785969 0.02088263
vt 0.6723725 0.1370719
vt 0.6765221 0.1557452
vt 0.6765221 0.1370719
vt 0.6723725 0.1557452
vt 0.6682229 0.1557452
vt 0.6640733 0.1370719
vt 0.6640733 0.1557452
vt 0.6682229 0.1370719
vt 0.6785969 0.1453711
vt 0.6765221 0.1246231
vt 0.6765221 0.1453711
vt 0.6785969 0.1246231
vt 0.6723725 0.03333148
vt 0.6765221 0.05200476
vt 0.6765221 0.03333148
vt 0.6723725 0.05200476
vt 0.6723725 0.1536704
vt 0.6640733 0.1080246
vt 0.6640733 0.1536704
vt 0.6723725 0.1080246
vt 0.6765221 0.07690246
vt 0.6682229 0.0831269
vt 0.6765221 0.0831269
vt 0.6682229 0.07690246
vt 0.6640733 0.0831269
vt 0.6723725 0.07690246
vt 0.6640733 0.07690246
vt 0.6723725 0.0831269
vt 0.6640733 0.05615438
vt 0.6433252 0.0831269
vt 0.6723725 0.05615438
vt 0.6433252 0.07690246
vt 0.6682229 0.07067803
vt 0.6640733 0.07690246
vt 0.6682229 0.07690246
vt 0.6640733 0.07067803
vt 0.6682229 0.08727651
vt 0.6640733 0.07690246
vt 0.6640733 0.08727651
vt 0.6682229 0.07690246
vt 0.6682229 0.1018002
vt 0.6640733 0.09557574
vt 0.6640733 0.1018002
vt 0.6682229 0.09557574
vt 0.6682229 0.1121742
vt 0.6640733 0.1204734
vt 0.6682229 0.1204734
vt 0.6640733 0.1121742
vt 0.6682229 0.1121742
vt 0.6640733 0.1018002
vt 0.6640733 0.1121742
vt 0.6682229 0.1018002
vt 0.6682229 0.09557574
vt 0.6640733 0.08727651
vt 0.6640733 0.09557574
vt 0.6682229 0.08727651
vt 0.6619985 0.1018002
vt 0.6723725 0.09765055
vt 0.6599237 0.09972536
vt 0.6723725 0.09972536
vt 0.6785969 0.1018002
vt 0.6806718 0.09972536
vt 0.6557741 0.103875
vt 0.6516244 0.1018002
vt 0.688971 0.103875
vt 0.688971 0.1018002
vt 0.699345 0.1080246
vt 0.699345 0.1121742
vt 0.6433252 0.1080246
vt 0.6433252 0.1121742
vt 0.6723725 0.1204734
vt 0.6765221 0.1163238
vt 0.6723725 0.1163238
vt 0.6765221 0.1204734
vt 0.6723725 0.1163238
vt 0.6765221 0.103875
vt 0.6723725 0.103875
vt 0.6765221 0.1163238
vt 0.6723725 0.103875
vt 0.6765221 0.09557574
vt 0.6723725 0.09557574
vt 0.6765221 0.103875
vt 0.6723725 0.09557574
vt 0.6765221 0.0831269
vt 0.6723725 0.0831269
vt 0.6765221 0.09557574
vt 0.6723725 0.0831269
vt 0.6765221 0.07482765
vt 0.6723725 0.07482765
vt 0.6765221 0.0831269
vt 0.6723725 0.07482765
vt 0.6765221 0.07067803
vt 0.6723725 0.07067803
vt 0.6765221 0.07482765
vt 0.3901986 0.948322
vt 0.3860489 0.9151251
vt 0.3860489 0.948322
vt 0.3901986 0.9109755
vt 0.3943482 0.9151251
vt 0.3901986 0.948322
vt 0.3943482 0.948322
vt 0.3901986 0.9109755
vt 0.3258795 0.948322
vt 0.3196551 0.9151251
vt 0.3196551 0.948322
vt 0.3258795 0.9151251
vt 0.2947574 0.948322
vt 0.2906078 0.9151251
vt 0.2906078 0.948322
vt 0.2947574 0.9151251
vt 0.3570016 0.948322
vt 0.352852 0.9151251
vt 0.352852 0.948322
vt 0.3570016 0.9151251
vt 0.4565925 0.948322
vt 0.4524429 0.9151251
vt 0.4524429 0.948322
vt 0.4565925 0.9151251
vt 0.4275451 0.948322
vt 0.4213207 0.9151251
vt 0.4213207 0.948322
vt 0.4275451 0.9151251
vt 0.4918642 0.948322
vt 0.4856398 0.9151251
vt 0.4856398 0.948322
vt 0.4897894 0.9151251
vt 0.3860489 0.948322
vt 0.3943482 0.9151251
vt 0.3860489 0.9151251
vt 0.3943482 0.948322
vt 0.3943482 0.9151251
vt 0.3860489 0.948322
vt 0.3943482 0.948322
vt 0.3860489 0.9151251
vt 0.3860489 0.948322
vt 0.3943482 0.9151251
vt 0.3860489 0.9151251
vt 0.3943482 0.948322
vt 0.3860489 0.948322
vt 0.3943482 0.9151251
vt 0.3860489 0.9151251
vt 0.3943482 0.948322
vt 0.3943482 0.9151251
vt 0.3860489 0.948322
vt 0.3943482 0.948322
vt 0.3860489 0.9151251
vt 0.3943482 0.9151251
vt 0.3860489 0.948322
vt 0.3943482 0.948322
vt 0.3860489 0.9151251
vt 0.3860489 0.948322
vt 0.3943482 0.9151251
vt 0.3860489 0.9151251
vt 0.3943482 0.948322
vt 0.3943482 0.9151251
vt 0.3860489 0.948322
vt 0.3943482 0.948322
vt 0.3860489 0.9151251
vt 0.3860489 0.948322
vt 0.3943482 0.9151251
vt 0.3860489 0.9151251
vt 0.3943482 0.948322
vt 0.3943482 0.9151251
vt 0.3860489 0.948322
vt 0.3943482 0.948322
vt 0.3860489 0.9151251
vt 0.3860489 0.948322
vt 0.3943482 0.9151251
vt 0.3860489 0.9151251
vt 0.3943482 0.948322
vt 0.3943482 0.9151251
vt 0.3860489 0.948322
vt 0.3943482 0.948322
vt 0.3860489 0.9151251
vt 0.3860489 0.948322
vt 0.3943482 0.9151251
vt 0.3860489 0.9151251
vt 0.3943482 0.948322
vt 0.3943482 0.9151251
vt 0.3860489 0.948322
vt 0.3943482 0.948322
vt 0.3860489 0.9151251
vt 0.9420976 0.1557452
vt 0.948322 0.0831269
vt 0.9420976 0.0831269
vt 0.948322 0.1557452
vt 0.9420976 0.07897726
vt 0.9420976 0.0831269
vt 0.948322 0.0831269
vt 0.948322 0.0831269
vt 0.948322 0.07897726
vt 0.948322 0.006358966
vt 0.9420976 0.02710705
vt 0.948322 0.02710705
vt 0.9420976 0.006358966
vt 0.9420976 0.0831269
vt 0.948322 0.07897726
vt 0.9420976 0.07897726
vt 0.948322 0.0831269
vt 0.948322 0.0831269
vt 0.948322 0.07897726
vt 0.9420976 0.05822919
vt 0.9420976 0.07897726
vt 0.948322 0.05822919
vt 0.9690701 0.04785514
vt 0.9690701 0.05407957
vt 0.9690701 0.05407957
vt 0.9690701 0.04785514
vt 0.9586961 0.1080246
vt 0.9586961 0.1163238
vt 0.9586961 0.1163238
vt 0.9586961 0.1080246
vt 0.9586961 0.04785514
vt 0.9586961 0.05407957
vt 0.9586961 0.05407957
vt 0.9586961 0.04785514
vt 0.9690701 0.04785514
vt 0.9690701 0.05407957
vt 0.9690701 0.05407957
vt 0.9690701 0.04785514
vt 0.9586961 0.1080246
vt 0.9586961 0.1163238
vt 0.9586961 0.1163238
vt 0.9586961 0.1080246
vt 0.9586961 0.04785514
vt 0.9586961 0.05407957
vt 0.9586961 0.05407957
vt 0.9586961 0.04785514
vt 0.9690701 0.04785514
vt 0.9690701 0.05407957
vt 0.9690701 0.05407957
vt 0.9690701 0.04785514
vt 0.9586961 0.1080246
vt 0.9586961 0.1163238
vt 0.9586961 0.1163238
vt 0.9586961 0.1080246
vt 0.9586961 0.04785514
vt 0.9586961 0.05407957
vt 0.9586961 0.05407957
vt 0.9586961 0.04785514
vt 0.9690701 0.04785514
vt 0.9690701 0.05407957
vt 0.9690701 0.05407957
vt 0.9690701 0.04785514
vt 0.9586961 0.1080246
vt 0.9586961 0.1163238
vt 0.9586961 0.1163238
vt 0.9586961 0.1080246
vt 0.9586961 0.04785514
vt 0.9586961 0.05407957
vt 0.9586961 0.05407957
vt 0.9586961 0.04785514
vt 0.1080246 0.6474748
vt 0.1204734 0.6848214
vt 0.1204734 0.6474748
vt 0.1080246 0.6848214
vt 0.09142613 0.6474748
vt 0.09142613 0.6848214
vt 0.1080246 0.6474748
vt 0.1204734 0.6848214
vt 0.1204734 0.6474748
vt 0.1080246 0.6848214
vt 0.09142613 0.6474748
vt 0.09142613 0.6848214
vt 0.1080246 0.6474748
vt 0.1204734 0.6848214
vt 0.1204734 0.6474748
vt 0.1080246 0.6848214
vt 0.09142613 0.6474748
vt 0.09142613 0.6848214
vt 0.1080246 0.6474748
vt 0.1204734 0.6848214
vt 0.1204734 0.6474748
vt 0.1080246 0.6848214
vt 0.09142613 0.6474748
vt 0.09142613 0.6848214
vt 0.04163072 0.6931206
vt 0.03125668 0.6848214
vt 0.03125668 0.6931206
vt 0.04163072 0.6848214
vt 0.04163072 0.6931206
vt 0.04370552 0.6848214
vt 0.04163072 0.6848214
vt 0.04370552 0.6931206
vt 0.03125668 0.6931206
vt 0.03125668 0.6931206
vt 0.03125668 0.6848214
vt 0.03125668 0.6848214
vt -0.01646392 0.6931206
vt -0.01438912 0.6848214
vt -0.01646392 0.6848214
vt -0.01438912 0.6931206
vt -0.0600349 0.7491404
vt -0.06833414 0.7449908
vt -0.06833414 0.7491404
vt -0.0600349 0.7449908
vt -0.01231431 0.6848214
vt -0.01438912 0.6931206
vt -0.01231431 0.6931206
vt -0.01438912 0.6848214
vt 0.04370552 0.7491404
vt 0.03125668 0.7449908
vt 0.03125668 0.7491404
vt 0.04370552 0.7449908
vt -0.01231431 0.6848214
vt -0.01438912 0.6931206
vt -0.01231431 0.6931206
vt -0.01438912 0.6848214
vt 0.04163072 0.7491404
vt 0.03125668 0.7491404
vt 0.03125668 0.7491404
vt 0.04163072 0.7491404
vt -0.01646392 0.6931206
vt -0.01438912 0.6848214
vt -0.01646392 0.6848214
vt -0.01438912 0.6931206
vt -0.0600349 0.7491404
vt -0.06833414 0.7491404
vt -0.06833414 0.7491404
vt -0.0600349 0.7491404
vt 0.04163072 0.7698885
vt 0.03125668 0.7698885
vt 0.03125668 0.7698885
vt 0.04163072 0.7698885
vt -0.0600349 0.7491404
vt -0.06833414 0.7491404
vt -0.06833414 0.7491404
vt -0.0600349 0.7491404
vt 0.04163072 0.7491404
vt 0.03125668 0.7491404
vt 0.03125668 0.7491404
vt 0.04163072 0.7491404
vt 0.07690246 0.7283924
vt 0.02918187 0.6516244
vt 0.02918187 0.7283924
vt 0.07690246 0.6516244
vt 0.07690246 0.7283924
vt 0.02918187 0.7283924
vt 0.02918187 0.6516244
vt 0.07690246 0.6516244
vt 0.07690246 0.7283924
vt 0.02918187 0.7283924
vt 0.02918187 0.7283924
vt 0.07690246 0.7283924
vt 0.02918187 0.7283924
vt 0.02918187 0.6516244
vt 0.02918187 0.6516244
vt 0.07690246 0.6516244
vt 0.07690246 0.7283924
vt 0.07690246 0.7283924
vt 0.07690246 0.6516244
vt 0.07690246 0.7221679
vt 0.02918187 0.732542
vt 0.07690246 0.732542
vt 0.02918187 0.7221679
vt 0.07690246 0.7221679
vt 0.07690246 0.732542
vt 0.02918187 0.732542
vt 0.02918187 0.7221679
vt 0.07690246 0.7221679
vt 0.07690246 0.732542
vt 0.07690246 0.732542
vt 0.07690246 0.7221679
vt 0.02918187 0.732542
vt 0.02918187 0.7221679
vt 0.02918187 0.7221679
vt 0.02918187 0.732542
vt 0.02918187 0.7221679
vt 0.07690246 0.7221679
vt 0.07690246 0.7221679
vt 0.02918187 0.7221679
vn 0.8729059 -0.04761302 0.4855599
vn 0.8729059 -0.04761302 0.4855599
vn 0.8729059 -0.04761302 0.4855599
vn 0.8729059 -0.04761302 0.4855599
vn 0.04761302 0.5554856 0.8301619
vn 0.04761302 0.5554856 0.8301619
vn 0.04761302 0.5554856 0.8301619
vn 0.04761302 0.5554856 0.8301619
vn -0.8094218 -0.04761302 0.5852943
vn -0.8094218 -0.04761302 0.5852943
vn -0.8094218 -0.04761302 0.5852943
vn -0.8094218 -0.04761302 0.5852943
vn 0.04761302 0.5554856 0.8301619
vn 0.04761302 0.5554856 0.8301619
vn 0.04761302 0.5554856 0.8301619
vn 0.04761302 0.5554856 0.8301619
vn 0.04761302 -0.04761302 0.9977304
vn 0.04761302 -0.04761302 0.9977304
vn 0.04761302 -0.04761302 0.9977304
vn 0.04761302 -0.04761302 0.9977304
vn 0.04761302 -0.04761302 0.9977304
vn 0.04761302 -0.04761302 0.9977304
vn 0.04761302 -0.04761302 0.9977304
vn 0.04761302 -0.04761302 0.9977304
vn 0.04761302 -0.04761302 0.9977304
vn 0.04761302 -0.04761302 0.9977304
vn -0.968132 -0.04761302 -0.2458728
vn -0.968132 -0.04761302 -0.2458728
vn -0.968132 -0.04761302 -0.2458728
vn -0.968132 -0.04761302 -0.2458728
vn -0.999874 -0.01587099 -0.000346655
vn -0.999874 -0.01587099 -0.000346655
vn -0.999874 -0.01587099 -0.000346655
vn 0.999874 -0.01587099 -0.000346655
vn 0.999874 -0.01587099 -0.000346655
vn 0.999874 -0.01587099 -0.000346655
vn 0.999874 -0.01587099 -0.000346655
vn 0.999874 -0.01587099 -0.000346655
vn 0.01587099 -0.999874 -0.000345267
vn 0.01587099 -0.999874 -0.000345267
vn 0.01587099 -0.999874 -0.000345267
vn 0.01587099 -0.999874 -0.000345267
vn -0.968132 -0.04761302 -0.2458728
vn -0.968132 -0.04761302 -0.2458728
vn -0.968132 -0.04761302 -0.2458728
vn -0.968132 -0.04761302 0.2458728
vn -0.968132 -0.04761302 0.2458728
vn 0.999874 -0.01587099 -0.000346655
vn 0.999874 -0.01587099 -0.000346655
vn 0.999874 -0.01587099 -0.000346655
vn 0.999874 -0.01587099 -0.000346655
vn 0.999874 -0.01587099 -0.000346655
vn 0.999874 -0.01587099 -0.000346655
vn 0.999874 -0.01587099 -0.000346655
vn 0.01587099 0.999874 -0.000345267
vn 0.01587099 0.999874 -0.000345267
vn 0.01587099 0.999874 -0.000345267
vn 0.01587099 0.999874 -0.000345267
vn 0.04761302 0.5554856 0.8301619
vn 0.04761302 0.5554856 0.8301619
vn 0.04761302 0.5554856 0.8301619
vn 0.04761302 0.5554856 0.8301619
vn 0.04761302 -0.04761302 0.9977304
vn 0.04761302 -0.04761302 0.9977304
vn 0.04761302 -0.04761302 0.9977304
vn 0.04761302 -0.04761302 0.9977304
vn 0.04761302 -0.04761302 0.9977304
vn 0.04761302 -0.04761302 0.9977304
vn 0.04761302 -0.04761302 0.9977304
vn 0.04761302 -0.04761302 0.9977304
vn 0.04761302 -0.04761302 0.9977304
vn 0.04761302 -0.04761302 0.9977304
vn 0.04761302 -0.04761302 0.9977304
vn 0.04761302 -0.04761302 0.9977304
vn 0.04761302 -0.04761302 0.9977304
vn 0.04761302 -0.04761302 0.9977304
vn 0.04761302 -0.04761302 0.9977304
vn 0.04761302 -0.04761302 0.9977304
vn 0.04761302 -0.04761302 0.9977304
vn 0.04761302 -0.04761302 0.9977304
vn 0.04761302 -0.04761302 0.9977304
vn 0.04761302 -0.04761302 0.9977304
vn 0.04761302 -0.04761302 0.9977304
vn 0.04761302 -0.04761302 0.9977304
vn 0.04761302 -0.04761302 0.9977304
vn 0.04761302 -0.04761302 0.9977304
vn 0.04761302 -0.04761302 0.9977304
vn 0.04761302 -0.04761302 0.9977304
vn 0.04761302 -0.04761302 0.9977304
vn 0.04761302 -0.04761302 0.9977304
vn 0.04761302 -0.04761302 0.9977304
vn 0.04761302 -0.04761302 0.9977304
vn 0.04761302 -0.04761302 0.9977304
vn 0.04761302 -0.04761302 0.9977304
vn 0.04761302 -0.04761302 0.9977304
vn 0.04761302 -0.04761302 0.9977304
vn 0.04761302 -0.04761302 0.9977304
vn 0.04761302 -0.04761302 0.9977304
vn 0.04761302 -0.04761302 0.9977304
vn 0.04761302 -0.04761302 0.9977304
vn 0.04761302 -0.04761302 0.9977304
vn 0.01587099 0.999874 -0.000345267
vn 0.01587099 0.999874 -0.000345267
vn 0.01587099 0.999874 -0.000345267
vn 0.01587099 0.999874 -0.000345267
vn -0.999874 -0.01587099 -0.000346655
vn -0.999874 -0.01587099 -0.000346655
vn -0.999874 -0.01587099 -0.000346655
vn -0.999874 -0.01587099 -0.000346655
vn 0.01587099 -0.999874 -0.000345267
vn 0.01587099 -0.999874 -0.000345267
vn 0.01587099 -0.999874 -0.000345267
vn 0.01587099 -0.999874 -0.000345267
vn 0.01587099 -0.999874 -0.000345267
vn 0.01587099 -0.999874 -0.000345267
vn 0.999874 -0.01587099 -0.000346655
vn 0.999874 -0.01587099 -0.000346655
vn 0.999874 -0.01587099 -0.000346655
vn 0.999874 -0.01587099 -0.000346655
vn 0.999874 -0.01587099 -0.000346655
vn 0.999874 -0.01587099 -0.000346655
vn 0.999874 -0.01587099 -0.000346655
vn 0.999874 -0.01587099 -0.000346655
vn 0.999874 -0.01587099 -0.000346655
vn 0.999874 -0.01587099 -0.000346655
vn 0.01587099 0.999874 -0.000345267
vn 0.01587099 0.999874 -0.000345267
vn 0.01587099 0.999874 -0.000345267
vn 0.01587099 0.999874 -0.000345267
vn -0.968132 -0.04761302 -0.2458728
vn -0.968132 -0.04761302 -0.2458728
vn -0.968132 -0.04761302 -0.2458728
vn -0.968132 -0.04761302 -0.2458728
vn 0.01587099 -0.999874 -0.000345267
vn 0.01587099 -0.999874 -0.000345267
vn 0.01587099 -0.999874 -0.000345267
vn 0.01587099 -0.999874 -0.000345267
vn 0.01587099 -0.999874 -0.000345267
vn 0.01587099 -0.999874 -0.000345267
vn 0.04761302 -0.04761302 0.9977304
vn 0.04761302 -0.04761302 0.9977304
vn 0.04761302 -0.04761302 0.9977304
vn 0.04761302 -0.04761302 0.9977304
vn 0.04761302 -0.04761302 0.9977304
vn 0.8729059 -0.04761302 0.4855599
vn 0.8729059 -0.04761302 0.4855599
vn 0.8729059 -0.04761302 0.4855599
vn 0.8729059 -0.04761302 0.4855599
vn -0.8094218 -0.04761302 0.5852943
vn -0.8094218 -0.04761302 0.5852943
vn -0.8094218 -0.04761302 0.5852943
vn -0.8094218 -0.04761302 0.5852943
vn 0.04761302 -0.04761302 0.9977304
vn 0.04761302 -0.04761302 0.9977304
vn 0.04761302 -0.04761302 0.9977304
vn 0.04761302 -0.04761302 0.9977304
vn 0.04761302 -0.04761302 0.9977304
vn 0.04761302 -0.04761302 0.9977304
vn 0.04761302 -0.04761302 0.9977304
vn 0.04761302 -0.04761302 0.9977304
vn 0.04761302 -0.04761302 0.9977304
vn 0.04761302 -0.04761302 0.9977304
vn 0.04761302 -0.04761302 0.9977304
vn 0.04761302 -0.04761302 0.9977304
vn 0.04761302 -0.04761302 0.9977304
vn 0.04761302 -0.04761302 0.9977304
vn 0.04761302 -0.04761302 0.9977304
vn 0.04761302 -0.04761302 0.9977304
vn 0.04761302 -0.04761302 0.9977304
vn -0.999874 -0.01587099 -0.000346655
vn -0.999874 -0.01587099 -0.000346655
vn -0.999874 -0.01587099 -0.000346655
vn -0.999874 -0.01587099 -0.000346655
vn 0.999874 -0.01587099 -0.000346655
vn 0.999874 -0.01587099 -0.000346655
vn 0.999874 -0.01587099 -0.000346655
vn 0.999874 -0.01587099 -0.000346655
vn 0.04761302 -0.04761302 0.9977304
vn 0.04761302 -0.04761302 0.9977304
vn 0.04761302 -0.04761302 0.9977304
vn 0.04761302 -0.04761302 0.9977304
vn 0.04761302 -0.04761302 0.9977304
vn 0.04761302 -0.04761302 0.9977304
vn 0.04761302 -0.04761302 0.9977304
vn 0.04761302 -0.04761302 0.9977304
vn 0.04761302 -0.04761302 0.9977304
vn 0.04761302 -0.04761302 0.9977304
vn 0.04761302 -0.04761302 0.9977304
vn 0.04761302 -0.04761302 0.9977304
vn -0.999874 -0.01587099 -0.000346655
vn -0.999874 -0.01587099 -0.000346655
vn -0.999874 -0.01587099 -0.000346655
vn -0.999874 -0.01587099 -0.000346655
vn 0.999874 -0.01587099 -0.000346655
vn 0.999874 -0.01587099 -0.000346655
vn 0.999874 -0.01587099 -0.000346655
vn 0.999874 -0.01587099 -0.000346655
vn 0.04761302 -0.04761302 0.9977304
vn 0.04761302 -0.04761302 0.9977304
vn 0.04761302 -0.04761302 0.9977304
vn 0.04761302 -0.04761302 0.9977304
vn 0.04761302 -0.04761302 0.9977304
vn 0.04761302 -0.04761302 0.9977304
vn 0.04761302 -0.04761302 0.9977304
vn 0.04761302 -0.04761302 0.9977304
vn 0.999874 -0.01587099 -0.000346655
vn 0.999874 -0.01587099 -0.000346655
vn 0.999874 -0.01587099 -0.000346655
vn 0.999874 -0.01587099 -0.000346655
vn 0.999874 -0.01587099 -0.000346655
vn -0.999874 -0.01587099 -0.000346655
vn -0.999874 -0.01587099 -0.000346655
vn -0.999874 -0.01587099 -0.000346655
vn -0.999874 -0.01587099 -0.000346655
vn -0.999874 -0.01587099 -0.000346655
vn -0.999874 -0.01587099 -0.000346655
vn 0.999874 -0.01587099 -0.000346655
vn 0.999874 -0.01587099 -0.000346655
vn 0.999874 -0.01587099 -0.000346655
vn 0.999874 -0.01587099 -0.000346655
vn 0.999874 -0.01587099 -0.000346655
vn 0.999874 -0.01587099 -0.000346655
vn 0.04761302 -0.04761302 0.9977304
vn 0.04761302 -0.04761302 0.9977304
vn 0.04761302 -0.04761302 0.9977304
vn 0.04761302 -0.04761302 0.9977304
vn 0.04761302 -0.04761302 0.9977304
vn 0.04761302 -0.04761302 0.9977304
vn 0.04761302 -0.04761302 0.9977304
vn 0.04761302 -0.04761302 0.9977304
vn -0.999874 -0.01587099 -0.000346655
vn -0.999874 -0.01587099 -0.000346655
vn -0.999874 -0.01587099 -0.000346655
vn -0.999874 -0.01587099 -0.000346655
vn -0.999874 -0.01587099 -0.000346655
vn 0.04761302 -0.04761302 0.9977304
vn 0.04761302 -0.04761302 0.9977304
vn 0.04761302 -0.04761302 0.9977304
vn 0.04761302 -0.04761302 0.9977304
vn 0.04761302 -0.04761302 0.9977304
vn 0.04761302 -0.04761302 0.9977304
vn 0.04761302 -0.04761302 0.9977304
vn 0.04761302 -0.04761302 0.9977304
vn 0.04761302 -0.04761302 0.9977304
vn 0.04761302 -0.04761302 0.9977304
vn 0.04761302 -0.04761302 0.9977304
vn 0.04761302 -0.04761302 0.9977304
vn 0.04761302 -0.04761302 0.9977304
vn 0.04761302 -0.04761302 0.9977304
vn 0.04761302 -0.04761302 0.9977304
vn 0.04761302 -0.04761302 0.9977304
vn 0.999874 -0.01587099 -0.000346655
vn 0.999874 -0.01587099 -0.000346655
vn 0.999874 -0.01587099 -0.000346655
vn 0.999874 -0.01587099 -0.000346655
vn 0.04761302 -0.04761302 0.9977304
vn 0.04761302 -0.04761302 0.9977304
vn 0.04761302 -0.04761302 0.9977304
vn 0.04761302 -0.04761302 0.9977304
vn 0.01587099 -0.999874 -0.000345267
vn 0.01587099 -0.999874 -0.000345267
vn 0.01587099 -0.999874 -0.000345267
vn 0.01587099 -0.999874 -0.000345267
vn 0.01587099 -0.999874 -0.000345267
vn 0.01587099 -0.999874 -0.000345267
vn 0.01587099 -0.999874 -0.000345267
vn 0.01587099 -0.999874 -0.000345267
vn 0.01587099 -0.999874 -0.000345267
vn 0.01587099 -0.999874 -0.000345267
vn 0.999874 -0.01587099 -0.000346655
vn 0.999874 -0.01587099 -0.000346655
vn 0.999874 -0.01587099 -0.000346655
vn 0.999874 -0.01587099 -0.000346655
vn 0.01587099 0.999874 -0.000345267
vn 0.01587099 0.999874 -0.000345267
vn 0.01587099 0.999874 -0.000345267
vn 0.01587099 0.999874 -0.000345267
vn 0.04761302 -0.04761302 0.9977304
vn 0.04761302 -0.04761302 0.9977304
vn 0.04761302 -0.04761302 0.9977304
vn 0.04761302 -0.04761302 0.9977304
vn 0.01587099 -0.999874 -0.000345267
vn 0.01587099 -0.999874 -0.000345267
vn 0.01587099 -0.999874 -0.000345267
vn 0.01587099 -0.999874 -0.000345267
vn 0.01587099 0.999874 -0.000345267
vn 0.01587099 0.999874 -0.000345267
vn 0.01587099 0.999874 -0.000345267
vn 0.01587099 0.999874 -0.000345267
vn 0.04761302 -0.04761302 0.9977304
vn 0.04761302 -0.04761302 0.9977304
vn 0.04761302 -0.04761302 0.9977304
vn 0.04761302 -0.04761302 0.9977304
vn 0.01587099 -0.999874 -0.000345267
vn 0.01587099 -0.999874 -0.000345267
vn 0.01587099 -0.999874 -0.000345267
vn 0.01587099 -0.999874 -0.000345267
vn 0.04761302 -0.04761302 0.9977304
vn 0.04761302 -0.04761302 0.9977304
vn 0.04761302 -0.04761302 0.9977304
vn 0.04761302 -0.04761302 0.9977304
vn 0.999874 -0.01587099 -0.000346655
vn 0.999874 -0.01587099 -0.000346655
vn 0.999874 -0.01587099 -0.000346655
vn 0.999874 -0.01587099 -0.000346655
vn -0.999874 -0.01587099 -0.000346655
vn -0.999874 -0.01587099 -0.000346655
vn -0.999874 -0.01587099 -0.000346655
vn -0.999874 -0.01587099 -0.000346655
vn 0.04761302 -0.04761302 0.9977304
vn 0.04761302 -0.04761302 0.9977304
vn 0.04761302 -0.04761302 0.9977304
vn 0.04761302 -0.04761302 0.9977304
vn -0.4602594 -0.8729059 -0.1618538
vn -0.4602594 -0.8729059 -0.1618538
vn -0.4602594 -0.8729059 -0.1618538
vn -0.4602594 -0.8729059 -0.1618538
vn -0.2380652 -0.968132 -0.07775256
vn -0.2380652 -0.968132 -0.07775256
vn -0.2380652 -0.968132 -0.07775256
vn -0.2380652 -0.968132 -0.07775256
vn 0.07911628 -0.9968654 0
vn 0.07911628 -0.9968654 0
vn 0.07911628 -0.9968654 0
vn 0.07911628 -0.9968654 0
vn 0.5144958 -0.857493 0
vn 0.5144958 -0.857493 0
vn 0.5144958 -0.857493 0
vn 0.5144958 -0.857493 0
vn 0.2973836 -0.954758 0
vn 0.2973836 -0.954758 0
vn 0.2973836 -0.954758 0
vn 0.2973836 -0.954758 0
vn -0.01587105 -0.999874 -0.000345267
vn -0.01587105 -0.999874 -0.000345267
vn -0.01587105 -0.999874 -0.000345267
vn -0.01587105 -0.999874 -0.000345267
vn 0.04761302 -0.04761302 0.9977304
vn 0.04761302 -0.04761302 0.9977304
vn 0.04761302 -0.04761302 0.9977304
vn 0.04761302 -0.04761302 0.9977304
vn 0.04761302 -0.04761302 0.9977304
vn 0.04761302 -0.04761302 0.9977304
vn 0.04761302 -0.04761302 0.9977304
vn 0.04761302 -0.04761302 0.9977304
vn 0.04761302 -0.04761302 0.9977304
vn 0.04761302 -0.04761302 0.9977304
vn 0.04761302 -0.04761302 0.9977304
vn 0.04761302 -0.04761302 0.9977304
vn 0.04761302 -0.04761302 0.9977304
vn 0.04761302 -0.04761302 0.9977304
vn -0.5237435 0.8094218 -0.2655733
vn -0.5237435 0.8094218 -0.2655733
vn -0.5237435 0.8094218 -0.2655733
vn -0.5237435 0.8094218 -0.2655733
vn -0.2698073 0.9363899 0.2244502
vn -0.2698073 0.9363899 0.2244502
vn -0.2698073 0.9363899 0.2244502
vn -0.2698073 0.9363899 -0.2244502
vn -0.07935512 0.968132 0.2375357
vn -0.07935512 0.968132 0.2375357
vn -0.07935512 0.968132 0.2375357
vn -0.07935512 0.968132 0.2375357
vn 0.1428391 0.968132 0.2057119
vn 0.1428391 0.968132 0.2057119
vn 0.1428391 0.968132 0.2057119
vn 0.1428391 0.968132 0.2057119
vn 0.3332914 0.9363899 0.1099579
vn 0.3332914 0.9363899 0.1099579
vn 0.3332914 0.9363899 0.1099579
vn 0.3332914 0.9363899 0.1099579
vn 0.5872276 0.8094218 -0.000422864
vn 0.5872276 0.8094218 -0.000422864
vn 0.5872276 0.8094218 -0.000422864
vn 0.5872276 0.8094218 0.000422864
vn 0.8729059 -0.04761302 0.4855599
vn 0.8729059 -0.04761302 0.4855599
vn 0.8729059 -0.04761302 0.4855599
vn 0.8729059 -0.04761302 0.4855599
vn -0.8094218 -0.04761302 0.5852943
vn -0.8094218 -0.04761302 0.5852943
vn -0.8094218 -0.04761302 0.5852943
vn -0.8094218 -0.04761302 0.5852943
vn 0.04761302 -0.04761302 0.9977304
vn 0.04761302 -0.04761302 0.9977304
vn 0.04761302 -0.04761302 0.9977304
vn 0.04761302 -0.04761302 0.9977304
vn 0.04761302 -0.04761302 0.9977304
vn 0.04761302 -0.04761302 0.9977304
vn 0.04761302 -0.04761302 0.9977304
vn 0.04761302 -0.04761302 0.9977304
vn 0.04761302 -0.04761302 0.9977304
vn 0.04761302 -0.04761302 0.9977304
vn 0.04761302 -0.04761302 0.9977304
vn 0.04761302 -0.04761302 0.9977304
vn 0.04761302 -0.04761302 0.9977304
vn 0.04761302 -0.04761302 0.9977304
vn 0.04761302 -0.04761302 0.9977304
vn 0.04761302 -0.04761302 0.9977304
vn 0.04761302 -0.04761302 0.9977304
vn 0.04761302 -0.04761302 0.9977304
vn 0.04761302 -0.04761302 0.9977304
vn 0.04761302 -0.04761302 0.9977304
vn 0.04761302 -0.04761302 0.9977304
vn 0.04761302 -0.04761302 0.9977304
vn 0.04761302 -0.04761302 0.9977304
vn 0.04761302 -0.04761302 0.9977304
vn 0.999874 -0.01587099 -0.000346655
vn 0.999874 -0.01587099 -0.000346655
vn 0.999874 -0.01587099 -0.000346655
vn 0.999874 -0.01587099 -0.000346655
vn -0.999874 -0.01587099 -0.000346655
vn -0.999874 -0.01587099 -0.000346655
vn -0.999874 -0.01587099 -0.000346655
vn -0.999874 -0.01587099 -0.000346655
vn 0.999874 -0.01587099 -0.000346655
vn 0.999874 -0.01587099 -0.000346655
vn 0.999874 -0.01587099 -0.000346655
vn 0.999874 -0.01587099 -0.000346655
vn 0.999874 -0.01587099 -0.000346655
vn 0.999874 -0.01587099 -0.000346655
vn 0.999874 -0.01587099 -0.000346655
vn 0.999874 -0.01587099 -0.000346655
vn -0.968132 -0.04761302 -0.2458728
vn -0.968132 -0.04761302 -0.2458728
vn -0.968132 -0.04761302 -0.2458728
vn -0.968132 -0.04761302 -0.2458728
vn -0.968132 -0.04761302 -0.2458728
vn -0.968132 -0.04761302 -0.2458728
vn -0.968132 -0.04761302 -0.2458728
vn -0.968132 -0.04761302 -0.2458728
vn 0.999874 -0.01587099 -0.000346655
vn 0.999874 -0.01587099 -0.000346655
vn 0.999874 -0.01587099 -0.000346655
vn 0.999874 -0.01587099 -0.000346655
vn -0.999874 -0.01587099 -0.000346655
vn -0.999874 -0.01587099 -0.000346655
vn -0.999874 -0.01587099 -0.000346655
vn -0.999874 -0.01587099 -0.000346655
vn 0.999874 -0.01587099 -0.000346655
vn 0.999874 -0.01587099 -0.000346655
vn 0.999874 -0.01587099 -0.000346655
vn 0.999874 -0.01587099 -0.000346655
vn -0.968132 -0.04761302 0.2458728
vn -0.968132 -0.04761302 0.2458728
vn -0.968132 -0.04761302 0.2458728
vn -0.968132 -0.04761302 0.2458728
vn 0.999874 -0.01587099 -0.000346655
vn 0.999874 -0.01587099 -0.000346655
vn 0.999874 -0.01587099 -0.000346655
vn 0.999874 -0.01587099 -0.000346655
vn -0.999874 -0.01587099 -0.000346655
vn -0.999874 -0.01587099 -0.000346655
vn -0.999874 -0.01587099 -0.000346655
vn -0.999874 -0.01587099 -0.000346655
vn 0.999874 -0.01587099 -0.000346655
vn 0.999874 -0.01587099 -0.000346655
vn 0.999874 -0.01587099 -0.000346655
vn 0.999874 -0.01587099 -0.000346655
vn -0.968132 -0.04761302 0.2458728
vn -0.968132 -0.04761302 0.2458728
vn -0.968132 -0.04761302 0.2458728
vn -0.968132 -0.04761302 0.2458728
vn 0.04761302 -0.04761302 0.9977304
vn 0.04761302 -0.04761302 0.9977304
vn 0.04761302 -0.04761302 0.9977304
vn 0.04761302 -0.04761302 0.9977304
vn 0.8729059 -0.04761302 0.4855599
vn 0.8729059 -0.04761302 0.4855599
vn 0.8729059 -0.04761302 0.4855599
vn 0.8729059 -0.04761302 0.4855599
vn 0.8729059 -0.04761302 0.4855599
vn 0.04761302 -0.04761302 0.9977304
vn 0.04761302 -0.04761302 0.9977304
vn 0.04761302 -0.04761302 0.9977304
vn 0.04761302 -0.04761302 0.9977304
vn -0.8094218 -0.04761302 0.5852943
vn -0.8094218 -0.04761302 0.5852943
vn -0.8094218 -0.04761302 0.5852943
vn -0.8094218 -0.04761302 0.5852943
vn -0.8094218 -0.04761302 0.5852943
vn 0.04761302 -0.04761302 0.9977304
vn 0.04761302 -0.04761302 0.9977304
vn 0.04761302 -0.04761302 0.9977304
vn 0.04761302 -0.04761302 0.9977304
vn 0.04761302 -0.04761302 0.9977304
vn 0.04761302 -0.04761302 0.9977304
vn 0.04761302 -0.04761302 0.9977304
vn 0.04761302 -0.04761302 0.9977304
vn 0.04761302 0.968132 0.2458728
vn 0.04761302 0.968132 0.2458728
vn 0.04761302 0.968132 0.2458728
vn 0.04761302 0.968132 0.2458728
vn 0.01587099 -0.999874 -0.000345267
vn 0.01587099 -0.999874 -0.000345267
vn 0.01587099 -0.999874 -0.000345267
vn 0.01587099 -0.999874 -0.000345267
vn 0.04761302 -0.04761302 0.9977304
vn 0.04761302 -0.04761302 0.9977304
vn 0.04761302 -0.04761302 0.9977304
vn 0.04761302 -0.04761302 0.9977304
vn 0.04761302 0.968132 0.2458728
vn 0.04761302 0.968132 0.2458728
vn 0.04761302 0.968132 0.2458728
vn 0.04761302 0.968132 0.2458728
vn 0.01587099 -0.999874 -0.000345267
vn 0.01587099 -0.999874 -0.000345267
vn 0.01587099 -0.999874 -0.000345267
vn 0.01587099 -0.999874 -0.000345267
vn 0.04761302 -0.04761302 0.9977304
vn 0.04761302 -0.04761302 0.9977304
vn 0.04761302 -0.04761302 0.9977304
vn 0.04761302 -0.04761302 0.9977304
vn 0.04761302 0.968132 0.2458728
vn 0.04761302 0.968132 0.2458728
vn 0.04761302 0.968132 0.2458728
vn 0.04761302 0.968132 0.2458728
vn 0.01587099 -0.999874 -0.000345267
vn 0.01587099 -0.999874 -0.000345267
vn 0.01587099 -0.999874 -0.000345267
vn 0.01587099 -0.999874 -0.000345267
vn 0.04761302 -0.04761302 0.9977304
vn 0.04761302 -0.04761302 0.9977304
vn 0.04761302 -0.04761302 0.9977304
vn 0.04761302 -0.04761302 0.9977304
vn 0.04761302 0.968132 0.2458728
vn 0.04761302 0.968132 0.2458728
vn 0.04761302 0.968132 0.2458728
vn 0.04761302 0.968132 0.2458728
vn 0.01587099 -0.999874 -0.000345267
vn 0.01587099 -0.999874 -0.000345267
vn 0.01587099 -0.999874 -0.000345267
vn 0.01587099 -0.999874 -0.000345267
vn 0.04761302 -0.04761302 0.9977304
vn 0.04761302 -0.04761302 0.9977304
vn 0.04761302 -0.04761302 0.9977304
vn 0.04761302 -0.04761302 0.9977304
vn 0.04761302 -0.04761302 0.9977304
vn 0.04761302 -0.04761302 0.9977304
vn 0.04761302 -0.04761302 0.9977304
vn 0.04761302 -0.04761302 0.9977304
vn 0.04761302 -0.04761302 0.9977304
vn 0.04761302 -0.04761302 0.9977304
vn 0.04761302 -0.04761302 0.9977304
vn 0.04761302 -0.04761302 0.9977304
vn 0.04761302 -0.04761302 0.9977304
vn 0.04761302 -0.04761302 0.9977304
vn 0.04761302 -0.04761302 0.9977304
vn 0.04761302 -0.04761302 0.9977304
vn 0.04761302 -0.04761302 0.9977304
vn 0.04761302 -0.04761302 0.9977304
vn 0.04761302 -0.04761302 0.9977304
vn 0.04761302 -0.04761302 0.9977304
vn 0.04761302 -0.04761302 0.9977304
vn 0.04761302 -0.04761302 0.9977304
vn 0.04761302 -0.04761302 0.9977304
vn 0.04761302 -0.04761302 0.9977304
vn 0.04761302 -0.04761302 0.9977304
vn 0.04761302 -0.04761302 0.9977304
vn 0.04761302 -0.04761302 0.9977304
vn 0.04761302 -0.04761302 0.9977304
vn 0.04761302 -0.04761302 0.9977304
vn 0.04761302 -0.04761302 0.9977304
vn 0.04761302 -0.04761302 0.9977304
vn 0.04761302 -0.04761302 0.9977304
vn 0.04761302 -0.04761302 0.9977304
vn 0.04761302 -0.04761302 0.9977304
vn 0.04761302 -0.04761302 0.9977304
vn 0.04761302 -0.04761302 0.9977304
vn 0.999874 -0.01587099 -0.000346655
vn 0.999874 -0.01587099 -0.000346655
vn 0.999874 -0.01587099 -0.000346655
vn 0.999874 -0.01587099 -0.000346655
vn 0.01587099 0.999874 -0.000345267
vn 0.01587099 0.999874 -0.000345267
vn 0.01587099 0.999874 -0.000345267
vn 0.01587099 0.999874 -0.000345267
vn -0.968132 -0.04761302 -0.2458728
vn -0.968132 -0.04761302 -0.2458728
vn -0.968132 -0.04761302 -0.2458728
vn -0.968132 -0.04761302 -0.2458728
vn 0.01587099 -0.999874 -0.000345267
vn 0.01587099 -0.999874 -0.000345267
vn 0.01587099 -0.999874 -0.000345267
vn 0.01587099 -0.999874 -0.000345267
vn -0.968132 -0.04761302 -0.2458728
vn -0.968132 -0.04761302 -0.2458728
vn -0.968132 -0.04761302 -0.2458728
vn -0.968132 -0.04761302 -0.2458728
vn 0.01587099 -0.999874 -0.000345267
vn 0.01587099 -0.999874 -0.000345267
vn 0.01587099 -0.999874 -0.000345267
vn 0.01587099 -0.999874 -0.000345267
vn 0.999874 -0.01587099 -0.000346655
vn 0.999874 -0.01587099 -0.000346655
vn 0.999874 -0.01587099 -0.000346655
vn 0.999874 -0.01587099 -0.000346655
vn 0.01587099 0.999874 -0.000345267
vn 0.01587099 0.999874 -0.000345267
vn 0.01587099 0.999874 -0.000345267
vn 0.01587099 0.999874 -0.000345267
vn 0.04761302 -0.04761302 0.9977304
vn 0.04761302 -0.04761302 0.9977304
vn 0.04761302 -0.04761302 0.9977304
vn 0.04761302 -0.04761302 0.9977304
vn 0.04761302 0.968132 0.2458728
vn 0.04761302 0.968132 0.2458728
vn 0.04761302 0.968132 0.2458728
vn 0.04761302 0.968132 0.2458728
vn 0.01587099 -0.999874 -0.000345267
vn 0.01587099 -0.999874 -0.000345267
vn 0.01587099 -0.999874 -0.000345267
vn 0.01587099 -0.999874 -0.000345267
vn 0.04761302 -0.04761302 0.9977304
vn 0.04761302 -0.04761302 0.9977304
vn 0.04761302 -0.04761302 0.9977304
vn 0.04761302 -0.04761302 0.9977304
vn 0.04761302 -0.04761302 -0.9977304
vn 0.04761302 -0.04761302 -0.9977304
vn 0.04761302 -0.04761302 -0.9977304
vn 0.04761302 -0.04761302 -0.9977304
vn 0.01587099 0.999874 -0.000345267
vn 0.04761302 -0.04761302 0.9977304
vn 0.01587099 0.999874 -0.000345267
vn 0.04761302 -0.04761302 0.9977304
vn -0.968132 -0.04761302 -0.2458728
vn 0.04761302 -0.04761302 0.9977304
vn -0.968132 -0.04761302 -0.2458728
vn 0.999874 -0.01587099 -0.000346655
vn 0.04761302 -0.04761302 0.9977304
vn 0.999874 -0.01587099 -0.000346655
vn 0.04761302 -0.04761302 0.9977304
vn 0.04761302 -0.04761302 0.9977304
vn 0.04761302 -0.04761302 0.9977304
vn 0.04761302 -0.04761302 0.9977304
vn 0.04761302 -0.04761302 0.9977304
vn 0.04761302 -0.04761302 -0.9977304
vn 0.04761302 -0.04761302 -0.9977304
vn 0.04761302 -0.04761302 -0.9977304
vn 0.04761302 -0.04761302 -0.9977304
vn 0.999874 -0.01587099 -0.000346655
vn 0.04761302 -0.04761302 0.9977304
vn 0.999874 -0.01587099 -0.000346655
vn 0.04761302 -0.04761302 0.9977304
vn -0.968132 -0.04761302 -0.2458728
vn 0.04761302 -0.04761302 0.9977304
vn -0.968132 -0.04761302 -0.2458728
vn 0.04761302 -0.04761302 0.9977304
vn 0.01587099 -0.999874 -0.000345267
vn 0.04761302 -0.04761302 0.9977304
vn 0.01587099 -0.999874 -0.000345267
vn 0.04761302 -0.04761302 0.9977304
g DSJ_GTA_diLou_jianYu_1_0
f 3/3/3 2/2/2 1/1/1
f 4/4/4 1/1/1 2/2/2
f 7/7/7 6/6/6 5/5/5
f 8/8/8 5/5/5 6/6/6
f 11/11/11 10/10/10 9/9/9
f 9/9/9 10/10/10 12/12/12
f 15/15/15 14/14/14 13/13/13
f 16/16/16 13/13/13 14/14/14
f 19/19/19 18/18/18 17/17/17
f 20/20/20 18/18/18 19/19/19
f 20/20/20 19/19/19 21/21/21
f 17/17/17 18/18/18 22/22/22
f 18/18/18 23/23/23 22/22/22
f 22/22/22 23/23/23 24/24/24
f 23/23/23 25/25/25 24/24/24
f 24/24/24 25/25/25 26/26/26
f 29/29/29 28/28/28 27/27/27
f 30/30/30 27/27/27 28/28/28
f 31/31/31 28/28/28 29/29/29
f 28/28/28 31/31/31 32/32/32
f 33/33/33 32/32/32 31/31/31
f 36/36/36 35/35/35 34/34/34
f 37/37/37 35/35/35 36/36/36
f 38/38/38 37/37/37 36/36/36
f 41/41/41 40/40/40 39/39/39
f 42/42/42 40/40/40 41/41/41
f 45/45/45 44/44/44 43/43/43
f 46/46/46 45/45/45 43/43/43
f 47/47/47 45/45/45 46/46/46
f 50/50/50 49/49/49 48/48/48
f 51/51/51 48/48/48 49/49/49
f 52/52/52 51/51/51 49/49/49
f 53/53/53 50/50/50 48/48/48
f 54/54/54 51/51/51 52/52/52
f 57/57/57 56/56/56 55/55/55
f 58/58/58 56/56/56 57/57/57
f 61/61/61 60/60/60 59/59/59
f 62/62/62 59/59/59 60/60/60
f 65/65/65 64/64/64 63/63/63
f 64/64/64 66/66/66 63/63/63
f 63/63/63 66/66/66 67/67/67
f 67/67/67 66/66/66 68/68/68
f 67/67/67 70/70/70 69/69/69
f 71/71/71 69/69/69 70/70/70
f 69/69/69 71/71/71 72/72/72
f 75/75/75 74/74/74 73/73/73
f 76/76/76 73/73/73 74/74/74
f 79/79/79 78/78/78 77/77/77
f 82/82/82 81/81/81 80/80/80
f 85/85/85 84/84/84 83/83/83
f 86/86/86 83/83/83 84/84/84
f 84/84/84 85/85/85 87/87/87
f 83/83/83 86/86/86 88/88/88
f 89/89/89 88/88/88 86/86/86
f 92/92/92 91/91/91 90/90/90
f 93/93/93 90/90/90 91/91/91
f 91/91/91 92/92/92 94/94/94
f 95/95/95 94/94/94 92/92/92
f 90/90/90 93/93/93 96/96/96
f 97/97/97 96/96/96 93/93/93
f 100/100/100 99/99/99 98/98/98
f 101/101/101 98/98/98 99/99/99
f 104/104/104 103/103/103 102/102/102
f 105/105/105 102/102/102 103/103/103
f 108/108/108 107/107/107 106/106/106
f 109/109/109 106/106/106 107/107/107
f 112/112/112 111/111/111 110/110/110
f 115/115/115 114/114/114 113/113/113
f 118/118/118 117/117/117 116/116/116
f 121/121/121 120/120/120 119/119/119
f 124/124/124 123/123/123 122/122/122
f 125/125/125 122/122/122 123/123/123
f 128/128/128 127/127/127 126/126/126
f 129/129/129 126/126/126 127/127/127
f 132/132/132 131/131/131 130/130/130
f 133/133/133 130/130/130 131/131/131
f 136/136/136 135/135/135 134/134/134
f 139/139/139 138/138/138 137/137/137
f 142/142/142 141/141/141 140/140/140
f 143/143/143 141/141/141 142/142/142
f 144/144/144 141/141/141 143/143/143
f 147/147/147 146/146/146 145/145/145
f 148/148/148 145/145/145 146/146/146
f 151/151/151 150/150/150 149/149/149
f 152/152/152 149/149/149 150/150/150
f 155/155/155 154/154/154 153/153/153
f 156/156/156 154/154/154 155/155/155
f 157/157/157 154/154/154 156/156/156
f 160/160/160 159/159/159 158/158/158
f 161/161/161 158/158/158 159/159/159
f 164/164/164 163/163/163 162/162/162
f 165/165/165 162/162/162 163/163/163
f 168/168/168 167/167/167 166/166/166
f 169/169/169 166/166/166 167/167/167
f 172/172/172 171/171/171 170/170/170
f 173/173/173 170/170/170 171/171/171
f 176/176/176 175/175/175 174/174/174
f 177/177/177 174/174/174 175/175/175
f 180/180/180 179/179/179 178/178/178
f 181/181/181 178/178/178 179/179/179
f 184/184/184 183/183/183 182/182/182
f 185/185/185 182/182/182 183/183/183
f 188/188/188 187/187/187 186/186/186
f 189/189/189 186/186/186 187/187/187
f 192/192/192 191/191/191 190/190/190
f 193/193/193 190/190/190 191/191/191
f 196/196/196 195/195/195 194/194/194
f 197/197/197 194/194/194 195/195/195
f 200/200/200 199/199/199 198/198/198
f 201/201/201 200/200/200 198/198/198
f 202/202/202 200/200/200 201/201/201
f 202/202/202 201/201/201 203/203/203
f 204/204/204 203/203/203 201/201/201
f 205/205/205 203/203/203 204/204/204
f 208/208/208 207/207/207 206/206/206
f 209/209/209 206/206/206 207/207/207
f 207/207/207 208/208/208 210/210/210
f 213/213/213 212/212/212 211/211/211
f 214/214/214 211/211/211 212/212/212
f 213/213/213 211/211/211 215/215/215
f 216/216/216 215/215/215 211/211/211
f 219/219/219 218/218/218 217/217/217
f 220/220/220 217/217/217 218/218/218
f 220/220/220 218/218/218 221/221/221
f 222/222/222 221/221/221 218/218/218
f 225/225/225 224/224/224 223/223/223
f 226/226/226 225/225/225 223/223/223
f 227/227/227 224/224/224 225/225/225
f 227/227/227 228/228/228 224/224/224
f 229/229/229 224/224/224 228/228/228
f 228/228/228 230/230/230 229/229/229
f 233/233/233 232/232/232 231/231/231
f 234/234/234 231/231/231 232/232/232
f 234/234/234 232/232/232 235/235/235
f 238/238/238 237/237/237 236/236/236
f 238/238/238 236/236/236 239/239/239
f 236/236/236 240/240/240 239/239/239
f 239/239/239 240/240/240 241/241/241
f 244/244/244 243/243/243 242/242/242
f 244/244/244 245/245/245 243/243/243
f 243/243/243 245/245/245 246/246/246
f 246/246/246 245/245/245 247/247/247
f 250/250/250 249/249/249 248/248/248
f 251/251/251 248/248/248 249/249/249
f 254/254/254 253/253/253 252/252/252
f 255/255/255 252/252/252 253/253/253
f 258/258/258 257/257/257 256/256/256
f 259/259/259 256/256/256 257/257/257
f 262/262/262 261/261/261 260/260/260
f 263/263/263 260/260/260 261/261/261
f 265/265/265 264/264/264 260/260/260
f 266/266/266 260/260/260 264/264/264
f 266/266/266 268/268/268 267/267/267
f 269/269/269 267/267/267 268/268/268
f 272/272/272 271/271/271 270/270/270
f 273/273/273 270/270/270 271/271/271
f 276/276/276 275/275/275 274/274/274
f 277/277/277 274/274/274 275/275/275
f 280/280/280 279/279/279 278/278/278
f 281/281/281 278/278/278 279/279/279
f 284/284/284 283/283/283 282/282/282
f 285/285/285 282/282/282 283/283/283
f 288/288/288 287/287/287 286/286/286
f 289/289/289 286/286/286 287/287/287
f 292/292/292 291/291/291 290/290/290
f 293/293/293 290/290/290 291/291/291
f 296/296/296 295/295/295 294/294/294
f 297/297/297 294/294/294 295/295/295
f 300/300/300 299/299/299 298/298/298
f 301/301/301 298/298/298 299/299/299
f 304/304/304 303/303/303 302/302/302
f 305/305/305 302/302/302 303/303/303
f 308/308/308 307/307/307 306/306/306
f 309/309/309 306/306/306 307/307/307
f 312/312/312 311/311/311 310/310/310
f 313/313/313 310/310/310 311/311/311
f 316/316/316 315/315/315 314/314/314
f 317/317/317 314/314/314 315/315/315
f 320/320/320 319/319/319 318/318/318
f 321/321/321 318/318/318 319/319/319
f 324/324/324 323/323/323 322/322/322
f 325/325/325 322/322/322 323/323/323
f 328/328/328 327/327/327 326/326/326
f 329/329/329 326/326/326 327/327/327
f 332/332/332 331/331/331 330/330/330
f 333/333/333 330/330/330 331/331/331
f 336/336/336 335/335/335 334/334/334
f 337/337/337 334/334/334 335/335/335
f 340/340/340 339/339/339 338/338/338
f 341/341/341 338/338/338 339/339/339
f 341/341/341 339/339/339 342/342/342
f 343/343/343 342/342/342 339/339/339
f 338/338/338 344/344/344 340/340/340
f 345/345/345 340/340/340 344/344/344
f 342/342/342 343/343/343 346/346/346
f 347/347/347 346/346/346 343/343/343
f 347/347/347 348/348/348 346/346/346
f 349/349/349 346/346/346 348/348/348
f 345/345/345 344/344/344 350/350/350
f 351/351/351 350/350/350 344/344/344
f 354/354/354 353/353/353 352/352/352
f 355/355/355 352/352/352 353/353/353
f 358/358/358 357/357/357 356/356/356
f 359/359/359 356/356/356 357/357/357
f 362/362/362 361/361/361 360/360/360
f 363/363/363 360/360/360 361/361/361
f 366/366/366 365/365/365 364/364/364
f 367/367/367 364/364/364 365/365/365
f 370/370/370 369/369/369 368/368/368
f 371/371/371 368/368/368 369/369/369
f 374/374/374 373/373/373 372/372/372
f 375/375/375 372/372/372 373/373/373
f 378/378/378 377/377/377 376/376/376
f 379/379/379 376/376/376 377/377/377
f 382/382/382 381/381/381 380/380/380
f 383/383/383 380/380/380 381/381/381
f 386/386/386 385/385/385 384/384/384
f 387/387/387 384/384/384 385/385/385
f 390/390/390 389/389/389 388/388/388
f 391/391/391 388/388/388 389/389/389
f 394/394/394 393/393/393 392/392/392
f 395/395/395 392/392/392 393/393/393
f 398/398/398 397/397/397 396/396/396
f 399/399/399 396/396/396 397/397/397
f 402/402/402 401/401/401 400/400/400
f 403/403/403 400/400/400 401/401/401
f 406/406/406 405/405/405 404/404/404
f 407/407/407 404/404/404 405/405/405
f 410/410/410 409/409/409 408/408/408
f 411/411/411 408/408/408 409/409/409
f 414/414/414 413/413/413 412/412/412
f 415/415/415 412/412/412 413/413/413
f 418/418/418 417/417/417 416/416/416
f 419/419/419 416/416/416 417/417/417
f 422/422/422 421/421/421 420/420/420
f 423/423/423 420/420/420 421/421/421
f 426/426/426 425/425/425 424/424/424
f 427/427/427 424/424/424 425/425/425
f 430/430/430 429/429/429 428/428/428
f 431/431/431 428/428/428 429/429/429
f 434/434/434 433/433/433 432/432/432
f 435/435/435 432/432/432 433/433/433
f 438/438/438 437/437/437 436/436/436
f 439/439/439 436/436/436 437/437/437
f 442/442/442 441/441/441 440/440/440
f 443/443/443 440/440/440 441/441/441
f 446/446/446 445/445/445 444/444/444
f 447/447/447 444/444/444 445/445/445
f 450/450/450 449/449/449 448/448/448
f 451/451/451 448/448/448 449/449/449
f 454/454/454 453/453/453 452/452/452
f 455/455/455 452/452/452 453/453/453
f 458/458/458 457/457/457 456/456/456
f 459/459/459 456/456/456 457/457/457
f 462/462/462 461/461/461 460/460/460
f 463/463/463 460/460/460 461/461/461
f 466/466/466 465/465/465 464/464/464
f 467/467/467 464/464/464 465/465/465
f 470/470/470 469/469/469 468/468/468
f 471/471/471 470/470/470 468/468/468
f 468/468/468 472/472/472 471/471/471
f 475/475/475 474/474/474 473/473/473
f 476/476/476 473/473/473 474/474/474
f 479/479/479 478/478/478 477/477/477
f 477/477/477 478/478/478 480/480/480
f 477/477/477 480/480/480 481/481/481
f 484/484/484 483/483/483 482/482/482
f 485/485/485 482/482/482 483/483/483
f 488/488/488 487/487/487 486/486/486
f 489/489/489 486/486/486 487/487/487
f 492/492/492 491/491/491 490/490/490
f 493/493/493 490/490/490 491/491/491
f 496/496/496 495/495/495 494/494/494
f 497/497/497 494/494/494 495/495/495
f 500/500/500 499/499/499 498/498/498
f 501/501/501 498/498/498 499/499/499
f 504/504/504 503/503/503 502/502/502
f 505/505/505 502/502/502 503/503/503
f 508/508/508 507/507/507 506/506/506
f 509/509/509 506/506/506 507/507/507
f 512/512/512 511/511/511 510/510/510
f 513/513/513 510/510/510 511/511/511
f 516/516/516 515/515/515 514/514/514
f 517/517/517 514/514/514 515/515/515
f 520/520/520 519/519/519 518/518/518
f 521/521/521 518/518/518 519/519/519
f 524/524/524 523/523/523 522/522/522
f 525/525/525 522/522/522 523/523/523
f 528/528/528 527/527/527 526/526/526
f 529/529/529 526/526/526 527/527/527
f 532/532/532 531/531/531 530/530/530
f 533/533/533 530/530/530 531/531/531
f 536/536/536 535/535/535 534/534/534
f 535/535/535 537/537/537 534/534/534
f 534/534/534 537/537/537 538/538/538
f 537/537/537 539/539/539 538/538/538
f 542/542/542 541/541/541 540/540/540
f 541/541/541 543/543/543 540/540/540
f 540/540/540 543/543/543 544/544/544
f 543/543/543 545/545/545 544/544/544
f 548/548/548 547/547/547 546/546/546
f 547/547/547 549/549/549 546/546/546
f 546/546/546 549/549/549 550/550/550
f 549/549/549 551/551/551 550/550/550
f 554/554/554 553/553/553 552/552/552
f 553/553/553 555/555/555 552/552/552
f 552/552/552 555/555/555 556/556/556
f 555/555/555 557/557/557 556/556/556
f 560/560/560 559/559/559 558/558/558
f 561/561/561 558/558/558 559/559/559
f 564/564/564 563/563/563 562/562/562
f 565/565/565 562/562/562 563/563/563
f 562/562/562 565/565/565 566/566/566
f 567/567/567 566/566/566 565/565/565
f 566/566/566 567/567/567 568/568/568
f 569/569/569 568/568/568 567/567/567
f 568/568/568 569/569/569 564/564/564
f 563/563/563 564/564/564 569/569/569
f 572/572/572 571/571/571 570/570/570
f 573/573/573 570/570/570 571/571/571
f 576/576/576 575/575/575 574/574/574
f 577/577/577 574/574/574 575/575/575
f 580/580/580 579/579/579 578/578/578
f 581/581/581 578/578/578 579/579/579
f 584/584/584 583/583/583 582/582/582
f 585/585/585 582/582/582 583/583/583
f 588/588/588 587/587/587 586/586/586
f 589/589/589 586/586/586 587/587/587
f 592/592/592 591/591/591 590/590/590
f 593/593/593 590/590/590 591/591/591
f 596/596/596 595/595/595 594/594/594
f 597/597/597 594/594/594 595/595/595
f 600/600/600 599/599/599 598/598/598
f 601/601/601 598/598/598 599/599/599
f 604/604/604 603/603/603 602/602/602
f 605/605/605 602/602/602 603/603/603
f 608/608/608 607/607/607 606/606/606
f 609/609/609 606/606/606 607/607/607
f 612/612/612 611/611/611 610/610/610
f 613/613/613 610/610/610 611/611/611
f 616/616/616 615/615/615 614/614/614
f 617/617/617 614/614/614 615/615/615
f 620/620/620 619/619/619 618/618/618
f 618/618/618 621/621/621 620/620/620
f 624/624/624 623/623/623 622/622/622
f 623/623/623 625/625/625 622/622/622
f 627/627/627 623/623/623 626/626/626
f 628/628/628 627/627/627 626/626/626
f 631/631/631 630/630/630 629/629/629
f 630/630/630 632/632/632 629/629/629
f 635/635/635 634/634/634 633/633/633
f 636/636/636 633/633/633 634/634/634
f 639/639/639 638/638/638 637/637/637
f 637/637/637 640/640/640 639/639/639
f 643/643/643 642/642/642 641/641/641
f 642/642/642 644/644/644 641/641/641
f 647/647/647 646/646/646 645/645/645
f 646/646/646 648/648/648 645/645/645
f 651/651/651 650/650/650 649/649/649
f 650/650/650 652/652/652 649/649/649
