g DSJ_GTA_daoJu_deng_03
v 0.1160845 2.618406 0.5289083
v -0.0243358 2.573544 0.5411945
v 0.1160845 2.573544 0.5289083
v -0.0243358 2.618406 0.5411945
v -0.0243358 2.618406 0.5411945
v -0.08390635 2.573544 0.6689406
v -0.0243358 2.573544 0.5411945
v -0.08390635 2.618406 0.6689406
v -0.08390635 2.618406 0.6689406
v -0.003056645 2.573544 0.7844085
v -0.08390635 2.573544 0.6689406
v -0.003056645 2.618406 0.7844085
v -0.003056645 2.618406 0.7844085
v 0.1373557 2.573544 0.7721224
v -0.003056645 2.573544 0.7844085
v 0.1373557 2.618406 0.7721224
v 0.1373557 2.618406 0.7721224
v 0.1969342 2.573544 0.6443762
v 0.1373557 2.573544 0.7721224
v 0.1969342 2.618406 0.6443682
v 0.1969342 2.618406 0.6443682
v 0.1160845 2.573544 0.5289083
v 0.1969342 2.573544 0.6443762
v 0.1160845 2.618406 0.5289083
v 0.1160845 3.219376 0.5289083
v -0.0243358 3.174506 0.5411945
v 0.1160845 3.174506 0.5289083
v -0.0243358 3.219376 0.5411945
v -0.0243358 3.219376 0.5411945
v -0.08390635 3.174506 0.6689406
v -0.0243358 3.174506 0.5411945
v -0.08390635 3.219376 0.6689406
v -0.08390635 3.219376 0.6689406
v -0.003056645 3.174506 0.7844085
v -0.08390635 3.174506 0.6689406
v -0.003056645 3.219376 0.7844085
v -0.003056645 3.219376 0.7844085
v 0.1373557 3.174506 0.7721224
v -0.003056645 3.174506 0.7844085
v 0.1373557 3.219376 0.7721224
v 0.1373557 3.219376 0.7721224
v 0.1969342 3.174506 0.6443682
v 0.1373557 3.174506 0.7721224
v 0.1969342 3.219376 0.6443762
v 0.1969342 3.219376 0.6443762
v 0.1160845 3.174506 0.5289083
v 0.1969342 3.174506 0.6443682
v 0.1160845 3.219376 0.5289083
v -0.02068633 7.516468 0.5463955
v 0.1134008 5.505421 0.5346635
v 0.1134008 7.516468 0.5346635
v -0.02069426 5.505421 0.5463955
v -0.02069426 1.61743 0.5463955
v 0.1134008 0.008605957 0.5346635
v 0.1134008 1.61743 0.5346635
v -0.02069426 0.008605957 0.5463955
v -0.02069426 5.505421 0.5463955
v 0.1134008 1.61743 0.5346635
v 0.1134008 5.505421 0.5346635
v -0.02069426 1.61743 0.5463955
v -0.07758117 7.516468 0.6683865
v -0.02069426 5.505421 0.5463955
v -0.02068633 7.516468 0.5463955
v -0.07758117 5.505421 0.6683865
v -0.07758117 1.61743 0.6683865
v -0.02069426 0.008605957 0.5463955
v -0.02069426 1.61743 0.5463955
v -0.07758117 0.008605957 0.6683865
v -0.07758117 5.505421 0.6683865
v -0.02069426 1.61743 0.5463955
v -0.02069426 5.505421 0.5463955
v -0.07758117 1.61743 0.6683865
v -0.0003730059 7.516468 0.7786533
v -0.07758117 5.505421 0.6683865
v -0.07758117 7.516468 0.6683865
v -0.0003730059 5.505421 0.7786533
v -0.0003730059 1.61743 0.7786533
v -0.07758117 0.008605957 0.6683865
v -0.07758117 1.61743 0.6683865
v -0.0003730059 0.008605957 0.7786533
v -0.0003730059 5.505421 0.7786533
v -0.07758117 1.61743 0.6683865
v -0.07758117 5.505421 0.6683865
v -0.0003730059 1.61743 0.7786533
v 0.1337221 7.516468 0.7669292
v -0.0003730059 5.505421 0.7786533
v -0.0003730059 7.516468 0.7786533
v 0.1337221 5.505421 0.7669292
v 0.1337221 0.008605957 0.7669292
v -0.0003730059 1.61743 0.7786533
v 0.1337221 1.61743 0.7669292
v -0.0003730059 0.008605957 0.7786533
v 0.1337221 5.505421 0.7669292
v -0.0003730059 1.61743 0.7786533
v -0.0003730059 5.505421 0.7786533
v 0.1337221 1.61743 0.7669292
v 0.190609 7.516468 0.6449303
v 0.1337221 5.505421 0.7669292
v 0.1337221 7.516468 0.7669292
v 0.190609 5.505421 0.6449224
v 0.190609 1.61743 0.6449224
v 0.1337221 0.008605957 0.7669292
v 0.1337221 1.61743 0.7669292
v 0.190609 0.008605957 0.6449224
v 0.190609 5.505421 0.6449224
v 0.1337221 1.61743 0.7669292
v 0.1337221 5.505421 0.7669292
v 0.190609 1.61743 0.6449224
v 0.1134008 7.516468 0.5346635
v 0.190609 5.505421 0.6449224
v 0.190609 7.516468 0.6449303
v 0.1134008 5.505421 0.5346635
v 0.1134008 1.61743 0.5346635
v 0.190609 0.008605957 0.6449224
v 0.190609 1.61743 0.6449224
v 0.1134008 0.008605957 0.5346635
v 0.1134008 5.505421 0.5346635
v 0.190609 1.61743 0.6449224
v 0.190609 5.505421 0.6449224
v 0.1134008 1.61743 0.5346635
v 0.4753048 1.061441 0.6172231
v 0.4247827 0.001710832 0.5880592
v 0.4753048 0.001710832 0.6172231
v 0.4247827 1.061441 0.5880592
v 0.3742605 1.061441 0.6172231
v 0.4247827 0.001710832 0.5880592
v 0.4247827 1.061441 0.5880592
v 0.3742605 0.001710832 0.6172231
v 0.3742605 1.061441 0.6755508
v 0.3742605 0.001710832 0.6172231
v 0.3742605 1.061441 0.6172231
v 0.3742605 0.001710832 0.6755508
v 0.4247906 1.061441 0.7047146
v 0.3742605 0.001710832 0.6755508
v 0.3742605 1.061441 0.6755508
v 0.4247827 0.001710832 0.7047146
v 0.475289 1.061441 0.6755508
v 0.4247827 0.001710832 0.7047146
v 0.4247906 1.061441 0.7047146
v 0.475289 0.001710832 0.6755508
v 0.4753048 1.061441 0.6172231
v 0.475289 0.001710832 0.6755508
v 0.475289 1.061441 0.6755508
v 0.4753048 0.001710832 0.6172231
v 0.3742605 3.508117 0.6755508
v 0.4247827 3.508117 0.5880592
v 0.475289 3.508117 0.6755508
v 0.3742605 3.508117 0.6172231
v 0.4247906 3.508117 0.7047146
v 0.4753048 3.508117 0.6172231
v 0.6476913 1.152669 0.6032428
v 0.2630278 1.339424 0.5695825
v 0.2630278 1.152669 0.5695825
v 0.6476913 1.339424 0.6032428
v 0.4135098 1.513251 0.3182462
v 0.2684426 1.513251 0.6842113
v 0.5357066 1.513251 0.5299057
v 0.1462379 1.513251 0.4725596
v 0.4135098 1.842896 0.3182462
v 0.2684426 1.842896 0.6842113
v 0.1462379 1.842896 0.4725596
v 0.5357066 1.842896 0.5299057
v 0.5357066 1.842896 0.5299057
v 0.2684426 1.513251 0.6842113
v 0.2684426 1.842896 0.6842113
v 0.5357066 1.513251 0.5299057
v 0.4135098 1.842896 0.3182462
v 0.5357066 1.513251 0.5299057
v 0.5357066 1.842896 0.5299057
v 0.4135098 1.513251 0.3182462
v 0.1462379 1.842896 0.4725596
v 0.4135098 1.513251 0.3182462
v 0.4135098 1.842896 0.3182462
v 0.1462379 1.513251 0.4725596
v 0.2684426 1.842896 0.6842113
v 0.1462379 1.513251 0.4725596
v 0.1462379 1.842896 0.4725596
v 0.2684426 1.513251 0.6842113
v 0.2784172 3.288137 0.3657364
v 0.4332373 3.123263 0.6065044
v 0.296609 3.308261 0.3698291
v 0.4145547 3.103821 0.6015487
v 0.01203984 3.497667 -0.09660232
v 0.02771425 3.520031 -0.09686357
v -0.3740407 3.659335 -0.7703236
v -0.3609866 3.682965 -0.7751367
v 0.2546682 3.288137 0.3794475
v 0.4145547 3.103821 0.6015487
v 0.2784172 3.288137 0.3657364
v 0.3908057 3.103813 0.6152678
v -0.01170129 3.497667 -0.08289123
v 0.01203984 3.497667 -0.09660232
v -0.3977818 3.659335 -0.7566045
v -0.3740407 3.659335 -0.7703236
v 0.2491188 3.308261 0.3972434
v 0.3908057 3.103813 0.6152678
v 0.2546682 3.288137 0.3794475
v 0.3857313 3.123263 0.6339266
v -0.01977599 3.520031 -0.06944925
v -0.01170129 3.497667 -0.08289123
v -0.4084768 3.682965 -0.7477145
v -0.3977818 3.659335 -0.7566045
v 0.2673026 3.3284 0.4013363
v 0.3857313 3.123263 0.6339266
v 0.2491188 3.308261 0.3972434
v 0.4044297 3.142714 0.6388664
v -0.004093647 3.542394 -0.06971049
v -0.01977599 3.520031 -0.06944925
v -0.3954228 3.706588 -0.7525197
v -0.4084768 3.682965 -0.7477145
v 0.2910596 3.3284 0.3876252
v 0.4044297 3.142714 0.6388664
v 0.2673026 3.3284 0.4013363
v 0.4281709 3.142714 0.6251553
v 0.01964748 3.542394 -0.08341372
v -0.004093647 3.542394 -0.06971049
v -0.3716816 3.706588 -0.7662387
v -0.3954228 3.706588 -0.7525197
v 0.296609 3.308261 0.3698291
v 0.4281709 3.142714 0.6251553
v 0.2910596 3.3284 0.3876252
v 0.4332373 3.123263 0.6065044
v 0.02771425 3.520031 -0.09686357
v 0.01964748 3.542394 -0.08341372
v -0.3609866 3.682965 -0.7751367
v -0.3716816 3.706588 -0.7662387
v -0.4084768 3.682965 -0.7477145
v -0.3740407 3.659335 -0.7703236
v -0.3716816 3.706588 -0.7662387
v -0.3977818 3.659335 -0.7566045
v -0.3954228 3.706588 -0.7525197
v -0.3609866 3.682965 -0.7751367
v -0.4267477 3.600105 -0.7193422
v -0.3637256 3.673568 -0.7193422
v -0.3952327 3.600105 -0.664759
v -0.3637256 3.673568 -0.7193422
v -0.3952327 3.600105 -0.7739255
v -0.4388756 3.524694 -0.7193422
v -0.4012967 3.524694 -0.7844226
v -0.4139628 3.476269 -0.7193422
v -0.3888442 3.476269 -0.7628664
v -0.3637256 3.452172 -0.7193422
v -0.3322186 3.600105 -0.7739255
v -0.3952327 3.600105 -0.7739255
v -0.4012967 3.524694 -0.7844226
v -0.3261546 3.524694 -0.7844226
v -0.3888442 3.476269 -0.7628664
v -0.338607 3.476269 -0.7628664
v -0.3637256 3.673568 -0.7193422
v -0.3006956 3.600105 -0.7193422
v -0.3637256 3.452172 -0.7193422
v -0.338607 3.476269 -0.7628664
v -0.3888442 3.476269 -0.6758339
v -0.4139628 3.476269 -0.7193422
v -0.4012967 3.524694 -0.6542619
v -0.4388756 3.524694 -0.7193422
v -0.4267477 3.600105 -0.7193422
v -0.3952327 3.600105 -0.664759
v -0.3637256 3.452172 -0.7193422
v -0.338607 3.476269 -0.6758339
v -0.3322186 3.600105 -0.664759
v -0.3637256 3.673568 -0.7193422
v -0.3006956 3.600105 -0.7193422
v -0.3637256 3.673568 -0.7193422
v -0.3952327 3.600105 -0.664759
v -0.3261546 3.524694 -0.6542619
v -0.4012967 3.524694 -0.6542619
v -0.3888442 3.476269 -0.6758339
v -0.338607 3.476269 -0.6758339
v -0.3322186 3.600105 -0.664759
v -0.2885678 3.524694 -0.7193422
v -0.3261546 3.524694 -0.6542619
v -0.3006956 3.600105 -0.7193422
v -0.338607 3.476269 -0.6758339
v -0.3134806 3.476269 -0.7193422
v -0.3006956 3.600105 -0.7193422
v -0.3261546 3.524694 -0.7844226
v -0.2885678 3.524694 -0.7193422
v -0.3322186 3.600105 -0.7739255
v -0.3134806 3.476269 -0.7193422
v -0.338607 3.476269 -0.7628664
v -0.3637256 3.452172 -0.7193422
v -0.338607 3.476269 -0.6758339
v 0.4753048 1.061441 0.6172231
v 0.4247827 3.508117 0.5880592
v 0.4247827 1.061441 0.5880592
v 0.4753048 3.508117 0.6172231
v 0.4247827 1.061441 0.5880592
v 0.3742605 3.508117 0.6172231
v 0.3742605 1.061441 0.6172231
v 0.4247827 3.508117 0.5880592
v 0.3742605 1.061441 0.6172231
v 0.3742605 3.508117 0.6755508
v 0.3742605 1.061441 0.6755508
v 0.3742605 3.508117 0.6172231
v 0.3742605 1.061441 0.6755508
v 0.4247906 3.508117 0.7047146
v 0.4247906 1.061441 0.7047146
v 0.3742605 3.508117 0.6755508
v 0.4247906 1.061441 0.7047146
v 0.475289 3.508117 0.6755508
v 0.475289 1.061441 0.6755508
v 0.4247906 3.508117 0.7047146
v 0.475289 1.061441 0.6755508
v 0.4753048 3.508117 0.6172231
v 0.4753048 1.061441 0.6172231
v 0.475289 3.508117 0.6755508
v -0.6136212 3.18585 0.3078917
v -0.361335 3.207232 0.4389785
v -0.6074622 3.207232 0.2972046
v -0.3674938 3.18585 0.4496735
v -0.6259391 3.18585 0.3292816
v -0.3674938 3.18585 0.4496735
v -0.6136212 3.18585 0.3078917
v -0.3798117 3.18585 0.4710634
v -0.6320979 3.207232 0.3399766
v -0.3798117 3.18585 0.4710634
v -0.6259391 3.18585 0.3292816
v -0.3859627 3.207232 0.4817505
v -0.6259391 3.228606 0.3292816
v -0.3859627 3.207232 0.4817505
v -0.6320979 3.207232 0.3399766
v -0.3798117 3.228606 0.4710634
v -0.6136212 3.228606 0.3078917
v -0.3798117 3.228606 0.4710634
v -0.6259391 3.228606 0.3292816
v -0.3674938 3.228606 0.4496735
v -0.6074622 3.207232 0.2972046
v -0.3674938 3.228606 0.4496735
v -0.6136212 3.228606 0.3078917
v -0.361335 3.207232 0.4389785
v -0.3798117 3.18585 0.4710634
v -0.3798117 3.228606 0.4710634
v -0.361335 3.207232 0.4389785
v -0.3859627 3.207232 0.4817505
v -0.3674938 3.18585 0.4496735
v -0.3674938 3.228606 0.4496735
v -0.6259391 3.18585 0.3292816
v -0.6136212 3.18585 0.3078917
v -0.6320979 3.207232 0.3399766
v -0.6136212 3.228606 0.3078917
v -0.6259391 3.228606 0.3292816
v -0.6074622 3.207232 0.2972046
v -0.6136212 2.571897 0.3078917
v -0.361335 2.593263 0.4389785
v -0.6074622 2.593263 0.2972046
v -0.3674938 2.571897 0.4496735
v -0.6259391 2.571897 0.3292816
v -0.3674938 2.571897 0.4496735
v -0.6136212 2.571897 0.3078917
v -0.3798117 2.571897 0.4710634
v -0.6320979 2.593263 0.3399766
v -0.3798117 2.571897 0.4710634
v -0.6259391 2.571897 0.3292816
v -0.3859627 2.593263 0.4817505
v -0.6259391 2.61463 0.3292816
v -0.3859627 2.593263 0.4817505
v -0.6320979 2.593263 0.3399766
v -0.3798117 2.61463 0.4710634
v -0.6136212 2.61463 0.3078917
v -0.3798117 2.61463 0.4710634
v -0.6259391 2.61463 0.3292816
v -0.3674938 2.61463 0.4496735
v -0.6074622 2.593263 0.2972046
v -0.3674938 2.61463 0.4496735
v -0.6136212 2.61463 0.3078917
v -0.361335 2.593263 0.4389785
v -0.3859627 2.593263 0.4817505
v -0.3798117 2.61463 0.4710634
v -0.3798117 2.571897 0.4710634
v -0.361335 2.593263 0.4389785
v -0.3674938 2.571897 0.4496735
v -0.3674938 2.61463 0.4496735
v -0.6320979 2.593263 0.3399766
v -0.6136212 2.571897 0.3078917
v -0.6136212 2.61463 0.3078917
v -0.6259391 2.571897 0.3292816
v -0.6259391 2.61463 0.3292816
v -0.6074622 2.593263 0.2972046
v -0.3476 3.098121 0.477365
v -0.3999429 3.159204 0.4471403
v -0.3999429 3.037038 0.4471403
v -0.6136925 3.159204 0.3237322
v -0.6136925 3.037038 0.3237322
v -0.6476694 2.478358 0.3041155
v -0.5953265 2.417267 0.3343402
v -0.5953265 2.539448 0.3343402
v -0.3815849 2.417267 0.4577482
v -0.3815849 2.539448 0.4577482
v -0.4759795 3.139547 0.3956365
v -0.4455886 3.189214 0.4131791
v -0.4759795 3.189214 0.3956365
v -0.4455886 3.139547 0.4131791
v -0.4576057 2.519784 0.4062443
v -0.4272069 2.569451 0.4237871
v -0.4576057 2.569451 0.4062365
v -0.4272069 2.519784 0.4237871
v -0.5310773 3.139547 0.3638286
v -0.5614682 3.189214 0.346278
v -0.5614682 3.139547 0.346278
v -0.5310773 3.189214 0.3638286
v -0.5127035 2.519784 0.3744364
v -0.5430943 2.569451 0.356886
v -0.5430943 2.519784 0.356886
v -0.5127035 2.569451 0.3744364
v -0.4455886 3.139547 0.4131791
v -0.452278 3.189214 0.4247608
v -0.4455886 3.189214 0.4131791
v -0.452278 3.139547 0.4247608
v -0.4759795 3.139547 0.3956365
v -0.452278 3.139547 0.4247608
v -0.4455886 3.139547 0.4131791
v -0.4826609 3.139547 0.4072182
v -0.4759795 3.189214 0.3956365
v -0.4826609 3.139547 0.4072182
v -0.4759795 3.139547 0.3956365
v -0.4826609 3.189214 0.4072182
v -0.4272069 2.519784 0.4237871
v -0.4338962 2.569451 0.4353766
v -0.4272069 2.569451 0.4237871
v -0.4338962 2.519784 0.4353766
v -0.4576057 2.519784 0.4062443
v -0.4338962 2.519784 0.4353766
v -0.4272069 2.519784 0.4237871
v -0.464295 2.519784 0.417826
v -0.4576057 2.569451 0.4062365
v -0.464295 2.519784 0.417826
v -0.4576057 2.519784 0.4062443
v -0.464295 2.569451 0.417826
v -0.5310773 3.139547 0.3638286
v -0.5377666 3.189214 0.3754101
v -0.5310773 3.189214 0.3638286
v -0.5377666 3.139547 0.3754101
v -0.5614682 3.139547 0.346278
v -0.5377666 3.139547 0.3754101
v -0.5310773 3.139547 0.3638286
v -0.5681576 3.139547 0.3578675
v -0.5614682 3.189214 0.346278
v -0.5681576 3.139547 0.3578675
v -0.5614682 3.139547 0.346278
v -0.5681576 3.189214 0.3578675
v -0.5127035 2.519784 0.3744364
v -0.5193928 2.569451 0.3860102
v -0.5127035 2.569451 0.3744364
v -0.5193928 2.519784 0.3860102
v -0.5430943 2.519784 0.356886
v -0.5193928 2.519784 0.3860102
v -0.5127035 2.519784 0.3744364
v -0.5497836 2.519784 0.3684675
v -0.5430943 2.569451 0.356886
v -0.5497836 2.519784 0.3684675
v -0.5430943 2.519784 0.356886
v -0.5497836 2.569451 0.3684675
v -0.5377666 3.189214 0.3754101
v -0.5681576 3.139547 0.3578675
v -0.5681576 3.189214 0.3578675
v -0.5377666 3.139547 0.3754101
v -0.452278 3.189214 0.4247608
v -0.4826609 3.139547 0.4072182
v -0.4826609 3.189214 0.4072182
v -0.452278 3.139547 0.4247608
v -0.5193928 2.569451 0.3860102
v -0.5497836 2.519784 0.3684675
v -0.5497836 2.569451 0.3684675
v -0.5193928 2.519784 0.3860102
v -0.4338962 2.569451 0.4353766
v -0.464295 2.519784 0.417826
v -0.464295 2.569451 0.417826
v -0.4338962 2.519784 0.4353766
v -0.0243358 0.5039322 0.5411945
v 0.1160845 0.2321084 0.5289083
v 0.1160845 0.5039322 0.5289083
v -0.0243358 0.2321084 0.5411945
v -0.0243358 0.8437179 0.5411945
v 0.1160845 0.5039322 0.5289083
v 0.1160845 0.8437179 0.5289083
v -0.0243358 0.5039322 0.5411945
v -0.08390635 0.5039322 0.6689406
v -0.0243358 0.2321084 0.5411945
v -0.0243358 0.5039322 0.5411945
v -0.08390635 0.2321084 0.6689406
v -0.08390635 0.8437179 0.6689406
v -0.0243358 0.5039322 0.5411945
v -0.0243358 0.8437179 0.5411945
v -0.08390635 0.5039322 0.6689406
v -0.003056645 0.5039322 0.7844085
v -0.08390635 0.2321084 0.6689406
v -0.08390635 0.5039322 0.6689406
v -0.003056645 0.2321084 0.7844085
v -0.003056645 0.8437179 0.7844085
v -0.08390635 0.5039322 0.6689406
v -0.08390635 0.8437179 0.6689406
v -0.003056645 0.5039322 0.7844085
v 0.1373557 0.5039322 0.7721224
v -0.003056645 0.2321084 0.7844085
v -0.003056645 0.5039322 0.7844085
v 0.1373557 0.2321084 0.7721224
v 0.1373557 0.8437179 0.7721224
v -0.003056645 0.5039322 0.7844085
v -0.003056645 0.8437179 0.7844085
v 0.1373557 0.5039322 0.7721224
v 0.1969342 0.5039322 0.6443682
v 0.1373557 0.2321084 0.7721224
v 0.1373557 0.5039322 0.7721224
v 0.1969342 0.2321084 0.6443762
v 0.1969342 0.8437179 0.6443762
v 0.1373557 0.5039322 0.7721224
v 0.1373557 0.8437179 0.7721224
v 0.1969342 0.5039322 0.6443682
v 0.1160845 0.5039322 0.5289083
v 0.1969342 0.2321084 0.6443762
v 0.1969342 0.5039322 0.6443682
v 0.1160845 0.2321084 0.5289083
v 0.1160845 0.8437179 0.5289083
v 0.1969342 0.5039322 0.6443682
v 0.1969342 0.8437179 0.6443762
v 0.1160845 0.5039322 0.5289083
v 0.4247906 0.7443359 0.5822962
v 0.4802921 0.3795584 0.6143416
v 0.4802921 0.7443359 0.6143416
v 0.4247906 0.3795584 0.5822962
v 0.4247906 1.063515 0.5822962
v 0.4802921 0.7443359 0.6143416
v 0.4802921 1.063515 0.6143416
v 0.4247906 0.7443359 0.5822962
v 0.3692732 0.7443359 0.6143416
v 0.4247906 0.3795584 0.5822962
v 0.4247906 0.7443359 0.5822962
v 0.3692732 0.3795584 0.6143416
v 0.3692732 1.063515 0.6143416
v 0.4247906 0.7443359 0.5822962
v 0.4247906 1.063515 0.5822962
v 0.3692732 0.7443359 0.6143416
v 0.3692732 0.7443359 0.6784403
v 0.3692732 0.3795584 0.6143416
v 0.3692732 0.7443359 0.6143416
v 0.3692732 0.3795584 0.6784403
v 0.3692732 1.063515 0.6784403
v 0.3692732 0.7443359 0.6143416
v 0.3692732 1.063515 0.6143416
v 0.3692732 0.7443359 0.6784403
v 0.4247827 0.7443359 0.7104778
v 0.3692732 0.3795584 0.6784403
v 0.3692732 0.7443359 0.6784403
v 0.4247827 0.3795584 0.7104778
v 0.4247827 1.063515 0.7104778
v 0.3692732 0.7443359 0.6784403
v 0.3692732 1.063515 0.6784403
v 0.4247827 0.7443359 0.7104778
v 0.4802921 0.7443359 0.6784403
v 0.4247827 0.3795584 0.7104778
v 0.4247827 0.7443359 0.7104778
v 0.4802921 0.3795584 0.6784403
v 0.4802921 1.063515 0.6784403
v 0.4247827 0.7443359 0.7104778
v 0.4247827 1.063515 0.7104778
v 0.4802921 0.7443359 0.6784403
v 0.4802921 0.7443359 0.6143416
v 0.4802921 0.3795584 0.6784403
v 0.4802921 0.7443359 0.6784403
v 0.4802921 0.3795584 0.6143416
v 0.4802921 1.063515 0.6143416
v 0.4802921 0.7443359 0.6784403
v 0.4802921 1.063515 0.6784403
v 0.4802921 0.7443359 0.6143416
v -0.4132345 3.20386 0.4253783
v -0.04869437 3.216565 0.6098925
v -0.4186018 3.216565 0.4368728
v -0.04332709 3.20386 0.5983902
v -0.4186018 3.19117 0.4368728
v -0.04332709 3.20386 0.5983902
v -0.4132345 3.20386 0.4253783
v -0.04869437 3.19117 0.6098925
v -0.4239612 3.20386 0.4483832
v -0.04869437 3.19117 0.6098925
v -0.4186018 3.19117 0.4368728
v -0.05405378 3.20386 0.6213951
v -0.4186018 3.216565 0.4368728
v -0.05405378 3.20386 0.6213951
v -0.4239612 3.20386 0.4483832
v -0.04869437 3.216565 0.6098925
v -0.4132345 2.594775 0.4253783
v -0.04869437 2.607466 0.6098925
v -0.4186018 2.607466 0.4368728
v -0.04332709 2.594775 0.5983902
v -0.4186018 2.582093 0.4368728
v -0.04332709 2.594775 0.5983902
v -0.4132345 2.594775 0.4253783
v -0.04869437 2.582093 0.6098925
v -0.4239612 2.594775 0.4483832
v -0.04869437 2.582093 0.6098925
v -0.4186018 2.582093 0.4368728
v -0.05405378 2.594775 0.6213951
v -0.4186018 2.607466 0.4368728
v -0.05405378 2.594775 0.6213951
v -0.4239612 2.594775 0.4483832
v -0.04869437 2.607466 0.6098925
vt 0.7590764 0.4985296
vt 0.7338414 0.3614642
vt 0.7338414 0.4985296
vt 0.7590764 0.3614642
vt 0.7590764 0.4985296
vt 0.7338414 0.3614642
vt 0.7338414 0.4985296
vt 0.7590764 0.3614642
vt 0.7590764 0.4985296
vt 0.7338414 0.3614642
vt 0.7338414 0.4985296
vt 0.7590764 0.3614642
vt 0.7590764 0.4985296
vt 0.7338414 0.3614642
vt 0.7338414 0.4985296
vt 0.7590764 0.3614642
vt 0.7590764 0.4985296
vt 0.7338414 0.3614642
vt 0.7338414 0.4985296
vt 0.7590764 0.3614642
vt 0.7590764 0.4985296
vt 0.7338414 0.3614642
vt 0.7338414 0.4985296
vt 0.7590764 0.3614642
vt 0.7590764 0.4985296
vt 0.7338414 0.3614642
vt 0.7338414 0.4985296
vt 0.7590764 0.3614642
vt 0.7590764 0.4985296
vt 0.7338414 0.3614642
vt 0.7338414 0.4985296
vt 0.7590764 0.3614642
vt 0.7590764 0.4985296
vt 0.7338414 0.3614642
vt 0.7338414 0.4985296
vt 0.7590764 0.3614642
vt 0.7590764 0.4985296
vt 0.7338414 0.3614642
vt 0.7338414 0.4985296
vt 0.7590764 0.3614642
vt 0.7590764 0.4985296
vt 0.7338414 0.3614642
vt 0.7338414 0.4985296
vt 0.7590764 0.3614642
vt 0.7590764 0.4985296
vt 0.7338414 0.3614642
vt 0.7338414 0.4985296
vt 0.7590764 0.3614642
vt 0.2583462 0.4930779
vt 0.4991482 0.4771224
vt 0.2583462 0.4771224
vt 0.4991482 0.4930779
vt 0.2583462 0.4930779
vt 0.4991482 0.4771224
vt 0.2583462 0.4771224
vt 0.4991482 0.4930779
vt 0.2583462 0.4930779
vt 0.4991482 0.4771224
vt 0.2583462 0.4771224
vt 0.4991482 0.4930779
vt 0.2583462 0.4162259
vt 0.4991482 0.4002704
vt 0.2583462 0.4002704
vt 0.4991482 0.4162259
vt 0.2583462 0.4162259
vt 0.4991482 0.4002704
vt 0.2583462 0.4002704
vt 0.4991482 0.4162259
vt 0.2583462 0.4162259
vt 0.4991482 0.4002704
vt 0.2583462 0.4002704
vt 0.4991482 0.4162259
vt 0.2583462 0.431202
vt 0.4991482 0.4162259
vt 0.2583462 0.4162259
vt 0.4991482 0.431202
vt 0.2583462 0.431202
vt 0.4991482 0.4162259
vt 0.2583462 0.4162259
vt 0.4991482 0.431202
vt 0.2583462 0.431202
vt 0.4991482 0.4162259
vt 0.2583462 0.4162259
vt 0.4991482 0.431202
vt 0.2583462 0.4462038
vt 0.4991482 0.431202
vt 0.2583462 0.431202
vt 0.4991482 0.4462038
vt 0.4991482 0.4462038
vt 0.2583462 0.431202
vt 0.2583462 0.4462038
vt 0.4991482 0.431202
vt 0.2583462 0.4462038
vt 0.4991482 0.431202
vt 0.2583462 0.431202
vt 0.4991482 0.4462038
vt 0.2583462 0.4621593
vt 0.4991482 0.4462038
vt 0.2583462 0.4462038
vt 0.4991482 0.4621593
vt 0.2583462 0.4621593
vt 0.4991482 0.4462038
vt 0.2583462 0.4462038
vt 0.4991482 0.4621593
vt 0.2583462 0.4621593
vt 0.4991482 0.4462038
vt 0.2583462 0.4462038
vt 0.4991482 0.4621593
vt 0.2583462 0.4771224
vt 0.4991482 0.4621593
vt 0.2583462 0.4621593
vt 0.4991482 0.4771224
vt 0.2583462 0.4771224
vt 0.4991482 0.4621593
vt 0.2583462 0.4621593
vt 0.4991482 0.4771224
vt 0.2583462 0.4771224
vt 0.4991482 0.4621593
vt 0.2583462 0.4621593
vt 0.4991482 0.4771224
vt 0.2642877 0.4614376
vt 0.5007979 0.4316788
vt 0.5007979 0.4614376
vt 0.2642877 0.4316788
vt 0.2642877 0.4005024
vt 0.5007979 0.4316788
vt 0.2642877 0.4316788
vt 0.5007979 0.4005024
vt 0.2642877 0.4316788
vt 0.5007979 0.4005024
vt 0.2642877 0.4005024
vt 0.5007979 0.4316788
vt 0.2642877 0.4614376
vt 0.5007979 0.4316788
vt 0.2642877 0.4316788
vt 0.5007979 0.4614376
vt 0.2642877 0.492614
vt 0.5007979 0.4614376
vt 0.2642877 0.4614376
vt 0.5007979 0.492614
vt 0.2642877 0.4614376
vt 0.5007979 0.492614
vt 0.2642877 0.492614
vt 0.5007979 0.4614376
vt 0.2806556 0.335907
vt 0.263553 0.3653822
vt 0.2972942 0.3653822
vt 0.263553 0.345586
vt 0.2972942 0.345586
vt 0.2806556 0.3750612
vt 0.3090868 0.5111858
vt 0.2525208 0.6270888
vt 0.3090868 0.6270888
vt 0.2525208 0.5111858
vt 0.5665533 0.4652782
vt 0.5385473 0.4430591
vt 0.5665533 0.4430591
vt 0.5385473 0.4652782
vt 0.5670301 0.4676883
vt 0.5385473 0.4903972
vt 0.5385473 0.4676883
vt 0.5670301 0.4903972
vt 0.5390242 0.4135581
vt 0.5618104 0.4382131
vt 0.5618104 0.4135581
vt 0.5390242 0.4382131
vt 0.6415107 0.4943023
vt 0.5743893 0.4053741
vt 0.5743893 0.4943023
vt 0.6415107 0.4053741
vt 0.7262889 0.4937868
vt 0.6427609 0.4069078
vt 0.6427609 0.4937868
vt 0.7262889 0.4069078
vt 0.5743893 0.4943023
vt 0.6415107 0.4053741
vt 0.6415107 0.4943023
vt 0.5743893 0.4053741
vt 0.6337392 0.3885809
vt 0.6104631 0.3934139
vt 0.6337392 0.3934139
vt 0.6104631 0.3885809
vt 0.6746977 0.3885809
vt 0.6746977 0.3934139
vt 0.7268302 0.3885809
vt 0.7268302 0.3934139
vt 0.6337392 0.3842118
vt 0.6104631 0.3885809
vt 0.6337392 0.3885809
vt 0.6104631 0.3842118
vt 0.6746977 0.3842118
vt 0.6746977 0.3885809
vt 0.7268302 0.3842118
vt 0.7268302 0.3885809
vt 0.6337392 0.3885809
vt 0.6104631 0.3842118
vt 0.6337392 0.3842118
vt 0.6104631 0.3885809
vt 0.6746977 0.3885809
vt 0.6746977 0.3842118
vt 0.7268302 0.3885809
vt 0.7268302 0.3842118
vt 0.6337392 0.3934139
vt 0.6104631 0.3885809
vt 0.6337392 0.3885809
vt 0.6104631 0.3934139
vt 0.6746977 0.3934139
vt 0.6746977 0.3885809
vt 0.7268302 0.3934139
vt 0.7268302 0.3885809
vt 0.6337392 0.3982341
vt 0.6104631 0.3934139
vt 0.6337392 0.3934139
vt 0.6104631 0.3982341
vt 0.6746977 0.3982341
vt 0.6746977 0.3934139
vt 0.7268302 0.3982341
vt 0.7268302 0.3934139
vt 0.6337392 0.3934139
vt 0.6104631 0.3982341
vt 0.6337392 0.3982341
vt 0.6104631 0.3934139
vt 0.6746977 0.3934139
vt 0.6746977 0.3982341
vt 0.7268302 0.3934139
vt 0.7268302 0.3982341
vt 0.2806556 0.335907
vt 0.263553 0.3653822
vt 0.2972942 0.3653822
vt 0.263553 0.345586
vt 0.2972942 0.345586
vt 0.2806556 0.3750612
vt 0.5327992 0.4604452
vt 0.5228238 0.4913767
vt 0.5393206 0.4801382
vt 0.5228238 0.4913767
vt 0.5123844 0.4604452
vt 0.5347067 0.4343467
vt 0.5104898 0.4343467
vt 0.5309047 0.4169477
vt 0.5142919 0.4169477
vt 0.5228238 0.4000513
vt 0.5123844 0.4604452
vt 0.5327992 0.4604452
vt 0.5347067 0.4343467
vt 0.5104898 0.4343467
vt 0.5309047 0.4169477
vt 0.5142919 0.4169477
vt 0.5228238 0.4913767
vt 0.5060821 0.4801382
vt 0.5228238 0.4000513
vt 0.5061466 0.404008
vt 0.5309047 0.4169477
vt 0.5142919 0.4169477
vt 0.5347067 0.4343467
vt 0.5104898 0.4343467
vt 0.5123844 0.4604452
vt 0.5327992 0.4604452
vt 0.5228238 0.4000513
vt 0.5393851 0.404008
vt 0.5327992 0.4604452
vt 0.5228238 0.4913767
vt 0.5393206 0.4801382
vt 0.5228238 0.4913767
vt 0.5123844 0.4604452
vt 0.5347067 0.4343467
vt 0.5104898 0.4343467
vt 0.5142919 0.4169477
vt 0.5309047 0.4169477
vt 0.5123844 0.4604452
vt 0.5347067 0.4343467
vt 0.5104898 0.4343467
vt 0.5327992 0.4604452
vt 0.5142919 0.4169477
vt 0.5309047 0.4169477
vt 0.5123844 0.4604452
vt 0.5347067 0.4343467
vt 0.5104898 0.4343467
vt 0.5327992 0.4604452
vt 0.5142919 0.4169477
vt 0.5309047 0.4169477
vt 0.5228238 0.4000513
vt 0.5061466 0.404008
vt 0.791606 0.3157242
vt 0.7829967 0.5576347
vt 0.7829967 0.3157242
vt 0.791606 0.5576347
vt 0.7829967 0.3157242
vt 0.7739493 0.5576347
vt 0.7739493 0.3157242
vt 0.7829967 0.5576347
vt 0.7739493 0.3157242
vt 0.7829967 0.5576347
vt 0.7829967 0.3157242
vt 0.7739493 0.5576347
vt 0.7829967 0.3157242
vt 0.791606 0.5576347
vt 0.791606 0.3157242
vt 0.7829967 0.5576347
vt 0.791606 0.3157242
vt 0.8006406 0.5576347
vt 0.8006406 0.3157242
vt 0.791606 0.5576347
vt 0.8006406 0.3157242
vt 0.791606 0.5576347
vt 0.791606 0.3157242
vt 0.8006406 0.5576347
vt 0.7829838 0.557828
vt 0.7921602 0.4964933
vt 0.7921602 0.557828
vt 0.7829838 0.4964933
vt 0.7737817 0.557828
vt 0.7829838 0.4964933
vt 0.7829838 0.557828
vt 0.7737817 0.4964933
vt 0.7829838 0.557828
vt 0.7737817 0.4964933
vt 0.7737817 0.557828
vt 0.7829838 0.4964933
vt 0.7921602 0.557828
vt 0.7829838 0.4964933
vt 0.7829838 0.557828
vt 0.7921602 0.4964933
vt 0.8013237 0.557828
vt 0.7921602 0.4964933
vt 0.7921602 0.557828
vt 0.8013237 0.4964933
vt 0.7921602 0.557828
vt 0.8013237 0.4964933
vt 0.8013237 0.557828
vt 0.7921602 0.4964933
vt 0.2629602 0.3454958
vt 0.2976035 0.3454958
vt 0.2802818 0.3760149
vt 0.2802818 0.3353271
vt 0.2629602 0.3658333
vt 0.2976035 0.3658333
vt 0.2629602 0.3454958
vt 0.2629602 0.3658333
vt 0.2802818 0.3353271
vt 0.2976035 0.3658333
vt 0.2976035 0.3454958
vt 0.2802818 0.3760149
vt 0.7829838 0.557828
vt 0.7921602 0.4964933
vt 0.7921602 0.557828
vt 0.7829838 0.4964933
vt 0.7737817 0.557828
vt 0.7829838 0.4964933
vt 0.7829838 0.557828
vt 0.7737817 0.4964933
vt 0.7829838 0.557828
vt 0.7737817 0.4964933
vt 0.7737817 0.557828
vt 0.7829838 0.4964933
vt 0.7921602 0.557828
vt 0.7829838 0.4964933
vt 0.7829838 0.557828
vt 0.7921602 0.4964933
vt 0.8013237 0.557828
vt 0.7921602 0.4964933
vt 0.7921602 0.557828
vt 0.8013237 0.4964933
vt 0.7921602 0.557828
vt 0.8013237 0.4964933
vt 0.8013237 0.557828
vt 0.7921602 0.4964933
vt 0.2802818 0.3353271
vt 0.2976035 0.3454958
vt 0.2629602 0.3454958
vt 0.2802818 0.3760149
vt 0.2629602 0.3658333
vt 0.2976035 0.3658333
vt 0.2802818 0.3353271
vt 0.2629602 0.3658333
vt 0.2976035 0.3658333
vt 0.2629602 0.3454958
vt 0.2976035 0.3454958
vt 0.2802818 0.3760149
vt 0.633752 0.3600981
vt 0.6512671 0.3740817
vt 0.6512671 0.3460887
vt 0.7228864 0.3740817
vt 0.7228864 0.3460887
vt 0.633752 0.3600981
vt 0.6512671 0.3740817
vt 0.6512671 0.3460887
vt 0.7228864 0.3740817
vt 0.7228864 0.3460887
vt 0.5468087 0.3944579
vt 0.5684478 0.4100139
vt 0.5684478 0.3944579
vt 0.5468087 0.4100139
vt 0.5467957 0.3944579
vt 0.5684736 0.4099881
vt 0.5684736 0.3944579
vt 0.5467957 0.4099881
vt 0.5468087 0.3944579
vt 0.5684478 0.4100139
vt 0.5468087 0.4100139
vt 0.5684478 0.3944579
vt 0.5468087 0.4100139
vt 0.5684478 0.3944579
vt 0.5468087 0.3944579
vt 0.5684478 0.4100139
vt 0.5468087 0.3924731
vt 0.5684478 0.3865446
vt 0.5684478 0.3924731
vt 0.5468087 0.3865446
vt 0.5445532 0.3944579
vt 0.5387149 0.4100139
vt 0.5445532 0.4100139
vt 0.5387149 0.3944579
vt 0.5684478 0.3924731
vt 0.5468087 0.3865446
vt 0.5468087 0.3924731
vt 0.5684478 0.3865446
vt 0.5468087 0.3865446
vt 0.5684478 0.3924731
vt 0.5684478 0.3865446
vt 0.5468087 0.3924731
vt 0.5445532 0.3944579
vt 0.5387149 0.4100139
vt 0.5445532 0.4100139
vt 0.5387149 0.3944579
vt 0.5684478 0.3924731
vt 0.5468087 0.3865446
vt 0.5468087 0.3924731
vt 0.5684478 0.3865446
vt 0.5468087 0.3924731
vt 0.5684478 0.3865446
vt 0.5684478 0.3924731
vt 0.5468087 0.3865446
vt 0.5445532 0.3944579
vt 0.5387149 0.4100139
vt 0.5445532 0.4100139
vt 0.5387149 0.3944579
vt 0.5684478 0.3924731
vt 0.5468087 0.3865446
vt 0.5468087 0.3924731
vt 0.5684478 0.3865446
vt 0.5468087 0.3865446
vt 0.5684478 0.3924731
vt 0.5684478 0.3865446
vt 0.5468087 0.3924731
vt 0.5445532 0.3944579
vt 0.5387149 0.4100139
vt 0.5445532 0.4100139
vt 0.5387149 0.3944579
vt 0.5684478 0.3924731
vt 0.5468087 0.3865446
vt 0.5468087 0.3924731
vt 0.5684478 0.3865446
vt 0.5684478 0.3944579
vt 0.5468087 0.4100139
vt 0.5684478 0.4100139
vt 0.5468087 0.3944579
vt 0.5684478 0.3944579
vt 0.5468087 0.4100139
vt 0.5684478 0.4100139
vt 0.5468087 0.3944579
vt 0.5684478 0.3944579
vt 0.5468087 0.4100139
vt 0.5684478 0.4100139
vt 0.5468087 0.3944579
vt 0.5684478 0.3944579
vt 0.5468087 0.4100139
vt 0.5684478 0.4100139
vt 0.5468087 0.3944579
vt 0.2290643 0.1067301
vt 0.1141666 0.007684745
vt 0.1141666 0.1067301
vt 0.2290643 0.007684745
vt 0.2290643 0.1067301
vt 0.1141666 0.007684745
vt 0.1141666 0.1067301
vt 0.2290643 0.007684745
vt 0.2290643 0.1067301
vt 0.1141666 0.007684745
vt 0.1141666 0.1067301
vt 0.2290643 0.007684745
vt 0.2290643 0.1067301
vt 0.1141666 0.007684745
vt 0.1141666 0.1067301
vt 0.2290643 0.007684745
vt 0.2290643 0.1067301
vt 0.1141666 0.007684745
vt 0.1141666 0.1067301
vt 0.2290643 0.007684745
vt 0.2290643 0.1067301
vt 0.1141666 0.007684745
vt 0.1141666 0.1067301
vt 0.2290643 0.007684745
vt 0.2290643 0.1067301
vt 0.1141666 0.007684745
vt 0.1141666 0.1067301
vt 0.2290643 0.007684745
vt 0.2290643 0.1067301
vt 0.1141666 0.007684745
vt 0.1141666 0.1067301
vt 0.2290643 0.007684745
vt 0.2290643 0.1067301
vt 0.1141666 0.007684745
vt 0.1141666 0.1067301
vt 0.2290643 0.007684745
vt 0.2290643 0.1067301
vt 0.1141666 0.007684745
vt 0.1141666 0.1067301
vt 0.2290643 0.007684745
vt 0.2290643 0.1067301
vt 0.1141666 0.007684745
vt 0.1141666 0.1067301
vt 0.2290643 0.007684745
vt 0.2290643 0.1067301
vt 0.1141666 0.007684745
vt 0.1141666 0.1067301
vt 0.2290643 0.007684745
vt 0.1813782 0.1067301
vt 0.1141666 0.007684745
vt 0.1141666 0.1067301
vt 0.1813782 0.007684745
vt 0.1813782 0.1067301
vt 0.1141666 0.007684745
vt 0.1141666 0.1067301
vt 0.1813782 0.007684745
vt 0.2290643 0.1067301
vt 0.1813782 0.007684745
vt 0.1813782 0.1067301
vt 0.2290643 0.007684745
vt 0.2290643 0.1067301
vt 0.1813782 0.007684745
vt 0.1813782 0.1067301
vt 0.2290643 0.007684745
vt 0.1823062 0.1067301
vt 0.1141666 0.007684745
vt 0.1141666 0.1067301
vt 0.1823062 0.007684745
vt 0.1823062 0.1067301
vt 0.1141666 0.007684745
vt 0.1141666 0.1067301
vt 0.1823062 0.007684745
vt 0.2290643 0.1067301
vt 0.1823062 0.007684745
vt 0.1823062 0.1067301
vt 0.2290643 0.007684745
vt 0.2290643 0.1067301
vt 0.1823062 0.007684745
vt 0.1823062 0.1067301
vt 0.2290643 0.007684745
vt 0.182216 0.1067301
vt 0.1141666 0.007684745
vt 0.1141666 0.1067301
vt 0.182216 0.007684745
vt 0.182216 0.1067301
vt 0.1141666 0.007684745
vt 0.1141666 0.1067301
vt 0.182216 0.007684745
vt 0.2290643 0.1067301
vt 0.182216 0.007684745
vt 0.182216 0.1067301
vt 0.2290643 0.007684745
vt 0.2290643 0.1067301
vt 0.182216 0.007684745
vt 0.182216 0.1067301
vt 0.2290643 0.007684745
vt 0.1487712 0.8523092
vt 0.1552798 0.8074327
vt 0.1552798 0.8523092
vt 0.1487712 0.8074327
vt 0.1417472 0.8523092
vt 0.1487712 0.8074327
vt 0.1487712 0.8523092
vt 0.1417472 0.8074327
vt 0.1482428 0.8523092
vt 0.1417472 0.8074327
vt 0.1417472 0.8523092
vt 0.1482428 0.8074327
vt 0.1552798 0.8523092
vt 0.1482428 0.8074327
vt 0.1482428 0.8523092
vt 0.1552798 0.8074327
vt 0.1487712 0.8523092
vt 0.1552798 0.8074327
vt 0.1552798 0.8523092
vt 0.1487712 0.8074327
vt 0.1417472 0.8523092
vt 0.1487712 0.8074327
vt 0.1487712 0.8523092
vt 0.1417472 0.8074327
vt 0.1482428 0.8523092
vt 0.1417472 0.8074327
vt 0.1417472 0.8523092
vt 0.1482428 0.8074327
vt 0.1552798 0.8523092
vt 0.1482428 0.8074327
vt 0.1482428 0.8523092
vt 0.1552798 0.8074327
vn -0.08235228 -0.01176465 -0.9965339
vn -0.08235228 -0.01176465 -0.9965339
vn -0.08235228 -0.01176465 -0.9965339
vn -0.08235228 -0.01176465 -0.9965339
vn -0.9058753 -0.01176465 -0.423381
vn -0.9058753 -0.01176465 -0.423381
vn -0.9058753 -0.01176465 -0.423381
vn -0.9058753 -0.01176465 -0.423381
vn -0.8117584 -0.01176465 0.5838749
vn -0.8117584 -0.01176465 0.5838749
vn -0.8117584 -0.01176465 0.5838749
vn -0.8117584 -0.01176465 0.5838749
vn 0.09803849 -0.01176465 0.9951131
vn 0.09803849 -0.01176465 0.9951131
vn 0.09803849 -0.01176465 0.9951131
vn 0.09803849 -0.01176465 0.9951131
vn 0.9215616 -0.01176465 0.3880539
vn 0.9215616 -0.01176465 0.3880539
vn 0.9215616 -0.01176465 0.3880539
vn 0.9215616 -0.01176465 0.3880539
vn 0.8274447 -0.01176465 -0.561424
vn 0.8274447 -0.01176465 -0.561424
vn 0.8274447 -0.01176465 -0.561424
vn 0.8274447 -0.01176465 -0.561424
vn -0.08235228 -0.01176465 -0.9965339
vn -0.08235228 -0.01176465 -0.9965339
vn -0.08235228 -0.01176465 -0.9965339
vn -0.08235228 -0.01176465 -0.9965339
vn -0.9058753 -0.01176465 -0.423381
vn -0.9058753 -0.01176465 -0.423381
vn -0.9058753 -0.01176465 -0.423381
vn -0.9058753 -0.01176465 -0.423381
vn -0.8117584 -0.01176465 0.5838749
vn -0.8117584 -0.01176465 0.5838749
vn -0.8117584 -0.01176465 0.5838749
vn -0.8117584 -0.01176465 0.5838749
vn 0.09803849 -0.01176465 0.9951131
vn 0.09803849 -0.01176465 0.9951131
vn 0.09803849 -0.01176465 0.9951131
vn 0.09803849 -0.01176465 0.9951131
vn 0.9215616 -0.01176465 0.3880539
vn 0.9215616 -0.01176465 0.3880539
vn 0.9215616 -0.01176465 0.3880539
vn 0.9215616 -0.01176465 0.3880539
vn 0.8274447 -0.01176465 -0.561424
vn 0.8274447 -0.01176465 -0.561424
vn 0.8274447 -0.01176465 -0.561424
vn 0.8274447 -0.01176465 -0.561424
vn -0.08235228 -0.01176465 -0.9965339
vn -0.08235228 -0.01176465 -0.9965339
vn -0.08235228 -0.01176465 -0.9965339
vn -0.08235228 -0.01176465 -0.9965339
vn -0.08235228 -0.01176465 -0.9965339
vn -0.08235228 -0.01176465 -0.9965339
vn -0.08235228 -0.01176465 -0.9965339
vn -0.08235228 -0.01176465 -0.9965339
vn -0.08235228 -0.01176465 -0.9965339
vn -0.08235228 -0.01176465 -0.9965339
vn -0.08235228 -0.01176465 -0.9965339
vn -0.08235228 -0.01176465 -0.9965339
vn -0.9058753 -0.01176465 -0.423381
vn -0.9058753 -0.01176465 -0.423381
vn -0.9058753 -0.01176465 -0.423381
vn -0.9058753 -0.01176465 -0.423381
vn -0.9058753 -0.01176465 -0.423381
vn -0.9058753 -0.01176465 -0.423381
vn -0.9058753 -0.01176465 -0.423381
vn -0.9058753 -0.01176465 -0.423381
vn -0.9058753 -0.01176465 -0.423381
vn -0.9058753 -0.01176465 -0.423381
vn -0.9058753 -0.01176465 -0.423381
vn -0.9058753 -0.01176465 -0.423381
vn -0.8117584 -0.01176465 0.5838749
vn -0.8117584 -0.01176465 0.5838749
vn -0.8117584 -0.01176465 0.5838749
vn -0.8117584 -0.01176465 0.5838749
vn -0.8117584 -0.01176465 0.5838749
vn -0.8117584 -0.01176465 0.5838749
vn -0.8117584 -0.01176465 0.5838749
vn -0.8117584 -0.01176465 0.5838749
vn -0.8117584 -0.01176465 0.5838749
vn -0.8117584 -0.01176465 0.5838749
vn -0.8117584 -0.01176465 0.5838749
vn -0.8117584 -0.01176465 0.5838749
vn 0.09803849 -0.01176465 0.9951131
vn 0.09803849 -0.01176465 0.9951131
vn 0.09803849 -0.01176465 0.9951131
vn 0.09803849 -0.01176465 0.9951131
vn 0.09803849 -0.01176465 0.9951131
vn 0.09803849 -0.01176465 0.9951131
vn 0.09803849 -0.01176465 0.9951131
vn 0.09803849 -0.01176465 0.9951131
vn 0.09803849 -0.01176465 0.9951131
vn 0.09803849 -0.01176465 0.9951131
vn 0.09803849 -0.01176465 0.9951131
vn 0.09803849 -0.01176465 0.9951131
vn 0.9215616 -0.01176465 0.3880539
vn 0.9215616 -0.01176465 0.3880539
vn 0.9215616 -0.01176465 0.3880539
vn 0.9215616 -0.01176465 0.3880539
vn 0.9215616 -0.01176465 0.3880539
vn 0.9215616 -0.01176465 0.3880539
vn 0.9215616 -0.01176465 0.3880539
vn 0.9215616 -0.01176465 0.3880539
vn 0.9215616 -0.01176465 0.3880539
vn 0.9215616 -0.01176465 0.3880539
vn 0.9215616 -0.01176465 0.3880539
vn 0.9215616 -0.01176465 0.3880539
vn 0.8274447 -0.01176465 -0.561424
vn 0.8274447 -0.01176465 -0.561424
vn 0.8274447 -0.01176465 -0.561424
vn 0.8274447 -0.01176465 -0.561424
vn 0.8274447 -0.01176465 -0.561424
vn 0.8274447 -0.01176465 -0.561424
vn 0.8274447 -0.01176465 -0.561424
vn 0.8274447 -0.01176465 -0.561424
vn 0.8274447 -0.01176465 -0.561424
vn 0.8274447 -0.01176465 -0.561424
vn 0.8274447 -0.01176465 -0.561424
vn 0.8274447 -0.01176465 -0.561424
vn 0.5137216 -0.01176465 -0.8578763
vn 0.5137216 -0.01176465 -0.8578763
vn 0.5137216 -0.01176465 -0.8578763
vn 0.5137216 -0.01176465 -0.8578763
vn -0.4980353 -0.01176465 -0.8670769
vn -0.4980353 -0.01176465 -0.8670769
vn -0.4980353 -0.01176465 -0.8670769
vn -0.4980353 -0.01176465 -0.8670769
vn -0.9999923 -0.003921568 -0.0003442513
vn -0.9999923 -0.003921568 -0.0003442513
vn -0.9999923 -0.003921568 -0.0003442513
vn -0.9999923 -0.003921568 -0.0003442513
vn -0.4980353 -0.01176465 0.8670769
vn -0.4980353 -0.01176465 0.8670769
vn -0.4980353 -0.01176465 0.8670769
vn -0.4980353 -0.01176465 0.8670769
vn 0.5137216 -0.01176465 0.8578763
vn 0.5137216 -0.01176465 0.8578763
vn 0.5137216 -0.01176465 0.8578763
vn 0.5137216 -0.01176465 0.8578763
vn 0.9999924 -0.003921568 0
vn 0.9999924 -0.003921568 0
vn 0.9999924 -0.003921568 0
vn 0.9999924 -0.003921568 0
vn 0.003921568 0.9999923 -0.000345267
vn 0.003921568 0.9999923 -0.000345267
vn 0.003921568 0.9999923 -0.000345267
vn 0.003921568 0.9999923 -0.000345267
vn 0.003921568 0.9999923 -0.000345267
vn 0.003921568 0.9999923 -0.000345267
vn 0.09803849 -0.01176465 -0.9951131
vn 0.09803849 -0.01176465 -0.9951131
vn 0.09803849 -0.01176465 -0.9951131
vn 0.09803849 -0.01176465 -0.9951131
vn 0.003921568 -0.9999924 0
vn 0.003921568 -0.9999924 0
vn 0.003921568 -0.9999924 0
vn 0.003921568 -0.9999924 0
vn 0.003921568 0.9999923 -0.000345267
vn 0.003921568 0.9999923 -0.000345267
vn 0.003921568 0.9999923 -0.000345267
vn 0.003921568 0.9999923 -0.000345267
vn 0.5137216 -0.01176465 0.8578763
vn 0.5137216 -0.01176465 0.8578763
vn 0.5137216 -0.01176465 0.8578763
vn 0.5137216 -0.01176465 0.8578763
vn 0.8745031 -0.01176465 -0.4848772
vn 0.8745031 -0.01176465 -0.4848772
vn 0.8745031 -0.01176465 -0.4848772
vn 0.8745031 -0.01176465 -0.4848772
vn -0.4980353 -0.01176465 -0.8670769
vn -0.4980353 -0.01176465 -0.8670769
vn -0.4980353 -0.01176465 -0.8670769
vn -0.4980353 -0.01176465 -0.8670769
vn -0.8588169 -0.01176465 0.5121476
vn -0.8588169 -0.01176465 0.5121476
vn -0.8588169 -0.01176465 0.5121476
vn -0.8588169 -0.01176465 0.5121476
vn 0.6470539 -0.45882 -0.6089379
vn 0.6235247 -0.4274477 -0.6546033
vn 0.6470539 -0.450977 -0.6147691
vn 0.6235247 -0.4274477 -0.6546033
vn 0.6862693 -0.4901924 -0.5373508
vn 0.6862693 -0.4901924 -0.5373508
vn 0.7097985 -0.5058785 -0.4901765
vn 0.7097985 -0.5058785 -0.4901765
vn -0.2313707 -0.8980324 -0.374173
vn -0.2784292 -0.8431308 -0.4600082
vn -0.2313707 -0.8980324 -0.374173
vn -0.2784292 -0.8431308 -0.4600082
vn -0.1372538 -0.9686201 -0.2072114
vn -0.1372538 -0.9686201 -0.2072114
vn -0.09803843 -0.9921493 -0.07764171
vn -0.09803843 -0.9921493 -0.07764171
vn -0.86666 -0.450977 0.2133547
vn -0.8823462 -0.4274477 0.1968596
vn -0.8588169 -0.45882 0.2278547
vn -0.8823462 -0.4274477 0.1968596
vn -0.8196015 -0.4901924 0.2965886
vn -0.8196015 -0.4901924 0.2965886
vn -0.7960722 -0.5058785 0.3321986
vn -0.7960722 -0.5058785 0.3321986
vn -0.6313677 0.4352907 0.6417919
vn -0.6078384 0.4117615 0.6789587
vn -0.6313677 0.4431338 0.6364018
vn -0.6078384 0.4117615 0.6789587
vn -0.670583 0.4745061 0.5702301
vn -0.670583 0.4745061 0.5702301
vn -0.6941123 0.4901923 0.5271809
vn -0.6941123 0.4901923 0.5271809
vn 0.247057 0.8823462 0.4005348
vn 0.2941154 0.8274446 0.4783635
vn 0.247057 0.8823462 0.4005348
vn 0.2941154 0.8274446 0.4783635
vn 0.15294 0.9529338 0.2617758
vn 0.15294 0.9529338 0.2617758
vn 0.1137246 0.9764631 0.1832664
vn 0.1137246 0.9764631 0.1832664
vn 0.8745031 0.4431338 -0.1971717
vn 0.8980324 0.4117615 -0.1548881
vn 0.8823462 0.4352907 -0.1788496
vn 0.8980324 0.4117615 -0.1548881
vn 0.8352877 0.4745061 -0.2777378
vn 0.8352877 0.4745061 -0.2777378
vn 0.8117585 0.4901923 -0.3174266
vn 0.8117585 0.4901923 -0.3174266
vn -0.4901923 0.09803843 -0.8660831
vn -0.4901923 0.09803843 -0.8660831
vn -0.4901923 0.09803843 -0.8660831
vn -0.4901923 0.09803843 -0.8660831
vn -0.4901923 0.09803843 -0.8660831
vn -0.4901923 0.09803843 -0.8660831
vn -0.9137185 0.3882322 0.1199763
vn 0.003921568 0.9999923 -0.000345267
vn -0.45882 0.3882322 0.7992246
vn 0.003921568 0.9999923 -0.000345267
vn -0.45882 0.3882322 -0.7992246
vn -0.9843061 -0.15294 0.088039
vn -0.4901923 -0.15294 -0.8580914
vn -0.73764 -0.6751943 0
vn -0.3647031 -0.6784262 -0.6377535
vn 0.003921568 -0.9999924 0
vn 0.4745062 0.3882322 -0.7900124
vn -0.45882 0.3882322 -0.7992246
vn -0.4901923 -0.15294 -0.8580914
vn 0.5058785 -0.15294 -0.8489383
vn -0.3647031 -0.6784262 -0.6377535
vn 0.3803893 -0.6784262 -0.6285236
vn 0.003921568 0.9999923 -0.000345267
vn 0.922731 0.3854445 0
vn 0.003921568 -0.9999924 0
vn 0.3803893 -0.6784262 -0.6285236
vn -0.3647031 -0.6784262 0.6377535
vn -0.73764 -0.6751943 0
vn -0.4901923 -0.15294 0.8580914
vn -0.9843061 -0.15294 0.088039
vn -0.9137185 0.3882322 0.1199763
vn -0.45882 0.3882322 0.7992246
vn 0.003921568 -0.9999924 0
vn 0.3803893 -0.6784262 0.6285236
vn 0.4745062 0.3882322 0.7900124
vn 0.003921568 0.9999923 -0.000345267
vn 0.922731 0.3854445 0
vn 0.003921568 0.9999923 -0.000345267
vn -0.45882 0.3882322 0.7992246
vn 0.5058785 -0.15294 0.8489383
vn -0.4901923 -0.15294 0.8580914
vn -0.3647031 -0.6784262 0.6377535
vn 0.3803893 -0.6784262 0.6285236
vn 0.4745062 0.3882322 0.7900124
vn 0.9894748 -0.1447058 0
vn 0.5058785 -0.15294 0.8489383
vn 0.922731 0.3854445 0
vn 0.3803893 -0.6784262 0.6285236
vn 0.7450372 -0.6670228 0
vn 0.922731 0.3854445 0
vn 0.5058785 -0.15294 -0.8489383
vn 0.9894748 -0.1447058 0
vn 0.4745062 0.3882322 -0.7900124
vn 0.7450372 -0.6670228 0
vn 0.3803893 -0.6784262 -0.6285236
vn 0.003921568 -0.9999924 0
vn 0.3803893 -0.6784262 0.6285236
vn 0.5137216 -0.01176465 -0.8578763
vn 0.5137216 -0.01176465 -0.8578763
vn 0.5137216 -0.01176465 -0.8578763
vn 0.5137216 -0.01176465 -0.8578763
vn -0.4980353 -0.01176465 -0.8670769
vn -0.4980353 -0.01176465 -0.8670769
vn -0.4980353 -0.01176465 -0.8670769
vn -0.4980353 -0.01176465 -0.8670769
vn -0.9999923 -0.003921568 -0.0003442513
vn -0.9999923 -0.003921568 -0.0003442513
vn -0.9999923 -0.003921568 -0.0003442513
vn -0.9999923 -0.003921568 -0.0003442513
vn -0.4980353 -0.01176465 0.8670769
vn -0.4980353 -0.01176465 0.8670769
vn -0.4980353 -0.01176465 0.8670769
vn -0.4980353 -0.01176465 0.8670769
vn 0.5137216 -0.01176465 0.8578763
vn 0.5137216 -0.01176465 0.8578763
vn 0.5137216 -0.01176465 0.8578763
vn 0.5137216 -0.01176465 0.8578763
vn 0.9999924 -0.003921568 0
vn 0.9999924 -0.003921568 0
vn 0.9999924 -0.003921568 0
vn 0.9999924 -0.003921568 0
vn 0.4431339 -0.5137216 -0.7346581
vn 0.4431339 -0.5137216 -0.7346581
vn 0.4431339 -0.5137216 -0.7346581
vn 0.4431339 -0.5137216 -0.7346581
vn 0.003921568 -0.9999924 0
vn 0.003921568 -0.9999924 0
vn 0.003921568 -0.9999924 0
vn 0.003921568 -0.9999924 0
vn -0.4274477 -0.5137216 0.7438942
vn -0.4274477 -0.5137216 0.7438942
vn -0.4274477 -0.5137216 0.7438942
vn -0.4274477 -0.5137216 0.7438942
vn -0.4274477 0.4980353 0.7544861
vn -0.4274477 0.4980353 0.7544861
vn -0.4274477 0.4980353 0.7544861
vn -0.4274477 0.4980353 0.7544861
vn 0.003921568 0.9999923 -0.000345267
vn 0.003921568 0.9999923 -0.000345267
vn 0.003921568 0.9999923 -0.000345267
vn 0.003921568 0.9999923 -0.000345267
vn 0.4431339 0.4980353 -0.7453812
vn 0.4431339 0.4980353 -0.7453812
vn 0.4431339 0.4980353 -0.7453812
vn 0.4431339 0.4980353 -0.7453812
vn 0.8745031 -0.01176465 0.4848772
vn 0.8745031 -0.01176465 0.4848772
vn 0.8745031 -0.01176465 0.4848772
vn 0.8745031 -0.01176465 0.4848772
vn 0.8745031 -0.01176465 0.4848772
vn 0.8745031 -0.01176465 0.4848772
vn -0.8588169 -0.01176465 -0.5121476
vn -0.8588169 -0.01176465 -0.5121476
vn -0.8588169 -0.01176465 -0.5121476
vn -0.8588169 -0.01176465 -0.5121476
vn -0.8588169 -0.01176465 -0.5121476
vn -0.8588169 -0.01176465 -0.5121476
vn 0.4431339 -0.5137216 -0.7346581
vn 0.4431339 -0.5137216 -0.7346581
vn 0.4431339 -0.5137216 -0.7346581
vn 0.4431339 -0.5137216 -0.7346581
vn 0.003921568 -0.9999924 0
vn 0.003921568 -0.9999924 0
vn 0.003921568 -0.9999924 0
vn 0.003921568 -0.9999924 0
vn -0.4274477 -0.5137216 0.7438942
vn -0.4274477 -0.5137216 0.7438942
vn -0.4274477 -0.5137216 0.7438942
vn -0.4274477 -0.5137216 0.7438942
vn -0.4274477 0.4980353 0.7544861
vn -0.4274477 0.4980353 0.7544861
vn -0.4274477 0.4980353 0.7544861
vn -0.4274477 0.4980353 0.7544861
vn 0.003921568 0.9999923 -0.000345267
vn 0.003921568 0.9999923 -0.000345267
vn 0.003921568 0.9999923 -0.000345267
vn 0.003921568 0.9999923 -0.000345267
vn 0.4431339 0.4980353 -0.7453812
vn 0.4431339 0.4980353 -0.7453812
vn 0.4431339 0.4980353 -0.7453812
vn 0.4431339 0.4980353 -0.7453812
vn 0.8745031 -0.01176465 0.4848772
vn 0.8745031 -0.01176465 0.4848772
vn 0.8745031 -0.01176465 0.4848772
vn 0.8745031 -0.01176465 0.4848772
vn 0.8745031 -0.01176465 0.4848772
vn 0.8745031 -0.01176465 0.4848772
vn -0.8588169 -0.01176465 -0.5121476
vn -0.8588169 -0.01176465 -0.5121476
vn -0.8588169 -0.01176465 -0.5121476
vn -0.8588169 -0.01176465 -0.5121476
vn -0.8588169 -0.01176465 -0.5121476
vn -0.8588169 -0.01176465 -0.5121476
vn 0.5137216 -0.01176465 -0.8578763
vn 0.5137216 -0.01176465 -0.8578763
vn 0.5137216 -0.01176465 -0.8578763
vn 0.5137216 -0.01176465 -0.8578763
vn 0.5137216 -0.01176465 -0.8578763
vn 0.5137216 -0.01176465 -0.8578763
vn 0.5137216 -0.01176465 -0.8578763
vn 0.5137216 -0.01176465 -0.8578763
vn 0.5137216 -0.01176465 -0.8578763
vn 0.5137216 -0.01176465 -0.8578763
vn 0.5137216 -0.01176465 -0.8578763
vn 0.5137216 -0.01176465 -0.8578763
vn 0.5137216 -0.01176465 -0.8578763
vn 0.5137216 -0.01176465 -0.8578763
vn 0.5137216 -0.01176465 -0.8578763
vn 0.5137216 -0.01176465 -0.8578763
vn 0.5137216 -0.01176465 -0.8578763
vn 0.5137216 -0.01176465 -0.8578763
vn 0.5137216 -0.01176465 -0.8578763
vn 0.5137216 -0.01176465 -0.8578763
vn 0.5137216 -0.01176465 -0.8578763
vn 0.5137216 -0.01176465 -0.8578763
vn 0.5137216 -0.01176465 -0.8578763
vn 0.5137216 -0.01176465 -0.8578763
vn 0.5137216 -0.01176465 -0.8578763
vn 0.5137216 -0.01176465 -0.8578763
vn 0.8745031 -0.01176465 0.4848772
vn 0.8745031 -0.01176465 0.4848772
vn 0.8745031 -0.01176465 0.4848772
vn 0.8745031 -0.01176465 0.4848772
vn 0.003921568 -0.9999924 0
vn 0.003921568 -0.9999924 0
vn 0.003921568 -0.9999924 0
vn 0.003921568 -0.9999924 0
vn -0.8588169 -0.01176465 -0.5121476
vn -0.8588169 -0.01176465 -0.5121476
vn -0.8588169 -0.01176465 -0.5121476
vn -0.8588169 -0.01176465 -0.5121476
vn 0.8745031 -0.01176465 0.4848772
vn 0.8745031 -0.01176465 0.4848772
vn 0.8745031 -0.01176465 0.4848772
vn 0.8745031 -0.01176465 0.4848772
vn 0.003921568 -0.9999924 0
vn 0.003921568 -0.9999924 0
vn 0.003921568 -0.9999924 0
vn 0.003921568 -0.9999924 0
vn -0.8588169 -0.01176465 -0.5121476
vn -0.8588169 -0.01176465 -0.5121476
vn -0.8588169 -0.01176465 -0.5121476
vn -0.8588169 -0.01176465 -0.5121476
vn 0.8745031 -0.01176465 0.4848772
vn 0.8745031 -0.01176465 0.4848772
vn 0.8745031 -0.01176465 0.4848772
vn 0.8745031 -0.01176465 0.4848772
vn 0.003921568 -0.9999924 0
vn 0.003921568 -0.9999924 0
vn 0.003921568 -0.9999924 0
vn 0.003921568 -0.9999924 0
vn -0.8588169 -0.01176465 -0.5121476
vn -0.8588169 -0.01176465 -0.5121476
vn -0.8588169 -0.01176465 -0.5121476
vn -0.8588169 -0.01176465 -0.5121476
vn 0.8745031 -0.01176465 0.4848772
vn 0.8745031 -0.01176465 0.4848772
vn 0.8745031 -0.01176465 0.4848772
vn 0.8745031 -0.01176465 0.4848772
vn 0.003921568 -0.9999924 0
vn 0.003921568 -0.9999924 0
vn 0.003921568 -0.9999924 0
vn 0.003921568 -0.9999924 0
vn -0.8588169 -0.01176465 -0.5121476
vn -0.8588169 -0.01176465 -0.5121476
vn -0.8588169 -0.01176465 -0.5121476
vn -0.8588169 -0.01176465 -0.5121476
vn -0.4980353 -0.01176465 0.8670769
vn -0.4980353 -0.01176465 0.8670769
vn -0.4980353 -0.01176465 0.8670769
vn -0.4980353 -0.01176465 0.8670769
vn -0.4980353 -0.01176465 0.8670769
vn -0.4980353 -0.01176465 0.8670769
vn -0.4980353 -0.01176465 0.8670769
vn -0.4980353 -0.01176465 0.8670769
vn -0.4980353 -0.01176465 0.8670769
vn -0.4980353 -0.01176465 0.8670769
vn -0.4980353 -0.01176465 0.8670769
vn -0.4980353 -0.01176465 0.8670769
vn -0.4980353 -0.01176465 0.8670769
vn -0.4980353 -0.01176465 0.8670769
vn -0.4980353 -0.01176465 0.8670769
vn -0.4980353 -0.01176465 0.8670769
vn -0.08235228 -0.01176465 -0.9965339
vn -0.08235228 -0.01176465 -0.9965339
vn -0.08235228 -0.01176465 -0.9965339
vn -0.08235228 -0.01176465 -0.9965339
vn -0.08235228 -0.01176465 -0.9965339
vn -0.08235228 -0.01176465 -0.9965339
vn -0.08235228 -0.01176465 -0.9965339
vn -0.08235228 -0.01176465 -0.9965339
vn -0.9058753 -0.01176465 -0.423381
vn -0.9058753 -0.01176465 -0.423381
vn -0.9058753 -0.01176465 -0.423381
vn -0.9058753 -0.01176465 -0.423381
vn -0.9058753 -0.01176465 -0.423381
vn -0.9058753 -0.01176465 -0.423381
vn -0.9058753 -0.01176465 -0.423381
vn -0.9058753 -0.01176465 -0.423381
vn -0.8117584 -0.01176465 0.5838749
vn -0.8117584 -0.01176465 0.5838749
vn -0.8117584 -0.01176465 0.5838749
vn -0.8117584 -0.01176465 0.5838749
vn -0.8117584 -0.01176465 0.5838749
vn -0.8117584 -0.01176465 0.5838749
vn -0.8117584 -0.01176465 0.5838749
vn -0.8117584 -0.01176465 0.5838749
vn 0.09803849 -0.01176465 0.9951131
vn 0.09803849 -0.01176465 0.9951131
vn 0.09803849 -0.01176465 0.9951131
vn 0.09803849 -0.01176465 0.9951131
vn 0.09803849 -0.01176465 0.9951131
vn 0.09803849 -0.01176465 0.9951131
vn 0.09803849 -0.01176465 0.9951131
vn 0.09803849 -0.01176465 0.9951131
vn 0.9215616 -0.01176465 0.3880539
vn 0.9215616 -0.01176465 0.3880539
vn 0.9215616 -0.01176465 0.3880539
vn 0.9215616 -0.01176465 0.3880539
vn 0.9215616 -0.01176465 0.3880539
vn 0.9215616 -0.01176465 0.3880539
vn 0.9215616 -0.01176465 0.3880539
vn 0.9215616 -0.01176465 0.3880539
vn 0.8274447 -0.01176465 -0.561424
vn 0.8274447 -0.01176465 -0.561424
vn 0.8274447 -0.01176465 -0.561424
vn 0.8274447 -0.01176465 -0.561424
vn 0.8274447 -0.01176465 -0.561424
vn 0.8274447 -0.01176465 -0.561424
vn 0.8274447 -0.01176465 -0.561424
vn 0.8274447 -0.01176465 -0.561424
vn 0.5137216 -0.01176465 -0.8578763
vn 0.5137216 -0.01176465 -0.8578763
vn 0.5137216 -0.01176465 -0.8578763
vn 0.5137216 -0.01176465 -0.8578763
vn 0.5137216 -0.01176465 -0.8578763
vn 0.5137216 -0.01176465 -0.8578763
vn 0.5137216 -0.01176465 -0.8578763
vn 0.5137216 -0.01176465 -0.8578763
vn -0.4980353 -0.01176465 -0.8670769
vn -0.4980353 -0.01176465 -0.8670769
vn -0.4980353 -0.01176465 -0.8670769
vn -0.4980353 -0.01176465 -0.8670769
vn -0.4980353 -0.01176465 -0.8670769
vn -0.4980353 -0.01176465 -0.8670769
vn -0.4980353 -0.01176465 -0.8670769
vn -0.4980353 -0.01176465 -0.8670769
vn -0.9999923 -0.003921568 -0.0003442513
vn -0.9999923 -0.003921568 -0.0003442513
vn -0.9999923 -0.003921568 -0.0003442513
vn -0.9999923 -0.003921568 -0.0003442513
vn -0.9999923 -0.003921568 -0.0003442513
vn -0.9999923 -0.003921568 -0.0003442513
vn -0.9999923 -0.003921568 -0.0003442513
vn -0.9999923 -0.003921568 -0.0003442513
vn -0.4980353 -0.01176465 0.8670769
vn -0.4980353 -0.01176465 0.8670769
vn -0.4980353 -0.01176465 0.8670769
vn -0.4980353 -0.01176465 0.8670769
vn -0.4980353 -0.01176465 0.8670769
vn -0.4980353 -0.01176465 0.8670769
vn -0.4980353 -0.01176465 0.8670769
vn -0.4980353 -0.01176465 0.8670769
vn 0.5137216 -0.01176465 0.8578763
vn 0.5137216 -0.01176465 0.8578763
vn 0.5137216 -0.01176465 0.8578763
vn 0.5137216 -0.01176465 0.8578763
vn 0.5137216 -0.01176465 0.8578763
vn 0.5137216 -0.01176465 0.8578763
vn 0.5137216 -0.01176465 0.8578763
vn 0.5137216 -0.01176465 0.8578763
vn 0.9999924 -0.003921568 0
vn 0.9999924 -0.003921568 0
vn 0.9999924 -0.003921568 0
vn 0.9999924 -0.003921568 0
vn 0.9999924 -0.003921568 0
vn 0.9999924 -0.003921568 0
vn 0.9999924 -0.003921568 0
vn 0.9999924 -0.003921568 0
vn 0.3098016 0.7019553 -0.6413125
vn 0.3098016 0.7019553 -0.6413125
vn 0.3098016 0.7019553 -0.6413125
vn 0.3098016 0.7019553 -0.6413125
vn 0.3098016 -0.7176416 -0.6237095
vn 0.3098016 -0.7176416 -0.6237095
vn 0.3098016 -0.7176416 -0.6237095
vn 0.3098016 -0.7176416 -0.6237095
vn -0.2941153 -0.7176416 0.6312581
vn -0.2941153 -0.7176416 0.6312581
vn -0.2941153 -0.7176416 0.6312581
vn -0.2941153 -0.7176416 0.6312581
vn -0.2941153 0.7019553 0.6486562
vn -0.2941153 0.7019553 0.6486562
vn -0.2941153 0.7019553 0.6486562
vn -0.2941153 0.7019553 0.6486562
vn 0.3098016 0.7019553 -0.6413125
vn 0.3098016 0.7019553 -0.6413125
vn 0.3098016 0.7019553 -0.6413125
vn 0.3098016 0.7019553 -0.6413125
vn 0.3098016 -0.7176416 -0.6237095
vn 0.3098016 -0.7176416 -0.6237095
vn 0.3098016 -0.7176416 -0.6237095
vn 0.3098016 -0.7176416 -0.6237095
vn -0.2941153 -0.7176416 0.6312581
vn -0.2941153 -0.7176416 0.6312581
vn -0.2941153 -0.7176416 0.6312581
vn -0.2941153 -0.7176416 0.6312581
vn -0.2941153 0.7019553 0.6486562
vn -0.2941153 0.7019553 0.6486562
vn -0.2941153 0.7019553 0.6486562
vn -0.2941153 0.7019553 0.6486562
g DSJ_GTA_daoJu_deng_03_0
f 3/3/3 2/2/2 1/1/1
f 4/4/4 1/1/1 2/2/2
f 7/7/7 6/6/6 5/5/5
f 8/8/8 5/5/5 6/6/6
f 11/11/11 10/10/10 9/9/9
f 12/12/12 9/9/9 10/10/10
f 15/15/15 14/14/14 13/13/13
f 16/16/16 13/13/13 14/14/14
f 19/19/19 18/18/18 17/17/17
f 20/20/20 17/17/17 18/18/18
f 23/23/23 22/22/22 21/21/21
f 24/24/24 21/21/21 22/22/22
f 27/27/27 26/26/26 25/25/25
f 28/28/28 25/25/25 26/26/26
f 31/31/31 30/30/30 29/29/29
f 32/32/32 29/29/29 30/30/30
f 35/35/35 34/34/34 33/33/33
f 36/36/36 33/33/33 34/34/34
f 39/39/39 38/38/38 37/37/37
f 40/40/40 37/37/37 38/38/38
f 43/43/43 42/42/42 41/41/41
f 44/44/44 41/41/41 42/42/42
f 47/47/47 46/46/46 45/45/45
f 48/48/48 45/45/45 46/46/46
f 51/51/51 50/50/50 49/49/49
f 52/52/52 49/49/49 50/50/50
f 55/55/55 54/54/54 53/53/53
f 56/56/56 53/53/53 54/54/54
f 59/59/59 58/58/58 57/57/57
f 60/60/60 57/57/57 58/58/58
f 63/63/63 62/62/62 61/61/61
f 64/64/64 61/61/61 62/62/62
f 67/67/67 66/66/66 65/65/65
f 68/68/68 65/65/65 66/66/66
f 71/71/71 70/70/70 69/69/69
f 72/72/72 69/69/69 70/70/70
f 75/75/75 74/74/74 73/73/73
f 76/76/76 73/73/73 74/74/74
f 79/79/79 78/78/78 77/77/77
f 80/80/80 77/77/77 78/78/78
f 83/83/83 82/82/82 81/81/81
f 84/84/84 81/81/81 82/82/82
f 87/87/87 86/86/86 85/85/85
f 88/88/88 85/85/85 86/86/86
f 91/91/91 90/90/90 89/89/89
f 92/92/92 89/89/89 90/90/90
f 95/95/95 94/94/94 93/93/93
f 96/96/96 93/93/93 94/94/94
f 99/99/99 98/98/98 97/97/97
f 100/100/100 97/97/97 98/98/98
f 103/103/103 102/102/102 101/101/101
f 104/104/104 101/101/101 102/102/102
f 107/107/107 106/106/106 105/105/105
f 108/108/108 105/105/105 106/106/106
f 111/111/111 110/110/110 109/109/109
f 112/112/112 109/109/109 110/110/110
f 115/115/115 114/114/114 113/113/113
f 116/116/116 113/113/113 114/114/114
f 119/119/119 118/118/118 117/117/117
f 120/120/120 117/117/117 118/118/118
f 123/123/123 122/122/122 121/121/121
f 124/124/124 121/121/121 122/122/122
f 127/127/127 126/126/126 125/125/125
f 128/128/128 125/125/125 126/126/126
f 131/131/131 130/130/130 129/129/129
f 132/132/132 129/129/129 130/130/130
f 135/135/135 134/134/134 133/133/133
f 136/136/136 133/133/133 134/134/134
f 139/139/139 138/138/138 137/137/137
f 140/140/140 137/137/137 138/138/138
f 143/143/143 142/142/142 141/141/141
f 144/144/144 141/141/141 142/142/142
f 147/147/147 146/146/146 145/145/145
f 148/148/148 145/145/145 146/146/146
f 147/147/147 145/145/145 149/149/149
f 147/147/147 150/150/150 146/146/146
f 153/153/153 152/152/152 151/151/151
f 154/154/154 151/151/151 152/152/152
f 157/157/157 156/156/156 155/155/155
f 158/158/158 155/155/155 156/156/156
f 161/161/161 160/160/160 159/159/159
f 162/162/162 159/159/159 160/160/160
f 165/165/165 164/164/164 163/163/163
f 166/166/166 163/163/163 164/164/164
f 169/169/169 168/168/168 167/167/167
f 170/170/170 167/167/167 168/168/168
f 173/173/173 172/172/172 171/171/171
f 174/174/174 171/171/171 172/172/172
f 177/177/177 176/176/176 175/175/175
f 178/178/178 175/175/175 176/176/176
f 181/181/181 180/180/180 179/179/179
f 182/182/182 179/179/179 180/180/180
f 179/179/179 183/183/183 181/181/181
f 184/184/184 181/181/181 183/183/183
f 183/183/183 185/185/185 184/184/184
f 186/186/186 184/184/184 185/185/185
f 189/189/189 188/188/188 187/187/187
f 190/190/190 187/187/187 188/188/188
f 187/187/187 191/191/191 189/189/189
f 192/192/192 189/189/189 191/191/191
f 191/191/191 193/193/193 192/192/192
f 194/194/194 192/192/192 193/193/193
f 197/197/197 196/196/196 195/195/195
f 198/198/198 195/195/195 196/196/196
f 195/195/195 199/199/199 197/197/197
f 200/200/200 197/197/197 199/199/199
f 199/199/199 201/201/201 200/200/200
f 202/202/202 200/200/200 201/201/201
f 205/205/205 204/204/204 203/203/203
f 206/206/206 203/203/203 204/204/204
f 203/203/203 207/207/207 205/205/205
f 208/208/208 205/205/205 207/207/207
f 207/207/207 209/209/209 208/208/208
f 210/210/210 208/208/208 209/209/209
f 213/213/213 212/212/212 211/211/211
f 214/214/214 211/211/211 212/212/212
f 211/211/211 215/215/215 213/213/213
f 216/216/216 213/213/213 215/215/215
f 215/215/215 217/217/217 216/216/216
f 218/218/218 216/216/216 217/217/217
f 221/221/221 220/220/220 219/219/219
f 222/222/222 219/219/219 220/220/220
f 219/219/219 223/223/223 221/221/221
f 224/224/224 221/221/221 223/223/223
f 223/223/223 225/225/225 224/224/224
f 226/226/226 224/224/224 225/225/225
f 229/229/229 228/228/228 227/227/227
f 230/230/230 227/227/227 228/228/228
f 229/229/229 227/227/227 231/231/231
f 229/229/229 232/232/232 228/228/228
f 235/235/235 234/234/234 233/233/233
f 237/237/237 233/233/233 236/236/236
f 233/233/233 237/237/237 238/238/238
f 239/239/239 238/238/238 237/237/237
f 238/238/238 239/239/239 240/240/240
f 241/241/241 240/240/240 239/239/239
f 240/240/240 241/241/241 242/242/242
f 244/244/244 236/236/236 243/243/243
f 244/244/244 243/243/243 245/245/245
f 246/246/246 245/245/245 243/243/243
f 245/245/245 246/246/246 247/247/247
f 248/248/248 247/247/247 246/246/246
f 250/250/250 243/243/243 249/249/249
f 252/252/252 251/251/251 241/241/241
f 254/254/254 242/242/242 253/253/253
f 253/253/253 255/255/255 254/254/254
f 256/256/256 254/254/254 255/255/255
f 256/256/256 255/255/255 257/257/257
f 258/258/258 257/257/257 255/255/255
f 260/260/260 253/253/253 259/259/259
f 263/263/263 262/262/262 261/261/261
f 265/265/265 261/261/261 264/264/264
f 261/261/261 265/265/265 266/266/266
f 267/267/267 266/266/266 265/265/265
f 267/267/267 268/268/268 266/266/266
f 269/269/269 266/266/266 268/268/268
f 272/272/272 271/271/271 270/270/270
f 273/273/273 270/270/270 271/271/271
f 272/272/272 274/274/274 271/271/271
f 275/275/275 271/271/271 274/274/274
f 278/278/278 277/277/277 276/276/276
f 279/279/279 276/276/276 277/277/277
f 278/278/278 280/280/280 277/277/277
f 281/281/281 277/277/277 280/280/280
f 281/281/281 280/280/280 282/282/282
f 283/283/283 282/282/282 280/280/280
f 286/286/286 285/285/285 284/284/284
f 287/287/287 284/284/284 285/285/285
f 290/290/290 289/289/289 288/288/288
f 291/291/291 288/288/288 289/289/289
f 294/294/294 293/293/293 292/292/292
f 295/295/295 292/292/292 293/293/293
f 298/298/298 297/297/297 296/296/296
f 299/299/299 296/296/296 297/297/297
f 302/302/302 301/301/301 300/300/300
f 303/303/303 300/300/300 301/301/301
f 306/306/306 305/305/305 304/304/304
f 307/307/307 304/304/304 305/305/305
f 310/310/310 309/309/309 308/308/308
f 311/311/311 308/308/308 309/309/309
f 314/314/314 313/313/313 312/312/312
f 315/315/315 312/312/312 313/313/313
f 318/318/318 317/317/317 316/316/316
f 319/319/319 316/316/316 317/317/317
f 322/322/322 321/321/321 320/320/320
f 323/323/323 320/320/320 321/321/321
f 326/326/326 325/325/325 324/324/324
f 327/327/327 324/324/324 325/325/325
f 330/330/330 329/329/329 328/328/328
f 331/331/331 328/328/328 329/329/329
f 334/334/334 333/333/333 332/332/332
f 335/335/335 332/332/332 333/333/333
f 334/334/334 332/332/332 336/336/336
f 334/334/334 337/337/337 333/333/333
f 340/340/340 339/339/339 338/338/338
f 340/340/340 341/341/341 339/339/339
f 341/341/341 340/340/340 342/342/342
f 343/343/343 339/339/339 341/341/341
f 346/346/346 345/345/345 344/344/344
f 347/347/347 344/344/344 345/345/345
f 350/350/350 349/349/349 348/348/348
f 351/351/351 348/348/348 349/349/349
f 354/354/354 353/353/353 352/352/352
f 355/355/355 352/352/352 353/353/353
f 358/358/358 357/357/357 356/356/356
f 359/359/359 356/356/356 357/357/357
f 362/362/362 361/361/361 360/360/360
f 363/363/363 360/360/360 361/361/361
f 366/366/366 365/365/365 364/364/364
f 367/367/367 364/364/364 365/365/365
f 370/370/370 369/369/369 368/368/368
f 369/369/369 370/370/370 371/371/371
f 372/372/372 371/371/371 370/370/370
f 371/371/371 373/373/373 369/369/369
f 376/376/376 375/375/375 374/374/374
f 377/377/377 374/374/374 375/375/375
f 376/376/376 374/374/374 378/378/378
f 376/376/376 379/379/379 375/375/375
f 382/382/382 381/381/381 380/380/380
f 381/381/381 382/382/382 383/383/383
f 384/384/384 383/383/383 382/382/382
f 387/387/387 386/386/386 385/385/385
f 386/386/386 387/387/387 388/388/388
f 389/389/389 388/388/388 387/387/387
f 392/392/392 391/391/391 390/390/390
f 393/393/393 390/390/390 391/391/391
f 396/396/396 395/395/395 394/394/394
f 397/397/397 394/394/394 395/395/395
f 400/400/400 399/399/399 398/398/398
f 401/401/401 398/398/398 399/399/399
f 404/404/404 403/403/403 402/402/402
f 405/405/405 402/402/402 403/403/403
f 408/408/408 407/407/407 406/406/406
f 409/409/409 406/406/406 407/407/407
f 412/412/412 411/411/411 410/410/410
f 413/413/413 410/410/410 411/411/411
f 416/416/416 415/415/415 414/414/414
f 417/417/417 414/414/414 415/415/415
f 420/420/420 419/419/419 418/418/418
f 421/421/421 418/418/418 419/419/419
f 424/424/424 423/423/423 422/422/422
f 425/425/425 422/422/422 423/423/423
f 428/428/428 427/427/427 426/426/426
f 429/429/429 426/426/426 427/427/427
f 432/432/432 431/431/431 430/430/430
f 433/433/433 430/430/430 431/431/431
f 436/436/436 435/435/435 434/434/434
f 437/437/437 434/434/434 435/435/435
f 440/440/440 439/439/439 438/438/438
f 441/441/441 438/438/438 439/439/439
f 444/444/444 443/443/443 442/442/442
f 445/445/445 442/442/442 443/443/443
f 448/448/448 447/447/447 446/446/446
f 449/449/449 446/446/446 447/447/447
f 452/452/452 451/451/451 450/450/450
f 453/453/453 450/450/450 451/451/451
f 456/456/456 455/455/455 454/454/454
f 457/457/457 454/454/454 455/455/455
f 460/460/460 459/459/459 458/458/458
f 461/461/461 458/458/458 459/459/459
f 464/464/464 463/463/463 462/462/462
f 465/465/465 462/462/462 463/463/463
f 468/468/468 467/467/467 466/466/466
f 469/469/469 466/466/466 467/467/467
f 472/472/472 471/471/471 470/470/470
f 473/473/473 470/470/470 471/471/471
f 476/476/476 475/475/475 474/474/474
f 477/477/477 474/474/474 475/475/475
f 480/480/480 479/479/479 478/478/478
f 481/481/481 478/478/478 479/479/479
f 484/484/484 483/483/483 482/482/482
f 485/485/485 482/482/482 483/483/483
f 488/488/488 487/487/487 486/486/486
f 489/489/489 486/486/486 487/487/487
f 492/492/492 491/491/491 490/490/490
f 493/493/493 490/490/490 491/491/491
f 496/496/496 495/495/495 494/494/494
f 497/497/497 494/494/494 495/495/495
f 500/500/500 499/499/499 498/498/498
f 501/501/501 498/498/498 499/499/499
f 504/504/504 503/503/503 502/502/502
f 505/505/505 502/502/502 503/503/503
f 508/508/508 507/507/507 506/506/506
f 509/509/509 506/506/506 507/507/507
f 512/512/512 511/511/511 510/510/510
f 513/513/513 510/510/510 511/511/511
f 516/516/516 515/515/515 514/514/514
f 517/517/517 514/514/514 515/515/515
f 520/520/520 519/519/519 518/518/518
f 521/521/521 518/518/518 519/519/519
f 524/524/524 523/523/523 522/522/522
f 525/525/525 522/522/522 523/523/523
f 528/528/528 527/527/527 526/526/526
f 529/529/529 526/526/526 527/527/527
f 532/532/532 531/531/531 530/530/530
f 533/533/533 530/530/530 531/531/531
f 536/536/536 535/535/535 534/534/534
f 537/537/537 534/534/534 535/535/535
f 540/540/540 539/539/539 538/538/538
f 541/541/541 538/538/538 539/539/539
f 544/544/544 543/543/543 542/542/542
f 545/545/545 542/542/542 543/543/543
f 548/548/548 547/547/547 546/546/546
f 549/549/549 546/546/546 547/547/547
f 552/552/552 551/551/551 550/550/550
f 553/553/553 550/550/550 551/551/551
f 556/556/556 555/555/555 554/554/554
f 557/557/557 554/554/554 555/555/555
f 560/560/560 559/559/559 558/558/558
f 561/561/561 558/558/558 559/559/559
f 564/564/564 563/563/563 562/562/562
f 565/565/565 562/562/562 563/563/563
f 568/568/568 567/567/567 566/566/566
f 569/569/569 566/566/566 567/567/567
f 572/572/572 571/571/571 570/570/570
f 573/573/573 570/570/570 571/571/571
f 576/576/576 575/575/575 574/574/574
f 577/577/577 574/574/574 575/575/575
f 580/580/580 579/579/579 578/578/578
f 581/581/581 578/578/578 579/579/579
f 584/584/584 583/583/583 582/582/582
f 585/585/585 582/582/582 583/583/583
f 588/588/588 587/587/587 586/586/586
f 589/589/589 586/586/586 587/587/587
f 592/592/592 591/591/591 590/590/590
f 593/593/593 590/590/590 591/591/591
f 596/596/596 595/595/595 594/594/594
f 597/597/597 594/594/594 595/595/595
