g DSJ_GTA_daoJu_gongYe_09
v 0.4227498 0.767951 -0.4325243
v 0.4834093 1.36866 -2.384186E-07
v 0.3186789 1.3882 -0.4004927
v 0.6019071 0.767951 -2.384186E-07
v -0.009762347 0.767951 -0.6116757
v -0.07902205 1.435369 -0.5663795
v -0.4422804 0.767951 -0.4325243
v -0.4767231 1.482532 -0.4004927
v -0.6214348 0.767951 -2.384186E-07
v -0.6414595 1.502072 -2.384186E-07
v -0.4422804 0.767951 0.4325149
v -0.4767231 1.482532 0.4004833
v 0.3186789 1.3882 0.4004833
v 0.4227498 0.767951 0.4325149
v -0.07902205 1.435369 0.5663731
v -0.009762347 0.767951 0.6116693
v -0.4767231 1.482532 0.4004833
v -0.4422804 0.767951 0.4325149
v 2.384186E-07 2.10166 -0.5683921
v -0.3991128 2.148999 -0.4019196
v -0.5644318 2.168604 -2.384186E-07
v -0.3991128 2.148999 0.4019102
v 2.384186E-07 2.10166 0.5683886
v -0.3991128 2.148999 0.4019102
v 0.3991163 2.054328 0.4019102
v 0.5644353 2.034722 -2.384186E-07
v 0.3991163 2.054328 -0.4019196
v 0.6738632 2.021743 -2.384186E-07
v 0.03996629 2.438595 -2.384186E-07
v 0.4764947 2.045154 -0.479839
v 2.384186E-07 2.10166 -0.678584
v -0.4764882 2.158179 -0.479839
v -0.6738567 2.181586 -2.384186E-07
v -0.4764882 2.158179 0.4798237
v 2.384186E-07 2.10166 0.6785835
v 0.4764947 2.045154 0.4798266
v 0.4764947 2.045154 -0.479839
v 0.5644353 2.034722 -2.384186E-07
v 0.6738632 2.021743 -2.384186E-07
v 0.3991163 2.054328 -0.4019196
v 0.3991163 2.054328 0.4019102
v 0.4764947 2.045154 0.4798266
v 2.384186E-07 2.10166 0.5683886
v 2.384186E-07 2.10166 0.6785835
v -0.3991128 2.148999 0.4019102
v -0.4764882 2.158179 0.4798237
v -0.5644318 2.168604 -2.384186E-07
v -0.6738567 2.181586 -2.384186E-07
v -0.3991128 2.148999 -0.4019196
v -0.4764882 2.158179 -0.479839
v 2.384186E-07 2.10166 -0.5683921
v 2.384186E-07 2.10166 -0.678584
v -0.4779865 0.660616 0.614321
v 0.4584559 0.660616 0.479461
v -0.4779865 0.660616 0.479461
v 0.4584559 0.660616 0.614321
v 0.4584559 0.660616 -0.4794645
v -0.4779865 0.660616 -0.4794645
v -0.6240865 0.660616 0.479461
v -0.6240865 0.660616 -0.4794645
v 0.6045648 0.660616 -0.4794645
v 0.6045648 0.660616 0.479461
v 0.4584559 0.660616 -0.6143304
v -0.4779865 0.660616 -0.6143304
v -0.6240865 0.660616 0.614321
v -0.6240865 0.7705077 0.614321
v -0.4779865 0.660616 0.614321
v 0.6045648 0.7705107 0.614321
v 0.4584559 0.660616 0.614321
v 0.6045648 0.660616 0.614321
v -0.6240865 0.02400196 0.614321
v -0.4779865 0.02400196 0.614321
v 0.4584559 0.02400196 0.614321
v 0.6045648 0.02400196 0.614321
v 0.6045648 0.660616 0.614321
v 0.6045648 0.7705107 0.614321
v 0.6045648 0.660616 0.479461
v 0.6045648 0.7705077 -0.6143304
v 0.6045648 0.660616 -0.4794645
v 0.6045648 0.660616 -0.6143304
v 0.6045648 0.02400196 0.614321
v 0.6045648 0.02400196 0.479461
v 0.6045648 0.02400196 -0.4794734
v 0.6045648 0.02400196 -0.6143304
v 0.6045648 0.660616 -0.6143304
v 0.6045648 0.7705077 -0.6143304
v 0.4584559 0.660616 -0.6143304
v -0.6240865 0.7705077 -0.6143304
v -0.4779865 0.660616 -0.6143304
v -0.6240865 0.660616 -0.6143304
v -0.4779865 0.02400196 -0.6143304
v -0.6240865 0.02400196 -0.6143304
v 0.6045648 0.02400196 -0.6143304
v 0.4584559 0.02400196 -0.6143304
v -0.6240865 0.660616 -0.6143304
v -0.6240865 0.7705077 -0.6143304
v -0.6240865 0.660616 -0.4794645
v -0.6240865 0.7705077 0.614321
v -0.6240865 0.660616 0.479461
v -0.6240865 0.660616 0.614321
v -0.6240865 0.02400196 0.479461
v -0.6240865 0.02400196 0.614321
v -0.6240865 0.02400196 -0.6143304
v -0.6240865 0.02400196 -0.4794645
v -0.6240865 0.660616 0.479461
v -0.4779865 0.02400196 0.479461
v -0.4779865 0.660616 0.479461
v -0.6240865 0.02400196 0.479461
v -0.4779865 0.660616 0.479461
v -0.4779865 0.02400196 0.614321
v -0.4779865 0.660616 0.614321
v -0.4779865 0.02400196 0.479461
v 0.4584559 0.660616 0.614321
v 0.4584559 0.02400196 0.479461
v 0.4584559 0.660616 0.479461
v 0.4584559 0.02400196 0.614321
v 0.4584559 0.660616 0.479461
v 0.6045648 0.02400196 0.479461
v 0.6045648 0.660616 0.479461
v 0.4584559 0.02400196 0.479461
v -0.4779865 0.660616 -0.4794645
v -0.6240865 0.02400196 -0.4794645
v -0.6240865 0.660616 -0.4794645
v -0.4779865 0.02400196 -0.4794734
v -0.4779865 0.660616 -0.6143304
v -0.4779865 0.02400196 -0.4794734
v -0.4779865 0.660616 -0.4794645
v -0.4779865 0.02400196 -0.6143304
v 0.6045648 0.660616 -0.4794645
v 0.4584559 0.02400196 -0.4794734
v 0.4584559 0.660616 -0.4794645
v 0.6045648 0.02400196 -0.4794734
v 0.4584559 0.660616 -0.4794645
v 0.4584559 0.02400196 -0.6143304
v 0.4584559 0.660616 -0.6143304
v 0.4584559 0.02400196 -0.4794734
v -0.6240865 0.7705077 0.614321
v 0.6045648 0.7705077 -0.6143304
v 0.6045648 0.7705107 0.614321
v -0.6240865 0.7705077 -0.6143304
vt 0.1588199 0.5299888
vt 0.1844502 0.5455412
vt 0.1844656 0.530012
vt 0.1587505 0.5455181
vt 0.158897 0.514367
vt 0.1844194 0.5143284
vt 0.158897 0.4990921
vt 0.1845582 0.4991075
vt 0.1586965 0.4835474
vt 0.1843191 0.4835474
vt 0.1586965 0.4679179
vt 0.1843577 0.4679179
vt 0.1844656 0.560685
vt 0.1588122 0.5607005
vt 0.1844116 0.5761912
vt 0.1588122 0.5762066
vt 0.184481 0.5917051
vt 0.1588122 0.5917205
vt 0.2094636 0.5143362
vt 0.2094636 0.4991075
vt 0.2094636 0.4835474
vt 0.2094636 0.4679179
vt 0.2094636 0.5762298
vt 0.2094636 0.5917282
vt 0.2094636 0.5606773
vt 0.2094636 0.5455412
vt 0.2094636 0.5300351
vt 0.1189788 0.4936946
vt 0.1293497 0.5193866
vt 0.1416868 0.4938566
vt 0.1575553 0.5099257
vt 0.1572778 0.5324871
vt 0.1410237 0.5483171
vt 0.118308 0.5481552
vt 0.1024471 0.5320861
vt 0.1027247 0.5095247
vt 0.08662482 0.4787205
vt 0.09711134 0.4721048
vt 0.09607041 0.4695294
vt 0.08920019 0.4798077
vt 0.1081607 0.4721819
vt 0.1092634 0.4696219
vt 0.1158714 0.4800005
vt 0.1184776 0.4789595
vt 0.1157403 0.4909805
vt 0.1183157 0.49206
vt 0.1078292 0.4986835
vt 0.1088701 0.5012589
vt 0.09677979 0.4985986
vt 0.09567716 0.5011586
vt 0.08906911 0.49078
vt 0.08647061 0.4918287
vt 0.09321745 0.5917822
vt 0.1245074 0.5872791
vt 0.09321745 0.5872791
vt 0.1245074 0.5917822
vt 0.1245074 0.5552953
vt 0.09321745 0.5552953
vt 0.08833659 0.5872791
vt 0.08833659 0.5552953
vt 0.1293882 0.5552953
vt 0.1293882 0.5872791
vt 0.1245074 0.5507922
vt 0.09321745 0.5507922
vt 0.1572855 0.472552
vt 0.1572855 0.4692441
vt 0.1532219 0.472552
vt 0.1202511 0.4692441
vt 0.1243146 0.472552
vt 0.1202511 0.472552
vt 0.1572855 0.4917053
vt 0.1532219 0.4917053
vt 0.1243146 0.4917053
vt 0.1202511 0.4917053
vt 0.1572855 0.472552
vt 0.1572855 0.4692441
vt 0.1532219 0.472552
vt 0.1202511 0.4692441
vt 0.1243146 0.472552
vt 0.1202511 0.472552
vt 0.1572855 0.4917053
vt 0.1532219 0.4917053
vt 0.1243146 0.4917053
vt 0.1202511 0.4917053
vt 0.1572855 0.472552
vt 0.1572855 0.4692441
vt 0.1532219 0.472552
vt 0.1202511 0.4692441
vt 0.1243146 0.472552
vt 0.1202511 0.472552
vt 0.1243146 0.4917053
vt 0.1202511 0.4917053
vt 0.1572855 0.4917053
vt 0.1532219 0.4917053
vt 0.1572855 0.472552
vt 0.1572855 0.4692441
vt 0.1532219 0.472552
vt 0.1202511 0.4692441
vt 0.1243146 0.472552
vt 0.1202511 0.472552
vt 0.1243146 0.4917053
vt 0.1202511 0.4917053
vt 0.1572855 0.4917053
vt 0.1532219 0.4917053
vt 0.1516104 0.5883432
vt 0.1441079 0.5530052
vt 0.1441079 0.5883432
vt 0.1516104 0.5530052
vt 0.1441079 0.5883432
vt 0.1359886 0.5530052
vt 0.1359886 0.5883432
vt 0.1441079 0.5530052
vt 0.1516104 0.5883432
vt 0.1441079 0.5530052
vt 0.1441079 0.5883432
vt 0.1516104 0.5530052
vt 0.1441079 0.5883432
vt 0.1359886 0.5530052
vt 0.1359886 0.5883432
vt 0.1441079 0.5530052
vt 0.1441079 0.5883432
vt 0.1359886 0.5530052
vt 0.1359886 0.5883432
vt 0.1441079 0.5530052
vt 0.1516104 0.5883432
vt 0.1441079 0.5530052
vt 0.1441079 0.5883432
vt 0.1516104 0.5530052
vt 0.1516104 0.5883432
vt 0.1441079 0.5530052
vt 0.1441079 0.5883432
vt 0.1516104 0.5530052
vt 0.1441079 0.5883432
vt 0.1359886 0.5530052
vt 0.1359886 0.5883432
vt 0.1441079 0.5530052
vt 0.08829805 0.5508
vt 0.1293574 0.5917899
vt 0.1293574 0.5508
vt 0.08829805 0.5917899
vn 0.7254847 0.1529399 -0.67103
vn 0.9996234 0.02744055 0
vn 0.7097985 0.02745068 -0.7038697
vn 0.9843062 0.1764692 0
vn 0.03529388 0.06666613 -0.9971509
vn -0.01960766 0.02745068 -0.9994308
vn -0.6941123 -0.01176465 -0.7197706
vn -0.7176415 0.03529382 -0.6955178
vn -0.9921492 -0.04313695 0.1173844
vn -0.9921492 0.04313684 0.1173845
vn -0.6941123 -0.01176465 0.7197706
vn -0.7176415 0.03529382 0.6955178
vn 0.7097985 0.03529382 0.70352
vn 0.7254847 0.1450969 0.6727695
vn -0.01960766 0.02745068 0.9994308
vn 0.03529388 0.06666613 0.9971509
vn -0.7176415 0.03529382 0.6955178
vn -0.6941123 -0.01176465 0.7197706
vn 0.01176465 -0.01176465 -0.9998616
vn -0.7019553 0.07450914 -0.7083129
vn -0.9921492 0.1137246 -0.05202518
vn -0.7019553 0.07450914 0.7083129
vn 0.01176465 -0.01176465 0.9998616
vn -0.7019553 0.07450914 0.7083129
vn 0.7097985 -0.09803849 0.6975489
vn 0.9926914 -0.1206802 0
vn 0.7097985 -0.09803849 -0.6975489
vn 0.552937 0.8274446 -0.09796035
vn 0.1293392 0.9916004 0
vn 0.4274477 0.8431307 -0.3262193
vn 0.1137246 0.8823462 -0.456653
vn -0.2078415 0.9215615 -0.327912
vn -0.3333308 0.9372476 0.102262
vn -0.2078415 0.9215615 0.327912
vn 0.1137246 0.8823462 0.456653
vn 0.4274477 0.8431307 0.3262193
vn -0.1052937 -0.9944412 0
vn -0.1052937 -0.9944412 0
vn -0.1052937 -0.9944412 0
vn -0.1052937 -0.9944412 0
vn -0.1052937 -0.9944412 0
vn -0.1052937 -0.9944412 0
vn -0.1052937 -0.9944412 0
vn -0.1052937 -0.9944412 0
vn -0.1052937 -0.9944412 0
vn -0.1052937 -0.9944412 0
vn -0.1052937 -0.9944412 0
vn -0.1052937 -0.9944412 0
vn -0.1052937 -0.9944412 0
vn -0.1052937 -0.9944412 0
vn -0.1052937 -0.9944412 0
vn -0.1052937 -0.9944412 0
vn 0.003921568 -0.9999924 0
vn 0.003921568 -0.9999924 0
vn 0.003921568 -0.9999924 0
vn 0.003921568 -0.9999924 0
vn 0.003921568 -0.9999924 0
vn 0.003921568 -0.9999924 0
vn 0.003921568 -0.9999924 0
vn 0.003921568 -0.9999924 0
vn 0.003921568 -0.9999924 0
vn 0.003921568 -0.9999924 0
vn 0.003921568 -0.9999924 0
vn 0.003921568 -0.9999924 0
vn 0.01176465 -0.01176465 0.9998616
vn 0.01176465 -0.01176465 0.9998616
vn 0.01176465 -0.01176465 0.9998616
vn 0.01176465 -0.01176465 0.9998616
vn 0.01176465 -0.01176465 0.9998616
vn 0.01176465 -0.01176465 0.9998616
vn 0.01176465 -0.01176465 0.9998616
vn 0.01176465 -0.01176465 0.9998616
vn 0.01176465 -0.01176465 0.9998616
vn 0.01176465 -0.01176465 0.9998616
vn 0.9999924 -0.003921568 0
vn 0.9999924 -0.003921568 0
vn 0.9999924 -0.003921568 0
vn 0.9999924 -0.003921568 0
vn 0.9999924 -0.003921568 0
vn 0.9999924 -0.003921568 0
vn 0.9999924 -0.003921568 0
vn 0.9999924 -0.003921568 0
vn 0.9999924 -0.003921568 0
vn 0.9999924 -0.003921568 0
vn 0.01176465 -0.01176465 -0.9998616
vn 0.01176465 -0.01176465 -0.9998616
vn 0.01176465 -0.01176465 -0.9998616
vn 0.01176465 -0.01176465 -0.9998616
vn 0.01176465 -0.01176465 -0.9998616
vn 0.01176465 -0.01176465 -0.9998616
vn 0.01176465 -0.01176465 -0.9998616
vn 0.01176465 -0.01176465 -0.9998616
vn 0.01176465 -0.01176465 -0.9998616
vn 0.01176465 -0.01176465 -0.9998616
vn -0.9999923 -0.003921568 -0.0003442513
vn -0.9999923 -0.003921568 -0.0003442513
vn -0.9999923 -0.003921568 -0.0003442513
vn -0.9999923 -0.003921568 -0.0003442513
vn -0.9999923 -0.003921568 -0.0003442513
vn -0.9999923 -0.003921568 -0.0003442513
vn -0.9999923 -0.003921568 -0.0003442513
vn -0.9999923 -0.003921568 -0.0003442513
vn -0.9999923 -0.003921568 -0.0003442513
vn -0.9999923 -0.003921568 -0.0003442513
vn 0.01176465 -0.01176465 -0.9998616
vn 0.01176465 -0.01176465 -0.9998616
vn 0.01176465 -0.01176465 -0.9998616
vn 0.01176465 -0.01176465 -0.9998616
vn 0.9999924 -0.003921568 0
vn 0.9999924 -0.003921568 0
vn 0.9999924 -0.003921568 0
vn 0.9999924 -0.003921568 0
vn -0.9999923 -0.003921568 -0.0003442513
vn -0.9999923 -0.003921568 -0.0003442513
vn -0.9999923 -0.003921568 -0.0003442513
vn -0.9999923 -0.003921568 -0.0003442513
vn 0.01176465 -0.01176465 -0.9998616
vn 0.01176465 -0.01176465 -0.9998616
vn 0.01176465 -0.01176465 -0.9998616
vn 0.01176465 -0.01176465 -0.9998616
vn 0.01176465 -0.01176465 0.9998616
vn 0.01176465 -0.01176465 0.9998616
vn 0.01176465 -0.01176465 0.9998616
vn 0.01176465 -0.01176465 0.9998616
vn 0.9999924 -0.003921568 0
vn 0.9999924 -0.003921568 0
vn 0.9999924 -0.003921568 0
vn 0.9999924 -0.003921568 0
vn 0.01176465 -0.01176465 0.9998616
vn 0.01176465 -0.01176465 0.9998616
vn 0.01176465 -0.01176465 0.9998616
vn 0.01176465 -0.01176465 0.9998616
vn -0.9999923 -0.003921568 -0.0003442513
vn -0.9999923 -0.003921568 -0.0003442513
vn -0.9999923 -0.003921568 -0.0003442513
vn -0.9999923 -0.003921568 -0.0003442513
vn 0.003921568 0.9999923 -0.000345267
vn 0.003921568 0.9999923 -0.000345267
vn 0.003921568 0.9999923 -0.000345267
vn 0.003921568 0.9999923 -0.000345267
g DSJ_GTA_daoJu_gongYe_09_0
f 3/3/3 2/2/2 1/1/1
f 4/4/4 1/1/1 2/2/2
f 1/1/1 5/5/5 3/3/3
f 6/6/6 3/3/3 5/5/5
f 5/5/5 7/7/7 6/6/6
f 8/8/8 6/6/6 7/7/7
f 7/7/7 9/9/9 8/8/8
f 10/10/10 8/8/8 9/9/9
f 9/9/9 11/11/11 10/10/10
f 12/12/12 10/10/10 11/11/11
f 2/2/2 13/13/13 4/4/4
f 14/14/14 4/4/4 13/13/13
f 13/13/13 15/15/15 14/14/14
f 16/16/16 14/14/14 15/15/15
f 15/15/15 17/17/17 16/16/16
f 18/18/18 16/16/16 17/17/17
f 6/6/6 19/19/19 3/3/3
f 19/19/19 6/6/6 20/20/20
f 8/8/8 20/20/20 6/6/6
f 20/20/20 8/8/8 21/21/21
f 10/10/10 21/21/21 8/8/8
f 21/21/21 10/10/10 22/22/22
f 12/12/12 22/22/22 10/10/10
f 15/15/15 23/23/23 17/17/17
f 24/24/24 17/17/17 23/23/23
f 23/23/23 15/15/15 25/25/25
f 13/13/13 25/25/25 15/15/15
f 25/25/25 13/13/13 26/26/26
f 2/2/2 26/26/26 13/13/13
f 26/26/26 2/2/2 27/27/27
f 3/3/3 27/27/27 2/2/2
f 27/27/27 3/3/3 19/19/19
f 30/30/30 29/29/29 28/28/28
f 31/31/31 29/29/29 30/30/30
f 32/32/32 29/29/29 31/31/31
f 33/33/33 29/29/29 32/32/32
f 34/34/34 29/29/29 33/33/33
f 35/35/35 29/29/29 34/34/34
f 36/36/36 29/29/29 35/35/35
f 28/28/28 29/29/29 36/36/36
f 39/39/39 38/38/38 37/37/37
f 40/40/40 37/37/37 38/38/38
f 38/38/38 39/39/39 41/41/41
f 42/42/42 41/41/41 39/39/39
f 41/41/41 42/42/42 43/43/43
f 44/44/44 43/43/43 42/42/42
f 43/43/43 44/44/44 45/45/45
f 46/46/46 45/45/45 44/44/44
f 45/45/45 46/46/46 47/47/47
f 48/48/48 47/47/47 46/46/46
f 47/47/47 48/48/48 49/49/49
f 50/50/50 49/49/49 48/48/48
f 49/49/49 50/50/50 51/51/51
f 52/52/52 51/51/51 50/50/50
f 37/37/37 40/40/40 52/52/52
f 51/51/51 52/52/52 40/40/40
f 55/55/55 54/54/54 53/53/53
f 56/56/56 53/53/53 54/54/54
f 54/54/54 55/55/55 57/57/57
f 58/58/58 57/57/57 55/55/55
f 55/55/55 59/59/59 58/58/58
f 60/60/60 58/58/58 59/59/59
f 57/57/57 61/61/61 54/54/54
f 62/62/62 54/54/54 61/61/61
f 57/57/57 58/58/58 63/63/63
f 64/64/64 63/63/63 58/58/58
f 67/67/67 66/66/66 65/65/65
f 66/66/66 67/67/67 68/68/68
f 69/69/69 68/68/68 67/67/67
f 70/70/70 68/68/68 69/69/69
f 65/65/65 71/71/71 67/67/67
f 72/72/72 67/67/67 71/71/71
f 69/69/69 73/73/73 70/70/70
f 74/74/74 70/70/70 73/73/73
f 77/77/77 76/76/76 75/75/75
f 76/76/76 77/77/77 78/78/78
f 79/79/79 78/78/78 77/77/77
f 80/80/80 78/78/78 79/79/79
f 75/75/75 81/81/81 77/77/77
f 82/82/82 77/77/77 81/81/81
f 79/79/79 83/83/83 80/80/80
f 84/84/84 80/80/80 83/83/83
f 87/87/87 86/86/86 85/85/85
f 86/86/86 87/87/87 88/88/88
f 89/89/89 88/88/88 87/87/87
f 90/90/90 88/88/88 89/89/89
f 89/89/89 91/91/91 90/90/90
f 92/92/92 90/90/90 91/91/91
f 85/85/85 93/93/93 87/87/87
f 94/94/94 87/87/87 93/93/93
f 97/97/97 96/96/96 95/95/95
f 96/96/96 97/97/97 98/98/98
f 99/99/99 98/98/98 97/97/97
f 100/100/100 98/98/98 99/99/99
f 99/99/99 101/101/101 100/100/100
f 102/102/102 100/100/100 101/101/101
f 95/95/95 103/103/103 97/97/97
f 104/104/104 97/97/97 103/103/103
f 107/107/107 106/106/106 105/105/105
f 108/108/108 105/105/105 106/106/106
f 111/111/111 110/110/110 109/109/109
f 112/112/112 109/109/109 110/110/110
f 115/115/115 114/114/114 113/113/113
f 116/116/116 113/113/113 114/114/114
f 119/119/119 118/118/118 117/117/117
f 120/120/120 117/117/117 118/118/118
f 123/123/123 122/122/122 121/121/121
f 124/124/124 121/121/121 122/122/122
f 127/127/127 126/126/126 125/125/125
f 128/128/128 125/125/125 126/126/126
f 131/131/131 130/130/130 129/129/129
f 132/132/132 129/129/129 130/130/130
f 135/135/135 134/134/134 133/133/133
f 136/136/136 133/133/133 134/134/134
f 139/139/139 138/138/138 137/137/137
f 140/140/140 137/137/137 138/138/138
