g DSJ_GTA_diLou_21
v 35.56641 -0.1043015 -17.90489
v 35.56641 -6.36232 -17.90489
v 35.56641 -0.1043015 13.3852
v 35.56641 -6.36232 13.3852
v -35.56641 -0.1043015 17.97442
v -35.56641 -6.36232 17.97442
v -35.49687 -0.1043015 -0.03476715
v -35.49687 -6.36232 -0.03476715
v -35.49687 -0.1043015 -17.97442
v -35.49687 -6.36232 -17.97442
v 25.76218 -0.1043015 17.97442
v 25.76218 -6.36232 17.97442
v 15.81888 -0.1043015 17.97442
v 15.81888 -6.36232 17.97442
v 35.56641 -0.1043015 13.3852
v 35.56641 -6.36232 13.3852
v 25.76218 -0.1043015 13.31567
v 25.76218 -6.36232 13.31567
v -35.56641 -0.1043015 17.97442
v -35.56641 6.153717 17.97442
v -18.25255 -0.1043015 17.97442
v -18.25255 6.153717 17.97442
v 25.76218 -0.1043015 17.97442
v 25.76218 -0.1043015 13.31567
v 25.76218 -6.36232 17.97442
v 25.76218 -6.36232 13.31567
v 15.81888 -0.1043015 17.97442
v 15.81888 -0.1043015 13.31567
v 15.81888 6.153717 17.97442
v 15.81888 6.153717 17.97442
v 15.81888 -0.1043015 13.31567
v 15.81888 6.153717 13.31567
v -18.25255 -0.1043015 17.97442
v -18.25255 -0.1043015 13.31567
v -18.25255 -6.36232 17.97442
v -18.25255 -6.36232 13.31567
v -18.25255 -0.1043015 13.31567
v -18.25255 6.153717 13.31567
v -7.683456 -0.1043015 13.31567
v -7.683456 6.153717 13.31567
v 15.81888 -0.1043015 13.31567
v 15.81888 -6.36232 13.31567
v 4.345846 -0.1043015 13.31567
v 4.345846 -6.36232 13.31567
v -35.49687 -0.1043015 -17.97442
v -35.49687 -6.36232 -17.97442
v -7.683456 -0.1043015 -17.90489
v -7.683456 -6.36232 -17.90489
v 20.06043 -0.1043015 -17.90489
v 20.06043 6.153717 -17.90489
v 4.345846 -0.1043015 -17.90489
v 4.345846 6.153717 -17.90489
v 4.345846 3.650509 -7.335789
v 4.345846 6.153717 -7.335789
v -7.683456 3.650509 -7.335789
v -7.683456 6.153717 -7.335789
v -7.683456 3.650509 3.024708
v -7.683456 6.153717 3.024708
v 4.345846 3.650509 3.024708
v 4.345846 6.153717 3.024708
v -7.683456 -0.1043015 -7.335789
v -7.683456 3.650509 -7.335789
v -7.683456 -0.1043015 -17.90489
v -7.683456 6.153717 -7.335789
v -7.683456 6.153717 -17.90489
v -7.683456 -0.1043015 13.31567
v -7.683456 -0.1043015 3.024708
v -7.683456 -6.36232 13.31567
v -7.683456 -6.36232 3.024708
v 4.345846 -0.1043015 -17.90489
v 4.345846 -0.1043015 -7.335789
v 4.345846 -6.36232 -17.90489
v 4.345846 -6.36232 -7.335789
v 4.345846 -0.1043015 3.024708
v 4.345846 3.650509 3.024708
v 4.345846 -0.1043015 13.31567
v 4.345846 6.153717 3.024708
v 4.345846 6.153717 13.31567
v -7.683456 -0.1043015 -7.335789
v -7.683456 -0.1043015 3.024708
v -7.683456 3.650509 -7.335789
v -7.683456 3.650509 3.024708
v 4.345846 -0.1043015 3.024708
v 4.345846 -0.1043015 -7.335789
v 4.345846 3.650509 3.024708
v 4.345846 3.650509 -7.335789
v -7.683456 3.650509 -7.335789
v -7.683456 3.650509 3.024708
v 4.345846 3.650509 -7.335789
v 4.345846 3.650509 3.024708
v 35.56641 -0.1043015 -17.90489
v 35.56641 6.153717 -17.90489
v 20.06043 -0.1043015 -17.90489
v 20.06043 6.153717 -17.90489
v -35.49687 6.153717 -17.97442
v -7.683456 6.153717 -17.90489
v -35.49687 6.153717 -0.03476715
v -35.49687 6.153717 -0.03476715
v -7.683456 6.153717 -17.90489
v -7.683456 6.153717 -7.335789
v -7.683456 6.153717 3.024708
v 4.345846 6.153717 3.024708
v -7.683456 6.153717 3.024708
v 4.345846 6.153717 -7.335789
v -7.683456 6.153717 -7.335789
v 25.76218 6.153717 17.97442
v 15.81888 6.153717 17.97442
v 25.76218 6.153717 13.31567
v 20.06043 6.153717 -17.90489
v 35.56641 6.153717 13.3852
v 35.56641 6.153717 -17.90489
v 4.345846 6.153717 3.024708
v 4.345846 6.153717 -7.335789
v 4.345846 6.153717 -17.90489
v 15.81888 6.153717 13.31567
v 4.345846 6.153717 13.31567
v 25.76218 6.153717 13.31567
v 15.81888 6.153717 17.97442
v 20.06043 6.153717 -17.90489
v 15.81888 6.153717 13.31567
v 4.345846 6.153717 3.024708
v 35.56641 6.153717 13.3852
v 35.56641 6.153717 -17.90489
v 35.56641 -0.1043015 13.3852
v 35.56641 -0.1043015 -17.90489
v 15.81888 6.153717 17.97442
v 25.76218 6.153717 17.97442
v 15.81888 -0.1043015 17.97442
v 25.76218 -0.1043015 17.97442
v 25.76218 6.153717 13.31567
v 35.56641 6.153717 13.3852
v 25.76218 -0.1043015 13.31567
v 35.56641 -0.1043015 13.3852
v 25.76218 6.153717 17.97442
v 25.76218 6.153717 13.31567
v 25.76218 -0.1043015 17.97442
v 25.76218 -0.1043015 13.31567
v 15.81888 -6.36232 17.97442
v 15.81888 -6.36232 13.31567
v 15.81888 -0.1043015 17.97442
v 15.81888 -0.1043015 13.31567
v 4.345846 6.153717 13.31567
v 15.81888 6.153717 13.31567
v 4.345846 -0.1043015 13.31567
v 15.81888 -0.1043015 13.31567
v 4.345846 -6.36232 -17.90489
v 20.06043 -6.36232 -17.90489
v 4.345846 -0.1043015 -17.90489
v 20.06043 -0.1043015 -17.90489
v 4.345846 6.153717 -7.335789
v 4.345846 3.650509 -7.335789
v 4.345846 6.153717 -17.90489
v 4.345846 -0.1043015 -7.335789
v 4.345846 -0.1043015 -17.90489
v 4.345846 -6.36232 3.024708
v 4.345846 -0.1043015 3.024708
v 4.345846 -6.36232 13.31567
v 4.345846 -0.1043015 13.31567
v 4.345846 -6.36232 3.024708
v 4.345846 -6.36232 -7.335789
v 4.345846 -0.1043015 3.024708
v 4.345846 -0.1043015 -7.335789
v 20.06043 -6.36232 -17.90489
v 35.56641 -6.36232 -17.90489
v 20.06043 -0.1043015 -17.90489
v 35.56641 -0.1043015 -17.90489
v -35.49687 6.153717 -0.03476715
v -35.56641 6.153717 17.97442
v -35.49687 -0.1043015 -0.03476715
v -35.56641 -0.1043015 17.97442
v -18.25255 -6.36232 17.97442
v -35.56641 -6.36232 17.97442
v -18.25255 -0.1043015 17.97442
v -35.56641 -0.1043015 17.97442
v -18.25255 6.153717 17.97442
v -18.25255 6.153717 13.31567
v -18.25255 -0.1043015 17.97442
v -18.25255 -0.1043015 13.31567
v -7.683456 -6.36232 13.31567
v -18.25255 -6.36232 13.31567
v -7.683456 -0.1043015 13.31567
v -18.25255 -0.1043015 13.31567
v -7.683456 6.153717 -17.90489
v -35.49687 6.153717 -17.97442
v -7.683456 -0.1043015 -17.90489
v -35.49687 -0.1043015 -17.97442
v -7.683456 -6.36232 -7.335789
v -7.683456 -0.1043015 -7.335789
v -7.683456 -6.36232 -17.90489
v -7.683456 -0.1043015 -17.90489
v -7.683456 6.153717 3.024708
v -7.683456 3.650509 3.024708
v -7.683456 6.153717 13.31567
v -7.683456 -0.1043015 3.024708
v -7.683456 -0.1043015 13.31567
v -7.683456 -6.36232 -7.335789
v -7.683456 -6.36232 3.024708
v -7.683456 -0.1043015 -7.335789
v -7.683456 -0.1043015 3.024708
v -35.49687 -0.1043015 -17.97442
v -35.49687 6.153717 -17.97442
v -35.49687 -0.1043015 -0.03476715
v -35.49687 6.153717 -0.03476715
v -35.42734 -0.1738358 15.12354
v -35.42734 0.03476715 15.12354
v -35.42734 -0.1738358 19.85183
v -35.42734 0.03476715 19.85183
v -18.25255 0.03476715 15.12354
v -18.25255 -0.1738358 15.12354
v -18.25255 0.03476715 19.85183
v -18.25255 -0.1738358 19.85183
v -35.42734 -0.1738358 19.85183
v -35.42734 0.03476715 19.85183
v -18.25255 -0.1738358 19.85183
v -18.25255 0.03476715 19.85183
v -18.25255 0.03476715 15.12354
v -18.25255 0.03476715 19.85183
v -35.42734 0.03476715 15.12354
v -35.42734 0.03476715 19.85183
v 15.81888 -0.1738358 15.19308
v 15.81888 0.03476715 15.19308
v 15.81888 -0.1738358 19.85183
v 15.81888 0.03476715 19.85183
v 25.62311 0.03476715 15.19308
v 25.62311 -0.1738358 15.19308
v 25.62311 0.03476715 19.85183
v 25.62311 -0.1738358 19.85183
v 15.81888 -0.1738358 19.85183
v 15.81888 0.03476715 19.85183
v 25.62311 -0.1738358 19.85183
v 25.62311 0.03476715 19.85183
v 25.62311 0.03476715 15.19308
v 25.62311 0.03476715 19.85183
v 15.81888 0.03476715 15.19308
v 15.81888 0.03476715 19.85183
v 4.345846 -0.1738358 11.5078
v 4.345846 0.03476715 11.5078
v 4.345846 -0.1738358 16.23608
v 4.345846 0.03476715 16.23608
v 4.345846 -0.1738358 16.23608
v 4.345846 0.03476715 16.23608
v 15.88841 -0.1738358 16.23608
v 15.88841 0.03476715 16.23608
v 15.88841 0.03476715 11.5078
v 15.88841 0.03476715 16.23608
v 4.345846 0.03476715 11.5078
v 4.345846 0.03476715 16.23608
v 35.49687 0.03476715 11.57734
v 35.49687 -0.1738358 11.57734
v 35.49687 0.03476715 16.23608
v 35.49687 -0.1738358 16.23608
v 25.62311 -0.1738358 16.23608
v 25.62311 0.03476715 16.23608
v 35.49687 -0.1738358 16.23608
v 35.49687 0.03476715 16.23608
v 35.49687 0.03476715 11.57734
v 35.49687 0.03476715 16.23608
v 25.62311 0.03476715 11.5078
v 25.62311 0.03476715 16.23608
v -7.752991 0.03476715 11.5078
v -7.752991 -0.1738358 11.5078
v -7.752991 0.03476715 16.23608
v -7.752991 -0.1738358 16.23608
v -18.39162 -0.1738358 16.23608
v -18.39162 0.03476715 16.23608
v -7.752991 -0.1738358 16.23608
v -7.752991 0.03476715 16.23608
v -7.752991 0.03476715 11.5078
v -7.752991 0.03476715 16.23608
v -18.39162 0.03476715 11.5078
v -18.39162 0.03476715 16.23608
v 35.28827 -0.1738358 -15.33215
v 35.28827 0.03476715 -15.33215
v 35.28827 -0.1738358 -19.99089
v 35.28827 0.03476715 -19.99089
v 4.693514 0.03476715 -15.33215
v 4.693514 -0.1738358 -15.33215
v 4.693514 0.03476715 -19.99089
v 4.693514 -0.1738358 -19.99089
v 35.28827 -0.1738358 -19.99089
v 35.28827 0.03476715 -19.99089
v 4.693514 -0.1738358 -19.99089
v 4.693514 0.03476715 -19.99089
v 4.693514 0.03476715 -15.33215
v 4.693514 0.03476715 -19.99089
v 35.28827 0.03476715 -15.33215
v 35.28827 0.03476715 -19.99089
v -8.100658 -0.1738358 -15.40168
v -8.100658 0.03476715 -15.40168
v -8.100658 -0.1738358 -19.99089
v -8.100658 0.03476715 -19.99089
v -35.21873 0.03476715 -15.40168
v -35.21873 -0.1738358 -15.40168
v -35.21873 0.03476715 -19.99089
v -35.21873 -0.1738358 -19.99089
v -8.100658 -0.1738358 -19.99089
v -8.100658 0.03476715 -19.99089
v -35.21873 -0.1738358 -19.99089
v -35.21873 0.03476715 -19.99089
v -35.21873 0.03476715 -15.40168
v -35.21873 0.03476715 -19.99089
v -8.100658 0.03476715 -15.40168
v -8.100658 0.03476715 -19.99089
v -18.25255 6.153717 17.97442
v -35.56641 6.153717 17.97442
v -18.25255 6.153717 13.31567
v -35.49687 6.153717 -0.03476715
v -7.683456 6.153717 3.024708
v -7.683456 6.153717 13.31567
vt 0.8756629 0.7424257
vt 0.8756629 0.6287823
vt 0.4994639 0.7424257
vt 0.4994639 0.6287823
vt 0.754182 0.7463445
vt 0.754182 0.6248636
vt 0.57392 0.7463445
vt 0.57392 0.6248636
vt 0.3897392 0.7463445
vt 0.3897392 0.6248636
vt 0.2447458 0.7424257
vt 0.2447458 0.6287823
vt 0.1311024 0.7424257
vt 0.1311024 0.6287823
vt 0.3662267 0.7424257
vt 0.3662267 0.6287823
vt 0.2447458 0.7424257
vt 0.2447458 0.6287823
vt 0.7463445 0.7463445
vt 0.7463445 0.8639067
vt 0.8364755 0.7463445
vt 0.8364755 0.8639067
vt 0.2369083 0.7424257
vt 0.2486646 0.7424257
vt 0.2369083 0.6287823
vt 0.2486646 0.6287823
vt 0.8325568 0.7463445
vt 0.828638 0.7463445
vt 0.8325568 0.8639067
vt 0.8325568 0.8639067
vt 0.828638 0.7463445
vt 0.828638 0.8639067
vt 0.5856762 0.7463445
vt 0.632701 0.7463445
vt 0.5856762 0.6248636
vt 0.632701 0.6248636
vt 0.7894506 0.7463445
vt 0.7894506 0.8639067
vt 0.8325568 0.7463445
vt 0.8325568 0.8639067
vt 0.1311024 0.7424257
vt 0.1311024 0.6287823
vt -0.002134767 0.7424257
vt -0.002134767 0.6287823
vt 0.754182 0.7463445
vt 0.754182 0.6248636
vt 0.3819017 0.7463445
vt 0.3819017 0.6248636
vt 0.7463445 0.7463445
vt 0.7463445 0.8639067
vt 0.8325568 0.7463445
vt 0.8325568 0.8639067
vt 0.8835004 0.4877077
vt 0.8835004 0.5856762
vt 0.9697127 0.4877077
vt 0.9697127 0.5856762
vt 0.9697127 0.5856762
vt 0.9697127 0.4916264
vt 0.8835004 0.5856762
vt 0.8835004 0.4916264
vt 0.8247193 0.754182
vt 0.8247193 0.8208005
vt 0.8403943 0.754182
vt 0.8247193 0.8639067
vt 0.8403943 0.8639067
vt 0.8756629 0.6248636
vt 0.7620195 0.6248636
vt 0.8756629 0.738507
vt 0.7620195 0.738507
vt 0.8717442 0.6248636
vt 0.754182 0.6248636
vt 0.8717442 0.7424257
vt 0.754182 0.7424257
vt 0.828638 0.7463445
vt 0.828638 0.8129631
vt 0.8403943 0.7463445
vt 0.828638 0.8639067
vt 0.8403943 0.8639067
vt 0.8403943 0.754182
vt 0.8247193 0.754182
vt 0.8403943 0.8208005
vt 0.8247193 0.8208005
vt 0.8403943 0.7463445
vt 0.828638 0.7463445
vt 0.8403943 0.8129631
vt 0.828638 0.8129631
vt 0.9697127 0.5856762
vt 0.9697127 0.4877077
vt 0.8835004 0.5856762
vt 0.8835004 0.4877077
vt 0.7463445 0.7463445
vt 0.7463445 0.8639067
vt 0.8325568 0.7463445
vt 0.8325568 0.8639067
vt 0.8835004 0.5817574
vt 0.9932251 0.5817574
vt 0.8835004 0.5229763
vt 0.8835004 0.5229763
vt 0.9932251 0.5817574
vt 0.9932251 0.5504075
vt 0.9932251 0.5151389
vt 0.9814689 0.4877077
vt 0.8874191 0.4877077
vt 0.9814689 0.5504075
vt 0.8874191 0.5504075
vt 0.9579564 0.4798702
vt 0.9148503 0.4798702
vt 0.9579564 0.4955451
vt 0.9383627 0.5856762
vt 0.9971438 0.4955451
vt 0.9971438 0.5856762
vt 0.8756629 0.5229763
vt 0.8756629 0.558245
vt 0.8756629 0.5856762
vt 0.9148503 0.4955451
vt 0.8756629 0.4955451
vt 0.9579564 0.4955451
vt 0.9148503 0.4798702
vt 0.9383627 0.5856762
vt 0.9148503 0.4955451
vt 0.8756629 0.5229763
vt 0.7463445 0.8639067
vt 0.8717442 0.8639067
vt 0.7463445 0.7463445
vt 0.8717442 0.7463445
vt 0.7463445 0.8639067
vt 0.7894506 0.8639067
vt 0.7463445 0.7463445
vt 0.7894506 0.7463445
vt 0.7894506 0.8639067
vt 0.8325568 0.8639067
vt 0.7894506 0.7463445
vt 0.8325568 0.7463445
vt 0.828638 0.8639067
vt 0.8325568 0.8639067
vt 0.828638 0.7463445
vt 0.8325568 0.7463445
vt 0.1350211 0.6287823
vt 0.1193462 0.6287823
vt 0.1350211 0.7424257
vt 0.1193462 0.7424257
vt 0.7894506 0.8639067
vt 0.8325568 0.8639067
vt 0.7894506 0.7463445
vt 0.8325568 0.7463445
vt 0.3701455 0.6287823
vt 0.1311024 0.6287823
vt 0.3701455 0.7424257
vt 0.1311024 0.7424257
vt 0.8403943 0.8639067
vt 0.8403943 0.8129631
vt 0.828638 0.8639067
vt 0.8403943 0.7463445
vt 0.828638 0.7463445
vt 0.8717442 0.7424257
vt 0.8717442 0.6248636
vt 0.754182 0.7424257
vt 0.754182 0.6248636
vt 0.754182 0.7424257
vt 0.8717442 0.7424257
vt 0.754182 0.6248636
vt 0.8717442 0.6248636
vt 0.3701455 0.6287823
vt 0.1311024 0.6287823
vt 0.3701455 0.7424257
vt 0.1311024 0.7424257
vt 0.7894506 0.8639067
vt 0.8717442 0.8639067
vt 0.7894506 0.7463445
vt 0.8717442 0.7463445
vt 0.377983 0.6248636
vt 0.1232649 0.6248636
vt 0.377983 0.7463445
vt 0.1232649 0.7463445
vt 0.8247193 0.8639067
vt 0.8325568 0.8639067
vt 0.8247193 0.754182
vt 0.8325568 0.754182
vt 0.754182 0.6248636
vt 0.632701 0.6248636
vt 0.754182 0.7463445
vt 0.632701 0.7463445
vt 0.7463445 0.8639067
vt 0.8717442 0.8639067
vt 0.7463445 0.7463445
vt 0.8717442 0.7463445
vt 0.8756629 0.738507
vt 0.8756629 0.6248636
vt 0.7620195 0.738507
vt 0.7620195 0.6248636
vt 0.8403943 0.8639067
vt 0.8403943 0.8208005
vt 0.8247193 0.8639067
vt 0.8403943 0.754182
vt 0.8247193 0.754182
vt 0.7620195 0.738507
vt 0.8756629 0.738507
vt 0.7620195 0.6248636
vt 0.8756629 0.6248636
vt 0.7894506 0.7463445
vt 0.7894506 0.8639067
vt 0.8717442 0.7463445
vt 0.8717442 0.8639067
vt 0.166371 0.8952566
vt 0.166371 0.8952566
vt 0.166371 0.8874191
vt 0.166371 0.8874191
vt 0.166371 0.8952566
vt 0.166371 0.8952566
vt 0.166371 0.8874191
vt 0.166371 0.8874191
vt 0.166371 0.9070128
vt 0.1702898 0.9070128
vt 0.166371 0.8051256
vt 0.1702898 0.8051256
vt 0.1938022 0.8051256
vt 0.1702898 0.8051256
vt 0.1938022 0.9070128
vt 0.1702898 0.9070128
vt 0.166371 0.8952566
vt 0.166371 0.8952566
vt 0.166371 0.8874191
vt 0.166371 0.8874191
vt 0.166371 0.8952566
vt 0.166371 0.8952566
vt 0.166371 0.8874191
vt 0.166371 0.8874191
vt 0.166371 0.9070128
vt 0.1702898 0.9070128
vt 0.166371 0.8051256
vt 0.1702898 0.8051256
vt 0.1938022 0.8051256
vt 0.1702898 0.8051256
vt 0.1938022 0.9070128
vt 0.1702898 0.9070128
vt 0.166371 0.8952566
vt 0.166371 0.8952566
vt 0.166371 0.8874191
vt 0.166371 0.8874191
vt 0.166371 0.9070128
vt 0.1702898 0.9070128
vt 0.166371 0.8051256
vt 0.1702898 0.8051256
vt 0.1938022 0.8051256
vt 0.1702898 0.8051256
vt 0.1938022 0.9070128
vt 0.1702898 0.9070128
vt 0.166371 0.8952566
vt 0.166371 0.8952566
vt 0.166371 0.8874191
vt 0.166371 0.8874191
vt 0.166371 0.9070128
vt 0.1702898 0.9070128
vt 0.166371 0.8051256
vt 0.1702898 0.8051256
vt 0.1938022 0.8051256
vt 0.1702898 0.8051256
vt 0.1938022 0.9070128
vt 0.1702898 0.9070128
vt 0.166371 0.8952566
vt 0.166371 0.8952566
vt 0.166371 0.8874191
vt 0.166371 0.8874191
vt 0.166371 0.9070128
vt 0.1702898 0.9070128
vt 0.166371 0.8051256
vt 0.1702898 0.8051256
vt 0.1938022 0.8051256
vt 0.1702898 0.8051256
vt 0.1938022 0.9070128
vt 0.1702898 0.9070128
vt 0.166371 0.8952566
vt 0.166371 0.8952566
vt 0.166371 0.8874191
vt 0.166371 0.8874191
vt 0.166371 0.8952566
vt 0.166371 0.8952566
vt 0.166371 0.8874191
vt 0.166371 0.8874191
vt 0.166371 0.9070128
vt 0.1702898 0.9070128
vt 0.166371 0.8051256
vt 0.1702898 0.8051256
vt 0.1938022 0.8051256
vt 0.1702898 0.8051256
vt 0.1938022 0.9070128
vt 0.1702898 0.9070128
vt 0.166371 0.8952566
vt 0.166371 0.8952566
vt 0.166371 0.8874191
vt 0.166371 0.8874191
vt 0.166371 0.8952566
vt 0.166371 0.8952566
vt 0.166371 0.8874191
vt 0.166371 0.8874191
vt 0.166371 0.9070128
vt 0.1702898 0.9070128
vt 0.166371 0.8051256
vt 0.1702898 0.8051256
vt 0.1938022 0.8051256
vt 0.1702898 0.8051256
vt 0.1938022 0.9070128
vt 0.1702898 0.9070128
vt 0.9540377 0.4641952
vt 0.8835004 0.4641952
vt 0.9540377 0.4798702
vt 0.8835004 0.5229763
vt 0.9932251 0.5151389
vt 0.9932251 0.4798702
vn 0.999874 -0.01587099 -0.000346655
vn 0.999874 -0.01587099 -0.000346655
vn 0.999874 -0.01587099 -0.000346655
vn 0.999874 -0.01587099 -0.000346655
vn -0.968132 -0.04761302 -0.2458728
vn -0.968132 -0.04761302 -0.2458728
vn -0.968132 -0.04761302 -0.2458728
vn -0.968132 -0.04761302 -0.2458728
vn -0.968132 -0.04761302 -0.2458728
vn -0.968132 -0.04761302 -0.2458728
vn 0.04761302 -0.04761302 0.9977304
vn 0.04761302 -0.04761302 0.9977304
vn 0.04761302 -0.04761302 0.9977304
vn 0.04761302 -0.04761302 0.9977304
vn 0.04761302 -0.04761302 0.9977304
vn 0.04761302 -0.04761302 0.9977304
vn 0.04761302 -0.04761302 0.9977304
vn 0.04761302 -0.04761302 0.9977304
vn 0.04761302 -0.04761302 0.9977304
vn 0.04761302 -0.04761302 0.9977304
vn 0.04761302 -0.04761302 0.9977304
vn 0.04761302 -0.04761302 0.9977304
vn 0.999874 -0.01587099 -0.000346655
vn 0.999874 -0.01587099 -0.000346655
vn 0.999874 -0.01587099 -0.000346655
vn 0.999874 -0.01587099 -0.000346655
vn -0.968132 -0.04761302 -0.2458728
vn -0.968132 -0.04761302 -0.2458728
vn -0.968132 -0.04761302 -0.2458728
vn -0.968132 -0.04761302 -0.2458728
vn -0.968132 -0.04761302 -0.2458728
vn -0.968132 -0.04761302 -0.2458728
vn 0.999874 -0.01587099 -0.000346655
vn 0.999874 -0.01587099 -0.000346655
vn 0.999874 -0.01587099 -0.000346655
vn 0.999874 -0.01587099 -0.000346655
vn 0.04761302 -0.04761302 0.9977304
vn 0.04761302 -0.04761302 0.9977304
vn 0.04761302 -0.04761302 0.9977304
vn 0.04761302 -0.04761302 0.9977304
vn 0.04761302 -0.04761302 0.9977304
vn 0.04761302 -0.04761302 0.9977304
vn 0.04761302 -0.04761302 0.9977304
vn 0.04761302 -0.04761302 0.9977304
vn 0.04761302 -0.04761302 -0.9977304
vn 0.04761302 -0.04761302 -0.9977304
vn 0.04761302 -0.04761302 -0.9977304
vn 0.04761302 -0.04761302 -0.9977304
vn 0.04761302 -0.04761302 -0.9977304
vn 0.04761302 -0.04761302 -0.9977304
vn 0.04761302 -0.04761302 -0.9977304
vn 0.04761302 -0.04761302 -0.9977304
vn 0.04761302 -0.04761302 -0.9977304
vn 0.04761302 -0.04761302 -0.9977304
vn 0.04761302 -0.04761302 -0.9977304
vn 0.04761302 -0.04761302 -0.9977304
vn 0.04761302 -0.04761302 0.9977304
vn 0.04761302 -0.04761302 0.9977304
vn 0.04761302 -0.04761302 0.9977304
vn 0.04761302 -0.04761302 0.9977304
vn 0.999874 -0.01587099 -0.000346655
vn 0.999874 -0.01587099 -0.000346655
vn 0.999874 -0.01587099 -0.000346655
vn 0.999874 -0.01587099 -0.000346655
vn 0.999874 -0.01587099 -0.000346655
vn 0.999874 -0.01587099 -0.000346655
vn 0.999874 -0.01587099 -0.000346655
vn 0.999874 -0.01587099 -0.000346655
vn 0.999874 -0.01587099 -0.000346655
vn -0.968132 -0.04761302 -0.2458728
vn -0.968132 -0.04761302 -0.2458728
vn -0.968132 -0.04761302 -0.2458728
vn -0.968132 -0.04761302 -0.2458728
vn -0.968132 -0.04761302 -0.2458728
vn -0.968132 -0.04761302 -0.2458728
vn -0.968132 -0.04761302 -0.2458728
vn -0.968132 -0.04761302 -0.2458728
vn -0.968132 -0.04761302 -0.2458728
vn 0.999874 -0.01587099 -0.000346655
vn 0.999874 -0.01587099 -0.000346655
vn 0.999874 -0.01587099 -0.000346655
vn 0.999874 -0.01587099 -0.000346655
vn -0.968132 -0.04761302 -0.2458728
vn -0.968132 -0.04761302 -0.2458728
vn -0.968132 -0.04761302 -0.2458728
vn -0.968132 -0.04761302 -0.2458728
vn 0.01587099 -0.999874 -0.000345267
vn 0.01587099 -0.999874 -0.000345267
vn 0.01587099 -0.999874 -0.000345267
vn 0.01587099 -0.999874 -0.000345267
vn 0.04761302 -0.04761302 -0.9977304
vn 0.04761302 -0.04761302 -0.9977304
vn 0.04761302 -0.04761302 -0.9977304
vn 0.04761302 -0.04761302 -0.9977304
vn 0.01587099 0.999874 -0.000345267
vn 0.01587099 0.999874 -0.000345267
vn 0.01587099 0.999874 -0.000345267
vn 0.01587099 0.999874 -0.000345267
vn 0.01587099 0.999874 -0.000345267
vn 0.01587099 0.999874 -0.000345267
vn 0.01587099 0.999874 -0.000345267
vn 0.01587099 0.999874 -0.000345267
vn 0.01587099 0.999874 -0.000345267
vn 0.01587099 0.999874 -0.000345267
vn 0.01587099 0.999874 -0.000345267
vn 0.01587099 0.999874 -0.000345267
vn 0.01587099 0.999874 -0.000345267
vn 0.01587099 0.999874 -0.000345267
vn 0.01587099 0.999874 -0.000345267
vn 0.01587099 0.999874 -0.000345267
vn 0.01587099 0.999874 -0.000345267
vn 0.01587099 0.999874 -0.000345267
vn 0.01587099 0.999874 -0.000345267
vn 0.01587099 0.999874 -0.000345267
vn 0.01587099 0.999874 -0.000345267
vn 0.01587099 0.999874 -0.000345267
vn 0.01587099 0.999874 -0.000345267
vn 0.01587099 0.999874 -0.000345267
vn 0.01587099 0.999874 -0.000345267
vn 0.01587099 0.999874 -0.000345267
vn 0.01587099 0.999874 -0.000345267
vn 0.999874 -0.01587099 -0.000346655
vn 0.999874 -0.01587099 -0.000346655
vn 0.999874 -0.01587099 -0.000346655
vn 0.999874 -0.01587099 -0.000346655
vn 0.04761302 -0.04761302 0.9977304
vn 0.04761302 -0.04761302 0.9977304
vn 0.04761302 -0.04761302 0.9977304
vn 0.04761302 -0.04761302 0.9977304
vn 0.04761302 -0.04761302 0.9977304
vn 0.04761302 -0.04761302 0.9977304
vn 0.04761302 -0.04761302 0.9977304
vn 0.04761302 -0.04761302 0.9977304
vn 0.999874 -0.01587099 -0.000346655
vn 0.999874 -0.01587099 -0.000346655
vn 0.999874 -0.01587099 -0.000346655
vn 0.999874 -0.01587099 -0.000346655
vn -0.968132 -0.04761302 -0.2458728
vn -0.968132 -0.04761302 -0.2458728
vn -0.968132 -0.04761302 -0.2458728
vn -0.968132 -0.04761302 -0.2458728
vn 0.04761302 -0.04761302 0.9977304
vn 0.04761302 -0.04761302 0.9977304
vn 0.04761302 -0.04761302 0.9977304
vn 0.04761302 -0.04761302 0.9977304
vn 0.04761302 -0.04761302 -0.9977304
vn 0.04761302 -0.04761302 -0.9977304
vn 0.04761302 -0.04761302 -0.9977304
vn 0.04761302 -0.04761302 -0.9977304
vn -0.968132 -0.04761302 -0.2458728
vn -0.968132 -0.04761302 -0.2458728
vn -0.968132 -0.04761302 -0.2458728
vn -0.968132 -0.04761302 -0.2458728
vn -0.968132 -0.04761302 -0.2458728
vn -0.968132 -0.04761302 -0.2458728
vn -0.968132 -0.04761302 -0.2458728
vn -0.968132 -0.04761302 -0.2458728
vn -0.968132 -0.04761302 -0.2458728
vn -0.968132 -0.04761302 -0.2458728
vn -0.968132 -0.04761302 -0.2458728
vn -0.968132 -0.04761302 -0.2458728
vn -0.968132 -0.04761302 -0.2458728
vn 0.04761302 -0.04761302 -0.9977304
vn 0.04761302 -0.04761302 -0.9977304
vn 0.04761302 -0.04761302 -0.9977304
vn 0.04761302 -0.04761302 -0.9977304
vn -0.968132 -0.04761302 -0.2458728
vn -0.968132 -0.04761302 -0.2458728
vn -0.968132 -0.04761302 -0.2458728
vn -0.968132 -0.04761302 -0.2458728
vn 0.04761302 -0.04761302 0.9977304
vn 0.04761302 -0.04761302 0.9977304
vn 0.04761302 -0.04761302 0.9977304
vn 0.04761302 -0.04761302 0.9977304
vn 0.999874 -0.01587099 -0.000346655
vn 0.999874 -0.01587099 -0.000346655
vn 0.999874 -0.01587099 -0.000346655
vn 0.999874 -0.01587099 -0.000346655
vn 0.04761302 -0.04761302 0.9977304
vn 0.04761302 -0.04761302 0.9977304
vn 0.04761302 -0.04761302 0.9977304
vn 0.04761302 -0.04761302 0.9977304
vn 0.04761302 -0.04761302 -0.9977304
vn 0.04761302 -0.04761302 -0.9977304
vn 0.04761302 -0.04761302 -0.9977304
vn 0.04761302 -0.04761302 -0.9977304
vn 0.999874 -0.01587099 -0.000346655
vn 0.999874 -0.01587099 -0.000346655
vn 0.999874 -0.01587099 -0.000346655
vn 0.999874 -0.01587099 -0.000346655
vn 0.999874 -0.01587099 -0.000346655
vn 0.999874 -0.01587099 -0.000346655
vn 0.999874 -0.01587099 -0.000346655
vn 0.999874 -0.01587099 -0.000346655
vn 0.999874 -0.01587099 -0.000346655
vn 0.999874 -0.01587099 -0.000346655
vn 0.999874 -0.01587099 -0.000346655
vn 0.999874 -0.01587099 -0.000346655
vn 0.999874 -0.01587099 -0.000346655
vn -0.968132 -0.04761302 -0.2458728
vn -0.968132 -0.04761302 -0.2458728
vn -0.968132 -0.04761302 -0.2458728
vn -0.968132 -0.04761302 -0.2458728
vn -0.968132 -0.04761302 -0.2458728
vn -0.968132 -0.04761302 -0.2458728
vn -0.968132 -0.04761302 -0.2458728
vn -0.968132 -0.04761302 -0.2458728
vn 0.999874 -0.01587099 -0.000346655
vn 0.999874 -0.01587099 -0.000346655
vn 0.999874 -0.01587099 -0.000346655
vn 0.999874 -0.01587099 -0.000346655
vn 0.04761302 -0.04761302 0.9977304
vn 0.04761302 -0.04761302 0.9977304
vn 0.04761302 -0.04761302 0.9977304
vn 0.04761302 -0.04761302 0.9977304
vn 0.01587099 0.999874 -0.000345267
vn 0.01587099 0.999874 -0.000345267
vn 0.01587099 0.999874 -0.000345267
vn 0.01587099 0.999874 -0.000345267
vn -0.968132 -0.04761302 -0.2458728
vn -0.968132 -0.04761302 -0.2458728
vn -0.968132 -0.04761302 -0.2458728
vn -0.968132 -0.04761302 -0.2458728
vn 0.999874 -0.01587099 -0.000346655
vn 0.999874 -0.01587099 -0.000346655
vn 0.999874 -0.01587099 -0.000346655
vn 0.999874 -0.01587099 -0.000346655
vn 0.04761302 -0.04761302 0.9977304
vn 0.04761302 -0.04761302 0.9977304
vn 0.04761302 -0.04761302 0.9977304
vn 0.04761302 -0.04761302 0.9977304
vn 0.01587099 0.999874 -0.000345267
vn 0.01587099 0.999874 -0.000345267
vn 0.01587099 0.999874 -0.000345267
vn 0.01587099 0.999874 -0.000345267
vn -0.968132 -0.04761302 -0.2458728
vn -0.968132 -0.04761302 -0.2458728
vn -0.968132 -0.04761302 -0.2458728
vn -0.968132 -0.04761302 -0.2458728
vn 0.04761302 -0.04761302 0.9977304
vn 0.04761302 -0.04761302 0.9977304
vn 0.04761302 -0.04761302 0.9977304
vn 0.04761302 -0.04761302 0.9977304
vn 0.01587099 0.999874 -0.000345267
vn 0.01587099 0.999874 -0.000345267
vn 0.01587099 0.999874 -0.000345267
vn 0.01587099 0.999874 -0.000345267
vn 0.999874 -0.01587099 -0.000346655
vn 0.999874 -0.01587099 -0.000346655
vn 0.999874 -0.01587099 -0.000346655
vn 0.999874 -0.01587099 -0.000346655
vn 0.04761302 -0.04761302 0.9977304
vn 0.04761302 -0.04761302 0.9977304
vn 0.04761302 -0.04761302 0.9977304
vn 0.04761302 -0.04761302 0.9977304
vn 0.01587099 0.999874 -0.000345267
vn 0.01587099 0.999874 -0.000345267
vn 0.01587099 0.999874 -0.000345267
vn 0.01587099 0.999874 -0.000345267
vn 0.999874 -0.01587099 -0.000346655
vn 0.999874 -0.01587099 -0.000346655
vn 0.999874 -0.01587099 -0.000346655
vn 0.999874 -0.01587099 -0.000346655
vn 0.04761302 -0.04761302 0.9977304
vn 0.04761302 -0.04761302 0.9977304
vn 0.04761302 -0.04761302 0.9977304
vn 0.04761302 -0.04761302 0.9977304
vn 0.01587099 0.999874 -0.000345267
vn 0.01587099 0.999874 -0.000345267
vn 0.01587099 0.999874 -0.000345267
vn 0.01587099 0.999874 -0.000345267
vn 0.999874 -0.01587099 -0.000346655
vn 0.999874 -0.01587099 -0.000346655
vn 0.999874 -0.01587099 -0.000346655
vn 0.999874 -0.01587099 -0.000346655
vn -0.968132 -0.04761302 -0.2458728
vn -0.968132 -0.04761302 -0.2458728
vn -0.968132 -0.04761302 -0.2458728
vn -0.968132 -0.04761302 -0.2458728
vn 0.04761302 -0.04761302 -0.9977304
vn 0.04761302 -0.04761302 -0.9977304
vn 0.04761302 -0.04761302 -0.9977304
vn 0.04761302 -0.04761302 -0.9977304
vn 0.01587099 0.999874 -0.000345267
vn 0.01587099 0.999874 -0.000345267
vn 0.01587099 0.999874 -0.000345267
vn 0.01587099 0.999874 -0.000345267
vn 0.999874 -0.01587099 -0.000346655
vn 0.999874 -0.01587099 -0.000346655
vn 0.999874 -0.01587099 -0.000346655
vn 0.999874 -0.01587099 -0.000346655
vn -0.968132 -0.04761302 -0.2458728
vn -0.968132 -0.04761302 -0.2458728
vn -0.968132 -0.04761302 -0.2458728
vn -0.968132 -0.04761302 -0.2458728
vn 0.04761302 -0.04761302 -0.9977304
vn 0.04761302 -0.04761302 -0.9977304
vn 0.04761302 -0.04761302 -0.9977304
vn 0.04761302 -0.04761302 -0.9977304
vn 0.01587099 0.999874 -0.000345267
vn 0.01587099 0.999874 -0.000345267
vn 0.01587099 0.999874 -0.000345267
vn 0.01587099 0.999874 -0.000345267
vn 0.01587099 0.999874 -0.000345267
vn 0.01587099 0.999874 -0.000345267
vn 0.01587099 0.999874 -0.000345267
vn 0.01587099 0.999874 -0.000345267
vn 0.01587099 0.999874 -0.000345267
vn 0.01587099 0.999874 -0.000345267
g DSJ_GTA_diLou_21_0
f 3/3/3 2/2/2 1/1/1
f 4/4/4 2/2/2 3/3/3
f 7/7/7 6/6/6 5/5/5
f 8/8/8 6/6/6 7/7/7
f 9/9/9 8/8/8 7/7/7
f 10/10/10 8/8/8 9/9/9
f 13/13/13 12/12/12 11/11/11
f 14/14/14 12/12/12 13/13/13
f 17/17/17 16/16/16 15/15/15
f 18/18/18 16/16/16 17/17/17
f 21/21/21 20/20/20 19/19/19
f 22/22/22 20/20/20 21/21/21
f 25/25/25 24/24/24 23/23/23
f 26/26/26 24/24/24 25/25/25
f 29/29/29 28/28/28 27/27/27
f 32/32/32 31/31/31 30/30/30
f 35/35/35 34/34/34 33/33/33
f 36/36/36 34/34/34 35/35/35
f 39/39/39 38/38/38 37/37/37
f 40/40/40 38/38/38 39/39/39
f 43/43/43 42/42/42 41/41/41
f 44/44/44 42/42/42 43/43/43
f 47/47/47 46/46/46 45/45/45
f 48/48/48 46/46/46 47/47/47
f 51/51/51 50/50/50 49/49/49
f 52/52/52 50/50/50 51/51/51
f 55/55/55 54/54/54 53/53/53
f 56/56/56 54/54/54 55/55/55
f 59/59/59 58/58/58 57/57/57
f 60/60/60 58/58/58 59/59/59
f 63/63/63 62/62/62 61/61/61
f 64/64/64 62/62/62 63/63/63
f 65/65/65 64/64/64 63/63/63
f 68/68/68 67/67/67 66/66/66
f 69/69/69 67/67/67 68/68/68
f 72/72/72 71/71/71 70/70/70
f 73/73/73 71/71/71 72/72/72
f 76/76/76 75/75/75 74/74/74
f 77/77/77 75/75/75 76/76/76
f 78/78/78 77/77/77 76/76/76
f 81/81/81 80/80/80 79/79/79
f 82/82/82 80/80/80 81/81/81
f 85/85/85 84/84/84 83/83/83
f 86/86/86 84/84/84 85/85/85
f 89/89/89 88/88/88 87/87/87
f 90/90/90 88/88/88 89/89/89
f 93/93/93 92/92/92 91/91/91
f 94/94/94 92/92/92 93/93/93
f 97/97/97 96/96/96 95/95/95
f 100/100/100 99/99/99 98/98/98
f 101/101/101 100/100/100 98/98/98
f 104/104/104 103/103/103 102/102/102
f 105/105/105 103/103/103 104/104/104
f 108/108/108 107/107/107 106/106/106
f 110/110/110 109/109/109 108/108/108
f 111/111/111 109/109/109 110/110/110
f 113/113/113 112/112/112 109/109/109
f 114/114/114 113/113/113 109/109/109
f 112/112/112 116/116/116 115/115/115
f 119/119/119 118/118/118 117/117/117
f 120/120/120 118/118/118 119/119/119
f 119/119/119 121/121/121 120/120/120
f 124/124/124 123/123/123 122/122/122
f 125/125/125 123/123/123 124/124/124
f 128/128/128 127/127/127 126/126/126
f 129/129/129 127/127/127 128/128/128
f 132/132/132 131/131/131 130/130/130
f 133/133/133 131/131/131 132/132/132
f 136/136/136 135/135/135 134/134/134
f 137/137/137 135/135/135 136/136/136
f 140/140/140 139/139/139 138/138/138
f 141/141/141 139/139/139 140/140/140
f 144/144/144 143/143/143 142/142/142
f 145/145/145 143/143/143 144/144/144
f 148/148/148 147/147/147 146/146/146
f 149/149/149 147/147/147 148/148/148
f 152/152/152 151/151/151 150/150/150
f 153/153/153 151/151/151 152/152/152
f 154/154/154 153/153/153 152/152/152
f 157/157/157 156/156/156 155/155/155
f 158/158/158 156/156/156 157/157/157
f 161/161/161 160/160/160 159/159/159
f 162/162/162 160/160/160 161/161/161
f 165/165/165 164/164/164 163/163/163
f 166/166/166 164/164/164 165/165/165
f 169/169/169 168/168/168 167/167/167
f 170/170/170 168/168/168 169/169/169
f 173/173/173 172/172/172 171/171/171
f 174/174/174 172/172/172 173/173/173
f 177/177/177 176/176/176 175/175/175
f 178/178/178 176/176/176 177/177/177
f 181/181/181 180/180/180 179/179/179
f 182/182/182 180/180/180 181/181/181
f 185/185/185 184/184/184 183/183/183
f 186/186/186 184/184/184 185/185/185
f 189/189/189 188/188/188 187/187/187
f 190/190/190 188/188/188 189/189/189
f 193/193/193 192/192/192 191/191/191
f 194/194/194 192/192/192 193/193/193
f 195/195/195 194/194/194 193/193/193
f 198/198/198 197/197/197 196/196/196
f 199/199/199 197/197/197 198/198/198
f 202/202/202 201/201/201 200/200/200
f 203/203/203 201/201/201 202/202/202
f 206/206/206 205/205/205 204/204/204
f 207/207/207 205/205/205 206/206/206
f 210/210/210 209/209/209 208/208/208
f 211/211/211 209/209/209 210/210/210
f 214/214/214 213/213/213 212/212/212
f 215/215/215 213/213/213 214/214/214
f 218/218/218 217/217/217 216/216/216
f 219/219/219 217/217/217 218/218/218
f 222/222/222 221/221/221 220/220/220
f 223/223/223 221/221/221 222/222/222
f 226/226/226 225/225/225 224/224/224
f 227/227/227 225/225/225 226/226/226
f 230/230/230 229/229/229 228/228/228
f 231/231/231 229/229/229 230/230/230
f 234/234/234 233/233/233 232/232/232
f 235/235/235 233/233/233 234/234/234
f 238/238/238 237/237/237 236/236/236
f 239/239/239 237/237/237 238/238/238
f 242/242/242 241/241/241 240/240/240
f 243/243/243 241/241/241 242/242/242
f 246/246/246 245/245/245 244/244/244
f 247/247/247 245/245/245 246/246/246
f 250/250/250 249/249/249 248/248/248
f 251/251/251 249/249/249 250/250/250
f 254/254/254 253/253/253 252/252/252
f 255/255/255 253/253/253 254/254/254
f 258/258/258 257/257/257 256/256/256
f 259/259/259 257/257/257 258/258/258
f 262/262/262 261/261/261 260/260/260
f 263/263/263 261/261/261 262/262/262
f 266/266/266 265/265/265 264/264/264
f 267/267/267 265/265/265 266/266/266
f 270/270/270 269/269/269 268/268/268
f 271/271/271 269/269/269 270/270/270
f 274/274/274 273/273/273 272/272/272
f 275/275/275 273/273/273 274/274/274
f 278/278/278 277/277/277 276/276/276
f 279/279/279 277/277/277 278/278/278
f 282/282/282 281/281/281 280/280/280
f 283/283/283 281/281/281 282/282/282
f 286/286/286 285/285/285 284/284/284
f 287/287/287 285/285/285 286/286/286
f 290/290/290 289/289/289 288/288/288
f 291/291/291 289/289/289 290/290/290
f 294/294/294 293/293/293 292/292/292
f 295/295/295 293/293/293 294/294/294
f 298/298/298 297/297/297 296/296/296
f 299/299/299 297/297/297 298/298/298
f 302/302/302 301/301/301 300/300/300
f 303/303/303 301/301/301 302/302/302
f 306/306/306 305/305/305 304/304/304
f 307/307/307 305/305/305 306/306/306
f 308/308/308 307/307/307 306/306/306
f 309/309/309 308/308/308 306/306/306
