g DSJ_GTA_diLou_14_uvDongHua
v 2.131914 0.5105758 1.998539
v 2.131914 0.5105758 -2.006875
v 2.131914 -0.5189116 1.998539
v 2.131914 -0.5189116 -2.006875
v 2.131914 0.5105758 -2.006875
v -2.127746 0.5105758 -2.006875
v 2.131914 -0.5189116 -2.006875
v -2.127746 -0.5189116 -2.006875
v -2.127746 0.5105758 -2.006875
v -2.131914 0.5105758 1.998539
v -2.127746 -0.5189116 -2.006875
v -2.127746 -0.5189116 1.998539
v -2.131914 0.5105758 1.998539
v 2.131914 0.5105758 1.998539
v -2.127746 -0.5189116 1.998539
v 2.131914 -0.5189116 1.998539
vt 0.6648156 0.9857286
vt 0.6648156 0.003657341
vt 0.6145521 0.9857286
vt 0.6145521 0.003657341
vt 0.6648156 0.9857286
vt 0.6648156 0.003657341
vt 0.6145521 0.9857286
vt 0.6145521 0.003657341
vt 0.6648156 0.9857286
vt 0.6648156 0.003657341
vt 0.6145521 0.9857286
vt 0.6145521 0.003657341
vt 0.6648156 0.9857286
vt 0.6648156 0.003657341
vt 0.6145521 0.9857286
vt 0.6145521 0.003657341
g DSJ_GTA_diLou_14_uvDongHua_0
f 3/3/3 2/2/2 1/1/1
f 4/4/4 2/2/2 3/3/3
f 7/7/7 6/6/6 5/5/5
f 8/8/8 6/6/6 7/7/7
f 11/11/11 10/10/10 9/9/9
f 12/12/12 10/10/10 11/11/11
f 15/15/15 14/14/14 13/13/13
f 16/16/16 14/14/14 15/15/15
