g DSJ_GTA_daoJu_zaWu_10
v -0.0553695 0.003005385 0.06822383
v 0.3464625 0.1982211 0.1960402
v 0.3325851 0.003005385 0.1879054
v -0.03037024 0.4270282 0.08077919
v 0.3720832 0.003005385 0.05504704
v 0.0001078844 0.4272921 -0.04611373
v -0.01819313 0.003005385 -0.05951333
v 0.0001078844 0.4272921 -0.04611373
v 0.3720832 0.003005385 0.05504704
v 0.3826686 0.1953542 0.06831765
v 0.3325851 0.003005385 0.1879054
v 0.3826686 0.1953542 0.06831765
v 0.3720832 0.003005385 0.05504704
v 0.3464625 0.1982211 0.1960402
v 0.3826686 0.1953542 0.06831765
v -0.03037024 0.4270282 0.08077919
v 0.0001078844 0.4272921 -0.04611373
v 0.3464625 0.1982211 0.1960402
v 0.0001078844 0.4272921 -0.04611373
v -0.0553695 0.003005385 0.06822383
v -0.01819313 0.003005385 -0.05951333
v -0.03037024 0.4270282 0.08077919
v -0.5028907 0.003005385 -0.3993835
v -0.3012199 0.4247183 0.2142737
v -0.3001999 0.003005385 0.2244809
v -0.5028907 0.003005385 -0.3993835
v -0.4958173 0.3053474 -0.3884846
v -0.3240588 0.3402901 -0.467346
v -0.5028907 0.003005385 -0.3993835
v -0.3086776 0.003005385 -0.4707171
v -0.4958173 0.3053474 -0.3884846
v -0.1006426 0.003005385 0.1532999
v -0.3240588 0.3402901 -0.467346
v -0.3086776 0.003005385 -0.4707171
v -0.1216873 0.462868 0.145986
v -0.3001999 0.003005385 0.2244809
v -0.1216873 0.462868 0.145986
v -0.1006426 0.003005385 0.1532999
v -0.3012199 0.4247183 0.2142737
v -0.1216873 0.462868 0.145986
v -0.4958173 0.3053474 -0.3884846
v -0.3240588 0.3402901 -0.467346
v -0.3012199 0.4247183 0.2142737
v -0.3482372 0.3600011 0.4642662
v -0.2548125 0.424472 0.4563191
v -0.3249235 0.3902534 0.4942225
v -0.2537688 0.404213 0.4150475
v -0.2221123 0.2785336 0.5970191
v -0.3482372 0.3600011 0.4642662
v -0.3249235 0.3902534 0.4942225
v -0.22653 0.2333925 0.5804213
v -0.3249235 0.3902534 0.4942225
v -0.1449951 0.3115767 0.5598222
v -0.2221123 0.2785336 0.5970191
v -0.2548125 0.424472 0.4563191
v -0.1345533 0.2744091 0.5344945
v -0.2221123 0.2785336 0.5970191
v -0.1449951 0.3115767 0.5598222
v -0.22653 0.2333925 0.5804213
v -0.2537688 0.404213 0.4150475
v -0.1449951 0.3115767 0.5598222
v -0.2548125 0.424472 0.4563191
v -0.1345533 0.2744091 0.5344945
v -0.3482372 0.3600011 0.4642662
v -0.1345533 0.2744091 0.5344945
v -0.2537688 0.404213 0.4150475
v -0.22653 0.2333925 0.5804213
v -0.04780936 0.003005385 0.8218483
v -0.001281619 0.06396449 0.7836252
v 0.01120913 0.003005385 0.8312582
v -0.08082318 0.003005385 0.7573625
v -0.02228248 0.07743144 0.7026943
v 0.06983197 0.003005385 0.8104683
v 0.08967781 0.003005385 0.7215081
v 0.05823231 0.06918538 0.7163166
v -0.02228248 0.07743144 0.7026943
v -0.08082318 0.003005385 0.7573625
v -0.03483772 0.003005385 0.6820599
v 0.05823231 0.06918538 0.7163166
v -0.001281619 0.06396449 0.7836252
v -0.02228248 0.07743144 0.7026943
v 0.02366185 0.003005385 0.6806177
v -0.02228248 0.07743144 0.7026943
v -0.03483772 0.003005385 0.6820599
v 0.05823231 0.06918538 0.7163166
v 0.08967781 0.003005385 0.7215081
v -0.8953246 0.003005385 0.6415945
v -0.4676081 0.09268081 0.4607221
v -0.465732 0.003005385 0.4532998
v -0.8841969 0.07357955 0.6443616
v -0.5208429 0.003005385 0.3261342
v -0.943318 0.07783604 0.528107
v -0.948999 0.003005385 0.5199195
v -0.5208429 0.003005385 0.3261342
v -0.5221444 0.09727728 0.3397448
v -0.465732 0.003005385 0.4532998
v -0.5221444 0.09727728 0.3397448
v -0.5208429 0.003005385 0.3261342
v -0.4676081 0.09268081 0.4607221
v -0.5221444 0.09727728 0.3397448
v -0.8841969 0.07357955 0.6443616
v -0.943318 0.07783604 0.528107
v -0.4676081 0.09268081 0.4607221
v -0.943318 0.07783604 0.528107
v -0.8953246 0.003005385 0.6415945
v -0.948999 0.003005385 0.5199195
v -0.8841969 0.07357955 0.6443616
v -0.851951 0.09731543 0.2733948
v -0.8387889 0.003005385 0.1778038
v -0.804752 0.003005385 0.3314166
v -0.9388593 0.09475327 0.1958877
v -0.9585439 0.003005385 0.1293032
v -0.9210244 0.08489788 0.3346587
v -0.804752 0.003005385 0.3314166
v -0.9384431 0.003005385 0.4042158
v -0.851951 0.09731543 0.2733948
v -1.030296 0.08101368 0.2450948
v -0.9388593 0.09475327 0.1958877
v -0.9585439 0.003005385 0.1293032
v -1.056923 0.003005385 0.1859443
v -1.061637 0.003005385 0.188653
v -1.07965 0.003005385 0.2752386
v -0.9771878 0.003005385 0.3928273
v -0.880005 0.06657052 0.1511042
v -0.8888403 -0.02014709 0.06535685
v -0.9180988 0.02314138 0.06415498
v -0.8481694 0.02635121 0.1633283
v -0.7510189 0.204814 0.03172457
v -0.7437695 0.1353683 -0.06741357
v -0.7036206 0.1813507 0.03401697
v -0.7850558 0.1658171 -0.05349803
v -0.8888403 -0.02014709 0.06535685
v -0.7850558 0.1658171 -0.05349803
v -0.9180988 0.02314138 0.06415498
v -0.7437695 0.1353683 -0.06741357
v -0.7850558 0.1658171 -0.05349803
v -0.880005 0.06657052 0.1511042
v -0.9180988 0.02314138 0.06415498
v -0.7510189 0.204814 0.03172457
v -0.8481694 0.02635121 0.1633283
v -0.7510189 0.204814 0.03172457
v -0.7036206 0.1813507 0.03401697
v -0.880005 0.06657052 0.1511042
v -0.8481694 0.02635121 0.1633283
v -0.7437695 0.1353683 -0.06741357
v -0.8888403 -0.02014709 0.06535685
v -0.7036206 0.1813507 0.03401697
v -0.6885325 0.003005385 0.5634013
v -0.4831182 0.2813331 0.4775838
v -0.2983676 0.003005385 0.7015716
v -0.1053035 0.2628944 0.5548211
v 0.01891589 0.135723 0.6714305
v -0.06282711 0.003005385 0.7539855
v 0.2481334 0.1216903 0.313186
v 0.1820736 0.3035856 0.2202392
v -0.05611122 0.4071795 0.2178324
v -0.5170261 0.3201981 0.2826406
v 0.2190946 0.2532763 0.07506871
v 0.1124227 0.3155459 0.02681446
v -0.1501046 0.4196029 -0.1223867
v -0.4397272 0.3353858 -0.005056143
v -0.5985934 0.2288868 -0.2840171
v -0.8327767 0.003005385 -0.1574848
v 0.2040622 0.2489789 -0.2432262
v 0.3141376 0.1791991 0.1291097
v 0.3886898 0.2062005 0.04287279
v 0.384064 0.1950991 -0.1046339
v 0.3233482 0.3069949 -0.1853567
v 0.4709135 0.003005385 0.09572363
v -0.1696661 0.23871 -0.4420331
v 0.08024144 0.20173 -0.4478284
v 0.3705794 0.2007128 -0.2159375
v -0.6284 0.003005385 -0.4768174
v 0.4809654 0.003005385 -0.112455
v -0.2911593 0.003005385 -0.6610227
v 0.008186936 0.003005385 -0.6635408
v 0.2922221 0.003005385 -0.4693862
v 0.3722063 0.003005385 0.3282185
v 0.2239081 0.003005385 0.5708383
v 0.2190946 0.2532763 0.07506871
v 0.2040622 0.2489789 -0.2432262
v 0.3233482 0.3069949 -0.1853567
v -0.8713514 0.003005385 0.2661425
v 0.4069526 0.3348815 -0.03524113
v 0.5525656 0.3584826 -0.1501708
v 0.5298412 0.4148628 -0.09827268
v 0.4138443 0.2707096 -0.08363605
v 0.5915244 0.2528777 0.24068
v 0.7580033 0.2655767 0.1599395
v 0.6142195 0.1768012 0.224862
v 0.7123609 0.3278462 0.1854372
v 0.5525656 0.3584826 -0.1501708
v 0.7123609 0.3278462 0.1854372
v 0.5298412 0.4148628 -0.09827268
v 0.7580033 0.2655767 0.1599395
v 0.7123609 0.3278462 0.1854372
v 0.4069526 0.3348815 -0.03524113
v 0.5298412 0.4148628 -0.09827268
v 0.5915244 0.2528777 0.24068
v 0.4138443 0.2707096 -0.08363605
v 0.5915244 0.2528777 0.24068
v 0.6142195 0.1768012 0.224862
v 0.4069526 0.3348815 -0.03524113
v 0.4138443 0.2707096 -0.08363605
v 0.7580033 0.2655767 0.1599395
v 0.5525656 0.3584826 -0.1501708
v 0.6142195 0.1768012 0.224862
v 1.139389 0.1287873 0.6067721
v 0.9705029 0.003005385 0.4886793
v 1.07298 0.1329763 0.4860438
v 0.9609552 0.003005385 0.6113831
v 1.175668 0.003005385 0.4029171
v 1.079954 0.003005385 0.3833704
v 1.295754 0.003005385 0.4418876
v 1.310939 0.003005385 0.5391556
v 1.212976 0.003005385 0.6568526
v 1.078432 0.003005385 0.6960899
v 1.079954 0.003005385 0.3833704
v 1.07298 0.1329763 0.4860438
v 0.9705029 0.003005385 0.4886793
v 0.2198364 0.09721279 0.2267411
v 0.3683573 0.1159798 0.2888904
v 0.2627817 0.1263629 0.4090087
v 0.2067181 0.1191311 0.1787682
v 0.2457824 0.1267587 0.1534171
v 0.178166 0.1229537 0.2954158
v 0.4117982 0.003005385 0.1700999
v 0.2812849 0.003005385 0.08936822
v 0.5874379 0.003005385 0.304937
v 0.5804377 0.003005385 0.585132
v 0.3577719 0.003005385 0.6080323
v 0.1933479 0.07463193 0.3686781
v 0.2627817 0.1263629 0.4090087
v 0.217714 0.04811132 0.4257765
v 0.178166 0.1229537 0.2954158
v 0.1994599 0.003005385 0.4725124
v 0.3577719 0.003005385 0.6080323
v 0.136481 0.003005385 0.4070212
v 0.4420007 0.1981537 -0.560885
v 0.2167349 0.003005385 -0.5082864
v 0.3589327 0.003005385 -0.6699255
v 0.3871508 0.3330436 -0.3160489
v 0.2506633 0.3004344 -0.2384099
v 0.169744 0.09618974 -0.3140613
v 0.2797724 0.2278755 -0.1248696
v 0.2090456 0.08681786 -0.1368768
v 0.1574701 0.1056817 -0.02259779
v 0.2746365 0.1968932 0.03076601
v 0.2468377 0.04811132 0.1643162
v 0.1238993 0.003005385 -0.02530348
v 0.326432 0.3031811 -0.2082572
v 0.4854798 0.3930764 -0.09607124
v 0.6235297 0.2427408 0.1964213
v 0.6421179 0.07244515 0.3502101
v 0.9372457 0.3343217 -0.5870832
v 0.7361143 0.3588079 -0.1170368
v 1.152387 0.3016977 -0.1335672
v 1.234288 0.2038554 -0.445627
v 0.1764863 0.003005385 -0.3267221
v 0.1937582 0.003005385 -0.188423
v 1.204478 0.003005385 -0.6677357
v 0.7726663 0.003005385 -0.8312628
v 0.761181 0.003005385 0.5350546
v 0.5327139 0.003005385 0.4265709
v 1.491931 0.003005385 -0.3301227
v 1.536914 0.003005385 0.1075051
v 1.159774 0.1861026 0.2778828
v 1.3323 0.003005385 0.3818637
v 1.019147 0.1103514 0.4656087
v 0.9687176 0.003005385 0.5541908
v 0.2959979 0.003005385 0.2682648
v -1.348776 0.1141565 -0.2165238
v -1.167523 0.1118494 -0.422756
v -1.060376 0.1134177 -0.2534012
v -1.398306 0.1080385 -0.3401306
v -1.536913 0.003005385 -0.2399724
v -1.505573 0.003005385 -0.39693
v -1.383643 0.003005385 -0.4486521
v -1.496579 0.003005385 -0.1149614
v -1.305441 0.003005385 -0.09197605
v -1.254469 0.003005385 -0.4660414
v -1.143623 0.003005385 -0.5275722
v -1.044077 0.003005385 -0.138577
v -0.9279455 0.003005385 -0.330709
v -1.143623 0.003005385 -0.5275722
v -1.060376 0.1134177 -0.2534012
v -1.167523 0.1118494 -0.422756
v -0.9279455 0.003005385 -0.330709
vt 0.9368455 0.7598845
vt 0.9572697 0.7605169
vt 0.9577296 0.7598845
vt 0.9381535 0.7605745
vt 0.9578015 0.7665393
vt 0.9376935 0.7657487
vt 0.9368455 0.7663668
vt 0.9376935 0.7657487
vt 0.9578015 0.7665393
vt 0.9571978 0.765835
vt 0.9577439 0.7622561
vt 0.9571978 0.765835
vt 0.9578015 0.7665393
vt 0.9572409 0.7622417
vt 0.9571978 0.765835
vt 0.9379954 0.7622274
vt 0.9376935 0.7657487
vt 0.9572409 0.7622417
vt 0.9376935 0.7657487
vt 0.9368455 0.7622705
vt 0.9368455 0.7663668
vt 0.9379954 0.7622274
vt 0.9368455 0.7598845
vt 0.9572697 0.7605169
vt 0.9577296 0.7598845
vt 0.9368455 0.7598845
vt 0.9381535 0.7605745
vt 0.9376935 0.7657487
vt 0.9368455 0.7598845
vt 0.9368455 0.7663668
vt 0.9381535 0.7605745
vt 0.9578015 0.7665393
vt 0.9376935 0.7657487
vt 0.9368455 0.7663668
vt 0.9571978 0.765835
vt 0.9577296 0.7598845
vt 0.9571978 0.765835
vt 0.9578015 0.7665393
vt 0.9572697 0.7605169
vt 0.9571978 0.765835
vt 0.9381535 0.7605745
vt 0.9376935 0.7657487
vt 0.9572697 0.7605169
vt 0.9363425 0.768609
vt 0.9367449 0.7707649
vt 0.9367737 0.769342
vt 0.9363425 0.7712967
vt 0.9401945 0.7692989
vt 0.9363425 0.768609
vt 0.9367737 0.769342
vt 0.9407837 0.7686234
vt 0.9367737 0.769342
vt 0.9402376 0.7707937
vt 0.9401945 0.7692989
vt 0.9367449 0.7707649
vt 0.9408556 0.7712249
vt 0.9401945 0.7692989
vt 0.9402376 0.7707937
vt 0.9407837 0.7686234
vt 0.9363425 0.7712967
vt 0.9402376 0.7707937
vt 0.9367449 0.7707649
vt 0.9408556 0.7712249
vt 0.9367737 0.769342
vt 0.9402376 0.7707937
vt 0.9367449 0.7707649
vt 0.9401945 0.7692989
vt 0.9755378 0.8138554
vt 0.979476 0.8156089
vt 0.9788148 0.8115844
vt 0.9748048 0.8188859
vt 0.980166 0.819504
vt 0.9828249 0.8117425
vt 0.9861882 0.8166006
vt 0.9831986 0.8178367
vt 0.980166 0.819504
vt 0.9748048 0.8188859
vt 0.9793466 0.823011
vt 0.9831986 0.8178367
vt 0.979476 0.8156089
vt 0.980166 0.819504
vt 0.9838742 0.8221774
vt 0.980166 0.819504
vt 0.9793466 0.823011
vt 0.9831986 0.8178367
vt 0.9861882 0.8166006
vt 0.9368455 0.7598845
vt 0.9572697 0.7605169
vt 0.9577296 0.7598845
vt 0.9381535 0.7605745
vt 0.9578015 0.7665393
vt 0.9376935 0.7657487
vt 0.9368455 0.7663668
vt 0.9578015 0.7665393
vt 0.9571978 0.765835
vt 0.9577439 0.7622561
vt 0.9571978 0.765835
vt 0.9578015 0.7665393
vt 0.9572409 0.7622417
vt 0.9571978 0.765835
vt 0.9379954 0.7622274
vt 0.9376935 0.7657487
vt 0.9572409 0.7622417
vt 0.9376935 0.7657487
vt 0.9368455 0.7622705
vt 0.9368455 0.7663668
vt 0.9379954 0.7622274
vt 0.9445639 0.8023713
vt 0.9385128 0.8010058
vt 0.944722 0.8077899
vt 0.9440321 0.7972401
vt 0.9403526 0.7933162
vt 0.9482865 0.8014945
vt 0.944722 0.8077899
vt 0.9524691 0.8042685
vt 0.9445639 0.8023713
vt 0.9479703 0.7946386
vt 0.9440321 0.7972401
vt 0.9403526 0.7933162
vt 0.9460874 0.7901686
vt 0.947266 0.7898955
vt 0.9517936 0.7925976
vt 0.9537482 0.8013077
vt 0.9367737 0.7717711
vt 0.9363425 0.7736539
vt 0.9367306 0.7732802
vt 0.9363425 0.7712967
vt 0.9403526 0.7717711
vt 0.9408844 0.7736252
vt 0.9408556 0.7712249
vt 0.9403669 0.7732227
vt 0.9363425 0.7736539
vt 0.9403669 0.7732227
vt 0.9367306 0.7732658
vt 0.9408844 0.7736252
vt 0.9403669 0.7732227
vt 0.9367737 0.7717711
vt 0.9367306 0.7732658
vt 0.9403526 0.7717711
vt 0.9363425 0.7712967
vt 0.9403526 0.7717711
vt 0.9408556 0.7712249
vt 0.9367737 0.7717711
vt 0.9367737 0.7717711
vt 0.9403669 0.7732227
vt 0.9367306 0.7732802
vt 0.9403526 0.7717711
vt 0.9878268 0.7832839
vt 0.9814451 0.7912465
vt 0.9952145 0.7961765
vt 0.9849665 0.8017245
vt 0.9897815 0.8052171
vt 0.9953582 0.8038948
vt 0.9789011 0.8135104
vt 0.9738562 0.8098165
vt 0.9731662 0.8033487
vt 0.9748623 0.7905279
vt 0.969343 0.8117425
vt 0.9673883 0.8085373
vt 0.9625589 0.800934
vt 0.9654479 0.7929138
vt 0.9553868 0.7889756
vt 0.9582183 0.7791157
vt 0.9581608 0.8110957
vt 0.9717146 0.8148758
vt 0.9681069 0.8162269
vt 0.9632488 0.8165144
vt 0.9607911 0.8135535
vt 0.9717721 0.82143
vt 0.9507443 0.8010921
vt 0.9509455 0.8081205
vt 0.9594831 0.8157526
vt 0.9457856 0.7865322
vt 0.9623721 0.822278
vt 0.9399501 0.7974413
vt 0.94064 0.8071144
vt 0.9482434 0.8161407
vt 0.9805683 0.8179804
vt 0.9887897 0.8125474
vt 0.969343 0.8117425
vt 0.9581608 0.8110957
vt 0.9607911 0.8135535
vt 0.9755522 0.7776496
vt 0.9367737 0.7717711
vt 0.9363425 0.7736539
vt 0.9367306 0.7732802
vt 0.9363425 0.7712967
vt 0.9403526 0.7717711
vt 0.9408844 0.7736252
vt 0.9408556 0.7712249
vt 0.9403669 0.7732227
vt 0.9363425 0.7736539
vt 0.9403669 0.7732227
vt 0.9367306 0.7732658
vt 0.9408844 0.7736252
vt 0.9403669 0.7732227
vt 0.9367737 0.7717711
vt 0.9367306 0.7732658
vt 0.9403526 0.7717711
vt 0.9363425 0.7712967
vt 0.9403526 0.7717711
vt 0.9408556 0.7712249
vt 0.9367737 0.7717711
vt 0.9367737 0.7717711
vt 0.9403669 0.7732227
vt 0.9367306 0.7732802
vt 0.9403526 0.7717711
vt 0.9663678 0.7967945
vt 0.957514 0.7862878
vt 0.9601011 0.7946386
vt 0.9670864 0.7852961
vt 0.9523541 0.8016095
vt 0.9506581 0.794423
vt 0.9582614 0.8087385
vt 0.9662528 0.8085805
vt 0.9735974 0.8012214
vt 0.9743592 0.7921664
vt 0.9506581 0.794423
vt 0.9601011 0.7946386
vt 0.957514 0.7862878
vt 0.9736549 0.7943511
vt 0.9767451 0.7995685
vt 0.9795335 0.7943224
vt 0.9724188 0.7945236
vt 0.9721889 0.7959753
vt 0.975509 0.7923389
vt 0.9727207 0.8044841
vt 0.9683082 0.7986487
vt 0.9797635 0.8095722
vt 0.9884017 0.804944
vt 0.9875106 0.7952566
vt 0.9780099 0.790916
vt 0.9795335 0.7943224
vt 0.9802521 0.7907866
vt 0.975509 0.7923389
vt 0.9820488 0.7890906
vt 0.9875106 0.7952566
vt 0.9791454 0.787064
vt 0.9589657 0.7847212
vt 0.956321 0.7779083
vt 0.9526559 0.7837582
vt 0.965721 0.7826371
vt 0.966569 0.7799349
vt 0.9627314 0.7765716
vt 0.9693718 0.778512
vt 0.9676182 0.7753212
vt 0.9712259 0.7746888
vt 0.9732525 0.7776065
vt 0.9771332 0.7746744
vt 0.9712834 0.7725041
vt 0.9678626 0.7807542
vt 0.9717002 0.7837294
vt 0.9805253 0.7837294
vt 0.9857571 0.7814729
vt 0.9637663 0.7954147
vt 0.9734681 0.7885013
vt 0.9763283 0.7971107
vt 0.9690987 0.8013939
vt 0.961639 0.7748038
vt 0.9660085 0.7735964
vt 0.961639 0.8044841
vt 0.9527853 0.7953285
vt 0.9918368 0.7829389
vt 0.9871225 0.778397
vt 0.974273 0.8078187
vt 0.9870219 0.8049153
vt 0.9868925 0.7945955
vt 0.9927567 0.7978294
vt 0.9909457 0.7902548
vt 0.9942371 0.7881132
vt 0.9805683 0.7744732
vt 0.9679201 0.8120731
vt 0.9651892 0.8193171
vt 0.9728357 0.8190153
vt 0.9629614 0.812878
vt 0.9626452 0.8072438
vt 0.9575859 0.8106358
vt 0.9576146 0.8147177
vt 0.9684806 0.8063383
vt 0.9742873 0.810492
vt 0.95944 0.8186991
vt 0.9617972 0.8227379
vt 0.9787574 0.8177361
vt 0.9743161 0.8238733
vt 0.9617972 0.8227379
vt 0.9728357 0.8190153
vt 0.9651892 0.8193171
vt 0.9743161 0.8238733
vn -0.2924679 -0.01453543 0.9561648
vn -0.2924679 -0.02221048 0.9560174
vn -0.2924679 -0.02221048 0.9560174
vn -0.2924679 -0.01453543 0.9561648
vn 0.2985134 0.03151506 -0.953885
vn 0.2908384 0.02384001 -0.9564751
vn 0.2831632 0.0161649 -0.9589355
vn 0.2908384 0.02384001 -0.9564751
vn 0.2985134 0.03151506 -0.953885
vn 0.3215387 0.04686528 -0.945736
vn 0.9585704 -0.07593608 0.2745477
vn 0.9585704 -0.08361113 0.2723085
vn 0.9585704 -0.07593608 0.2745477
vn 0.9585704 -0.08361113 0.2723085
vn 0.4903904 0.8604239 0.1385207
vn 0.4903904 0.8604239 0.1385207
vn 0.4903904 0.8604239 0.1385207
vn 0.4903904 0.8604239 0.1385207
vn -0.9678749 0.05454034 -0.2454454
vn -0.9601999 0.04686528 -0.275354
vn -0.9525248 0.04686528 -0.3008323
vn -0.9678749 0.06221539 -0.2436131
vn -0.9448498 0.008489847 0.3273939
vn -0.9448498 0.0008147359 0.327503
vn -0.9448498 0.0008147359 0.327503
vn -0.9448498 0.008489847 0.3273939
vn -0.9448498 0.008489847 0.3273939
vn -0.3922439 0.0161649 -0.9197192
vn -0.3692186 0.008489847 -0.9293038
vn -0.3385183 -0.006860316 -0.9409348
vn -0.4229442 0.03151506 -0.9056075
vn 0.9585704 0.03151506 -0.2831069
vn 0.9585704 0.03151506 -0.2831069
vn 0.9585704 0.03151506 -0.2831069
vn 0.9585704 0.03151506 -0.2831069
vn 0.352239 0.02384001 0.9356064
vn 0.3599141 0.02384001 0.9326808
vn 0.3445639 0.02384001 0.9384601
vn 0.3599141 0.0161649 0.9328454
vn -0.2464173 0.9601999 -0.1315091
vn -0.2464173 0.9601999 -0.1315091
vn -0.2464173 0.9601999 -0.1315091
vn -0.2464173 0.9601999 -0.1315091
vn -0.5457456 0.7529727 -0.3676873
vn -0.5457456 0.7452976 -0.3830056
vn -0.5534206 0.7606478 -0.3393236
vn -0.5457456 0.7452976 -0.3830056
vn -0.7529727 -0.1526869 0.6400928
vn -0.7452976 -0.09896129 0.6593468
vn -0.7452976 -0.08361113 0.6614686
vn -0.7606478 -0.1603619 0.629046
vn 0.04523575 0.691572 0.7208896
vn 0.04523575 0.691572 0.7208896
vn 0.04523575 0.691572 0.7208896
vn 0.04523575 0.691572 0.7208896
vn 0.536441 -0.3752642 0.7559152
vn 0.536441 -0.3599141 0.7633433
vn 0.536441 -0.3829393 0.7520562
vn 0.5517911 -0.352239 0.755946
vn 0.8050688 0.5303953 -0.2656031
vn 0.8357691 0.4613196 -0.2977822
vn 0.8050688 0.5457456 -0.232435
vn 0.8357691 0.4536446 -0.3093487
vn -0.03151506 -0.7129678 -0.7004882
vn -0.03151506 -0.7129678 -0.7004882
vn -0.03151506 -0.7129678 -0.7004882
vn -0.03151506 -0.7129678 -0.7004882
vn -0.4382944 0.691572 0.5741308
vn -0.06221539 0.8143733 0.5769969
vn 0.08361113 0.6224963 0.7781436
vn -0.6378465 0.6992472 0.3228083
vn -0.6378465 0.7069222 0.305635
vn 0.5210907 0.7606478 0.3871424
vn 0.6822675 0.6148213 0.3956083
vn 0.6822675 0.3692186 0.6310219
vn -0.8143733 0.2771177 -0.5099038
vn -0.8143733 0.2771177 -0.5099038
vn -0.8143733 0.2771177 -0.5099038
vn 0.08361113 0.9832252 0.1621031
vn 0.08361113 0.9832252 0.1621031
vn 0.08361113 0.9832252 0.1621031
vn 0.2294377 0.2847927 -0.9307263
vn 0.1066364 0.3385183 -0.9348979
vn -0.0161649 0.2694426 -0.9628808
vn 0.3675892 0.2924679 -0.8828027
vn 0.5210907 0.1773416 -0.8348739
vn 0.4059646 -0.09896129 0.908515
vn 0.4059646 -0.07593608 0.9107286
vn 0.4059646 -0.06826097 0.911336
vn 0.4059646 -0.1066364 0.9076461
vn -0.407594 0.123616 -0.9047576
vn -0.407594 0.123616 -0.9047576
vn -0.407594 0.123616 -0.9047576
vn -0.407594 0.123616 -0.9047576
vn -0.407594 0.123616 -0.9047576
vn 0.9278701 0.05454034 -0.3688936
vn 0.9278701 0.06221539 -0.3676769
vn 0.9278701 0.06221539 -0.3676769
vn 0.9125199 0.04686528 -0.4063385
vn -0.02384001 0.9909002 0.1324705
vn -0.02384001 0.9909002 0.1324705
vn -0.02384001 0.9909002 0.1324705
vn -0.02384001 0.9909002 0.1324705
vn -0.8987992 0.05454034 0.4349544
vn -0.8911242 0.08524066 0.4456812
vn -0.9141495 0.02384001 0.4046757
vn -0.875774 0.115941 0.4685911
vn 0.7743685 0.5073702 -0.3780595
vn 0.6208668 0.5380705 -0.5700917
vn 0.9278701 0.3308433 -0.172046
vn 0.4213147 0.5841209 -0.6937554
vn 0.3368888 0.5073702 -0.7931465
vn 0.006860316 0.8373986 0.5465497
vn 0.4289898 0.5764459 0.6954696
vn 0.0529108 0.6378465 0.7683438
vn 0.1987374 0.8911242 0.407923
vn -0.5610957 0.8143733 -0.1482153
vn -0.2924679 0.9064743 -0.3045765
vn -0.4152692 0.6071462 -0.67744
vn -0.3768937 0.6301715 -0.6788483
vn -0.6071462 0.6071462 -0.5125886
vn -0.7759979 0.5764459 0.2560027
vn -0.3845689 0.6685469 0.6365154
vn -0.7299475 -0.44434 0.5193636
vn -0.7145973 -0.4596901 0.5272909
vn -0.6992472 -0.4673652 0.5409465
vn -0.7376226 -0.4366649 0.5150114
vn 0.4059646 0.7606478 -0.5065646
vn 0.3982895 0.7606478 -0.512621
vn 0.4059646 0.7606478 -0.5065646
vn 0.3982895 0.7606478 -0.512621
vn -0.4306193 -0.3061885 -0.8490086
vn -0.4689947 -0.2754882 -0.8391366
vn -0.4152692 -0.3215387 -0.8509785
vn -0.4766698 -0.2678131 -0.8372945
vn -0.7299475 0.6685469 -0.1422031
vn -0.7299475 0.6685469 -0.1422031
vn -0.7299475 0.6685469 -0.1422031
vn -0.7299475 0.6685469 -0.1422031
vn 0.2678131 0.4689947 0.8416176
vn 0.2217626 0.499695 0.8373328
vn 0.2140875 0.499695 0.839328
vn 0.2754882 0.4689947 0.8391366
vn 0.7368719 -0.6760324 0
vn 0.7368719 -0.6760324 0
vn 0.7368719 -0.6760324 0
vn 0.7368719 -0.6760324 0
vn -0.5380705 0.5841209 0.6076865
vn -0.3461934 0.7683229 0.5383587
vn -0.1926917 0.5457456 0.8154947
vn 0.1373367 0.783673 0.6058013
vn 0.352239 0.5994712 0.7187225
vn 0.0529108 0.499695 0.8645839
vn 0.6669173 0.6224963 0.4095359
vn 0.5824914 0.783673 0.2157786
vn 0.1680371 0.9678749 0.1870339
vn -0.4459695 0.8834491 0.1436275
vn 0.5210907 0.8527488 0.03583133
vn 0.4673652 0.8834491 -0.03297616
vn 0.02988559 0.9755501 -0.2177357
vn -0.3385183 0.9371746 -0.08431551
vn -0.5227203 0.7606478 -0.3849394
vn -0.7145973 0.6762219 -0.179094
vn 0.3829393 0.783673 -0.4890952
vn 0.636217 0.6301715 0.4450976
vn 0.636217 0.7299475 0.2498091
vn 0.8127439 0.5764459 -0.08460221
vn 0.7129678 0.6071462 -0.3507854
vn 0.820419 0.499695 0.2778807
vn -0.03151506 0.8066983 -0.5901226
vn 0.3061885 0.783673 -0.5404676
vn 0.7436681 0.4843449 -0.4608337
vn -0.5150452 0.591796 -0.6200855
vn 0.9278701 0.3692186 -0.05229427
vn -0.1696666 0.691572 -0.7020978
vn 0.1910623 0.6685469 -0.7187074
vn 0.5748163 0.5610957 -0.5956155
vn 0.636217 0.6992472 0.3260082
vn 0.6285419 0.6148213 0.4763716
vn -0.4382944 0.8911242 0.1174552
vn -0.4382944 0.8911242 0.1174552
vn -0.4382944 0.8911242 0.1174552
vn -0.6762219 0.7222723 0.1450744
vn -0.5994712 0.4229442 -0.6795237
vn -0.5994712 0.399919 -0.6933247
vn -0.6071462 0.3845689 -0.6953275
vn -0.591796 0.4382944 -0.6765172
vn 0.44434 -0.06058592 0.8938072
vn 0.44434 -0.0529108 0.8942944
vn 0.44434 -0.06058592 0.8938072
vn 0.44434 -0.0529108 0.8942944
vn 0.7590183 0.591796 -0.2714199
vn 0.728318 0.6301715 -0.2691409
vn 0.7590183 0.5764459 -0.3026572
vn 0.728318 0.6378465 -0.2504092
vn -0.307818 0.8297235 0.4656253
vn -0.307818 0.8297235 0.4656253
vn -0.307818 0.8297235 0.4656253
vn -0.307818 0.8297235 0.4656253
vn -0.8143733 -0.3982895 0.4220919
vn -0.8297235 -0.3599141 0.4266388
vn -0.8297235 -0.352239 0.4329971
vn -0.8066983 -0.4059646 0.429454
vn 0.3215387 -0.8357691 -0.4450875
vn 0.3215387 -0.8357691 -0.4450875
vn 0.3215387 -0.8357691 -0.4450875
vn 0.3215387 -0.8357691 -0.4450875
vn 0.1066364 0.9294996 0.3530712
vn -0.6378465 0.7529727 0.1618146
vn -0.06221539 0.9909002 -0.1193568
vn -0.5534206 0.7990232 0.235133
vn 0.260138 0.7683229 -0.5848147
vn 0.1603619 0.6148213 -0.772191
vn 0.3752642 0.8680989 -0.3249324
vn 0.6208668 0.7759979 0.1111376
vn 0.4827154 0.5457456 0.6849436
vn -0.1773416 0.6224963 0.7622653
vn -0.6071462 0.4689947 -0.6414183
vn -0.6071462 0.4689947 -0.6414183
vn -0.6071462 0.4689947 -0.6414183
vn -0.1389663 0.9678749 0.2095388
vn 0.3061885 0.9371746 -0.1671894
vn 0.2831632 0.9448498 0.1645522
vn -0.1696666 0.9371746 0.3048228
vn 0.2524629 0.9294996 -0.2688737
vn 0.2447879 0.9448498 -0.2175725
vn 0.4827154 0.6685469 -0.5657128
vn 0.4596901 0.5073702 -0.7288762
vn 0.4673652 0.8680989 -0.1672545
vn 0.2140875 0.9525248 0.2164785
vn 0.1373367 0.9294996 0.3422999
vn -0.683897 0.5227203 0.5089681
vn -0.6455216 0.5457456 0.534288
vn -0.7376226 0.5687708 0.3638856
vn -0.683897 0.5303953 0.5009648
vn -0.5610957 0.6378465 0.5275637
vn -0.5227203 0.5841209 0.6209398
vn -0.499695 0.7069222 0.5005656
vn -0.3845689 0.6608718 -0.6444806
vn -0.7145973 0.49202 -0.4972596
vn -0.4382944 0.591796 -0.6765172
vn -0.3308433 0.8834491 -0.3317535
vn -0.6531966 0.7452976 0.1336625
vn -0.9678749 0.215717 -0.1291677
vn -0.691572 0.6608718 0.2915075
vn -0.9064743 0.3768937 -0.1904088
vn -0.8680989 0.4843449 0.1086937
vn -0.4689947 0.7913482 0.3921888
vn -0.6531966 0.4843449 0.5820173
vn -0.9448498 0.3001429 0.131046
vn -0.3845689 0.875774 0.2917649
vn -0.2233921 0.9448498 0.2394888
vn -0.1926917 0.8066983 0.5586661
vn -0.4536446 0.6762219 0.5804572
vn 0.1680371 0.8373986 -0.5201223
vn 0.1066364 0.9755501 0.1921736
vn 0.3829393 0.9218245 0.05997517
vn 0.5978416 0.7222723 -0.3477184
vn -0.9985753 -0.04523575 -0.02830477
vn -0.9755501 0.1926917 -0.1056972
vn 0.5057406 0.5227203 -0.686287
vn -0.05454034 0.6071462 -0.7927161
vn -0.1543164 0.7913482 0.5915695
vn -0.2464173 0.8604239 0.4460373
vn 0.6669173 0.7145973 -0.2111209
vn 0.5824914 0.7990232 0.1492169
vn 0.3215387 0.8604239 0.3953273
vn 0.4903904 0.6992472 0.520164
vn 0.1219866 0.7299475 0.6725295
vn 0.02988559 0.6762219 0.7360916
vn -0.3692186 0.7759979 0.5113754
vn -0.1543164 0.9218245 0.3555644
vn -0.2003669 0.8680989 -0.4541557
vn 0.3215387 0.8297235 0.4562584
vn -0.3461934 0.8911242 -0.2933391
vn -0.5687708 0.8143733 0.1153075
vn -0.5227203 0.7452976 -0.413878
vn -0.1696666 0.691572 -0.7020978
vn -0.3615436 0.8373986 0.4099389
vn 0.03756064 0.7452976 0.6656731
vn -0.2771177 0.5994712 -0.7508929
vn -0.3845689 0.591796 -0.708438
vn 0.3599141 0.7069222 0.6088701
vn 0.7129678 0.5457456 0.4402712
vn 0.5517911 0.6992472 -0.4545107
vn 0.4903904 0.7452976 -0.4517175
vn 0.6976177 0.5687708 -0.4356941
vn 0.4136397 0.7913482 -0.4501892
g DSJ_GTA_daoJu_zaWu_10_0
f 3/3/3 2/2/2 1/1/1
f 4/4/4 1/1/1 2/2/2
f 7/7/7 6/6/6 5/5/5
f 10/10/10 9/9/9 8/8/8
f 13/13/13 12/12/12 11/11/11
f 14/14/14 11/11/11 12/12/12
f 17/17/17 16/16/16 15/15/15
f 18/18/18 15/15/15 16/16/16
f 21/21/21 20/20/20 19/19/19
f 22/22/22 19/19/19 20/20/20
f 25/25/25 24/24/24 23/23/23
f 27/27/27 26/26/26 24/24/24
f 30/30/30 29/29/29 28/28/28
f 31/31/31 28/28/28 29/29/29
f 34/34/34 33/33/33 32/32/32
f 35/35/35 32/32/32 33/33/33
f 38/38/38 37/37/37 36/36/36
f 39/39/39 36/36/36 37/37/37
f 42/42/42 41/41/41 40/40/40
f 43/43/43 40/40/40 41/41/41
f 46/46/46 45/45/45 44/44/44
f 47/47/47 44/44/44 45/45/45
f 50/50/50 49/49/49 48/48/48
f 51/51/51 48/48/48 49/49/49
f 54/54/54 53/53/53 52/52/52
f 55/55/55 52/52/52 53/53/53
f 58/58/58 57/57/57 56/56/56
f 59/59/59 56/56/56 57/57/57
f 62/62/62 61/61/61 60/60/60
f 63/63/63 60/60/60 61/61/61
f 66/66/66 65/65/65 64/64/64
f 67/67/67 64/64/64 65/65/65
f 70/70/70 69/69/69 68/68/68
f 71/71/71 68/68/68 69/69/69
f 69/69/69 72/72/72 71/71/71
f 73/73/73 69/69/69 70/70/70
f 73/73/73 74/74/74 69/69/69
f 75/75/75 69/69/69 74/74/74
f 78/78/78 77/77/77 76/76/76
f 81/81/81 80/80/80 79/79/79
f 84/84/84 83/83/83 82/82/82
f 85/85/85 82/82/82 83/83/83
f 82/82/82 85/85/85 86/86/86
f 89/89/89 88/88/88 87/87/87
f 90/90/90 87/87/87 88/88/88
f 93/93/93 92/92/92 91/91/91
f 95/95/95 94/94/94 92/92/92
f 98/98/98 97/97/97 96/96/96
f 99/99/99 96/96/96 97/97/97
f 102/102/102 101/101/101 100/100/100
f 103/103/103 100/100/100 101/101/101
f 106/106/106 105/105/105 104/104/104
f 107/107/107 104/104/104 105/105/105
f 110/110/110 109/109/109 108/108/108
f 111/111/111 108/108/108 109/109/109
f 111/111/111 109/109/109 112/112/112
f 115/115/115 114/114/114 113/113/113
f 116/116/116 113/113/113 114/114/114
f 113/113/113 116/116/116 117/117/117
f 118/118/118 117/117/117 116/116/116
f 118/118/118 119/119/119 117/117/117
f 120/120/120 117/117/117 119/119/119
f 120/120/120 121/121/121 117/117/117
f 122/122/122 117/117/117 121/121/121
f 113/113/113 117/117/117 123/123/123
f 122/122/122 123/123/123 117/117/117
f 113/113/113 123/123/123 115/115/115
f 126/126/126 125/125/125 124/124/124
f 127/127/127 124/124/124 125/125/125
f 130/130/130 129/129/129 128/128/128
f 131/131/131 128/128/128 129/129/129
f 134/134/134 133/133/133 132/132/132
f 135/135/135 132/132/132 133/133/133
f 138/138/138 137/137/137 136/136/136
f 139/139/139 136/136/136 137/137/137
f 142/142/142 141/141/141 140/140/140
f 143/143/143 140/140/140 141/141/141
f 146/146/146 145/145/145 144/144/144
f 147/147/147 144/144/144 145/145/145
f 150/150/150 149/149/149 148/148/148
f 150/150/150 151/151/151 149/149/149
f 151/151/151 150/150/150 152/152/152
f 153/153/153 152/152/152 150/150/150
f 152/152/152 154/154/154 151/151/151
f 155/155/155 151/151/151 154/154/154
f 151/151/151 156/156/156 149/149/149
f 155/155/155 156/156/156 151/151/151
f 157/157/157 149/149/149 156/156/156
f 155/155/155 158/158/158 156/156/156
f 159/159/159 156/156/156 158/158/158
f 156/156/156 159/159/159 160/160/160
f 156/156/156 160/160/160 161/161/161
f 156/156/156 161/161/161 157/157/157
f 161/161/161 162/162/162 157/157/157
f 161/161/161 160/160/160 162/162/162
f 163/163/163 157/157/157 162/162/162
f 164/164/164 160/160/160 159/159/159
f 159/159/159 158/158/158 164/164/164
f 158/158/158 155/155/155 165/165/165
f 154/154/154 165/165/165 155/155/155
f 158/158/158 165/165/165 166/166/166
f 166/166/166 167/167/167 158/158/158
f 168/168/168 158/158/158 167/167/167
f 169/169/169 166/166/166 165/165/165
f 165/165/165 154/154/154 169/169/169
f 160/160/160 164/164/164 170/170/170
f 170/170/170 162/162/162 160/160/160
f 171/171/171 170/170/170 164/164/164
f 164/164/164 168/168/168 172/172/172
f 167/167/167 172/172/172 168/168/168
f 162/162/162 173/173/173 163/163/163
f 169/169/169 174/174/174 166/166/166
f 167/167/167 166/166/166 174/174/174
f 167/167/167 174/174/174 172/172/172
f 173/173/173 162/162/162 175/175/175
f 170/170/170 175/175/175 162/162/162
f 171/171/171 176/176/176 170/170/170
f 175/175/175 170/170/170 176/176/176
f 171/171/171 177/177/177 176/176/176
f 172/172/172 177/177/177 164/164/164
f 171/171/171 164/164/164 177/177/177
f 177/177/177 172/172/172 174/174/174
f 178/178/178 169/169/169 154/154/154
f 178/178/178 154/154/154 179/179/179
f 152/152/152 179/179/179 154/154/154
f 179/179/179 152/152/152 153/153/153
f 182/182/182 181/181/181 180/180/180
f 157/157/157 163/163/163 183/183/183
f 157/157/157 183/183/183 149/149/149
f 148/148/148 149/149/149 183/183/183
f 186/186/186 185/185/185 184/184/184
f 187/187/187 184/184/184 185/185/185
f 190/190/190 189/189/189 188/188/188
f 191/191/191 188/188/188 189/189/189
f 194/194/194 193/193/193 192/192/192
f 195/195/195 192/192/192 193/193/193
f 198/198/198 197/197/197 196/196/196
f 199/199/199 196/196/196 197/197/197
f 202/202/202 201/201/201 200/200/200
f 203/203/203 200/200/200 201/201/201
f 206/206/206 205/205/205 204/204/204
f 207/207/207 204/204/204 205/205/205
f 210/210/210 209/209/209 208/208/208
f 211/211/211 208/208/208 209/209/209
f 210/210/210 208/208/208 212/212/212
f 212/212/212 213/213/213 210/210/210
f 214/214/214 212/212/212 208/208/208
f 214/214/214 208/208/208 215/215/215
f 216/216/216 215/215/215 208/208/208
f 211/211/211 217/217/217 208/208/208
f 216/216/216 208/208/208 217/217/217
f 220/220/220 219/219/219 218/218/218
f 223/223/223 222/222/222 221/221/221
f 221/221/221 222/222/222 224/224/224
f 225/225/225 224/224/224 222/222/222
f 226/226/226 223/223/223 221/221/221
f 222/222/222 227/227/227 225/225/225
f 228/228/228 225/225/225 227/227/227
f 227/227/227 222/222/222 229/229/229
f 230/230/230 229/229/229 222/222/222
f 223/223/223 231/231/231 222/222/222
f 230/230/230 222/222/222 231/231/231
f 234/234/234 233/233/233 232/232/232
f 235/235/235 232/232/232 233/233/233
f 234/234/234 236/236/236 233/233/233
f 237/237/237 233/233/233 236/236/236
f 234/234/234 238/238/238 236/236/236
f 241/241/241 240/240/240 239/239/239
f 242/242/242 239/239/239 240/240/240
f 242/242/242 240/240/240 243/243/243
f 244/244/244 243/243/243 240/240/240
f 243/243/243 244/244/244 245/245/245
f 246/246/246 245/245/245 244/244/244
f 246/246/246 247/247/247 245/245/245
f 248/248/248 245/245/245 247/247/247
f 248/248/248 247/247/247 249/249/249
f 250/250/250 249/249/249 247/247/247
f 243/243/243 245/245/245 251/251/251
f 251/251/251 242/242/242 243/243/243
f 252/252/252 251/251/251 245/245/245
f 251/251/251 252/252/252 242/242/242
f 248/248/248 253/253/253 245/245/245
f 252/252/252 245/245/245 253/253/253
f 253/253/253 248/248/248 254/254/254
f 249/249/249 254/254/254 248/248/248
f 239/239/239 242/242/242 255/255/255
f 239/239/239 255/255/255 241/241/241
f 256/256/256 255/255/255 242/242/242
f 256/256/256 252/252/252 253/253/253
f 256/256/256 242/242/242 252/252/252
f 256/256/256 257/257/257 255/255/255
f 256/256/256 253/253/253 257/257/257
f 258/258/258 255/255/255 257/257/257
f 244/244/244 259/259/259 246/246/246
f 240/240/240 259/259/259 244/244/244
f 250/250/250 247/247/247 260/260/260
f 260/260/260 246/246/246 259/259/259
f 246/246/246 260/260/260 247/247/247
f 258/258/258 261/261/261 255/255/255
f 262/262/262 255/255/255 261/261/261
f 253/253/253 254/254/254 263/263/263
f 264/264/264 263/263/263 254/254/254
f 261/261/261 258/258/258 265/265/265
f 258/258/258 257/257/257 265/265/265
f 266/266/266 265/265/265 257/257/257
f 257/257/257 267/267/267 266/266/266
f 268/268/268 266/266/266 267/267/267
f 267/267/267 269/269/269 268/268/268
f 270/270/270 268/268/268 269/269/269
f 263/263/263 270/270/270 253/253/253
f 269/269/269 253/253/253 270/270/270
f 267/267/267 253/253/253 269/269/269
f 267/267/267 257/257/257 253/253/253
f 264/264/264 254/254/254 271/271/271
f 249/249/249 271/271/271 254/254/254
f 271/271/271 249/249/249 250/250/250
f 262/262/262 241/241/241 255/255/255
f 274/274/274 273/273/273 272/272/272
f 275/275/275 272/272/272 273/273/273
f 275/275/275 276/276/276 272/272/272
f 276/276/276 275/275/275 277/277/277
f 278/278/278 277/277/277 275/275/275
f 279/279/279 272/272/272 276/276/276
f 272/272/272 279/279/279 280/280/280
f 273/273/273 281/281/281 275/275/275
f 278/278/278 275/275/275 281/281/281
f 273/273/273 282/282/282 281/281/281
f 280/280/280 283/283/283 272/272/272
f 274/274/274 272/272/272 283/283/283
f 274/274/274 283/283/283 284/284/284
f 287/287/287 286/286/286 285/285/285
f 288/288/288 285/285/285 286/286/286
