g DSJ_GTA_daoJu_weiQiang_02
v -1.295362 0.007751226 -0.1301986
v 1.582442 2.261573 -0.1301986
v -1.295384 2.261573 -0.1301986
v 1.582451 0.007751226 -0.1302029
v -1.295384 2.261573 0.1557821
v 1.582451 0.007751226 0.1557778
v -1.295362 0.007751226 0.1557821
v 1.582442 2.261573 0.1557778
v -1.295384 2.326547 -0.1301986
v 1.582442 2.326547 0.2280194
v -1.295384 2.326547 0.2280194
v 1.582442 2.326547 -0.1301986
v 1.582442 2.326547 0.2280194
v -1.295384 2.261573 0.2280194
v -1.295384 2.326547 0.2280194
v 1.582442 2.261573 0.2280194
v -1.295384 2.326547 -0.1301986
v 1.582442 2.261573 -0.1301986
v 1.582442 2.326547 -0.1301986
v -1.295384 2.261573 -0.1301986
v -1.295384 2.326547 0.2280194
v -1.295384 2.261573 -0.1301986
v -1.295384 2.326547 -0.1301986
v -1.295384 2.261573 0.1557821
v 1.582442 2.261573 0.2280194
v -1.295384 2.261573 0.1557821
v -1.295384 2.261573 0.2280194
v 1.582442 2.261573 0.1557778
v -1.295384 2.326547 0.2280194
v -1.295384 2.261573 0.2280194
v -1.295384 2.261573 0.1557821
v -1.554537 2.455773 0.1909128
v -1.554529 0.007751226 -0.1909231
v -1.554537 2.455773 -0.1909231
v -1.554529 0.007751226 0.1909128
v -1.58245 2.51244 0.2336044
v -1.58245 2.51244 -0.2336147
v -1.30716 0.007751226 0.1909128
v -1.307183 2.455773 -0.1909231
v -1.30716 0.007751226 -0.1909231
v -1.307183 2.455773 0.1909128
v -1.279512 2.51244 -0.2336147
v -1.279512 2.51244 0.2336044
v -1.279512 2.51244 0.2336044
v -1.58245 2.51244 -0.2336147
v -1.279512 2.51244 -0.2336147
v -1.58245 2.51244 0.2336044
v -1.307183 2.455773 -0.1909231
v -1.554529 0.007751226 -0.1909231
v -1.30716 0.007751226 -0.1909231
v -1.554537 2.455773 -0.1909231
v -1.58245 2.51244 -0.2336147
v -1.279512 2.51244 -0.2336147
v -1.30716 0.007751226 0.1909128
v -1.554537 2.455773 0.1909128
v -1.307183 2.455773 0.1909128
v -1.554529 0.007751226 0.1909128
v -1.279512 2.51244 0.2336044
v -1.58245 2.51244 0.2336044
v -0.4621141 2.326547 -0.03562534
v 0.004200578 3.021613 0.1600456
v -0.4621141 2.326547 0.1600456
v 0.004200578 3.021613 -0.03562534
v -0.4621141 2.326547 0.1600456
v 1.582442 3.021618 0.1600456
v 1.582442 2.326547 0.1600456
v 0.004200578 3.021613 0.1600456
v 0.004200578 3.021613 -0.03562534
v 1.582442 3.021618 0.1600456
v 0.004200578 3.021613 0.1600456
v 1.582442 3.021618 -0.03562534
v -0.4621141 2.326547 -0.03562534
v 1.582442 3.021618 -0.03562534
v 0.004200578 3.021613 -0.03562534
v 1.582442 2.326547 -0.03562534
vt 0.03537554 0.4803808
vt 0.1629704 0.3541036
vt 0.1629704 0.4803808
vt 0.03537554 0.3541036
vt 0.192307 0.4493774
vt 0.03620891 0.3159941
vt 0.03620891 0.4493774
vt 0.192307 0.3159941
vt 0.07392427 0.2672648
vt 0.1495915 0.7471474
vt 0.1495915 0.2672648
vt 0.07392427 0.7471474
vt 0.1495915 0.7471474
vt 0.1633195 0.2672648
vt 0.1495915 0.2672648
vt 0.1633195 0.7471474
vt 0.07392427 0.2672648
vt 0.06019628 0.7471474
vt 0.07392427 0.7471474
vt 0.06019628 0.2672648
vt 0.1925661 0.3804446
vt 0.1601775 0.5172402
vt 0.1925661 0.5172402
vt 0.1601775 0.4080245
vt 0.1633195 0.7471474
vt 0.178579 0.2672648
vt 0.1633195 0.2672648
vt 0.178579 0.7471474
vt 0.2001564 0.3804446
vt 0.1677678 0.3804446
vt 0.1677678 0.4080245
vt 0.1888497 0.6950734
vt 0.009113309 0.7070108
vt 0.1883542 0.7074162
vt 0.009248449 0.6945779
vt 0.1933769 0.6948482
vt 0.1924985 0.7087451
vt 0.009316019 0.686537
vt 0.1892101 0.6748362
vt 0.009620084 0.6740929
vt 0.1890074 0.6871677
vt 0.1938949 0.6746222
vt 0.1933769 0.6874605
vt 0.1306944 0.5686948
vt 0.06736998 0.643585
vt 0.1306944 0.643585
vt 0.06736998 0.5686948
vt 0.1892101 0.6748362
vt 0.009822795 0.666052
vt 0.009620084 0.6740929
vt 0.188861 0.6669192
vt 0.1932755 0.6660746
vt 0.1938949 0.6746222
vt 0.009316019 0.686537
vt 0.1888497 0.6950734
vt 0.1890074 0.6871677
vt 0.009248449 0.6945779
vt 0.1933769 0.6874605
vt 0.1933769 0.6948482
vt 0.1243991 0.6961545
vt 0.07008404 0.5615774
vt 0.07095119 0.6962109
vt 0.1235432 0.5615099
vt 0.04437362 0.67612
vt 0.1616753 0.3927199
vt 0.04437362 0.3927199
vt 0.1616753 0.6114892
vt 0.1235432 0.5615099
vt 0.06893534 0.3786202
vt 0.07008404 0.5615774
vt 0.1223833 0.3785527
vt 0.04437362 0.67612
vt 0.1616753 0.3927199
vt 0.1616753 0.6114892
vt 0.04437362 0.3927199
vn 0.01176465 -0.01176465 -0.9998616
vn 0.01176465 -0.01176465 -0.9998616
vn 0.01176465 -0.01176465 -0.9998616
vn 0.01176465 -0.01176465 -0.9998616
vn 0.01176465 -0.01176465 0.9998616
vn 0.01176465 -0.01176465 0.9998616
vn 0.01176465 -0.01176465 0.9998616
vn 0.01176465 -0.01176465 0.9998616
vn 0.003921568 0.9999923 -0.000345267
vn 0.003921568 0.9999923 -0.000345267
vn 0.003921568 0.9999923 -0.000345267
vn 0.003921568 0.9999923 -0.000345267
vn 0.01176465 -0.01176465 0.9998616
vn 0.01176465 -0.01176465 0.9998616
vn 0.01176465 -0.01176465 0.9998616
vn 0.01176465 -0.01176465 0.9998616
vn 0.01176465 -0.01176465 -0.9998616
vn 0.01176465 -0.01176465 -0.9998616
vn 0.01176465 -0.01176465 -0.9998616
vn 0.01176465 -0.01176465 -0.9998616
vn -0.9999923 -0.003921568 -0.0003442513
vn -0.9999923 -0.003921568 -0.0003442513
vn -0.9999923 -0.003921568 -0.0003442513
vn -0.9999923 -0.003921568 -0.0003442513
vn 0.003921568 -0.9999924 0
vn 0.003921568 -0.9999924 0
vn 0.003921568 -0.9999924 0
vn 0.003921568 -0.9999924 0
vn -0.9999923 -0.003921568 -0.0003442513
vn -0.9999923 -0.003921568 -0.0003442513
vn -0.9999923 -0.003921568 -0.0003442513
vn -0.9607769 -0.2705862 -0.06075203
vn -0.9999923 -0.003921568 -0.0003442513
vn -0.9607769 -0.2705862 -0.06075203
vn -0.9999923 -0.003921568 -0.0003442513
vn -0.8901892 -0.450977 -0.06467608
vn -0.8901892 -0.450977 -0.06467608
vn 0.9999924 -0.003921568 0
vn 0.9651236 -0.2617947 0
vn 0.9999924 -0.003921568 0
vn 0.9651236 -0.2617947 0
vn 0.8982821 -0.4394194 0
vn 0.8982821 -0.4394194 0
vn 0.003921568 0.9999923 -0.000345267
vn 0.003921568 0.9999923 -0.000345267
vn 0.003921568 0.9999923 -0.000345267
vn 0.003921568 0.9999923 -0.000345267
vn 0.01176465 -0.3647031 -0.9310495
vn 0.01176465 -0.01176465 -0.9998616
vn 0.01176465 -0.01176465 -0.9998616
vn 0.01176465 -0.3647031 -0.9310495
vn 0.01176465 -0.6156816 -0.7879072
vn 0.01176465 -0.6156816 -0.7879072
vn 0.01176465 -0.01176465 0.9998616
vn 0.01176465 -0.3647031 0.9310495
vn 0.01176465 -0.3647031 0.9310495
vn 0.01176465 -0.01176465 0.9998616
vn 0.01176465 -0.6156816 0.7879072
vn 0.01176465 -0.6156816 0.7879072
vn -0.8274446 0.5529369 0.09796064
vn -0.8274446 0.5529369 0.09796064
vn -0.8274446 0.5529369 0.09796064
vn -0.8274446 0.5529369 0.09796064
vn 0.01176465 -0.01176465 0.9998616
vn 0.01176465 -0.01176465 0.9998616
vn 0.01176465 -0.01176465 0.9998616
vn 0.01176465 -0.01176465 0.9998616
vn 0.003921568 0.9999923 -0.000345267
vn 0.003921568 0.9999923 -0.000345267
vn 0.003921568 0.9999923 -0.000345267
vn 0.003921568 0.9999923 -0.000345267
vn 0.01176465 -0.01176465 -0.9998616
vn 0.01176465 -0.01176465 -0.9998616
vn 0.01176465 -0.01176465 -0.9998616
vn 0.01176465 -0.01176465 -0.9998616
g DSJ_GTA_daoJu_weiQiang_02_0
f 3/3/3 2/2/2 1/1/1
f 2/2/2 4/4/4 1/1/1
f 7/7/7 6/6/6 5/5/5
f 6/6/6 8/8/8 5/5/5
f 11/11/11 10/10/10 9/9/9
f 10/10/10 12/12/12 9/9/9
f 15/15/15 14/14/14 13/13/13
f 14/14/14 16/16/16 13/13/13
f 19/19/19 18/18/18 17/17/17
f 18/18/18 20/20/20 17/17/17
f 23/23/23 22/22/22 21/21/21
f 22/22/22 24/24/24 21/21/21
f 27/27/27 26/26/26 25/25/25
f 26/26/26 28/28/28 25/25/25
f 31/31/31 30/30/30 29/29/29
f 34/34/34 33/33/33 32/32/32
f 33/33/33 35/35/35 32/32/32
f 34/34/34 32/32/32 36/36/36
f 37/37/37 34/34/34 36/36/36
f 40/40/40 39/39/39 38/38/38
f 39/39/39 41/41/41 38/38/38
f 41/41/41 39/39/39 42/42/42
f 43/43/43 41/41/41 42/42/42
f 46/46/46 45/45/45 44/44/44
f 45/45/45 47/47/47 44/44/44
f 50/50/50 49/49/49 48/48/48
f 49/49/49 51/51/51 48/48/48
f 48/48/48 51/51/51 52/52/52
f 53/53/53 48/48/48 52/52/52
f 56/56/56 55/55/55 54/54/54
f 55/55/55 57/57/57 54/54/54
f 55/55/55 56/56/56 58/58/58
f 59/59/59 55/55/55 58/58/58
f 62/62/62 61/61/61 60/60/60
f 61/61/61 63/63/63 60/60/60
f 66/66/66 65/65/65 64/64/64
f 65/65/65 67/67/67 64/64/64
f 70/70/70 69/69/69 68/68/68
f 69/69/69 71/71/71 68/68/68
f 74/74/74 73/73/73 72/72/72
f 73/73/73 75/75/75 72/72/72
