g DSJ_GTA_diLou_28_uvDongHua
v -2.055233 -1.485466 3.479654
v -2.095932 1.119186 3.438955
v 6.328493 -1.444769 3.438955
v 6.328493 1.159883 3.438955
v -11.13082 1.03779 3.479654
v -11.13082 -1.526165 3.479654
v -14.71222 1.03779 3.479654
v -14.67152 -1.566862 3.479654
v -2.095932 1.119186 3.438955
v -2.055233 -1.485466 3.479654
v -6.57268 1.078489 3.438955
v -6.57268 -1.485466 3.479654
v 17.23548 -1.363373 3.438955
v 17.23548 1.200583 3.438955
v 20.81688 -1.322676 3.438955
v 20.81688 1.24128 3.438955
v 9.950588 1.159883 3.438955
v 9.991286 -1.404072 3.438955
v 6.328493 1.159883 3.438955
v 6.328493 -1.444769 3.438955
v -18.13083 0.9970932 0.6308136
v -18.13083 -1.566862 0.6715126
v -18.13083 0.9970932 -6.654075
v -18.13083 -1.607559 -6.654075
v -19.31106 -5.026167 1.444769
v -17.15408 -4.985469 0.1424408
v -20.77618 -2.543606 0.305233
v -17.15408 -2.543606 -1.77035
v -19.31106 -5.026167 3.886631
v -19.31106 -5.026167 1.444769
v -20.77618 -2.543606 4.537794
v -20.77618 -2.543606 0.305233
v -17.15408 -4.985469 5.107561
v -19.31106 -5.026167 3.886631
v -17.11338 -2.502909 6.57268
v -20.77618 -2.543606 4.537794
v -17.15408 -4.985469 5.107561
v -17.11338 -2.502909 6.57268
v -15.0378 -4.985469 3.886631
v -13.45059 -2.502909 4.497095
v -15.0378 -4.985469 2.625002
v -15.0378 -4.985469 3.886631
v -13.49129 -2.502909 2.421513
v -13.45059 -2.502909 4.497095
v -17.23548 1.363373 -0.1831398
v -19.67734 1.363373 1.200583
v -17.23548 0.0203495 -0.1831398
v -19.67734 -0.0203495 1.200583
v -17.23548 1.40407 5.392445
v -17.23548 0.0203495 5.392445
v -19.67734 0.0203495 4.008724
v -19.67734 1.363373 4.008724
v -19.67734 -0.0203495 1.200583
v -19.67734 1.363373 1.200583
v -14.79361 1.40407 2.584305
v -14.79361 0.0203495 2.584305
v -14.79361 0.0203495 4.008724
v -14.79361 1.40407 4.008724
v -17.23548 0.0203495 5.392445
v -17.23548 1.40407 5.392445
v -17.15408 4.904074 -1.24128
v -20.3285 4.904074 0.5901165
v -17.15408 3.805235 -1.77035
v -20.81688 3.805235 0.264534
v -20.3285 4.904074 0.5901165
v -20.3285 4.904074 4.293608
v -20.81688 3.805235 0.264534
v -20.77618 3.805235 4.497095
v -20.3285 4.904074 4.293608
v -17.15408 4.904074 6.04361
v -20.77618 3.805235 4.497095
v -17.15408 3.886631 6.57268
v -17.15408 4.904074 6.04361
v -13.97966 4.944771 4.252911
v -17.15408 3.886631 6.57268
v -13.49129 3.886631 4.497095
v -13.97966 4.944771 4.252911
v -13.97966 4.944771 2.462212
v -13.49129 3.886631 4.497095
v -13.49129 3.886631 2.421513
vt 0.1336292 0.9879881
vt 0.2151816 0.9879881
vt 0.1336292 0.001591883
vt 0.2151816 0.001591883
vt 0.2151816 0.4792562
vt 0.1336292 0.4792562
vt 0.2151816 0.9879881
vt 0.1336292 0.9879881
vt 0.2151816 0.001591883
vt 0.1336292 0.001591883
vt 0.2151816 0.4792562
vt 0.1336292 0.4792562
vt 0.1336292 0.9879881
vt 0.2151816 0.9879881
vt 0.1336292 0.4792562
vt 0.2151816 0.4792562
vt 0.2151816 0.4792562
vt 0.1336292 0.4792562
vt 0.2151816 0.9879881
vt 0.1336292 0.9879881
vt 0.2151816 0.1957643
vt 0.1336292 0.1957643
vt 0.2151816 0.9802212
vt 0.1336292 0.9802212
vt 0.3472189 0.001591883
vt 0.3472189 0.4637224
vt 0.3744031 0.001591883
vt 0.3744031 0.4637224
vt 0.3472189 0.001591883
vt 0.3472189 0.4637224
vt 0.3744031 0.001591883
vt 0.3744031 0.4637224
vt 0.3472189 0.001591883
vt 0.3472189 0.4637224
vt 0.3744031 0.001591883
vt 0.3744031 0.4637224
vt 0.3472189 0.4637224
vt 0.3744031 0.4637224
vt 0.3472189 0.001591883
vt 0.3744031 0.001591883
vt 0.3472189 0.001591883
vt 0.3472189 0.2501327
vt 0.3744031 0.001591883
vt 0.3744031 0.2501327
vt 0.4831396 0.8054659
vt 0.4831396 0.3161513
vt 0.417121 0.8054659
vt 0.417121 0.3161513
vt 0.4831396 0.001591883
vt 0.417121 0.001591883
vt 0.417121 0.4870231
vt 0.4831396 0.4870231
vt 0.417121 0.9763377
vt 0.4831396 0.9763377
vt 0.4831396 0.1918809
vt 0.417121 0.1918809
vt 0.417121 0.4870231
vt 0.4831396 0.4870231
vt 0.417121 0.9802212
vt 0.4831396 0.9802212
vt 0.4132375 0.9879881
vt 0.4132375 0.001591883
vt 0.3782865 0.9879881
vt 0.3782865 0.001591883
vt 0.4132375 0.9879881
vt 0.4132375 0.001591883
vt 0.3782865 0.9879881
vt 0.3782865 0.001591883
vt 0.4132375 0.9879881
vt 0.4132375 0.001591883
vt 0.3782865 0.9879881
vt 0.3782865 0.001591883
vt 0.4132375 0.9879881
vt 0.4132375 0.001591883
vt 0.3782865 0.9879881
vt 0.3782865 0.001591883
vt 0.4132375 0.9879881
vt 0.4132375 0.4986734
vt 0.3782865 0.9879881
vt 0.3782865 0.4986734
g DSJ_GTA_diLou_28_uvDongHua_0
f 3/3/3 2/2/2 1/1/1
f 4/4/4 2/2/2 3/3/3
f 7/7/7 6/6/6 5/5/5
f 8/8/8 6/6/6 7/7/7
f 11/11/11 10/10/10 9/9/9
f 12/12/12 10/10/10 11/11/11
f 15/15/15 14/14/14 13/13/13
f 16/16/16 14/14/14 15/15/15
f 19/19/19 18/18/18 17/17/17
f 20/20/20 18/18/18 19/19/19
f 23/23/23 22/22/22 21/21/21
f 24/24/24 22/22/22 23/23/23
f 27/27/27 26/26/26 25/25/25
f 28/28/28 26/26/26 27/27/27
f 31/31/31 30/30/30 29/29/29
f 32/32/32 30/30/30 31/31/31
f 35/35/35 34/34/34 33/33/33
f 36/36/36 34/34/34 35/35/35
f 39/39/39 38/38/38 37/37/37
f 40/40/40 38/38/38 39/39/39
f 43/43/43 42/42/42 41/41/41
f 44/44/44 42/42/42 43/43/43
f 47/47/47 46/46/46 45/45/45
f 48/48/48 46/46/46 47/47/47
f 51/51/51 50/50/50 49/49/49
f 52/52/52 51/51/51 49/49/49
f 53/53/53 51/51/51 52/52/52
f 54/54/54 53/53/53 52/52/52
f 57/57/57 56/56/56 55/55/55
f 58/58/58 57/57/57 55/55/55
f 59/59/59 57/57/57 58/58/58
f 60/60/60 59/59/59 58/58/58
f 63/63/63 62/62/62 61/61/61
f 64/64/64 62/62/62 63/63/63
f 67/67/67 66/66/66 65/65/65
f 68/68/68 66/66/66 67/67/67
f 71/71/71 70/70/70 69/69/69
f 72/72/72 70/70/70 71/71/71
f 75/75/75 74/74/74 73/73/73
f 76/76/76 74/74/74 75/75/75
f 79/79/79 78/78/78 77/77/77
f 80/80/80 78/78/78 79/79/79
