g DSJ_GTA_diLou_7
v 2.438401 4.551386 4.444399
v -4.22151 4.551386 3.071405
v -3.775733 4.560301 -1.181309
v 4.248257 4.551386 -3.713324
v 3.410196 4.551386 -4.46223
v 4.007537 -0.2451773 -3.535013
v 3.267547 -4.560301 -4.212595
v 4.007537 -4.560301 -3.535013
v 3.267547 -0.2451773 -4.212595
v -3.526098 -0.2451773 -1.118901
v -3.962959 -4.560301 2.875263
v -3.526098 -4.560301 -1.118901
v -3.962959 -0.2451773 2.875263
v -3.962959 -0.2451773 2.875263
v 2.313584 -4.560301 4.176932
v -3.962959 -4.560301 2.875263
v 2.313584 -0.2451773 4.176932
v 2.367077 1.056492 3.22297
v 3.659831 3.053574 -2.652374
v 3.659831 1.056492 -2.652374
v 2.367077 3.053574 3.22297
v 4.007537 -0.2451773 -3.535013
v 3.267547 4.078861 -4.212595
v 3.267547 -0.2451773 -4.212595
v 4.007537 4.078861 -3.535013
v 2.474063 1.065408 -3.695493
v -2.625628 3.053574 -1.377451
v -2.625628 1.065408 -1.377451
v 2.474063 3.053574 -3.695493
v -3.526098 -0.2451773 -1.118901
v -3.962959 4.078861 2.875263
v -3.962959 -0.2451773 2.875263
v -3.526098 4.078861 -1.118901
v -3.008996 1.056492 2.910925
v 1.430945 3.053574 3.838142
v 1.430945 1.056492 3.838142
v -3.008996 3.053574 2.910925
v 2.402739 3.053574 -3.838142
v -3.526098 4.078861 -1.118901
v -2.688037 3.053574 -1.502269
v 3.267547 4.078861 -4.212595
v 2.402739 1.065408 -3.838142
v 3.267547 -0.2451773 -4.212595
v -2.688037 1.065408 -1.502269
v -3.526098 -0.2451773 -1.118901
v 2.474063 3.053574 -3.695493
v -2.688037 3.053574 -1.502269
v -2.625628 3.053574 -1.377451
v 2.402739 3.053574 -3.838142
v 2.474063 1.065408 -3.695493
v 2.402739 3.053574 -3.838142
v 2.474063 3.053574 -3.695493
v 2.402739 1.065408 -3.838142
v -2.625628 1.065408 -1.377451
v 2.402739 1.065408 -3.838142
v 2.474063 1.065408 -3.695493
v -2.688037 1.065408 -1.502269
v -2.625628 3.053574 -1.377451
v -2.688037 1.065408 -1.502269
v -2.625628 1.065408 -1.377451
v -2.688037 3.053574 -1.502269
v 3.80248 3.053574 -2.616712
v 4.007537 -0.2451773 -3.535013
v 3.80248 1.056492 -2.616712
v 4.007537 4.078861 -3.535013
v 2.509726 3.053574 3.258632
v 2.313584 4.078861 4.176932
v 2.509726 1.056492 3.258632
v 2.313584 -0.2451773 4.176932
v 1.395283 3.053574 3.980791
v 2.313584 -0.2451773 4.176932
v 1.395283 1.056492 3.980791
v 2.313584 4.078861 4.176932
v -3.035743 3.053574 3.06249
v -3.962959 4.078861 2.875263
v -3.035743 1.056492 3.06249
v -3.962959 -0.2451773 2.875263
v 3.659831 3.053574 -2.652374
v 3.80248 1.056492 -2.616712
v 3.659831 1.056492 -2.652374
v 3.80248 3.053574 -2.616712
v 2.367077 3.053574 3.22297
v 3.80248 3.053574 -2.616712
v 3.659831 3.053574 -2.652374
v 2.509726 3.053574 3.258632
v 2.367077 1.056492 3.22297
v 2.509726 3.053574 3.258632
v 2.367077 3.053574 3.22297
v 2.509726 1.056492 3.258632
v 3.659831 1.056492 -2.652374
v 2.509726 1.056492 3.258632
v 2.367077 1.056492 3.22297
v 3.80248 1.056492 -2.616712
v 1.430945 3.053574 3.838142
v 1.395283 1.056492 3.980791
v 1.430945 1.056492 3.838142
v 1.395283 3.053574 3.980791
v -3.008996 3.053574 2.910925
v 1.395283 3.053574 3.980791
v 1.430945 3.053574 3.838142
v -3.035743 3.053574 3.06249
v -3.008996 1.056492 2.910925
v -3.035743 3.053574 3.06249
v -3.008996 3.053574 2.910925
v -3.035743 1.056492 3.06249
v 1.430945 1.056492 3.838142
v -3.035743 1.056492 3.06249
v -3.008996 1.056492 2.910925
v 1.395283 1.056492 3.980791
v 2.670206 -0.7890255 2.518641
v 4.007537 -0.2451773 -3.535013
v 3.642 -0.7890255 -1.894553
v 2.313584 -0.2451773 4.176932
v 4.007537 -4.560301 -3.535013
v 3.642 -4.560301 -1.894553
v 2.670206 -4.560301 2.518641
v 2.313584 -4.560301 4.176932
v 1.805398 -0.7890255 -3.552844
v -3.526098 -0.2451773 -1.118901
v -2.081779 -0.7890255 -1.778651
v 3.267547 -0.2451773 -4.212595
v -3.526098 -4.560301 -1.118901
v -2.081779 -4.560301 -1.778651
v 1.805398 -4.560301 -3.552844
v 3.267547 -4.560301 -4.212595
v 4.248257 4.283919 -3.713324
v 2.313584 4.078861 4.176932
v 2.438401 4.283919 4.444399
v 4.007537 4.078861 -3.535013
v 3.410196 4.283919 -4.46223
v 4.007537 4.078861 -3.535013
v 4.248257 4.283919 -3.713324
v 3.267547 4.078861 -4.212595
v -3.775733 4.283919 -1.181309
v 3.267547 4.078861 -4.212595
v 3.410196 4.283919 -4.46223
v -3.526098 4.078861 -1.118901
v -4.22151 4.283919 3.071405
v -3.526098 4.078861 -1.118901
v -3.775733 4.283919 -1.181309
v -3.962959 4.078861 2.875263
v 2.438401 4.283919 4.444399
v -3.962959 4.078861 2.875263
v -4.22151 4.283919 3.071405
v 2.313584 4.078861 4.176932
v 4.248257 4.551386 -3.713324
v 2.438401 4.283919 4.444399
v 2.438401 4.551386 4.444399
v 4.248257 4.283919 -3.713324
v 3.410196 4.551386 -4.46223
v 4.248257 4.283919 -3.713324
v 4.248257 4.551386 -3.713324
v 3.410196 4.283919 -4.46223
v -3.775733 4.560301 -1.181309
v 3.410196 4.283919 -4.46223
v 3.410196 4.551386 -4.46223
v -3.775733 4.283919 -1.181309
v -4.22151 4.551386 3.071405
v -3.775733 4.283919 -1.181309
v -3.775733 4.560301 -1.181309
v -4.22151 4.283919 3.071405
v 2.438401 4.551386 4.444399
v -4.22151 4.283919 3.071405
v -4.22151 4.551386 3.071405
v 2.438401 4.283919 4.444399
v 3.231885 -4.560301 -4.025368
v 3.820311 0.708786 -3.48152
v 3.820311 -4.560301 -3.48152
v 3.231885 0.708786 -4.025368
v -3.80248 -4.560301 2.759361
v -3.374534 0.708786 -1.002999
v -3.374534 -4.560301 -1.002999
v -3.80248 0.708786 2.759361
v 2.206597 -4.560301 3.998622
v -3.80248 0.708786 2.759361
v -3.80248 -4.560301 2.759361
v 2.206597 0.708786 3.998622
v 3.820311 0.708786 -3.48152
v 2.474063 -0.7890255 2.482979
v 3.445858 -0.7890255 -1.939131
v 2.206597 0.708786 3.998622
v 3.820311 -4.560301 -3.48152
v 3.445858 -4.560301 -1.939131
v 2.474063 -4.560301 2.482979
v 2.206597 -4.560301 3.998622
v -3.374534 0.708786 -1.002999
v 1.894553 -0.7890255 -3.374533
v -1.992624 -0.7890255 -1.60034
v 3.231885 0.708786 -4.025368
v -3.374534 -4.560301 -1.002999
v -1.992624 -4.560301 -1.60034
v 1.894553 -4.560301 -3.374533
v 3.231885 -4.560301 -4.025368
v 2.474063 -0.7890255 2.482979
v 3.642 -0.7890255 -1.894553
v 3.445858 -0.7890255 -1.939131
v 2.670206 -0.7890255 2.518641
v 1.894553 -0.7890255 -3.374533
v -2.081779 -0.7890255 -1.778651
v -1.992624 -0.7890255 -1.60034
v 1.805398 -0.7890255 -3.552844
v 3.445858 -0.7890255 -1.939131
v 3.642 -4.560301 -1.894553
v 3.445858 -4.560301 -1.939131
v 3.642 -0.7890255 -1.894553
v 2.474063 -4.560301 2.482979
v 2.670206 -0.7890255 2.518641
v 2.474063 -0.7890255 2.482979
v 2.670206 -4.560301 2.518641
v -1.992624 -0.7890255 -1.60034
v -2.081779 -4.560301 -1.778651
v -1.992624 -4.560301 -1.60034
v -2.081779 -0.7890255 -1.778651
v 1.894553 -4.560301 -3.374533
v 1.805398 -0.7890255 -3.552844
v 1.894553 -0.7890255 -3.374533
v 1.805398 -4.560301 -3.552844
v 2.572134 -1.092154 2.50081
v 3.535013 -4.560301 -1.948046
v 2.572134 -4.560301 2.50081
v 3.535013 -1.092154 -1.948046
v 3.766817 -1.092154 -1.903469
v 2.572134 -1.092154 2.50081
v 2.812854 -1.092154 2.554304
v 3.535013 -1.092154 -1.948046
v 2.572134 -0.7890255 2.50081
v 3.766817 -0.7890255 -1.903469
v 2.812854 -0.7890255 2.554304
v 3.535013 -0.7890255 -1.948046
v 3.838142 -0.8603499 -1.885638
v 2.875263 -1.002999 2.572134
v 2.875263 -0.8603499 2.572134
v 3.838142 -1.002999 -1.885638
v 2.572134 -0.7890255 2.50081
v 2.812854 -1.092154 2.554304
v 2.572134 -1.092154 2.50081
v 2.812854 -0.7890255 2.554304
v 2.875263 -1.002999 2.572134
v 2.875263 -0.8603499 2.572134
v 3.838142 -0.8603499 -1.885638
v 3.766817 -1.092154 -1.903469
v 3.838142 -1.002999 -1.885638
v 3.766817 -0.7890255 -1.903469
v 3.535013 -1.092154 -1.948046
v 3.535013 -0.7890255 -1.948046
v 2.875263 -1.002999 2.572134
v 3.766817 -1.092154 -1.903469
v 2.812854 -1.092154 2.554304
v 3.838142 -1.002999 -1.885638
v 3.838142 -0.8603499 -1.885638
v 2.812854 -0.7890255 2.554304
v 3.766817 -0.7890255 -1.903469
v 2.875263 -0.8603499 2.572134
v 2.572134 -0.762279 2.50081
v 3.535013 -4.560301 -1.948046
v 3.535013 -0.762279 -1.948046
v 2.572134 -4.560301 2.50081
v 1.76082 -4.560301 -3.499351
v 1.716242 -0.8425188 -3.606338
v 1.76082 -0.8425188 -3.499351
v 1.716242 -4.560301 -3.606338
v 1.716242 -4.560301 -3.606338
v 1.778651 -0.682039 -3.642
v 1.716242 -0.8425188 -3.606338
v 1.778651 -4.560301 -3.642
v 1.778651 -4.560301 -3.642
v 1.832144 -0.682039 -3.535013
v 1.778651 -0.682039 -3.642
v 1.832144 -4.560301 -3.535013
v -2.108526 -4.560301 -1.689496
v -2.16202 -0.682039 -1.796482
v -2.108526 -0.682039 -1.689496
v -2.16202 -4.560301 -1.796482
v -2.16202 -4.560301 -1.796482
v -2.081779 -0.8425188 -1.84106
v -2.16202 -0.682039 -1.796482
v -2.081779 -4.560301 -1.84106
v -2.081779 -4.560301 -1.84106
v -2.028286 -0.8425188 -1.725158
v -2.081779 -0.8425188 -1.84106
v -2.028286 -4.560301 -1.725158
v -2.108526 -0.682039 -1.689496
v 1.778651 -0.682039 -3.642
v 1.832144 -0.682039 -3.535013
v -2.16202 -0.682039 -1.796482
v -2.16202 -0.682039 -1.796482
v 1.716242 -0.8425188 -3.606338
v 1.778651 -0.682039 -3.642
v -2.081779 -0.8425188 -1.84106
v -2.081779 -0.8425188 -1.84106
v 1.76082 -0.8425188 -3.499351
v 1.716242 -0.8425188 -3.606338
v -2.028286 -0.8425188 -1.725158
vt 0.2250063 0.2366319
vt 0.2211311 0.1203756
vt 0.1513773 0.1165004
vt 0.08937391 0.2443824
vt 0.07774828 0.2288815
vt 0.06999785 0.1126252
vt 0.08937391 0.01962011
vt 0.06999785 0.01962011
vt 0.08937391 0.1126252
vt 0.06612264 0.1126252
vt 0.1552525 0.01962011
vt 0.06612264 0.01962011
vt 0.1552525 0.1126252
vt 0.08162349 0.1126252
vt 0.2133807 0.01962011
vt 0.08162349 0.01962011
vt 0.2133807 0.1126252
vt 0.2482576 0.2482576
vt 0.3993908 0.3025105
vt 0.3993908 0.2482576
vt 0.2482576 0.3025105
vt 0.06999785 0.01962011
vt 0.08937391 0.1126252
vt 0.08937391 0.01962011
vt 0.06999785 0.1126252
vt 0.2482576 0.2482576
vt 0.3993908 0.3025105
vt 0.3993908 0.2482576
vt 0.2482576 0.3025105
vt 0.06612264 0.01962011
vt 0.1552525 0.1126252
vt 0.1552525 0.01962011
vt 0.06612264 0.1126252
vt 0.2482576 0.2482576
vt 0.3412626 0.3025105
vt 0.3412626 0.2482576
vt 0.2482576 0.3025105
vt 0.08937391 0.09324912
vt 0.2327567 0.1126252
vt 0.2056302 0.09324912
vt 0.06999785 0.1126252
vt 0.08937391 0.04674659
vt 0.06999785 0.01962011
vt 0.2056302 0.04674659
vt 0.2327567 0.01962011
vt 0.07387307 0.1397517
vt 0.2482576 0.1513773
vt 0.2482576 0.1397517
vt 0.07387307 0.1513773
vt 0.1513773 0.1513773
vt 0.2482576 0.1397517
vt 0.2482576 0.1513773
vt 0.1513773 0.1397517
vt 0.2482576 0.1513773
vt 0.07387307 0.1397517
vt 0.07387307 0.1513773
vt 0.2482576 0.1397517
vt 0.2482576 0.1513773
vt 0.1513773 0.1397517
vt 0.1513773 0.1513773
vt 0.2482576 0.1397517
vt 0.2133807 0.09324912
vt 0.2405072 0.01962011
vt 0.2133807 0.04674659
vt 0.2405072 0.1126252
vt 0.08937391 0.09324912
vt 0.06612264 0.1126252
vt 0.08937391 0.04674659
vt 0.06612264 0.01962011
vt 0.1940046 0.09324912
vt 0.2133807 0.01962011
vt 0.1940046 0.04674659
vt 0.2133807 0.1126252
vt 0.09712433 0.09324912
vt 0.07774828 0.1126252
vt 0.09712433 0.04674659
vt 0.07774828 0.01962011
vt 0.2482576 0.1397517
vt 0.1513773 0.1513773
vt 0.1513773 0.1397517
vt 0.2482576 0.1513773
vt 0.2482576 0.1513773
vt 0.07387307 0.1397517
vt 0.07387307 0.1513773
vt 0.2482576 0.1397517
vt 0.1513773 0.1397517
vt 0.2482576 0.1513773
vt 0.2482576 0.1397517
vt 0.1513773 0.1513773
vt 0.07387307 0.1397517
vt 0.2482576 0.1513773
vt 0.2482576 0.1397517
vt 0.07387307 0.1513773
vt 0.1513773 0.1513773
vt 0.2482576 0.1397517
vt 0.2482576 0.1513773
vt 0.1513773 0.1397517
vt 0.2482576 0.1513773
vt 0.07387307 0.1397517
vt 0.07387307 0.1513773
vt 0.2482576 0.1397517
vt 0.2482576 0.1513773
vt 0.1513773 0.1397517
vt 0.1513773 0.1513773
vt 0.2482576 0.1397517
vt 0.07387307 0.1397517
vt 0.2482576 0.1513773
vt 0.2482576 0.1397517
vt 0.07387307 0.1513773
vt 0.1009995 0.09712433
vt 0.2405072 0.1126252
vt 0.1978798 0.09712433
vt 0.06612264 0.1126252
vt 0.2405072 0.01962011
vt 0.1978798 0.01962011
vt 0.1009995 0.01962011
vt 0.06612264 0.01962011
vt 0.1009995 0.09712433
vt 0.2327567 0.1165004
vt 0.1940046 0.09712433
vt 0.06999785 0.1126252
vt 0.2327567 0.01962011
vt 0.1940046 0.01962011
vt 0.1009995 0.01962011
vt 0.06999785 0.01962011
vt 0.1785038 0.4885207
vt 0.004119262 0.4807703
vt 0.0002440508 0.4885207
vt 0.1707533 0.4807703
vt 0.02349532 0.4885207
vt 0.004119262 0.4807703
vt 0.004119262 0.4885207
vt 0.02349532 0.4807703
vt 0.1746286 0.4885207
vt 0.004119262 0.4807703
vt 0.0002440508 0.4885207
vt 0.1707533 0.4807703
vt 0.08937391 0.4885207
vt 0.0002440508 0.4807703
vt 0.0002440508 0.4885207
vt 0.0854987 0.4807703
vt 0.1436269 0.4885207
vt 0.004119262 0.4807703
vt 0.0002440508 0.4885207
vt 0.1397517 0.4807703
vt 0.1785038 0.4962711
vt 0.0002440508 0.4885207
vt 0.0002440508 0.4962711
vt 0.1785038 0.4885207
vt 0.02349532 0.4962711
vt 0.004119262 0.4885207
vt 0.004119262 0.4962711
vt 0.02349532 0.4885207
vt 0.1746286 0.4962711
vt 0.0002440508 0.4885207
vt 0.0002440508 0.4962711
vt 0.1746286 0.4885207
vt 0.08937391 0.4962711
vt 0.0002440508 0.4885207
vt 0.0002440508 0.4962711
vt 0.08937391 0.4885207
vt 0.1436269 0.4962711
vt 0.0002440508 0.4885207
vt 0.0002440508 0.4962711
vt 0.1436269 0.4885207
vt 0.2056302 0.0002440508
vt 0.2250063 0.1126252
vt 0.2250063 0.0002440508
vt 0.2056302 0.1126252
vt 0.09324912 0.0002440508
vt 0.1785038 0.1126252
vt 0.1785038 0.0002440508
vt 0.09324912 0.1126252
vt 0.06999785 0.0002440508
vt 0.1978798 0.1126252
vt 0.1978798 0.0002440508
vt 0.06999785 0.1126252
vt 0.06999785 0.1126252
vt 0.1978798 0.08162349
vt 0.1009995 0.08162349
vt 0.2366319 0.1126252
vt 0.06999785 0.0002440508
vt 0.1009995 0.0002440508
vt 0.1978798 0.0002440508
vt 0.2366319 0.0002440508
vt 0.07387307 0.1126252
vt 0.1940046 0.08162349
vt 0.1009995 0.08162349
vt 0.2327567 0.1126252
vt 0.07387307 0.0002440508
vt 0.1009995 0.0002440508
vt 0.1940046 0.0002440508
vt 0.2327567 0.0002440508
vt 0.1862542 0.1165004
vt 0.1785038 0.2443824
vt 0.1862542 0.2443824
vt 0.1785038 0.1165004
vt 0.1785038 0.2443824
vt 0.1862542 0.1165004
vt 0.1785038 0.1165004
vt 0.1862542 0.2443824
vt 0.1862542 0.2443824
vt 0.1785038 0.1165004
vt 0.1862542 0.1165004
vt 0.1785038 0.2443824
vt 0.1862542 0.1165004
vt 0.1785038 0.2443824
vt 0.1862542 0.2443824
vt 0.1785038 0.1165004
vt 0.1785038 0.2443824
vt 0.1862542 0.1165004
vt 0.1785038 0.1165004
vt 0.1862542 0.2443824
vt 0.1785038 0.1165004
vt 0.1862542 0.2443824
vt 0.1785038 0.2443824
vt 0.1862542 0.1165004
vt 0.4962711 0.128126
vt 0.5699001 0.2482576
vt 0.5699001 0.128126
vt 0.4962711 0.2482576
vt 0.5040215 0.2482576
vt 0.4962711 0.128126
vt 0.5040215 0.128126
vt 0.4962711 0.2482576
vt 0.4962711 0.128126
vt 0.4962711 0.2482576
vt 0.4962711 0.128126
vt 0.4962711 0.2482576
vt 0.5001463 0.2482576
vt 0.5040215 0.128126
vt 0.5001463 0.128126
vt 0.5040215 0.2482576
vt 0.5040215 0.128126
vt 0.4962711 0.1358764
vt 0.4962711 0.128126
vt 0.5040215 0.1358764
vt 0.5001463 0.1397517
vt 0.5040215 0.1397517
vt 0.5040215 0.1397517
vt 0.4962711 0.1358764
vt 0.5001463 0.1397517
vt 0.5040215 0.1358764
vt 0.4962711 0.128126
vt 0.5040215 0.128126
vt 0.5040215 0.128126
vt 0.5040215 0.2482576
vt 0.5040215 0.128126
vt 0.5040215 0.2482576
vt 0.5001463 0.2482576
vt 0.4962711 0.128126
vt 0.4962711 0.2482576
vt 0.5001463 0.128126
vt 0.4962711 0.128126
vt 0.5699001 0.2482576
vt 0.4962711 0.2482576
vt 0.5699001 0.128126
vt 0.4962711 0.1203756
vt 0.5699001 0.128126
vt 0.5699001 0.1203756
vt 0.4962711 0.128126
vt 0.4962711 0.1048748
vt 0.5699001 0.1203756
vt 0.5699001 0.1048748
vt 0.4962711 0.1203756
vt 0.4962711 0.1203756
vt 0.5699001 0.128126
vt 0.5699001 0.1203756
vt 0.4962711 0.128126
vt 0.4962711 0.1203756
vt 0.5699001 0.128126
vt 0.5699001 0.1203756
vt 0.4962711 0.128126
vt 0.4962711 0.1203756
vt 0.5699001 0.1048748
vt 0.5699001 0.1203756
vt 0.4962711 0.1048748
vt 0.4962711 0.1203756
vt 0.5699001 0.128126
vt 0.5699001 0.1203756
vt 0.4962711 0.128126
vt 0.5699001 0.128126
vt 0.4962711 0.1203756
vt 0.4962711 0.128126
vt 0.5699001 0.1203756
vt 0.5699001 0.1203756
vt 0.4962711 0.1048748
vt 0.4962711 0.1203756
vt 0.5699001 0.1048748
vt 0.5699001 0.128126
vt 0.4962711 0.1203756
vt 0.4962711 0.128126
vt 0.5699001 0.1203756
vn 0.01587099 0.999874 -0.000345267
vn 0.01587099 0.999874 -0.000345267
vn 0.01587099 0.999874 -0.000345267
vn 0.01587099 0.999874 -0.000345267
vn 0.01587099 0.999874 -0.000345267
vn 0.7141957 -0.04761302 -0.6983248
vn 0.7141957 -0.04761302 -0.6983248
vn 0.7141957 -0.04761302 -0.6983248
vn 0.7141957 -0.04761302 -0.6983248
vn -0.968132 -0.04761302 -0.2458728
vn -0.968132 -0.04761302 -0.2458728
vn -0.968132 -0.04761302 -0.2458728
vn -0.968132 -0.04761302 -0.2458728
vn -0.1745812 -0.04761302 0.9834909
vn -0.1745812 -0.04761302 0.9834909
vn -0.1745812 -0.04761302 0.9834909
vn -0.1745812 -0.04761302 0.9834909
vn 0.999874 -0.01587099 -0.000346655
vn 0.999874 -0.01587099 -0.000346655
vn 0.999874 -0.01587099 -0.000346655
vn 0.999874 -0.01587099 -0.000346655
vn 0.7141957 -0.04761302 -0.6983248
vn 0.7141957 -0.04761302 -0.6983248
vn 0.7141957 -0.04761302 -0.6983248
vn 0.7141957 -0.04761302 -0.6983248
vn -0.3967754 -0.04761302 -0.91668
vn -0.3967754 -0.04761302 -0.91668
vn -0.3967754 -0.04761302 -0.91668
vn -0.3967754 -0.04761302 -0.91668
vn -0.968132 -0.04761302 -0.2458728
vn -0.968132 -0.04761302 -0.2458728
vn -0.968132 -0.04761302 -0.2458728
vn -0.968132 -0.04761302 -0.2458728
vn -0.1745812 -0.04761302 0.9834909
vn -0.1745812 -0.04761302 0.9834909
vn -0.1745812 -0.04761302 0.9834909
vn -0.1745812 -0.04761302 0.9834909
vn -0.3967754 -0.04761302 -0.91668
vn -0.3967754 -0.04761302 -0.91668
vn -0.3967754 -0.04761302 -0.91668
vn -0.3967754 -0.04761302 -0.91668
vn -0.3967754 -0.04761302 -0.91668
vn -0.3967754 -0.04761302 -0.91668
vn -0.3967754 -0.04761302 -0.91668
vn -0.3967754 -0.04761302 -0.91668
vn 0.01587099 -0.999874 -0.000345267
vn 0.01587099 -0.999874 -0.000345267
vn 0.01587099 -0.999874 -0.000345267
vn 0.01587099 -0.999874 -0.000345267
vn -0.9046479 -0.04761302 0.4234915
vn -0.9046479 -0.04761302 0.4234915
vn -0.9046479 -0.04761302 0.4234915
vn -0.9046479 -0.04761302 0.4234915
vn 0.01587099 0.999874 -0.000345267
vn 0.01587099 0.999874 -0.000345267
vn 0.01587099 0.999874 -0.000345267
vn 0.01587099 0.999874 -0.000345267
vn 0.968132 -0.04761302 -0.245873
vn 0.968132 -0.04761302 -0.245873
vn 0.968132 -0.04761302 -0.245873
vn 0.968132 -0.04761302 -0.245873
vn 0.999874 -0.01587099 -0.000346655
vn 0.999874 -0.01587099 -0.000346655
vn 0.999874 -0.01587099 -0.000346655
vn 0.999874 -0.01587099 -0.000346655
vn 0.999874 -0.01587099 -0.000346655
vn 0.999874 -0.01587099 -0.000346655
vn 0.999874 -0.01587099 -0.000346655
vn 0.999874 -0.01587099 -0.000346655
vn -0.1745812 -0.04761302 0.9834909
vn -0.1745812 -0.04761302 0.9834909
vn -0.1745812 -0.04761302 0.9834909
vn -0.1745812 -0.04761302 0.9834909
vn -0.1745812 -0.04761302 0.9834909
vn -0.1745812 -0.04761302 0.9834909
vn -0.1745812 -0.04761302 0.9834909
vn -0.1745812 -0.04761302 0.9834909
vn -0.2063233 -0.04761302 0.9773248
vn -0.2063233 -0.04761302 0.9773248
vn -0.2063233 -0.04761302 0.9773248
vn -0.2063233 -0.04761302 0.9773248
vn 0.01587099 -0.999874 -0.000345267
vn 0.01587099 -0.999874 -0.000345267
vn 0.01587099 -0.999874 -0.000345267
vn 0.01587099 -0.999874 -0.000345267
vn 0.2698073 -0.04761302 -0.9617364
vn 0.2698073 -0.04761302 -0.9617364
vn 0.2698073 -0.04761302 -0.9617364
vn 0.2698073 -0.04761302 -0.9617364
vn 0.01587099 0.999874 -0.000345267
vn 0.01587099 0.999874 -0.000345267
vn 0.01587099 0.999874 -0.000345267
vn 0.01587099 0.999874 -0.000345267
vn -0.968132 -0.04761302 -0.2458728
vn -0.968132 -0.04761302 -0.2458728
vn -0.968132 -0.04761302 -0.2458728
vn -0.968132 -0.04761302 -0.2458728
vn 0.01587099 -0.999874 -0.000345267
vn 0.01587099 -0.999874 -0.000345267
vn 0.01587099 -0.999874 -0.000345267
vn 0.01587099 -0.999874 -0.000345267
vn 0.999874 -0.01587099 -0.000346655
vn 0.999874 -0.01587099 -0.000346655
vn 0.999874 -0.01587099 -0.000346655
vn 0.999874 -0.01587099 -0.000346655
vn 0.01587099 0.999874 -0.000345267
vn 0.01587099 0.999874 -0.000345267
vn 0.01587099 0.999874 -0.000345267
vn 0.01587099 0.999874 -0.000345267
vn 0.999874 -0.01587099 -0.000346655
vn 0.999874 -0.01587099 -0.000346655
vn 0.999874 -0.01587099 -0.000346655
vn 0.999874 -0.01587099 -0.000346655
vn 0.999874 -0.01587099 -0.000346655
vn 0.999874 -0.01587099 -0.000346655
vn 0.999874 -0.01587099 -0.000346655
vn 0.999874 -0.01587099 -0.000346655
vn -0.3967754 -0.04761302 -0.91668
vn -0.3967754 -0.04761302 -0.91668
vn -0.3967754 -0.04761302 -0.91668
vn -0.3967754 -0.04761302 -0.91668
vn -0.3967754 -0.04761302 -0.91668
vn -0.3967754 -0.04761302 -0.91668
vn -0.3967754 -0.04761302 -0.91668
vn -0.3967754 -0.04761302 -0.91668
vn 0.7071068 -0.7071068 0
vn 0.7071068 -0.7071068 0
vn 0.7071068 -0.7071068 0
vn 0.7071068 -0.7071068 0
vn 0.4285174 -0.8729059 -0.2332558
vn 0.4285174 -0.8729059 -0.2332558
vn 0.4285174 -0.8729059 -0.2332558
vn 0.4285174 -0.8729059 -0.2332558
vn -0.3015493 -0.6824536 -0.6658266
vn -0.3015493 -0.6824536 -0.6658266
vn -0.3015493 -0.6824536 -0.6658266
vn -0.3015493 -0.6824536 -0.6658266
vn -0.5724236 -0.819958 0
vn -0.5724236 -0.819958 0
vn -0.5724236 -0.819958 0
vn -0.5724236 -0.819958 0
vn -0.1110971 -0.8411638 0.5292456
vn -0.1110971 -0.8411638 0.5292456
vn -0.1110971 -0.8411638 0.5292456
vn -0.1110971 -0.8411638 0.5292456
vn 0.999874 -0.01587099 -0.000346655
vn 0.999874 -0.01587099 -0.000346655
vn 0.999874 -0.01587099 -0.000346655
vn 0.999874 -0.01587099 -0.000346655
vn 0.7141957 -0.04761302 -0.6983248
vn 0.7141957 -0.04761302 -0.6983248
vn 0.7141957 -0.04761302 -0.6983248
vn 0.7141957 -0.04761302 -0.6983248
vn -0.3967754 -0.04761302 -0.91668
vn -0.3967754 -0.04761302 -0.91668
vn -0.3967754 -0.04761302 -0.91668
vn -0.3967754 -0.04761302 -0.91668
vn -0.968132 -0.04761302 -0.2458728
vn -0.968132 -0.04761302 -0.2458728
vn -0.968132 -0.04761302 -0.2458728
vn -0.968132 -0.04761302 -0.2458728
vn -0.1745812 -0.04761302 0.9834909
vn -0.1745812 -0.04761302 0.9834909
vn -0.1745812 -0.04761302 0.9834909
vn -0.1745812 -0.04761302 0.9834909
vn -0.6507117 -0.04761302 0.7578307
vn -0.6507117 -0.04761302 0.7578307
vn -0.6507117 -0.04761302 0.7578307
vn -0.6507117 -0.04761302 0.7578307
vn 0.999874 -0.01587099 -0.000346655
vn 0.999874 -0.01587099 -0.000346655
vn 0.999874 -0.01587099 -0.000346655
vn 0.999874 -0.01587099 -0.000346655
vn 0.2380652 -0.04761302 -0.9700814
vn 0.2380652 -0.04761302 -0.9700814
vn 0.2380652 -0.04761302 -0.9700814
vn 0.2380652 -0.04761302 -0.9700814
vn -0.968132 0.01587105 -0.249937
vn -0.968132 0.01587105 -0.249937
vn -0.968132 0.01587105 -0.249937
vn -0.968132 0.01587105 -0.249937
vn -0.968132 -0.04761302 -0.2458728
vn -0.968132 -0.04761302 -0.2458728
vn -0.968132 -0.04761302 -0.2458728
vn -0.968132 -0.04761302 -0.2458728
vn 0.4602594 0.01587105 0.8876426
vn 0.4602594 0.01587105 0.8876426
vn 0.4602594 0.01587105 0.8876426
vn 0.4602594 0.01587105 0.8876426
vn 0.4602594 -0.04761302 0.8865068
vn 0.4602594 -0.04761302 0.8865068
vn 0.4920015 -0.04761302 0.8692914
vn 0.4920015 -0.04761302 0.8692914
vn 0.01587099 -0.999874 -0.000345267
vn 0.01587099 -0.999874 -0.000345267
vn 0.01587099 -0.999874 -0.000345267
vn 0.01587099 -0.999874 -0.000345267
vn 0.01587099 -0.999874 -0.000345267
vn 0.01587099 -0.999874 -0.000345267
vn 0.01587099 -0.999874 -0.000345267
vn 0.01587099 -0.999874 -0.000345267
vn -0.2063233 -0.04761302 0.9773248
vn -0.2063233 -0.04761302 0.9773248
vn -0.2063233 -0.04761302 0.9773248
vn -0.2063233 -0.04761302 0.9773248
vn 0.2698073 -0.04761302 -0.9617364
vn 0.2698073 -0.04761302 -0.9617364
vn 0.2698073 -0.04761302 -0.9617364
vn 0.2698073 -0.04761302 -0.9617364
vn 0.968132 -0.04761302 -0.245873
vn 0.968132 -0.04761302 -0.245873
vn 0.968132 -0.04761302 -0.245873
vn 0.968132 -0.04761302 -0.245873
vn -0.9046479 -0.04761302 0.4234915
vn -0.9046479 -0.04761302 0.4234915
vn -0.9046479 -0.04761302 0.4234915
vn -0.9046479 -0.04761302 0.4234915
vn 0.999874 -0.01587099 -0.000346655
vn 0.999874 -0.01587099 -0.000346655
vn 0.999874 -0.01587099 -0.000346655
vn 0.999874 -0.01587099 -0.000346655
vn 0.01587099 -0.999874 -0.000345267
vn 0.01587099 -0.999874 -0.000345267
vn 0.01587099 -0.999874 -0.000345267
vn 0.01587099 -0.999874 -0.000345267
vn 0.01587099 0.999874 -0.000345267
vn 0.01587099 0.999874 -0.000345267
vn 0.01587099 0.999874 -0.000345267
vn 0.01587099 0.999874 -0.000345267
vn 0.999874 -0.01587099 -0.000346655
vn 0.999874 -0.01587099 -0.000346655
vn 0.999874 -0.01587099 -0.000346655
vn 0.999874 -0.01587099 -0.000346655
vn -0.2063233 -0.04761302 0.9773248
vn -0.2063233 -0.04761302 0.9773248
vn -0.2063233 -0.04761302 0.9773248
vn -0.2063233 -0.04761302 0.9773248
vn -0.2063233 -0.04761302 0.9773248
vn -0.2063233 -0.04761302 0.9773248
vn 0.2698073 -0.04761302 -0.9617364
vn 0.2698073 -0.04761302 -0.9617364
vn 0.2698073 -0.04761302 -0.9617364
vn 0.2698073 -0.04761302 -0.9617364
vn 0.2698073 -0.04761302 -0.9617364
vn 0.2698073 -0.04761302 -0.9617364
vn 0.7378055 -0.6750135 0
vn 0.7378055 -0.6750135 0
vn 0.7378055 -0.6750135 0
vn 0.7378055 -0.6750135 0
vn 0.7669368 0.6417226 0
vn 0.7669368 0.6417226 0
vn 0.7669368 0.6417226 0
vn 0.7669368 0.6417226 0
vn -0.968132 -0.04761302 -0.2458728
vn -0.968132 -0.04761302 -0.2458728
vn -0.968132 -0.04761302 -0.2458728
vn -0.968132 -0.04761302 -0.2458728
vn -0.9046479 -0.04761302 0.4234915
vn -0.9046479 -0.04761302 0.4234915
vn -0.9046479 -0.04761302 0.4234915
vn -0.9046479 -0.04761302 0.4234915
vn -0.3967754 -0.04761302 -0.91668
vn -0.3967754 -0.04761302 -0.91668
vn -0.3967754 -0.04761302 -0.91668
vn -0.3967754 -0.04761302 -0.91668
vn 0.968132 -0.04761302 -0.245873
vn 0.968132 -0.04761302 -0.245873
vn 0.968132 -0.04761302 -0.245873
vn 0.968132 -0.04761302 -0.245873
vn -0.9046479 -0.04761302 0.4234915
vn -0.9046479 -0.04761302 0.4234915
vn -0.9046479 -0.04761302 0.4234915
vn -0.9046479 -0.04761302 0.4234915
vn -0.3967754 -0.04761302 -0.91668
vn -0.3967754 -0.04761302 -0.91668
vn -0.3967754 -0.04761302 -0.91668
vn -0.3967754 -0.04761302 -0.91668
vn 0.968132 -0.04761302 -0.245873
vn 0.968132 -0.04761302 -0.245873
vn 0.968132 -0.04761302 -0.245873
vn 0.968132 -0.04761302 -0.245873
vn 0.01587099 0.999874 -0.000345267
vn 0.01587099 0.999874 -0.000345267
vn 0.01587099 0.999874 -0.000345267
vn 0.01587099 0.999874 -0.000345267
vn -0.3967754 -0.04761302 -0.91668
vn -0.3967754 -0.04761302 -0.91668
vn -0.3967754 -0.04761302 -0.91668
vn -0.3967754 -0.04761302 -0.91668
vn 0.01587099 -0.999874 -0.000345267
vn 0.01587099 -0.999874 -0.000345267
vn 0.01587099 -0.999874 -0.000345267
vn 0.01587099 -0.999874 -0.000345267
g DSJ_GTA_diLou_7_0
f 3/3/3 2/2/2 1/1/1
f 1/1/1 4/4/4 3/3/3
f 5/5/5 3/3/3 4/4/4
f 8/8/8 7/7/7 6/6/6
f 9/9/9 6/6/6 7/7/7
f 12/12/12 11/11/11 10/10/10
f 13/13/13 10/10/10 11/11/11
f 16/16/16 15/15/15 14/14/14
f 17/17/17 14/14/14 15/15/15
f 20/20/20 19/19/19 18/18/18
f 21/21/21 18/18/18 19/19/19
f 24/24/24 23/23/23 22/22/22
f 25/25/25 22/22/22 23/23/23
f 28/28/28 27/27/27 26/26/26
f 29/29/29 26/26/26 27/27/27
f 32/32/32 31/31/31 30/30/30
f 33/33/33 30/30/30 31/31/31
f 36/36/36 35/35/35 34/34/34
f 37/37/37 34/34/34 35/35/35
f 40/40/40 39/39/39 38/38/38
f 41/41/41 38/38/38 39/39/39
f 38/38/38 41/41/41 42/42/42
f 43/43/43 42/42/42 41/41/41
f 42/42/42 43/43/43 44/44/44
f 45/45/45 44/44/44 43/43/43
f 44/44/44 45/45/45 40/40/40
f 39/39/39 40/40/40 45/45/45
f 48/48/48 47/47/47 46/46/46
f 49/49/49 46/46/46 47/47/47
f 52/52/52 51/51/51 50/50/50
f 53/53/53 50/50/50 51/51/51
f 56/56/56 55/55/55 54/54/54
f 57/57/57 54/54/54 55/55/55
f 60/60/60 59/59/59 58/58/58
f 61/61/61 58/58/58 59/59/59
f 64/64/64 63/63/63 62/62/62
f 65/65/65 62/62/62 63/63/63
f 62/62/62 65/65/65 66/66/66
f 67/67/67 66/66/66 65/65/65
f 66/66/66 67/67/67 68/68/68
f 69/69/69 68/68/68 67/67/67
f 68/68/68 69/69/69 64/64/64
f 63/63/63 64/64/64 69/69/69
f 72/72/72 71/71/71 70/70/70
f 73/73/73 70/70/70 71/71/71
f 70/70/70 73/73/73 74/74/74
f 75/75/75 74/74/74 73/73/73
f 74/74/74 75/75/75 76/76/76
f 77/77/77 76/76/76 75/75/75
f 76/76/76 77/77/77 72/72/72
f 71/71/71 72/72/72 77/77/77
f 80/80/80 79/79/79 78/78/78
f 81/81/81 78/78/78 79/79/79
f 84/84/84 83/83/83 82/82/82
f 85/85/85 82/82/82 83/83/83
f 88/88/88 87/87/87 86/86/86
f 89/89/89 86/86/86 87/87/87
f 92/92/92 91/91/91 90/90/90
f 93/93/93 90/90/90 91/91/91
f 96/96/96 95/95/95 94/94/94
f 97/97/97 94/94/94 95/95/95
f 100/100/100 99/99/99 98/98/98
f 101/101/101 98/98/98 99/99/99
f 104/104/104 103/103/103 102/102/102
f 105/105/105 102/102/102 103/103/103
f 108/108/108 107/107/107 106/106/106
f 109/109/109 106/106/106 107/107/107
f 112/112/112 111/111/111 110/110/110
f 113/113/113 110/110/110 111/111/111
f 111/111/111 112/112/112 114/114/114
f 115/115/115 114/114/114 112/112/112
f 110/110/110 113/113/113 116/116/116
f 117/117/117 116/116/116 113/113/113
f 120/120/120 119/119/119 118/118/118
f 121/121/121 118/118/118 119/119/119
f 119/119/119 120/120/120 122/122/122
f 123/123/123 122/122/122 120/120/120
f 118/118/118 121/121/121 124/124/124
f 125/125/125 124/124/124 121/121/121
f 128/128/128 127/127/127 126/126/126
f 129/129/129 126/126/126 127/127/127
f 132/132/132 131/131/131 130/130/130
f 133/133/133 130/130/130 131/131/131
f 136/136/136 135/135/135 134/134/134
f 137/137/137 134/134/134 135/135/135
f 140/140/140 139/139/139 138/138/138
f 141/141/141 138/138/138 139/139/139
f 144/144/144 143/143/143 142/142/142
f 145/145/145 142/142/142 143/143/143
f 148/148/148 147/147/147 146/146/146
f 149/149/149 146/146/146 147/147/147
f 152/152/152 151/151/151 150/150/150
f 153/153/153 150/150/150 151/151/151
f 156/156/156 155/155/155 154/154/154
f 157/157/157 154/154/154 155/155/155
f 160/160/160 159/159/159 158/158/158
f 161/161/161 158/158/158 159/159/159
f 164/164/164 163/163/163 162/162/162
f 165/165/165 162/162/162 163/163/163
f 168/168/168 167/167/167 166/166/166
f 169/169/169 166/166/166 167/167/167
f 172/172/172 171/171/171 170/170/170
f 173/173/173 170/170/170 171/171/171
f 176/176/176 175/175/175 174/174/174
f 177/177/177 174/174/174 175/175/175
f 180/180/180 179/179/179 178/178/178
f 181/181/181 178/178/178 179/179/179
f 178/178/178 182/182/182 180/180/180
f 183/183/183 180/180/180 182/182/182
f 179/179/179 184/184/184 181/181/181
f 185/185/185 181/181/181 184/184/184
f 188/188/188 187/187/187 186/186/186
f 189/189/189 186/186/186 187/187/187
f 186/186/186 190/190/190 188/188/188
f 191/191/191 188/188/188 190/190/190
f 187/187/187 192/192/192 189/189/189
f 193/193/193 189/189/189 192/192/192
f 196/196/196 195/195/195 194/194/194
f 197/197/197 194/194/194 195/195/195
f 200/200/200 199/199/199 198/198/198
f 201/201/201 198/198/198 199/199/199
f 204/204/204 203/203/203 202/202/202
f 205/205/205 202/202/202 203/203/203
f 208/208/208 207/207/207 206/206/206
f 209/209/209 206/206/206 207/207/207
f 212/212/212 211/211/211 210/210/210
f 213/213/213 210/210/210 211/211/211
f 216/216/216 215/215/215 214/214/214
f 217/217/217 214/214/214 215/215/215
f 220/220/220 219/219/219 218/218/218
f 221/221/221 218/218/218 219/219/219
f 224/224/224 223/223/223 222/222/222
f 225/225/225 222/222/222 223/223/223
f 228/228/228 227/227/227 226/226/226
f 229/229/229 226/226/226 227/227/227
f 232/232/232 231/231/231 230/230/230
f 233/233/233 230/230/230 231/231/231
f 236/236/236 235/235/235 234/234/234
f 237/237/237 234/234/234 235/235/235
f 235/235/235 238/238/238 237/237/237
f 239/239/239 237/237/237 238/238/238
f 242/242/242 241/241/241 240/240/240
f 243/243/243 240/240/240 241/241/241
f 241/241/241 244/244/244 243/243/243
f 245/245/245 243/243/243 244/244/244
f 248/248/248 247/247/247 246/246/246
f 249/249/249 246/246/246 247/247/247
f 252/252/252 251/251/251 250/250/250
f 253/253/253 250/250/250 251/251/251
f 256/256/256 255/255/255 254/254/254
f 257/257/257 254/254/254 255/255/255
f 260/260/260 259/259/259 258/258/258
f 261/261/261 258/258/258 259/259/259
f 264/264/264 263/263/263 262/262/262
f 265/265/265 262/262/262 263/263/263
f 268/268/268 267/267/267 266/266/266
f 269/269/269 266/266/266 267/267/267
f 272/272/272 271/271/271 270/270/270
f 273/273/273 270/270/270 271/271/271
f 276/276/276 275/275/275 274/274/274
f 277/277/277 274/274/274 275/275/275
f 280/280/280 279/279/279 278/278/278
f 281/281/281 278/278/278 279/279/279
f 284/284/284 283/283/283 282/282/282
f 285/285/285 282/282/282 283/283/283
f 288/288/288 287/287/287 286/286/286
f 289/289/289 286/286/286 287/287/287
f 292/292/292 291/291/291 290/290/290
f 293/293/293 290/290/290 291/291/291
