g DSJ_GTA_daoJu_cheLun_01
v -0.4683276 0.05181062 0.09594095
v -0.2318376 0.005879134 0.2735712
v -0.3462102 0.005652457 0.07485473
v -0.3112402 0.05247509 0.3679543
v -0.4683276 0.1759492 0.09594095
v -0.3112402 0.05247509 0.3679543
v -0.4683276 0.05181062 0.09594095
v -0.3112402 0.1752824 0.3679543
v -0.4137025 0.05192953 -0.2131903
v -0.3462102 0.005652457 0.07485473
v -0.3063 0.005658001 -0.1508238
v -0.4683276 0.05181062 0.09594095
v -0.4137025 0.05192953 -0.2131903
v -0.4683276 0.1759492 0.09594095
v -0.4683276 0.05181062 0.09594095
v -0.4137025 0.1758291 -0.2131903
v -0.4061489 0.2279786 0.08607286
v -0.3112402 0.1752824 0.3679543
v -0.4683276 0.1759492 0.09594095
v -0.2710067 0.2278542 0.320855
v -0.3590729 0.2281753 -0.180677
v -0.4683276 0.1759492 0.09594095
v -0.4137025 0.1758291 -0.2131903
v -0.4061489 0.2279786 0.08607286
v -0.2862738 0.2162338 0.06363767
v -0.3590729 0.2281753 -0.180677
v -0.2535261 0.2160249 -0.1209717
v -0.4061489 0.2279786 0.08607286
v -0.1926664 0.2159027 0.2262908
v -0.2710067 0.2278542 0.320855
v -0.1098125 0.2159027 -0.2414756
v -0.1514839 0.2278542 -0.3548016
v 0.07785138 0.2162338 -0.2412156
v 0.1194128 0.2279786 -0.354446
v -0.01641724 0.2281753 0.4135692
v -0.01645058 0.2160249 0.2904973
v 0.1597985 0.2162338 0.226553
v 0.2381344 0.2279786 0.320965
v 0.2538583 0.2159027 0.064161
v 0.3738889 0.2278542 0.08653623
v 0.2213539 0.2160249 -0.1205506
v 0.3268873 0.2281753 -0.1803025
v -0.3063 0.005658001 -0.1508238
v -0.1732123 0.05247509 -0.4149969
v -0.4137025 0.05192953 -0.2131903
v -0.1306477 0.005879134 -0.2981386
v -0.4137025 0.05192953 -0.2131903
v -0.1732123 0.1752824 -0.4149969
v -0.4137025 0.1758291 -0.2131903
v -0.1732123 0.05247509 -0.4149969
v -0.1306477 0.005879134 -0.2981386
v 0.1409034 0.05181062 -0.4150291
v -0.1732123 0.05247509 -0.4149969
v 0.09863317 0.005652457 -0.2978319
v -0.1732123 0.1752824 -0.4149969
v -0.3590729 0.2281753 -0.180677
v -0.4137025 0.1758291 -0.2131903
v -0.1514839 0.2278542 -0.3548016
v -0.1732123 0.1752824 -0.4149969
v 0.1194128 0.2279786 -0.354446
v -0.1514839 0.2278542 -0.3548016
v 0.1409034 0.1759492 -0.4150291
v -0.1732123 0.05247509 -0.4149969
v 0.1409034 0.1759492 -0.4150291
v -0.1732123 0.1752824 -0.4149969
v 0.1409034 0.05181062 -0.4150291
v 0.2788002 0.05181062 0.3680643
v 0.3138736 0.005879134 0.07534808
v 0.1989676 0.005652457 0.2737579
v 0.4358287 0.05247509 0.09601653
v 0.2788002 0.1759492 0.3680632
v 0.4358287 0.05247509 0.09601653
v 0.2788002 0.05181062 0.3680643
v 0.4358287 0.1752824 0.09601653
v -0.01622501 0.05192953 0.4753222
v 0.1989676 0.005652457 0.2737579
v -0.01643392 0.005658001 0.3520327
v 0.2788002 0.05181062 0.3680643
v -0.01622501 0.05192953 0.4753222
v 0.2788002 0.1759492 0.3680632
v 0.2788002 0.05181062 0.3680643
v -0.01622501 0.1758291 0.4753222
v 0.2381344 0.2279786 0.320965
v 0.4358287 0.1752824 0.09601653
v 0.2788002 0.1759492 0.3680632
v 0.3738889 0.2278542 0.08653623
v -0.01641724 0.2281753 0.4135692
v 0.2788002 0.1759492 0.3680632
v -0.01622501 0.1758291 0.4753222
v 0.2381344 0.2279786 0.320965
v -0.01643392 0.005658001 0.3520327
v -0.3112402 0.05247509 0.3679543
v -0.01622501 0.05192953 0.4753222
v -0.2318376 0.005879134 0.2735712
v -0.01622501 0.05192953 0.4753222
v -0.3112402 0.1752824 0.3679543
v -0.01622501 0.1758291 0.4753222
v -0.3112402 0.05247509 0.3679543
v -0.3112402 0.1752824 0.3679543
v -0.01641724 0.2281753 0.4135692
v -0.01622501 0.1758291 0.4753222
v -0.2710067 0.2278542 0.320855
v 0.2741212 0.005658001 -0.150426
v 0.4358287 0.05247509 0.09601653
v 0.3813058 0.05192953 -0.213158
v 0.3138736 0.005879134 0.07534808
v 0.3813058 0.05192953 -0.213158
v 0.4358287 0.1752824 0.09601653
v 0.3813058 0.1758291 -0.2131603
v 0.4358287 0.05247509 0.09601653
v 0.4358287 0.1752824 0.09601653
v 0.3268873 0.2281753 -0.1803025
v 0.3813058 0.1758291 -0.2131603
v 0.3738889 0.2278542 0.08653623
v 0.3813058 0.05192953 -0.213158
v 0.09863317 0.005652457 -0.2978319
v 0.2741212 0.005658001 -0.150426
v 0.1409034 0.05181062 -0.4150291
v 0.3813058 0.05192953 -0.213158
v 0.1409034 0.1759492 -0.4150291
v 0.1409034 0.05181062 -0.4150291
v 0.3813058 0.1758291 -0.2131603
v 0.3268873 0.2281753 -0.1803025
v 0.1409034 0.1759492 -0.4150291
v 0.3813058 0.1758291 -0.2131603
v 0.1194128 0.2279786 -0.354446
v -0.4120724 0.4316397 0.001712322
v -0.2656109 0.2558673 0.2557129
v -0.4120724 0.2554717 0.001712322
v -0.2656109 0.4312441 0.2557129
v -0.3611007 0.2554328 -0.2869127
v -0.4120724 0.4316397 0.001712322
v -0.4120724 0.2554717 0.001712322
v -0.3611007 0.4316775 -0.2869127
v -0.3068023 0.2154082 -0.2563728
v -0.4120724 0.2554717 0.001712322
v -0.3505104 0.2151982 -0.009963602
v -0.3611007 0.2554328 -0.2869127
v -0.2255697 0.2155315 0.2071357
v -0.2656109 0.2558673 0.2557129
v -0.1149805 0.2155315 -0.4172158
v -0.1365267 0.2558673 -0.4753244
v 0.1355055 0.2151982 -0.416868
v 0.156674 0.2554717 -0.4751644
v 0.009634703 0.2154082 0.2928374
v 0.00984472 0.2554328 0.3559928
v 0.2852893 0.2554717 0.2558228
v 0.2448857 0.2151982 0.2074868
v 0.3704287 0.2155315 -0.00926581
v 0.4320285 0.2558673 0.001983434
v 0.3270473 0.2154082 -0.2558094
v 0.3811446 0.2554328 -0.2867093
v -0.3389322 0.4702387 -0.01199257
v -0.3611007 0.4316775 -0.2869127
v -0.2966275 0.4700288 -0.2504859
v -0.4120724 0.4316397 0.001712322
v -0.2180027 0.4699065 0.1981343
v -0.2656109 0.4312441 0.2557129
v -0.110967 0.4699065 -0.406161
v -0.1365267 0.4312441 -0.4753244
v 0.131472 0.4702387 -0.4058243
v 0.156674 0.4316397 -0.4751644
v 0.00984472 0.4316775 0.3559928
v 0.009644717 0.4700288 0.2810826
v 0.2373399 0.4702387 0.1984732
v 0.2852893 0.4316397 0.2558228
v 0.3588495 0.4699065 -0.01131698
v 0.4320285 0.4312441 0.001983434
v 0.3168603 0.4700288 -0.2499404
v 0.3811446 0.4316775 -0.2867093
v -0.3611007 0.2554328 -0.2869127
v -0.1365267 0.4312441 -0.4753244
v -0.3611007 0.4316775 -0.2869127
v -0.1365267 0.2558673 -0.4753244
v -0.1365267 0.2558673 -0.4753244
v 0.156674 0.4316397 -0.4751644
v -0.1365267 0.4312441 -0.4753244
v 0.156674 0.2554717 -0.4751644
v 0.2852893 0.4316397 0.2558228
v 0.4320285 0.2558673 0.001983434
v 0.2852893 0.2554717 0.2558228
v 0.4320285 0.4312441 0.001983434
v 0.00984472 0.2554328 0.3559928
v 0.2852893 0.4316397 0.2558228
v 0.2852893 0.2554717 0.2558228
v 0.00984472 0.4316775 0.3559928
v 0.00984472 0.2554328 0.3559928
v -0.2656109 0.4312441 0.2557129
v 0.00984472 0.4316775 0.3559928
v -0.2656109 0.2558673 0.2557129
v 0.3811446 0.2554328 -0.2867093
v 0.4320285 0.4312441 0.001983434
v 0.3811446 0.4316775 -0.2867093
v 0.4320285 0.2558673 0.001983434
v 0.3811446 0.2554328 -0.2867093
v 0.156674 0.4316397 -0.4751644
v 0.156674 0.2554717 -0.4751644
v 0.3811446 0.4316775 -0.2867093
v -0.4358343 0.5134324 0.04460484
v -0.2348555 0.4615263 0.2653332
v -0.3680554 0.4614018 0.03392559
v -0.278747 0.5140969 0.3166204
v -0.4358343 0.6375698 0.04460484
v -0.278747 0.5140969 0.3166204
v -0.4358343 0.5134324 0.04460484
v -0.278747 0.636903 0.3166204
v -0.3812114 0.5135513 -0.2645242
v -0.3680554 0.4614018 0.03392559
v -0.321655 0.4612051 -0.2289941
v -0.4358343 0.5134324 0.04460484
v -0.3812114 0.5135513 -0.2645242
v -0.4358343 0.6375698 0.04460484
v -0.4358343 0.5134324 0.04460484
v -0.3812114 0.6374487 -0.2645242
v -0.2210339 0.4725688 -0.1723067
v -0.3680554 0.4614018 0.03392559
v -0.2537805 0.4723577 0.01230267
v -0.321655 0.4612051 -0.2289941
v -0.1601753 0.4726899 0.1749569
v -0.2348555 0.4615263 0.2653332
v -0.07732034 0.4726899 -0.2928106
v -0.1170461 0.4615263 -0.4006186
v 0.1103447 0.4723577 -0.2925506
v 0.1499582 0.4614018 -0.4002675
v 0.01604047 0.4725688 0.2391634
v 0.01607937 0.4612051 0.3567173
v 0.2669742 0.4614018 0.2654409
v 0.1922907 0.4723577 0.1752191
v 0.2863504 0.4726899 0.01282603
v 0.4007797 0.4615263 0.03438342
v 0.2538472 0.4725688 -0.1718856
v 0.3544538 0.4612051 -0.2286241
v -0.3680554 0.6896003 0.03392559
v -0.278747 0.636903 0.3166204
v -0.4358343 0.6375698 0.04460484
v -0.2348555 0.6894748 0.2653332
v -0.321655 0.689797 -0.2289941
v -0.4358343 0.6375698 0.04460484
v -0.3812114 0.6374487 -0.2645242
v -0.3680554 0.6896003 0.03392559
v -0.2537805 0.6786423 0.01230267
v -0.321655 0.689797 -0.2289941
v -0.2210339 0.6784322 -0.1723067
v -0.3680554 0.6896003 0.03392559
v -0.1601753 0.6783111 0.1749569
v -0.2348555 0.6894748 0.2653332
v -0.07732034 0.6783111 -0.2928106
v -0.1170461 0.6894748 -0.4006175
v 0.1103447 0.6786423 -0.2925506
v 0.1499582 0.6896003 -0.4002675
v 0.01607937 0.689797 0.3567173
v 0.01604047 0.6784322 0.2391634
v 0.1922907 0.6786423 0.1752191
v 0.2669742 0.6896003 0.2654409
v 0.2863504 0.6783111 0.01282603
v 0.4007797 0.6894748 0.03438342
v 0.2538472 0.6784322 -0.1718856
v 0.3544538 0.689797 -0.2286241
v -0.321655 0.4612051 -0.2289941
v -0.1407191 0.5140969 -0.4663308
v -0.3812114 0.5135513 -0.2645242
v -0.1170461 0.4615263 -0.4006186
v -0.3812114 0.5135513 -0.2645242
v -0.1407191 0.636903 -0.4663308
v -0.3812114 0.6374487 -0.2645242
v -0.1407191 0.5140969 -0.4663308
v -0.1170461 0.4615263 -0.4006186
v 0.1733956 0.5134324 -0.466363
v -0.1407191 0.5140969 -0.4663308
v 0.1499582 0.4614018 -0.4002675
v -0.1407191 0.636903 -0.4663308
v -0.321655 0.689797 -0.2289941
v -0.3812114 0.6374487 -0.2645242
v -0.1170461 0.6894748 -0.4006175
v -0.1407191 0.636903 -0.4663308
v 0.1499582 0.6896003 -0.4002675
v -0.1170461 0.6894748 -0.4006175
v 0.1733956 0.6375698 -0.466363
v -0.1407191 0.5140969 -0.4663308
v 0.1733956 0.6375698 -0.466363
v -0.1407191 0.636903 -0.4663308
v 0.1733956 0.5134324 -0.466363
v 0.3112924 0.5134324 0.3167293
v 0.4007797 0.4615263 0.03438342
v 0.2669742 0.4614018 0.2654409
v 0.4683208 0.5140969 0.04468149
v 0.3112924 0.6375698 0.3167293
v 0.4683208 0.5140969 0.04468149
v 0.3112924 0.5134324 0.3167293
v 0.4683208 0.636903 0.04468149
v 0.01626605 0.5135513 0.4239883
v 0.2669742 0.4614018 0.2654409
v 0.01607937 0.4612051 0.3567173
v 0.3112924 0.5134324 0.3167293
v 0.01626605 0.5135513 0.4239883
v 0.3112924 0.6375698 0.3167293
v 0.3112924 0.5134324 0.3167293
v 0.01626605 0.6374487 0.4239883
v 0.2669742 0.6896003 0.2654409
v 0.4683208 0.636903 0.04468149
v 0.3112924 0.6375698 0.3167293
v 0.4007797 0.6894748 0.03438342
v 0.01607937 0.689797 0.3567173
v 0.3112924 0.6375698 0.3167293
v 0.01626605 0.6374487 0.4239883
v 0.2669742 0.6896003 0.2654409
v 0.01607937 0.4612051 0.3567173
v -0.278747 0.5140969 0.3166204
v 0.01626605 0.5135513 0.4239883
v -0.2348555 0.4615263 0.2653332
v 0.01626605 0.5135513 0.4239883
v -0.278747 0.636903 0.3166204
v 0.01626605 0.6374487 0.4239883
v -0.278747 0.5140969 0.3166204
v -0.278747 0.636903 0.3166204
v 0.01607937 0.689797 0.3567173
v 0.01626605 0.6374487 0.4239883
v -0.2348555 0.6894748 0.2653332
v 0.3544538 0.4612051 -0.2286241
v 0.4683208 0.5140969 0.04468149
v 0.413799 0.5135513 -0.264493
v 0.4007797 0.4615263 0.03438342
v 0.413799 0.5135513 -0.264493
v 0.4683208 0.636903 0.04468149
v 0.413799 0.6374487 -0.264493
v 0.4683208 0.5140969 0.04468149
v 0.4683208 0.636903 0.04468149
v 0.3544538 0.689797 -0.2286241
v 0.413799 0.6374487 -0.264493
v 0.4007797 0.6894748 0.03438342
v 0.413799 0.5135513 -0.264493
v 0.1499582 0.4614018 -0.4002675
v 0.3544538 0.4612051 -0.2286241
v 0.1733956 0.5134324 -0.466363
v 0.413799 0.5135513 -0.264493
v 0.1733956 0.6375698 -0.466363
v 0.1733956 0.5134324 -0.466363
v 0.413799 0.6374487 -0.264493
v 0.3544538 0.689797 -0.2286241
v 0.1733956 0.6375698 -0.466363
v 0.413799 0.6374487 -0.264493
v 0.1499582 0.6896003 -0.4002675
v 0.2600318 0.6742921 0.1056569
v 0.01626161 0.6308517 -0.03508776
v 0.2934607 0.6742921 0.01378939
v 0.1971986 0.6742921 0.180576
v 0.2934718 0.6742921 -0.08398938
v 0.2600496 0.6742921 -0.1758624
v 0.1971742 0.6742921 -0.2507015
v 0.1125014 0.6742921 -0.2994009
v 0.01624826 0.6742921 -0.3163747
v -0.07997268 0.6742921 -0.2995698
v -0.1645699 0.6742921 -0.2507337
v -0.2273997 0.6742921 -0.1758346
v -0.2608308 0.6742921 -0.08394605
v -0.2608386 0.6742921 0.01381162
v -0.2274197 0.6742921 0.1057057
v -0.1646277 0.6742921 0.1805282
v -0.0799849 0.6742921 0.2293975
v 0.01626715 0.6742921 0.2463692
v 0.1125192 0.6742921 0.2293975
vt 0.1574504 0.4205457
vt 0.168883 0.3888719
vt 0.168883 0.4205457
vt 0.1574504 0.3888719
vt 0.1329237 0.4205457
vt 0.1574504 0.3888719
vt 0.1574504 0.4205457
vt 0.1329237 0.3888719
vt 0.1574504 0.3887928
vt 0.168883 0.4205457
vt 0.168883 0.3887928
vt 0.1574504 0.4205457
vt 0.1574504 0.3887928
vt 0.1329237 0.4205457
vt 0.1574504 0.4205457
vt 0.1329237 0.3887928
vt 0.1215438 0.4205457
vt 0.1329237 0.3888719
vt 0.1329237 0.4205457
vt 0.1215438 0.3888719
vt 0.1215438 0.3887928
vt 0.1329237 0.4205457
vt 0.1329237 0.3887928
vt 0.1215438 0.4205457
vt 0.421205 0.3319462
vt 0.4082955 0.3501303
vt 0.4250291 0.3444206
vt 0.4021243 0.3300078
vt 0.4319651 0.3209091
vt 0.4194644 0.3122589
vt 0.441644 0.3525565
vt 0.4350771 0.3632244
vt 0.4633092 0.3525038
vt 0.4699816 0.3631584
vt 0.4522326 0.3052042
vt 0.4522854 0.3165445
vt 0.472632 0.3208564
vt 0.4850536 0.3121402
vt 0.4835504 0.3318275
vt 0.5025916 0.32981
vt 0.4798318 0.3443282
vt 0.4966313 0.3499588
vt 0.168883 0.4204929
vt 0.1574504 0.389017
vt 0.1574504 0.4204929
vt 0.168883 0.389017
vt 0.1574504 0.4204929
vt 0.1329237 0.389017
vt 0.1329237 0.4204929
vt 0.1574504 0.389017
vt 0.168883 0.389017
vt 0.1574504 0.4204797
vt 0.1574504 0.389017
vt 0.168883 0.4204797
vt 0.1329237 0.389017
vt 0.1215438 0.4204929
vt 0.1329237 0.4204929
vt 0.1215438 0.389017
vt 0.1329237 0.389017
vt 0.1215438 0.4204797
vt 0.1215438 0.389017
vt 0.1329237 0.4204797
vt 0.1574504 0.389017
vt 0.1329237 0.4204797
vt 0.1329237 0.389017
vt 0.1574504 0.4204797
vt 0.1574504 0.4205721
vt 0.168883 0.3887005
vt 0.168883 0.4205721
vt 0.1574504 0.3887005
vt 0.1329237 0.4205721
vt 0.1574504 0.3887005
vt 0.1574504 0.4205721
vt 0.1329237 0.3887005
vt 0.1574504 0.3886741
vt 0.168883 0.4205721
vt 0.168883 0.3886741
vt 0.1574504 0.4205721
vt 0.1574504 0.3886741
vt 0.1329237 0.4205721
vt 0.1574504 0.4205721
vt 0.1329237 0.3886741
vt 0.1215438 0.4205721
vt 0.1329237 0.3887005
vt 0.1329237 0.4205721
vt 0.1215438 0.3887005
vt 0.1215438 0.3886741
vt 0.1329237 0.4205721
vt 0.1329237 0.3886741
vt 0.1215438 0.4205721
vt 0.168883 0.4204929
vt 0.1574504 0.3888719
vt 0.1574504 0.4204929
vt 0.168883 0.3888719
vt 0.1574504 0.4204929
vt 0.1329237 0.3888719
vt 0.1329237 0.4204929
vt 0.1574504 0.3888719
vt 0.1329237 0.3888719
vt 0.1215438 0.4204929
vt 0.1329237 0.4204929
vt 0.1215438 0.3888719
vt 0.168883 0.4204929
vt 0.1574504 0.3887005
vt 0.1574504 0.4204929
vt 0.168883 0.3887005
vt 0.1574504 0.4204929
vt 0.1329237 0.3887005
vt 0.1329237 0.4204929
vt 0.1574504 0.3887005
vt 0.1329237 0.3887005
vt 0.1215438 0.4204929
vt 0.1329237 0.4204929
vt 0.1215438 0.3887005
vt 0.1574504 0.389017
vt 0.168883 0.4204797
vt 0.168883 0.389017
vt 0.1574504 0.4204797
vt 0.1574504 0.389017
vt 0.1329237 0.4204797
vt 0.1574504 0.4204797
vt 0.1329237 0.389017
vt 0.1215438 0.389017
vt 0.1329237 0.4204797
vt 0.1329237 0.389017
vt 0.1215438 0.4204797
vt 0.4418418 0.5657413
vt 0.4798977 0.5323005
vt 0.4798977 0.5657413
vt 0.4418418 0.5323005
vt 0.4798977 0.533395
vt 0.4418418 0.5657413
vt 0.4798977 0.5657413
vt 0.4418418 0.533395
vt 0.4319783 0.3209355
vt 0.4021243 0.3300078
vt 0.421205 0.3319198
vt 0.4194644 0.3122721
vt 0.4250159 0.3444206
vt 0.4082823 0.3501303
vt 0.4522854 0.3165313
vt 0.4522326 0.3052042
vt 0.4726584 0.3208564
vt 0.4850536 0.3121402
vt 0.441644 0.3525565
vt 0.4350903 0.3632112
vt 0.4699816 0.3631584
vt 0.4632829 0.3525038
vt 0.479845 0.3443282
vt 0.4966577 0.3499588
vt 0.483524 0.3318275
vt 0.5025916 0.32981
vt 0.421205 0.3319462
vt 0.4082955 0.3501303
vt 0.4250291 0.3444206
vt 0.4021243 0.3300078
vt 0.4319651 0.3209091
vt 0.4194644 0.3122589
vt 0.441644 0.3525565
vt 0.4350771 0.3632244
vt 0.4633092 0.3525038
vt 0.4699816 0.3631584
vt 0.4522326 0.3052042
vt 0.4522854 0.3165445
vt 0.472632 0.3208564
vt 0.4850536 0.3121402
vt 0.4835504 0.3318275
vt 0.5025916 0.32981
vt 0.4798318 0.3443282
vt 0.4966313 0.3499588
vt 0.4798977 0.5658863
vt 0.4418418 0.5333291
vt 0.4418418 0.5658863
vt 0.4798977 0.5333291
vt 0.4798977 0.5333291
vt 0.4418418 0.5659127
vt 0.4418418 0.5333291
vt 0.4798977 0.5659127
vt 0.4418418 0.5657017
vt 0.4798977 0.5330257
vt 0.4798977 0.5657017
vt 0.4418418 0.5330257
vt 0.4798977 0.5329862
vt 0.4418418 0.5657017
vt 0.4798977 0.5657017
vt 0.4418418 0.5329862
vt 0.4798977 0.5658863
vt 0.4418418 0.5323005
vt 0.4418418 0.5658863
vt 0.4798977 0.5323005
vt 0.4798977 0.5658863
vt 0.4418418 0.5330257
vt 0.4418418 0.5658863
vt 0.4798977 0.5330257
vt 0.4798977 0.5333027
vt 0.4418418 0.5659127
vt 0.4798977 0.5659127
vt 0.4418418 0.5333027
vt 0.2325998 0.9857153
vt 0.244006 0.9614259
vt 0.244006 0.9857153
vt 0.2325998 0.9614259
vt 0.2080862 0.9857153
vt 0.2325998 0.9614259
vt 0.2325998 0.9857153
vt 0.2080862 0.9614259
vt 0.2325998 0.9614524
vt 0.244006 0.9857153
vt 0.244006 0.9614524
vt 0.2325998 0.9857153
vt 0.2325998 0.9614524
vt 0.2080862 0.9857153
vt 0.2325998 0.9857153
vt 0.2080862 0.9614524
vt 0.4319783 0.3209355
vt 0.4021243 0.3300078
vt 0.421205 0.3319198
vt 0.4194644 0.3122721
vt 0.4250159 0.3444206
vt 0.4082823 0.3501303
vt 0.4522854 0.3165313
vt 0.4522326 0.3052042
vt 0.4726584 0.3208564
vt 0.4850536 0.3121402
vt 0.441644 0.3525565
vt 0.4350903 0.3632112
vt 0.4699816 0.3631584
vt 0.4632829 0.3525038
vt 0.479845 0.3443282
vt 0.4966577 0.3499588
vt 0.483524 0.3318275
vt 0.5025916 0.32981
vt 0.1966932 0.9857153
vt 0.2080862 0.9614259
vt 0.2080862 0.9857153
vt 0.1966932 0.9614259
vt 0.1966932 0.9614524
vt 0.2080862 0.9857153
vt 0.2080862 0.9614524
vt 0.1966932 0.9857153
vt 0.421205 0.3319462
vt 0.4082955 0.3501303
vt 0.4250291 0.3444206
vt 0.4021243 0.3300078
vt 0.4319651 0.3209091
vt 0.4194644 0.3122589
vt 0.441644 0.3525565
vt 0.4350771 0.3632244
vt 0.4633092 0.3525038
vt 0.4699816 0.3631584
vt 0.4522326 0.3052042
vt 0.4522854 0.3165445
vt 0.472632 0.3208564
vt 0.4850536 0.3121402
vt 0.4835504 0.3318275
vt 0.5025916 0.32981
vt 0.4798318 0.3443282
vt 0.4966313 0.3499588
vt 0.244006 0.9855175
vt 0.2325998 0.9614391
vt 0.2325998 0.9855175
vt 0.244006 0.9614391
vt 0.2325998 0.9855175
vt 0.2080862 0.9614391
vt 0.2080862 0.9855175
vt 0.2325998 0.9614391
vt 0.244006 0.9614391
vt 0.2325998 0.9857022
vt 0.2325998 0.9614391
vt 0.244006 0.9857022
vt 0.2080862 0.9614391
vt 0.1966932 0.9855175
vt 0.2080862 0.9855175
vt 0.1966932 0.9614391
vt 0.2080862 0.9614391
vt 0.1966932 0.9857022
vt 0.1966932 0.9614391
vt 0.2080862 0.9857022
vt 0.2325998 0.9614391
vt 0.2080862 0.9857022
vt 0.2080862 0.9614391
vt 0.2325998 0.9857022
vt 0.2325998 0.9856626
vt 0.244006 0.9614787
vt 0.244006 0.9856626
vt 0.2325998 0.9614787
vt 0.2080862 0.9856626
vt 0.2325998 0.9614787
vt 0.2325998 0.9856626
vt 0.2080862 0.9614787
vt 0.2325998 0.9611886
vt 0.244006 0.9856626
vt 0.244006 0.9611886
vt 0.2325998 0.9856626
vt 0.2325998 0.9611886
vt 0.2080862 0.9856626
vt 0.2325998 0.9856626
vt 0.2080862 0.9611886
vt 0.1966932 0.9856626
vt 0.2080862 0.9614787
vt 0.2080862 0.9856626
vt 0.1966932 0.9614787
vt 0.1966932 0.9611886
vt 0.2080862 0.9856626
vt 0.2080862 0.9611886
vt 0.1966932 0.9856626
vt 0.244006 0.9855175
vt 0.2325998 0.9614259
vt 0.2325998 0.9855175
vt 0.244006 0.9614259
vt 0.2325998 0.9855175
vt 0.2080862 0.9614259
vt 0.2080862 0.9855175
vt 0.2325998 0.9614259
vt 0.2080862 0.9614259
vt 0.1966932 0.9855175
vt 0.2080862 0.9855175
vt 0.1966932 0.9614259
vt 0.244006 0.9855175
vt 0.2325998 0.9614787
vt 0.2325998 0.9855175
vt 0.244006 0.9614787
vt 0.2325998 0.9855175
vt 0.2080862 0.9614787
vt 0.2080862 0.9855175
vt 0.2325998 0.9614787
vt 0.2080862 0.9614787
vt 0.1966932 0.9855175
vt 0.2080862 0.9855175
vt 0.1966932 0.9614787
vt 0.2325998 0.9611886
vt 0.244006 0.9857022
vt 0.244006 0.9611886
vt 0.2325998 0.9857022
vt 0.2325998 0.9611886
vt 0.2080862 0.9857022
vt 0.2325998 0.9857022
vt 0.2080862 0.9611886
vt 0.1966932 0.9611886
vt 0.2080862 0.9857022
vt 0.2080862 0.9611886
vt 0.1966932 0.9857022
vt 0.4411297 0.3527279
vt 0.4524568 0.3353615
vt 0.4317014 0.3493918
vt 0.4520217 0.3539016
vt 0.424739 0.3444073
vt 0.42106 0.3383284
vt 0.4212314 0.3318671
vt 0.4252137 0.3258409
vt 0.4324266 0.3209487
vt 0.4420263 0.3178367
vt 0.4529315 0.3167818
vt 0.4637707 0.3180081
vt 0.4732518 0.3212916
vt 0.4802142 0.326276
vt 0.4838273 0.3323813
vt 0.4836558 0.3388163
vt 0.4797263 0.3448293
vt 0.4725265 0.3497347
vt 0.4628741 0.3528862
vn -0.3348227 -0.9407498 -0.05369817
vn -0.2252644 -0.9407498 0.2534674
vn -0.3348227 -0.9407498 -0.05369817
vn -0.2252644 -0.9407498 0.2534674
vn -0.9843473 -0.00167805 0.1762316
vn -0.640021 -0.00167805 0.7683556
vn -0.9843473 -0.00167805 0.1762316
vn -0.640021 -0.00167805 0.7683556
vn -0.2956946 -0.9407498 -0.1659953
vn -0.3348227 -0.9407498 -0.05369817
vn -0.2956946 -0.9407498 -0.1659953
vn -0.3348227 -0.9407498 -0.05369817
vn -0.8591377 -0.00167805 -0.5117417
vn -0.9843473 -0.00167805 0.1762316
vn -0.9843473 -0.00167805 0.1762316
vn -0.8591377 -0.00167805 -0.5117417
vn -0.6243698 0.7652306 0.1567945
vn -0.4130787 0.757405 0.5056715
vn -0.6243698 0.7652306 0.1567945
vn -0.4130787 0.757405 0.5056715
vn -0.5461138 0.7652306 -0.3408546
vn -0.6243698 0.7652306 0.1567945
vn -0.5461138 0.7652306 -0.3408546
vn -0.6243698 0.7652306 0.1567945
vn 0.1034108 0.9921729 -0.06999388
vn 0.08775961 0.9921729 0.0888323
vn 0.08775961 0.9921729 0.0888323
vn 0.1034108 0.9921729 -0.06999388
vn 0.06428283 0.9921729 -0.1070545
vn 0.06428283 0.9921729 -0.1070545
vn 0.040806 0.9921729 0.1180162
vn 0.040806 0.9921729 0.1180162
vn -0.0296244 0.9921729 0.1213067
vn -0.0296244 0.9921729 0.1213067
vn 0.00167805 0.9921729 -0.1248605
vn 0.00167805 0.9921729 -0.1248605
vn -0.06092674 0.9921729 -0.1089994
vn -0.06092674 0.9921729 -0.1089994
vn -0.09222919 0.9921729 -0.08418251
vn -0.09222919 0.9921729 -0.08418251
vn -0.08440357 0.9921729 0.09202709
vn -0.08440357 0.9921729 0.09202709
vn -0.2956946 -0.9407498 -0.1659953
vn -0.1157059 -0.9407498 -0.3187505
vn -0.2956946 -0.9407498 -0.1659953
vn -0.1157059 -0.9407498 -0.3187505
vn -0.8591377 -0.00167805 -0.5117417
vn -0.3348227 -0.00167805 -0.9422796
vn -0.8591377 -0.00167805 -0.5117417
vn -0.3348227 -0.00167805 -0.9422796
vn -0.1157059 -0.9407498 -0.3187505
vn 0.119062 -0.9407498 -0.3175122
vn -0.1157059 -0.9407498 -0.3187505
vn 0.119062 -0.9407498 -0.3175122
vn -0.2096131 0.7730562 -0.5987039
vn -0.5461138 0.7652306 -0.3408546
vn -0.5461138 0.7652306 -0.3408546
vn -0.2096131 0.7730562 -0.5987039
vn -0.2096131 0.7730562 -0.5987039
vn 0.2207948 0.7730562 -0.5946711
vn -0.2096131 0.7730562 -0.5987039
vn 0.2207948 0.7730562 -0.5946711
vn -0.3348227 -0.00167805 -0.9422796
vn 0.3460044 -0.00167805 -0.9382314
vn -0.3348227 -0.00167805 -0.9422796
vn 0.3460044 -0.00167805 -0.9382314
vn 0.2286204 -0.9407498 0.2504446
vn 0.352038 -0.9359856 0
vn 0.2286204 -0.9407498 0.2504446
vn 0.352038 -0.9359856 0
vn 0.6433771 -0.00167805 0.7655476
vn 0.9877034 -0.00167805 0.1563304
vn 0.6433771 -0.00167805 0.7655476
vn 0.9877034 -0.00167805 0.1563304
vn 0.00167805 -0.9407498 0.3390973
vn 0.2286204 -0.9407498 0.2504446
vn 0.00167805 -0.9407498 0.3390973
vn 0.2286204 -0.9407498 0.2504446
vn 0.00167805 -0.00167805 0.9999972
vn 0.6433771 -0.00167805 0.7655476
vn 0.6433771 -0.00167805 0.7655476
vn 0.00167805 -0.00167805 0.9999972
vn 0.4164347 0.7652306 0.4909219
vn 0.6355515 0.7652306 0.1024524
vn 0.4164347 0.7652306 0.4909219
vn 0.6355515 0.7652306 0.1024524
vn 0.00167805 0.757405 0.6529433
vn 0.4164347 0.7652306 0.4909219
vn 0.00167805 0.757405 0.6529433
vn 0.4164347 0.7652306 0.4909219
vn 0.00167805 -0.9407498 0.3390973
vn -0.2252644 -0.9407498 0.2534674
vn 0.00167805 -0.9407498 0.3390973
vn -0.2252644 -0.9407498 0.2534674
vn 0.00167805 -0.00167805 0.9999972
vn -0.640021 -0.00167805 0.7683556
vn 0.00167805 -0.00167805 0.9999972
vn -0.640021 -0.00167805 0.7683556
vn -0.4130787 0.757405 0.5056715
vn 0.00167805 0.757405 0.6529433
vn 0.00167805 0.757405 0.6529433
vn -0.4130787 0.757405 0.5056715
vn 0.3068764 -0.9407498 -0.1442799
vn 0.352038 -0.9359856 0
vn 0.3068764 -0.9407498 -0.1442799
vn 0.352038 -0.9359856 0
vn 0.8703194 -0.00167805 -0.4924848
vn 0.9877034 -0.00167805 0.1563304
vn 0.8703194 -0.00167805 -0.4924848
vn 0.9877034 -0.00167805 0.1563304
vn 0.6355515 0.7652306 0.1024524
vn 0.5572955 0.7652306 -0.3222482
vn 0.5572955 0.7652306 -0.3222482
vn 0.6355515 0.7652306 0.1024524
vn 0.3068764 -0.9407498 -0.1442799
vn 0.119062 -0.9407498 -0.3175122
vn 0.3068764 -0.9407498 -0.1442799
vn 0.119062 -0.9407498 -0.3175122
vn 0.8703194 -0.00167805 -0.4924848
vn 0.3460044 -0.00167805 -0.9382314
vn 0.3460044 -0.00167805 -0.9382314
vn 0.8703194 -0.00167805 -0.4924848
vn 0.5572955 0.7652306 -0.3222482
vn 0.2207948 0.7730562 -0.5946711
vn 0.5572955 0.7652306 -0.3222482
vn 0.2207948 0.7730562 -0.5946711
vn -0.9843473 -0.00167805 0.1762316
vn -0.640021 -0.00167805 0.7683556
vn -0.9843473 -0.00167805 0.1762316
vn -0.640021 -0.00167805 0.7683556
vn -0.8591377 -0.00167805 -0.5117417
vn -0.9843473 -0.00167805 0.1762316
vn -0.9843473 -0.00167805 0.1762316
vn -0.8591377 -0.00167805 -0.5117417
vn -0.4678579 -0.8468426 -0.252916
vn -0.5304627 -0.8468426 0.03829974
vn -0.5304627 -0.8468426 0.03829974
vn -0.4678579 -0.8468426 -0.252916
vn -0.3426483 -0.8468426 0.4067551
vn -0.3426483 -0.8468426 0.4067551
vn -0.1783107 -0.839017 -0.5140581
vn -0.1861363 -0.839017 -0.5112765
vn 0.1894924 -0.8468426 -0.4969408
vn 0.1894924 -0.8468426 -0.4969408
vn 0.00167805 -0.8468426 0.5318409
vn 0.00167805 -0.8468426 0.5318409
vn 0.3538299 -0.8468426 0.3970666
vn 0.3538299 -0.8468426 0.3970666
vn 0.5332578 -0.8459528 0
vn 0.5332578 -0.8459528 0
vn 0.4712139 -0.8468426 -0.2466069
vn 0.4712139 -0.8468426 -0.2466069
vn -0.4522067 0.8826146 0.1284549
vn -0.3974275 0.8826146 -0.2510835
vn -0.3974275 0.8826146 -0.2510835
vn -0.4522067 0.8826146 0.1284549
vn -0.2956946 0.8826146 0.3654535
vn -0.2878692 0.8826146 0.3716489
vn -0.154834 0.8826146 -0.4438671
vn -0.154834 0.8826146 -0.4438671
vn 0.15819 0.8826146 -0.4426821
vn 0.15819 0.8826146 -0.4426821
vn 0.00167805 0.8826146 0.4700944
vn 0.00167805 0.8826146 0.4700944
vn 0.2990507 0.8826146 0.3627123
vn 0.2990507 0.8826146 0.3627123
vn 0.4555627 0.8826146 0.115992
vn 0.4555627 0.8826146 0.115992
vn 0.4007835 0.8826146 -0.2456911
vn 0.4007835 0.8826146 -0.2456911
vn -0.8591377 -0.00167805 -0.5117417
vn -0.3348227 -0.00167805 -0.9422796
vn -0.8591377 -0.00167805 -0.5117417
vn -0.3348227 -0.00167805 -0.9422796
vn -0.3348227 -0.00167805 -0.9422796
vn 0.3460044 -0.00167805 -0.9382314
vn -0.3348227 -0.00167805 -0.9422796
vn 0.3460044 -0.00167805 -0.9382314
vn 0.6433771 -0.00167805 0.7655476
vn 0.9877034 -0.00167805 0.1563304
vn 0.6433771 -0.00167805 0.7655476
vn 0.9877034 -0.00167805 0.1563304
vn 0.00167805 -0.00167805 0.9999972
vn 0.6433771 -0.00167805 0.7655476
vn 0.6433771 -0.00167805 0.7655476
vn 0.00167805 -0.00167805 0.9999972
vn 0.00167805 -0.00167805 0.9999972
vn -0.640021 -0.00167805 0.7683556
vn 0.00167805 -0.00167805 0.9999972
vn -0.640021 -0.00167805 0.7683556
vn 0.8703194 -0.00167805 -0.4924848
vn 0.9877034 -0.00167805 0.1563304
vn 0.8703194 -0.00167805 -0.4924848
vn 0.9877034 -0.00167805 0.1563304
vn 0.8703194 -0.00167805 -0.4924848
vn 0.3460044 -0.00167805 -0.9382314
vn 0.3460044 -0.00167805 -0.9382314
vn 0.8703194 -0.00167805 -0.4924848
vn -0.5930675 -0.799889 0.09191562
vn -0.2174388 -0.9407498 0.2602118
vn -0.3348227 -0.9407498 0.05369817
vn -0.3896019 -0.7920635 0.4699423
vn -0.9843473 -0.00167805 0.1762316
vn -0.640021 -0.00167805 0.7683556
vn -0.9843473 -0.00167805 0.1762316
vn -0.640021 -0.00167805 0.7683556
vn -0.5148115 -0.799889 -0.3084585
vn -0.3348227 -0.9407498 0.05369817
vn -0.2956946 -0.9407498 -0.1659953
vn -0.5930675 -0.799889 0.09191562
vn -0.8591377 -0.00167805 -0.5117417
vn -0.9843473 -0.00167805 0.1762316
vn -0.9843473 -0.00167805 0.1762316
vn -0.8591377 -0.00167805 -0.5117417
vn 0.08775961 -0.995529 0.03493259
vn -0.3348227 -0.9407498 0.05369817
vn 0.09557498 -0.9954223 0
vn -0.2956946 -0.9407498 -0.1659953
vn 0.06428283 -0.995529 -0.06920816
vn -0.2174388 -0.9407498 0.2602118
vn 0.040806 -0.995529 0.08518758
vn -0.1157059 -0.9407498 -0.3187505
vn -0.0296244 -0.995529 0.0896907
vn 0.119062 -0.9407498 -0.3175122
vn 0.00167805 -0.995529 -0.09444172
vn 0.00167805 -0.9407498 0.3390973
vn 0.2286204 -0.9407498 0.2504446
vn -0.05310112 -0.995529 -0.07811737
vn -0.09222919 -0.995529 -0.02039122
vn 0.3451891 -0.9385331 0
vn -0.07657796 -0.995529 0.05529772
vn 0.2990507 -0.9407498 -0.15987
vn -0.3348227 0.9373937 0.09584751
vn -0.3896019 0.7887074 0.4755533
vn -0.5930675 0.7887074 0.1618998
vn -0.2174388 0.9295681 0.297697
vn -0.2956946 0.9373937 -0.1840046
vn -0.5930675 0.7887074 0.1618998
vn -0.5148115 0.7965329 -0.3170244
vn -0.3348227 0.9373937 0.09584751
vn 0.09558523 0.9921729 -0.08035157
vn -0.2956946 0.9373937 -0.1840046
vn 0.08775961 0.9921729 0.0888323
vn -0.3348227 0.9373937 0.09584751
vn 0.06428283 0.9921729 -0.1070545
vn -0.2174388 0.9295681 0.297697
vn 0.040806 0.9921729 0.1180162
vn -0.1157059 0.9373937 -0.3284892
vn -0.0296244 0.9921729 0.1213067
vn 0.119062 0.9373937 -0.3272877
vn 0.00167805 0.9295681 0.3686466
vn 0.00167805 0.9921729 -0.1248605
vn -0.05310112 0.9921729 -0.1130187
vn 0.2286204 0.9295681 0.2891987
vn -0.09222919 0.9921729 -0.08418251
vn 0.3460044 0.9373937 0.03967341
vn -0.07657796 0.9921729 0.09863432
vn 0.2990507 0.9373937 -0.1784984
vn -0.2956946 -0.9407498 -0.1659953
vn -0.2017875 -0.8077146 -0.5539665
vn -0.5148115 -0.799889 -0.3084585
vn -0.1157059 -0.9407498 -0.3187505
vn -0.8591377 -0.00167805 -0.5117417
vn -0.3348227 -0.00167805 -0.9422796
vn -0.8591377 -0.00167805 -0.5117417
vn -0.3348227 -0.00167805 -0.9422796
vn -0.1157059 -0.9407498 -0.3187505
vn 0.2051436 -0.8077146 -0.5527325
vn -0.2017875 -0.8077146 -0.5539665
vn 0.119062 -0.9407498 -0.3175122
vn -0.2017875 0.7965329 -0.5699273
vn -0.2956946 0.9373937 -0.1840046
vn -0.5148115 0.7965329 -0.3170244
vn -0.1157059 0.9373937 -0.3284892
vn -0.2017875 0.7965329 -0.5699273
vn 0.119062 0.9373937 -0.3272877
vn -0.1157059 0.9373937 -0.3284892
vn 0.2051436 0.7965329 -0.5687279
vn -0.3348227 -0.00167805 -0.9422796
vn 0.3460044 -0.00167805 -0.9382314
vn -0.3348227 -0.00167805 -0.9422796
vn 0.3460044 -0.00167805 -0.9382314
vn 0.4007835 -0.7920635 0.4604433
vn 0.3451891 -0.9385331 0
vn 0.2286204 -0.9407498 0.2504446
vn 0.6027623 -0.7979208 0
vn 0.6433771 -0.00167805 0.7655476
vn 0.9877034 -0.00167805 0.1563304
vn 0.6433771 -0.00167805 0.7655476
vn 0.9877034 -0.00167805 0.1563304
vn 0.00167805 -0.7920635 0.6104364
vn 0.2286204 -0.9407498 0.2504446
vn 0.00167805 -0.9407498 0.3390973
vn 0.4007835 -0.7920635 0.4604433
vn 0.00167805 -0.00167805 0.9999972
vn 0.6433771 -0.00167805 0.7655476
vn 0.6433771 -0.00167805 0.7655476
vn 0.00167805 -0.00167805 0.9999972
vn 0.2286204 0.9295681 0.2891987
vn 0.6042491 0.7887074 0.1132413
vn 0.4007835 0.7887074 0.4661686
vn 0.3460044 0.9373937 0.03967341
vn 0.00167805 0.9295681 0.3686466
vn 0.4007835 0.7887074 0.4661686
vn 0.00167805 0.7887074 0.6147665
vn 0.2286204 0.9295681 0.2891987
vn 0.00167805 -0.9407498 0.3390973
vn -0.3896019 -0.7920635 0.4699423
vn 0.00167805 -0.7920635 0.6104364
vn -0.2174388 -0.9407498 0.2602118
vn 0.00167805 -0.00167805 0.9999972
vn -0.640021 -0.00167805 0.7683556
vn 0.00167805 -0.00167805 0.9999972
vn -0.640021 -0.00167805 0.7683556
vn -0.3896019 0.7887074 0.4755533
vn 0.00167805 0.9295681 0.3686466
vn 0.00167805 0.7887074 0.6147665
vn -0.2174388 0.9295681 0.297697
vn 0.2990507 -0.9407498 -0.15987
vn 0.6027623 -0.7979208 0
vn 0.5259931 -0.799889 -0.2889788
vn 0.3451891 -0.9385331 0
vn 0.8703194 -0.00167805 -0.4924848
vn 0.9877034 -0.00167805 0.1563304
vn 0.8703194 -0.00167805 -0.4924848
vn 0.9877034 -0.00167805 0.1563304
vn 0.6042491 0.7887074 0.1132413
vn 0.2990507 0.9373937 -0.1784984
vn 0.5259931 0.7965329 -0.2981049
vn 0.3460044 0.9373937 0.03967341
vn 0.5259931 -0.799889 -0.2889788
vn 0.119062 -0.9407498 -0.3175122
vn 0.2990507 -0.9407498 -0.15987
vn 0.2051436 -0.8077146 -0.5527325
vn 0.8703194 -0.00167805 -0.4924848
vn 0.3460044 -0.00167805 -0.9382314
vn 0.3460044 -0.00167805 -0.9382314
vn 0.8703194 -0.00167805 -0.4924848
vn 0.2990507 0.9373937 -0.1784984
vn 0.2051436 0.7965329 -0.5687279
vn 0.5259931 0.7965329 -0.2981049
vn 0.119062 0.9373937 -0.3272877
vn -0.1313571 0.9843473 -0.1174976
vn 0.00167805 0.9999985 -0.000422864
vn -0.1391827 0.9843473 -0.1081135
vn -0.09222919 0.9843473 -0.1501804
vn -0.1470084 0.9843473 0.09720568
vn -0.1313571 0.9843473 0.1174976
vn -0.08440357 0.9843473 0.1547141
vn -0.04527551 0.9843473 0.1703248
vn 0.00167805 0.9843473 0.1762317
vn 0.05645722 0.9843473 0.166952
vn 0.09558523 0.9843473 0.148067
vn 0.1347132 0.9843473 0.1136343
vn 0.1425388 0.9843473 0.1036488
vn 0.1503644 0.9843473 -0.09192891
vn 0.1268876 0.9843473 -0.1223108
vn 0.1034108 0.9843473 -0.1427116
vn 0.06428283 0.9843473 -0.1640979
vn -0.006147563 0.9843473 -0.1761324
vn -0.04527551 0.9843473 -0.1703248
g DSJ_GTA_daoJu_cheLun_01_0
f 3/3/3 2/2/2 1/1/1
f 2/2/2 4/4/4 1/1/1
f 7/7/7 6/6/6 5/5/5
f 6/6/6 8/8/8 5/5/5
f 11/11/11 10/10/10 9/9/9
f 10/10/10 12/12/12 9/9/9
f 15/15/15 14/14/14 13/13/13
f 14/14/14 16/16/16 13/13/13
f 19/19/19 18/18/18 17/17/17
f 18/18/18 20/20/20 17/17/17
f 23/23/23 22/22/22 21/21/21
f 22/22/22 24/24/24 21/21/21
f 27/27/27 26/26/26 25/25/25
f 26/26/26 28/28/28 25/25/25
f 25/25/25 28/28/28 29/29/29
f 28/28/28 30/30/30 29/29/29
f 27/27/27 31/31/31 26/26/26
f 31/31/31 32/32/32 26/26/26
f 31/31/31 33/33/33 32/32/32
f 33/33/33 34/34/34 32/32/32
f 29/29/29 30/30/30 35/35/35
f 36/36/36 29/29/29 35/35/35
f 36/36/36 35/35/35 37/37/37
f 35/35/35 38/38/38 37/37/37
f 37/37/37 38/38/38 39/39/39
f 38/38/38 40/40/40 39/39/39
f 39/39/39 40/40/40 41/41/41
f 40/40/40 42/42/42 41/41/41
f 41/41/41 42/42/42 33/33/33
f 42/42/42 34/34/34 33/33/33
f 45/45/45 44/44/44 43/43/43
f 44/44/44 46/46/46 43/43/43
f 49/49/49 48/48/48 47/47/47
f 48/48/48 50/50/50 47/47/47
f 53/53/53 52/52/52 51/51/51
f 52/52/52 54/54/54 51/51/51
f 57/57/57 56/56/56 55/55/55
f 56/56/56 58/58/58 55/55/55
f 61/61/61 60/60/60 59/59/59
f 60/60/60 62/62/62 59/59/59
f 65/65/65 64/64/64 63/63/63
f 64/64/64 66/66/66 63/63/63
f 69/69/69 68/68/68 67/67/67
f 68/68/68 70/70/70 67/67/67
f 73/73/73 72/72/72 71/71/71
f 72/72/72 74/74/74 71/71/71
f 77/77/77 76/76/76 75/75/75
f 76/76/76 78/78/78 75/75/75
f 81/81/81 80/80/80 79/79/79
f 80/80/80 82/82/82 79/79/79
f 85/85/85 84/84/84 83/83/83
f 84/84/84 86/86/86 83/83/83
f 89/89/89 88/88/88 87/87/87
f 88/88/88 90/90/90 87/87/87
f 93/93/93 92/92/92 91/91/91
f 92/92/92 94/94/94 91/91/91
f 97/97/97 96/96/96 95/95/95
f 96/96/96 98/98/98 95/95/95
f 101/101/101 100/100/100 99/99/99
f 100/100/100 102/102/102 99/99/99
f 105/105/105 104/104/104 103/103/103
f 104/104/104 106/106/106 103/103/103
f 109/109/109 108/108/108 107/107/107
f 108/108/108 110/110/110 107/107/107
f 113/113/113 112/112/112 111/111/111
f 112/112/112 114/114/114 111/111/111
f 117/117/117 116/116/116 115/115/115
f 116/116/116 118/118/118 115/115/115
f 121/121/121 120/120/120 119/119/119
f 120/120/120 122/122/122 119/119/119
f 125/125/125 124/124/124 123/123/123
f 124/124/124 126/126/126 123/123/123
f 129/129/129 128/128/128 127/127/127
f 128/128/128 130/130/130 127/127/127
f 133/133/133 132/132/132 131/131/131
f 132/132/132 134/134/134 131/131/131
f 137/137/137 136/136/136 135/135/135
f 136/136/136 138/138/138 135/135/135
f 137/137/137 139/139/139 136/136/136
f 139/139/139 140/140/140 136/136/136
f 135/135/135 138/138/138 141/141/141
f 138/138/138 142/142/142 141/141/141
f 141/141/141 142/142/142 143/143/143
f 142/142/142 144/144/144 143/143/143
f 139/139/139 145/145/145 140/140/140
f 145/145/145 146/146/146 140/140/140
f 147/147/147 146/146/146 145/145/145
f 148/148/148 147/147/147 145/145/145
f 148/148/148 149/149/149 147/147/147
f 149/149/149 150/150/150 147/147/147
f 149/149/149 151/151/151 150/150/150
f 151/151/151 152/152/152 150/150/150
f 151/151/151 143/143/143 152/152/152
f 143/143/143 144/144/144 152/152/152
f 155/155/155 154/154/154 153/153/153
f 154/154/154 156/156/156 153/153/153
f 153/153/153 156/156/156 157/157/157
f 156/156/156 158/158/158 157/157/157
f 155/155/155 159/159/159 154/154/154
f 159/159/159 160/160/160 154/154/154
f 159/159/159 161/161/161 160/160/160
f 161/161/161 162/162/162 160/160/160
f 157/157/157 158/158/158 163/163/163
f 164/164/164 157/157/157 163/163/163
f 164/164/164 163/163/163 165/165/165
f 163/163/163 166/166/166 165/165/165
f 165/165/165 166/166/166 167/167/167
f 166/166/166 168/168/168 167/167/167
f 167/167/167 168/168/168 169/169/169
f 168/168/168 170/170/170 169/169/169
f 169/169/169 170/170/170 161/161/161
f 170/170/170 162/162/162 161/161/161
f 173/173/173 172/172/172 171/171/171
f 172/172/172 174/174/174 171/171/171
f 177/177/177 176/176/176 175/175/175
f 176/176/176 178/178/178 175/175/175
f 181/181/181 180/180/180 179/179/179
f 180/180/180 182/182/182 179/179/179
f 185/185/185 184/184/184 183/183/183
f 184/184/184 186/186/186 183/183/183
f 189/189/189 188/188/188 187/187/187
f 188/188/188 190/190/190 187/187/187
f 193/193/193 192/192/192 191/191/191
f 192/192/192 194/194/194 191/191/191
f 197/197/197 196/196/196 195/195/195
f 196/196/196 198/198/198 195/195/195
f 201/201/201 200/200/200 199/199/199
f 200/200/200 202/202/202 199/199/199
f 205/205/205 204/204/204 203/203/203
f 204/204/204 206/206/206 203/203/203
f 209/209/209 208/208/208 207/207/207
f 208/208/208 210/210/210 207/207/207
f 213/213/213 212/212/212 211/211/211
f 212/212/212 214/214/214 211/211/211
f 217/217/217 216/216/216 215/215/215
f 216/216/216 218/218/218 215/215/215
f 217/217/217 219/219/219 216/216/216
f 219/219/219 220/220/220 216/216/216
f 215/215/215 218/218/218 221/221/221
f 218/218/218 222/222/222 221/221/221
f 221/221/221 222/222/222 223/223/223
f 222/222/222 224/224/224 223/223/223
f 219/219/219 225/225/225 220/220/220
f 225/225/225 226/226/226 220/220/220
f 227/227/227 226/226/226 225/225/225
f 228/228/228 227/227/227 225/225/225
f 228/228/228 229/229/229 227/227/227
f 229/229/229 230/230/230 227/227/227
f 229/229/229 231/231/231 230/230/230
f 231/231/231 232/232/232 230/230/230
f 231/231/231 223/223/223 232/232/232
f 223/223/223 224/224/224 232/232/232
f 235/235/235 234/234/234 233/233/233
f 234/234/234 236/236/236 233/233/233
f 239/239/239 238/238/238 237/237/237
f 238/238/238 240/240/240 237/237/237
f 243/243/243 242/242/242 241/241/241
f 242/242/242 244/244/244 241/241/241
f 241/241/241 244/244/244 245/245/245
f 244/244/244 246/246/246 245/245/245
f 243/243/243 247/247/247 242/242/242
f 247/247/247 248/248/248 242/242/242
f 247/247/247 249/249/249 248/248/248
f 249/249/249 250/250/250 248/248/248
f 245/245/245 246/246/246 251/251/251
f 252/252/252 245/245/245 251/251/251
f 252/252/252 251/251/251 253/253/253
f 251/251/251 254/254/254 253/253/253
f 253/253/253 254/254/254 255/255/255
f 254/254/254 256/256/256 255/255/255
f 255/255/255 256/256/256 257/257/257
f 256/256/256 258/258/258 257/257/257
f 257/257/257 258/258/258 249/249/249
f 258/258/258 250/250/250 249/249/249
f 261/261/261 260/260/260 259/259/259
f 260/260/260 262/262/262 259/259/259
f 265/265/265 264/264/264 263/263/263
f 264/264/264 266/266/266 263/263/263
f 269/269/269 268/268/268 267/267/267
f 268/268/268 270/270/270 267/267/267
f 273/273/273 272/272/272 271/271/271
f 272/272/272 274/274/274 271/271/271
f 277/277/277 276/276/276 275/275/275
f 276/276/276 278/278/278 275/275/275
f 281/281/281 280/280/280 279/279/279
f 280/280/280 282/282/282 279/279/279
f 285/285/285 284/284/284 283/283/283
f 284/284/284 286/286/286 283/283/283
f 289/289/289 288/288/288 287/287/287
f 288/288/288 290/290/290 287/287/287
f 293/293/293 292/292/292 291/291/291
f 292/292/292 294/294/294 291/291/291
f 297/297/297 296/296/296 295/295/295
f 296/296/296 298/298/298 295/295/295
f 301/301/301 300/300/300 299/299/299
f 300/300/300 302/302/302 299/299/299
f 305/305/305 304/304/304 303/303/303
f 304/304/304 306/306/306 303/303/303
f 309/309/309 308/308/308 307/307/307
f 308/308/308 310/310/310 307/307/307
f 313/313/313 312/312/312 311/311/311
f 312/312/312 314/314/314 311/311/311
f 317/317/317 316/316/316 315/315/315
f 316/316/316 318/318/318 315/315/315
f 321/321/321 320/320/320 319/319/319
f 320/320/320 322/322/322 319/319/319
f 325/325/325 324/324/324 323/323/323
f 324/324/324 326/326/326 323/323/323
f 329/329/329 328/328/328 327/327/327
f 328/328/328 330/330/330 327/327/327
f 333/333/333 332/332/332 331/331/331
f 332/332/332 334/334/334 331/331/331
f 337/337/337 336/336/336 335/335/335
f 336/336/336 338/338/338 335/335/335
f 341/341/341 340/340/340 339/339/339
f 340/340/340 342/342/342 339/339/339
f 345/345/345 344/344/344 343/343/343
f 344/344/344 346/346/346 343/343/343
f 345/345/345 347/347/347 344/344/344
f 347/347/347 348/348/348 344/344/344
f 344/344/344 348/348/348 349/349/349
f 349/349/349 350/350/350 344/344/344
f 350/350/350 351/351/351 344/344/344
f 351/351/351 352/352/352 344/344/344
f 352/352/352 353/353/353 344/344/344
f 353/353/353 354/354/354 344/344/344
f 354/354/354 355/355/355 344/344/344
f 355/355/355 356/356/356 344/344/344
f 356/356/356 357/357/357 344/344/344
f 357/357/357 358/358/358 344/344/344
f 358/358/358 359/359/359 344/344/344
f 359/359/359 360/360/360 344/344/344
f 360/360/360 361/361/361 344/344/344
f 361/361/361 346/346/346 344/344/344
