g DSJ_GTA_diLou_17_uvDongHua
v -3.588094 -7.586504 -1.423015
v 3.605554 -7.586504 -1.527777
v -3.553173 -7.586504 1.475396
v 3.657935 -7.586504 1.370634
v -3.553173 -8.930948 1.475396
v -3.588094 -8.930948 -1.423015
v -3.553173 -7.586504 1.475396
v -3.588094 -7.586504 -1.423015
v 3.605554 -8.930948 -1.527777
v 3.657935 -8.930948 1.370634
v 3.605554 -7.586504 -1.527777
v 3.657935 -7.586504 1.370634
v 4.618252 2.22619 -1.335714
v 4.618252 -2.8373 -1.335714
v 5.176982 2.22619 -0.07857132
v 5.176982 -2.8373 -0.07857132
v 4.670633 2.22619 1.178571
v 4.670633 -2.8373 1.178571
v 3.762697 2.22619 -1.70238
v 3.762697 -2.8373 -1.70238
v 4.618252 2.22619 -1.335714
v 4.618252 -2.8373 -1.335714
v 3.815078 -2.8373 1.562697
v 3.815078 2.22619 1.562697
v 4.670633 -2.8373 1.178571
v 4.670633 2.22619 1.178571
v -4.600791 -2.8373 -1.213491
v -4.600791 2.22619 -1.213491
v -5.1246 2.22619 0.04365063
v -5.1246 -2.8373 0.04365063
v -4.56587 2.22619 1.300793
v -4.56587 -2.8373 1.300793
v -4.600791 -2.8373 -1.213491
v -3.762696 -2.8373 -1.615079
v -4.600791 2.22619 -1.213491
v -3.762696 2.22619 -1.615079
v -4.56587 2.22619 1.300793
v -3.710316 2.22619 1.684919
v -4.56587 -2.8373 1.300793
v -3.710316 -2.8373 1.684919
v 2.470634 -7.691266 1.038888
v 2.453174 -7.691266 -1.12619
v -0.008729935 -5.211903 1.073809
v -0.04365063 -5.211903 -1.10873
v 2.453174 -2.732539 -1.12619
v 4.949998 -5.211903 -1.161111
v 2.470634 -2.732539 1.038888
v 4.967458 -5.211903 1.003967
v -0.008729935 -5.211903 1.073809
v -0.04365063 -5.211903 -1.10873
v 2.470634 -2.732539 1.038888
v 2.453174 -2.732539 -1.12619
v 2.453174 -7.691266 -1.12619
v 2.470634 -7.691266 1.038888
v 4.949998 -5.211903 -1.161111
v 4.967458 -5.211903 1.003967
v 0.008729935 -5.211903 1.073809
v -0.02619076 -5.211903 -1.10873
v -2.488094 -7.691266 1.108729
v -2.523014 -7.691266 -1.073809
v -5.019838 -5.211903 -1.038888
v -2.523014 -2.732539 -1.073809
v -4.984918 -5.211903 1.12619
v -2.488094 -2.732539 1.108729
v -2.488094 -7.691266 1.108729
v -2.523014 -7.691266 -1.073809
v -4.984918 -5.211903 1.12619
v -5.019838 -5.211903 -1.038888
v -0.02619076 -5.211903 -1.10873
v 0.008729935 -5.211903 1.073809
v -2.523014 -2.732539 -1.073809
v -2.488094 -2.732539 1.108729
v -0.3928566 7.918249 -1.300793
v -0.689682 8.249996 -1.300793
v -0.6722221 8.249996 0.689682
v -0.5674601 8.773806 -1.300793
v -0.5150785 8.773806 0.689682
v 0.008729935 8.930948 -1.300793
v 0.02619076 8.930948 0.6722221
v -0.3753967 7.918249 0.689682
v -0.3055553 7.673805 -1.300793
v -0.2706347 7.673805 0.689682
v -0.340476 7.411901 0.689682
v -0.3753967 7.411901 -1.300793
v -1.580158 7.621426 0.7071428
v -1.597618 7.621426 -1.283333
v -3.099205 7.673805 0.7246027
v -3.134126 7.673805 -1.265872
v -4.269046 7.569044 -1.248412
v -4.234125 7.569044 0.7420626
v -4.932537 7.184917 0.7420626
v -4.949998 7.184917 -1.230952
v -5.264283 6.486505 0.7420626
v -5.299204 6.486505 -1.230952
v -5.211902 5.438886 0.7420626
v -5.229362 5.438886 -1.230952
v -4.461109 4.146823 -1.248412
v -4.426188 4.146823 0.7420626
v -3.780157 3.273808 0.7246027
v -3.815078 3.273808 -1.248412
v -4.251585 2.819839 -1.248412
v -4.234125 2.819839 0.7420626
v -4.251585 1.999206 0.7420626
v -4.269046 1.999206 -1.248412
v 4.461109 4.146823 -1.370635
v 3.832538 3.273808 -1.353174
v 3.867459 3.273808 0.6373014
v 4.269046 2.819839 -1.353174
v 4.286506 2.819839 0.6198406
v 4.286506 1.999206 -1.353174
v 4.303967 1.999206 0.6198406
v 4.47857 4.146823 0.6198406
v 5.229362 5.438886 -1.370635
v 5.246823 5.438886 0.6023808
v 5.316664 6.486505 0.6023808
v 5.299204 6.486505 -1.370635
v 5.002378 7.184917 0.6198406
v 4.984919 7.184917 -1.370635
v 4.303967 7.569044 0.6198406
v 4.269046 7.569044 -1.353174
v 3.169046 7.673805 0.6373014
v 3.134126 7.673805 -1.353174
v 1.632539 7.621426 -1.318254
v 1.649999 7.621426 0.6547613
v 0.3928576 7.411901 -1.300793
v 0.4277773 7.411901 0.6722221
v 0.3579369 7.673805 0.6722221
v 0.3230162 7.673805 -1.300793
v 0.4277773 7.918249 -1.300793
v 0.4452381 7.918249 0.6722221
v 0.7071428 8.249996 0.6722221
v 0.689682 8.249996 -1.318254
v 0.5674601 8.773806 -1.318254
v 0.5849209 8.773806 0.6722221
v 0.02619076 8.930948 0.6722221
v 0.008729935 8.930948 -1.300793
vt 0.7498204 0.004906467
vt 0.7498204 0.9852594
vt 0.7922766 0.004906467
vt 0.7922766 0.9852594
vt 0.7922766 0.004906467
vt 0.7498204 0.004906467
vt 0.7922766 0.1670121
vt 0.7498204 0.1670121
vt 0.7498204 0.1670121
vt 0.7922766 0.1670121
vt 0.7498204 0.004906467
vt 0.7922766 0.004906467
vt 0.9312242 0.9080663
vt 0.9312242 0.09753824
vt 0.888768 0.9080663
vt 0.888768 0.09753824
vt 0.8463117 0.9080663
vt 0.8463117 0.09753824
vt 0.3870125 0.3522756
vt 0.3870125 0.9736804
vt 0.4063108 0.3522756
vt 0.4063108 0.9736804
vt 0.4063108 0.9736804
vt 0.4063108 0.3522756
vt 0.3870125 0.9736804
vt 0.3870125 0.3522756
vt 0.8463117 0.09753824
vt 0.8463117 0.9080663
vt 0.888768 0.9080663
vt 0.888768 0.09753824
vt 0.9312242 0.9080663
vt 0.9312242 0.09753824
vt 0.3870125 0.9736804
vt 0.4063108 0.9736804
vt 0.3870125 0.3522756
vt 0.4063108 0.3522756
vt 0.4063108 0.3522756
vt 0.3870125 0.3522756
vt 0.4063108 0.9736804
vt 0.3870125 0.9736804
vt 0.7922766 0.004906467
vt 0.7498204 0.004906467
vt 0.7922766 0.6224517
vt 0.7498204 0.6224517
vt 0.7498204 0.004906467
vt 0.7498204 0.6224517
vt 0.7922766 0.004906467
vt 0.7922766 0.6224517
vt 0.7498204 0.6224517
vt 0.7922766 0.6224517
vt 0.7498204 0.004906467
vt 0.7922766 0.004906467
vt 0.7498204 0.6224517
vt 0.7922766 0.6224517
vt 0.7498204 0.004906467
vt 0.7922766 0.004906467
vt 0.7922766 0.004906467
vt 0.7498204 0.004906467
vt 0.7922766 0.6224517
vt 0.7498204 0.6224517
vt 0.7498204 0.004906467
vt 0.7498204 0.6224517
vt 0.7922766 0.004906467
vt 0.7922766 0.6224517
vt 0.7498204 0.6224517
vt 0.7922766 0.6224517
vt 0.7498204 0.004906467
vt 0.7922766 0.004906467
vt 0.7498204 0.6224517
vt 0.7922766 0.6224517
vt 0.7498204 0.004906467
vt 0.7922766 0.004906467
vt 0.5799954 0.8656101
vt 0.5799954 0.9003469
vt 0.5491182 0.9003469
vt 0.5799954 0.9389435
vt 0.5491182 0.9389435
vt 0.5799954 0.9852594
vt 0.5491182 0.9852594
vt 0.5491182 0.8656101
vt 0.5799954 0.8424521
vt 0.5491182 0.8424521
vt 0.5491182 0.8231538
vt 0.5799954 0.8231538
vt 0.5491182 0.7266624
vt 0.5799954 0.7266624
vt 0.5491182 0.6108727
vt 0.5799954 0.6108727
vt 0.5799954 0.5221006
vt 0.5491182 0.5221006
vt 0.5491182 0.460346
vt 0.5799954 0.460346
vt 0.5491182 0.4024512
vt 0.5799954 0.4024512
vt 0.5491182 0.3175387
vt 0.5799954 0.3175387
vt 0.5799954 0.201749
vt 0.5491182 0.201749
vt 0.5491182 0.1206962
vt 0.5799954 0.1206962
vt 0.5799954 0.07052064
vt 0.5491182 0.07052064
vt 0.5491182 0.004906467
vt 0.5799954 0.004906467
vt 0.5491182 0.201749
vt 0.5491182 0.1206962
vt 0.5799954 0.1206962
vt 0.5491182 0.07052064
vt 0.5799954 0.07052064
vt 0.5491182 0.004906467
vt 0.5799954 0.004906467
vt 0.5799954 0.201749
vt 0.5491182 0.3175387
vt 0.5799954 0.3175387
vt 0.5799954 0.4024512
vt 0.5491182 0.4024512
vt 0.5799954 0.460346
vt 0.5491182 0.460346
vt 0.5799954 0.5221006
vt 0.5491182 0.5221006
vt 0.5799954 0.6108727
vt 0.5491182 0.6108727
vt 0.5491182 0.7266624
vt 0.5799954 0.7266624
vt 0.5491182 0.8231538
vt 0.5799954 0.8231538
vt 0.5799954 0.8424521
vt 0.5491182 0.8424521
vt 0.5491182 0.8656101
vt 0.5799954 0.8656101
vt 0.5799954 0.9003469
vt 0.5491182 0.9003469
vt 0.5491182 0.9389435
vt 0.5799954 0.9389435
vt 0.5799954 0.9813998
vt 0.5491182 0.9813998
g DSJ_GTA_diLou_17_uvDongHua_0
f 3/3/3 2/2/2 1/1/1
f 4/4/4 2/2/2 3/3/3
f 7/7/7 6/6/6 5/5/5
f 8/8/8 6/6/6 7/7/7
f 11/11/11 10/10/10 9/9/9
f 12/12/12 10/10/10 11/11/11
f 15/15/15 14/14/14 13/13/13
f 16/16/16 14/14/14 15/15/15
f 17/17/17 16/16/16 15/15/15
f 18/18/18 16/16/16 17/17/17
f 21/21/21 20/20/20 19/19/19
f 22/22/22 20/20/20 21/21/21
f 25/25/25 24/24/24 23/23/23
f 26/26/26 24/24/24 25/25/25
f 29/29/29 28/28/28 27/27/27
f 30/30/30 29/29/29 27/27/27
f 31/31/31 29/29/29 30/30/30
f 32/32/32 31/31/31 30/30/30
f 35/35/35 34/34/34 33/33/33
f 36/36/36 34/34/34 35/35/35
f 39/39/39 38/38/38 37/37/37
f 40/40/40 38/38/38 39/39/39
f 43/43/43 42/42/42 41/41/41
f 44/44/44 42/42/42 43/43/43
f 47/47/47 46/46/46 45/45/45
f 48/48/48 46/46/46 47/47/47
f 51/51/51 50/50/50 49/49/49
f 52/52/52 50/50/50 51/51/51
f 55/55/55 54/54/54 53/53/53
f 56/56/56 54/54/54 55/55/55
f 59/59/59 58/58/58 57/57/57
f 60/60/60 58/58/58 59/59/59
f 63/63/63 62/62/62 61/61/61
f 64/64/64 62/62/62 63/63/63
f 67/67/67 66/66/66 65/65/65
f 68/68/68 66/66/66 67/67/67
f 71/71/71 70/70/70 69/69/69
f 72/72/72 70/70/70 71/71/71
f 75/75/75 74/74/74 73/73/73
f 76/76/76 74/74/74 75/75/75
f 77/77/77 76/76/76 75/75/75
f 78/78/78 76/76/76 77/77/77
f 79/79/79 78/78/78 77/77/77
f 73/73/73 80/80/80 75/75/75
f 81/81/81 80/80/80 73/73/73
f 80/80/80 81/81/81 82/82/82
f 82/82/82 81/81/81 83/83/83
f 81/81/81 84/84/84 83/83/83
f 83/83/83 84/84/84 85/85/85
f 84/84/84 86/86/86 85/85/85
f 85/85/85 86/86/86 87/87/87
f 86/86/86 88/88/88 87/87/87
f 87/87/87 88/88/88 89/89/89
f 87/87/87 89/89/89 90/90/90
f 90/90/90 89/89/89 91/91/91
f 89/89/89 92/92/92 91/91/91
f 91/91/91 92/92/92 93/93/93
f 92/92/92 94/94/94 93/93/93
f 93/93/93 94/94/94 95/95/95
f 94/94/94 96/96/96 95/95/95
f 95/95/95 96/96/96 97/97/97
f 95/95/95 97/97/97 98/98/98
f 98/98/98 97/97/97 99/99/99
f 97/97/97 100/100/100 99/99/99
f 99/99/99 100/100/100 101/101/101
f 101/101/101 102/102/102 99/99/99
f 103/103/103 102/102/102 101/101/101
f 104/104/104 103/103/103 101/101/101
f 107/107/107 106/106/106 105/105/105
f 108/108/108 106/106/106 107/107/107
f 109/109/109 108/108/108 107/107/107
f 110/110/110 108/108/108 109/109/109
f 111/111/111 110/110/110 109/109/109
f 107/107/107 105/105/105 112/112/112
f 112/112/112 105/105/105 113/113/113
f 112/112/112 113/113/113 114/114/114
f 114/114/114 113/113/113 115/115/115
f 113/113/113 116/116/116 115/115/115
f 115/115/115 116/116/116 117/117/117
f 116/116/116 118/118/118 117/117/117
f 117/117/117 118/118/118 119/119/119
f 118/118/118 120/120/120 119/119/119
f 119/119/119 120/120/120 121/121/121
f 120/120/120 122/122/122 121/121/121
f 121/121/121 122/122/122 123/123/123
f 121/121/121 123/123/123 124/124/124
f 123/123/123 125/125/125 124/124/124
f 124/124/124 125/125/125 126/126/126
f 125/125/125 127/127/127 126/126/126
f 125/125/125 128/128/128 127/127/127
f 127/127/127 128/128/128 129/129/129
f 127/127/127 129/129/129 130/130/130
f 130/130/130 129/129/129 131/131/131
f 129/129/129 132/132/132 131/131/131
f 131/131/131 132/132/132 133/133/133
f 133/133/133 134/134/134 131/131/131
f 135/135/135 134/134/134 133/133/133
f 136/136/136 135/135/135 133/133/133
