g DSJ_GTA_daoJu_xiangZi_01
v -0.2913324 0.5032622 0.1930273
v -0.1930273 0.0090684 -0.2913364
v -0.1930273 0.5032606 -0.2913364
v -0.2913369 0.0090684 0.1930273
v 0.1930275 0.5032622 0.2913354
v -0.2913369 0.0090684 0.1930273
v -0.2913324 0.5032622 0.1930273
v 0.1930275 0.0090684 0.2913354
v 0.2913379 0.5032622 -0.1930305
v 0.1930275 0.0090684 0.2913354
v 0.1930275 0.5032622 0.2913354
v 0.2913333 0.009069145 -0.1930275
v -0.1930273 0.5032606 -0.2913364
v 0.2913333 0.009069145 -0.1930275
v 0.2913379 0.5032622 -0.1930305
v -0.1930273 0.0090684 -0.2913364
v 0.1930275 0.5032622 0.2913354
v -0.1930273 0.5032606 -0.2913364
v 0.2913379 0.5032622 -0.1930305
v -0.2913324 0.5032622 0.1930273
vt 0.3803599 0.2987245
vt 0.3477891 0.3267787
vt 0.3803599 0.3267787
vt 0.3478025 0.2987245
vt 0.3803868 0.2702805
vt 0.3478025 0.2987245
vt 0.3803599 0.2987245
vt 0.3478025 0.2702805
vt 0.3803599 0.2987245
vt 0.3477891 0.3267787
vt 0.3803599 0.3267787
vt 0.3478025 0.2987245
vt 0.3803868 0.2702805
vt 0.3478025 0.2987245
vt 0.3803599 0.2987245
vt 0.3478025 0.2702805
vt 0.3477891 0.3267787
vt 0.3249774 0.2987245
vt 0.3478025 0.2987245
vt 0.3249774 0.3267787
vn -0.9767044 -0.001657367 -0.2145827
vn -0.9767044 -0.001657367 -0.2145827
vn -0.9767044 -0.001657367 -0.2145827
vn -0.9767044 -0.001657367 -0.2145827
vn -0.192462 -0.001657367 0.981303
vn -0.192462 -0.001657367 0.981303
vn -0.192462 -0.001657367 0.981303
vn -0.192462 -0.001657367 0.981303
vn 0.9800192 -0.001657367 0.1988962
vn 0.9800192 -0.001657367 0.1988962
vn 0.9800192 -0.001657367 0.1988962
vn 0.9800192 -0.001657367 0.1988962
vn 0.2035415 -0.001657367 -0.9790649
vn 0.2035415 -0.001657367 -0.9790649
vn 0.2035415 -0.001657367 -0.9790649
vn 0.2035415 -0.001657367 -0.9790649
vn 0.001657367 0.9999986 0
vn 0.001657367 0.9999986 0
vn 0.001657367 0.9999986 0
vn 0.001657367 0.9999986 0
g DSJ_GTA_daoJu_xiangZi_01_0
f 3/3/3 2/2/2 1/1/1
f 4/4/4 1/1/1 2/2/2
f 7/7/7 6/6/6 5/5/5
f 8/8/8 5/5/5 6/6/6
f 11/11/11 10/10/10 9/9/9
f 12/12/12 9/9/9 10/10/10
f 15/15/15 14/14/14 13/13/13
f 16/16/16 13/13/13 14/14/14
f 19/19/19 18/18/18 17/17/17
f 20/20/20 17/17/17 18/18/18
