g DSJ_GTA_diLou_6
v -4.619637 1.377972 -2.602835
v -5.358779 -3.088557 -2.602835
v -4.619637 -3.088557 -2.602835
v -5.358779 1.377972 -2.592276
v -5.369338 -3.088557 -2.074877
v -5.358779 1.377972 -2.592276
v -5.369338 1.684188 -2.074877
v -5.358779 -3.088557 -2.602835
v -1.800339 1.377972 2.592276
v 4.19727 -0.1847854 2.592276
v -0.6071525 -0.1847854 2.592276
v 4.640755 1.377972 2.592276
v -0.6071525 -3.088557 2.592276
v -1.800339 -3.088557 2.592276
v 4.661873 -3.088557 2.592276
v 4.19727 -3.088557 2.592276
v 5.295424 -3.088557 2.613395
v 4.640755 1.377972 2.623954
v 5.295424 1.377972 2.613395
v 4.661873 -3.088557 2.623954
v 4.19727 -0.2375813 2.465566
v 4.19727 -3.088557 2.592276
v 4.19727 -3.088557 2.465566
v 4.19727 -0.1847854 2.592276
v -0.6071525 -3.088557 2.465566
v -0.6071525 -0.1847854 2.592276
v -0.6071525 -0.2375813 2.465566
v -0.6071525 -3.088557 2.592276
v -4.851938 -3.088557 2.592276
v -2.243824 -1.388531 2.592276
v -1.800339 -3.088557 2.592276
v -4.841379 -1.388531 2.592276
v -2.243824 0.02639818 2.592276
v -1.800339 1.377972 2.592276
v -4.841379 0.02639818 2.592276
v -4.851938 1.377972 2.592276
v -4.841379 -1.388531 2.623954
v -5.358779 1.377972 2.613395
v -4.841379 0.02639818 2.623954
v -5.358779 -3.088557 2.613395
v -4.851938 1.377972 2.623954
v -4.851938 -3.088557 2.623954
v -2.243824 -1.388531 2.465566
v -4.841379 -1.388531 2.592276
v -4.841379 -1.388531 2.465566
v -2.243824 -1.388531 2.592276
v -2.243824 0.02639818 2.465566
v -2.243824 -1.388531 2.592276
v -2.243824 -1.388531 2.465566
v -2.243824 0.02639818 2.592276
v -4.841379 0.02639818 2.592276
v -2.243824 0.02639818 2.465566
v -4.841379 0.02639818 2.465566
v -2.243824 0.02639818 2.592276
v -4.841379 -1.388531 2.465566
v -4.841379 0.02639818 2.592276
v -4.841379 0.02639818 2.465566
v -4.841379 -1.388531 2.592276
v -4.841379 0.02639818 2.465566
v -2.243824 -1.388531 2.465566
v -4.841379 -1.388531 2.465566
v -2.243824 0.02639818 2.465566
v -0.5860338 -0.5543561 2.497244
v 4.144474 -3.088557 2.497244
v -0.5860338 -3.088557 2.497244
v 4.144474 -0.5543561 2.497244
v 4.123356 -0.5543561 2.634513
v -0.5860338 -0.5543561 2.497244
v -0.5437975 -0.5543561 2.634513
v 4.144474 -0.5543561 2.497244
v -0.5437975 -0.2375813 2.497244
v 4.123356 -0.2375813 2.634513
v -0.5437975 -0.2375813 2.634513
v 4.123356 -0.2375813 2.497244
v 4.123356 -0.3326139 2.687309
v -0.5437975 -0.4593239 2.687309
v -0.5437975 -0.3326139 2.687309
v 4.123356 -0.4593239 2.687309
v -0.5437975 -0.2375813 2.497244
v -0.5437975 -0.5543561 2.634513
v -0.5860338 -0.5543561 2.497244
v -0.5437975 -0.2375813 2.634513
v -0.5437975 -0.4593239 2.687309
v -0.5437975 -0.3326139 2.687309
v 4.123356 -0.3326139 2.687309
v 4.123356 -0.5543561 2.634513
v 4.123356 -0.4593239 2.687309
v 4.123356 -0.2375813 2.634513
v 4.144474 -0.5543561 2.497244
v 4.123356 -0.2375813 2.497244
v -0.5437975 -0.4593239 2.687309
v 4.123356 -0.5543561 2.634513
v -0.5437975 -0.5543561 2.634513
v 4.123356 -0.4593239 2.687309
v 4.123356 -0.3326139 2.687309
v -0.5437975 -0.2375813 2.634513
v 4.123356 -0.2375813 2.634513
v -0.5437975 -0.3326139 2.687309
v -4.809702 -1.356853 2.602836
v -2.296619 -1.356853 2.560599
v -2.296619 -1.356853 2.602836
v -4.809702 -1.356853 2.560599
v -4.894176 -1.420208 2.560599
v -2.212146 -1.420208 2.602836
v -2.212146 -1.420208 2.560599
v -4.894176 -1.420208 2.602836
v -4.894176 -1.420208 2.602836
v -2.296619 -1.356853 2.602836
v -2.212146 -1.420208 2.602836
v -4.809702 -1.356853 2.602836
v -2.296619 -1.356853 2.602836
v -2.296619 -0.005279541 2.560599
v -2.296619 -0.005279541 2.602836
v -2.296619 -1.356853 2.560599
v -2.212146 -1.420208 2.560599
v -2.212146 0.05807543 2.602836
v -2.212146 0.05807543 2.560599
v -2.212146 -1.420208 2.602836
v -2.212146 -1.420208 2.602836
v -2.296619 -0.005279541 2.602836
v -2.212146 0.05807543 2.602836
v -2.296619 -1.356853 2.602836
v -2.296619 -0.005279541 2.602836
v -4.809702 -0.005279541 2.560599
v -4.809702 -0.005279541 2.602836
v -2.296619 -0.005279541 2.560599
v -2.212146 0.05807543 2.560599
v -4.894176 0.05807543 2.602836
v -4.894176 0.05807543 2.560599
v -2.212146 0.05807543 2.602836
v -2.212146 0.05807543 2.602836
v -4.809702 -0.005279541 2.602836
v -4.894176 0.05807543 2.602836
v -2.296619 -0.005279541 2.602836
v -4.809702 -0.005279541 2.602836
v -4.809702 -1.356853 2.560599
v -4.809702 -1.356853 2.602836
v -4.809702 -0.005279541 2.560599
v -4.894176 0.05807543 2.560599
v -4.894176 -1.420208 2.602836
v -4.894176 -1.420208 2.560599
v -4.894176 0.05807543 2.602836
v -4.894176 0.05807543 2.602836
v -4.809702 -1.356853 2.602836
v -4.894176 -1.420208 2.602836
v -4.809702 -0.005279541 2.602836
v -0.5332384 -3.088557 2.539481
v -0.5332384 -0.2375813 2.613395
v -0.5332384 -0.2375813 2.539481
v -0.5332384 -3.088557 2.613395
v -0.5332384 -3.088557 2.613395
v -0.6705074 -0.06863451 2.613395
v -0.5332384 -0.2375813 2.613395
v -0.6705074 -3.088557 2.613395
v -0.6705074 -3.088557 2.613395
v -0.6705074 -0.06863451 2.539481
v -0.6705074 -0.06863451 2.613395
v -0.6705074 -3.088557 2.539481
v 4.250066 -3.088557 2.539481
v 4.250066 -0.06863451 2.613395
v 4.250066 -0.06863451 2.539481
v 4.250066 -3.088557 2.613395
v 4.250066 -3.088557 2.613395
v 4.102237 -0.2375813 2.613395
v 4.250066 -0.06863451 2.613395
v 4.102237 -3.088557 2.613395
v 4.102237 -3.088557 2.613395
v 4.102237 -0.2375813 2.539481
v 4.102237 -0.2375813 2.613395
v 4.102237 -3.088557 2.539481
v 4.250066 -0.06863451 2.539481
v -0.6705074 -0.06863451 2.613395
v -0.6705074 -0.06863451 2.539481
v 4.250066 -0.06863451 2.613395
v 4.250066 -0.06863451 2.613395
v -0.5332384 -0.2375813 2.613395
v -0.6705074 -0.06863451 2.613395
v 4.102237 -0.2375813 2.613395
v 4.102237 -0.2375813 2.613395
v -0.5332384 -0.2375813 2.539481
v -0.5332384 -0.2375813 2.613395
v 4.102237 -0.2375813 2.539481
v -5.316543 -3.088557 2.127673
v -5.316543 1.684188 -0.005279541
v -5.316543 1.684188 2.127673
v -5.316543 -3.088557 -0.005279541
v -5.316543 -3.088557 -2.074877
v -5.316543 1.684188 -2.074877
v -5.316543 1.684188 -0.005279541
v -5.316543 2.993525 -0.005279541
v -5.316543 1.684188 2.127673
v -5.316543 1.684188 -2.074877
v 5.253187 1.684188 -0.005279541
v 5.253187 2.993525 -0.005279541
v 5.253187 1.684188 -2.074877
v 5.253187 1.684188 2.127673
v -5.401015 2.887933 -0.005279541
v -5.401015 1.187907 -3.05688
v -5.401015 3.077998 -0.005279541
v -5.390456 1.040078 -3.025202
v -2.708427 1.040078 -3.025202
v -0.02639818 1.187907 -3.05688
v -2.708427 1.187907 -3.05688
v -0.02639818 1.040078 -3.025202
v -5.401015 3.077998 -0.005279541
v -2.708427 1.187907 -3.05688
v -2.708427 3.077998 -0.005279541
v -5.401015 1.187907 -3.05688
v 2.634513 1.040078 -3.025202
v 5.305983 1.187907 -3.05688
v 2.634513 1.187907 -3.05688
v 5.305983 1.040078 -3.025202
v -0.02639818 1.040078 -3.025202
v 2.634513 1.187907 -3.05688
v -0.02639818 1.187907 -3.05688
v 2.634513 1.040078 -3.025202
v -5.401015 1.187907 -3.05688
v -2.708427 1.040078 -3.025202
v -2.708427 1.187907 -3.05688
v -5.390456 1.040078 -3.025202
v -0.02639818 1.187907 -3.05688
v -2.708427 3.077998 -0.005279541
v -2.708427 1.187907 -3.05688
v -0.02639818 3.077998 -0.005279541
v 5.305983 2.887933 -0.005279541
v 5.305983 1.187907 -3.05688
v 5.305983 1.040078 -3.025202
v 5.305983 3.077998 -0.005279541
v 5.305983 1.187907 -3.05688
v 2.634513 3.077998 -0.005279541
v 2.634513 1.187907 -3.05688
v 5.305983 3.077998 -0.005279541
v 2.634513 1.187907 -3.05688
v -0.02639818 3.077998 -0.005279541
v -0.02639818 1.187907 -3.05688
v 2.634513 3.077998 -0.005279541
v -5.401015 2.887933 -0.005279541
v -5.401015 1.187907 3.046321
v -5.390456 1.040078 2.993525
v -5.401015 3.077998 -0.005279541
v -2.708427 1.040078 2.993525
v -0.02639818 1.187907 3.046321
v -0.02639818 1.040078 2.993525
v -2.708427 1.187907 3.046321
v -5.401015 3.077998 -0.005279541
v -2.708427 1.187907 3.046321
v -5.401015 1.187907 3.046321
v -2.708427 3.077998 -0.005279541
v 2.634513 1.040078 2.993525
v 5.305983 1.187907 3.046321
v 5.305983 1.040078 2.993525
v 2.634513 1.187907 3.046321
v -0.02639818 1.040078 2.993525
v 2.634513 1.187907 3.046321
v 2.634513 1.040078 2.993525
v -0.02639818 1.187907 3.046321
v -5.401015 1.187907 3.046321
v -2.708427 1.040078 2.993525
v -5.390456 1.040078 2.993525
v -2.708427 1.187907 3.046321
v -0.02639818 1.187907 3.046321
v -2.708427 3.077998 -0.005279541
v -0.02639818 3.077998 -0.005279541
v -2.708427 1.187907 3.046321
v 5.305983 2.887933 -0.005279541
v 5.305983 1.187907 3.046321
v 5.305983 3.077998 -0.005279541
v 5.305983 1.040078 2.993525
v 5.305983 1.187907 3.046321
v 2.634513 3.077998 -0.005279541
v 5.305983 3.077998 -0.005279541
v 2.634513 1.187907 3.046321
v 2.634513 1.187907 3.046321
v -0.02639818 3.077998 -0.005279541
v 2.634513 3.077998 -0.005279541
v -0.02639818 1.187907 3.046321
v 4.778024 1.377972 -2.571158
v -0.05807543 -3.088557 -2.571158
v 4.778024 -3.088557 -2.571158
v -0.05807543 1.377972 -2.571158
v -5.401015 2.887933 -0.005279541
v -5.073681 1.356853 -2.507803
v -5.390456 1.040078 -3.025202
v -5.073681 2.887933 -0.005279541
v -5.390456 1.040078 -3.025202
v -2.708427 1.356853 -2.507803
v -2.708427 1.040078 -3.025202
v -5.073681 1.356853 -2.507803
v -2.708427 1.040078 -3.025202
v -0.02639818 1.356853 -2.507803
v -0.02639818 1.040078 -3.025202
v -2.708427 1.356853 -2.507803
v -0.02639818 1.040078 -3.025202
v 2.634513 1.356853 -2.507803
v 2.634513 1.040078 -3.025202
v -0.02639818 1.356853 -2.507803
v 2.634513 1.040078 -3.025202
v 4.999767 1.356853 -2.507803
v 5.305983 1.040078 -3.025202
v 2.634513 1.356853 -2.507803
v 5.305983 1.040078 -3.025202
v 4.999767 2.887933 -0.005279541
v 5.305983 2.887933 -0.005279541
v 4.999767 1.356853 -2.507803
v 5.305983 2.887933 -0.005279541
v 4.999767 1.356853 2.497244
v 5.305983 1.040078 2.993525
v 4.999767 2.887933 -0.005279541
v 5.305983 1.040078 2.993525
v 2.634513 1.356853 2.497244
v 2.634513 1.040078 2.993525
v 4.999767 1.356853 2.497244
v 2.634513 1.040078 2.993525
v -0.02639818 1.356853 2.497244
v -0.02639818 1.040078 2.993525
v 2.634513 1.356853 2.497244
v -0.02639818 1.040078 2.993525
v -2.708427 1.356853 2.497244
v -2.708427 1.040078 2.993525
v -0.02639818 1.356853 2.497244
v -2.708427 1.040078 2.993525
v -5.073681 1.356853 2.497244
v -5.390456 1.040078 2.993525
v -2.708427 1.356853 2.497244
v -5.390456 1.040078 2.993525
v -5.073681 2.887933 -0.005279541
v -5.401015 2.887933 -0.005279541
v -5.073681 1.356853 2.497244
v 5.253187 -0.1425486 -0.05807543
v 5.253187 -3.088557 -2.074877
v 5.253187 -3.088557 -0.05807543
v 5.253187 1.684188 -2.074877
v 5.253187 1.684188 -0.005279541
v 5.253187 -0.1425486 1.948167
v 5.253187 1.684188 2.127673
v 5.253187 -3.088557 2.127673
v 5.253187 -3.088557 1.948167
v 5.295424 -3.088557 2.613395
v 5.295424 1.684188 2.127673
v 5.295424 -3.088557 2.127673
v 5.295424 1.377972 2.613395
v 5.042004 -0.1425486 -0.05807543
v 5.253187 -3.088557 -0.05807543
v 5.052563 -3.088557 -0.05807543
v 5.253187 -0.1425486 -0.05807543
v 5.063122 -3.088557 1.948167
v 5.253187 -0.1425486 1.948167
v 5.042004 -0.1425486 1.948167
v 5.253187 -3.088557 1.948167
v 5.105359 -0.5543561 1.969285
v 5.105359 -3.088557 -0.05807543
v 5.105359 -3.088557 1.969285
v 5.105359 -0.5543561 -0.05807543
v 5.33766 -0.5543561 -0.005279541
v 5.105359 -0.5543561 1.969285
v 5.33766 -0.5543561 1.91649
v 5.105359 -0.5543561 -0.05807543
v 5.105359 -0.2375813 1.91649
v 5.33766 -0.2375813 -0.005279541
v 5.33766 -0.2375813 1.91649
v 5.105359 -0.2375813 -0.005279541
v 5.401015 -0.3326139 -0.005279541
v 5.401015 -0.4593239 1.91649
v 5.401015 -0.3326139 1.91649
v 5.401015 -0.4593239 -0.005279541
v 5.105359 -0.2375813 1.91649
v 5.33766 -0.5543561 1.91649
v 5.105359 -0.5543561 1.969285
v 5.33766 -0.2375813 1.91649
v 5.401015 -0.3326139 -0.005279541
v 5.33766 -0.5543561 -0.005279541
v 5.401015 -0.4593239 -0.005279541
v 5.33766 -0.2375813 -0.005279541
v 5.105359 -0.5543561 -0.05807543
v 5.105359 -0.2375813 -0.005279541
v 5.401015 -0.4593239 1.91649
v 5.33766 -0.5543561 -0.005279541
v 5.33766 -0.5543561 1.91649
v 5.401015 -0.4593239 -0.005279541
v 5.401015 -0.3326139 -0.005279541
v 5.33766 -0.2375813 1.91649
v 5.33766 -0.2375813 -0.005279541
v 5.401015 -0.3326139 1.91649
v 5.33766 -0.2375813 1.91649
v 5.401015 -0.4593239 1.91649
v 5.33766 -0.5543561 1.91649
v 5.401015 -0.3326139 1.91649
v 5.200391 -3.088557 1.90593
v 5.33766 -0.2375813 1.90593
v 5.200391 -0.2375813 1.90593
v 5.33766 -3.088557 1.90593
v 5.33766 -3.088557 1.90593
v 5.33766 -0.06863451 1.990404
v 5.33766 -0.2375813 1.90593
v 5.33766 -3.088557 1.990404
v 5.33766 -3.088557 1.990404
v 5.200391 -0.06863451 1.990404
v 5.33766 -0.06863451 1.990404
v 5.200391 -3.088557 1.990404
v 5.200391 -3.088557 -0.08975267
v 5.33766 -0.06863451 -0.08975267
v 5.200391 -0.06863451 -0.08975267
v 5.33766 -3.088557 -0.08975267
v 5.33766 -3.088557 -0.08975267
v 5.33766 -0.2375813 -0.005279541
v 5.33766 -0.06863451 -0.08975267
v 5.33766 -3.088557 -0.005279541
v 5.33766 -3.088557 -0.005279541
v 5.200391 -0.2375813 -0.005279541
v 5.33766 -0.2375813 -0.005279541
v 5.200391 -3.088557 -0.005279541
v 5.200391 -0.06863451 -0.08975267
v 5.33766 -0.06863451 1.990404
v 5.200391 -0.06863451 1.990404
v 5.33766 -0.06863451 -0.08975267
v 5.33766 -0.06863451 -0.08975267
v 5.33766 -0.2375813 1.90593
v 5.33766 -0.06863451 1.990404
v 5.33766 -0.2375813 -0.005279541
v 5.33766 -0.2375813 -0.005279541
v 5.200391 -0.2375813 1.90593
v 5.33766 -0.2375813 1.90593
v 5.200391 -0.2375813 -0.005279541
v 5.295424 -3.088557 -2.602835
v 5.295424 1.684188 -2.074877
v 5.295424 1.377972 -2.602835
v 5.295424 -3.088557 -2.074877
v -0.05807543 1.377972 -2.571158
v -4.619637 -3.088557 -2.571158
v -0.05807543 -3.088557 -2.571158
v -4.619637 1.377972 -2.571158
v 5.295424 1.377972 -2.602835
v 4.778024 -3.088557 -2.602835
v 5.295424 -3.088557 -2.602835
v 4.778024 1.377972 -2.602835
v -5.358779 -3.088557 2.613395
v -5.369338 1.684188 2.127673
v -5.358779 1.377972 2.613395
v -5.369338 -3.088557 2.127673
v -5.316543 -3.088557 -2.074877
v -5.369338 1.684188 -2.074877
v -5.316543 1.684188 -2.074877
v -5.369338 -3.088557 -2.074877
v -4.619637 1.377972 -2.571158
v -4.619637 -3.088557 -2.602835
v -4.619637 -3.088557 -2.571158
v -4.619637 1.377972 -2.602835
v 4.640755 1.377972 2.592276
v 4.661873 -3.088557 2.623954
v 4.661873 -3.088557 2.592276
v 4.640755 1.377972 2.623954
v 4.661873 -3.088557 2.592276
v 5.295424 -3.088557 2.613395
v 5.253187 -3.088557 2.592276
v 4.661873 -3.088557 2.623954
v 5.253187 -3.088557 2.592276
v 5.295424 -3.088557 2.127673
v 5.253187 -3.088557 2.127673
v 5.295424 -3.088557 2.613395
v 5.253187 -3.088557 2.127673
v 5.295424 1.684188 2.127673
v 5.253187 1.684188 2.127673
v 5.295424 -3.088557 2.127673
v -4.851938 -3.088557 2.592276
v -4.841379 -1.388531 2.623954
v -4.841379 -1.388531 2.592276
v -4.851938 -3.088557 2.623954
v -4.841379 -1.388531 2.592276
v -4.841379 0.02639818 2.623954
v -4.841379 0.02639818 2.592276
v -4.841379 -1.388531 2.623954
v -4.841379 0.02639818 2.592276
v -4.851938 1.377972 2.623954
v -4.851938 1.377972 2.592276
v -4.841379 0.02639818 2.623954
v -5.316543 1.684188 2.127673
v -5.369338 -3.088557 2.127673
v -5.316543 -3.088557 2.127673
v -5.369338 1.684188 2.127673
v 4.778024 -3.088557 -2.571158
v 4.778024 1.377972 -2.602835
v 4.778024 1.377972 -2.571158
v 4.778024 -3.088557 -2.602835
v 5.253187 1.684188 -2.074877
v 5.295424 -3.088557 -2.074877
v 5.253187 -3.088557 -2.074877
v 5.295424 1.684188 -2.074877
vt 0.1399513 0.1050521
vt 0.1554621 0.0003543792
vt 0.1399513 0.0003543792
vt 0.1554621 0.1050521
vt 0.1554621 0.0003543792
vt 0.1360736 0.1050521
vt 0.1554621 0.1128075
vt 0.1360736 0.0003543792
vt 0.5781305 0.0003543792
vt 0.6207852 0.1554621
vt 0.6207852 0.03137592
vt 0.5781305 0.1670952
vt 0.7060944 0.03137592
vt 0.7060944 0.0003543792
vt 0.7060944 0.1670952
vt 0.7060944 0.1554621
vt 0.1554621 0.0003543792
vt 0.1399513 0.1050521
vt 0.1554621 0.1050521
vt 0.143829 0.0003543792
vt 0.5742528 0.1787282
vt 0.6401736 0.1709729
vt 0.6401736 0.1787282
vt 0.5742528 0.1709729
vt 0.6401736 0.1787282
vt 0.5742528 0.1709729
vt 0.5742528 0.1787282
vt 0.6401736 0.1709729
vt 0.7060944 0.0003543792
vt 0.6595621 0.06627516
vt 0.7060944 0.07790823
vt 0.6595621 0.0003543792
vt 0.6169075 0.06627516
vt 0.5781305 0.07790823
vt 0.6169075 0.0003543792
vt 0.5781305 0.0003543792
vt 0.1554621 0.03913131
vt 0.143829 0.1050521
vt 0.1554621 0.07403054
vt 0.143829 0.0003543792
vt 0.1554621 0.1050521
vt 0.1554621 0.0003543792
vt 0.5742528 0.1787282
vt 0.6401736 0.1709729
vt 0.6401736 0.1787282
vt 0.5742528 0.1709729
vt 0.5742528 0.1787282
vt 0.6401736 0.1709729
vt 0.6401736 0.1787282
vt 0.5742528 0.1709729
vt 0.6401736 0.1709729
vt 0.5742528 0.1787282
vt 0.6401736 0.1787282
vt 0.5742528 0.1709729
vt 0.6401736 0.1787282
vt 0.5742528 0.1709729
vt 0.5742528 0.1787282
vt 0.6401736 0.1709729
vt 0.5199652 0.0003543792
vt 0.5703752 0.07790823
vt 0.5703752 0.0003543792
vt 0.5199652 0.07790823
vt 0.5044544 0.1283182
vt 0.5703752 0.2485267
vt 0.5703752 0.1283182
vt 0.5044544 0.2485267
vt 0.5044544 0.2485267
vt 0.5044544 0.1283182
vt 0.5044544 0.1283182
vt 0.5044544 0.2485267
vt 0.496699 0.1283182
vt 0.496699 0.2485267
vt 0.496699 0.1283182
vt 0.496699 0.2485267
vt 0.496699 0.2485267
vt 0.5005767 0.1283182
vt 0.496699 0.1283182
vt 0.5005767 0.2485267
vt 0.496699 0.1283182
vt 0.5044544 0.1283182
vt 0.5044544 0.1283182
vt 0.496699 0.1283182
vt 0.5005767 0.1283182
vt 0.496699 0.1283182
vt 0.496699 0.2485267
vt 0.5044544 0.2485267
vt 0.5005767 0.2485267
vt 0.496699 0.2485267
vt 0.5044544 0.2485267
vt 0.496699 0.2485267
vt 0.5005767 0.1283182
vt 0.5044544 0.2485267
vt 0.5044544 0.1283182
vt 0.5005767 0.2485267
vt 0.496699 0.2485267
vt 0.496699 0.1283182
vt 0.496699 0.2485267
vt 0.496699 0.1283182
vt 0.496699 0.1166852
vt 0.5703752 0.1283182
vt 0.5703752 0.1166852
vt 0.496699 0.1283182
vt 0.496699 0.1283182
vt 0.5703752 0.1166852
vt 0.5703752 0.1283182
vt 0.496699 0.1166852
vt 0.496699 0.1089298
vt 0.5703752 0.1166852
vt 0.5703752 0.1089298
vt 0.496699 0.1166852
vt 0.5703752 0.1283182
vt 0.496699 0.1166852
vt 0.496699 0.1283182
vt 0.5703752 0.1166852
vt 0.5703752 0.1166852
vt 0.496699 0.1283182
vt 0.496699 0.1166852
vt 0.5703752 0.1283182
vt 0.5703752 0.1089298
vt 0.496699 0.1166852
vt 0.496699 0.1089298
vt 0.5703752 0.1166852
vt 0.5703752 0.1166852
vt 0.496699 0.1283182
vt 0.496699 0.1166852
vt 0.5703752 0.1283182
vt 0.5703752 0.1283182
vt 0.496699 0.1166852
vt 0.496699 0.1283182
vt 0.5703752 0.1166852
vt 0.5703752 0.1089298
vt 0.496699 0.1166852
vt 0.496699 0.1089298
vt 0.5703752 0.1166852
vt 0.496699 0.1283182
vt 0.5703752 0.1166852
vt 0.5703752 0.1283182
vt 0.496699 0.1166852
vt 0.496699 0.1166852
vt 0.5703752 0.1283182
vt 0.5703752 0.1166852
vt 0.496699 0.1283182
vt 0.496699 0.1089298
vt 0.5703752 0.1166852
vt 0.5703752 0.1089298
vt 0.496699 0.1166852
vt 0.5703752 0.1283182
vt 0.496699 0.1166852
vt 0.496699 0.1283182
vt 0.5703752 0.1166852
vt 0.496699 0.1089298
vt 0.5703752 0.1166852
vt 0.5703752 0.1089298
vt 0.496699 0.1166852
vt 0.496699 0.1166852
vt 0.5703752 0.1283182
vt 0.5703752 0.1166852
vt 0.496699 0.1283182
vt 0.496699 0.1166852
vt 0.5703752 0.1283182
vt 0.5703752 0.1166852
vt 0.496699 0.1283182
vt 0.496699 0.1166852
vt 0.5703752 0.1089298
vt 0.5703752 0.1166852
vt 0.496699 0.1089298
vt 0.496699 0.1166852
vt 0.5703752 0.1283182
vt 0.5703752 0.1166852
vt 0.496699 0.1283182
vt 0.5703752 0.1166852
vt 0.496699 0.1283182
vt 0.496699 0.1166852
vt 0.5703752 0.1283182
vt 0.5703752 0.1166852
vt 0.496699 0.1089298
vt 0.496699 0.1166852
vt 0.5703752 0.1089298
vt 0.5703752 0.1166852
vt 0.496699 0.1283182
vt 0.496699 0.1166852
vt 0.5703752 0.1283182
vt 0.7060944 0.004232072
vt 0.5781305 0.07790823
vt 0.5781305 0.004232072
vt 0.7060944 0.07790823
vt 0.7060944 0.1515844
vt 0.5781305 0.1515844
vt 0.7060944 0.07790823
vt 0.6711952 0.07790823
vt 0.7060944 0.004232072
vt 0.7060944 0.1515844
vt 0.7060944 0.08178592
vt 0.6711952 0.08178592
vt 0.7060944 0.1515844
vt 0.7060944 0.008109764
vt 0.6595621 0.2136275
vt 0.5742528 0.2213829
vt 0.6595621 0.2213829
vt 0.5742528 0.2136275
vt 0.636296 0.244649
vt 0.6401736 0.1826059
vt 0.6401736 0.244649
vt 0.636296 0.1826059
vt 0.5742528 0.1826059
vt 0.6595621 0.244649
vt 0.5742528 0.244649
vt 0.6595621 0.1826059
vt 0.636296 0.244649
vt 0.6401736 0.1826059
vt 0.6401736 0.244649
vt 0.636296 0.1826059
vt 0.636296 0.244649
vt 0.6401736 0.1826059
vt 0.6401736 0.244649
vt 0.636296 0.1826059
vt 0.6401736 0.244649
vt 0.636296 0.1826059
vt 0.6401736 0.1826059
vt 0.636296 0.244649
vt 0.6595621 0.244649
vt 0.5742528 0.1826059
vt 0.6595621 0.1826059
vt 0.5742528 0.244649
vt 0.6595621 0.2136275
vt 0.5742528 0.2213829
vt 0.5742528 0.2136275
vt 0.6595621 0.2213829
vt 0.6595621 0.244649
vt 0.5742528 0.1826059
vt 0.6595621 0.1826059
vt 0.5742528 0.244649
vt 0.6595621 0.244649
vt 0.5742528 0.1826059
vt 0.6595621 0.1826059
vt 0.5742528 0.244649
vt 0.6595621 0.2136275
vt 0.5742528 0.2213829
vt 0.5742528 0.2136275
vt 0.6595621 0.2213829
vt 0.636296 0.244649
vt 0.6401736 0.1826059
vt 0.636296 0.1826059
vt 0.6401736 0.244649
vt 0.5742528 0.1826059
vt 0.6595621 0.244649
vt 0.6595621 0.1826059
vt 0.5742528 0.244649
vt 0.636296 0.244649
vt 0.6401736 0.1826059
vt 0.636296 0.1826059
vt 0.6401736 0.244649
vt 0.636296 0.244649
vt 0.6401736 0.1826059
vt 0.636296 0.1826059
vt 0.6401736 0.244649
vt 0.6401736 0.244649
vt 0.636296 0.1826059
vt 0.636296 0.244649
vt 0.6401736 0.1826059
vt 0.6595621 0.244649
vt 0.5742528 0.1826059
vt 0.5742528 0.244649
vt 0.6595621 0.1826059
vt 0.6595621 0.2136275
vt 0.5742528 0.2213829
vt 0.6595621 0.2213829
vt 0.5742528 0.2136275
vt 0.6595621 0.244649
vt 0.5742528 0.1826059
vt 0.5742528 0.244649
vt 0.6595621 0.1826059
vt 0.6595621 0.244649
vt 0.5742528 0.1826059
vt 0.5742528 0.244649
vt 0.6595621 0.1826059
vt 0.5781305 0.1321959
vt 0.7060944 0.004232072
vt 0.7060944 0.1321959
vt 0.5781305 0.004232072
vt 0.5742528 0.2252606
vt 0.6440513 0.2330159
vt 0.6595621 0.2252606
vt 0.5742528 0.2330159
vt 0.6595621 0.1826059
vt 0.6246629 0.244649
vt 0.6595621 0.244649
vt 0.6246629 0.1903613
vt 0.6595621 0.1826059
vt 0.6246629 0.244649
vt 0.6595621 0.244649
vt 0.6246629 0.1826059
vt 0.6595621 0.244649
vt 0.6246629 0.1826059
vt 0.6595621 0.1826059
vt 0.6246629 0.244649
vt 0.6595621 0.244649
vt 0.6246629 0.1903613
vt 0.6595621 0.1826059
vt 0.6246629 0.244649
vt 0.6595621 0.2252606
vt 0.5742528 0.2330159
vt 0.5742528 0.2252606
vt 0.6440513 0.2330159
vt 0.5742528 0.2252606
vt 0.6440513 0.2330159
vt 0.6595621 0.2252606
vt 0.5742528 0.2330159
vt 0.6595621 0.1826059
vt 0.6246629 0.244649
vt 0.6595621 0.244649
vt 0.6246629 0.1903613
vt 0.6595621 0.1826059
vt 0.6246629 0.244649
vt 0.6595621 0.244649
vt 0.6246629 0.1826059
vt 0.6595621 0.244649
vt 0.6246629 0.1826059
vt 0.6595621 0.1826059
vt 0.6246629 0.244649
vt 0.6595621 0.244649
vt 0.6246629 0.1903613
vt 0.6595621 0.1826059
vt 0.6246629 0.244649
vt 0.6595621 0.2252606
vt 0.5742528 0.2330159
vt 0.5742528 0.2252606
vt 0.6440513 0.2330159
vt 0.6285406 0.08178592
vt 0.7060944 0.1515844
vt 0.7060944 0.08178592
vt 0.5781305 0.1515844
vt 0.5781305 0.08178592
vt 0.6285406 0.01586515
vt 0.5781305 0.008109764
vt 0.7060944 0.008109764
vt 0.7060944 0.01586515
vt 0.1399513 0.0003543792
vt 0.1593398 0.1128075
vt 0.1593398 0.0003543792
vt 0.1399513 0.1050521
vt 0.5742528 0.1787282
vt 0.6401736 0.1748506
vt 0.6401736 0.1787282
vt 0.5742528 0.1748506
vt 0.6401736 0.1748506
vt 0.5742528 0.1709729
vt 0.5742528 0.1748506
vt 0.6401736 0.1709729
vt 0.5044544 0.1826059
vt 0.5703752 0.2485267
vt 0.5703752 0.1826059
vt 0.5044544 0.2485267
vt 0.5044544 0.2485267
vt 0.5044544 0.1826059
vt 0.5044544 0.1826059
vt 0.5044544 0.2485267
vt 0.496699 0.1826059
vt 0.496699 0.2485267
vt 0.496699 0.1826059
vt 0.496699 0.2485267
vt 0.496699 0.2485267
vt 0.5005767 0.1826059
vt 0.496699 0.1826059
vt 0.5005767 0.2485267
vt 0.496699 0.1826059
vt 0.5044544 0.1826059
vt 0.5044544 0.1826059
vt 0.496699 0.1826059
vt 0.496699 0.2485267
vt 0.5044544 0.2485267
vt 0.5005767 0.2485267
vt 0.496699 0.2485267
vt 0.5044544 0.2485267
vt 0.496699 0.2485267
vt 0.5005767 0.1826059
vt 0.5044544 0.2485267
vt 0.5044544 0.1826059
vt 0.5005767 0.2485267
vt 0.496699 0.2485267
vt 0.496699 0.1826059
vt 0.496699 0.2485267
vt 0.496699 0.1826059
vt 0.496699 0.1826059
vt 0.5005767 0.1826059
vt 0.5044544 0.1826059
vt 0.496699 0.1826059
vt 0.496699 0.1166852
vt 0.5703752 0.1283182
vt 0.5703752 0.1166852
vt 0.496699 0.1283182
vt 0.496699 0.1089298
vt 0.5703752 0.1166852
vt 0.5703752 0.1089298
vt 0.496699 0.1166852
vt 0.496699 0.1166852
vt 0.5703752 0.1283182
vt 0.5703752 0.1166852
vt 0.496699 0.1283182
vt 0.496699 0.1166852
vt 0.5703752 0.1283182
vt 0.5703752 0.1166852
vt 0.496699 0.1283182
vt 0.496699 0.1166852
vt 0.5703752 0.1089298
vt 0.5703752 0.1166852
vt 0.496699 0.1089298
vt 0.496699 0.1166852
vt 0.5703752 0.1283182
vt 0.5703752 0.1166852
vt 0.496699 0.1283182
vt 0.5703752 0.1283182
vt 0.496699 0.1166852
vt 0.496699 0.1283182
vt 0.5703752 0.1166852
vt 0.5703752 0.1166852
vt 0.496699 0.1089298
vt 0.496699 0.1166852
vt 0.5703752 0.1089298
vt 0.5703752 0.1283182
vt 0.496699 0.1166852
vt 0.496699 0.1283182
vt 0.5703752 0.1166852
vt 0.1593398 0.0003543792
vt 0.1399513 0.1128075
vt 0.1593398 0.1050521
vt 0.1399513 0.0003543792
vt 0.5781305 0.1205629
vt 0.7060944 0.0003543792
vt 0.7060944 0.1205629
vt 0.5781305 0.0003543792
vt 0.143829 0.1050521
vt 0.1554621 0.0003543792
vt 0.143829 0.0003543792
vt 0.1554621 0.1050521
vt 0.1515844 0.0003543792
vt 0.1360736 0.1128075
vt 0.1515844 0.1050521
vt 0.1360736 0.0003543792
vt 0.2136275 0.0003543792
vt 0.2019944 0.1128075
vt 0.2136275 0.1128075
vt 0.2019944 0.0003543792
vt 0.2019944 0.1128075
vt 0.2136275 0.0003543792
vt 0.2019944 0.0003543792
vt 0.2136275 0.1128075
vt 0.2019944 0.1128075
vt 0.2136275 0.0003543792
vt 0.2019944 0.0003543792
vt 0.2136275 0.1128075
vt 0.143829 0.0003543792
vt 0.1554621 0.0003543792
vt 0.1554621 0.0003543792
vt 0.143829 0.0003543792
vt 0.1399513 0.0003543792
vt 0.1593398 0.0003543792
vt 0.1593398 0.0003543792
vt 0.1399513 0.0003543792
vt 0.2136275 0.0003543792
vt 0.2019944 0.1128075
vt 0.2136275 0.1128075
vt 0.2019944 0.0003543792
vt 0.2136275 0.0003543792
vt 0.2019944 0.1128075
vt 0.2136275 0.1128075
vt 0.2019944 0.0003543792
vt 0.2019944 0.1128075
vt 0.2136275 0.0003543792
vt 0.2019944 0.0003543792
vt 0.2136275 0.1128075
vt 0.2136275 0.0003543792
vt 0.2019944 0.1128075
vt 0.2136275 0.1128075
vt 0.2019944 0.0003543792
vt 0.2019944 0.1128075
vt 0.2136275 0.0003543792
vt 0.2019944 0.0003543792
vt 0.2136275 0.1128075
vt 0.2136275 0.0003543792
vt 0.2019944 0.1128075
vt 0.2136275 0.1128075
vt 0.2019944 0.0003543792
vt 0.2019944 0.1128075
vt 0.2136275 0.0003543792
vt 0.2019944 0.0003543792
vt 0.2136275 0.1128075
vn 0.04761302 -0.04761302 -0.9977304
vn 0.04761302 -0.04761302 -0.9977304
vn 0.04761302 -0.04761302 -0.9977304
vn 0.04761302 -0.04761302 -0.9977304
vn -0.968132 -0.04761302 -0.2458728
vn -0.968132 -0.04761302 -0.2458728
vn -0.968132 -0.04761302 -0.2458728
vn -0.968132 -0.04761302 -0.2458728
vn 0.04761302 -0.04761302 0.9977304
vn 0.04761302 -0.04761302 0.9977304
vn 0.04761302 -0.04761302 0.9977304
vn 0.04761302 -0.04761302 0.9977304
vn 0.04761302 -0.04761302 0.9977304
vn 0.04761302 -0.04761302 0.9977304
vn 0.04761302 -0.04761302 0.9977304
vn 0.04761302 -0.04761302 0.9977304
vn 0.04761302 -0.04761302 0.9977304
vn 0.04761302 -0.04761302 0.9977304
vn 0.04761302 -0.04761302 0.9977304
vn 0.04761302 -0.04761302 0.9977304
vn -0.999874 -0.01587099 -0.000346655
vn -0.999874 -0.01587099 -0.000346655
vn -0.999874 -0.01587099 -0.000346655
vn -0.999874 -0.01587099 -0.000346655
vn 0.999874 -0.01587099 -0.000346655
vn 0.999874 -0.01587099 -0.000346655
vn 0.999874 -0.01587099 -0.000346655
vn 0.999874 -0.01587099 -0.000346655
vn 0.04761302 -0.04761302 0.9977304
vn 0.04761302 -0.04761302 0.9977304
vn 0.04761302 -0.04761302 0.9977304
vn 0.04761302 -0.04761302 0.9977304
vn 0.04761302 -0.04761302 0.9977304
vn 0.04761302 -0.04761302 0.9977304
vn 0.04761302 -0.04761302 0.9977304
vn 0.04761302 -0.04761302 0.9977304
vn -0.01587105 -0.04761302 0.9987398
vn -0.01587105 -0.04761302 0.9987398
vn -0.01587105 -0.04761302 0.9987398
vn -0.01587105 -0.04761302 0.9987398
vn -0.01587105 -0.04761302 0.9987398
vn -0.01587105 -0.04761302 0.9987398
vn 0.01587099 0.999874 -0.000345267
vn 0.01587099 0.999874 -0.000345267
vn 0.01587099 0.999874 -0.000345267
vn 0.01587099 0.999874 -0.000345267
vn -0.999874 -0.01587099 -0.000346655
vn -0.999874 -0.01587099 -0.000346655
vn -0.999874 -0.01587099 -0.000346655
vn -0.999874 -0.01587099 -0.000346655
vn 0.01587099 -0.999874 -0.000345267
vn 0.01587099 -0.999874 -0.000345267
vn 0.01587099 -0.999874 -0.000345267
vn 0.01587099 -0.999874 -0.000345267
vn 0.999874 -0.01587099 -0.000346655
vn 0.999874 -0.01587099 -0.000346655
vn 0.999874 -0.01587099 -0.000346655
vn 0.999874 -0.01587099 -0.000346655
vn 0.04761302 -0.04761302 0.9977304
vn 0.04761302 -0.04761302 0.9977304
vn 0.04761302 -0.04761302 0.9977304
vn 0.04761302 -0.04761302 0.9977304
vn 0.04761302 -0.04761302 0.9977304
vn 0.04761302 -0.04761302 0.9977304
vn 0.04761302 -0.04761302 0.9977304
vn 0.04761302 -0.04761302 0.9977304
vn 0.01587099 -0.999874 -0.000345267
vn 0.01587099 -0.999874 -0.000345267
vn 0.01587099 -0.999874 -0.000345267
vn 0.01587099 -0.999874 -0.000345267
vn 0.01587099 0.999874 -0.000345267
vn 0.01587099 0.999874 -0.000345267
vn 0.01587099 0.999874 -0.000345267
vn 0.01587099 0.999874 -0.000345267
vn 0.04761302 -0.04761302 0.9977304
vn 0.04761302 -0.04761302 0.9977304
vn 0.04761302 -0.04761302 0.9977304
vn 0.04761302 -0.04761302 0.9977304
vn -0.999874 -0.01587099 -0.000346655
vn -0.999874 -0.01587099 -0.000346655
vn -0.999874 -0.01587099 -0.000346655
vn -0.999874 -0.01587099 -0.000346655
vn -0.999874 -0.01587099 -0.000346655
vn -0.999874 -0.01587099 -0.000346655
vn 0.999874 -0.01587099 -0.000346655
vn 0.999874 -0.01587099 -0.000346655
vn 0.999874 -0.01587099 -0.000346655
vn 0.999874 -0.01587099 -0.000346655
vn 0.999874 -0.01587099 -0.000346655
vn 0.999874 -0.01587099 -0.000346655
vn 0.04761302 -0.5237435 0.8505444
vn 0.04761302 -0.5237435 0.8505444
vn 0.04761302 -0.5237435 0.8505444
vn 0.04761302 -0.5237435 0.8505444
vn 0.04761302 0.4602594 0.8865068
vn 0.04761302 0.4602594 0.8865068
vn 0.04761302 0.4602594 0.8865068
vn 0.04761302 0.4602594 0.8865068
vn 0.01587099 0.999874 -0.000345267
vn 0.01587099 0.999874 -0.000345267
vn 0.01587099 0.999874 -0.000345267
vn 0.01587099 0.999874 -0.000345267
vn 0.01587099 -0.999874 -0.000345267
vn 0.01587099 -0.999874 -0.000345267
vn 0.01587099 -0.999874 -0.000345267
vn 0.01587099 -0.999874 -0.000345267
vn 0.04761302 -0.04761302 0.9977304
vn 0.04761302 -0.04761302 0.9977304
vn 0.04761302 -0.04761302 0.9977304
vn 0.04761302 -0.04761302 0.9977304
vn -0.999874 -0.01587099 -0.000346655
vn -0.999874 -0.01587099 -0.000346655
vn -0.999874 -0.01587099 -0.000346655
vn -0.999874 -0.01587099 -0.000346655
vn 0.999874 -0.01587099 -0.000346655
vn 0.999874 -0.01587099 -0.000346655
vn 0.999874 -0.01587099 -0.000346655
vn 0.999874 -0.01587099 -0.000346655
vn 0.04761302 -0.04761302 0.9977304
vn 0.04761302 -0.04761302 0.9977304
vn 0.04761302 -0.04761302 0.9977304
vn 0.04761302 -0.04761302 0.9977304
vn 0.01587099 -0.999874 -0.000345267
vn 0.01587099 -0.999874 -0.000345267
vn 0.01587099 -0.999874 -0.000345267
vn 0.01587099 -0.999874 -0.000345267
vn 0.01587099 0.999874 -0.000345267
vn 0.01587099 0.999874 -0.000345267
vn 0.01587099 0.999874 -0.000345267
vn 0.01587099 0.999874 -0.000345267
vn 0.04761302 -0.04761302 0.9977304
vn 0.04761302 -0.04761302 0.9977304
vn 0.04761302 -0.04761302 0.9977304
vn 0.04761302 -0.04761302 0.9977304
vn 0.999874 -0.01587099 -0.000346655
vn 0.999874 -0.01587099 -0.000346655
vn 0.999874 -0.01587099 -0.000346655
vn 0.999874 -0.01587099 -0.000346655
vn -0.999874 -0.01587099 -0.000346655
vn -0.999874 -0.01587099 -0.000346655
vn -0.999874 -0.01587099 -0.000346655
vn -0.999874 -0.01587099 -0.000346655
vn 0.04761302 -0.04761302 0.9977304
vn 0.04761302 -0.04761302 0.9977304
vn 0.04761302 -0.04761302 0.9977304
vn 0.04761302 -0.04761302 0.9977304
vn 0.999874 -0.01587099 -0.000346655
vn 0.999874 -0.01587099 -0.000346655
vn 0.999874 -0.01587099 -0.000346655
vn 0.999874 -0.01587099 -0.000346655
vn 0.04761302 -0.04761302 0.9977304
vn 0.04761302 -0.04761302 0.9977304
vn 0.04761302 -0.04761302 0.9977304
vn 0.04761302 -0.04761302 0.9977304
vn -0.999874 -0.01587099 -0.000346655
vn -0.999874 -0.01587099 -0.000346655
vn -0.999874 -0.01587099 -0.000346655
vn -0.999874 -0.01587099 -0.000346655
vn 0.999874 -0.01587099 -0.000346655
vn 0.999874 -0.01587099 -0.000346655
vn 0.999874 -0.01587099 -0.000346655
vn 0.999874 -0.01587099 -0.000346655
vn 0.04761302 -0.04761302 0.9977304
vn 0.04761302 -0.04761302 0.9977304
vn 0.04761302 -0.04761302 0.9977304
vn 0.04761302 -0.04761302 0.9977304
vn -0.968132 -0.04761302 -0.2458728
vn -0.968132 -0.04761302 -0.2458728
vn -0.968132 -0.04761302 -0.2458728
vn -0.968132 -0.04761302 -0.2458728
vn 0.01587099 0.999874 -0.000345267
vn 0.01587099 0.999874 -0.000345267
vn 0.01587099 0.999874 -0.000345267
vn 0.01587099 0.999874 -0.000345267
vn 0.04761302 -0.04761302 0.9977304
vn 0.04761302 -0.04761302 0.9977304
vn 0.04761302 -0.04761302 0.9977304
vn 0.04761302 -0.04761302 0.9977304
vn 0.01587099 -0.999874 -0.000345267
vn 0.01587099 -0.999874 -0.000345267
vn 0.01587099 -0.999874 -0.000345267
vn 0.01587099 -0.999874 -0.000345267
vn -0.999874 -0.01587099 -0.000346655
vn -0.999874 -0.01587099 -0.000346655
vn -0.999874 -0.01587099 -0.000346655
vn -0.999874 -0.01587099 -0.000346655
vn -0.999874 -0.01587099 -0.000346655
vn -0.999874 -0.01587099 -0.000346655
vn -0.999874 -0.01587099 -0.000346655
vn -0.999874 -0.01587099 -0.000346655
vn -0.999874 -0.01587099 -0.000346655
vn -0.999874 -0.01587099 -0.000346655
vn 0.999874 -0.01587099 -0.000346655
vn 0.999874 -0.01587099 -0.000346655
vn 0.999874 -0.01587099 -0.000346655
vn 0.999874 -0.01587099 -0.000346655
vn -0.999874 -0.01587099 -0.000346655
vn -0.999874 -0.01587099 -0.000346655
vn -0.999874 -0.01587099 -0.000346655
vn -0.999874 -0.01587099 -0.000346655
vn 0.04761302 -0.3650333 -0.9297761
vn 0.04761302 -0.3650333 -0.9297761
vn 0.04761302 -0.3650333 -0.9297761
vn 0.04761302 -0.3650333 -0.9297761
vn 0.04761302 0.8411639 -0.5386802
vn 0.04761302 0.8411639 -0.5386802
vn 0.04761302 0.8411639 -0.5386802
vn 0.04761302 0.8411639 -0.5386802
vn 0.04761302 -0.3650333 -0.9297761
vn 0.04761302 -0.3650333 -0.9297761
vn 0.04761302 -0.3650333 -0.9297761
vn 0.04761302 -0.3650333 -0.9297761
vn 0.04761302 -0.3650333 -0.9297761
vn 0.04761302 -0.3650333 -0.9297761
vn 0.04761302 -0.3650333 -0.9297761
vn 0.04761302 -0.3650333 -0.9297761
vn 0.04761302 -0.3650333 -0.9297761
vn 0.04761302 -0.3650333 -0.9297761
vn 0.04761302 -0.3650333 -0.9297761
vn 0.04761302 -0.3650333 -0.9297761
vn 0.04761302 0.8411639 -0.5386802
vn 0.04761302 0.8411639 -0.5386802
vn 0.04761302 0.8411639 -0.5386802
vn 0.04761302 0.8411639 -0.5386802
vn 0.999874 -0.01587099 -0.000346655
vn 0.999874 -0.01587099 -0.000346655
vn 0.999874 -0.01587099 -0.000346655
vn 0.999874 -0.01587099 -0.000346655
vn 0.04761302 0.8411639 -0.5386802
vn 0.04761302 0.8411639 -0.5386802
vn 0.04761302 0.8411639 -0.5386802
vn 0.04761302 0.8411639 -0.5386802
vn 0.04761302 0.8411639 -0.5386802
vn 0.04761302 0.8411639 -0.5386802
vn 0.04761302 0.8411639 -0.5386802
vn 0.04761302 0.8411639 -0.5386802
vn -0.999874 -0.01587099 -0.000346655
vn -0.999874 -0.01587099 -0.000346655
vn -0.999874 -0.01587099 -0.000346655
vn -0.999874 -0.01587099 -0.000346655
vn 0.04761302 -0.3650333 0.9297761
vn 0.04761302 -0.3650333 0.9297761
vn 0.04761302 -0.3650333 0.9297761
vn 0.04761302 -0.3650333 0.9297761
vn 0.04761302 0.8411639 0.5386802
vn 0.04761302 0.8411639 0.5386802
vn 0.04761302 0.8411639 0.5386802
vn 0.04761302 0.8411639 0.5386802
vn 0.04761302 -0.3650333 0.9297761
vn 0.04761302 -0.3650333 0.9297761
vn 0.04761302 -0.3650333 0.9297761
vn 0.04761302 -0.3650333 0.9297761
vn 0.04761302 -0.3650333 0.9297761
vn 0.04761302 -0.3650333 0.9297761
vn 0.04761302 -0.3650333 0.9297761
vn 0.04761302 -0.3650333 0.9297761
vn 0.04761302 -0.3650333 0.9297761
vn 0.04761302 -0.3650333 0.9297761
vn 0.04761302 -0.3650333 0.9297761
vn 0.04761302 -0.3650333 0.9297761
vn 0.04761302 0.8411639 0.5386802
vn 0.04761302 0.8411639 0.5386802
vn 0.04761302 0.8411639 0.5386802
vn 0.04761302 0.8411639 0.5386802
vn 0.999874 -0.01587099 -0.000346655
vn 0.999874 -0.01587099 -0.000346655
vn 0.999874 -0.01587099 -0.000346655
vn 0.999874 -0.01587099 -0.000346655
vn 0.04761302 0.8411639 0.5386802
vn 0.04761302 0.8411639 0.5386802
vn 0.04761302 0.8411639 0.5386802
vn 0.04761302 0.8411639 0.5386802
vn 0.04761302 0.8411639 0.5386802
vn 0.04761302 0.8411639 0.5386802
vn 0.04761302 0.8411639 0.5386802
vn 0.04761302 0.8411639 0.5386802
vn 0.04761302 -0.04761302 -0.9977304
vn 0.04761302 -0.04761302 -0.9977304
vn 0.04761302 -0.04761302 -0.9977304
vn 0.04761302 -0.04761302 -0.9977304
vn 0.04761302 -0.9046479 0.4234917
vn 0.04761302 -0.9046479 0.4234917
vn 0.04761302 -0.9046479 0.4234917
vn 0.04761302 -0.9046479 0.4234917
vn 0.04761302 -0.9046479 0.4234917
vn 0.04761302 -0.9046479 0.4234917
vn 0.04761302 -0.9046479 0.4234917
vn 0.04761302 -0.9046479 0.4234917
vn 0.04761302 -0.9046479 0.4234917
vn 0.04761302 -0.9046479 0.4234917
vn 0.04761302 -0.9046479 0.4234917
vn 0.04761302 -0.9046479 0.4234917
vn 0.04761302 -0.9046479 0.4234917
vn 0.04761302 -0.9046479 0.4234917
vn 0.04761302 -0.9046479 0.4234917
vn 0.04761302 -0.9046479 0.4234917
vn 0.04761302 -0.9046479 0.4234917
vn 0.04761302 -0.9046479 0.4234917
vn 0.04761302 -0.9046479 0.4234917
vn 0.04761302 -0.9046479 0.4234917
vn 0.04761302 -0.9046479 0.4234917
vn 0.04761302 -0.9046479 0.4234917
vn 0.04761302 -0.9046479 0.4234917
vn -0.01587105 -0.9046479 0.4258642
vn 0.04761302 -0.9046479 -0.4234917
vn 0.04761302 -0.9046479 -0.4234917
vn 0.04761302 -0.9046479 -0.4234917
vn 0.04761302 -0.9046479 -0.4234917
vn 0.04761302 -0.9046479 -0.4234917
vn 0.04761302 -0.9046479 -0.4234917
vn 0.04761302 -0.9046479 -0.4234917
vn 0.04761302 -0.9046479 -0.4234917
vn 0.04761302 -0.9046479 -0.4234917
vn 0.04761302 -0.9046479 -0.4234917
vn 0.04761302 -0.9046479 -0.4234917
vn 0.04761302 -0.9046479 -0.4234917
vn 0.04761302 -0.9046479 -0.4234917
vn 0.04761302 -0.9046479 -0.4234917
vn 0.04761302 -0.9046479 -0.4234917
vn 0.04761302 -0.9046479 -0.4234917
vn 0.04761302 -0.9046479 -0.4234917
vn 0.04761302 -0.9046479 -0.4234917
vn 0.04761302 -0.9046479 -0.4234917
vn 0.04761302 -0.9046479 -0.4234917
vn 0.04761302 -0.9046479 -0.4234917
vn 0.04761302 -0.9046479 -0.4234917
vn 0.04761302 -0.9046479 -0.4234917
vn 0.07935506 -0.9046479 -0.4187063
vn 0.999874 -0.01587099 -0.000346655
vn 0.999874 -0.01587099 -0.000346655
vn 0.999874 -0.01587099 -0.000346655
vn 0.999874 -0.01587099 -0.000346655
vn 0.999874 -0.01587099 -0.000346655
vn 0.999874 -0.01587099 -0.000346655
vn 0.999874 -0.01587099 -0.000346655
vn 0.999874 -0.01587099 -0.000346655
vn 0.999874 -0.01587099 -0.000346655
vn 0.999874 -0.01587099 -0.000346655
vn 0.999874 -0.01587099 -0.000346655
vn 0.999874 -0.01587099 -0.000346655
vn 0.999874 -0.01587099 -0.000346655
vn 0.04761302 -0.04761302 0.9977304
vn 0.04761302 -0.04761302 0.9977304
vn 0.04761302 -0.04761302 0.9977304
vn 0.04761302 -0.04761302 0.9977304
vn 0.04761302 -0.04761302 -0.9977304
vn 0.04761302 -0.04761302 -0.9977304
vn 0.04761302 -0.04761302 -0.9977304
vn 0.04761302 -0.04761302 -0.9977304
vn 0.999874 -0.01587099 -0.000346655
vn 0.999874 -0.01587099 -0.000346655
vn 0.999874 -0.01587099 -0.000346655
vn 0.999874 -0.01587099 -0.000346655
vn 0.01587099 -0.999874 -0.000345267
vn 0.01587099 -0.999874 -0.000345267
vn 0.01587099 -0.999874 -0.000345267
vn 0.01587099 -0.999874 -0.000345267
vn 0.01587099 0.999874 -0.000345267
vn 0.01587099 0.999874 -0.000345267
vn 0.01587099 0.999874 -0.000345267
vn 0.01587099 0.999874 -0.000345267
vn 0.999874 -0.01587099 -0.000346655
vn 0.999874 -0.01587099 -0.000346655
vn 0.999874 -0.01587099 -0.000346655
vn 0.999874 -0.01587099 -0.000346655
vn 0.04761302 -0.04761302 0.9977304
vn 0.04761302 -0.04761302 0.9977304
vn 0.04761302 -0.04761302 0.9977304
vn 0.04761302 -0.04761302 0.9977304
vn 0.04761302 -0.04761302 -0.9977304
vn 0.04761302 -0.04761302 -0.9977304
vn 0.04761302 -0.04761302 -0.9977304
vn 0.04761302 -0.04761302 -0.9977304
vn 0.04761302 -0.04761302 -0.9977304
vn 0.04761302 -0.04761302 -0.9977304
vn 0.7378055 -0.6750135 0
vn 0.7378055 -0.6750135 0
vn 0.7378055 -0.6750135 0
vn 0.7378055 -0.6750135 0
vn 0.7669368 0.6417226 0
vn 0.7669368 0.6417226 0
vn 0.7669368 0.6417226 0
vn 0.7669368 0.6417226 0
vn 0.04761302 -0.04761302 0.9977304
vn 0.04761302 -0.04761302 0.9977304
vn 0.04761302 -0.04761302 0.9977304
vn 0.04761302 -0.04761302 0.9977304
vn 0.04761302 -0.04761302 -0.9977304
vn 0.04761302 -0.04761302 -0.9977304
vn 0.04761302 -0.04761302 -0.9977304
vn 0.04761302 -0.04761302 -0.9977304
vn 0.999874 -0.01587099 -0.000346655
vn 0.999874 -0.01587099 -0.000346655
vn 0.999874 -0.01587099 -0.000346655
vn 0.999874 -0.01587099 -0.000346655
vn 0.04761302 -0.04761302 0.9977304
vn 0.04761302 -0.04761302 0.9977304
vn 0.04761302 -0.04761302 0.9977304
vn 0.04761302 -0.04761302 0.9977304
vn 0.04761302 -0.04761302 -0.9977304
vn 0.04761302 -0.04761302 -0.9977304
vn 0.04761302 -0.04761302 -0.9977304
vn 0.04761302 -0.04761302 -0.9977304
vn 0.999874 -0.01587099 -0.000346655
vn 0.999874 -0.01587099 -0.000346655
vn 0.999874 -0.01587099 -0.000346655
vn 0.999874 -0.01587099 -0.000346655
vn 0.04761302 -0.04761302 0.9977304
vn 0.04761302 -0.04761302 0.9977304
vn 0.04761302 -0.04761302 0.9977304
vn 0.04761302 -0.04761302 0.9977304
vn 0.01587099 0.999874 -0.000345267
vn 0.01587099 0.999874 -0.000345267
vn 0.01587099 0.999874 -0.000345267
vn 0.01587099 0.999874 -0.000345267
vn 0.999874 -0.01587099 -0.000346655
vn 0.999874 -0.01587099 -0.000346655
vn 0.999874 -0.01587099 -0.000346655
vn 0.999874 -0.01587099 -0.000346655
vn 0.01587099 -0.999874 -0.000345267
vn 0.01587099 -0.999874 -0.000345267
vn 0.01587099 -0.999874 -0.000345267
vn 0.01587099 -0.999874 -0.000345267
vn 0.999874 -0.01587099 -0.000346655
vn 0.999874 -0.01587099 -0.000346655
vn 0.999874 -0.01587099 -0.000346655
vn 0.999874 -0.01587099 -0.000346655
vn 0.04761302 -0.04761302 -0.9977304
vn 0.04761302 -0.04761302 -0.9977304
vn 0.04761302 -0.04761302 -0.9977304
vn 0.04761302 -0.04761302 -0.9977304
vn 0.07935506 -0.04761302 -0.9957087
vn 0.07935506 -0.04761302 -0.9957087
vn 0.07935506 -0.04761302 -0.9957087
vn 0.07935506 -0.04761302 -0.9957087
vn -0.968132 -0.04761302 0.2458728
vn -0.968132 -0.04761302 0.2458728
vn -0.968132 -0.04761302 0.2458728
vn -0.968132 -0.04761302 0.2458728
vn 0.04761302 -0.04761302 0.9977304
vn 0.04761302 -0.04761302 0.9977304
vn 0.04761302 -0.04761302 0.9977304
vn 0.04761302 -0.04761302 0.9977304
vn 0.999874 -0.01587099 -0.000346655
vn 0.999874 -0.01587099 -0.000346655
vn 0.999874 -0.01587099 -0.000346655
vn 0.999874 -0.01587099 -0.000346655
vn -0.968132 -0.04761302 -0.2458728
vn -0.968132 -0.04761302 -0.2458728
vn -0.968132 -0.04761302 -0.2458728
vn -0.968132 -0.04761302 -0.2458728
vn 0.01587099 -0.999874 -0.000345267
vn 0.01587099 -0.999874 -0.000345267
vn 0.01587099 -0.999874 -0.000345267
vn 0.01587099 -0.999874 -0.000345267
vn 0.01587099 -0.999874 -0.000345267
vn 0.01587099 -0.999874 -0.000345267
vn 0.01587099 -0.999874 -0.000345267
vn 0.01587099 -0.999874 -0.000345267
vn 0.04761302 -0.04761302 -0.9977304
vn 0.04761302 -0.04761302 -0.9977304
vn 0.04761302 -0.04761302 -0.9977304
vn 0.04761302 -0.04761302 -0.9977304
vn 0.999874 -0.01587099 -0.000346655
vn 0.999874 -0.01587099 -0.000346655
vn 0.999874 -0.01587099 -0.000346655
vn 0.999874 -0.01587099 -0.000346655
vn 0.999874 -0.01587099 -0.000346655
vn 0.999874 -0.01587099 -0.000346655
vn 0.999874 -0.01587099 -0.000346655
vn 0.999874 -0.01587099 -0.000346655
vn 0.999874 -0.01587099 -0.000346655
vn 0.999874 -0.01587099 -0.000346655
vn 0.999874 -0.01587099 -0.000346655
vn 0.999874 -0.01587099 -0.000346655
vn 0.04761302 -0.04761302 -0.9977304
vn 0.04761302 -0.04761302 -0.9977304
vn 0.04761302 -0.04761302 -0.9977304
vn 0.04761302 -0.04761302 -0.9977304
vn -0.968132 -0.04761302 0.2458728
vn -0.968132 -0.04761302 0.2458728
vn -0.968132 -0.04761302 0.2458728
vn -0.968132 -0.04761302 0.2458728
vn 0.04761302 -0.04761302 0.9977304
vn 0.04761302 -0.04761302 0.9977304
vn 0.04761302 -0.04761302 0.9977304
vn 0.04761302 -0.04761302 0.9977304
g DSJ_GTA_diLou_6_0
f 3/3/3 2/2/2 1/1/1
f 4/4/4 1/1/1 2/2/2
f 7/7/7 6/6/6 5/5/5
f 8/8/8 5/5/5 6/6/6
f 11/11/11 10/10/10 9/9/9
f 12/12/12 9/9/9 10/10/10
f 11/11/11 9/9/9 13/13/13
f 14/14/14 13/13/13 9/9/9
f 12/12/12 10/10/10 15/15/15
f 16/16/16 15/15/15 10/10/10
f 19/19/19 18/18/18 17/17/17
f 20/20/20 17/17/17 18/18/18
f 23/23/23 22/22/22 21/21/21
f 24/24/24 21/21/21 22/22/22
f 27/27/27 26/26/26 25/25/25
f 28/28/28 25/25/25 26/26/26
f 31/31/31 30/30/30 29/29/29
f 32/32/32 29/29/29 30/30/30
f 30/30/30 31/31/31 33/33/33
f 34/34/34 33/33/33 31/31/31
f 33/33/33 34/34/34 35/35/35
f 36/36/36 35/35/35 34/34/34
f 39/39/39 38/38/38 37/37/37
f 40/40/40 37/37/37 38/38/38
f 38/38/38 39/39/39 41/41/41
f 40/40/40 42/42/42 37/37/37
f 45/45/45 44/44/44 43/43/43
f 46/46/46 43/43/43 44/44/44
f 49/49/49 48/48/48 47/47/47
f 50/50/50 47/47/47 48/48/48
f 53/53/53 52/52/52 51/51/51
f 54/54/54 51/51/51 52/52/52
f 57/57/57 56/56/56 55/55/55
f 58/58/58 55/55/55 56/56/56
f 61/61/61 60/60/60 59/59/59
f 62/62/62 59/59/59 60/60/60
f 65/65/65 64/64/64 63/63/63
f 66/66/66 63/63/63 64/64/64
f 69/69/69 68/68/68 67/67/67
f 70/70/70 67/67/67 68/68/68
f 73/73/73 72/72/72 71/71/71
f 74/74/74 71/71/71 72/72/72
f 77/77/77 76/76/76 75/75/75
f 78/78/78 75/75/75 76/76/76
f 81/81/81 80/80/80 79/79/79
f 82/82/82 79/79/79 80/80/80
f 80/80/80 83/83/83 82/82/82
f 84/84/84 82/82/82 83/83/83
f 87/87/87 86/86/86 85/85/85
f 88/88/88 85/85/85 86/86/86
f 86/86/86 89/89/89 88/88/88
f 90/90/90 88/88/88 89/89/89
f 93/93/93 92/92/92 91/91/91
f 94/94/94 91/91/91 92/92/92
f 97/97/97 96/96/96 95/95/95
f 98/98/98 95/95/95 96/96/96
f 101/101/101 100/100/100 99/99/99
f 102/102/102 99/99/99 100/100/100
f 105/105/105 104/104/104 103/103/103
f 106/106/106 103/103/103 104/104/104
f 109/109/109 108/108/108 107/107/107
f 110/110/110 107/107/107 108/108/108
f 113/113/113 112/112/112 111/111/111
f 114/114/114 111/111/111 112/112/112
f 117/117/117 116/116/116 115/115/115
f 118/118/118 115/115/115 116/116/116
f 121/121/121 120/120/120 119/119/119
f 122/122/122 119/119/119 120/120/120
f 125/125/125 124/124/124 123/123/123
f 126/126/126 123/123/123 124/124/124
f 129/129/129 128/128/128 127/127/127
f 130/130/130 127/127/127 128/128/128
f 133/133/133 132/132/132 131/131/131
f 134/134/134 131/131/131 132/132/132
f 137/137/137 136/136/136 135/135/135
f 138/138/138 135/135/135 136/136/136
f 141/141/141 140/140/140 139/139/139
f 142/142/142 139/139/139 140/140/140
f 145/145/145 144/144/144 143/143/143
f 146/146/146 143/143/143 144/144/144
f 149/149/149 148/148/148 147/147/147
f 150/150/150 147/147/147 148/148/148
f 153/153/153 152/152/152 151/151/151
f 154/154/154 151/151/151 152/152/152
f 157/157/157 156/156/156 155/155/155
f 158/158/158 155/155/155 156/156/156
f 161/161/161 160/160/160 159/159/159
f 162/162/162 159/159/159 160/160/160
f 165/165/165 164/164/164 163/163/163
f 166/166/166 163/163/163 164/164/164
f 169/169/169 168/168/168 167/167/167
f 170/170/170 167/167/167 168/168/168
f 173/173/173 172/172/172 171/171/171
f 174/174/174 171/171/171 172/172/172
f 177/177/177 176/176/176 175/175/175
f 178/178/178 175/175/175 176/176/176
f 181/181/181 180/180/180 179/179/179
f 182/182/182 179/179/179 180/180/180
f 185/185/185 184/184/184 183/183/183
f 186/186/186 183/183/183 184/184/184
f 186/186/186 184/184/184 187/187/187
f 188/188/188 187/187/187 184/184/184
f 191/191/191 190/190/190 189/189/189
f 189/189/189 190/190/190 192/192/192
f 195/195/195 194/194/194 193/193/193
f 193/193/193 194/194/194 196/196/196
f 199/199/199 198/198/198 197/197/197
f 200/200/200 197/197/197 198/198/198
f 203/203/203 202/202/202 201/201/201
f 204/204/204 201/201/201 202/202/202
f 207/207/207 206/206/206 205/205/205
f 208/208/208 205/205/205 206/206/206
f 211/211/211 210/210/210 209/209/209
f 212/212/212 209/209/209 210/210/210
f 215/215/215 214/214/214 213/213/213
f 216/216/216 213/213/213 214/214/214
f 219/219/219 218/218/218 217/217/217
f 220/220/220 217/217/217 218/218/218
f 223/223/223 222/222/222 221/221/221
f 224/224/224 221/221/221 222/222/222
f 227/227/227 226/226/226 225/225/225
f 228/228/228 225/225/225 226/226/226
f 231/231/231 230/230/230 229/229/229
f 232/232/232 229/229/229 230/230/230
f 235/235/235 234/234/234 233/233/233
f 236/236/236 233/233/233 234/234/234
f 239/239/239 238/238/238 237/237/237
f 240/240/240 237/237/237 238/238/238
f 243/243/243 242/242/242 241/241/241
f 244/244/244 241/241/241 242/242/242
f 247/247/247 246/246/246 245/245/245
f 248/248/248 245/245/245 246/246/246
f 251/251/251 250/250/250 249/249/249
f 252/252/252 249/249/249 250/250/250
f 255/255/255 254/254/254 253/253/253
f 256/256/256 253/253/253 254/254/254
f 259/259/259 258/258/258 257/257/257
f 260/260/260 257/257/257 258/258/258
f 263/263/263 262/262/262 261/261/261
f 264/264/264 261/261/261 262/262/262
f 267/267/267 266/266/266 265/265/265
f 268/268/268 265/265/265 266/266/266
f 271/271/271 270/270/270 269/269/269
f 272/272/272 269/269/269 270/270/270
f 275/275/275 274/274/274 273/273/273
f 276/276/276 273/273/273 274/274/274
f 279/279/279 278/278/278 277/277/277
f 280/280/280 277/277/277 278/278/278
f 283/283/283 282/282/282 281/281/281
f 284/284/284 281/281/281 282/282/282
f 287/287/287 286/286/286 285/285/285
f 288/288/288 285/285/285 286/286/286
f 291/291/291 290/290/290 289/289/289
f 292/292/292 289/289/289 290/290/290
f 295/295/295 294/294/294 293/293/293
f 296/296/296 293/293/293 294/294/294
f 299/299/299 298/298/298 297/297/297
f 300/300/300 297/297/297 298/298/298
f 303/303/303 302/302/302 301/301/301
f 304/304/304 301/301/301 302/302/302
f 307/307/307 306/306/306 305/305/305
f 308/308/308 305/305/305 306/306/306
f 311/311/311 310/310/310 309/309/309
f 312/312/312 309/309/309 310/310/310
f 315/315/315 314/314/314 313/313/313
f 316/316/316 313/313/313 314/314/314
f 319/319/319 318/318/318 317/317/317
f 320/320/320 317/317/317 318/318/318
f 323/323/323 322/322/322 321/321/321
f 324/324/324 321/321/321 322/322/322
f 327/327/327 326/326/326 325/325/325
f 328/328/328 325/325/325 326/326/326
f 331/331/331 330/330/330 329/329/329
f 332/332/332 329/329/329 330/330/330
f 332/332/332 333/333/333 329/329/329
f 329/329/329 333/333/333 334/334/334
f 335/335/335 334/334/334 333/333/333
f 335/335/335 336/336/336 334/334/334
f 337/337/337 334/334/334 336/336/336
f 340/340/340 339/339/339 338/338/338
f 341/341/341 338/338/338 339/339/339
f 344/344/344 343/343/343 342/342/342
f 345/345/345 342/342/342 343/343/343
f 348/348/348 347/347/347 346/346/346
f 349/349/349 346/346/346 347/347/347
f 352/352/352 351/351/351 350/350/350
f 353/353/353 350/350/350 351/351/351
f 356/356/356 355/355/355 354/354/354
f 357/357/357 354/354/354 355/355/355
f 360/360/360 359/359/359 358/358/358
f 361/361/361 358/358/358 359/359/359
f 364/364/364 363/363/363 362/362/362
f 365/365/365 362/362/362 363/363/363
f 368/368/368 367/367/367 366/366/366
f 369/369/369 366/366/366 367/367/367
f 372/372/372 371/371/371 370/370/370
f 373/373/373 370/370/370 371/371/371
f 371/371/371 374/374/374 373/373/373
f 375/375/375 373/373/373 374/374/374
f 378/378/378 377/377/377 376/376/376
f 379/379/379 376/376/376 377/377/377
f 382/382/382 381/381/381 380/380/380
f 383/383/383 380/380/380 381/381/381
f 386/386/386 385/385/385 384/384/384
f 387/387/387 384/384/384 385/385/385
f 390/390/390 389/389/389 388/388/388
f 391/391/391 388/388/388 389/389/389
f 394/394/394 393/393/393 392/392/392
f 395/395/395 392/392/392 393/393/393
f 398/398/398 397/397/397 396/396/396
f 399/399/399 396/396/396 397/397/397
f 402/402/402 401/401/401 400/400/400
f 403/403/403 400/400/400 401/401/401
f 406/406/406 405/405/405 404/404/404
f 407/407/407 404/404/404 405/405/405
f 410/410/410 409/409/409 408/408/408
f 411/411/411 408/408/408 409/409/409
f 414/414/414 413/413/413 412/412/412
f 415/415/415 412/412/412 413/413/413
f 418/418/418 417/417/417 416/416/416
f 419/419/419 416/416/416 417/417/417
f 422/422/422 421/421/421 420/420/420
f 423/423/423 420/420/420 421/421/421
f 426/426/426 425/425/425 424/424/424
f 427/427/427 424/424/424 425/425/425
f 430/430/430 429/429/429 428/428/428
f 431/431/431 428/428/428 429/429/429
f 434/434/434 433/433/433 432/432/432
f 435/435/435 432/432/432 433/433/433
f 438/438/438 437/437/437 436/436/436
f 439/439/439 436/436/436 437/437/437
f 442/442/442 441/441/441 440/440/440
f 443/443/443 440/440/440 441/441/441
f 446/446/446 445/445/445 444/444/444
f 447/447/447 444/444/444 445/445/445
f 450/450/450 449/449/449 448/448/448
f 451/451/451 448/448/448 449/449/449
f 454/454/454 453/453/453 452/452/452
f 455/455/455 452/452/452 453/453/453
f 458/458/458 457/457/457 456/456/456
f 459/459/459 456/456/456 457/457/457
f 462/462/462 461/461/461 460/460/460
f 463/463/463 460/460/460 461/461/461
f 466/466/466 465/465/465 464/464/464
f 467/467/467 464/464/464 465/465/465
f 470/470/470 469/469/469 468/468/468
f 471/471/471 468/468/468 469/469/469
f 474/474/474 473/473/473 472/472/472
f 475/475/475 472/472/472 473/473/473
f 478/478/478 477/477/477 476/476/476
f 479/479/479 476/476/476 477/477/477
f 482/482/482 481/481/481 480/480/480
f 483/483/483 480/480/480 481/481/481
f 486/486/486 485/485/485 484/484/484
f 487/487/487 484/484/484 485/485/485
