g DSJ_GTA_gaoLou_6
v 18.4457 -17.11113 20.44757
v 9.675652 -17.11113 20.44757
v 18.54103 -17.11113 -3.47942
v 9.770977 -17.11113 -3.47942
v -42.37269 -45.61379 19.20832
v -42.27736 -45.61379 -3.670074
v -42.37269 -18.35037 19.20832
v -42.27736 -18.35037 -3.670074
v 25.30922 -45.61379 -3.47942
v 25.30922 -45.61379 19.4943
v 25.30922 -18.35037 -3.47942
v 25.30922 -18.35037 19.4943
v -16.6345 -8.436405 -3.574745
v -12.72611 -8.436405 -3.574745
v -16.72982 -8.436405 19.30365
v -12.82143 -8.436405 19.30365
v -43.1353 -7.197159 20.16159
v -43.32595 -18.35037 20.16159
v -43.23063 -7.197159 -3.7654
v -43.61193 -18.35037 -3.7654
v -4.813995 -8.436405 -3.574745
v 7.197159 -18.35037 -3.47942
v -4.909325 -8.436405 19.39898
v 7.101833 -18.35037 19.39898
v -16.72982 -8.436405 19.30365
v -12.82143 -8.436405 19.30365
v -16.72982 -31.88676 19.30365
v -12.82143 -31.88676 19.30365
v -4.909325 -45.61379 19.39898
v -6.625202 -31.88676 19.39898
v -6.625202 -8.436405 19.39898
v -4.909325 -8.436405 19.39898
v -42.37269 -45.61379 19.20832
v -22.92606 -31.88676 19.30365
v -42.37269 -18.35037 19.20832
v -29.98023 -18.35037 19.30365
v -22.92606 -8.436405 19.30365
v -29.98023 -8.436405 19.30365
v -29.98023 -7.197159 20.25691
v -43.1353 -7.197159 20.16159
v -29.8849 -7.197159 -3.670074
v -43.23063 -7.197159 -3.7654
v -29.98023 -18.35037 20.25691
v -43.32595 -18.35037 20.16159
v -29.98023 -7.197159 20.25691
v -43.1353 -7.197159 20.16159
v -43.32595 -18.35037 20.16159
v -42.37269 -18.35037 19.20832
v -43.61193 -18.35037 -3.7654
v -42.27736 -18.35037 -3.670074
v -29.8849 -7.197159 -3.670074
v -29.8849 -8.436405 -3.670074
v -29.98023 -7.197159 20.25691
v -29.98023 -8.436405 19.30365
v -29.98023 -7.197159 20.25691
v -29.98023 -8.436405 19.30365
v -29.98023 -18.35037 20.25691
v -29.98023 -18.35037 19.30365
v -29.98023 -18.35037 20.25691
v -29.98023 -18.35037 19.30365
v -43.32595 -18.35037 20.16159
v -42.37269 -18.35037 19.20832
v 7.197159 -18.35037 -3.47942
v 9.770977 -18.35037 -3.47942
v 7.101833 -18.35037 19.39898
v 9.675652 -18.35037 19.39898
v 18.54103 -18.35037 -3.47942
v 25.30922 -18.35037 -3.47942
v 18.4457 -18.35037 19.4943
v 25.30922 -18.35037 19.4943
v -4.909325 -8.436405 19.39898
v 7.101833 -18.35037 19.39898
v -4.909325 -45.61379 19.39898
v 9.675652 -31.88676 19.39898
v 25.30922 -45.61379 19.4943
v 18.4457 -31.88676 19.4943
v 25.30922 -18.35037 19.4943
v 18.4457 -18.35037 19.4943
v 9.675652 -18.35037 19.39898
v 9.675652 -31.88676 20.44757
v 9.675652 -17.11113 20.44757
v 18.4457 -31.88676 20.44757
v 18.4457 -17.11113 20.44757
v 18.54103 -17.11113 -3.47942
v 9.770977 -17.11113 -3.47942
v 18.54103 -18.35037 -3.47942
v 9.770977 -18.35037 -3.47942
v -22.92606 -8.436405 19.30365
v -29.98023 -8.436405 19.30365
v -22.83073 -8.436405 -3.670074
v -29.8849 -8.436405 -3.670074
v -6.529877 -8.436405 -3.574745
v -4.813995 -8.436405 -3.574745
v -6.625202 -8.436405 19.39898
v -4.909325 -8.436405 19.39898
v -12.72611 -7.197159 -3.574745
v -6.529877 -7.197159 -3.574745
v -12.82143 -7.197159 20.35224
v -6.625202 -7.197159 20.35224
v -16.72982 -7.197159 20.35224
v -22.92606 -7.197159 20.25691
v -16.6345 -7.197159 -3.574745
v -22.83073 -7.197159 -3.670074
v -12.82143 -7.197159 20.35224
v -6.625202 -7.197159 20.35224
v -12.82143 -31.88676 20.35224
v -6.625202 -31.88676 20.35224
v -16.72982 -31.88676 20.35224
v -22.92606 -31.88676 20.25691
v -16.72982 -7.197159 20.35224
v -22.92606 -7.197159 20.25691
v -6.529877 -7.197159 -3.574745
v -6.529877 -8.436405 -3.574745
v -6.625202 -7.197159 20.35224
v -6.625202 -8.436405 19.39898
v -6.625202 -7.197159 20.35224
v -6.625202 -8.436405 19.39898
v -6.625202 -31.88676 20.35224
v -6.625202 -31.88676 19.39898
v -6.625202 -31.88676 20.35224
v -6.625202 -31.88676 19.39898
v -12.82143 -31.88676 20.35224
v -12.82143 -31.88676 19.30365
v -12.82143 -31.88676 20.35224
v -12.82143 -31.88676 19.30365
v -12.82143 -7.197159 20.35224
v -12.82143 -8.436405 19.30365
v -12.82143 -7.197159 20.35224
v -12.82143 -8.436405 19.30365
v -12.72611 -7.197159 -3.574745
v -12.72611 -8.436405 -3.574745
v -16.72982 -31.88676 20.35224
v -16.72982 -31.88676 19.30365
v -22.92606 -31.88676 20.25691
v -22.92606 -31.88676 19.30365
v -22.92606 -31.88676 20.25691
v -22.92606 -31.88676 19.30365
v -22.92606 -7.197159 20.25691
v -22.92606 -8.436405 19.30365
v -22.92606 -7.197159 20.25691
v -22.92606 -8.436405 19.30365
v -22.83073 -7.197159 -3.670074
v -22.83073 -8.436405 -3.670074
v -16.6345 -7.197159 -3.574745
v -16.6345 -8.436405 -3.574745
v -16.72982 -7.197159 20.35224
v -16.72982 -8.436405 19.30365
v -16.72982 -7.197159 20.35224
v -16.72982 -8.436405 19.30365
v -16.72982 -31.88676 20.35224
v -16.72982 -31.88676 19.30365
v 9.675652 -17.11113 20.44757
v 9.675652 -18.35037 19.39898
v 9.770977 -17.11113 -3.47942
v 9.770977 -18.35037 -3.47942
v 18.54103 -17.11113 -3.47942
v 18.54103 -18.35037 -3.47942
v 18.4457 -17.11113 20.44757
v 18.4457 -18.35037 19.4943
v 18.4457 -17.11113 20.44757
v 18.4457 -18.35037 19.4943
v 18.4457 -31.88676 20.44757
v 18.4457 -31.88676 19.4943
v 18.4457 -31.88676 20.44757
v 18.4457 -31.88676 19.4943
v 9.675652 -31.88676 20.44757
v 9.675652 -31.88676 19.39898
v 9.675652 -31.88676 20.44757
v 9.675652 -31.88676 19.39898
v 9.675652 -17.11113 20.44757
v 9.675652 -18.35037 19.39898
v 25.30922 -18.35037 -3.47942
v 18.54103 -18.35037 -3.47942
v 25.30922 -45.61379 -3.47942
v 9.770977 -18.35037 -3.47942
v 7.197159 -18.35037 -3.47942
v -4.813995 -45.61379 -3.574745
v -4.813995 -8.436405 -3.574745
v 20.63821 -33.98394 20.82887
v -43.89791 -33.98394 20.44757
v 20.63821 -33.98394 18.44571
v -41.3241 -33.98394 18.25505
v 20.63821 -34.65123 20.82887
v -43.89791 -34.65123 20.44757
v 20.63821 -33.98394 20.82887
v -43.89791 -33.98394 20.44757
v -43.89791 -33.98394 20.44757
v -43.80259 -33.98394 -3.670074
v -41.3241 -33.98394 18.25505
v -41.22877 -33.98394 -3.574745
v -43.89791 -34.65123 20.44757
v -43.80259 -34.65123 -3.670074
v -43.89791 -33.98394 20.44757
v -43.80259 -33.98394 -3.670074
v -0.4289703 8.722389 -21.11485
v -0.5242996 8.722389 -3.098114
v -48.66425 8.722389 -21.3055
v -48.75958 8.722389 -3.193439
v -48.75958 -18.35037 -3.193439
v -0.5242996 -18.35037 -3.098114
v -48.75958 -45.61379 -3.193439
v -0.5242996 -45.61379 -3.098114
v -48.66425 -18.35037 -21.3055
v -48.75958 -18.35037 -3.193439
v -48.66425 -45.61379 -21.3055
v -48.75958 -45.61379 -3.193439
v -0.4289703 -18.35037 -21.11485
v -48.66425 -18.35037 -21.3055
v -0.4289703 -45.61379 -21.11485
v -48.66425 -45.61379 -21.3055
v -0.5242996 -18.35037 -3.098114
v -0.4289703 -18.35037 -21.11485
v -0.5242996 -45.61379 -3.098114
v -0.4289703 -45.61379 -21.11485
v 47.32967 45.32782 -3.098114
v 47.23434 45.32782 19.78028
v 22.06811 45.32782 -3.193439
v 21.97279 45.32782 19.68495
v 48.75957 -45.61379 21.11485
v 20.44756 -45.61379 20.82887
v 48.75957 -9.008366 21.11485
v 20.44756 -9.008366 20.82887
v 20.44756 -45.61379 20.82887
v 20.63821 -45.61379 -4.432686
v 20.44756 -9.008366 20.82887
v 20.63821 -9.008366 -4.432686
v 20.63821 -45.61379 -4.432686
v 48.75957 -45.61379 -4.33736
v 20.63821 -9.008366 -4.432686
v 48.75957 -9.008366 -4.33736
v 48.75957 -45.61379 -4.33736
v 48.75957 -45.61379 21.11485
v 48.75957 -9.008366 -4.33736
v 48.75957 -9.008366 21.11485
v 47.23434 18.25505 19.78028
v 47.23434 -9.008366 19.78028
v 21.97279 18.25505 19.68495
v 21.97279 -9.008366 19.68495
v 21.97279 18.25505 19.68495
v 21.97279 -9.008366 19.68495
v 22.06811 18.25505 -3.193439
v 22.06811 -9.008366 -3.193439
v 22.06811 18.25505 -3.193439
v 22.06811 -9.008366 -3.193439
v 47.32967 18.25505 -3.098114
v 47.32967 -9.008366 -3.098114
v 47.32967 18.25505 -3.098114
v 47.32967 -9.008366 -3.098114
v 47.23434 18.25505 19.78028
v 47.23434 -9.008366 19.78028
v 20.44756 -9.008366 20.82887
v 21.97279 -9.008366 19.68495
v 48.75957 -9.008366 21.11485
v 47.23434 -9.008366 19.78028
v 48.75957 -9.008366 21.11485
v 47.23434 -9.008366 19.78028
v 48.75957 -9.008366 -4.33736
v 47.32967 -9.008366 -3.098114
v 48.75957 -9.008366 -4.33736
v 47.32967 -9.008366 -3.098114
v 20.63821 -9.008366 -4.432686
v 22.06811 -9.008366 -3.193439
v 20.63821 -9.008366 -4.432686
v 22.06811 -9.008366 -3.193439
v 20.44756 -9.008366 20.82887
v 21.97279 -9.008366 19.68495
v 21.97279 45.32782 19.68495
v 47.23434 45.32782 19.78028
v 21.97279 18.25505 19.68495
v 47.23434 18.25505 19.78028
v 22.06811 45.32782 -3.193439
v 21.97279 45.32782 19.68495
v 22.06811 18.25505 -3.193439
v 21.97279 18.25505 19.68495
v 47.32967 45.32782 -3.098114
v 22.06811 45.32782 -3.193439
v 47.32967 18.25505 -3.098114
v 22.06811 18.25505 -3.193439
v 47.23434 45.32782 19.78028
v 47.32967 45.32782 -3.098114
v 47.23434 18.25505 19.78028
v 47.32967 18.25505 -3.098114
v -48.75958 8.722389 -3.193439
v -0.5242996 8.722389 -3.098114
v -48.75958 -18.35037 -3.193439
v -0.5242996 -18.35037 -3.098114
v -48.66425 8.722389 -21.3055
v -48.75958 8.722389 -3.193439
v -48.66425 -18.35037 -21.3055
v -48.75958 -18.35037 -3.193439
v -0.4289703 8.722389 -21.11485
v -48.66425 8.722389 -21.3055
v -0.4289703 -18.35037 -21.11485
v -48.66425 -18.35037 -21.3055
v -0.5242996 8.722389 -3.098114
v -0.4289703 8.722389 -21.11485
v -0.5242996 -18.35037 -3.098114
v -0.4289703 -18.35037 -21.11485
vt 0.1206887 0.449257
vt 0.1206887 0.3294262
vt 0.0008578763 0.449257
vt 0.0008578763 0.3294262
vt 0.1206887 0.004723385
vt 0.04724399 0.004723385
vt 0.1206887 0.1748058
vt 0.04724399 0.1748058
vt 0.1206887 0.004723385
vt 0.0008578763 0.004723385
vt 0.1206887 0.1748058
vt 0.0008578763 0.1748058
vt 0.08976459 0.2057299
vt 0.1013611 0.2057299
vt 0.08976459 0.004723385
vt 0.1013611 0.004723385
vt 0.0008578763 0.3294262
vt 0.0008578763 0.449257
vt 0.1206887 0.3294262
vt 0.1206887 0.449257
vt 0.004723385 0.1825368
vt 0.03564746 0.1825368
vt 0.004723385 0.004723385
vt 0.03564746 0.004723385
vt 0.08976459 0.2366539
vt 0.1013611 0.2366539
vt 0.08976459 0.08976459
vt 0.1013611 0.08976459
vt 0.1206887 0.004723385
vt 0.1168232 0.08976459
vt 0.1168232 0.2366539
vt 0.1206887 0.2366539
vt 0.02405093 0.004723385
vt 0.07430255 0.08976459
vt 0.02405093 0.1748058
vt 0.05497501 0.1748058
vt 0.07430255 0.2366539
vt 0.05497501 0.2366539
vt 0.0008578763 0.3294262
vt 0.0008578763 0.449257
vt 0.1206887 0.3294262
vt 0.1206887 0.449257
vt 0.0008578763 0.449257
vt 0.1206887 0.449257
vt 0.0008578763 0.3294262
vt 0.1206887 0.3294262
vt 0.1168232 0.3526192
vt 0.1129576 0.3294262
vt 0.0008578763 0.3526192
vt 0.0008578763 0.3294262
vt 0.0008578763 0.3294262
vt 0.0008578763 0.3526192
vt 0.1168232 0.3294262
vt 0.1129576 0.3526192
vt 0.01631991 0.3294262
vt 0.02405093 0.3526192
vt 0.07043704 0.3294262
vt 0.07043704 0.3526192
vt 0.0008578763 0.3294262
vt 0.0008578763 0.3526192
vt 0.06657153 0.3294262
vt 0.06270602 0.3526192
vt 0.03564746 0.1825368
vt 0.04337848 0.1825368
vt 0.03564746 0.004723385
vt 0.04337848 0.004723385
vt 0.03178195 0.1825368
vt 0.05497501 0.1825368
vt 0.03178195 0.004723385
vt 0.05497501 0.004723385
vt 0.1168232 0.2366539
vt 0.08589908 0.1748058
vt 0.1168232 0.004723385
vt 0.07816806 0.08976459
vt 0.03564746 0.004723385
vt 0.05497501 0.08976459
vt 0.03564746 0.1748058
vt 0.05497501 0.1748058
vt 0.07816806 0.1748058
vt 0.1206887 0.3294262
vt 0.0008578763 0.3294262
vt 0.1206887 0.449257
vt 0.0008578763 0.449257
vt 0.0008578763 0.3526192
vt 0.04337848 0.3526192
vt 0.0008578763 0.3294262
vt 0.04337848 0.3294262
vt 0.07816806 0.004723385
vt 0.05497501 0.004723385
vt 0.07816806 0.2057299
vt 0.05497501 0.2057299
vt 0.0936301 0.1825368
vt 0.09749561 0.1825368
vt 0.0936301 0.004723385
vt 0.09749561 0.004723385
vt 0.1206887 0.3294262
vt 0.1206887 0.449257
vt 0.0008578763 0.3294262
vt 0.0008578763 0.449257
vt 0.0008578763 0.449257
vt 0.0008578763 0.3294262
vt 0.1206887 0.449257
vt 0.1206887 0.3294262
vt 0.0008578763 0.3294262
vt 0.0008578763 0.449257
vt 0.1206887 0.3294262
vt 0.1206887 0.449257
vt 0.1206887 0.449257
vt 0.1206887 0.3294262
vt 0.0008578763 0.449257
vt 0.0008578763 0.3294262
vt 0.0008578763 0.3294262
vt 0.0008578763 0.3526192
vt 0.1168232 0.3294262
vt 0.1129576 0.3526192
vt 0.1206887 0.3526192
vt 0.1129576 0.3294262
vt 0.0008578763 0.3526192
vt 0.0008578763 0.3294262
vt 0.03564746 0.3294262
vt 0.03564746 0.3526192
vt 0.06657153 0.3294262
vt 0.06657153 0.3526192
vt 0.0008578763 0.3294262
vt 0.0008578763 0.3526192
vt 0.1206887 0.3294262
vt 0.1129576 0.3526192
vt 0.1168232 0.3526192
vt 0.1129576 0.3294262
vt 0.0008578763 0.3526192
vt 0.0008578763 0.3294262
vt 0.03564746 0.3294262
vt 0.03564746 0.3526192
vt 0.06657153 0.3294262
vt 0.06657153 0.3526192
vt 0.0008578763 0.3294262
vt 0.0008578763 0.3526192
vt 0.1206887 0.3294262
vt 0.1129576 0.3526192
vt 0.1168232 0.3526192
vt 0.1129576 0.3294262
vt 0.0008578763 0.3526192
vt 0.0008578763 0.3294262
vt 0.0008578763 0.3294262
vt 0.0008578763 0.3526192
vt 0.1168232 0.3294262
vt 0.1129576 0.3526192
vt 0.1206887 0.3526192
vt 0.1129576 0.3294262
vt 0.0008578763 0.3526192
vt 0.0008578763 0.3294262
vt 0.1168232 0.3526192
vt 0.1129576 0.3294262
vt 0.0008578763 0.3526192
vt 0.0008578763 0.3294262
vt 0.0008578763 0.3294262
vt 0.0008578763 0.3526192
vt 0.1168232 0.3294262
vt 0.1129576 0.3526192
vt 0.07430255 0.3526192
vt 0.06657153 0.3294262
vt 0.0008578763 0.3526192
vt 0.0008578763 0.3294262
vt 0.02791644 0.3294262
vt 0.02791644 0.3526192
vt 0.07043704 0.3294262
vt 0.07043704 0.3526192
vt 0.0008578763 0.3294262
vt 0.0008578763 0.3526192
vt 0.07430255 0.3294262
vt 0.06657153 0.3526192
vt 0.1206887 0.1825368
vt 0.1013611 0.1825368
vt 0.1206887 0.004723385
vt 0.08203357 0.1825368
vt 0.07430255 0.1825368
vt 0.04337848 0.004723385
vt 0.04337848 0.244385
vt 0.0008578763 0.4144674
vt 0.06270602 0.4144674
vt 0.0008578763 0.3332917
vt 0.06270602 0.3332917
vt 0.0008578763 0.449257
vt 0.06270602 0.449257
vt 0.0008578763 0.4144674
vt 0.06270602 0.4144674
vt 0.0008578763 0.4144674
vt 0.06270602 0.4144674
vt 0.0008578763 0.3294262
vt 0.06270602 0.3294262
vt 0.0008578763 0.449257
vt 0.06270602 0.449257
vt 0.0008578763 0.4144674
vt 0.06270602 0.4144674
vt 0.4956431 0.3178297
vt 0.4956431 0.2559815
vt 0.3796778 0.3178297
vt 0.3796778 0.2559815
vt 0.3796778 0.2559815
vt 0.4956431 0.2559815
vt 0.3796778 0.4917776
vt 0.4956431 0.4917776
vt 0.3796778 0.2559815
vt 0.4531225 0.2559815
vt 0.3796778 0.4917776
vt 0.4531225 0.4917776
vt 0.3796778 0.2559815
vt 0.4956431 0.2559815
vt 0.3796778 0.4917776
vt 0.4956431 0.4917776
vt 0.3796778 0.2559815
vt 0.4531225 0.2559815
vt 0.3796778 0.4917776
vt 0.4531225 0.4917776
vt 0.4067364 0.4183329
vt 0.4067364 0.259847
vt 0.4956431 0.4183329
vt 0.4956431 0.259847
vt 0.4067364 0.4840465
vt 0.4956431 0.4840465
vt 0.4067364 0.2714435
vt 0.4956431 0.2714435
vt 0.4067364 0.4840465
vt 0.4956431 0.4840465
vt 0.4067364 0.2714435
vt 0.4956431 0.2714435
vt 0.4067364 0.4840465
vt 0.4956431 0.4840465
vt 0.4067364 0.2714435
vt 0.4956431 0.2714435
vt 0.4067364 0.4840465
vt 0.4956431 0.4840465
vt 0.4067364 0.2714435
vt 0.4956431 0.2714435
vt 0.4067364 0.259847
vt 0.4067364 0.4183329
vt 0.4956431 0.259847
vt 0.4956431 0.4183329
vt 0.4067364 0.259847
vt 0.4067364 0.4183329
vt 0.4956431 0.259847
vt 0.4956431 0.4183329
vt 0.4067364 0.259847
vt 0.4067364 0.4183329
vt 0.4956431 0.259847
vt 0.4956431 0.4183329
vt 0.4067364 0.259847
vt 0.4067364 0.4183329
vt 0.4956431 0.259847
vt 0.4956431 0.4183329
vt 0.4956431 0.2714435
vt 0.4879121 0.259847
vt 0.4067364 0.2714435
vt 0.4106019 0.259847
vt 0.4956431 0.2714435
vt 0.4879121 0.259847
vt 0.4067364 0.2714435
vt 0.4106019 0.259847
vt 0.4956431 0.2714435
vt 0.4879121 0.259847
vt 0.4067364 0.2714435
vt 0.4106019 0.259847
vt 0.4956431 0.2714435
vt 0.4879121 0.259847
vt 0.4067364 0.2714435
vt 0.4106019 0.259847
vt 0.4956431 0.259847
vt 0.4067364 0.259847
vt 0.4956431 0.4183329
vt 0.4067364 0.4183329
vt 0.4956431 0.259847
vt 0.4067364 0.259847
vt 0.4956431 0.4183329
vt 0.4067364 0.4183329
vt 0.4956431 0.259847
vt 0.4067364 0.259847
vt 0.4956431 0.4183329
vt 0.4067364 0.4183329
vt 0.4956431 0.259847
vt 0.4067364 0.259847
vt 0.4956431 0.4183329
vt 0.4067364 0.4183329
vt 0.3796778 0.4067364
vt 0.4956431 0.4067364
vt 0.3796778 0.2559815
vt 0.4956431 0.2559815
vt 0.3796778 0.4067364
vt 0.4531225 0.4067364
vt 0.3796778 0.2559815
vt 0.4531225 0.2559815
vt 0.3796778 0.4067364
vt 0.4956431 0.4067364
vt 0.3796778 0.2559815
vt 0.4956431 0.2559815
vt 0.3796778 0.4067364
vt 0.4531225 0.4067364
vt 0.3796778 0.2559815
vt 0.4531225 0.2559815
vn 0.01587099 0.999874 -0.000345267
vn 0.01587099 0.999874 -0.000345267
vn 0.01587099 0.999874 -0.000345267
vn 0.01587099 0.999874 -0.000345267
vn -0.968132 -0.04761302 -0.2458728
vn -0.968132 -0.04761302 -0.2458728
vn -0.968132 -0.04761302 -0.2458728
vn -0.968132 -0.04761302 -0.2458728
vn 0.999874 -0.01587099 -0.000346655
vn 0.999874 -0.01587099 -0.000346655
vn 0.999874 -0.01587099 -0.000346655
vn 0.999874 -0.01587099 -0.000346655
vn 0.01587099 0.999874 -0.000345267
vn 0.01587099 0.999874 -0.000345267
vn 0.01587099 0.999874 -0.000345267
vn 0.01587099 0.999874 -0.000345267
vn -0.968132 0.01587105 0.249937
vn -0.968132 0.01587105 0.249937
vn -0.968132 0.01587105 0.249937
vn -0.968132 0.01587105 0.249937
vn 0.6750134 0.7378055 0
vn 0.6750134 0.7378055 0
vn 0.6750134 0.7378055 0
vn 0.6750134 0.7378055 0
vn 0.04761302 -0.04761302 0.9977304
vn 0.04761302 -0.04761302 0.9977304
vn 0.04761302 -0.04761302 0.9977304
vn 0.04761302 -0.04761302 0.9977304
vn 0.04761302 -0.04761302 0.9977304
vn 0.04761302 -0.04761302 0.9977304
vn 0.04761302 -0.04761302 0.9977304
vn 0.04761302 -0.04761302 0.9977304
vn 0.04761302 -0.04761302 0.9977304
vn 0.04761302 -0.04761302 0.9977304
vn 0.04761302 -0.04761302 0.9977304
vn 0.04761302 -0.04761302 0.9977304
vn 0.04761302 -0.04761302 0.9977304
vn 0.04761302 -0.04761302 0.9977304
vn 0.01587099 0.999874 -0.000345267
vn 0.01587099 0.999874 -0.000345267
vn 0.01587099 0.999874 -0.000345267
vn 0.01587099 0.999874 -0.000345267
vn 0.04761302 -0.04761302 0.9977304
vn 0.04761302 -0.04761302 0.9977304
vn 0.04761302 -0.04761302 0.9977304
vn 0.04761302 -0.04761302 0.9977304
vn 0.01587099 -0.999874 -0.000345267
vn 0.01587099 -0.999874 -0.000345267
vn 0.01587099 -0.999874 -0.000345267
vn 0.01587099 -0.999874 -0.000345267
vn 0.999874 -0.01587099 -0.000346655
vn 0.999874 -0.01587099 -0.000346655
vn 0.999874 -0.01587099 -0.000346655
vn 0.999874 -0.01587099 -0.000346655
vn 0.999874 -0.01587099 -0.000346655
vn 0.999874 -0.01587099 -0.000346655
vn 0.999874 -0.01587099 -0.000346655
vn 0.999874 -0.01587099 -0.000346655
vn 0.01587099 -0.999874 -0.000345267
vn 0.01587099 -0.999874 -0.000345267
vn 0.01587099 -0.999874 -0.000345267
vn 0.01587099 -0.999874 -0.000345267
vn 0.01587099 0.999874 -0.000345267
vn 0.01587099 0.999874 -0.000345267
vn 0.01587099 0.999874 -0.000345267
vn 0.01587099 0.999874 -0.000345267
vn 0.01587099 0.999874 -0.000345267
vn 0.01587099 0.999874 -0.000345267
vn 0.01587099 0.999874 -0.000345267
vn 0.01587099 0.999874 -0.000345267
vn 0.04761302 -0.04761302 0.9977304
vn 0.04761302 -0.04761302 0.9977304
vn 0.04761302 -0.04761302 0.9977304
vn 0.04761302 -0.04761302 0.9977304
vn 0.04761302 -0.04761302 0.9977304
vn 0.04761302 -0.04761302 0.9977304
vn 0.04761302 -0.04761302 0.9977304
vn 0.04761302 -0.04761302 0.9977304
vn 0.04761302 -0.04761302 0.9977304
vn 0.04761302 -0.04761302 0.9977304
vn 0.04761302 -0.04761302 0.9977304
vn 0.04761302 -0.04761302 0.9977304
vn 0.04761302 -0.04761302 0.9977304
vn 0.04761302 -0.04761302 -0.9977304
vn 0.04761302 -0.04761302 -0.9977304
vn 0.04761302 -0.04761302 -0.9977304
vn 0.04761302 -0.04761302 -0.9977304
vn 0.01587099 0.999874 -0.000345267
vn 0.01587099 0.999874 -0.000345267
vn 0.01587099 0.999874 -0.000345267
vn 0.01587099 0.999874 -0.000345267
vn 0.01587099 0.999874 -0.000345267
vn 0.01587099 0.999874 -0.000345267
vn 0.01587099 0.999874 -0.000345267
vn 0.01587099 0.999874 -0.000345267
vn 0.01587099 0.999874 -0.000345267
vn 0.01587099 0.999874 -0.000345267
vn 0.01587099 0.999874 -0.000345267
vn 0.01587099 0.999874 -0.000345267
vn 0.01587099 0.999874 -0.000345267
vn 0.01587099 0.999874 -0.000345267
vn 0.01587099 0.999874 -0.000345267
vn 0.01587099 0.999874 -0.000345267
vn 0.04761302 -0.04761302 0.9977304
vn 0.04761302 -0.04761302 0.9977304
vn 0.04761302 -0.04761302 0.9977304
vn 0.04761302 -0.04761302 0.9977304
vn 0.04761302 -0.04761302 0.9977304
vn 0.04761302 -0.04761302 0.9977304
vn 0.04761302 -0.04761302 0.9977304
vn 0.04761302 -0.04761302 0.9977304
vn 0.999874 -0.01587099 -0.000346655
vn 0.999874 -0.01587099 -0.000346655
vn 0.999874 -0.01587099 -0.000346655
vn 0.999874 -0.01587099 -0.000346655
vn 0.999874 -0.01587099 -0.000346655
vn 0.999874 -0.01587099 -0.000346655
vn 0.999874 -0.01587099 -0.000346655
vn 0.999874 -0.01587099 -0.000346655
vn 0.01587099 -0.999874 -0.000345267
vn 0.01587099 -0.999874 -0.000345267
vn 0.01587099 -0.999874 -0.000345267
vn 0.01587099 -0.999874 -0.000345267
vn -0.968132 -0.04761302 -0.2458728
vn -0.968132 -0.04761302 -0.2458728
vn -0.968132 -0.04761302 -0.2458728
vn -0.968132 -0.04761302 -0.2458728
vn -0.968132 -0.04761302 -0.2458728
vn -0.968132 -0.04761302 -0.2458728
vn -0.968132 -0.04761302 -0.2458728
vn -0.968132 -0.04761302 -0.2458728
vn 0.01587099 -0.999874 -0.000345267
vn 0.01587099 -0.999874 -0.000345267
vn 0.01587099 -0.999874 -0.000345267
vn 0.01587099 -0.999874 -0.000345267
vn -0.968132 -0.04761302 -0.2458728
vn -0.968132 -0.04761302 -0.2458728
vn -0.968132 -0.04761302 -0.2458728
vn -0.968132 -0.04761302 -0.2458728
vn -0.968132 -0.04761302 -0.2458728
vn -0.968132 -0.04761302 -0.2458728
vn -0.968132 -0.04761302 -0.2458728
vn -0.968132 -0.04761302 -0.2458728
vn 0.999874 -0.01587099 -0.000346655
vn 0.999874 -0.01587099 -0.000346655
vn 0.999874 -0.01587099 -0.000346655
vn 0.999874 -0.01587099 -0.000346655
vn 0.999874 -0.01587099 -0.000346655
vn 0.999874 -0.01587099 -0.000346655
vn 0.999874 -0.01587099 -0.000346655
vn 0.999874 -0.01587099 -0.000346655
vn -0.968132 -0.04761302 -0.2458728
vn -0.968132 -0.04761302 -0.2458728
vn -0.968132 -0.04761302 -0.2458728
vn -0.968132 -0.04761302 -0.2458728
vn 0.999874 -0.01587099 -0.000346655
vn 0.999874 -0.01587099 -0.000346655
vn 0.999874 -0.01587099 -0.000346655
vn 0.999874 -0.01587099 -0.000346655
vn 0.999874 -0.01587099 -0.000346655
vn 0.999874 -0.01587099 -0.000346655
vn 0.999874 -0.01587099 -0.000346655
vn 0.999874 -0.01587099 -0.000346655
vn 0.01587099 -0.999874 -0.000345267
vn 0.01587099 -0.999874 -0.000345267
vn 0.01587099 -0.999874 -0.000345267
vn 0.01587099 -0.999874 -0.000345267
vn -0.968132 -0.04761302 -0.2458728
vn -0.968132 -0.04761302 -0.2458728
vn -0.968132 -0.04761302 -0.2458728
vn -0.968132 -0.04761302 -0.2458728
vn 0.04761302 -0.04761302 -0.9977304
vn 0.04761302 -0.04761302 -0.9977304
vn 0.04761302 -0.04761302 -0.9977304
vn 0.04761302 -0.04761302 -0.9977304
vn 0.04761302 -0.04761302 -0.9977304
vn 0.04761302 -0.04761302 -0.9977304
vn 0.04761302 -0.04761302 -0.9977304
vn 0.01587099 0.999874 -0.000345267
vn 0.01587099 0.999874 -0.000345267
vn 0.01587099 0.999874 -0.000345267
vn 0.01587099 0.999874 -0.000345267
vn 0.04761302 -0.04761302 0.9977304
vn 0.04761302 -0.04761302 0.9977304
vn 0.04761302 -0.04761302 0.9977304
vn 0.04761302 -0.04761302 0.9977304
vn 0.01587099 0.999874 -0.000345267
vn 0.01587099 0.999874 -0.000345267
vn 0.01587099 0.999874 -0.000345267
vn 0.01587099 0.999874 -0.000345267
vn -0.968132 -0.04761302 -0.2458728
vn -0.968132 -0.04761302 -0.2458728
vn -0.968132 -0.04761302 -0.2458728
vn -0.968132 -0.04761302 -0.2458728
vn 0.01587099 0.999874 -0.000345267
vn 0.01587099 0.999874 -0.000345267
vn 0.01587099 0.999874 -0.000345267
vn 0.01587099 0.999874 -0.000345267
vn 0.04761302 -0.04761302 0.9977304
vn 0.04761302 -0.04761302 0.9977304
vn 0.04761302 -0.04761302 0.9977304
vn 0.04761302 -0.04761302 0.9977304
vn -0.968132 -0.04761302 -0.2458728
vn -0.968132 -0.04761302 -0.2458728
vn -0.968132 -0.04761302 -0.2458728
vn -0.968132 -0.04761302 -0.2458728
vn 0.04761302 -0.04761302 -0.9977304
vn 0.04761302 -0.04761302 -0.9977304
vn 0.04761302 -0.04761302 -0.9977304
vn 0.04761302 -0.04761302 -0.9977304
vn 0.999874 -0.01587099 -0.000346655
vn 0.999874 -0.01587099 -0.000346655
vn 0.999874 -0.01587099 -0.000346655
vn 0.999874 -0.01587099 -0.000346655
vn 0.01587099 0.999874 -0.000345267
vn 0.01587099 0.999874 -0.000345267
vn 0.01587099 0.999874 -0.000345267
vn 0.01587099 0.999874 -0.000345267
vn 0.04761302 -0.04761302 0.9977304
vn 0.04761302 -0.04761302 0.9977304
vn 0.04761302 -0.04761302 0.9977304
vn 0.04761302 -0.04761302 0.9977304
vn -0.968132 -0.04761302 -0.2458728
vn -0.968132 -0.04761302 -0.2458728
vn -0.968132 -0.04761302 -0.2458728
vn -0.968132 -0.04761302 -0.2458728
vn 0.04761302 -0.04761302 -0.9977304
vn 0.04761302 -0.04761302 -0.9977304
vn 0.04761302 -0.04761302 -0.9977304
vn 0.04761302 -0.04761302 -0.9977304
vn 0.999874 -0.01587099 -0.000346655
vn 0.999874 -0.01587099 -0.000346655
vn 0.999874 -0.01587099 -0.000346655
vn 0.999874 -0.01587099 -0.000346655
vn 0.04761302 -0.04761302 0.9977304
vn 0.04761302 -0.04761302 0.9977304
vn 0.04761302 -0.04761302 0.9977304
vn 0.04761302 -0.04761302 0.9977304
vn -0.968132 -0.04761302 -0.2458728
vn -0.968132 -0.04761302 -0.2458728
vn -0.968132 -0.04761302 -0.2458728
vn -0.968132 -0.04761302 -0.2458728
vn 0.04761302 -0.04761302 -0.9977304
vn 0.04761302 -0.04761302 -0.9977304
vn 0.04761302 -0.04761302 -0.9977304
vn 0.04761302 -0.04761302 -0.9977304
vn 0.999874 -0.01587099 -0.000346655
vn 0.999874 -0.01587099 -0.000346655
vn 0.999874 -0.01587099 -0.000346655
vn 0.999874 -0.01587099 -0.000346655
vn 0.01587099 0.999874 -0.000345267
vn 0.01587099 0.999874 -0.000345267
vn 0.01587099 0.999874 -0.000345267
vn 0.01587099 0.999874 -0.000345267
vn 0.01587099 0.999874 -0.000345267
vn 0.01587099 0.999874 -0.000345267
vn 0.01587099 0.999874 -0.000345267
vn 0.01587099 0.999874 -0.000345267
vn 0.01587099 0.999874 -0.000345267
vn 0.01587099 0.999874 -0.000345267
vn 0.01587099 0.999874 -0.000345267
vn 0.01587099 0.999874 -0.000345267
vn 0.01587099 0.999874 -0.000345267
vn 0.01587099 0.999874 -0.000345267
vn 0.01587099 0.999874 -0.000345267
vn 0.01587099 0.999874 -0.000345267
vn 0.04761302 -0.04761302 0.9977304
vn 0.04761302 -0.04761302 0.9977304
vn 0.04761302 -0.04761302 0.9977304
vn 0.04761302 -0.04761302 0.9977304
vn -0.968132 -0.04761302 -0.2458728
vn -0.968132 -0.04761302 -0.2458728
vn -0.968132 -0.04761302 -0.2458728
vn -0.968132 -0.04761302 -0.2458728
vn 0.04761302 -0.04761302 -0.9977304
vn 0.04761302 -0.04761302 -0.9977304
vn 0.04761302 -0.04761302 -0.9977304
vn 0.04761302 -0.04761302 -0.9977304
vn 0.999874 -0.01587099 -0.000346655
vn 0.999874 -0.01587099 -0.000346655
vn 0.999874 -0.01587099 -0.000346655
vn 0.999874 -0.01587099 -0.000346655
vn 0.04761302 -0.04761302 0.9977304
vn 0.04761302 -0.04761302 0.9977304
vn 0.04761302 -0.04761302 0.9977304
vn 0.04761302 -0.04761302 0.9977304
vn -0.968132 -0.04761302 -0.2458728
vn -0.968132 -0.04761302 -0.2458728
vn -0.968132 -0.04761302 -0.2458728
vn -0.968132 -0.04761302 -0.2458728
vn 0.04761302 -0.04761302 -0.9977304
vn 0.04761302 -0.04761302 -0.9977304
vn 0.04761302 -0.04761302 -0.9977304
vn 0.04761302 -0.04761302 -0.9977304
vn 0.999874 -0.01587099 -0.000346655
vn 0.999874 -0.01587099 -0.000346655
vn 0.999874 -0.01587099 -0.000346655
vn 0.999874 -0.01587099 -0.000346655
g DSJ_GTA_gaoLou_6_0
f 3/3/3 2/2/2 1/1/1
f 4/4/4 2/2/2 3/3/3
f 7/7/7 6/6/6 5/5/5
f 8/8/8 6/6/6 7/7/7
f 11/11/11 10/10/10 9/9/9
f 12/12/12 10/10/10 11/11/11
f 15/15/15 14/14/14 13/13/13
f 16/16/16 14/14/14 15/15/15
f 19/19/19 18/18/18 17/17/17
f 20/20/20 18/18/18 19/19/19
f 23/23/23 22/22/22 21/21/21
f 24/24/24 22/22/22 23/23/23
f 27/27/27 26/26/26 25/25/25
f 28/28/28 26/26/26 27/27/27
f 29/29/29 28/28/28 27/27/27
f 30/30/30 28/28/28 29/29/29
f 31/31/31 30/30/30 29/29/29
f 31/31/31 29/29/29 32/32/32
f 29/29/29 27/27/27 33/33/33
f 33/33/33 27/27/27 34/34/34
f 34/34/34 35/35/35 33/33/33
f 36/36/36 35/35/35 34/34/34
f 37/37/37 36/36/36 34/34/34
f 38/38/38 36/36/36 37/37/37
f 41/41/41 40/40/40 39/39/39
f 42/42/42 40/40/40 41/41/41
f 45/45/45 44/44/44 43/43/43
f 46/46/46 44/44/44 45/45/45
f 49/49/49 48/48/48 47/47/47
f 50/50/50 48/48/48 49/49/49
f 53/53/53 52/52/52 51/51/51
f 54/54/54 52/52/52 53/53/53
f 57/57/57 56/56/56 55/55/55
f 58/58/58 56/56/56 57/57/57
f 61/61/61 60/60/60 59/59/59
f 62/62/62 60/60/60 61/61/61
f 65/65/65 64/64/64 63/63/63
f 66/66/66 64/64/64 65/65/65
f 69/69/69 68/68/68 67/67/67
f 70/70/70 68/68/68 69/69/69
f 73/73/73 72/72/72 71/71/71
f 74/74/74 72/72/72 73/73/73
f 75/75/75 74/74/74 73/73/73
f 76/76/76 74/74/74 75/75/75
f 77/77/77 76/76/76 75/75/75
f 78/78/78 76/76/76 77/77/77
f 72/72/72 74/74/74 79/79/79
f 82/82/82 81/81/81 80/80/80
f 83/83/83 81/81/81 82/82/82
f 86/86/86 85/85/85 84/84/84
f 87/87/87 85/85/85 86/86/86
f 90/90/90 89/89/89 88/88/88
f 91/91/91 89/89/89 90/90/90
f 94/94/94 93/93/93 92/92/92
f 95/95/95 93/93/93 94/94/94
f 98/98/98 97/97/97 96/96/96
f 99/99/99 97/97/97 98/98/98
f 102/102/102 101/101/101 100/100/100
f 103/103/103 101/101/101 102/102/102
f 106/106/106 105/105/105 104/104/104
f 107/107/107 105/105/105 106/106/106
f 110/110/110 109/109/109 108/108/108
f 111/111/111 109/109/109 110/110/110
f 114/114/114 113/113/113 112/112/112
f 115/115/115 113/113/113 114/114/114
f 118/118/118 117/117/117 116/116/116
f 119/119/119 117/117/117 118/118/118
f 122/122/122 121/121/121 120/120/120
f 123/123/123 121/121/121 122/122/122
f 126/126/126 125/125/125 124/124/124
f 127/127/127 125/125/125 126/126/126
f 130/130/130 129/129/129 128/128/128
f 131/131/131 129/129/129 130/130/130
f 134/134/134 133/133/133 132/132/132
f 135/135/135 133/133/133 134/134/134
f 138/138/138 137/137/137 136/136/136
f 139/139/139 137/137/137 138/138/138
f 142/142/142 141/141/141 140/140/140
f 143/143/143 141/141/141 142/142/142
f 146/146/146 145/145/145 144/144/144
f 147/147/147 145/145/145 146/146/146
f 150/150/150 149/149/149 148/148/148
f 151/151/151 149/149/149 150/150/150
f 154/154/154 153/153/153 152/152/152
f 155/155/155 153/153/153 154/154/154
f 158/158/158 157/157/157 156/156/156
f 159/159/159 157/157/157 158/158/158
f 162/162/162 161/161/161 160/160/160
f 163/163/163 161/161/161 162/162/162
f 166/166/166 165/165/165 164/164/164
f 167/167/167 165/165/165 166/166/166
f 170/170/170 169/169/169 168/168/168
f 171/171/171 169/169/169 170/170/170
f 174/174/174 173/173/173 172/172/172
f 175/175/175 173/173/173 174/174/174
f 176/176/176 175/175/175 174/174/174
f 177/177/177 176/176/176 174/174/174
f 178/178/178 176/176/176 177/177/177
f 181/181/181 180/180/180 179/179/179
f 182/182/182 180/180/180 181/181/181
f 185/185/185 184/184/184 183/183/183
f 186/186/186 184/184/184 185/185/185
f 189/189/189 188/188/188 187/187/187
f 190/190/190 188/188/188 189/189/189
f 193/193/193 192/192/192 191/191/191
f 194/194/194 192/192/192 193/193/193
f 197/197/197 196/196/196 195/195/195
f 198/198/198 196/196/196 197/197/197
f 201/201/201 200/200/200 199/199/199
f 202/202/202 200/200/200 201/201/201
f 205/205/205 204/204/204 203/203/203
f 206/206/206 204/204/204 205/205/205
f 209/209/209 208/208/208 207/207/207
f 210/210/210 208/208/208 209/209/209
f 213/213/213 212/212/212 211/211/211
f 214/214/214 212/212/212 213/213/213
f 217/217/217 216/216/216 215/215/215
f 218/218/218 216/216/216 217/217/217
f 221/221/221 220/220/220 219/219/219
f 222/222/222 220/220/220 221/221/221
f 225/225/225 224/224/224 223/223/223
f 226/226/226 224/224/224 225/225/225
f 229/229/229 228/228/228 227/227/227
f 230/230/230 228/228/228 229/229/229
f 233/233/233 232/232/232 231/231/231
f 234/234/234 232/232/232 233/233/233
f 237/237/237 236/236/236 235/235/235
f 238/238/238 236/236/236 237/237/237
f 241/241/241 240/240/240 239/239/239
f 242/242/242 240/240/240 241/241/241
f 245/245/245 244/244/244 243/243/243
f 246/246/246 244/244/244 245/245/245
f 249/249/249 248/248/248 247/247/247
f 250/250/250 248/248/248 249/249/249
f 253/253/253 252/252/252 251/251/251
f 254/254/254 252/252/252 253/253/253
f 257/257/257 256/256/256 255/255/255
f 258/258/258 256/256/256 257/257/257
f 261/261/261 260/260/260 259/259/259
f 262/262/262 260/260/260 261/261/261
f 265/265/265 264/264/264 263/263/263
f 266/266/266 264/264/264 265/265/265
f 269/269/269 268/268/268 267/267/267
f 270/270/270 268/268/268 269/269/269
f 273/273/273 272/272/272 271/271/271
f 274/274/274 272/272/272 273/273/273
f 277/277/277 276/276/276 275/275/275
f 278/278/278 276/276/276 277/277/277
f 281/281/281 280/280/280 279/279/279
f 282/282/282 280/280/280 281/281/281
f 285/285/285 284/284/284 283/283/283
f 286/286/286 284/284/284 285/285/285
f 289/289/289 288/288/288 287/287/287
f 290/290/290 288/288/288 289/289/289
f 293/293/293 292/292/292 291/291/291
f 294/294/294 292/292/292 293/293/293
f 297/297/297 296/296/296 295/295/295
f 298/298/298 296/296/296 297/297/297
