g FB_saiDao_luZhang3
v -0.6293331 0.0902182 0
v 0.6293331 0.01917915 0.03424334
v -0.6293331 0.01917915 0.03424334
v 0.6293331 0.0902182 0
v -0.6293331 0.01917915 -0.03424334
v 0.6293331 0.0902182 0
v -0.6293331 0.0902182 0
v 0.6293331 0.01917915 -0.03424334
v -0.7355945 -0.005503232 0.1474055
v 0.7355945 0.03116581 0
v 0.7355945 -0.005503232 0.1474055
v -0.7355945 0.03116581 0
v -0.7355945 0.03116581 0
v 0.7355945 -0.005503232 -0.1474055
v 0.7355945 0.03116581 0
v -0.7355945 -0.005503232 -0.1474055
v -0.7355945 -0.005503232 -0.1474055
v 0.7355945 -0.005503232 0.1474055
v 0.7355945 -0.005503232 -0.1474055
v -0.7355945 -0.005503232 0.1474055
v 0.7355945 -0.005503232 0.1474055
v 0.7355945 0.03116581 0
v 0.7355945 -0.005503232 -0.1474055
v -0.7355945 -0.005503232 -0.1474055
v -0.7355945 0.03116581 0
v -0.7355945 -0.005503232 0.1474055
v -0.3422295 1.050336 -0.0173883
v -0.3074529 0.7990301 -0.0173883
v -0.3074529 1.050336 -0.0173883
v -0.3422295 0.7990301 -0.0173883
v -0.3248411 0.7990301 0.0173883
v -0.3074529 1.050336 -0.0173883
v -0.3074529 0.7990301 -0.0173883
v -0.3248411 1.050336 0.0173883
v -0.3422295 0.7990301 -0.0173883
v -0.3248411 1.050336 0.0173883
v -0.3248411 0.7990301 0.0173883
v -0.3422295 1.050336 -0.0173883
v -0.01738831 1.050336 -0.01738831
v 0.01738831 0.7990301 -0.01738831
v 0.01738831 1.050336 -0.01738831
v -0.01738831 0.7990301 -0.01738831
v 0 0.7990301 0.01738831
v 0.01738831 1.050336 -0.01738831
v 0.01738831 0.7990301 -0.01738831
v 0 1.050336 0.01738831
v -0.01738831 0.7990301 -0.01738831
v 0 1.050336 0.01738831
v 0 0.7990301 0.01738831
v -0.01738831 1.050336 -0.01738831
v -0.6293331 0.7512668 0
v 0.6293331 0.8025737 0.03424334
v 0.6293331 0.7512668 0
v -0.6293331 0.8025737 0.03424334
v -0.6293331 0.8025737 0.03424334
v 0.6293331 0.8025737 -0.03424334
v 0.6293331 0.8025737 0.03424334
v -0.6293331 0.8025737 -0.03424334
v -0.6293331 0.8025737 -0.03424334
v 0.6293331 0.7512668 0
v 0.6293331 0.8025737 -0.03424334
v -0.6293331 0.7512668 0
v 0.3422295 1.050336 -0.0173883
v 0.3074529 0.7990301 -0.0173883
v 0.3422295 0.7990301 -0.0173883
v 0.3074529 1.050336 -0.0173883
v 0.3248411 0.7990301 0.0173883
v 0.3074529 1.050336 -0.0173883
v 0.3248411 1.050336 0.0173883
v 0.3074529 0.7990301 -0.0173883
v 0.3422295 0.7990301 -0.0173883
v 0.3248411 1.050336 0.0173883
v 0.3422295 1.050336 -0.0173883
v 0.3248411 0.7990301 0.0173883
v -0.6301522 0.004509451 0.03430462
v -0.6627982 1.0401 0
v -0.6303822 1.040425 0.03427398
v -0.6627982 0.004509451 0
v -0.6303822 1.040425 -0.03427398
v -0.6627982 0.004509451 0
v -0.6301522 0.004509451 -0.03430462
v -0.6627982 1.0401 0
v -0.6301522 0.004509451 -0.03430462
v -0.6303822 1.040425 0.03427398
v -0.6303822 1.040425 -0.03427398
v -0.6301522 0.004509451 0.03430462
v 0.6301522 0.004509451 0.03430462
v 0.6627982 1.0401 0
v 0.6627982 0.004509451 0
v 0.6303822 1.040425 0.03427398
v 0.6303822 1.040425 -0.03427398
v 0.6627982 0.004509451 0
v 0.6627982 1.0401 0
v 0.6301522 0.004509451 -0.03430462
v 0.6301522 0.004509451 -0.03430462
v 0.6303822 1.040425 0.03427398
v 0.6301522 0.004509451 0.03430462
v 0.6303822 1.040425 -0.03427398
v -0.6489394 0.42449 0.008310905
v 0.6489394 0.7789084 0.008310905
v 0.6489394 0.42449 0.008310905
v -0.6489394 0.7789084 0.008310905
v -0.6489394 0.42449 -0.008310905
v 0.6489394 0.0700717 -0.008310905
v 0.6489394 0.42449 -0.008310905
v -0.6489394 0.0700717 -0.008310905
v -0.6303822 1.040425 0.03427398
v 0.6306122 1.085521 0
v 0.6303822 1.040425 0.03427398
v -0.6306122 1.085521 0
v -0.6306122 1.085521 0
v 0.6303822 1.040425 -0.03427398
v 0.6306122 1.085521 0
v -0.6303822 1.040425 -0.03427398
v -0.6303822 1.040425 -0.03427398
v 0.6303822 1.040425 0.03427398
v 0.6303822 1.040425 -0.03427398
v -0.6303822 1.040425 0.03427398
v -0.6627982 1.0401 0
v -0.6306122 1.085521 0
v -0.6303822 1.040425 0.03427398
v 0.6627982 1.0401 0
v 0.6306122 1.085521 0
v 0.6303822 1.040425 -0.03427398
v -0.6627982 1.0401 0
v -0.6303822 1.040425 -0.03427398
v -0.6306122 1.085521 0
v 0.6627982 1.0401 0
v 0.6303822 1.040425 0.03427398
v 0.6306122 1.085521 0
v -0.6489394 0.0700717 0.008310905
v 0.6489394 0.42449 0.008310905
v 0.6489394 0.0700717 0.008310905
v -0.6489394 0.42449 0.008310905
v -0.6489394 0.7789084 -0.008310905
v 0.6489394 0.42449 -0.008310905
v 0.6489394 0.7789084 -0.008310905
v -0.6489394 0.42449 -0.008310905
vt 0.6367493 0.6441064
vt 0.6518971 0.6592543
vt 0.6367493 0.6592543
vt 0.6518971 0.6441064
vt 0.6367493 0.6441064
vt 0.6518971 0.6592543
vt 0.6367492 0.6592543
vt 0.6518971 0.6441064
vt 0.6656018 0.6378077
vt 0.6307026 0.7458293
vt 0.6656018 0.7458293
vt 0.6307027 0.6378077
vt 0.6656018 0.6378077
vt 0.6307026 0.7458293
vt 0.6656018 0.7458293
vt 0.6307027 0.6378077
vt 0.6656018 0.6378077
vt 0.6307027 0.7458293
vt 0.6656018 0.7458293
vt 0.6307027 0.6378074
vt 0.6656018 0.6378077
vt 0.6307026 0.7458293
vt 0.6656018 0.7458292
vt 0.6656018 0.6378077
vt 0.6307026 0.7458293
vt 0.6656018 0.7458293
vt 0.6258609 0.6729863
vt 0.6678333 0.7149587
vt 0.6678333 0.6729863
vt 0.6258609 0.7149587
vt 0.6258609 0.6729863
vt 0.6678333 0.7149587
vt 0.6678333 0.6729863
vt 0.6258609 0.7149587
vt 0.6258609 0.6729863
vt 0.6678333 0.7149587
vt 0.6678333 0.6729863
vt 0.6258609 0.7149587
vt 0.6258609 0.6729863
vt 0.6678333 0.7149587
vt 0.6678333 0.6729863
vt 0.6258609 0.7149587
vt 0.6258609 0.6729863
vt 0.6678333 0.7149587
vt 0.6678333 0.6729863
vt 0.6258609 0.7149587
vt 0.6258609 0.6729863
vt 0.6678333 0.7149587
vt 0.6678333 0.6729863
vt 0.6258609 0.7149587
vt 0.6367493 0.6441064
vt 0.6518971 0.6592543
vt 0.6518971 0.6441064
vt 0.6367493 0.6592543
vt 0.6367493 0.6441064
vt 0.6518971 0.6592543
vt 0.6518971 0.6441064
vt 0.6367493 0.6592543
vt 0.6367493 0.6441064
vt 0.6518971 0.6592543
vt 0.6518971 0.6441064
vt 0.6367492 0.6592543
vt 0.6258609 0.6729863
vt 0.6678333 0.7149587
vt 0.6678333 0.6729863
vt 0.6258609 0.7149587
vt 0.6258609 0.6729863
vt 0.6678333 0.7149587
vt 0.6678333 0.6729863
vt 0.6258609 0.7149587
vt 0.6258609 0.6729863
vt 0.6678333 0.7149587
vt 0.6678333 0.6729863
vt 0.6258609 0.7149587
vt 0.6575829 0.6363087
vt 0.6353307 0.7477152
vt 0.6575828 0.7477154
vt 0.6353307 0.6363085
vt 0.6575829 0.6363087
vt 0.6353307 0.7477152
vt 0.6575828 0.7477154
vt 0.6353307 0.6363085
vt 0.6575829 0.6363087
vt 0.6353307 0.7477152
vt 0.6575828 0.7477154
vt 0.6353307 0.6363085
vt 0.6575828 0.7477154
vt 0.6353307 0.6363085
vt 0.6353307 0.7477152
vt 0.6575829 0.6363087
vt 0.6575828 0.7477154
vt 0.6353307 0.6363085
vt 0.6353307 0.7477152
vt 0.6575829 0.6363087
vt 0.6575828 0.7477154
vt 0.6353307 0.6363085
vt 0.6353307 0.7477152
vt 0.6575829 0.6363087
vt 0.8837565 0.5852096
vt 0.9979681 0.5559247
vt 0.9598976 0.5266395
vt 0.921827 0.6144947
vt 0.8837565 0.5852096
vt 0.9979681 0.5559247
vt 0.9598976 0.5266395
vt 0.921827 0.6144947
vt 0.6575829 0.6363087
vt 0.6353307 0.7477152
vt 0.6575828 0.7477154
vt 0.6353307 0.6363085
vt 0.6575829 0.6363087
vt 0.6353307 0.7477152
vt 0.6575828 0.7477154
vt 0.6353307 0.6363085
vt 0.6575829 0.6363087
vt 0.6353307 0.7477152
vt 0.6575828 0.7477154
vt 0.6353307 0.6363085
vt 0.626773 0.672938
vt 0.6677988 0.7139637
vt 0.6677988 0.672938
vt 0.626773 0.672938
vt 0.6677988 0.7139637
vt 0.6677988 0.672938
vt 0.626773 0.672938
vt 0.6677988 0.7139637
vt 0.6677988 0.672938
vt 0.626773 0.672938
vt 0.6677988 0.7139637
vt 0.6677988 0.672938
vt 0.921827 0.530066
vt 0.9598976 0.6179211
vt 0.9979681 0.588636
vt 0.8837565 0.559351
vt 0.921827 0.530066
vt 0.9598976 0.6179211
vt 0.9979681 0.588636
vt 0.8837565 0.559351
g FB_saiDao_luZhang3_0
f 3/3/3 2/2/2 1/1/1
f 2/2/2 4/4/4 1/1/1
f 7/7/7 6/6/6 5/5/5
f 6/6/6 8/8/8 5/5/5
f 11/11/11 10/10/10 9/9/9
f 10/10/10 12/12/12 9/9/9
f 15/15/15 14/14/14 13/13/13
f 14/14/14 16/16/16 13/13/13
f 19/19/19 18/18/18 17/17/17
f 18/18/18 20/20/20 17/17/17
f 23/23/23 22/22/22 21/21/21
f 26/26/26 25/25/25 24/24/24
f 29/29/29 28/28/28 27/27/27
f 28/28/28 30/30/30 27/27/27
f 33/33/33 32/32/32 31/31/31
f 32/32/32 34/34/34 31/31/31
f 37/37/37 36/36/36 35/35/35
f 36/36/36 38/38/38 35/35/35
f 41/41/41 40/40/40 39/39/39
f 40/40/40 42/42/42 39/39/39
f 45/45/45 44/44/44 43/43/43
f 44/44/44 46/46/46 43/43/43
f 49/49/49 48/48/48 47/47/47
f 48/48/48 50/50/50 47/47/47
f 53/53/53 52/52/52 51/51/51
f 52/52/52 54/54/54 51/51/51
f 57/57/57 56/56/56 55/55/55
f 56/56/56 58/58/58 55/55/55
f 61/61/61 60/60/60 59/59/59
f 60/60/60 62/62/62 59/59/59
f 65/65/65 64/64/64 63/63/63
f 64/64/64 66/66/66 63/63/63
f 69/69/69 68/68/68 67/67/67
f 68/68/68 70/70/70 67/67/67
f 73/73/73 72/72/72 71/71/71
f 72/72/72 74/74/74 71/71/71
f 77/77/77 76/76/76 75/75/75
f 76/76/76 78/78/78 75/75/75
f 81/81/81 80/80/80 79/79/79
f 80/80/80 82/82/82 79/79/79
f 85/85/85 84/84/84 83/83/83
f 84/84/84 86/86/86 83/83/83
f 89/89/89 88/88/88 87/87/87
f 88/88/88 90/90/90 87/87/87
f 93/93/93 92/92/92 91/91/91
f 92/92/92 94/94/94 91/91/91
f 97/97/97 96/96/96 95/95/95
f 96/96/96 98/98/98 95/95/95
f 101/101/101 100/100/100 99/99/99
f 100/100/100 102/102/102 99/99/99
f 105/105/105 104/104/104 103/103/103
f 104/104/104 106/106/106 103/103/103
f 109/109/109 108/108/108 107/107/107
f 108/108/108 110/110/110 107/107/107
f 113/113/113 112/112/112 111/111/111
f 112/112/112 114/114/114 111/111/111
f 117/117/117 116/116/116 115/115/115
f 116/116/116 118/118/118 115/115/115
f 121/121/121 120/120/120 119/119/119
f 124/124/124 123/123/123 122/122/122
f 127/127/127 126/126/126 125/125/125
f 130/130/130 129/129/129 128/128/128
f 133/133/133 132/132/132 131/131/131
f 132/132/132 134/134/134 131/131/131
f 137/137/137 136/136/136 135/135/135
f 136/136/136 138/138/138 135/135/135
