g FB_saiDao_luZhang2
v -0.7045272 0 0.4269508
v 0.7037603 0.2556616 0.4267817
v 0.7039123 0 0.4269508
v -0.7041987 0.2556616 0.4267817
v 0.7037041 0.3460915 0.2249209
v -0.7040769 0.3460915 0.2249209
v 0.7028566 1.392648 0.1610979
v -0.7022415 1.392648 0.1610979
v -0.7022415 1.392648 0.1610979
v 0.7028566 1.392648 -0.1610979
v 0.7028566 1.392648 0.1610979
v -0.7022415 1.392648 -0.1610979
v -0.7041987 0.2556617 -0.4262983
v 0.7039123 0 -0.4274342
v 0.7037603 0.2556617 -0.4262983
v -0.7045272 0 -0.4274342
v -0.7040769 0.3460916 -0.2249209
v 0.7037041 0.3460916 -0.2249209
v -0.7022415 1.392648 -0.1610979
v 0.7028566 1.392648 -0.1610979
v 0.7039123 0 0.4269508
v 0.7037603 0.2556617 -0.4262983
v 0.7039123 0 -0.4274342
v 0.7037603 0.2556616 0.4267817
v 0.7037041 0.3460916 -0.2249209
v 0.7037041 0.3460915 0.2249209
v 0.7028566 1.392648 0.1610979
v 0.7028566 1.392648 -0.1610979
v -0.7045272 0 -0.4274342
v -0.7041987 0.2556616 0.4267817
v -0.7045272 0 0.4269508
v -0.7041987 0.2556617 -0.4262983
v -0.7040769 0.3460915 0.2249209
v -0.7040769 0.3460916 -0.2249209
v -0.7022415 1.392648 0.1610979
v -0.7022415 1.392648 -0.1610979
vt 0.5113264 0.6030537
vt 0.607074 0.6236284
vt 0.607074 0.6030537
vt 0.5113264 0.6236284
vt 0.607074 0.6414291
vt 0.5113264 0.6414292
vt 0.607074 0.7292918
vt 0.5113264 0.7292919
vt 0.6071138 0.7488648
vt 0.5113264 0.7292919
vt 0.5112891 0.748866
vt 0.607074 0.7292918
vt 0.607074 0.6236284
vt 0.5113264 0.6030537
vt 0.5113264 0.6236284
vt 0.607074 0.6030537
vt 0.607074 0.6414292
vt 0.5113264 0.6414292
vt 0.607074 0.7292918
vt 0.5113264 0.7292919
vt 0.5015464 0.603485
vt 0.6176731 0.625038
vt 0.6172349 0.6025741
vt 0.5021611 0.6259475
vt 0.590511 0.6335694
vt 0.5295998 0.6340488
vt 0.5402179 0.7302245
vt 0.583845 0.7298808
vt 0.5015464 0.603485
vt 0.6176733 0.625038
vt 0.6172349 0.6025738
vt 0.5021613 0.6259474
vt 0.590511 0.6335695
vt 0.5295998 0.6340488
vt 0.5838449 0.7298809
vt 0.5402179 0.7302245
g FB_saiDao_luZhang2_0
f 3/3/3 2/2/2 1/1/1
f 2/2/2 4/4/4 1/1/1
f 2/2/2 5/5/5 4/4/4
f 5/5/5 6/6/6 4/4/4
f 5/5/5 7/7/7 6/6/6
f 7/7/7 8/8/8 6/6/6
f 11/11/11 10/10/10 9/9/9
f 10/10/10 12/12/12 9/9/9
f 15/15/15 14/14/14 13/13/13
f 14/14/14 16/16/16 13/13/13
f 15/15/15 13/13/13 17/17/17
f 18/18/18 15/15/15 17/17/17
f 17/17/17 19/19/19 18/18/18
f 19/19/19 20/20/20 18/18/18
f 23/23/23 22/22/22 21/21/21
f 22/22/22 24/24/24 21/21/21
f 22/22/22 25/25/25 24/24/24
f 25/25/25 26/26/26 24/24/24
f 26/26/26 25/25/25 27/27/27
f 25/25/25 28/28/28 27/27/27
f 31/31/31 30/30/30 29/29/29
f 30/30/30 32/32/32 29/29/29
f 30/30/30 33/33/33 32/32/32
f 33/33/33 34/34/34 32/32/32
f 33/33/33 35/35/35 34/34/34
f 35/35/35 36/36/36 34/34/34
