g FB_saiDao_luzhang6
v -0.9625304 0.7121027 -0.1382678
v -1.037455 0.8796823 -0.4327042
v -0.9625304 0.8796823 -0.4327042
v -1.037455 0.7121027 -0.1382678
v -0.9999931 0.9263256 -0.6739576
v -0.9999931 0.6463838 -0.1742454
v -1.037455 0.8796823 -0.4327042
v -1.037455 0.7121027 -0.1382678
v -0.9999931 0.9263256 -0.6739576
v -0.9999931 0.6463838 -0.1742454
v -0.9625304 0.7121027 -0.1382678
v -0.9625304 0.8796823 -0.4327042
v -0.9999931 0.9263256 -0.6739576
v -1.96253 0.7121027 -0.1382678
v -2.037455 0.8796823 -0.4327042
v -1.96253 0.8796823 -0.4327042
v -2.037455 0.7121027 -0.1382678
v -1.999992 0.9263256 -0.6739576
v -1.999992 0.6463838 -0.1742454
v -2.037455 0.8796823 -0.4327042
v -2.037455 0.7121027 -0.1382678
v -1.999992 0.9263256 -0.6739576
v -1.999992 0.6463838 -0.1742454
v -1.96253 0.7121027 -0.1382678
v -1.96253 0.8796823 -0.4327042
v -1.999992 0.9263256 -0.6739576
v -2.962529 0.7121027 -0.1382678
v -3.037454 0.8796823 -0.4327042
v -2.962529 0.8796823 -0.4327042
v -3.037454 0.7121027 -0.1382678
v -2.999992 0.9263256 -0.6739576
v -2.999992 0.6463838 -0.1742454
v -3.037454 0.8796823 -0.4327042
v -3.037454 0.7121027 -0.1382678
v -2.999992 0.9263256 -0.6739576
v -2.999992 0.6463838 -0.1742454
v -2.962529 0.7121027 -0.1382678
v -2.962529 0.8796823 -0.4327042
v -2.999992 0.9263256 -0.6739576
v -0.03745627 0.7121027 -0.1382678
v 0.03746867 0.8796823 -0.4327042
v 0.03746867 0.7121027 -0.1382678
v -0.03745627 0.8796823 -0.4327042
v 6.198883E-06 0.9263256 -0.6739576
v 6.198883E-06 0.6463838 -0.1742454
v 0.03746867 0.7121027 -0.1382678
v 0.03746867 0.8796823 -0.4327042
v 6.198883E-06 0.9263256 -0.6739576
v 6.198883E-06 0.6463838 -0.1742454
v -0.03745627 0.8796823 -0.4327042
v -0.03745627 0.7121027 -0.1382678
v 6.198883E-06 0.9263256 -0.6739576
v 0.962543 0.7121027 -0.1382678
v 1.037468 0.8796823 -0.4327042
v 1.037468 0.7121027 -0.1382678
v 0.962543 0.8796823 -0.4327042
v 1.000005 0.9263256 -0.6739576
v 1.000005 0.6463838 -0.1742454
v 1.037468 0.7121027 -0.1382678
v 1.037468 0.8796823 -0.4327042
v 1.000005 0.9263256 -0.6739576
v 1.000005 0.6463838 -0.1742454
v 0.962543 0.8796823 -0.4327042
v 0.962543 0.7121027 -0.1382678
v 1.000005 0.9263256 -0.6739576
v 1.962542 0.7121027 -0.1382678
v 2.037467 0.8796823 -0.4327042
v 2.037467 0.7121027 -0.1382678
v 1.962542 0.8796823 -0.4327042
v 2.000005 0.9263256 -0.6739576
v 2.000005 0.6463838 -0.1742454
v 2.037467 0.7121027 -0.1382678
v 2.037467 0.8796823 -0.4327042
v 2.000005 0.9263256 -0.6739576
v 2.000005 0.6463838 -0.1742454
v 1.962542 0.8796823 -0.4327042
v 1.962542 0.7121027 -0.1382678
v 2.000005 0.9263256 -0.6739576
v 2.962541 0.7121027 -0.1382678
v 3.037466 0.8796823 -0.4327042
v 3.037466 0.7121027 -0.1382678
v 2.962541 0.8796823 -0.4327042
v 3.000004 0.9263256 -0.6739576
v 3.000004 0.6463838 -0.1742454
v 3.037466 0.7121027 -0.1382678
v 3.037466 0.8796823 -0.4327042
v 3.000004 0.9263256 -0.6739576
v 3.000004 0.6463838 -0.1742454
v 2.962541 0.8796823 -0.4327042
v 2.962541 0.7121027 -0.1382678
v 3.000004 0.9263256 -0.6739576
v -0.9625304 0.2572141 -0.3654437
v -1.037455 0.3244052 -0.697494
v -0.9625304 0.3244052 -0.697494
v -1.037455 0.2572141 -0.3654437
v -0.9999931 0.2933307 -0.9412432
v -0.9999931 0.1835465 -0.3790789
v -1.037455 0.3244052 -0.697494
v -1.037455 0.2572141 -0.3654437
v -0.9999931 0.2933307 -0.9412432
v -0.9999931 0.1835465 -0.3790789
v -0.9625304 0.2572141 -0.3654437
v -0.9625304 0.3244052 -0.697494
v -0.9999931 0.2933307 -0.9412432
v -1.96253 0.2572141 -0.3654437
v -2.037455 0.3244052 -0.697494
v -1.96253 0.3244052 -0.697494
v -2.037455 0.2572141 -0.3654437
v -1.999992 0.2933307 -0.9412432
v -1.999992 0.1835465 -0.3790789
v -2.037455 0.3244052 -0.697494
v -2.037455 0.2572141 -0.3654437
v -1.999992 0.2933307 -0.9412432
v -1.999992 0.1835465 -0.3790789
v -1.96253 0.2572141 -0.3654437
v -1.96253 0.3244052 -0.697494
v -1.999992 0.2933307 -0.9412432
v -2.962529 0.2572141 -0.3654437
v -3.037454 0.3244052 -0.697494
v -2.962529 0.3244052 -0.697494
v -3.037454 0.2572141 -0.3654437
v -2.999992 0.2933307 -0.9412432
v -2.999992 0.1835465 -0.3790789
v -3.037454 0.3244052 -0.697494
v -3.037454 0.2572141 -0.3654437
v -2.999992 0.2933307 -0.9412432
v -2.999992 0.1835465 -0.3790789
v -2.962529 0.2572141 -0.3654437
v -2.962529 0.3244052 -0.697494
v -2.999992 0.2933307 -0.9412432
v -0.03745627 0.2572141 -0.3654437
v 0.03746867 0.3244052 -0.697494
v 0.03746867 0.2572141 -0.3654437
v -0.03745627 0.3244052 -0.697494
v 6.198883E-06 0.2933307 -0.9412432
v 6.198883E-06 0.1835465 -0.3790789
v 0.03746867 0.2572141 -0.3654437
v 0.03746867 0.3244052 -0.697494
v 6.198883E-06 0.2933307 -0.9412432
v 6.198883E-06 0.1835465 -0.3790789
v -0.03745627 0.3244052 -0.697494
v -0.03745627 0.2572141 -0.3654437
v 6.198883E-06 0.2933307 -0.9412432
v 0.962543 0.2572141 -0.3654437
v 1.037468 0.3244052 -0.697494
v 1.037468 0.2572141 -0.3654437
v 0.962543 0.3244052 -0.697494
v 1.000005 0.2933307 -0.9412432
v 1.000005 0.1835465 -0.3790789
v 1.037468 0.2572141 -0.3654437
v 1.037468 0.3244052 -0.697494
v 1.000005 0.2933307 -0.9412432
v 1.000005 0.1835465 -0.3790789
v 0.962543 0.3244052 -0.697494
v 0.962543 0.2572141 -0.3654437
v 1.000005 0.2933307 -0.9412432
v 1.962542 0.2572141 -0.3654437
v 2.037467 0.3244052 -0.697494
v 2.037467 0.2572141 -0.3654437
v 1.962542 0.3244052 -0.697494
v 2.000005 0.2933307 -0.9412432
v 2.000005 0.1835465 -0.3790789
v 2.037467 0.2572141 -0.3654437
v 2.037467 0.3244052 -0.697494
v 2.000005 0.2933307 -0.9412432
v 2.000005 0.1835465 -0.3790789
v 1.962542 0.3244052 -0.697494
v 1.962542 0.2572141 -0.3654437
v 2.000005 0.2933307 -0.9412432
v 2.962541 0.2572141 -0.3654437
v 3.037466 0.3244052 -0.697494
v 3.037466 0.2572141 -0.3654437
v 2.962541 0.3244052 -0.697494
v 3.000004 0.2933307 -0.9412432
v 3.000004 0.1835465 -0.3790789
v 3.037466 0.2572141 -0.3654437
v 3.037466 0.3244052 -0.697494
v 3.000004 0.2933307 -0.9412432
v 3.000004 0.1835465 -0.3790789
v 2.962541 0.3244052 -0.697494
v 2.962541 0.2572141 -0.3654437
v 3.000004 0.2933307 -0.9412432
v -3.312713 -0.04352808 0.6584396
v 3.31272 1.00096 -0.1568191
v 3.31272 -0.04352808 0.6584396
v -3.312713 1.00096 -0.1568191
v -3.312713 0.05441523 -0.5000091
v -3.312713 0.7122796 -0.3714905
v -3.312713 -0.04352808 0.6584396
v -3.312713 0.3240767 -0.5000091
v -3.312713 -0.04352808 -0.7454388
v -3.312713 0.9676549 -0.1815875
v -3.312713 1.00096 -0.1568191
v -3.312713 1.097551 -0.3214858
v -3.312713 0.3240767 -0.5000091
v 3.31272 0.05441523 -0.5000091
v 3.31272 0.3240767 -0.5000091
v -3.312713 0.05441523 -0.5000091
v 3.31272 0.7122796 -0.3714905
v -3.312713 0.7122796 -0.3714905
v -3.312713 0.9676549 -0.1815875
v 3.31272 0.9676549 -0.1815875
v -3.312713 1.00096 -0.1568191
v 3.31272 1.097551 -0.3214858
v 3.31272 1.00096 -0.1568191
v -3.312713 1.097551 -0.3214858
v 3.31272 1.00096 -0.1568191
v 3.31272 1.097551 -0.3214858
v 3.31272 0.9676549 -0.1815875
v 3.31272 -0.04352808 0.6584396
v 3.31272 0.7122796 -0.3714905
v 3.31272 0.3240767 -0.5000091
v 3.31272 0.05441523 -0.5000091
v 3.31272 -0.04352808 -0.7454388
v 3.31272 0.9676549 -0.1815875
v -3.312713 1.097551 -0.3214858
v -3.312713 0.9676549 -0.1815875
v 3.31272 1.097551 -0.3214858
v -3.312713 0.05441523 -0.5000091
v 3.31272 -0.04352808 -0.7454388
v 3.31272 0.05441523 -0.5000091
v -3.312713 -0.04352808 -0.7454388
v -0.9625304 0.5034719 -0.2762451
v -1.037455 0.6221902 -0.5935483
v -0.9625304 0.6221902 -0.5935483
v -1.037455 0.5034719 -0.2762451
v -0.9999931 0.6299558 -0.8391423
v -0.9999931 0.4328749 -0.3013296
v -1.037455 0.6221902 -0.5935483
v -1.037455 0.5034719 -0.2762451
v -0.9999931 0.6299558 -0.8391423
v -0.9999931 0.4328749 -0.3013296
v -0.9625304 0.5034719 -0.2762451
v -0.9625304 0.6221902 -0.5935483
v -0.9999931 0.6299558 -0.8391423
v -1.96253 0.5034719 -0.2762451
v -2.037455 0.6221902 -0.5935483
v -1.96253 0.6221902 -0.5935483
v -2.037455 0.5034719 -0.2762451
v -1.999992 0.6299558 -0.8391423
v -1.999992 0.4328749 -0.3013296
v -2.037455 0.6221902 -0.5935483
v -2.037455 0.5034719 -0.2762451
v -1.999992 0.6299558 -0.8391423
v -1.999992 0.4328749 -0.3013296
v -1.96253 0.5034719 -0.2762451
v -1.96253 0.6221902 -0.5935483
v -1.999992 0.6299558 -0.8391423
v -2.962529 0.5034719 -0.2762451
v -3.037454 0.6221902 -0.5935483
v -2.962529 0.6221902 -0.5935483
v -3.037454 0.5034719 -0.2762451
v -2.999992 0.6299558 -0.8391423
v -2.999992 0.4328749 -0.3013296
v -3.037454 0.6221902 -0.5935483
v -3.037454 0.5034719 -0.2762451
v -2.999992 0.6299558 -0.8391423
v -2.999992 0.4328749 -0.3013296
v -2.962529 0.5034719 -0.2762451
v -2.962529 0.6221902 -0.5935483
v -2.999992 0.6299558 -0.8391423
v -0.03745627 0.5034719 -0.2762451
v 0.03746867 0.6221902 -0.5935483
v 0.03746867 0.5034719 -0.2762451
v -0.03745627 0.6221902 -0.5935483
v 6.198883E-06 0.6299558 -0.8391423
v 6.198883E-06 0.4328749 -0.3013296
v 0.03746867 0.5034719 -0.2762451
v 0.03746867 0.6221902 -0.5935483
v 6.198883E-06 0.6299558 -0.8391423
v 6.198883E-06 0.4328749 -0.3013296
v -0.03745627 0.6221902 -0.5935483
v -0.03745627 0.5034719 -0.2762451
v 6.198883E-06 0.6299558 -0.8391423
v 0.962543 0.5034719 -0.2762451
v 1.037468 0.6221902 -0.5935483
v 1.037468 0.5034719 -0.2762451
v 0.962543 0.6221902 -0.5935483
v 1.000005 0.6299558 -0.8391423
v 1.000005 0.4328749 -0.3013296
v 1.037468 0.5034719 -0.2762451
v 1.037468 0.6221902 -0.5935483
v 1.000005 0.6299558 -0.8391423
v 1.000005 0.4328749 -0.3013296
v 0.962543 0.6221902 -0.5935483
v 0.962543 0.5034719 -0.2762451
v 1.000005 0.6299558 -0.8391423
v 1.962542 0.5034719 -0.2762451
v 2.037467 0.6221902 -0.5935483
v 2.037467 0.5034719 -0.2762451
v 1.962542 0.6221902 -0.5935483
v 2.000005 0.6299558 -0.8391423
v 2.000005 0.4328749 -0.3013296
v 2.037467 0.5034719 -0.2762451
v 2.037467 0.6221902 -0.5935483
v 2.000005 0.6299558 -0.8391423
v 2.000005 0.4328749 -0.3013296
v 1.962542 0.6221902 -0.5935483
v 1.962542 0.5034719 -0.2762451
v 2.000005 0.6299558 -0.8391423
v 2.962541 0.5034719 -0.2762451
v 3.037466 0.6221902 -0.5935483
v 3.037466 0.5034719 -0.2762451
v 2.962541 0.6221902 -0.5935483
v 3.000004 0.6299558 -0.8391423
v 3.000004 0.4328749 -0.3013296
v 3.037466 0.5034719 -0.2762451
v 3.037466 0.6221902 -0.5935483
v 3.000004 0.6299558 -0.8391423
v 3.000004 0.4328749 -0.3013296
v 2.962541 0.6221902 -0.5935483
v 2.962541 0.5034719 -0.2762451
v 3.000004 0.6299558 -0.8391423
vt 0.6660015 0.7459354
vt 0.642662 0.7476479
vt 0.6425902 0.7460312
vt 0.6660854 0.7475401
vt 0.6256334 0.7469293
vt 0.667223 0.7429537
vt 0.6656542 0.7337927
vt 0.6656542 0.7429537
vt 0.667223 0.72741
vt 0.667223 0.7429537
vt 0.6656542 0.7429537
vt 0.6656542 0.7337927
vt 0.667223 0.72741
vt 0.6660015 0.7459354
vt 0.642662 0.7476479
vt 0.6425902 0.7460312
vt 0.6660854 0.7475401
vt 0.6256334 0.7469293
vt 0.667223 0.7429537
vt 0.6656542 0.7337927
vt 0.6656542 0.7429537
vt 0.667223 0.72741
vt 0.667223 0.7429537
vt 0.6656542 0.7429537
vt 0.6656542 0.7337927
vt 0.667223 0.72741
vt 0.6660015 0.7459354
vt 0.642662 0.7476479
vt 0.6425902 0.7460312
vt 0.6660854 0.7475401
vt 0.6256334 0.7469293
vt 0.667223 0.7429537
vt 0.6656542 0.7337927
vt 0.6656542 0.7429537
vt 0.667223 0.72741
vt 0.667223 0.7429537
vt 0.6656542 0.7429537
vt 0.6656542 0.7337927
vt 0.667223 0.72741
vt 0.6660015 0.7459354
vt 0.642662 0.7476479
vt 0.6660854 0.7475401
vt 0.6425902 0.7460312
vt 0.6256334 0.7469293
vt 0.667223 0.7429537
vt 0.6656542 0.7429537
vt 0.6656542 0.7337927
vt 0.667223 0.72741
vt 0.667223 0.7429537
vt 0.6656542 0.7337927
vt 0.6656542 0.7429537
vt 0.667223 0.72741
vt 0.6660015 0.7459354
vt 0.642662 0.7476479
vt 0.6660854 0.7475401
vt 0.6425902 0.7460312
vt 0.6256334 0.7469293
vt 0.667223 0.7429537
vt 0.6656542 0.7429537
vt 0.6656542 0.7337927
vt 0.667223 0.72741
vt 0.667223 0.7429537
vt 0.6656542 0.7337927
vt 0.6656542 0.7429537
vt 0.667223 0.72741
vt 0.6660015 0.7459354
vt 0.642662 0.7476479
vt 0.6660854 0.7475401
vt 0.6425902 0.7460312
vt 0.6256334 0.7469293
vt 0.667223 0.7429537
vt 0.6656542 0.7429537
vt 0.6656542 0.7337927
vt 0.667223 0.72741
vt 0.667223 0.7429537
vt 0.6656542 0.7337927
vt 0.6656542 0.7429537
vt 0.667223 0.72741
vt 0.6660015 0.7459354
vt 0.642662 0.7476479
vt 0.6660854 0.7475401
vt 0.6425902 0.7460312
vt 0.6256334 0.7469293
vt 0.667223 0.7429537
vt 0.6656542 0.7429537
vt 0.6656542 0.7337927
vt 0.667223 0.72741
vt 0.667223 0.7429537
vt 0.6656542 0.7337927
vt 0.6656542 0.7429537
vt 0.667223 0.72741
vt 0.6660015 0.7459354
vt 0.642662 0.7476479
vt 0.6425902 0.7460312
vt 0.6660854 0.7475401
vt 0.6256334 0.7469293
vt 0.667223 0.7429537
vt 0.6656542 0.7337927
vt 0.6656542 0.7429537
vt 0.667223 0.72741
vt 0.667223 0.7429537
vt 0.6656542 0.7429537
vt 0.6656542 0.7337927
vt 0.667223 0.72741
vt 0.6660015 0.7459354
vt 0.642662 0.7476479
vt 0.6425902 0.7460312
vt 0.6660854 0.7475401
vt 0.6256334 0.7469293
vt 0.667223 0.7429537
vt 0.6656542 0.7337927
vt 0.6656542 0.7429537
vt 0.667223 0.72741
vt 0.667223 0.7429537
vt 0.6656542 0.7429537
vt 0.6656542 0.7337927
vt 0.667223 0.72741
vt 0.6660015 0.7459354
vt 0.642662 0.7476479
vt 0.6425902 0.7460312
vt 0.6660854 0.7475401
vt 0.6256334 0.7469293
vt 0.667223 0.7429537
vt 0.6656542 0.7337927
vt 0.6656542 0.7429537
vt 0.667223 0.72741
vt 0.667223 0.7429537
vt 0.6656542 0.7429537
vt 0.6656542 0.7337927
vt 0.667223 0.72741
vt 0.6660015 0.7459354
vt 0.642662 0.7476479
vt 0.6660854 0.7475401
vt 0.6425902 0.7460312
vt 0.6256334 0.7469293
vt 0.667223 0.7429537
vt 0.6656542 0.7429537
vt 0.6656542 0.7337927
vt 0.667223 0.72741
vt 0.667223 0.7429537
vt 0.6656542 0.7337927
vt 0.6656542 0.7429537
vt 0.667223 0.72741
vt 0.6660015 0.7459354
vt 0.642662 0.7476479
vt 0.6660854 0.7475401
vt 0.6425902 0.7460312
vt 0.6256334 0.7469293
vt 0.667223 0.7429537
vt 0.6656542 0.7429537
vt 0.6656542 0.7337927
vt 0.667223 0.72741
vt 0.667223 0.7429537
vt 0.6656542 0.7337927
vt 0.6656542 0.7429537
vt 0.667223 0.72741
vt 0.6660015 0.7459354
vt 0.642662 0.7476479
vt 0.6660854 0.7475401
vt 0.6425902 0.7460312
vt 0.6256334 0.7469293
vt 0.667223 0.7429537
vt 0.6656542 0.7429537
vt 0.6656542 0.7337927
vt 0.667223 0.72741
vt 0.667223 0.7429537
vt 0.6656542 0.7337927
vt 0.6656542 0.7429537
vt 0.667223 0.72741
vt 0.6660015 0.7459354
vt 0.642662 0.7476479
vt 0.6660854 0.7475401
vt 0.6425902 0.7460312
vt 0.6256334 0.7469293
vt 0.667223 0.7429537
vt 0.6656542 0.7429537
vt 0.6656542 0.7337927
vt 0.667223 0.72741
vt 0.667223 0.7429537
vt 0.6656542 0.7337927
vt 0.6656542 0.7429537
vt 0.667223 0.72741
vt 0.9499196 0.502625
vt 0.9289272 0.6348302
vt 0.9917965 0.607515
vt 0.8870382 0.5299642
vt 0.6596068 0.7155784
vt 0.6388659 0.6985379
vt 0.6252142 0.7467498
vt 0.6527331 0.7072438
vt 0.6685522 0.7109681
vt 0.6264956 0.6954962
vt 0.6248789 0.695101
vt 0.6275135 0.687928
vt 0.8862239 0.5134385
vt 0.9808992 0.6341118
vt 0.9854258 0.6302677
vt 0.8817213 0.5172586
vt 0.9926348 0.6241604
vt 0.8934449 0.5073192
vt 0.8987619 0.5027926
vt 0.9979757 0.6196339
vt 0.828444 0.2429565
vt 0.8370302 0.2131864
vt 0.828444 0.2131864
vt 0.8370302 0.2429565
vt 0.6247832 0.6950651
vt 0.6273578 0.687892
vt 0.6263878 0.6954603
vt 0.625322 0.7466539
vt 0.6387461 0.6984541
vt 0.6526253 0.7070881
vt 0.6595349 0.7153629
vt 0.6684444 0.7107285
vt 0.8586333 0.2477945
vt 0.8636268 0.2131864
vt 0.8570645 0.2131984
vt 0.8651836 0.2477945
vt 0.8648843 0.2131864
vt 0.8573759 0.2477945
vt 0.866441 0.2477945
vt 0.8558071 0.2131984
vt 0.6660015 0.7459354
vt 0.642662 0.7476479
vt 0.6425902 0.7460312
vt 0.6660854 0.7475401
vt 0.6256334 0.7469293
vt 0.667223 0.7429537
vt 0.6656542 0.7337927
vt 0.6656542 0.7429537
vt 0.667223 0.72741
vt 0.667223 0.7429537
vt 0.6656542 0.7429537
vt 0.6656542 0.7337927
vt 0.667223 0.72741
vt 0.6660015 0.7459354
vt 0.642662 0.7476479
vt 0.6425902 0.7460312
vt 0.6660854 0.7475401
vt 0.6256334 0.7469293
vt 0.667223 0.7429537
vt 0.6656542 0.7337927
vt 0.6656542 0.7429537
vt 0.667223 0.72741
vt 0.667223 0.7429537
vt 0.6656542 0.7429537
vt 0.6656542 0.7337927
vt 0.667223 0.72741
vt 0.6660015 0.7459354
vt 0.642662 0.7476479
vt 0.6425902 0.7460312
vt 0.6660854 0.7475401
vt 0.6256334 0.7469293
vt 0.667223 0.7429537
vt 0.6656542 0.7337927
vt 0.6656542 0.7429537
vt 0.667223 0.72741
vt 0.667223 0.7429537
vt 0.6656542 0.7429537
vt 0.6656542 0.7337927
vt 0.667223 0.72741
vt 0.6660015 0.7459354
vt 0.642662 0.7476479
vt 0.6660854 0.7475401
vt 0.6425902 0.7460312
vt 0.6256334 0.7469293
vt 0.667223 0.7429537
vt 0.6656542 0.7429537
vt 0.6656542 0.7337927
vt 0.667223 0.72741
vt 0.667223 0.7429537
vt 0.6656542 0.7337927
vt 0.6656542 0.7429537
vt 0.667223 0.72741
vt 0.6660015 0.7459354
vt 0.642662 0.7476479
vt 0.6660854 0.7475401
vt 0.6425902 0.7460312
vt 0.6256334 0.7469293
vt 0.667223 0.7429537
vt 0.6656542 0.7429537
vt 0.6656542 0.7337927
vt 0.667223 0.72741
vt 0.667223 0.7429537
vt 0.6656542 0.7337927
vt 0.6656542 0.7429537
vt 0.667223 0.72741
vt 0.6660015 0.7459354
vt 0.642662 0.7476479
vt 0.6660854 0.7475401
vt 0.6425902 0.7460312
vt 0.6256334 0.7469293
vt 0.667223 0.7429537
vt 0.6656542 0.7429537
vt 0.6656542 0.7337927
vt 0.667223 0.72741
vt 0.667223 0.7429537
vt 0.6656542 0.7337927
vt 0.6656542 0.7429537
vt 0.667223 0.72741
vt 0.6660015 0.7459354
vt 0.642662 0.7476479
vt 0.6660854 0.7475401
vt 0.6425902 0.7460312
vt 0.6256334 0.7469293
vt 0.667223 0.7429537
vt 0.6656542 0.7429537
vt 0.6656542 0.7337927
vt 0.667223 0.72741
vt 0.667223 0.7429537
vt 0.6656542 0.7337927
vt 0.6656542 0.7429537
vt 0.667223 0.72741
g FB_saiDao_luzhang6_0
f 3/3/3 2/2/2 1/1/1
f 2/2/2 4/4/4 1/1/1
f 5/5/5 2/2/2 3/3/3
f 8/8/8 7/7/7 6/6/6
f 9/9/9 6/6/6 7/7/7
f 12/12/12 11/11/11 10/10/10
f 12/12/12 10/10/10 13/13/13
f 16/16/16 15/15/15 14/14/14
f 15/15/15 17/17/17 14/14/14
f 18/18/18 15/15/15 16/16/16
f 21/21/21 20/20/20 19/19/19
f 22/22/22 19/19/19 20/20/20
f 25/25/25 24/24/24 23/23/23
f 25/25/25 23/23/23 26/26/26
f 29/29/29 28/28/28 27/27/27
f 28/28/28 30/30/30 27/27/27
f 31/31/31 28/28/28 29/29/29
f 34/34/34 33/33/33 32/32/32
f 35/35/35 32/32/32 33/33/33
f 38/38/38 37/37/37 36/36/36
f 38/38/38 36/36/36 39/39/39
f 42/42/42 41/41/41 40/40/40
f 41/41/41 43/43/43 40/40/40
f 41/41/41 44/44/44 43/43/43
f 47/47/47 46/46/46 45/45/45
f 45/45/45 48/48/48 47/47/47
f 51/51/51 50/50/50 49/49/49
f 49/49/49 50/50/50 52/52/52
f 55/55/55 54/54/54 53/53/53
f 54/54/54 56/56/56 53/53/53
f 54/54/54 57/57/57 56/56/56
f 60/60/60 59/59/59 58/58/58
f 58/58/58 61/61/61 60/60/60
f 64/64/64 63/63/63 62/62/62
f 62/62/62 63/63/63 65/65/65
f 68/68/68 67/67/67 66/66/66
f 67/67/67 69/69/69 66/66/66
f 67/67/67 70/70/70 69/69/69
f 73/73/73 72/72/72 71/71/71
f 71/71/71 74/74/74 73/73/73
f 77/77/77 76/76/76 75/75/75
f 75/75/75 76/76/76 78/78/78
f 81/81/81 80/80/80 79/79/79
f 80/80/80 82/82/82 79/79/79
f 80/80/80 83/83/83 82/82/82
f 86/86/86 85/85/85 84/84/84
f 84/84/84 87/87/87 86/86/86
f 90/90/90 89/89/89 88/88/88
f 88/88/88 89/89/89 91/91/91
f 94/94/94 93/93/93 92/92/92
f 93/93/93 95/95/95 92/92/92
f 96/96/96 93/93/93 94/94/94
f 99/99/99 98/98/98 97/97/97
f 100/100/100 97/97/97 98/98/98
f 103/103/103 102/102/102 101/101/101
f 103/103/103 101/101/101 104/104/104
f 107/107/107 106/106/106 105/105/105
f 106/106/106 108/108/108 105/105/105
f 109/109/109 106/106/106 107/107/107
f 112/112/112 111/111/111 110/110/110
f 113/113/113 110/110/110 111/111/111
f 116/116/116 115/115/115 114/114/114
f 116/116/116 114/114/114 117/117/117
f 120/120/120 119/119/119 118/118/118
f 119/119/119 121/121/121 118/118/118
f 122/122/122 119/119/119 120/120/120
f 125/125/125 124/124/124 123/123/123
f 126/126/126 123/123/123 124/124/124
f 129/129/129 128/128/128 127/127/127
f 129/129/129 127/127/127 130/130/130
f 133/133/133 132/132/132 131/131/131
f 132/132/132 134/134/134 131/131/131
f 132/132/132 135/135/135 134/134/134
f 138/138/138 137/137/137 136/136/136
f 136/136/136 139/139/139 138/138/138
f 142/142/142 141/141/141 140/140/140
f 140/140/140 141/141/141 143/143/143
f 146/146/146 145/145/145 144/144/144
f 145/145/145 147/147/147 144/144/144
f 145/145/145 148/148/148 147/147/147
f 151/151/151 150/150/150 149/149/149
f 149/149/149 152/152/152 151/151/151
f 155/155/155 154/154/154 153/153/153
f 153/153/153 154/154/154 156/156/156
f 159/159/159 158/158/158 157/157/157
f 158/158/158 160/160/160 157/157/157
f 158/158/158 161/161/161 160/160/160
f 164/164/164 163/163/163 162/162/162
f 162/162/162 165/165/165 164/164/164
f 168/168/168 167/167/167 166/166/166
f 166/166/166 167/167/167 169/169/169
f 172/172/172 171/171/171 170/170/170
f 171/171/171 173/173/173 170/170/170
f 171/171/171 174/174/174 173/173/173
f 177/177/177 176/176/176 175/175/175
f 175/175/175 178/178/178 177/177/177
f 181/181/181 180/180/180 179/179/179
f 179/179/179 180/180/180 182/182/182
f 185/185/185 184/184/184 183/183/183
f 184/184/184 186/186/186 183/183/183
f 189/189/189 188/188/188 187/187/187
f 188/188/188 190/190/190 187/187/187
f 187/187/187 191/191/191 189/189/189
f 189/189/189 192/192/192 188/188/188
f 189/189/189 193/193/193 192/192/192
f 193/193/193 194/194/194 192/192/192
f 197/197/197 196/196/196 195/195/195
f 196/196/196 198/198/198 195/195/195
f 197/197/197 195/195/195 199/199/199
f 195/195/195 200/200/200 199/199/199
f 199/199/199 200/200/200 201/201/201
f 202/202/202 199/199/199 201/201/201
f 205/205/205 204/204/204 203/203/203
f 204/204/204 206/206/206 203/203/203
f 209/209/209 208/208/208 207/207/207
f 209/209/209 207/207/207 210/210/210
f 211/211/211 209/209/209 210/210/210
f 212/212/212 211/211/211 210/210/210
f 213/213/213 212/212/212 210/210/210
f 210/210/210 214/214/214 213/213/213
f 217/217/217 216/216/216 215/215/215
f 216/216/216 218/218/218 215/215/215
f 221/221/221 220/220/220 219/219/219
f 220/220/220 222/222/222 219/219/219
f 225/225/225 224/224/224 223/223/223
f 224/224/224 226/226/226 223/223/223
f 227/227/227 224/224/224 225/225/225
f 230/230/230 229/229/229 228/228/228
f 231/231/231 228/228/228 229/229/229
f 234/234/234 233/233/233 232/232/232
f 234/234/234 232/232/232 235/235/235
f 238/238/238 237/237/237 236/236/236
f 237/237/237 239/239/239 236/236/236
f 240/240/240 237/237/237 238/238/238
f 243/243/243 242/242/242 241/241/241
f 244/244/244 241/241/241 242/242/242
f 247/247/247 246/246/246 245/245/245
f 247/247/247 245/245/245 248/248/248
f 251/251/251 250/250/250 249/249/249
f 250/250/250 252/252/252 249/249/249
f 253/253/253 250/250/250 251/251/251
f 256/256/256 255/255/255 254/254/254
f 257/257/257 254/254/254 255/255/255
f 260/260/260 259/259/259 258/258/258
f 260/260/260 258/258/258 261/261/261
f 264/264/264 263/263/263 262/262/262
f 263/263/263 265/265/265 262/262/262
f 263/263/263 266/266/266 265/265/265
f 269/269/269 268/268/268 267/267/267
f 267/267/267 270/270/270 269/269/269
f 273/273/273 272/272/272 271/271/271
f 271/271/271 272/272/272 274/274/274
f 277/277/277 276/276/276 275/275/275
f 276/276/276 278/278/278 275/275/275
f 276/276/276 279/279/279 278/278/278
f 282/282/282 281/281/281 280/280/280
f 280/280/280 283/283/283 282/282/282
f 286/286/286 285/285/285 284/284/284
f 284/284/284 285/285/285 287/287/287
f 290/290/290 289/289/289 288/288/288
f 289/289/289 291/291/291 288/288/288
f 289/289/289 292/292/292 291/291/291
f 295/295/295 294/294/294 293/293/293
f 293/293/293 296/296/296 295/295/295
f 299/299/299 298/298/298 297/297/297
f 297/297/297 298/298/298 300/300/300
f 303/303/303 302/302/302 301/301/301
f 302/302/302 304/304/304 301/301/301
f 302/302/302 305/305/305 304/304/304
f 308/308/308 307/307/307 306/306/306
f 306/306/306 309/309/309 308/308/308
f 312/312/312 311/311/311 310/310/310
f 310/310/310 311/311/311 313/313/313
