g mx_jingChe_cheli
v -0.6885335 -0.1401085 -0.6576108
v 0.7584453 -0.1401085 -0.6576108
v 0.7584453 -0.2070265 0.8919549
v -0.6885335 -0.2070265 0.8919549
v 0.8788805 -0.4302397 0.9285293
v 0.7584453 -0.2070265 0.8919549
v 0.7584453 -0.4143779 -0.4923592
v 0.7584453 -0.1401085 -0.6576108
v -0.6885335 -0.2070265 0.8919549
v -0.5780034 -0.4371388 -0.4923592
v -0.6885335 -0.1401085 -0.6576108
v -0.8125722 -0.4302397 0.9285293
v -0.5178149 0.3729557 -0.006096721
v -0.5517406 -0.2150466 0.08316636
v -0.123948 0.3732822 -0.006096721
v -0.0807178 -0.2150466 0.08316636
v -0.123948 0.4197772 0.1054621
v -0.123948 0.3732822 -0.006096721
v -0.0807178 -0.1979777 0.3481805
v -0.0807178 -0.2150466 0.08316636
v -0.5178149 0.3729557 -0.006096721
v -0.123948 0.3732822 -0.006096721
v -0.123948 0.4197772 0.1054621
v -0.5178149 0.4195583 0.1054621
v -0.5517406 -0.1979777 0.3481805
v -0.5178149 0.3729557 -0.006096721
v -0.5178149 0.4195583 0.1054621
v -0.5517406 -0.2150466 0.08316636
v -0.123948 0.4197772 0.1054621
v -0.5517406 -0.1979777 0.3481805
v -0.5178149 0.4195583 0.1054621
v -0.0807178 -0.1979777 0.3481805
v -0.212481 0.5794108 0.003614306
v -0.4124222 0.5794108 0.003614306
v -0.2007742 0.3891039 -0.01953459
v -0.426322 0.3891039 -0.01953459
v -0.2007742 0.4170358 0.08435214
v -0.212481 0.611202 0.09052742
v -0.212481 0.5794108 0.003614306
v -0.2007742 0.3891039 -0.01953459
v -0.2007742 0.4170358 0.08435214
v -0.426322 0.3891039 -0.01953459
v -0.426322 0.4170358 0.08435214
v -0.2007742 0.3891039 -0.01953459
v -0.4124222 0.5794108 0.003614306
v -0.212481 0.5794108 0.003614306
v -0.212481 0.611202 0.09052742
v -0.4124222 0.611202 0.09052742
v -0.4124222 0.5794108 0.003614306
v -0.426322 0.4170358 0.08435214
v -0.426322 0.3891039 -0.01953459
v -0.212481 0.611202 0.09052742
v -0.2007742 0.4170358 0.08435214
v -0.4124222 0.611202 0.09052742
v -0.426322 0.4170358 0.08435214
v 0.2744066 0.3680308 -0.006096721
v 0.2254846 -0.2201902 0.08316636
v 0.659853 -0.2201902 0.08316636
v 0.6146548 0.3680308 -0.006096721
v 0.6146548 0.4146335 0.1054621
v 0.6146548 0.3680308 -0.006096721
v 0.659853 -0.203229 0.3481805
v 0.659853 -0.2201902 0.08316636
v 0.2744066 0.3680308 -0.006096721
v 0.6146548 0.3680308 -0.006096721
v 0.6146548 0.4146335 0.1054621
v 0.2744066 0.4146335 0.1054621
v 0.2254846 -0.203229 0.3481805
v 0.2744066 0.3680308 -0.006096721
v 0.2744066 0.4146335 0.1054621
v 0.2254846 -0.2201902 0.08316636
v 0.2744066 0.4146335 0.1054621
v 0.6146548 0.4146335 0.1054621
v 0.659853 -0.203229 0.3481805
v 0.2254846 -0.203229 0.3481805
v 0.2744066 0.4146335 0.1054621
v 0.314292 0.5741441 0.003093839
v 0.2978789 0.3839172 -0.01992261
v 0.5280219 0.3818167 -0.01063657
v 0.5140144 0.5720406 0.01237988
v 0.5280219 0.4096656 0.09311759
v 0.5140144 0.6039181 0.09942532
v 0.5140144 0.5720406 0.01237988
v 0.5280219 0.3818167 -0.01063657
v 0.2978789 0.3839172 -0.01992261
v 0.2978789 0.4117415 0.08393943
v 0.5280219 0.3818167 -0.01063657
v 0.5280219 0.4096656 0.09311759
v 0.5140144 0.5720406 0.01237988
v 0.314292 0.6060154 0.09013927
v 0.314292 0.5741441 0.003093839
v 0.5140144 0.6039181 0.09942532
v 0.314292 0.5741441 0.003093839
v 0.2978789 0.4117415 0.08393943
v 0.2978789 0.3839172 -0.01992261
v 0.314292 0.6060154 0.09013927
v 0.314292 0.6060154 0.09013927
v 0.5140144 0.6039181 0.09942532
v 0.5280219 0.4096656 0.09311759
v 0.2978789 0.4117415 0.08393943
v 0.7200322 -0.2076702 -0.5750158
v 0.6914718 0.3757615 -0.7124339
v 0.6914718 0.3587972 -0.7961562
v 0.7200322 -0.190709 -0.4914075
v -0.6584363 0.3584707 -0.7961562
v 0.6914718 0.3587972 -0.7961562
v 0.6914718 0.3757615 -0.7124339
v -0.6584363 0.3755429 -0.7124339
v -0.6810923 -0.2076702 -0.5750158
v -0.6584363 0.3584707 -0.7961562
v -0.6584363 0.3755429 -0.7124339
v -0.6810923 -0.190709 -0.4914075
v 0.6914718 0.3757615 -0.7124339
v -0.6810923 -0.190709 -0.4914075
v -0.6584363 0.3755429 -0.7124339
v 0.7200322 -0.190709 -0.4914075
v 0.5070659 0.3216991 1.614779
v 0.1630356 0.2951592 1.230183
v 0.8620701 0.2908936 1.335705
v 0.7899655 0.2963049 1.569581
v 0.006133676 0.3606575 1.608102
v -0.5051594 0.3216991 1.614776
v -0.3481251 0.2089761 1.230183
v -0.8665175 0.2906163 1.28876
v -0.7880528 0.2963049 1.569581
v 0.1630356 0.2951592 1.230183
v 0.1630356 -0.07173049 1.230183
v -0.3481251 -0.07173049 1.230183
v -0.3481251 0.2089761 1.230183
v 0.1468443 0.1316416 0.9556668
v 0.8131575 0.3720286 1.061127
v 0.1452211 0.3277235 1.026059
v 0.8466519 0.1254078 0.9530673
v -0.3481251 -0.07173049 1.230183
v -0.3481251 0.2089761 1.230183
v -0.8665175 0.2906163 1.28876
v -0.9628246 -0.09405708 1.27563
v 0.8788805 -0.4302397 0.9285293
v -0.8125722 -0.4302397 0.9285293
v -0.6885335 -0.2070265 0.8919549
v 0.7584453 -0.2070265 0.8919549
v -0.8396666 0.3246744 -0.7656246
v 0.7937939 0.3246744 -0.7656246
v -0.5592372 0.4619415 -1.614779
v 0.7293151 0.4619415 -1.55792
v 0.1630356 -0.07173049 1.230183
v 0.9243529 -0.4328115 1.34119
v 0.9628276 -0.07852793 1.385144
v 0.1630356 -0.07173049 1.230183
v -0.3481251 -0.07173049 1.230183
v -0.512342 -0.5101951 1.468127
v 0.9243529 -0.4328115 1.34119
v -0.9628246 -0.09405708 1.27563
v -0.512342 -0.5101951 1.468127
v -0.3481251 -0.07173049 1.230183
v -0.9628246 -0.09405708 1.27563
v -0.8665175 0.2906163 1.28876
v -0.8665175 0.414113 -0.5082703
v -0.9499133 -0.424939 -0.5214031
v -0.9628246 -0.09405708 1.27563
v -0.9499133 -0.424939 -0.5214031
v -0.8383207 -0.5050055 1.450824
v -0.8383207 -0.5050055 1.450824
v -0.512342 -0.5101951 1.468127
v -0.9628246 -0.09405708 1.27563
v -0.8125722 -0.4302397 0.9285293
v 0.8788805 -0.4302397 0.9285293
v 0.8788805 -0.4812313 1.427007
v -0.8125722 -0.4812313 1.471672
v 0.1630356 0.2951592 1.230183
v 0.8131575 0.3720286 1.061127
v 0.8620701 0.2908936 1.335705
v 0.1452211 0.3277235 1.026059
v 0.9375566 0.2022618 1.359867
v 0.8466519 0.1254078 0.9530673
v 0.9628276 -0.07852793 1.385144
v 0.8131575 0.3720286 1.061127
v 0.9628276 -0.07852793 1.385144
v 0.1468443 0.1316416 0.9556668
v 0.1630356 -0.07173049 1.230183
v 0.8466519 0.1254078 0.9530673
v 0.1630356 -0.07173049 1.230183
v 0.1452211 0.3277235 1.026059
v 0.1630356 0.2951592 1.230183
v 0.1468443 0.1316416 0.9556668
v 0.8131575 0.3720286 1.061127
v 0.9375566 0.2022618 1.359867
v 0.8620701 0.2908936 1.335705
v 0.7584453 -0.4143779 -0.4923592
v 0.9243529 -0.4328115 1.341193
v 0.8788805 -0.4302397 0.9285293
v 0.9709156 -0.4058095 0.2013901
v 0.8788805 -0.4812313 1.427007
v 0.9243529 -0.4328115 1.341193
v 0.9243529 -0.4328115 1.34119
v 0.8788805 -0.4302397 0.9285293
v 0.5579128 0.215829 1.00145
v 0.5681783 0.2998469 1.041564
v 0.5552641 0.3729434 0.8974156
v 0.5552641 0.3729434 0.8974156
v 0.5579128 0.2781549 0.8557346
v 0.5579128 0.215829 1.00145
v 0.5552641 0.3729434 0.8974156
v 0.5681783 0.2998469 1.041564
v 0.466731 0.3916633 0.9006958
v 0.466731 0.3209045 1.05162
v 0.466731 0.1863446 0.9862783
v 0.5579128 0.215829 1.00145
v 0.5579128 0.2781549 0.8557346
v 0.5579128 0.2781549 0.8557346
v 0.466731 0.2366095 0.8257945
v 0.466731 0.1863446 0.9862783
v 0.466731 0.5093975 0.9668193
v 0.466731 0.4867969 0.941699
v 0.5512725 0.466352 0.9319389
v 0.5668786 0.4851799 0.9552572
v 0.5668786 0.4851799 0.9552572
v 0.5512725 0.466352 0.9319389
v 0.613161 0.4105034 0.9052694
v 0.6401967 0.4190164 0.9236629
v 0.6670355 0.3286414 0.8805099
v 0.6401967 0.4190164 0.9236629
v 0.6280217 0.3607407 0.8786156
v 0.6670355 0.3286414 0.8805099
v 0.62626 0.3023479 0.8536217
v 0.6602103 0.2818539 0.858171
v 0.6280217 0.3607407 0.8786156
v 0.6602103 0.2818539 0.858171
v 0.5862914 0.2263162 0.8173215
v 0.6083655 0.2008265 0.8194776
v 0.6602103 0.2818539 0.858171
v 0.62626 0.3023479 0.8536217
v 0.5862914 0.2263162 0.8173215
v 0.5104878 0.1868281 0.7984662
v 0.5185696 0.1540421 0.7971418
v 0.6083655 0.2008265 0.8194776
v 0.5862914 0.2263162 0.8173215
v 0.5104878 0.1868281 0.7984662
v 0.466731 0.1826549 0.7963195
v 0.466731 0.1478822 0.7942004
v 0.5185696 0.1540421 0.7971418
v 0.5663457 0.2986088 0.8517523
v 0.6280217 0.3607407 0.8786156
v 0.5552641 0.3729434 0.8974156
v 0.466731 0.1826549 0.7963195
v 0.5663457 0.2986088 0.8517523
v 0.62626 0.3023479 0.8536217
v 0.6280217 0.3607407 0.8786156
v 0.5104878 0.1868281 0.7984662
v 0.466731 0.1826549 0.7963195
v 0.466731 0.3916633 0.9006958
v 0.466731 0.1826549 0.7963195
v 0.5552641 0.3729434 0.8974156
v 0.3781885 0.3729434 0.8974156
v 0.3652743 0.2998469 1.041564
v 0.3755398 0.215829 1.00145
v 0.3755398 0.215829 1.00145
v 0.3755398 0.2781549 0.8557346
v 0.3781885 0.3729434 0.8974156
v 0.466731 0.3916633 0.9006958
v 0.3652743 0.2998469 1.041564
v 0.3781885 0.3729434 0.8974156
v 0.466731 0.3209045 1.05162
v 0.466731 0.1863446 0.9862783
v 0.466731 0.2366095 0.8257945
v 0.3755398 0.2781549 0.8557346
v 0.3755398 0.2781549 0.8557346
v 0.3755398 0.215829 1.00145
v 0.466731 0.1863446 0.9862783
v 0.3821863 0.466352 0.9319389
v 0.466731 0.4867969 0.941699
v 0.466731 0.5093975 0.9668193
v 0.366574 0.4851799 0.9552572
v 0.366574 0.4851799 0.9552572
v 0.2932589 0.4190164 0.9236629
v 0.3202916 0.4105034 0.9052694
v 0.3821863 0.466352 0.9319389
v 0.3054309 0.3607407 0.8786156
v 0.3202916 0.4105034 0.9052694
v 0.2932589 0.4190164 0.9236629
v 0.2664233 0.3286414 0.8805099
v 0.2732486 0.2818539 0.858171
v 0.3071896 0.3023479 0.8536217
v 0.3054309 0.3607407 0.8786156
v 0.2732486 0.2818539 0.858171
v 0.3250872 0.2008265 0.8194776
v 0.3471642 0.2263162 0.8173215
v 0.3471642 0.2263162 0.8173215
v 0.3071896 0.3023479 0.8536217
v 0.2732486 0.2818539 0.858171
v 0.4229617 0.1868281 0.7984662
v 0.3471642 0.2263162 0.8173215
v 0.3250872 0.2008265 0.8194776
v 0.414883 0.1540421 0.7971418
v 0.466731 0.1478822 0.7942004
v 0.466731 0.1826549 0.7963195
v 0.4229617 0.1868281 0.7984662
v 0.414883 0.1540421 0.7971418
v 0.3781885 0.3729434 0.8974156
v 0.3054309 0.3607407 0.8786156
v 0.367113 0.2986088 0.8517523
v 0.466731 0.1826549 0.7963195
v 0.3054309 0.3607407 0.8786156
v 0.3071896 0.3023479 0.8536217
v 0.367113 0.2986088 0.8517523
v 0.4229617 0.1868281 0.7984662
v 0.466731 0.1826549 0.7963195
v 0.3781885 0.3729434 0.8974156
v 0.466731 0.1826549 0.7963195
v 0.466731 0.3916633 0.9006958
v 0.3054309 0.3607407 0.8786156
v 0.2932589 0.4190164 0.9236629
v 0.2664233 0.3286414 0.8805099
v 0.6280217 0.3607407 0.8786156
v 0.6401967 0.4190164 0.9236629
v 0.613161 0.4105034 0.9052694
vt 0.2990553 0.1353903
vt 0.2990553 0.02427531
vt 0.2390246 0.02427531
vt 0.2390246 0.1353903
vt 0.2990553 0.02427531
vt 0.2990553 0.1353903
vt 0.2390246 0.02427531
vt 0.2390246 0.1353903
vt 0.2990553 0.1353903
vt 0.2390246 0.02427531
vt 0.2390246 0.1353903
vt 0.2990553 0.02427531
vt 0.2649216 0.1353903
vt 0.2649216 0.02427531
vt 0.2390246 0.1353903
vt 0.2390246 0.02427531
vt 0.2516241 0.1353903
vt 0.2390246 0.1353903
vt 0.2516241 0.02427531
vt 0.2390246 0.02427531
vt 0.2499721 0.1353903
vt 0.2499721 0.02427531
vt 0.2390246 0.02427531
vt 0.2390246 0.1353903
vt 0.2516241 0.02427531
vt 0.2390246 0.1353903
vt 0.2516241 0.1353903
vt 0.2390246 0.02427531
vt 0.2649216 0.1353903
vt 0.2390246 0.02427531
vt 0.2390246 0.1353903
vt 0.2649216 0.02427531
vt 0.2390246 0.1353903
vt 0.2706804 0.1353903
vt 0.2390246 0.02427531
vt 0.2706804 0.02427531
vt 0.2390246 0.02427531
vt 0.2390246 0.1353903
vt 0.250007 0.1353903
vt 0.250007 0.02427531
vt 0.250007 0.02427531
vt 0.2390246 0.1353903
vt 0.250007 0.1353903
vt 0.2390246 0.02427531
vt 0.250007 0.1353903
vt 0.250007 0.02427531
vt 0.2390246 0.02427531
vt 0.2390246 0.1353903
vt 0.250007 0.1353903
vt 0.2390246 0.02427531
vt 0.250007 0.02427531
vt 0.2706804 0.1353903
vt 0.2706804 0.02427531
vt 0.2390246 0.1353903
vt 0.2390246 0.02427531
vt 0.2649216 0.1353903
vt 0.2649216 0.02427531
vt 0.2390246 0.02427531
vt 0.2390246 0.1353903
vt 0.2516241 0.1353903
vt 0.2390246 0.1353903
vt 0.2516241 0.02427531
vt 0.2390246 0.02427531
vt 0.2499721 0.1353903
vt 0.2499721 0.02427531
vt 0.2390246 0.02427531
vt 0.2390246 0.1353903
vt 0.2516241 0.02427531
vt 0.2390246 0.1353903
vt 0.2516241 0.1353903
vt 0.2390246 0.02427531
vt 0.4544138 0.6446157
vt 0.5013216 0.6461979
vt 0.5106519 0.5548954
vt 0.4501675 0.5519521
vt 0.4535064 0.6437315
vt 0.2706804 0.1353903
vt 0.2706804 0.02427531
vt 0.2390246 0.02427531
vt 0.2390246 0.1353903
vt 0.2390246 0.02427531
vt 0.2390246 0.1353903
vt 0.250007 0.1353903
vt 0.250007 0.02427531
vt 0.2390246 0.1353903
vt 0.250007 0.1353903
vt 0.2390246 0.02427531
vt 0.250007 0.02427531
vt 0.250007 0.02427531
vt 0.2390246 0.1353903
vt 0.250007 0.1353903
vt 0.2390246 0.02427531
vt 0.250007 0.1353903
vt 0.2390246 0.02427531
vt 0.250007 0.02427531
vt 0.2390246 0.1353903
vt 0.4594862 0.7062402
vt 0.5059518 0.7057633
vt 0.5091395 0.6606007
vt 0.4556354 0.6610776
vt 0.2465634 0.02427531
vt 0.2390246 0.1353903
vt 0.2465634 0.1353903
vt 0.2390246 0.02427531
vt 0.2609545 0.1353205
vt 0.2609545 0.02427531
vt 0.2390246 0.02427531
vt 0.2390246 0.1353903
vt 0.2465634 0.02427531
vt 0.2465634 0.1353903
vt 0.2390246 0.1353903
vt 0.2390246 0.02427531
vt 0.2818139 0.1353903
vt 0.2390246 0.02427531
vt 0.2390246 0.1353903
vt 0.2818139 0.02427531
vt 0.2626414 0.1149379
vt 0.2606753 0.07071766
vt 0.239269 0.07890789
vt 0.2502978 0.1094817
vt 0.2688073 0.1149379
vt 0.2749616 0.1149379
vt 0.2769626 0.07071766
vt 0.298334 0.07890789
vt 0.2873051 0.1094817
vt 0.2401531 0.1263159
vt 0.2401531 0.0828983
vt 0.2822095 0.0828983
vt 0.2822095 0.1263159
vt 0.2822095 0.0828983
vt 0.2401531 0.1263159
vt 0.2822095 0.1263159
vt 0.2401531 0.0828983
vt 0.2401531 0.0828983
vt 0.2401531 0.1263159
vt 0.2822095 0.1263159
vt 0.2822095 0.0828983
vt 0.2390246 0.1353903
vt 0.2990553 0.1353903
vt 0.2990553 0.02427531
vt 0.2390246 0.02427531
vt 0.2571851 0.1315744
vt 0.2571851 0.02567138
vt 0.2850482 0.1315744
vt 0.2850482 0.02567138
vt 0.2822095 0.0828983
vt 0.2401531 0.0828983
vt 0.2401531 0.0828983
vt 0.2401531 0.0828983
vt 0.2822095 0.0828983
vt 0.2822095 0.0828983
vt 0.2401531 0.0828983
vt 0.2822095 0.0828983
vt 0.2401531 0.0828983
vt 0.2401531 0.0828983
vt 0.2822095 0.0828983
vt 0.2822095 0.1263159
vt 0.2822095 0.1263159
vt 0.2822095 0.0828983
vt 0.2822095 0.0828983
vt 0.2822095 0.0828983
vt 0.2822095 0.0828983
vt 0.2822095 0.0828983
vt 0.2822095 0.0828983
vt 0.2822095 0.0828983
vt 0.2129532 0.09840624
vt 0.2310322 0.09840624
vt 0.2310322 0.02649738
vt 0.2129532 0.02649738
vt 0.2822095 0.1263159
vt 0.2401531 0.1263159
vt 0.2401531 0.1263159
vt 0.2822095 0.1263159
vt 0.2401531 0.1110988
vt 0.2401531 0.0828983
vt 0.2401531 0.0828983
vt 0.2401531 0.1263159
vt 0.2401531 0.0828983
vt 0.2822095 0.0828983
vt 0.2822095 0.0828983
vt 0.2401531 0.0828983
vt 0.2822095 0.0828983
vt 0.2822095 0.1263159
vt 0.2822095 0.1263159
vt 0.2822095 0.0828983
vt 0.2401531 0.1263159
vt 0.2401531 0.1110988
vt 0.2401531 0.1263159
vt 0.2390246 0.02427531
vt 0.2990553 0.02427531
vt 0.2990553 0.02427531
vt 0.2390246 0.02427531
vt 0.2310322 0.02649738
vt 0.2310322 0.09840624
vt 0.2310322 0.02649738
vt 0.2310322 0.09840624
vt 0.2369887 0.7090905
vt 0.2528922 0.7090905
vt 0.2528922 0.7346966
vt 0.2528922 0.7346966
vt 0.2372098 0.7375818
vt 0.2369887 0.7090905
vt 0.2528922 0.7346966
vt 0.2528922 0.7090905
vt 0.270087 0.7346966
vt 0.270087 0.7090905
vt 0.2203988 0.7090905
vt 0.2369887 0.7090905
vt 0.2372098 0.7375818
vt 0.2372098 0.7375818
vt 0.2203988 0.7346966
vt 0.2203988 0.7090905
vt 0.4110894 0.755498
vt 0.4110894 0.7673994
vt 0.3822839 0.7673994
vt 0.3822839 0.755498
vt 0.3822839 0.755498
vt 0.3822839 0.7673994
vt 0.350093 0.7673994
vt 0.350093 0.755498
vt 0.315587 0.755498
vt 0.350093 0.755498
vt 0.3271394 0.7678415
vt 0.315587 0.755498
vt 0.297985 0.7673994
vt 0.297985 0.755498
vt 0.3271394 0.7678415
vt 0.297985 0.755498
vt 0.2635953 0.7673994
vt 0.2635953 0.755498
vt 0.297985 0.755498
vt 0.297985 0.7673994
vt 0.2635953 0.7673994
vt 0.2314859 0.7673994
vt 0.2314859 0.755498
vt 0.2635953 0.755498
vt 0.2635953 0.7673994
vt 0.2314859 0.7673994
vt 0.2187817 0.7673994
vt 0.2187817 0.755498
vt 0.2314859 0.755498
vt 0.6608217 0.7173041
vt 0.7025058 0.7616988
vt 0.645686 0.7779862
vt 0.5950206 0.6332843
vt 0.6608217 0.7173041
vt 0.7006328 0.7193283
vt 0.7025058 0.7616988
vt 0.6232792 0.6360998
vt 0.5950206 0.6332843
vt 0.594881 0.7867
vt 0.5950206 0.6332843
vt 0.645686 0.7779862
vt 0.2528922 0.7346966
vt 0.2528922 0.7090905
vt 0.2369887 0.7090905
vt 0.2369887 0.7090905
vt 0.2367793 0.7375004
vt 0.2528922 0.7346966
vt 0.270087 0.7346966
vt 0.2528922 0.7090905
vt 0.2528922 0.7346966
vt 0.270087 0.7090905
vt 0.2203988 0.7090905
vt 0.2203988 0.7346966
vt 0.2367793 0.7375004
vt 0.2367793 0.7375004
vt 0.2369887 0.7090905
vt 0.2203988 0.7090905
vt 0.3822839 0.7673994
vt 0.4110894 0.7673994
vt 0.4110894 0.755498
vt 0.3822839 0.755498
vt 0.3822839 0.755498
vt 0.350093 0.755498
vt 0.350093 0.7673994
vt 0.3822839 0.7673994
vt 0.3271743 0.7690398
vt 0.350093 0.7673994
vt 0.350093 0.755498
vt 0.315587 0.755498
vt 0.297985 0.755498
vt 0.297985 0.7673994
vt 0.3271743 0.7690398
vt 0.297985 0.755498
vt 0.2635953 0.755498
vt 0.2635953 0.7673994
vt 0.2635953 0.7673994
vt 0.297985 0.7673994
vt 0.297985 0.755498
vt 0.2314859 0.7673994
vt 0.2635953 0.7673994
vt 0.2635953 0.755498
vt 0.2314859 0.755498
vt 0.2187817 0.755498
vt 0.2187817 0.7673994
vt 0.2314859 0.7673994
vt 0.2314859 0.755498
vt 0.645686 0.7779862
vt 0.7028199 0.761187
vt 0.6609496 0.7174786
vt 0.5950206 0.6332843
vt 0.7028199 0.761187
vt 0.7006328 0.7193283
vt 0.6609496 0.7174786
vt 0.6232792 0.6360998
vt 0.5950206 0.6332843
vt 0.645686 0.7779862
vt 0.5950206 0.6332843
vt 0.594881 0.7867
vt 0.3271743 0.7690398
vt 0.350093 0.755498
vt 0.315587 0.755498
vt 0.3271394 0.7678415
vt 0.350093 0.755498
vt 0.350093 0.7673994
vn 0.0038445 0.9919841 0.126304
vn 0.0038445 0.9919841 0.126304
vn 0.0038445 0.9919841 0.126304
vn 0.0038445 0.9919841 0.126304
vn 0.9814556 0.1916896 0
vn 0.9814556 0.1916896 0
vn 0.9814556 0.1916896 0
vn 0.9814556 0.1916896 0
vn -0.9919841 -0.01168567 -0.125821
vn -0.9919841 -0.01168567 -0.125821
vn -0.9919841 -0.01168567 -0.125821
vn -0.9919841 -0.01168567 -0.125821
vn -0.5528786 0.4666257 -0.6903518
vn -0.7175431 -0.09009737 -0.6906623
vn 0.5527264 0.4666257 -0.6904737
vn 0.7330734 -0.07441503 -0.6760665
vn 0.5527264 0.7018608 0.4493161
vn 0.5527264 0.4666257 -0.6904737
vn 0.7330734 0.2000259 0.6500716
vn 0.7330734 -0.07441503 -0.6760665
vn -0.5528786 0.4666257 -0.6903518
vn 0.5527264 0.4666257 -0.6904737
vn 0.5527264 0.7018608 0.4493161
vn -0.5528786 0.6940197 0.4611528
vn -0.7175431 0.1843436 0.6716765
vn -0.5528786 0.4666257 -0.6903518
vn -0.5528786 0.6940197 0.4611528
vn -0.7175431 -0.09009737 -0.6906623
vn 0.5527264 0.7018608 0.4493161
vn -0.7175431 0.1843436 0.6716765
vn -0.5528786 0.6940197 0.4611528
vn 0.7330734 0.2000259 0.6500716
vn 0.5605676 0.4666257 -0.6841231
vn -0.5450374 0.4666257 -0.6965592
vn 0.5997734 -0.6625028 -0.4487337
vn -0.5999256 -0.6625028 -0.4485302
vn 0.6076146 -0.4351088 0.6644431
vn 0.5605676 0.6940197 0.451775
vn 0.5605676 0.4666257 -0.6841231
vn 0.5997734 -0.6625028 -0.4487337
vn 0.6076146 -0.4351088 0.6644431
vn -0.5999256 -0.6625028 -0.4485302
vn -0.5999256 -0.4351088 0.6713938
vn 0.5997734 -0.6625028 -0.4487337
vn -0.5450374 0.4666257 -0.6965592
vn 0.5605676 0.4666257 -0.6841231
vn 0.5605676 0.6940197 0.451775
vn -0.5450374 0.7018608 0.4586128
vn -0.5450374 0.4666257 -0.6965592
vn -0.5999256 -0.4351088 0.6713938
vn -0.5999256 -0.6625028 -0.4485302
vn 0.5605676 0.6940197 0.451775
vn 0.6076146 -0.4351088 0.6644431
vn -0.5450374 0.7018608 0.4586128
vn -0.5999256 -0.4351088 0.6713938
vn -0.5371963 0.4744669 -0.6973531
vn -0.7253844 -0.06657386 -0.6851171
vn 0.7409145 -0.07441503 -0.667464
vn 0.5527264 0.4666257 -0.6904737
vn 0.5527264 0.7018608 0.4493161
vn 0.5527264 0.4666257 -0.6904737
vn 0.7409145 0.2000259 0.6411204
vn 0.7409145 -0.07441503 -0.667464
vn -0.5371963 0.4744669 -0.6973531
vn 0.5527264 0.4666257 -0.6904737
vn 0.5527264 0.7018608 0.4493161
vn -0.5371963 0.7018608 0.467773
vn -0.7253844 0.2078671 0.6562079
vn -0.5371963 0.4744669 -0.6973531
vn -0.5371963 0.7018608 0.467773
vn -0.7253844 -0.06657386 -0.6851171
vn -0.5371963 0.7018608 0.467773
vn 0.5527264 0.7018608 0.4493161
vn 0.7409145 0.2000259 0.6411204
vn -0.7253844 0.2078671 0.6562079
vn -0.5371963 0.7018608 0.467773
vn -0.529355 0.4666257 -0.7085505
vn -0.5999256 -0.6546617 -0.4598993
vn 0.6154557 -0.6625028 -0.4269711
vn 0.5684087 0.4666257 -0.6776223
vn 0.5919323 -0.4272677 0.6834168
vn 0.5448853 0.6940197 0.4705706
vn 0.5684087 0.4666257 -0.6776223
vn 0.6154557 -0.6625028 -0.4269711
vn -0.5999256 -0.6546617 -0.4598993
vn -0.615608 -0.4351088 0.6570442
vn 0.6154557 -0.6625028 -0.4269711
vn 0.5919323 -0.4272677 0.6834168
vn 0.5684087 0.4666257 -0.6776223
vn -0.5528786 0.7018608 0.4491287
vn -0.529355 0.4666257 -0.7085505
vn 0.5448853 0.6940197 0.4705706
vn -0.529355 0.4666257 -0.7085505
vn -0.615608 -0.4351088 0.6570442
vn -0.5999256 -0.6546617 -0.4598993
vn -0.5528786 0.7018608 0.4491287
vn -0.5528786 0.7018608 0.4491287
vn 0.5448853 0.6940197 0.4705706
vn 0.5919323 -0.4272677 0.6834168
vn -0.615608 -0.4351088 0.6570442
vn 0.9990675 0.04317635 0
vn 0.5684087 0.7018608 0.4293052
vn 0.6938674 0.7175431 -0.06066195
vn 0.7252321 0.2000259 0.658808
vn -0.6783373 0.709702 -0.1902144
vn 0.6938674 0.7175431 -0.06066195
vn 0.5684087 0.7018608 0.4293052
vn -0.5607197 0.6940197 0.4515862
vn -0.9919841 0.03536141 -0.1213139
vn -0.6783373 0.709702 -0.1902144
vn -0.5607197 0.6940197 0.4515862
vn -0.7018608 0.1921848 0.6858983
vn 0.5684087 0.7018608 0.4293052
vn -0.7018608 0.1921848 0.6858983
vn -0.5607197 0.6940197 0.4515862
vn 0.7252321 0.2000259 0.658808
vn -0.00399673 0.9684607 -0.2491343
vn 0.07441503 0.5450374 -0.8351028
vn -0.04320252 0.984143 -0.172035
vn -0.04320252 0.984143 -0.172035
vn 0.01168567 0.937096 -0.3488761
vn 0.01168567 0.9684607 -0.2488922
vn -0.02752018 0.5764021 -0.8167027
vn 0.06657386 0.9763018 -0.2059193
vn 0.06657386 0.9763018 -0.2059193
vn 0.07441503 0.5450374 -0.8351028
vn 0.09009737 -0.02736801 -0.9955568
vn -0.04320252 0.01183784 -0.9989962
vn -0.02752018 0.5764021 -0.8167027
vn 0.09009737 -0.02736801 -0.9955568
vn 0.1763502 -0.05089152 -0.983011
vn 0.07441503 0.5450374 -0.8351028
vn 0.1763502 -0.05089152 -0.983011
vn -0.04320252 0.01183784 -0.9989962
vn -0.02752018 0.5764021 -0.8167027
vn -0.08240843 0.02752018 -0.9962186
vn -0.08240843 0.02752018 -0.9962186
vn 0.0038445 0.1608201 0.9869763
vn 0.0038445 0.1608201 0.9869763
vn 0.0038445 0.1608201 0.9869763
vn 0.0038445 0.1608201 0.9869763
vn 0.0038445 -0.9996731 -0.02527533
vn 0.0038445 -0.9996731 -0.02527533
vn 0.0038445 -0.9996731 -0.02527533
vn 0.0038445 -0.9996731 -0.02527533
vn 0.1763502 -0.3566971 -0.9174246
vn 0.1763502 -0.3566971 -0.9174246
vn 0.1763502 -0.3566971 -0.9174246
vn 0.0038445 -0.4821559 -0.876077
vn 0.0038445 -0.4821559 -0.876077
vn 0.0038445 -0.4821559 -0.876077
vn 0.0038445 -0.4821559 -0.876077
vn -0.04320252 -0.4664735 -0.8834795
vn -0.04320252 -0.4664735 -0.8834795
vn -0.04320252 -0.4664735 -0.8834795
vn 0.9883361 -0.1522881 0
vn 0.9883361 -0.1522881 0
vn 0.9883361 -0.1522881 0
vn 0.9883361 -0.1522881 0
vn 0.9650993 0.2618845 0
vn 0.9650993 0.2618845 0
vn 0.9650993 0.2618845 0
vn 0.04305035 -0.3880618 -0.9206274
vn 0.04305035 -0.3880618 -0.9206274
vn 0.04305035 -0.3880618 -0.9206274
vn 0.0038445 0.9998254 0.01828775
vn 0.0038445 0.9998254 0.01828775
vn 0.0038445 0.9998254 0.01828775
vn 0.0038445 0.9998254 0.01828775
vn -0.05104375 0.9684607 0.2438821
vn -0.05104375 0.9684607 0.2438821
vn -0.05104375 0.9684607 0.2438821
vn -0.05104375 0.9684607 0.2438821
vn 0.9683084 0.1372966 -0.2086347
vn 0.9683084 0.1372966 -0.2086347
vn 0.9683084 0.1372966 -0.2086347
vn 0.9683084 0.1372966 -0.2086347
vn 0.05089152 -0.8742144 -0.4828657
vn 0.05089152 -0.8742144 -0.4828657
vn 0.05089152 -0.8742144 -0.4828657
vn 0.05089152 -0.8742144 -0.4828657
vn -0.9919841 -0.01168567 0.125821
vn -0.9919841 -0.01168567 0.125821
vn -0.9919841 -0.01168567 0.125821
vn -0.9919841 -0.01168567 0.125821
vn 0.7565969 0.6469727 -0.09480267
vn 0.7565969 0.6469727 -0.09480267
vn 0.7565969 0.6469727 -0.09480267
vn -0.1059319 0.9919841 0.0688905
vn -0.1059319 0.9919841 0.0688905
vn -0.1059319 0.9919841 0.0688905
vn -0.1059319 0.9919841 0.0688905
vn -0.6548138 0.7489078 0.1017648
vn -0.6548138 0.7489078 0.1017648
vn -0.6548138 0.7489078 0.1017648
vn -0.6548138 0.7489078 0.1017648
vn 0.9977899 -0.06644844 0
vn 0.9977899 -0.06644844 0
vn 0.9977899 -0.06644844 0
vn 0.9996731 0.01967907 0.0163205
vn 0.9996731 0.01967907 0.0163205
vn 0.9996731 0.01967907 0.0163205
vn 0.2077149 0.8743666 0.438563
vn 0.2077149 0.8743666 0.438563
vn 0.2077149 0.8743666 0.438563
vn 0.2312384 0.8822078 0.4101686
vn 0.3410148 -0.8742144 -0.3456271
vn 0.3410148 -0.8742144 -0.3456271
vn 0.3410148 -0.8742144 -0.3456271
vn 0.4743147 -0.8506909 -0.2266067
vn 0.4743147 -0.8506909 -0.2266067
vn 0.4743147 -0.8506909 -0.2266067
vn 0.1057797 0.7332255 -0.6717076
vn 0.1057797 0.7332255 -0.6717076
vn 0.1057797 0.7332255 -0.6717076
vn 0.1057797 0.7332255 -0.6717076
vn 0.2861266 0.6469727 -0.7067941
vn 0.2861266 0.6469727 -0.7067941
vn 0.2861266 0.6469727 -0.7067941
vn 0.2861266 0.6469727 -0.7067941
vn 0.44295 0.482308 -0.7557607
vn 0.44295 0.482308 -0.7557607
vn 0.44295 0.482308 -0.7557607
vn 0.3410148 0.3646905 -0.8664351
vn 0.3410148 0.3646905 -0.8664351
vn 0.3410148 0.3646905 -0.8664351
vn 0.3410148 0.3568493 -0.8696939
vn 0.348856 0.2157083 -0.9120139
vn 0.348856 0.2157083 -0.9120139
vn 0.348856 0.2157083 -0.9120139
vn 0.2939678 0.2784376 -0.9143606
vn 0.2939678 0.2784376 -0.9143606
vn 0.2939678 0.2784376 -0.9143606
vn 0.1998737 0.08240843 -0.97635
vn 0.1998737 0.08240843 -0.97635
vn 0.1998737 0.08240843 -0.97635
vn 0.1998737 0.08240843 -0.97635
vn 0.05089152 0.05888486 -0.9969667
vn 0.05089152 0.05888486 -0.9969667
vn 0.05089152 0.05888486 -0.9969667
vn 0.05089152 0.05104375 -0.9973989
vn -0.1294554 0.4979904 -0.8574653
vn -0.1294554 0.4979904 -0.8574653
vn -0.1294554 0.4979904 -0.8574653
vn -0.1137731 0.5058316 -0.8550965
vn 0.01168567 0.388214 -0.9214951
vn 0.01168567 0.388214 -0.9214951
vn 0.01168567 0.388214 -0.9214951
vn 0.0038445 0.4274199 -0.904045
vn 0.0038445 0.4274199 -0.904045
vn 0.06657386 0.4431022 -0.8939957
vn 0.06657386 0.4431022 -0.8939957
vn 0.06657386 0.4431022 -0.8939957
vn -0.984143 -0.06657386 -0.1644093
vn -0.984143 -0.06657386 -0.1644093
vn -0.984143 -0.06657386 -0.1644093
vn -0.9919841 0.01967907 0.1248208
vn -0.9919841 0.01967907 0.1248208
vn -0.9919841 0.01967907 0.1248208
vn -0.2000259 0.8743666 0.4421228
vn -0.2000259 0.8743666 0.4421228
vn -0.2000259 0.8743666 0.4421228
vn -0.2235495 0.8822078 0.4144093
vn -0.4666257 -0.8506909 -0.2420443
vn -0.4666257 -0.8506909 -0.2420443
vn -0.4666257 -0.8506909 -0.2420443
vn -0.3333259 -0.8742144 -0.3530482
vn -0.3333259 -0.8742144 -0.3530482
vn -0.3333259 -0.8742144 -0.3530482
vn -0.09809077 0.7332255 -0.6728734
vn -0.09809077 0.7332255 -0.6728734
vn -0.09809077 0.7332255 -0.6728734
vn -0.09809077 0.7332255 -0.6728734
vn -0.2784376 0.6469727 -0.7098584
vn -0.2784376 0.6469727 -0.7098584
vn -0.2784376 0.6469727 -0.7098584
vn -0.2784376 0.6469727 -0.7098584
vn -0.3568493 0.5215139 -0.7750366
vn -0.3568493 0.5215139 -0.7750366
vn -0.3568493 0.5215139 -0.7750366
vn -0.3333259 0.3646905 -0.869422
vn -0.3333259 0.3646905 -0.869422
vn -0.3333259 0.3646905 -0.869422
vn -0.3333259 0.3568493 -0.8726697
vn -0.341167 0.2157083 -0.9149181
vn -0.341167 0.2157083 -0.9149181
vn -0.341167 0.2157083 -0.9149181
vn -0.2862788 0.2784376 -0.9167971
vn -0.2862788 0.2784376 -0.9167971
vn -0.2862788 0.2784376 -0.9167971
vn -0.1921848 0.08240843 -0.9778926
vn -0.1921848 0.08240843 -0.9778926
vn -0.1921848 0.08240843 -0.9778926
vn -0.1921848 0.08240843 -0.9778926
vn -0.03536141 0.05888486 -0.9976383
vn -0.03536141 0.05888486 -0.9976383
vn -0.03536141 0.05888486 -0.9976383
vn -0.04320252 0.05104375 -0.9977615
vn 0.1371444 0.4979904 -0.8562692
vn 0.1371444 0.4979904 -0.8562692
vn 0.1371444 0.4979904 -0.8562692
vn 0.121462 0.5058316 -0.8540382
vn -0.00399673 0.388214 -0.9215606
vn -0.00399673 0.388214 -0.9215606
vn -0.00399673 0.388214 -0.9215606
vn 0.0038445 0.4274199 -0.904045
vn 0.0038445 0.4274199 -0.904045
vn -0.05888486 0.4431022 -0.8945351
vn -0.05888486 0.4431022 -0.8945351
vn -0.05888486 0.4431022 -0.8945351
vn -0.435261 0.482308 -0.760215
vn -0.435261 0.482308 -0.760215
vn -0.435261 0.482308 -0.760215
vn 0.3645383 0.5215139 -0.7714499
vn 0.3645383 0.5215139 -0.7714499
vn 0.3645383 0.5215139 -0.7714499
g mx_jingChe_cheli_0
f 3/3/3 2/2/2 1/1/1
f 1/1/1 4/4/4 3/3/3
f 7/7/7 6/6/6 5/5/5
f 6/6/6 7/7/7 8/8/8
f 11/11/11 10/10/10 9/9/9
f 10/10/10 12/12/12 9/9/9
f 15/15/15 14/14/14 13/13/13
f 16/16/16 14/14/14 15/15/15
f 19/19/19 18/18/18 17/17/17
f 19/19/19 20/20/20 18/18/18
f 23/23/23 22/22/22 21/21/21
f 21/21/21 24/24/24 23/23/23
f 27/27/27 26/26/26 25/25/25
f 28/28/28 25/25/25 26/26/26
f 31/31/31 30/30/30 29/29/29
f 30/30/30 32/32/32 29/29/29
f 35/35/35 34/34/34 33/33/33
f 35/35/35 36/36/36 34/34/34
f 39/39/39 38/38/38 37/37/37
f 37/37/37 40/40/40 39/39/39
f 43/43/43 42/42/42 41/41/41
f 42/42/42 44/44/44 41/41/41
f 47/47/47 46/46/46 45/45/45
f 45/45/45 48/48/48 47/47/47
f 50/50/50 48/48/48 49/49/49
f 51/51/51 50/50/50 49/49/49
f 54/54/54 53/53/53 52/52/52
f 55/55/55 53/53/53 54/54/54
f 58/58/58 57/57/57 56/56/56
f 56/56/56 59/59/59 58/58/58
f 62/62/62 61/61/61 60/60/60
f 62/62/62 63/63/63 61/61/61
f 66/66/66 65/65/65 64/64/64
f 64/64/64 67/67/67 66/66/66
f 70/70/70 69/69/69 68/68/68
f 71/71/71 68/68/68 69/69/69
f 74/74/74 73/73/73 72/72/72
f 76/76/76 75/75/75 74/74/74
f 79/79/79 78/78/78 77/77/77
f 77/77/77 80/80/80 79/79/79
f 83/83/83 82/82/82 81/81/81
f 81/81/81 84/84/84 83/83/83
f 87/87/87 86/86/86 85/85/85
f 86/86/86 87/87/87 88/88/88
f 91/91/91 90/90/90 89/89/89
f 90/90/90 92/92/92 89/89/89
f 95/95/95 94/94/94 93/93/93
f 94/94/94 96/96/96 93/93/93
f 99/99/99 98/98/98 97/97/97
f 97/97/97 100/100/100 99/99/99
f 103/103/103 102/102/102 101/101/101
f 104/104/104 101/101/101 102/102/102
f 107/107/107 106/106/106 105/105/105
f 105/105/105 108/108/108 107/107/107
f 111/111/111 110/110/110 109/109/109
f 109/109/109 112/112/112 111/111/111
f 115/115/115 114/114/114 113/113/113
f 114/114/114 116/116/116 113/113/113
f 119/119/119 118/118/118 117/117/117
f 117/117/117 120/120/120 119/119/119
f 117/117/117 118/118/118 121/121/121
f 121/121/121 123/123/123 122/122/122
f 122/122/122 123/123/123 124/124/124
f 124/124/124 125/125/125 122/122/122
f 123/123/123 121/121/121 126/126/126
f 128/128/128 126/126/126 127/127/127
f 126/126/126 128/128/128 129/129/129
f 132/132/132 131/131/131 130/130/130
f 131/131/131 133/133/133 130/130/130
f 136/136/136 135/135/135 134/134/134
f 134/134/134 137/137/137 136/136/136
f 140/140/140 139/139/139 138/138/138
f 138/138/138 141/141/141 140/140/140
f 144/144/144 143/143/143 142/142/142
f 144/144/144 145/145/145 143/143/143
f 148/148/148 147/147/147 146/146/146
f 151/151/151 150/150/150 149/149/149
f 149/149/149 152/152/152 151/151/151
f 155/155/155 154/154/154 153/153/153
f 158/158/158 157/157/157 156/156/156
f 156/156/156 159/159/159 158/158/158
f 162/162/162 161/161/161 160/160/160
f 165/165/165 164/164/164 163/163/163
f 168/168/168 167/167/167 166/166/166
f 166/166/166 169/169/169 168/168/168
f 172/172/172 171/171/171 170/170/170
f 171/171/171 173/173/173 170/170/170
f 176/176/176 175/175/175 174/174/174
f 175/175/175 177/177/177 174/174/174
f 180/180/180 179/179/179 178/178/178
f 179/179/179 181/181/181 178/178/178
f 184/184/184 183/183/183 182/182/182
f 183/183/183 185/185/185 182/182/182
f 188/188/188 187/187/187 186/186/186
f 191/191/191 190/190/190 189/189/189
f 190/190/190 192/192/192 189/189/189
f 195/195/195 194/194/194 193/193/193
f 194/194/194 196/196/196 193/193/193
g mx_jingChe_cheli_1
f 199/199/199 198/198/198 197/197/197
f 202/202/202 201/201/201 200/200/200
f 205/205/205 204/204/204 203/203/203
f 206/206/206 204/204/204 205/205/205
f 209/209/209 208/208/208 207/207/207
f 212/212/212 211/211/211 210/210/210
f 215/215/215 214/214/214 213/213/213
f 213/213/213 216/216/216 215/215/215
f 219/219/219 218/218/218 217/217/217
f 217/217/217 220/220/220 219/219/219
f 223/223/223 222/222/222 221/221/221
f 226/226/226 225/225/225 224/224/224
f 225/225/225 227/227/227 224/224/224
f 230/230/230 229/229/229 228/228/228
f 233/233/233 232/232/232 231/231/231
f 236/236/236 235/235/235 234/234/234
f 234/234/234 237/237/237 236/236/236
f 240/240/240 239/239/239 238/238/238
f 238/238/238 241/241/241 240/240/240
f 244/244/244 243/243/243 242/242/242
f 242/242/242 245/245/245 244/244/244
f 248/248/248 247/247/247 246/246/246
f 250/250/250 246/246/246 249/249/249
f 253/253/253 252/252/252 251/251/251
f 256/256/256 255/255/255 254/254/254
f 259/259/259 258/258/258 257/257/257
f 262/262/262 261/261/261 260/260/260
f 261/261/261 263/263/263 260/260/260
f 266/266/266 265/265/265 264/264/264
f 269/269/269 268/268/268 267/267/267
f 272/272/272 271/271/271 270/270/270
f 270/270/270 273/273/273 272/272/272
f 276/276/276 275/275/275 274/274/274
f 274/274/274 277/277/277 276/276/276
f 280/280/280 279/279/279 278/278/278
f 283/283/283 282/282/282 281/281/281
f 281/281/281 284/284/284 283/283/283
f 287/287/287 286/286/286 285/285/285
f 290/290/290 289/289/289 288/288/288
f 293/293/293 292/292/292 291/291/291
f 291/291/291 294/294/294 293/293/293
f 297/297/297 296/296/296 295/295/295
f 295/295/295 298/298/298 297/297/297
f 301/301/301 300/300/300 299/299/299
f 302/302/302 301/301/301 299/299/299
f 305/305/305 304/304/304 303/303/303
f 307/307/307 306/306/306 305/305/305
f 310/310/310 309/309/309 308/308/308
f 313/313/313 312/312/312 311/311/311
f 316/316/316 315/315/315 314/314/314
