g mx_jiaoChe5_qianlun-L
v 0.1153805 0.2838352 0.2838352
v -0.1455215 0.1038889 0.3877237
v -0.1455215 0.2838352 0.2838352
v 0.1153805 0.1038889 0.3877237
v 0.145523 0.09640411 0.3597842
v 0.145523 0.2633842 0.2633842
v 0.1153805 0.387723 0.1038874
v -0.1455215 0.2838352 0.2838352
v -0.1455215 0.387723 0.1038874
v 0.1153805 0.2838352 0.2838352
v 0.145523 0.2633842 0.2633842
v 0.145523 0.3597887 0.09640115
v 0.1153805 0.3877237 -0.1038904
v -0.1455215 0.387723 0.1038874
v -0.1455215 0.3877237 -0.1038904
v 0.1153805 0.387723 0.1038874
v 0.145523 0.3597887 0.09640115
v 0.145523 0.3597887 -0.09640634
v 0.1153805 0.283833 -0.283836
v -0.1455215 0.3877237 -0.1038904
v -0.1455215 0.283833 -0.283836
v 0.1153805 0.3877237 -0.1038904
v 0.145523 0.3597887 -0.09640634
v 0.145523 0.2633842 -0.263385
v 0.1153805 0.1038896 -0.3877267
v -0.1455215 0.283833 -0.283836
v -0.1455215 0.1038896 -0.3877267
v 0.1153805 0.283833 -0.283836
v 0.145523 0.2633842 -0.263385
v 0.145523 0.0964056 -0.3597917
v 0.1153805 -0.1038904 -0.3877245
v -0.1455215 0.1038896 -0.3877267
v -0.1455215 -0.1038911 -0.3877267
v 0.1153805 0.1038896 -0.3877267
v 0.145523 0.0964056 -0.3597917
v 0.145523 -0.09640634 -0.3597895
v 0.1153805 -0.283836 -0.2838367
v -0.1455215 -0.1038911 -0.3877267
v -0.1455215 -0.283836 -0.2838367
v 0.1153805 -0.1038904 -0.3877245
v 0.145523 -0.09640634 -0.3597895
v 0.145523 -0.263385 -0.2633857
v 0.1153805 -0.3877245 -0.1038919
v -0.1455215 -0.283836 -0.2838367
v -0.1455215 -0.3877245 -0.1038919
v 0.1153805 -0.283836 -0.2838367
v 0.145523 -0.263385 -0.2633857
v 0.145523 -0.3597895 -0.0964056
v 0.1153805 -0.3877238 0.1038889
v -0.1455215 -0.3877245 -0.1038919
v -0.1455215 -0.3877238 0.1038889
v 0.1153805 -0.3877245 -0.1038919
v 0.145523 -0.3597895 -0.0964056
v 0.145523 -0.3597895 0.09640485
v 0.1153805 -0.2838337 0.2838315
v -0.1455215 -0.3877238 0.1038889
v -0.1455215 -0.2838337 0.2838315
v 0.1153805 -0.3877238 0.1038889
v 0.145523 -0.3597895 0.09640485
v 0.145523 -0.2633857 0.2633805
v 0.1153805 -0.1038904 0.3877267
v -0.1455215 -0.2838337 0.2838315
v -0.1455215 -0.1038904 0.3877267
v 0.1153805 -0.2838337 0.2838315
v 0.145523 -0.2633857 0.2633805
v 0.145523 -0.0964056 0.3597894
v 0.1153805 0.1038889 0.3877237
v -0.1455215 -0.1038904 0.3877267
v -0.1455215 0.1038889 0.3877237
v 0.1153805 -0.1038904 0.3877267
v 0.145523 -0.0964056 0.3597894
v 0.145523 0.09640411 0.3597842
v -0.1455215 0.1038889 0.3877237
v -0.1455215 -0.2838337 0.2838315
v -0.1455215 0.2838352 0.2838352
v -0.1455215 -0.1038904 0.3877267
v -0.1455215 0.387723 0.1038874
v -0.1455215 0.3877237 -0.1038904
v -0.1455215 0.283833 -0.283836
v -0.1455215 0.1038896 -0.3877267
v -0.1455215 -0.1038911 -0.3877267
v -0.1455215 -0.283836 -0.2838367
v -0.1455215 -0.3877245 -0.1038919
v -0.1455215 -0.3877238 0.1038889
v 0.145523 0.09640411 0.3597842
v 0.145523 0.2633842 0.2633842
v 0.08684719 -3.874302E-07 -3.874302E-07
v 0.145523 0.3597887 0.09640115
v 0.145523 0.3597887 -0.09640634
v 0.145523 0.2633842 -0.263385
v 0.145523 0.0964056 -0.3597917
v 0.145523 -0.09640634 -0.3597895
v 0.145523 -0.263385 -0.2633857
v 0.145523 -0.3597895 -0.0964056
v 0.145523 -0.3597895 0.09640485
v 0.145523 -0.2633857 0.2633805
v 0.145523 -0.0964056 0.3597894
vt 0.09237318 0.5182864
vt 0.03097229 0.4342242
vt 0.09237318 0.4342242
vt 0.03097229 0.5182864
vt 0.03097229 0.5336999
vt 0.09237318 0.5337079
vt 0.09237318 0.5182864
vt 0.03097229 0.4342242
vt 0.09237318 0.4342242
vt 0.03097229 0.5182864
vt 0.03097229 0.5336999
vt 0.09237318 0.5337079
vt 0.09237318 0.5182864
vt 0.03097229 0.4342242
vt 0.09237318 0.4342242
vt 0.03097229 0.5182864
vt 0.03097229 0.5336999
vt 0.09237318 0.5337079
vt 0.09237318 0.5182864
vt 0.03097229 0.4342242
vt 0.09237318 0.4342242
vt 0.03097229 0.5182864
vt 0.03097229 0.5336999
vt 0.09237318 0.5337079
vt 0.09237318 0.5182864
vt 0.03097229 0.4342242
vt 0.09237318 0.4342242
vt 0.03097229 0.5182864
vt 0.03097229 0.5336999
vt 0.09237318 0.5337079
vt 0.09237318 0.5182864
vt 0.03097229 0.4342242
vt 0.09237318 0.4342242
vt 0.03097229 0.5182864
vt 0.03097229 0.5336999
vt 0.09237318 0.5337079
vt 0.09237318 0.5182864
vt 0.03097229 0.4342242
vt 0.09237318 0.4342242
vt 0.03097229 0.5182864
vt 0.03097229 0.5336999
vt 0.09237318 0.5337079
vt 0.09237318 0.5182864
vt 0.03097229 0.4342242
vt 0.09237318 0.4342242
vt 0.03097229 0.5182864
vt 0.03097229 0.5336999
vt 0.09237318 0.5337079
vt 0.09237318 0.5182864
vt 0.03097229 0.4342242
vt 0.09237318 0.4342242
vt 0.03097229 0.5182864
vt 0.03097229 0.5336999
vt 0.09237318 0.5337079
vt 0.09237318 0.5182864
vt 0.03097229 0.4342242
vt 0.09237318 0.4342242
vt 0.03097229 0.5182864
vt 0.03097229 0.5336999
vt 0.09237318 0.5337079
vt 0.09237318 0.5182864
vt 0.03097229 0.4342242
vt 0.09237318 0.4342242
vt 0.03097229 0.5182864
vt 0.03097229 0.5336999
vt 0.09237318 0.5337079
vt 0.09237318 0.5182864
vt 0.03097229 0.4342242
vt 0.09237318 0.4342242
vt 0.03097229 0.5182864
vt 0.03097229 0.5336999
vt 0.09237318 0.5337079
vt 0.1388907 0.3387047
vt 0.1079529 0.2851371
vt 0.1305984 0.3696504
vt 0.1305984 0.3077827
vt 0.1079529 0.392296
vt 0.07702295 0.4005803
vt 0.04609305 0.392296
vt 0.0234396 0.3696504
vt 0.01516314 0.3387047
vt 0.0234396 0.3077827
vt 0.04609305 0.2851371
vt 0.07702295 0.2768528
vt 0.1388907 0.3387047
vt 0.1305984 0.3696504
vt 0.07702295 0.3387047
vt 0.1079529 0.392296
vt 0.07702295 0.4005803
vt 0.04609305 0.392296
vt 0.0234396 0.3696504
vt 0.01516314 0.3387047
vt 0.0234396 0.3077827
vt 0.04609305 0.2851371
vt 0.07702295 0.2768528
vt 0.1079529 0.2851371
vt 0.1305984 0.3077827
vn 0.3604967 0.6507707 0.6682363
vn -0.6433349 0.1897517 0.7416971
vn -0.6433349 0.5243622 0.5578212
vn 0.3604967 0.2343664 0.9028369
vn 0.9256167 0.09308648 0.3668359
vn 0.9256167 0.2641096 0.2710715
vn 0.3604967 0.8961517 0.2587553
vn -0.6433349 0.5243622 0.5578212
vn -0.6433349 0.7176927 0.2665285
vn 0.3604967 0.6507707 0.6682363
vn 0.9256167 0.2641096 0.2710715
vn 0.9256167 0.3607749 0.1143466
vn 0.3604967 0.8961517 -0.2587553
vn -0.6433349 0.7176927 0.2665285
vn -0.6433349 0.7176927 -0.2665285
vn 0.3604967 0.8961517 0.2587553
vn 0.9256167 0.3607749 0.1143466
vn 0.9256167 0.3607749 -0.1143466
vn 0.3604967 0.6507707 -0.6682363
vn -0.6433349 0.7176927 -0.2665285
vn -0.6433349 0.5243622 -0.5578212
vn 0.3604967 0.8961517 -0.2587553
vn 0.9256167 0.3607749 -0.1143466
vn 0.9256167 0.2641096 -0.2710715
vn 0.3604967 0.2343664 -0.9028369
vn -0.6433349 0.5243622 -0.5578212
vn -0.6433349 0.1897517 -0.7416971
vn 0.3604967 0.6507707 -0.6682363
vn 0.9256167 0.2641096 -0.2710715
vn 0.9256167 0.09308648 -0.3668359
vn 0.3604967 -0.2489598 -0.8989222
vn -0.6433349 0.1897517 -0.7416971
vn -0.6433349 -0.2043451 -0.7378098
vn 0.3604967 0.2343664 -0.9028369
vn 0.9256167 0.09308648 -0.3668359
vn 0.9256167 -0.1076798 -0.3628205
vn 0.3604967 -0.6653641 -0.653707
vn -0.6433349 -0.2043451 -0.7378098
vn -0.6433349 -0.5389557 -0.5437343
vn 0.3604967 -0.2489598 -0.8989222
vn 0.9256167 -0.1076798 -0.3628205
vn 0.9256167 -0.278703 -0.2560435
vn 0.3604967 -0.9107451 -0.2014582
vn -0.6433349 -0.5389557 -0.5437343
vn -0.6433349 -0.739722 -0.1973109
vn 0.3604967 -0.6653641 -0.653707
vn 0.9256167 -0.278703 -0.2560435
vn 0.9256167 -0.3753683 -0.04829389
vn 0.3604967 -0.9107451 0.2014582
vn -0.6433349 -0.739722 -0.1973109
vn -0.6433349 -0.739722 0.1973109
vn 0.3604967 -0.9107451 -0.2014582
vn 0.9256167 -0.3753683 -0.04829389
vn 0.9256167 -0.3753683 0.04829389
vn 0.3604967 -0.6653641 0.653707
vn -0.6433349 -0.739722 0.1973109
vn -0.6433349 -0.5389557 0.5437343
vn 0.3604967 -0.9107451 0.2014582
vn 0.9256167 -0.3753683 0.04829389
vn 0.9256167 -0.278703 0.2560435
vn 0.3604967 -0.2489598 0.8989222
vn -0.6433349 -0.5389557 0.5437343
vn -0.6433349 -0.2043451 0.7378098
vn 0.3604967 -0.6653641 0.653707
vn 0.9256167 -0.278703 0.2560435
vn 0.9256167 -0.1076798 0.3628205
vn 0.3604967 0.2343664 0.9028369
vn -0.6433349 -0.2043451 0.7378098
vn -0.6433349 0.1897517 0.7416971
vn 0.3604967 -0.2489598 0.8989222
vn 0.9256167 -0.1076798 0.3628205
vn 0.9256167 0.09308648 0.3668359
vn -0.6433349 0.1897517 0.7416971
vn -0.6433349 -0.5389557 0.5437343
vn -0.6433349 0.5243622 0.5578212
vn -0.6433349 -0.2043451 0.7378098
vn -0.6433349 0.7176927 0.2665285
vn -0.6433349 0.7176927 -0.2665285
vn -0.6433349 0.5243622 -0.5578212
vn -0.6433349 0.1897517 -0.7416971
vn -0.6433349 -0.2043451 -0.7378098
vn -0.6433349 -0.5389557 -0.5437343
vn -0.6433349 -0.739722 -0.1973109
vn -0.6433349 -0.739722 0.1973109
vn 0.9256167 0.09308648 0.3668359
vn 0.9256167 0.2641096 0.2710715
vn 0.9999393 -0.01101419 0
vn 0.9256167 0.3607749 0.1143466
vn 0.9256167 0.3607749 -0.1143466
vn 0.9256167 0.2641096 -0.2710715
vn 0.9256167 0.09308648 -0.3668359
vn 0.9256167 -0.1076798 -0.3628205
vn 0.9256167 -0.278703 -0.2560435
vn 0.9256167 -0.3753683 -0.04829389
vn 0.9256167 -0.3753683 0.04829389
vn 0.9256167 -0.278703 0.2560435
vn 0.9256167 -0.1076798 0.3628205
g mx_jiaoChe5_qianlun-L_0
f 3/3/3 2/2/2 1/1/1
f 2/2/2 4/4/4 1/1/1
f 1/1/1 4/4/4 5/5/5
f 6/6/6 1/1/1 5/5/5
f 9/9/9 8/8/8 7/7/7
f 8/8/8 10/10/10 7/7/7
f 7/7/7 10/10/10 11/11/11
f 12/12/12 7/7/7 11/11/11
f 15/15/15 14/14/14 13/13/13
f 14/14/14 16/16/16 13/13/13
f 13/13/13 16/16/16 17/17/17
f 18/18/18 13/13/13 17/17/17
f 21/21/21 20/20/20 19/19/19
f 20/20/20 22/22/22 19/19/19
f 19/19/19 22/22/22 23/23/23
f 24/24/24 19/19/19 23/23/23
f 27/27/27 26/26/26 25/25/25
f 26/26/26 28/28/28 25/25/25
f 25/25/25 28/28/28 29/29/29
f 30/30/30 25/25/25 29/29/29
f 33/33/33 32/32/32 31/31/31
f 32/32/32 34/34/34 31/31/31
f 31/31/31 34/34/34 35/35/35
f 36/36/36 31/31/31 35/35/35
f 39/39/39 38/38/38 37/37/37
f 38/38/38 40/40/40 37/37/37
f 37/37/37 40/40/40 41/41/41
f 42/42/42 37/37/37 41/41/41
f 45/45/45 44/44/44 43/43/43
f 44/44/44 46/46/46 43/43/43
f 43/43/43 46/46/46 47/47/47
f 48/48/48 43/43/43 47/47/47
f 51/51/51 50/50/50 49/49/49
f 50/50/50 52/52/52 49/49/49
f 49/49/49 52/52/52 53/53/53
f 54/54/54 49/49/49 53/53/53
f 57/57/57 56/56/56 55/55/55
f 56/56/56 58/58/58 55/55/55
f 55/55/55 58/58/58 59/59/59
f 60/60/60 55/55/55 59/59/59
f 63/63/63 62/62/62 61/61/61
f 62/62/62 64/64/64 61/61/61
f 61/61/61 64/64/64 65/65/65
f 66/66/66 61/61/61 65/65/65
f 69/69/69 68/68/68 67/67/67
f 68/68/68 70/70/70 67/67/67
f 67/67/67 70/70/70 71/71/71
f 72/72/72 67/67/67 71/71/71
f 75/75/75 74/74/74 73/73/73
f 74/74/74 76/76/76 73/73/73
f 74/74/74 75/75/75 77/77/77
f 78/78/78 74/74/74 77/77/77
f 74/74/74 78/78/78 79/79/79
f 80/80/80 74/74/74 79/79/79
f 74/74/74 80/80/80 81/81/81
f 82/82/82 74/74/74 81/81/81
f 74/74/74 82/82/82 83/83/83
f 84/84/84 74/74/74 83/83/83
f 87/87/87 86/86/86 85/85/85
f 87/87/87 88/88/88 86/86/86
f 87/87/87 89/89/89 88/88/88
f 87/87/87 90/90/90 89/89/89
f 87/87/87 91/91/91 90/90/90
f 87/87/87 92/92/92 91/91/91
f 87/87/87 93/93/93 92/92/92
f 87/87/87 94/94/94 93/93/93
f 87/87/87 95/95/95 94/94/94
f 87/87/87 96/96/96 95/95/95
f 87/87/87 97/97/97 96/96/96
f 87/87/87 85/85/85 97/97/97
