g mx_jiaoChe5_cheli
v 0.7300654 -0.308 -0.6155467
v -0.7162851 -0.4102467 0.3421863
v -1.010516 -0.2352645 -0.7849597
v 0.7300654 -0.4102467 0.3421863
v 0.7300654 -0.5960673 0.3064616
v 0.7300654 -0.4102467 0.3421863
v 0.7300654 -0.308 -0.6155467
v 0.7300654 -0.5666085 -0.5809408
v -1.010516 -0.2352645 -0.7849597
v -0.7162851 -0.4102467 0.3421863
v -0.7162851 -0.5960673 0.3064616
v -0.9803478 -0.5614215 -0.7340287
v -0.5456382 0.1349708 -0.526561
v -0.5795449 -0.3770518 -0.4529614
v -0.1519454 0.1353029 -0.526561
v -0.108736 -0.3770518 -0.4529614
v -0.1519454 0.1525322 -0.4416309
v -0.1519454 0.1353029 -0.526561
v -0.108736 -0.3820665 -0.2120717
v -0.108736 -0.3770518 -0.4529614
v -0.1519454 0.1353029 -0.526561
v -0.1519454 0.1525322 -0.4416309
v -0.5456382 0.1523099 -0.4416309
v -0.5456382 0.1349708 -0.526561
v -0.5795449 -0.3820665 -0.2120717
v -0.5456382 0.1349708 -0.526561
v -0.5456382 0.1523099 -0.4416309
v -0.5795449 -0.3770518 -0.4529614
v -0.1519454 0.1525322 -0.4416309
v -0.5795449 -0.3820665 -0.2120717
v -0.5456382 0.1523099 -0.4416309
v -0.108736 -0.3820665 -0.2120717
v -0.2404391 0.2929184 -0.5296252
v -0.4402949 0.2929184 -0.5296252
v -0.228734 0.1613953 -0.527505
v -0.4541876 0.1613953 -0.527505
v -0.228734 0.1768439 -0.4519175
v -0.2404391 0.3288828 -0.4324731
v -0.2404391 0.2929184 -0.5296252
v -0.228734 0.1613953 -0.527505
v -0.228734 0.1768439 -0.4519175
v -0.4541876 0.1613953 -0.527505
v -0.4541876 0.1768439 -0.4519175
v -0.228734 0.1613953 -0.527505
v -0.4402949 0.2929184 -0.5296252
v -0.2404391 0.2929184 -0.5296252
v -0.2404391 0.3288828 -0.4324731
v -0.4402949 0.3288828 -0.4324731
v -0.4402949 0.2929184 -0.5296252
v -0.4541876 0.1768439 -0.4519175
v -0.4541876 0.1613953 -0.527505
v -0.4402949 0.3288828 -0.4324731
v -0.2404391 0.3288828 -0.4324731
v -0.228734 0.1768439 -0.4519175
v -0.4402949 0.3288828 -0.4324731
v -0.4541876 0.1768439 -0.4519175
v 0.2462329 0.1299685 -0.526561
v 0.1973397 -0.3822763 -0.4529614
v 0.6674942 -0.3822763 -0.4529614
v 0.622317 0.1299685 -0.526561
v 0.622317 0.1473078 -0.4416309
v 0.622317 0.1299685 -0.526561
v 0.6674942 -0.3874009 -0.2120717
v 0.6674942 -0.3822763 -0.4529614
v 0.622317 0.1299685 -0.526561
v 0.622317 0.1473078 -0.4416309
v 0.2462329 0.1473078 -0.4416309
v 0.2462329 0.1299685 -0.526561
v 0.1973397 -0.3874009 -0.2120717
v 0.2462329 0.1299685 -0.526561
v 0.2462329 0.1473078 -0.4416309
v 0.1973397 -0.3822763 -0.4529614
v 0.2462329 0.1473078 -0.4416309
v 0.622317 0.1473078 -0.4416309
v 0.6674942 -0.3874009 -0.2120717
v 0.1973397 -0.3874009 -0.2120717
v 0.3360428 0.2875816 -0.5289584
v 0.3196352 0.1561708 -0.5267258
v 0.5496815 0.1561708 -0.517056
v 0.5356813 0.2628154 -0.5192862
v 0.5496815 0.1715071 -0.441576
v 0.5356813 0.2988946 -0.4220242
v 0.5356813 0.2628154 -0.5192862
v 0.5496815 0.1561708 -0.517056
v 0.3196352 0.1561708 -0.5267258
v 0.3196352 0.1715071 -0.4511384
v 0.5496815 0.1561708 -0.517056
v 0.5496815 0.1715071 -0.441576
v 0.5356813 0.2628154 -0.5192862
v 0.3360428 0.3236609 -0.4316965
v 0.3360428 0.2875816 -0.5289584
v 0.5356813 0.2988946 -0.4220242
v 0.3360428 0.2875816 -0.5289584
v 0.3196352 0.1715071 -0.4511384
v 0.3196352 0.1561708 -0.5267258
v 0.3360428 0.3236609 -0.4316965
v 0.3360428 0.3236609 -0.4316965
v 0.5356813 0.2988946 -0.4220242
v 0.5496815 0.1715071 -0.441576
v 0.3196352 0.1715071 -0.4511384
v 0.5645033 0.06755471 1.141575
v -0.04539561 0.001139998 1.309332
v 0.1267995 0.05277538 0.7029966
v 0.8596157 0.1557487 0.9401604
v -0.6606015 0.03625035 1.145218
v -0.5064672 0.02801156 0.7584628
v -0.8955425 0.009703517 0.830479
v 0.3116486 -0.1084689 0.4738992
v 0.786623 0.089926 0.584667
v 0.3120432 0.08089554 0.5799519
v 0.7715514 -0.09647155 0.4805273
v 0.1267995 0.05277538 0.7029966
v 0.1942505 -0.4353151 0.9377204
v 0.3116486 -0.1084689 0.4738992
v 1.025028 -0.51566 0.9547824
v 1.022885 -0.5599231 0.9559911
v 0.7715514 -0.09647155 0.4805273
v 1.040012 -0.1872729 0.974409
v 0.9839514 0.05331481 0.9650863
v 0.8596157 0.1557487 0.9401604
v -0.6617228 -0.6017838 0.9970576
v 0.1942505 -0.4353151 0.9377204
v -0.4390162 -0.4196517 0.9377204
v 0.1267995 0.05277538 0.7029966
v -0.5064672 0.02801156 0.7584628
v -0.4390162 -0.4196517 0.9377204
v -0.5064672 0.02801156 0.7584628
v -0.8955425 0.009703517 0.830479
v -0.9266871 -0.408089 0.9482268
v -0.9266871 -0.408089 0.9482268
v -0.8704716 -0.6054199 1.000854
v -0.6617228 -0.6017838 0.9970576
v -0.7162851 -0.4102467 0.3421863
v 0.7300654 -0.4102467 0.3421863
v 0.7300654 -0.5960673 0.3064616
v -0.7162851 -0.5960673 0.3064616
v 1.022885 -0.5599231 0.9559911
v -0.6617228 -0.6017838 0.9970576
v 1.047836 -0.5476486 0.5471741
v -0.8704716 -0.6054199 1.000854
v -0.9900101 -0.598767 0.5195384
v -1.047829 -0.5790479 -0.2501338
v -0.9803478 -0.5614215 -0.7340287
v 0.7776574 0.09318757 -0.900832
v -1.010516 -0.2352645 -0.7849597
v -0.7956384 0.1986134 -0.7106534
v 0.7300654 -0.308 -0.6155467
v 0.5160071 0.1134411 -1.309332
v -0.5551307 0.1134411 -1.309332
v 1.045738 -0.5320926 -0.289512
v 1.047836 -0.5476486 0.5471741
v 0.7300654 -0.5960673 0.3064616
v 0.7300654 -0.5666085 -0.5809408
v 0.1267995 0.05277538 0.7029966
v 0.786623 0.089926 0.584667
v 0.8596157 0.1557487 0.9401604
v 0.654945 -0.04528332 0.5252224
v 0.6648595 0.03584826 0.5639639
v 0.6523902 0.106436 0.4247613
v 0.654945 0.01490545 0.3845115
v 0.5668932 0.1245118 0.427933
v 0.5668932 0.05618179 0.5736736
v 0.5668932 -0.07375562 0.5105704
v 0.5668932 -0.02521205 0.355602
v 0.5668932 0.2382039 0.4917803
v 0.5668932 0.2163795 0.4675235
v 0.6485317 0.196638 0.4580985
v 0.6636058 0.2148187 0.4806172
v 0.7082934 0.1427101 0.4323483
v 0.7344033 0.1509314 0.450112
v 0.7226458 0.09465349 0.4066105
v 0.7603183 0.06365383 0.4084361
v 0.7209476 0.0382632 0.3824736
v 0.7537253 0.01847672 0.3868639
v 0.6823484 -0.03515148 0.3474182
v 0.7036633 -0.05977046 0.3495035
v 0.6091485 -0.07328856 0.32921
v 0.6169552 -0.1049451 0.3279314
v 0.5668932 -0.1108937 0.3250943
v 0.5668932 -0.07731688 0.3271372
v 0.6630864 0.0346545 0.380668
v 0.7226458 0.09465349 0.4066105
v 0.6523902 0.106436 0.4247613
v 0.7209476 0.0382632 0.3824736
v 0.5668932 -0.07731688 0.3271372
v 0.6091485 -0.07328856 0.32921
v 0.5668932 0.1245118 0.427933
v 0.4813938 0.106436 0.4247613
v 0.4689245 0.03584826 0.5639639
v 0.4788365 -0.04528332 0.5252224
v 0.4788365 0.01490545 0.3845115
v 0.5668932 0.1245118 0.427933
v 0.5668932 0.05618179 0.5736736
v 0.5668932 -0.07375562 0.5105704
v 0.5668932 -0.02521205 0.355602
v 0.4852522 0.196638 0.4580985
v 0.5668932 0.2163795 0.4675235
v 0.5668932 0.2382039 0.4917803
v 0.4701782 0.2148187 0.4806172
v 0.4254856 0.1427101 0.4323483
v 0.3993782 0.1509314 0.450112
v 0.4111357 0.09465349 0.4066105
v 0.3734657 0.06365383 0.4084361
v 0.4128339 0.0382632 0.3824736
v 0.3800561 0.01847672 0.3868639
v 0.4514356 -0.03515148 0.3474182
v 0.4301156 -0.05977046 0.3495035
v 0.5246305 -0.07328856 0.32921
v 0.5168263 -0.1049451 0.3279314
v 0.5668932 -0.1108937 0.3250943
v 0.5668932 -0.07731688 0.3271372
v 0.4813938 0.106436 0.4247613
v 0.4111357 0.09465349 0.4066105
v 0.4706976 0.0346545 0.380668
v 0.4128339 0.0382632 0.3824736
v 0.5668932 -0.07731688 0.3271372
v 0.5246305 -0.07328856 0.32921
v 0.5668932 0.1245118 0.427933
v 0.7300654 -0.5666085 -0.5809408
v 0.9963658 -0.4279804 -0.3824811
v 1.045738 -0.5320926 -0.289512
v 0.7300654 -0.308 -0.6155467
v 0.9771986 -0.1388592 -0.5026438
v 0.9677836 -0.03793859 -0.5356788
v 1.022963 -0.01050758 -0.5527782
v 0.7776574 0.09318757 -0.900832
v 0.9878498 0.09585726 -0.6060917
v 0.8699297 0.2114823 -0.6555993
v 0.5160071 0.1134411 -1.309332
v 0.5577629 0.4004896 -1.062913
v -0.04539561 0.4374678 -1.106711
v 0.5290783 0.558175 -0.2402393
v -0.04539561 0.605415 -0.2425393
v -0.03084862 0.1189327 -1.308096
v 0.6602094 0.4205858 -0.7172115
v 0.6492085 0.5056831 -0.2495744
v 0.6625794 0.5087248 0.3081274
v 0.5422568 0.4984583 0.4337993
v -0.04539561 0.5461552 0.4444455
v -0.04539561 0.3033249 0.992962
v -0.6485592 0.4004896 -1.062913
v -0.6528047 0.5285089 -0.2372624
v -0.5551307 0.1134411 -1.309332
v -0.7956384 0.1986134 -0.7106534
v -0.8057677 0.2218437 0.8269702
v -0.6582664 0.4981335 0.3794093
v -0.8301769 0.2638493 -0.2255323
v -0.9620596 -0.009673476 -0.5323299
v -1.010516 -0.2352645 -0.7849597
v -1.047829 -0.5790479 -0.2501338
v -0.9803478 -0.5614215 -0.7340287
v -0.9749211 -0.01992762 -0.2089125
v -0.8530451 0.2320805 0.5485827
v -0.9645721 -0.02813399 0.5810483
v -0.8955425 0.009703517 0.830479
v -0.6606015 0.03625035 1.145218
v -0.9266871 -0.408089 0.9482268
v -0.9900101 -0.598767 0.5195384
v -0.04539561 0.001139998 1.309332
v 0.5645033 0.06755471 1.141575
v -0.8704716 -0.6054199 1.000854
v 0.7569094 0.3376386 0.7062806
v 0.8596157 0.1557487 0.9401604
v 0.6876728 0.4626087 0.4821531
v 0.7952663 0.2064301 -0.6686679
v 0.8699297 0.2114823 -0.6555993
v 0.7264017 0.3158417 -0.7093698
vt 0.98147 0.2775121
vt 0.9146529 0.3973129
vt 0.98147 0.3973129
vt 0.9146529 0.2775121
vt 0.98147 0.2775121
vt 0.98147 0.3973129
vt 0.9146529 0.3973129
vt 0.9146529 0.2775121
vt 0.9146529 0.3973129
vt 0.98147 0.3973129
vt 0.98147 0.2775121
vt 0.9146529 0.2775121
vt 0.9434738 0.3973129
vt 0.9434738 0.2775121
vt 0.9146529 0.3973129
vt 0.9146529 0.2775121
vt 0.9286834 0.3973129
vt 0.9146529 0.3973129
vt 0.9286834 0.2775121
vt 0.9146529 0.2775121
vt 0.9268539 0.2775121
vt 0.9146529 0.2775121
vt 0.9146529 0.3973129
vt 0.9268539 0.3973129
vt 0.9286834 0.2775121
vt 0.9146529 0.3973129
vt 0.9286834 0.3973129
vt 0.9146529 0.2775121
vt 0.1790315 0.9593477
vt 0.244582 0.8873097
vt 0.2384745 0.9593055
vt 0.1719389 0.8873097
vt 0.9146529 0.3973129
vt 0.949905 0.3973129
vt 0.9146529 0.2775121
vt 0.949905 0.2775121
vt 0.9146529 0.2775121
vt 0.9146529 0.3973129
vt 0.926868 0.3973129
vt 0.926868 0.2775121
vt 0.926868 0.2775121
vt 0.9146529 0.3973129
vt 0.926868 0.3973129
vt 0.9146529 0.2775121
vt 0.926868 0.3973129
vt 0.926868 0.2775121
vt 0.9146529 0.2775121
vt 0.9146529 0.3973129
vt 0.926868 0.3973129
vt 0.9146529 0.2775121
vt 0.926868 0.2775121
vt 0.9146529 0.3973129
vt 0.3272591 0.08207069
vt 0.3327193 0.06478943
vt 0.3011402 0.08095895
vt 0.3030681 0.05921665
vt 0.9434738 0.3973129
vt 0.9434738 0.2775121
vt 0.9146529 0.2775121
vt 0.9146529 0.3973129
vt 0.9286834 0.3973129
vt 0.9146529 0.3973129
vt 0.9286834 0.2775121
vt 0.9146529 0.2775121
vt 0.9268539 0.2775121
vt 0.9146529 0.2775121
vt 0.9146529 0.3973129
vt 0.9268539 0.3973129
vt 0.9286834 0.2775121
vt 0.9146529 0.3973129
vt 0.9286834 0.3973129
vt 0.9146529 0.2775121
vt 0.1790315 0.9593477
vt 0.2384745 0.9593055
vt 0.244582 0.8873097
vt 0.1719389 0.8873097
vt 0.949905 0.3973129
vt 0.949905 0.2775121
vt 0.9146529 0.2775121
vt 0.9146529 0.3973129
vt 0.9146529 0.2775121
vt 0.9146529 0.3973129
vt 0.926868 0.3973129
vt 0.926868 0.2775121
vt 0.9146529 0.3973129
vt 0.926868 0.3973129
vt 0.9146529 0.2775121
vt 0.926868 0.2775121
vt 0.926868 0.2775121
vt 0.9146529 0.3973129
vt 0.926868 0.3973129
vt 0.9146529 0.2775121
vt 0.926868 0.3973129
vt 0.9146529 0.2775121
vt 0.926868 0.2775121
vt 0.9146529 0.3973129
vt 0.3272591 0.08207069
vt 0.3011402 0.08095895
vt 0.3030681 0.05921665
vt 0.3327193 0.06478943
vt 0.9272058 0.3693786
vt 0.9409548 0.375261
vt 0.9387313 0.3275827
vt 0.9149344 0.3364204
vt 0.961529 0.3723198
vt 0.9568568 0.3275827
vt 0.9806678 0.3364204
vt 0.971788 0.3402341
vt 0.9249823 0.3870398
vt 0.971788 0.3870398
vt 0.9249823 0.3402341
vt 0.971788 0.3870398
vt 0.971788 0.3402341
vt 0.971788 0.3402341
vt 0.9249823 0.3402341
vt 0.9249823 0.3402341
vt 0.9249823 0.3402341
vt 0.9249823 0.3625393
vt 0.9249823 0.3699134
vt 0.9249823 0.3827336
vt 0.971788 0.3402341
vt 0.9249823 0.3402341
vt 0.971788 0.3402341
vt 0.9249823 0.3870398
vt 0.971788 0.3870398
vt 0.9249823 0.3402341
vt 0.9249823 0.3870398
vt 0.971788 0.3870398
vt 0.971788 0.3402341
vt 0.971788 0.3402341
vt 0.9462038 0.3402341
vt 0.9249823 0.3402341
vt 0.98147 0.2775121
vt 0.9146529 0.2775121
vt 0.9146529 0.3973129
vt 0.98147 0.3973129
vt 0.9146529 0.3973129
vt 0.98147 0.3973129
vt 0.9146529 0.3973129
vt 0.98147 0.3973129
vt 0.98147 0.3973129
vt 0.98147 0.3973129
vt 0.98147 0.3973129
vt 0.98147 0.2775121
vt 0.98147 0.3973129
vt 0.98147 0.3973129
vt 0.98147 0.2775121
vt 0.98147 0.2775121
vt 0.98147 0.3973129
vt 0.9146529 0.2775121
vt 0.98147 0.2775121
vt 0.98147 0.2775121
vt 0.9146529 0.2775121
vt 0.971788 0.3870398
vt 0.9249823 0.3870398
vt 0.9249823 0.3827336
vt 0.3229247 0.1355187
vt 0.3110614 0.1355187
vt 0.3110614 0.116394
vt 0.3227699 0.1142268
vt 0.298199 0.116394
vt 0.298199 0.1355187
vt 0.3353227 0.1355187
vt 0.3353227 0.116394
vt 0.9791199 0.9617261
vt 0.9696068 0.9617261
vt 0.9696068 0.940223
vt 0.9791199 0.940223
vt 0.9696068 0.9161727
vt 0.9791199 0.9161727
vt 0.9696068 0.8990322
vt 0.9791199 0.8904057
vt 0.9696068 0.8772477
vt 0.9791199 0.8772477
vt 0.9696068 0.8515651
vt 0.9791199 0.8515651
vt 0.9696068 0.8275993
vt 0.9791199 0.8275993
vt 0.9791199 0.8181143
vt 0.9696068 0.8181143
vt 0.4380392 0.9451766
vt 0.4260915 0.9564769
vt 0.4215883 0.9410533
vt 0.4374904 0.9559422
vt 0.460837 0.9273183
vt 0.460063 0.9349598
vt 0.4192522 0.9272761
vt 0.3110614 0.116394
vt 0.3110614 0.1355187
vt 0.3229247 0.1355187
vt 0.3230795 0.1142971
vt 0.298199 0.116394
vt 0.298199 0.1355187
vt 0.3353227 0.1355187
vt 0.3353227 0.116394
vt 0.9696068 0.940223
vt 0.9696068 0.9617261
vt 0.9791199 0.9617261
vt 0.9791199 0.940223
vt 0.9696068 0.9161727
vt 0.9791199 0.9161727
vt 0.9696068 0.8990463
vt 0.9791199 0.8904057
vt 0.9696068 0.8772477
vt 0.9791199 0.8772477
vt 0.9696068 0.8515651
vt 0.9791199 0.8515651
vt 0.9696068 0.8275993
vt 0.9791199 0.8275993
vt 0.9791199 0.8181143
vt 0.9696068 0.8181143
vt 0.4215883 0.9410533
vt 0.4260915 0.9564769
vt 0.4380392 0.9451766
vt 0.4374904 0.9559422
vt 0.460837 0.9273183
vt 0.460063 0.9349598
vt 0.4192522 0.9272761
vt 0.9795984 0.7413759
vt 0.9368737 0.7614577
vt 0.9389564 0.7805684
vt 0.9562517 0.7165095
vt 0.9154832 0.7263323
vt 0.9079684 0.7145393
vt 0.9013683 0.7093606
vt 0.9277123 0.6582768
vt 0.8963302 0.6938807
vt 0.8924744 0.6716317
vt 0.9721539 0.606813
vt 0.9230543 0.6065878
vt 0.9290915 0.5292724
vt 0.812246 0.6047584
vt 0.8149058 0.5310597
vt 0.9781207 0.5287799
vt 0.8791757 0.6248541
vt 0.8138784 0.6215329
vt 0.7381533 0.61824
vt 0.7211957 0.6012824
vt 0.7269655 0.5256698
vt 0.6513952 0.5150309
vt 0.9217737 0.4533222
vt 0.8171855 0.4533362
vt 0.9686639 0.4502966
vt 0.8841574 0.4114982
vt 0.6801879 0.4166347
vt 0.7406723 0.4487767
vt 0.8177062 0.4140172
vt 0.8577712 0.3755987
vt 0.8904197 0.3454832
vt 0.8189164 0.3015623
vt 0.8834115 0.3015623
vt 0.8144273 0.3735582
vt 0.7159748 0.4097813
vt 0.7094028 0.375641
vt 0.6737989 0.3868991
vt 0.6297374 0.425599
vt 0.658713 0.3291729
vt 0.715257 0.3015623
vt 0.5958925 0.5068547
vt 0.6115273 0.5922618
vt 0.649819 0.3015623
vt 0.6765994 0.6247556
vt 0.6361827 0.6341984
vt 0.7124285 0.6197739
vt 0.8927699 0.6623859
vt 0.8921084 0.6722932
vt 0.8873519 0.6435426
vn -0.1454799 0.6669917 0.7307241
vn -0.4879653 0.4801815 0.728914
vn 0.6406797 0.2466688 0.7271066
vn 0.5784097 0.4801815 0.6594452
vn 0.2748431 0.9082882 0.3153947
vn 0.5784097 0.4801815 0.6594452
vn -0.1454799 0.6669917 0.7307241
vn 0.3604645 0.6047216 0.7101951
vn 0.6406797 0.2466688 0.7271066
vn -0.4879653 0.4801815 0.728914
vn -0.3400738 0.8382344 0.4262781
vn 0.002411544 0.5735865 0.8191414
vn -0.5580191 0.4801815 -0.6767868
vn -0.752613 -0.04911411 -0.6566288
vn 0.5628421 0.4879653 -0.6671571
vn 0.7652199 -0.03354657 -0.6428944
vn 0.5628421 0.7370455 0.3741292
vn 0.5628421 0.4879653 -0.6671571
vn 0.601761 0.3556413 0.7151244
vn 0.7652199 -0.03354657 -0.6428944
vn 0.5628421 0.4879653 -0.6671571
vn 0.5628421 0.7370455 0.3741292
vn -0.5658029 0.7292617 0.3847655
vn -0.5580191 0.4801815 -0.6767868
vn -0.5891541 0.3478575 0.7293097
vn -0.5580191 0.4801815 -0.6767868
vn -0.5658029 0.7292617 0.3847655
vn -0.752613 -0.04911411 -0.6566288
vn 0.5628421 0.7370455 0.3741292
vn -0.5891541 0.3478575 0.7293097
vn -0.5658029 0.7292617 0.3847655
vn 0.601761 0.3556413 0.7151244
vn 0.5706259 0.4723977 -0.6717339
vn -0.5580191 0.4801815 -0.6767868
vn 0.601761 -0.6328959 -0.4871616
vn -0.5969378 -0.6173285 -0.5124166
vn 0.6406797 -0.5239234 0.5612787
vn 0.5394909 0.6592079 0.5238268
vn 0.5706259 0.4723977 -0.6717339
vn 0.601761 -0.6328959 -0.4871616
vn 0.6406797 -0.5239234 0.5612787
vn -0.5969378 -0.6173285 -0.5124166
vn -0.6280729 -0.5239234 0.5753509
vn 0.601761 -0.6328959 -0.4871616
vn -0.5580191 0.4801815 -0.6767868
vn 0.5706259 0.4723977 -0.6717339
vn 0.5394909 0.6592079 0.5238268
vn -0.526884 0.6669917 0.5267973
vn -0.5580191 0.4801815 -0.6767868
vn -0.6280729 -0.5239234 0.5753509
vn -0.5969378 -0.6173285 -0.5124166
vn -0.526884 0.6669917 0.5267973
vn 0.5394909 0.6592079 0.5238268
vn 0.6406797 -0.5239234 0.5612787
vn -0.526884 0.6669917 0.5267973
vn -0.6280729 -0.5239234 0.5753509
vn -0.5502353 0.4879653 -0.677592
vn -0.7603968 -0.0257628 -0.6489476
vn 0.7652199 -0.0257628 -0.6432533
vn 0.5628421 0.4879653 -0.6671571
vn 0.5628421 0.7370455 0.3741292
vn 0.5628421 0.4879653 -0.6671571
vn 0.601761 0.3556413 0.7151244
vn 0.7652199 -0.0257628 -0.6432533
vn 0.5628421 0.4879653 -0.6671571
vn 0.5628421 0.7370455 0.3741292
vn -0.5580191 0.7370455 0.3812856
vn -0.5502353 0.4879653 -0.677592
vn -0.5969378 0.3556413 0.7191554
vn -0.5502353 0.4879653 -0.677592
vn -0.5580191 0.7370455 0.3812856
vn -0.7603968 -0.0257628 -0.6489476
vn -0.5580191 0.7370455 0.3812856
vn 0.5628421 0.7370455 0.3741292
vn 0.601761 0.3556413 0.7151244
vn -0.5969378 0.3556413 0.7191554
vn -0.5035327 0.5113165 -0.6964268
vn -0.5891541 -0.6095447 -0.5304269
vn 0.6173285 -0.6173285 -0.4876588
vn 0.601761 0.4490464 -0.6604854
vn 0.6406797 -0.5239234 0.5612787
vn 0.5472746 0.6125054 0.570375
vn 0.601761 0.4490464 -0.6604854
vn 0.6173285 -0.6173285 -0.4876588
vn -0.5891541 -0.6095447 -0.5304269
vn -0.6436403 -0.5083559 0.5721026
vn 0.6173285 -0.6173285 -0.4876588
vn 0.6406797 -0.5239234 0.5612787
vn 0.601761 0.4490464 -0.6604854
vn -0.4879653 0.7059105 0.5134007
vn -0.5035327 0.5113165 -0.6964268
vn 0.5472746 0.6125054 0.570375
vn -0.5035327 0.5113165 -0.6964268
vn -0.6436403 -0.5083559 0.5721026
vn -0.5891541 -0.6095447 -0.5304269
vn -0.4879653 0.7059105 0.5134007
vn -0.4879653 0.7059105 0.5134007
vn 0.5472746 0.6125054 0.570375
vn 0.6406797 -0.5239234 0.5612787
vn -0.6436403 -0.5083559 0.5721026
vn -0.5113165 0.3089388 -0.8019428
vn 0.002411544 0.3867764 -0.9221703
vn -0.301155 0.5891541 -0.7498021
vn 0.2592756 0.6981267 -0.6673794
vn 0.438302 0.2855875 -0.8522506
vn -0.1299123 0.5191002 -0.8447827
vn 0.7885711 -0.1658705 -0.5921508
vn -0.5113165 -0.1503029 -0.8461468
vn 0.4227345 0.7059105 -0.5683185
vn -0.4101277 0.7681805 -0.4916238
vn 0.407167 -0.1113842 -0.9065366
vn -0.301155 0.5891541 -0.7498021
vn -0.1065611 -0.4460858 -0.8886238
vn -0.5113165 -0.1503029 -0.8461468
vn 0.2826269 -0.3059781 -0.9091201
vn -0.02872354 0.6825592 -0.7302656
vn 0.407167 -0.1113842 -0.9065366
vn 0.8975438 0.06764227 -0.435706
vn 0.8352737 0.3945602 -0.3829362
vn 0.2592756 0.6981267 -0.6673794
vn -0.02093977 0.5969378 -0.8020142
vn -0.1065611 -0.4460858 -0.8886238
vn -0.02872354 -0.3371131 -0.9410259
vn -0.301155 0.5891541 -0.7498021
vn -0.1299123 0.5191002 -0.8447827
vn -0.02872354 -0.3371131 -0.9410259
vn -0.1299123 0.5191002 -0.8447827
vn 0.7885711 -0.1658705 -0.5921508
vn 0.6795986 -0.1269517 -0.7225158
vn 0.6795986 -0.1269517 -0.7225158
vn 0.407167 0.5580191 -0.7230697
vn -0.02093977 0.5969378 -0.8020142
vn -0.4879653 0.4801815 0.728914
vn 0.5784097 0.4801815 0.6594452
vn 0.2748431 0.9082882 0.3153947
vn -0.3400738 0.8382344 0.4262781
vn -0.02872354 0.6825592 -0.7302656
vn -0.02093977 0.5969378 -0.8020142
vn -0.1610474 0.9861258 0.04024545
vn 0.407167 0.5580191 -0.7230697
vn 0.7397666 0.6728635 0
vn 0.7652199 0.6436403 -0.01287133
vn 0.002411544 0.5735865 0.8191414
vn -0.6825592 0.1688312 0.7110618
vn 0.6406797 0.2466688 0.7271066
vn 0.8352737 -0.2592756 0.484865
vn -0.1454799 0.6669917 0.7307241
vn -0.3634251 0.3945602 0.8439457
vn 0.4227345 0.4568302 0.7826888
vn -0.3322901 0.9082882 0.2541572
vn -0.1610474 0.9861258 0.04024545
vn 0.2748431 0.9082882 0.3153947
vn 0.3604645 0.6047216 0.7101951
vn -0.301155 0.5891541 -0.7498021
vn 0.4227345 0.7059105 -0.5683185
vn 0.2592756 0.6981267 -0.6673794
vn 0.8197062 -0.5317071 -0.2130006
vn 0.82749 0.526884 0.1940453
vn 0.438302 0.7448292 -0.5031111
vn 0.8430575 -0.5239234 -0.1214842
vn 0.002411544 0.9549907 -0.2966259
vn 0.002411544 0.9005044 0.4348401
vn 0.002411544 -0.9442463 -0.329231
vn 0.002411544 -0.9598138 -0.2806271
vn 0.002411544 0.7370455 -0.6758388
vn 0.002411544 0.7370455 -0.6758388
vn 0.1970055 0.690343 -0.6961433
vn 0.1970055 0.690343 -0.6961433
vn 0.3293294 0.5813703 -0.7440099
vn 0.3371131 0.5813703 -0.7405156
vn 0.2437081 0.4723977 -0.8470223
vn 0.3682482 0.3945602 -0.8418524
vn 0.2281405 0.3478575 -0.9093663
vn 0.3293294 0.3089388 -0.8922437
vn 0.2670593 0.1610474 -0.950128
vn 0.2748431 0.1532636 -0.9491952
vn 0.0880329 0.2077499 -0.9742126
vn 0.1269517 0.06764227 -0.9895998
vn 0.002411544 0.05207473 -0.9986402
vn 0.002411544 0.2466688 -0.9690968
vn -0.09099358 0.4801815 -0.8724367
vn 0.2437081 0.4723977 -0.8470223
vn 0.438302 0.7448292 -0.5031111
vn 0.2281405 0.3478575 -0.9093663
vn 0.002411544 0.2466688 -0.9690968
vn 0.0880329 0.2077499 -0.9742126
vn 0.002411544 0.9549907 -0.2966259
vn -0.4334789 0.7448292 -0.5072726
vn -0.8226668 0.526884 0.2135709
vn -0.8070993 -0.5317071 -0.2566676
vn -0.8382344 -0.5239234 -0.1512198
vn 0.002411544 0.9549907 -0.2966259
vn 0.002411544 0.9005044 0.4348401
vn 0.002411544 -0.9442463 -0.329231
vn 0.002411544 -0.9598138 -0.2806271
vn -0.1843987 0.690343 -0.6995882
vn 0.002411544 0.7370455 -0.6758388
vn 0.002411544 0.7370455 -0.6758388
vn -0.1843987 0.690343 -0.6995882
vn -0.3167226 0.5813703 -0.7494634
vn -0.3322901 0.5813703 -0.7426923
vn -0.238885 0.4723977 -0.8483952
vn -0.3634251 0.3945602 -0.8439457
vn -0.2155337 0.3478575 -0.9124365
vn -0.3167226 0.3089388 -0.8967963
vn -0.2622362 0.1610474 -0.9514704
vn -0.2700199 0.1532636 -0.9505785
vn -0.07542604 0.2077499 -0.9752697
vn -0.1143448 0.06764227 -0.9911356
vn 0.002411544 0.05207473 -0.9986402
vn 0.002411544 0.2466688 -0.9690968
vn -0.4334789 0.7448292 -0.5072726
vn -0.238885 0.4723977 -0.8483952
vn 0.09581667 0.4801815 -0.8719202
vn -0.2155337 0.3478575 -0.9124365
vn 0.002411544 0.2466688 -0.9690968
vn -0.07542604 0.2077499 -0.9752697
vn 0.002411544 0.9549907 -0.2966259
vn 0.3604645 0.6047216 0.7101951
vn -0.6280729 0.2544525 0.7353763
vn -0.3322901 0.9082882 0.2541572
vn -0.1454799 0.6669917 0.7307241
vn -0.5346678 0.2466688 0.8082604
vn -0.6747754 0.6747754 -0.2989251
vn -0.7915319 0.4490464 0.4145294
vn -0.6825592 0.1688312 0.7110618
vn -0.7993155 -0.1425192 0.5837662
vn -0.6981267 -0.5005721 0.511905
vn -0.3634251 0.3945602 0.8439457
vn -0.464614 -0.7496524 0.4713334
vn 0.002411544 -0.8430575 0.5378181
vn -0.214139 -0.9768032 0
vn 0.01797909 -0.9987326 0.04700959
vn 0.002411544 -0.5394909 0.841988
vn -0.5658029 -0.7963549 0.213743
vn -0.3867764 -0.920895 0.04854225
vn -0.07542604 -0.9909489 -0.1110464
vn -0.09099358 -0.9598138 -0.2654761
vn 0.03354657 -0.9753814 -0.2179582
vn 0.01797909 -0.8352737 -0.5495404
vn 0.601761 -0.6562473 0.4552178
vn 0.5117914 -0.8591097 0
vn 0.4227345 0.4568302 0.7826888
vn 0.8352737 -0.2592756 0.484865
vn 0.6173285 -0.6795986 -0.396297
vn 0.4616533 -0.8741925 -0.1505447
vn 0.8570678 -0.5152035 0
vn 0.9268988 -0.3753112 0
vn 0.6406797 0.2466688 0.7271066
vn 0.7652199 0.6436403 -0.01287133
vn 0.002411544 0.5735865 0.8191414
vn 0.9592764 -0.2824686 0
vn 0.8536319 -0.5208766 0
vn 0.9737193 -0.2277518 0
vn 0.7885711 -0.1658705 -0.5921508
vn 0.438302 0.2855875 -0.8522506
vn 0.6795986 -0.1269517 -0.7225158
vn 0.7397666 0.6728635 0
vn 0.002411544 0.3867764 -0.9221703
vn -0.5113165 0.3089388 -0.8019428
vn 0.407167 0.5580191 -0.7230697
vn -0.02093977 -0.858625 -0.5121765
vn 0.2592756 0.6981267 -0.6673794
vn -0.09099358 -0.9131113 -0.3974267
vn -0.464614 -0.7885711 0.4028516
vn -0.013156 -0.9053276 0.4245102
vn -0.8382344 -0.4616533 0.2902402
g mx_jiaoChe5_cheli_0
f 3/3/3 2/2/2 1/1/1
f 2/2/2 4/4/4 1/1/1
f 7/7/7 6/6/6 5/5/5
f 5/5/5 8/8/8 7/7/7
f 11/11/11 10/10/10 9/9/9
f 9/9/9 12/12/12 11/11/11
f 15/15/15 14/14/14 13/13/13
f 16/16/16 14/14/14 15/15/15
f 19/19/19 18/18/18 17/17/17
f 19/19/19 20/20/20 18/18/18
f 23/23/23 22/22/22 21/21/21
f 21/21/21 24/24/24 23/23/23
f 27/27/27 26/26/26 25/25/25
f 28/28/28 25/25/25 26/26/26
f 31/31/31 30/30/30 29/29/29
f 30/30/30 32/32/32 29/29/29
f 35/35/35 34/34/34 33/33/33
f 35/35/35 36/36/36 34/34/34
f 39/39/39 38/38/38 37/37/37
f 37/37/37 40/40/40 39/39/39
f 43/43/43 42/42/42 41/41/41
f 42/42/42 44/44/44 41/41/41
f 47/47/47 46/46/46 45/45/45
f 45/45/45 48/48/48 47/47/47
f 51/51/51 50/50/50 49/49/49
f 50/50/50 52/52/52 49/49/49
f 55/55/55 54/54/54 53/53/53
f 56/56/56 54/54/54 55/55/55
f 59/59/59 58/58/58 57/57/57
f 57/57/57 60/60/60 59/59/59
f 63/63/63 62/62/62 61/61/61
f 63/63/63 64/64/64 62/62/62
f 67/67/67 66/66/66 65/65/65
f 65/65/65 68/68/68 67/67/67
f 71/71/71 70/70/70 69/69/69
f 72/72/72 69/69/69 70/70/70
f 75/75/75 74/74/74 73/73/73
f 73/73/73 76/76/76 75/75/75
f 79/79/79 78/78/78 77/77/77
f 77/77/77 80/80/80 79/79/79
f 83/83/83 82/82/82 81/81/81
f 81/81/81 84/84/84 83/83/83
f 87/87/87 86/86/86 85/85/85
f 86/86/86 87/87/87 88/88/88
f 91/91/91 90/90/90 89/89/89
f 90/90/90 92/92/92 89/89/89
f 95/95/95 94/94/94 93/93/93
f 94/94/94 96/96/96 93/93/93
f 99/99/99 98/98/98 97/97/97
f 97/97/97 100/100/100 99/99/99
f 103/103/103 102/102/102 101/101/101
f 103/103/103 101/101/101 104/104/104
f 102/102/102 103/103/103 105/105/105
f 106/106/106 105/105/105 103/103/103
f 107/107/107 105/105/105 106/106/106
f 110/110/110 109/109/109 108/108/108
f 111/111/111 108/108/108 109/109/109
f 110/110/110 112/112/112 109/109/109
f 112/112/112 110/110/110 113/113/113
f 114/114/114 113/113/113 110/110/110
f 113/113/113 114/114/114 115/115/115
f 115/115/115 116/116/116 113/113/113
f 117/117/117 115/115/115 114/114/114
f 115/115/115 117/117/117 118/118/118
f 109/109/109 118/118/118 117/117/117
f 119/119/119 118/118/118 109/109/109
f 120/120/120 119/119/119 109/109/109
f 122/122/122 116/116/116 121/121/121
f 121/121/121 123/123/123 122/122/122
f 123/123/123 124/124/124 122/122/122
f 124/124/124 123/123/123 125/125/125
f 128/128/128 127/127/127 126/126/126
f 126/126/126 129/129/129 128/128/128
f 126/126/126 131/131/131 130/130/130
f 132/132/132 131/131/131 126/126/126
f 135/135/135 134/134/134 133/133/133
f 133/133/133 136/136/136 135/135/135
f 137/137/137 135/135/135 136/136/136
f 136/136/136 138/138/138 137/137/137
f 139/139/139 135/135/135 137/137/137
f 140/140/140 138/138/138 136/136/136
f 136/136/136 141/141/141 140/140/140
f 142/142/142 141/141/141 136/136/136
f 143/143/143 142/142/142 136/136/136
f 146/146/146 145/145/145 144/144/144
f 145/145/145 147/147/147 144/144/144
f 146/146/146 144/144/144 148/148/148
f 149/149/149 146/146/146 148/148/148
f 152/152/152 151/151/151 150/150/150
f 150/150/150 153/153/153 152/152/152
f 156/156/156 155/155/155 154/154/154
f 159/159/159 158/158/158 157/157/157
f 157/157/157 160/160/160 159/159/159
f 161/161/161 158/158/158 159/159/159
f 162/162/162 158/158/158 161/161/161
f 160/160/160 157/157/157 163/163/163
f 163/163/163 164/164/164 160/160/160
f 167/167/167 166/166/166 165/165/165
f 165/165/165 168/168/168 167/167/167
f 169/169/169 167/167/167 168/168/168
f 168/168/168 170/170/170 169/169/169
f 169/169/169 170/170/170 171/171/171
f 171/171/171 170/170/170 172/172/172
f 173/173/173 171/171/171 172/172/172
f 174/174/174 173/173/173 172/172/172
f 175/175/175 173/173/173 174/174/174
f 176/176/176 175/175/175 174/174/174
f 177/177/177 175/175/175 176/176/176
f 176/176/176 178/178/178 177/177/177
f 177/177/177 178/178/178 179/179/179
f 179/179/179 180/180/180 177/177/177
f 183/183/183 182/182/182 181/181/181
f 182/182/182 184/184/184 181/181/181
f 181/181/181 185/185/185 183/183/183
f 185/185/185 181/181/181 186/186/186
f 183/183/183 185/185/185 187/187/187
f 190/190/190 189/189/189 188/188/188
f 188/188/188 191/191/191 190/190/190
f 188/188/188 189/189/189 192/192/192
f 189/189/189 193/193/193 192/192/192
f 194/194/194 190/190/190 191/191/191
f 191/191/191 195/195/195 194/194/194
f 198/198/198 197/197/197 196/196/196
f 196/196/196 199/199/199 198/198/198
f 199/199/199 196/196/196 200/200/200
f 200/200/200 201/201/201 199/199/199
f 201/201/201 200/200/200 202/202/202
f 203/203/203 201/201/201 202/202/202
f 203/203/203 202/202/202 204/204/204
f 204/204/204 205/205/205 203/203/203
f 205/205/205 204/204/204 206/206/206
f 206/206/206 207/207/207 205/205/205
f 207/207/207 206/206/206 208/208/208
f 208/208/208 209/209/209 207/207/207
f 210/210/210 209/209/209 208/208/208
f 208/208/208 211/211/211 210/210/210
f 214/214/214 213/213/213 212/212/212
f 214/214/214 215/215/215 213/213/213
f 216/216/216 214/214/214 212/212/212
f 216/216/216 217/217/217 214/214/214
f 218/218/218 216/216/216 212/212/212
f 221/221/221 220/220/220 219/219/219
f 222/222/222 219/219/219 220/220/220
f 220/220/220 223/223/223 222/222/222
f 224/224/224 222/222/222 223/223/223
f 224/224/224 225/225/225 222/222/222
f 222/222/222 225/225/225 226/226/226
f 227/227/227 226/226/226 225/225/225
f 228/228/228 226/226/226 227/227/227
f 226/226/226 230/230/230 229/229/229
f 230/230/230 231/231/231 229/229/229
f 230/230/230 232/232/232 231/231/231
f 233/233/233 231/231/231 232/232/232
f 234/234/234 229/229/229 231/231/231
f 230/230/230 235/235/235 232/232/232
f 236/236/236 232/232/232 235/235/235
f 237/237/237 232/232/232 236/236/236
f 232/232/232 237/237/237 238/238/238
f 233/233/233 232/232/232 239/239/239
f 238/238/238 239/239/239 232/232/232
f 238/238/238 240/240/240 239/239/239
f 231/231/231 233/233/233 241/241/241
f 242/242/242 241/241/241 233/233/233
f 233/233/233 239/239/239 242/242/242
f 234/234/234 231/231/231 243/243/243
f 241/241/241 243/243/243 231/231/231
f 241/241/241 244/244/244 243/243/243
f 240/240/240 245/245/245 239/239/239
f 246/246/246 239/239/239 245/245/245
f 246/246/246 242/242/242 239/239/239
f 242/242/242 246/246/246 247/247/247
f 242/242/242 247/247/247 241/241/241
f 244/244/244 241/241/241 247/247/247
f 244/244/244 247/247/247 248/248/248
f 244/244/244 248/248/248 249/249/249
f 249/249/249 248/248/248 250/250/250
f 249/249/249 250/250/250 251/251/251
f 252/252/252 248/248/248 247/247/247
f 252/252/252 250/250/250 248/248/248
f 247/247/247 253/253/253 252/252/252
f 253/253/253 247/247/247 246/246/246
f 245/245/245 253/253/253 246/246/246
f 253/253/253 245/245/245 254/254/254
f 254/254/254 252/252/252 253/253/253
f 255/255/255 254/254/254 245/245/245
f 256/256/256 255/255/255 245/245/245
f 257/257/257 254/254/254 255/255/255
f 250/250/250 252/252/252 258/258/258
f 254/254/254 258/258/258 252/252/252
f 258/258/258 254/254/254 257/257/257
f 256/256/256 245/245/245 240/240/240
f 259/259/259 256/256/256 240/240/240
f 260/260/260 259/259/259 240/240/240
f 261/261/261 258/258/258 257/257/257
f 260/260/260 240/240/240 238/238/238
f 260/260/260 238/238/238 262/262/262
f 260/260/260 262/262/262 263/263/263
f 262/262/262 238/238/238 264/264/264
f 237/237/237 264/264/264 238/238/238
f 266/266/266 265/265/265 226/226/226
f 265/265/265 267/267/267 226/226/226
f 230/230/230 226/226/226 267/267/267
f 235/235/235 230/230/230 267/267/267
