g mx_jingChe_houlun-R
v 0.1259633 -0.09833033 0.3418819
v 0.1259633 0.09832835 0.3418819
v 0.1259633 -5.501509E-05 0.007003248
v 0.1259633 -0.26369 0.2355077
v 0.1259633 -0.3453294 0.05668759
v 0.1259633 -0.3174238 -0.1378917
v 0.1259633 -0.1886154 -0.2865074
v 0.1259633 -5.501509E-05 -0.3418833
v 0.1259633 0.1886141 -0.2865074
v 0.1259633 0.3173124 -0.1378917
v 0.1259633 0.3453294 0.05668759
v 0.1259633 0.263688 0.2355077
v -0.1259619 0.09832835 0.3418819
v -0.1259619 -0.09833033 0.3418819
v -0.1259619 -5.501509E-05 0.007003248
v -0.1259619 -0.26369 0.2355083
v -0.1259619 -0.3453294 0.05668759
v -0.1259619 -0.3174238 -0.1378917
v -0.1259619 -0.1886154 -0.2865074
v -0.1259619 -5.501509E-05 -0.3418833
v -0.1259619 0.1886141 -0.2865074
v -0.1259619 0.3173124 -0.1378917
v -0.1259619 0.3453294 0.05668759
v -0.1259619 0.263688 0.2355083
v 0.1259633 0.09832835 0.3418819
v -0.1259619 -0.09833033 0.3418819
v -0.1259619 0.09832835 0.3418819
v 0.1259633 -0.09833033 0.3418819
v -0.1259619 0.263688 0.2355083
v 0.1259633 0.263688 0.2355077
v -0.1259619 0.3453294 0.05668759
v 0.1259633 0.3453294 0.05668759
v 0.1259633 -0.09833033 0.3418819
v 0.1259633 -0.26369 0.2355077
v -0.1259619 -0.09833033 0.3418819
v -0.1259619 -0.26369 0.2355083
v -0.1259619 -0.3453294 0.05668759
v 0.1259633 -0.3453294 0.05668759
v 0.1259633 -0.3453294 0.05668759
v 0.1259633 -0.3174238 -0.1378917
v -0.1259619 -0.3453294 0.05668759
v -0.1259619 -0.3174238 -0.1378917
v 0.1259633 -0.1886154 -0.2865074
v -0.1259619 -0.1886154 -0.2865074
v 0.1259633 -5.501509E-05 -0.3418833
v -0.1259619 -5.501509E-05 -0.3418833
v 0.1259633 0.1886141 -0.2865074
v -0.1259619 0.1886141 -0.2865074
v -0.1259619 -5.501509E-05 -0.3418833
v 0.1259633 -5.501509E-05 -0.3418833
v 0.1259633 0.3173124 -0.1378917
v -0.1259619 0.3173124 -0.1378917
v 0.1259633 0.3453294 0.05668759
v -0.1259619 0.3453294 0.05668759
vt 0.09014362 0.6359593
vt 0.1380031 0.6649559
vt 0.08935829 0.813488
vt 0.04205759 0.6633098
vt 0.008983342 0.7383838
vt 0.001432143 0.8372743
vt 0.02179017 0.9286287
vt 0.06360871 0.9834353
vt 0.1135976 0.9842659
vt 0.1558995 0.9309242
vt 0.1770579 0.8402796
vt 0.1704129 0.7411022
vt 0.1380031 0.6649559
vt 0.09014362 0.6359593
vt 0.08935829 0.813488
vt 0.04205759 0.6633098
vt 0.008983342 0.7383838
vt 0.001432143 0.8372743
vt 0.02179017 0.9286287
vt 0.06360871 0.9834353
vt 0.1135976 0.9842659
vt 0.1558995 0.9309242
vt 0.1770579 0.8402796
vt 0.1704129 0.7411022
vt 0.312768 0.7187507
vt 0.3784182 0.9911677
vt 0.312768 0.9911677
vt 0.3784182 0.7187507
vt 0.2471179 0.9911677
vt 0.2471179 0.7187507
vt 0.1814527 0.9911677
vt 0.1814527 0.7187507
vt 0.1814527 0.7187507
vt 0.2471179 0.7187507
vt 0.1814527 0.9911677
vt 0.2471179 0.9911677
vt 0.312768 0.9911677
vt 0.312768 0.7187507
vt 0.1814527 0.7187507
vt 0.2471179 0.7187507
vt 0.1814527 0.9911677
vt 0.2471179 0.9911677
vt 0.312753 0.7187507
vt 0.312753 0.9911677
vt 0.3784182 0.7187507
vt 0.3784182 0.9911677
vt 0.2471179 0.7187507
vt 0.2471179 0.9911677
vt 0.1814527 0.9911677
vt 0.1814527 0.7187507
vt 0.312753 0.7187507
vt 0.312753 0.9911677
vt 0.3784182 0.7187507
vt 0.3784182 0.9911677
vn 0.9999924 -0.003921568 0
vn 0.9999924 -0.003921568 0
vn 0.9999924 -0.003921568 0
vn 0.9999924 -0.003921568 0
vn 0.9999924 -0.003921568 0
vn 0.9999924 -0.003921568 0
vn 0.9999924 -0.003921568 0
vn 0.9999924 -0.003921568 0
vn 0.9999924 -0.003921568 0
vn 0.9999924 -0.003921568 0
vn 0.9999924 -0.003921568 0
vn 0.9999924 -0.003921568 0
vn -0.9999923 -0.003921568 -0.0003442513
vn -0.9999923 -0.003921568 -0.0003442513
vn -0.9999923 -0.003921568 -0.0003442513
vn -0.9999923 -0.003921568 -0.0003442513
vn -0.9999923 -0.003921568 -0.0003442513
vn -0.9999923 -0.003921568 -0.0003442513
vn -0.9999923 -0.003921568 -0.0003442513
vn -0.9999923 -0.003921568 -0.0003442513
vn -0.9999923 -0.003921568 -0.0003442513
vn -0.9999923 -0.003921568 -0.0003442513
vn -0.9999923 -0.003921568 -0.0003442513
vn -0.9999923 -0.003921568 -0.0003442513
vn 0.01176465 0.2784292 0.9603847
vn 0.01176465 -0.2941154 0.9556975
vn 0.01176465 0.2784292 0.9603847
vn 0.01176465 -0.2941154 0.9556975
vn 0.01176465 0.7490138 0.66245
vn 0.01176465 0.7490138 0.66245
vn 0.01176465 0.9843061 0.176077
vn 0.01176465 0.9843061 0.176077
vn 0.01176465 -0.2941154 0.9556975
vn 0.01176465 -0.7647001 0.644279
vn 0.01176465 -0.2941154 0.9556975
vn 0.01176465 -0.7647001 0.644279
vn 0.01176392 -0.9999309 0
vn 0.01176392 -0.9999309 0
vn 0.01176392 -0.9999309 0
vn 0.01176465 -0.9215616 -0.3880539
vn 0.01176392 -0.9999309 0
vn 0.01176465 -0.9215616 -0.3880539
vn 0.01176465 -0.552937 -0.83314
vn 0.01176465 -0.552937 -0.83314
vn 0.01176465 -0.01176465 -0.9998616
vn 0.01176465 -0.01176465 -0.9998616
vn 0.01176465 0.5372508 -0.8433405
vn 0.01176465 0.5372508 -0.8433405
vn 0.01176465 -0.01176465 -0.9998616
vn 0.01176465 -0.01176465 -0.9998616
vn 0.01176465 0.9058753 -0.423381
vn 0.01176465 0.9058753 -0.423381
vn 0.01176465 0.9843061 0.176077
vn 0.01176465 0.9843061 0.176077
g mx_jingChe_houlun-R_0
f 3/3/3 2/2/2 1/1/1
f 3/3/3 1/1/1 4/4/4
f 3/3/3 4/4/4 5/5/5
f 3/3/3 5/5/5 6/6/6
f 3/3/3 6/6/6 7/7/7
f 3/3/3 7/7/7 8/8/8
f 3/3/3 8/8/8 9/9/9
f 3/3/3 9/9/9 10/10/10
f 3/3/3 10/10/10 11/11/11
f 3/3/3 11/11/11 12/12/12
f 3/3/3 12/12/12 2/2/2
f 15/15/15 14/14/14 13/13/13
f 15/15/15 16/16/16 14/14/14
f 15/15/15 17/17/17 16/16/16
f 15/15/15 18/18/18 17/17/17
f 15/15/15 19/19/19 18/18/18
f 15/15/15 20/20/20 19/19/19
f 15/15/15 21/21/21 20/20/20
f 15/15/15 22/22/22 21/21/21
f 15/15/15 23/23/23 22/22/22
f 15/15/15 24/24/24 23/23/23
f 15/15/15 13/13/13 24/24/24
f 27/27/27 26/26/26 25/25/25
f 26/26/26 28/28/28 25/25/25
f 27/27/27 25/25/25 29/29/29
f 29/29/29 25/25/25 30/30/30
f 29/29/29 30/30/30 31/31/31
f 31/31/31 30/30/30 32/32/32
f 35/35/35 34/34/34 33/33/33
f 36/36/36 34/34/34 35/35/35
f 34/34/34 36/36/36 37/37/37
f 37/37/37 38/38/38 34/34/34
f 41/41/41 40/40/40 39/39/39
f 42/42/42 40/40/40 41/41/41
f 42/42/42 43/43/43 40/40/40
f 44/44/44 43/43/43 42/42/42
f 45/45/45 43/43/43 44/44/44
f 44/44/44 46/46/46 45/45/45
f 49/49/49 48/48/48 47/47/47
f 47/47/47 50/50/50 49/49/49
f 48/48/48 51/51/51 47/47/47
f 52/52/52 51/51/51 48/48/48
f 52/52/52 53/53/53 51/51/51
f 54/54/54 53/53/53 52/52/52
