g mx_jingChe2_chemen-L
v 3.576279E-06 -0.6304718 -1.499688
v 3.576279E-06 -0.8943667 0.002889156
v 3.576279E-06 -0.6304467 0.002030849
v 3.576279E-06 -0.8943592 -1.499663
v 3.576279E-06 0.001840591 -1.499701
v 3.576279E-06 -3.576279E-06 -3.576279E-06
v -0.03618848 0.4545738 -1.499711
v -0.03618848 0.4545863 -0.002621174
v -0.08440459 1.123887 -0.3224596
v -0.08440459 1.124234 -1.499658
v 0.09764457 0.5875509 -0.1875355
v 0.05266905 0.5124116 -0.1850781
v 0.09809744 0.4989337 -0.1874754
v 0.05221605 0.5875509 -0.1851357
v 0.09809744 0.4989337 -0.1874754
v -0.07330906 0.5017838 -0.1839145
v -0.0808562 0.4854858 -0.1916169
v 0.05266905 0.5124116 -0.1850781
v -0.05218625 0.5345678 -0.1721958
v 0.05385268 0.5276861 -0.1856236
v 0.05385268 0.542783 -0.1856236
v -0.05218625 0.5345678 -0.1721958
v -0.05899787 0.5175741 -0.1785394
v 0.05385268 0.5276861 -0.1856236
v 0.09861541 0.5875509 -0.1832964
v 0.05318701 0.5117159 -0.1808991
v 0.05318701 0.5875509 -0.1808966
v 0.09861541 0.498238 -0.1832964
v 0.09861541 0.498238 -0.1832964
v -0.07470536 0.5012584 -0.1802235
v 0.05318701 0.5117159 -0.1808991
v -0.08225513 0.4849578 -0.1879259
v -0.05339992 0.5340624 -0.1684598
v 0.05431807 0.5267527 -0.1813997
v -0.06021154 0.5170736 -0.1748059
v -0.05339992 0.5340624 -0.1684598
v 0.05431807 0.5418522 -0.1813997
v 0.05431807 0.5267527 -0.1813997
v 0.1629645 0.5814826 -0.2874211
v 0.005506396 0.9817705 -0.163993
v 0.005506396 0.5814826 -0.163993
v 0.1629645 0.9817705 -0.2874211
v 0.1424499 0.9817705 -0.1514485
v 0.005506396 0.5814826 -0.163993
v 0.005506396 0.9817705 -0.163993
v 0.1424499 0.5814826 -0.1514485
v 0.1629645 0.9817705 -0.2874211
v 0.1629645 0.5814826 -0.2874211
v 0.1629645 0.9817705 -0.2874211
v 0.1424499 0.9817705 -0.1514485
v 0.005506396 0.9817705 -0.163993
v 0.1629645 0.5814826 -0.2874211
v 0.005506396 0.5814826 -0.163993
v 0.1424499 0.5814826 -0.1514485
v -0.0765146 1.035362 -0.3668495
v 0.08984208 1.03332 -0.2158476
v -0.08439457 1.053054 -0.3673825
v -0.0765146 1.035362 -0.3668495
v 0.08861339 1.018296 -0.2149868
v 0.08984208 1.03332 -0.2158476
v 0.1217426 0.9699342 -0.1720732
v 0.09052527 1.048262 -0.2178169
v 0.08860338 0.9708626 -0.203223
v 0.1247655 1.060746 -0.1874354
v 0.1247655 1.060746 -0.1874354
v -0.08981729 1.068509 -0.3828099
v 0.09052527 1.048262 -0.2178169
v -0.09919131 1.08566 -0.3827473
v -0.07802355 1.035194 -0.3631935
v 0.08670652 1.032809 -0.2128773
v 0.08547533 1.017782 -0.212019
v -0.07802355 1.035194 -0.3631935
v -0.08590353 1.052881 -0.3637266
v 0.08670652 1.032809 -0.2128773
v 0.1182842 0.9703672 -0.1694708
v 0.08739722 1.047984 -0.2149267
v 0.121635 1.060468 -0.1845477
v 0.08514261 0.9712956 -0.200623
v 0.121635 1.060468 -0.1845477
v -0.09116113 1.068301 -0.3790687
v -0.1005325 1.085452 -0.3790011
v 0.08739722 1.047984 -0.2149267
v -0.03618848 0.4545863 -0.002621174
v -0.2276917 1.123887 -0.3224596
v -0.08440459 1.123887 -0.3224596
v -0.1794806 0.4545863 -0.002621174
v -0.2276917 1.124237 -1.499658
v -0.08440459 1.124234 -1.499658
v -0.1794806 0.4545763 -1.499711
v -0.03618848 0.4545738 -1.499711
v -0.1432885 0.001840591 -1.499701
v 3.576279E-06 0.001840591 -1.499701
v -0.1432885 -0.6304718 -1.499688
v 3.576279E-06 -0.6304718 -1.499688
v -0.143286 -0.8943592 -1.499663
v 3.576279E-06 -0.8943592 -1.499663
v -0.1432885 -0.8943667 0.002889156
v 3.576279E-06 -0.8943667 0.002889156
v -0.1432885 -0.6304467 0.002030849
v 3.576279E-06 -0.6304467 0.002030849
v -0.1432885 -3.576279E-06 -3.576279E-06
v 3.576279E-06 -3.576279E-06 -3.576279E-06
v -0.1432885 -0.6304718 -1.499688
v -0.1432885 -0.8943667 0.002889156
v -0.143286 -0.8943592 -1.499663
v -0.1432885 -0.6304467 0.002030849
v -0.1432885 0.001840591 -1.499701
v -0.1432885 -3.576279E-06 -3.576279E-06
v -0.1794806 0.4545763 -1.499711
v -0.1794806 0.4545863 -0.002621174
v -0.2276917 1.123887 -0.3224596
v -0.2276917 1.124237 -1.499658
vt 0.171993 0.3019451
vt 0.007312259 0.269655
vt 0.007452706 0.3022387
vt 0.171993 0.269655
vt 0.171993 0.3789357
vt 0.007835744 0.3789357
vt 0.171993 0.4347443
vt 0.008269854 0.4347443
vt 0.04751848 0.5162293
vt 0.171993 0.5162293
vt 0.4280029 0.3192073
vt 0.4279262 0.319501
vt 0.4280029 0.3192073
vt 0.4279262 0.319501
vt 0.4280029 0.3192073
vt 0.4279773 0.3239059
vt 0.4279901 0.3242123
vt 0.4279262 0.319501
vt 0.4281688 0.3232164
vt 0.4279518 0.3194754
vt 0.4279518 0.3194754
vt 0.4281688 0.3232164
vt 0.4281688 0.3234846
vt 0.4279518 0.3194754
vt 0.4280029 0.3192073
vt 0.4279262 0.319501
vt 0.4279262 0.319501
vt 0.4280029 0.3192073
vt 0.4280029 0.3192073
vt 0.4279773 0.3239059
vt 0.4279262 0.319501
vt 0.4279901 0.3242123
vt 0.4281688 0.3232164
vt 0.4279518 0.3194754
vt 0.4281688 0.3234846
vt 0.4281688 0.3232164
vt 0.4279518 0.3194754
vt 0.4279518 0.3194754
vt 0.8325292 0.2227328
vt 0.8440587 0.2457917
vt 0.8440459 0.2227328
vt 0.8325292 0.2457917
vt 0.4143156 0.2714425
vt 0.4294073 0.3104357
vt 0.4294073 0.2714425
vt 0.4143156 0.3104357
vt 0.3992112 0.2714425
vt 0.3992112 0.3104357
vt 0.4513809 0.3104357
vt 0.4403878 0.3207905
vt 0.4294073 0.3104357
vt 0.4513809 0.3104357
vt 0.4294073 0.3104357
vt 0.4403878 0.3207905
vt 0.4212103 0.3232164
vt 0.4209933 0.3194754
vt 0.4212103 0.3234846
vt 0.4212103 0.3232164
vt 0.4209933 0.3194754
vt 0.4209933 0.3194754
vt 0.4210316 0.3192073
vt 0.420955 0.319501
vt 0.420955 0.319501
vt 0.4210316 0.3192073
vt 0.4210316 0.3192073
vt 0.421006 0.3239059
vt 0.420955 0.319501
vt 0.4210188 0.3242123
vt 0.4212103 0.3232164
vt 0.4209933 0.3194754
vt 0.4209933 0.3194754
vt 0.4212103 0.3232164
vt 0.4212103 0.3234846
vt 0.4209933 0.3194754
vt 0.4210316 0.3192073
vt 0.420955 0.319501
vt 0.4210316 0.3192073
vt 0.420955 0.319501
vt 0.4210316 0.3192073
vt 0.421006 0.3239059
vt 0.4210188 0.3242123
vt 0.420955 0.319501
vt 0.008269854 0.4347443
vt 0.04751848 0.5162293
vt 0.04751848 0.5162293
vt 0.008269854 0.4347443
vt 0.171993 0.5162293
vt 0.171993 0.5162293
vt 0.171993 0.4347443
vt 0.171993 0.4347443
vt 0.171993 0.3789357
vt 0.171993 0.3789357
vt 0.171993 0.3019451
vt 0.171993 0.3019451
vt 0.171993 0.269655
vt 0.171993 0.269655
vt 0.007312259 0.269655
vt 0.007312259 0.269655
vt 0.007452706 0.3022387
vt 0.007452706 0.3022387
vt 0.007835744 0.3789357
vt 0.007835744 0.3789357
vt 0.171993 0.3019451
vt 0.007312259 0.269655
vt 0.171993 0.269655
vt 0.007452706 0.3022387
vt 0.171993 0.3789357
vt 0.007835744 0.3789357
vt 0.171993 0.4347443
vt 0.008269854 0.4347443
vt 0.04751848 0.5162293
vt 0.171993 0.5162293
vn 0.9999924 -0.003921568 0
vn 0.9999924 -0.003921568 0
vn 0.9999924 -0.003921568 0
vn 0.9999924 -0.003921568 0
vn 0.9996234 0.02744055 0
vn 0.9996234 0.02744055 0
vn 0.9977852 0.06651898 0
vn 0.9977852 0.06651898 0
vn 0.9982743 0.05872193 0
vn 0.9982743 0.05872193 0
vn -0.05097997 -0.01176465 -0.9986304
vn -0.02745068 0.1764692 -0.9839233
vn -0.04313684 0.06666613 -0.9968424
vn -0.05097997 -0.01176465 -0.9986304
vn -0.04313684 0.06666613 -0.9968424
vn -0.01176453 0.3019584 -0.9532485
vn -0.01176453 0.3019584 -0.9532485
vn -0.02745068 0.1764692 -0.9839233
vn -0.1058815 0.2078415 -0.972415
vn -0.1058815 0.2078415 -0.972415
vn -0.1058815 0.2078415 -0.972415
vn -0.1058815 0.2078415 -0.972415
vn -0.1058815 0.2078415 -0.972415
vn -0.1058815 0.2078415 -0.972415
vn 0.06666619 -0.01176465 0.997706
vn 0.04313695 -0.1999985 0.9788461
vn 0.06666619 -0.01176465 0.997706
vn 0.05882311 -0.08235234 0.9948658
vn 0.05882311 -0.08235234 0.9948658
vn 0.01960772 -0.3176447 0.948007
vn 0.04313695 -0.1999985 0.9788461
vn 0.01960772 -0.3176447 0.948007
vn 0.1137246 -0.2235277 0.9680403
vn 0.1137246 -0.2235277 0.9680403
vn 0.1137246 -0.2235277 0.9680403
vn 0.1137246 -0.2235277 0.9680403
vn 0.1137246 -0.2235277 0.9680403
vn 0.1137246 -0.2235277 0.9680403
vn 0.4352908 -0.56078 -0.7043065
vn -0.7960722 0.5450938 0.2629482
vn -0.7960722 -0.56078 0.2275846
vn 0.4352908 0.5450938 -0.7165157
vn 0.5137216 0.5764661 0.6354344
vn -0.7960722 -0.56078 0.2275846
vn -0.7960722 0.5450938 0.2629482
vn 0.5137216 -0.5921524 0.6208428
vn 0.4352908 0.5450938 -0.7165157
vn 0.4352908 -0.56078 -0.7043065
vn 0.4352908 0.5450938 -0.7165157
vn 0.5137216 0.5764661 0.6354344
vn -0.7960722 0.5450938 0.2629482
vn 0.4352908 -0.56078 -0.7043065
vn -0.7960722 -0.56078 0.2275846
vn 0.5137216 -0.5921524 0.6208428
vn 0.6784262 0.09803843 -0.7280977
vn 0.6784262 0.09803843 -0.7280977
vn 0.6784262 0.09803843 -0.7280977
vn 0.6784262 0.09803843 -0.7280977
vn 0.6784262 0.09803843 -0.7280977
vn 0.6784262 0.09803843 -0.7280977
vn 0.6941124 -0.1607831 -0.7016814
vn 0.6941124 0.05097997 -0.7180592
vn 0.6941124 -0.1607831 -0.7016814
vn 0.6941124 -0.09019542 -0.7141938
vn 0.6941124 -0.09019542 -0.7141938
vn 0.6784262 0.1843122 -0.7111729
vn 0.6941124 0.05097997 -0.7180592
vn 0.6784262 0.1843122 -0.7111729
vn -0.670583 -0.1137246 0.7330655
vn -0.670583 -0.1137246 0.7330655
vn -0.670583 -0.1137246 0.7330655
vn -0.670583 -0.1137246 0.7330655
vn -0.670583 -0.1137246 0.7330655
vn -0.670583 -0.1137246 0.7330655
vn -0.6784261 0.1450969 0.7201977
vn -0.6784261 -0.06666619 0.7316376
vn -0.6784261 0.08235228 0.7300384
vn -0.6784261 0.1450969 0.7201977
vn -0.6784261 0.08235228 0.7300384
vn -0.66274 -0.1921554 0.7237762
vn -0.66274 -0.1921554 0.7237762
vn -0.6784261 -0.06666619 0.7316376
vn 0.01176465 0.2078415 0.9780918
vn 0.01176465 0.8509738 0.5250763
vn 0.01176465 0.8352877 0.5496873
vn 0.01176465 0.2313707 0.9727945
vn 0.01176465 0.7176415 -0.6963134
vn 0.01176465 0.6862692 -0.7272525
vn 0.01176465 -0.01176465 -0.9998616
vn 0.01176465 -0.01176465 -0.9998616
vn 0.01176465 -0.01176465 -0.9998616
vn 0.01176465 -0.01176465 -0.9998616
vn 0.01176465 -0.01176465 -0.9998616
vn 0.01176465 -0.01176465 -0.9998616
vn 0.01176465 -0.7176416 -0.6963133
vn 0.01176465 -0.7176416 -0.6963133
vn 0.01176465 -0.7176416 0.6963133
vn 0.01176465 -0.7176416 0.6963133
vn 0.01176465 -0.01176465 0.9998616
vn 0.01176465 -0.01176465 0.9998616
vn 0.01176465 0.003921509 0.9999231
vn 0.01176465 0.003921509 0.9999231
vn -0.9999923 -0.003921568 -0.0003442513
vn -0.9999923 -0.003921568 -0.0003442513
vn -0.9999923 -0.003921568 -0.0003442513
vn -0.9999923 -0.003921568 -0.0003442513
vn -0.9921492 -0.05098003 -0.1141969
vn -0.9921492 -0.05098003 -0.1141969
vn -0.9921492 -0.09019542 -0.0866296
vn -0.9921492 -0.09019542 -0.0866296
vn -0.9921492 -0.08235234 -0.09411691
vn -0.9921492 -0.08235234 -0.09411691
g mx_jingChe2_chemen-L_0
f 3/3/3 2/2/2 1/1/1
f 2/2/2 4/4/4 1/1/1
f 3/3/3 1/1/1 5/5/5
f 6/6/6 3/3/3 5/5/5
f 6/6/6 5/5/5 7/7/7
f 8/8/8 6/6/6 7/7/7
f 9/9/9 8/8/8 7/7/7
f 10/10/10 9/9/9 7/7/7
f 13/13/13 12/12/12 11/11/11
f 12/12/12 14/14/14 11/11/11
f 17/17/17 16/16/16 15/15/15
f 16/16/16 18/18/18 15/15/15
f 21/21/21 20/20/20 19/19/19
f 24/24/24 23/23/23 22/22/22
f 27/27/27 26/26/26 25/25/25
f 26/26/26 28/28/28 25/25/25
f 31/31/31 30/30/30 29/29/29
f 30/30/30 32/32/32 29/29/29
f 35/35/35 34/34/34 33/33/33
f 38/38/38 37/37/37 36/36/36
f 41/41/41 40/40/40 39/39/39
f 40/40/40 42/42/42 39/39/39
f 45/45/45 44/44/44 43/43/43
f 44/44/44 46/46/46 43/43/43
f 43/43/43 46/46/46 47/47/47
f 46/46/46 48/48/48 47/47/47
f 51/51/51 50/50/50 49/49/49
f 54/54/54 53/53/53 52/52/52
f 57/57/57 56/56/56 55/55/55
f 60/60/60 59/59/59 58/58/58
f 63/63/63 62/62/62 61/61/61
f 62/62/62 64/64/64 61/61/61
f 67/67/67 66/66/66 65/65/65
f 66/66/66 68/68/68 65/65/65
f 71/71/71 70/70/70 69/69/69
f 74/74/74 73/73/73 72/72/72
f 77/77/77 76/76/76 75/75/75
f 76/76/76 78/78/78 75/75/75
f 81/81/81 80/80/80 79/79/79
f 80/80/80 82/82/82 79/79/79
f 85/85/85 84/84/84 83/83/83
f 84/84/84 86/86/86 83/83/83
f 87/87/87 84/84/84 85/85/85
f 88/88/88 87/87/87 85/85/85
f 89/89/89 87/87/87 88/88/88
f 90/90/90 89/89/89 88/88/88
f 91/91/91 89/89/89 90/90/90
f 92/92/92 91/91/91 90/90/90
f 93/93/93 91/91/91 92/92/92
f 94/94/94 93/93/93 92/92/92
f 95/95/95 93/93/93 94/94/94
f 96/96/96 95/95/95 94/94/94
f 97/97/97 95/95/95 96/96/96
f 98/98/98 97/97/97 96/96/96
f 99/99/99 97/97/97 98/98/98
f 100/100/100 99/99/99 98/98/98
f 101/101/101 99/99/99 100/100/100
f 102/102/102 101/101/101 100/100/100
f 86/86/86 101/101/101 102/102/102
f 83/83/83 86/86/86 102/102/102
f 105/105/105 104/104/104 103/103/103
f 104/104/104 106/106/106 103/103/103
f 103/103/103 106/106/106 107/107/107
f 106/106/106 108/108/108 107/107/107
f 107/107/107 108/108/108 109/109/109
f 108/108/108 110/110/110 109/109/109
f 110/110/110 111/111/111 109/109/109
f 111/111/111 112/112/112 109/109/109
