g mx_qingJieChe1_cheli
v 0.7641049 -0.4930768 -0.6925185
v -0.712176 -0.6213832 0.4814739
v -0.712176 -0.4930768 -0.6925185
v 0.7641049 -0.6213832 0.4814739
v 0.7641049 -0.843762 0.4387585
v 0.7641049 -0.6213832 0.4814739
v 0.7641049 -0.8513331 -0.6925126
v 0.7641049 -0.4930768 -0.6925185
v 0.9863371 -0.9232648 -0.6925126
v 0.9918448 -0.8587326 0.4489716
v 0.7641049 -0.8513331 -0.6925126
v -0.712176 -0.6213832 0.4814739
v -0.7091753 -0.8508664 -0.6925165
v -0.712176 -0.4930768 -0.6925185
v -0.712176 -0.843762 0.4387585
v -0.5498033 -0.101512 -0.6113706
v -0.5864614 -0.653577 -0.4765479
v -0.1242609 -0.1010627 -0.6113706
v -0.07755733 -0.653577 -0.476546
v -0.1242609 -0.02634436 -0.4917172
v -0.1242609 -0.1010627 -0.6113706
v -0.07755733 -0.6300594 -0.2356462
v -0.07755733 -0.653577 -0.476546
v -0.5498033 -0.101512 -0.6113706
v -0.1242609 -0.1010627 -0.6113706
v -0.1242609 -0.02634436 -0.4917172
v -0.5498033 -0.02664518 -0.4917172
v -0.5864614 -0.6300594 -0.2356462
v -0.5498033 -0.101512 -0.6113706
v -0.5498033 -0.02664518 -0.4917172
v -0.5864614 -0.653577 -0.4765479
v -0.1242609 -0.02634436 -0.4917172
v -0.5864614 -0.6300594 -0.2356462
v -0.5498033 -0.02664518 -0.4917172
v -0.07755733 -0.6300594 -0.2356462
v -0.1932228 0.1329293 -0.6250454
v -0.4635874 0.1329293 -0.6250454
v -0.2077421 -0.09644204 -0.5903195
v -0.4514343 -0.09644204 -0.5903195
v -0.2077421 -0.0439474 -0.4963031
v -0.1932228 0.1874604 -0.5217511
v -0.1932228 0.1329293 -0.6250454
v -0.2077421 -0.09644204 -0.5903195
v -0.2077421 -0.0439474 -0.4963031
v -0.4514343 -0.09644204 -0.5903195
v -0.4514343 -0.0439474 -0.4963031
v -0.2077421 -0.09644204 -0.5903195
v -0.1932228 0.1329293 -0.6250454
v -0.1932228 0.1874604 -0.5217511
v -0.4635874 0.1874604 -0.5217511
v -0.4635874 0.1329293 -0.6250454
v -0.4514343 -0.0439474 -0.4963031
v -0.4514343 -0.09644204 -0.5903195
v -0.1932228 0.1874604 -0.5217511
v -0.2077421 -0.0439474 -0.4963031
v -0.4635874 0.1874604 -0.5217511
v -0.4514343 -0.0439474 -0.4963031
v 0.2587955 -0.1063274 -0.6113706
v 0.2059422 -0.6586893 -0.476546
v 0.7141346 -0.6586893 -0.476546
v 0.6653039 -0.1063274 -0.6113706
v 0.6653039 -0.03145868 -0.4917172
v 0.6653039 -0.1063274 -0.6113706
v 0.7141346 -0.6353241 -0.2356462
v 0.7141346 -0.6586893 -0.476546
v 0.2587955 -0.1063274 -0.6113706
v 0.6653039 -0.1063274 -0.6113706
v 0.6653039 -0.03145868 -0.4917172
v 0.2587955 -0.03145868 -0.4917172
v 0.2059422 -0.6353241 -0.2356462
v 0.2587955 -0.1063274 -0.6113706
v 0.2587955 -0.03145868 -0.4917172
v 0.2059422 -0.6586893 -0.476546
v 0.2587955 -0.03145868 -0.4917172
v 0.6653039 -0.03145868 -0.4917172
v 0.7141346 -0.6353241 -0.2356462
v 0.2059422 -0.6353241 -0.2356462
v 0.3289318 0.1290917 -0.6276295
v 0.3655784 -0.09990752 -0.5783515
v 0.5597553 -0.100731 -0.5681403
v 0.5990015 0.1277707 -0.6112684
v 0.5597553 -0.05111164 -0.497007
v 0.5990015 0.1824734 -0.5077717
v 0.5990015 0.1277707 -0.6112684
v 0.5597553 -0.100731 -0.5681403
v 0.3655784 -0.09990752 -0.5783515
v 0.3655784 -0.0502978 -0.5070986
v 0.5597553 -0.100731 -0.5681403
v 0.5597553 -0.05111164 -0.497007
v 0.5990015 0.1277707 -0.6112684
v 0.3289298 0.1837964 -0.5241308
v 0.3289318 0.1290917 -0.6276295
v 0.5990015 0.1824734 -0.5077717
v 0.3655784 -0.0502978 -0.5070986
v 0.3655784 -0.09990752 -0.5783515
v 0.3289298 0.1837964 -0.5241308
v 0.5990015 0.1824734 -0.5077717
v 0.5597553 -0.05111164 -0.497007
v 0.3655784 -0.0502978 -0.5070986
v -0.005976677 0.2011834 0.9981556
v 0.7125243 -0.1081093 0.6528063
v 0.9365577 0.1439139 0.9776231
v -0.5023843 -0.1095595 0.6521622
v -0.9414625 0.1439139 0.9776231
v 1.016915 -0.2901099 1.003044
v 0.9365577 0.1439139 0.9776231
v 0.7125243 -0.307117 0.5577562
v 0.7125243 -0.1081093 0.6528063
v 0.7125243 -0.307117 0.5577562
v 0.7125243 -0.1081093 0.6528063
v -0.5023843 -0.3057632 0.5585952
v -0.5023843 -0.1095595 0.6521622
v -0.9414625 0.1439139 0.9776231
v -0.5023843 -0.3057632 0.5585952
v -0.5023843 -0.1095595 0.6521622
v -0.9833391 -0.8007765 0.9279382
v -0.712176 -0.6213832 0.4814739
v 0.7641049 -0.6213832 0.4814739
v 0.7641049 -0.843762 0.4387585
v -0.712176 -0.843762 0.4387585
v 0.7125243 -0.307117 0.5577562
v -0.09552872 -0.826564 0.9917164
v 0.6975845 -0.8527313 0.8506223
v 1.001736 -0.8206089 0.904438
v 1.016915 -0.2901099 1.003044
v -0.5023843 -0.3057632 0.5585952
v -0.09552872 -0.826564 0.9917164
v 0.7125243 -0.307117 0.5577562
v -0.5023843 -0.3057632 0.5585952
v -0.9833391 -0.8007765 0.9279382
v -0.09552872 -0.826564 0.9917164
v -0.712176 -0.843762 0.4387585
v 0.7641049 -0.843762 0.4387585
v 0.6975845 -0.8527313 0.8506223
v 0.9918448 -0.8587326 0.4489716
v 1.001736 -0.8206089 0.904438
v -0.09552872 -0.826564 0.9917164
v -0.9833391 -0.8007765 0.9279382
v -0.9811831 -0.843762 0.4387585
v -0.9805139 -0.8508664 -0.7032079
v -0.7091753 -0.8508664 -0.6925165
v -0.712176 -0.843762 0.4387585
v -0.9811831 -0.843762 0.4387585
v 0.517522 -0.2690839 0.5951009
v 0.5281497 -0.1844031 0.6352322
v 0.5147836 -0.1107281 0.4902388
v 0.517522 -0.2062622 0.4482292
v 0.4231025 -0.09185618 0.4935499
v 0.4231025 -0.1631765 0.6453663
v 0.4231025 -0.2988054 0.5798101
v 0.4231025 -0.2481388 0.4180526
v 0.4231025 0.02681565 0.5601958
v 0.4231025 0.004034758 0.5348731
v 0.5106431 -0.01656902 0.5250341
v 0.5268095 0.002405167 0.5485401
v 0.5747279 -0.07286274 0.4981571
v 0.6027215 -0.06428301 0.5166973
v 0.5901132 -0.123026 0.4712936
v 0.6305126 -0.1553778 0.4732028
v 0.5882927 -0.1818826 0.4461021
v 0.6234447 -0.2025326 0.4506861
v 0.546904 -0.258514 0.4095095
v 0.569764 -0.2842088 0.4116848
v 0.4763936 -0.2895603 0.385828
v 0.4847632 -0.3226064 0.3844935
v 0.4310844 -0.3288141 0.3815295
v 0.4310844 -0.2937663 0.3836623
v 0.5262483 -0.1856508 0.444216
v 0.5901132 -0.123026 0.4712936
v 0.5147836 -0.1107281 0.4902388
v 0.5882927 -0.1818826 0.4461021
v 0.4310844 -0.2937663 0.3836623
v 0.4763936 -0.2895603 0.385828
v 0.4231025 -0.09185618 0.4935499
v 0.3314233 -0.1107262 0.4902388
v 0.3180553 -0.1844031 0.6352322
v 0.3286811 -0.2690839 0.5951029
v 0.3286811 -0.2062622 0.4482292
v 0.4231025 -0.09185618 0.4935499
v 0.4231025 -0.1631765 0.6453663
v 0.4231025 -0.2988054 0.5798101
v 0.4231025 -0.2481388 0.4180526
v 0.3355619 -0.01656902 0.525036
v 0.4231025 0.004034758 0.5348731
v 0.4231025 0.02681565 0.5601958
v 0.3193994 0.002405167 0.5485401
v 0.2714751 -0.07286274 0.4981571
v 0.2434816 -0.06428301 0.5166973
v 0.2560918 -0.123026 0.4712936
v 0.2156925 -0.1553778 0.4732008
v 0.2579123 -0.1818826 0.4461021
v 0.2227603 -0.2025326 0.4506861
v 0.2993029 -0.258514 0.4095095
v 0.276441 -0.2842088 0.4116848
v 0.3857656 -0.2895603 0.385828
v 0.3774018 -0.3226064 0.3844935
v 0.4310844 -0.3288141 0.3815295
v 0.4310844 -0.2937663 0.3836623
v 0.3314233 -0.1107262 0.4902388
v 0.2560918 -0.123026 0.4712936
v 0.3199567 -0.1856508 0.444216
v 0.2579123 -0.1818826 0.4461021
v 0.4310844 -0.2937663 0.3836623
v 0.3857656 -0.2895603 0.385828
v 0.4231025 -0.09185618 0.4935499
v -0.00597477 1.005223 -0.6772681
v 0.8553058 0.9243686 0.7202601
v 0.8900683 0.9347322 -0.6772681
v -0.005976677 0.9801031 0.7519042
v 0.8930651 0.5128114 0.8532971
v -0.005976677 0.2011834 0.9981556
v 0.906547 0.1447508 0.9582036
v 1.001693 0.07171607 0.9250745
v 0.9495093 0.5190424 0.8106433
v 0.8553058 0.9243686 0.7202601
v 0.9043678 0.8719954 0.7326871
v -0.005976677 0.9801031 0.7519042
v 1.001705 -0.8524266 -0.5853171
v 0.9698623 0.1025406 -0.6772681
v 1.001707 0.1012601 -0.5746295
v 0.9698584 -0.9667227 -0.6772681
v 0.9698545 -0.9730712 0.8579658
v 1.001736 -0.8206089 0.904438
v 0.9535976 0.8278182 -0.5854367
v 0.8900683 0.9347322 -0.6772681
v 0.9503751 0.8718759 -0.5832729
v 0.940702 0.8900073 -0.5543228
v 0.9043678 0.8719954 0.7326871
v 0.8553058 0.9243686 0.7202601
v 0.8900683 0.9347322 -0.6772681
v -0.00597477 0.1030092 -0.6772681
v -0.00597477 1.005223 -0.6772681
v 0.9698623 0.1025406 -0.6772681
v 0.9698584 -0.9667227 -0.6772681
v -0.00597477 -0.9667324 -0.6772681
v 0.9639187 -0.9814755 0.9073943
v 1.001736 -0.8206089 0.904438
v 0.9713838 -0.8007765 0.9279382
v 0.9698545 -0.9730712 0.8579658
v 0.9846401 -0.2770311 0.9829091
v 1.001709 -0.2916508 0.9252692
v 0.9811283 -0.08373159 0.9527152
v 0.9695981 -0.08277696 0.988785
v 0.906547 0.1447508 0.9582036
v 1.001693 0.07171607 0.9250745
v 0.9639187 -0.9814755 0.9073943
v 0.6908503 -1.005224 0.9039578
v 0.9698545 -0.9730712 0.8579658
v -0.8672611 0.9243686 0.7202601
v -0.00597477 1.005223 -0.6772681
v -0.9020197 0.9347322 -0.6772681
v -0.005976677 0.9801031 0.7519042
v -0.8672611 0.9243686 0.7202601
v -0.005976677 0.2011834 0.9981556
v -0.005976677 0.9801031 0.7519042
v -0.9050165 0.5128114 0.8532971
v -0.9414625 0.1439139 0.9776231
v -0.9818021 0.07458758 0.9071379
v -0.9310893 0.5092959 0.795933
v -0.8966894 0.8245263 0.7238277
v -0.9818137 -0.8234861 -0.560654
v -0.9818137 0.1033005 -0.5502673
v -0.9818156 0.1025406 -0.6772681
v -0.9818137 -0.9667227 -0.6772681
v -0.9818118 -0.9730712 0.8579658
v -0.9818137 -0.7925671 0.8870819
v -0.9311453 0.8351753 -0.5526837
v -0.9020197 0.9347322 -0.6772681
v -0.8966894 0.8245263 0.7238277
v -0.8672611 0.9243686 0.7202601
v -0.9818176 -0.2785295 0.9073268
v -0.9310893 0.5092959 0.795933
v -0.9818021 0.07458758 0.9071379
v -0.00597477 0.1030092 -0.6772681
v -0.9020197 0.9347322 -0.6772681
v -0.00597477 1.005223 -0.6772681
v -0.9818156 0.1025406 -0.6772681
v -0.9818137 -0.9667227 -0.6772681
v -0.00597477 -0.9667324 -0.6772681
v -0.9758722 -0.9814755 0.9073943
v -0.9833391 -0.8007765 0.9279382
v -0.9818137 -0.7925671 0.8870819
v -0.9818118 -0.9730712 0.8579658
v -0.9965973 -0.2770311 0.9829072
v -0.9818176 -0.2785295 0.9073268
v -0.9930837 -0.08373159 0.9527152
v -0.9815552 -0.08277696 0.988785
v -0.9414625 0.1439139 0.9776231
v -0.9818021 0.07458758 0.9071379
vt 0.08052725 0.1683196
vt 0.04215533 0.2089548
vt 0.08052725 0.2089548
vt 0.04215533 0.1683196
vt 0.6905619 0.6594266
vt 0.6905619 0.7261047
vt 0.6592032 0.6594266
vt 0.6592032 0.7261047
vt 0.6592032 0.6594266
vt 0.6905619 0.6594266
vt 0.6592032 0.6594266
vt 0.6905619 0.7261047
vt 0.6592032 0.6594266
vt 0.6592032 0.7261047
vt 0.6905619 0.6594266
vt 0.6727533 0.7261047
vt 0.6727533 0.6594266
vt 0.6592032 0.7261047
vt 0.6592032 0.6594266
vt 0.6657996 0.7261047
vt 0.6592032 0.7261047
vt 0.6657996 0.6594266
vt 0.6592032 0.6594266
vt 0.664921 0.7261047
vt 0.664921 0.6594266
vt 0.6592032 0.6594266
vt 0.6592032 0.7261047
vt 0.6657996 0.6594266
vt 0.6592032 0.7261047
vt 0.6657996 0.7261047
vt 0.6592032 0.6594266
vt 0.7263429 0.7247497
vt 0.6970838 0.6622706
vt 0.6970838 0.7247497
vt 0.7263429 0.6622706
vt 0.6592032 0.7261047
vt 0.6757462 0.7261047
vt 0.6592032 0.6594266
vt 0.6757462 0.6594266
vt 0.6592032 0.6594266
vt 0.6592032 0.7261047
vt 0.6649508 0.7261047
vt 0.6649508 0.6594266
vt 0.6649508 0.6594266
vt 0.6592032 0.7261047
vt 0.6649508 0.7261047
vt 0.6592032 0.6594266
vt 0.6649508 0.6594266
vt 0.6592032 0.6594266
vt 0.6592032 0.7261047
vt 0.6649508 0.7261047
vt 0.6592032 0.6594266
vt 0.6649508 0.6594266
vt 0.721459 0.7119293
vt 0.721459 0.6965775
vt 0.7049904 0.7119293
vt 0.7049904 0.6965775
vt 0.6727533 0.7261047
vt 0.6727533 0.6594266
vt 0.6592032 0.6594266
vt 0.6592032 0.7261047
vt 0.6657996 0.7261047
vt 0.6592032 0.7261047
vt 0.6657996 0.6594266
vt 0.6592032 0.6594266
vt 0.664921 0.7261047
vt 0.664921 0.6594266
vt 0.6592032 0.6594266
vt 0.6592032 0.7261047
vt 0.6657996 0.6594266
vt 0.6592032 0.7261047
vt 0.6657996 0.7261047
vt 0.6592032 0.6594266
vt 0.7263429 0.7247497
vt 0.6970838 0.7247497
vt 0.6970838 0.6622706
vt 0.7263429 0.6622706
vt 0.6757462 0.7261047
vt 0.6757462 0.6594266
vt 0.6592032 0.6594266
vt 0.6592032 0.7261047
vt 0.6592032 0.6594266
vt 0.6592032 0.7261047
vt 0.6649508 0.7261047
vt 0.6649508 0.6594266
vt 0.6592032 0.7261047
vt 0.6649508 0.7261047
vt 0.6592032 0.6594266
vt 0.6649508 0.6594266
vt 0.6649508 0.6594266
vt 0.6592032 0.7261047
vt 0.6649508 0.7261047
vt 0.6592032 0.6594266
vt 0.6592032 0.6594266
vt 0.6649508 0.6594266
vt 0.7049904 0.7119293
vt 0.721459 0.7119293
vt 0.721459 0.6965775
vt 0.7049904 0.6965775
vt 0.671294 0.7158751
vt 0.6669759 0.689326
vt 0.6558232 0.6942248
vt 0.6755228 0.689326
vt 0.6838018 0.7033972
vt 0.6605731 0.6963542
vt 0.6605731 0.7224119
vt 0.6825063 0.6963542
vt 0.6825063 0.7224119
vt 0.6605731 0.6963542
vt 0.6605731 0.7224119
vt 0.6825063 0.6963542
vt 0.6825063 0.7224119
vt 0.6825063 0.7093979
vt 0.6605731 0.6963542
vt 0.6605731 0.7224119
vt 0.6825063 0.6963542
vt 0.6905619 0.6594266
vt 0.6592032 0.6594266
vt 0.6592032 0.7261047
vt 0.6905619 0.7261047
vt 0.6825063 0.6963542
vt 0.6825063 0.6963542
vt 0.6605731 0.6963542
vt 0.6605731 0.6963542
vt 0.6605731 0.6963542
vt 0.6825063 0.6963542
vt 0.6715472 0.6963542
vt 0.6605731 0.6963542
vt 0.6605731 0.6963542
vt 0.6825063 0.6963542
vt 0.6605731 0.6963542
vt 0.6905619 0.7261047
vt 0.6592032 0.7261047
vt 0.6592032 0.7261047
vt 0.6592032 0.7261047
vt 0.6592032 0.7261047
vt 0.6767736 0.7261047
vt 0.6905619 0.7261047
vt 0.6905619 0.7261047
vt 0.6592032 0.6594266
vt 0.6592032 0.6594266
vt 0.6905619 0.6594266
vt 0.6905619 0.6594266
vt 0.2040708 0.6386995
vt 0.1980999 0.6386995
vt 0.1980999 0.6285742
vt 0.2040113 0.6285742
vt 0.1916524 0.6285742
vt 0.1916524 0.6386995
vt 0.2103098 0.6386995
vt 0.2103098 0.6285742
vt 0.08103351 0.6309864
vt 0.08103351 0.6265044
vt 0.09182887 0.6265044
vt 0.09182887 0.6309864
vt 0.1039197 0.6265044
vt 0.1039197 0.6309864
vt 0.1125411 0.6263555
vt 0.1168443 0.6309864
vt 0.1234556 0.6265044
vt 0.1234556 0.6309864
vt 0.1363355 0.6265044
vt 0.1363355 0.6309864
vt 0.1483966 0.6265044
vt 0.1483966 0.6309864
vt 0.1531614 0.6309864
vt 0.1531614 0.6265044
vt 0.1831502 0.6540512
vt 0.1909675 0.6638043
vt 0.1789214 0.6662462
vt 0.1912653 0.6551829
vt 0.1710742 0.6358703
vt 0.1768963 0.6363468
vt 0.1683047 0.6671099
vt 0.1980999 0.6285742
vt 0.1980999 0.6386995
vt 0.2040708 0.6386995
vt 0.2041453 0.6285742
vt 0.1916524 0.6285742
vt 0.1916524 0.6386995
vt 0.2103098 0.6386995
vt 0.2103098 0.6285742
vt 0.09182887 0.6265044
vt 0.08103351 0.6265044
vt 0.08103351 0.6309864
vt 0.09182887 0.6309864
vt 0.1039197 0.6265044
vt 0.1039197 0.6309864
vt 0.1125411 0.6263555
vt 0.1168443 0.6309864
vt 0.1234556 0.6265044
vt 0.1234556 0.6309864
vt 0.1363355 0.6265044
vt 0.1363355 0.6309864
vt 0.1483966 0.6265044
vt 0.1483966 0.6309864
vt 0.1531614 0.6309864
vt 0.1531614 0.6265044
vt 0.1789214 0.6662462
vt 0.1909675 0.6638043
vt 0.1831502 0.6540512
vt 0.1912653 0.6551829
vt 0.1710742 0.6358703
vt 0.1768963 0.6363468
vt 0.1683047 0.6671099
vt 0.3735952 0.9867865
vt 0.213943 0.8952121
vt 0.3733123 0.8909535
vt 0.2107416 0.9870546
vt 0.1182589 0.5211864
vt 0.01122848 0.469592
vt 0.1206711 0.469592
vt 0.1274014 0.469592
vt 0.1243936 0.5223181
vt 0.1143577 0.5741209
vt 0.1177526 0.5649635
vt 0.01122848 0.5798983
vt 0.02996029 0.6118228
vt 0.01133271 0.7590417
vt 0.03162799 0.7592204
vt 0.01133271 0.5890111
vt 0.2578838 0.5894578
vt 0.2617255 0.6154262
vt 0.02990073 0.8723111
vt 0.01122848 0.8926957
vt 0.03022831 0.8791754
vt 0.03469536 0.8821088
vt 0.2145684 0.8799646
vt 0.2141961 0.891713
vt 0.928432 0.1289649
vt 0.9834809 0.07664091
vt 0.983466 0.1289649
vt 0.928432 0.07661113
vt 0.928432 0.01207722
vt 0.9834958 0.01207722
vt 0.1867982 0.1849519
vt 0.1940944 0.227091
vt 0.1897167 0.231841
vt 0.1894487 0.1845945
vt 0.2010928 0.2686792
vt 0.2221326 0.2607874
vt 0.223979 0.2814251
vt 0.2183803 0.2836587
vt 0.2289821 0.2942456
vt 0.2365909 0.2866963
vt 0.8067944 0.4874602
vt 0.7899686 0.4874602
vt 0.8065115 0.4804469
vt 0.213943 0.8952121
vt 0.3735952 0.9867865
vt 0.3733123 0.8909535
vt 0.2107416 0.9870546
vt 0.1143577 0.5741209
vt 0.01122848 0.469592
vt 0.01122848 0.5798983
vt 0.1182589 0.5211864
vt 0.1206711 0.469592
vt 0.1274014 0.469592
vt 0.1243936 0.5223181
vt 0.1203882 0.5579502
vt 0.02996029 0.6118228
vt 0.03162799 0.7592204
vt 0.01133271 0.7590417
vt 0.01133271 0.5890111
vt 0.2578838 0.5894578
vt 0.2617255 0.6154262
vt 0.03118128 0.8764803
vt 0.01122848 0.8926957
vt 0.2162659 0.8754082
vt 0.2141961 0.891713
vt 0.264495 0.6985579
vt 0.2372461 0.8239776
vt 0.2644355 0.7553787
vt 0.9834809 0.07664091
vt 0.928432 0.1289649
vt 0.983466 0.1289649
vt 0.928432 0.07661113
vt 0.928432 0.01207722
vt 0.9834958 0.01207722
vt 0.1867982 0.1849519
vt 0.1897167 0.231841
vt 0.1940944 0.227091
vt 0.1894487 0.1845945
vt 0.2010928 0.2686792
vt 0.2221326 0.2607874
vt 0.223979 0.2814251
vt 0.2183803 0.2836587
vt 0.2289821 0.2942456
vt 0.2365909 0.2866963
vn 0.6941142 0.7176311 0.0566664
vn -0.5607705 0.4744972 0.6785196
vn -0.670573 0.7097881 0.2157144
vn 0.5843118 0.4744972 0.6583556
vn 0.4117652 0.8509626 0.3260553
vn 0.5843118 0.4744972 0.6583556
vn 0.8117597 0.5764567 -0.0935092
vn 0.6941142 0.7176311 0.0566664
vn 0.2862766 0.945079 -0.1577069
vn 0.04314274 0.9921372 -0.1174842
vn 0.8117597 0.5764567 -0.0935092
vn -0.5607705 0.4744972 0.6785196
vn -0.686259 0.7019451 -0.1905825
vn -0.670573 0.7097881 0.2157144
vn -0.3333226 0.8823348 0.3322367
vn -0.5607705 0.3019506 -0.7709489
vn -0.7411603 -0.121573 -0.6602283
vn 0.5843118 0.3097936 -0.7500718
vn 0.7647015 -0.105887 -0.6356254
vn 0.5607827 0.7882184 0.2534454
vn 0.5843118 0.3097936 -0.7500718
vn 0.647056 0.3333226 0.6857219
vn 0.7647015 -0.105887 -0.6356254
vn -0.5607705 0.3019506 -0.7709489
vn 0.5843118 0.3097936 -0.7500718
vn 0.5607827 0.7882184 0.2534454
vn -0.5450845 0.7882184 0.2856478
vn -0.6235148 0.3254796 0.7108392
vn -0.5607705 0.3019506 -0.7709489
vn -0.5450845 0.7882184 0.2856478
vn -0.7411603 -0.121573 -0.6602283
vn 0.5607827 0.7882184 0.2534454
vn -0.6235148 0.3254796 0.7108392
vn -0.5450845 0.7882184 0.2856478
vn 0.647056 0.3333226 0.6857219
vn 0.6313699 0.3333226 -0.7001914
vn -0.6078287 0.3333226 -0.720722
vn 0.5529397 -0.7725445 -0.3121422
vn -0.5372415 -0.7647015 -0.3558135
vn 0.5921549 -0.3960791 0.7017649
vn 0.5921549 0.7097881 0.3815147
vn 0.6313699 0.3333226 -0.7001914
vn 0.5529397 -0.7725445 -0.3121422
vn 0.5921549 -0.3960791 0.7017649
vn -0.5372415 -0.7647015 -0.3558135
vn -0.5686135 -0.3960791 0.7209716
vn 0.5529397 -0.7725445 -0.3121422
vn 0.6313699 0.3333226 -0.7001914
vn 0.5921549 0.7097881 0.3815147
vn -0.5607705 0.7097881 0.4263066
vn -0.6078287 0.3333226 -0.720722
vn -0.5686135 -0.3960791 0.7209716
vn -0.5372415 -0.7647015 -0.3558135
vn 0.5921549 0.7097881 0.3815147
vn 0.5921549 -0.3960791 0.7017649
vn -0.5607705 0.7097881 0.4263066
vn -0.5686135 -0.3960791 0.7209716
vn -0.5529275 0.3097936 -0.773498
vn -0.7490033 -0.09804392 -0.655272
vn 0.7725445 -0.105887 -0.6260694
vn 0.5843118 0.3097936 -0.7500718
vn 0.5607827 0.7882184 0.2534454
vn 0.5843118 0.3097936 -0.7500718
vn 0.647056 0.3333226 0.6857219
vn 0.7725445 -0.105887 -0.6260694
vn -0.5529275 0.3097936 -0.773498
vn 0.5843118 0.3097936 -0.7500718
vn 0.5607827 0.7882184 0.2534454
vn -0.5372415 0.7882184 0.3001389
vn -0.6235148 0.3411658 0.7034453
vn -0.5529275 0.3097936 -0.773498
vn -0.5372415 0.7882184 0.3001389
vn -0.7490033 -0.09804392 -0.655272
vn -0.5372415 0.7882184 0.3001389
vn 0.5607827 0.7882184 0.2534454
vn 0.647056 0.3333226 0.6857219
vn -0.6235148 0.3411658 0.7034453
vn -0.6156718 0.2862645 -0.7341668
vn -0.4980264 -0.8117597 -0.3049853
vn 0.5294106 -0.8196027 -0.219034
vn 0.6862712 0.2862645 -0.6686438
vn 0.5372536 -0.4117652 0.7360761
vn 0.6078409 0.66273 0.4373996
vn 0.6862712 0.2862645 -0.6686438
vn 0.5294106 -0.8196027 -0.219034
vn -0.4980264 -0.8117597 -0.3049853
vn -0.5529275 -0.3960791 0.7330707
vn 0.5294106 -0.8196027 -0.219034
vn 0.5372536 -0.4117652 0.7360761
vn 0.6862712 0.2862645 -0.6686438
vn -0.5921427 0.686259 0.4223927
vn -0.6156718 0.2862645 -0.7341668
vn 0.6078409 0.66273 0.4373996
vn -0.5529275 -0.3960791 0.7330707
vn -0.4980264 -0.8117597 -0.3049853
vn -0.5921427 0.686259 0.4223927
vn 0.6078409 0.66273 0.4373996
vn 0.5372536 -0.4117652 0.7360761
vn -0.5529275 -0.3960791 0.7330707
vn 0.01177061 0.2392063 -0.9708974
vn 0.2941197 0.5372415 -0.7904841
vn 0.4901955 0.5215554 -0.6983469
vn -0.14509 0.5529275 -0.8204999
vn 0.4823524 -0.06667185 -0.8734363
vn 0.8274457 0.09018874 -0.5542558
vn 0.4901955 0.5215554 -0.6983469
vn 0.3490209 -0.0274567 -0.9367126
vn 0.2941197 0.5372415 -0.7904841
vn 0.3490209 -0.0274567 -0.9367126
vn 0.2941197 0.5372415 -0.7904841
vn -0.2078342 -0.0902009 -0.9739963
vn -0.14509 0.5529275 -0.8204999
vn 0.4823524 -0.06667185 -0.8734363
vn -0.2078342 -0.0902009 -0.9739963
vn -0.14509 0.5529275 -0.8204999
vn 0.8274457 0.3568518 -0.4335785
vn -0.5607705 0.4744972 0.6785196
vn 0.5843118 0.4744972 0.6583556
vn 0.4117652 0.8509626 0.3260553
vn -0.3333226 0.8823348 0.3322367
vn 0.3490209 -0.0274567 -0.9367126
vn 0.01177061 0.3803809 -0.924755
vn 0.003927588 0.5686135 -0.8225954
vn -0.4823402 0.3019506 -0.8222979
vn 0.8274457 0.09018874 -0.5542558
vn -0.2078342 -0.0902009 -0.9739963
vn 0.01177061 0.3803809 -0.924755
vn 0.3490209 -0.0274567 -0.9367126
vn -0.2078342 -0.0902009 -0.9739963
vn 0.8274457 0.3568518 -0.4335785
vn 0.01177061 0.3803809 -0.924755
vn -0.3333226 0.8823348 0.3322367
vn 0.4117652 0.8509626 0.3260553
vn 0.003927588 0.5686135 -0.8225954
vn 0.04314274 0.9921372 -0.1174842
vn -0.4823402 0.3019506 -0.8222979
vn 0.01177061 0.3803809 -0.924755
vn 0.8274457 0.3568518 -0.4335785
vn 0.01177061 0.9921372 -0.1246005
vn 0.01177002 0.9999307 0
vn -0.686259 0.7019451 -0.1905825
vn -0.3333226 0.8823348 0.3322367
vn 0.01177061 0.9921372 -0.1246005
vn 0.8196027 -0.5450966 -0.1764118
vn 0.8431318 0.5215554 0.1308003
vn 0.4509803 0.7411603 -0.4972909
vn 0.8490946 -0.5282409 0
vn 0.01177061 0.952922 -0.3029871
vn 0.01177061 0.8901778 0.4554612
vn 0.01177061 -0.9450912 -0.3265947
vn 0.01177061 -0.9686202 -0.2482667
vn 0.01177061 0.7333173 -0.6797848
vn 0.01177061 0.7333173 -0.6797848
vn 0.2000033 0.686259 -0.6993191
vn 0.2000033 0.686259 -0.6993191
vn 0.3254918 0.5764567 -0.7495017
vn 0.3411779 0.5686135 -0.7485161
vn 0.2470615 0.4588112 -0.8534945
vn 0.37255 0.3882239 -0.8429049
vn 0.2235324 0.3411658 -0.9130384
vn 0.3254918 0.3019506 -0.8960363
vn 0.3019627 0.1764621 -0.9368456
vn 0.3098058 0.168619 -0.9357286
vn 0.105887 0.2313633 -0.9670879
vn 0.1686312 0.06665969 -0.9834226
vn 0.01177061 0.04313064 -0.9990001
vn 0.01177061 0.2548923 -0.9668978
vn -0.04313064 0.4823402 -0.8749215
vn 0.2470615 0.4588112 -0.8534945
vn 0.4509803 0.7411603 -0.4972909
vn 0.2235324 0.3411658 -0.9130384
vn 0.01177061 0.2548923 -0.9668978
vn 0.105887 0.2313633 -0.9670879
vn 0.01177061 0.952922 -0.3029871
vn -0.4274391 0.7411603 -0.5176652
vn -0.8195906 0.5215554 0.2371735
vn -0.7960614 -0.5450966 -0.2629752
vn -0.8274336 -0.5294106 -0.1872914
vn 0.01177061 0.952922 -0.3029871
vn 0.01177061 0.8901778 0.4554612
vn 0.01177061 -0.9450912 -0.3265947
vn 0.01177061 -0.9686202 -0.2482667
vn -0.1764621 0.686259 -0.7056271
vn 0.01177061 0.7333173 -0.6797848
vn 0.01177061 0.7333173 -0.6797848
vn -0.1764621 0.686259 -0.7056271
vn -0.3019506 0.5764567 -0.7592915
vn -0.3176366 0.5686135 -0.7588054
vn -0.2235203 0.4588112 -0.8599599
vn -0.3490088 0.3882239 -0.8529215
vn -0.1999912 0.3411658 -0.9184821
vn -0.3019506 0.3019506 -0.904241
vn -0.2627354 0.160776 -0.9513786
vn -0.2705785 0.160776 -0.9491777
vn -0.07450271 0.2313633 -0.9700105
vn -0.1294039 0.06665969 -0.9893488
vn 0.01177061 0.04313064 -0.9990001
vn 0.01177061 0.2548923 -0.9668978
vn -0.4274391 0.7411603 -0.5176652
vn -0.2235203 0.4588112 -0.8599599
vn 0.05882877 0.4823402 -0.8740063
vn -0.1999912 0.3411658 -0.9184821
vn 0.01177061 0.2548923 -0.9668978
vn -0.07450271 0.2313633 -0.9700105
vn 0.01177061 0.952922 -0.3029871
vn 0.01177061 -0.7411724 0.6712116
vn -0.3333226 -0.7960736 -0.5051364
vn -0.4274391 -0.639213 0.6392985
vn 0.01177061 -0.8117597 -0.583873
vn -0.3019506 -0.3098058 -0.9015799
vn 0.01177061 0.2392063 -0.9708974
vn -0.3490088 -0.2627476 -0.8995313
vn -0.4509681 -0.1607882 -0.8779379
vn -0.5293984 -0.2941197 -0.7957581
vn -0.3333226 -0.7960736 -0.5051364
vn -0.3019506 -0.5058815 -0.8080283
vn 0.01177061 -0.8117597 -0.583873
vn -0.9607651 0.1215609 0.2493057
vn -0.5921427 -0.03529972 0.8050596
vn -0.945079 -0.04314274 0.3239822
vn -0.6392008 0.09018874 0.7637331
vn -0.8509626 0.4980264 0.1668302
vn -0.4823402 0.3019506 -0.8222979
vn -0.8588057 -0.09804392 0.5028322
vn -0.4274391 -0.639213 0.6392985
vn -0.8666487 -0.3568639 0.3486664
vn -0.670573 -0.7411724 -0.03154898
vn -0.3019506 -0.5058815 -0.8080283
vn -0.3333226 -0.7960736 -0.5051364
vn -0.4274391 -0.639213 0.6392985
vn 0.01177061 -0.01177061 0.9998615
vn 0.01177061 -0.7411724 0.6712116
vn -0.5921427 -0.03529972 0.8050596
vn -0.6392008 0.09018874 0.7637331
vn 0.01177061 -0.01177061 0.9998615
vn -0.6156718 0.7725323 -0.1553772
vn -0.4823402 0.3019506 -0.8222979
vn -0.5529275 0.09018874 -0.828334
vn -0.8509626 0.4980264 0.1668302
vn -0.945079 -0.04314274 -0.3239822
vn -0.945079 -0.0274567 -0.3256868
vn -0.8588057 -0.105887 -0.5012392
vn -0.9293929 -0.1921603 -0.3151241
vn -0.3490088 -0.2627476 -0.8995313
vn -0.4509681 -0.1607882 -0.8779379
vn -0.6156718 0.7725323 -0.1553772
vn -0.07450271 0.9686081 0.2371657
vn -0.8509626 0.4980264 0.1668302
vn 0.5294106 -0.7098002 -0.4646591
vn 0.01177061 -0.7411724 0.6712116
vn 0.5450966 -0.6078409 0.5774072
vn 0.01177061 -0.8117597 -0.583873
vn 0.5294106 -0.7098002 -0.4646591
vn 0.01177061 0.2392063 -0.9708974
vn 0.01177061 -0.8117597 -0.583873
vn 0.5607827 -0.3098058 -0.7678172
vn 0.4823524 -0.06667185 -0.8734363
vn 0.9915997 -0.1293443 0
vn 0.9764633 -0.1686312 -0.1344732
vn 0.9450912 -0.2392185 -0.2226593
vn 0.9999307 -0.01176988 0
vn 0.9990706 -0.04310297 0
vn 0.7254863 -0.03529972 0.6873307
vn 0.7176433 -0.01177061 0.6963114
vn 0.9999924 -0.003927588 0
vn 0.9999924 0.003915429 0
vn 0.9829156 -0.1840569 0
vn 0.5450966 -0.6078409 0.5774072
vn 0.9450912 -0.2392185 -0.2226593
vn 0.5294106 -0.7098002 -0.4646591
vn 0.9999307 -0.01176988 0
vn 0.9764633 -0.1686312 -0.1344732
vn 0.9915997 -0.1293443 0
vn 0.01177061 -0.01177061 0.9998615
vn 0.5450966 -0.6078409 0.5774072
vn 0.01177061 -0.7411724 0.6712116
vn 0.7254863 -0.03529972 0.6873307
vn 0.7176433 -0.01177061 0.6963114
vn 0.01177061 -0.01177061 0.9998615
vn 0.9999309 0.01175772 0
vn 0.8274457 0.3568518 -0.4335785
vn 0.9999924 0.003915429 0
vn 0.9999924 -0.003927588 0
vn 0.9999307 -0.01176988 0
vn 0.9999307 -0.01176988 0
vn 0.9972353 -0.07430942 0
vn 0.9607772 -0.1372591 -0.240971
vn 0.4823524 -0.06667185 -0.8734363
vn 0.9915997 -0.1293443 0
g mx_qingJieChe1_cheli_0
f 3/3/3 2/2/2 1/1/1
f 1/1/1 2/2/2 4/4/4
f 7/7/7 6/6/6 5/5/5
f 6/6/6 7/7/7 8/8/8
f 5/5/5 10/10/10 9/9/9
f 9/9/9 11/11/11 5/5/5
f 14/14/14 13/13/13 12/12/12
f 13/13/13 15/15/15 12/12/12
f 18/18/18 17/17/17 16/16/16
f 19/19/19 17/17/17 18/18/18
f 22/22/22 21/21/21 20/20/20
f 22/22/22 23/23/23 21/21/21
f 26/26/26 25/25/25 24/24/24
f 24/24/24 27/27/27 26/26/26
f 30/30/30 29/29/29 28/28/28
f 31/31/31 28/28/28 29/29/29
f 34/34/34 33/33/33 32/32/32
f 33/33/33 35/35/35 32/32/32
f 38/38/38 37/37/37 36/36/36
f 38/38/38 39/39/39 37/37/37
f 42/42/42 41/41/41 40/40/40
f 40/40/40 43/43/43 42/42/42
f 46/46/46 45/45/45 44/44/44
f 45/45/45 47/47/47 44/44/44
f 50/50/50 49/49/49 48/48/48
f 48/48/48 51/51/51 50/50/50
f 52/52/52 50/50/50 51/51/51
f 53/53/53 52/52/52 51/51/51
f 56/56/56 55/55/55 54/54/54
f 57/57/57 55/55/55 56/56/56
f 60/60/60 59/59/59 58/58/58
f 58/58/58 61/61/61 60/60/60
f 64/64/64 63/63/63 62/62/62
f 64/64/64 65/65/65 63/63/63
f 68/68/68 67/67/67 66/66/66
f 66/66/66 69/69/69 68/68/68
f 72/72/72 71/71/71 70/70/70
f 73/73/73 70/70/70 71/71/71
f 76/76/76 75/75/75 74/74/74
f 74/74/74 77/77/77 76/76/76
f 80/80/80 79/79/79 78/78/78
f 78/78/78 81/81/81 80/80/80
f 84/84/84 83/83/83 82/82/82
f 82/82/82 85/85/85 84/84/84
f 88/88/88 87/87/87 86/86/86
f 87/87/87 88/88/88 89/89/89
f 92/92/92 91/91/91 90/90/90
f 91/91/91 93/93/93 90/90/90
f 94/94/94 91/91/91 92/92/92
f 95/95/95 94/94/94 92/92/92
f 98/98/98 97/97/97 96/96/96
f 96/96/96 99/99/99 98/98/98
f 102/102/102 101/101/101 100/100/100
f 101/101/101 103/103/103 100/100/100
f 100/100/100 103/103/103 104/104/104
f 107/107/107 106/106/106 105/105/105
f 106/106/106 107/107/107 108/108/108
f 111/111/111 110/110/110 109/109/109
f 110/110/110 111/111/111 112/112/112
f 115/115/115 114/114/114 113/113/113
f 114/114/114 116/116/116 113/113/113
f 119/119/119 118/118/118 117/117/117
f 120/120/120 119/119/119 117/117/117
f 123/123/123 122/122/122 121/121/121
f 124/124/124 123/123/123 121/121/121
f 125/125/125 124/124/124 121/121/121
f 128/128/128 127/127/127 126/126/126
f 131/131/131 130/130/130 129/129/129
f 134/134/134 133/133/133 132/132/132
f 135/135/135 133/133/133 134/134/134
f 134/134/134 136/136/136 135/135/135
f 134/134/134 132/132/132 137/137/137
f 138/138/138 137/137/137 132/132/132
f 138/138/138 132/132/132 139/139/139
f 142/142/142 141/141/141 140/140/140
f 140/140/140 143/143/143 142/142/142
f 146/146/146 145/145/145 144/144/144
f 144/144/144 147/147/147 146/146/146
f 148/148/148 145/145/145 146/146/146
f 149/149/149 145/145/145 148/148/148
f 147/147/147 144/144/144 150/150/150
f 150/150/150 151/151/151 147/147/147
f 154/154/154 153/153/153 152/152/152
f 152/152/152 155/155/155 154/154/154
f 156/156/156 154/154/154 155/155/155
f 155/155/155 157/157/157 156/156/156
f 156/156/156 157/157/157 158/158/158
f 158/158/158 157/157/157 159/159/159
f 160/160/160 158/158/158 159/159/159
f 161/161/161 160/160/160 159/159/159
f 162/162/162 160/160/160 161/161/161
f 163/163/163 162/162/162 161/161/161
f 164/164/164 162/162/162 163/163/163
f 163/163/163 165/165/165 164/164/164
f 164/164/164 165/165/165 166/166/166
f 166/166/166 167/167/167 164/164/164
f 170/170/170 169/169/169 168/168/168
f 169/169/169 171/171/171 168/168/168
f 168/168/168 172/172/172 170/170/170
f 172/172/172 168/168/168 173/173/173
f 170/170/170 172/172/172 174/174/174
f 177/177/177 176/176/176 175/175/175
f 175/175/175 178/178/178 177/177/177
f 175/175/175 176/176/176 179/179/179
f 176/176/176 180/180/180 179/179/179
f 181/181/181 177/177/177 178/178/178
f 178/178/178 182/182/182 181/181/181
f 185/185/185 184/184/184 183/183/183
f 183/183/183 186/186/186 185/185/185
f 186/186/186 183/183/183 187/187/187
f 187/187/187 188/188/188 186/186/186
f 188/188/188 187/187/187 189/189/189
f 190/190/190 188/188/188 189/189/189
f 190/190/190 189/189/189 191/191/191
f 191/191/191 192/192/192 190/190/190
f 192/192/192 191/191/191 193/193/193
f 193/193/193 194/194/194 192/192/192
f 194/194/194 193/193/193 195/195/195
f 195/195/195 196/196/196 194/194/194
f 197/197/197 196/196/196 195/195/195
f 195/195/195 198/198/198 197/197/197
f 201/201/201 200/200/200 199/199/199
f 201/201/201 202/202/202 200/200/200
f 203/203/203 201/201/201 199/199/199
f 203/203/203 204/204/204 201/201/201
f 205/205/205 203/203/203 199/199/199
f 208/208/208 207/207/207 206/206/206
f 209/209/209 206/206/206 207/207/207
f 212/212/212 211/211/211 210/210/210
f 212/212/212 210/210/210 213/213/213
f 214/214/214 213/213/213 210/210/210
f 210/210/210 215/215/215 214/214/214
f 210/210/210 211/211/211 215/215/215
f 216/216/216 214/214/214 215/215/215
f 217/217/217 215/215/215 211/211/211
f 220/220/220 219/219/219 218/218/218
f 219/219/219 221/221/221 218/218/218
f 221/221/221 222/222/222 218/218/218
f 223/223/223 218/218/218 222/222/222
f 219/219/219 220/220/220 224/224/224
f 219/219/219 224/224/224 225/225/225
f 224/224/224 226/226/226 225/225/225
f 227/227/227 225/225/225 226/226/226
f 227/227/227 228/228/228 225/225/225
f 229/229/229 225/225/225 228/228/228
f 232/232/232 231/231/231 230/230/230
f 233/233/233 230/230/230 231/231/231
f 233/233/233 231/231/231 234/234/234
f 235/235/235 234/234/234 231/231/231
f 238/238/238 237/237/237 236/236/236
f 237/237/237 239/239/239 236/236/236
f 237/237/237 238/238/238 240/240/240
f 237/237/237 240/240/240 241/241/241
f 241/241/241 240/240/240 242/242/242
f 243/243/243 242/242/242 240/240/240
f 242/242/242 243/243/243 244/244/244
f 244/244/244 245/245/245 242/242/242
f 245/245/245 241/241/241 242/242/242
f 248/248/248 247/247/247 246/246/246
f 251/251/251 250/250/250 249/249/249
f 252/252/252 249/249/249 250/250/250
f 255/255/255 254/254/254 253/253/253
f 256/256/256 253/253/253 254/254/254
f 254/254/254 257/257/257 256/256/256
f 257/257/257 258/258/258 256/256/256
f 259/259/259 256/256/256 258/258/258
f 253/253/253 256/256/256 260/260/260
f 259/259/259 260/260/260 256/256/256
f 263/263/263 262/262/262 261/261/261
f 264/264/264 263/263/263 261/261/261
f 264/264/264 261/261/261 265/265/265
f 266/266/266 265/265/265 261/261/261
f 262/262/262 263/263/263 267/267/267
f 267/267/267 263/263/263 268/268/268
f 267/267/267 268/268/268 269/269/269
f 270/270/270 269/269/269 268/268/268
f 271/271/271 266/266/266 261/261/261
f 267/267/267 272/272/272 262/262/262
f 267/267/267 269/269/269 272/272/272
f 273/273/273 271/271/271 261/261/261
f 262/262/262 273/273/273 261/261/261
f 272/272/272 273/273/273 262/262/262
f 276/276/276 275/275/275 274/274/274
f 277/277/277 274/274/274 275/275/275
f 277/277/277 278/278/278 274/274/274
f 279/279/279 274/274/274 278/278/278
f 282/282/282 281/281/281 280/280/280
f 283/283/283 282/282/282 280/280/280
f 284/284/284 281/281/281 282/282/282
f 284/284/284 282/282/282 285/285/285
f 285/285/285 286/286/286 284/284/284
f 287/287/287 284/284/284 286/286/286
f 287/287/287 286/286/286 288/288/288
f 289/289/289 288/288/288 286/286/286
f 285/285/285 289/289/289 286/286/286
