g mx_qingJieChe1_houlun-L
v 0.3849054 0.1528568 -0.3648225
v 0.2953979 -0.1015258 -0.6075021
v 0.3849054 -0.0704143 -0.3961601
v 0.2953979 0.2409448 -0.559435
v 0.2953979 0.5030631 -0.3338465
v 0.3849054 0.3237433 -0.2177522
v 0.3849043 0.3879884 -0.001636267
v 0.2953979 0.6016085 -0.002353489
v 0.2953968 0.5052912 0.3297895
v 0.3849054 0.3251952 0.2149015
v 0.2953956 0.2446933 0.5571381
v 0.3849054 0.1553005 0.3631189
v 0.3849043 -0.2751853 -0.3018149
v 0.2953979 -0.4156172 -0.4627886
v 0.2953956 -0.09744835 0.6075007
v 0.3849031 -0.06775618 0.3959535
v 0.3849054 -0.2731563 0.3029826
v 0.2953956 -0.4125049 0.4648972
v 0.2953979 -0.600449 0.1745955
v 0.3797329 -0.3974161 0.1143549
v 0.2953979 -0.60161 -0.1712309
v 0.3874894 -0.3966409 -0.1119717
v 0.2953979 0.2409448 -0.559435
v -0.3874844 0.5030631 -0.3338442
v -0.3874844 0.2409448 -0.559435
v 0.2953979 0.5030631 -0.3338465
v 0.2953979 0.6016085 -0.002353489
v -0.3874856 0.6016085 -0.002353489
v 0.2953968 0.5052912 0.3297895
v -0.3874856 0.5052912 0.3297942
v 0.2953956 0.2446933 0.5571381
v -0.3874879 0.2446933 0.5571369
v 0.2953956 -0.09744835 0.6075007
v -0.3874868 -0.09744835 0.6074983
v -0.3874844 -0.1015258 -0.6075021
v 0.2953979 -0.1015258 -0.6075021
v -0.3874856 -0.4156184 -0.4627863
v 0.2953979 -0.4156172 -0.4627886
v -0.3874868 -0.4125049 0.4648949
v 0.2953956 -0.4125049 0.4648972
v 0.2953979 -0.600449 0.1745955
v -0.3874856 -0.6004513 0.1745978
v -0.3874856 -0.60161 -0.1712309
v 0.2953979 -0.60161 -0.1712309
v 0.2953979 -0.4156172 -0.4627886
v -0.3874856 -0.4156184 -0.4627863
v 0.1937112 -0.01296389 6.79493E-06
v 0.3849054 0.3237433 -0.2177522
v 0.3849054 0.1528568 -0.3648225
v 0.3849043 0.3879884 -0.001636267
v 0.3849054 0.3251952 0.2149015
v 0.3849054 0.1553005 0.3631189
v 0.3849031 -0.06775618 0.3959535
v 0.3849054 -0.2731563 0.3029826
v 0.3797329 -0.3974161 0.1143549
v 0.3874894 -0.3966409 -0.1119717
v 0.3849043 -0.2751853 -0.3018149
v 0.3849054 -0.0704143 -0.3961601
v -0.3874844 -0.1015258 -0.6075021
v -0.3874844 0.2409448 -0.559435
v -0.3874856 -0.60161 -0.1712309
v -0.3874844 0.5030631 -0.3338442
v -0.3874856 0.6016085 -0.002353489
v -0.3874856 0.5052912 0.3297942
v -0.3874879 0.2446933 0.5571369
v -0.3874868 -0.09744835 0.6074983
v -0.3874868 -0.4125049 0.4648949
v -0.3874856 -0.6004513 0.1745978
v -0.3874856 -0.4156184 -0.4627863
vt 0.6299841 0.731825
vt 0.6518885 0.7020464
vt 0.6299841 0.7083678
vt 0.6518885 0.7384129
vt 0.6322443 0.7690001
vt 0.6173045 0.7515702
vt 0.5959697 0.7613096
vt 0.599158 0.7841145
vt 0.5631774 0.7789324
vt 0.5727514 0.7579651
vt 0.5356958 0.7551168
vt 0.5550184 0.7426118
vt 0.6173045 0.688641
vt 0.6322443 0.6714684
vt 0.5254511 0.7202388
vt 0.5484121 0.7201102
vt 0.5550184 0.6975901
vt 0.5356958 0.6853424
vt 0.5631774 0.661536
vt 0.5726503 0.6820714
vt 0.599158 0.6563631
vt 0.5959789 0.6788648
vt 0.8167139 0.9009411
vt 0.7686968 0.987144
vt 0.8166771 0.987144
vt 0.7687153 0.9009411
vt 0.7207258 0.9009411
vt 0.7206982 0.987144
vt 0.6727271 0.9009411
vt 0.6727087 0.987144
vt 0.6247285 0.9009411
vt 0.6247469 0.9875207
vt 0.5767574 0.9009411
vt 0.576785 0.9875207
vt 0.8646849 0.987144
vt 0.8647033 0.9009411
vt 0.9126652 0.987144
vt 0.9126928 0.9009411
vt 0.5287679 0.9875207
vt 0.5287588 0.9009411
vt 0.4807601 0.9009411
vt 0.4807877 0.9875207
vt 0.4327891 0.9875207
vt 0.4327707 0.9009411
vt 0.3853785 0.9009411
vt 0.3853785 0.987144
vt 0.5900434 0.7198805
vt 0.6173045 0.7515702
vt 0.6299841 0.731825
vt 0.5959697 0.7613096
vt 0.5727514 0.7579651
vt 0.5550184 0.7426118
vt 0.5484121 0.7201102
vt 0.5550184 0.6975901
vt 0.5726503 0.6820714
vt 0.5959789 0.6788648
vt 0.6173045 0.688641
vt 0.6299841 0.7083678
vt 0.5254511 0.7202388
vt 0.5356958 0.7551168
vt 0.5631866 0.661536
vt 0.5631774 0.7789324
vt 0.599158 0.7841145
vt 0.6322443 0.7690001
vt 0.6518885 0.7384129
vt 0.6519161 0.7020464
vt 0.6322443 0.6714684
vt 0.599158 0.6563631
vt 0.5356958 0.6853424
vn 0.9372478 0.1529399 -0.3133306
vn 0.5215647 -0.1372539 -0.8420995
vn 0.9372478 -0.06666619 -0.3422313
vn 0.5215647 0.3490169 -0.7785612
vn 0.5215647 0.7176415 -0.461477
vn 0.9372478 0.3176446 -0.1437657
vn 0.9282063 0.3720657 0
vn 0.5215647 0.8509738 -0.061756
vn 0.5215647 0.7176415 0.461477
vn 0.9372478 0.3254876 0.1249979
vn 0.5215647 0.3568599 0.7749976
vn 0.9372478 0.1607831 0.3093792
vn 0.9372478 -0.2627431 -0.2292002
vn 0.5215647 -0.5764662 -0.6290128
vn 0.5215647 -0.1294108 0.8433405
vn 0.9372478 -0.06666619 0.3422313
vn 0.9372478 -0.2627431 0.2292002
vn 0.5215647 -0.5686231 0.6361117
vn 0.5294077 -0.8352877 0.1483975
vn 0.9292789 -0.3693787 0
vn 0.5215647 -0.8352877 -0.1739675
vn 0.922731 -0.3854446 0
vn 0.5215647 0.3490169 -0.7785612
vn 0.003921568 0.8352877 -0.5497991
vn 0.003921568 0.4117615 -0.9112832
vn 0.5215647 0.7176415 -0.461477
vn 0.5215647 0.8509738 -0.061756
vn 0.003921568 0.9921492 -0.1249981
vn 0.5215647 0.7176415 0.461477
vn 0.003921568 0.8352877 0.5497991
vn 0.5215647 0.3568599 0.7749976
vn 0.003921568 0.4117615 0.9112832
vn 0.5215647 -0.1294108 0.8433405
vn 0.003921568 -0.15294 0.9882277
vn 0.003921568 -0.1607831 -0.986982
vn 0.5215647 -0.1372539 -0.8420995
vn 0.003921568 -0.6705831 -0.741824
vn 0.5215647 -0.5764662 -0.6290128
vn 0.003921568 -0.6627401 0.7488393
vn 0.5215647 -0.5686231 0.6361117
vn 0.5294077 -0.8352877 0.1483975
vn 0.003921568 -0.9686201 0.2485151
vn 0.003921568 -0.9686201 -0.2485151
vn 0.5215647 -0.8352877 -0.1739675
vn 0.5215647 -0.5764662 -0.6290128
vn 0.003921568 -0.6705831 -0.741824
vn 0.9999924 -0.003921568 0
vn 0.9137185 -0.3725462 0.1622584
vn 0.9137185 -0.1921554 0.358043
vn 0.9013403 -0.4331116 0
vn 0.9137185 -0.3725462 -0.1622584
vn 0.9137185 -0.1921554 -0.358043
vn 0.9137185 0.05882299 -0.4020675
vn 0.9137185 0.2705861 -0.3031528
vn 0.9158888 0.401432 0
vn 0.9117018 0.4108527 0
vn 0.9137185 0.2862723 0.2883863
vn 0.9137185 0.05882299 0.4020675
vn -0.9999923 -0.003921568 -0.0003442513
vn -0.9999923 -0.003921568 -0.0003442513
vn -0.9999923 -0.003921568 -0.0003442513
vn -0.9999923 -0.003921568 -0.0003442513
vn -0.9999923 -0.003921568 -0.0003442513
vn -0.9999923 -0.003921568 -0.0003442513
vn -0.9999923 -0.003921568 -0.0003442513
vn -0.9999923 -0.003921568 -0.0003442513
vn -0.9999923 -0.003921568 -0.0003442513
vn -0.9999923 -0.003921568 -0.0003442513
vn -0.9999923 -0.003921568 -0.0003442513
g mx_qingJieChe1_houlun-L_0
f 3/3/3 2/2/2 1/1/1
f 4/4/4 1/1/1 2/2/2
f 4/4/4 5/5/5 1/1/1
f 6/6/6 1/1/1 5/5/5
f 6/6/6 5/5/5 7/7/7
f 8/8/8 7/7/7 5/5/5
f 8/8/8 9/9/9 7/7/7
f 10/10/10 7/7/7 9/9/9
f 9/9/9 11/11/11 10/10/10
f 12/12/12 10/10/10 11/11/11
f 3/3/3 13/13/13 2/2/2
f 14/14/14 2/2/2 13/13/13
f 11/11/11 15/15/15 12/12/12
f 16/16/16 12/12/12 15/15/15
f 16/16/16 15/15/15 17/17/17
f 18/18/18 17/17/17 15/15/15
f 18/18/18 19/19/19 17/17/17
f 20/20/20 17/17/17 19/19/19
f 19/19/19 21/21/21 20/20/20
f 22/22/22 20/20/20 21/21/21
f 21/21/21 14/14/14 22/22/22
f 13/13/13 22/22/22 14/14/14
f 25/25/25 24/24/24 23/23/23
f 26/26/26 23/23/23 24/24/24
f 26/26/26 24/24/24 27/27/27
f 28/28/28 27/27/27 24/24/24
f 27/27/27 28/28/28 29/29/29
f 30/30/30 29/29/29 28/28/28
f 29/29/29 30/30/30 31/31/31
f 32/32/32 31/31/31 30/30/30
f 31/31/31 32/32/32 33/33/33
f 34/34/34 33/33/33 32/32/32
f 25/25/25 23/23/23 35/35/35
f 36/36/36 35/35/35 23/23/23
f 35/35/35 36/36/36 37/37/37
f 38/38/38 37/37/37 36/36/36
f 34/34/34 39/39/39 33/33/33
f 40/40/40 33/33/33 39/39/39
f 40/40/40 39/39/39 41/41/41
f 42/42/42 41/41/41 39/39/39
f 42/42/42 43/43/43 41/41/41
f 44/44/44 41/41/41 43/43/43
f 44/44/44 43/43/43 45/45/45
f 46/46/46 45/45/45 43/43/43
f 49/49/49 48/48/48 47/47/47
f 48/48/48 50/50/50 47/47/47
f 50/50/50 51/51/51 47/47/47
f 51/51/51 52/52/52 47/47/47
f 52/52/52 53/53/53 47/47/47
f 53/53/53 54/54/54 47/47/47
f 54/54/54 55/55/55 47/47/47
f 55/55/55 56/56/56 47/47/47
f 56/56/56 57/57/57 47/47/47
f 57/57/57 58/58/58 47/47/47
f 58/58/58 49/49/49 47/47/47
f 61/61/61 60/60/60 59/59/59
f 61/61/61 62/62/62 60/60/60
f 61/61/61 63/63/63 62/62/62
f 61/61/61 64/64/64 63/63/63
f 61/61/61 65/65/65 64/64/64
f 61/61/61 66/66/66 65/65/65
f 61/61/61 67/67/67 66/66/66
f 61/61/61 68/68/68 67/67/67
f 61/61/61 59/59/59 69/69/69
