g mx_xiaoFangChe1_chemen-L
v -0.06508505 1.082223 -1.073694
v -0.06507123 0.6089319 -0.1284186
v -0.06508505 1.082197 -0.1284416
v -0.06507123 0.6247048 -1.073694
v -0.06503451 0.1794806 -0.7797869
v -0.06503451 0.1794828 -0.1283634
v 1.430511E-06 0.003062129 -1.034939
v 1.430511E-06 8.821487E-05 -0.7824253
v -4.446507E-05 0.515115 -1.196784
v -1.91927E-05 0.5899898 -1.112606
v -8.34465E-07 0.1052953 -0.7870815
v 1.430511E-06 -1.430511E-06 -1.430511E-06
v -8.34465E-07 0.1052976 -0.07490146
v 6.079674E-06 0.6089756 -0.009171486
v -1.91927E-05 0.6090238 -0.07496119
v -2.837181E-05 1.122256 -1.112604
v -4.684925E-05 1.086713 -1.197524
v -4.684925E-05 1.211189 -1.196793
v -2.837181E-05 1.122214 -0.07498658
v -2.837181E-05 1.199344 -0.01449656
v -0.06508505 1.082197 -0.1284416
v -0.06507123 0.6089319 -0.1284186
v -0.06503451 0.1794806 -0.7797869
v -0.06503451 0.1794828 -0.1283634
v -0.06507123 0.6247048 -1.073694
v -0.06508505 1.082223 -1.073694
v -0.06507123 0.6247048 -1.073694
v -0.009005427 -0.4303262 0.0001019239
v -0.009005427 -0.4303262 -0.7464898
v 1.430511E-06 0.0003294945 -1.194874
v -0.07252443 0.003062129 -1.034939
v -0.07252443 0.0003294945 -1.194874
v -0.07254291 0.515115 -1.194874
v -0.07252443 8.821487E-05 -0.7824253
v -0.1375972 0.6247048 -1.073694
v -0.1375628 0.1794806 -0.7797869
v -0.1375628 0.1794828 -0.1283634
v -0.07252443 -1.430511E-06 -1.430511E-06
v -0.137611 1.082223 -1.073694
v -0.08153129 -0.4303262 0.0001019239
v -0.08153129 -0.4303262 -0.7464898
v -0.07254517 0.6089963 -0.009706974
v -0.1375972 0.6092767 -0.1284208
v -0.137611 1.082197 -0.1284416
v -0.07255435 1.199344 -0.01449656
v -0.07257271 1.211189 -1.198701
v -0.137611 1.082223 -1.073694
v -0.07257271 1.211189 -1.198701
v -4.684925E-05 1.086713 -1.197524
v -4.684925E-05 1.211189 -1.196793
v -4.446507E-05 0.515115 -1.196784
v -0.07254291 0.515115 -1.194874
v 1.430511E-06 0.0003294945 -1.194874
v -0.07252443 0.0003294945 -1.194874
v 1.430511E-06 0.003062129 -1.034939
v -0.07252443 0.003062129 -1.034939
v -0.009005427 -0.4303262 -0.7464898
v -0.08153129 -0.4303262 -0.7464898
v -0.009005427 -0.4303262 0.0001019239
v -0.08153129 -0.4303262 0.0001019239
v -0.07254517 0.6089963 -0.009706974
v -2.837181E-05 1.199344 -0.01449656
v 6.079674E-06 0.6089756 -0.009171486
v -0.07255435 1.199344 -0.01449656
v -4.684925E-05 1.211189 -1.196793
v -0.07257271 1.211189 -1.198701
v -0.07252443 -1.430511E-06 -1.430511E-06
v 1.430511E-06 -1.430511E-06 -1.430511E-06
v -0.009005427 -0.4303262 0.0001019239
v -0.08153129 -0.4303262 0.0001019239
v -0.1375628 0.1794828 -0.1283634
v -0.1375972 0.6247048 -1.073694
v -0.1375972 0.6092767 -0.1284208
v -0.1375628 0.1794806 -0.7797869
v -0.137611 1.082197 -0.1284416
v -0.137611 1.082223 -1.073694
v 0.06476855 0.8145405 -0.03519464
v 0.2163199 0.3934799 -0.1017244
v 0.06469727 0.3977662 -0.03516471
v 0.2163199 0.8189622 -0.1017244
v 0.2606761 0.4438049 -0.2096342
v 0.2606761 0.7687179 -0.2096342
v 0.2244211 0.832538 -0.1950495
v 0.2244211 0.832538 -0.1950495
v 0.0487566 0.8295525 -0.1247575
v 0.2244211 0.379987 -0.1950495
v 0.1333759 0.3638463 -0.1585693
v 0.0487566 0.3829724 -0.1247575
v 0.2244211 0.379987 -0.1950495
v 0.0487566 0.8295525 -0.1247575
v 0.06469727 0.3977662 -0.03516471
v 0.0487566 0.3829724 -0.1247575
v 0.06476855 0.8145405 -0.03519464
v 0.0487566 0.3829724 -0.1247575
v 0.1333759 0.3638463 -0.1585693
v 0.0487566 0.8295525 -0.1247575
v 0.2244211 0.832538 -0.1950495
v 0.2606761 0.7687179 -0.2096342
v 0.2606761 0.4438049 -0.2096342
v 0.2244211 0.379987 -0.1950495
v 0.100504 0.8131269 -0.1303307
v 0.09359777 0.8489407 -0.07153451
v 0.09570062 0.8514022 -0.126665
v 0.09780133 0.8133293 -0.06916499
v -0.05398905 0.8651847 -0.002518058
v 0.09780133 0.8133293 -0.06916499
v -0.05398905 0.8685516 -0.06250012
v -0.05398905 0.8214167 -0.06250012
v 0.100504 0.8131269 -0.1303307
v 0.09570062 0.8514022 -0.126665
v -0.05398905 0.8685516 -0.06250012
v 0.09780133 0.8133293 -0.06916499
v -0.05398905 0.8247837 -0.002518058
v 0.09780133 0.8133293 -0.06916499
v -0.05398905 0.8214167 -0.06250012
v 0.09780133 0.8133293 -0.06916499
v 0.100504 0.8131269 -0.1303307
v 0.1132202 0.3652712 -0.1184579
v 0.1188395 0.4068627 -0.06914902
v 0.1189061 0.4068627 -0.1275222
v 0.1131743 0.3652712 -0.07412004
v -0.03119278 0.2979279 -0.08644795
v -0.03119278 0.297967 -0.01627767
v -0.04130733 0.341567 -0.005983829
v 0.1188395 0.4068627 -0.06914902
v -0.04130733 0.3412361 -0.0893023
v 0.1132202 0.3652712 -0.1184579
v 0.1189061 0.4068627 -0.1275222
v -0.03119278 0.2979279 -0.08644795
v -0.04130733 0.341567 -0.005983829
v 0.1189061 0.4068627 -0.1275222
v 0.1188395 0.4068627 -0.06914902
v -0.04130733 0.3412361 -0.0893023
vt 0.3658282 0.3671213
vt 0.5195439 0.3910426
vt 0.5195439 0.3671213
vt 0.3658282 0.3889659
vt 0.4015927 0.4475644
vt 0.5195636 0.4475644
vt 0.3624683 0.4777746
vt 0.3989772 0.4774318
vt 0.3391739 0.403405
vt 0.3511052 0.3927373
vt 0.3979291 0.4627871
vt 0.5429951 0.4773535
vt 0.5325822 0.4624442
vt 0.5429657 0.3890737
vt 0.5325528 0.3897104
vt 0.350968 0.3576683
vt 0.3394678 0.3633695
vt 0.339791 0.3455607
vt 0.5325528 0.3576977
vt 0.5429657 0.3456489
vt 0.5237757 0.3647703
vt 0.5237561 0.3903373
vt 0.3969397 0.4502386
vt 0.5237855 0.4507774
vt 0.3595002 0.3868206
vt 0.3580504 0.3646038
vt 0.3595002 0.3868206
vt 0.5429363 0.5361086
vt 0.4042278 0.5360107
vt 0.3395363 0.4773142
vt 0.3624683 0.4777746
vt 0.3395363 0.4773142
vt 0.3394384 0.403405
vt 0.3989772 0.4774318
vt 0.3595002 0.3868206
vt 0.3969397 0.4502386
vt 0.5237855 0.4507774
vt 0.5429951 0.4773535
vt 0.3580504 0.3646038
vt 0.5429363 0.5361086
vt 0.4042278 0.5360107
vt 0.5429657 0.3889855
vt 0.5238051 0.3902786
vt 0.5237757 0.3647703
vt 0.5429657 0.3456489
vt 0.3394971 0.3455803
vt 0.3580504 0.3646038
vt 0.4994528 0.8350372
vt 0.4878545 0.8252611
vt 0.4878545 0.8348904
vt 0.4878349 0.8032597
vt 0.4994528 0.8032597
vt 0.4878349 0.7635671
vt 0.4994528 0.7635671
vt 0.4878349 0.7400768
vt 0.4994528 0.7400768
vt 0.4892847 0.6639047
vt 0.5008928 0.6639047
vt 0.4892847 0.5532905
vt 0.5008928 0.5532905
vt 0.4994528 0.634909
vt 0.4878545 0.6586639
vt 0.4878349 0.6348601
vt 0.4994528 0.6586639
vt 0.4878545 0.8348904
vt 0.4994528 0.8350372
vt 0.4994528 0.5864983
vt 0.4878349 0.5864983
vt 0.4892847 0.5532905
vt 0.5008928 0.5532905
vt 0.5195636 0.4475644
vt 0.3658282 0.3889659
vt 0.5195636 0.3909839
vt 0.4015927 0.4475644
vt 0.5195439 0.3671213
vt 0.3658282 0.3671213
vt 0.5325234 0.6320193
vt 0.5629981 0.5630765
vt 0.5334344 0.56339
vt 0.5620577 0.6331556
vt 0.5824036 0.5716282
vt 0.5816885 0.6251427
vt 0.577202 0.6369466
vt 0.5686503 0.6473007
vt 0.5347862 0.6470951
vt 0.5782404 0.5597165
vt 0.5524774 0.5480301
vt 0.5358833 0.5483632
vt 0.5701981 0.5492448
vt 0.5174673 0.6342919
vt 0.5334344 0.56339
vt 0.518437 0.5607647
vt 0.5325234 0.6320193
vt 0.7945316 0.8095682
vt 0.7838542 0.8074915
vt 0.7945316 0.8576753
vt 0.7723833 0.8579888
vt 0.7677989 0.8511121
vt 0.7677989 0.8161118
vt 0.7723833 0.8092351
vt 0.9415274 0.3737139
vt 0.9560448 0.3838525
vt 0.9415274 0.3838525
vt 0.9560448 0.3737139
vt 0.9560448 0.429785
vt 0.9656545 0.3838525
vt 0.9415274 0.429785
vt 0.9296157 0.429785
vt 0.9296157 0.3838525
vt 0.9415274 0.3838525
vt 0.9415274 0.429785
vt 0.9656545 0.3838525
vt 0.9656545 0.429785
vt 0.9656545 0.3838525
vt 0.977478 0.429785
vt 0.9656545 0.3838525
vt 0.977478 0.3838525
vt 0.9811416 0.4429114
vt 0.9644397 0.4356723
vt 0.9811416 0.4356723
vt 0.9644397 0.4429114
vt 0.9811416 0.4919394
vt 0.9644397 0.4919394
vt 0.951911 0.4919394
vt 0.9515779 0.4429114
vt 0.9372565 0.4919394
vt 0.9251096 0.4429114
vt 0.937423 0.4429114
vt 0.9251096 0.4919394
vt 0.951911 0.4919394
vt 0.937423 0.4429114
vt 0.9515779 0.4429114
vt 0.9372565 0.4919394
vn 0.8431308 -0.4039185 0.3549369
vn 0.9137185 -0.01176465 -0.4061774
vn 0.8666601 -0.4117616 -0.2816962
vn 0.8666601 0.1215676 0.4838612
vn 0.8901893 0.3803892 0.2507331
vn 0.9137185 0.262743 -0.3099751
vn 0.9999309 -0.01176392 0
vn 0.9999309 -0.01176392 0
vn 0.9999924 -0.003921568 0
vn 0.9372478 0.1215676 0.3267843
vn 0.9730572 0.2305637 0
vn 0.9999309 -0.01176392 0
vn 0.9935954 0.1129971 0
vn 0.9999924 -0.003921568 0
vn 0.9137185 -0.01176465 -0.4061774
vn 0.9843062 -0.1686262 0.05202392
vn 0.9999924 -0.003921568 0
vn 0.9999924 -0.003921568 0
vn 0.9894748 -0.1447058 0
vn 0.9999924 -0.003921568 0
vn 0.8666601 -0.4117616 -0.2816962
vn 0.9137185 -0.01176465 -0.4061774
vn 0.8901893 0.3803892 0.2507331
vn 0.9137185 0.262743 -0.3099751
vn 0.8666601 0.1215676 0.4838612
vn 0.8431308 -0.4039185 0.3549369
vn 0.8666601 0.1215676 0.4838612
vn 0.9996234 -0.02744067 0
vn 0.9996234 -0.02744067 0
vn 0.9999924 -0.003921568 0
vn -0.9921492 0.003921509 0.1249981
vn -0.9999923 -0.003921568 -0.0003442513
vn -0.9450908 -0.1294108 -0.3000938
vn -0.9921492 -0.1215677 -0.02934603
vn -0.9607769 -0.06666619 -0.2691901
vn -0.9529338 -0.2235277 -0.2048233
vn -0.9686199 -0.1294108 0.2121986
vn -0.9843061 -0.1058816 0.1411758
vn -0.9607769 0.1686261 -0.2201657
vn -0.9921492 0.01960766 0.1235129
vn -0.9921492 0.01960766 0.1235129
vn -0.874503 -0.01176465 0.4848773
vn -0.9686199 -0.01176465 0.248268
vn -0.9607769 0.1843122 0.2072117
vn -0.9215615 0.2549 0.2928317
vn -0.9372476 0.2392138 -0.2536605
vn -0.9607769 0.1686261 -0.2201657
vn 0.0274508 0.7019553 -0.7116918
vn 0.0274508 -0.01176465 -0.9995539
vn 0.0274508 0.7176415 -0.6958715
vn -0.01960766 -0.01960772 -0.9996155
vn -0.01960766 -0.01960772 -0.9996155
vn 0.01176465 -0.7254847 -0.6881378
vn 0.01176465 -0.7254847 -0.6881378
vn 0.01176465 -0.8980324 -0.4397721
vn 0.01176465 -0.8980324 -0.4397721
vn 0.01176465 -0.8901893 -0.4554389
vn 0.01176465 -0.8980324 -0.4397721
vn 0.01176465 -0.7176416 0.6963133
vn 0.01176465 -0.7254847 0.6881378
vn -0.003921509 0.01176453 0.9999231
vn 0.01176465 0.7019553 0.7121239
vn -0.003921509 0.01176453 0.9999231
vn 0.01176465 0.7019553 0.7121239
vn 0.0274508 0.7176415 -0.6958715
vn 0.0274508 0.7019553 -0.7116918
vn 0.01176465 0.003921509 0.9999231
vn 0.01176465 0.003921509 0.9999231
vn 0.01176465 -0.7176416 0.6963133
vn 0.01176465 -0.7254847 0.6881378
vn -0.9686199 -0.1294108 0.2121986
vn -0.9607769 -0.06666619 -0.2691901
vn -0.9686199 -0.01176465 0.248268
vn -0.9529338 -0.2235277 -0.2048233
vn -0.9607769 0.1843122 0.2072117
vn -0.9607769 0.1686261 -0.2201657
vn -0.3882322 0.5058784 0.7703004
vn 0.6235247 -0.5450939 0.560437
vn -0.3960754 -0.4901924 0.7764249
vn 0.5921524 0.5843092 0.5549219
vn 0.7176416 -0.1843123 -0.6715798
vn 0.7176416 0.1686261 -0.6756891
vn 0.3019585 0.7333276 -0.60914
vn 0.3019585 0.7333276 -0.60914
vn -0.6862692 0.6313677 -0.3611225
vn 0.3411739 -0.7097985 -0.6162682
vn -0.2078415 -0.8352877 -0.509015
vn -0.7411708 -0.5764662 -0.3440242
vn 0.3411739 -0.7097985 -0.6162682
vn -0.6862692 0.6313677 -0.3611225
vn -0.3960754 -0.4901924 0.7764249
vn -0.7411708 -0.5764662 -0.3440242
vn -0.3882322 0.5058784 0.7703004
vn -0.7411708 -0.5764662 -0.3440242
vn -0.2078415 -0.8352877 -0.509015
vn -0.6862692 0.6313677 -0.3611225
vn 0.3019585 0.7333276 -0.60914
vn 0.7176416 0.1686261 -0.6756891
vn 0.7176416 -0.1843123 -0.6715798
vn 0.3411739 -0.7097985 -0.6162682
vn 0.5058785 -0.5294077 -0.6810392
vn 0.6784262 0.5999954 0.4239616
vn 0.45882 0.5921522 -0.6624499
vn 0.6862693 -0.5921524 0.4223625
vn 0.3960754 0.5843092 0.7083128
vn 0.6862693 -0.5921524 0.4223625
vn -0.1294107 0.8352877 -0.5343663
vn -0.2862723 -0.7882293 -0.544741
vn 0.5058785 -0.5294077 -0.6810392
vn 0.45882 0.5921522 -0.6624499
vn -0.1294107 0.8352877 -0.5343663
vn 0.6862693 -0.5921524 0.4223625
vn 0.3098016 -0.5764662 0.7561149
vn 0.6862693 -0.5921524 0.4223625
vn -0.2862723 -0.7882293 -0.544741
vn 0.6862693 -0.5921524 0.4223625
vn 0.5058785 -0.5294077 -0.6810392
vn 0.5921524 -0.552937 -0.586188
vn 0.5764662 0.66274 0.4779774
vn 0.4666631 0.5843092 -0.6639339
vn 0.7647001 -0.5294077 0.3673708
vn 0.2392139 -0.7882293 -0.5669844
vn 0.5372508 -0.6078385 0.5847169
vn 0.1372539 0.5215646 0.8420996
vn 0.5764662 0.66274 0.4779774
vn -0.3960754 0.5921522 -0.7017692
vn 0.5921524 -0.552937 -0.586188
vn 0.4666631 0.5843092 -0.6639339
vn 0.2392139 -0.7882293 -0.5669844
vn 0.1372539 0.5215646 0.8420996
vn 0.4666631 0.5843092 -0.6639339
vn 0.5764662 0.66274 0.4779774
vn -0.3960754 0.5921522 -0.7017692
g mx_xiaoFangChe1_chemen-L_0
f 3/3/3 2/2/2 1/1/1
f 4/4/4 1/1/1 2/2/2
f 4/4/4 2/2/2 5/5/5
f 6/6/6 5/5/5 2/2/2
f 9/9/9 8/8/8 7/7/7
f 9/9/9 10/10/10 8/8/8
f 11/11/11 8/8/8 10/10/10
f 8/8/8 11/11/11 12/12/12
f 13/13/13 12/12/12 11/11/11
f 12/12/12 13/13/13 14/14/14
f 15/15/15 14/14/14 13/13/13
f 10/10/10 9/9/9 16/16/16
f 16/16/16 9/9/9 17/17/17
f 18/18/18 16/16/16 17/17/17
f 16/16/16 18/18/18 19/19/19
f 15/15/15 19/19/19 14/14/14
f 20/20/20 19/19/19 18/18/18
f 20/20/20 14/14/14 19/19/19
f 19/19/19 15/15/15 21/21/21
f 19/19/19 21/21/21 16/16/16
f 22/22/22 21/21/21 15/15/15
f 11/11/11 23/23/23 13/13/13
f 24/24/24 13/13/13 23/23/23
f 13/13/13 24/24/24 15/15/15
f 22/22/22 15/15/15 24/24/24
f 10/10/10 25/25/25 11/11/11
f 23/23/23 11/11/11 25/25/25
f 10/10/10 16/16/16 25/25/25
f 26/26/26 16/16/16 21/21/21
f 26/26/26 27/27/27 16/16/16
f 12/12/12 28/28/28 8/8/8
f 29/29/29 8/8/8 28/28/28
f 29/29/29 7/7/7 8/8/8
f 30/30/30 9/9/9 7/7/7
f 33/33/33 32/32/32 31/31/31
f 34/34/34 33/33/33 31/31/31
f 33/33/33 34/34/34 35/35/35
f 36/36/36 35/35/35 34/34/34
f 36/36/36 34/34/34 37/37/37
f 38/38/38 37/37/37 34/34/34
f 35/35/35 39/39/39 33/33/33
f 38/38/38 34/34/34 40/40/40
f 41/41/41 40/40/40 34/34/34
f 31/31/31 41/41/41 34/34/34
f 38/38/38 42/42/42 37/37/37
f 43/43/43 37/37/37 42/42/42
f 43/43/43 42/42/42 44/44/44
f 45/45/45 44/44/44 42/42/42
f 45/45/45 46/46/46 44/44/44
f 46/46/46 33/33/33 47/47/47
f 47/47/47 44/44/44 46/46/46
f 50/50/50 49/49/49 48/48/48
f 49/49/49 51/51/51 48/48/48
f 48/48/48 51/51/51 52/52/52
f 51/51/51 53/53/53 52/52/52
f 54/54/54 52/52/52 53/53/53
f 53/53/53 55/55/55 54/54/54
f 56/56/56 54/54/54 55/55/55
f 55/55/55 57/57/57 56/56/56
f 58/58/58 56/56/56 57/57/57
f 57/57/57 59/59/59 58/58/58
f 60/60/60 58/58/58 59/59/59
f 63/63/63 62/62/62 61/61/61
f 64/64/64 61/61/61 62/62/62
f 62/62/62 65/65/65 64/64/64
f 66/66/66 64/64/64 65/65/65
f 61/61/61 67/67/67 63/63/63
f 68/68/68 63/63/63 67/67/67
f 68/68/68 67/67/67 69/69/69
f 70/70/70 69/69/69 67/67/67
f 73/73/73 72/72/72 71/71/71
f 74/74/74 71/71/71 72/72/72
f 73/73/73 75/75/75 72/72/72
f 76/76/76 72/72/72 75/75/75
f 79/79/79 78/78/78 77/77/77
f 80/80/80 77/77/77 78/78/78
f 78/78/78 81/81/81 80/80/80
f 82/82/82 80/80/80 81/81/81
f 80/80/80 82/82/82 83/83/83
f 80/80/80 84/84/84 77/77/77
f 85/85/85 77/77/77 84/84/84
f 81/81/81 78/78/78 86/86/86
f 78/78/78 79/79/79 87/87/87
f 87/87/87 79/79/79 88/88/88
f 89/89/89 78/78/78 87/87/87
f 92/92/92 91/91/91 90/90/90
f 93/93/93 90/90/90 91/91/91
f 96/96/96 95/95/95 94/94/94
f 97/97/97 95/95/95 96/96/96
f 98/98/98 95/95/95 97/97/97
f 99/99/99 95/95/95 98/98/98
f 100/100/100 95/95/95 99/99/99
f 103/103/103 102/102/102 101/101/101
f 104/104/104 101/101/101 102/102/102
f 102/102/102 103/103/103 105/105/105
f 102/102/102 105/105/105 106/106/106
f 107/107/107 105/105/105 103/103/103
f 109/109/109 108/108/108 103/103/103
f 111/111/111 110/110/110 108/108/108
f 113/113/113 112/112/112 105/105/105
f 113/113/113 115/115/115 114/114/114
f 117/117/117 116/116/116 115/115/115
f 120/120/120 119/119/119 118/118/118
f 121/121/121 118/118/118 119/119/119
f 118/118/118 121/121/121 122/122/122
f 123/123/123 122/122/122 121/121/121
f 123/123/123 121/121/121 124/124/124
f 125/125/125 124/124/124 121/121/121
f 128/128/128 127/127/127 126/126/126
f 129/129/129 126/126/126 127/127/127
f 132/132/132 131/131/131 130/130/130
f 133/133/133 130/130/130 131/131/131
