g mx_xiaoFangChe1_houlun-R
v 0.3176853 0.3640616 0.1182905
v 0.2884154 0.5641571 -0.1833085
v 0.3176853 0.3640616 -0.1182912
v 0.2884154 0.5641583 0.1833032
v 0.3176853 0.2250007 0.3096865
v 0.2884154 0.3486686 0.4799012
v 0.3176853 -9.536743E-07 0.3827946
v 0.2884154 -9.536743E-07 0.5931907
v 0.3176853 -0.2250037 0.3096865
v 0.2884154 -0.3486705 0.4799012
v 0.3176842 -0.3640624 0.1182894
v 0.2884143 -0.5641602 0.1833043
v 0.3176842 -0.3640624 -0.1182912
v 0.2884143 -0.5641602 -0.1833085
v 0.3176842 -0.2250037 -0.3096918
v 0.2884143 -0.3486716 -0.4799031
v 0.3176842 -9.536743E-07 -0.3827999
v 0.2884143 -9.536743E-07 -0.5931914
v 0.3176842 0.2250007 -0.3096918
v 0.2884143 0.3486686 -0.4799031
v 0.2304662 -0.1480522 0.2037729
v 0.2304662 -0.2395526 0.07783306
v 0.2304662 -0.2395526 -0.07783604
v 0.2304662 -0.1480522 -0.203777
v 0.2304662 -9.536743E-07 -0.2518806
v 0.2304662 0.1480503 -0.203777
v 0.2304662 0.2395496 -0.07783604
v 0.2304662 0.2395496 0.07783306
v 0.2304662 0.1480503 0.2037729
v 0.2304662 -9.536743E-07 0.2518765
v 0.328762 -9.536743E-07 -9.536743E-07
v -0.02100277 0.5641583 0.1833043
v 0.2884154 0.5641571 -0.1833085
v 0.2884154 0.5641583 0.1833032
v -0.02100277 0.5641571 -0.1833085
v 0.2884143 0.3486686 -0.4799031
v -0.02100277 0.3486686 -0.4799031
v 0.2884143 -9.536743E-07 -0.5931914
v -0.02100277 -9.536743E-07 -0.5931914
v 0.2884143 -0.3486716 -0.4799031
v -0.02100277 -0.3486705 -0.4799031
v 0.2884143 -0.5641602 -0.1833085
v -0.02100277 -0.5641602 -0.1833085
v -0.02100277 0.3486686 0.4799012
v 0.2884154 0.3486686 0.4799012
v -0.02100277 -9.536743E-07 0.5931907
v 0.2884154 -9.536743E-07 0.5931907
v -0.02100277 -0.3486705 0.4799012
v 0.2884154 -0.3486705 0.4799012
v -0.02100277 -0.5641602 0.1833043
v 0.2884143 -0.5641602 0.1833043
v -0.02100277 -0.5641602 -0.1833085
v 0.2884143 -0.5641602 -0.1833085
v -0.328759 0.5641583 0.1833032
v -0.02100277 0.5641571 -0.1833085
v -0.02100277 0.5641583 0.1833043
v -0.328759 0.5641583 -0.1833085
v -0.02100277 0.3486686 -0.4799031
v -0.328759 0.3486686 -0.4799031
v -0.02100277 -9.536743E-07 -0.5931914
v -0.328759 -9.536743E-07 -0.5931914
v -0.02100277 -0.3486705 -0.4799031
v -0.328759 -0.3486705 -0.4799031
v -0.02100277 -0.5641602 -0.1833085
v -0.328759 -0.5641602 -0.1833085
v -0.328759 0.3486686 0.4799012
v -0.02100277 0.3486686 0.4799012
v -0.328759 -9.536743E-07 0.5931907
v -0.02100277 -9.536743E-07 0.5931907
v -0.328759 -0.3486705 0.4799012
v -0.02100277 -0.3486705 0.4799012
v -0.328759 -0.5641602 0.1833043
v -0.02100277 -0.5641602 0.1833043
v -0.328759 -0.5641602 -0.1833085
v -0.02100277 -0.5641602 -0.1833085
v -0.328759 0.5641583 -0.1833085
v -0.328759 0.5641583 0.1833032
v -0.328759 -0.5641602 -0.1833085
v -0.328759 0.3486686 0.4799012
v -0.328759 -9.536743E-07 0.5931907
v -0.328759 -0.3486705 0.4799012
v -0.328759 -0.5641602 0.1833043
v -0.328759 0.3486686 -0.4799031
v -0.328759 -9.536743E-07 -0.5931914
v -0.328759 -0.3486705 -0.4799031
vt 0.2964399 0.2179835
vt 0.354897 0.2387723
vt 0.3224841 0.2509401
vt 0.3148339 0.1897258
vt 0.2576712 0.2071749
vt 0.2576712 0.1712541
vt 0.2174916 0.2219575
vt 0.1957579 0.1932726
vt 0.1939457 0.2567263
vt 0.1579989 0.2463966
vt 0.1949424 0.3000773
vt 0.1594487 0.3120768
vt 0.2204689 0.333694
vt 0.2008968 0.363518
vt 0.2576712 0.3437518
vt 0.2576712 0.381472
vt 0.2989511 0.3295259
vt 0.3217851 0.3596218
vt 0.3236362 0.2940581
vt 0.3582367 0.3039994
vt 0.219265 0.264014
vt 0.2205595 0.2903689
vt 0.2368565 0.3088018
vt 0.2577618 0.3152741
vt 0.2827705 0.3079346
vt 0.298265 0.2867445
vt 0.2978249 0.2598588
vt 0.2820845 0.2398338
vt 0.2576712 0.2324037
vt 0.2325331 0.2422803
vt 0.2593411 0.2745249
vt 0.4337806 0.1512808
vt 0.3489296 0.06907052
vt 0.4339359 0.06907052
vt 0.3489296 0.1511772
vt 0.2637163 0.06921291
vt 0.2637551 0.1512808
vt 0.1789042 0.06917407
vt 0.1789042 0.1512808
vt 0.09426042 0.06917407
vt 0.09426042 0.1512419
vt 0.00997908 0.06913524
vt 0.009771969 0.1512808
vt 0.5189551 0.1511772
vt 0.5189551 0.06913524
vt 0.6039742 0.1511772
vt 0.6039742 0.06913524
vt 0.6888769 0.1511772
vt 0.6887475 0.06921291
vt 0.7735854 0.1511772
vt 0.7735077 0.06913524
vt 0.8580868 0.1511772
vt 0.8580868 0.06907052
vt 0.4337806 0.1512808
vt 0.3489296 0.06907052
vt 0.4339359 0.06907052
vt 0.3489296 0.1511772
vt 0.2637163 0.06921291
vt 0.2637551 0.1512808
vt 0.1789042 0.06917407
vt 0.1789042 0.1512808
vt 0.09426042 0.06917407
vt 0.09426042 0.1512419
vt 0.00997908 0.06913524
vt 0.009771969 0.1512808
vt 0.5188773 0.1512419
vt 0.5188773 0.06917407
vt 0.6039742 0.1511772
vt 0.6039742 0.06913524
vt 0.6888769 0.1511772
vt 0.6887475 0.06921291
vt 0.7735077 0.1512419
vt 0.773456 0.06917407
vt 0.8580868 0.1511772
vt 0.8580868 0.06907052
vt 0.2576712 0.1712541
vt 0.3148339 0.1897258
vt 0.2008968 0.363518
vt 0.354897 0.2387723
vt 0.3582367 0.3039994
vt 0.3217851 0.3596218
vt 0.2576712 0.381472
vt 0.1957579 0.1932726
vt 0.1579989 0.2463966
vt 0.1594487 0.3120768
vn 0.9883265 -0.1523507 0
vn 0.6078385 0.7568569 -0.2402082
vn 0.9883265 -0.1523507 0
vn 0.6078385 0.7568569 0.2402082
vn 0.9944412 -0.1052938 0
vn 0.6078385 0.466663 0.6424625
vn 0.9999309 -0.01176392 0
vn 0.6078385 -0.01176465 0.7939736
vn 0.995957 0.08983131 0
vn 0.6078385 -0.4823493 0.6307706
vn 0.9905663 0.1370348 0
vn 0.6078385 -0.7725431 0.1836014
vn 0.9905663 0.1370348 0
vn 0.6078385 -0.7725431 -0.1836014
vn 0.995957 0.08983131 0
vn 0.6078385 -0.4823493 -0.6307706
vn 0.9999309 -0.01176392 0
vn 0.6078385 -0.01176465 -0.7939736
vn 0.9944412 -0.1052938 0
vn 0.6078385 0.466663 -0.6424625
vn 0.9921493 0.1137246 -0.05202403
vn 0.9843062 0.1764692 0
vn 0.9843062 0.1764692 0
vn 0.9921493 0.1137246 0.05202403
vn 0.9921493 -0.01176465 0.1245045
vn 0.9916005 -0.1293392 0
vn 0.9814727 -0.1916023 0
vn 0.9814727 -0.1916023 0
vn 0.9916005 -0.1293392 0
vn 0.9921493 -0.01176465 -0.1245045
vn 0.9999924 -0.003921568 0
vn 0.01176465 0.9450908 0.3265961
vn 0.6078385 0.7568569 -0.2402082
vn 0.6078385 0.7568569 0.2402082
vn 0.01176465 0.9450908 -0.3265961
vn 0.6078385 0.466663 -0.6424625
vn 0.01176465 0.5843092 -0.8114458
vn 0.6078385 -0.01176465 -0.7939736
vn 0.01176465 -0.01176465 -0.9998616
vn 0.6078385 -0.4823493 -0.6307706
vn 0.01176465 -0.5999954 -0.7999169
vn 0.6078385 -0.7725431 -0.1836014
vn 0.01176465 -0.960777 -0.2770725
vn 0.01176465 0.5843092 0.8114458
vn 0.6078385 0.466663 0.6424625
vn 0.01176465 -0.01176465 0.9998616
vn 0.6078385 -0.01176465 0.7939736
vn 0.01176465 -0.5999954 0.7999169
vn 0.6078385 -0.4823493 0.6307706
vn 0.01176465 -0.960777 0.2770725
vn 0.6078385 -0.7725431 0.1836014
vn 0.01176465 -0.960777 -0.2770725
vn 0.6078385 -0.7725431 -0.1836014
vn 0.01176465 0.9450908 0.3265961
vn 0.01176465 0.9450908 -0.3265961
vn 0.01176465 0.9450908 0.3265961
vn 0.01176465 0.9450908 -0.3265961
vn 0.01176465 0.5843092 -0.8114458
vn 0.01176465 0.5843092 -0.8114458
vn 0.01176465 -0.01176465 -0.9998616
vn 0.01176465 -0.01176465 -0.9998616
vn 0.01176465 -0.5999954 -0.7999169
vn 0.01176465 -0.5999954 -0.7999169
vn 0.01176465 -0.960777 -0.2770725
vn 0.01176465 -0.960777 -0.2770725
vn 0.01176465 0.5843092 0.8114458
vn 0.01176465 0.5843092 0.8114458
vn 0.01176465 -0.01176465 0.9998616
vn 0.01176465 -0.01176465 0.9998616
vn 0.01176465 -0.5999954 0.7999169
vn 0.01176465 -0.5999954 0.7999169
vn 0.01176465 -0.960777 0.2770725
vn 0.01176465 -0.960777 0.2770725
vn 0.01176465 -0.960777 -0.2770725
vn 0.01176465 -0.960777 -0.2770725
vn -0.9999923 -0.003921568 -0.0003442513
vn -0.9999923 -0.003921568 -0.0003442513
vn -0.9999923 -0.003921568 -0.0003442513
vn -0.9999923 -0.003921568 -0.0003442513
vn -0.9999923 -0.003921568 -0.0003442513
vn -0.9999923 -0.003921568 -0.0003442513
vn -0.9999923 -0.003921568 -0.0003442513
vn -0.9999923 -0.003921568 -0.0003442513
vn -0.9999923 -0.003921568 -0.0003442513
vn -0.9999923 -0.003921568 -0.0003442513
g mx_xiaoFangChe1_houlun-R_0
f 3/3/3 2/2/2 1/1/1
f 4/4/4 1/1/1 2/2/2
f 1/1/1 4/4/4 5/5/5
f 6/6/6 5/5/5 4/4/4
f 5/5/5 6/6/6 7/7/7
f 8/8/8 7/7/7 6/6/6
f 7/7/7 8/8/8 9/9/9
f 10/10/10 9/9/9 8/8/8
f 9/9/9 10/10/10 11/11/11
f 12/12/12 11/11/11 10/10/10
f 11/11/11 12/12/12 13/13/13
f 14/14/14 13/13/13 12/12/12
f 13/13/13 14/14/14 15/15/15
f 16/16/16 15/15/15 14/14/14
f 15/15/15 16/16/16 17/17/17
f 18/18/18 17/17/17 16/16/16
f 17/17/17 18/18/18 19/19/19
f 20/20/20 19/19/19 18/18/18
f 20/20/20 2/2/2 19/19/19
f 3/3/3 19/19/19 2/2/2
f 9/9/9 21/21/21 7/7/7
f 21/21/21 9/9/9 22/22/22
f 11/11/11 22/22/22 9/9/9
f 22/22/22 11/11/11 23/23/23
f 13/13/13 23/23/23 11/11/11
f 23/23/23 13/13/13 24/24/24
f 15/15/15 24/24/24 13/13/13
f 24/24/24 15/15/15 25/25/25
f 17/17/17 25/25/25 15/15/15
f 25/25/25 17/17/17 26/26/26
f 19/19/19 26/26/26 17/17/17
f 26/26/26 19/19/19 27/27/27
f 3/3/3 27/27/27 19/19/19
f 3/3/3 1/1/1 27/27/27
f 28/28/28 27/27/27 1/1/1
f 28/28/28 1/1/1 29/29/29
f 5/5/5 29/29/29 1/1/1
f 29/29/29 5/5/5 30/30/30
f 7/7/7 30/30/30 5/5/5
f 30/30/30 7/7/7 21/21/21
f 30/30/30 21/21/21 31/31/31
f 27/27/27 31/31/31 26/26/26
f 23/23/23 31/31/31 22/22/22
f 24/24/24 31/31/31 23/23/23
f 28/28/28 31/31/31 27/27/27
f 21/21/21 22/22/22 31/31/31
f 26/26/26 31/31/31 25/25/25
f 28/28/28 29/29/29 31/31/31
f 30/30/30 31/31/31 29/29/29
f 25/25/25 31/31/31 24/24/24
f 34/34/34 33/33/33 32/32/32
f 35/35/35 32/32/32 33/33/33
f 33/33/33 36/36/36 35/35/35
f 37/37/37 35/35/35 36/36/36
f 36/36/36 38/38/38 37/37/37
f 39/39/39 37/37/37 38/38/38
f 38/38/38 40/40/40 39/39/39
f 41/41/41 39/39/39 40/40/40
f 40/40/40 42/42/42 41/41/41
f 43/43/43 41/41/41 42/42/42
f 32/32/32 44/44/44 34/34/34
f 45/45/45 34/34/34 44/44/44
f 44/44/44 46/46/46 45/45/45
f 47/47/47 45/45/45 46/46/46
f 46/46/46 48/48/48 47/47/47
f 49/49/49 47/47/47 48/48/48
f 48/48/48 50/50/50 49/49/49
f 51/51/51 49/49/49 50/50/50
f 50/50/50 52/52/52 51/51/51
f 53/53/53 51/51/51 52/52/52
f 56/56/56 55/55/55 54/54/54
f 57/57/57 54/54/54 55/55/55
f 55/55/55 58/58/58 57/57/57
f 59/59/59 57/57/57 58/58/58
f 58/58/58 60/60/60 59/59/59
f 61/61/61 59/59/59 60/60/60
f 60/60/60 62/62/62 61/61/61
f 63/63/63 61/61/61 62/62/62
f 62/62/62 64/64/64 63/63/63
f 65/65/65 63/63/63 64/64/64
f 54/54/54 66/66/66 56/56/56
f 67/67/67 56/56/56 66/66/66
f 66/66/66 68/68/68 67/67/67
f 69/69/69 67/67/67 68/68/68
f 68/68/68 70/70/70 69/69/69
f 71/71/71 69/69/69 70/70/70
f 70/70/70 72/72/72 71/71/71
f 73/73/73 71/71/71 72/72/72
f 72/72/72 74/74/74 73/73/73
f 75/75/75 73/73/73 74/74/74
f 78/78/78 77/77/77 76/76/76
f 78/78/78 79/79/79 77/77/77
f 78/78/78 80/80/80 79/79/79
f 78/78/78 81/81/81 80/80/80
f 78/78/78 82/82/82 81/81/81
f 76/76/76 83/83/83 78/78/78
f 84/84/84 78/78/78 83/83/83
f 78/78/78 84/84/84 85/85/85
