g polySurface2
v -281.9849 0 -21.66833
v -179.2588 0 6.116073
v -283.515 0 -13.56143
v -177.7287 0 -1.990727
v 183.5723 0 -255.0707
v 192.5999 0 -336.8756
v 200.4344 0 -334.291
v 175.5125 0 -256.8238
v 453.9306 0 -49.84003
v 393.5291 0 -49.52353
v 452.761 0 -58.00663
v 394.6983 0 -41.35853
v 227.1329 0 -392.8552
v 192.5999 0 -336.8756
v 219.6093 0 -396.2349
v 200.4344 0 -334.291
v 191.1752 0 -337.3455
v 210.7175 0 -400.2293
v 218.2411 0 -396.8495
v 183.3407 0 -339.9301
v 291.0017 0 -508.7795
v 235.0248 0 -427.641
v 283.8445 0 -512.8787
v 242.1837 0 -423.541
v 562.8158 0 -89.59713
v 499.2673 0 -72.29943
v 559.7015 0 -97.23682
v 502.3174 0 -64.63393
v 313.4394 0 -551.9603
v 297.7271 0 -538.7938
v 306.0443 0 -555.6172
v 305.1208 0 -535.1377
v -553.2808 0 152.545
v -604.0863 0 187.5472
v -607.7738 0 180.1702
v -550.4545 0 160.2957
v -339.6346 0 66.47727
v -299.9919 0 -12.98013
v -331.9421 0 69.45857
v -307.6844 0 -15.96143
v -330.5435 0 70.00067
v -290.9008 0 -9.456727
v -322.851 0 72.98197
v -298.5931 0 -12.43803
v -631.9316 0 208.9293
v -628.7432 0 278.636
v -636.9862 0 278.9748
v -623.7028 0 209.4906
v -614.6104 0 364.9373
v -624.0166 0 362.3551
v -615.8654 0 361.0815
v -621.9493 0 368.7057
v -164.9297 0 189.1074
v -161.6038 0 143.1117
v -156.7404 0 188.2224
v -169.8047 0 143.998
v -155.2502 0 188.0614
v -151.9104 0 142.0642
v -147.061 0 187.1763
v -160.1114 0 142.9504
v -133.7599 0 275.4808
v -142.2608 0 213.4888
v -125.8057 0 273.296
v -150.2032 0 215.6704
v -577.6211 0 455.0325
v -567.9187 0 454.4844
v -573.7283 0 460.3364
v -570.2821 0 451.2641
v -564.6812 0 456.8243
v -568.396 0 464.1904
v -568.9475 0 450.5787
v -561.0526 0 447.5681
v -566.8622 0 453.4201
v -561.6086 0 446.8103
v -560.2908 0 448.1186
v -564.0056 0 455.4847
v -621.9493 0 368.7057
v -570.2821 0 451.2641
v -577.6211 0 455.0325
v -614.6104 0 364.9373
v -613.276 0 364.2521
v -561.6086 0 446.8103
v -568.9475 0 450.5787
v -605.937 0 360.4837
v 444.4922 0 424.2654
v 430.9508 0 481.8494
v 423.6831 0 477.9454
v 452.1606 0 427.3002
v -186.5578 0 -291.3641
v -117.3123 0 -273.2735
v -187.7092 0 -283.1948
v -116.1609 0 -281.4428
v 399.1871 0 -580.3735
v 326.2827 0 -579.5176
v 398.1616 0 -588.5291
v 327.3119 0 -571.3345
v 635.5055 0 -393.46
v 628.7433 0 -284.6656
v 627.2935 0 -393.3651
v 636.9862 0 -284.34
v 627.2428 0 -284.7249
v 617.5846 0 -393.253
v 625.7968 0 -393.3478
v 619.0001 0 -285.0505
v 499.8673 0 -570.7036
v 504.3216 0 -577.8904
v 500.7993 0 -570.4352
v 500.8271 0 -578.897
v 507.3186 0 -575.8304
v 501.5984 0 -569.8857
v 501.0019 0 -580.3882
v 508.4846 0 -586.7018
v 504.9622 0 -579.2463
v 501.9615 0 -588.5814
v 514.0791 0 -582.8563
v 508.3589 0 -576.9116
v 421.1849 0 -579.9211
v 500.8271 0 -578.897
v 499.8673 0 -570.7036
v 422.1414 0 -588.0851
v 501.0019 0 -580.3882
v 423.2719 0 -597.736
v 501.9615 0 -588.5814
v 422.3156 0 -589.5721
v -516.9586 0 490.1306
v -564.6812 0 456.8243
v -513.2438 0 482.7643
v -568.396 0 464.1904
v -564.0056 0 455.4847
v -508.8535 0 474.0587
v -512.5682 0 481.425
v -560.2908 0 448.1186
v -627.2443 0 278.5743
v -614.9862 0 303.5919
v -623.1464 0 304.7707
v -619.0012 0 278.2355
v -629.1615 0 329.4283
v -615.8654 0 361.0815
v -624.0166 0 362.3551
v -621.0105 0 328.1547
v -475.5017 0 455.5944
v -413.2454 0 421.6566
v -470.7253 0 462.3212
v -418.0142 0 414.9245
v -391.1414 0 -374.2614
v -399.2986 0 -311.3989
v -399.3914 0 -374.2493
v -391.0486 0 -311.4111
v -198.8273 0 -215.6937
v -212.9642 0 -265.541
v -204.774 0 -266.525
v -206.9541 0 -214.2734
v -93.95915 0 -269.5663
v -79.09465 0 -234.7265
v -100.6604 0 -264.7558
v -72.39925 0 -239.5328
v -577.0179 0 -189.0533
v -569.2958 0 -182.5832
v -577.4563 0 -181.7684
v -569.0277 0 -187.007
v -568.0249 0 -178.3163
v -575.3638 0 -174.7428
v -565.4496 0 -174.6846
v -571.1234 0 -168.763
v -561.8016 0 -172.1677
v -565.1182 0 -164.6159
v -567.5706 0 -186.6339
v -559.6429 0 -183.5469
v -567.8035 0 -182.7322
v -559.5802 0 -184.5876
v -559.344 0 -182.5432
v -566.6829 0 -178.9697
v -558.7382 0 -181.689
v -564.4121 0 -175.7674
v -557.8804 0 -181.0965
v -561.1969 0 -173.5447
v -549.4087 0 -296.8635
v -569.0277 0 -187.007
v -577.0179 0 -189.0533
v -541.4165 0 -294.8168
v 616.6108 0 -480.2666
v 605.2651 0 -483.6641
v 610.9856 0 -489.609
v 608.6813 0 -477.9922
v 607.2378 0 -477.5783
v 598.5048 0 -476.6385
v 604.2251 0 -482.5833
v 599.3083 0 -475.3039
v 633.0437 0 -422.6984
v 608.6813 0 -477.9922
v 616.6108 0 -480.2666
v 625.1483 0 -420.4338
v 261.0862 0 -371.0428
v 235.2538 0 -393.5857
v 242.0276 0 -398.2944
v 254.1676 0 -366.5489
v 334.6003 0 -267.815
v 296.3741 0 -315.3262
v 303.4418 0 -319.5803
v 327.5598 0 -263.5772
v 303.4418 0 -319.5803
v 262.3441 0 -371.8599
v 269.2626 0 -376.3539
v 296.3741 0 -315.3262
v 295.0879 0 -314.5519
v 254.1676 0 -366.5489
v 261.0862 0 -371.0428
v 288.0201 0 -310.2977
v -386.9583 0 -481.853
v -398.5768 0 -402.4594
v -395.1775 0 -482.2034
v -390.3362 0 -402.1081
v 385.9909 0 531.1941
v 388.1852 0 539.7097
v 384.7791 0 532.1957
v 392.7293 0 535.9537
v 393.9544 0 536.8192
v 392.2104 0 548.5901
v 388.8044 0 541.0759
v 400.6928 0 541.5789
v 423.6831 0 477.9454
v 392.7293 0 535.9537
v 385.9909 0 531.1941
v 430.9508 0 481.8494
v 432.2726 0 482.5593
v 400.6928 0 541.5789
v 393.9544 0 536.8192
v 439.5403 0 486.4633
v 501.5984 0 -569.8857
v 604.2251 0 -482.5833
v 598.5048 0 -476.6385
v 507.3186 0 -575.8304
v 508.3589 0 -576.9116
v 610.9856 0 -489.609
v 605.2651 0 -483.6641
v 514.0791 0 -582.8563
v 636.9862 0 -284.34
v 616.6023 0 -152.9678
v 628.7433 0 -284.6656
v 624.8174 0 -152.2105
v 627.2428 0 -284.7249
v 606.8934 0 -153.8629
v 619.0001 0 -285.0505
v 615.1085 0 -153.1055
v -407.1646 0 -615.5645
v -398.3174 0 -514.7283
v -415.3 0 -614.2047
v -390.2082 0 -516.1117
v 388.8044 0 541.0759
v 324.9543 0 579.0532
v 321.5526 0 571.5491
v 392.2104 0 548.5901
v 297.2415 0 569.9257
v 186.9185 0 610.3291
v 184.9699 0 602.313
v 299.5161 0 577.8442
v 187.273 0 611.7876
v 89.53515 0 639.5928
v 87.91994 0 631.5155
v 189.2216 0 619.8036
v -557.9314 0 -509.6305
v -492.8593 0 -589.4515
v -551.1742 0 -504.8973
v -499.5078 0 -594.3361
v -549.9458 0 -504.0367
v -485.0019 0 -583.6788
v -543.1887 0 -499.3035
v -491.6504 0 -588.5635
v -565.73 0 -475.61
v -557.7317 0 -404.2139
v -565.9803 0 -404.065
v -557.4801 0 -475.5881
v -556.2318 0 -404.241
v -547.7303 0 -475.5622
v -547.9833 0 -404.3899
v -555.9801 0 -475.5841
v -556.2318 0 -404.241
v -545.9148 0 -352.2543
v -554.1584 0 -351.9372
v -547.9833 0 -404.3899
v -242.8837 0 -617.0388
v -237.0387 0 -624.8688
v -236.174 0 -616.6649
v -241.1125 0 -625.0964
v -239.0193 0 -634.6191
v -297.0207 0 -638.9158
v -296.2616 0 -647.131
v -240.7905 0 -626.5615
v -241.1125 0 -625.0964
v -297.9177 0 -629.2073
v -297.1587 0 -637.4222
v -242.8837 0 -617.0388
v -337.7228 0 -645.8602
v -297.0207 0 -638.9158
v -337.5288 0 -637.6188
v -296.2616 0 -647.131
v -297.1587 0 -637.4222
v -337.2996 0 -627.8781
v -337.4937 0 -636.1196
v -297.9177 0 -629.2073
v -393.1498 0 -632.1019
v -361.0085 0 -626.8236
v -392.385 0 -623.8987
v -361.774 0 -635.0347
v 159.5578 0 -568.1434
v 50.17115 0 -576.7631
v 52.06525 0 -584.7916
v 158.2903 0 -560.0386
v 49.82625 0 -575.3011
v -0.6062531 0 -582.8116
v 1.877747 0 -590.6765
v 47.93215 0 -567.2726
v -171.2104 0 -638.3694
v -95.33035 0 -618.8552
v -172.4138 0 -630.2418
v -94.12355 0 -627.0054
v -197.4415 0 -638.7803
v -237.1962 0 -626.3625
v -238.0609 0 -634.5657
v -196.58 0 -630.6073
v -237.0387 0 -624.8688
v -195.5617 0 -620.9457
v -236.174 0 -616.6649
v -196.4232 0 -629.1184
v -353.5916 0 -80.56453
v -432.2625 0 -147.2683
v -348.7744 0 -87.26202
v -437.0797 0 -140.5707
v -347.8987 0 -88.47983
v -426.5694 0 -155.1835
v -343.0815 0 -95.17733
v -431.3866 0 -148.486
v -307.9496 0 -26.79543
v -334.8082 0 -72.05273
v -301.6084 0 -32.06773
v -341.1266 0 -66.79943
v -300.4529 0 -33.02853
v -327.3384 0 -78.26343
v -294.1117 0 -38.30083
v -333.6569 0 -73.01003
v -514.0521 0 -142.1902
v -504.5019 0 -148.7159
v -503.7859 0 -140.497
v -510.7349 0 -149.7439
v -510.1317 0 -151.1173
v -505.348 0 -158.4291
v -504.632 0 -150.2103
v -506.8145 0 -158.671
v -565.1182 0 -164.6159
v -510.7349 0 -149.7439
v -514.0521 0 -142.1902
v -561.8016 0 -172.1677
v -561.1969 0 -173.5447
v -506.8145 0 -158.671
v -510.1317 0 -151.1173
v -557.8804 0 -181.0965
v -504.632 0 -150.2103
v -453.0258 0 -162.9867
v -452.31 0 -154.7678
v -505.348 0 -158.4291
v -171.5793 0 -141.9434
v -197.3495 0 -215.9519
v -189.2227 0 -217.3722
v -179.6163 0 -140.0827
v -169.9044 0 -17.38243
v -176.4657 0 -114.7918
v -161.7493 0 -18.63043
v -184.6207 0 -113.5438
v -323.6551 0 -288.5783
v -375.6482 0 -302.776
v -322.7255 0 -296.7707
v -376.5782 0 -294.5791
v 143.0018 0 -158.0889
v 167.3967 0 -227.2317
v 151.0081 0 -156.2441
v 159.3602 0 -229.0835
v 147.504 0 133.0527
v 133.7016 0 15.82617
v 141.9424 0 15.43667
v 139.263 0 133.4371
v -160.9964 0 116.9069
v -149.4688 0 15.87267
v -152.7507 0 117.174
v -157.7144 0 15.60557
v -436.7882 0 -166.0524
v -388.2701 0 -274.6625
v -429.0405 0 -163.218
v -396.0179 0 -277.4969
v -47.42775 0 -158.3577
v -64.82555 0 -207.9483
v -40.16955 0 -162.2778
v -72.07716 0 -204.0317
v 86.41425 0 -252.166
v -55.38535 0 -237.853
v 85.12334 0 -260.2607
v -54.08665 0 -229.7093
v 589.4618 0 -69.73063
v 464.0038 0 299.2809
v 581.6245 0 -72.22253
v 471.8368 0 301.8659
v 311.4601 0 -9.164627
v 333.4659 0 106.7964
v 303.4821 0 -7.063727
v 341.4441 0 104.6955
v 367.6459 0 -26.84593
v 314.304 0 -24.44783
v 366.0079 0 -34.92963
v 315.9416 0 -16.36593
v 365.7101 0 -36.39993
v 312.3686 0 -33.99973
v 364.0721 0 -44.48353
v 314.0061 0 -25.91783
v -553.7947 0 151.1356
v -489.153 0 127.53
v -487.2329 0 135.5406
v -556.621 0 143.3849
v -240.302 0 210.819
v -168.9632 0 213.5811
v -239.6664 0 219.0445
v -169.5988 0 205.3557
v -461.2462 0 -526.6636
v -406.9348 0 -501.3881
v -463.6638 0 -518.7759
v -404.5172 0 -509.276
v -280.1765 0 -31.24913
v -177.4505 0 -3.464727
v -281.7067 0 -23.14233
v -175.9203 0 -11.57153
v 159.0499 0 -138.5066
v 152.1908 0 -93.15393
v 150.8365 0 -138.2665
v 160.4339 0 -93.39503
v 149.34 0 -138.2227
v 142.4458 0 -92.86903
v 141.1266 0 -137.9825
v 150.6888 0 -93.11002
v 191.1752 0 -337.3455
v 165.987 0 -258.8956
v 183.3407 0 -339.9301
v 174.0468 0 -257.1425
v 130.7099 0 270.3492
v 147.2757 0 155.386
v 138.9386 0 270.9429
v 139.047 0 154.7924
v 140.4346 0 271.0508
v 157.0004 0 156.0876
v 148.6633 0 271.6445
v 148.7717 0 155.494
v 110.9675 0 390.8502
v 135.5537 0 296.1196
v 119.098 0 392.242
v 127.4221 0 294.7276
v 120.5764 0 392.4951
v 145.1639 0 297.7646
v 128.707 0 393.8869
v 137.0323 0 296.3727
v 455.3128 0 -40.18853
v 394.911 0 -39.87383
v 454.1433 0 -48.35513
v 396.0804 0 -31.70883
v 90.26865 0 486.268
v 114.7852 0 413.6481
v 98.32365 0 488.0503
v 106.7312 0 411.866
v 99.78835 0 488.3744
v 124.3037 0 415.7542
v 107.8434 0 490.1567
v 116.2497 0 413.9721
v 107.1932 0 -261.986
v 156.1622 0 -245.7472
v 105.8902 0 -253.8395
v 157.4652 0 -253.8937
v 105.6533 0 -252.3583
v 154.6223 0 -236.1196
v 104.3503 0 -244.2119
v 155.9254 0 -244.2661
v 282.5429 0 -513.624
v 226.5641 0 -432.4866
v 275.3857 0 -517.7231
v 233.7231 0 -428.3866
v 566.4963 0 -80.56843
v 502.8719 0 -63.24023
v 563.3821 0 -88.20813
v 505.922 0 -55.57473
v 304.6996 0 -556.2821
v 288.9889 0 -543.1149
v 297.3045 0 -559.939
v 296.3827 0 -539.4587
v -612.1317 0 171.4517
v -553.7947 0 151.1356
v -608.4442 0 178.8287
v -556.621 0 143.3849
v 370.1943 0 170.1933
v 339.1941 0 123.4739
v 376.3226 0 164.67
v 333.0657 0 128.9971
v 377.437 0 163.6658
v 346.4366 0 116.9464
v 383.5652 0 158.1426
v 340.3083 0 122.4696
v 613.7367 0 -123.243
v 593.8009 0 -105.4827
v 606.6139 0 -127.3984
v 600.9065 0 -101.3375
v 605.3165 0 -128.1552
v 585.4015 0 -110.3829
v 598.1936 0 -132.3106
v 592.507 0 -106.2376
v -344.5519 0 192.3503
v -336.2029 0 101.067
v -336.3021 0 192.3593
v -344.4529 0 101.058
v -334.8021 0 192.3609
v -326.4529 0 101.0776
v -326.5522 0 192.3699
v -334.7029 0 101.0686
v 407.9706 0 229.1301
v 393.4143 0 186.9616
v 415.1122 0 225.057
v 386.2505 0 191.0473
v 416.4131 0 224.315
v 401.8831 0 182.1316
v 423.5547 0 220.2419
v 394.7194 0 186.2173
v -627.2443 0 278.5743
v -613.9777 0 210.154
v -619.0012 0 278.2355
v -622.2064 0 209.5927
v 430.1087 0 301.284
v 423.7709 0 248.4676
v 437.9877 0 298.9203
v 415.8755 0 250.751
v 439.4251 0 298.489
v 433.1068 0 245.7677
v 447.3041 0 296.1253
v 425.2113 0 248.051
v -143.1616 0 278.0632
v -151.6487 0 216.0675
v -135.2074 0 275.8784
v -159.5912 0 218.2491
v 447.1349 0 402.1862
v 450.2169 0 343.5696
v 455.3503 0 401.4544
v 442.0207 0 344.2997
v 456.8462 0 401.3211
v 459.9055 0 342.7065
v 465.0616 0 400.5893
v 451.7093 0 343.4366
v 381.5585 0 -108.5575
v 378.6443 0 -53.95133
v 373.3482 0 -107.7493
v 386.8546 0 -54.75953
v 371.8556 0 -107.6023
v 368.9411 0 -52.99613
v 363.6451 0 -106.7941
v 377.1515 0 -53.80433
v 432.2726 0 482.5593
v 461.2232 0 430.8869
v 439.5403 0 486.4633
v 453.5551 0 427.852
v -187.9185 0 -281.7095
v -118.6729 0 -263.6189
v -189.0697 0 -273.5402
v -117.5216 0 -271.7882
v -136.2164 0 390.2767
v -131.7733 0 299.1791
v -127.9736 0 389.9316
v -140.016 0 299.5242
v -126.4749 0 389.8688
v -122.0318 0 298.7712
v -118.2321 0 389.5237
v -130.2746 0 299.1163
v -10.55705 0 629.1743
v 54.57455 0 634.7003
v -10.21365 0 637.4033
v 54.23115 0 626.4708
v -10.15115 0 638.902
v 54.98045 0 644.4285
v -9.807854 0 647.131
v 54.63705 0 636.1991
v 217.9818 0 -63.97733
v 166.425 0 -77.38363
v 218.7963 0 -72.18703
v 165.6104 0 -69.17403
v 218.9444 0 -73.67973
v 167.3877 0 -87.08603
v 219.759 0 -81.88943
v 166.5732 0 -78.87633
v 397.9748 0 -590.0148
v 325.0663 0 -589.1913
v 396.949 0 -598.1703
v 326.0952 0 -581.0082
v -523.6293 0 -315.2478
v -408.9184 0 -297.6459
v -524.2977 0 -307.025
v -408.2498 0 -305.8687
v -524.4193 0 -305.5299
v -409.7083 0 -287.928
v -525.0876 0 -297.307
v -409.0399 0 -296.1508
v -632.7908 0 306.164
v -628.7432 0 278.636
v -624.6305 0 304.9851
v -636.9862 0 278.9748
v -614.3833 0 360.85
v -611.3776 0 326.6494
v -606.2323 0 359.5765
v -619.5286 0 327.9231
v -469.8568 0 463.5443
v -407.6095 0 429.6127
v -465.0804 0 470.2711
v -412.3783 0 422.8806
v -381.3914 0 -374.2759
v -389.5486 0 -311.4133
v -389.6414 0 -374.2637
v -381.2986 0 -311.4255
v -195.0944 0 -267.688
v -197.3495 0 -215.9519
v -203.2847 0 -266.704
v -189.2227 0 -217.3722
v -38.49215 0 9.971373
v -143.3732 0 1.721373
v -38.49215 0 1.721373
v -143.3732 0 9.971373
v -38.49215 0 0.2213729
v -143.3732 0 -8.028627
v -38.49215 0 -8.028627
v -143.3732 0 0.2213729
v 127.5633 0 9.971373
v -12.92705 0 1.721373
v 127.5633 0 1.721373
v -12.92705 0 9.971373
v 127.5633 0 0.2213729
v -12.92705 0 -8.028627
v 127.5633 0 -8.028627
v -12.92705 0 0.2213729
v -101.8795 0 -263.8807
v -87.00795 0 -229.0459
v -108.5806 0 -259.0703
v -80.31265 0 -233.8522
v 205.7171 0 -1.966127
v 161.2354 0 -1.914627
v 204.1792 0 -10.06883
v 162.7738 0 6.190373
v 203.8994 0 -11.54223
v 159.4173 0 -11.49353
v 202.3615 0 -19.64493
v 160.9556 0 -3.388527
v -90.05756 0 621.8058
v -32.99575 0 636.7074
v -91.00665 0 629.9999
v -32.04795 0 628.5247
v -91.17935 0 631.491
v -34.11595 0 646.379
v -92.12836 0 639.6851
v -33.16815 0 638.1964
v -567.5706 0 -186.6339
v -531.9714 0 -292.398
v -559.5802 0 -184.5876
v -539.9635 0 -294.4447
v 607.2378 0 -477.5783
v 615.8143 0 -417.7566
v 599.3083 0 -475.3039
v 623.7096 0 -420.0212
v 250.0331 0 -403.8592
v 262.3441 0 -371.8599
v 243.2592 0 -399.1505
v 269.2626 0 -376.3539
v 342.4702 0 -249.1267
v 341.0981 0 -224.9256
v 334.5952 0 -246.773
v 348.9978 0 -227.2866
v 333.1602 0 -246.3442
v 331.7589 0 -222.1343
v 325.285 0 -243.9905
v 339.6587 0 -224.4953
v 295.0879 0 -314.5519
v 319.2365 0 -258.5672
v 288.0201 0 -310.2977
v 326.277 0 -262.8051
v -377.2425 0 -481.4389
v -388.8355 0 -402.0441
v -385.4616 0 -481.7892
v -380.5949 0 -401.6929
v -397.5476 0 -617.1716
v -388.7316 0 -516.3636
v -405.6832 0 -615.812
v -380.6223 0 -517.7471
v 317.532 0 562.6797
v 388.1852 0 539.7097
v 320.9337 0 570.1837
v 384.7791 0 532.1957
v 187.273 0 611.7876
v 302.2047 0 587.2036
v 189.2216 0 619.8036
v 299.9299 0 579.285
v 86.01085 0 621.9684
v 186.9185 0 610.3291
v 87.62605 0 630.0457
v 184.9699 0 602.313
v -467.6389 0 -626.3051
v -424.7072 0 -628.3164
v -465.6035 0 -618.3109
v -426.6722 0 -636.3177
v -465.2332 0 -616.8563
v -422.3846 0 -618.8594
v -463.198 0 -608.8622
v -424.3496 0 -626.8607
v -563.901 0 -351.5624
v -557.7317 0 -404.2139
v -555.6572 0 -351.8795
v -565.9803 0 -404.065
v -555.9773 0 -319.3363
v -542.9131 0 -314.3847
v -549.8281 0 -309.8854
v -549.0624 0 -323.8356
v -547.8051 0 -324.6537
v -534.7406 0 -319.702
v -541.6558 0 -315.2027
v -540.8899 0 -329.1529
v -462.773 0 477.4262
v -367.7943 0 484.9435
v -462.7176 0 485.6712
v -367.8592 0 476.7573
v -462.7075 0 487.1765
v -367.7179 0 494.6244
v -462.6519 0 495.4215
v -367.7826 0 486.4382
v -400.7975 0 399.1381
v -357.8711 0 345.5371
v -393.7851 0 403.4842
v -364.8835 0 341.191
v -392.51 0 404.2744
v -349.5836 0 350.6734
v -385.4977 0 408.6205
v -356.596 0 346.3273
v -198.9261 0 577.1514
v -131.998 0 623.5836
v -202.918 0 584.3712
v -128.006 0 616.3635
v -194.2084 0 568.6188
v -127.2803 0 615.0508
v -198.2003 0 575.8386
v -123.2883 0 607.8308
v -134.3911 0 450.4409
v -127.1373 0 414.8354
v -126.1443 0 450.2094
v -135.384 0 415.0669
v -124.6449 0 450.1673
v -117.3911 0 414.5618
v -116.3982 0 449.9358
v -125.6379 0 414.7933
v -132.8636 0 504.0566
v -125.1797 0 484.5337
v -124.6276 0 503.8254
v -133.4245 0 484.7651
v -123.129 0 503.7833
v -115.4346 0 484.2601
v -114.8931 0 503.5521
v -123.6795 0 484.4915
v -394.0537 0 -641.798
v -361.9132 0 -636.5289
v -393.2891 0 -633.5947
v -362.6787 0 -644.7401
v 174.3994 0 -567.5826
v 291.1588 0 -576.1511
v 175.5681 0 -559.4624
v 289.9839 0 -584.3135
v 175.7813 0 -557.9816
v 292.5479 0 -566.5001
v 176.95 0 -549.8613
v 291.373 0 -574.6625
v 49.82625 0 -575.3011
v 156.7916 0 -550.4556
v 47.93215 0 -567.2726
v 158.0592 0 -558.5605
v 4.813347 0 -599.9716
v 50.17115 0 -576.7631
v 2.329447 0 -592.1066
v 52.06525 0 -584.7916
v -70.84375 0 -621.79
v -19.17705 0 -598.7416
v -73.07025 0 -613.8549
v -16.94865 0 -606.6832
v -73.47535 0 -612.4111
v -21.81075 0 -589.3549
v -75.70185 0 -604.476
v -19.58245 0 -597.2966
v -172.6333 0 -628.76
v -96.75716 0 -609.2192
v -173.8367 0 -620.6323
v -95.55035 0 -617.3694
v -451.4639 0 -145.0546
v -504.5019 0 -148.7159
v -452.1798 0 -153.2735
v -503.7859 0 -140.497
v -198.8273 0 -215.6937
v -189.1145 0 -137.8838
v -206.9541 0 -214.2734
v -181.0776 0 -139.7444
v -160.2666 0 -18.85743
v -166.8279 0 -116.2667
v -152.1116 0 -20.10543
v -174.9828 0 -115.0187
v -324.7538 0 -278.8957
v -376.7475 0 -293.0882
v -323.8242 0 -287.0882
v -377.6776 0 -284.8913
v -219.8361 0 -276.2455
v -301.6002 0 -285.7286
v -219.7122 0 -284.4942
v -301.7239 0 -277.4846
v -219.6898 0 -285.9944
v -301.4539 0 -295.472
v -219.5659 0 -294.2431
v -301.5777 0 -287.228
v 410.4147 0 -438.3635
v 303.7496 0 -517.6813
v 414.9174 0 -445.2765
v 299.2472 0 -510.7683
v 415.736 0 -446.5335
v 309.0709 0 -525.8513
v 420.2386 0 -453.4465
v 304.5684 0 -518.9382
v 135.4283 0 -19.40283
v 149.3093 0 -65.05112
v 143.6176 0 -18.40363
v 141.12 0 -66.05032
v 145.1066 0 -18.22193
v 158.9875 0 -63.87033
v 153.2959 0 -17.22273
v 150.7983 0 -64.86953
v 152.467 0 -155.908
v 176.8978 0 -225.0425
v 160.4733 0 -154.0632
v 168.8613 0 -226.8943
v 322.098 0 -198.6085
v 186.1362 0 -238.4025
v 323.9503 0 -206.6479
v 184.2838 0 -230.3632
v 324.2871 0 -208.1096
v 188.3254 0 -247.9036
v 326.1396 0 -216.1489
v 186.4731 0 -239.8642
v 149.0024 0 132.9828
v 151.6815 0 14.97627
v 157.2435 0 132.5984
v 143.4408 0 15.36587
v -170.7413 0 116.5911
v -159.2137 0 15.55697
v -162.4956 0 116.8583
v -167.4594 0 15.28987
v -221.5406 0 573.9451
v -339.202 0 497.5283
v -217.4617 0 566.7739
v -343.2809 0 504.6994
v -216.7202 0 565.4702
v -334.3814 0 489.0533
v -212.6413 0 558.2991
v -338.4604 0 496.2245
v -445.9446 0 -169.4021
v -397.4267 0 -278.0122
v -438.197 0 -166.5677
v -405.1744 0 -280.8467
v -358.2285 0 319.6978
v -337.9962 0 229.9412
v -350.0501 0 320.783
v -346.1746 0 228.856
v -348.5631 0 320.9803
v -328.331 0 231.2237
v -340.3849 0 322.0655
v -336.5093 0 230.1385
v -38.84915 0 -162.991
v -56.25475 0 -212.5773
v -31.59085 0 -166.911
v -63.50635 0 -208.6608
v 87.94075 0 -242.5944
v -53.84975 0 -228.2235
v 86.64975 0 -250.6892
v -52.55095 0 -220.0798
v 580.1971 0 -72.67633
v 454.7441 0 296.2252
v 572.3599 0 -75.16823
v 462.5771 0 298.8102
v 302.0316 0 -6.681727
v 324.0374 0 109.2793
v 294.0536 0 -4.580827
v 332.0154 0 107.1784
v 286.4756 0 -11.58373
v 226.3779 0 -12.92923
v 285.5267 0 -19.77503
v 227.327 0 -4.737127
v 285.3542 0 -21.26503
v 225.2562 0 -22.61153
v 284.4052 0 -29.45633
v 226.2052 0 -14.41943
v -484.9634 0 145.0089
v -553.2808 0 152.545
v -486.8835 0 136.9982
v -550.4545 0 160.2957
v -361.5066 0 211.327
v -445.8265 0 146.7484
v -357.0143 0 204.4074
v -450.3189 0 153.668
v -356.1974 0 203.1493
v -440.5175 0 138.5707
v -351.705 0 196.2297
v -445.0098 0 145.4903
v -351.3303 0 96.33987
v -442.6598 0 122.8559
v -354.308 0 88.64687
v -439.6852 0 130.5402
v -354.8498 0 87.24717
v -446.1753 0 113.7735
v -357.8277 0 79.55418
v -443.2009 0 121.4578
v 358.144 0 -133.8271
v 349.2796 0 -192.2956
v 366.0486 0 -136.1896
v 341.3752 0 -189.9331
v 367.4857 0 -136.6191
v 358.6215 0 -195.0876
v 375.3903 0 -138.9816
v 350.7169 0 -192.7251
v -116.7902 0 603.1721
v -122.2004 0 526.6035
v -108.6721 0 601.7084
v -130.308 0 528.0654
v -107.1949 0 601.442
v -112.6177 0 524.8757
v -99.07675 0 599.9783
v -120.7252 0 526.3375
v 62.62485 0 612.1786
v 92.27115 0 515.5237
v 70.68325 0 613.9462
v 84.21275 0 513.7562
v 72.14845 0 614.2676
v 101.7947 0 517.6125
v 80.20685 0 616.0352
v 93.73634 0 515.8451
v -490.4473 0 257.2502
v -470.8199 0 153.9678
v -482.2465 0 258.1496
v -479.0207 0 153.0683
v -480.7553 0 258.3132
v -461.128 0 155.0308
v -472.5546 0 259.2126
v -469.3288 0 154.1314
v -241.0531 0 201.098
v -169.7144 0 203.8601
v -240.4174 0 209.3235
v -170.35 0 195.6347
v -320.343 0 207.2249
v -264.8722 0 211.2131
v -319.7075 0 215.4503
v -265.5078 0 202.9876
v -319.5919 0 216.9459
v -264.1211 0 220.9341
v -318.9564 0 225.1714
v -264.7567 0 212.7087
v -464.1034 0 -517.3417
v -409.792 0 -492.0661
v -466.521 0 -509.4539
v -407.3744 0 -499.954
v -240.7905 0 -626.5615
v -238.0609 0 -634.5657
v -237.1962 0 -626.3625
v -239.0193 0 -634.6191
v -605.937 0 360.4837
v -614.3833 0 360.85
v -606.2323 0 359.5765
v -613.276 0 364.2521
vt 0 1
vt 9.015625 0
vt 0 0
vt 9.015625 1
vt 0 0
vt 7 1
vt 7 0
vt 0 1
vt 0 1
vt 5 0
vt 0 0
vt 5 1
vt 5.519531 0
vt 0 1
vt 5.535156 1.000977
vt 0 0
vt 5.5 1
vt 0 0
vt 0 1
vt 5.5 0
vt 7.972656 0
vt 0 1
vt 7.972656 1
vt 0 0
vt 0 1
vt 5.507813 0
vt 0 0
vt 5.511719 1
vt 1 0
vt -0.5634766 1
vt 1 1
vt -0.5634766 9.995699E-05
vt 5 1
vt 0 0
vt 0 1
vt 5 0
vt 7.519531 0
vt 0 1
vt 7.519531 1
vt 0 0
vt 0 1
vt 7.519531 0
vt 0 0
vt 7.519531 1
vt 0 0
vt 6 1
vt 6 0
vt 0 1
vt 0.5 1
vt 0 0
vt 0 1
vt 0.5 0
vt 4.078125 0
vt 0 1
vt 4.078125 0.9995117
vt 0 0
vt 0 1
vt 4.078125 0
vt 0 0
vt 4.078125 1
vt 0 1
vt 4.957031 0
vt 0 0
vt 4.957031 0.9995117
vt 0 0
vt 0.5 1
vt 0.5 0
vt 0 1
vt 1 1
vt 1 0
vt 0.5 1
vt 0.25 0
vt 0.25 1
vt 0.5 0
vt 0 0
vt 0 1
vt 0 0
vt 8 1
vt 8 0
vt 0 1
vt 8 1
vt 0 0
vt 0 1
vt 8 0
vt 0 0
vt 5 1
vt 5 0
vt 0 1
vt 6.011719 0
vt 0 1
vt 6.011719 1
vt 0 0
vt 5.992188 0
vt 0 1
vt 5.992188 0.9990234
vt 0 0
vt 8.984375 0
vt 0 1
vt 8.984375 0.9995117
vt 0 0
vt 9 1
vt 0 0
vt 0 1
vt 9 0
vt 0 0
vt 0.25 1
vt 0.25 0
vt 0 1
vt 0.5 1
vt 0.5 0
vt 1 1
vt 0.5 0
vt 0.5 1
vt 1 0
vt 0 0
vt 0 1
vt 0 0
vt 6.5 1
vt 6.5 0
vt 0 1
vt 0 1
vt 6.480469 0
vt 0 0
vt 6.480469 0.9990234
vt 5.050781 0
vt 0 1
vt 5.050781 1
vt 0 0
vt 5 1
vt 0 0
vt 0 1
vt 5 0
vt 2 1
vt 0 0
vt 0 1
vt 2 0
vt 0 0
vt 3 1
vt 3 0
vt 0 1
vt 5.742188 -0.005199432
vt 0 1
vt 5.742188 0.9946289
vt 0 0
vt 0 1
vt 4.941406 0
vt 0 0
vt 4.941406 1
vt 4.5 1
vt 0 0
vt 0 1
vt 4.5 0
vt 2.960938 0
vt 0 1
vt 2.960938 1
vt 0 0
vt 0 0
vt 0.4987793 1
vt 0.4987793 0
vt 0 1
vt 1 1
vt 1 0
vt 1.500977 1
vt 1.500977 0
vt 2 1
vt 2 0
vt 1 1
vt 0.7504883 0
vt 0.7504883 1
vt 1 0
vt 0.5 0
vt 0.5 1
vt 0.2493896 0
vt 0.2493896 1
vt 0 0
vt 0 1
vt 0 0
vt 9.5 1
vt 9.5 0
vt 0 1
vt 0 0
vt 0.5 1
vt 0.5 0
vt 0 1
vt 0.5 1
vt 0 0
vt 0 1
vt 0.5 0
vt 0 0
vt 5 1
vt 5 0
vt 0 1
vt 3 1
vt 0 0
vt 0 1
vt 3 0
vt 0 0
vt 5 1
vt 5 0
vt 0 1
vt 0 0
vt 5.5 1
vt 5.5 0
vt 0 1
vt 5.5 1
vt 0 0
vt 0 1
vt 5.5 0
vt 0 1
vt 6.472656 0
vt 0 0
vt 6.472656 1
vt 0 0
vt 0.5 1
vt 0.5 0
vt 0 1
vt 0.5 1
vt 0 0
vt 0 1
vt 0.5 0
vt 0 0
vt 5.5 1
vt 5.5 0
vt 0 1
vt 5.5 1
vt 0 0
vt 0 1
vt 5.5 0
vt 0 0
vt 11 1
vt 11 0
vt 0 1
vt 11 1
vt 0 0
vt 0 1
vt 11 0
vt 10.9375 0.001499176
vt 0 1
vt 10.89844 1
vt 0 0
vt -4.386719 1
vt 6.484375 0
vt -4.351563 0.001499176
vt 6.484375 1
vt 0 1
vt 8.507813 0
vt 0 0
vt 8.507813 0.9995117
vt 6 1
vt 0 0
vt 0 1
vt 6 0
vt 0 0
vt 10 1
vt 10 0
vt 0 1
vt 8.5 1
vt 0 0
vt 0 1
vt 8.5 0
vt 8.484375 0
vt 0 1
vt 8.484375 1
vt 0 0
vt 0 1
vt 8.492188 0
vt 0 0
vt 8.492188 1
vt 0 0
vt 6 1
vt 6 0
vt 0 1
vt 0 1
vt 6.011719 0
vt 0 0
vt 6.011719 1
vt 4.5 1
vt 0 0
vt 0 1
vt 4.5 0
vt 0 0
vt 0.5 1
vt 0.5 0
vt 0 1
vt 0 0
vt 5 1
vt 5 0
vt 0 1
vt 4.5 1
vt 0 0
vt 0 1
vt 4.5 0
vt 3.533203 0
vt 0 1
vt 3.509766 1.001953
vt 0 0
vt 3.5 1
vt 0 0
vt 0 1
vt 3.5 0
vt 0 1
vt 2.421875 0
vt 0 0
vt 2.421875 1
vt 0 0
vt 9 1
vt 9 0
vt 0 1
vt 4 1
vt 0 0
vt 0 1
vt 4 0
vt 6.5 0
vt 0 1
vt 6.5 0.9995117
vt 0 0
vt 0 0
vt 3.5 1
vt 3.5 0
vt 0 1
vt 0 1
vt 3.539063 0
vt 0 0
vt 3.539063 0.9985352
vt 8.484375 0
vt 0 1
vt 8.484375 1
vt 0 0
vt 0 1
vt 8.484375 0
vt 0 0
vt 8.484375 1
vt 4.546875 0
vt 0 1
vt 4.546875 1
vt 0 0
vt 0 1
vt 4.546875 0
vt 0 0
vt 4.550781 0.9990234
vt 0 0
vt 0.5 1
vt 0.5 0
vt 0 1
vt 0.5 1
vt 0 0
vt 0 1
vt 0.5 0
vt 0 0
vt 4.5 1
vt 4.5 0
vt 0 1
vt 4.5 1
vt 0 0
vt 0 1
vt 4.5 0
vt 4.5 1
vt 0 0
vt 0 1
vt 4.5 0
vt 0 0
vt 6.5 1
vt 6.5 0
vt 0 1
vt 7.984375 0
vt 0 1
vt 7.984375 1
vt 0 0
vt 0 1
vt 4.515625 0
vt 0 0
vt 4.515625 1
vt 5.984375 0
vt 0 1
vt 5.984375 0.9990234
vt 0 0
vt 1 1
vt 13.00781 0
vt 13.00781 1
vt 1 0
vt 0 1
vt 8.5 0
vt 0 0
vt 8.5 1
vt 0 1
vt 10.00781 0
vt 0 0
vt 10.00781 1
vt 4.550781 0
vt 0 1
vt 4.550781 1
vt 0 0
vt 0 1
vt 12.00781 0
vt 0 0
vt 12.00781 1
vt 32.5 0
vt 0 1
vt 32.5 0.9995117
vt 0 0
vt 10.01563 0
vt 0 1
vt 10.01563 1
vt 0 0
vt 4.527344 0
vt 0 1
vt 4.527344 1
vt 0 0
vt 0 1
vt 4.527344 0
vt 0 0
vt 4.527344 1
vt 5.5 1
vt 0 0
vt 0 1
vt 5.5 0
vt 0 1
vt 6.015625 0
vt 0 0
vt 6.015625 1
vt 5.011719 0
vt 0 1
vt 5.011719 1
vt 0 0
vt 9.015625 0
vt 0 1
vt 9.015625 1
vt 0 0
vt 4.085938 0
vt 0 1
vt 4.085938 0.9985352
vt 0 0
vt 0 1
vt 4.085938 0
vt 0 0
vt 4.085938 1.000977
vt 0 1
vt 7.019531 0
vt 0 0
vt 7.007813 1
vt 9.476563 0
vt 0 1
vt 9.476563 1
vt 0 0
vt 0 1
vt 9.476563 0
vt 0 0
vt 9.476563 1
vt 7.980469 0
vt 0 1
vt 7.980469 1
vt 0 0
vt 0 1
vt 7.980469 0
vt 0 0
vt 7.980469 1
vt 5 0
vt 0 1
vt 5 1
vt 0 0
vt 6.527344 0
vt 0 1
vt 6.527344 1
vt 0 0
vt 0 1
vt 6.527344 0
vt 0 0
vt 6.527344 1
vt 3.923828 0
vt 0 1
vt 3.923828 1
vt 0 0
vt 0 1
vt 3.923828 0
vt 0 0
vt 3.923828 1
vt 0 1
vt 7.972656 0
vt 0 0
vt 7.972656 1
vt 5.507813 0
vt 0 1
vt 5.507813 1
vt 0 0
vt -0.5634766 1
vt 1 0
vt -0.5634766 -9.995699E-05
vt 1 1
vt 4.964844 0
vt 0 1
vt 4.949219 1.000977
vt 0 0
vt 4.464844 0
vt 0 1
vt 4.464844 1
vt 0 0
vt 0 1
vt 4.464844 0
vt 0 0
vt 4.464844 1
vt 1.895508 0
vt 0 1
vt 1.895508 1.000977
vt 0 0
vt 0 1
vt 1.895508 0
vt 0 0
vt 1.895508 0.9985352
vt 7.480469 0
vt 0 1
vt 7.480469 1
vt 0 0
vt 0 1
vt 7.480469 0
vt 0 0
vt 7.480469 1
vt 3.441406 0
vt 0 1
vt 3.441406 0.9990234
vt 0 0
vt 0 1
vt 3.441406 0
vt 0 0
vt 3.441406 1
vt 0 1
vt 5.449219 0
vt 0 0
vt 5.460938 1.000977
vt 4.535156 0
vt 0 1
vt 4.535156 1
vt 0 0
vt 0 1
vt 4.539063 0
vt 0 0
vt 4.539063 0.9995117
vt 4.957031 0
vt 0 1
vt 4.957031 1
vt 0 0
vt 5.039063 0
vt 0 1
vt 5.039063 1
vt 0 0
vt 0 1
vt 5.039063 0
vt 0 0
vt 5.039063 0.9990234
vt 4.496094 0
vt 0 1
vt 4.496094 1
vt 0 0
vt 0 1
vt 4.496094 0
vt 0 0
vt 4.496094 1
vt 0 1
vt 5.015625 0
vt 0 0
vt 5 1.000977
vt 0 1
vt 6.011719 0
vt 0 0
vt 6.011719 1
vt 7.488281 0
vt 0 1
vt 7.488281 1
vt 0 0
vt 0 1
vt 7.488281 0
vt 0 0
vt 7.488281 1
vt 5.519531 0
vt 0 1
vt 5.519531 1
vt 0 0
vt 0 1
vt 5.519531 0
vt 0 0
vt 5.519531 1
vt 4.53125 0
vt 0 1
vt 4.53125 1
vt 0 0
vt 0 1
vt 4.53125 0
vt 0 0
vt 4.53125 1
vt 0 1
vt 5.992188 0
vt 0 0
vt 5.992188 1
vt 9.476563 0
vt 0 1
vt 9.476563 1
vt 0 0
vt 0 1
vt 9.476563 0
vt 0 0
vt 9.476563 1
vt 2.691406 0
vt 0 1
vt 2.654297 1.001953
vt 0 0
vt 0 1
vt 3.125 0
vt 0 0
vt 3.125 1
vt 0 1
vt 6.277344 0.005699158
vt 0 0
vt 6.277344 1.004883
vt 4.941406 0
vt 0 1
vt 4.941406 1
vt 0 0
vt 3.925781 0
vt 0 1
vt 3.933594 1
vt 0 0
vt 8.46875 0
vt 0 1
vt 8.46875 1
vt 0 0
vt 0 1
vt 8.46875 0
vt 0 0
vt 8.46875 1
vt 11.47656 0
vt 0 1
vt 11.47656 1
vt 0 0
vt 0 1
vt 11.47656 0
vt 0 0
vt 11.47656 1
vt 0 1
vt 2.960938 0
vt 0 0
vt 2.960938 0.9995117
vt 3.445313 0
vt 0 1
vt 3.445313 0.9995117
vt 0 0
vt 0 1
vt 3.445313 0
vt 0 0
vt 3.445313 1
vt 5.03125 0
vt 0 1
vt 5.03125 1
vt 0 0
vt 0 1
vt 5.03125 0
vt 0 0
vt 5.03125 0.9995117
vt 0 1
vt 9.523438 0
vt 0 0
vt 9.523438 1
vt 0 1
vt 5 0
vt 0 0
vt 5 0.9990234
vt 3.119141 0
vt 0 1
vt 3.109375 1
vt 0 0
vt 1 0
vt -0.8994141 1
vt 1 1
vt -0.8994141 -0.001499176
vt -0.8994141 1
vt 1 0
vt -0.8994141 0.001499176
vt 1 1
vt 0 1
vt 4.988281 0
vt 0 0
vt 4.988281 0.9990234
vt 6.472656 0
vt 0 1
vt 6.472656 0.9995117
vt 0 0
vt 8.507813 0
vt 0 1
vt 8.507813 1
vt 0 0
vt 5.96875 0
vt 0 1
vt 5.96875 0.9995117
vt 0 0
vt 0 1
vt 10.02344 0
vt 0 0
vt 10.01563 1
vt 8.507813 0
vt 0 1
vt 8.507813 0.9995117
vt 0 0
vt 3.494141 0
vt 0 1
vt 3.492188 1
vt 0 0
vt 0 1
vt 3.498047 0
vt 0 0
vt 3.498047 0.9995117
vt 4.535156 0
vt 0 1
vt 4.53125 1
vt 0 0
vt 0 0
vt 1 1
vt 1 0
vt 0 1
vt 1 1
vt 0 0
vt 0 1
vt 1 0
vt 8.007813 0
vt 0 1
vt 8.007813 1
vt 0 0
vt 0 1
vt 8.007813 0
vt 0 0
vt 8.007813 0.9990234
vt 5.460938 0
vt 0 1
vt 5.460938 1
vt 0 0
vt 0 1
vt 5.460938 0
vt 0 0
vt 5.460938 1
vt 0 1
vt 6.765625 0
vt 0 0
vt 6.765625 1
vt 5.5 0
vt -1.267578 1
vt 5.5 1
vt -1.267578 0
vt 3.025391 0
vt 0 1
vt 3.025391 1
vt 0 0
vt 0 1
vt 3.025391 0
vt 0 0
vt 3.025391 1
vt 1 0
vt -0.6079102 1
vt 1 1
vt -0.6079102 -0.000399828
vt -0.6079102 1
vt 1 0
vt -0.6079102 0.000399828
vt 1 1
vt 2.421875 0
vt 0 1
vt 2.421875 0.9995117
vt 0 0
vt 9.46875 0
vt 0 1
vt 9.46875 0.9990234
vt 0 0
vt 0 1
vt 9.46875 0
vt 0 0
vt 9.46875 1
vt 0 1
vt 8.976563 0
vt 0 0
vt 8.96875 0.9995117
vt 3.947266 0
vt 0 1
vt 3.958984 1
vt 0 0
vt 4.453125 0
vt 0 1
vt 4.453125 0.9995117
vt 0 0
vt 0 1
vt 4.453125 0
vt 0 0
vt 4.453125 1
vt 0 1
vt 6.5 0
vt 0 0
vt 6.5 1
vt 4.535156 0
vt 0 1
vt 4.535156 1
vt 0 0
vt 0 1
vt 6.496094 0
vt 0 0
vt 6.488281 1
vt 0 1
vt 7.984375 0
vt 0 0
vt 7.984375 1
vt 4.515625 0
vt 0 1
vt 4.515625 0.9995117
vt 0 0
vt 7.027344 0
vt 0 1
vt 7.027344 1
vt 0 0
vt 0 1
vt 7.027344 0
vt 0 0
vt 7.027344 0.9995117
vt 10.99219 0
vt 0 1
vt 10.99219 1
vt 0 0
vt 0 1
vt 10.99219 0
vt 0 0
vt 10.99219 1
vt 4.027344 0
vt 0 1
vt 4.027344 1
vt 0 0
vt 0 1
vt 4.027344 0
vt 0 0
vt 4.027344 1
vt 0 1
vt 5.984375 0
vt 0 0
vt 5.984375 1
vt 12.01563 0
vt 0 1
vt 12.01563 1
vt 0 0
vt 0 1
vt 12.01563 0
vt 0 0
vt 12.01563 1
vt 0 1
vt 10.01563 0
vt 0 0
vt 10.01563 1
vt 8.5 0
vt 0 1
vt 8.5 1
vt 0 0
vt 11.47656 0
vt 0 1
vt 11.47656 1
vt 0 0
vt 0 1
vt 11.47656 0
vt 0 0
vt 11.47656 1
vt 10.00781 0
vt 0 1
vt 10.00781 1
vt 0 0
vt 7.476563 0
vt 0 1
vt 7.476563 1
vt 0 0
vt 0 1
vt 7.476563 0
vt 0 0
vt 7.476563 1
vt 0 1
vt 4.550781 0
vt 0 0
vt 4.550781 0.9995117
vt 12.00781 0
vt 0 1
vt 12.00781 0.9990234
vt 0 0
vt 0 1
vt 32.5 0
vt 0 0
vt 32.5 1
vt 0 1
vt 10.01563 0
vt 0 0
vt 10.01563 1
vt 5.007813 0
vt 0 1
vt 5.007813 1
vt 0 0
vt 0 1
vt 5.007813 0
vt 0 0
vt 5.007813 1
vt 5.46875 0
vt 0 1
vt 5.480469 1.000977
vt 0 0
vt 9.015625 0
vt 0 1
vt 9.015625 1
vt 0 0
vt 0 1
vt 9.015625 0
vt 0 0
vt 9.015625 1
vt 8.007813 0
vt 0 1
vt 8.007813 1
vt 0 0
vt 0 1
vt 8.007813 0
vt 0 0
vt 8.007813 0.9995117
vt 5.027344 0
vt 0 1
vt 5.027344 1
vt 0 0
vt 0 1
vt 5.027344 0
vt 0 0
vt 5.027344 1
vt 6.523438 0
vt 0 1
vt 6.523438 1
vt 0 0
vt 0 1
vt 6.523438 0
vt 0 0
vt 6.523438 0.9995117
vt 8.507813 0
vt 0 1
vt 8.507813 1
vt 0 0
vt 0 1
vt 8.507813 0
vt 0 0
vt 8.507813 1
vt 8.46875 0
vt 0 1
vt 8.46875 1
vt 0 0
vt 0 1
vt 8.46875 0
vt 0 0
vt 8.46875 1
vt 6.015625 0
vt 0 1
vt 6.015625 1
vt 0 0
vt 4.476563 0
vt 0 1
vt 4.476563 1
vt 0 0
vt 0 1
vt 4.476563 0
vt 0 0
vt 4.476563 1
vt 0 1
vt 5.011719 0
vt 0 0
vt 5.011719 1
vt 0 0
vt 0.5 1
vt 0.5 0
vt 0 1
vt 0.5 1
vt 0 0
vt 0 1
vt 0.5 0
vn 0 1 0
vn 0 1 0
vn 0 1 0
vn 0 1 0
vn 0 1 0
vn 0 1 0
vn 0 1 0
vn 0 1 0
vn 0 1 0
vn 0 1 0
vn 0 1 0
vn 0 1 0
vn 0 1 0
vn 0 1 0
vn 0 1 0
vn 0 1 0
vn 0 1 0
vn 0 1 0
vn 0 1 0
vn 0 1 0
vn 0 1 0
vn 0 1 0
vn 0 1 0
vn 0 1 0
vn 0 1 0
vn 0 1 0
vn 0 1 0
vn 0 1 0
vn 0 1 0
vn 0 1 0
vn 0 1 0
vn 0 1 0
vn 0 1 0
vn 0 1 0
vn 0 1 0
vn 0 1 0
vn 0 1 0
vn 0 1 0
vn 0 1 0
vn 0 1 0
vn 0 1 0
vn 0 1 0
vn 0 1 0
vn 0 1 0
vn 0 1 0
vn 0 1 0
vn 0 1 0
vn 0 1 0
vn 0 1 0
vn 0 1 0
vn 0 1 0
vn 0 1 0
vn 0 1 0
vn 0 1 0
vn 0 1 0
vn 0 1 0
vn 0 1 0
vn 0 1 0
vn 0 1 0
vn 0 1 0
vn 0 1 0
vn 0 1 0
vn 0 1 0
vn 0 1 0
vn 0 1 0
vn 0 1 0
vn 0 1 0
vn 0 1 0
vn 0 1 0
vn 0 1 0
vn 0 1 0
vn 0 1 0
vn 0 1 0
vn 0 1 0
vn 0 1 0
vn 0 1 0
vn 0 1 0
vn 0 1 0
vn 0 1 0
vn 0 1 0
vn 0 1 0
vn 0 1 0
vn 0 1 0
vn 0 1 0
vn 0 1 0
vn 0 1 0
vn 0 1 0
vn 0 1 0
vn 0 1 0
vn 0 1 0
vn 0 1 0
vn 0 1 0
vn 0 1 0
vn 0 1 0
vn 0 1 0
vn 0 1 0
vn 0 1 0
vn 0 1 0
vn 0 1 0
vn 0 1 0
vn 0 1 0
vn 0 1 0
vn 0 1 0
vn 0 1 0
vn 0 1 0
vn 0 1 0
vn 0 1 0
vn 0 1 0
vn 0 1 0
vn 0 1 0
vn 0 1 0
vn 0 1 0
vn 0 1 0
vn 0 1 0
vn 0 1 0
vn 0 1 0
vn 0 1 0
vn 0 1 0
vn 0 1 0
vn 0 1 0
vn 0 1 0
vn 0 1 0
vn 0 1 0
vn 0 1 0
vn 0 1 0
vn 0 1 0
vn 0 1 0
vn 0 1 0
vn 0 1 0
vn 0 1 0
vn 0 1 0
vn 0 1 0
vn 0 1 0
vn 0 1 0
vn 0 1 0
vn 0 1 0
vn 0 1 0
vn 0 1 0
vn 0 1 0
vn 0 1 0
vn 0 1 0
vn 0 1 0
vn 0 1 0
vn 0 1 0
vn 0 1 0
vn 0 1 0
vn 0 1 0
vn 0 1 0
vn 0 1 0
vn 0 1 0
vn 0 1 0
vn 0 1 0
vn 0 1 0
vn 0 1 0
vn 0 1 0
vn 0 1 0
vn 0 1 0
vn 0 1 0
vn 0 1 0
vn 0 1 0
vn 0 1 0
vn 0 1 0
vn 0 1 0
vn 0 1 0
vn 0 1 0
vn 0 1 0
vn 0 1 0
vn 0 1 0
vn 0 1 0
vn 0 1 0
vn 0 1 0
vn 0 1 0
vn 0 1 0
vn 0 1 0
vn 0 1 0
vn 0 1 0
vn 0 1 0
vn 0 1 0
vn 0 1 0
vn 0 1 0
vn 0 1 0
vn 0 1 0
vn 0 1 0
vn 0 1 0
vn 0 1 0
vn 0 1 0
vn 0 1 0
vn 0 1 0
vn 0 1 0
vn 0 1 0
vn 0 1 0
vn 0 1 0
vn 0 1 0
vn 0 1 0
vn 0 1 0
vn 0 1 0
vn 0 1 0
vn 0 1 0
vn 0 1 0
vn 0 1 0
vn 0 1 0
vn 0 1 0
vn 0 1 0
vn 0 1 0
vn 0 1 0
vn 0 1 0
vn 0 1 0
vn 0 1 0
vn 0 1 0
vn 0 1 0
vn 0 1 0
vn 0 1 0
vn 0 1 0
vn 0 1 0
vn 0 1 0
vn 0 1 0
vn 0 1 0
vn 0 1 0
vn 0 1 0
vn 0 1 0
vn 0 1 0
vn 0 1 0
vn 0 1 0
vn 0 1 0
vn 0 1 0
vn 0 1 0
vn 0 1 0
vn 0 1 0
vn 0 1 0
vn 0 1 0
vn 0 1 0
vn 0 1 0
vn 0 1 0
vn 0 1 0
vn 0 1 0
vn 0 1 0
vn 0 1 0
vn 0 1 0
vn 0 1 0
vn 0 1 0
vn 0 1 0
vn 0 1 0
vn 0 1 0
vn 0 1 0
vn 0 1 0
vn 0 1 0
vn 0 1 0
vn 0 1 0
vn 0 1 0
vn 0 1 0
vn 0 1 0
vn 0 1 0
vn 0 1 0
vn 0 1 0
vn 0 1 0
vn 0 1 0
vn 0 1 0
vn 0 1 0
vn 0 1 0
vn 0 1 0
vn 0 1 0
vn 0 1 0
vn 0 1 0
vn 0 1 0
vn 0 1 0
vn 0 1 0
vn 0 1 0
vn 0 1 0
vn 0 1 0
vn 0 1 0
vn 0 1 0
vn 0 1 0
vn 0 1 0
vn 0 1 0
vn 0 1 0
vn 0 1 0
vn 0 1 0
vn 0 1 0
vn 0 1 0
vn 0 1 0
vn 0 1 0
vn 0 1 0
vn 0 1 0
vn 0 1 0
vn 0 1 0
vn 0 1 0
vn 0 1 0
vn 0 1 0
vn 0 1 0
vn 0 1 0
vn 0 1 0
vn 0 1 0
vn 0 1 0
vn 0 1 0
vn 0 1 0
vn 0 1 0
vn 0 1 0
vn 0 1 0
vn 0 1 0
vn 0 1 0
vn 0 1 0
vn 0 1 0
vn 0 1 0
vn 0 1 0
vn 0 1 0
vn 0 1 0
vn 0 1 0
vn 0 1 0
vn 0 1 0
vn 0 1 0
vn 0 1 0
vn 0 1 0
vn 0 1 0
vn 0 1 0
vn 0 1 0
vn 0 1 0
vn 0 1 0
vn 0 1 0
vn 0 1 0
vn 0 1 0
vn 0 1 0
vn 0 1 0
vn 0 1 0
vn 0 1 0
vn 0 1 0
vn 0 1 0
vn 0 1 0
vn 0 1 0
vn 0 1 0
vn 0 1 0
vn 0 1 0
vn 0 1 0
vn 0 1 0
vn 0 1 0
vn 0 1 0
vn 0 1 0
vn 0 1 0
vn 0 1 0
vn 0 1 0
vn 0 1 0
vn 0 1 0
vn 0 1 0
vn 0 1 0
vn 0 1 0
vn 0 1 0
vn 0 1 0
vn 0 1 0
vn 0 1 0
vn 0 1 0
vn 0 1 0
vn 0 1 0
vn 0 1 0
vn 0 1 0
vn 0 1 0
vn 0 1 0
vn 0 1 0
vn 0 1 0
vn 0 1 0
vn 0 1 0
vn 0 1 0
vn 0 1 0
vn 0 1 0
vn 0 1 0
vn 0 1 0
vn 0 1 0
vn 0 1 0
vn 0 1 0
vn 0 1 0
vn 0 1 0
vn 0 1 0
vn 0 1 0
vn 0 1 0
vn 0 1 0
vn 0 1 0
vn 0 1 0
vn 0 1 0
vn 0 1 0
vn 0 1 0
vn 0 1 0
vn 0 1 0
vn 0 1 0
vn 0 1 0
vn 0 1 0
vn 0 1 0
vn 0 1 0
vn 0 1 0
vn 0 1 0
vn 0 1 0
vn 0 1 0
vn 0 1 0
vn 0 1 0
vn 0 1 0
vn 0 1 0
vn 0 1 0
vn 0 1 0
vn 0 1 0
vn 0 1 0
vn 0 1 0
vn 0 1 0
vn 0 1 0
vn 0 1 0
vn 0 1 0
vn 0 1 0
vn 0 1 0
vn 0 1 0
vn 0 1 0
vn 0 1 0
vn 0 1 0
vn 0 1 0
vn 0 1 0
vn 0 1 0
vn 0 1 0
vn 0 1 0
vn 0 1 0
vn 0 1 0
vn 0 1 0
vn 0 1 0
vn 0 1 0
vn 0 1 0
vn 0 1 0
vn 0 1 0
vn 0 1 0
vn 0 1 0
vn 0 1 0
vn 0 1 0
vn 0 1 0
vn 0 1 0
vn 0 1 0
vn 0 1 0
vn 0 1 0
vn 0 1 0
vn 0 1 0
vn 0 1 0
vn 0 1 0
vn 0 1 0
vn 0 1 0
vn 0 1 0
vn 0 1 0
vn 0 1 0
vn 0 1 0
vn 0 1 0
vn 0 1 0
vn 0 1 0
vn 0 1 0
vn 0 1 0
vn 0 1 0
vn 0 1 0
vn 0 1 0
vn 0 1 0
vn 0 1 0
vn 0 1 0
vn 0 1 0
vn 0 1 0
vn 0 1 0
vn 0 1 0
vn 0 1 0
vn 0 1 0
vn 0 1 0
vn 0 1 0
vn 0 1 0
vn 0 1 0
vn 0 1 0
vn 0 1 0
vn 0 1 0
vn 0 1 0
vn 0 1 0
vn 0 1 0
vn 0 1 0
vn 0 1 0
vn 0 1 0
vn 0 1 0
vn 0 1 0
vn 0 1 0
vn 0 1 0
vn 0 1 0
vn 0 1 0
vn 0 1 0
vn 0 1 0
vn 0 1 0
vn 0 1 0
vn 0 1 0
vn 0 1 0
vn 0 1 0
vn 0 1 0
vn 0 1 0
vn 0 1 0
vn 0 1 0
vn 0 1 0
vn 0 1 0
vn 0 1 0
vn 0 1 0
vn 0 1 0
vn 0 1 0
vn 0 1 0
vn 0 1 0
vn 0 1 0
vn 0 1 0
vn 0 1 0
vn 0 1 0
vn 0 1 0
vn 0 1 0
vn 0 1 0
vn 0 1 0
vn 0 1 0
vn 0 1 0
vn 0 1 0
vn 0 1 0
vn 0 1 0
vn 0 1 0
vn 0 1 0
vn 0 1 0
vn 0 1 0
vn 0 1 0
vn 0 1 0
vn 0 1 0
vn 0 1 0
vn 0 1 0
vn 0 1 0
vn 0 1 0
vn 0 1 0
vn 0 1 0
vn 0 1 0
vn 0 1 0
vn 0 1 0
vn 0 1 0
vn 0 1 0
vn 0 1 0
vn 0 1 0
vn 0 1 0
vn 0 1 0
vn 0 1 0
vn 0 1 0
vn 0 1 0
vn 0 1 0
vn 0 1 0
vn 0 1 0
vn 0 1 0
vn 0 1 0
vn 0 1 0
vn 0 1 0
vn 0 1 0
vn 0 1 0
vn 0 1 0
vn 0 1 0
vn 0 1 0
vn 0 1 0
vn 0 1 0
vn 0 1 0
vn 0 1 0
vn 0 1 0
vn 0 1 0
vn 0 1 0
vn 0 1 0
vn 0 1 0
vn 0 1 0
vn 0 1 0
vn 0 1 0
vn 0 1 0
vn 0 1 0
vn 0 1 0
vn 0 1 0
vn 0 1 0
vn 0 1 0
vn 0 1 0
vn 0 1 0
vn 0 1 0
vn 0 1 0
vn 0 1 0
vn 0 1 0
vn 0 1 0
vn 0 1 0
vn 0 1 0
vn 0 1 0
vn 0 1 0
vn 0 1 0
vn 0 1 0
vn 0 1 0
vn 0 1 0
vn 0 1 0
vn 0 1 0
vn 0 1 0
vn 0 1 0
vn 0 1 0
vn 0 1 0
vn 0 1 0
vn 0 1 0
vn 0 1 0
vn 0 1 0
vn 0 1 0
vn 0 1 0
vn 0 1 0
vn 0 1 0
vn 0 1 0
vn 0 1 0
vn 0 1 0
vn 0 1 0
vn 0 1 0
vn 0 1 0
vn 0 1 0
vn 0 1 0
vn 0 1 0
vn 0 1 0
vn 0 1 0
vn 0 1 0
vn 0 1 0
vn 0 1 0
vn 0 1 0
vn 0 1 0
vn 0 1 0
vn 0 1 0
vn 0 1 0
vn 0 1 0
vn 0 1 0
vn 0 1 0
vn 0 1 0
vn 0 1 0
vn 0 1 0
vn 0 1 0
vn 0 1 0
vn 0 1 0
vn 0 1 0
vn 0 1 0
vn 0 1 0
vn 0 1 0
vn 0 1 0
vn 0 1 0
vn 0 1 0
vn 0 1 0
vn 0 1 0
vn 0 1 0
vn 0 1 0
vn 0 1 0
vn 0 1 0
vn 0 1 0
vn 0 1 0
vn 0 1 0
vn 0 1 0
vn 0 1 0
vn 0 1 0
vn 0 1 0
vn 0 1 0
vn 0 1 0
vn 0 1 0
vn 0 1 0
vn 0 1 0
vn 0 1 0
vn 0 1 0
vn 0 1 0
vn 0 1 0
vn 0 1 0
vn 0 1 0
vn 0 1 0
vn 0 1 0
vn 0 1 0
vn 0 1 0
vn 0 1 0
vn 0 1 0
vn 0 1 0
vn 0 1 0
vn 0 1 0
vn 0 1 0
vn 0 1 0
vn 0 1 0
vn 0 1 0
vn 0 1 0
vn 0 1 0
vn 0 1 0
vn 0 1 0
vn 0 1 0
vn 0 1 0
vn 0 1 0
vn 0 1 0
vn 0 1 0
vn 0 1 0
vn 0 1 0
vn 0 1 0
vn 0 1 0
vn 0 1 0
vn 0 1 0
vn 0 1 0
vn 0 1 0
vn 0 1 0
vn 0 1 0
vn 0 1 0
vn 0 1 0
vn 0 1 0
vn 0 1 0
vn 0 1 0
vn 0 1 0
vn 0 1 0
vn 0 1 0
vn 0 1 0
vn 0 1 0
vn 0 1 0
vn 0 1 0
vn 0 1 0
vn 0 1 0
vn 0 1 0
vn 0 1 0
vn 0 1 0
vn 0 1 0
vn 0 1 0
vn 0 1 0
vn 0 1 0
vn 0 1 0
vn 0 1 0
vn 0 1 0
vn 0 1 0
vn 0 1 0
vn 0 1 0
vn 0 1 0
vn 0 1 0
vn 0 1 0
vn 0 1 0
vn 0 1 0
vn 0 1 0
vn 0 1 0
vn 0 1 0
vn 0 1 0
vn 0 1 0
vn 0 1 0
vn 0 1 0
vn 0 1 0
vn 0 1 0
vn 0 1 0
vn 0 1 0
vn 0 1 0
vn 0 1 0
vn 0 1 0
vn 0 1 0
vn 0 1 0
vn 0 1 0
vn 0 1 0
vn 0 1 0
vn 0 1 0
vn 0 1 0
vn 0 1 0
vn 0 1 0
vn 0 1 0
vn 0 1 0
vn 0 1 0
vn 0 1 0
vn 0 1 0
vn 0 1 0
vn 0 1 0
vn 0 1 0
vn 0 1 0
vn 0 1 0
vn 0 1 0
vn 0 1 0
vn 0 1 0
vn 0 1 0
vn 0 1 0
vn 0 1 0
vn 0 1 0
vn 0 1 0
vn 0 1 0
vn 0 1 0
vn 0 1 0
vn 0 1 0
vn 0 1 0
vn 0 1 0
vn 0 1 0
vn 0 1 0
vn 0 1 0
vn 0 1 0
vn 0 1 0
vn 0 1 0
vn 0 1 0
vn 0 1 0
vn 0 1 0
vn 0 1 0
vn 0 1 0
vn 0 1 0
vn 0 1 0
vn 0 1 0
vn 0 1 0
vn 0 1 0
vn 0 1 0
vn 0 1 0
vn 0 1 0
vn 0 1 0
vn 0 1 0
vn 0 1 0
vn 0 1 0
vn 0 1 0
vn 0 1 0
vn 0 1 0
vn 0 1 0
vn 0 1 0
vn 0 1 0
vn 0 1 0
vn 0 1 0
vn 0 1 0
vn 0 1 0
vn 0 1 0
vn 0 1 0
vn 0 1 0
vn 0 1 0
vn 0 1 0
vn 0 1 0
vn 0 1 0
vn 0 1 0
vn 0 1 0
vn 0 1 0
vn 0 1 0
vn 0 1 0
vn 0 1 0
vn 0 1 0
vn 0 1 0
vn 0 1 0
vn 0 1 0
vn 0 1 0
vn 0 1 0
vn 0 1 0
vn 0 1 0
vn 0 1 0
vn 0 1 0
vn 0 1 0
vn 0 1 0
vn 0 1 0
vn 0 1 0
vn 0 1 0
vn 0 1 0
vn 0 1 0
vn 0 1 0
vn 0 1 0
vn 0 1 0
vn 0 1 0
vn 0 1 0
vn 0 1 0
vn 0 1 0
vn 0 1 0
vn 0 1 0
vn 0 1 0
vn 0 1 0
vn 0 1 0
vn 0 1 0
vn 0 1 0
vn 0 1 0
vn 0 1 0
vn 0 1 0
vn 0 1 0
vn 0 1 0
vn 0 1 0
vn 0 1 0
vn 0 1 0
vn 0 1 0
vn 0 1 0
vn 0 1 0
vn 0 1 0
vn 0 1 0
vn 0 1 0
vn 0 1 0
vn 0 1 0
vn 0 1 0
vn 0 1 0
vn 0 1 0
vn 0 1 0
vn 0 1 0
vn 0 1 0
vn 0 1 0
vn 0 1 0
vn 0 1 0
vn 0 1 0
vn 0 1 0
vn 0 1 0
vn 0 1 0
vn 0 1 0
vn 0 1 0
vn 0 1 0
vn 0 1 0
vn 0 1 0
vn 0 1 0
vn 0 1 0
vn 0 1 0
vn 0 1 0
vn 0 1 0
vn 0 1 0
vn 0 1 0
vn 0 1 0
vn 0 1 0
vn 0 1 0
vn 0 1 0
vn 0 1 0
vn 0 1 0
vn 0 1 0
vn 0 1 0
vn 0 1 0
vn 0 1 0
vn 0 1 0
vn 0 1 0
vn 0 1 0
vn 0 1 0
vn 0 1 0
vn 0 1 0
vn 0 1 0
vn 0 1 0
vn 0 1 0
vn 0 1 0
vn 0 1 0
vn 0 1 0
vn 0 1 0
vn 0 1 0
vn 0 1 0
vn 0 1 0
vn 0 1 0
vn 0 1 0
vn 0 1 0
vn 0 1 0
vn 0 1 0
vn 0 1 0
vn 0 1 0
vn 0 1 0
vn 0 1 0
vn 0 1 0
vn 0 1 0
vn 0 1 0
vn 0 1 0
vn 0 1 0
vn 0 1 0
vn 0 1 0
vn 0 1 0
vn 0 1 0
vn 0 1 0
vn 0 1 0
vn 0 1 0
vn 0 1 0
vn 0 1 0
vn 0 1 0
vn 0 1 0
vn 0 1 0
vn 0 1 0
vn 0 1 0
vn 0 1 0
vn 0 1 0
vn 0 1 0
vn 0 1 0
vn 0 1 0
vn 0 1 0
vn 0 1 0
vn 0 1 0
vn 0 1 0
vn 0 1 0
vn 0 1 0
vn 0 1 0
vn 0 1 0
vn 0 1 0
vn 0 1 0
vn 0 1 0
vn 0 1 0
vn 0 1 0
vn 0 1 0
vn 0 1 0
vn 0 1 0
vn 0 1 0
vn 0 1 0
vn 0 1 0
vn 0 1 0
vn 0 1 0
vn 0 1 0
vn 0 1 0
vn 0 1 0
vn 0 1 0
vn 0 1 0
vn 0 1 0
vn 0 1 0
vn 0 1 0
vn 0 1 0
vn 0 1 0
vn 0 1 0
vn 0 1 0
g polySurface2_0
f 3/3/3 2/2/2 1/1/1
f 2/2/2 4/4/4 1/1/1
f 7/7/7 6/6/6 5/5/5
f 6/6/6 8/8/8 5/5/5
f 11/11/11 10/10/10 9/9/9
f 10/10/10 12/12/12 9/9/9
f 15/15/15 14/14/14 13/13/13
f 14/14/14 16/16/16 13/13/13
f 19/19/19 18/18/18 17/17/17
f 18/18/18 20/20/20 17/17/17
f 23/23/23 22/22/22 21/21/21
f 22/22/22 24/24/24 21/21/21
f 27/27/27 26/26/26 25/25/25
f 26/26/26 28/28/28 25/25/25
f 31/31/31 30/30/30 29/29/29
f 30/30/30 32/32/32 29/29/29
f 35/35/35 34/34/34 33/33/33
f 34/34/34 36/36/36 33/33/33
f 39/39/39 38/38/38 37/37/37
f 38/38/38 40/40/40 37/37/37
f 43/43/43 42/42/42 41/41/41
f 42/42/42 44/44/44 41/41/41
f 47/47/47 46/46/46 45/45/45
f 46/46/46 48/48/48 45/45/45
f 51/51/51 50/50/50 49/49/49
f 50/50/50 52/52/52 49/49/49
f 55/55/55 54/54/54 53/53/53
f 54/54/54 56/56/56 53/53/53
f 59/59/59 58/58/58 57/57/57
f 58/58/58 60/60/60 57/57/57
f 63/63/63 62/62/62 61/61/61
f 62/62/62 64/64/64 61/61/61
f 67/67/67 66/66/66 65/65/65
f 66/66/66 68/68/68 65/65/65
f 69/69/69 66/66/66 67/67/67
f 70/70/70 69/69/69 67/67/67
f 73/73/73 72/72/72 71/71/71
f 72/72/72 74/74/74 71/71/71
f 75/75/75 72/72/72 73/73/73
f 76/76/76 75/75/75 73/73/73
f 79/79/79 78/78/78 77/77/77
f 78/78/78 80/80/80 77/77/77
f 83/83/83 82/82/82 81/81/81
f 82/82/82 84/84/84 81/81/81
f 87/87/87 86/86/86 85/85/85
f 86/86/86 88/88/88 85/85/85
f 91/91/91 90/90/90 89/89/89
f 90/90/90 92/92/92 89/89/89
f 95/95/95 94/94/94 93/93/93
f 94/94/94 96/96/96 93/93/93
f 99/99/99 98/98/98 97/97/97
f 98/98/98 100/100/100 97/97/97
f 103/103/103 102/102/102 101/101/101
f 102/102/102 104/104/104 101/101/101
f 107/107/107 106/106/106 105/105/105
f 106/106/106 108/108/108 105/105/105
f 109/109/109 106/106/106 107/107/107
f 110/110/110 109/109/109 107/107/107
f 113/113/113 112/112/112 111/111/111
f 112/112/112 114/114/114 111/111/111
f 115/115/115 112/112/112 113/113/113
f 116/116/116 115/115/115 113/113/113
f 119/119/119 118/118/118 117/117/117
f 118/118/118 120/120/120 117/117/117
f 123/123/123 122/122/122 121/121/121
f 122/122/122 124/124/124 121/121/121
f 127/127/127 126/126/126 125/125/125
f 126/126/126 128/128/128 125/125/125
f 131/131/131 130/130/130 129/129/129
f 130/130/130 132/132/132 129/129/129
f 135/135/135 134/134/134 133/133/133
f 134/134/134 136/136/136 133/133/133
f 139/139/139 138/138/138 137/137/137
f 138/138/138 140/140/140 137/137/137
f 143/143/143 142/142/142 141/141/141
f 142/142/142 144/144/144 141/141/141
f 147/147/147 146/146/146 145/145/145
f 146/146/146 148/148/148 145/145/145
f 151/151/151 150/150/150 149/149/149
f 150/150/150 152/152/152 149/149/149
f 155/155/155 154/154/154 153/153/153
f 154/154/154 156/156/156 153/153/153
f 159/159/159 158/158/158 157/157/157
f 158/158/158 160/160/160 157/157/157
f 161/161/161 158/158/158 159/159/159
f 162/162/162 161/161/161 159/159/159
f 163/163/163 161/161/161 162/162/162
f 164/164/164 163/163/163 162/162/162
f 165/165/165 163/163/163 164/164/164
f 166/166/166 165/165/165 164/164/164
f 169/169/169 168/168/168 167/167/167
f 168/168/168 170/170/170 167/167/167
f 171/171/171 168/168/168 169/169/169
f 172/172/172 171/171/171 169/169/169
f 173/173/173 171/171/171 172/172/172
f 174/174/174 173/173/173 172/172/172
f 175/175/175 173/173/173 174/174/174
f 176/176/176 175/175/175 174/174/174
f 179/179/179 178/178/178 177/177/177
f 178/178/178 180/180/180 177/177/177
f 183/183/183 182/182/182 181/181/181
f 182/182/182 184/184/184 181/181/181
f 187/187/187 186/186/186 185/185/185
f 186/186/186 188/188/188 185/185/185
f 191/191/191 190/190/190 189/189/189
f 190/190/190 192/192/192 189/189/189
f 195/195/195 194/194/194 193/193/193
f 194/194/194 196/196/196 193/193/193
f 199/199/199 198/198/198 197/197/197
f 198/198/198 200/200/200 197/197/197
f 203/203/203 202/202/202 201/201/201
f 202/202/202 204/204/204 201/201/201
f 207/207/207 206/206/206 205/205/205
f 206/206/206 208/208/208 205/205/205
f 211/211/211 210/210/210 209/209/209
f 210/210/210 212/212/212 209/209/209
f 215/215/215 214/214/214 213/213/213
f 214/214/214 216/216/216 213/213/213
f 219/219/219 218/218/218 217/217/217
f 218/218/218 220/220/220 217/217/217
f 223/223/223 222/222/222 221/221/221
f 222/222/222 224/224/224 221/221/221
f 227/227/227 226/226/226 225/225/225
f 226/226/226 228/228/228 225/225/225
f 231/231/231 230/230/230 229/229/229
f 230/230/230 232/232/232 229/229/229
f 235/235/235 234/234/234 233/233/233
f 234/234/234 236/236/236 233/233/233
f 239/239/239 238/238/238 237/237/237
f 238/238/238 240/240/240 237/237/237
f 243/243/243 242/242/242 241/241/241
f 242/242/242 244/244/244 241/241/241
f 247/247/247 246/246/246 245/245/245
f 246/246/246 248/248/248 245/245/245
f 251/251/251 250/250/250 249/249/249
f 250/250/250 252/252/252 249/249/249
f 255/255/255 254/254/254 253/253/253
f 254/254/254 256/256/256 253/253/253
f 259/259/259 258/258/258 257/257/257
f 258/258/258 260/260/260 257/257/257
f 263/263/263 262/262/262 261/261/261
f 262/262/262 264/264/264 261/261/261
f 267/267/267 266/266/266 265/265/265
f 266/266/266 268/268/268 265/265/265
f 271/271/271 270/270/270 269/269/269
f 270/270/270 272/272/272 269/269/269
f 275/275/275 274/274/274 273/273/273
f 274/274/274 276/276/276 273/273/273
f 279/279/279 278/278/278 277/277/277
f 278/278/278 280/280/280 277/277/277
f 283/283/283 282/282/282 281/281/281
f 282/282/282 284/284/284 281/281/281
f 287/287/287 286/286/286 285/285/285
f 286/286/286 288/288/288 285/285/285
f 291/291/291 290/290/290 289/289/289
f 290/290/290 292/292/292 289/289/289
f 295/295/295 294/294/294 293/293/293
f 294/294/294 296/296/296 293/293/293
f 299/299/299 298/298/298 297/297/297
f 298/298/298 300/300/300 297/297/297
f 303/303/303 302/302/302 301/301/301
f 302/302/302 304/304/304 301/301/301
f 307/307/307 306/306/306 305/305/305
f 306/306/306 308/308/308 305/305/305
f 311/311/311 310/310/310 309/309/309
f 310/310/310 312/312/312 309/309/309
f 315/315/315 314/314/314 313/313/313
f 314/314/314 316/316/316 313/313/313
f 319/319/319 318/318/318 317/317/317
f 318/318/318 320/320/320 317/317/317
f 323/323/323 322/322/322 321/321/321
f 322/322/322 324/324/324 321/321/321
f 327/327/327 326/326/326 325/325/325
f 326/326/326 328/328/328 325/325/325
f 331/331/331 330/330/330 329/329/329
f 330/330/330 332/332/332 329/329/329
f 335/335/335 334/334/334 333/333/333
f 334/334/334 336/336/336 333/333/333
f 339/339/339 338/338/338 337/337/337
f 338/338/338 340/340/340 337/337/337
f 343/343/343 342/342/342 341/341/341
f 342/342/342 344/344/344 341/341/341
f 347/347/347 346/346/346 345/345/345
f 346/346/346 348/348/348 345/345/345
f 351/351/351 350/350/350 349/349/349
f 350/350/350 352/352/352 349/349/349
f 355/355/355 354/354/354 353/353/353
f 354/354/354 356/356/356 353/353/353
f 359/359/359 358/358/358 357/357/357
f 358/358/358 360/360/360 357/357/357
f 363/363/363 362/362/362 361/361/361
f 362/362/362 364/364/364 361/361/361
f 367/367/367 366/366/366 365/365/365
f 366/366/366 368/368/368 365/365/365
f 371/371/371 370/370/370 369/369/369
f 370/370/370 372/372/372 369/369/369
f 375/375/375 374/374/374 373/373/373
f 374/374/374 376/376/376 373/373/373
f 379/379/379 378/378/378 377/377/377
f 378/378/378 380/380/380 377/377/377
f 383/383/383 382/382/382 381/381/381
f 382/382/382 384/384/384 381/381/381
f 387/387/387 386/386/386 385/385/385
f 386/386/386 388/388/388 385/385/385
f 391/391/391 390/390/390 389/389/389
f 390/390/390 392/392/392 389/389/389
f 395/395/395 394/394/394 393/393/393
f 394/394/394 396/396/396 393/393/393
f 399/399/399 398/398/398 397/397/397
f 398/398/398 400/400/400 397/397/397
f 403/403/403 402/402/402 401/401/401
f 402/402/402 404/404/404 401/401/401
f 407/407/407 406/406/406 405/405/405
f 406/406/406 408/408/408 405/405/405
f 411/411/411 410/410/410 409/409/409
f 410/410/410 412/412/412 409/409/409
f 415/415/415 414/414/414 413/413/413
f 414/414/414 416/416/416 413/413/413
f 419/419/419 418/418/418 417/417/417
f 418/418/418 420/420/420 417/417/417
f 423/423/423 422/422/422 421/421/421
f 422/422/422 424/424/424 421/421/421
f 427/427/427 426/426/426 425/425/425
f 426/426/426 428/428/428 425/425/425
f 431/431/431 430/430/430 429/429/429
f 430/430/430 432/432/432 429/429/429
f 435/435/435 434/434/434 433/433/433
f 434/434/434 436/436/436 433/433/433
f 439/439/439 438/438/438 437/437/437
f 438/438/438 440/440/440 437/437/437
f 443/443/443 442/442/442 441/441/441
f 442/442/442 444/444/444 441/441/441
f 447/447/447 446/446/446 445/445/445
f 446/446/446 448/448/448 445/445/445
f 451/451/451 450/450/450 449/449/449
f 450/450/450 452/452/452 449/449/449
f 455/455/455 454/454/454 453/453/453
f 454/454/454 456/456/456 453/453/453
f 459/459/459 458/458/458 457/457/457
f 458/458/458 460/460/460 457/457/457
f 463/463/463 462/462/462 461/461/461
f 462/462/462 464/464/464 461/461/461
f 467/467/467 466/466/466 465/465/465
f 466/466/466 468/468/468 465/465/465
f 471/471/471 470/470/470 469/469/469
f 470/470/470 472/472/472 469/469/469
f 475/475/475 474/474/474 473/473/473
f 474/474/474 476/476/476 473/473/473
f 479/479/479 478/478/478 477/477/477
f 478/478/478 480/480/480 477/477/477
f 483/483/483 482/482/482 481/481/481
f 482/482/482 484/484/484 481/481/481
f 487/487/487 486/486/486 485/485/485
f 486/486/486 488/488/488 485/485/485
f 491/491/491 490/490/490 489/489/489
f 490/490/490 492/492/492 489/489/489
f 495/495/495 494/494/494 493/493/493
f 494/494/494 496/496/496 493/493/493
f 499/499/499 498/498/498 497/497/497
f 498/498/498 500/500/500 497/497/497
f 503/503/503 502/502/502 501/501/501
f 502/502/502 504/504/504 501/501/501
f 507/507/507 506/506/506 505/505/505
f 506/506/506 508/508/508 505/505/505
f 511/511/511 510/510/510 509/509/509
f 510/510/510 512/512/512 509/509/509
f 515/515/515 514/514/514 513/513/513
f 514/514/514 516/516/516 513/513/513
f 519/519/519 518/518/518 517/517/517
f 518/518/518 520/520/520 517/517/517
f 523/523/523 522/522/522 521/521/521
f 522/522/522 524/524/524 521/521/521
f 527/527/527 526/526/526 525/525/525
f 526/526/526 528/528/528 525/525/525
f 531/531/531 530/530/530 529/529/529
f 530/530/530 532/532/532 529/529/529
f 535/535/535 534/534/534 533/533/533
f 534/534/534 536/536/536 533/533/533
f 539/539/539 538/538/538 537/537/537
f 538/538/538 540/540/540 537/537/537
f 543/543/543 542/542/542 541/541/541
f 542/542/542 544/544/544 541/541/541
f 547/547/547 546/546/546 545/545/545
f 546/546/546 548/548/548 545/545/545
f 551/551/551 550/550/550 549/549/549
f 550/550/550 552/552/552 549/549/549
f 555/555/555 554/554/554 553/553/553
f 554/554/554 556/556/556 553/553/553
f 559/559/559 558/558/558 557/557/557
f 558/558/558 560/560/560 557/557/557
f 563/563/563 562/562/562 561/561/561
f 562/562/562 564/564/564 561/561/561
f 567/567/567 566/566/566 565/565/565
f 566/566/566 568/568/568 565/565/565
f 571/571/571 570/570/570 569/569/569
f 570/570/570 572/572/572 569/569/569
f 575/575/575 574/574/574 573/573/573
f 574/574/574 576/576/576 573/573/573
f 579/579/579 578/578/578 577/577/577
f 578/578/578 580/580/580 577/577/577
f 583/583/583 582/582/582 581/581/581
f 582/582/582 584/584/584 581/581/581
f 587/587/587 586/586/586 585/585/585
f 586/586/586 588/588/588 585/585/585
f 591/591/591 590/590/590 589/589/589
f 590/590/590 592/592/592 589/589/589
f 595/595/595 594/594/594 593/593/593
f 594/594/594 596/596/596 593/593/593
f 599/599/599 598/598/598 597/597/597
f 598/598/598 600/600/600 597/597/597
f 603/603/603 602/602/602 601/601/601
f 602/602/602 604/604/604 601/601/601
f 607/607/607 606/606/606 605/605/605
f 606/606/606 608/608/608 605/605/605
f 611/611/611 610/610/610 609/609/609
f 610/610/610 612/612/612 609/609/609
f 615/615/615 614/614/614 613/613/613
f 614/614/614 616/616/616 613/613/613
f 619/619/619 618/618/618 617/617/617
f 618/618/618 620/620/620 617/617/617
f 623/623/623 622/622/622 621/621/621
f 622/622/622 624/624/624 621/621/621
f 627/627/627 626/626/626 625/625/625
f 626/626/626 628/628/628 625/625/625
f 631/631/631 630/630/630 629/629/629
f 630/630/630 632/632/632 629/629/629
f 635/635/635 634/634/634 633/633/633
f 634/634/634 636/636/636 633/633/633
f 639/639/639 638/638/638 637/637/637
f 638/638/638 640/640/640 637/637/637
f 643/643/643 642/642/642 641/641/641
f 642/642/642 644/644/644 641/641/641
f 647/647/647 646/646/646 645/645/645
f 646/646/646 648/648/648 645/645/645
f 651/651/651 650/650/650 649/649/649
f 650/650/650 652/652/652 649/649/649
f 655/655/655 654/654/654 653/653/653
f 654/654/654 656/656/656 653/653/653
f 659/659/659 658/658/658 657/657/657
f 658/658/658 660/660/660 657/657/657
f 663/663/663 662/662/662 661/661/661
f 662/662/662 664/664/664 661/661/661
f 667/667/667 666/666/666 665/665/665
f 666/666/666 668/668/668 665/665/665
f 671/671/671 670/670/670 669/669/669
f 670/670/670 672/672/672 669/669/669
f 675/675/675 674/674/674 673/673/673
f 674/674/674 676/676/676 673/673/673
f 679/679/679 678/678/678 677/677/677
f 678/678/678 680/680/680 677/677/677
f 683/683/683 682/682/682 681/681/681
f 682/682/682 684/684/684 681/681/681
f 687/687/687 686/686/686 685/685/685
f 686/686/686 688/688/688 685/685/685
f 691/691/691 690/690/690 689/689/689
f 690/690/690 692/692/692 689/689/689
f 695/695/695 694/694/694 693/693/693
f 694/694/694 696/696/696 693/693/693
f 699/699/699 698/698/698 697/697/697
f 698/698/698 700/700/700 697/697/697
f 703/703/703 702/702/702 701/701/701
f 702/702/702 704/704/704 701/701/701
f 707/707/707 706/706/706 705/705/705
f 706/706/706 708/708/708 705/705/705
f 711/711/711 710/710/710 709/709/709
f 710/710/710 712/712/712 709/709/709
f 715/715/715 714/714/714 713/713/713
f 714/714/714 716/716/716 713/713/713
f 719/719/719 718/718/718 717/717/717
f 718/718/718 720/720/720 717/717/717
f 723/723/723 722/722/722 721/721/721
f 722/722/722 724/724/724 721/721/721
f 727/727/727 726/726/726 725/725/725
f 726/726/726 728/728/728 725/725/725
f 731/731/731 730/730/730 729/729/729
f 730/730/730 732/732/732 729/729/729
f 735/735/735 734/734/734 733/733/733
f 734/734/734 736/736/736 733/733/733
f 739/739/739 738/738/738 737/737/737
f 738/738/738 740/740/740 737/737/737
f 743/743/743 742/742/742 741/741/741
f 742/742/742 744/744/744 741/741/741
f 747/747/747 746/746/746 745/745/745
f 746/746/746 748/748/748 745/745/745
f 751/751/751 750/750/750 749/749/749
f 750/750/750 752/752/752 749/749/749
f 755/755/755 754/754/754 753/753/753
f 754/754/754 756/756/756 753/753/753
f 759/759/759 758/758/758 757/757/757
f 758/758/758 760/760/760 757/757/757
f 763/763/763 762/762/762 761/761/761
f 762/762/762 764/764/764 761/761/761
f 767/767/767 766/766/766 765/765/765
f 766/766/766 768/768/768 765/765/765
f 771/771/771 770/770/770 769/769/769
f 770/770/770 772/772/772 769/769/769
f 775/775/775 774/774/774 773/773/773
f 774/774/774 776/776/776 773/773/773
f 779/779/779 778/778/778 777/777/777
f 778/778/778 780/780/780 777/777/777
f 783/783/783 782/782/782 781/781/781
f 782/782/782 784/784/784 781/781/781
f 787/787/787 786/786/786 785/785/785
f 786/786/786 788/788/788 785/785/785
f 791/791/791 790/790/790 789/789/789
f 790/790/790 792/792/792 789/789/789
f 795/795/795 794/794/794 793/793/793
f 794/794/794 796/796/796 793/793/793
f 799/799/799 798/798/798 797/797/797
f 798/798/798 800/800/800 797/797/797
f 803/803/803 802/802/802 801/801/801
f 802/802/802 804/804/804 801/801/801
f 807/807/807 806/806/806 805/805/805
f 806/806/806 808/808/808 805/805/805
f 811/811/811 810/810/810 809/809/809
f 810/810/810 812/812/812 809/809/809
f 815/815/815 814/814/814 813/813/813
f 814/814/814 816/816/816 813/813/813
f 819/819/819 818/818/818 817/817/817
f 818/818/818 820/820/820 817/817/817
f 823/823/823 822/822/822 821/821/821
f 822/822/822 824/824/824 821/821/821
f 827/827/827 826/826/826 825/825/825
f 826/826/826 828/828/828 825/825/825
f 831/831/831 830/830/830 829/829/829
f 830/830/830 832/832/832 829/829/829
f 835/835/835 834/834/834 833/833/833
f 834/834/834 836/836/836 833/833/833
f 839/839/839 838/838/838 837/837/837
f 838/838/838 840/840/840 837/837/837
f 843/843/843 842/842/842 841/841/841
f 842/842/842 844/844/844 841/841/841
f 847/847/847 846/846/846 845/845/845
f 846/846/846 848/848/848 845/845/845
f 851/851/851 850/850/850 849/849/849
f 850/850/850 852/852/852 849/849/849
f 855/855/855 854/854/854 853/853/853
f 854/854/854 856/856/856 853/853/853
f 859/859/859 858/858/858 857/857/857
f 858/858/858 860/860/860 857/857/857
f 863/863/863 862/862/862 861/861/861
f 862/862/862 864/864/864 861/861/861
f 867/867/867 866/866/866 865/865/865
f 866/866/866 868/868/868 865/865/865
f 871/871/871 870/870/870 869/869/869
f 870/870/870 872/872/872 869/869/869
f 875/875/875 874/874/874 873/873/873
f 874/874/874 876/876/876 873/873/873
f 879/879/879 878/878/878 877/877/877
f 878/878/878 880/880/880 877/877/877
f 883/883/883 882/882/882 881/881/881
f 882/882/882 884/884/884 881/881/881
f 887/887/887 886/886/886 885/885/885
f 886/886/886 888/888/888 885/885/885
f 891/891/891 890/890/890 889/889/889
f 890/890/890 892/892/892 889/889/889
f 895/895/895 894/894/894 893/893/893
f 894/894/894 896/896/896 893/893/893
f 899/899/899 898/898/898 897/897/897
f 898/898/898 900/900/900 897/897/897
f 903/903/903 902/902/902 901/901/901
f 902/902/902 904/904/904 901/901/901
f 907/907/907 906/906/906 905/905/905
f 906/906/906 908/908/908 905/905/905
f 911/911/911 910/910/910 909/909/909
f 910/910/910 912/912/912 909/909/909
f 915/915/915 914/914/914 913/913/913
f 914/914/914 916/916/916 913/913/913
f 919/919/919 918/918/918 917/917/917
f 918/918/918 920/920/920 917/917/917
f 923/923/923 922/922/922 921/921/921
f 922/922/922 924/924/924 921/921/921
f 927/927/927 926/926/926 925/925/925
f 926/926/926 928/928/928 925/925/925
f 931/931/931 930/930/930 929/929/929
f 930/930/930 932/932/932 929/929/929
f 935/935/935 934/934/934 933/933/933
f 934/934/934 936/936/936 933/933/933
f 939/939/939 938/938/938 937/937/937
f 938/938/938 940/940/940 937/937/937
f 943/943/943 942/942/942 941/941/941
f 942/942/942 944/944/944 941/941/941
f 947/947/947 946/946/946 945/945/945
f 946/946/946 948/948/948 945/945/945
f 951/951/951 950/950/950 949/949/949
f 950/950/950 952/952/952 949/949/949
f 955/955/955 954/954/954 953/953/953
f 954/954/954 956/956/956 953/953/953
f 959/959/959 958/958/958 957/957/957
f 958/958/958 960/960/960 957/957/957
f 963/963/963 962/962/962 961/961/961
f 962/962/962 964/964/964 961/961/961
f 967/967/967 966/966/966 965/965/965
f 966/966/966 968/968/968 965/965/965
f 971/971/971 970/970/970 969/969/969
f 970/970/970 972/972/972 969/969/969
