g qibo013
v -0.3891836 -0.1247803 -0.09636618
v -0.4534468 6.360528E-08 -0.01206494
v -0.437996 -0.1173606 -0.01206494
v -0.4029124 -0.02049888 -0.09636617
v -0.3489325 -0.2219551 -0.09636617
v -0.3926965 -0.2267233 -0.01206494
v -0.2849022 -0.305401 -0.0963662
v -0.3206355 -0.3206352 -0.01206494
v -0.2014563 -0.3694312 -0.09636617
v -0.2267236 -0.3926964 -0.01206494
v -0.1042816 -0.4096824 -0.09636617
v -0.1173608 -0.437996 -0.01206494
v -1.968676E-07 -0.4234114 -0.09636617
v -2.10813E-07 -0.4534468 -0.01206494
v 0.1042812 -0.4096825 -0.09636617
v 0.1173605 -0.4379961 -0.01206494
v 0.201456 -0.3694314 -0.09636617
v 0.2267232 -0.3926966 -0.01206494
v 0.2849019 -0.3054012 -0.0963662
v 0.3206351 -0.3206355 -0.01206494
v 0.3489323 -0.2219554 -0.09636617
v 0.3926963 -0.2267237 -0.01206494
v 0.3891834 -0.1247806 -0.09636618
v 0.4379959 -0.117361 -0.01206494
v 0.4029123 -0.02049924 -0.09636617
v 0.4534468 -3.657304E-07 -0.01206494
v -1.695409E-07 -0.3677668 -0.1655641
v -0.08611638 -0.3564293 -0.1655641
v -0.1663639 -0.3231896 -0.1655641
v -0.235274 -0.2703131 -0.1655641
v -0.2881506 -0.2014029 -0.1655641
v -0.3213902 -0.1211553 -0.1655641
v -0.3327276 -0.03503913 -0.1655641
v -0.2275637 -0.1088176 -0.2131171
v -0.2355912 -0.04637245 -0.2131171
v -0.2040281 -0.1670073 -0.2131171
v -0.1665882 -0.2169759 -0.2131171
v -0.1177957 -0.2553182 -0.2131171
v -0.06097562 -0.2794211 -0.2131171
v -1.334472E-07 -0.2876422 -0.2131171
v 0.06097535 -0.2794212 -0.2131171
v 0.08611604 -0.3564294 -0.1655641
v 0.1663636 -0.3231898 -0.1655641
v 0.2352738 -0.2703132 -0.1655641
v 0.2881504 -0.2014032 -0.1655641
v 0.3213901 -0.1211556 -0.1655641
v 0.3327276 -0.03503945 -0.1655641
v 0.1177955 -0.2553183 -0.2131171
v 0.166588 -0.2169761 -0.2131171
v 0.2040279 -0.1670075 -0.2131171
v 0.2275636 -0.1088179 -0.2131171
v 0.2355912 -0.04637267 -0.2131171
vt 0.09580964 0.6558382
vt 0.014595 0.9783428
vt 0.09580964 0.9783428
vt 0.014595 0.6558382
vt 0.1770243 0.6558382
vt 0.1770243 0.9783428
vt 0.258239 0.6558382
vt 0.258239 0.9783428
vt 0.3394537 0.6558382
vt 0.3394537 0.9783428
vt 0.4206683 0.6558382
vt 0.4206683 0.9783428
vt 0.5018831 0.6558382
vt 0.5018831 0.9783428
vt 0.5830978 0.6558382
vt 0.5830978 0.9783428
vt 0.6643124 0.6558382
vt 0.6643124 0.9783428
vt 0.7455271 0.6558382
vt 0.7455271 0.9783428
vt 0.8267419 0.6558382
vt 0.8267419 0.9783428
vt 0.9079566 0.6558382
vt 0.9079566 0.9783428
vt 0.9891713 0.6558382
vt 0.9891713 0.9783428
vt 0.5018831 0.3333335
vt 0.4206683 0.3333335
vt 0.3394537 0.3333335
vt 0.258239 0.3333335
vt 0.1770243 0.3333335
vt 0.09580964 0.3333335
vt 0.014595 0.3333335
vt 0.09580964 0.01082873
vt 0.014595 0.01082873
vt 0.1770243 0.01082873
vt 0.258239 0.01082873
vt 0.3394537 0.01082873
vt 0.4206683 0.01082873
vt 0.5018831 0.01082873
vt 0.5830978 0.01082873
vt 0.5830978 0.3333335
vt 0.6643124 0.3333335
vt 0.7455271 0.3333335
vt 0.8267419 0.3333335
vt 0.9079566 0.3333335
vt 0.9891713 0.3333335
vt 0.6643124 0.01082873
vt 0.7455271 0.01082873
vt 0.8267419 0.01082873
vt 0.9079566 0.01082873
vt 0.9891713 0.01082873
vn -0.7844151 -0.2148819 -0.5818236
vn -0.8640887 -0.1137592 -0.4903159
vn -0.8533906 -0.2140571 -0.4752937
vn -0.8056282 -0.1060628 -0.5828497
vn -0.7202961 -0.4207016 -0.5515285
vn -0.7870507 -0.4389764 -0.4334178
vn -0.5998358 -0.6047778 -0.5238711
vn -0.657717 -0.6415594 -0.3947277
vn -0.4303755 -0.7504395 -0.501615
vn -0.4730633 -0.8026367 -0.363298
vn -0.2247686 -0.8438888 -0.487166
vn -0.2474129 -0.9062563 -0.3427628
vn -2.769102E-07 -0.8760847 -0.4821572
vn -2.556677E-07 -0.9419968 -0.3356218
vn 0.2247679 -0.8438891 -0.487166
vn 0.2474121 -0.9062564 -0.3427629
vn 0.4303747 -0.75044 -0.5016149
vn 0.4730625 -0.8026372 -0.3632977
vn 0.5998354 -0.6047782 -0.5238709
vn 0.6577164 -0.64156 -0.3947276
vn 0.7202958 -0.4207022 -0.5515285
vn 0.7870501 -0.438977 -0.4334182
vn 0.7844149 -0.2148825 -0.5818236
vn 0.85339 -0.2140577 -0.4752944
vn 0.8056281 -0.1060635 -0.5828499
vn 0.8640881 -0.1137599 -0.4903166
vn -2.968458E-07 -0.663378 -0.7482845
vn -0.1706753 -0.6378013 -0.7510521
vn -0.3251385 -0.5643675 -0.758798
vn -0.4502086 -0.4519503 -0.7700995
vn -0.5374396 -0.3126216 -0.7832153
vn -0.5832141 -0.159183 -0.796569
vn -0.6041196 -0.07928307 -0.7929399
vn -0.4365161 -0.1208246 -0.8915465
vn -0.4448105 -0.05798114 -0.8937459
vn -0.4034369 -0.236512 -0.8839122
vn -0.3398417 -0.3432901 -0.875591
vn -0.2469203 -0.4311009 -0.8678608
vn -0.1302012 -0.4893697 -0.8623021
vn -2.98981E-07 -0.5098392 -0.8602697
vn 0.1302006 -0.4893697 -0.8623022
vn 0.1706747 -0.6378017 -0.751052
vn 0.325138 -0.5643678 -0.758798
vn 0.4502083 -0.4519505 -0.7700995
vn 0.5374395 -0.3126221 -0.7832152
vn 0.5832142 -0.1591836 -0.7965688
vn 0.6041198 -0.07928357 -0.7929396
vn 0.24692 -0.4311011 -0.8678609
vn 0.3398414 -0.3432904 -0.875591
vn 0.4034366 -0.2365125 -0.8839122
vn 0.436516 -0.1208251 -0.8915465
vn 0.4448105 -0.05798148 -0.8937459
g qibo013_0
f 3/3/3 2/2/2 1/1/1
f 2/2/2 4/4/4 1/1/1
f 3/3/3 1/1/1 5/5/5
f 6/6/6 3/3/3 5/5/5
f 6/6/6 5/5/5 7/7/7
f 8/8/8 6/6/6 7/7/7
f 8/8/8 7/7/7 9/9/9
f 10/10/10 8/8/8 9/9/9
f 10/10/10 9/9/9 11/11/11
f 12/12/12 10/10/10 11/11/11
f 12/12/12 11/11/11 13/13/13
f 14/14/14 12/12/12 13/13/13
f 14/14/14 13/13/13 15/15/15
f 16/16/16 14/14/14 15/15/15
f 16/16/16 15/15/15 17/17/17
f 18/18/18 16/16/16 17/17/17
f 18/18/18 17/17/17 19/19/19
f 20/20/20 18/18/18 19/19/19
f 20/20/20 19/19/19 21/21/21
f 22/22/22 20/20/20 21/21/21
f 22/22/22 21/21/21 23/23/23
f 24/24/24 22/22/22 23/23/23
f 24/24/24 23/23/23 25/25/25
f 26/26/26 24/24/24 25/25/25
f 13/13/13 11/11/11 27/27/27
f 11/11/11 28/28/28 27/27/27
f 11/11/11 9/9/9 28/28/28
f 9/9/9 29/29/29 28/28/28
f 9/9/9 7/7/7 29/29/29
f 7/7/7 30/30/30 29/29/29
f 7/7/7 5/5/5 30/30/30
f 5/5/5 31/31/31 30/30/30
f 5/5/5 1/1/1 31/31/31
f 1/1/1 32/32/32 31/31/31
f 1/1/1 4/4/4 32/32/32
f 4/4/4 33/33/33 32/32/32
f 32/32/32 33/33/33 34/34/34
f 33/33/33 35/35/35 34/34/34
f 31/31/31 32/32/32 36/36/36
f 32/32/32 34/34/34 36/36/36
f 30/30/30 31/31/31 37/37/37
f 31/31/31 36/36/36 37/37/37
f 29/29/29 30/30/30 38/38/38
f 30/30/30 37/37/37 38/38/38
f 28/28/28 29/29/29 39/39/39
f 29/29/29 38/38/38 39/39/39
f 28/28/28 39/39/39 40/40/40
f 27/27/27 28/28/28 40/40/40
f 27/27/27 40/40/40 41/41/41
f 42/42/42 27/27/27 41/41/41
f 13/13/13 27/27/27 42/42/42
f 15/15/15 13/13/13 42/42/42
f 15/15/15 42/42/42 43/43/43
f 17/17/17 15/15/15 43/43/43
f 17/17/17 43/43/43 44/44/44
f 19/19/19 17/17/17 44/44/44
f 19/19/19 44/44/44 45/45/45
f 21/21/21 19/19/19 45/45/45
f 21/21/21 45/45/45 46/46/46
f 23/23/23 21/21/21 46/46/46
f 23/23/23 46/46/46 47/47/47
f 25/25/25 23/23/23 47/47/47
f 43/43/43 42/42/42 48/48/48
f 42/42/42 41/41/41 48/48/48
f 44/44/44 43/43/43 49/49/49
f 43/43/43 48/48/48 49/49/49
f 45/45/45 44/44/44 50/50/50
f 44/44/44 49/49/49 50/50/50
f 46/46/46 45/45/45 51/51/51
f 45/45/45 50/50/50 51/51/51
f 47/47/47 46/46/46 52/52/52
f 46/46/46 51/51/51 52/52/52
