g shan
v -113.7526 -9.364474 863.3942
v -156.1893 19.67189 926.069
v -147.0169 -10.08304 870.0053
v -120.0045 11.99277 918.6205
v -185.9717 17.80034 931.0495
v -171.8428 -10.61932 871.0414
v -243.9219 15.9432 929.931
v -242.6093 -6.406074 873.9938
v -284.425 24.32371 931.0546
v -283.4172 -4.524173 875.0468
v -309.2206 15.53405 928.1819
v -306.6544 -5.026134 872.3547
v -355.2343 14.05977 920.3149
v -355.0359 -2.193598 864.9821
v -384.4553 7.687199 919.5056
v -381.1436 -2.335021 864.2236
v -422.6203 6.721558 914.3275
v -403.4741 -4.153708 859.371
v -462.0026 20.34654 892.5474
v -440.3812 -2.94282 838.9598
v -483.3636 25.64109 880.734
v -460.3997 -3.023124 827.8889
v -506.8689 25.27452 871.3492
v -476.3026 -3.366651 819.0939
v -540.6265 22.75871 870.223
v -536.5529 -2.699814 806.1798
v -552.9515 17.9253 864.9891
v -545.4219 -2.8914 801.2749
v -551.9702 -7.921344 809.6975
v -632.8375 -18.06785 845.9928
v -624.7862 4.91894 852.7217
v -632.8375 -34.40549 765.1263
v 538.4344 0.9983406 14.17289
v 573.3391 24.56379 18.53457
v 536.0142 0.9460564 19.87878
v 575.9217 24.6196 12.44602
v 543.5695 1.109264 5.674545
v 581.4011 24.73794 3.377724
v 549.8051 1.243965 -5.016296
v 588.0549 24.88165 -8.030098
v 573.6637 1.759352 -45.92334
v 613.5135 23.08471 -51.68058
v 578.2057 1.857468 -95.20006
v 618.3602 16.67496 -104.2621
v 585.915 2.024002 -178.8442
v 626.5865 10.01256 -193.5158
v 591.7731 2.150545 -242.6137
v 632.8375 10.1476 -261.562
v 590.0908 2.114208 -364.8321
v 631.0424 19.62425 -391.977
v 589.516 2.101791 -409.1722
v 630.429 28.99575 -439.2908
v 582.403 1.948137 -433.9848
v 622.8389 28.83177 -465.7675
v 581.0892 1.919754 -438.5662
v 621.4371 28.80145 -470.6561
v 556.9954 1.399286 -523.1271
v 595.7274 20.54958 -560.8881
v 524.639 0.7003345 -576.8764
v 561.201 12.52151 -618.2421
v 398.4756 -2.025009 -698.3041
v 426.5764 9.417548 -747.8134
v 353.8884 -2.988166 -728.9598
v 378.999 1.046411 -780.5251
v 301.8011 -4.113339 -743.973
v 323.4185 -0.1542044 -796.5451
v 204.67 -6.211535 -755.2494
v 219.7733 9.968595 -808.5778
v 169.101 -6.979887 -759.4172
v 181.8188 12.0405 -813.0251
v 138.0641 -7.650335 -755.5131
v 148.7004 11.32509 -808.8591
v 60.24382 -9.331387 -745.8121
v 65.66109 9.667365 -798.5075
v 51.95467 -9.510446 -744.7695
v 56.81602 9.476325 -797.395
v 27.50066 -10.03869 -741.2488
v 30.722 8.912631 -793.6382
v -69.40527 -12.13202 -724.9427
v -32.5876 3.52274 -776.2386
v -141.2723 -1.189044 -738.6667
v -109.2054 18.63783 -790.883
v -176.9483 -1.959705 -750.1372
v -164.8839 26.41878 -803.1227
v -192.6395 -2.298663 -755.1706
v -181.6275 18.62378 -808.4937
v -199.8793 -2.455052 -757.2025
v -189.3528 11.21793 -810.6619
v -259.54 -3.743824 -773.9235
v -220.4646 24.51502 -828.5042
v -281.7325 -4.223223 -780.1519
v -244.1454 24.00346 -835.1503
v -300.8321 -4.635805 -782.9807
v -265.9376 16.66475 -844.2217
v -329.7847 -6.428885 -931.0546
v -299.1855 8.14388 -892.7288
v -383.8386 -29.18194 -795.2025
v 419.2775 2.149879 420.6943
v 449.6046 12.63018 455.5629
v 420.0564 2.1667 429.4398
v 448.7734 12.61224 446.2309
v 454.3382 17.07536 508.716
v 424.4925 2.26253 479.2523
v 447.6102 34.40549 538.9558
v 406.3696 1.871044 525.861
v 416.3852 34.34353 589.0992
v 403.8931 1.81755 532.2301
v 416.6824 -1.631706 397.0646
v 471.3643 11.55818 421.0164
v 398.9001 14.7761 650.9341
v 372.5387 1.14024 612.5319
v 327.5053 13.2338 752.3206
v 305.6311 -0.3050795 707.5462
v 275.4269 12.10886 795.3759
v 256.8259 -1.359352 747.8955
v 176.1758 25.30403 840.329
v 163.8127 -3.368594 790.0233
v 155.2604 19.4781 867.0405
v 144.2118 -3.792006 798.9107
v 130.051 18.93352 874.3126
v 120.5868 -4.302345 805.7256
v -1.950272 -6.321631 895.1869
v -3.118149 -6.974584 841.4333
vt 8.195479 -1.382108
vt 8.88416 -1.843558
vt 8.233732 -1.718824
vt 8.786907 -1.462844
vt 8.910513 -2.163034
vt 8.222502 -1.974029
vt 8.859667 -2.782073
vt 8.213853 -2.72322
vt 8.880857 -3.236377
vt 8.192154 -3.164161
vt 8.786345 -3.515653
vt 8.130261 -3.414681
vt 8.643993 -4.024173
vt 7.993817 -3.948653
vt 8.579172 -4.361073
vt 7.944501 -4.242326
vt 8.465816 -4.792195
vt 7.851242 -4.489692
vt 8.175388 -5.25596
vt 7.554225 -4.880163
vt 8.017497 -5.501736
vt 7.388204 -5.089485
vt 7.860672 -5.753821
vt 7.254838 -5.255252
vt 7.755272 -6.13762
vt 6.973837 -5.920942
vt 7.647791 -6.265793
vt 6.896961 -6.011961
vt 6.940855 -6.143278
vt 7.048112 -7.187291
vt 7.32307 -7.074065
vt 6.115977 -6.915602
vt 2.371202 8.732401
vt 2.67588 9.052908
vt 2.403246 8.680721
vt 2.63501 9.114067
vt 2.328264 8.820017
vt 2.57769 9.217562
vt 2.269305 8.926567
vt 2.499626 9.343939
vt 2.001021 9.324896
vt 2.154667 9.796497
vt 1.53425 9.566566
vt 1.60261 10.05371
vt 0.6659431 9.931916
vt 0.6322033 10.4424
vt -0.03710294 10.16372
vt -0.1627491 10.71362
vt -1.530508 10.41368
vt -1.778594 11.02709
vt -2.084905 10.47604
vt -2.414988 11.1725
vt -2.422406 10.42092
vt -2.795033 11.12586
vt -2.48597 10.40989
vt -2.865942 11.11633
vt -3.691086 10.20826
vt -4.173672 10.86887
vt -4.509342 9.825474
vt -5.063475 10.44711
vt -6.512505 8.161322
vt -7.208726 8.679401
vt -7.048795 7.542569
vt -7.782976 8.01587
vt -7.371981 6.771207
vt -8.134176 7.20801
vt -7.727041 5.292269
vt -8.553087 5.642964
vt -7.862121 4.746779
vt -8.711619 5.071877
vt -7.8739 4.253607
vt -8.725103 4.553905
vt -7.91477 3.018921
vt -8.770727 3.244506
vt -7.919492 2.886512
vt -8.776264 3.105281
vt -7.92838 2.493828
vt -8.787304 2.692311
vt -7.946141 0.9330107
vt -8.677923 1.659108
vt -8.412613 -0.1464629
vt -9.191029 0.5125716
vt -8.676206 -0.6813331
vt -9.571599 -0.3106542
vt -8.788582 -0.9185414
vt -9.653599 -0.6012397
vt -8.831835 -1.030273
vt -9.67995 -0.7703397
vt -9.164695 -1.953403
vt -10.0617 -1.235405
vt -9.29026 -2.296062
vt -10.19343 -1.599063
vt -9.355537 -2.594184
vt -10.32972 -1.963198
vt -11.69071 -3.044912
vt -11.09486 -2.501904
vt -9.545334 -3.958954
vt 5.062296 5.227335
vt 5.53498 5.292832
vt 5.142653 5.17948
vt 5.457609 5.336182
vt 5.994213 5.103363
vt 5.598256 4.947663
vt 6.295609 4.977006
vt 5.944368 4.598046
vt 6.627227 4.537393
vt 5.991405 4.549578
vt 4.836947 5.347673
vt 5.385781 5.669787
vt 7.044583 4.074261
vt 6.592372 3.966229
vt 7.716619 3.10672
vt 7.226163 3.03031
vt 7.982564 2.536657
vt 7.479716 2.450369
vt 8.295644 1.535138
vt 7.722588 1.472585
vt 8.49351 1.277992
vt 7.780896 1.258315
vt 8.532095 1.033358
vt 7.81536 1.010197
vt 8.573895 -0.2894018
vt 8.043788 -0.2518468
vn 0.01812512 0.9509993 -0.3086612
vn -0.04151445 0.8974109 -0.439238
vn -0.04151445 0.8974109 -0.439238
vn 0.01812512 0.9509993 -0.3086612
vn -0.0393761 0.901481 -0.4310239
vn -0.0393761 0.901481 -0.4310239
vn 0.05722269 0.9119357 -0.4063236
vn 0.05722269 0.9119357 -0.4063236
vn -0.0126446 0.9116266 -0.4108247
vn -0.0126446 0.9116266 -0.4108247
vn -0.03234216 0.9322425 -0.3603856
vn -0.03234216 0.9322425 -0.3603856
vn -0.02166491 0.9615186 -0.273884
vn -0.02166491 0.9615186 -0.273884
vn -0.06060923 0.975548 -0.2112647
vn -0.06060923 0.975548 -0.2112647
vn 0.1379996 0.9719012 -0.1906936
vn 0.1379996 0.9719012 -0.1906936
vn 0.2890403 0.9229894 -0.2540598
vn 0.2890403 0.9229894 -0.2540598
vn 0.2306563 0.9030935 -0.3622426
vn 0.2306563 0.9030935 -0.3622426
vn 0.1069259 0.9067058 -0.4079847
vn 0.1069259 0.9067058 -0.4079847
vn -0.006953362 0.9256252 -0.3783775
vn -0.006953362 0.9256252 -0.3783775
vn -0.1660124 0.8693138 -0.4655464
vn -0.1660124 0.8693138 -0.4655464
vn -0.2439989 0.8870811 -0.3918566
vn -0.2439989 0.8870811 -0.3918566
vn -0.2695645 0.774657 -0.5720503
vn -0.2072672 0.9589101 -0.1937306
vn -0.5233521 0.8115821 -0.2596862
vn -0.4436241 0.8835633 -0.1500451
vn -0.4436241 0.8835633 -0.1500451
vn -0.5233521 0.8115821 -0.2596862
vn -0.518661 0.801488 -0.2976704
vn -0.518661 0.801488 -0.2976704
vn -0.5100157 0.8066913 -0.2985516
vn -0.5100157 0.8066913 -0.2985516
vn -0.4659277 0.8616732 -0.201074
vn -0.4659277 0.8616732 -0.201074
vn -0.3571946 0.9306912 -0.07890444
vn -0.3571946 0.9306912 -0.07890444
vn -0.2434926 0.9691015 -0.03941371
vn -0.2434926 0.9691015 -0.03941371
vn -0.2376318 0.9712847 0.01171835
vn -0.2376318 0.9712847 0.01171835
vn -0.3498434 0.9342744 0.0688544
vn -0.3498434 0.9342744 0.0688544
vn -0.4484871 0.8864502 0.1143041
vn -0.4484871 0.8864502 0.1143041
vn -0.4754586 0.8699402 0.1309324
vn -0.4754586 0.8699402 0.1309324
vn -0.4609491 0.8809884 0.1067026
vn -0.4609491 0.8809884 0.1067026
vn -0.3684202 0.9252117 0.09082797
vn -0.3684202 0.9252117 0.09082797
vn -0.2226087 0.9675823 0.119289
vn -0.2226087 0.9675823 0.119289
vn -0.1528543 0.9825618 0.1058672
vn -0.1528543 0.9825618 0.1058672
vn -0.09423763 0.9933692 0.06585515
vn -0.09423763 0.9933692 0.06585515
vn -0.01090292 0.9919484 0.1261727
vn -0.01090292 0.9919484 0.1261727
vn -0.001183691 0.9680499 0.2507549
vn -0.001183691 0.9680499 0.2507549
vn 0.001545842 0.9461726 0.3236589
vn 0.001545842 0.9461726 0.3236589
vn 0.02260663 0.9403123 0.339561
vn 0.02260663 0.9403123 0.339561
vn 0.02274855 0.9399222 0.3406299
vn 0.02274855 0.9399222 0.3406299
vn 0.02574926 0.9395767 0.3413686
vn 0.02574926 0.9395767 0.3413686
vn 0.02654033 0.9424618 0.3332586
vn 0.02654033 0.9424618 0.3332586
vn 0.05715202 0.934711 0.3507833
vn 0.05715202 0.934711 0.3507833
vn 0.02767311 0.9200069 0.3909241
vn 0.02767311 0.9200069 0.3909241
vn -0.1842216 0.908457 0.3751911
vn -0.1842216 0.908457 0.3751911
vn -0.4089301 0.8746402 0.260347
vn -0.4089301 0.8746402 0.260347
vn -0.2563156 0.9258733 0.2775983
vn -0.2563156 0.9258733 0.2775983
vn -0.06987257 0.9262185 0.3704555
vn -0.06987257 0.9262185 0.3704555
vn -0.1887771 0.9301817 0.3148414
vn -0.1887771 0.9301817 0.3148414
vn -0.3326527 0.9341021 0.1295979
vn -0.353272 0.9196143 0.1717799
vn -0.3722554 0.9254073 0.07104418
vn -0.4519744 0.8867978 0.09648256
vn -0.2893747 0.9561574 0.04500243
vn -0.2681688 0.9608736 -0.06933604
vn -0.3719855 0.9281625 0.01188885
vn -0.3719855 0.9281625 0.01188885
vn -0.2681688 0.9608736 -0.06933604
vn -0.3919488 0.9053879 -0.1632453
vn -0.3919488 0.9053879 -0.1632453
vn -0.4628415 0.8274704 -0.317916
vn -0.4628415 0.8274704 -0.317916
vn -0.5897934 0.7783559 -0.215188
vn -0.5897934 0.7783559 -0.215188
vn -0.2649047 0.956125 -0.1251024
vn -0.2649047 0.956125 -0.1251024
vn -0.4559946 0.8788282 -0.1404632
vn -0.4559946 0.8788282 -0.1404632
vn -0.2201197 0.9582998 -0.1822332
vn -0.2201197 0.9582998 -0.1822332
vn -0.1490958 0.9474787 -0.2829393
vn -0.1490958 0.9474787 -0.2829393
vn -0.2574813 0.9059178 -0.3361792
vn -0.2574813 0.9059178 -0.3361792
vn -0.2563444 0.9165859 -0.3068515
vn -0.2563444 0.9165859 -0.3068515
vn -0.1273545 0.9618785 -0.2420135
vn -0.1273545 0.9618785 -0.2420135
vn -0.05839267 0.9804859 -0.1877171
vn -0.05839267 0.9804859 -0.1877171
g shan_0
f 3/3/3 2/2/2 1/1/1
f 2/2/2 4/4/4 1/1/1
f 5/5/5 2/2/2 3/3/3
f 6/6/6 5/5/5 3/3/3
f 7/7/7 5/5/5 6/6/6
f 8/8/8 7/7/7 6/6/6
f 9/9/9 7/7/7 8/8/8
f 10/10/10 9/9/9 8/8/8
f 11/11/11 9/9/9 10/10/10
f 12/12/12 11/11/11 10/10/10
f 13/13/13 11/11/11 12/12/12
f 14/14/14 13/13/13 12/12/12
f 15/15/15 13/13/13 14/14/14
f 16/16/16 15/15/15 14/14/14
f 17/17/17 15/15/15 16/16/16
f 18/18/18 17/17/17 16/16/16
f 19/19/19 17/17/17 18/18/18
f 20/20/20 19/19/19 18/18/18
f 21/21/21 19/19/19 20/20/20
f 22/22/22 21/21/21 20/20/20
f 23/23/23 21/21/21 22/22/22
f 24/24/24 23/23/23 22/22/22
f 25/25/25 23/23/23 24/24/24
f 26/26/26 25/25/25 24/24/24
f 27/27/27 25/25/25 26/26/26
f 28/28/28 27/27/27 26/26/26
f 27/27/27 28/28/28 29/29/29
f 29/29/29 30/30/30 27/27/27
f 30/30/30 31/31/31 27/27/27
f 29/29/29 32/32/32 30/30/30
f 35/35/35 34/34/34 33/33/33
f 34/34/34 36/36/36 33/33/33
f 33/33/33 36/36/36 37/37/37
f 36/36/36 38/38/38 37/37/37
f 37/37/37 38/38/38 39/39/39
f 38/38/38 40/40/40 39/39/39
f 39/39/39 40/40/40 41/41/41
f 40/40/40 42/42/42 41/41/41
f 41/41/41 42/42/42 43/43/43
f 42/42/42 44/44/44 43/43/43
f 43/43/43 44/44/44 45/45/45
f 44/44/44 46/46/46 45/45/45
f 45/45/45 46/46/46 47/47/47
f 46/46/46 48/48/48 47/47/47
f 47/47/47 48/48/48 49/49/49
f 48/48/48 50/50/50 49/49/49
f 49/49/49 50/50/50 51/51/51
f 50/50/50 52/52/52 51/51/51
f 51/51/51 52/52/52 53/53/53
f 52/52/52 54/54/54 53/53/53
f 53/53/53 54/54/54 55/55/55
f 54/54/54 56/56/56 55/55/55
f 55/55/55 56/56/56 57/57/57
f 56/56/56 58/58/58 57/57/57
f 57/57/57 58/58/58 59/59/59
f 58/58/58 60/60/60 59/59/59
f 59/59/59 60/60/60 61/61/61
f 60/60/60 62/62/62 61/61/61
f 61/61/61 62/62/62 63/63/63
f 62/62/62 64/64/64 63/63/63
f 63/63/63 64/64/64 65/65/65
f 64/64/64 66/66/66 65/65/65
f 65/65/65 66/66/66 67/67/67
f 66/66/66 68/68/68 67/67/67
f 67/67/67 68/68/68 69/69/69
f 68/68/68 70/70/70 69/69/69
f 69/69/69 70/70/70 71/71/71
f 70/70/70 72/72/72 71/71/71
f 71/71/71 72/72/72 73/73/73
f 72/72/72 74/74/74 73/73/73
f 73/73/73 74/74/74 75/75/75
f 74/74/74 76/76/76 75/75/75
f 75/75/75 76/76/76 77/77/77
f 76/76/76 78/78/78 77/77/77
f 77/77/77 78/78/78 79/79/79
f 78/78/78 80/80/80 79/79/79
f 79/79/79 80/80/80 81/81/81
f 80/80/80 82/82/82 81/81/81
f 81/81/81 82/82/82 83/83/83
f 82/82/82 84/84/84 83/83/83
f 83/83/83 84/84/84 85/85/85
f 84/84/84 86/86/86 85/85/85
f 85/85/85 86/86/86 87/87/87
f 86/86/86 88/88/88 87/87/87
f 87/87/87 88/88/88 89/89/89
f 88/88/88 90/90/90 89/89/89
f 89/89/89 90/90/90 91/91/91
f 90/90/90 92/92/92 91/91/91
f 91/91/91 92/92/92 93/93/93
f 92/92/92 94/94/94 93/93/93
f 93/93/93 94/94/94 95/95/95
f 94/94/94 96/96/96 95/95/95
f 95/95/95 97/97/97 93/93/93
f 100/100/100 99/99/99 98/98/98
f 99/99/99 101/101/101 98/98/98
f 102/102/102 99/99/99 100/100/100
f 103/103/103 102/102/102 100/100/100
f 104/104/104 102/102/102 103/103/103
f 105/105/105 104/104/104 103/103/103
f 106/106/106 104/104/104 105/105/105
f 107/107/107 106/106/106 105/105/105
f 98/98/98 101/101/101 108/108/108
f 101/101/101 109/109/109 108/108/108
f 110/110/110 106/106/106 107/107/107
f 111/111/111 110/110/110 107/107/107
f 112/112/112 110/110/110 111/111/111
f 113/113/113 112/112/112 111/111/111
f 114/114/114 112/112/112 113/113/113
f 115/115/115 114/114/114 113/113/113
f 116/116/116 114/114/114 115/115/115
f 117/117/117 116/116/116 115/115/115
f 118/118/118 116/116/116 117/117/117
f 119/119/119 118/118/118 117/117/117
f 120/120/120 118/118/118 119/119/119
f 121/121/121 120/120/120 119/119/119
f 122/122/122 120/120/120 121/121/121
f 123/123/123 122/122/122 121/121/121
f 4/4/4 122/122/122 123/123/123
f 1/1/1 4/4/4 123/123/123
f 108/108/108 109/109/109 35/35/35
f 109/109/109 34/34/34 35/35/35
