g TY_effect_yuanZhu_mx
v 0.3122988 0.3122988 -0.02486557
v 0 0.4416572 0.858449
v 0 0.4416572 -0.02486557
v 0.3122988 0.3122988 0.858449
v 0 0.4416572 -0.02486557
v -0.3122988 0.3122988 0.858449
v -0.3122988 0.3122988 -0.02486557
v 0 0.4416572 0.858449
v -0.3122988 0.3122988 -0.02486557
v -0.4416572 9.806763E-17 0.858449
v -0.4416572 -9.806763E-17 -0.02486557
v -0.3122988 0.3122988 0.858449
v -0.4416572 -9.806763E-17 -0.02486557
v -0.3122988 -0.3122988 0.858449
v -0.3122988 -0.3122988 -0.02486557
v -0.4416572 9.806763E-17 0.858449
v -0.3122988 -0.3122988 -0.02486557
v 0 -0.4416572 0.858449
v 0 -0.4416572 -0.02486557
v -0.3122988 -0.3122988 0.858449
v 0 -0.4416572 -0.02486557
v 0.3122989 -0.3122989 0.858449
v 0.3122989 -0.3122989 -0.02486557
v 0 -0.4416572 0.858449
v 0.3122989 -0.3122989 -0.02486557
v 0.4416573 9.806763E-17 0.858449
v 0.4416573 -9.806763E-17 -0.02486557
v 0.3122989 -0.3122989 0.858449
v 0.4416573 -9.806763E-17 -0.02486557
v 0.3122988 0.3122988 0.858449
v 0.3122988 0.3122988 -0.02486557
v 0.4416573 9.806763E-17 0.858449
vt 0.375 0.3125
vt 0.40625 0.6884398
vt 0.40625 0.3125
vt 0.375 0.6884398
vt 0.40625 0.3125
vt 0.4375 0.6884398
vt 0.4375 0.3125
vt 0.40625 0.6884398
vt 0.4375 0.3125
vt 0.46875 0.6884398
vt 0.46875 0.3125
vt 0.4375 0.6884398
vt 0.46875 0.3125
vt 0.5 0.6884398
vt 0.5 0.3125
vt 0.46875 0.6884398
vt 0.5 0.3125
vt 0.53125 0.6884398
vt 0.53125 0.3125
vt 0.5 0.6884398
vt 0.53125 0.3125
vt 0.5625 0.6884398
vt 0.5625 0.3125
vt 0.53125 0.6884398
vt 0.5625 0.3125
vt 0.59375 0.6884398
vt 0.59375 0.3125
vt 0.5625 0.6884398
vt 0.59375 0.3125
vt 0.625 0.6884398
vt 0.625 0.3125
vt 0.59375 0.6884398
g TY_effect_yuanZhu_mx_0
f 3/3/3 2/2/2 1/1/1
f 2/2/2 4/4/4 1/1/1
f 7/7/7 6/6/6 5/5/5
f 6/6/6 8/8/8 5/5/5
f 11/11/11 10/10/10 9/9/9
f 10/10/10 12/12/12 9/9/9
f 15/15/15 14/14/14 13/13/13
f 14/14/14 16/16/16 13/13/13
f 19/19/19 18/18/18 17/17/17
f 18/18/18 20/20/20 17/17/17
f 23/23/23 22/22/22 21/21/21
f 22/22/22 24/24/24 21/21/21
f 27/27/27 26/26/26 25/25/25
f 26/26/26 28/28/28 25/25/25
f 31/31/31 30/30/30 29/29/29
f 30/30/30 32/32/32 29/29/29
