g XD_A_T
v 0.02886909 -0.01759535 1.707205
v 0.04804016 0.002917442 1.758241
v 0.05462453 0.01026855 1.726258
v 0.02372803 -0.01618778 1.732357
v -0.000548706 -0.0260242 1.725345
v 0 -0.0253832 1.695726
v 0.07751073 0.07919231 1.752639
v 0.05616455 0.03179897 1.786465
v 0.0587738 0.07098018 1.811224
v 0.06231201 0.03103419 1.8151
v 0.05140014 0.007887533 1.772292
v 0.06849854 0.05019252 1.829201
v 0.07929382 0.04373896 1.825076
v 0.04716885 0.1087675 1.767384
v 0.02260864 0.103153 1.811002
v 0 0.1250421 1.775686
v -0.000548706 0.1091403 1.808063
v 0.04098999 -0.0214426 1.761635
v 0.02208679 -0.02781894 1.744738
v 0.0223053 -0.07154575 1.744784
v -0.000548706 -0.03602665 1.738879
v 0.04075439 -0.04456302 1.764152
v 0.020849 -0.07946078 1.755889
v 0.03762695 -0.06630528 1.78994
v 0.01559143 -0.0783994 1.771907
v -0.000548706 -0.08826695 1.756548
v -0.000548706 -0.08395694 1.77196
v 0.01565918 -0.08293553 1.787004
v 0.01642578 -0.08355534 1.794137
v 0.0163916 -0.08341344 1.79841
v -0.000548706 -0.091554 1.793017
v -0.000548706 -0.09499394 1.800645
v -0.000548706 -0.09120335 1.812451
v -0.000548706 -0.0925272 1.786097
v 0.02172546 -0.08074651 1.815054
v 0.009692383 -0.08825749 1.814205
v -0.000548706 -0.1117472 1.823799
v 0.02050659 -0.08929814 1.819311
v 0.02346496 -0.07868016 1.821268
v 0.04766052 -0.06822363 1.838704
v 0.04054748 -0.06474797 1.814434
v 0.05634949 -0.04235997 1.815737
v 0.06075012 -0.04751744 1.841883
v 0.0634314 -0.01998052 1.826666
v 0.06324158 -0.03273046 1.841986
v 0.06246582 -0.04859319 1.855945
v 0.06763916 -0.01371557 1.851222
v 0.06517761 -0.03728613 1.869166
v 0.05437195 -0.05256902 1.86508
v 0.04749268 -0.07143346 1.85358
v 0.04553223 -0.06702154 1.862166
v 0.03677063 -0.07608953 1.853564
v 0.02040283 -0.08411809 1.833777
v 0.04710693 -0.06600683 1.873119
v 0.05366333 -0.07162207 1.883329
v 0.0452301 -0.06649328 1.867098
v 0.03385132 -0.07111914 1.861385
v 0.02297485 -0.07945073 1.853104
v 0.007403564 -0.09157598 1.854836
v 0.00743164 -0.09877598 1.837311
v -0.000548706 -0.1064249 1.838853
v 0.02452393 -0.07476538 1.863769
v 0.01732056 -0.0768598 1.868028
v 0.03432373 -0.07294714 1.869216
v 0.02403564 -0.07530127 1.868493
v 0.03433533 -0.07565771 1.876551
v 0.02270569 -0.07943091 1.873043
v 0.02291015 -0.09088507 1.884936
v 0.007438354 -0.08399266 1.870516
v -0.000548706 -0.09077489 1.882342
v -0.000548706 -0.08505315 1.902367
v 0.01826965 -0.08413091 1.901963
v -0.000548706 -0.08825415 1.870448
v 0.03773987 -0.08558355 1.886155
v 0.03674804 -0.07783209 1.900853
v -0.000548706 -0.09819921 1.857068
v -0.000548706 -0.1064249 1.838853
v 0.05285339 -0.0655915 1.898451
v 0.06473511 -0.0353739 1.882371
v 0.07318664 0.006013736 1.883627
v 0.06685364 -0.01618933 1.919208
v 0.07250488 0.02341334 1.852734
v 0.06649231 0.002122751 1.841114
v 0.07969543 0.02304773 1.870703
v 0.08054931 0.0443722 1.850892
v 0.08729187 0.03778284 1.875125
v 0.09382812 0.05578821 1.868698
v 0.06501465 0.0202209 1.823197
v 0.07929382 0.04373896 1.825076
v 0.09137695 0.05647669 1.844693
v 0.09382812 0.05578821 1.868698
v 0.07493225 0.03914179 1.879646
v 0.0736969 0.05759302 1.86946
v 0.09382812 0.05578821 1.868698
v 0.06553344 0.005156203 1.807865
v 0.05687683 -0.03662755 1.793646
v 0.05703369 -0.02204869 1.780674
v 0.07288574 0.07195154 1.884784
v 0.07536377 0.05077539 1.900456
v 0.06350769 0.09029017 1.886952
v 0.06624817 0.08470757 1.914271
v 0.03204895 0.1198867 1.902511
v 0.04394165 0.09813102 1.962673
v -0.000548706 0.1275009 1.907194
v -0.000548706 0.09996879 1.970681
v -0.000548706 0.1250207 1.848842
v 0.03181946 0.1150213 1.846959
v 0.07459228 0.03189965 1.92321
v 0.06470459 0.06635735 1.938092
v 0.04068298 0.05715019 1.978661
v -0.000548706 0.09996879 1.970681
v -0.000548706 0.06202141 1.986753
v -0.000548706 0.01254539 1.996484
v 0.02827759 0.007539597 1.992122
v -0.000548706 -0.04712715 1.98926
v 0.02842041 -0.04549996 1.984628
v 0.06659241 0.02473076 1.961181
v 0.05997436 -0.01996681 1.963949
v 0.06389526 -0.0039347 1.942433
v 0.0543573 -0.03966986 1.938365
v 0.05223145 -0.05552406 1.921235
v 0.04201782 -0.05113532 1.948238
v 0.03997192 -0.06541572 1.929108
v 0.02448669 -0.05970893 1.953441
v 0.02319641 -0.07394569 1.931618
v -0.000548706 -0.0772306 1.931408
v -0.000548706 -0.06600258 1.956746
v -0.000548706 -0.04712715 1.98926
v 0.06870727 0.02944482 1.942599
v 0.007797851 -0.1042853 1.826723
v -0.000548706 -0.1117472 1.823799
v -0.000548706 -0.110831 1.83215
v -0.000548706 -0.1117472 1.823799
v -0.000548706 -0.110831 1.83215
v -0.008500366 -0.09157598 1.854836
v -0.008527832 -0.09877598 1.837311
v -0.02149902 -0.08411809 1.833777
v -0.02407105 -0.07945073 1.853104
v -0.008535767 -0.08399266 1.870516
v -0.000548706 -0.09819921 1.857068
v -0.000548706 -0.08825415 1.870448
v -0.000548706 -0.09077489 1.882342
v -0.02400574 -0.09088507 1.884936
v -0.01841675 -0.0768598 1.868028
v -0.0238031 -0.07943091 1.873043
v -0.000548706 -0.08505315 1.902367
v -0.01936523 -0.08413091 1.901963
v -0.03883545 -0.08558355 1.886155
v -0.03784485 -0.07783209 1.900853
v -0.03543091 -0.07565771 1.876551
v -0.000548706 -0.1064249 1.838853
v -0.02562073 -0.07476538 1.863769
v -0.03494751 -0.07111914 1.861385
v -0.03786743 -0.07608953 1.853564
v -0.02513245 -0.07530127 1.868493
v -0.03541931 -0.07294714 1.869216
v -0.04662781 -0.06702154 1.862166
v -0.04858886 -0.07143346 1.85358
v -0.05546753 -0.05256902 1.86508
v -0.06356262 -0.04859319 1.855945
v -0.04875793 -0.06822363 1.838704
v -0.06627502 -0.03728613 1.869166
v -0.04820373 -0.06600683 1.873119
v -0.05475891 -0.07162207 1.883329
v -0.06873535 -0.01371557 1.851222
v -0.06433899 -0.03273046 1.841986
v -0.0618457 -0.04751744 1.841883
v -0.04632568 -0.06649328 1.867098
v -0.05395019 -0.0655915 1.898451
v -0.0658313 -0.0353739 1.882371
v -0.07428345 0.006013736 1.883627
v -0.06794922 -0.01618933 1.919208
v -0.07360107 0.02341334 1.852734
v -0.06758789 0.002122751 1.841114
v -0.08079223 0.02304773 1.870703
v -0.08164489 0.0443722 1.850892
v -0.08838745 0.03778284 1.875125
v -0.09492432 0.05578821 1.868698
v -0.06611084 0.0202209 1.823197
v -0.08039124 0.04373896 1.825076
v -0.0634082 0.03103419 1.8151
v -0.09247314 0.05647669 1.844693
v -0.09492432 0.05578821 1.868698
v -0.07602783 0.03914179 1.879646
v -0.0747937 0.05759302 1.86946
v -0.09492432 0.05578821 1.868698
v -0.06662964 0.005156203 1.807865
v -0.06452759 -0.01998052 1.826666
v -0.05744629 -0.04235997 1.815737
v -0.04164306 -0.06474797 1.814434
v -0.02282226 -0.08074651 1.815054
v -0.02456177 -0.07868016 1.821268
v -0.02160278 -0.08929814 1.819311
v -0.01078918 -0.08825749 1.814205
v -0.000548706 -0.09120335 1.812451
v -0.000548706 -0.1117472 1.823799
v -0.01748779 -0.08341344 1.79841
v -0.000548706 -0.09499394 1.800645
v -0.000548706 -0.091554 1.793017
v -0.01752197 -0.08355534 1.794137
v -0.03872314 -0.06630528 1.78994
v -0.000548706 -0.0925272 1.786097
v -0.01675537 -0.08293553 1.787004
v -0.000548706 -0.08395694 1.77196
v -0.01668823 -0.0783994 1.771907
v -0.000548706 -0.08826695 1.756548
v -0.0219458 -0.07946078 1.755889
v -0.008894043 -0.1042853 1.826723
v -0.04184997 -0.04456302 1.764152
v -0.05797424 -0.03662755 1.793646
v -0.05813049 -0.02204869 1.780674
v -0.05249573 0.007887533 1.772292
v -0.000548706 -0.08483372 1.748136
v -0.0234021 -0.07154575 1.744784
v -0.04208679 -0.0214426 1.761635
v -0.0231842 -0.02781894 1.744738
v -0.000548706 -0.03602665 1.738879
v -0.02482422 -0.01618778 1.732357
v -0.000548706 -0.0260242 1.725345
v -0.04913696 0.002917442 1.758241
v -0.02886909 -0.01759535 1.707205
v -0.05462453 0.01026855 1.726258
v -0.000548706 -0.0260242 1.725345
v 0 -0.0253832 1.695726
v -0.000548706 -0.03602665 1.738879
v -0.07751074 0.07919231 1.752639
v -0.05726074 0.03179897 1.786465
v -0.05986999 0.07098018 1.811224
v -0.06959473 0.05019252 1.829201
v -0.08039124 0.04373896 1.825076
v -0.04716885 0.1087675 1.767384
v -0.02370483 0.103153 1.811002
v 0 0.1250421 1.775686
v -0.000548706 0.1091403 1.808063
v -0.03291504 0.1150213 1.846959
v -0.05969177 0.08569087 1.841187
v -0.0646051 0.09029017 1.886952
v -0.03314575 0.1198867 1.902511
v -0.06734375 0.08470757 1.914271
v -0.07645996 0.05077539 1.900456
v -0.07398254 0.07195154 1.884784
v -0.04503662 0.09813102 1.962673
v -0.000548706 0.1275009 1.907194
v -0.000548706 0.09996879 1.970681
v -0.000548706 0.1250207 1.848842
v -0.07568847 0.03189965 1.92321
v -0.06580078 0.06635735 1.938092
v -0.04177795 0.05715019 1.978661
v -0.000548706 0.09996879 1.970681
v -0.000548706 0.06202141 1.986753
v -0.000548706 0.01254539 1.996484
v -0.02937439 0.007539597 1.992122
v -0.000548706 -0.04712715 1.98926
v -0.02951599 -0.04549996 1.984628
v -0.06768799 0.02473076 1.961181
v -0.06107116 -0.01996681 1.963949
v -0.06499085 -0.0039347 1.942433
v -0.0554541 -0.03966986 1.938365
v -0.05332763 -0.05552406 1.921235
v -0.04311401 -0.05113532 1.948238
v -0.04106811 -0.06541572 1.929108
v -0.02558227 -0.05970893 1.953441
v -0.02429199 -0.07394569 1.931618
v -0.000548706 -0.0772306 1.931408
v -0.000548706 -0.06600258 1.956746
v -0.000548706 -0.04712715 1.98926
v -0.06980347 0.02944482 1.942599
v -0.06928345 0.0585998 1.844733
v -0.09492432 0.05578821 1.868698
v -0.09247314 0.05647669 1.844693
v -0.08039124 0.04373896 1.825076
v -0.000548706 -0.03602665 1.738879
v -0.000548706 -0.08483372 1.748136
v -0.000548706 -0.08483372 1.748136
v -0.000548706 -0.08483372 1.748136
v 0.09382812 0.05578821 1.868698
v 0.06818786 0.0585998 1.844733
v 0.09137695 0.05647669 1.844693
v 0.05859436 0.08569087 1.841187
v 0.07929382 0.04373896 1.825076
v -0.000548706 -0.03602665 1.738879
v -0.000548706 -0.0260242 1.725345
v -0.000548706 -0.110831 1.83215
v -0.000548706 -0.1117472 1.823799
v -0.000548706 -0.1117472 1.823799
v -0.000548706 -0.110831 1.83215
v -0.000548706 -0.08483372 1.748136
v -0.000548706 -0.03602665 1.738879
v -0.000548706 -0.08483372 1.748136
v 0.02010361 -0.09290914 1.880226
v 0.05048263 -0.07937215 1.880794
v 0.01637436 -0.0865621 1.845196
v 0.0587529 -0.07293355 1.863952
v 0.04795273 -0.07316869 1.841936
v 0.003538666 -0.09638845 1.872456
v 0.01958359 -0.08812826 1.880427
v 0.01585434 -0.08178122 1.845396
v 0.04996261 -0.07459142 1.880995
v 0.05823288 -0.06815298 1.864153
v 0.04752945 -0.0683878 1.842136
v 0.003018951 -0.09160788 1.872656
v 0.01958359 -0.08812826 1.880427
v 0.05048263 -0.07937215 1.880794
v 0.02010361 -0.09290914 1.880226
v 0.04996261 -0.07459142 1.880995
v 0.05048263 -0.07937215 1.880794
v 0.04996261 -0.07459142 1.880995
v 0.0587529 -0.07293355 1.863952
v 0.05048263 -0.07937215 1.880794
v 0.05823288 -0.06815298 1.864153
v 0.05823288 -0.06815298 1.864153
v 0.04795273 -0.07316869 1.841936
v 0.0587529 -0.07293355 1.863952
v 0.04752945 -0.0683878 1.842136
v 0.04752945 -0.0683878 1.842136
v 0.01637436 -0.0865621 1.845196
v 0.04795273 -0.07316869 1.841936
v 0.01585434 -0.08178122 1.845396
v 0.003018951 -0.09160788 1.872656
v 0.02010361 -0.09290914 1.880226
v 0.003538666 -0.09638845 1.872456
v 0.01958359 -0.08812826 1.880427
v 0.01585434 -0.08178122 1.845396
v 0.003538666 -0.09638845 1.872456
v 0.01637436 -0.0865621 1.845196
v 0.003018951 -0.09160788 1.872656
v 0.04974197 -0.08138433 1.878515
v -0.00136673 -0.1021897 1.879993
v 0.0500444 -0.08212285 1.880834
v -0.00136673 -0.1020914 1.877646
v -0.00136673 -0.1021897 1.879993
v 0.0500444 -0.08212285 1.880834
v -0.00136673 -0.09817159 1.880161
v 0.04997635 -0.07796102 1.881009
v -0.00136673 -0.1021897 1.879993
v 0.04997635 -0.07796102 1.881009
v -0.00136673 -0.09807318 1.877815
v 0.04966934 -0.07721212 1.87869
v -0.00136673 -0.09817159 1.880161
v 0.04966934 -0.07721212 1.87869
v -0.00136673 -0.1020914 1.877646
v 0.04974197 -0.08138433 1.878515
v -0.00136673 -0.09807318 1.877815
v -0.00136673 -0.1020914 1.877646
v 0.04966934 -0.07721212 1.87869
v 0.0500444 -0.08212285 1.880834
v 0.04997635 -0.07796102 1.881009
v 0.04974197 -0.08138433 1.878515
v -0.05247513 -0.08138433 1.878515
v -0.00136673 -0.1021897 1.879993
v -0.00136673 -0.1020914 1.877646
v -0.05277755 -0.08212285 1.880834
v -0.00136673 -0.1021897 1.879993
v -0.05277755 -0.08212285 1.880834
v -0.00136673 -0.09817159 1.880161
v -0.00136673 -0.1021897 1.879993
v -0.0527095 -0.07796102 1.881009
v -0.0527095 -0.07796102 1.881009
v -0.00136673 -0.09807318 1.877815
v -0.00136673 -0.09817159 1.880161
v -0.0524025 -0.07721212 1.87869
v -0.0524025 -0.07721212 1.87869
v -0.00136673 -0.1020914 1.877646
v -0.00136673 -0.09807318 1.877815
v -0.05247513 -0.08138433 1.878515
v -0.00136673 -0.1020914 1.877646
v -0.0524025 -0.07721212 1.87869
v -0.05277755 -0.08212285 1.880834
v -0.05247513 -0.08138433 1.878515
v -0.0527095 -0.07796102 1.881009
v -0.08566788 0.08171358 1.846524
v -0.08044479 0.0473952 1.880797
v -0.08022415 0.0462868 1.875752
v -0.08622391 0.08431177 1.849293
v -0.07531936 -0.03492956 1.879553
v -0.07531936 -0.03495611 1.883668
v -0.05544571 -0.08130316 1.877844
v -0.05594498 -0.08251531 1.881491
v -0.08622391 0.08431177 1.849293
v -0.07643936 0.04826624 1.880834
v -0.08044479 0.0473952 1.880797
v -0.07967636 0.08570627 1.849248
v -0.07139481 -0.03407629 1.883759
v -0.07531936 -0.03495611 1.883668
v -0.05221207 -0.08303884 1.881469
v -0.05594498 -0.08251531 1.881491
v -0.07967636 0.08570627 1.849248
v -0.07621901 0.04715784 1.875789
v -0.07643936 0.04826624 1.880834
v -0.07912033 0.08310839 1.846479
v -0.07139481 -0.03407629 1.883759
v -0.07139481 -0.03404973 1.879644
v -0.05221207 -0.08303884 1.881469
v -0.05174728 -0.0818987 1.877819
v -0.07912033 0.08310839 1.846479
v -0.08022415 0.0462868 1.875752
v -0.07621901 0.04715784 1.875789
v -0.08566788 0.08171358 1.846524
v -0.07139481 -0.03404973 1.879644
v -0.07531936 -0.03492956 1.879553
v -0.05174728 -0.0818987 1.877819
v -0.05544571 -0.08130316 1.877844
v -0.05544571 -0.08130316 1.877844
v -0.05221207 -0.08303884 1.881469
v -0.05174728 -0.0818987 1.877819
v -0.05594498 -0.08251531 1.881491
v -0.07912033 0.08310839 1.846479
v -0.08622391 0.08431177 1.849293
v -0.08566788 0.08171358 1.846524
v -0.07967636 0.08570627 1.849248
v -0.02283646 -0.09290914 1.880226
v -0.01910751 -0.0865621 1.845196
v -0.05321609 -0.07937215 1.880794
v -0.06148575 -0.07293355 1.863952
v -0.05068619 -0.07316869 1.841936
v -0.006272125 -0.09638845 1.872456
v -0.02231644 -0.08812826 1.880427
v -0.05269608 -0.07459142 1.880995
v -0.01858719 -0.08178122 1.845396
v -0.06096603 -0.06815298 1.864153
v -0.0502626 -0.0683878 1.842136
v -0.005752106 -0.09160788 1.872656
v -0.02231644 -0.08812826 1.880427
v -0.05321609 -0.07937215 1.880794
v -0.05269608 -0.07459142 1.880995
v -0.02283646 -0.09290914 1.880226
v -0.05321609 -0.07937215 1.880794
v -0.05269608 -0.07459142 1.880995
v -0.06148575 -0.07293355 1.863952
v -0.06096603 -0.06815298 1.864153
v -0.05321609 -0.07937215 1.880794
v -0.06096603 -0.06815298 1.864153
v -0.05068619 -0.07316869 1.841936
v -0.0502626 -0.0683878 1.842136
v -0.06148575 -0.07293355 1.863952
v -0.0502626 -0.0683878 1.842136
v -0.01910751 -0.0865621 1.845196
v -0.01858719 -0.08178122 1.845396
v -0.05068619 -0.07316869 1.841936
v -0.005752106 -0.09160788 1.872656
v -0.02283646 -0.09290914 1.880226
v -0.02231644 -0.08812826 1.880427
v -0.006272125 -0.09638845 1.872456
v -0.01858719 -0.08178122 1.845396
v -0.006272125 -0.09638845 1.872456
v -0.005752106 -0.09160788 1.872656
v -0.01910751 -0.0865621 1.845196
v 0.08293472 0.08171358 1.846524
v 0.07771195 0.0473952 1.880797
v 0.08349106 0.08431177 1.849293
v 0.07749069 0.0462868 1.875752
v 0.07258591 -0.03492956 1.879553
v 0.07258591 -0.03495611 1.883668
v 0.05271286 -0.08130316 1.877844
v 0.05321152 -0.08251531 1.881491
v 0.08349106 0.08431177 1.849293
v 0.07370682 0.04826624 1.880834
v 0.0769435 0.08570627 1.849248
v 0.07771195 0.0473952 1.880797
v 0.06866135 -0.03407629 1.883759
v 0.07258591 -0.03495611 1.883668
v 0.04947922 -0.08303884 1.881469
v 0.05321152 -0.08251531 1.881491
v 0.0769435 0.08570627 1.849248
v 0.07348557 0.04715784 1.875789
v 0.07638779 0.08310839 1.846479
v 0.07370682 0.04826624 1.880834
v 0.06866135 -0.03407629 1.883759
v 0.06866135 -0.03404973 1.879644
v 0.04947922 -0.08303884 1.881469
v 0.04901413 -0.0818987 1.877819
v 0.07638779 0.08310839 1.846479
v 0.07749069 0.0462868 1.875752
v 0.08293472 0.08171358 1.846524
v 0.07348557 0.04715784 1.875789
v 0.06866135 -0.03404973 1.879644
v 0.07258591 -0.03492956 1.879553
v 0.04901413 -0.0818987 1.877819
v 0.05271286 -0.08130316 1.877844
v 0.05271286 -0.08130316 1.877844
v 0.04947922 -0.08303884 1.881469
v 0.05321152 -0.08251531 1.881491
v 0.04901413 -0.0818987 1.877819
v 0.07638779 0.08310839 1.846479
v 0.08349106 0.08431177 1.849293
v 0.0769435 0.08570627 1.849248
v 0.08293472 0.08171358 1.846524
vt 0.1683739 0.4786933
vt 0.2223414 0.5708895
vt 0.2232213 0.5079964
vt 0.1740746 0.5388823
vt 0.1278573 0.5130488
vt 0.1255992 0.4779178
vt 0.3189777 0.5560485
vt 0.266796 0.604693
vt 0.3282744 0.6418828
vt 0.261868 0.6420859
vt 0.2250368 0.5996177
vt 0.2899354 0.66422
vt 0.2742984 0.6634119
vt 0.3923725 0.5810708
vt 0.4045675 0.6501357
vt 0.4427879 0.6082428
vt 0.4393756 0.6527394
vt 0.1762522 0.563569
vt 0.137534 0.5518152
vt 0.08585105 0.5848112
vt 0.1094486 0.5350189
vt 0.1358185 0.5872812
vt 0.07545781 0.6015833
vt 0.1014627 0.6417385
vt 0.06755605 0.6227659
vt 0.04012426 0.5907913
vt 0.04313999 0.620659
vt 0.05826309 0.6458877
vt 0.06095013 0.6550493
vt 0.06061218 0.665827
vt 0.03402468 0.6555811
vt 0.03116498 0.6646712
vt 0.03110608 0.684086
vt 0.0340842 0.6438746
vt 0.06614712 0.6888301
vt 0.04812394 0.6891885
vt 0.01081516 0.7068581
vt 0.05517063 0.7014644
vt 0.07180888 0.6973926
vt 0.1111127 0.7080226
vt 0.1110338 0.6801123
vt 0.1490432 0.6767163
vt 0.1444635 0.7082791
vt 0.182443 0.6850916
vt 0.1661152 0.7082492
vt 0.1463506 0.7318305
vt 0.1943357 0.7214482
vt 0.1633794 0.7495375
vt 0.1328964 0.7510652
vt 0.1110473 0.7327023
vt 0.1155822 0.7478757
vt 0.09543265 0.7353586
vt 0.06754258 0.7183305
vt 0.1188202 0.7635231
vt 0.120614 0.776573
vt 0.1161646 0.7549356
vt 0.09800344 0.7483726
vt 0.0749043 0.7402745
vt 0.04383276 0.7565831
vt 0.03629651 0.7292731
vt 0.02184724 0.7355248
vt 0.08372485 0.7531922
vt 0.07410044 0.7604789
vt 0.09814914 0.7597305
vt 0.0830878 0.7599559
vt 0.09608006 0.7708347
vt 0.07903074 0.7687674
vt 0.06960601 0.7984124
vt 0.05168152 0.779716
vt 0.03883292 0.7996804
vt 0.04880457 0.8399796
vt 0.07540908 0.8310011
vt 0.03919226 0.7816648
vt 0.09267859 0.7937245
vt 0.1002888 0.8192714
vt 0.03024921 0.7598379
vt 0.02184724 0.7355248
vt 0.1268811 0.8049532
vt 0.1697228 0.7740835
vt 0.2337084 0.7657135
vt 0.2010767 0.8191949
vt 0.2514347 0.7092124
vt 0.214775 0.696297
vt 0.258908 0.7406346
vt 0.2782012 0.6973928
vt 0.2823413 0.7376882
vt 0.3010325 0.7316082
vt 0.2401114 0.6584891
vt 0.2742984 0.6634119
vt 0.2983218 0.6936659
vt 0.3010325 0.7316082
vt 0.2827711 0.751493
vt 0.314292 0.7355731
vt 0.3010325 0.7316082
vt 0.2131615 0.6379582
vt 0.155405 0.6417235
vt 0.1755203 0.5996359
vt 0.3254603 0.7519274
vt 0.2966098 0.7806614
vt 0.3541422 0.7656835
vt 0.3347728 0.8043432
vt 0.4057108 0.7988175
vt 0.3549811 0.8660895
vt 0.4470104 0.8267442
vt 0.4071739 0.9097126
vt 0.4591021 0.7285351
vt 0.4126954 0.7197425
vt 0.2706375 0.8063487
vt 0.3134971 0.8342945
vt 0.3046146 0.9040736
vt 0.4071739 0.9097126
vt 0.3426761 0.9659336
vt 0.2443637 0.9873955
vt 0.2414938 0.9401089
vt 0.1419541 0.9697104
vt 0.1583059 0.9321531
vt 0.2451902 0.8744566
vt 0.1809462 0.8947327
vt 0.2216084 0.8474025
vt 0.1566561 0.8522702
vt 0.1358733 0.8268939
vt 0.1388766 0.874276
vt 0.1132898 0.8469108
vt 0.1174259 0.8907074
vt 0.09082859 0.8614348
vt 0.06187722 0.8764793
vt 0.07757862 0.9058835
vt 0.1419541 0.9697104
vt 0.2651304 0.841194
vt 0.02632034 0.7115473
vt 0.01081516 0.7068581
vt 0.01117353 0.7194247
vt 0.01081516 0.7068581
vt 0.01117353 0.7194247
vt 0.04383276 0.7565831
vt 0.03629651 0.7292731
vt 0.06754258 0.7183305
vt 0.0749043 0.7402745
vt 0.05168152 0.779716
vt 0.03024921 0.7598379
vt 0.03919226 0.7816648
vt 0.03883292 0.7996804
vt 0.06960601 0.7984124
vt 0.07410044 0.7604789
vt 0.07903074 0.7687674
vt 0.04880457 0.8399796
vt 0.07540908 0.8310011
vt 0.09267859 0.7937245
vt 0.1002888 0.8192714
vt 0.09608006 0.7708347
vt 0.02184724 0.7355248
vt 0.08372485 0.7531922
vt 0.09800344 0.7483726
vt 0.09543265 0.7353586
vt 0.0830878 0.7599559
vt 0.09814914 0.7597305
vt 0.1155822 0.7478757
vt 0.1110473 0.7327023
vt 0.1328964 0.7510652
vt 0.1463506 0.7318305
vt 0.1111127 0.7080226
vt 0.1633794 0.7495375
vt 0.1188202 0.7635231
vt 0.120614 0.776573
vt 0.1943357 0.7214482
vt 0.1661152 0.7082492
vt 0.1444635 0.7082791
vt 0.1161646 0.7549356
vt 0.1268811 0.8049532
vt 0.1697228 0.7740835
vt 0.2337084 0.7657135
vt 0.2010767 0.8191949
vt 0.2514347 0.7092124
vt 0.214775 0.696297
vt 0.258908 0.7406346
vt 0.2782012 0.6973928
vt 0.2823413 0.7376882
vt 0.3010325 0.7316082
vt 0.2401114 0.6584891
vt 0.2742984 0.6634119
vt 0.261868 0.6420859
vt 0.2983218 0.6936659
vt 0.3010325 0.7316082
vt 0.2827711 0.751493
vt 0.314292 0.7355731
vt 0.3010325 0.7316082
vt 0.2131615 0.6379582
vt 0.182443 0.6850916
vt 0.1490432 0.6767163
vt 0.1110338 0.6801123
vt 0.06614712 0.6888301
vt 0.07180888 0.6973926
vt 0.05517063 0.7014644
vt 0.04812394 0.6891885
vt 0.03110608 0.684086
vt 0.01081516 0.7068581
vt 0.06061218 0.665827
vt 0.03116498 0.6646712
vt 0.03402468 0.6555811
vt 0.06095013 0.6550493
vt 0.1014627 0.6417385
vt 0.0340842 0.6438746
vt 0.05826309 0.6458877
vt 0.04313999 0.620659
vt 0.06755605 0.6227659
vt 0.04012426 0.5907913
vt 0.07545781 0.6015833
vt 0.02632034 0.7115473
vt 0.1358185 0.5872812
vt 0.155405 0.6417235
vt 0.1755203 0.5996359
vt 0.2250368 0.5996177
vt 0.05011277 0.5696252
vt 0.08585105 0.5848112
vt 0.1762522 0.563569
vt 0.137534 0.5518152
vt 0.1094486 0.5350189
vt 0.1740746 0.5388823
vt 0.1278573 0.5130488
vt 0.2223414 0.5708895
vt 0.1683739 0.4786933
vt 0.2232213 0.5079964
vt 0.1278573 0.5130488
vt 0.1255992 0.4779178
vt 0.1094486 0.5350189
vt 0.3189777 0.5560485
vt 0.266796 0.604693
vt 0.3282744 0.6418828
vt 0.2899354 0.66422
vt 0.2742984 0.6634119
vt 0.3923725 0.5810708
vt 0.4045675 0.6501357
vt 0.4427879 0.6082428
vt 0.4393756 0.6527394
vt 0.4126954 0.7197425
vt 0.3508848 0.6952367
vt 0.3541422 0.7656835
vt 0.4057108 0.7988175
vt 0.3347728 0.8043432
vt 0.2966098 0.7806614
vt 0.3254603 0.7519274
vt 0.3549811 0.8660895
vt 0.4470104 0.8267442
vt 0.4071739 0.9097126
vt 0.4591021 0.7285351
vt 0.2706375 0.8063487
vt 0.3134971 0.8342945
vt 0.3046146 0.9040736
vt 0.4071739 0.9097126
vt 0.3426761 0.9659336
vt 0.2443637 0.9873955
vt 0.2414938 0.9401089
vt 0.1419541 0.9697104
vt 0.1583059 0.9321531
vt 0.2451902 0.8744566
vt 0.1809462 0.8947327
vt 0.2216084 0.8474025
vt 0.1566561 0.8522702
vt 0.1358733 0.8268939
vt 0.1388766 0.874276
vt 0.1132898 0.8469108
vt 0.1174259 0.8907074
vt 0.09082859 0.8614348
vt 0.06187722 0.8764793
vt 0.07757862 0.9058835
vt 0.1419541 0.9697104
vt 0.2651304 0.841194
vt 0.3163511 0.6850516
vt 0.3010325 0.7316082
vt 0.2983218 0.6936659
vt 0.2742984 0.6634119
vt 0.1094486 0.5350189
vt 0.05011277 0.5696252
vt 0.05011277 0.5696252
vt 0.05011277 0.5696252
vt 0.3010325 0.7316082
vt 0.3163511 0.6850516
vt 0.2983218 0.6936659
vt 0.3508848 0.6952367
vt 0.2742984 0.6634119
vt 0.1094486 0.5350189
vt 0.1278573 0.5130488
vt 0.01117353 0.7194247
vt 0.01081516 0.7068581
vt 0.01081516 0.7068581
vt 0.01117353 0.7194247
vt 0.05011277 0.5696252
vt 0.1094486 0.5350189
vt 0.05011277 0.5696252
vt 0.4948769 0.8692811
vt 0.4810427 0.8954459
vt 0.4692524 0.8517471
vt 0.4634768 0.8941957
vt 0.4503744 0.877104
vt 0.4985542 0.8536259
vt 0.4950081 0.8023348
vt 0.523173 0.8200278
vt 0.4774391 0.8276772
vt 0.4855022 0.8443905
vt 0.507899 0.8482171
vt 0.5099987 0.7937285
vt 0.4983893 0.8716096
vt 0.4810427 0.8954459
vt 0.4948769 0.8692811
vt 0.4847658 0.8977268
vt 0.4810427 0.8954459
vt 0.4791524 0.8994853
vt 0.4634768 0.8941957
vt 0.4810427 0.8954459
vt 0.4609067 0.8975898
vt 0.4609067 0.8975898
vt 0.4503744 0.877104
vt 0.4634768 0.8941957
vt 0.4470769 0.8800465
vt 0.4462368 0.8758188
vt 0.4692524 0.8517471
vt 0.4503744 0.877104
vt 0.465235 0.8502
vt 0.5026 0.8553903
vt 0.4948769 0.8692811
vt 0.4985542 0.8536259
vt 0.4983893 0.8716096
vt 0.4684767 0.847514
vt 0.4985542 0.8536259
vt 0.4692524 0.8517471
vt 0.4979449 0.8493476
vt 0.5172026 0.8787767
vt 0.5414171 0.8376769
vt 0.5191641 0.8798549
vt 0.5395638 0.8367097
vt 0.5414171 0.8376769
vt 0.5191641 0.8798549
vt 0.5443195 0.8392259
vt 0.521733 0.8826321
vt 0.5414171 0.8376769
vt 0.4921238 0.9180246
vt 0.5143244 0.8804693
vt 0.4938468 0.9189042
vt 0.5126922 0.8795995
vt 0.5134714 0.8783021
vt 0.5395638 0.8367097
vt 0.5172026 0.8787767
vt 0.5366395 0.8351767
vt 0.5395638 0.8367097
vt 0.5145895 0.8814875
vt 0.5191641 0.8798549
vt 0.5165367 0.8825467
vt 0.5172026 0.8787767
vt 0.5172026 0.8787767
vt 0.5414171 0.8376769
vt 0.5395638 0.8367097
vt 0.5191641 0.8798549
vt 0.5414171 0.8376769
vt 0.5191641 0.8798549
vt 0.5443195 0.8392259
vt 0.5414171 0.8376769
vt 0.521733 0.8826321
vt 0.4921238 0.9180246
vt 0.5143244 0.8804693
vt 0.5126922 0.8795995
vt 0.4938468 0.9189042
vt 0.5134714 0.8783021
vt 0.5395638 0.8367097
vt 0.5366395 0.8351767
vt 0.5172026 0.8787767
vt 0.5395638 0.8367097
vt 0.5145895 0.8814875
vt 0.5191641 0.8798549
vt 0.5172026 0.8787767
vt 0.5165367 0.8825467
vt 0.5561908 0.8051559
vt 0.531555 0.8313183
vt 0.5328199 0.8325179
vt 0.5548502 0.8025923
vt 0.5072975 0.880108
vt 0.5056883 0.8792617
vt 0.4897828 0.9148855
vt 0.4868601 0.9140456
vt 0.5548502 0.8025923
vt 0.5291445 0.8292897
vt 0.531555 0.8313183
vt 0.5511873 0.7989939
vt 0.5030041 0.8777633
vt 0.5056883 0.8792617
vt 0.4839206 0.9141324
vt 0.4868601 0.9140456
vt 0.5216745 0.7853521
vt 0.5281729 0.8237537
vt 0.5300898 0.8237844
vt 0.518684 0.7862812
vt 0.5024832 0.8749308
vt 0.5007981 0.8740163
vt 0.4825619 0.9129435
vt 0.4801381 0.9109398
vt 0.5607842 0.8070405
vt 0.5328199 0.8325179
vt 0.5356205 0.833963
vt 0.5561908 0.8051559
vt 0.5100392 0.8815007
vt 0.5072975 0.880108
vt 0.4912872 0.9173933
vt 0.4897828 0.9148855
vt 0.4897828 0.9148855
vt 0.4863116 0.9169366
vt 0.4892117 0.9177516
vt 0.4868601 0.9140456
vt 0.5607842 0.8070405
vt 0.5548502 0.8025923
vt 0.5561908 0.8051559
vt 0.5608608 0.8035136
vt 0.4948769 0.8692811
vt 0.4692524 0.8517471
vt 0.4810427 0.8954459
vt 0.4634768 0.8941957
vt 0.4503744 0.877104
vt 0.4985542 0.8536259
vt 0.4950081 0.8023348
vt 0.4774391 0.8276772
vt 0.523173 0.8200278
vt 0.4855022 0.8443905
vt 0.507899 0.8482171
vt 0.5099987 0.7937285
vt 0.4983893 0.8716096
vt 0.4810427 0.8954459
vt 0.4847658 0.8977268
vt 0.4948769 0.8692811
vt 0.4810427 0.8954459
vt 0.4791524 0.8994853
vt 0.4634768 0.8941957
vt 0.4609067 0.8975898
vt 0.4810427 0.8954459
vt 0.4609067 0.8975898
vt 0.4503744 0.877104
vt 0.4470769 0.8800465
vt 0.4634768 0.8941957
vt 0.4462368 0.8758188
vt 0.4692524 0.8517471
vt 0.465235 0.8502
vt 0.4503744 0.877104
vt 0.5026 0.8553903
vt 0.4948769 0.8692811
vt 0.4983893 0.8716096
vt 0.4985542 0.8536259
vt 0.4684767 0.847514
vt 0.4985542 0.8536259
vt 0.4979449 0.8493476
vt 0.4692524 0.8517471
vt 0.5561908 0.8051559
vt 0.531555 0.8313183
vt 0.5548502 0.8025923
vt 0.5328199 0.8325179
vt 0.5072975 0.880108
vt 0.5056883 0.8792617
vt 0.4897828 0.9148855
vt 0.4868601 0.9140456
vt 0.5548502 0.8025923
vt 0.5291445 0.8292897
vt 0.5511873 0.7989939
vt 0.531555 0.8313183
vt 0.5030041 0.8777633
vt 0.5056883 0.8792617
vt 0.4839206 0.9141324
vt 0.4868601 0.9140456
vt 0.5216745 0.7853521
vt 0.5281729 0.8237537
vt 0.518684 0.7862812
vt 0.5300898 0.8237844
vt 0.5024832 0.8749308
vt 0.5007981 0.8740163
vt 0.4825619 0.9129435
vt 0.4801381 0.9109398
vt 0.5607842 0.8070405
vt 0.5328199 0.8325179
vt 0.5561908 0.8051559
vt 0.5356205 0.833963
vt 0.5100392 0.8815007
vt 0.5072975 0.880108
vt 0.4912872 0.9173933
vt 0.4897828 0.9148855
vt 0.4897828 0.9148855
vt 0.4863116 0.9169366
vt 0.4868601 0.9140456
vt 0.4892117 0.9177516
vt 0.5607842 0.8070405
vt 0.5548502 0.8025923
vt 0.5608608 0.8035136
vt 0.5561908 0.8051559
vn 0.486468 -0.8721568 0.05187975
vn 0.9139867 -0.405457 -0.01525854
vn 0.8604363 -0.5018139 0.08849929
vn 0.5786145 -0.8102726 -0.09307805
vn -0.002162142 -0.9842084 -0.1770006
vn 0.004676818 -0.99914 0.0411987
vn 0.948402 0.1283673 0.2899233
vn 0.9647883 -0.256897 0.05645773
vn 0.8824274 0.4626235 0.0854485
vn 0.9345944 0.05803068 -0.3509497
vn 0.9261444 -0.01463268 -0.3768853
vn 0.8470163 0.3763987 -0.3753497
vn 0.8974909 -0.1573625 -0.4120037
vn 0.604292 0.7036166 0.373838
vn 0.5311342 0.8457903 0.05035261
vn 0.002901595 0.9305365 0.3661878
vn -0.001696894 0.9978436 0.06561373
vn 0.7816269 -0.1357942 -0.608785
vn 0.500104 -0.2557523 -0.8273372
vn 0.3704249 -0.2050397 -0.9059492
vn 0 -0.2791572 -0.9602454
vn 0.812857 -0.2901835 -0.5050318
vn 0.6685518 -0.7251764 -0.1647955
vn 0.7795593 -0.6054894 -0.1602177
vn 0.6456383 -0.7547866 -0.1159669
vn 7.450654E-07 -0.9965995 -0.08239827
vn -1.117583E-06 -0.9969675 -0.07781954
vn 0.5050858 -0.8295948 -0.2380352
vn 0.5355985 -0.8386286 -0.09917828
vn 0.5768586 -0.8144447 -0.06256156
vn -7.450714E-07 -0.991553 -0.129702
vn 1.490181E-06 -0.9987313 0.0503562
vn -3.352777E-06 -0.8630794 -0.5050683
vn 1.862697E-06 -0.9593275 -0.2822954
vn 0.6298601 -0.7691164 -0.1083343
vn 0.4506583 -0.7854661 -0.4242052
vn 9.686057E-06 -0.6873345 -0.726341
vn 0.7916253 -0.5689479 -0.2227728
vn 0.647986 -0.7408006 -0.1769987
vn 0.7337075 -0.6489261 -0.2014155
vn 0.7514418 -0.6419132 -0.1525867
vn 0.9110446 -0.3842352 -0.1495361
vn 0.8846685 -0.4189933 -0.204466
vn 0.9833471 -0.1492044 -0.1037612
vn 0.974107 -0.159522 -0.1602134
vn 0.9008316 -0.4333929 0.02593968
vn 0.9854686 -0.1356468 -0.1022328
vn 0.9730132 -0.2258491 -0.04730124
vn 0.7996927 -0.5875508 -0.1235945
vn 0.6763659 -0.7343987 0.05645919
vn 0.6271986 -0.6857556 0.3692713
vn 0.4251288 -0.8998492 0.09765732
vn 0.6576481 -0.7508485 0.06103684
vn 0.6009225 -0.6041175 -0.5233873
vn 0.7727016 -0.6246462 -0.1129131
vn 0.5988986 -0.7894876 -0.1342754
vn 0.3293926 -0.8955779 0.2990664
vn 0.5400617 -0.7960736 0.2731303
vn 0.6477202 -0.7070438 0.2838093
vn 0.6983368 -0.6671093 0.2594049
vn 3.725405E-07 -0.8960047 0.4440445
vn 0.3271147 -0.9153013 0.2349885
vn 0.5569673 -0.8291864 -0.04730306
vn 0.4077347 -0.8806992 -0.2410837
vn 0.2928512 -0.8912135 -0.3463764
vn 0.376602 -0.6860745 -0.6224731
vn 0.3242166 -0.6872047 -0.6501024
vn 0.221249 -0.9748306 0.02746539
vn 0.4499071 -0.8889785 -0.08544569
vn 3.725298E-07 -0.9988806 0.04730234
vn 0 -0.9542319 0.2990677
vn 0.1812894 -0.9302881 0.3189014
vn 7.450386E-07 -0.9993292 -0.03662014
vn 0.4982808 -0.866907 -0.01373318
vn 0.4986124 -0.8017186 0.3295949
vn 7.450213E-07 -0.8937395 0.4485863
vn 3.725405E-07 -0.8960047 0.4440445
vn 0.8589134 -0.4688667 0.2059904
vn 0.9652438 -0.2529814 0.06561159
vn 0.9891413 -0.1467691 0.00762932
vn 0.9600998 -0.2444714 0.1358015
vn 0.951289 -0.2334115 -0.2014158
vn 0.9883773 -0.09646907 -0.1174914
vn 0.9701799 -0.2419966 -0.01373301
vn 0.8407932 -0.5252097 -0.1312309
vn 0.7941463 -0.04847182 0.6057905
vn 0.525971 0.7896718 0.3158687
vn 0.9747054 -0.1820092 -0.1297
vn 0.8974909 -0.1573625 -0.4120037
vn 0.7716065 0.5940827 -0.2273526
vn 0.525971 0.7896718 0.3158687
vn 0.9465013 0.06613588 0.3158501
vn 0.8568336 0.5155116 0.009155327
vn 0.525971 0.7896718 0.3158687
vn 0.9839262 -0.00395187 -0.1785315
vn 0.9042212 -0.3782012 -0.1983631
vn 0.9061425 -0.2035161 -0.3707922
vn 0.9568329 0.2872502 -0.04425102
vn 0.9860418 0.1289832 0.1052846
vn 0.76674 0.6418109 0.01373266
vn 0.8207283 0.5534146 0.1419061
vn 0.4208243 0.8911908 0.1693692
vn 0.4205573 0.7197018 0.5524136
vn 3.725353E-07 0.9649441 0.2624556
vn 3.725178E-07 0.746609 0.6652631
vn 3.725432E-07 0.9734523 -0.2288905
vn 0.5069607 0.8257662 -0.2471863
vn 0.9881974 0.01351834 0.1525879
vn 0.9080405 0.2355574 0.3463743
vn 0.4135567 0.2599091 0.8725928
vn 3.725178E-07 0.746609 0.6652631
vn 0 0.2908808 0.9567593
vn 0 0.06328079 0.9979957
vn 0.3284383 0.01759832 0.9443614
vn 3.726698E-07 -0.4531188 0.8914501
vn 0.3957127 -0.4780684 0.7841314
vn 0.7910759 0.07397265 0.6072289
vn 0.7812113 -0.2819809 0.5569522
vn 0.9711366 -0.1905789 0.1434341
vn 0.8671324 -0.4341384 0.2441417
vn 0.8647085 -0.4538599 0.2151519
vn 0.6510478 -0.6623016 0.3708012
vn 0.5657263 -0.7410614 0.3616376
vn 0.3965262 -0.8093121 0.433337
vn 0.2833516 -0.8805474 0.3799319
vn 0 -0.926257 0.3768924
vn 0 -0.8882894 0.4592841
vn 3.726698E-07 -0.4531188 0.8914501
vn 0.9785378 0.005364529 0.2059979
vn 0.6727947 -0.6585075 -0.3372169
vn 9.686057E-06 -0.6873345 -0.726341
vn 1.117596E-06 -0.9048533 0.4257236
vn 9.686057E-06 -0.6873345 -0.726341
vn 1.117596E-06 -0.9048533 0.4257236
vn -0.6477271 -0.7070384 0.2838072
vn -0.6983429 -0.6671038 0.2594028
vn -0.6575739 -0.7509136 0.06103438
vn -0.5400786 -0.7960634 0.2731268
vn -0.4499547 -0.8889537 -0.08545247
vn 7.450213E-07 -0.8937395 0.4485863
vn 7.450386E-07 -0.9993292 -0.03662014
vn 3.725298E-07 -0.9988806 0.04730234
vn -0.221249 -0.9748306 0.02746539
vn -0.5569673 -0.8291864 -0.04730306
vn -0.3242166 -0.6872047 -0.6501024
vn 0 -0.9542319 0.2990677
vn -0.1813009 -0.9302862 0.3189008
vn -0.4982808 -0.866907 -0.01373318
vn -0.4985755 -0.8017452 0.3295863
vn -0.376602 -0.6860745 -0.6224731
vn 3.725405E-07 -0.8960047 0.4440445
vn -0.3271147 -0.9153013 0.2349885
vn -0.3294139 -0.8955709 0.299064
vn -0.4251288 -0.8998492 0.09765732
vn -0.292873 -0.8912074 -0.346374
vn -0.4077518 -0.8806885 -0.2410938
vn -0.6271986 -0.6857556 0.3692713
vn -0.6763659 -0.7343987 0.05645919
vn -0.7996927 -0.5875508 -0.1235945
vn -0.9008316 -0.4333929 0.02593968
vn -0.7337075 -0.6489261 -0.2014155
vn -0.9730132 -0.2258491 -0.04730124
vn -0.6009225 -0.6041175 -0.5233873
vn -0.7727016 -0.6246462 -0.1129131
vn -0.9854702 -0.1356351 -0.1022329
vn -0.974107 -0.159522 -0.1602134
vn -0.8846685 -0.4189933 -0.204466
vn -0.598868 -0.7895101 -0.1342792
vn -0.8589325 -0.4688294 0.205995
vn -0.9652438 -0.2529814 0.06561159
vn -0.9891413 -0.1467691 0.00762932
vn -0.9600998 -0.2444714 0.1358015
vn -0.9512942 -0.233389 -0.2014169
vn -0.9883776 -0.09646464 -0.1174914
vn -0.9701855 -0.2419742 -0.01373309
vn -0.8407932 -0.5252097 -0.1312309
vn -0.7941463 -0.04847182 0.6057905
vn -0.525971 0.7896718 0.3158687
vn -0.9747011 -0.1820323 -0.1296995
vn -0.8975002 -0.1573558 -0.4119861
vn -0.9345944 0.05803068 -0.3509497
vn -0.7716065 0.5940827 -0.2273526
vn -0.525971 0.7896718 0.3158687
vn -0.9465013 0.06613588 0.3158501
vn -0.8568674 0.5154555 0.009155177
vn -0.525971 0.7896718 0.3158687
vn -0.9839262 -0.003939949 -0.1785315
vn -0.983349 -0.1491928 -0.1037614
vn -0.9110446 -0.3842352 -0.1495361
vn -0.7514418 -0.6419132 -0.1525867
vn -0.6298601 -0.7691164 -0.1083343
vn -0.647986 -0.7408006 -0.1769987
vn -0.7916253 -0.5689479 -0.2227728
vn -0.4506679 -0.7854619 -0.4242029
vn -3.352777E-06 -0.8630794 -0.5050683
vn 9.686057E-06 -0.6873345 -0.726341
vn -0.5768586 -0.8144447 -0.06256156
vn 1.490181E-06 -0.9987313 0.0503562
vn -7.450714E-07 -0.991553 -0.129702
vn -0.5356498 -0.838595 -0.09918559
vn -0.7795593 -0.6054894 -0.1602177
vn 1.862697E-06 -0.9593275 -0.2822954
vn -0.5051036 -0.8295848 -0.2380324
vn -1.117583E-06 -0.9969675 -0.07781954
vn -0.6456453 -0.7547808 -0.1159661
vn 7.450654E-07 -0.9965995 -0.08239827
vn -0.6686013 -0.7251308 -0.164796
vn -0.6728045 -0.6584996 -0.3372128
vn -0.8128458 -0.2902271 -0.5050248
vn -0.904213 -0.3782216 -0.1983613
vn -0.9061382 -0.203539 -0.3707904
vn -0.9261444 -0.01462672 -0.3768854
vn 3.726227E-07 -0.3649676 -0.9310203
vn -0.3704249 -0.2050397 -0.9059492
vn -0.7816269 -0.1357942 -0.608785
vn -0.5001218 -0.2557493 -0.8273273
vn 0 -0.2791572 -0.9602454
vn -0.5874867 -0.8017415 -0.1098632
vn -0.002162142 -0.9842084 -0.1770006
vn -0.9185935 -0.3937754 -0.03356986
vn -0.4899062 -0.8711286 0.03356959
vn -0.867641 -0.4926375 0.06713774
vn -0.002162142 -0.9842084 -0.1770006
vn 0.004676818 -0.99914 0.0411987
vn 0 -0.2791572 -0.9602454
vn -0.9522053 0.1397623 0.271609
vn -0.9677593 -0.2484845 0.04119951
vn -0.8820438 0.4651973 0.07476725
vn -0.8470163 0.3763987 -0.3753497
vn -0.8975002 -0.1573558 -0.4119861
vn -0.6045496 0.7097426 0.3616426
vn -0.5317847 0.8458012 0.04272397
vn 0.002901595 0.9305365 0.3661878
vn -0.001696894 0.9978436 0.06561373
vn -0.5069607 0.8257662 -0.2471863
vn -0.7636216 0.5878562 -0.2670339
vn -0.76674 0.6418109 0.01373266
vn -0.4208046 0.8911997 0.1693709
vn -0.8207283 0.5534146 0.1419061
vn -0.9860418 0.1289832 0.1052846
vn -0.9568501 0.2871933 -0.04424961
vn -0.4205573 0.7197018 0.5524136
vn 3.725353E-07 0.9649441 0.2624556
vn 3.725178E-07 0.746609 0.6652631
vn 3.725432E-07 0.9734523 -0.2288905
vn -0.9881974 0.01351834 0.1525879
vn -0.9080405 0.2355574 0.3463743
vn -0.4135567 0.2599091 0.8725928
vn 3.725178E-07 0.746609 0.6652631
vn 0 0.2908808 0.9567593
vn 0 0.06328079 0.9979957
vn -0.3284383 0.01759832 0.9443614
vn 3.726698E-07 -0.4531188 0.8914501
vn -0.3957127 -0.4780684 0.7841314
vn -0.7910745 0.07399636 0.6072279
vn -0.7812113 -0.2819809 0.5569522
vn -0.9711388 -0.1905674 0.1434344
vn -0.8671324 -0.4341384 0.2441417
vn -0.8647392 -0.4538034 0.2151477
vn -0.6510272 -0.6623282 0.3707894
vn -0.5657263 -0.7410614 0.3616376
vn -0.3965462 -0.8093044 0.4333329
vn -0.2833516 -0.8805474 0.3799319
vn 0 -0.926257 0.3768924
vn 0 -0.8882894 0.4592841
vn 3.726698E-07 -0.4531188 0.8914501
vn -0.9785378 0.005364529 0.2059979
vn -0.7863543 0.5750195 -0.2258307
vn -0.525971 0.7896718 0.3158687
vn -0.7716065 0.5940827 -0.2273526
vn -0.8975002 -0.1573558 -0.4119861
vn 0 -0.2791572 -0.9602454
vn 3.726227E-07 -0.3649676 -0.9310203
vn 3.726227E-07 -0.3649676 -0.9310203
vn 3.726227E-07 -0.3649676 -0.9310203
vn 0.525971 0.7896718 0.3158687
vn 0.7863327 0.5750514 -0.2258245
vn 0.7716065 0.5940827 -0.2273526
vn 0.7636216 0.5878562 -0.2670339
vn 0.8974909 -0.1573625 -0.4120037
vn 0 -0.2791572 -0.9602454
vn -0.002162142 -0.9842084 -0.1770006
vn 1.117596E-06 -0.9048533 0.4257236
vn 9.686057E-06 -0.6873345 -0.726341
vn 9.686057E-06 -0.6873345 -0.726341
vn 1.117596E-06 -0.9048533 0.4257236
vn 3.726227E-07 -0.3649676 -0.9310203
vn 0 -0.2791572 -0.9602454
vn 3.726227E-07 -0.3649676 -0.9310203
vn 0.3742805 -0.9044913 -0.2044738
vn 0.3830861 -0.905073 -0.184629
vn 0.3709351 -0.9088601 -0.1907366
vn 0.368884 -0.9139131 -0.1693739
vn 0.3696974 -0.9132999 -0.170901
vn 0.2905743 -0.9357408 -0.1998892
vn -0.3742907 0.9044873 0.2044729
vn -0.3708832 0.9092019 0.1892025
vn -0.3830861 0.905073 0.184629
vn -0.3686459 0.9140091 0.169374
vn -0.3689825 0.9138731 0.1693753
vn -0.2905906 0.9357359 0.1998882
vn 0 -0.0418526 0.9991238
vn 0 -0.0418526 0.9991238
vn 0 -0.0418526 0.9991238
vn 0 -0.0418526 0.9991238
vn 0 -0.0418526 0.9991238
vn 0.8833647 0.07663394 0.4623787
vn 0.8833647 0.07663394 0.4623787
vn 0.8833647 0.07663394 0.4623787
vn 0.8833647 0.07663394 0.4623787
vn 0.8927022 0.1063785 -0.4379114
vn 0.8927022 0.1063785 -0.4379114
vn 0.8927022 0.1063785 -0.4379114
vn 0.8927022 0.1063785 -0.4379114
vn -0.1150564 0.03026546 -0.9928977
vn -0.1150683 0.0302178 -0.9928979
vn -0.1150564 0.03026546 -0.9928977
vn -0.1150683 0.0302178 -0.9928979
vn -0.408537 -0.08254981 0.9090012
vn -0.408532 -0.08255 0.9090033
vn -0.408537 -0.08254981 0.9090012
vn -0.4085419 -0.08254961 0.9089989
vn -0.8910642 -0.07810998 -0.4471057
vn -0.8910654 -0.07810956 -0.4471033
vn -0.8910642 -0.07810998 -0.4471057
vn -0.8910654 -0.07810956 -0.4471033
vn 0.3656869 -0.9116184 -0.1876833
vn 0.3656856 -0.9116189 -0.1876834
vn 0.3656869 -0.9116184 -0.1876833
vn 0.3656856 -0.9116189 -0.1876834
vn 0.3656856 -0.9116189 -0.1876834
vn 0 -0.0418526 0.9991238
vn -7.448143E-06 -0.0418526 0.9991238
vn 0 -0.0418526 0.9991238
vn -7.448143E-06 -0.0418526 0.9991238
vn -0.368313 0.9102442 0.189211
vn -0.3683625 0.9102232 0.1892166
vn -0.368313 0.9102442 0.189211
vn -0.3683625 0.9102232 0.1892166
vn 0 0.0419002 -0.9991218
vn -7.448114E-06 0.04194778 -0.9991198
vn 0 0.04194778 -0.9991198
vn -7.448114E-06 0.04194778 -0.9991198
vn -7.448114E-06 0.04194778 -0.9991198
vn 0.9920905 0.02193413 -0.1235941
vn 0.9920905 0.02193413 -0.1235941
vn 0.9920905 0.02193413 -0.1235941
vn 0.9920905 0.02193413 -0.1235941
vn -0.3656869 -0.9116184 -0.1876833
vn -0.3656843 -0.9116193 -0.1876835
vn -0.3656843 -0.9116193 -0.1876835
vn -0.3656869 -0.9116184 -0.1876833
vn -0.3656843 -0.9116193 -0.1876835
vn 0 -0.0418526 0.9991238
vn 7.448143E-06 -0.0418526 0.9991238
vn 7.448143E-06 -0.0418526 0.9991238
vn 0 -0.0418526 0.9991238
vn 0.3683542 0.9102284 0.1892077
vn 0.3683663 0.9102216 0.1892162
vn 0.3683663 0.9102216 0.1892162
vn 0.3683542 0.9102284 0.1892077
vn 0 0.0419002 -0.9991218
vn 7.448114E-06 0.04194778 -0.9991198
vn 7.448114E-06 0.04194778 -0.9991198
vn 0 0.04194778 -0.9991198
vn 7.448114E-06 0.04194778 -0.9991198
vn -0.9920905 0.02193413 -0.1235941
vn -0.9920905 0.02193413 -0.1235941
vn -0.9920905 0.02193413 -0.1235941
vn -0.9920905 0.02193413 -0.1235941
vn -0.9855951 -0.1681281 -0.01831004
vn -0.9954953 -0.09331278 -0.0167839
vn -0.9945698 -0.102709 -0.01678438
vn -0.9855951 -0.1681281 -0.01831004
vn -0.9835157 -0.1727566 -0.05340529
vn -0.9832719 -0.1741384 -0.053405
vn -0.9178712 -0.3786118 -0.1190195
vn -0.9178712 -0.3786118 -0.1190195
vn -0.135168 0.6319605 0.7631221
vn -0.08184943 0.34065 0.9366207
vn -0.07370693 0.2971161 0.9519922
vn -0.1351212 0.6319646 0.7631271
vn -0.01760211 0.003816175 0.9998378
vn -0.0176021 0.003840025 0.9998376
vn -0.006814202 -0.04889071 0.9987809
vn -0.006814202 -0.04889071 0.9987809
vn 0.9920635 0.1182561 0.04272477
vn 0.9962143 0.08297018 0.0259401
vn 0.9966609 0.07791704 0.02441464
vn 0.9920635 0.1182561 0.04272477
vn 0.9840627 0.1705432 0.05035471
vn 0.9842855 0.169253 0.05035391
vn 0.9241331 0.3659338 0.109866
vn 0.9241331 0.3659338 0.109866
vn 0.1324379 -0.6195062 -0.773739
vn 0.07259052 -0.2912683 -0.9538834
vn 0.08039233 -0.3333875 -0.939356
vn 0.1323911 -0.6195102 -0.7737439
vn 0.01936453 -0.01459495 -0.999706
vn 0.01945976 -0.01504793 -0.9996974
vn 0.007198096 0.04051908 -0.9991529
vn 0.007198096 0.04051908 -0.9991529
vn -0.1430036 -0.9364141 -0.320435
vn -0.1430036 -0.9364141 -0.320435
vn -0.1430036 -0.9364141 -0.320435
vn -0.1430036 -0.9364141 -0.320435
vn -0.1547594 0.7044746 -0.6926507
vn -0.1548524 0.7044642 -0.6926405
vn -0.1548524 0.7044642 -0.6926405
vn -0.1547594 0.7044746 -0.6926507
vn -0.3742805 -0.9044913 -0.2044738
vn -0.3709351 -0.9088601 -0.1907366
vn -0.3830861 -0.905073 -0.184629
vn -0.368884 -0.9139131 -0.1693739
vn -0.3696401 -0.9133239 -0.1708966
vn -0.290577 -0.93574 -0.199889
vn 0.3742805 0.9044913 0.2044738
vn 0.3830861 0.905073 0.184629
vn 0.3708832 0.9092019 0.1892025
vn 0.3686459 0.9140091 0.169374
vn 0.3689825 0.9138731 0.1693753
vn 0.2905988 0.9357336 0.1998876
vn 0 -0.0418526 0.9991238
vn 0 -0.0419002 0.9991218
vn 0 -0.0419002 0.9991218
vn 0 -0.0418526 0.9991238
vn 0 -0.0419002 0.9991218
vn -0.8833751 0.0766307 0.4623592
vn -0.8833751 0.0766307 0.4623592
vn -0.8833751 0.0766307 0.4623592
vn -0.8833751 0.0766307 0.4623592
vn -0.8927022 0.1063785 -0.4379114
vn -0.8927022 0.1063785 -0.4379114
vn -0.8927022 0.1063785 -0.4379114
vn -0.8927022 0.1063785 -0.4379114
vn 0.1150564 0.03026546 -0.9928977
vn 0.115068 0.03031304 -0.9928949
vn 0.115068 0.03031304 -0.9928949
vn 0.1150564 0.03026546 -0.9928977
vn 0.4085419 -0.08254961 0.9089989
vn 0.408532 -0.08255 0.9090033
vn 0.408532 -0.08255 0.9090033
vn 0.4085419 -0.08254961 0.9089989
vn 0.8910642 -0.07810998 -0.4471057
vn 0.8910654 -0.07810956 -0.4471033
vn 0.8910654 -0.07810956 -0.4471033
vn 0.8910642 -0.07810998 -0.4471057
vn 0.9855793 -0.1682208 -0.01830974
vn 0.9954905 -0.09336449 -0.01678463
vn 0.9855793 -0.1682208 -0.01830974
vn 0.9945649 -0.1027561 -0.0167843
vn 0.9835116 -0.1727797 -0.05340507
vn 0.9832719 -0.1741384 -0.053405
vn 0.9178712 -0.3786118 -0.1190195
vn 0.9178712 -0.3786118 -0.1190195
vn 0.135168 0.6319605 0.7631221
vn 0.08184943 0.34065 0.9366207
vn 0.1351212 0.6319646 0.7631271
vn 0.0737554 0.2970717 0.9520024
vn 0.01760211 0.003816175 0.9998378
vn 0.0176021 0.003840025 0.9998376
vn 0.006814202 -0.04889071 0.9987809
vn 0.006814202 -0.04889071 0.9987809
vn -0.9920635 0.1182561 0.04272477
vn -0.9961695 0.0830181 0.02746607
vn -0.9920635 0.1182561 0.04272477
vn -0.9966609 0.07791704 0.02441464
vn -0.9840667 0.1705201 0.05035492
vn -0.9842855 0.169253 0.05035391
vn -0.9241331 0.3659338 0.109866
vn -0.9241331 0.3659338 0.109866
vn -0.1324379 -0.6195062 -0.773739
vn -0.07254308 -0.2912693 -0.9538866
vn -0.1323911 -0.6195102 -0.7737439
vn -0.08039233 -0.3333875 -0.939356
vn -0.01936453 -0.01459495 -0.999706
vn -0.01945976 -0.01504793 -0.9996974
vn -0.007198096 0.04051908 -0.9991529
vn -0.007198096 0.04051908 -0.9991529
vn 0.1430036 -0.9364141 -0.320435
vn 0.1430036 -0.9364141 -0.320435
vn 0.1430036 -0.9364141 -0.320435
vn 0.1430036 -0.9364141 -0.320435
vn 0.1547594 0.7044746 -0.6926507
vn 0.1548524 0.7044642 -0.6926405
vn 0.1547594 0.7044746 -0.6926507
vn 0.1548524 0.7044642 -0.6926405
g XD_A_T_0
f 3/3/3 2/2/2 1/1/1
f 2/2/2 4/4/4 1/1/1
f 4/4/4 5/5/5 1/1/1
f 5/5/5 6/6/6 1/1/1
f 3/3/3 7/7/7 2/2/2
f 7/7/7 8/8/8 2/2/2
f 7/7/7 9/9/9 8/8/8
f 10/10/10 8/8/8 9/9/9
f 10/10/10 11/11/11 8/8/8
f 8/8/8 11/11/11 2/2/2
f 12/12/12 10/10/10 9/9/9
f 12/12/12 13/13/13 10/10/10
f 7/7/7 14/14/14 9/9/9
f 14/14/14 15/15/15 9/9/9
f 14/14/14 16/16/16 15/15/15
f 16/16/16 17/17/17 15/15/15
f 18/18/18 4/4/4 2/2/2
f 4/4/4 18/18/18 19/19/19
f 20/20/20 19/19/19 18/18/18
f 21/21/21 19/19/19 20/20/20
f 22/22/22 20/20/20 18/18/18
f 23/23/23 20/20/20 22/22/22
f 22/22/22 24/24/24 23/23/23
f 24/24/24 25/25/25 23/23/23
f 26/26/26 23/23/23 25/25/25
f 27/27/27 26/26/26 25/25/25
f 27/27/27 25/25/25 28/28/28
f 28/28/28 25/25/25 24/24/24
f 29/29/29 28/28/28 24/24/24
f 30/30/30 29/29/29 24/24/24
f 31/31/31 29/29/29 30/30/30
f 32/32/32 31/31/31 30/30/30
f 32/32/32 30/30/30 33/33/33
f 31/31/31 34/34/34 29/29/29
f 34/34/34 28/28/28 29/29/29
f 34/34/34 27/27/27 28/28/28
f 33/33/33 30/30/30 35/35/35
f 36/36/36 33/33/33 35/35/35
f 37/37/37 33/33/33 36/36/36
f 36/36/36 35/35/35 38/38/38
f 38/38/38 35/35/35 39/39/39
f 39/39/39 35/35/35 40/40/40
f 35/35/35 41/41/41 40/40/40
f 35/35/35 30/30/30 41/41/41
f 41/41/41 42/42/42 40/40/40
f 42/42/42 43/43/43 40/40/40
f 42/42/42 44/44/44 43/43/43
f 44/44/44 45/45/45 43/43/43
f 43/43/43 45/45/45 46/46/46
f 40/40/40 43/43/43 46/46/46
f 46/46/46 45/45/45 47/47/47
f 45/45/45 44/44/44 47/47/47
f 46/46/46 47/47/47 48/48/48
f 46/46/46 48/48/48 49/49/49
f 50/50/50 46/46/46 49/49/49
f 50/50/50 40/40/40 46/46/46
f 51/51/51 50/50/50 49/49/49
f 50/50/50 52/52/52 40/40/40
f 52/52/52 50/50/50 51/51/51
f 52/52/52 53/53/53 40/40/40
f 53/53/53 38/38/38 39/39/39
f 53/53/53 39/39/39 40/40/40
f 54/54/54 49/49/49 48/48/48
f 55/55/55 54/54/54 48/48/48
f 54/54/54 56/56/56 49/49/49
f 56/56/56 51/51/51 49/49/49
f 57/57/57 52/52/52 51/51/51
f 58/58/58 52/52/52 57/57/57
f 52/52/52 58/58/58 53/53/53
f 53/53/53 58/58/58 59/59/59
f 60/60/60 53/53/53 59/59/59
f 61/61/61 60/60/60 59/59/59
f 62/62/62 58/58/58 57/57/57
f 63/63/63 58/58/58 62/62/62
f 57/57/57 64/64/64 62/62/62
f 56/56/56 64/64/64 51/51/51
f 64/64/64 57/57/57 51/51/51
f 64/64/64 65/65/65 62/62/62
f 65/65/65 63/63/63 62/62/62
f 64/64/64 66/66/66 65/65/65
f 54/54/54 66/66/66 56/56/56
f 66/66/66 64/64/64 56/56/56
f 66/66/66 67/67/67 65/65/65
f 65/65/65 67/67/67 63/63/63
f 63/63/63 67/67/67 68/68/68
f 69/69/69 63/63/63 68/68/68
f 63/63/63 69/69/69 58/58/58
f 69/69/69 59/59/59 58/58/58
f 68/68/68 70/70/70 69/69/69
f 71/71/71 70/70/70 68/68/68
f 72/72/72 71/71/71 68/68/68
f 70/70/70 73/73/73 69/69/69
f 72/72/72 68/68/68 74/74/74
f 66/66/66 74/74/74 67/67/67
f 74/74/74 68/68/68 67/67/67
f 75/75/75 72/72/72 74/74/74
f 73/73/73 76/76/76 69/69/69
f 76/76/76 59/59/59 69/69/69
f 76/76/76 77/77/77 59/59/59
f 66/66/66 54/54/54 74/74/74
f 54/54/54 55/55/55 74/74/74
f 75/75/75 74/74/74 55/55/55
f 78/78/78 75/75/75 55/55/55
f 55/55/55 79/79/79 78/78/78
f 55/55/55 48/48/48 79/79/79
f 79/79/79 48/48/48 80/80/80
f 79/79/79 80/80/80 81/81/81
f 48/48/48 47/47/47 80/80/80
f 82/82/82 80/80/80 47/47/47
f 83/83/83 82/82/82 47/47/47
f 80/80/80 82/82/82 84/84/84
f 85/85/85 84/84/84 82/82/82
f 84/84/84 85/85/85 86/86/86
f 86/86/86 85/85/85 87/87/87
f 85/85/85 82/82/82 88/88/88
f 83/83/83 88/88/88 82/82/82
f 88/88/88 89/89/89 85/85/85
f 89/89/89 88/88/88 10/10/10
f 89/89/89 90/90/90 85/85/85
f 90/90/90 91/91/91 85/85/85
f 84/84/84 86/86/86 92/92/92
f 93/93/93 92/92/92 86/86/86
f 94/94/94 93/93/93 86/86/86
f 44/44/44 83/83/83 47/47/47
f 44/44/44 95/95/95 83/83/83
f 95/95/95 88/88/88 83/83/83
f 10/10/10 88/88/88 95/95/95
f 96/96/96 95/95/95 44/44/44
f 42/42/42 96/96/96 44/44/44
f 24/24/24 96/96/96 42/42/42
f 41/41/41 24/24/24 42/42/42
f 30/30/30 24/24/24 41/41/41
f 96/96/96 24/24/24 22/22/22
f 97/97/97 96/96/96 22/22/22
f 96/96/96 97/97/97 95/95/95
f 97/97/97 11/11/11 95/95/95
f 10/10/10 95/95/95 11/11/11
f 18/18/18 97/97/97 22/22/22
f 18/18/18 2/2/2 97/97/97
f 2/2/2 11/11/11 97/97/97
f 93/93/93 98/98/98 92/92/92
f 98/98/98 99/99/99 92/92/92
f 98/98/98 100/100/100 99/99/99
f 100/100/100 101/101/101 99/99/99
f 100/100/100 102/102/102 101/101/101
f 102/102/102 103/103/103 101/101/101
f 102/102/102 104/104/104 103/103/103
f 104/104/104 105/105/105 103/103/103
f 104/104/104 102/102/102 106/106/106
f 102/102/102 100/100/100 107/107/107
f 102/102/102 107/107/107 106/106/106
f 108/108/108 99/99/99 101/101/101
f 109/109/109 108/108/108 101/101/101
f 109/109/109 101/101/101 103/103/103
f 110/110/110 109/109/109 103/103/103
f 110/110/110 103/103/103 111/111/111
f 112/112/112 110/110/110 111/111/111
f 110/110/110 112/112/112 113/113/113
f 114/114/114 110/110/110 113/113/113
f 114/114/114 113/113/113 115/115/115
f 116/116/116 114/114/114 115/115/115
f 117/117/117 110/110/110 114/114/114
f 117/117/117 109/109/109 110/110/110
f 118/118/118 114/114/114 116/116/116
f 118/118/118 117/117/117 114/114/114
f 118/118/118 119/119/119 117/117/117
f 108/108/108 119/119/119 81/81/81
f 81/81/81 119/119/119 120/120/120
f 120/120/120 119/119/119 118/118/118
f 120/120/120 121/121/121 81/81/81
f 120/120/120 122/122/122 121/121/121
f 122/122/122 120/120/120 118/118/118
f 122/122/122 123/123/123 121/121/121
f 122/122/122 124/124/124 123/123/123
f 116/116/116 124/124/124 118/118/118
f 124/124/124 122/122/122 118/118/118
f 124/124/124 125/125/125 123/123/123
f 126/126/126 125/125/125 124/124/124
f 127/127/127 126/126/126 124/124/124
f 116/116/116 128/128/128 124/124/124
f 128/128/128 127/127/127 124/124/124
f 129/129/129 117/117/117 119/119/119
f 79/79/79 81/81/81 121/121/121
f 78/78/78 79/79/79 121/121/121
f 78/78/78 121/121/121 75/75/75
f 121/121/121 123/123/123 75/75/75
f 75/75/75 123/123/123 72/72/72
f 123/123/123 125/125/125 72/72/72
f 72/72/72 125/125/125 71/71/71
f 125/125/125 126/126/126 71/71/71
f 81/81/81 80/80/80 108/108/108
f 99/99/99 108/108/108 80/80/80
f 99/99/99 80/80/80 84/84/84
f 92/92/92 99/99/99 84/84/84
f 129/129/129 119/119/119 108/108/108
f 109/109/109 129/129/129 108/108/108
f 129/129/129 109/109/109 117/117/117
f 132/132/132 131/131/131 130/130/130
f 130/130/130 133/133/133 36/36/36
f 38/38/38 130/130/130 36/36/36
f 130/130/130 38/38/38 53/53/53
f 60/60/60 130/130/130 53/53/53
f 134/134/134 130/130/130 60/60/60
f 61/61/61 134/134/134 60/60/60
f 136/136/136 61/61/61 135/135/135
f 137/137/137 136/136/136 135/135/135
f 138/138/138 137/137/137 135/135/135
f 135/135/135 139/139/139 138/138/138
f 135/135/135 140/140/140 139/139/139
f 140/140/140 141/141/141 139/139/139
f 141/141/141 142/142/142 139/139/139
f 142/142/142 143/143/143 139/139/139
f 144/144/144 139/139/139 143/143/143
f 139/139/139 144/144/144 138/138/138
f 145/145/145 144/144/144 143/143/143
f 142/142/142 146/146/146 143/143/143
f 146/146/146 147/147/147 143/143/143
f 143/143/143 147/147/147 148/148/148
f 143/143/143 148/148/148 145/145/145
f 147/147/147 149/149/149 148/148/148
f 148/148/148 150/150/150 145/145/145
f 151/151/151 140/140/140 135/135/135
f 138/138/138 144/144/144 152/152/152
f 138/138/138 152/152/152 153/153/153
f 154/154/154 138/138/138 153/153/153
f 145/145/145 150/150/150 155/155/155
f 145/145/145 155/155/155 144/144/144
f 144/144/144 155/155/155 152/152/152
f 150/150/150 156/156/156 155/155/155
f 155/155/155 156/156/156 152/152/152
f 156/156/156 153/153/153 152/152/152
f 154/154/154 153/153/153 157/157/157
f 153/153/153 156/156/156 157/157/157
f 158/158/158 154/154/154 157/157/157
f 158/158/158 157/157/157 159/159/159
f 160/160/160 158/158/158 159/159/159
f 154/154/154 158/158/158 161/161/161
f 161/161/161 158/158/158 160/160/160
f 137/137/137 154/154/154 161/161/161
f 162/162/162 160/160/160 159/159/159
f 159/159/159 163/163/163 162/162/162
f 163/163/163 164/164/164 162/162/162
f 165/165/165 160/160/160 162/162/162
f 166/166/166 160/160/160 165/165/165
f 166/166/166 167/167/167 160/160/160
f 167/167/167 161/161/161 160/160/160
f 168/168/168 163/163/163 159/159/159
f 157/157/157 168/168/168 159/159/159
f 156/156/156 168/168/168 157/157/157
f 164/164/164 163/163/163 148/148/148
f 163/163/163 150/150/150 148/148/148
f 156/156/156 150/150/150 168/168/168
f 150/150/150 163/163/163 168/168/168
f 148/148/148 149/149/149 164/164/164
f 149/149/149 169/169/169 164/164/164
f 170/170/170 164/164/164 169/169/169
f 162/162/162 164/164/164 170/170/170
f 165/165/165 162/162/162 171/171/171
f 162/162/162 170/170/170 171/171/171
f 171/171/171 170/170/170 172/172/172
f 171/171/171 173/173/173 165/165/165
f 173/173/173 174/174/174 165/165/165
f 173/173/173 171/171/171 175/175/175
f 175/175/175 176/176/176 173/173/173
f 176/176/176 175/175/175 177/177/177
f 176/176/176 177/177/177 178/178/178
f 173/173/173 176/176/176 179/179/179
f 179/179/179 174/174/174 173/173/173
f 180/180/180 179/179/179 176/176/176
f 179/179/179 180/180/180 181/181/181
f 182/182/182 180/180/180 176/176/176
f 183/183/183 182/182/182 176/176/176
f 177/177/177 175/175/175 184/184/184
f 184/184/184 185/185/185 177/177/177
f 185/185/185 186/186/186 177/177/177
f 179/179/179 187/187/187 174/174/174
f 179/179/179 181/181/181 187/187/187
f 187/187/187 188/188/188 174/174/174
f 174/174/174 188/188/188 165/165/165
f 188/188/188 166/166/166 165/165/165
f 166/166/166 188/188/188 167/167/167
f 188/188/188 189/189/189 167/167/167
f 167/167/167 189/189/189 161/161/161
f 189/189/189 190/190/190 161/161/161
f 190/190/190 191/191/191 161/161/161
f 191/191/191 192/192/192 161/161/161
f 191/191/191 193/193/193 192/192/192
f 191/191/191 194/194/194 193/193/193
f 195/195/195 194/194/194 191/191/191
f 195/195/195 196/196/196 194/194/194
f 197/197/197 195/195/195 191/191/191
f 197/197/197 191/191/191 190/190/190
f 197/197/197 198/198/198 195/195/195
f 199/199/199 198/198/198 197/197/197
f 200/200/200 199/199/199 197/197/197
f 200/200/200 197/197/197 201/201/201
f 201/201/201 197/197/197 190/190/190
f 201/201/201 190/190/190 189/189/189
f 202/202/202 199/199/199 200/200/200
f 203/203/203 202/202/202 200/200/200
f 203/203/203 200/200/200 201/201/201
f 204/204/204 202/202/202 203/203/203
f 205/205/205 204/204/204 203/203/203
f 205/205/205 203/203/203 201/201/201
f 206/206/206 204/204/204 205/205/205
f 207/207/207 206/206/206 205/205/205
f 205/205/205 201/201/201 207/207/207
f 193/193/193 137/137/137 192/192/192
f 193/193/193 208/208/208 137/137/137
f 201/201/201 209/209/209 207/207/207
f 201/201/201 210/210/210 209/209/209
f 210/210/210 201/201/201 189/189/189
f 210/210/210 189/189/189 188/188/188
f 187/187/187 210/210/210 188/188/188
f 210/210/210 211/211/211 209/209/209
f 211/211/211 210/210/210 187/187/187
f 212/212/212 211/211/211 187/187/187
f 213/213/213 206/206/206 207/207/207
f 214/214/214 207/207/207 209/209/209
f 214/214/214 209/209/209 215/215/215
f 211/211/211 215/215/215 209/209/209
f 216/216/216 214/214/214 215/215/215
f 216/216/216 217/217/217 214/214/214
f 215/215/215 218/218/218 216/216/216
f 218/218/218 219/219/219 216/216/216
f 218/218/218 215/215/215 220/220/220
f 212/212/212 220/220/220 211/211/211
f 220/220/220 215/215/215 211/211/211
f 218/218/218 220/220/220 221/221/221
f 220/220/220 222/222/222 221/221/221
f 223/223/223 218/218/218 221/221/221
f 224/224/224 223/223/223 221/221/221
f 223/223/223 225/225/225 216/216/216
f 226/226/226 222/222/222 220/220/220
f 227/227/227 226/226/226 220/220/220
f 212/212/212 227/227/227 220/220/220
f 212/212/212 181/181/181 227/227/227
f 227/227/227 181/181/181 228/228/228
f 228/228/228 226/226/226 227/227/227
f 181/181/181 229/229/229 228/228/228
f 230/230/230 229/229/229 181/181/181
f 231/231/231 226/226/226 228/228/228
f 232/232/232 231/231/231 228/228/228
f 233/233/233 231/231/231 232/232/232
f 234/234/234 233/233/233 232/232/232
f 235/235/235 232/232/232 228/228/228
f 232/232/232 235/235/235 234/234/234
f 236/236/236 235/235/235 228/228/228
f 236/236/236 237/237/237 235/235/235
f 237/237/237 238/238/238 235/235/235
f 238/238/238 237/237/237 239/239/239
f 239/239/239 237/237/237 240/240/240
f 237/237/237 241/241/241 240/240/240
f 236/236/236 241/241/241 237/237/237
f 242/242/242 238/238/238 239/239/239
f 243/243/243 238/238/238 242/242/242
f 244/244/244 243/243/243 242/242/242
f 238/238/238 243/243/243 245/245/245
f 235/235/235 238/238/238 245/245/245
f 235/235/235 245/245/245 234/234/234
f 240/240/240 246/246/246 239/239/239
f 246/246/246 247/247/247 239/239/239
f 239/239/239 247/247/247 242/242/242
f 247/247/247 248/248/248 242/242/242
f 242/242/242 248/248/248 249/249/249
f 248/248/248 250/250/250 249/249/249
f 250/250/250 248/248/248 251/251/251
f 248/248/248 252/252/252 251/251/251
f 251/251/251 252/252/252 253/253/253
f 252/252/252 254/254/254 253/253/253
f 248/248/248 255/255/255 252/252/252
f 247/247/247 255/255/255 248/248/248
f 252/252/252 256/256/256 254/254/254
f 255/255/255 256/256/256 252/252/252
f 257/257/257 256/256/256 255/255/255
f 257/257/257 246/246/246 172/172/172
f 257/257/257 172/172/172 258/258/258
f 257/257/257 258/258/258 256/256/256
f 259/259/259 258/258/258 172/172/172
f 260/260/260 258/258/258 259/259/259
f 258/258/258 260/260/260 256/256/256
f 261/261/261 260/260/260 259/259/259
f 262/262/262 260/260/260 261/261/261
f 260/260/260 262/262/262 256/256/256
f 262/262/262 254/254/254 256/256/256
f 263/263/263 262/262/262 261/261/261
f 263/263/263 264/264/264 262/262/262
f 264/264/264 265/265/265 262/262/262
f 265/265/265 266/266/266 262/262/262
f 266/266/266 254/254/254 262/262/262
f 255/255/255 267/267/267 257/257/257
f 172/172/172 170/170/170 259/259/259
f 170/170/170 169/169/169 259/259/259
f 261/261/261 259/259/259 149/149/149
f 259/259/259 169/169/169 149/149/149
f 263/263/263 261/261/261 147/147/147
f 261/261/261 149/149/149 147/147/147
f 264/264/264 263/263/263 146/146/146
f 263/263/263 147/147/147 146/146/146
f 171/171/171 172/172/172 246/246/246
f 246/246/246 240/240/240 171/171/171
f 171/171/171 240/240/240 175/175/175
f 240/240/240 184/184/184 175/175/175
f 240/240/240 241/241/241 184/184/184
f 241/241/241 185/185/185 184/184/184
f 241/241/241 236/236/236 185/185/185
f 236/236/236 268/268/268 185/185/185
f 185/185/185 268/268/268 269/269/269
f 268/268/268 270/270/270 269/269/269
f 236/236/236 228/228/228 268/268/268
f 228/228/228 229/229/229 268/268/268
f 270/270/270 268/268/268 229/229/229
f 271/271/271 270/270/270 229/229/229
f 257/257/257 267/267/267 246/246/246
f 267/267/267 247/247/247 246/246/246
f 247/247/247 267/267/267 255/255/255
f 273/273/273 272/272/272 20/20/20
f 274/274/274 20/20/20 23/23/23
f 26/26/26 275/275/275 23/23/23
f 278/278/278 277/277/277 276/276/276
f 277/277/277 93/93/93 276/276/276
f 277/277/277 279/279/279 93/93/93
f 279/279/279 98/98/98 93/93/93
f 98/98/98 279/279/279 100/100/100
f 100/100/100 279/279/279 107/107/107
f 107/107/107 279/279/279 9/9/9
f 9/9/9 279/279/279 277/277/277
f 15/15/15 107/107/107 9/9/9
f 12/12/12 9/9/9 277/277/277
f 277/277/277 278/278/278 12/12/12
f 107/107/107 15/15/15 17/17/17
f 106/106/106 107/107/107 17/17/17
f 278/278/278 280/280/280 12/12/12
f 281/281/281 5/5/5 19/19/19
f 282/282/282 4/4/4 19/19/19
f 284/284/284 283/283/283 208/208/208
f 285/285/285 208/208/208 194/194/194
f 208/208/208 193/193/193 194/194/194
f 208/208/208 286/286/286 136/136/136
f 286/286/286 61/61/61 136/136/136
f 208/208/208 136/136/136 137/137/137
f 192/192/192 137/137/137 161/161/161
f 138/138/138 154/154/154 137/137/137
f 288/288/288 287/287/287 214/214/214
f 214/214/214 289/289/289 207/207/207
f 187/187/187 181/181/181 212/212/212
f 292/292/292 291/291/291 290/290/290
f 292/292/292 293/293/293 291/291/291
f 292/292/292 294/294/294 293/293/293
f 292/292/292 290/290/290 295/295/295
f 298/298/298 297/297/297 296/296/296
f 299/299/299 297/297/297 298/298/298
f 300/300/300 297/297/297 299/299/299
f 296/296/296 297/297/297 301/301/301
f 304/304/304 303/303/303 302/302/302
f 306/306/306 305/305/305 302/302/302
f 309/309/309 308/308/308 307/307/307
f 308/308/308 310/310/310 307/307/307
f 313/313/313 312/312/312 311/311/311
f 312/312/312 314/314/314 311/311/311
f 317/317/317 316/316/316 315/315/315
f 316/316/316 318/318/318 315/315/315
f 321/321/321 320/320/320 319/319/319
f 320/320/320 322/322/322 319/319/319
f 325/325/325 324/324/324 323/323/323
f 324/324/324 326/326/326 323/323/323
f 329/329/329 328/328/328 327/327/327
f 331/331/331 330/330/330 327/327/327
f 334/334/334 333/333/333 332/332/332
f 333/333/333 335/335/335 332/332/332
f 338/338/338 337/337/337 336/336/336
f 337/337/337 339/339/339 336/336/336
f 342/342/342 341/341/341 340/340/340
f 344/344/344 343/343/343 340/340/340
f 347/347/347 346/346/346 345/345/345
f 346/346/346 348/348/348 345/345/345
f 351/351/351 350/350/350 349/349/349
f 353/353/353 352/352/352 349/349/349
f 356/356/356 355/355/355 354/354/354
f 355/355/355 357/357/357 354/354/354
f 360/360/360 359/359/359 358/358/358
f 359/359/359 361/361/361 358/358/358
f 364/364/364 363/363/363 362/362/362
f 366/366/366 365/365/365 362/362/362
f 369/369/369 368/368/368 367/367/367
f 368/368/368 370/370/370 367/367/367
f 373/373/373 372/372/372 371/371/371
f 372/372/372 374/374/374 371/371/371
f 373/373/373 375/375/375 372/372/372
f 375/375/375 376/376/376 372/372/372
f 375/375/375 377/377/377 376/376/376
f 377/377/377 378/378/378 376/376/376
f 381/381/381 380/380/380 379/379/379
f 380/380/380 382/382/382 379/379/379
f 383/383/383 380/380/380 381/381/381
f 384/384/384 383/383/383 381/381/381
f 385/385/385 383/383/383 384/384/384
f 386/386/386 385/385/385 384/384/384
f 389/389/389 388/388/388 387/387/387
f 388/388/388 390/390/390 387/387/387
f 389/389/389 391/391/391 388/388/388
f 391/391/391 392/392/392 388/388/388
f 391/391/391 393/393/393 392/392/392
f 393/393/393 394/394/394 392/392/392
f 397/397/397 396/396/396 395/395/395
f 396/396/396 398/398/398 395/395/395
f 397/397/397 399/399/399 396/396/396
f 399/399/399 400/400/400 396/396/396
f 399/399/399 401/401/401 400/400/400
f 401/401/401 402/402/402 400/400/400
f 405/405/405 404/404/404 403/403/403
f 404/404/404 406/406/406 403/403/403
f 409/409/409 408/408/408 407/407/407
f 408/408/408 410/410/410 407/407/407
f 413/413/413 412/412/412 411/411/411
f 414/414/414 412/412/412 413/413/413
f 415/415/415 412/412/412 414/414/414
f 411/411/411 412/412/412 416/416/416
f 419/419/419 418/418/418 417/417/417
f 419/419/419 420/420/420 418/418/418
f 419/419/419 421/421/421 420/420/420
f 419/419/419 417/417/417 422/422/422
f 425/425/425 424/424/424 423/423/423
f 427/427/427 426/426/426 423/423/423
f 430/430/430 429/429/429 428/428/428
f 429/429/429 431/431/431 428/428/428
f 434/434/434 433/433/433 432/432/432
f 433/433/433 435/435/435 432/432/432
f 438/438/438 437/437/437 436/436/436
f 437/437/437 439/439/439 436/436/436
f 442/442/442 441/441/441 440/440/440
f 441/441/441 443/443/443 440/440/440
f 446/446/446 445/445/445 444/444/444
f 445/445/445 447/447/447 444/444/444
f 450/450/450 449/449/449 448/448/448
f 449/449/449 451/451/451 448/448/448
f 452/452/452 451/451/451 449/449/449
f 453/453/453 452/452/452 449/449/449
f 454/454/454 452/452/452 453/453/453
f 455/455/455 454/454/454 453/453/453
f 458/458/458 457/457/457 456/456/456
f 457/457/457 459/459/459 456/456/456
f 457/457/457 460/460/460 459/459/459
f 460/460/460 461/461/461 459/459/459
f 460/460/460 462/462/462 461/461/461
f 462/462/462 463/463/463 461/461/461
f 466/466/466 465/465/465 464/464/464
f 465/465/465 467/467/467 464/464/464
f 468/468/468 467/467/467 465/465/465
f 469/469/469 468/468/468 465/465/465
f 470/470/470 468/468/468 469/469/469
f 471/471/471 470/470/470 469/469/469
f 474/474/474 473/473/473 472/472/472
f 473/473/473 475/475/475 472/472/472
f 476/476/476 475/475/475 473/473/473
f 477/477/477 476/476/476 473/473/473
f 478/478/478 476/476/476 477/477/477
f 479/479/479 478/478/478 477/477/477
f 482/482/482 481/481/481 480/480/480
f 481/481/481 483/483/483 480/480/480
f 486/486/486 485/485/485 484/484/484
f 485/485/485 487/487/487 484/484/484
