g XD_A_S
v -0.2316153 0.1770929 1.503415
v -0.2097488 0.07509026 1.467677
v -0.2010486 0.1543044 1.489701
v -0.1944131 0.1966522 1.535478
v -0.2488861 0.1628548 1.643541
v -0.2050336 0.07655938 1.465763
v -0.2309027 0.08406642 1.429106
v -0.291189 0.1621962 1.572226
v -0.30905 0.08287404 1.5916
v -0.2706836 0.07968573 1.654962
v -0.2891058 0.007110382 1.573101
v -0.2510956 -0.002418701 1.644826
v -0.3568899 0.08909582 1.506806
v -0.3182873 0.154737 1.49155
v -0.3197668 0.02602863 1.491543
v -0.2612073 0.1612587 1.44873
v -0.2362128 -0.02162257 1.518258
v -0.2187683 -0.0374159 1.587921
v -0.1909839 -0.06808797 1.490858
v -0.19909 -0.01985434 1.483255
v -0.2713712 0.00762534 1.452395
v -0.206474 0.01180353 1.473492
v -0.3581183 0.1702861 1.407293
v -0.3945798 0.09620619 1.421322
v -0.3659582 0.01907009 1.412048
v -0.3581183 0.1702861 1.407293
v -0.2955804 0.1762263 1.374359
v -0.2757868 0.08586401 1.345081
v -0.3042212 0.0002203723 1.374309
v -0.2309027 0.08406642 1.429106
v -0.2757868 0.08586401 1.345081
v -0.2097488 0.07509026 1.467677
v -0.2050336 0.07655938 1.465763
v -0.378565 0.01175647 1.404752
v -0.3064441 -0.009344243 1.362199
v -0.4098599 0.09680218 1.414931
v -0.3645361 0.1756566 1.397746
v -0.2952295 0.1885407 1.357977
v -0.2730932 0.08394038 1.328455
v -0.2730932 0.08394038 1.328455
v -0.4009256 0.03457052 1.36207
v -0.3372473 0.0184474 1.328685
v -0.4270166 0.01709362 1.323751
v -0.3651172 0.001671777 1.283061
v -0.3230862 0.06232235 1.25799
v -0.3019562 0.07727208 1.300652
v -0.4480624 0.08375905 1.327667
v -0.4191498 0.09075567 1.370902
v -0.4007455 0.1677557 1.33638
v -0.3770779 0.1739183 1.36928
v -0.4227313 0.1495857 1.303846
v -0.3561047 0.1603007 1.269771
v -0.3392642 0.1758795 1.299738
v -0.3230862 0.06232235 1.25799
v -0.3019562 0.07727208 1.300652
v -0.3152304 0.1838806 1.338078
v -0.3770779 0.1739183 1.36928
v -0.2952295 0.1885407 1.357977
v -0.3645361 0.1756566 1.397746
v -0.3645361 0.1756566 1.397746
v 0.1328552 -0.09217499 1.608809
v 0.1847113 -0.057462 1.602281
v 0.1276733 -0.1229314 1.479304
v 0.06528106 -0.1631075 1.47415
v 0.1909839 -0.06808797 1.490858
v 0.1769839 -0.06657148 1.361531
v 0.1014044 -0.1376411 1.364107
v 0.1023239 -0.133645 1.248093
v 0.1761954 -0.07264277 1.248194
v 0.1154849 -0.1461768 1.135881
v 0.186785 0.01344918 1.249972
v 0.1912277 0.01887213 1.361163
v 0.06480926 -0.1138728 1.611481
v 0 -0.1613959 1.473684
v 0 -0.1638401 1.365052
v 0 -0.1747514 1.12902
v 0 -0.1574677 1.248528
v 0.2187683 -0.0374159 1.587921
v 0.19909 -0.01985434 1.483255
v 0.2050336 0.07655938 1.465763
v 0.194884 0.01919632 1.22051
v 0.20271 -0.08000399 1.149059
v 0.21034 0.0263353 1.151702
v 0 -0.1170097 1.613172
v 0.04660614 -0.03526018 1.676928
v 0 -0.04782654 1.673396
v 0.08697052 -0.02439555 1.686764
v 0.08073425 0.0261288 1.729625
v 0.1306381 -0.02036208 1.679149
v 0.1248386 0.05609384 1.729931
v 0.1786993 0.0634058 1.708376
v 0.1817801 -0.01600328 1.666165
v 0.2510956 -0.002418701 1.644826
v 0.264715 0.07634126 1.682992
v 0.2706836 0.07968573 1.654962
v 0.07751068 0.07919231 1.752639
v -0.04660614 -0.03526018 1.676928
v -0.06480926 -0.1138728 1.611481
v -0.06528106 -0.1631075 1.47415
v -0.1328552 -0.09217499 1.608809
v -0.1276733 -0.1229314 1.479304
v -0.1847113 -0.057462 1.602281
v -0.1909839 -0.06808797 1.490858
v -0.1769839 -0.06657148 1.361531
v -0.1014044 -0.1376411 1.364107
v -0.1023239 -0.133645 1.248093
v -0.1761954 -0.07264277 1.248194
v -0.1154849 -0.1461768 1.135881
v -0.186785 0.01344918 1.249972
v -0.1912277 0.01887213 1.361163
v -0.2187683 -0.0374159 1.587921
v -0.1817801 -0.01600328 1.666165
v -0.2510956 -0.002418701 1.644826
v -0.1786993 0.0634058 1.708376
v -0.1306381 -0.02036208 1.679149
v -0.1248386 0.05609384 1.729931
v -0.264715 0.07634126 1.682992
v -0.2706836 0.07968573 1.654962
v -0.194884 0.01919632 1.22051
v -0.20271 -0.08000399 1.149059
v -0.21034 0.0263353 1.151702
v -0.08073425 0.0261288 1.729625
v -0.08697052 -0.02439555 1.686764
v -0.07751068 0.07919231 1.752639
v 0.1605713 0.1654924 1.452101
v 0.09850311 0.1403914 1.347493
v 0.1807934 0.09352119 1.369009
v 0.09817291 0.1971284 1.444306
v 0 0.1939716 1.443406
v 0 0.1385184 1.344996
v 0 0.1349462 1.253708
v 0.1067718 0.1232514 1.252513
v 0.10384 0.2218374 1.547117
v 0.1944131 0.1966522 1.535478
v 0 0.1712345 1.163798
v 0.1397888 0.1462562 1.15765
v 0 0.2199274 1.549319
v 0.2010486 0.1543044 1.489701
v 0.2050336 0.07655938 1.465763
v 0.1912277 0.01887213 1.361163
v 0.186785 0.01344918 1.249972
v 0 0.1945883 1.682114
v 0.1186111 0.1932438 1.67473
v 0.2488861 0.1628548 1.643541
v 0.1741229 0.131071 1.714009
v 0.264715 0.07634126 1.682992
v 0.1786993 0.0634058 1.708376
v 0.1248386 0.05609384 1.729931
v 0.1150568 0.1248498 1.743102
v 0.2706836 0.07968573 1.654962
v 0.07751068 0.07919231 1.752639
v 0.04716888 0.1087675 1.767384
v 0.1260434 0.1482183 1.73391
v 0.02901672 0.1589838 1.754367
v 4.719943E-08 0.1250421 1.775686
v 0 0.1638884 1.752057
v 0.194884 0.01919632 1.22051
v 0.21034 0.0263353 1.151702
v 0.2316153 0.1770929 1.503415
v 0.2010486 0.1543044 1.489701
v 0.2097488 0.07509026 1.467677
v 0.1944131 0.1966522 1.535478
v 0.2488861 0.1628548 1.643541
v 0.2050336 0.07655938 1.465763
v 0.2309027 0.08406642 1.429106
v 0.291189 0.1621962 1.572226
v 0.30905 0.08287404 1.5916
v 0.2706836 0.07968573 1.654962
v 0.2891058 0.007110382 1.573101
v 0.2510956 -0.002418701 1.644826
v 0.3568899 0.08909582 1.506806
v 0.3182873 0.154737 1.49155
v 0.3197668 0.02602863 1.491543
v 0.2612073 0.1612587 1.44873
v 0.2362128 -0.02162257 1.518258
v 0.2187683 -0.0374159 1.587921
v 0.1909839 -0.06808797 1.490858
v 0.19909 -0.01985434 1.483255
v 0.2713712 0.00762534 1.452395
v 0.206474 0.01180353 1.473492
v 0.3581183 0.1702861 1.407293
v 0.3945798 0.09620619 1.421322
v 0.3659582 0.01907009 1.412048
v 0.3581183 0.1702861 1.407293
v 0.2955804 0.1762263 1.374359
v 0.2757868 0.08586401 1.345081
v 0.3042212 0.0002203723 1.374309
v 0.2309027 0.08406642 1.429106
v 0.2757868 0.08586401 1.345081
v 0.2097488 0.07509026 1.467677
v 0.2050336 0.07655938 1.465763
v 0.378565 0.01175647 1.404752
v 0.3064441 -0.009344243 1.362199
v 0.4098599 0.09680218 1.414931
v 0.3645361 0.1756566 1.397746
v 0.2952295 0.1885407 1.357977
v 0.2730932 0.08394038 1.328455
v 0.2730932 0.08394038 1.328455
v 0.4009256 0.03457052 1.36207
v 0.3372473 0.0184474 1.328685
v 0.4270166 0.01709362 1.323751
v 0.3651172 0.001671777 1.283061
v 0.3230862 0.06232235 1.25799
v 0.3019562 0.07727208 1.300652
v 0.4480624 0.08375905 1.327667
v 0.4191498 0.09075567 1.370902
v 0.4007455 0.1677557 1.33638
v 0.3770779 0.1739183 1.36928
v 0.4227313 0.1495857 1.303846
v 0.3561047 0.1603007 1.269771
v 0.3392642 0.1758795 1.299738
v 0.3230862 0.06232235 1.25799
v 0.3019562 0.07727208 1.300652
v 0.3152304 0.1838806 1.338078
v 0.3770779 0.1739183 1.36928
v 0.2952295 0.1885407 1.357977
v 0.3645361 0.1756566 1.397746
v 0.3645361 0.1756566 1.397746
v 0 -0.04782654 1.673396
v 0.02886902 -0.01759535 1.707205
v 0.04660614 -0.03526018 1.676928
v 0 -0.0253832 1.695726
v 0.08073425 0.0261288 1.729625
v 0.04660614 -0.03526018 1.676928
v 0.05462463 0.01026855 1.726258
v 0.02886902 -0.01759535 1.707205
v -0.1605713 0.1654924 1.452101
v -0.1807934 0.09352119 1.369009
v -0.09850311 0.1403914 1.347493
v -0.09817291 0.1971284 1.444306
v 0 0.1939716 1.443406
v 0 0.1385184 1.344996
v 0 0.1349462 1.253708
v -0.1067718 0.1232514 1.252513
v -0.10384 0.2218374 1.547117
v -0.1944131 0.1966522 1.535478
v 0 0.1712345 1.163798
v -0.1397888 0.1462562 1.15765
v 0 0.2199274 1.549319
v -0.2010486 0.1543044 1.489701
v -0.2050336 0.07655938 1.465763
v -0.1912277 0.01887213 1.361163
v -0.186785 0.01344918 1.249972
v 0 0.1945883 1.682114
v -0.1186111 0.1932438 1.67473
v -0.2488861 0.1628548 1.643541
v -0.1741229 0.131071 1.714009
v -0.264715 0.07634126 1.682992
v -0.1786993 0.0634058 1.708376
v -0.1248386 0.05609384 1.729931
v -0.1150568 0.1248498 1.743102
v -0.2706836 0.07968573 1.654962
v -0.07751068 0.07919231 1.752639
v -0.04716888 0.1087675 1.767384
v -0.1260434 0.1482183 1.73391
v -0.02901672 0.1589838 1.754367
v 4.719943E-08 0.1250421 1.775686
v 0 0.1638884 1.752057
v -0.194884 0.01919632 1.22051
v -0.21034 0.0263353 1.151702
v -0.19909 -0.01985434 1.483255
v -0.2050336 0.07655938 1.465763
v -0.02886902 -0.01759535 1.707205
v 0 -0.04782654 1.673396
v -0.04660614 -0.03526018 1.676928
v 0 -0.0253832 1.695726
v -0.04660614 -0.03526018 1.676928
v -0.05462463 0.01026855 1.726258
v -0.02886902 -0.01759535 1.707205
v -0.08073425 0.0261288 1.729625
v 0.4490948 0.002446308 1.173208
v 0.4421496 0.01054161 1.11325
v 0.4238086 0.03463367 1.157306
v 0.4730173 -0.01669383 1.127962
v 0.4839429 0.01355237 1.187147
v 0.5070422 -0.002322682 1.13235
v 0.4957373 0.05624296 1.186607
v 0.5167481 0.0395825 1.127236
v 0.4957532 0.07476808 1.113487
v 0.4742865 0.08897884 1.167137
v 0.4438831 0.08265333 1.151564
v 0.4644159 0.06134005 1.099226
v 0.4421496 0.01054161 1.11325
v 0.4238086 0.03463367 1.157306
v 0.4556799 0.02262574 1.252798
v 0.475116 0.07241451 1.253572
v 0.4332401 0.02199847 1.292054
v 0.4521832 0.08156984 1.305476
v 0.4221264 0.08680968 1.347021
v 0.4042782 0.1405296 1.330681
v 0.4302972 0.1269949 1.270794
v 0.4051574 0.03023893 1.34552
v 0.3479822 0.1513532 1.301997
v 0.3770215 0.1296731 1.244533
v 0.3213602 0.07762078 1.288173
v 0.3575476 0.05273785 1.2423
v 0.3552484 0.01780475 1.312713
v 0.3867755 0.007502276 1.275213
v 0.3575476 0.05273785 1.2423
v 0.3213602 0.07762078 1.288173
v 0.3809604 0.04715979 1.208045
v 0.4156439 0.008436514 1.230949
v 0.4504565 0.1160172 1.229231
v 0.4091 0.1100247 1.2041
v 0.3809604 0.04715979 1.208045
v 0.4730173 -0.01669383 1.127962
v 0.5197171 -0.01802203 1.106949
v 0.474573 -0.03437834 1.106141
v 0.5070422 -0.002322682 1.13235
v 0.4409662 -0.004087903 1.092449
v 0.4421496 0.01054161 1.11325
v 0.5337372 0.03124039 1.092138
v 0.5167481 0.0395825 1.127236
v 0.5071115 0.07446431 1.078406
v 0.4957532 0.07476808 1.113487
v 0.4644159 0.06134005 1.099226
v 0.4709103 0.0605953 1.067501
v 0.4418622 -0.03924509 1.069597
v 0.4768136 -0.06241392 1.082538
v 0.4471014 -0.06758976 1.035708
v 0.476741 -0.08325894 1.047736
v 0.4582312 -0.08727715 0.9966386
v 0.4801562 -0.09779418 1.002429
v 0.5608423 0.01928513 1.005717
v 0.5336468 0.0643952 0.9946268
v 0.5505627 0.04482685 0.9487071
v 0.5690781 0.0003111825 0.9584684
v 0.5634045 -0.02992255 1.020774
v 0.5719632 -0.04621067 0.9703048
v 0.5644431 0.01939102 0.9055182
v 0.574436 -0.02275742 0.9022857
v 0.5770581 -0.05696873 0.9181834
v 0.5546237 -0.05726932 1.029348
v 0.5710675 -0.04929804 0.9711703
v 0.5651138 -0.07454409 0.9759905
v 0.5761511 -0.06932753 0.9222335
v 0.5717942 -0.08859065 0.9266653
v 0.5106613 -0.0498566 1.078465
v 0.4768136 -0.06241392 1.082538
v 0.5138153 -0.05376893 1.037266
v 0.4869989 -0.04025727 1.060011
v 0.4869989 -0.04025727 1.060011
v 0.476741 -0.08325894 1.047736
v 0.4869989 -0.04025727 1.060011
v 0.4734692 -0.04995589 1.027731
v 0.4801562 -0.09779418 1.002429
v 0.4764853 -0.07620634 0.9917693
v 0.4644159 0.06134005 1.099226
v 0.4409662 -0.004087903 1.092449
v 0.4709103 0.0605953 1.067501
v 0.4421496 0.01054161 1.11325
v 0.4661273 -0.0134075 1.063428
v 0.4418622 -0.03924509 1.069597
v 0.4471014 -0.06758976 1.035708
v 0.4734692 -0.04995589 1.027731
v 0.4582312 -0.08727715 0.9966386
v 0.4764853 -0.07620634 0.9917693
v 0.523627 0.006213749 1.005655
v 0.5336468 0.0643952 0.9946268
v 0.5505627 0.04482685 0.9487071
v 0.5527295 -0.006988049 0.9565066
v 0.524285 -0.02852302 1.019851
v 0.5719632 -0.04621067 0.9703048
v 0.5644431 0.01939102 0.9055182
v 0.5634045 -0.02992255 1.020774
v 0.4869989 -0.04025727 1.060011
v 0.5138153 -0.05376893 1.037266
v 0.5437647 -0.06088683 0.9652457
v 0.574436 -0.02275742 0.9022857
v 0.5770581 -0.05696873 0.9181834
v 0.4661273 -0.0134075 1.063428
v 0.4869989 -0.04025727 1.060011
v 0.5437647 -0.06088683 0.9652457
v 0.5651138 -0.07454409 0.9759905
v 0.5717942 -0.08859065 0.9266653
v 0.5624651 -0.0835292 0.9192304
v 0.5761511 -0.06932753 0.9222335
v 0.5624651 -0.0835292 0.9192304
v 0.5437647 -0.06088683 0.9652457
v 0.5624651 -0.0835292 0.9192304
v 0.5710675 -0.04929804 0.9711703
v 0.5634045 -0.02992255 1.020774
v 0.524285 -0.02852302 1.019851
v 0.4764853 -0.07620634 0.9917693
v -0.4490948 0.002446308 1.173208
v -0.44215 0.01054161 1.11325
v -0.4730173 -0.01669383 1.127962
v -0.4238083 0.03463367 1.157306
v -0.4839426 0.01355237 1.187147
v -0.5070422 -0.002322682 1.13235
v -0.4957376 0.05624296 1.186607
v -0.5167481 0.0395825 1.127236
v -0.4957532 0.07476808 1.113487
v -0.4742865 0.08897884 1.167137
v -0.4438831 0.08265333 1.151564
v -0.4644159 0.06134005 1.099226
v -0.44215 0.01054161 1.11325
v -0.4238083 0.03463367 1.157306
v -0.4556799 0.02262574 1.252798
v -0.4751157 0.07241451 1.253572
v -0.4332401 0.02199847 1.292054
v -0.4521832 0.08156984 1.305476
v -0.4221264 0.08680968 1.347021
v -0.4042782 0.1405296 1.330681
v -0.4302975 0.1269949 1.270794
v -0.4051574 0.03023893 1.34552
v -0.3479825 0.1513532 1.301997
v -0.3770215 0.1296731 1.244533
v -0.3213602 0.07762078 1.288173
v -0.3575476 0.05273785 1.2423
v -0.3552484 0.01780475 1.312713
v -0.3867755 0.007502276 1.275213
v -0.3575476 0.05273785 1.2423
v -0.3213602 0.07762078 1.288173
v -0.3809604 0.04715979 1.208045
v -0.4156439 0.008436514 1.230949
v -0.4504565 0.1160172 1.229231
v -0.4091 0.1100247 1.2041
v -0.3809604 0.04715979 1.208045
v -0.4730173 -0.01669383 1.127962
v -0.5197171 -0.01802203 1.106949
v -0.5070422 -0.002322682 1.13235
v -0.474573 -0.03437834 1.106141
v -0.4409662 -0.004087903 1.092449
v -0.44215 0.01054161 1.11325
v -0.5337372 0.03124039 1.092138
v -0.5167481 0.0395825 1.127236
v -0.5071115 0.07446431 1.078406
v -0.4957532 0.07476808 1.113487
v -0.4644159 0.06134005 1.099226
v -0.4709103 0.0605953 1.067501
v -0.4418622 -0.03924509 1.069597
v -0.4768136 -0.06241392 1.082538
v -0.4471014 -0.06758976 1.035708
v -0.476741 -0.08325894 1.047736
v -0.4582312 -0.08727715 0.9966386
v -0.4801562 -0.09779418 1.002429
v -0.5608425 0.01928513 1.005717
v -0.5336465 0.0643952 0.9946268
v -0.5505627 0.04482685 0.9487071
v -0.5690781 0.0003111825 0.9584684
v -0.5634049 -0.02992255 1.020774
v -0.5719632 -0.04621067 0.9703048
v -0.5644431 0.01939102 0.9055182
v -0.574436 -0.02275742 0.9022857
v -0.5770581 -0.05696873 0.9181834
v -0.5546237 -0.05726932 1.029348
v -0.5710675 -0.04929804 0.9711703
v -0.5651138 -0.07454409 0.9759905
v -0.5761511 -0.06932753 0.9222335
v -0.5717942 -0.08859065 0.9266653
v -0.5106613 -0.0498566 1.078465
v -0.4768136 -0.06241392 1.082538
v -0.5138153 -0.05376893 1.037266
v -0.4869989 -0.04025727 1.060011
v -0.4869989 -0.04025727 1.060011
v -0.476741 -0.08325894 1.047736
v -0.4869989 -0.04025727 1.060011
v -0.4734692 -0.04995589 1.027731
v -0.4801562 -0.09779418 1.002429
v -0.4764853 -0.07620634 0.9917693
v -0.4644159 0.06134005 1.099226
v -0.4409662 -0.004087903 1.092449
v -0.44215 0.01054161 1.11325
v -0.4709103 0.0605953 1.067501
v -0.466127 -0.0134075 1.063428
v -0.4418622 -0.03924509 1.069597
v -0.4471014 -0.06758976 1.035708
v -0.4734692 -0.04995589 1.027731
v -0.4582312 -0.08727715 0.9966386
v -0.4764853 -0.07620634 0.9917693
v -0.523627 0.006213749 1.005655
v -0.5336465 0.0643952 0.9946268
v -0.5505627 0.04482685 0.9487071
v -0.5527295 -0.006988049 0.9565066
v -0.524285 -0.02852302 1.019851
v -0.5719632 -0.04621067 0.9703048
v -0.5644431 0.01939102 0.9055182
v -0.5634049 -0.02992255 1.020774
v -0.4869989 -0.04025727 1.060011
v -0.5138153 -0.05376893 1.037266
v -0.5437647 -0.06088683 0.9652457
v -0.574436 -0.02275742 0.9022857
v -0.5770581 -0.05696873 0.9181834
v -0.466127 -0.0134075 1.063428
v -0.4869989 -0.04025727 1.060011
v -0.5437647 -0.06088683 0.9652457
v -0.5651138 -0.07454409 0.9759905
v -0.5717942 -0.08859065 0.9266653
v -0.5624655 -0.0835292 0.9192304
v -0.5761511 -0.06932753 0.9222335
v -0.5624655 -0.0835292 0.9192304
v -0.5437647 -0.06088683 0.9652457
v -0.5710675 -0.04929804 0.9711703
v -0.5624655 -0.0835292 0.9192304
v -0.5634049 -0.02992255 1.020774
v -0.524285 -0.02852302 1.019851
v -0.4764853 -0.07620634 0.9917693
v -0.08073425 0.0261288 1.729625
v -0.07751068 0.07919231 1.752639
v -0.05462463 0.01026855 1.726258
v 0.05462463 0.01026855 1.726258
v 0.07751068 0.07919231 1.752639
v 0.08073425 0.0261288 1.729625
vt 0.6822531 0.3004395
vt 0.6058196 0.3160618
vt 0.6488343 0.2869981
vt 0.6685348 0.2613364
vt 0.7393619 0.2265289
vt 0.6045179 0.3126814
vt 0.6166005 0.3649247
vt 0.7404622 0.2827738
vt 0.7959884 0.2778288
vt 0.793649 0.2267102
vt 0.849538 0.2772743
vt 0.8451051 0.2210524
vt 0.7958731 0.350043
vt 0.7379116 0.3545561
vt 0.8522436 0.3518088
vt 0.6819329 0.3614712
vt 0.9027789 0.2833716
vt 0.8858036 0.2389573
vt 0.9383484 0.2475333
vt 0.9375396 0.2785388
vt 0.9029039 0.3567812
vt 0.9494643 0.2982118
vt 0.7347464 0.3905795
vt 0.7963372 0.3977879
vt 0.8472499 0.3988486
vt 0.7347464 0.3905795
vt 0.6811134 0.3898047
vt 0.6133264 0.4054025
vt 0.9014364 0.4018375
vt 0.9678744 0.3712356
vt 0.9603385 0.4109861
vt 0.9847854 0.3274785
vt 0.9881305 0.3257121
vt 0.8463643 0.4104481
vt 0.9009432 0.4117315
vt 0.7961283 0.4090174
vt 0.7332631 0.3977901
vt 0.6806161 0.3992528
vt 0.6087378 0.4160538
vt 0.9627326 0.4222313
vt 0.8416454 0.443229
vt 0.9016135 0.4438242
vt 0.8460501 0.4818331
vt 0.8966219 0.4856114
vt 0.9597322 0.4889531
vt 0.9582496 0.4497908
vt 0.7945284 0.485194
vt 0.7948819 0.443432
vt 0.7332112 0.4564479
vt 0.7279327 0.4288074
vt 0.740646 0.4896739
vt 0.6793886 0.4880943
vt 0.6817092 0.459209
vt 0.6059308 0.4872527
vt 0.6082065 0.4476189
vt 0.6828017 0.4283599
vt 0.7279327 0.4288074
vt 0.6806161 0.3992528
vt 0.7332631 0.3977901
vt 0.7332631 0.3977901
vt 0.8355864 0.8423215
vt 0.8751248 0.8462718
vt 0.8460349 0.7656442
vt 0.782086 0.7543674
vt 0.8874373 0.7775332
vt 0.8801721 0.6930227
vt 0.8192794 0.6878033
vt 0.8218105 0.614086
vt 0.8795062 0.6177016
vt 0.828576 0.5175632
vt 0.935775 0.6254035
vt 0.9363325 0.6953578
vt 0.7802051 0.8390009
vt 0.7388746 0.7536352
vt 0.7401137 0.6861926
vt 0.7433224 0.5115624
vt 0.7414755 0.6120767
vt 0.906521 0.8432495
vt 0.9167168 0.7722791
vt 0.9771913 0.7635303
vt 0.9467413 0.5838425
vt 0.891714 0.5281325
vt 0.9591675 0.5402387
vt 0.7373063 0.8389943
vt 0.7717234 0.9083101
vt 0.7361687 0.9009057
vt 0.7997142 0.911251
vt 0.807815 0.9577066
vt 0.8407601 0.9049012
vt 0.8452333 0.9635913
vt 0.8826413 0.9540353
vt 0.8747543 0.8965244
vt 0.9270273 0.887577
vt 0.9457213 0.9415971
vt 0.9607536 0.9306736
vt 0.8100309 0.9922609
vt 0.7003661 0.906999
vt 0.6944361 0.8374251
vt 0.6956656 0.7527796
vt 0.6389703 0.838709
vt 0.6313455 0.7616997
vt 0.5993135 0.8412042
vt 0.5895343 0.7720596
vt 0.5998991 0.6878731
vt 0.6609423 0.6848941
vt 0.661121 0.6111336
vt 0.6033314 0.6126274
vt 0.6579058 0.5144275
vt 0.5468176 0.618257
vt 0.5436908 0.6881437
vt 0.5680495 0.8370306
vt 0.5978377 0.8914366
vt 0.5459286 0.8805749
vt 0.5878434 0.9486189
vt 0.6315013 0.9010564
vt 0.6248751 0.9595426
vt 0.525263 0.9338719
vt 0.5106421 0.9224035
vt 0.5373855 0.5763212
vt 0.5944222 0.5226701
vt 0.5265694 0.5322906
vt 0.6624843 0.9550363
vt 0.6722862 0.9089097
vt 0.6590006 0.989486
vt 0.814876 0.1000898
vt 0.7633189 0.1457745
vt 0.7703322 0.08408076
vt 0.8127003 0.1508456
vt 0.8106835 0.2092003
vt 0.7606304 0.2095446
vt 0.7189643 0.2099804
vt 0.7167485 0.1409447
vt 0.8561509 0.1490616
vt 0.8541341 0.08279657
vt 0.6564056 0.2105422
vt 0.6527003 0.1309881
vt 0.8564143 0.2089124
vt 0.8292184 0.07383633
vt 0.8081945 0.0411998
vt 0.7563261 0.04204094
vt 0.7114472 0.05658251
vt 0.9179512 0.2085025
vt 0.9155177 0.1399152
vt 0.9090005 0.04428363
vt 0.9459579 0.09258145
vt 0.9511666 0.02308619
vt 0.9742248 0.07478017
vt 0.9872582 0.1062315
vt 0.9597483 0.1276541
vt 0.9410934 0.01174647
vt 0.9872435 0.1481068
vt 0.974055 0.1727566
vt 0.9490554 0.1343248
vt 0.9552073 0.1915016
vt 0.9730037 0.2083013
vt 0.955876 0.2083362
vt 0.6833381 0.05623412
vt 0.65156 0.05139941
vt 0.6822531 0.3004395
vt 0.6488343 0.2869981
vt 0.6058196 0.3160618
vt 0.6685348 0.2613364
vt 0.7393619 0.2265289
vt 0.6045179 0.3126814
vt 0.6166005 0.3649247
vt 0.7404622 0.2827738
vt 0.7959884 0.2778288
vt 0.793649 0.2267102
vt 0.849538 0.2772743
vt 0.8451051 0.2210524
vt 0.7958731 0.350043
vt 0.7379116 0.3545561
vt 0.8522436 0.3518088
vt 0.6819329 0.3614712
vt 0.9027789 0.2833716
vt 0.8858036 0.2389573
vt 0.9383484 0.2475333
vt 0.9375396 0.2785388
vt 0.9029039 0.3567812
vt 0.9494643 0.2982118
vt 0.7347464 0.3905795
vt 0.7963372 0.3977879
vt 0.8472499 0.3988486
vt 0.7347464 0.3905795
vt 0.6811134 0.3898047
vt 0.6133264 0.4054025
vt 0.9014364 0.4018375
vt 0.9678744 0.3712356
vt 0.9603385 0.4109861
vt 0.9847854 0.3274785
vt 0.9881305 0.3257121
vt 0.8463643 0.4104481
vt 0.9009432 0.4117315
vt 0.7961283 0.4090174
vt 0.7332631 0.3977901
vt 0.6806161 0.3992528
vt 0.6087378 0.4160538
vt 0.9627326 0.4222313
vt 0.8416454 0.443229
vt 0.9016135 0.4438242
vt 0.8460501 0.4818331
vt 0.8966219 0.4856114
vt 0.9597322 0.4889531
vt 0.9582496 0.4497908
vt 0.7945284 0.485194
vt 0.7948819 0.443432
vt 0.7332112 0.4564479
vt 0.7279327 0.4288074
vt 0.740646 0.4896739
vt 0.6793886 0.4880943
vt 0.6817092 0.459209
vt 0.6059308 0.4872527
vt 0.6082065 0.4476189
vt 0.6828017 0.4283599
vt 0.7279327 0.4288074
vt 0.6806161 0.3992528
vt 0.7332631 0.3977901
vt 0.7332631 0.3977901
vt 0.1079307 0.4346669
vt 0.1682793 0.478803
vt 0.1600039 0.4089021
vt 0.1255992 0.4779178
vt 0.2325276 0.4608497
vt 0.1600039 0.4089021
vt 0.2232213 0.5079964
vt 0.1682793 0.478803
vt 0.814876 0.1000898
vt 0.7703322 0.08408076
vt 0.7633189 0.1457745
vt 0.8127003 0.1508456
vt 0.8106835 0.2092003
vt 0.7606304 0.2095446
vt 0.7189643 0.2099804
vt 0.7167485 0.1409447
vt 0.8561509 0.1490616
vt 0.8541341 0.08279657
vt 0.6564056 0.2105422
vt 0.6527003 0.1309881
vt 0.8564143 0.2089124
vt 0.8292184 0.07383633
vt 0.8081945 0.0411998
vt 0.7563261 0.04204094
vt 0.7114472 0.05658251
vt 0.9179512 0.2085025
vt 0.9155177 0.1399152
vt 0.9090005 0.04428363
vt 0.9459579 0.09258145
vt 0.9511666 0.02308619
vt 0.9742248 0.07478017
vt 0.9872582 0.1062315
vt 0.9597483 0.1276541
vt 0.9410934 0.01174647
vt 0.9872435 0.1481068
vt 0.974055 0.1727566
vt 0.9490554 0.1343248
vt 0.9552073 0.1915016
vt 0.9730037 0.2083013
vt 0.955876 0.2083362
vt 0.6833381 0.05623412
vt 0.65156 0.05139941
vt 0.5604676 0.7657335
vt 0.5003554 0.7547692
vt 0.1682793 0.478803
vt 0.1079307 0.4346669
vt 0.1600039 0.4089021
vt 0.1255992 0.4779178
vt 0.1600039 0.4089021
vt 0.2232213 0.5079964
vt 0.1682793 0.478803
vt 0.2325276 0.4608497
vt 0.1915973 0.09951147
vt 0.223421 0.1288947
vt 0.2270657 0.0982292
vt 0.1916648 0.1291412
vt 0.1583699 0.09815481
vt 0.1597494 0.1297651
vt 0.1228083 0.09521642
vt 0.1228706 0.1296017
vt 0.09239995 0.1291542
vt 0.08890128 0.09725952
vt 0.06078374 0.1000148
vt 0.06824684 0.1302939
vt 0.01328838 0.1306942
vt 0.01219296 0.1038669
vt 0.1598352 0.06389159
vt 0.1253926 0.06310159
vt 0.156021 0.03296679
vt 0.1254996 0.03251839
vt 0.124741 0.007330164
vt 0.09275806 0.007302821
vt 0.08933365 0.03534287
vt 0.1570359 0.007508785
vt 0.05862308 0.007359207
vt 0.05712616 0.03837839
vt 0.01973844 0.008398116
vt 0.01194572 0.04105192
vt 0.1893352 0.008110821
vt 0.1893388 0.03541893
vt 0.2274195 0.03460428
vt 0.2262753 0.007606387
vt 0.226772 0.06524786
vt 0.1904367 0.06499407
vt 0.08923781 0.06560144
vt 0.05706298 0.0701966
vt 0.01246929 0.07189655
vt 0.04006428 0.2491349
vt 0.06682372 0.2377259
vt 0.03878931 0.2336161
vt 0.06137471 0.254548
vt 0.01318483 0.242948
vt 0.01475982 0.2560361
vt 0.09495194 0.2509213
vt 0.08344208 0.2698293
vt 0.1182209 0.2702311
vt 0.1051351 0.2859452
vt 0.1253052 0.2972907
vt 0.1364657 0.283865
vt 0.01317006 0.2201731
vt 0.03783062 0.2123817
vt 0.007965688 0.1952747
vt 0.02825893 0.1921873
vt 0.009925529 0.1672577
vt 0.01885948 0.1714108
vt 0.1281509 0.2121472
vt 0.1504702 0.2322044
vt 0.1632235 0.205384
vt 0.1425093 0.1870597
vt 0.1042754 0.1965182
vt 0.1209409 0.1706558
vt 0.1729086 0.1776507
vt 0.1594059 0.157157
vt 0.1403739 0.147426
vt 0.08925572 0.1898312
vt 0.115306 0.1677961
vt 0.1023285 0.1605001
vt 0.1252281 0.1394619
vt 0.1150629 0.1342466
vt 0.05983769 0.2133748
vt 0.03783062 0.2123817
vt 0.0668954 0.1898775
vt 0.05052086 0.1982639
vt 0.05052086 0.1982639
vt 0.02825893 0.1921873
vt 0.05052086 0.1982639
vt 0.04412561 0.1782711
vt 0.01885948 0.1714108
vt 0.02558864 0.1610969
vt 0.2761708 0.2196824
vt 0.2964086 0.1904701
vt 0.2653011 0.2082821
vt 0.3016301 0.2018333
vt 0.2823225 0.1744315
vt 0.3019356 0.1727889
vt 0.3080676 0.1518442
vt 0.2919767 0.1484818
vt 0.3092419 0.1286304
vt 0.2982704 0.1262008
vt 0.2375621 0.1668808
vt 0.2235203 0.1953584
vt 0.2012746 0.18488
vt 0.2076344 0.1590466
vt 0.2481747 0.1483094
vt 0.2111466 0.1372664
vt 0.1795384 0.1719743
vt 0.2331189 0.1328514
vt 0.2766868 0.1573465
vt 0.2655522 0.1460094
vt 0.2532158 0.1113047
vt 0.1769712 0.1507197
vt 0.1840806 0.1334007
vt 0.2823225 0.1744315
vt 0.2766868 0.1573465
vt 0.2532158 0.1113047
vt 0.2669143 0.1063165
vt 0.2559112 0.08307664
vt 0.2514727 0.08630513
vt 0.2439131 0.08386162
vt 0.2514727 0.08630513
vt 0.2532158 0.1113047
vt 0.2514727 0.08630513
vt 0.2375266 0.1097915
vt 0.2331189 0.1328514
vt 0.2481747 0.1483094
vt 0.02558864 0.1610969
vt 0.1915973 0.09951147
vt 0.223421 0.1288947
vt 0.1916648 0.1291412
vt 0.2270657 0.0982292
vt 0.1583699 0.09815481
vt 0.1597494 0.1297651
vt 0.1228083 0.09521642
vt 0.1228706 0.1296017
vt 0.09239995 0.1291542
vt 0.08890128 0.09725952
vt 0.06078374 0.1000148
vt 0.06824684 0.1302939
vt 0.01328838 0.1306942
vt 0.01219296 0.1038669
vt 0.1598352 0.06389159
vt 0.1253926 0.06310159
vt 0.156021 0.03296679
vt 0.1254996 0.03251839
vt 0.124741 0.007330164
vt 0.09275806 0.007302821
vt 0.08933365 0.03534287
vt 0.1570359 0.007508785
vt 0.05862308 0.007359207
vt 0.05712616 0.03837839
vt 0.01973844 0.008398116
vt 0.01194572 0.04105192
vt 0.1893352 0.008110821
vt 0.1893388 0.03541893
vt 0.2274195 0.03460428
vt 0.2262753 0.007606387
vt 0.226772 0.06524786
vt 0.1904367 0.06499407
vt 0.08923781 0.06560144
vt 0.05706298 0.0701966
vt 0.01246929 0.07189655
vt 0.04006428 0.2491349
vt 0.06682372 0.2377259
vt 0.06137471 0.254548
vt 0.03878931 0.2336161
vt 0.01318483 0.242948
vt 0.01475982 0.2560361
vt 0.09495194 0.2509213
vt 0.08344208 0.2698293
vt 0.1182209 0.2702311
vt 0.1051351 0.2859452
vt 0.1253052 0.2972907
vt 0.1364657 0.283865
vt 0.01317006 0.2201731
vt 0.03783062 0.2123817
vt 0.007965688 0.1952747
vt 0.02825893 0.1921873
vt 0.009925529 0.1672577
vt 0.01885948 0.1714108
vt 0.1281509 0.2121472
vt 0.1504702 0.2322044
vt 0.1632235 0.205384
vt 0.1425093 0.1870597
vt 0.1042754 0.1965182
vt 0.1209409 0.1706558
vt 0.1729086 0.1776507
vt 0.1594059 0.157157
vt 0.1403739 0.147426
vt 0.08925572 0.1898312
vt 0.115306 0.1677961
vt 0.1023285 0.1605001
vt 0.1252281 0.1394619
vt 0.1150629 0.1342466
vt 0.05983769 0.2133748
vt 0.03783062 0.2123817
vt 0.0668954 0.1898775
vt 0.05052086 0.1982639
vt 0.05052086 0.1982639
vt 0.02825893 0.1921873
vt 0.05052086 0.1982639
vt 0.04412561 0.1782711
vt 0.01885948 0.1714108
vt 0.02558864 0.1610969
vt 0.2761708 0.2196824
vt 0.2964086 0.1904701
vt 0.3016301 0.2018333
vt 0.2653011 0.2082821
vt 0.2823225 0.1744315
vt 0.3019356 0.1727889
vt 0.3080676 0.1518442
vt 0.2919767 0.1484818
vt 0.3092419 0.1286304
vt 0.2982704 0.1262008
vt 0.2375621 0.1668808
vt 0.2235203 0.1953584
vt 0.2012746 0.18488
vt 0.2076344 0.1590466
vt 0.2481747 0.1483094
vt 0.2111466 0.1372664
vt 0.1795384 0.1719743
vt 0.2331189 0.1328514
vt 0.2766868 0.1573465
vt 0.2655522 0.1460094
vt 0.2532158 0.1113047
vt 0.1769712 0.1507197
vt 0.1840806 0.1334007
vt 0.2823225 0.1744315
vt 0.2766868 0.1573465
vt 0.2532158 0.1113047
vt 0.2669143 0.1063165
vt 0.2559112 0.08307664
vt 0.2514727 0.08630513
vt 0.2439131 0.08386162
vt 0.2514727 0.08630513
vt 0.2532158 0.1113047
vt 0.2375266 0.1097915
vt 0.2514727 0.08630513
vt 0.2331189 0.1328514
vt 0.2481747 0.1483094
vt 0.02558864 0.1610969
vt 0.2325276 0.4608497
vt 0.2278744 0.484423
vt 0.2232213 0.5079964
vt 0.2232213 0.5079964
vt 0.2278744 0.484423
vt 0.2325276 0.4608497
vn 0.05301921 0.9366091 -0.3463413
vn 0.3884229 0.1270578 -0.9126795
vn -0.4638131 0.4556125 -0.7597991
vn -0.2918009 0.9402475 -0.175462
vn -0.5407126 0.7106508 0.450117
vn -0.7397391 0.04406388 -0.6714495
vn 0.8767991 -0.0142096 -0.4806469
vn -0.6069055 0.7406078 0.288385
vn -0.9026884 -0.004672695 0.4302694
vn -0.937446 0.0128267 0.3478945
vn -0.737371 -0.6327305 0.236508
vn -0.5735293 -0.6276523 0.5264187
vn -0.9083483 0.008774469 0.4181225
vn -0.5525274 0.7940793 0.2532815
vn -0.6622227 -0.7172966 0.2166719
vn 0.4595275 0.8589674 -0.2258533
vn -0.4343001 -0.8635219 -0.2563458
vn -0.4999134 -0.8461668 0.1846304
vn -0.8060654 -0.5597253 -0.1922655
vn -0.7647165 -0.2152613 -0.6073478
vn 0.1726148 -0.9314108 -0.3204341
vn 0.572742 -0.3327526 -0.7491611
vn -0.45817 0.7324618 0.5035674
vn -0.7873472 -0.008583 0.6164501
vn -0.5577043 -0.7134619 0.424191
vn 0.03852989 0.9701138 0.239572
vn 0.6851484 0.7250136 -0.07019337
vn 0.9466189 -0.1344683 -0.2929693
vn 0.4720692 -0.8734902 -0.1190187
vn 0.8767991 -0.0142096 -0.4806469
vn 0.9466189 -0.1344683 -0.2929693
vn 0.3884229 0.1270578 -0.9126795
vn -0.7397391 0.04406388 -0.6714495
vn -0.5073568 -0.7923636 0.3387465
vn 0.2994531 -0.9475866 -0.1113889
vn -0.773254 0.03271166 0.633252
vn -0.4314502 0.7585666 0.4882903
vn 0.6269553 0.7751586 -0.07782104
vn 0.9388189 -0.1094844 -0.3265457
vn 0.9388189 -0.1094844 -0.3265457
vn -0.6381943 -0.7100532 0.2975443
vn 0.3204345 -0.9203311 -0.2243041
vn -0.4726466 -0.7386295 0.4806575
vn 0.4371641 -0.8985724 0.03814695
vn 0.8609548 -0.04620432 -0.5065787
vn 0.8221233 -0.1314253 -0.5539318
vn -0.824408 0.1087257 0.5554549
vn -0.913129 0.06293496 0.4027837
vn -0.5737126 0.816892 0.05950743
vn -0.5679896 0.7991527 0.1968319
vn -0.5825009 0.8045151 0.1159661
vn 0.2387765 0.8753866 -0.4203382
vn 0.3315041 0.8291416 -0.4501436
vn 0.8609548 -0.04620432 -0.5065787
vn 0.8221233 -0.1314253 -0.5539318
vn 0.4186214 0.8553609 -0.3051455
vn -0.1827397 0.9787446 -0.0930866
vn 0.6269553 0.7751586 -0.07782104
vn -0.1689785 0.9816389 -0.08849435
vn 0.2795928 0.5687215 0.7735527
vn 0.3579194 -0.7804034 0.512703
vn 0.5466542 -0.7616633 0.3479055
vn 0.5893008 -0.807797 0.0137335
vn 0.1790587 -0.9754529 0.1281784
vn 0.8060654 -0.5597253 -0.1922655
vn 0.8813516 -0.4501645 -0.143427
vn 0.4673061 -0.87453 -0.1297013
vn 0.4526043 -0.8903315 0.04959002
vn 0.8718619 -0.4829002 0.08163573
vn 0.4209427 -0.8986278 0.1235935
vn 0.9787408 0.204413 0.01678604
vn 0.9882687 -0.02240105 -0.1510729
vn 0.1341807 -0.8068964 0.575251
vn 0.00250509 -0.9828064 0.1846219
vn 0.00191382 -0.9939446 -0.1098661
vn 0.0002015162 -0.9943603 0.1060549
vn 0.001001213 -0.9994612 0.03280674
vn 0.4999134 -0.8461668 0.1846304
vn 0.7647165 -0.2152613 -0.6073478
vn 0.7397391 0.04406388 -0.6714495
vn 0.9484671 0.2340533 0.2136101
vn 0.8520798 -0.488892 0.1869349
vn 0.9477491 0.215766 0.2349823
vn 0.006710336 -0.8242931 0.5661234
vn 0.2660235 -0.7398258 0.6179719
vn 0 -0.8851043 0.4653926
vn 0.1645281 -0.5919913 0.788972
vn 0.216071 -0.4984704 0.8395479
vn 0.1820342 -0.6070589 0.7735264
vn 0.2130995 -0.3322883 0.9187889
vn 0.3124996 -0.2786837 0.9081185
vn 0.3320548 -0.6385642 0.6942444
vn 0.5735293 -0.6276523 0.5264187
vn 0.7490063 -0.0496858 0.6606972
vn 0.937446 0.0128267 0.3478945
vn 0.3214618 -0.1963211 0.9263478
vn -0.2660235 -0.7398258 0.6179719
vn -0.1341807 -0.8068964 0.575251
vn -0.1790587 -0.9754529 0.1281784
vn -0.3579194 -0.7804034 0.512703
vn -0.5893008 -0.807797 0.0137335
vn -0.5466542 -0.7616633 0.3479055
vn -0.8060654 -0.5597253 -0.1922655
vn -0.8813516 -0.4501645 -0.143427
vn -0.4673061 -0.87453 -0.1297013
vn -0.4526043 -0.8903315 0.04959002
vn -0.8718619 -0.4829002 0.08163573
vn -0.4209427 -0.8986278 0.1235935
vn -0.9787408 0.204413 0.01678604
vn -0.9882687 -0.02240105 -0.1510729
vn -0.4999134 -0.8461668 0.1846304
vn -0.3320548 -0.6385642 0.6942444
vn -0.5735293 -0.6276523 0.5264187
vn -0.3124996 -0.2786837 0.9081185
vn -0.1820342 -0.6070589 0.7735264
vn -0.2130995 -0.3322883 0.9187889
vn -0.7490063 -0.0496858 0.6606972
vn -0.937446 0.0128267 0.3478945
vn -0.9484671 0.2340533 0.2136101
vn -0.8520798 -0.488892 0.1869349
vn -0.9477491 0.215766 0.2349823
vn -0.216071 -0.4984704 0.8395478
vn -0.1645281 -0.5919913 0.788972
vn -0.3214618 -0.1963211 0.9263478
vn 0.4596927 0.733601 -0.5005119
vn 0.2645415 0.9011959 -0.3433127
vn 0.8063015 0.453318 -0.3799745
vn 0.1379821 0.8978851 -0.4180468
vn 0 0.9172701 -0.3982657
vn 0.004331817 0.945696 -0.3250234
vn 0.01527903 0.9981109 0.059509
vn 0.4728531 0.8804721 0.03433383
vn 0.1173866 0.9917305 -0.05187513
vn 0.2918009 0.9402475 -0.175462
vn 0.0205472 0.9715973 0.2357468
vn 0.5680978 0.7727541 0.2830476
vn 0 0.9996227 -0.02746531
vn 0.4638131 0.4556125 -0.7597991
vn 0.7397391 0.04406388 -0.6714495
vn 0.9882687 -0.02240105 -0.1510729
vn 0.9787408 0.204413 0.01678604
vn 0.0003148072 0.937523 0.3479231
vn 0.151364 0.9026523 0.4028744
vn 0.5407126 0.7106508 0.450117
vn 0.3423355 0.3875352 0.855934
vn 0.7490063 -0.0496858 0.6606972
vn 0.3124996 -0.2786837 0.9081185
vn 0.2130995 -0.3322883 0.9187889
vn 0.23336 0.1918928 0.9532681
vn 0.937446 0.0128267 0.3478945
vn 0.3214618 -0.1963211 0.9263478
vn 0.347816 0.4356165 0.8302181
vn 0.1993319 0.6315675 0.7492592
vn 0.08110962 0.7195439 0.689694
vn -0.001805291 0.7212184 0.6927054
vn -0.0006173634 0.7425063 0.6698388
vn 0.9484671 0.2340533 0.2136101
vn 0.9477491 0.215766 0.2349823
vn -0.05301921 0.9366091 -0.3463413
vn 0.4638131 0.4556125 -0.7597991
vn -0.3884229 0.1270578 -0.9126795
vn 0.2918009 0.9402475 -0.175462
vn 0.5407126 0.7106508 0.450117
vn 0.7397391 0.04406388 -0.6714495
vn -0.8767991 -0.0142096 -0.4806469
vn 0.6069055 0.7406078 0.288385
vn 0.9026884 -0.004672695 0.4302694
vn 0.937446 0.0128267 0.3478945
vn 0.737371 -0.6327305 0.236508
vn 0.5735293 -0.6276523 0.5264187
vn 0.9083483 0.008774469 0.4181225
vn 0.5525274 0.7940793 0.2532815
vn 0.6622227 -0.7172966 0.2166719
vn -0.4595275 0.8589674 -0.2258533
vn 0.4343001 -0.8635219 -0.2563458
vn 0.4999134 -0.8461668 0.1846304
vn 0.8060654 -0.5597253 -0.1922655
vn 0.7647165 -0.2152613 -0.6073478
vn -0.1726148 -0.9314108 -0.3204341
vn -0.572742 -0.3327526 -0.7491611
vn 0.45817 0.7324618 0.5035674
vn 0.7873472 -0.008583 0.6164501
vn 0.5577043 -0.7134619 0.424191
vn -0.03852989 0.9701138 0.239572
vn -0.6851484 0.7250136 -0.07019337
vn -0.9466189 -0.1344683 -0.2929693
vn -0.4720692 -0.8734902 -0.1190187
vn -0.8767991 -0.0142096 -0.4806469
vn -0.9466189 -0.1344683 -0.2929693
vn -0.3884229 0.1270578 -0.9126795
vn 0.7397391 0.04406388 -0.6714495
vn 0.5073568 -0.7923636 0.3387465
vn -0.2994531 -0.9475866 -0.1113889
vn 0.773254 0.03271166 0.633252
vn 0.4314502 0.7585666 0.4882903
vn -0.6269553 0.7751586 -0.07782104
vn -0.9388189 -0.1094844 -0.3265457
vn -0.9388189 -0.1094844 -0.3265457
vn 0.6381943 -0.7100532 0.2975443
vn -0.3204345 -0.9203311 -0.2243041
vn 0.4726466 -0.7386295 0.4806575
vn -0.4371641 -0.8985724 0.03814695
vn -0.8609548 -0.04620432 -0.5065787
vn -0.8221233 -0.1314253 -0.5539318
vn 0.824408 0.1087257 0.5554549
vn 0.913129 0.06293496 0.4027837
vn 0.5737126 0.816892 0.05950743
vn 0.5679896 0.7991527 0.1968319
vn 0.5825009 0.8045151 0.1159661
vn -0.2387765 0.8753866 -0.4203382
vn -0.3315041 0.8291416 -0.4501436
vn -0.8609548 -0.04620432 -0.5065787
vn -0.8221233 -0.1314253 -0.5539318
vn -0.4186214 0.8553609 -0.3051455
vn 0.1827397 0.9787446 -0.0930866
vn -0.6269553 0.7751586 -0.07782104
vn 0.1689785 0.9816389 -0.08849435
vn -0.2795928 0.5687215 0.7735527
vn 0 -0.8851043 0.4653926
vn 0.3841868 -0.8277517 0.4089347
vn 0.2660235 -0.7398258 0.6179719
vn 1.222049E-07 -0.9026895 0.4302926
vn 0.216071 -0.4984704 0.8395479
vn 0.3365532 -0.718621 0.6085359
vn 0.3079462 -0.6611276 0.6841633
vn 0.3268104 -0.7203871 0.6117495
vn -0.4596927 0.733601 -0.5005119
vn -0.8063015 0.453318 -0.3799745
vn -0.2645415 0.9011959 -0.3433127
vn -0.1379821 0.8978851 -0.4180468
vn 0 0.9172701 -0.3982657
vn -0.004331817 0.945696 -0.3250234
vn -0.01527903 0.9981109 0.059509
vn -0.4728531 0.8804721 0.03433383
vn -0.1173866 0.9917305 -0.05187513
vn -0.2918009 0.9402475 -0.175462
vn -0.0205472 0.9715973 0.2357468
vn -0.5680978 0.7727541 0.2830476
vn 0 0.9996227 -0.02746531
vn -0.4638131 0.4556125 -0.7597991
vn -0.7397391 0.04406388 -0.6714495
vn -0.9882687 -0.02240105 -0.1510729
vn -0.9787408 0.204413 0.01678604
vn -0.0003148072 0.937523 0.3479231
vn -0.151364 0.9026523 0.4028744
vn -0.5407126 0.7106508 0.450117
vn -0.3423355 0.3875352 0.855934
vn -0.7490063 -0.0496858 0.6606972
vn -0.3124996 -0.2786837 0.9081185
vn -0.2130995 -0.3322883 0.9187889
vn -0.23336 0.1918928 0.9532681
vn -0.937446 0.0128267 0.3478945
vn -0.3214618 -0.1963211 0.9263478
vn -0.347816 0.4356165 0.8302181
vn -0.1993319 0.6315675 0.7492592
vn -0.08110962 0.7195439 0.689694
vn 0.001805291 0.7212184 0.6927054
vn 0.0006173634 0.7425063 0.6698388
vn -0.9484671 0.2340533 0.2136101
vn -0.9477491 0.215766 0.2349823
vn -0.7647165 -0.2152613 -0.6073478
vn -0.7397391 0.04406388 -0.6714495
vn -0.3841868 -0.8277517 0.4089347
vn 0 -0.8851043 0.4653926
vn -0.2660235 -0.7398258 0.6179719
vn -1.222049E-07 -0.9026895 0.4302926
vn -0.3365532 -0.718621 0.6085359
vn -0.3079462 -0.6611276 0.6841633
vn -0.3268104 -0.7203871 0.6117495
vn -0.216071 -0.4984704 0.8395478
vn -0.2220152 -0.9737023 -0.05111691
vn -0.5643031 -0.3656142 -0.7401947
vn -0.8181194 -0.2433858 -0.5210028
vn -0.008010861 -0.9319898 -0.3623961
vn 0.6473527 -0.690852 0.3219597
vn 0.7282183 -0.6383249 0.2494787
vn 0.9422083 0.1692256 0.2891473
vn 0.9814202 0.1905006 0.02288582
vn 0.2632113 0.9416481 -0.2098061
vn 0.4581429 0.8826212 -0.1052851
vn -0.444801 0.7161257 -0.5378811
vn -0.5153502 0.6513401 -0.5569292
vn -0.5643031 -0.3656142 -0.7401947
vn -0.8181194 -0.2433858 -0.5210028
vn 0.6538438 -0.6650257 0.3608729
vn 0.9288488 0.1550624 0.3364455
vn 0.2273822 -0.521267 0.8225437
vn 0.4875697 0.2404466 0.8393219
vn 0.824408 0.1087257 0.5554549
vn 0.5825009 0.8045151 0.1159661
vn -0.08086798 0.713698 0.6957698
vn 0.4726466 -0.7386295 0.4806575
vn -0.2387932 0.8757339 -0.4196046
vn -0.6248801 0.616392 0.479151
vn -0.8609548 -0.04620432 -0.5065787
vn -0.8557212 0.04115511 0.515798
vn -0.4371629 -0.8985729 0.03814685
vn -0.5779226 -0.3568386 0.7339426
vn -0.8557212 0.04115511 0.515798
vn -0.8609548 -0.04620432 -0.5065787
vn -0.8056645 -0.1668454 -0.5683902
vn -0.249863 -0.9627058 -0.1037599
vn 0.5249023 0.8495331 -0.05264282
vn -0.4756654 0.6739228 -0.5653056
vn -0.8056645 -0.1668454 -0.5683902
vn -0.008010861 -0.9319898 -0.3623961
vn 0.6626278 -0.4683718 0.5844246
vn -0.2357486 -0.707675 0.666047
vn 0.7282183 -0.6383249 0.2494787
vn -0.9911771 -0.1138257 -0.06790975
vn -0.5643031 -0.3656142 -0.7401947
vn 0.9074776 0.2442732 0.3417822
vn 0.9814202 0.1905006 0.02288582
vn 0.3219635 0.9467213 0.007629465
vn 0.2632113 0.9416481 -0.2098061
vn -0.5153502 0.6513401 -0.5569292
vn -0.6942635 0.5825424 -0.4226615
vn -0.9922699 -0.1216732 0.02441571
vn 0.0381475 -0.8558869 0.5157542
vn -0.9711649 -0.1898654 -0.1441871
vn 0.4177096 -0.8504873 0.3196718
vn -0.7510973 -0.323956 -0.5752437
vn 0.5039159 -0.833502 -0.2265905
vn 0.9311219 0.3272611 0.1609723
vn 0.0328068 0.8476837 -0.5294864
vn -0.03890903 0.7900058 -0.6118635
vn 0.9674615 0.241952 0.07400928
vn 0.9651568 -0.06563925 0.253306
vn 0.4028292 -0.9122784 -0.07400461
vn 0.03051704 0.5058079 -0.8621062
vn 0.2189732 -0.1712636 -0.9605829
vn 0.2128611 -0.8528273 -0.4768394
vn 0.6046192 -0.6844404 0.4074027
vn 0.6812873 0.6982623 -0.2197209
vn 0.4104672 -0.8816845 0.2326999
vn 0.6260113 0.5256339 -0.5760372
vn 0.4009371 -0.8994381 -0.1739556
vn 0.2357428 -0.9011061 0.3639137
vn 0.0381475 -0.8558869 0.5157542
vn -0.5775356 -0.7719865 -0.2654985
vn 0.2685728 -0.5382425 -0.7988515
vn 0.2685728 -0.5382425 -0.7988515
vn 0.4177096 -0.8504873 0.3196718
vn 0.2685728 -0.5382425 -0.7988515
vn 0.3711837 0.6148565 -0.6958263
vn 0.5039159 -0.833502 -0.2265905
vn 0.3899213 0.3684127 -0.8439393
vn -0.5153502 0.6513401 -0.5569292
vn -0.9911771 -0.1138257 -0.06790975
vn -0.6942635 0.5825424 -0.4226615
vn -0.5643031 -0.3656142 -0.7401947
vn -0.6099004 0.2252202 -0.7598009
vn -0.9922699 -0.1216732 0.02441571
vn -0.9711649 -0.1898654 -0.1441871
vn 0.3711837 0.6148565 -0.6958263
vn -0.7510973 -0.323956 -0.5752437
vn 0.3899213 0.3684127 -0.8439393
vn -0.7962313 -0.1532874 -0.5852509
vn 0.0328068 0.8476837 -0.5294864
vn -0.03890903 0.7900058 -0.6118635
vn -0.9099532 -0.2325436 -0.3433785
vn -0.7690701 -0.1446537 -0.6225805
vn 0.4028292 -0.9122784 -0.07400461
vn 0.03051704 0.5058079 -0.8621062
vn 0.9651568 -0.06563925 0.253306
vn 0.2685728 -0.5382425 -0.7988515
vn -0.5775356 -0.7719865 -0.2654985
vn -0.8831593 0.04458715 -0.466949
vn 0.2189732 -0.1712636 -0.9605829
vn 0.2128611 -0.8528273 -0.4768394
vn -0.6099004 0.2252202 -0.7598009
vn 0.2685728 -0.5382425 -0.7988515
vn -0.8831593 0.04458715 -0.466949
vn 0.4104672 -0.8816845 0.2326999
vn 0.4009371 -0.8994381 -0.1739556
vn -0.4672344 -0.2785289 -0.8391148
vn 0.6260113 0.5256339 -0.5760372
vn -0.4672344 -0.2785289 -0.8391148
vn -0.8831593 0.04458715 -0.466949
vn -0.4672344 -0.2785289 -0.8391148
vn 0.6812873 0.6982623 -0.2197209
vn 0.9651568 -0.06563925 0.253306
vn -0.7690701 -0.1446537 -0.6225805
vn 0.3899213 0.3684127 -0.8439393
vn 0.2220152 -0.9737023 -0.05111691
vn 0.5643031 -0.3656142 -0.7401947
vn 0.008010861 -0.9319898 -0.3623961
vn 0.8181194 -0.2433858 -0.5210028
vn -0.6473527 -0.690852 0.3219597
vn -0.7282183 -0.6383249 0.2494787
vn -0.9422083 0.1692256 0.2891473
vn -0.9814202 0.1905006 0.02288582
vn -0.2632113 0.9416481 -0.2098061
vn -0.4581429 0.8826212 -0.1052851
vn 0.444801 0.7161257 -0.5378811
vn 0.5153502 0.6513401 -0.5569292
vn 0.5643031 -0.3656142 -0.7401947
vn 0.8181194 -0.2433858 -0.5210028
vn -0.6538438 -0.6650257 0.3608729
vn -0.9288488 0.1550624 0.3364455
vn -0.2273822 -0.521267 0.8225437
vn -0.4875697 0.2404466 0.8393219
vn -0.824408 0.1087257 0.5554549
vn -0.5825009 0.8045151 0.1159661
vn 0.08086798 0.713698 0.6957698
vn -0.4726466 -0.7386295 0.4806575
vn 0.2387932 0.8757339 -0.4196046
vn 0.6248801 0.616392 0.479151
vn 0.8609548 -0.04620432 -0.5065787
vn 0.8557212 0.04115511 0.515798
vn 0.4371629 -0.8985729 0.03814685
vn 0.5779226 -0.3568386 0.7339426
vn 0.8557212 0.04115511 0.515798
vn 0.8609548 -0.04620432 -0.5065787
vn 0.8056645 -0.1668454 -0.5683902
vn 0.249863 -0.9627058 -0.1037599
vn -0.5249023 0.8495331 -0.05264282
vn 0.4756654 0.6739228 -0.5653056
vn 0.8056645 -0.1668454 -0.5683902
vn 0.008010861 -0.9319898 -0.3623961
vn -0.6626278 -0.4683718 0.5844246
vn -0.7282183 -0.6383249 0.2494787
vn 0.2357486 -0.707675 0.666047
vn 0.9911771 -0.1138257 -0.06790975
vn 0.5643031 -0.3656142 -0.7401947
vn -0.9074776 0.2442732 0.3417822
vn -0.9814202 0.1905006 0.02288582
vn -0.3219635 0.9467213 0.007629465
vn -0.2632113 0.9416481 -0.2098061
vn 0.5153502 0.6513401 -0.5569292
vn 0.6942635 0.5825424 -0.4226615
vn 0.9922699 -0.1216732 0.02441571
vn -0.0381475 -0.8558869 0.5157542
vn 0.9711649 -0.1898654 -0.1441871
vn -0.4177096 -0.8504873 0.3196718
vn 0.7510973 -0.323956 -0.5752437
vn -0.5039159 -0.833502 -0.2265905
vn -0.9311219 0.3272611 0.1609723
vn -0.0328068 0.8476837 -0.5294864
vn 0.03890903 0.7900058 -0.6118635
vn -0.9674615 0.241952 0.07400928
vn -0.9651568 -0.06563925 0.253306
vn -0.4028292 -0.9122784 -0.07400461
vn -0.03051704 0.5058079 -0.8621062
vn -0.2189732 -0.1712636 -0.9605829
vn -0.2128611 -0.8528273 -0.4768394
vn -0.6046192 -0.6844404 0.4074027
vn -0.6812873 0.6982623 -0.2197209
vn -0.4104672 -0.8816845 0.2326999
vn -0.6260113 0.5256339 -0.5760372
vn -0.4009371 -0.8994381 -0.1739556
vn -0.2357428 -0.9011061 0.3639137
vn -0.0381475 -0.8558869 0.5157542
vn 0.5775356 -0.7719865 -0.2654985
vn -0.2685728 -0.5382425 -0.7988515
vn -0.2685728 -0.5382425 -0.7988515
vn -0.4177096 -0.8504873 0.3196718
vn -0.2685728 -0.5382425 -0.7988515
vn -0.3711837 0.6148565 -0.6958263
vn -0.5039159 -0.833502 -0.2265905
vn -0.3899213 0.3684127 -0.8439393
vn 0.5153502 0.6513401 -0.5569292
vn 0.9911771 -0.1138257 -0.06790975
vn 0.5643031 -0.3656142 -0.7401947
vn 0.6942635 0.5825424 -0.4226615
vn 0.6099004 0.2252202 -0.7598009
vn 0.9922699 -0.1216732 0.02441571
vn 0.9711649 -0.1898654 -0.1441871
vn -0.3711837 0.6148565 -0.6958263
vn 0.7510973 -0.323956 -0.5752437
vn -0.3899213 0.3684127 -0.8439393
vn 0.7962313 -0.1532874 -0.5852509
vn -0.0328068 0.8476837 -0.5294864
vn 0.03890903 0.7900058 -0.6118635
vn 0.9099532 -0.2325436 -0.3433785
vn 0.7690701 -0.1446537 -0.6225805
vn -0.4028292 -0.9122784 -0.07400461
vn -0.03051704 0.5058079 -0.8621062
vn -0.9651568 -0.06563925 0.253306
vn -0.2685728 -0.5382425 -0.7988515
vn 0.5775356 -0.7719865 -0.2654985
vn 0.8831593 0.04458715 -0.466949
vn -0.2189732 -0.1712636 -0.9605829
vn -0.2128611 -0.8528273 -0.4768394
vn 0.6099004 0.2252202 -0.7598009
vn -0.2685728 -0.5382425 -0.7988515
vn 0.8831593 0.04458715 -0.466949
vn -0.4104672 -0.8816845 0.2326999
vn -0.4009371 -0.8994381 -0.1739556
vn 0.4672344 -0.2785289 -0.8391148
vn -0.6260113 0.5256339 -0.5760372
vn 0.4672344 -0.2785289 -0.8391148
vn 0.8831593 0.04458715 -0.466949
vn -0.6812873 0.6982623 -0.2197209
vn 0.4672344 -0.2785289 -0.8391148
vn -0.9651568 -0.06563925 0.253306
vn 0.7690701 -0.1446537 -0.6225805
vn -0.3899213 0.3684127 -0.8439393
vn -0.216071 -0.4984704 0.8395478
vn -0.3214618 -0.1963211 0.9263478
vn -0.3079462 -0.6611276 0.6841633
vn 0.3079462 -0.6611276 0.6841633
vn 0.3214618 -0.1963211 0.9263478
vn 0.216071 -0.4984704 0.8395479
g XD_A_S_0
f 3/3/3 2/2/2 1/1/1
f 3/3/3 1/1/1 4/4/4
f 1/1/1 5/5/5 4/4/4
f 6/6/6 2/2/2 3/3/3
f 2/2/2 7/7/7 1/1/1
f 1/1/1 8/8/8 5/5/5
f 8/8/8 9/9/9 5/5/5
f 10/10/10 5/5/5 9/9/9
f 9/9/9 11/11/11 10/10/10
f 12/12/12 10/10/10 11/11/11
f 9/9/9 8/8/8 13/13/13
f 9/9/9 13/13/13 11/11/11
f 14/14/14 13/13/13 8/8/8
f 8/8/8 1/1/1 14/14/14
f 15/15/15 11/11/11 13/13/13
f 16/16/16 14/14/14 1/1/1
f 7/7/7 16/16/16 1/1/1
f 11/11/11 15/15/15 17/17/17
f 18/18/18 11/11/11 17/17/17
f 18/18/18 12/12/12 11/11/11
f 19/19/19 18/18/18 17/17/17
f 19/19/19 17/17/17 20/20/20
f 21/21/21 17/17/17 15/15/15
f 17/17/17 22/22/22 20/20/20
f 17/17/17 21/21/21 22/22/22
f 14/14/14 23/23/23 13/13/13
f 24/24/24 13/13/13 23/23/23
f 24/24/24 25/25/25 13/13/13
f 15/15/15 13/13/13 25/25/25
f 15/15/15 25/25/25 21/21/21
f 14/14/14 16/16/16 26/26/26
f 27/27/27 26/26/26 16/16/16
f 16/16/16 7/7/7 27/27/27
f 28/28/28 27/27/27 7/7/7
f 29/29/29 21/21/21 25/25/25
f 21/21/21 29/29/29 30/30/30
f 21/21/21 30/30/30 22/22/22
f 31/31/31 30/30/30 29/29/29
f 22/22/22 30/30/30 32/32/32
f 20/20/20 22/22/22 32/32/32
f 33/33/33 20/20/20 32/32/32
f 25/25/25 34/34/34 29/29/29
f 25/25/25 24/24/24 34/34/34
f 35/35/35 29/29/29 34/34/34
f 36/36/36 34/34/34 24/24/24
f 24/24/24 23/23/23 36/36/36
f 37/37/37 36/36/36 23/23/23
f 27/27/27 28/28/28 38/38/38
f 39/39/39 38/38/38 28/28/28
f 35/35/35 40/40/40 29/29/29
f 31/31/31 29/29/29 40/40/40
f 34/34/34 41/41/41 35/35/35
f 34/34/34 36/36/36 41/41/41
f 42/42/42 35/35/35 41/41/41
f 41/41/41 43/43/43 42/42/42
f 44/44/44 42/42/42 43/43/43
f 44/44/44 45/45/45 42/42/42
f 46/46/46 42/42/42 45/45/45
f 42/42/42 46/46/46 35/35/35
f 40/40/40 35/35/35 46/46/46
f 43/43/43 41/41/41 47/47/47
f 48/48/48 47/47/47 41/41/41
f 48/48/48 41/41/41 36/36/36
f 36/36/36 37/37/37 48/48/48
f 48/48/48 49/49/49 47/47/47
f 49/49/49 48/48/48 50/50/50
f 50/50/50 48/48/48 37/37/37
f 51/51/51 47/47/47 49/49/49
f 51/51/51 49/49/49 52/52/52
f 53/53/53 52/52/52 49/49/49
f 52/52/52 53/53/53 54/54/54
f 55/55/55 54/54/54 53/53/53
f 53/53/53 56/56/56 55/55/55
f 53/53/53 49/49/49 56/56/56
f 55/55/55 56/56/56 39/39/39
f 38/38/38 39/39/39 56/56/56
f 57/57/57 56/56/56 49/49/49
f 56/56/56 57/57/57 38/38/38
f 59/59/59 58/58/58 57/57/57
f 58/58/58 60/60/60 27/27/27
f 26/26/26 27/27/27 60/60/60
f 63/63/63 62/62/62 61/61/61
f 64/64/64 63/63/63 61/61/61
f 65/65/65 62/62/62 63/63/63
f 65/65/65 63/63/63 66/66/66
f 67/67/67 66/66/66 63/63/63
f 64/64/64 67/67/67 63/63/63
f 67/67/67 68/68/68 66/66/66
f 69/69/69 66/66/66 68/68/68
f 70/70/70 69/69/69 68/68/68
f 69/69/69 71/71/71 66/66/66
f 72/72/72 66/66/66 71/71/71
f 73/73/73 64/64/64 61/61/61
f 73/73/73 74/74/74 64/64/64
f 64/64/64 75/75/75 67/67/67
f 74/74/74 75/75/75 64/64/64
f 68/68/68 76/76/76 70/70/70
f 75/75/75 77/77/77 67/67/67
f 68/68/68 67/67/67 77/77/77
f 77/77/77 76/76/76 68/68/68
f 78/78/78 62/62/62 65/65/65
f 66/66/66 79/79/79 65/65/65
f 80/80/80 79/79/79 66/66/66
f 72/72/72 80/80/80 66/66/66
f 71/71/71 69/69/69 81/81/81
f 82/82/82 81/81/81 69/69/69
f 82/82/82 69/69/69 70/70/70
f 83/83/83 81/81/81 82/82/82
f 84/84/84 74/74/74 73/73/73
f 73/73/73 85/85/85 84/84/84
f 84/84/84 85/85/85 86/86/86
f 73/73/73 87/87/87 85/85/85
f 88/88/88 85/85/85 87/87/87
f 88/88/88 87/87/87 89/89/89
f 88/88/88 89/89/89 90/90/90
f 90/90/90 89/89/89 91/91/91
f 92/92/92 91/91/91 89/89/89
f 92/92/92 93/93/93 91/91/91
f 78/78/78 93/93/93 92/92/92
f 91/91/91 93/93/93 94/94/94
f 94/94/94 93/93/93 95/95/95
f 92/92/92 89/89/89 61/61/61
f 61/61/61 89/89/89 87/87/87
f 61/61/61 62/62/62 92/92/92
f 92/92/92 62/62/62 78/78/78
f 96/96/96 88/88/88 90/90/90
f 73/73/73 61/61/61 87/87/87
f 97/97/97 84/84/84 86/86/86
f 97/97/97 98/98/98 84/84/84
f 74/74/74 84/84/84 98/98/98
f 74/74/74 98/98/98 99/99/99
f 99/99/99 98/98/98 100/100/100
f 101/101/101 99/99/99 100/100/100
f 102/102/102 101/101/101 100/100/100
f 102/102/102 103/103/103 101/101/101
f 103/103/103 104/104/104 101/101/101
f 105/105/105 101/101/101 104/104/104
f 105/105/105 99/99/99 101/101/101
f 105/105/105 104/104/104 106/106/106
f 107/107/107 106/106/106 104/104/104
f 107/107/107 108/108/108 106/106/106
f 107/107/107 104/104/104 109/109/109
f 110/110/110 109/109/109 104/104/104
f 75/75/75 99/99/99 105/105/105
f 75/75/75 74/74/74 99/99/99
f 76/76/76 106/106/106 108/108/108
f 106/106/106 77/77/77 105/105/105
f 75/75/75 105/105/105 77/77/77
f 76/76/76 77/77/77 106/106/106
f 102/102/102 111/111/111 103/103/103
f 102/102/102 100/100/100 112/112/112
f 102/102/102 112/112/112 111/111/111
f 113/113/113 111/111/111 112/112/112
f 113/113/113 112/112/112 114/114/114
f 112/112/112 115/115/115 114/114/114
f 116/116/116 114/114/114 115/115/115
f 113/113/113 114/114/114 117/117/117
f 113/113/113 117/117/117 118/118/118
f 109/109/109 119/119/119 107/107/107
f 120/120/120 107/107/107 119/119/119
f 119/119/119 121/121/121 120/120/120
f 115/115/115 122/122/122 116/116/116
f 123/123/123 122/122/122 115/115/115
f 115/115/115 112/112/112 100/100/100
f 115/115/115 100/100/100 123/123/123
f 122/122/122 124/124/124 116/116/116
f 97/97/97 122/122/122 123/123/123
f 123/123/123 98/98/98 97/97/97
f 100/100/100 98/98/98 123/123/123
f 107/107/107 120/120/120 108/108/108
f 127/127/127 126/126/126 125/125/125
f 126/126/126 128/128/128 125/125/125
f 128/128/128 126/126/126 129/129/129
f 130/130/130 129/129/129 126/126/126
f 130/130/130 126/126/126 131/131/131
f 132/132/132 131/131/131 126/126/126
f 126/126/126 127/127/127 132/132/132
f 128/128/128 133/133/133 125/125/125
f 134/134/134 125/125/125 133/133/133
f 131/131/131 132/132/132 135/135/135
f 136/136/136 135/135/135 132/132/132
f 129/129/129 137/137/137 128/128/128
f 133/133/133 128/128/128 137/137/137
f 127/127/127 125/125/125 138/138/138
f 138/138/138 125/125/125 134/134/134
f 138/138/138 139/139/139 127/127/127
f 127/127/127 139/139/139 140/140/140
f 127/127/127 140/140/140 141/141/141
f 132/132/132 127/127/127 141/141/141
f 133/133/133 137/137/137 142/142/142
f 134/134/134 133/133/133 143/143/143
f 143/143/143 133/133/133 142/142/142
f 144/144/144 134/134/134 143/143/143
f 144/144/144 143/143/143 145/145/145
f 144/144/144 145/145/145 146/146/146
f 147/147/147 146/146/146 145/145/145
f 147/147/147 145/145/145 148/148/148
f 149/149/149 148/148/148 145/145/145
f 146/146/146 150/150/150 144/144/144
f 148/148/148 149/149/149 151/151/151
f 152/152/152 151/151/151 149/149/149
f 149/149/149 153/153/153 152/152/152
f 153/153/153 149/149/149 145/145/145
f 143/143/143 153/153/153 145/145/145
f 154/154/154 152/152/152 153/153/153
f 143/143/143 154/154/154 153/153/153
f 142/142/142 154/154/154 143/143/143
f 152/152/152 154/154/154 155/155/155
f 156/156/156 155/155/155 154/154/154
f 142/142/142 156/156/156 154/154/154
f 141/141/141 157/157/157 132/132/132
f 132/132/132 157/157/157 136/136/136
f 157/157/157 158/158/158 136/136/136
f 161/161/161 160/160/160 159/159/159
f 159/159/159 160/160/160 162/162/162
f 163/163/163 159/159/159 162/162/162
f 161/161/161 164/164/164 160/160/160
f 165/165/165 161/161/161 159/159/159
f 166/166/166 159/159/159 163/163/163
f 166/166/166 163/163/163 167/167/167
f 168/168/168 167/167/167 163/163/163
f 167/167/167 168/168/168 169/169/169
f 170/170/170 169/169/169 168/168/168
f 167/167/167 171/171/171 166/166/166
f 167/167/167 169/169/169 171/171/171
f 172/172/172 166/166/166 171/171/171
f 166/166/166 172/172/172 159/159/159
f 173/173/173 171/171/171 169/169/169
f 174/174/174 159/159/159 172/172/172
f 174/174/174 165/165/165 159/159/159
f 169/169/169 175/175/175 173/173/173
f 169/169/169 176/176/176 175/175/175
f 170/170/170 176/176/176 169/169/169
f 176/176/176 177/177/177 175/175/175
f 175/175/175 177/177/177 178/178/178
f 179/179/179 173/173/173 175/175/175
f 180/180/180 175/175/175 178/178/178
f 179/179/179 175/175/175 180/180/180
f 172/172/172 171/171/171 181/181/181
f 182/182/182 181/181/181 171/171/171
f 173/173/173 183/183/183 171/171/171
f 182/182/182 171/171/171 183/183/183
f 173/173/173 179/179/179 183/183/183
f 172/172/172 184/184/184 174/174/174
f 185/185/185 174/174/174 184/184/184
f 174/174/174 185/185/185 165/165/165
f 186/186/186 165/165/165 185/185/185
f 187/187/187 183/183/183 179/179/179
f 179/179/179 188/188/188 187/187/187
f 188/188/188 179/179/179 180/180/180
f 189/189/189 187/187/187 188/188/188
f 188/188/188 180/180/180 190/190/190
f 180/180/180 178/178/178 190/190/190
f 178/178/178 191/191/191 190/190/190
f 183/183/183 187/187/187 192/192/192
f 183/183/183 192/192/192 182/182/182
f 193/193/193 192/192/192 187/187/187
f 194/194/194 182/182/182 192/192/192
f 182/182/182 194/194/194 181/181/181
f 195/195/195 181/181/181 194/194/194
f 185/185/185 196/196/196 186/186/186
f 197/197/197 186/186/186 196/196/196
f 189/189/189 198/198/198 187/187/187
f 193/193/193 187/187/187 198/198/198
f 192/192/192 193/193/193 199/199/199
f 192/192/192 199/199/199 194/194/194
f 200/200/200 199/199/199 193/193/193
f 199/199/199 200/200/200 201/201/201
f 202/202/202 201/201/201 200/200/200
f 202/202/202 200/200/200 203/203/203
f 204/204/204 203/203/203 200/200/200
f 198/198/198 204/204/204 193/193/193
f 200/200/200 193/193/193 204/204/204
f 201/201/201 205/205/205 199/199/199
f 206/206/206 199/199/199 205/205/205
f 206/206/206 194/194/194 199/199/199
f 194/194/194 206/206/206 195/195/195
f 206/206/206 205/205/205 207/207/207
f 206/206/206 207/207/207 208/208/208
f 208/208/208 195/195/195 206/206/206
f 209/209/209 207/207/207 205/205/205
f 209/209/209 210/210/210 207/207/207
f 211/211/211 207/207/207 210/210/210
f 210/210/210 212/212/212 211/211/211
f 213/213/213 211/211/211 212/212/212
f 214/214/214 211/211/211 213/213/213
f 211/211/211 214/214/214 207/207/207
f 213/213/213 197/197/197 214/214/214
f 196/196/196 214/214/214 197/197/197
f 215/215/215 207/207/207 214/214/214
f 214/214/214 216/216/216 215/215/215
f 217/217/217 215/215/215 216/216/216
f 216/216/216 185/185/185 218/218/218
f 184/184/184 218/218/218 185/185/185
f 221/221/221 220/220/220 219/219/219
f 222/222/222 219/219/219 220/220/220
f 225/225/225 224/224/224 223/223/223
f 226/226/226 224/224/224 225/225/225
f 229/229/229 228/228/228 227/227/227
f 230/230/230 229/229/229 227/227/227
f 230/230/230 231/231/231 229/229/229
f 232/232/232 229/229/229 231/231/231
f 232/232/232 233/233/233 229/229/229
f 234/234/234 229/229/229 233/233/233
f 228/228/228 229/229/229 234/234/234
f 230/230/230 227/227/227 235/235/235
f 236/236/236 235/235/235 227/227/227
f 233/233/233 237/237/237 234/234/234
f 238/238/238 234/234/234 237/237/237
f 235/235/235 239/239/239 230/230/230
f 231/231/231 230/230/230 239/239/239
f 227/227/227 228/228/228 240/240/240
f 227/227/227 240/240/240 236/236/236
f 241/241/241 240/240/240 228/228/228
f 241/241/241 228/228/228 242/242/242
f 242/242/242 228/228/228 243/243/243
f 228/228/228 234/234/234 243/243/243
f 239/239/239 235/235/235 244/244/244
f 235/235/235 236/236/236 245/245/245
f 235/235/235 245/245/245 244/244/244
f 236/236/236 246/246/246 245/245/245
f 245/245/245 246/246/246 247/247/247
f 247/247/247 246/246/246 248/248/248
f 248/248/248 249/249/249 247/247/247
f 249/249/249 250/250/250 247/247/247
f 251/251/251 247/247/247 250/250/250
f 252/252/252 248/248/248 246/246/246
f 250/250/250 253/253/253 251/251/251
f 254/254/254 251/251/251 253/253/253
f 251/251/251 254/254/254 255/255/255
f 251/251/251 255/255/255 247/247/247
f 255/255/255 245/245/245 247/247/247
f 256/256/256 255/255/255 254/254/254
f 256/256/256 245/245/245 255/255/255
f 256/256/256 244/244/244 245/245/245
f 254/254/254 257/257/257 256/256/256
f 258/258/258 256/256/256 257/257/257
f 258/258/258 244/244/244 256/256/256
f 259/259/259 243/243/243 234/234/234
f 259/259/259 234/234/234 238/238/238
f 260/260/260 259/259/259 238/238/238
f 261/261/261 104/104/104 103/103/103
f 261/261/261 262/262/262 104/104/104
f 262/262/262 110/110/110 104/104/104
f 265/265/265 264/264/264 263/263/263
f 266/266/266 263/263/263 264/264/264
f 269/269/269 268/268/268 267/267/267
f 270/270/270 267/267/267 268/268/268
f 273/273/273 272/272/272 271/271/271
f 274/274/274 271/271/271 272/272/272
f 271/271/271 274/274/274 275/275/275
f 276/276/276 275/275/275 274/274/274
f 275/275/275 276/276/276 277/277/277
f 278/278/278 277/277/277 276/276/276
f 278/278/278 279/279/279 277/277/277
f 280/280/280 277/277/277 279/279/279
f 280/280/280 279/279/279 281/281/281
f 282/282/282 281/281/281 279/279/279
f 282/282/282 283/283/283 281/281/281
f 284/284/284 281/281/281 283/283/283
f 275/275/275 277/277/277 285/285/285
f 286/286/286 285/285/285 277/277/277
f 285/285/285 286/286/286 287/287/287
f 288/288/288 287/287/287 286/286/286
f 288/288/288 289/289/289 287/287/287
f 289/289/289 288/288/288 290/290/290
f 291/291/291 290/290/290 288/288/288
f 288/288/288 286/286/286 291/291/291
f 292/292/292 287/287/287 289/289/289
f 290/290/290 291/291/291 293/293/293
f 294/294/294 293/293/293 291/291/291
f 293/293/293 294/294/294 295/295/295
f 296/296/296 295/295/295 294/294/294
f 292/292/292 297/297/297 287/287/287
f 298/298/298 287/287/287 297/297/297
f 298/298/298 297/297/297 299/299/299
f 300/300/300 299/299/299 297/297/297
f 299/299/299 301/301/301 298/298/298
f 302/302/302 298/298/298 301/301/301
f 298/298/298 302/302/302 287/287/287
f 285/285/285 287/287/287 302/302/302
f 291/291/291 303/303/303 294/294/294
f 304/304/304 294/294/294 303/303/303
f 294/294/294 304/304/304 296/296/296
f 303/303/303 291/291/291 286/286/286
f 305/305/305 296/296/296 304/304/304
f 286/286/286 277/277/277 303/303/303
f 280/280/280 303/303/303 277/277/277
f 303/303/303 280/280/280 304/304/304
f 281/281/281 304/304/304 280/280/280
f 304/304/304 281/281/281 305/305/305
f 284/284/284 305/305/305 281/281/281
f 301/301/301 273/273/273 302/302/302
f 271/271/271 302/302/302 273/273/273
f 285/285/285 302/302/302 275/275/275
f 271/271/271 275/275/275 302/302/302
f 308/308/308 307/307/307 306/306/306
f 309/309/309 306/306/306 307/307/307
f 308/308/308 306/306/306 310/310/310
f 311/311/311 310/310/310 306/306/306
f 307/307/307 312/312/312 309/309/309
f 313/313/313 309/309/309 312/312/312
f 312/312/312 314/314/314 313/313/313
f 315/315/315 313/313/313 314/314/314
f 315/315/315 314/314/314 316/316/316
f 317/317/317 316/316/316 314/314/314
f 310/310/310 318/318/318 308/308/308
f 319/319/319 308/308/308 318/318/318
f 318/318/318 320/320/320 319/319/319
f 321/321/321 319/319/319 320/320/320
f 320/320/320 322/322/322 321/321/321
f 323/323/323 321/321/321 322/322/322
f 314/314/314 312/312/312 324/324/324
f 317/317/317 314/314/314 325/325/325
f 314/314/314 324/324/324 325/325/325
f 325/325/325 324/324/324 326/326/326
f 327/327/327 326/326/326 324/324/324
f 324/324/324 328/328/328 327/327/327
f 329/329/329 327/327/327 328/328/328
f 327/327/327 330/330/330 326/326/326
f 331/331/331 330/330/330 327/327/327
f 332/332/332 331/331/331 327/327/327
f 332/332/332 327/327/327 329/329/329
f 312/312/312 328/328/328 324/324/324
f 307/307/307 328/328/328 312/312/312
f 307/307/307 333/333/333 328/328/328
f 328/328/328 333/333/333 334/334/334
f 335/335/335 334/334/334 333/333/333
f 334/334/334 335/335/335 336/336/336
f 337/337/337 336/336/336 335/335/335
f 333/333/333 307/307/307 338/338/338
f 308/308/308 338/338/338 307/307/307
f 339/339/339 338/338/338 308/308/308
f 338/338/338 340/340/340 333/333/333
f 335/335/335 333/333/333 340/340/340
f 338/338/338 341/341/341 340/340/340
f 338/338/338 339/339/339 342/342/342
f 344/344/344 339/339/339 343/343/343
f 344/344/344 343/343/343 345/345/345
f 343/343/343 346/346/346 345/345/345
f 347/347/347 345/345/345 346/346/346
f 350/350/350 349/349/349 348/348/348
f 351/351/351 348/348/348 349/349/349
f 349/349/349 350/350/350 352/352/352
f 353/353/353 349/349/349 352/352/352
f 354/354/354 353/353/353 352/352/352
f 354/354/354 352/352/352 355/355/355
f 354/354/354 355/355/355 356/356/356
f 357/357/357 356/356/356 355/355/355
f 352/352/352 350/350/350 358/358/358
f 350/350/350 359/359/359 358/358/358
f 359/359/359 360/360/360 358/358/358
f 361/361/361 358/358/358 360/360/360
f 358/358/358 361/361/361 362/362/362
f 363/363/363 362/362/362 361/361/361
f 360/360/360 364/364/364 361/361/361
f 363/363/363 365/365/365 362/362/362
f 362/362/362 366/366/366 358/358/358
f 352/352/352 358/358/358 366/366/366
f 362/362/362 367/367/367 366/366/366
f 367/367/367 362/362/362 368/368/368
f 361/361/361 364/364/364 369/369/369
f 361/361/361 369/369/369 370/370/370
f 361/361/361 370/370/370 363/363/363
f 372/372/372 355/355/355 371/371/371
f 374/374/374 367/367/367 373/373/373
f 374/374/374 373/373/373 375/375/375
f 376/376/376 375/375/375 373/373/373
f 375/375/375 378/378/378 377/377/377
f 380/380/380 379/379/379 377/377/377
f 381/381/381 377/377/377 379/379/379
f 381/381/381 379/379/379 382/382/382
f 383/383/383 382/382/382 379/379/379
f 384/384/384 323/323/323 322/322/322
f 387/387/387 386/386/386 385/385/385
f 388/388/388 385/385/385 386/386/386
f 385/385/385 389/389/389 387/387/387
f 390/390/390 387/387/387 389/389/389
f 389/389/389 391/391/391 390/390/390
f 392/392/392 390/390/390 391/391/391
f 392/392/392 391/391/391 393/393/393
f 394/394/394 393/393/393 391/391/391
f 394/394/394 395/395/395 393/393/393
f 396/396/396 393/393/393 395/395/395
f 396/396/396 395/395/395 397/397/397
f 398/398/398 397/397/397 395/395/395
f 389/389/389 399/399/399 391/391/391
f 400/400/400 391/391/391 399/399/399
f 399/399/399 401/401/401 400/400/400
f 402/402/402 400/400/400 401/401/401
f 402/402/402 401/401/401 403/403/403
f 403/403/403 404/404/404 402/402/402
f 405/405/405 402/402/402 404/404/404
f 402/402/402 405/405/405 400/400/400
f 406/406/406 403/403/403 401/401/401
f 404/404/404 407/407/407 405/405/405
f 408/408/408 405/405/405 407/407/407
f 407/407/407 409/409/409 408/408/408
f 410/410/410 408/408/408 409/409/409
f 406/406/406 401/401/401 411/411/411
f 412/412/412 411/411/411 401/401/401
f 412/412/412 413/413/413 411/411/411
f 414/414/414 411/411/411 413/413/413
f 413/413/413 412/412/412 415/415/415
f 416/416/416 415/415/415 412/412/412
f 412/412/412 401/401/401 416/416/416
f 399/399/399 416/416/416 401/401/401
f 405/405/405 408/408/408 417/417/417
f 418/418/418 417/417/417 408/408/408
f 408/408/408 410/410/410 418/418/418
f 417/417/417 400/400/400 405/405/405
f 419/419/419 418/418/418 410/410/410
f 400/400/400 417/417/417 391/391/391
f 394/394/394 391/391/391 417/417/417
f 417/417/417 418/418/418 394/394/394
f 395/395/395 394/394/394 418/418/418
f 418/418/418 419/419/419 395/395/395
f 398/398/398 395/395/395 419/419/419
f 415/415/415 416/416/416 388/388/388
f 385/385/385 388/388/388 416/416/416
f 385/385/385 416/416/416 389/389/389
f 399/399/399 389/389/389 416/416/416
f 422/422/422 421/421/421 420/420/420
f 423/423/423 420/420/420 421/421/421
f 423/423/423 424/424/424 420/420/420
f 425/425/425 420/420/420 424/424/424
f 421/421/421 422/422/422 426/426/426
f 427/427/427 426/426/426 422/422/422
f 426/426/426 427/427/427 428/428/428
f 429/429/429 428/428/428 427/427/427
f 429/429/429 430/430/430 428/428/428
f 431/431/431 428/428/428 430/430/430
f 424/424/424 423/423/423 432/432/432
f 433/433/433 432/432/432 423/423/423
f 432/432/432 433/433/433 434/434/434
f 435/435/435 434/434/434 433/433/433
f 434/434/434 435/435/435 436/436/436
f 437/437/437 436/436/436 435/435/435
f 426/426/426 428/428/428 438/438/438
f 428/428/428 431/431/431 439/439/439
f 438/438/438 428/428/428 439/439/439
f 439/439/439 440/440/440 438/438/438
f 441/441/441 438/438/438 440/440/440
f 438/438/438 441/441/441 442/442/442
f 443/443/443 442/442/442 441/441/441
f 444/444/444 441/441/441 440/440/440
f 444/444/444 445/445/445 441/441/441
f 445/445/445 446/446/446 441/441/441
f 441/441/441 446/446/446 443/443/443
f 442/442/442 426/426/426 438/438/438
f 442/442/442 421/421/421 426/426/426
f 447/447/447 421/421/421 442/442/442
f 442/442/442 448/448/448 447/447/447
f 449/449/449 447/447/447 448/448/448
f 448/448/448 450/450/450 449/449/449
f 451/451/451 449/449/449 450/450/450
f 421/421/421 447/447/447 452/452/452
f 452/452/452 423/423/423 421/421/421
f 452/452/452 453/453/453 423/423/423
f 454/454/454 452/452/452 447/447/447
f 447/447/447 449/449/449 454/454/454
f 455/455/455 452/452/452 454/454/454
f 453/453/453 452/452/452 456/456/456
f 453/453/453 458/458/458 457/457/457
f 457/457/457 458/458/458 459/459/459
f 457/457/457 459/459/459 460/460/460
f 461/461/461 460/460/460 459/459/459
f 464/464/464 463/463/463 462/462/462
f 465/465/465 462/462/462 463/463/463
f 465/465/465 463/463/463 466/466/466
f 463/463/463 467/467/467 466/466/466
f 467/467/467 468/468/468 466/466/466
f 466/466/466 468/468/468 469/469/469
f 468/468/468 470/470/470 469/469/469
f 471/471/471 469/469/469 470/470/470
f 465/465/465 466/466/466 472/472/472
f 473/473/473 465/465/465 472/472/472
f 473/473/473 472/472/472 474/474/474
f 475/475/475 474/474/474 472/472/472
f 472/472/472 476/476/476 475/475/475
f 477/477/477 475/475/475 476/476/476
f 478/478/478 474/474/474 475/475/475
f 479/479/479 477/477/477 476/476/476
f 480/480/480 476/476/476 472/472/472
f 472/472/472 466/466/466 480/480/480
f 481/481/481 476/476/476 480/480/480
f 476/476/476 481/481/481 482/482/482
f 478/478/478 475/475/475 483/483/483
f 483/483/483 475/475/475 484/484/484
f 484/484/484 475/475/475 477/477/477
f 469/469/469 486/486/486 485/485/485
f 481/481/481 488/488/488 487/487/487
f 488/488/488 489/489/489 487/487/487
f 490/490/490 487/487/487 489/489/489
f 492/492/492 489/489/489 491/491/491
f 494/494/494 493/493/493 491/491/491
f 495/495/495 491/491/491 493/493/493
f 493/493/493 494/494/494 496/496/496
f 496/496/496 497/497/497 493/493/493
f 437/437/437 498/498/498 436/436/436
f 501/501/501 500/500/500 499/499/499
f 504/504/504 503/503/503 502/502/502
