g XuanJueSe_jianZhu04
v 5.862849 -13.46447 5.47349
v 5.862848 -4.489032 16.23135
v 5.862847 -4.489034 5.473489
v 5.86285 -13.46446 16.23135
v 7.30318 -13.46447 3.167653
v 7.303177 -4.489033 3.882044
v 7.303177 -4.489033 3.167652
v 7.30318 -13.46447 3.882045
v -7.303178 -4.489035 16.23135
v 5.86285 -13.46446 16.23135
v -7.303178 -13.46446 16.23136
v 5.862848 -4.489032 16.23135
v 5.862848 -4.489034 1.551893
v 5.862848 -13.46447 -0.06596588
v 5.862849 -13.46447 1.551894
v 5.862847 -4.489034 -0.06596667
v 5.069213 -4.489034 1.551894
v 5.069214 -13.46447 3.031985
v 5.069213 -4.489034 3.031984
v 5.069214 -13.46447 1.551895
v 5.069214 -13.46447 3.031985
v 7.303177 -4.489033 3.167652
v 5.069213 -4.489034 3.031984
v 7.30318 -13.46447 3.167653
v 5.069212 4.486398 3.031983
v 7.303175 4.486398 3.167651
v 5.08839 13.46447 3.031982
v 7.303175 13.46447 3.16765
v 5.069214 -13.46447 1.551895
v 5.862848 -4.489034 1.551893
v 5.862849 -13.46447 1.551894
v 5.069213 -4.489034 1.551894
v 5.862846 4.486398 5.473489
v 5.862848 -4.489032 16.23135
v 5.862846 4.486399 16.23135
v 5.862847 -4.489034 5.473489
v 7.303175 4.486398 3.167651
v 7.303177 -4.489033 3.882044
v 7.303175 4.486398 3.882043
v 7.303177 -4.489033 3.167652
v -7.204049 4.486399 16.23135
v 5.862845 13.46447 16.23135
v 5.862846 4.486399 16.23135
v -7.20405 13.46447 16.23135
v -7.303178 -4.489035 16.23135
v 5.862846 4.486399 16.23135
v 5.862848 -4.489032 16.23135
v -7.204049 4.486399 16.23135
v 5.862846 4.486398 1.551893
v 5.862844 13.46447 -0.06596824
v 5.862846 4.486398 -0.06596745
v 5.862845 13.46447 1.551892
v 5.862848 -4.489034 1.551893
v 5.862846 4.486398 -0.06596745
v 5.862847 -4.489034 -0.06596667
v 5.862846 4.486398 1.551893
v 5.862846 4.486399 16.23135
v 5.862844 13.46447 5.473488
v 5.862846 4.486398 5.473489
v 5.862845 13.46447 16.23135
v 7.303175 4.486398 3.882043
v 7.303175 13.46447 3.16765
v 7.303175 4.486398 3.167651
v 7.303175 13.46447 3.882042
v 5.069212 4.486398 1.551893
v 5.08839 13.46447 3.031982
v 5.08839 13.46447 1.551893
v 5.069212 4.486398 3.031983
v 5.069213 -4.489034 1.551894
v 5.069212 4.486398 3.031983
v 5.069212 4.486398 1.551893
v 5.069213 -4.489034 3.031984
v 5.069212 4.486398 1.551893
v 5.862848 -4.489034 1.551893
v 5.069213 -4.489034 1.551894
v 5.862846 4.486398 1.551893
v 5.08839 13.46447 1.551893
v 5.862846 4.486398 1.551893
v 5.069212 4.486398 1.551893
v 5.862845 13.46447 1.551892
vt 0.9937086 0.5041847
vt 0.7542154 0.7468076
vt 0.7542154 0.5041847
vt 0.9937086 0.7468076
vt 0.940176 0.996281
vt 0.9248202 0.7509946
vt 0.940176 0.7509946
vt 0.9248202 0.996281
vt 0.8633988 0.6627309
vt 0.8897301 0.5841547
vt 0.8897301 0.6627309
vt 0.8633988 0.5841547
vt 0.502692 0.8277797
vt 0.7488036 0.7906704
vt 0.7488036 0.8277797
vt 0.502692 0.7906704
vt 0.6486446 0.7358541
vt 0.7491277 0.6386908
vt 0.7491277 0.7358541
vt 0.6486446 0.6386908
vt 0.75 0.25
vt 0.5 0.25
vt 0.5 0.25
vt 0.75 0.25
vt 0.75 0.25
vt 0.75 0.25
vt 1 0.25
vt 1 0.25
vt 0.5039404 0.8205748
vt 0.7461181 0.8275133
vt 0.5039404 0.8275133
vt 0.7461181 0.8205748
vt 0.7542154 0.5041847
vt 0.9937086 0.7468076
vt 0.7542154 0.7468076
vt 0.9937086 0.5041847
vt 0.940176 0.7509946
vt 0.9248202 0.996281
vt 0.9248202 0.7509946
vt 0.940176 0.996281
vt 0.8899546 0.6621393
vt 0.8636156 0.5841547
vt 0.8899546 0.5841547
vt 0.8636156 0.6621393
vt 0.8898423 0.6627309
vt 0.8635111 0.5841547
vt 0.8898423 0.5841547
vt 0.8635111 0.6621393
vt 0.7488036 0.8277797
vt 0.502692 0.7906704
vt 0.7488036 0.7906704
vt 0.502692 0.8277797
vt 0.7488036 0.8277797
vt 0.502692 0.7906704
vt 0.7488036 0.7906704
vt 0.502692 0.8277797
vt 0.9937086 0.7468076
vt 0.7542154 0.5041847
vt 0.9937086 0.5041847
vt 0.7542154 0.7468076
vt 0.9248202 0.996281
vt 0.940176 0.7509946
vt 0.940176 0.996281
vt 0.9248202 0.7509946
vt 0.6486446 0.6376197
vt 0.7491277 0.7348636
vt 0.6486446 0.7348636
vt 0.7491277 0.6376197
vt 0.6486446 0.6375906
vt 0.7491277 0.7347538
vt 0.6486446 0.7347538
vt 0.7491277 0.6375906
vt 0.7461181 0.8205748
vt 0.5039404 0.8275133
vt 0.5039404 0.8205748
vt 0.7461181 0.8275133
vt 0.7461181 0.8205748
vt 0.5039404 0.8275133
vt 0.5039404 0.8205748
vt 0.7461181 0.8275133
vn 1 2.040074E-07 0
vn 1 2.040074E-07 0
vn 1 2.040074E-07 0
vn 1 2.720099E-07 -1.134708E-07
vn 1 2.720099E-07 0
vn 1 2.720099E-07 0
vn 1 2.720099E-07 0
vn 1 2.720099E-07 0
vn 1.854322E-07 2.720099E-07 1
vn 1.854322E-07 2.7201E-07 1
vn 1.854322E-07 2.7201E-07 1
vn 0 0 1
vn 1 1.360049E-07 -3.772586E-07
vn 1 1.360049E-07 -3.772585E-07
vn 1 1.360049E-07 -3.772585E-07
vn 1 1.360049E-07 -3.772585E-07
vn 1 1.36005E-07 0
vn 1 1.36005E-07 0
vn 1 1.36005E-07 0
vn 1 1.36005E-07 0
vn 0.06061818 0 -0.998161
vn 0.06061817 0 -0.998161
vn 0.06061818 0 -0.998161
vn 0.06061814 0 -0.998161
vn 0.0606182 -0.0001295911 -0.998161
vn 0.06114118 0 -0.9981292
vn 0.06114117 0 -0.9981292
vn 0.06114118 0 -0.9981292
vn 7.690587E-07 0 1
vn 7.690587E-07 0 1
vn 7.690587E-07 0 1
vn 7.690587E-07 0 1
vn 1 1.36005E-07 0
vn 1 1.36005E-07 0
vn 1 1.36005E-07 0
vn 1 0 0
vn 1 2.040074E-07 0
vn 1 2.040074E-07 0
vn 1 2.040074E-07 0
vn 1 2.040074E-07 0
vn 1.86839E-07 0 1
vn 1.86839E-07 0 1
vn 1.86839E-07 0 1
vn 1.86839E-07 0 1
vn 0 2.720099E-07 1
vn 0 2.720099E-07 1
vn 0 2.720099E-07 1
vn 1.86839E-07 0 1
vn 1 2.039476E-07 0
vn 1 2.039475E-07 0
vn 1 2.039475E-07 0
vn 1 1.35965E-07 -3.772585E-07
vn 1 1.360049E-07 -3.772585E-07
vn 1 1.360049E-07 -3.772586E-07
vn 1 1.360049E-07 -3.772585E-07
vn 1 2.040074E-07 0
vn 1 2.7193E-07 0
vn 1 2.7193E-07 0
vn 1 2.7193E-07 0
vn 1 1.35965E-07 -1.134708E-07
vn 1 0 0
vn 1 0 0
vn 1 0 0
vn 1 0 0
vn 0.9999977 -0.002136142 0
vn 0.9999977 -0.002136142 0
vn 0.9999977 -0.002136142 0
vn 0.9999977 -0.002136141 0
vn 1 1.36005E-07 0
vn 1 1.36005E-07 0
vn 1 1.36005E-07 0
vn 1 1.36005E-07 0
vn 7.690587E-07 0 1
vn 7.690587E-07 0 1
vn 7.690587E-07 0 1
vn 7.690593E-07 0 1
vn 7.690593E-07 0 1
vn 7.690592E-07 0 1
vn 7.690591E-07 0 1
vn 7.881055E-07 0 1
g XuanJueSe_jianZhu04_0
f 3/3/3 2/2/2 1/1/1
f 4/4/4 1/1/1 2/2/2
f 7/7/7 6/6/6 5/5/5
f 8/8/8 5/5/5 6/6/6
f 11/11/11 10/10/10 9/9/9
f 12/12/12 9/9/9 10/10/10
f 15/15/15 14/14/14 13/13/13
f 16/16/16 13/13/13 14/14/14
f 19/19/19 18/18/18 17/17/17
f 20/20/20 17/17/17 18/18/18
f 23/23/23 22/22/22 21/21/21
f 24/24/24 21/21/21 22/22/22
f 23/23/23 25/25/25 22/22/22
f 26/26/26 22/22/22 25/25/25
f 25/25/25 27/27/27 26/26/26
f 28/28/28 26/26/26 27/27/27
f 31/31/31 30/30/30 29/29/29
f 32/32/32 29/29/29 30/30/30
f 35/35/35 34/34/34 33/33/33
f 36/36/36 33/33/33 34/34/34
f 39/39/39 38/38/38 37/37/37
f 40/40/40 37/37/37 38/38/38
f 43/43/43 42/42/42 41/41/41
f 44/44/44 41/41/41 42/42/42
f 47/47/47 46/46/46 45/45/45
f 48/48/48 45/45/45 46/46/46
f 51/51/51 50/50/50 49/49/49
f 52/52/52 49/49/49 50/50/50
f 55/55/55 54/54/54 53/53/53
f 56/56/56 53/53/53 54/54/54
f 59/59/59 58/58/58 57/57/57
f 60/60/60 57/57/57 58/58/58
f 63/63/63 62/62/62 61/61/61
f 64/64/64 61/61/61 62/62/62
f 67/67/67 66/66/66 65/65/65
f 68/68/68 65/65/65 66/66/66
f 71/71/71 70/70/70 69/69/69
f 72/72/72 69/69/69 70/70/70
f 75/75/75 74/74/74 73/73/73
f 76/76/76 73/73/73 74/74/74
f 79/79/79 78/78/78 77/77/77
f 80/80/80 77/77/77 78/78/78
