g XuanJueSe_diMian01
v -13.392 74.93648 -0.409512
v -13.392 88.56031 -0.409512
v -1.726473 74.93648 -0.409512
v -1.755723 88.56031 -0.409512
v -1.755723 88.56031 -0.409512
v 12.37003 74.93648 -0.409512
v 12.43617 88.56031 -0.409512
v 12.37003 74.93648 -0.409512
v 35.32434 88.56031 -0.409512
v 35.32434 74.93648 -0.409512
v 12.37003 51.59983 -0.409512
v -1.726473 39.93526 -0.409512
v -1.726473 51.60233 -0.409512
v 12.37003 39.93151 -0.409512
v 12.37003 4.379123 -0.409512
v -1.726473 4.379123 -0.409512
v 12.37003 16.08011 -0.409512
v -1.726473 16.07198 -0.409512
v 12.37003 28.26319 -0.409512
v 22.85307 16.08011 -0.409512
v 12.37003 16.08011 -0.409512
v 22.85307 28.26319 -0.409512
v 22.85307 28.26319 -0.409512
v 35.32434 16.08011 -0.409512
v 22.85307 16.08011 -0.409512
v 35.32434 28.26319 -0.409512
v 12.37003 28.26319 -0.409512
v -1.726473 16.07198 -0.409512
v -1.726473 28.26818 -0.409512
v 12.37003 16.08011 -0.409512
v 12.37003 74.93648 -0.409512
v -1.726473 63.2694 -0.409512
v -1.726473 74.93648 -0.409512
v 12.37003 63.26816 -0.409512
v 12.37003 63.26816 -0.409512
v -1.726473 51.60233 -0.409512
v -1.726473 63.2694 -0.409512
v 12.37003 51.59983 -0.409512
v -1.726473 28.26818 -0.409512
v 12.37003 39.93151 -0.409512
v 12.37003 28.26319 -0.409512
v -1.726473 39.93526 -0.409512
vt 0.5011246 0.2525437
vt 0.5011246 0.4982611
vt 0.7490503 0.2525437
vt 0.7490503 0.4982611
vt 0.5011246 0.2525437
vt 0.7490503 0.4982611
vt 0.5011246 0.4982611
vt 0.5011246 0.2525437
vt 0.7490503 0.4982611
vt 0.7490503 0.2525437
vt 0.5011246 0.4982611
vt 0.7490503 0.2525437
vt 0.5011246 0.2525437
vt 0.7490503 0.4982611
vt 0.7490503 0.4982611
vt 0.7490503 0.2525437
vt 0.5011246 0.4982611
vt 0.5011246 0.2525437
vt 0.5011246 0.4982611
vt 0.7490503 0.2525437
vt 0.5011246 0.2525437
vt 0.7490503 0.4982611
vt 0.5011246 0.4982611
vt 0.7490503 0.2525437
vt 0.5011246 0.2525437
vt 0.7490503 0.4982611
vt 0.5011246 0.4384618
vt 0.7490503 0.2525437
vt 0.5011246 0.2525437
vt 0.7490503 0.4384618
vt 0.5011246 0.4982611
vt 0.7490503 0.2525437
vt 0.5011246 0.2525437
vt 0.7490503 0.4982611
vt 0.5011246 0.4982611
vt 0.7490503 0.2525437
vt 0.5011246 0.2525437
vt 0.7490503 0.4982611
vt 0.7490503 0.2525437
vt 0.5011246 0.4982611
vt 0.7490503 0.4982611
vt 0.5011246 0.2525437
vn 0 0 1
vn 0 0 1
vn 0 0 1
vn 0 0 1
vn 0 0 1
vn 0 0 1
vn 0 0 1
vn 0 0 1
vn 0 0 1
vn 0 0 1
vn 0 0 1
vn 0 0 1
vn 0 0 1
vn 0 0 1
vn 0 0 1
vn 0 0 1
vn 0 0 1
vn 0 0 1
vn 0 0 1
vn 0 0 1
vn 0 0 1
vn 0 0 1
vn 0 0 1
vn 0 0 1
vn 0 0 1
vn 0 0 1
vn 0 0 1
vn 0 0 1
vn 0 0 1
vn 0 0 1
vn 0 0 1
vn 0 0 1
vn 0 0 1
vn 0 0 1
vn 0 0 1
vn 0 0 1
vn 0 0 1
vn 0 0 1
vn 0 0 1
vn 0 0 1
vn 0 0 1
vn 0 0 1
g XuanJueSe_diMian01_0
f 3/3/3 2/2/2 1/1/1
f 2/2/2 3/3/3 4/4/4
f 3/3/3 6/6/6 5/5/5
f 7/7/7 5/5/5 6/6/6
f 9/9/9 7/7/7 8/8/8
f 9/9/9 8/8/8 10/10/10
f 13/13/13 12/12/12 11/11/11
f 14/14/14 11/11/11 12/12/12
f 17/17/17 16/16/16 15/15/15
f 18/18/18 16/16/16 17/17/17
f 21/21/21 20/20/20 19/19/19
f 22/22/22 19/19/19 20/20/20
f 25/25/25 24/24/24 23/23/23
f 26/26/26 23/23/23 24/24/24
f 29/29/29 28/28/28 27/27/27
f 30/30/30 27/27/27 28/28/28
f 33/33/33 32/32/32 31/31/31
f 34/34/34 31/31/31 32/32/32
f 37/37/37 36/36/36 35/35/35
f 38/38/38 35/35/35 36/36/36
f 41/41/41 40/40/40 39/39/39
f 42/42/42 39/39/39 40/40/40
