g XuanJueSe_luDeng01
v 0.04351842 0.04413445 10.06808
v 0.07125848 -0.01944714 1.552252
v 0.07125848 -0.01944816 10.06808
v 0.04351842 0.04413547 1.552252
v 0.02079517 -0.07269759 1.552252
v 0.02079517 -0.07269862 10.06808
v -0.05181104 -0.04355813 1.552252
v -0.05181104 -0.04355915 10.06808
v -0.03418875 0.03954755 10.06808
v 0.04351842 0.04413547 1.552252
v 0.04351842 0.04413445 10.06808
v -0.03418875 0.03954856 1.552252
v -0.05181104 -0.04355915 10.06808
v -0.03418875 0.03954856 1.552252
v -0.03418875 0.03954755 10.06808
v -0.05181104 -0.04355813 1.552252
v 0.7532951 0.4304239 9.539426
v 0.246444 -0.2761691 9.268894
v 0.246444 0.2786879 9.268892
v 0.75203 -0.4188062 9.539426
v 1.486098 -0.4663851 9.448987
v 1.486548 0.5197738 9.448987
v 0.2532139 0.2761509 9.217304
v 0.246444 -0.2761691 9.268894
v 0.2532139 -0.2734741 9.217303
v 0.246444 0.2786879 9.268892
v 1.475029 -0.4573486 9.360981
v 1.486548 0.5197738 9.448987
v 1.475471 0.5100904 9.360981
v 1.486098 -0.4663851 9.448987
v 0.2532139 -0.2734741 9.217303
v 0.75203 -0.4188062 9.539426
v 0.7544656 -0.4115478 9.412403
v 0.246444 -0.2761691 9.268894
v 1.486098 -0.4663851 9.448987
v 1.475029 -0.4573486 9.360981
v 0.7557099 0.4232863 9.412403
v 0.246444 0.2786879 9.268892
v 0.2532139 0.2761509 9.217304
v 0.7532951 0.4304239 9.539426
v 1.475471 0.5100904 9.360981
v 1.486548 0.5197738 9.448987
v 0.7544656 -0.4115478 9.412403
v 0.2532139 0.2761509 9.217304
v 0.2532139 -0.2734741 9.217303
v 0.7557099 0.4232863 9.412403
v 1.475471 0.5100904 9.360981
v 1.475029 -0.4573486 9.360981
v 0.04351842 0.04413445 10.06808
v 0.07125848 -0.01944816 10.06808
v -0.03418875 0.03954755 10.06808
v 0.02079517 -0.07269862 10.06808
v -0.05181104 -0.04355915 10.06808
v -0.769455 -0.02153314 9.513422
v 0.7604499 0.003490869 9.486672
v -0.769455 0.005215869 9.486672
v 0.7604499 -0.02325814 9.513422
v -0.769455 0.005215862 9.540171
v 0.7604499 0.03023886 9.513422
v 0.7604499 0.003490862 9.540171
v -0.769455 0.03196386 9.513422
v -0.769455 -0.02153314 9.513422
v 0.7604499 0.003490862 9.540171
v 0.7604499 -0.02325814 9.513422
v -0.769455 0.005215862 9.540171
v -0.769455 0.03196386 9.513422
v 0.7604499 0.003490869 9.486672
v 0.7604499 0.03023886 9.513422
v -0.769455 0.005215869 9.486672
v -0.7622997 -0.4217179 9.539426
v -0.255448 0.2848749 9.268894
v -0.255448 -0.2699821 9.268892
v -0.7610347 0.4275118 9.539426
v -1.495102 0.4750914 9.448987
v -1.495553 -0.5110681 9.448987
v -0.262219 -0.2674451 9.217304
v -0.255448 0.2848749 9.268894
v -0.262219 0.2821799 9.217303
v -0.255448 -0.2699821 9.268892
v -1.484034 0.4660543 9.360981
v -1.495553 -0.5110681 9.448987
v -1.484475 -0.5013847 9.360981
v -1.495102 0.4750914 9.448987
v -0.262219 0.2821799 9.217303
v -0.7610347 0.4275118 9.539426
v -0.7634708 0.4202542 9.412403
v -0.255448 0.2848749 9.268894
v -1.495102 0.4750914 9.448987
v -1.484034 0.4660543 9.360981
v -0.764715 -0.4145801 9.412403
v -0.255448 -0.2699821 9.268892
v -0.262219 -0.2674451 9.217304
v -0.7622997 -0.4217179 9.539426
v -1.484475 -0.5013847 9.360981
v -1.495553 -0.5110681 9.448987
v -0.7634708 0.4202542 9.412403
v -0.262219 -0.2674451 9.217304
v -0.262219 0.2821799 9.217303
v -0.764715 -0.4145801 9.412403
v -1.484475 -0.5013847 9.360981
v -1.484034 0.4660543 9.360981
v 0.1244819 0.1312385 8.119814E-05
v 0.1069685 -0.02654998 0.154704
v 0.07379142 0.06436364 0.154704
v 0.188661 -0.04708209 8.116908E-05
v -0.1148304 0.1270096 8.119745E-05
v -0.05532499 0.05959599 0.154704
v -0.1656644 -0.1038136 8.115984E-05
v -0.08208504 -0.06378596 0.154704
v 0.04787132 -0.1815182 8.114718E-05
v -0.08208504 -0.06378596 0.154704
v 0.02735767 -0.1056889 0.154704
v -0.1656644 -0.1038136 8.115984E-05
v 0.188661 -0.04708209 8.116908E-05
v 0.1069685 -0.02654998 0.154704
v 0.1069685 -0.02655014 1.564319
v 0.02735767 -0.1056891 1.564319
v 0.07379142 0.06436347 1.564319
v -0.05532499 0.05959582 1.564319
v -0.05532499 0.05959582 1.564319
v 0.02735767 -0.1056891 1.564319
v -0.08208504 -0.06378613 1.564319
v 0.07379142 0.06436347 1.564319
v 0.1069685 -0.02654998 0.154704
v 0.1069685 -0.02655014 1.564319
v 0.07379142 0.06436364 0.154704
v -0.05532499 0.05959582 1.564319
v -0.05532499 0.05959599 0.154704
v -0.08208504 -0.06378613 1.564319
v -0.05532499 0.05959599 0.154704
v -0.05532499 0.05959582 1.564319
v -0.08208504 -0.06378596 0.154704
v 0.02735767 -0.1056891 1.564319
v -0.08208504 -0.06378596 0.154704
v -0.08208504 -0.06378613 1.564319
v 0.02735767 -0.1056889 0.154704
v 0.1069685 -0.02655014 1.564319
v 0.1069685 -0.02654998 0.154704
vt 0.4817894 0.3786734
vt 0.4846346 0.4950143
vt 0.4846346 0.3786734
vt 0.4817894 0.4950143
vt 0.4881911 0.4950143
vt 0.4881911 0.3786734
vt 0.4922222 0.4950143
vt 0.4922222 0.3786734
vt 0.4794183 0.3786734
vt 0.4817894 0.4950143
vt 0.4817894 0.3786734
vt 0.4794183 0.4950143
vt 0.4922222 0.3786734
vt 0.4966087 0.4950143
vt 0.4966087 0.3786734
vt 0.4922222 0.4950143
vt 0.4532087 0.3340423
vt 0.4852297 0.3157212
vt 0.459217 0.3157212
vt 0.4929723 0.3448462
vt 0.4941373 0.372027
vt 0.4478658 0.372027
vt 0.4745094 0.3328545
vt 0.4776624 0.3494021
vt 0.479239 0.3488163
vt 0.4727751 0.3331474
vt 0.4781354 0.3552597
vt 0.4745094 0.3286077
vt 0.4716716 0.3294863
vt 0.4809732 0.3549669
vt 0.4669421 0.3236289
vt 0.4783105 0.3418523
vt 0.4754553 0.3422267
vt 0.4686763 0.3231895
vt 0.4796331 0.361703
vt 0.4766376 0.361703
vt 0.4733357 0.3362063
vt 0.4691491 0.3240681
vt 0.467415 0.3245075
vt 0.4758406 0.3357995
vt 0.4764013 0.3621423
vt 0.479239 0.3622155
vt 0.3989581 0.3450985
vt 0.4330464 0.316014
vt 0.4067183 0.316014
vt 0.4390373 0.3342864
vt 0.4443974 0.3724663
vt 0.3978109 0.3723931
vt 0.4907994 0.4592968
vt 0.4931703 0.4598897
vt 0.4917479 0.4562587
vt 0.4960157 0.4585558
vt 0.4955417 0.4561845
vt 0.4865314 0.4087591
vt 0.489851 0.4796006
vt 0.4898509 0.4087591
vt 0.4865316 0.4796006
vt 0.4964896 0.4087591
vt 0.4931703 0.4796006
vt 0.4964895 0.4796006
vt 0.4931703 0.4087591
vt 0.4865314 0.4087591
vt 0.483212 0.4796006
vt 0.4865314 0.4796006
vt 0.4832121 0.4087591
vt 0.4931703 0.4087591
vt 0.489851 0.4796006
vt 0.4931704 0.4796006
vt 0.4898509 0.4087591
vt 0.4532087 0.3340423
vt 0.4852297 0.3157212
vt 0.459217 0.3157212
vt 0.4929723 0.3448462
vt 0.4941373 0.372027
vt 0.4478658 0.372027
vt 0.4745094 0.3328545
vt 0.4776624 0.3494021
vt 0.479239 0.3488163
vt 0.4727751 0.3331474
vt 0.4781354 0.3552597
vt 0.4745094 0.3286077
vt 0.4716716 0.3294863
vt 0.4809732 0.3549669
vt 0.4669421 0.3236289
vt 0.4783105 0.3418523
vt 0.4754553 0.3422267
vt 0.4686763 0.3231895
vt 0.4796331 0.361703
vt 0.4766376 0.361703
vt 0.4733357 0.3362063
vt 0.4691491 0.3240681
vt 0.467415 0.3245075
vt 0.4758406 0.3357995
vt 0.4764013 0.3621423
vt 0.479239 0.3622155
vt 0.3989581 0.3450985
vt 0.4330464 0.316014
vt 0.4067183 0.316014
vt 0.4390373 0.3342864
vt 0.4443974 0.3724663
vt 0.3978109 0.3723931
vt 0.4723778 0.4409235
vt 0.4658742 0.4333468
vt 0.4653924 0.4356062
vt 0.4741844 0.4316186
vt 0.4565402 0.4407241
vt 0.4615084 0.4356062
vt 0.4538304 0.4269662
vt 0.4608158 0.4322834
vt 0.4652117 0.4227128
vt 0.4608158 0.4322834
vt 0.4636461 0.4312201
vt 0.4538304 0.4269662
vt 0.4741844 0.4316186
vt 0.4658742 0.4333468
vt 0.4527226 0.4391279
vt 0.4518673 0.4362893
vt 0.4530511 0.4457305
vt 0.4522769 0.4535065
vt 0.4522769 0.4534921
vt 0.4522949 0.4376944
vt 0.4530511 0.4457305
vt 0.4645869 0.4559537
vt 0.461675 0.3786237
vt 0.4611899 0.4559537
vt 0.465881 0.3786237
vt 0.4681459 0.4559537
vt 0.4696018 0.3786237
vt 0.4508364 0.4559537
vt 0.4444062 0.3786237
vt 0.4448509 0.4559537
vt 0.4511601 0.3786237
vt 0.456013 0.4559537
vt 0.4511601 0.3786237
vt 0.4508364 0.4559537
vt 0.4563366 0.3786237
vt 0.4611899 0.4559537
vt 0.461675 0.3786237
vn 0.4190127 0.6830857 0.5981824
vn 0.9849741 -0.1727018 0
vn 0.7869354 -0.1379782 0.6014105
vn 0.5228778 0.8524077 1.014644E-07
vn 0.213645 -0.9769114 -1.17029E-07
vn 0.1709474 -0.7816758 0.5997999
vn -0.8822882 -0.4707096 0
vn -0.7143009 -0.3810879 0.5869805
vn -0.5252187 0.6105561 0.5927618
vn 0.5228778 0.8524077 1.014644E-07
vn 0.4190127 0.6830857 0.5981824
vn -0.6521388 0.7580996 0
vn -0.7143009 -0.3810879 0.5869805
vn -0.6521388 0.7580996 0
vn -0.5252187 0.6105561 0.5927618
vn -0.8822882 -0.4707096 0
vn -0.2320532 0.6609414 0.7136579
vn -0.7801498 -0.5209093 0.3464386
vn -0.7854057 0.5120972 0.3476984
vn -0.2141486 -0.6701183 0.7106912
vn 0.6188507 -0.6267938 0.4734484
vn 0.6004074 0.647238 0.4696743
vn -0.4688132 0.4708925 -0.7473115
vn -0.7801498 -0.5209093 0.3464386
vn -0.4654938 -0.4762339 -0.7460006
vn -0.7854057 0.5120972 0.3476984
vn 0.5030754 -0.5668401 -0.652386
vn 0.6004074 0.647238 0.4696743
vn 0.4869111 0.5831996 -0.6502275
vn 0.6188507 -0.6267938 0.4734484
vn -0.4654938 -0.4762339 -0.7460006
vn -0.2141486 -0.6701183 0.7106912
vn -0.04807528 -0.7516305 -0.6578301
vn -0.7801498 -0.5209093 0.3464386
vn 0.6188507 -0.6267938 0.4734484
vn 0.5030754 -0.5668401 -0.652386
vn -0.07408702 0.7444794 -0.6635222
vn -0.7854057 0.5120972 0.3476984
vn -0.4688132 0.4708925 -0.7473115
vn -0.2320532 0.6609414 0.7136579
vn 0.4869111 0.5831996 -0.6502275
vn 0.6004074 0.647238 0.4696743
vn -0.04807528 -0.7516305 -0.6578301
vn -0.4688132 0.4708925 -0.7473115
vn -0.4654938 -0.4762339 -0.7460006
vn -0.07408702 0.7444794 -0.6635222
vn 0.4869111 0.5831996 -0.6502275
vn 0.5030754 -0.5668401 -0.652386
vn 0.4190127 0.6830857 0.5981824
vn 0.7869354 -0.1379782 0.6014105
vn -0.5252187 0.6105561 0.5927618
vn 0.1709474 -0.7816758 0.5997999
vn -0.7143009 -0.3810879 0.5869805
vn -0.00112752 -0.9999994 5.79855E-06
vn -5.610081E-07 -0.0004976255 -0.9999999
vn 5.829127E-07 0.0005170509 -0.9999999
vn -0.001127521 -0.9999994 5.583792E-06
vn 5.823825E-07 0.0005158649 0.9999999
vn 0.00112752 0.9999994 4.773505E-06
vn -5.610536E-07 -0.0004970292 0.9999999
vn 0.001127521 0.9999994 6.621405E-06
vn -0.00112752 -0.9999994 5.79855E-06
vn -5.610536E-07 -0.0004970292 0.9999999
vn -0.001127521 -0.9999994 5.583792E-06
vn 5.823825E-07 0.0005158649 0.9999999
vn 0.001127521 0.9999994 6.621405E-06
vn -5.610081E-07 -0.0004976255 -0.9999999
vn 0.00112752 0.9999994 4.773505E-06
vn 5.829127E-07 0.0005170509 -0.9999999
vn 0.2320532 -0.6609419 0.7136576
vn 0.7801531 0.5209091 0.3464315
vn 0.7854091 -0.5120971 0.3476913
vn 0.2141487 0.6701162 0.7106929
vn -0.6188471 0.6267962 0.4734499
vn -0.6004062 -0.6472383 0.4696753
vn 0.4688056 -0.4708931 -0.7473159
vn 0.7801531 0.5209091 0.3464315
vn 0.4654864 0.4762346 -0.7460048
vn 0.7854091 -0.5120971 0.3476913
vn -0.5030803 0.566837 -0.6523849
vn -0.6004062 -0.6472383 0.4696753
vn -0.4869122 -0.5831995 -0.6502268
vn -0.6188471 0.6267962 0.4734499
vn 0.4654864 0.4762346 -0.7460048
vn 0.2141487 0.6701162 0.7106929
vn 0.04807675 0.7516325 -0.6578277
vn 0.7801531 0.5209091 0.3464315
vn -0.6188471 0.6267962 0.4734499
vn -0.5030803 0.566837 -0.6523849
vn 0.07408641 -0.7444788 -0.6635229
vn 0.7854091 -0.5120971 0.3476913
vn 0.4688056 -0.4708931 -0.7473159
vn 0.2320532 -0.6609419 0.7136576
vn -0.4869122 -0.5831995 -0.6502268
vn -0.6004062 -0.6472383 0.4696753
vn 0.04807675 0.7516325 -0.6578277
vn 0.4688056 -0.4708931 -0.7473159
vn 0.4654864 0.4762346 -0.7460048
vn 0.07408641 -0.7444788 -0.6635229
vn -0.4869122 -0.5831995 -0.6502268
vn -0.5030803 0.566837 -0.6523849
vn 0.5035136 0.721086 0.4759294
vn 0.9401393 -0.2073006 0.2704894
vn 0.5342149 0.7995523 0.2744641
vn 0.8568982 -0.2011623 0.4746147
vn -0.5547631 0.6660134 0.4986623
vn -0.6109673 0.7363605 0.2906755
vn -0.7558493 -0.4068608 0.5129875
vn -0.8345981 -0.4642639 0.296488
vn 0.1866943 -0.8703749 0.4556235
vn -0.8345981 -0.4642639 0.296488
vn 0.1910078 -0.9475821 0.256133
vn -0.7558493 -0.4068608 0.5129875
vn 0.8568982 -0.2011623 0.4746147
vn 0.9401393 -0.2073006 0.2704894
vn 0.778228 -0.1733969 0.6035682
vn 0.1650524 -0.7805603 0.6028959
vn 0.448232 0.666577 0.59562
vn -0.517538 0.6181187 0.5916786
vn -0.517538 0.6181187 0.5916786
vn 0.1650524 -0.7805603 0.6028959
vn -0.7128935 -0.3855574 0.5857715
vn 0.448232 0.666577 0.59562
vn 0.9401393 -0.2073006 0.2704894
vn 0.778228 -0.1733969 0.6035682
vn 0.5342149 0.7995523 0.2744641
vn -0.517538 0.6181187 0.5916786
vn -0.6109673 0.7363605 0.2906755
vn -0.7128935 -0.3855574 0.5857715
vn -0.6109673 0.7363605 0.2906755
vn -0.517538 0.6181187 0.5916786
vn -0.8345981 -0.4642639 0.296488
vn 0.1650524 -0.7805603 0.6028959
vn -0.8345981 -0.4642639 0.296488
vn -0.7128935 -0.3855574 0.5857715
vn 0.1910078 -0.9475821 0.256133
vn 0.778228 -0.1733969 0.6035682
vn 0.9401393 -0.2073006 0.2704894
g XuanJueSe_luDeng01_0
f 3/3/3 2/2/2 1/1/1
f 4/4/4 1/1/1 2/2/2
f 2/2/2 3/3/3 5/5/5
f 6/6/6 5/5/5 3/3/3
f 5/5/5 6/6/6 7/7/7
f 8/8/8 7/7/7 6/6/6
f 11/11/11 10/10/10 9/9/9
f 12/12/12 9/9/9 10/10/10
f 15/15/15 14/14/14 13/13/13
f 16/16/16 13/13/13 14/14/14
f 19/19/19 18/18/18 17/17/17
f 20/20/20 17/17/17 18/18/18
f 20/20/20 21/21/21 17/17/17
f 22/22/22 17/17/17 21/21/21
f 25/25/25 24/24/24 23/23/23
f 26/26/26 23/23/23 24/24/24
f 29/29/29 28/28/28 27/27/27
f 30/30/30 27/27/27 28/28/28
f 33/33/33 32/32/32 31/31/31
f 34/34/34 31/31/31 32/32/32
f 32/32/32 33/33/33 35/35/35
f 36/36/36 35/35/35 33/33/33
f 39/39/39 38/38/38 37/37/37
f 40/40/40 37/37/37 38/38/38
f 37/37/37 40/40/40 41/41/41
f 42/42/42 41/41/41 40/40/40
f 45/45/45 44/44/44 43/43/43
f 46/46/46 43/43/43 44/44/44
f 46/46/46 47/47/47 43/43/43
f 48/48/48 43/43/43 47/47/47
f 51/51/51 50/50/50 49/49/49
f 52/52/52 50/50/50 51/51/51
f 53/53/53 52/52/52 51/51/51
f 56/56/56 55/55/55 54/54/54
f 57/57/57 54/54/54 55/55/55
f 60/60/60 59/59/59 58/58/58
f 61/61/61 58/58/58 59/59/59
f 64/64/64 63/63/63 62/62/62
f 65/65/65 62/62/62 63/63/63
f 68/68/68 67/67/67 66/66/66
f 69/69/69 66/66/66 67/67/67
f 72/72/72 71/71/71 70/70/70
f 73/73/73 70/70/70 71/71/71
f 73/73/73 74/74/74 70/70/70
f 75/75/75 70/70/70 74/74/74
f 78/78/78 77/77/77 76/76/76
f 79/79/79 76/76/76 77/77/77
f 82/82/82 81/81/81 80/80/80
f 83/83/83 80/80/80 81/81/81
f 86/86/86 85/85/85 84/84/84
f 87/87/87 84/84/84 85/85/85
f 85/85/85 86/86/86 88/88/88
f 89/89/89 88/88/88 86/86/86
f 92/92/92 91/91/91 90/90/90
f 93/93/93 90/90/90 91/91/91
f 90/90/90 93/93/93 94/94/94
f 95/95/95 94/94/94 93/93/93
f 98/98/98 97/97/97 96/96/96
f 99/99/99 96/96/96 97/97/97
f 99/99/99 100/100/100 96/96/96
f 101/101/101 96/96/96 100/100/100
f 104/104/104 103/103/103 102/102/102
f 105/105/105 102/102/102 103/103/103
f 102/102/102 106/106/106 104/104/104
f 107/107/107 104/104/104 106/106/106
f 106/106/106 108/108/108 107/107/107
f 109/109/109 107/107/107 108/108/108
f 112/112/112 111/111/111 110/110/110
f 113/113/113 110/110/110 111/111/111
f 110/110/110 114/114/114 112/112/112
f 115/115/115 112/112/112 114/114/114
f 118/118/118 117/117/117 116/116/116
f 119/119/119 117/117/117 118/118/118
f 122/122/122 121/121/121 120/120/120
f 125/125/125 124/124/124 123/123/123
f 126/126/126 123/123/123 124/124/124
f 123/123/123 126/126/126 127/127/127
f 128/128/128 127/127/127 126/126/126
f 131/131/131 130/130/130 129/129/129
f 132/132/132 129/129/129 130/130/130
f 135/135/135 134/134/134 133/133/133
f 136/136/136 133/133/133 134/134/134
f 133/133/133 136/136/136 137/137/137
f 138/138/138 137/137/137 136/136/136
