g XuanJueSe_weiLan
v 0.07744811 -1.005461 0.001150055
v -0.001600952 -1.078328 0.001150055
v 0.07620666 -1.02698 1.503073
v -0.001594849 -1.091072 1.539628
v -0.00149353 -0.9324731 0.001150055
v 0.07744811 -1.005461 0.001150055
v -0.001498413 -0.9453295 1.4584
v 0.07620666 -1.02698 1.503073
v -0.08055237 -1.005349 0.001150055
v -0.00149353 -0.9324731 0.001150055
v -0.0793158 -1.026868 1.50309
v -0.001498413 -0.9453295 1.4584
v -0.001600952 -1.078328 0.001150055
v -0.08055237 -1.005349 0.001150055
v -0.001594849 -1.091072 1.539628
v -0.0793158 -1.026868 1.50309
v 0.08055237 1.018088 1.525879E-07
v 0.001498413 0.9452221 1.525879E-07
v 0.07876281 1.024231 1.517448
v 0.001511841 0.9621411 1.436908
v 0.001602173 1.091072 1.525879E-07
v 0.08055237 1.018088 1.525879E-07
v 0.001593628 1.076863 1.579176
v 0.07876281 1.024231 1.517448
v -0.07744811 1.018206 1.525879E-07
v 0.001602173 1.091072 1.525879E-07
v -0.07565002 1.024343 1.517448
v 0.001593628 1.076863 1.579176
v 0.001498413 0.9452221 1.525879E-07
v -0.07744811 1.018206 1.525879E-07
v 0.001511841 0.9621411 1.436908
v -0.07565002 1.024343 1.517448
v 0.07614197 -0.9126538 1.591574
v -0.001532593 -0.9547827 1.650578
v 0.07860657 0.9377661 1.583765
v 0.001528931 0.9891626 1.645741
v 0.07620666 -1.02698 1.503073
v -0.001594849 -1.091072 1.539628
v 0.001593628 1.076863 1.579176
v 0.07876281 1.024231 1.517448
v -0.001434937 -0.856477 1.51759
v 0.07614197 -0.9126538 1.591574
v 0.001448364 0.8764331 1.502967
v 0.07860657 0.9377661 1.583765
v -0.001498413 -0.9453295 1.4584
v 0.07620666 -1.02698 1.503073
v 0.07876281 1.024231 1.517448
v 0.001511841 0.9621411 1.436908
v -0.07913147 -0.9125463 1.591544
v -0.001434937 -0.856477 1.51759
v -0.07561828 0.9378784 1.583765
v 0.001448364 0.8764331 1.502967
v -0.0793158 -1.026868 1.50309
v -0.001498413 -0.9453295 1.4584
v 0.001511841 0.9621411 1.436908
v -0.07565002 1.024343 1.517448
v -0.001532593 -0.9547827 1.650578
v -0.07913147 -0.9125463 1.591544
v 0.001528931 0.9891626 1.645741
v -0.07561828 0.9378784 1.583765
v -0.001594849 -1.091072 1.539628
v -0.0793158 -1.026868 1.50309
v -0.07565002 1.024343 1.517448
v 0.001593628 1.076863 1.579176
v 0.05201286 0.5800545 1.525879E-07
v -0.05462511 0.5937659 1.525879E-07
v 0.05200601 0.5800552 1.589003
v -0.05462511 0.5937659 1.589003
v 0.05716886 0.6874368 1.525879E-07
v 0.05201286 0.5800545 1.525879E-07
v 0.0571673 0.6874387 1.589003
v 0.05200601 0.5800552 1.589003
v -0.04946638 0.70116 1.525879E-07
v 0.05716886 0.6874368 1.525879E-07
v -0.04946638 0.70116 1.589003
v 0.0571673 0.6874387 1.589003
v -0.05462511 0.5937659 1.525879E-07
v -0.04946638 0.70116 1.525879E-07
v -0.05462511 0.5937659 1.589003
v -0.04946638 0.70116 1.589003
v 0.0520128 0.1662509 1.525879E-07
v -0.05462521 0.1799622 1.525879E-07
v 0.0520059 0.1662515 1.589003
v -0.05462521 0.1799622 1.589003
v 0.05716875 0.273633 1.525879E-07
v 0.0520128 0.1662509 1.525879E-07
v 0.0571672 0.2736349 1.589003
v 0.0520059 0.1662515 1.589003
v -0.04946648 0.2873562 1.525879E-07
v 0.05716875 0.273633 1.525879E-07
v -0.04946648 0.2873562 1.589003
v 0.0571672 0.2736349 1.589003
v -0.05462521 0.1799622 1.525879E-07
v -0.04946648 0.2873562 1.525879E-07
v -0.05462521 0.1799622 1.589003
v -0.04946648 0.2873562 1.589003
v 0.05201279 -0.2472501 2.288818E-07
v -0.05462521 -0.2335388 2.288818E-07
v 0.05200591 -0.2472495 1.589003
v -0.05462521 -0.2335388 1.589003
v 0.05716877 -0.1398679 1.525879E-07
v 0.05201279 -0.2472501 2.288818E-07
v 0.05716721 -0.1398661 1.589003
v 0.05200591 -0.2472495 1.589003
v -0.04946646 -0.1261447 2.288818E-07
v 0.05716877 -0.1398679 1.525879E-07
v -0.04946646 -0.1261447 1.589003
v 0.05716721 -0.1398661 1.589003
v -0.05462521 -0.2335388 2.288818E-07
v -0.04946646 -0.1261447 2.288818E-07
v -0.05462521 -0.2335388 1.589003
v -0.04946646 -0.1261447 1.589003
v 0.05201265 -0.6985734 1.525879E-07
v -0.05462541 -0.684862 1.525879E-07
v 0.05200575 -0.6985728 1.589003
v -0.05462541 -0.684862 1.589003
v 0.0571686 -0.5911912 7.629394E-08
v 0.05201265 -0.6985734 1.525879E-07
v 0.05716703 -0.5911893 1.589003
v 0.05200575 -0.6985728 1.589003
v -0.04946663 -0.577468 1.525879E-07
v 0.0571686 -0.5911912 7.629394E-08
v -0.04946663 -0.577468 1.589003
v 0.05716703 -0.5911893 1.589003
v -0.05462541 -0.684862 1.525879E-07
v -0.04946663 -0.577468 1.525879E-07
v -0.05462541 -0.684862 1.589003
v -0.04946663 -0.577468 1.589003
vt 0.396347 0.2937678
vt 0.3962404 0.299177
vt 0.477187 0.2960795
vt 0.4790748 0.3015456
vt 0.3964553 0.2882832
vt 0.396347 0.2937678
vt 0.474862 0.2905252
vt 0.477187 0.2960795
vt 0.3961348 0.3045251
vt 0.3960266 0.3100103
vt 0.4769781 0.3068371
vt 0.474437 0.3122527
vt 0.3962404 0.299177
vt 0.3961348 0.3045251
vt 0.4790748 0.3015456
vt 0.4769781 0.3068371
vt 0.3961348 0.3045251
vt 0.3960266 0.3100103
vt 0.4775872 0.3068544
vt 0.4731899 0.3122171
vt 0.3962404 0.299177
vt 0.3961348 0.3045251
vt 0.4809833 0.3016004
vt 0.4775872 0.3068544
vt 0.396347 0.2937678
vt 0.3962404 0.299177
vt 0.4778001 0.296097
vt 0.4809833 0.3016004
vt 0.3964553 0.2882832
vt 0.396347 0.2937678
vt 0.473621 0.2904898
vt 0.4778001 0.296097
vt 0.4058616 0.2940397
vt 0.4044261 0.299411
vt 0.4919975 0.296503
vt 0.4939688 0.3019715
vt 0.3988904 0.2938403
vt 0.396897 0.2991956
vt 0.4985207 0.3021017
vt 0.4964599 0.2966304
vt 0.4081614 0.2886178
vt 0.4058616 0.2940397
vt 0.4892129 0.2909357
vt 0.4919975 0.296503
vt 0.4027673 0.2884635
vt 0.3988904 0.2938403
vt 0.4964599 0.2966304
vt 0.4938891 0.2910695
vt 0.4058279 0.3048022
vt 0.4082064 0.3103589
vt 0.4919182 0.3072642
vt 0.4892378 0.3126759
vt 0.3997212 0.3046276
vt 0.40334 0.3102193
vt 0.4944215 0.3128242
vt 0.4971918 0.307415
vt 0.4044261 0.299411
vt 0.4058279 0.3048022
vt 0.4939688 0.3019715
vt 0.4919182 0.3072642
vt 0.396897 0.2991956
vt 0.3997212 0.3046276
vt 0.4971918 0.307415
vt 0.4985207 0.3021017
vt 0.4822167 0.2962231
vt 0.4823247 0.2907387
vt 0.396347 0.2937678
vt 0.3964553 0.2882832
vt 0.48211 0.3016325
vt 0.4822167 0.2962231
vt 0.3962404 0.299177
vt 0.396347 0.2937678
vt 0.4820045 0.3069806
vt 0.48211 0.3016325
vt 0.3961348 0.3045251
vt 0.3962404 0.299177
vt 0.4818962 0.3124659
vt 0.4820045 0.3069806
vt 0.3960266 0.3100103
vt 0.3961348 0.3045251
vt 0.4822167 0.2962231
vt 0.4823247 0.2907387
vt 0.396347 0.2937678
vt 0.3964553 0.2882832
vt 0.48211 0.3016325
vt 0.4822167 0.2962231
vt 0.3962404 0.299177
vt 0.396347 0.2937678
vt 0.4820045 0.3069806
vt 0.48211 0.3016325
vt 0.3961348 0.3045251
vt 0.3962404 0.299177
vt 0.4818962 0.3124659
vt 0.4820045 0.3069806
vt 0.3960266 0.3100103
vt 0.3961348 0.3045251
vt 0.4822167 0.2962231
vt 0.4823247 0.2907387
vt 0.396347 0.2937678
vt 0.3964553 0.2882832
vt 0.48211 0.3016325
vt 0.4822167 0.2962231
vt 0.3962404 0.299177
vt 0.396347 0.2937678
vt 0.4820045 0.3069806
vt 0.48211 0.3016325
vt 0.3961348 0.3045251
vt 0.3962404 0.299177
vt 0.4818962 0.3124659
vt 0.4820045 0.3069806
vt 0.3960266 0.3100103
vt 0.3961348 0.3045251
vt 0.4822167 0.2962231
vt 0.4823247 0.2907387
vt 0.396347 0.2937678
vt 0.3964553 0.2882832
vt 0.48211 0.3016325
vt 0.4822167 0.2962231
vt 0.3962404 0.299177
vt 0.396347 0.2937678
vt 0.4820045 0.3069806
vt 0.48211 0.3016325
vt 0.3961348 0.3045251
vt 0.3962404 0.299177
vt 0.4818962 0.3124659
vt 0.4820045 0.3069806
vt 0.3960266 0.3100103
vt 0.3961348 0.3045251
vn 0.6776145 -0.7353497 -0.009972411
vn 0.6758774 -0.7369485 -0.009822167
vn 0.6911957 -0.6592444 0.2960495
vn 0.6870888 -0.6536357 0.317284
vn 0.6790075 0.7341027 0.006481139
vn 0.6809258 0.7323219 0.006676299
vn 0.7745921 0.5697491 -0.2745779
vn 0.7675582 0.5754302 -0.2823729
vn -0.6776322 0.7353172 0.01108932
vn -0.6799132 0.7332122 0.01085516
vn -0.773394 0.5653119 -0.286852
vn -0.7666315 0.5690198 -0.2974768
vn -0.6789594 -0.7341506 -0.0060821
vn -0.676816 -0.7361256 -0.006266484
vn -0.6934791 -0.6468363 0.317316
vn -0.6874204 -0.6597711 0.303571
vn 0.6776692 -0.7353573 0.003775112
vn 0.6752647 -0.7375646 0.004001054
vn 0.7744696 -0.5463254 -0.3189442
vn 0.7327712 -0.6499866 -0.2014043
vn 0.6789716 0.7341349 0.006612333
vn 0.6748644 0.7379153 0.006264984
vn 0.7054248 0.6140788 0.3539535
vn 0.6734447 0.6966702 0.2472302
vn -0.6776723 0.7353607 -0.002170582
vn -0.6735193 0.7391675 -0.001793803
vn -0.6760135 0.6919876 0.2532964
vn -0.7036148 0.6143106 0.3571396
vn -0.6789649 -0.7341196 0.008654037
vn -0.6765984 -0.7363039 0.00844576
vn -0.7359388 -0.6454365 -0.2044645
vn -0.7744142 -0.5446597 -0.3219137
vn 0.6598763 -0.2044029 0.7230372
vn 0.6663997 -0.2678063 0.6958386
vn 0.6878856 0.186067 0.7015643
vn 0.7038734 0.2564233 0.6624269
vn 0.6911957 -0.6592444 0.2960495
vn 0.6870888 -0.6536357 0.317284
vn 0.7054248 0.6140788 0.3539535
vn 0.6734447 0.6966702 0.2472302
vn 0.7369578 0.1502638 -0.6590251
vn 0.744309 0.2303087 -0.6268668
vn 0.7723637 -0.165513 -0.6132371
vn 0.7848253 -0.2259396 -0.577062
vn 0.7745921 0.5697491 -0.2745779
vn 0.7675582 0.5754302 -0.2823729
vn 0.7744696 -0.5463254 -0.3189442
vn 0.7327712 -0.6499866 -0.2014043
vn -0.7542536 0.2380498 -0.6119101
vn -0.7330359 0.1678409 -0.659157
vn -0.7840972 -0.2257574 -0.5781221
vn -0.7734764 -0.1655436 -0.6118247
vn -0.773394 0.5653119 -0.286852
vn -0.7666315 0.5690198 -0.2974768
vn -0.7359388 -0.6454365 -0.2044645
vn -0.7744142 -0.5446597 -0.3219137
vn -0.6717941 -0.270097 0.6897392
vn -0.6586913 -0.2114377 0.722094
vn -0.7035632 0.2585227 0.6619402
vn -0.6882777 0.1891989 0.700341
vn -0.6934791 -0.6468363 0.317316
vn -0.6874204 -0.6597711 0.303571
vn -0.6760135 0.6919876 0.2532964
vn -0.7036148 0.6143106 0.3571396
vn -0.1275084 -0.9918376 -1.686231E-07
vn -0.1275084 -0.9918376 -1.61347E-07
vn -0.1275553 -0.9918315 0
vn -0.1275553 -0.9918315 0
vn 0.9988441 -0.04806583 1.038475E-06
vn 0.9988441 -0.04806583 1.17963E-06
vn 0.9988441 -0.04806583 0
vn 0.9988441 -0.04806583 0
vn 0.1276491 0.9918194 0
vn 0.1276491 0.9918194 0
vn 0.1276491 0.9918194 0
vn 0.1276021 0.9918253 0
vn -0.9988441 0.04806583 0
vn -0.9988441 0.04806583 0
vn -0.9988441 0.04806583 0
vn -0.9988441 0.04806583 0
vn -0.1275084 -0.9918376 -1.847214E-07
vn -0.1275084 -0.9918376 -1.767177E-07
vn -0.1275553 -0.9918315 0
vn -0.1275553 -0.9918315 0
vn 0.9988533 -0.04787553 1.029935E-06
vn 0.9988533 -0.04787553 1.173093E-06
vn 0.9988441 -0.04806583 0
vn 0.9988441 -0.04806583 0
vn 0.1276491 0.9918194 0
vn 0.1276491 0.9918194 0
vn 0.1276491 0.9918194 0
vn 0.1276021 0.9918253 0
vn -0.9988441 0.04806583 0
vn -0.9988441 0.04806583 0
vn -0.9988441 0.04806583 0
vn -0.9988441 0.04806583 0
vn -0.1275084 -0.9918376 -1.828114E-07
vn -0.1275084 -0.9918376 -1.749897E-07
vn -0.1275553 -0.9918315 0
vn -0.1275553 -0.9918315 0
vn 0.9988488 -0.04797068 1.039207E-06
vn 0.9988533 -0.04787553 1.181278E-06
vn 0.9988488 -0.04797068 0
vn 0.9988441 -0.04806583 0
vn 0.1276491 0.9918194 0
vn 0.1276491 0.9918194 0
vn 0.1276491 0.9918194 0
vn 0.1276021 0.9918253 0
vn -0.9988441 0.04806583 0
vn -0.9988488 0.04797068 0
vn -0.9988441 0.04806583 0
vn -0.9988488 0.04797068 0
vn -0.1275084 -0.9918376 -1.255123E-07
vn -0.1275084 -0.9918376 -1.201462E-07
vn -0.1275553 -0.9918315 0
vn -0.1275553 -0.9918315 0
vn 0.9988441 -0.04806583 1.040749E-06
vn 0.9988441 -0.04806583 1.18345E-06
vn 0.9988441 -0.04806583 0
vn 0.9988441 -0.04806583 0
vn 0.1276491 0.9918194 0
vn 0.1276491 0.9918194 0
vn 0.1276491 0.9918194 0
vn 0.1276021 0.9918253 0
vn -0.9988441 0.04806583 0
vn -0.9988441 0.04806583 0
vn -0.9988441 0.04806583 0
vn -0.9988441 0.04806583 0
g XuanJueSe_weiLan_0
f 3/3/3 2/2/2 1/1/1
f 2/2/2 3/3/3 4/4/4
f 7/7/7 6/6/6 5/5/5
f 6/6/6 7/7/7 8/8/8
f 11/11/11 10/10/10 9/9/9
f 10/10/10 11/11/11 12/12/12
f 15/15/15 14/14/14 13/13/13
f 14/14/14 15/15/15 16/16/16
f 19/19/19 18/18/18 17/17/17
f 18/18/18 19/19/19 20/20/20
f 23/23/23 22/22/22 21/21/21
f 22/22/22 23/23/23 24/24/24
f 27/27/27 26/26/26 25/25/25
f 26/26/26 27/27/27 28/28/28
f 31/31/31 30/30/30 29/29/29
f 30/30/30 31/31/31 32/32/32
f 35/35/35 34/34/34 33/33/33
f 34/34/34 35/35/35 36/36/36
f 34/34/34 37/37/37 33/33/33
f 37/37/37 34/34/34 38/38/38
f 35/35/35 39/39/39 36/36/36
f 39/39/39 35/35/35 40/40/40
f 43/43/43 42/42/42 41/41/41
f 42/42/42 43/43/43 44/44/44
f 42/42/42 45/45/45 41/41/41
f 45/45/45 42/42/42 46/46/46
f 43/43/43 47/47/47 44/44/44
f 47/47/47 43/43/43 48/48/48
f 51/51/51 50/50/50 49/49/49
f 50/50/50 51/51/51 52/52/52
f 50/50/50 53/53/53 49/49/49
f 53/53/53 50/50/50 54/54/54
f 51/51/51 55/55/55 52/52/52
f 55/55/55 51/51/51 56/56/56
f 59/59/59 58/58/58 57/57/57
f 58/58/58 59/59/59 60/60/60
f 58/58/58 61/61/61 57/57/57
f 61/61/61 58/58/58 62/62/62
f 59/59/59 63/63/63 60/60/60
f 63/63/63 59/59/59 64/64/64
f 67/67/67 66/66/66 65/65/65
f 66/66/66 67/67/67 68/68/68
f 71/71/71 70/70/70 69/69/69
f 70/70/70 71/71/71 72/72/72
f 75/75/75 74/74/74 73/73/73
f 74/74/74 75/75/75 76/76/76
f 79/79/79 78/78/78 77/77/77
f 78/78/78 79/79/79 80/80/80
f 83/83/83 82/82/82 81/81/81
f 82/82/82 83/83/83 84/84/84
f 87/87/87 86/86/86 85/85/85
f 86/86/86 87/87/87 88/88/88
f 91/91/91 90/90/90 89/89/89
f 90/90/90 91/91/91 92/92/92
f 95/95/95 94/94/94 93/93/93
f 94/94/94 95/95/95 96/96/96
f 99/99/99 98/98/98 97/97/97
f 98/98/98 99/99/99 100/100/100
f 103/103/103 102/102/102 101/101/101
f 102/102/102 103/103/103 104/104/104
f 107/107/107 106/106/106 105/105/105
f 106/106/106 107/107/107 108/108/108
f 111/111/111 110/110/110 109/109/109
f 110/110/110 111/111/111 112/112/112
f 115/115/115 114/114/114 113/113/113
f 114/114/114 115/115/115 116/116/116
f 119/119/119 118/118/118 117/117/117
f 118/118/118 119/119/119 120/120/120
f 123/123/123 122/122/122 121/121/121
f 122/122/122 123/123/123 124/124/124
f 127/127/127 126/126/126 125/125/125
f 126/126/126 127/127/127 128/128/128
