g XuanJueSe_yuanJing
v -26.98586 4.656005E-06 2.480623
v -45.18953 6.131999E-06 0.0001708984
v -30.53843 4.073822E-06 2.452946
v 44.84717 6.132048E-06 -0.000161438
v -40.8627 4.015209E-06 6.967776
v -40.82394 3.031735E-06 13.39893
v -45.1889 2.724364E-06 15.48068
v -43.4912 2.719504E-06 15.5136
v -39.27841 4.014183E-06 6.974734
v -30.53844 4.073822E-06 10.72141
v -36.87853 3.792358E-06 8.402005
v -36.88992 3.195751E-06 12.50838
v -31.16966 3.400258E-06 11.31265
v -35.00229 3.05547E-06 13.45847
v -31.85899 2.671742E-06 16.05738
v -31.32527 2.787299E-06 15.27473
v -34.96845 2.690345E-06 15.93139
v -39.24453 3.796978E-06 8.370712
v 43.22678 4.01397E-06 6.904113
v 44.84793 4.035408E-06 6.758914
v 37.00172 4.137107E-06 5.887911
v 37.26651 3.440769E-06 10.81757
v 40.44078 3.320959E-06 11.62902
v 42.17327 3.723925E-06 9.120529
v 35.09206 4.149521E-06 5.803832
v -24.38861 4.56649E-06 3.19617
v -25.99094 4.583385E-06 3.081735
v 23.08958 3.935677E-06 7.686382
v 31.13642 2.834958E-06 14.9528
v 35.13776 2.854747E-06 14.81876
v 28.06799 2.273735E-06 18.71762
v 23.22586 1.798696E-06 22.15969
v 23.74229 1.704128E-06 22.80018
v 27.48157 1.756315E-06 22.44673
v 27.43496 1.089723E-06 26.96141
v 23.82837 9.908515E-07 26.92489
v 24.42001 9.015977E-07 27.52939
v 25.01688 6.588257E-07 29.68624
v 26.91169 6.511982E-07 29.7379
v 31.11288 2.413847E-06 17.76866
v -9.648765 3.939334E-06 7.327679
v -11.1944 3.730688E-06 8.816463
v 19.37795 3.834581E-06 8.371084
v 5.612521 3.386006E-06 11.12314
v 0.002693348 2.806806E-06 15.07195
v -3.811761 2.80062E-06 15.11384
v -4.540932 2.330165E-06 18.56017
v -3.806287 2.392622E-06 18.13715
v 5.334979 1.503658E-06 24.15791
v 2.614456 1.498532E-06 24.19263
v 0.0180955 1.528421E-06 23.99021
v -9.751624 1.436802E-06 24.34493
v -4.686976 2.055963E-06 20.41727
v -8.154567 1.472848E-06 24.10079
v 7.31486 3.408092E-06 10.97356
v 15.32806 2.440477E-06 17.14858
v 16.4319 2.445312E-06 17.11584
v 15.23818 1.722712E-06 22.67431
v 7.438188 9.935233E-07 27.49397
v 14.69404 1.547122E-06 23.63479
v 11.74092 9.141996E-07 28.03121
v 12.00756 4.546469E-07 30.95699
v 14.6677 6.194163E-07 29.84104
v 0.5369762 1.413913E-06 24.45749
v 2.259587 1.37971E-06 24.68884
v 18.76905 2.176972E-06 19.44395
v 16.93705 2.161893E-06 19.54608
v 19.3936 2.546152E-06 17.09733
v 21.77913 3.852035E-06 8.252873
v -15.32756 2.045997E-06 20.21953
v -17.78559 2.887788E-06 14.52179
v -17.6115 2.173751E-06 19.61953
v -12.90522 3.021277E-06 13.87941
v -12.97738 2.254407E-06 18.80801
v -19.88609 2.878336E-06 14.5858
v -22.70442 2.362033E-06 18.11465
v -24.31343 2.19295E-06 19.07522
v -20.05969 2.360176E-06 18.12722
v -11.34275 3.239872E-06 12.39892
v 41.97373 3.353762E-06 11.62756
vt 0.2045977 0.05467004
vt 0.003790255 0.003171644
vt 0.1643301 0.0540268
vt 0.9969333 0.003141705
vt 0.05152225 0.1527445
vt 0.05194454 0.2933867
vt 0.003797357 0.3390029
vt 0.02252329 0.339648
vt 0.06899057 0.1528436
vt 0.1663943 0.2347715
vt 0.09546211 0.1840651
vt 0.0953361 0.2738992
vt 0.1584327 0.2477482
vt 0.1161569 0.2946836
vt 0.1508281 0.3515401
vt 0.1567152 0.3344181
vt 0.11653 0.3487838
vt 0.06936477 0.1833809
vt 0.9790462 0.151307
vt 0.9969318 0.148221
vt 0.9103985 0.1291609
vt 0.9133044 0.2369192
vt 0.9483167 0.2546674
vt 0.9674264 0.1997886
vt 0.889328 0.1273034
vt 0.2332236 0.07019357
vt 0.2155366 0.06768725
vt 0.7569238 0.1684165
vt 0.8456839 0.3273844
vt 0.889819 0.3244518
vt 0.8118409 0.4097493
vt 0.7584324 0.485053
vt 0.7641324 0.4990667
vt 0.8053774 0.4913344
vt 0.8048665 0.5901054
vt 0.7650844 0.5893051
vt 0.7716112 0.6025312
vt 0.7781956 0.6497177
vt 0.7990958 0.6508477
vt 0.8454249 0.388988
vt 0.395805 0.1605704
vt 0.3787595 0.1931386
vt 0.7159762 0.1833975
vt 0.5641379 0.2436053
vt 0.5022593 0.3299943
vt 0.4601872 0.3309093
vt 0.4521445 0.4063049
vt 0.4602479 0.3970506
vt 0.5610753 0.5287693
vt 0.5310668 0.529529
vt 0.5024281 0.5251011
vt 0.3946693 0.5328589
vt 0.4505333 0.4469336
vt 0.412285 0.5275182
vt 0.5829142 0.2403332
vt 0.6713011 0.3754255
vt 0.6834776 0.3747085
vt 0.6703081 0.4963141
vt 0.5842716 0.6017552
vt 0.6643051 0.517328
vt 0.6317309 0.6135095
vt 0.6346717 0.6775175
vt 0.6640136 0.6531038
vt 0.5081514 0.5353239
vt 0.5271522 0.5403851
vt 0.7092563 0.4256409
vt 0.6890489 0.4278752
vt 0.7161459 0.3743033
vt 0.7424656 0.1808106
vt 0.3331702 0.4426032
vt 0.3060575 0.3179534
vt 0.3079777 0.4294768
vt 0.3598892 0.3038997
vt 0.3590932 0.4117231
vt 0.2828891 0.3193541
vt 0.2518023 0.396555
vt 0.2340547 0.4175701
vt 0.2809739 0.3968298
vt 0.3771238 0.2715112
vt 0.9652255 0.2546354
vn 0 -1 -5.705317E-07
vn 0 -1 -2.86282E-07
vn 1.02294E-07 -1 -1.234997E-06
vn 0 -1 -3.181729E-07
vn -1.710041E-07 -1 -1.721066E-07
vn 0 -1 -2.033235E-07
vn 0 -1 -1.989577E-07
vn 0 -1 -1.476493E-07
vn 0 -1 0
vn 0 -1 -3.448335E-07
vn 1.90733E-07 -1 -4.308077E-07
vn 0 -1 -1.908044E-07
vn -1.714576E-07 -1 -9.90061E-07
vn 0 -1 -1.526523E-07
vn 0 -1 -1.517783E-07
vn 0 -1 -1.551378E-07
vn 0 -1 -1.476496E-07
vn 0 -1 -1.555961E-07
vn 0 -1 -2.530828E-07
vn 0 -1 -3.101946E-07
vn 0 -1 -2.684212E-07
vn 0 -1 -1.438124E-07
vn 0 -1 -1.444939E-07
vn 1.207655E-07 -1 0
vn 0 -1 -2.63434E-07
vn 0 -1 -1.281312E-07
vn 0 -1 -1.172104E-07
vn 0 -1 -1.33857E-07
vn 0 -1 -1.47327E-07
vn 0 -1 -1.436261E-07
vn 0 -1 -1.470089E-07
vn 0 -1 -1.454796E-07
vn 0 -1 -1.494985E-07
vn 0 -1 -1.426461E-07
vn 0 -1 -1.533037E-07
vn 0 -1 -1.744224E-07
vn 0 -1 -1.546807E-07
vn 0 -1 -1.395003E-07
vn 0 -1 -1.578896E-07
vn 0 -1 -1.495542E-07
vn 0 -1 -1.515468E-07
vn 0 -1 -1.430463E-07
vn 0 -1 -1.455735E-07
vn 0 -1 -1.50818E-07
vn 0 -1 -1.453517E-07
vn 0 -1 -1.420514E-07
vn 0 -1 -1.43256E-07
vn 0 -1 -1.349637E-07
vn 0 -1 -1.43772E-07
vn 0 -1 -1.667367E-07
vn 0 -1 -1.748756E-07
vn 0 -1 -1.517118E-07
vn 0 -1 -1.478297E-07
vn 0 -1 -1.600952E-07
vn 0 -1 -1.65468E-07
vn 0 -1 -1.451512E-07
vn 0 -1 -1.486873E-07
vn 0 -1 -1.526706E-07
vn 0 -1 -1.47521E-07
vn 0 -1 -1.846398E-07
vn 0 -1 -1.504033E-07
vn 0 -1 -1.515899E-07
vn 0 -1 -1.494826E-07
vn 0 -1 -2.519434E-07
vn 0 -1 -2.314297E-07
vn 0 -1 -1.344842E-07
vn 0 -1 -1.169775E-07
vn 0 -1 -1.480716E-07
vn 0 -1 -1.476501E-07
vn 0 -1 -1.478304E-07
vn 0 -1 -1.466355E-07
vn 0 -1 -1.394099E-07
vn 0 -1 -1.42402E-07
vn 0 -1 -1.556664E-07
vn 0 -1 -1.475898E-07
vn 0 -1 -1.483397E-07
vn 0 -1 -1.49551E-07
vn 0 -1 -1.463145E-07
vn 0 -1 -1.365708E-07
vn 0 -1 -1.459576E-07
g XuanJueSe_yuanJing_0
f 3/3/3 2/2/2 1/1/1
f 4/4/4 1/1/1 2/2/2
f 2/2/2 3/3/3 5/5/5
f 6/6/6 2/2/2 5/5/5
f 7/7/7 2/2/2 6/6/6
f 8/8/8 7/7/7 6/6/6
f 9/9/9 5/5/5 3/3/3
f 3/3/3 10/10/10 9/9/9
f 11/11/11 9/9/9 10/10/10
f 11/11/11 10/10/10 12/12/12
f 13/13/13 12/12/12 10/10/10
f 14/14/14 12/12/12 13/13/13
f 15/15/15 14/14/14 13/13/13
f 16/16/16 15/15/15 13/13/13
f 17/17/17 14/14/14 15/15/15
f 18/18/18 9/9/9 11/11/11
f 20/20/20 19/19/19 4/4/4
f 21/21/21 4/4/4 19/19/19
f 22/22/22 21/21/21 19/19/19
f 23/23/23 22/22/22 19/19/19
f 24/24/24 23/23/23 19/19/19
f 21/21/21 25/25/25 4/4/4
f 25/25/25 1/1/1 4/4/4
f 26/26/26 1/1/1 25/25/25
f 27/27/27 1/1/1 26/26/26
f 28/28/28 26/26/26 25/25/25
f 28/28/28 25/25/25 29/29/29
f 30/30/30 29/29/29 25/25/25
f 28/28/28 29/29/29 31/31/31
f 32/32/32 28/28/28 31/31/31
f 32/32/32 31/31/31 33/33/33
f 34/34/34 33/33/33 31/31/31
f 34/34/34 35/35/35 33/33/33
f 36/36/36 33/33/33 35/35/35
f 37/37/37 36/36/36 35/35/35
f 37/37/37 35/35/35 38/38/38
f 39/39/39 38/38/38 35/35/35
f 40/40/40 31/31/31 29/29/29
f 26/26/26 28/28/28 41/41/41
f 42/42/42 26/26/26 41/41/41
f 43/43/43 41/41/41 28/28/28
f 41/41/41 43/43/43 44/44/44
f 44/44/44 45/45/45 41/41/41
f 46/46/46 41/41/41 45/45/45
f 41/41/41 46/46/46 47/47/47
f 48/48/48 47/47/47 46/46/46
f 44/44/44 49/49/49 45/45/45
f 50/50/50 45/45/45 49/49/49
f 51/51/51 45/45/45 50/50/50
f 52/52/52 41/41/41 47/47/47
f 47/47/47 53/53/53 52/52/52
f 54/54/54 52/52/52 53/53/53
f 55/55/55 44/44/44 43/43/43
f 55/55/55 43/43/43 56/56/56
f 57/57/57 56/56/56 43/43/43
f 58/58/58 55/55/55 56/56/56
f 59/59/59 55/55/55 58/58/58
f 60/60/60 59/59/59 58/58/58
f 61/61/61 59/59/59 60/60/60
f 61/61/61 60/60/60 62/62/62
f 63/63/63 62/62/62 60/60/60
f 51/51/51 50/50/50 64/64/64
f 65/65/65 64/64/64 50/50/50
f 67/67/67 57/57/57 66/66/66
f 68/68/68 66/66/66 57/57/57
f 68/68/68 57/57/57 43/43/43
f 69/69/69 43/43/43 28/28/28
f 72/72/72 71/71/71 70/70/70
f 73/73/73 70/70/70 71/71/71
f 74/74/74 70/70/70 73/73/73
f 71/71/71 42/42/42 73/73/73
f 71/71/71 75/75/75 42/42/42
f 26/26/26 42/42/42 75/75/75
f 75/75/75 76/76/76 26/26/26
f 77/77/77 26/26/26 76/76/76
f 78/78/78 76/76/76 75/75/75
f 79/79/79 73/73/73 42/42/42
f 80/80/80 23/23/23 24/24/24
