g XuanJueSe_jianZhu03
v 6.218148 -10.85094 -0.1970532
v -6.415234 -10.85094 1.15204
v 6.218148 -10.85095 1.15204
v -6.415236 -10.85094 -0.1970532
v 6.218146 -3.735388 1.15204
v 6.218148 -6.500361 3.454558
v 6.218148 -3.735386 3.454558
v 6.218147 -3.735386 -0.1970532
v 6.218147 -6.500361 1.15204
v 6.218147 -6.500361 -0.1970532
v 6.218148 -10.85095 3.454558
v 6.218147 -6.500361 1.15204
v 6.218148 -10.85095 1.15204
v 6.218148 -6.500361 3.454558
v 6.218146 6.068639 2.723407
v 6.218144 8.681503 1.15204
v 6.218143 6.068639 1.15204
v 6.218147 8.681503 2.723407
v 6.218148 -3.735386 3.454558
v 6.218143 -0.2715346 1.15204
v 6.218146 -3.735388 1.15204
v 6.218146 -0.2715346 2.723406
v 6.218148 -0.2715346 3.454558
v 6.218146 -0.2715346 2.723406
v 6.218143 2.345564 1.15204
v 6.218143 -0.2715346 1.15204
v 6.218146 2.345564 2.723406
v 6.218146 2.345564 2.723406
v 6.218143 6.068639 1.15204
v 6.218143 2.345564 1.15204
v 6.218146 6.068639 2.723407
v 6.218148 2.345564 3.454558
v 6.218148 6.068639 3.454558
v 6.218143 10.44931 1.15204
v 6.218147 8.681503 2.723407
v 6.218146 10.44931 2.723407
v 6.218144 8.681503 1.15204
v 6.218148 8.681503 3.454558
v 6.218148 10.44931 3.454558
v 6.218146 -3.735388 1.15204
v 6.218146 -0.2715346 -0.1970532
v 6.218147 -3.735386 -0.1970532
v 6.218143 -0.2715346 1.15204
v 6.218143 2.345564 1.15204
v 6.218146 -0.2715346 -0.1970532
v 6.218143 -0.2715346 1.15204
v 6.218146 2.345564 -0.1970532
v 6.218143 2.345564 1.15204
v 6.218146 6.068639 -0.1970532
v 6.218146 2.345564 -0.1970532
v 6.218143 6.068639 1.15204
v 6.218143 6.068639 1.15204
v 6.218146 8.681503 -0.1970532
v 6.218146 6.068639 -0.1970532
v 6.218144 8.681503 1.15204
v 6.218144 8.681503 1.15204
v 6.218146 10.44931 -0.1970532
v 6.218146 8.681503 -0.1970532
v 6.218143 10.44931 1.15204
v 6.218148 -10.85095 3.454558
v -6.415234 -10.85094 1.15204
v -6.415233 -10.85094 3.454558
v 6.218148 -10.85095 1.15204
v 6.218148 -10.85094 -0.1970532
v 6.218147 -6.500361 1.15204
v 6.218147 -6.500361 -0.1970532
v 6.218148 -10.85095 1.15204
v 6.218146 2.345564 2.723406
v 6.218148 -0.2715346 3.454558
v 6.218148 2.345564 3.454558
v 6.218146 -0.2715346 2.723406
v 6.218146 6.068639 2.723407
v 6.218148 8.681503 3.454558
v 6.218147 8.681503 2.723407
v 6.218148 6.068639 3.454558
v 6.515022 -11.12701 4.35815
v -6.589319 -11.12701 4.093767
v -6.589321 -11.12701 4.35815
v 6.515022 -11.12701 4.093768
v -6.415232 -10.72547 4.093769
v 6.515022 -11.12701 4.093768
v 6.141191 -10.72547 4.093769
v -6.589319 -11.12701 4.093767
v 6.141191 -10.72547 4.093769
v 6.535693 10.44931 4.093768
v 6.14119 10.44931 4.093769
v 6.515022 -11.12701 4.093768
v 6.515022 -11.12701 4.35815
v 6.535693 10.44931 4.093768
v 6.515022 -11.12701 4.093768
v 6.535693 10.44931 4.35815
v 6.515022 -11.12701 3.682938
v -6.589318 -11.12701 3.418555
v -6.58932 -11.12701 3.682938
v 6.515022 -11.12701 3.418556
v 6.141191 -10.72547 3.682938
v -6.58932 -11.12701 3.682938
v -6.415231 -10.72547 3.682938
v 6.515022 -11.12701 3.682938
v -6.415231 -10.72546 3.418557
v 6.515022 -11.12701 3.418556
v 6.141191 -10.72547 3.418557
v -6.589318 -11.12701 3.418555
v 6.141191 -10.72547 3.418557
v 6.535693 10.44931 3.418556
v 6.14119 10.44931 3.418557
v 6.515022 -11.12701 3.418556
v 6.515022 -11.12701 3.682938
v 6.535693 10.44931 3.418556
v 6.515022 -11.12701 3.418556
v 6.535693 10.44931 3.682938
v 6.14119 10.44931 3.682938
v 6.515022 -11.12701 3.682938
v 6.141191 -10.72547 3.682938
v 6.535693 10.44931 3.682938
v 6.14119 -1.848931 3.670833
v 6.14119 2.250479 4.137412
v 6.14119 2.250483 3.666021
v 6.14119 -1.848938 4.137412
v 6.141191 -10.72547 4.137412
v -6.415232 -10.72546 3.680457
v -6.415231 -10.72546 4.137412
v 6.14119 -10.72546 3.680457
v 6.14119 6.349897 3.661209
v 6.14119 10.4493 4.137412
v 6.14119 10.44931 3.656397
v 6.14119 6.349893 4.137412
v 6.14119 2.250483 3.666021
v 6.14119 6.349893 4.137412
v 6.14119 6.349897 3.661209
v 6.14119 2.250479 4.137412
v 6.141191 -5.948349 4.137412
v 6.14119 -10.72546 3.680457
v 6.141191 -10.72547 4.137412
v 6.14119 -5.948345 3.675645
v 6.14119 -1.848938 4.137412
v 6.14119 -5.948345 3.675645
v 6.141191 -5.948349 4.137412
v 6.14119 -1.848931 3.670833
v 6.515022 -11.12701 6.277372
v -6.589319 -11.12701 6.541754
v 6.515022 -11.12701 6.541753
v -6.589321 -11.12701 6.277372
v -6.415232 -10.72547 6.541753
v 6.515022 -11.12701 6.541753
v -6.589319 -11.12701 6.541754
v 6.141191 -10.72547 6.541753
v 6.141191 -10.72547 6.541753
v 6.535693 10.44931 6.541753
v 6.515022 -11.12701 6.541753
v 6.14119 10.44931 6.541753
v 6.515022 -11.12701 6.277372
v 6.535693 10.44931 6.541753
v 6.535693 10.44931 6.277372
v 6.515022 -11.12701 6.541753
v 6.515022 -11.12701 6.952583
v -6.589318 -11.12701 7.216967
v 6.515022 -11.12701 7.216964
v -6.58932 -11.12701 6.952583
v 6.141191 -10.72547 6.952583
v -6.58932 -11.12701 6.952583
v 6.515022 -11.12701 6.952583
v -6.415231 -10.72547 6.952583
v -6.415231 -10.72546 7.216964
v 6.515022 -11.12701 7.216964
v -6.589318 -11.12701 7.216967
v 6.141191 -10.72547 7.216964
v 6.141191 -10.72547 7.216964
v 6.535693 10.44931 7.216964
v 6.515022 -11.12701 7.216964
v 6.14119 10.44931 7.216964
v 6.515022 -11.12701 6.952583
v 6.535693 10.44931 7.216964
v 6.535693 10.44931 6.952584
v 6.515022 -11.12701 7.216964
v 6.14119 10.44931 6.952584
v 6.515022 -11.12701 6.952583
v 6.535693 10.44931 6.952584
v 6.141191 -10.72547 6.952583
v 6.14119 -1.848931 6.964687
v 6.14119 2.250479 6.498109
v 6.14119 -1.848938 6.498109
v 6.14119 2.250483 6.9695
v 6.141191 -10.72547 6.498109
v -6.415232 -10.72546 6.955065
v 6.14119 -10.72546 6.955065
v -6.415231 -10.72546 6.498109
v 6.14119 6.349897 6.974311
v 6.14119 10.4493 6.498109
v 6.14119 6.349893 6.498109
v 6.14119 10.44931 6.979124
v 6.14119 2.250483 6.9695
v 6.14119 6.349893 6.498109
v 6.14119 2.250479 6.498109
v 6.14119 6.349897 6.974311
v 6.141191 -5.948349 6.498109
v 6.14119 -10.72546 6.955065
v 6.14119 -5.948345 6.959875
v 6.141191 -10.72547 6.498109
v 6.14119 -1.848938 6.498109
v 6.14119 -5.948345 6.959875
v 6.14119 -1.848931 6.964687
v 6.141191 -5.948349 6.498109
v 6.161645 -4.803166 17.4471
v 6.161644 -10.72029 17.44711
v 2.180679 -10.72029 17.44711
v 6.161645 0.5698047 17.4471
v -1.800288 -10.72029 17.44711
v 6.161645 5.942771 17.4471
v -6.323467 -10.72028 17.44711
v -6.323465 11.31574 17.4471
v 6.161645 11.31574 17.4471
v 6.161645 0.5698047 17.4471
v 6.161645 5.942766 7.152704
v 6.161645 0.5698047 7.152705
v 6.161645 5.942771 17.4471
v -1.800288 -10.72029 17.44711
v 2.180678 -10.72028 7.152706
v -1.800288 -10.72028 7.152706
v 2.180679 -10.72029 17.44711
v 6.161644 -10.72029 17.44711
v 6.161645 -4.803166 7.152705
v 6.161644 -10.72029 7.152706
v 6.161645 -4.803166 17.4471
v 6.161645 -4.803166 17.4471
v 6.161645 0.5698047 7.152705
v 6.161645 -4.803166 7.152705
v 6.161645 0.5698047 17.4471
v 6.161646 11.31574 7.152704
v 6.161645 5.942771 17.4471
v 6.161645 11.31574 17.4471
v 6.161645 5.942766 7.152704
v -6.323467 -10.72028 17.44711
v -1.800288 -10.72028 7.152706
v -6.323465 -10.72028 7.152706
v -1.800288 -10.72029 17.44711
v 6.161644 -10.72029 7.152706
v 2.180679 -10.72029 17.44711
v 6.161644 -10.72029 17.44711
v 2.180678 -10.72028 7.152706
vt 0.2460505 0.2457129
vt 0.1732971 0.003695348
vt 0.1732971 0.2457129
vt 0.2460505 0.003695379
vt 0.7117234 0.7141855
vt 0.6483711 0.6477444
vt 0.6483711 0.7141856
vt 0.7488425 0.7141856
vt 0.7117234 0.6477444
vt 0.7488425 0.6477444
vt 0.2548499 0.1814719
vt 0.4992294 0.0009018264
vt 0.2548499 0.0009018264
vt 0.4992294 0.1814719
vt 0.6487982 0.648
vt 0.7480245 0.7146995
vt 0.7480245 0.648
vt 0.6487982 0.7146995
vt 0.2548499 0.1814719
vt 0.4992294 0.0009018264
vt 0.2548499 0.0009018264
vt 0.4992294 0.1349566
vt 0.4992294 0.1814719
vt 0.6487982 0.648
vt 0.7480245 0.7146995
vt 0.7480245 0.648
vt 0.6487982 0.7146995
vt 0.2548499 0.1349566
vt 0.4992294 0.0009018264
vt 0.2548499 0.0009018264
vt 0.4992294 0.1349566
vt 0.2548499 0.1814719
vt 0.4992294 0.1814719
vt 0.369106 0.0009018264
vt 0.2548499 0.1349566
vt 0.3691055 0.1349566
vt 0.2548499 0.0009018264
vt 0.2548499 0.1814719
vt 0.369105 0.1814719
vt 0.1732971 0.003695348
vt 0.2460505 0.2457129
vt 0.2460505 0.003695379
vt 0.1732971 0.2457129
vt 0.1732971 0.2457129
vt 0.2460505 0.003695379
vt 0.1732971 0.003695348
vt 0.2460505 0.2457129
vt 0.1732971 0.003695348
vt 0.2460505 0.2457129
vt 0.2460505 0.003695379
vt 0.1732971 0.2457129
vt 0.1732971 0.003695348
vt 0.2460505 0.2457129
vt 0.2460505 0.003695379
vt 0.1732971 0.2457129
vt 0.1732971 0.003695348
vt 0.2460505 0.2457129
vt 0.2460505 0.003695379
vt 0.1732971 0.2457129
vt 0.4992294 0.1814719
vt 0.2548499 0.0009018264
vt 0.2548499 0.1814719
vt 0.4992294 0.0009018264
vt 0.2460505 0.003695379
vt 0.1732971 0.2457129
vt 0.2460505 0.2457129
vt 0.1732971 0.003695348
vt 0.4992294 0.1349566
vt 0.2548499 0.1814719
vt 0.4992294 0.1814719
vt 0.2548499 0.1349566
vt 0.2548499 0.1349566
vt 0.4992294 0.1814719
vt 0.4992294 0.1349566
vt 0.2548499 0.1814719
vt 0.4959944 0.2482378
vt 0.2513369 0.2285371
vt 0.2513369 0.2482378
vt 0.4959944 0.2285372
vt 0.2612991 0.2322055
vt 0.4267312 0.2322055
vt 0.4267312 0.2322055
vt 0.2612991 0.2322055
vt 0.2612991 0.2322055
vt 0.2888712 0.2322055
vt 0.2888712 0.2322055
vt 0.2612991 0.2322055
vt 0.2513369 0.2482378
vt 0.4959944 0.2285372
vt 0.2513369 0.2285372
vt 0.4959944 0.2482377
vt 0.4959944 0.247101
vt 0.2513369 0.2274004
vt 0.2513369 0.247101
vt 0.4959944 0.2274005
vt 0.4952833 0.2426589
vt 0.2542269 0.2291364
vt 0.2542269 0.2426589
vt 0.4952833 0.2291364
vt 0.2612991 0.2322055
vt 0.4267312 0.2322055
vt 0.4267312 0.2322055
vt 0.2612991 0.2322055
vt 0.2612991 0.2322055
vt 0.2888712 0.2322055
vt 0.2888712 0.2322055
vt 0.2612991 0.2322055
vt 0.2513369 0.247101
vt 0.4959944 0.2274005
vt 0.2513369 0.2274005
vt 0.4959944 0.247101
vt 0.4952833 0.2426589
vt 0.2542269 0.2291364
vt 0.2542269 0.2426589
vt 0.4952833 0.2291364
vt 0.2513108 0.1963484
vt 0.4986347 0.225362
vt 0.4986347 0.1963484
vt 0.2513108 0.225362
vt 0.4986347 0.225362
vt 0.2513108 0.1963484
vt 0.2513108 0.225362
vt 0.4986347 0.1963484
vt 0.2513108 0.1963484
vt 0.4986347 0.225362
vt 0.4986347 0.1963484
vt 0.2513108 0.225362
vt 0.2513108 0.1963484
vt 0.4986347 0.225362
vt 0.4986347 0.1963484
vt 0.2513108 0.225362
vt 0.4986347 0.225362
vt 0.2513108 0.1963484
vt 0.2513108 0.225362
vt 0.4986347 0.1963484
vt 0.4986347 0.225362
vt 0.2513108 0.1963484
vt 0.2513108 0.225362
vt 0.4986347 0.1963484
vt 0.4959944 0.2482378
vt 0.2513369 0.2285371
vt 0.4959944 0.2285372
vt 0.2513369 0.2482378
vt 0.2542269 0.2426589
vt 0.4952833 0.2291364
vt 0.2542269 0.2291364
vt 0.4952833 0.2426589
vt 0.2542269 0.2426589
vt 0.4952833 0.2291364
vt 0.2542269 0.2291364
vt 0.4952833 0.2426589
vt 0.2513369 0.2482378
vt 0.4959944 0.2285372
vt 0.4959944 0.2482377
vt 0.2513369 0.2285372
vt 0.4959944 0.247101
vt 0.2513369 0.2274004
vt 0.4959944 0.2274005
vt 0.2513369 0.247101
vt 1 0.5
vt 0 0.5
vt 1 0.5
vt 0 0.5
vt 0.2542269 0.2426589
vt 0.4952833 0.2291364
vt 0.2542269 0.2291364
vt 0.4952833 0.2426589
vt 0.2542269 0.2426589
vt 0.4952833 0.2291364
vt 0.2542269 0.2291364
vt 0.4952833 0.2426589
vt 0.2513369 0.247101
vt 0.4959944 0.2274005
vt 0.4959944 0.247101
vt 0.2513369 0.2274005
vt 0.2407408 0.5
vt 0 0.5
vt 0.1666667 0.5
vt 0 0.5
vt 0.2513108 0.1963484
vt 0.4986347 0.225362
vt 0.2513108 0.225362
vt 0.4986347 0.1963484
vt 0.4986347 0.225362
vt 0.2513108 0.1963484
vt 0.4986347 0.1963484
vt 0.2513108 0.225362
vt 0.2513108 0.1963484
vt 0.4986347 0.225362
vt 0.2513108 0.225362
vt 0.4986347 0.1963484
vt 0.2513108 0.1963484
vt 0.4986347 0.225362
vt 0.2513108 0.225362
vt 0.4986347 0.1963484
vt 0.4986347 0.225362
vt 0.2513108 0.1963484
vt 0.4986347 0.1963484
vt 0.2513108 0.225362
vt 0.4986347 0.225362
vt 0.2513108 0.1963484
vt 0.4986347 0.1963484
vt 0.2513108 0.225362
vt 0.04548598 0.003063679
vt 0.004591072 0.003063679
vt 0.004591072 0.08398592
vt 0.08627969 0.003063679
vt 0.004591072 0.1658456
vt 0.1270734 0.003063679
vt 0.004591072 0.2442858
vt 0.167182 0.2442858
vt 0.167182 0.003063679
vt 0.004591072 0.2442858
vt 0.167182 0.003063679
vt 0.004591072 0.003063679
vt 0.167182 0.2442858
vt 0.004591072 0.2442858
vt 0.167182 0.003063679
vt 0.004591072 0.003063679
vt 0.167182 0.2442858
vt 0.004591072 0.2442858
vt 0.167182 0.003063679
vt 0.004591072 0.003063679
vt 0.167182 0.2442858
vt 0.004591072 0.2442858
vt 0.167182 0.003063679
vt 0.004591072 0.003063679
vt 0.167182 0.2442858
vt 0.167182 0.003063679
vt 0.004591072 0.2442858
vt 0.167182 0.2442858
vt 0.004591072 0.003063679
vt 0.004591072 0.2442858
vt 0.167182 0.003063679
vt 0.004591072 0.003063679
vt 0.167182 0.2442858
vt 0.167182 0.003063679
vt 0.004591072 0.2442858
vt 0.167182 0.2442858
vt 0.004591072 0.003063679
vn -1.801623E-07 -1 -1.687103E-06
vn -1.887049E-07 -1 -1.221264E-07
vn -1.932504E-07 -1 -1.434992E-06
vn 0 -1 0
vn 1 8.75115E-07 1.929226E-07
vn 1 0 -5.430534E-07
vn 1 2.662152E-07 -1.270677E-06
vn 1 4.752004E-07 5.599707E-07
vn 1 0 -2.6231E-07
vn 1 1.402919E-07 0
vn 1 1.936347E-07 -1.642889E-07
vn 1 0 -2.6231E-07
vn 1 2.805836E-07 0
vn 1 0 -5.430534E-07
vn 1 -1.370851E-07 -2.373904E-06
vn 1 0 -2.305515E-07
vn 1 -1.52237E-07 0
vn 1 1.116651E-07 -1.611623E-06
vn 1 2.662152E-07 -1.270677E-06
vn 1 3.010446E-07 1.740557E-07
vn 1 8.75115E-07 1.929226E-07
vn 1 1.066956E-07 -2.38729E-06
vn 1 0 -3.339124E-06
vn 1 1.066956E-07 -2.38729E-06
vn 1 0 1.279905E-07
vn 1 3.010446E-07 1.740557E-07
vn 1 0 -2.446403E-06
vn 1 0 -2.446403E-06
vn 1 -1.52237E-07 0
vn 1 0 1.279905E-07
vn 1 -1.370851E-07 -2.373904E-06
vn 1 0 -3.339124E-06
vn 1 0 -3.339128E-06
vn 1 6.9052E-07 1.279909E-07
vn 1 1.116651E-07 -1.611623E-06
vn 1 4.314583E-07 -2.237991E-06
vn 1 0 -2.305515E-07
vn 1 0 -2.02298E-06
vn 1 0 -3.339127E-06
vn 1 8.75115E-07 1.929226E-07
vn 1 3.107494E-07 1.702695E-06
vn 1 4.752004E-07 5.599707E-07
vn 1 3.010446E-07 1.740557E-07
vn 1 0 1.279905E-07
vn 1 3.107494E-07 1.702695E-06
vn 1 3.010446E-07 1.740557E-07
vn 1 0 1.809665E-06
vn 1 0 1.279905E-07
vn 1 0 1.809665E-06
vn 1 0 1.809665E-06
vn 1 -1.52237E-07 0
vn 1 -1.52237E-07 0
vn 1 -1.627156E-07 1.042108E-06
vn 1 0 1.809665E-06
vn 1 0 -2.305515E-07
vn 1 0 -2.305515E-07
vn 1 4.039622E-07 1.43417E-06
vn 1 -1.627156E-07 1.042108E-06
vn 1 6.9052E-07 1.279909E-07
vn -2.154295E-07 -1 -9.386289E-07
vn -1.887049E-07 -1 -1.221264E-07
vn -3.865009E-07 -1 0
vn -1.932504E-07 -1 -1.434992E-06
vn 1 2.805837E-07 0
vn 1 0 -2.6231E-07
vn 1 1.402919E-07 0
vn 1 2.805836E-07 0
vn 1 0 -2.446403E-06
vn 1 0 -3.339124E-06
vn 1 0 -3.339124E-06
vn 1 1.066956E-07 -2.38729E-06
vn 1 -1.370851E-07 -2.373904E-06
vn 1 0 -2.02298E-06
vn 1 1.116651E-07 -1.611623E-06
vn 1 0 -3.339128E-06
vn 0 -1 0
vn 0 -1 0
vn 0 -1 0
vn 0 -1 0
vn 0 7.600081E-07 -1
vn 0 7.600081E-07 -1
vn 0 7.600081E-07 -1
vn 0 3.759608E-06 -1
vn -7.735711E-07 0 -1
vn -7.735711E-07 0 -1
vn -7.735712E-07 0 -1
vn -8.15506E-07 0 -1
vn 0.9999995 -0.0009580018 0
vn 0.9999995 -0.0009580018 0
vn 0.9999995 -0.0009580019 0
vn 0.9999995 -0.0009580019 0
vn 0 -1 0
vn 0 -1 0
vn 0 -1 0
vn 0 -1 0
vn 0 0 1
vn 0 0 1
vn 0 0 1
vn 0 0 1
vn 0 7.599989E-07 -1
vn 0 7.599989E-07 -1
vn 0 7.599988E-07 -1
vn 0 3.759561E-06 -1
vn -7.735711E-07 0 -1
vn -7.735711E-07 0 -1
vn -7.735711E-07 0 -1
vn -8.155073E-07 0 -1
vn 0.9999995 -0.0009580301 0
vn 0.9999995 -0.0009580301 0
vn 0.9999995 -0.0009580301 0
vn 0.9999995 -0.0009580302 0
vn 0 0 1
vn 0 0 1
vn 0 0 1
vn 0 0 1
vn 1 0 0
vn 1 0 0
vn 1 0 0
vn 1 0 0
vn -3.888698E-07 -1 -1.068555E-05
vn -3.888698E-07 -1 -1.068555E-05
vn -3.888698E-07 -1 -1.068555E-05
vn -3.888698E-07 -1 -1.068555E-05
vn 1 0 0
vn 1 0 0
vn 1 0 0
vn 1 0 0
vn 1 0 0
vn 1 0 0
vn 1 0 0
vn 1 0 0
vn 1 1.482613E-07 -1.322197E-06
vn 1 0 -1.334841E-06
vn 1 0 -1.335694E-06
vn 1 1.429554E-07 -1.274089E-06
vn 1 0 0
vn 1 1.429554E-07 -1.274089E-06
vn 1 1.482613E-07 -1.322197E-06
vn 1 0 0
vn 0 -1 0
vn 0 -1 0
vn 0 -1 0
vn 0 -1 0
vn 0 2.999609E-06 1
vn 0 2.999609E-06 1
vn 0 2.999609E-06 1
vn 0 0 1
vn 0 0 1
vn 0 0 1
vn 0 0 1
vn 0 0 1
vn 0.9999995 -0.0009580019 0
vn 0.9999995 -0.0009580019 0
vn 0.9999995 -0.0009580019 0
vn 0.9999995 -0.0009580019 0
vn 0 -1 0
vn 0 -1 0
vn 0 -1 0
vn 0 -1 0
vn 0 0 -1
vn 0 0 -1
vn 0 0 -1
vn 0 0 -1
vn 1.863052E-07 5.999145E-06 1
vn 1.863052E-07 5.999145E-06 1
vn 1.863052E-07 5.999145E-06 1
vn 0 0 1
vn 0 0 1
vn 0 0 1
vn 0 0 1
vn 0 0 1
vn 0.9999995 -0.0009580301 0
vn 0.9999995 -0.0009580301 0
vn 0.9999995 -0.0009580302 0
vn 0.9999995 -0.0009580302 0
vn 0 0 -1
vn 0 0 -1
vn 0 0 -1
vn 0 0 -1
vn 1 0 0
vn 1 0 0
vn 1 0 0
vn 1 0 0
vn -3.888698E-07 -1 1.068553E-05
vn -3.888698E-07 -1 1.068553E-05
vn -3.888698E-07 -1 1.068553E-05
vn -3.888698E-07 -1 1.068553E-05
vn 1 0 0
vn 1 0 0
vn 1 0 0
vn 1 0 0
vn 1 0 0
vn 1 0 0
vn 1 0 0
vn 1 0 0
vn 1 1.482615E-07 1.322197E-06
vn 1 0 1.334838E-06
vn 1 1.429556E-07 1.274089E-06
vn 1 0 1.335691E-06
vn 1 0 0
vn 1 1.429556E-07 1.274089E-06
vn 1 0 0
vn 1 1.482615E-07 1.322197E-06
vn 0 2.063002E-07 1
vn 0 2.063002E-07 1
vn 0 2.063002E-07 1
vn 0 1.081216E-07 1
vn 0 1.081216E-07 1
vn 0 0 1
vn 0 0 1
vn 0 0 1
vn 0 0 1
vn 1 -1.135969E-07 0
vn 1 -1.135969E-07 0
vn 1 -1.135969E-07 0
vn 1 1.135968E-07 0
vn -6.132698E-07 -1 -4.743174E-07
vn -6.132698E-07 -1 -4.743174E-07
vn -6.132697E-07 -1 -4.743174E-07
vn 0 -1 -2.371587E-07
vn 1 -3.094504E-07 0
vn 1 -3.094504E-07 0
vn 1 -3.094504E-07 0
vn 1 -2.063002E-07 0
vn 1 1.135967E-07 0
vn 1 1.135967E-07 0
vn 1 1.135967E-07 0
vn 1 0 0
vn 1 -1.135967E-07 0
vn 1 -1.135967E-07 0
vn 1 -1.135967E-07 0
vn 1 -1.135966E-07 0
vn -1.079509E-06 -1 -7.114762E-07
vn -1.079509E-06 -1 -7.114762E-07
vn -1.07951E-06 -1 -7.114763E-07
vn -5.397545E-07 -1 -4.743173E-07
vn -6.132698E-07 -1 -2.371587E-07
vn -6.132699E-07 -1 -2.371587E-07
vn -6.132699E-07 -1 -2.371587E-07
vn -6.132699E-07 -1 -2.371586E-07
g XuanJueSe_jianZhu03_0
f 3/3/3 2/2/2 1/1/1
f 4/4/4 1/1/1 2/2/2
f 7/7/7 6/6/6 5/5/5
f 5/5/5 6/6/6 8/8/8
f 6/6/6 9/9/9 8/8/8
f 8/8/8 9/9/9 10/10/10
f 13/13/13 12/12/12 11/11/11
f 14/14/14 11/11/11 12/12/12
f 17/17/17 16/16/16 15/15/15
f 18/18/18 15/15/15 16/16/16
f 21/21/21 20/20/20 19/19/19
f 22/22/22 19/19/19 20/20/20
f 22/22/22 23/23/23 19/19/19
f 26/26/26 25/25/25 24/24/24
f 27/27/27 24/24/24 25/25/25
f 30/30/30 29/29/29 28/28/28
f 31/31/31 28/28/28 29/29/29
f 28/28/28 31/31/31 32/32/32
f 33/33/33 32/32/32 31/31/31
f 36/36/36 35/35/35 34/34/34
f 37/37/37 34/34/34 35/35/35
f 35/35/35 36/36/36 38/38/38
f 39/39/39 38/38/38 36/36/36
f 42/42/42 41/41/41 40/40/40
f 43/43/43 40/40/40 41/41/41
f 46/46/46 45/45/45 44/44/44
f 47/47/47 44/44/44 45/45/45
f 50/50/50 49/49/49 48/48/48
f 51/51/51 48/48/48 49/49/49
f 54/54/54 53/53/53 52/52/52
f 55/55/55 52/52/52 53/53/53
f 58/58/58 57/57/57 56/56/56
f 59/59/59 56/56/56 57/57/57
f 62/62/62 61/61/61 60/60/60
f 63/63/63 60/60/60 61/61/61
f 66/66/66 65/65/65 64/64/64
f 67/67/67 64/64/64 65/65/65
f 70/70/70 69/69/69 68/68/68
f 71/71/71 68/68/68 69/69/69
f 74/74/74 73/73/73 72/72/72
f 75/75/75 72/72/72 73/73/73
f 78/78/78 77/77/77 76/76/76
f 79/79/79 76/76/76 77/77/77
f 82/82/82 81/81/81 80/80/80
f 83/83/83 80/80/80 81/81/81
f 86/86/86 85/85/85 84/84/84
f 87/87/87 84/84/84 85/85/85
f 90/90/90 89/89/89 88/88/88
f 91/91/91 88/88/88 89/89/89
f 94/94/94 93/93/93 92/92/92
f 95/95/95 92/92/92 93/93/93
f 98/98/98 97/97/97 96/96/96
f 99/99/99 96/96/96 97/97/97
f 102/102/102 101/101/101 100/100/100
f 103/103/103 100/100/100 101/101/101
f 106/106/106 105/105/105 104/104/104
f 107/107/107 104/104/104 105/105/105
f 110/110/110 109/109/109 108/108/108
f 111/111/111 108/108/108 109/109/109
f 114/114/114 113/113/113 112/112/112
f 115/115/115 112/112/112 113/113/113
f 118/118/118 117/117/117 116/116/116
f 119/119/119 116/116/116 117/117/117
f 122/122/122 121/121/121 120/120/120
f 123/123/123 120/120/120 121/121/121
f 126/126/126 125/125/125 124/124/124
f 127/127/127 124/124/124 125/125/125
f 130/130/130 129/129/129 128/128/128
f 131/131/131 128/128/128 129/129/129
f 134/134/134 133/133/133 132/132/132
f 135/135/135 132/132/132 133/133/133
f 138/138/138 137/137/137 136/136/136
f 139/139/139 136/136/136 137/137/137
f 142/142/142 141/141/141 140/140/140
f 143/143/143 140/140/140 141/141/141
f 146/146/146 145/145/145 144/144/144
f 147/147/147 144/144/144 145/145/145
f 150/150/150 149/149/149 148/148/148
f 151/151/151 148/148/148 149/149/149
f 154/154/154 153/153/153 152/152/152
f 155/155/155 152/152/152 153/153/153
f 158/158/158 157/157/157 156/156/156
f 159/159/159 156/156/156 157/157/157
f 162/162/162 161/161/161 160/160/160
f 163/163/163 160/160/160 161/161/161
f 166/166/166 165/165/165 164/164/164
f 167/167/167 164/164/164 165/165/165
f 170/170/170 169/169/169 168/168/168
f 171/171/171 168/168/168 169/169/169
f 174/174/174 173/173/173 172/172/172
f 175/175/175 172/172/172 173/173/173
f 178/178/178 177/177/177 176/176/176
f 179/179/179 176/176/176 177/177/177
f 182/182/182 181/181/181 180/180/180
f 183/183/183 180/180/180 181/181/181
f 186/186/186 185/185/185 184/184/184
f 187/187/187 184/184/184 185/185/185
f 190/190/190 189/189/189 188/188/188
f 191/191/191 188/188/188 189/189/189
f 194/194/194 193/193/193 192/192/192
f 195/195/195 192/192/192 193/193/193
f 198/198/198 197/197/197 196/196/196
f 199/199/199 196/196/196 197/197/197
f 202/202/202 201/201/201 200/200/200
f 203/203/203 200/200/200 201/201/201
f 206/206/206 205/205/205 204/204/204
f 204/204/204 207/207/207 206/206/206
f 208/208/208 206/206/206 207/207/207
f 207/207/207 209/209/209 208/208/208
f 210/210/210 208/208/208 209/209/209
f 211/211/211 210/210/210 209/209/209
f 212/212/212 211/211/211 209/209/209
f 215/215/215 214/214/214 213/213/213
f 216/216/216 213/213/213 214/214/214
f 219/219/219 218/218/218 217/217/217
f 220/220/220 217/217/217 218/218/218
f 223/223/223 222/222/222 221/221/221
f 224/224/224 221/221/221 222/222/222
f 227/227/227 226/226/226 225/225/225
f 228/228/228 225/225/225 226/226/226
f 231/231/231 230/230/230 229/229/229
f 232/232/232 229/229/229 230/230/230
f 235/235/235 234/234/234 233/233/233
f 236/236/236 233/233/233 234/234/234
f 239/239/239 238/238/238 237/237/237
f 240/240/240 237/237/237 238/238/238
