g XuanJueSe_qiaoLiang
v -55.87888 4.02948 25.07124
v 48.55494 -5.542 25.07124
v 48.55494 4.02948 25.07124
v -55.87888 -5.542 25.07124
v -55.87888 -7.293793 27.12779
v 48.55494 -7.293793 29.78063
v 48.55494 -7.293793 27.12779
v -55.87888 -7.293793 29.78063
v 48.55494 -7.293793 27.12779
v -55.87888 -5.542 25.07124
v -55.87888 -7.293793 27.12779
v 48.55494 -5.542 25.07124
v 13.85917 -6.643131 31.91697
v 30.67645 -6.643131 29.65644
v 13.85917 -6.643131 29.65644
v 30.67645 -6.643131 31.91697
v 20.73249 -4.037102 22.53901
v 20.73249 -7.308136 23.38219
v 20.73249 -5.582535 22.53901
v 20.73249 -2.311501 23.38219
v 20.73249 -5.582535 22.53901
v 22.24206 -7.308136 23.38219
v 22.24206 -5.582535 22.53901
v 20.73249 -7.308136 23.38219
v 22.24206 -5.582535 22.53901
v 22.24206 -2.311501 23.38219
v 22.24206 -4.037102 22.53901
v 22.24206 -7.308136 23.38219
v 22.24206 -4.037102 22.53901
v 20.73249 -2.311501 23.38219
v 20.73249 -4.037102 22.53901
v 22.24206 -2.311501 23.38219
v 20.73249 -2.311501 23.38219
v 20.73249 -7.308136 25.14543
v 20.73249 -7.308136 23.38219
v 20.73249 -2.311501 25.14543
v 20.73249 -7.308136 23.38219
v 22.24206 -7.308136 25.14543
v 22.24206 -7.308136 23.38219
v 20.73249 -7.308136 25.14543
v 22.24206 -7.308136 23.38219
v 22.24206 -2.311501 25.14543
v 22.24206 -2.311501 23.38219
v 22.24206 -7.308136 25.14543
v 22.24206 -2.311501 23.38219
v 20.73249 -2.311501 25.14543
v 20.73249 -2.311501 23.38219
v 22.24206 -2.311501 25.14543
v 20.08113 -6.411171 18.26444
v 20.08113 -3.208462 13.25208
v 20.08113 -3.208462 18.26444
v 20.08113 -6.411171 13.25208
v 22.89342 -6.411171 18.26444
v 20.08113 -6.411171 13.25208
v 20.08113 -6.411171 18.26444
v 22.89342 -6.411171 13.25208
v 22.89342 -3.208462 18.26444
v 22.89342 -6.411171 13.25208
v 22.89342 -6.411171 18.26444
v 22.89342 -3.208462 13.25208
v 20.08113 -3.208462 18.26444
v 22.89342 -3.208462 13.25208
v 22.89342 -3.208462 18.26444
v 20.08113 -3.208462 13.25208
v 20.73249 -5.582535 22.53901
v 20.73249 -4.037102 18.26444
v 20.73249 -4.037102 22.53901
v 20.73249 -5.582535 18.26444
v 22.24206 -5.582535 22.53901
v 20.73249 -5.582535 18.26444
v 20.73249 -5.582535 22.53901
v 22.24206 -5.582535 18.26444
v 22.24206 -4.037102 22.53901
v 22.24206 -5.582535 18.26444
v 22.24206 -5.582535 22.53901
v 22.24206 -4.037102 18.26444
v 20.73249 -4.037102 22.53901
v 22.24206 -4.037102 18.26444
v 22.24206 -4.037102 22.53901
v 20.73249 -4.037102 18.26444
v 20.73249 -5.582535 18.26444
v 20.08113 -3.208462 18.26444
v 20.73249 -4.037102 18.26444
v 20.08113 -6.411171 18.26444
v 22.89342 -3.208462 18.26444
v 22.24206 -4.037102 18.26444
v 22.89342 -6.411171 18.26444
v 22.24206 -5.582535 18.26444
v 22.24206 -5.582535 18.26444
v 20.08113 -6.411171 18.26444
v 20.73249 -5.582535 18.26444
v 22.89342 -6.411171 18.26444
v 16.94823 -5.431644 25.14105
v 19.30059 -4.187988 23.54842
v 16.94823 -4.187988 25.14105
v 19.30059 -5.431644 23.54842
v 20.79603 -5.431644 20.4206
v 19.30059 -5.431644 23.54842
v 20.79603 -5.431644 25.14105
v 16.94823 -5.431644 25.14105
v 19.30059 -4.187988 23.54842
v 20.79603 -4.187988 20.4206
v 20.79603 -4.187988 25.14105
v 16.94823 -4.187988 25.14105
v 19.30059 -4.187988 23.54842
v 20.79603 -5.431644 20.4206
v 20.79603 -4.187988 20.4206
v 19.30059 -5.431644 23.54842
v 26.01098 -4.187889 25.14105
v 23.65862 -5.431644 23.54842
v 26.01098 -5.431644 25.14105
v 23.65862 -4.187889 23.54842
v 22.16318 -4.187889 20.4206
v 23.65862 -4.187889 23.54842
v 22.16318 -4.187889 25.14105
v 26.01098 -4.187889 25.14105
v 23.65862 -5.431644 23.54842
v 22.16318 -5.431644 20.4206
v 22.16318 -5.431644 25.14105
v 26.01098 -5.431644 25.14105
v 23.65862 -5.431644 23.54842
v 22.16318 -4.187889 20.4206
v 22.16318 -5.431644 20.4206
v 23.65862 -4.187889 23.54842
v -20.82825 -6.643131 31.91697
v -2.958027 -6.643131 29.65644
v -20.82825 -6.643131 29.65644
v -2.958027 -6.643131 31.91697
v -2.958027 -6.643131 31.91697
v 13.85917 -6.643131 29.65644
v -2.958027 -6.643131 29.65644
v 13.85917 -6.643131 31.91697
v 47.49374 -6.643131 29.65644
v 30.67645 -6.643131 31.91697
v 47.49374 -6.643131 31.91697
v 30.67645 -6.643131 29.65644
v 20.73249 5.403706 22.53901
v 20.73249 2.132675 23.38219
v 20.73249 3.858276 22.53901
v 20.73249 7.129307 23.38219
v 20.73249 3.858276 22.53901
v 22.24206 2.132675 23.38219
v 22.24206 3.858276 22.53901
v 20.73249 2.132675 23.38219
v 22.24206 3.858276 22.53901
v 22.24206 7.129307 23.38219
v 22.24206 5.403706 22.53901
v 22.24206 2.132675 23.38219
v 22.24206 5.403706 22.53901
v 20.73249 7.129307 23.38219
v 20.73249 5.403706 22.53901
v 22.24206 7.129307 23.38219
v 20.73249 7.129307 23.38219
v 20.73249 2.132675 25.14543
v 20.73249 2.132675 23.38219
v 20.73249 7.129307 25.14543
v 20.73249 2.132675 23.38219
v 22.24206 2.132675 25.14543
v 22.24206 2.132675 23.38219
v 20.73249 2.132675 25.14543
v 22.24206 2.132675 23.38219
v 22.24206 7.129307 25.14543
v 22.24206 7.129307 23.38219
v 22.24206 2.132675 25.14543
v 22.24206 7.129307 23.38219
v 20.73249 7.129307 25.14543
v 20.73249 7.129307 23.38219
v 22.24206 7.129307 25.14543
v 20.08113 3.029636 18.26444
v 20.08113 6.232346 13.25208
v 20.08113 6.232346 18.26444
v 20.08113 3.029636 13.25208
v 22.89342 3.029636 18.26444
v 20.08113 3.029636 13.25208
v 20.08113 3.029636 18.26444
v 22.89342 3.029636 13.25208
v 22.89342 6.232346 18.26444
v 22.89342 3.029636 13.25208
v 22.89342 3.029636 18.26444
v 22.89342 6.232346 13.25208
v 20.08113 6.232346 18.26444
v 22.89342 6.232346 13.25208
v 22.89342 6.232346 18.26444
v 20.08113 6.232346 13.25208
v 20.73249 3.858276 22.53901
v 20.73249 5.403706 18.26444
v 20.73249 5.403706 22.53901
v 20.73249 3.858276 18.26444
v 22.24206 3.858276 22.53901
v 20.73249 3.858276 18.26444
v 20.73249 3.858276 22.53901
v 22.24206 3.858276 18.26444
v 22.24206 5.403706 22.53901
v 22.24206 3.858276 18.26444
v 22.24206 3.858276 22.53901
v 22.24206 5.403706 18.26444
v 20.73249 5.403706 22.53901
v 22.24206 5.403706 18.26444
v 22.24206 5.403706 22.53901
v 20.73249 5.403706 18.26444
v 20.73249 3.858276 18.26444
v 20.08113 6.232346 18.26444
v 20.73249 5.403706 18.26444
v 20.08113 3.029636 18.26444
v 22.89342 6.232346 18.26444
v 22.24206 5.403706 18.26444
v 22.89342 3.029636 18.26444
v 22.24206 3.858276 18.26444
v 22.24206 3.858276 18.26444
v 20.08113 3.029636 18.26444
v 20.73249 3.858276 18.26444
v 22.89342 3.029636 18.26444
v 16.94823 4.009163 25.14105
v 19.30059 5.252819 23.54842
v 16.94823 5.252819 25.14105
v 19.30059 4.009163 23.54842
v 20.79603 4.009163 20.4206
v 19.30059 4.009163 23.54842
v 20.79603 4.009163 25.14105
v 16.94823 4.009163 25.14105
v 19.30059 5.252819 23.54842
v 20.79603 5.252819 20.4206
v 20.79603 5.252819 25.14105
v 16.94823 5.252819 25.14105
v 19.30059 5.252819 23.54842
v 20.79603 4.009163 20.4206
v 20.79603 5.252819 20.4206
v 19.30059 4.009163 23.54842
v 26.01098 5.252918 25.14105
v 23.65862 4.009163 23.54842
v 26.01098 4.009163 25.14105
v 23.65862 5.252918 23.54842
v 22.16318 5.252918 20.4206
v 23.65862 5.252918 23.54842
v 22.16318 5.252918 25.14105
v 26.01098 5.252918 25.14105
v 23.65862 4.009163 23.54842
v 22.16318 4.009163 20.4206
v 22.16318 4.009163 25.14105
v 26.01098 4.009163 25.14105
v 23.65862 4.009163 23.54842
v 22.16318 5.252918 20.4206
v 22.16318 4.009163 20.4206
v 23.65862 5.252918 23.54842
v 19.2485 -6.975285 -0.1864204
v 19.2485 6.975132 13.25208
v 19.2485 -6.975285 13.25208
v 19.2485 6.975132 -0.1864204
v 21.33942 -8.390842 -0.1864204
v 19.2485 -6.975285 13.25208
v 21.33942 -8.390842 13.25208
v 19.2485 -6.975285 -0.1864204
v 23.43034 6.975132 -0.1864204
v 23.43034 -6.975285 13.25208
v 23.43034 6.975132 13.25208
v 23.43034 -6.975285 -0.1864204
v 21.33942 8.390591 -0.1864204
v 23.43034 6.975132 13.25208
v 21.33942 8.390591 13.25208
v 23.43034 6.975132 -0.1864204
v 21.33942 -8.390842 13.25208
v 19.2485 6.975132 13.25208
v 21.33942 8.390591 13.25208
v 19.2485 -6.975285 13.25208
v 23.43034 -6.975285 13.25208
v 23.43034 6.975132 13.25208
v 23.43034 -6.975285 -0.1864204
v 21.33942 -8.390842 13.25208
v 23.43034 -6.975285 13.25208
v 21.33942 -8.390842 -0.1864204
v 19.2485 6.975132 -0.1864204
v 21.33942 8.390591 13.25208
v 19.2485 6.975132 13.25208
v 21.33942 8.390591 -0.1864204
v -12.01559 -4.037102 22.53901
v -12.01559 -7.308136 23.38219
v -12.01559 -5.582535 22.53901
v -12.01559 -2.311501 23.38219
v -12.01559 -5.582535 22.53901
v -10.50611 -7.308136 23.38219
v -10.50611 -5.582535 22.53901
v -12.01559 -7.308136 23.38219
v -10.50611 -5.582535 22.53901
v -10.50611 -2.311501 23.38219
v -10.50611 -4.037102 22.53901
v -10.50611 -7.308136 23.38219
v -10.50611 -4.037102 22.53901
v -12.01559 -2.311501 23.38219
v -12.01559 -4.037102 22.53901
v -10.50611 -2.311501 23.38219
v -12.01559 -2.311501 23.38219
v -12.01559 -7.308136 25.14543
v -12.01559 -7.308136 23.38219
v -12.01559 -2.311501 25.14543
v -12.01559 -7.308136 23.38219
v -10.50611 -7.308136 25.14543
v -10.50611 -7.308136 23.38219
v -12.01559 -7.308136 25.14543
v -10.50611 -7.308136 23.38219
v -10.50611 -2.311501 25.14543
v -10.50611 -2.311501 23.38219
v -10.50611 -7.308136 25.14543
v -10.50611 -2.311501 23.38219
v -12.01559 -2.311501 25.14543
v -12.01559 -2.311501 23.38219
v -10.50611 -2.311501 25.14543
v -12.66695 -6.411171 18.26444
v -12.66695 -3.208462 13.25208
v -12.66695 -3.208462 18.26444
v -12.66695 -6.411171 13.25208
v -9.854755 -6.411171 18.26444
v -12.66695 -6.411171 13.25208
v -12.66695 -6.411171 18.26444
v -9.854755 -6.411171 13.25208
v -9.854755 -3.208462 18.26444
v -9.854755 -6.411171 13.25208
v -9.854755 -6.411171 18.26444
v -9.854755 -3.208462 13.25208
v -12.66695 -3.208462 18.26444
v -9.854755 -3.208462 13.25208
v -9.854755 -3.208462 18.26444
v -12.66695 -3.208462 13.25208
v -12.01559 -5.582535 22.53901
v -12.01559 -4.037102 18.26444
v -12.01559 -4.037102 22.53901
v -12.01559 -5.582535 18.26444
v -10.50611 -5.582535 22.53901
v -12.01559 -5.582535 18.26444
v -12.01559 -5.582535 22.53901
v -10.50611 -5.582535 18.26444
v -10.50611 -4.037102 22.53901
v -10.50611 -5.582535 18.26444
v -10.50611 -5.582535 22.53901
v -10.50611 -4.037102 18.26444
v -12.01559 -4.037102 22.53901
v -10.50611 -4.037102 18.26444
v -10.50611 -4.037102 22.53901
v -12.01559 -4.037102 18.26444
v -12.01559 -5.582535 18.26444
v -12.66695 -3.208462 18.26444
v -12.01559 -4.037102 18.26444
v -12.66695 -6.411171 18.26444
v -9.854755 -3.208462 18.26444
v -10.50611 -4.037102 18.26444
v -9.854755 -6.411171 18.26444
v -10.50611 -5.582535 18.26444
v -10.50611 -5.582535 18.26444
v -12.66695 -6.411171 18.26444
v -12.01559 -5.582535 18.26444
v -9.854755 -6.411171 18.26444
v -15.79984 -5.431644 25.14105
v -13.44748 -4.187889 23.54842
v -15.79984 -4.187889 25.14105
v -13.44748 -5.431644 23.54842
v -11.95205 -5.431644 20.4206
v -13.44748 -5.431644 23.54842
v -11.95205 -5.431644 25.14105
v -15.79984 -5.431644 25.14105
v -13.44748 -4.187889 23.54842
v -11.95205 -4.187889 20.4206
v -11.95205 -4.187889 25.14105
v -15.79984 -4.187889 25.14105
v -13.44748 -4.187889 23.54842
v -11.95205 -5.431644 20.4206
v -11.95205 -4.187889 20.4206
v -13.44748 -5.431644 23.54842
v -6.737099 -4.187889 25.14105
v -9.089458 -5.431644 23.54842
v -6.737099 -5.431644 25.14105
v -9.089458 -4.187889 23.54842
v -10.58489 -4.187889 20.4206
v -9.089458 -4.187889 23.54842
v -10.58499 -4.187889 25.14105
v -6.737099 -4.187889 25.14105
v -9.089458 -5.431644 23.54842
v -10.58489 -5.431644 20.4206
v -10.58489 -5.431644 25.14105
v -6.737099 -5.431644 25.14105
v -9.089458 -5.431644 23.54842
v -10.58489 -4.187889 20.4206
v -10.58489 -5.431644 20.4206
v -9.089458 -4.187889 23.54842
v -12.01559 5.403706 22.53901
v -12.01559 2.132675 23.38219
v -12.01559 3.858276 22.53901
v -12.01559 7.129307 23.38219
v -12.01559 3.858276 22.53901
v -10.50611 2.132675 23.38219
v -10.50611 3.858276 22.53901
v -12.01559 2.132675 23.38219
v -10.50611 3.858276 22.53901
v -10.50611 7.129307 23.38219
v -10.50611 5.403706 22.53901
v -10.50611 2.132675 23.38219
v -10.50611 5.403706 22.53901
v -12.01559 7.129307 23.38219
v -12.01559 5.403706 22.53901
v -10.50611 7.129307 23.38219
v -12.01559 7.129307 23.38219
v -12.01559 2.132675 25.14543
v -12.01559 2.132675 23.38219
v -12.01559 7.129307 25.14543
v -12.01559 2.132675 23.38219
v -10.50611 2.132675 25.14543
v -10.50611 2.132675 23.38219
v -12.01559 2.132675 25.14543
v -10.50611 2.132675 23.38219
v -10.50611 7.129307 25.14543
v -10.50611 7.129307 23.38219
v -10.50611 2.132675 25.14543
v -10.50611 7.129307 23.38219
v -12.01559 7.129307 25.14543
v -12.01559 7.129307 23.38219
v -10.50611 7.129307 25.14543
v -12.66695 3.029636 18.26444
v -12.66695 6.232346 13.25208
v -12.66695 6.232346 18.26444
v -12.66695 3.029636 13.25208
v -9.854755 3.029636 18.26444
v -12.66695 3.029636 13.25208
v -12.66695 3.029636 18.26444
v -9.854755 3.029636 13.25208
v -9.854755 6.232346 18.26444
v -9.854755 3.029636 13.25208
v -9.854755 3.029636 18.26444
v -9.854755 6.232346 13.25208
v -12.66695 6.232346 18.26444
v -9.854755 6.232346 13.25208
v -9.854755 6.232346 18.26444
v -12.66695 6.232346 13.25208
v -12.01559 3.858276 22.53901
v -12.01559 5.403706 18.26444
v -12.01559 5.403706 22.53901
v -12.01559 3.858276 18.26444
v -10.50611 3.858276 22.53901
v -12.01559 3.858276 18.26444
v -12.01559 3.858276 22.53901
v -10.50611 3.858276 18.26444
v -10.50611 5.403706 22.53901
v -10.50611 3.858276 18.26444
v -10.50611 3.858276 22.53901
v -10.50611 5.403706 18.26444
v -12.01559 5.403706 22.53901
v -10.50611 5.403706 18.26444
v -10.50611 5.403706 22.53901
v -12.01559 5.403706 18.26444
v -12.01559 3.858276 18.26444
v -12.66695 6.232346 18.26444
v -12.01559 5.403706 18.26444
v -12.66695 3.029636 18.26444
v -9.854755 6.232346 18.26444
v -10.50611 5.403706 18.26444
v -9.854755 3.029636 18.26444
v -10.50611 3.858276 18.26444
v -10.50611 3.858276 18.26444
v -12.66695 3.029636 18.26444
v -12.01559 3.858276 18.26444
v -9.854755 3.029636 18.26444
v -15.79984 4.009163 25.14105
v -13.44748 5.252918 23.54842
v -15.79984 5.252918 25.14105
v -13.44748 4.009163 23.54842
v -11.95205 4.009163 20.4206
v -13.44748 4.009163 23.54842
v -11.95205 4.009163 25.14105
v -15.79984 4.009163 25.14105
v -13.44748 5.252918 23.54842
v -11.95205 5.252918 20.4206
v -11.95205 5.252918 25.14105
v -15.79984 5.252918 25.14105
v -13.44748 5.252918 23.54842
v -11.95205 4.009163 20.4206
v -11.95205 5.252918 20.4206
v -13.44748 4.009163 23.54842
v -6.737099 5.252918 25.14105
v -9.089458 4.009163 23.54842
v -6.737099 4.009163 25.14105
v -9.089458 5.252918 23.54842
v -10.58489 5.252918 20.4206
v -9.089458 5.252918 23.54842
v -10.58499 5.252918 25.14105
v -6.737099 5.252918 25.14105
v -9.089458 4.009163 23.54842
v -10.58489 4.009163 20.4206
v -10.58489 4.009163 25.14105
v -6.737099 4.009163 25.14105
v -9.089458 4.009163 23.54842
v -10.58489 5.252918 20.4206
v -10.58489 4.009163 20.4206
v -9.089458 5.252918 23.54842
v -13.49967 -6.975285 -0.1864204
v -13.49967 6.975132 13.25208
v -13.49967 -6.975285 13.25208
v -13.49967 6.975132 -0.1864204
v -11.40875 -8.390842 -0.1864204
v -13.49967 -6.975285 13.25208
v -11.40875 -8.390842 13.25208
v -13.49967 -6.975285 -0.1864204
v -9.31773 6.975132 -0.1864204
v -9.31773 -6.975285 13.25208
v -9.31773 6.975132 13.25208
v -9.31773 -6.975285 -0.1864204
v -11.40875 8.390591 -0.1864204
v -9.31773 6.975132 13.25208
v -11.40875 8.390591 13.25208
v -9.31773 6.975132 -0.1864204
v -11.40875 -8.390842 13.25208
v -13.49967 6.975132 13.25208
v -11.40875 8.390591 13.25208
v -13.49967 -6.975285 13.25208
v -9.31773 -6.975285 13.25208
v -9.31773 6.975132 13.25208
v -9.31773 -6.975285 -0.1864204
v -11.40875 -8.390842 13.25208
v -9.31773 -6.975285 13.25208
v -11.40875 -8.390842 -0.1864204
v -13.49967 6.975132 -0.1864204
v -11.40875 8.390591 13.25208
v -13.49967 6.975132 13.25208
v -11.40875 8.390591 -0.1864204
v -55.87888 -6.643131 31.91697
v -37.506 -6.643131 29.65644
v -55.87888 -6.643131 29.65644
v -37.506 -6.643131 31.91697
v -37.506 -6.643131 31.91697
v -20.82825 -6.643131 29.65644
v -37.506 -6.643131 29.65644
v -20.82825 -6.643131 31.91697
vt 0.5017061 0.002076287
vt 0.747886 0.01974658
vt 0.747886 0.002076287
vt 0.5017061 0.01974658
vt 0.5017061 0.02682072
vt 0.747886 0.05964772
vt 0.747886 0.02682072
vt 0.5017061 0.05964772
vt 0.747886 0.02682072
vt 0.5017061 0.002076287
vt 0.5017061 0.02682072
vt 0.747886 0.002076287
vt 0.5017061 0.1922803
vt 0.747886 0.1400671
vt 0.5017061 0.1400671
vt 0.747886 0.1922803
vt 0.6612203 0.002076287
vt 0.5017061 0.03100499
vt 0.5861441 0.002076287
vt 0.747886 0.03100499
vt 0.747886 0.002076287
vt 0.5017061 0.03100499
vt 0.747886 0.03100499
vt 0.5017061 0.002076287
vt 0.5861441 0.002076287
vt 0.747886 0.03100499
vt 0.6612203 0.002076287
vt 0.5017061 0.03100499
vt 0.747886 0.002076287
vt 0.5017061 0.03100499
vt 0.747886 0.03100499
vt 0.5017061 0.002076287
vt 0.747886 0.002076287
vt 0.5017061 0.03100499
vt 0.5017061 0.002076287
vt 0.747886 0.03100499
vt 0.747886 0.002076287
vt 0.5017061 0.03100499
vt 0.747886 0.03100499
vt 0.5017061 0.002076287
vt 0.5017061 0.002076287
vt 0.747886 0.03100499
vt 0.747886 0.002076287
vt 0.5017061 0.03100499
vt 0.747886 0.002076287
vt 0.5017061 0.03100499
vt 0.747886 0.03100499
vt 0.5017061 0.002076287
vt 0.5017061 0.135627
vt 0.747886 0.06410293
vt 0.5017061 0.06410293
vt 0.747886 0.135627
vt 0.5017061 0.135627
vt 0.747886 0.06410293
vt 0.5017061 0.06410293
vt 0.747886 0.135627
vt 0.5017061 0.135627
vt 0.747886 0.06410293
vt 0.5017061 0.06410293
vt 0.747886 0.135627
vt 0.5017061 0.135627
vt 0.747886 0.06410293
vt 0.5017061 0.06410293
vt 0.747886 0.135627
vt 0.5017061 0.002076287
vt 0.747886 0.03100499
vt 0.5017061 0.03100499
vt 0.747886 0.002076287
vt 0.5017061 0.03100499
vt 0.747886 0.002076287
vt 0.5017061 0.002076287
vt 0.747886 0.03100499
vt 0.5017061 0.03100499
vt 0.747886 0.002076287
vt 0.5017061 0.002076287
vt 0.747886 0.03100499
vt 0.5017061 0.03100499
vt 0.747886 0.002076287
vt 0.5017061 0.002076287
vt 0.747886 0.03100499
vt 0.669619 0.1163913
vt 0.6969221 0.06282356
vt 0.669619 0.08028313
vt 0.6969221 0.1338509
vt 0.6969221 0.1338509
vt 0.669619 0.1163913
vt 0.6969221 0.06282356
vt 0.669619 0.08028313
vt 0.669619 0.1163913
vt 0.6969221 0.06282356
vt 0.669619 0.08028313
vt 0.6969221 0.1338509
vt 0.5017061 0.03100499
vt 0.747886 0.002076287
vt 0.5017061 0.002076287
vt 0.747886 0.03100499
vt 0.7209892 0.02203439
vt 0.5901328 0.02010781
vt 0.5529709 0.002076287
vt 0.5017061 0.03100499
vt 0.5901328 0.02010781
vt 0.7209892 0.02203439
vt 0.5529709 0.002076287
vt 0.5017061 0.03100499
vt 0.5017061 0.002076287
vt 0.747886 0.03100499
vt 0.747886 0.002076287
vt 0.5017061 0.03100499
vt 0.5017061 0.03100499
vt 0.747886 0.002076287
vt 0.5017061 0.002076287
vt 0.747886 0.03100499
vt 0.7209892 0.02203439
vt 0.5901328 0.02010781
vt 0.5529709 0.002076287
vt 0.5017061 0.03100499
vt 0.5901328 0.02010781
vt 0.7209892 0.02203439
vt 0.5529709 0.002076287
vt 0.5017061 0.03100499
vt 0.5017061 0.002076287
vt 0.747886 0.03100499
vt 0.747886 0.002076287
vt 0.5017061 0.03100499
vt 0.5017061 0.1922803
vt 0.747886 0.1400671
vt 0.5017061 0.1400671
vt 0.747886 0.1922803
vt 0.5017061 0.1922803
vt 0.747886 0.1400671
vt 0.5017061 0.1400671
vt 0.747886 0.1922803
vt 0.747886 0.1400671
vt 0.5017061 0.1922803
vt 0.747886 0.1922803
vt 0.5017061 0.1400671
vt 0.6612203 0.002076287
vt 0.5017061 0.03100499
vt 0.5861441 0.002076287
vt 0.747886 0.03100499
vt 0.747886 0.002076287
vt 0.5017061 0.03100499
vt 0.747886 0.03100499
vt 0.5017061 0.002076287
vt 0.5861441 0.002076287
vt 0.747886 0.03100499
vt 0.6612203 0.002076287
vt 0.5017061 0.03100499
vt 0.747886 0.002076287
vt 0.5017061 0.03100499
vt 0.747886 0.03100499
vt 0.5017061 0.002076287
vt 0.747886 0.002076287
vt 0.5017061 0.03100499
vt 0.5017061 0.002076287
vt 0.747886 0.03100499
vt 0.747886 0.002076287
vt 0.5017061 0.03100499
vt 0.747886 0.03100499
vt 0.5017061 0.002076287
vt 0.5017061 0.002076287
vt 0.747886 0.03100499
vt 0.747886 0.002076287
vt 0.5017061 0.03100499
vt 0.747886 0.002076287
vt 0.5017061 0.03100499
vt 0.747886 0.03100499
vt 0.5017061 0.002076287
vt 0.5017061 0.135627
vt 0.747886 0.06410293
vt 0.5017061 0.06410293
vt 0.747886 0.135627
vt 0.5017061 0.135627
vt 0.747886 0.06410293
vt 0.5017061 0.06410293
vt 0.747886 0.135627
vt 0.5017061 0.135627
vt 0.747886 0.06410293
vt 0.5017061 0.06410293
vt 0.747886 0.135627
vt 0.5017061 0.135627
vt 0.747886 0.06410293
vt 0.5017061 0.06410293
vt 0.747886 0.135627
vt 0.5017061 0.002076287
vt 0.747886 0.03100499
vt 0.5017061 0.03100499
vt 0.747886 0.002076287
vt 0.5017061 0.03100499
vt 0.747886 0.002076287
vt 0.5017061 0.002076287
vt 0.747886 0.03100499
vt 0.5017061 0.03100499
vt 0.747886 0.002076287
vt 0.5017061 0.002076287
vt 0.747886 0.03100499
vt 0.5017061 0.03100499
vt 0.747886 0.002076287
vt 0.5017061 0.002076287
vt 0.747886 0.03100499
vt 0.669619 0.1163913
vt 0.6969221 0.06282356
vt 0.669619 0.08028313
vt 0.6969221 0.1338509
vt 0.6969221 0.1338509
vt 0.669619 0.1163913
vt 0.6969221 0.06282356
vt 0.669619 0.08028313
vt 0.669619 0.1163913
vt 0.6969221 0.06282356
vt 0.669619 0.08028313
vt 0.6969221 0.1338509
vt 0.5017061 0.03100499
vt 0.747886 0.002076287
vt 0.5017061 0.002076287
vt 0.747886 0.03100499
vt 0.7209892 0.02203439
vt 0.5901328 0.02010781
vt 0.5529709 0.002076287
vt 0.5017061 0.03100499
vt 0.5901328 0.02010781
vt 0.7209892 0.02203439
vt 0.5529709 0.002076287
vt 0.5017061 0.03100499
vt 0.5017061 0.002076287
vt 0.747886 0.03100499
vt 0.747886 0.002076287
vt 0.5017061 0.03100499
vt 0.5017061 0.03100499
vt 0.747886 0.002076287
vt 0.5017061 0.002076287
vt 0.747886 0.03100499
vt 0.7209892 0.02203439
vt 0.5901328 0.02010781
vt 0.5529709 0.002076287
vt 0.5017061 0.03100499
vt 0.5901328 0.02010781
vt 0.7209892 0.02203439
vt 0.5529709 0.002076287
vt 0.5017061 0.03100499
vt 0.5017061 0.002076287
vt 0.747886 0.03100499
vt 0.747886 0.002076287
vt 0.5017061 0.03100499
vt 0.747886 0.1355066
vt 0.5017061 0.06395241
vt 0.5017061 0.1355066
vt 0.747886 0.06395241
vt 0.747886 0.1355066
vt 0.5017061 0.06395241
vt 0.5017061 0.1355066
vt 0.747886 0.06395241
vt 0.747886 0.1355066
vt 0.5017061 0.06395241
vt 0.5017061 0.1355066
vt 0.747886 0.06395241
vt 0.747886 0.1355066
vt 0.5017061 0.06395241
vt 0.5017061 0.1355066
vt 0.747886 0.06395241
vt 0.6841736 0.06715835
vt 0.6689567 0.1302085
vt 0.6830899 0.1361086
vt 0.6698598 0.07289291
vt 0.6983069 0.07305848
vt 0.6974038 0.130374
vt 0.747886 0.1355066
vt 0.5017061 0.06395241
vt 0.5017061 0.1355066
vt 0.747886 0.06395241
vt 0.747886 0.1355066
vt 0.5017061 0.06395241
vt 0.5017061 0.1355066
vt 0.747886 0.06395241
vt 0.6612203 0.002076287
vt 0.5017061 0.03100499
vt 0.5861441 0.002076287
vt 0.747886 0.03100499
vt 0.747886 0.002076287
vt 0.5017061 0.03100499
vt 0.747886 0.03100499
vt 0.5017061 0.002076287
vt 0.5861441 0.002076287
vt 0.747886 0.03100499
vt 0.6612203 0.002076287
vt 0.5017061 0.03100499
vt 0.747886 0.002076287
vt 0.5017061 0.03100499
vt 0.747886 0.03100499
vt 0.5017061 0.002076287
vt 0.747886 0.002076287
vt 0.5017061 0.03100499
vt 0.5017061 0.002076287
vt 0.747886 0.03100499
vt 0.747886 0.002076287
vt 0.5017061 0.03100499
vt 0.747886 0.03100499
vt 0.5017061 0.002076287
vt 0.5017061 0.002076287
vt 0.747886 0.03100499
vt 0.747886 0.002076287
vt 0.5017061 0.03100499
vt 0.747886 0.002076287
vt 0.5017061 0.03100499
vt 0.747886 0.03100499
vt 0.5017061 0.002076287
vt 0.5017061 0.135627
vt 0.747886 0.06410293
vt 0.5017061 0.06410293
vt 0.747886 0.135627
vt 0.5017061 0.135627
vt 0.747886 0.06410293
vt 0.5017061 0.06410293
vt 0.747886 0.135627
vt 0.5017061 0.135627
vt 0.747886 0.06410293
vt 0.5017061 0.06410293
vt 0.747886 0.135627
vt 0.5017061 0.135627
vt 0.747886 0.06410293
vt 0.5017061 0.06410293
vt 0.747886 0.135627
vt 0.5017061 0.002076287
vt 0.747886 0.03100499
vt 0.5017061 0.03100499
vt 0.747886 0.002076287
vt 0.5017061 0.03100499
vt 0.747886 0.002076287
vt 0.5017061 0.002076287
vt 0.747886 0.03100499
vt 0.5017061 0.03100499
vt 0.747886 0.002076287
vt 0.5017061 0.002076287
vt 0.747886 0.03100499
vt 0.5017061 0.03100499
vt 0.747886 0.002076287
vt 0.5017061 0.002076287
vt 0.747886 0.03100499
vt 0.669619 0.1163913
vt 0.6969221 0.06282356
vt 0.669619 0.08028313
vt 0.6969221 0.1338509
vt 0.6969221 0.1338509
vt 0.669619 0.1163913
vt 0.6969221 0.06282356
vt 0.669619 0.08028313
vt 0.669619 0.1163913
vt 0.6969221 0.06282356
vt 0.669619 0.08028313
vt 0.6969221 0.1338509
vt 0.5017061 0.03100499
vt 0.747886 0.002076287
vt 0.5017061 0.002076287
vt 0.747886 0.03100499
vt 0.7209892 0.02203439
vt 0.5901328 0.02010781
vt 0.5529709 0.002076287
vt 0.5017061 0.03100499
vt 0.5901328 0.02010781
vt 0.7209892 0.02203439
vt 0.5529709 0.002076287
vt 0.5017061 0.03100499
vt 0.5017061 0.002076287
vt 0.747886 0.03100499
vt 0.747886 0.002076287
vt 0.5017061 0.03100499
vt 0.5017061 0.03100499
vt 0.747886 0.002076287
vt 0.5017061 0.002076287
vt 0.747886 0.03100499
vt 0.7209892 0.02203439
vt 0.5901328 0.02010781
vt 0.5529709 0.002076287
vt 0.5017061 0.03100499
vt 0.5901328 0.02010781
vt 0.7209892 0.02203439
vt 0.5529709 0.002076287
vt 0.5017061 0.03100499
vt 0.5017061 0.002076287
vt 0.747886 0.03100499
vt 0.747886 0.002076287
vt 0.5017061 0.03100499
vt 0.6612203 0.002076287
vt 0.5017061 0.03100499
vt 0.5861441 0.002076287
vt 0.747886 0.03100499
vt 0.747886 0.002076287
vt 0.5017061 0.03100499
vt 0.747886 0.03100499
vt 0.5017061 0.002076287
vt 0.5861441 0.002076287
vt 0.747886 0.03100499
vt 0.6612203 0.002076287
vt 0.5017061 0.03100499
vt 0.747886 0.002076287
vt 0.5017061 0.03100499
vt 0.747886 0.03100499
vt 0.5017061 0.002076287
vt 0.747886 0.002076287
vt 0.5017061 0.03100499
vt 0.5017061 0.002076287
vt 0.747886 0.03100499
vt 0.747886 0.002076287
vt 0.5017061 0.03100499
vt 0.747886 0.03100499
vt 0.5017061 0.002076287
vt 0.5017061 0.002076287
vt 0.747886 0.03100499
vt 0.747886 0.002076287
vt 0.5017061 0.03100499
vt 0.747886 0.002076287
vt 0.5017061 0.03100499
vt 0.747886 0.03100499
vt 0.5017061 0.002076287
vt 0.5017061 0.135627
vt 0.747886 0.06410293
vt 0.5017061 0.06410293
vt 0.747886 0.135627
vt 0.5017061 0.135627
vt 0.747886 0.06410293
vt 0.5017061 0.06410293
vt 0.747886 0.135627
vt 0.5017061 0.135627
vt 0.747886 0.06410293
vt 0.5017061 0.06410293
vt 0.747886 0.135627
vt 0.5017061 0.135627
vt 0.747886 0.06410293
vt 0.5017061 0.06410293
vt 0.747886 0.135627
vt 0.5017061 0.002076287
vt 0.747886 0.03100499
vt 0.5017061 0.03100499
vt 0.747886 0.002076287
vt 0.5017061 0.03100499
vt 0.747886 0.002076287
vt 0.5017061 0.002076287
vt 0.747886 0.03100499
vt 0.5017061 0.03100499
vt 0.747886 0.002076287
vt 0.5017061 0.002076287
vt 0.747886 0.03100499
vt 0.5017061 0.03100499
vt 0.747886 0.002076287
vt 0.5017061 0.002076287
vt 0.747886 0.03100499
vt 0.669619 0.1163913
vt 0.6969221 0.06282356
vt 0.669619 0.08028313
vt 0.6969221 0.1338509
vt 0.6969221 0.1338509
vt 0.669619 0.1163913
vt 0.6969221 0.06282356
vt 0.669619 0.08028313
vt 0.669619 0.1163913
vt 0.6969221 0.06282356
vt 0.669619 0.08028313
vt 0.6969221 0.1338509
vt 0.5017061 0.03100499
vt 0.747886 0.002076287
vt 0.5017061 0.002076287
vt 0.747886 0.03100499
vt 0.7209892 0.02203439
vt 0.5901328 0.02010781
vt 0.5529709 0.002076287
vt 0.5017061 0.03100499
vt 0.5901328 0.02010781
vt 0.7209892 0.02203439
vt 0.5529709 0.002076287
vt 0.5017061 0.03100499
vt 0.5017061 0.002076287
vt 0.747886 0.03100499
vt 0.747886 0.002076287
vt 0.5017061 0.03100499
vt 0.5017061 0.03100499
vt 0.747886 0.002076287
vt 0.5017061 0.002076287
vt 0.747886 0.03100499
vt 0.7209892 0.02203439
vt 0.5901328 0.02010781
vt 0.5529709 0.002076287
vt 0.5017061 0.03100499
vt 0.5901328 0.02010781
vt 0.7209892 0.02203439
vt 0.5529709 0.002076287
vt 0.5017061 0.03100499
vt 0.5017061 0.002076287
vt 0.747886 0.03100499
vt 0.747886 0.002076287
vt 0.5017061 0.03100499
vt 0.747886 0.1355066
vt 0.5017061 0.06395241
vt 0.5017061 0.1355066
vt 0.747886 0.06395241
vt 0.747886 0.1355066
vt 0.5017061 0.06395241
vt 0.5017061 0.1355066
vt 0.747886 0.06395241
vt 0.747886 0.1355066
vt 0.5017061 0.06395241
vt 0.5017061 0.1355066
vt 0.747886 0.06395241
vt 0.747886 0.1355066
vt 0.5017061 0.06395241
vt 0.5017061 0.1355066
vt 0.747886 0.06395241
vt 0.6841736 0.06715835
vt 0.6689567 0.1302085
vt 0.6830899 0.1361086
vt 0.6698598 0.07289291
vt 0.6983069 0.07305848
vt 0.6974038 0.130374
vt 0.747886 0.1355066
vt 0.5017061 0.06395241
vt 0.5017061 0.1355066
vt 0.747886 0.06395241
vt 0.747886 0.1355066
vt 0.5017061 0.06395241
vt 0.5017061 0.1355066
vt 0.747886 0.06395241
vt 0.5017061 0.1922803
vt 0.747886 0.1400671
vt 0.5017061 0.1400671
vt 0.747886 0.1922803
vt 0.5017061 0.1922803
vt 0.747886 0.1400671
vt 0.5017061 0.1400671
vt 0.747886 0.1922803
vn 0.01176465 -0.01176465 -0.9998616
vn 0.01176465 -0.01176465 -0.9998616
vn 0.01176465 -0.01176465 -0.9998616
vn 0.01176465 -0.01176465 -0.9998616
vn 0.003921568 -0.9999924 0
vn 0.003921568 -0.9999924 0
vn 0.003921568 -0.9999924 0
vn 0.003921568 -0.9999924 0
vn 0.01176465 -0.7725431 -0.6348533
vn 0.01176465 -0.7725431 -0.6348533
vn 0.01176465 -0.7725431 -0.6348533
vn 0.01176465 -0.7725431 -0.6348533
vn 0.003921568 -0.9999924 0
vn 0.003921568 -0.9999924 0
vn 0.003921568 -0.9999924 0
vn 0.003921568 -0.9999924 0
vn -0.9999923 -0.003921568 -0.0003442513
vn -0.9999923 -0.003921568 -0.0003442513
vn -0.9999923 -0.003921568 -0.0003442513
vn -0.9999923 -0.003921568 -0.0003442513
vn 0.01176465 -0.450977 -0.892458
vn 0.01176465 -0.450977 -0.892458
vn 0.01176465 -0.450977 -0.892458
vn 0.01176465 -0.450977 -0.892458
vn 0.9999924 -0.003921568 0
vn 0.9999924 -0.003921568 0
vn 0.9999924 -0.003921568 0
vn 0.9999924 -0.003921568 0
vn 0.01176465 0.4352907 -0.9002131
vn 0.01176465 0.4352907 -0.9002131
vn 0.01176465 0.4352907 -0.9002131
vn 0.01176465 0.4352907 -0.9002131
vn -0.9999923 -0.003921568 -0.0003442513
vn -0.9999923 -0.003921568 -0.0003442513
vn -0.9999923 -0.003921568 -0.0003442513
vn -0.9999923 -0.003921568 -0.0003442513
vn 0.003921568 -0.9999924 0
vn 0.003921568 -0.9999924 0
vn 0.003921568 -0.9999924 0
vn 0.003921568 -0.9999924 0
vn 0.9999924 -0.003921568 0
vn 0.9999924 -0.003921568 0
vn 0.9999924 -0.003921568 0
vn 0.9999924 -0.003921568 0
vn 0.003921568 0.9999923 -0.000345267
vn 0.003921568 0.9999923 -0.000345267
vn 0.003921568 0.9999923 -0.000345267
vn 0.003921568 0.9999923 -0.000345267
vn -0.9999923 -0.003921568 -0.0003442513
vn -0.9999923 -0.003921568 -0.0003442513
vn -0.9999923 -0.003921568 -0.0003442513
vn -0.9999923 -0.003921568 -0.0003442513
vn 0.003921568 -0.9999924 0
vn 0.003921568 -0.9999924 0
vn 0.003921568 -0.9999924 0
vn 0.003921568 -0.9999924 0
vn 0.9999924 -0.003921568 0
vn 0.9999924 -0.003921568 0
vn 0.9999924 -0.003921568 0
vn 0.9999924 -0.003921568 0
vn 0.003921568 0.9999923 -0.000345267
vn 0.003921568 0.9999923 -0.000345267
vn 0.003921568 0.9999923 -0.000345267
vn 0.003921568 0.9999923 -0.000345267
vn -0.9999923 -0.003921568 -0.0003442513
vn -0.9999923 -0.003921568 -0.0003442513
vn -0.9999923 -0.003921568 -0.0003442513
vn -0.9999923 -0.003921568 -0.0003442513
vn 0.003921568 -0.9999924 0
vn 0.003921568 -0.9999924 0
vn 0.003921568 -0.9999924 0
vn 0.003921568 -0.9999924 0
vn 0.9999924 -0.003921568 0
vn 0.9999924 -0.003921568 0
vn 0.9999924 -0.003921568 0
vn 0.9999924 -0.003921568 0
vn 0.003921568 0.9999923 -0.000345267
vn 0.003921568 0.9999923 -0.000345267
vn 0.003921568 0.9999923 -0.000345267
vn 0.003921568 0.9999923 -0.000345267
vn 0.01176465 -0.01176465 0.9998616
vn 0.01176465 -0.01176465 0.9998616
vn 0.01176465 -0.01176465 0.9998616
vn 0.01176465 -0.01176465 0.9998616
vn 0.01176465 -0.01176465 0.9998616
vn 0.01176465 -0.01176465 0.9998616
vn 0.01176465 -0.01176465 0.9998616
vn 0.01176465 -0.01176465 0.9998616
vn 0.01176465 -0.01176465 0.9998616
vn 0.01176465 -0.01176465 0.9998616
vn 0.01176465 -0.01176465 0.9998616
vn 0.01176465 -0.01176465 0.9998616
vn -0.5529369 -0.01176465 -0.8331401
vn -0.5529369 -0.01176465 -0.8331401
vn -0.5529369 -0.01176465 -0.8331401
vn -0.5529369 -0.01176465 -0.8331401
vn 0.003921568 -0.9999924 0
vn 0.003921568 -0.9999924 0
vn 0.003921568 -0.9999924 0
vn 0.003921568 -0.9999924 0
vn 0.003921568 0.9999923 -0.000345267
vn 0.003921568 0.9999923 -0.000345267
vn 0.003921568 0.9999923 -0.000345267
vn 0.003921568 0.9999923 -0.000345267
vn -0.8980323 -0.01176465 -0.4397722
vn -0.8980323 -0.01176465 -0.4397722
vn -0.8980323 -0.01176465 -0.4397722
vn -0.8980323 -0.01176465 -0.4397722
vn 0.5686231 -0.01176465 -0.8225141
vn 0.5686231 -0.01176465 -0.8225141
vn 0.5686231 -0.01176465 -0.8225141
vn 0.5686231 -0.01176465 -0.8225141
vn 0.003921568 0.9999923 -0.000345267
vn 0.003921568 0.9999923 -0.000345267
vn 0.003921568 0.9999923 -0.000345267
vn 0.003921568 0.9999923 -0.000345267
vn 0.003921568 -0.9999924 0
vn 0.003921568 -0.9999924 0
vn 0.003921568 -0.9999924 0
vn 0.003921568 -0.9999924 0
vn 0.9137185 -0.01176465 -0.4061774
vn 0.9137185 -0.01176465 -0.4061774
vn 0.9137185 -0.01176465 -0.4061774
vn 0.9137185 -0.01176465 -0.4061774
vn 0.003921568 -0.9999924 0
vn 0.003921568 -0.9999924 0
vn 0.003921568 -0.9999924 0
vn 0.003921568 -0.9999924 0
vn 0.003921568 -0.9999924 0
vn 0.003921568 -0.9999924 0
vn 0.003921568 -0.9999924 0
vn 0.003921568 -0.9999924 0
vn 0.003921568 -0.9999924 0
vn 0.003921568 -0.9999924 0
vn 0.003921568 -0.9999924 0
vn 0.003921568 -0.9999924 0
vn -0.9999923 -0.003921568 -0.0003442513
vn -0.9999923 -0.003921568 -0.0003442513
vn -0.9999923 -0.003921568 -0.0003442513
vn -0.9999923 -0.003921568 -0.0003442513
vn 0.01176465 -0.450977 -0.892458
vn 0.01176465 -0.450977 -0.892458
vn 0.01176465 -0.450977 -0.892458
vn 0.01176465 -0.450977 -0.892458
vn 0.9999924 -0.003921568 0
vn 0.9999924 -0.003921568 0
vn 0.9999924 -0.003921568 0
vn 0.9999924 -0.003921568 0
vn 0.01176465 0.4352907 -0.9002131
vn 0.01176465 0.4352907 -0.9002131
vn 0.01176465 0.4352907 -0.9002131
vn 0.01176465 0.4352907 -0.9002131
vn -0.9999923 -0.003921568 -0.0003442513
vn -0.9999923 -0.003921568 -0.0003442513
vn -0.9999923 -0.003921568 -0.0003442513
vn -0.9999923 -0.003921568 -0.0003442513
vn 0.003921568 -0.9999924 0
vn 0.003921568 -0.9999924 0
vn 0.003921568 -0.9999924 0
vn 0.003921568 -0.9999924 0
vn 0.9999924 -0.003921568 0
vn 0.9999924 -0.003921568 0
vn 0.9999924 -0.003921568 0
vn 0.9999924 -0.003921568 0
vn 0.003921568 0.9999923 -0.000345267
vn 0.003921568 0.9999923 -0.000345267
vn 0.003921568 0.9999923 -0.000345267
vn 0.003921568 0.9999923 -0.000345267
vn -0.9999923 -0.003921568 -0.0003442513
vn -0.9999923 -0.003921568 -0.0003442513
vn -0.9999923 -0.003921568 -0.0003442513
vn -0.9999923 -0.003921568 -0.0003442513
vn 0.003921568 -0.9999924 0
vn 0.003921568 -0.9999924 0
vn 0.003921568 -0.9999924 0
vn 0.003921568 -0.9999924 0
vn 0.9999924 -0.003921568 0
vn 0.9999924 -0.003921568 0
vn 0.9999924 -0.003921568 0
vn 0.9999924 -0.003921568 0
vn 0.003921568 0.9999923 -0.000345267
vn 0.003921568 0.9999923 -0.000345267
vn 0.003921568 0.9999923 -0.000345267
vn 0.003921568 0.9999923 -0.000345267
vn -0.9999923 -0.003921568 -0.0003442513
vn -0.9999923 -0.003921568 -0.0003442513
vn -0.9999923 -0.003921568 -0.0003442513
vn -0.9999923 -0.003921568 -0.0003442513
vn 0.003921568 -0.9999924 0
vn 0.003921568 -0.9999924 0
vn 0.003921568 -0.9999924 0
vn 0.003921568 -0.9999924 0
vn 0.9999924 -0.003921568 0
vn 0.9999924 -0.003921568 0
vn 0.9999924 -0.003921568 0
vn 0.9999924 -0.003921568 0
vn 0.003921568 0.9999923 -0.000345267
vn 0.003921568 0.9999923 -0.000345267
vn 0.003921568 0.9999923 -0.000345267
vn 0.003921568 0.9999923 -0.000345267
vn 0.01176465 -0.01176465 0.9998616
vn 0.01176465 -0.01176465 0.9998616
vn 0.01176465 -0.01176465 0.9998616
vn 0.01176465 -0.01176465 0.9998616
vn 0.01176465 -0.01176465 0.9998616
vn 0.01176465 -0.01176465 0.9998616
vn 0.01176465 -0.01176465 0.9998616
vn 0.01176465 -0.01176465 0.9998616
vn 0.01176465 -0.01176465 0.9998616
vn 0.01176465 -0.01176465 0.9998616
vn 0.01176465 -0.01176465 0.9998616
vn 0.01176465 -0.01176465 0.9998616
vn -0.5529369 -0.01176465 -0.8331401
vn -0.5529369 -0.01176465 -0.8331401
vn -0.5529369 -0.01176465 -0.8331401
vn -0.5529369 -0.01176465 -0.8331401
vn 0.003921568 -0.9999924 0
vn 0.003921568 -0.9999924 0
vn 0.003921568 -0.9999924 0
vn 0.003921568 -0.9999924 0
vn 0.003921568 0.9999923 -0.000345267
vn 0.003921568 0.9999923 -0.000345267
vn 0.003921568 0.9999923 -0.000345267
vn 0.003921568 0.9999923 -0.000345267
vn -0.8980323 -0.01176465 -0.4397722
vn -0.8980323 -0.01176465 -0.4397722
vn -0.8980323 -0.01176465 -0.4397722
vn -0.8980323 -0.01176465 -0.4397722
vn 0.5686231 -0.01176465 -0.8225141
vn 0.5686231 -0.01176465 -0.8225141
vn 0.5686231 -0.01176465 -0.8225141
vn 0.5686231 -0.01176465 -0.8225141
vn 0.003921568 0.9999923 -0.000345267
vn 0.003921568 0.9999923 -0.000345267
vn 0.003921568 0.9999923 -0.000345267
vn 0.003921568 0.9999923 -0.000345267
vn 0.003921568 -0.9999924 0
vn 0.003921568 -0.9999924 0
vn 0.003921568 -0.9999924 0
vn 0.003921568 -0.9999924 0
vn 0.9137185 -0.01176465 -0.4061774
vn 0.9137185 -0.01176465 -0.4061774
vn 0.9137185 -0.01176465 -0.4061774
vn 0.9137185 -0.01176465 -0.4061774
vn -0.9999923 -0.003921568 -0.0003442513
vn -0.9999923 -0.003921568 -0.0003442513
vn -0.9999923 -0.003921568 -0.0003442513
vn -0.9999923 -0.003921568 -0.0003442513
vn 0.003921568 -0.9999924 0
vn -0.5450938 -0.8352877 -0.07188273
vn 0.003921568 -0.9999924 0
vn -0.5450938 -0.8352877 -0.07188273
vn 0.9999924 -0.003921568 0
vn 0.9999924 -0.003921568 0
vn 0.9999924 -0.003921568 0
vn 0.9999924 -0.003921568 0
vn 0.003921568 0.9999923 -0.000345267
vn 0.5663631 0.8241558 0
vn 0.003921568 0.9999923 -0.000345267
vn 0.5663631 0.8241558 0
vn 0.01176465 -0.01176465 0.9998616
vn 0.01176465 -0.01176465 0.9998616
vn 0.01176465 -0.01176465 0.9998616
vn 0.01176465 -0.01176465 0.9998616
vn 0.01176465 -0.01176465 0.9998616
vn 0.01176465 -0.01176465 0.9998616
vn 0.5573959 -0.830247 0
vn 0.003921568 -0.9999924 0
vn 0.5573959 -0.830247 0
vn 0.003921568 -0.9999924 0
vn -0.5529369 0.8274446 -0.09796064
vn 0.003921568 0.9999923 -0.000345267
vn -0.5529369 0.8274446 -0.09796064
vn 0.003921568 0.9999923 -0.000345267
vn -0.9999923 -0.003921568 -0.0003442513
vn -0.9999923 -0.003921568 -0.0003442513
vn -0.9999923 -0.003921568 -0.0003442513
vn -0.9999923 -0.003921568 -0.0003442513
vn 0.01176465 -0.450977 -0.892458
vn 0.01176465 -0.450977 -0.892458
vn 0.01176465 -0.450977 -0.892458
vn 0.01176465 -0.450977 -0.892458
vn 0.9999924 -0.003921568 0
vn 0.9999924 -0.003921568 0
vn 0.9999924 -0.003921568 0
vn 0.9999924 -0.003921568 0
vn 0.01176465 0.4352907 -0.9002131
vn 0.01176465 0.4352907 -0.9002131
vn 0.01176465 0.4352907 -0.9002131
vn 0.01176465 0.4352907 -0.9002131
vn -0.9999923 -0.003921568 -0.0003442513
vn -0.9999923 -0.003921568 -0.0003442513
vn -0.9999923 -0.003921568 -0.0003442513
vn -0.9999923 -0.003921568 -0.0003442513
vn 0.003921568 -0.9999924 0
vn 0.003921568 -0.9999924 0
vn 0.003921568 -0.9999924 0
vn 0.003921568 -0.9999924 0
vn 0.9999924 -0.003921568 0
vn 0.9999924 -0.003921568 0
vn 0.9999924 -0.003921568 0
vn 0.9999924 -0.003921568 0
vn 0.003921568 0.9999923 -0.000345267
vn 0.003921568 0.9999923 -0.000345267
vn 0.003921568 0.9999923 -0.000345267
vn 0.003921568 0.9999923 -0.000345267
vn -0.9999923 -0.003921568 -0.0003442513
vn -0.9999923 -0.003921568 -0.0003442513
vn -0.9999923 -0.003921568 -0.0003442513
vn -0.9999923 -0.003921568 -0.0003442513
vn 0.003921568 -0.9999924 0
vn 0.003921568 -0.9999924 0
vn 0.003921568 -0.9999924 0
vn 0.003921568 -0.9999924 0
vn 0.9999924 -0.003921568 0
vn 0.9999924 -0.003921568 0
vn 0.9999924 -0.003921568 0
vn 0.9999924 -0.003921568 0
vn 0.003921568 0.9999923 -0.000345267
vn 0.003921568 0.9999923 -0.000345267
vn 0.003921568 0.9999923 -0.000345267
vn 0.003921568 0.9999923 -0.000345267
vn -0.9999923 -0.003921568 -0.0003442513
vn -0.9999923 -0.003921568 -0.0003442513
vn -0.9999923 -0.003921568 -0.0003442513
vn -0.9999923 -0.003921568 -0.0003442513
vn 0.003921568 -0.9999924 0
vn 0.003921568 -0.9999924 0
vn 0.003921568 -0.9999924 0
vn 0.003921568 -0.9999924 0
vn 0.9999924 -0.003921568 0
vn 0.9999924 -0.003921568 0
vn 0.9999924 -0.003921568 0
vn 0.9999924 -0.003921568 0
vn 0.003921568 0.9999923 -0.000345267
vn 0.003921568 0.9999923 -0.000345267
vn 0.003921568 0.9999923 -0.000345267
vn 0.003921568 0.9999923 -0.000345267
vn 0.01176465 -0.01176465 0.9998616
vn 0.01176465 -0.01176465 0.9998616
vn 0.01176465 -0.01176465 0.9998616
vn 0.01176465 -0.01176465 0.9998616
vn 0.01176465 -0.01176465 0.9998616
vn 0.01176465 -0.01176465 0.9998616
vn 0.01176465 -0.01176465 0.9998616
vn 0.01176465 -0.01176465 0.9998616
vn 0.01176465 -0.01176465 0.9998616
vn 0.01176465 -0.01176465 0.9998616
vn 0.01176465 -0.01176465 0.9998616
vn 0.01176465 -0.01176465 0.9998616
vn -0.5529369 -0.01176465 -0.8331401
vn -0.5529369 -0.01176465 -0.8331401
vn -0.5529369 -0.01176465 -0.8331401
vn -0.5529369 -0.01176465 -0.8331401
vn 0.003921568 -0.9999924 0
vn 0.003921568 -0.9999924 0
vn 0.003921568 -0.9999924 0
vn 0.003921568 -0.9999924 0
vn 0.003921568 0.9999923 -0.000345267
vn 0.003921568 0.9999923 -0.000345267
vn 0.003921568 0.9999923 -0.000345267
vn 0.003921568 0.9999923 -0.000345267
vn -0.8980323 -0.01176465 -0.4397722
vn -0.8980323 -0.01176465 -0.4397722
vn -0.8980323 -0.01176465 -0.4397722
vn -0.8980323 -0.01176465 -0.4397722
vn 0.5686231 -0.01176465 -0.8225141
vn 0.5686231 -0.01176465 -0.8225141
vn 0.5686231 -0.01176465 -0.8225141
vn 0.5686231 -0.01176465 -0.8225141
vn 0.003921568 0.9999923 -0.000345267
vn 0.003921568 0.9999923 -0.000345267
vn 0.003921568 0.9999923 -0.000345267
vn 0.003921568 0.9999923 -0.000345267
vn 0.003921568 -0.9999924 0
vn 0.003921568 -0.9999924 0
vn 0.003921568 -0.9999924 0
vn 0.003921568 -0.9999924 0
vn 0.9137185 -0.01176465 -0.4061774
vn 0.9137185 -0.01176465 -0.4061774
vn 0.9137185 -0.01176465 -0.4061774
vn 0.9137185 -0.01176465 -0.4061774
vn -0.9999923 -0.003921568 -0.0003442513
vn -0.9999923 -0.003921568 -0.0003442513
vn -0.9999923 -0.003921568 -0.0003442513
vn -0.9999923 -0.003921568 -0.0003442513
vn 0.01176465 -0.450977 -0.892458
vn 0.01176465 -0.450977 -0.892458
vn 0.01176465 -0.450977 -0.892458
vn 0.01176465 -0.450977 -0.892458
vn 0.9999924 -0.003921568 0
vn 0.9999924 -0.003921568 0
vn 0.9999924 -0.003921568 0
vn 0.9999924 -0.003921568 0
vn 0.01176465 0.4352907 -0.9002131
vn 0.01176465 0.4352907 -0.9002131
vn 0.01176465 0.4352907 -0.9002131
vn 0.01176465 0.4352907 -0.9002131
vn -0.9999923 -0.003921568 -0.0003442513
vn -0.9999923 -0.003921568 -0.0003442513
vn -0.9999923 -0.003921568 -0.0003442513
vn -0.9999923 -0.003921568 -0.0003442513
vn 0.003921568 -0.9999924 0
vn 0.003921568 -0.9999924 0
vn 0.003921568 -0.9999924 0
vn 0.003921568 -0.9999924 0
vn 0.9999924 -0.003921568 0
vn 0.9999924 -0.003921568 0
vn 0.9999924 -0.003921568 0
vn 0.9999924 -0.003921568 0
vn 0.003921568 0.9999923 -0.000345267
vn 0.003921568 0.9999923 -0.000345267
vn 0.003921568 0.9999923 -0.000345267
vn 0.003921568 0.9999923 -0.000345267
vn -0.9999923 -0.003921568 -0.0003442513
vn -0.9999923 -0.003921568 -0.0003442513
vn -0.9999923 -0.003921568 -0.0003442513
vn -0.9999923 -0.003921568 -0.0003442513
vn 0.003921568 -0.9999924 0
vn 0.003921568 -0.9999924 0
vn 0.003921568 -0.9999924 0
vn 0.003921568 -0.9999924 0
vn 0.9999924 -0.003921568 0
vn 0.9999924 -0.003921568 0
vn 0.9999924 -0.003921568 0
vn 0.9999924 -0.003921568 0
vn 0.003921568 0.9999923 -0.000345267
vn 0.003921568 0.9999923 -0.000345267
vn 0.003921568 0.9999923 -0.000345267
vn 0.003921568 0.9999923 -0.000345267
vn -0.9999923 -0.003921568 -0.0003442513
vn -0.9999923 -0.003921568 -0.0003442513
vn -0.9999923 -0.003921568 -0.0003442513
vn -0.9999923 -0.003921568 -0.0003442513
vn 0.003921568 -0.9999924 0
vn 0.003921568 -0.9999924 0
vn 0.003921568 -0.9999924 0
vn 0.003921568 -0.9999924 0
vn 0.9999924 -0.003921568 0
vn 0.9999924 -0.003921568 0
vn 0.9999924 -0.003921568 0
vn 0.9999924 -0.003921568 0
vn 0.003921568 0.9999923 -0.000345267
vn 0.003921568 0.9999923 -0.000345267
vn 0.003921568 0.9999923 -0.000345267
vn 0.003921568 0.9999923 -0.000345267
vn 0.01176465 -0.01176465 0.9998616
vn 0.01176465 -0.01176465 0.9998616
vn 0.01176465 -0.01176465 0.9998616
vn 0.01176465 -0.01176465 0.9998616
vn 0.01176465 -0.01176465 0.9998616
vn 0.01176465 -0.01176465 0.9998616
vn 0.01176465 -0.01176465 0.9998616
vn 0.01176465 -0.01176465 0.9998616
vn 0.01176465 -0.01176465 0.9998616
vn 0.01176465 -0.01176465 0.9998616
vn 0.01176465 -0.01176465 0.9998616
vn 0.01176465 -0.01176465 0.9998616
vn -0.5529369 -0.01176465 -0.8331401
vn -0.5529369 -0.01176465 -0.8331401
vn -0.5529369 -0.01176465 -0.8331401
vn -0.5529369 -0.01176465 -0.8331401
vn 0.003921568 -0.9999924 0
vn 0.003921568 -0.9999924 0
vn 0.003921568 -0.9999924 0
vn 0.003921568 -0.9999924 0
vn 0.003921568 0.9999923 -0.000345267
vn 0.003921568 0.9999923 -0.000345267
vn 0.003921568 0.9999923 -0.000345267
vn 0.003921568 0.9999923 -0.000345267
vn -0.8980323 -0.01176465 -0.4397722
vn -0.8980323 -0.01176465 -0.4397722
vn -0.8980323 -0.01176465 -0.4397722
vn -0.8980323 -0.01176465 -0.4397722
vn 0.5686231 -0.01176465 -0.8225141
vn 0.5686231 -0.01176465 -0.8225141
vn 0.5686231 -0.01176465 -0.8225141
vn 0.5686231 -0.01176465 -0.8225141
vn 0.003921568 0.9999923 -0.000345267
vn 0.003921568 0.9999923 -0.000345267
vn 0.003921568 0.9999923 -0.000345267
vn 0.003921568 0.9999923 -0.000345267
vn 0.003921568 -0.9999924 0
vn 0.003921568 -0.9999924 0
vn 0.003921568 -0.9999924 0
vn 0.003921568 -0.9999924 0
vn 0.9137185 -0.01176465 -0.4061774
vn 0.9137185 -0.01176465 -0.4061774
vn 0.9137185 -0.01176465 -0.4061774
vn 0.9137185 -0.01176465 -0.4061774
vn -0.9999923 -0.003921568 -0.0003442513
vn -0.9999923 -0.003921568 -0.0003442513
vn -0.9999923 -0.003921568 -0.0003442513
vn -0.9999923 -0.003921568 -0.0003442513
vn 0.003921568 -0.9999924 0
vn -0.5450938 -0.8352877 -0.07188273
vn 0.003921568 -0.9999924 0
vn -0.5450938 -0.8352877 -0.07188273
vn 0.9999924 -0.003921568 0
vn 0.9999924 -0.003921568 0
vn 0.9999924 -0.003921568 0
vn 0.9999924 -0.003921568 0
vn 0.003921568 0.9999923 -0.000345267
vn 0.5663631 0.8241558 0
vn 0.003921568 0.9999923 -0.000345267
vn 0.5663631 0.8241558 0
vn 0.01176465 -0.01176465 0.9998616
vn 0.01176465 -0.01176465 0.9998616
vn 0.01176465 -0.01176465 0.9998616
vn 0.01176465 -0.01176465 0.9998616
vn 0.01176465 -0.01176465 0.9998616
vn 0.01176465 -0.01176465 0.9998616
vn 0.5573959 -0.830247 0
vn 0.003921568 -0.9999924 0
vn 0.5573959 -0.830247 0
vn 0.003921568 -0.9999924 0
vn -0.5529369 0.8274446 -0.09796064
vn 0.003921568 0.9999923 -0.000345267
vn -0.5529369 0.8274446 -0.09796064
vn 0.003921568 0.9999923 -0.000345267
vn 0.003921568 -0.9999924 0
vn 0.003921568 -0.9999924 0
vn 0.003921568 -0.9999924 0
vn 0.003921568 -0.9999924 0
vn 0.003921568 -0.9999924 0
vn 0.003921568 -0.9999924 0
vn 0.003921568 -0.9999924 0
vn 0.003921568 -0.9999924 0
g XuanJueSe_qiaoLiang_0
f 3/3/3 2/2/2 1/1/1
f 4/4/4 1/1/1 2/2/2
f 7/7/7 6/6/6 5/5/5
f 8/8/8 5/5/5 6/6/6
f 11/11/11 10/10/10 9/9/9
f 12/12/12 9/9/9 10/10/10
f 15/15/15 14/14/14 13/13/13
f 16/16/16 13/13/13 14/14/14
f 19/19/19 18/18/18 17/17/17
f 20/20/20 17/17/17 18/18/18
f 23/23/23 22/22/22 21/21/21
f 24/24/24 21/21/21 22/22/22
f 27/27/27 26/26/26 25/25/25
f 28/28/28 25/25/25 26/26/26
f 31/31/31 30/30/30 29/29/29
f 32/32/32 29/29/29 30/30/30
f 35/35/35 34/34/34 33/33/33
f 36/36/36 33/33/33 34/34/34
f 39/39/39 38/38/38 37/37/37
f 40/40/40 37/37/37 38/38/38
f 43/43/43 42/42/42 41/41/41
f 44/44/44 41/41/41 42/42/42
f 47/47/47 46/46/46 45/45/45
f 48/48/48 45/45/45 46/46/46
f 51/51/51 50/50/50 49/49/49
f 52/52/52 49/49/49 50/50/50
f 55/55/55 54/54/54 53/53/53
f 56/56/56 53/53/53 54/54/54
f 59/59/59 58/58/58 57/57/57
f 60/60/60 57/57/57 58/58/58
f 63/63/63 62/62/62 61/61/61
f 64/64/64 61/61/61 62/62/62
f 67/67/67 66/66/66 65/65/65
f 68/68/68 65/65/65 66/66/66
f 71/71/71 70/70/70 69/69/69
f 72/72/72 69/69/69 70/70/70
f 75/75/75 74/74/74 73/73/73
f 76/76/76 73/73/73 74/74/74
f 79/79/79 78/78/78 77/77/77
f 80/80/80 77/77/77 78/78/78
f 83/83/83 82/82/82 81/81/81
f 84/84/84 81/81/81 82/82/82
f 82/82/82 83/83/83 85/85/85
f 86/86/86 85/85/85 83/83/83
f 85/85/85 86/86/86 87/87/87
f 88/88/88 87/87/87 86/86/86
f 91/91/91 90/90/90 89/89/89
f 92/92/92 89/89/89 90/90/90
f 95/95/95 94/94/94 93/93/93
f 96/96/96 93/93/93 94/94/94
f 99/99/99 98/98/98 97/97/97
f 100/100/100 98/98/98 99/99/99
f 103/103/103 102/102/102 101/101/101
f 104/104/104 103/103/103 101/101/101
f 107/107/107 106/106/106 105/105/105
f 108/108/108 105/105/105 106/106/106
f 111/111/111 110/110/110 109/109/109
f 112/112/112 109/109/109 110/110/110
f 115/115/115 114/114/114 113/113/113
f 116/116/116 114/114/114 115/115/115
f 119/119/119 118/118/118 117/117/117
f 120/120/120 119/119/119 117/117/117
f 123/123/123 122/122/122 121/121/121
f 124/124/124 121/121/121 122/122/122
f 127/127/127 126/126/126 125/125/125
f 128/128/128 125/125/125 126/126/126
f 131/131/131 130/130/130 129/129/129
f 132/132/132 129/129/129 130/130/130
f 135/135/135 134/134/134 133/133/133
f 136/136/136 133/133/133 134/134/134
f 139/139/139 138/138/138 137/137/137
f 140/140/140 137/137/137 138/138/138
f 143/143/143 142/142/142 141/141/141
f 144/144/144 141/141/141 142/142/142
f 147/147/147 146/146/146 145/145/145
f 148/148/148 145/145/145 146/146/146
f 151/151/151 150/150/150 149/149/149
f 152/152/152 149/149/149 150/150/150
f 155/155/155 154/154/154 153/153/153
f 156/156/156 153/153/153 154/154/154
f 159/159/159 158/158/158 157/157/157
f 160/160/160 157/157/157 158/158/158
f 163/163/163 162/162/162 161/161/161
f 164/164/164 161/161/161 162/162/162
f 167/167/167 166/166/166 165/165/165
f 168/168/168 165/165/165 166/166/166
f 171/171/171 170/170/170 169/169/169
f 172/172/172 169/169/169 170/170/170
f 175/175/175 174/174/174 173/173/173
f 176/176/176 173/173/173 174/174/174
f 179/179/179 178/178/178 177/177/177
f 180/180/180 177/177/177 178/178/178
f 183/183/183 182/182/182 181/181/181
f 184/184/184 181/181/181 182/182/182
f 187/187/187 186/186/186 185/185/185
f 188/188/188 185/185/185 186/186/186
f 191/191/191 190/190/190 189/189/189
f 192/192/192 189/189/189 190/190/190
f 195/195/195 194/194/194 193/193/193
f 196/196/196 193/193/193 194/194/194
f 199/199/199 198/198/198 197/197/197
f 200/200/200 197/197/197 198/198/198
f 203/203/203 202/202/202 201/201/201
f 204/204/204 201/201/201 202/202/202
f 202/202/202 203/203/203 205/205/205
f 206/206/206 205/205/205 203/203/203
f 205/205/205 206/206/206 207/207/207
f 208/208/208 207/207/207 206/206/206
f 211/211/211 210/210/210 209/209/209
f 212/212/212 209/209/209 210/210/210
f 215/215/215 214/214/214 213/213/213
f 216/216/216 213/213/213 214/214/214
f 219/219/219 218/218/218 217/217/217
f 220/220/220 218/218/218 219/219/219
f 223/223/223 222/222/222 221/221/221
f 224/224/224 223/223/223 221/221/221
f 227/227/227 226/226/226 225/225/225
f 228/228/228 225/225/225 226/226/226
f 231/231/231 230/230/230 229/229/229
f 232/232/232 229/229/229 230/230/230
f 235/235/235 234/234/234 233/233/233
f 236/236/236 234/234/234 235/235/235
f 239/239/239 238/238/238 237/237/237
f 240/240/240 239/239/239 237/237/237
f 243/243/243 242/242/242 241/241/241
f 244/244/244 241/241/241 242/242/242
f 247/247/247 246/246/246 245/245/245
f 248/248/248 245/245/245 246/246/246
f 251/251/251 250/250/250 249/249/249
f 252/252/252 249/249/249 250/250/250
f 255/255/255 254/254/254 253/253/253
f 256/256/256 253/253/253 254/254/254
f 259/259/259 258/258/258 257/257/257
f 260/260/260 257/257/257 258/258/258
f 263/263/263 262/262/262 261/261/261
f 264/264/264 261/261/261 262/262/262
f 261/261/261 265/265/265 263/263/263
f 266/266/266 263/263/263 265/265/265
f 269/269/269 268/268/268 267/267/267
f 270/270/270 267/267/267 268/268/268
f 273/273/273 272/272/272 271/271/271
f 274/274/274 271/271/271 272/272/272
f 277/277/277 276/276/276 275/275/275
f 278/278/278 275/275/275 276/276/276
f 281/281/281 280/280/280 279/279/279
f 282/282/282 279/279/279 280/280/280
f 285/285/285 284/284/284 283/283/283
f 286/286/286 283/283/283 284/284/284
f 289/289/289 288/288/288 287/287/287
f 290/290/290 287/287/287 288/288/288
f 293/293/293 292/292/292 291/291/291
f 294/294/294 291/291/291 292/292/292
f 297/297/297 296/296/296 295/295/295
f 298/298/298 295/295/295 296/296/296
f 301/301/301 300/300/300 299/299/299
f 302/302/302 299/299/299 300/300/300
f 305/305/305 304/304/304 303/303/303
f 306/306/306 303/303/303 304/304/304
f 309/309/309 308/308/308 307/307/307
f 310/310/310 307/307/307 308/308/308
f 313/313/313 312/312/312 311/311/311
f 314/314/314 311/311/311 312/312/312
f 317/317/317 316/316/316 315/315/315
f 318/318/318 315/315/315 316/316/316
f 321/321/321 320/320/320 319/319/319
f 322/322/322 319/319/319 320/320/320
f 325/325/325 324/324/324 323/323/323
f 326/326/326 323/323/323 324/324/324
f 329/329/329 328/328/328 327/327/327
f 330/330/330 327/327/327 328/328/328
f 333/333/333 332/332/332 331/331/331
f 334/334/334 331/331/331 332/332/332
f 337/337/337 336/336/336 335/335/335
f 338/338/338 335/335/335 336/336/336
f 341/341/341 340/340/340 339/339/339
f 342/342/342 339/339/339 340/340/340
f 340/340/340 341/341/341 343/343/343
f 344/344/344 343/343/343 341/341/341
f 343/343/343 344/344/344 345/345/345
f 346/346/346 345/345/345 344/344/344
f 349/349/349 348/348/348 347/347/347
f 350/350/350 347/347/347 348/348/348
f 353/353/353 352/352/352 351/351/351
f 354/354/354 351/351/351 352/352/352
f 357/357/357 356/356/356 355/355/355
f 358/358/358 356/356/356 357/357/357
f 361/361/361 360/360/360 359/359/359
f 362/362/362 361/361/361 359/359/359
f 365/365/365 364/364/364 363/363/363
f 366/366/366 363/363/363 364/364/364
f 369/369/369 368/368/368 367/367/367
f 370/370/370 367/367/367 368/368/368
f 373/373/373 372/372/372 371/371/371
f 374/374/374 372/372/372 373/373/373
f 377/377/377 376/376/376 375/375/375
f 378/378/378 377/377/377 375/375/375
f 381/381/381 380/380/380 379/379/379
f 382/382/382 379/379/379 380/380/380
f 385/385/385 384/384/384 383/383/383
f 386/386/386 383/383/383 384/384/384
f 389/389/389 388/388/388 387/387/387
f 390/390/390 387/387/387 388/388/388
f 393/393/393 392/392/392 391/391/391
f 394/394/394 391/391/391 392/392/392
f 397/397/397 396/396/396 395/395/395
f 398/398/398 395/395/395 396/396/396
f 401/401/401 400/400/400 399/399/399
f 402/402/402 399/399/399 400/400/400
f 405/405/405 404/404/404 403/403/403
f 406/406/406 403/403/403 404/404/404
f 409/409/409 408/408/408 407/407/407
f 410/410/410 407/407/407 408/408/408
f 413/413/413 412/412/412 411/411/411
f 414/414/414 411/411/411 412/412/412
f 417/417/417 416/416/416 415/415/415
f 418/418/418 415/415/415 416/416/416
f 421/421/421 420/420/420 419/419/419
f 422/422/422 419/419/419 420/420/420
f 425/425/425 424/424/424 423/423/423
f 426/426/426 423/423/423 424/424/424
f 429/429/429 428/428/428 427/427/427
f 430/430/430 427/427/427 428/428/428
f 433/433/433 432/432/432 431/431/431
f 434/434/434 431/431/431 432/432/432
f 437/437/437 436/436/436 435/435/435
f 438/438/438 435/435/435 436/436/436
f 441/441/441 440/440/440 439/439/439
f 442/442/442 439/439/439 440/440/440
f 445/445/445 444/444/444 443/443/443
f 446/446/446 443/443/443 444/444/444
f 449/449/449 448/448/448 447/447/447
f 450/450/450 447/447/447 448/448/448
f 448/448/448 449/449/449 451/451/451
f 452/452/452 451/451/451 449/449/449
f 451/451/451 452/452/452 453/453/453
f 454/454/454 453/453/453 452/452/452
f 457/457/457 456/456/456 455/455/455
f 458/458/458 455/455/455 456/456/456
f 461/461/461 460/460/460 459/459/459
f 462/462/462 459/459/459 460/460/460
f 465/465/465 464/464/464 463/463/463
f 466/466/466 464/464/464 465/465/465
f 469/469/469 468/468/468 467/467/467
f 470/470/470 469/469/469 467/467/467
f 473/473/473 472/472/472 471/471/471
f 474/474/474 471/471/471 472/472/472
f 477/477/477 476/476/476 475/475/475
f 478/478/478 475/475/475 476/476/476
f 481/481/481 480/480/480 479/479/479
f 482/482/482 480/480/480 481/481/481
f 485/485/485 484/484/484 483/483/483
f 486/486/486 485/485/485 483/483/483
f 489/489/489 488/488/488 487/487/487
f 490/490/490 487/487/487 488/488/488
f 493/493/493 492/492/492 491/491/491
f 494/494/494 491/491/491 492/492/492
f 497/497/497 496/496/496 495/495/495
f 498/498/498 495/495/495 496/496/496
f 501/501/501 500/500/500 499/499/499
f 502/502/502 499/499/499 500/500/500
f 505/505/505 504/504/504 503/503/503
f 506/506/506 503/503/503 504/504/504
f 509/509/509 508/508/508 507/507/507
f 510/510/510 507/507/507 508/508/508
f 507/507/507 511/511/511 509/509/509
f 512/512/512 509/509/509 511/511/511
f 515/515/515 514/514/514 513/513/513
f 516/516/516 513/513/513 514/514/514
f 519/519/519 518/518/518 517/517/517
f 520/520/520 517/517/517 518/518/518
f 523/523/523 522/522/522 521/521/521
f 524/524/524 521/521/521 522/522/522
f 527/527/527 526/526/526 525/525/525
f 528/528/528 525/525/525 526/526/526
