g zc_suzhou_qizi01
v -1.001869 -2.944203 0
v 0 -2.20337 0
v 0 -2.944203 0
v -1.001869 -2.20337 0
v 1.001869 -2.944203 0
v 1.001869 -2.20337 0
v -1.001869 -1.462537 0
v 0 -1.462537 0
v -1.001869 -0.7217041 0
v 0 -0.7217039 0
v 0 0.01912903 0
v -1.001869 0.01912903 0
v 1.001869 0.01912903 0
v 1.001869 -0.7217039 0
v 1.001869 -1.462537 0
v 0 -3.685036 0
v -1.001869 -3.685036 0
v 1.001869 -3.685036 0
v 0 -4.055453 0
v -1.001869 -4.055453 0
v -1.001869 -4.425869 0
v 0 -4.425869 0
v 0 -4.796286 0
v -1.001869 -4.796286 0
v 1.001869 -4.796286 0
v 1.001869 -4.425869 0
v 1.001869 -4.055452 0
v 0 -5.166702 0
v -1.001869 -5.166702 0
v 1.001869 -5.166702 0
vt 0.0078125 0.4316406
vt 0.2402344 0.5722656
vt 0.2402344 0.4316406
vt 0.0078125 0.5722656
vt 0.4726563 0.4316406
vt 0.4726563 0.5722656
vt 0.0078125 0.7128906
vt 0.2402344 0.7128906
vt 0.0078125 0.8535156
vt 0.2402344 0.8535156
vt 0.2402344 0.9941406
vt 0.0078125 0.9941406
vt 0.4726563 0.9941406
vt 0.4726563 0.8535156
vt 0.4726563 0.7128906
vt 0.2402344 0.2910156
vt 0.0078125 0.2910156
vt 0.4726563 0.2910156
vt 0.2402344 0.2207031
vt 0.0078125 0.2207031
vt 0.0078125 0.1503906
vt 0.2402344 0.1503906
vt 0.2402344 0.08007813
vt 0.0078125 0.08007813
vt 0.4726563 0.08007813
vt 0.4726563 0.1503906
vt 0.4726563 0.2207031
vt 0.2402344 0.009765625
vt 0.0078125 0.009765625
vt 0.4726563 0.009765625
vn 0 0 1
vn 0 0 1
vn 0 0 1
vn 0 0 1
vn 0 0 1
vn 0 0 1
vn 0 0 1
vn 0 0 1
vn 0 0 1
vn 0 0 1
vn 0 0 1
vn 0 0 1
vn 0 0 1
vn 0 0 1
vn 0 0 1
vn 0 0 1
vn 0 0 1
vn 0 0 1
vn 0 0 1
vn 0 0 1
vn 0 0 1
vn 0 0 1
vn 0 0 1
vn 0 0 1
vn 0 0 1
vn 0 0 1
vn 0 0 1
vn 0 0 1
vn 0 0 1
vn 0 0 1
g zc_suzhou_qizi01_0
f 3/3/3 2/2/2 1/1/1
f 2/2/2 4/4/4 1/1/1
f 2/2/2 3/3/3 5/5/5
f 6/6/6 2/2/2 5/5/5
f 7/7/7 4/4/4 2/2/2
f 8/8/8 7/7/7 2/2/2
f 8/8/8 2/2/2 6/6/6
f 7/7/7 8/8/8 9/9/9
f 8/8/8 10/10/10 9/9/9
f 9/9/9 10/10/10 11/11/11
f 12/12/12 9/9/9 11/11/11
f 11/11/11 10/10/10 13/13/13
f 10/10/10 14/14/14 13/13/13
f 8/8/8 15/15/15 10/10/10
f 15/15/15 14/14/14 10/10/10
f 15/15/15 8/8/8 6/6/6
f 3/3/3 1/1/1 16/16/16
f 1/1/1 17/17/17 16/16/16
f 5/5/5 3/3/3 18/18/18
f 3/3/3 16/16/16 18/18/18
f 16/16/16 17/17/17 19/19/19
f 17/17/17 20/20/20 19/19/19
f 19/19/19 20/20/20 21/21/21
f 22/22/22 19/19/19 21/21/21
f 23/23/23 22/22/22 21/21/21
f 24/24/24 23/23/23 21/21/21
f 23/23/23 25/25/25 22/22/22
f 25/25/25 26/26/26 22/22/22
f 26/26/26 27/27/27 22/22/22
f 27/27/27 19/19/19 22/22/22
f 18/18/18 16/16/16 27/27/27
f 16/16/16 19/19/19 27/27/27
f 28/28/28 23/23/23 24/24/24
f 29/29/29 28/28/28 24/24/24
f 28/28/28 30/30/30 23/23/23
f 30/30/30 25/25/25 23/23/23
